<svg width="512" height="190" viewBox="0 0 512 190" fill="none" xmlns="http://www.w3.org/2000/svg">
<g clip-path="url(#clip0_1_2)">
<path d="M49.4427 2.09729L0.000457764 53.6487L24.447 75.8221L42.1795 62.5337V186.983H94.9028V2.09729H49.4427ZM463.231 129.49C438.591 145.414 411.94 147.587 384.482 138.685C370.602 134.187 359.7 124.419 349.226 114.571C333.198 99.4998 320.283 81.6952 306.51 64.6774C292.155 46.9389 277.028 30.1723 257.481 17.9129C241.288 7.75822 224.061 1.33591 204.835 1.11025C174.68 0.755213 149.491 12.0864 129.905 35.0105C124.846 40.9348 120.695 47.3902 117.626 54.3707C115.642 58.8824 110.895 70.361 110.027 76.6705C110.754 75.3195 114.536 65.8598 115.253 64.5044C117.126 60.2649 119.002 57.9241 121.227 54.9604C125.181 49.698 129.973 45.2089 136.124 41.9714C162.474 28.1038 198.608 33.0894 220.83 53.3221C240.369 71.1117 256.579 91.9342 274.418 111.272C291.087 129.34 306.835 148.33 325.374 164.561C343.36 180.309 364.044 189.459 388.583 189.209C431.297 188.776 468.379 160.49 479.44 119.122C480.691 114.44 482.139 108.624 481.602 102.226C477.568 113.519 472.234 123.671 463.231 129.49ZM230.832 123.95C220.835 131.299 210.57 138.194 197.059 134.946C180.18 130.887 168.962 120.621 165.312 103.645C161.903 87.7889 166.688 74.0597 179.414 63.5199C185.143 58.775 191.495 56.0114 198.377 54.8109C201.922 54.1911 206.778 54.7507 210.592 54.9026C197.92 45.5242 182.435 41.7572 167.119 41.9738C140.957 42.3424 124.824 53.0297 115.107 77.3378C111.194 87.1285 107.898 97.3359 109.076 108.049C112.808 133.117 124.418 154.059 144.736 169.347C173.249 190.799 204.613 195.399 237.901 182.056C258.957 173.617 275.457 155.683 290.767 139.739L255.695 99.8452C248.901 107.513 239.121 117.856 230.832 123.95ZM438.91 38.4633C438.91 31.373 440.622 24.6874 443.638 18.7781C422.195 3.25267 394.702 -2.94848 368.608 2.99843C342.591 8.92879 322.141 23.9924 303.425 42.1129C301.474 44.0025 299.246 46.8563 299.246 46.8563L334.975 90.2373L338.425 86.7486C347.466 76.8406 356.84 67.2455 368.484 60.2711C373.246 57.4188 378.182 54.7439 383.829 54.5649C400.671 54.0278 413.604 61.2399 421.578 75.9139C429.486 90.4675 428.089 105.027 418.814 118.761C413.779 126.218 406.445 130.685 398.306 134.371C416.634 137.409 434.398 136.435 451.479 128.527C471.655 119.187 481.506 98.2588 481.039 81.8082C457.661 81.1462 438.91 62.0012 438.91 38.4633Z" fill="#919FA1"/>
<path d="M479.529 20.2792V28.5911H471.161V57.8141H462.367V28.5911H453.81V20.2792H479.529ZM498.002 49.4839C499.425 49.4839 500.534 49.0552 501.323 48.2503C502.115 47.4455 502.538 46.3743 502.538 45.0866C502.538 43.7461 502.115 43.6739 501.271 42.9232C500.427 42.171 499.32 41.7964 498.002 41.7964H492.729V49.4839H498.002ZM497.263 34.986V34.8792C498.37 34.8792 499.32 34.5572 500.058 33.9133C500.797 33.271 501.165 32.4119 501.165 31.3935C501.165 30.3208 500.797 29.4633 500.058 28.8194C499.32 28.177 498.37 27.8551 497.263 27.8551H492.729V34.986H497.263ZM498.582 20.294L498.74 20.133C500.374 20.133 501.904 20.4008 503.275 20.8837C504.647 21.3666 505.807 22.0631 506.756 22.9748C507.705 23.8865 508.442 24.9591 508.97 26.1927C509.498 27.4263 509.762 28.7126 509.762 30.1072C509.762 31.0715 509.989 32.3894 509.673 33.1942C509.357 33.9976 508.987 34.6956 508.513 35.338C508.038 35.9819 507.511 36.519 506.93 36.9477C506.35 37.3765 505.823 37.6443 505.349 37.8052V37.8594C506.192 38.073 506.651 38.0429 507.442 38.5785C508.232 39.1156 508.918 39.7595 509.498 40.5628C510.078 41.3677 510.553 42.2793 510.922 43.2978C511.29 44.3163 511.502 45.3363 511.502 46.4074C511.502 48.0698 511.237 49.5712 510.711 50.9658C510.183 52.3604 509.393 53.5398 508.337 54.5583C507.282 55.5768 505.965 56.3816 504.329 56.9713C502.695 57.5611 500.797 57.8289 498.582 57.8289H484.08V20.294H498.582Z" fill="#3390DA"/>
</g>
<defs>
<clipPath id="clip0_1_2">
<rect width="512" height="190" fill="white"/>
</clipPath>
</defs>
</svg>
