<svg width="512" height="128" viewBox="0 0 512 128" fill="none" xmlns="http://www.w3.org/2000/svg">
<g clip-path="url(#clip0_1_6)">
<path d="M158.951 0C123.599 0 94.9396 28.6538 94.9396 64C94.9396 99.3462 123.599 128 158.951 128C194.304 128 222.962 99.3462 222.962 64C222.65 28.7841 194.173 0.31274 158.951 0ZM158.951 114.56C131.2 114.736 108.561 92.3866 108.384 64.6407C108.208 36.8947 130.561 14.2589 158.312 14.082C186.062 13.9051 208.703 36.254 208.88 64C208.882 91.6755 186.629 114.21 158.951 114.56ZM296.511 0C261.159 0 232.5 28.6538 232.5 64C232.5 99.3462 261.159 128 296.511 128C331.864 128 360.523 99.3462 360.523 64C360.523 47.0261 353.779 30.7475 341.774 18.7452C329.77 6.74284 313.488 0 296.511 0ZM296.511 114.56C268.761 114.736 246.121 92.3866 245.945 64.6407C245.768 36.8947 268.121 14.2589 295.872 14.082C323.623 13.9051 346.263 36.254 346.44 64C346.664 77.3656 341.497 90.2585 332.103 99.7707C322.71 109.283 309.881 114.613 296.511 114.56ZM48.8515 38.4C36.7839 36.4462 24.4538 39.7026 14.9254 47.36V13.44H72.5357C74.456 13.44 75.7362 12.8 75.7362 7.04C75.7362 1.28 73.1758 1.28 71.8956 1.28H8.5243C5.34257 1.28 2.76328 3.85884 2.76328 7.04V63.36C2.76328 66.56 4.68362 67.2 7.88419 67.84C9.87366 68.7596 12.2325 68.2355 13.6452 66.56C20.9269 56.2362 33.0398 50.423 45.6509 51.2C60.489 53.0521 72.2707 64.5699 74.456 79.36C76.4891 97.0083 63.9223 112.999 46.291 115.2H42.4503C29.0337 115.011 17.0994 106.633 12.365 94.08C11.7249 92.16 10.4446 90.88 5.32373 92.8C0.202822 94.72 -0.437291 96 0.202822 97.92C8.87338 121.077 34.4921 133.031 57.8131 124.8C80.9746 116.131 92.93 90.5168 84.6978 67.2C78.9629 51.7342 65.1919 40.6702 48.8515 38.4ZM404.051 0.64C386.503 2.66014 373.274 17.5395 373.325 35.2V92.16C373.325 95.36 375.886 96 379.726 96C383.567 96 386.127 95.36 386.127 92.16V35.2C385.895 24.2875 393.876 14.9318 404.691 13.44C410.504 12.8531 416.301 14.7075 420.694 18.56C425.149 22.4231 427.716 28.0236 427.735 33.92C427.309 38.2905 425.766 42.478 423.254 46.08C419.141 51.7909 412.348 54.9444 405.331 54.4C402.77 54.4 400.85 54.4 400.21 60.16C400.21 64 400.21 65.92 403.41 66.56C409.846 67.2165 416.327 65.8757 421.974 62.72C432.297 57.4606 439.276 47.3553 440.537 35.84C441.278 26.9791 438.427 18.1922 432.625 11.4529C426.824 4.7137 418.558 0.587086 409.684 0C407.852 0.514019 405.95 0.730114 404.051 0.64ZM487.905 33.92L510.95 10.88C511.59 10.24 513.51 8.32 509.669 3.84C508.601 2.39582 506.975 1.46687 505.189 1.28C504.186 1.29919 503.245 1.76944 502.628 2.56L479.584 25.6L456.54 1.92C454.62 0 452.699 0.64 449.499 3.2C446.298 5.76 446.298 8.32 448.218 10.24L471.262 33.28L448.09 56.96C447.416 57.6656 446.97 58.5576 446.81 59.52C446.844 61.352 447.809 63.0405 449.371 64C450.623 65.2195 452.165 66.1004 453.851 66.56C455.011 66.4159 456.113 65.975 457.052 65.28L480.096 42.24L503.14 65.28C503.757 66.0706 504.698 66.5408 505.701 66.56C507.487 66.3731 509.113 65.4442 510.181 64C512.102 61.44 512.742 58.88 510.822 57.6L487.905 33.92Z" fill="black"/>
</g>
<defs>
<clipPath id="clip0_1_6">
<rect width="512" height="128" fill="white"/>
</clipPath>
</defs>
</svg>
