<svg width="256" height="250" viewBox="0 0 256 250" fill="none" xmlns="http://www.w3.org/2000/svg">
<g clip-path="url(#clip0_1_15)">
<path d="M213.5 0H42.5C19.0279 0 0 19.0279 0 42.5V207.1C0 230.572 19.0279 249.6 42.5 249.6H213.5C236.972 249.6 256 230.572 256 207.1V42.5C256 19.0279 236.972 0 213.5 0Z" fill="#00005B"/>
<path d="M102.843 149.333H63.1718L55.1004 174.454C54.8864 175.345 54.1027 175.974 53.1999 176.001L32.9468 176C31.8009 176 31.4002 175.37 31.7446 174.111L66.0915 75.6013L66.4349 74.5664C66.473 74.4495 66.5112 74.3316 66.5494 74.212L66.7783 73.4727C66.8928 73.0901 67.0073 72.6854 67.1217 72.2462C67.5715 69.955 67.8015 67.6261 67.8087 65.2912C67.7615 64.9602 67.8729 64.6262 68.1093 64.3897C68.3458 64.1532 68.6797 64.0418 69.0108 64.0889H96.3166C97.116 64.0889 97.574 64.3752 97.6905 64.9477L136.674 174.283C137.017 175.428 136.674 176.001 135.644 176H113.318C112.525 176.088 111.79 175.573 111.601 174.798L102.843 149.333ZM69.3546 128.152H96.4884L96.1023 126.875L95.4806 124.853L94.5721 121.957L92.8273 116.49L91.1645 111.236L88.0733 101.447C87.1902 98.6505 86.3701 95.9378 85.6128 93.3091L84.7347 90.2133L83.7869 86.8203L82.9212 83.6729H82.7493C81.8904 87.7957 80.8439 91.877 79.6132 95.9039L78.4537 99.6265L75.6635 108.627L74.2488 113.211C73.9933 114.039 73.7384 114.858 73.4843 115.667L72.724 118.065L71.9679 120.407L71.216 122.691L70.4683 124.918C70.0955 126.018 69.7242 127.095 69.3546 128.152ZM199.873 139.556H166.042C166.456 142.903 167.567 146.126 169.305 149.017C171.225 151.88 173.941 154.119 177.118 155.457C181.424 157.321 186.081 158.233 190.771 158.133C194.492 158.062 198.2 157.655 201.848 156.917C205.111 156.477 208.309 155.643 211.371 154.435C211.943 153.979 212.23 154.263 212.23 155.293V171.608C212.258 172.053 212.17 172.497 211.972 172.896C211.776 173.208 211.512 173.472 211.199 173.669C207.802 175.174 204.227 176.239 200.56 176.838C195.578 177.774 190.515 178.205 185.447 178.126C177.571 178.126 170.931 176.944 165.53 174.581L165.011 174.348C159.818 172.06 155.231 168.591 151.616 164.216C148.24 160.094 145.728 155.334 144.231 150.22C142.749 145.172 141.997 139.938 141.998 134.678C141.983 128.934 142.882 123.224 144.661 117.762C146.374 112.434 149.084 107.481 152.646 103.165C156.16 98.8988 160.553 95.4425 165.526 93.0323C170.563 90.5716 176.517 89.6889 183.386 89.6889C189.083 89.5449 194.742 90.659 199.959 92.9517C204.346 94.8227 208.208 97.7395 211.207 101.447C214.021 105.078 216.172 109.176 217.561 113.554C218.914 117.773 219.61 122.176 219.622 126.606C219.622 129.126 219.536 131.416 219.364 133.476L219.212 135.24L219.051 136.914L218.957 137.762C218.95 137.824 218.942 137.883 218.935 137.941C218.843 138.724 218.179 139.315 217.389 139.315L216.919 139.325L216.332 139.356L215.875 139.388L214.807 139.479L213.869 139.572C213.614 139.599 213.349 139.624 213.074 139.647L212.222 139.714L211.314 139.773L210.349 139.824L209.326 139.867C209.151 139.873 208.974 139.879 208.794 139.885L207.687 139.916C206.592 139.942 205.47 139.874 204.319 139.79L202.573 139.662C201.689 139.602 200.789 139.556 199.873 139.556ZM166.042 123.911L189.428 123.91L191.42 123.898L192.774 123.879L193.651 123.859L194.635 123.825C195.516 123.737 196.366 123.455 197.125 123V121.969C197.091 120.626 196.859 119.295 196.439 118.02C194.534 111.997 188.84 107.99 182.528 108.231C176.623 107.874 171.064 111.04 168.36 116.302C167.183 118.697 166.401 121.267 166.042 123.911Z" fill="#9999FF"/>
</g>
<defs>
<clipPath id="clip0_1_15">
<rect width="256" height="250" fill="white"/>
</clipPath>
</defs>
</svg>
