<svg width="256" height="250" viewBox="0 0 256 250" fill="none" xmlns="http://www.w3.org/2000/svg">
<g clip-path="url(#clip0_1_27)">
<path d="M213.5 0H42.5C19.0279 0 0 19.0279 0 42.5V207.1C0 230.572 19.0279 249.6 42.5 249.6H213.5C236.972 249.6 256 230.572 256 207.1V42.5C256 19.0279 236.972 0 213.5 0Z" fill="#330000"/>
<path d="M124.054 149.79H84.3834L76.3121 174.863C76.0852 175.806 75.2201 176.455 74.2511 176.409H54.1584C53.0126 176.409 52.6119 175.779 52.9563 174.52L87.3027 75.6013C87.6465 74.5711 87.99 73.3976 88.3334 72.0807C88.7827 69.7895 89.0127 67.4606 89.0204 65.1258C88.9731 64.7947 89.0845 64.4607 89.321 64.2242C89.5574 63.9877 89.8914 63.8763 90.2225 63.9234H117.528C118.328 63.9234 118.786 64.2097 118.902 64.7823L157.886 174.691C158.229 175.837 157.885 176.41 156.855 176.409H134.529C133.736 176.497 133.001 175.982 132.812 175.207L124.054 149.79ZM90.5657 128.152H117.7L117.314 126.875L116.692 124.853L116.249 123.433L115.542 121.197L114.039 116.49L112.717 112.317L109.285 101.447C108.401 98.6505 107.581 95.9378 106.824 93.3091L106.196 91.0999L105.462 88.4861L104.342 84.4367C104.271 84.1796 104.202 83.9249 104.133 83.6729H103.961C103.102 87.7956 102.055 91.8768 100.825 95.9039L98.2768 104.099L96.875 108.627L95.46 113.211C95.2045 114.039 94.9497 114.858 94.6955 115.667L93.9352 118.065L93.1791 120.407L92.4272 122.691L91.6795 124.918C91.4309 125.651 91.1831 126.374 90.9359 127.088L90.5657 128.152ZM181.067 82.1273C177.525 82.2696 174.089 80.8954 171.622 78.3492C169.165 75.6963 167.867 72.1733 168.015 68.5604C167.889 64.9783 169.294 61.5121 171.879 59.0291C174.348 56.6598 177.632 55.3387 181.044 55.3326L181.411 55.337C185.532 55.337 188.767 56.5677 191.114 59.0291C193.506 61.6127 194.773 65.0419 194.634 68.5604C194.779 72.1886 193.447 75.7206 190.942 78.3492C188.409 80.8456 184.979 82.2088 181.434 82.1396L181.067 82.1273ZM169.217 174.691V92.6029C169.217 91.5727 169.674 91.0573 170.591 91.0573H191.715C192.63 91.0573 193.088 91.5725 193.089 92.6029V174.691C193.089 175.837 192.631 176.41 191.715 176.409H170.763C169.787 176.409 169.273 175.895 169.222 174.867L169.217 174.691Z" fill="#FF9A00"/>
</g>
<defs>
<clipPath id="clip0_1_27">
<rect width="256" height="250" fill="white"/>
</clipPath>
</defs>
</svg>
