<svg width="256" height="250" viewBox="0 0 256 250" fill="none" xmlns="http://www.w3.org/2000/svg">
<g clip-path="url(#clip0_1_31)">
<path d="M213.5 0H42.5C19.0279 0 0 19.0279 0 42.5V207.1C0 230.572 19.0279 249.6 42.5 249.6H213.5C236.972 249.6 256 230.572 256 207.1V42.5C256 19.0279 236.972 0 213.5 0Z" fill="#49021F"/>
<path d="M102.929 65.2974V174.691C102.929 175.837 102.414 176.409 101.384 176.409H80.6037C79.6865 176.409 79.2287 175.836 79.2302 174.691V65.2974C79.2302 64.3823 79.7453 63.9243 80.7755 63.9234H101.555C101.934 63.8697 102.315 63.997 102.585 64.2673C102.856 64.5375 102.983 64.9191 102.929 65.2974ZM184.846 156.316V174.005C184.874 174.64 184.542 175.238 183.988 175.55C181.27 176.569 178.436 177.24 175.552 177.547L174.885 177.611C171.833 177.916 168.87 178.086 165.998 178.12L164.925 178.126C158.424 178.23 151.959 177.124 145.863 174.863C140.493 172.847 135.628 169.682 131.609 165.59C127.691 161.546 124.625 156.758 122.593 151.508C120.446 145.979 119.368 140.093 119.416 134.163C119.258 126.057 121.338 118.065 125.427 111.064C129.382 104.493 135.031 99.1106 141.778 95.4776L142.342 95.1789C149.612 91.288 158.112 89.3418 167.844 89.3401C171.232 89.2782 174.62 89.4792 177.977 89.9412C179.948 90.2467 181.898 90.6769 183.816 91.2292C184.428 91.6527 184.758 92.3785 184.674 93.1182L184.503 110.807C184.503 111.837 184.045 112.238 183.129 112.009C181.234 111.334 179.279 110.845 177.29 110.549C174.448 110.117 171.577 109.916 168.703 109.948C164.331 109.882 159.996 110.76 155.995 112.524C152.316 114.155 149.207 116.845 147.065 120.252C144.889 123.687 143.801 128.037 143.802 133.304C143.802 139.258 145.09 143.952 147.666 147.386C150.13 150.738 153.539 153.279 157.455 154.685C161.277 156.094 165.317 156.82 169.39 156.831C171.8 156.842 174.208 156.734 176.606 156.507L177.633 156.402C179.612 156.224 181.568 155.85 183.472 155.286C184.387 155.058 184.845 155.401 184.846 156.316Z" fill="#FF3366"/>
</g>
<defs>
<clipPath id="clip0_1_31">
<rect width="256" height="250" fill="white"/>
</clipPath>
</defs>
</svg>
