<svg width="256" height="250" viewBox="0 0 256 250" fill="none" xmlns="http://www.w3.org/2000/svg">
<g clip-path="url(#clip0_1_19)">
<path d="M213.5 0H42.5C19.0279 0 0 19.0279 0 42.5V207.1C0 230.572 19.0279 249.6 42.5 249.6H213.5C236.972 249.6 256 230.572 256 207.1V42.5C256 19.0279 236.972 0 213.5 0Z" fill="#00005B"/>
<path d="M103.513 149.333H63.8423L55.6954 174.366C55.4811 175.256 54.6975 175.884 53.7949 175.912L33.5417 175.911C32.3959 175.911 31.9952 175.281 32.3396 174.022L66.8291 75.6013L67.2872 74.2491C67.478 73.6759 67.6688 73.0671 67.8598 72.3351C68.309 70.0438 68.5391 67.715 68.5467 65.3801C68.4995 65.049 68.6109 64.715 68.8473 64.4785C69.0838 64.242 69.4178 64.1306 69.7489 64.1778H97.0541C97.8541 64.1778 98.3121 64.4641 98.428 65.0366L137.269 174.194C137.612 175.34 137.268 175.912 136.238 175.911H113.913C113.119 175.999 112.384 175.484 112.195 174.709L103.513 149.333ZM70.0921 128.152H97.226L96.8399 126.875L96.2183 124.853L95.31 121.957L93.5654 116.49L88.8109 101.447C87.9278 98.6505 87.1078 95.9378 86.3508 93.3091L85.4725 90.2133L84.7538 87.6456L83.8679 84.4367C83.7975 84.1796 83.728 83.925 83.6593 83.6729H83.4874C82.6281 87.7956 81.5815 91.8768 80.3512 95.9039L79.1918 99.6265L76.4014 108.627L74.6036 114.446L73.8412 116.873L73.083 119.243L72.329 121.556C71.5771 123.84 70.8314 126.039 70.0921 128.152ZM149.29 174.277V110.978C149.29 110.546 149.289 110.102 149.286 109.647L149.273 108.248L149.252 106.781L149.205 104.453L149.148 102.42C149.116 101.418 149.079 100.436 149.037 99.4759L148.947 97.5833L148.817 95.235L148.71 93.5155L148.646 92.6368L148.604 92.1295C148.467 91.7806 148.534 91.385 148.775 91.099C149.059 90.8505 149.43 90.7267 149.806 90.7555H166.949C167.54 90.7361 168.128 90.8537 168.667 91.099C169.13 91.338 169.449 91.7856 169.525 92.3011L170.298 94.6196C170.614 95.7562 170.815 96.9216 170.899 98.0984C174.219 95.1897 178.067 92.9452 182.233 91.4867C186.376 90.0526 190.73 89.3269 195.113 89.3398C198.527 89.3558 201.917 89.9063 205.16 90.9716C212.75 93.3983 218.759 99.2489 221.388 106.771C223.106 111.18 223.779 116.876 223.779 123.858V174.277C223.779 175.307 223.321 175.822 222.405 175.822L202.338 176C201.865 176.068 201.388 175.909 201.05 175.571C200.712 175.233 200.553 174.756 200.621 174.283V126.447C200.566 123.243 199.86 120.084 198.548 117.161C197.627 115.004 196.107 113.157 194.169 111.837C191.978 110.496 189.437 109.839 186.87 109.948C184.111 109.909 181.37 110.405 178.799 111.408C176.448 112.346 174.294 113.715 172.445 115.444V174.277C172.445 175.307 171.987 175.822 171.071 175.822H150.836C150.41 175.883 149.981 175.74 149.677 175.436C149.373 175.132 149.23 174.702 149.29 174.277Z" fill="#9999FF"/>
</g>
<defs>
<clipPath id="clip0_1_19">
<rect width="256" height="250" fill="white"/>
</clipPath>
</defs>
</svg>
