<svg width="256" height="250" viewBox="0 0 256 250" fill="none" xmlns="http://www.w3.org/2000/svg">
<g clip-path="url(#clip0_1_39)">
<path d="M213.5 0H42.5C19.0279 0 0 19.0279 0 42.5V207.1C0 230.572 19.0279 249.6 42.5 249.6H213.5C236.972 249.6 256 230.572 256 207.1V42.5C256 19.0279 236.972 0 213.5 0Z" fill="#001E36"/>
<path d="M134.443 176.409H66.7797C65.6344 176.409 65.062 175.779 65.0625 174.52V65.469C65.0017 65.0433 65.1449 64.6138 65.449 64.3098C65.7531 64.0057 66.1827 63.8626 66.6084 63.9234H87.5599C87.8909 63.8768 88.2245 63.9884 88.4608 64.2248C88.6972 64.4611 88.8087 64.7948 88.762 65.1258V154.771H138.049C139.08 154.771 139.48 155.286 139.252 156.316L136.16 174.863C136.146 175.377 135.891 175.853 135.473 176.151C135.155 176.317 134.802 176.405 134.443 176.409ZM151.443 91.0573H170.162C171.206 91.0664 172.118 91.7676 172.394 92.7748C172.803 93.5271 173.092 94.338 173.253 95.1789C173.493 96.2837 173.665 97.4021 173.768 98.5279C173.881 99.73 173.939 101.018 173.94 102.392C177.15 98.6539 181.022 95.5394 185.36 93.2042C190.234 90.569 195.706 89.238 201.246 89.3401C201.671 89.2793 202.101 89.4225 202.405 89.7266C202.709 90.0306 202.852 90.4601 202.791 90.8857V111.665C202.791 112.468 202.219 112.869 201.074 112.868C194.156 112.44 187.237 113.676 180.895 116.474C178.74 117.406 176.786 118.748 175.142 120.424V174.863C175.142 175.894 174.684 176.409 173.768 176.409H152.989C152.515 176.477 152.038 176.318 151.7 175.98C151.362 175.642 151.203 175.165 151.271 174.692V115.615C151.271 114.177 151.262 112.691 151.243 111.158L151.208 108.824C151.201 108.429 151.194 108.031 151.185 107.63C151.141 105.527 151.082 103.439 151.007 101.367L150.928 99.3005C150.852 96.9412 150.622 94.5893 150.241 92.2597C150.154 91.9214 150.252 91.5621 150.499 91.315C150.715 91.0988 151.017 90.9967 151.316 91.0331L151.443 91.0573Z" fill="#31A8FF"/>
</g>
<defs>
<clipPath id="clip0_1_39">
<rect width="256" height="250" fill="white"/>
</clipPath>
</defs>
</svg>
