<svg width="256" height="250" viewBox="0 0 256 250" fill="none" xmlns="http://www.w3.org/2000/svg">
<g clip-path="url(#clip0_1_51)">
<path d="M213.5 0H42.5C19.0279 0 0 19.0279 0 42.5V207.1C0 230.572 19.0279 249.6 42.5 249.6H213.5C236.972 249.6 256 230.572 256 207.1V42.5C256 19.0279 236.972 0 213.5 0Z" fill="#470137"/>
<path d="M134.578 65.6409L102.635 118.363L136.81 174.348C137.03 174.74 137.091 175.2 136.982 175.636C136.929 175.822 136.815 175.868 136.64 175.875L136.446 175.872L136.21 175.866C136.082 175.865 135.939 175.872 135.78 175.898L111.141 175.897L110.656 175.89C109.328 175.855 108.371 175.665 107.788 174.691C105.496 170.227 103.206 165.79 100.918 161.382C98.9131 157.527 96.7998 153.604 94.5784 149.615L93.6198 147.901C91.0438 143.323 88.4964 138.687 85.9776 133.991H85.8057C83.5141 138.571 81.1384 143.151 78.6787 147.729C76.2156 152.31 73.7828 156.861 71.3802 161.382C68.9761 165.906 66.5146 170.4 63.9959 174.863C63.591 175.773 62.9185 175.962 61.9805 175.994L61.5912 176H38.0641L37.9623 176.003L37.6257 176.034C37.439 176.044 37.3274 176.004 37.2912 175.722C37.2266 175.303 37.3183 174.875 37.549 174.52L70.6933 120.08L38.4073 65.469C38.0641 65.013 38.0068 64.641 38.2354 64.3529C38.4925 64.0558 38.8742 63.8968 39.2662 63.9234H63.4802C64.0082 63.8947 64.5361 63.9824 65.0261 64.1812C65.4367 64.4139 65.789 64.7369 66.0563 65.1258C68.1172 69.706 70.407 74.2855 72.9256 78.8643C75.4427 83.4448 77.9901 87.9671 80.5677 92.4312C83.1438 96.8963 85.5195 101.419 87.6948 105.998H87.8667C90.1552 101.305 92.4736 96.7254 94.8219 92.2596C97.1672 87.7945 99.5714 83.3008 102.034 78.7784C104.495 74.257 106.871 69.7634 109.161 65.2974C109.293 64.8736 109.529 64.4897 109.848 64.1812C110.272 63.966 110.749 63.8765 111.222 63.9234H133.719C134.166 63.8132 134.63 64.0272 134.835 64.4388C135.022 64.8129 134.951 65.2595 134.669 65.5565L134.578 65.6409ZM185.048 178.113L183.864 178.126C175.959 178.247 168.127 176.604 160.937 173.318C154.239 170.218 148.64 165.157 144.88 158.806C141.089 152.509 139.143 144.664 139.045 135.271L139.041 134.506C138.977 126.624 140.991 118.864 144.88 112.009C148.776 105.22 154.453 99.6307 161.293 95.8427L161.882 95.5224C169.322 91.4008 178.31 89.34 188.844 89.3401L189.305 89.3455L189.83 89.3616L190.421 89.3884L191.076 89.426L192.178 89.5036L193.426 89.604L194.339 89.6836V55.8521C194.339 55.0524 194.683 54.65 195.37 54.65H217.008C217.292 54.6094 217.578 54.7048 217.781 54.9075C217.983 55.1101 218.079 55.3964 218.039 55.6802V157.175C218.039 158.879 218.104 160.714 218.236 162.679L218.556 167.134L218.726 169.711C218.769 170.441 218.359 171.123 217.695 171.429C212.113 173.757 206.298 175.484 200.35 176.58C195.3 177.513 190.182 178.025 185.048 178.113ZM194.339 156.831V109.948C193.411 109.697 192.463 109.524 191.506 109.433C190.336 109.315 189.161 109.258 187.985 109.261C183.818 109.22 179.699 110.161 175.964 112.009C172.325 113.817 169.219 116.539 166.948 119.909C164.681 123.225 163.509 127.555 163.431 132.899L163.427 133.476C163.344 137.219 163.955 140.946 165.23 144.466C166.268 147.303 167.909 149.881 170.039 152.023C172.078 153.993 174.547 155.463 177.252 156.316C180.108 157.241 183.094 157.705 186.096 157.691C187.698 157.691 189.186 157.633 190.561 157.518C191.658 157.436 192.745 157.255 193.809 156.978L194.339 156.831Z" fill="#FF61F6"/>
</g>
<defs>
<clipPath id="clip0_1_51">
<rect width="256" height="250" fill="white"/>
</clipPath>
</defs>
</svg>
