<svg width="256" height="250" viewBox="0 0 256 250" fill="none" xmlns="http://www.w3.org/2000/svg">
<g clip-path="url(#clip0_1_23)">
<path d="M213.5 0H42.5C19.0279 0 0 19.0279 0 42.5V207.1C0 230.572 19.0279 249.6 42.5 249.6H213.5C236.972 249.6 256 230.572 256 207.1V42.5C256 19.0279 236.972 0 213.5 0Z" fill="#470137"/>
<path d="M24.3111 174.691V65.469C24.2712 65.1336 24.3709 64.7965 24.5869 64.5367C24.8028 64.277 25.116 64.1174 25.4531 64.0953L25.732 64.0768L26.6535 64.0241L27.7018 63.976L29.297 63.9187L31.1178 63.8695L32.6315 63.8378L39.6643 63.7237L43.7253 63.6659L46.303 63.6354L48.946 63.6113L51.6543 63.594L54.4279 63.5835L57.2667 63.58C70.0346 63.58 80.6688 65.8261 89.1694 70.3183L89.733 70.6211C97.9752 74.968 104.713 81.7017 109.065 89.9411C113.361 98.1279 115.509 107.545 115.51 118.191C115.636 125.626 114.505 133.029 112.165 140.087C110.146 146.066 107.049 151.624 103.029 156.488C99.2846 160.967 94.8515 164.822 89.8958 167.908C85.0459 170.924 79.7645 173.182 74.2336 174.606C68.8541 176.016 63.3173 176.737 57.7561 176.752H44.3212L41.8147 176.745L39.3804 176.731L37.0182 176.71L34.7282 176.683L32.0083 176.638L29.616 176.583L27.9519 176.531L26.5098 176.473L25.8721 176.442L25.2898 176.409C24.6372 176.409 24.3109 175.836 24.3111 174.691ZM46.8251 84.7031V155.801C48.0205 155.801 49.1083 155.829 50.0883 155.887L52.0822 156.002L53.1065 156.058C53.9912 156.109 54.9766 156.137 56.0627 156.143L56.6141 156.144C61.5584 156.21 66.4749 155.396 71.1342 153.74C75.36 152.218 79.1823 149.751 82.3096 146.527C85.5227 143.137 87.9706 139.096 89.488 134.678C91.2457 129.54 92.1013 124.136 92.0169 118.707C92.1188 113.591 91.2896 108.499 89.5697 103.68C86.565 95.3812 79.8236 88.9851 71.3787 86.4206C67.0787 85.0895 62.6085 84.3954 58.1104 84.359L56.2078 84.3623L54.7304 84.3748L53.8195 84.3891L52.9678 84.4081L52.1753 84.4319L51.2416 84.469L50.0689 84.5234L48.1761 84.6237L46.8251 84.7031ZM211.02 176.425H191.056C190.587 176.489 190.114 176.331 189.779 175.996C189.507 175.598 189.292 175.165 189.14 174.708L188.365 171.399L187.866 169.25L187.144 166.112L186.456 163.076L185.8 160.142L185.177 157.31L184.397 153.694L183.298 148.462L181.978 142.076L181.113 137.807L179.983 132.092L179.164 127.842L178.573 124.692L178.132 122.277L177.919 121.078L177.626 119.382L177.448 118.319L177.285 117.311L177.067 115.902C177.045 115.753 177.023 115.605 177.002 115.46H176.843C175.777 120.156 174.792 124.707 173.888 129.113C172.982 133.522 171.997 137.958 170.933 142.422L169.741 147.382L168.447 152.691L167.052 158.352L165.862 163.133L164.283 169.424L162.947 174.708C162.733 175.854 162.149 176.425 161.19 176.425H141.226C140.697 176.482 140.163 176.362 139.709 176.082C139.375 175.746 139.128 175.333 138.991 174.88L118.228 92.4479C117.909 91.5328 118.335 91.0748 119.506 91.0739H139.629C140.588 91.0739 141.12 91.4174 141.226 92.1044L142.416 97.3782L143.093 100.405L144.365 106.15L145.709 112.332L146.577 116.405L147.123 119.019L147.469 120.706L147.801 122.347L148.118 123.942L148.566 126.25L148.982 128.455L149.241 129.868L149.485 131.236L149.825 133.203L151.029 140.383L151.846 145.138L152.687 149.99L153.205 153.07H153.524C153.666 151.675 153.875 150.287 154.15 148.913L154.404 147.696L155.245 143.521L156.296 138.205L156.706 136.179L157.464 132.522L159.949 120.819L161.163 115.021L161.776 112.079L162.167 110.261L162.582 108.393C162.653 108.077 162.725 107.76 162.798 107.44L163.25 105.497L163.725 103.504L164.224 101.461L164.747 99.3684L165.294 97.2259L165.866 95.0336L166.461 92.7914C166.502 92.3115 166.638 91.8445 166.861 91.4174C167.02 91.1893 167.419 91.0739 168.058 91.0739H188.98C189.619 91.0739 189.991 91.4765 190.098 92.2763L190.585 94.3765L191.287 97.4389L191.737 99.4219L192.593 103.247L193.392 106.884L194.133 110.334L194.65 112.798L196.644 122.492L197.518 126.802L197.845 128.426L198.173 130.093L198.482 131.701L198.772 133.249C198.818 133.502 198.864 133.753 198.909 134.001L199.168 135.461L199.408 136.862L199.628 138.203L199.828 139.485L200.205 142L200.483 143.772L200.664 144.885L200.843 145.943L201.019 146.946L201.278 148.347C201.639 150.135 201.905 151.941 202.077 153.757H202.396C202.883 151.764 203.327 149.482 203.726 146.909L203.943 145.478L204.177 143.985L204.434 142.43L204.713 140.813C204.762 140.538 204.811 140.261 204.862 139.981L205.175 138.27L206.22 132.767L206.776 129.806L207.548 125.642L207.909 123.685L208.248 121.89L208.607 120.04L208.986 118.135L209.385 116.175L209.804 114.16L210.243 112.09L210.701 109.965L211.213 107.631L211.744 105.241L212.294 102.795L212.865 100.292L213.455 97.7336L214.065 95.1188L214.694 92.4479C214.906 91.5328 215.385 91.0748 216.132 91.0739H234.818C235.776 91.0739 236.149 91.5891 235.936 92.6195L212.937 174.88C212.799 175.316 212.582 175.723 212.298 176.082C211.934 176.359 211.475 176.482 211.02 176.425Z" fill="#FF61F6"/>
</g>
<defs>
<clipPath id="clip0_1_23">
<rect width="256" height="250" fill="white"/>
</clipPath>
</defs>
</svg>
