<svg width="256" height="250" viewBox="0 0 256 250" fill="none" xmlns="http://www.w3.org/2000/svg">
<g clip-path="url(#clip0_1_43)">
<path d="M213.5 0H42.5C19.0279 0 0 19.0279 0 42.5V207.1C0 230.572 19.0279 249.6 42.5 249.6H213.5C236.972 249.6 256 230.572 256 207.1V42.5C256 19.0279 236.972 0 213.5 0Z" fill="#001E36"/>
<path d="M57.6445 175.035V65.2974C57.6445 64.4976 57.9882 64.0953 58.6752 64.0953L59.762 64.092L61.6199 64.0715L64.2024 64.0207L72.8526 63.8377L82.1266 63.6658C85.3891 63.6096 88.6233 63.5799 91.8292 63.5799C100.529 63.5799 107.856 64.6676 113.811 66.8429C119.183 68.66 124.082 71.652 128.151 75.6012C131.601 79.0244 134.266 83.1551 135.965 87.7085C137.571 92.1399 138.385 96.8195 138.37 101.533C138.37 110.694 136.251 118.25 132.015 124.202C127.869 130.012 122.089 134.451 115.416 136.958L114.842 137.168C107.869 139.769 100.147 140.709 91.6778 140.769L90.3621 140.772L88.4095 140.761L87.4236 140.748L86.3256 140.722L85.6645 140.696L85.2622 140.675L84.2731 140.639L83.0642 140.614L81.2439 140.601C81.1111 140.6 80.976 140.6 80.8386 140.6V174.863C80.8994 175.289 80.7562 175.718 80.4521 176.023C80.148 176.327 79.7185 176.47 79.2928 176.409H58.8465C58.0445 176.409 57.6445 175.953 57.6445 175.035ZM80.8386 84.7032V120.495C82.325 120.61 83.6988 120.668 84.9599 120.667H90.6271C94.5363 120.654 98.4215 120.072 102.16 118.94L102.906 118.707C106.309 117.696 109.349 115.729 111.665 113.039C113.817 110.501 114.932 107.004 115.009 102.547L115.014 102.048C115.104 98.7264 114.24 95.4482 112.523 92.6028C110.718 89.8516 108.11 87.7229 105.053 86.5065C101.061 84.9548 96.7968 84.2247 92.5162 84.3599L90.3382 84.3663L88.9643 84.3776L87.653 84.3946L85.8031 84.4307L84.4538 84.469L83.7516 84.4949L82.8145 84.5385L82.0166 84.5877L81.5621 84.6237L81.1694 84.6622C81.1091 84.6688 81.0514 84.6755 80.9962 84.6823L80.8386 84.7032ZM204.769 113.987C201.772 112.447 198.594 111.291 195.311 110.545L194.551 110.381C190.937 109.551 187.248 109.095 183.542 109.018L182.616 109.007C180.443 108.948 178.273 109.208 176.175 109.78C174.841 110.077 173.654 110.837 172.827 111.926C172.267 112.797 171.969 113.811 171.968 114.846C171.999 115.85 172.362 116.816 172.998 117.593C173.91 118.66 175.006 119.553 176.233 120.23L176.605 120.427C179.053 121.746 181.576 122.921 184.161 123.948C189.925 125.877 195.432 128.501 200.561 131.761C204.056 133.967 206.947 137.006 208.977 140.606C210.683 144.014 211.537 147.786 211.467 151.597C211.569 156.629 210.131 161.573 207.345 165.765C204.362 170.02 200.219 173.328 195.409 175.296C190.372 177.509 184.186 178.652 176.852 178.727L176.09 178.731C171.543 178.777 167.003 178.379 162.534 177.543L161.578 177.357C157.815 176.667 154.152 175.513 150.673 173.922C149.958 173.553 149.502 172.828 149.471 172.033L149.471 153.314C149.429 152.944 149.594 152.581 149.9 152.369C150.202 152.199 150.579 152.233 150.845 152.455C154.954 154.878 159.415 156.645 164.068 157.693C168.17 158.721 172.377 159.269 176.605 159.325C180.611 159.325 183.559 158.809 185.449 157.779C187.193 156.981 188.303 155.231 188.283 153.314C188.283 151.828 187.424 150.396 185.707 149.021C184.987 148.445 183.954 147.818 182.61 147.141L181.968 146.825L181.281 146.502C181.162 146.448 181.042 146.393 180.92 146.338L180.167 146.004C180.038 145.948 179.907 145.891 179.774 145.835L178.954 145.49C178.813 145.432 178.671 145.374 178.527 145.315L177.641 144.96C177.489 144.9 177.336 144.84 177.181 144.779L176.228 144.413L175.231 144.04C169.838 142.163 164.726 139.564 160.032 136.312C156.675 133.978 153.911 130.89 151.961 127.296C150.272 123.912 149.418 120.173 149.471 116.391C149.461 111.847 150.709 107.39 153.077 103.511C155.777 99.2406 159.653 95.8413 164.24 93.7225C169.277 91.2056 175.574 89.9462 183.131 89.9444C187.557 89.9088 191.978 90.2247 196.354 90.8889C199.523 91.2909 202.621 92.1288 205.56 93.3791C206.033 93.5147 206.414 93.8645 206.591 94.3236C206.707 94.743 206.764 95.1764 206.762 95.6116V112.957C206.787 113.367 206.59 113.76 206.247 113.987C205.782 114.219 205.235 114.219 204.769 113.987Z" fill="#31A8FF"/>
</g>
<defs>
<clipPath id="clip0_1_43">
<rect width="256" height="250" fill="white"/>
</clipPath>
</defs>
</svg>
