<svg width="256" height="250" viewBox="0 0 256 250" fill="none" xmlns="http://www.w3.org/2000/svg">
<g clip-path="url(#clip0_1_47)">
<path d="M45.3333 0H210.667C235.733 0 256 20.2667 256 45.3333V204.267C256 229.333 235.733 249.6 210.667 249.6H45.3333C20.2667 249.6 0 229.333 0 204.267V45.3333C0 20.2667 20.2667 0 45.3333 0Z" fill="#00005B"/>
<path d="M60.8 175.04V65.28C60.8 64.5333 61.12 64.1067 61.8667 64.1067L63.4147 64.1042L64.6133 64.0933L65.4583 64.0783L66.3573 64.0549L67.3254 64.0213L67.84 64C68.8 63.96 69.775 63.935 70.7706 63.9138L73.825 63.85C74.1725 63.8417 74.5229 63.8325 74.8764 63.8221L75.9467 63.7867C76.9067 63.7511 77.8904 63.7274 78.8978 63.7077L81.9911 63.6524L84.1323 63.6052L85.2267 63.5733C87.4311 63.5022 89.5881 63.4785 91.7294 63.4706L94.9333 63.4667C103.68 63.4667 110.933 64.5333 116.907 66.7733C122.24 68.5867 127.147 71.5733 131.2 75.52C134.613 78.9333 137.28 83.0933 138.987 87.68C140.587 92.16 141.44 96.7467 141.44 101.547C141.44 110.72 139.307 118.293 135.04 124.267C130.773 130.24 124.8 134.72 117.867 137.28C110.855 139.858 103.146 140.841 94.7388 140.903L91.69 140.903L90.5026 140.891L89.742 140.873L89.2941 140.854L88.8917 140.83L88.5333 140.8C88.32 140.779 88.0896 140.762 87.8413 140.748L87.3205 140.725L86.7504 140.71L85.7995 140.697L83.9467 140.693V174.933C84.0533 175.68 83.52 176.32 82.7733 176.427H62.08C61.2267 176.427 60.8 176 60.8 175.04ZM84.0533 84.6933V120.533L85.3072 120.622C86.3303 120.692 87.299 120.747 88.2133 120.747H93.8667C98.0267 120.747 102.187 120.107 106.133 118.827C109.547 117.867 112.533 115.84 114.88 113.173C117.12 110.507 118.187 106.88 118.187 102.187C118.293 98.88 117.44 95.5733 115.733 92.6933C113.996 90.0356 111.572 87.9656 108.651 86.765L108.267 86.6133C104.32 85.0133 100.053 84.3733 95.68 84.48L93.214 84.4831L92.055 84.4905L90.9484 84.5049L89.8966 84.5286C89.3848 84.5431 88.8943 84.5621 88.4267 84.5867C88.1896 84.5748 87.9605 84.5656 87.7394 84.5587L87.1004 84.5448C86.998 84.5436 86.8976 84.5429 86.7993 84.5426L86.2344 84.5465L85.72 84.56C85.6385 84.563 85.5592 84.5663 85.482 84.5698L85.0449 84.5946L84.6605 84.6246C84.6009 84.6299 84.5435 84.6354 84.4884 84.641L84.1847 84.6756L84.0533 84.6933ZM156.373 90.88H175.04C176.047 90.88 176.865 91.546 177.222 92.4287L177.28 92.5867C177.6 93.44 177.813 94.2933 177.92 95.2533C178.133 96.32 178.347 97.4933 178.453 98.56L178.542 99.5918C178.612 100.473 178.667 101.41 178.667 102.4C181.721 98.8364 185.359 95.8559 189.487 93.5513L190.08 93.2267C194.987 90.4533 200.64 89.0667 206.293 89.0667C207.04 88.96 207.68 89.4933 207.787 90.24V111.467C207.787 112.32 207.253 112.64 206.08 112.64C202.496 112.54 198.819 112.813 195.309 113.543L194.56 113.707C191.467 114.347 188.48 115.307 185.6 116.587C183.573 117.547 181.653 118.827 180.16 120.533V174.933C180.16 176 179.733 176.427 178.773 176.427H157.76C156.907 176.533 156.16 176 156.053 175.147V115.627C156.053 113.067 156.053 110.4 155.947 107.627L155.883 105.547L155.797 101.387C155.78 100.693 155.76 100 155.733 99.3067C155.733 96.8533 155.52 94.5067 155.307 92.0533C155.2 91.52 155.52 90.9867 156.053 90.88C156.053 90.7886 156.21 90.7755 156.322 90.8408L156.373 90.88Z" fill="#9999FF"/>
</g>
<defs>
<clipPath id="clip0_1_47">
<rect width="256" height="250" fill="white"/>
</clipPath>
</defs>
</svg>
