<svg width="512" height="45" viewBox="0 0 512 45" fill="none" xmlns="http://www.w3.org/2000/svg">
<g clip-path="url(#clip0_1_88)">
<path d="M209.046 0C212.325 0 215.313 0.592794 218.016 1.76957C220.701 2.95711 223.012 4.56532 224.956 6.58562C226.874 8.60787 228.371 10.9592 229.417 13.6311C230.469 16.3093 231 19.1205 231 22.058C231.035 22.106 231.035 22.1452 231 22.1843C231 25.1307 230.454 27.9463 229.391 30.6419C228.317 33.3377 226.828 35.6954 224.893 37.7179C222.959 39.7402 220.631 41.355 217.922 42.5665C215.212 43.7717 212.213 44.3711 208.912 44.3711C205.626 44.3711 202.629 43.7805 199.952 42.5883C197.254 41.4094 194.95 39.8056 193.012 37.7853C191.072 35.7566 189.59 33.4117 188.551 30.7401C187.492 28.0596 186.966 25.2526 186.966 22.3131V22.1843C186.966 19.249 187.492 16.4227 188.567 13.729C189.636 11.0334 191.153 8.66664 193.067 6.64218C195.011 4.61992 197.315 3.01612 200.042 1.80238C202.754 0.59916 205.749 0 209.046 0ZM268.842 0.120714C272.018 0.120714 274.778 0.552148 277.148 1.43901C279.515 2.31951 281.793 3.63585 284.023 5.38999L281.186 9.13186C279.169 7.49525 277.148 6.30746 275.107 5.57534C273.066 4.83882 270.955 4.47056 268.724 4.47056C265.885 4.47056 263.649 5.1351 262.003 6.46882C260.363 7.79373 259.543 9.43475 259.543 11.4004V11.5224C259.543 12.54 259.714 13.4467 260.029 14.242C260.363 15.0439 260.959 15.774 261.827 16.4562C262.695 17.1337 263.877 17.7397 265.405 18.2975C266.919 18.8489 268.87 19.3719 271.256 19.8536C276.061 20.88 279.608 22.3401 281.896 24.2316C284.174 26.1405 285.316 28.7185 285.316 31.9918V32.1115C285.316 33.9486 284.952 35.6203 284.211 37.1107C283.488 38.6033 282.468 39.8827 281.201 40.9395C279.91 42.0053 278.36 42.8158 276.55 43.3956C274.745 43.9644 272.781 44.2541 270.639 44.2541C267.189 44.2541 264.037 43.6897 261.174 42.5609C258.309 41.4365 255.593 39.7213 252.995 37.3876L256.025 33.8267C258.287 35.8774 260.564 37.394 262.866 38.3964C265.168 39.3989 267.818 39.8957 270.83 39.8957C273.743 39.8957 276.072 39.2226 277.81 37.8472C279.562 36.4768 280.436 34.7287 280.436 32.6105V32.48C280.436 31.5013 280.274 30.6122 279.941 29.817C279.608 29.0236 279.042 28.2915 278.222 27.6422C277.396 26.9862 276.254 26.3912 274.785 25.8638C273.32 25.3344 271.459 24.8155 269.19 24.3317C266.731 23.7979 264.567 23.19 262.739 22.4926C260.904 21.7997 259.383 20.9583 258.195 19.9799C256.998 19.0015 256.121 17.8553 255.529 16.5368C254.953 15.2378 254.668 13.706 254.668 11.9494V11.8297C254.668 10.1517 255.016 8.60444 255.709 7.16617C256.419 5.7367 257.397 4.50092 258.673 3.4527C259.948 2.41329 261.45 1.59817 263.186 1.00121C264.907 0.419191 266.795 0.120714 268.842 0.120714ZM48.5865 0.216452V5.42255L37.1917 10.4458V33.8047L48.5865 38.8822V43.8508L5.1275 24.2945L0 22.1131L5.1275 19.7617L48.5865 0.216452ZM104.597 0.73285V5.21125H78.2669V19.7226H101.817V24.2095H78.2669V39.1677H104.899V43.6373H73.4048V0.73285H104.597ZM403.635 0.73285V26.3537L428.413 0.73285H434.698L416.207 19.4829L435.509 43.6373H429.406L412.816 22.8628L403.635 32.1156V43.6373H398.751V0.73285H403.635ZM489.079 0.73285V5.21125H462.749V19.7226H512V24.2095H462.749V39.1677H489.39V43.6373H457.887V0.73285H489.079ZM371.322 0.731871V43.6363H366.442V0.731871H371.322ZM326.197 0.729423C328.624 0.729423 330.823 1.04308 332.824 1.68607C334.81 2.32 336.516 3.20931 337.941 4.37947C339.357 5.54327 340.446 6.95755 341.194 8.63554C341.956 10.3135 342.356 12.2138 342.356 14.3407V14.4628C342.356 16.7836 341.897 18.8257 340.999 20.5668C340.082 22.297 338.861 23.7592 337.324 24.9382C335.788 26.126 333.979 27.0192 331.934 27.6035C329.869 28.2048 327.701 28.5035 325.382 28.5035H314.906V43.6358H310.037V0.729423H326.197ZM148.06 0.729423C150.73 0.729423 153.111 1.11531 155.193 1.86286C157.261 2.61676 158.975 3.67601 160.329 5.02246C161.397 6.0817 162.217 7.33487 162.8 8.76213C163.374 10.1916 163.66 11.7631 163.66 13.4824V13.6C163.66 15.3588 163.374 16.9364 162.8 18.3595C162.217 19.763 161.41 20.9919 160.374 22.0335C159.323 23.0776 158.078 23.9338 156.627 24.6094C155.193 25.2764 153.63 25.782 151.945 26.1086L165.203 43.6339H159.229L146.703 26.9673H134.383V43.6339H129.504V0.729423H148.06ZM208.912 4.46738C206.452 4.46738 204.183 4.92501 202.11 5.84909C200.027 6.77734 198.247 8.03026 196.772 9.61912C195.299 11.2188 194.132 13.0708 193.282 15.1979C192.447 17.3205 192.026 19.6087 192.026 22.058V22.1843C192.026 24.6329 192.447 26.9353 193.282 29.0794C194.132 31.2195 195.314 33.1002 196.827 34.6844C198.354 36.286 200.152 37.5502 202.226 38.4892C204.297 39.4307 206.579 39.8927 209.046 39.8927C211.512 39.8927 213.789 39.4461 215.856 38.522C217.93 37.6024 219.704 36.3384 221.185 34.7542C222.665 33.1546 223.834 31.2934 224.673 29.1754C225.522 27.0484 225.929 24.7624 225.929 22.3131V22.1843C225.929 19.7328 225.522 17.4337 224.673 15.2917C223.834 13.1428 222.639 11.2731 221.137 9.6867C219.607 8.08707 217.81 6.81651 215.734 5.87945C213.649 4.94019 211.378 4.46738 208.912 4.46738ZM32.8076 12.3502L10.8027 22.0979L32.8076 31.8999V12.3502ZM325.849 5.20757H314.906V24.0252H325.61C327.407 24.0252 329.043 23.7984 330.492 23.3518C331.934 22.9008 333.17 22.2664 334.229 21.4319C335.29 20.5884 336.077 19.5948 336.63 18.4312C337.195 17.274 337.478 15.9991 337.478 14.6132V14.491C337.478 11.4401 336.408 9.13235 334.284 7.55671C332.169 5.98572 329.347 5.20757 325.849 5.20757ZM147.725 5.20782H134.383V22.6111H147.666C149.272 22.6111 150.752 22.4106 152.118 22.0031C153.473 21.5913 154.641 21.0159 155.632 20.2532C156.627 19.499 157.397 18.584 157.951 17.4919C158.51 16.407 158.784 15.1822 158.784 13.7873V13.6653C158.784 11.0089 157.818 8.94087 155.886 7.44799C153.946 5.95536 151.234 5.20782 147.725 5.20782Z" fill="#C4373A"/>
</g>
<defs>
<clipPath id="clip0_1_88">
<rect width="512" height="45" fill="white"/>
</clipPath>
</defs>
</svg>
