<svg width="512" height="161" viewBox="0 0 512 161" fill="none" xmlns="http://www.w3.org/2000/svg">
<g clip-path="url(#clip0_1_68)">
<path d="M406.426 89.675C395.081 89.675 383.737 89.675 372.39 89.675C372.365 90.953 372.152 92.6691 372.39 94.1137C372.474 94.6234 372.545 95.6966 372.76 96.3335C372.822 96.5187 373.328 97.5689 373.5 97.8139C374.513 99.2508 378.733 100.578 381.641 100.773C388.579 101.243 398.636 99.0066 402.727 97.8139C404.276 102.061 405.018 107.114 405.686 112.241C396.593 115.012 386.106 117.014 376.089 115.941C374.791 115.802 374.113 115.909 372.39 115.571C372.198 115.533 369.405 114.875 367.58 114.092C366.071 113.443 362.988 111.769 361.292 110.392C360.504 109.755 359.667 109.177 359.071 108.542C358.755 108.203 357.419 106.626 357.221 106.321C356.75 105.605 355.951 103.689 355.371 102.253C355.056 101.471 354.853 100.77 354.632 100.033C352.244 92.0954 351.982 71.1304 355.371 63.7769C355.812 62.8198 356.454 60.4968 357.221 59.3365C357.489 58.9344 358.594 58.2249 359.071 57.4872C360.892 54.6741 365.493 52.3587 369.431 51.2001C370.154 50.9841 371.938 50.3771 373.5 50.0885C375.996 49.6275 381.188 49.6309 382.751 49.7197C384.275 49.8059 385.845 49.8964 387.189 50.0885C387.733 50.1654 390.086 50.4838 391.263 50.9116C392.979 51.5348 396.331 53.1288 396.807 53.4191C398.48 54.4333 400.394 56.1204 401.247 57.1167C401.823 57.792 402.551 59.1231 403.097 60.0776C406.978 66.8855 406.642 77.6454 406.426 89.675ZM388.666 70.4371C388.588 69.4527 388.135 68.2404 387.929 67.8468C387.198 66.4577 385.861 65.7167 385.709 65.627C384.149 64.7246 380.022 64.471 377.938 64.886C373.27 65.8217 371.747 70.4277 372.389 75.2472C377.815 75.2472 383.241 75.2472 388.665 75.2472C388.73 73.8377 388.796 72.043 388.666 70.4371Z" fill="#E25027"/>
<path d="M464.764 114.831C462.841 114.831 460.105 114.831 457.363 114.831C454.839 114.831 450.897 114.9 450.28 114.615C448.537 113.81 448.751 112.564 448.116 110.761C442.024 114.036 431.872 118.431 423.331 115.202C422.596 114.924 420.092 113.71 418.889 112.611C415.946 109.926 413.785 104.645 413.338 99.6623C412.595 91.3031 414.917 84.6941 419.999 81.5352C421.323 80.713 424.336 79.2727 427.027 78.9449C433.224 78.1919 437.908 79.4853 445.895 78.9449C446.019 77.6753 445.96 75.8628 445.895 74.1365C445.816 72.0909 445.932 70.4559 445.527 69.3272C445.037 67.9715 443.637 66.6635 442.195 65.9984C440.969 65.4324 437.329 65.2591 435.166 65.2591C428.966 65.2591 421.347 66.532 417.41 67.1083C416.902 62.1889 415.646 58.0191 415.188 53.0494C420.696 50.7656 428.792 50.5291 435.537 49.7206C437.394 49.4952 439.513 49.613 441.827 49.7206C446.007 49.9135 449.458 50.4488 452.925 51.569C455.806 52.5021 457.002 53.1843 458.844 54.5298C459.692 55.1505 460.64 56.1349 460.976 56.5285C461.563 57.2106 462.714 58.9472 463.282 60.4481C464.481 63.6164 464.958 68.8653 465.134 73.0283C465.671 85.8014 465.021 102.951 464.764 114.831ZM432.575 93.0046C431.102 94.4279 431.126 98.9135 432.575 100.404C433.594 101.451 434.857 101.526 434.798 101.514C438.499 102.306 444.605 100.16 446.265 98.5532C445.409 97.0677 446.138 93.995 445.895 91.8948C441.534 92.3951 434.813 90.8472 432.575 93.0046Z" fill="#E25027"/>
<path d="M512 67.4771C506.171 70.1588 500.061 72.557 494.982 75.9874C494.982 88.9339 494.982 101.885 494.982 114.832C488.694 114.832 482.406 114.832 476.115 114.832C476.115 93.4981 476.115 72.1626 476.115 50.8304C480.371 50.8236 487.664 50.792 491.256 51.0618C492.019 51.0618 491.876 52.0129 492.393 53.7896C492.673 54.7535 492.825 55.8634 493.132 56.7504C493.241 57.1517 493.564 56.9579 493.871 56.7504C495.534 55.6252 498.21 54.1294 500.532 53.0502C503.302 51.7619 506.754 50.5871 509.779 49.7214C510.094 49.6523 510.127 49.8648 510.15 50.0902C510.748 52.9145 511.604 61.2344 512 67.4771Z" fill="#E25027"/>
<path d="M27.0045 61.6895C35.5148 61.6895 44.0234 61.6895 52.5337 61.6895C54.8961 68.9362 56.9801 76.2316 59.1914 83.5159C60.8374 88.9348 62.7789 94.3357 64.3712 99.7929C64.9227 101.682 65.2941 103.526 65.8499 105.343C70.2963 119.875 75.0629 134.293 79.1694 148.997C72.3854 148.997 65.6031 148.997 58.8217 148.997C57.1466 143.395 55.7541 137.515 54.0125 131.98C53.2654 131.987 26.2404 132.131 25.157 132.349C23.271 137.617 22.0092 143.506 20.3477 148.997C13.5654 148.997 6.784 148.997 0 148.997C6.35968 127.333 12.8585 105.786 19.6075 84.2544C21.8623 77.0598 23.738 69.8446 26.2669 62.7985C26.2507 62.1659 26.5418 61.8406 27.0045 61.6895ZM38.8454 81.297C35.9912 92.3473 32.6411 104.144 29.5965 115.331C30.2335 115.374 48.2735 115.303 49.2041 115.331C46.0904 103.525 43.0092 91.6822 39.5856 80.1871C39.2347 80.3263 38.9359 80.9384 38.8454 81.297Z" fill="#669EB2"/>
<path d="M134.205 123.842C122.861 123.842 111.514 123.842 100.17 123.842C100.053 125.863 100.175 127.481 100.539 129.02C100.74 129.862 100.892 129.998 101.28 130.871C102.254 133.058 104.717 134.012 105.349 134.2C108.363 135.097 111.344 134.907 115.338 134.568C119.305 134.234 123.026 133.842 126.438 133.091C128.164 132.711 129.707 132.417 130.878 132.349C131.929 136.848 132.916 142.186 133.467 146.408C127.494 148.347 120.186 149.981 112.75 150.479C106.797 150.877 100.893 150.198 96.0749 148.463C95.2006 148.147 94.2598 147.863 93.5119 147.519C92.3243 146.972 90.8199 145.911 89.4437 144.93C89.3122 144.839 86.9746 142.61 85.7426 140.861C84.5123 139.113 82.2891 135.128 81.6736 131.982C80.959 128.326 81.3022 123.633 81.3022 119.035C81.3022 114.332 80.9359 109.472 81.3022 105.346C81.6164 101.841 82.7681 98.4747 84.263 95.7256C85.3149 93.7952 86.3624 91.7914 87.5927 90.5475C87.8992 90.2384 89.506 88.91 89.8125 88.6957C92.3661 86.9335 96.1739 85.6401 99.8024 84.6275C103.973 83.4621 111.204 83.743 116.08 84.6275C117.704 84.9221 119.098 85.2303 120.52 85.7374C121.775 86.1848 123.108 86.7081 124.075 87.2451C124.717 87.602 125.746 88.2458 125.858 88.3149C130.778 91.3458 133.701 98.7701 134.206 105.346C134.626 110.789 134.342 117.228 134.205 123.842ZM113.859 100.163C110.527 98.0051 103.46 99.1227 101.65 101.273C101.534 101.414 101.003 102.251 100.911 102.385C99.8152 103.979 100.115 108.173 100.171 109.412C105.596 109.412 111.023 109.412 116.449 109.412C116.681 104.812 116.125 101.634 113.859 100.163Z" fill="#669EB2"/>
<path d="M179.993 101.273C179.86 102.11 179.551 102.111 178.145 102.755C176.269 103.614 173.58 104.323 171.484 105.344C168.557 106.771 165.289 108.457 163.346 109.782C163.346 122.855 163.346 135.926 163.346 148.998C163.363 149.031 144.111 149.031 144.039 148.959C144.039 127.873 144.108 106.452 144.108 85.3678C147.918 85.3208 156.199 85.3609 160.016 85.3678C160.37 87.3562 160.654 88.9194 161.127 91.2852C166.334 88.3551 171.854 85.7366 178.145 83.8865C179.448 88.9954 179.907 97.1198 179.993 101.273Z" fill="#669EB2"/>
<path d="M363.129 61.1951L359.976 45.234C359.724 43.9884 358.879 42.9869 357.88 42.7803L348.605 40.885C350.762 45.2716 352.394 50.0023 353.357 55.0361C354.309 59.9632 354.553 64.8612 354.212 69.6389L362.125 64.267C362.969 63.6958 363.372 62.4476 363.129 61.1951Z" fill="#E25027"/>
<path d="M353.527 54.2011C347.225 23.6962 317.386 4.07412 286.878 10.3783C256.372 16.6808 236.752 46.5215 243.055 77.0273C248.578 103.762 272.18 122.132 298.462 122.025C279.805 118.962 264.074 104.753 260.021 85.1347C254.765 59.6968 271.124 34.8147 296.561 29.5589C321.998 24.3023 346.878 40.6621 352.134 66.1C353.076 70.6548 353.312 75.19 352.94 79.6006C355.007 71.5402 355.326 62.9001 353.527 54.2011Z" fill="#E25027"/>
<path d="M242.32 60.6479L232.908 66.8693C232.053 67.4353 231.643 68.6741 231.877 69.9266L234.908 85.9124C235.145 87.1666 235.99 88.1741 236.989 88.3952L248.054 90.7917C245.799 86.2932 244.101 81.4268 243.105 76.2444C242.09 70.975 241.865 65.7397 242.32 60.6479Z" fill="#E25027"/>
<path d="M302.267 9.65944L296.491 1.0834C295.919 0.235609 294.671 -0.173344 293.417 0.0691247L277.448 3.16999C276.192 3.41246 275.195 4.25598 274.985 5.25744L272.843 15.5743C277.408 13.2615 282.358 11.5258 287.63 10.5081C292.571 9.56041 297.477 9.31538 302.267 9.65944Z" fill="#E25027"/>
<path d="M261.804 22.944L251.23 20.877C250.228 20.6858 249.055 21.2792 248.342 22.3336L239.241 35.8179C238.526 36.88 238.413 38.1845 238.975 39.0349L244.924 48.1104C248.144 38.3459 253.99 29.623 261.804 22.944Z" fill="#E25027"/>
<path d="M254.984 101.394L252.789 112.324C252.59 113.327 253.179 114.493 254.24 115.212L267.712 124.329C268.771 125.045 270.077 125.153 270.933 124.599L280.004 118.719C270.248 115.358 261.578 109.353 254.984 101.394Z" fill="#E25027"/>
<path d="M340.429 28.6676L342.335 19.1781C342.536 18.1843 341.946 17.0095 340.886 16.2958L327.413 7.17842C326.358 6.46809 325.047 6.35625 324.192 6.90693L315.792 12.3531C325.308 15.4966 333.826 21.1409 340.429 28.6676Z" fill="#E25027"/>
<path d="M334.704 77.6582C334.83 66.6379 325.737 60.2808 317.187 58.0063C314.711 57.3481 312.202 57.0638 309.734 57.1662C299.305 57.594 290.732 64.7622 287.895 75.4308C286.129 82.0654 286.877 88.7708 289.997 94.3058C293.085 99.7835 298.265 103.724 304.576 105.403C307.222 106.107 309.887 106.412 312.496 106.305C316.553 106.139 322.115 104.882 326.879 100.139L303.363 93.8815C302.325 93.6065 301.706 92.5402 301.983 91.5029L304.674 81.3926C304.95 80.3553 306.013 79.7389 307.052 80.0138L345.173 90.1556C346.023 86.9685 346.428 83.632 346.345 80.2298L336.526 79.621C335.495 79.557 334.692 78.6947 334.704 77.6582Z" fill="#EB8467"/>
<path d="M252.266 122.051L246.319 118.002C246.312 117.917 246.311 117.83 246.303 117.744C246.108 115.726 245.72 113.745 245.168 111.83C245.143 111.749 245.113 111.668 245.09 111.587L249.143 105.487C249.482 104.981 249.423 104.199 249.009 103.565L243.725 95.4695C243.31 94.836 242.622 94.474 242.029 94.585L234.867 95.939C234.801 95.8853 234.741 95.8238 234.675 95.77C233.198 94.5448 231.608 93.4418 229.911 92.4873C229.838 92.448 229.76 92.4147 229.689 92.3746L228.235 85.0741C228.113 84.4773 227.526 83.9676 226.788 83.8173L217.367 81.9023C216.629 81.7512 215.891 81.9886 215.549 82.4897L211.484 88.5233C211.4 88.5275 211.316 88.5301 211.231 88.5378C209.214 88.7273 207.236 89.1132 205.319 89.6682C205.234 89.6929 205.152 89.7262 205.067 89.751L199.035 85.7212C198.532 85.3865 197.758 85.4471 197.129 85.8681L189.099 91.2468C188.468 91.6685 188.11 92.3652 188.223 92.9637L189.528 99.9654C189.474 100.027 189.412 100.088 189.359 100.153C188.04 101.742 186.861 103.468 185.85 105.311C185.809 105.386 185.776 105.464 185.734 105.539L178.589 106.954C177.996 107.07 177.487 107.663 177.332 108.407L175.353 117.924C175.2 118.669 175.433 119.416 175.928 119.765L181.906 123.946C181.913 124.032 181.914 124.116 181.922 124.201C182.111 126.272 182.5 128.3 183.066 130.262C183.089 130.347 183.119 130.429 183.145 130.51L179.114 136.572C178.778 137.078 178.834 137.858 179.249 138.496L184.533 146.588C184.946 147.222 185.635 147.585 186.23 147.474L193.324 146.135C193.391 146.188 193.451 146.25 193.517 146.308C195.111 147.631 196.838 148.813 198.688 149.82C198.762 149.863 198.842 149.895 198.915 149.934L200.284 157.022C200.401 157.619 200.987 158.131 201.728 158.275L211.143 160.207C211.883 160.359 212.622 160.117 212.969 159.616L217.102 153.561C217.185 153.551 217.276 153.551 217.359 153.543C218.72 153.399 220.058 153.163 221.373 152.849C219.453 153.051 217.484 153.05 215.485 152.766C202.338 150.9 193.193 138.727 195.062 125.581C196.928 112.431 209.1 103.285 222.25 105.154C235.396 107.02 244.54 119.19 242.674 132.34C242.245 135.363 241.25 138.158 239.845 140.671C240.809 139.389 241.712 138.047 242.488 136.612C242.529 136.535 242.563 136.454 242.605 136.377L249.701 134.886C250.291 134.759 250.798 134.161 250.946 133.416L252.851 123.885C253.002 123.135 252.767 122.393 252.266 122.051Z" fill="#669EB2"/>
</g>
<defs>
<clipPath id="clip0_1_68">
<rect width="512" height="161" fill="white"/>
</clipPath>
</defs>
</svg>
