<svg width="512" height="192" viewBox="0 0 512 192" fill="none" xmlns="http://www.w3.org/2000/svg">
<g clip-path="url(#clip0_1_91)">
<path d="M56.9555 146.885L47.9625 187.054C47.9625 188.253 46.7635 188.852 45.5644 188.852H2.39813C1.79859 188.852 0.599532 188.253 0.599532 187.653C0 187.054 0 186.454 0 185.855L56.9555 13.1897C56.9555 13.1897 58.1546 10.192 61.7518 8.99297C74.3419 6.59485 94.1265 3.59719 107.916 1.19906C110.913 0.599532 112.112 3.59719 112.112 3.59719L167.869 187.054C167.869 187.653 167.869 188.253 167.269 188.852C166.67 189.452 166.07 189.452 165.471 189.452H140.29C133.696 189.452 120.506 190.052 115.71 190.052C114.511 190.052 113.311 189.452 113.311 188.253L104.319 147.485L56.9555 146.885ZM97.1241 111.513C93.5269 97.1241 88.1311 71.3443 82.7354 49.1616C79.1382 64.7494 70.7447 96.5246 66.548 111.513H97.1241ZM224.824 68.9461C255.4 47.9625 281.18 52.7588 293.77 65.3489C308.759 80.9368 300.365 101.321 305.162 187.054C305.162 187.653 305.162 188.253 304.562 188.852C303.963 189.452 303.363 189.452 302.763 189.452C297.967 189.452 288.974 188.852 284.778 188.852C277.583 188.852 262.595 189.452 256.6 189.452C256 189.452 255.4 189.452 254.801 188.852C254.201 188.253 254.201 187.653 254.201 187.054C254.801 103.119 255.4 91.7283 240.412 91.7283C235.016 91.7283 230.82 94.1265 226.023 95.9251C226.023 139.091 226.623 151.681 228.422 186.454C228.422 187.054 228.422 187.653 227.822 187.653C227.222 188.253 226.623 188.253 226.623 188.253L178.66 188.852C178.061 188.852 177.461 188.852 177.461 188.253C176.862 187.653 176.862 187.054 176.862 187.054C178.061 61.7518 176.862 35.9719 173.265 9.59251C171.466 8.39344 173.864 8.39344 173.864 8.39344C195.447 5.39578 197.246 4.79625 221.827 0C221.827 0 224.225 0 224.225 2.99766C224.824 21.5831 224.824 68.9461 224.824 68.9461ZM389.096 176.262C380.103 182.857 362.717 191.85 348.328 191.85C326.145 191.85 312.356 175.663 312.356 151.682C312.356 114.511 356.122 103.719 387.297 99.5222C387.897 93.5269 387.897 86.9321 372.309 86.9321C356.721 86.9321 343.532 91.7283 329.742 97.1241C329.143 97.7237 327.944 97.1241 327.344 97.1241C326.745 96.5246 326.145 95.9251 326.145 94.726L327.344 65.9485C327.344 64.7494 327.944 64.1499 329.143 63.5504C357.321 55.1569 405.283 48.5621 425.068 67.1475C437.658 78.5386 437.059 92.9274 436.459 116.909C435.859 151.682 436.459 161.274 438.258 187.054C438.258 187.653 438.258 188.253 437.658 188.852C437.059 189.452 436.459 189.452 435.859 189.452L391.494 190.052C390.895 190.052 390.295 190.052 389.696 189.452C389.096 188.852 389.096 188.253 389.096 187.653V176.262ZM387.897 126.501C376.506 127.7 359.119 128.899 359.119 143.888C359.119 157.077 373.508 161.274 387.897 152.281V126.501ZM468.234 127.101C467.035 127.101 465.836 125.902 465.836 124.703C462.838 59.3536 462.239 52.1593 458.642 11.3911C458.642 10.192 459.241 8.99297 461.04 8.39344L509.002 0.599532C509.602 0.599532 510.801 0.599532 511.4 1.19906C512 1.79859 512 2.39813 512 3.59719C509.002 32.9742 506.005 88.7307 505.405 124.103C505.405 125.302 504.206 126.501 503.007 126.501L468.234 127.101ZM459.865 182.761C459.841 182.557 459.841 182.36 459.841 182.162C459.841 174.026 460.045 165.687 460.099 158.462C460.094 155.8 460.008 153.139 459.841 150.482C459.841 150.069 459.841 149.655 460.033 149.247C459.998 147.871 459.934 146.496 459.841 145.123C459.841 144.523 459.841 143.912 460.446 143.306C461.058 142.695 461.663 142.695 462.269 142.695C474.409 143.912 495.663 143.306 505.375 142.089C505.981 142.089 506.586 142.089 507.198 142.695C507.803 143.306 507.803 143.912 507.803 144.517C507.803 146.124 507.797 147.719 507.779 149.289C507.798 149.487 507.806 149.685 507.803 149.883V187.054C507.803 187.653 507.803 188.253 507.204 188.852C506.604 189.452 506.005 189.452 505.405 189.452C488.019 188.852 477.227 188.852 462.239 190.052C461.639 190.052 461.04 190.052 460.44 189.452C459.841 188.852 459.841 188.253 459.841 187.653C459.841 186.035 459.847 184.398 459.865 182.761Z" fill="#0073CF"/>
</g>
<defs>
<clipPath id="clip0_1_91">
<rect width="512" height="192" fill="white"/>
</clipPath>
</defs>
</svg>
