<svg width="256" height="275" viewBox="0 0 256 275" fill="none" xmlns="http://www.w3.org/2000/svg">
<g clip-path="url(#clip0_1_94)">
<path d="M252.154 194.867C250.923 191.411 249.484 188.067 248.115 184.969C246.008 180.203 243.801 175.428 241.666 170.812L241.497 170.446C222.458 129.215 202.022 87.4205 180.759 46.224L179.856 44.4749C177.687 40.268 175.445 35.9182 173.144 31.6442C170.415 26.2353 167.104 21.1393 163.269 16.4464C158.952 11.2965 153.556 7.15473 147.461 4.3131C141.366 1.47146 134.72 0 127.993 0C121.266 0 114.621 1.47482 108.526 4.31799C102.432 7.16116 97.0368 11.3043 92.7216 16.4552C88.8912 21.1492 85.5819 26.2442 82.8523 31.6504C80.5312 35.9628 78.2679 40.3529 76.0794 44.5985L75.2413 46.2236C53.9775 87.423 33.542 129.218 14.5026 170.445L14.2252 171.045C12.1274 175.586 9.95844 180.281 7.88624 184.967C6.51691 188.063 5.07982 191.404 3.84718 194.869C0.31668 204.309 -0.808331 214.476 0.573271 224.457C2.03844 234.543 6.11807 244.074 12.4081 252.103C18.6982 260.132 26.9805 266.381 36.4346 270.232C43.5755 273.121 51.2108 274.598 58.9161 274.581C61.3365 274.581 63.7549 274.439 66.1591 274.159C75.9044 272.918 85.3033 269.746 93.8045 264.832C104.956 258.567 115.969 249.386 128 236.266C140.031 249.386 151.044 258.567 162.196 264.832C170.697 269.747 180.096 272.918 189.841 274.159C192.245 274.439 194.664 274.581 197.085 274.581C204.789 274.598 212.423 273.121 219.564 270.232C229.018 266.381 237.301 260.132 243.592 252.103C249.882 244.074 253.962 234.544 255.428 224.457C256.808 214.475 255.683 204.308 252.154 194.867ZM128 209.17C113.107 190.292 103.55 172.761 100.196 158.064C98.8224 152.557 98.4981 146.841 99.2403 141.214C99.8264 137.09 101.342 133.151 103.672 129.695C106.54 125.976 110.225 122.964 114.444 120.892C118.662 118.82 123.3 117.743 128.002 117.743C132.704 117.743 137.342 118.821 141.56 120.894C145.778 122.967 149.463 125.978 152.33 129.697C154.661 133.155 156.176 137.094 156.762 141.219C157.503 146.849 157.178 152.566 155.801 158.075C152.445 172.77 142.89 190.296 128 209.17ZM238.032 221.972C237.008 229.024 234.155 235.688 229.757 241.301C225.359 246.916 219.568 251.286 212.957 253.979C206.273 256.657 199.019 257.606 191.869 256.737C184.438 255.78 177.275 253.334 170.814 249.546C160.888 243.969 150.84 235.408 139.533 222.85C157.533 200.655 168.773 180.198 172.934 161.977C174.807 154.314 175.213 146.368 174.131 138.556C173.15 131.826 170.651 125.406 166.824 119.78C162.341 113.71 156.492 108.775 149.749 105.375C143.006 101.974 135.557 100.202 128.002 100.202C120.447 100.202 112.998 101.973 106.254 105.373C99.5106 108.773 93.662 113.706 89.1786 119.776C85.3523 125.401 82.8539 131.819 81.8714 138.547C80.7888 146.357 81.1926 154.299 83.0616 161.959C87.2205 180.188 98.4612 200.65 116.467 222.851C105.16 235.408 95.1122 243.969 85.186 249.547C78.7247 253.334 71.5632 255.78 64.1313 256.737C56.9811 257.606 49.727 256.657 43.0422 253.979C36.4318 251.286 30.6408 246.916 26.2429 241.302C21.845 235.688 18.9928 229.024 17.9688 221.972C16.9838 214.803 17.8221 207.501 20.4063 200.741C21.3886 197.98 22.5382 195.27 23.9623 192.05C25.977 187.496 28.1151 182.866 30.1832 178.39L30.4609 177.788C49.3939 136.792 69.7161 95.2297 90.8639 54.2549L91.7057 52.6236C93.8585 48.4464 96.0852 44.1274 98.3316 39.9541C100.48 35.6527 103.081 31.5914 106.09 27.839C108.756 24.6181 112.103 22.0249 115.889 20.2447C119.677 18.4643 123.811 17.5407 127.997 17.5407C132.182 17.5407 136.317 18.4631 140.104 20.2427C143.891 22.0223 147.238 24.615 149.905 27.8355C152.916 31.5851 155.517 35.6449 157.664 39.9462C159.89 44.0824 162.097 48.3625 164.232 52.5014L165.136 54.2567C186.283 95.2271 206.605 136.788 225.54 177.792L225.71 178.161C227.814 182.713 229.99 187.418 232.038 192.052C233.464 195.276 234.615 197.988 235.595 200.739C238.178 207.501 239.016 214.802 238.032 221.972Z" fill="#FF385C"/>
</g>
<defs>
<clipPath id="clip0_1_94">
<rect width="256" height="275" fill="white"/>
</clipPath>
</defs>
</svg>
