<svg width="256" height="256" viewBox="0 0 256 256" fill="none" xmlns="http://www.w3.org/2000/svg">
<g clip-path="url(#clip0_1_119)">
<path d="M4.1267 254.974L126.696 129.335C127.476 128.564 127.592 127.343 126.969 126.439C119.516 116.033 105.762 114.229 100.666 107.236C85.5682 86.5248 81.7372 74.8015 75.2494 75.5277C74.7966 75.5928 74.3803 75.8125 74.071 76.1495L29.7954 121.538C4.32238 147.629 0.661008 205.137 2.40566e-05 253.295C-0.00434916 254.276 0.587872 255.16 1.49598 255.53C2.40409 255.899 3.44556 255.679 4.1267 254.974Z" fill="#017CEE"/>
<path d="M254.974 251.873L129.335 129.296C128.563 128.513 127.34 128.397 126.435 129.022C116.029 136.479 114.224 150.229 107.232 155.325C86.5205 170.423 74.7971 174.254 75.5233 180.742C75.5894 181.193 75.809 181.608 76.1451 181.916L121.534 226.192C147.624 251.665 205.132 255.326 253.291 255.987C254.266 255.987 255.145 255.398 255.514 254.495C255.883 253.593 255.67 252.556 254.974 251.873Z" fill="#00AD46"/>
<path d="M121.534 226.205C107.271 212.29 100.662 184.764 127.996 128.004C83.5592 147.864 67.9875 173.967 75.6451 181.442L121.534 226.205Z" fill="#04D659"/>
<path d="M251.869 1.03062L129.304 126.669C128.522 127.44 128.406 128.662 129.031 129.565C136.488 139.971 150.233 141.776 155.334 148.768C170.432 169.48 174.267 181.203 180.751 180.477C181.204 180.412 181.62 180.192 181.929 179.855L226.205 134.466C251.678 108.376 255.339 50.8678 256 2.70911C256.002 1.72896 255.409 0.84578 254.5 0.476819C253.592 0.107859 252.551 0.326965 251.869 1.03062Z" fill="#00C7D4"/>
<path d="M226.226 134.466C212.311 148.729 184.786 155.339 128.022 128.004C147.881 172.441 173.984 188.013 181.459 180.355L226.226 134.466Z" fill="#11E1EE"/>
<path d="M1.0175 4.13103L126.656 126.695C127.428 127.476 128.648 127.592 129.552 126.969C139.958 119.512 141.763 105.762 148.755 100.666C169.466 85.5682 181.19 81.7372 180.464 75.2494C180.397 74.7969 180.178 74.3809 179.842 74.071L134.453 29.7954C108.363 4.32236 50.8547 0.660996 2.69599 -1.26471e-05C1.71368 -0.00622736 0.826688 0.586685 0.45691 1.49676C0.0871318 2.40684 0.309203 3.45038 1.0175 4.13103Z" fill="#E43921"/>
<path d="M134.475 29.7997C148.738 43.7147 155.347 71.2402 128.013 128.004C172.45 108.145 188.021 82.0373 180.364 74.5667L134.475 29.7997Z" fill="#FF7557"/>
<path d="M29.7954 121.543C43.7103 107.28 71.2358 100.67 128 128.004C108.141 83.5679 82.0373 67.9962 74.5624 75.6538L29.7954 121.543Z" fill="#0CB6FF"/>
<path d="M128.017 133.462C131.043 133.462 133.496 131.009 133.496 127.983C133.496 124.957 131.043 122.504 128.017 122.504C124.991 122.504 122.538 124.957 122.538 127.983C122.538 131.009 124.991 133.462 128.017 133.462Z" fill="#4A4848"/>
</g>
<defs>
<clipPath id="clip0_1_119">
<rect width="256" height="256" fill="white"/>
</clipPath>
</defs>
</svg>
