<svg width="256" height="215" viewBox="0 0 256 215" fill="none" xmlns="http://www.w3.org/2000/svg">
<g clip-path="url(#clip0_1_130)">
<path d="M114.259 2.70102L18.8602 42.1756C13.5551 44.3712 13.6101 51.9065 18.9485 54.0225L114.746 92.0117C123.164 95.3499 132.537 95.3499 140.953 92.0117L236.752 54.0225C242.089 51.9065 242.146 44.3712 236.839 42.1756L141.442 2.70102C132.738 -0.900339 122.961 -0.900339 114.259 2.70102Z" fill="#FFBF00"/>
<path d="M136.349 112.757V207.659C136.349 212.173 140.9 215.264 145.096 213.601L251.844 172.166C254.281 171.2 255.879 168.845 255.879 166.225V71.3225C255.879 66.8085 251.328 63.7177 247.132 65.3809L140.384 106.815C137.949 107.781 136.349 110.136 136.349 112.757Z" fill="#26B5F8"/>
<path d="M111.423 117.654L79.7423 132.95L76.5257 134.505L9.65039 166.548C5.4112 168.593 0.000488281 165.504 0.000488281 160.795V71.7211C0.000488281 70.0173 0.87407 68.5464 2.0456 67.4385C2.53445 66.9482 3.0884 66.5446 3.66404 66.225C5.26223 65.2661 7.54164 65.0101 9.47972 65.7766L110.89 105.957C116.045 108.002 116.45 115.225 111.423 117.654Z" fill="#ED3049"/>
<path d="M111.423 117.654L79.7424 132.95L2.04565 67.4385C2.53451 66.9482 3.08846 66.5446 3.6641 66.225C5.26229 65.2661 7.5417 65.0101 9.47978 65.7766L110.89 105.957C116.045 108.002 116.45 115.225 111.423 117.654Z" fill="black" fill-opacity="0.25"/>
</g>
<defs>
<clipPath id="clip0_1_130">
<rect width="256" height="215" fill="white"/>
</clipPath>
</defs>
</svg>
