<svg width="512" height="209" viewBox="0 0 512 209" fill="none" xmlns="http://www.w3.org/2000/svg">
<g clip-path="url(#clip0_1_141)">
<path d="M156.166 152.931H135.306L153.377 116.343H153.6L156.166 152.931ZM157.058 169.551L158.285 184.052H181.264L173.567 99.6113H139.322L96.1533 184.052H119.578L126.829 169.551H157.058ZM213.389 147.019H216.847L233.356 124.821H254.438L231.683 153.154L245.738 183.829H223.205L214.058 159.958H210.823L205.692 183.829H186.172L204.019 99.7228H223.428L213.389 147.019ZM279.313 159.512C285.671 159.512 289.91 159.958 288.683 164.866C287.233 171.224 284.667 172.117 276.525 172.117C273.513 172.117 268.047 172.117 269.497 165.759C270.613 160.404 274.628 159.512 279.313 159.512ZM284.667 183.829H303.854L311.55 147.019C316.012 126.606 307.981 124.263 288.349 124.263C274.517 124.263 261.131 124.04 257.115 142.557H276.301C277.528 137.203 280.763 136.199 285.448 136.199C293.926 136.199 293.703 139.768 292.253 145.122L290.356 154.492H289.464C288.795 147.688 280.317 147.911 274.74 147.911C260.685 147.911 252.43 152.373 249.419 166.428C246.184 181.487 253.434 184.722 266.82 184.722C273.624 184.722 282.548 183.271 285.783 175.352H286.452L284.667 183.829ZM343.118 124.821L341.445 133.298H342.114C345.907 126.271 353.603 124.375 360.185 124.375C368.662 124.375 376.805 125.825 375.69 135.864H376.582C379.371 127.386 388.071 124.375 395.545 124.375C409.154 124.375 414.954 129.952 411.942 143.561L403.242 183.941H384.056L391.306 149.696C392.199 143.338 393.203 138.876 385.952 138.876C378.701 138.876 375.913 143.784 374.686 150.142L367.658 183.718H348.472L355.946 148.023C356.838 142.668 357.396 138.876 350.592 138.876C342.672 138.876 340.218 143.115 338.879 150.142L331.852 183.718H312.666L325.382 124.598H343.23V124.821H343.118ZM442.283 159.512C448.641 159.512 452.88 159.958 451.653 164.866C450.426 171.224 447.637 172.117 439.495 172.117C436.706 172.117 431.017 172.117 432.467 165.759C433.583 160.404 437.375 159.512 442.283 159.512ZM447.414 183.829H466.6L474.297 147.019C478.759 126.606 470.728 124.263 451.095 124.263C437.264 124.263 423.878 124.04 419.862 142.557H439.048C440.275 137.203 443.51 136.199 448.195 136.199C456.673 136.199 456.45 139.768 455 145.122L453.103 154.492H452.211C451.542 147.688 443.064 147.911 437.487 147.911C423.432 147.911 415.177 152.373 412.166 166.428C408.931 181.487 416.181 184.722 429.567 184.722C436.371 184.722 445.295 183.271 448.53 175.352H449.199L447.414 183.829ZM494.822 183.829H475.636L488.017 124.709H507.203L494.822 183.829ZM511.665 108.647C511.665 114.559 506.757 119.467 500.845 119.467C494.933 119.467 490.025 114.559 490.025 108.647C490.025 102.512 494.933 97.8265 500.845 97.8265C506.757 97.8265 511.665 102.512 511.665 108.647Z" fill="#F79838"/>
<path d="M106.193 204.242C63.2472 191.08 32.1256 151.481 32.1256 104.854C32.1256 57.4466 64.028 17.6244 107.643 4.68495C112.105 3.45793 110.878 0.446167 105.523 0.446167C47.6306 0.446167 0.446289 47.0727 0.446289 104.519C0.446289 161.966 47.296 208.593 105.523 208.593C110.878 208.927 111.101 205.915 106.193 204.242ZM52.0925 128.948C51.8694 126.159 51.6463 123.371 51.6463 120.471C51.6463 74.7364 88.6798 37.7028 134.414 37.7028C177.583 37.7028 190.745 56.8889 192.084 55.7734C193.757 54.3233 176.356 16.1743 125.713 16.1743C79.9792 16.1743 42.9456 53.2078 42.9456 98.942C42.9456 109.539 45.065 119.578 48.523 128.948C49.9731 132.964 52.3156 132.964 52.0925 128.948ZM86.5604 69.3821C107.866 60.0122 135.083 59.7891 161.631 68.9359C179.479 75.2941 189.741 83.9948 190.745 83.6601C192.195 82.9908 180.371 64.4741 159.066 56.4427C133.299 46.8497 105.635 51.7577 85.445 67.7089C83.214 69.3821 83.8833 70.6091 86.5604 69.3821Z" fill="#0098CC"/>
</g>
<defs>
<clipPath id="clip0_1_141">
<rect width="512" height="209" fill="white"/>
</clipPath>
</defs>
</svg>
