<svg width="256" height="255" viewBox="0 0 256 255" fill="none" xmlns="http://www.w3.org/2000/svg">
<g clip-path="url(#clip0_1_149)">
<path d="M88.9565 166.908L121.256 134.606L72.7528 134.608H72.6367C45.7591 134.608 23.9697 156.398 23.9697 183.273C23.9697 210.153 45.757 231.94 72.6347 231.94C74.6762 231.94 76.6845 231.799 78.6597 231.555C68.0376 210.63 71.4616 184.401 88.9565 166.908Z" fill="#87C040"/>
<path d="M128.336 183.213V137.535L94.0406 171.835L93.9577 171.915C74.9518 190.921 74.9518 221.735 93.9577 240.741C112.964 259.746 143.777 259.746 162.783 240.741C164.225 239.298 165.521 237.766 166.746 236.2C144.449 228.906 128.338 207.948 128.336 183.213Z" fill="#87C040"/>
<path d="M167.714 166.898L135.414 134.598V183.217C135.414 210.097 157.203 231.884 184.081 231.884C210.959 231.884 232.748 210.097 232.748 183.219C232.748 181.178 232.607 179.17 232.363 177.194C211.437 187.819 185.209 184.393 167.714 166.898Z" fill="#87C040"/>
<path d="M241.546 93.0732C240.104 91.6307 238.574 90.3353 237.007 89.1104C229.714 111.406 208.753 127.518 184.021 127.518H138.345L172.721 161.896C191.727 180.902 222.543 180.902 241.546 161.896C260.552 142.891 260.552 112.077 241.546 93.0732Z" fill="#87C040"/>
<path d="M184.027 23.108C181.986 23.108 179.977 23.2469 178.002 23.4915C188.624 44.4186 185.2 70.6455 167.705 88.1404L135.408 120.44H184.027C210.903 120.44 232.692 98.6506 232.692 71.773C232.694 44.8953 210.905 23.108 184.027 23.108Z" fill="#ED9A2D"/>
<path d="M162.704 14.3057C143.698 -4.6981 112.885 -4.6981 93.879 14.3078C92.4385 15.7503 91.1431 17.2799 89.9182 18.8488C112.213 26.1424 128.326 47.1006 128.326 71.8331V117.511L162.621 83.2138L162.704 83.133C181.71 64.1271 181.71 33.3136 162.704 14.3057Z" fill="#5698C6"/>
<path d="M88.9959 88.1736L90.3804 89.6182L121.215 120.452H121.248V71.945V71.8289C121.248 44.9513 99.4584 23.1619 72.5808 23.1619C45.7031 23.1619 23.9138 44.9492 23.9158 71.8269C23.9158 73.8642 24.0547 75.8664 24.2972 77.8374C45.2368 67.2215 71.4989 70.6766 88.9959 88.1736Z" fill="#5698C6"/>
<path d="M19.7976 165.515C20.1789 164.384 20.5893 163.268 21.0391 162.17C21.095 162.031 21.1448 161.89 21.2028 161.755C21.6961 160.574 22.2391 159.424 22.8091 158.288C22.9334 158.037 23.0619 157.791 23.1925 157.54C23.7791 156.412 24.3967 155.303 25.0558 154.224C25.1263 154.108 25.2029 153.998 25.2734 153.886C25.8993 152.876 26.5605 151.896 27.2486 150.932C27.3895 150.733 27.5284 150.532 27.6735 150.335C28.4134 149.328 29.1844 148.35 29.9865 147.396C30.1503 147.202 30.3161 147.013 30.484 146.824C31.2674 145.917 32.0757 145.032 32.9151 144.178C32.9897 144.103 33.0581 144.024 33.1328 143.95C34.026 143.052 34.9567 142.194 35.908 141.361C36.1152 141.179 36.3225 140.998 36.5318 140.82C37.4894 140.003 38.4697 139.218 39.4791 138.466C39.6117 138.368 39.7506 138.277 39.8833 138.182C40.8263 137.496 41.7921 136.841 42.7787 136.213C42.9735 136.088 43.1663 135.96 43.3632 135.837C44.4285 135.178 45.5187 134.559 46.6296 133.97C46.8638 133.848 47.1001 133.73 47.3364 133.609C48.4452 133.044 49.5686 132.503 50.7168 132.011C50.7728 131.989 50.8266 131.962 50.8826 131.937C52.0702 131.433 53.2848 130.983 54.5138 130.561C54.7791 130.469 55.0423 130.378 55.3097 130.291C56.5263 129.895 57.7595 129.53 59.0114 129.213C59.2021 129.168 59.399 129.126 59.5896 129.083C60.7503 128.803 61.9234 128.563 63.1089 128.357C63.3307 128.32 63.5504 128.274 63.7722 128.241C65.0593 128.034 66.363 127.879 67.677 127.763C67.9609 127.738 68.2469 127.719 68.5309 127.696C69.8905 127.599 71.2564 127.53 72.6409 127.53L118.319 127.528L83.9408 93.1499C64.9349 74.1461 34.1193 74.1441 15.1155 93.1499C-3.89032 112.156 -3.89032 142.969 15.1155 161.975C16.556 163.416 18.0649 164.746 19.6297 165.969C19.6815 165.816 19.7458 165.669 19.7976 165.515Z" fill="#5698C6"/>
<path d="M84.0548 93.1499L111.274 120.37H74.6886L72.6139 120.413C50.3333 120.413 31.5513 105.441 25.777 85.0087C44.3124 74.6146 68.2055 77.3027 83.9739 93.0691L84.0548 93.1499Z" fill="#446BA6"/>
<path d="M121.229 71.8186V110.313L95.3588 84.4429L93.8623 83.0066C78.1063 67.2526 75.412 43.3824 85.7771 24.8532C106.234 30.6109 121.229 49.4074 121.229 71.7025V71.8186Z" fill="#446BA6"/>
<path d="M162.853 83.0957L135.634 110.317V73.7316L135.59 71.657C135.59 49.3764 150.563 30.5923 170.995 24.8201C181.389 43.3554 178.701 67.2485 162.934 83.0149L162.853 83.0957Z" fill="#446BA6"/>
<path d="M183.996 120.338H145.501L171.372 94.4681L172.808 92.9717C188.562 77.2157 212.432 74.5213 230.961 84.8864C225.204 105.343 206.407 120.338 184.112 120.338H183.996Z" fill="#FFF101"/>
<path d="M172.628 161.704L145.408 134.484H181.994L184.069 134.44C206.349 134.443 225.131 149.415 230.906 169.847C212.368 180.239 188.477 177.553 172.709 161.784L172.628 161.704Z" fill="#45AB47"/>
<path d="M135.526 182.994V144.499L161.396 170.369L162.895 171.806C178.649 187.562 181.343 211.428 170.978 229.959C150.521 224.201 135.526 205.407 135.526 183.108V182.994Z" fill="#45AB47"/>
<path d="M94.1587 171.946L121.378 144.725V181.311L121.422 183.385C121.422 205.666 106.449 224.45 86.0175 230.224C75.6234 211.685 78.3115 187.794 94.0779 172.027L94.1587 171.946Z" fill="#45AB47"/>
<path d="M72.8046 134.685H111.299L85.4289 160.555L83.9926 162.052C68.2366 177.808 44.3684 180.502 25.8372 170.137C31.5969 149.678 50.3914 134.685 72.6886 134.685H72.8046Z" fill="#45AB47"/>
</g>
<defs>
<clipPath id="clip0_1_149">
<rect width="256" height="255" fill="white"/>
</clipPath>
</defs>
</svg>
