<svg width="512" height="127" viewBox="0 0 512 127" fill="none" xmlns="http://www.w3.org/2000/svg">
<g clip-path="url(#clip0_1_167)">
<path d="M16.6453 0.0524902H109.774C118.94 0.0524902 126.42 7.49545 126.42 16.6978V109.832C126.42 118.998 118.977 126.472 109.774 126.472H16.6453C7.47984 126.472 0 119.035 0 109.832V16.6556C0 7.49545 7.4377 0.0524902 16.6453 0.0524902Z" fill="#5468FF"/>
<path d="M76.3839 28.2746V23.9395C76.3815 20.9099 73.9247 18.4554 70.8951 18.456H58.1004C55.0709 18.4554 52.614 20.9099 52.6117 23.9395V28.3905C52.6117 28.8856 53.0699 29.2333 53.5704 29.1174C57.1897 28.0724 60.9386 27.5439 64.7058 27.5477C68.3562 27.5477 71.9697 28.0428 75.4621 29.0015C75.9256 29.1174 76.3839 28.775 76.3839 28.2746ZM41.3182 33.9477L39.1322 31.7617C38.1035 30.7323 36.7079 30.1539 35.2527 30.1539C33.7974 30.1539 32.4018 30.7323 31.3732 31.7617L28.7605 34.3691C27.7289 35.3944 27.1488 36.7888 27.1488 38.2433C27.1488 39.6978 27.7289 41.0922 28.7605 42.1176L30.9096 44.2667C31.2573 44.6091 31.7577 44.5301 32.0632 44.1877C33.3312 42.4463 34.7312 40.805 36.2509 39.2784C37.7833 37.7407 39.4394 36.3313 41.2023 35.0644C41.5858 34.8326 41.6237 34.2953 41.3182 33.9477ZM64.6679 47.7116V66.4639C64.6679 67.0012 65.2473 67.3857 65.7425 67.1171L82.4141 58.4889C82.7933 58.2993 82.9092 57.8358 82.7196 57.4565C79.2641 51.3936 72.8483 47.2534 65.437 46.9847C65.0524 46.9847 64.6679 47.2902 64.6679 47.7116ZM64.6679 92.8856C50.767 92.8856 39.4735 81.6079 39.4735 67.7281C39.4735 53.8483 50.767 42.5758 64.6679 42.5758C78.5741 42.5758 89.8634 53.8483 89.8634 67.7281C89.8634 81.6079 78.612 92.8856 64.6679 92.8856ZM64.6679 31.9934C44.9254 31.9934 28.9122 47.9855 28.9122 67.7281C28.9122 87.4759 44.9254 103.431 64.6679 103.431C84.4105 103.431 100.424 87.439 100.424 67.6912C100.424 47.9434 84.4473 31.9934 64.6679 31.9934Z" fill="white"/>
<path d="M252.011 100.323C227.396 100.438 227.396 80.4586 227.396 77.277L227.354 2.43126L242.371 0.050354V74.4378C242.371 76.2446 242.371 87.6698 252.01 87.7066V100.322L252.011 100.323ZM191.14 88.0912C195.748 88.0912 199.168 87.8225 201.549 87.3643V72.1043C200.36 71.7883 199.153 71.5437 197.935 71.3722C196.207 71.1158 194.462 70.9873 192.714 70.9876C191.06 70.9876 189.369 71.1035 187.684 71.3722C185.993 71.6039 184.455 72.0622 183.112 72.7154C181.768 73.3685 180.652 74.2904 179.846 75.4755C179.003 76.666 178.618 77.356 178.618 79.1575C178.618 82.6815 179.846 84.72 182.074 86.0579C184.302 87.4011 187.336 88.0912 191.14 88.0912ZM189.834 33.6411C194.785 33.6411 198.972 34.2574 202.354 35.4848C205.731 36.7121 208.46 38.4346 210.455 40.6206C212.494 42.8434 213.874 45.7985 214.718 48.9432C215.603 52.0879 216.024 55.5381 216.024 59.3307V97.9098C213.722 98.4049 210.223 98.9791 205.542 99.6691C200.858 100.359 195.597 100.707 189.754 100.707C185.877 100.707 182.306 100.322 179.119 99.5954C175.89 98.8685 173.167 97.678 170.859 96.0293C168.594 94.3806 166.83 92.2683 165.523 89.6662C164.254 87.0535 163.601 83.3768 163.601 79.542C163.601 75.8601 164.328 73.5213 165.755 70.9876C167.209 68.4592 169.169 66.3891 171.628 64.7773C174.125 63.1654 176.964 62.0171 180.23 61.3271C183.496 60.637 186.915 60.2894 190.444 60.2894C192.098 60.2894 193.826 60.4053 195.669 60.5949C197.476 60.7898 199.436 61.1374 201.511 61.6326V59.1779C201.511 57.4555 201.316 55.8067 200.895 54.2739C200.49 52.7633 199.754 51.3617 198.74 50.1705C197.703 48.9801 196.365 48.0583 194.674 47.4104C192.983 46.7572 190.828 46.2568 188.258 46.2568C184.802 46.2568 181.653 46.6782 178.771 47.1786C175.89 47.6737 173.509 48.2532 171.702 48.9011L169.901 36.5962C171.781 35.943 174.584 35.2899 178.197 34.642C181.805 33.9466 185.687 33.6411 189.833 33.6411H189.834ZM486.404 87.6698C491.013 87.6698 494.427 87.4011 496.807 86.9376V71.6829C495.965 71.4512 494.774 71.1825 493.199 70.9508C491.469 70.6945 489.723 70.566 487.974 70.5662C486.325 70.5662 484.634 70.6821 482.943 70.9508C481.258 71.1825 479.72 71.6408 478.377 72.294C477.028 72.9471 475.917 73.8689 475.111 75.0541C474.263 76.2446 473.883 76.9346 473.883 78.7361C473.883 82.2601 475.111 84.2986 477.339 85.6365C479.604 87.0166 482.601 87.6698 486.404 87.6698ZM485.135 33.2619C490.086 33.2619 494.273 33.8729 497.654 35.1002C501.031 36.3276 503.76 38.05 505.756 40.236C507.752 42.422 509.174 45.414 510.017 48.5587C510.902 51.7034 511.324 55.1536 511.324 58.9514V97.5253C509.022 98.0204 505.524 98.5945 500.841 99.2899C496.159 99.9799 490.896 100.322 485.055 100.322C481.178 100.322 477.606 99.9378 474.421 99.2108C471.192 98.4839 468.468 97.2935 466.161 95.6448C463.896 93.996 462.132 91.8838 460.825 89.2816C459.556 86.6742 458.903 82.9922 458.903 79.1575C458.903 75.4755 459.635 73.1368 461.057 70.6031C462.511 68.0747 464.47 66.0046 466.93 64.3927C469.427 62.7862 472.266 61.6326 475.532 60.9425C478.798 60.2525 482.217 59.9101 485.751 59.9101C487.4 59.9101 489.127 60.026 490.971 60.2156C492.815 60.4053 494.737 60.7529 496.807 61.2533V58.7987C496.807 57.0709 496.618 55.4222 496.196 53.8894C495.793 52.3783 495.057 50.9764 494.042 49.786C493.004 48.5955 491.666 47.6737 489.976 47.0258C488.284 46.3727 486.13 45.8775 483.56 45.8775C480.104 45.8775 476.954 46.2989 474.073 46.7941C471.192 47.2945 468.811 47.8686 467.004 48.5218L465.203 36.2117C467.083 35.5585 469.885 34.9106 473.499 34.2574C477.107 33.6043 480.984 33.2619 485.135 33.2619ZM440.045 26.1297C445.074 26.1297 449.189 22.0632 449.189 17.038C449.189 12.0181 445.117 7.95159 440.045 7.95159C434.978 7.95159 430.906 12.0181 430.906 17.038C430.906 22.0632 435.015 26.1297 440.045 26.1297ZM447.609 100.322H432.517V35.5954L447.608 33.2197V100.322H447.609ZM421.149 100.323C396.535 100.438 396.534 80.4586 396.534 77.277L396.492 2.43126L411.51 0.050354V74.4378C411.51 76.2446 411.51 87.6698 421.149 87.7066V100.323ZM372.336 67.195C372.336 60.7108 370.913 55.3063 368.149 51.5506C365.384 47.7527 361.507 45.8775 356.55 45.8775C351.599 45.8775 347.715 47.7527 344.955 51.5506C342.19 55.3432 340.842 60.7108 340.842 67.195C340.842 73.7531 342.228 78.1567 344.993 81.9546C347.759 85.7893 351.635 87.6698 356.592 87.6698C361.544 87.6698 365.426 85.7524 368.191 81.9546C370.956 78.1198 372.336 73.7531 372.336 67.195ZM387.696 67.1582C387.696 72.2202 386.969 76.0497 385.469 80.2321C383.973 84.4092 381.86 87.9753 379.137 90.9304C376.408 93.8801 373.143 96.182 369.302 97.7939C365.463 99.4005 359.546 100.322 356.591 100.322C353.631 100.285 347.758 99.4426 343.954 97.7939C340.151 96.1452 336.885 93.8801 334.162 90.9304C331.434 87.9753 329.322 84.4092 327.784 80.2321C326.25 76.0497 325.482 72.2202 325.482 67.1582C325.482 62.0961 326.171 57.2237 327.709 53.0834C329.248 48.9432 331.397 45.414 334.162 42.4642C336.928 39.5091 340.23 37.2441 343.991 35.6375C347.794 34.0257 351.982 33.2619 356.512 33.2619C361.047 33.2619 365.23 34.0625 369.07 35.6375C372.915 37.2441 376.219 39.5091 378.905 42.4642C381.627 45.414 383.741 48.9432 385.279 53.0834C386.891 57.2237 387.697 62.0961 387.697 67.1582H387.696ZM274.672 67.1582C274.672 73.4423 276.052 80.4217 278.818 83.3346C281.583 86.2528 285.153 87.7066 289.537 87.7066C291.918 87.7066 294.183 87.3643 296.294 86.7111C298.406 86.0579 300.093 85.2889 301.442 84.3723V47.1417C300.367 46.9099 295.873 45.9881 291.528 45.8775C286.076 45.7195 281.931 47.9476 279.013 51.5085C276.13 55.0798 274.672 61.3271 274.672 67.1582ZM316.417 96.7562C316.417 106.996 313.804 114.471 308.541 119.227C303.284 123.979 295.256 126.359 284.427 126.359C280.471 126.359 272.253 125.59 265.685 124.137L268.103 112.248C273.597 113.396 280.855 113.707 284.658 113.707C290.684 113.707 294.988 112.48 297.558 110.025C300.134 107.57 301.398 103.931 301.398 99.095V96.6403C299.902 97.3672 297.943 98.0994 295.525 98.8685C293.107 99.5954 290.305 99.9799 287.15 99.9799C283.004 99.9799 279.238 99.3267 275.825 98.0204C272.406 96.7193 269.446 94.802 267.028 92.2683C264.61 89.7399 262.688 86.5583 261.344 82.7605C260.001 78.9626 259.306 72.1781 259.306 67.195C259.306 62.5175 260.038 56.6495 261.461 52.7358C262.919 48.8273 264.991 45.4508 267.797 42.6538C270.564 39.8568 273.944 37.7076 277.9 36.1327C281.856 34.5629 286.497 33.5674 291.527 33.5674C296.41 33.5674 300.903 34.1784 305.28 34.9106C309.658 35.6375 313.382 36.4013 316.416 37.2441V96.7562H316.417Z" fill="#5468FF"/>
</g>
<defs>
<clipPath id="clip0_1_167">
<rect width="512" height="127" fill="white"/>
</clipPath>
</defs>
</svg>
