<svg width="256" height="288" viewBox="0 0 256 288" fill="none" xmlns="http://www.w3.org/2000/svg">
<g clip-path="url(#clip0_1_182)">
<path d="M128.042 254.793L31.8498 199.255V88.3239L127.962 32.8319L224.151 88.3679V199.303L128.042 254.793ZM236.344 81.3289L127.962 18.7519L19.6558 81.2839V206.294L128.042 268.872L236.344 206.343V81.3289Z" fill="#33363B"/>
<path d="M47.862 97.5462C40.811 109.813 25.091 114 12.825 106.948C0.558014 99.8972 -3.62899 84.1782 3.42301 71.9112C10.474 59.6442 26.194 55.4582 38.46 62.5092C50.727 69.6342 54.914 85.2792 47.862 97.5462Z" fill="#7EBC59"/>
<path d="M208.138 97.5462C201.086 85.2792 205.273 69.6342 217.539 62.5092C229.807 55.4582 245.452 59.6442 252.577 71.9112C259.628 84.1782 255.442 99.8232 243.175 106.948C230.909 114 215.189 109.813 208.138 97.5462Z" fill="#7EBC59"/>
<path d="M128 287.645C113.824 287.645 102.365 276.186 102.365 262.009C102.365 247.832 113.824 236.374 128 236.374C142.177 236.374 153.635 247.832 153.635 262.009C153.635 276.113 142.177 287.645 128 287.645Z" fill="#7EBC59"/>
<path d="M120.863 50.2597C123.129 50.9137 125.522 51.2707 128 51.2707C130.487 51.2707 132.887 50.9117 135.159 50.2537L212.581 184.348C210.848 185.999 209.318 187.918 208.064 190.098C206.819 192.265 205.931 194.54 205.37 196.856H50.6325C50.0705 194.542 49.1825 192.267 47.9355 190.098C46.6775 187.933 45.1505 186.025 43.4265 184.38L120.863 50.2597ZM243.102 180.697C236.817 177.083 229.629 176.427 223.162 178.289L145.722 44.1627C150.598 39.4977 153.635 32.9287 153.635 25.6357C153.635 11.4587 142.177 0.000671387 128 0.000671387C113.824 0.000671387 102.365 11.4587 102.365 25.6357C102.365 32.9377 105.41 39.5127 110.295 44.1777L32.8555 178.303C26.3855 176.424 19.1975 177.075 12.8985 180.697C0.631544 187.822 -3.55446 203.467 3.49654 215.734C10.5485 228 26.1935 232.187 38.5335 225.135C44.8255 221.481 48.9855 215.582 50.5995 209.049H205.394C207.004 215.603 211.166 221.513 217.467 225.135C229.733 232.187 245.453 228 252.504 215.734C259.629 203.467 255.442 187.822 243.102 180.697Z" fill="#368CBF"/>
</g>
<defs>
<clipPath id="clip0_1_182">
<rect width="256" height="288" fill="white"/>
</clipPath>
</defs>
</svg>
