<svg width="256" height="256" viewBox="0 0 256 256" fill="none" xmlns="http://www.w3.org/2000/svg">
<g clip-path="url(#clip0_1_189)">
<path d="M168.361 123.454V94.6326L157.634 100.027L168.361 123.467V123.454Z" fill="#C9EBEC"/>
<path d="M194.96 103.449L239.479 58.9424L168.361 94.6326L194.96 103.449Z" fill="#C9EBEC"/>
<path d="M168.361 129.299L159.369 153.488L159.394 153.463L179.774 133.083L192.35 158.121H255.288L168.361 129.299Z" fill="#C9EBEC"/>
<path d="M168.361 94.6326V123.454H255.288L194.96 103.449L168.361 94.6326Z" fill="#00868C"/>
<path d="M168.361 123.454V123.467V129.299L255.288 158.121V123.454H168.361Z" fill="#00B3BB"/>
<path d="M131.946 168.273H160.606L151.789 194.872L196.346 239.441L155.273 157.584L131.946 168.273Z" fill="#C9EBEC"/>
<path d="M159.394 153.463L220.847 214.928L192.35 158.121L179.774 133.083L159.394 153.463Z" fill="#00868C"/>
<path d="M159.394 153.463L159.369 153.488L155.273 157.584L196.346 239.441L220.847 214.928L159.394 153.463Z" fill="#00B3BB"/>
<path d="M101.751 159.27L101.776 159.307L122.156 179.687L97.1177 192.25V255.188L125.952 168.273L101.751 159.27Z" fill="#C9EBEC"/>
<path d="M131.946 168.273H131.784V255.188L151.789 194.872L160.606 168.273H131.946Z" fill="#00868C"/>
<path d="M131.784 168.273H125.952L97.1177 255.188H131.784V168.273Z" fill="#00B3BB"/>
<path d="M60.3161 151.739L15.8096 196.258L86.9151 160.568L60.3161 151.739Z" fill="#C9EBEC"/>
<path d="M86.915 131.734V160.568L97.6545 155.173L86.915 131.734Z" fill="#C9EBEC"/>
<path d="M101.776 159.307L40.3105 220.759L97.1176 192.25L122.156 179.687L101.776 159.307Z" fill="#00868C"/>
<path d="M101.776 159.307L101.751 159.269L97.6546 155.173L86.9151 160.568L15.8096 196.258L40.3106 220.759L101.776 159.307Z" fill="#00B3BB"/>
<path d="M95.9188 101.701L95.8939 101.738L75.5013 122.118L62.9385 97.0802H0L86.9151 125.902L95.9188 101.701Z" fill="#C9EBEC"/>
<path d="M86.9151 160.568V131.734H0L60.3161 151.739L86.9151 160.568Z" fill="#00868C"/>
<path d="M86.9151 131.734V125.902L0 97.0802V131.734H86.9151Z" fill="#00B3BB"/>
<path d="M123.342 86.9276H94.67L103.499 60.3286L58.9424 15.7596L100.015 97.6047L123.342 86.9276Z" fill="#C9EBEC"/>
<path d="M95.8939 101.738L34.429 40.2732L62.9386 97.0802L75.5013 122.118L95.8939 101.738Z" fill="#00868C"/>
<path d="M95.8939 101.738L95.9189 101.701L100.015 97.6047L58.9425 15.7596L34.429 40.2732L95.8939 101.738Z" fill="#00B3BB"/>
<path d="M153.538 95.9189L153.5 95.8939L133.12 75.5138L158.158 62.951V0.0125122L129.336 86.9276L153.538 95.9189Z" fill="#C9EBEC"/>
<path d="M123.342 86.9276H123.505V0.0125122L103.499 60.3286L94.6702 86.9276H123.342Z" fill="#00868C"/>
<path d="M123.504 86.9276H129.336L158.158 0.0125122H123.504V86.9276Z" fill="#00B3BB"/>
<path d="M153.5 95.8939L214.965 34.4414L158.158 62.9511L133.12 75.5138L153.5 95.8939Z" fill="#00868C"/>
<path d="M153.5 95.8939L153.537 95.9189L157.633 100.027L168.36 94.6326L239.479 58.9425L214.965 34.4414L153.5 95.8939Z" fill="#00B3BB"/>
</g>
<defs>
<clipPath id="clip0_1_189">
<rect width="256" height="256" fill="white"/>
</clipPath>
</defs>
</svg>
