<svg width="512" height="123" viewBox="0 0 512 123" fill="none" xmlns="http://www.w3.org/2000/svg">
<g clip-path="url(#clip0_1_220)">
<path d="M120.415 114.002H91.8683L83.1835 93.0409H35.8385L27.9233 114.002H0L42.6545 8.17175H73.2161L120.415 114.002ZM58.5216 33.3833L42.8377 74.6086H75.4148L58.5216 33.3833ZM223.386 8.17175H246.362V114.002H219.978V48.0412L191.432 81.2413H187.401L158.855 47.8946V113.855H132.471V8.17175H155.447L189.417 47.5282L223.386 8.17175ZM313.202 8.17175C351.826 8.17175 371.834 32.2107 371.834 61.2333C371.834 91.6484 352.595 114.002 310.381 114.002H266.48V8.17175H313.202ZM292.865 94.6166H310.088C336.618 94.6166 344.534 76.6241 344.534 61.0867C344.534 42.7644 334.749 27.5568 309.794 27.5568H292.865V94.6166Z" fill="black"/>
<path d="M424.126 39.9427V87.874H472.057L437.831 122.137H389.9V74.1689L424.126 39.9427ZM512 0V121.111L478.727 87.8374V33.2734H424.163L390.926 0H512Z" fill="black"/>
</g>
<defs>
<clipPath id="clip0_1_220">
<rect width="512" height="123" fill="white"/>
</clipPath>
</defs>
</svg>
