<svg width="256" height="298" viewBox="0 0 256 298" fill="none" xmlns="http://www.w3.org/2000/svg">
<g clip-path="url(#clip0_1_247)">
<path d="M124.444 131.966L176.043 194.386L177.759 192.671C183.301 186.732 188.58 180.794 193.463 174.855C198.345 168.917 211.278 155.324 215.765 149.122L235.956 186.073C232.525 190.955 227.906 196.894 222.363 203.492C216.821 210.09 210.222 217.745 202.173 226.19L255.487 292.042H201.513L172.876 256.807C146.747 283.992 119.166 297.584 90.9248 297.584C65.4553 297.584 43.9448 289.534 26.1293 273.17C8.70978 256.807 0 236.616 0 212.598C0 183.961 13.5925 159.943 41.4374 141.204L60.3086 128.271C60.7045 128.271 60.9685 127.875 61.7603 127.216C62.4201 126.82 63.2119 126.16 64.1357 125.104C45.2645 104.913 35.499 84.9863 35.499 65.4553C35.499 45.9243 41.8333 30.2203 54.3701 18.0794C67.3029 5.93849 83.9306 0 104.517 0C124.444 0 140.412 5.93849 153.345 17.8155C166.278 29.6924 172.876 44.6046 172.876 62.4201C172.876 74.9569 169.445 86.174 162.451 96.2035C155.061 105.837 142.524 118.11 124.444 131.966ZM90.0011 156.38L87.6257 158.096C69.8102 170.237 57.6693 180.398 51.3349 187.656C45.0005 194.914 41.9653 202.964 41.9653 211.41C41.9653 223.287 46.8481 234.372 56.2177 244.138C65.9832 253.507 77.0684 258.39 88.9453 258.39C105.705 258.39 124.84 247.569 146.747 225.663L90.0011 156.38ZM99.3707 101.746L102.802 98.9748C108.74 94.4879 114.019 90.265 117.846 87.0978C121.673 83.6667 124.84 80.7634 126.556 78.388C130.383 73.9012 132.098 68.2266 132.098 61.3644C132.098 53.7103 129.723 47.7718 124.444 42.8891C119.166 38.0063 112.567 35.8949 103.858 35.8949C96.2035 35.8949 89.6052 38.2703 83.9306 43.153C78.652 47.6399 75.8807 53.5784 75.8807 60.9685C75.8807 69.2823 79.3118 77.7282 86.0421 86.0421L96.8633 98.9748C97.2592 99.2387 97.9191 100.294 99.3707 101.746Z" fill="#E7168E"/>
<path d="M87.526 2.1076C76.0449 8.04609 77.4965 7.65019 69.5785 17.9436C27.7452 72.9735 68.6548 110.584 85.6784 130.775C80.2678 134.47 74.8572 138.165 69.4466 141.86C59.4171 148.722 49.2557 155.585 40.8099 164.294C32.2321 173.004 25.3698 183.561 22.9944 195.438C21.0149 205.336 21.8067 215.761 24.446 225.395C39.4902 281.348 87.262 278.577 102.702 289.794C97.9513 298.108 86.9981 292.302 77.4965 294.017C67.9949 295.733 65.7515 292.962 56.5139 290.19C28.9329 281.876 9.00597 262.213 2.67159 234.105C-6.96196 192.007 14.0207 168.253 14.0207 168.253C14.0207 168.253 18.6395 158.752 35.7952 144.631C36.8509 143.708 63.5081 126.684 63.904 125.364C64.5638 123.649 50.8393 110.848 48.332 105.173C45.0328 97.7832 35.2673 84.1907 35.2673 67.167C35.3993 42.3573 44.9008 10.8174 86.8661 1.18384L87.526 2.1076ZM90.5612 157.564C94.3882 154.001 95.9718 152.681 100.723 150.306C120.122 172.08 136.617 192.667 154.829 216.553C150.342 219.72 146.647 225.659 146.647 225.659L90.5612 157.564ZM123.817 285.835C142.028 275.542 157.732 260.63 169.081 243.078C169.741 242.022 170.665 240.703 171.984 240.571C173.304 240.439 174.492 241.627 175.416 242.55C188.48 257.595 196.398 268.152 207.351 284.912C201.941 287.947 204.712 287.683 198.51 287.287C195.474 287.155 173.964 256.011 172.38 257.331C163.671 265.249 142.952 289.662 123.553 285.967L123.817 285.835ZM230.578 176.303C219.756 189.104 209.463 201.773 199.038 214.969C198.642 215.497 198.114 216.157 197.982 216.949C197.85 218.137 200.885 223.943 202.469 225.791C210.651 216.949 219.228 207.843 225.959 199.133C229.126 195.174 235.328 186.333 235.988 185.937C235.592 185.673 230.841 176.567 230.578 176.303ZM98.0833 101.214C102.174 105.701 106.265 110.056 110.356 114.543C125.532 105.701 136.617 89.9972 139.917 72.7096C140.708 68.7506 140.972 64.5277 140.444 60.5687C138.861 49.2196 129.095 40.1139 117.878 38.3984C124.609 42.0934 128.831 46.5803 131.075 52.9147C133.45 59.249 132.658 66.9031 129.623 72.9735C127.908 76.5366 125.268 79.4399 122.629 82.4751C115.899 89.8652 108.773 94.3521 99.7988 101.874L98.0833 101.214Z" fill="black" fill-opacity="0.1"/>
</g>
<defs>
<clipPath id="clip0_1_247">
<rect width="256" height="298" fill="white"/>
</clipPath>
</defs>
</svg>
