<svg width="256" height="225" viewBox="0 0 256 225" fill="none" xmlns="http://www.w3.org/2000/svg">
<g clip-path="url(#clip0_1_267)">
<path d="M19.2881 192.986C12.6733 192.986 8.22217 198.179 8.22217 204.856C8.22217 211.533 12.6733 216.726 19.2881 216.726C25.9029 216.726 30.354 211.533 30.354 204.856C30.354 198.179 25.9029 192.986 19.2881 192.986ZM17.8044 185.63C23.121 185.63 27.5721 188.35 29.674 191.317V186.372H37.8343V223.402H31.5904C30.5395 223.402 29.7358 222.537 29.7358 221.548V218.457C27.6339 221.424 23.2446 224.144 17.8662 224.144C7.7276 224.144 0 215.489 0 204.918C0 194.346 7.66578 185.63 17.8044 185.63ZM47.1075 186.372H55.2678V191.379C57.4934 187.67 61.6972 185.63 66.5192 185.63C75.1123 185.63 80.6762 191.688 80.6762 201.085V223.402H74.4323C73.3813 223.402 72.5776 222.537 72.5776 221.548V202.445C72.5776 196.572 69.6102 193.048 64.85 193.048C59.4716 193.048 55.2678 197.252 55.2678 205.165V223.402H49.0239C47.973 223.402 47.1693 222.537 47.1693 221.548V186.372H47.1075ZM106.394 192.986C99.7788 192.986 95.3277 198.179 95.3277 204.856C95.3277 211.533 99.7788 216.726 106.394 216.726C113.008 216.726 117.46 211.533 117.46 204.856C117.46 198.179 113.008 192.986 106.394 192.986ZM104.91 185.63C110.227 185.63 114.678 188.35 116.78 191.317V167.825H124.94V223.402H118.696C117.645 223.402 116.841 222.537 116.841 221.548V218.457C114.739 221.424 110.35 224.144 104.972 224.144C94.8331 224.144 87.1055 215.489 87.1055 204.918C87.1055 194.346 94.7713 185.63 104.91 185.63ZM134.213 186.372H142.373V192.986C143.795 188.783 147.937 186.001 152.141 186.001C153.192 186.001 154.243 186.062 155.294 186.31V194.656C153.872 194.223 152.697 193.976 151.214 193.976C146.577 193.976 142.312 197.932 142.312 205.289V223.34H136.068C135.017 223.34 134.213 222.475 134.213 221.486V186.372ZM177.24 216.54C183.731 216.54 188.368 211.409 188.368 204.856C188.368 198.241 183.793 193.172 177.24 193.172C170.625 193.172 166.051 198.303 166.051 204.856C166.113 211.471 170.687 216.54 177.24 216.54ZM177.24 224.144C166.298 224.144 157.829 215.613 157.829 204.918C157.829 194.161 166.298 185.63 177.24 185.63C188.183 185.63 196.652 194.161 196.652 204.918C196.652 215.613 188.244 224.144 177.24 224.144ZM203.267 186.372H211.427V223.402H205.183C204.132 223.402 203.329 222.537 203.329 221.548V186.372H203.267ZM207.347 178.273C204.38 178.273 201.845 175.8 201.845 172.771C201.845 169.804 204.38 167.393 207.347 167.393C210.376 167.393 212.725 169.865 212.725 172.771C212.725 175.8 210.376 178.273 207.347 178.273ZM237.454 192.986C230.839 192.986 226.388 198.179 226.388 204.856C226.388 211.533 230.839 216.726 237.454 216.726C244.069 216.726 248.52 211.533 248.52 204.856C248.458 198.179 244.069 192.986 237.454 192.986ZM235.97 185.63C241.287 185.63 245.738 188.35 247.84 191.317V167.825H256V223.402H249.756C248.705 223.402 247.901 222.537 247.901 221.548V218.457C245.8 221.424 241.41 224.144 236.032 224.144C225.893 224.144 218.166 215.489 218.166 204.918C218.166 194.346 225.831 185.63 235.97 185.63Z" fill="black"/>
<path d="M190.717 43.5654L212.045 6.65841C213.282 4.5565 212.54 1.83639 210.438 0.599971C208.336 -0.636446 205.616 0.105404 204.38 2.20731L182.804 39.5471C166.298 32.0049 147.752 27.8011 128.031 27.8011C108.248 27.8011 89.7638 32.0049 73.2577 39.5471L51.6822 2.20731C50.4458 0.105404 47.7257 -0.636446 45.6238 0.599971C43.5219 1.83639 42.78 4.5565 44.0164 6.65841L65.3446 43.5654C28.623 63.4717 3.64743 100.502 0 144.21H255.938C252.291 100.502 227.253 63.4717 190.717 43.5654ZM69.0538 107.735C63.1809 107.735 58.4207 102.975 58.4207 97.1023C58.4207 91.2293 63.1809 86.4691 69.0538 86.4691C74.9268 86.4691 79.687 91.2293 79.687 97.1023C79.687 102.975 74.9268 107.735 69.0538 107.735ZM186.884 107.735C181.011 107.735 176.251 102.975 176.251 97.1023C176.251 91.2293 181.011 86.4691 186.884 86.4691C192.757 86.4691 197.518 91.2293 197.518 97.1023C197.518 102.975 192.757 107.735 186.884 107.735Z" fill="#3DDC84"/>
</g>
<defs>
<clipPath id="clip0_1_267">
<rect width="256" height="225" fill="white"/>
</clipPath>
</defs>
</svg>
