<svg width="512" height="79" viewBox="0 0 512 79" fill="none" xmlns="http://www.w3.org/2000/svg">
<g clip-path="url(#clip0_1_271)">
<path d="M24.5273 25.0592C31.8559 25.0592 37.9434 28.8417 40.8394 32.9198V26.0639H52.0097V76.9507H43.9718C42.1988 76.9507 40.7803 75.5323 40.7803 73.7592V70.0949C37.9434 74.232 31.8559 78.0145 24.5273 78.0145C10.5792 78.0145 0 66.076 0 51.5369C0 36.9978 10.5792 25.0592 24.5273 25.0592ZM26.5368 35.2248C17.4942 35.2248 11.3476 42.3761 11.3476 51.5369C11.3476 60.6977 17.4351 67.849 26.5368 67.849C35.5794 67.849 41.726 60.6977 41.726 51.5369C41.726 42.3761 35.6385 35.2248 26.5368 35.2248ZM64.7166 26.0639H75.946V32.9789C79.0193 27.8961 84.8113 25.0592 91.4307 25.0592C103.251 25.0592 110.875 33.3926 110.875 46.3359V76.9507H102.837C101.064 76.9507 99.6459 75.5323 99.6459 73.7592V48.1681C99.6459 40.1302 95.5678 35.2248 89.0666 35.2248C81.6198 35.2248 75.946 41.0167 75.946 51.8915V76.9507H67.9081C66.1351 76.9507 64.7166 75.5323 64.7166 73.7592V26.0639ZM144.268 25.0592C151.596 25.0592 157.684 28.8417 160.58 32.9198V0.650121H171.75V77.0098H163.712C161.939 77.0098 160.521 75.5914 160.521 73.8183V70.154C157.684 74.232 151.537 78.0145 144.209 78.0145C130.261 78.0145 119.681 66.076 119.681 51.5369C119.741 36.9978 130.32 25.0592 144.268 25.0592ZM146.277 35.2248C137.235 35.2248 131.088 42.3761 131.088 51.5369C131.088 60.6977 137.176 67.849 146.277 67.849C155.32 67.849 161.466 60.6977 161.466 51.5369C161.466 42.3761 155.32 35.2248 146.277 35.2248ZM184.457 26.0639H195.627V35.1065C197.578 29.3146 203.252 25.532 209.044 25.532C210.462 25.532 211.88 25.6502 213.417 25.9457V37.4706C211.467 36.8796 209.871 36.525 207.802 36.525C201.36 36.525 195.568 41.9033 195.568 52.1279V76.9507H187.53C185.757 76.9507 184.339 75.5323 184.339 73.7592V26.0639H184.457ZM243.677 78.0145C228.606 78.0145 217.022 66.3124 217.022 51.5369C217.022 36.7614 228.606 25.0592 243.677 25.0592C258.748 25.0592 270.332 36.7614 270.332 51.5369C270.332 66.3124 258.748 78.0145 243.677 78.0145ZM243.677 67.6126C252.661 67.6126 258.926 60.5795 258.926 51.5369C258.926 42.4943 252.602 35.4612 243.677 35.4612C234.635 35.4612 228.311 42.4943 228.311 51.5369C228.311 60.5795 234.635 67.6126 243.677 67.6126ZM284.99 14.9528C280.911 14.9528 277.484 11.584 277.484 7.44684C277.484 3.36881 280.971 0 284.99 0C289.186 0 292.436 3.36881 292.436 7.44684C292.436 11.6431 289.186 14.9528 284.99 14.9528ZM279.434 26.0639H290.604V76.9507H282.625C280.852 76.9507 279.434 75.5323 279.434 73.7592V26.0639ZM324.351 25.0592C331.68 25.0592 337.768 28.8417 340.664 32.9198V0.650121H351.834V77.0098H343.796C342.023 77.0098 340.604 75.5914 340.604 73.8183V70.154C337.768 74.232 331.621 78.0145 324.292 78.0145C310.344 78.0145 299.765 66.076 299.765 51.5369C299.824 36.9978 310.403 25.0592 324.351 25.0592ZM326.42 35.2248C317.377 35.2248 311.231 42.3761 311.231 51.5369C311.231 60.6977 317.318 67.849 326.42 67.849C335.463 67.849 341.609 60.6977 341.609 51.5369C341.609 42.3761 335.463 35.2248 326.42 35.2248Z" fill="black"/>
<path d="M475.416 57.7426C472.284 57.7426 469.742 55.2013 469.742 52.0689C469.742 48.9365 472.284 46.3951 475.416 46.3951C478.548 46.3951 481.09 48.9365 481.09 52.0689C481.09 55.2013 478.548 57.7426 475.416 57.7426ZM412.945 57.7426C409.813 57.7426 407.271 55.2013 407.271 52.0689C407.271 48.9365 409.813 46.3951 412.945 46.3951C416.078 46.3951 418.619 48.9365 418.619 52.0689C418.619 55.2013 416.078 57.7426 412.945 57.7426ZM477.425 23.6999L488.773 4.13719C489.423 3.01426 489.009 1.59581 487.886 0.945689C486.764 0.295568 485.345 0.709282 484.695 1.83222L473.229 21.6314C464.482 17.6124 454.671 15.3666 444.21 15.3666C433.749 15.3666 423.879 17.6124 415.132 21.5723L403.666 1.77312C403.016 0.65018 401.598 0.236466 400.475 0.886588C399.352 1.53671 398.938 2.95515 399.588 4.07809L410.877 23.6408C391.491 34.2201 378.193 53.8419 376.243 77.069H512C510.109 53.901 496.87 34.2792 477.425 23.6999Z" fill="#3DDC84"/>
</g>
<defs>
<clipPath id="clip0_1_271">
<rect width="512" height="79" fill="white"/>
</clipPath>
</defs>
</svg>
