<svg width="256" height="145" viewBox="0 0 256 145" fill="none" xmlns="http://www.w3.org/2000/svg">
<g clip-path="url(#clip0_1_264)">
<path d="M190.736 43.5806L212.041 6.65324C213.261 4.53147 212.535 1.82034 210.418 0.593771C208.3 -0.628808 205.589 0.0985188 204.363 2.2179L182.792 39.613C166.295 32.0786 147.769 27.8817 128 27.8817C108.231 27.8817 89.7033 32.0786 73.2076 39.613L51.637 2.2175C50.4117 0.0981202 47.6989 -0.629207 45.5812 0.593372C43.4646 1.81994 42.7341 4.53107 43.9594 6.65284L65.2645 43.5802C28.6812 63.494 3.65976 100.559 0 144.349H256C252.337 100.559 227.315 63.494 190.736 43.5806ZM186.815 86.53C192.643 86.53 197.383 91.3585 197.383 97.294C197.383 103.231 192.643 108.063 186.815 108.063C180.989 108.063 176.249 103.231 176.249 97.294C176.249 91.3585 180.989 86.53 186.815 86.53ZM69.1838 86.53C75.01 86.53 79.7508 91.3585 79.7508 97.294C79.7508 103.231 75.01 108.063 69.1838 108.063C63.3564 108.063 58.6168 103.231 58.6168 97.294C58.6168 91.3585 63.3564 86.53 69.1838 86.53Z" fill="#3DDC84"/>
</g>
<defs>
<clipPath id="clip0_1_264">
<rect width="256" height="145" fill="white"/>
</clipPath>
</defs>
</svg>
