<svg width="256" height="315" viewBox="0 0 256 315" fill="none" xmlns="http://www.w3.org/2000/svg">
<g clip-path="url(#clip0_1_297)">
<path d="M67.5169 313.863C66.9754 313.863 66.3907 313.727 65.9848 313.178L48.6013 290.316V313.635H44.637V284.921C44.637 283.778 45.5829 282.864 46.6648 282.864C47.2945 282.864 47.8356 283.046 48.2396 283.595L65.5792 306.411V283.184H69.5432V311.852C69.5432 313.041 68.5972 313.863 67.5169 313.863Z" fill="#1A1918"/>
<path d="M100.306 314.138C96.3435 314.138 92.1993 313.314 88.3259 311.852L89.2722 308.559C92.8302 309.703 96.7032 310.526 100.306 310.526C105.306 310.526 107.918 308.742 107.918 306.228C107.918 303.942 105.89 302.799 98.9097 299.506C91.929 296.214 89.1825 294.112 89.1825 289.996C89.1825 284.83 93.1453 282.726 100.621 282.726C103.729 282.726 108.503 283.367 111.251 284.19L110.62 287.573C107.602 286.841 103.82 286.339 100.711 286.339C95.443 286.339 93.2808 287.344 93.2808 289.859C93.2808 292.328 94.8565 293.38 102.243 296.809C110.035 300.421 112.016 302.25 112.016 305.999C112.016 311.441 106.881 314.138 100.306 314.138Z" fill="#1A1918"/>
<path d="M130.798 283.184H134.896V313.635H130.798V283.184Z" fill="#1A1918"/>
<path d="M169.758 299.827H159.578V310.161H169.758C173.225 310.161 175.342 307.966 175.342 304.902C175.342 302.021 173.136 299.827 169.758 299.827ZM167.775 286.658H159.578V296.398H167.775C171.063 296.398 173.45 294.294 173.45 291.368C173.45 288.488 171.378 286.658 167.775 286.658ZM169.803 313.635H157.553C156.381 313.635 155.48 312.72 155.48 311.578V285.241C155.48 284.143 156.381 283.184 157.553 283.184H167.686C173.901 283.184 177.594 286.247 177.594 291.048C177.594 293.654 176.062 296.078 173.72 297.495C177.189 298.547 179.53 301.427 179.53 304.902C179.53 309.748 175.522 313.635 169.803 313.635Z" fill="#1A1918"/>
<path d="M199.212 313.635C198.088 313.635 197.187 312.675 197.187 311.578V283.184H201.284V309.932H217.588V313.635H199.212Z" fill="#1A1918"/>
<path d="M245.526 314.138C237.149 314.138 232.105 311.029 232.105 304.765C232.105 301.793 233.772 298.958 237.014 297.632C234.402 295.986 233.051 293.654 233.051 291.094C233.051 285.424 237.421 282.726 245.617 282.726C248.365 282.726 252.237 283.046 255.481 283.778L255.03 287.161C251.608 286.612 248.409 286.293 245.301 286.293C239.987 286.293 237.149 287.756 237.149 291.277C237.149 294.066 239.762 296.261 243.23 296.261H250.255C251.246 296.261 252.012 297.038 252.012 297.998C252.012 299.003 251.246 299.781 250.255 299.781H242.69C238.726 299.781 236.205 301.746 236.205 304.765C236.205 309.2 240.303 310.526 245.437 310.526C248.23 310.526 252.012 310.161 255.074 309.429L255.661 312.766C252.733 313.59 248.904 314.138 245.526 314.138Z" fill="#1A1918"/>
<path d="M14.138 288.895L21.3157 306.879L10.4752 298.21L14.138 288.895ZM26.8895 311.022L15.8496 284.048C15.5346 283.27 14.9037 282.859 14.138 282.859C13.3724 282.859 12.6968 283.27 12.3818 284.048L0.263916 313.635H4.40847L9.20605 301.437L23.5203 313.178C24.096 313.65 24.5113 313.863 25.0524 313.863C26.1327 313.863 27.0787 313.041 27.0787 311.852C27.0787 311.659 27.0107 311.352 26.8895 311.022Z" fill="#1A1918"/>
<path d="M255.879 127.868C255.879 198.323 198.769 255.433 128.312 255.433C57.8623 255.433 0.746216 198.323 0.746216 127.868C0.746216 57.4179 57.8623 0.301758 128.312 0.301758C198.769 0.301758 255.879 57.4179 255.879 127.868Z" fill="#1A1918"/>
<path d="M130.46 78.2288L163.472 159.705L113.608 120.427L130.46 78.2288ZM189.104 178.474L138.326 56.2719C136.876 52.7476 133.978 50.8827 130.46 50.8827C126.936 50.8827 123.826 52.7476 122.377 56.2719L66.6437 190.312H85.709L107.771 135.047L173.61 188.237C176.258 190.378 178.169 191.346 180.652 191.346C185.626 191.346 189.974 187.618 189.974 182.235C189.974 181.359 189.664 179.969 189.104 178.474Z" fill="white"/>
</g>
<defs>
<clipPath id="clip0_1_297">
<rect width="256" height="315" fill="white"/>
</clipPath>
</defs>
</svg>
