<svg width="256" height="256" viewBox="0 0 256 256" fill="none" xmlns="http://www.w3.org/2000/svg">
<g clip-path="url(#clip0_1_310)">
<path d="M116.85 4.54549L4.52893 116.774C-1.50964 122.808 -1.50964 132.553 4.52893 138.587L116.85 250.816C122.889 256.849 132.642 256.849 138.681 250.816L185.775 203.76C191.183 198.356 191.183 189.595 185.775 184.192C180.367 178.788 171.599 178.788 166.191 184.192L130.489 219.864C128.986 221.366 126.705 221.366 125.202 219.864L35.5055 130.242C34.0025 128.74 34.0025 126.461 35.5055 124.959L125.202 35.3363C126.705 33.8345 128.986 33.8345 130.489 35.3363L166.191 71.009C171.599 76.4126 180.367 76.4126 185.775 71.009C191.183 65.6055 191.183 56.8446 185.775 51.4411L138.686 4.39028C132.622 -1.51276 122.865 -1.46497 116.85 4.54549Z" fill="url(#paint0_linear_1_310)"/>
<path d="M116.85 4.54549L4.52893 116.774C-1.50964 122.808 -1.50964 132.553 4.52893 138.587L116.85 250.816C122.889 256.849 132.642 256.849 138.681 250.816L185.775 203.76C191.183 198.356 191.183 189.595 185.775 184.192C180.367 178.788 171.599 178.788 166.191 184.192L130.489 219.864C128.986 221.366 126.705 221.366 125.202 219.864L35.5055 130.242C34.0025 128.74 34.0025 126.461 35.5055 124.959L125.202 35.3363C128.944 32.11 135.051 25.5752 144.017 24.0468C150.681 22.911 157.967 25.411 165.874 31.5469C160.588 26.2648 151.525 17.2126 138.686 4.39028C132.622 -1.51276 122.865 -1.46497 116.85 4.54549Z" fill="url(#paint1_linear_1_310)"/>
<path d="M196.647 173.754C202.055 179.158 210.823 179.158 216.231 173.754L250.97 139.044C257.009 133.01 257.009 123.265 250.971 117.232L215.929 82.3426C210.508 76.9454 201.737 76.9532 196.326 82.36C190.918 87.7635 190.918 96.5243 196.326 101.928L219.993 125.576C221.496 127.078 221.496 129.357 219.993 130.859L196.647 154.186C191.239 159.59 191.239 168.351 196.647 173.754Z" fill="url(#paint2_linear_1_310)"/>
<path d="M128.327 158.543C145.076 158.543 158.654 144.977 158.654 128.242C158.654 111.507 145.076 97.9399 128.327 97.9399C111.578 97.9399 98.0002 111.507 98.0002 128.242C98.0002 144.977 111.578 158.543 128.327 158.543Z" fill="url(#paint3_linear_1_310)"/>
</g>
<defs>
<linearGradient id="paint0_linear_1_310" x1="11789" y1="0.000631254" x2="22462.7" y2="6518.31" gradientUnits="userSpaceOnUse">
<stop stop-color="#4285EB"/>
<stop offset="1" stop-color="#2EC7FF"/>
</linearGradient>
<linearGradient id="paint1_linear_1_310" x1="13220.6" y1="-0.000145438" x2="7948.76" y2="27246.4" gradientUnits="userSpaceOnUse">
<stop stop-color="#29CDFF"/>
<stop offset="0.378601" stop-color="#148EFF"/>
<stop offset="1" stop-color="#0A60FF"/>
</linearGradient>
<linearGradient id="paint2_linear_1_310" x1="4598.77" y1="-1212.74" x2="-2260.73" y2="9514.96" gradientUnits="userSpaceOnUse">
<stop stop-color="#FA816E"/>
<stop offset="0.414726" stop-color="#F74A5C"/>
<stop offset="1" stop-color="#F51D2C"/>
</linearGradient>
<linearGradient id="paint3_linear_1_310" x1="4230.2" y1="-2065.04" x2="1947.83" y2="7064.76" gradientUnits="userSpaceOnUse">
<stop stop-color="#FA8E7D"/>
<stop offset="0.512635" stop-color="#F74A5C"/>
<stop offset="1" stop-color="#F51D2C"/>
</linearGradient>
<clipPath id="clip0_1_310">
<rect width="256" height="256" fill="white"/>
</clipPath>
</defs>
</svg>
