<svg width="257" height="208" viewBox="0 0 257 208" fill="none" xmlns="http://www.w3.org/2000/svg">
<g clip-path="url(#clip0_1_317)">
<path d="M24.231 202.41C24.231 202.41 31.561 207.907 47.867 206.826C47.867 206.826 50.725 206.777 52.867 203.583C52.867 203.583 54.62 199.602 47.062 201.335C47.062 201.335 37.78 202.663 29.103 198.166C29.103 198.166 10.866 188.005 7.79803 172.723C7.79803 172.723 2.23203 157.655 11.164 141.877C11.164 141.877 16.687 132.529 22.916 128.209C22.916 128.209 33.297 118.36 48.664 121.126C48.664 121.126 56.231 121.729 71.314 133.947C71.314 133.947 76.154 135.31 75.026 131.08C75.026 131.08 71.033 120.931 54.774 117.266C54.774 117.266 54.352 103.781 60.977 97.907C60.977 97.907 72.301 76.48 97.017 78.829C97.017 78.829 119.29 78.312 131.366 107.117C131.366 107.117 135.219 119.991 132.541 130.141L148.329 127.322L133.245 97.014C133.245 97.014 123.8 77.726 98.99 73.414C98.99 73.414 76.577 68.256 57.688 91.798C57.688 91.798 49.511 105.753 48.947 115.762C48.947 115.762 21.318 108.714 4.26103 141.982C4.26103 141.982 -12.185 179.526 24.231 202.41Z" fill="#369AC9"/>
<path d="M167.726 191.179C167.726 191.179 198.653 164.114 169.896 136.484C169.896 136.484 171.476 128.731 167.726 126.052C167.726 126.052 166.231 122.247 155.941 127.18C155.941 127.18 147.342 130 139.871 123.374L130.99 130.564C130.99 130.564 119.008 135.92 113.369 149.03C113.369 149.03 109.563 160.871 113.369 165.382C113.369 165.382 116.188 166.792 117.88 163.409C117.88 163.409 116.47 151.568 126.197 140.713C126.197 140.713 147.826 123.35 169.405 146.609C169.405 146.609 182.33 165.523 167.726 183.003C167.726 183.003 159.747 189.911 160.593 191.179C160.593 191.179 162.877 193.294 167.726 191.179Z" fill="#369AC9"/>
<path d="M91.66 72.9359C91.66 72.9359 91.471 62.1949 94.762 53.0799C94.762 53.0799 96.467 48.4319 102.468 39.3589C103.414 37.9269 106.415 34.0959 107.355 30.6189C107.355 30.6189 112.43 14.6429 94.245 12.1099C94.245 12.1099 88.451 11.0779 84.66 14.1249C82.263 16.0519 80.008 17.1799 78.269 17.6499C78.269 17.6499 69.669 20.6099 69.951 15.1119C69.951 15.1119 68.401 6.93592 87.854 4.68092C87.854 4.68092 111.656 0.592919 114.415 19.4819C114.415 19.4819 118.303 31.0419 104.206 48.3809C104.206 48.3809 96.453 60.3869 98.286 73.4139C100.119 86.4419 98.286 74.0359 98.286 74.0359L95.889 75.5869L91.238 73.4139" fill="#369AC9"/>
<path d="M131.695 97.648C131.695 97.648 144.341 94.548 146.409 84.023L128.365 82.802C128.365 82.802 123.479 81.087 120.847 72.781C120.847 72.781 109.946 66.919 110.698 58.461C110.698 58.461 112.389 47.936 121.412 46.432C121.412 46.432 130.822 44.106 132.736 59.142C132.736 59.142 137.163 71.877 128.535 72.781C128.535 72.781 126.674 76.88 133.44 77.069C133.44 77.069 141.689 79.512 147.526 74.625C147.526 74.625 151.483 70.983 156.183 71.676C156.183 71.676 157.193 69.879 155.219 68.752C155.219 68.752 143.519 58.743 141.475 44.576C141.475 44.576 131.819 43.236 130.621 36.4C130.621 36.4 128.365 25.827 137.105 23.713C137.105 23.713 142.674 22.444 145.493 23.713C145.493 23.713 152.612 4.32997 172.911 1.01697C172.911 1.01697 189.686 -2.92903 195.677 9.75697C195.677 9.75697 198.144 16.665 196.805 22.444C196.805 22.444 195.395 28.788 196.875 30.409C196.875 30.409 202.302 29.14 204.558 32.664C206.813 36.188 207.8 43.73 203.289 45.492C203.289 45.492 204.628 51.483 200.117 55.571C200.117 55.571 185.809 63.888 181.721 70.937C181.721 70.937 180.461 72.546 179.818 73.11C178.271 74.468 176.212 75.631 174.321 76.129C174.321 76.129 172.621 76.865 170.726 75.941C170.726 75.941 170.162 78.76 173.334 79.254C173.334 79.254 179.36 78.419 185.915 76.41L233.315 59.459C233.315 59.459 231.112 53.539 232.874 50.649C232.874 50.649 233.849 49.113 234.736 48.776C236.38 48.151 238.342 45.023 238.425 42.579C238.425 42.579 237.967 36.4 242.407 36.118C242.407 36.118 246.659 35.86 246.307 41.075L246.002 44.506C246.002 44.506 252.504 42.039 254.68 46.479C254.68 46.479 259.075 55.39 254.415 62.579C254.415 62.579 247.558 69.338 238.53 65.086L235.43 63.183C235.43 63.183 180.311 85.996 179.677 87.5C179.677 87.5 175.348 89.684 172.135 95.535C172.135 95.535 161.069 115.271 155.36 120.486C155.36 120.486 151.625 124.997 148.947 126.125L150.004 128.944H137.951L136.542 119.869L134.779 102.09L131.695 97.648Z" fill="#369AC9"/>
<path d="M182.442 17.086C182.442 17.086 189.914 12.434 192.733 17.509C192.733 17.509 191.887 24.416 192.31 30.055C192.31 30.055 193.156 36.68 198.513 40.486C198.513 40.486 203.588 46.125 198.513 51.2C198.513 51.2 183.289 61.913 180.469 68.398C180.469 68.398 173.703 77.983 162.707 70.653C162.707 70.653 148.329 61.913 150.866 49.226C150.866 49.226 152.558 46.689 156.223 45.843C156.223 45.843 147.201 31.183 155.377 20.751C155.377 20.751 168.628 3.83496 182.442 17.086Z" fill="#B9DEEB"/>
<path d="M142.831 29.773C142.831 29.773 139.8 34.213 139.659 40.839C139.659 40.839 135.008 40.134 134.585 35.693C134.585 35.693 133.386 29.279 139.095 28.222C139.095 28.222 141.985 27.517 142.831 29.773Z" fill="#B9DEEB"/>
<path d="M195.552 34.777C195.552 34.777 198.653 32.663 200.768 34.777C200.768 34.777 203.925 37.857 202.107 40.486C202.107 40.486 200.768 41.262 199.922 40.486C199.922 40.486 198.143 38.285 196.258 37.033C196.258 37.033 194.918 36.116 195.552 34.777Z" fill="#B9DEEB"/>
<path d="M129.862 59.657C129.862 59.657 128.453 52.468 123.754 50.494C123.754 50.494 120.37 49.603 117.833 52.516C117.833 52.516 113.181 57.262 114.732 63.041C114.732 63.041 117.411 69.385 124.505 70.701C124.505 70.701 128.5 71.922 130.802 65.86C130.802 65.86 131.381 63.973 129.862 59.657Z" fill="#B9DEEB"/>
<path d="M136.206 104.297C136.206 104.297 145.38 100.568 156.692 86.8179C156.692 86.8179 159.793 82.4939 164.117 83.6219C164.117 83.6219 170.414 85.1249 166.372 95.1809C166.372 95.1809 158.478 120.086 139.683 122.623C139.683 122.623 139.683 109.56 136.206 104.297Z" fill="#B9DEEB"/>
<path d="M66.0981 129.765C66.0981 129.765 33.0191 123.562 21.3661 151.192C21.3661 151.192 11.4041 184.084 52.0021 194.609C52.0021 194.609 81.1351 199.308 117.411 193.481C117.411 193.481 159.587 188.031 167.726 181.828C167.726 181.828 164.023 195.925 124.741 202.128C124.741 202.128 67.4141 210.398 48.0551 206.639C48.0551 206.639 50.8741 207.014 53.3171 202.88C53.3171 202.88 54.2581 199.872 45.7991 201.564C45.7991 201.564 26.6291 203.631 13.4711 184.648C13.4711 184.648 -8.14292 155.451 21.9291 129.169C21.9291 129.169 39.9731 109.277 66.0981 129.765Z" fill="#B9DEEB"/>
<path d="M171.553 35.236C171.553 35.236 171.165 31.359 165.844 31.042C165.844 31.042 160.804 30.055 159.571 34.883C159.571 34.883 160.029 36.786 162.143 35.482C162.143 35.482 162.137 32.647 165.949 32.486C165.949 32.486 169.579 33.153 169.967 35.938C169.967 35.938 171.447 36.504 171.553 35.236Z" fill="#369AC9"/>
<path d="M179.641 35.8169C179.641 35.8169 179.923 31.8699 183.2 31.1289C183.2 31.1289 187.958 29.5969 190.037 33.8609C190.037 33.8609 190.777 35.5889 190.107 36.0639C190.107 36.0639 188.619 36.6099 188.169 34.0199C188.169 34.0199 186.971 31.6759 184.592 32.1689C184.592 32.1689 182.478 32.3989 181.949 34.6179C181.949 34.6179 181.844 36.9619 179.641 35.8169Z" fill="#369AC9"/>
<path d="M161.767 48.9909C162.846 48.3259 164.401 48.8959 165.387 49.4979C166.458 50.1519 167.625 50.7669 168.76 51.3049C170.985 52.3579 173.296 53.0389 175.816 53.0319C177.123 53.0289 178.515 53.1649 179.799 52.9839C180.869 52.8339 181.969 52.7149 183.038 52.6069C184.338 52.4759 185.689 52.2039 186.871 51.5859C187.462 51.2769 188.054 51.0309 188.625 50.6819C189.157 50.3559 189.648 49.9239 190.162 49.6019C190.398 49.4539 191.037 48.9809 191.322 49.0319C191.702 49.1019 192.064 50.1289 191.964 50.4879C191.243 50.7009 190.552 51.2749 189.862 51.6089C188.905 52.0719 188.012 52.7009 187.138 53.3029C185.901 54.1579 184.453 55.3609 183.665 56.6499C181.82 59.6729 179.725 62.7519 176.664 64.6379C175.056 65.6279 173.253 65.9079 171.388 65.9079C169.617 65.9069 167.375 65.5839 165.85 64.6309C164.368 63.7059 163.221 62.5369 162.751 60.8329C162.286 59.1439 162.754 57.4519 162.754 55.7369C162.754 54.3999 163.11 52.4179 162.473 51.2459C162.256 50.8419 162.173 50.9619 161.812 50.6499C161.535 50.4089 161.394 49.9549 161.527 49.4379C161.548 49.3489 161.676 48.9839 161.767 48.9909Z" fill="#369AC9"/>
<path d="M175.535 43.499C175.535 44.288 174.865 44.927 174.038 44.927C173.21 44.927 172.539 44.288 172.539 43.499C172.539 42.711 173.21 42.072 174.038 42.072C174.865 42.072 175.535 42.711 175.535 43.499Z" fill="#369AC9"/>
<path d="M181.667 43.2529C181.667 44.0409 180.996 44.6799 180.169 44.6799C179.342 44.6799 178.672 44.0409 178.672 43.2529C178.672 42.4639 179.342 41.8259 180.169 41.8259C180.996 41.8259 181.667 42.4639 181.667 43.2529Z" fill="#369AC9"/>
<path d="M234.701 56.1569C234.701 56.1569 232.504 52.3379 235.45 49.3179C235.45 49.3179 239.307 47.9959 239.412 45.0059C239.412 45.0059 238.349 40.3009 240.547 38.6569C240.547 38.6569 244.192 36.1559 244.662 40.4929C244.662 40.4929 245.456 44.5129 244.147 47.0479C244.147 47.0479 249.523 45.6679 251.954 47.0479C254.386 48.4289 255.228 55.8029 253.031 59.6229C253.031 59.6229 250.412 64.1969 243.071 63.8859C243.071 63.8859 236.525 64.1529 236.384 59.3989C236.384 59.3989 235.753 57.3709 234.701 56.1569Z" fill="#B9DEEB"/>
</g>
<defs>
<clipPath id="clip0_1_317">
<rect width="257" height="208" fill="white"/>
</clipPath>
</defs>
</svg>
