<svg width="256" height="259" viewBox="0 0 256 259" fill="none" xmlns="http://www.w3.org/2000/svg">
<g clip-path="url(#clip0_1_382)">
<path d="M122.798 254.854C89.621 260.301 76.7462 258.32 63.3763 253.864C50.2092 249.399 38.7771 240.912 30.6941 229.6L29.2085 228.114C21.7808 217.715 16.3337 205.831 11.3819 175.129L3.45895 123.63C-1.98808 89.9575 -0.502526 77.0827 4.44932 63.7128C9.06853 50.6249 17.3116 39.1189 28.2182 30.5354L30.1989 29.0499C40.5978 21.6221 52.4822 16.1751 82.6884 11.2232L133.197 3.30028C166.375 -2.14675 179.249 -0.166009 192.619 4.29065C205.786 8.75498 217.219 17.2425 225.302 28.5547L226.787 30.5354C234.215 40.9343 239.662 52.8187 244.614 83.5201L252.537 134.524C257.984 168.197 256.498 181.071 251.546 194.441C247.088 207.613 238.815 219.161 227.777 227.619L225.797 229.104C215.398 236.532 203.513 241.979 173.307 246.931L122.798 254.854Z" fill="black"/>
<path d="M179.299 94.8599C158.76 94.8599 142.111 111.51 142.111 132.048C142.111 152.587 158.76 169.237 179.299 169.237C199.837 169.237 216.487 152.587 216.487 132.048C216.487 111.51 199.837 94.8599 179.299 94.8599ZM179.299 106.843C193.219 106.843 204.504 118.128 204.504 132.048C204.504 145.968 193.219 157.253 179.299 157.253C165.379 157.253 154.094 145.968 154.094 132.048C154.094 118.128 165.379 106.843 179.299 106.843Z" fill="url(#paint0_linear_1_382)"/>
<path d="M109.677 47.9863L53.8028 57.016C50.5225 57.5461 48.2931 60.635 48.8232 63.9153L57.8529 119.79C58.383 123.07 61.4719 125.3 64.7522 124.769L120.627 115.74C123.907 115.21 126.137 112.121 125.606 108.841L116.577 52.9659C116.047 49.6856 112.958 47.4562 109.677 47.9863ZM105.657 60.8246L112.767 104.82L68.7715 111.93L61.6614 67.9346L105.657 60.8246Z" fill="url(#paint1_linear_1_382)"/>
<path d="M99.3216 144.91L75.5527 212.255C74.0398 216.541 77.6645 220.886 82.1529 220.165L149.993 209.271C154.495 208.548 156.572 203.262 153.766 199.668L109.695 143.217C106.782 139.486 100.897 140.446 99.3216 144.91ZM106.982 159.214L138.08 199.047L90.2103 206.732L106.982 159.214Z" fill="url(#paint2_linear_1_382)"/>
</g>
<defs>
<linearGradient id="paint0_linear_1_382" x1="5898.04" y1="-298.274" x2="1240.23" y2="9088.12" gradientUnits="userSpaceOnUse">
<stop stop-color="#CC9300"/>
<stop offset="0.48" stop-color="#EA433A"/>
<stop offset="1" stop-color="#B327BF"/>
</linearGradient>
<linearGradient id="paint1_linear_1_382" x1="6299.64" y1="-4436.35" x2="1883.19" y2="4225.93" gradientUnits="userSpaceOnUse">
<stop stop-color="#CC9300"/>
<stop offset="0.26" stop-color="#EA433A"/>
<stop offset="0.48" stop-color="#B327BF"/>
<stop offset="0.76" stop-color="#6666FF"/>
<stop offset="1" stop-color="#00BF9A"/>
</linearGradient>
<linearGradient id="paint2_linear_1_382" x1="648.168" y1="8404.69" x2="7764.77" y2="1022.33" gradientUnits="userSpaceOnUse">
<stop stop-color="#B327BF"/>
<stop offset="0.48" stop-color="#6666FF"/>
<stop offset="1" stop-color="#00C09A"/>
</linearGradient>
<clipPath id="clip0_1_382">
<rect width="256" height="259" fill="white"/>
</clipPath>
</defs>
</svg>
