<svg width="512" height="105" viewBox="0 0 512 105" fill="none" xmlns="http://www.w3.org/2000/svg">
<g clip-path="url(#clip0_1_391)">
<path d="M52.2621 0C81.126 0 104.528 23.3857 104.526 52.2372C104.526 81.0844 81.124 104.474 52.2621 104.474C23.4003 104.474 0 81.0844 0 52.2372C0 23.3857 23.4003 0 52.2621 0ZM52.2621 2.90865C25.0024 2.90865 2.91281 24.994 2.91281 52.2372C2.91281 79.472 25.0024 101.564 52.2621 101.564C79.5115 101.564 101.614 79.472 101.614 52.2372C101.614 24.994 79.5115 2.90865 52.2621 2.90865ZM46.6362 31.9848C50.6913 31.9848 53.9849 35.2763 53.9849 39.3396C53.9849 39.6767 53.9495 40.0179 53.9079 40.357L70.4235 44.899C71.3244 43.557 72.8557 42.6748 74.5847 42.6748C77.3664 42.6748 79.6072 44.9135 79.6093 47.6828C79.6093 50.4479 77.3644 52.6928 74.5847 52.6928C72.8953 52.6928 71.3931 51.8439 70.4901 50.554L50.2024 61.1774C50.7724 62.4695 51.0928 63.8863 51.0928 65.3823C51.0928 71.1663 46.397 75.8518 40.6192 75.8518C34.8331 75.8518 30.1497 71.1663 30.1497 65.3823C30.1497 59.6066 34.8331 54.9211 40.6192 54.9211C41.3911 54.9211 42.1318 55.0043 42.8517 55.1604L44.2685 46.2846C41.3682 45.2984 39.2835 42.5562 39.2835 39.3396C39.2835 35.2763 42.5749 31.9848 46.6362 31.9848ZM53.446 42.0756C52.3682 44.772 49.728 46.6779 46.6362 46.6779C46.4178 46.6779 46.218 46.6695 46.0121 46.6529L44.5661 55.6951C46.5301 56.494 48.1904 57.8693 49.3493 59.6149L69.7432 48.9353C69.6412 48.5296 69.5788 48.1114 69.5788 47.6786C69.5788 47.2854 69.6329 46.9088 69.7078 46.5468L53.446 42.0756Z" fill="#232E44"/>
<path d="M179.925 35.5488C182.617 32.4737 188.295 29.6004 196.313 30.932C203.321 32.095 206.745 35.4739 209.042 40.7253C211.672 46.7319 212.353 58.4123 208.408 65.7068C205.299 71.4555 200.175 74.9176 192.396 74.9176C183.682 74.9176 179.806 71.5387 179.806 71.5387V90.1557H175.283V50.2523C175.283 44.6909 176.847 39.0671 179.925 35.5488ZM225.912 35.5488C228.604 32.4737 234.282 29.6004 242.3 30.932C249.31 32.095 252.732 35.4739 255.029 40.7253C257.659 46.7319 258.338 58.4123 254.393 65.7068C251.284 71.4555 246.16 74.9176 238.381 74.9176C229.669 74.9176 225.793 71.5387 225.793 71.5387V90.1557H221.27V50.2523C221.27 44.6909 222.832 39.0671 225.912 35.5488ZM141.867 30.8092C162.506 28.0504 163.247 41.2413 163.627 44.0646C164.52 50.7017 164.897 58.6599 163.575 63.7573C162.712 67.1008 161.179 71.8695 154.437 73.9959C145.212 76.9045 127.806 75.2734 130.29 58.3832C132.301 44.7201 158.651 48.0835 159.704 48.2235L159.737 48.2279C159.283 38.7092 155.717 35.6924 150.811 34.9246C141.765 33.5119 136.486 38.0351 136.486 38.0351L134.173 34.159C134.173 34.159 137.146 31.4397 141.867 30.8092ZM325.064 30.8092C345.703 28.0504 346.452 41.2413 346.823 44.0646C347.717 50.7017 348.092 58.6599 346.773 63.7573C345.911 67.1008 344.374 71.8695 337.633 73.9959C328.405 76.9045 311.001 75.2734 313.488 58.3832C315.457 44.9989 340.781 47.9533 342.804 48.2111L342.932 48.2279C342.478 38.7092 338.914 35.6924 334.01 34.9246C324.962 33.5119 319.683 38.0351 319.683 38.0351L317.372 34.159C317.372 34.159 320.343 31.4397 325.064 30.8092ZM272.535 15.519V34.2172C272.535 34.2172 276.536 30.8384 285.25 30.8384C293.029 30.8384 298.276 34.2984 301.391 40.047C305.336 47.3395 304.655 59.0178 302.026 65.0307C299.729 70.2758 296.24 73.6588 289.23 74.826C281.211 76.1555 275.471 73.2843 272.777 70.2051C269.7 66.6847 268.01 61.063 268.01 55.5016V15.519H272.535ZM445.935 66.7846V75.0778H442.923V66.7846H445.935ZM461.013 30.597V75.0778H458.001V30.597H461.013ZM382.107 34.8643L379.373 37.8312L379.342 37.7993C378.878 37.3397 373.383 32.1199 365.779 35.1389C362.156 36.5724 360.642 40.3445 361.376 43.1617C362.254 46.5551 365.627 48.7875 370.044 49.9485C380.074 52.5846 382.748 56.2922 383.405 61.0047C384.367 67.9123 378.928 74.9966 370.922 75.0281C361.122 75.0715 355.467 68.293 355.467 68.293L359.048 65.2762C359.048 65.2762 371.494 76.5966 378.587 66.408C380.597 63.5181 380.095 57.7382 372.994 55.0979C364.855 52.0728 358.359 50.5768 356.976 44.0459C354.485 32.274 370.169 25.5724 382.107 34.8643ZM412.887 30.572C423.567 30.6906 429.875 37.0031 430.522 46.5613C430.67 48.7543 430.901 53.2546 430.522 55.3559L397.63 55.3247L397.631 55.369C397.64 56.0607 397.895 64.6762 404.794 68.8943C409.113 71.5345 418.368 73.0388 426.908 67.9643L428.902 71.418C428.902 71.418 424.593 75.0674 414.957 75.022C396.723 74.9259 391.439 62.5964 393.829 47.2812C395.088 39.2398 401.452 30.4431 412.887 30.572ZM492.022 30.5929C503.053 30.5929 512 40.4902 512 52.6949C512 64.9016 503.053 74.799 492.022 74.799C480.987 74.799 472.04 64.9016 472.04 52.6949C472.04 40.4881 480.987 30.5929 492.022 30.5929ZM492.022 33.9904C482.595 33.9904 474.961 42.4418 474.961 52.8696C474.961 63.2954 482.599 71.7488 492.022 71.7488C501.447 71.7488 509.087 63.2934 509.085 52.8696C509.085 42.4418 501.445 33.9904 492.022 33.9904ZM286.363 34.9704C276.199 34.2817 272.66 39.2668 272.66 39.2668C272.538 47.56 272.417 55.7575 272.949 60.4971C273.18 62.536 275.671 72.0734 286.55 71.3452C297.082 70.6441 299.724 63.2913 299.972 52.801C300.259 40.7607 294.746 35.5342 286.363 34.9704ZM159.757 52.7074C159.757 52.7074 153.006 50.6247 142.765 52.7074C132.718 54.7484 132.868 63.7344 135.375 66.8574C139.316 71.7738 148.581 72.2919 154.96 69.4165C160.852 66.7607 160.086 55.8166 159.82 53.2485L159.791 52.9786C159.771 52.8025 159.757 52.7074 159.757 52.7074ZM342.955 52.7074C342.955 52.7074 336.205 50.6247 325.961 52.7074C315.918 54.7484 316.065 63.7344 318.575 66.8574C322.509 71.7738 331.78 72.2919 338.155 69.4165C344.846 66.4018 342.955 52.7074 342.955 52.7074ZM193.569 34.4086C182.692 33.6804 180.199 43.2199 179.968 45.2568C179.48 49.6222 179.538 56.9228 179.651 64.5267L179.671 65.8327L179.681 66.4871C179.681 66.4871 183.222 71.468 193.384 70.7835C201.767 70.2217 207.282 64.9911 206.993 52.9529C206.741 42.4605 204.103 35.1119 193.569 34.4086ZM239.56 34.4086C228.685 33.6804 226.19 43.2199 225.962 45.2568C225.469 49.6222 225.531 56.9228 225.643 64.5267L225.662 65.8327L225.672 66.4871C225.672 66.4871 229.214 71.468 239.373 70.7835C247.754 70.2217 253.271 64.9911 252.98 52.9529C252.728 42.4605 250.09 35.1119 239.56 34.4086ZM412.806 34.365C399.863 34.2422 397.68 49.445 397.678 51.7045H426.935C426.935 51.7045 428.381 34.5148 412.806 34.365ZM461.013 14.7659V23.0591H458.001V14.7659H461.013Z" fill="#232E44"/>
</g>
<defs>
<clipPath id="clip0_1_391">
<rect width="512" height="105" fill="white"/>
</clipPath>
</defs>
</svg>
