<svg width="512" height="110" viewBox="0 0 512 110" fill="none" xmlns="http://www.w3.org/2000/svg">
<g clip-path="url(#clip0_1_398)">
<path d="M191.966 20.0225L211.797 72.6978H202.263L197.497 59.4002H176.609L172.061 72.6978H162.6L182.359 20.0225H191.966ZM187.126 27.921H186.908C186.738 29.3906 186.483 30.6517 186.144 31.7046L179.011 52.0179H195.023L187.854 31.7046C187.611 31.068 187.369 29.8067 187.126 27.921ZM235.469 34.165C240.224 34.165 243.96 35.8425 246.677 39.1975C249.394 42.5524 250.753 47.1195 250.753 52.8991C250.753 59.2169 249.212 64.2494 246.132 67.9964C243.051 71.743 238.878 73.6164 233.614 73.6164C229.101 73.6164 225.596 71.7307 223.097 67.9594H222.952V89.9994H214.546V35.0834H222.952V41.1077H223.097C226.057 36.4794 230.181 34.165 235.469 34.165ZM232.705 41.108C229.769 41.108 227.398 42.1489 225.591 44.2304C223.783 46.312 222.88 49.0057 222.88 52.3117V57.1237C222.88 59.891 223.741 62.1744 225.463 63.9745C227.185 65.7745 229.332 66.6742 231.904 66.6742C235.106 66.6742 237.593 65.4744 239.364 63.0744C241.135 60.6745 242.02 57.2339 242.02 52.7524C242.02 49.1283 241.201 46.2813 239.564 44.2121C237.926 42.1426 235.64 41.108 232.705 41.108ZM277.12 34.165C281.875 34.165 285.612 35.8425 288.328 39.1975C291.045 42.5524 292.404 47.1195 292.404 52.8991C292.404 59.2169 290.864 64.2494 287.781 67.9964C284.701 71.743 280.529 73.6164 275.263 73.6164C270.752 73.6164 267.246 71.7307 264.748 67.9594H264.602V89.9994H256.196V35.0834H264.602V41.1077H264.748C267.707 36.4794 271.831 34.165 277.12 34.165ZM336.472 19.1412C338.655 19.1412 340.923 19.3249 343.276 19.6922C345.631 20.0596 347.595 20.5983 349.171 21.3085V30.1978C345.461 27.994 341.311 26.8919 336.727 26.8919C333.159 26.8919 329.978 27.7123 327.174 29.3531C324.372 30.9939 322.209 33.3263 320.679 36.3508C319.15 39.375 318.387 42.8952 318.387 46.9113C318.387 52.7398 319.963 57.3559 323.117 60.7598C326.271 64.1638 330.481 65.8656 335.744 65.8656C340.863 65.8656 345.338 64.6291 349.171 62.1555V70.4573C347.401 71.4369 345.174 72.2084 342.493 72.7716C339.815 73.3349 337.09 73.6164 334.325 73.6164C329.28 73.6164 324.851 72.5328 321.043 70.3654C317.235 68.1982 314.325 65.125 312.311 61.1456C310.298 57.1661 309.291 52.5929 309.291 47.4256C309.291 41.9648 310.454 37.067 312.782 32.7324C315.112 28.3981 318.368 25.0491 322.553 22.686C326.739 20.3228 331.378 19.1412 336.472 19.1412ZM274.355 41.108C271.42 41.108 269.048 42.1489 267.241 44.2304C265.433 46.312 264.53 49.0057 264.53 52.3117V57.1237C264.53 59.891 265.391 62.1744 267.113 63.9745C268.836 65.7745 270.983 66.6742 273.554 66.6742C276.756 66.6742 279.243 65.4744 281.013 63.0744C282.786 60.6745 283.669 57.2339 283.669 52.7524C283.669 49.1283 282.851 46.2813 281.213 44.2121C279.577 42.1426 277.29 41.108 274.355 41.108ZM369.931 34.165C375.074 34.165 379.071 35.7569 381.922 38.9403C384.772 42.124 386.197 46.5319 386.197 52.1643V56.3886H360.835C361.005 59.8171 362.036 62.425 363.927 64.2127C365.82 66.0004 368.525 66.8942 372.043 66.8942C374.152 66.8942 376.18 66.5574 378.119 65.8842C380.059 65.2107 381.757 64.3473 383.213 63.2944V70.4573C381.807 71.388 379.914 72.1471 377.536 72.7347C375.159 73.3226 372.648 73.6164 370.005 73.6164C364.351 73.6164 359.974 71.9083 356.869 68.492C353.764 65.0758 352.21 60.3312 352.21 54.2581C352.21 50.2419 352.982 46.7278 354.522 43.7156C356.062 40.7034 358.196 38.3587 360.926 36.6812C363.656 35.0038 366.657 34.165 369.931 34.165ZM369.934 40.8137C367.653 40.8137 365.675 41.6647 364.001 43.3668C362.326 45.0686 361.273 47.2787 360.835 49.9971H377.829C377.829 47.0093 377.137 44.7319 375.756 43.1646C374.371 41.5974 372.432 40.8137 369.934 40.8137ZM415.622 51.5767V72.698H424.025V49.5931C424.025 44.4014 422.939 40.5322 420.77 37.9853C418.598 35.4385 415.534 34.165 411.581 34.165C406.318 34.165 402.291 36.4794 399.501 41.1077H399.356V35.0834H390.949V72.698H399.356V51.3195C399.356 48.4053 400.185 45.9747 401.848 44.028C403.508 42.0811 405.615 41.1077 408.162 41.1077C410.78 41.1077 412.678 41.9708 413.854 43.6973C415.031 45.4237 415.622 48.0502 415.622 51.5767ZM450.9 72.3307C450.391 72.6245 449.488 72.9122 448.189 73.1937C446.892 73.4755 445.637 73.6161 444.422 73.6161C437.121 73.6161 433.471 69.6492 433.471 61.7148V41.9156H427.284V35.0831H433.471V26.4142L441.914 23.8062V35.0831H450.9V41.9156H441.914V60.1353C441.914 62.5106 442.338 64.1941 443.186 65.1861C444.036 66.1777 445.369 66.6737 447.188 66.6737C447.675 66.6737 448.288 66.5697 449.026 66.3615C449.767 66.1534 450.391 65.8779 450.9 65.5348V72.3307ZM469.516 34.165C474.659 34.165 478.656 35.7569 481.506 38.9403C484.357 42.124 485.782 46.5319 485.782 52.1643V56.3886H460.417C460.587 59.8171 461.618 62.425 463.511 64.2127C465.404 66.0004 468.11 66.8942 471.625 66.8942C473.737 66.8942 475.761 66.5574 477.704 65.8842C479.643 65.2107 481.342 64.3473 482.797 63.2944V70.4573C481.391 71.388 479.498 72.1471 477.121 72.7347C474.744 73.3226 472.232 73.6164 469.587 73.6164C463.935 73.6164 459.558 71.9083 456.453 68.492C453.346 65.0758 451.795 60.3312 451.795 54.2581C451.795 50.2419 452.563 46.7278 454.106 43.7156C455.646 40.7034 457.78 38.3587 460.51 36.6812C463.238 35.0038 466.241 34.165 469.516 34.165ZM469.516 40.8137C467.237 40.8137 465.259 41.6647 463.585 43.3668C461.911 45.0686 460.858 47.2787 460.42 49.9971H477.414C477.414 47.0093 476.721 44.7319 475.34 43.1646C473.956 41.5974 472.016 40.8137 469.516 40.8137ZM509.855 42.4665C510.848 42.7357 511.565 43.0298 512 43.3479V34.9362C511.201 34.5932 510.071 34.4219 508.616 34.4219C506.433 34.4219 504.504 35.1198 502.83 36.5157C501.156 37.9114 499.909 39.8707 499.082 42.3929H498.937V35.0831H490.531V72.6978H498.937V53.4497C498.937 50.0702 499.69 47.3274 501.194 45.2213C502.696 43.1154 504.674 42.0625 507.125 42.0625C507.949 42.0625 508.859 42.1971 509.855 42.4665Z" fill="#CB2E63"/>
<path d="M81.3497 109.425L0 82.0837L81.2989 94.0714V73.5751V0L108.399 11.3823V98.0627L81.3497 109.425ZM27.0987 18.2392L37.261 20.5204V36.9371L54.1982 25.0795V38.7601L37.261 47.8817L54.1982 57.0033V70.6839L37.261 58.8261V75.243L27.0987 77.5243L9.0334 61.5622V54.7218L19.4566 47.8817L9.0334 41.0413V34.2009L27.0987 18.2392ZM27.1003 52.4411L14.4549 58.8266L27.1003 68.4029V52.4411ZM27.1003 27.361L14.4549 36.9376L27.1003 43.3231V27.361ZM67.7485 29.6426L54.1982 25.0795V70.6839L67.7485 66.1219V29.6426Z" fill="#CB2E63"/>
</g>
<defs>
<clipPath id="clip0_1_398">
<rect width="512" height="110" fill="white"/>
</clipPath>
</defs>
</svg>
