<svg width="256" height="256" viewBox="0 0 256 256" fill="none" xmlns="http://www.w3.org/2000/svg">
<g clip-path="url(#clip0_1_409)">
<path d="M195.627 256L256 96.3733L208 85.4933L195.627 256Z" fill="#087CFA"/>
<path d="M255.253 205.333L195.627 256L110.533 234.08L255.253 205.333Z" fill="url(#paint0_linear_1_409)"/>
<path d="M31.8667 117.28L4.66675 39.4667L140.48 0L31.8667 117.28Z" fill="url(#paint1_linear_1_409)"/>
<path d="M223.36 148.213L185.253 83.1733L185.973 82.72L140.48 0L0 151.707V256L255.253 205.333L223.36 148.213Z" fill="url(#paint2_linear_1_409)"/>
<path d="M48 48H208V208H48V48Z" fill="black"/>
<path d="M67.9468 177.76H127.947V187.76H67.9468V177.76ZM180.187 76.1866L171.707 85.9733C167.647 81.7553 162.092 79.3032 156.24 79.1466C146.167 79.1466 138.857 87.4132 138.696 97.6282L138.693 98.16C138.693 108.533 145.867 117.173 156.24 117.173C162.676 117.173 166.796 114.858 171.255 110.961L171.91 110.379C172.02 110.28 172.13 110.181 172.24 110.08L180.613 118.667C174.409 125.822 165.275 129.751 155.813 129.333C147.544 129.472 139.572 126.249 133.722 120.404C127.988 114.675 124.772 106.907 124.77 98.8158L124.773 98.16C124.625 89.7728 127.91 81.6892 133.867 75.7828C139.823 69.8765 147.934 66.6604 156.32 66.88C165.239 66.4329 173.924 69.8196 180.187 76.1866ZM101.333 68L126.88 128.08H113.173L107.84 114.747H82.5068L77.1734 128.08H63.8401L89.3334 68H101.333ZM95.1468 83.76L87.1468 103.12H103.147L95.1468 83.76Z" fill="white"/>
</g>
<defs>
<linearGradient id="paint0_linear_1_409" x1="110.533" y1="2738.67" x2="14582.5" y2="2738.67" gradientUnits="userSpaceOnUse">
<stop offset="0.19" stop-color="#07C3F2"/>
<stop offset="0.9" stop-color="#087CFA"/>
</linearGradient>
<linearGradient id="paint1_linear_1_409" x1="4.66675" y1="5864" x2="13586" y2="5864" gradientUnits="userSpaceOnUse">
<stop offset="0.19" stop-color="#07C3F2"/>
<stop offset="0.9" stop-color="#087CFA"/>
</linearGradient>
<linearGradient id="paint2_linear_1_409" x1="16755.3" y1="26413.3" x2="4097.67" y2="8746.97" gradientUnits="userSpaceOnUse">
<stop offset="0.09" stop-color="#21D789"/>
<stop offset="0.48" stop-color="#07C3F2"/>
<stop offset="0.9" stop-color="#087CFA"/>
</linearGradient>
<clipPath id="clip0_1_409">
<rect width="256" height="256" fill="white"/>
</clipPath>
</defs>
</svg>
