<svg width="512" height="68" viewBox="0 0 512 68" fill="none" xmlns="http://www.w3.org/2000/svg">
<g clip-path="url(#clip0_1_420)">
<path d="M383.515 46.8716C383.515 48.9707 382.657 50.7471 379.775 50.7824L377.297 50.7829V17.0225H384.626L395.126 31.5733L405.751 17.0225H412.882V46.0633C412.882 49.412 411.504 50.756 408.936 50.7825L406.551 50.7829V26.125L395.615 40.8923H394.237L383.515 26.125V46.8716ZM297.132 47.6567C297.132 48.3469 296.696 49.147 296.089 49.7731L296.015 49.8473L295.94 49.9198C295.371 50.4566 294.68 50.8339 294.061 50.8447L290.895 50.8449V17.0225H295.762L313.836 39.7622V21.6243C313.836 18.5959 315.061 17.0225 317.19 17.0225H320.197V50.8572H315.03L297.132 28.3052V47.6567ZM212.897 50.7601V17.0259H227.004C234.557 17.2986 240.947 21.8914 242.521 30.6379L242.567 30.9042C243.084 33.8538 242.873 36.8851 241.953 39.7346C239.832 46.2397 235.265 49.8094 228.562 50.7743C227.264 50.9447 225.955 51.0184 224.646 50.9944L212.897 50.7601ZM224.822 22.8356L224.533 22.8348H222.601L220.104 22.8422L218.998 22.8471V44.4815L219.848 44.5086L220.502 44.5273L221.133 44.5434L221.44 44.5505L222.037 44.5627L222.327 44.5678L222.752 44.5743L223.298 44.5806L223.693 44.5837L224.074 44.5853H224.51L224.864 44.5837L225.093 44.5818L225.426 44.5778L225.746 44.5723L225.952 44.5678L226.152 44.5627L226.347 44.5569L226.536 44.5505L226.72 44.5434L226.897 44.5357L227.069 44.5273L227.236 44.5182L227.396 44.5086L227.551 44.4982L227.701 44.4873C227.725 44.4854 227.749 44.4835 227.773 44.4815C230.688 44.3026 233.336 42.7319 234.893 40.2657L234.939 40.1907C236.311 38.0226 236.929 35.4625 236.697 32.9073C236.329 27.1685 232.58 22.9432 226.517 22.8471L226.264 22.8442L225.684 22.8394L224.822 22.8356ZM109.172 17.0225L124.358 50.7829H117.385L114.539 44.323H96.9197L94.0111 50.7829H87.2761L102.255 17.0225H109.172ZM105.674 24.1622L99.4822 38.4888H111.997L105.674 24.1622ZM351.964 17.0225L367.15 50.7829H360.177L357.332 44.323H339.712L336.804 50.7829H330.069L345.048 17.0225H351.964ZM348.466 24.1622L342.275 38.4888H354.79L348.466 24.1622ZM134.354 17.0317L139.999 17.024H145.958L148.204 17.0286L149.048 17.0317C150.902 16.9882 152.751 17.2369 154.527 17.769C159.092 19.2507 162.23 23.4475 162.358 28.2457C162.489 30.4664 162.023 32.682 161.009 34.6621C159.267 38.021 155.952 40.2783 152.189 40.6687C151.183 40.8139 150.169 40.8863 149.153 40.8844L148.677 40.8817L148.281 40.8808L147.161 40.8826L145.833 40.8902L144.407 40.9025L142.662 40.9212L140.702 40.9457V47.4483C140.702 50.1568 139.419 50.7555 136.509 50.8832L136.293 50.8917L136.071 50.8987L135.844 50.9043L135.61 50.9087L135.371 50.9119L135.126 50.9142L134.874 50.9156L134.354 50.9166V17.0317ZM147.428 23.0649L146.941 23.0638H146.485L145.958 23.0649L145.128 23.0688L144.401 23.0741L143.484 23.0828L142.52 23.0942L141.509 23.1082L140.631 23.1219V35.2481L145.733 35.2528L149.297 35.2507L150.308 35.2481C150.86 35.2556 151.41 35.1837 151.941 35.035C154.824 34.1275 156.571 31.2031 156.004 28.2337C155.78 25.443 153.517 23.2534 150.72 23.1219L150.491 23.1135L150.249 23.1057L149.821 23.0942L149.264 23.0828L148.866 23.0767L148.339 23.0707L147.779 23.0665L147.428 23.0649ZM173.621 17.0317L179.267 17.024H185.225L187.472 17.0286L188.315 17.0317C190.169 16.9882 192.018 17.2369 193.794 17.769C198.359 19.2507 201.497 23.4475 201.625 28.2457C201.756 30.4664 201.29 32.682 200.276 34.6621C198.534 38.021 195.219 40.2783 191.456 40.6687C190.451 40.8139 189.436 40.8863 188.42 40.8844L187.944 40.8817L187.548 40.8808L186.428 40.8826L185.1 40.8902L183.674 40.9025L181.929 40.9212L179.969 40.9457V47.4483C179.969 50.1568 178.686 50.7555 175.776 50.8832L175.56 50.8917L175.339 50.8987L175.111 50.9043L174.878 50.9087L174.638 50.9119L174.393 50.9142L174.142 50.9156L173.621 50.9166V17.0317ZM186.695 23.0649L186.208 23.0638H185.752L185.225 23.0649L184.396 23.0688L183.668 23.0741L182.751 23.0828L181.787 23.0942L180.776 23.1082L179.898 23.1219V35.2481L185 35.2528L188.564 35.2507L189.576 35.2481C190.127 35.2556 190.677 35.1837 191.208 35.035C194.092 34.1275 195.838 31.2031 195.271 28.2337C195.047 25.443 192.784 23.2534 189.987 23.1219L189.758 23.1135L189.516 23.1057L189.088 23.0942L188.531 23.0828L188.133 23.0767L187.606 23.0707L187.046 23.0665L186.695 23.0649ZM264.847 30.9116L273.956 17.0225H281.579L268.084 36.7612C268.062 37.337 268.062 37.9557 268.084 38.6173C268.11 40.3997 268.108 42.1708 268.1 43.9454L268.084 46.9938C268.084 49.1425 266.656 50.8448 264.561 50.8787L261.733 50.8792V36.7612L249.868 18.7854C249.794 18.6711 249.712 18.5619 249.647 18.4419L249.587 18.3302L249.495 18.1626L249.358 17.9203L249.222 17.684L249.033 17.3594L248.891 17.118L256.312 17.0225L264.847 30.9116ZM433.324 46.2081C433.324 49.1876 432.246 50.7471 429.064 50.778L427.084 50.7784L427.064 38.9422L427.056 31.7632L427.055 27.7282L427.057 24.5477L427.063 22.0664L427.067 21.2595L427.071 20.6661L427.075 20.3892L427.077 20.2864L427.079 20.2073L427.081 20.152C427.082 20.1375 427.083 20.1269 427.084 20.1203C427.084 18.2826 428.55 17.0474 430.588 17.0229L433.324 17.0225V46.2081ZM512 42.3287C511.883 42.8426 511.785 43.3614 511.648 43.8697C510.748 47.1901 508.481 49.2367 505.391 50.4854C502.213 51.7696 498.887 51.9285 495.522 51.6635C493.465 51.5014 491.461 51.08 489.576 50.2077C486.555 48.8103 484.54 46.4885 483.275 43.3489L488.533 40.6438C489.492 42.8837 491.105 44.3872 493.293 45.28C495.253 46.0799 497.296 46.3308 499.398 46.1285C500.787 45.9948 502.136 45.7107 503.352 44.99C505.037 43.9911 505.853 42.5285 505.663 40.5525C505.564 39.5331 505.078 38.7242 504.279 38.0969C503.089 37.1618 501.706 36.7371 500.276 36.4317L500.085 36.3916L499.894 36.3528L499.702 36.315L499.414 36.2596C499.051 36.1908 498.687 36.124 498.323 36.0581L497.595 35.9272L496.867 35.797C495.29 35.5142 493.714 35.2231 492.161 34.8399C490.247 34.3673 488.494 33.4649 487.122 31.9662C483.74 28.273 484.246 22.0477 488.195 18.9566C490.174 17.4077 492.475 16.6305 494.929 16.2728C498.247 15.7892 501.513 16.0175 504.684 17.1525C507.127 18.0272 509.095 19.5259 510.496 21.7287C510.565 21.8376 510.631 21.9485 510.698 22.0638L510.778 22.2044L511.032 22.6603L511.126 22.8267L506.185 25.3264C506.051 25.204 505.921 25.0805 505.794 24.9573L505.605 24.7728L505.327 24.4991C504.927 24.1077 504.533 23.7375 504.092 23.4358C501.034 21.3434 497.678 21.1448 494.227 22.1734C493.449 22.4054 492.678 22.941 492.107 23.5318C490.455 25.2394 490.832 27.7835 492.966 28.8037C493.951 29.275 495.037 29.5618 496.124 29.8083L496.408 29.8718L497.116 30.0261C498.043 30.2281 498.976 30.4016 499.911 30.5719L500.712 30.7177C501.913 30.9371 503.112 31.1631 504.297 31.4496C505.465 31.732 506.598 32.2832 507.653 32.8789C510.097 34.2591 511.475 36.4084 511.876 39.1837C511.885 39.2488 511.906 39.3122 511.929 39.3752L511.983 39.5168C511.989 39.5326 511.995 39.5483 512 39.5642V42.3287ZM470.867 25.609C467.644 22.6957 463.944 21.8874 459.854 22.669C457.263 23.1642 455.119 24.4395 453.508 26.5514C449.958 31.2067 450.416 38.5786 454.444 42.5695C457.908 46.0012 465.809 47.0475 471.023 42.2103L475.53 46.5455C475.484 46.5771 475.439 46.6069 475.395 46.6356L475.203 46.7585C475.081 46.8377 474.968 46.9144 474.868 47.0043C471.324 50.1805 467.115 51.5231 462.416 51.4838C460.073 51.4641 457.772 51.1558 455.554 50.3563C451.189 48.782 448.063 45.8724 446.337 41.5763C444.325 36.5697 444.285 31.4981 446.359 26.503C448.564 21.1944 452.605 17.9795 458.208 16.8015C464.187 15.5442 469.597 16.7123 474.242 20.7884L474.382 20.9128C474.406 20.9338 474.43 20.9546 474.454 20.975L474.525 21.0349L474.594 21.0921L474.661 21.1457L474.852 21.2966C474.859 21.3021 474.866 21.3074 474.872 21.3124L470.867 25.609Z" fill="black"/>
<path d="M23.5393 0C43.9615 0 60.517 16.5555 60.517 36.9777C60.517 49.6752 54.1171 60.878 44.3671 67.5362L38.9106 55.1438C44.064 50.7788 47.3354 44.2603 47.3354 36.9777C47.3354 23.8355 36.6815 13.1816 23.5393 13.1816C22.5156 13.1816 21.5071 13.2462 20.5176 13.3716L15.06 0.976757C17.7828 0.33792 20.6216 0 23.5393 0ZM8.61606 18.6115L27.1159 60.8397C26.0973 60.9716 25.0588 61.0396 24.0043 61.0396C10.7471 61.0396 0 50.2925 0 37.0353C0 29.6338 3.34981 23.0148 8.61606 18.6115Z" fill="black"/>
</g>
<defs>
<clipPath id="clip0_1_420">
<rect width="512" height="68" fill="white"/>
</clipPath>
</defs>
</svg>
