<svg width="256" height="256" viewBox="0 0 256 256" fill="none" xmlns="http://www.w3.org/2000/svg">
<g clip-path="url(#clip0_1_427)">
<path d="M56.0638 0H199.936C230.899 0 256 25.1006 256 56.0638V199.936C256 230.899 230.899 256 199.936 256H56.0638C25.1006 256 0 230.899 0 199.936V56.0638C0 25.1006 25.1006 0 56.0638 0Z" fill="url(#paint0_linear_1_427)"/>
<path d="M82.0417 185.81L82.0658 185.818L73.3131 200.978C70.1183 206.512 63.0418 208.408 57.5081 205.213C51.9745 202.018 50.0784 194.942 53.2732 189.408L59.7211 178.24L60.3398 177.168C61.4449 175.58 64.1721 172.839 69.627 173.354C69.627 173.354 82.4638 174.747 83.3926 181.419C83.3928 181.419 83.5195 183.615 82.0417 185.81ZM206.185 147.089H178.891C177.032 146.965 176.22 146.301 175.902 145.915L175.882 145.88L146.664 95.274L146.626 95.2993L144.874 92.7868C142.002 88.3954 137.442 99.6274 137.442 99.6274C131.997 112.143 138.215 126.373 140.383 130.673L180.964 200.962C184.158 206.496 191.235 208.392 196.769 205.197C202.302 202.003 204.198 194.926 201.004 189.392L190.856 171.816C190.659 171.39 190.317 170.234 192.398 170.229H206.185C212.575 170.229 217.755 165.049 217.755 158.659C217.755 152.269 212.575 147.089 206.185 147.089ZM153.171 162.818C153.171 162.818 154.628 170.229 148.991 170.229H143.354L48.0919 170.229C41.702 170.229 36.5219 165.049 36.5219 158.659C36.5219 152.269 41.702 147.089 48.0919 147.089H74.0319C78.2198 146.847 79.2127 144.429 79.2127 144.429L79.2355 144.441L113.096 85.7927L113.086 85.7906C113.703 84.6576 113.189 83.5872 113.1 83.4177L101.917 64.0495C98.7223 58.5157 100.618 51.4395 106.152 48.2447C111.686 45.0496 118.762 46.9457 121.957 52.4795L127.143 61.4625L132.32 52.4955C135.515 46.9617 142.591 45.0656 148.125 48.2607C153.659 51.4557 155.555 58.5319 152.36 64.0654L105.242 145.675C105.036 146.172 104.973 146.952 106.506 147.089H134.67L134.676 147.364C134.676 147.364 150.954 147.617 153.171 162.818Z" fill="white"/>
</g>
<defs>
<linearGradient id="paint0_linear_1_427" x1="12800" y1="0" x2="12800" y2="25600" gradientUnits="userSpaceOnUse">
<stop stop-color="#17C9FB"/>
<stop offset="1" stop-color="#1A74E8"/>
</linearGradient>
<clipPath id="clip0_1_427">
<rect width="256" height="256" fill="white"/>
</clipPath>
</defs>
</svg>
