<svg width="512" height="91" viewBox="0 0 512 91" fill="none" xmlns="http://www.w3.org/2000/svg">
<g clip-path="url(#clip0_1_440)">
<path d="M241.698 29.5712C251.626 29.5712 254.363 36.1095 254.363 36.1095H254.533C254.472 35.7487 254.444 35.3833 254.448 35.0174V33.4289C254.448 31.8263 255.625 30.5924 257.88 30.5924H260.717C261.661 30.4827 262.604 30.8099 263.278 31.4809C263.952 32.152 264.283 33.0937 264.177 34.0388V70.7298C264.177 85.409 252.604 90.9403 242.038 90.9403C237.768 90.9704 233.53 90.2007 229.543 88.6711C228.601 88.445 227.826 87.779 227.46 86.882C227.095 85.985 227.184 84.9668 227.699 84.1467L228.337 82.2604C229.302 80.1188 230.55 79.5373 232.819 80.289C235.572 81.3612 238.503 81.9002 241.457 81.8775C247.995 81.8775 253.526 79.1118 253.526 71.4815V68.3045C253.539 67.5737 253.595 66.8443 253.696 66.1204H253.526C251.172 70.1483 247.484 72.4884 241.783 72.4884C229.302 72.4884 222.423 62.5605 222.423 50.7745C222.423 38.9886 228.961 29.5712 241.698 29.5712ZM80.836 29.5712C92.4092 29.5712 99.8694 38.705 99.8694 51.9517C99.8694 65.3647 91.7009 74.106 80.6851 74.3279L80.2545 74.3322C75.27 74.5249 70.5652 72.029 67.9296 67.7939H67.7595C67.951 69.0141 68.0552 70.2464 68.0715 71.4815V86.5153C68.2161 87.4865 67.893 88.4689 67.2 89.1647C66.5071 89.8604 65.5259 90.1875 64.5541 90.0468H60.8808C59.913 90.1693 58.9431 89.8362 58.2546 89.145C57.5662 88.4538 57.2371 87.4826 57.3634 86.5153V34.0388C57.2534 33.0764 57.5884 32.1164 58.2734 31.4314C58.9583 30.7464 59.9184 30.4114 60.8808 30.5215H63.5613C65.8306 30.5215 67.0078 31.7696 67.0078 33.4573V35.4571C67.0076 36.016 66.9792 36.5746 66.9227 37.1307H67.0787C69.9334 32.2809 75.2117 29.3806 80.836 29.5712ZM131.455 29.5854C143.028 29.5854 150.488 38.7191 150.488 51.9659C150.488 65.3789 142.319 74.1201 131.304 74.3421L130.873 74.3464C125.889 74.5391 121.184 72.0432 118.548 67.8081H118.378C118.556 69.0291 118.641 70.2618 118.633 71.4956V86.5153C118.773 87.488 118.446 88.4696 117.751 89.1645C117.056 89.8594 116.074 90.1863 115.102 90.0468H111.428C110.461 90.1693 109.491 89.8362 108.802 89.145C108.114 88.4538 107.785 87.4826 107.911 86.5153V34.0388C107.801 33.0764 108.136 32.1164 108.821 31.4314C109.506 30.7464 110.466 30.4114 111.428 30.5215H114.109C116.378 30.5215 117.555 31.7696 117.555 33.4573V35.4571C117.555 36.016 117.527 36.5746 117.47 37.1307H117.711C120.565 32.2886 125.837 29.394 131.455 29.5854ZM177.024 12.792C182.475 12.7605 187.813 14.3394 192.37 17.3314C193.185 17.7878 193.769 18.568 193.977 19.4788C194.185 20.3896 193.998 21.3459 193.462 22.1111L191.958 24.8767C190.696 27.302 188.938 26.9616 187.179 26.0397C184.117 24.0048 180.543 22.8743 176.868 22.7776C171.322 22.7776 167.805 25.4582 167.805 29.4861C167.805 40.6338 195.561 37.7831 195.561 56.7313C195.561 66.3756 188.342 74.3322 175.861 74.3322C169.289 74.2694 162.9 72.1628 157.579 68.3045C156.766 67.8024 156.229 66.9537 156.124 66.0036C156.018 65.0535 156.357 64.1078 157.04 63.4398L158.884 60.7593C160.217 58.9155 161.721 58.8304 163.735 60.0076C167.22 62.6951 171.462 64.2184 175.861 64.3617C181.392 64.3617 184.739 61.5251 184.739 57.5681C184.739 46.2219 156.998 48.6046 156.998 30.0676C156.998 19.5865 165.706 12.792 177.024 12.792ZM341.445 29.5854C352.508 29.5854 359.131 35.7833 359.131 46.6048V69.8079C359.271 70.7769 358.946 71.755 358.253 72.4473C357.561 73.1395 356.583 73.4649 355.614 73.3252H352.777C351.819 73.4476 350.859 73.113 350.185 72.4218C349.51 71.7305 349.2 70.7627 349.345 69.8079V68.0776C349.332 67.4585 349.389 66.84 349.515 66.2338H349.345C346.637 71.1248 341.518 74.1926 335.928 74.2755C328.128 74.2755 321.745 69.2548 321.745 61.5109C321.675 49.1595 336.753 46.9664 346.333 46.9177L348.423 46.9168V45.9098C348.423 40.2367 344.821 38.3646 340.453 38.3646C337.339 38.4457 334.292 39.2829 331.574 40.804C329.559 41.689 328.001 41.4107 326.989 39.6178L326.029 37.7973C325.48 37.0135 325.321 36.0214 325.598 35.1057C325.875 34.1899 326.556 33.4516 327.447 33.1027C331.764 30.8249 336.565 29.6185 341.445 29.5854ZM378.578 14.7267C379.251 15.4161 379.569 16.3766 379.441 17.3314V59.1566C379.441 63.2825 381.095 64.061 382.644 64.2596L382.788 64.2766C383.541 64.3115 384.247 64.6554 384.738 65.2271C385.229 65.7989 385.463 66.5479 385.384 67.2975V70.1341C385.528 71.1125 385.208 72.102 384.518 72.8108C383.829 73.5197 382.848 73.8672 381.866 73.7507L381.376 73.7468C375.781 73.656 368.875 71.8976 368.875 60.0076V17.3314C368.742 16.3781 369.057 15.4169 369.728 14.7267C370.399 14.0365 371.351 13.6945 372.307 13.7999H375.995C376.952 13.6955 377.905 14.0373 378.578 14.7267ZM299.602 29.5112L300.046 29.5145C309.52 29.5145 314.966 34.4501 314.966 45.768V69.8079C315.106 70.7769 314.78 71.755 314.088 72.4473C313.396 73.1395 312.418 73.4649 311.449 73.3252H307.846C306.88 73.4527 305.909 73.1233 305.22 72.4341C304.531 71.7449 304.202 70.7742 304.329 69.8079V48.0089C304.329 42.818 302.911 39.2865 297.621 39.2865C290.075 39.2865 285.296 45.5836 285.296 53.2991V69.8079C285.436 70.7642 285.122 71.7312 284.445 72.4216C283.769 73.1121 282.808 73.4464 281.849 73.3252H278.162C277.204 73.4476 276.244 73.113 275.569 72.4218C274.895 71.7305 274.584 70.7627 274.729 69.8079V34.0388C274.602 33.0878 274.918 32.1308 275.589 31.444C276.259 30.7572 277.208 30.417 278.162 30.5215H281.438C282.393 30.4111 283.346 30.7495 284.017 31.4377C284.689 32.126 285.004 33.0865 284.87 34.0388V36.6343C284.86 37.2805 284.803 37.9251 284.7 38.5631H284.87C287.717 33.0271 293.402 29.5481 299.602 29.5112ZM213.433 31.4378C214.106 32.1252 214.425 33.085 214.296 34.0388V69.8079C214.437 70.7642 214.122 71.7312 213.446 72.4216C212.769 73.1121 211.809 73.4464 210.85 73.3252H207.162C206.204 73.4476 205.244 73.113 204.57 72.4218C203.895 71.7305 203.584 70.7627 203.73 69.8079V34.0388C203.602 33.0878 203.919 32.1308 204.589 31.444C205.26 30.7572 206.209 30.417 207.162 30.5215H210.85C211.806 30.4122 212.759 30.7503 213.433 31.4378ZM32.1322 16.6507L50.7401 69.3115C51.5768 71.7368 50.4848 73.3252 47.9035 73.3252H44.0316C42.1991 73.4761 40.5283 72.274 40.0888 70.4887L35.9048 58.1496H15.0277L10.9147 70.4036C10.5162 72.2266 8.83193 73.4747 6.97186 73.3252H3.12831C0.518675 73.3252 -0.573403 71.7368 0.29175 69.3115L18.8854 16.6507C19.3454 14.8792 21.0025 13.6871 22.8283 13.8141H28.1894C30.0218 13.6633 31.6927 14.8653 32.1322 16.6507ZM348.508 54.9727V53.3842H346.736C341.375 53.3842 332.241 54.221 332.241 60.5891C332.241 63.4398 334.425 66.2055 338.694 66.2055C344.651 66.2055 348.508 60.1636 348.508 54.9727ZM129.043 38.705C123.498 38.705 118.222 42.7329 118.222 52.207C118.222 58.8304 121.966 65.3687 128.873 65.3687C134.731 65.3687 139.595 60.5891 139.595 52.1219C139.595 43.981 135.241 38.705 129.043 38.705ZM78.4817 38.705C72.9504 38.705 67.6744 42.7329 67.6744 52.207C67.6744 58.8304 71.3619 65.3687 78.3257 65.3687C84.1832 65.3687 89.0479 60.5891 89.0479 52.1219C89.0479 43.981 84.6937 38.705 78.4817 38.705ZM243.385 38.6482C236.762 38.6482 233.145 43.3427 233.145 50.3916C233.145 58.1071 237.003 63.5533 243.882 63.5533C248.917 63.5249 253.781 60.5891 253.781 51.0582C253.781 41.2437 248.917 38.6482 243.385 38.6482ZM25.5939 24.1108H25.4237L24.6242 27.4668C24.1614 29.3549 23.5729 31.6632 23.0694 33.3438L17.7083 49.2712H33.2243L27.9341 33.3438L27.6795 32.4561C26.7261 29.0447 25.5939 24.1108 25.5939 24.1108ZM213.464 14.7142C214.149 15.4025 214.482 16.3667 214.367 17.3314V19.856C214.478 20.8113 214.139 21.7638 213.451 22.4354C212.763 23.107 211.802 23.4219 210.85 23.2882H207.162C206.219 23.4165 205.269 23.0964 204.596 22.4229C203.922 21.7494 203.602 20.7998 203.73 19.856V17.3314C203.598 16.3781 203.912 15.4169 204.583 14.7267C205.254 14.0365 206.206 13.6945 207.162 13.7999H210.85C211.815 13.689 212.778 14.0258 213.464 14.7142Z" fill="#21375A"/>
<path d="M498.506 17.7853C490.791 17.7853 485.273 24.5788 479.586 32.1525C476.055 16.0691 472.14 0 459.659 0C447.178 0 443.25 16.0691 439.661 32.1666C433.988 24.5788 428.471 17.7853 420.756 17.7853C415.848 17.7853 407.537 21.1182 407.537 33.6275V56.32C407.537 68.5881 414.09 71.5949 418.018 72.6302C424.798 74.3889 441.122 76.0341 459.503 76.0341C477.884 76.0341 494.209 74.3889 500.988 72.6302C504.917 71.5949 511.483 68.5881 511.483 56.32V33.6275C511.483 21.1182 503.172 17.7853 498.265 17.7853M459.659 7.09141C467.134 7.09141 469.984 21.8416 473.956 39.5417C469.601 44.9028 464.978 49.2286 459.659 49.2286C454.341 49.2286 449.731 44.9028 445.363 39.5417C449.079 22.9904 451.944 7.09141 459.659 7.09141ZM414.742 56.3909V33.6984C414.742 25.7986 418.997 24.9476 420.869 24.9476C426.315 24.9476 432.215 34.0246 437.733 41.3146C433.79 57.8517 429.62 67.9216 419.777 65.8509C417.21 65.1559 414.799 63.5249 414.799 56.4618M434.116 67.9641C438.47 63.227 441.207 55.8378 443.377 48.0089C447.93 52.7885 453.192 56.3909 459.716 56.3909C466.24 56.3909 471.488 52.7885 476.055 48.0089C478.168 55.8378 480.948 63.227 485.302 67.9641C477.686 68.6591 468.523 69.0845 459.773 69.0845C451.022 69.0845 441.789 68.6591 434.173 67.9641M504.69 56.4618C504.69 63.5532 502.279 65.1559 499.712 65.8509C489.854 67.9357 485.699 57.8517 481.756 41.3146C487.33 34.0246 493.102 24.9476 498.619 24.9476C500.463 24.9476 504.746 25.7986 504.746 33.6984L504.69 56.4618Z" fill="#21375A"/>
</g>
<defs>
<clipPath id="clip0_1_440">
<rect width="512" height="91" fill="white"/>
</clipPath>
</defs>
</svg>
