<svg width="512" height="90" viewBox="0 0 512 90" fill="none" xmlns="http://www.w3.org/2000/svg">
<g clip-path="url(#clip0_1_444)">
<path d="M117.714 68.1527L113.402 53.3299H90.7631L86.1815 68.1527H71.8977L93.9971 5.62744H110.167L132.267 68.1527H117.714ZM110.167 42.2802C105.855 28.8049 103.699 21.2588 103.16 19.3722C102.621 17.4857 102.352 16.1382 102.082 15.0601C101.274 18.8332 98.5787 27.7269 93.9971 42.0107H110.167V42.2802Z" fill="#3D3D3D"/>
<path d="M160.834 69.2306C155.175 69.2306 150.863 67.0745 147.629 63.032H146.82C147.359 67.0745 147.629 69.2306 147.629 70.0391V89.4435H134.692V20.4501H145.203L147.09 26.6487H147.629C150.593 21.7976 155.175 19.6416 161.104 19.6416C166.764 19.6416 171.076 21.7976 174.31 26.1097C177.544 30.4218 179.161 36.6204 179.161 44.1666C179.161 49.2872 178.352 53.5993 177.005 57.3724C175.388 61.1454 173.501 64.11 170.537 65.9965C167.572 68.1526 164.338 69.2306 160.834 69.2306ZM156.792 30.1523C153.558 30.1523 151.132 31.2303 149.785 33.1169C148.437 35.0034 147.629 38.2375 147.359 42.8191V44.1666C147.359 49.2872 148.168 53.0603 149.515 55.2163C151.132 57.3724 153.558 58.4504 156.792 58.4504C162.721 58.4504 165.416 53.5993 165.416 44.1666C165.416 39.585 164.607 36.0814 163.26 33.6559C162.182 31.2303 160.026 30.1523 156.792 30.1523Z" fill="#3D3D3D"/>
<path d="M211.501 69.2306C205.842 69.2306 201.53 67.0745 198.296 63.032H197.487C198.026 67.0745 198.296 69.2306 198.296 70.0391V89.4435H185.359V20.4501H195.87L197.757 26.6487H198.296C201.26 21.7976 205.842 19.6416 211.771 19.6416C217.431 19.6416 221.743 21.7976 224.977 26.1097C228.211 30.4218 229.828 36.6204 229.828 44.1666C229.828 49.2872 229.019 53.5993 227.672 57.3724C226.055 61.1454 224.168 64.11 221.204 65.9965C218.509 68.1526 215.274 69.2306 211.501 69.2306ZM207.728 30.1523C204.494 30.1523 202.069 31.2303 200.721 33.1169C199.374 35.0034 198.565 38.2375 198.296 42.8191V44.1666C198.296 49.2872 199.104 53.0603 200.452 55.2163C202.069 57.3724 204.494 58.4504 207.728 58.4504C213.657 58.4504 216.352 53.5993 216.352 44.1666C216.352 39.585 215.544 36.0814 214.196 33.6559C213.118 31.2303 210.962 30.1523 207.728 30.1523Z" fill="#3D3D3D"/>
<path d="M256.509 58.72C258.665 58.72 261.629 58.181 264.594 57.1029V66.8051C261.36 68.1527 257.317 68.9612 252.736 68.9612C247.615 68.9612 243.842 67.6137 241.417 64.9186C238.991 62.2235 237.913 58.4505 237.913 53.0604V30.1524H231.714V24.7623L238.991 20.4502L242.764 10.4785H250.849V20.7197H264.324V30.4219H250.849V53.3299C250.849 55.2164 251.388 56.5639 252.466 57.3724C253.275 58.181 254.622 58.72 256.509 58.72Z" fill="#3D3D3D"/>
<path d="M291.545 69.2306C283.998 69.2306 277.8 67.0745 273.488 62.7625C269.176 58.4504 267.02 52.5213 267.02 44.7056C267.02 36.6204 268.906 30.4218 272.949 26.1097C276.991 21.7976 282.381 19.6416 289.388 19.6416C296.126 19.6416 301.247 21.5281 305.02 25.3012C308.793 29.0743 310.679 34.4644 310.679 41.202V47.4007H279.956C280.225 51.1737 281.303 53.8688 283.19 56.0248C285.346 58.1809 288.041 59.2589 291.814 59.2589C294.779 59.2589 297.474 58.9894 299.899 58.4504C302.325 57.9114 305.02 56.8333 307.984 55.4858V65.4575C305.828 66.5355 303.403 67.3441 300.708 67.8831C298.282 68.6916 295.048 69.2306 291.545 69.2306ZM289.658 28.8048C286.963 28.8048 284.807 29.6133 283.19 31.4998C281.573 33.1169 280.764 35.8119 280.495 39.046H298.821C298.821 35.8119 298.013 33.3864 296.396 31.4998C294.509 29.8828 292.353 28.8048 289.658 28.8048Z" fill="#3D3D3D"/>
<path d="M361.077 68.1526H348.141V40.3935C348.141 36.8899 347.602 34.4644 346.254 32.5779C344.907 30.9608 343.02 29.8828 340.325 29.8828C336.552 29.8828 334.126 31.2303 332.509 33.6559C330.892 36.0814 330.084 40.124 330.084 45.7836V68.1526H317.147V20.4501H327.119L328.736 26.6487H329.545C330.892 24.2232 333.048 22.6062 335.474 21.5281C337.899 20.4501 340.864 19.6416 344.098 19.6416C349.758 19.6416 353.8 21.2586 356.765 24.2232C359.729 27.1878 361.077 31.4998 361.077 37.1595V68.1526Z" fill="#3D3D3D"/>
<path d="M390.184 58.72C392.34 58.72 395.304 58.181 398.269 57.1029V66.8051C395.035 68.1527 390.992 68.9612 386.411 68.9612C381.29 68.9612 377.517 67.6137 375.091 64.9186C372.666 62.2235 371.588 58.4505 371.588 53.0604V30.1524H365.389V24.7623L372.666 20.4502L376.439 10.4785H384.794V20.7197H398.269V30.4219H384.794V53.3299C384.794 55.2164 385.333 56.5639 386.411 57.3724C387.219 58.181 388.567 58.72 390.184 58.72Z" fill="#3D3D3D"/>
<path d="M403.12 8.32238C403.12 4.01029 405.545 1.85425 410.127 1.85425C414.978 1.85425 417.134 4.01029 417.134 8.32238C417.134 10.2089 416.595 11.8259 415.248 12.904C414.17 13.982 412.283 14.521 409.858 14.521C405.545 14.521 403.12 12.6345 403.12 8.32238ZM416.595 68.1526H403.659V20.4501H416.595V68.1526Z" fill="#3D3D3D"/>
<path d="M437.347 68.1526L419.29 20.4502H432.765L441.928 47.6702C443.007 51.1738 443.546 54.4079 443.815 57.3724H444.085C444.354 54.6774 444.893 51.4433 445.971 47.6702L455.134 20.4502H468.61L450.553 68.1526H437.347Z" fill="#3D3D3D"/>
<path d="M492.865 69.2306C485.319 69.2306 479.12 67.0745 474.808 62.7625C470.496 58.4504 468.34 52.5213 468.34 44.7056C468.34 36.6204 470.227 30.4218 474.269 26.1097C478.312 21.7976 483.702 19.6416 490.709 19.6416C497.447 19.6416 502.567 21.5281 506.34 25.3012C510.113 29.0743 512 34.4644 512 41.202V47.4007H481.276C481.546 51.1737 482.624 53.8688 484.51 56.0248C486.666 58.1809 489.362 59.2589 493.135 59.2589C496.099 59.2589 498.794 58.9894 501.22 58.4504C503.645 57.9114 506.34 56.8333 509.305 55.4858V65.4575C507.149 66.5355 504.723 67.3441 502.028 67.8831C499.603 68.6916 496.638 69.2306 492.865 69.2306ZM490.979 28.8048C488.283 28.8048 486.127 29.6133 484.51 31.4998C482.893 33.1169 482.085 35.8119 481.815 39.046H500.142C500.142 35.8119 499.333 33.3864 497.716 31.4998C495.83 29.8828 493.674 28.8048 490.979 28.8048Z" fill="#3D3D3D"/>
<path d="M61.9261 14.5211C63.8126 18.8332 64.0821 23.1453 63.0041 27.1878L48.4508 67.6136L9.91152 53.3299C6.13844 51.7128 3.44339 48.7483 1.55685 44.7057C-0.329687 40.3936 -0.599193 35.812 1.28735 30.6914C3.17388 25.8403 6.13844 22.3367 10.4505 20.1807C14.4931 18.0247 18.8052 17.4856 23.1173 18.5637C36.8621 22.3367 42.5217 29.3439 39.5571 39.0461C34.9755 32.5779 29.5854 28.8049 23.3868 27.4573C17.7272 25.8403 13.6846 27.7269 11.5285 33.656C9.64201 39.3156 10.72 43.3582 15.0321 45.2447L42.5217 55.4859L53.5714 24.7623C54.3799 22.0672 53.8409 19.6417 52.4934 16.9466C50.8763 13.9821 48.4508 12.0955 45.4862 11.0175C41.9827 9.66999 38.7486 9.66999 35.784 11.0175C33.089 12.0955 31.4719 13.7126 30.9329 15.5991L21.5002 12.365C23.3868 7.51395 27.1599 4.01038 32.55 1.85434C37.6706 -0.571212 43.0607 -0.571212 48.7203 1.58483C53.8409 3.47137 57.8835 7.24444 61.1175 12.9041C61.1175 13.1736 61.6565 13.7126 61.9261 14.5211Z" fill="#EF4650"/>
</g>
<defs>
<clipPath id="clip0_1_444">
<rect width="512" height="90" fill="white"/>
</clipPath>
</defs>
</svg>
