<svg width="256" height="171" viewBox="0 0 256 171" fill="none" xmlns="http://www.w3.org/2000/svg">
<g clip-path="url(#clip0_1_461)">
<path d="M128.019 11.4976C140.58 4.20944 155.174 0.0362226 170.743 0.0362226C217.83 0.0362226 256 38.2065 256 85.2934C256 132.38 217.83 170.551 170.743 170.551C155.18 170.551 140.591 166.381 128.033 159.098C99.2684 175.733 62.1434 174.623 33.9509 153.348C9.61305 135.009 -3.08589 105.075 0.641534 74.8296C4.36896 44.5846 23.9559 18.6289 52.0181 6.74763C76.8681 -3.77361 105.018 -1.84122 128.019 11.4976ZM29.8152 43.419C6.68863 74.0657 12.7848 117.657 43.4315 140.784C74.0781 163.911 117.67 157.814 140.797 127.168C156.288 106.639 158.667 80.3006 149.337 58.1964C142.484 42.0629 129.71 29.0521 113.741 21.8909L113.777 21.8571C84.8408 8.83821 49.7358 17.0209 29.8152 43.419ZM91.3552 55.4469C93.9641 55.4469 94.8193 55.5964 94.6684 56.0476C94.5947 56.218 94.3797 57.0132 94.0921 58.1648L93.981 58.6128C93.6953 59.7721 93.3534 61.2153 93.0118 62.7213C92.4587 65.151 91.2595 70.2251 90.0256 75.4308L89.801 76.3782C89.4265 77.9577 89.0522 79.5353 88.6952 81.0411C87.0897 87.8157 85.0816 96.449 84.1765 100.212L82.6222 107.14H79.1582C77.2523 107.14 75.6954 106.937 75.6954 106.688C75.6954 105.784 77.2012 98.9582 79.713 88.5699C81.0155 82.8984 83.324 73.3128 84.7812 67.2399C85.5639 63.8531 86.3156 60.7628 86.8452 58.648L86.9515 58.2246C87.3122 56.793 87.5494 55.8975 87.5908 55.7958C87.6891 55.5964 89.3969 55.4469 91.3552 55.4469ZM69.4729 72.5088C71.7814 72.5088 73.6886 72.6596 73.6886 72.8603C73.6886 73.1108 71.8811 75.2213 69.6736 77.6793C67.4648 80.0888 65.6574 82.3462 65.6574 82.6977C65.6574 82.9981 67.6143 85.4089 69.9753 87.9154L74.2906 92.5836H65.1563L61.9441 89.172C60.1878 87.3147 58.1272 85.0547 57.3769 84.1523L56.0207 82.5468L60.6377 77.5272L65.3072 72.5088H69.4729ZM104.556 72.5088L109.07 77.3789C111.581 80.0377 113.588 82.3973 113.588 82.6465C113.588 82.9469 111.682 85.2593 109.321 87.8669L105.057 92.5337L100.389 92.5836H95.723L99.8875 88.0164C102.195 85.5571 104.103 83.2001 104.203 82.8472C104.354 82.1966 101.594 78.8821 97.676 74.9681C96.6241 73.9136 95.7702 72.9613 95.7702 72.8092C95.7702 72.6596 97.7272 72.5088 100.187 72.5088H104.556Z" fill="#F02E65"/>
</g>
<defs>
<clipPath id="clip0_1_461">
<rect width="256" height="171" fill="white"/>
</clipPath>
</defs>
</svg>
