<svg width="512" height="83" viewBox="0 0 512 83" fill="none" xmlns="http://www.w3.org/2000/svg">
<g clip-path="url(#clip0_1_478)">
<path d="M479.734 39.4379H491.496C494.514 39.4379 496.722 40.2065 498.123 41.7426C499.525 43.2517 500.226 45.4481 500.226 48.3305C500.226 50.9984 499.403 53.0182 497.76 54.3921C496.116 55.7393 493.733 56.414 490.606 56.414L479.731 56.414V39.4379H479.734ZM479.734 15.7117H487.818C491.214 15.7117 493.76 16.3582 495.458 17.6517C497.183 18.9451 498.045 20.9502 498.045 23.6735C498.045 26.1526 497.194 28.0399 495.497 29.3312C493.799 30.6246 491.375 31.2711 488.22 31.2711H479.732V15.7117H479.734ZM425.176 15.7117H432.979C437.211 15.7117 440.525 17.1388 442.923 19.9955C445.322 22.8519 446.519 26.5559 446.519 31.1089V40.9342C446.519 45.5423 445.321 49.2723 442.923 52.1302C440.525 54.9866 437.211 56.414 432.979 56.414H425.176V15.7178V15.7117ZM461.68 6.61778V13.732L467.944 14.9431V57.1692L461.68 58.3834V65.4578L490.621 65.4578C497.438 65.4578 502.707 64.0166 506.425 61.1342C510.143 58.2239 512 53.9527 512 48.3195C512 45.0576 511.112 42.1875 509.333 39.709C507.582 37.2302 504.942 35.6118 501.411 34.8591C504.16 33.7811 506.249 32.1784 507.675 30.049C509.13 27.893 509.858 25.4531 509.858 22.7329C509.858 17.3689 507.919 13.3421 504.038 10.6464C500.159 7.95158 494.755 6.60432 487.83 6.60432H467.944H461.68V6.61778ZM407.123 6.61778V13.732L413.387 14.9431V57.1692L407.123 58.3834V65.4578H433.597C440.791 65.4578 446.721 63.18 451.381 58.6251C456.044 54.0445 458.373 48.145 458.373 40.9238V31.1812C458.373 23.9874 456.041 18.0972 451.381 13.5166C446.718 8.90839 440.791 6.60432 433.597 6.60432H413.387H407.123V6.61778Z" fill="#577138"/>
<path d="M233.415 46.1696H239.436V53.3909C238.628 54.5497 237.496 55.5197 236.04 56.3012C234.585 57.0557 232.968 57.433 231.19 57.433C229.492 57.433 228.159 57.0135 227.188 56.1785C226.244 55.3428 225.771 54.1853 225.771 52.7024C225.771 51.0587 226.418 49.1071 227.711 47.9474C229.005 46.7617 230.906 46.169 233.412 46.169M332.092 29.9487C333.844 29.9487 335.339 30.3122 336.578 31.0395C337.844 31.7669 338.854 32.791 339.609 34.1116V53.1073C338.854 54.3741 337.844 55.3437 336.578 56.0175C335.339 56.6644 333.815 56.9875 332.01 56.9875C329.1 56.9875 326.998 55.8982 325.703 53.7165C324.41 51.5067 323.764 48.4872 323.764 44.6623V43.8129C323.764 39.6913 324.424 36.3469 325.744 33.7888C327.092 31.2289 329.208 29.9487 332.091 29.9487M380.467 29.8667C383.539 29.8667 385.788 31.0922 387.217 33.5446C388.646 35.9962 389.36 39.1656 389.36 43.0455V43.8925C389.36 47.855 388.645 51.0465 387.217 53.4729C385.816 55.8982 383.591 57.1111 380.547 57.1111C377.419 57.1111 375.158 55.9116 373.757 53.5127C372.356 51.0875 371.654 47.8795 371.654 43.8925V43.0455C371.654 39.1656 372.356 35.9956 373.757 33.5446C375.158 31.0918 377.395 29.8667 380.467 29.8667ZM380.467 20.7728C374.026 20.7728 368.974 22.8623 365.309 27.0394C361.67 31.1885 359.853 36.5249 359.853 43.0455V43.8925C359.853 50.4681 361.672 55.8321 365.309 59.9813C368.974 64.106 374.054 66.1652 380.547 66.1652C386.96 66.1652 391.987 64.1035 395.623 59.9813C399.288 55.8321 401.118 50.4681 401.118 43.8925V43.0455C401.118 36.4974 399.286 31.1488 395.623 26.9996C391.984 22.8504 386.933 20.7728 380.464 20.7728M288.056 20.7728C285.415 20.7728 283.029 21.3936 280.902 22.6332C278.773 23.8724 276.982 25.611 275.529 27.8472L275.003 21.5806L257.745 21.5806V28.6947L264.009 29.9086V57.0282L258.351 58.242V65.3164L280.581 65.3164V58.242L275.814 57.0282V33.5835C276.649 32.4247 277.687 31.5368 278.926 30.9171C280.165 30.27 281.566 29.9465 283.13 29.9465C285.528 29.9465 287.319 30.5656 288.503 31.8051C289.689 33.0177 290.282 35.0945 290.282 38.0319V57.0276L285.23 58.2414V65.3158H307.784V58.2414L302.126 57.0276V37.9921C302.126 32.0652 300.887 27.711 298.409 24.9357C295.93 22.1601 292.482 20.7712 288.06 20.7712M233.013 20.7712C230.155 20.7712 227.49 21.1705 224.999 21.9242C223.818 22.2357 222.579 22.6374 221.37 23.1726C216.732 25.227 215.101 26.9546 215.101 26.9546L220.691 34.3472C220.691 34.3472 222.473 32.4229 227.53 30.2654C229.01 29.6396 230.841 29.3878 232.239 29.3814C234.61 29.3814 236.403 29.9603 237.615 31.1191C238.828 32.2775 239.435 33.9081 239.435 36.0087V39.7418H233.413C227.054 39.7418 222.232 41.4119 218.943 43.6492C215.656 45.8863 214.01 49.0529 214.01 53.147C214.01 57.1616 215.264 60.3408 217.771 62.6847C220.304 65.0025 223.713 66.1607 227.997 66.1607C230.584 66.1607 232.874 65.6613 234.866 64.6647C236.887 63.6678 238.596 62.36 239.998 60.7419C240.132 61.5234 240.322 62.3061 240.565 63.0876C240.807 63.8422 241.091 64.5827 241.414 65.3103H255.033V58.2359L251.438 57.7512C251.357 57.2124 251.303 56.6454 251.277 56.0521V54.1525V36.084C251.277 31.1791 249.578 27.4062 246.182 24.7656C242.813 22.0974 238.422 20.7633 233.006 20.7633M207.095 20.763C204.966 20.763 203.093 21.3979 201.477 22.6641C199.86 23.9305 198.539 25.6949 197.515 27.9576L196.988 21.5717H179.731V28.6859L185.994 29.8997V57.0193L180.337 58.2332V65.3076L203.457 65.3076V58.2332L197.799 57.0193V35.7594C198.392 34.5198 199.255 33.5618 200.386 32.888C201.518 32.2145 202.947 31.8788 204.673 31.8788L209.523 32.0003L210.775 21.248C210.317 21.1133 209.738 21.0053 209.038 20.9242C208.364 20.8165 207.718 20.763 207.098 20.763M341.303 20.6161L340.32 27.0693C339 25.0486 337.409 23.4985 335.55 22.4214C333.691 21.3168 331.535 20.7642 329.084 20.7642C323.668 20.7642 319.452 22.8798 316.435 27.1104C313.444 31.3421 311.946 36.905 311.946 43.805V44.6544C311.946 51.0954 313.443 56.2941 316.435 60.2566C319.453 64.1916 323.644 66.1591 329.005 66.1591C331.268 66.1591 333.276 65.728 335.027 64.8657C336.778 64.0031 338.301 62.7501 339.592 61.1051V63.9741C339.592 67.1013 338.88 69.54 337.451 71.2902C336.023 73.0417 333.868 73.9186 330.983 73.9186C328.881 73.9186 326.886 73.6751 325.001 73.1895C323.115 72.7317 321.228 72.0989 319.343 71.2905L317.16 79.5766C319.262 80.6274 321.554 81.4477 324.032 82.0407C326.511 82.6604 328.855 82.9722 331.064 82.9722C337.395 82.9722 342.37 81.2476 345.981 77.7979C349.619 74.377 351.436 69.7811 351.436 64.0132V56.4584L351.445 56.4866V28.9447L357.712 27.7309V20.6161H341.305H341.303ZM147.032 19.9949H147.276L152.671 36.867L141.634 36.867L147.034 19.9949H147.032ZM141.173 6.45504L123.266 57.616L119.062 58.2237V65.2981H139.11V58.2237L135.029 57.4951L138.85 45.5494L155.38 45.5494L159.281 57.4951L155.199 58.2237V65.2981H175.247V58.2237L171.043 57.616L153.259 6.45504H141.173Z" fill="#A3B34F"/>
<path d="M101.954 35.9009C100.994 32.7148 100.515 31.1214 99.8202 29.427C98.4806 26.1498 96.7764 23.4854 94.2229 20.1836C88.247 12.4691 85.26 8.60482 80.3859 5.52602C69.8099 -1.16038 58.68 0.0227494 57.4106 0.176339C53.6122 0.63367 45.2567 2.30064 38.0962 9.20935C34.0398 13.1283 31.4905 18.7473 30.2975 21.6157C28.9783 44.4788 51.4073 53.638 56.6882 57.4673C58.3847 58.2752 62.2876 59.9934 65.4547 61.6289C72.7695 65.4041 77.8401 66.1854 80.456 66.6426C86.1563 67.642 95.0224 65.3852 99.2304 60.6681C103.262 56.1481 104.436 50.0501 103.475 44.6148C103.183 42.9436 103.178 39.9721 101.95 35.8904L101.954 35.9009Z" fill="#577138"/>
<path d="M98.7283 33.4464C97.2008 29.371 95.4104 26.6667 93.2846 23.4596C90.6827 19.5315 88.3572 16.8538 86.4895 14.7211C82.5067 10.1738 80.5136 7.90008 77.8072 6.24917C73.1357 3.3983 68.6199 2.88353 66.0531 2.61562C59.995 1.98766 55.3649 3.27199 53.1137 3.91797C50.7979 4.58507 46.2092 5.95251 41.4156 9.71509C37.0745 13.1242 34.4038 18.2572 32.9507 21.0204C31.6168 23.5115 39.8229 43.5047 58.7803 55.322C59.7503 55.8235 62.4511 57.0564 64.1188 57.9001C64.6616 58.1749 65.1603 58.4209 65.6266 58.647C66.3799 58.9919 67.0819 59.322 67.7432 59.6379C69.8724 60.5994 71.1909 61.0883 72.9358 62.0014C78.9812 65.1622 85.3632 64.261 86.31 64.1138C87.5647 63.9208 96.2898 62.5709 99.9016 55.6278C101.807 51.9662 101.475 48.32 101.022 43.3266C100.894 41.9106 100.462 38.08 98.7213 33.438" fill="#A3B34F"/>
<path d="M69.4564 57.9224C75.8104 60.3546 77.9003 61.6254 80.6214 61.9571C81.5156 62.0641 90.0472 62.6005 95.0476 57.8761C98.7709 54.3611 98.9498 50.8068 99.1644 49.1307C99.9064 43.3602 98.2653 35.9598 96.3486 32.327C93.8322 27.5545 93.1821 26.5516 86.4319 17.6063C81.4329 10.99 78.9278 9.7655 76.3188 8.04727C71.8346 5.11504 66.6476 5.04842 63.127 4.90324C60.537 4.79762 55.686 5.74693 51.0362 7.3768C43.7705 9.93171 39.5275 14.2126 36.5469 20.2741C33.2381 27.2642 49.9702 50.0452 61.6051 54.702" fill="#DDE072"/>
<path d="M71.6306 44.2468C75.6821 43.5384 78.3794 39.381 79.2048 36.0133C80.3634 31.2499 77.967 27.2748 76.3701 24.6238C74.8629 22.1292 72.2127 18.6387 67.4142 16.6919C62.9966 14.8965 59.5664 17.0744 57.9674 17.9648C50.9191 28.3864 56.3789 38.9623 66.748 44.2433C68.0566 44.3726 70.601 44.4264 71.6285 44.2475" fill="#A3B34F"/>
<path d="M59.8974 54.0651C61.676 51.9415 65.0949 47.5386 66.4779 44.8006C66.5681 44.6224 66.6582 44.4331 66.7484 44.237C68.2401 40.9955 69.7199 35.3863 69.8609 30.968C69.9874 27.0111 68.6343 24.337 68.6343 24.337C67.2541 20.7385 63.2846 19.5063 61.5439 18.84C60.1146 18.3225 58.834 18.0581 57.5345 17.9094C54.9754 17.6798 51.426 17.9536 45.2894 18.8541C39.2104 19.7055 33.1425 20.8662 27.553 22.212C20.7761 23.8636 17.0402 24.7732 12.7341 26.8568C7.76102 29.2624 3.06287 31.5347 1.02904 36.5281C-0.215107 39.5865 -0.107103 42.666 0.202881 44.7125C0.202881 44.7125 1.54451 58.1007 10.7578 64.9246C18.4723 70.6459 29.8477 72.7583 38.3267 70.4411C45.0138 69.1697 51.3923 62.9019 56.6943 57.4176C57.7771 56.3207 59.0823 55.0331 59.8993 54.0604L59.8974 54.0651Z" fill="#577138"/>
<path d="M51.5026 51.8208C45.2686 55.481 36.1227 60.4471 24.6771 60.3208C24.3085 60.3166 23.9372 60.3075 23.5634 60.2924C19.7251 60.1376 9.52996 59.7269 4.28408 52.9075C2.83725 51.0238 1.98234 48.9415 1.51877 47.5263L1.50622 47.4954C1.22569 46.6328 1.12287 46.1254 1.11965 46.1071C1.04026 45.7393 0.974896 45.3799 0.91886 45.0075L0.911707 44.9823C0.911005 44.9781 0.910304 44.9744 0.909603 44.9704L0.9082 44.9645C0.613645 43.0085 0.512655 40.0756 1.69158 37.1798C3.62161 32.4452 7.98804 30.3328 13.046 27.8873C17.284 25.8373 20.9919 24.934 27.7176 23.2943C28.5795 23.0856 29.4085 22.8877 30.208 22.7041C31.112 22.4993 31.9802 22.3053 32.8134 22.129C34.4461 21.783 36.0065 21.4769 37.5859 21.1934L37.5938 21.1885C40.4916 20.6726 43.0339 20.2936 45.3925 19.9493C51.4708 19.0579 54.9725 18.7844 57.4692 19.0095C58.8389 19.1302 59.9799 19.3953 61.2851 19.8952C63.0679 20.5778 66.3858 21.8484 67.989 25.0429C68.4715 26.0059 68.757 27.0726 68.839 28.2185C68.8487 28.3295 68.8552 28.4441 68.8585 28.5584C68.9565 31.4373 67.77 34.2671 67.1325 35.789C63.5509 44.3171 56.8932 48.6512 51.5001 51.8212" fill="#A3B34F"/>
<path d="M47.5752 52.2418C53.5105 49.1868 58.3265 45.6802 60.8091 42.9493C64.9329 38.411 66.614 33.797 66.978 30.045C67.3861 25.8405 64.7421 24.2689 63.8452 23.5044C60.5069 20.655 55.9693 20.7006 51.8456 20.6855C49.9716 20.6795 47.2828 20.8227 39.0394 22.6187C32.4835 24.1132 31.1425 24.4379 23.2176 26.6036C17.9346 28.0743 14.9561 29.0645 12.5225 30.5927C9.12036 32.7289 4.88509 35.3883 3.81207 40.5164C2.47885 46.8788 7.18472 52.1794 8.14132 53.1822C12.7469 57.987 19.096 58.5635 23.4722 58.5788C25.1911 58.5845 26.8189 58.4938 28.2538 58.414C37.1466 57.9226 43.2691 54.4544 47.5752 52.2452" fill="#DDE072"/>
<path d="M24.5298 26.6435C23.8491 27.1583 22.7394 28.2495 22.1699 28.833L20.5863 30.6039C17.7789 34.1301 15.7759 40.9273 17.2964 42.7578C18.0763 43.6982 18.4859 43.8006 18.765 43.9879C22.6629 45.873 26.22 48.4609 32.034 48.8011L36.8696 48.7955C37.2611 48.7793 37.836 48.7559 38.2491 48.725C39.327 48.628 38.8566 48.6191 39.6005 48.5397C46.2897 47.4414 55.1979 42.7089 54.8543 36.0842C54.7228 33.6086 51.8954 29.5535 49.9759 27.7245C47.935 25.7776 44.1205 23.8868 43.1212 23.5299C42.6534 23.3855 42.0944 23.1947 41.1617 23.0309C40.6698 22.9432 40.1854 22.866 39.7036 22.8103C39.4741 22.7809 39.2441 22.7586 39.0142 22.7363C38.7822 22.7147 38.553 22.7022 38.3234 22.6879C33.4668 22.3857 29.1081 23.6515 25.7487 25.7919C25.47 25.9698 25.1955 26.1515 24.931 26.3412C24.7941 26.4414 24.6608 26.5377 24.5276 26.6415" fill="#5E3108"/>
</g>
<defs>
<clipPath id="clip0_1_478">
<rect width="512" height="83" fill="white"/>
</clipPath>
</defs>
</svg>
