<svg width="256" height="177" viewBox="0 0 256 177" fill="none" xmlns="http://www.w3.org/2000/svg">
<g clip-path="url(#clip0_1_468)">
<path d="M251.466 88.549C249.1 80.6905 247.919 76.7604 246.204 72.5812C242.901 64.4979 238.697 57.9264 232.399 49.7825C217.659 30.7548 210.292 21.2236 198.27 13.6298C172.185 -2.86205 144.733 0.0561112 141.602 0.434936C132.233 1.56294 111.625 5.67448 93.9635 22.7147C83.9583 32.3808 77.6705 46.2399 74.7281 53.3148C71.4744 109.706 126.795 132.297 139.82 141.742C144.005 143.735 153.631 147.973 161.443 152.006C179.485 161.318 191.991 163.245 198.443 164.373C212.503 166.838 234.371 161.271 244.75 149.637C254.694 138.488 257.59 123.448 255.218 110.042C254.498 105.92 254.487 98.5904 251.458 88.523L251.466 88.549Z" fill="#577138"/>
<path d="M243.512 82.4946C239.744 72.4428 235.328 65.7727 230.085 57.8624C223.667 48.1738 217.931 41.5694 213.325 36.3091C203.501 25.0931 198.585 19.4851 191.91 15.4132C180.388 8.38159 169.25 7.11192 162.919 6.45113C147.977 4.90228 136.557 8.07005 131.004 9.66336C125.292 11.3087 113.974 14.6815 102.151 23.9618C91.4435 32.3704 84.8565 45.0308 81.2723 51.8461C77.9822 57.9904 98.2226 107.303 144.981 136.45C147.373 137.687 154.034 140.728 158.148 142.809C159.487 143.487 160.717 144.094 161.867 144.651C163.725 145.502 165.456 146.316 167.087 147.096C172.339 149.467 175.591 150.673 179.895 152.925C194.806 160.721 210.547 158.498 212.882 158.135C215.977 157.659 237.497 154.33 246.405 137.205C251.105 128.173 250.287 119.18 249.17 106.864C248.853 103.372 247.787 93.9234 243.494 82.4739" fill="#A3B34F"/>
<path d="M171.313 142.864C186.985 148.863 192.14 151.998 198.851 152.816C201.057 153.08 222.1 154.403 234.433 142.75C243.617 134.081 244.058 125.314 244.587 121.18C246.417 106.947 242.37 88.6942 237.642 79.7338C231.435 67.9626 229.832 65.489 213.183 43.4254C200.853 27.1065 194.674 24.0863 188.239 19.8483C177.179 12.6161 164.385 12.4517 155.702 12.0937C149.313 11.8331 137.348 14.1746 125.88 18.1946C107.959 24.4963 97.494 35.055 90.1424 50.0056C81.9812 67.2464 123.251 123.435 151.948 134.921" fill="#DDE072"/>
<path d="M176.675 109.133C186.668 107.386 193.321 97.1321 195.357 88.8256C198.215 77.0769 192.304 67.2724 188.365 60.7338C184.648 54.5809 178.111 45.9717 166.276 41.1698C155.38 36.7415 146.919 42.1134 142.975 44.3094C125.591 70.0141 139.057 96.0994 164.632 109.125C167.86 109.444 174.136 109.577 176.67 109.135" fill="#A3B34F"/>
<path d="M147.736 133.351C152.123 128.113 160.555 117.253 163.967 110.5C164.189 110.061 164.411 109.594 164.634 109.11C168.313 101.115 171.963 87.2798 172.311 76.3821C172.622 66.6226 169.285 60.0269 169.285 60.0269C165.881 51.1513 156.09 48.1121 151.797 46.4688C148.272 45.1922 145.113 44.5401 141.908 44.1734C135.596 43.6072 126.841 44.2823 111.705 46.5034C96.7116 48.6034 81.7454 51.4662 67.9589 54.7856C51.2439 58.8593 42.0293 61.1029 31.4084 66.2421C19.1424 72.1753 7.5545 77.7798 2.5381 90.096C-0.530557 97.6396 -0.264168 105.235 0.500401 110.283C0.500401 110.283 3.8095 143.304 26.5338 160.135C45.5616 174.247 73.6188 179.457 94.5321 173.742C111.026 170.606 126.758 155.147 139.835 141.62C142.506 138.914 145.725 135.738 147.741 133.339L147.736 133.351Z" fill="#577138"/>
<path d="M127.03 127.815C111.654 136.843 89.0958 149.092 60.8656 148.781C59.9564 148.77 59.0406 148.748 58.1187 148.71C48.6515 148.329 23.5055 147.316 10.5666 130.496C6.99804 125.85 4.88942 120.714 3.74602 117.223L3.71506 117.147L3.71679 117.146C3.02487 115.018 2.76955 113.768 2.7616 113.723C2.56578 112.815 2.40457 111.929 2.26636 111.01L2.24871 110.948C2.24698 110.938 2.24525 110.929 2.24352 110.919L2.24525 110.918L2.24006 110.904C1.51355 106.08 1.26446 98.846 4.17224 91.7037C8.93264 80.0258 19.7023 74.8157 32.1776 68.7839C42.6308 63.7277 51.7762 61.4997 68.3649 57.4554C70.4909 56.9407 72.5355 56.4525 74.5074 55.9996C76.7371 55.4945 78.8786 55.0161 80.9336 54.581C84.9606 53.7277 88.8094 52.9728 92.7049 52.2735L92.7243 52.2614C99.8719 50.9889 106.142 50.0542 111.96 49.2048C126.952 47.0063 135.589 46.3316 141.747 46.8869C145.125 47.1846 147.939 47.8386 151.159 49.0716C155.556 50.7551 163.739 53.8891 167.694 61.7683C168.884 64.1433 169.588 66.7744 169.79 69.6008C169.814 69.8747 169.83 70.1573 169.838 70.4391C170.08 77.5399 167.153 84.5196 165.581 88.2733C156.747 109.308 140.326 119.998 127.024 127.816" fill="#A3B34F"/>
<path d="M117.343 128.853C131.983 121.318 143.861 112.669 149.985 105.933C160.156 94.7399 164.302 83.3596 165.2 74.1052C166.206 63.7351 159.685 59.8586 157.473 57.9731C149.239 50.945 138.047 51.0574 127.876 51.0202C123.254 51.0055 116.622 51.3587 96.29 55.7884C80.1199 59.4746 76.8125 60.2755 57.2659 65.6171C44.2353 69.2445 36.8889 71.6869 30.8865 75.4562C22.4953 80.7251 12.049 87.2845 9.40244 99.9328C6.1141 115.625 17.721 128.699 20.0805 131.173C31.44 143.024 47.0999 144.446 57.8938 144.483C62.1335 144.497 66.1484 144.274 69.6875 144.077C91.6213 142.865 106.722 134.311 117.343 128.862" fill="#DDE072"/>
<path d="M60.5023 65.7157C58.8232 66.9854 56.0861 69.6769 54.6815 71.1161L50.7757 75.4838C43.8513 84.1813 38.911 100.946 42.6612 105.461C44.5847 107.781 45.5949 108.033 46.2834 108.495C55.8976 113.145 64.6711 119.528 79.0111 120.367L90.938 120.353C91.9038 120.313 93.3217 120.255 94.3406 120.179C96.9992 119.94 95.8389 119.918 97.6739 119.722C114.173 117.013 136.145 105.341 135.297 89.001C134.973 82.8948 127.999 72.8931 123.264 68.3818C118.231 63.5799 108.822 58.9164 106.357 58.0359C105.204 57.6798 103.825 57.2093 101.524 56.8052C100.311 56.589 99.1165 56.3985 97.9281 56.2612C97.362 56.1885 96.7948 56.1335 96.2278 56.0787C95.6554 56.0254 95.0901 55.9946 94.5239 55.9591C82.5451 55.2139 71.7944 58.3359 63.5087 63.6152C62.8211 64.0539 62.1442 64.5022 61.4917 64.97C61.1541 65.2172 60.8254 65.4547 60.4968 65.7107" fill="#5E3108"/>
</g>
<defs>
<clipPath id="clip0_1_468">
<rect width="256" height="177" fill="white"/>
</clipPath>
</defs>
</svg>
