<svg width="512" height="95" viewBox="0 0 512 95" fill="none" xmlns="http://www.w3.org/2000/svg">
<g clip-path="url(#clip0_1_494)">
<path d="M183.056 78.8105L156.015 15.0858C155.634 13.7462 153.92 13.1721 152.777 13.1721H152.016C150.683 13.1721 149.159 14.1289 148.588 15.2771L121.357 78.8105C121.167 79.0019 121.167 79.1927 121.167 79.3841C121.167 79.9584 121.738 80.5326 122.309 80.5326H129.926C130.498 80.5326 131.069 79.9584 131.259 79.5755C131.259 79.3841 136.591 66.7544 136.591 66.7544H168.012L173.344 79.767C173.344 79.767 173.725 80.9155 175.058 80.9155H181.913C182.675 80.9155 183.436 80.1498 183.436 79.3841C183.246 79.1927 183.056 78.8105 183.056 78.8105ZM139.638 58.334L152.206 28.0986L164.584 58.334H139.638ZM309.691 56.6119C309.691 44.5559 301.883 36.5186 290.647 36.5186C284.173 36.5186 279.603 39.1976 276.937 42.8336V14.7029C276.937 14.1289 276.366 13.7461 275.985 13.7461H268.939C268.368 13.7461 267.987 14.1289 267.797 14.7029V79.5755C267.797 80.1498 268.177 80.5326 268.749 80.5326H275.985C276.556 80.5326 276.937 80.1498 276.937 79.5755V57.1862C276.937 51.2535 281.126 45.13 288.934 45.13C295.789 45.13 300.359 50.2971 300.359 58.1426V79.767C300.359 80.3412 300.74 80.724 301.312 80.724H308.548C309.12 80.724 309.5 80.3412 309.5 79.767L309.691 56.6119ZM326.448 16.6164C322.83 16.6164 319.974 19.1042 319.974 22.9314C319.974 26.7587 322.83 29.2465 326.448 29.2465C330.257 29.2465 333.113 26.5674 333.113 22.9314C333.113 19.2955 330.257 16.4251 326.448 16.6164ZM423.186 58.3347V56.8033C423.186 56.0383 422.995 55.4641 422.995 55.0812C421.663 44.1735 413.855 36.7103 402.619 36.7103C389.671 36.7103 380.721 46.4699 380.721 59.0997C380.721 71.9214 390.432 81.4897 403.762 81.4897C412.141 81.4897 417.092 78.8105 420.139 76.3227C420.139 76.3227 420.901 75.7485 420.33 74.9835L417.283 69.8165C417.092 69.4336 416.331 69.4336 415.759 69.8165C413.474 71.5386 410.046 73.6435 404.714 73.6435C396.716 73.6435 391.004 68.668 389.671 61.7789H422.424C422.995 61.7789 423.186 61.3961 423.186 60.8224V58.3347ZM389.671 55.0812C391.004 48.3835 395.955 44.1735 402.619 44.1735C408.713 44.1735 413.664 48.575 414.045 55.0812H389.671ZM216 36.7103C216 36.7103 214.286 36.519 213.334 36.519C205.717 36.519 200.575 40.729 198.861 45.7045L198.48 38.2413C198.48 37.6671 197.909 37.2844 197.338 37.2844H191.625C191.054 37.2844 190.483 37.8585 190.483 38.4326V79.3848C190.483 79.959 191.054 80.5326 191.625 80.5326H198.861C199.432 80.5326 200.004 80.1504 200.004 79.5762V57.7604C200.004 51.637 204.193 45.7045 212.192 45.7045C213.524 45.7045 215.238 46.0872 215.238 46.0872C215.809 46.0872 216.19 45.8958 216.381 45.3218L216.952 38.0499C216.952 37.0931 216.571 36.7103 216 36.7103ZM253.895 70.1993C254.276 70.0079 254.657 70.1993 254.847 70.5822L257.894 76.3227C258.085 76.7056 257.894 77.0884 257.513 77.2798C254.657 79.1934 250.467 81.2983 243.231 81.2983C229.52 81.2983 219.999 71.5386 219.999 59.0997C219.999 46.2785 230.091 36.7103 243.231 36.7103C250.658 36.7103 255.037 39.0067 257.894 40.9203C258.085 41.1117 258.466 41.303 258.085 41.8772L254.847 47.6181C254.657 48.0007 254.276 48.0007 253.895 47.8093C251.61 46.4699 248.563 45.1304 244.373 45.1304C235.614 45.1304 229.52 51.0627 229.52 59.0997C229.52 66.9459 235.423 72.8785 243.993 72.8785C248.563 72.8785 251.42 71.5386 253.895 70.1993ZM330.257 37.4757H323.021C322.449 37.4757 322.068 37.8584 322.068 38.4325V79.3848C322.068 79.9584 322.449 80.3412 323.021 80.3412H330.257C330.828 80.3412 331.209 79.9584 331.209 79.3848V38.4325C331.209 37.8584 330.828 37.4757 330.257 37.4757ZM374.246 70.9643C374.055 70.7729 373.293 70.7729 372.532 71.1558C371.009 71.9208 369.104 72.8779 365.867 72.8779C360.535 72.8779 357.297 70.5815 357.297 64.8403V45.1299H373.293C373.865 45.1299 374.246 44.7472 374.246 44.1731V38.4321C374.246 37.8581 373.865 37.4753 373.293 37.4753H357.297V23.697C357.297 23.1229 356.917 22.7402 356.345 22.7402H349.3C348.728 22.7402 348.347 23.1229 348.347 23.697V37.4753H340.35C339.778 37.4753 339.398 37.8581 339.398 38.4321V44.1731C339.398 44.7472 339.778 45.1299 340.35 45.1299H348.157V65.4145C348.157 75.5571 354.632 81.2977 364.153 81.2977C370.818 81.2977 374.817 79.0013 376.721 77.662C377.102 77.2792 377.292 76.8963 377.102 76.5135L374.246 70.9643ZM462.795 70.3907C463.176 70.1993 463.557 70.3907 463.747 70.7729L466.794 76.5142C466.985 76.897 466.794 77.2798 466.413 77.4712C463.557 79.3848 459.367 81.4897 452.131 81.4897C438.42 81.4897 428.898 71.73 428.898 59.2911C428.898 46.4699 438.991 36.9017 452.131 36.9017C459.557 36.9017 463.937 39.198 466.794 41.1117C466.985 41.303 467.365 41.4944 466.985 42.0685L463.747 47.8093C463.557 48.1921 463.176 48.1921 462.795 48.0007C460.51 46.6612 457.463 45.3217 453.273 45.3217C444.514 45.3217 438.42 51.2542 438.42 59.2911C438.42 67.1373 444.323 73.0699 452.893 73.0699C457.463 72.8785 460.51 71.73 462.795 70.3907ZM509.069 71.1558C508.879 70.9643 508.117 70.9643 507.355 71.3472C505.831 72.1122 503.928 73.0693 500.69 73.0693C495.358 73.0693 492.121 70.7729 492.121 65.0317V45.3213H508.117C508.688 45.3213 509.069 44.9385 509.069 44.3644V38.6235C509.069 38.0494 508.688 37.6666 508.117 37.6666H492.121V23.8884C492.121 23.3143 491.74 22.9316 491.169 22.9316H484.123C483.552 22.9316 483.171 23.3143 483.171 23.8884V37.6666H475.173C474.601 37.6666 474.22 38.0494 474.22 38.6235V44.3644C474.22 44.9385 474.601 45.3213 475.173 45.3213H482.981V65.6059C482.981 75.7485 489.455 81.4891 498.976 81.4891C505.641 81.4891 509.64 79.1927 511.544 77.8534C511.925 77.4706 512.116 77.0878 511.925 76.7049L509.069 71.1558Z" fill="black"/>
<path d="M43.2177 39.0057C45.2346 36.1111 49.4796 36.062 51.5719 38.8585L51.6781 39.0057L73.4372 70.2321C73.4439 70.2418 73.4546 70.2478 73.4664 70.2484L73.4833 70.2454L73.4971 70.2353C73.5049 70.2268 73.5161 70.2221 73.5277 70.2226L73.5441 70.227L73.5571 70.2379L80.6086 79.8539C80.9824 80.3637 80.9328 81.0713 80.4784 81.5115C71.9361 89.796 60.2881 94.8959 47.4481 94.8959C34.6083 94.8959 22.9597 89.796 14.4175 81.5115C13.9902 81.0966 13.9208 80.4459 14.2259 79.9452L14.2875 79.8532L21.3389 70.2379C21.3457 70.2284 21.3565 70.2226 21.3682 70.2221L21.385 70.2252L21.3988 70.2353C21.4065 70.2442 21.4179 70.2491 21.4297 70.2484L21.4463 70.2437L21.459 70.2321L43.2177 39.0057ZM47.4481 0C73.6531 0 94.8959 21.2433 94.8959 47.4481C94.8959 56.2805 92.4829 64.5495 88.2794 71.6313C87.8413 72.3694 86.8258 72.4371 86.267 71.8104L86.2022 71.7318L79.3015 62.6843C79.0109 62.3028 78.9574 61.793 79.1501 61.3541C81.0198 57.0984 82.0574 52.3942 82.0574 47.4481C82.0574 28.3339 66.5623 12.8389 47.4481 12.8389C28.3339 12.8389 12.8389 28.3339 12.8389 47.4481C12.8389 52.3942 13.8765 57.0978 15.7458 61.3534C15.9238 61.7592 15.8921 62.2248 15.6575 62.5941L15.5946 62.6843L8.69395 71.7318C8.15276 72.4414 7.07226 72.3989 6.61679 71.6313C2.4134 64.5495 0 56.2805 0 47.4481C0 21.2433 21.2433 0 47.4481 0Z" fill="black"/>
</g>
<defs>
<clipPath id="clip0_1_494">
<rect width="512" height="95" fill="white"/>
</clipPath>
</defs>
</svg>
