<svg width="256" height="327" viewBox="0 0 256 327" fill="none" xmlns="http://www.w3.org/2000/svg">
<g clip-path="url(#clip0_1_515)">
<path d="M109.984 264.49C110.012 264.49 110.04 264.574 110.04 264.743C110.068 265.922 110.097 267.073 110.125 268.252C110.293 267.354 110.462 266.455 110.658 265.529C110.518 263.816 109.17 264.687 109.984 264.49Z" fill="#FEFEFE"/>
<path d="M183.65 168.477C183.622 168.505 183.566 168.505 183.538 168.533C183.566 168.561 183.622 168.59 183.65 168.618C183.622 168.59 183.65 168.533 183.65 168.477Z" fill="#FEFEFE"/>
<path d="M137.244 50.6228V50.6505H137.328C137.3 50.6505 137.272 50.6228 137.244 50.6228Z" fill="#FEFEFE"/>
<path d="M176.688 287.314C177.053 283.244 176.857 279.117 177.362 275.074C178.485 266.175 177.418 257.079 179.748 248.291C180.899 243.743 177.222 238.409 181.938 234.423L180.759 230.549C179.75 228.502 179.802 226.092 180.899 224.092C180.622 216.288 181.092 208.476 182.303 200.762C182.724 190.038 183.173 179.314 183.594 168.561C183.566 168.533 183.51 168.505 183.482 168.477C160.546 179.005 138.929 164.266 135.251 146.58C132.837 134.957 134.128 123.98 143.196 115.109C144.712 113.621 146.003 111.908 147.407 110.28C151.113 88.0734 148.53 67.6917 129.552 51.8019C132.387 50.1736 134.942 51.1 137.244 50.6789V50.6513C113.971 44.8119 85.7285 60.7298 76.3799 85.0419C73.4726 92.2262 72.1604 99.9563 72.5338 107.698C95.6106 97.0014 116.301 109.775 122 129.23C127.924 149.472 112.146 170.892 91.1749 171.201C85.17 171.23 79.196 170.34 73.4603 168.562C73.8814 179.735 74.3119 190.909 74.7517 202.082C75.7799 209.372 76.2212 216.732 76.0712 224.092C76.1273 225.833 76.1835 227.573 76.2396 229.314C76.1834 230.465 76.1273 231.616 76.0712 232.795C77.531 239.851 78.4043 247.016 78.682 254.216C78.6311 254.031 78.5936 253.844 78.5698 253.654C78.5977 253.851 78.654 254.019 78.682 254.216C79.2435 266.428 79.5804 278.668 80.4507 290.88C80.8156 295.933 78.9908 298.46 74.3305 299.752C68.828 301.296 63.4097 303.148 57.9634 304.889C65.1501 305.793 72.3982 306.112 79.6365 305.844C87.413 305.675 90.9503 302.222 91.7083 294.502C92.1855 289.589 92.6066 284.676 93.0558 279.763C93.5611 270.863 94.0665 261.936 94.5717 253.037H95.6666V278.443C95.807 282.29 95.8631 286.164 96.1158 290.01C97.2388 307.949 97.7722 307.837 79.8891 311.458C79.4796 311.586 79.0845 311.755 78.7099 311.964C79.7768 312.666 80.8435 313.367 81.9104 314.097C82.2383 314.15 82.526 314.346 82.6964 314.631C86.9636 314.659 91.2591 315.024 95.4701 314.631C103.134 313.901 106.756 309.802 107.317 302.194C107.654 297.309 108.16 292.424 108.581 287.539C108.144 281.09 108.655 274.611 110.097 268.309C110.069 267.13 110.04 265.979 110.012 264.8C110.012 264.631 109.956 264.519 109.956 264.547C109.142 264.743 110.49 263.873 110.63 265.586C110.77 264.828 110.939 264.07 111.079 263.312V292.733C111.163 296.186 111.276 299.611 111.332 303.064C111.472 315.557 110.686 316.68 98.7828 320.246C95.4981 321.228 92.0732 321.818 88.8165 322.913C86.4583 323.727 83.4544 323.278 81.2366 326.057C90.9221 325.692 99.99 326.787 109.002 325.327C118.322 323.811 122.028 320.049 123.937 310.953C125.341 304.271 125.93 297.393 128.485 290.627C128.774 291.09 129.019 291.578 129.215 292.087C130.506 298.404 131.798 304.749 133.033 311.065C134.774 319.909 138.367 323.67 147.351 325.243C156.643 326.843 166.048 325.748 175.677 325.973C174.302 323.614 172.14 324.007 170.399 323.502C164.42 321.761 158.328 320.274 152.46 318.252C148.193 316.764 145.133 314.041 145.189 308.791C145.329 294.418 145.245 280.044 145.245 265.67H146.986C147.603 274.682 148.333 283.665 148.811 292.677C149.905 313.508 152.376 315.782 173.291 314.631C174.47 312.666 177.362 314.21 178.457 312.104C173.431 312.076 169.052 309.662 164.448 308.117C161.894 307.238 160.256 304.746 160.461 302.054C160.686 287.287 160.124 272.464 162.117 257.753C163.325 270.105 164.279 282.486 165.234 294.839C165.683 300.622 168.294 305.142 174.358 305.535C182.555 306.096 190.781 305.675 199.007 305.675C194.73 303.69 190.298 302.056 185.756 300.79C175.705 297.562 175.762 297.533 176.688 287.314ZM113.466 76.6754C113.428 80.7839 110.106 84.1053 105.998 84.1431C101.59 84.2273 98.2776 81.7007 98.1934 75.9736C98.2317 73.9878 99.082 72.1045 100.546 70.7624C102.01 69.4203 103.96 68.7367 105.942 68.8709C111.192 68.7866 113.55 72.3239 113.466 76.6754ZM147.211 199.471C147.238 210.841 138.536 220.751 128.597 220.723C119.221 220.695 109.648 209.634 109.984 199.19C109.479 196.102 108.946 192.986 108.244 188.662C114.953 193.238 120.596 197.927 128.148 198.095C135.869 198.236 141.933 194.277 148.249 189.645C149.597 193.351 146.2 196.242 147.211 199.471Z" fill="#FE733E"/>
<path d="M76.0991 224.064C75.5376 223.867 75.0042 223.614 74.4708 223.418C66.9447 220.129 60.0114 215.624 53.9487 210.083C31.6581 190.824 16.9473 166.709 13.3819 137.455C9.33921 104.216 16.7788 73.5312 38.9572 47.1697C59.1985 23.1384 84.9985 9.12953 115.796 5.90103C150.018 2.33562 180.759 11.9088 206.643 35.5472C227.775 54.3076 241.124 80.2948 244.065 108.399C247.098 132.522 242.096 156.973 229.832 177.966C218.406 197.478 203.19 213.311 182.612 223.334C182.05 223.615 181.489 223.895 180.927 224.148C179.816 226.145 179.764 228.562 180.787 230.605C181.226 230.132 181.716 229.709 182.247 229.342C213.325 212.89 234.885 188.438 244.964 154.412C245.834 151.521 247.182 150.089 250.41 150.426C254.79 150.875 255.969 147.955 255.969 144.305C255.997 130.297 256.006 116.297 255.997 102.307C255.997 99.303 255.267 95.9902 252.15 95.6533C246.423 94.9796 245.721 90.7966 244.57 86.7259C238.234 63.5226 224.566 42.9899 205.604 28.1917C166.02 -2.88613 122.561 -8.50091 76.969 12.4984C43.0837 28.0795 21.4949 55.1147 11.7251 91.302C11.1075 93.5479 11.3882 96.2149 7.57019 95.4289C2.12386 94.3059 0.0744438 97.5063 0.0463661 102.335C-0.037847 116.344 0.0183892 130.325 0.0183892 144.334C0.0183892 148.994 2.3766 151.464 6.86845 150.37C10.9953 149.359 11.9779 151.408 12.8201 154.553C16.4698 167.862 22.5728 180.373 30.8155 191.442C42.8873 207.809 57.5981 220.948 76.2953 229.314C76.2391 227.573 76.1833 225.804 76.0991 224.064Z" fill="#B5D2F3"/>
<path d="M76.1272 232.767C71.9722 244.417 60.9111 244.137 51.5063 247.056C58.581 248.881 65.7679 250.987 72.8425 249.779C77.0536 249.049 77.8678 250.565 78.4854 253.064C78.5416 253.261 78.5696 253.457 78.6258 253.654C78.6538 253.822 78.71 254.019 78.7381 254.215C78.4603 247.006 77.5871 239.832 76.1272 232.767Z" fill="#FE684B"/>
<path d="M179.748 248.319C188.732 252.39 197.21 248.291 205.885 247.112C197.407 243.519 186.43 245.372 181.966 234.451C177.221 238.437 180.899 243.771 179.748 248.319Z" fill="#FE6446"/>
<path d="M111.107 263.255C110.967 264.013 110.798 264.771 110.658 265.529C110.49 266.427 110.293 267.326 110.125 268.252C108.683 274.554 108.172 281.033 108.609 287.483C110.714 288.578 109.17 291.469 111.107 292.648L111.107 263.255Z" fill="#FED6C8"/>
<path d="M94.628 252.98C94.1226 261.879 93.6173 270.807 93.1121 279.706C93.9823 279.257 94.8526 278.836 95.7229 278.387V252.98H94.628Z" fill="#FEEBE3"/>
<path d="M68.2383 314.574H82.7244C82.4718 314.406 82.191 314.237 81.9384 314.041C80.8715 313.339 79.8048 312.637 78.7379 311.907C75.0608 311.826 71.4309 312.748 68.2383 314.574Z" fill="#FE9166"/>
<path d="M173.291 314.574H187.384C184.805 312.693 181.639 311.797 178.457 312.048C177.362 314.181 174.442 312.609 173.291 314.574Z" fill="#FE8F64"/>
<path d="M182.64 223.306C203.218 213.311 218.406 197.478 229.86 177.938C242.124 156.945 247.126 132.494 244.093 108.371C241.176 80.2592 227.823 54.2636 206.671 35.5189C180.787 11.9087 150.046 2.30743 115.824 5.90088C85.0546 9.10132 59.2265 23.1383 38.9852 47.1696C16.7787 73.531 9.36719 104.216 13.4099 137.455C16.9752 166.737 31.686 190.824 53.9767 210.083C60.0415 215.621 66.9744 220.126 74.4988 223.418C75.0322 223.642 75.5656 223.867 76.1271 224.064C76.2771 216.703 75.8358 209.343 74.8076 202.053C74.2461 201.66 73.6846 201.267 73.1231 200.846C67.5704 196.552 62.3867 191.8 57.6263 186.641C56.1384 185.125 54.2855 183.833 54.2855 181.363C50.9728 183.749 48.5865 182.093 46.6494 179.454C35.7762 165.189 29.4472 147.982 28.4856 130.072C27.6995 113.845 29.1594 98.0676 35.9813 82.8795C44.3152 64.1191 58.2631 48.4056 75.9025 37.9051C78.9345 36.0522 80.675 37.7087 82.7806 39.0842C84.8013 39.0048 86.6916 38.0648 87.9743 36.5014L87.7216 35.9118C85.9249 32.1219 85.8407 27.8265 90.164 26.8159C94.5155 25.7771 96.986 29.3145 97.0141 33.8905C129.496 23.2224 159.703 27.5458 186.963 48.3486C207.345 63.9016 219.023 84.7605 222.589 110.196C227.193 142.902 216.132 170.021 193.336 192.958C190.645 195.717 187.561 198.063 184.184 199.92C183.594 200.229 183.005 200.509 182.415 200.79C181.205 208.504 180.734 216.316 181.011 224.12C181.517 223.867 182.05 223.586 182.64 223.306Z" fill="#E2F5FC"/>
<path d="M193.28 192.986C216.048 170.049 227.109 142.93 222.533 110.224C218.967 84.7608 207.289 63.9018 186.907 48.3769C159.647 27.5741 129.411 23.2788 96.958 33.9189C96.9019 33.9465 96.8457 34.0031 96.7896 34.0311C94.2348 35.6594 92.2416 39.1686 88.5639 36.9788C88.3393 36.8383 88.1428 36.7261 87.9182 36.5577C86.6394 38.1261 84.7468 39.0673 82.7245 39.1405C82.6403 39.4774 82.528 39.7862 82.4157 40.1231C80.0855 46.6643 73.0951 48.3768 68.4068 52.3071C55.8334 62.5092 46.258 75.9263 40.6978 91.1334C31.7703 116.007 33.5951 140.375 45.5546 163.901C47.5401 167.717 49.8408 171.361 52.4327 174.794C53.8455 176.665 54.4884 179.005 54.2294 181.335V181.419C54.2294 183.862 56.0823 185.181 57.5702 186.697C62.3373 191.85 67.5204 196.601 73.0671 200.903C73.6285 201.296 74.19 201.717 74.7515 202.11C74.3304 190.936 73.8999 179.763 73.4601 168.589C73.4321 168.589 73.4321 168.561 73.4039 168.561C63.6903 162.189 56.5596 154.047 55.3243 141.919C53.7803 126.956 60.0688 115.895 72.309 107.838C72.3652 107.81 72.4213 107.753 72.4775 107.725C72.0994 99.9836 73.4118 92.2526 76.3236 85.0695C85.6723 60.7856 113.915 44.8396 137.188 50.679C137.219 50.6752 137.25 50.6853 137.272 50.7067C152.713 53.2052 165.402 60.2518 174.498 73.1939C181.837 83.1565 185.462 95.3716 184.745 107.725C193.504 114.378 200.579 122.183 201.73 133.721C203.274 149.246 196.649 160.588 183.594 168.505V168.645C183.173 179.37 182.724 190.094 182.303 200.846C182.92 200.565 183.51 200.285 184.071 199.976C187.483 198.134 190.589 195.776 193.28 192.986Z" fill="#CDECF6"/>
<path d="M155.464 106.462C165.094 101.717 174.442 104.272 183.735 107.332C184.072 107.444 184.437 107.557 184.773 107.669C185.498 95.3149 181.873 83.0971 174.526 73.1381C165.43 60.196 152.741 53.1495 137.3 50.6509H137.216C134.914 51.1001 132.359 50.1456 129.524 51.7738C148.502 67.6637 151.113 88.0454 147.379 110.252C147.969 109.971 148.53 109.718 149.12 109.438C151.281 108.455 153.387 107.501 155.464 106.462Z" fill="#FE6B3C"/>
<path d="M201.786 133.694C200.635 122.155 193.56 114.351 184.801 107.697C184.465 107.585 184.1 107.473 183.763 107.36C174.442 104.3 165.122 101.746 155.492 106.49C153.415 107.529 151.281 108.511 149.176 109.494C148.586 109.775 148.025 110.027 147.435 110.308C146.031 111.908 144.74 113.649 143.224 115.137C134.128 124.008 132.865 134.985 135.279 146.608C138.957 164.322 160.574 179.061 183.538 168.562C183.566 168.534 183.622 168.534 183.65 168.505C196.705 160.561 203.358 149.191 201.786 133.694ZM167.452 164.715C156.679 164.602 147.038 158.005 143.029 148.006C139.02 138.007 141.433 126.578 149.143 119.053C156.852 111.529 168.337 109.394 178.236 113.645C188.135 117.896 194.495 127.694 194.347 138.466C194.392 145.555 191.551 152.356 186.478 157.307C181.405 162.258 174.537 164.933 167.452 164.715Z" fill="#FE6142"/>
<path d="M72.3372 107.781C60.0968 115.839 53.8084 126.9 55.3524 141.863C56.5878 153.991 63.7185 162.133 73.4321 168.505C73.46 168.505 73.46 168.533 73.4882 168.533C79.2235 170.313 85.1978 171.203 91.2028 171.172C112.146 170.863 127.952 149.471 122.028 129.202C116.329 109.746 95.6104 96.9729 72.5617 107.669C72.4815 107.695 72.4058 107.733 72.3372 107.781ZM89.0693 164.715C79.4801 164.84 70.5584 159.821 65.6869 151.56C60.8155 143.3 60.7402 133.063 65.4898 124.732C70.2393 116.401 79.0863 111.251 88.6762 111.234C98.3048 111.049 107.29 116.055 112.199 124.34C117.108 132.625 117.184 142.91 112.397 151.266C107.61 159.622 98.6996 164.759 89.0693 164.715Z" fill="#FE6143"/>
<path d="M113.522 201.661C112.483 200.622 111.725 199.218 109.984 199.19C109.647 209.634 119.192 220.695 128.597 220.723C138.564 220.751 147.238 210.841 147.21 199.471C143.448 201.408 141.062 205.395 136.739 206.574C128.12 208.932 120.203 208.342 113.522 201.661Z" fill="#070909"/>
<path d="M148.249 189.645C141.932 194.277 135.896 198.236 128.148 198.095C120.568 197.955 114.953 193.238 108.244 188.662C108.974 192.986 109.479 196.074 109.984 199.19C111.725 199.246 112.483 200.622 113.522 201.661C120.175 208.342 128.12 208.932 136.739 206.574C141.062 205.394 143.448 201.436 147.21 199.471C146.2 196.242 149.597 193.351 148.249 189.645Z" fill="#FDFCFB"/>
<path d="M105.942 68.8989C103.955 68.7453 101.994 69.4223 100.526 70.7685C99.0574 72.1146 98.2128 74.0095 98.1934 76.0016C98.2776 81.7287 101.59 84.2272 105.998 84.1711C110.106 84.1333 113.428 80.8119 113.466 76.7034C113.55 72.3239 111.192 68.7866 105.942 68.8989Z" fill="#FEA777"/>
<path d="M54.2294 181.307C54.4883 178.977 53.8454 176.636 52.4326 174.766C49.8505 171.326 47.5504 167.683 45.5545 163.873C33.595 140.347 31.7421 115.979 40.6977 91.1054C46.258 75.8983 55.8333 62.4811 68.4067 52.2791C73.0951 48.3487 80.0855 46.6643 82.4156 40.095C82.5353 39.773 82.6384 39.445 82.7245 39.1124C80.6189 37.7368 78.8783 36.0804 75.8463 37.9333C58.2069 48.4338 44.259 64.1473 35.9252 82.9078C29.1032 98.0958 27.6433 113.873 28.4294 130.1C29.4089 148.007 35.7361 165.209 46.5933 179.482C48.5304 182.121 50.9447 183.778 54.2294 181.391L54.2294 181.307Z" fill="#FDFEFE"/>
<path d="M96.7614 34.0311C96.8176 34.0034 96.8737 33.9469 96.9299 33.9189C96.8737 29.3429 94.4313 25.8055 90.0798 26.8442C85.7565 27.883 85.8407 32.1783 87.6374 35.9402L87.8901 36.5297C88.0964 36.6833 88.3121 36.824 88.5358 36.9509C92.2136 39.1687 94.2067 35.6313 96.7614 34.0311Z" fill="#FBFDFE"/>
<path d="M194.347 138.494C194.543 131.407 191.864 124.542 186.92 119.461C181.976 114.379 175.187 111.513 168.097 111.515C158.561 111.357 149.67 116.313 144.789 124.507C139.909 132.701 139.785 142.88 144.466 151.19C149.146 159.5 157.915 164.67 167.452 164.743C174.534 164.951 181.397 162.273 186.468 157.324C191.538 152.375 194.382 145.58 194.347 138.494ZM168.771 141.414C166.593 141.63 164.427 140.908 162.813 139.429C161.2 137.95 160.294 135.854 160.321 133.665C160.18 131.386 161.002 129.152 162.588 127.508C164.173 125.864 166.376 124.961 168.659 125.019C173.6 125.384 176.379 128.275 176.969 133.441C176.295 138.045 173.937 141.33 168.771 141.414Z" fill="#FEFEFE"/>
<path d="M88.6762 111.263C79.0863 111.279 70.2393 116.429 65.4898 124.76C60.7402 133.091 60.8154 143.328 65.6869 151.588C70.5584 159.849 79.4801 164.868 89.0693 164.743C98.6995 164.788 107.61 159.65 112.397 151.294C117.184 142.938 117.108 132.653 112.199 124.368C107.29 116.083 98.3048 111.077 88.6762 111.263ZM88.7042 141.414C86.521 141.614 84.356 140.873 82.753 139.378C81.1501 137.882 80.2614 135.773 80.3101 133.581C80.1893 131.298 81.0378 129.069 82.6468 127.444C84.2557 125.819 86.4757 124.949 88.7604 125.047C93.3496 125.109 97.0195 128.88 96.958 133.469C96.3403 138.214 93.7575 141.358 88.7042 141.414Z" fill="#FEFEFE"/>
<path d="M168.659 125.019C166.373 124.951 164.164 125.851 162.577 127.497C160.989 129.144 160.17 131.383 160.321 133.665C160.289 135.855 161.194 137.955 162.808 139.435C164.422 140.915 166.592 141.635 168.771 141.414C173.909 141.33 176.295 138.045 176.969 133.441C176.379 128.275 173.6 125.384 168.659 125.019Z" fill="#090B0B"/>
<path d="M88.7604 125.047C86.4758 124.949 84.2558 125.819 82.6468 127.444C81.0379 129.069 80.1894 131.298 80.3102 133.581C80.2614 135.773 81.1501 137.882 82.753 139.377C84.356 140.873 86.5209 141.614 88.7042 141.414C93.7575 141.358 96.3403 138.213 96.958 133.469C96.4808 128.275 93.6173 125.44 88.7604 125.047Z" fill="#090C0C"/>
</g>
<defs>
<clipPath id="clip0_1_515">
<rect width="256" height="327" fill="white"/>
</clipPath>
</defs>
</svg>
