<svg width="512" height="234" viewBox="0 0 512 234" fill="none" xmlns="http://www.w3.org/2000/svg">
<g clip-path="url(#clip0_1_542)">
<path fill-rule="evenodd" clip-rule="evenodd" d="M401.517 61.9013C385.436 57.7196 368.51 64.5217 359.794 78.6678C351.214 92.8945 352.999 111.067 364.182 123.353C375.365 135.64 393.291 139.12 408.259 131.912C409.758 131.215 411.024 129.665 412.987 130.337C413.4 138.371 412.341 142.789 408.905 147.284C399.527 159.555 382.218 158.289 373.409 144.675C369.947 139.327 366.003 137.88 361.577 140.334C356.901 142.944 356.022 147.542 359.252 153.148C363.719 160.978 370.839 166.952 379.325 169.992C380.849 170.561 380.643 170.561 382.968 171.439C385.629 172.472 393.818 172.731 397.616 172.033C399.257 171.692 400.871 171.235 402.447 170.664C418.234 166.146 429.273 151.918 429.728 135.503C430.012 122.612 430.064 109.721 429.702 96.8293C429.094 80.2241 417.619 66.0043 401.517 61.9013ZM370.774 98.1986C370.675 89.623 375.752 81.8326 383.638 78.4616C391.524 75.0905 400.664 76.8032 406.794 82.8005C412.925 88.7978 414.837 97.898 411.64 105.856C408.443 113.814 400.766 119.061 392.19 119.15C386.57 119.22 381.152 117.05 377.134 113.119C373.116 109.188 370.827 103.82 370.774 98.1986Z" fill="black"/>
<path fill-rule="evenodd" clip-rule="evenodd" d="M509.995 87.064C504.311 69.4967 486.822 58.3363 468.918 60.9714C450.697 63.5538 437.033 78.9617 436.647 97.3611C436.26 115.76 449.266 131.728 467.363 135.073C485.46 138.418 503.314 128.154 509.53 110.832C510.621 108.257 511.393 105.559 511.829 102.797C512.163 99.1501 512.007 95.4747 511.364 91.8692C510.989 90.2455 510.532 88.6417 509.995 87.064ZM473.801 119.15C462.279 118.919 453.103 109.432 453.256 97.9085C453.408 86.3851 462.831 77.1442 474.355 77.2168C485.879 77.2894 495.185 86.6484 495.192 98.1728C495.15 103.795 492.869 109.169 488.855 113.106C484.841 117.043 479.423 119.218 473.801 119.15Z" fill="black"/>
<path fill-rule="evenodd" clip-rule="evenodd" d="M303.191 90.1641C301.076 79.9167 294.692 71.0574 285.641 65.8089C276.589 60.5604 265.729 59.4209 255.785 62.6763C245.692 65.7418 237.355 72.9121 232.813 82.4324C228.272 91.9527 227.946 102.944 231.914 112.717C240 132.403 264.491 141.419 283.789 131.783C286.063 130.647 287.768 128.993 289.964 132.403C291.878 135.416 295.758 136.497 298.954 134.909C302.247 133.733 304.336 130.488 304.044 127.004C304.018 121.656 304.044 116.308 304.044 109.591C303.708 104.011 304.741 97.0102 303.191 90.1641ZM266.687 119.15C254.648 118.995 245.193 109.617 245.529 98.1727C246.083 86.5754 255.594 77.4273 267.204 77.3244C272.809 77.4317 278.137 79.7839 281.993 83.8537C285.849 87.9235 287.911 93.3705 287.716 98.9736C287.587 110.728 278.648 119.305 266.687 119.15Z" fill="black"/>
<path fill-rule="evenodd" clip-rule="evenodd" d="M356.772 68.3343C356.358 62.9349 351.811 60.1706 344.759 60.9456C328.037 62.6151 314.443 75.1559 311.432 91.6885C310.192 98.1471 311.148 104.735 310.864 110.16C310.864 115.999 310.838 120.752 310.864 125.506C310.916 132.042 313.809 135.659 318.976 135.71C324.143 135.788 327.295 132.119 327.372 125.687C327.45 116.593 327.295 107.473 327.424 98.3796C327.579 87.0125 335.458 77.9705 346.696 77.5056C353.361 77.2213 357.107 72.8036 356.772 68.3343Z" fill="#010101"/>
<path fill-rule="evenodd" clip-rule="evenodd" d="M78.5805 188.97C78.6005 188.97 78.6207 189.03 78.6207 189.151C78.6407 189.993 78.6608 190.816 78.6809 191.658C78.8012 191.016 78.9216 190.374 79.0619 189.712C78.9617 188.489 77.9989 189.111 78.5805 188.97Z" fill="#FEFEFE"/>
<path fill-rule="evenodd" clip-rule="evenodd" d="M131.213 120.372C131.193 120.392 131.152 120.392 131.132 120.412C131.152 120.432 131.192 120.452 131.213 120.472C131.193 120.452 131.213 120.412 131.213 120.372Z" fill="#FEFEFE"/>
<path fill-rule="evenodd" clip-rule="evenodd" d="M98.0569 36.1685V36.1882H98.1171C98.097 36.1882 98.077 36.1685 98.0569 36.1685Z" fill="#FEFEFE"/>
<path fill-rule="evenodd" clip-rule="evenodd" d="M126.238 205.277C126.499 202.369 126.359 199.421 126.72 196.532C127.522 190.174 126.76 183.675 128.425 177.397C129.247 174.147 126.619 170.336 129.989 167.488L129.147 164.72C128.426 163.258 128.463 161.536 129.247 160.107C129.049 154.532 129.385 148.95 130.25 143.439C130.551 135.776 130.872 128.114 131.173 120.432C131.153 120.412 131.112 120.392 131.092 120.372C114.705 127.894 99.2603 117.363 96.6327 104.727C94.9077 96.4227 95.8304 88.5801 102.309 82.2417C103.392 81.1787 104.315 79.9551 105.318 78.7918C107.965 62.9259 106.12 48.3638 92.561 37.0109C94.5868 35.8476 96.4121 36.5095 98.0569 36.2086V36.1889C81.4288 32.0168 61.2504 43.3897 54.5711 60.7599C52.494 65.8929 51.5564 71.4158 51.8232 76.9467C68.3109 69.3046 83.0936 78.431 87.1654 92.3312C91.3976 106.793 80.125 122.097 65.1417 122.318C60.8514 122.339 56.5832 121.703 52.4851 120.432C52.786 128.416 53.0936 136.399 53.4078 144.382C54.1425 149.59 54.4577 154.849 54.3506 160.107C54.3907 161.351 54.4308 162.594 54.4709 163.838C54.4308 164.66 54.3907 165.483 54.3506 166.325C55.3936 171.366 56.0175 176.485 56.2159 181.629C56.1796 181.498 56.1528 181.364 56.1357 181.228C56.1557 181.369 56.1959 181.489 56.2159 181.629C56.6171 190.355 56.8578 199.1 57.4796 207.825C57.7403 211.436 56.4366 213.241 53.1069 214.164C49.1755 215.267 45.3043 216.591 41.4131 217.834C46.5477 218.48 51.7263 218.708 56.8979 218.516C62.4539 218.396 64.9813 215.929 65.5228 210.413C65.8638 206.903 66.1646 203.392 66.4856 199.882C66.8466 193.524 67.2077 187.145 67.5686 180.787H68.3509V198.939C68.4512 201.687 68.4913 204.455 68.6718 207.203C69.4742 220.02 69.8553 219.94 57.0783 222.528C56.7858 222.619 56.5035 222.74 56.2359 222.889C56.9981 223.39 57.7603 223.892 58.5225 224.413C58.7568 224.451 58.9624 224.59 59.0841 224.794C62.1329 224.814 65.2018 225.075 68.2105 224.794C73.6863 224.273 76.2738 221.344 76.675 215.909C76.9157 212.418 77.2767 208.928 77.5776 205.438C77.2658 200.83 77.6306 196.201 78.6607 191.699C78.6407 190.856 78.6206 190.034 78.6005 189.191C78.6005 189.071 78.5604 188.991 78.5604 189.011C77.9787 189.151 78.9415 188.529 79.0418 189.753C79.1421 189.211 79.2624 188.67 79.3627 188.128V209.149C79.4229 211.616 79.5031 214.063 79.5432 216.53C79.6435 225.456 79.0819 226.258 70.5773 228.806C68.2305 229.508 65.7835 229.929 63.4567 230.711C61.7719 231.293 59.6256 230.972 58.0411 232.958C64.9611 232.697 71.4398 233.479 77.8784 232.436C84.5377 231.353 87.1853 228.665 88.5493 222.167C89.5522 217.393 89.9734 212.479 91.7987 207.645C92.0055 207.975 92.1801 208.324 92.3202 208.688C93.2429 213.201 94.1655 217.734 95.0481 222.247C96.2917 228.565 98.8591 231.253 105.278 232.376C111.917 233.519 118.636 232.737 125.516 232.898C124.533 231.213 122.989 231.494 121.745 231.133C117.473 229.889 113.12 228.826 108.928 227.382C105.879 226.319 103.693 224.373 103.733 220.622C103.833 210.353 103.773 200.083 103.773 189.813H105.017C105.458 196.252 105.98 202.67 106.321 209.109C107.103 223.992 108.868 225.617 123.811 224.794C124.654 223.39 126.72 224.493 127.502 222.989C123.911 222.969 120.782 221.244 117.493 220.141C115.668 219.513 114.498 217.732 114.645 215.808C114.805 205.258 114.404 194.667 115.828 184.157C116.691 192.982 117.372 201.828 118.054 210.653C118.375 214.785 120.241 218.015 124.573 218.295C130.43 218.697 136.307 218.396 142.184 218.396C139.128 216.977 135.962 215.81 132.717 214.906C125.536 212.599 125.576 212.579 126.238 205.277ZM81.0678 54.7823C81.0408 57.7178 78.6678 60.0908 75.7323 60.1178C72.5832 60.1779 70.2164 58.3727 70.1562 54.2809C70.1836 52.8621 70.7911 51.5166 71.8372 50.5577C72.8832 49.5988 74.2764 49.1104 75.6922 49.2062C79.4431 49.1461 81.1279 51.6733 81.0678 54.7823ZM105.177 142.516C105.197 150.639 98.9795 157.72 91.879 157.7C85.1797 157.68 78.3399 149.777 78.5806 142.315C78.2195 140.109 77.8384 137.883 77.337 134.794C82.1308 138.063 86.1625 141.413 91.5581 141.533C97.0741 141.633 101.407 138.805 105.92 135.496C106.882 138.143 104.455 140.209 105.177 142.516Z" fill="#FE733E"/>
<path fill-rule="evenodd" clip-rule="evenodd" d="M54.3705 160.087C53.9693 159.946 53.5882 159.766 53.2071 159.625C47.83 157.276 42.8763 154.057 38.5447 150.098C22.6188 136.338 12.1083 119.108 9.56095 98.2078C6.67258 74.4592 11.988 52.5358 27.8338 33.7013C42.2956 16.5317 60.7289 6.52277 82.7325 4.21611C107.183 1.66873 129.147 8.5085 147.64 25.3974C162.738 38.8012 172.276 57.3682 174.377 77.4479C176.544 94.6832 172.97 112.152 164.208 127.152C156.044 141.092 145.173 152.405 130.471 159.565C130.069 159.766 129.668 159.966 129.267 160.147C128.473 161.574 128.436 163.3 129.167 164.76C129.481 164.423 129.83 164.12 130.21 163.858C152.414 152.104 167.818 134.633 175.019 110.323C175.641 108.257 176.604 107.234 178.911 107.475C182.04 107.796 182.882 105.71 182.882 103.102C182.902 93.093 182.908 83.0907 182.902 73.0952C182.902 70.949 182.38 68.5821 180.154 68.3414C176.062 67.86 175.561 64.8714 174.738 61.963C170.211 45.385 160.445 30.715 146.898 20.1422C118.616 -2.06205 87.5662 -6.07365 54.992 8.92975C30.782 20.0619 15.3575 39.3778 8.37725 65.2325C7.93595 66.8372 8.13655 68.7427 5.40867 68.181C1.51743 67.3787 0.0531878 69.6653 0.0331271 73.1153C-0.0270405 83.1243 0.0131386 93.1131 0.0131386 103.122C0.0131386 106.452 1.69801 108.217 4.9073 107.435C7.85582 106.712 8.55786 108.177 9.15959 110.423C11.7672 119.932 16.1276 128.871 22.0168 136.779C30.6417 148.473 41.1521 157.86 54.5107 163.838C54.4706 162.594 54.4307 161.33 54.3705 160.087Z" fill="#B5D2F3"/>
<path fill-rule="evenodd" clip-rule="evenodd" d="M54.3907 166.305C51.4221 174.629 43.5192 174.428 36.7998 176.514C41.8544 177.818 46.9893 179.322 52.0439 178.46C55.0526 177.938 55.6343 179.021 56.0755 180.807C56.1157 180.947 56.1357 181.087 56.1758 181.228C56.1958 181.348 56.236 181.489 56.2561 181.629C56.0576 176.478 55.4337 171.353 54.3907 166.305Z" fill="#FE684B"/>
<path fill-rule="evenodd" clip-rule="evenodd" d="M128.425 177.417C134.843 180.325 140.901 177.397 147.099 176.554C141.041 173.987 133.198 175.311 130.009 167.508C126.619 170.357 129.247 174.168 128.425 177.417Z" fill="#FE6446"/>
<path fill-rule="evenodd" clip-rule="evenodd" d="M79.3828 188.088C79.2825 188.629 79.1621 189.171 79.0618 189.712C78.9415 190.354 78.8011 190.996 78.6807 191.658C77.6507 196.16 77.2858 200.789 77.5977 205.398C79.102 206.18 77.9988 208.246 79.3828 209.088L79.3828 188.088Z" fill="#FED6C8"/>
<path fill-rule="evenodd" clip-rule="evenodd" d="M67.6087 180.747C67.2477 187.105 66.8866 193.483 66.5256 199.842C67.1474 199.521 67.7692 199.22 68.391 198.899V180.747H67.6087Z" fill="#FEEBE3"/>
<path fill-rule="evenodd" clip-rule="evenodd" d="M48.7544 224.754H59.1043C58.9238 224.633 58.7232 224.513 58.5427 224.373C57.7805 223.871 57.0183 223.37 56.2561 222.848C53.6289 222.79 51.0355 223.449 48.7544 224.754Z" fill="#FE9166"/>
<path fill-rule="evenodd" clip-rule="evenodd" d="M123.811 224.754H133.88C132.038 223.41 129.775 222.77 127.502 222.948C126.72 224.473 124.634 223.35 123.811 224.754Z" fill="#FE8F64"/>
<path fill-rule="evenodd" clip-rule="evenodd" d="M130.491 159.545C145.193 152.405 156.044 141.092 164.228 127.131C172.99 112.132 176.565 94.6631 174.398 77.4277C172.313 57.3428 162.773 38.7698 147.66 25.3773C129.167 8.50849 107.203 1.64865 82.7526 4.21606C60.7691 6.50268 42.3157 16.5317 27.8539 33.7013C11.988 52.5358 6.69267 74.4592 9.58104 98.2078C12.1284 119.128 22.6388 136.338 38.5648 150.098C42.898 154.055 47.8513 157.273 53.2272 159.625C53.6083 159.786 53.9894 159.946 54.3906 160.087C54.4978 154.828 54.1825 149.569 53.4479 144.361C53.0467 144.08 52.6455 143.8 52.2444 143.499C48.2771 140.43 44.5735 137.035 41.1724 133.349C40.1093 132.266 38.7855 131.344 38.7855 129.578C36.4186 131.283 34.7137 130.1 33.3297 128.214C25.5611 118.023 21.0393 105.729 20.3522 92.9325C19.7906 81.339 20.8336 70.0664 25.7077 59.215C31.6619 45.8112 41.6273 34.5844 54.2301 27.0821C56.3964 25.7583 57.64 26.9418 59.1444 27.9245C60.5881 27.8678 61.9386 27.1962 62.8551 26.0792L62.6745 25.658C61.3909 22.9502 61.3307 19.8813 64.4196 19.1592C67.5286 18.417 69.2937 20.9444 69.3137 24.2138C92.5208 16.5918 114.103 19.6807 133.58 34.5437C148.142 45.6558 156.486 60.5589 159.033 78.7314C162.323 102.099 154.42 121.475 138.133 137.862C136.21 139.834 134.007 141.51 131.594 142.837C131.173 143.057 130.751 143.258 130.33 143.459C129.465 148.97 129.129 154.551 129.327 160.127C129.688 159.946 130.069 159.746 130.491 159.545Z" fill="#E2F5FC"/>
<path fill-rule="evenodd" clip-rule="evenodd" d="M138.093 137.883C154.36 121.495 162.262 102.119 158.993 78.7517C156.446 60.5591 148.101 45.656 133.539 34.5639C114.063 19.701 92.4606 16.6321 69.2736 24.2341C69.2334 24.2538 69.1933 24.2942 69.1532 24.3142C67.3279 25.4776 65.9038 27.9848 63.2762 26.4203C63.1158 26.3199 62.9753 26.2398 62.8149 26.1194C61.9012 27.24 60.549 27.9124 59.1042 27.9647C59.044 28.2054 58.9638 28.4261 58.8835 28.6668C57.2187 33.3403 52.2242 34.5639 48.8746 37.3719C39.8913 44.661 33.05 54.2471 29.0773 65.1121C22.6989 82.8835 24.0027 100.294 32.5474 117.102C33.966 119.829 35.6098 122.432 37.4616 124.885C38.471 126.222 38.9303 127.894 38.7453 129.558V129.619C38.7453 131.364 40.0691 132.306 41.1322 133.39C44.5381 137.071 48.2413 140.465 52.2042 143.539C52.6054 143.82 53.0065 144.121 53.4077 144.401C53.1068 136.418 52.7993 128.435 52.485 120.452C52.465 120.452 52.465 120.432 52.4449 120.432C45.5048 115.879 40.4101 110.062 39.5275 101.397C38.4244 90.7062 42.9173 82.8033 51.6626 77.0467C51.7027 77.0267 51.7429 76.9865 51.783 76.9665C51.5128 71.4354 52.4505 65.9118 54.5309 60.7797C61.2102 43.4295 81.3886 32.0366 98.0166 36.2087C98.0386 36.206 98.0607 36.2132 98.0768 36.2284C109.109 38.0136 118.175 43.0481 124.674 52.2949C129.917 59.4129 132.507 68.1402 131.995 76.9662C138.253 81.72 143.308 87.2961 144.13 95.5399C145.233 106.632 140.499 114.735 131.173 120.392V120.492C130.872 128.154 130.551 135.816 130.25 143.499C130.691 143.298 131.112 143.097 131.513 142.877C133.951 141.561 136.17 139.876 138.093 137.883Z" fill="#CDECF6"/>
<path fill-rule="evenodd" clip-rule="evenodd" d="M111.074 76.0638C117.954 72.674 124.634 74.4993 131.273 76.6856C131.513 76.7658 131.774 76.846 132.015 76.9263C132.533 68.0996 129.942 59.3703 124.694 52.2549C118.195 43.0082 109.129 37.9736 98.0968 36.1885H98.0367C96.3919 36.5094 94.5666 35.8274 92.5408 36.9908C106.1 48.3436 107.965 62.9057 105.298 78.7716C105.719 78.571 106.12 78.3905 106.541 78.1899C108.086 77.4879 109.59 76.8059 111.074 76.0638Z" fill="#FE6B3C"/>
<path fill-rule="evenodd" clip-rule="evenodd" d="M144.17 95.5201C143.348 87.2763 138.293 81.7002 132.035 76.9464C131.794 76.8662 131.534 76.786 131.293 76.7057C124.634 74.5194 117.975 72.6941 111.095 76.0839C109.61 76.8261 108.086 77.5281 106.582 78.2301C106.16 78.4307 105.759 78.6112 105.338 78.8118C104.335 79.9551 103.412 81.1987 102.329 82.2618C95.8305 88.6002 94.9279 96.4428 96.6529 104.747C99.2805 117.403 114.725 127.934 131.133 120.432C131.153 120.412 131.193 120.412 131.213 120.392C140.54 114.716 145.294 106.592 144.17 95.5201ZM119.639 117.684C111.943 117.603 105.054 112.89 102.19 105.746C99.3254 98.6021 101.05 90.4359 106.558 85.0599C112.066 79.6839 120.272 78.1584 127.344 81.1957C134.417 84.2329 138.961 91.2338 138.855 98.93C138.887 103.994 136.858 108.854 133.233 112.391C129.609 115.929 124.701 117.839 119.639 117.684Z" fill="#FE6142"/>
<path fill-rule="evenodd" clip-rule="evenodd" d="M51.6828 77.0066C42.9374 82.7632 38.4445 90.6661 39.5477 101.357C40.4303 110.022 45.525 115.839 52.4651 120.392C52.485 120.392 52.4851 120.412 52.5052 120.412C56.6029 121.684 60.8713 122.32 65.1617 122.297C80.125 122.077 91.4176 106.793 87.1854 92.3108C83.1136 78.4106 68.3108 69.2842 51.8432 76.9263C51.7859 76.9446 51.7319 76.9718 51.6828 77.0066ZM63.6374 117.684C56.7862 117.773 50.4119 114.187 46.9314 108.285C43.4509 102.383 43.3971 95.0696 46.7905 89.1172C50.1839 83.1648 56.5049 79.4852 63.3566 79.4737C70.2359 79.3411 76.6553 82.9175 80.1629 88.8369C83.6704 94.7564 83.7244 102.105 80.3042 108.075C76.884 114.045 70.5179 117.716 63.6374 117.684Z" fill="#FE6143"/>
<path fill-rule="evenodd" clip-rule="evenodd" d="M81.1077 144.081C80.3656 143.338 79.824 142.336 78.5804 142.315C78.3397 149.777 85.1594 157.68 91.8789 157.7C98.9994 157.72 105.197 150.64 105.177 142.516C102.49 143.9 100.785 146.748 97.6957 147.591C91.5378 149.276 85.8815 148.854 81.1077 144.081Z" fill="#070909"/>
<path fill-rule="evenodd" clip-rule="evenodd" d="M105.92 135.496C101.407 138.805 97.094 141.633 91.558 141.533C86.1424 141.433 82.1308 138.063 77.3369 134.794C77.8584 137.883 78.2195 140.089 78.5805 142.315C79.8241 142.356 80.3657 143.338 81.1078 144.081C85.8615 148.854 91.538 149.276 97.6957 147.591C100.785 146.748 102.49 143.92 105.177 142.516C104.455 140.209 106.882 138.143 105.92 135.496Z" fill="#FDFCFB"/>
<path fill-rule="evenodd" clip-rule="evenodd" d="M75.6922 49.2262C74.2731 49.1165 72.872 49.6002 71.8228 50.562C70.7736 51.5238 70.1701 52.8776 70.1562 54.3009C70.2164 58.3927 72.5833 60.1779 75.7324 60.1378C78.6678 60.1108 81.0408 57.7378 81.0678 54.8024C81.1279 51.6733 79.4431 49.146 75.6922 49.2262Z" fill="#FEA777"/>
<path fill-rule="evenodd" clip-rule="evenodd" d="M38.7454 129.538C38.9304 127.874 38.471 126.202 37.4616 124.865C35.6168 122.407 33.9734 119.805 32.5474 117.082C24.0027 100.274 22.6789 82.8635 29.0774 65.0921C33.05 54.2271 39.8913 44.641 48.8746 37.3519C52.2243 34.5438 57.2188 33.3404 58.8836 28.6468C58.9691 28.4167 59.0427 28.1824 59.1042 27.9448C57.5999 26.9619 56.3563 25.7785 54.19 27.1023C41.5872 34.6046 31.6218 45.8314 25.6675 59.2352C20.7935 70.0866 19.7504 81.3592 20.3121 92.9527C21.0119 105.747 25.5324 118.037 33.2896 128.235C34.6736 130.12 36.3986 131.304 38.7453 129.599L38.7454 129.538Z" fill="#FDFEFE"/>
<path fill-rule="evenodd" clip-rule="evenodd" d="M69.1332 24.3142C69.1733 24.2944 69.2134 24.254 69.2535 24.234C69.2134 20.9646 67.4684 18.4372 64.3594 19.1794C61.2705 19.9215 61.3306 22.9904 62.6143 25.6782L62.7949 26.0994C62.9423 26.2091 63.0964 26.3096 63.2562 26.4003C65.8839 27.9848 67.3079 25.4574 69.1332 24.3142Z" fill="#FBFDFE"/>
<path fill-rule="evenodd" clip-rule="evenodd" d="M138.855 98.95C138.995 93.8865 137.081 88.9816 133.549 85.3511C130.016 81.7205 125.166 79.673 120.1 79.6743C113.287 79.5614 106.934 83.1024 103.447 88.9567C99.9604 94.8109 99.8722 102.083 103.216 108.021C106.56 113.958 112.825 117.652 119.639 117.704C124.699 117.852 129.603 115.939 133.225 112.404C136.848 108.868 138.88 104.012 138.855 98.95ZM120.582 101.036C119.026 101.19 117.478 100.675 116.325 99.618C115.173 98.5612 114.525 97.0635 114.544 95.5C114.444 93.8713 115.031 92.2751 116.164 91.1004C117.297 89.9258 118.87 89.2806 120.502 89.3221C124.032 89.5829 126.018 91.6489 126.439 95.3395C125.957 98.629 124.273 100.976 120.582 101.036Z" fill="#FEFEFE"/>
<path fill-rule="evenodd" clip-rule="evenodd" d="M63.3565 79.4938C56.5048 79.5054 50.1839 83.1849 46.7905 89.1373C43.3971 95.0897 43.4509 102.403 46.9314 108.305C50.4119 114.207 56.7862 117.793 63.6374 117.704C70.5179 117.736 76.884 114.065 80.3042 108.095C83.7244 102.125 83.6704 94.7765 80.1628 88.857C76.6553 82.9376 70.2359 79.3612 63.3565 79.4938ZM63.3766 101.036C61.8167 101.179 60.2699 100.65 59.1246 99.5811C57.9793 98.5125 57.3444 97.0059 57.3792 95.4399C57.2929 93.8083 57.8991 92.2161 59.0487 91.0551C60.1982 89.8941 61.7844 89.2722 63.4167 89.3423C66.6955 89.387 69.3175 92.0808 69.2736 95.3597C68.8323 98.7495 66.987 100.996 63.3766 101.036Z" fill="#FEFEFE"/>
<path fill-rule="evenodd" clip-rule="evenodd" d="M120.502 89.3221C118.869 89.2738 117.291 89.9169 116.156 91.0931C115.022 92.2694 114.437 93.8695 114.545 95.5C114.522 97.0646 115.168 98.5645 116.322 99.6221C117.475 100.68 119.025 101.194 120.582 101.036C124.253 100.976 125.958 98.629 126.439 95.3395C126.018 91.6489 124.032 89.5829 120.502 89.3221Z" fill="#090B0B"/>
<path fill-rule="evenodd" clip-rule="evenodd" d="M63.4166 89.3423C61.7843 89.2721 60.1982 89.8941 59.0487 91.0551C57.8991 92.2161 57.2929 93.8083 57.3792 95.4399C57.3444 97.0059 57.9793 98.5124 59.1246 99.5811C60.2698 100.65 61.8166 101.179 63.3765 101.036C66.9869 100.996 68.8323 98.7494 69.2736 95.3596C68.9326 91.6489 66.8868 89.623 63.4166 89.3423Z" fill="#090C0C"/>
</g>
<defs>
<clipPath id="clip0_1_542">
<rect width="512" height="234" fill="white"/>
</clipPath>
</defs>
</svg>
