<svg width="512" height="156" viewBox="0 0 512 156" fill="none" xmlns="http://www.w3.org/2000/svg">
<g clip-path="url(#clip0_1_578)">
<path d="M309.551 3.89505H343.859V17.5533C352.6 6.33537 366.089 -0.144485 380.309 0.0421749C396.022 -0.207715 410.637 8.07702 418.492 21.6876C430.743 4.17645 449.315 0.0421749 462.259 0.0421749C480.116 0.0421749 495.874 8.44059 504.294 23.1594C507.087 28.073 512 38.9173 512 60.2813V151.343H477.67V70.0866C477.67 53.6362 475.917 46.9694 474.51 43.8308C472.346 38.2246 467.151 30.8436 454.899 30.8436C446.783 30.9914 439.228 35.0145 434.574 41.6663C428.622 50.0647 427.929 62.6839 427.929 75.2815V151.343H393.6V70.0866C393.6 53.6362 391.846 46.9694 390.44 43.8308C388.275 38.2246 383.08 30.8436 370.829 30.8436C362.719 30.9948 355.172 35.0179 350.525 41.6663C344.573 50.0647 343.859 62.6839 343.859 75.2815V151.343H309.551V3.89505ZM190.718 3.89505H225.047V17.207C229.148 12.3849 233.992 8.24895 239.398 4.95568C245.814 1.40491 253.09 -0.296012 260.416 0.0421749C269.883 -0.173992 279.223 2.2547 287.386 7.05528L273.295 38.2246C268.117 34.7554 262.016 32.9228 255.784 32.9648C248.424 32.9648 241.065 34.0038 234.42 41.0169C224.961 51.1686 224.961 65.1731 224.961 74.9785V151.343H190.739L190.718 3.89505ZM34.9789 78.1387C34.9789 103.702 51.0831 125.066 75.9537 125.066C97.5991 125.066 117.621 109.308 117.621 78.4851C117.621 46.2551 97.664 30.8652 75.9537 30.8652C51.0831 30.8652 34.9789 51.8829 34.9789 78.1387ZM115.521 3.89505H149.916V151.343H115.543V135.932C104.568 148.852 88.3803 156.176 71.4298 155.889C25.9745 155.889 0 118.074 0 77.4461C0 29.4583 32.9226 0.0421749 71.7978 0.0421749C88.9077 -0.3232 105.169 7.48184 115.586 21.0598L115.521 3.89505Z" fill="#008FBE"/>
</g>
<defs>
<clipPath id="clip0_1_578">
<rect width="512" height="156" fill="white"/>
</clipPath>
</defs>
</svg>
