<svg width="256" height="242" viewBox="0 0 256 242" fill="none" xmlns="http://www.w3.org/2000/svg">
<g clip-path="url(#clip0_1_581)">
<path d="M182.015 66.9131V29.9266H219.142V66.9131H182.015ZM231.644 52.7084H255.901V29.839H231.644V52.7084ZM208.239 18.4588H230.05V0H208.239V18.4588ZM242.286 16.082H256V3.86831H242.286V16.082Z" fill="#00BCDD"/>
<path d="M24.5026 73.2462C24.2065 93.5046 24.378 113.342 27.8432 133.008C30.5269 148.242 35.0059 162.771 44.0492 175.569C56.9855 193.877 74.4837 206.35 94.8428 215.227C97.8074 216.52 100.313 216.775 103.154 215.086C105.578 213.644 108.239 212.597 110.799 211.384C143.318 195.987 163.807 171.473 169.72 135.36C173.068 114.919 173.639 94.4076 173.421 73.8037C173.419 73.6379 173.21 73.474 173.029 73.2088C146.036 70.6156 121.86 60.8047 100.691 43.7216C77.8369 60.5047 52.6825 70.5555 24.5026 73.2462ZM196.875 66.9131C196.937 76.9955 197.225 87.083 197.015 97.1597C196.543 119.791 194.664 142.245 186.979 163.805C176.869 192.166 157.493 212.68 131.743 227.347C122.123 232.825 111.638 236.802 101.471 241.291C100.08 241.905 98.0606 242.031 96.6444 241.52C71.5058 232.462 49.1508 219.153 31.64 198.572C16.5154 180.797 7.73788 160.142 4.52135 137.204C2.73053 124.435 1.90156 111.53 0.610019 98.6891C0.556231 98.1551 0.21009 97.6501 0 97.1312C0 89.3471 0 81.563 0 73.7783C0.383477 69.9056 0.803023 66.036 1.14094 62.1595C1.49404 58.1071 1.76931 54.0483 2.10279 49.6744C41.0326 51.6563 73.8155 38.52 100.8 10.4895C121.906 36.0989 149.322 48.3822 182.015 49.6858C186.517 49.6858 191.019 49.6858 195.702 49.6858C196.109 55.6676 196.492 61.29 196.875 66.9131Z" fill="#0C4062"/>
<path d="M100.69 78.2048C106.981 85.9838 112.941 93.3205 118.864 100.687C128.945 113.225 138.97 125.809 149.104 138.304C150.724 140.301 151.215 142.165 150.443 144.648C148.246 151.7 143.843 160.212 140.245 163.641C127.13 147.376 114.035 131.133 100.688 114.578C87.4824 130.987 74.4543 147.176 61.1212 163.744C60.0309 162.158 58.964 160.909 58.235 159.487C56.1271 155.377 54.2863 151.128 52.0949 147.065C49.8738 142.949 50.7502 139.65 53.6212 136.152C67.2283 119.569 80.676 102.856 94.1831 86.192C96.2207 83.6773 98.2716 81.1727 100.69 78.2048Z" fill="#00BCDD"/>
</g>
<defs>
<clipPath id="clip0_1_581">
<rect width="256" height="242" fill="white"/>
</clipPath>
</defs>
</svg>
