<svg width="512" height="139" viewBox="0 0 512 139" fill="none" xmlns="http://www.w3.org/2000/svg">
<g clip-path="url(#clip0_1_586)">
<path d="M290.927 57.073C295.846 51.008 302.227 49.4779 309.111 49.5719L309.907 49.5898C310.04 49.5939 310.173 49.5986 310.307 49.6038L311.109 49.6414C311.243 49.6487 311.378 49.6565 311.512 49.6648L312.32 49.72C314.648 49.894 316.989 50.3139 319.25 50.9038C327.632 53.0907 332.272 58.7283 333.686 67.0988C334.095 69.5188 334.263 72.004 334.278 74.461C334.317 80.4632 334.32 86.4656 334.315 92.4682L334.303 104.755L334.294 105.297L334.275 105.81C334.081 109.801 332.871 111.089 328.965 111.306L328.463 111.328L327.931 111.339C327.749 111.341 327.563 111.341 327.371 111.341C325.568 111.33 323.76 111.242 321.967 111.066C319.825 110.855 318.864 109.396 318.566 107.435C318.432 106.546 318.424 105.633 318.423 104.731L318.418 84.7227C318.416 81.388 318.412 78.0532 318.404 74.7184C318.4 73.3384 318.298 71.9471 318.1 70.5812C317.622 67.2761 316.19 65.5099 312.881 65.0222C310.172 64.623 307.332 64.5461 304.619 64.8801C300.51 65.3856 298.75 67.6079 298.573 71.9061C298.454 74.7938 298.527 77.6899 298.525 80.5823L298.525 95.7696C298.524 98.3008 298.52 100.832 298.512 103.363C298.508 104.623 298.417 105.891 298.25 107.141C297.892 109.824 297.078 110.901 294.43 111.133C291.753 111.368 289.023 111.185 286.331 110.989C284.646 110.866 283.633 109.693 283.365 108.037C283.155 106.737 283.006 105.411 283.002 104.097L282.985 94.0321L282.986 73.9033C282.986 73.5801 282.981 73.2668 282.97 72.9633L282.942 72.3691C282.639 67.331 280.703 65.1708 275.896 64.6927L275.328 64.645C274.845 64.6113 274.334 64.5927 273.795 64.5882C272.059 64.5737 270.3 64.7303 268.587 65.0215C265.533 65.5407 263.892 67.5448 263.415 70.5152C263.206 71.8173 263.078 73.1469 263.074 74.4646C263.056 81.1339 263.056 87.8034 263.057 94.4729L263.057 104.477C263.057 105.2 263.08 105.928 263.005 106.645C262.667 109.854 261.38 111.185 258.129 111.284C255.61 111.361 253.074 111.215 250.559 111.002C248.79 110.851 247.775 109.674 247.486 107.939C247.328 106.993 247.175 106.031 247.173 105.076L247.161 101.03L247.126 92.9391C247.1 86.1964 247.092 79.4539 247.201 72.7133C247.339 64.1593 250.181 56.8729 258.276 52.6153C262.531 50.3766 267.182 49.6699 271.918 49.5851C274.199 49.5441 276.517 49.6667 278.764 50.0401C284.245 50.9517 287.222 52.7505 290.927 57.073ZM482.102 112.621C481.501 112.612 480.898 112.612 480.296 112.615L478.489 112.625C476.983 112.629 475.481 112.606 473.991 112.451C469.888 112.023 466.773 109.769 465.318 105.964C463.608 101.493 462.164 96.8885 461.033 92.2382C459.458 85.7629 457.963 79.268 456.485 72.7691L454.272 63.0198C453.902 61.3951 453.532 59.7706 453.16 58.1466C453.066 57.7372 452.984 57.3239 452.918 56.9094L452.846 56.4211L452.787 55.9588L452.743 55.5218C452.492 52.55 453.378 51.3949 456.228 51.0933L456.648 51.056L457.096 51.0296L457.572 51.0136C457.653 51.0117 457.736 51.0103 457.82 51.0093C459.628 50.9871 461.439 51.0462 463.246 51.1369C466.32 51.2917 468.12 53.0663 468.84 55.9112C469.77 59.5807 470.578 63.282 471.391 66.9801C473.355 75.9043 475.286 84.8354 477.241 93.7618C478.136 97.849 479.265 98.9818 482.459 99.0648C484.714 99.1232 485.923 98.514 486.562 96.3196C487.33 93.6855 487.962 91.0102 488.565 88.3294L489.164 85.648C491.24 76.3177 493.262 66.9754 495.327 57.6422C495.534 56.7082 495.835 55.7857 496.184 54.8934C497.021 52.758 498.517 51.3414 500.892 51.2598L502.695 51.2006C504.801 51.1392 506.911 51.1197 508.998 51.3044C511.403 51.5176 512.27 52.5543 511.929 54.9521C511.534 57.7221 510.952 60.4686 510.334 63.2052L506.621 79.4632C503.972 91.0587 501.311 102.651 498.546 114.22C496.794 121.553 493.567 128.176 487.345 132.894C482.292 136.726 476.513 138.608 470.2 138.821C467.501 138.912 466.418 138.181 465.694 135.598C465.247 134.003 464.959 132.359 464.706 130.713L464.46 129.066C464.214 127.407 465.082 126.258 466.594 125.701C467.326 125.432 468.074 125.209 468.825 124.995L470.329 124.567C470.579 124.494 470.828 124.419 471.076 124.34C476.873 122.507 480.974 119.012 482.317 112.838C482.242 112.769 482.17 112.697 482.102 112.621ZM360.874 81.1967L360.868 82.2539L360.838 84.3694C360.82 85.7797 360.816 87.1891 360.9 88.5933C361.18 93.2751 363.406 96.1451 367.534 97.1824C371.324 98.135 375.19 98.1937 379.01 97.4319C383.731 96.4906 385.917 94.5656 386.266 89.7648C386.688 83.9734 386.607 78.1077 386.22 72.3087C385.93 67.9721 383.511 65.6014 379.2 65.0989C375.714 64.6924 372.096 64.646 368.621 65.092C363.628 65.7327 361.214 68.6929 360.9 73.7979C360.813 75.2021 360.817 76.6118 360.836 78.0226L360.867 80.139C360.871 80.4916 360.874 80.8442 360.874 81.1967ZM402.781 82.0303C402.753 82.3902 402.728 82.7627 402.705 83.1461L402.641 84.3274L402.514 86.849C402.393 89.0228 402.215 91.3514 401.8 93.6373C400.145 102.76 394.598 108.736 385.696 111.263C377.152 113.689 368.49 113.536 360.021 110.853C351.714 108.222 346.891 102.233 345.523 93.7791C344.192 85.5489 344.051 77.1853 345.561 68.9736C347.393 59.0033 353.806 53.0252 363.542 50.6995C370.864 48.9507 378.262 49.0743 385.57 50.9497C395.201 53.4211 401.098 60.1832 402.146 70.0585C402.259 71.13 402.341 72.205 402.405 73.3068L402.475 74.6434L402.535 76.0149L402.674 79.6555L402.742 81.2202C402.754 81.487 402.767 81.757 402.781 82.0303ZM179.733 86.8254L178.024 86.8216L172.981 86.7965C170.763 86.7911 168.571 86.804 166.38 86.8769C164.866 86.9273 163.276 87.3649 161.889 87.9955C159.635 89.0198 158.703 91.2977 159.043 94.069C159.379 96.8149 160.694 98.7544 163.246 98.9789C166.982 99.3081 170.798 99.4006 174.521 99.0162C177.841 98.6732 179.492 96.4512 179.709 93.0747C179.84 91.0482 179.733 89.0064 179.733 86.8254ZM179.715 74.8677C179.715 74.407 179.722 73.9534 179.732 73.5059L179.762 72.18C179.784 71.088 179.784 70.0258 179.678 68.9745C179.405 66.2822 177.733 64.4268 175.126 64.0286C171.634 63.4949 168.07 63.219 164.537 63.2179C163.015 63.2174 161.494 63.3309 159.973 63.4707L157.691 63.6892C156.55 63.7974 155.408 63.8958 154.265 63.9474C151.572 64.0685 150.5 63.1573 150.163 60.4632C149.949 58.746 150.008 56.9733 150.136 55.2397C150.329 52.6141 151.882 51.0434 154.442 50.6213L155.107 50.514L156.435 50.3128C165.513 49.0021 174.556 49.0258 183.388 52.038C191.381 54.764 195.544 60.7142 195.606 69.1293C195.669 77.5658 195.656 86.0034 195.609 94.4403C195.564 102.588 191.332 108.571 183.49 110.909C174.153 113.693 164.678 113.636 155.306 110.967C148.295 108.97 144.116 104.276 143.314 96.9712C142.548 90.0007 143.626 83.5613 149.878 79.1366C153.413 76.6343 157.5 75.4838 161.748 75.2379C166.381 74.9698 171.03 74.9688 175.675 74.9028L178.056 74.8645L179.715 74.8677ZM206.157 98.3538L206.17 90.6699V71.1445C206.171 58.8891 213.383 51.0132 225.683 49.9037C228.082 49.6872 230.498 49.5733 232.906 49.5733C236.545 49.5733 238.187 50.907 238.62 54.4702C238.887 56.665 238.839 58.929 238.655 61.1394C238.461 63.4724 237.518 64.3016 235.159 64.4938C233.419 64.6356 231.658 64.4999 229.911 64.5855C224.015 64.8734 222.086 66.888 222.075 72.7856L222.066 83.1511L222.07 103.882C222.07 104.304 222.075 104.726 222.07 105.148C222.011 109.701 220.685 111.204 216.406 111.34L215.889 111.35L214.077 111.366C213.171 111.372 212.265 111.368 211.361 111.328C207.717 111.167 206.229 109.687 206.187 106.037C206.158 103.476 206.154 100.915 206.157 98.3538ZM413.111 87.635V71.3628C413.111 59.0262 420.168 51.1752 432.46 49.9294C434.976 49.6745 437.517 49.565 440.046 49.578C443.673 49.5972 445.387 51.1941 445.644 54.7903C445.795 56.8861 445.782 59.0095 445.636 61.106C445.479 63.3744 444.628 64.2417 442.366 64.4473C441.441 64.5314 440.512 64.5587 439.581 64.5734L437.719 64.5991C437.099 64.6108 436.479 64.6301 435.86 64.67C431.435 64.9553 429.609 66.7259 429.106 71.1227C429.036 71.7432 429.02 72.3716 429.016 72.9987L429.004 104.748C429.003 105.648 428.95 106.554 428.837 107.446C428.557 109.647 427.282 111.035 425.078 111.155C422.379 111.301 419.658 111.277 416.96 111.114C414.824 110.985 413.6 109.649 413.346 107.503L413.225 106.5C413.168 105.998 413.123 105.495 413.121 104.992C413.101 99.2065 413.111 93.4205 413.111 87.635Z" fill="#0C4062"/>
<path d="M104.295 38.3414V17.148H125.569V38.3414H104.295ZM132.732 30.202H146.632V17.0978H132.732V30.202ZM119.321 10.5769H131.819V0H119.321V10.5769ZM138.83 9.21501H146.689V2.21655H138.83V9.21501Z" fill="#00BCDD"/>
<path d="M14.0401 41.9702C13.8704 53.5783 13.9686 64.945 15.9542 76.2141C17.492 84.9429 20.0584 93.2681 25.2403 100.602C32.6528 111.092 42.6793 118.239 54.3451 123.325C56.0439 124.066 57.4794 124.213 59.1075 123.245C60.4966 122.419 62.0209 121.818 63.4883 121.124C82.1214 112.301 93.8615 98.2541 97.25 77.5615C99.1681 65.8489 99.4955 54.0958 99.3708 42.2896C99.3697 42.1946 99.2497 42.1007 99.146 41.9488C83.6791 40.4629 69.8261 34.8412 57.6962 25.0526C44.6007 34.6693 30.1872 40.4284 14.0401 41.9702ZM112.81 38.3413C112.845 44.1186 113.01 49.8987 112.89 55.6727C112.62 68.6406 111.543 81.5066 107.139 93.8605C101.346 110.112 90.2439 121.866 75.4888 130.27C69.977 133.409 63.9688 135.688 58.1433 138.26C57.3463 138.612 56.1889 138.684 55.3774 138.392C40.973 133.201 28.1635 125.575 18.1298 113.782C9.46339 103.597 4.43382 91.7618 2.59075 78.6185C1.5646 71.3013 1.0896 63.9069 0.349542 56.5491C0.318722 56.2431 0.120382 55.9537 0 55.6564C0 51.1961 0 46.7358 0 42.2751C0.219733 40.0561 0.460134 37.8388 0.65376 35.6175C0.856088 33.2955 1.01382 30.9698 1.20491 28.4635C23.5118 29.5992 42.2964 22.072 57.7586 6.0105C69.8522 20.6847 85.5621 27.7231 104.295 28.47C106.875 28.47 109.454 28.47 112.137 28.47C112.371 31.8977 112.59 35.1193 112.81 38.3413Z" fill="#0C4062"/>
<path d="M57.6957 44.8115C61.3003 49.2689 64.7152 53.4728 68.1091 57.6938C73.886 64.8783 79.6302 72.0889 85.4372 79.2487C86.3654 80.393 86.6468 81.4609 86.2041 82.8833C84.9455 86.9245 82.4222 91.8018 80.3605 93.7667C72.8461 84.4465 65.3425 75.1398 57.6946 65.6535C50.1276 75.056 42.6625 84.3323 35.0226 93.8258C34.3979 92.9167 33.7865 92.201 33.3688 91.3862C32.161 89.0312 31.1062 86.5967 29.8505 84.2688C28.5778 81.9101 29.08 80.0199 30.7251 78.0151C38.522 68.5133 46.2275 58.9368 53.9672 49.3882C55.1347 47.9473 56.3099 46.5121 57.6957 44.8115Z" fill="#00BCDD"/>
</g>
<defs>
<clipPath id="clip0_1_586">
<rect width="512" height="139" fill="white"/>
</clipPath>
</defs>
</svg>
