<svg width="512" height="102" viewBox="0 0 512 102" fill="none" xmlns="http://www.w3.org/2000/svg">
<g clip-path="url(#clip0_1_595)">
<path d="M499.094 77.0339L499.095 77.0421C499.405 80.5718 502.228 85.0641 507.119 85.0641H509.981C511.09 85.0641 512 84.1548 512 83.0448V20.1056H511.987C511.929 19.0453 511.053 18.1961 509.981 18.1961H501.113C500.041 18.1961 499.165 19.0453 499.106 20.1056H499.095V25.2198C493.662 18.5227 485.096 15.7429 476.506 15.7429C456.98 15.7429 441.152 31.5834 441.152 51.1248C441.152 70.6672 456.98 86.508 476.506 86.508V86.51C485.096 86.51 494.457 83.1749 499.094 77.0339ZM476.54 74.1247C464.122 74.1247 454.054 63.8284 454.054 51.1248C454.054 38.4235 464.122 28.1264 476.54 28.1264C488.958 28.1264 499.024 38.4235 499.024 51.1248C499.024 63.7014 489.158 73.9186 476.912 74.1217L476.54 74.1247ZM429.941 79.2068L429.937 46.6385H429.938C429.938 28.2799 418.365 15.8949 399.91 15.8949C391.101 15.8949 383.879 20.993 381.329 25.3724L381.286 25.1215L381.239 24.8704C381.231 24.8286 381.222 24.7867 381.213 24.7449L381.158 24.4939L381.098 24.2435L381.033 23.9939L380.961 23.7456C380.911 23.5804 380.858 23.4163 380.8 23.2537L380.71 23.0108C379.731 20.4733 377.656 18.3486 373.327 18.3486H370.456C369.346 18.3486 368.438 19.2586 368.438 20.3688V83.3131H368.45C368.508 84.3719 369.385 85.2223 370.457 85.2223H379.325C379.461 85.2223 379.594 85.206 379.722 85.1809L379.78 85.1664L379.893 85.1302L380.026 85.0916C380.048 85.0847 380.069 85.0773 380.09 85.0687L380.167 85.0327L380.422 84.8901C380.481 84.8522 380.537 84.809 380.591 84.7637L380.67 84.6945C380.683 84.6812 380.699 84.673 380.711 84.6612C380.799 84.5757 380.88 84.4815 380.952 84.3837C381.174 84.077 381.309 83.7099 381.331 83.3131H381.342V46.1336C381.342 36.2737 389.33 28.2799 399.183 28.2799C409.036 28.2799 417.023 36.2737 417.023 46.1336L417.032 77.2106L417.034 77.1998L417.038 77.2853V83.3131H417.05C417.108 84.3719 417.985 85.2223 419.057 85.2223H427.925C428.061 85.2223 428.194 85.206 428.322 85.1809C428.375 85.1711 428.423 85.1501 428.474 85.1358L428.62 85.0938C428.644 85.0861 428.668 85.078 428.691 85.0687C428.764 85.0385 428.83 84.9965 428.898 84.9581C428.94 84.9346 428.984 84.9172 429.025 84.8901C429.106 84.8368 429.181 84.7718 429.255 84.7073L429.312 84.6591C429.368 84.6052 429.42 84.5483 429.469 84.4892L429.555 84.3796C429.75 84.1106 429.877 83.7927 429.919 83.4488L429.932 83.3131H429.943V79.2079L429.941 79.2068ZM337.587 77.0339L337.588 77.0421C337.898 80.5718 340.721 85.0641 345.612 85.0641H348.474C349.583 85.0641 350.491 84.1548 350.491 83.0448V20.1056H350.48C350.422 19.0453 349.545 18.1961 348.474 18.1961H339.606C338.534 18.1961 337.658 19.0453 337.598 20.1056H337.588V25.2198C332.154 18.5227 323.588 15.7429 314.998 15.7429C295.473 15.7429 279.645 31.5834 279.645 51.1248C279.645 70.6672 295.473 86.508 314.998 86.508V86.51C323.588 86.51 332.95 83.1749 337.587 77.0339ZM315.032 74.1247C302.615 74.1247 292.548 63.8284 292.548 51.1248C292.548 38.4235 302.615 28.1264 315.032 28.1264C327.451 28.1264 337.516 38.4235 337.516 51.1248C337.516 63.7014 327.651 73.9186 315.404 74.1217L315.032 74.1247ZM227.203 68.0278C233.123 72.132 239.585 74.1253 245.794 74.1253C247.014 74.1253 248.242 73.9948 249.424 73.7408L249.777 73.6609C249.952 73.6191 250.127 73.5746 250.3 73.5273L250.644 73.4291C250.759 73.3951 250.872 73.36 250.985 73.3236L251.321 73.2109C252.1 72.9395 252.842 72.6095 253.526 72.2232L253.816 72.0542C256.201 70.6175 257.826 68.4678 257.826 65.7141C257.826 62.0054 254.222 59.9252 249.586 58.3822L249.046 58.2065C248.956 58.1776 248.865 58.1489 248.773 58.1203L248.222 57.951L247.663 57.7856L247.099 57.6237L246.242 57.3864L245.377 57.1548L244.215 56.8528L241.31 56.1126L240.167 55.8147L239.323 55.5879L238.768 55.4343L238.222 55.2784C238.131 55.2522 238.041 55.2259 237.951 55.1994L237.417 55.0394C237.329 55.0124 237.241 54.9854 237.154 54.9581L236.634 54.7931C236.463 54.7374 236.294 54.6812 236.126 54.6242C227.752 51.7765 220.539 45.8893 220.539 36.3555C220.539 21.7671 233.528 15.7419 245.65 15.7419C253.331 15.7419 261.257 18.2768 266.395 21.9079C267.366 22.6445 267.479 23.4411 267.384 24.0097L267.361 24.128L267.332 24.2387L267.3 24.3411L267.266 24.4346L267.231 24.5187L267.181 24.6256L267.137 24.7076L267.086 24.7902L262.182 31.8005C262.151 31.8443 262.119 31.8879 262.086 31.9308L261.983 32.0577C261.429 32.7019 260.569 33.1487 259.397 32.4853L259.227 32.3826L258.372 31.8435L258.065 31.6563L257.728 31.456L257.487 31.3163L257.232 31.1725C257.188 31.1482 257.144 31.1238 257.099 31.0992L256.824 30.9504L256.536 30.7991L256.235 30.6459L255.921 30.4916L255.594 30.3367L255.255 30.1819C255.139 30.1304 255.022 30.0791 254.902 30.0279L254.537 29.8754L254.16 29.725C251.923 28.8549 249.056 28.1258 245.65 28.1258C238.254 28.1258 233.799 31.5443 233.799 35.7813C233.799 38.188 235.098 39.8132 237.187 41.0414L237.47 41.2028C237.901 41.4416 238.363 41.6651 238.852 41.8765L239.182 42.0157C239.238 42.0386 239.293 42.0613 239.35 42.084L239.691 42.2181C239.748 42.2402 239.806 42.2622 239.864 42.284L240.216 42.4137L240.574 42.5405L240.939 42.6647C241.001 42.6852 241.062 42.7056 241.124 42.7259L241.499 42.8467L242.071 43.024L242.656 43.1973L243.252 43.3674L243.655 43.4792L244.063 43.5901L244.891 43.8098L246.372 44.1919L247.794 44.5782L248.865 44.8744L249.579 45.0757C249.698 45.1096 249.817 45.1436 249.936 45.1778L250.649 45.3849C250.768 45.4198 250.887 45.4548 251.005 45.4901L251.716 45.704L252.424 45.9231C262.203 48.9917 271.085 53.678 271.085 65.7141C271.085 78.5679 259.071 86.511 245.794 86.511C235.732 86.511 227.166 83.6403 219.981 78.3641C219.077 77.4584 219.101 76.5919 219.261 76.0478L219.296 75.94L219.333 75.8419L219.371 75.7541L219.409 75.6771L219.46 75.5834L219.53 75.4734L224.411 68.4984C225.247 67.4002 226.267 67.5492 226.895 67.8499L227.008 67.9078C227.044 67.9275 227.078 67.9476 227.111 67.9677L227.203 68.0278ZM193.112 77.0339L193.113 77.0421C193.423 80.5718 196.246 85.0641 201.137 85.0641H203.999C205.108 85.0641 206.018 84.1548 206.018 83.0448V20.1056H206.005C205.947 19.0453 205.071 18.1961 203.999 18.1961H195.131C194.059 18.1961 193.183 19.0453 193.123 20.1056H193.113V25.2198C187.68 18.5227 179.113 15.7429 170.524 15.7429C150.999 15.7429 135.17 31.5834 135.17 51.1248C135.17 70.6672 150.999 86.508 170.524 86.508V86.51C179.113 86.51 188.475 83.1749 193.112 77.0339ZM170.558 74.1247C158.14 74.1247 148.073 63.8284 148.073 51.1248C148.073 38.4235 158.14 28.1264 170.558 28.1264C182.976 28.1264 193.042 38.4235 193.042 51.1248C193.042 63.7014 183.176 73.9186 170.93 74.1217L170.558 74.1247Z" fill="#0D0E10"/>
<path d="M85.6049 53.5316C72.4649 53.5316 61.8132 64.1838 61.8132 77.3243C61.8132 90.4643 72.4649 101.116 85.6049 101.116C98.7448 101.116 109.396 90.4643 109.396 77.3243C109.396 64.1838 98.7448 53.5316 85.6049 53.5316ZM23.7918 53.5337C10.6521 53.5337 0 64.1838 0 77.3243C0 90.4643 10.6521 101.116 23.7918 101.116C36.932 101.116 47.5846 90.4643 47.5846 77.3243C47.5846 64.1838 36.932 53.5337 23.7918 53.5337ZM78.4896 23.7913C78.4896 36.932 67.838 47.5852 54.6985 47.5852C41.5581 47.5852 30.9065 36.932 30.9065 23.7913C30.9065 10.6531 41.5581 0 54.6985 0C67.838 0 78.4896 10.6531 78.4896 23.7913Z" fill="#F06A6A"/>
</g>
<defs>
<clipPath id="clip0_1_595">
<rect width="512" height="102" fill="white"/>
</clipPath>
</defs>
</svg>
