<svg width="256" height="256" viewBox="0 0 256 256" fill="none" xmlns="http://www.w3.org/2000/svg">
<g clip-path="url(#clip0_1_599)">
<path d="M63.1726 0C28.3066 0 0 28.3051 0 63.1708V192.425C0 227.291 28.3072 255.597 63.1726 255.597H192.427C227.293 255.597 255.597 227.291 255.597 192.425V63.1708C255.597 28.3051 227.294 0 192.427 0L63.1726 0Z" fill="#E40046"/>
<path d="M108.902 127.708H125.419C127.369 127.669 129.188 128.686 130.175 130.369C131.161 132.051 131.161 134.136 130.175 135.818C129.188 137.501 127.369 138.518 125.419 138.479H63.2271C61.2772 138.518 59.4581 137.501 58.4716 135.818C57.485 134.136 57.485 132.051 58.4716 130.369C59.4581 128.686 61.2772 127.669 63.2271 127.708H97.2372C97.2535 127.669 97.2704 127.63 97.2877 127.59L129.475 50.1729C130.296 48.2002 132.206 46.8995 134.342 46.8579C136.564 46.8164 138.583 48.1434 139.426 50.1991L201.369 201.241C202.144 203.029 201.892 205.097 200.71 206.647C199.528 208.197 197.601 208.988 195.671 208.714C193.741 208.441 192.109 207.146 191.405 205.329L134.408 66.3548L108.902 127.708ZM93.8333 164.049C93.8142 164.097 93.7943 164.145 93.7737 164.192L76.6653 205.351C75.9402 207.149 74.3057 208.418 72.3849 208.675C70.4641 208.932 68.5533 208.138 67.381 206.594C66.2088 205.051 65.9558 202.997 66.7187 201.216L82.1678 164.049H51.8409C49.891 164.088 48.0722 163.07 47.0858 161.388C46.0993 159.706 46.0993 157.621 47.0858 155.939C48.0722 154.257 49.891 153.239 51.8409 153.278L114.04 153.278C115.989 153.239 117.808 154.257 118.794 155.939C119.78 157.621 119.78 159.705 118.794 161.388C117.808 163.07 115.989 164.088 114.04 164.049H93.8333Z" fill="white"/>
</g>
<defs>
<clipPath id="clip0_1_599">
<rect width="256" height="256" fill="white"/>
</clipPath>
</defs>
</svg>
