<svg width="512" height="142" viewBox="0 0 512 142" fill="none" xmlns="http://www.w3.org/2000/svg">
<g clip-path="url(#clip0_1_606)">
<path d="M189.65 81.0789H167.521L163.363 91.4202C163.13 92.4442 162.164 93.1294 161.121 93.0111C160.527 93.0065 159.957 92.7734 159.53 92.3603C158.972 92.0813 158.892 91.5367 158.881 91.0225L158.879 90.7693C158.828 90.3999 158.948 90.0275 159.205 89.7569L174.246 52.6947C174.674 51.4986 175.324 50.3944 176.163 49.4405C177.627 48.1028 179.869 48.1028 181.333 49.4405C182.191 50.3808 182.843 51.4889 183.25 52.6947L198.292 89.7569C198.292 90.0823 198.617 90.4077 198.617 90.7693C198.612 91.3635 198.379 91.9332 197.966 92.3603C197.53 92.7588 196.966 92.9895 196.375 93.0111C195.348 93.0682 194.418 92.4082 194.133 91.4202L189.65 81.0789ZM178.802 53.3817L169.22 77.5716H188.42L178.802 53.3817ZM208.524 88.1659C208.199 87.8405 208.199 87.8405 208.199 87.5151C208.199 87.1896 208.524 86.5026 209.211 85.9241C209.53 85.5267 210.001 85.2896 210.5 85.2633L210.802 85.2733C211.128 85.2733 211.453 85.2733 211.453 85.5987C212.923 86.9295 214.661 87.9284 216.551 88.5275C218.671 89.487 220.99 89.9211 223.313 89.793C225.999 89.9059 228.661 89.2405 230.979 87.8766C232.926 86.583 234.041 84.3532 233.907 82.019C233.978 80.9238 233.868 79.8244 233.582 78.7648C233.219 77.9117 232.677 77.1469 231.991 76.523C231.256 75.8012 230.365 75.2571 229.388 74.932C228.212 74.4291 227.004 74.0063 225.772 73.6665L217.745 71.0631C215.026 70.2994 212.541 68.8702 210.513 66.9049C208.763 65.0984 207.823 62.6573 207.91 60.1433C207.83 55.8019 210.504 51.9126 214.528 50.4075L215.141 50.1998C217.58 49.2489 220.191 48.8178 222.807 48.9343C225.555 48.9933 228.271 49.5317 230.834 50.5252C232.903 51.3137 234.842 52.4109 236.583 53.7795C236.912 54.1338 237.137 54.5715 237.234 55.045C237.25 55.4504 237.095 55.8388 236.815 56.1206L236.583 56.3105C236.229 56.6393 235.791 56.8644 235.318 56.9614C234.992 56.9614 234.305 56.9614 234.052 56.636C232.633 55.6242 231.119 54.7523 229.532 54.0326C227.471 53.2593 225.296 52.8317 223.096 52.767C220.41 52.6541 217.748 53.3196 215.431 54.6834C213.646 55.8036 212.545 57.7472 212.502 59.854C212.439 61.3996 213.015 62.9029 214.093 64.0122C215.747 65.2494 217.575 66.2363 219.516 66.9411L227.543 69.5444L228.893 70.0876L230.729 70.7915L231.702 71.1354C232.889 71.6847 233.967 72.4442 234.884 73.3772C235.746 74.0902 236.429 74.9915 236.882 76.0082L237.125 76.6314C237.688 77.941 237.911 79.3709 237.776 80.7896C238.045 84.4105 236.484 87.9256 233.618 90.1546C230.145 92.5459 225.965 93.6928 221.758 93.4089C216.824 93.4988 212.058 91.6109 208.524 88.1659ZM250.829 88.1659C250.504 87.8405 250.504 87.8405 250.504 87.5151C250.504 87.1896 250.829 86.5026 251.516 85.9241C251.835 85.5267 252.306 85.2896 252.805 85.2633L253.107 85.2733C253.433 85.2733 253.758 85.2733 253.758 85.5987C255.228 86.9295 256.967 87.9284 258.856 88.5275C260.976 89.487 263.295 89.9211 265.618 89.793C268.304 89.9059 270.966 89.2405 273.284 87.8766C275.231 86.583 276.346 84.3532 276.212 82.019C276.283 80.9238 276.173 79.8244 275.887 78.7648C275.524 77.9117 274.982 77.1469 274.296 76.523C273.561 75.8012 272.67 75.2571 271.693 74.932C270.517 74.4291 269.309 74.0063 268.077 73.6665L260.339 71.0631C257.62 70.2994 255.135 68.8702 253.107 66.9049C251.516 65.2626 250.595 63.0959 250.506 60.8267L250.504 60.1433C250.42 55.5848 253.373 51.5248 257.736 50.1998C260.175 49.2489 262.786 48.8178 265.401 48.9343C268.149 48.9933 270.866 49.5317 273.428 50.5252C275.498 51.3137 277.436 52.4109 279.177 53.7795C279.506 54.1338 279.731 54.5715 279.828 55.045C279.844 55.4504 279.689 55.8388 279.41 56.1206L279.177 56.3105C278.823 56.6393 278.385 56.8644 277.912 56.9614C277.586 56.9614 276.899 56.9614 276.646 56.636C275.227 55.6242 273.714 54.7523 272.127 54.0326C270.065 53.2593 267.891 52.8317 265.69 52.767C263.004 52.6541 260.342 53.3196 258.025 54.6834C256.24 55.8036 255.139 57.7472 255.096 59.854C255.033 61.4173 255.623 62.9364 256.723 64.0484C258.378 65.2856 260.205 66.2724 262.147 66.9772L270.174 69.5806L272.171 70.3776L273.359 70.8277L274.332 71.1716C275.519 71.7209 276.597 72.4804 277.514 73.4134C278.377 74.1264 279.059 75.0277 279.512 76.0444L279.756 76.6676C280.318 77.9772 280.542 79.4071 280.407 80.8258C280.675 84.4466 279.115 87.9617 276.249 90.1908C272.775 92.5821 268.596 93.7289 264.389 93.445C259.334 93.6312 254.427 91.7208 250.829 88.1659ZM294.328 92.4326C293.851 92.0501 293.605 91.4487 293.677 90.8416V51.0676C293.681 50.4734 293.915 49.9037 294.328 49.4766C294.607 48.9188 295.151 48.8391 295.665 48.8277L318.951 48.8258C319.546 48.8304 320.115 49.0635 320.542 49.4766C320.871 49.831 321.096 50.2687 321.193 50.7422C321.213 51.249 320.966 51.7292 320.542 52.0077C320.085 52.3716 319.533 52.5974 318.951 52.6586H298.414V68.0981H317.939C318.533 68.1027 319.103 68.3358 319.53 68.749C319.859 69.1033 320.084 69.541 320.181 70.0145C320.197 70.4199 320.042 70.8083 319.762 71.0901L319.53 71.28C319.093 71.6786 318.53 71.9092 317.939 71.9309H298.414V88.7083H319.855C320.45 88.7129 321.019 88.946 321.446 89.3591C321.775 89.7134 322 90.1512 322.097 90.6247C322.117 91.1314 321.87 91.6117 321.446 91.8902C320.989 92.2541 320.437 92.4798 319.855 92.5411H296.172C295.666 93.0111 294.979 92.758 294.328 92.4326ZM357.449 91.6997L357.098 91.4563C356.498 91.0966 356.048 90.5313 355.833 89.8653L339.887 54.7196V91.2032C339.903 91.6086 339.748 91.997 339.469 92.2788L339.236 92.4687C338.82 92.9019 338.246 93.1467 337.645 93.1467C337.165 93.1467 336.701 92.99 336.322 92.7056L336.054 92.4687C335.663 92.1624 335.425 91.6999 335.403 91.2032V52.4778C335.358 51.5789 335.718 50.7143 336.371 50.1145L336.669 49.8744C337.366 49.2018 338.304 48.8371 339.272 48.862C341.189 48.862 342.454 49.8744 343.431 52.1162L359.123 86.575L374.816 52.1162C375.828 50.1998 377.058 48.862 378.974 48.862C379.942 48.8371 380.88 49.2018 381.577 49.8744C382.323 50.5434 382.778 51.4779 382.843 52.4778V91.2032C382.859 91.6086 382.704 91.997 382.424 92.2788L382.192 92.4687C381.756 92.8673 381.192 93.0979 380.601 93.1196C380.007 93.1149 379.437 92.8819 379.01 92.4687C378.619 92.1624 378.381 91.6999 378.359 91.2032V54.7196L362.341 89.8653C362.08 90.5058 361.641 91.0579 361.076 91.4563L360.401 91.826C360.101 91.99 359.832 92.1072 359.485 92.1072C358.775 92.2091 358.057 92.0625 357.449 91.6997ZM397.487 92.4326C396.929 92.1536 396.849 91.6091 396.838 91.0948L396.836 51.0676C396.841 50.4734 397.074 49.9037 397.487 49.4766C398.051 49.0817 398.716 48.8559 399.403 48.8258H411.263C421.532 48.8258 426.63 52.6586 426.63 60.1072C426.594 62.5988 425.671 64.9958 424.027 66.8687C422.459 68.6404 420.302 69.7707 417.97 70.0612L417.266 70.123C420.254 70.1675 423.117 71.3283 425.293 73.3772C427.294 75.4572 428.353 78.2679 428.221 81.1512C428.213 82.7131 427.868 84.2549 427.209 85.671C426.579 87.0948 425.697 88.3931 424.606 89.5038C423.333 90.7262 421.782 91.6199 420.086 92.1072C417.904 92.8187 415.619 93.1609 413.324 93.1196H398.861C398.472 93.0587 398.105 92.9085 397.787 92.6828L397.487 92.4326ZM410.576 68.2427C413.386 68.4487 416.19 67.7792 418.603 66.3264C420.319 65.0014 421.29 62.9464 421.245 60.8022L421.207 60.2156C421.176 59.1018 420.956 58.0012 420.556 56.9614C420.193 56.1083 419.651 55.3436 418.965 54.7196C418.364 54.0788 417.582 53.6372 416.723 53.454C415.789 53.0793 414.8 52.8594 413.794 52.8032H400.994V68.7128L410.576 68.3874V68.2427ZM412.167 89.1783C414.977 89.3843 417.781 88.7148 420.194 87.262C422.059 85.5307 423.02 83.0352 422.798 80.5004C423.032 77.9273 421.802 75.4406 419.616 74.0642C416.658 72.558 413.343 71.895 410.034 72.1478H401.356V89.2507L412.167 89.1783ZM440.384 92.6687L440.045 92.4326C439.487 92.1536 439.408 91.6091 439.396 91.0948L439.394 51.0676C439.399 50.4734 439.632 49.9037 440.045 49.4766C440.609 49.0817 441.274 48.8559 441.962 48.8258C442.556 48.8304 443.125 49.0635 443.553 49.4766C444.11 49.7556 444.19 50.3002 444.201 50.8144L444.203 89.1783H464.741C465.335 89.183 465.905 89.416 466.332 89.8292C466.661 90.1835 466.886 90.6213 466.983 91.0947C466.999 91.5002 466.844 91.8886 466.565 92.1703L466.332 92.3603C465.896 92.7588 465.332 92.9895 464.741 93.0111H441.962C441.409 93.0673 440.857 92.9453 440.384 92.6687ZM503.141 81.0789H480.904L476.746 91.4202C476.513 92.4442 475.547 93.1294 474.504 93.0111C473.91 93.0065 473.34 92.7734 472.913 92.3603C472.355 92.0813 472.275 91.5367 472.264 91.0225L472.262 90.7693C472.211 90.3999 472.331 90.0275 472.588 89.7569L487.629 52.6947C488.057 51.4986 488.707 50.3944 489.546 49.4405C491.01 48.1028 493.252 48.1028 494.716 49.4405C495.574 50.3808 496.226 51.4889 496.633 52.6947L511.675 89.7569C511.675 90.0823 512 90.4077 512 90.7693C511.995 91.3635 511.762 91.9332 511.349 92.3603C510.913 92.7588 510.349 92.9895 509.758 93.0111C508.731 93.0682 507.801 92.4082 507.516 91.4202L503.141 81.0789ZM492.294 53.3817L482.712 77.5716H501.912L492.294 53.3817Z" fill="#263238"/>
<path d="M115.923 26.48L75.5345 2.94107C71.8359 0.887551 67.6497 -0.124635 63.4215 0.0122534C59.1749 -0.0803885 54.9768 0.92866 51.2362 2.94107L11.4621 26.48C4.48367 31.1971 0.214243 38.9952 0 47.4156V94.4213C0.230641 102.855 4.52848 110.656 11.5345 115.357L51.5977 138.896C55.2167 140.918 59.3132 141.93 63.4576 141.825C67.6056 141.963 71.7109 140.949 75.3175 138.896L115.706 115.429C122.734 110.661 127.217 102.96 127.892 94.4936V47.488C127.681 38.9203 123.186 31.0297 115.923 26.48ZM92.565 94.4936C92.1943 94.747 91.7464 94.8622 91.2994 94.819C90.2271 94.7356 89.2595 94.1442 88.696 93.2281L72.678 60.9388L56.6599 93.1558C56.1195 94.0947 55.1385 94.6942 54.0565 94.7467C53.7311 94.7467 53.0441 94.7467 52.791 94.4213C51.3551 93.6409 50.8214 91.8458 51.5977 90.4077L69.6768 54.6111L63.5661 42.4258L38.2554 93.3365C37.5365 94.7444 35.8124 95.3029 34.4045 94.584C32.9967 93.8651 32.4382 92.141 33.1571 90.7332L60.9266 34.8326C61.3206 33.7629 62.3983 33.1043 63.5299 33.2416C64.6205 33.266 65.6142 33.8733 66.1333 34.8326L72.7141 48.4281L75.9322 54.5026L94.0113 90.6608C94.6312 92.1197 93.9941 93.808 92.565 94.4936Z" fill="#263238"/>
</g>
<defs>
<clipPath id="clip0_1_606">
<rect width="512" height="142" fill="white"/>
</clipPath>
</defs>
</svg>
