<svg width="256" height="284" viewBox="0 0 256 284" fill="none" xmlns="http://www.w3.org/2000/svg">
<g clip-path="url(#clip0_1_603)">
<path d="M232.043 53.0016L151.197 5.88371C143.794 1.77319 135.414 -0.252899 126.951 0.0211096C118.45 -0.164331 110.047 1.85548 102.559 5.88371L22.9437 53.0016C8.97494 62.4437 0.42885 78.0531 0 94.9083V188.999C0.461674 205.881 9.06465 221.496 23.0885 230.906L103.283 278.024C110.527 282.073 118.727 284.098 127.023 283.887C135.326 284.164 143.543 282.135 150.763 278.024L231.609 231.051C245.676 221.506 254.649 206.09 256 189.144V95.0531C255.579 77.9031 246.581 62.1086 232.043 53.0016ZM185.287 189.144C184.545 189.651 183.648 189.882 182.754 189.795C180.607 189.628 178.67 188.445 177.543 186.611L145.479 121.978L113.416 186.466C112.334 188.346 110.371 189.546 108.205 189.651C107.553 189.651 106.178 189.651 105.671 188.999C102.797 187.437 101.729 183.844 103.283 180.965L139.472 109.311L127.24 84.9202L76.5756 186.828C75.1366 189.646 71.6855 190.764 68.8674 189.325C66.0493 187.886 64.9313 184.435 66.3704 181.617L121.956 69.7209C122.745 67.5796 124.902 66.2613 127.168 66.5362C129.351 66.585 131.34 67.8006 132.379 69.7209L145.552 96.9349L151.993 109.094L188.182 181.472C189.423 184.392 188.148 187.772 185.287 189.144Z" fill="#263238"/>
</g>
<defs>
<clipPath id="clip0_1_603">
<rect width="256" height="284" fill="white"/>
</clipPath>
</defs>
</svg>
