<svg width="256" height="366" viewBox="0 0 256 366" fill="none" xmlns="http://www.w3.org/2000/svg">
<g clip-path="url(#clip0_1_610)">
<path d="M182.022 9.14729C185.004 12.849 186.524 17.844 189.565 27.8339L256 246.073C231.437 233.331 204.735 224.141 176.574 219.183L133.318 73.0084C132.61 70.6166 130.413 68.9758 127.919 68.9758C125.419 68.9758 123.218 70.6252 122.516 73.0252L79.7837 219.109C51.4922 224.045 24.668 233.252 0 246.04L66.7608 27.7834C69.8112 17.8106 71.3366 12.8242 74.3187 9.12934C76.951 5.86739 80.3752 3.33408 84.2646 1.77079C88.6702 0 93.8845 0 104.314 0H151.997C162.44 0 167.661 0 172.071 1.77448C175.963 3.34102 179.39 5.87946 182.022 9.14729Z" fill="black"/>
<path d="M189.972 256.459C179.02 265.824 157.16 272.211 131.981 272.211C101.076 272.211 75.1732 262.59 68.2997 249.65C65.8425 257.066 65.2915 265.553 65.2915 270.975C65.2915 270.975 63.6724 297.598 82.189 316.115C82.189 306.5 89.9837 298.706 99.5983 298.706C116.078 298.706 116.06 313.083 116.045 324.748C116.044 325.097 116.044 325.445 116.044 325.789C116.044 343.494 126.865 358.672 142.254 365.069C139.955 360.341 138.666 355.033 138.666 349.422C138.666 332.536 148.579 326.249 160.101 318.941C169.268 313.127 179.454 306.668 186.473 293.71C190.136 286.949 192.215 279.205 192.215 270.975C192.215 265.914 191.429 261.037 189.972 256.459Z" fill="#FF5D01"/>
</g>
<defs>
<clipPath id="clip0_1_610">
<rect width="256" height="366" fill="white"/>
</clipPath>
</defs>
</svg>
