<svg width="512" height="169" viewBox="0 0 512 169" fill="none" xmlns="http://www.w3.org/2000/svg">
<g clip-path="url(#clip0_1_614)">
<path d="M84.0257 4.22261C85.4021 5.9314 86.104 8.2372 87.5078 12.8488L118.176 113.593C106.837 107.711 94.5104 103.469 81.5108 101.18L61.5429 33.7024C61.2162 32.5983 60.2019 31.8409 59.0506 31.8409C57.8963 31.8409 56.8804 32.6023 56.5561 33.7102L36.8301 101.146C23.77 103.424 11.3873 107.675 0 113.578L30.8184 12.8255C32.2265 8.22181 32.9307 5.91996 34.3073 4.21432C35.5224 2.70853 37.1031 1.53909 38.8986 0.817439C40.9323 0 43.3394 0 48.1536 0H70.1655C74.9861 0 77.3963 0 79.4319 0.819144C81.2289 1.54229 82.8105 2.7141 84.0257 4.22261Z" fill="black"/>
<path d="M87.6954 118.388C82.6398 122.711 72.5488 125.659 60.9253 125.659C46.659 125.659 34.7017 121.218 31.5288 115.245C30.3945 118.668 30.1401 122.586 30.1401 125.089C30.1401 125.089 29.3927 137.378 37.9404 145.926C37.9404 141.488 41.5386 137.89 45.977 137.89C53.5845 137.89 53.576 144.527 53.569 149.912C53.5688 150.073 53.5686 150.233 53.5686 150.392C53.5686 158.565 58.5638 165.571 65.6677 168.525C64.6066 166.342 64.0114 163.892 64.0114 161.302C64.0114 153.507 68.5878 150.604 73.9065 147.231C78.1382 144.547 82.8402 141.565 86.0805 135.583C87.7712 132.462 88.7312 128.888 88.7312 125.089C88.7312 122.752 88.3683 120.501 87.6954 118.388Z" fill="#FF5D01"/>
<path d="M188.585 112.018C201.413 112.018 211.034 107.454 214.981 99.6838C214.981 103.384 215.226 107.208 215.844 110.168H236.935L236.875 109.902C235.939 105.653 235.466 99.8929 235.456 92.3971L235.456 73.1651C235.456 55.1572 224.847 46.6467 201.29 46.6467C180.691 46.6467 166.877 55.1572 165.274 69.095H187.229C187.969 63.0512 193.025 59.7209 201.29 59.7209C209.429 59.7209 213.993 63.0512 213.993 69.9585V71.8083L191.669 73.7818C180.923 74.881 174.771 76.705 170.461 79.6138L170.331 79.7023C165.767 82.7855 163.424 87.473 163.424 93.2698C163.424 104.864 173.044 112.018 188.585 112.018ZM196.726 99.1902C189.571 99.1902 185.255 96.3536 185.255 91.7899C185.255 87.103 188.831 84.6359 197.837 83.526L214.363 81.7993V85.4995C214.363 93.7634 207.21 99.1902 196.726 99.1902ZM281.42 112.018C302.883 112.018 313.859 104.001 313.859 91.0498C313.859 80.319 307.692 74.3985 292.769 72.425L274.142 70.3284C268.84 69.588 266.619 68.2313 266.619 65.2711C266.619 61.6944 270.196 60.0908 278.336 60.0908C289.56 60.0908 297.331 62.6811 303.623 67.7382L313.612 57.7474C306.705 50.5937 294.742 46.6467 279.941 46.6467C259.096 46.6467 247.502 54.0471 247.502 66.5046C247.502 77.3587 254.655 83.4025 269.455 85.3758L286.231 87.3493C292.891 88.2128 294.865 89.4464 294.865 92.653C294.865 96.3536 291.164 98.3271 282.53 98.3271C269.703 98.3271 261.069 94.8733 255.272 88.4596L243.925 97.8335C251.448 107.208 264.276 112.018 281.42 112.018ZM331.274 62.4345V88.4596C331.274 103.754 339.907 111.525 358.409 111.525C364.083 111.525 368.523 110.908 372.717 109.674V93.6397L372.362 93.7175C370.208 94.1838 367.594 94.6265 364.206 94.6265C356.436 94.6265 352.612 91.1731 352.612 83.8959V62.4345H372.84V48.4967H352.612V25.9253L331.274 33.8191V48.4967H317.459V62.4345H331.274ZM403.474 48.4967H383.986V110.168H405.325V87.103C405.325 80.4421 406.805 74.3985 410.876 70.5749C414.083 67.6145 418.647 66.0115 425.059 66.0115C427.403 66.0115 429.253 66.2578 431.349 66.5046V47.1399C429.994 46.8933 429.006 46.8933 427.28 46.8933C415.068 46.8933 406.805 53.9238 403.474 65.3948V48.4967ZM473.516 112.018C496.089 112.018 512 100.054 512 79.2091C512 58.4875 496.089 46.6467 473.516 46.6467C450.822 46.6467 434.911 58.4875 434.911 79.2091C434.911 100.054 450.822 112.018 473.516 112.018ZM473.516 97.8335C463.156 97.8335 456.619 91.1731 456.619 79.2091C456.619 67.2446 463.156 60.8309 473.516 60.8309C483.754 60.8309 490.292 67.2446 490.292 79.2091C490.292 91.1731 483.754 97.8335 473.516 97.8335Z" fill="black"/>
</g>
<defs>
<clipPath id="clip0_1_614">
<rect width="512" height="169" fill="white"/>
</clipPath>
</defs>
</svg>
