<svg width="512" height="53" viewBox="0 0 512 53" fill="none" xmlns="http://www.w3.org/2000/svg">
<g clip-path="url(#clip0_1_620)">
<path d="M66.0226 1.93147C63.3442 3.21935 61.2951 4.94513 59.8712 7.10665C58.4465 9.26961 57.7353 11.6383 57.7353 14.2133C57.7353 17.5187 58.5081 20.1668 60.0552 22.1585C61.603 24.1516 63.4311 25.6208 65.5431 26.5675C67.6537 27.5157 70.4538 28.4997 73.9412 29.5203C76.4936 30.2011 78.4948 30.8318 79.9449 31.4159C81.3927 31.9986 82.5958 32.7769 83.554 33.748C84.5115 34.7198 84.9903 35.9841 84.9903 37.5378C84.9903 39.6771 84.069 41.4868 82.2278 42.9689C80.3867 44.4517 77.869 45.1913 74.6771 45.1913C69.6194 45.1913 65.2968 43.3215 61.7131 39.5789L56.2621 44.8279C58.03 46.9171 60.497 48.7153 63.665 50.221C66.8323 51.7282 70.503 52.48 74.6771 52.48C78.3608 52.48 81.602 51.7999 84.4007 50.4396C87.2001 49.08 89.3476 47.2582 90.8461 44.9727C92.344 42.6894 93.0936 40.2103 93.0936 37.5378C93.0936 34.2339 92.3201 31.5858 90.773 29.5934C89.2259 27.6017 87.3964 26.1311 85.2858 25.1836C83.173 24.2361 80.3736 23.2521 76.8876 22.2316C74.3331 21.5514 72.3319 20.9193 70.884 20.3367C69.4347 19.7533 68.2324 18.9757 67.2749 18.0039C66.3166 17.0327 65.8379 15.7699 65.8379 14.2133C65.8379 12.2704 66.6853 10.6306 68.3794 9.29398C70.0735 7.95736 72.4181 7.28941 75.4144 7.28941C77.6242 7.28941 79.6494 7.73948 81.4912 8.63749C83.3331 9.53765 84.8918 10.594 86.1687 11.8088L91.6197 6.55982C89.9495 4.81111 87.7035 3.28027 84.8794 1.96802C82.0554 0.656484 78.9004 0 75.4144 0C71.8285 0 68.6981 0.6443 66.0226 1.93147ZM322.402 7.55243C324.665 7.91507 326.806 8.65971 328.816 9.80354C331.764 11.4799 334.083 13.7768 335.778 16.6923C337.472 19.6078 338.319 22.7906 338.319 26.2407C338.319 29.6908 337.472 32.8736 335.778 35.7891C334.083 38.7046 331.764 41.0001 328.816 42.6765C325.87 44.3535 322.653 45.1913 319.167 45.1913C315.679 45.1913 312.463 44.3535 309.517 42.6765C309.156 42.4715 308.806 42.2565 308.463 42.0329L305.596 49.1259C309.697 51.357 314.22 52.48 319.167 52.48C324.224 52.48 328.841 51.3147 333.015 48.9819C337.188 46.649 340.467 43.4784 342.85 39.4693C345.23 35.4609 346.422 31.0511 346.422 26.2407C346.422 21.4296 345.23 17.0198 342.85 13.0107C340.467 9.00229 337.188 5.83095 333.015 3.49886C330.567 2.13071 327.961 1.17536 325.209 0.609899L322.402 7.55243ZM216.179 7.55243C218.442 7.91507 220.582 8.65971 222.593 9.80354C225.54 11.4799 227.861 13.7768 229.555 16.6923C231.249 19.6078 232.096 22.7906 232.096 26.2407C232.096 29.6908 231.249 32.8736 229.555 35.7891C227.861 38.7046 225.54 41.0001 222.593 42.6765C219.646 44.3535 216.429 45.1913 212.943 45.1913C209.456 45.1913 206.24 44.3535 203.293 42.6765C202.933 42.4715 202.582 42.2565 202.24 42.0329L199.374 49.1259C203.475 51.357 207.996 52.48 212.943 52.48C218.001 52.48 222.618 51.3147 226.792 48.9819C230.965 46.649 234.243 43.4784 236.626 39.4693C239.007 35.4609 240.199 31.0511 240.199 26.2407C240.199 21.4296 239.007 17.0198 236.626 13.0107C234.243 9.00229 230.965 5.83095 226.792 3.49886C224.343 2.13071 221.738 1.17536 218.985 0.609899L216.179 7.55243ZM471.853 0.728869V51.7518H479.957V32.8005H492.112L502.792 51.7518H512L500.361 31.4883C503.356 30.2248 505.739 28.2811 507.507 25.6573C509.275 23.0328 510.158 20.0701 510.158 16.764C510.158 13.7518 509.434 11.0319 507.985 8.60094C506.537 6.17209 504.523 4.25281 501.945 2.84309C499.368 1.43409 496.457 0.728869 493.216 0.728869H471.853ZM479.957 8.01756H493.216C495.819 8.01756 497.942 8.83243 499.588 10.46C501.232 12.0883 502.056 14.1897 502.056 16.764C502.056 19.2917 501.232 21.3816 499.588 23.0328C497.942 24.6855 495.819 25.5111 493.216 25.5111H479.957V8.01756ZM422.719 0.728869V51.7518H459.919V44.4624H430.822V28.9369H453.289V21.6482H430.822V8.01756H459.183V0.728869H422.719ZM402.757 0.728869L383.31 25.438H383.162L363.716 0.728869H356.276V51.7518H364.378V14.4319H364.673L383.162 37.9026L401.652 14.4319H401.946V51.7518H410.05V0.728869H402.757ZM286.561 0.728869V37.9757H286.339L258.2 0.728869H250.834V51.7518H258.936V14.505H259.158L287.297 51.7518H294.663V0.728869H286.561ZM151.376 0.728869V51.7518H159.479V32.8005H171.633L182.315 51.7518H191.522L179.884 31.4883C182.878 30.2248 185.261 28.2811 187.029 25.6573C188.796 23.0328 189.68 20.0701 189.68 16.764C189.68 13.7518 188.956 11.0319 187.508 8.60094C186.058 6.17209 184.046 4.25281 181.467 2.84309C178.889 1.43409 175.979 0.728869 172.738 0.728869H151.376ZM159.479 8.01756H172.738C175.341 8.01756 177.464 8.83243 179.109 10.46C180.754 12.0883 181.578 14.1897 181.578 16.764C181.578 19.2917 180.754 21.3816 179.109 23.0328C177.464 24.6855 175.341 25.5111 172.738 25.5111H159.479V8.01756ZM100.872 0.728869V8.01756H116.341V51.7518H124.444V8.01756H139.913V0.728869H100.872ZM20.5988 0.795521L0 51.7518H8.31339L13.4631 38.6487H36.2036L41.4178 51.7518H50.0252L36.7244 18.8488H28.4023L33.326 31.3693H16.4051L28.4269 0.795521H20.5988Z" fill="url(#paint0_linear_1_620)"/>
</g>
<defs>
<linearGradient id="paint0_linear_1_620" x1="-409.088" y1="2597.08" x2="50710.8" y2="7813.2" gradientUnits="userSpaceOnUse">
<stop stop-color="#3F2870"/>
<stop offset="1" stop-color="#9377D1"/>
</linearGradient>
<clipPath id="clip0_1_620">
<rect width="512" height="53" fill="white"/>
</clipPath>
</defs>
</svg>
