<svg width="256" height="256" viewBox="0 0 256 256" fill="none" xmlns="http://www.w3.org/2000/svg">
<g clip-path="url(#clip0_1_623)">
<path d="M75.7929 117.949C71.9734 113.869 66.0221 114.1 63.4262 119.292L0.791181 244.565C-0.37 246.886 -0.246323 249.643 1.11803 251.851C2.48239 254.059 4.8928 255.403 7.48821 255.402H94.7164C97.5716 255.469 100.198 253.846 101.415 251.262C120.223 212.374 108.828 153.245 75.7929 117.949Z" fill="url(#paint0_linear_1_623)"/>
<path d="M121.756 4.01143C86.7234 59.5163 89.0347 120.989 112.11 167.141L154.17 251.262C155.439 253.799 158.031 255.401 160.867 255.401H248.094C250.69 255.401 253.1 254.057 254.464 251.85C255.829 249.642 255.952 246.885 254.791 244.564C254.791 244.564 137.445 9.83664 134.493 3.96377C131.853 -1.29378 125.149 -1.36526 121.756 4.01143Z" fill="#2681FF"/>
</g>
<defs>
<linearGradient id="paint0_linear_1_623" x1="11013" y1="2331.75" x2="2231.5" y2="11764.6" gradientUnits="userSpaceOnUse">
<stop stop-color="#0052CC"/>
<stop offset="0.923" stop-color="#2684FF"/>
</linearGradient>
<clipPath id="clip0_1_623">
<rect width="256" height="256" fill="white"/>
</clipPath>
</defs>
</svg>
