<svg width="512" height="127" viewBox="0 0 512 127" fill="none" xmlns="http://www.w3.org/2000/svg">
<g clip-path="url(#clip0_1_649)">
<path d="M112.32 117.811C111.522 118.608 110.67 119.349 109.772 120.031L86.9211 120.036C88.3804 119.075 89.8185 118.034 91.1904 116.943H113.13C112.863 117.242 112.611 117.52 112.32 117.811ZM115.358 114.127H94.4877C95.0386 113.619 95.6001 113.079 96.143 112.536C96.633 112.046 97.1309 111.548 97.5917 111.034L117.124 111.026C116.607 112.098 116.014 113.132 115.35 114.12L115.358 114.127ZM105.029 122.867C101.816 124.324 98.3276 125.072 94.8002 125.06C91.2762 125.068 87.7915 124.319 84.5825 122.862H105.013L105.029 122.867ZM118.295 108.208H100.073C100.894 107.207 101.686 106.166 102.438 105.112L119.1 105.109C118.894 106.158 118.621 107.192 118.281 108.206L118.295 108.208ZM119.508 102.292L104.311 102.286C104.941 101.28 105.553 100.239 106.122 99.1928H119.545C119.563 99.5504 119.569 99.9212 119.577 100.284C119.579 100.949 119.547 101.621 119.497 102.281L119.508 102.292ZM119.264 96.3696L119.28 96.3749H107.574C108.053 95.3658 108.511 94.325 108.932 93.2788H118.562C118.862 94.293 119.096 95.3254 119.264 96.3696ZM117.543 90.4529H109.973C110.325 89.4386 110.649 88.4004 110.945 87.3622H115.93C116.539 88.3533 117.078 89.3861 117.543 90.4529ZM113.906 84.5442L113.917 84.5389L111.681 84.5495L111.952 83.2192C111.997 82.9984 112.04 82.7786 112.081 82.5605C112.725 83.1885 113.334 83.8507 113.906 84.5442Z" fill="black"/>
<path d="M94.0059 110.033C91.3692 112.67 88.4725 115.033 85.3612 117.089C79.3606 121.049 72.639 123.789 65.5799 125.153C55.0939 127.187 44.243 126.138 34.3414 122.131C30.9937 120.767 27.7894 119.074 24.7752 117.078C18.5362 112.951 13.1937 107.609 9.06719 101.37C5.11086 95.3729 2.37332 88.656 1.0106 81.6019C-1.0235 71.1148 0.0270982 60.2629 4.03513 50.3607C5.39615 47.0117 7.08527 43.8056 9.07778 40.7892C13.6011 33.95 19.5822 28.1967 26.592 23.9424C33.931 19.5108 42.2059 16.8595 50.7538 16.201C54.9683 15.8691 59.2068 16.0201 63.387 16.6512C57.288 29.8808 60.0789 45.5094 70.3798 55.8103C80.6807 66.1113 96.3094 68.9022 109.539 62.8032C110.812 71.1924 110.139 79.7622 107.571 87.8496C104.97 95.9856 100.505 103.398 94.5364 109.498L94.0059 110.033Z" fill="black"/>
<path d="M105.672 60.0382L123.761 41.9493C120.607 50.2953 114.018 56.8837 105.672 60.0382ZM98.9795 61.7305C97.0809 61.991 95.1624 62.0761 93.2482 61.9848L125.71 29.5227C125.802 31.4369 125.717 33.3554 125.456 35.254L98.9795 61.7305ZM88.7803 61.4419C87.3169 61.1576 85.876 60.7682 84.4686 60.2766L123.999 20.7457C124.491 22.153 124.881 23.594 125.165 25.0574L88.7803 61.4419ZM80.9541 58.8014C79.7569 58.2064 78.5997 57.5341 77.4899 56.7885L120.509 13.7697C121.253 14.8804 121.925 16.0385 122.519 17.2365L80.9541 58.8014ZM74.6429 54.6353C74.0143 54.0986 73.4025 53.5327 72.8075 52.9377C72.4808 52.611 72.1639 52.28 71.8567 51.9445L115.667 8.13381C116.005 8.4428 116.336 8.75973 116.661 9.08461C117.256 9.67962 117.821 10.2914 118.358 10.92L74.6429 54.6353ZM69.6002 49.2007C68.8249 48.1252 68.1199 47.0008 67.4894 45.8345L109.557 3.76651C110.721 4.39994 111.843 5.10766 112.916 5.88527L69.6002 49.2007ZM65.895 42.4286C65.3589 41.0744 64.919 39.6841 64.5787 38.2679L101.985 0.86116C103.402 1.20152 104.792 1.64137 106.146 2.17744L65.895 42.4286ZM63.8663 33.9801C63.6941 32.1732 63.6799 30.3548 63.8239 28.5454L92.271 0.0984053C94.0803 -0.0456902 95.8987 -0.0315112 97.7056 0.140781L63.8663 33.9801ZM64.9257 22.4434C67.8834 12.1824 75.9053 4.16049 86.1663 1.20281L64.9257 22.4434Z" fill="black"/>
<path d="M195.184 96.644H203.6L181.591 35.8811H172.392L150.294 96.644H158.71L163.617 83.0479H190.273L195.184 96.644ZM187.992 76.5495H165.894L176.939 45.6868L187.992 76.5495ZM214.997 83.4749C214.997 93.1195 219.825 96.6253 228.323 96.6253H235.515V89.8834H229.642C224.735 89.8834 222.979 88.2167 222.979 83.4824V55.1628H235.519V48.5858H222.979V36.4879H215.001V48.5858H208.772V55.1628H214.997V83.4749ZM290.749 72.5306C291.11 65.9468 288.682 59.5153 284.061 54.8117C279.44 50.1081 273.053 47.5669 266.464 47.8105C259.878 47.5808 253.499 50.1265 248.882 54.8269C244.264 59.5273 241.832 65.9505 242.178 72.5306C242.178 87.786 252.523 97.4306 266.115 97.4306C272.764 97.6634 279.207 95.1058 283.886 90.3763C288.565 85.6469 291.054 79.1765 290.749 72.5306ZM250.328 72.5306C250.328 60.4327 257.958 54.7321 266.374 54.7321C274.614 54.7321 282.595 60.4327 282.595 72.5306C282.595 84.7184 274.442 90.4153 266.115 90.4153C257.789 90.4153 250.332 84.7147 250.332 72.5306H250.328ZM370.625 96.644H378.517V68.3095C378.517 54.5448 370.011 47.7094 359.041 47.7094C351.715 47.4394 344.975 51.6908 342.062 58.4177C338.997 51.5131 331.961 47.2425 324.421 47.7094C318.348 47.4774 312.596 50.4361 309.252 55.5112V48.5858H301.274V96.6328H309.252V70.1822C309.252 59.8372 314.777 54.6647 322.848 54.6647C330.74 54.6647 335.998 59.6612 335.998 69.4818V96.6627H343.89V70.1822C343.89 59.8372 349.415 54.6647 357.486 54.6647C365.378 54.6647 370.637 59.6612 370.637 69.4818L370.625 96.644ZM391.581 96.644H399.559V48.597H391.581V96.644ZM395.701 40.7915C397.123 40.7779 398.48 40.1951 399.469 39.1734C400.459 38.1528 400.999 36.7782 400.968 35.3568C400.999 33.9354 400.459 32.5607 399.469 31.5401C398.48 30.5185 397.123 29.9357 395.701 29.9221C394.253 29.8989 392.857 30.4637 391.832 31.4877C390.808 32.5124 390.243 33.9083 390.267 35.3568C390.243 36.8052 390.808 38.2012 391.832 39.2258C392.858 40.2507 394.255 40.8157 395.705 40.7915H395.701ZM410.17 72.5306C410.17 87.786 419.908 97.4306 433.579 97.4306C443.931 98.1251 453.287 91.2842 455.764 81.2089H447.172C445.538 87.2429 439.81 91.2345 433.583 90.6775C424.815 90.6775 418.328 84.4525 418.328 72.5269C418.328 60.7773 424.815 54.5486 433.583 54.5486C439.785 54.0815 445.462 58.037 447.172 64.0172H455.764C453.307 53.9343 445.505 47.7955 433.579 47.7955C419.901 47.7955 410.17 57.4401 410.17 72.5156V72.5306ZM511.965 72.5306C512.325 65.9468 509.898 59.5153 505.277 54.8117C500.656 50.1081 494.268 47.5669 487.679 47.8105C481.094 47.5808 474.715 50.1265 470.097 54.8269C465.479 59.5273 463.047 65.9505 463.393 72.5306C463.393 87.786 473.742 97.4306 487.331 97.4306C493.98 97.6656 500.425 95.1088 505.105 90.379C509.785 85.6491 512.274 79.1775 511.969 72.5306H511.965ZM471.544 72.5306C471.544 60.4327 479.173 54.7321 487.589 54.7321C495.829 54.7321 503.811 60.4327 503.811 72.5306C503.811 84.7184 495.657 90.4153 487.331 90.4153C479.005 90.4153 471.547 84.7184 471.547 72.5306H471.544Z" fill="black"/>
</g>
<defs>
<clipPath id="clip0_1_649">
<rect width="512" height="127" fill="white"/>
</clipPath>
</defs>
</svg>
