<svg width="256" height="257" viewBox="0 0 256 257" fill="none" xmlns="http://www.w3.org/2000/svg">
<g clip-path="url(#clip0_1_646)">
<path d="M129.047 33.8995C116.63 60.8328 122.312 92.6505 143.283 113.622C164.254 134.593 196.072 140.275 223.005 127.858C225.598 144.937 224.227 162.384 218.999 178.849C213.704 195.413 204.614 210.503 192.462 222.923L191.382 224.011C186.014 229.379 180.117 234.191 173.783 238.375C161.567 246.438 147.882 252.017 133.511 254.793C112.163 258.935 90.0722 256.798 69.914 248.641C63.0986 245.863 56.575 242.417 50.4386 238.353C37.737 229.953 26.8604 219.076 18.4595 206.374C10.405 194.165 4.83173 180.49 2.05743 166.129C-2.0837 144.779 0.0551672 122.686 8.21493 102.527C10.9858 95.7089 14.4246 89.1817 18.481 83.0409C27.6898 69.1171 39.8665 57.4044 54.1374 48.7433C69.0786 39.7212 85.9251 34.3236 103.327 32.9828C111.907 32.3071 120.536 32.6146 129.047 33.8995ZM213.79 250.129L213.823 250.14C207.283 253.106 200.18 254.628 192.999 254.604C185.825 254.621 178.731 253.095 172.198 250.129H213.79ZM230.316 238.078C229.772 238.688 229.26 239.254 228.667 239.847C227.042 241.468 225.309 242.978 223.48 244.365L176.959 244.376C179.93 242.419 182.857 240.3 185.65 238.078H230.316ZM238.447 226.033C237.396 228.216 236.188 230.321 234.835 232.331L234.851 232.347H192.363C193.485 231.312 194.628 230.212 195.733 229.106C196.731 228.109 197.744 227.095 198.682 226.049L238.447 226.033ZM242.47 213.988C242.051 216.122 241.495 218.228 240.804 220.291L240.831 220.296H203.735C205.406 218.258 207.018 216.139 208.549 213.993L242.47 213.988ZM243.376 201.942C243.413 202.67 243.424 203.425 243.44 204.164C243.446 205.517 243.381 206.887 243.278 208.229L243.3 208.251L212.362 208.24C213.645 206.191 214.89 204.072 216.05 201.942H243.376ZM241.375 189.902C241.986 191.967 242.463 194.069 242.804 196.194L242.836 196.205H219.004C219.98 194.151 220.913 192.032 221.77 189.902H241.375ZM236.016 177.857C237.257 179.874 238.354 181.977 239.299 184.149H223.889C224.606 182.084 225.264 179.97 225.868 177.857H236.016ZM228.181 168.081C229.273 169.147 230.316 170.26 231.308 171.419L231.888 172.109L227.367 172.131L227.919 169.422C228.009 168.973 228.097 168.525 228.181 168.081ZM255.928 60.1039C256.114 64.0009 255.94 67.9067 255.41 71.7719L201.508 125.674C197.643 126.205 193.737 126.378 189.84 126.192L255.928 60.1039ZM252.445 42.2353C253.446 45.1003 254.239 48.034 254.817 51.0132L180.744 125.087C177.764 124.508 174.831 123.715 171.966 122.714L252.445 42.2353ZM251.959 85.4025C245.537 102.394 232.124 115.807 215.133 122.229L251.959 85.4025ZM245.338 28.0331C246.854 30.2944 248.221 32.652 249.431 35.0911L164.811 119.711C162.373 118.5 160.017 117.131 157.758 115.613L245.338 28.0331ZM235.482 16.5592C236.168 17.1883 236.842 17.8335 237.504 18.4949C238.715 19.7063 239.867 20.9518 240.96 22.2315L151.962 111.23C150.682 110.137 149.437 108.985 148.225 107.773C147.56 107.108 146.915 106.434 146.29 105.751L235.482 16.5592ZM223.043 7.66807C225.412 8.95763 227.696 10.3984 229.88 11.9816L141.696 100.165C140.117 97.9759 138.682 95.6868 137.399 93.3124L223.043 7.66807ZM207.627 1.75319C210.511 2.44612 213.341 3.34159 216.098 4.43295L134.153 86.3784C133.061 83.6215 132.166 80.7909 131.473 77.9078L207.627 1.75319ZM198.914 0.286608L130.022 69.1784C129.672 65.4999 129.643 61.7978 129.936 58.1143L187.85 0.200339C191.534 -0.0930185 195.236 -0.0641522 198.914 0.286608ZM175.422 2.44874L132.179 45.6915C138.201 24.8015 154.532 8.47014 175.422 2.44874Z" fill="black"/>
</g>
<defs>
<clipPath id="clip0_1_646">
<rect width="256" height="257" fill="white"/>
</clipPath>
</defs>
</svg>
