<svg width="256" height="249" viewBox="0 0 256 249" fill="none" xmlns="http://www.w3.org/2000/svg">
<g clip-path="url(#clip0_1_655)">
<path d="M167.876 46.3687L144.196 62.1734L119.801 25.6145L143.481 9.80981L167.876 46.3687Z" fill="url(#paint0_linear_1_655)"/>
<path d="M187.129 156.2L227.589 216.83L179.391 248.995L138.931 188.363L131.872 177.787L180.071 145.623L187.129 156.2Z" fill="url(#paint1_linear_1_655)"/>
<path d="M126.422 196.71L135.33 210.059L98.6437 234.541L82.6768 210.615L90.6916 205.267L119.364 186.133L126.422 196.71Z" fill="url(#paint2_linear_1_655)"/>
<path d="M207.172 127.537L217.462 120.67L233.428 144.596L209.745 160.401L200.837 147.052L214.23 138.114L207.172 127.537ZM200.837 147.052L193.779 136.475L207.172 127.537L214.23 138.114L200.837 147.052Z" fill="url(#paint3_linear_1_655)"/>
<path d="M41.1095 130.967L33.0956 136.315L8.69849 99.7565L45.3849 75.2744L62.4856 100.901L69.782 111.834L41.1095 130.967Z" fill="url(#paint4_linear_1_655)"/>
<path d="M130.489 71.3225L82.2895 103.487L74.9941 92.5538L34.9121 32.4911L83.1114 0.326416L123.193 60.3891L130.489 71.3225Z" fill="url(#paint5_linear_1_655)"/>
<path d="M157.59 53.2377L144.197 62.1749L136.901 51.2425L119.8 25.616L143.483 9.81128L167.88 46.3702L157.59 53.2377Z" fill="url(#paint6_linear_1_655)"/>
<path d="M97.7504 215.844L90.6917 205.267L119.364 186.133L126.422 196.71L97.7504 215.844Z" fill="#714896"/>
<path d="M200.837 147.052L193.779 136.475L207.172 127.537L214.23 138.114L200.837 147.052Z" fill="#6F4795"/>
<path d="M41.1093 130.967L33.814 120.035L62.4855 100.901L69.7819 111.834L41.1093 130.967Z" fill="#88519F"/>
<path d="M144.197 62.1748L136.9 51.2423L150.295 42.3042L157.59 53.2376L144.197 62.1748Z" fill="#85509E"/>
<path d="M187.129 156.2L138.931 188.363L131.872 177.787L180.071 145.623L187.129 156.2Z" fill="#8D166A"/>
<path d="M123.193 60.3892L130.489 71.3226L82.2895 103.487L74.9941 92.5539L123.193 60.3892Z" fill="#A70D6F"/>
<path d="M27.4387 51.6531L36.5362 65.2859L22.9034 74.3834L13.8059 60.7506L27.4387 51.6531Z" fill="#9E61AD"/>
<path d="M76.5681 215.084L85.6656 228.717L72.0328 237.815L62.9353 224.182L76.5681 215.084Z" fill="#8053A3"/>
<path d="M40.7043 228.814L0.791748 168.518L214.089 25.8557L255.941 85.1894L40.7043 228.814Z" fill="url(#paint7_linear_1_655)"/>
</g>
<defs>
<linearGradient id="paint0_linear_1_655" x1="-18540.7" y1="-5942.77" x2="13427.5" y2="16771.5" gradientUnits="userSpaceOnUse">
<stop stop-color="#C06FBB"/>
<stop offset="1" stop-color="#6E4D9B"/>
</linearGradient>
<linearGradient id="paint1_linear_1_655" x1="7114.04" y1="8365.24" x2="-10619.9" y2="-10858.7" gradientUnits="userSpaceOnUse">
<stop stop-color="#6E4D9B"/>
<stop offset="0.14" stop-color="#77327A"/>
<stop offset="0.29" stop-color="#B31777"/>
<stop offset="0.84" stop-color="#CD0F7E"/>
<stop offset="1" stop-color="#ED2C89"/>
</linearGradient>
<linearGradient id="paint2_linear_1_655" x1="-12144.1" y1="-33389.6" x2="10286.5" y2="6784.89" gradientUnits="userSpaceOnUse">
<stop stop-color="#C06FBB"/>
<stop offset="1" stop-color="#6E4D9B"/>
</linearGradient>
<linearGradient id="paint3_linear_1_655" x1="-32365.7" y1="-18430.7" x2="4297.28" y2="11460.4" gradientUnits="userSpaceOnUse">
<stop stop-color="#C06FBB"/>
<stop offset="1" stop-color="#6E4D9B"/>
</linearGradient>
<linearGradient id="paint4_linear_1_655" x1="-8548.77" y1="-14020.7" x2="25551.3" y2="16090.1" gradientUnits="userSpaceOnUse">
<stop stop-color="#C06FBB"/>
<stop offset="1" stop-color="#6E4D9B"/>
</linearGradient>
<linearGradient id="paint5_linear_1_655" x1="18298.1" y1="23218.4" x2="521.301" y2="3878.96" gradientUnits="userSpaceOnUse">
<stop stop-color="#6E4D9B"/>
<stop offset="0.14" stop-color="#77327A"/>
<stop offset="0.29" stop-color="#B31777"/>
<stop offset="0.84" stop-color="#CD0F7E"/>
<stop offset="1" stop-color="#ED2C89"/>
</linearGradient>
<linearGradient id="paint6_linear_1_655" x1="-18539.9" y1="-7254.46" x2="13918.7" y2="20566.1" gradientUnits="userSpaceOnUse">
<stop stop-color="#C06FBB"/>
<stop offset="1" stop-color="#6E4D9B"/>
</linearGradient>
<linearGradient id="paint7_linear_1_655" x1="2935.9" y1="18221.6" x2="18434.1" y2="-1202.19" gradientUnits="userSpaceOnUse">
<stop stop-color="#6E4D9B"/>
<stop offset="0.14" stop-color="#77327A"/>
<stop offset="0.53" stop-color="#B31777"/>
<stop offset="0.79" stop-color="#CD0F7E"/>
<stop offset="1" stop-color="#ED2C89"/>
</linearGradient>
<clipPath id="clip0_1_655">
<rect width="256" height="249" fill="white"/>
</clipPath>
</defs>
</svg>
