<svg width="256" height="226" viewBox="0 0 256 226" fill="none" xmlns="http://www.w3.org/2000/svg">
<g clip-path="url(#clip0_1_673)">
<path d="M155.894 58.366H100.062L128.023 106.513L155.894 58.366Z" fill="#63C4B1"/>
<path d="M94.613 61.4802L66.7241 109.712H122.568L94.613 61.4802Z" fill="#63C4B1"/>
<path d="M122.567 115.98H66.7222L94.6111 164.246L122.567 115.98Z" fill="#63C4B1"/>
<path d="M61.3633 119.1L33.3142 167.32H89.2401L61.3633 119.1Z" fill="#63C4B1"/>
<path d="M161.26 61.4802L133.395 109.712H189.23L161.26 61.4802Z" fill="#63C4B1"/>
<path d="M189.232 115.98H133.393L161.261 164.246L189.232 115.98Z" fill="#63C4B1"/>
<path d="M128.022 3.79468L100.064 52.097H155.893L128.022 3.79468Z" fill="#63C4B1"/>
<path d="M89.2411 173.6H33.3142L61.3644 222.182L89.2411 173.6Z" fill="#63C4B1"/>
<path d="M194.598 119.1L166.649 167.32H222.557L194.598 119.1Z" fill="#63C4B1"/>
<path d="M222.559 173.6H166.65L194.599 222.182L222.559 173.6Z" fill="#63C4B1"/>
<path d="M128.022 119.1L100.064 167.32H155.893L128.022 119.1Z" fill="white"/>
<path d="M89.2411 58.366H33.3142L61.3644 106.513L89.2411 58.366Z" fill="white"/>
<path d="M0.0654297 109.711H55.8916L27.9422 61.4792L0.0654297 109.711Z" fill="white"/>
<path d="M27.9422 164.247L55.8916 115.981H0.0654297L27.9422 164.247Z" fill="white"/>
<path d="M227.918 61.4802L200.06 109.712H255.877L227.918 61.4802Z" fill="white"/>
<path d="M255.879 115.98H200.059L227.921 164.246L255.879 115.98Z" fill="white"/>
<path d="M189.232 0.669189H133.393L161.261 48.8466L189.232 0.669189Z" fill="white"/>
<path d="M155.894 173.6H99.9729L128.023 222.182L155.894 173.6Z" fill="white"/>
<path d="M161.26 176.708L133.395 225.361H189.23L161.26 176.708Z" fill="white"/>
<path d="M122.567 0.669189H66.7222L94.6111 48.8466L122.567 0.669189Z" fill="white"/>
<path d="M61.3633 3.79468L33.3142 52.097H89.2401L61.3633 3.79468Z" fill="white"/>
<path d="M194.598 3.79468L166.649 52.097H222.557L194.598 3.79468Z" fill="white"/>
<path d="M222.559 58.366H166.65L194.599 106.513L222.559 58.366Z" fill="white"/>
<path d="M94.613 176.708L66.7241 225.361H122.568L94.613 176.708Z" fill="white"/>
</g>
<defs>
<clipPath id="clip0_1_673">
<rect width="256" height="226" fill="white"/>
</clipPath>
</defs>
</svg>
