<svg width="256" height="256" viewBox="0 0 256 256" fill="none" xmlns="http://www.w3.org/2000/svg">
<g clip-path="url(#clip0_1_705)">
<path d="M256 127.998C256 198.696 198.694 256 127.997 256C57.3043 256 0 198.696 0 127.998C0 57.3047 57.3043 0 127.997 0C198.694 0 256 57.3047 256 127.998Z" fill="#F22E46"/>
<path d="M117.024 100.89L147.715 131.571C152.146 136.006 159.338 136.006 163.779 131.571C168.21 127.135 168.22 119.948 163.779 115.512L133.086 84.8195C111.125 62.8539 75.6307 62.5004 53.2042 83.7038C52.997 83.8781 52.7897 84.0614 52.5989 84.2522C52.5015 84.3505 52.4214 84.4545 52.3239 84.542C52.2232 84.6378 52.1224 84.7245 52.0266 84.8203C51.8334 85.0136 51.6558 85.2159 51.4866 85.4174C30.2724 107.855 30.6374 143.349 52.5997 165.314L83.2925 195.999C87.732 200.432 94.9149 200.432 99.3536 195.999C103.796 191.562 103.796 184.366 99.3652 179.94L68.6724 149.248C55.2737 135.855 55.1837 114.119 68.3941 100.611C81.9002 87.401 103.625 87.4968 117.024 100.89Z" fill="white"/>
<path d="M156.636 60.0172C152.201 64.4542 152.201 71.6396 156.648 76.0758L187.329 106.769C200.72 120.161 200.806 141.894 187.597 155.405C174.087 168.604 152.37 168.517 138.974 155.123L108.282 124.434C103.844 119.997 96.6491 119.997 92.2162 124.434C87.7733 128.867 87.7733 136.076 92.2162 140.499L122.898 171.193C144.866 193.158 180.356 193.515 202.787 172.309C202.995 172.125 203.191 171.954 203.398 171.76C203.491 171.665 203.579 171.568 203.67 171.471C203.769 171.376 203.867 171.287 203.96 171.181C204.157 170.998 204.325 170.797 204.5 170.587C225.715 148.159 225.361 112.676 203.398 90.6984L172.706 60.0164C168.27 55.5735 161.068 55.5735 156.636 60.0172Z" fill="#F5B1B2"/>
</g>
<defs>
<clipPath id="clip0_1_705">
<rect width="256" height="256" fill="white"/>
</clipPath>
</defs>
</svg>
