<svg width="256" height="256" viewBox="0 0 256 256" fill="none" xmlns="http://www.w3.org/2000/svg">
<g clip-path="url(#clip0_1_710)">
<path d="M128 242.75C191.375 242.75 242.75 191.375 242.75 128C242.75 64.6253 191.375 13.25 128 13.25C64.6253 13.25 13.25 64.6253 13.25 128C13.25 191.375 64.6253 242.75 128 242.75Z" fill="#5D83AC"/>
<path d="M0 128C0 57.3075 57.3075 0 128 0C198.693 0 256 57.3075 256 128C256 198.693 198.693 256 128 256C57.3075 256 0 198.693 0 128ZM128 25.5C71.3907 25.5 25.5 71.3907 25.5 128C25.5 184.609 71.3907 230.5 128 230.5C184.609 230.5 230.5 184.609 230.5 128C230.5 71.3907 184.609 25.5 128 25.5Z" fill="#F0F0F0"/>
<path d="M206.411 166L147.891 81.3C145.836 78.314 143.341 75.8183 140.401 73.81C137.461 71.804 133.796 70.8 129.411 70.8C124.836 70.8 121.056 71.874 118.071 74.02C115.082 76.168 112.611 78.594 110.651 81.3L50.5905 166H84.8905L128.851 103.84L145.651 128.62C147.236 130.86 148.892 133.264 150.621 135.83C152.346 138.398 153.862 140.52 155.171 142.2C152.931 142.014 150.292 141.92 147.261 141.92H138.511H114.991L97.4905 166H206.411Z" fill="#F0F0F0"/>
</g>
<defs>
<clipPath id="clip0_1_710">
<rect width="256" height="256" fill="white"/>
</clipPath>
</defs>
</svg>
