<svg width="512" height="280" viewBox="0 0 512 280" fill="none" xmlns="http://www.w3.org/2000/svg">
<g clip-path="url(#clip0_1_718)">
<path d="M116.548 6.28102C122.766 10.1512 127.143 14.9095 129.745 20.4292C133.615 29.3115 137.929 38.9551 142.624 49.4235C147.319 59.8919 152.077 70.4872 156.772 81.2094C161.467 91.9316 166.035 102.4 170.349 112.551C174.664 122.702 178.597 132.029 182.023 140.467C185.449 148.905 188.177 156.074 190.208 161.975C192.238 167.875 193.253 171.809 193.253 173.649C193.253 176.821 192.809 179.866 191.984 182.912C191.159 185.957 189.637 188.748 187.416 191.223C185.196 193.697 182.087 195.727 178.153 197.187C174.156 198.646 169.017 199.407 162.736 199.407C156.074 199.407 150.682 198.519 146.494 196.742C142.307 194.966 138.881 192.745 136.089 189.954C133.298 187.162 131.014 184.244 129.174 181.199C127.334 178.153 125.43 175.235 123.464 172.443C121.497 169.652 119.276 167.431 116.802 165.655C114.328 163.878 110.902 162.99 106.651 162.99H88.8863C83.6838 162.99 79.6233 163.878 76.5145 165.655C73.4691 167.431 70.9948 169.652 69.028 172.443C67.0612 175.235 65.2848 178.153 63.6352 181.199C61.9856 184.244 59.8285 187.162 57.2273 189.954C54.626 192.745 51.2635 194.966 47.0761 196.742C42.8887 198.519 37.3056 199.407 30.2632 199.407C19.9217 199.407 12.3083 197.123 7.4865 192.492C2.66469 187.86 0.253784 182.404 0.253784 176.123C0.253784 173.712 1.20546 169.525 3.17225 163.497C5.13904 157.47 7.74028 150.301 11.1029 141.99C14.5923 133.615 18.399 124.415 22.6498 114.201C26.9006 104.05 31.4052 93.5177 36.227 82.7321C41.0488 71.883 45.8706 61.0974 50.629 50.2483C55.4508 39.3992 60.0823 28.9943 64.5234 19.0334C67.1247 13.3234 71.4389 8.75537 77.4027 5.45624C83.43 2.1571 90.0917 0.444092 97.5148 0.444092C103.986 0.444092 110.331 2.41088 116.548 6.28102ZM340.953 7.23269C345.774 11.6104 348.185 17.1935 348.185 24.0456C348.185 27.9157 347.234 32.9913 345.267 39.3358C343.3 45.6168 340.826 52.7227 337.78 60.7167C334.735 68.6473 331.182 77.2758 327.249 86.5388C323.252 95.8017 319.255 105.192 315.194 114.835C309.674 127.968 304.853 139.769 300.919 150.237C296.922 160.706 292.861 169.588 288.738 176.884C284.55 184.18 280.046 189.827 275.16 193.824C270.275 197.821 264.184 199.788 257.015 199.788C249.592 199.788 243.438 198.202 238.553 194.903C233.667 191.667 229.226 186.782 225.229 180.183C221.232 173.649 217.362 165.337 213.555 155.376C209.749 145.416 205.308 133.551 200.105 119.847C196.235 109.506 192.238 99.3546 188.177 89.4572C184.117 79.5598 180.437 70.4238 177.075 62.1125C173.775 53.8012 171.047 46.3147 168.89 39.7799C166.797 33.2451 165.718 28.106 165.718 24.3628C165.718 15.8612 168.573 9.77048 174.346 6.02724C180.057 2.34744 187.226 0.507537 195.727 0.507537C203.468 0.507537 209.558 1.45921 213.873 3.426C218.187 5.39279 221.994 7.93058 225.102 11.0394C227.323 13.26 229.544 16.4956 231.764 20.7464C233.985 24.9972 236.078 29.6922 237.982 34.7678C239.948 39.8433 241.852 44.9824 243.819 50.1849C245.785 55.3873 247.562 60.1457 249.211 64.46C250.861 68.8376 252.511 72.3271 254.097 74.9918C255.683 77.6565 257.079 78.9888 258.411 78.9888C259.87 78.9888 261.393 77.6565 262.979 74.9918C264.565 72.3271 266.151 68.8377 267.864 64.5868C269.514 60.336 271.227 55.6411 273.003 50.5655C274.78 45.4899 276.62 40.4144 278.523 35.4657C280.426 30.517 282.52 25.8855 284.614 21.7616C286.707 17.5742 288.928 14.402 291.148 12.1814C293.179 10.1512 295.145 8.43814 297.112 7.04236C299.079 5.64657 301.173 4.50456 303.52 3.55289C305.804 2.60122 308.469 1.96677 311.451 1.45921C314.433 1.0151 317.986 0.761316 322.3 0.761316C329.85 0.761316 336.131 2.91844 340.953 7.23269ZM435.168 6.28102C441.386 10.1512 445.764 14.9095 448.365 20.4292C452.235 29.3115 456.549 38.9551 461.244 49.4235C465.939 59.8919 470.697 70.4872 475.392 81.2094C480.087 91.9316 484.655 102.4 488.97 112.551C493.284 122.702 497.217 132.029 500.643 140.467C504.069 148.905 506.798 156.074 508.828 161.975C510.858 167.875 511.873 171.809 511.873 173.649C511.873 176.821 511.429 179.866 510.604 182.912C509.779 185.957 508.257 188.748 506.036 191.223C503.816 193.697 500.707 195.727 496.773 197.187C492.776 198.646 487.637 199.407 481.356 199.407C474.694 199.407 469.302 198.519 465.114 196.742C460.927 194.966 457.501 192.745 454.709 189.954C451.918 187.162 449.634 184.244 447.794 181.199C445.954 178.153 444.051 175.235 442.084 172.443C440.117 169.652 437.896 167.431 435.422 165.655C432.948 163.878 429.522 162.99 425.271 162.99H407.506C402.304 162.99 398.243 163.878 395.135 165.655C392.089 167.431 389.615 169.652 387.648 172.443C385.681 175.235 383.905 178.153 382.255 181.199C380.606 184.244 378.449 187.162 375.847 189.954C373.246 192.745 369.884 194.966 365.696 196.742C361.509 198.519 355.926 199.407 348.883 199.407C338.542 199.407 330.928 197.123 326.107 192.492C321.285 187.86 318.874 182.404 318.874 176.123C318.874 173.712 319.826 169.525 321.792 163.497C323.759 157.47 326.36 150.301 329.723 141.99C333.022 133.678 336.829 124.415 341.08 114.264C345.33 104.113 349.835 93.5811 354.657 82.7955C359.479 71.9464 364.3 61.1608 369.059 50.3117C373.881 39.4627 378.512 29.0577 382.953 19.0969C385.554 13.3868 389.869 8.81881 395.832 5.51968C401.86 2.22055 408.521 0.507537 415.944 0.507537C422.606 0.444092 428.951 2.41088 435.168 6.28102Z" fill="#4B4B77"/>
<path d="M96.8803 279.538C98.4029 279.538 99.8622 278.713 100.56 277.317C100.56 277.254 106.587 266.151 112.551 253.018C115.533 246.42 118.578 239.377 120.862 232.843C122.004 229.543 122.956 226.435 123.654 223.58C124.352 220.661 124.796 217.996 124.796 215.586C124.796 206.132 121.307 197.694 115.47 191.857C110.584 186.972 103.986 183.99 96.8168 183.99C89.6476 183.99 83.0493 186.972 78.164 191.857C72.3906 197.631 68.8376 206.069 68.8376 215.586C68.8376 218.06 69.2818 220.725 69.9797 223.58C71.1851 228.655 73.2788 234.429 75.6262 240.392C82.7955 258.22 93.0736 277.254 93.0736 277.381C93.8984 278.65 95.2942 279.538 96.8803 279.538ZM415.5 279.538C417.023 279.538 418.482 278.713 419.18 277.317C419.18 277.254 425.207 266.151 431.171 253.018C434.153 246.42 437.198 239.377 439.482 232.843C440.624 229.543 441.576 226.435 442.274 223.58C442.972 220.661 443.416 217.996 443.416 215.586C443.416 206.132 439.927 197.694 434.09 191.857C429.204 186.972 422.606 183.99 415.437 183.99C408.268 183.99 401.669 186.972 396.784 191.857C391.011 197.631 387.458 206.069 387.458 215.586C387.458 218.06 387.902 220.725 388.6 223.58C389.805 228.655 391.899 234.429 394.246 240.392C401.416 258.22 411.694 277.254 411.694 277.381C412.518 278.65 413.914 279.538 415.5 279.538Z" fill="#E0C7C1"/>
</g>
<defs>
<clipPath id="clip0_1_718">
<rect width="512" height="280" fill="white"/>
</clipPath>
</defs>
</svg>
