<svg width="256" height="256" viewBox="0 0 256 256" fill="none" xmlns="http://www.w3.org/2000/svg">
<g clip-path="url(#clip0_1_753)">
<path d="M256 0H0V256H256V0Z" fill="url(#paint0_linear_1_753)"/>
<path d="M167.171 129.162C168.589 138.877 166.141 148.56 160.272 156.432C154.406 164.304 145.821 169.421 136.109 170.838C134.307 171.101 132.509 171.229 130.723 171.229C122.864 171.232 115.248 168.72 108.838 163.939C99.5168 156.992 94.1248 146.333 94.0416 134.694L100.442 134.649C100.512 144.262 104.966 153.069 112.662 158.806C119.162 163.654 127.149 165.68 135.184 164.506C143.206 163.334 150.294 159.11 155.139 152.608C159.987 146.105 162.01 138.109 160.838 130.086C159.667 122.061 155.443 114.973 148.944 110.128C137.542 101.632 120.797 102.857 109.862 111.987L115.197 111.981L115.203 118.381L102.403 118.4H102.4C101.552 118.4 100.736 118.064 100.138 117.462C99.536 116.864 99.2 116.048 99.2 115.2V102.441H105.6V107.242C110.934 102.752 117.565 99.6511 124.698 98.4959C134.8 96.8607 145.03 99.2287 152.768 104.998C160.64 110.864 165.757 119.446 167.171 129.162ZM172.8 185.6C171.341 185.6 169.869 185.808 168.442 186.208L159.363 174.08L154.237 177.917L162.666 189.168C159.92 191.354 157.846 194.477 157.104 198.4H98.9344C98.2944 194.365 96.3936 191.155 93.5616 188.941L101.77 177.907L96.6304 174.09L87.6448 186.166C86.2528 185.843 84.7936 185.616 83.2 185.616C81.824 185.616 80.5376 185.773 79.3056 186.016L60.6848 123.785C63.5136 122.813 65.7728 121.12 67.4176 118.851L82.032 124.579L84.368 118.621L69.9456 112.966C70.2144 111.658 70.4 110.288 70.4 108.8C70.4 105.293 69.5552 102.256 68.0544 99.7791L116.323 65.9935C118.47 68.1535 121.36 69.5711 124.8 70.1151V86.3999H131.2V70.1247C134.691 69.5967 137.587 68.2047 139.728 66.0511L187.821 100.16C186.416 102.582 185.6 105.485 185.6 108.8C185.6 110.144 185.779 111.497 186.112 112.829L171.613 118.627L173.987 124.57L188.835 118.63C190.774 121.245 193.578 123.293 197.174 124.227L173.77 185.68C173.44 185.664 173.136 185.6 172.8 185.6ZM172.8 211.2C166.518 211.2 163.2 207.878 163.2 201.6C163.2 195.59 168.08 192 172.8 192C178.989 192 182.4 195.408 182.4 201.6C182.4 207.878 179.082 211.2 172.8 211.2ZM83.2 211.2C77.1008 211.2 73.6 207.699 73.6 201.6C73.6 195.421 77.008 192.016 83.2 192.016C91.1328 192.016 92.8 197.229 92.8 201.6C92.8 207.789 89.3888 211.2 83.2 211.2ZM44.8 108.8C44.8 102.608 48.208 99.1999 54.4 99.1999C60.5888 99.1999 64 102.608 64 108.8C64 115.078 60.6816 118.4 54.4 118.4C48.032 118.4 44.8 115.168 44.8 108.8ZM128 44.7999C134.282 44.7999 137.6 48.1183 137.6 54.3999C137.6 60.6687 134.282 63.9807 128 63.9807C121.808 63.9807 118.4 60.5791 118.4 54.3999C118.4 48.2079 121.808 44.7999 128 44.7999ZM201.6 99.1999C207.789 99.1999 211.2 102.608 211.2 108.8C211.2 114.989 207.789 118.4 201.6 118.4C195.366 118.4 192 113.453 192 108.8C192 102.698 195.501 99.1999 201.6 99.1999ZM217.6 108.8C217.6 99.0783 211.318 92.7999 201.6 92.7999C197.952 92.7999 194.771 93.7439 192.218 95.4303L143.024 60.5439C143.638 58.7007 144 56.6623 144 54.3999C144 44.5311 137.869 38.3999 128 38.3999C118.282 38.3999 112 44.6783 112 54.3999C112 56.6367 112.368 58.6687 112.998 60.5055L63.4784 95.1711C60.9888 93.6479 57.9296 92.7999 54.4 92.7999C44.6816 92.7999 38.4 99.0783 38.4 108.8C38.4 118.634 44.4928 124.752 54.304 124.79L73.3728 188.509C69.4848 191.251 67.2 195.789 67.2 201.6C67.2 211.318 73.4816 217.6 83.2 217.6C91.7984 217.6 97.6864 212.669 98.9344 204.8H157.066C158.31 212.669 164.198 217.6 172.8 217.6C182.518 217.6 188.8 211.318 188.8 201.6C188.8 194.614 185.517 189.453 180.086 187.075L203.878 124.611C212.266 123.683 217.6 117.725 217.6 108.8Z" fill="white"/>
</g>
<defs>
<linearGradient id="paint0_linear_1_753" x1="0" y1="25600" x2="25600" y2="0" gradientUnits="userSpaceOnUse">
<stop stop-color="#1B660F"/>
<stop offset="1" stop-color="#6CAE3E"/>
</linearGradient>
<clipPath id="clip0_1_753">
<rect width="256" height="256" fill="white"/>
</clipPath>
</defs>
</svg>
