<svg width="256" height="256" viewBox="0 0 256 256" fill="none" xmlns="http://www.w3.org/2000/svg">
<g clip-path="url(#clip0_1_813)">
<path d="M256 0H0V256H256V0Z" fill="url(#paint0_linear_1_813)"/>
<path d="M110.4 44.777C143.402 44.777 166.4 54.8591 166.4 63.9082C166.4 72.9572 143.402 83.0394 110.4 83.0394C77.3984 83.0394 54.4 72.9572 54.4 63.9082C54.4 54.8591 77.3984 44.777 110.4 44.777ZM109.744 214.423C77.1296 214.423 54.4 204.121 54.4 194.877V167.079C64.3872 175.44 84.7104 180.924 109.315 180.924C114.989 180.924 120.698 180.608 126.288 179.99L125.581 173.651C120.224 174.244 114.749 174.547 109.315 174.547C78.8672 174.547 57.056 165.517 54.4 156.777V122.418C64.3872 130.778 84.7104 136.259 109.315 136.259C115.107 136.259 120.822 135.94 126.301 135.309L125.568 128.977C120.33 129.579 114.864 129.882 109.315 129.882C78.8672 129.882 57.056 120.855 54.4 112.116V75.3741C63.6128 83.2402 82.6176 89.4164 110.4 89.4164C138.182 89.4164 157.187 83.2402 166.4 75.3741V86.2279H172.8V63.9082C172.8 51.543 150.931 38.3999 110.4 38.3999C69.8688 38.3999 48 51.543 48 63.9082V194.877C48 209.653 74.544 220.8 109.744 220.8C138.016 220.8 161.894 213.342 169.162 202.246L163.798 198.761C158.704 206.544 138.499 214.423 109.744 214.423ZM186.262 134.936C188.064 134.936 189.654 135.653 190.739 136.961C192.736 139.352 192.413 142.974 192.218 144.256C192.31 150.997 196.032 152.313 196.464 152.444C197.84 152.859 198.81 154.15 198.774 155.585C198.739 157.02 197.789 158.263 196.39 158.611C196.029 158.722 192.214 160.071 192.214 167.029C192.288 170.781 190.486 174.942 186.358 175.067H183.901V168.69H185.59C185.718 168.266 185.818 167.599 185.814 167.073C185.814 161.254 187.766 157.68 189.853 155.521C187.766 153.366 185.814 149.801 185.814 144.004C185.814 143.81 185.834 143.612 185.869 143.421C185.99 142.735 185.99 141.836 185.888 141.313H183.901V134.936H186.262ZM171.286 134.936H173.747V141.313H172.061C171.93 141.737 171.83 142.403 171.834 142.93C171.834 148.749 169.885 152.323 167.798 154.482C169.885 156.637 171.834 160.202 171.834 165.999C171.834 166.196 171.814 166.391 171.782 166.582C171.661 167.268 171.661 168.167 171.763 168.69H173.747V175.067H171.386C169.584 175.067 167.994 174.349 166.906 173.045C164.912 170.654 165.238 167.032 165.43 165.747C165.341 159.009 161.616 157.689 161.184 157.562C159.805 157.144 158.838 155.853 158.87 154.418C158.906 152.986 159.859 151.739 161.258 151.392C161.622 151.28 165.434 149.932 165.434 142.974C165.36 139.224 167.158 135.06 171.286 134.936ZM204.8 188.261H150.4V111.736H185.6V124.49C185.6 126.25 187.03 127.679 188.8 127.679H204.8V188.261ZM192 111.736H192.784L202.458 121.302H192V111.736ZM210.253 120.026L196.355 106.284C195.76 105.691 194.947 105.359 194.102 105.359H192H190.832L180.954 93.7337C180.342 93.0163 179.45 92.6049 178.509 92.6049H134.4C132.63 92.6049 131.2 94.0334 131.2 95.7935V178.695C131.2 180.455 132.63 181.884 134.4 181.884H140.8V175.507H137.6V98.982H177.024L182.445 105.359H147.2C145.43 105.359 144 106.788 144 108.548V191.449C144 193.21 145.43 194.638 147.2 194.638H208C209.77 194.638 211.2 193.21 211.2 191.449V122.29C211.2 121.439 210.861 120.626 210.253 120.026Z" fill="white"/>
</g>
<defs>
<linearGradient id="paint0_linear_1_813" x1="0" y1="25600" x2="25600" y2="0" gradientUnits="userSpaceOnUse">
<stop stop-color="#2E27AD"/>
<stop offset="1" stop-color="#527FFF"/>
</linearGradient>
<clipPath id="clip0_1_813">
<rect width="256" height="256" fill="white"/>
</clipPath>
</defs>
</svg>
