<svg width="256" height="256" viewBox="0 0 256 256" fill="none" xmlns="http://www.w3.org/2000/svg">
<g clip-path="url(#clip0_1_920)">
<path d="M256 0H0V256H256V0Z" fill="url(#paint0_linear_1_920)"/>
<path d="M155.814 130.174C158.179 132.361 159.363 135.29 159.363 138.968C159.363 142.97 157.923 146.164 155.046 148.553C152.166 150.944 148.298 152.138 143.443 152.138C139.606 152.138 135.808 151.318 132.051 149.686V144.785C136.502 146.257 140.298 146.99 143.443 146.99C146.547 146.99 148.934 146.296 150.608 144.91C152.282 143.52 153.117 141.539 153.117 138.968C153.117 134.025 149.997 131.554 143.747 131.554C141.789 131.554 139.85 131.657 137.93 131.858V127.818L150.794 113.787H132.666V108.765H157.59V113.605L144.973 126.96C145.181 126.919 145.379 126.899 145.587 126.899H146.198C150.243 126.899 153.446 127.991 155.814 130.174ZM120.237 129.105C122.723 131.432 123.968 134.637 123.968 138.718C123.968 142.723 122.522 145.96 119.619 148.431C116.72 150.902 112.906 152.138 108.17 152.138C104.01 152.138 100.109 151.318 96.4736 149.686V144.785C101.005 146.257 104.883 146.99 108.109 146.99C111.213 146.99 113.59 146.289 115.242 144.878C116.896 143.469 117.725 141.439 117.725 138.782C117.725 135.882 116.947 133.779 115.395 132.473C113.843 131.167 111.312 130.51 107.802 130.51C105.27 130.51 102.109 130.719 98.3104 131.125V127.082L99.4752 108.765H121.827V113.787H104.618L103.821 126.224C106.067 125.817 108.086 125.613 109.882 125.613C114.291 125.613 117.744 126.775 120.237 129.105ZM166.262 174.009C150.73 176.8 137.126 183.126 128 188.28C118.87 183.126 105.267 176.8 89.7376 174.009C85.3664 173.224 63.5808 168.676 63.5808 156.082C63.5808 150.246 65.6704 146.376 69.6832 139.464C74.4768 131.199 80.4416 120.91 80.4416 106.098C80.4416 95.5114 77.6672 85.3603 72.1888 75.8879C72.832 75.094 73.488 74.2905 74.1472 73.4806C82.2624 77.5365 90.7104 79.5917 99.2992 79.5917C109.795 79.5917 119.44 76.8355 128 71.3966C136.557 76.8355 146.202 79.5917 156.698 79.5917C165.286 79.5917 173.738 77.5365 181.853 73.4806C182.509 74.2905 183.165 75.094 183.808 75.8879C178.33 85.3603 175.555 95.5114 175.555 106.098C175.555 120.91 181.52 131.199 186.323 139.477C190.326 146.376 192.416 150.246 192.416 156.082C192.416 168.676 170.63 173.224 166.262 174.009ZM181.955 106.098C181.955 95.9916 184.806 86.3047 190.422 77.306C191.152 76.144 191.059 74.649 190.189 73.5862C188.563 71.595 186.858 69.4982 185.174 67.4142C184.198 66.2074 182.502 65.8744 181.139 66.6235C173.258 70.9804 165.037 73.1893 156.698 73.1893C146.637 73.1893 137.846 70.4842 129.821 64.9237C128.726 64.165 127.27 64.165 126.176 64.9237C118.15 70.4842 109.36 73.1893 99.2992 73.1893C90.96 73.1893 82.7392 70.9804 74.8576 66.6235C73.4976 65.8744 71.7984 66.2074 70.8224 67.4142C69.1392 69.4982 67.4336 71.595 65.808 73.5862C64.9408 74.649 64.8448 76.144 65.5744 77.306C71.1936 86.3047 74.0416 95.9916 74.0416 106.098C74.0416 119.188 68.5536 128.647 64.144 136.26C59.824 143.693 57.1808 148.629 57.1808 156.082C57.1808 173.327 81.232 178.99 88.6048 180.312C104.157 183.107 117.738 189.698 126.39 194.734C126.886 195.025 127.443 195.169 128 195.169C128.554 195.169 129.11 195.025 129.61 194.734C138.262 189.698 151.84 183.107 167.392 180.312C174.765 178.99 198.816 173.327 198.816 156.082C198.816 148.629 196.173 143.693 191.853 136.25C187.443 128.647 181.955 119.188 181.955 106.098ZM169.581 192.502C149.962 196.03 133.514 206.581 128 210.445C122.483 206.581 106.035 196.03 86.416 192.502C47.7984 185.565 44.8 162.872 44.8 156.082C44.8 144.913 49.1872 137.355 53.4304 130.04C57.4752 123.071 61.6576 115.862 61.6576 106.098C61.6576 90.6744 52.752 79.7806 48.3584 75.3469C52.9792 69.7255 64.6528 55.4929 70.4096 48.0756C79.1328 56.3092 89.2736 60.8005 99.2992 60.8005C110.429 60.8005 119.632 56.2708 128 46.6063C136.365 56.2708 145.568 60.8005 156.698 60.8005C166.723 60.8005 176.864 56.3092 185.59 48.0756C191.347 55.4929 203.018 69.7255 207.638 75.3469C203.245 79.7806 194.339 90.6744 194.339 106.098C194.339 115.862 198.525 123.071 202.566 130.04C206.813 137.355 211.2 144.913 211.2 156.082C211.2 162.872 208.198 185.565 169.581 192.502ZM208.102 126.829C204.15 120.017 200.739 114.136 200.739 106.098C200.739 89.1762 213.91 78.2312 214.038 78.1288C214.701 77.5909 215.123 76.8098 215.213 75.9583C215.296 75.1068 215.04 74.2585 214.496 73.599C214.282 73.3429 193.306 47.9124 188.499 41.3242C187.936 40.5527 187.062 40.0725 186.109 40.0149C185.152 39.9445 184.23 40.3254 183.578 41.0233C175.514 49.6474 165.971 54.398 156.698 54.398C146.445 54.398 138.381 49.8299 130.541 39.586C129.328 38.0046 126.672 38.0046 125.459 39.586C117.616 49.8299 109.552 54.398 99.2992 54.398C90.0256 54.398 80.4832 49.6474 72.4192 41.0233C71.7664 40.3254 70.8384 39.9285 69.888 40.0149C68.9376 40.0725 68.0608 40.5527 67.4976 41.3242C62.6912 47.9124 41.7152 73.3429 41.5008 73.599C40.96 74.2585 40.704 75.1068 40.7904 75.9551C40.8736 76.8034 41.2928 77.5845 41.952 78.1224C42.0864 78.2312 55.2576 89.1762 55.2576 106.098C55.2576 114.136 51.8464 120.017 47.8944 126.829C43.4432 134.499 38.4 143.191 38.4 156.082C38.4 177.559 55.9264 193.53 85.2864 198.805C107.389 202.778 125.869 216.796 126.051 216.94C126.624 217.379 127.312 217.6 128 217.6C128.685 217.6 129.373 217.379 129.949 216.937C130.134 216.796 148.55 202.788 170.71 198.805C200.07 193.53 217.6 177.559 217.6 156.082C217.6 143.191 212.554 134.499 208.102 126.829Z" fill="white"/>
</g>
<defs>
<linearGradient id="paint0_linear_1_920" x1="0" y1="25600" x2="25600" y2="0" gradientUnits="userSpaceOnUse">
<stop stop-color="#4D27A8"/>
<stop offset="1" stop-color="#A166FF"/>
</linearGradient>
<clipPath id="clip0_1_920">
<rect width="256" height="256" fill="white"/>
</clipPath>
</defs>
</svg>
