<svg width="256" height="256" viewBox="0 0 256 256" fill="none" xmlns="http://www.w3.org/2000/svg">
<g clip-path="url(#clip0_1_777)">
<path d="M256 0H0V256H256V0Z" fill="url(#paint0_linear_1_777)"/>
<path d="M79.9999 169.587H92.7999V163.181H79.9999V169.587ZM191.907 122.123C191.187 112.405 186.435 105.249 178.886 102.721C172.809 100.694 166.115 102.126 161.017 106.28C157.926 100.185 153.28 94.2139 149.446 90.431C135.699 76.8624 120.538 73.403 104.371 80.1456C89.9391 86.1515 76.7999 105.88 76.7999 121.54V122.149C68.1375 125.076 61.1487 131.438 57.8367 139.548L63.7631 141.97C67.9839 131.633 77.8623 128.392 80.7903 127.645C82.2079 127.283 83.1999 126.005 83.1999 124.541V121.54C83.1999 108.596 94.9023 91.0236 106.832 86.0587C120.576 80.3282 133.049 83.2367 144.953 94.9923C150.016 99.986 154.966 107.395 156.992 113.016C157.389 114.125 158.361 114.922 159.526 115.098C160.678 115.275 161.846 114.797 162.557 113.856C166.093 109.153 171.827 107.116 176.861 108.798C182.413 110.659 185.6 116.469 185.6 124.743C185.6 126.31 186.733 127.645 188.275 127.902C190.621 128.292 211.2 132.325 211.2 153.572C211.2 175.577 189.699 175.987 188.8 175.994H115.2V182.4H188.806C198.765 182.381 217.6 176.333 217.6 153.572C217.6 133.709 202.493 124.766 191.907 122.123ZM99.1999 169.587H144V163.181H99.1999V169.587ZM86.3999 182.4H105.6V175.994H86.3999V182.4ZM38.3999 182.4H47.9999V175.994H38.3999V182.4ZM47.9999 156.775H76.7999V150.368H47.9999V156.775ZM41.5999 169.587H73.5999V163.181H41.5999V169.587ZM86.3999 156.775H108.8V150.368H86.3999V156.775ZM54.3999 182.4H79.9999V175.994H54.3999V182.4Z" fill="white"/>
</g>
<defs>
<linearGradient id="paint0_linear_1_777" x1="0" y1="25600" x2="25600" y2="0" gradientUnits="userSpaceOnUse">
<stop stop-color="#B0084D"/>
<stop offset="1" stop-color="#FF4F8B"/>
</linearGradient>
<clipPath id="clip0_1_777">
<rect width="256" height="256" fill="white"/>
</clipPath>
</defs>
</svg>
