<svg width="256" height="256" viewBox="0 0 256 256" fill="none" xmlns="http://www.w3.org/2000/svg">
<g clip-path="url(#clip0_1_960)">
<path d="M256 0H0V256H256V0Z" fill="url(#paint0_linear_1_960)"/>
<path d="M195.2 132.39L177.6 125.35V189.193C182.739 188.681 186.883 186.991 189.827 184.002C195.267 178.473 195.203 170.367 195.2 170.287V132.39ZM171.2 189.234V125.35L153.6 132.39V170.223C153.622 170.886 154.349 187.366 171.2 189.234ZM201.6 170.223C201.61 170.585 201.77 180.934 194.448 188.431C189.661 193.337 182.912 195.823 174.4 195.823C153.366 195.823 147.408 179.126 147.2 170.3V130.223C147.2 128.914 147.997 127.737 149.213 127.25L173.213 117.65C173.974 117.346 174.826 117.346 175.587 117.65L199.587 127.25C200.803 127.737 201.6 128.914 201.6 130.223V170.223ZM211.203 163.932L211.2 121.19L174.4 106.47L137.6 121.19V163.823C137.594 164.114 137.168 183.753 148.909 195.836C155.091 202.198 163.667 205.423 174.4 205.423C185.206 205.423 193.824 202.175 200.013 195.772C211.738 183.638 211.21 164.127 211.203 163.932ZM204.614 200.217C197.174 207.919 187.008 211.823 174.4 211.823C161.853 211.823 151.722 207.932 144.288 200.258C130.659 186.201 131.171 164.633 131.2 163.724V119.023C131.2 117.714 131.997 116.537 133.213 116.05L173.213 100.05C173.974 99.7463 174.826 99.7463 175.587 100.05L215.587 116.05C216.803 116.537 217.6 117.714 217.6 119.023V163.823C217.629 164.623 218.205 186.153 204.614 200.217ZM73.776 151.023H121.6V157.423H73.776C54.3264 157.423 39.4784 144.457 38.4768 126.591C38.4064 125.862 38.4 125.01 38.4 124.159C38.4 102.178 53.7696 94.0855 62.7328 91.2375C62.6688 90.2104 62.6368 89.1703 62.6368 88.1239C62.6368 70.6743 75.0848 52.4183 91.5872 45.6599C110.966 37.7239 131.398 41.5671 146.224 55.9223C151.219 60.7895 155.027 65.9863 157.782 71.7111C161.642 68.3991 166.301 66.6199 171.293 66.6199C181.869 66.6199 193.056 74.9207 194.979 90.8215C201.965 92.5815 210.733 96.3191 216.922 104.255L211.878 108.191C206.176 100.876 197.571 97.8295 191.36 96.5559C189.936 96.2679 188.89 95.0583 188.806 93.6119C187.971 79.4647 179.142 73.0199 171.293 73.0199C166.614 73.0199 162.467 75.2279 159.296 79.4039C158.589 80.3383 157.437 80.8215 156.272 80.6359C155.117 80.4599 154.144 79.6695 153.744 78.5719C151.29 71.8839 147.373 65.9767 141.766 60.5143C128.826 47.9895 110.963 44.6455 94.0128 51.5831C79.776 57.4135 69.0368 73.1223 69.0368 88.1239C69.0368 89.8551 69.136 91.5671 69.3376 93.2087C69.5328 94.8119 68.496 96.3095 66.928 96.6999C58.6656 98.7447 44.8 105.036 44.8 124.159C44.8 124.806 44.7936 125.455 44.8576 126.105C45.6704 140.594 57.8304 151.023 73.776 151.023Z" fill="white"/>
</g>
<defs>
<linearGradient id="paint0_linear_1_960" x1="0" y1="25600" x2="25600" y2="0" gradientUnits="userSpaceOnUse">
<stop stop-color="#4D27A8"/>
<stop offset="1" stop-color="#A166FF"/>
</linearGradient>
<clipPath id="clip0_1_960">
<rect width="256" height="256" fill="white"/>
</clipPath>
</defs>
</svg>
