<svg width="256" height="256" viewBox="0 0 256 256" fill="none" xmlns="http://www.w3.org/2000/svg">
<g clip-path="url(#clip0_1_861)">
<path d="M256 0H0V256H256V0Z" fill="url(#paint0_linear_1_861)"/>
<path d="M44.7999 188.8H211.2V67.1998H44.7999V188.8ZM217.6 63.9998V192C217.6 193.766 216.17 195.2 214.4 195.2H41.5999C39.8303 195.2 38.3999 193.766 38.3999 192V63.9998C38.3999 62.2334 39.8303 60.7998 41.5999 60.7998H214.4C216.17 60.7998 217.6 62.2334 217.6 63.9998ZM140.8 153.6H188.8V147.2H140.8V153.6ZM182.4 134.4H198.4V128H182.4V134.4ZM140.8 134.4H166.4V128H140.8V134.4ZM92.7999 147.2C92.7999 145.437 91.3663 144 89.5999 144C87.8335 144 86.3999 145.437 86.3999 147.2C86.3999 148.963 87.8335 150.4 89.5999 150.4C91.3663 150.4 92.7999 148.963 92.7999 147.2ZM99.1999 147.2C99.1999 151.366 96.5151 154.883 92.7999 156.211V163.2H86.3999V156.208C82.6847 154.883 79.9999 151.366 79.9999 147.2C79.9999 141.907 84.3071 137.6 89.5999 137.6C94.8927 137.6 99.1999 141.907 99.1999 147.2ZM60.7999 172.777L118.381 172.8L118.387 160H105.6V153.6H118.387L118.394 144H105.6V137.6H118.397L118.4 128.022L60.8191 128L60.7999 172.777ZM70.3999 121.603L108.8 121.619V99.1998C108.803 91.8302 99.8303 85.3662 89.5999 85.3598H89.5871C79.3727 85.3598 70.4127 91.827 70.4063 99.1998L70.3999 121.603ZM54.3999 175.974L54.4191 124.8C54.4191 123.949 54.7551 123.136 55.3567 122.534C55.9551 121.936 56.7711 121.6 57.6191 121.6L63.9999 121.603L64.0063 99.1998C64.0127 88.0382 75.4879 78.9598 89.5871 78.9598H89.5999C103.718 78.9662 115.203 88.0478 115.2 99.1998V121.622L121.6 121.625C123.369 121.625 124.8 123.059 124.8 124.825L124.781 176C124.781 176.851 124.445 177.664 123.843 178.265C123.245 178.864 122.429 179.2 121.581 179.2L57.5999 179.174C55.8303 179.174 54.3999 177.741 54.3999 175.974ZM192 115.2H198.4V108.8H192V115.2ZM140.8 115.2H176V108.8H140.8V115.2Z" fill="white"/>
</g>
<defs>
<linearGradient id="paint0_linear_1_861" x1="0" y1="25600" x2="25600" y2="0" gradientUnits="userSpaceOnUse">
<stop stop-color="#BD0816"/>
<stop offset="1" stop-color="#FF5252"/>
</linearGradient>
<clipPath id="clip0_1_861">
<rect width="256" height="256" fill="white"/>
</clipPath>
</defs>
</svg>
