<svg width="256" height="256" viewBox="0 0 256 256" fill="none" xmlns="http://www.w3.org/2000/svg">
<g clip-path="url(#clip0_1_964)">
<path d="M256 0H0V256H256V0Z" fill="url(#paint0_linear_1_964)"/>
<path d="M46.0656 131.2H38.3984V124.8H46.0752C46.7152 108.611 51.9632 93.2095 61.464 80.0799L66.6512 83.8335C57.944 95.8623 53.112 109.971 52.4752 124.8H60.7984V131.2H52.4656C53.0608 146.118 57.896 160.31 66.6512 172.403L61.464 176.157C51.9152 162.963 46.664 147.472 46.0656 131.2ZM176.03 194.65C162.872 204.176 147.429 209.424 131.198 210.045V217.6H124.798V210.045C108.568 209.424 93.1184 204.176 79.96 194.65L83.7104 189.466C95.7744 198.198 109.925 203.03 124.798 203.645V195.2H131.198V203.645C146.072 203.027 160.219 198.195 172.28 189.466L176.03 194.65ZM79.96 61.5871C93.1184 52.0607 108.568 46.8127 124.798 46.1951V38.3999H131.198V46.1951C147.429 46.8127 162.872 52.0639 176.03 61.5871L172.28 66.7711C160.219 58.0415 146.072 53.2095 131.198 52.5951V60.7999H124.798V52.5951C109.925 53.2063 95.7744 58.0415 83.7104 66.7711L79.96 61.5871ZM217.598 124.8V131.2H209.925C209.33 147.472 204.075 162.963 194.53 176.157L189.339 172.403C198.094 160.31 202.933 146.118 203.525 131.2H195.198V124.8H203.515C202.878 109.971 198.046 95.8623 189.339 83.8335L194.53 80.0799C204.027 93.2095 209.275 108.611 209.915 124.8H217.598ZM175.909 75.6799L200.997 50.5919L205.522 55.1167L180.434 80.2047L175.909 75.6799ZM80.0816 180.557L54.9936 205.645L50.4688 201.12L75.5568 176.032L80.0816 180.557ZM87.2048 91.7343L39.7168 44.2463L44.2416 39.7215L91.7328 87.2095L87.2048 91.7343ZM168.661 164.138L216.274 211.754L211.749 216.278L164.133 168.665L168.661 164.138ZM101.323 130.352C101.563 129.926 101.822 129.498 102.094 129.069C107.474 120.618 105.931 109.085 104.222 102.118C108.834 105.149 112.99 111.411 114.408 114.042C115.013 115.155 116.187 115.83 117.477 115.715C118.741 115.616 119.826 114.784 120.248 113.59C125.013 100.054 122.59 89.8783 119.23 83.2831C123.304 85.6543 126.459 89.0655 128.549 93.4143C133.08 102.829 132.072 115.715 125.912 127.04C117.499 142.515 119.186 158.739 121.099 167.469C116.296 165.398 112.021 163.059 108.331 160.486C98.6448 153.734 95.5632 140.502 101.323 130.352ZM144.299 129.274C144.091 130.582 144.706 131.885 145.851 132.55C146.994 133.213 148.434 133.107 149.467 132.275C149.726 132.067 154.974 127.734 157.515 117.254C160.578 121.709 163.781 130.697 159.518 147.209C155.301 163.545 135.294 168.141 128.155 169.27C126.43 163.085 122.933 145.917 131.538 130.096C137.643 118.864 139.262 106.163 136.203 95.6831C141.995 102.486 146.882 113.194 144.299 129.274ZM95.7488 127.2C88.3824 140.192 92.2992 157.117 104.67 165.737C110.27 169.641 117.054 173.03 124.83 175.811C125.186 175.939 125.547 176 125.909 176C125.976 176 126.034 175.965 126.098 175.961L126.101 175.99C127.461 175.885 159.442 173.107 165.714 148.81C173.784 117.558 157.621 108.288 156.93 107.907C155.992 107.395 154.856 107.382 153.906 107.878C152.955 108.378 152.318 109.318 152.21 110.384C151.982 112.544 151.627 114.467 151.198 116.166C148.984 91.6287 129.531 81.6447 125.598 79.8687C121.566 76.7807 116.664 74.6591 110.981 73.6511C109.554 73.3919 108.139 74.1375 107.531 75.4495C106.917 76.7583 107.266 78.3263 108.373 79.2575C108.853 79.6639 118.824 88.3103 115.979 104.765C112.264 99.8911 106.35 94.0159 99.3936 94.0159C98.3376 94.0159 97.352 94.5375 96.7568 95.4079C96.1584 96.2783 96.0304 97.3887 96.408 98.3711C96.4784 98.5439 103 115.731 96.6928 125.635C96.36 126.16 96.0432 126.685 95.7488 127.2Z" fill="white"/>
</g>
<defs>
<linearGradient id="paint0_linear_1_964" x1="0" y1="25600" x2="25600" y2="0" gradientUnits="userSpaceOnUse">
<stop stop-color="#BD0816"/>
<stop offset="1" stop-color="#FF5252"/>
</linearGradient>
<clipPath id="clip0_1_964">
<rect width="256" height="256" fill="white"/>
</clipPath>
</defs>
</svg>
