<svg width="256" height="256" viewBox="0 0 256 256" fill="none" xmlns="http://www.w3.org/2000/svg">
<g clip-path="url(#clip0_1_821)">
<path d="M256 0H0V256H256V0Z" fill="url(#paint0_linear_1_821)"/>
<path d="M86.3999 169.6H166.4V89.5999H86.3999V169.6ZM172.8 89.5999H185.6V95.9999H172.8V108.8H185.6V115.2H172.8V124.8H185.6V131.2H172.8V144H185.6V150.4H172.8V163.2H185.6V169.6H172.8V170.035C172.8 173.325 170.125 176 166.835 176H166.4V188.8H160V176H147.2V188.8H140.8V176H131.2V188.8H124.8V176H112V188.8H105.6V176H92.7999V188.8H86.3999V176H85.9647C82.6751 176 79.9999 173.325 79.9999 170.035V169.6H70.3999V163.2H79.9999V150.4H70.3999V144H79.9999V131.2H70.3999V124.8H79.9999V115.2H70.3999V108.8H79.9999V95.9999H70.3999V89.5999H79.9999V89.1647C79.9999 85.8751 82.6751 83.1999 85.9647 83.1999H86.3999V70.3999H92.7999V83.1999H105.6V70.3999H112V83.1999H124.8V70.3999H131.2V83.1999H140.8V70.3999H147.2V83.1999H160V70.3999H166.4V83.1999H166.835C170.125 83.1999 172.8 85.8751 172.8 89.1647V89.5999ZM131.2 210.803C131.2 211.021 131.021 211.2 130.803 211.2H45.1967C44.9791 211.2 44.7999 211.021 44.7999 210.803V125.197C44.7999 124.979 44.9791 124.8 45.1967 124.8H63.9999V118.4H45.1967C41.4495 118.4 38.3999 121.45 38.3999 125.197V210.803C38.3999 214.55 41.4495 217.6 45.1967 217.6H130.803C134.55 217.6 137.6 214.55 137.6 210.803V195.2H131.2V210.803ZM217.6 45.1967V130.803C217.6 134.55 214.55 137.6 210.803 137.6H192V131.2H210.803C211.021 131.2 211.2 131.021 211.2 130.803V45.1967C211.2 44.9791 211.021 44.7999 210.803 44.7999H125.197C124.979 44.7999 124.8 44.9791 124.8 45.1967V63.9999H118.4V45.1967C118.4 41.4495 121.45 38.3999 125.197 38.3999H210.803C214.55 38.3999 217.6 41.4495 217.6 45.1967Z" fill="white"/>
</g>
<defs>
<linearGradient id="paint0_linear_1_821" x1="0" y1="25600" x2="25600" y2="0" gradientUnits="userSpaceOnUse">
<stop stop-color="#C8511B"/>
<stop offset="1" stop-color="#FF9900"/>
</linearGradient>
<clipPath id="clip0_1_821">
<rect width="256" height="256" fill="white"/>
</clipPath>
</defs>
</svg>
