<svg width="256" height="256" viewBox="0 0 256 256" fill="none" xmlns="http://www.w3.org/2000/svg">
<g clip-path="url(#clip0_1_956)">
<path d="M256 0H0V256H256V0Z" fill="url(#paint0_linear_1_956)"/>
<path d="M194.942 167.337L199.047 163.2H179.999L174.964 158.125L165.44 167.725L137.797 139.862L142.286 135.338L165.44 158.675L174.964 149.075L182.628 156.8H199.047L194.942 152.662L199.431 148.138L211.2 160L199.431 171.862L194.942 167.337ZM165.44 117.075L170.475 112H180.516L190.025 122.662L185.301 126.938L177.688 118.4H173.103L165.44 126.125L157.776 118.4H140.042V112H160.404L165.44 117.075ZM199.047 115.2H194.012V108.8H209.886V124.8H203.536V119.725L195.326 128L203.536 136.275V131.2H209.886V147.2H194.012V140.8H199.047L190.837 132.525L182.628 140.8H163.579L158.16 146.262L153.671 141.737L160.951 134.4H179.999L199.047 115.2ZM137.797 157.737L144.147 151.338L148.636 155.862L142.286 162.262L137.797 157.737ZM105.12 44.7999C136.927 44.7999 159.09 54.9183 159.09 63.9999C159.09 73.0815 136.927 83.1999 105.12 83.1999C73.3122 83.1999 51.1495 73.0815 51.1495 63.9999C51.1495 54.9183 73.3122 44.7999 105.12 44.7999ZM136.867 105.6H130.518V176C130.518 177.766 131.937 179.2 133.692 179.2H159.09V192C159.09 201.082 136.927 211.2 105.12 211.2C74.325 211.2 51.1495 200.067 51.1495 192.848V168.557C60.8546 176.909 80.8554 182.4 105.12 182.4C113.006 182.4 120.666 181.795 127.879 180.598L126.851 174.281C119.974 175.421 112.663 176 105.12 176C73.3122 176 51.1495 165.882 51.1495 156.8V123.757C60.8546 132.109 80.8554 137.6 105.12 137.6C113.006 137.6 120.666 136.995 127.879 135.798L126.851 129.481C119.974 130.621 112.663 131.2 105.12 131.2C73.3122 131.2 51.1495 121.081 51.1495 112V75.7567C60.8546 84.1087 80.8554 89.5999 105.12 89.5999C129.384 89.5999 149.385 84.1087 159.09 75.7567V108.8H165.44V63.9999C165.44 49.4047 139.508 38.3999 105.12 38.3999C70.7312 38.3999 44.8 49.4047 44.8 63.9999V192.848C44.8 206.032 72.9884 217.6 105.12 217.6C139.508 217.6 165.44 206.595 165.44 192V179.2H209.886V172.8H136.867V105.6Z" fill="white"/>
</g>
<defs>
<linearGradient id="paint0_linear_1_956" x1="0" y1="25600" x2="25600" y2="0" gradientUnits="userSpaceOnUse">
<stop stop-color="#2E27AD"/>
<stop offset="1" stop-color="#527FFF"/>
</linearGradient>
<clipPath id="clip0_1_956">
<rect width="256" height="256" fill="white"/>
</clipPath>
</defs>
</svg>
