<svg width="256" height="256" viewBox="0 0 256 256" fill="none" xmlns="http://www.w3.org/2000/svg">
<g clip-path="url(#clip0_1_825)">
<path d="M256 0H0V256H256V0Z" fill="url(#paint0_linear_1_825)"/>
<path d="M204.8 154.349L179.2 138.986V102.4C179.2 101.261 178.598 100.208 177.613 99.6352L140.8 78.1632V47.2064L204.8 85.0272V154.349ZM209.629 80.4448L139.229 38.8448C138.237 38.2592 137.018 38.2528 136.013 38.8192C135.018 39.3888 134.4 40.4512 134.4 41.6V80C134.4 81.136 135.005 82.1888 135.987 82.7648L172.8 104.237V140.8C172.8 141.923 173.392 142.966 174.355 143.542L206.355 162.742C206.861 163.046 207.43 163.2 208 163.2C208.544 163.2 209.088 163.062 209.578 162.784C210.582 162.218 211.2 161.152 211.2 160V83.2C211.2 82.0672 210.605 81.0208 209.629 80.4448ZM129.424 213.962L54.4 174.077V85.0272L118.4 47.2064V78.2432L84.6816 99.6992C83.76 100.288 83.2 101.306 83.2 102.4V156.8C83.2 157.994 83.8656 159.088 84.9216 159.638L127.971 182.038C128.896 182.518 129.997 182.522 130.918 182.042L172.685 160.461L198.387 175.885L129.424 213.962ZM206.448 173.254L174.448 154.054C173.494 153.485 172.317 153.446 171.331 153.958L129.456 175.594L89.6 154.858V104.157L123.318 82.7008C124.24 82.112 124.8 81.0944 124.8 80V41.6C124.8 40.4512 124.186 39.3888 123.187 38.8192C122.189 38.2528 120.966 38.2592 119.971 38.8448L49.5712 80.4448C48.5984 81.0208 48 82.0672 48 83.2V176C48 177.181 48.6528 178.269 49.696 178.826L127.949 220.426C128.419 220.675 128.934 220.8 129.45 220.8C129.984 220.8 130.515 220.665 130.998 220.4L206.349 178.8C207.35 178.246 207.978 177.2 208.001 176.058C208.019 174.912 207.427 173.843 206.448 173.254Z" fill="white"/>
</g>
<defs>
<linearGradient id="paint0_linear_1_825" x1="0" y1="25600" x2="25600" y2="0" gradientUnits="userSpaceOnUse">
<stop stop-color="#C8511B"/>
<stop offset="1" stop-color="#FF9900"/>
</linearGradient>
<clipPath id="clip0_1_825">
<rect width="256" height="256" fill="white"/>
</clipPath>
</defs>
</svg>
