<svg width="256" height="256" viewBox="0 0 256 256" fill="none" xmlns="http://www.w3.org/2000/svg">
<g clip-path="url(#clip0_1_765)">
<path d="M256 0H0V256H256V0Z" fill="url(#paint0_linear_1_765)"/>
<path d="M169.6 127.882H185.6V121.472H169.6V127.882ZM89.6 166.341H105.6V159.931H89.6V166.341ZM57.6 166.341H80V159.931H57.6V166.341ZM57.6 147.112H96V140.702H57.6V147.112ZM57.6 108.653H86.4V102.243H57.6V108.653ZM57.6 127.882H163.2V121.472H57.6V127.882ZM118.4 198.39H44.8V89.4233H118.4V115.063H124.8V86.2184C124.8 84.4493 123.366 83.0135 121.6 83.0135H41.6C39.8304 83.0135 38.4 84.4493 38.4 86.2184V201.595C38.4 203.364 39.8304 204.8 41.6 204.8H121.6C123.366 204.8 124.8 203.364 124.8 201.595V137.497H118.4V198.39ZM217.6 118.267C217.6 138.978 198.954 146.182 189.094 147.099L137.6 147.112V140.702H188.8C189.424 140.628 211.2 138.279 211.2 118.267C211.2 100.044 194.762 96.3459 191.469 95.7883C189.827 95.5094 188.672 94.0224 188.813 92.3622C188.816 92.3013 188.822 92.2436 188.829 92.186C188.653 81.8886 182.339 78.6709 179.603 77.7607C174.496 76.0621 168.803 77.687 165.792 81.7251C165.091 82.6738 163.933 83.1577 162.755 82.9783C161.59 82.802 160.614 82.0008 160.218 80.8855C158.23 75.3153 155.347 71.7066 151.338 67.6909C141.309 57.7236 127.696 54.9706 114.96 60.3292C108.278 63.1463 102.438 69.5305 98.9504 77.8472L93.0496 75.3602C97.184 65.5179 104.269 57.8838 112.48 54.4225C127.696 48.0159 143.907 51.2817 155.853 63.1495C159.277 66.582 162.112 69.9247 164.32 74.2513C169.098 70.7131 175.542 69.6555 181.622 71.6778C189.405 74.2673 194.326 81.0265 195.12 90.013C206.019 92.7628 217.6 101.477 217.6 118.267Z" fill="white"/>
</g>
<defs>
<linearGradient id="paint0_linear_1_765" x1="0" y1="25600" x2="25600" y2="0" gradientUnits="userSpaceOnUse">
<stop stop-color="#B0084D"/>
<stop offset="1" stop-color="#FF4F8B"/>
</linearGradient>
<clipPath id="clip0_1_765">
<rect width="256" height="256" fill="white"/>
</clipPath>
</defs>
</svg>
