<svg width="256" height="256" viewBox="0 0 256 256" fill="none" xmlns="http://www.w3.org/2000/svg">
<g clip-path="url(#clip0_1_877)">
<path d="M256 0H0V256H256V0Z" fill="url(#paint0_linear_1_877)"/>
<path d="M172.599 144.675C175.041 147.523 178.666 149.331 182.701 149.331C190.035 149.331 196 143.363 196 136.029H189.6C189.6 139.837 186.506 142.931 182.701 142.931C178.896 142.931 175.799 139.837 175.799 136.029H169.399C169.399 139.837 166.305 142.931 162.5 142.931C158.692 142.931 155.598 139.837 155.598 136.029H149.198C149.198 139.837 146.1 142.931 142.296 142.931C138.491 142.931 135.393 139.837 135.393 136.029H128.994C128.994 139.837 125.896 142.931 122.094 142.931V149.331C126.133 149.331 129.752 147.523 132.193 144.675C134.635 147.523 138.261 149.331 142.296 149.331C146.334 149.331 149.956 147.523 152.398 144.675C154.836 147.523 158.462 149.331 162.5 149.331C166.535 149.331 170.157 147.523 172.599 144.675ZM169.789 101.136H163.39C163.39 104.941 160.292 108.035 156.487 108.035C152.683 108.035 149.588 104.941 149.588 101.136H143.188C143.188 104.941 140.091 108.035 136.283 108.035C132.481 108.035 129.384 104.941 129.384 101.136H122.984C122.984 104.941 119.887 108.035 116.085 108.035V114.435C120.123 114.435 123.742 112.627 126.184 109.779C128.626 112.627 132.248 114.435 136.283 114.435C140.321 114.435 143.947 112.627 146.388 109.779C148.827 112.627 152.449 114.435 156.487 114.435C160.526 114.435 164.148 112.627 166.59 109.779C169.031 112.627 172.653 114.435 176.689 114.435V108.035C172.887 108.035 169.789 104.941 169.789 101.136ZM119.058 188.554C123.093 188.554 126.715 186.746 129.157 183.898C131.598 186.746 135.221 188.554 139.259 188.554C143.297 188.554 146.92 186.746 149.358 183.898C151.799 186.746 155.422 188.554 159.46 188.554V182.154C155.655 182.154 152.558 179.059 152.558 175.254H146.158C146.158 179.059 143.064 182.154 139.259 182.154C135.454 182.154 132.357 179.059 132.357 175.254H125.957C125.957 179.059 122.859 182.154 119.058 182.154C115.25 182.154 112.152 179.059 112.152 175.254H105.752C105.752 179.059 102.658 182.154 98.8534 182.154V188.554C102.892 188.554 106.514 186.746 108.952 183.898C111.394 186.746 115.019 188.554 119.058 188.554ZM73.6027 64.0001H76.8026V60.8001H73.6027V64.0001ZM67.1996 67.2001V57.6001C67.1996 55.8305 68.6332 54.4001 70.4028 54.4001H80.0026C81.7689 54.4001 83.2025 55.8305 83.2025 57.6001V67.2001C83.2025 68.9665 81.7689 70.4001 80.0026 70.4001H70.4028C68.6332 70.4001 67.1996 68.9665 67.1996 67.2001ZM92.8023 51.2001H96.0022V48.0001H92.8023V51.2001ZM86.4024 54.4001V44.8001C86.4024 43.0305 87.8328 41.6001 89.6024 41.6001H99.2022C100.969 41.6001 102.402 43.0305 102.402 44.8001V54.4001C102.402 56.1665 100.969 57.6001 99.2022 57.6001H89.6024C87.8328 57.6001 86.4024 56.1665 86.4024 54.4001ZM96.0022 73.6001H99.2022V70.4001H96.0022V73.6001ZM102.402 64.0001C104.168 64.0001 105.602 65.4305 105.602 67.2001V76.8001C105.602 78.5665 104.168 80.0001 102.402 80.0001H92.8023C91.0327 80.0001 89.6024 78.5665 89.6024 76.8001V67.2001C89.6024 65.4305 91.0327 64.0001 92.8023 64.0001H102.402ZM90.2007 89.8401C86.9528 89.8401 74.8699 89.7153 65.7468 88.0417L85.9032 119.888C86.2296 120.4 86.4024 120.992 86.4024 121.6V125.635C88.62 126.166 90.7159 126.183 92.8023 125.677V121.6C92.8023 120.995 92.9719 120.403 93.2951 119.888L114.293 88.0961C107.25 89.3441 97.9702 89.8401 90.2007 89.8401ZM54.6111 81.8145C54.5887 81.6641 54.5599 81.3793 54.5599 81.2289C54.5599 79.2609 54.5599 73.2737 86.3384 72.6529L86.4632 79.0529C76.2298 79.2513 68.6652 80.2273 64.3549 81.2289C69.062 82.3265 77.7946 83.4401 90.2007 83.4401C102.152 83.4401 111.08 82.3649 115.989 81.2257C114.351 80.8385 112.079 80.4161 108.949 80.0353L109.727 73.6833C121.17 75.0785 125.838 77.2673 125.838 81.2289C125.838 82.0737 125.534 83.2321 124.45 84.3393L99.2022 122.525V128C99.2022 129.306 98.4054 130.48 97.1958 130.966C94.735 131.955 92.2647 132.448 89.7431 132.448C87.2536 132.448 84.7161 131.965 82.0953 131.002C80.8377 130.538 80.0026 129.341 80.0026 128V122.528L55.4399 83.7185C55.4335 83.7089 55.4271 83.6993 55.4207 83.6897L55.3951 83.6449L54.9183 82.8897L54.9663 82.8577C54.7935 82.5313 54.6655 82.1825 54.6111 81.8145ZM86.4024 144V134.4H80.0026V140.8H73.6027C72.3611 140.8 71.2283 141.517 70.7035 142.64C70.1756 143.766 70.3484 145.095 71.1419 146.048L87.1416 165.248C87.7496 165.978 88.652 166.4 89.6024 166.4C90.5495 166.4 91.4519 165.978 92.0599 165.248L108.06 146.048C108.853 145.095 109.026 143.766 108.498 142.64C107.973 141.517 106.84 140.8 105.602 140.8H99.2022V134.4H92.8023V144C92.8023 145.767 94.2327 147.2 96.0022 147.2H98.7702L89.6024 158.202L80.4313 147.2H83.2025C84.9688 147.2 86.4024 145.767 86.4024 144ZM204.8 137.6C204.8 179.946 170.346 214.4 127.998 214.4C85.6536 214.4 51.2 179.946 51.2 137.6C51.2 125.895 53.7663 114.659 58.8222 104.205L64.5853 106.992C59.9518 116.57 57.5998 126.867 57.5998 137.6C57.5998 176.416 89.1832 208 127.998 208C166.817 208 198.4 176.416 198.4 137.6C198.4 98.7809 166.817 67.2001 127.998 67.2001C123.883 67.2001 119.765 67.5553 115.752 68.2593L114.648 61.9553C119.023 61.1873 123.515 60.8001 127.998 60.8001C170.346 60.8001 204.8 95.2513 204.8 137.6Z" fill="white"/>
</g>
<defs>
<linearGradient id="paint0_linear_1_877" x1="0" y1="25600" x2="25600" y2="0" gradientUnits="userSpaceOnUse">
<stop stop-color="#4D27A8"/>
<stop offset="1" stop-color="#A166FF"/>
</linearGradient>
<clipPath id="clip0_1_877">
<rect width="256" height="256" fill="white"/>
</clipPath>
</defs>
</svg>
