<svg width="256" height="256" viewBox="0 0 256 256" fill="none" xmlns="http://www.w3.org/2000/svg">
<g clip-path="url(#clip0_1_857)">
<path d="M256 0H0V256H256V0Z" fill="url(#paint0_linear_1_857)"/>
<path d="M105.6 73.6001H112V67.2001H105.6V73.6001ZM99.2 76.8001V64.0001C99.2 62.2337 100.63 60.8001 102.4 60.8001H115.2C116.97 60.8001 118.4 62.2337 118.4 64.0001V76.8001C118.4 78.5665 116.97 80.0001 115.2 80.0001H102.4C100.63 80.0001 99.2 78.5665 99.2 76.8001ZM131.2 54.4001H137.6V48.0001H131.2V54.4001ZM124.8 57.6001V44.8001C124.8 43.0337 126.23 41.6001 128 41.6001H140.8C142.57 41.6001 144 43.0337 144 44.8001V57.6001C144 59.3665 142.57 60.8001 140.8 60.8001H128C126.23 60.8001 124.8 59.3665 124.8 57.6001ZM137.6 86.4001H144V80.0001H137.6V86.4001ZM134.4 73.6001H147.2C148.97 73.6001 150.4 75.0337 150.4 76.8001V89.6001C150.4 91.3665 148.97 92.8001 147.2 92.8001H134.4C132.63 92.8001 131.2 91.3665 131.2 89.6001V76.8001C131.2 75.0337 132.63 73.6001 134.4 73.6001ZM128 107.2C122.365 107.2 101.933 106.96 88.6432 103.693L121.107 155.091C121.427 155.603 121.6 156.195 121.6 156.8V164.086C126.093 165.389 130.243 165.402 134.4 164.138V156.8C134.4 156.195 134.573 155.603 134.893 155.091L167.357 103.693C154.067 106.96 133.635 107.2 128 107.2ZM77.6128 98.2145C77.104 97.4721 76.8 96.6721 76.8 95.7985C76.8 86.6945 106.829 85.0113 124.73 84.8161L124.797 91.2161C102.806 91.4561 89.3696 93.9649 84.6336 95.8337C89.6576 97.9329 104.458 100.8 128 100.8C151.482 100.8 166.262 97.9489 171.325 95.8529C169.258 95.0177 164.976 93.7825 156.413 92.7361L157.187 86.3841C176.586 88.7521 179.2 92.4705 179.2 95.7985C179.2 96.6721 178.896 97.4721 178.387 98.2145L140.8 157.728V166.4C140.8 167.706 140.006 168.883 138.794 169.37C135.302 170.771 131.795 171.469 128.211 171.469C124.659 171.469 121.037 170.781 117.293 169.402C116.038 168.938 115.2 167.741 115.2 166.4V157.728L77.6128 98.2145ZM150.157 190.775C150.653 191.971 150.378 193.347 149.462 194.263L130.262 213.462C129.638 214.086 128.819 214.4 128 214.4C127.181 214.4 126.362 214.086 125.738 213.462L106.538 194.263C105.622 193.347 105.347 191.971 105.843 190.775C106.336 189.581 107.507 188.8 108.8 188.8H118.4V179.2H124.8V192C124.8 193.766 123.37 195.2 121.6 195.2H116.525L128 206.675L139.475 195.2H134.4C132.63 195.2 131.2 193.766 131.2 192V179.2H137.6V188.8H147.2C148.493 188.8 149.664 189.581 150.157 190.775Z" fill="white"/>
</g>
<defs>
<linearGradient id="paint0_linear_1_857" x1="0" y1="25600" x2="25600" y2="0" gradientUnits="userSpaceOnUse">
<stop stop-color="#4D27A8"/>
<stop offset="1" stop-color="#A166FF"/>
</linearGradient>
<clipPath id="clip0_1_857">
<rect width="256" height="256" fill="white"/>
</clipPath>
</defs>
</svg>
