<svg width="256" height="256" viewBox="0 0 256 256" fill="none" xmlns="http://www.w3.org/2000/svg">
<g clip-path="url(#clip0_1_729)">
<path d="M256 0H0V256H256V0Z" fill="url(#paint0_linear_1_729)"/>
<path d="M109.008 178.023H118.4V171.569H109.008V178.023ZM124.8 178.023H134.4V171.569H124.8V178.023ZM86.3999 46.8142L44.7999 67.4625V195.819L86.3999 209.887V46.8142ZM92.7999 87.6589V171.569H102.4V178.023H92.7999V214.373C92.7999 215.412 92.3039 216.386 91.4687 216.993C90.9183 217.393 90.2623 217.6 89.5999 217.6C89.2607 217.6 88.9151 217.545 88.5823 217.432L40.5823 201.202C39.2767 200.76 38.3999 199.527 38.3999 198.142V65.4519C38.3999 64.2255 39.0943 63.0992 40.1887 62.557L88.1887 38.733C89.1775 38.2392 90.3519 38.2973 91.2895 38.8879C92.2271 39.4753 92.7999 40.5113 92.7999 41.6279V81.2043H102.4V87.6589H92.7999ZM140.8 178.023H150.4V171.569H140.8V178.023ZM141.008 87.6589H150.4V81.2043H141.008V87.6589ZM125.008 87.6589H134.4V81.2043H125.008V87.6589ZM109.008 87.6589H118.4V81.2043H109.008V87.6589ZM211.2 67.4625L169.6 46.8142V209.887L211.2 195.819V67.4625ZM217.6 198.142C217.6 199.527 216.723 200.76 215.418 201.202L167.418 217.432C167.085 217.545 166.739 217.6 166.4 217.6C165.737 217.6 165.082 217.393 164.531 216.993C163.696 216.386 163.2 215.412 163.2 214.373V178.023H157.008V171.569H163.2V87.6589H157.008V81.2043H163.2V41.6279C163.2 40.5113 163.773 39.4753 164.71 38.8879C165.648 38.2973 166.819 38.2392 167.811 38.733L215.811 62.557C216.906 63.0992 217.6 64.2255 217.6 65.4519V198.142ZM137.389 108.181L131.411 105.864L115.411 147.819L121.389 150.136L137.389 108.181ZM159.062 128.668C160.313 127.406 160.313 125.364 159.062 124.105L146.262 111.196L141.737 115.759L152.275 126.387L141.737 137.014L146.262 141.578L159.062 128.668ZM109.738 141.578L96.9375 128.668C95.6863 127.406 95.6863 125.364 96.9375 124.105L109.738 111.196L114.262 115.759L103.725 126.387L114.262 137.014L109.738 141.578Z" fill="white"/>
</g>
<defs>
<linearGradient id="paint0_linear_1_729" x1="0" y1="25600" x2="25600" y2="0" gradientUnits="userSpaceOnUse">
<stop stop-color="#B0084D"/>
<stop offset="1" stop-color="#FF4F8B"/>
</linearGradient>
<clipPath id="clip0_1_729">
<rect width="256" height="256" fill="white"/>
</clipPath>
</defs>
</svg>
