<svg width="256" height="256" viewBox="0 0 256 256" fill="none" xmlns="http://www.w3.org/2000/svg">
<g clip-path="url(#clip0_1_948)">
<path d="M256 0H0V256H256V0Z" fill="url(#paint0_linear_1_948)"/>
<path d="M144 140.8H211.2V118.4H144V140.8ZM214.4 112H140.8C139.03 112 137.6 113.433 137.6 115.2V144C137.6 145.766 139.03 147.2 140.8 147.2H214.4C216.17 147.2 217.6 145.766 217.6 144V115.2C217.6 113.433 216.17 112 214.4 112ZM139.2 200C139.2 206.176 134.176 211.2 128 211.2C121.824 211.2 116.8 206.176 116.8 200C116.8 193.824 121.824 188.8 128 188.8C134.176 188.8 139.2 193.824 139.2 200ZM44.8 150.4H102.4V137.6H44.8V150.4ZM44.8 118.4H102.4V105.6H44.8V118.4ZM116.8 55.9999C116.8 49.8239 121.824 44.7999 128 44.7999C134.176 44.7999 139.2 49.8239 139.2 55.9999C139.2 62.1759 134.176 67.1999 128 67.1999C121.824 67.1999 116.8 62.1759 116.8 55.9999ZM179.2 169.6H76.8V156.8H105.6C107.37 156.8 108.8 155.366 108.8 153.6V134.4C108.8 132.633 107.37 131.2 105.6 131.2H76.8V124.8H105.6C107.37 124.8 108.8 123.366 108.8 121.6V102.4C108.8 100.634 107.37 99.1999 105.6 99.1999H76.8V89.5999H179.2V102.4H185.6V86.3999C185.6 84.6335 184.17 83.1999 182.4 83.1999H131.2V73.2927C139.379 71.7823 145.6 64.6111 145.6 55.9999C145.6 46.2943 137.702 38.3999 128 38.3999C118.298 38.3999 110.4 46.2943 110.4 55.9999C110.4 64.6111 116.621 71.7823 124.8 73.2927V83.1999H73.6C71.8304 83.1999 70.4 84.6335 70.4 86.3999V99.1999H41.6C39.8304 99.1999 38.4 100.634 38.4 102.4V121.6C38.4 123.366 39.8304 124.8 41.6 124.8H70.4V131.2H41.6C39.8304 131.2 38.4 132.633 38.4 134.4V153.6C38.4 155.366 39.8304 156.8 41.6 156.8H70.4V172.8C70.4 174.566 71.8304 176 73.6 176H124.8V182.707C116.621 184.217 110.4 191.389 110.4 200C110.4 209.706 118.298 217.6 128 217.6C137.702 217.6 145.6 209.706 145.6 200C145.6 191.389 139.379 184.217 131.2 182.707V176H182.4C184.17 176 185.6 174.566 185.6 172.8V156.886H179.2V169.6Z" fill="white"/>
</g>
<defs>
<linearGradient id="paint0_linear_1_948" x1="0" y1="25600" x2="25600" y2="0" gradientUnits="userSpaceOnUse">
<stop stop-color="#B0084D"/>
<stop offset="1" stop-color="#FF4F8B"/>
</linearGradient>
<clipPath id="clip0_1_948">
<rect width="256" height="256" fill="white"/>
</clipPath>
</defs>
</svg>
