<svg width="256" height="256" viewBox="0 0 256 256" fill="none" xmlns="http://www.w3.org/2000/svg">
<g clip-path="url(#clip0_1_900)">
<path d="M256 0H0V256H256V0Z" fill="url(#paint0_linear_1_900)"/>
<path d="M141.632 164.256C127.498 164.256 116 152.758 116 138.627C116 124.493 127.498 112.995 141.632 112.995C155.767 112.995 167.264 124.493 167.264 138.627C167.264 152.758 155.767 164.256 141.632 164.256ZM141.632 106.595C123.968 106.595 109.6 120.963 109.6 138.627C109.6 156.288 123.968 170.656 141.632 170.656C159.296 170.656 173.664 156.288 173.664 138.627C173.664 120.963 159.296 106.595 141.632 106.595ZM206.554 196.307C204.471 198.615 200.887 198.807 198.566 196.727L171.879 172.653C174.698 170.144 177.229 167.328 179.357 164.202L206.131 188.323C208.445 190.41 208.631 193.997 206.554 196.307ZM102.435 138.627C102.435 117.011 120.019 99.4273 141.632 99.4273C163.245 99.4273 180.829 117.011 180.829 138.627C180.829 160.24 163.245 177.824 141.632 177.824C120.019 177.824 102.435 160.24 102.435 138.627ZM182.602 158.512C185.536 152.493 187.229 145.76 187.229 138.627C187.229 113.482 166.775 93.0273 141.632 93.0273C116.49 93.0273 96.0353 113.482 96.0353 138.627C96.0353 163.77 116.49 184.224 141.632 184.224C150.909 184.224 159.539 181.424 166.749 176.646L194.285 201.485C196.583 203.549 199.466 204.567 202.342 204.563C205.642 204.563 208.928 203.226 211.309 200.592C215.744 195.658 215.347 188.022 210.419 183.571L182.602 158.512ZM214.4 64.0001V172.8H208V67.2001H182.4V102.4H176V64.0001C176 62.2337 177.434 60.8001 179.2 60.8001H211.2C212.97 60.8001 214.4 62.2337 214.4 64.0001ZM163.2 195.2H169.6V211.2C169.6 212.97 168.17 214.4 166.4 214.4H134.4C132.63 214.4 131.2 212.97 131.2 211.2V192H137.6V208H163.2V195.2ZM137.6 83.2001H131.2V44.8001C131.2 43.0337 132.63 41.6001 134.4 41.6001H166.4C168.17 41.6001 169.6 43.0337 169.6 44.8001V89.6001H163.2V48.0001H137.6V83.2001ZM118.4 188.8H124.8V211.2C124.8 212.97 123.37 214.4 121.6 214.4H89.6001C87.8337 214.4 86.4001 212.97 86.4001 211.2V163.2H92.8001V208H118.4V188.8ZM92.8001 115.2H86.4001V73.6001C86.4001 71.8337 87.8337 70.4001 89.6001 70.4001H121.6C123.37 70.4001 124.8 71.8337 124.8 73.6001V86.4001H118.4V76.8001H92.8001V115.2ZM48.0001 208H73.6001V99.2001H48.0001V208ZM76.8001 92.8001H44.8001C43.0337 92.8001 41.6001 94.2337 41.6001 96.0001V211.2C41.6001 212.97 43.0337 214.4 44.8001 214.4H76.8001C78.5697 214.4 80.0001 212.97 80.0001 211.2V96.0001C80.0001 94.2337 78.5697 92.8001 76.8001 92.8001Z" fill="white"/>
</g>
<defs>
<linearGradient id="paint0_linear_1_900" x1="0" y1="25600" x2="25600" y2="0" gradientUnits="userSpaceOnUse">
<stop stop-color="#4D27A8"/>
<stop offset="1" stop-color="#A166FF"/>
</linearGradient>
<clipPath id="clip0_1_900">
<rect width="256" height="256" fill="white"/>
</clipPath>
</defs>
</svg>
