<svg width="256" height="256" viewBox="0 0 256 256" fill="none" xmlns="http://www.w3.org/2000/svg">
<g clip-path="url(#clip0_1_773)">
<path d="M256 0H0V256H256V0Z" fill="url(#paint0_linear_1_773)"/>
<path d="M149.47 85.9057V92.3318C146.674 92.3318 144.019 93.3503 141.994 95.2011C141.21 95.9144 140.12 96.1939 139.092 95.9561C138.06 95.7184 137.215 94.9826 136.829 93.993C132.908 83.9136 122.742 77.1405 111.531 77.1405C103.798 77.1405 96.4282 80.331 91.3115 85.8961C86.9178 90.661 84.5009 96.7594 84.5009 103.07C84.5009 104.474 83.5913 105.75 82.251 106.17C75.5658 108.269 70.5872 113.657 69.2213 120.247C69.2148 120.298 69.2084 120.346 69.1988 120.391C68.9738 121.612 68.8645 122.759 68.8645 123.897C68.8645 134.195 77.6035 142.574 88.3417 142.574H139.223V149H88.3417C74.0584 149 62.4364 137.739 62.4364 123.897C62.4364 122.409 62.5714 120.928 62.851 119.376C62.8606 119.296 62.8735 119.222 62.8896 119.148C64.5159 110.919 70.2787 104.076 78.1563 100.827C78.677 93.6909 81.6211 86.9275 86.5836 81.5456C92.9088 74.6632 102.005 70.7144 111.531 70.7144C123.973 70.7144 135.395 77.5196 141.113 88.0006C143.646 86.6351 146.51 85.9057 149.47 85.9057ZM219.97 219.967C214.622 225.314 205.915 225.311 200.567 219.97L156.769 176.205C164.158 170.64 170.576 163.854 175.729 156.153L219.986 200.593C225.315 205.939 225.305 214.63 219.97 219.967ZM32.0282 110.733C32.0282 69.0982 65.9108 35.2262 107.559 35.2262C149.206 35.2262 183.089 69.0982 183.089 110.733C183.089 152.368 149.206 186.24 107.559 186.24C65.9108 186.24 32.0282 152.368 32.0282 110.733ZM224.544 196.059L179.177 150.507C185.753 138.719 189.517 125.16 189.517 110.733C189.517 65.5574 152.751 28.8 107.559 28.8C62.3657 28.8 25.6001 65.5574 25.6001 110.733C25.6001 155.912 62.3657 192.666 107.559 192.666C123.674 192.666 138.699 187.975 151.389 179.91L196.022 224.517C199.95 228.44 205.108 230.4 210.267 230.4C215.425 230.4 220.587 228.437 224.515 224.511C232.351 216.674 232.363 203.912 224.544 196.059ZM107.559 166.961C76.5461 166.961 51.3125 141.736 51.3125 110.733C51.3125 79.7302 76.5461 54.5045 107.559 54.5045C138.571 54.5045 163.804 79.7302 163.804 110.733C163.804 141.736 138.571 166.961 107.559 166.961ZM107.559 48.0784C73.001 48.0784 44.8844 76.1862 44.8844 110.733C44.8844 145.28 73.001 173.388 107.559 173.388C142.116 173.388 170.233 145.28 170.233 110.733C170.233 76.1862 142.116 48.0784 107.559 48.0784Z" fill="white"/>
</g>
<defs>
<linearGradient id="paint0_linear_1_773" x1="0" y1="25600" x2="25600" y2="0" gradientUnits="userSpaceOnUse">
<stop stop-color="#4D27A8"/>
<stop offset="1" stop-color="#A166FF"/>
</linearGradient>
<clipPath id="clip0_1_773">
<rect width="256" height="256" fill="white"/>
</clipPath>
</defs>
</svg>
