<svg width="256" height="256" viewBox="0 0 256 256" fill="none" xmlns="http://www.w3.org/2000/svg">
<g clip-path="url(#clip0_1_936)">
<path d="M256 0H0V256H256V0Z" fill="url(#paint0_linear_1_936)"/>
<path d="M172.834 159.998H166.434V172.798H153.634V179.198H166.434V191.998H172.834V179.198H185.634V172.798H172.834V159.998ZM195.234 175.998C195.234 161.883 183.749 150.399 169.634 150.399C155.519 150.399 144.034 161.883 144.034 175.998C144.034 190.114 155.519 201.598 169.634 201.598C183.749 201.598 195.234 190.114 195.234 175.998ZM201.634 175.998C201.634 193.643 187.279 207.998 169.634 207.998C151.989 207.998 137.634 193.643 137.634 175.998C137.634 158.354 151.989 143.998 169.634 143.998C187.279 143.998 201.634 158.354 201.634 175.998ZM115.234 185.506V71.8577L80.0341 85.3969V150.399C80.0725 151.723 81.3013 183.614 115.234 185.506ZM156.834 139.838V85.3969L121.634 71.8577V185.48C125.346 185.234 128.792 184.578 131.989 183.563C132.421 185.704 133.058 187.768 133.829 189.765C129.141 191.234 124.005 191.998 118.434 191.998C75.0453 191.998 73.6437 150.885 73.6341 150.469V83.1985C73.6341 81.8737 74.4501 80.6865 75.6853 80.2097L117.285 64.2097C118.028 63.9281 118.84 63.9281 119.583 64.2097L161.183 80.2097C162.418 80.6865 163.234 81.8737 163.234 83.1985V138.178C161.032 138.549 158.895 139.109 156.834 139.838ZM143.218 203.8C145.004 205.493 146.946 207.016 149.032 208.347C140.216 212.341 129.967 214.36 118.434 214.36C98.1877 214.36 82.0469 208.2 70.4629 196.053C49.8837 174.475 51.1701 142.018 51.2373 140.648L51.2341 70.3985C51.2341 69.0897 52.0309 67.9153 53.2469 67.4257L117.247 41.8257C118.008 41.5249 118.86 41.5249 119.621 41.8257L183.621 67.4257C184.837 67.9153 185.634 69.0897 185.634 70.3985V140.799C185.634 140.799 185.64 140.939 185.647 141.141C183.599 140.197 181.458 139.438 179.237 138.862L179.234 72.5649L118.434 48.2449L57.6341 72.5649V140.799C57.6149 141.256 56.4341 172.107 75.1253 191.669C85.4517 202.478 100.024 207.96 118.434 207.96C127.676 207.96 135.954 206.546 143.218 203.8Z" fill="white"/>
</g>
<defs>
<linearGradient id="paint0_linear_1_936" x1="0" y1="25600" x2="25600" y2="0" gradientUnits="userSpaceOnUse">
<stop stop-color="#BD0816"/>
<stop offset="1" stop-color="#FF5252"/>
</linearGradient>
<clipPath id="clip0_1_936">
<rect width="256" height="256" fill="white"/>
</clipPath>
</defs>
</svg>
