<svg width="256" height="256" viewBox="0 0 256 256" fill="none" xmlns="http://www.w3.org/2000/svg">
<g clip-path="url(#clip0_1_769)">
<path d="M256 0H0V256H256V0Z" fill="url(#paint0_linear_1_769)"/>
<path d="M176.39 166.793C176.39 161.501 172.083 157.194 166.79 157.194C161.498 157.194 157.19 161.501 157.19 166.793C157.19 172.086 161.498 176.393 166.79 176.393C172.083 176.393 176.39 172.086 176.39 166.793ZM182.79 166.793C182.79 175.616 175.613 182.793 166.79 182.793C157.968 182.793 150.79 175.616 150.79 166.793C150.79 157.971 157.968 150.793 166.79 150.793C175.613 150.793 182.79 157.971 182.79 166.793ZM97.2544 120.614C97.2544 115.322 92.9472 111.014 87.6544 111.014C82.3584 111.014 78.0544 115.322 78.0544 120.614C78.0544 125.907 82.3584 130.214 87.6544 130.214C92.9472 130.214 97.2544 125.907 97.2544 120.614ZM103.654 120.614C103.654 129.437 96.4736 136.614 87.6544 136.614C78.832 136.614 71.6544 129.437 71.6544 120.614C71.6544 111.792 78.832 104.614 87.6544 104.614C96.4736 104.614 103.654 111.792 103.654 120.614ZM127.136 70.4223C127.136 75.7151 131.443 80.0223 136.736 80.0223C142.032 80.0223 146.336 75.7151 146.336 70.4223C146.336 65.1263 142.032 60.8223 136.736 60.8223C131.443 60.8223 127.136 65.1263 127.136 70.4223ZM120.736 70.4223C120.736 61.5999 127.917 54.4223 136.736 54.4223C145.558 54.4223 152.736 61.5999 152.736 70.4223C152.736 79.2447 145.558 86.4223 136.736 86.4223C127.917 86.4223 120.736 79.2447 120.736 70.4223ZM211.2 128C211.2 98.3263 195.29 70.8735 169.638 56.0287C165.04 56.9567 160.592 58.2271 155.043 60.2335L152.867 54.2143C155.763 53.1711 158.355 52.3263 160.851 51.6031C150.547 47.1583 139.354 44.7999 128 44.7999C122.595 44.7999 117.277 45.3599 112.08 46.3743C115.843 48.5759 119.181 50.7711 122.422 53.2287L118.554 58.3263C113.984 54.8639 109.248 51.9295 103.03 48.6719C71.6096 58.5535 48.9792 86.2655 45.3856 118.81C51.9744 117.475 58.3008 116.749 65.3248 116.576L65.4816 122.973C58.1216 123.155 51.7984 123.936 44.8864 125.456C44.8576 126.304 44.8 127.161 44.8 128C44.8 155.706 58.5056 181.235 81.0464 196.63C77.0368 184.691 75.04 173.408 75.04 162.387C75.04 156.102 76.1216 150.941 77.264 145.478C77.5296 144.214 77.7984 142.928 78.0608 141.593L84.3424 142.832C84.0736 144.189 83.7984 145.504 83.5296 146.793C82.4096 152.144 81.44 156.765 81.44 162.387C81.44 174.893 84.1856 187.824 89.7728 201.866C101.674 208.045 114.525 211.2 128 211.2C136.819 211.2 145.427 209.792 153.638 207.085C156.861 200.726 159.251 194.726 161.248 187.837L167.395 189.619C165.936 194.643 164.262 199.21 162.269 203.766C167.434 201.443 172.32 198.57 176.906 195.216C175.802 192.509 174.618 189.817 173.309 187.197L179.034 184.333C180.147 186.56 181.168 188.838 182.144 191.129C200.656 175.28 211.2 152.512 211.2 128ZM217.6 128C217.6 155.926 204.909 181.757 182.787 198.877C177.309 203.133 171.366 206.666 165.085 209.51C162.419 210.72 159.706 211.84 156.915 212.781C147.699 215.977 137.962 217.6 128 217.6C113.28 217.6 98.6624 213.933 85.7216 206.995C56.5344 191.379 38.4 161.11 38.4 128C38.4 125.805 38.4576 124.134 38.5888 122.589C40.768 85.1999 66.4192 52.8383 102.403 42.1311C110.598 39.6575 119.216 38.3999 128 38.3999C143.386 38.3999 158.525 42.3615 171.789 49.8527C200.042 65.6799 217.6 95.6287 217.6 128ZM119.405 81.4815L115.2 76.6591C108.026 82.9183 102.445 89.5647 95.9264 99.6031L101.296 103.088C107.466 93.5807 112.714 87.3215 119.405 81.4815ZM109.68 122.966L107.6 129.017C122.298 134.064 135.12 142.115 147.949 154.355L152.368 149.725C138.845 136.825 125.28 128.323 109.68 122.966ZM152.467 85.3375C164.474 103.648 171.235 123.747 172.56 145.082L166.173 145.478C164.915 125.267 158.506 106.214 147.12 88.8479L152.467 85.3375Z" fill="white"/>
</g>
<defs>
<linearGradient id="paint0_linear_1_769" x1="0" y1="25600" x2="25600" y2="0" gradientUnits="userSpaceOnUse">
<stop stop-color="#4D27A8"/>
<stop offset="1" stop-color="#A166FF"/>
</linearGradient>
<clipPath id="clip0_1_769">
<rect width="256" height="256" fill="white"/>
</clipPath>
</defs>
</svg>
