<svg width="256" height="256" viewBox="0 0 256 256" fill="none" xmlns="http://www.w3.org/2000/svg">
<g clip-path="url(#clip0_1_928)">
<path d="M256 0H0V256H256V0Z" fill="url(#paint0_linear_1_928)"/>
<path d="M124.032 138.752C124.032 140.941 125.814 142.72 128 142.72C130.189 142.72 131.968 140.941 131.968 138.752C131.968 136.563 130.189 134.784 128 134.784C125.814 134.784 124.032 136.563 124.032 138.752ZM117.632 138.752C117.632 133.034 122.282 128.384 128 128.384C133.718 128.384 138.368 133.034 138.368 138.752C138.368 143.347 135.347 147.206 131.2 148.563V156.8H124.8V148.563C120.653 147.206 117.632 143.347 117.632 138.752ZM156.8 121.6H99.2V163.2H156.8V153.6H147.2V147.2H156.8V137.6H147.2V131.2H156.8V121.6ZM108.8 115.2H147.197L147.2 99.1999C147.203 90.8287 138.058 83.2063 128.013 83.1999H128.003C123.11 83.1999 118.17 85.0367 114.442 88.2399C110.858 91.3183 108.8 95.3151 108.8 99.2031V115.2ZM153.6 99.2031L153.597 115.2H160C161.77 115.2 163.2 116.633 163.2 118.4V166.4C163.2 168.166 161.77 169.6 160 169.6H96C94.2304 169.6 92.8 168.166 92.8 166.4V118.4C92.8 116.633 94.2304 115.2 96 115.2H102.4V99.1999C102.403 93.4463 105.27 87.6831 110.269 83.3855C115.142 79.1999 121.603 76.7999 128.003 76.7999H128.013C141.648 76.8063 153.603 87.2735 153.6 99.2031ZM61.4624 176.157L66.6496 172.406C57.8976 160.31 53.0592 146.118 52.4672 131.2H60.8V124.8H52.4768C53.1136 109.971 57.9456 95.8623 66.6496 83.8335L61.4624 80.0799C51.9648 93.2095 46.7168 108.614 46.0768 124.8H38.4V131.2H46.0672C46.6624 147.475 51.9168 162.963 61.4624 176.157ZM172.282 189.466C160.221 198.195 146.074 203.027 131.2 203.645V195.2H124.8V203.645C109.926 203.03 95.776 198.198 83.7088 189.466L79.9616 194.65C93.12 204.176 108.57 209.424 124.8 210.045V217.6H131.2V210.045C147.43 209.424 162.874 204.176 176.032 194.65L172.282 189.466ZM83.7088 66.7711C95.776 58.0415 109.926 53.2095 124.8 52.5951V60.7999H131.2V52.5951C146.074 53.2095 160.221 58.0415 172.282 66.7711L176.032 61.5871C162.874 52.0639 147.43 46.8159 131.2 46.1951V38.3999H124.8V46.1951C108.57 46.8127 93.12 52.0607 79.9616 61.5871L83.7088 66.7711ZM209.917 124.8C209.277 108.614 204.029 93.2095 194.528 80.0799L189.341 83.8335C198.048 95.8623 202.88 109.971 203.517 124.8H195.2V131.2H203.526C202.931 146.118 198.096 160.31 189.341 172.406L194.528 176.157C204.077 162.963 209.328 147.475 209.926 131.2H217.6V124.8H209.917ZM180.435 80.2047L205.523 55.1167L200.998 50.5919L175.91 75.6799L180.435 80.2047ZM75.5584 176.032L50.4704 201.12L54.9952 205.645L80.0832 180.557L75.5584 176.032ZM91.7312 87.2095L44.24 39.7215L39.7152 44.2463L87.2064 91.7343L91.7312 87.2095ZM173.418 168.896L216.275 211.754L211.75 216.278L168.893 173.421L173.418 168.896Z" fill="white"/>
</g>
<defs>
<linearGradient id="paint0_linear_1_928" x1="0" y1="25600" x2="25600" y2="0" gradientUnits="userSpaceOnUse">
<stop stop-color="#BD0816"/>
<stop offset="1" stop-color="#FF5252"/>
</linearGradient>
<clipPath id="clip0_1_928">
<rect width="256" height="256" fill="white"/>
</clipPath>
</defs>
</svg>
