<svg width="256" height="256" viewBox="0 0 256 256" fill="none" xmlns="http://www.w3.org/2000/svg">
<g clip-path="url(#clip0_1_952)">
<path d="M256 0H0V256H256V0Z" fill="url(#paint0_linear_1_952)"/>
<path d="M150.4 175.994H192V182.395H150.4V188.796H144V182.395H131.2V175.994H144V172.793H150.4V175.994ZM163.2 156.791H192V163.192H163.2V169.593H156.8V163.192H131.2V156.791H156.8V153.59H163.2V156.791ZM179.2 137.588H192V143.989H179.2V150.39H172.8V143.989H131.2V137.588H172.8V134.387H179.2V137.588ZM67.2 150.39H96V156.791H67.2C63.184 156.791 58.8928 155.584 55.7216 153.565C49.2576 149.471 38.4 139.889 38.4 121.733C38.4 99.7135 53.328 91.6323 62.016 88.7999L61.8432 85.8682C61.8368 67.7311 73.8368 49.1332 89.7472 42.4218C108.381 34.5006 128.115 38.4244 142.544 52.9193C147.021 57.4032 150.707 62.8728 153.53 69.2194C159.197 64.4986 166.912 62.8824 174.08 65.2348C183.19 68.224 188.861 76.6445 189.526 87.9806C198.608 90.1537 217.6 97.6268 217.6 122.021C217.6 122.933 217.565 123.813 217.53 124.655L211.133 124.485C211.165 123.631 211.2 122.843 211.2 122.021C211.2 100.472 193.418 95.06 185.773 93.735C184.909 93.5846 184.147 93.0917 183.661 92.3652C183.178 91.6451 183.008 90.7618 183.187 89.9136C183.094 80.373 179.059 73.604 172.083 71.3157C165.834 69.2578 158.966 71.5269 154.989 76.9421C154.285 77.8926 153.13 78.3887 151.942 78.2095C150.771 78.0399 149.792 77.2333 149.395 76.1164C146.73 68.6177 142.899 62.3351 138.013 57.4416C125.491 44.8605 108.374 41.4552 92.2432 48.317C78.7776 53.9947 68.2368 70.4067 68.2368 85.6794L68.5536 90.973C68.6432 92.5028 67.6352 93.8822 66.1472 94.2599C58.176 96.289 44.8 102.556 44.8 121.733C44.8 136.068 52.6016 144.015 59.152 148.159C61.312 149.539 64.3936 150.39 67.2 150.39ZM211.2 167.416L205.555 167.093C204.042 167.013 202.598 168.057 202.253 169.586C201.171 174.381 199.29 178.925 196.659 183.092C195.824 184.417 196.067 186.149 197.238 187.192L201.453 190.95L190.954 201.453L187.206 197.251C186.163 196.077 184.426 195.84 183.11 196.675C178.944 199.306 174.397 201.191 169.59 202.276C168.067 202.622 167.011 204.02 167.104 205.582L167.424 211.199H152.576L152.896 205.576C152.989 204.014 151.933 202.615 150.41 202.27C145.616 201.188 141.069 199.3 136.896 196.666C135.574 195.827 133.84 196.067 132.8 197.242L129.043 201.45L118.547 190.95L122.755 187.199C123.923 186.155 124.166 184.424 123.331 183.102C120.704 178.935 118.822 174.39 117.741 169.586C117.398 168.057 115.869 167.013 114.438 167.093L108.8 167.416V152.566L114.458 152.889C115.946 152.973 117.411 151.926 117.76 150.399C118.845 145.615 120.73 141.076 123.36 136.913C124.195 135.588 123.949 133.853 122.784 132.813L118.547 129.033L129.046 118.532L132.826 122.767C133.869 123.932 135.603 124.172 136.918 123.339C141.078 120.718 145.616 118.84 150.41 117.758C151.933 117.412 152.989 116.014 152.896 114.452L152.576 108.784H167.424L167.104 114.458C167.011 116.02 168.067 117.415 169.59 117.761C174.374 118.846 178.909 120.725 183.075 123.349C184.39 124.184 186.128 123.941 187.168 122.776L190.954 118.532L201.453 129.033L197.226 132.803C196.061 133.847 195.814 135.578 196.65 136.903C199.28 141.067 201.165 145.608 202.246 150.399C202.592 151.923 204.042 152.973 205.549 152.889L211.2 152.566V167.416ZM214.218 145.983L207.814 146.348C206.774 142.683 205.312 139.159 203.453 135.824L208.243 131.552C208.899 130.966 209.286 130.137 209.312 129.254C209.338 128.377 208.998 127.522 208.374 126.902L193.085 111.61C192.464 110.986 191.578 110.627 190.733 110.675C189.85 110.701 189.021 111.085 188.435 111.741L184.147 116.548C180.816 114.692 177.299 113.236 173.642 112.192L174.006 105.766C174.058 104.885 173.744 104.025 173.136 103.384C172.534 102.744 171.693 102.383 170.813 102.383H149.187C148.307 102.383 147.466 102.744 146.864 103.384C146.256 104.025 145.942 104.885 145.994 105.766L146.358 112.186C142.694 113.226 139.174 114.685 135.846 116.538L131.565 111.741C130.979 111.085 130.15 110.701 129.267 110.675C128.362 110.634 127.536 110.986 126.915 111.61L111.626 126.902C111.002 127.522 110.662 128.377 110.688 129.254C110.714 130.134 111.101 130.966 111.757 131.552L116.557 135.834C114.698 139.169 113.235 142.686 112.192 146.348L105.782 145.983C104.925 145.925 104.042 146.248 103.402 146.85C102.762 147.455 102.4 148.297 102.4 149.177V170.806C102.4 171.686 102.762 172.528 103.402 173.132C104.042 173.734 104.928 174.048 105.782 174L112.17 173.635C113.21 177.309 114.669 180.836 116.528 184.174L111.757 188.428C111.101 189.013 110.714 189.845 110.688 190.725C110.662 191.606 111.002 192.46 111.626 193.081L126.915 208.373C127.536 208.997 128.442 209.339 129.267 209.311C130.15 209.285 130.982 208.898 131.565 208.242L135.821 203.467C139.158 205.332 142.688 206.798 146.355 207.842L145.994 214.217C145.942 215.094 146.256 215.955 146.864 216.598C147.466 217.238 148.307 217.6 149.187 217.6H170.813C171.693 217.6 172.534 217.238 173.139 216.598C173.744 215.955 174.058 215.094 174.006 214.217L173.645 207.848C177.318 206.801 180.848 205.339 184.186 203.476L188.435 208.242C189.018 208.898 189.85 209.285 190.733 209.311C191.587 209.349 192.464 208.997 193.085 208.373L208.374 193.081C208.998 192.46 209.338 191.606 209.312 190.725C209.286 189.845 208.899 189.013 208.24 188.428L203.462 184.168C205.322 180.83 206.781 177.303 207.824 173.635L214.218 174C215.082 174.048 215.958 173.734 216.598 173.132C217.238 172.528 217.6 171.686 217.6 170.806V149.177C217.6 148.297 217.238 147.455 216.598 146.85C215.958 146.248 215.085 145.928 214.218 145.983Z" fill="white"/>
</g>
<defs>
<linearGradient id="paint0_linear_1_952" x1="0" y1="25600" x2="25600" y2="0" gradientUnits="userSpaceOnUse">
<stop stop-color="#B0084D"/>
<stop offset="1" stop-color="#FF4F8B"/>
</linearGradient>
<clipPath id="clip0_1_952">
<rect width="256" height="256" fill="white"/>
</clipPath>
</defs>
</svg>
