<svg width="256" height="256" viewBox="0 0 256 256" fill="none" xmlns="http://www.w3.org/2000/svg">
<g clip-path="url(#clip0_1_789)">
<path d="M256 0H0V256H256V0Z" fill="url(#paint0_linear_1_789)"/>
<path d="M85.2106 89.935H78.754V67.5937C78.754 65.8064 79.9065 64.4244 81.7176 64.4244L104.581 64.402V70.7853H89.4397L104.997 86.204L100.374 90.7936L84.9943 75.6653L85.2106 89.935ZM175.035 124.711L181.014 127.357L160.082 173.584L154.106 170.938L175.035 124.711ZM179.229 158.287L192.039 149.041L180.756 137.726L185.421 133.178L199.37 147.17C200.039 147.841 200.381 148.766 200.3 149.705C200.226 150.643 199.738 151.505 198.967 152.057L183.087 163.515L179.229 158.287ZM150.29 130.121L154.148 135.349L141.151 144.729L152.473 156.046L147.821 160.601L133.823 146.609C133.151 145.938 132.806 145.013 132.886 144.075C132.961 143.133 133.445 142.274 134.22 141.719L150.29 130.121ZM220.8 77.2164V214.36C220.8 216.151 219.334 217.6 217.523 217.6H117.494C116.622 217.6 115.793 217.258 115.179 216.649C114.566 216.042 114.266 215.267 114.266 214.408V176.109H120.722V211.217H214.343V80.3602H120.722V73.9769H217.523C219.334 73.9769 220.8 75.4259 220.8 77.2164ZM106.182 110.681C106.182 104.514 111.253 99.4971 117.494 99.4971C123.734 99.4971 128.806 104.514 128.806 110.681C128.806 116.847 123.734 121.864 117.494 121.864C111.253 121.864 106.182 116.847 106.182 110.681ZM56.1558 211.229C49.9154 211.229 44.8437 206.212 44.8437 200.046C44.8437 193.88 49.9154 188.863 56.1558 188.863C62.3961 188.863 67.4678 193.88 67.4678 200.046C67.4678 206.212 62.3961 211.229 56.1558 211.229ZM44.8437 136.214C44.8437 130.047 49.9154 125.03 56.1558 125.03C62.4994 125.03 67.4678 129.942 67.4678 136.214C67.4678 142.38 62.3961 147.397 56.1558 147.397C49.9154 147.397 44.8437 142.38 44.8437 136.214ZM44.8567 55.9538C44.8567 49.794 49.9251 44.7831 56.1558 44.7831C62.3864 44.7831 67.4549 49.794 67.4549 55.9538C67.4549 62.1105 62.3864 67.1245 56.1558 67.1245C49.9251 67.1245 44.8567 62.1105 44.8567 55.9538ZM120.722 151.195V127.909C128.945 126.383 135.237 119.244 135.237 110.681C135.237 101.01 127.276 93.1394 117.494 93.1394C107.712 93.1394 99.751 101.01 99.751 110.681C99.751 119.244 106.043 126.383 114.266 127.909V151.195C114.266 154.916 111.751 158.29 107.928 159.79L74.4862 172.911C69.1336 175.011 65.1983 179.141 63.497 184.097C62.112 183.472 60.9337 183.022 59.3841 182.763V153.496C67.7777 152.111 73.8986 144.898 73.8986 136.214C73.8986 127.37 67.8875 120.303 59.3841 118.956V73.246C67.7874 71.8641 73.9115 64.6446 73.9115 55.9538C73.9115 46.2736 65.9473 38.3999 56.1558 38.3999C46.3643 38.3999 38.4 46.2736 38.4 55.9538C38.4 64.402 44.8696 71.4747 52.9275 73.1343V119.046C44.8793 120.705 38.4129 127.772 38.4129 136.214C38.4129 144.655 44.8793 151.722 52.9275 153.381V182.878C44.8793 184.538 38.4129 191.604 38.4129 200.046C38.4129 209.717 46.374 217.587 56.1558 217.587C65.9376 217.587 73.8986 209.717 73.8986 200.046C73.8986 195.492 72.1166 191.349 69.2305 188.227C69.7664 184.161 72.6428 180.599 76.9009 178.93L110.343 165.809C116.677 163.323 120.722 157.588 120.722 151.195Z" fill="white"/>
</g>
<defs>
<linearGradient id="paint0_linear_1_789" x1="0" y1="25600" x2="25600" y2="0" gradientUnits="userSpaceOnUse">
<stop stop-color="#2E27AD"/>
<stop offset="1" stop-color="#527FFF"/>
</linearGradient>
<clipPath id="clip0_1_789">
<rect width="256" height="256" fill="white"/>
</clipPath>
</defs>
</svg>
