<svg width="256" height="256" viewBox="0 0 256 256" fill="none" xmlns="http://www.w3.org/2000/svg">
<g clip-path="url(#clip0_1_733)">
<path d="M256 0H0V256H256V0Z" fill="url(#paint0_linear_1_733)"/>
<path d="M130.25 54.0185C128.874 55.3945 126.637 55.3945 125.261 54.0185C124.595 53.3529 124.227 52.4665 124.227 51.5225C124.227 50.5817 124.595 49.6953 125.261 49.0265C125.949 48.3417 126.851 47.9961 127.757 47.9961C128.659 47.9961 129.562 48.3417 130.25 49.0265V49.0297C130.915 49.6953 131.283 50.5817 131.283 51.5225C131.283 52.4665 130.915 53.3529 130.25 54.0185ZM137.683 51.5225C137.683 48.8697 136.649 46.3769 134.774 44.5017C130.906 40.6329 124.605 40.6329 120.736 44.5017C118.861 46.3769 117.827 48.8697 117.827 51.5225C117.827 51.9353 117.898 52.3353 117.946 52.7385L101.187 61.9545L104.275 67.5609L120.717 58.5177C120.723 58.5273 120.729 58.5369 120.736 58.5433C122.672 60.4793 125.216 61.4457 127.757 61.4457C130.298 61.4457 132.841 60.4793 134.774 58.5465C134.803 58.5177 134.822 58.4825 134.848 58.4537L155.11 69.6377L158.201 64.0345L137.574 52.6489C137.616 52.2745 137.683 51.9065 137.683 51.5225ZM193.677 172.905C192.345 174.236 190.022 174.236 188.691 172.902C188.025 172.236 187.654 171.353 187.654 170.412C187.654 169.468 188.025 168.582 188.691 167.916C189.357 167.25 190.24 166.882 191.184 166.882C192.128 166.882 193.011 167.25 193.677 167.916C194.342 168.582 194.714 169.468 194.714 170.409C194.714 171.353 194.342 172.236 193.677 172.905ZM198.202 163.388C197.29 162.476 196.205 161.794 195.043 161.327V150.466H188.643V160.931C186.982 161.347 185.411 162.14 184.166 163.388C182.291 165.263 181.254 167.756 181.254 170.412C181.254 171.612 181.494 172.767 181.901 173.862L162.118 183.807L164.992 189.526L186.112 178.908C187.635 179.82 189.363 180.339 191.184 180.339C193.837 180.339 196.33 179.305 198.202 177.43C200.077 175.555 201.113 173.062 201.113 170.409C201.113 167.756 200.077 165.267 198.202 163.391V163.388ZM61.8335 173.167C61.1679 172.502 60.7999 171.618 60.7999 170.674C60.7999 169.73 61.1679 168.847 61.8335 168.179C62.4991 167.513 63.3823 167.148 64.3263 167.148C65.2703 167.148 66.1567 167.513 66.8223 168.179V168.182C67.4879 168.847 67.8559 169.73 67.8559 170.674C67.8559 171.618 67.4879 172.502 66.8223 173.167C65.4911 174.499 63.1647 174.502 61.8335 173.167ZM74.2559 170.674C74.2559 168.022 73.2223 165.529 71.3471 163.654C70.1439 162.45 68.6399 161.676 67.0431 161.244V150.466H60.6431V161.519C59.4111 161.99 58.2687 162.694 57.3087 163.654C55.4335 165.529 54.3999 168.022 54.3999 170.674C54.3999 173.327 55.4335 175.82 57.3087 177.692C59.1807 179.567 61.6735 180.601 64.3263 180.601C66.1535 180.601 67.8879 180.083 69.4111 179.164L85.8623 187.334L88.7071 181.603L73.6159 174.108C74.0191 173.02 74.2559 171.868 74.2559 170.674ZM188.643 137.666H195.043V121.666H188.643V137.666ZM60.6431 137.666H67.0431V121.666H60.6431V137.666ZM130.25 206.927C128.874 208.303 126.637 208.303 125.261 206.927C124.595 206.262 124.227 205.375 124.227 204.431C124.227 203.491 124.595 202.604 125.261 201.939C125.949 201.251 126.851 200.905 127.757 200.905C128.659 200.905 129.562 201.251 130.25 201.939C130.915 202.604 131.283 203.491 131.283 204.431C131.283 205.375 130.915 206.262 130.25 206.927ZM150.681 189.555L134.854 197.51C134.826 197.481 134.806 197.443 134.774 197.414V197.411C133.689 196.326 132.406 195.577 131.043 195.1V172.867H124.643V195.049C123.219 195.519 121.869 196.281 120.736 197.411C120.717 197.433 120.704 197.459 120.682 197.481L100.173 187.295L97.3279 193.027L117.942 203.263C117.897 203.651 117.827 204.035 117.827 204.431C117.827 207.084 118.861 209.58 120.736 211.452C122.672 213.388 125.216 214.355 127.757 214.355C130.298 214.355 132.841 213.388 134.774 211.455C136.649 209.58 137.683 207.084 137.683 204.431C137.683 204.051 137.616 203.683 137.574 203.308L153.555 195.273L150.681 189.555ZM191.184 84.4569C192.086 84.4569 192.989 84.7993 193.677 85.4873C194.342 86.1529 194.714 87.0393 194.714 87.9833C194.714 88.9241 194.342 89.8105 193.677 90.4793C192.345 91.8105 190.022 91.8105 188.691 90.4761C188.025 89.8105 187.654 88.9241 187.654 87.9833C187.654 87.0393 188.025 86.1529 188.691 85.4873C189.379 84.7993 190.281 84.4569 191.184 84.4569ZM165.488 107.935L186.301 96.5817C187.037 97.0009 187.821 97.3241 188.643 97.5417V108.867H195.043V97.1289C196.208 96.6361 197.28 95.9257 198.202 95.0041C200.077 93.1289 201.113 90.6361 201.113 87.9833C201.113 85.3305 200.077 82.8377 198.202 80.9625V80.9593C194.941 77.6985 189.962 77.2217 186.16 79.4617L169.408 70.2169L166.317 75.8201L181.929 84.4377C181.501 85.5545 181.254 86.7481 181.254 87.9833C181.254 89.2633 181.51 90.4985 181.968 91.6537L162.425 102.316L165.488 107.935ZM130.25 129.532C128.918 130.863 126.592 130.866 125.261 129.532C124.595 128.866 124.227 127.98 124.227 127.036C124.227 126.095 124.595 125.212 125.261 124.543C125.926 123.878 126.813 123.51 127.757 123.51C128.701 123.51 129.584 123.878 130.25 124.543V124.547C130.915 125.212 131.283 126.095 131.283 127.036C131.283 127.98 130.915 128.866 130.25 129.532ZM132.723 118.521C129.683 116.818 125.824 116.818 122.787 118.521L102.058 107.212L98.9951 112.828L118.506 123.475C118.074 124.598 117.827 125.798 117.827 127.036C117.827 129.689 118.861 132.185 120.736 134.057C121.846 135.17 123.194 135.945 124.643 136.422V160.067H131.043V136.371C132.429 135.884 133.709 135.126 134.774 134.06C136.649 132.185 137.683 129.689 137.683 127.036C137.683 125.798 137.437 124.598 137.005 123.475L154.25 114.066L151.187 108.447L132.723 118.521ZM61.8335 85.4873C62.5215 84.7993 63.4239 84.4569 64.3263 84.4569C65.2319 84.4569 66.1343 84.7993 66.8223 85.4873C67.4879 86.1529 67.8559 87.0393 67.8559 87.9833C67.8559 88.9241 67.4879 89.8105 66.8223 90.4793C65.4911 91.8105 63.1647 91.8105 61.8335 90.4761C61.1679 89.8105 60.7999 88.9241 60.7999 87.9833C60.7999 87.0393 61.1679 86.1529 61.8335 85.4873ZM89.9743 68.1241L69.3599 79.4649C65.5519 77.2185 60.5759 77.6953 57.3087 80.9593C55.4335 82.8345 54.3999 85.3305 54.3999 87.9833C54.3999 90.6361 55.4335 93.1289 57.3087 95.0041C58.2751 95.9705 59.4079 96.7033 60.6431 97.1961V108.867H67.0431V97.4873C67.8015 97.2729 68.5247 96.9689 69.2127 96.5785L87.7599 106.7L90.8223 101.081L73.5423 91.6537C74.0031 90.4985 74.2559 89.2633 74.2559 87.9833C74.2559 86.7513 74.0127 85.5577 73.5839 84.4409L93.0559 73.7305L89.9743 68.1241Z" fill="white"/>
</g>
<defs>
<linearGradient id="paint0_linear_1_733" x1="0" y1="25600" x2="25600" y2="0" gradientUnits="userSpaceOnUse">
<stop stop-color="#4D27A8"/>
<stop offset="1" stop-color="#A166FF"/>
</linearGradient>
<clipPath id="clip0_1_733">
<rect width="256" height="256" fill="white"/>
</clipPath>
</defs>
</svg>
