<svg width="256" height="256" viewBox="0 0 256 256" fill="none" xmlns="http://www.w3.org/2000/svg">
<g clip-path="url(#clip0_1_932)">
<path d="M256 0H0V256H256V0Z" fill="url(#paint0_linear_1_932)"/>
<path d="M182.4 195.199C182.4 189.996 178.003 185.599 172.8 185.599C167.597 185.599 163.2 189.996 163.2 195.199C163.2 200.403 167.597 204.8 172.8 204.8C178.003 204.8 182.4 200.403 182.4 195.199ZM128 191.999C122.797 191.999 118.4 196.396 118.4 201.6C118.4 206.803 122.797 211.2 128 211.2C133.203 211.2 137.6 206.803 137.6 201.6C137.6 196.396 133.203 191.999 128 191.999ZM83.1999 185.599C77.9967 185.599 73.5999 189.996 73.5999 195.199C73.5999 200.403 77.9967 204.8 83.1999 204.8C88.4031 204.8 92.7999 200.403 92.7999 195.199C92.7999 189.996 88.4031 185.599 83.1999 185.599ZM91.5359 137.598H164.464L139.965 115.553L130.077 124.027C129.481 124.542 128.736 124.798 127.997 124.798C127.258 124.798 126.512 124.542 125.917 124.027L116.032 115.553L91.5359 137.598ZM86.3999 90.1544V133.614L111.133 111.355L86.3999 90.1544ZM164.15 86.3976H91.8495L127.997 117.384L164.15 86.3976ZM169.6 133.614V90.1544L144.867 111.352L169.6 133.614ZM188.8 195.199C188.8 203.872 181.472 211.2 172.8 211.2C164.128 211.2 156.8 203.872 156.8 195.199C156.8 187.619 162.4 181.068 169.6 179.538V169.599H131.2V185.939C138.4 187.468 144 194.019 144 201.6C144 210.272 136.672 217.6 128 217.6C119.328 217.6 112 210.272 112 201.6C112 194.019 117.6 187.468 124.8 185.939V169.599H86.3999V179.538C93.5999 181.068 99.1999 187.619 99.1999 195.199C99.1999 203.872 91.8719 211.2 83.1999 211.2C74.5279 211.2 67.1999 203.872 67.1999 195.199C67.1999 187.619 72.7999 181.068 79.9999 179.538V166.399C79.9999 164.633 81.4303 163.199 83.1999 163.199H124.8V143.999H83.1999C81.4303 143.999 79.9999 142.565 79.9999 140.799V83.1975C79.9999 81.4311 81.4303 79.9974 83.1999 79.9974H172.8C174.57 79.9974 176 81.4311 176 83.1975V140.799C176 142.565 174.57 143.999 172.8 143.999H131.2V163.199H172.8C174.57 163.199 176 164.633 176 166.399V179.538C183.2 181.068 188.8 187.619 188.8 195.199ZM217.6 127.998C217.6 146.901 211.766 164.991 200.726 180.303L195.533 176.559C205.782 162.341 211.2 145.551 211.2 127.998C211.2 82.1255 173.878 44.8 128.003 44.8C82.1247 44.8 44.7999 82.1255 44.7999 127.998C44.7999 145.551 50.2175 162.341 60.4671 176.559L55.2735 180.303C44.2335 164.991 38.3999 146.901 38.3999 127.998C38.3999 78.5958 78.5951 38.3999 127.997 38.3999C177.402 38.3999 217.6 78.5958 217.6 127.998Z" fill="white"/>
</g>
<defs>
<linearGradient id="paint0_linear_1_932" x1="0" y1="25600" x2="25600" y2="0" gradientUnits="userSpaceOnUse">
<stop stop-color="#BD0816"/>
<stop offset="1" stop-color="#FF5252"/>
</linearGradient>
<clipPath id="clip0_1_932">
<rect width="256" height="256" fill="white"/>
</clipPath>
</defs>
</svg>
