<svg width="256" height="256" viewBox="0 0 256 256" fill="none" xmlns="http://www.w3.org/2000/svg">
<g clip-path="url(#clip0_1_817)">
<path d="M256 0H0V256H256V0Z" fill="url(#paint0_linear_1_817)"/>
<path d="M166.675 175.521C155.993 184.157 133.584 188.721 112.141 188.721C90.6943 188.721 68.2783 184.154 57.5999 175.518V192.91H57.6031C57.6031 201.585 79.9999 211.252 112.141 211.252C144.256 211.252 166.64 201.597 166.675 192.929V175.521ZM166.678 142.471L173.078 142.436V142.471C173.078 146.337 171.142 149.946 167.373 153.25C171.942 157.271 173.078 161.216 173.078 164.025C173.078 164.044 173.075 164.06 173.075 164.079V192.91H173.078C173.078 208.945 141.68 217.6 112.141 217.6C82.6719 217.6 51.3599 208.983 51.2095 193.021C51.2095 193.006 51.2 192.99 51.2 192.974V164.015C51.2 164.009 51.2064 164 51.2064 163.99C51.216 161.181 52.3551 157.252 56.9183 153.24C52.3839 149.235 51.232 145.328 51.2032 142.541H51.2064C51.2064 142.528 51.2 142.519 51.2 142.506V113.548C51.2 113.538 51.2064 113.529 51.2064 113.519C51.216 110.71 52.3583 106.781 56.9215 102.776C52.3839 98.7669 51.232 94.8567 51.2032 92.0733H51.2064C51.2064 92.0606 51.2 92.0479 51.2 92.0352V63.0799C51.2 63.0704 51.2064 63.0609 51.2064 63.0514C51.2608 47.0392 82.6239 38.3999 112.141 38.3999C128.816 38.3999 144.835 41.0501 156.089 45.6712L153.641 51.5366C143.136 47.2233 128.009 44.7476 112.141 44.7476C79.9999 44.7476 57.6031 54.4153 57.6031 63.0958C57.6031 71.7732 79.9999 81.4408 112.141 81.4408C113.008 81.4503 113.856 81.4408 114.713 81.409L114.982 87.7504C114.035 87.7885 113.088 87.7885 112.141 87.7885C90.6943 87.7885 68.2783 83.2213 57.5999 74.5852V91.9685H57.6031V92.0415C57.6351 95.3709 61.0495 98.2782 63.9103 100.125C72.5183 105.613 87.9423 109.361 105.142 110.139L104.851 116.48C87.4271 115.69 72.1695 112.075 62.3487 106.533C59.9295 108.343 57.6031 110.79 57.6031 113.564C57.6031 122.241 79.9999 131.909 112.141 131.909C115.293 131.909 118.422 131.804 121.446 131.594L121.891 137.926C118.723 138.145 115.44 138.256 112.141 138.256C90.6943 138.256 68.2783 133.689 57.5999 125.053V142.436H57.6031C57.6351 145.839 61.0495 148.743 63.9103 150.593C73.7535 156.874 92.2367 160.784 112.141 160.784H113.549V167.132H112.141C91.9199 167.132 73.5423 163.377 62.3039 157.033C59.8975 158.839 57.6031 161.273 57.6031 164.025C57.6031 172.702 79.9999 182.373 112.141 182.373C144.256 182.373 166.64 172.718 166.675 164.047V164.015V164.012C166.669 161.254 164.365 158.82 161.952 157.014C160.39 157.899 158.717 158.753 156.813 159.537L154.361 153.672C156.685 152.716 158.701 151.685 160.355 150.599C163.241 148.717 166.678 145.775 166.678 142.471ZM194.089 96.0533H176.157C175.097 96.0533 174.102 95.5328 173.51 94.6631C172.912 93.7935 172.79 92.6858 173.181 91.7114L184.089 64.4415H142.781L123.581 102.528H144.003C145.024 102.528 145.984 103.014 146.589 103.829C147.187 104.648 147.363 105.699 147.053 106.667L128.825 163.485L194.089 96.0533ZM203.91 95.0789L123.913 177.727C123.289 178.368 122.451 178.701 121.603 178.701C121.04 178.701 120.473 178.558 119.968 178.257C118.688 177.501 118.102 175.975 118.553 174.565L139.629 108.876H118.403C117.293 108.876 116.265 108.308 115.68 107.371C115.097 106.435 115.043 105.267 115.542 104.283L137.942 59.8489C138.483 58.773 139.59 58.0938 140.803 58.0938H188.803C189.862 58.0938 190.857 58.6175 191.449 59.4839C192.048 60.3567 192.169 61.4613 191.779 62.4388L180.87 89.7055H201.6C202.88 89.7055 204.041 90.4673 204.544 91.6353C205.046 92.8064 204.797 94.1617 203.91 95.0789ZM62.2559 194.158C66.7903 196.713 72.4991 198.861 79.2223 200.537L80.7839 194.38C74.7071 192.866 69.3951 190.879 65.4175 188.638L62.2559 194.158ZM79.2223 149.755L80.7839 143.601C74.7071 142.084 69.3951 140.097 65.4175 137.856L62.2559 143.376C66.7903 145.931 72.4959 148.079 79.2223 149.755ZM62.2559 92.5938L65.4175 87.0744C69.3887 89.3152 74.7039 91.2988 80.7839 92.8191L79.2223 98.9733C72.4895 97.2943 66.7839 95.1456 62.2559 92.5938Z" fill="white"/>
</g>
<defs>
<linearGradient id="paint0_linear_1_817" x1="0" y1="25600" x2="25600" y2="0" gradientUnits="userSpaceOnUse">
<stop stop-color="#2E27AD"/>
<stop offset="1" stop-color="#527FFF"/>
</linearGradient>
<clipPath id="clip0_1_817">
<rect width="256" height="256" fill="white"/>
</clipPath>
</defs>
</svg>
