<svg width="256" height="256" viewBox="0 0 256 256" fill="none" xmlns="http://www.w3.org/2000/svg">
<g clip-path="url(#clip0_1_904)">
<path d="M256 0H0V256H256V0Z" fill="url(#paint0_linear_1_904)"/>
<path d="M128 76.1598C135.411 76.1598 141.44 82.1886 141.44 89.5998C141.44 97.011 135.411 103.04 128 103.04C120.589 103.04 114.56 97.011 114.56 89.5998C114.56 82.1886 120.589 76.1598 128 76.1598ZM128 109.44C138.941 109.44 147.84 100.541 147.84 89.5998C147.84 78.659 138.941 69.7598 128 69.7598C117.059 69.7598 108.16 78.659 108.16 89.5998C108.16 100.541 117.059 109.44 128 109.44ZM89.6 84.7198L93.1296 84.9214C94.5728 84.9982 96.0832 83.9614 96.432 82.435C97.2416 78.8606 98.6464 75.4686 100.614 72.355C101.45 71.0302 101.206 69.299 100.042 68.259L97.3984 65.8974L104.301 58.9982L106.656 61.6382C107.693 62.8062 109.43 63.043 110.749 62.2142C113.856 60.2558 117.248 58.851 120.832 58.0414C122.355 57.6958 123.408 56.3006 123.318 54.739L123.12 51.1998H132.88L132.682 54.7454C132.592 56.3038 133.645 57.7022 135.168 58.0478C138.742 58.8542 142.134 60.2622 145.242 62.2238C146.563 63.0526 148.298 62.8126 149.338 61.6446L151.699 58.9982L158.602 65.8974L155.965 68.2526C154.8 69.2926 154.557 71.027 155.392 72.3486C157.357 75.459 158.762 78.851 159.571 82.4318C159.92 83.9582 161.398 84.9982 162.874 84.9214L166.4 84.7198V94.4798L162.877 94.2782C161.398 94.2014 159.923 95.2414 159.574 96.771C158.768 100.352 157.363 103.747 155.398 106.861C154.563 108.185 154.806 109.917 155.971 110.957L158.602 113.302L151.702 120.205L149.37 117.587C148.326 116.416 146.589 116.179 145.27 117.011C142.157 118.979 138.755 120.387 135.168 121.197C133.645 121.542 132.592 122.941 132.682 124.502L132.88 128H123.12L123.318 124.496C123.408 122.937 122.355 121.539 120.832 121.193C117.251 120.384 113.853 118.973 110.736 117.005C109.414 116.169 107.68 116.406 106.64 117.581L104.298 120.205L97.3984 113.302L100.022 110.963C101.187 109.923 101.43 108.189 100.598 106.867C98.6304 103.76 97.2256 100.361 96.4192 96.771C96.0736 95.2414 94.5984 94.195 93.1168 94.2782L89.6 94.4798V84.7198ZM86.5824 101.062L90.8672 100.819C91.6096 103.283 92.592 105.661 93.808 107.926L90.6048 110.781C89.9488 111.369 89.5616 112.198 89.536 113.081C89.5136 113.961 89.8528 114.813 90.4736 115.433L102.17 127.126C102.79 127.75 103.638 128.115 104.522 128.061C105.402 128.035 106.234 127.651 106.819 126.992L109.674 123.792C111.942 125.011 114.32 125.997 116.781 126.742L116.538 131.017C116.486 131.897 116.8 132.758 117.405 133.398C118.01 134.038 118.851 134.4 119.731 134.4H136.269C137.149 134.4 137.99 134.038 138.595 133.398C139.2 132.758 139.514 131.897 139.462 131.017L139.219 126.745C141.683 126.003 144.064 125.017 146.333 123.798L149.181 126.992C149.766 127.648 150.598 128.035 151.478 128.061C152.298 128.125 153.213 127.75 153.83 127.126L165.526 115.433C166.147 114.813 166.486 113.961 166.464 113.081C166.438 112.198 166.051 111.369 165.395 110.784L162.186 107.92C163.402 105.654 164.384 103.28 165.126 100.819L169.418 101.062C170.298 101.104 171.158 100.8 171.798 100.195C172.438 99.5902 172.8 98.7486 172.8 97.8686V81.3342C172.8 80.4542 172.438 79.6126 171.798 79.0078C171.162 78.403 170.301 78.083 169.418 78.1374L165.12 78.3838C164.378 75.9262 163.395 73.5518 162.179 71.2894L165.395 68.419C166.051 67.8334 166.438 67.0046 166.464 66.1214C166.486 65.2414 166.147 64.3902 165.526 63.7694L153.83 52.0766C153.21 51.4526 152.374 51.1038 151.478 51.1422C150.598 51.1646 149.766 51.5518 149.181 52.211L146.304 55.4366C144.042 54.2238 141.67 53.2382 139.219 52.499L139.462 48.1822C139.514 47.3022 139.2 46.4414 138.595 45.8046C137.99 45.1614 137.149 44.7998 136.269 44.7998H119.731C118.851 44.7998 118.01 45.1614 117.405 45.8046C116.8 46.4414 116.486 47.3022 116.538 48.1822L116.781 52.4926C114.326 53.2318 111.952 54.2174 109.69 55.427L106.819 52.2078C106.23 51.5518 105.402 51.1646 104.522 51.1422C103.648 51.1134 102.79 51.4526 102.17 52.0766L90.4736 63.7694C89.8528 64.3902 89.5136 65.2414 89.536 66.1214C89.5616 67.0014 89.9488 67.8334 90.6048 68.419L93.8272 71.2926C92.608 73.5582 91.6256 75.9294 90.8832 78.3838L86.5824 78.1374C85.696 78.0798 84.8384 78.403 84.2016 79.0078C83.5616 79.6126 83.2 80.4542 83.2 81.3342V97.8686C83.2 98.7486 83.5616 99.5902 84.2016 100.195C84.8416 100.8 85.6992 101.107 86.5824 101.062ZM179.2 208H198.4V176H179.2V208ZM118.4 208H137.6V176H118.4V208ZM57.6 208H76.8V176H57.6V208ZM201.6 169.6H192V153.6C192 151.833 190.57 150.4 188.8 150.4H131.2V140.8H124.8V150.4H67.2C65.4304 150.4 64 151.833 64 153.6V169.6H54.4C52.6304 169.6 51.2 171.033 51.2 172.8V211.2C51.2 212.966 52.6304 214.4 54.4 214.4H80C81.7696 214.4 83.2 212.966 83.2 211.2V172.8C83.2 171.033 81.7696 169.6 80 169.6H70.4V156.8H124.8V169.6H115.2C113.43 169.6 112 171.033 112 172.8V211.2C112 212.966 113.43 214.4 115.2 214.4H140.8C142.57 214.4 144 212.966 144 211.2V172.8C144 171.033 142.57 169.6 140.8 169.6H131.2V156.8H185.6V169.6H176C174.23 169.6 172.8 171.033 172.8 172.8V211.2C172.8 212.966 174.23 214.4 176 214.4H201.6C203.37 214.4 204.8 212.966 204.8 211.2V172.8C204.8 171.033 203.37 169.6 201.6 169.6Z" fill="white"/>
</g>
<defs>
<linearGradient id="paint0_linear_1_904" x1="0" y1="25600" x2="25600" y2="0" gradientUnits="userSpaceOnUse">
<stop stop-color="#B0084D"/>
<stop offset="1" stop-color="#FF4F8B"/>
</linearGradient>
<clipPath id="clip0_1_904">
<rect width="256" height="256" fill="white"/>
</clipPath>
</defs>
</svg>
