<svg width="256" height="256" viewBox="0 0 256 256" fill="none" xmlns="http://www.w3.org/2000/svg">
<g clip-path="url(#clip0_1_845)">
<path d="M256 0H0V256H256V0Z" fill="url(#paint0_linear_1_845)"/>
<path d="M171.702 211.2C164.844 211.2 159.263 205.59 159.263 198.691C159.263 191.792 164.844 186.182 171.702 186.182C178.559 186.182 184.14 191.792 184.14 198.691C184.14 205.59 178.559 211.2 171.702 211.2ZM144.424 156.8H111.353L94.8153 128L111.353 99.1999H144.424L160.959 128L144.424 156.8ZM88.3874 69.8175C81.53 69.8175 75.9485 64.2079 75.9485 57.3087C75.9485 50.4095 81.53 44.7999 88.3874 44.7999C95.2481 44.7999 100.829 50.4095 100.829 57.3087C100.829 64.2079 95.2481 69.8175 88.3874 69.8175ZM171.702 179.782C169.34 179.782 167.088 180.24 165.003 181.043L151.489 158.112L150.776 158.537L167.39 129.6C167.956 128.608 167.956 127.392 167.39 126.4L149.016 94.3999C148.447 93.4079 147.397 92.7999 146.261 92.7999H112.826L112.957 92.7231L100.565 71.6927C104.613 68.2239 107.194 63.0655 107.194 57.3087C107.194 46.8831 98.7579 38.3999 88.3874 38.3999C78.0201 38.3999 69.5843 46.8831 69.5843 57.3087C69.5843 67.7343 78.0201 76.2175 88.3874 76.2175C90.7517 76.2175 93.0047 75.7599 95.089 74.9567L106.656 94.5823L88.3842 126.4C87.8178 127.392 87.8178 128.608 88.3842 129.6L106.761 161.6C107.331 162.592 108.381 163.2 109.517 163.2H146.261C146.525 163.2 146.782 163.158 147.031 163.097L159.527 184.307C155.476 187.776 152.898 192.934 152.898 198.691C152.898 209.117 161.331 217.6 171.702 217.6C182.072 217.6 190.505 209.117 190.505 198.691C190.505 188.266 182.072 179.782 171.702 179.782ZM190.67 102.733C183.813 102.733 178.234 97.1231 178.234 90.2239C178.234 83.3247 183.813 77.7151 190.67 77.7151C197.528 77.7151 203.109 83.3247 203.109 90.2239C203.109 97.1231 197.528 102.733 190.67 102.733ZM213.973 126.4L201.893 105.36C206.485 101.907 209.473 96.4159 209.473 90.2239C209.473 79.7983 201.041 71.3151 190.67 71.3151C188.032 71.3151 185.518 71.8687 183.237 72.8639L173.388 55.7087C172.822 54.7199 171.768 54.1087 170.632 54.1087H131.184V60.5087H168.796L177.907 76.3807C174.203 79.8367 171.87 84.7551 171.87 90.2239C171.87 100.649 180.303 109.133 190.67 109.133C192.602 109.133 194.47 108.835 196.226 108.288L207.545 128L191.653 155.674L197.165 158.873L213.973 129.6C214.542 128.608 214.542 127.392 213.973 126.4ZM67.9328 176.79C61.0721 176.79 55.4907 171.178 55.4907 164.282C55.4907 157.382 61.0721 151.773 67.9328 151.773C74.7902 151.773 80.3717 157.382 80.3717 164.282C80.3717 171.178 74.7902 176.79 67.9328 176.79ZM78.3256 180.026C83.3883 176.634 86.7359 170.845 86.7359 164.282C86.7359 153.856 78.3001 145.373 67.9328 145.373C64.9289 145.373 62.1 146.102 59.5797 147.366L48.4582 128L66.8859 95.9071L61.3713 92.7071L42.0272 126.4C41.4576 127.392 41.4576 128.608 42.0272 129.6L54.4151 151.168C51.1471 154.573 49.1265 159.19 49.1265 164.282C49.1265 174.707 57.5623 183.19 67.9328 183.19C69.4952 183.19 71.0067 182.976 72.4609 182.611L82.6119 200.291C83.1815 201.28 84.2316 201.891 85.3676 201.891H124.819V195.491H87.2037L78.3256 180.026Z" fill="white"/>
</g>
<defs>
<linearGradient id="paint0_linear_1_845" x1="0" y1="25600" x2="25600" y2="0" gradientUnits="userSpaceOnUse">
<stop stop-color="#B0084D"/>
<stop offset="1" stop-color="#FF4F8B"/>
</linearGradient>
<clipPath id="clip0_1_845">
<rect width="256" height="256" fill="white"/>
</clipPath>
</defs>
</svg>
