<svg width="256" height="256" viewBox="0 0 256 256" fill="none" xmlns="http://www.w3.org/2000/svg">
<g clip-path="url(#clip0_1_888)">
<path d="M256 0H0V256H256V0Z" fill="url(#paint0_linear_1_888)"/>
<path d="M64.4384 165.129C61.3056 159.776 58.8608 154.035 57.1712 148.073L63.328 146.33C64.8704 151.773 67.1008 157.008 69.9648 161.897L64.4384 165.129ZM63.328 109.674L57.1712 107.93C58.8256 102.09 61.2065 96.4607 64.2497 91.1967L69.7889 94.4031C67.0113 99.2031 64.8384 104.342 63.328 109.674ZM100.509 66.6623L97.8912 60.8255C107.382 56.5631 117.514 54.3999 128 54.3999C138.49 54.3999 148.621 56.5631 158.109 60.8255L155.491 66.6623C146.829 62.7743 137.578 60.7999 128 60.7999C118.422 60.7999 109.171 62.7743 100.509 66.6623ZM191.75 91.1967C194.794 96.4607 197.174 102.09 198.829 107.93L192.672 109.674C191.165 104.342 188.992 99.2031 186.214 94.4031L191.75 91.1967ZM192.672 146.33L198.829 148.073C197.174 153.913 194.794 159.542 191.75 164.803L186.214 161.597C188.992 156.797 191.165 151.661 192.672 146.33ZM155.491 189.341L158.109 195.177C148.621 199.44 138.49 201.6 128 201.6C117.514 201.6 107.382 199.44 97.8912 195.177L100.509 189.341C109.171 193.229 118.422 195.2 128 195.2C137.578 195.2 146.829 193.229 155.491 189.341ZM80 188.8C74.7072 188.8 70.4001 184.496 70.4001 179.2C70.4001 173.907 74.7072 169.6 80 169.6C85.2961 169.6 89.6 173.907 89.6 179.2C89.6 184.496 85.2961 188.8 80 188.8ZM80 163.2C71.1777 163.2 64 170.381 64 179.2C64 188.022 71.1777 195.2 80 195.2C88.8224 195.2 96 188.022 96 179.2C96 170.381 88.8224 163.2 80 163.2ZM176 188.8C170.707 188.8 166.4 184.496 166.4 179.2C166.4 173.907 170.707 169.6 176 169.6C181.296 169.6 185.6 173.907 185.6 179.2C185.6 184.496 181.296 188.8 176 188.8ZM176 163.2C167.178 163.2 160 170.381 160 179.2C160 188.022 167.178 195.2 176 195.2C184.822 195.2 192 188.022 192 179.2C192 170.381 184.822 163.2 176 163.2ZM51.2001 128C51.2001 122.707 55.5072 118.4 60.8 118.4C66.096 118.4 70.4001 122.707 70.4001 128C70.4001 133.296 66.096 137.6 60.8 137.6C55.5072 137.6 51.2001 133.296 51.2001 128ZM76.4768 131.2H91.5009L87.3441 135.331L91.8561 139.869L101.456 130.326C102.061 129.728 102.397 128.915 102.4 128.064C102.403 127.216 102.07 126.4 101.469 125.798L91.8688 116.144L87.3312 120.659L91.4496 124.8H76.4768C74.992 117.507 68.5248 112 60.8 112C51.9776 112 44.8 119.181 44.8 128C44.8 136.822 51.9776 144 60.8 144C68.5248 144 74.992 138.496 76.4768 131.2ZM198.4 137.6C193.107 137.6 188.8 133.296 188.8 128C188.8 122.707 193.107 118.4 198.4 118.4C203.696 118.4 208 122.707 208 128C208 133.296 203.696 137.6 198.4 137.6ZM198.4 112C189.578 112 182.4 119.181 182.4 128C182.4 136.822 189.578 144 198.4 144C207.222 144 214.4 136.822 214.4 128C214.4 119.181 207.222 112 198.4 112ZM80 67.1999C85.2961 67.1999 89.6 71.5071 89.6 76.7999C89.6 82.0959 85.2961 86.3999 80 86.3999C74.7072 86.3999 70.4001 82.0959 70.4001 76.7999C70.4001 71.5071 74.7072 67.1999 80 67.1999ZM80 92.7999C88.8224 92.7999 96 85.6223 96 76.7999C96 67.9807 88.8224 60.7999 80 60.7999C71.1777 60.7999 64 67.9807 64 76.7999C64 85.6223 71.1777 92.7999 80 92.7999ZM176 67.1999C181.296 67.1999 185.6 71.5071 185.6 76.7999C185.6 82.0959 181.296 86.3999 176 86.3999C170.707 86.3999 166.4 82.0959 166.4 76.7999C166.4 71.5071 170.707 67.1999 176 67.1999ZM176 92.7999C184.822 92.7999 192 85.6223 192 76.7999C192 67.9807 184.822 60.7999 176 60.7999C167.178 60.7999 160 67.9807 160 76.7999C160 85.6223 167.178 92.7999 176 92.7999ZM161.28 135.043L166.397 131.2H153.6V124.8H166.4L161.283 120.963L165.12 115.84L177.92 125.437C178.726 126.041 179.2 126.989 179.2 127.997C179.2 129.002 178.726 129.952 177.923 130.557L165.123 140.16L161.28 135.043ZM146.736 146.778C140.979 144.55 134.49 143.437 128 143.437C121.514 143.437 115.024 144.55 109.267 146.778C111.446 141.2 112.618 134.794 112.618 128C112.618 121.21 111.446 114.803 109.267 109.226C120.778 113.68 135.222 113.68 146.736 109.226C144.554 114.803 143.386 121.21 143.386 128C143.386 134.794 144.554 141.2 146.736 146.778ZM159.062 154.537C153.254 148.729 149.786 138.81 149.786 128C149.786 117.194 153.254 107.274 159.062 101.462C159.69 100.838 160 100.019 160 99.1999C160 98.3839 159.69 97.5647 159.062 96.9375C157.814 95.6895 155.789 95.6895 154.538 96.9375C142.138 109.338 113.862 109.338 101.462 96.9375C100.214 95.6895 98.1889 95.6895 96.9376 96.9375C96.3136 97.5647 96 98.3839 96 99.1999C96 100.019 96.3136 100.838 96.9376 101.462C102.749 107.274 106.218 117.194 106.218 128C106.218 138.81 102.749 148.729 96.9376 154.537C96.3136 155.165 96 155.984 96 156.8C96 157.619 96.3136 158.438 96.9376 159.062C98.1889 160.313 100.214 160.313 101.462 159.062C113.862 146.662 142.138 146.662 154.538 159.062C155.165 159.689 155.981 160 156.8 160C157.619 160 158.438 159.689 159.062 159.062C159.69 158.438 160 157.619 160 156.8C160 155.984 159.69 155.165 159.062 154.537Z" fill="white"/>
</g>
<defs>
<linearGradient id="paint0_linear_1_888" x1="0" y1="25600" x2="25600" y2="0" gradientUnits="userSpaceOnUse">
<stop stop-color="#B0084D"/>
<stop offset="1" stop-color="#FF4F8B"/>
</linearGradient>
<clipPath id="clip0_1_888">
<rect width="256" height="256" fill="white"/>
</clipPath>
</defs>
</svg>
