<svg width="256" height="256" viewBox="0 0 256 256" fill="none" xmlns="http://www.w3.org/2000/svg">
<g clip-path="url(#clip0_1_833)">
<path d="M256 0H0V256H256V0Z" fill="url(#paint0_linear_1_833)"/>
<path d="M161.558 147.074C161.558 141.769 157.256 137.453 151.97 137.453C146.685 137.453 142.383 141.769 142.383 147.074C142.383 152.378 146.685 156.695 151.97 156.695C157.256 156.695 161.558 152.378 161.558 147.074ZM126.404 115.003C131.69 115.003 135.992 110.687 135.992 105.382C135.992 100.078 131.69 95.7613 126.404 95.7613C121.118 95.7613 116.817 100.078 116.817 105.382C116.817 110.687 121.118 115.003 126.404 115.003ZM97.6422 150.281C102.928 150.281 107.23 145.964 107.23 140.66C107.23 135.355 102.928 131.038 97.6422 131.038C92.3564 131.038 88.0549 135.355 88.0549 140.66C88.0549 145.964 92.3564 150.281 97.6422 150.281ZM167.949 147.074C167.949 154.819 162.449 161.293 155.166 162.785V182.351C155.166 184.121 153.738 185.558 151.97 185.558H129.6V204.8H123.208V169.523H97.6422C95.8749 169.523 94.4464 168.086 94.4464 166.316V156.371C87.1632 154.879 81.6633 148.404 81.6633 140.66C81.6633 131.818 88.8314 124.624 97.6422 124.624C106.453 124.624 113.621 131.818 113.621 140.66C113.621 148.404 108.121 154.879 100.838 156.371V163.109H123.208V121.094C115.925 119.602 110.425 113.127 110.425 105.382C110.425 96.5406 117.593 89.3472 126.404 89.3472C135.215 89.3472 142.383 96.5406 142.383 105.382C142.383 113.127 136.883 119.602 129.6 121.094V179.144H148.775V162.785C141.491 161.293 135.992 154.819 135.992 147.074C135.992 138.232 143.16 131.038 151.97 131.038C160.781 131.038 167.949 138.232 167.949 147.074ZM214.4 131.237C214.4 154.735 196.941 163.109 180.605 163.109V156.695C188.843 156.695 208.008 154.212 208.008 131.237C208.008 114.048 194.982 107.816 184.056 105.616C182.631 105.331 181.579 104.116 181.493 102.663C180.7 89.1997 172.884 84.4213 166.425 84.4213C162.06 84.4213 157.966 86.509 155.195 90.1522C154.489 91.0854 153.325 91.5601 152.175 91.3805C151.024 91.2073 150.056 90.4152 149.654 89.3152C147.151 82.4939 143.559 76.7789 138.973 72.3276C127.19 60.8625 111.074 57.7517 95.8558 64.015C83.2196 69.1783 73.3255 84.107 73.3255 98.003C73.3255 99.5392 73.4182 101.082 73.6067 102.589C73.8049 104.202 72.7726 105.709 71.2035 106.098C63.7286 107.954 51.1915 113.656 51.1915 130.997C51.1915 131.654 51.2203 132.283 51.2523 132.876C52.0001 146.227 63.7861 156.695 78.0872 156.695H81.6633V163.109H78.0872C60.3986 163.109 45.8067 149.982 44.8703 133.226C44.8351 132.514 44.8 131.773 44.8 130.997C44.8 110.847 58.724 103.32 67.0107 100.633C66.9563 99.7572 66.934 98.8785 66.934 98.003C66.934 81.4131 78.3301 64.2491 93.4429 58.0788C111.071 50.8278 129.757 54.426 143.419 67.7191C147.621 71.7952 151.085 76.7565 153.754 82.5099C157.355 79.6075 161.775 78.0072 166.425 78.0072C175.894 78.0072 185.846 84.7869 187.658 99.8502C204.928 104.077 214.4 115.151 214.4 131.237Z" fill="white"/>
</g>
<defs>
<linearGradient id="paint0_linear_1_833" x1="0" y1="25600" x2="25600" y2="0" gradientUnits="userSpaceOnUse">
<stop stop-color="#C8511B"/>
<stop offset="1" stop-color="#FF9900"/>
</linearGradient>
<clipPath id="clip0_1_833">
<rect width="256" height="256" fill="white"/>
</clipPath>
</defs>
</svg>
