<svg width="256" height="256" viewBox="0 0 256 256" fill="none" xmlns="http://www.w3.org/2000/svg">
<g clip-path="url(#clip0_1_873)">
<path d="M256 0H0V256H256V0Z" fill="url(#paint0_linear_1_873)"/>
<path d="M166.39 167.988H188.79V161.588H166.39V167.988ZM137.59 167.988H159.99V161.588H137.59V167.988ZM108.79 167.988H131.19V161.588H108.79V167.988ZM143.99 142.388C143.99 138.859 146.864 135.988 150.39 135.988C153.92 135.988 156.79 138.859 156.79 142.388C156.79 145.918 153.92 148.788 150.39 148.788C146.864 148.788 143.99 145.918 143.99 142.388ZM163.19 142.388C163.19 135.329 157.452 129.588 150.39 129.588C143.331 129.588 137.59 135.329 137.59 142.388C137.59 149.448 143.331 155.188 150.39 155.188C157.452 155.188 163.19 149.448 163.19 142.388ZM118.39 135.988C121.92 135.988 124.79 138.859 124.79 142.388C124.79 145.918 121.92 148.788 118.39 148.788C114.864 148.788 111.99 145.918 111.99 142.388C111.99 138.859 114.864 135.988 118.39 135.988ZM118.39 155.188C125.452 155.188 131.19 149.448 131.19 142.388C131.19 135.329 125.452 129.588 118.39 129.588C111.331 129.588 105.59 135.329 105.59 142.388C105.59 149.448 111.331 155.188 118.39 155.188ZM211.19 107.188V180.788C211.19 182.555 209.76 183.988 207.99 183.988H108.79V177.588H204.79V110.388H134.39V103.988H207.99C209.76 103.988 211.19 105.422 211.19 107.188ZM98.2269 123.339C96.8957 123.758 95.9901 124.993 95.9901 126.388V193.716L88.3133 200.299L79.9901 190.785V182.388C79.9901 181.54 79.6541 180.724 79.0525 180.126L71.7181 172.788L79.0525 165.451C79.6541 164.852 79.9901 164.036 79.9901 163.188V156.788C79.9901 155.94 79.6541 155.124 79.0525 154.526L71.7181 147.188L79.0525 139.851C79.6541 139.252 79.9901 138.436 79.9901 137.588V126.42C79.9901 125.025 79.0877 123.79 77.7565 123.371C61.3021 118.155 51.5741 101.23 55.1357 83.9981C57.7021 71.5821 67.2509 61.6269 79.4589 58.6349C89.8557 56.0845 100.518 58.3149 108.71 64.7373C116.896 71.1597 121.59 80.8013 121.59 91.1885C121.59 105.758 111.984 118.98 98.2269 123.339ZM127.99 91.1885C127.99 78.8237 122.403 67.3453 112.659 59.7005C102.915 52.0557 90.2685 49.3965 77.9357 52.4205C63.3405 55.9949 51.9325 67.8829 48.8669 82.7021V82.7053C44.8029 102.369 55.3597 121.71 73.5901 128.689V136.264L64.9277 144.926C63.6797 146.177 63.6797 148.2 64.9277 149.451L73.5901 158.113V161.864L64.9277 170.526C63.6797 171.777 63.6797 173.8 64.9277 175.051L73.5901 183.713V191.988C73.5901 192.763 73.8717 193.512 74.3837 194.097L85.5837 206.897C86.2173 207.617 87.1005 207.988 87.9901 207.988C88.7293 207.988 89.4685 207.736 90.0733 207.217L101.273 197.617C101.984 197.009 102.39 196.123 102.39 195.188V128.654C117.577 122.792 127.99 107.72 127.99 91.1885ZM87.9901 98.7725C83.5805 98.7725 79.9901 95.1853 79.9901 90.7725C79.9901 86.3629 83.5805 82.7725 87.9901 82.7725C92.4029 82.7725 95.9901 86.3629 95.9901 90.7725C95.9901 95.1853 92.4029 98.7725 87.9901 98.7725ZM87.9901 76.3725C80.0509 76.3725 73.5901 82.8333 73.5901 90.7725C73.5901 98.7149 80.0509 105.172 87.9901 105.172C95.9325 105.172 102.39 98.7149 102.39 90.7725C102.39 82.8333 95.9325 76.3725 87.9901 76.3725Z" fill="white"/>
</g>
<defs>
<linearGradient id="paint0_linear_1_873" x1="0" y1="25600" x2="25600" y2="0" gradientUnits="userSpaceOnUse">
<stop stop-color="#BD0816"/>
<stop offset="1" stop-color="#FF5252"/>
</linearGradient>
<clipPath id="clip0_1_873">
<rect width="256" height="256" fill="white"/>
</clipPath>
</defs>
</svg>
