<svg width="256" height="256" viewBox="0 0 256 256" fill="none" xmlns="http://www.w3.org/2000/svg">
<g clip-path="url(#clip0_1_809)">
<path d="M256 0H0V256H256V0Z" fill="url(#paint0_linear_1_809)"/>
<path d="M187.33 150.563L193.349 152.644L189.552 163.616C189.106 164.908 187.887 165.754 186.547 165.754C186.417 165.754 186.283 165.748 186.15 165.732L173.889 164.204L174.679 157.886L181.608 158.752C178.883 154.459 173.743 151.779 167.6 151.779C159.554 151.779 153.456 156.181 152.065 162.992L145.83 161.719C147.854 151.814 156.4 145.413 167.6 145.413C175.452 145.413 182.101 148.739 186.102 154.118L187.33 150.563ZM183.135 172.126L189.371 173.406C187.356 183.241 178.606 189.848 167.6 189.848C160.436 189.848 154.121 186.761 150.041 181.808L149.407 184.797L143.179 183.476L145.703 171.566C146.062 169.867 147.698 168.765 149.43 169.103L161.006 171.369L159.783 177.617L153.949 176.474C156.744 180.758 161.795 183.482 167.6 183.482C175.621 183.482 181.719 179.023 183.135 172.126ZM208.034 173.119L204.206 172.903C202.662 172.83 201.265 173.861 200.921 175.382C200.077 179.128 198.607 182.68 196.548 185.94C195.717 187.254 195.959 188.979 197.117 190.014L199.979 192.563L192.566 199.979L190.026 197.133C188.989 195.969 187.264 195.73 185.949 196.561C182.69 198.62 179.135 200.093 175.376 200.943C173.861 201.287 172.81 202.675 172.903 204.228L173.119 208.035H162.629L162.848 204.225C162.937 202.672 161.89 201.281 160.372 200.937C156.626 200.093 153.068 198.617 149.805 196.554C148.491 195.723 146.766 195.959 145.731 197.127L143.185 199.979L135.769 192.563L138.621 190.02C139.783 188.986 140.025 187.264 139.194 185.949C137.138 182.687 135.67 179.135 134.824 175.379C134.483 173.858 133.038 172.798 131.539 172.903L127.717 173.119V162.632L131.552 162.848C132.962 162.912 134.49 161.894 134.837 160.375C135.683 156.632 137.157 153.084 139.216 149.828C140.047 148.51 139.802 146.788 138.643 145.754L135.769 143.188L143.185 135.769L145.75 138.64C146.782 139.805 148.513 140.041 149.821 139.216C153.074 137.163 156.626 135.696 160.372 134.849C161.89 134.506 162.937 133.115 162.848 131.562L162.629 127.717H173.119L172.903 131.568C172.81 133.121 173.861 134.509 175.376 134.853C179.119 135.699 182.664 137.17 185.917 139.223C187.225 140.047 188.954 139.811 189.991 138.65L192.563 135.769L199.979 143.188L197.111 145.744C195.953 146.782 195.711 148.504 196.541 149.818C198.597 153.077 200.071 156.626 200.918 160.375C201.261 161.894 202.735 162.912 204.202 162.848L208.034 162.632V173.119ZM213.401 156.948C212.767 156.346 211.886 156.028 211.036 156.082L206.44 156.346C205.654 153.717 204.603 151.177 203.295 148.761L206.733 145.693C207.385 145.111 207.77 144.283 207.796 143.408C207.818 142.536 207.481 141.686 206.863 141.069L194.683 128.885C194.062 128.267 193.254 127.908 192.34 127.956C191.465 127.981 190.64 128.363 190.055 129.015L186.977 132.469C184.564 131.164 182.031 130.113 179.405 129.33L179.666 124.712C179.714 123.84 179.405 122.984 178.8 122.347C178.202 121.711 177.365 121.351 176.49 121.351H159.261C158.383 121.351 157.549 121.711 156.947 122.347C156.346 122.984 156.034 123.84 156.085 124.712L156.346 129.324C153.714 130.107 151.183 131.157 148.768 132.462L145.693 129.019C145.111 128.363 144.286 127.981 143.408 127.956C142.52 127.917 141.689 128.267 141.069 128.885L128.885 141.069C128.264 141.686 127.927 142.536 127.952 143.408C127.978 144.283 128.363 145.111 129.015 145.693L132.462 148.771C131.154 151.184 130.104 153.72 129.314 156.346L124.712 156.082C123.843 156.025 122.981 156.346 122.347 156.948C121.711 157.549 121.351 158.386 121.351 159.261V176.49C121.351 177.362 121.711 178.202 122.347 178.804C122.981 179.405 123.846 179.711 124.712 179.666L129.299 179.405C130.085 182.041 131.135 184.581 132.443 187.003L129.015 190.055C128.363 190.641 127.978 191.465 127.952 192.34C127.927 193.215 128.264 194.062 128.885 194.683L141.069 206.863C141.689 207.484 142.596 207.824 143.408 207.796C144.286 207.77 145.111 207.385 145.693 206.733L148.749 203.308C151.171 204.619 153.711 205.673 156.346 206.459L156.085 211.036C156.034 211.911 156.346 212.767 156.947 213.404C157.549 214.04 158.383 214.4 159.261 214.4H176.49C177.365 214.4 178.202 214.04 178.8 213.404C179.405 212.767 179.714 211.911 179.666 211.036L179.405 206.465C182.044 205.679 184.587 204.626 187.006 203.314L190.055 206.733C190.637 207.388 191.465 207.77 192.34 207.796C193.263 207.834 194.062 207.484 194.683 206.863L206.863 194.683C207.481 194.062 207.818 193.215 207.796 192.34C207.77 191.465 207.385 190.641 206.733 190.058L203.302 186.996C204.61 184.577 205.663 182.038 206.446 179.405L211.036 179.666C211.882 179.708 212.767 179.402 213.401 178.804C214.04 178.202 214.4 177.362 214.4 176.49V159.261C214.4 158.386 214.04 157.549 213.401 156.948ZM47.9656 175.277H111.621V181.643H44.7828C43.0227 181.643 41.6 180.217 41.6 178.46V44.7829C41.6 43.026 43.0227 41.6001 44.7828 41.6001H191.191C192.951 41.6001 194.374 43.026 194.374 44.7829V114.804H188.008V47.9657H47.9656V175.277ZM152.998 86.1591H149.815V79.7936H152.998H165.729H168.912V86.1591H165.729H152.998ZM156.18 73.428H162.546V60.6968H156.18V73.428ZM168.912 114.804V92.5247H172.094C173.854 92.5247 175.277 91.0988 175.277 89.3419V76.6108C175.277 74.8539 173.854 73.428 172.094 73.428H168.912V57.514C168.912 55.7571 167.489 54.3313 165.729 54.3313H152.998C151.238 54.3313 149.815 55.7571 149.815 57.514V73.428H146.632C144.872 73.428 143.449 74.8539 143.449 76.6108V89.3419C143.449 91.0988 144.872 92.5247 146.632 92.5247H149.815V114.804H156.18V92.5247H162.546V114.804H168.912ZM108.439 121.17H105.256V114.804H108.439H121.17H124.353V121.17H121.17H108.439ZM111.621 108.439H117.987V60.6968H111.621V108.439ZM124.353 133.901V127.535H127.535C129.295 127.535 130.718 126.11 130.718 124.353V111.621C130.718 109.865 129.295 108.439 127.535 108.439H124.353V57.514C124.353 55.7571 122.93 54.3313 121.17 54.3313H108.439C106.678 54.3313 105.256 55.7571 105.256 57.514V108.439H102.073C100.313 108.439 98.8902 109.865 98.8902 111.621V124.353C98.8902 126.11 100.313 127.535 102.073 127.535H105.256V162.546H111.621V127.535H117.987V133.901H124.353ZM60.6967 89.3419H63.8795H76.6107H79.7934V95.7075H76.6107H63.8795H60.6967V89.3419ZM67.0623 82.9764H73.4279V60.6968H67.0623V82.9764ZM67.0623 156.181H73.4279V102.073H67.0623V156.181ZM63.8795 162.546H76.6107C78.3707 162.546 79.7934 161.12 79.7934 159.363V102.073H82.9762C84.7363 102.073 86.159 100.647 86.159 98.8903V86.1591C86.159 84.4022 84.7363 82.9764 82.9762 82.9764H79.7934V57.514C79.7934 55.7571 78.3707 54.3313 76.6107 54.3313H63.8795C62.1194 54.3313 60.6967 55.7571 60.6967 57.514V82.9764H57.5139C55.7538 82.9764 54.3311 84.4022 54.3311 86.1591V98.8903C54.3311 100.647 55.7538 102.073 57.5139 102.073H60.6967V159.363C60.6967 161.12 62.1194 162.546 63.8795 162.546Z" fill="white"/>
</g>
<defs>
<linearGradient id="paint0_linear_1_809" x1="0" y1="25600" x2="25600" y2="0" gradientUnits="userSpaceOnUse">
<stop stop-color="#B0084D"/>
<stop offset="1" stop-color="#FF4F8B"/>
</linearGradient>
<clipPath id="clip0_1_809">
<rect width="256" height="256" fill="white"/>
</clipPath>
</defs>
</svg>
