<svg width="256" height="256" viewBox="0 0 256 256" fill="none" xmlns="http://www.w3.org/2000/svg">
<g clip-path="url(#clip0_1_797)">
<path d="M256 0H0V256H256V0Z" fill="url(#paint0_linear_1_797)"/>
<path d="M96 99.2001H112V92.8001H96V99.2001ZM117.334 195.731L111.414 193.302L135.709 134.032L141.629 136.461L117.334 195.731ZM145.827 178.496L163.418 163.066L145.84 147.83L150.035 142.992L170.384 160.634C171.082 161.239 171.485 162.118 171.488 163.043C171.491 163.968 171.094 164.848 170.397 165.459L150.048 183.309L145.827 178.496ZM81.6286 163.354C81.6224 162.429 82.016 161.549 82.7104 160.938L102.989 143.011L107.226 147.808L89.6928 163.306L107.13 178.336L102.947 183.184L82.736 165.757C82.0384 165.155 81.6352 164.279 81.6286 163.354ZM200.112 112H59.088C52.976 112 48 107.027 48 100.915V99.2001H86.4V92.8001H48V59.0849C48 52.9729 52.976 48.0001 59.088 48.0001H200.112C206.224 48.0001 211.2 52.9729 211.2 59.0849V92.8001H121.6V99.2001H211.2V100.915C211.2 107.027 206.224 112 200.112 112ZM70.4 211.2H185.6V118.4H70.4V211.2ZM200.112 41.6001H59.088C49.4432 41.6001 41.6 49.4433 41.6 59.0849V100.915C41.6 110.557 49.4432 118.4 59.088 118.4H64V214.4C64 216.166 65.4304 217.6 67.2 217.6H188.8C190.57 217.6 192 216.166 192 214.4V118.4H200.112C209.757 118.4 217.6 110.557 217.6 100.915V59.0849C217.6 49.4433 209.757 41.6001 200.112 41.6001Z" fill="white"/>
</g>
<defs>
<linearGradient id="paint0_linear_1_797" x1="0" y1="25600" x2="25600" y2="0" gradientUnits="userSpaceOnUse">
<stop stop-color="#2E27AD"/>
<stop offset="1" stop-color="#527FFF"/>
</linearGradient>
<clipPath id="clip0_1_797">
<rect width="256" height="256" fill="white"/>
</clipPath>
</defs>
</svg>
