<svg width="256" height="256" viewBox="0 0 256 256" fill="none" xmlns="http://www.w3.org/2000/svg">
<g clip-path="url(#clip0_1_881)">
<path d="M256 0H0V256H256V0Z" fill="url(#paint0_linear_1_881)"/>
<path d="M89.6241 211.2H49.8903L93.8355 119.347L113.747 160.339L89.6241 211.2ZM96.7029 110.57C96.1641 109.466 95.0415 108.765 93.8162 108.765H93.8066C92.5717 108.768 91.4491 109.475 90.9199 110.586L41.9134 213.021C41.4387 214.013 41.5061 215.178 42.0962 216.109C42.68 217.037 43.7064 217.6 44.8065 217.6H91.6544C92.8957 217.6 94.0215 216.886 94.5539 215.77L120.204 161.69C120.618 160.813 120.614 159.798 120.188 158.928L96.7029 110.57ZM207.985 211.2H168.508L105.174 78.6239C104.645 77.5103 103.516 76.7999 102.277 76.7999H76.4479L76.4768 44.7999H127.103L190.145 177.373C190.675 178.486 191.804 179.2 193.042 179.2H207.985V211.2ZM211.193 172.8H195.072L132.03 40.2271C131.5 39.1135 130.371 38.3999 129.13 38.3999H73.2726C71.5053 38.3999 70.0683 39.8303 70.0651 41.5967L70.0298 79.9967C70.0298 80.8479 70.3634 81.6607 70.9696 82.2623C71.5694 82.8639 72.3841 83.1999 73.2373 83.1999H100.254L163.591 215.776C164.123 216.89 165.246 217.6 166.484 217.6H211.193C212.966 217.6 214.4 216.166 214.4 214.4V176C214.4 174.234 212.966 172.8 211.193 172.8Z" fill="white"/>
</g>
<defs>
<linearGradient id="paint0_linear_1_881" x1="0" y1="25600" x2="25600" y2="0" gradientUnits="userSpaceOnUse">
<stop stop-color="#C8511B"/>
<stop offset="1" stop-color="#FF9900"/>
</linearGradient>
<clipPath id="clip0_1_881">
<rect width="256" height="256" fill="white"/>
</clipPath>
</defs>
</svg>
