<svg width="256" height="256" viewBox="0 0 256 256" fill="none" xmlns="http://www.w3.org/2000/svg">
<g clip-path="url(#clip0_1_968)">
<path d="M256 0H0V256H256V0Z" fill="url(#paint0_linear_1_968)"/>
<path d="M152 135.041H145.6V179.467H132.8V147.734H126.4V179.467H113.6V157.254H107.2V179.467H100.8V185.813H158.4V179.467H152V135.041ZM177.6 158.84C177.6 133.47 156.784 112.828 131.2 112.828C105.616 112.828 84.8 133.47 84.8 158.84C84.8 184.211 105.616 204.853 131.2 204.853C156.784 204.853 177.6 184.211 177.6 158.84ZM184 158.84C184 187.711 160.314 211.2 131.2 211.2C102.086 211.2 78.4 187.711 78.4 158.84C78.4 129.97 102.086 106.481 131.2 106.481C160.314 106.481 184 129.97 184 158.84ZM217.6 123.845C217.6 141.949 207.578 153.722 190.109 156.14L189.222 149.854C199.251 148.467 211.2 142.828 211.2 123.845C211.2 106.027 197.61 99.5822 186.211 97.3133C184.781 97.0309 183.728 95.825 183.648 94.3812C182.899 81.3484 175.184 75.5127 167.866 75.5127C163.267 75.5127 158.979 77.661 156.102 81.4087C155.398 82.329 154.23 82.7923 153.085 82.6241C151.933 82.4527 150.96 81.6753 150.557 80.5868C147.965 73.6468 144.125 67.5953 139.453 63.0861C127.171 51.2084 110.365 47.9812 94.496 54.4611C81.3216 59.8208 71.0016 75.2462 71.0016 89.5768C71.0016 91.1856 71.1008 92.7882 71.2928 94.3399C71.4944 95.9329 70.4608 97.4243 68.8864 97.8083C61.088 99.725 48 105.624 48 123.601C48 124.277 48.0352 124.889 48.0672 125.533C48.6528 136.066 57.8176 145.741 70.3584 149.057L68.7104 155.188C53.5296 151.174 42.4128 139.121 41.6768 125.876C41.6352 125.115 41.6 124.397 41.6 123.601C41.6 102.832 56.1216 95.1301 64.6912 92.3978C64.6304 91.4649 64.6016 90.5224 64.6016 89.5768C64.6016 72.5806 76.4096 54.9624 92.064 48.5905C110.362 41.1142 129.754 44.8333 143.92 58.5419C148.202 62.6736 151.859 67.9 154.643 73.834C158.374 70.8258 162.995 69.1661 167.866 69.1661C177.696 69.1661 188.01 76.1315 189.824 91.6077C207.763 95.9266 217.6 107.3 217.6 123.845Z" fill="white"/>
</g>
<defs>
<linearGradient id="paint0_linear_1_968" x1="0" y1="25600" x2="25600" y2="0" gradientUnits="userSpaceOnUse">
<stop stop-color="#2E27AD"/>
<stop offset="1" stop-color="#527FFF"/>
</linearGradient>
<clipPath id="clip0_1_968">
<rect width="256" height="256" fill="white"/>
</clipPath>
</defs>
</svg>
