<svg width="256" height="256" viewBox="0 0 256 256" fill="none" xmlns="http://www.w3.org/2000/svg">
<g clip-path="url(#clip0_1_801)">
<path d="M256 0H0V256H256V0Z" fill="url(#paint0_linear_1_801)"/>
<path d="M201.439 111.38C207.742 107.748 209.912 99.675 206.272 93.3862C204.51 90.3387 201.659 88.1577 198.255 87.2467C197.119 86.9419 195.964 86.7927 194.818 86.7927C192.531 86.7927 190.272 87.3895 188.239 88.5641C185.184 90.3228 182.995 93.164 182.082 96.5639C181.172 99.9607 181.637 103.51 183.403 106.557C187.042 112.846 195.14 115.014 201.439 111.38ZM209.632 124.852L212.814 130.351L197.357 139.252L193.504 119.402C187.23 118.964 181.268 115.564 177.892 109.732C175.277 105.218 174.586 99.9544 175.935 94.9164C177.291 89.8815 180.53 85.6721 185.057 83.0658C189.575 80.4595 194.847 79.7611 199.903 81.1134C204.952 82.4626 209.171 85.6943 211.783 90.2117C217.176 99.5321 213.966 111.497 204.621 116.878C203.097 117.757 201.5 118.405 199.874 118.837L201.904 129.3L209.632 124.852ZM187.392 163.309C184.335 161.547 180.781 161.08 177.377 161.991C173.969 162.902 171.122 165.083 169.359 168.131C166.871 172.429 167.151 177.534 169.556 181.515L172.292 184.661L172.229 184.718C172.833 185.232 173.479 185.718 174.192 186.127V186.124C177.249 187.886 180.806 188.353 184.208 187.442C187.612 186.531 190.463 184.35 192.225 181.302C195.865 175.013 193.695 166.94 187.392 163.309ZM197.736 184.477C195.124 188.994 190.902 192.226 185.856 193.575C184.169 194.026 182.458 194.248 180.759 194.248C177.37 194.248 174.023 193.362 171.01 191.626V191.623C169.664 190.851 168.465 189.927 167.38 188.905L162.811 192.857L170.536 197.302L167.354 202.803L151.888 193.899L163.524 183.839C160.488 178.099 160.361 170.979 163.848 164.956C166.46 160.439 170.679 157.21 175.729 155.861C180.781 154.506 186.05 155.204 190.574 157.81C195.102 160.417 198.337 164.626 199.689 169.664C201.042 174.702 200.348 179.962 197.736 184.477ZM128.449 198.076C128.449 190.81 122.522 184.899 115.242 184.899C107.963 184.899 102.038 190.81 102.038 198.076C102.038 205.34 107.963 211.251 115.242 211.251C122.522 211.251 128.449 205.34 128.449 198.076ZM134.813 198.076C134.813 208.841 126.034 217.6 115.242 217.6C104.453 217.6 95.6752 208.841 95.6752 198.076C95.6752 196.562 95.8629 195.096 96.1938 193.68L87.9915 190.845V200.41H81.6282V181.928L98.6309 187.807C102.086 182.261 108.23 178.55 115.242 178.55C126.034 178.55 134.813 187.308 134.813 198.076ZM72.831 147.109C71.0684 144.062 68.2208 141.881 64.8164 140.97C61.4121 140.062 57.8582 140.525 54.7974 142.287C51.7431 144.046 49.5605 146.887 48.6473 150.287C47.731 153.684 48.2019 157.233 49.9677 160.28C51.7271 163.328 54.5779 165.509 57.9823 166.42C61.3803 167.331 64.9405 166.867 68.0013 165.102C74.3041 161.471 76.474 153.398 72.831 147.109ZM71.1829 170.601C68.1667 172.34 64.8228 173.226 61.4312 173.226C59.7322 173.226 58.0204 173.004 56.3374 172.553C51.2881 171.204 47.066 167.972 44.4539 163.455C41.8418 158.941 41.145 153.68 42.5004 148.642C43.8526 143.604 47.0883 139.395 51.6158 136.789V136.785C52.5321 136.258 53.4834 135.833 54.4538 135.462L52.4812 125.313L44.788 129.754L41.6 124.259L57.0278 115.351L60.6835 134.182C62.6052 134.112 64.5524 134.328 66.4613 134.836C71.5106 136.185 75.7295 139.417 78.3448 143.935C83.7377 153.255 80.5242 165.22 71.1829 170.601ZM77.3648 72.212C75.2936 71.0184 73.0251 70.4501 70.7884 70.4501C66.2195 70.4501 61.7716 72.812 59.3281 77.0341C57.5623 80.0817 57.0978 83.6308 58.0077 87.0308C58.9208 90.4276 61.1098 93.2688 64.1642 95.0275C67.2154 96.7893 70.7725 97.2592 74.18 96.3449C77.5844 95.4338 80.4351 93.2561 82.1946 90.2085C85.8376 83.9165 83.6677 75.8437 77.3648 72.212ZM87.5652 73.6437C91.0555 79.5198 91.3672 87.0562 87.7084 93.3831C85.0962 97.8973 80.8742 101.129 75.8281 102.478C74.1418 102.929 72.4301 103.151 70.7311 103.151C67.3427 103.151 63.9956 102.262 60.9826 100.529C56.4551 97.9195 53.2162 93.71 51.8608 88.6752C50.5086 83.6372 51.2022 78.377 53.8175 73.8596C59.2136 64.5359 71.2052 61.3297 80.5465 66.7137C81.6028 67.3232 82.5668 68.0248 83.464 68.7867L91.5836 61.7519L83.8808 57.3043L87.0688 51.806L102.481 60.7106L87.5652 73.6437ZM151.86 57.9265C151.86 50.6632 145.936 44.749 138.653 44.749C131.373 44.749 125.446 50.6632 125.446 57.9265C125.446 65.1931 131.373 71.1009 138.653 71.1009C145.936 71.1009 151.86 65.1931 151.86 57.9265ZM172.267 72.6374L155.955 67.0248C152.668 73.2183 146.149 77.45 138.653 77.45C127.861 77.45 119.083 68.6914 119.083 57.9265C119.083 47.1617 127.861 38.3999 138.653 38.3999C149.442 38.3999 158.223 47.1617 158.223 57.9265C158.223 58.9741 158.118 59.9932 157.956 60.9963L165.904 63.7328V55.5901H172.267V72.6374ZM140.813 104.402L134.984 101.853L112.567 152.798L118.395 155.35L140.813 104.402ZM165.003 128.706L146.632 110.805L142.191 115.348L155.245 128.071L140.648 139.001L144.469 144.077L165.003 128.706ZM107.056 141.652L88.6883 123.754L109.223 108.38L113.044 113.459L98.4432 124.386L111.498 137.109L107.056 141.652Z" fill="white"/>
</g>
<defs>
<linearGradient id="paint0_linear_1_801" x1="0" y1="25600" x2="25600" y2="0" gradientUnits="userSpaceOnUse">
<stop stop-color="#2E27AD"/>
<stop offset="1" stop-color="#527FFF"/>
</linearGradient>
<clipPath id="clip0_1_801">
<rect width="256" height="256" fill="white"/>
</clipPath>
</defs>
</svg>
