<svg width="256" height="256" viewBox="0 0 256 256" fill="none" xmlns="http://www.w3.org/2000/svg">
<g clip-path="url(#clip0_1_785)">
<path d="M256 0H0V256H256V0Z" fill="url(#paint0_linear_1_785)"/>
<path d="M209.407 70.3999L190.354 52.9567L171.281 70.3999H209.407ZM183.046 51.0015L144.396 51.0591L165.04 67.4655L183.046 51.0015ZM165.615 107.2L135.195 118.4H193.711L165.615 107.2ZM120.954 182.4H206.707V124.8H120.954V182.4ZM158.472 70.3999L137.399 53.6511L116.466 70.3999H158.472ZM109.79 67.5679L130.396 51.0815L89.3169 51.1423L109.79 67.5679ZM103.12 70.3999L82.0882 53.5231L61.0563 70.3999H92.3691H103.12ZM89.193 76.7999H63.4955L89.193 102.288V76.7999ZM89.193 112.266L59.0332 139.728L89.193 169.245V112.266ZM89.193 179.638L57.4324 210.685V211.2H89.193V179.638ZM57.4324 147.082V201.77L85.3881 174.441L57.4324 147.082ZM57.4324 132.557L85.1848 107.289L57.4324 79.7695V132.557ZM54.2564 67.6735L74.8309 51.1647L54.2564 51.1967V67.6735ZM47.9042 44.7999H41.5521V76.7999H47.9042V73.5999V47.9999V44.7999ZM220.587 74.7519C220.113 75.9871 218.935 76.7999 217.623 76.7999H168.594V102.4L211.084 118.637L211.081 118.643C212.243 119.12 213.059 120.262 213.059 121.6V185.6C213.059 187.366 211.64 188.8 209.883 188.8H117.778C116.024 188.8 114.601 187.366 114.601 185.6V121.6C114.601 120.23 115.465 119.081 116.669 118.627L116.66 118.605L162.242 102.4V76.7999H95.5451V214.4C95.5451 216.166 94.1254 217.6 92.3691 217.6H54.2564C52.5032 217.6 51.0803 216.166 51.0803 214.4V83.1999H38.3761C36.6229 83.1999 35.2 81.7663 35.2 79.9999V41.5999C35.2 39.8335 36.6229 38.3999 38.3761 38.3999H51.0803C52.8367 38.3999 54.2564 39.8335 54.2564 41.5999V44.7967L190.827 44.7999L219.761 71.2319C220.729 72.1215 221.06 73.5199 220.587 74.7519ZM154.687 176.986L173.171 134.666L167.359 132.086L148.874 174.406L154.687 176.986ZM172.05 162.841L176.157 167.728L189.877 156.022C190.551 155.446 190.954 154.611 190.995 153.725C191.037 152.835 190.703 151.968 190.084 151.334L178.631 139.625L174.108 144.121L183.154 153.369L172.05 162.841ZM130.787 153.549C130.088 152.905 129.71 151.978 129.761 151.024C129.808 150.067 130.282 149.187 131.044 148.618L146.629 136.998L150.408 142.141L137.92 151.456L148.401 161.133L144.107 165.853L130.787 153.549Z" fill="white"/>
</g>
<defs>
<linearGradient id="paint0_linear_1_785" x1="0" y1="25600" x2="25600" y2="0" gradientUnits="userSpaceOnUse">
<stop stop-color="#2E27AD"/>
<stop offset="1" stop-color="#527FFF"/>
</linearGradient>
<clipPath id="clip0_1_785">
<rect width="256" height="256" fill="white"/>
</clipPath>
</defs>
</svg>
