<svg width="256" height="256" viewBox="0 0 256 256" fill="none" xmlns="http://www.w3.org/2000/svg">
<g clip-path="url(#clip0_1_869)">
<path d="M256 0H0V256H256V0Z" fill="url(#paint0_linear_1_869)"/>
<path d="M60.8 198.4H67.2C67.2 171.501 84.688 144 214.4 144V137.6C79.0496 137.6 60.8 168.333 60.8 198.4ZM80 217.6H86.4C86.4 193.389 86.4 156.8 214.4 156.8V150.4C155.722 150.4 117.53 157.949 97.632 173.478C80 187.238 80 204.787 80 217.6ZM48 83.1999H41.6C41.6 106.867 73.7248 121.856 137.258 128C73.7248 134.144 41.6 149.133 41.6 172.8H48C48 157.264 69.6192 131.2 214.4 131.2V124.8C69.6192 124.8 48 98.7359 48 83.1999ZM67.2 57.5999H60.8C60.8 87.6671 79.0496 118.4 214.4 118.4V112C84.688 112 67.2 84.4991 67.2 57.5999ZM214.4 99.1999V105.6C155.722 105.6 117.53 98.0511 97.632 82.5215C80 68.7615 80 51.2127 80 38.3999H86.4C86.4 62.6111 86.4 99.1999 214.4 99.1999Z" fill="white"/>
</g>
<defs>
<linearGradient id="paint0_linear_1_869" x1="0" y1="25600" x2="25600" y2="0" gradientUnits="userSpaceOnUse">
<stop stop-color="#4D27A8"/>
<stop offset="1" stop-color="#A166FF"/>
</linearGradient>
<clipPath id="clip0_1_869">
<rect width="256" height="256" fill="white"/>
</clipPath>
</defs>
</svg>
