<svg width="256" height="256" viewBox="0 0 256 256" fill="none" xmlns="http://www.w3.org/2000/svg">
<g clip-path="url(#clip0_1_805)">
<path d="M256 0H0V256H256V0Z" fill="url(#paint0_linear_1_805)"/>
<path d="M54.2834 114.585H95.5802V108.241H54.2834V114.585ZM196.402 160.739L200.893 165.224L177.303 188.78C176.681 189.398 175.868 189.709 175.058 189.709C174.244 189.709 173.431 189.398 172.812 188.78L160.944 176.932L165.435 172.447L175.058 182.052L196.402 160.739ZM211.021 178.22C210.296 184.183 207.869 189.731 203.991 194.267C201.237 197.49 197.758 200.155 193.933 201.969C188.803 204.402 183.104 205.325 177.427 204.634C171.906 203.961 166.703 201.785 162.367 198.343C154.037 191.73 149.832 181.474 151.112 170.908C152.322 160.923 158.374 152.212 167.297 147.606C171.573 145.402 176.255 144.269 181.023 144.269C182.246 144.269 183.479 144.345 184.708 144.495C194.67 145.709 203.359 151.797 207.939 160.777C210.687 166.163 211.751 172.196 211.021 178.22ZM213.6 157.9C208.057 147.032 197.542 139.667 185.477 138.198C178.18 137.307 170.89 138.614 164.381 141.97C153.586 147.54 146.267 158.074 144.803 170.147C143.259 182.915 148.345 195.314 158.415 203.311C163.666 207.479 169.975 210.115 176.655 210.93C178.136 211.111 179.616 211.2 181.093 211.2C186.468 211.2 191.776 210.013 196.659 207.698C201.287 205.503 205.497 202.28 208.823 198.385C213.514 192.897 216.456 186.188 217.33 178.981C218.213 171.701 216.923 164.412 213.6 157.9ZM86.0502 133.618H98.7569V127.273H86.0502V133.618ZM54.2834 133.618H79.6968V127.273H54.2834V133.618ZM51.5388 51.1439H193.625C197.367 51.1439 200.411 54.8457 200.411 59.3945V82.8645H190.881V67.0042C190.881 65.2533 189.461 63.8322 187.704 63.8322H114.64C112.884 63.8322 111.464 65.2533 111.464 67.0042V82.8645H44.7534V59.3945C44.7534 54.9219 47.8634 51.1439 51.5388 51.1439ZM151.22 81.9446C158.596 81.9446 164.597 87.8764 164.597 95.1658C164.597 99.9715 161.944 104.393 157.675 106.709C153.621 108.907 148.736 108.879 144.736 106.712C140.483 104.39 137.843 99.9683 137.843 95.1658C137.843 87.8764 143.84 81.9446 151.22 81.9446ZM44.7534 150.747V89.2087H111.464V143.134C111.464 144.888 112.884 146.306 114.64 146.306H147.849V139.962H121.318C121.594 127.267 130.035 116.301 142.188 112.799C147.805 115.423 154.511 115.448 160.213 112.796C167.132 114.795 173.187 119.416 176.938 125.611L182.373 122.325C178.523 115.978 172.681 111.023 165.906 108.143C169.082 104.622 170.95 100.041 170.95 95.1658C170.95 84.3776 162.097 75.6005 151.22 75.6005C140.34 75.6005 131.489 84.3776 131.489 95.1658C131.489 100.022 133.338 104.587 136.493 108.108C128.001 111.68 121.369 118.376 117.817 126.633V70.1763H184.527V120.929H190.881V89.2087H200.411L200.414 136.79H206.767L206.764 59.3945C206.764 51.3469 200.871 44.7998 193.625 44.7998H51.5388C44.2928 44.7998 38.4 51.3469 38.4 59.3945V150.747C38.4 158.794 44.2928 165.338 51.5388 165.338H136.877V158.994H51.5388C47.8634 158.994 44.7534 155.219 44.7534 150.747Z" fill="white"/>
</g>
<defs>
<linearGradient id="paint0_linear_1_805" x1="0" y1="25600" x2="25600" y2="0" gradientUnits="userSpaceOnUse">
<stop stop-color="#BD0816"/>
<stop offset="1" stop-color="#FF5252"/>
</linearGradient>
<clipPath id="clip0_1_805">
<rect width="256" height="256" fill="white"/>
</clipPath>
</defs>
</svg>
