<svg width="256" height="256" viewBox="0 0 256 256" fill="none" xmlns="http://www.w3.org/2000/svg">
<g clip-path="url(#clip0_1_761)">
<path d="M256 0H0V256H256V0Z" fill="url(#paint0_linear_1_761)"/>
<path d="M114.221 125.699C115.021 126.47 115.36 127.597 115.126 128.682L111.846 143.75L126.326 134.874C127.354 134.24 128.646 134.24 129.677 134.877L144.051 143.731L140.867 128.637C140.643 127.565 140.979 126.454 141.76 125.69L154.685 113.037L137.834 110.605C136.784 110.451 135.882 109.792 135.414 108.842L127.971 93.6033L120.352 108.88C119.888 109.818 118.989 110.467 117.952 110.618L101.149 113.072L114.221 125.699ZM103.997 149.718L108.493 129.062L92.0192 113.149C91.1392 112.301 90.8224 111.03 91.1936 109.866C91.568 108.704 92.5696 107.856 93.776 107.683L115.37 104.525L125.136 84.944C125.677 83.856 126.701 83.1073 128.013 83.1713C129.229 83.1777 130.339 83.8752 130.874 84.9664L140.422 104.512L162.003 107.632C163.21 107.805 164.208 108.646 164.586 109.805C164.963 110.963 164.656 112.234 163.782 113.085L147.491 129.034L151.853 149.706C152.115 150.96 151.61 152.25 150.56 152.986C149.517 153.722 148.134 153.763 147.043 153.094L127.997 141.357L108.797 153.126C108.285 153.443 107.702 153.6 107.123 153.6C106.474 153.6 105.824 153.402 105.27 153.008C104.227 152.266 103.725 150.97 103.997 149.718ZM44.8 67.2672H211.2V51.2001H44.8V67.2672ZM217.6 48V208C217.6 209.766 216.166 211.2 214.4 211.2H195.2V204.8H211.2V73.6705H44.8V204.8H166.4V211.2H41.6C39.8304 211.2 38.4 209.766 38.4 208V48C38.4 46.2336 39.8304 44.8 41.6 44.8H214.4C216.166 44.8 217.6 46.2336 217.6 48ZM76.8 188.8H96V182.4H76.8V188.8ZM108.8 188.8H153.6V182.4H108.8V188.8ZM76.8 172.8H96V166.4H76.8V172.8ZM108.8 172.8H179.2V166.4H108.8V172.8Z" fill="white"/>
</g>
<defs>
<linearGradient id="paint0_linear_1_761" x1="0" y1="25600" x2="25600" y2="0" gradientUnits="userSpaceOnUse">
<stop stop-color="#BD0816"/>
<stop offset="1" stop-color="#FF5252"/>
</linearGradient>
<clipPath id="clip0_1_761">
<rect width="256" height="256" fill="white"/>
</clipPath>
</defs>
</svg>
