<svg width="256" height="256" viewBox="0 0 256 256" fill="none" xmlns="http://www.w3.org/2000/svg">
<g clip-path="url(#clip0_1_912)">
<path d="M256 0H0V256H256V0Z" fill="url(#paint0_linear_1_912)"/>
<path d="M49.3248 44.7999L79.0624 74.5375L74.5376 79.0623L44.8 49.3247V73.5999H38.4V41.5999C38.4 39.8335 39.8304 38.3999 41.6 38.3999H73.6V44.7999H49.3248ZM217.6 41.5999V73.5999H211.2V49.3247L181.462 79.0623L176.938 74.5375L206.675 44.7999H182.4V38.3999H214.4C216.17 38.3999 217.6 39.8335 217.6 41.5999ZM211.2 182.4H217.6V214.4C217.6 216.166 216.17 217.6 214.4 217.6H182.4V211.2H206.675L176.938 181.462L181.462 176.938L211.2 206.675V182.4ZM209.6 125.481C209.6 114.861 197.338 104.368 176.8 97.4143L178.851 91.3535C202.458 99.3439 216 111.782 216 125.481C216 139.184 202.458 151.625 178.848 159.613L176.797 153.549C197.338 146.598 209.6 136.109 209.6 125.481ZM46.5792 125.481C46.5792 135.658 58.0576 145.872 77.2864 152.81L75.1136 158.829C52.912 150.819 40.1792 138.665 40.1792 125.481C40.1792 112.301 52.912 100.147 75.1136 92.1343L77.2864 98.1535C58.0576 105.094 46.5792 115.309 46.5792 125.481ZM79.0624 181.462L49.3248 211.2H73.6V217.6H41.6C39.8304 217.6 38.4 216.166 38.4 214.4V182.4H44.8V206.675L74.5376 176.938L79.0624 181.462ZM128 100.115C105.133 100.115 92.8 94.2079 92.8 91.7951C92.8 89.3791 105.133 83.4751 128 83.4751C150.864 83.4751 163.2 89.3791 163.2 91.7951C163.2 94.2079 150.864 100.115 128 100.115ZM128.093 124.899C106.198 124.899 92.8 118.918 92.8 115.664V100.109C100.682 104.458 114.662 106.515 128 106.515C141.338 106.515 155.318 104.458 163.2 100.109V115.664C163.2 118.922 149.872 124.899 128.093 124.899ZM128.093 149.334C106.198 149.334 92.8 143.354 92.8 140.099V124.358C100.579 128.931 114.374 131.299 128.093 131.299C141.734 131.299 155.45 128.934 163.2 124.374V140.099C163.2 143.357 149.872 149.334 128.093 149.334ZM128 171.258C105.226 171.258 92.8 165.136 92.8 161.99V148.793C100.579 153.366 114.374 155.734 128.093 155.734C141.734 155.734 155.45 153.373 163.2 148.81V161.99C163.2 165.136 150.774 171.258 128 171.258ZM128 77.0751C107.965 77.0751 86.4 81.6799 86.4 91.7951V161.99C86.4 172.275 107.328 177.658 128 177.658C148.672 177.658 169.6 172.275 169.6 161.99V91.7951C169.6 81.6799 148.035 77.0751 128 77.0751Z" fill="white"/>
</g>
<defs>
<linearGradient id="paint0_linear_1_912" x1="0" y1="25600" x2="25600" y2="0" gradientUnits="userSpaceOnUse">
<stop stop-color="#2E27AD"/>
<stop offset="1" stop-color="#527FFF"/>
</linearGradient>
<clipPath id="clip0_1_912">
<rect width="256" height="256" fill="white"/>
</clipPath>
</defs>
</svg>
