<svg width="256" height="256" viewBox="0 0 256 256" fill="none" xmlns="http://www.w3.org/2000/svg">
<g clip-path="url(#clip0_1_896)">
<path d="M256 0H0V256H256V0Z" fill="url(#paint0_linear_1_896)"/>
<path d="M208 185.6C206.234 185.6 204.8 184.163 204.8 182.4C204.8 180.637 206.234 179.2 208 179.2C209.766 179.2 211.2 180.637 211.2 182.4C211.2 184.163 209.766 185.6 208 185.6ZM177.6 211.2C173.187 211.2 169.6 207.61 169.6 203.2C169.6 198.79 173.187 195.2 177.6 195.2C182.013 195.2 185.6 198.79 185.6 203.2C185.6 207.61 182.013 211.2 177.6 211.2ZM163.2 155.2C163.2 149.024 168.224 144 174.4 144C180.576 144 185.6 149.024 185.6 155.2C185.6 161.376 180.576 166.4 174.4 166.4C168.224 166.4 163.2 161.376 163.2 155.2ZM144 128C142.234 128 140.8 126.563 140.8 124.8C140.8 123.037 142.234 121.6 144 121.6C145.767 121.6 147.2 123.037 147.2 124.8C147.2 126.563 145.767 128 144 128ZM134.4 172.8C130.87 172.8 128 169.93 128 166.4C128 162.87 130.87 160 134.4 160C137.93 160 140.8 162.87 140.8 166.4C140.8 169.93 137.93 172.8 134.4 172.8ZM201.6 105.6C205.13 105.6 208 108.47 208 112C208 115.53 205.13 118.4 201.6 118.4C198.07 118.4 195.2 115.53 195.2 112C195.2 108.47 198.07 105.6 201.6 105.6ZM208 172.8C202.707 172.8 198.4 177.107 198.4 182.4C198.4 183.827 198.733 185.168 199.293 186.387L188.077 193.389C185.975 191.142 183.181 189.584 180.022 189.047L179.261 172.103C186.605 169.987 192 163.216 192 155.2C192 150.49 190.128 146.214 187.104 143.053L198.256 124.301C199.328 124.595 200.438 124.8 201.6 124.8C208.659 124.8 214.4 119.059 214.4 112C214.4 104.941 208.659 99.2001 201.6 99.2001C194.541 99.2001 188.8 104.941 188.8 112C188.8 115.59 190.294 118.826 192.682 121.152L181.891 139.299C179.616 138.221 177.082 137.6 174.4 137.6C170.714 137.6 167.29 138.746 164.461 140.691L152.746 128.714C153.283 127.517 153.6 126.199 153.6 124.8C153.6 119.507 149.293 115.2 144 115.2C138.707 115.2 134.4 119.507 134.4 124.8C134.4 130.093 138.707 134.4 144 134.4C145.555 134.4 147.005 133.994 148.31 133.331L159.927 145.21C157.959 148.051 156.8 151.491 156.8 155.2C156.8 155.853 156.842 156.496 156.912 157.13L145.187 159.568C142.912 155.994 138.944 153.6 134.4 153.6C127.341 153.6 121.6 159.341 121.6 166.4C121.6 173.459 127.341 179.2 134.4 179.2C141.459 179.2 147.2 173.459 147.2 166.4C147.2 166.16 147.142 165.936 147.133 165.702L158.781 163.277C161.495 168.499 166.736 172.195 172.88 172.723L173.632 189.424C167.629 191.162 163.2 196.646 163.2 203.2C163.2 211.139 169.661 217.6 177.6 217.6C185.539 217.6 192 211.139 192 203.2C192 201.706 191.706 200.288 191.28 198.931L203.91 191.05C205.152 191.642 206.531 192 208 192C213.293 192 217.6 187.693 217.6 182.4C217.6 177.107 213.293 172.8 208 172.8ZM100.8 48.0001C131.917 48.0001 153.6 58.1185 153.6 67.2001C153.6 76.2817 131.917 86.4001 100.8 86.4001C69.6833 86.4001 48.0001 76.2817 48.0001 67.2001C48.0001 58.1185 69.6833 48.0001 100.8 48.0001ZM153.6 192.064C153.6 200.87 131.917 210.688 100.8 210.688C69.6833 210.688 48.0001 200.87 48.0001 192.064V165.696C57.4625 173.766 76.5985 179.053 99.7345 179.053C105.184 179.053 110.691 178.749 116.093 178.151L115.389 171.789C110.218 172.362 104.95 172.653 99.7345 172.653C68.7873 172.653 48.0001 162.941 48.0001 153.875V122.519C57.4625 130.589 76.5985 135.872 99.7345 135.872C110.822 135.872 121.587 134.643 130.864 132.314L129.306 126.109C120.531 128.311 110.307 129.472 99.7345 129.472C68.7873 129.472 48.0001 119.763 48.0001 110.694V79.1105C57.5905 87.3761 77.1329 92.8001 100.8 92.8001C124.467 92.8001 144.01 87.3761 153.6 79.1105V115.2H160V67.2001C160 52.6049 134.551 41.6001 100.8 41.6001C67.0497 41.6001 41.6001 52.6049 41.6001 67.2001V192.064C41.6001 206.33 67.0497 217.088 100.8 217.088C134.551 217.088 160 206.33 160 192.064V176H153.6V192.064Z" fill="white"/>
</g>
<defs>
<linearGradient id="paint0_linear_1_896" x1="0" y1="25600" x2="25600" y2="0" gradientUnits="userSpaceOnUse">
<stop stop-color="#2E27AD"/>
<stop offset="1" stop-color="#527FFF"/>
</linearGradient>
<clipPath id="clip0_1_896">
<rect width="256" height="256" fill="white"/>
</clipPath>
</defs>
</svg>
