<svg width="256" height="256" viewBox="0 0 256 256" fill="none" xmlns="http://www.w3.org/2000/svg">
<g clip-path="url(#clip0_1_749)">
<path d="M256 0H0V256H256V0Z" fill="url(#paint0_linear_1_749)"/>
<path d="M144.292 57.7445H134.666V51.2867H144.292V41.6001H150.709V51.2867H160.334V57.7445H150.709V67.4311H144.292V57.7445ZM182.794 93.2622H173.169V86.8044H182.794V77.1178H189.212V86.8044H198.837V93.2622H189.212V102.949H182.794V93.2622ZM166.084 195.308C159.956 179.738 145.812 165.505 130.334 159.335C145.812 153.168 159.956 138.935 166.084 123.362C172.213 138.935 186.356 153.168 201.831 159.335C186.356 165.505 172.213 179.738 166.084 195.308ZM217.591 156.106C195.022 156.106 169.293 130.213 169.293 107.502C169.293 105.719 167.859 104.273 166.084 104.273C164.31 104.273 162.876 105.719 162.876 107.502C162.876 130.213 137.143 156.106 114.574 156.106C112.803 156.106 111.365 157.552 111.365 159.335C111.365 161.12 112.803 162.564 114.574 162.564C137.143 162.564 162.876 188.456 162.876 211.171C162.876 212.954 164.31 214.4 166.084 214.4C167.859 214.4 169.293 212.954 169.293 211.171C169.293 188.456 195.022 162.564 217.591 162.564C219.363 162.564 220.8 161.12 220.8 159.335C220.8 157.552 219.363 156.106 217.591 156.106ZM41.6172 92.4905C50.9605 99.3293 69.1146 102.949 86.5372 102.949C103.96 102.949 122.114 99.3293 131.457 92.4905V123.417C126.834 129.603 109.831 135.699 87.1789 135.699C61.1028 135.699 41.6172 127.498 41.6172 120.165V92.4905ZM86.5372 67.4311C114.368 67.4311 131.457 75.894 131.457 81.9611C131.457 88.0282 114.368 96.4911 86.5372 96.4911C58.706 96.4911 41.6172 88.0282 41.6172 81.9611C41.6172 75.894 58.706 67.4311 86.5372 67.4311ZM131.457 188.614C131.457 196.057 112.241 204.384 86.5212 204.384C60.8205 204.384 41.6172 196.057 41.6172 188.614V167.982C51.076 175.201 69.5927 179.024 87.3618 179.024C99.718 179.024 111.667 177.268 120.994 174.078L118.934 167.962C110.252 170.93 99.0378 172.567 87.3618 172.567C61.1798 172.567 41.6172 164.365 41.6172 157.033V131.134C51.0504 138.341 69.4868 142.157 87.1789 142.157C106.135 142.157 122.393 138.228 131.457 132.006V141.695H137.874V81.9611C137.874 68.3288 111.426 60.9734 86.5372 60.9734C62.6622 60.9734 37.4139 67.7605 35.3989 80.3467H35.2V188.614C35.2 203.051 61.6419 210.842 86.5212 210.842C111.416 210.842 137.874 203.051 137.874 188.614V177.213H131.457V188.614Z" fill="white"/>
</g>
<defs>
<linearGradient id="paint0_linear_1_749" x1="0" y1="25600" x2="25600" y2="0" gradientUnits="userSpaceOnUse">
<stop stop-color="#2E27AD"/>
<stop offset="1" stop-color="#527FFF"/>
</linearGradient>
<clipPath id="clip0_1_749">
<rect width="256" height="256" fill="white"/>
</clipPath>
</defs>
</svg>
