<svg width="256" height="256" viewBox="0 0 256 256" fill="none" xmlns="http://www.w3.org/2000/svg">
<g clip-path="url(#clip0_1_940)">
<path d="M256 0H0V256H256V0Z" fill="url(#paint0_linear_1_940)"/>
<path d="M54.4001 121.6C57.9297 121.6 60.8001 124.47 60.8001 128C60.8001 131.529 57.9297 134.4 54.4001 134.4C50.8705 134.4 48.0001 131.529 48.0001 128C48.0001 124.47 50.8705 121.6 54.4001 121.6ZM131.2 204.8C93.8049 204.8 61.7249 177.491 55.0209 140.736C60.6881 140.461 65.3665 136.509 66.7425 131.2H86.4001V124.8H66.7425C65.3665 119.494 60.6913 115.542 55.0241 115.264C61.7121 79.0718 94.4353 51.1998 131.2 51.1998C145.002 51.1998 159.463 56.3902 174.173 66.627L177.827 61.3726C162.026 50.3774 146.336 44.7998 131.2 44.7998C90.4641 44.7998 54.2369 76.3678 48.2017 116.867C44.2849 119.062 41.6001 123.2 41.6001 128C41.6001 132.8 44.2849 136.937 48.2017 139.129C54.3041 180.291 89.7793 211.2 131.2 211.2C148.502 211.2 166.215 205.302 181.072 194.595L177.328 189.405C163.552 199.334 147.171 204.8 131.2 204.8ZM96.3233 116.614C102.256 118.064 109.68 118.4 115.2 118.4C120.454 118.4 127.434 118.096 133.213 116.819L118.736 145.769C118.515 146.211 118.4 146.704 118.4 147.2V161.449C115.837 163.085 111.466 165.798 108.8 166.355V147.2C108.8 146.777 108.717 146.358 108.554 145.968L96.3233 116.614ZM115.2 105.6C128.08 105.6 134.957 107.533 137.091 108.8C134.957 110.067 128.08 112 115.2 112C102.32 112 95.4433 110.067 93.3089 108.8C95.4433 107.533 102.32 105.6 115.2 105.6ZM105.6 172.8H108.8C108.938 172.8 109.075 172.79 109.21 172.774C113.127 172.265 118.109 169.238 122.47 166.441L123.312 165.904C124.237 165.315 124.8 164.294 124.8 163.2V147.955L142.589 112.384C143.466 111.363 144 110.189 144 108.8C144 100.448 125.955 99.1998 115.2 99.1998C104.445 99.1998 86.4001 100.448 86.4001 108.8C86.4001 109.971 86.7841 110.989 87.4241 111.894L102.4 147.84V169.6C102.4 171.366 103.83 172.8 105.6 172.8ZM198.4 169.6C201.93 169.6 204.8 172.47 204.8 176C204.8 179.529 201.93 182.4 198.4 182.4C194.87 182.4 192 179.529 192 176C192 172.47 194.87 169.6 198.4 169.6ZM198.4 73.5998C201.93 73.5998 204.8 76.4702 204.8 79.9998C204.8 83.5294 201.93 86.3998 198.4 86.3998C194.87 86.3998 192 83.5294 192 79.9998C192 76.4702 194.87 73.5998 198.4 73.5998ZM204.8 121.6C208.33 121.6 211.2 124.47 211.2 128C211.2 131.529 208.33 134.4 204.8 134.4C201.271 134.4 198.4 131.529 198.4 128C198.4 124.47 201.271 121.6 204.8 121.6ZM172.8 131.2H192.458C193.885 136.704 198.855 140.8 204.8 140.8C211.859 140.8 217.6 135.059 217.6 128C217.6 120.941 211.859 115.2 204.8 115.2C198.855 115.2 193.885 119.296 192.458 124.8H172.8V83.1998H186.058C187.485 88.7038 192.454 92.7998 198.4 92.7998C205.459 92.7998 211.2 87.059 211.2 79.9998C211.2 72.9406 205.459 67.1998 198.4 67.1998C192.454 67.1998 187.485 71.2958 186.058 76.7998H169.6C167.83 76.7998 166.4 78.2334 166.4 79.9998V124.8H144V131.2H166.4V176C166.4 177.766 167.83 179.2 169.6 179.2H186.058C187.485 184.704 192.454 188.8 198.4 188.8C205.459 188.8 211.2 183.059 211.2 176C211.2 168.941 205.459 163.2 198.4 163.2C192.454 163.2 187.485 167.296 186.058 172.8H172.8V131.2Z" fill="white"/>
</g>
<defs>
<linearGradient id="paint0_linear_1_940" x1="0" y1="25600" x2="25600" y2="0" gradientUnits="userSpaceOnUse">
<stop stop-color="#B0084D"/>
<stop offset="1" stop-color="#FF4F8B"/>
</linearGradient>
<clipPath id="clip0_1_940">
<rect width="256" height="256" fill="white"/>
</clipPath>
</defs>
</svg>
