<svg width="256" height="256" viewBox="0 0 256 256" fill="none" xmlns="http://www.w3.org/2000/svg">
<g clip-path="url(#clip0_1_944)">
<path d="M256 0H0V256H256V0Z" fill="url(#paint0_linear_1_944)"/>
<path d="M91.8944 139.8L101.501 130.31C102.103 129.715 102.442 128.907 102.445 128.064C102.448 127.22 102.112 126.409 101.513 125.811L91.9072 116.212L87.3667 120.698L91.4877 124.818H76.8287V131.181H91.539L87.3795 135.289L91.8944 139.8ZM165.209 140.09L178.017 130.539C178.817 129.938 179.295 128.996 179.295 127.997C179.295 126.995 178.817 126.05 178.014 125.448L165.206 115.91L161.363 121L166.486 124.818H153.678V131.181H166.483L161.36 134.999L165.209 140.09ZM112.666 128C112.666 134.754 111.497 141.124 109.314 146.666C115.074 144.452 121.571 143.345 128.062 143.345C134.552 143.345 141.049 144.452 146.806 146.666C144.626 141.124 143.457 134.754 143.457 128C143.457 121.245 144.626 114.879 146.806 109.333C135.289 113.759 120.835 113.759 109.314 109.333C111.497 114.879 112.666 121.245 112.666 128ZM96.9792 158.884C96.3548 158.263 96.041 157.449 96.041 156.634C96.041 155.82 96.3548 155.005 96.9792 154.385C102.791 148.61 106.262 138.744 106.262 128C106.262 117.256 102.791 107.389 96.9792 101.615C96.3548 100.994 96.041 100.18 96.041 99.3655C96.041 98.551 96.3548 97.7365 96.9792 97.1161C98.2313 95.8721 100.255 95.8721 101.507 97.1161C113.915 109.445 142.208 109.445 154.616 97.1161C155.868 95.8721 157.892 95.8721 159.144 97.1161C159.768 97.7365 160.082 98.551 160.082 99.3655C160.082 100.18 159.768 100.994 159.144 101.615C153.332 107.389 149.861 117.256 149.861 128C149.861 138.744 153.332 148.61 159.144 154.385C159.768 155.005 160.082 155.82 160.082 156.634C160.082 157.449 159.768 158.263 159.144 158.884C158.52 159.504 157.7 159.816 156.88 159.816C156.06 159.816 155.241 159.504 154.616 158.884C142.208 146.555 113.915 146.555 101.507 158.884C100.255 160.128 98.2313 160.128 96.9792 158.884ZM211.203 128.016C211.203 125.051 210.041 122.263 207.931 120.167C205.753 118 202.891 116.922 200.031 116.922C197.172 116.922 194.309 118 192.132 120.167C187.774 124.494 187.774 131.535 192.132 135.865C196.486 140.192 203.569 140.195 207.931 135.865C210.041 133.768 211.203 130.981 211.203 128.016ZM212.458 140.364C209.032 143.768 204.533 145.47 200.031 145.47C195.529 145.47 191.03 143.768 187.604 140.364C180.748 133.555 180.748 122.477 187.604 115.668C194.46 108.853 205.609 108.859 212.458 115.668C219.314 122.477 219.314 133.555 212.458 140.364ZM67.1361 128.089C67.1361 125.124 65.9737 122.337 63.8636 120.24C61.7534 118.143 58.9484 116.988 55.9641 116.988C52.983 116.988 50.178 118.143 48.0646 120.24C45.9544 122.337 44.7953 125.124 44.7953 128.089C44.7953 131.051 45.9544 133.838 48.0646 135.938C52.2881 140.128 59.6432 140.128 63.8636 135.938C65.9737 133.838 67.1361 131.051 67.1361 128.089ZM68.3913 140.437C64.9651 143.841 60.4662 145.543 55.9641 145.543C51.4652 145.543 46.9663 143.841 43.5369 140.437C36.6877 133.628 36.6877 122.55 43.5369 115.741C50.3925 108.933 61.5389 108.933 68.3913 115.741C75.2437 122.55 75.2437 133.628 68.3913 140.437ZM175.667 175.539C162.884 188.244 145.884 195.237 127.805 195.237C109.72 195.237 92.7237 188.244 79.9411 175.539C71.1739 166.831 66.3484 156.424 63.8443 149.231L57.7925 151.312C60.5174 159.138 65.7848 170.474 75.4134 180.038C89.4064 193.945 108.01 201.6 127.805 201.6C147.597 201.6 166.201 193.945 180.194 180.038C188.28 172.011 194.719 161.804 198.334 151.302L192.276 149.24C188.971 158.842 183.073 168.184 175.667 175.539ZM63.8411 106.772L57.7957 104.685C61.6702 93.6004 67.9334 83.3938 75.4326 75.9457C89.4192 62.0517 108.017 54.3999 127.805 54.3999C147.594 54.3999 166.192 62.0517 180.175 75.9457C188.068 83.7884 194.687 94.2622 198.328 104.685L192.282 106.772C188.942 97.2274 182.881 87.6317 175.647 80.4445C162.874 67.7499 145.881 60.7631 127.805 60.7631C109.727 60.7631 92.7365 67.7499 79.9603 80.4445C73.1335 87.2309 67.4082 96.5816 63.8411 106.772Z" fill="white"/>
</g>
<defs>
<linearGradient id="paint0_linear_1_944" x1="0" y1="25600" x2="25600" y2="0" gradientUnits="userSpaceOnUse">
<stop stop-color="#B0084D"/>
<stop offset="1" stop-color="#FF4F8B"/>
</linearGradient>
<clipPath id="clip0_1_944">
<rect width="256" height="256" fill="white"/>
</clipPath>
</defs>
</svg>
