<svg width="256" height="256" viewBox="0 0 256 256" fill="none" xmlns="http://www.w3.org/2000/svg">
<g clip-path="url(#clip0_1_865)">
<path d="M256 0H0V256H256V0Z" fill="url(#paint0_linear_1_865)"/>
<path d="M217.677 92.8642L207.37 95.2834L215.437 104.333C214.835 105.53 214.029 106.499 213.018 107.245C212 107.994 210.867 108.455 209.61 108.634L203.341 97.7922L197.069 108.634C195.814 108.455 194.678 107.994 193.661 107.245C192.646 106.499 191.84 105.53 191.242 104.333L199.309 95.2834L189.005 92.8642C188.883 92.2658 188.822 91.789 188.822 91.4306C188.822 89.3986 189.6 87.6066 191.155 86.0546L200.829 90.8034L199.578 79.245C200.771 78.7074 202.022 78.4386 203.341 78.4386C204.714 78.4386 205.968 78.7074 207.101 79.245L205.85 90.8034L215.523 86.0546C217.078 87.6066 217.856 89.3986 217.856 91.4306C217.856 91.789 217.795 92.2658 217.677 92.8642ZM169.376 167.29C174.186 167.29 179.523 166.33 185.382 164.403V170.57C179.962 173.018 174.496 174.243 168.982 174.243C158.835 174.243 151.142 171.335 145.891 165.52C140.646 159.703 138.019 151.152 138.019 139.869C138.019 128.672 140.688 120.125 146.022 114.218C151.357 108.317 159.098 105.363 169.245 105.363C174.669 105.363 179.786 106.413 184.595 108.512V114.679C179.786 113.104 174.8 112.317 169.638 112.317C161.331 112.317 155.318 114.439 151.603 118.679C147.882 122.925 146.022 129.725 146.022 139.082V140.656C146.022 149.754 147.904 156.464 151.667 160.797C155.427 165.127 161.331 167.29 169.376 167.29ZM99.2 41.6002C133.654 41.6002 156.8 51.5298 156.8 60.8002C156.8 70.0706 133.654 80.0002 99.2 80.0002C65.1456 80.0002 44.8 70.237 44.8 60.8002C44.8 51.3634 65.1456 41.6002 99.2 41.6002ZM156.8 198.4C156.8 207.671 133.654 217.6 99.2 217.6C72.4576 217.6 44.8 210.419 44.8 198.4V166.026C54.3136 174.208 73.84 179.2 99.2 179.2C112.294 179.2 124.739 177.808 135.181 175.181L133.616 168.973C123.68 171.475 111.776 172.8 99.2 172.8C72.4576 172.8 44.8 165.664 44.8 153.719V120.96C54.4032 129.229 74.1376 134.4 99.2 134.4C112.282 134.4 124.726 132.995 135.187 130.336L133.61 124.135C123.658 126.666 111.757 128 99.2 128C65.1456 128 44.8 118.237 44.8 108.8V72.9602C54.4032 81.229 74.1376 86.4002 99.2 86.4002C122.426 86.4002 145.85 81.7026 156.8 72.6274V83.2002H163.2V60.8002C163.2 43.9938 131.002 35.2002 99.2 35.2002C63.4016 35.2002 38.4 45.7282 38.4 60.8002V198.4C38.4 213.712 62.832 224 99.2 224C131.002 224 163.2 215.207 163.2 198.4V192H156.8V198.4Z" fill="white"/>
</g>
<defs>
<linearGradient id="paint0_linear_1_865" x1="0" y1="25600" x2="25600" y2="0" gradientUnits="userSpaceOnUse">
<stop stop-color="#2E27AD"/>
<stop offset="1" stop-color="#527FFF"/>
</linearGradient>
<clipPath id="clip0_1_865">
<rect width="256" height="256" fill="white"/>
</clipPath>
</defs>
</svg>
