<svg width="256" height="318" viewBox="0 0 256 318" fill="none" xmlns="http://www.w3.org/2000/svg">
<g clip-path="url(#clip0_1_983)">
<path d="M0 0V171.945L127.984 244.901V195.309L42.3643 146.502V69.8414L127.984 118.648V72.9559L0 0Z" fill="#002A41"/>
<path d="M255.967 0V171.945L127.984 244.901V195.309L213.603 146.502V69.8414L127.984 118.648V72.9559L255.967 0Z" fill="#0071B5"/>
<path d="M0 317.933V145.988L127.984 73.0322V122.624L42.3643 171.43V244.192L127.984 195.385V244.977L0 317.933Z" fill="#0071B5"/>
<path d="M255.967 317.933V145.988L127.984 73.0322V122.624L213.603 171.43V244.192L127.984 195.385V244.977L255.967 317.933Z" fill="#002A41"/>
</g>
<defs>
<clipPath id="clip0_1_983">
<rect width="256" height="318" fill="white"/>
</clipPath>
</defs>
</svg>
