<svg width="512" height="92" viewBox="0 0 512 92" fill="none" xmlns="http://www.w3.org/2000/svg">
<g clip-path="url(#clip0_1_989)">
<path d="M103.961 22.4258H117.323C123.344 22.4258 127.765 23.4478 130.586 25.4916C133.408 27.5355 134.818 30.6234 134.818 34.7555C134.818 37.5769 133.957 39.9262 132.236 41.8034C130.514 43.6806 127.998 44.8858 124.688 45.419V45.6189C128.576 46.1965 131.436 47.424 133.269 49.3011C135.101 51.1784 136.018 53.7943 136.018 57.1488C136.018 61.6364 134.529 65.0909 131.553 67.5124C128.576 69.9339 124.355 71.1447 118.89 71.1447H103.961V22.4258ZM107.36 44.1193H118.09C122.666 44.1194 125.993 43.3585 128.07 41.8367C130.147 40.315 131.186 37.9323 131.186 34.6889C131.186 31.4454 130.014 29.0905 127.67 27.6243C125.327 26.1581 121.833 25.425 117.19 25.4249H107.36V44.1193ZM107.36 47.1185V68.1455H118.823C127.843 68.1456 132.352 64.48 132.352 57.1488C132.352 50.4619 127.598 47.1185 118.09 47.1185H107.36Z" fill="#002A41"/>
<path d="M170.208 53.9495H150.414L143.616 71.1444H139.85L159.444 22.2256H161.61L180.805 71.1444H176.972L170.208 53.9495ZM151.647 50.8838H169.075L162.443 33.3223C161.888 31.945 161.221 30.0344 160.444 27.5906C159.844 29.7234 159.189 31.6561 158.478 33.3889L151.647 50.8838Z" fill="#002A41"/>
<path d="M208.463 24.7918C202.354 24.7919 197.544 26.7468 194.034 30.6568C190.524 34.5667 188.769 39.9207 188.769 46.7186C188.769 53.6721 190.424 59.0705 193.734 62.9138C197.044 66.7571 201.776 68.6788 207.93 68.6788C212.017 68.6788 215.772 68.1567 219.193 67.1126V70.1117C215.972 71.2447 211.951 71.8112 207.13 71.8112C200.288 71.8112 194.9 69.6007 190.968 65.1798C187.036 60.7589 185.07 54.583 185.07 46.652C185.07 41.698 186.009 37.3326 187.886 33.5559C189.763 29.7793 192.462 26.8635 195.983 24.8085C199.505 22.7536 203.598 21.7261 208.263 21.7261C213.017 21.7261 217.271 22.6147 221.026 24.3919L219.66 27.4577C216.105 25.6805 212.373 24.7919 208.463 24.7918Z" fill="#002A41"/>
<path d="M262.814 71.1447H258.648L239.954 45.419L233.456 51.1506V71.1447H230.057V22.4258H233.456V47.7516L238.854 42.3532L257.948 22.4258H262.28L242.32 43.0197L262.814 71.1447Z" fill="#002A41"/>
<path d="M269.778 22.4258H283.141C289.161 22.4258 293.582 23.4478 296.404 25.4916C299.225 27.5355 300.636 30.6234 300.636 34.7555C300.636 37.5769 299.775 39.9262 298.053 41.8034C296.331 43.6806 293.815 44.8858 290.505 45.419V45.6189C294.393 46.1965 297.253 47.424 299.086 49.3011C300.919 51.1784 301.835 53.7943 301.835 57.1488C301.835 61.6364 300.347 65.0909 297.37 67.5124C294.393 69.9339 290.172 71.1447 284.707 71.1447H269.778V22.4258ZM273.177 44.1193H283.907C288.484 44.1194 291.81 43.3585 293.888 41.8367C295.965 40.315 297.003 37.9323 297.003 34.6889C297.003 31.4454 295.831 29.0905 293.488 27.6243C291.144 26.1581 287.651 25.425 283.008 25.4249H273.177V44.1193ZM273.177 47.1185V68.1455H284.64C293.66 68.1456 298.17 64.48 298.17 57.1488C298.17 50.4619 293.416 47.1185 283.907 47.1185H273.177Z" fill="#002A41"/>
<path d="M353.52 46.7184C353.52 54.4494 351.587 60.5643 347.722 65.063C343.856 69.5616 338.524 71.8109 331.726 71.8109C324.951 71.8109 319.63 69.5616 315.764 65.063C311.899 60.5643 309.966 54.4272 309.966 46.6518C309.966 38.8986 311.916 32.7948 315.814 28.3405C319.713 23.8863 325.039 21.6592 331.793 21.6592C338.591 21.6592 343.912 23.8975 347.755 28.3739C351.598 32.8503 353.52 38.9652 353.52 46.7184ZM313.665 46.7184C313.665 53.6941 315.22 59.087 318.33 62.8969C321.441 66.7069 325.906 68.6119 331.726 68.6119C337.591 68.6119 342.073 66.7236 345.172 62.9469C348.271 59.1703 349.821 53.7608 349.821 46.7184C349.821 39.6983 348.271 34.3166 345.172 30.5732C342.073 26.8299 337.613 24.9582 331.793 24.9582C325.995 24.9582 321.524 26.8466 318.38 30.6232C315.237 34.3999 313.665 39.7649 313.665 46.7184Z" fill="#002A41"/>
<path d="M400.106 71.1447H396.674L367.816 27.8909H367.549C367.816 33.0449 367.949 36.9326 367.949 39.5541V71.1447H364.683V22.4258H368.082L396.907 65.613H397.107C396.907 61.6142 396.807 57.8153 396.807 54.2164V22.4258H400.106V71.1447Z" fill="#002A41"/>
<path d="M440.494 71.1447H413.869V22.4258H440.494V25.5582H417.268V43.9861H439.194V47.1185H417.268V68.0123H440.494V71.1447Z" fill="#002A41"/>
<path d="M450.091 68.5454C450.091 66.3684 450.98 65.2798 452.757 65.2798C454.579 65.2798 455.49 66.3684 455.49 68.5454C455.49 70.7226 454.579 71.8112 452.757 71.8112C450.98 71.8112 450.091 70.7226 450.091 68.5454Z" fill="#002A41"/>
<path d="M459.855 83.441C457.811 83.441 456.134 83.1411 454.823 82.5413V79.6088C456.556 80.0531 458.211 80.2753 459.788 80.2753C465.164 80.2753 467.853 77.3428 467.853 71.4779V22.4258H471.252V71.1447C471.252 79.3422 467.453 83.441 459.855 83.441Z" fill="#002A41"/>
<path d="M511.673 58.5818C511.673 62.6473 510.179 65.8685 507.191 68.2456C504.203 70.6227 500.232 71.8112 495.278 71.8112C489.324 71.8112 484.759 71.1558 481.582 69.8451V66.4461C485.092 67.9346 489.568 68.6788 495.011 68.6788C499.01 68.6788 502.181 67.7624 504.525 65.9296C506.869 64.0968 508.041 61.692 508.041 58.7151C508.041 56.8712 507.652 55.3438 506.874 54.1331C506.097 52.9224 504.83 51.8171 503.075 50.8174C501.32 49.8177 498.743 48.7403 495.344 47.585C490.368 45.8745 486.93 44.025 485.031 42.0367C483.131 40.0485 482.182 37.3992 482.182 34.089C482.182 30.4457 483.609 27.4744 486.464 25.1751C489.318 22.8758 492.989 21.7261 497.477 21.7261C502.053 21.7261 506.352 22.5925 510.373 24.3253L509.14 27.2577C505.097 25.5694 501.231 24.7252 497.544 24.7252C493.945 24.7252 491.079 25.5583 488.946 27.2244C486.814 28.8907 485.747 31.1566 485.747 34.0224C485.747 35.8219 486.075 37.2992 486.73 38.4544C487.386 39.6097 488.457 40.6483 489.946 41.5702C491.434 42.4922 493.989 43.5974 497.61 44.8859C501.409 46.1966 504.264 47.4684 506.174 48.7014C508.085 49.9344 509.479 51.3339 510.357 52.9001C511.234 54.4663 511.673 56.3602 511.673 58.5818Z" fill="#002A41"/>
<path d="M0.292236 0.535156V49.8503L36.999 70.7747V56.5514L12.4427 42.5533V20.5663L36.999 34.5644V21.4595L0.292236 0.535156Z" fill="#002A41"/>
<path d="M73.7058 0.535156V49.8503L36.999 70.7747V56.5514L61.5553 42.5533V20.5663L36.999 34.5644V21.4595L73.7058 0.535156Z" fill="#0071B5"/>
<path d="M0.292236 91.721V42.4058L36.999 21.4814V35.7048L12.4427 49.7029V70.5714L36.999 56.5733V70.7966L0.292236 91.721Z" fill="#0071B5"/>
<path d="M73.7058 91.721V42.4058L36.999 21.4814V35.7048L61.5553 49.7029V70.5714L36.999 56.5733V70.7966L73.7058 91.721Z" fill="#002A41"/>
</g>
<defs>
<clipPath id="clip0_1_989">
<rect width="512" height="92" fill="white"/>
</clipPath>
</defs>
</svg>
