<svg width="256" height="282" viewBox="0 0 256 282" fill="none" xmlns="http://www.w3.org/2000/svg">
<g clip-path="url(#clip0_1_1019)">
<path d="M133.942 168.588V250.817C137.427 250.202 140.783 248.999 143.865 247.26L211.907 208.14C221.878 202.389 228.028 191.759 228.042 180.249V102.23C228.042 99.0634 227.517 95.9914 226.607 93.0474L152.657 135.712C137.452 146.464 134.164 156.643 133.949 168.588" fill="#FFC600"/>
<path d="M253.595 77.4717L226.607 93.0473C227.517 95.9845 228.035 99.0633 228.035 102.216V180.256C228.035 191.729 221.858 202.42 211.907 208.146L143.865 247.26C140.785 249 137.432 250.205 133.949 250.824V281.881C138.76 281.189 143.399 279.601 147.624 277.199L235.985 226.39C248.309 219.274 255.91 206.134 255.933 191.904V90.5681C255.916 86.1004 255.125 81.6693 253.595 77.4717Z" fill="#F6EB61"/>
<path d="M127.744 142.745C131.766 136.177 137.762 130.511 146.378 125.088L220.82 82.1336C218.37 78.9925 215.345 76.3452 211.907 74.3323L143.865 35.2182C133.918 29.5188 121.693 29.5239 111.751 35.2317L43.9916 74.3256C40.4211 76.3803 37.4299 79.1492 34.9642 82.302L109.056 125.054C117.72 130.511 123.722 136.177 127.744 142.745Z" fill="#439879"/>
<path d="M43.9915 74.3258L111.751 35.2319C121.692 29.522 133.917 29.5144 143.865 35.2117L211.907 74.3392C215.41 76.3536 218.375 79.055 220.813 82.1338L247.761 66.5919C244.592 62.3207 240.582 58.744 235.978 56.0824L147.618 5.27313C135.316 -1.76732 120.203 -1.75706 107.911 5.30008L19.9073 56.0689C15.2612 58.7862 11.2195 62.4245 8.03027 66.7603L34.9574 82.2954C37.4259 79.0811 40.491 76.3729 43.9848 74.319" fill="#28CDFB"/>
<path d="M111.751 247.24L43.9916 208.146C34.0418 202.392 27.9075 191.777 27.8905 180.283V102.196C27.8905 99.124 28.3958 96.1329 29.2446 93.263L2.24337 77.6807C0.777411 81.8062 0.018949 86.1497 0 90.5278V191.951C0.0212057 206.162 7.60553 219.288 19.9074 226.403L107.904 277.179C112.081 279.577 116.662 281.12 121.539 281.868V250.791C118.101 250.164 114.792 248.964 111.751 247.24Z" fill="#FDD757"/>
<path d="M102.717 135.631L29.2446 93.2563C28.3957 96.1262 27.8972 99.1174 27.8972 102.189V180.276C27.8972 191.742 34.0682 202.42 43.9983 208.14L111.744 247.24C114.823 249.005 118.137 250.137 121.533 250.777V168.567C121.317 156.643 118.036 146.464 102.71 135.631" fill="#EC8B00"/>
</g>
<defs>
<clipPath id="clip0_1_1019">
<rect width="256" height="282" fill="white"/>
</clipPath>
</defs>
</svg>
