<svg width="256" height="223" viewBox="0 0 256 223" fill="none" xmlns="http://www.w3.org/2000/svg">
<g clip-path="url(#clip0_1_1033)">
<path d="M134.92 0C180.555 0 216.234 34.8651 236.86 83.6045L238.779 88.2877C242.524 97.7351 245.718 107.662 248.324 117.923L249.579 123.08C252.792 136.904 254.95 151.28 255.971 165.862C256.136 168.215 255.595 170.564 254.417 172.607C235.247 205.885 192.597 221.954 138.204 222.536L135.113 222.553C93.4479 223.231 53.5585 205.709 25.8723 174.566C22.9617 171.292 22.0939 166.68 23.6157 162.572L25.3489 158.137L26.8011 154.611C27.0584 153.998 27.3233 153.373 27.5955 152.737C30.7119 145.456 34.167 138.168 37.8922 131.309C47.8745 112.931 57.7524 100.747 69.5273 96.7161C72.007 95.8671 74.5518 95.4082 77.2125 95.3904C87.7174 95.3904 94.5034 100.102 105.385 111.423L111.612 117.966L113.764 120.108L115.115 121.311L116.147 122.158L116.57 121.724C118.053 120.144 119.785 117.966 121.685 115.282L122.649 113.898C124.916 110.591 127.332 106.718 129.842 102.399C133.11 96.7779 136.362 90.7152 139.434 84.6475L141.679 80.1441L143.375 76.6276C146.154 70.6996 153.212 68.1466 159.14 70.9254C164.739 73.5497 167.327 79.9913 165.256 85.6928L164.691 87.0114L162.216 92.1025L160.586 95.3567C157.322 101.804 153.862 108.256 150.339 114.315C147.552 119.108 144.834 123.467 142.203 127.304C133.403 140.14 126.532 146.91 117.051 146.91C109.918 146.91 106.054 145.385 99.3914 139.182L97.3024 137.178L95.009 134.874L91.1059 130.815L88.5234 128.097L86.4226 125.957C86.0919 125.628 85.7708 125.312 85.459 125.009L83.6993 123.347C83.1491 122.844 82.6346 122.39 82.1542 121.984L80.8136 120.903C79.365 119.802 78.313 119.246 77.5852 119.125L77.3278 119.101L77.2064 119.147C74.3864 120.112 70.1638 124.521 65.4828 131.425L63.5882 134.318C62.6309 135.828 61.6604 137.433 60.6841 139.126L58.726 142.625C56.0559 147.541 53.5059 152.777 51.1351 158.08L48.5467 164.055L49.4058 164.907C71.429 186.414 101.002 198.635 132.089 198.859L134.92 198.846C180.341 198.846 214.949 187.246 230.911 165.33L232.02 163.742L231.895 162.248C230.274 144.513 226.777 127.281 221.686 111.338L220.111 106.594C203.888 59.5627 173.568 24.8484 136.744 23.7361L134.92 23.7086C83.7254 23.7086 49.3066 58.4476 26.2973 118.193L24.1061 124.052C23.7467 125.042 23.3903 126.037 23.0368 127.04C20.8592 133.214 14.0887 136.454 7.91454 134.276C1.74038 132.098 -1.49944 125.328 0.678203 119.154L1.75347 116.147L3.959 110.228C30.1207 41.927 71.4191 0 134.92 0Z" fill="#1D2D35"/>
</g>
<defs>
<clipPath id="clip0_1_1033">
<rect width="256" height="223" fill="white"/>
</clipPath>
</defs>
</svg>
