<svg width="512" height="113" viewBox="0 0 512 113" fill="none" xmlns="http://www.w3.org/2000/svg">
<g clip-path="url(#clip0_1_1036)">
<path d="M150.211 31.0532H171.698C183.599 31.0532 189.778 35.9332 189.778 45.0964V45.5528C190.129 51.1023 186.367 56.0733 180.931 57.2438C187.486 57.8208 192.356 63.5672 191.85 70.1285V70.4445C191.85 80.4503 185.284 85.7165 172.681 85.7165H150.211V31.0532ZM169.696 53.4873C175.665 53.4873 178.017 51.3457 178.017 46.4657V46.1497C178.017 41.5856 175.419 39.5143 169.626 39.5143H162.289V53.5575L169.696 53.4873ZM170.75 77.115C176.858 77.115 179.632 74.3415 179.632 69.3912V69.0752C179.632 64.0197 176.858 61.4568 170.153 61.4568H162.289V77.1501L170.75 77.115ZM195.08 74.5872C195.08 65.2485 203.611 61.7377 215.863 61.7377H220.357V60.1578C220.357 55.4182 218.918 52.8202 213.862 52.8202C212.208 52.6238 210.547 53.1194 209.27 54.1896C207.994 55.2598 207.217 56.8097 207.122 58.4726H196.589C197.291 48.9934 204.769 44.7805 214.564 44.7805C224.36 44.7805 231.276 48.7477 231.276 59.5961V85.6463H220.498V80.8364C217.746 84.7134 213.16 86.8597 208.421 86.4888C201.188 86.4888 195.08 82.978 195.08 74.5872ZM220.357 71.6732V68.1624H216.074C209.649 68.1624 205.928 69.5668 205.928 73.8148C205.928 76.7288 207.683 78.6246 211.721 78.6246C216.601 78.7651 220.357 76.0969 220.357 71.6732ZM235.945 73.1127H246.267C246.723 76.6235 248.479 78.7651 253.289 78.7651C257.572 78.7651 259.573 77.1852 259.573 74.4117C259.573 71.6381 257.186 70.5147 251.463 69.7072C240.931 68.0922 236.718 65.0378 236.718 57.2438C236.718 49.4498 244.371 44.7805 252.516 44.7805C261.399 44.7805 268.034 48.0104 269.017 57.1736H258.871C258.274 53.8735 256.413 52.3638 252.622 52.3638C248.83 52.3638 246.969 54.049 246.969 56.4715C246.969 58.8939 248.865 59.9823 254.658 60.8249C264.664 62.2643 270.176 64.7921 270.176 73.3584C270.176 81.9248 263.926 86.4888 253.359 86.4888C242.791 86.4888 236.332 81.7493 235.945 73.1127ZM273.019 66.1613V65.5644C272.75 60.0172 274.819 54.6111 278.723 50.6607C282.626 46.7103 288.008 44.5774 293.558 44.7805C303.879 44.7805 313.043 50.8191 313.043 65.108V68.1624H284.359C284.64 74.7979 288.256 78.6949 294.26 78.6949C299.386 78.6949 301.913 76.4831 302.616 73.1127H313.148C311.849 81.7493 304.968 86.5591 294.049 86.5591C281.796 86.4888 273.019 78.9406 273.019 66.1613ZM302.264 61.3515C301.913 55.3129 298.824 52.5745 293.558 52.5745C288.63 52.5512 284.567 56.4286 284.359 61.3515H302.264ZM315.957 66.1613V65.5644C315.686 60.0045 317.764 54.5867 321.684 50.634C325.603 46.6812 331.003 44.5571 336.565 44.7805C345.834 44.7805 354.365 48.8179 355.383 60.2982H344.85C344.709 58.3074 343.766 56.4589 342.238 55.1753C340.709 53.8917 338.726 53.2827 336.741 53.4873C331.018 53.4873 327.191 57.7705 327.191 65.424V66.0209C327.191 74.0606 330.702 78.1682 336.986 78.1682C339.146 78.2924 341.265 77.5447 342.869 76.0927C344.473 74.6408 345.427 72.606 345.518 70.4445H355.523C354.927 79.9236 348.045 86.4888 336.425 86.4888C324.804 86.4888 315.957 79.2215 315.957 66.1613ZM358.086 74.5872C358.086 65.2485 366.618 61.7377 378.835 61.7377H383.364V60.1578C383.364 55.4182 381.889 52.8202 376.869 52.8202C375.204 52.6028 373.523 53.0887 372.231 54.1612C370.939 55.2337 370.151 56.7958 370.058 58.4726H359.526C360.228 48.9934 367.706 44.7805 377.466 44.7805C387.226 44.7805 394.212 48.7477 394.212 59.5961V85.6463H383.434V80.8364C380.683 84.7134 376.097 86.8597 371.357 86.4888C364.335 86.4888 358.086 82.978 358.086 74.5872ZM383.364 71.6732V68.1624H379.151C372.726 68.1624 368.97 69.5668 368.97 73.8148C368.97 76.7288 370.76 78.6246 374.798 78.6246C379.748 78.7651 383.504 76.0969 383.504 71.6732H383.364ZM402.006 45.5528H413.065V51.6617C415.523 47.2385 420.224 44.5366 425.283 44.64C430.149 44.2508 434.691 47.1076 436.447 51.6617C439.444 47.1867 444.509 44.5415 449.894 44.64C457.302 44.64 463.024 49.3094 463.024 59.912V85.5058H452.035V61.2813C452.035 56.1555 449.753 53.8735 445.751 53.8735C443.597 53.7797 441.508 54.6295 440.031 56.2008C438.554 57.7722 437.836 59.9091 438.062 62.0536V85.6463H427.038V61.2813C427.038 56.1555 424.686 53.8735 420.789 53.8735C418.629 53.7691 416.531 54.6143 415.046 56.187C413.561 57.7596 412.837 59.9027 413.065 62.0536V85.6463H402.006V45.5528ZM470.608 45.5528H481.702V51.8372C484.391 47.366 489.229 44.6339 494.446 44.64C504.241 44.64 512 51.9074 512 65.108V65.74C512 78.9406 504.522 86.3484 494.446 86.3484C489.222 86.5627 484.311 83.8572 481.702 79.3268V99.2682H470.608V45.5528ZM500.625 65.8102V65.1783C500.625 57.1034 496.658 53.1362 491.076 53.1362C485.493 53.1362 481.316 57.1736 481.316 65.1783V65.8102C481.316 73.8148 485.142 77.7118 491.181 77.7118C497.219 77.7118 500.625 73.6393 500.625 65.9506V65.8102Z" fill="#1D2D35"/>
<path d="M68.1288 0C91.1729 0 109.189 17.6054 119.604 42.2169L120.573 44.5817C122.465 49.3522 124.077 54.3648 125.394 59.5461L126.027 62.1505C127.649 69.1311 128.739 76.39 129.255 83.7536C129.338 84.9417 129.065 86.1276 128.47 87.1596C118.79 103.963 97.2537 112.078 69.7873 112.372L68.2263 112.38C47.1874 112.723 27.0448 103.875 13.0644 88.1487C11.5947 86.4955 11.1565 84.1665 11.925 82.0921L12.8002 79.8529L13.5334 78.0722C13.6634 77.7627 13.7971 77.4471 13.9346 77.1259C15.5083 73.4493 17.2529 69.7691 19.134 66.3058C24.1747 57.0253 29.1626 50.8732 35.1084 48.8376C36.3606 48.409 37.6456 48.1772 38.9891 48.1683C44.2937 48.1683 47.7204 50.5475 53.215 56.2641L56.3596 59.5682L57.446 60.6497L58.1284 61.2569L58.6496 61.6849L58.8631 61.4657C59.6121 60.668 60.4864 59.5681 61.446 58.2125L61.9327 57.5136C63.0772 55.8441 64.2973 53.888 65.5651 51.7073C67.2153 48.8689 68.8572 45.8075 70.4085 42.7435L71.542 40.4695L72.3986 38.6938C73.8018 35.7004 77.3659 34.4113 80.3593 35.8144C83.1864 37.1396 84.4933 40.3923 83.4478 43.2713L83.1622 43.9372L81.9127 46.508L81.0894 48.1512C79.4411 51.4067 77.6937 54.6648 75.9149 57.7245C74.5078 60.1448 73.135 62.3458 71.8068 64.2831C67.363 70.765 63.8933 74.1833 59.106 74.1833C55.5039 74.1833 53.5531 73.4133 50.1886 70.2812L49.1337 69.2692L47.9756 68.1058L46.0047 66.0563L44.7007 64.6835L43.6399 63.6031C43.4729 63.4369 43.3107 63.2774 43.1533 63.1245L42.2647 62.2852C41.9869 62.031 41.7271 61.802 41.4845 61.5968L40.8076 61.0513C40.0761 60.4951 39.5449 60.2146 39.1773 60.1531L39.0474 60.1411L38.9861 60.1641C37.5621 60.6516 35.4298 62.8778 33.0661 66.3642L32.1094 67.8248C31.6261 68.5876 31.136 69.3983 30.643 70.2529L29.6542 72.0198C28.3059 74.5023 27.0183 77.146 25.8211 79.8239L24.5141 82.841L24.9479 83.2715C36.0687 94.1315 51.0018 100.303 66.6997 100.416L68.1288 100.409C91.0648 100.409 108.54 94.5517 116.601 83.4848L117.161 82.683L117.098 81.9284C116.279 72.9734 114.513 64.2715 111.942 56.221L111.147 53.8257C102.955 30.0767 87.6447 12.5474 69.05 11.9857L68.1288 11.9718C42.2779 11.9718 24.8978 29.5137 13.2791 59.6824L12.1726 62.6412C11.9911 63.1408 11.8112 63.6437 11.6326 64.1499C10.533 67.2676 7.11421 68.9035 3.99652 67.8039C0.878819 66.7043 -0.757156 63.2855 0.342464 60.1678L0.885432 58.6493L1.99913 55.6607C15.2097 21.1714 36.0637 0 68.1288 0Z" fill="#1D2D35"/>
</g>
<defs>
<clipPath id="clip0_1_1036">
<rect width="512" height="113" fill="white"/>
</clipPath>
</defs>
</svg>
