<svg width="512" height="217" viewBox="0 0 512 217" fill="none" xmlns="http://www.w3.org/2000/svg">
<path d="M175.374 43.9898L107.371 3.61537C99.2884 -1.20512 89.2134 -1.20512 81.1309 3.61537L13.1139 43.9898C4.93238 48.9255 -0.0488664 57.8018 0.00036152 67.3566V148.092C-0.0440611 157.642 4.93656 166.512 13.1139 171.445L81.1173 211.806C89.2006 216.624 99.274 216.624 107.357 211.806L175.361 171.445C183.548 166.513 188.534 157.636 188.488 148.078V67.3566C188.537 57.8018 183.556 48.9255 175.374 43.9898Z" fill="white"/>
<path d="M175.374 43.9898L107.371 3.61537C99.2884 -1.20512 89.2134 -1.20512 81.1309 3.61537L13.1139 43.9898C4.93238 48.9255 -0.0488664 57.8018 0.00036152 67.3566V148.092C-0.0440611 157.642 4.93656 166.512 13.1139 171.445L81.1173 211.806C89.2006 216.624 99.274 216.624 107.357 211.806L175.361 171.445C183.548 166.513 188.534 157.636 188.488 148.078V67.3566C188.537 57.8018 183.556 48.9255 175.374 43.9898ZM83.5003 207.68L15.4969 167.319C8.77672 163.247 4.68357 155.95 4.71204 148.092V67.3566C4.68086 59.4983 8.77471 52.1996 15.4969 48.1294L83.5003 7.75494C90.1187 3.80651 98.3696 3.80651 104.988 7.75494L172.937 48.1294C178.538 51.5221 182.359 57.2115 183.381 63.68C181.121 58.8732 176.042 57.5524 170.118 60.9566L105.832 100.773C97.8118 105.443 91.902 110.713 91.8884 120.381V199.66C91.8884 205.447 94.2169 209.192 97.8118 210.295C96.6346 210.51 95.4409 210.624 94.2441 210.635C90.4625 210.632 86.7514 209.612 83.5003 207.68Z" fill="#2F3A3E"/>
<path d="M157.55 155.895L140.61 166.026C140.156 166.208 139.852 166.64 139.834 167.129V171.581C139.834 172.126 140.202 172.344 140.651 172.085L157.849 161.627C158.27 161.312 158.472 160.781 158.367 160.266V156.358C158.353 155.854 157.958 155.636 157.55 155.895Z" fill="#3AB14A"/>
<path d="M121.492 118.597C122.036 118.325 122.486 118.597 122.499 119.374L122.554 125.283C124.591 124.358 126.864 124.082 129.063 124.494C129.485 124.603 129.662 125.174 129.499 125.855L128.205 131.043C128.107 131.435 127.905 131.793 127.619 132.078C127.519 132.177 127.404 132.26 127.279 132.323C127.125 132.407 126.948 132.435 126.775 132.405C124.631 131.93 122.386 132.291 120.498 133.413C117.737 134.656 115.932 137.371 115.854 140.398C115.854 143.122 117.216 143.871 121.968 143.952C128.246 144.061 130.969 146.798 131.037 153.13C130.888 159.739 127.84 165.949 122.704 170.111L122.813 175.911C122.803 176.632 122.429 177.298 121.819 177.682L118.387 179.656C117.842 179.928 117.393 179.656 117.379 178.894V173.188C114.438 174.414 111.456 174.7 109.55 173.937C109.196 173.801 109.032 173.27 109.182 172.657L110.421 167.414C110.515 167 110.728 166.621 111.034 166.325C111.131 166.232 111.241 166.154 111.361 166.094C111.538 166.014 111.741 166.014 111.919 166.094C114.346 166.752 116.936 166.424 119.122 165.181C122.278 163.659 124.329 160.512 124.447 157.011C124.447 154.07 122.826 152.844 119 152.817C114.057 152.817 109.468 151.864 109.373 144.647C109.486 138.342 112.413 132.418 117.352 128.497L117.107 122.56C117.105 121.829 117.481 121.149 118.101 120.763L121.492 118.597Z" fill="white"/>
<path d="M390.646 61.3515C398.633 58.9392 407.171 59.0581 415.088 61.6919C419.032 63.0031 422.718 64.9889 425.982 67.5608C429.16 70.091 431.783 73.2474 433.689 76.834C435.67 80.6183 436.725 84.8184 436.767 89.0894C436.782 89.9769 436.427 90.8307 435.786 91.4451C435.127 92.0769 434.248 92.4284 433.335 92.4255H421.393C419.699 92.46 418.24 91.2391 417.975 89.566C417.722 87.5177 417.157 85.5202 416.3 83.6425C415.555 82.0315 414.505 80.5797 413.209 79.3668C411.89 78.1713 410.35 77.2461 408.675 76.6434C404.88 75.3864 400.795 75.301 396.951 76.3983C395.315 76.8419 393.771 77.5702 392.389 78.5498C391.149 79.4338 390.121 80.5827 389.379 81.9132C388.628 83.3135 388.257 84.8864 388.304 86.4749C388.265 88.0714 388.743 89.6378 389.665 90.9413C390.749 92.3642 392.099 93.5622 393.642 94.4681C395.474 95.578 397.418 96.4909 399.442 97.1915C401.689 97.954 403.841 98.6485 405.856 99.234C408.225 99.9421 410.608 100.746 412.951 101.617C415.369 102.519 417.729 103.57 420.018 104.763C422.279 105.943 424.438 107.31 426.472 108.848C428.513 110.392 430.344 112.195 431.919 114.213C433.527 116.229 434.809 118.485 435.718 120.899C436.645 123.522 437.106 126.287 437.08 129.069C437.163 133.261 436.048 137.39 433.866 140.97C431.801 144.266 429.058 147.083 425.819 149.236C422.478 151.435 418.797 153.069 414.925 154.07C411.053 155.113 407.061 155.644 403.051 155.649C398.643 155.65 394.261 154.994 390.047 153.702C385.92 152.461 382.031 150.537 378.54 148.01C375.137 145.537 372.273 142.396 370.125 138.778C367.888 134.947 366.673 130.604 366.598 126.169C366.575 125.278 366.926 124.419 367.565 123.799C368.225 123.159 369.11 122.802 370.03 122.805H381.917C383.607 122.77 385.064 123.983 385.335 125.651C385.6 127.784 386.26 129.848 387.282 131.738C388.214 133.415 389.468 134.891 390.973 136.082C392.535 137.309 394.313 138.232 396.215 138.805C400.348 139.987 404.717 140.072 408.893 139.05C410.591 138.654 412.208 137.968 413.672 137.021C414.974 136.169 416.075 135.045 416.899 133.726C417.705 132.364 418.102 130.8 418.043 129.219C418.116 127.469 417.64 125.741 416.682 124.276C415.62 122.756 414.252 121.476 412.665 120.517C410.8 119.366 408.813 118.425 406.741 117.712C404.381 116.886 402.111 116.142 399.933 115.479C396.569 114.499 393.192 113.219 389.761 111.775C386.267 110.326 382.962 108.461 379.916 106.22C376.898 104.001 374.324 101.234 372.331 98.063C370.231 94.6178 369.159 90.6448 369.24 86.6111C369.185 82.5258 370.239 78.5021 372.29 74.9685C374.254 71.6403 376.888 68.7562 380.025 66.4987C383.248 64.1945 386.84 62.454 390.646 61.3515ZM329.696 60.9152C331.165 60.8896 332.486 61.8052 332.978 63.1898L361.941 150.216C362.274 151.215 362.085 152.314 361.437 153.144C360.785 153.99 359.782 154.491 358.714 154.506H347.153C345.668 154.532 344.337 153.596 343.858 152.191L337.376 131.969H311.912L305.308 152.204C304.822 153.597 303.501 154.523 302.026 154.506H290.397C289.329 154.491 288.326 153.99 287.674 153.144C287.029 152.312 286.845 151.212 287.184 150.216L316.733 63.1762C317.231 61.8044 318.542 60.8977 320.001 60.9152H329.696ZM459.827 60.9162C461.597 60.9679 463.038 62.3931 463.088 64.1838V98.3353H493.74V64.1838C493.792 62.3314 495.333 60.87 497.185 60.9157L508.372 60.9162C510.142 60.9679 511.583 62.3931 511.633 64.1838V151.224C511.581 153.076 510.041 154.538 508.188 154.492L497.001 154.492C495.232 154.44 493.791 153.015 493.74 151.224V114.267H463.088V151.224C463.036 153.076 461.496 154.538 459.643 154.492L448.566 154.492C446.796 154.44 445.355 153.015 445.305 151.224V64.1838C445.357 62.3314 446.897 60.87 448.75 60.9157L459.827 60.9162ZM246.06 60.9021C250.086 60.9396 254.094 61.4469 258.002 62.4136C261.815 63.3338 265.44 64.9046 268.719 67.057C271.918 69.1765 274.58 72.0109 276.494 75.3362C278.521 79.0255 279.514 83.1939 279.368 87.4009C279.35 92.2837 277.592 97.0004 274.411 100.705C272.974 102.375 271.316 103.841 269.482 105.062L270.353 105.58C272.651 106.994 274.702 108.774 276.426 110.849C278.152 112.918 279.511 115.267 280.443 117.794C281.381 120.462 281.842 123.273 281.805 126.1C281.921 130.36 280.946 134.579 278.973 138.356C277.1 141.842 274.483 144.874 271.306 147.234C268.047 149.627 264.399 151.438 260.522 152.586C256.511 153.802 252.348 154.439 248.157 154.478L218.642 154.478C216.873 154.426 215.431 153.001 215.381 151.21V64.1702C215.433 62.3178 216.974 60.8564 218.826 60.9021H246.06ZM248.974 113.791H233.996V138.574H248.457C250.416 138.545 252.359 138.214 254.217 137.593C255.932 137.029 257.539 136.177 258.969 135.074C260.263 134.063 261.318 132.78 262.06 131.316C262.838 129.738 263.226 127.996 263.191 126.237C263.266 124.436 262.925 122.642 262.196 120.994C261.526 119.549 260.545 118.271 259.323 117.249C258.002 116.159 256.487 115.327 254.857 114.798C252.956 114.178 250.974 113.838 248.974 113.791ZM324.848 92.4119L317.277 115.751H332.256L324.848 92.4119ZM246.36 76.9021H233.955V98.0494H246.728C248.573 98.0153 250.405 97.7313 252.174 97.2051C253.798 96.7397 255.331 96.0031 256.709 95.0264C257.945 94.1469 258.981 93.0143 259.745 91.7038C260.484 90.359 260.841 88.8384 260.78 87.3055C260.837 85.6916 260.47 84.091 259.718 82.6621C259.011 81.4159 258.017 80.3562 256.818 79.5711C255.408 78.6624 253.851 78.0079 252.215 77.6374C250.296 77.181 248.333 76.9344 246.36 76.9021Z" fill="#2F3A3E"/>
<path d="M292.494 169.416C292.916 169.971 293.23 170.599 293.42 171.268C293.628 171.98 293.734 172.719 293.733 173.461L293.72 175.108C293.721 175.85 293.615 176.589 293.407 177.301C293.219 177.969 292.909 178.596 292.494 179.153C292.088 179.688 291.567 180.125 290.969 180.433C290.301 180.763 289.563 180.926 288.818 180.909C287.396 180.952 286.042 180.296 285.196 179.153C284.786 178.595 284.481 177.967 284.297 177.301C284.093 176.588 283.992 175.85 283.997 175.108V173.461C283.997 172.963 284.042 172.466 284.133 171.976C284.217 171.51 284.35 171.054 284.528 170.615C284.703 170.195 284.927 169.797 285.196 169.43C285.453 169.07 285.765 168.753 286.122 168.49C286.491 168.224 286.9 168.017 287.333 167.878C287.814 167.728 288.315 167.654 288.818 167.66C290.255 167.617 291.624 168.272 292.494 169.416ZM452.753 167.673C453.373 167.669 453.989 167.766 454.578 167.959C455.116 168.137 455.619 168.409 456.062 168.763C456.48 169.101 456.824 169.523 457.07 170.002C457.32 170.496 457.451 171.041 457.451 171.595H455.218C455.191 171.291 455.118 170.992 455 170.71C454.887 170.446 454.72 170.21 454.51 170.015C454.29 169.814 454.03 169.661 453.747 169.566C453.414 169.453 453.064 169.398 452.712 169.403C452.399 169.4 452.088 169.442 451.786 169.525C451.52 169.601 451.271 169.725 451.051 169.893C450.847 170.045 450.68 170.241 450.561 170.465C450.44 170.701 450.379 170.963 450.384 171.227C450.384 171.505 450.47 171.776 450.629 172.004C450.798 172.237 451.011 172.436 451.255 172.589C451.537 172.768 451.839 172.914 452.154 173.025C452.49 173.143 452.844 173.252 453.216 173.352C453.77 173.506 454.312 173.702 454.836 173.937C455.327 174.155 455.785 174.439 456.198 174.781C456.577 175.095 456.891 175.479 457.124 175.912C457.36 176.37 457.477 176.881 457.465 177.396C457.475 177.925 457.343 178.447 457.083 178.907C456.829 179.347 456.48 179.723 456.062 180.01C455.609 180.316 455.107 180.541 454.578 180.678C454 180.832 453.405 180.91 452.807 180.909C452.392 180.911 451.977 180.875 451.568 180.8C451.167 180.728 450.775 180.614 450.397 180.46C450.027 180.31 449.675 180.118 449.349 179.888C449.032 179.665 448.748 179.399 448.505 179.098C448 178.468 447.727 177.685 447.728 176.878H449.975C449.998 177.233 450.091 177.58 450.247 177.9C450.391 178.182 450.595 178.429 450.847 178.621C451.107 178.82 451.403 178.968 451.718 179.057C452.077 179.159 452.448 179.21 452.821 179.207C453.138 179.21 453.453 179.174 453.761 179.098C454.033 179.03 454.291 178.915 454.523 178.758C454.736 178.613 454.913 178.422 455.041 178.199C455.166 177.956 455.222 177.683 455.204 177.41C455.208 177.128 455.138 176.851 455 176.606C454.855 176.364 454.66 176.155 454.428 175.993C454.158 175.803 453.865 175.648 453.556 175.53C453.221 175.394 452.853 175.272 452.453 175.163C451.916 175.015 451.388 174.833 450.874 174.618C450.387 174.41 449.93 174.14 449.512 173.815C449.114 173.513 448.777 173.139 448.518 172.712C448.258 172.266 448.126 171.757 448.137 171.241C448.129 170.717 448.26 170.2 448.518 169.743C448.771 169.303 449.114 168.923 449.526 168.627C449.972 168.308 450.469 168.069 450.996 167.918C451.567 167.753 452.159 167.67 452.753 167.673ZM384.355 167.646C384.992 167.637 385.626 167.729 386.234 167.918C386.735 168.091 387.197 168.359 387.596 168.708C387.995 169.059 388.315 169.491 388.535 169.975C388.774 170.5 388.921 171.061 388.971 171.636H386.779C386.731 171.313 386.644 170.998 386.52 170.696C386.41 170.431 386.248 170.19 386.043 169.988C385.838 169.789 385.592 169.635 385.322 169.539C384.997 169.43 384.656 169.379 384.314 169.389C383.887 169.376 383.465 169.49 383.102 169.716C382.756 169.947 382.467 170.254 382.258 170.615C382.019 171.038 381.853 171.498 381.768 171.976C381.661 172.487 381.606 173.007 381.604 173.529V175.135C381.61 175.653 381.669 176.169 381.781 176.674C381.871 177.155 382.046 177.617 382.299 178.036C382.523 178.402 382.831 178.71 383.197 178.935C383.611 179.173 384.082 179.291 384.559 179.275H385.213C385.429 179.251 385.643 179.21 385.853 179.153C386.046 179.095 386.233 179.017 386.411 178.921C386.568 178.835 386.707 178.72 386.819 178.581V176.007H384.368V174.359H389.012L389.08 179.112C388.841 179.383 388.571 179.625 388.276 179.833C387.949 180.063 387.598 180.254 387.228 180.405C386.824 180.569 386.404 180.692 385.975 180.773C385.5 180.865 385.016 180.911 384.532 180.909C383.785 180.925 383.045 180.772 382.367 180.46C381.75 180.17 381.206 179.746 380.773 179.221C380.326 178.673 379.989 178.044 379.779 177.369C379.546 176.629 379.426 175.857 379.425 175.081V173.488C379.421 172.712 379.535 171.941 379.766 171.2C379.97 170.528 380.298 169.9 380.733 169.348C381.148 168.826 381.673 168.403 382.271 168.109C382.92 167.793 383.634 167.635 384.355 167.646ZM300.215 167.782V176.416C300.219 176.784 300.274 177.151 300.379 177.505C300.464 177.815 300.607 178.106 300.801 178.363C300.986 178.6 301.223 178.792 301.495 178.921C301.798 179.061 302.128 179.131 302.462 179.125C302.804 179.131 303.144 179.061 303.456 178.921C303.737 178.794 303.984 178.603 304.178 178.363C304.378 178.108 304.526 177.817 304.613 177.505C304.717 177.151 304.772 176.784 304.777 176.416V167.782L306.983 167.837V176.47C306.984 177.09 306.868 177.704 306.642 178.281C306.433 178.792 306.123 179.255 305.73 179.643C305.343 180.033 304.879 180.339 304.368 180.541C303.771 180.759 303.139 180.865 302.503 180.855C301.88 180.865 301.262 180.759 300.678 180.541C299.612 180.143 298.768 179.304 298.363 178.24C298.137 177.659 298.021 177.04 298.023 176.416V167.782H300.215ZM484.276 167.864V169.621H477.808V173.256H483.405V174.945H477.822V179.03H484.345V180.759H475.575V167.864H484.276ZM252.447 167.864V169.621H245.979V173.256H251.562V174.945H245.979V179.03H252.501V180.759H243.745V167.864H252.447ZM347.902 167.864V169.621H341.434V173.256H347.017V174.945H341.434V179.03H347.956V180.759H339.201V167.864H347.902ZM275.214 167.823C275.829 167.827 276.441 167.9 277.039 168.041C277.567 168.16 278.07 168.372 278.523 168.667C278.944 168.942 279.29 169.316 279.531 169.757C279.784 170.239 279.906 170.779 279.885 171.323C279.895 171.916 279.697 172.494 279.327 172.957C278.932 173.429 278.42 173.791 277.842 174.005C278.198 174.098 278.538 174.245 278.85 174.441C279.133 174.618 279.382 174.844 279.585 175.108C279.786 175.367 279.942 175.657 280.048 175.966C280.157 176.291 280.212 176.631 280.212 176.974C280.224 177.534 280.103 178.09 279.858 178.594C279.627 179.056 279.291 179.457 278.877 179.765C278.43 180.09 277.927 180.33 277.393 180.473C276.79 180.643 276.167 180.73 275.541 180.732L270.884 180.718V167.823H275.214ZM399.075 167.837L403.391 180.732H401.09L400.191 177.736H395.956L395.03 180.732H392.716L397.114 167.837H399.075ZM415.619 167.837V169.593H412.692V178.975H415.619V180.732H407.558V178.975H410.431V169.593H407.558V167.837H415.619ZM371.745 167.837L376.062 180.732H373.761L372.916 177.736H368.682L367.756 180.732H365.441L369.839 167.837H371.745ZM505.192 167.823V178.989H511.66V180.718H502.959V167.823H505.192ZM491.575 167.823V178.989H498.043V180.718H489.342V167.823H491.575ZM316.12 167.796C316.768 167.798 317.414 167.885 318.04 168.055C318.589 168.196 319.107 168.441 319.565 168.776C319.989 169.094 320.33 169.51 320.559 169.988C320.806 170.521 320.927 171.103 320.913 171.69C320.919 172.092 320.859 172.492 320.736 172.875C320.621 173.222 320.451 173.549 320.232 173.842C320.013 174.134 319.752 174.391 319.456 174.604C319.143 174.829 318.805 175.016 318.448 175.163L321.322 180.61V180.718H318.939L316.351 175.667H314.077V180.691H311.83V167.796H316.12ZM423.027 167.823L427.425 176.674V167.823H429.686L429.672 180.718H427.425L423.013 171.854V180.718H420.767V167.823H423.027ZM327.545 167.823L331.943 176.674V167.823H334.203V180.718H331.956L327.545 171.854V180.718H325.284V167.823H327.545ZM463.783 167.823V173.27H468.426V167.823H470.605L470.591 180.718H468.426V174.958H463.796V180.718H461.618V167.823H463.783ZM226.002 167.823L225.948 169.58H221.781V180.718H219.562V169.58H215.476V167.823H226.002ZM231.967 167.823V173.27H236.583V167.823H238.762V180.718H236.583V174.958H231.967V180.718H229.802V167.823H231.967ZM288.818 169.457C288.373 169.442 287.936 169.566 287.565 169.811C287.232 170.047 286.961 170.36 286.775 170.724C286.571 171.126 286.433 171.558 286.367 172.004C286.29 172.481 286.249 172.963 286.244 173.447V175.108C286.252 175.592 286.297 176.075 286.38 176.552C286.45 176.997 286.588 177.429 286.789 177.832C286.973 178.2 287.244 178.517 287.579 178.758C287.949 179.004 288.387 179.128 288.831 179.112C289.28 179.127 289.722 179.003 290.098 178.758C290.437 178.516 290.717 178.199 290.915 177.832C291.128 177.431 291.275 176.999 291.35 176.552C291.435 176.075 291.48 175.592 291.487 175.108L291.473 173.447C291.468 172.963 291.423 172.48 291.337 172.004C291.261 171.556 291.114 171.124 290.901 170.724C290.704 170.359 290.424 170.047 290.084 169.811C289.708 169.566 289.266 169.443 288.818 169.457ZM275.677 174.863L273.131 174.877V178.962H275.568C275.896 178.961 276.222 178.911 276.535 178.812C276.807 178.722 277.061 178.584 277.284 178.404C277.496 178.235 277.668 178.021 277.788 177.777C277.91 177.518 277.971 177.233 277.965 176.947C277.969 176.648 277.913 176.352 277.802 176.075C277.704 175.826 277.55 175.602 277.352 175.421C277.141 175.238 276.896 175.099 276.63 175.013C276.322 174.914 276.001 174.864 275.677 174.863ZM361.097 174.223V175.925H353.635V174.223H361.097ZM370.819 170.873L369.253 175.925H372.358L370.819 170.873ZM398.094 170.873L396.528 175.925H399.633L398.094 170.873ZM316.133 169.525H314.091L314.077 173.951H316.133C316.48 173.954 316.824 173.903 317.155 173.801C317.447 173.707 317.72 173.559 317.958 173.365C318.185 173.182 318.366 172.949 318.489 172.684C318.619 172.393 318.684 172.077 318.68 171.758C318.686 171.432 318.625 171.108 318.503 170.805C318.391 170.538 318.218 170.3 317.999 170.111C317.764 169.912 317.491 169.763 317.196 169.675C316.85 169.576 316.493 169.525 316.133 169.525ZM275.255 169.593H273.131V173.256H275.269C275.586 173.256 275.902 173.215 276.208 173.134C276.478 173.064 276.732 172.943 276.957 172.78C277.166 172.629 277.338 172.434 277.461 172.208C277.588 171.969 277.654 171.702 277.652 171.432C277.659 171.145 277.598 170.86 277.475 170.601C277.357 170.371 277.184 170.174 276.971 170.029C276.739 169.874 276.481 169.763 276.208 169.702C275.895 169.633 275.576 169.596 275.255 169.593Z" fill="#2F3A3E"/>
</svg>
