<svg width="224" height="256" viewBox="0 0 224 256" fill="none" xmlns="http://www.w3.org/2000/svg">
<g clip-path="url(#clip0_1_1043)">
<path d="M207.953 52.1618L127.317 4.28699C117.733 -1.429 105.787 -1.429 96.2026 4.28699L15.5501 52.1618C5.84867 58.0144 -0.0579442 68.5395 0.000428679 79.8694V175.603C-0.0522463 186.927 5.85363 197.445 15.5501 203.294L96.1864 251.153C105.771 256.865 117.716 256.865 127.301 251.153L207.937 203.294C217.645 197.446 223.558 186.92 223.503 175.587V79.8694C223.562 68.5395 217.655 58.0144 207.953 52.1618Z" fill="white"/>
<path d="M208.412 52.2767L127.598 4.29643C117.992 -1.43214 106.02 -1.43214 96.4145 4.29643L15.5843 52.2767C5.86155 58.1421 -0.0580719 68.6905 0.000429624 80.0454V175.99C-0.0523614 187.339 5.86652 197.88 15.5843 203.742L96.3983 251.706C106.004 257.431 117.975 257.431 127.581 251.706L208.395 203.742C218.124 197.881 224.051 187.332 223.995 175.973V80.0454C224.054 68.6905 218.134 58.1421 208.412 52.2767ZM99.2302 246.803L18.4162 198.839C10.4301 194 5.56586 185.328 5.5997 175.99V80.0454C5.56264 70.7066 10.4277 62.0331 18.4162 57.1961L99.2302 9.21583C107.095 4.52358 116.901 4.52358 124.766 9.21583L205.515 57.1961C212.172 61.2279 216.712 67.989 217.927 75.6762C215.24 69.9638 209.204 68.3942 202.165 72.4397L125.769 119.756C116.238 125.307 109.215 131.57 109.198 143.059V237.272C109.198 244.149 111.966 248.599 116.238 249.91C114.839 250.166 113.42 250.302 111.998 250.315C107.504 250.311 103.094 249.098 99.2302 246.803Z" fill="#2F3A3E"/>
<path d="M187.007 185.06L166.921 197.073C166.383 197.289 166.022 197.802 166 198.381V203.661C166 204.307 166.436 204.565 166.969 204.258L187.363 191.858C187.862 191.483 188.101 190.855 187.976 190.243V185.609C187.96 185.012 187.492 184.753 187.007 185.06Z" fill="#3AB14A"/>
<path d="M144.263 140.832C144.909 140.509 145.442 140.832 145.458 141.752L145.522 148.76C147.938 147.662 150.633 147.335 153.241 147.823C153.741 147.953 153.951 148.631 153.757 149.438L152.223 155.59C152.107 156.054 151.867 156.478 151.529 156.817C151.41 156.934 151.274 157.032 151.125 157.108C150.943 157.206 150.732 157.241 150.528 157.205C147.985 156.641 145.323 157.069 143.084 158.399C139.811 159.874 137.671 163.093 137.578 166.683C137.578 169.912 139.193 170.8 144.828 170.897C152.272 171.026 155.501 174.272 155.582 181.78C155.405 189.617 151.791 196.98 145.7 201.915L145.829 208.793C145.818 209.647 145.374 210.438 144.651 210.892L140.582 213.233C139.936 213.556 139.403 213.233 139.387 212.329V205.564C135.899 207.017 132.363 207.356 130.102 206.452C129.683 206.29 129.489 205.661 129.666 204.934L131.136 198.718C131.248 198.226 131.5 197.777 131.862 197.426C131.977 197.316 132.108 197.223 132.25 197.151C132.46 197.057 132.701 197.057 132.912 197.151C135.79 197.932 138.861 197.543 141.453 196.069C145.195 194.265 147.627 190.533 147.767 186.382C147.767 182.894 145.845 181.441 141.308 181.408C135.447 181.408 130.006 180.278 129.892 171.72C130.027 164.244 133.498 157.22 139.354 152.57L139.064 145.531C139.061 144.664 139.507 143.858 140.242 143.399L144.263 140.832Z" fill="white"/>
</g>
<defs>
<clipPath id="clip0_1_1043">
<rect width="224" height="256" fill="white"/>
</clipPath>
</defs>
</svg>
