<svg width="512" height="95" viewBox="0 0 512 95" fill="none" xmlns="http://www.w3.org/2000/svg">
<g clip-path="url(#clip0_1_1067)">
<path d="M42.383 77.1624C44.4028 77.1624 46.3201 76.9823 48.1245 76.5798C49.9536 76.1772 51.5779 75.5452 52.9479 74.6059C54.3179 73.7055 55.4514 72.4696 56.2777 70.8948C57.1039 69.3376 57.4994 67.3143 57.4994 64.8673C57.4994 60.0757 56.1505 56.6718 53.4705 54.6061C50.7834 52.5687 47.1994 51.5553 42.7926 51.5553H20.533V77.1624H42.383ZM41.2531 37.5795C44.8795 37.5795 47.8809 36.7179 50.2608 34.9701C52.616 33.254 53.76 30.4115 53.76 26.5132C53.76 24.3522 53.3787 22.562 52.616 21.1743C51.8286 19.7866 50.7834 18.699 49.4628 17.9399C48.1527 17.1489 46.6732 16.6016 44.9536 16.3085C43.2693 15.9766 41.5003 15.8495 39.6889 15.8495H20.533V37.5795H41.2531ZM43.9014 0.00927734C48.347 0.00927734 52.3617 0.39416 56.0305 1.18864C59.678 1.96194 62.7924 3.2543 65.423 5.02688C68.0148 6.79593 70.0416 9.15112 71.4929 12.1172C72.9088 15.0409 73.6221 18.699 73.6221 23.0281C73.6221 27.7102 72.5593 31.6191 70.4336 34.7441C68.2938 37.8655 65.1476 40.4255 60.9457 42.4135C66.6695 44.0589 70.9067 46.9579 73.7174 51.0751C76.5423 55.2205 77.9229 60.1852 77.9229 66.0008C77.9229 70.7182 77.019 74.7754 75.2181 78.1899C73.3961 81.6468 70.9173 84.4504 67.863 86.6114C64.7839 88.7936 61.2458 90.3932 57.284 91.4348C53.3646 92.4765 49.2968 92.9991 45.1302 92.9991H0.0600586V0.00927734H43.9014Z" fill="#0A0B09"/>
<path d="M128.36 41.4778C126.16 39.0449 122.439 37.7278 117.898 37.7278C114.942 37.7278 112.495 38.2257 110.539 39.2391C108.625 40.2384 107.054 41.4848 105.857 42.9502C104.663 44.4403 103.848 46.0116 103.375 47.6924C102.901 49.3308 102.619 50.8174 102.531 52.1309H132.622C132.181 47.4135 130.567 43.9283 128.36 41.4778ZM107.11 76.8517C109.879 79.5565 113.883 80.9194 119.07 80.9194C122.799 80.9194 126.023 79.9766 128.727 78.0946C131.407 76.2196 133.039 74.2105 133.671 72.1272H149.956C147.339 80.2309 143.367 86.0182 137.947 89.4998C132.594 92.9991 126.061 94.7434 118.452 94.7434C113.148 94.7434 108.375 93.8819 104.091 92.194C99.8082 90.4815 96.2278 88.0804 93.2158 84.9519C90.2815 81.8093 88.004 78.0946 86.3797 73.7338C84.7731 69.3941 83.9609 64.5884 83.9609 59.3801C83.9609 54.3449 84.8049 49.6415 86.4468 45.2948C88.1276 40.934 90.4474 37.1699 93.4983 34.0132C96.5597 30.8388 100.186 28.3353 104.409 26.5062C108.636 24.6807 113.293 23.7661 118.452 23.7661C124.148 23.7661 129.137 24.8607 133.413 27.0959C137.675 29.2957 141.167 32.2794 143.914 36.0153C146.658 39.7476 148.611 44.0131 149.832 48.7941C151.04 53.5716 151.467 58.5609 151.118 63.7869H102.531C102.531 69.1081 104.331 74.1469 107.11 76.8517Z" fill="#0A0B09"/>
<path d="M177.385 0.00927734V35.0724H177.809C180.157 31.1707 183.127 28.3352 186.778 26.5768C190.422 24.8042 193.977 23.9285 197.441 23.9285C202.381 23.9285 206.428 24.5782 209.588 25.9165C212.752 27.2795 215.255 29.1227 217.088 31.5202C218.885 33.9072 220.157 36.8203 220.902 40.2525C221.633 43.6776 222.01 47.4558 222.01 51.6224V92.9991H203.426V54.9804C203.426 49.4367 202.561 45.2701 200.838 42.5441C199.112 39.8146 196.047 38.4446 191.626 38.4446C186.626 38.4446 183.01 39.9594 180.771 42.9502C178.49 45.941 177.385 50.8632 177.385 57.7134V92.9991H158.808V0.00927734H177.385Z" fill="#0A0B09"/>
<path d="M271.614 61.7212C270.463 62.1026 269.188 62.4239 267.875 62.7028C266.519 62.9606 265.103 63.1689 263.634 63.3525C262.179 63.5291 260.682 63.7304 259.231 63.9917C257.847 64.2635 256.463 64.6025 255.145 65.0439C253.804 65.4818 252.628 66.0644 251.66 66.7988C250.658 67.5439 249.859 68.4761 249.249 69.5954C248.655 70.7183 248.338 72.1766 248.338 73.8997C248.338 75.5452 248.655 76.9329 249.249 78.0734C249.859 79.2034 250.658 80.0861 251.706 80.7393C252.751 81.3926 253.977 81.8516 255.34 82.1059C256.724 82.3813 258.154 82.4837 259.619 82.4837C263.256 82.4837 266.06 81.8799 268.058 80.6687C270.046 79.4505 271.544 77.9957 272.479 76.3008C273.433 74.6059 274.008 72.8969 274.195 71.1738C274.439 69.44 274.548 68.0418 274.548 66.993V60.0757C273.747 60.7855 272.804 61.3328 271.614 61.7212ZM235.213 35.5209C237.095 32.6573 239.521 30.3374 242.473 28.6036C245.425 26.8522 248.723 25.6199 252.43 24.8819C256.124 24.1227 259.817 23.7661 263.567 23.7661C266.939 23.7661 270.35 23.9992 273.863 24.4794C277.32 24.9561 280.481 25.8918 283.348 27.2866C286.212 28.6884 288.546 30.6057 290.353 33.1092C292.186 35.5492 293.115 38.8542 293.115 42.9502V78.0416C293.115 81.0925 293.298 83.9914 293.623 86.7668C293.99 89.5669 294.94 91.6679 295.837 93.045L276.946 92.9991C276.392 92.194 275.933 90.9334 275.717 89.8353C275.498 88.7619 275.346 87.6566 275.262 86.5232C272.32 89.5669 268.871 91.7067 264.852 92.9285C260.866 94.1326 256.802 94.7434 252.628 94.7434C249.429 94.7434 246.449 94.3374 243.659 93.5535C240.912 92.7696 238.472 91.5549 236.392 89.913C234.302 88.2393 232.695 86.163 231.523 83.6489C230.358 81.1207 229.757 78.1123 229.757 74.6377C229.757 70.803 230.446 67.6463 231.805 65.1746C233.129 62.7028 234.849 60.7149 236.999 59.2424C239.115 57.7594 241.544 56.6436 244.295 55.9162C247.021 55.1817 249.789 54.5744 252.532 54.1471C255.318 53.7199 258.03 53.3738 260.739 53.1055C263.454 52.8407 265.806 52.4628 267.907 51.9332C269.979 51.4176 271.639 50.6338 272.857 49.6415C274.054 48.6458 274.63 47.1981 274.548 45.2701C274.548 43.2786 274.195 41.6896 273.556 40.5032C272.914 39.3344 272.045 38.434 270.982 37.7773C269.891 37.1205 268.662 36.6897 267.246 36.4602C265.806 36.2518 264.28 36.1353 262.652 36.1353C259.033 36.1353 256.169 36.9404 254.139 38.487C252.052 40.0795 250.852 42.6995 250.481 46.3577H231.929C232.197 41.9898 233.271 38.3846 235.213 35.5209Z" fill="#0A0B09"/>
<path d="M320.851 25.6872V35.0727H321.264C323.605 31.1709 326.624 28.3354 330.374 26.577C334.092 24.8044 337.945 23.9287 341.85 23.9287C346.811 23.9287 350.882 24.5784 354.029 25.9167C357.231 27.2797 359.721 29.1229 361.525 31.5204C363.375 33.9074 364.646 36.8205 365.388 40.2527C366.136 43.6778 366.507 47.456 366.507 51.6226V92.9993H347.916V54.9806C347.916 49.4369 347.044 45.2703 345.31 42.5443C343.552 39.8148 340.519 38.0634 336.066 38.0634C331.034 38.0634 327.369 39.9596 325.116 42.9504C322.85 45.9412 321.727 50.8634 321.727 57.7136V92.9993H303.337V25.6872H320.851Z" fill="#0A0B09"/>
<path d="M407.658 37.7278C404.685 37.7278 402.231 38.3846 400.257 39.7476C398.241 41.107 396.595 42.8302 395.338 44.9664C394.078 47.0886 393.206 49.4367 392.665 52.0073C392.16 54.5744 391.878 57.1167 391.878 59.645C391.878 62.0884 392.16 64.5637 392.665 67.0919C393.206 69.606 394.035 71.8765 395.208 73.9456C396.398 75.9725 397.979 77.6391 399.978 78.9562C401.966 80.2662 404.385 80.9194 407.256 80.9194C411.708 80.9194 415.119 79.6765 417.51 77.2154C419.89 74.7401 421.362 71.4139 421.983 67.2473H439.843C438.618 76.1773 435.144 82.9992 429.427 87.7026C423.689 92.3741 416.341 94.7434 407.393 94.7434C402.337 94.7434 397.743 93.8819 393.506 92.194C389.275 90.4815 385.684 88.1227 382.725 85.079C379.766 82.0282 377.471 78.4018 375.79 74.1858C374.149 69.9626 373.322 65.3264 373.322 60.2947C373.322 55.0829 374.089 50.2277 375.61 45.7397C377.125 41.2695 379.364 37.3959 382.348 34.1474C385.303 30.8776 388.919 28.3353 393.195 26.5062C397.453 24.6807 402.319 23.7661 407.782 23.7661C411.779 23.7661 415.617 24.3064 419.325 25.3162C423.004 26.3473 426.313 27.9398 429.215 30.0761C432.125 32.1982 434.508 34.843 436.334 37.9962C438.138 41.1494 439.169 44.9276 439.455 49.2461H421.32C420.119 41.5625 415.564 37.7278 407.658 37.7278Z" fill="#0A0B09"/>
<path d="M98.7489 6.24854H136.443V15.4257H98.7489V6.24854Z" fill="#0A0B09"/>
<path d="M489.13 41.4778C486.901 39.0449 483.151 37.7278 478.667 37.7278C475.715 37.7278 473.261 38.2257 471.27 39.2391C469.352 40.2384 467.601 41.4848 466.425 42.9502C465.249 44.4403 464.405 46.0116 463.914 47.6924C463.477 49.3308 463.169 50.8174 463.088 52.1309H493.406C492.911 47.4135 491.336 43.9283 489.13 41.4778ZM467.65 76.8517C470.429 79.5565 474.624 80.9194 479.85 80.9194C483.572 80.9194 486.788 79.9766 489.476 78.0946C492.163 76.2196 493.829 74.2105 494.423 72.1272H510.708C508.105 80.2309 504.108 86.0182 498.723 89.4998C493.349 92.9991 486.845 94.7434 479.207 94.7434C473.89 94.7434 469.098 93.8819 464.847 92.194C460.571 90.4815 456.987 88.0804 453.989 84.9519C451.023 81.8093 448.749 78.0946 447.131 73.7338C445.525 69.3941 444.727 64.5884 444.727 59.3801C444.727 54.3449 445.553 49.6415 447.199 45.2948C448.865 40.934 451.234 37.1699 454.268 34.0132C457.343 30.8388 460.938 28.3353 465.15 26.5062C469.38 24.6807 474.077 23.7661 479.207 23.7661C484.896 23.7661 489.906 24.8607 494.14 27.0959C498.413 29.2957 501.922 32.2794 504.648 36.0153C507.392 39.7476 509.366 44.0131 510.577 48.7941C511.771 53.5716 512.23 58.5609 511.887 63.7869H463.088C463.088 69.1081 464.864 74.1469 467.65 76.8517Z" fill="#0A0B09"/>
</g>
<defs>
<clipPath id="clip0_1_1067">
<rect width="512" height="95" fill="white"/>
</clipPath>
</defs>
</svg>
