<svg width="256" height="222" viewBox="0 0 256 222" fill="none" xmlns="http://www.w3.org/2000/svg">
<g clip-path="url(#clip0_1_1085)">
<path d="M181.243 159.987C160.454 157.528 150.062 144.49 148.187 141.899C144.061 136.204 139.393 126.028 135.392 116.831C134.184 114.053 129.884 113.539 128.307 113.448L127.717 113.435C126.981 113.442 121.438 113.58 120.021 116.831C116.013 126.021 111.359 136.19 107.226 141.899C105.351 144.49 94.9525 157.535 74.1699 159.987C70.551 160.425 66.7238 160.633 62.7576 160.633C54.082 160.633 45.5036 159.619 38.5853 157.882L45.6703 186.486L104.601 210.77L126.515 213.416L148.277 210.77L207.208 186.486L214.14 158.501C207.743 159.841 200.227 160.633 192.635 160.633C188.689 160.633 184.848 160.425 181.243 159.987ZM153.272 196.94H99.3355V191.244H123.452V179.186C121.757 178.922 120.076 178.637 118.389 178.311C116.055 177.866 113.735 177.38 111.449 176.741C109.386 176.178 107.219 175.546 105.365 174.442C102.01 172.42 99.4744 168.524 101.53 164.683C102.51 162.863 104.253 161.175 106.198 160.432C108.4 159.584 110.935 159.473 113.276 159.39C111.95 159.438 114.172 159.39 113.512 159.383C115.95 159.383 118.368 159.445 120.813 159.605C122.987 159.751 125.216 160.237 127.377 159.987C132.086 159.452 136.921 159.133 141.658 159.542C143.79 159.73 146.145 159.987 147.93 161.279C149.59 162.488 151.077 164.12 151.605 166.148C152.639 170.114 149.278 173.567 145.95 175.095C141.783 177.012 136.976 177.838 132.489 178.623C131.378 178.818 130.259 179.005 129.141 179.186V191.244H153.272V196.94ZM225.128 94.6455C222.183 93.7425 218.314 93.0479 213.098 92.6381C206.874 92.1658 198.727 92.1171 187.898 92.652C187.898 92.652 170.845 94.1454 160.85 97.6045C155.425 99.4869 148.666 102.383 147.076 107.398C145.485 112.413 146.728 123.465 149.236 129.376C151.743 135.301 158.245 143.212 163.712 146.908C168.768 150.339 178.486 154.569 191.836 154.486C200.074 154.437 208.757 153.645 215.96 151.214C219.037 150.179 221.857 148.846 224.239 147.137C226.552 145.484 228.414 143.518 229.921 141.406C233.617 136.225 235.172 130.063 235.902 124.812C236.923 117.415 238.076 104.766 233.735 99.8689C231.97 97.8754 229.609 96.0278 225.128 94.6455ZM91.7157 146.915C97.1753 143.219 103.677 135.301 106.17 129.383C108.685 123.465 109.935 112.42 108.338 107.405C106.747 102.39 99.9954 99.4869 94.5636 97.6115C84.5751 94.1523 67.5156 92.6589 67.5156 92.6589C55.1516 92.0407 46.2607 92.2005 39.7592 92.8743C34.2371 93.4577 30.4168 94.4232 27.6592 95.6249C24.8113 96.8474 23.0678 98.32 21.6856 99.8828C17.3512 104.78 18.4904 117.422 19.5115 124.826C20.081 128.91 21.1507 133.543 23.3318 137.836C25.103 141.323 27.6175 144.601 31.1947 147.151C32.827 148.325 34.6886 149.318 36.6682 150.172C44.3505 153.43 54.2487 154.444 63.5911 154.5C76.9275 154.569 86.652 150.346 91.7157 146.915ZM47.504 84.15C58.0065 84.2334 68.5784 84.9696 79.1225 86.3797C84.9919 87.1646 90.8405 88.144 96.6543 89.3318C101.392 90.3528 105.184 91.2975 108.532 92.131C115.937 93.9856 120.827 95.1942 127.731 95.2081C134.614 95.1942 139.491 93.9717 146.888 92.131C150.236 91.2975 154.029 90.3528 158.738 89.3387C163.906 88.276 169.088 87.4077 174.29 86.6645C184.633 85.1989 195.01 84.3584 205.332 84.1847C206.763 84.157 208.208 84.1292 209.646 84.1292C210.431 84.1292 211.216 84.1361 211.987 84.1431L211.417 79.8573L211.139 78.9891L197.962 39.5425L165.01 33.0896L126.529 25.5739V25.5601H126.501C126.501 25.5601 126.488 25.5601 126.453 25.567C126.418 25.5601 126.397 25.5601 126.397 25.5601H126.37V25.5809C124.925 25.7407 105.879 29.4707 87.812 33.034C70.947 36.3542 54.9363 39.5494 54.9363 39.5494L41.7597 78.996L41.4679 79.8643L40.9053 84.1917C42.489 84.157 44.1144 84.1361 45.7745 84.1361C46.351 84.1292 46.9275 84.15 47.504 84.15Z" fill="white"/>
<path d="M252.92 88.5121C252.788 88.4705 242.146 85.6643 224.114 84.5737L223.107 74.877L220.961 68.445L233.762 54.7265C245.39 42.2653 244.709 22.7469 232.248 11.1262L229.81 8.84787C217.356 -2.77287 197.83 -2.09216 186.21 10.3621L175.179 22.1843L126.529 12.0083V11.9944H126.494C126.494 11.9944 126.474 11.9944 126.439 12.0014C126.397 11.9944 126.376 11.9944 126.376 11.9944H126.349V12.0153C124.563 12.2167 99.4535 17.4957 77.6151 22.1148L66.6542 10.3691C55.0474 -2.09216 35.522 -2.76593 23.0678 8.85482L20.6297 11.1331C8.17544 22.7608 7.49472 42.2723 19.1155 54.7335L31.924 68.4519L29.7707 74.884L28.7566 84.7404C12.2736 85.9421 2.6047 88.4774 2.49357 88.5191C0.791783 88.9984 0.0902314 90.721 0.152746 92.2213L2.18794 106.794L3.06314 107.26C5.8624 108.746 6.57784 110.99 10.3773 124.27L11.0511 126.611C15.1909 141.024 18.6501 147.345 25.4919 152.256L37.1405 192.425L101.607 218.778L126.536 221.307L151.285 218.778L218.314 192.425L227.49 153.861C227.594 153.798 227.705 153.736 227.81 153.673C236.11 148.505 239.826 142.434 244.362 126.611L245.043 124.236C248.835 110.983 249.544 108.746 252.35 107.26L253.225 106.794L255.24 92.4158L255.253 92.2283C255.309 90.721 254.614 88.9984 252.92 88.5121ZM41.4609 79.8574L41.7527 78.9891L54.9293 39.5425C54.9293 39.5425 70.9469 36.3473 87.805 33.0271C105.872 29.4568 124.918 25.7337 126.363 25.574V25.5601H126.39C126.39 25.5601 126.411 25.5601 126.446 25.567C126.481 25.5601 126.494 25.5601 126.494 25.5601H126.522V25.5809L165.003 33.0965L197.955 39.5494L211.132 78.996L211.41 79.8643L211.98 84.15C211.209 84.1431 210.424 84.1361 209.639 84.1361C208.201 84.1361 206.756 84.1639 205.325 84.1917C195.01 84.3653 184.633 85.2058 174.283 86.6714C169.081 87.4077 163.899 88.276 158.731 89.3457C154.022 90.3598 150.229 91.3045 146.881 92.138C139.491 93.9856 134.607 95.2012 127.724 95.2151C120.82 95.2012 115.936 93.9856 108.525 92.138C105.177 91.3045 101.385 90.3598 96.6473 89.3387C90.8265 88.1509 84.9779 87.1716 79.1155 86.3867C68.5714 84.9766 57.9995 84.2334 47.497 84.157C46.9205 84.157 46.344 84.1361 45.7605 84.1361C44.1004 84.1361 42.4681 84.157 40.8913 84.1917L41.4609 79.8574ZM36.6612 150.158C34.6816 149.304 32.82 148.311 31.1877 147.137C27.6105 144.588 25.096 141.309 23.3248 137.822C21.1507 133.53 20.074 128.896 19.5044 124.812C18.4834 117.415 17.3373 104.766 21.6786 99.8689C23.0608 98.2991 24.8043 96.8266 27.6522 95.611C30.4097 94.4093 34.2301 93.4438 39.7522 92.8604C46.2606 92.1797 55.1446 92.0268 67.5086 92.645C67.5086 92.645 84.5612 94.1384 94.5565 97.5976C99.9883 99.4799 106.747 102.376 108.331 107.392C109.928 112.407 108.685 123.458 106.163 129.369C103.67 135.294 97.1683 143.205 91.7087 146.901C86.645 150.332 76.9205 154.562 63.5771 154.479C54.2486 154.437 44.3505 153.416 36.6612 150.158ZM207.215 186.493L148.284 210.777L126.522 213.423L104.607 210.777L45.6772 186.493L38.5922 157.889C45.5105 159.619 54.0888 160.64 62.7645 160.64C66.7237 160.64 70.5579 160.432 74.1768 159.994C94.9594 157.535 105.358 144.497 107.233 141.906C111.366 136.197 116.02 126.028 120.028 116.838C121.445 113.587 126.988 113.448 127.724 113.442L128.314 113.455C129.891 113.553 134.191 114.06 135.399 116.838C139.4 126.035 144.068 136.211 148.194 141.906C150.069 144.497 160.461 157.542 181.25 159.994C184.862 160.432 188.696 160.64 192.656 160.64C200.248 160.64 207.763 159.855 214.161 158.508L207.215 186.493ZM235.902 124.819C235.172 130.07 233.617 136.232 229.921 141.413C228.407 143.532 226.552 145.491 224.239 147.144C221.85 148.852 219.037 150.186 215.96 151.221C208.757 153.652 200.074 154.444 191.836 154.493C178.486 154.576 168.768 150.346 163.711 146.915C158.245 143.219 151.743 135.301 149.236 129.383C146.735 123.465 145.485 112.42 147.076 107.405C148.666 102.39 155.425 99.4869 160.85 97.6115C170.838 94.1523 187.898 92.6589 187.898 92.6589C198.726 92.1241 206.867 92.1727 213.098 92.645C218.314 93.0549 222.19 93.7495 225.128 94.6525C229.609 96.0347 231.963 97.8824 233.735 99.8828C238.069 104.773 236.923 117.415 235.902 124.819ZM129.148 179.179C130.266 178.998 131.385 178.811 132.496 178.616C136.983 177.831 141.79 177.012 145.957 175.088C149.284 173.56 152.653 170.107 151.611 166.141C151.084 164.113 149.597 162.481 147.937 161.272C146.152 159.98 143.79 159.723 141.665 159.536C136.927 159.126 132.093 159.445 127.384 159.98C125.216 160.23 122.994 159.751 120.82 159.598C118.375 159.438 115.957 159.376 113.519 159.376C114.179 159.383 111.949 159.431 113.283 159.383C110.942 159.473 108.414 159.577 106.205 160.425C104.26 161.168 102.517 162.863 101.537 164.676C99.4813 168.524 102.01 172.414 105.372 174.435C107.226 175.539 109.393 176.171 111.456 176.734C113.742 177.373 116.062 177.852 118.395 178.304C120.076 178.63 121.757 178.915 123.459 179.179V191.244H99.3424V196.933H153.278V191.244H129.148V179.179Z" fill="#454545"/>
</g>
<defs>
<clipPath id="clip0_1_1085">
<rect width="256" height="222" fill="white"/>
</clipPath>
</defs>
</svg>
