<svg width="256" height="388" viewBox="0 0 256 388" fill="none" xmlns="http://www.w3.org/2000/svg">
<g clip-path="url(#clip0_1_1089)">
<path d="M129.424 122.047C122.291 122.876 116.851 128.669 116.345 135.975C116.127 139.123 116.196 139.336 123.331 157.697C139.564 199.471 143.497 209.525 144.158 210.94C145.761 214.367 148.014 217.591 150.83 220.484C152.99 222.705 154.415 223.899 156.824 225.508C161.06 228.337 163.161 229.119 179.642 233.998C195.695 238.752 204.466 241.911 212.023 245.662C221.814 250.522 228.646 256.049 232.967 262.608C236.067 267.314 238.813 275.754 240.007 284.249C240.475 287.569 240.478 294.91 240.013 297.912C239.005 304.427 236.992 309.887 233.912 314.456C232.274 316.885 232.844 316.479 235.225 313.518C241.965 305.138 248.83 290.817 252.333 277.83C256.573 262.112 257.149 245.235 253.993 229.26C247.846 198.152 228.207 171.306 200.549 156.2C198.811 155.251 192.192 151.781 183.218 147.115C181.856 146.407 179.999 145.438 179.091 144.961C178.184 144.484 176.327 143.515 174.965 142.807C173.603 142.099 169.683 140.056 166.254 138.268C162.824 136.48 158.987 134.479 157.726 133.822C153.883 131.818 151.304 130.472 149.382 129.465C140.489 124.81 136.725 122.928 135.652 122.602C134.527 122.259 131.668 121.82 130.95 121.879C130.799 121.891 130.113 121.967 129.424 122.047Z" fill="url(#paint0_radial_1_1089)"/>
<path d="M148.81 277.994C148.317 278.286 147.626 278.708 147.273 278.932C146.919 279.157 146.136 279.644 145.53 280.016C143.309 281.379 137.402 285.019 132.326 288.152C128.99 290.212 128.495 290.519 124.257 293.149C122.744 294.087 121.134 295.077 120.68 295.348C120.226 295.618 118.287 296.812 116.371 298.001C114.454 299.19 111.112 301.254 108.943 302.587C106.775 303.919 102.896 306.312 100.324 307.904C97.7516 309.495 94.3679 311.581 92.8048 312.54C91.2412 313.499 89.7971 314.425 89.5953 314.598C89.2956 314.855 75.3903 323.468 68.4131 327.719C63.1139 330.947 56.9837 333.106 50.7083 333.954C47.7868 334.349 42.2583 334.351 39.3451 333.957C31.4457 332.89 24.1686 329.944 17.9363 325.291C15.4917 323.465 10.8892 318.867 9.12977 316.491C4.98343 310.893 2.30108 304.889 0.911875 298.095C0.592222 296.531 0.28981 295.211 0.240111 295.16C0.110267 295.029 0.344816 297.391 0.767905 300.479C1.20787 303.69 2.14539 308.335 3.15516 312.308C10.9692 343.052 33.2045 368.057 63.3055 379.954C71.9733 383.378 80.72 385.536 90.237 386.594C93.8131 386.995 103.936 387.154 107.668 386.87C124.784 385.574 139.687 380.536 154.975 370.874C156.337 370.013 158.895 368.4 160.66 367.289C162.426 366.177 164.654 364.765 165.612 364.15C166.57 363.535 167.726 362.808 168.179 362.535C168.633 362.262 169.541 361.691 170.197 361.267C170.853 360.843 173.659 359.068 176.432 357.323L187.524 350.317L191.333 347.912L191.47 347.825L191.889 347.56L192.089 347.434L194.893 345.663L204.583 339.542C216.931 331.783 220.613 329.059 226.349 323.44C228.741 321.098 232.346 317.099 232.525 316.592C232.562 316.489 233.203 315.5 233.95 314.395C236.985 309.903 239.009 304.4 240.013 297.912C240.478 294.91 240.475 287.569 240.008 284.248C239.105 277.828 237.053 270.546 234.841 265.909C231.214 258.306 223.488 251.397 212.388 245.833C209.323 244.296 206.158 242.891 205.805 242.909C205.637 242.918 195.308 249.231 182.851 256.94C170.394 264.648 159.583 271.339 158.827 271.808C158.07 272.278 156.77 273.072 155.938 273.573L148.81 277.994Z" fill="url(#paint1_radial_1_1089)"/>
<path d="M0.0533482 241.013L0.106719 294.702L0.80161 297.82C2.97446 307.567 6.73918 314.595 13.2839 321.122C16.3624 324.193 18.7165 326.044 22.0524 328.018C29.1114 332.195 36.7087 334.256 45.0304 334.253C53.7462 334.248 61.2858 332.074 69.0551 327.325C70.3662 326.524 75.5036 323.361 80.4713 320.296L89.5034 314.724V251.025V187.325L89.5007 129.051C89.4988 91.8738 89.4308 69.7948 89.3133 68.0627C88.5725 57.1775 84.0202 47.1707 76.3653 39.6016C74.016 37.2787 72.0088 35.7272 66.0289 31.6122C63.0534 29.5644 57.6065 25.8131 53.9249 23.276C50.2434 20.7388 44.1778 16.559 40.4456 13.9874C36.7135 11.4161 31.3904 7.74731 28.6166 5.83488C22.838 1.85063 22.3858 1.57351 20.639 0.948501C18.3669 0.1357 15.9591 -0.162861 13.67 0.0843541C6.99811 0.804909 1.65714 5.62213 0.268845 12.1713C0.052807 13.1903 0.0130042 26.7506 0.0102532 100.35L0.00714146 187.325H0L0.0533482 241.013Z" fill="url(#paint2_linear_1_1089)"/>
</g>
<defs>
<radialGradient id="paint0_radial_1_1089" cx="0" cy="0" r="1" gradientUnits="userSpaceOnUse" gradientTransform="translate(2861.74 -14358.8) rotate(-140.294) scale(17020.4 23490.9)">
<stop stop-color="#00CACC"/>
<stop offset="1" stop-color="#048FCE"/>
</radialGradient>
<radialGradient id="paint1_radial_1_1089" cx="0" cy="0" r="1" gradientUnits="userSpaceOnUse" gradientTransform="translate(4330.96 8372.98) rotate(-35.5313) scale(24428.5 19148.9)">
<stop stop-color="#00BBEC"/>
<stop offset="1" stop-color="#2756A9"/>
</radialGradient>
<linearGradient id="paint2_linear_1_1089" x1="4475.19" y1="-1.17511e-05" x2="4475.19" y2="33425.3" gradientUnits="userSpaceOnUse">
<stop stop-color="#00BBEC"/>
<stop offset="1" stop-color="#2756A9"/>
</linearGradient>
<clipPath id="clip0_1_1089">
<rect width="256" height="388" fill="white"/>
</clipPath>
</defs>
</svg>
