<svg width="256" height="256" viewBox="0 0 256 256" fill="none" xmlns="http://www.w3.org/2000/svg">
<g clip-path="url(#clip0_1_1094)">
<path d="M249.269 6.72998H6.73096V249.27H249.269V6.72998Z" fill="#50E4EA"/>
<path d="M242.538 13.4604V242.542H13.4621V13.4604H242.538ZM256 0H0V256H256V0Z" fill="#173647"/>
<path d="M167.249 77.187C184.055 70.3164 203.345 74.2311 216.144 87.1097C228.942 99.9884 232.737 119.302 225.762 136.066C218.787 152.829 202.412 163.751 184.255 163.75L176.67 163.774C172.279 182.859 157.767 198.49 138.283 203.898C114.782 210.421 89.8167 200.47 77.2462 179.57C74.3369 174.733 72.2568 169.584 70.986 164.307L64.6685 164.34C44.7251 164.31 28.5677 148.146 28.5469 128.202C28.5469 108.146 42.0251 94.6709 62.078 94.6709H63.4447C68.037 71.7649 86.2896 54.0696 109.327 50.1893C132.364 46.3091 155.406 57.0491 167.249 77.187ZM118.668 61.6924C94.8554 62.095 75.4357 80.8958 74.2623 104.683V108.996C69.7811 107.672 65.1332 106.999 60.4606 106.995C48.3006 107.637 40.8175 115.638 40.8175 128.199C40.8323 141.366 51.5017 152.037 64.6685 152.053L69.481 152.028C69.3746 138.328 74.4465 124.714 84.363 114.25C100.889 96.8117 126.872 92.3389 148.239 103.135L149.207 103.637L141.659 114.578C125.144 106.581 105.33 110.485 93.0833 124.148C80.8361 137.812 79.1154 157.933 88.8648 173.477C98.6142 189.022 117.478 196.233 135.11 191.156C152.401 186.177 164.411 170.562 164.861 152.656L164.855 151.525L184.264 151.465C198.051 151.484 210.367 142.849 215.049 129.881C219.73 116.913 215.77 102.402 205.151 93.6097C194.531 84.8173 179.536 83.635 167.669 90.6544L161.739 94.1588L158.943 87.8779C151.853 71.9742 136.081 61.7198 118.668 61.6924ZM155.73 120.045L164.895 129.48L117.155 175.856L95.0269 153.73L104.327 144.43L117.29 157.39L155.73 120.045Z" fill="#173647"/>
</g>
<defs>
<clipPath id="clip0_1_1094">
<rect width="256" height="256" fill="white"/>
</clipPath>
</defs>
</svg>
