<svg width="256" height="256" viewBox="0 0 256 256" fill="none" xmlns="http://www.w3.org/2000/svg">
<g clip-path="url(#clip0_1_1104)">
<path d="M252.171 158.954C235.069 227.562 165.558 269.268 97.0484 252.165C28.4383 235.063 -13.2678 165.555 3.83467 97.0462C20.9372 28.4376 90.3474 -13.2675 158.957 3.83458C227.468 20.8367 269.274 90.3453 252.171 158.954Z" fill="url(#paint0_linear_1_1104)"/>
<path d="M188.945 112.05C191.445 95.0502 178.545 85.8502 160.745 79.7502L166.545 56.6502L152.545 53.1502L146.945 75.6502C143.245 74.7502 139.445 73.8502 135.645 73.0502L141.245 50.4502L127.245 46.9502L121.545 69.9502C118.445 69.2502 115.445 68.5502 112.545 67.8502V67.7502L93.1449 62.9502L89.4449 77.9502C89.4449 77.9502 99.8449 80.3502 99.6449 80.4502C105.345 81.8502 106.345 85.6502 106.145 88.6502L99.5449 114.95C99.9449 115.05 100.445 115.15 101.045 115.45C100.545 115.35 100.045 115.25 99.5449 115.05L90.3449 151.85C89.6449 153.55 87.8449 156.15 83.9449 155.15C84.0449 155.35 73.7449 152.65 73.7449 152.65L66.7449 168.75L85.0449 173.35C88.4449 174.25 91.7449 175.05 95.0449 175.95L89.2449 199.25L103.245 202.75L109.045 179.65C112.845 180.65 116.645 181.65 120.245 182.55L114.545 205.55L128.545 209.05L134.345 185.75C158.345 190.25 176.345 188.45 183.845 166.75C189.945 149.35 183.545 139.25 170.945 132.65C180.245 130.55 187.145 124.45 188.945 112.05ZM156.845 157.05C152.545 174.45 123.145 165.05 113.645 162.65L121.345 131.75C130.845 134.15 161.445 138.85 156.845 157.05ZM161.245 111.75C157.245 127.65 132.845 119.55 124.945 117.55L131.945 89.5502C139.845 91.5502 165.345 95.2502 161.245 111.75Z" fill="white"/>
</g>
<defs>
<linearGradient id="paint0_linear_1_1104" x1="12793.2" y1="-6.02943" x2="12793.2" y2="25597.4" gradientUnits="userSpaceOnUse">
<stop stop-color="#F9AA4B"/>
<stop offset="1" stop-color="#F7931A"/>
</linearGradient>
<clipPath id="clip0_1_1104">
<rect width="256" height="256" fill="white"/>
</clipPath>
</defs>
</svg>
