<svg width="512" height="148" viewBox="0 0 512 148" fill="none" xmlns="http://www.w3.org/2000/svg">
<g clip-path="url(#clip0_1_1120)">
<path d="M88.2183 25.3168L93.4098 25.3206C115.881 25.3877 133.022 26.0989 143.933 26.761L145.149 26.8362C156.688 27.5519 166.26 35.6027 168.944 46.8739L169.347 48.5955C171.499 57.8325 174.312 70.8548 176.246 83.8816L176.626 86.4567C177.94 95.5666 179.017 106.236 179.857 118.169C180.304 125.236 177.978 132.034 173.237 137.312C168.496 142.59 161.966 145.631 154.899 145.989L150.392 146.191C135.145 146.852 113.733 147.578 90.9612 147.599L86.9445 147.595C64.9241 147.535 44.3177 146.833 29.5193 146.191L25.012 145.989C17.8557 145.721 11.415 142.59 6.6739 137.312C1.93283 132.034 -0.392976 125.236 0.0542944 118.169L0.224161 115.805C1.02706 104.857 1.9755 95.0775 3.18934 86.5265L3.45355 84.713C5.51099 70.5793 8.64189 56.3561 10.8782 46.8739C13.533 35.7239 22.9284 27.6378 34.3881 26.859L38.1247 26.6349C49.3762 25.9946 66.3416 25.3495 88.2183 25.3168ZM91.7577 37.572H88.3265C64.409 37.6081 46.4893 38.3924 35.5676 39.0914C29.3952 39.5387 24.3858 43.743 22.9545 49.7365L22.4033 52.0346C20.2384 61.1676 17.5193 73.9105 15.7088 86.5021L15.4446 88.2495C14.1444 97.0856 13.1537 107.401 12.399 118.974C12.1306 122.731 13.383 126.309 15.8877 129.082C18.3924 131.855 21.7916 133.465 25.5487 133.644L31.4604 133.908C46.4854 134.552 67.0441 135.234 88.9439 135.254L92.9849 135.25C117.147 135.183 139.506 134.331 154.363 133.644C158.12 133.465 161.519 131.855 164.024 129.082C166.439 126.309 167.691 122.731 167.691 118.974L167.521 116.676C166.661 105.272 165.639 95.14 164.381 86.5021C162.324 72.8156 159.283 58.9502 157.136 49.7365C155.704 43.743 150.605 39.4492 144.523 39.0914L141.21 38.8901C130.118 38.2498 113.326 37.6047 91.7577 37.572ZM109.904 98.8468C109.904 109.85 100.958 118.795 89.9556 118.795C78.9743 118.795 70.0971 109.94 69.9206 99.1736L69.9179 98.8468H109.904ZM45.2286 74.068C52.0222 74.068 57.4235 79.4632 57.5702 86.134L57.5733 86.4126H32.8839C32.8839 79.6141 38.4301 74.068 45.2286 74.068ZM134.683 74.068C141.476 74.068 146.878 79.4632 147.024 86.134L147.027 86.4126H122.338C122.338 79.6141 127.884 74.068 134.683 74.068ZM89.9556 0C94.2494 0 97.6487 3.48871 97.6487 7.69305C97.6487 11.8974 94.16 15.2966 89.9556 15.2966C85.7513 15.2966 82.2626 11.8079 82.2626 7.69305C82.2626 3.39925 85.7513 0 89.9556 0Z" fill="#683D87"/>
<path d="M325.936 53.5832V69.6849H336.312V82.119H326.025V102.336C326.025 105.377 328.619 107.971 332.197 108.15C334.664 108.15 336.465 107.484 337.117 107.201L337.386 107.077V118.974L337.003 119.104C335.87 119.472 332.337 120.495 328.082 120.495C317.817 120.495 312.104 114.892 311.983 103.254L311.981 102.872V82.119H303.214V69.5955H307.776C310.842 69.5955 313.393 67.1083 313.498 63.1416L313.501 62.8864V53.5832H325.936ZM229.146 46.8741V74.8732L229.349 74.611C230.393 73.3117 235.459 67.6275 244.175 67.6275C257.056 67.6275 268.506 78.9881 268.506 94.0164C268.506 109.045 257.145 120.405 244.175 120.405C234.756 120.405 229.6 113.767 229.175 113.198L229.146 113.16V119.421H215.191V46.8741H229.146ZM433.728 67.538C444.156 67.538 449.843 73.5175 451.088 74.994L451.35 75.3205L444.104 83.6398L444.012 83.5245C443.458 82.8579 440.455 79.5249 435.785 79.5249C431.67 79.5249 429.613 81.5823 429.613 83.6398C429.613 90.8855 452.96 87.3074 452.96 104.304C452.96 113.16 445.715 120.405 432.744 120.405C419.544 120.405 413.235 112.781 412.158 111.337L411.99 111.102L419.773 103.32L419.902 103.485C420.654 104.425 424.66 109.045 430.686 109.045C435.338 109.045 437.395 106.987 437.395 104.393C437.395 96.6106 414.048 100.457 414.048 83.6398C414.048 75.8572 422.367 67.538 433.728 67.538ZM486.595 67.538C501.087 67.538 512 78.4514 512 92.943L511.995 93.5559C511.942 96.7395 511.487 98.5559 511.383 98.663L511.374 98.668H474.608C475.682 103.856 480.333 108.508 488.116 108.508C496.427 108.508 501.035 102.993 501.571 102.314L501.623 102.246L508.869 111.549L508.589 111.844C507.084 113.37 499.553 120.316 487.132 120.316C472.104 120.316 460.206 108.419 460.206 93.927C460.206 79.4354 472.104 67.538 486.595 67.538ZM377.417 68.2502L377.819 68.2537H379.876V82.2085L379.715 82.159C379.249 82.0261 377.769 81.6718 375.225 81.6718C368.076 81.6718 363.452 86.2872 363.33 94.8308L363.327 95.1793V119.511H349.373V68.7009H363.327V74.8732L363.448 74.7238C364.249 73.759 369.019 68.4443 377.02 68.2553L377.417 68.2502ZM293.285 68.6115V119.421H279.33V68.6115H293.285ZM402.15 68.6115V119.421H388.196V68.6115H402.15ZM241.58 80.0616C234.871 80.0616 229.146 85.6972 229.146 94.0164C229.146 102.246 234.871 107.971 241.58 107.971C248.289 107.971 254.014 102.336 254.014 94.0164C254.014 85.6972 248.289 80.0616 241.58 80.0616ZM486.595 79.5249C480.531 79.5249 476.367 83.4966 474.78 88.556L474.698 88.8281H497.956C496.972 83.6398 492.767 79.5249 486.595 79.5249ZM286.128 46.3374C291.317 46.3374 294.448 49.4683 294.448 54.1199C294.448 58.7715 291.317 61.9024 286.128 61.9024C281.477 61.9024 278.346 58.7715 278.346 54.1199C278.346 49.4683 281.477 46.3374 286.128 46.3374ZM394.905 46.3374C400.093 46.3374 403.224 49.4683 403.224 54.1199C403.224 58.7715 400.093 61.9024 394.905 61.9024C390.253 61.9024 387.122 58.7715 387.122 54.1199C387.122 49.4683 390.253 46.3374 394.905 46.3374Z" fill="#683D87"/>
</g>
<defs>
<clipPath id="clip0_1_1120">
<rect width="512" height="148" fill="white"/>
</clipPath>
</defs>
</svg>
