<svg width="256" height="283" viewBox="0 0 256 283" fill="none" xmlns="http://www.w3.org/2000/svg">
<g clip-path="url(#clip0_1_1136)">
<path d="M128.338 0.0776367C121.637 0.0776367 114.935 1.81087 108.93 5.27832L20.2439 56.4813C8.23379 63.4152 0.835693 76.2292 0.835693 90.096V192.503C0.835693 206.371 8.23379 219.185 20.2439 226.118L108.93 277.322C114.935 280.788 121.637 282.521 128.338 282.521C135.039 282.521 141.74 280.788 147.746 277.322L236.432 226.118C248.442 219.185 255.841 206.371 255.841 192.503V90.096C255.841 76.2292 248.442 63.4152 236.432 56.4813L147.746 5.27832C141.74 1.81087 135.039 0.0776367 128.338 0.0776367Z" fill="white"/>
<path d="M236.432 56.4825L147.746 5.27856C135.736 -1.65535 120.941 -1.65535 108.93 5.27856L20.2439 56.4825C8.23379 63.4155 0.835693 76.2294 0.835693 90.0962V192.503C0.835693 206.371 8.23379 219.185 20.2439 226.118L108.93 277.322C120.941 284.256 135.736 284.256 147.746 277.322L236.432 226.118C248.442 219.185 255.841 206.371 255.841 192.503V90.0962C255.841 76.2294 248.442 63.4155 236.432 56.4825ZM243.642 187.605C243.642 200.145 236.952 211.733 226.092 218.004L145.889 264.309C135.028 270.579 121.648 270.579 110.787 264.309L30.5845 218.004C19.7239 211.733 13.034 200.145 13.034 187.605V94.9951C13.034 82.4541 19.7239 70.8664 30.5845 64.5968L110.787 18.2917C121.648 12.0212 135.028 12.0212 145.889 18.2917L226.092 64.5968C236.952 70.8664 243.642 82.4541 243.642 94.9951V187.605Z" fill="#298AEC"/>
<path d="M73.6802 109.916H186.666V119.821H73.6802V109.916Z" fill="#44546C"/>
<path d="M73.6802 143.224H186.666V153.129H73.6802V143.224Z" fill="#44546C"/>
<path d="M73.6802 176.423H186.666V186.328H73.6802V176.423Z" fill="#44546C"/>
</g>
<defs>
<clipPath id="clip0_1_1136">
<rect width="256" height="283" fill="white"/>
</clipPath>
</defs>
</svg>
