<svg width="256" height="256" viewBox="0 0 256 256" fill="none" xmlns="http://www.w3.org/2000/svg">
<g clip-path="url(#clip0_1_1143)">
<path d="M29.2512 254.992C24.4606 253.73 20.3268 251.873 16.5142 249.27C13.2957 247.073 8.59173 242.531 6.80281 239.894C4.61795 236.672 2.10655 231.156 1.08303 227.33C0.0390886 223.427 0.0221687 221.873 0.00343641 128.196C-0.0151875 34.9926 0.00600326 32.9432 1.02923 28.9378C4.6478 14.773 15.8532 3.99576 30.305 0.780639C34.4602 -0.143781 220.08 -0.305463 224.562 0.611458C236.697 3.09367 246.235 10.3915 251.754 21.4161C256.142 30.1808 255.75 20.5358 255.951 124.601C256.079 190.813 255.961 218.611 255.539 222.074C253.563 238.279 242.405 250.849 226.348 254.956C222.241 256.007 220.812 256.022 127.56 255.993C37.3963 255.966 32.7656 255.919 29.2512 254.992Z" fill="#F06A35"/>
<path d="M164.338 206.474C175.808 204.909 184.796 200.312 193.228 191.698C199.328 185.466 203.146 178.72 205.642 169.768C206.678 166.049 206.765 164.238 206.955 142.402C207.098 125.922 206.979 118.203 206.55 116.255C205.928 113.43 204.164 110.807 202.153 109.714C201.534 109.377 197.567 108.948 193.338 108.76C186.251 108.446 185.459 108.308 183.222 106.997C179.674 104.918 178.697 102.672 178.687 96.5766C178.668 84.9295 173.821 74.1163 164.244 64.3571C157.422 57.4044 149.81 52.6983 141.124 50.0613C139.044 49.43 134.388 49.2152 118.792 49.0309C94.3196 48.7417 88.8876 49.2433 80.5564 52.5618C65.1967 58.6797 54.1605 71.5732 50.1348 88.103C49.3787 91.2076 49.2319 96.1833 49.0533 124.766C48.8296 160.574 49.0764 165.832 51.3138 172.928C53.1624 178.791 55.0276 182.384 58.87 187.483C66.1899 197.197 77.1601 204.213 88.1279 206.195C93.3474 207.138 157.743 207.374 164.338 206.474Z" fill="white"/>
<path d="M162.317 150.441C166.551 154.394 165.658 161.432 160.556 164.322L155.313 165.174L124.374 165.532C103.514 165.727 97.2466 165.316 95.9653 164.808L95.9244 164.791C93.4074 163.694 91.0635 160.648 90.6584 157.946C90.2725 155.373 91.5657 151.836 93.5481 150.042L93.9894 149.658C95.9432 148.052 98.1914 147.764 116.624 147.7L137.941 147.677C159.49 147.693 159.679 147.978 162.317 150.441ZM131.944 92.0896C135.23 93.7495 136.658 96.0897 136.658 99.8158C136.658 103.052 135.418 105.356 132.664 107.214L132.13 107.555C130.79 108.354 129.476 108.494 119.089 108.575L112.386 108.613C104.077 108.63 97.6813 108.456 96.6591 108.174C90.7954 106.558 88.6044 98.1451 92.9141 93.7941L93.3154 93.396C95.6225 91.1614 97.0898 90.93 110.607 90.9092L120.793 90.9174C129.401 90.9573 130.088 91.1521 131.944 92.0896Z" fill="#F06A35"/>
</g>
<defs>
<clipPath id="clip0_1_1143">
<rect width="256" height="256" fill="white"/>
</clipPath>
</defs>
</svg>
