<svg width="256" height="256" viewBox="0 0 256 256" fill="none" xmlns="http://www.w3.org/2000/svg">
<g clip-path="url(#clip0_1_1148)">
<path d="M127.756 62.666C106.477 81.9664 93.9016 117.874 91.8025 140.578C97.77 145.269 103.543 150.586 109.487 156.749C110.926 158.058 119.662 166.255 127.766 179.778C135.879 166.26 144.605 158.058 146.044 156.749C151.989 150.586 157.756 145.269 163.724 140.578C161.62 117.869 149.044 81.9618 127.756 62.666Z" fill="#122941"/>
<path d="M153.386 164.077L153.094 164.356C152.82 164.602 126.154 188.853 123.674 225.099C143.444 223.752 164.513 216.234 166.947 215.342C212.086 192.819 221.806 154.371 221.216 123.823C190.552 133.19 172.896 143.797 153.386 164.077Z" fill="#122941"/>
<path d="M121.97 190.789C113.453 174.322 102.614 164.518 102.437 164.356L102.145 164.077C82.6351 143.797 64.974 133.19 34.3144 123.823C33.72 154.371 43.4445 192.819 88.5795 215.342C90.2466 215.95 100.7 219.689 113.481 222.41C114.539 210.48 117.846 199.85 121.97 190.789Z" fill="#122941"/>
<path d="M127.765 19.0496C67.5561 19.0496 18.576 68.0298 18.576 128.234C18.576 188.444 67.5561 237.424 127.765 237.424C187.97 237.424 236.95 188.444 236.95 128.234C236.95 68.0298 187.97 19.0496 127.765 19.0496ZM127.765 256C57.3161 256 0 198.684 0 128.234C0 57.7851 57.3161 0.473633 127.765 0.473633C198.215 0.473633 255.526 57.7851 255.526 128.234C255.526 198.684 198.215 256 127.765 256Z" fill="#122941"/>
</g>
<defs>
<clipPath id="clip0_1_1148">
<rect width="256" height="256" fill="white"/>
</clipPath>
</defs>
</svg>
