<svg width="256" height="298" viewBox="0 0 256 298" fill="none" xmlns="http://www.w3.org/2000/svg">
<g clip-path="url(#clip0_1_1154)">
<path d="M192 112.384L256 150.327V224.768L192 261.248L128 224.768V150.345" fill="#00B46F"/>
<path d="M128 0L192 37.9429V112.384L128 148.864L64 112.384V37.9611" fill="#2294D9"/>
<path d="M192 37.9429L256 75.8857V150.336L192 186.816L128 150.336V75.8857" fill="#2294D9"/>
<path d="M64 37.9429L128 75.8857V150.336L64 186.816L0 150.336V75.8857" fill="#F85551"/>
<path d="M64 112.384L128 150.327V224.768L64 261.248L0 224.768V150.345" fill="#F85551"/>
<path d="M128 148.873L192 186.816V261.257L128 297.737L64 261.257V186.816" fill="#00B46F"/>
<path d="M192 37.9429L128 75.8857L64 37.9429L128 0L192 37.9429ZM256 75.8857L192 113.847L128 75.904L192 37.9611L256 75.904V75.8857Z" fill="#30B2E9"/>
<path d="M128 223.305V148.882L64 186.825V261.248" fill="#00AB64"/>
<path d="M192 186.816L128 223.296L64 186.816L128 148.873" fill="#00CE8E"/>
<path d="M128 223.305L64 186.825L128 148.882V223.305Z" fill="#00C783"/>
<path d="M128 75.8857L64 37.9429L128 0V75.8857Z" fill="#2CAEE7"/>
<path d="M128 75.8855L64 113.847L0 75.9038L64 37.9609" fill="#FB716C"/>
<path d="M256 150.336L192 186.816L128 148.873L192 113.856" fill="#1F8ED6"/>
<path d="M63.0126 260.626L0 224.146L63.0126 186.185V260.626Z" fill="#F64743"/>
<path d="M64 113.847V37.9609L128 75.9038V148.864" fill="#F96560"/>
<path d="M128 148.873V75.8857L64 113.847V186.807" fill="#B71D1D"/>
<path d="M128 148.873L64 113.856L128 75.8857V148.873Z" fill="#B21A1A"/>
<g style="mix-blend-mode:soft-light">
<path d="M256 224.768L192 186.825L256 150.345V224.768Z" fill="#10161A" fill-opacity="0.2"/>
</g>
<path d="M192 261.257V186.816L128 223.296V297.746L192 261.266V261.257ZM256 224.777V150.336L192 186.816V261.257L256 224.777Z" fill="#007233"/>
<path d="M256 224.768L192 186.825L256 150.345V224.768Z" fill="#00682C"/>
<path d="M256 150.336V75.8857L192 113.847V186.807" fill="#0759BA"/>
<path d="M256 150.336L192 113.856L256 75.8857V150.336Z" fill="#0860BF"/>
<path opacity="0.78" d="M0 75.8857L64 112.384L128 75.904L65.4629 114.578L64 186.514L62.5371 114.56L0 75.8857Z" fill="#FEBCB7"/>
<path opacity="0.78" d="M128 75.8857L192 112.384L256 75.904L193.463 114.578L192 186.807L190.537 114.578" fill="#4EDCF8"/>
<path opacity="0.78" d="M64 186.816L128 221.851L192 186.816L129.463 224.027L128 297.691L126.537 224.036L64 186.825V186.816Z" fill="#00F3C9"/>
</g>
<defs>
<clipPath id="clip0_1_1154">
<rect width="256" height="298" fill="white"/>
</clipPath>
</defs>
</svg>
