<svg width="512" height="82" viewBox="0 0 512 82" fill="none" xmlns="http://www.w3.org/2000/svg">
<g clip-path="url(#clip0_1_1187)">
<path d="M124.917 63.6788C122.433 66.4769 117.719 65.7144 109.831 61.3581C105.272 58.8706 100.286 55.4949 95.0137 51.9267L92.9883 50.5687C89.7641 48.4021 86.4294 46.1637 83.2283 44.1998C82.3914 43.6967 81.552 43.1961 80.7793 42.7546L79.1492 41.8535C77.3703 40.8678 75.8326 40.1079 74.5465 39.5689C74.2846 39.4482 74.0254 39.3353 73.707 39.2018V39.1992C73.2142 38.9836 72.7187 38.7731 72.2233 38.5703L71.9435 38.4034H71.8151C63.2694 34.9584 54.2384 33.2128 44.9431 33.2128C37.3574 33.2128 29.9976 34.3885 22.9407 36.6629C35.6272 24.9058 51.7227 13.9778 57.4293 10.6585C59.8937 9.22098 62.9382 8.46113 66.2343 8.46113C69.5458 8.46113 72.747 9.24665 75.2473 10.6739C88.9708 18.4984 123.755 45.124 126.021 58.9939L126.024 59.0144C126.35 60.9474 125.988 62.4722 124.917 63.6788ZM11.3427 65.1214C9.75882 65.1214 8.60878 64.6619 7.73854 63.6839C6.59876 62.3952 6.20087 60.7728 6.52688 58.714C6.65267 57.9054 6.90681 57.0198 7.2893 56.0648C7.31497 55.993 7.35605 55.9159 7.38685 55.8466C7.55628 55.4359 7.73597 55.0175 7.95161 54.5836C8.03375 54.4168 8.139 54.2396 8.22628 54.0702C8.41111 53.716 8.59081 53.3668 8.80131 52.9998L9.00154 52.6712C9.01694 52.6455 9.03748 52.6173 9.05288 52.5916C10.6214 49.9706 13.0832 47.786 16.1765 46.2689C25.1612 41.8638 34.8391 39.6305 44.9431 39.6305C48.6011 39.6305 52.213 39.9257 55.7632 40.5187C55.6195 40.5854 55.4732 40.6676 55.3294 40.7369C54.8699 40.9628 54.4053 41.1964 53.9355 41.4402C53.6839 41.5712 53.4323 41.7021 53.1756 41.8381C52.7007 42.0948 52.2181 42.3593 51.7355 42.6288C51.4968 42.7623 51.2632 42.8906 51.0244 43.0267C50.3929 43.3887 49.7563 43.7609 49.1171 44.1434C48.9811 44.2229 48.8476 44.3025 48.7115 44.3847C48.0441 44.7851 47.3715 45.1984 46.6964 45.6194C46.3934 45.8094 46.088 46.0045 45.7825 46.197C45.3435 46.4743 44.9045 46.7515 44.463 47.0365C44.1216 47.2547 43.7776 47.478 43.4336 47.6988C43.0229 47.9683 42.6096 48.2353 42.1963 48.5074C41.8472 48.7359 41.5006 48.9618 41.1515 49.1928C40.7279 49.4726 40.3018 49.755 39.8782 50.0374C39.5342 50.2658 39.1877 50.4943 38.8437 50.7228C38.148 51.1874 37.4524 51.652 36.7592 52.1167C27.1507 58.5112 17.2162 65.1214 11.3427 65.1214ZM132.352 57.9516C129.353 39.6715 88.9991 11.1283 78.4253 5.09827C74.97 3.12933 70.642 2.04346 66.2343 2.04346C61.8061 2.04346 57.6423 3.10366 54.2025 5.1111C46.0315 9.86275 19.6754 27.9631 7.02746 44.2563C5.73366 45.9223 4.61442 47.5293 3.69284 49.0439L3.46181 49.4136C1.65202 52.4709 0.578988 55.1869 0.186227 57.7232C-0.437571 61.6687 0.512244 65.201 2.93812 67.9452C5.03542 70.2967 7.94134 71.5417 11.3427 71.5417C19.1569 71.5417 29.4328 64.7004 40.4815 57.3484C49.456 51.3466 60.6227 43.8764 66.3242 43.8764C67.2226 43.8764 68.3727 44.11 69.7435 44.5721L70.1003 44.6953C70.4058 44.8005 70.7139 44.9186 71.027 45.0418L71.9589 45.4423C73.1295 45.9326 74.4669 46.5975 76.174 47.5422C76.3717 47.6525 76.577 47.7655 76.6361 47.7912C76.7593 47.8605 76.8825 47.9221 77.0288 47.994L77.5499 48.2994C78.3278 48.7461 79.1236 49.221 79.8962 49.6882C82.9639 51.5648 86.2395 53.7673 89.4098 55.8954L91.4147 57.2405C96.8209 60.9012 101.927 64.359 106.745 66.9851C112.58 70.2068 117.093 71.706 120.946 71.706C124.545 71.706 127.497 70.4404 129.715 67.9401C132.092 65.2626 133.001 61.8099 132.352 57.9516Z" fill="#1D1D1B"/>
<path d="M173.128 55.7547C177.048 55.7547 180.357 54.448 182.972 51.8373C185.586 49.1368 186.89 45.8252 186.89 41.8155C186.89 37.8109 185.586 34.5019 182.972 31.8861C180.357 29.1855 177.048 27.8789 173.128 27.8789C169.208 27.8789 165.899 29.1855 163.283 31.8861C160.67 34.5019 159.363 37.8109 159.363 41.8155C159.363 45.8252 160.67 49.1368 163.283 51.8373C165.899 54.448 169.208 55.7547 173.128 55.7547ZM189.942 25.5274C194.209 29.9685 196.298 35.3721 196.298 41.8155C196.298 48.1767 194.209 53.6651 189.942 58.1087C185.673 62.5497 180.618 64.7291 174.609 64.7291C167.988 64.7291 162.934 62.2904 159.363 57.3231V63.5971H149.955V2.61636H159.363V26.2231C162.934 21.3457 167.988 18.907 174.609 18.907C180.618 18.907 185.673 21.0838 189.942 25.5274ZM221.912 55.5816C225.745 55.5816 228.969 54.275 231.582 51.6617C234.195 49.0485 235.502 45.7369 235.502 41.817C235.502 37.8971 234.195 34.5856 231.582 31.9749C228.969 29.359 225.745 28.0524 221.912 28.0524C218.079 28.0524 214.855 29.359 212.242 31.9749C209.629 34.5856 208.322 37.8971 208.322 41.817C208.322 45.7369 209.629 49.0485 212.242 51.6617C214.855 54.275 218.079 55.5816 221.912 55.5816ZM205.621 58.1076C201.178 53.664 198.914 48.2629 198.914 41.817C198.914 35.3711 201.178 29.9674 205.621 25.5264C210.065 21.0854 215.551 18.9059 221.912 18.9059C228.358 18.9059 233.759 21.0854 238.203 25.5264C242.644 29.9674 244.91 35.3711 244.91 41.817C244.91 48.2629 242.644 53.664 238.203 58.1076C233.759 62.5512 228.358 64.7281 221.912 64.7281C215.551 64.7281 210.065 62.5512 205.621 58.1076ZM270.521 55.5816C274.353 55.5816 277.578 54.275 280.193 51.6617C282.804 49.0485 284.111 45.7369 284.111 41.817C284.111 37.8971 282.804 34.5856 280.193 31.9749C277.578 29.359 274.353 28.0524 270.521 28.0524C266.688 28.0524 263.466 29.359 260.851 31.9749C258.24 34.5856 256.931 37.8971 256.931 41.817C256.931 45.7369 258.24 49.0485 260.851 51.6617C263.466 54.275 266.688 55.5816 270.521 55.5816ZM254.23 58.1076C249.789 53.664 247.522 48.2629 247.522 41.817C247.522 35.3711 249.789 29.9674 254.23 25.5264C258.674 21.0854 264.162 18.9059 270.521 18.9059C276.969 18.9059 282.368 21.0854 286.814 25.5264C291.255 29.9674 293.519 35.3711 293.519 41.817C293.519 48.2629 291.255 53.664 286.814 58.1076C282.368 62.5512 276.969 64.7281 270.521 64.7281C264.162 64.7281 258.674 62.5512 254.23 58.1076ZM319.305 55.7547C323.225 55.7547 326.536 54.448 329.15 51.8373C331.766 49.1368 333.07 45.8252 333.07 41.8155C333.07 37.8109 331.766 34.5019 329.15 31.8861C326.536 29.1855 323.225 27.8789 319.305 27.8789C315.388 27.8789 312.076 29.1855 309.463 31.8861C306.847 34.5019 305.543 37.8109 305.543 41.8155C305.543 45.8252 306.847 49.1368 309.463 51.8373C311.913 54.2849 314.977 55.5862 318.578 55.7393L319.305 55.7547ZM333.07 20.039H342.478V81.0197H333.07V57.413C329.499 62.2904 324.447 64.7291 317.826 64.7291C311.814 64.7291 306.76 62.5497 302.493 58.1087C298.224 53.6651 296.135 48.264 296.135 41.8155C296.135 35.4594 298.224 30.0557 302.493 25.6147C306.76 21.1711 311.814 18.907 317.826 18.907C324.447 18.907 329.499 21.3457 333.07 26.3104V20.039ZM370.704 55.7547C374.622 55.7547 377.933 54.448 380.549 51.8373C383.162 49.1368 384.466 45.8252 384.466 41.8155C384.466 37.8109 383.162 34.5019 380.549 31.8861C377.933 29.1855 374.622 27.8789 370.704 27.8789C366.784 27.8789 363.473 29.1855 360.859 31.8861C358.246 34.5019 356.94 37.8109 356.94 41.8155C356.94 45.8252 358.246 49.1368 360.859 51.8373C363.309 54.2849 366.373 55.5862 369.976 55.7393L370.704 55.7547ZM384.466 20.039H393.875V63.5971H384.466V57.3231C380.895 62.2904 375.843 64.7291 369.223 64.7291C363.211 64.7291 358.159 62.5497 353.89 58.1087C349.621 53.6651 347.531 48.1767 347.531 41.8155C347.531 35.3721 349.621 29.9685 353.89 25.5274C358.159 21.0838 363.211 18.907 369.223 18.907C375.843 18.907 380.895 21.3457 384.466 26.2231V20.039ZM424.54 55.7547C428.46 55.7547 431.769 54.448 434.382 51.8373C436.998 49.1368 438.302 45.8252 438.302 41.8155C438.302 37.8109 436.998 34.5019 434.382 31.8861C431.769 29.1855 428.46 27.8789 424.54 27.8789C420.62 27.8789 417.311 29.1855 414.695 31.8861C412.079 34.5019 410.775 37.8109 410.775 41.8155C410.775 45.8252 412.079 49.1368 414.695 51.8373C417.311 54.448 420.62 55.7547 424.54 55.7547ZM441.352 25.5274C445.621 29.9685 447.71 35.3721 447.71 41.8155C447.71 48.1767 445.621 53.6651 441.352 58.1087C437.085 62.5497 432.031 64.7291 426.019 64.7291C419.401 64.7291 414.346 62.2904 410.775 57.3231V63.5971H401.367V2.61636H410.775V26.2231C414.346 21.3457 419.401 18.907 426.019 18.907C432.031 18.907 437.085 21.0838 441.352 25.5274ZM452.764 63.594H462.172V0H452.764V63.594ZM502.507 38.1587C501.2 31.1018 496.236 27.4438 490.049 27.4438C483.082 27.4438 478.202 31.5382 476.893 38.1587H502.507ZM476.983 45.824C478.377 52.4444 483.69 56.1051 490.919 56.1051C495.887 56.1051 499.632 54.2747 502.158 50.704L509.91 55.2323C505.644 61.5935 499.283 64.7304 490.832 64.7304C483.778 64.7304 478.027 62.551 473.671 58.2819C469.315 53.9282 467.138 48.4398 467.138 41.8168C467.138 35.2836 469.315 29.8825 473.584 25.5262C477.853 21.0851 483.426 18.9057 490.136 18.9057C496.495 18.9057 501.721 21.1724 505.816 25.6134C509.91 30.057 512 35.5429 512 41.904C512 42.8641 511.915 44.1708 511.653 45.824H476.983Z" fill="black"/>
</g>
<defs>
<clipPath id="clip0_1_1187">
<rect width="512" height="82" fill="white"/>
</clipPath>
</defs>
</svg>
