<svg width="256" height="204" viewBox="0 0 256 204" fill="none" xmlns="http://www.w3.org/2000/svg">
<g clip-path="url(#clip0_1_1191)">
<path d="M53.1721 0C38.5649 0 27.7565 12.7848 28.2403 26.65C28.7045 39.9707 28.1014 57.2225 23.7581 71.2917C19.4018 85.402 12.0342 94.3403 0 95.488V108.444C12.0342 109.592 19.4018 118.53 23.7581 132.641C28.1014 146.71 28.7045 163.961 28.2403 177.282C27.7565 191.145 38.5649 203.932 53.1742 203.932H202.847C217.455 203.932 228.261 191.147 227.777 177.282C227.313 163.961 227.916 146.71 232.259 132.641C236.618 118.53 243.966 109.592 256 108.444V95.488C243.966 94.3403 236.618 85.402 232.259 71.2917C227.916 57.2247 227.313 39.9707 227.777 26.65C228.261 12.787 217.455 0 202.847 0H53.1699H53.1721ZM173.559 125.533C173.559 144.625 159.319 156.203 135.687 156.203H95.4576C93.0613 156.203 91.1186 154.261 91.1186 151.864V52.0678C91.1186 49.6714 93.0613 47.7288 95.4576 47.7288H135.457C155.162 47.7288 168.094 58.4027 168.094 74.7911C168.094 86.2937 159.395 96.5923 148.311 98.3951V98.9961C163.4 100.651 173.559 111.1 173.559 125.533ZM131.3 61.4834H108.362V93.8826H127.681C142.616 93.8826 150.851 87.8687 150.851 77.1189C150.851 67.046 143.77 61.4834 131.3 61.4834ZM108.362 106.739V142.444H132.144C147.692 142.444 155.93 136.205 155.93 124.479C155.93 112.751 147.463 106.737 131.144 106.737H108.362V106.739Z" fill="#7E13F8"/>
</g>
<defs>
<clipPath id="clip0_1_1191">
<rect width="256" height="204" fill="white"/>
</clipPath>
</defs>
</svg>
