<svg width="256" height="300" viewBox="0 0 256 300" fill="none" xmlns="http://www.w3.org/2000/svg">
<g clip-path="url(#clip0_1_1266)">
<path d="M91.3515 212.096C94.206 212.096 96.5429 214.411 96.5429 217.273L96.5285 246.652C96.5285 249.506 98.3332 250.369 100.548 248.557L141.086 215.374C143.301 213.562 147.442 212.089 150.297 212.089L217.36 212.132C225.327 211.664 232.1 202.274 232.582 194.753L232.495 101.05C232.495 98.1957 234.832 96.47 237.694 96.47H250.679C253.534 96.47 255.871 98.1885 255.871 101.05L256 197.118C256 217.891 240.289 240.274 216.921 240.274H158.652C155.797 240.274 151.649 239.347 149.441 241.151L77.1509 299.112C74.9363 300.923 73.1316 299.464 73.1316 296.609L73.1603 240.943C73.1603 238.095 70.8235 235.6 67.969 235.6L41.9189 235.565C21.6138 235.565 1.10729 215.72 0 195.4V154.955C0 152.093 3.72453 153.984 6.58623 153.984H19.5717C22.4262 153.984 24.7631 154.207 24.7631 157.062L24.8997 194.961C24.8997 202.281 34.0456 211.434 41.6025 212.599L91.3515 212.096ZM57.7445 132.177C56.4143 134.708 52.9918 136.771 50.1301 136.771H6.58623C3.73172 136.771 1.3949 134.434 1.3949 131.58V118.594C1.3949 115.74 3.73172 113.403 6.58623 113.403H36.0085C38.863 113.403 42.2928 111.332 43.623 108.808L83.0181 33.98C84.3483 31.4562 86.6779 31.3627 88.195 33.7786L121.45 86.6842C122.974 89.1072 125.347 89.0353 126.727 86.5332L173.111 2.60192C174.492 0.106915 176.886 0.0278229 178.432 2.42935L210.234 51.8979C211.78 54.2995 215.375 56.2624 218.237 56.2624H250.672C253.527 56.2624 255.863 58.5992 255.863 61.4609V74.4392C255.863 77.2937 253.527 79.6377 250.672 79.6377H205.46C202.606 79.6377 199.003 77.6748 197.457 75.2733L179.913 48.0584C178.367 45.6569 175.966 45.7359 174.585 48.2381L128.022 132.457C126.641 134.952 124.268 135.017 122.744 132.608L90.0142 80.5006C88.497 78.0847 86.1602 78.171 84.83 80.6947L57.7445 132.177Z" fill="#0385CD"/>
</g>
<defs>
<clipPath id="clip0_1_1266">
<rect width="256" height="300" fill="white"/>
</clipPath>
</defs>
</svg>
