<svg width="256" height="252" viewBox="0 0 256 252" fill="none" xmlns="http://www.w3.org/2000/svg">
<g clip-path="url(#clip0_1_1269)">
<path d="M51.5348 251.616C36.495 251.616 23.7863 240.035 21.6808 225.296C21.4552 223.191 0.625026 34.742 0.625026 32.6364C0.399429 32.11 0.0986328 31.5836 0.0986328 31.0572L0.148766 24.7405C0.148766 19.4766 2.20421 14.2126 6.41536 11.0543C9.92465 6.31672 17.996 0 128.012 0C237.778 0 245.924 6.31672 249.609 11.0543C253.319 14.739 255.4 19.4766 255.4 25.2669L255.324 30.5308C255.324 31.5836 255.4 32.11 254.873 33.1628L232.514 225.296C232.514 225.823 232.238 226.349 232.238 226.876C229.506 241.088 216.973 251.616 202.76 251.616H51.5348Z" fill="#E5D1BF"/>
<path d="M247.554 24.9511C247.554 21.2663 246.075 18.108 243.969 16.0024C238.53 9.68565 188.698 7.58008 127.636 7.58008C66.8254 7.58008 17.0937 9.15926 11.3034 15.476C9.17277 18.1079 7.61865 20.7399 7.61865 24.4247L7.66879 30.215C7.66879 30.7414 7.61865 31.2678 8.14505 31.7942C7.91945 32.3206 29.2008 223.928 29.2008 223.928C30.7298 234.982 40.2551 243.404 51.3093 243.404H202.434C213.965 243.404 223.44 234.982 224.493 223.928H224.743L247.303 31.7942V30.215V24.9511H247.554Z" fill="#FEF9EC"/>
<path d="M127.11 29.1622C185.544 29.1622 232.915 26.5698 232.915 23.3719C232.915 20.174 185.544 17.5815 127.11 17.5815C68.6752 17.5815 21.3047 20.174 21.3047 23.3719C21.3047 26.5698 68.6752 29.1622 127.11 29.1622Z" fill="#E5D1BF"/>
<path d="M213.965 205.504C213.714 212.347 208.701 217.611 201.858 217.611H52.2868C45.7696 217.611 40.7813 212.347 40.255 205.504C39.2523 187.607 32.8854 133.914 32.8854 133.914C32.7351 129.177 34.991 126.545 40.255 126.545H213.965C218.727 126.545 221.334 129.177 221.334 133.914C221.485 133.914 214.491 187.607 213.965 205.504Z" fill="url(#paint0_linear_1_1269)"/>
<path opacity="0.65" d="M97.1555 136.336C94.1475 140.021 94.8494 145.811 99.0605 148.97L131.747 174.763C135.758 177.395 141.698 176.868 144.33 172.657L169.848 139.494C172.856 135.81 172.229 130.019 168.018 126.861L135.256 101.068C131.246 98.4358 125.38 98.9622 122.222 103.173L97.1555 136.336Z" fill="#FEF9EC"/>
<path opacity="0.65" d="M65.8225 112.122C60.8092 112.648 57.4754 117.386 58.0018 122.124L63.3159 163.709C64.0679 168.973 68.5297 172.131 73.7936 171.605L114.702 166.341C119.715 165.288 123.275 161.077 122.222 155.813L117.209 114.228C116.457 109.49 111.694 105.805 106.956 106.858L65.8225 112.122Z" fill="#FEF9EC"/>
</g>
<defs>
<linearGradient id="paint0_linear_1_1269" x1="8823.68" y1="-63.6596" x2="9297.38" y2="12731" gradientUnits="userSpaceOnUse">
<stop stop-color="#FF992E"/>
<stop offset="0.635" stop-color="#FF4C2E"/>
<stop offset="1" stop-color="#E3302E"/>
</linearGradient>
<clipPath id="clip0_1_1269">
<rect width="256" height="252" fill="white"/>
</clipPath>
</defs>
</svg>
