<svg width="256" height="225" viewBox="0 0 256 225" fill="none" xmlns="http://www.w3.org/2000/svg">
<g clip-path="url(#clip0_1_1277)">
<path d="M250.863 110.127C237.737 97.5156 172.105 89.6425 151.395 87.3507C152.398 84.9816 153.252 82.5313 153.958 80.0083C156.781 78.7719 159.828 77.6215 162.979 76.661C163.363 77.7937 165.172 82.1335 166.203 84.1931C207.846 85.3418 209.984 53.2464 211.678 44.4536C213.334 35.856 213.25 27.5487 227.534 12.362C206.253 6.16058 175.65 21.9736 165.4 45.5096C161.548 44.0662 157.687 43.0003 153.869 42.341C151.132 31.3032 136.883 0.551758 99.4919 0.551758C52.1501 0.551758 0.551758 39.6078 0.551758 105.722C0.551758 161.297 38.4949 210.002 59.9327 210.002C69.2949 210.002 77.3484 202.991 79.2392 196.706C80.8243 201.015 85.6878 214.411 87.285 217.821C89.6458 222.864 100.564 227.228 105.342 221.995C111.485 225.407 122.758 227.463 128.902 218.361C140.733 220.864 151.193 213.809 151.422 205.39C157.228 205.08 160.076 196.928 158.808 190.436C157.873 185.656 147.89 168.506 143.996 162.586C151.704 168.856 171.23 170.631 173.602 162.59C186.03 172.345 205.399 167.225 206.935 159.291C222.037 163.215 239.358 154.597 236.514 144.159C260.775 142.482 257.67 116.669 250.863 110.127Z" fill="#543729"/>
<path d="M183.312 55.076C188.537 44.7085 195.103 33.3882 203.396 26.3846C194.268 30.0635 185.256 41.0611 179.927 52.8155C177.211 51.0892 174.454 49.5493 171.673 48.2026C179.106 32.3361 196.379 19.0853 215.414 18.0503C202.664 29.6133 207.19 53.6464 196.707 66.3692C193.707 63.3562 186.819 57.5416 183.312 55.076ZM175.07 71.9582C175.075 71.5615 175.224 68.501 175.502 67.1041C174.771 66.9319 170.227 66.0431 167.858 66.0988C167.686 69.0743 169.108 74.1364 170.515 77.1835C180.2 76.9805 187.196 74.0801 191.314 71.4136C187.808 69.7794 181.826 68.3267 177.278 67.4577C176.77 68.5077 175.521 71.183 175.07 71.9582Z" fill="#00ACEE"/>
<path d="M139.08 153.981L139.09 154.027C137.863 151.386 136.559 148.177 135.002 143.983C141.064 152.807 160.065 148.256 159.068 140.348C168.368 147.346 187.511 139.183 183.159 129.371C192.475 133.712 203.108 124.977 200.723 121.171C216.606 124.235 231.826 127.288 236.604 128.511C233.43 133.686 226.201 137.34 215.305 134.801C221.193 142.822 209.761 152.444 193.838 147.144C197.343 155.019 183.166 162.108 167.053 153.9C167.258 161.778 147.064 162.685 139.08 153.981ZM170.587 114.165C189.02 115.58 219.504 118.328 238.376 120.97C237.184 114.828 233.927 113.073 223.682 110.321C212.664 111.496 184.71 114.242 170.587 114.165Z" fill="#2BAF2B"/>
<path d="M159.068 140.348C168.368 147.346 187.511 139.182 183.159 129.371C192.475 133.712 203.108 124.977 200.723 121.171C181.946 117.551 162.242 113.917 157.773 113.282C160.484 113.426 164.978 113.734 170.587 114.165C184.71 114.243 212.664 111.497 223.682 110.322C205.842 105.798 169.417 99.1968 144.262 97.5703C143.096 99.274 140.953 102.163 137.221 105.234C126.215 128.52 106.274 143.999 84.2103 143.999C77.7805 143.999 70.5866 142.914 62.5231 140.337C57.4947 145.724 36.0553 149.806 18.6594 141.267C32.458 173.577 64.458 195.145 99.8793 195.145C129.711 195.145 142.939 164.683 140.044 156.622C139.342 154.665 136.558 148.177 135.001 143.983C141.064 152.807 160.064 148.256 159.068 140.348Z" fill="#FFCC2F"/>
<path d="M140.989 79.0392C143.623 77.6063 152.725 72.0891 161.399 70.0157C161.262 69.0552 161.159 68.0863 161.095 67.112C155.405 68.4748 144.676 73.0728 138.528 66.7363C151.499 70.6502 157.975 63.2488 167.508 63.2488C173.189 63.2488 181.295 64.8356 187.684 67.3443C182.545 62.5967 165.692 48.2684 144.826 48.2188C140.167 53.8667 135.132 66.1012 140.989 79.0392Z" fill="#CECECE"/>
<path d="M62.523 140.337C70.5865 142.914 77.7804 143.999 84.2102 143.999C106.274 143.999 126.214 128.52 137.22 105.234C129.08 112.029 114.933 117.843 92.8391 117.843C112.519 113.38 129.46 103.574 138.078 89.2387C132.02 79.5967 125.449 58.266 142.088 41.4031C139.529 33.1802 127.071 11.4731 99.4918 11.4731C51.3616 11.4731 11.4736 51.7474 11.4736 105.721C11.4736 118.498 14.0529 130.481 18.6598 141.267C36.0551 149.806 57.4946 145.724 62.523 140.337Z" fill="#EF5734"/>
<path d="M76.9634 58.1554C76.9634 70.4324 86.9159 80.386 99.1935 80.386C111.471 80.386 121.425 70.4324 121.425 58.1554C121.425 45.8779 111.471 35.9248 99.1935 35.9248C86.9159 35.9248 76.9634 45.8779 76.9634 58.1554Z" fill="#FFCC2F"/>
<path d="M85.8835 58.1555C85.8835 65.5056 91.8433 71.4647 99.1928 71.4647C106.544 71.4647 112.503 65.5056 112.503 58.1555C112.503 50.8049 106.545 44.8457 99.1928 44.8457C91.8433 44.8457 85.8835 50.8049 85.8835 58.1555Z" fill="#543729"/>
<path d="M99.1928 57.0719C103.476 57.0719 106.948 54.913 106.948 52.2498C106.948 49.5867 103.476 47.4277 99.1928 47.4277C94.9095 47.4277 91.4373 49.5867 91.4373 52.2498C91.4373 54.913 94.9095 57.0719 99.1928 57.0719Z" fill="white"/>
</g>
<defs>
<clipPath id="clip0_1_1277">
<rect width="256" height="225" fill="white"/>
</clipPath>
</defs>
</svg>
