<svg width="512" height="121" viewBox="0 0 512 121" fill="none" xmlns="http://www.w3.org/2000/svg">
<g clip-path="url(#clip0_1_1314)">
<path d="M423.764 25.8091V95.202C420.792 96.0704 417.768 96.7451 414.708 97.2221C410.904 97.7458 407.066 97.9825 403.226 97.9303C399.886 97.9415 396.561 97.4663 393.358 96.5197C390.328 95.6307 387.519 94.1181 385.109 92.0789C382.732 90.0097 380.852 87.4333 379.608 84.5415L379.472 84.2189C378.091 81.0146 377.394 77.0381 377.394 72.4058C377.372 68.8581 377.978 65.3345 379.182 61.9974C380.302 58.8606 382.044 55.982 384.302 53.5337C386.592 51.1156 389.354 49.1932 392.417 47.8855C395.625 46.5206 399.073 45.8138 402.557 45.8052L402.959 45.8073C404.12 45.8073 405.357 45.8537 406.605 45.9524C407.825 46.0467 409.034 46.2566 410.215 46.5794L410.668 46.7071V25.8091H423.764ZM331.645 47.543C334.548 48.7923 337.129 50.6862 339.191 53.081C341.248 55.5217 342.769 58.3677 343.655 61.4343C344.601 64.6453 345.093 67.9719 345.118 71.3175L345.118 71.8195C345.146 75.3001 344.653 78.7653 343.655 82.1001C342.762 85.1298 341.252 87.9421 339.22 90.3606C337.168 92.7422 334.596 94.621 331.703 95.8521C328.315 97.24 324.676 97.9139 321.016 97.8316C317.386 97.9086 313.779 97.2347 310.422 95.8521C307.565 94.6162 305.032 92.7368 303.02 90.3606C301.011 87.926 299.502 85.1189 298.58 82.1001C297.601 78.9218 297.095 75.618 297.075 72.2944L297.076 71.8195C297.052 68.3037 297.559 64.8046 298.58 61.4401C299.486 58.3849 300.996 55.5425 303.02 53.081C305.043 50.6928 307.584 48.7986 310.451 47.543C313.789 46.126 317.39 45.4335 321.016 45.5113C324.662 45.4335 328.284 46.1258 331.645 47.543ZM258.165 25.7104V95.0742C255.193 95.9487 252.166 96.6236 249.104 97.0944C245.563 97.5916 241.992 97.8394 238.417 97.8362L237.65 97.8316C234.309 97.8451 230.984 97.3679 227.782 96.4152C224.749 95.533 221.937 94.0219 219.527 91.9802C217.154 89.9092 215.277 87.3331 214.032 84.4427L213.896 84.1202C212.509 80.8869 211.812 76.9104 211.812 72.3071C211.803 68.7565 212.416 65.2318 213.624 61.8929C214.753 58.762 216.493 55.8869 218.744 53.4351C221.017 51.0205 223.761 49.0981 226.807 47.7868C230.015 46.4208 233.463 45.7139 236.947 45.7064L237.349 45.7086C238.428 45.7086 239.624 45.7551 240.994 45.8537C242.215 45.9498 243.423 46.1597 244.605 46.4807L245.058 46.6084V25.7104H258.165ZM454.124 45.5113C457.316 45.4515 460.483 46.077 463.412 47.3456C466.037 48.5098 468.386 50.2172 470.303 52.3553C472.24 54.5473 473.703 57.1167 474.598 59.9018C475.567 62.9632 476.043 66.159 476.009 69.3698C476.009 70.6004 475.957 71.8253 475.858 73.0153L475.787 73.8292C475.717 74.5696 475.652 75.1051 475.574 75.5753H442.921V75.9584C443.193 79.9813 444.633 82.9244 447.193 84.753C449.753 86.5816 453.085 87.4639 457.207 87.4639C459.528 87.5591 461.852 87.3404 464.115 86.8137L470.372 85.0722L472.95 94.993C467.737 96.8748 462.238 97.8359 456.698 97.8347L456.162 97.8316C451.518 97.8316 447.495 97.1757 444.186 95.8927C438.025 93.6929 433.292 88.6712 431.462 82.3903C429.441 75.6179 429.457 68.4008 431.508 61.6375C432.464 58.5574 434.023 55.6981 436.094 53.2261C438.169 50.8187 440.744 48.8931 443.64 47.5836C446.944 46.1441 450.521 45.4371 454.124 45.5113ZM132.021 44.2222H132.54C140.556 44.2222 147.365 46.2543 150.761 49.6444C153.867 52.7559 155.249 57.7191 155.249 65.7416V94.8827L154.531 95.0982C152.451 95.7066 149.993 96.2954 147.209 96.8564C143.803 97.4947 140.347 97.8216 136.884 97.8335L136.191 97.8316C133.148 97.8518 130.111 97.5541 127.129 96.9435C124.615 96.4564 122.225 95.4694 120.099 94.041C118.184 92.7381 116.639 90.9624 115.612 88.8861C114.49 86.4507 113.947 83.788 114.027 81.1074C113.935 78.4072 114.616 75.7368 115.99 73.41C117.259 71.369 118.996 69.6597 121.057 68.4235C123.228 67.1445 125.596 66.2325 128.064 65.7242C130.615 65.1758 133.216 64.8975 135.825 64.8941C137.7 64.8941 139.802 64.9928 142.071 65.1902H142.46V63.6809C142.46 58.3925 138.321 55.4784 130.804 55.4784C126.516 55.4884 122.272 56.3466 118.317 58.0036V46.6026C122.722 45.0517 127.354 44.2475 132.021 44.2222ZM45.6229 25.7104L46.0916 25.7095C49.4878 25.6963 52.8782 25.9896 56.2214 26.587C59.1264 27.0782 61.9225 28.0764 64.4818 29.5359C66.7658 30.8621 68.6646 32.7609 69.9908 35.0449C71.3259 37.3262 72.0051 40.2287 72.0051 43.6827C72.0215 45.6261 71.7135 47.5586 71.0937 49.4006C70.5369 51.0575 69.7134 52.6124 68.6556 54.004C67.6733 55.2644 66.4978 56.3615 65.1726 57.2547C64.019 58.0627 62.6971 58.5986 61.3065 58.8221V59.5303C62.9915 59.7814 64.6402 60.2335 66.2175 60.8771C68.0522 61.6167 69.7421 62.6739 71.2098 64.0001C72.8326 65.4982 74.1358 67.3089 75.0411 69.3233C76.0931 71.6953 76.6339 74.2607 76.6298 76.8529L76.6259 77.2065C76.6259 81.3687 75.8364 84.8226 74.3039 87.4639C72.761 90.0828 70.5596 92.2522 67.9184 93.7565C65.0397 95.3708 61.8933 96.4524 58.6304 96.9492C54.9379 97.5482 51.2024 97.8433 47.4616 97.8323C44.5591 97.8323 41.5405 97.7445 38.5626 97.582C35.7588 97.4311 32.595 97.135 28.9031 96.688V26.7437C30.8059 26.458 32.9489 26.2024 35.2811 26.0372L36.4651 25.9581C38.9769 25.8013 42.0509 25.7171 45.6229 25.7104ZM364.402 25.7104V76.8234C364.375 78.4826 364.49 80.1411 364.745 81.7808C364.911 82.864 365.307 83.8992 365.906 84.8168C366.418 85.5484 367.153 86.0943 368.001 86.3726C368.989 86.6696 370.018 86.8087 371.049 86.7847C371.578 86.795 372.108 86.7698 372.634 86.7093C373.986 89.4376 376.192 92.1021 379.902 95.4748L375.765 96.2911C373.854 96.6627 372.102 96.9935 371.695 97.0386L371.659 97.0421C370.12 97.1756 368.803 97.2395 367.601 97.2395C362.69 97.2395 358.696 95.8695 355.736 93.176C352.775 90.4825 351.295 86.001 351.295 79.8594V25.7104H364.402ZM507.89 46.1092H508.616C509.107 46.1024 509.598 46.1354 510.084 46.2078L511.634 46.4517L511.361 57.9804C510.681 57.8857 509.994 57.841 509.307 57.8469H507.704C506.433 57.8577 505.165 57.9742 503.914 58.1952C502.422 58.4682 501.024 59.1153 499.85 60.076C498.413 61.2989 497.311 62.8669 496.646 64.6329C495.81 66.6472 495.386 69.4626 495.386 73.0037V96.7577L482.18 96.7461V46.6897L495.369 46.7883V53.4351L496.019 52.5121C497.319 50.6719 498.062 50.1088 499.844 48.7446L500.262 48.4312C502.475 46.8281 505.16 46.0108 507.89 46.1092ZM108.495 46.0917H109.227C109.718 46.085 110.209 46.118 110.695 46.1904L112.251 46.4342L111.972 57.963C111.292 57.868 110.605 57.8234 109.917 57.8294H108.304C107.035 57.8403 105.769 57.9568 104.519 58.1777C103.026 58.4481 101.627 59.0955 100.455 60.0586C99.0184 61.2802 97.9174 62.8488 97.2568 64.6155C96.4209 66.624 95.9971 69.4452 95.9971 72.9863V96.7403L82.7792 96.7461V46.6897L96.0378 46.7883L95.9855 53.406L96.6473 52.4772C97.755 50.9146 98.4498 50.2787 99.7187 49.2993L100.879 48.4137C103.088 46.8115 105.769 45.9942 108.495 46.0917ZM295.224 24.7991L299.241 25.6524L297.314 35.9388L295.422 35.5615C294.362 35.3739 293.287 35.2903 292.212 35.3119C290.144 35.2267 288.105 35.82 286.407 37.0011C284.775 38.226 283.91 40.7163 283.91 44.1993V46.7129H300.426C298.912 47.7606 297.545 49.0062 296.362 50.4165C294.828 52.2761 293.584 54.3564 292.67 56.5872H283.91V96.6706L270.809 96.6474V56.5639H262.769V46.6955H270.809V43.88C270.764 41.0659 271.238 38.2675 272.208 35.6254C273.064 33.3442 274.426 31.2863 276.19 29.6056C277.973 27.9396 280.082 26.6608 282.384 25.8498C284.81 25.0123 287.356 24.5752 289.921 24.5548L291.474 24.5552C292.729 24.513 293.985 24.5947 295.224 24.7991ZM189.788 45.5113C195.402 45.5113 199.686 47.0554 202.513 50.103C205.34 53.1506 206.785 58.0558 206.785 64.6561V96.6474H193.579V68.3887C193.579 64.8186 192.998 62.0032 191.913 60.0702C190.827 58.1371 188.761 57.0458 185.963 57.0458C184.773 57.0556 183.59 57.2255 182.445 57.5508C181.174 57.9169 180.02 58.607 179.096 59.5535C178 60.7254 177.184 62.1306 176.71 63.6635C176.041 65.8592 175.735 68.1494 175.804 70.4437V96.6474H162.604V46.6897H175.775V53.2551L176.431 52.2741C176.595 51.992 176.792 51.7305 177.018 51.495L177.352 51.1603C177.466 51.0439 177.609 50.8948 177.801 50.6893C178.73 49.704 179.775 48.8347 180.913 48.1003C182.158 47.3085 183.5 46.6803 184.906 46.2311C186.486 45.7359 188.133 45.493 189.788 45.5113ZM321.016 55.6758C317.307 55.6758 314.578 57.1038 312.889 59.9192C311.2 62.7347 310.439 66.6762 310.439 71.8195C310.439 76.9627 311.264 80.9623 312.889 83.7139C314.514 86.4655 317.283 87.9573 321.016 87.9573C324.749 87.9573 327.552 86.5293 329.213 83.7139C330.873 80.8985 331.668 76.9511 331.668 71.8195C331.668 66.6879 330.884 62.694 329.236 59.9192C327.587 57.1445 324.818 55.6758 321.016 55.6758ZM137.073 72.9282C133.811 72.9282 131.193 73.5087 129.289 74.6697C127.385 75.8307 126.322 77.8508 126.322 80.5211C126.322 82.2975 126.711 83.6907 127.483 84.6601C128.196 85.5932 129.141 86.3236 130.223 86.7789C131.189 87.1834 132.208 87.4453 133.249 87.5569L133.561 87.5858C134.722 87.6903 135.726 87.7367 136.58 87.7367C137.585 87.7354 138.589 87.6519 139.581 87.4871L140.518 87.3289C141.114 87.2265 141.651 87.1311 142.135 87.0459L142.431 86.9879V73.4739L142.129 73.4274C141.352 73.2939 140.487 73.1778 139.564 73.0791C138.737 72.9857 137.905 72.9353 137.073 72.9282ZM398.222 57.1386C396.611 58.0308 395.222 59.275 394.159 60.7784C393.044 62.3865 392.242 64.1905 391.796 66.0957C391.33 68.0139 391.08 69.9776 391.05 71.9504L391.047 72.4058C390.995 74.7559 391.334 77.0983 392.052 79.3369C392.613 81.0657 393.567 82.6413 394.838 83.9403C396.026 85.0872 397.468 85.9384 399.047 86.4248C400.741 86.9327 402.502 87.1832 404.271 87.1679C405.368 87.1679 406.401 87.1214 407.342 87.0285C408.252 86.9165 409.153 86.7359 410.035 86.4885L410.674 86.3029V56.6394L410.401 56.5756C409.34 56.2927 408.262 56.0755 407.174 55.9254C406.129 55.8149 405.078 55.7645 404.027 55.7745C402.008 55.7309 400.011 56.2003 398.222 57.1386ZM232.623 57.0458C230.999 57.928 229.599 59.1712 228.531 60.6797C227.415 62.2864 226.615 64.091 226.174 65.9971C225.675 68.0632 225.426 70.1816 225.431 72.3071C225.379 74.6548 225.716 76.995 226.429 79.2324C226.986 80.9652 227.94 82.5437 229.216 83.8416C230.401 84.9935 231.844 85.8454 233.424 86.3261C235.118 86.8366 236.88 87.089 238.649 87.075C239.752 87.075 240.785 87.0227 241.726 86.9298C242.647 86.8233 243.558 86.6434 244.45 86.3919L245.087 86.2042V56.5465L244.82 56.4769C243.756 56.1929 242.677 55.9757 241.586 55.8267C240.537 55.7143 239.483 55.6639 238.428 55.6758C236.408 55.6302 234.41 56.1018 232.623 57.0458ZM49.1472 65.4857L42.3765 65.4862V86.5409L42.6841 86.5874C43.6129 86.7151 44.6985 86.8137 45.9001 86.8834C47.1017 86.9531 48.1582 86.9763 49.2089 86.9763C50.6746 86.9699 52.137 86.8378 53.5801 86.5815C55.1039 86.3156 56.5695 85.7852 57.9106 85.0142C59.2813 84.2236 60.4358 83.107 61.2717 81.7634C62.2211 80.1149 62.6821 78.2305 62.601 76.3299C62.6604 74.5347 62.3152 72.7492 61.591 71.1054C60.9394 69.7423 59.9378 68.5765 58.6885 67.7269C57.338 66.8542 55.8258 66.262 54.2419 65.9854C52.5617 65.6664 50.8566 65.4992 49.1472 65.4857ZM453.91 55.3797C450.548 55.3797 447.954 56.3434 446.2 58.2416C444.447 60.1398 443.397 62.7927 443.06 66.1944L443.025 66.5892H463.592V66.2176C463.459 63.0191 462.559 60.4127 460.91 58.4041C459.262 56.3956 456.887 55.3797 453.91 55.3797ZM42.7189 35.8808L42.4171 35.9272V55.4088H47.0785C48.6375 55.4205 50.1936 55.2727 51.7225 54.9676C53.0924 54.6977 54.3901 54.1419 55.5306 53.3364C56.6494 52.5172 57.5356 51.4209 58.1022 50.1552C58.7624 48.5721 59.0752 46.8657 59.0194 45.1513C59.0794 43.4755 58.7076 41.8123 57.9396 40.3216C57.2695 39.1148 56.31 38.0935 55.1474 37.3494C54.0022 36.6321 52.7253 36.1505 51.3916 35.933C50.0611 35.702 48.7133 35.5854 47.3629 35.5847C45.8097 35.566 44.2573 35.665 42.7189 35.8808Z" fill="#343333"/>
<path d="M13.2005 13.2005H83.7312V19.052V19.1971V25.095H76.5388L90.343 38.8992L104.136 25.095H96.9317V19.1971V19.052V0H0V120.245H96.9317V107.044H13.2005V13.2005Z" fill="#39C5EB"/>
</g>
<defs>
<clipPath id="clip0_1_1314">
<rect width="512" height="121" fill="white"/>
</clipPath>
</defs>
</svg>
