<svg width="256" height="256" viewBox="0 0 256 256" fill="none" xmlns="http://www.w3.org/2000/svg">
<g clip-path="url(#clip0_1_1303)">
<path d="M256 128.029C256 57.415 198.578 0 128.004 0C57.4295 0 0 57.415 0 128.029C0 194.74 51.2729 249.689 116.471 255.533H116.785C117.855 255.625 118.927 255.706 120.002 255.774L120.622 255.81C121.594 255.869 122.581 255.912 123.583 255.942H124.364C125.575 255.942 126.785 256 128.011 256C129.236 256 130.323 256 131.476 255.949H131.965C132.981 255.92 133.992 255.878 134.999 255.825H135.203C137.474 255.698 139.731 255.511 141.973 255.263C205.996 248.317 256 193.908 256 128.029ZM141.535 243.078L140.302 207.669L171.216 188.698C178.45 193.658 187.856 194.136 195.555 189.934C203.254 185.732 207.943 177.563 207.689 168.794C207.193 156.513 197.353 146.671 185.076 146.175C178.12 145.926 171.42 148.818 166.83 154.051C162.239 159.285 160.245 166.306 161.398 173.172L139.58 186.67L137.997 142.053L168.422 123.44C179.111 131.424 193.992 130.558 203.683 121.387C213.373 112.217 215.062 97.4027 207.684 86.2857C200.307 75.1687 186.002 70.9737 173.791 76.3459C161.58 81.7181 155.004 95.0994 158.21 108.052L137.268 121.054L136.028 85.4476C145.992 81.5938 152.395 71.8201 151.951 61.1435C151.433 48.6941 141.807 38.5381 129.406 37.3557C117.006 36.1734 105.635 44.3276 102.774 56.4547C99.9135 68.5819 106.44 80.9602 118.061 85.4476L115.8 159.221L93.0047 144.694C94.5256 138.477 93.7995 131.923 90.9549 126.191C86.3959 116.705 77.2048 109.978 66.7227 109.321C53.7591 108.475 41.8248 116.387 37.5536 128.659C33.2824 140.931 37.7247 154.545 48.4111 161.934C59.0975 169.324 73.4002 168.67 83.3687 160.337L115.143 180.446L113.232 242.94C56.3353 235.68 12.1453 186.918 12.1453 128.029C12.1891 64.1569 64.1404 12.1776 128.004 12.1776C191.867 12.1776 243.818 64.1423 243.818 128.022C243.818 187.327 199.037 236.351 141.535 243.078Z" fill="#333E48"/>
<path d="M127.273 47.1758C135.596 47.1838 142.341 53.9308 142.349 62.256C142.349 70.5846 135.599 77.3362 127.273 77.3362C118.946 77.3362 112.196 70.5846 112.196 62.256C112.196 53.9274 118.946 47.1758 127.273 47.1758ZM184.109 155.844C191.659 155.84 197.79 161.946 197.818 169.498C197.833 175.037 194.51 180.039 189.399 182.17C184.288 184.302 178.397 183.144 174.473 179.236C170.549 175.328 169.366 169.44 171.476 164.319C173.585 159.198 178.572 155.852 184.109 155.844ZM192.545 116.124C184.548 120.012 174.914 116.689 171.011 108.697C168.156 102.838 169.111 95.8362 173.431 90.9565C177.75 86.0767 184.583 84.2803 190.743 86.4049C196.903 88.5295 201.177 94.1567 201.571 100.662C201.966 107.168 198.404 113.271 192.545 116.124ZM64.36 120.606C73.9524 120.614 81.7265 128.39 81.7345 137.985C81.7305 147.577 73.9546 155.35 64.3648 155.349C54.7751 155.348 47.0013 147.572 47 137.98C46.9987 128.387 54.7702 120.61 64.36 120.606Z" fill="#009BDE"/>
</g>
<defs>
<clipPath id="clip0_1_1303">
<rect width="256" height="256" fill="white"/>
</clipPath>
</defs>
</svg>
