<svg width="512" height="186" viewBox="0 0 512 186" fill="none" xmlns="http://www.w3.org/2000/svg">
<g clip-path="url(#clip0_1_1307)">
<path d="M43.4757 88.8501C30.5315 88.8501 20.7764 92.8834 14.1636 102.216V41.2473C14.1636 40.5479 13.5967 39.981 12.8973 39.981H1.26628C0.566934 39.981 0 40.5479 0 41.2473V182.555C0 183.254 0.566934 183.821 1.26628 183.821H12.8973C13.5967 183.821 14.1636 183.254 14.1636 182.555V171.862C17.3918 176.378 21.7618 179.955 26.8264 182.227C32.0744 184.519 37.7494 185.67 43.4757 185.603C54.4695 186.134 65.0588 181.397 71.9905 172.847C78.8378 164.342 82.2614 152.43 82.2614 137.109C82.2614 121.789 78.869 109.939 72.0843 101.56C65.2162 93.1501 54.8154 88.447 43.9837 88.8285L43.4757 88.8501ZM62.2354 162.294C57.8079 168.32 50.6074 171.664 43.1474 171.158C35.4067 171.864 27.7737 168.957 22.4648 163.279C18.15 158.027 15.9927 149.272 15.9927 137.016C15.9927 124.759 18.0875 116.067 22.2772 110.94C26.4669 105.781 33.3142 103.201 42.8191 103.201C50.2842 102.618 57.5597 105.739 62.2823 111.549C66.9994 119.116 69.1994 127.981 68.5668 136.875C69.1359 145.865 66.9078 154.81 62.1885 162.482L62.2354 162.294ZM297.67 88.6625C288.158 88.6625 280.778 91.1493 275.63 94.2767L275.022 94.6549C273.432 95.6712 272.07 96.7454 270.941 97.8173L270.528 98.219C269.926 98.821 269.397 99.4198 268.942 100.005L268.65 100.393C268.275 100.906 267.959 101.408 267.701 101.888V91.6171C267.701 90.9178 267.134 90.3509 266.435 90.3509H254.804C254.105 90.3509 253.538 90.9178 253.538 91.6171V182.461C253.538 183.16 254.105 183.727 254.804 183.727H266.435C267.134 183.727 267.701 183.16 267.701 182.461V135.984C267.701 123.821 269.968 115.098 274.502 109.814C279.895 103.627 287.778 100.185 295.982 100.434C301.959 99.9172 307.875 101.963 312.256 106.062C316.074 110.878 317.934 116.959 317.462 123.087V182.227C317.462 182.926 318.029 183.493 318.728 183.493H330.359C331.058 183.493 331.625 182.926 331.625 182.227V122.571C331.625 110.658 328.78 101.982 323.09 96.5416C316.098 90.8264 307.195 87.9985 298.199 88.6218L297.67 88.6625ZM360.187 101.419C368.472 92.5817 380.27 87.9039 392.36 88.6625C396.584 88.6682 400.796 89.0931 404.934 89.9306L405.82 90.1164C409.036 90.7682 412.179 91.7424 415.2 93.0241C415.62 93.2114 415.902 93.6093 415.945 94.06L415.95 94.1966L412.433 103.952C412.327 104.267 412.097 104.526 411.796 104.668C411.495 104.809 411.149 104.822 410.838 104.702C407.886 103.603 404.862 102.709 401.787 102.029C398.573 101.269 395.286 100.86 391.985 100.809C373.006 100.809 363.517 112.909 363.517 137.109C362.915 146.43 365.35 155.694 370.458 163.514C375.341 169.86 383.053 173.373 391.047 172.894C398.662 172.818 406.198 171.34 413.277 168.532C413.661 168.396 414.087 168.453 414.421 168.686C414.719 168.892 414.912 169.215 414.956 169.57L414.965 169.705V179.6C414.962 180.078 414.69 180.513 414.262 180.726C407.089 184.009 399.261 185.613 391.375 185.416C379.585 186.111 368.093 181.542 359.999 172.941C352.589 165.03 348.884 153.259 348.884 137.625C348.884 121.992 352.652 109.924 360.187 101.419ZM440.854 0C446.749 0 451.807 4.20263 452.887 9.99852C453.948 15.6927 450.873 21.3352 445.55 23.5449L445.262 23.66L445.872 41.1535L456.19 34.7752C454.614 28.4213 457.838 21.8553 463.829 19.217C469.821 16.5787 476.841 18.6333 480.464 24.0853C484.088 29.5373 483.263 36.8056 478.511 41.3075C473.842 45.7304 466.711 46.2228 461.486 42.5279L461.208 42.3259L446.247 51.4713L446.998 73.3733L457.737 66.7605C456.885 61.2844 460.014 55.9673 465.216 54.0545C470.417 52.1417 476.246 54.1646 479.144 58.8886C482.042 63.6125 481.205 69.7252 477.143 73.4955C473.159 77.1933 467.159 77.6306 462.689 74.5881L462.427 74.4051L447.232 83.785L447.842 100.95V101.935C447.97 101.695 448.114 101.449 448.272 101.2L448.52 100.822C449.081 99.9984 449.798 99.1354 450.669 98.2659L451.081 97.8642C451.223 97.7302 451.367 97.5962 451.516 97.4622L451.972 97.0608L452.45 96.6605C453.101 96.1279 453.811 95.6004 454.577 95.0855L455.163 94.7018C460.332 91.3991 467.918 88.7094 477.81 88.7094C487.001 88.0133 496.101 90.9234 503.183 96.823C508.741 102.135 511.675 110.6 511.986 122.215L512 122.852V182.508C512 183.164 511.502 183.703 510.863 183.768L510.734 183.774H499.009C498.353 183.774 497.814 183.276 497.749 182.638L497.743 182.508V123.321C498.215 117.193 496.355 111.113 492.537 106.297C488.271 102.307 482.551 100.264 476.735 100.637L476.31 100.669H474.152C466.749 100.92 459.776 104.212 454.877 109.767C450.424 114.957 448.158 123.464 448.078 135.289L448.076 135.937V182.414C448.076 183.07 447.578 183.609 446.939 183.674L446.81 183.681H435.085C434.429 183.681 433.89 183.182 433.825 182.544L433.819 182.414V110.94L435.038 70.3717L419.421 60.476C414.14 64.9005 406.431 64.8498 401.209 60.3563C395.986 55.8628 394.786 48.2484 398.372 42.3661C401.959 36.4837 409.278 34.064 415.664 36.6491C421.949 39.1931 425.511 45.8477 424.179 52.4644L424.111 52.7845L435.32 59.9132L436.445 23.66C430.945 21.5367 427.74 15.7944 428.82 9.99852C429.9 4.20263 434.958 0 440.854 0ZM227.462 93.7276C222.084 88.7876 213.83 86.3175 202.699 86.3175C197.145 86.3219 191.613 87.0311 186.237 88.428C181.361 89.6762 176.642 91.4697 172.167 93.7745C171.6 94.0846 171.358 94.7718 171.605 95.3691L175.028 103.905C175.162 104.218 175.416 104.465 175.734 104.589C176.052 104.712 176.406 104.702 176.717 104.561C184.533 100.564 193.129 98.3236 201.902 97.9955C207.455 97.5024 212.954 99.415 217.003 103.248C219.56 106.624 221.032 110.696 221.224 114.926H208.139C201.755 114.763 195.395 115.781 189.38 117.928C183.337 120.198 177.886 123.806 173.434 128.48C166.453 135.97 163.035 146.103 164.054 156.291C164.906 165.481 169.894 173.783 177.608 178.85C183.324 182.92 190.137 185.156 197.143 185.271L197.728 185.275C201.531 185.279 205.307 184.629 208.89 183.352C213.699 181.647 218.093 178.946 221.787 175.426V182.32C221.787 183.02 222.354 183.587 223.053 183.587H234.028C234.727 183.587 235.294 183.02 235.294 182.32V118.115C235.482 107.235 232.808 98.6989 227.462 93.7276ZM222.021 127.542L221.975 142.878C221.975 155.025 215.878 168.344 203.731 172.659C197.146 174.899 189.885 173.835 184.221 169.798C179.327 165.958 176.293 160.221 175.873 154.015C175.452 147.809 177.685 141.715 182.016 137.25C185.209 133.931 189.102 131.367 193.413 129.746C198.084 128.129 203.011 127.382 207.952 127.542H222.021ZM152.376 90.3509C149.035 89.8855 145.665 89.666 142.293 89.6943C136.98 89.8894 132.186 91.117 128.122 92.7317L127.369 93.0389C126.749 93.2983 126.146 93.5663 125.563 93.8402L124.872 94.1716L124.2 94.5079C124.089 94.5643 123.98 94.6209 123.871 94.6776L123.227 95.0193L122.602 95.3634L121.997 95.7091L121.412 96.0554L120.847 96.4012L120.302 96.7457L119.779 97.088L119.277 97.427L118.796 97.7619L118.337 98.0917L117.9 98.4154C117.829 98.4688 117.759 98.5219 117.69 98.5747L117.286 98.8875L116.906 99.1919L116.379 99.6307L116.057 99.91L115.759 100.177L115.486 100.432L115.237 100.674L114.91 101.008L114.724 101.211L114.563 101.397L114.429 101.565L114.32 101.715C114.21 101.878 114.153 102 114.153 102.076V92.6958C114.153 91.9965 113.586 91.4296 112.887 91.4296H101.256C100.556 91.4296 99.9894 91.9965 99.9894 92.6958V183.54C99.9894 184.239 100.556 184.806 101.256 184.806H112.887C113.586 184.806 114.153 184.239 114.153 183.54V134.342C113.879 125.958 116.757 117.775 122.22 111.409C126.922 105.51 134.045 102.06 141.589 102.029C144.584 102.065 147.569 102.395 150.5 103.014C150.836 103.082 151.186 103.011 151.469 102.816C151.752 102.622 151.944 102.321 152.001 101.982L153.595 91.4296C153.511 90.8651 153.062 90.4326 152.506 90.3609L152.376 90.3509Z" fill="#333E48"/>
<path d="M440.666 19.7206C444.759 19.7206 448.076 16.403 448.076 12.3105C448.076 8.218 444.759 4.90039 440.666 4.90039C436.574 4.90039 433.256 8.218 433.256 12.3105C433.256 16.403 436.574 19.7206 440.666 19.7206ZM468.665 71.9195C472.395 71.9195 475.418 68.8959 475.418 65.166C475.418 61.4362 472.395 58.4125 468.665 58.4125C464.935 58.4125 461.911 61.4362 461.911 65.166C461.911 68.8959 464.935 71.9195 468.665 71.9195ZM472.825 39.1145C476.76 37.1977 478.397 32.4535 476.48 28.5181C474.563 24.5827 469.819 22.9464 465.883 24.8632C461.948 26.7801 460.311 31.5243 462.228 35.4597C464.145 39.3951 468.889 41.0314 472.825 39.1145ZM410.135 58.178C414.875 58.178 418.717 54.3355 418.717 49.5955C418.717 44.8554 414.875 41.0129 410.135 41.0129C405.395 41.0129 401.552 44.8554 401.552 49.5955C401.552 54.3355 405.395 58.178 410.135 58.178Z" fill="#4DA3DC"/>
</g>
<defs>
<clipPath id="clip0_1_1307">
<rect width="512" height="186" fill="white"/>
</clipPath>
</defs>
</svg>
