<svg width="512" height="237" viewBox="0 0 512 237" fill="none" xmlns="http://www.w3.org/2000/svg">
<g clip-path="url(#clip0_1_1328)">
<path d="M511.254 140.303C511.254 140.303 506.192 133.203 504.629 131.178C503.539 129.852 502.213 128.295 498.785 130.633C491.077 135.779 482.426 140.533 471.757 140.533C463.575 140.533 456.488 138.432 451.189 133.908C453.451 132.889 455.783 131.8 458.122 130.473C470.745 123.687 481.254 114.954 486.322 109.885C510.863 85.3183 503.232 48.6663 473.238 48.6663C444.954 48.6663 422.681 76.1937 422.681 106.848C422.681 111.442 423.219 118.074 425.167 125.014C423.533 125.796 412.313 131.255 398.915 138.662C386.292 129.224 366.659 133.44 366.659 133.44C384.888 107.47 412.39 66.9923 414.729 63.6411C416.44 61.219 416.132 58.8802 414.492 55.1381C412.39 50.6143 410.288 49.8325 407.482 49.8325H350.377C348.512 49.8325 347.032 50.6912 346.481 52.7993C345.936 54.901 344.77 62.1545 344.539 64.5766C344.302 67.0756 346.641 68.6327 349.057 68.6327H390.425L353.029 122.207C352.792 122.444 352.562 122.675 352.325 122.989C346.878 130.864 338.535 141.86 328.565 141.86C322.33 141.86 314.622 137.413 314.622 122.829C314.622 108.559 320.389 78.3787 324.592 54.8241C325.06 52.3251 324.208 49.8325 320.152 49.8325H310.028C307.689 49.8325 306.362 51.2422 306.055 53.267C305.427 56.8553 304.805 60.3603 304.261 63.7949C299.275 54.2026 291.253 48.7368 279.719 48.7368C268.967 48.7368 258.529 52.7224 249.962 61.2959C228.612 82.6655 232.661 117.53 214.207 136.009C206.255 143.968 197.291 141.546 197.291 125.872C197.291 108.014 204.147 88.0479 211.945 69.1773C213.342 65.8197 211.862 63.0131 210.382 60.9114C208.28 57.8678 207.498 56.3043 203.763 56.3043C197.919 56.3043 188.647 59.9759 170.033 59.9759C166.06 59.9759 162.318 59.8157 158.883 59.585C159.12 56.7785 159.12 54.9074 159.204 54.2026C159.357 51.5498 158.422 49.9094 155.615 49.9094H146.113C142.685 49.9094 141.826 51.5498 141.435 54.2795C139.801 65.6659 136.764 107.547 115.727 128.525C113.312 130.941 111.832 131.723 111.832 131.723C117.054 121.502 119.86 108.091 119.86 97.4096C119.86 67.4601 102.175 48.9034 79.8957 48.9034C73.1164 48.9034 65.9462 51.082 59.1733 55.2919C62.2874 37.0428 65.1708 19.9663 66.1833 14.193C67.0419 9.27832 65.3246 6.78573 64.0046 4.7545C61.8901 1.48658 60.0319 0 57.2189 0H24.3411C22.4701 0 21.0732 1.32639 20.599 3.43452C20.0544 5.85021 18.8882 12.2451 18.7344 15.2054C18.5742 17.7813 20.3683 18.7937 22.4701 18.7937H46.4668C42.6543 42.3548 35.3303 87.9774 33.1453 99.4344C30.3515 114.018 19.9839 131.876 2.54218 138.278C0.363569 139.059 -0.49506 141.084 0.280269 143.43C1.06201 145.768 4.09925 151.849 5.03477 153.406C5.97029 155.047 7.99512 156.059 9.86616 155.438C18.901 152.234 27.231 147.095 33.7796 140.54C35.4136 138.906 36.9771 137.112 38.4572 135.157C46.2426 152.785 62.2938 159.186 78.5693 159.186C97.0362 159.186 116.983 152.708 131.003 138.745C147.369 122.367 154.141 95.3847 157.102 76.2065C161.151 76.7448 165.752 77.2125 170.193 77.2125C181.406 77.2125 190.838 74.7969 190.838 74.7969C190.838 74.7969 179.542 104.9 179.542 127.051C179.542 152.086 191.537 159.18 204.704 159.18C218.334 159.18 227.92 148.966 234.692 136.253C236.487 140.226 239.139 144.903 242.721 148.492C248.873 154.656 256.511 159.18 267.57 159.18C280.193 159.18 291.022 151.926 298.737 140.7C300.134 145.454 302.242 149.35 305.126 152.234C309.015 156.142 316.185 159.18 325.066 159.18C340.413 159.18 349.371 147.639 373.291 147.639C376.328 147.639 379.057 148.107 381.55 148.966C370.561 155.668 360.123 162.845 353.741 169.24C334.024 188.975 333.089 215.023 346.026 227.966C361.757 243.723 384.043 235.764 398.063 221.802C414.421 205.43 419.176 174.468 409.75 153.329C421.201 147.325 430.787 142.885 433.042 141.789C440.212 151.535 452.054 159.18 471.527 159.18C485.47 159.18 499.573 154.265 510.556 145.922C512.119 144.442 512.504 142.02 511.261 140.309L511.254 140.303ZM88.1552 133.594C83.7083 138.041 78.2553 140.456 72.7255 140.456C67.5865 140.456 63.146 138.118 59.4039 134.369C46.7808 121.74 47.8701 90.6238 64.1584 74.3227C68.7527 69.722 74.3595 67.0692 80.0495 67.0692C85.1884 67.0692 89.629 69.3311 93.371 73.0732C105.212 85.0043 105.911 115.812 88.1488 133.594H88.1552ZM268.66 140.379C255.024 140.379 246.143 123.925 248.866 103.644C251.596 83.3703 264.841 66.9154 278.47 66.9154C291.093 66.9154 299.666 81.0315 298.731 99.2037C298.34 101.85 298.026 104.349 297.795 106.842C294.13 125.642 281.584 140.379 268.66 140.379ZM382.165 211.819C364.326 229.677 341.579 206.904 368.139 180.306C374.143 174.302 384.03 167.676 394.321 161.595C400.158 176.096 395.564 198.401 382.165 211.819ZM453.758 74.7136C467.157 61.2959 482.042 65.275 482.042 78.3018C482.042 91.0147 466.849 104.74 448.465 115.345C446.671 116.357 444.563 117.523 442.461 118.619C441.757 115.422 441.372 111.91 441.372 107.937C441.295 97.0187 445.89 82.5886 453.758 74.7136Z" fill="#212124"/>
</g>
<defs>
<clipPath id="clip0_1_1328">
<rect width="512" height="237" fill="white"/>
</clipPath>
</defs>
</svg>
