<svg width="512" height="73" viewBox="0 0 512 73" fill="none" xmlns="http://www.w3.org/2000/svg">
<g clip-path="url(#clip0_1_1335)">
<path d="M114.339 50.8337H101.034V20.1501H113.976C117.467 20.1501 119.647 22.4035 119.647 25.4577C119.647 28.5119 117.467 30.6922 113.976 30.6922H99.1814V39.5641H114.339C118.412 39.5641 120.592 42.1813 120.592 45.2333C120.592 48.7244 118.265 50.8337 114.339 50.8337ZM121.827 34.7644C126.41 33.8195 130.191 29.7473 130.191 23.6412C130.191 17.1691 125.465 11.2803 116.229 11.2803H90.7089V59.7766H117.03C126.263 59.7766 131.134 53.9589 131.134 46.6883C131.134 40.5799 126.991 35.5651 121.827 34.7644ZM161.357 33.4553H150.195V42.5446H158.086L167.61 59.7762H179.461L168.555 41.307C173.791 40.0716 179.17 35.4914 179.17 26.9123M179.17 26.9123C179.17 17.8961 172.991 11.2799 162.883 11.2799H140.198V59.7762H150.522V20.3692H161.357C165.503 20.3692 168.628 22.84 168.628 26.9123C168.628 30.9845 165.503 33.4553 161.357 33.4553M257.664 42.4719L265.225 21.6051L272.788 42.4719H257.664ZM258.755 11.2803L239.995 59.7766H251.773L254.827 51.5612H275.623L278.604 59.7766H290.383L271.697 11.2803H258.755ZM318.428 50.6875H309.629V20.3676H318.428C328.388 20.3676 333.623 26.9839 333.623 35.5653C333.623 43.7807 328.025 50.6875 318.428 50.6875ZM318.428 11.2805H299.304V59.7769H318.428C333.623 59.7769 344.165 50.1796 344.165 35.5653C344.165 20.951 333.623 11.2805 318.428 11.2805ZM500.584 11.2706L487.866 31.8313L475.148 11.2706H463.734V59.7758H474.061V28.074L485.178 44.9796C486.451 46.9114 489.283 46.9114 490.554 44.9796L501.673 28.074V59.7758H512V11.2706H500.584ZM211.911 51.1966C203.325 51.1966 196.368 44.2365 196.368 35.6529C196.368 27.0671 203.325 20.107 211.911 20.107C220.495 20.107 227.455 27.0671 227.455 35.6529C227.455 44.2365 220.495 51.1966 211.911 51.1966ZM211.911 10.0839C197.789 10.0839 186.342 21.531 186.342 35.6529C186.342 49.7726 197.789 61.2197 211.911 61.2197C226.031 61.2197 237.48 49.7726 237.48 35.6529C237.48 21.531 226.031 10.0839 211.911 10.0839ZM390.633 43.1737C387.982 47.9557 382.888 51.1961 377.032 51.1961C368.448 51.1961 361.488 44.2361 361.488 35.6525C361.488 27.0666 368.448 20.1088 377.032 20.1088C382.839 20.1088 387.894 23.2983 390.562 28.0159L397.815 20.7653C393.175 14.2999 385.598 10.0835 377.032 10.0835C362.91 10.0835 351.465 21.5305 351.465 35.6525C351.465 49.7722 362.91 61.2214 377.032 61.2214C385.645 61.2214 393.259 56.9585 397.89 50.4309L390.633 43.1737ZM430.867 51.1966C422.281 51.1966 415.323 44.2365 415.323 35.6529C415.323 27.0671 422.281 20.107 430.867 20.107C439.451 20.107 446.411 27.0671 446.411 35.6529C446.411 44.2365 439.451 51.1966 430.867 51.1966ZM430.867 10.0839C416.745 10.0839 405.298 21.531 405.298 35.6529C405.298 49.7726 416.745 61.2197 430.867 61.2197C444.987 61.2197 456.436 49.7726 456.436 35.6529C456.436 21.531 444.987 10.0839 430.867 10.0839Z" fill="black"/>
<path d="M36.012 72.024C55.9009 72.024 72.024 55.9009 72.024 36.012C72.024 16.1231 55.9009 0 36.012 0C16.1231 0 0 16.1231 0 36.012C0 55.9009 16.1231 72.024 36.012 72.024Z" fill="#CC092F"/>
<path d="M67.742 45.738C63.6232 44.0967 59.8526 44.6467 56.0732 46.9379C56.0732 46.9379 54.6958 47.7785 54.2833 48.038C52.5222 49.1426 50.8609 50.1895 49.264 50.1895C47.7402 50.1895 46.2408 49.7814 45.6065 46.8337C44.6173 42.2358 42.2041 30.9373 41.1506 25.3414C40.5317 22.0521 40.1924 20.2799 39.8397 19.0755C39.2187 16.9596 38.0831 15.8084 36.4706 15.6244C36.4706 15.6244 36.2177 15.5889 36.0115 15.5889C35.8074 15.5889 35.528 15.6288 35.528 15.6288C33.931 15.8195 32.802 16.9707 32.1854 19.0755C31.8328 20.2799 31.4934 22.0521 30.8746 25.3414C29.8211 30.9373 27.4079 42.2358 26.4187 46.8337C25.7843 49.7814 24.285 50.1895 22.7612 50.1895C21.1643 50.1895 19.503 49.1426 17.7419 48.038C17.3294 47.7785 15.9498 46.9379 15.9498 46.9379C12.1725 44.6467 8.39973 44.0967 4.28315 45.738C3.39373 46.0929 2.51771 46.4903 1.68375 46.8917C2.25377 48.6794 2.96337 50.4389 3.79068 52.0913C4.70228 51.6432 5.6583 51.1987 6.63421 50.9103C8.04042 50.4956 9.48211 50.4734 10.8794 50.9414C12.2369 51.3961 13.4457 52.2012 14.65 52.9575C16.919 54.3837 19.4897 56.0006 22.7612 56.0006C27.6097 56.0006 31.0121 53.1061 32.0989 48.058C32.9418 44.1455 34.8093 35.411 36.0093 29.387C36.0093 29.387 39.0834 44.1455 39.924 48.058C41.0108 53.1061 44.4154 56.0006 49.264 56.0006C52.5355 56.0006 55.1061 54.3837 57.3751 52.9575C58.5795 52.2012 59.7883 51.3961 61.1457 50.9414C62.5408 50.4734 63.9847 50.4956 65.3909 50.9103C66.3669 51.1987 67.3215 51.6437 68.2331 52.0917C69.0626 50.4393 69.7703 48.6791 70.3403 46.8914C69.5064 46.4899 68.6314 46.0929 67.742 45.738Z" fill="white"/>
</g>
<defs>
<clipPath id="clip0_1_1335">
<rect width="512" height="73" fill="white"/>
</clipPath>
</defs>
</svg>
