<svg width="256" height="256" viewBox="0 0 256 256" fill="none" xmlns="http://www.w3.org/2000/svg">
<g clip-path="url(#clip0_1_1331)">
<path d="M128 256C198.692 256 256 198.692 256 128C256 57.3075 198.692 0 128 0C57.3075 0 0 57.3075 0 128C0 198.692 57.3075 256 128 256Z" fill="#CC092F"/>
<path d="M240.78 162.571C226.141 156.737 212.738 158.692 199.305 166.836C199.305 166.836 194.409 169.824 192.943 170.746C186.683 174.672 180.779 178.393 175.102 178.393C169.686 178.393 164.357 176.943 162.102 166.465C158.586 150.123 150.009 109.964 146.264 90.0737C144.065 78.3823 142.859 72.0834 141.605 67.8026C139.398 60.2817 135.361 56.1901 129.63 55.5358C129.63 55.5358 128.731 55.4097 127.998 55.4097C127.273 55.4097 126.28 55.5516 126.28 55.5516C120.603 56.2296 116.591 60.3211 114.399 67.8026C113.146 72.0834 111.939 78.3823 109.74 90.0737C105.995 109.964 97.4178 150.123 93.9017 166.465C91.647 176.943 86.3178 178.393 80.9018 178.393C75.2256 178.393 69.3208 174.672 63.0613 170.746C61.5949 169.824 56.6914 166.836 56.6914 166.836C43.2657 158.692 29.8557 156.737 15.2239 162.571C12.0626 163.832 8.94884 165.245 5.98462 166.672C8.01069 173.026 10.5329 179.28 13.4735 185.153C16.7136 183.56 20.1117 181.98 23.5804 180.955C28.5786 179.481 33.7029 179.402 38.6696 181.066C43.4943 182.682 47.7908 185.544 52.0716 188.232C60.1365 193.301 69.2735 199.048 80.9018 199.048C98.1352 199.048 110.229 188.76 114.092 170.817C117.087 156.91 123.725 125.865 127.99 104.453C127.99 104.453 138.917 156.91 141.905 170.817C145.768 188.76 157.869 199.048 175.102 199.048C186.731 199.048 195.868 193.301 203.933 188.232C208.213 185.544 212.51 182.682 217.335 181.066C222.293 179.402 227.426 179.481 232.424 180.955C235.892 181.98 239.285 183.562 242.526 185.154C245.474 179.281 247.99 173.025 250.016 166.67C247.051 165.244 243.942 163.832 240.78 162.571Z" fill="white"/>
</g>
<defs>
<clipPath id="clip0_1_1331">
<rect width="256" height="256" fill="white"/>
</clipPath>
</defs>
</svg>
