<svg width="256" height="256" viewBox="0 0 256 256" fill="none" xmlns="http://www.w3.org/2000/svg">
<g clip-path="url(#clip0_1_1344)">
<path d="M94.8794 251.608C26.6127 233.316 -13.8998 163.146 4.39217 94.8794C22.6842 26.6127 92.8539 -13.8998 161.121 4.39217C229.387 22.6842 269.9 92.8539 251.608 161.121C233.316 229.387 163.146 269.9 94.8794 251.608Z" fill="#EEAA33"/>
<path d="M101.607 226.5C88.0069 222.856 88.7985 175.802 103.375 121.402C117.951 67.0013 140.793 25.8553 154.393 29.4994C167.993 33.1436 167.202 80.1978 152.625 134.598C138.049 188.998 115.207 230.144 101.607 226.5Z" fill="white"/>
<path d="M176.366 193.746C169.566 191.924 169.962 168.397 177.25 141.197C184.538 113.996 195.959 93.4235 202.759 95.2456C209.559 97.0676 209.164 120.595 201.875 147.795C194.587 174.995 183.166 195.568 176.366 193.746Z" fill="white"/>
<path d="M53.2407 160.755C46.4406 158.933 46.8364 135.406 54.1247 108.205C61.4129 81.0053 72.8337 60.4323 79.6338 62.2544C86.4338 64.0764 86.038 87.6036 78.7498 114.804C71.4615 142.004 60.0407 162.577 53.2407 160.755Z" fill="white"/>
</g>
<defs>
<clipPath id="clip0_1_1344">
<rect width="256" height="256" fill="white"/>
</clipPath>
</defs>
</svg>
