<svg width="512" height="152" viewBox="0 0 512 152" fill="none" xmlns="http://www.w3.org/2000/svg">
<g clip-path="url(#clip0_1_1358)">
<path fill-rule="evenodd" clip-rule="evenodd" d="M108.736 45.7926C107.16 45.8073 105.688 46.0837 104.521 46.667C101.909 47.9731 98.4215 47.3388 95.8133 48.6429C93.3016 49.8988 92.0263 51.6149 89.9903 52.997C90.2274 52.2757 90.4669 51.571 90.7073 50.8637C90.4372 51.1831 90.1802 51.5132 89.8854 51.8079C89.5986 52.0947 89.4611 52.5698 89.4133 53.1369C89.3655 53.704 89.3939 54.3524 89.4307 55.0079C89.4677 55.6635 89.5159 56.327 89.4832 56.879C89.4587 57.2924 89.3251 57.562 89.1859 57.8233C93.5999 55.7257 99.4565 53.4578 101.356 55.3577C102.934 56.9353 103.643 58.8511 105.308 60.5161C105.571 60.7791 106.159 60.8971 106.742 61.0582C107.076 61.0577 107.386 60.9986 107.617 60.8834C107.756 60.8134 108.101 60.9062 108.211 60.7959C108.571 60.4359 108.702 60.1128 109.103 59.7118C109.404 59.4109 109.697 58.5913 109.697 58.1205C109.697 57.6282 109.338 56.6772 108.998 56.3369C108.879 56.2181 108.124 55.6686 108.124 55.55C108.124 54.961 110.139 56.394 110.187 56.4418C110.319 56.5737 110.16 56.9919 110.292 57.1238C110.484 57.3155 110.259 57.6534 110.397 57.9282C110.854 58.843 110.045 60.343 109.592 60.7959C109.052 61.3368 110.272 61.0082 110.484 60.7959C110.688 60.5922 110.896 60.1747 111.079 59.9916C111.093 59.977 111.067 59.7118 111.079 59.7118C111.257 59.7118 111.251 61.2182 111.079 61.3905C110.539 61.93 110.031 62.3855 109.155 62.5795C111.205 64.0944 114.096 65.3522 115.59 66.8462C116.014 67.2704 118.491 66.7087 118.755 66.444C120.637 64.5622 122 61.2234 124.298 58.9249C125.01 58.2131 123.726 54.785 123.512 54.5708C122.63 53.689 122.807 51.4879 121.536 50.2167C119.25 47.9311 113.463 45.7487 108.736 45.7926Z" fill="#E6B35A"/>
<path fill-rule="evenodd" clip-rule="evenodd" d="M91.6865 42.1209C91.5884 42.1445 91.4948 42.2078 91.4067 42.2958C91.3573 42.3453 91.1589 42.2463 91.1095 42.2958C90.8048 42.6005 90.2841 42.719 89.9204 43.0827C88.9181 44.085 88.041 45.1171 87.0177 46.1603C82.1445 47.9179 77.602 49.4143 72.1018 50.0597C72.5144 50.1006 72.9384 50.1601 73.3608 50.2346C72.4814 50.3182 71.0752 50.2758 70.633 50.4969C70.5007 50.563 69.8315 50.76 69.7062 50.7767C69.9393 50.7538 70.7103 50.7941 70.8253 50.7941C71.5211 50.7941 72.2538 51.004 72.9062 51.004C73.8844 51.004 75.0422 50.9735 76.1586 50.9515C78.0007 51.5679 79.7149 52.4365 80.9324 53.4346C81.6298 54.0063 80.7943 57.9262 80.6351 58.628C79.8977 61.8791 82.6158 71.203 80.8974 73.2991C80.1456 74.2162 81.3092 76.87 81.5969 78.7024C82.4868 79.3803 83.2877 81.5944 83.5379 82.0947C83.7712 82.5614 84.3772 83.1273 84.3772 83.6335C84.3772 83.7026 83.2399 82.4962 83.1182 82.3745C82.9442 82.2005 82.0707 81.0564 81.457 80.4685C81.3854 80.8899 81.339 81.4991 81.3171 82.2171C81.6891 82.6013 82.0927 82.9814 82.2789 83.3537C82.651 84.098 83.0375 84.8118 83.5379 85.3122C83.9658 85.7401 82.6605 85.0134 82.4187 84.8925C82.2666 84.8164 81.8146 84.4417 81.3171 84.0881C81.3554 88.1332 81.7458 93.7971 81.9116 95.4718C82.2588 98.9768 81.7782 102.304 81.7718 102.239C81.7632 102.153 80.0815 104.308 78.939 105.701C77.2504 107.761 75.2281 110.973 73.151 113.623C74.0485 112.73 75.1922 111.634 76.2985 111.14C78.8452 110.001 85.1136 105.091 88.8362 102.501C89.6604 103.094 91.4032 100.452 93.9772 103.026C94.3081 103.357 95.3529 106.593 95.1488 106.593C93.336 106.593 93.0057 108.384 93.9772 109.356C94.4734 109.852 94.957 109.622 95.3411 109.094C95.7394 107.96 96.1339 106.442 95.4286 105.736C95.312 105.62 95.5452 105.153 95.4286 105.037C94.7976 104.406 95.0659 103.135 94.3095 102.379C94.0497 102.119 92.9307 101.521 92.6483 100.91C92.628 100.89 92.5979 100.877 92.5783 100.858C92.3719 100.651 91.9284 100.679 91.6166 100.578C91.3847 100.273 90.9039 99.6933 91.3543 98.5144C92.1419 96.4528 92.359 92.6884 92.1412 90.4882C92.0678 89.7478 92.1586 88.1713 92.3335 86.3614C92.3352 86.3558 92.3318 86.3493 92.3335 86.3439C92.6129 85.2731 93.0513 84.1214 93.4351 83.3538C93.7341 82.7559 93.3856 81.4448 93.8373 80.9931C94.0796 80.7508 94.0492 80.2365 94.0297 79.7341C92.7344 80.0657 91.2047 80.4314 90.6198 80.6084C90.6909 80.5415 90.7671 80.4611 90.8122 80.4161C90.9699 80.2584 91.5082 80.138 91.7914 79.9964C92.7304 79.5269 93.5836 79.028 94.1171 78.7724C94.1447 78.7116 94.1778 78.6592 94.222 78.615C95.0598 77.7772 94.3156 75.2092 93.4701 73.404C93.4377 72.9394 93.4413 72.4908 93.5051 72.0576C93.8909 69.4387 93.8646 66.7524 93.8024 64.0663C93.6613 64.059 93.5064 64.0489 93.3302 64.0489C93.2549 64.0489 91.5925 63.961 91.1794 64.0139C91.2883 63.9691 91.5961 63.7968 91.9313 63.6292C92.1266 63.5316 93.0272 63.4218 93.7849 63.3319C93.7734 62.8529 93.7587 62.377 93.7499 61.8981C92.4383 62.0082 90.463 62.1598 90.6723 61.9505C91.0075 61.6153 92.8411 61.6355 93.3302 61.3909C93.3863 61.3629 93.5375 61.3028 93.7324 61.2336C93.712 59.6342 93.7335 58.0406 93.8723 56.4598C94.0365 56.3591 94.2451 56.247 94.4144 56.145C94.5272 55.8714 94.6231 55.5971 94.6067 55.1833C94.5848 54.6308 94.4807 53.9784 94.3794 53.3297C94.2781 52.6811 94.1779 52.0277 94.1696 51.4587C94.1612 50.8896 94.2622 50.4084 94.5193 50.0948C94.7836 49.7724 94.9989 49.425 95.2362 49.0805C95.3183 48.7284 95.4014 48.3648 95.481 48.0139C95.7724 46.7294 94.998 44.8608 95.4636 43.6423C95.5383 43.4468 96.1462 42.5662 96.1281 42.3833C96.1216 42.3182 96.0558 42.2995 95.9532 42.3133C95.4397 42.3824 93.8961 43.2945 92.8581 43.8871C93.0857 43.0635 92.3242 41.9673 91.6865 42.1209ZM90.6024 80.6259C90.4928 80.7266 90.3925 80.7944 90.3925 80.6958C90.3925 80.6829 90.479 80.6642 90.6024 80.6259Z" fill="#E6B35A"/>
<path fill-rule="evenodd" clip-rule="evenodd" d="M46.1346 1.01028C45.3764 1.10387 44.6252 1.22781 43.9139 1.46493C39.1101 3.06618 34.6851 5.06576 30.0647 6.60591C28.3129 7.18984 26.2717 9.09693 24.9237 9.77094C19.3391 12.5632 14.3556 15.572 9.15102 18.4616C8.43522 18.6421 7.78083 18.7352 7.52479 18.4791C3.31426 14.2686 11.5537 11.9009 10.2876 9.36872C8.32289 5.43925 2.05225 10.4697 1.17724 11.3447C0.346296 12.1756 0.390359 14.0544 0.390359 15.6988C0.390359 16.0086 0.192929 17.4773 0.390359 17.6747C1.31217 18.5965 1.26785 20.1435 2.36632 21.2419C4.28142 23.1571 7.81701 23.0174 10.2527 22.0638C10.2758 22.1096 10.2991 22.14 10.3226 22.1862C11.3722 21.6997 12.1604 21.3269 12.2636 21.2419C16.7586 17.5383 20.7991 15.9775 26.1128 13.3206C27.5024 12.6258 33.4186 8.88084 34.821 8.17965C36.6918 7.24424 39.5387 6.74241 42.3401 6.2037C42.8674 5.67636 43.5492 5.35535 44.3335 5.18949C44.9298 3.78427 45.5202 2.40166 46.1346 1.01028ZM53.6712 43.607C50.9445 46.4879 48.0003 48.4295 45.8898 48.9403C45.946 48.974 46.0079 48.9968 46.0647 49.0278C44.2171 49.4742 42.4825 49.9695 41.5357 50.9163C41.3528 51.0992 40.603 50.7968 40.3641 50.9163C35.4919 53.3524 28.7045 52.6786 25.3259 56.0573C23.2428 58.1403 39.0165 54.0813 39.1751 54.0813C40.5355 54.0813 43.4976 53.4938 44.7007 52.8923C45.2869 52.5992 46.8112 52.8923 47.4811 52.8923C51.9025 52.8923 54.3979 54.3835 58.5499 56.4595C59.8225 57.0958 60.1925 58.4868 60.9281 59.2223C62.3828 60.677 64.1305 62.06 65.2822 64.3633C65.625 65.049 65.1173 67.7657 65.6843 68.3327C69.2644 71.9128 62.5103 88.9056 60.1412 91.2748C57.3837 94.0323 54.2663 96.7474 51.8352 99.1786C50.7579 100.256 49.0202 100.42 47.8833 101.557C47.3025 102.138 45.6374 101.893 44.7007 102.361C41.5544 103.934 38.4684 103.895 35.2057 105.526C34.3244 105.967 32.5522 106.124 30.5018 106.208L26.3051 105.299C25.035 106.101 27.2914 104.623 25.8155 105.509C25.3913 105.763 24.8565 106.4 24.2417 106.4C23.9632 106.4 22.3524 105.702 22.1608 105.893C21.9674 106.087 21.3949 106.17 21.1641 106.4L20.2723 107.275C19.4535 108.094 20.5777 109.863 21.7587 109.863C22.3044 109.863 22.4087 108.811 22.6505 108.569C23.1877 108.031 24.3753 107.677 25.221 107.677C25.244 107.677 25.116 107.826 25.116 107.869V108.866C25.116 109.255 25.0756 110.73 24.9237 111.034C24.7894 111.303 24.8622 111.664 24.7313 111.926C24.6847 112.019 24.5222 112.223 24.6264 112.223C25.0037 112.223 24.9395 109.356 26.5149 109.356C27.538 109.356 28.0371 110.125 28.8756 110.545C29.2934 110.754 29.8621 110.741 30.2745 110.947C30.5266 111.073 30.8086 111.118 31.0614 111.244C31.1423 111.285 31.551 111.568 31.551 111.541C31.551 111.237 29.8364 110.461 29.3128 109.373C32.493 108.708 35.972 109.332 39.1751 108.691C44.4696 107.632 49.3597 106.5 54.3357 104.057C54.3551 104.251 54.4063 104.408 54.5106 104.512C54.6342 104.636 55.6474 104.092 55.7871 104.022C56.8583 103.487 59.9771 103.494 61.033 104.022C61.0596 104.036 61.5711 104.038 62.0647 104.057C61.7052 103.924 61.3777 103.772 61.3302 103.725C61.1971 103.592 59.4968 103.273 58.9521 102.728C58.7911 102.567 58.6809 102.273 58.6199 101.906C68.3028 92.2997 77.494 85.414 74.3925 69.9065C73.5579 65.7334 72.7907 61.1998 70.4231 57.6485C66.4991 51.7624 58.6493 52.9578 55.9619 50.689C55.437 50.5741 54.8783 50.4953 54.6679 50.1994C54.6511 50.1982 54.5805 50.2027 54.5805 50.1994C54.5805 50.1922 54.6229 50.1611 54.6329 50.1469C54.5987 50.0814 54.5805 50.0086 54.5805 49.9196C54.5805 48.0742 59.8628 46.9874 53.6712 43.607ZM62.0647 104.057C62.4974 104.218 62.9821 104.346 63.1138 104.215C63.2091 104.119 62.6418 104.08 62.0647 104.057Z" fill="#E6B35A"/>
<path fill-rule="evenodd" clip-rule="evenodd" d="M46.2396 2.82891C45.5825 2.79685 44.0033 3.75569 43.3893 3.75569C41.2018 3.75569 27.5837 10.6083 26.3226 11.8693C25.6264 12.5656 25.3578 15.3522 24.9237 15.7863C23.7056 17.0044 23.008 20.1688 22.2133 23.1306C21.6624 24.4709 21.3037 25.9811 20.727 26.5579C20.5207 26.7642 20.6187 27.3656 20.4472 27.5371C19.9287 28.0557 19.006 28.4187 18.6286 28.7961C18.4906 28.9341 17.4409 29.0403 17.0898 29.2158C16.7187 29.4014 16.3148 29.5595 16.198 29.6005C16.4415 29.579 17.1889 29.755 17.2297 29.7754C17.4571 29.889 17.8811 29.8672 18.0691 30.0551C18.3249 30.311 18.7283 31.1743 19.0483 31.1743C21.7097 31.1743 18.1254 29.6634 20.4647 29.5131C21.3568 30.4349 24.1159 36.0753 24.7838 38.8508C24.7883 38.8815 24.7967 38.907 24.8013 38.9382C24.8452 39.2347 24.873 39.5828 24.9062 39.9174C24.9284 40.5468 24.9747 41.1239 25.0286 41.6486C25.3491 48.5721 24.2592 60.1454 24.2592 64.206C24.2592 66.9325 23.8694 76.069 24.6614 77.653C25.0187 78.3676 24.5222 79.505 24.2592 80.0311C22.8682 82.813 25.4346 95.1102 23.6122 97.6573C23.9598 98.1601 24.2187 98.736 24.6439 99.1612C24.8258 99.3431 26.2807 104.735 27.057 107.642C30.4724 107.61 33.9344 107.666 35.8352 106.715C37.8345 105.716 40.1958 105.094 41.9903 104.197C42.3765 104.004 44.0852 103.18 45.0155 102.868C43.7337 102.68 40.7962 101.679 40.5914 101.679C40.0334 101.679 39.379 101.525 38.6854 101.277C38.7564 101.261 38.8243 101.241 38.8953 101.225C36.4877 99.6116 34.6866 95.5738 35.328 92.4814C34.1696 86.0376 35.0133 75.9641 35.0133 70.2738C35.0133 64.2077 35.7061 57.8694 35.8002 51.4759C35.3159 51.6198 34.8404 51.7227 34.716 51.5983C34.4371 51.3194 34.3028 48.9005 34.1215 47.4191C33.9165 46.9517 33.7745 46.6 33.7368 46.5623C33.195 46.0205 32.7935 45.2352 32.4778 44.6038C32.4421 44.5326 31.9488 43.7645 32.0581 43.7645C32.319 43.7645 33.2368 45.083 33.457 45.3033C33.507 45.3532 33.5626 45.385 33.6319 45.4082C33.6383 45.4087 33.6431 45.4076 33.6493 45.4082C33.9243 45.4436 34.1348 45.4648 34.1564 45.4431C34.5381 45.0615 33.8767 44.1678 33.8767 44.0442C33.8767 43.726 33.919 43.2945 33.9641 42.8202C34.3705 43.1531 34.7513 43.3095 34.9958 43.065C36.0381 42.0226 34.1545 37.3276 33.5969 36.7699C33.5124 36.6854 33.5969 36.0632 33.5969 35.9306C33.5969 35.5114 33.5046 35.0509 33.387 34.5841C33.3985 33.7445 33.4443 32.9404 33.5619 32.2759C33.7845 32.5147 34.0064 32.778 34.1564 32.853C34.8131 33.1813 35.092 31.8213 35.2756 31.4541C35.7804 30.4444 35.0065 28.3946 34.0165 26.4355C33.8716 22.5325 33.4569 17.3175 33.2122 14.9295C33.2116 14.9244 33.2127 14.9172 33.2122 14.912C33.3391 14.2955 33.4957 13.6492 33.8767 13.2683C34.2723 12.8726 34.9958 13.2683 35.5553 13.2683C34.5684 13.8964 36.3176 16.1432 37.7936 14.6672C40.1622 12.2986 41.6978 8.24503 43.9488 5.99399C44.1859 5.75686 46.7086 3.15822 46.4668 2.9164C46.4165 2.86604 46.3334 2.83349 46.2396 2.82891ZM45.0155 102.868C45.3721 102.921 45.6275 102.911 45.6275 102.798C45.6275 102.692 45.3768 102.747 45.0155 102.868ZM16.198 29.6005C16.1514 29.6044 16.1106 29.6143 16.1106 29.6355C16.1106 29.6366 16.1801 29.6068 16.198 29.6005Z" fill="#E6B35A"/>
<path fill-rule="evenodd" clip-rule="evenodd" d="M13.3827 80.8182C13.1721 80.8612 12.6077 81.3281 12.4735 81.3952C11.7467 81.7586 10.7688 81.9807 10.2352 82.5144C9.63112 83.1185 8.81955 83.3705 8.13685 84.0532C7.67054 84.5195 7.34413 85.1257 6.87783 85.592C6.7002 85.7696 7.43222 87.2603 7.57728 87.5504C7.85632 88.1085 7.85353 88.8024 8.13685 89.369C8.3985 89.8923 8.52729 91.8578 8.8363 92.1668C9.12902 92.4596 8.97764 92.1652 9.11608 92.0269C9.1832 91.9598 9.37565 92.3269 9.53575 92.1668C9.88187 91.8207 10.6697 92.0195 11.2144 91.7472C12.1748 91.267 14.3788 91.8437 15.4112 91.3275C15.9078 91.0792 16.574 90.9133 17.2647 90.8029C17.3091 90.8444 17.3429 90.8842 17.3871 90.9253C17.3821 90.9368 17.3746 90.9488 17.3697 90.9603C17.4724 91.0332 17.5678 91.1133 17.6669 91.1876C17.9353 91.4283 18.1998 91.6527 18.3489 91.7297C18.3522 91.7325 18.363 91.7269 18.3663 91.7297C18.9544 92.2258 19.5154 92.7738 20.1849 93.4433C21.1564 94.4148 22.7096 101.319 22.9478 101.557C23.9498 102.559 24.023 105.797 24.9237 106.698C25.44 107.214 25.6733 107.85 26.1128 108.289C26.6589 108.835 27.6259 109.015 28.0888 109.478C28.6739 110.063 31.7899 106.372 32.2505 105.911C32.4495 105.712 32.72 105.007 32.845 104.932C33.1496 104.749 33.6655 104.847 33.8243 104.53C33.8641 104.45 33.7865 104.401 33.6669 104.372L28.6833 99.1788C27.7436 99.1788 26.802 94.9195 25.9204 94.0379C23.255 91.3724 21.3415 89.1509 19.0833 86.8335C18.6735 86.0929 18.3388 85.3021 17.6494 84.6127C17.0013 83.9646 16.0243 83.3209 15.5511 82.3745C15.4421 82.1566 14.2086 80.8509 13.8024 80.9406C13.7753 80.9466 13.7516 80.9564 13.7325 80.9756C13.7068 81.0013 13.6869 81.0352 13.6625 81.063C13.6058 80.9936 13.5337 80.9167 13.4527 80.8357C13.4395 80.8225 13.4128 80.812 13.3827 80.8182Z" fill="#E6B35A"/>
<path fill-rule="evenodd" clip-rule="evenodd" d="M57.3083 38.1514C57.2089 38.2896 56.9167 38.6374 56.8712 38.7284C56.8119 38.847 56.7245 38.9808 56.6439 39.1131C56.7502 38.9842 56.8589 38.8457 56.9761 38.7284C57.0787 38.6258 57.2218 38.3173 57.3083 38.1514ZM56.6439 39.1131C55.6293 40.343 55.0524 42.0335 54.0034 43.0825C53.2015 43.8844 52.5685 44.9889 53.0242 45.4607L53.7062 44.971C53.5293 44.6173 53.8287 44.2188 54.0034 43.8694C54.1098 43.6567 54.4056 43.0371 54.4056 43.2749C54.4056 43.654 55.6762 44.0851 56.1892 43.5721C56.8681 42.8933 55.4793 42.0018 55.9794 41.0016C56.109 40.7424 56.2767 40.3193 56.2767 40.0224C56.2767 39.7366 56.4614 39.4125 56.6439 39.1131ZM50.3488 47.2617C48.8957 47.5183 47.4639 47.9797 46.2045 48.5208C44.9425 48.6383 43.684 48.7574 42.5149 49.1678C37.7111 50.8541 33.2862 52.9491 28.6657 54.571C26.9139 55.186 24.8728 57.2011 23.5247 57.9109C20.7877 59.3522 18.201 60.845 15.6559 62.3525C15.3715 63.0149 15.3087 63.7041 15.6909 64.4683C16.0207 65.1279 16.3954 65.539 16.7925 65.7973C19.2362 64.3862 21.7861 63.1946 24.7138 61.653C26.1035 60.9213 32.0196 56.9707 33.422 56.2322C35.2928 55.2471 38.1397 54.7187 40.9411 54.1514C41.773 53.2754 42.9886 52.9346 44.3859 52.9448C44.8119 52.9476 45.2621 52.9853 45.7149 53.0497C46.0644 52.9619 46.3495 52.9262 46.4668 53.0497C46.5277 53.1139 46.5875 53.1894 46.6592 53.2421C47.2836 53.378 47.9154 53.536 48.5477 53.7492C49.9809 53.8774 51.674 53.8175 52.622 54.8158C54.2467 56.5269 57.9504 57.7852 59.8963 59.8344C61.1251 61.1285 61.0671 63.771 61.8548 65.4301C62.1778 66.1104 63.3695 71.4814 63.2887 72.3896C63.2765 72.2395 63.26 72.0938 63.2012 71.97C62.9456 71.4315 62.4687 70.0624 62.2045 69.7842L61.3127 68.8574C61.155 68.6913 60.8457 68.7517 60.6482 68.7C60.6471 68.6997 60.6494 68.6828 60.6482 68.6826C60.6346 68.6438 60.6205 68.6213 60.5958 68.5951C60.2651 68.2469 59.8917 68.4096 59.5466 68.2279C59.3985 68.1499 59.1975 68.2318 59.057 68.158C57.6348 67.4091 56.3291 69.7399 56.3291 71.0257C56.3291 71.769 57.5323 73.3115 58.4625 73.5438C58.6601 73.3461 59.4747 73.3961 59.739 73.264C60.1023 73.0823 60.5769 72.6694 60.8406 72.6694C60.9038 72.6694 60.3243 73.0809 59.9488 73.4563C59.778 73.6271 59.4148 73.8541 59.092 74.1208C59.1464 74.3245 59.2061 74.5252 59.3368 74.6629C59.3863 74.715 59.2873 74.9255 59.3368 74.9776C59.5828 75.2367 59.6632 75.6126 59.669 76.0268C60.1632 76.0147 60.7194 75.9219 61.033 75.9219C61.5487 75.9219 62.1171 75.6108 62.1171 75.7295C62.1171 75.8693 60.8415 76.0615 60.6308 76.1317C60.29 76.2453 59.9673 76.339 59.6515 76.4465C59.6219 76.8481 59.5574 77.2595 59.5291 77.6356C59.5178 77.6367 59.5054 77.6344 59.4942 77.6356C59.4061 78.9333 59.1863 80.2104 58.8821 81.4476C58.8872 81.5995 58.8909 81.7507 58.8996 81.9022C58.726 82.3749 58.5283 82.8234 58.34 83.2662C55.5558 91.6812 48.5066 98.1377 44.4909 99.1612C44.547 99.1967 44.6089 99.2161 44.6657 99.2487C42.8181 99.7188 41.0835 100.245 40.1368 101.242C39.9539 101.435 39.2041 101.116 38.9652 101.242C34.0929 103.808 27.3056 103.105 23.9269 106.663C21.8439 108.857 37.6176 104.582 37.7761 104.582C39.1366 104.582 42.0987 103.956 43.3018 103.323C43.888 103.014 45.4123 103.323 46.0821 103.323C48.9112 103.323 50.956 103.966 53.1466 105.002C53.6544 104.679 54.0718 104.477 54.3007 104.477C54.6848 104.477 57.9326 103.535 59.2843 103.34C58.8546 103.194 58.3581 102.882 58.2876 102.501C56.6154 102.101 55.2017 101.679 54.3881 100.822C54.3712 100.805 54.362 100.791 54.3532 100.77C54.2335 100.694 54.1241 100.599 54.0209 100.49C53.9798 100.447 53.1816 100.525 53.1816 100.49C53.1816 100.278 57.3003 97.0349 57.9379 96.3635C58.9466 95.3012 59.9773 95.0961 61.0155 94.0028C62.7611 92.1644 65.425 89.651 67.1706 87.8126C67.2216 87.8662 70.8336 84.8451 71.0876 84.5777C71.7787 83.8499 72.5106 83.3057 73.2209 82.7766C73.2226 82.7694 73.2366 82.7663 73.2384 82.7591C73.5171 81.7023 74.595 80.2902 74.7247 80.1536C74.9547 79.9114 75.1421 79.5577 75.3193 79.1569C75.3072 79.0019 75.2843 78.7574 75.2843 78.6847C75.2843 76.2478 75.3688 73.9357 75.4417 71.6552C75.6646 69.4396 75.7237 67.0904 75.5816 64.888C75.6134 63.4987 75.8534 57.184 75.5641 56.8792C75.1445 56.4373 74.5849 56.1496 74.1652 55.7077C74.0156 55.5501 73.782 55.4854 73.5008 55.4628C73.0109 55.6035 72.5541 55.7276 72.4865 55.7951C72.1238 56.1579 71.5172 56.3448 71.0876 56.7743C70.7668 57.0952 70.4242 57.7175 69.9685 58.1732C69.5282 58.6135 69.262 59.0197 68.8494 59.4322C68.8433 59.4383 68.4297 60.1463 68.4297 59.9918C68.4297 59.9361 68.7879 59.4937 68.8494 59.4322C69.166 59.1156 69.1186 58.3237 69.409 58.0333C70.2781 57.1642 71.565 56.2871 72.0319 54.9208C71.9979 54.8893 71.951 54.8411 71.927 54.8158C71.4962 54.3622 70.7078 53.9069 69.7412 53.4519C69.7415 53.6031 69.7323 53.7495 69.6888 53.8366C69.364 54.4862 68.3823 56.2622 68.0101 56.6344C67.9103 56.7342 67.8263 57.0046 67.7478 57.2639C67.7439 57.3377 67.7303 57.4227 67.7303 57.4738C67.7303 57.5316 67.6706 57.6022 67.6079 57.6661C67.5562 57.7986 67.5093 57.8934 67.4505 57.8934C67.3402 57.8934 67.4884 57.7881 67.6079 57.6661C67.6533 57.5498 67.7023 57.414 67.7478 57.2639C67.769 56.8715 67.8481 56.2369 68.15 55.935C68.2387 55.8462 68.0918 55.4919 68.15 55.3754C68.3469 54.9815 68.8702 53.4584 68.7096 53.1372C68.6889 53.0959 68.6768 53.0286 68.6571 52.9623C68.6504 52.9595 68.6464 52.9476 68.6397 52.9448C65.3835 51.5959 60.8283 50.3002 58.7774 49.2202C57.9029 48.7598 56.8048 48.9029 56.2593 48.3284C55.1623 47.1732 51.7144 49.0064 50.3488 47.2617Z" fill="#E6B35A"/>
<path fill-rule="evenodd" clip-rule="evenodd" d="M133.899 46.7198C134.911 48.4585 138.616 49.6744 138.463 50.899C135.779 52.8788 131.997 53.9282 130.699 57.404C129.552 59.0031 128.536 60.6615 127.638 62.4051C127.328 62.7888 127.014 63.1518 126.712 63.4542C126.451 63.7149 126.179 64.3089 126.012 64.6433C125.85 64.9674 125.418 65.4475 125.225 65.64C124.738 66.1275 124.246 67.5113 123.739 68.0182C123.728 68.029 123.702 68.1015 123.687 68.1231C123.226 68.3334 122.696 68.5397 122.165 68.8051C121.677 69.049 121.151 68.8661 120.679 69.1023C120.636 69.1238 120.573 69.1184 120.504 69.1023C120.731 69.2064 122.676 69.6969 122.847 69.6969C123.332 69.6969 123.975 69.8967 124.613 70.169C124.619 70.1746 124.625 70.1808 124.631 70.1865C124.65 70.2057 124.764 70.2599 124.911 70.3089C125.126 70.4072 125.317 70.503 125.523 70.6061C125.193 70.5519 124.588 70.4347 123.914 70.2914C123.892 70.3903 123.863 70.489 123.844 70.5886C124.179 70.9233 124.646 71.1983 124.928 71.4804C124.953 71.505 125.33 71.5122 125.33 71.5679C125.33 71.6998 125.06 71.5679 124.928 71.5679C124.764 71.5679 124.248 71.5139 123.722 71.4455C123.631 72.2473 123.615 73.0653 123.704 73.911C123.692 76.4495 123.639 78.9899 123.617 81.5351C123.615 81.5407 123.618 81.5471 123.617 81.5525C123.484 82.0368 123.552 82.6205 123.599 83.1963C123.598 83.5398 123.598 83.8845 123.599 84.228C123.596 84.2454 123.603 84.2632 123.599 84.2804C123.571 84.4361 123.511 84.5967 123.442 84.735C123.35 84.9197 123.534 85.2324 123.442 85.417C123.017 86.2668 122.704 86.9966 122.358 87.6902C122.222 87.9606 121.587 89.3154 121.955 89.6837C122.114 89.8426 122.316 90.2191 122.463 90.3656C122.573 90.4757 122.968 90.4706 123.145 90.4706C123.378 90.4706 123.581 90.4109 123.774 90.3481C123.842 91.5697 123.927 92.7857 124.054 94.0028C125.618 97.007 128.598 99.0283 130.996 101.295C133.825 103.944 137.346 105.584 140.176 108.184C141.937 110.274 143.998 115.384 147.031 112.101C151.347 108.88 156.226 106.392 159.866 102.239C161.959 101.952 163.585 99.4334 165.461 98.182C166.766 96.3326 164.802 93.7606 166.126 91.817C166.856 89.6277 166.186 87.1217 166.371 84.8225C166.272 78.1754 166.202 71.5288 165.899 64.888C167.726 65.5134 167.788 66.1852 167.228 67.8957C167.342 71.6569 171.954 71.8156 172.229 67.9831C172.66 64.8913 169.961 63.4538 168.224 61.6356C165.782 60.0142 163.386 58.5022 160.653 57.4738C158.465 56.5484 155.924 56.2485 154.165 54.4312C151.725 53.3893 149.288 52.4549 146.734 51.7908C144.564 50.517 142.454 49.3146 140.036 48.6257C138.061 47.7624 135.953 47.3146 133.899 46.7198ZM145.772 55.4805C147.69 56.2734 149.492 57.6658 151.402 58.6105C153.331 60.2706 156.712 60.3069 157.313 63.2619C157.518 63.8337 157.704 64.4086 157.855 64.993C157.795 65.053 157.712 65.1364 157.68 65.1679C157.309 65.5386 158.24 66.5669 158.24 67.1264C158.24 67.6978 157.69 67.8156 157.4 68.1056C157.012 68.4943 157.278 73.1068 156.841 73.981C156.642 74.3789 156.819 75.8213 156.561 76.0794C155.778 76.8627 156.205 82.527 155.442 84.0532C155.045 84.8474 155.582 86.4775 155.582 87.2706V88.6695C155.582 88.826 155.419 89.0668 155.442 89.0892C155.678 89.325 156.465 89.1333 156.701 89.369C157.418 90.0867 155.478 90.9436 155.582 91.0477C155.611 91.077 156.841 91.8122 156.841 91.887C156.841 91.9575 155.542 92.2062 155.442 92.3067C155.211 92.5375 154.902 99.0408 155.162 99.3012C155.512 99.6516 155.994 99.7763 156.473 99.7909C153.585 101.553 150.823 103.663 147.73 104.967C147.71 104.981 147.682 104.988 147.66 105.002C147.067 105.392 146.229 105.63 145.702 105.894C145.41 106.04 144.587 106.698 144.408 106.698C144.375 106.698 144.868 106.43 145.107 106.191C145.239 106.059 145.96 105.511 146.471 104.949C146.383 104.546 146.313 104.134 146.244 103.708C145.513 103.775 144.513 104.195 144.513 104.023C144.513 103.855 145.544 103.178 146.087 102.781C145.928 101.851 145.728 100.934 145.352 100.141C145.067 100.268 144.761 100.4 144.513 100.648C144.679 100.434 144.893 100.18 145.107 99.9657C145.147 99.9259 145.175 99.8993 145.212 99.8608C144.843 99.1955 144.32 98.6268 143.551 98.2521C140.933 96.6941 138.212 95.422 135.228 94.9297C131.776 95.3324 130.626 91.7511 131.241 88.687C131.746 84.549 131.878 80.3891 131.748 76.2193C131.874 74.7265 131.631 73.1115 131.678 71.5854C131.778 71.6585 132.061 71.6889 132.15 71.7777C132.182 71.8096 132.326 72.075 132.342 72.075C132.352 72.075 133.227 70.5961 133.339 70.4838C134.701 69.1222 134.999 67.0579 136.312 65.745C136.551 65.5053 136.562 65.0928 136.801 64.8532C137.186 64.4683 138.288 63.5572 138.288 63.1745C138.288 62.8417 137.658 61.943 137.256 61.4783C137.352 61.3126 137.46 61.1559 137.553 60.9887C137.565 60.9898 137.577 60.9887 137.588 60.9887C138.039 60.9887 138.397 60.9909 138.777 61.181C138.931 61.2577 140.411 58.8269 140.753 58.3133C140.863 58.1481 141.323 57.5409 141.75 56.9493C142.909 56.4464 144.144 56.0646 145.265 55.5854L145.772 55.4805ZM119.91 68.9275C119.821 68.9215 119.741 68.9382 119.682 68.9974C119.583 69.097 120.24 69.0276 120.452 69.1023C120.287 69.0544 120.081 68.9391 119.91 68.9275ZM144.495 100.665C144.454 100.723 144.3 101.05 144.216 101.05C144.212 101.05 144.327 100.882 144.495 100.665Z" fill="#E6B35A"/>
<path fill-rule="evenodd" clip-rule="evenodd" d="M175.761 41.5786C175.691 41.6767 175.618 41.7618 175.533 41.8409C175.602 41.9306 175.67 42.0303 175.726 42.0857C175.86 42.2197 176.285 42.5177 176.285 42.7852C176.285 42.9388 177.582 44.9212 177.824 45.1633C179.007 46.3459 179.97 49.0604 180.08 51.371C179.879 51.1961 179.667 51.0314 179.45 50.8639C179.422 50.8307 179.392 50.7879 179.363 50.7589C177.569 48.9652 175.726 46.7026 173.907 44.8835C173.589 44.5653 173.044 44.3 172.648 43.9043C172.445 43.7012 170.998 42.6167 170.97 42.6453C170.64 42.975 171.809 43.2981 171.809 43.7644C171.809 43.9986 174.531 47.7567 174.467 47.8212C174.291 47.9969 174.069 47.7031 174.047 47.6813C174.028 47.6617 173.778 47.6475 173.435 47.6464C173.352 47.6286 173.281 47.6183 173.243 47.6464C173.137 47.6467 173.032 47.6624 172.911 47.6638C172.728 47.6045 172.553 47.5414 172.368 47.5414C171.783 47.5414 171.205 47.6364 170.602 47.7163C170.421 47.7227 170.228 47.727 170.06 47.7337C170.126 47.74 170.187 47.7599 170.253 47.7687C169.943 47.8031 169.632 47.8212 169.291 47.8212C169.257 47.8212 169.157 47.834 169.099 47.8386C169.114 47.8313 169.136 47.8284 169.151 47.8212C169.2 47.7964 169.267 47.784 169.326 47.7687C168.948 47.7888 168.606 47.8062 168.591 47.8212C168.556 47.8567 168.517 47.8973 168.469 47.9261C167.97 48.0054 167.431 48.1111 167.245 48.2408C167.061 48.2786 166.893 48.3205 166.773 48.3807C166.432 48.5511 165.933 48.8029 165.933 48.8004C165.933 48.7688 166.622 48.6068 167.402 48.3982C167.975 48.4188 169.577 48.3077 169.99 48.1009C170.806 47.6932 172.172 48.9778 173.068 48.3807C173.136 48.3352 173.201 48.2619 173.26 48.1884C173.406 48.2198 173.548 48.2555 173.697 48.2933C173.659 48.3774 173.627 48.4519 173.627 48.5206C173.627 48.7538 174.094 48.5206 174.327 48.5206C174.48 48.5206 174.845 48.7352 174.991 48.678C175.684 48.9347 176.344 49.2555 176.88 49.6222C176.834 49.6436 176.787 49.6513 176.74 49.6747C176.723 49.6685 176.704 49.664 176.688 49.6572C176.686 49.6685 176.689 49.6809 176.688 49.6922C175.559 50.2597 174.263 51.2245 173.295 52.1927C172.826 52.6619 172.878 53.799 172.508 54.1687C171.849 54.8276 172.509 57.2063 172.526 57.6485C172.658 57.3044 173.42 55.9125 173.505 55.7425C173.871 55.0109 175.05 54.3794 176.32 54.0813C176.261 57.4654 176.555 60.9271 176.268 64.2583C175.847 69.1385 175.864 74.32 176.46 79.1567C176.602 80.3054 176.2 93.2654 176.67 93.8102C177.177 94.3968 177.88 95.3795 178.436 96.3457C180.855 100.548 184.198 103.926 186.165 108.481L187.739 112.136C187.8 112.277 188.295 113.211 188.351 113.465C188.504 113.202 189.436 112.196 189.715 111.227C190.473 108.593 192.052 106.779 193.474 104.582C195.417 101.582 198.244 98.6237 200.014 96.5731C200.388 96.1407 200.484 95.5633 200.609 94.9993C202.606 97.3698 204.706 99.732 206.659 102.256C206.662 102.259 206.656 102.27 206.659 102.274C206.88 102.616 207.185 103.001 207.516 103.393C207.528 103.407 207.539 103.414 207.551 103.428C208.157 104.249 208.74 105.099 209.3 105.963C209.982 107.016 210.358 108.55 211.083 109.391C211.384 109.739 212.177 112.381 212.465 112.381C212.506 112.381 214.778 107.358 215.84 105.718C217.232 103.568 219.099 101.782 220.386 99.5457C221.488 97.631 222.281 95.4674 223.114 94.0375C223.748 94.3354 224.549 94.2634 225.107 93.7053C225.474 93.339 225.49 91.6728 225.247 91.1873C224.993 90.6798 225.372 90.0374 225.107 89.5086C224.624 88.541 225.324 87.1434 224.827 86.1512C224.52 85.5361 225.12 83.5059 224.688 83.0736C224.153 82.5386 224.498 79.2672 224.093 77.8976C224.078 77.4818 224.062 77.0709 224.041 76.6561C224.043 76.6023 224.03 76.5476 224.023 76.4987C223.909 74.3793 223.713 72.2726 223.359 70.2211C223.124 68.8611 223.438 67.4336 223.149 66.0944C222.956 65.202 222.739 53.7875 222.956 53.0321C222.979 52.9545 223.028 52.7138 223.079 52.4375C224.868 50.8835 227.174 49.2885 228.5 48.6255C228.788 48.4815 230.073 48.033 230.073 47.8386C230.073 47.608 228.081 48.4331 226.524 48.4331C224.854 48.4331 212.564 49.715 212.272 50.0069C212.182 50.0086 212.103 50.0148 212.08 50.0419C211.999 50.1359 212.867 55.3168 212.867 56.0047C212.867 57.8783 213.758 62.6764 214.441 64.2583C215.031 65.6269 214.962 68.3429 215.437 69.9938C215.485 70.1598 215.441 70.4828 215.402 70.8157C214.996 71.7965 214.588 72.6094 213.916 73.2812C213.86 73.3368 214.442 73.8067 214.476 73.8408C214.872 74.237 214.872 75.4719 215.175 76.0791C215.452 76.6332 215.087 77.8099 215.455 78.1774C215.678 78.401 215.516 80.8965 215.875 81.255C216.304 81.6841 215.468 86.0366 215.875 86.8506C216.044 87.1897 216.761 86.9443 216.994 87.4102C217.143 87.7094 216.68 87.9359 216.854 88.1097C216.656 88.0995 216.457 88.0863 216.434 88.1097C216.394 88.1502 215.746 88.4003 215.875 88.5293C216.14 88.7952 218.672 90.0314 218.672 90.208C218.672 90.4074 216.266 90.2652 216.014 90.7676C215.959 90.8783 216.285 92.4375 216.434 92.5862C216.664 92.8163 217.189 92.7956 217.798 92.9359C217.611 93.2956 217.673 94.6053 217.553 94.9643C217.415 95.3797 217.267 95.8803 217.134 96.3982C216.629 96.7338 216.129 97.0703 215.612 97.22C214.521 97.5359 212.963 97.6939 212.255 98.514C212.164 98.6193 210.333 97.4034 210.017 97.22C207.858 95.9699 205.431 95.2321 203.337 94.055C203.332 94.0528 203.324 94.0573 203.319 94.055C203.29 94.0274 203.261 94.012 203.232 93.9851C202.929 92.3682 202.568 88.9285 202.358 86.4135C202.483 85.6064 202.622 84.801 202.777 84.0004C202.604 84.016 202.367 84.0353 202.288 84.0353C202.238 84.0353 201.352 83.9229 201.169 83.9304C201.127 83.9602 201.099 83.9673 201.099 83.9304C201.099 83.9265 201.148 83.931 201.169 83.9304C201.21 83.9006 201.258 83.8595 201.291 83.843C201.615 83.6809 202.043 83.7116 202.375 83.5457C202.51 83.4784 202.712 83.5056 202.882 83.4933C202.913 83.3417 202.937 83.19 202.97 83.0386C203.115 82.3633 203.117 81.6351 203.145 80.9228C203.072 80.7327 203.025 80.5209 202.987 80.2933C202.563 80.3712 202.122 80.4944 201.885 80.5731C201.759 80.6151 201.562 80.5748 201.396 80.5556C201.268 80.666 201.099 80.796 201.099 80.678C201.099 80.5451 201.23 80.5366 201.396 80.5556C201.428 80.5281 201.462 80.489 201.483 80.4682C201.708 80.2439 202.465 80.0033 202.935 79.9261C202.826 78.7564 203.039 77.2653 203.249 75.8518C203.204 75.845 203.071 75.8378 203.075 75.8343C203.118 75.7912 203.182 75.7242 203.267 75.677C203.322 75.3092 203.378 74.9374 203.424 74.5928C202.822 74.6701 202.073 74.6452 201.588 74.6452C201.56 74.6452 201.521 74.6189 201.483 74.6103C201.52 74.5825 201.561 74.5541 201.588 74.5403C201.843 74.4127 202.222 74.4771 202.48 74.348C202.645 74.2655 203.068 74.1806 203.477 74.1032C203.524 73.704 203.557 73.3293 203.564 73.0015C203.065 73.0555 202.496 73.1385 202.008 73.2288C201.59 73.4045 201.139 73.5028 201.186 73.4562C201.252 73.3905 201.598 73.3048 202.008 73.2288C202.068 73.2038 202.126 73.1875 202.183 73.1589C202.627 72.9367 203.277 72.7873 203.687 72.5119C203.797 72.2581 203.936 71.997 203.774 71.6726C202.877 69.8786 204.467 66.9218 203.582 65.1502C203.174 64.3344 202.585 58.6345 202.585 57.4212C202.585 56.2518 201.705 52.3734 201.798 52.2803C202.143 51.9352 205.767 49.4877 207.533 48.3458C207.679 48.0048 207.795 47.6743 207.726 47.5939C207.66 47.5182 207.567 47.4977 207.446 47.5065C207.085 47.5327 206.549 47.8387 206.344 47.8387C203.95 47.8387 201.474 48.0486 199.018 48.0486C198.734 48.0486 197.414 47.8397 197.234 48.0486C197.228 48.055 197.256 48.2885 197.269 48.3808C194.533 47.7294 193.024 48.3544 192.688 49.1327C192.483 49.6066 193.473 55.742 193.684 56.477C193.981 57.5081 193.388 58.8907 193.684 59.9218C193.928 60.7695 193.725 62.3245 194.069 63.1218C195.096 65.5007 193.428 70.0478 194.069 73.0191C194.494 74.9869 193.945 76.6294 194.471 78.4573C194.489 78.5209 194.506 78.5857 194.524 78.6497C194.646 80.1249 194.751 82.2669 194.751 82.9338V84.0529C194.751 84.1969 194.507 84.2285 194.611 84.3327C194.923 84.6447 195.424 84.7667 195.8 85.0147C195.848 85.2202 195.904 85.425 195.958 85.6267C195.638 86.0414 194.814 86.4939 194.891 86.571C195.153 86.8333 195.694 86.8473 196.115 86.9382C196.13 87.0543 196.151 87.1695 196.167 87.2879C195.633 87.453 194.751 87.7166 194.751 87.9699C194.751 88.3733 195.125 91.513 195.031 91.607C194.894 91.7435 194.611 93.4659 194.611 93.5655C194.611 93.9385 195.357 93.5655 195.73 93.5655C195.867 93.5655 196.165 93.5849 196.412 93.6005C196.118 93.8223 195.831 94.0408 195.608 94.2999C193.929 96.2445 191.686 97.545 189.592 99.1611C189.374 99.3301 188.531 100.19 188.473 100.123C187.644 99.1621 186.652 98.4199 185.396 97.6923C185.004 97.4655 184.808 96.8 184.417 96.5732C182.761 95.6147 181.414 93.931 179.87 92.6912C179.797 92.5563 179.738 92.4235 179.695 92.3065C179.845 92.2693 179.98 92.2402 180.132 92.2016C181.06 92.1757 183.557 91.7491 183.7 91.607C184.148 91.1582 183.51 89.4687 183.839 88.8092C184.063 88.3616 183.616 87.5782 183.839 87.1305C183.907 86.9959 184.011 86.2912 183.839 86.2912C183.559 86.2912 182.43 86.0012 182.301 85.8715C182.239 85.81 184.022 85.0322 183.839 85.0322C183.733 85.0322 183.653 82.001 183.979 81.6748C184.246 81.4084 183.647 80.0835 183.56 79.9961C183.211 79.6469 184.178 78.8187 184.259 78.7371C184.399 78.5968 183.965 76.9326 184.399 76.4988C184.565 76.3333 184.259 74.8137 184.259 74.4005C184.259 71.7027 183.839 69.0004 183.839 66.5666C183.839 66.3812 183.85 65.7115 183.857 65.1152C183.855 65.1102 183.859 65.1027 183.857 65.0978C183.666 64.564 183.979 63.5714 183.979 63.2092C183.979 62.6721 183.904 61.6057 184.119 61.3907C184.195 61.3152 184.314 61.2886 184.451 61.2858C184.817 62.146 185.379 62.9303 185.658 63.2092C185.763 63.3141 186.901 64.484 187.477 63.9087C187.813 63.5726 188.172 63.3534 188.456 63.0694C188.69 62.8351 188.781 62.0446 189.015 61.8103C189.1 61.7259 189.015 61.1037 189.015 60.971C189.015 58.6133 188.764 55.5436 187.337 54.1163C187.323 54.1026 187.298 54.0951 187.284 54.0814C187.278 54.0705 187.273 54.0573 187.267 54.0464C186.565 52.8938 185.456 51.9257 184.871 50.9513C184.816 50.8595 184.762 50.7816 184.696 50.7065C184.671 50.8406 184.624 50.9842 184.679 51.0387C185.84 52.1997 187.574 56.5793 186.637 58.453C186.061 59.6054 186.602 59.8519 185.238 59.8519C185.07 59.8519 184.878 60.0508 184.679 59.8519C183.85 59.0231 183.491 57.7504 182.948 56.547C182.967 56.5304 182.982 56.5123 183 56.4945C183.307 56.1877 183.231 54.4384 183 53.9765C182.496 52.9675 183.241 51.9403 182.72 50.8989C181.659 48.7771 180.836 45.9367 179.083 44.1841C178.275 43.3762 177.335 42.3308 176.285 41.806C176.223 41.7749 175.956 41.659 175.761 41.5786ZM169.326 47.7687C169.531 47.7578 169.739 47.7447 170.008 47.7338C169.909 47.7256 169.803 47.7159 169.711 47.7163C169.564 47.7169 169.445 47.7377 169.326 47.7687ZM201.413 74.6103C201.427 74.607 201.445 74.6064 201.466 74.6103C201.42 74.6446 201.396 74.6851 201.396 74.6453C201.396 74.6288 201.4 74.6134 201.413 74.6103ZM188.333 113.482C188.316 113.516 188.311 113.517 188.333 113.517C188.349 113.517 188.357 113.516 188.351 113.482C188.35 113.484 188.335 113.481 188.333 113.482Z" fill="#E6B35A"/>
<path fill-rule="evenodd" clip-rule="evenodd" d="M248.176 46.877C243.809 48.188 233.696 60.9645 230.62 70.0464C230.257 71.1157 228.125 75.8925 229.71 77.0933C231.052 78.1096 232.514 80.3296 234.082 81.5174C235.354 82.481 237.068 82.6998 238.978 82.5316C238.863 81.5113 238.737 80.2759 238.961 80.2759C239.11 80.2759 239.44 81.4242 239.8 82.4442C240.031 82.4122 240.264 82.3802 240.499 82.3393C240.294 81.7669 240.131 81.2041 240.36 80.9753C240.429 80.9058 240.834 81.5306 241.234 82.1819C243.081 81.8025 244.985 81.2313 246.83 80.6781C246.768 79.8505 246.722 79.0168 247.074 79.0168C247.287 79.0168 247.379 80.046 247.459 80.4857C247.713 80.4105 247.98 80.33 248.228 80.2584C248.312 79.8574 248.468 78.5972 248.473 78.5972C248.566 78.5972 248.432 78.7935 248.473 78.877C248.627 79.1852 248.679 79.6517 248.736 80.1185C251.538 79.3362 253.966 78.8907 255.24 79.8562C256.405 80.7381 257.158 83.139 257.689 83.913C260.24 87.636 254.428 104.243 252.635 106.61C252.094 107.324 249.042 112.555 248.316 113.71C248.831 113.473 249.905 113.552 250.414 113.203C252.764 111.592 255.317 108.922 257.042 106.645C261.527 100.724 264.357 93.7436 266.834 86.4311C267.518 84.4118 267.143 82.0258 267.831 79.9961C268.209 78.8785 267.313 76.2597 267.149 75.0649C265.339 61.9464 248.897 73.9547 245.238 71.183C240.092 67.284 243.087 58.446 244.714 53.6442C245.556 51.1583 246.096 50.365 248.176 46.877ZM248.316 113.71C248.117 113.801 247.986 113.928 248.019 114.164C248.02 114.176 248.223 113.857 248.316 113.71Z" fill="#E6B35A"/>
<path fill-rule="evenodd" clip-rule="evenodd" d="M236.217 94.7959C236.167 94.7965 236.125 94.8139 236.084 94.8339C234.495 95.6095 233.195 97.6228 231.606 98.3984C230.966 98.7104 233.297 98.5182 233.828 98.7009C234.568 98.9555 238.191 100.922 238.589 101.738C238.948 102.474 240.107 103.052 240.461 103.778L241.966 106.851C242.391 107.723 243.48 110.089 243.656 111.411C243.722 111.91 243.696 112.531 243.855 112.857C243.89 112.928 243.938 112.972 243.992 112.995C243.264 114.475 242.336 116.839 245.561 116.394C249.435 115.859 251.056 112.467 252.896 110.038C253.132 109.727 252.632 109.442 252.594 109.412C252.489 109.333 252.415 109.227 252.336 109.114C253.062 108.826 253.977 108.411 253.718 107.882C253.006 106.422 250.878 104.705 249.65 103.453C248.389 102.168 239.533 94.008 237.41 95.0439C237.124 95.1833 236.568 94.7904 236.217 94.7959Z" fill="#E6B35A"/>
<path fill-rule="evenodd" clip-rule="evenodd" d="M235.833 93.8665C235.723 93.877 235.633 93.9025 235.574 93.9809C234.661 95.1855 231.339 96.4915 229.143 97.7755C229.111 97.7897 229.084 97.8125 229.052 97.8273C227.14 98.7178 225.098 100.536 224.894 103.43C224.851 104.028 225.591 104.527 225.685 104.755C226.166 105.915 227.018 106.541 228.123 106.619C232.394 106.921 233.152 100.398 230.386 98.5273C231.21 98.2449 232.007 98.1154 232.415 98.4243C232.464 98.4612 233.071 99.1077 233.344 98.748C233.937 97.964 239.007 96.9466 239.274 96.5941C239.455 96.3551 237.068 94.1836 236.705 94.0606C236.645 94.0403 236.163 93.8351 235.833 93.8665Z" fill="#E6B35A"/>
<path fill-rule="evenodd" clip-rule="evenodd" d="M248.123 47.3317C247.041 47.2324 243.93 51.8402 243.35 52.8049L242.965 55.6552C242 56.1607 241.171 55.9187 240.307 55.9349C240.205 55.9366 241.703 57.0577 241.881 57.2289C242.281 57.6147 242.855 57.9621 243.49 58.2781C243.568 57.923 243.773 57.5579 244.137 57.194C244.277 57.0537 244.322 56.3546 244.556 56.3546C244.647 56.3546 243.851 57.6038 243.909 58.4705C244.237 58.6218 244.579 58.765 244.923 58.9076C245.367 58.4671 245.796 57.6136 246.235 57.6136C246.405 57.6136 245.864 58.587 245.815 59.2923C246.386 59.5234 246.952 59.741 247.441 59.9743C247.451 59.9788 247.465 59.9874 247.476 59.9917C247.497 60.026 247.519 60.0519 247.546 60.0792C248.084 60.6163 249.301 60.2949 249.75 60.7437C249.911 60.9055 250.304 60.8912 250.676 60.901C250.714 60.6751 250.758 60.4588 250.851 60.2715C251.055 59.8631 251.271 59.3935 251.271 59.0125C251.271 58.9928 251.3 58.9479 251.323 58.9076C251.316 58.8113 251.333 58.7327 251.411 58.7327C251.433 58.7327 251.372 58.8241 251.323 58.9076C251.341 59.1331 251.505 59.5233 251.411 59.712C251.294 59.9462 251.214 60.4419 251.201 60.9535C251.283 60.9784 251.36 61.0254 251.411 61.0759C251.576 61.241 251.998 61.1381 252.163 61.3032C252.287 61.4271 252.474 61.5097 252.705 61.5655C252.981 60.613 253.362 59.2923 253.649 59.2923C253.842 59.2923 253.509 60.5099 253.334 61.6355C254.517 61.6885 256.281 61.3694 257.916 61.1284C259.06 61.3934 260.345 61.2412 261.308 61.7229C261.602 61.8697 262.099 61.5761 262.392 61.7229C262.552 61.8026 262.841 61.8751 263.179 61.9327C263.186 61.9338 263.19 61.9316 263.197 61.9327C264.8 62.791 266.258 63.7 267.481 64.9229C267.574 65.0163 268.701 66.6822 268.897 66.5841C269.682 66.1918 269.107 64.3031 269.107 63.5939C269.107 62.9726 269.216 62.2519 268.81 61.8453C268.644 61.6795 268.394 61.515 268.11 61.3732C268.131 61.0794 268.143 60.8181 268.233 60.6387C268.407 60.2897 269.034 58.1175 269.02 58.1032C268.891 57.9748 268.606 58.0043 268.477 57.8759C267.778 57.1769 266.585 56.7811 265.487 56.2322C264.751 55.8643 263.256 56.1166 262.724 55.5852C262.617 55.4775 262.259 55.4491 261.85 55.4453C261.235 55.1919 260.706 55.0256 260.434 55.0256C259.873 55.0256 257.563 54.3582 257.234 54.0289C256.939 53.7344 255.475 53.5991 255.363 53.4868C255.257 53.3812 255.181 53.2132 255.1 53.0497C253.059 52.0611 251.092 50.9733 249.435 49.3775C248.954 48.9141 248.752 47.8395 248.316 47.4191C248.263 47.3683 248.196 47.3383 248.123 47.3317Z" fill="#E6B35A"/>
<path fill-rule="evenodd" clip-rule="evenodd" d="M264.327 58.7946C264.305 59.1221 263.935 59.7558 264.263 59.7772C264.59 59.7986 264.244 58.4771 264.327 58.7946C264.602 59.8441 264.415 60.359 264.579 60.9819C264.684 61.3835 265.392 61.6271 265.497 62.0287C265.56 62.2691 266.306 62.3679 266.447 62.5842C266.878 63.2436 268.483 64.2096 268.664 64.8999C268.706 65.0587 268.851 65.4539 268.933 65.3122C269.194 64.8665 269.776 59.9693 269.842 58.9577C269.953 57.2566 272.06 52.0717 271.829 51.1934C271.725 50.7955 271.33 50.4277 271.022 49.9566C269.931 48.285 264.866 47.9615 265.554 50.586C265.826 51.6249 265.548 53.0986 266.391 54.3904C267.065 55.4238 269.188 54.7502 268.847 54.5509C268.647 54.4338 268.645 55.0078 268.704 55.2323C268.768 55.4761 267.956 56.5112 267.815 56.753C267.225 57.763 266.864 59.0198 266.672 59.1452C266.426 59.3057 265.974 59.7575 266.228 59.9056C266.861 60.2759 264.96 59.1649 264.327 58.7946Z" fill="#E6B35A"/>
<path fill-rule="evenodd" clip-rule="evenodd" d="M293.916 48.7132C293.638 48.7417 292.435 50.0197 291.975 50.4793C289.87 52.5841 287.509 54.3398 285.383 56.4247C284.131 56.7435 282.708 57.2288 282.113 57.8236C281.548 58.3884 280.959 59.0824 280.329 59.7121C279.897 60.1443 279.497 62.6256 279.245 62.8771C278.854 63.2679 278.431 64.1635 277.951 64.6433C277.676 64.9185 277.364 65.2172 277.077 65.5001C277.007 65.5264 276.938 65.5639 276.867 65.5875C276.003 65.8755 274.999 66.4269 274.139 66.4269C273.977 66.4269 272.53 66.5456 272.53 66.5668C272.53 66.622 273.204 66.6587 273.3 66.7066C273.611 66.8626 274.799 66.7549 275.66 66.899C274.669 67.8626 273.682 68.8422 272.723 69.8017C272.642 69.8823 272.501 70.2043 272.373 70.5711C271.969 70.754 271.619 70.9034 271.481 70.9034C271.481 70.9034 269.103 71.6378 269.033 71.6728C268.997 71.691 268.947 71.6957 268.893 71.6902C268.581 71.8163 268.333 71.9529 268.054 72.0924C267.968 72.1354 267.774 72.0662 267.774 72.1624C267.774 72.2558 269.021 72.2323 269.173 72.2323C269.667 72.2323 270.229 72.2357 270.642 72.4421C270.682 72.4625 271.229 72.3797 271.831 72.2848C271.767 72.6374 271.74 73.1701 271.831 73.3514C272.028 73.746 272.31 73.8676 272.618 73.8585C272.556 73.9534 272.503 74.0436 272.478 74.1033C272.482 74.1326 272.473 74.1617 272.478 74.1908C272.574 74.2505 273.052 74.1908 273.16 74.1908H273.719C273.766 74.1908 273.859 74.1442 273.859 74.1908C273.859 74.2446 273.681 74.2292 273.649 74.2607C273.376 74.534 272.989 74.7936 272.635 75.0826C273.032 77.0663 272.484 79.2602 272.88 81.2378C273.693 85.3045 274.205 91.9675 272.88 95.9438C272.711 96.452 272.788 98.2216 272.425 98.5842C272.416 98.5933 271.789 99.2765 271.971 99.4585C272.367 99.0302 274.031 98.1915 274.524 98.3744C274.216 98.5963 274.037 98.8883 274.209 99.2312C274.23 99.2735 274.177 99.4087 274.209 99.441C274.522 99.7546 274.696 100.104 275.188 100.35C275.477 100.495 276.9 100.733 277.077 100.91C277.423 101.256 277.905 101.389 278.336 101.819C278.419 101.903 278.532 102.155 278.615 102.239C278.869 102.492 279.409 102.636 279.595 103.008C279.753 103.325 280.069 103.747 280.294 104.197C280.607 104.822 280.882 106.673 281.343 107.135C281.933 107.725 282.411 108.553 282.882 109.024C283.129 109.27 283.628 109.349 283.861 109.583C284.05 109.772 285.067 109.739 285.872 109.758C286.244 110.1 286.969 110.442 287.359 110.702C287.777 110.981 288.117 111.342 288.548 111.629C289.071 111.978 289.712 113.329 289.982 113.867C290.044 113.991 291.29 115.536 291.311 115.546C291.626 115.704 291.95 115.941 292.202 116.193C292.425 116.416 293.388 117.148 293.829 116.927C293.992 116.846 294.323 116.835 294.423 116.735C294.805 116.353 295.121 115.859 295.42 115.371C295.998 114.845 296.988 114.221 297.676 113.762C299.878 112.294 301.761 110.243 303.831 108.691C305.696 107.292 307.816 106.262 309.759 104.967C311.408 103.867 313.073 101.762 314.602 100.997C314.699 100.949 314.823 100.906 314.952 100.857C315.084 100.971 315.199 101.097 315.302 101.225C315.829 102.517 316.036 104.966 316.036 106.086C316.036 106.336 316.098 106.793 315.966 106.925C315.838 107.053 316.025 107.496 315.896 107.625C315.791 107.73 315.931 108.079 315.826 108.184C315.744 108.266 315.814 109.526 315.686 109.653C315.513 109.826 314.729 107.743 313.588 108.884C312.72 109.752 312.672 111.604 313.588 112.521C313.883 112.816 314.138 112.661 314.497 112.661C315.49 112.661 315.957 111.551 316.386 111.122C316.514 110.994 316.328 110.551 316.456 110.422C316.596 110.283 316.316 109.723 316.456 109.583C316.696 109.343 316.736 108.461 316.736 108.044C316.736 107.509 316.875 105.667 317.085 105.247C317.155 105.107 317.149 104.939 317.138 104.757C317.141 104.758 317.152 104.757 317.155 104.757C317.189 104.757 317.365 103.714 317.365 103.568C317.365 102.447 317.48 101.242 317.505 100.053C317.867 99.3508 317.68 95.1083 317.68 94.6323C317.68 92.983 318.52 89.5446 317.89 88.9143C316.494 87.5182 303.897 89.0448 300.683 89.1416C300.743 89.1937 300.836 89.2758 300.945 89.3689H302.519C302.616 89.3689 302.833 89.389 303.114 89.4389C303.121 89.4447 303.123 89.4504 303.131 89.4563C304.078 90.1612 307.249 91.4928 307.783 92.0268C308.628 92.8727 309.274 93.7984 310.021 94.5448C310.088 94.6119 310.127 94.687 310.161 94.7722C310.148 94.781 310.14 94.7979 310.126 94.8071C309.11 94.9648 307.833 95.3154 307.625 95.4192C306.617 95.9234 304.981 96.1467 303.673 96.8006C302.816 97.2291 301.88 98.2617 301.033 99.0213C301.637 100.596 302.974 102.938 303.026 102.938C303.034 102.938 302.31 102.222 301.627 101.539C301.251 101.163 300.786 100.209 300.368 100.001C300.297 99.9649 300.113 99.9042 299.896 99.8432C299.591 100.006 299.216 100.247 298.795 100.543C298.858 100.647 298.951 100.803 298.969 100.84C299.477 101.855 300.38 102.541 300.928 103.638C301.928 105.639 302.218 106.132 300.648 103.778C300.36 103.345 300.217 103.067 299.809 102.659C299.466 102.316 299.187 101.897 298.83 101.539C298.631 101.341 298.434 101.143 298.235 100.945C297.161 101.758 296.041 102.779 295.665 103.533C295.351 104.16 294.847 105.032 294.371 105.509C293.653 106.226 293.064 106.862 292.604 107.782C292.526 107.939 292.481 108.15 292.482 108.394C292.402 108.475 292.315 108.558 292.237 108.639C291.985 108.447 291.741 108.283 291.485 108.079C291.474 108.01 291.45 107.939 291.503 107.834C291.742 107.355 291.407 106.288 291.118 105.998C291.076 105.956 290.919 105.845 290.873 105.754C290.588 105.183 289.615 105.002 289.23 104.617C289.177 104.565 289.542 104.149 289.579 104.075C289.611 104.011 289.689 103.862 289.737 103.813C289.635 103.8 289.135 103.555 289.09 103.533C289.011 103.494 288.877 103.509 288.792 103.48C288.51 103.386 288.392 103.149 288.145 103.026C287.766 102.836 287.345 102.678 286.956 102.484C285.8 101.906 284.377 101.093 283.494 100.21C283.365 100.081 283.02 100.034 282.9 99.9132C282.81 99.8235 282.459 99.6984 282.078 99.5809C281.121 98.8073 280.29 98.1058 279.717 97.5176C279.757 97.4126 279.821 97.2224 279.839 97.1853C280.315 96.2336 281.213 95.6453 281.623 94.8246C281.823 94.4237 280.761 93.3974 280.434 92.7438C280.308 92.4921 280.434 91.8424 280.434 91.5547C280.434 90.9062 280.733 86.2162 280.889 85.3121C280.609 85.2715 280.213 84.8117 280.032 84.6301C279.699 84.2975 279.237 84.1321 278.843 83.7383C278.627 83.5222 278.539 83.027 278.353 82.6542C277.083 80.1148 277.166 76.7528 278.58 75.5372C278.617 75.461 278.672 75.337 278.685 75.3099C279.031 74.618 279.975 74.2998 280.434 73.841C280.528 73.747 280.819 73.7358 280.924 73.6312C281.118 73.4367 281.924 73.5613 281.903 73.5613C281.171 73.5613 280.364 72.5117 280.364 71.7427C280.364 70.9436 280.593 70.4847 281.063 69.9941C281.438 70.0238 281.797 70.0632 281.92 70.1864C281.946 70.2122 282.416 70.687 282.515 70.5886C282.636 70.4673 282.561 70.035 282.707 69.8891C283.086 69.5107 283.515 68.6971 283.896 68.3154L288.845 63.3667C289.367 62.8444 292.682 62.5898 292.902 62.37C293.35 61.9218 292.173 59.6368 292.989 58.8203C293.884 57.9252 295.719 57.0698 296.941 55.8476C296.965 55.8239 297.001 55.7993 297.028 55.7777C297.548 56.1043 297.989 56.4932 298.13 56.6345C300.495 58.9997 306.007 60.5422 308.674 63.2094C309.138 63.6735 310.329 63.5696 310.86 64.1012C311.096 64.337 309.799 66.2409 309.549 66.7416C309.466 66.9067 309.41 69.199 309.374 71.2531C309.324 71.2564 309.268 71.2666 309.216 71.2705C309.078 71.9052 308.918 72.615 309.042 72.8618C309.351 73.4809 309.321 74.245 309.321 74.9601C309.189 74.7334 309.042 74.5014 309.042 74.2607C309.042 73.5498 308.768 72.0293 308.395 71.323C308.043 71.3397 307.731 71.3348 307.538 71.2706C307.341 71.2048 306.848 71.1517 306.226 71.0957C306.107 71.398 306.183 73.9374 306.016 75.4323C306.057 75.7271 306.068 76.0111 305.964 76.2192C305.956 76.2346 305.66 76.6865 305.824 76.3591C305.913 76.1819 305.972 75.8344 306.016 75.4323C305.957 74.9962 305.824 74.536 305.824 74.2607C305.824 73.2949 305.477 71.9241 305.072 71.0083C303.002 70.8857 300.367 70.8514 299.914 71.0782C298.974 71.5479 298.397 72.4312 297.536 72.8618C297.168 73.0458 295.975 72.6695 295.472 72.6695C294.264 72.6695 289.818 73.364 288.32 74.1558C287.125 73.9747 285.804 74.8224 284.876 75.0301C284.177 74.763 283.438 74.4928 282.707 74.5056C282.386 74.5112 282.072 74.5712 281.763 74.7154C281.214 74.7337 280.726 74.8082 280.504 75.0301C280.362 75.1724 279.99 75.4044 279.874 75.5198C279.816 75.5779 279.774 75.6808 279.735 75.7821L279.787 75.8345C279.335 76.2292 278.927 76.7012 278.755 77.2159C278.55 77.8305 278.546 78.4876 278.546 79.1919C278.546 80.4118 279.522 81.2429 280.137 82.1645C280.75 83.0844 281.359 83.7547 282.305 84.2279C282.968 84.5593 284.382 84.0903 284.876 83.8432C285.478 83.5418 286.176 83.2894 286.852 82.9514C287.747 82.5036 288.021 81.5241 288.285 80.6432C288.596 80.176 288.781 79.1509 288.845 79.087C289.011 78.9213 289.135 78.7303 289.282 78.5274C290.18 78.4307 290.918 78.3673 291.188 78.3525C290.868 79.3641 290.363 80.4131 290.419 80.4684C290.548 80.5976 291.695 79.6996 291.8 79.5941C292.226 79.1684 293.78 78.8523 294.563 78.4225C294.688 78.4009 294.806 78.3707 294.913 78.3175C295.159 78.1944 295.528 78.2476 295.822 78.2476C296.002 78.2476 296.156 78.2542 296.312 78.2651C296.317 78.2655 296.324 78.2647 296.329 78.2651C296.83 78.3838 297.365 78.5362 297.85 78.6498C298.27 78.839 298.669 79.0745 299.214 79.3492C301.751 79.0985 304.247 78.8246 306.244 78.8246C309.09 78.8246 311.724 78.1601 314.602 78.1601H318.344C318.576 78.1601 319.009 78.619 319.009 78.3875V70.8858C318.793 70.6706 318.595 70.4689 318.484 70.4137C318.195 70.2688 318.274 70.3338 318.274 69.9241C318.274 69.1319 318.597 68.6485 319.009 68.2104V68.053V67.8782C319.065 67.8333 319.125 67.7852 319.184 67.7558C319.367 67.6639 319.705 67.6538 319.813 67.5459C319.877 67.4824 319.464 67.0926 319.464 66.9864C319.464 66.8167 319.257 66.57 319.184 66.4968C319.161 66.4738 318.747 64.2933 318.764 64.2585C319.081 63.6242 319.201 61.7235 319.603 61.3208C319.851 61.0733 319.936 60.4989 320.163 60.2716C320.491 59.9435 320.752 59.5428 321.072 59.2224C321.103 59.1916 321.352 59.041 321.352 59.0126C321.352 58.8871 320.284 59.5816 320.163 59.6421C319.552 59.9478 318.989 60.4222 318.554 60.9361C318.552 60.9389 318.539 60.9333 318.537 60.9361C318.326 61.0402 318.14 61.1583 318.012 61.2858C317.997 61.3012 317.363 62.1051 317.33 62.0727C317.277 62.0194 317.557 60.726 317.33 60.4989C316.485 59.654 315.296 59.7121 313.955 59.7121C313.867 59.7121 314.104 59.0635 314.148 58.2607C313.932 58.1637 313.711 58.0685 313.501 57.9634C310.475 56.4505 307.536 54.8067 304.285 53.994C302.306 53.4993 300.201 51.8071 298.55 50.7066C297.141 49.7672 295.048 49.8277 293.951 48.7306C293.941 48.7207 293.935 48.7111 293.916 48.7132ZM289.737 103.813C289.747 103.814 289.772 103.818 289.772 103.813C289.772 103.779 289.759 103.789 289.737 103.813ZM309.339 75.0127C309.383 75.0879 309.427 75.1707 309.461 75.24C309.465 75.2475 309.462 75.3111 309.461 75.3624C309.535 75.5233 309.59 75.6597 309.461 75.6597C309.454 75.6597 309.46 75.4868 309.461 75.3624C309.407 75.2438 309.356 75.1173 309.339 75.0127ZM283.826 76.4465C285.619 76.373 286.422 79.9182 285.47 80.8706C285.167 81.1738 283.79 82.4088 283.302 82.1646C282.967 81.9971 282.496 81.9355 282.218 81.6575C281.446 80.8854 280.366 79.5204 281.029 78.1952C281.662 76.9281 282.378 76.6807 283.005 76.7263C283.299 76.5499 283.57 76.457 283.826 76.4465Z" fill="#E6B35A"/>
<path fill-rule="evenodd" clip-rule="evenodd" d="M342.248 41.7013C342.218 41.6705 338.738 42.8339 338.296 43.2751C335.869 45.7027 326.952 48.7623 321.335 49.71C321.317 49.7128 321.299 49.7072 321.282 49.71C320.957 49.3844 319.723 50.0146 319.114 49.71C318.798 49.5521 318.495 49.6543 318.222 49.5177C317.259 49.0361 315.983 48.765 315.249 48.0313C315.019 47.8009 314.527 47.9038 314.253 47.6292C313.85 47.2262 314.083 46.4805 313.763 46.1603C313.385 45.7821 312.899 45.4709 312.487 45.0587C312.271 44.8431 311.594 44.5532 311.385 44.9712C310.954 45.8328 312.325 46.698 312.871 47.2444C313.434 47.8075 314.227 48.316 315.057 48.7308C315.522 48.963 316.07 49.3585 316.334 49.6226C316.401 49.6899 316.495 49.7346 316.596 49.7625C316.601 49.7642 316.608 49.7614 316.613 49.7625C317.419 50.656 326.802 51.1901 327.21 51.5985C327.364 51.7527 327.21 52.9309 327.21 53.1723C327.21 54.2498 326.462 61.0343 326.038 61.8805C324.674 64.6099 326.978 89.5707 327.612 92.7439C328.076 95.0645 328.117 97.7057 327.7 100.228C327.699 100.234 327.701 100.24 327.7 100.246C327.632 100.389 327.561 100.539 327.507 100.7C326.956 102.353 325.096 104.773 323.451 105.596C322.628 106.008 321.998 106.836 321.754 107.083C322.287 106.965 324.431 106.855 324.71 106.855C324.85 106.855 324.989 106.855 325.129 106.855C324.794 107.325 324.442 107.77 324.045 108.167C323.139 109.073 322.4 110.056 321.789 110.93C321.6 111.125 321.335 111.384 321.177 111.542C320.858 111.861 320.826 112.277 320.583 112.521C320.54 112.564 320.601 112.731 320.583 112.801C320.582 112.805 320.584 112.815 320.583 112.818C320.275 113.361 320.091 113.712 320.093 113.71C320.173 113.63 320.265 113.519 320.355 113.395C320.156 113.963 320.015 114.584 319.708 115.196C319.517 115.578 319.635 116.167 319.499 116.578C319.148 117.628 319.201 118.786 319.201 119.953C319.201 120.148 319.289 120.705 319.411 120.827C319.424 120.839 319.441 120.863 319.464 120.879C319.321 120.531 319.603 118.271 319.603 117.872C319.603 117.374 320.219 115.456 320.583 115.091C320.857 114.817 320.669 114.131 320.985 113.815C321.268 113.532 321.251 113.059 321.579 112.731C322.513 111.798 323.24 110.431 324.989 110.195C326.269 109.055 328.154 107.957 329.99 106.96C330.795 106.979 331.6 106.995 332.403 106.995C333.93 106.995 335.804 106.696 337.3 106.995C338.174 107.17 339.195 107.275 340.097 107.275C340.381 107.275 344.229 107.496 345.518 107.625C345.226 107.544 344.893 107.434 344.854 107.415C343.835 106.906 342.622 106.521 341.496 106.296C340.195 106.035 338.083 105.436 336.303 104.809C336.87 104.794 337.433 104.781 337.509 104.704C337.611 104.603 336.017 104.517 335.499 104.512C334.962 104.307 334.468 104.111 334.082 103.918C333.937 103.845 333.635 103.666 333.4 103.533C333.6 103.364 333.781 103.187 333.942 103.026C336.644 100.324 336.06 88.6504 340.272 84.4378C341.154 83.556 339.231 81.0184 339.083 80.8706C339.022 80.8094 338.989 80.6457 338.978 80.4334C337.872 79.389 334.642 77.0036 334.642 76.9187C334.642 76.8536 335.207 77.3414 335.761 77.6181C336.856 78.1656 338.161 78.7592 338.838 79.4367C338.845 79.4436 338.94 79.4517 339.013 79.4542C339.043 79.0614 339.083 78.6378 339.083 78.4924C339.083 76.8985 339.06 75.0071 339.101 73.0542C338.314 73.0775 337.52 73.1416 337.02 73.1416C336.327 73.1416 335.621 73.2903 335.621 73.2815C335.621 73.0692 336.48 73.0616 336.6 73.0017C337.258 72.673 338.29 72.2065 339.136 72.0749C339.145 71.7811 339.14 71.495 339.153 71.2006C339.142 71.1956 339.129 71.1886 339.118 71.1832C338.634 70.9412 338.314 70.7635 337.719 70.7635C336.928 70.7635 338.169 70.3721 339.223 70.0815C339.375 67.8342 339.677 65.6415 340.272 63.8564C340.667 62.6717 339.969 61.1186 340.272 59.9045C341.206 56.1693 340.301 52.2234 341.059 48.4334C341.359 46.9361 341.864 45.1779 341.864 43.6772C341.864 43.0046 342.724 42.1768 342.248 41.7013ZM345.518 107.625C345.76 107.691 345.973 107.74 345.973 107.695C345.973 107.68 345.776 107.65 345.518 107.625ZM321.719 107.1C321.68 107.112 321.632 107.123 321.632 107.135C321.632 107.174 321.669 107.148 321.719 107.1ZM319.481 120.897C319.49 120.908 319.487 120.932 319.499 120.932C319.522 120.932 319.508 120.918 319.481 120.897Z" fill="#E6B35A"/>
<path fill-rule="evenodd" clip-rule="evenodd" d="M352.53 45.7054C346.651 45.8184 340.725 47.5112 338.506 50.8813C338.504 50.9915 338.493 51.1165 338.489 51.2311L340.272 51.5983C339.691 51.482 338.961 51.6423 338.471 51.3535C338.386 53.736 338.045 56.8728 338.296 57.124C338.743 57.5702 339.188 56.7393 339.486 56.7393C340.533 56.7393 342.35 55.9126 343.437 55.5502C345.25 54.9459 352.55 55.1089 354.017 56.2671C354.329 55.6719 354.746 55.0458 355.311 54.7633C355.506 54.6659 355.9 54.3661 356.185 54.2912C356.276 54.2159 356.347 54.1688 356.395 54.1688C356.461 54.1688 356.373 54.2562 356.307 54.2562C356.272 54.2562 356.226 54.2805 356.185 54.2912C355.678 54.7086 354.659 56.0881 354.821 56.2496C354.876 56.3044 355.675 56.0398 355.905 56.0398C355.997 56.0398 356.08 56.0515 356.167 56.0573C356.364 56.0084 356.546 55.9815 356.605 56.0398C356.613 56.0485 356.617 56.0624 356.622 56.0748C356.735 56.0608 356.848 56.0398 356.989 56.0398C357.404 56.0398 357.724 56.0878 357.969 56.3196C357.975 56.3253 357.98 56.3311 357.986 56.3371C358.05 56.341 358.113 56.3371 358.178 56.3371C358.314 56.3371 358.507 56.3992 358.703 56.4769C358.928 56.4866 359.138 56.5102 359.263 56.6343C359.345 56.7168 359.477 56.7442 359.56 56.8267C359.585 56.8514 359.525 56.9355 359.49 56.9491C359.543 56.9895 359.74 57.3338 359.665 57.3338C359.553 57.3338 359.296 57.1577 359.263 57.1239C358.882 56.7438 357.009 57.4187 356.902 57.5261C356.843 57.5849 356.792 57.6436 356.744 57.701C356.837 57.8697 356.841 58.1649 356.989 58.313C356.993 58.3169 357.035 58.3581 357.042 58.3654C356.564 58.5233 356.175 58.787 356.01 59.1174C355.877 59.3838 355.801 60.7789 356.01 60.9884C356.02 60.998 357.585 61.3472 357.811 61.3731C357.782 61.5038 357.747 61.6295 357.689 61.6878C357.636 61.7409 357.275 62.4636 357.391 62.5796C357.705 62.8936 357.889 63.27 358.283 63.6638C358.836 64.2167 360.366 64.1688 361.326 64.1359C361.327 64.1393 361.343 64.1507 361.343 64.1534C361.343 64.5916 358.852 64.3457 358.773 64.3457C358.658 64.3457 357.609 64.0994 357.689 64.2583C358.01 64.9002 358.53 65.3017 359.193 65.6747C359.739 65.6608 360.26 65.6407 360.452 65.8321C360.956 66.3368 361.792 66.2343 362.83 66.2343C367.055 66.2343 368.665 63.6573 370.349 60.2889C371.097 58.7929 370.03 56.4857 369.562 55.5501C368.305 53.0353 367.447 51.075 365.593 49.2201C363.177 46.8047 357.881 45.6026 352.53 45.7054ZM338.471 51.3535C338.473 51.3127 338.488 51.2713 338.489 51.2311L338.296 51.1961C338.353 51.2523 338.406 51.3148 338.471 51.3535ZM338.296 51.1961C338.359 51.0872 338.437 50.9869 338.506 50.8813C338.537 49.3732 338.408 48.3044 337.894 48.818C337.599 49.1128 338.296 49.215 338.296 49.6223C338.296 50.1499 337.923 50.823 338.296 51.1961Z" fill="#E6B35A"/>
<path fill-rule="evenodd" clip-rule="evenodd" d="M388.552 39.2705C387.109 40.007 385.585 40.9318 385.142 41.5088C384.217 42.7149 381.827 43.8465 381.19 45.688C377.564 56.1819 375.057 62.9869 365.418 69.5044C363.942 70.5024 361.671 69.7146 360.172 70.4661C361.582 70.6359 366.849 71.2123 367.743 70.0465C368.393 69.2001 371.379 67.2713 373.741 65.7623C373.467 67.0187 373.633 68.3295 374.703 69.3995C374.802 69.4984 375.199 69.3006 375.297 69.3995C375.432 69.5338 375.588 69.6114 375.77 69.6443C375.574 70.7241 375.402 71.6981 375.28 72.0749C372.323 81.1735 378.796 74.0342 377.448 77.9328C377.085 78.9841 377.69 80.3388 377.343 81.3426C375.898 85.906 377.091 90.8962 377.203 96.0661C376.399 97.1139 376.144 104.976 375.507 105.806C375.212 106.191 374.621 106.637 374.266 107.1C373.608 107.957 372.442 108.868 371.188 109.478C370.297 109.912 364.753 116.898 363.617 118.379C363.358 118.715 362.032 120.418 362.2 120.547C362.466 120.751 364.877 118.094 365.47 117.574C366.556 116.624 368.729 115.456 370.629 114.252C371.194 114.104 371.757 113.775 371.888 113.605C372.058 113.383 372.662 113.512 372.832 113.29C373.206 112.802 374.166 112.684 374.493 112.258C375.047 111.537 375.569 110.721 375.805 109.671C375.948 109.581 376.124 109.496 376.277 109.408C376.747 108.606 377.854 107.666 378.06 107.397C378.332 107.044 379.45 106.929 379.721 106.575C380.248 105.889 381.745 105.58 382.309 104.844C382.349 104.792 383.708 104.353 385.422 103.848C385.939 103.927 386.515 103.753 387.171 103.358C387.596 103.238 388.004 103.124 388.43 103.008C388.836 103.043 389.22 103.143 389.444 103.113C389.648 103.086 392.704 103.616 392.714 103.69C392.724 103.765 392.088 103.038 392.032 102.956C391.504 102.175 390.715 101.336 390.108 100.438C389.735 99.8849 389.263 99.3541 388.884 98.794C388.707 98.5317 388.65 98.2045 388.587 97.8672C388.693 96.9253 388.819 95.8091 389.007 94.265C389.044 93.9568 389.065 93.7052 389.094 93.4257C387.356 93.3878 384.39 93.4575 384.39 93.1459C384.39 93.014 384.661 93.1459 384.793 93.1459C385.334 93.1459 387.493 93.0549 389.147 92.9011C389.304 91.1741 389.306 89.9688 389.286 88.8967C387.233 88.8865 384.198 88.9172 384.198 88.582C384.198 88.3957 387.176 88.4734 389.286 88.4771C389.276 87.949 389.258 87.4262 389.269 86.8683C387.811 86.8219 385.987 86.8159 385.579 86.8159C384.197 86.8159 387.141 86.1566 389.322 85.7492C389.345 85.4158 389.382 85.067 389.426 84.6826C389.543 83.6652 389.236 82.613 389.304 81.5875C389.444 79.4925 390.022 77.3639 390.161 75.2749C390.362 72.2564 390.125 69.2238 390.283 66.1645C390.545 66.2104 390.826 66.2104 391.175 66.1645C391.42 66.1323 391.832 66.4613 391.979 66.2695C392.405 65.7145 392.953 65.2331 393.378 64.6782C393.425 64.6177 393.339 60.0665 393.151 59.9219C392.48 59.4072 391.422 56.263 391.892 54.9033C392.243 53.8875 392.653 47.1078 392.487 45.8454C392.383 45.0566 392.444 42.9734 391.857 42.523C391.793 42.4735 391.728 42.4556 391.665 42.4181C391.662 42.4158 391.667 42.4024 391.665 42.4006C391.641 42.0695 391.626 41.7241 391.63 41.4214C391.627 41.4169 391.633 41.4083 391.63 41.4039C391.526 41.2561 391.406 41.1294 391.262 41.0192C390.466 40.4083 389.985 39.7331 388.849 39.3405C388.752 39.3069 388.642 39.2848 388.552 39.2705Z" fill="#E6B35A"/>
<path fill-rule="evenodd" clip-rule="evenodd" d="M388.724 36.5201C383.289 36.44 379.924 30.1884 382.832 21.775C383.114 20.9604 385.664 17.9635 385.722 18.0081C385.848 18.1043 383.574 22.8061 384.642 22.6655C384.744 22.6521 386.194 18.6937 387.073 17.5482C387.788 16.6166 392.439 8.20021 391.693 7.62753C391.447 7.43841 391.432 12.486 391.482 12.4527C392.112 12.0265 395.096 5.60762 394.897 4.10154C394.815 3.47353 394.875 1.85556 395.123 1.53202C395.177 1.46277 394.931 0.428641 394.977 0.422469C395.168 0.397401 395.275 4.82953 395.284 4.89719C395.726 8.25432 395.541 13.3327 393.475 14.7301C392.623 15.3061 391.634 17.8997 391.548 17.2413C391.474 16.6789 392.83 17.1949 393.175 16.7448C393.413 16.4352 395.553 14.1742 395.657 14.1606C395.95 14.1221 395.451 14.7368 395.489 15.0292C395.75 17.0084 390.554 22.5546 390.723 23.8403C390.755 24.084 394.939 21.5639 394.942 21.5917C395.093 22.7355 393.608 24.9558 392.957 25.8038C392.593 26.2776 392.108 27.9289 392.03 27.3368C392.02 27.2649 393.611 27.2259 393.694 27.1177C393.815 26.9609 395.404 25.4374 395.767 25.716C396.565 26.3281 395.784 29.5945 395.242 30.3003C394.933 30.7032 394.16 30.7359 393.928 31.0377C393.848 31.1423 393.705 31.4823 393.687 31.3516C393.609 30.7592 398.512 30.2638 396.921 32.3369C395.304 34.4439 391.669 35.5171 388.724 36.5201Z" fill="#5A8CE6"/>
<path fill-rule="evenodd" clip-rule="evenodd" d="M386.882 34.6666C386.615 34.6159 386.03 34.7816 386.08 34.5145C386.131 34.2474 387.085 34.8475 386.882 34.6666C386.7 34.5049 385.855 34.5014 385.674 34.3397C385.332 34.0352 385.028 33.5768 384.618 33.2114C384.418 33.0327 384.689 32.2685 384.55 32.0263C383.778 30.6802 382.052 26.8397 383.374 25.3564C383.669 25.0259 383.407 23.5711 383.667 23.5561C383.846 23.5459 384.418 25.3495 384.571 25.4858C384.591 25.5044 385.144 25.4727 385.163 25.4517C385.411 25.1735 385.366 24.1725 385.665 23.8376C386.654 22.7277 387.169 20.8889 388.203 19.7285C389.412 18.3722 389.406 16.6972 390.346 15.6421C390.434 15.5436 390.192 15.2547 390.323 15.2471C390.417 15.2415 389.843 16.8118 389.822 16.8612C389.405 17.8307 388.262 20.7589 388.294 21.3086C388.306 21.5295 388.097 21.8827 388.13 21.9125C388.553 22.2897 390.134 19.6175 390.573 19.5923C390.618 19.5895 389.759 21.0377 389.676 21.2291C389.467 21.7168 387.263 27.1364 387.867 27.6743C387.968 27.7644 390.692 25.1054 390.705 25.3314C390.731 25.7809 388.681 30.0861 389.222 30.5688C389.41 30.7365 392.955 28.274 393.268 28.5529C393.488 28.7487 390.916 31.1418 391.254 31.4429C391.703 31.8431 392.908 31.2308 393.449 31.713C394.656 32.7889 389.885 34.8903 388.879 34.9481C388.543 34.9674 387.187 34.7096 386.882 34.6666Z" fill="#C8DCEB"/>
<path fill-rule="evenodd" clip-rule="evenodd" d="M431.481 2.14681C429.706 2.16925 427.823 2.63289 425.448 3.37086C425.433 3.37533 425.411 3.36638 425.396 3.37086C421.933 3.79171 418.054 4.68699 415.499 6.30856C414.453 6.48683 412.727 7.56267 411.389 8.68671C411.36 8.71133 411.331 8.73197 411.302 8.75665C410.969 8.99256 410.557 9.33477 409.903 9.77086C409.585 9.98266 409.497 10.4149 409.204 10.6102C405.832 12.8582 404.647 16.9452 403.748 20.5424C403.586 21.1911 403.817 22.0135 403.608 22.6408C403.369 23.3567 403.353 24.8142 403.608 25.5785C403.826 26.2328 404.093 26.8951 404.307 27.537C404.612 28.4509 404.769 29.1589 405.147 29.9151C405.198 30.0167 405.849 30.7545 405.706 30.7545C405.589 30.7545 406.244 30.6738 406.406 30.7545C406.573 30.8379 406.833 30.8864 406.965 30.7545C407.358 30.3621 407.01 29.5854 406.825 29.2157C406.608 28.7811 405.728 29.3777 405.566 29.2157C405.451 29.1003 403.749 23.3388 404.447 22.6408C404.797 22.2911 404.377 21.172 404.727 20.8222C405.312 20.2376 405.637 16.9744 406.406 16.2058C407.259 15.3528 407.712 14.3398 408.504 13.5479C409.002 13.0496 409.452 12.7108 409.886 12.3763C409.98 12.7819 409.995 13.2202 410.323 13.5479C411.201 14.4259 413.483 13.4989 414.852 12.831C414.926 12.8293 415.006 12.8332 415.079 12.831C414.879 13.1795 414.671 13.5362 414.38 13.8277C414.119 14.088 414.026 15.3008 413.68 15.6463C413.54 15.7867 413.292 17.7131 412.841 18.1643C412.793 18.2116 412.69 18.6517 412.561 19.1086C412.981 19.4865 413.801 20.1901 414.345 20.5424C414.583 20.5264 414.799 20.5358 414.799 20.6823C414.799 20.8049 414.61 20.7145 414.345 20.5424C414.141 20.5562 413.918 20.5916 413.82 20.5424C413.617 20.4408 412.355 20.0487 412.141 20.2627L412.106 20.2976C412.04 20.5291 411.804 21.5848 411.617 22.326C412.175 22.8438 412.925 23.3823 413.121 23.4801C413.194 23.517 413.471 23.6749 413.733 23.8124C414.018 23.8866 414.24 23.9615 414.24 24.0397C414.24 24.0667 413.994 23.9498 413.733 23.8124C413.027 23.6291 411.731 23.3977 410.952 22.6933C410.946 22.6877 410.941 22.6813 410.935 22.6758C410.609 22.5172 410.231 22.3273 409.553 21.9938C409.176 23.6775 409.026 25.3915 409.344 26.9774C410.106 30.7875 408.696 35.1082 409.903 38.7283C410.525 40.5955 410.818 42.6675 411.302 44.6037C412.107 47.8242 413.66 50.8376 414.659 53.8365C415.261 55.6418 415.433 58.2869 415.324 60.7086C414.423 61.5822 413.616 62.603 413.086 63.6638C413.027 63.7819 412.989 63.9063 412.946 64.031C409.957 64.025 406.962 63.932 403.975 63.6638L403.188 64.643C403.122 64.643 403.043 64.5964 402.996 64.643C402.488 65.1511 402.537 67.9432 402.996 68.4026C403.503 68.9097 406.792 68.2102 407.542 68.2102C409.342 68.2102 411.442 68.271 413.278 67.9479C413.763 69.1745 414.4 70.0406 415.254 70.7632C415.319 71.8756 415.277 72.9661 414.939 73.9807C413.996 76.8092 414.485 80.0995 413.54 82.9337C412.794 85.1714 411.801 87.3119 411.022 89.6485C410.283 91.8673 409.585 94.8821 408.224 96.9228C406.682 99.236 404.746 101.641 403.468 104.197C402.58 105.973 400.651 107.303 399.551 108.953C397.862 111.487 396.75 113.433 394.795 115.388C393.687 116.496 390.422 120.778 389.759 122.103C389.295 123.031 388.439 123.827 388.377 124.796C389.142 124.058 391.212 122.581 391.717 121.823C393.906 118.541 396.63 116.911 399.271 114.269C400.176 113.365 401.979 112.96 402.909 112.031C404.772 110.168 407.091 107.746 410.183 106.715C411.939 106.13 413.845 105.863 415.499 105.036C416.433 104.569 420.258 104.754 420.815 104.197C421.038 103.973 420.036 103.016 418.944 101.836C418.479 101.87 418.047 101.944 417.737 102.099C417.106 102.414 415.252 102.971 415.219 102.938C414.901 102.62 417.093 101.648 418.279 101.085C417.55 100.242 416.895 99.3541 416.635 98.549C415.542 98.915 414.068 99.7527 413.96 99.8605C413.672 100.148 413.261 100.367 412.876 100.63C412.696 100.872 412.47 101.12 412.281 101.12C412.215 101.12 412.374 101.026 412.421 100.98C412.554 100.847 412.718 100.737 412.876 100.63C412.985 100.482 413.094 100.307 413.121 100.28C413.864 99.5363 414.89 99.2105 415.639 98.4616L416.53 97.5698C416.532 97.5642 416.529 97.5578 416.53 97.5523C416.584 97.3206 416.707 97.1131 416.898 96.9228C417.8 96.0204 417.081 93.1024 418.017 92.1665C418.972 91.2111 419.037 89.1882 419.975 88.2496C422.561 85.6634 423.344 81.5129 425.291 77.6179C425.84 76.5197 425.301 74.8011 425.851 73.701C426.198 73.0057 426.134 72.1098 426.148 71.2704C426.671 71.0229 427.372 70.7278 427.722 70.3786C428.751 69.3491 429.212 68.1063 429.243 66.8114C432.245 66.6198 436.257 67.0212 438.406 67.0212C438.891 67.0212 439.901 66.9239 441.029 66.7764C441.08 68.2788 441.228 69.613 441.518 70.4835C441.813 71.3671 441.938 72.5 441.938 73.4212C441.938 73.884 442.171 74.4073 442.235 74.6627C442.274 74.4078 442.498 73.1209 442.498 73.0015C442.498 71.6257 442.917 69.9019 442.917 68.3851C442.917 67.779 442.944 67.1416 442.97 66.4966C442.967 66.4921 442.972 66.4837 442.97 66.4791C442.905 66.3651 442.834 66.261 442.777 66.1469C442.562 65.7167 442.045 65.5025 441.641 65.2901C442.003 65.2445 442.331 65.194 442.358 65.1677C442.536 64.9892 442.83 65.0278 443.197 65.0278C443.353 65.0278 443.594 64.8655 443.617 64.8879C443.905 65.176 444 66.25 444.176 66.4267C444.392 66.6429 446.203 65.7629 446.554 65.5873C447.248 65.2403 450.131 65.3682 450.471 65.0278C450.683 64.8166 449.806 64.9224 449.772 64.8879C449.42 64.5362 448.483 64.5934 447.953 64.3283C447.437 64.0702 445.096 63.0693 444.876 63.0693C444.411 63.0693 443.808 63.9967 443.617 64.1884C443.583 64.2225 442.823 64.0439 442.183 63.9086C442.348 63.7533 442.57 63.5561 442.637 63.489C442.81 63.3168 443.003 63.1697 443.197 63.0168C443.154 63.0191 443.119 63.0146 443.075 63.0168C443.099 60.5835 442.901 58.1927 441.798 56.3546C441.558 57.0286 441.2 59.9581 441.064 63.0693C436.914 63.0849 432.705 63.2896 428.474 63.5065C427.971 62.4454 427.252 61.4406 426.393 60.6037C425.535 56.417 424.034 52.161 423.053 50.1994C422.47 49.034 422.524 47.4634 421.934 46.2824C418.826 40.0672 413.953 33.4264 417.737 25.8584C418.254 24.8248 418.079 22.9986 418.856 22.2212C420.444 20.6334 421.551 18.4956 424.172 17.1852C425.897 16.3225 427.703 14.3873 429.488 14.3873C430.551 14.3873 432.703 13.4772 433.964 14.1076C436.545 15.3981 439.108 16.733 440.679 18.3043C441.253 18.8782 441.368 20.5226 441.798 21.3819C442.717 23.2201 441.242 29.2219 442.358 31.454C442.503 31.7439 442.583 32.0746 442.62 32.4158C442.463 32.433 442.309 32.4408 442.148 32.4507C442.669 32.8106 443.092 33.1679 443.337 33.4125C443.378 33.4541 443.509 33.4275 443.617 33.4125C443.57 33.4361 443.524 33.4866 443.477 33.5174C443.095 33.6002 442.801 33.7198 442.777 33.8321C442.168 33.223 441.618 32.9758 441.099 32.9753C440.233 32.9748 439.464 33.648 438.721 34.3917C437.704 35.4085 437.042 38.1663 437.042 39.8474C437.042 40.322 437.041 43.3452 436.902 43.4846C436.669 43.7176 436.511 46.3936 436.202 46.7021C436.012 46.8922 435.363 48.4529 435.363 48.5207C435.363 48.6621 436.014 47.5658 436.902 47.1218C437.511 46.8171 438.079 46.3223 438.633 45.7753C439.094 45.386 439.485 44.9586 439.56 44.8835C441.133 43.3102 443.777 41.5059 445.435 39.8474C446.474 38.8091 446.347 37.4647 446.974 36.2103C447.105 35.9492 446.844 35.4922 446.974 35.231C447.706 33.7678 446.74 33.1692 445.593 33.0802C446.66 30.8938 446.915 27.695 447.394 25.2988C447.562 24.9035 447.356 20.15 446.275 16.9054C445.073 13.3002 444.907 8.43971 441.239 5.99389C437.058 3.20683 434.404 2.10983 431.481 2.14681ZM442.235 74.6627C442.231 74.6882 442.217 74.82 442.218 74.82C442.27 74.82 442.26 74.7609 442.235 74.6627ZM388.377 124.796C388.201 124.966 388.08 125.109 388.08 125.181C388.08 125.367 388.36 125.087 388.36 124.901C388.36 124.864 388.375 124.832 388.377 124.796ZM420.884 60.4987C420.941 60.4863 420.974 60.4832 420.989 60.4987C421.32 60.8292 422.852 61.7272 423.367 61.9851C423.981 62.2919 424.82 63.1232 425.151 63.4539C425.177 63.4801 425.151 63.7105 425.151 63.7512V66.5315C425.151 66.7896 425.474 67.9743 425.239 68.2102C424.722 68.7267 423.216 69.6587 422.371 70.0812C422.169 70.1819 419.956 71.5313 419.8 71.3752C419.274 70.8486 418.623 70.1913 417.929 69.3993C417.611 69.0357 416.372 67.9474 416.146 67.7206C415.969 67.5443 416.195 63.7445 416.251 63.2616C417.12 62.1743 418.348 61.963 419.118 61.3905C419.234 61.2751 420.489 60.5862 420.884 60.4987Z" fill="#E6B35A"/>
<path fill-rule="evenodd" clip-rule="evenodd" d="M403.59 58.4707C401.4 59.3428 400.126 61.506 399.638 63.9614C399.228 63.9805 398.828 64.0322 398.432 64.2062C398.319 64.9833 398.201 65.4884 398.432 65.8849C398.465 65.9409 398.872 65.9086 399.411 65.8325C399.392 66.2868 399.418 66.7465 399.446 67.1964C399.016 67.2441 398.59 67.3352 398.152 67.5636C398.152 68.1453 398.224 69.0325 398.572 69.0325C398.586 69.0325 399.181 68.8487 399.621 68.7177C399.891 70.1477 400.422 71.4429 401.16 72.3899C401.553 72.8948 402.795 74.6415 403.485 74.1035C402.69 72.8086 401.95 71.8521 401.405 70.309C401.264 69.9118 401.199 69.1433 401.177 68.2456C401.512 68.1434 402.064 67.9871 402.069 67.9833C402.43 67.7123 404.727 68.344 404.727 67.7735C404.727 67.4152 404.867 66.4691 404.867 66.3046C404.867 66.0158 404.5 66.5144 404.307 66.5144C404.062 66.5144 402.924 66.2801 402.768 66.5144C402.479 66.9501 401.816 67.0864 401.177 67.1265C401.191 66.5959 401.235 66.0648 401.282 65.5352C402.327 65.3555 403.342 65.168 403.608 65.168C403.808 65.168 404.739 65.3867 404.867 65.168C405.064 64.83 404.602 65.1259 404.727 64.6959C404.802 64.438 405.007 64.2672 405.007 63.9789C405.007 63.7261 404.735 64.2062 404.587 64.2062H402.489C402.149 64.2062 401.781 64.1014 401.457 64.0314C401.588 63.2859 401.765 62.6785 401.982 62.3527C402.12 62.1444 401.948 61.7217 402.087 61.5134C402.79 60.4572 403.048 59.5181 403.59 58.4707Z" fill="#E6B35A"/>
<path fill-rule="evenodd" clip-rule="evenodd" d="M417.29 65.6529C417.401 65.1077 418.394 62.7802 418.649 62.8197C418.919 62.8615 419.38 62.8302 419.718 62.7728C420.314 62.6716 420.823 62.3777 421.462 62.4766C421.492 62.4811 423.612 65.4138 423.624 65.43C423.632 65.4402 423.002 66.7363 422.894 66.9449C422.604 67.5093 422.483 68.2272 422.398 68.7791C422.387 68.851 421.552 68.6481 421.43 68.6293C420.553 68.4935 419.839 69.02 419.053 68.8984C419.021 68.8933 417.833 66.394 417.29 65.6529Z" fill="#E6B35A"/>
<path fill-rule="evenodd" clip-rule="evenodd" d="M455.035 21.9238C455.015 21.9238 455.025 22.0994 455.035 22.3085C455.078 22.0825 455.09 21.9238 455.035 21.9238ZM455.035 22.3085C454.978 22.604 454.863 23.0422 454.773 23.5501C454.85 23.3654 454.943 23.1876 455.035 23.0954C455.077 23.0536 455.052 22.6403 455.035 22.3085ZM454.773 23.5501C454.426 24.3819 454.231 25.9469 454.231 26.6626C454.231 28.2028 451.507 37.3386 450.506 38.4834C450.498 38.4306 450.474 38.1337 450.471 38.1337C450.281 38.1337 450.352 38.4298 450.349 38.6757C449.704 39.3537 448.99 40.3538 448.425 41.1763C447.344 42.22 446.209 43.2004 444.945 44.4637C444.738 44.6713 444.066 44.749 443.756 45.0583C443.485 45.3298 445.008 49.0904 445.138 49.22C445.149 49.2309 445.173 49.2324 445.19 49.2375C446.802 48.4259 449.084 47.0288 449.09 47.0342C449.181 47.1251 448.208 48.1262 448.11 48.2233C447.51 48.8241 447.298 50.2072 446.712 50.7937C446.636 50.8688 446.683 51.7806 446.747 52.8047C448.302 56.3956 450.524 60.7621 452.325 64.0834C453.719 64.3494 455.156 64.537 455.525 64.4856C455.318 64.6209 454.844 65.0265 454.825 65.0451C454.688 65.1822 453.983 65.1004 453.846 65.2375C453.772 65.3111 453.51 65.5196 453.216 65.7271C454.286 67.6341 455.093 68.9427 455.297 69.0495C459.688 71.3429 450.914 76.8631 453.129 78.02C455.043 79.02 465.713 81.0891 466.314 83.0036C466.818 84.6109 449.484 106.748 447.026 111.454C446.001 113.416 436.713 128.81 437.181 130.304C437.208 130.39 440.112 126.494 440.766 125.863C444.633 122.131 448.023 120.323 451.94 116.542C454.242 114.32 457.729 112.606 459.372 111.856C457.764 112.733 456.21 114.409 455.717 115.353C454.49 117.702 451.301 119.628 449.352 121.509C443.504 127.153 439.808 134.97 436.5 141.303C436.108 142.053 432.336 148.594 435.083 150.029C442.167 153.729 447.863 149.594 451.276 140.813C450.146 142.976 448.092 143.267 447.446 144.503C446.235 146.821 437.927 147.914 438.423 144.835C440.189 133.868 460.245 115.419 471.437 104.617C472.614 103.481 479.175 99.4789 479.551 98.7588C479.71 98.4538 479.586 97.9723 479.568 97.5872C478.131 98.5279 474.994 100.196 473.501 100.665C471.968 101.146 458.539 108.483 458.357 107.904C458.073 106.997 459.457 106.344 460.141 105.683C464.786 101.2 468.779 91.9408 474.76 86.1686C482.494 78.7037 488.823 62.924 494.624 52.6823C493.58 52.4364 492.484 52.2521 492.718 52.0178C492.877 51.8594 494.056 51.7975 495.271 51.5807C495.553 51.1004 495.848 50.6138 496.128 50.1643C495.71 50.1795 495.345 50.1992 495.236 50.1992H493.995C494.402 50.1252 495.089 49.9195 495.096 49.9195C495.309 49.9195 495.834 49.883 496.32 49.8495C496.829 49.0444 497.339 48.2968 497.842 47.6113C496.847 46.9155 495.444 47.8211 494.117 47.8211C494.089 47.8211 494.049 47.8128 494.012 47.8036C493.897 47.8589 493.837 47.8765 493.837 47.8211C493.837 47.7556 493.925 47.782 494.012 47.8036C494.358 47.638 495.153 47.1217 495.936 47.1217C496.384 47.1217 497.591 46.9251 498.559 46.667C498.605 46.6094 498.652 46.5486 498.698 46.4922C500.212 45.7192 502.945 44.3093 503.07 44.184C503.523 43.7315 505.251 40.9974 505.448 40.4069C505.649 39.803 506.482 39.2766 506.847 38.7282C507.556 37.6651 508.391 36.6202 508.945 35.5107C509.404 34.594 510.388 30.9903 510.764 30.6146C510.84 30.5385 511.739 28.3722 511.603 28.2364C511.178 27.811 505.498 27.2322 504.609 27.6769C504.179 27.892 501.942 28.6561 501.671 28.6561C501.533 28.6561 500.132 29.3482 500.132 29.4954C500.132 29.5631 500.817 29.2308 500.832 29.2157C501.106 28.9411 501.862 29.1647 502.091 28.9359C502.601 28.4259 506.37 28.7387 506.707 29.0758C506.847 29.2157 507.127 29.2157 507.267 29.3555C507.799 29.888 507.007 31.1013 506.392 31.8561C505.594 31.9013 504.818 31.943 504.259 32.1184C498.263 33.9998 490.16 33.7324 487.367 39.078C483.896 45.7234 484.625 57.6136 482.716 61.2681C481.295 63.9886 478.169 62.3701 477.243 61.6878C477.421 62.8364 475.727 67.3713 475.581 67.6506C474.766 69.2122 471.805 77.9636 471.402 78.09C469.922 78.5545 460.437 61.1372 457.728 58.3304C456.778 57.3466 457.517 51.9033 456.364 51.3009C454.499 50.3266 457.054 41.9606 455.262 42.5228C454.353 42.8079 452.943 43.1103 451.45 43.4845C451.328 43.0989 451.187 42.7305 451.066 42.4878C451.001 42.3587 450.862 41.2708 450.733 40.2146C450.948 39.7956 451.15 39.4482 451.275 39.3228C451.365 39.233 451.503 39.1687 451.59 39.078C451.586 39.1709 451.6 39.2629 451.66 39.3228C451.825 39.4876 452.09 39.5601 452.255 39.7249C453.12 40.5906 455.85 38.7004 456.014 38.5359C456.569 37.9811 455.175 36.2978 455.035 36.1577C454.903 36.0258 455.167 35.5027 455.035 35.3708C453.854 34.1896 454.441 31.4501 454.441 29.443C454.441 27.7256 454.633 26.2813 454.633 24.879C454.633 24.4272 454.697 23.9799 454.773 23.5501ZM477.243 61.6878C477.211 61.4849 477.112 61.3733 476.945 61.4255C476.909 61.4369 477.05 61.5457 477.243 61.6878ZM479.568 97.5872C480.364 97.0667 480.657 96.7508 479.831 97.0102C479.596 97.0837 479.556 97.3122 479.568 97.5872ZM451.276 140.813C451.779 139.849 447.91 141.582 448.478 142.51C449.045 143.437 450.348 141.381 451.276 140.813ZM493.732 50.1643C493.789 50.1512 493.907 50.1992 493.977 50.1992C493.815 50.2279 493.697 50.2385 493.697 50.1992C493.697 50.1759 493.713 50.1686 493.732 50.1643ZM455.595 64.4506C455.616 64.441 455.63 64.4395 455.63 64.4506C455.63 64.4677 455.601 64.4772 455.56 64.4856C455.573 64.4774 455.585 64.4551 455.595 64.4506Z" fill="#E6B35A"/>
</g>
<defs>
<clipPath id="clip0_1_1358">
<rect width="512" height="152" fill="white"/>
</clipPath>
</defs>
</svg>
