<svg width="256" height="216" viewBox="0 0 256 216" fill="none" xmlns="http://www.w3.org/2000/svg">
<g clip-path="url(#clip0_1_1350)">
<path d="M110.582 0.00876481C106.155 0.0908585 100.615 2.85208 96.6525 1.89821C95.071 1.51751 93.1379 1.35338 91.2455 1.456C91.2121 1.45793 91.1784 1.45407 91.145 1.456C89.2208 1.57032 87.343 1.97596 85.9591 2.82283C85.9019 2.85783 85.8363 2.89021 85.7782 2.92334C85.7231 3.00378 85.665 3.07667 85.5973 3.14444C83.7583 4.98339 79.6907 5.15155 77.7983 7.04394C76.2526 8.58965 74.8203 11.5492 73.1149 14.1997C73.0986 14.2249 73.0909 14.255 73.0747 14.2801C67.0066 21.3548 62.1643 30.0599 60.4515 37.1746C59.0442 43.0204 59.0636 50.916 56.753 56.7324C56.1068 58.3591 53.4277 67.3634 55.5068 69.1143C56.923 70.3069 62.9597 71.22 64.7329 69.1143C65.6873 67.981 74.438 65.1485 77.1752 61.8982C80.3982 58.0707 82.0613 51.4598 84.2706 45.8982C84.6222 45.0132 85.0749 44.0741 85.5973 43.1444C86.8507 45.5723 87.8457 47.5545 88.3711 48.7726C89.4649 51.3081 90.6684 54.8143 91.6676 58.5615C89.5023 61.8786 90.4045 66.4172 91.9691 68.4912C85.6376 70.4624 88.6538 77.2738 88.4113 77.5163C87.9944 77.9334 86.6735 78.4904 86.14 79.0238C85.4795 79.6843 85.3762 81.0618 85.3762 82.059C85.3762 83.0212 85.4977 83.8762 85.6777 84.6319C79.9169 99.1239 74.4793 117.264 67.6073 127.044C65.6294 127.946 63.6059 128.721 61.2355 129.195C56.6164 130.35 44.9409 132.638 35.1048 135.948C34.6779 136.516 34.1804 137.074 33.6174 137.637C32.6427 138.612 30.6925 138.612 29.7179 139.587C28.9598 140.345 26.5965 139.492 25.8385 140.25C23.5891 142.499 20.2691 143.668 16.7329 145.436C16.3406 145.632 15.0835 145.136 14.7832 145.436C13.1768 147.042 10.3005 147.969 8.93395 149.335C6.26038 152.009 4.01906 154.914 1.13495 157.798C-1.73132 160.664 4.11404 168.556 5.03445 169.476C7.7429 172.185 12.718 172.617 15.4264 175.325C16.5659 176.465 20.3861 174.941 21.7581 175.848C22.1124 175.898 22.4292 175.962 22.6425 176.069C26.633 178.064 34.4608 179.539 39.1852 181.114C45.6961 183.285 50.8607 189.083 57.5772 190.763C62.6902 192.041 68.4971 192.721 73.6576 194.441C75.8151 195.16 78.4352 194.667 80.5319 195.366C84.4533 196.673 87.994 198.295 91.5671 199.486C92.8047 199.899 94.4399 199.169 95.7078 199.486C98.5607 200.199 101.645 200.407 104.431 201.335C109.393 202.989 116.012 199.681 120.974 201.335C124.244 202.425 144.603 200.681 146.24 199.044C147.444 197.84 152.022 199.369 153.597 198.582C154.965 197.898 159.118 198.569 160.029 197.657C162.384 195.302 167.218 195.199 170.582 193.516C171.998 192.809 174.179 193.788 175.648 193.054C176.492 192.632 178.208 193.151 180.07 193.959C183.612 193.884 186.337 193.516 189.879 193.516C194.089 193.516 199.901 191.517 206.06 188.491C212.876 186.956 221.207 185.183 221.597 184.793C224.559 181.831 232.43 182.684 235.366 179.747C237.446 177.667 240.119 176.824 242.261 174.682C244.168 172.774 246.789 170.59 249.537 168.29C250.016 166.956 251.24 165.702 252.371 164.572C252.845 164.097 256.192 154.304 255.587 153.094C254.48 150.879 252.65 149.047 250.542 147.345C249.888 147.121 249.387 146.894 249.155 146.662C246.903 144.41 241.508 144.061 239.507 142.059C236.284 138.836 231.438 135.94 225.658 133.999C224.447 133.399 223.313 132.76 222.502 131.948C221.472 130.919 215.522 129.604 213.778 128.732C212.84 128.264 210.8 128.99 210.1 128.29C208.402 126.593 201.289 125.383 196.15 123.747C195.401 123.795 194.198 123.223 193.979 123.004C193.825 122.849 189.841 122.263 188.532 120.953C188.383 120.805 187.849 115.468 187.849 114.803C187.849 114.558 187.253 113.569 187.607 113.215C187.662 113.16 187.716 113.095 187.768 113.034C185.39 98.3781 183.571 82.1947 181.859 80.7525C179.315 78.6107 177.902 66.7866 175.105 64.4309C172.18 61.9679 170.349 59.2747 168.09 57.1746C168.088 57.1682 168.091 57.1609 168.09 57.1545C167.24 52.4821 165.625 47.2326 165.115 46.8028C164.286 46.1047 165.542 42.9381 164.713 42.24C162.133 40.0672 158.771 27.2931 156.351 25.255C153.181 22.5857 151.622 18.4428 148.612 15.9083C141.175 9.64564 128.822 0.326346 115.165 1.03392C114.578 0.868417 114.006 0.669438 113.457 0.451008C112.588 0.106083 111.604 -0.0101843 110.582 0.00876481Z" fill="#3C6991"/>
<path d="M107.634 81.1127C106.487 80.9059 105.365 80.8939 104.485 81.1859C103.02 81.6722 100.658 80.5207 99.1278 80.7968C93.3433 81.8409 88.8082 83.4081 88.0272 85.3526C96.6126 82.8913 106.144 88.3851 110.049 93.6054C111.672 95.7752 109.168 99.0639 110.052 101.726C110.252 102.329 110.412 106.188 109.717 106.708C108.264 107.795 108.408 111.587 107.207 113.317C104.38 117.39 101.914 120.365 99.5123 123.825C97.0356 127.393 90.4134 128.108 86.7173 129.334C85.9006 129.606 84.8725 129.042 84.0116 129.328C83.8082 129.395 83.571 129.407 83.3342 129.374C83.4173 129.467 83.5134 129.557 83.5819 129.649C83.8936 130.066 85.4139 129.669 85.8582 129.977C88.7303 131.971 100.095 131.206 103.246 130.16C105.207 129.509 107.025 128.548 108.986 127.898C111.5 127.063 113.975 123.153 115.781 121.14C121.992 114.216 124.83 102.224 121.758 92.9699C120.214 88.3179 116.172 85.5297 112.731 83.1411C111.555 82.3243 109.546 81.4574 107.634 81.1127Z" fill="#E6B35A"/>
<path d="M121.486 72.1755C121.117 72.1637 121.065 75.784 121.036 77.5099C120.862 77.5201 120.87 77.7376 120.917 77.9841C119.05 78.813 114.987 80.4732 115.298 80.8054C115.313 80.8129 115.314 80.8233 115.321 80.8291C115.174 80.8366 115.02 80.8863 115.013 81.0899C114.998 81.358 115.551 81.1046 115.819 81.1135C116.252 81.1283 120.031 82.5216 121.533 83.1525C121.719 84.5803 122.268 85.4327 122.268 87.0644C122.268 88.0816 122.469 89.4827 122.529 89.4827C122.551 89.4827 122.592 89.4513 122.623 89.4351C122.667 89.6116 122.717 89.7159 122.789 89.6485C123.084 89.3722 123.62 88.6314 124.164 87.7992C124.188 87.7635 124.213 87.7405 124.235 87.7045C125.193 86.518 126.287 84.9989 127.222 83.6266C129.035 83.8903 130.695 84.1008 131.11 84.1008C131.31 84.1008 138.197 85.2843 136.208 83.2947C136.087 83.1733 135.945 83.0702 135.805 82.9628C135.849 82.9278 135.874 82.8918 135.875 82.8442C135.89 82.4601 132.045 80.6926 131.418 80.0228C131.115 79.6997 130.677 79.4924 130.375 79.1693C130.295 79.0844 130.445 78.8473 130.683 78.5055V78.4818C131.218 77.8913 131.788 77.2817 132.2 76.8696C132.398 76.672 133.511 74.5899 132.455 74.727C131.743 74.8196 129.416 74.9667 126.369 75.859C126.369 75.859 125.547 74.783 125.541 74.786C124.879 74.5153 123.005 72.2255 121.484 72.1753L121.486 72.1755Z" fill="#E6B35A"/>
<path d="M104.281 71.6382C104.061 71.7442 103.728 72.1751 103.622 71.9556C103.516 71.7362 104.5 71.5324 104.281 71.6382C103.626 71.9539 101.094 74.2352 102.027 74.9562C102.794 75.5494 105.641 74.4399 106.849 74.8619C107.03 74.9249 109.036 78.0033 109.35 77.1041C109.863 75.6373 109.228 73.1437 109.244 73.0985C109.481 72.4219 111.333 72.6996 111.786 72.4813C112.16 72.3009 112.919 71.9812 113.023 71.6819C113.051 71.6005 113.072 71.3604 113.109 71.438C113.14 71.5008 112.614 70.9915 111.974 70.768C111.018 70.4338 110.05 70.6432 109.365 70.4037C109.049 70.2932 109.43 68.4341 109.315 68.1966C108.938 67.4156 108.699 66.4997 108.765 66.6362C108.952 67.0241 107.956 67.0155 107.692 67.3562C107.365 67.7805 106.505 69.2186 105.95 69.2107C105.284 69.2003 102.617 68.566 102.438 69.0785C102.423 69.1074 104.1 70.7671 104.281 71.6382Z" fill="#E6B35A"/>
<path d="M130.061 97.5121C129.882 97.3464 129.359 97.1934 129.525 97.0149C129.691 96.8364 130.239 97.6779 130.061 97.5121C129.528 97.0176 126.481 95.4911 126.149 96.6229C125.877 97.5541 127.948 99.8004 127.995 101.079C128.01 101.27 125.867 104.261 126.819 104.225C128.372 104.168 130.463 102.668 130.51 102.667C131.227 102.64 131.643 104.467 132.012 104.809C132.316 105.091 132.89 105.681 133.207 105.669C133.294 105.666 133.524 105.597 133.465 105.659C133.418 105.71 133.701 105.036 133.676 104.358C133.637 103.346 133.091 102.521 133.064 101.796C133.049 101.461 134.921 101.138 135.1 100.944C135.69 100.309 136.456 99.7527 136.353 99.8637C136.06 100.179 135.705 99.2484 135.292 99.1274C134.777 98.9768 133.125 98.701 132.93 98.1807C132.696 97.5572 132.315 94.8423 131.772 94.8624C131.741 94.8631 130.806 97.0265 130.061 97.5121Z" fill="#E6B35A"/>
<path d="M188.693 121.557C188.173 123.343 184.917 129.071 183.547 130.441C181.784 132.204 180.268 134.041 178.723 135.587C177.628 136.682 174.502 139.486 173.577 140.411C171.566 142.422 170.388 141.67 168.11 143.949C166.98 145.078 164.707 145.1 163.607 146.2C162.613 147.195 154.632 147.793 152.673 148.773C152.198 149.01 150.782 148.412 150.421 148.773C149.013 150.181 137.888 150.693 137.557 151.024C135.854 152.727 131.319 150.766 128.874 151.989C126.705 153.073 122.401 152.31 119.869 152.31C118.466 152.31 114.741 152.284 110.904 152.19C109.998 152.062 109.285 151.96 109.256 151.989C109.236 152.008 109.149 152.097 109.095 152.15C108.374 152.127 107.68 152.097 106.984 152.069C106.551 151.904 106.091 151.802 105.718 151.989C105.701 151.997 105.676 152.001 105.658 152.009C102.664 151.864 100.22 151.652 99.6073 151.346C97.0907 150.087 94.3879 149.738 91.2455 149.738C86.3271 149.738 75.4366 143.924 71.6274 142.019C71.044 141.727 69.4261 140.031 68.552 139.567C68.5451 139.23 68.5332 138.925 68.4113 138.803C67.5151 137.907 67.1227 135.904 66.4817 134.622C66.2149 134.089 66.4817 132.133 66.4817 132.371C66.4817 132.381 67.1281 129.798 67.1249 129.798C66.5738 129.798 63.6916 133.553 62.6224 134.622C62.6124 134.632 62.6425 134.69 62.6626 134.743C62.06 135.573 61.6374 136.812 61.6374 138.682C61.6374 145.057 65.1533 145.394 68.4515 148.692C69.2613 149.502 70.9949 148.964 71.6274 149.597C72.2731 150.243 73.2209 150.816 74.341 151.325C72.94 152.147 70.2408 152.35 69.356 153.235C68.4907 154.1 64.4787 156.588 62.9842 157.336C62.7032 157.476 61.3437 157.629 61.1751 157.798C52.6791 166.294 43.0909 171.782 35.2455 179.627C34.585 180.287 34.341 188.914 34.341 190.542C34.341 193.383 33.3758 196.391 35.2455 198.26C36.0343 199.049 38.6496 198.488 39.346 199.185C39.497 199.336 41.3987 200.75 41.6173 200.532C42.4473 199.702 41.155 195.362 41.155 194.18C41.155 187.969 41.8253 181.69 45.7178 177.798C53.2239 170.292 63.926 166.866 70.7229 160.069C72.7208 158.071 76.3816 157.007 79.0445 154.823C78.9511 155.464 79.06 156.067 79.5269 156.572C79.8373 156.907 80.9433 156.243 81.3359 156.451C84.0066 157.867 92.1458 160.903 94.542 157.979C94.9765 158.805 95.3209 159.642 95.748 160.069C97.3434 161.665 96.0958 169.364 95.2857 170.984C92.229 177.097 90.617 194.748 88.0093 197.356C87.5591 197.806 88.5495 202.094 88.9138 202.823C89.8614 204.718 88.2204 208.944 88.9138 209.637C89.5961 210.319 89.1562 212.131 89.8385 212.813C90.4595 213.434 93.2978 212.654 93.9188 213.275C94.1651 213.521 97.4007 215.723 98.0194 215.104C98.532 214.592 96.616 208.68 96.1902 207.828C95.8234 207.094 97.1779 193.634 97.557 193.255C98.0877 192.725 97.0264 190.61 97.557 190.079C98.5903 189.046 99.8284 167.636 99.8284 164.612C99.8284 164.101 101.133 160.912 100.291 160.069C100.286 160.065 99.5371 158.344 98.5219 156.672C100.021 156.784 101.286 156.964 101.658 157.336C102.325 158.003 115.782 157.336 118.019 157.336C126.905 157.336 140.884 156.647 146.22 155.506C148.348 155.052 153.393 154.654 156.23 153.235C157.878 152.411 163.679 151.848 164.693 151.587C166.859 151.028 173.821 149.353 175.768 147.406C177.212 145.962 182.151 140.958 183.969 140.049C186.019 139.024 187.048 135.383 188.251 133.697C188.405 132.449 191.764 129.187 191.105 127.868C190.356 124.822 189.889 121.674 188.693 121.557Z" fill="#E6B35A"/>
</g>
<defs>
<clipPath id="clip0_1_1350">
<rect width="256" height="216" fill="white"/>
</clipPath>
</defs>
</svg>
