<svg width="256" height="256" viewBox="0 0 256 256" fill="none" xmlns="http://www.w3.org/2000/svg">
<g clip-path="url(#clip0_1_1391)">
<path d="M127.949 256C198.308 256 255.346 198.963 255.346 128.604C255.346 58.2444 198.308 1.20703 127.949 1.20703C57.5901 1.20703 0.552734 58.2444 0.552734 128.604C0.552734 198.963 57.5901 256 127.949 256Z" fill="#F5BB60"/>
<path d="M114.961 230.3C178.299 230.3 229.645 178.954 229.645 115.615C229.645 52.2767 178.299 0.930664 114.961 0.930664C51.6224 0.930664 0.276367 52.2767 0.276367 115.615C0.276367 178.954 51.6224 230.3 114.961 230.3Z" fill="#E86F32"/>
<path d="M130.16 199.901C185.104 199.901 229.645 155.36 229.645 100.416C229.645 45.4718 185.104 0.930664 130.16 0.930664C75.2157 0.930664 30.6746 45.4718 30.6746 100.416C30.6746 155.36 75.2157 199.901 130.16 199.901Z" fill="#E53D42"/>
<path d="M138.174 199.902C188.692 199.902 229.645 158.948 229.645 108.43C229.645 57.9121 188.692 16.959 138.174 16.959C87.656 16.959 46.7029 57.9121 46.7029 108.43C46.7029 158.948 87.656 199.902 138.174 199.902Z" fill="#BFD141"/>
<path d="M131.542 199.901C178.397 199.901 216.381 161.918 216.381 115.063C216.381 68.2073 178.397 30.2236 131.542 30.2236C84.6866 30.2236 46.7029 68.2073 46.7029 115.063C46.7029 161.918 84.6866 199.901 131.542 199.901Z" fill="#6DB64C"/>
<path d="M118.001 173.096C157.377 173.096 189.299 141.175 189.299 101.798C189.299 62.4211 157.377 30.5 118.001 30.5C78.624 30.5 46.7029 62.4211 46.7029 101.798C46.7029 141.175 78.624 173.096 118.001 173.096Z" fill="#AFDBE7"/>
<path d="M129.607 149.606C162.574 149.606 189.299 122.881 189.299 89.9149C189.299 56.9483 162.574 30.2236 129.607 30.2236C96.6409 30.2236 69.9163 56.9483 69.9163 89.9149C69.9163 122.881 96.6409 149.606 129.607 149.606Z" fill="#57BADF"/>
<path d="M137.069 149.882C166.067 149.882 189.575 126.375 189.575 97.3763C189.575 68.3779 166.067 44.8701 137.069 44.8701C108.07 44.8701 84.5625 68.3779 84.5625 97.3763C84.5625 126.375 108.07 149.882 137.069 149.882Z" fill="#02B2D6"/>
<path d="M129.331 149.606C154.056 149.606 174.099 129.563 174.099 104.838C174.099 80.1128 154.056 60.0693 129.331 60.0693C104.606 60.0693 84.5625 80.1128 84.5625 104.838C84.5625 129.563 104.606 149.606 129.331 149.606Z" fill="url(#paint0_radial_1_1391)"/>
<path d="M129.331 149.606C154.056 149.606 174.099 129.563 174.099 104.838C174.099 80.1128 154.056 60.0693 129.331 60.0693C104.606 60.0693 84.5625 80.1128 84.5625 104.838C84.5625 129.563 104.606 149.606 129.331 149.606Z" fill="#231F20"/>
<path d="M141.088 98.9712C145.527 100.963 151.648 96.9551 154.76 90.0197C157.872 83.0842 156.796 75.8473 152.358 73.8556C147.919 71.864 141.798 75.8717 138.686 82.8072C135.574 89.7426 136.649 96.9795 141.088 98.9712Z" fill="white"/>
</g>
<defs>
<radialGradient id="paint0_radial_1_1391" cx="0" cy="0" r="1" gradientUnits="userSpaceOnUse" gradientTransform="translate(4574.01 4537.19) scale(4487.48)">
<stop stop-color="#797979"/>
<stop offset="1" stop-color="#4C4C4C"/>
</radialGradient>
<clipPath id="clip0_1_1391">
<rect width="256" height="256" fill="white"/>
</clipPath>
</defs>
</svg>
