<svg width="256" height="256" viewBox="0 0 256 256" fill="none" xmlns="http://www.w3.org/2000/svg">
<g clip-path="url(#clip0_1_1386)">
<path d="M128 0C198.692 0 256 57.308 256 128C256 198.692 198.692 256 128 256C57.308 256 0 198.692 0 128C0 57.308 57.308 0 128 0Z" fill="#FFD539"/>
<path d="M174.972 58.3999C176.018 62.0339 173.257 94.8579 225.714 114.629C221.98 122.193 205.314 129.358 175.429 136.114C171.888 92.3279 163.658 70.5139 174.972 58.3999Z" fill="white"/>
<path d="M183.878 132.809C181.583 133.325 179.262 133.786 176.913 134.193C176.344 123.619 175.103 114.371 173.88 106.097C177.761 106.82 181.536 104.341 182.369 100.457C183.216 96.5085 180.701 92.6205 176.752 91.7725C175.74 91.5555 174.694 91.5555 173.684 91.7725C176.119 92.4385 177.555 94.9545 176.888 97.3895C176.388 99.2185 174.847 100.482 173.079 100.717C170.679 84.6655 169.08 72.2935 174.277 60.4905C174.202 73.6355 179.902 85.4745 190.133 95.4655C199.493 104.61 212.524 111.703 222.87 114.353C223.444 115.038 223.472 115.873 222.725 117.015C221.881 117.671 220.945 118.317 219.974 118.888C210.105 124.673 198.03 129.627 183.878 132.809ZM231.905 108.068C231.905 102.008 226.993 97.0965 220.934 97.0965C215.785 97.0965 211.477 100.648 210.294 105.432C193.339 96.6075 173.949 78.7075 178.689 52.8555C182.215 47.9635 187.127 43.0515 193.935 37.8895C181.202 36.3965 167.667 38.7055 154.775 43.6565C154.573 36.9555 155.377 29.7805 157.475 21.3665C145.115 24.5195 133.361 31.4705 123.137 40.6445C120.532 34.4455 118.714 27.4295 117.654 18.7935C107.19 26.2055 98.673 36.9835 92.405 49.2945C87.711 44.4195 83.466 38.4905 79.351 30.7505C72.252 41.3985 68.166 54.4805 66.718 68.1895C60.722 65.3335 54.754 61.3715 48.28 55.7445C45.471 68.2175 46.339 81.8805 49.893 95.1855C43.133 94.7065 36.007 93.1505 27.758 90.1485C29.607 102.81 35.323 115.265 43.42 126.42C37.054 128.31 29.982 129.372 21.408 129.523C27.694 140.719 37.539 150.326 49.147 157.85C43.794 162.033 37.431 165.652 29.266 168.951H29.268C39.106 177.116 51.674 182.545 65.141 185.419C61.677 191.075 57.116 196.586 50.854 202.426C62.941 206.515 76.589 207.086 90.165 204.958C88.973 211.577 86.691 218.448 82.876 226.269H82.878C95.663 225.753 108.648 221.372 120.587 214.486C121.866 221.125 122.206 228.397 121.442 237.122C147.219 226.016 167.243 197.241 174.304 168.756C176.22 163.606 177.239 156.156 177.239 145.872C177.239 143.114 177.173 140.462 177.077 137.867C197.928 134.327 213.102 127.156 221.822 122.042C225.02 120.167 228.262 117.413 229.302 115.155C230.923 113.243 231.905 110.771 231.905 108.068Z" fill="black"/>
</g>
<defs>
<clipPath id="clip0_1_1386">
<rect width="256" height="256" fill="white"/>
</clipPath>
</defs>
</svg>
