<svg width="256" height="253" viewBox="0 0 256 253" fill="none" xmlns="http://www.w3.org/2000/svg">
<g clip-path="url(#clip0_1_1407)">
<path d="M76.2729 188.767C75.967 184.679 74.8288 180.204 70.3129 176.084C70.3129 176.076 70.3047 176.076 70.2925 176.068C70.1171 175.905 69.9213 175.733 69.7336 175.57C69.7051 175.554 69.6888 175.529 69.6684 175.517C63.4187 169.81 58.4255 158.84 58.4255 147.194C58.4255 130.958 65.6175 84.8112 67.1718 84.8112C68.4037 84.8112 68.4282 107.068 67.6123 127.992C67.0453 142.523 69.1951 148.246 72.6627 148.246C77.2806 148.246 78.0189 133.621 78.4962 117.181C78.8878 103.646 80.0709 84.9131 81.0173 84.8112H81.0214C82.4981 84.8112 83.7179 103.426 84.1136 116.994C84.6031 133.842 85.7698 147.83 89.629 147.83C93.6798 147.83 94.9118 141.36 94.6263 126.996C94.2754 109.463 94.2713 84.8112 95.5033 84.8112C97.0576 84.8112 102.332 101.011 103.605 147.194C103.927 158.832 98.6118 169.806 92.3581 175.517C92.3377 175.533 92.3214 175.558 92.2928 175.57C92.1052 175.733 91.9094 175.905 91.7339 176.068C91.7258 176.076 91.7135 176.076 91.7135 176.084C87.1936 180.204 86.0595 184.679 85.7494 188.767C85.2599 195.294 85.0396 203.657 85.0641 213.068L120.661 248.665C121.159 233.151 121.11 218.518 120.425 207.471C120.168 203.343 119.535 198.55 118.813 194.727C118.589 193.507 117.806 192.381 117.806 191.415C117.806 178.026 117.806 65.2218 117.806 56.9365C117.806 45.4651 128.547 40.0436 138.427 65.2218C148.307 90.4 145.55 179.943 145.55 186.311C145.55 187.662 144.379 189.257 142.457 190.827C141.691 191.325 141.022 191.827 140.377 192.341C134.458 197.089 133.613 202.564 133.303 207.471C132.565 219.35 131.969 235.374 131.814 252.186L180.873 203.127C180.804 197.362 180.645 192.177 180.376 187.857C180.274 186.201 179.862 184.516 179.548 182.742C178.658 177.716 172.437 173.6 168.839 169.985C161.847 162.965 157.351 151.163 157.351 137.856C157.351 116.247 169.329 88.8947 184.104 88.8947C198.88 88.8947 210.861 116.243 210.861 137.856C210.861 151.163 206.366 162.969 199.374 169.985C195.771 173.6 189.55 177.716 188.661 182.742C188.347 184.52 187.935 186.201 187.833 187.857C187.67 190.456 187.551 193.385 187.462 196.542L256 128L128 0L0 128L76.9093 204.909C76.8237 198.819 76.6156 193.336 76.2729 188.767Z" fill="#3F894A"/>
</g>
<defs>
<clipPath id="clip0_1_1407">
<rect width="256" height="253" fill="white"/>
</clipPath>
</defs>
</svg>
