<svg width="256" height="276" viewBox="0 0 256 276" fill="none" xmlns="http://www.w3.org/2000/svg">
<g clip-path="url(#clip0_1_1410)">
<path d="M156.688 71.5306C131.928 71.5306 107.524 82.1604 88.8931 103.059V0H52.024V173.506C52.024 173.51 52.024 173.514 52.024 173.519C52.024 229.845 97.6852 275.507 154.012 275.507C210.338 275.507 256 229.845 256 173.519C256 117.193 213.014 71.5306 156.688 71.5306ZM154.012 236.225C119.38 236.225 91.3052 208.15 91.3052 173.519C91.3052 138.887 119.38 110.812 154.012 110.812C188.643 110.812 216.718 138.887 216.718 173.519C216.718 208.151 188.643 236.225 154.012 236.225Z" fill="#262626"/>
<path d="M25.2199 225.066C11.291 225.066 0 236.358 0 250.286C0 264.214 11.291 275.506 25.2199 275.506C39.1489 275.506 50.4399 264.214 50.4399 250.286C50.4399 236.358 39.1489 225.066 25.2199 225.066Z" fill="#0000FF"/>
</g>
<defs>
<clipPath id="clip0_1_1410">
<rect width="256" height="276" fill="white"/>
</clipPath>
</defs>
</svg>
