<svg width="512" height="116" viewBox="0 0 512 116" fill="none" xmlns="http://www.w3.org/2000/svg">
<g clip-path="url(#clip0_1_1414)">
<path d="M221.214 0V43.2952C229.04 34.5157 239.292 30.0501 249.694 30.0501C273.357 30.0501 291.415 49.233 291.415 72.8956C291.415 96.5583 272.232 115.741 248.57 115.741C225.143 115.741 206.109 96.94 205.73 73.6041L205.724 72.8956V0H221.214ZM317.176 0V43.2952C325.003 34.5157 335.255 30.0501 345.657 30.0501C369.319 30.0501 387.378 49.233 387.378 72.8956C387.378 96.5583 368.195 115.741 344.533 115.741C321.107 115.741 302.072 96.94 301.693 73.6041L301.688 72.8956V0H317.176ZM135.185 32.3742V80.2495C135.185 92.4827 142.283 100.336 154.214 100.336C166.296 100.336 173.244 92.7845 173.244 80.2495V32.3742H190.007V80.4003C190.007 102.601 176.566 115.741 154.214 115.741C132.466 115.741 118.572 102.148 118.572 80.4003V32.3742H135.185ZM37.3441 0V43.2952C45.1711 34.5157 55.4231 30.0501 65.8247 30.0501C89.4874 30.0501 107.546 49.233 107.546 72.8956C107.546 96.5583 88.3632 115.741 64.7006 115.741C41.2743 115.741 22.2394 96.94 21.8611 73.6041L21.8553 72.8956V0H37.3441ZM472.129 30.4106C483.758 30.4106 493.424 34.0353 500.824 41.4352C508.225 48.8357 512 58.8033 512 71.4894C512 71.716 511.998 71.9471 511.995 72.1826L511.987 72.6595C511.985 72.7399 511.983 72.8208 511.981 72.9021L511.965 73.3959C511.898 75.2268 511.728 77.2793 511.396 79.4946H447.814C450.231 92.1807 459.141 100.789 474.848 100.789C484.06 100.789 495.236 97.3155 502.486 92.0299L509.433 104.263C501.126 110.455 487.988 115.59 474.244 115.59C443.736 115.59 430.597 94.295 430.597 72.8493C430.597 60.6161 434.373 50.4972 442.075 42.4925C449.777 34.4882 459.897 30.4106 472.129 30.4106ZM417.355 0V113.777H400.742V0H417.355ZM248.57 46.5521C234.021 46.5521 222.227 58.3464 222.227 72.8953C222.227 87.444 234.021 99.2383 248.57 99.2383C263.119 99.2383 274.913 87.4443 274.913 72.8953C274.913 58.3464 263.119 46.5521 248.57 46.5521ZM344.533 46.5521C329.984 46.5521 318.19 58.3464 318.19 72.8953C318.19 87.444 329.984 99.2383 344.533 99.2383C359.081 99.2383 370.876 87.4443 370.876 72.8953C370.876 58.3464 359.081 46.5521 344.533 46.5521ZM64.7006 46.5521C50.1517 46.5521 38.3574 58.3464 38.3574 72.8953C38.3574 87.444 50.1517 99.2383 64.7006 99.2383C79.2492 99.2383 91.0435 87.4443 91.0435 72.8953C91.0435 58.3464 79.2492 46.5521 64.7006 46.5521ZM472.129 44.7584C459.594 44.7584 450.23 53.2156 447.814 65.9017H495.236C493.877 53.0646 484.363 44.7584 472.129 44.7584Z" fill="#262626"/>
<path d="M10.5949 94.5503C4.74335 94.5503 0 99.2939 0 105.145C0 110.996 4.74335 115.74 10.5949 115.74C16.4465 115.74 21.1898 110.996 21.1898 105.145C21.1898 99.2939 16.4465 94.5503 10.5949 94.5503Z" fill="#0000FF"/>
</g>
<defs>
<clipPath id="clip0_1_1414">
<rect width="512" height="116" fill="white"/>
</clipPath>
</defs>
</svg>
