<svg width="256" height="289" viewBox="0 0 256 289" fill="none" xmlns="http://www.w3.org/2000/svg">
<g clip-path="url(#clip0_1_1423)">
<path d="M116.612 3.64316C92.293 17.6412 35.707 50.3832 11.389 64.3802C4.389 68.4142 0 76.0062 0 84.0732V205.549C0 213.615 4.389 221.208 11.389 225.241C35.589 239.239 92.293 271.98 116.612 285.979C123.729 290.011 132.389 290.011 139.388 285.979C163.589 271.98 220.293 239.239 244.611 225.241C251.61 221.208 256 213.615 256 205.549V84.0732C256 75.8882 251.61 68.4142 244.611 64.3802C220.411 50.3832 163.707 17.6412 139.388 3.64316C135.829 1.62616 131.885 0.618164 127.955 0.618164C124.026 0.618164 120.111 1.62616 116.612 3.64316Z" fill="#00C9FF"/>
<mask id="mask0_1_1423" style="mask-type:luminance" maskUnits="userSpaceOnUse" x="0" y="0" width="256" height="290">
<path d="M116.612 3.64316C92.293 17.6412 35.707 50.3832 11.389 64.3802C4.389 68.4142 0 76.0062 0 84.0732V205.549C0 213.615 4.389 221.208 11.389 225.241C35.589 239.239 92.293 271.98 116.612 285.979C123.729 290.011 132.389 290.011 139.388 285.979C163.589 271.98 220.293 239.239 244.611 225.241C251.61 221.208 256 213.615 256 205.549V84.0732C256 75.8882 251.61 68.4142 244.611 64.3802C220.411 50.3832 163.707 17.6412 139.388 3.64316C135.829 1.62616 131.885 0.618164 127.955 0.618164C124.026 0.618164 120.111 1.62616 116.612 3.64316Z" fill="black"/>
</mask>
<g mask="url(#mask0_1_1423)">
<path d="M66.5502 144.811L128 292.859L0.000244141 218.716L66.5502 144.811Z" fill="#1A67FD"/>
<path d="M66.5502 144.811L0.000244141 70.4312V218.716L66.5502 144.811Z" fill="#0DA7FE"/>
<path d="M66.5503 144.811L128 -3L256 218.716L66.5503 144.811Z" fill="#00C9FF"/>
<path d="M66.5502 144.811L128 -3L0.000244141 70.431L66.5502 144.811Z" fill="#05BBFF"/>
<path d="M128 292.86L256 218.717L66.5499 144.812L128 292.86Z" fill="#1A86FD"/>
<path d="M256 218.716V70.9055L128 -2.99951L256 218.716Z" fill="#05BBFF"/>
<path d="M155.047 132.355L171.299 148.607L163.232 156.674L155.047 164.859L109.256 210.65L93.0054 194.397L138.795 148.607L93.0054 102.816L109.256 86.564L155.047 132.355Z" fill="#1A67FD" fill-opacity="0.5"/>
<path d="M171.299 141.252L155.047 125L93.0052 187.043L109.257 203.295L171.299 141.252Z" fill="#D6FFFF"/>
<path d="M109.257 79.3281L93.1228 95.5801L155.166 157.623L171.418 141.37C171.299 141.252 109.257 79.3281 109.257 79.3281Z" fill="#D6FFFF"/>
</g>
</g>
<defs>
<clipPath id="clip0_1_1423">
<rect width="256" height="289" fill="white"/>
</clipPath>
</defs>
</svg>
