<svg width="256" height="256" viewBox="0 0 256 256" fill="none" xmlns="http://www.w3.org/2000/svg">
<g clip-path="url(#clip0_1_1443)">
<path d="M128 256C198.692 256 256 198.692 256 128C256 57.3075 198.692 0 128 0C57.3075 0 0 57.3075 0 128C0 198.692 57.3075 256 128 256Z" fill="#222222"/>
<path d="M50.4181 123.012C51.9967 122.82 53.1613 121.824 53.2422 120.29C53.4054 117.194 53.4107 114.072 53.168 110.986C53.1045 110.176 52.0181 109.037 51.1809 108.788C50.3329 108.535 49.4339 108.453 48.5178 108.407L47.4125 108.359C47.0428 108.344 46.6725 108.325 46.3038 108.295V123.247C47.7303 123.172 49.0845 123.175 50.4181 123.012ZM46.3117 146.124L47.2425 146.074L49.0703 145.993C49.9736 145.947 50.8613 145.88 51.7362 145.735C53.4227 145.455 54.604 144.274 54.6875 142.555C54.8331 139.555 54.8539 136.536 54.6799 133.54C54.5747 131.731 53.367 130.477 51.5112 130.225C50.6753 130.111 49.8311 130.058 48.968 130.022L47.2136 129.956C46.916 129.944 46.6155 129.931 46.3117 129.915V146.124ZM57.3053 126.345C61.4108 128.393 62.7324 131.836 62.6568 136.018L62.6451 136.425C62.6232 136.987 62.6184 137.551 62.6197 138.116L62.6308 139.811C62.6369 141.223 62.6122 142.629 62.3846 144.002C61.5116 149.269 57.2771 152.71 51.9065 152.818C48.6871 152.883 45.4648 152.853 42.2442 152.824C40.0393 152.804 38.5571 151.358 38.5542 149.158C38.5357 134.534 38.5378 119.909 38.5524 105.285C38.5542 103.302 39.8037 101.672 41.6347 101.647L44.2352 101.609C47.2728 101.569 50.3177 101.573 53.3119 101.934C58.1319 102.513 61.0454 106.117 61.1957 110.986C61.2784 113.664 61.2807 116.349 61.1969 119.028C61.1075 121.882 59.7892 124.158 57.6498 126.049L57.3053 126.345ZM138.347 130.38H129.746L129.751 141.904C129.75 144.447 129.748 146.981 129.741 149.515C129.732 152.736 126.511 154.522 123.72 152.883C122.278 152.037 121.928 150.688 121.931 149.137L121.939 138.237L121.937 127.337C121.937 119.924 121.926 112.511 121.943 105.098C121.949 102.432 123.435 100.959 125.99 101.001C128.228 101.037 129.732 102.524 129.74 104.79L129.75 112.983L129.746 122.879H138.27L138.33 121.778C138.338 121.592 138.344 121.405 138.344 121.218L138.342 110.392C138.344 108.587 138.347 106.783 138.356 104.978C138.369 102.424 139.874 100.977 142.374 101.001C144.644 101.023 146.141 102.47 146.15 104.742L146.161 110.107L146.157 120.836L146.156 149.22C146.155 151.964 144.784 153.428 142.245 153.417C139.744 153.407 138.356 151.907 138.351 149.163L138.345 140.677L138.347 130.38ZM105.998 151.182L104.153 151.072L104.15 151.124H103.127C101.231 151.125 100.422 151.822 99.7739 154.01C99.1989 155.953 99.6737 157.671 101.038 158.585C103.054 159.937 107.272 159.646 109.003 157.975C110.212 156.808 110.645 155.38 110.175 153.713C109.708 152.058 108.477 151.433 106.917 151.262L105.998 151.182ZM108.045 128.234H108.04L108.064 126.191C108.071 125.51 108.067 124.83 108.023 124.152C107.889 122.075 106.608 120.902 104.642 120.916C102.703 120.93 101.404 122.142 101.34 124.229C101.258 126.9 101.257 129.577 101.34 132.248C101.405 134.327 102.717 135.55 104.647 135.564C106.648 135.577 107.926 134.336 108.033 132.171C108.066 131.516 108.069 130.86 108.064 130.204L108.045 128.234ZM113.674 120.413C115.174 122.067 115.441 123.979 115.399 125.97L115.388 126.344C115.367 126.895 115.359 127.448 115.355 128.002L115.346 129.663C115.332 131.047 115.285 132.424 115.054 133.77C114.229 138.586 110.312 141.663 105.428 141.707L103.992 141.712L101.281 141.709L101.264 141.905L101.156 142.617C101.1 143.041 101.083 143.486 101.27 143.817C101.588 144.382 102.574 144.791 103.305 144.859C104.951 145.01 106.62 144.904 108.28 144.911C114.671 144.936 118.612 149.585 117.612 155.914C116.856 160.7 113.644 163.936 108.383 165.028C105.047 165.721 101.677 165.662 98.3758 164.778C92.4 163.179 90.1556 156.699 94.0144 152.217C94.341 151.838 94.7195 151.503 95.1259 151.168L95.9689 150.485C96.1132 150.367 96.2589 150.245 96.4051 150.118C94.4502 148.748 93.6249 146.833 93.8216 144.475C94.0138 142.174 95.2472 140.501 97.1752 139.11C94.1539 136.126 93.77 132.401 93.9745 128.505L94.009 127.63L94.045 125.873C94.0699 124.703 94.1178 123.536 94.3139 122.395C95.0551 118.081 98.5036 115.21 102.836 114.771L103.232 114.737C106.676 114.509 110.105 114.035 113.54 113.669C113.831 113.638 114.121 113.594 114.412 113.572C116.964 113.384 118.027 114.112 118.273 116.213C118.548 118.569 117.556 119.848 115.118 120.262C114.949 120.291 114.778 120.311 114.597 120.329L113.674 120.413ZM209.436 134.288C209.436 130.826 209.359 127.362 209.474 123.904C209.519 122.55 208.906 121.95 207.819 121.534C205.298 120.57 203.323 121.91 203.31 124.672C203.282 131.01 203.293 137.348 203.315 143.686C203.317 144.307 203.422 144.958 203.628 145.542C204.086 146.834 205.442 147.45 207.003 147.171C208.766 146.856 209.434 146.134 209.435 144.526L209.436 134.288ZM209.539 150.337C208.016 152.384 206.177 153.64 203.707 153.705C199.074 153.828 195.852 150.861 195.808 146.217C195.731 138.119 195.749 130.02 195.806 121.922C195.826 119.188 196.775 116.788 199.423 115.545C202.212 114.236 205.01 114.387 207.653 116.047C207.897 116.2 208.125 116.379 208.363 116.58L209.136 117.253C209.232 117.335 209.331 117.42 209.436 117.506L209.437 105.036C209.44 102.347 210.662 101.015 213.128 101C215.66 100.986 216.947 102.338 216.948 105.083C216.956 119.329 216.952 133.574 216.952 147.82L216.958 149.088C216.957 149.299 216.954 149.511 216.947 149.722C216.884 151.708 215.855 153.082 214.227 153.38C212.166 153.757 210.648 152.978 209.819 151.112L209.768 150.989L209.539 150.337ZM81.2192 150.363C79.3038 153.569 76.3666 154.174 73.0719 153.532C69.8194 152.897 67.6796 150.215 67.6424 146.484C67.5492 137.119 67.5891 127.752 67.6193 118.386C67.6254 116.496 68.9846 115.186 70.834 115.054C73.1751 114.888 74.6775 115.916 75.0274 117.965C75.0945 118.358 75.1099 118.761 75.1136 119.164L75.1218 142.103C75.1221 142.736 75.1447 143.371 75.1983 144.001C75.394 146.308 76.7678 147.273 79.0011 146.683C80.2559 146.351 80.9546 145.731 80.9426 144.232C80.8757 135.842 80.9033 127.451 80.9153 119.061C80.9188 116.49 82.2076 115.088 84.528 115.052C87.0552 115.012 88.4216 116.339 88.4237 118.89C88.4316 129.037 88.4275 139.183 88.4266 149.33C88.4266 151.771 87.6445 153.029 85.9199 153.372C83.5946 153.835 82.1643 152.949 81.2192 150.363ZM165.561 130.456L165.567 129.421L165.594 127.399C165.61 126.07 165.61 124.772 165.523 123.481C165.411 121.832 164.326 121.015 162.809 121.022C161.383 121.028 160.177 121.865 160.077 123.339C159.997 124.512 159.986 125.69 159.996 126.875L160.026 129.256C160.031 129.655 160.034 130.055 160.034 130.456H165.561ZM159.957 136.439L159.952 137.861L159.934 140.627C159.928 141.989 159.934 143.326 159.981 144.662C160.045 146.511 161.174 147.533 162.83 147.525C164.518 147.517 165.546 146.52 165.739 144.696C165.765 144.454 165.764 144.21 165.771 143.966C165.844 141.497 166.998 140.329 169.345 140.349C171.662 140.37 172.844 141.608 172.871 144.044C172.937 149.878 169.197 153.699 163.342 153.691C161.941 153.689 160.497 153.613 159.147 153.275C155.171 152.28 152.681 149.424 152.529 144.861C152.296 137.903 152.267 130.92 152.589 123.967C152.917 116.852 158.372 113.885 165.016 114.92C169.967 115.69 172.89 119.243 173.061 124.384C173.121 126.195 173.127 128.008 173.113 129.822L173.069 133.449C173.043 135.429 171.949 136.43 169.911 136.437L165.986 136.442L159.957 136.439ZM185.625 118.766C186.254 115.951 187.9 114.808 190.553 115.045C192.65 115.233 193.683 116.519 193.63 119.015C193.581 121.308 192.385 122.705 190.388 122.713C189.955 122.714 189.52 122.658 189.086 122.591L188.22 122.453C186.578 122.215 186.012 122.688 186.011 124.333C186.01 132.769 186.02 141.206 186.006 149.642C186.001 152.551 183.499 154.231 180.764 153.205C179.167 152.606 178.497 151.443 178.496 149.202C178.492 139.254 178.492 129.306 178.496 119.358C178.497 116.858 179.352 115.617 181.225 115.364C183.744 115.022 184.834 115.812 185.625 118.766Z" fill="white"/>
<path d="M231.694 148.847C231.675 151.578 229.788 153.425 227.058 153.385C224.445 153.347 222.645 151.457 222.655 148.761C222.664 146.028 224.533 144.209 227.29 144.25C229.929 144.289 231.712 146.151 231.694 148.847Z" fill="#86BAD3"/>
</g>
<defs>
<clipPath id="clip0_1_1443">
<rect width="256" height="256" fill="white"/>
</clipPath>
</defs>
</svg>
