<svg width="512" height="110" viewBox="0 0 512 110" fill="none" xmlns="http://www.w3.org/2000/svg">
<g clip-path="url(#clip0_1_1468)">
<path d="M96.1559 30.9202C96.1608 35.5331 95.1335 40.087 93.1479 44.2486C91.1623 48.4103 88.2691 52.0747 84.6818 54.9711L2.17928 8.12144C1.86421 7.94092 1.5721 7.72431 1.3079 7.47323C0.894359 7.0679 0.566154 6.5838 0.341333 6.05046C0.116513 5.51549 0 4.94113 0 4.36185C0 3.20492 0.459487 2.09559 1.27672 1.27836C2.09395 0.459487 3.20328 0 4.36021 0H65.2505C73.4474 0 81.3079 3.25744 87.104 9.05682C92.9001 14.8546 96.1559 22.72 96.1559 30.9202Z" fill="#18B4F4"/>
<path d="M96.1559 79.0202C96.1575 83.0817 95.3583 87.1039 93.8059 90.8553C92.2535 94.6083 89.9774 98.0184 87.1073 100.89C84.2371 103.762 80.8287 106.04 77.0789 107.594C73.3292 109.149 69.3087 109.949 65.2504 109.949H4.36018C3.497 109.939 2.6568 109.675 1.94459 109.187C1.23403 108.7 0.681004 108.012 0.361004 107.211C0.0393628 106.411 -0.0377654 105.533 0.141106 104.687C0.318337 103.844 0.741722 103.071 1.35875 102.467C1.6049 102.221 1.88059 102.006 2.17926 101.827L34.6486 83.3903L84.6753 54.9775C88.2609 57.8739 91.154 61.5367 93.1413 65.6967C95.1286 69.8567 96.1575 74.4106 96.1559 79.0202Z" fill="#FD6B3C"/>
<path d="M84.6819 54.971L34.6486 83.3903L2.18095 101.827C1.86915 102.001 1.58033 102.213 1.32269 102.461C13.7026 89.7575 20.6244 72.7121 20.6097 54.971C20.6326 37.2266 13.7124 20.178 1.32926 7.47314C1.59346 7.72422 1.88556 7.94084 2.20228 8.12135L84.6819 54.971Z" fill="#A97FF2"/>
<path d="M163.776 40.3215C178.04 40.3215 186.099 51.72 186.099 65.5276C186.099 79.3335 178.04 90.6451 163.776 90.6451C156.363 90.6451 150.695 87.6798 147.563 82.6484L146.27 89.5112H137.346V23.2646H148.391V47.729C151.079 43.6216 156.363 40.3215 163.776 40.3215ZM161.551 80.9106C169.887 80.9106 175.074 74.1496 175.074 65.5276C175.074 56.7235 169.887 50.0478 161.551 50.0478C153.216 50.0478 148.021 56.7087 148.021 65.5276C148.021 74.1561 153.122 80.9106 161.551 80.9106ZM224.912 69.7007V41.4406H235.935V69.1411C235.935 81.4997 230.29 90.6451 214.723 90.6451C199.158 90.6451 193.511 81.4702 193.511 69.1411V41.4406H204.536V69.7007C204.536 77.2035 208.053 80.9106 214.709 80.9106C221.366 80.9106 224.912 77.2035 224.912 69.7007ZM244.757 26.609C244.721 25.6408 244.885 24.6759 245.24 23.775C245.594 22.8741 246.131 22.0552 246.817 21.3725C247.503 20.6899 248.323 20.1565 249.226 19.8053C250.128 19.4558 251.095 19.2966 252.062 19.3393C256.248 19.3393 259.262 22.3555 259.262 26.6451C259.262 30.9348 256.248 33.7491 252.062 33.7491C247.875 33.7491 244.757 30.7904 244.757 26.609ZM441.431 26.609C441.393 25.6441 441.557 24.6825 441.909 23.7832C442.261 22.8856 442.795 22.0683 443.477 21.3873C444.16 20.7046 444.976 20.1697 445.873 19.8168C446.773 19.4657 447.734 19.3016 448.697 19.3393C452.884 19.3393 455.9 22.3555 455.9 26.6451C455.9 30.9348 452.884 33.7491 448.697 33.7491C444.511 33.7491 441.431 30.7904 441.431 26.609ZM427.486 75.5461C431.672 75.5461 434.686 78.5623 434.686 82.8158C434.686 87.0694 431.672 89.9264 427.486 89.9264C423.299 89.9264 420.219 87.0037 420.219 82.8158C420.181 81.8509 420.342 80.8892 420.695 79.99C421.046 79.0907 421.581 78.2734 422.262 77.5908C422.945 76.9081 423.762 76.3731 424.66 76.022C425.559 75.6691 426.521 75.5083 427.486 75.5461ZM423.721 40.9746L425.291 41.0698V51.3508C424.463 51.2343 423.627 51.1719 422.791 51.1604C415.009 51.1604 410.379 55.24 410.379 64.5085V89.5342H399.355V41.4406H408.258L409.543 48.1081C411.302 45.0542 415.357 40.9746 423.721 40.9746ZM246.502 41.4341H257.526V89.5342H246.502V41.4341ZM268.551 89.5342V23.2646H279.573V89.5489L268.551 89.5342ZM325.058 23.2646H336.082V89.5489H327.179L325.886 82.6845C322.834 87.6946 317.166 90.6829 309.681 90.6829C295.503 90.6829 287.444 79.2827 287.444 65.5637C287.444 51.8447 295.503 40.3576 309.681 40.3576C317.181 40.3576 322.37 43.6872 325.058 47.7651V23.2646ZM311.977 50.0626C303.642 50.0626 298.453 56.7366 298.453 65.5424C298.453 74.1643 303.642 80.9253 311.977 80.9253C320.312 80.9253 325.501 74.1643 325.501 65.5424C325.516 56.7087 320.422 50.0478 311.992 50.0478L311.977 50.0626ZM389.901 76.3748C386.478 84.9902 378.506 90.6451 368.041 90.6451C353.508 90.6451 344.061 79.798 344.061 65.4324C344.061 51.4378 353.697 40.3215 367.962 40.3215C382.228 40.3215 391.586 51.1604 391.586 65.2503C391.632 66.4006 391.532 67.551 391.289 68.6751H354.888C355.717 76.2796 360.63 81.1879 368.318 81.1879C373.601 81.1879 377.954 78.5918 379.989 73.7787L389.901 76.3748ZM355.07 60.5258H380.642C379.712 53.8517 375.084 49.3077 367.947 49.3077C360.811 49.3077 356.183 53.9452 355.07 60.5258ZM443.175 41.4341H454.198V89.5342H443.175V41.4341ZM462.069 65.5276C462.069 51.9973 471.705 40.3215 486.987 40.3215C502.27 40.3215 512 51.9973 512 65.5276C512 79.0579 502.372 90.6451 486.987 90.6451C471.603 90.6451 462.069 79.0579 462.069 65.5276ZM486.987 80.9106C495.053 80.9106 500.976 74.7961 500.976 65.5276C500.976 56.2575 495.053 50.0495 486.987 50.0495C478.92 50.0495 473.078 56.1623 473.078 65.5276C473.078 74.8913 479.022 80.9106 486.987 80.9106Z" fill="black"/>
</g>
<defs>
<clipPath id="clip0_1_1468">
<rect width="512" height="110" fill="white"/>
</clipPath>
</defs>
</svg>
