<svg width="256" height="293" viewBox="0 0 256 293" fill="none" xmlns="http://www.w3.org/2000/svg">
<g clip-path="url(#clip0_1_1463)">
<path d="M256 82.3202C256.013 94.6014 253.278 106.725 247.992 117.805C242.705 128.885 235.003 138.641 225.452 146.352L5.802 21.622C4.96315 21.1415 4.18548 20.5648 3.48207 19.8963C2.38109 18.8172 1.5073 17.5283 0.908746 16.1084C0.310197 14.6841 0 13.155 0 11.6127C0 8.5326 1.22331 5.57918 3.39906 3.40343C5.57481 1.22331 8.52823 0 11.6084 0H173.719C195.542 0 216.469 8.67241 231.901 24.1124C247.332 39.5479 256 60.4884 256 82.3202Z" fill="#18B4F4"/>
<path d="M256 210.379C256.004 221.192 253.877 231.901 249.744 241.888C245.611 251.88 239.551 260.959 231.909 268.604C224.268 276.25 215.194 282.314 205.211 286.452C195.228 290.593 184.524 292.721 173.719 292.721H11.6084C9.31027 292.695 7.07336 291.991 5.17722 290.694C3.28546 289.396 1.81312 287.566 0.961166 285.434C0.104847 283.301 -0.100494 280.964 0.375724 278.714C0.847573 276.468 1.97477 274.411 3.6175 272.803C4.27285 272.147 5.00683 271.575 5.80199 271.099L92.2465 222.014L225.435 146.369C234.981 154.08 242.683 163.832 247.974 174.907C253.265 185.983 256.004 198.107 256 210.379Z" fill="#FD6B3C"/>
<path d="M225.452 146.352L92.2465 222.014L5.80637 271.099C4.97626 271.562 4.20732 272.126 3.52139 272.786C36.4809 238.966 54.9092 193.585 54.8699 146.352C54.9311 99.1103 36.5071 53.7211 3.53887 19.8965C4.24227 20.5649 5.01995 21.1416 5.86316 21.6222L225.452 146.352Z" fill="#A97FF2"/>
</g>
<defs>
<clipPath id="clip0_1_1463">
<rect width="256" height="293" fill="white"/>
</clipPath>
</defs>
</svg>
