<svg width="256" height="225" viewBox="0 0 256 225" fill="none" xmlns="http://www.w3.org/2000/svg">
<g clip-path="url(#clip0_1_1492)">
<path d="M228.747 65.5879C228.229 65.037 227.678 64.4861 227.127 63.9676C226.576 63.4491 226.058 62.8658 225.507 62.3474C224.956 61.8289 224.438 61.2456 223.887 60.7271C223.336 60.2086 222.817 59.6253 222.266 59.1069C221.715 58.5884 221.197 58.0051 220.646 57.4866C220.095 56.9681 219.577 56.3848 219.026 55.8663C218.475 55.3479 217.956 54.7646 217.406 54.2461C233.479 70.0427 242.687 91.5322 243.038 114.066C243.038 167.761 188.533 211.443 121.519 211.443C83.9939 211.443 50.4223 197.736 28.0952 176.251L29.7155 177.871L31.3357 179.492L32.956 181.112L34.5762 182.732L36.1965 184.352L37.8167 185.973L39.437 187.593C61.7317 209.985 96.0486 224.405 134.481 224.405C201.495 224.405 256 180.723 256 127.19C256 104.312 246.149 82.6329 228.747 65.5879Z" fill="black"/>
<path d="M234.937 114.066C234.937 163.354 184.158 203.309 121.519 203.309C58.8801 203.309 8.10132 163.354 8.10132 114.066C8.10132 83.5077 27.5444 56.5142 57.4218 40.5061C87.2993 24.498 105.9 8.10107 121.519 8.10107C137.138 8.10107 150.489 21.4844 185.616 40.5061C215.494 56.5142 234.937 83.5077 234.937 114.066Z" fill="#FBF0DF"/>
<path d="M234.937 114.066C234.921 107.734 234.049 101.434 232.344 95.3359C223.498 203.245 91.8683 208.43 40.1174 176.154C63.3811 194.186 92.089 203.762 121.519 203.31C184.061 203.31 234.937 163.289 234.937 114.066Z" fill="#F6DECE"/>
<path d="M77.8694 34.576C92.3545 25.8915 111.603 9.59171 130.528 9.5593C127.616 8.61826 124.579 8.12653 121.519 8.10107C113.677 8.10107 105.317 12.1517 94.7849 18.2439C91.1231 20.3826 87.3317 22.7482 83.3135 25.2109C75.7631 29.8773 67.1109 35.1593 57.3894 40.4413C26.5398 57.1299 8.10132 84.6418 8.10132 114.066C8.10132 115.362 8.10132 116.658 8.10132 117.922C27.7388 48.5426 63.4168 43.2606 77.8694 34.576Z" fill="#FFFEFC"/>
<path d="M112.186 16.2997C112.278 31.7831 105.617 46.5376 93.9422 56.7088C93.0348 57.5189 93.7478 59.0744 94.9143 58.6207C105.835 54.3756 120.579 41.6728 114.357 16.0404C114.098 14.5822 112.186 14.9711 112.186 16.2997ZM119.542 16.2997C127.566 29.3916 129.472 45.3351 124.759 59.9493C124.371 61.0835 125.764 62.0556 126.542 61.1159C133.638 52.0425 139.828 34.0252 121.292 14.5822C120.352 13.7397 118.894 15.0359 119.542 16.1701V16.2997ZM128.486 15.7488C141.049 24.6429 149.145 38.5416 150.683 53.8571C150.615 54.4237 151.004 54.944 151.567 55.0392C152.129 55.1345 152.668 54.7711 152.79 54.2136C155.771 42.9042 154.086 23.6232 129.555 13.6101C128.259 13.0916 127.417 14.8414 128.486 15.6192V15.7488ZM68.6662 49.4501C83.6039 44.9874 95.9395 34.3838 102.594 20.2855C103.178 19.1189 105.025 19.5726 104.733 20.8688C99.127 46.7928 80.3645 52.2045 68.6986 51.4916C67.4673 51.524 67.4997 49.8065 68.6662 49.4501Z" fill="#CCBEA7"/>
<path d="M121.519 211.443C54.5053 211.443 0 167.761 0 114.066C0 81.6608 20.0263 51.4268 53.5656 33.3124C63.2871 28.1276 71.6152 22.9104 79.0359 18.3413C83.119 15.8137 86.9752 13.4481 90.7018 11.2446C102.076 4.5043 111.797 0 121.519 0C131.241 0 139.731 3.88861 150.359 10.1752C153.6 12.0223 156.84 14.0314 160.308 16.2349C168.377 21.2253 177.483 26.8638 189.472 33.3124C223.012 51.4268 243.038 81.6284 243.038 114.066C243.038 167.761 188.533 211.443 121.519 211.443ZM121.519 8.10127C113.677 8.10127 105.316 12.1519 94.7848 18.2441C91.123 20.3828 87.3316 22.7484 83.3134 25.2111C75.763 29.8775 67.1109 35.1595 57.3894 40.4415C26.5397 57.1301 8.10127 84.642 8.10127 114.066C8.10127 163.289 58.9772 203.342 121.519 203.342C184.061 203.342 234.937 163.289 234.937 114.066C234.937 84.642 216.498 57.1301 185.616 40.5063C173.367 34.0253 163.808 27.9332 156.063 23.1372C152.531 20.9661 149.29 18.957 146.341 17.1747C136.523 11.3418 129.361 8.10127 121.519 8.10127Z" fill="black"/>
<path d="M144.365 137.722C142.909 143.684 139.595 149.029 134.902 152.985C131.379 156.4 126.818 158.544 121.94 159.077C116.916 158.628 112.195 156.479 108.557 152.985C103.912 149.01 100.645 143.667 99.2244 137.722C99.1289 137.006 99.3699 136.287 99.877 135.774C100.384 135.26 101.1 135.01 101.817 135.097H141.805C142.516 135.021 143.222 135.276 143.722 135.788C144.221 136.3 144.458 137.013 144.365 137.722Z" fill="#B71422"/>
<path d="M108.557 153.243C112.188 156.74 116.892 158.909 121.908 159.4C126.913 158.902 131.604 156.733 135.226 153.243C136.385 152.164 137.468 151.005 138.467 149.776C134.432 145.199 128.687 142.49 122.589 142.291C116.035 142.446 109.976 145.814 106.386 151.299C107.131 151.98 107.779 152.628 108.557 153.243Z" fill="#FF6164"/>
<path d="M109.075 150.684C112.33 146.476 117.334 143.992 122.653 143.943C127.506 144.086 132.13 146.04 135.615 149.42C136.36 148.61 137.073 147.767 137.754 146.925C133.631 142.998 128.183 140.766 122.491 140.67C116.332 140.724 110.519 143.529 106.645 148.318C107.411 149.15 108.223 149.94 109.075 150.684Z" fill="black"/>
<path d="M121.811 161.021C116.411 160.548 111.329 158.264 107.39 154.54C102.374 150.297 98.8436 144.564 97.3125 138.175C97.0901 137.023 97.3997 135.832 98.155 134.935C99.0549 133.848 100.406 133.238 101.817 133.282H141.805C143.212 133.252 144.558 133.86 145.466 134.935C146.215 135.836 146.513 137.028 146.277 138.175C144.745 144.564 141.215 150.297 136.199 154.54C132.268 158.257 127.199 160.541 121.811 161.021ZM101.817 137.041C101.298 137.041 101.169 137.268 101.136 137.333C102.506 142.873 105.605 147.833 109.983 151.494C113.184 154.648 117.347 156.643 121.811 157.165C126.263 156.649 130.421 154.679 133.639 151.558C138.003 147.891 141.09 142.933 142.453 137.397C142.309 137.186 142.058 137.074 141.805 137.106L101.817 137.041Z" fill="black"/>
<path d="M170.84 139.731C181.309 139.731 189.796 134.74 189.796 128.583C189.796 122.427 181.309 117.436 170.84 117.436C160.37 117.436 151.883 122.427 151.883 128.583C151.883 134.74 160.37 139.731 170.84 139.731Z" fill="#FEBBD0"/>
<path d="M72.7494 139.731C83.2191 139.731 91.7064 134.74 91.7064 128.583C91.7064 122.427 83.2191 117.436 72.7494 117.436C62.2798 117.436 53.7925 122.427 53.7925 128.583C53.7925 134.74 62.2798 139.731 72.7494 139.731Z" fill="#FEBBD0"/>
<path d="M81.6609 124.111C88.8856 124.124 95.4062 119.782 98.18 113.111C100.954 106.44 99.4343 98.7553 94.3303 93.6421C89.2263 88.5288 81.544 86.9952 74.8679 89.757C68.1919 92.5187 63.8381 99.0314 63.8381 106.256C63.8381 116.105 71.8124 124.093 81.6609 124.111ZM161.928 124.111C169.162 124.164 175.712 119.847 178.516 113.179C181.321 106.512 179.826 98.8106 174.729 93.6771C169.633 88.5436 161.943 86.9921 155.255 89.748C148.567 92.5039 144.203 99.0226 144.203 106.256C144.185 116.074 152.11 124.058 161.928 124.111Z" fill="black"/>
<path d="M76.152 107.391C78.868 107.404 81.3238 105.778 82.3723 103.272C83.4208 100.767 82.8549 97.8761 80.939 95.951C79.0232 94.0258 76.1355 93.446 73.625 94.4823C71.1144 95.5186 69.4766 97.9666 69.4766 100.683C69.4766 104.375 72.46 107.373 76.152 107.391ZM156.419 107.391C159.135 107.404 161.591 105.778 162.64 103.272C163.688 100.767 163.122 97.8761 161.206 95.951C159.291 94.0258 156.403 93.446 153.892 94.4823C151.382 95.5186 149.744 97.9666 149.744 100.683C149.744 104.35 152.688 107.337 156.355 107.391H156.419Z" fill="white"/>
</g>
<defs>
<clipPath id="clip0_1_1492">
<rect width="256" height="225" fill="white"/>
</clipPath>
</defs>
</svg>
