<svg width="256" height="288" viewBox="0 0 256 288" fill="none" xmlns="http://www.w3.org/2000/svg">
<g clip-path="url(#clip0_1_1536)">
<path d="M255.987 84.5905C255.985 79.7526 254.95 75.4776 252.858 71.8086C250.803 68.2007 247.724 65.1768 243.596 62.7859C209.515 43.1348 175.401 23.5438 141.332 3.8727C132.147 -1.42996 123.241 -1.23664 114.124 4.14214C100.559 12.1422 32.6433 51.0527 12.4053 62.7749C4.07065 67.5998 0.0150245 74.9838 0.0130213 84.5815C0 124.101 0.0130213 163.62 0 203.14C0 207.872 0.992621 212.064 2.99289 215.678C5.04924 219.395 8.17034 222.502 12.3942 224.947C32.6333 236.669 100.558 275.576 114.12 283.578C123.241 288.96 132.147 289.152 141.335 283.848C175.405 264.176 209.521 244.586 243.607 224.935C247.831 222.491 250.952 219.382 253.008 215.668C255.005 212.054 256 207.862 256 203.129C256 203.129 256 124.111 255.987 84.5905Z" fill="#649AD2"/>
<path d="M128.392 143.476L2.99292 215.677C5.04928 219.395 8.17037 222.502 12.3943 224.947C32.6333 236.669 100.558 275.576 114.12 283.578C123.241 288.96 132.147 289.152 141.335 283.848C175.405 264.176 209.521 244.586 243.607 224.935C247.831 222.491 250.952 219.382 253.008 215.667L128.392 143.476Z" fill="#004482"/>
<path d="M91.25 164.863C98.5469 177.601 112.264 186.193 128 186.193C143.833 186.193 157.628 177.492 164.888 164.617L128.392 143.476L91.25 164.863Z" fill="#1A4674"/>
<path d="M255.987 84.5905C255.985 79.7526 254.95 75.4776 252.858 71.8086L128.392 143.476L253.008 215.667C255.005 212.054 255.998 207.862 256 203.129C256 203.129 256 124.111 255.987 84.5905Z" fill="#01589C"/>
<path d="M249.135 148.636H239.397V158.376H229.657V148.636H219.92V138.899H229.657V129.161H239.397V138.899H249.135V148.636ZM128 58.8477C159.135 58.8477 186.358 75.5877 201.169 100.556L201.614 101.315L164.613 122.622C157.28 110.013 143.634 101.528 128 101.528C104.621 101.528 85.6668 120.481 85.6668 143.86C85.6668 151.506 87.7051 158.673 91.2499 164.863C98.5468 177.602 112.264 186.194 128 186.194C143.659 186.194 157.325 177.683 164.646 165.04L164.888 164.617L201.834 186.023C187.186 211.62 159.606 228.874 128 228.874C96.4514 228.874 68.9154 211.689 54.2455 186.168C47.0838 173.708 42.9861 159.264 42.9861 143.86C42.9861 96.9098 81.0472 58.8477 128 58.8477ZM203.865 129.161V138.899H213.602V148.636H203.865V158.376H194.127V148.636H184.389V138.899H194.127V129.161H203.865Z" fill="white"/>
</g>
<defs>
<clipPath id="clip0_1_1536">
<rect width="256" height="288" fill="white"/>
</clipPath>
</defs>
</svg>
