<svg width="256" height="256" viewBox="0 0 256 256" fill="none" xmlns="http://www.w3.org/2000/svg">
<g clip-path="url(#clip0_1_1543)">
<path d="M128 256C198.692 256 256 198.692 256 128C256 57.3075 198.692 0 128 0C57.3075 0 0 57.3075 0 128C0 198.692 57.3075 256 128 256Z" fill="#05930C"/>
<path d="M38.9026 36.0996L219.736 217.266C196.483 241.159 163.974 256 128 256C57.3075 256 0 198.692 0 128C0 91.9409 14.9106 59.3643 38.9026 36.0996Z" fill="white" fill-opacity="0.1"/>
<path d="M121.72 174.2C113.012 178.437 103.397 180.47 93.72 180.12C80.7817 180.687 68.2282 175.642 59.28 166.28C50.3888 156.313 45.7514 143.263 46.36 129.92C45.7342 115.461 50.9862 101.365 60.92 90.8401C70.6308 80.9052 84.076 75.5184 97.96 76.0001C106.071 75.6906 114.158 77.0521 121.72 80.0001V92.6001C114.386 88.5236 106.11 86.441 97.72 86.5601C87.1509 86.2098 76.9449 90.438 69.72 98.1601C62.23 106.698 58.3567 117.816 58.92 129.16C58.366 139.881 61.9777 150.401 69 158.52C75.8133 165.846 85.4837 169.833 95.48 169.44C104.698 169.669 113.797 167.328 121.76 162.68L121.72 174.2ZM211.04 105.84L209.44 113.28H191.04L186.64 134.4H206.4L204.52 141.84H185.16L178.96 169.84H170.12L176.16 141.84H158.56L152.64 169.84H144L149.92 141.84H131.36L132.76 134.4H151.4L155.68 113.32H136.2L137.68 105.88H157.16L163.08 77.6001H172L166.08 105.88H183.8L189.84 77.6001H198.48L192.56 105.88L211.04 105.84ZM182.36 113.28H164.6L160 134.4H177.84L182.36 113.28Z" fill="white"/>
</g>
<defs>
<clipPath id="clip0_1_1543">
<rect width="256" height="256" fill="white"/>
</clipPath>
</defs>
</svg>
