<svg width="512" height="115" viewBox="0 0 512 115" fill="none" xmlns="http://www.w3.org/2000/svg">
<g clip-path="url(#clip0_1_1569)">
<path d="M11.4943 89.8783C30.9154 101.954 45.6984 86.5576 45.6984 86.5576C40.4155 105.434 28.2716 108.874 28.2716 108.874L31.0114 114.349H72.5155L75.2599 108.874C75.2599 108.874 63.1115 105.434 57.8331 86.5531C57.8331 86.5531 72.6116 101.954 92.0326 89.8738C111.454 77.8031 111.248 30.92 51.7635 0C-7.7209 30.9108 -7.92673 77.7985 11.4943 89.8783Z" fill="#3057F4"/>
<path d="M133.743 57.9065C133.743 51.6768 134.731 45.9548 136.702 40.745C138.669 35.5353 141.358 31.062 144.761 27.3205C148.15 23.5922 152.297 20.6321 156.924 18.6391C161.626 16.59 166.712 15.5654 172.173 15.5654C177.012 15.5654 181.403 16.2561 185.346 17.6374C189.284 19.0187 192.687 20.9078 195.555 23.3137C198.447 25.7498 200.842 28.7207 202.608 32.0637C204.485 35.6065 205.821 39.4098 206.574 43.3476H189.641C188.209 39.6107 186.128 36.5782 183.393 34.2683C180.662 31.9493 176.921 30.7921 172.173 30.7921C168.862 30.7921 165.907 31.4599 163.304 32.7955C160.681 34.1539 158.405 36.0977 156.654 38.4764C154.749 41.0674 153.338 43.987 152.491 47.0891C151.519 50.6132 151.044 54.2556 151.078 57.9111C151.078 61.8264 151.549 65.4353 152.491 68.7285C153.429 72.0218 154.819 74.8714 156.654 77.2818C158.433 79.6327 160.702 81.5681 163.304 82.9536C165.902 84.3349 168.862 85.0256 172.178 85.0256C176.921 85.0256 180.662 83.8683 183.393 81.5493C186.128 79.2349 188.209 76.1658 189.641 72.3374H206.574C205.836 76.3215 204.499 80.1707 202.608 83.754C200.832 87.1097 198.412 90.0829 195.487 92.504C192.446 94.9845 188.989 96.9063 185.277 98.1803C181.38 99.5616 177.012 100.252 172.173 100.252C166.712 100.252 161.626 99.2277 156.924 97.1786C152.297 95.1855 148.15 92.2255 144.761 88.4972C141.358 84.7557 138.669 80.2824 136.702 75.0726C134.731 69.8629 133.743 64.1409 133.743 57.9111V57.9065ZM250.781 98.9167V95.7149C249.798 96.6892 247.936 97.6497 245.206 98.5828C242.28 99.5487 239.216 100.023 236.135 99.987C233.221 100.005 230.321 99.5765 227.536 98.7154C224.966 97.9334 222.57 96.6648 220.479 94.9785C218.462 93.3261 216.834 91.2489 215.713 88.8951C214.546 86.4938 213.965 83.7357 213.965 80.6163C213.932 77.9117 214.53 75.2366 215.713 72.8039C216.869 70.454 218.546 68.3986 220.616 66.7938C222.72 65.1471 225.185 63.8527 228.007 62.9196C230.98 61.9608 234.087 61.4866 237.21 61.5154C239.845 61.521 242.466 61.881 245.004 62.5857C247.602 63.2947 249.528 64.0951 250.781 64.987V60.5823C250.781 57.998 249.999 55.8162 248.43 54.037C246.861 52.2531 244.423 51.3658 241.107 51.3658C238.688 51.3658 236.762 51.8552 235.33 52.8294C233.875 53.8367 232.79 55.2919 232.238 56.9735H216.38C216.829 54.3023 217.753 51.8094 219.139 49.495C220.524 47.1806 222.317 45.1498 224.513 43.4162C226.793 41.6352 229.361 40.2583 232.106 39.3454C235.136 38.3389 238.312 37.8413 241.505 37.8726C249.569 37.8726 255.794 39.8989 260.185 43.9514C264.576 48.0039 266.772 53.6345 266.772 60.8476V98.9167H250.777H250.781ZM250.781 78.3476C250.492 77.5134 249.981 76.7736 249.304 76.207C247.649 74.8069 245.658 73.8626 243.527 73.4672C241.083 72.9941 238.57 73.0174 236.135 73.5358C234.925 73.7847 233.765 74.2362 232.705 74.8714C231.725 75.4486 230.897 76.2515 230.29 77.2132C229.696 78.1987 229.394 79.3331 229.421 80.4836C229.421 81.8192 229.709 82.9307 230.29 83.8226C230.871 84.7145 231.68 85.4692 232.709 86.0959C233.769 86.7289 234.927 87.1789 236.135 87.4269C238.57 87.9424 241.083 87.9657 243.527 87.4955C244.689 87.2714 245.768 86.9375 246.752 86.4938C247.735 86.0501 248.586 85.515 249.304 84.8929C250.022 84.2663 250.511 83.5573 250.781 82.7523V78.3476ZM297.006 98.9167H280.343V12.0938H297.006V98.9167ZM328.045 98.9167H311.382V39.2082H328.045V98.9167ZM329.659 21.9781C329.659 24.8277 328.671 27.1192 326.7 28.8573C324.733 30.5954 322.4 31.4645 319.715 31.4645C317.117 31.4645 314.83 30.5954 312.859 28.8573C310.892 27.1192 309.904 24.8277 309.904 21.9781C309.904 19.2154 310.892 16.9696 312.859 15.2315C314.83 13.4934 317.113 12.6243 319.715 12.6243C322.4 12.6243 324.733 13.4934 326.7 15.2315C328.671 16.9696 329.659 19.2154 329.659 21.9781ZM359.221 98.9167H342.558V12.0938H359.221V44.2853C359.847 43.4848 360.698 42.6844 361.773 41.8794C362.879 41.0608 364.073 40.3675 365.331 39.812C366.63 39.2311 368.044 38.7599 369.567 38.4077C371.109 38.0492 372.686 37.8696 374.269 37.8726C378.66 37.8726 382.534 38.6959 385.891 40.3425C389.253 41.9892 392.117 44.2395 394.49 47.0891C396.869 49.9387 398.657 53.2365 399.865 56.9735C401.077 60.715 401.681 64.7675 401.681 69.131C401.708 73.2306 401.095 77.3093 399.865 81.22C398.737 84.8537 396.911 88.2328 394.49 91.1684C392.146 93.995 389.211 96.2743 385.891 97.8464C382.534 99.4473 378.66 100.252 374.269 100.252C372.659 100.252 371.09 100.074 369.567 99.7171C368.114 99.3854 366.696 98.9167 365.331 98.3175C364.083 97.765 362.891 97.0925 361.773 96.3095C360.813 95.66 359.954 94.8742 359.221 93.9768V98.9167ZM359.221 78.8827C360.204 80.9273 361.704 82.5968 363.721 83.8912C365.734 85.1811 368.044 85.826 370.642 85.826C372.883 85.826 374.896 85.4052 376.689 84.559C378.477 83.7128 379.982 82.5556 381.189 81.0828C382.397 79.6191 383.339 77.8582 384.012 75.809C384.7 73.6507 385.039 71.3964 385.018 69.131C385.039 66.8657 384.7 64.6114 384.012 62.4531C383.409 60.5327 382.452 58.7423 381.189 57.1747C378.598 54.0305 374.716 52.2362 370.642 52.2989C368.131 52.2989 365.848 52.9438 363.79 54.2337C361.814 55.4291 360.226 57.1699 359.216 59.2467V78.8827H359.221ZM448.847 55.5052C447.644 54.7772 446.327 54.2576 444.95 53.9684C443.492 53.6544 442.005 53.498 440.514 53.5018C437.737 53.5018 435.299 54.2154 433.195 55.6379C431.087 57.0649 429.719 59.1598 429.092 61.9179V98.9167H412.434V39.2082H429.097V45.0857C430.35 42.9497 432.189 41.2116 434.609 39.876C437.035 38.5384 439.765 37.8485 442.535 37.8726C444.058 37.8726 445.38 37.9824 446.501 38.2065C447.617 38.4306 448.404 38.673 448.852 38.9383V55.5052H448.847ZM511.598 79.4133C510.61 85.7391 507.833 90.7933 503.264 94.576C498.699 98.3587 492.652 100.252 485.124 100.252C480.737 100.252 476.749 99.4976 473.167 97.9836C469.674 96.533 466.535 94.3457 463.964 91.5709C461.352 88.7163 459.32 85.381 457.982 81.7506C456.55 77.9679 455.832 73.7599 455.832 69.1265C455.832 64.5891 456.55 60.4268 457.982 56.6396C459.331 52.9967 461.362 49.6438 463.964 46.7598C466.528 43.9433 469.666 41.7097 473.167 40.2099C476.815 38.6396 480.75 37.8452 484.721 37.8772C489.203 37.8772 493.119 38.609 496.481 40.0772C499.715 41.4579 502.605 43.5333 504.947 46.156C507.229 48.7358 508.977 51.8552 510.184 55.5052C511.396 59.1552 512 63.162 512 67.5256V72.6027H471.955C472.138 74.8302 472.563 76.8336 473.236 78.6129C473.904 80.3967 474.8 81.9061 475.921 83.1548C477.041 84.4035 478.386 85.3366 479.95 85.9586C481.519 86.5853 483.244 86.8963 485.124 86.8963C487.905 86.8963 490.278 86.2697 492.245 85.021C494.217 83.7769 495.516 81.9107 496.142 79.4133H511.598ZM484.858 51.2286C481.889 51.1915 479.013 52.2649 476.794 54.2382C475.678 55.2234 474.746 56.3989 474.041 57.7099C473.227 59.2361 472.66 60.8819 472.362 62.5857H495.74C495.667 61.0644 495.397 59.5591 494.935 58.1078C494.51 56.7701 493.8 55.5404 492.854 54.5035C491.911 53.4783 490.766 52.6592 489.492 52.0976C488.025 51.4873 486.446 51.1913 484.858 51.2286Z" fill="black"/>
</g>
<defs>
<clipPath id="clip0_1_1569">
<rect width="512" height="115" fill="white"/>
</clipPath>
</defs>
</svg>
