<svg width="512" height="98" viewBox="0 0 512 98" fill="none" xmlns="http://www.w3.org/2000/svg">
<g clip-path="url(#clip0_1_1595)">
<path d="M265.149 30.1428C279.036 30.1428 287.152 40.9908 287.152 54.4719C287.152 67.9842 279.036 78.8008 265.149 78.8008C258.402 78.8008 253.48 75.9462 251.002 72.7743V93.4603H238.029V31.2213H249.992V36.8991C252.991 32.6487 258.402 30.1428 265.149 30.1428ZM152.091 17.0496C170.04 17.0496 179.131 29.2346 180.762 39.8253H166.963C165.331 33.4481 159.434 29.0069 151.975 29.0069C142.068 29.0069 134.935 36.8645 134.935 48.0247C134.935 59.0709 142.068 66.9285 151.975 66.9285C159.434 66.9285 165.331 62.4871 166.963 56.1099H180.762C179.131 66.701 170.04 78.8857 152.091 78.8857C134.259 78.8857 121.905 65.1064 121.905 48.0247C121.905 30.8289 134.259 17.0496 152.091 17.0496ZM205.209 30.1428C211.957 30.1428 217.335 32.617 220.367 36.8991V31.2213H232.33V77.7224H220.367V72.0444C217.368 76.2949 211.957 78.8008 205.209 78.8008C191.323 78.8008 183.206 67.9525 183.206 54.4719C183.206 40.9591 191.323 30.1428 205.209 30.1428ZM312.225 30.1428C318.972 30.1428 324.351 32.617 327.382 36.8991V31.2213H339.345V77.7224H327.382V72.0444C324.383 76.2949 318.972 78.8008 312.225 78.8008C298.339 78.8008 290.222 67.9525 290.222 54.4719C290.222 40.9591 298.339 30.1428 312.225 30.1428ZM367.015 30.1428C381.879 30.1428 388.92 40.3566 389.832 48.2547H376.5C375.49 44.2579 371.676 41.3399 366.917 41.3399C359.974 41.3399 355.965 46.6688 355.965 54.4719C355.965 62.275 359.974 67.6039 366.917 67.6039C371.676 67.6039 375.49 64.6855 376.5 60.689H389.832C388.92 68.5872 381.879 78.8008 367.015 78.8008C353.129 78.8008 343.024 68.3333 343.024 54.4719C343.024 40.6103 353.129 30.1428 367.015 30.1428ZM456.871 30.1428C472.19 30.1428 481.971 41.2448 481.971 54.4719C481.971 67.699 472.19 78.8008 456.871 78.8008C441.551 78.8008 431.77 67.699 431.77 54.4719C431.77 41.2448 441.551 30.1428 456.871 30.1428ZM510.452 30.746C510.903 30.746 512 30.8411 512 30.8411V42.6727C512 42.6727 510.647 42.4187 509.485 42.4187C502.012 42.4187 498.111 46.0665 498.111 54.5991V77.7862H485.287V31.1901H497.111V37.2168C498.818 34.4572 502.431 30.746 510.452 30.746ZM423.952 19.6468V31.1927H433.928V41.4699H423.952V77.7573H410.982V19.6468H423.952ZM405.181 31.1905V77.7232H392.207V31.1905H405.181ZM207.947 41.2448C200.743 41.2448 196.18 46.9227 196.18 54.4719C196.18 62.021 200.743 67.699 207.947 67.699C215.151 67.699 219.715 62.021 219.715 54.4719C219.747 46.9227 215.184 41.2448 207.947 41.2448ZM262.411 41.2448C255.207 41.2448 250.643 46.9227 250.643 54.4719C250.611 62.021 255.175 67.699 262.411 67.699C269.615 67.699 274.178 62.021 274.178 54.4719C274.178 46.9227 269.615 41.2448 262.411 41.2448ZM314.963 41.2448C307.759 41.2448 303.196 46.9227 303.196 54.4719C303.196 62.021 307.759 67.699 314.963 67.699C322.167 67.699 326.731 62.021 326.731 54.4719C326.763 46.9227 322.2 41.2448 314.963 41.2448ZM456.871 41.2448C450.024 41.2448 444.745 46.1295 444.745 54.4719C444.745 62.8142 450.024 67.699 456.871 67.699C463.718 67.699 468.996 62.8142 468.996 54.4719C468.996 46.1295 463.718 41.2448 456.871 41.2448ZM398.694 12.1904C403.258 12.1904 406.548 15.3941 406.548 19.8349C406.548 24.2756 403.258 27.3842 398.694 27.3842C394.131 27.3842 390.838 24.2756 390.838 19.8349C390.838 15.3941 394.131 12.1904 398.694 12.1904Z" fill="black"/>
<path d="M15.1858 20.6152L0.118322 35.7017L23.3548 59.0078L0 82.4326L15.0203 97.5256L38.4221 74.0943L61.6972 97.3582L76.7646 82.2717L15.1858 20.6152Z" fill="#53B9FF"/>
<path d="M53.5304 59.0078L38.4226 74.0939L61.6976 97.3582L76.7651 82.2717L53.5304 59.0078Z" fill="#119EFF"/>
<path d="M53.5304 59.0078L38.4226 74.0939L44.2384 79.8775L53.5304 59.0078Z" fill="black" fill-opacity="0.2"/>
<path d="M74.1218 38.4705L97.5238 15.0392L82.4499 0L59.0547 23.3842L35.7778 0.118474L20.7103 15.2049L82.2894 76.8614L97.3568 61.7748L74.1218 38.4705Z" fill="#53B9FF"/>
<path d="M43.9467 38.4712L59.0547 23.3849L35.7778 0.119141L20.7103 15.2056L43.9467 38.4712Z" fill="#119EFF"/>
<path d="M43.9463 38.471L59.0543 23.3847L53.237 17.5996L43.9463 38.471Z" fill="black" fill-opacity="0.2"/>
</g>
<defs>
<clipPath id="clip0_1_1595">
<rect width="512" height="98" fill="white"/>
</clipPath>
</defs>
</svg>
