<svg width="256" height="169" viewBox="0 0 256 169" fill="none" xmlns="http://www.w3.org/2000/svg">
<g clip-path="url(#clip0_1_1632)">
<path d="M30.9 142.2C33.1 142.2 35.1 142.7 36.2 143.7C36.4 145.3 34.9 147.9 34 147.9C32.9 147.5 31.9 147.3 30.6 147.3C25.4 147.3 22.8 152.7 22.8 158C22.8 161.3 23.9 163.3 26.6 163.3C29.4 163.3 32.1999 161.4 33.7999 160C34.1999 160.3 34.7 161.2 34.7 162.2C34.7 163.3 34.4 164.4 33.2999 165.5C31.5 167.3 28.4 168.9 23.9 168.9C18.8 168.9 15.2 166 15.2 159.2C15.4 150.2 21.2 142.2 30.9 142.2Z" fill="#373535"/>
<path d="M47.7 163C50.5 163 55.6 158.1 57 148.7C57.1 148.1 57.1 148 57.2 147.4C56.6 147.2 55.7 147 54.9 147C52.8 147 50.6 147.6 48.7 150.3C46.7 153.1 45.8 156.6 45.8 159.4C45.8 161.7 46.5 163 47.7 163ZM38.5 160.4C38.5 157 39.6 151.2 43.9 146.9C47.6 143.1 52 142.2 56.1 142.2C58.8 142.2 62.4 143.1 64.7 143.5C64.1 146 62.8 155.5 62.1 161C61.8 163.3 61.7 166.6 61.8 167.8C59.9 168.6 56.4 168.8 55.4 168.8C54.9 168.8 54.8 166.5 54.9 164.2C55 163.5 55.1 162.4 55.1 161.9C52.9 165.6 48.5 168.7 43.9 168.7C40.6 168.8 38.5 166 38.5 160.4Z" fill="#373535"/>
<path d="M78.8999 142.2C81.1999 142.2 83.4999 143.1 84.4999 144.1C84.3999 145.7 83.1999 148.4 81.1999 147.6C80.2999 147.3 79.4999 147.1 78.2999 147.1C76.7999 147.1 75.3999 147.8 75.3999 149.2C75.3999 150.3 76.1999 151.1 79.9999 153.8C82.6999 155.8 83.7999 157.6 83.7999 160.1C83.7999 164.3 79.8999 168.8 72.9999 168.8C70.1999 168.8 67.6999 167.7 66.9999 166.6C65.9999 164.9 66.7999 161.5 67.8999 162.1C69.3999 162.8 71.7999 163.6 73.7999 163.6C75.6999 163.6 76.8999 162.7 76.8999 161.6C76.8999 160.6 75.9999 159.8 72.5999 157.3C69.6999 155.1 68.7999 153.1 68.7999 150.9C68.7999 146.1 72.8999 142.2 78.8999 142.2Z" fill="#373535"/>
<path d="M98.5998 142.2C100.9 142.2 103.2 143.1 104.2 144.1C104.1 145.7 102.9 148.4 100.9 147.6C99.9999 147.3 99.1998 147.1 97.9998 147.1C96.4998 147.1 95.0998 147.8 95.0998 149.2C95.0998 150.3 95.8998 151.1 99.6998 153.8C102.4 155.8 103.5 157.6 103.5 160.1C103.5 164.3 99.5998 168.8 92.6998 168.8C89.8998 168.8 87.4998 167.7 86.6998 166.6C85.6998 164.9 86.4998 161.5 87.5998 162.1C89.0998 162.8 91.4998 163.6 93.4998 163.6C95.3998 163.6 96.5998 162.7 96.5998 161.6C96.5998 160.6 95.6999 159.8 92.2999 157.3C89.3999 155.1 88.4998 153.1 88.4998 150.9C88.4998 146.1 92.5998 142.2 98.5998 142.2Z" fill="#373535"/>
<path d="M116.5 163C119.3 163 124.4 158.1 125.8 148.7C125.9 148.1 125.9 148 126 147.4C125.4 147.2 124.5 147 123.7 147C121.6 147 119.4 147.6 117.5 150.3C115.5 153.1 114.6 156.6 114.6 159.4C114.7 161.7 115.3 163 116.5 163ZM107.3 160.4C107.3 157 108.4 151.2 112.7 146.9C116.4 143.1 120.8 142.2 124.9 142.2C127.6 142.2 131.2 143.1 133.5 143.5C132.9 146 131.6 155.5 130.9 161C130.6 163.3 130.5 166.6 130.6 167.8C128.7 168.6 125.2 168.8 124.2 168.8C123.7 168.8 123.6 166.5 123.7 164.2C123.8 163.5 123.9 162.4 123.9 161.9C121.7 165.6 117.3 168.7 112.7 168.7C109.5 168.8 107.3 166 107.3 160.4Z" fill="#373535"/>
<path d="M146.4 149.6C149 145.4 152.4 142.2 157.2 142.2C161.3 142.2 162.6 146 161.8 151.3C161.4 153.8 160.7 157.4 160.3 160.7C159.9 163.5 159.6 166 159.7 167.7C158.2 168.4 153.9 168.7 152.9 168.7C152.5 168.7 152.4 165.6 153 162.3C153.5 159.6 154.4 154.6 154.9 151.7C155.2 150 155.1 148 153.5 148C151.4 148 146.4 151.4 143.9 165.2C143.7 166.3 143.3 167 142.6 167.4C141.7 167.9 139.9 168.4 136.2 168.4C136.9 164.9 138 157.8 138.8 152.5C139.5 147.7 139.8 144.6 139.7 143.4C140.7 143.1 145.8 142 146.3 142C146.9 142 147 143.8 146.5 148C146.4 148.4 146.4 149 146.3 149.4H146.4V149.6Z" fill="#373535"/>
<path d="M175.4 162.9C177.9 162.9 183 158.2 184.4 149.9C184.5 149.4 184.6 148.6 184.7 148.1C184 147.4 183 147 181.4 147C175.6 147 173.1 153.9 173.1 158.9C173.2 161.5 174.1 162.9 175.4 162.9ZM171.7 168.8C168 168.8 165.8 165.5 165.8 160C165.8 150.8 171.6 142.3 181.3 142.3C183 142.3 184.6 142.8 185.5 143.3C186 140.7 187.2 132.6 187.3 130.2C188.9 129.9 192.3 129.4 193.9 129.4C194.5 129.4 194.7 130 194.5 131.5C193.1 140.1 190.7 156.5 190.2 160.1C189.9 163.2 189.8 166.2 189.9 167.9C188.1 168.7 184.4 168.9 183.4 168.9C183 168.9 182.8 166.3 182.9 163.9C183 163.2 183.1 162.1 183.1 161.9C180 166.5 176.1 168.8 171.7 168.8Z" fill="#373535"/>
<path d="M205.1 150.401C208.1 143.701 211.7 142.201 214.1 142.201C214.8 142.201 216 142.701 216.5 143.201C216.7 145.101 215.2 148.801 213.9 150.301C213.2 150.001 212.4 149.601 211.4 149.601C209.5 149.601 205.6 152.601 203.2 165.601C203 166.701 202.7 167.101 202.1 167.401C201.1 168.001 197.3 168.401 195.5 168.501C196.4 163.801 197.8 154.301 198.4 148.701C198.6 147.301 198.6 144.601 198.5 143.601C199.6 143.101 203.9 142.101 204.8 142.101C205.3 142.101 205.7 145.201 204.9 150.301H205.1V150.401Z" fill="#373535"/>
<path d="M225.2 163C228 163 233.1 158.1 234.5 148.7C234.6 148.1 234.6 148 234.7 147.4C234.1 147.2 233.2 147 232.4 147C230.3 147 228.1 147.6 226.2 150.3C224.2 153.1 223.3 156.6 223.3 159.4C223.4 161.7 224 163 225.2 163ZM216 160.4C216 157 217.1 151.2 221.4 146.9C225.1 143.1 229.5 142.2 233.6 142.2C236.3 142.2 239.9 143.1 242.2 143.5C241.6 146 240.3 155.5 239.6 161C239.3 163.3 239.2 166.6 239.3 167.8C237.4 168.6 233.9 168.8 232.9 168.8C232.4 168.8 232.3 166.5 232.4 164.2C232.5 163.5 232.6 162.4 232.6 161.9C230.4 165.6 226 168.7 221.4 168.7C218.2 168.8 216 166 216 160.4Z" fill="#373535"/>
<path d="M205.5 45.4999C207.4 67.3999 172.9 88.2999 128.4 92.0999C83.8999 95.8999 46.3999 81.1999 44.4999 59.2999C42.5999 37.3999 77.0999 16.4999 121.6 12.6999C166 8.89993 203.6 23.4999 205.5 45.4999Z" fill="#BBE6FB"/>
<path d="M122.8 15.2C105.8 14.9 85.9998 21.7 71.1998 28C69.6998 32.4 68.7998 37.1 68.7998 42C68.7998 68 92.2998 89.1 121.3 89.1C150.3 89.1 173.9 68.1 173.9 42C173.9 33.8 171.5 26 167.4 19.3C155.6 17.5 139.3 15.5 122.8 15.2Z" fill="white"/>
<path d="M121.4 15.2004C112 14.6004 95.7999 19.5004 82.2999 24.4004C80.1999 29.2004 79.0999 34.5004 79.0999 40.1004C79.0999 62.9004 99.7999 81.4004 121.6 81.4004C143.3 81.4004 162.5 62.9004 164.1 40.1004C164.6 32.7004 162.1 25.7004 158.5 19.7004C144.6 17.3004 129.8 15.8004 121.4 15.2004Z" fill="white"/>
<path d="M97.2999 37.1999C98.4999 34.5999 100.2 33.3999 101.9 31.2999C101.7 30.7999 101.3 29.0999 101.3 28.5999C101.3 25.9999 103.4 23.9999 105.9 23.9999C106.5 23.9999 107.1 24.0999 107.6 24.2999C115.3 18.3999 125.4 15.8999 135.6 18.1999C136.5 18.3999 137.4 18.6999 138.3 18.8999C128.3 17.4999 116.9 21.0999 109.2 27.2999C109.4 27.8999 110.1 29.3999 110.1 30.0999C110.1 32.6999 108.4 33.2999 105.9 33.2999C105.3 33.2999 104.8 33.1999 104.2 32.9999C102.5 35.2999 100.3 39.7999 99.2999 42.5999C103.6 46.3999 107.4 47.7999 112.4 49.6999C112.4 49.4999 112.6 49.1999 112.6 48.9999C112.6 41.2999 119.4 34.9999 127.1 34.9999C134 34.9999 139.8 39.9999 140.9 46.5999C144.4 44.3999 147.7 42.6999 150.2 39.4999C149.6 38.7999 149 36.6999 149 35.6999C149 33.3999 150.9 31.4999 153.2 31.4999C153.5 31.4999 153.8 31.4999 154.2 31.5999C155.5 28.8999 156.5 26.0999 157.1 23.1999C145 14.1999 121.6 15.4999 121.6 15.4999C121.6 15.4999 103 14.4999 90.3999 20.6999C91.2999 26.4999 93.6999 32.2999 97.2999 37.1999Z" fill="#373535"/>
<path d="M155.1 33.7C156 34.5 156.4 35.1 156.8 35.8C157.9 37.8 155.7 39.7 153.3 39.7C153.1 39.7 152.8 39.7 152.6 39.6C150 43.7 145.4 48.9 141.3 51.6C147.6 52.6 153.5 55.1 158.1 59C161.5 52.9 164.1 44 164.1 36.5C164.1 30.8 161.6 26.6 157.8 23.5C157.7 26.6 156 30.9 155.1 33.7Z" fill="#373535"/>
<path d="M104.3 72.4998C106.4 66.6998 111.5 62.2998 116.4 58.3998C115.7 57.3998 114.6 54.9998 114.2 53.8998C108.3 52.0998 103.1 48.6998 98.9999 44.2998C98.9999 44.3998 98.8999 44.5998 98.8999 44.6998C98.0999 48.0998 97.9999 51.5998 98.3999 54.8998C101.2 55.3998 103.4 57.8998 103.4 60.8998C103.4 62.6998 101.8 65.1998 100.6 66.3998C101.8 68.9998 102.7 70.3998 104.3 72.4998Z" fill="#373535"/>
<path d="M103.9 77.3006C101.4 74.8006 99.6999 69.9006 98.0999 66.8006C97.7999 66.8006 97.4999 66.9006 97.1999 66.9006C93.7999 66.9006 90.2999 64.1006 91.0999 60.8006C91.4999 59.0006 92.7999 57.8006 94.7999 56.8006C94.2999 53.0006 94.1999 47.7006 95.0999 43.8006C95.2999 42.7006 95.8999 42.2006 96.1999 41.1006C92.4999 35.7006 90.0999 28.5006 90.0999 21.4006V20.6006C83.7999 23.8006 79.0999 28.7006 79.0999 36.5006C79.0999 53.8006 89.0999 70.8006 103.9 77.4006V77.3006Z" fill="#373535"/>
<path d="M140.4 53.4004C138.5 58.8004 133.3 62.8004 127.2 62.8004C123.9 62.8004 120.9 61.7004 118.6 59.8004C113.7 63.6004 109.2 70.3004 107 76.2004C108 77.3004 108.7 78.2004 109.9 79.2004C113.3 80.1004 118.1 79.2004 121.8 79.2004C136.7 79.2004 150 72.6004 157.6 60.9004C152.4 57.3004 146.4 53.9004 140.4 53.4004Z" fill="#373535"/>
<path d="M96.9 39.2001C98.1 36.6001 99.5 34.3001 101.2 32.1001C101 31.6001 100.9 31.0001 100.9 30.5001C100.9 27.9001 103 25.9001 105.5 25.9001C106.1 25.9001 106.7 26.0001 107.2 26.2001C114.9 20.3001 125 17.8001 135.2 20.1001C136.1 20.3001 137 20.6001 137.9 20.8001C127.9 19.4001 117.5 22.5001 109.8 28.7001C110 29.3001 110.2 29.9001 110.2 30.5001C110.2 33.1001 108.1 35.1001 105.6 35.1001C105 35.1001 104.5 35.0001 103.9 34.8001C102.2 37.1001 100.7 39.7001 99.7 42.5001C103.4 46.4001 107.9 49.6001 112.9 51.4001V50.7001C112.9 43.0001 119.2 36.7001 126.9 36.7001C133.8 36.7001 139.6 41.7001 140.7 48.3001C144.2 46.1001 147.2 43.3001 149.8 40.0001C149.2 39.3001 148.8 38.4001 148.8 37.4001C148.8 35.1001 150.7 33.2001 153 33.2001C153.3 33.2001 153.6 33.2001 154 33.3001C155.3 30.6001 156.3 27.8001 156.9 24.9001C144.8 15.9001 121.4 17.2001 121.4 17.2001C121.4 17.2001 102.8 16.2001 90.2 22.4001C90.9 28.5001 93.3 34.3001 96.9 39.2001Z" fill="#1287B1"/>
<path d="M155.7 34.4C156.6 35.2 157.1 36.3 157.1 37.5C157.1 39.8 155.2 41.7 152.9 41.7C152.7 41.7 152.4 41.7 152.2 41.6C149.6 45.7 146.1 49.2 142 51.8C148 52.7 153.7 55.3 158.4 59.2C161.8 53.1 163.8 46 163.8 38.5C163.8 32.8 161.3 28.6 157.5 25.5C157.3 28.6 156.7 31.6 155.7 34.4Z" fill="#1287B1"/>
<path d="M104.9 73.8002C107 68.0002 110.6 62.9002 115.5 59.0002C114.8 58.0002 114.2 57.0002 113.8 55.8002C107.9 54.0002 102.7 50.6002 98.6 46.2002C98.6 46.3002 98.5 46.5002 98.5 46.6002C97.7 50.0002 97.6 53.5002 98 56.8002C100.8 57.3002 103 59.8002 103 62.8002C103 64.6002 102.2 66.2002 101 67.3002C102 69.6002 103.4 71.8002 104.9 73.8002Z" fill="#1287B1"/>
<path d="M103.9 77.2006C101.4 74.7006 99.3 71.9006 97.7 68.8006C97.4 68.8006 97.1 68.9006 96.8 68.9006C93.4 68.9006 90.7 66.2006 90.7 62.8006C90.7 60.4006 92.1 58.3006 94.1 57.3006C93.6 53.5006 93.8 49.7006 94.7 45.8006C94.9 44.7006 95.3 43.6006 95.6 42.5006C91.9 37.1006 89.7 30.5006 89.7 23.4006V22.6006C83.4 25.8006 78.7 30.7006 78.7 38.5006C78.7 55.8006 89 70.7006 103.8 77.3006C103.9 77.3006 103.9 77.3006 103.9 77.2006Z" fill="#1287B1"/>
<path d="M140 55.4004C138.1 60.8004 132.9 64.8004 126.8 64.8004C123.5 64.8004 120.5 63.7004 118.2 61.8004C113.3 65.6004 109.6 70.8004 107.3 76.7004C108.3 77.8004 109.4 78.8004 110.5 79.8004C113.9 80.7004 117.5 81.2004 121.2 81.2004C136.1 81.2004 149.3 73.5004 156.9 61.8004C151.9 58.2004 146 55.9004 140 55.4004Z" fill="#1287B1"/>
<path d="M140.5 51.7998L153.4 48.6998L140.4 47.9998L151 39.9998L139 44.2998L147.1 32.9998L135.8 40.4998L139.7 27.2998L132 38.1998L131.8 24.3998L126.7 36.6998L122.5 24.2998L122.7 38.8998L115.4 25.7998L119.4 39.6998L107.5 31.0998L116.8 42.7998L102 37.3998L113.6 45.9998L98.7 46.4998L114 50.3998L98.7 53.6998L113.8 54.7998L101.1 62.8998L114.2 58.1998L105.1 69.6998L116.6 60.3998L112.5 75.7998L121.4 63.1998L120.2 77.9998L125.2 64.4998L129.5 78.5998L130.5 64.3998L136.9 76.4998L133.1 62.6998L144.7 71.6998L137.2 60.1998L150 65.1998L140.2 55.5998L153.3 56.5998L140.5 51.7998Z" fill="white"/>
<path d="M2.7998 76.5C42.8998 36.4 74.8998 24 104 18.4C107.8 17.7 108.6 9.2 108.6 9.2C108.6 9.2 109.1 15.4 111.8 16.2C114.5 17 118 6.5 118 6.5C118 6.5 114.8 15.9 118 16.5C121.2 17 127.2 7.3 127.2 7.3C127.2 7.3 124.8 15.6 126.4 16.2C128 16.7 136.1 4.1 136.1 4.1C136.1 4.1 131.3 12.4 135.8 13.3C140.4 14.1 147.1 7.6 147.1 7.6C147.1 7.6 141.9 13.5 144.2 14.4C154.2 17.9 162.2 5 162.2 5C162.2 5 160.3 10.7 155.5 16.9C166 19.6 173.8 3.8 173.8 3.8L166 19.6C170 21.6 186.1 3 186.1 3C186.1 3 177.8 17.5 172.9 20.5C175.6 22.7 185.3 14 185.3 14C185.3 14 177.5 23.7 180.5 24.2C184.8 27.7 200.7 6.2 200.7 6.2C200.7 6.2 194.5 18.9 185.4 28.8C193 32.7 212 8.2 212 8.2C212 8.2 211.5 16 197.7 28.4C207.9 27.1 221.1 7.7 221.1 7.7C221.1 7.7 216.3 22.2 204.7 32.5C214.7 31.5 230.8 6.7 230.8 6.7C230.8 6.7 224.6 23.9 212 33.9C226 37 246.2 16.1 246.2 16.1C246.2 16.1 238.3 30.9 227.9 37C239.5 41.4 255.4 23.1 255.4 23.1C255.4 23.1 239.5 47.6 214.2 46.5C205.9 46.1 180.8 21.3 127 23.3C55.7998 25.9 40.7998 56.1 2.7998 76.5Z" fill="#373535" fill-opacity="0.35"/>
<path d="M4.3999 73.5002C44.4999 33.4002 76.4999 21.0002 105.6 15.4002C109.4 14.7002 110.2 6.2002 110.2 6.2002C110.2 6.2002 110.7 12.4002 113.4 13.2002C116.1 14.0002 119.6 3.5002 119.6 3.5002C119.6 3.5002 116.4 12.9002 119.6 13.5002C122.8 14.0002 128.8 4.3002 128.8 4.3002C128.8 4.3002 126.4 12.6002 128 13.2002C129.6 13.7002 137.7 1.1002 137.7 1.1002C137.7 1.1002 132.9 9.4002 137.4 10.3002C142 11.1002 148.7 4.6002 148.7 4.6002C148.7 4.6002 143.5 10.5002 145.8 11.4002C155.8 14.9002 163.8 2.0002 163.8 2.0002C163.8 2.0002 161.9 7.7002 157.1 13.9002C167.6 16.6002 175.4 0.800195 175.4 0.800195L167.6 16.6002C171.6 18.8002 187.8 0.200195 187.8 0.200195C187.8 0.200195 179.5 14.7002 174.6 17.7002C177.3 19.6002 187 11.0002 187 11.0002C187 11.0002 179.2 20.7002 182.2 21.2002C186.5 24.7002 202.4 3.2002 202.4 3.2002C202.4 3.2002 196.1 15.9002 187 25.8002C194.6 29.6002 213.7 5.1002 213.7 5.1002C213.7 5.1002 213.2 12.9002 199.4 25.3002C209.6 24.0002 222.8 4.6002 222.8 4.6002C222.8 4.6002 218 19.1002 206.4 29.4002C216.4 28.4002 232.5 3.6002 232.5 3.6002C232.5 3.6002 226.3 20.8002 213.7 30.8002C227.7 33.9002 247.9 13.0002 247.9 13.0002C247.9 13.0002 240 27.8002 229.6 33.9002C241.2 38.3002 257.1 20.0002 257.1 20.0002C257.1 20.0002 241.2 44.5002 215.9 43.4002C207.6 43.0002 182.5 18.2002 128.7 20.2002C57.4999 22.9002 42.3999 53.0002 4.3999 73.5002Z" fill="#373535"/>
<path d="M1.7998 80.9C22.9998 91.5 42.3998 79.3 66.7998 86.2C85.3998 91.4 108 97.9 138.7 93.4C169.4 89 195.6 75.6 208.2 51.8C212.1 41.2 228 54.2 228 54.2C228 54.2 216.4 49.4 216.7 51.6C217 53.9 234.1 61.8 234.1 61.8C234.1 61.8 218.6 57 219.6 60.6C220.5 64.2 239 78.8 239 78.8C239 78.8 217.9 63 216.2 65.2C214.4 67.4 225.1 76.1 225.1 76.1C225.1 76.1 207.5 65.2 201.3 68.4C196.8 70.7 219.6 85.6 219.6 85.6C219.6 85.6 204.8 74.3 201.3 77.3C197.8 80.3 218 104.5 218 104.5C218 104.5 195 79.7 192.7 80.9C190.4 82.1 199 94 199 94C199 94 187.8 81.6 184.7 83.7C181.6 85.9 200.9 118 200.9 118C200.9 118 180 85.1 171.3 90.6C184.8 120.3 179.8 124.5 179.8 124.5C179.8 124.5 178.1 94.2 161.2 95C152.7 95.4 165.2 117.6 165.2 117.6C165.2 117.6 153.7 97.3 146 97.7C160.1 124.5 155.1 135.3 155.1 135.3C155.1 135.3 157.4 112.4 138.3 99.7C145.6 106.2 133.7 135.3 133.7 135.3C133.7 135.3 144.1 92.4 126 100.6C123.1 101.9 125.8 122 125.8 122C125.8 122 122.2 99 116.7 100.2C113.5 100.9 96.4998 132.1 96.4998 132.1C96.4998 132.1 110.4 98.4 106.2 99.8C103.1 100.8 97.2998 114.7 97.2998 114.7C97.2998 114.7 100.1 101 97.2998 100.2C94.4998 99.4 78.6998 114.7 78.6998 114.7C78.6998 114.7 90.3998 101 88.3998 98.1C85.2998 93.8 81.7998 93.6 77.4998 95.3C71.2998 97.7 62.9998 109 62.9998 109C62.9998 109 71.2998 97.5 69.8998 93.3C67.5998 86.4 43.6998 106.6 43.6998 106.6C43.6998 106.6 57.7998 93.3 54.5998 90.4C51.3998 87.6 33.7998 88.4 28.3998 88.4C12.2998 88.6 6.6998 84.8 1.7998 80.9Z" fill="#373535" fill-opacity="0.35"/>
<path d="M0.899902 78.5006C22.0999 89.1006 41.4999 76.9006 65.8999 83.8006C84.4999 89.0006 107.1 95.5006 137.8 91.0006C168.5 86.6006 194.7 73.2006 207.3 49.4006C211.2 38.8006 227.1 51.8006 227.1 51.8006C227.1 51.8006 215.5 47.0006 215.8 49.2006C216.1 51.5006 233.2 59.4006 233.2 59.4006C233.2 59.4006 217.7 54.6006 218.7 58.2006C219.6 61.8006 238.1 76.4006 238.1 76.4006C238.1 76.4006 217.2 60.5006 215.5 62.7006C213.8 64.9006 224.4 73.6006 224.4 73.6006C224.4 73.6006 206.8 62.7006 200.6 65.9006C196.1 68.2006 218.9 83.1006 218.9 83.1006C218.9 83.1006 204.1 71.8006 200.6 74.8006C197.1 77.8006 217.3 102.001 217.3 102.001C217.3 102.001 194.4 77.2006 192.1 78.4006C189.8 79.6006 198.4 91.5006 198.4 91.5006C198.4 91.5006 187 79.2006 183.9 81.3006C180.8 83.5006 200 115.601 200 115.601C200 115.601 179.1 82.6006 170.5 88.1006C184.1 117.901 179 122.101 179 122.101C179 122.101 177.3 91.8006 160.4 92.6006C151.9 93.0006 164.4 115.201 164.4 115.201C164.4 115.201 153 95.0006 145.3 95.4006C159.4 122.201 154.4 133.001 154.4 133.001C154.4 133.001 156.7 110.101 137.6 97.4006C144.9 103.901 133 133.001 133 133.001C133 133.001 143.4 90.1006 125.3 98.3006C122.4 99.6006 125.1 119.701 125.1 119.701C125.1 119.701 121.5 96.7006 116 97.9006C112.8 98.6006 95.7999 129.801 95.7999 129.801C95.7999 129.801 109.7 96.1006 105.5 97.5006C102.4 98.5006 96.5999 112.401 96.5999 112.401C96.5999 112.401 99.3999 98.7006 96.5999 97.9006C93.7999 97.1006 77.9999 112.401 77.9999 112.401C77.9999 112.401 89.6999 98.7006 87.6999 95.8006C84.5999 91.5006 81.0999 91.3006 76.7999 93.0006C70.5999 95.4006 62.2999 106.701 62.2999 106.701C62.2999 106.701 70.5999 95.2006 69.1999 91.0006C66.8999 84.1006 42.9999 104.301 42.9999 104.301C42.9999 104.301 57.0999 91.0006 53.8999 88.1006C50.6999 85.3006 33.0999 86.1006 27.6999 86.1006C11.3999 86.2006 5.7999 82.4006 0.899902 78.5006Z" fill="#373535"/>
</g>
<defs>
<clipPath id="clip0_1_1632">
<rect width="256" height="169" fill="white"/>
</clipPath>
</defs>
</svg>
