<svg width="256" height="256" viewBox="0 0 256 256" fill="none" xmlns="http://www.w3.org/2000/svg">
<g clip-path="url(#clip0_1_1663)">
<path d="M107.861 118.641L117.089 127.818L107.861 136.993H42.9012V167.564L3.28613 127.818L42.9012 88.7387V118.641H107.861ZM136.415 40.5732H215.343V119.504H136.415V40.5732Z" fill="#932279"/>
<path d="M137.275 107.861L128.1 117.089L118.925 107.861V42.9012H88.3521L128.1 3.28613L167.178 42.9012H137.275V107.861ZM136.415 136.415H215.343V215.345H136.415V136.415Z" fill="#EFA724"/>
<path d="M148.058 137.275L138.828 128.1L148.058 118.925H213.015V88.3516L252.632 128.1L213.015 167.177V137.275H148.058ZM40.5732 136.414H119.502V215.344H40.5732V136.414Z" fill="#262577"/>
<path d="M118.641 148.058L127.816 138.828L136.993 148.058V213.017H167.564L127.816 252.632L88.7405 213.017H118.641V148.058ZM40.5732 40.5732H119.502V119.504H40.5732V40.5732Z" fill="#9CCD2A"/>
<path d="M37.7539 37.7539H122.321V122.321H37.7539V37.7539ZM43.3909 116.684H116.682V43.3927H43.3909V116.684ZM133.597 37.7539H218.164V122.321H133.597V37.7539ZM139.234 116.684H212.525V43.3927H139.234V116.684ZM133.597 133.597H218.164V218.166H133.597V133.597ZM139.234 212.525H212.525V139.234H139.234V212.525ZM37.7539 133.597H122.321V218.166H37.7539V133.597ZM43.3909 212.525H116.682V139.234H43.3909V212.525Z" fill="white"/>
<path d="M60.1883 187.758L0.388672 127.958L60.1865 68.1603L119.986 127.958L60.1883 187.758ZM8.36243 127.958L60.1883 179.784L112.012 127.958L60.1865 76.1341L8.36243 127.958ZM127.958 119.986L68.1603 60.1883L127.958 0.388672L187.756 60.1883L127.958 119.986ZM76.1341 60.1883L127.958 112.012L179.784 60.1883L127.958 8.36243L76.1341 60.1883ZM195.73 187.758L135.932 127.958L195.73 68.1603L255.528 127.958L195.73 187.758ZM143.904 127.958L195.73 179.784L247.554 127.958L195.73 76.1341L143.904 127.958ZM127.958 255.528L68.1603 195.73L127.958 135.932L187.756 195.73L127.958 255.528ZM76.1341 195.73L127.958 247.554L179.784 195.73L127.958 143.906L76.1341 195.73Z" fill="white"/>
</g>
<defs>
<clipPath id="clip0_1_1663">
<rect width="256" height="256" fill="white"/>
</clipPath>
</defs>
</svg>
