<svg width="512" height="144" viewBox="0 0 512 144" fill="none" xmlns="http://www.w3.org/2000/svg">
<g clip-path="url(#clip0_1_1671)">
<path d="M511.221 84.5456C511.221 90.5689 509.313 95.643 505.498 99.7679C501.682 103.893 496.835 105.955 490.955 105.955L444.512 105.857V93.4832H482.792C485.357 93.4832 487.515 92.8604 489.265 91.6168C491.268 90.1766 492.269 88.2125 492.269 85.7243C492.269 79.8977 488.327 76.9844 480.447 76.9844H461.118C455.552 76.9844 450.673 75.1839 446.482 71.5829C442.291 67.982 440.196 63.3989 440.196 57.8338C440.196 51.6798 442.229 46.7045 446.294 42.907C450.422 39.0445 455.834 37.1123 462.527 37.1123H506.905V48.8973H467.78C466.029 48.8973 464.246 49.6827 462.433 51.2547C460.681 52.7597 459.805 54.5602 459.805 56.6551C459.805 59.0125 460.649 61.0096 462.338 62.6464C464.09 64.2173 466.186 65.0028 468.625 65.0028H489.923C496.553 65.0028 501.745 66.8033 505.498 70.4042C509.313 73.9393 511.221 78.6541 511.221 84.5456ZM419.419 70.9941C419.419 64.2503 417.886 58.8818 414.821 54.8876C411.381 50.4362 406.283 48.2096 399.528 48.2096C392.898 48.2096 387.893 50.5999 384.516 55.3786C381.702 59.3728 380.294 64.5776 380.294 70.9941C380.294 78.3916 381.42 83.859 383.672 87.3941C386.8 92.3045 392.585 94.7597 401.029 94.7597C408.16 94.7597 413.163 92.3694 416.04 87.5907C418.292 83.859 419.419 78.3268 419.419 70.9941ZM436.119 71.3863C436.119 84.7422 432.585 94.3016 425.517 100.062C419.762 104.711 411.381 107.036 400.372 107.036C388.175 107.036 379.168 104.351 373.351 98.9824C366.971 93.0899 363.781 83.6294 363.781 70.6009C363.781 59.9297 366.627 51.6149 372.319 45.6566C378.511 39.1752 387.769 35.9346 400.091 35.9346C413.664 35.9346 423.233 39.0445 428.801 45.2634C433.68 50.7636 436.119 59.4706 436.119 71.3863ZM359.555 65.5926H346.889V88.6706C346.889 90.7655 347.576 92.5011 348.952 93.8754C350.516 95.2507 352.58 95.9374 355.144 95.9374H358.992V105.857H346.889C343.261 105.857 340.164 104.482 337.6 101.732C336.099 100.095 335.128 98.2948 334.691 96.3306C334.253 94.3664 334.035 92.042 334.035 89.3582V65.5926H325.778V54.9864H334.035V37.1123H346.889V54.9864H359.555V65.5926ZM322.098 105.857H309.056V72.3684C309.056 71.5171 308.869 70.7645 308.493 70.1098C308.118 69.3892 307.586 68.7026 306.899 68.0479C305.648 66.935 304.209 66.3781 302.583 66.3781H289.823V105.857H276.781V54.9864H301.739C306.179 54.9864 309.401 55.2479 311.402 55.7718C314.53 56.5573 317.032 58.2929 318.908 60.9767C321.035 64.1195 322.098 67.5568 322.098 71.2885V105.857ZM268.595 106.151H245.702C240.135 106.151 235.287 103.663 231.16 98.688C227.093 93.6469 225.06 87.8522 225.06 81.305C225.06 74.1689 227.281 68.0149 231.722 62.843C236.226 57.6052 241.23 54.9864 246.734 54.9864H268.502V65.4938H252.551C250.55 65.4938 248.829 65.6905 247.391 66.0837C246.015 66.411 244.733 67.0987 243.544 68.1457C241.355 70.1098 240.261 72.7616 240.261 76.1001H268.408V86.7064H240.355C240.355 88.2783 240.51 89.6197 240.824 90.7325C241.199 91.7805 241.918 92.8604 242.981 93.9742C244.044 95.0212 245.296 95.7418 246.734 96.134C248.235 96.4614 250.05 96.625 252.175 96.625H268.595V106.151ZM220.311 105.857H191.319C188.379 105.857 185.471 105.431 182.593 104.58C177.027 102.813 172.617 98.7529 169.364 92.4023C166.425 86.6415 164.955 79.9306 164.955 72.2706C164.955 64.872 166.268 58.3248 168.895 52.629C171.773 46.3442 175.87 42.0556 181.186 39.7641C185.315 37.9965 189.537 37.1133 193.852 37.1133H220.123V50.2726H192.82C188.379 50.2726 185.158 52.7926 183.156 57.8338C181.593 61.7621 180.811 66.9021 180.811 73.2527C180.811 78.6212 181.812 83.1713 183.813 86.903C186.127 91.2895 189.38 93.4832 193.571 93.4832L220.311 93.3844V105.857Z" fill="black"/>
<path d="M60.6715 66.7362L65.8624 71.8981L60.6715 77.059H24.1319V94.2554L1.84839 71.8981L24.1319 49.916V66.7362H60.6715Z" fill="#932279"/>
<path d="M77.217 60.6717L72.0561 65.8626L66.8952 60.6717V24.1321H49.6978L72.0561 1.84863L94.0372 24.1321H77.217V60.6717Z" fill="#EFA724"/>
<path d="M83.2822 77.2175L78.0903 72.0566L83.2822 66.8957H119.821V49.6982L142.105 72.0566L119.821 94.0376V77.2175H83.2822Z" fill="#262577"/>
<path d="M66.7357 83.2827L71.8966 78.0908L77.0585 83.2827V119.822H94.2549L71.8966 142.106L49.9165 119.822H66.7357V83.2827Z" fill="#9CCD2A"/>
<path d="M22.8223 22.8223H67.2196V67.2206H22.8223V22.8223Z" fill="#9CCD2A"/>
<path d="M21.2366 21.2363H68.8057V68.8054H21.2366V21.2363ZM24.4074 65.6346H65.6339V24.4081H24.4074V65.6346Z" fill="white"/>
<path d="M76.7332 22.8223H121.13V67.2206H76.7332V22.8223Z" fill="#932279"/>
<path d="M75.1482 21.2363H122.717V68.8054H75.1482V21.2363ZM78.319 65.6346H119.545V24.4081H78.319V65.6346Z" fill="white"/>
<path d="M76.7332 76.7334H121.13V121.132H76.7332V76.7334Z" fill="#EFA724"/>
<path d="M75.1482 75.1484H122.717V122.719H75.1482V75.1484ZM78.319 119.546H119.545V78.3192H78.319V119.546Z" fill="white"/>
<path d="M22.8223 76.7334H67.2196V121.132H22.8223V76.7334Z" fill="#262577"/>
<path d="M21.2366 75.1484H68.8057V122.719H21.2366V75.1484ZM24.4074 119.546H65.6339V78.3192H24.4074V119.546Z" fill="white"/>
<path d="M33.8558 105.613L0.218506 71.9761L33.8548 38.3398L67.4921 71.9761L33.8558 105.613ZM4.70375 71.9761L33.8558 101.128L63.0069 71.9761L33.8548 42.8251L4.70375 71.9761Z" fill="white"/>
<path d="M71.9764 67.4924L38.3401 33.8561L71.9764 0.21875L105.613 33.8561L71.9764 67.4924ZM42.8253 33.8561L71.9764 63.0071L101.128 33.8561L71.9764 4.70399L42.8253 33.8561Z" fill="white"/>
<path d="M110.098 105.613L76.4617 71.9761L110.098 38.3398L143.734 71.9761L110.098 105.613ZM80.9459 71.9761L110.098 101.128L139.249 71.9761L110.098 42.8251L80.9459 71.9761Z" fill="white"/>
<path d="M71.9764 143.735L38.3401 110.098L71.9764 76.4619L105.613 110.098L71.9764 143.735ZM42.8253 110.098L71.9764 139.249L101.128 110.098L71.9764 80.9472L42.8253 110.098Z" fill="white"/>
</g>
<defs>
<clipPath id="clip0_1_1671">
<rect width="512" height="144" fill="white"/>
</clipPath>
</defs>
</svg>
