<svg width="512" height="176" viewBox="0 0 512 176" fill="none" xmlns="http://www.w3.org/2000/svg">
<g clip-path="url(#clip0_1_1690)">
<path d="M126.917 175.251C125.917 168.695 120.249 163.582 113.358 163.582C106.468 163.582 100.8 168.583 99.7991 175.251H101.355H126.917Z" fill="black"/>
<path d="M96.3539 175.251C95.3542 168.695 89.6862 163.582 82.7951 163.582C75.904 163.582 70.2369 168.583 69.2363 175.251H94.797H96.3539Z" fill="black"/>
<path d="M78.5727 152.009V171.25H93.3538V122.795H78.5727V142.704C77.6628 144.038 77.1279 145.643 77.1279 147.357C77.1279 149.071 77.6628 150.675 78.5727 152.009ZM85.463 142.243C82.6846 142.243 80.3514 144.466 80.3514 147.356C80.3514 150.245 82.5742 152.467 85.463 152.467C88.3526 152.467 90.5755 150.245 90.5755 147.356C90.5755 144.466 88.2413 142.243 85.463 142.243Z" fill="#ED1C24"/>
<path d="M117.247 142.545V122.795H102.466V171.25H117.247V152.169C118.225 150.804 118.803 149.14 118.803 147.357C118.803 145.574 118.225 143.91 117.247 142.545ZM110.468 142.243C107.69 142.243 105.356 144.466 105.356 147.356C105.356 150.245 107.579 152.467 110.468 152.467C113.358 152.467 115.58 150.245 115.58 147.356C115.58 144.466 113.247 142.243 110.468 142.243Z" fill="#ED1C24"/>
<path d="M142.885 75.1111L145.587 33.3311H149.921L152.007 75.2427C153.587 76.5661 154.589 78.555 154.589 80.7856C154.589 84.6729 151.546 87.8263 147.703 88.0019C142.645 93.8685 133.786 102 120.582 106.903V86.4536C120.582 86.4536 132.805 88.1124 140.149 81.1383C140.144 81.0215 140.141 80.9039 140.141 80.7856C140.141 78.4798 141.211 76.4322 142.885 75.1111ZM147.365 77.0075C145.253 77.0075 143.475 78.7853 143.475 80.8969C143.475 83.0084 145.253 84.7862 147.365 84.7862C149.476 84.7862 151.254 83.0084 151.254 80.8969C151.254 78.7853 149.588 77.0075 147.365 77.0075Z" fill="#ED1C24"/>
<path d="M52.935 75.1111L50.2328 33.3311H45.8984L43.9217 75.1536C42.279 76.4758 41.231 78.5044 41.231 80.7856C41.231 84.6731 44.2747 87.8268 48.1177 88.002C53.1756 93.8685 62.035 102 75.2388 106.903V86.4536C75.2388 86.4536 63.0151 88.1125 55.6707 81.1376C55.6763 81.021 55.6791 80.9036 55.6791 80.7856C55.6791 78.4798 54.6083 76.4322 52.935 75.1111ZM48.455 77.0075C46.3434 77.0075 44.5656 78.7853 44.5656 80.8969C44.5656 83.0084 46.3434 84.7862 48.455 84.7862C50.5666 84.7862 52.3444 83.0084 52.3444 80.8969C52.3444 78.7853 50.5666 77.0075 48.455 77.0075Z" fill="#ED1C24"/>
<path d="M53.4555 18.3281V30.5534H43.3426V18.3281C40.2305 20.1059 38.1189 23.4406 38.1189 27.2187C38.1189 32.8867 42.6759 37.4428 48.3438 37.4428C54.0118 37.4428 58.5679 32.8867 58.5679 27.2187C58.6792 23.4406 56.5676 20.1059 53.4555 18.3281Z" fill="black"/>
<path d="M143.031 18.3281V30.5534H153.144V18.3281C156.256 20.1059 158.368 23.4406 158.368 27.2187C158.368 32.8867 153.812 37.4428 148.144 37.4428C142.476 37.4428 137.919 32.8867 137.919 27.2187C137.807 23.4406 139.919 20.1059 143.031 18.3281Z" fill="black"/>
<path d="M76.2424 83.2841L76.4612 60.1148C76.5725 54.2242 78.9058 48.7788 83.129 44.6669C87.3521 40.555 92.9088 38.3322 98.7985 38.4434C104.689 38.5547 110.134 40.888 114.246 45.1112C118.358 49.3343 120.581 54.891 120.47 60.7815L120.186 82.9675C124.854 88.1632 127.694 95.0344 127.694 102.569C127.694 118.773 114.558 131.909 98.3543 131.909C82.1504 131.909 69.0146 118.773 69.0146 102.569C69.0146 95.1865 71.7413 88.4408 76.2424 83.2841ZM112.704 76.972L112.913 60.6703C112.913 56.7809 111.468 53.1132 108.801 50.3349C106.134 47.5565 102.466 46.0005 98.576 46.0005C94.6858 46.0005 91.0189 47.4453 88.2406 50.1124C85.4622 52.7794 83.9062 56.4471 83.9062 60.3365L83.6677 77.1641C87.987 74.6618 93.0033 73.2293 98.3543 73.2293C103.567 73.2293 108.462 74.5886 112.704 76.972ZM90.9085 69.0053C92.6883 69.0053 94.1311 67.5625 94.1311 65.7827C94.1311 64.0029 92.6883 62.5601 90.9085 62.5601C89.1287 62.5601 87.6859 64.0029 87.6859 65.7827C87.6859 67.5625 89.1287 69.0053 90.9085 69.0053ZM106.023 69.0053C107.802 69.0053 109.245 67.5625 109.245 65.7827C109.245 64.0029 107.802 62.5601 106.023 62.5601C104.243 62.5601 102.8 64.0029 102.8 65.7827C102.8 67.5625 104.243 69.0053 106.023 69.0053Z" fill="black"/>
<path d="M95.6871 97.7908L94.5752 118.795H102.8L101.132 97.6796C103.133 96.679 104.466 94.6787 104.466 92.2333C104.466 88.8995 101.688 86.1211 98.3541 86.1211C95.0203 86.1211 92.2419 88.8995 92.2419 92.2333C92.3532 94.79 93.6868 96.7894 95.6871 97.7908Z" fill="#ED1C24"/>
<path d="M27.7835 11.5488C24.7826 7.10392 20.5595 4.54726 16.1146 4.54726C11.5576 4.54726 7.44575 6.99181 4.33359 11.4375C1.55608 15.5502 0 20.9957 0 26.6637C0 32.3308 1.55608 37.7771 4.33443 41.889C7.33532 46.3338 11.5585 48.7792 16.0033 48.7792C20.449 48.7792 24.6722 46.3347 27.7844 41.889C29.7847 38.9993 31.1182 35.5542 31.6737 31.7753C31.785 31.1085 32.4518 30.553 33.1185 30.553L209.267 30.6643C210.046 30.6643 210.712 29.9975 210.824 29.2195V24.5512C210.824 23.7732 210.157 23.1064 209.379 22.996H204.045C203.267 22.996 202.6 22.3292 202.6 21.4399V1.65764C202.6 0.879602 201.933 0.21283 201.155 0.101562H178.928C178.15 0.101562 177.483 0.768334 177.372 1.54637V21.3286C177.372 22.1067 176.705 22.7735 175.816 22.7735H174.482C173.704 22.7735 173.038 22.1067 173.038 21.2182V6.10418C173.038 5.32614 172.371 4.65937 171.593 4.5481H168.148C167.37 4.5481 166.703 5.21487 166.592 5.99291V21.1069C166.592 21.885 165.925 22.5518 165.036 22.5518H33.2298C32.4518 22.5518 31.8963 21.9963 31.785 21.3295C31.0061 17.8835 29.7847 14.3271 27.7835 11.5488ZM16.0033 42.5557C10.6692 42.5557 6.11221 35.2204 6.11221 26.6637C6.11221 18.1061 10.6692 10.7707 16.1146 10.7707C21.5601 10.7707 26.0058 18.1061 26.0058 26.6637C26.0058 35.2212 21.3375 42.5557 16.0033 42.5557Z" fill="#ED1C24"/>
<path d="M55.7904 33.3317C55.0124 32.2199 54.2344 31.6644 53.4563 30.5534H43.3426V18.3281C40.2305 20.1059 38.1189 23.4406 38.1189 27.2187C38.1189 32.8867 42.6759 37.4428 48.3438 37.4428C51.4552 37.4428 54.2343 35.998 56.1234 33.8864C56.1234 33.6655 55.9009 33.5543 55.7904 33.3317Z" fill="black"/>
<path d="M140.808 33.3317C141.586 32.2199 141.808 31.6644 142.586 30.5534H143.142H153.255V18.3281C156.367 20.1059 158.478 23.4406 158.478 27.2187C158.478 32.8867 153.922 37.4428 148.254 37.4428C145.142 37.4428 142.364 35.998 140.475 33.8864C140.475 33.6655 140.586 33.5543 140.808 33.3317Z" fill="black"/>
<path d="M166.147 163.249C169.037 163.249 171.371 162.36 173.038 160.692C174.815 159.026 175.593 156.803 175.593 154.025H190.152L190.263 154.357C190.374 160.358 188.152 165.471 183.483 169.583C178.816 173.695 172.925 175.695 166.035 175.695C157.145 175.695 150.254 172.917 145.364 167.249C140.586 161.582 138.14 154.357 138.14 145.466V143.8C138.14 135.019 140.586 127.796 145.586 122.017C150.587 116.35 157.589 113.459 166.813 113.459C171.592 113.459 175.926 114.126 179.816 115.57C183.595 117.016 186.817 119.015 189.373 121.683L189.596 137.687H176.482L173.815 128.352C173.037 127.685 172.037 127.017 170.815 126.573C169.592 126.129 168.258 125.906 166.814 125.906C162.257 125.906 159.035 127.574 157.145 130.908C155.256 134.241 154.367 138.465 154.367 143.688V145.355C154.367 150.69 155.256 155.024 156.923 158.247C158.812 161.582 161.813 163.249 166.147 163.249ZM225.16 175.585C216.491 175.585 209.601 172.807 204.49 167.25C199.377 161.693 196.71 154.691 196.71 146.134V143.912C196.71 135.02 199.155 127.686 204.045 121.907C208.935 116.128 215.493 113.349 223.716 113.349C231.829 113.349 238.052 115.794 242.498 120.684C246.943 125.574 249.166 132.132 249.166 140.467V149.246H213.491L213.38 149.579C213.714 153.579 215.047 156.803 217.382 159.359C219.716 161.915 222.938 163.138 226.939 163.138C230.494 163.138 233.495 162.805 235.829 162.027C238.164 161.36 240.719 160.137 243.609 158.581L247.943 168.583C245.498 170.584 242.275 172.139 238.386 173.474C234.384 174.918 230.049 175.585 225.16 175.585ZM223.715 126.018C220.715 126.018 218.381 127.129 216.603 129.464C214.824 131.798 213.824 134.798 213.379 138.465L213.491 138.689H233.384V137.243C233.384 133.798 232.606 131.131 230.94 129.019C229.383 127.018 227.049 126.018 223.715 126.018ZM258.612 164.804L266.391 163.138V126.018L257.834 124.352V114.572H281.395L282.062 123.351C283.507 120.24 285.285 117.795 287.507 116.128C289.73 114.35 292.287 113.571 295.175 113.571C296.065 113.571 296.954 113.683 297.843 113.794C298.731 113.905 299.51 114.127 300.177 114.238V126.463L295.397 126.574C291.174 126.574 287.396 128.13 286.062 129.019C284.618 130.019 283.284 132.353 282.395 134.021V163.138L290.174 164.804V174.474H258.501V164.804H258.612ZM332.628 100.013V114.238H343.186V126.463H332.628V156.469C332.628 158.803 333.072 160.47 334.073 161.471C335.073 162.471 336.295 162.916 337.963 162.916C339.074 162.916 340.073 162.916 340.851 162.805C341.63 162.693 342.63 162.582 343.63 162.36L344.964 174.029C343.186 174.585 341.408 175.029 339.629 175.252C337.851 175.474 335.961 175.696 333.851 175.696C328.293 175.696 323.96 174.141 320.959 171.14C317.958 168.028 316.403 163.249 316.403 156.581V126.575H307.623V114.35H316.403V100.014L332.628 100.013Z" fill="black"/>
<path d="M407.644 146.246C407.644 155.136 405.644 162.249 401.643 167.695C397.642 173.03 391.863 175.696 384.417 175.696C380.86 175.696 377.859 174.918 375.303 173.474C372.747 172.028 370.524 169.918 368.746 167.139L367.635 174.475H353.743V99.5694L345.186 97.9029V88.123H369.857V120.908C371.636 118.462 373.636 116.685 376.081 115.35C378.526 114.017 381.304 113.461 384.416 113.461C391.973 113.461 397.752 116.351 401.753 122.019C405.754 127.798 407.754 135.355 407.754 144.912V146.247L407.644 146.246ZM391.529 145.023C391.529 139.244 390.641 134.576 388.973 131.132C387.306 127.687 384.305 126.019 380.193 126.019C377.637 126.019 375.526 126.575 373.859 127.575C372.081 128.575 370.746 130.131 369.747 132.132V157.359C370.746 159.248 372.081 160.582 373.859 161.583C375.637 162.582 377.748 163.027 380.305 163.027C384.417 163.027 387.417 161.582 389.084 158.582C390.751 155.693 391.529 151.47 391.529 146.135V145.023ZM414.423 144.022C414.423 135.132 416.868 127.796 421.869 122.128C426.87 116.461 433.76 113.571 442.54 113.571C451.431 113.571 458.321 116.46 463.322 122.128C468.323 127.796 470.768 135.132 470.768 144.134V145.245C470.768 154.247 468.323 161.582 463.322 167.25C458.321 172.918 451.431 175.696 442.652 175.696C433.76 175.696 426.87 172.918 421.869 167.25C416.867 161.582 414.423 154.247 414.423 145.245V144.022ZM430.538 145.133C430.538 150.58 431.538 154.913 433.427 158.248C435.317 161.582 438.428 163.249 442.763 163.249C446.875 163.249 449.987 161.582 451.876 158.248C453.766 154.914 454.766 150.58 454.766 145.133V144.022C454.766 138.688 453.766 134.353 451.876 131.019C449.876 127.686 446.875 126.018 442.652 126.018C438.428 126.018 435.428 127.685 433.428 131.019C431.539 134.353 430.538 138.688 430.538 144.022L430.538 145.133ZM499.664 100.013V114.683H510.222V126.019H499.664V156.469C499.664 158.803 500.108 160.47 501.109 161.471C502.109 162.471 503.332 162.916 504.998 162.916C506.109 162.916 507.11 162.916 507.888 162.805C508.666 162.694 509.666 162.582 510.666 162.361L512 174.029C510.222 174.585 508.444 175.029 506.666 175.252C504.887 175.474 502.998 175.696 500.887 175.696C495.33 175.696 490.995 174.141 487.995 171.14C484.994 168.028 483.438 163.249 483.438 156.581V126.019H474.659V114.683H483.438V100.014L499.664 100.013Z" fill="#ED1C24"/>
</g>
<defs>
<clipPath id="clip0_1_1690">
<rect width="512" height="176" fill="white"/>
</clipPath>
</defs>
</svg>
