<svg width="512" height="174" viewBox="0 0 512 174" fill="none" xmlns="http://www.w3.org/2000/svg">
<g clip-path="url(#clip0_1_1707)">
<path d="M60.341 114.718C61.7551 115.405 63.305 115.943 64.9176 116.368C64.7853 123.906 65.2433 135.137 68.2317 145.396H48.0991C49.2041 133.318 56.9808 119.986 60.341 114.718ZM135.765 89.4432C139.145 100.152 140.729 126.969 147.399 145.396H122.074C122.571 141.537 119.937 137.656 120.802 133.764C122.878 124.433 126.005 115.026 130.152 105.656C130.239 105.791 135.681 89.3117 135.765 89.4432Z" fill="#AB710A"/>
<path d="M202.215 42.2685C196.451 34.0286 183.313 27.2167 180.247 17.8666C179.463 15.4764 179.329 10.568 180.844 8.27357C182.214 6.20119 179.965 6.69317 179.965 6.69317C176.698 7.95836 175.285 4.34824 175.285 4.34824C174.794 3.08304 175.458 -0.763051 172.648 1.34503C167.568 5.15281 169.243 14.3941 170.191 18.1766C170.849 21.084 173.86 29.263 179.843 35.097C181.412 36.6269 191.793 47.9588 190.379 53.7763C190.32 54.0096 190.131 57.4151 186.867 58.0682C179.352 59.572 176.909 50.3655 176.909 50.3655C171.274 26.3172 162.184 17.9128 162.184 17.9128C145.502 17.2771 133.142 18.8218 118.208 21.6996C61.9554 19.5942 19.6275 36.875 19.6275 36.875C7.24807 54.627 0.0077971 87.563 0.0077971 87.563C0.0077971 87.563 -0.0252913 87.7189 0.114899 87.7424C0.398763 87.7894 0.548532 87.536 0.548532 87.536C8.29384 77.8403 16.2142 71.7224 16.2142 71.7224C15.0413 117.519 25.4188 145.396 25.4188 145.396H45.0638C46.4474 128.901 59.4181 110.644 59.4181 110.644C66.721 116.182 83.2174 114.547 83.2174 114.547C86.1152 125.627 92.0328 145.396 92.0328 145.396H115.706C117.858 128.307 123.324 113.16 128.584 101.801C128.584 101.801 134.45 88.5043 134.639 84.559C135.014 77.6087 141.59 75.5406 145.16 75.5406C148.728 75.5406 164.955 84.6077 177.098 83.9947C198.23 82.9315 206.568 73.1539 206.971 62.0135C207.249 54.3266 205.447 46.8895 202.215 42.2685ZM134.322 65.8893C134.216 66.1827 134.083 66.4822 133.882 66.7687C133.684 67.0534 133.414 67.3364 133.05 67.5332C132.69 67.7361 132.25 67.8162 131.854 67.7971C131.454 67.7788 131.094 67.6804 130.766 67.5576C129.478 67.0264 128.567 66.2036 127.689 65.3973C127.253 64.9915 126.845 64.5683 126.447 64.1521C126.055 63.742 125.65 63.3057 125.303 62.9557C124.754 62.4428 123.84 62.0153 122.878 61.674C121.905 61.3378 120.858 61.0514 119.776 60.7832C118.69 60.508 117.588 60.2477 116.389 59.8576C116.087 59.7557 115.781 59.6381 115.448 59.4893C115.297 59.4213 115.078 59.3099 114.93 59.2272C114.714 59.1035 114.506 58.9564 114.314 58.7909C113.924 58.4583 113.615 58.0482 113.394 57.6398C113.175 57.2279 113.032 56.8169 112.94 56.4268C112.762 55.6458 112.748 54.9387 112.772 54.2726C112.803 53.6065 112.879 52.9769 112.99 52.3674C113.218 51.1492 113.526 49.999 113.889 48.8792C114.252 47.7594 114.649 46.6666 115.087 45.5956C115.305 45.054 115.515 44.5376 115.759 43.9847C116.011 43.4178 116.294 42.8693 116.602 42.3372C117.85 40.2135 119.528 38.4276 121.41 37.0065C122.355 36.2969 123.348 35.6673 124.38 35.1335C125.414 34.5963 126.486 34.1409 127.593 33.8309C125.717 35.144 124.026 36.6312 122.552 38.2604C121.086 39.8887 119.853 41.6746 119.016 43.5876C118.804 44.0622 118.619 44.5481 118.461 45.0383L117.957 46.6178C117.635 47.6845 117.31 48.7433 117.037 49.8013C116.766 50.8567 116.509 51.9085 116.363 52.9282C116.288 53.4367 116.228 53.9356 116.215 54.4023C116.2 54.8664 116.232 55.3062 116.315 55.6292C116.392 55.9636 116.496 56.1203 116.572 56.1874C116.593 56.2057 116.617 56.2248 116.647 56.244C116.747 56.3006 116.78 56.3154 116.884 56.3667C117.069 56.4556 117.293 56.5409 117.526 56.6271C118.469 56.9806 119.571 57.2732 120.666 57.6171C121.766 57.9672 122.897 58.3268 124.025 58.8414C125.147 59.3595 126.326 59.9664 127.326 61.1315C127.731 61.6313 128.037 62.0789 128.374 62.536C128.705 62.9888 129.035 63.4268 129.366 63.8561C129.698 64.2836 130.044 64.6902 130.397 65.0664C130.749 65.4426 131.123 65.7813 131.495 66.019C131.875 66.2602 132.194 66.3638 132.492 66.2959C132.808 66.2358 133.17 65.8919 133.453 65.4643C133.739 65.035 133.975 64.5291 134.179 64.0093C134.392 63.4895 134.56 62.9461 134.735 62.3975C134.762 63.5443 134.73 64.7085 134.322 65.8893ZM155.238 51.299C154.432 52.5267 152.479 52.6687 150.879 51.6168C149.278 50.5649 148.636 48.7155 149.441 47.4886C150.248 46.2608 152.2 46.1198 153.799 47.1716C155.402 48.2226 156.045 50.0704 155.238 51.299Z" fill="#E3A835"/>
<path opacity="0.45" d="M202.215 42.2685C196.451 34.0286 183.313 27.2167 180.247 17.8666C179.463 15.4764 179.329 10.568 180.844 8.27357C182.214 6.20119 179.965 6.69317 179.965 6.69317C176.698 7.95836 175.285 4.34824 175.285 4.34824C174.794 3.08304 175.458 -0.763051 172.648 1.34503C167.568 5.15281 169.243 14.3941 170.191 18.1766C170.849 21.084 173.86 29.263 179.843 35.097C181.412 36.6269 191.793 47.9588 190.379 53.7763C190.32 54.0096 190.131 57.4151 186.867 58.0682C179.352 59.572 176.909 50.3655 176.909 50.3655C171.274 26.3172 162.184 17.9128 162.184 17.9128C145.502 17.2771 133.142 18.8218 118.208 21.6996C61.9554 19.5942 19.6275 36.875 19.6275 36.875C7.24807 54.627 0.0077971 87.563 0.0077971 87.563C0.0077971 87.563 -0.0252913 87.7189 0.114899 87.7424C0.398763 87.7894 0.548532 87.536 0.548532 87.536C8.29384 77.8403 16.2142 71.7224 16.2142 71.7224C15.0413 117.519 25.4188 145.396 25.4188 145.396H45.0638C46.4474 128.901 59.4181 110.644 59.4181 110.644C66.721 116.182 83.2174 114.547 83.2174 114.547C86.1152 125.627 92.0328 145.396 92.0328 145.396H115.706C117.858 128.307 123.324 113.16 128.584 101.801C128.584 101.801 134.45 88.5043 134.639 84.559C135.014 77.6087 141.59 75.5406 145.16 75.5406C148.728 75.5406 164.955 84.6077 177.098 83.9947C198.23 82.9315 206.568 73.1539 206.971 62.0135C207.249 54.3266 205.447 46.8895 202.215 42.2685ZM134.322 65.8893C134.216 66.1827 134.083 66.4822 133.882 66.7687C133.684 67.0534 133.414 67.3364 133.05 67.5332C132.69 67.7361 132.25 67.8162 131.854 67.7971C131.454 67.7788 131.094 67.6804 130.766 67.5576C129.478 67.0264 128.567 66.2036 127.689 65.3973C127.253 64.9915 126.845 64.5683 126.447 64.1521C126.055 63.742 125.65 63.3057 125.303 62.9557C124.754 62.4428 123.84 62.0153 122.878 61.674C121.905 61.3378 120.858 61.0514 119.776 60.7832C118.69 60.508 117.588 60.2477 116.389 59.8576C116.087 59.7557 115.781 59.6381 115.448 59.4893C115.297 59.4213 115.078 59.3099 114.93 59.2272C114.714 59.1035 114.506 58.9564 114.314 58.7909C113.924 58.4583 113.615 58.0482 113.394 57.6398C113.175 57.2279 113.032 56.8169 112.94 56.4268C112.762 55.6458 112.748 54.9387 112.772 54.2726C112.803 53.6065 112.879 52.9769 112.99 52.3674C113.218 51.1492 113.526 49.999 113.889 48.8792C114.252 47.7594 114.649 46.6666 115.087 45.5956C115.305 45.054 115.515 44.5376 115.759 43.9847C116.011 43.4178 116.294 42.8693 116.602 42.3372C117.85 40.2135 119.528 38.4276 121.41 37.0065C122.355 36.2969 123.348 35.6673 124.38 35.1335C125.414 34.5963 126.486 34.1409 127.593 33.8309C125.717 35.144 124.026 36.6312 122.552 38.2604C121.086 39.8887 119.853 41.6746 119.016 43.5876C118.804 44.0622 118.619 44.5481 118.461 45.0383L117.957 46.6178C117.635 47.6845 117.31 48.7433 117.037 49.8013C116.766 50.8567 116.509 51.9085 116.363 52.9282C116.288 53.4367 116.228 53.9356 116.215 54.4023C116.2 54.8664 116.232 55.3062 116.315 55.6292C116.392 55.9636 116.496 56.1203 116.572 56.1874C116.593 56.2057 116.617 56.2248 116.647 56.244C116.747 56.3006 116.78 56.3154 116.884 56.3667C117.069 56.4556 117.293 56.5409 117.526 56.6271C118.469 56.9806 119.571 57.2732 120.666 57.6171C121.766 57.9672 122.897 58.3268 124.025 58.8414C125.147 59.3595 126.326 59.9664 127.326 61.1315C127.731 61.6313 128.037 62.0789 128.374 62.536C128.705 62.9888 129.035 63.4268 129.366 63.8561C129.698 64.2836 130.044 64.6902 130.397 65.0664C130.749 65.4426 131.123 65.7813 131.495 66.019C131.875 66.2602 132.194 66.3638 132.492 66.2959C132.808 66.2358 133.17 65.8919 133.453 65.4643C133.739 65.035 133.975 64.5291 134.179 64.0093C134.392 63.4895 134.56 62.9461 134.735 62.3975C134.762 63.5443 134.73 64.7085 134.322 65.8893ZM155.238 51.299C154.432 52.5267 152.479 52.6687 150.879 51.6168C149.278 50.5649 148.636 48.7155 149.441 47.4886C150.248 46.2608 152.2 46.1198 153.799 47.1716C155.402 48.2226 156.045 50.0704 155.238 51.299Z" fill="url(#paint0_radial_1_1707)"/>
<path d="M483.325 76.3898C473.801 76.3898 465.05 81.7945 460.803 86.6847L450.508 77.8048H445.616V92.7477C439.368 82.9004 428.321 76.3898 415.76 76.3898C403.229 76.3898 392.257 82.8717 386.037 92.6832L386.024 57.6914L368.124 42.165H363.246V77.8048H349.743L333.782 109.207L317.699 77.8048H293.504L298.776 88.1806C292.634 80.9769 283.285 76.3898 272.656 76.3898C250.521 76.3898 235.592 92.22 235.592 111.652C235.592 113.786 235.78 115.875 236.132 117.905C231.217 120.244 226.289 122.956 217.232 122.956C206.078 122.956 199.263 114.744 199.263 104.832C199.263 95.0708 206.078 86.5506 217.232 86.5506C227.611 86.5506 232.258 90.7336 238.3 92.7468V69.9767C231.33 65.3287 225.135 62.6938 214.756 62.6938C212.741 62.6938 210.777 62.8218 208.858 63.0438C208.3 70.177 203.847 84.5975 177.196 85.9393C176.772 85.9602 176.336 85.9715 175.896 85.9715C175.569 85.9715 175.238 85.9558 174.907 85.9445C172.035 91.6296 170.452 98.041 170.452 104.83C170.452 127.91 188.884 146.965 214.756 146.965C225.135 146.965 231.331 144.175 238.302 139.375V125.338C243.54 137.717 256.172 146.398 274.328 146.398C286.17 146.398 297.238 141.122 303.544 134.299L294.921 124.392C290.804 127.866 285.784 130.054 278.963 130.054C266.354 130.054 258.63 123.617 259.276 114.482H305.861C306.657 109.954 306.494 105.566 305.536 101.476L321.559 133.012L300.97 173.55H324.521L363.247 97.529V144.981H386.059L386.053 130.126C392.275 139.926 403.239 146.397 415.76 146.397C428.321 146.397 439.368 139.887 445.616 130.041V144.981H468.525V109.976V101.485C471.099 96.9795 474.575 94.0181 480.236 94.0181C485.898 94.0181 488.473 97.495 488.473 108.047V111.007V144.981H511.381V101.741C511.381 88.616 503.4 76.3898 483.325 76.3898ZM260.174 101.098C262.619 94.4056 267.897 90.8033 272.528 90.8033C279.476 90.8033 283.468 95.1779 283.468 101.098H260.174ZM415.76 129.795C409.715 129.795 404.565 121.56 404.565 111.396C404.565 101.226 409.715 92.9915 415.76 92.9915C421.94 92.9915 427.088 101.226 427.088 111.396C427.087 121.56 421.939 129.795 415.76 129.795Z" fill="url(#paint1_radial_1_1707)"/>
</g>
<defs>
<radialGradient id="paint0_radial_1_1707" cx="0" cy="0" r="1" gradientUnits="userSpaceOnUse" gradientTransform="translate(10601.4 2406.59) scale(11428.8 11428.8)">
<stop stop-color="white"/>
<stop offset="1" stop-color="#AB710A"/>
</radialGradient>
<radialGradient id="paint1_radial_1_1707" cx="0" cy="0" r="1" gradientUnits="userSpaceOnUse" gradientTransform="translate(505.084 737.005) scale(5932.21 5932.21)">
<stop stop-color="#D5D5D5"/>
<stop offset="1" stop-color="#141006"/>
</radialGradient>
<clipPath id="clip0_1_1707">
<rect width="512" height="174" fill="white"/>
</clipPath>
</defs>
</svg>
