<svg width="256" height="296" viewBox="0 0 256 296" fill="none" xmlns="http://www.w3.org/2000/svg">
<g clip-path="url(#clip0_1_1714)">
<path d="M11.071 215.711L127.997 283.22L244.929 215.711V80.6963L127.997 13.1893L11.071 80.6963V215.711ZM127.997 296L0 222.1V74.3063L127.997 0.404297L256 74.3063V222.1L127.997 296Z" fill="#A1070C"/>
<path d="M9.57901 79.8329L128 11.4629L246.421 79.8329V216.574L128 284.944L9.57901 216.574V79.8329Z" fill="url(#paint0_linear_1_1714)"/>
<path d="M182.332 98.1732C182.332 103.545 181.272 108.881 179.152 114.181C177.032 119.482 174.187 124.394 170.618 128.917C167.049 133.441 162.932 137.398 158.267 140.791C153.602 144.183 148.761 146.622 143.743 148.106L141.517 144.395C144.485 142.911 147.206 141.003 149.68 138.671C152.154 136.338 154.274 133.706 156.041 130.773C157.808 127.839 159.168 124.73 160.122 121.443C161.076 118.157 161.553 114.817 161.553 111.425C161.553 107.538 160.988 103.863 159.857 100.399C158.726 96.9363 157.066 93.915 154.875 91.3353C152.684 88.7556 149.98 86.7237 146.765 85.2394C143.549 83.7552 139.856 83.0131 135.686 83.0131C130.597 83.0131 125.933 84.0026 121.692 85.9815C117.452 87.9605 113.635 90.6285 110.243 93.9856C106.85 97.3428 103.899 101.195 101.39 105.541C98.8814 109.888 96.7965 114.446 95.1356 119.217C93.4747 123.988 92.2202 128.811 91.3721 133.688C90.524 138.565 90.0999 143.159 90.0999 147.47C90.0999 151.852 90.5593 156.375 91.4781 161.04C92.3969 165.704 93.7397 170.298 95.5066 174.821C97.2736 179.345 99.4645 183.621 102.08 187.649C104.695 191.678 107.716 195.212 111.144 198.251C114.572 201.29 118.388 203.71 122.593 205.513C126.799 207.315 131.375 208.216 136.322 208.216C139.715 208.216 143.019 207.757 146.234 206.838C149.45 205.919 152.542 204.682 155.511 203.127C158.479 201.572 161.288 199.735 163.939 197.615C166.589 195.494 169.045 193.197 171.307 190.724L174.805 194.116C171.696 198.215 168.003 202.155 163.727 205.937C159.451 209.718 154.839 213.075 149.892 216.008C144.945 218.941 139.768 221.273 134.361 223.005C128.954 224.736 123.6 225.602 118.3 225.602C113.14 225.602 108.281 224.701 103.723 222.899C99.1641 221.097 94.9766 218.658 91.1601 215.584C87.3435 212.509 83.9334 208.905 80.9297 204.77C77.9259 200.636 75.3816 196.236 73.2967 191.572C71.2117 186.907 69.6215 182.101 68.526 177.154C67.4305 172.206 66.8828 167.365 66.8828 162.63C66.8828 155.774 68.0313 148.724 70.3283 141.48C72.6253 134.236 75.788 127.203 79.8165 120.383C83.8451 113.563 88.598 107.114 94.0755 101.036C99.5529 94.9574 105.454 89.6567 111.78 85.1334C118.105 80.6101 124.714 77.0234 131.604 74.373C138.495 71.7226 145.369 70.3975 152.224 70.3975C156.465 70.3975 160.423 71.0159 164.098 72.2527C167.773 73.4895 170.953 75.2741 173.639 77.6064C176.325 79.9387 178.445 82.8364 180 86.2996C181.555 89.7627 182.332 93.7206 182.332 98.1732Z" fill="#A1070C"/>
</g>
<defs>
<linearGradient id="paint0_linear_1_1714" x1="11851.7" y1="12380.1" x2="11851.7" y2="27359.6" gradientUnits="userSpaceOnUse">
<stop stop-color="#F7F6F3"/>
<stop offset="1" stop-color="#FEF6D5"/>
</linearGradient>
<clipPath id="clip0_1_1714">
<rect width="256" height="296" fill="white"/>
</clipPath>
</defs>
</svg>
