<svg width="256" height="274" viewBox="0 0 256 274" fill="none" xmlns="http://www.w3.org/2000/svg">
<g clip-path="url(#clip0_1_1733)">
<path d="M0 242.258V242.087C0 225.058 12.8341 211.111 31.232 211.111C42.5301 211.111 49.2885 214.88 54.8489 220.351L46.4623 230.021C41.8406 225.83 37.1337 223.263 31.1433 223.263C21.0466 223.263 13.7728 231.649 13.7728 241.92V242.091C13.7728 252.361 20.8759 260.919 31.1433 260.919C37.9904 260.919 42.182 258.178 46.889 253.901L55.2755 262.373C49.1179 268.957 42.2741 273.067 30.72 273.067C13.0935 273.067 0 259.461 0 242.258Z" fill="#435363"/>
<path d="M72.5299 212.139H85.7054V235.841H110.008V212.139H123.191V272.039H110.008V247.992H85.7054V272.039H72.5299V212.139Z" fill="#435363"/>
<path d="M144.391 212.156H190.297V224.065H157.693V236.408H186.382V248.321H157.693V261.1H190.73V273.009H144.391V212.156Z" fill="#435363"/>
<path d="M209.92 212.139H255.526V224.119H223.092V236.868H251.675V248.849H223.092V272.039H209.92V212.139Z" fill="#435363"/>
<path d="M129.587 127.668C107.728 127.668 89.9413 109.885 89.9413 88.026C89.9413 66.1636 107.728 48.3768 129.587 48.3768C147.633 48.3768 162.888 60.4975 167.67 77.0214H183.009C177.903 52.2031 155.894 33.4844 129.587 33.4844C99.5157 33.4844 75.049 57.9511 75.049 88.026C75.049 118.097 99.5157 142.564 129.587 142.564C155.894 142.564 177.903 123.849 183.009 99.0306H167.67C162.888 115.551 147.633 127.668 129.587 127.668Z" fill="#435363"/>
<path d="M102.861 114.749C109.708 121.596 119.163 125.839 129.587 125.839V110.032C123.511 110.032 118.009 107.564 114.026 103.584L102.861 114.749Z" fill="#435363"/>
<path d="M91.7743 88.0229C91.7743 93.433 92.928 98.5803 94.9828 103.24L109.442 96.8805C108.247 94.1703 107.578 91.1768 107.578 88.0229C107.578 75.868 117.432 66.0171 129.584 66.0171V50.21C108.735 50.21 91.7743 67.1742 91.7743 88.0229Z" fill="#F38B00"/>
<path d="M143.295 52.7871L137.561 67.5225C142.244 69.3486 146.152 72.7176 148.637 77.0184H165.758C162.379 65.9216 154.023 56.9753 143.295 52.7871Z" fill="#435363"/>
<path d="M137.568 108.524L143.298 123.259C154.027 119.071 162.382 110.121 165.765 99.0244H148.644C146.152 103.329 142.247 106.701 137.568 108.524Z" fill="#F38B00"/>
<path d="M59.6309 109.175C59.3817 108.349 59.1428 107.516 58.9209 106.677C58.9073 106.626 58.8936 106.574 58.88 106.523C58.6752 105.745 58.4874 104.967 58.3065 104.182C58.269 104.021 58.2348 103.861 58.2007 103.7C58.0505 103.028 57.914 102.349 57.7809 101.669C57.7228 101.366 57.6716 101.062 57.6204 100.758C57.5249 100.215 57.4293 99.6761 57.344 99.1265C57.2723 98.6589 57.2108 98.1947 57.1494 97.7271C56.7193 94.539 56.4872 91.2997 56.4906 88.0195H41.5573C41.5539 91.5967 41.7792 95.1295 42.199 98.6179C42.2058 98.693 42.2195 98.7681 42.2297 98.8432C42.3458 99.7921 42.4755 100.741 42.6222 101.68C42.6632 101.939 42.7076 102.199 42.752 102.461C42.8817 103.233 43.0148 104.004 43.165 104.772C43.2401 105.182 43.3288 105.585 43.4141 105.991C43.5404 106.602 43.6701 107.213 43.8101 107.82C43.933 108.353 44.0661 108.885 44.2026 109.418C44.3221 109.892 44.4381 110.367 44.5644 110.841C44.7351 111.469 44.916 112.09 45.0969 112.715C45.172 112.974 45.2403 113.241 45.3188 113.497H45.3256C46.3564 116.907 47.5784 120.235 48.9984 123.457L62.6824 117.439C61.5048 114.77 60.4876 112.005 59.6309 109.175Z" fill="#435363"/>
<path d="M129.587 161.123C109.435 161.123 91.1666 152.918 77.9331 139.681L67.3552 150.259C83.2853 166.189 105.281 176.053 129.587 176.053C174.476 176.053 211.511 142.452 216.927 99.0312H201.858C196.533 134.131 166.154 161.123 129.587 161.123Z" fill="#F38B00"/>
<path d="M129.587 14.9299C145.961 14.9299 161.085 20.3401 173.285 29.4707L182.231 17.4797C167.547 6.5024 149.326 0 129.587 0C92.2351 0 60.3204 23.2653 47.5409 56.0981L61.4707 61.5185C72.1032 34.2767 98.6283 14.9299 129.587 14.9299Z" fill="#F38B00"/>
<path d="M201.858 77.022H216.927C215.313 64.0684 210.882 51.9886 204.267 41.4141L191.577 49.333C196.758 57.6035 200.332 66.9799 201.858 77.022Z" fill="#435363"/>
<path d="M184.88 77.0219H200.001C196.055 51.6677 178.691 30.703 155.423 21.6201L150.023 35.5056C167.718 42.4141 181.101 58.0028 184.88 77.0219Z" fill="#F38B00"/>
<path d="M129.587 31.6517L129.591 16.7627H129.587C99.4031 16.7627 73.5471 35.6248 63.1774 62.1839L77.0526 67.5838C85.2582 46.5747 105.711 31.6517 129.587 31.6517Z" fill="#435363"/>
<path d="M73.216 88.0234H58.327C58.327 117.969 76.899 143.647 103.127 154.174L108.657 140.353C87.907 132.025 73.216 111.712 73.216 88.0234Z" fill="#F38B00"/>
<path d="M129.587 144.394V159.287C165.14 159.287 194.693 133.113 200.001 99.0244H184.876C179.746 124.863 156.907 144.394 129.587 144.394Z" fill="#435363"/>
</g>
<defs>
<clipPath id="clip0_1_1733">
<rect width="256" height="274" fill="white"/>
</clipPath>
</defs>
</svg>
