<svg width="256" height="257" viewBox="0 0 256 257" fill="none" xmlns="http://www.w3.org/2000/svg">
<g clip-path="url(#clip0_1_1785)">
<path d="M127.789 0.0354151C127.789 0.0354151 203.11 -3.34505 243.041 72.3633H121.38C121.38 72.3633 98.4208 71.6239 78.8071 99.4775C73.173 111.168 67.1163 123.211 73.9124 146.945C64.1232 130.359 21.9377 56.9047 21.9377 56.9047C21.9377 56.9047 51.6929 3.02854 127.789 0.0354151Z" fill="#EF3F36"/>
<path d="M239.133 192.23C239.133 192.23 204.378 259.17 118.88 255.86C129.444 237.584 179.728 150.502 179.728 150.502C179.728 150.502 191.877 130.994 177.545 100.077C170.256 89.3366 162.826 78.1036 138.881 72.1173C158.143 71.9412 242.83 72.1173 242.83 72.1173C242.83 72.1173 274.557 124.831 239.133 192.23Z" fill="#FCD900"/>
<path d="M16.9728 192.757C16.9728 192.757 -23.6281 129.197 22.0083 56.7988C32.537 75.0745 82.8215 162.157 82.8215 162.157C82.8215 162.157 93.6671 182.44 127.577 185.468C140.501 184.517 153.952 183.707 171.136 165.995C161.664 182.756 119.161 256 119.161 256C119.161 256 57.6088 257.127 16.9728 192.757Z" fill="#61BC5B"/>
<path d="M118.844 256.494L135.958 185.081C135.958 185.081 154.762 183.602 170.537 166.312C160.748 183.532 118.844 256.494 118.844 256.494Z" fill="#5AB055"/>
<path d="M70.4617 129.057C70.4617 97.5764 95.9912 72.0469 127.472 72.0469C158.952 72.0469 184.482 97.5764 184.482 129.057C184.482 160.538 158.952 186.067 127.472 186.067C95.9912 186.032 70.4617 160.538 70.4617 129.057Z" fill="white"/>
<path d="M80.0044 129.056C80.0044 102.858 101.238 81.5889 127.472 81.5889C153.67 81.5889 174.939 102.822 174.939 129.056C174.939 155.255 153.706 176.524 127.472 176.524C101.273 176.524 80.0044 155.255 80.0044 129.056Z" fill="url(#paint0_linear_1_1785)"/>
<path d="M242.795 72.1524L172.333 92.8226C172.333 92.8226 161.699 77.2231 138.846 72.1524C158.671 72.0468 242.795 72.1524 242.795 72.1524Z" fill="#EACA05"/>
<path d="M72.5391 144.339C62.6442 127.19 21.9377 56.9043 21.9377 56.9043L74.1237 108.527C74.1237 108.527 68.7713 119.549 70.7785 135.324L72.5391 144.339Z" fill="#DF3A32"/>
</g>
<defs>
<linearGradient id="paint0_linear_1_1785" x1="4826.52" y1="148.593" x2="4826.52" y2="9289.3" gradientUnits="userSpaceOnUse">
<stop stop-color="#86BBE5"/>
<stop offset="1" stop-color="#1072BA"/>
</linearGradient>
<clipPath id="clip0_1_1785">
<rect width="256" height="257" fill="white"/>
</clipPath>
</defs>
</svg>
