<svg width="256" height="223" viewBox="0 0 256 223" fill="none" xmlns="http://www.w3.org/2000/svg">
<g clip-path="url(#clip0_1_1767)">
<path d="M255.983 0H0V204.837C0 214.47 7.81422 222.301 17.4641 222.301H238.536C248.169 222.301 256 214.487 256 204.837L255.983 0Z" fill="#F1F3F4"/>
<path d="M255.983 0H0V111.74H255.983V0Z" fill="#E8EAED"/>
<path d="M157.076 47.7274H98.9072C92.4739 47.7274 87.27 42.5235 87.27 36.0903C87.27 29.657 92.4739 24.4531 98.9072 24.4531H157.076C163.509 24.4531 168.713 29.657 168.713 36.0903C168.713 42.5067 163.509 47.7274 157.076 47.7274Z" fill="white"/>
<mask id="mask0_1_1767" style="mask-type:luminance" maskUnits="userSpaceOnUse" x="0" y="0" width="256" height="223">
<path d="M255.983 0H0V204.837C0 214.47 7.81422 222.301 17.4641 222.301H238.536C248.169 222.301 256 214.487 256 204.837L255.983 0Z" fill="black"/>
</mask>
<g mask="url(#mask0_1_1767)">
<path d="M32.2673 149.548L47.5084 196.046L80.1463 232.473L127.992 149.565L223.716 149.548C204.601 116.506 168.898 94.293 127.992 94.293C87.0848 94.293 51.3819 116.506 32.2673 149.548Z" fill="url(#paint0_linear_1_1767)"/>
<path d="M127.975 315.398L160.613 278.954L175.837 232.473H80.1294L32.2673 149.548C13.2201 182.624 11.8223 224.676 32.2841 260.109C52.7291 295.542 89.8298 315.364 127.975 315.398Z" fill="url(#paint1_linear_1_1767)"/>
<path d="M223.716 149.565H127.991L175.854 232.474L127.991 315.399C166.153 315.365 203.254 295.543 223.699 260.11C244.161 224.676 242.763 182.641 223.716 149.565Z" fill="url(#paint2_linear_1_1767)"/>
<path d="M127.992 260.11C158.508 260.11 183.247 235.364 183.247 204.838C183.247 174.312 158.508 149.565 127.992 149.565C97.475 149.565 72.7363 174.312 72.7363 204.838C72.7363 235.364 97.475 260.11 127.992 260.11Z" fill="#F1F3F4"/>
<path d="M127.992 249.752C152.788 249.752 172.89 229.643 172.89 204.837C172.89 180.031 152.788 159.922 127.992 159.922C103.195 159.922 83.0935 180.031 83.0935 204.837C83.0935 229.643 103.195 249.752 127.992 249.752Z" fill="#1A73E8"/>
</g>
<path opacity="0.1" d="M255.983 111.74H0V113.189H255.983V111.74Z" fill="#BDC1C6"/>
<path opacity="0.1" d="M255.983 110.274H0V111.723H255.983V110.274Z" fill="#BDC1C6"/>
</g>
<defs>
<linearGradient id="paint0_linear_1_1767" x1="32.2673" y1="7003.31" x2="19177.1" y2="7003.31" gradientUnits="userSpaceOnUse">
<stop stop-color="#D93025"/>
<stop offset="1" stop-color="#EA4335"/>
</linearGradient>
<linearGradient id="paint1_linear_1_1767" x1="11887" y1="16042.3" x2="2523.28" y2="-175.552" gradientUnits="userSpaceOnUse">
<stop stop-color="#1E8E3E"/>
<stop offset="1" stop-color="#34A853"/>
</linearGradient>
<linearGradient id="paint2_linear_1_1767" x1="6748.93" y1="127.285" x2="-1495.01" y2="14405.8" gradientUnits="userSpaceOnUse">
<stop stop-color="#FBBC04"/>
<stop offset="1" stop-color="#FCC934"/>
</linearGradient>
<clipPath id="clip0_1_1767">
<rect width="256" height="223" fill="white"/>
</clipPath>
</defs>
</svg>
