<svg width="512" height="101" viewBox="0 0 512 101" fill="none" xmlns="http://www.w3.org/2000/svg">
<g clip-path="url(#clip0_1_1761)">
<path d="M392.073 34.317C401.973 34.317 409.422 39.7676 409.422 51.6343V75.3617H399.523L399.815 69.6223C396.87 73.9272 392.952 76.2222 386.875 76.2222C378.739 76.2222 372.069 72.4926 372.069 63.4986C372.069 55.1693 378.934 51.54 388.248 51.4421H399.523C399.523 45.0296 396.582 42.3514 391.29 42.3514C387.029 42.3514 384.192 43.7896 382.07 45.618L374.919 41.5888L374.819 41.4897C374.882 41.4181 374.943 41.3429 375.005 41.2773C378.613 37.1849 383.49 34.317 392.073 34.317ZM399.523 61.293V58.1363H388.935C384.621 58.1363 381.777 59.6687 381.777 63.2121C381.777 66.6541 384.523 68.4694 389.62 68.4694C395.406 68.4706 399.523 65.6946 399.523 61.293ZM504.074 62.9985L512 67.4657C508.102 72.7599 501.752 76.2222 494.562 76.2222C482.705 76.2222 473.098 66.8391 473.098 55.2672C473.098 43.6977 482.705 34.3158 494.562 34.3158C501.742 34.3158 508.072 37.7637 511.975 43.0389L504.048 47.5084C501.667 44.7531 498.203 43.1732 494.562 43.1821C487.736 43.1821 482.181 48.6028 482.181 55.266C482.181 61.928 487.736 67.3523 494.562 67.3523C498.218 67.3647 501.694 65.7732 504.074 62.9985ZM156.292 62.9985L164.218 67.4657C160.32 72.7599 153.97 76.2222 146.781 76.2222C134.923 76.2222 125.315 66.8391 125.315 55.2672C125.315 43.6977 134.922 34.3158 146.781 34.3158C153.959 34.3158 160.291 37.7637 164.193 43.0389L156.266 47.5084C153.886 44.7531 150.422 43.1732 146.781 43.1821C139.954 43.1821 134.399 48.6028 134.399 55.266C134.399 61.928 139.954 67.3523 146.781 67.3523C150.436 67.365 153.913 65.7735 156.292 62.9985ZM301.235 35.1787H311.136L310.94 42.0674C313.688 36.9975 317.902 34.317 323.197 34.317C329.175 34.317 333.101 37.0882 335.256 41.9695C338.49 37.1873 343.392 34.317 349.371 34.317C359.076 34.317 364.858 40.6328 364.858 50.8669V75.3605H354.96V51.8252C354.96 46.2744 352.898 43.2131 347.214 43.2131C341.435 43.2131 337.999 46.6587 337.999 53.3576V75.3617H328.101V51.8252C328.101 46.2744 326.137 43.2131 320.451 43.2131C314.567 43.2131 311.137 46.6587 311.137 53.3576V75.3617H301.236V35.1787H301.235ZM171.377 11.9346H181.275V42.2571C183.925 37.2839 188.828 34.317 195.008 34.317C204.119 34.317 210.396 40.6328 210.396 51.5412V75.3617H200.49V52.305C200.49 46.5632 197.749 43.2131 191.961 43.2131C185.492 43.2131 181.275 47.0418 181.275 53.5486V75.3605H171.377V11.9346ZM271.909 34.317C283.771 34.317 293.377 43.6977 293.377 55.2684C293.377 66.8391 283.771 76.2234 271.909 76.2234C260.055 76.2234 250.443 66.8403 250.443 55.2684C250.443 43.6977 260.055 34.317 271.909 34.317ZM271.909 43.1845C265.086 43.1845 259.529 48.604 259.529 55.2684C259.529 61.9304 265.086 67.3547 271.909 67.3547C278.744 67.3547 284.298 61.9304 284.298 55.2684C284.298 48.604 278.744 43.1833 271.909 43.1845ZM220.238 35.1787H230.143L230.042 42.7345C232.793 36.4211 237.495 34.4113 242.005 34.4113C244.115 34.4113 245.777 34.7574 247.191 35.3422C247.748 35.5689 248.913 36.1155 250.047 36.9438C250.047 36.9438 248.674 38.6099 247.468 40.6364C246.255 42.6653 245.437 44.8398 245.437 44.8398C243.868 44.076 242.298 43.4984 240.046 43.4984C234.163 43.4984 230.143 46.8472 230.143 55.8436V75.3617H220.238V35.1787ZM454.465 75.4214V35.1787H464.481V75.4214H454.465ZM452.896 19.5621C452.896 15.922 455.938 13.2367 459.472 13.2367C463.008 13.2367 466.052 15.922 466.052 19.5621C466.052 23.3931 463.008 25.9806 459.472 25.9806C455.937 25.9806 452.896 23.3943 452.896 19.5621ZM423.376 61.8182V43.3229H417.19V35.1787H423.376V11.9346H433.293V35.1798H444.289V43.3229H433.293V62.0067C433.293 66.6076 434.865 67.9502 437.416 67.9502C439.775 67.9502 441.246 66.894 442.325 66.0323L447.039 72.5475C444.975 74.4654 441.735 76.3821 436.433 76.3821C428.679 76.3821 423.375 72.5487 423.376 61.8182Z" fill="#333333"/>
<path d="M50.1259 100.252C77.8096 100.252 100.252 77.8096 100.252 50.1259C100.252 22.4421 77.8096 0 50.1259 0C22.4421 0 0 22.4421 0 50.1259C0 77.8096 22.4421 100.252 50.1259 100.252Z" fill="#FC521F"/>
<path d="M61.9055 73.1786L53.9403 68.5814L77.9028 54.7597C78.8218 54.2298 79.6871 53.6212 80.4926 52.9433C83.6076 57.3782 83.9131 63.2179 81.1371 68.0276C78.6094 72.3783 73.9597 75.0577 68.9279 75.0631C66.4729 75.0631 64.0466 74.4127 61.9055 73.1774V73.1786ZM59.9864 76.4989C60.9054 77.03 61.8649 77.4763 62.8567 77.8355C60.5688 82.7455 55.6612 85.9297 50.102 85.9297C42.3421 85.9297 36.025 79.6198 36.025 71.8646V44.219L48.1829 51.2354V68.5826C48.1829 69.2676 48.5493 69.9001 49.1425 70.2427L59.9864 76.4989ZM31.3132 75.0607C26.2842 75.0556 21.6368 72.3781 19.1099 68.03C17.2342 64.8029 16.7288 60.9591 17.7064 57.3567C18.6629 53.7471 21.0246 50.6706 24.2645 48.8139L32.2274 44.219L32.2286 71.8598C32.2286 72.9208 32.3193 73.9723 32.5043 75.0142C32.108 75.0452 31.7094 75.0607 31.3132 75.0607ZM62.2993 40.8975L50.145 47.9092L35.1072 39.2362C34.5135 38.8949 33.7831 38.8949 33.1893 39.2362L22.3454 45.4912C21.4265 46.0199 20.56 46.625 19.7532 47.3065C16.6406 42.8727 16.3363 37.0319 19.1099 32.2222C21.637 27.8712 26.2863 25.1913 31.318 25.1855C33.7706 25.1855 36.1993 25.8395 38.3404 27.0736L62.2993 40.8975ZM50.102 14.3213C57.8656 14.3213 64.1791 20.6312 64.1791 28.39V37.5797L40.2237 23.7593C39.3073 23.2286 38.3455 22.7805 37.3498 22.4202C39.6365 17.5067 44.5464 14.3213 50.102 14.3213ZM81.1359 32.227C85.0147 38.945 82.7042 47.5643 75.9813 51.4431L52.0223 65.2635V51.2378L67.0589 42.5624C67.6533 42.2199 68.0197 41.5874 68.0197 40.9023V28.39C68.0197 27.3337 67.9242 26.2811 67.7428 25.244C73.1809 24.7908 78.394 27.5089 81.1359 32.227Z" fill="white"/>
</g>
<defs>
<clipPath id="clip0_1_1761">
<rect width="512" height="101" fill="white"/>
</clipPath>
</defs>
</svg>
