<svg width="256" height="256" viewBox="0 0 256 256" fill="none" xmlns="http://www.w3.org/2000/svg">
<g clip-path="url(#clip0_1_1757)">
<path d="M128 256C198.692 256 256 198.692 256 128C256 57.3075 198.692 0 128 0C57.3075 0 0 57.3075 0 128C0 198.692 57.3075 256 128 256Z" fill="#FC521F"/>
<path d="M158.16 187.016L137.769 175.247L199.113 139.863C201.466 138.507 203.681 136.949 205.743 135.213C213.718 146.567 214.5 161.516 207.393 173.829C200.922 184.967 189.019 191.826 176.138 191.84C169.853 191.84 163.642 190.175 158.16 187.013V187.016ZM153.247 195.515C155.6 196.875 158.056 198.018 160.595 198.937C154.738 211.507 142.175 219.658 127.943 219.658C108.078 219.658 91.9063 203.505 91.9063 183.652V112.879L123.031 130.841V175.25C123.031 177.003 123.969 178.623 125.487 179.5L153.247 195.515ZM79.844 191.834C66.9697 191.821 55.0724 184.966 48.6037 173.835C43.8019 165.574 42.5079 155.734 45.0107 146.512C47.4593 137.271 53.5053 129.395 61.7995 124.642L82.1844 112.879L82.1874 183.639C82.1874 186.356 82.4196 189.047 82.8932 191.715C81.8788 191.794 80.8584 191.834 79.844 191.834ZM159.169 104.376L128.053 122.326L89.5568 100.123C88.0368 99.2492 86.1669 99.2492 84.6469 100.123L56.8866 116.136C54.534 117.489 52.3159 119.038 50.2505 120.783C42.2823 109.433 41.5032 94.48 48.6037 82.1671C55.073 71.0285 66.9752 64.1681 79.8563 64.1531C86.1349 64.1531 92.3524 65.8274 97.8336 68.9866L159.169 104.376ZM127.943 36.3408C147.818 36.3408 163.981 52.4941 163.981 72.3566V95.8823L102.655 60.5021C100.309 59.1436 97.8468 57.9964 95.2977 57.074C101.152 44.4954 113.721 36.3408 127.943 36.3408ZM207.39 82.1794C217.32 99.3776 211.405 121.443 194.194 131.373L132.859 166.753V130.847L171.353 108.638C172.875 107.761 173.813 106.142 173.813 104.388V72.3566C173.813 69.6527 173.568 66.9579 173.104 64.3028C187.025 63.1428 200.371 70.101 207.39 82.1794Z" fill="white"/>
</g>
<defs>
<clipPath id="clip0_1_1757">
<rect width="256" height="256" fill="white"/>
</clipPath>
</defs>
</svg>
