<svg width="512" height="156" viewBox="0 0 512 156" fill="none" xmlns="http://www.w3.org/2000/svg">
<g clip-path="url(#clip0_1_1795)">
<path d="M496.689 83.7797L506.104 93.1942V112.879L498.877 120.107L506.104 127.334V145.592L506.865 146.353H512V155.292H499.447L493.837 149.682V129.806L488.987 124.956H467.21V146.448H475.768V155.387H447.049L447.144 146.353H455.037V92.7188H447.144V83.7797H496.689ZM372.398 83.7797L382.669 94.0501V145.022L372.398 155.292H323.423V146.353H331.317V92.7188H323.423V83.7797H372.398ZM318.574 83.6846V92.6236H311.346V155.197H299.554L269.979 103.084V146.258H278.823V155.197H251.34V146.353H259.233V92.7188H251.34V83.7797H271.12L300.6 135.322V92.6236H291.756V83.6846H318.574ZM441.533 83.7797V102.799H431.168V92.6236H407.013V114.401H434.687V123.91H407.013V146.258H431.263V136.083H441.724V155.102H386.948V146.353H394.841V92.7188H386.948V83.7797H441.533ZM195.328 83.7797L205.123 93.5746V106.413H193.046V97.5687L188.577 93.0991H170.413L165.563 97.9491V140.933L170.413 145.783H188.577L193.046 141.313V131.994H205.123V145.212L195.328 155.007H163.661L153.391 145.117V93.955L163.661 83.7797H195.328ZM365.551 93.1942H343.489V145.973H365.551L370.401 141.123V98.0442L365.551 93.1942ZM489.557 92.7188H467.21V115.827H489.177L493.837 111.167V97.0932L489.557 92.7188Z" fill="#58585A"/>
<path d="M246.681 132.47H233.652V143.881H246.681V132.47Z" fill="#F05129"/>
<path d="M225.379 132.47H212.541V143.881H225.379V132.47Z" fill="#F05129"/>
<path d="M235.364 121.059H223.952V134.182H235.364V121.059Z" fill="#F15A22"/>
<path d="M235.364 142.455H223.952V155.293H235.364V142.455Z" fill="#BE1E2D"/>
<path d="M235.364 83.9707H223.952V96.5235H235.364V83.9707Z" fill="#FFD529"/>
<path d="M235.364 104.987H223.952V118.016H235.364V104.987Z" fill="#F36C21"/>
<path d="M226.045 95.2871H212.541V106.699H226.045V95.2871Z" fill="#FBB040"/>
<path d="M246.681 95.2871H233.652V106.699H246.681V95.2871Z" fill="#FBB040"/>
<path d="M235.364 95.2871H223.952V106.699H235.364V95.2871Z" fill="#F7941E"/>
<path d="M235.364 132.47H223.952V143.881H235.364V132.47Z" fill="#D51920"/>
<path d="M60.7667 51.3525H52.6835V58.3897H60.7667V51.3525Z" fill="#EF4123"/>
<path d="M73.6998 51.3525H65.1411V58.3897H73.6998V51.3525Z" fill="#EF4123"/>
<path d="M66.7578 44.3154H59.7206V52.8741H66.7578V44.3154Z" fill="#F15A22"/>
<path d="M66.7578 56.8682H59.7206V65.3318H66.7578V56.8682Z" fill="#C9252C"/>
<path d="M66.7578 51.3525H59.7206V58.3897H66.7578V51.3525Z" fill="#ED1C24"/>
<path d="M84.2556 31.5723H79.1204V37.8486H84.2556V31.5723Z" fill="#F7941E"/>
<path d="M84.2556 40.6064H79.1204V46.8828H84.2556V40.6064Z" fill="#ED1C24"/>
<path d="M89.2957 36.707H83.1144V41.8422H89.2957V36.707Z" fill="#F58220"/>
<path d="M79.786 36.707H73.9851V41.8422H79.786V36.707Z" fill="#F58220"/>
<path d="M84.2556 36.707H79.1204V41.8422H84.2556V36.707Z" fill="#F15A22"/>
<path d="M68.8499 69.8008H65.8068V73.6997H68.8499V69.8008Z" fill="#DA2128"/>
<path d="M68.8499 75.6016H65.8068V79.1201H68.8499V75.6016Z" fill="#962F34"/>
<path d="M71.9881 72.9395H68.2793V75.9825H71.9881V72.9395Z" fill="#C9252C"/>
<path d="M66.4725 72.9395H62.7637V75.9825H66.4725V72.9395Z" fill="#C9252C"/>
<path d="M68.8499 72.9395H65.8068V75.9825H68.8499V72.9395Z" fill="#B8292F"/>
<path d="M56.7727 26.5322H50.3061V31.8576H56.7727V26.5322Z" fill="#F7941E"/>
<path d="M66.0921 26.5322H59.8157V31.8576H66.0921V26.5322Z" fill="#F7941E"/>
<path d="M60.8618 21.3018H55.5364V27.5781H60.8618V21.3018Z" fill="#FAA61A"/>
<path d="M60.8618 30.9062H55.5364V37.1826H60.8618V30.9062Z" fill="#F15A22"/>
<path d="M60.8618 26.5322H55.5364V31.8576H60.8618V26.5322Z" fill="#F37021"/>
<path d="M81.4978 0H73.795V10.1753H81.4978V0Z" fill="#FFF200"/>
<path d="M81.4978 14.1689H73.795V23.108H81.4978V14.1689Z" fill="#F7941E"/>
<path d="M89.2957 7.70312H80.0713V15.4059H89.2957V7.70312Z" fill="#FFDD00"/>
<path d="M75.792 7.70312H66.0921V15.4059H75.792V7.70312Z" fill="#FFDD00"/>
<path d="M81.4978 7.70312H73.795V15.4059H81.4978V7.70312Z" fill="#FDB913"/>
<path d="M0 155.292L52.6835 76.2666L105.367 155.292H0Z" fill="#58585A"/>
<path d="M34.9005 155.292L88.8202 64.8555L140.172 155.292H34.9005Z" fill="#58585A"/>
</g>
<defs>
<clipPath id="clip0_1_1795">
<rect width="512" height="156" fill="white"/>
</clipPath>
</defs>
</svg>
