<svg width="256" height="199" viewBox="0 0 256 199" fill="none" xmlns="http://www.w3.org/2000/svg">
<g clip-path="url(#clip0_1_1850)">
<path d="M162.614 141.315H93.3915V16.9131H162.614V141.315Z" fill="#2271CE"/>
<path d="M97.7829 79.1168C97.7829 53.8814 109.598 31.4024 127.998 16.916C114.543 6.32288 97.5616 0.000183105 79.1066 0.000183105C35.4161 0.000183105 0 35.4213 0 79.1168C0 122.812 35.4161 158.233 79.1066 158.233C97.5616 158.233 114.543 151.911 127.998 141.318C109.598 126.831 97.7829 104.352 97.7829 79.1168Z" fill="#005EB6"/>
<path d="M256 79.1168C256 122.812 220.584 158.233 176.893 158.233C158.438 158.233 141.457 151.911 128.002 141.318C146.402 126.831 158.217 104.352 158.217 79.1168C158.217 53.8814 146.402 31.4024 128.002 16.916C141.457 6.32288 158.438 0.000183105 176.893 0.000183105C220.584 0.000183105 256 35.4213 256 79.1168Z" fill="#0099DF"/>
<path d="M181.701 178.644C179.503 177.195 176.47 176.446 173.135 176.446C167.813 176.446 164.388 178.996 164.388 183.171C164.388 186.596 166.938 188.704 171.636 189.368L173.794 189.675C176.294 190.027 177.481 190.686 177.481 191.868C177.481 193.498 175.811 194.418 172.692 194.418C169.528 194.418 167.245 193.407 165.706 192.22L163.553 195.781C166.058 197.627 169.221 198.507 172.647 198.507C178.713 198.507 182.229 195.65 182.229 191.652C182.229 187.96 179.463 186.028 174.89 185.364L172.737 185.057C170.761 184.796 169.176 184.398 169.176 182.995C169.176 181.456 170.67 180.535 173.175 180.535C175.856 180.535 178.451 181.546 179.724 182.336L181.701 178.644ZM73.7767 187.476C73.7767 193.849 78.2132 198.506 84.9835 198.506C88.1474 198.506 90.255 197.802 92.5386 196.001L90.3405 192.309C88.6303 193.542 86.8295 194.201 84.8477 194.201C81.201 194.155 78.525 191.52 78.525 187.476C78.525 183.432 81.201 180.796 84.8477 180.751C86.8295 180.751 88.6303 181.409 90.3405 182.642L92.5386 178.95C90.255 177.149 88.1474 176.445 84.9835 176.445C78.2132 176.445 73.7767 181.103 73.7767 187.476ZM117.831 176.446C115.196 176.446 113.48 177.679 112.293 179.525V176.975H107.771V197.98H112.339V186.2C112.339 182.729 113.833 180.797 116.82 180.797C117.746 180.797 118.712 180.928 119.677 181.325L121.081 177.02C120.075 176.622 118.752 176.446 117.831 176.446ZM134.804 176.446C132.168 176.446 130.453 177.679 129.266 179.525V176.975H124.744V197.98H129.311V186.2C129.311 182.729 130.805 180.797 133.793 180.797C134.718 180.797 135.684 180.928 136.65 181.325L138.053 177.02C137.047 176.622 135.724 176.446 134.804 176.446ZM102.784 197.97H98.187V176.995H102.784V197.97ZM100.461 166.513C100.913 166.513 101.336 166.593 101.733 166.764C102.127 166.93 102.467 167.161 102.759 167.453C103.049 167.745 103.282 168.087 103.448 168.479C103.621 168.877 103.698 169.299 103.698 169.752C103.698 170.205 103.617 170.627 103.448 171.02C103.283 171.417 103.05 171.754 102.759 172.041C102.469 172.322 102.125 172.549 101.733 172.705C101.335 172.866 100.913 172.946 100.461 172.946C100.008 172.946 99.5854 172.866 99.193 172.705C98.7947 172.549 98.4587 172.322 98.1718 172.041C97.8901 171.754 97.6687 171.417 97.5078 171.02C97.3468 170.627 97.2664 170.205 97.2664 169.752C97.2664 169.299 97.3468 168.877 97.5078 168.479C97.6687 168.087 97.8901 167.745 98.1718 167.453C98.4575 167.162 98.7955 166.93 99.193 166.764C99.5874 166.593 100.008 166.513 100.461 166.513ZM160.722 189.083C160.722 190.748 160.446 192.177 159.902 193.374C159.354 194.571 158.635 195.547 157.739 196.306C156.844 197.066 155.823 197.624 154.671 197.981C153.514 198.338 152.332 198.519 151.125 198.519C149.913 198.519 148.731 198.338 147.579 197.981C146.422 197.624 145.396 197.066 144.495 196.306C143.595 195.547 142.876 194.571 142.333 193.374C141.794 192.177 141.523 190.748 141.523 189.083V176.996H146.065V188.666C146.065 189.672 146.196 190.532 146.452 191.241C146.714 191.945 147.071 192.519 147.524 192.956C147.976 193.394 148.514 193.716 149.133 193.912C149.752 194.108 150.416 194.209 151.125 194.209C151.829 194.209 152.493 194.108 153.112 193.912C153.731 193.716 154.269 193.394 154.721 192.956C155.179 192.519 155.531 191.945 155.793 191.241C156.054 190.532 156.18 189.672 156.18 188.666V176.996H160.722V189.083Z" fill="#231F20"/>
</g>
<defs>
<clipPath id="clip0_1_1850">
<rect width="256" height="199" fill="white"/>
</clipPath>
</defs>
</svg>
