<svg width="256" height="256" viewBox="0 0 256 256" fill="none" xmlns="http://www.w3.org/2000/svg">
<g clip-path="url(#clip0_1_1856)">
<path d="M6.34558 6.34766H249.804V249.658H6.34558V6.34766Z" fill="#351330"/>
<path d="M256 0H0V256.002H256V0ZM246.034 9.97128V246.031H9.96563V9.97128H246.034Z" fill="#CC2A41"/>
<path d="M172.534 166.936L161.863 170.876C156.378 164.175 153.151 156.466 149.884 148.78C149.433 147.584 148.983 146.391 148.532 145.196C147.432 142.471 146.464 139.685 145.625 136.171C143.735 128.138 141.677 120.58 139.876 112.055C137.114 120.078 134.351 128.102 131.589 136.125C130.508 139.165 129.426 142.204 128.346 145.244C125.25 153.798 122.155 162.352 118.99 171.1L109.038 168.908C111.905 160.96 114.724 153.147 117.542 145.334C118.686 142.28 119.829 139.225 120.973 136.171C124.648 126.411 128.324 116.652 132 106.892C132.35 105.964 132.708 104.967 133.105 103.921H137.319C134.491 92.5601 127.588 85.6633 115.552 84.4141C116.098 81.5799 116.609 78.8584 117.152 76.0371C125.113 76.8523 132.474 78.4379 138.299 84.8051C144.124 91.1723 146.152 95.8662 148.017 102.581C149.167 106.724 150.242 110.888 151.351 115.044C152.836 120.53 154.32 126.017 155.804 131.503C156.242 133.077 156.68 134.651 157.118 136.225C158.195 139.265 159.272 142.305 160.349 145.345C162.887 153.307 166.819 160.498 172.534 166.936Z" fill="#504E4D"/>
<path d="M76.7406 136.458V145.404C144.983 145.404 179.104 145.404 179.104 145.404C177.119 146.427 168.655 155.286 153.71 171.98L161.533 178.956L195.337 140.867L161.533 102.78L153.71 109.472C167.805 125.564 176.269 134.56 179.104 136.458C179.104 136.458 144.983 136.458 76.7406 136.458Z" fill="#CC2A41"/>
<path d="M149.643 166.936L138.973 170.876C133.488 164.175 130.261 156.466 126.994 148.78C126.543 147.584 126.092 146.391 125.641 145.196C124.541 142.471 123.574 139.685 122.734 136.171C120.844 128.138 118.787 120.58 116.986 112.055C114.223 120.078 111.461 128.102 108.698 136.125C107.617 139.165 106.536 142.204 105.455 145.244C102.36 153.798 99.265 162.352 96.0999 171.1L86.1477 168.908C89.0148 160.96 91.8331 153.147 94.6514 145.334C95.7954 142.28 96.939 139.225 98.0825 136.171C101.758 126.411 105.434 116.652 109.11 106.892C109.459 105.964 109.818 104.967 110.215 103.921H114.429C111.6 92.5601 104.698 85.6633 92.6612 84.4141C93.2073 81.5799 93.7181 78.8584 94.2612 76.0371C102.223 76.8523 109.584 78.4379 115.409 84.8051C121.234 91.1723 123.262 95.8662 125.126 102.581C126.276 106.724 127.352 110.888 128.46 115.044C129.945 120.53 131.43 126.017 132.914 131.503C133.352 133.077 133.79 134.651 134.228 136.225C135.305 139.265 136.381 142.305 137.458 145.345C139.996 153.307 143.929 160.498 149.643 166.936Z" fill="#E8CAA4"/>
</g>
<defs>
<clipPath id="clip0_1_1856">
<rect width="256" height="256" fill="white"/>
</clipPath>
</defs>
</svg>
