<svg width="512" height="75" viewBox="0 0 512 75" fill="none" xmlns="http://www.w3.org/2000/svg">
<g clip-path="url(#clip0_1_1924)">
<path d="M33.9188 0.00055085C41.0598 -0.0610044 47.2016 5.0428 48.4477 12.0745C55.1634 9.51881 62.7406 12.2259 66.3165 18.4585L66.3229 18.4712L66.3896 18.5983C69.8385 24.7369 68.4566 32.4584 63.0928 37.0198C68.6507 41.5891 70.0967 49.5037 66.5135 55.7431L66.4763 55.805L66.4341 55.8638C62.8834 61.9414 55.4973 64.6141 48.8796 62.216C47.7982 69.3039 41.7333 74.5597 34.5636 74.6226C27.394 74.6844 21.2386 69.5349 20.034 62.4669C13.5331 64.9403 6.22514 62.4824 2.52091 56.6687L2.483 56.609L2.55 56.721L2.16198 56.0893C2.1493 56.0684 2.13739 56.0471 2.12626 56.0254L2.09528 55.959C-1.35702 49.8216 0.0238271 42.0984 5.38893 37.5375C-0.182275 32.9692 -1.62961 25.0404 1.96824 18.7984L2.00516 18.7368L2.04447 18.6777C5.6041 12.6089 12.9835 9.93913 19.6021 12.3254C20.7257 5.2731 26.7778 0.0632279 33.9188 0.00055085ZM33.9995 2.55875C27.5092 2.58339 22.2677 7.8647 22.2923 14.355C22.3099 14.626 22.2516 14.8966 22.1239 15.1363C21.9447 15.4734 21.6385 15.7253 21.2732 15.8361C20.9078 15.947 20.5133 15.9077 20.177 15.7271L19.9025 15.585C14.3932 12.8229 7.65592 14.7907 4.51232 20.1323C4.49514 20.1703 4.47606 20.2074 4.45514 20.2435L4.30218 20.5173C1.3231 26.0175 3.1484 32.9178 8.50788 36.2131C8.74478 36.332 8.94386 36.5145 9.08276 36.7403C9.50189 37.418 9.29633 38.3069 8.62222 38.7317L8.301 38.939L8.09773 39.0792C3.25902 42.4908 1.67726 48.9904 4.45122 54.2569L4.60125 54.533C4.62635 54.5677 4.64967 54.6038 4.67112 54.6409L4.83058 54.9102C8.08075 60.2375 14.9575 62.1076 20.4723 59.1098C20.9073 58.824 21.4629 58.796 21.9244 59.0366C22.3858 59.2773 22.6809 59.7488 22.6956 60.269L22.7147 60.7645L22.689 60.276L22.6952 60.5998C22.8213 64.56 24.9365 68.1919 28.3188 70.2557L28.6036 70.424C32.2475 72.5095 36.7272 72.4926 40.3553 70.3796C43.9833 68.2666 46.2085 64.3786 46.1926 60.1801C46.1558 59.6573 46.4062 59.1559 46.8461 58.8712C47.2861 58.5865 47.8461 58.5635 48.3079 58.8112L48.5867 58.9552C54.0912 61.7066 60.8166 59.741 63.9599 54.4091L64.017 54.2947C67.2143 48.7568 65.4229 41.6855 59.9802 38.3347C59.5148 38.0977 59.2126 37.6288 59.1889 37.1071C59.1653 36.5853 59.4238 36.0911 59.8658 35.8129C65.2086 32.4582 66.9799 25.5059 63.8963 20.0053C63.8723 19.9716 63.85 19.9366 63.8296 19.9005L63.6704 19.631C60.4243 14.2979 53.5415 12.4276 48.0284 15.4348C47.8069 15.5802 47.55 15.6625 47.2852 15.6731C46.4881 15.698 45.8215 15.0726 45.7956 14.2756C45.771 7.77577 40.4897 2.53428 33.9995 2.55875ZM24.8353 40.5437C25.5625 39.1133 27.282 38.5023 28.7488 39.153C30.2155 39.8038 30.9163 41.4887 30.3437 42.9877C29.8324 44.0803 29.8038 44.7251 30.15 45.4937L32.7798 51.0932C33.2944 52.2207 34.4092 52.6019 35.3207 52.8242C38.1792 53.5137 40.2468 56.003 40.3992 58.9426C40.5517 61.8823 38.7527 64.5721 35.9777 65.5539C33.2027 66.5357 30.1124 65.5756 28.3823 63.1941C26.6522 60.8126 26.6943 57.5769 28.4857 55.2412C29.2194 54.282 29.4385 53.6119 29.159 52.4081L27.7488 46.3544C27.5551 45.5731 27.1549 45.1824 26.0179 44.525C24.6278 43.7234 24.1082 41.9741 24.8353 40.5437ZM25.9056 30.955C27.5169 30.8716 28.911 32.0654 29.0764 33.6704C29.2418 35.2753 28.1205 36.7284 26.526 36.9753C25.3255 37.0738 24.7538 37.3723 24.2583 38.0584L20.736 43.1402C20.0213 44.1502 20.2468 45.3095 20.5136 46.2115C21.3467 49.0466 20.2149 52.0919 17.7325 53.6949C15.2501 55.298 12.0089 55.0765 9.76759 53.1508C7.52629 51.225 6.81925 48.0541 8.03014 45.3586C9.24103 42.6631 12.0812 41.0857 15.0094 41.4823C16.2068 41.6411 16.896 41.4981 17.7949 40.6533L22.3177 36.4005C22.8989 35.8415 23.0323 35.2983 23.0323 33.9834C23.031 32.37 24.2943 31.0385 25.9056 30.955ZM48.4286 43.2736C49.969 41.6397 52.2321 40.8973 54.441 41.3012C57.5866 41.8692 59.887 44.5891 59.9251 47.7853C59.9633 50.9816 57.7285 53.7555 54.5973 54.3985C51.4661 55.0414 48.3191 53.3725 47.0946 50.4199C46.6341 49.2987 46.1672 48.7746 44.9857 48.4157L39.059 46.6149C38.2841 46.3925 37.7505 46.545 36.6166 47.2025C35.9987 47.5635 35.2718 47.6908 34.568 47.5614C32.964 47.224 31.9191 45.6723 32.2096 44.0592C32.5001 42.4461 34.0206 41.3564 35.6415 41.5998C36.354 41.727 36.9962 42.1084 37.4487 42.6733C38.1348 43.6674 38.6811 44.0168 39.5132 44.0962L45.6654 44.6139C46.8945 44.7314 47.7934 43.9533 48.4286 43.2736ZM48.2172 20.6995C50.3088 18.4355 53.6969 17.8934 56.3996 19.4229C59.1794 20.9961 60.4537 24.3193 59.4384 27.3478C58.4231 30.3763 55.4032 32.2599 52.2368 31.8395C51.0426 31.6776 50.3533 31.8237 49.4545 32.6685L44.938 36.9182C44.3568 37.4803 44.2234 38.0203 44.2234 39.3384C44.2248 40.6773 43.3455 41.8577 42.0622 42.2396C40.779 42.6215 39.3973 42.114 38.6664 40.9922C37.9355 39.8704 38.0293 38.4015 38.897 37.3819C39.3631 36.8271 40.0139 36.4593 40.7297 36.3465C41.9334 36.248 42.5051 35.9494 42.9911 35.2634L46.5102 30.1816C47.228 29.1684 46.9993 28.0123 46.7357 27.1071C46.0955 24.9497 46.5863 22.6148 48.0411 20.8978L48.2172 20.6995ZM33.4849 7.3262C36.0322 7.32454 38.3581 8.77391 39.4788 11.0614C40.5996 13.3489 40.3196 16.075 38.7573 18.0869C38.0331 19.0398 37.8045 19.7099 38.0998 20.9295L39.51 26.9642C39.7038 27.7487 40.104 28.1394 41.2379 28.7936C42.6281 29.5945 43.1484 31.3433 42.4221 32.774C41.6959 34.2046 39.977 34.8167 38.51 34.1671C37.043 33.5175 36.3409 31.8334 36.912 30.3341C37.4233 29.2415 37.4551 28.5935 37.1057 27.8281L34.4791 22.2254C33.9614 21.0979 32.8497 20.7167 31.9382 20.4976L31.9255 20.5039C29.06 19.806 26.9904 17.313 26.8316 14.368C26.6728 11.4231 28.4624 8.722 31.2362 7.72004C31.9571 7.45851 32.7181 7.32521 33.4849 7.3262ZM12.6575 18.9228C15.7891 18.2795 18.9367 19.9486 20.1611 22.9019C20.6216 24.0199 21.0917 24.5472 22.27 24.9061L28.1999 26.7069C28.9717 26.9292 29.5084 26.7736 30.6423 26.1162C32.0374 25.3091 33.8201 25.7354 34.6992 27.0862C35.5783 28.4371 35.246 30.2397 33.9431 31.1884C32.6402 32.1371 30.8227 31.8999 29.807 30.6485C29.1209 29.6544 28.5778 29.305 27.7425 29.2256L21.5935 28.7079C20.3644 28.5904 19.4655 29.3653 18.8303 30.0482C17.2883 31.6795 15.0266 32.4215 12.8179 32.0206C9.67147 31.4541 7.36951 28.7347 7.33035 25.5379C7.2912 22.3412 9.52586 19.5662 12.6575 18.9228Z" fill="#005EEC"/>
<path d="M113.714 49.2131C112.153 50.9429 110.314 52.3996 108.273 53.5231C106.234 54.6453 103.587 55.2053 100.333 55.2032C97.9931 55.2241 95.6737 54.767 93.5169 53.8597C89.4457 52.1727 86.2199 48.9252 84.5602 44.8427C83.7048 42.7583 83.2729 40.5244 83.2898 38.2713V38.1474C83.2748 35.8853 83.7065 33.6424 84.5602 31.5474C85.382 29.5227 86.5866 27.6754 88.108 26.1067C89.6444 24.5352 91.4804 23.2878 93.5074 22.4383C95.7042 21.5234 98.0645 21.0663 100.444 21.0948C103.544 21.0948 106.111 21.5839 108.146 22.5622C110.187 23.5408 112.015 24.9114 113.527 26.5959L107.838 32.6972C106.876 31.673 105.776 30.7879 104.57 30.0674C103.282 29.377 101.834 29.0416 100.374 29.0955C99.2651 29.0798 98.1674 29.32 97.1663 29.7974C96.2086 30.2645 95.3552 30.9203 94.6571 31.7253C93.9296 32.5643 93.369 33.5345 93.0056 34.5838C92.6182 35.6878 92.4248 36.8505 92.4338 38.0204V38.1411C92.4245 39.3481 92.6211 40.5479 93.0151 41.6888C93.3797 42.7438 93.9509 43.7155 94.6952 44.5473C95.43 45.3639 96.3253 46.0202 97.3251 46.4752C98.402 46.9547 99.5703 47.1942 100.749 47.1772C102.163 47.2059 103.561 46.8783 104.814 46.2243C106.066 45.5236 107.226 44.6701 108.267 43.6834L113.714 49.2131ZM126.307 54.4695H117.008V9.8291H126.301L126.307 54.4695ZM165.733 38.1474C165.745 40.4234 165.286 42.6773 164.383 44.7665C163.504 46.7924 162.237 48.6267 160.654 50.1659C159.03 51.7357 157.12 52.9808 155.029 53.8343C152.778 54.7475 150.369 55.2042 147.94 55.1778C145.533 55.2007 143.144 54.7541 140.908 53.8629C138.827 53.0434 136.926 51.8253 135.312 50.2771C133.739 48.7432 132.482 46.9151 131.615 44.8967C130.712 42.8032 130.254 40.5448 130.271 38.265V38.1411C130.254 35.8612 130.712 33.6028 131.615 31.5093C132.493 29.4834 133.76 27.6491 135.343 26.1099C136.966 24.538 138.876 23.2926 140.968 22.4415C143.219 21.5283 145.629 21.0716 148.057 21.098C150.465 21.0751 152.853 21.5218 155.089 22.4129C157.171 23.2372 159.072 24.462 160.682 26.0178C162.255 27.5517 163.512 29.3798 164.379 31.3982C165.282 33.4916 165.74 35.7501 165.723 38.0299L165.733 38.1474ZM156.563 38.2713V38.1474C156.572 36.9672 156.367 35.7952 155.956 34.6886C155.149 32.5344 153.519 30.7896 151.424 29.8387C150.327 29.3409 149.135 29.0905 147.93 29.105C146.702 29.0819 145.483 29.3212 144.354 29.8069C143.343 30.2566 142.437 30.9133 141.696 31.7348C140.951 32.5674 140.379 33.5388 140.012 34.5934C139.626 35.6943 139.432 36.8537 139.441 38.0204V38.1411C139.434 39.3185 139.642 40.4872 140.053 41.5904C140.86 43.7349 142.473 45.479 144.548 46.4498C145.65 46.9523 146.85 47.203 148.061 47.1835C149.289 47.2066 150.508 46.9673 151.637 46.4816C152.648 46.032 153.554 45.3752 154.295 44.5537C155.038 43.7259 155.61 42.7599 155.979 41.7111C156.369 40.6045 156.565 39.4384 156.557 38.265L156.563 38.2713ZM199.05 54.4695H189.75V49.8165C189.215 50.5175 188.634 51.1817 188.01 51.8048C187.371 52.4409 186.664 53.0044 185.901 53.4849C185.1 53.9855 184.236 54.3765 183.331 54.6474C182.3 54.9464 181.229 55.0909 180.155 55.0762C176.611 55.0762 173.871 53.9963 171.935 51.8365C170 49.6768 169.032 46.7018 169.032 42.9116V21.6983H178.323V39.9769C178.323 42.1769 178.812 43.8369 179.79 44.9571C180.768 46.0772 182.154 46.6383 183.948 46.6404C185.739 46.6404 187.154 46.0793 188.194 44.9571C189.234 43.8348 189.754 42.1748 189.754 39.9769V21.6983H199.047L199.05 54.4695ZM237.132 54.4695H227.835V49.7562C226.716 51.2798 225.314 52.5738 223.706 53.5675C222.099 54.5648 220.072 55.0645 217.624 55.0667C215.717 55.0714 213.827 54.7012 212.063 53.9772C210.261 53.2373 208.637 52.1233 207.298 50.709C205.854 49.1719 204.722 47.3696 203.963 45.4017C203.089 43.0883 202.664 40.6296 202.709 38.157V38.0363C202.664 35.5636 203.089 33.1049 203.963 30.7915C204.715 28.8254 205.835 27.0208 207.263 25.4747C208.588 24.0548 210.205 22.9387 212.002 22.2033C213.786 21.4719 215.696 21.0985 217.624 21.1043C220.112 21.1043 222.161 21.5935 223.77 22.5717C225.301 23.4851 226.674 24.6402 227.835 25.9924V9.8291H237.125L237.132 54.4695ZM227.962 38.1474V38.0267C227.98 36.7658 227.764 35.5126 227.327 34.3297C226.939 33.2741 226.358 32.2995 225.615 31.4553C224.919 30.6738 224.065 30.0491 223.109 29.6227C221.14 28.7674 218.904 28.7674 216.935 29.6227C215.971 30.0529 215.106 30.6767 214.394 31.4553C213.638 32.2892 213.047 33.2592 212.653 34.3139C212.211 35.5063 211.996 36.771 212.018 38.0426V38.1633C212.001 39.4253 212.216 40.6796 212.653 41.8635C213.046 42.9188 213.636 43.8892 214.394 44.722C215.106 45.5016 215.971 46.1265 216.935 46.5578C218.904 47.4131 221.14 47.4131 223.109 46.5578C224.065 46.1302 224.919 45.5045 225.615 44.722C226.357 43.8828 226.937 42.9137 227.327 41.8635C227.765 40.6722 227.978 39.4101 227.956 38.1411L227.962 38.1474ZM283.983 54.4695H274.991V50.9186C273.84 52.1897 272.447 53.2187 270.894 53.9455C269.306 54.6993 267.371 55.0762 265.088 55.0762C263.607 55.0871 262.134 54.8729 260.718 54.441C259.409 54.0432 258.193 53.3878 257.141 52.5131C256.118 51.6516 255.294 50.5775 254.728 49.3655C254.114 48.0132 253.811 46.5404 253.841 45.0555V44.9348C253.799 43.3307 254.134 41.7391 254.82 40.2881C255.452 39.0049 256.384 37.8935 257.538 37.0485C258.79 36.1504 260.201 35.4973 261.696 35.1238C263.444 34.6808 265.242 34.4672 267.045 34.4885C268.51 34.4701 269.973 34.5924 271.415 34.8538C272.651 35.0918 273.869 35.4144 275.061 35.8193V35.2699C275.061 33.3134 274.47 31.8312 273.289 30.8233C272.107 29.8154 270.355 29.3062 268.032 29.2956C266.441 29.2753 264.852 29.4287 263.294 29.7529C261.827 30.0885 260.387 30.5279 258.984 31.0679L256.64 23.9597C258.46 23.1739 260.341 22.5366 262.264 22.054C264.589 21.5249 266.97 21.2786 269.354 21.3203C274.448 21.3203 278.154 22.5632 280.47 25.0491C282.786 27.5349 283.951 30.999 283.964 35.4414L283.983 54.4695ZM275.182 42.918V41.2727C274.306 40.8868 273.395 40.5899 272.46 40.3866C271.406 40.1557 270.33 40.0428 269.252 40.0499C267.253 40.0499 265.684 40.4374 264.545 41.2124C263.421 41.9519 262.771 43.229 262.833 44.5727V44.6966C262.779 45.8491 263.308 46.9517 264.24 47.6313C265.178 48.3237 266.4 48.6699 267.905 48.6699C270.105 48.6699 271.868 48.1406 273.194 47.0819C274.486 46.0915 275.224 44.5396 275.175 42.9116L275.182 42.918ZM317.659 49.2131C316.098 50.9395 314.261 52.394 312.222 53.5167C310.183 54.6389 307.536 55.199 304.281 55.1969C301.942 55.2178 299.622 54.7606 297.465 53.8534C293.394 52.1664 290.168 48.9188 288.509 44.8364C287.653 42.7519 287.221 40.518 287.238 38.265V38.1411C287.223 35.8789 287.655 33.636 288.509 31.5411C289.331 29.5163 290.535 27.669 292.057 26.1004C293.593 24.5289 295.429 23.2815 297.456 22.432C299.653 21.5171 302.013 21.0599 304.393 21.0885C307.49 21.0885 310.058 21.5776 312.095 22.5558C314.135 23.5352 315.963 24.9057 317.475 26.5895L311.79 32.6972C310.827 31.6729 309.726 30.7877 308.518 30.0674C307.4 29.4152 306.005 29.0891 304.332 29.0891C303.223 29.0735 302.126 29.3137 301.124 29.791C300.168 30.2585 299.315 30.9143 298.618 31.719C297.891 32.5579 297.33 33.5281 296.967 34.5775C296.574 35.6859 296.378 36.8541 296.386 38.0299V38.1506C296.38 39.355 296.58 40.5515 296.976 41.6888C297.341 42.7438 297.912 43.7155 298.656 44.5473C299.391 45.3639 300.287 46.0202 301.286 46.4752C302.363 46.9551 303.531 47.1947 304.71 47.1772C306.123 47.2064 307.52 46.8786 308.772 46.2243C310.026 45.5245 311.186 44.6709 312.228 43.6834L317.659 49.2131ZM348.712 54.4695H339.727V50.9186C338.575 52.1884 337.182 53.2171 335.63 53.9455C334.042 54.6993 332.106 55.0762 329.824 55.0762C328.343 55.0875 326.87 54.8733 325.453 54.441C324.144 54.044 322.928 53.3884 321.877 52.5131C320.853 51.6509 320.029 50.5771 319.46 49.3655C318.846 48.0132 318.543 46.5404 318.574 45.0555V44.9348C318.533 43.3309 318.868 41.7396 319.552 40.2881C320.186 39.0055 321.12 37.8943 322.274 37.0485C323.526 36.1498 324.937 35.4967 326.432 35.1238C328.179 34.6805 329.977 34.467 331.78 34.4885C333.245 34.4703 334.709 34.5926 336.151 34.8538C337.384 35.0964 338.599 35.4233 339.787 35.832V35.2699C339.787 33.3134 339.197 31.8312 338.015 30.8233C336.834 29.8154 335.081 29.3062 332.759 29.2956C331.167 29.2753 329.578 29.4287 328.02 29.7529C326.554 30.0885 325.113 30.5279 323.71 31.0679L321.388 23.9756C323.207 23.1894 325.087 22.552 327.01 22.0699C329.336 21.5406 331.717 21.2943 334.102 21.3362C339.197 21.3362 342.902 22.5791 345.219 25.065C347.535 27.5508 348.7 31.0149 348.712 35.4573V54.4695ZM339.908 42.918V41.2727C339.034 40.8863 338.123 40.5894 337.189 40.3866C336.135 40.1557 335.058 40.0428 333.978 40.0499C331.984 40.0499 330.415 40.4374 329.271 41.2124C328.149 41.9527 327.499 43.2296 327.562 44.5727V44.6966C327.508 45.8484 328.036 46.9506 328.966 47.6313C329.902 48.3237 331.125 48.6699 332.635 48.6699C334.835 48.6699 336.597 48.1406 337.923 47.0819C339.218 46.0925 339.956 44.5402 339.908 42.9116V42.918ZM386.489 54.4695H377.196V49.7562C376.078 51.2807 374.676 52.5749 373.067 53.5675C371.46 54.5648 369.432 55.0645 366.984 55.0667C365.076 55.0673 363.187 54.6929 361.423 53.9645C359.622 53.2246 357.998 52.1106 356.659 50.6963C355.217 49.1627 354.086 47.3648 353.327 45.4017C352.448 43.0893 352.016 40.6306 352.057 38.157V38.0363C352.016 35.5626 352.448 33.1039 353.327 30.7915C354.079 28.8254 355.199 27.0208 356.627 25.4747C357.952 24.0548 359.569 22.9387 361.366 22.2033C363.15 21.4716 365.06 21.0982 366.988 21.1043C369.474 21.1043 371.522 21.5935 373.133 22.5717C374.664 23.4843 376.036 24.6396 377.196 25.9924V9.8291H386.489V54.4695ZM377.332 38.1411V38.0204C377.35 36.7595 377.134 35.5062 376.697 34.3234C376.309 33.2677 375.728 32.2931 374.985 31.449C374.289 30.6674 373.435 30.0428 372.479 29.6164C370.51 28.7611 368.274 28.7611 366.305 29.6164C365.341 30.0466 364.476 30.6704 363.764 31.449C363.008 32.2828 362.417 33.2529 362.023 34.3075C361.581 35.5 361.366 36.7646 361.388 38.0363V38.157C361.371 39.4189 361.586 40.6732 362.023 41.8572C362.416 42.9125 363.006 43.8828 363.764 44.7157C364.476 45.4952 365.341 46.1201 366.305 46.5515C368.274 47.4067 370.51 47.4067 372.479 46.5515C373.435 46.1239 374.289 45.4981 374.985 44.7157C375.727 43.8765 376.307 42.9074 376.697 41.8572C377.136 40.6682 377.352 39.4084 377.332 38.1411ZM422.201 38.9986C422.201 39.4465 422.201 39.834 422.17 40.1611C422.138 40.4882 422.119 40.8726 422.078 41.3204H399.276C399.725 43.4378 400.652 45.0375 402.058 46.1195C403.464 47.2015 405.207 47.7415 407.286 47.7393C408.711 47.7636 410.125 47.4933 411.441 46.9453C412.835 46.3007 414.116 45.4339 415.233 44.379L420.528 49.0828C419.007 50.9772 417.086 52.5119 414.903 53.5771C412.703 54.6569 410.115 55.1969 407.14 55.1969C404.812 55.2186 402.5 54.8038 400.324 53.9741C398.288 53.1989 396.436 52.0091 394.884 50.4803C393.346 48.958 392.13 47.1424 391.307 45.1413C390.433 42.9558 390.001 40.6185 390.037 38.265V38.1411C390.025 35.8866 390.428 33.6491 391.228 31.5411C391.981 29.5317 393.112 27.685 394.56 26.1004C397.559 22.8411 401.807 21.0176 406.235 21.0885C408.967 21.0885 411.331 21.5776 413.327 22.5558C415.259 23.4832 416.959 24.8297 418.304 26.4974C419.645 28.1817 420.641 30.1135 421.236 32.1827C421.874 34.3558 422.195 36.6098 422.189 38.8748L422.201 38.9986ZM413.153 35.5049C412.867 33.4235 412.133 31.7422 410.952 30.4612C409.77 29.1802 408.198 28.5418 406.235 28.546C404.281 28.546 402.702 29.1812 401.499 30.4517C400.297 31.7221 399.512 33.4161 399.146 35.5335L413.153 35.5049ZM475.932 54.4537H466.642V36.1909C466.642 33.9909 466.173 32.3298 465.235 31.2076C464.297 30.0854 462.946 29.5232 461.182 29.5211C459.429 29.5211 458.052 30.0811 457.053 31.2013C456.054 32.3214 455.557 33.9846 455.563 36.1909V54.4664H446.273V36.1909C446.273 33.9909 445.804 32.3298 444.866 31.2076C443.928 30.0854 442.584 29.5232 440.833 29.5211C439.079 29.5211 437.703 30.0811 436.704 31.2013C435.704 32.3214 435.206 33.9846 435.208 36.1909V54.4664H425.927V21.6983H435.217V26.345C435.754 25.6446 436.337 24.9804 436.961 24.3567C437.599 23.72 438.307 23.1565 439.07 22.6765C439.878 22.1712 440.752 21.78 441.668 21.5141C442.711 21.219 443.792 21.0757 444.876 21.0885C446.826 21.0369 448.755 21.5003 450.469 22.432C452.037 23.3268 453.303 24.6679 454.106 26.2846C455.406 24.6735 457.029 23.3516 458.87 22.4034C460.736 21.5016 462.788 21.0511 464.86 21.0885C468.326 21.0885 471.036 22.1069 472.991 24.1439C474.945 26.1809 475.923 29.1759 475.926 33.1292L475.932 54.4537ZM512 21.6983L499.394 55.2477C498.873 56.7211 498.218 58.1436 497.438 59.4974C496.828 60.5645 496.054 61.5291 495.144 62.3559C494.317 63.0852 493.342 63.6269 492.286 63.9439C491.094 64.2886 489.858 64.4534 488.617 64.4331C487.088 64.4582 485.563 64.2527 484.095 63.8232C482.793 63.4169 481.542 62.8628 480.366 62.1716L483.485 55.4478C484.112 55.8233 484.777 56.131 485.47 56.3657C486.108 56.5962 486.78 56.7196 487.458 56.7309C488.13 56.7671 488.799 56.6083 489.383 56.2736C489.957 55.8349 490.41 55.2565 490.698 54.5934L477.876 21.6983H487.722L495.167 44.0106L502.316 21.6983H512Z" fill="#005EEC"/>
</g>
<defs>
<clipPath id="clip0_1_1924">
<rect width="512" height="75" fill="white"/>
</clipPath>
</defs>
</svg>
