<svg width="512" height="136" viewBox="0 0 512 136" fill="none" xmlns="http://www.w3.org/2000/svg">
<g clip-path="url(#clip0_1_1950)">
<path d="M199.787 115.617L180.789 59.5967H193.9L205.422 97.2689L217.883 59.4523H228.357L240.891 97.2689L252.449 59.5967H265.199L246.236 115.617H235.581L223.012 79.2094L210.478 115.617H199.823H199.787ZM288.712 116.159C275.493 116.159 265.741 106.407 265.741 94.1626V94.0182C265.741 81.7377 275.601 71.8411 288.857 71.8411C302.04 71.8411 311.828 81.5932 311.828 93.8737V94.0182C311.828 106.226 301.968 116.159 288.712 116.159ZM288.857 105.757C295.755 105.757 299.909 100.447 299.909 94.1626V94.0182C299.909 87.7335 295.358 82.2434 288.712 82.2434C281.777 82.2434 277.66 87.5529 277.66 93.8376V94.0182C277.66 100.267 282.175 105.757 288.857 105.757ZM320.569 115.22V72.5996H332.633V81.1959C335.089 75.3446 339.062 71.516 346.214 71.805V84.4466H345.636C337.617 84.4466 332.669 89.3227 332.669 99.4721V115.22H320.605H320.569ZM353.799 115.22V57.2129H365.862V88.1308L379.985 72.5996H394.433L378.251 89.3949L395.01 115.22H381.177L370.052 97.8107L365.862 102.253V115.22H353.763H353.799ZM419.03 116.159C406.207 116.159 396.78 107.202 396.78 94.1626V94.0182C396.78 81.8461 405.449 71.8411 417.838 71.8411C432.032 71.8411 438.57 82.8935 438.57 94.9573C438.57 95.8964 438.498 97.016 438.389 98.1357H408.772C409.964 103.626 413.756 106.479 419.174 106.479C423.219 106.479 426.181 105.215 429.504 102.109L436.403 108.249C432.19 113.491 425.75 116.436 419.03 116.195V116.159ZM408.591 90.5869H426.795C426.073 85.169 422.894 81.5571 417.838 81.5571C412.817 81.5571 409.53 85.0968 408.591 90.5869ZM447.527 115.22V72.5996H459.627V81.1959C462.083 75.3446 466.057 71.516 473.208 71.805V84.4466H472.558C464.54 84.4466 459.627 89.3227 459.627 99.4721V115.22H447.491H447.527ZM495.71 116.015C489.751 116.015 483.069 114.028 477.434 109.585L482.599 101.639C486.45 104.644 491.123 106.408 495.999 106.696C499.503 106.696 501.092 105.432 501.092 103.554V103.373C501.092 100.772 496.974 99.8694 492.279 98.4608C486.319 96.691 479.565 93.9098 479.565 85.6747V85.4941C479.565 76.8255 486.572 71.9856 495.132 71.9856C500.55 71.9856 506.438 73.7915 511.025 76.9339L506.438 85.2412C502.968 82.9903 498.999 81.6259 494.88 81.2682C491.99 81.2682 490.437 82.5684 490.437 84.2299V84.3744C490.437 86.7582 494.518 87.8779 499.105 89.4672C505.065 91.4537 512 94.3071 512 102.109V102.253C512 111.716 504.921 116.015 495.71 116.015Z" fill="#232324"/>
<path d="M207.697 23.9104H213.332V39.1165H223.192V43.9925H207.661V23.9104H207.697ZM228.971 34.0237V33.9515C228.971 28.1724 233.667 23.4769 239.915 23.4769C242.743 23.3793 245.49 24.4297 247.531 26.389C249.572 28.3484 250.733 31.05 250.751 33.8792V33.9515C250.751 39.7305 246.056 44.3899 239.843 44.3899C237.009 44.4975 234.253 43.4516 232.204 41.4911C230.155 39.5307 228.989 36.8233 228.971 33.9876V34.0237ZM245.08 34.0237V33.9515C245.08 31.0619 242.986 28.5336 239.879 28.5336C236.809 28.5336 234.75 30.9897 234.75 33.9153V33.9515C234.75 36.841 236.845 39.3693 239.915 39.3693C243.022 39.3693 245.08 36.9132 245.08 33.9876V34.0237ZM257.686 35.1795V23.9104H263.393V35.1073C263.393 37.9968 264.874 39.3332 267.113 39.3332C269.352 39.3332 270.833 38.0329 270.833 35.2156V23.9104H276.54V35.035C276.54 41.5365 272.82 44.3537 267.041 44.3537C261.262 44.3537 257.65 41.4642 257.65 35.1795H257.686ZM285.136 23.9104H292.938C300.162 23.9104 304.388 28.0279 304.388 33.8431V33.9153C304.388 39.6944 300.126 44.0287 292.83 44.0287H285.136V23.8743V23.9104ZM293.083 39.0804C296.406 39.0804 298.645 37.2383 298.645 33.9515C298.645 30.7007 296.406 28.8587 293.047 28.8587H290.771V39.0081H293.047V39.0442L293.083 39.0804ZM312.587 23.9104H328.804V28.7864H318.185V32.2177H327.793V36.841H318.185V43.9925H312.587V23.9104ZM336.606 23.9104H342.204V39.1165H352.029V43.9925H336.606V23.9104ZM366.693 23.7659H372.111L380.78 43.9925H374.712L373.267 40.4168H365.429L363.984 44.0287H358.097L366.693 23.7659ZM371.641 36.0825L369.402 30.3757L367.127 36.0825H371.641ZM387.967 23.9104H397.575C400.681 23.9104 402.812 24.705 404.185 26.0775C405.377 27.2333 405.991 28.7864 405.991 30.773V30.8452C405.991 33.9515 404.329 35.9741 401.837 36.9855L406.677 44.0648H400.176L396.058 37.9968H393.602V44.0648H387.967V23.9104ZM397.322 33.5542C399.236 33.5542 400.32 32.6151 400.32 31.1703V31.0981C400.32 29.5449 399.164 28.7503 397.286 28.7503H393.566V33.5542H397.322ZM414.081 23.9104H430.335V28.6058H419.68V31.676H429.396V36.0825H419.644V39.261H430.552V43.9925H414.117V23.9104H414.081ZM195.381 36.3714C194.582 38.2091 192.761 39.3901 190.757 39.3693C187.687 39.3693 185.592 36.841 185.592 33.9515C185.592 31.0619 187.651 28.5336 190.721 28.5336C192.874 28.5163 194.802 29.8644 195.525 31.8927H201.521C200.455 26.8852 195.946 23.3668 190.83 23.5492C184.581 23.5492 179.886 28.2447 179.886 34.0237V34.0598C179.903 36.8955 181.07 39.6029 183.119 41.5634C185.168 43.5238 187.924 44.5697 190.757 44.4621C196.103 44.4621 200.293 41.0308 201.376 36.4437L195.453 36.4076L195.381 36.3714Z" fill="#656566"/>
<path d="M38.6242 1.9502L56.3225 33.8794L40.069 63.1358C38.487 65.9764 38.487 69.4333 40.069 72.2739L56.3225 101.603L38.6242 133.532C35.294 131.881 32.5286 129.279 30.678 126.055L2.50517 77.1139C-0.835058 71.2988 -0.835058 64.1471 2.50517 58.332L30.678 9.39071C32.5341 6.18049 35.299 3.59156 38.6242 1.9502Z" fill="url(#paint0_linear_1_1950)"/>
<path opacity="0.7" d="M40.069 63.1719C38.5004 66.0031 38.5004 69.4426 40.069 72.2739L56.3226 101.603L38.6242 133.532C35.294 131.881 32.5286 129.279 30.6781 126.055L2.50523 77.1138C0.265846 73.2491 12.7991 68.6258 40.069 63.208V63.1719Z" fill="url(#paint1_linear_1_1950)"/>
<path opacity="0.5" d="M40.4301 5.16479L56.3225 33.8794L53.6858 38.4665L39.6716 14.7363C35.6263 8.12655 29.4499 11.5579 21.7205 24.9219L22.8763 22.9353L30.678 9.39071C32.5149 6.191 35.2534 3.60316 38.5519 1.9502L40.394 5.16479H40.4301Z" fill="url(#paint2_linear_1_1950)"/>
<path d="M119.531 9.39094L147.704 58.3322C151.063 64.1113 151.063 71.3351 147.704 77.1141L119.531 126.055C116.178 131.863 109.983 135.442 103.277 135.446H75.1044L110.14 72.2741C111.708 69.4429 111.708 66.0034 110.14 63.1722L75.1044 0H103.277C109.983 0.00429781 116.178 3.58353 119.531 9.39094Z" fill="url(#paint3_linear_1_1950)"/>
<path d="M101.833 135.23L74.0209 135.482L107.684 71.9852C109.212 69.118 109.212 65.6781 107.684 62.811L74.0209 0H80.3778L115.702 62.522C117.405 65.5273 117.392 69.2094 115.666 72.2019C108.064 85.4149 100.515 98.6587 93.0195 111.933C86.1569 123.997 89.1186 131.762 101.833 135.23Z" fill="url(#paint4_linear_1_1950)"/>
<path d="M46.9315 135.446C44.042 135.446 41.1525 134.76 38.6241 133.532L73.3706 70.8655C74.4542 68.9151 74.4542 66.5312 73.3706 64.5808L38.6241 1.95043C41.2069 0.671509 44.0494 0.00414412 46.9315 0H75.1044L110.14 63.1722C111.708 66.0034 111.708 69.4429 110.14 72.2741L75.1044 135.446H46.9315Z" fill="url(#paint5_linear_1_1950)"/>
<path opacity="0.6" d="M107.684 64.5808L71.8536 0H75.1043L110.14 63.1722C111.708 66.0034 111.708 69.4429 110.14 72.2741L75.1043 135.446H71.8536L107.684 70.8655C108.767 68.9151 108.767 66.5312 107.684 64.5808Z" fill="url(#paint6_linear_1_1950)"/>
<path opacity="0.6" d="M73.3706 64.581L38.6241 1.95065C39.7077 1.37274 41.008 0.939315 42.236 0.578125C49.8933 14.3395 61.1985 35.2163 76.1879 63.1724C77.7565 66.0036 77.7565 69.4431 76.1879 72.2744L41.6943 134.724C40.4662 134.363 39.8161 134.11 38.6603 133.568L73.3345 70.9018C74.4181 68.9514 74.4181 66.5676 73.3345 64.6171L73.3706 64.581Z" fill="url(#paint7_linear_1_1950)"/>
</g>
<defs>
<linearGradient id="paint0_linear_1_1950" x1="2816.13" y1="13160.1" x2="-2952.57" y2="3882.65" gradientUnits="userSpaceOnUse">
<stop stop-color="#EB6F07"/>
<stop offset="1" stop-color="#FAB743"/>
</linearGradient>
<linearGradient id="paint1_linear_1_1950" x1="4382.08" y1="5952.29" x2="1411.85" y2="2897.5" gradientUnits="userSpaceOnUse">
<stop stop-color="#D96504"/>
<stop offset="1" stop-color="#D96504" stop-opacity="0"/>
</linearGradient>
<linearGradient id="paint2_linear_1_1950" x1="1475.01" y1="319.642" x2="3047.39" y2="2845.46" gradientUnits="userSpaceOnUse">
<stop stop-color="#EB6F07"/>
<stop offset="1" stop-color="#EB720A" stop-opacity="0"/>
</linearGradient>
<linearGradient id="paint3_linear_1_1950" x1="3831.03" y1="13544.6" x2="-1334.36" y2="2781.27" gradientUnits="userSpaceOnUse">
<stop stop-color="#EE6F05"/>
<stop offset="1" stop-color="#FAB743"/>
</linearGradient>
<linearGradient id="paint4_linear_1_1950" x1="-1351.89" y1="13548.2" x2="6918.37" y2="11449.2" gradientUnits="userSpaceOnUse">
<stop stop-color="#D96504" stop-opacity="0.8"/>
<stop offset="0.498" stop-color="#D96504" stop-opacity="0.2"/>
<stop offset="1" stop-color="#D96504" stop-opacity="0"/>
</linearGradient>
<linearGradient id="paint5_linear_1_1950" x1="3673.23" y1="13544.6" x2="-1597.61" y2="2916.31" gradientUnits="userSpaceOnUse">
<stop stop-color="#FFA95F"/>
<stop offset="1" stop-color="#FFEBC8"/>
</linearGradient>
<linearGradient id="paint6_linear_1_1950" x1="391.501" y1="148.991" x2="4787.07" y2="840.025" gradientUnits="userSpaceOnUse">
<stop stop-color="white" stop-opacity="0.5"/>
<stop offset="1" stop-color="white" stop-opacity="0.1"/>
</linearGradient>
<linearGradient id="paint7_linear_1_1950" x1="-492.117" y1="13978.6" x2="4940.93" y2="13178.2" gradientUnits="userSpaceOnUse">
<stop stop-color="white" stop-opacity="0.5"/>
<stop offset="1" stop-color="white" stop-opacity="0.1"/>
</linearGradient>
<clipPath id="clip0_1_1950">
<rect width="512" height="136" fill="white"/>
</clipPath>
</defs>
</svg>
