<svg width="256" height="168" viewBox="0 0 256 168" fill="none" xmlns="http://www.w3.org/2000/svg">
<g clip-path="url(#clip0_1_1969)">
<path d="M75.0596 75.2013C75.2469 75.2013 75.4264 75.2764 75.5579 75.4098L99.1178 98.9909C99.3122 99.1907 99.3694 99.4868 99.2635 99.7446C99.1576 100.002 98.9088 100.173 98.6301 100.178H92.6076C92.2175 100.178 91.8981 100.488 91.8866 100.878V153.893C91.8951 157.249 93.229 160.465 95.5976 162.842L99.1178 166.362C99.3122 166.562 99.3694 166.858 99.2635 167.116C99.1576 167.374 98.9088 167.544 98.6301 167.55H70.8502C63.8232 167.55 58.1266 161.853 58.1266 154.826V100.878C58.1266 100.492 57.8133 100.178 57.4268 100.178H51.4891C51.2066 100.181 50.95 100.014 50.8387 99.7543C50.7274 99.4946 50.7832 99.1935 50.9802 98.9909L74.5613 75.4098C74.6928 75.2764 74.8723 75.2013 75.0596 75.2013ZM127.163 88.858C127.35 88.858 127.53 88.9331 127.661 89.0665L151.242 112.563C151.439 112.765 151.495 113.066 151.384 113.326C151.272 113.586 151.016 113.753 150.733 113.75H144.711C144.321 113.762 144.011 114.081 144.011 114.471V153.893C144.014 157.246 145.34 160.462 147.701 162.842L151.242 166.362C151.439 166.565 151.495 166.866 151.384 167.126C151.272 167.386 151.016 167.553 150.733 167.55H123.017C115.99 167.55 110.293 161.853 110.293 154.826V114.514C110.294 114.124 109.984 113.804 109.594 113.793H103.592C103.314 113.787 103.065 113.617 102.959 113.359C102.853 113.101 102.91 112.805 103.105 112.605L126.664 89.0665C126.796 88.9331 126.975 88.858 127.163 88.858ZM179.277 102.368C179.46 102.368 179.636 102.443 179.764 102.575L203.345 126.135C203.555 126.332 203.622 126.638 203.514 126.905C203.406 127.173 203.146 127.346 202.858 127.343H196.814C196.428 127.343 196.114 127.657 196.114 128.043V153.893C196.123 157.249 197.457 160.465 199.825 162.842L203.345 166.362C203.54 166.562 203.597 166.858 203.491 167.116C203.385 167.374 203.136 167.544 202.858 167.55H175.057C168.03 167.55 162.333 161.853 162.333 154.826V128.043C162.333 127.657 162.02 127.343 161.633 127.343H155.696C155.407 127.346 155.147 127.173 155.039 126.905C154.931 126.638 154.998 126.332 155.208 126.135L178.789 102.575C178.917 102.443 179.093 102.368 179.277 102.368ZM126.686 -0.00158383C163.726 0.268104 196.396 24.321 207.65 59.6113C235.159 63.2014 255.799 86.5395 256 114.28C256 137.176 241.681 156.202 218.562 164.123L217.702 164.411L216.642 164.751V147.659C231.337 141.467 239.968 129.231 239.968 114.28C239.893 93.1842 223.186 75.9581 202.189 75.1549L201.479 75.1341H195.118L193.591 69.0692C186.097 38.1381 158.511 16.2787 126.686 16.0541C100.499 15.9284 76.5858 30.8083 65.1098 54.2846L62.7495 59.1448L58.2962 59.6113C38.1837 61.7629 21.6692 76.4735 17.2158 96.2045C12.826 115.654 21.1144 135.731 37.8624 146.436L38.5958 146.895V164.92H38.4898L36.8994 164.199C11.7448 152.635 -2.98966 126.079 0.511218 98.6157C4.0121 71.1525 24.9376 49.1418 52.1889 44.2581C66.9118 16.8508 95.5746 -0.177227 126.686 -0.00158383Z" fill="#3448C5"/>
</g>
<defs>
<clipPath id="clip0_1_1969">
<rect width="256" height="168" fill="white"/>
</clipPath>
</defs>
</svg>
