<svg width="256" height="231" viewBox="0 0 256 231" fill="none" xmlns="http://www.w3.org/2000/svg">
<g clip-path="url(#clip0_1_1940)">
<path d="M65.8208 3.32422L95.9811 57.7359L68.2829 107.593C65.587 112.434 65.587 118.324 68.2829 123.165L95.9811 173.145L65.8208 227.557C60.1457 224.743 55.433 220.309 52.2794 214.816L4.26915 131.413C-1.42305 121.503 -1.42305 109.316 4.26915 99.4063L52.2794 16.0039C55.4426 10.5332 60.1543 6.12132 65.8208 3.32422Z" fill="url(#paint0_linear_1_1940)"/>
<path opacity="0.7" d="M68.2828 107.654C65.6098 112.479 65.6098 118.34 68.2828 123.165L95.9811 173.145L65.8208 227.557C60.1456 224.743 55.433 220.309 52.2794 214.816L4.2691 131.413C0.452901 124.827 21.8113 116.949 68.2828 107.716V107.654Z" fill="url(#paint1_linear_1_1940)"/>
<path opacity="0.5" d="M68.8984 8.80232L95.9811 57.7359L91.4879 65.5529L67.6058 25.1135C60.712 13.8495 50.1867 19.697 37.0146 42.4711L38.9843 39.0857L52.2795 16.0039C55.4097 10.5511 60.0767 6.1411 65.6977 3.32422L68.8368 8.80232H68.8984Z" fill="url(#paint2_linear_1_1940)"/>
<path d="M203.696 16.0034L251.707 99.4059C257.431 109.254 257.431 121.564 251.707 131.413L203.696 214.815C197.983 224.712 187.426 230.811 175.998 230.819H127.988L187.693 123.165C190.366 118.34 190.366 112.479 187.693 107.654L127.988 0H175.998C187.426 0.00732404 197.983 6.10681 203.696 16.0034Z" fill="url(#paint3_linear_1_1940)"/>
<path d="M173.536 230.449L126.141 230.88L183.507 122.672C186.112 117.786 186.112 111.924 183.507 107.038L126.141 0H136.974L197.172 106.546C200.074 111.667 200.051 117.942 197.11 123.042C184.155 145.558 171.29 168.128 158.518 190.749C146.823 211.307 151.87 224.54 173.536 230.449Z" fill="url(#paint4_linear_1_1940)"/>
<path d="M79.9777 230.819C75.0535 230.819 70.1294 229.649 65.8208 227.556L125.033 120.764C126.88 117.441 126.88 113.378 125.033 110.054L65.8208 3.32379C70.2222 1.14434 75.0662 0.00706214 79.9777 0H127.988L187.693 107.654C190.366 112.479 190.366 118.34 187.693 123.165L127.988 230.819H79.9777Z" fill="url(#paint5_linear_1_1940)"/>
<path opacity="0.6" d="M183.508 110.054L122.448 0H127.988L187.693 107.654C190.366 112.479 190.366 118.34 187.693 123.165L127.988 230.819H122.448L183.508 120.764C185.354 117.441 185.354 113.378 183.508 110.054Z" fill="url(#paint6_linear_1_1940)"/>
<path opacity="0.6" d="M125.033 110.054L65.8208 3.32334C67.6674 2.33851 69.8832 1.59989 71.976 0.984375C85.0249 24.4356 104.291 60.0124 129.835 107.653C132.508 112.478 132.508 118.34 129.835 123.164L71.0527 229.587C68.9599 228.972 67.852 228.541 65.8823 227.618L124.972 120.825C126.818 117.502 126.818 113.439 124.972 110.115L125.033 110.054Z" fill="url(#paint7_linear_1_1940)"/>
</g>
<defs>
<linearGradient id="paint0_linear_1_1940" x1="4799.06" y1="22426.6" x2="-5031.57" y2="6616.56" gradientUnits="userSpaceOnUse">
<stop stop-color="#EB6F07"/>
<stop offset="1" stop-color="#FAB743"/>
</linearGradient>
<linearGradient id="paint1_linear_1_1940" x1="7467.65" y1="10143.5" x2="2405.98" y2="4937.73" gradientUnits="userSpaceOnUse">
<stop stop-color="#D96504"/>
<stop offset="1" stop-color="#D96504" stop-opacity="0"/>
</linearGradient>
<linearGradient id="paint2_linear_1_1940" x1="2513.61" y1="544.714" x2="5193.16" y2="4849.05" gradientUnits="userSpaceOnUse">
<stop stop-color="#EB6F07"/>
<stop offset="1" stop-color="#EB720A" stop-opacity="0"/>
</linearGradient>
<linearGradient id="paint3_linear_1_1940" x1="6528.59" y1="23081.9" x2="-2273.93" y2="4739.66" gradientUnits="userSpaceOnUse">
<stop stop-color="#EE6F05"/>
<stop offset="1" stop-color="#FAB743"/>
</linearGradient>
<linearGradient id="paint4_linear_1_1940" x1="-2303.8" y1="23088" x2="11789.8" y2="19510.9" gradientUnits="userSpaceOnUse">
<stop stop-color="#D96504" stop-opacity="0.8"/>
<stop offset="0.498" stop-color="#D96504" stop-opacity="0.2"/>
<stop offset="1" stop-color="#D96504" stop-opacity="0"/>
</linearGradient>
<linearGradient id="paint5_linear_1_1940" x1="6259.67" y1="23081.9" x2="-2722.55" y2="4969.79" gradientUnits="userSpaceOnUse">
<stop stop-color="#FFA95F"/>
<stop offset="1" stop-color="#FFEBC8"/>
</linearGradient>
<linearGradient id="paint6_linear_1_1940" x1="667.17" y1="253.901" x2="8157.8" y2="1431.51" gradientUnits="userSpaceOnUse">
<stop stop-color="white" stop-opacity="0.5"/>
<stop offset="1" stop-color="white" stop-opacity="0.1"/>
</linearGradient>
<linearGradient id="paint7_linear_1_1940" x1="-838.633" y1="23821.4" x2="8420" y2="22457.4" gradientUnits="userSpaceOnUse">
<stop stop-color="white" stop-opacity="0.5"/>
<stop offset="1" stop-color="white" stop-opacity="0.1"/>
</linearGradient>
<clipPath id="clip0_1_1940">
<rect width="256" height="231" fill="white"/>
</clipPath>
</defs>
</svg>
