<svg width="256" height="116" viewBox="0 0 256 116" fill="none" xmlns="http://www.w3.org/2000/svg">
<g clip-path="url(#clip0_1_1963)">
<path d="M202.357 49.3935L197.046 47.2695C172.085 103.434 72.7859 69.2885 66.8109 85.9965C65.8149 97.2825 121.038 88.1425 160.517 90.0555C172.556 90.6385 178.593 99.7265 173.481 114.54L183.55 114.571C195.165 78.3615 232.233 96.8405 233.782 84.8905C231.237 77.0335 191.181 84.8905 202.357 49.3935Z" fill="white"/>
<path d="M176.332 108.348C177.925 103.037 177.394 97.726 174.739 94.539C172.083 91.352 168.365 89.228 163.585 88.697L71.17 87.634C70.639 87.634 70.108 87.103 69.577 87.103C69.046 86.572 69.046 86.041 69.577 85.51C70.108 84.448 70.639 83.916 71.701 83.916L164.647 82.854C175.801 82.323 187.486 73.294 191.734 62.672L197.046 48.863C197.046 48.331 197.577 47.8 197.046 47.269C191.203 20.182 166.772 -0.000976562 138.091 -0.000976562C111.535 -0.000976562 88.697 16.995 80.73 40.896C75.419 37.178 69.046 35.053 61.61 35.585C48.863 36.647 38.772 47.269 37.178 60.016C36.647 63.203 37.178 66.39 37.71 69.576C16.996 70.107 0 87.103 0 108.348C0 110.472 0 112.066 0.531 114.19C0.531 115.253 1.593 115.784 2.125 115.784H172.614C173.676 115.784 174.739 115.253 174.739 114.19L176.332 108.348Z" fill="#F4811F"/>
<path d="M205.544 48.8623H202.888C202.357 48.8623 201.826 49.3933 201.295 49.9243L197.577 62.6713C195.984 67.9823 196.515 73.2943 199.171 76.4803C201.826 79.6673 205.544 81.7913 210.324 82.3233L229.976 83.3853C230.507 83.3853 231.038 83.9163 231.569 83.9163C232.1 84.4473 232.1 84.9783 231.569 85.5093C231.038 86.5723 230.507 87.1033 229.444 87.1033L209.262 88.1653C198.108 88.6963 186.424 97.7253 182.175 108.347L181.112 113.128C180.581 113.659 181.112 114.721 182.175 114.721H252.283C253.345 114.721 253.876 114.19 253.876 113.128C254.938 108.879 256 104.099 256 99.3183C256 71.7003 233.162 48.8623 205.544 48.8623Z" fill="#FAAD3F"/>
</g>
<defs>
<clipPath id="clip0_1_1963">
<rect width="256" height="116" fill="white"/>
</clipPath>
</defs>
</svg>
