<svg width="256" height="294" viewBox="0 0 256 294" fill="none" xmlns="http://www.w3.org/2000/svg">
<g clip-path="url(#clip0_1_1979)">
<path d="M197.243 224.288L206.588 240.47C207.25 241.616 206.857 243.082 205.711 243.744L200.894 246.526C199.768 247.176 198.327 246.79 197.676 245.664L188.326 229.471C187.71 228.406 186.39 228.015 185.279 228.544C175.718 233.097 165.237 236.029 154.177 236.941C152.946 237.042 151.991 238.045 151.991 239.28V257.898C151.991 259.202 150.934 260.259 149.63 260.259H144.08C142.752 260.259 141.675 259.182 141.675 257.854V239.278C141.675 238.05 140.724 237.053 139.499 236.956C128.431 236.076 117.933 233.185 108.356 228.661C107.226 228.128 105.887 228.526 105.262 229.608L96.0154 245.626C95.3524 246.773 93.8854 247.166 92.7384 246.504L87.9264 243.725C86.7984 243.074 86.4114 241.631 87.0624 240.503L96.3284 224.453C96.9524 223.373 96.6264 222.015 95.6004 221.305C86.6914 215.142 78.9504 207.416 72.7734 198.517C72.0714 197.505 70.7304 197.184 69.6634 197.8L53.6434 207.049C52.5034 207.707 51.0454 207.317 50.3864 206.176L47.6374 201.415C46.9654 200.252 47.3644 198.764 48.5274 198.093L64.4954 188.874C65.5624 188.258 65.9544 186.938 65.4254 185.825C60.8714 176.24 57.9564 165.728 57.0584 154.641C56.9584 153.407 55.9534 152.449 54.7154 152.449H36.2704C34.9424 152.449 33.8664 151.372 33.8664 150.044V144.488C33.8664 143.187 34.9204 142.133 36.2204 142.133H54.6814C55.9384 142.133 56.9584 141.16 57.0604 139.907C57.9614 128.839 60.8724 118.344 65.4164 108.773C65.9494 107.651 65.5544 106.319 64.4784 105.698L48.5054 96.4739C47.3544 95.8089 46.9604 94.3369 47.6254 93.1849L50.3824 88.4099C51.0434 87.2649 52.5064 86.8729 53.6514 87.5339L69.6664 96.7829C70.7304 97.3979 72.0694 97.0779 72.7694 96.0679C78.9514 87.1609 86.6984 79.4289 95.6164 73.2629C96.6334 72.5589 96.9574 71.2129 96.3384 70.1419L87.0644 54.0789C86.4124 52.9489 86.7994 51.5039 87.9294 50.8519L92.7424 48.0729C93.8874 47.4109 95.3514 47.8039 96.0134 48.9489L105.275 64.9929C105.893 66.0619 107.216 66.4569 108.333 65.9289C117.911 61.4009 128.41 58.5069 139.481 57.6249C140.716 57.5269 141.675 56.5219 141.675 55.2829V36.7489C141.675 35.4079 142.763 34.3199 144.105 34.3199H149.62C150.929 34.3199 151.991 35.3819 151.991 36.6909V55.2989C151.991 56.5339 152.946 57.5369 154.177 57.6389C165.225 58.5499 175.695 61.4749 185.249 66.0209C186.377 66.5569 187.718 66.1599 188.342 65.0779L197.671 48.9249C198.325 47.7929 199.772 47.4049 200.904 48.0589L205.702 50.8289C206.853 51.4939 207.247 52.9669 206.582 54.1179L197.259 70.2639C196.636 71.3429 196.959 72.6999 197.982 73.4109C202.561 76.5929 206.837 80.1799 210.745 84.1309C213.662 87.0799 218.303 87.4059 221.484 84.7449L253.307 58.1269C256.609 55.3659 256.92 50.3859 253.984 47.2389C225.402 16.6029 183.869 -1.7921 138.095 0.825896C68.6854 4.7949 5.60444 66.6779 0.422442 136.008C-6.01456 222.13 61.9544 294 146.71 294C188.529 294 226.248 276.491 252.97 248.416C256.494 244.714 256.078 238.77 252.158 235.491L220.779 209.244C217.994 206.915 213.915 207.183 211.389 209.79C207.3 214.01 202.798 217.824 197.957 221.186C196.948 221.886 196.629 223.225 197.243 224.288Z" fill="#248BD2"/>
<path d="M146.809 161.101C138.943 161.101 132.566 154.724 132.566 146.858C132.566 138.992 138.943 132.615 146.809 132.615C154.675 132.615 161.052 138.992 161.052 146.858C161.052 154.724 154.675 161.101 146.809 161.101ZM149.41 103.379C129.336 102.212 112.007 114.653 105.752 132.33C105.366 133.421 105.852 134.639 106.855 135.217L123.467 144.809C125.045 145.719 125.045 147.996 123.467 148.907L106.852 158.5C105.851 159.078 105.366 160.294 105.751 161.384C111.733 178.294 127.85 190.412 146.809 190.412C171.564 190.412 191.496 169.76 190.314 144.745C189.325 123.826 170.317 104.595 149.41 103.379Z" fill="#423B3D"/>
</g>
<defs>
<clipPath id="clip0_1_1979">
<rect width="256" height="294" fill="white"/>
</clipPath>
</defs>
</svg>
