<svg width="256" height="256" viewBox="0 0 256 256" fill="none" xmlns="http://www.w3.org/2000/svg">
<g clip-path="url(#clip0_1_1987)">
<path d="M255.349 255.349H0V0H255.349V255.349Z" fill="#FA2A00"/>
<path d="M160.993 135.984C157.156 157.036 139.076 174.258 111.186 174.258C77.87 174.258 57.8109 149.787 57.8109 121.897C57.8109 94.5678 76.877 69.5078 110.895 69.5078C140.076 69.5078 158.156 87.8645 160.851 110.775H136.799C134.671 99.1074 125.84 90.2906 111.186 90.2906C92.1057 90.2906 81.2959 105.377 81.2959 121.897C81.2959 139.395 93.3895 153.49 111.47 153.49C124.847 153.49 133.671 145.801 136.515 135.984H160.993Z" fill="white"/>
<path d="M188.929 71.835L174.232 78.1335L192.653 121.21L174.225 164.3L188.929 170.584L201.292 141.468L201.356 141.602L209.91 121.21L188.929 71.835Z" fill="white"/>
</g>
<defs>
<clipPath id="clip0_1_1987">
<rect width="256" height="256" fill="white"/>
</clipPath>
</defs>
</svg>
