<svg width="256" height="275" viewBox="0 0 256 275" fill="none" xmlns="http://www.w3.org/2000/svg">
<g clip-path="url(#clip0_1_1992)">
<path d="M233.065 0H22.9141C10.293 0.0229 0.0575574 10.2303 0 22.8513V251.42C0.0575763 264.048 10.3004 274.259 22.9281 274.278H233.079C245.705 274.259 255.946 264.046 256 251.42V240.759C255.616 227.04 255.232 198.47 255.232 185.519C255.232 178.279 249.884 172.184 243.007 172.184C235.362 172.184 230.398 176.757 226.579 180.562C215.115 190.853 197.919 192.759 183.013 190.092C176.143 188.563 169.643 186.664 164.302 183.236C147.867 173.706 137.171 155.805 137.171 136.759C137.171 117.712 147.867 100.188 164.295 90.2811C170.027 86.853 176.527 84.947 183.02 83.425C197.542 80.758 215.115 82.657 226.579 92.9481C230.782 96.7601 235.746 101.326 243.007 101.326C249.884 101.326 255.232 95.2311 255.232 87.9911C255.232 75.4239 255.616 46.4706 256 32.7584V22.8513C256 10.2841 245.681 0 233.072 0H233.065Z" fill="#F46A54"/>
</g>
<defs>
<clipPath id="clip0_1_1992">
<rect width="256" height="275" fill="white"/>
</clipPath>
</defs>
</svg>
