<svg width="512" height="177" viewBox="0 0 512 177" fill="none" xmlns="http://www.w3.org/2000/svg">
<g clip-path="url(#clip0_1_1995)">
<path d="M0 107.937C0 150.399 29.3915 176.791 66.5807 176.791C79.6507 176.791 92.7206 173.634 102.255 166.499V133.319C93.6151 141.033 82.4245 145.273 70.8427 145.221C51.5219 145.221 36.1159 131.394 36.1159 108.032C36.1159 85.0353 50.9831 71.5218 69.9371 71.1052L70.8427 71.0952C82.4846 70.8725 93.7739 75.0947 102.412 82.9024V49.6593C92.9416 42.3667 79.8085 39.5886 66.7386 39.5886C29.3915 39.5886 0 65.9809 0 107.937ZM178.022 39.5886C140.138 39.5886 113.683 67.7488 113.683 107.937C113.683 148.126 140.075 176.791 178.022 176.791C215.969 176.791 242.583 148.378 242.583 107.937C242.583 67.4963 216.222 39.5886 178.022 39.5886ZM178.022 145.884C159.933 145.884 149.862 130.099 149.862 108C149.862 85.9015 159.933 70.306 178.022 70.306C196.112 70.306 206.151 86.0909 206.151 108C206.151 129.91 196.364 145.884 178.022 145.884ZM346.226 53.4161C337.516 44.4726 325.53 39.4772 313.046 39.5886C274.847 39.5886 253.253 70.4954 253.253 107.937C253.253 145.821 274.847 176.791 313.046 176.791C325.507 176.787 337.451 171.81 346.226 162.963V173.792H382.658V0H346.226V53.4161ZM346.226 129.815C341.411 139.1 331.808 144.913 321.349 144.874C301.492 144.874 289.779 129.089 289.779 107.937C289.779 86.7854 301.587 71.2531 321.349 71.2531C331.869 71.2763 341.484 77.2063 346.226 86.596V129.815ZM455.553 39.5886C437.968 39.5886 421.141 44.3872 411.576 50.417V81.9868C422.242 74.9581 434.728 71.1948 447.502 71.1584C466.097 71.1584 476.925 79.2087 476.925 92.026V99.3187C471.622 95.5303 458.804 91.5209 447.502 91.5209C418.616 91.5209 396.77 108.6 396.77 133.73C396.77 160.88 418.616 176.191 445.261 176.191C459.562 176.191 472.632 171.172 476.831 166.91V173.95H512V89.8477C512.094 57.9306 491.479 39.5886 455.553 39.5886ZM476.925 138.086C473.768 145.126 464.108 149.42 453.785 149.42C442.23 149.42 430.423 144.621 430.423 133.319C430.423 122.017 442.23 117.25 453.785 117.25C464.108 117.25 473.642 121.512 476.925 128.552V138.086Z" fill="#101010"/>
</g>
<defs>
<clipPath id="clip0_1_1995">
<rect width="512" height="177" fill="white"/>
</clipPath>
</defs>
</svg>
