<svg width="256" height="316" viewBox="0 0 256 316" fill="none" xmlns="http://www.w3.org/2000/svg">
<g clip-path="url(#clip0_1_2051)">
<path d="M81.8339 315.107C61.6109 306.172 47.8695 286.924 46.0669 264.879C47.249 242.203 59.2271 221.478 78.2484 209.116C75.1258 216.73 75.8843 225.398 80.2185 232.363C85.1535 239.258 93.6447 242.568 101.958 240.844C113.799 237.514 120.733 225.221 117.404 213.371C116.222 209.224 113.858 205.461 110.627 202.624C97.2302 191.729 90.5023 174.609 92.896 157.499C95.1912 148.437 100.205 140.241 107.288 134.055C101.968 148.24 116.971 162.237 127.038 169.123C144.906 179.84 162.105 191.621 178.575 204.397C196.572 218.582 206.383 240.785 204.847 263.5C200.798 287.673 183.698 307.63 160.391 315.116C207.014 304.744 255.084 267.706 256 215.174C255.084 173.142 229.995 135.424 191.647 118.245H189.943C190.79 120.304 191.204 122.52 191.125 124.756C191.253 123.308 191.253 121.87 191.125 120.422C191.332 122.126 191.332 123.84 191.125 125.544C188.209 137.493 176.152 144.851 164.174 141.935C159.387 140.753 155.112 138.064 152.038 134.183C136.671 114.482 152.038 92.0624 154.609 70.3914C156.185 42.6821 143.527 16.1942 121.068 0C132.308 18.7356 117.335 43.342 106.45 57.3396C95.5458 71.3371 79.785 81.7687 66.94 93.9833C53.1001 106.858 40.4127 121.013 29.0256 136.143C4.40929 166.217 -5.25401 205.885 2.75441 243.907C13.7377 280.551 44.1953 308.083 81.7551 315.225H81.962L81.8339 315.107Z" fill="#DD4814"/>
</g>
<defs>
<clipPath id="clip0_1_2051">
<rect width="256" height="316" fill="white"/>
</clipPath>
</defs>
</svg>
