<svg width="256" height="256" viewBox="0 0 256 256" fill="none" xmlns="http://www.w3.org/2000/svg">
<g clip-path="url(#clip0_1_2058)">
<path d="M127.574 0.0077397L127.796 0.00195312H128.205L128.486 0.00999975L128.819 0.0279332C130.964 0.170754 132.957 0.872514 134.653 1.98867L250.383 78.7921C251.58 79.5521 252.66 80.5344 253.557 81.726L253.781 82.0327L253.936 82.2576C255.318 84.3124 255.987 86.6379 256 88.9416V166.812C256.031 169.04 255.451 171.298 254.206 173.321L254.074 173.53L253.936 173.74C253.051 175.055 251.954 176.142 250.72 176.984L134.839 253.884C133.108 255.07 131.054 255.818 128.836 255.969L128.322 255.994L128 255.998H127.789L127.475 255.986L127.148 255.968C124.948 255.815 122.91 255.075 121.189 253.903L5.64843 177.226C4.61914 176.577 3.67571 175.764 2.85996 174.796L2.83254 174.762C2.57549 174.455 2.33425 174.137 2.10953 173.808L2.06414 173.74C0.641317 171.625 -0.0256844 169.224 -3.84386e-05 166.854V89.1859C-0.0281008 87.1725 0.443034 85.1344 1.45296 83.2676L1.70081 82.8318L1.80188 82.6645C2.00981 82.3273 2.23407 82.0003 2.47426 81.6845C3.37281 80.5009 4.45275 79.526 5.64857 78.7722L121.168 2.1091C122.791 0.998572 124.698 0.272788 126.758 0.0631066L127.216 0.0256156L127.574 0.0077397ZM70.058 142.6L33.925 166.907L115.884 221.293V173.428L70.058 142.6ZM185.941 142.599L140.115 173.428V221.293L222.072 166.905L185.941 142.599ZM128 103.621L91.768 127.995L128 152.366L164.232 127.995L128 103.621ZM24.221 111.764V144.232L48.353 127.998L24.221 111.764ZM231.758 111.777L207.646 127.998L231.758 144.219V111.777ZM115.884 34.6863L33.918 89.0833L70.061 113.394L115.884 82.5683V34.6863ZM140.115 34.6993V82.5683L185.938 113.394L222.078 89.0863L140.115 34.6993Z" fill="black"/>
</g>
<defs>
<clipPath id="clip0_1_2058">
<rect width="256" height="256" fill="white"/>
</clipPath>
</defs>
</svg>
