<svg width="256" height="259" viewBox="0 0 256 259" fill="none" xmlns="http://www.w3.org/2000/svg">
<g clip-path="url(#clip0_1_2039)">
<path d="M56.5857 28.5726C56.5857 44.359 43.9185 57.1452 28.2988 57.1452C12.6672 57.1452 0 44.359 0 28.5726C0 12.7862 12.6672 0 28.2988 0C43.9185 0 56.5857 12.7862 56.5857 28.5726ZM56.5857 129.315C56.5857 145.089 43.9185 157.887 28.2988 157.887C12.6672 157.887 0 145.089 0 129.315C0 113.528 12.6672 100.742 28.2988 100.742C43.9185 100.742 56.5857 113.528 56.5857 129.315ZM56.5857 230.045C56.5857 245.832 43.9185 258.618 28.2988 258.618C12.6672 258.618 0 245.832 0 230.045C0 214.259 12.6672 201.473 28.2988 201.473C43.9185 201.473 56.5857 214.259 56.5857 230.045Z" fill="#F44A6A"/>
<path d="M120.576 0C104.957 0 92.2896 12.7862 92.2896 28.5726C92.2896 44.359 104.957 57.1452 120.576 57.1452H227.724C243.343 57.1452 255.999 44.359 255.999 28.5726C255.999 12.7862 243.343 0 227.712 0H120.565H120.576Z" fill="url(#paint0_linear_1_2039)"/>
<path d="M120.576 100.73C104.957 100.73 92.2896 113.529 92.2896 129.303C92.2896 145.089 104.957 157.888 120.576 157.888H181.746C197.365 157.888 210.032 145.089 210.032 129.315C210.032 113.529 197.365 100.742 181.746 100.742H120.576V100.73Z" fill="url(#paint1_linear_1_2039)"/>
</g>
<defs>
<linearGradient id="paint0_linear_1_2039" x1="91.9621" y1="2857.15" x2="16463.5" y2="2857.15" gradientUnits="userSpaceOnUse">
<stop stop-color="#0AA1A5"/>
<stop offset="1" stop-color="#50D690"/>
</linearGradient>
<linearGradient id="paint1_linear_1_2039" x1="92.0541" y1="2958.47" x2="11866.8" y2="2958.47" gradientUnits="userSpaceOnUse">
<stop stop-color="#0AA1A5"/>
<stop offset="1" stop-color="#50D690"/>
</linearGradient>
<clipPath id="clip0_1_2039">
<rect width="256" height="259" fill="white"/>
</clipPath>
</defs>
</svg>
