<svg width="256" height="164" viewBox="0 0 256 164" fill="none" xmlns="http://www.w3.org/2000/svg">
<g clip-path="url(#clip0_1_2064)">
<path d="M139.539 0.228936L9.01111 82.399C2.86304 86.1173 -0.141748 90.2803 0.00513414 94.8924V107.398C0.152017 112.015 3.22815 116.106 9.23773 119.678L73.8365 156.965C74.2201 157.189 74.6481 157.327 75.0909 157.369C75.5332 157.411 75.9793 157.355 76.3981 157.205C76.8165 157.056 77.1976 156.818 77.5144 156.505C77.8309 156.194 78.0751 155.816 78.2304 155.4L92.734 120.349L61.9726 102.933C61.0859 102.473 60.3405 101.782 59.8155 100.931C59.4223 100.293 59.1604 99.5817 59.045 98.8406C58.9292 98.0995 58.9628 97.3428 59.1428 96.6147C59.3228 95.8862 59.646 95.2013 60.0938 94.5995C60.5415 93.9977 61.1047 93.4908 61.7502 93.1089L118.224 58.4992L141.512 1.79428C141.605 1.52869 141.613 1.24073 141.536 0.970119C141.459 0.699516 141.299 0.459606 141.079 0.283492C140.861 0.109546 140.593 0.0103396 140.314 -0.000290781C140.035 -0.00930726 139.761 0.0707722 139.531 0.228936H139.539Z" fill="#19223C"/>
<path d="M246.763 46.0011L183.05 7.37542C182.681 7.14506 182.266 6.99659 181.835 6.93993C181.403 6.88332 180.964 6.91987 180.547 7.04712C180.131 7.17436 179.747 7.38939 179.421 7.67766C179.095 7.96597 178.834 8.3208 178.656 8.71834L163.716 43.7685L194.037 61.856C194.91 62.3302 195.636 63.0395 196.143 63.904C196.652 64.7714 196.921 65.7589 196.921 66.764C196.921 67.7695 196.652 68.757 196.143 69.624C195.64 70.4872 194.912 71.1982 194.037 71.6803L137.126 105.17L112.953 161.434C112.72 161.701 112.6 162.05 112.62 162.405C112.641 162.76 112.799 163.092 113.063 163.331C113.192 163.448 113.343 163.538 113.507 163.596C113.671 163.654 113.846 163.679 114.019 163.669C114.194 163.658 114.363 163.614 114.52 163.537C114.676 163.46 114.816 163.353 114.93 163.222L156.682 137.991L173.163 161.66C173.523 162.206 174.012 162.654 174.587 162.965C175.161 163.276 175.804 163.441 176.457 163.444H216.01C216.732 163.447 217.44 163.249 218.056 162.875C218.672 162.5 219.172 161.962 219.502 161.321C219.841 160.678 220.001 159.955 219.967 159.229C219.932 158.503 219.703 157.799 219.305 157.191L192.496 116.106L246.772 83.2882C252.924 79.5658 256 75.3986 256 70.7823V58.5029C256 53.8866 252.924 49.7235 246.767 46.0011H246.763Z" fill="#67A4AC"/>
</g>
<defs>
<clipPath id="clip0_1_2064">
<rect width="256" height="164" fill="white"/>
</clipPath>
</defs>
</svg>
