<svg width="512" height="85" viewBox="0 0 512 85" fill="none" xmlns="http://www.w3.org/2000/svg">
<g clip-path="url(#clip0_1_2092)">
<path d="M492.811 84.7973C499.296 84.7973 505.384 82.2826 510.281 79.5037L506.046 68.6511C502.605 70.6361 498.37 72.2245 493.473 72.2245C480.635 72.2245 478.12 63.092 478.12 50.1221C478.12 37.152 479.709 26.9611 488.576 26.9611C496.12 26.9611 499.032 36.3579 497.84 50.1221L502.208 44.5635H474.018L473.753 53.8279H511.737C513.59 27.8876 505.649 15.4468 488.047 15.4468C470.444 15.4468 463.033 29.2111 463.033 50.1221C463.033 71.0333 471.9 84.7973 492.811 84.7973ZM437.622 84.7973C444.107 84.7973 450.195 82.2826 455.091 79.5037L450.857 68.6511C447.416 70.6361 443.18 72.2245 438.283 72.2245C425.445 72.2245 422.931 63.092 422.931 50.1221C422.931 37.152 424.519 26.9611 433.387 26.9611C440.93 26.9611 443.842 36.3579 442.651 50.1221L447.018 44.5635H418.828L418.563 53.8279H456.547C458.401 27.8876 450.459 15.4468 432.857 15.4468C415.255 15.4468 407.843 29.2111 407.843 50.1221C407.843 71.0333 416.711 84.7973 437.622 84.7973ZM378.594 84.7973C392.226 84.7973 402.417 77.9153 402.417 62.0333C402.417 50.5192 395.402 42.7106 384.55 35.9609C377.8 31.7257 375.55 28.6816 375.55 24.8436C375.55 20.2113 379.521 17.432 384.418 17.432C388.52 17.432 392.094 18.2261 395.667 20.6084L400.167 9.2264C395.667 6.05006 390.903 4.72655 384.55 4.5942C371.05 4.32951 360.33 12.4028 360.33 26.0347C360.33 35.9609 365.756 40.9901 376.212 48.2693C383.227 53.1662 387.329 56.6072 387.329 62.0333C387.329 68.1214 382.962 71.5624 376.212 71.5624C371.58 71.5624 366.815 69.3125 363.109 67.4599L358.477 79.7685C363.109 82.415 370.918 84.7973 378.594 84.7973Z" fill="black"/>
<path d="M282.906 75.1363L285.95 70.636C283.833 71.4305 281.318 72.2244 278.141 72.2244C267.024 72.2244 263.186 63.0925 263.186 50.1221C263.186 37.152 265.701 26.9612 276.289 26.9612C278.671 26.9612 282.906 26.5641 286.612 31.0639L282.906 25.373V75.1363ZM277.745 84.7978C284.229 84.7978 291.112 83.7385 297.199 80.8271V0L282.906 2.64698V19.682L289.921 19.9466C285.95 17.035 280.788 15.4468 274.568 15.4468C256.966 15.4468 248.099 29.2111 248.099 50.1221C248.099 71.0332 256.833 84.7978 277.745 84.7978ZM333.993 84.7978C340.478 84.7978 346.566 82.2831 351.463 79.5036L347.228 68.651C343.787 70.636 339.551 72.2244 334.654 72.2244C321.817 72.2244 319.302 63.0925 319.302 50.1221C319.302 37.152 320.89 26.9612 329.757 26.9612C337.301 26.9612 340.213 36.3579 339.022 50.1221L343.389 44.5635H315.199L314.935 53.8279H352.919C354.771 27.8876 346.83 15.4468 329.228 15.4468C311.625 15.4468 304.214 29.2111 304.214 50.1221C304.214 71.0332 313.081 84.7978 333.993 84.7978ZM215.541 72.2244C206.673 72.2244 204.158 63.0925 204.158 50.1221C204.158 37.152 206.673 26.9612 215.541 26.9612C224.408 26.9612 226.922 37.152 226.922 50.1221C226.922 63.0925 224.408 72.2244 215.541 72.2244ZM215.541 84.7978C233.143 84.7978 242.01 71.0332 242.01 50.1221C242.01 29.2111 233.143 15.4468 215.541 15.4468C197.938 15.4468 189.071 29.2111 189.071 50.1221C189.071 71.0332 197.938 84.7978 215.541 84.7978ZM168.424 84.7978C174.624 84.8031 180.693 83.0105 185.894 79.636L181.394 67.5922C177.953 69.7097 174.115 71.2981 169.88 71.2981C157.969 71.2981 152.41 59.6515 152.41 44.1665C152.41 27.4905 159.16 18.2261 170.409 18.2261C173.983 18.2261 177.689 19.682 180.601 21.2701L185.365 9.49113C180.865 6.44708 175.836 4.59422 168.424 4.59422C149.101 4.59422 136.264 20.079 136.264 44.8282C136.264 73.0183 151.748 84.7978 168.424 84.7978Z" fill="black"/>
<path d="M45.982 15.5449L51.4595 29.5269C43.0991 32.8422 32.1441 40.4818 21.4775 49.9953C32.1441 59.5086 43.0991 67.0044 51.4595 70.6078L46.1261 84.3018C32.7207 78.5362 16.2883 65.8509 0 49.8512L0.977275 48.8954C16.9387 33.3523 32.8447 21.1954 45.982 15.5449ZM73.9457 15.5449C87.3513 21.3107 103.639 33.8512 119.928 49.8512L118.951 50.8072C102.983 66.3556 86.939 78.6515 73.8016 84.3018L68.4685 70.6078C76.8288 67.0044 87.7839 59.5086 98.4505 49.9953L97.5851 49.2281C87.1936 40.0721 76.6029 32.7526 68.4685 29.5269L73.9457 15.5449ZM59.964 38.8962C66.2528 38.8962 71.3516 43.9945 71.3516 50.2836C71.3516 56.5727 66.2528 61.6708 59.964 61.6708C53.6749 61.6708 48.5766 56.5727 48.5766 50.2836C48.5766 43.9945 53.6749 38.8962 59.964 38.8962Z" fill="black"/>
</g>
<defs>
<clipPath id="clip0_1_2092">
<rect width="512" height="85" fill="white"/>
</clipPath>
</defs>
</svg>
