<svg width="512" height="95" viewBox="0 0 512 95" fill="none" xmlns="http://www.w3.org/2000/svg">
<g clip-path="url(#clip0_1_2061)">
<path d="M9.16925 24.813C21.3949 12.5038 41.2631 12.3687 53.6551 24.5103C55.4121 26.2318 55.4409 29.0517 53.7194 30.8087C51.9979 32.5657 49.178 32.5945 47.421 30.873C38.5261 22.1578 24.2649 22.2549 15.4894 31.0902C6.71392 39.9256 6.71392 54.1872 15.4894 63.0226C24.2649 71.8579 38.5261 71.955 47.421 63.2398C49.178 61.5183 51.9979 61.5471 53.7194 63.3041C55.4409 65.0611 55.4121 67.881 53.6551 69.6025C41.2631 81.7441 21.3949 81.609 9.16925 69.2999C-3.05642 56.9907 -3.05642 37.1221 9.16925 24.813ZM119.964 0.00933422L120.1 0.00195312H120.382L120.637 0.0167617L120.919 0.0497819L121.039 0.0701278L121.249 0.112309L121.473 0.170836C121.692 0.232247 121.904 0.310624 122.107 0.404079L122.326 0.512825L122.536 0.629723L122.714 0.742911L165.296 29.0008C165.552 29.1681 165.792 29.3634 166.013 29.5856L166.128 29.7066L166.215 29.804L166.342 29.9573L166.527 30.208L166.628 30.3612L166.75 30.5691L166.848 30.757L166.939 30.9537C167.087 31.2896 167.188 31.6375 167.247 31.9893L167.253 32.0298C167.286 32.2366 167.304 32.4453 167.307 32.6536V61.4044C167.306 61.927 167.213 62.4526 167.023 62.9562L167.004 63.0035C166.956 63.1279 166.901 63.2506 166.841 63.3714L166.722 63.5934L166.549 63.8724L166.463 63.9959L166.307 64.199L166.164 64.366L166.021 64.5178C165.792 64.7509 165.54 64.9547 165.272 65.1279L122.741 93.3522C122.309 93.6444 121.822 93.8626 121.299 93.9887L121.023 94.0455L120.765 94.0831L120.429 94.1093L120.251 94.1127C120.163 94.1127 120.076 94.1102 119.99 94.1052L119.665 94.0741L119.465 94.0429C119.015 93.9635 118.59 93.8162 118.198 93.6124L118.172 93.5978C118.018 93.517 117.869 93.427 117.727 93.329L75.1624 65.0817C75.0442 65.0036 74.9296 64.9184 74.8188 64.8271L74.6352 64.6672L74.4573 64.4932L74.2259 64.2362L74.0953 64.0716L73.9532 63.8724C73.8998 63.793 73.8493 63.7125 73.8017 63.6311L73.6689 63.3861L73.5645 63.1629C73.3153 62.5939 73.1943 61.9912 73.1943 61.393V32.7064C73.1963 32.196 73.2856 31.6828 73.4671 31.19L73.5854 30.9026L73.6188 30.8286L73.7256 30.6173L73.8326 30.4298L73.9532 30.2404L74.0422 30.113L74.1829 29.929L74.3326 29.753L74.4864 29.59L74.6457 29.4372C74.8316 29.2659 75.0301 29.1136 75.2385 28.9797L117.75 0.768281L117.955 0.636515L118.193 0.503924L118.411 0.397747L118.618 0.310113C118.935 0.184287 119.27 0.0943746 119.618 0.0447906L119.964 0.00933422ZM98.9493 52.4241L85.6663 61.3601L115.796 81.3541V63.7571L98.9493 52.4241ZM141.551 52.4231L124.704 63.7571V81.3541L154.834 61.3591L141.551 52.4231ZM120.251 38.0944L106.93 47.0551L120.251 56.0145L133.57 47.0541L120.251 38.0944ZM82.0983 41.0871V53.0241L90.9703 47.0551L82.0983 41.0871ZM158.395 41.0921L149.531 47.0551L158.395 53.0191V41.0921ZM115.796 12.7521L85.6643 32.7501L98.9503 41.6871L115.796 30.3541V12.7521ZM124.704 12.7561V30.3541L141.55 41.6871L154.836 32.7501L124.704 12.7561ZM213.202 15.4919H193.837C191.377 15.4919 189.383 17.4859 189.383 19.9458V74.167C189.383 76.6269 191.377 78.6209 193.837 78.6209H213.202C230.635 78.6209 244.766 64.489 244.766 47.0564C244.766 29.6238 230.635 15.4919 213.202 15.4919ZM198.287 69.7132V24.3996H213.202C225.715 24.3996 235.859 34.5434 235.859 47.0564C235.859 59.5694 225.715 69.7132 213.202 69.7132H198.287ZM302.28 15.4919C304.74 15.4919 306.734 17.4859 306.734 19.9458C306.734 22.2416 304.997 24.1317 302.765 24.3735L302.28 24.3996H271.873L271.872 42.6019L290.661 42.6025C293.121 42.6025 295.115 44.5966 295.115 47.0564C295.115 49.3522 293.378 51.2423 291.146 51.4842L290.661 51.5103L271.872 51.5099L271.873 69.7132H302.28C304.576 69.7132 306.466 71.4502 306.708 73.6817L306.734 74.167C306.734 76.4629 304.997 78.353 302.765 78.5948L302.28 78.6209H267.423C265.127 78.6209 263.237 76.8839 262.995 74.6524L262.969 74.167V19.9458C262.969 17.6499 264.706 15.7598 266.938 15.518L267.423 15.4919H302.28ZM356.501 15.4919C367.517 15.4919 376.447 24.4218 376.447 35.4375C376.447 46.1708 367.969 54.9239 357.344 55.3657L356.501 55.3832H337.713L337.717 74.167C337.717 76.4629 335.98 78.353 333.749 78.5948L333.263 78.6209C330.968 78.6209 329.077 76.8839 328.836 74.6524L328.809 74.167V19.9458C328.809 17.6499 330.547 15.7598 332.778 15.518L333.263 15.4919H356.501ZM337.713 46.4755H356.501C362.597 46.4755 367.539 41.5336 367.539 35.4375C367.539 29.5592 362.944 24.7541 357.15 24.4184L356.501 24.3996H337.713V46.4755ZM433.96 15.4919C436.42 15.4919 438.414 17.4859 438.414 19.9458C438.414 22.2416 436.677 24.1317 434.445 24.3735L433.96 24.3996H403.554L403.553 42.6019L422.341 42.6025C424.801 42.6025 426.795 44.5966 426.795 47.0564C426.795 49.3522 425.058 51.2423 422.827 51.4842L422.341 51.5103L403.553 51.5099L403.554 69.7132H433.96C436.256 69.7132 438.146 71.4502 438.388 73.6817L438.414 74.167C438.414 76.4629 436.677 78.353 434.445 78.5948L433.96 78.6209H399.104C396.808 78.6209 394.918 76.8839 394.676 74.6524L394.65 74.167V19.9458C394.65 17.6499 396.387 15.7598 398.618 15.518L399.104 15.4919H433.96ZM460.49 19.9458C460.49 15.8726 465.444 14.0083 468.145 16.8456L468.446 17.194L503.088 61.2856L503.092 19.9458C503.092 17.6499 504.829 15.7598 507.061 15.518L507.546 15.4919C509.842 15.4919 511.732 17.2289 511.974 19.4605L512 19.9458V74.167C512 78.2402 507.046 80.1046 504.345 77.2672L504.044 76.9188L469.394 32.8194L469.398 74.167C469.398 76.4629 467.66 78.353 465.429 78.5948L464.944 78.6209C462.648 78.6209 460.758 76.8839 460.516 74.6524L460.49 74.167V19.9458Z" fill="black"/>
</g>
<defs>
<clipPath id="clip0_1_2061">
<rect width="512" height="95" fill="white"/>
</clipPath>
</defs>
</svg>
