<svg width="256" height="190" viewBox="0 0 256 190" fill="none" xmlns="http://www.w3.org/2000/svg">
<g clip-path="url(#clip0_1_2022)">
<path d="M112.532 92.38L71.1702 62.1861L110.17 127.292L256 6.98557L112.532 92.38ZM94.7883 172.223C51.8361 172.223 17.0171 137.472 17.0171 94.6037C17.0171 51.7362 51.8361 16.9839 94.7883 16.9839C113.807 16.9839 131.224 23.8076 144.737 35.1224L155.638 22.1398C139.161 8.33476 117.936 0 94.7883 0C42.5211 0 0 42.4393 0 94.6037C0 146.769 42.5211 189.208 94.7883 189.208C121.893 189.208 146.36 177.777 163.652 159.511L151.315 147.883C137.137 162.861 117.064 172.223 94.7883 172.223ZM94.7883 149.725C64.2863 149.725 39.56 125.047 39.56 94.604C39.56 64.1614 64.2863 39.4826 94.7883 39.4826C108.294 39.4826 120.655 44.3372 130.251 52.3724L138.436 42.6254C126.616 32.7226 111.391 26.7444 94.7883 26.7444C57.2971 26.7444 26.7961 57.1859 26.7961 94.604C26.7961 132.021 57.2971 162.463 94.7883 162.463C114.23 162.463 131.78 154.263 144.184 141.161L134.902 132.414C124.835 143.05 110.607 149.725 94.7883 149.725Z" fill="#236BFD"/>
</g>
<defs>
<clipPath id="clip0_1_2022">
<rect width="256" height="190" fill="white"/>
</clipPath>
</defs>
</svg>
