<svg width="512" height="57" viewBox="0 0 512 57" fill="none" xmlns="http://www.w3.org/2000/svg">
<g clip-path="url(#clip0_1_2028)">
<path d="M145.905 11.542C151.528 11.542 155.376 13.3177 158.927 16.5732C159.519 17.1651 159.519 17.4611 158.927 17.757L154.784 22.1963C154.488 22.4923 153.896 22.4923 153.6 22.1963C151.528 20.4206 148.865 19.2368 146.497 19.2368C140.282 19.2368 135.843 24.268 135.843 30.483C135.843 36.6981 140.282 41.7293 146.793 41.7293C149.457 41.7293 152.12 40.8414 153.896 39.0657C154.192 38.7697 154.784 38.7697 155.08 39.0657L159.223 43.505C159.519 43.801 159.519 44.3929 159.223 44.6888C155.672 48.2403 150.64 50.016 145.905 50.016C134.955 50.016 125.78 41.4333 125.78 30.1871C125.78 18.9408 135.251 11.542 145.905 11.542ZM182.899 42.6171C189.114 42.6171 193.85 37.5859 193.85 31.6668C193.85 25.4518 188.818 20.7166 182.899 20.7166C176.98 20.7166 171.949 25.7478 171.949 31.6668C171.949 37.5859 176.98 42.6171 182.899 42.6171ZM182.899 11.542C193.85 11.542 203.024 20.4206 203.024 31.6668C203.024 42.9131 194.442 51.4958 182.899 51.4958C171.357 51.4958 163.071 42.9131 163.071 31.6668C163.071 20.4206 171.949 11.542 182.899 11.542ZM223.149 42.6171C229.364 42.6171 233.803 37.8819 233.803 31.3709C233.803 25.1559 229.364 20.1247 223.149 20.1247H217.822V42.0252L223.149 42.6171ZM208.943 13.3177C208.943 12.7258 209.535 12.4299 209.831 12.4299H223.149C233.803 12.4299 242.386 21.0125 242.386 31.3709C242.386 42.0252 233.803 50.6079 223.149 50.6079H209.831C209.239 50.6079 208.943 50.016 208.943 49.72V13.3177ZM249.489 13.3177C249.489 12.7258 250.081 12.4299 250.377 12.4299H273.165C273.757 12.4299 274.053 13.0218 274.053 13.3177V19.2368C274.053 19.8287 273.461 20.1247 273.165 20.1247H258.072V27.2275H270.502C271.094 27.2275 271.39 27.8194 271.39 28.1154V34.0345C271.39 34.6264 270.798 34.9223 270.502 34.9223H258.072V42.3212H273.165C273.757 42.3212 274.053 42.9131 274.053 43.209V49.1281C274.053 49.72 273.461 50.016 273.165 50.016H250.377C249.785 50.016 249.489 49.4241 249.489 49.1281V13.3177Z" fill="#2B2B2B"/>
<path d="M310.751 11.542C316.375 11.542 320.222 13.3177 323.773 16.5732C324.365 17.1651 324.365 17.4611 323.773 17.757L319.63 22.1963C319.334 22.4923 318.742 22.4923 318.446 22.1963C316.375 20.4206 313.711 19.2368 311.343 19.2368C305.128 19.2368 300.689 24.268 300.689 30.483C300.689 36.6981 304.832 42.0252 311.343 42.0252C314.007 42.0252 316.671 41.1374 318.446 39.3616C318.742 39.0657 319.334 39.0657 319.63 39.3616L323.773 43.8009C324.069 44.0969 324.069 44.6888 323.773 44.9848C320.222 48.5362 315.191 50.3119 310.456 50.3119C299.505 50.3119 290.331 41.7293 290.331 30.483C290.331 19.2368 299.801 11.542 310.751 11.542ZM330.876 13.3177C330.876 12.7258 331.468 12.4299 332.06 12.4299H338.571C339.163 12.4299 339.459 13.0218 339.459 13.3177V42.9131H352.481C353.073 42.9131 353.369 43.505 353.369 43.8009V49.4241C353.369 50.016 352.777 50.3119 352.481 50.3119H331.764C331.172 50.3119 330.876 49.72 330.876 49.4241V13.3177ZM358.992 13.3177C358.992 12.7258 359.584 12.4299 359.88 12.4299H366.687C367.279 12.4299 367.575 13.0218 367.575 13.3177V49.72C367.575 50.3119 366.983 50.6079 366.687 50.6079H359.88C359.288 50.6079 358.992 50.016 358.992 49.72V13.3177ZM380.597 12.4299C380.597 11.8379 381.188 11.542 381.484 11.542H382.372C382.668 11.542 383.26 11.8379 383.26 12.1339L395.69 36.1062L408.12 12.1339C408.416 11.8379 408.712 11.542 409.008 11.542H409.896C410.488 11.542 410.784 11.8379 410.784 12.4299L416.999 49.4241C416.999 50.3119 416.703 50.3119 416.111 50.3119H409.6C409.008 50.3119 408.712 49.72 408.712 49.4241L406.049 32.5547L396.874 50.6079C396.578 50.9038 396.282 51.1998 395.986 51.1998H395.098C394.802 51.1998 394.21 50.9038 394.21 50.6079L385.036 32.5547L382.372 49.72C382.372 50.3119 381.78 50.6079 381.484 50.6079H374.973C374.382 50.6079 374.086 50.016 374.086 49.72L380.597 12.4299ZM438.603 11.8379C438.899 11.8379 439.491 12.1339 439.491 12.4299L456.657 49.4241C456.953 50.3119 456.657 50.6079 455.769 50.6079H449.554C448.666 50.6079 448.37 50.3119 447.482 49.4241L445.41 45.2807H430.909L428.837 49.72C428.541 50.3119 427.949 50.9038 426.765 50.9038H420.55C419.958 50.6079 419.958 50.016 419.958 49.1281L437.124 12.4299C437.42 12.1339 437.716 11.8379 438.012 11.8379H438.603ZM480.629 12.4299C481.221 12.4299 481.517 13.0218 481.517 13.3177V19.2368C481.517 19.8287 480.925 20.1247 480.629 20.1247H472.638V49.4241C472.638 50.016 472.046 50.3119 471.75 50.3119H465.239C464.647 50.3119 464.351 49.72 464.351 49.4241V20.1247H456.361C455.769 20.1247 455.473 19.5327 455.473 19.2368V13.3177C455.473 12.7258 456.065 12.4299 456.361 12.4299H480.629ZM438.603 28.4114L434.46 37.29H442.747L438.603 28.4114ZM487.436 13.3177C487.436 12.7258 488.028 12.4299 488.324 12.4299H511.112C511.704 12.4299 512 13.0218 512 13.3177V19.2368C512 19.8287 511.408 20.1247 511.112 20.1247H496.018V27.2275H508.449C509.04 27.2275 509.336 27.8194 509.336 28.1154V34.0345C509.336 34.6264 508.745 34.9223 508.449 34.9223H496.018V42.3212H511.112C511.704 42.3212 512 42.9131 512 43.209V49.1281C512 49.72 511.408 50.016 511.112 50.016H488.324C487.732 50.016 487.436 49.4241 487.436 49.1281V13.3177Z" fill="#2B2B2B"/>
<path d="M34.0347 11.3524L45.5769 22.8946L57.1191 34.7327L68.0694 45.683L56.5272 56.9293L45.5769 46.2749L34.0347 34.7327L30.7792 37.3963L15.9815 52.49L11.5422 56.9293L0 45.683L4.14335 40.6518L34.0347 11.3524ZM68.6613 0L102.696 33.7387L91.1538 45.5769L68.6613 23.0844L60.6705 31.0751L49.1283 19.5329L68.6613 0Z" fill="#2B2B2B"/>
</g>
<defs>
<clipPath id="clip0_1_2028">
<rect width="512" height="57" fill="white"/>
</clipPath>
</defs>
</svg>
