<svg width="256" height="147" viewBox="0 0 256 147" fill="none" xmlns="http://www.w3.org/2000/svg">
<g clip-path="url(#clip0_1_2089)">
<path d="M98.1538 0L109.846 29.8461C91.9999 36.923 68.6153 53.2307 45.8461 73.5383C68.6153 93.8454 91.9999 109.846 109.846 117.538L98.4615 146.769C69.8461 134.462 34.7692 107.384 0 73.2307L2.0861 71.1904C36.1575 38.0119 70.1107 12.0615 98.1538 0ZM157.846 0C186.461 12.3077 221.23 39.0769 256 73.2307L253.913 75.2713C219.83 108.461 185.581 134.708 157.538 146.769L146.154 117.538C164 109.846 187.385 93.8454 210.154 73.5383L208.306 71.9006C186.125 52.3559 163.518 36.7318 146.154 29.8461L157.846 0ZM128 49.8459C141.424 49.8459 152.308 60.7289 152.308 74.1536C152.308 87.5783 141.424 98.4608 128 98.4608C114.575 98.4608 103.692 87.5783 103.692 74.1536C103.692 60.7289 114.575 49.8459 128 49.8459Z" fill="black"/>
</g>
<defs>
<clipPath id="clip0_1_2089">
<rect width="256" height="147" fill="white"/>
</clipPath>
</defs>
</svg>
