<svg width="256" height="256" viewBox="0 0 256 256" fill="none" xmlns="http://www.w3.org/2000/svg">
<g clip-path="url(#clip0_1_2074)">
<path d="M28.8232 56.8748C44.3155 56.8748 56.8744 44.3158 56.8744 28.8236C56.8744 13.3314 44.3155 0.772461 28.8232 0.772461C13.331 0.772461 0.772095 13.3314 0.772095 28.8236C0.772095 44.3158 13.331 56.8748 28.8232 56.8748Z" fill="#3E8DCC"/>
<path d="M128 56.8748C143.492 56.8748 156.051 44.3158 156.051 28.8236C156.051 13.3314 143.492 0.772461 128 0.772461C112.508 0.772461 99.9489 13.3314 99.9489 28.8236C99.9489 44.3158 112.508 56.8748 128 56.8748Z" fill="#3E8DCC"/>
<path d="M227.177 56.8748C242.669 56.8748 255.228 44.3158 255.228 28.8236C255.228 13.3314 242.669 0.772461 227.177 0.772461C211.685 0.772461 199.126 13.3314 199.126 28.8236C199.126 44.3158 211.685 56.8748 227.177 56.8748Z" fill="#3E8DCC"/>
<path d="M128 156.052C143.492 156.052 156.051 143.493 156.051 128C156.051 112.508 143.492 99.9492 128 99.9492C112.508 99.9492 99.9489 112.508 99.9489 128C99.9489 143.493 112.508 156.052 128 156.052Z" fill="#3E8DCC"/>
<path d="M227.177 156.052C242.669 156.052 255.228 143.493 255.228 128C255.228 112.508 242.669 99.9492 227.177 99.9492C211.685 99.9492 199.126 112.508 199.126 128C199.126 143.493 211.685 156.052 227.177 156.052Z" fill="#3E8DCC"/>
<path d="M227.177 255.228C242.669 255.228 255.228 242.669 255.228 227.177C255.228 211.685 242.669 199.126 227.177 199.126C211.685 199.126 199.126 211.685 199.126 227.177C199.126 242.669 211.685 255.228 227.177 255.228Z" fill="#3E8DCC"/>
</g>
<defs>
<clipPath id="clip0_1_2074">
<rect width="256" height="256" fill="white"/>
</clipPath>
</defs>
</svg>
