<svg width="512" height="108" viewBox="0 0 512 108" fill="none" xmlns="http://www.w3.org/2000/svg">
<g clip-path="url(#clip0_1_2008)">
<path d="M20.9477 74.1769C20.0258 71.3805 19.5684 67.8505 19.5684 63.1043C19.5684 58.3564 20.0258 54.8192 20.9477 52.0299C23.5235 44.0264 30.3468 39.6533 39.2813 39.6533C45.9162 39.6533 51.17 42.3529 54.6749 46.6344C54.9458 47.004 55.0372 47.5618 54.5816 47.9331L48.779 53.0524C48.3162 53.4272 47.857 53.334 47.4857 52.8694C45.2723 50.3582 42.9691 48.9591 39.2831 48.9591C35.3225 48.9591 32.284 50.9142 30.9907 54.8228C30.2589 57.0613 30.0705 59.664 30.0705 63.1061C30.0705 66.5483 30.2571 69.246 30.9907 71.481C32.2822 75.2926 35.3225 77.2477 39.2831 77.2477C42.9691 77.2477 45.2723 75.8505 47.4857 73.3446C47.857 72.8729 48.3162 72.8729 48.779 73.246L54.5816 78.3652C55.0372 78.7365 54.9458 79.2029 54.6749 79.6693C51.1718 83.8594 45.918 86.5553 39.2813 86.5553C30.3468 86.5517 23.5235 82.1751 20.9477 74.1769Z" fill="#204156"/>
<path d="M222.274 74.1769C221.352 71.3805 220.895 67.8505 220.895 63.1043C220.895 58.3564 221.352 54.8192 222.274 52.0299C224.855 44.0264 231.671 39.6533 240.606 39.6533C247.243 39.6533 252.498 42.3529 255.998 46.6344C256.272 47.004 256.367 47.5618 255.903 47.9331L250.098 53.0524C249.637 53.4272 249.18 53.334 248.81 52.8694C246.6 50.3582 244.296 48.9591 240.606 48.9591C236.647 48.9591 233.605 50.9142 232.317 54.8228C231.578 57.0613 231.399 59.664 231.399 63.1061C231.399 66.5483 231.578 69.246 232.317 71.481C233.605 75.2926 236.647 77.2477 240.606 77.2477C244.296 77.2477 246.6 75.8505 248.81 73.3446C249.18 72.8729 249.639 72.8729 250.098 73.246L255.903 78.3652C256.367 78.7365 256.272 79.2029 255.998 79.6693C252.498 83.8594 247.243 86.5553 240.606 86.5553C231.671 86.5517 224.855 82.1751 222.274 74.1769Z" fill="#204156"/>
<path d="M454.964 85.5311C454.411 85.5311 454.043 85.1616 454.043 84.5984V58.7313C454.043 52.9609 451.184 48.9573 445.654 48.9573C440.311 48.9573 437.179 52.9591 437.179 58.7313V84.5984C437.179 85.1598 436.808 85.5311 436.259 85.5311H427.778C427.226 85.5311 426.854 85.1616 426.854 84.5984V58.7313C426.854 52.9609 423.999 48.9573 418.478 48.9573C413.131 48.9573 409.995 52.9591 409.995 58.7313V84.5984C409.995 85.1598 409.628 85.5311 409.073 85.5311H400.596C400.04 85.5311 399.676 85.1616 399.676 84.5984V41.6067C399.676 41.047 400.04 40.6739 400.596 40.6739H409.073C409.628 40.6739 409.995 41.047 409.995 41.6067V44.8641H410.089C412.026 42.0712 415.893 39.6533 421.789 39.6533C427.043 39.6533 431.281 41.7896 433.948 45.6067H434.044C437.452 41.8883 441.877 39.6533 448.235 39.6533C458.551 39.6533 464.361 46.7241 464.361 56.3097V84.5966C464.361 85.1598 463.99 85.5311 463.435 85.5311H454.964Z" fill="#204156"/>
<path d="M477.162 102.28C476.612 102.28 476.244 101.907 476.244 101.345V93.9031C476.244 93.347 476.612 92.9686 477.162 92.9686H478.823C482.323 92.9686 484.079 91.3937 485.458 87.6681L486.75 83.8529L470.531 41.6056C470.345 41.0459 470.716 40.6729 471.272 40.6729H480.391C480.944 40.6729 481.313 41.0459 481.492 41.6056L491.541 70.9184H491.722L501.308 41.6056C501.492 41.0459 501.862 40.6729 502.409 40.6729H511.161C511.718 40.6729 512.088 41.0459 511.9 41.6056L494.949 88.3193C491.082 98.9291 487.39 102.276 480.022 102.276L477.162 102.28Z" fill="#204156"/>
<path d="M63.1522 74.1806C62.1387 71.0112 61.6777 68.0354 61.6777 63.1045C61.6777 58.1807 62.1387 55.2014 63.1522 52.0444C65.64 44.2274 72.4526 39.666 81.4803 39.666C90.413 39.666 97.2291 44.2256 99.717 52.0444C100.725 55.2014 101.19 58.1807 101.19 63.1045C101.19 68.0354 100.725 71.0112 99.717 74.1806C97.2273 81.9923 90.413 86.5501 81.4803 86.5501C72.4526 86.5519 65.64 81.9941 63.1522 74.1806ZM89.7691 71.3896C90.5081 69.0668 90.691 66.9233 90.691 63.1063C90.691 59.3 90.5081 57.2498 89.7691 54.8337C88.4812 51.1153 85.6238 48.97 81.4803 48.97C77.3386 48.97 74.3862 51.1153 73.1001 54.8337C72.3665 57.2516 72.1799 59.3 72.1799 63.1063C72.1799 66.9233 72.3665 69.0668 73.1001 71.3896C74.3862 75.1152 77.3404 77.2479 81.4803 77.2479C85.6238 77.2461 88.4812 75.1134 89.7691 71.3896Z" fill="#204156"/>
<path d="M280.688 39.6533C273.408 39.6533 268.527 41.4201 264.93 44.0264C264.566 44.3098 264.471 44.769 264.751 45.2336L268.152 51.3788C268.437 51.8452 268.982 51.9385 269.447 51.5654C271.567 49.8936 274.604 48.4927 279.583 48.4927C286.842 48.4927 289.307 50.6954 289.433 55.5366H289.434V55.5958C289.438 55.7088 289.438 55.8236 289.438 55.9438V70.4621C289.438 75.5796 285.938 78.0872 279.583 78.0872C274.604 78.0872 271.935 76.2307 271.935 72.5106C271.935 68.3204 274.886 66.455 281.517 66.455L283.533 66.4586C284.086 66.4586 284.457 66.0855 284.457 65.5312V59.5653C284.457 59.0093 284.086 58.638 283.533 58.638H283.09L279.86 58.6362C268.896 58.6362 262.071 63.1097 262.071 72.8747C262.071 82.2755 268.896 86.5535 277 86.5535C283.26 86.5535 287.409 84.4154 289.529 81.3446H289.619V84.602C289.619 85.1616 289.992 85.5347 290.543 85.5347H298.281C298.835 85.5347 299.205 85.1634 299.205 84.602V55.2891C299.207 44.3098 294.233 39.6533 280.688 39.6533Z" fill="#204156"/>
<path d="M170.606 58.6328C170.366 58.6328 170.208 58.7924 170.208 59.0328V59.2982V60.0767V65.0058V65.6677V66.0498C170.208 66.2901 170.366 66.4516 170.606 66.4516H170.836H193.422C194.068 66.4516 194.437 66.0821 194.437 65.5278C194.437 58.2633 193.973 55.1906 192.963 52.0301C190.472 44.3996 183.84 39.6553 174.717 39.6553C165.873 39.6553 159.056 44.2131 156.565 52.0301C155.648 54.9144 155.091 58.4516 155.091 63.1045C155.091 67.7574 155.736 71.1977 156.664 74.0856C159.15 81.899 165.781 86.5519 175.178 86.5519C183.376 86.5519 189.646 83.3878 193.42 78.9214C193.786 78.4587 193.786 77.9941 193.327 77.6174L187.896 72.7798C187.431 72.4085 186.972 72.5053 186.509 72.9663C184.301 75.3878 181.076 77.2479 176.1 77.2479C171.13 77.2479 167.625 74.83 166.151 70.4587C165.928 69.8471 165.743 69.2049 165.627 68.5071H165.625C165.29 66.613 165.092 64.7691 165.092 62.0605C165.164 59.5081 165.311 57.8776 165.673 55.8059C165.677 55.7772 165.682 55.7521 165.688 55.7251C165.691 55.7036 165.695 55.6875 165.699 55.666V55.6678C165.786 55.1799 165.907 54.7207 166.056 54.2633C167.254 50.6346 170.57 48.4947 174.812 48.4947C178.96 48.4947 182.271 50.6346 183.469 54.2633C183.84 55.3861 184.021 56.4964 184.021 58.0821C184.021 58.4534 183.838 58.6363 183.469 58.6363H171.363L171.365 58.6346L170.606 58.6328Z" fill="#204156"/>
<path d="M146.531 22.2568H138.068C137.51 22.2568 137.143 22.6281 137.143 23.1806V44.9222V62.9024V63.0459V63.1894V65.5768H137.096C136.997 68.1418 136.719 69.8279 136.226 71.4082C135.03 75.1212 132.172 77.1642 127.945 77.1642C123.805 77.1642 120.954 75.1212 119.753 71.4082C119.111 69.3615 118.838 67.1337 118.838 63.0459C118.838 58.9598 119.111 56.7266 119.753 54.6872C120.931 51.0441 123.69 48.9867 127.693 48.906H131.306C131.482 48.863 131.597 48.7249 131.597 48.524L131.643 40.0289C131.643 39.8119 131.507 39.6666 131.306 39.6415L128.422 39.6307H125.032V39.6325C117.615 39.7115 112.185 43.3276 109.911 50.4038C108.806 53.8459 108.346 57.01 108.346 63.0459C108.346 69.0835 108.806 72.244 109.911 75.679C112.21 82.8359 117.731 86.4592 125.274 86.4592C131.258 86.4592 134.938 84.2332 137.049 81.1624H137.139V84.5077C137.139 85.0673 137.509 85.4386 138.065 85.4386H146.527C147.08 85.4386 147.449 85.0691 147.449 84.5077V23.1806C147.453 22.6263 147.083 22.2568 146.531 22.2568Z" fill="#204156"/>
<path d="M368.386 58.6328C368.15 58.6328 367.988 58.7924 367.988 59.0328V59.2982V60.0767V65.0058V65.6677V66.0498C367.988 66.2901 368.15 66.4516 368.386 66.4516H368.62H391.208C391.852 66.4516 392.221 66.0821 392.221 65.5278C392.221 58.2633 391.759 55.1906 390.749 52.0301C388.257 44.3996 381.624 39.6553 372.505 39.6553C363.658 39.6553 356.842 44.2131 354.351 52.0301C353.432 54.9144 352.876 58.4516 352.876 63.1045C352.876 67.7574 353.522 71.1977 354.449 74.0856C356.934 81.899 363.567 86.5519 372.964 86.5519C381.161 86.5519 387.432 83.3878 391.208 78.9214C391.574 78.4587 391.574 77.9941 391.113 77.6174L385.681 72.7798C385.219 72.4085 384.759 72.5053 384.297 72.9663C382.089 75.3878 378.865 77.2479 373.886 77.2479C368.916 77.2479 365.412 74.83 363.936 70.4587C363.716 69.8471 363.529 69.2049 363.416 68.5071H363.414C363.077 66.613 362.88 64.7691 362.88 62.0605C362.948 59.5081 363.095 57.8776 363.459 55.8059C363.466 55.7772 363.47 55.7521 363.473 55.7251C363.477 55.7036 363.481 55.6875 363.484 55.666V55.6678C363.576 55.1799 363.694 54.7207 363.843 54.2633C365.039 50.6346 368.358 48.4947 372.6 48.4947C376.747 48.4947 380.058 50.6346 381.256 54.2633C381.626 55.3861 381.811 56.4964 381.811 58.0821C381.811 58.4534 381.626 58.6363 381.256 58.6363H369.151V58.6346L368.386 58.6328Z" fill="#204156"/>
<path d="M336.272 22.2568C335.718 22.2568 335.348 22.6299 335.348 23.1824V44.9545V62.9634V63.2504V65.6414C335.203 68.21 334.923 69.8979 334.43 71.4799C333.231 75.2001 330.369 77.2485 326.137 77.2485C321.994 77.2485 319.138 75.2001 317.935 71.4799C317.294 69.4297 317.014 67.2001 317.014 63.1051C317.014 59.0136 317.291 56.7751 317.935 54.7338C319.113 51.0854 321.877 49.0441 325.888 48.9634L329.506 48.9652C330.06 48.9652 330.43 48.5939 330.43 48.0397V40.5832C330.43 40.0272 330.06 39.6559 329.506 39.6559H329.063L323.594 39.6541H323.466H323.348H323.223C315.797 39.733 310.358 43.3563 308.082 50.4432C306.975 53.8908 306.516 57.0567 306.516 63.1015C306.516 69.1481 306.975 72.3158 308.082 75.7561C310.383 82.9202 315.915 86.5507 323.468 86.5507C329.459 86.5507 333.145 84.3229 335.262 81.2467L335.352 84.5955C335.352 85.1588 335.721 85.5283 336.277 85.5283H344.754C345.307 85.5283 345.678 85.1606 345.678 84.5955V23.1824C345.671 22.6281 345.301 22.2568 344.751 22.2568H336.272Z" fill="#204156"/>
<path d="M221.582 98.2179V106.697C221.582 107.255 221.951 107.624 222.506 107.624H253.924C254.486 107.624 254.857 107.253 254.857 106.697V98.2179C254.857 97.6672 254.486 97.2959 253.924 97.2959H222.506C221.951 97.2959 221.582 97.6672 221.582 98.2179Z" fill="#204156"/>
<path d="M213.605 0.29955C213.591 0.2852 213.582 0.267263 213.569 0.254707C213.567 0.252914 213.566 0.252914 213.566 0.252914C213.404 0.0932731 213.175 0 212.902 0H212.891H1.11647C1.04652 0 0.980152 0.00717485 0.915578 0.0179371C0.897641 0.0215246 0.881498 0.0286994 0.861767 0.0322868C0.820511 0.0430491 0.775668 0.0520177 0.738 0.0681611C0.730826 0.0699548 0.725444 0.0735422 0.720063 0.0771297C0.391814 0.211658 0.190918 0.518383 0.190918 0.923762V0.92735V106.685V106.692C0.190918 107.015 0.316478 107.268 0.528136 107.429C0.544279 107.445 0.558629 107.46 0.580154 107.47V107.472C0.727238 107.565 0.906609 107.616 1.11647 107.616H212.889H212.9C213.212 107.616 213.465 107.495 213.625 107.289C213.75 107.135 213.824 106.932 213.824 106.69V106.683V0.92735V0.923762C213.824 0.670849 213.743 0.457397 213.605 0.29955ZM11.4303 97.2928C11.364 97.2928 11.2994 97.2874 11.242 97.2784C11.224 97.2749 11.2043 97.2659 11.1864 97.2605C11.1433 97.2515 11.1003 97.2426 11.0608 97.2264C11.0536 97.2246 11.0501 97.2193 11.0429 97.2175C10.7164 97.0847 10.5173 96.7798 10.5155 96.378V19.7219V11.2466C10.5155 10.8394 10.7164 10.5363 11.0429 10.3999C11.0519 10.3982 11.0572 10.3928 11.0626 10.391C11.1003 10.3766 11.2223 10.3461 11.242 10.3408C11.303 10.3318 11.3675 10.3264 11.4339 10.3264H202.579C202.647 10.3264 202.71 10.3318 202.771 10.3408C202.791 10.3461 202.809 10.3533 202.825 10.3587C202.868 10.3677 202.911 10.3766 202.95 10.3928C202.959 10.3946 202.963 10.3999 202.97 10.4017C203.298 10.5363 203.498 10.8412 203.498 11.2484V96.3798C203.496 96.7834 203.295 97.0883 202.972 97.221C202.965 97.2228 202.961 97.2282 202.952 97.23C202.915 97.2444 202.87 97.2551 202.828 97.2641C202.809 97.2695 202.793 97.2784 202.773 97.282C202.712 97.2928 202.653 97.2964 202.586 97.2964H11.4303V97.2928Z" fill="#204156"/>
</g>
<defs>
<clipPath id="clip0_1_2008">
<rect width="512" height="108" fill="white"/>
</clipPath>
</defs>
</svg>
