<svg width="512" height="99" viewBox="0 0 512 99" fill="none" xmlns="http://www.w3.org/2000/svg">
<g clip-path="url(#clip0_1_2036)">
<path d="M163.464 25.0009C170.814 25.0009 176.693 27.4491 181.593 32.5086L181.92 32.8351L188.453 26.4698L188.289 26.1434C182.41 19.615 173.427 16.0243 163.137 16.0243C142.885 16.0243 128.022 30.0605 128.022 49.4826C128.022 68.9047 142.722 82.9408 162.974 82.9408C173.263 82.9408 182.246 79.3502 188.289 72.6585L188.453 72.3321L181.92 65.9669L181.593 66.2933C176.693 71.3528 170.65 73.9642 163.464 73.9642C148.765 73.9642 138.149 63.6819 138.149 49.4826C138.149 35.2832 148.928 25.0009 163.464 25.0009ZM216.381 74.4538C206.745 74.4538 200.049 67.4358 200.049 57.6431C200.049 47.6873 206.745 40.8324 216.381 40.8324C226.018 40.8324 232.714 47.6873 232.714 57.6431C232.714 67.599 226.018 74.4538 216.381 74.4538ZM216.381 32.3454C201.192 32.3454 190.249 42.9541 190.249 57.6431C190.249 72.3321 201.192 82.9408 216.381 82.9408C231.571 82.9408 242.513 72.3321 242.513 57.6431C242.513 42.9541 231.407 32.3454 216.381 32.3454ZM271.912 74.4538C262.276 74.4538 255.416 67.4358 255.416 57.4799C255.416 47.524 262.112 40.506 271.912 40.506C281.548 40.506 288.244 47.524 288.244 57.4799C288.244 67.4358 281.548 74.4538 271.912 74.4538ZM288.244 39.2003C284.161 34.4672 278.282 32.019 271.259 32.019C256.233 32.019 245.78 42.4645 245.78 57.4799C245.78 72.4953 256.233 82.9408 271.259 82.9408C278.445 82.9408 284.651 80.1662 288.571 75.2699V82.288H297.881V12.7601H288.081L288.244 39.2003ZM329.239 40.506C337.242 40.506 343.285 45.8919 344.428 53.7261H314.213C315.193 45.8919 321.073 40.506 329.239 40.506ZM329.239 32.3454C314.866 32.3454 304.577 42.9541 304.577 57.6431C304.577 72.4953 315.356 82.9408 331.036 82.9408C339.202 82.9408 345.898 80.1662 350.471 74.9435L350.635 74.7803L345.245 68.5783L344.918 68.9047C341.488 72.6585 336.915 74.6171 331.199 74.6171C322.053 74.6171 315.356 69.3943 314.05 61.0705H353.248V60.7441C353.411 59.9281 353.411 58.7856 353.411 57.9695C353.575 42.7909 343.448 32.3454 329.239 32.3454ZM398.162 67.599C395.222 72.0057 390.649 74.4538 384.933 74.4538C374.97 74.4538 368.274 67.599 368.274 57.6431C368.274 47.6873 375.133 40.8324 384.933 40.8324C390.649 40.8324 395.222 43.1174 398.162 47.6873L398.326 48.0137L405.839 43.2806L405.675 42.9541C401.755 36.2625 394.243 32.3454 385.096 32.3454C369.744 32.3454 358.474 42.9541 358.474 57.6431C358.474 72.3321 369.744 82.9408 385.096 82.9408C394.243 82.9408 401.755 79.0238 405.675 72.1689L405.839 71.8425L398.326 67.2726L398.162 67.599ZM435.237 74.4538C425.601 74.4538 418.905 67.4358 418.905 57.6431C418.905 47.6873 425.601 40.8324 435.237 40.8324C444.873 40.8324 451.57 47.6873 451.57 57.6431C451.57 67.599 444.873 74.4538 435.237 74.4538ZM435.237 32.3454C420.048 32.3454 409.105 42.9541 409.105 57.6431C409.105 72.3321 420.048 82.9408 435.237 82.9408C450.426 82.9408 461.369 72.3321 461.369 57.6431C461.369 42.9541 450.263 32.3454 435.237 32.3454ZM502.527 32.3454L485.868 70.5368L469.535 32.3454H459.573L480.968 81.1455L481.132 81.3087H490.604L512 32.3454H502.527ZM51.9535 0C23.3213 0 0 23.0743 0 51.2249V51.4556L8.77436 56.5319H9.00527C14.547 52.8401 21.2432 51.4556 27.9394 52.6093C32.5575 53.5323 36.9447 55.609 40.4082 58.8394L42.0246 60.2238L42.9482 58.3779C43.8718 56.5319 44.7954 54.9167 45.719 53.3015C46.1809 52.6093 46.6427 52.1478 47.1045 51.4556L48.0281 50.3019L46.8736 49.3789C42.0246 45.4563 36.252 42.6874 30.0176 41.5337C24.014 40.38 18.0105 40.6107 12.4688 42.4566C16.6251 24.228 32.7884 11.3064 51.9535 11.3064C62.806 11.3064 72.9657 15.4598 80.5856 23.0743C86.1273 28.3813 89.8218 35.0729 91.4381 42.4566C87.9745 41.3029 84.2801 40.8414 80.5856 40.8414H79.8929C78.5074 40.8414 77.122 41.0722 75.5057 41.0722H75.2748C74.813 41.0722 74.1203 41.3029 73.6585 41.3029C72.7348 41.5337 72.0421 41.5337 71.1185 41.7644L70.4258 41.9952C69.7331 42.2259 69.0404 42.4566 68.3477 42.6874H68.1168C66.5004 43.1489 65.115 43.8411 63.4987 44.5333C62.806 44.7641 62.1132 45.2256 61.4205 45.687H61.1896C57.7261 47.7637 54.4934 50.3019 51.9535 53.5323L51.7226 53.9938C51.0298 54.9167 50.568 55.609 50.1062 56.0705C49.6444 56.5319 49.4135 57.2242 48.9517 57.9164L48.7208 58.3779C48.259 59.0701 48.0281 59.7623 47.7972 60.2238V60.4546C47.1045 61.839 46.4118 63.4542 45.9499 65.0694V65.3002C44.7954 68.992 44.1027 72.9147 44.1027 77.068V77.5295C44.1027 77.991 44.1027 78.6832 44.1027 79.1447C44.1027 79.3755 44.1027 79.6062 44.1027 79.8369C44.1027 80.0677 44.1027 80.5292 44.1027 80.7599V80.9907V81.4521C44.1027 81.9136 44.3336 82.6059 44.3336 83.0673C45.4881 88.6052 48.0281 93.9122 51.9535 98.7578L52.1844 98.9886L52.4153 98.7578C54.0316 96.9119 57.7261 91.1433 58.1879 87.6822C56.3406 84.2211 55.417 80.2984 55.417 76.6066C55.417 63.685 65.5768 52.8401 78.7383 52.1478H79.662C84.9728 51.9171 90.2836 53.5323 94.6707 56.5319H94.9016L103.676 51.4556V51.2249C103.676 37.611 98.3652 24.6895 88.4363 14.9983C78.7384 5.30708 65.8077 0 51.9535 0Z" fill="#FF0077"/>
</g>
<defs>
<clipPath id="clip0_1_2036">
<rect width="512" height="99" fill="white"/>
</clipPath>
</defs>
</svg>
