<svg width="512" height="73" viewBox="0 0 512 73" fill="none" xmlns="http://www.w3.org/2000/svg">
<g clip-path="url(#clip0_1_2085)">
<path d="M72.3307 0V72.3307H0V0H72.3307ZM64.9332 7.39745H7.39745V64.9332H64.9332V7.39745Z" fill="black"/>
<path d="M147.267 42.5327H139.476C138.344 49.5911 133.616 53.6528 127.091 53.6528C118.434 53.6528 112.774 46.9276 112.774 36.2069C112.774 25.6195 118.234 18.761 126.625 18.761C133.416 18.761 137.878 22.7563 139.143 29.9477H146.933C145.402 19.4269 136.946 12.5684 126.358 12.5684C113.64 12.5684 104.85 23.0892 104.85 36.2069C104.85 49.7242 113.839 59.8455 126.558 59.8455C137.146 59.8455 145.668 53.0536 147.267 42.5327ZM183.015 42.5327C183.015 33.5434 176.822 25.22 166.701 25.22C156.58 25.22 150.387 33.5434 150.387 42.5327C150.387 51.522 156.58 59.8455 166.701 59.8455C176.822 59.8455 183.015 51.522 183.015 42.5327ZM158.045 42.5327C158.045 35.4079 161.174 30.6136 166.701 30.6136C172.295 30.6136 175.424 35.4079 175.424 42.5327C175.424 49.5911 172.295 54.4519 166.701 54.4519C161.174 54.4519 158.045 49.5911 158.045 42.5327ZM211.339 52.1879H211.139C209.541 56.7824 205.679 59.8455 200.618 59.8455C191.562 59.8455 186.634 51.855 186.634 42.5327C186.634 33.2105 191.762 25.22 200.618 25.22C205.679 25.22 209.541 28.2164 211.139 32.811H211.339V13.2342H218.463V59.1796H211.339V52.1879ZM202.948 30.6136C197.422 30.6136 194.292 35.4079 194.292 42.5327C194.292 49.5911 197.422 54.4519 202.948 54.4519C208.542 54.4519 211.605 49.5911 211.605 42.5327C211.605 35.4079 208.542 30.6136 202.948 30.6136ZM254.285 48.8585H247.027C246.228 51.522 244.363 54.4519 240.035 54.4519C234.974 54.4519 231.446 50.9228 231.113 44.8633H254.884C255.883 33.2771 249.357 25.22 239.436 25.22C229.514 25.22 223.854 33.3437 223.854 42.5327C223.854 51.7219 229.647 59.8455 239.569 59.8455C247.693 59.8455 252.887 55.4507 254.285 48.8585ZM239.436 30.6136C244.297 30.6136 247.16 34.0761 247.626 39.4697H231.179C231.646 34.0761 234.575 30.6136 239.436 30.6136ZM275.496 30.947L282.981 32.7444C291.637 34.742 295.966 39.27 295.966 46.528C295.966 54.1855 288.507 59.8455 277.853 59.8455C265.668 59.8455 259.076 51.3223 258.343 42.9989H266.134C266.6 48.9917 271.461 53.6528 277.92 53.6528C283.779 53.6528 288.108 51.1225 288.108 46.8609C288.108 43.132 285.312 41.1344 279.385 39.7361L272.726 38.2046C263.736 36.0738 259.276 31.8788 259.276 25.4864C259.276 17.7622 266.866 12.5684 276.122 12.5684C287.842 12.5684 293.834 18.9607 294.633 26.8847H286.843C286.244 21.4245 281.649 18.761 276.255 18.761C270.995 18.761 267.199 21.025 267.199 24.9537C267.199 27.6921 268.984 29.1559 273.98 30.5497L275.496 30.947ZM323.974 52.1879H324.174V59.1796H331.298V25.8859H324.174V32.811H323.974C322.375 28.2164 318.513 25.22 313.452 25.22C304.597 25.22 299.469 33.2105 299.469 42.5327C299.469 51.855 304.397 59.8455 313.452 59.8455C318.513 59.8455 322.375 56.7824 323.974 52.1879ZM307.127 42.5327C307.127 35.4079 310.323 30.6136 315.717 30.6136C321.11 30.6136 324.44 35.4079 324.44 42.5327C324.44 49.5911 321.11 54.4519 315.717 54.4519C310.39 54.4519 307.127 49.5911 307.127 42.5327ZM345.812 39.2034V59.1796H338.554V25.8859H345.612V32.4115H345.745C347.144 27.7503 350.606 25.22 355.467 25.22C362.792 25.22 366.387 30.2141 366.387 37.5387V59.1796H359.129V39.6695C359.129 33.4769 356.932 30.6802 352.471 30.6802C348.009 30.6802 345.812 33.7432 345.812 39.2034ZM396.075 52.1879H396.275V59.1796H403.4V13.2342H396.275V32.811H396.075C394.477 28.2164 390.615 25.22 385.555 25.22C376.698 25.22 371.571 33.2105 371.571 42.5327C371.571 51.855 376.498 59.8455 385.555 59.8455C390.615 59.8455 394.477 56.7824 396.075 52.1879ZM379.229 42.5327C379.229 35.4079 382.358 30.6136 387.885 30.6136C393.479 30.6136 396.541 35.4079 396.541 42.5327C396.541 49.5911 393.479 54.4519 387.885 54.4519C382.358 54.4519 379.229 49.5911 379.229 42.5327ZM428.501 25.22C437.357 25.22 442.484 33.2105 442.484 42.5327C442.484 51.855 437.557 59.8455 428.501 59.8455C423.44 59.8455 419.578 56.7824 417.98 52.1879H417.78V59.1796H410.656V13.2342H417.78V32.811H417.98C419.578 28.2164 423.44 25.22 428.501 25.22ZM426.171 30.6136C420.577 30.6136 417.514 35.4079 417.514 42.5327C417.514 49.5911 420.577 54.4519 426.171 54.4519C431.697 54.4519 434.826 49.5911 434.826 42.5327C434.826 35.4079 431.697 30.6136 426.171 30.6136ZM462.456 25.22C472.577 25.22 478.771 33.5434 478.771 42.5327C478.771 51.522 472.577 59.8455 462.456 59.8455C452.335 59.8455 446.142 51.522 446.142 42.5327C446.142 33.5434 452.335 25.22 462.456 25.22ZM487.828 25.8859L495.02 36.2735L502.211 25.8859H510.336L499.282 41.201L512 59.1796H503.876L495.02 46.2616L486.164 59.1796H477.974L490.759 41.2676L479.639 25.8859H487.828ZM462.456 30.6136C456.929 30.6136 453.8 35.4079 453.8 42.5327C453.8 49.5911 456.929 54.4519 462.456 54.4519C468.049 54.4519 471.179 49.5911 471.179 42.5327C471.179 35.4079 468.049 30.6136 462.456 30.6136Z" fill="black"/>
</g>
<defs>
<clipPath id="clip0_1_2085">
<rect width="512" height="73" fill="white"/>
</clipPath>
</defs>
</svg>
