<svg width="512" height="85" viewBox="0 0 512 85" fill="none" xmlns="http://www.w3.org/2000/svg">
<g clip-path="url(#clip0_1_2054)">
<path d="M21.6402 83.3269C16.2924 80.9643 12.6586 75.8744 12.182 70.0447C12.4945 64.0483 15.662 58.5677 20.692 55.2986C19.8663 57.3121 20.0669 59.6044 21.213 61.4461C22.518 63.2695 24.7634 64.1447 26.9619 63.6888C30.093 62.8084 31.9268 59.5575 31.0464 56.4239C30.7338 55.3272 30.1086 54.3322 29.2542 53.582C25.7116 50.701 23.9325 46.1738 24.5655 41.6491C25.1724 39.2526 26.4983 37.0854 28.3712 35.4495C26.9645 39.2005 30.9317 42.9021 33.5939 44.7229C38.3191 47.5569 42.8672 50.6724 47.2225 54.0509C51.9816 57.8019 54.5761 63.6732 54.1697 69.68C53.0991 76.0723 48.5771 81.3498 42.414 83.3295C54.7428 80.5866 67.4545 70.7923 67.6967 56.9006C67.4545 45.7856 60.8199 35.8116 50.6792 31.2687H50.2285C50.4526 31.8132 50.562 32.3993 50.5411 32.9906C50.575 32.6076 50.575 32.2273 50.5411 31.8444C50.5958 32.2951 50.5958 32.7483 50.5411 33.1989C49.7701 36.3586 46.5817 38.3045 43.4142 37.5334C42.1483 37.2209 41.0178 36.5097 40.205 35.4834C36.1415 30.2737 40.205 24.345 40.8849 18.6143C41.3017 11.2869 37.9544 4.28239 32.0154 0C34.9875 4.95444 31.0281 11.4614 28.1497 15.1629C25.2662 18.8644 21.0984 21.6229 17.7017 24.853C14.0418 28.2575 10.6868 32.0007 7.67554 36.0018C1.16599 43.9544 -1.38937 54.4442 0.728378 64.499C3.6328 74.189 11.687 81.4696 21.6194 83.3581H21.6741L21.6402 83.3269Z" fill="#DD4814"/>
<path d="M106.184 41.7012C106.184 38.5893 106.718 35.5016 107.788 32.4383C108.907 29.3264 110.511 26.5548 112.602 24.1236C114.693 21.6924 117.27 19.7231 120.333 18.2158C123.397 16.6598 126.873 15.8818 130.763 15.8818C135.382 15.8818 139.321 16.9272 142.579 19.0181C145.885 21.1089 148.316 23.8319 149.872 27.1869L145.861 29.6667C145.034 27.9649 144.013 26.5305 142.798 25.3635C141.631 24.1965 140.366 23.2484 139.005 22.519C137.643 21.7896 136.233 21.2791 134.775 20.9873C133.316 20.647 131.881 20.4768 130.471 20.4768C127.359 20.4768 124.612 21.1089 122.23 22.3731C119.847 23.6374 117.829 25.2906 116.176 27.3328C114.571 29.375 113.356 31.6846 112.529 34.2617C111.702 36.7902 111.289 39.3672 111.289 41.9929C111.289 44.8618 111.775 47.609 112.748 50.2347C113.769 52.8604 115.13 55.1944 116.832 57.2366C118.583 59.2302 120.625 60.8348 122.959 62.0504C125.341 63.2173 127.919 63.8008 130.69 63.8008C132.149 63.8008 133.632 63.6307 135.139 63.2903C136.695 62.9013 138.178 62.3178 139.588 61.5398C141.047 60.7132 142.384 59.7164 143.6 58.5494C144.815 57.3338 145.837 55.8751 146.663 54.1733L150.893 56.3614C150.067 58.3063 148.9 60.0325 147.392 61.5398C145.885 62.9985 144.208 64.2385 142.36 65.2596C140.512 66.2807 138.543 67.0586 136.452 67.5935C134.41 68.1284 132.392 68.3958 130.398 68.3958C126.849 68.3958 123.591 67.6178 120.625 66.0619C117.659 64.5059 115.106 62.488 112.967 60.0082C110.827 57.4797 109.15 54.6352 107.934 51.4746C106.767 48.2654 106.184 45.0076 106.184 41.7012ZM174.816 68.6876C172.045 68.6876 169.516 68.177 167.231 67.1559C164.946 66.0862 162.952 64.6518 161.25 62.8527C159.597 61.0536 158.309 58.9627 157.385 56.5802C156.461 54.1976 155.999 51.6934 155.999 49.0677C155.999 46.3934 156.461 43.865 157.385 41.4824C158.357 39.0998 159.67 37.009 161.323 35.2099C163.025 33.4108 165.019 31.9764 167.304 30.9067C169.589 29.8369 172.094 29.3021 174.816 29.3021C177.539 29.3021 180.044 29.8369 182.329 30.9067C184.663 31.9764 186.656 33.4108 188.31 35.2099C190.011 37.009 191.324 39.0998 192.248 41.4824C193.221 43.865 193.707 46.3934 193.707 49.0677C193.707 51.6934 193.245 54.1976 192.321 56.5802C191.397 58.9627 190.084 61.0536 188.383 62.8527C186.729 64.6518 184.736 66.0862 182.402 67.1559C180.116 68.177 177.588 68.6876 174.816 68.6876ZM161.032 49.1407C161.032 51.2801 161.396 53.2737 162.126 55.1214C162.855 56.9205 163.827 58.5251 165.043 59.9352C166.307 61.2967 167.766 62.3664 169.419 63.1444C171.121 63.9224 172.92 64.3114 174.816 64.3114C176.713 64.3114 178.488 63.9224 180.141 63.1444C181.843 62.3178 183.326 61.2238 184.59 59.8623C185.854 58.4522 186.851 56.8233 187.58 54.9756C188.31 53.1279 188.674 51.1343 188.674 48.9948C188.674 46.904 188.31 44.9347 187.58 43.087C186.851 41.1906 185.854 39.5617 184.59 38.2003C183.326 36.7902 181.843 35.6961 180.141 34.9181C178.488 34.0915 176.713 33.6782 174.816 33.6782C172.92 33.6782 171.145 34.0915 169.492 34.9181C167.839 35.6961 166.38 36.7902 165.116 38.2003C163.852 39.6104 162.855 41.2636 162.126 43.1599C161.396 45.0076 161.032 47.0012 161.032 49.1407ZM217.63 68.6876C215.004 68.6876 212.573 68.1527 210.336 67.083C208.1 65.9646 206.179 64.5059 204.574 62.7068C202.97 60.9077 201.706 58.8412 200.782 56.5072C199.906 54.1246 199.469 51.6448 199.469 49.0677C199.469 46.3934 199.906 43.865 200.782 41.4824C201.657 39.0512 202.848 36.936 204.356 35.137C205.912 33.3379 207.735 31.9278 209.826 30.9067C211.965 29.8369 214.299 29.3021 216.828 29.3021C220.037 29.3021 222.881 30.153 225.361 31.8548C227.841 33.508 229.786 35.5259 231.196 37.9085V14.7148H236.156V61.5398C236.156 62.9013 236.739 63.582 237.906 63.582V67.9582C237.177 68.1041 236.593 68.177 236.156 68.177C234.989 68.177 233.968 67.8123 233.092 67.083C232.217 66.305 231.78 65.3811 231.78 64.3114V60.5916C230.272 63.0715 228.23 65.0408 225.653 66.4995C223.076 67.9582 220.402 68.6876 217.63 68.6876ZM218.724 64.3114C219.94 64.3114 221.228 64.0683 222.59 63.582C224 63.0958 225.313 62.4394 226.528 61.6128C227.744 60.7375 228.765 59.7407 229.591 58.6224C230.467 57.4554 231.002 56.2155 231.196 54.9026V43.1599C230.71 41.8471 230.005 40.6315 229.081 39.5131C228.157 38.3461 227.087 37.325 225.872 36.4498C224.705 35.5746 223.441 34.8938 222.079 34.4076C220.718 33.9213 219.38 33.6782 218.068 33.6782C216.025 33.6782 214.178 34.1158 212.524 34.9911C210.871 35.8663 209.437 37.0333 208.221 38.492C207.054 39.9021 206.155 41.531 205.523 43.3787C204.89 45.2264 204.574 47.1228 204.574 49.0677C204.574 51.11 204.939 53.0549 205.668 54.9026C206.398 56.7503 207.395 58.3792 208.659 59.7893C209.923 61.1508 211.406 62.2449 213.108 63.0715C214.858 63.8981 216.73 64.3114 218.724 64.3114ZM263.798 68.6876C261.027 68.6876 258.474 68.177 256.14 67.1559C253.855 66.0862 251.861 64.6518 250.159 62.8527C248.458 61.005 247.12 58.8898 246.148 56.5072C245.224 54.1246 244.762 51.5719 244.762 48.8489C244.762 46.1746 245.224 43.6705 246.148 41.3365C247.12 38.9539 248.433 36.8874 250.087 35.137C251.788 33.3379 253.806 31.9278 256.14 30.9067C258.474 29.8369 261.003 29.3021 263.726 29.3021C266.497 29.3021 269.026 29.8369 271.311 30.9067C273.645 31.9278 275.638 33.3379 277.292 35.137C278.945 36.936 280.233 39.0026 281.157 41.3365C282.081 43.6705 282.543 46.1503 282.543 48.776C282.543 49.165 282.543 49.554 282.543 49.943C282.543 50.332 282.519 50.5994 282.47 50.7453H249.941C250.087 52.7875 250.548 54.6838 251.326 56.4343C252.153 58.1361 253.198 59.6192 254.463 60.8834C255.727 62.1476 257.161 63.1444 258.766 63.8738C260.419 64.5545 262.17 64.8949 264.017 64.8949C265.233 64.8949 266.448 64.7247 267.664 64.3843C268.88 64.044 269.998 63.582 271.019 62.9985C272.04 62.4151 272.964 61.71 273.791 60.8834C274.617 60.0082 275.249 59.06 275.687 58.0389L279.99 59.2059C279.407 60.616 278.58 61.9045 277.51 63.0715C276.441 64.1898 275.201 65.1866 273.791 66.0619C272.381 66.8885 270.825 67.5449 269.123 68.0311C267.421 68.4687 265.646 68.6876 263.798 68.6876ZM249.868 46.9526H277.802C277.656 44.9104 277.17 43.0627 276.344 41.4095C275.566 39.7076 274.544 38.2489 273.28 37.0333C272.065 35.8177 270.63 34.8695 268.977 34.1888C267.372 33.508 265.646 33.1677 263.798 33.1677C261.951 33.1677 260.2 33.508 258.547 34.1888C256.894 34.8695 255.435 35.8177 254.171 37.0333C252.955 38.2489 251.959 39.7076 251.181 41.4095C250.451 43.1113 250.014 44.959 249.868 46.9526ZM300.194 67.9582H290.128V16.1736H300.194V67.9582ZM324.554 68.177C321.977 68.177 319.643 67.6664 317.552 66.6453C315.462 65.6242 313.638 64.2385 312.082 62.488C310.575 60.6889 309.408 58.6224 308.581 56.2884C307.755 53.9545 307.341 51.4746 307.341 48.8489C307.341 46.0774 307.779 43.5003 308.654 41.1177C309.529 38.7351 310.745 36.6443 312.301 34.8452C313.857 33.0461 315.729 31.636 317.917 30.6149C320.105 29.5938 322.512 29.0833 325.138 29.0833C328.104 29.0833 330.705 29.764 332.942 31.1255C335.179 32.4383 337.026 34.2131 338.485 36.4498V29.7397H347.019V66.1348C347.019 68.955 346.484 71.4834 345.414 73.7201C344.344 75.9569 342.861 77.8532 340.965 79.4092C339.117 80.9651 336.88 82.1564 334.255 82.983C331.678 83.8096 328.857 84.2229 325.794 84.2229C321.613 84.2229 318.087 83.5422 315.218 82.1807C312.398 80.7706 309.967 78.8014 307.925 76.2729L313.249 71.0944C314.708 72.8935 316.531 74.3036 318.719 75.3247C320.956 76.3458 323.314 76.8564 325.794 76.8564C327.302 76.8564 328.736 76.6619 330.097 76.2729C331.508 75.8353 332.747 75.1789 333.817 74.3036C334.887 73.4284 335.713 72.31 336.297 70.9486C336.929 69.5871 337.245 67.9825 337.245 66.1348V61.321C335.981 63.5091 334.206 65.2109 331.921 66.4265C329.635 67.5935 327.18 68.177 324.554 68.177ZM327.836 60.3728C328.906 60.3728 329.927 60.2027 330.9 59.8623C331.872 59.5219 332.772 59.06 333.598 58.4765C334.425 57.893 335.154 57.2123 335.786 56.4343C336.419 55.6563 336.905 54.8297 337.245 53.9545V44.8375C336.37 42.6007 334.984 40.8017 333.088 39.4402C331.24 38.0787 329.295 37.398 327.253 37.398C325.746 37.398 324.384 37.7383 323.168 38.4191C321.953 39.0512 320.907 39.9264 320.032 41.0448C319.157 42.1145 318.476 43.3544 317.99 44.7645C317.552 46.1746 317.334 47.6333 317.334 49.1407C317.334 50.6966 317.601 52.1554 318.136 53.5168C318.671 54.8783 319.4 56.0696 320.324 57.0907C321.296 58.1118 322.415 58.9141 323.679 59.4976C324.943 60.0811 326.329 60.3728 327.836 60.3728ZM391.364 44.1081V67.9582H381.59V46.515C381.59 43.4517 381.055 41.215 379.986 39.8049C378.916 38.3948 377.433 37.6897 375.537 37.6897C374.564 37.6897 373.567 37.8842 372.546 38.2732C371.525 38.6622 370.553 39.2214 369.629 39.9507C368.754 40.6315 367.951 41.4581 367.222 42.4306C366.492 43.403 365.958 44.4728 365.617 45.6397V67.9582H355.844V29.7397H364.669V36.8145C366.079 34.3833 368.121 32.4869 370.796 31.1255C373.47 29.764 376.485 29.0833 379.84 29.0833C382.222 29.0833 384.167 29.5209 385.675 30.3961C387.182 31.2713 388.349 32.414 389.176 33.8241C390.002 35.2342 390.561 36.8388 390.853 38.6379C391.194 40.437 391.364 42.2604 391.364 44.1081ZM409.671 67.9582H399.897V29.7397H409.671V67.9582ZM409.671 24.4153H399.897V14.7148H409.671V24.4153ZM439.429 58.2577L441.398 65.9889C440.085 66.5724 438.48 67.1559 436.584 67.7394C434.688 68.3229 432.694 68.6146 430.603 68.6146C429.242 68.6146 427.953 68.4444 426.738 68.1041C425.571 67.7637 424.525 67.2288 423.601 66.4995C422.726 65.7215 422.021 64.749 421.486 63.582C420.951 62.3664 420.684 60.9077 420.684 59.2059V37.2521H415.651V29.7397H420.684V17.3405H430.457V29.7397H438.48V37.2521H430.457V55.9237C430.457 57.2852 430.798 58.2577 431.479 58.8412C432.208 59.376 433.083 59.6435 434.104 59.6435C435.125 59.6435 436.122 59.4733 437.095 59.1329C438.067 58.7926 438.845 58.5008 439.429 58.2577ZM463.279 68.6876C460.215 68.6876 457.444 68.177 454.964 67.1559C452.484 66.0862 450.369 64.6518 448.619 62.8527C446.868 61.0536 445.507 58.9627 444.534 56.5802C443.61 54.1976 443.148 51.6934 443.148 49.0677C443.148 46.3448 443.61 43.792 444.534 41.4095C445.458 38.9783 446.795 36.8631 448.546 35.064C450.296 33.2163 452.411 31.7576 454.891 30.6878C457.419 29.6181 460.24 29.0833 463.352 29.0833C466.464 29.0833 469.235 29.6181 471.666 30.6878C474.146 31.7576 476.237 33.192 477.939 34.9911C479.689 36.7902 481.002 38.881 481.877 41.2636C482.801 43.6462 483.263 46.126 483.263 48.7031C483.263 49.3352 483.239 49.943 483.19 50.5265C483.19 51.11 483.142 51.5962 483.044 51.9852H453.505C453.651 53.4925 454.016 54.8297 454.599 55.9967C455.183 57.1637 455.936 58.1604 456.86 58.9871C457.784 59.8137 458.83 60.4458 459.997 60.8834C461.164 61.321 462.379 61.5398 463.643 61.5398C465.588 61.5398 467.412 61.0779 469.114 60.154C470.864 59.1815 472.055 57.9173 472.687 56.3614L481.075 58.6953C479.665 61.6128 477.404 64.0196 474.292 65.916C471.229 67.7637 467.558 68.6876 463.279 68.6876ZM453.359 45.6397H473.198C472.955 42.7709 471.885 40.4856 469.989 38.7838C468.141 37.0333 465.88 36.1581 463.206 36.1581C461.893 36.1581 460.653 36.4012 459.486 36.8874C458.368 37.325 457.371 37.9571 456.496 38.7838C455.62 39.6104 454.891 40.6072 454.308 41.7741C453.773 42.9411 453.457 44.2297 453.359 45.6397ZM512 29.3021V38.2003C509.034 38.2489 506.384 38.8324 504.05 39.9507C501.716 41.0205 500.039 42.6494 499.017 44.8375V67.9582H489.244V29.7397H498.215V37.9085C498.896 36.5957 499.698 35.4287 500.622 34.4076C501.546 33.3379 502.543 32.414 503.612 31.636C504.682 30.858 505.752 30.2745 506.822 29.8856C507.94 29.4479 509.01 29.2291 510.031 29.2291C510.566 29.2291 510.955 29.2291 511.198 29.2291C511.489 29.2291 511.757 29.2534 512 29.3021Z" fill="#DD4814"/>
</g>
<defs>
<clipPath id="clip0_1_2054">
<rect width="512" height="85" fill="white"/>
</clipPath>
</defs>
</svg>
