<svg width="512" height="78" viewBox="0 0 512 78" fill="none" xmlns="http://www.w3.org/2000/svg">
<g clip-path="url(#clip0_1_2068)">
<path d="M141.61 54.9464C138.621 51.9494 136.939 47.8915 136.931 43.6585C136.931 39.4474 138.61 35.3991 141.61 32.3727C143.133 30.9173 144.93 29.7786 146.897 29.0229C148.875 28.262 150.982 27.8959 153.1 27.9453C156.421 27.8655 159.688 28.7917 162.473 30.6025C165.192 32.3793 167.22 35.0347 168.218 38.1258H158.998C158.486 37.0635 157.669 36.1772 156.653 35.5797C155.625 34.9744 154.444 34.6799 153.253 34.7323C152.108 34.6698 150.963 34.8482 149.891 35.2562C148.826 35.6604 147.858 36.2867 147.054 37.0938C145.6 38.9174 144.808 41.1797 144.805 43.5117C144.805 45.8335 145.597 48.0939 147.056 49.9295C147.855 50.7333 148.822 51.3584 149.893 51.7672C150.964 52.1748 152.109 52.3534 153.253 52.2911C154.416 52.3685 155.575 52.1184 156.595 51.5687C157.608 51.0242 158.443 50.1986 158.998 49.1913H168.069C167.072 52.283 165.044 54.939 162.324 56.7165C159.539 58.5266 156.272 59.4521 152.951 59.3718C150.859 59.4017 148.78 59.0265 146.829 58.2664C144.89 57.5115 143.118 56.3835 141.612 54.9464H141.61ZM175.93 54.9464C172.94 51.9496 171.257 47.8917 171.249 43.6585C171.249 39.4474 172.927 35.3991 175.93 32.3727C179.071 29.5085 183.17 27.9239 187.42 27.9314C191.687 27.9314 195.797 29.519 198.91 32.3727C201.899 35.3691 203.582 39.4262 203.589 43.6585C203.582 47.8917 201.899 51.9496 198.908 54.9464C195.785 57.8441 191.679 59.451 187.418 59.4432C183.158 59.451 179.052 57.8441 175.928 54.9464H175.93ZM193.467 50.0764C194.921 48.2536 195.714 45.9919 195.717 43.6605C195.717 41.3387 194.924 39.0803 193.467 37.2427C191.839 35.6858 189.671 34.819 187.418 34.8235C185.156 34.8235 182.985 35.6928 181.371 37.2446C179.918 39.0674 179.124 41.3289 179.121 43.6605C179.121 45.9844 179.913 48.2427 181.371 50.0784C183 51.6346 185.166 52.5015 187.418 52.4975C189.681 52.4975 191.854 51.6283 193.467 50.0784V50.0764ZM219.469 28.3878C223.992 28.2152 228.414 29.7415 231.867 32.6664C233.389 34.0905 234.603 35.8097 235.439 37.7189C236.266 39.6155 236.695 41.6625 236.695 43.732C236.695 45.8014 236.266 47.8484 235.439 49.745C234.603 51.6543 233.389 53.3734 231.867 54.7975C228.421 57.7356 223.994 59.2638 219.469 59.0761H208.434V28.3878H219.469ZM215.993 53.4719H219.469C220.755 53.5455 222.043 53.3461 223.246 52.8864C224.443 52.4314 225.526 51.7247 226.425 50.8146C227.302 49.8639 227.981 48.7478 228.423 47.5317C228.864 46.3158 229.059 45.0241 228.995 43.732C229.059 42.4403 228.864 41.1487 228.423 39.9332C227.981 38.7175 227.302 37.6019 226.425 36.6513C225.526 35.741 224.443 35.0345 223.246 34.5795C222.043 34.1205 220.755 33.9216 219.469 33.996H215.993V53.4699V53.4719ZM260.59 28.241V33.996H249.251V40.6342H259.38V46.3892H249.253V53.4699H260.592V59.2249H241.543V28.241H260.59ZM274.952 47.1255V59.0761H267.242V28.3878H279.639C282.713 28.2289 285.734 29.2297 288.105 31.1919C289.07 32.0215 289.84 33.0435 290.362 34.1885C290.883 35.3356 291.145 36.5779 291.13 37.8321C291.094 39.679 290.514 41.4744 289.467 42.9957C288.151 44.8062 286.212 46.0667 284.023 46.5361L291.733 59.0781H282.965L275.861 47.1255H274.952ZM274.952 33.996V41.3724H279.639C280.141 41.3922 280.642 41.3129 281.112 41.1343C281.58 40.9557 282.005 40.6858 282.362 40.3405C282.709 39.9872 282.981 39.5705 283.164 39.116C283.344 38.6596 283.432 38.1734 283.418 37.6832C283.432 37.194 283.344 36.7072 283.164 36.2524C282.981 35.7946 282.707 35.378 282.36 35.028C282.003 34.6805 281.576 34.4102 281.11 34.2342C280.642 34.0562 280.141 33.9752 279.639 33.996H274.952ZM307.91 33.8472C307.041 33.8002 306.184 34.0617 305.489 34.5854C305.174 34.8593 304.926 35.2026 304.769 35.5876C304.61 35.9706 304.549 36.3854 304.584 36.7981C304.579 37.2091 304.656 37.6173 304.811 37.9976C304.967 38.378 305.198 38.7227 305.491 39.0108C306.126 39.626 306.904 40.0805 307.76 40.3405L310.782 41.2236L314.108 42.2555L317.132 43.732C318.099 44.361 318.881 45.2263 319.401 46.2404C320.016 47.4311 320.325 48.7448 320.308 50.0764C320.296 51.3582 319.99 52.6201 319.415 53.7656C318.835 54.9194 318.004 55.9279 316.982 56.7165C314.549 58.6746 311.483 59.6716 308.363 59.5186C305.291 59.6748 302.257 58.7919 299.746 57.0122C298.663 56.1785 297.794 55.0982 297.21 53.8608C296.633 52.6336 296.363 51.2846 296.42 49.9295H304.584C304.561 50.4316 304.648 50.9357 304.838 51.402C305.031 51.8704 305.323 52.2931 305.694 52.6423C306.071 52.9914 306.515 53.2583 307.002 53.4264C307.488 53.5945 308.002 53.66 308.514 53.6187C309.456 53.6584 310.379 53.3409 311.086 52.7317C311.395 52.4552 311.637 52.1125 311.794 51.7293C311.951 51.3461 312.018 50.9323 311.993 50.5189C312.008 50.1068 311.935 49.696 311.78 49.3142C311.623 48.9325 311.387 48.5888 311.086 48.3062C310.439 47.6994 309.665 47.2457 308.817 46.9786L305.793 46.0935L302.467 45.0616L299.445 43.5851C298.472 42.9735 297.688 42.1055 297.176 41.0767C296.684 39.9126 296.476 38.6479 296.571 37.3875C296.525 36.0551 296.801 34.7313 297.379 33.5297C297.962 32.3183 298.827 31.264 299.899 30.4537C302.284 28.6413 305.22 27.7038 308.214 27.7984C311.1 27.6675 313.953 28.441 316.376 30.0112C317.462 30.8448 318.331 31.9252 318.913 33.1625C319.492 34.3929 319.762 35.7404 319.702 37.0918H311.387C311.332 36.1599 310.959 35.2752 310.33 34.5854C309.998 34.304 309.611 34.0935 309.196 33.9665C308.78 33.8394 308.341 33.799 307.909 33.8472H307.91ZM333.913 47.1255V59.0761H326.204V28.3878H338.601C341.675 28.2289 344.695 29.2297 347.067 31.1919C348.031 32.0215 348.801 33.0435 349.323 34.1885C349.845 35.3356 350.107 36.5779 350.091 37.8321C350.055 39.679 349.476 41.4744 348.428 42.9957C347.112 44.8062 345.173 46.0667 342.984 46.5361L350.694 59.0781H341.929L334.824 47.1255H333.915H333.913ZM333.913 33.996V41.3724H338.601C339.103 41.3922 339.603 41.3129 340.073 41.1343C340.542 40.9557 340.966 40.6858 341.323 40.3405C341.671 39.9872 341.943 39.5705 342.125 39.116C342.306 38.6596 342.393 38.1734 342.379 37.6832C342.393 37.194 342.306 36.7072 342.125 36.2524C341.943 35.7946 341.669 35.378 341.321 35.028C340.964 34.6805 340.538 34.4102 340.071 34.2342C339.603 34.0562 339.103 33.9752 338.601 33.996H333.913ZM376.245 59.0761L374.431 53.9124H363.091L361.278 59.0761H353.113L363.998 28.241H373.371L384.256 59.0761H376.245ZM365.056 48.1594H372.464L368.836 37.3875L365.056 48.1594ZM408.751 28.241H416.46V59.0761H408.751L395.899 39.6022V59.0761H388.189V28.241H395.899L408.751 47.7168V28.241ZM430.82 59.0761H423.11V28.3878H430.82V41.8149L441.253 28.3878H451.382L438.379 43.732L451.382 59.0761H441.554L430.971 45.5021L430.82 59.0761ZM462.116 55.0932C462.086 56.0126 461.735 56.8925 461.124 57.5798C460.504 58.2757 459.667 58.7403 458.748 58.8975C457.825 59.0578 456.875 58.9026 456.051 58.4569C455.237 58.017 454.598 57.3089 454.245 56.4526C453.898 55.605 453.86 54.662 454.138 53.7894C454.418 52.9162 454.997 52.1621 455.779 51.6541C456.565 51.148 457.498 50.921 458.427 51.0097C459.357 51.0982 460.23 51.4971 460.905 52.1423C461.304 52.5273 461.618 52.9877 461.826 53.4957C462.034 54.0037 462.132 54.5475 462.116 55.0932Z" fill="#19223C"/>
<path d="M466.954 59.0764V28.3881H474.664V59.0764H466.954ZM484.34 54.9466C481.351 51.9496 479.669 47.8918 479.661 43.6588C479.661 39.4477 481.34 35.3994 484.34 32.373C487.482 29.5088 491.58 27.9243 495.83 27.9317C500.099 27.9317 504.209 29.5193 507.321 32.373C510.309 35.3696 511.992 39.4265 512 43.6588C511.992 47.8918 510.311 51.9496 507.321 54.9466C504.197 57.8444 500.091 59.4512 495.83 59.4435C491.57 59.4512 487.464 57.8444 484.34 54.9466ZM501.877 50.0767C503.332 48.2539 504.126 45.9924 504.128 43.6608C504.128 41.3389 503.336 39.0806 501.877 37.2429C500.25 35.6865 498.083 34.8199 495.83 34.8238C493.568 34.8238 491.395 35.6931 489.784 37.2449C488.331 39.0677 487.537 41.3292 487.533 43.6608C487.533 45.9847 488.325 48.243 489.784 50.0787C491.413 51.6351 493.578 52.5017 495.83 52.4978C498.093 52.4978 500.266 51.6286 501.877 50.0787V50.0767Z" fill="#67A4AC"/>
<path d="M65.9849 0.10872L4.26115 38.9651C1.35387 40.7234 -0.0670295 42.692 0.00242782 44.873V50.7868C0.0718852 52.9697 1.52652 54.9046 4.36831 56.5934L34.9156 74.2256C35.097 74.3318 35.2994 74.3971 35.5088 74.4167C35.718 74.4364 35.9289 74.41 36.127 74.3394C36.3248 74.2689 36.505 74.156 36.6548 74.0083C36.8045 73.8609 36.92 73.6825 36.9934 73.4854L43.8518 56.9109L29.3055 48.6753C28.8861 48.4577 28.5337 48.1307 28.2854 47.7286C28.0995 47.4266 27.9756 47.0904 27.9211 46.74C27.8663 46.3895 27.8822 46.0317 27.9673 45.6874C28.0524 45.3429 28.2052 45.019 28.417 44.7344C28.6287 44.4499 28.8951 44.2101 29.2003 44.0295L55.9056 27.6634L66.9176 0.848936C66.9617 0.723346 66.9656 0.587174 66.9291 0.459209C66.8926 0.331247 66.817 0.217799 66.7132 0.134519C66.61 0.0522635 66.4832 0.00535118 66.3514 0.000324291C66.2195 -0.0039394 66.0897 0.0339284 65.9809 0.10872H65.9849Z" fill="#19223C"/>
<path d="M116.689 21.7539L86.5601 3.48867C86.3855 3.37974 86.1894 3.30953 85.9854 3.28274C85.7812 3.25597 85.5736 3.27326 85.3768 3.33343C85.1799 3.3936 84.9983 3.49528 84.8439 3.6316C84.6897 3.76793 84.5665 3.93572 84.4824 4.12371L77.4176 20.6981L91.7555 29.2513C92.1683 29.4756 92.5116 29.8109 92.7518 30.2198C92.9925 30.6299 93.1193 31.0969 93.1193 31.5722C93.1193 32.0477 92.9925 32.5146 92.7518 32.9246C92.5138 33.3328 92.1695 33.669 91.7555 33.897L64.8438 49.7333L53.4131 76.3394C53.3026 76.4659 53.2458 76.6308 53.2555 76.7987C53.2653 76.9663 53.3403 77.1235 53.4647 77.2364C53.5258 77.292 53.5973 77.3345 53.6749 77.3621C53.7526 77.3894 53.835 77.4011 53.9172 77.3962C53.9995 77.3914 54.0799 77.3704 54.1539 77.3341C54.2277 77.2978 54.2938 77.247 54.3478 77.1848L74.0915 65.2541L81.8847 76.4466C82.0551 76.7046 82.2863 76.9163 82.558 77.0634C82.8299 77.2106 83.1335 77.2884 83.4425 77.29H102.146C102.487 77.2912 102.822 77.1979 103.114 77.0207C103.405 76.8435 103.642 76.5893 103.797 76.2859C103.958 75.9818 104.034 75.6403 104.017 75.2968C104.001 74.9535 103.893 74.6207 103.704 74.3331L91.0272 54.9049L116.693 39.3861C119.602 37.6259 121.057 35.6553 121.057 33.4723V27.6657C121.057 25.4828 119.602 23.5141 116.691 21.7539H116.689Z" fill="#67A4AC"/>
</g>
<defs>
<clipPath id="clip0_1_2068">
<rect width="512" height="78" fill="white"/>
</clipPath>
</defs>
</svg>
