<svg width="256" height="296" viewBox="0 0 256 296" fill="none" xmlns="http://www.w3.org/2000/svg">
<g clip-path="url(#clip0_1_2097)">
<path d="M125.306 214.372L126.24 292.104L127.92 295.563L255.599 221.813L183.293 180.002L127.92 211.942L125.306 214.372Z" fill="#A3BAF0"/>
<path d="M0.240723 221.812L127.92 295.563V212.022L72.6269 180.082V116.202L72.6269 113.082L4.95452 74.3916H0.240723V221.812Z" fill="#4474E1"/>
<path d="M2.96581 75.9661C13.2811 81.9243 50.359 103.341 70.3443 114.884C71.1052 115.324 72.6269 116.203 72.6269 116.203L127.92 84.2629L183.293 116.203L255.599 74.3921L127.92 0.641602L0.240723 74.3921C0.240723 74.3921 1.21996 74.9577 2.96581 75.9661Z" fill="#C7D6F7"/>
</g>
<defs>
<clipPath id="clip0_1_2097">
<rect width="256" height="296" fill="white"/>
</clipPath>
</defs>
</svg>
