<svg width="256" height="286" viewBox="0 0 256 286" fill="none" xmlns="http://www.w3.org/2000/svg">
<g clip-path="url(#clip0_1_2124)">
<path d="M126.936 0C132.249 0.0898889 137.462 1.50609 142.101 4.12642L238.728 58.6997C242.621 60.9007 246.094 63.8389 248.879 67.2811L248.974 67.2236L250.413 69.3359L250.583 69.5781L252.381 72.2284L252.253 72.3053C254.639 76.6516 255.952 81.3962 256 86.2218V197.163C256.051 202.765 254.628 208.283 251.872 213.166C249.116 218.046 245.125 222.115 240.298 224.964L144.719 281.357C140.736 283.711 136.313 285.148 131.751 285.613L131.75 285.755L125.637 285.804L125.64 285.653C121.136 285.248 116.755 283.89 112.794 281.655L11.2695 224.309C4.37244 220.426 0.0790251 213.148 0 205.196V87.7071C0.0569098 83.5627 0.778795 79.5635 2.14601 75.8856L2.03203 75.8205L4.6484 70.3545L4.7964 70.4361C7.231 66.4904 10.5322 63.2175 14.5963 60.8161L110.177 4.43346C115.001 1.58292 120.492 0.053976 126.098 0H126.936ZM7.49945 78.8821L7.28522 79.5617C6.43405 82.3768 6.01391 85.418 6.04598 88.5878L6.04583 205.166C6.1032 210.928 9.22442 216.219 14.2391 219.042L115.767 276.39C118.784 278.093 122.103 279.168 125.523 279.563L125.734 279.583L125.758 274.651L125.779 253.965L125.746 230.483L125.609 230.47C123.512 230.193 121.467 229.593 119.547 228.689L118.833 228.336L118.202 227.993L56.6951 193.252C54.459 191.991 52.5955 190.164 51.2918 187.955C49.9884 185.748 49.2895 183.234 49.2629 180.637L49.2631 110.022C49.241 107.775 49.5234 105.585 50.1039 103.52L50.3003 102.859L7.49945 78.8821ZM247.057 75.4091L204.857 100.612L204.95 100.805C205.992 103.053 206.601 105.446 206.717 107.89L206.736 108.558L206.734 175.758C206.769 179.363 205.853 182.913 204.08 186.05C202.308 189.189 199.741 191.806 196.636 193.638L138.735 227.801C136.732 228.985 134.554 229.807 132.293 230.251L131.796 230.34L131.805 235.118L131.827 262.796L131.786 279.052L131.78 279.522L132.684 279.394C135.571 278.923 138.364 277.968 140.946 276.549L141.645 276.151L237.225 219.757C241.138 217.447 244.373 214.149 246.607 210.194C248.841 206.235 249.995 201.762 249.951 197.192L249.953 86.2512C249.919 82.8237 249.055 79.3994 247.457 76.1798L247.057 75.4091ZM124 86.5847C123.086 86.8551 122.206 87.2373 121.385 87.7206L82.5716 110.617C81.4427 111.282 80.4516 112.156 79.6507 113.19C79.3366 113.595 79.0557 114.021 78.8044 114.464C78.6788 114.688 78.5602 114.913 78.4485 115.145L78.2391 115.665C77.7558 116.815 77.4347 118.045 77.3091 119.336C77.2637 119.83 77.241 120.33 77.2455 120.836V168.192C77.2602 169.555 77.6319 170.892 78.3246 172.068C79.0173 173.242 80.0084 174.214 81.1967 174.882L122.426 198.171C124.215 199.181 126.239 199.705 128.292 199.687L128.732 199.67L128.735 212.42L128.763 224.584L128.734 199.668C130.648 199.586 132.513 199.035 134.166 198.061L172.979 175.161C174.753 174.114 176.221 172.619 177.234 170.825C177.397 170.537 177.541 170.241 177.679 169.939C178.398 168.37 178.765 166.665 178.751 164.94L178.752 119.879C178.744 119.058 178.634 118.252 178.435 117.471C178.304 116.949 178.131 116.438 177.924 115.94C177.821 115.693 177.707 115.448 177.587 115.208C177.444 114.923 177.287 114.646 177.123 114.373L176.946 114.089L176.763 113.808C176.481 113.395 176.175 112.997 175.847 112.62C174.856 111.479 173.677 110.516 172.361 109.769L133.122 87.6089C131.552 86.7208 129.798 86.2078 127.996 86.1083C126.647 86.035 125.295 86.1956 124 86.5847ZM126.157 6.04568C121.612 6.08945 117.162 7.3286 113.25 9.63977L17.67 66.0224C14.7613 67.7411 12.3532 70.0188 10.492 72.7608L10.0758 73.3955L52.9751 97.4154L53.4215 96.809C54.7179 95.1166 56.296 93.6596 58.1292 92.488L58.6925 92.1418L116.596 57.9819C119.699 56.148 123.231 55.164 126.836 55.1292C130.441 55.0944 133.991 56.0096 137.129 57.783L195.668 90.8487C197.685 91.9885 199.525 93.4382 201.11 95.1361L201.504 95.5711L243.62 70.417L243.157 69.8903C241.219 67.7454 238.942 65.8694 236.441 64.3645L235.754 63.9634L139.128 9.39082C135.169 7.15454 130.695 6.00043 126.157 6.04568Z" fill="#4285F4"/>
</g>
<defs>
<clipPath id="clip0_1_2124">
<rect width="256" height="286" fill="white"/>
</clipPath>
</defs>
</svg>
