<svg width="256" height="148" viewBox="0 0 256 148" fill="none" xmlns="http://www.w3.org/2000/svg">
<g clip-path="url(#clip0_1_2127)">
<path d="M202.368 29.568H202.24L152.576 0.64L103.552 29.184L53.248 0L0 30.976V87.296L102.784 147.2L151.936 118.784L202.368 147.968L256 116.992V60.672L202.368 29.568ZM202.112 87.296L160 62.848L202.496 38.016L244.608 62.72L202.112 87.296ZM102.4 37.632L144.896 62.208L102.912 86.656L60.544 61.952L102.4 37.632ZM194.816 33.792L153.216 57.984L110.848 33.408L152.576 9.088L194.816 33.792ZM95.616 33.024L87.04 38.016L52.352 57.6L11.008 33.024L53.376 8.448L95.616 33.024ZM7.424 39.168L49.024 64.256V108.544L7.424 83.2V39.168ZM57.344 68.608L98.944 93.312V137.472L57.344 112.768V68.608ZM156.288 69.12L198.656 94.08V137.856L156.288 112.64V69.12Z" fill="#038DC8"/>
<g opacity="0.5">
<path d="M57.344 112.896L98.944 137.344V93.3124L57.344 68.6084V112.896Z" fill="#038DC8"/>
<path d="M7.42401 83.072L49.024 108.416V64.256L7.42401 39.168V83.072Z" fill="#038DC8"/>
<path d="M156.288 112.768L198.656 137.984V94.0801L156.288 69.1201V112.768Z" fill="#038DC8"/>
</g>
</g>
<defs>
<clipPath id="clip0_1_2127">
<rect width="256" height="148" fill="white"/>
</clipPath>
</defs>
</svg>
