<svg width="512" height="96" viewBox="0 0 512 96" fill="none" xmlns="http://www.w3.org/2000/svg">
<g clip-path="url(#clip0_1_2160)">
<path d="M7.83174 0H88.1071C92.4145 0 95.9388 3.52428 95.9388 7.83174V88.1071C95.9388 92.4145 92.4145 95.9388 88.1071 95.9388H7.83174C3.52428 95.9388 0 92.4145 0 88.1071V7.83174C0 3.52428 3.52428 0 7.83174 0Z" fill="#181819"/>
<path d="M57.759 79.9015C55.0179 81.3699 51.4937 82.251 49.4378 82.4468C41.2145 83.1321 32.9912 80.9783 27.3132 75.4961C21.733 69.6223 20.5583 61.7906 25.6489 55.3294C30.348 49.3577 37.9839 46.7145 45.9135 46.4208C50.3189 46.225 65.1992 47.9871 60.7938 55.1336C57.2696 61.0074 47.5778 55.1336 41.9977 56.9936C35.7323 59.0494 33.9701 67.3707 39.8439 70.895C44.1514 73.4403 50.3189 73.2445 54.4306 70.6013C60.3044 66.7833 71.2688 48.8682 78.3174 57.3852C79.6879 59.1473 63.1434 76.9646 57.759 79.9015ZM16.4466 33.4984C15.8592 30.5615 16.6424 27.233 19.5793 27.6246C22.1246 28.0162 23.0057 31.6384 23.4952 34.1837C23.8868 36.3374 29.1732 51.6093 26.4321 51.1198C23.7889 50.5324 17.034 36.5332 16.4466 33.4984ZM30.5438 16.3665C34.4596 13.038 36.3197 18.716 36.8091 21.555C37.2007 24.2961 42.1935 45.0502 36.907 44.6586C32.8933 44.3649 30.1522 26.7435 29.8585 24.0024C29.4669 21.8487 28.5858 18.0307 30.5438 16.3665ZM50.7105 10.4927C54.039 11.1779 53.1579 18.0307 53.06 20.576C53.06 23.3171 53.3537 43.7776 49.0462 43.1902C44.6409 42.5049 45.7177 22.2403 45.522 19.0097C45.6199 15.6812 46.1093 9.61159 50.7105 10.4927ZM60.8917 25.1772C61.2833 23.1213 61.6749 19.3034 64.0244 18.4223C68.6256 16.5623 68.5277 22.3382 68.0382 25.0793C67.4508 27.7225 63.9265 48.3787 59.2275 46.4208C55.7032 44.9523 60.3044 27.8204 60.8917 25.1772Z" fill="white"/>
<path d="M121.294 37.2184C123.154 33.8899 125.699 31.3446 129.028 29.4845C132.259 27.6245 135.979 26.7434 139.992 26.7434C144.691 26.7434 148.901 27.9182 152.425 30.3656C155.95 32.813 158.495 36.1415 159.865 40.4489H150.076C149.097 38.3931 147.726 36.9247 145.964 35.8478C144.202 34.8688 142.146 34.3794 139.894 34.3794C137.591 34.3794 135.461 34.8997 133.668 35.9403L133.335 36.1415C131.377 37.3163 129.909 38.8826 128.832 41.0363C127.755 43.1901 127.266 45.6375 127.266 48.4765C127.266 51.3155 127.755 53.7629 128.832 55.8187C129.909 57.9725 131.377 59.5388 133.335 60.7136C135.293 61.8883 137.447 62.4757 139.894 62.4757C142.244 62.4757 144.202 61.9862 145.964 60.9094C147.726 59.8325 149.097 58.3641 150.076 56.3082H159.865C158.495 60.6157 155.95 64.0421 152.425 66.3916C148.901 68.839 144.691 70.0138 139.992 70.0138C135.979 70.0138 132.259 69.1327 129.028 67.2727C125.797 65.4126 123.154 62.8673 121.294 59.6367C119.434 56.4061 118.455 52.5881 118.455 48.4765C118.455 44.2669 119.434 40.5468 121.294 37.2184ZM184.046 61.6925C185.416 60.9094 186.493 59.8325 187.276 58.3641C188.06 56.8956 188.451 55.0356 188.451 52.8818C188.451 49.7805 187.639 47.4009 186.102 45.743L185.906 45.5396C184.242 43.7774 182.186 42.9943 179.738 42.9943C177.291 42.9943 175.235 43.8753 173.669 45.5396C172.102 47.2038 171.221 49.7491 171.221 52.8818C171.221 56.1124 172.005 58.5598 173.571 60.2241C175.137 61.9862 177.193 62.7694 179.641 62.7694C181.207 62.8673 182.675 62.4757 184.046 61.6925ZM170.928 68.0558C168.382 66.5874 166.327 64.6294 164.858 61.9862C163.39 59.343 162.607 56.3082 162.607 52.8818C162.607 49.4555 163.39 46.4207 164.858 43.7774C166.35 41.2601 168.286 39.2755 170.75 37.9083L171.124 37.7078C173.767 36.2394 176.704 35.5541 179.934 35.5541C183.165 35.5541 186.102 36.2394 188.745 37.7078C191.388 39.1763 193.444 41.1342 195.01 43.7774C196.577 46.4207 197.262 49.4555 197.262 52.8818C197.262 56.3082 196.479 59.343 194.912 61.9862C193.421 64.5036 191.485 66.4881 189.021 67.8554L188.647 68.0558C186.004 69.5243 183.067 70.2096 179.738 70.2096C176.41 70.2096 173.473 69.5243 170.928 68.0558ZM229.372 39.3721C231.82 41.9174 233.092 45.4417 233.092 49.9449V69.6222H224.575V51.0218C224.575 48.3786 223.89 46.3228 222.617 44.8543C221.247 43.3859 219.485 42.7006 217.135 42.7006C214.785 42.7006 212.925 43.3859 211.555 44.8543C210.184 46.3228 209.499 48.3786 209.499 51.0218V69.6222H200.982V36.0436H209.499V40.2532C210.674 38.7847 212.044 37.6099 213.807 36.8268C215.569 36.0436 217.527 35.5541 219.582 35.5541C223.694 35.5541 226.925 36.8268 229.372 39.3721ZM238.672 43.7774C240.043 41.1342 242.099 39.1763 244.546 37.7078C247.091 36.2394 249.93 35.5541 253.161 35.5541C257.371 35.5541 260.797 36.631 263.538 38.6868C266.279 40.7426 268.139 43.6795 269.02 47.4975H259.818C259.328 46.0291 258.545 44.8543 257.371 44.0711C256.196 43.288 254.825 42.7985 253.063 42.7985C250.616 42.7985 248.756 43.6795 247.287 45.4417C245.917 47.2038 245.133 49.6512 245.133 52.9797C245.133 56.0757 245.763 58.4524 247.108 60.196L247.287 60.4199C248.658 62.182 250.616 63.0631 253.063 63.0631C256.49 63.0631 258.741 61.4967 259.818 58.462H269.02C268.041 62.0841 266.279 65.021 263.538 67.1748C260.797 69.3285 257.371 70.4053 253.259 70.4053C250.028 70.4053 247.189 69.7201 244.644 68.2516C242.099 66.7832 240.141 64.8252 238.77 62.182C237.468 59.671 236.696 56.8065 236.622 53.5887L236.616 53.0776C236.519 49.3576 237.204 46.3228 238.672 43.7774ZM285.663 37.1205C287.425 36.1415 289.481 35.652 291.732 35.652V44.4627H289.481C286.837 44.4627 284.782 45.0501 283.411 46.3228C282.041 47.5954 281.355 49.7491 281.355 52.8818V69.6222H272.838V36.0436H281.355V41.2321C282.432 39.47 283.901 38.0994 285.663 37.1205ZM317.381 49.7491C317.381 47.5954 316.598 45.8333 315.032 44.4627C313.465 43.1901 311.605 42.5048 309.354 42.5048C307.406 42.5048 305.634 43.1198 304.288 44.2667L304.067 44.4627C302.599 45.7354 301.718 47.4975 301.424 49.7491H317.381ZM325.996 55.4272H301.424C301.62 57.8746 302.501 59.7346 303.969 61.1052C305.438 62.4757 307.298 63.161 309.452 63.161C312.584 63.161 314.836 61.7904 316.207 59.0493H325.409C324.43 62.2799 322.57 64.9231 319.829 67.0769C317.088 69.1327 313.661 70.2096 309.647 70.2096C306.417 70.2096 303.48 69.5243 300.935 68.0558C298.51 66.6573 296.53 64.8148 295.163 62.3592L294.963 61.9862C293.494 59.343 292.809 56.3082 292.809 52.8818C292.809 49.5254 293.431 46.6129 294.758 44.0598L294.963 43.6795C296.333 41.0363 298.389 38.9805 300.935 37.6099C303.48 36.2394 306.417 35.4562 309.745 35.4562C312.976 35.4562 315.815 36.1415 318.36 37.512C320.906 38.8826 322.863 40.8405 324.234 43.3859C325.605 45.9312 326.29 48.7702 326.29 52.0987L326.216 53.018L326.143 53.873L325.996 55.4272ZM339.8 43.0922V59.343C339.8 60.5178 340.093 61.301 340.583 61.7904C341.17 62.2799 342.051 62.5736 343.324 62.5736H347.24V69.7201H341.855C334.709 69.7201 331.087 66.1958 331.087 59.2451V43.0922H327.073V36.1415H331.087V27.8203H339.604V36.1415H347.142V43.0922H339.8ZM373.574 49.7491C373.574 47.5954 372.791 45.8333 371.224 44.4627C369.658 43.1901 367.798 42.5048 365.546 42.5048C363.599 42.5048 361.827 43.1198 360.48 44.2667L360.26 44.4627C358.792 45.7354 357.911 47.4975 357.617 49.7491H373.574ZM382.091 55.4272H357.519C357.715 57.8746 358.596 59.7346 360.064 61.1052C361.533 62.4757 363.393 63.161 365.546 63.161C368.679 63.161 370.931 61.7904 372.301 59.0493H381.504C380.525 62.2799 378.665 64.9231 375.924 67.0769C373.182 69.1327 369.756 70.2096 365.742 70.2096C362.512 70.2096 359.575 69.5243 357.029 68.0558C354.605 66.6573 352.625 64.8148 351.258 62.3592L351.058 61.9862C349.589 59.343 348.904 56.3082 348.904 52.8818C348.904 49.5254 349.526 46.6129 350.853 44.0598L351.058 43.6795C352.428 41.0363 354.484 38.9805 357.029 37.6099C359.575 36.2394 362.512 35.4562 365.84 35.4562C369.071 35.4562 371.91 36.1415 374.455 37.512C377 38.8826 378.958 40.8405 380.329 43.3859C381.699 45.9312 382.385 48.7702 382.385 52.0987L382.352 52.5669L382.275 53.873C382.247 54.286 382.213 54.6784 382.156 55.0553L382.091 55.4272ZM386.649 37.6365L386.888 37.2184C388.748 33.8899 391.293 31.3446 394.622 29.4845C397.852 27.6245 401.572 26.7434 405.586 26.7434C410.285 26.7434 414.495 27.9182 418.019 30.3656C421.543 32.813 424.089 36.1415 425.459 40.4489H415.67C414.691 38.3931 413.32 36.9247 411.558 35.8478C409.796 34.8688 407.74 34.3794 405.488 34.3794C403.185 34.3794 401.055 34.8997 399.262 35.9403L398.929 36.1415C396.971 37.3163 395.503 38.8826 394.426 41.0363C393.349 43.1901 392.86 45.6375 392.86 48.4765C392.86 51.3155 393.349 53.7629 394.426 55.8187C395.503 57.8746 396.971 59.5388 398.929 60.7136C400.887 61.8883 403.041 62.4757 405.488 62.4757C407.838 62.4757 409.796 61.9862 411.558 60.9094C413.32 59.8325 414.691 58.3641 415.67 56.3082H425.459C424.089 60.6157 421.543 64.0421 418.019 66.3916C414.495 68.839 410.285 70.0138 405.586 70.0138C401.572 70.0138 397.852 69.1327 394.622 67.2727C391.391 65.4126 388.748 62.8673 386.888 59.6367C385.028 56.4061 384.049 52.5881 384.049 48.4765C384.049 44.4423 384.858 40.8577 386.649 37.6365ZM476.463 27.3308V69.7201H467.946V42.1132L456.59 69.7201H450.227L438.773 42.1132V69.7201H430.256V27.3308H439.948L453.36 58.8535L466.87 27.3308H476.463ZM489.092 68.6432C486.743 67.6642 484.883 66.1958 483.512 64.2379C482.142 62.3778 481.456 60.1262 481.358 57.483H490.463C490.561 59.2451 491.246 60.6157 492.323 61.5947C493.4 62.5736 494.966 63.161 496.924 63.161C498.882 63.161 500.448 62.6715 501.623 61.6925C502.798 60.7136 503.287 59.5388 503.287 57.9725C503.287 56.6998 502.896 55.7208 502.112 54.8398C501.329 54.0566 500.35 53.3713 499.273 52.8818C499.022 52.7769 498.752 52.6721 498.463 52.5662L497.86 52.3529L497.205 52.1354L496.496 51.9118L495.732 51.6806L494.91 51.4399L494.476 51.3155C491.735 50.5323 489.484 49.7491 487.722 48.966C485.959 48.1828 484.491 47.008 483.316 45.3438C482.044 43.7774 481.456 41.6237 481.456 38.9805C481.456 36.4352 482.044 34.2815 483.316 32.4214C484.589 30.5614 486.351 29.0929 488.603 28.114C490.854 27.135 493.497 26.6455 496.337 26.6455C500.742 26.6455 504.266 27.7224 507.007 29.8761C509.748 32.0298 511.217 34.9667 511.511 38.7847H502.21C502.112 37.3163 501.525 36.1415 500.35 35.1625C499.176 34.1836 497.707 33.6941 495.749 33.6941C494.085 33.6941 492.812 34.0857 491.735 34.9667C490.756 35.8478 490.267 37.0226 490.267 38.6868C490.267 39.8616 490.659 40.7426 491.344 41.5258C492.049 42.2307 492.833 42.7769 493.839 43.236L494.183 43.3859C494.757 43.6469 495.471 43.908 496.323 44.1839L496.989 44.3938L497.707 44.6107L498.882 44.9522C501.075 45.5787 502.954 46.2679 504.521 46.9195L505.278 47.2417C505.4 47.2948 505.519 47.3474 505.637 47.3996C507.399 48.1828 508.867 49.4555 510.14 51.0218C511.413 52.686 512 54.7419 512 57.3851C512 59.6367 511.413 61.7904 510.238 63.6505C509.063 65.6084 507.301 67.1748 505.049 68.2516C502.798 69.3285 500.057 70.0138 497.022 70.0138C494.085 70.1117 491.442 69.6222 489.092 68.6432Z" fill="#2A2A2A"/>
</g>
<defs>
<clipPath id="clip0_1_2160">
<rect width="512" height="96" fill="white"/>
</clipPath>
</defs>
</svg>
