<svg width="512" height="106" viewBox="0 0 512 106" fill="none" xmlns="http://www.w3.org/2000/svg">
<g clip-path="url(#clip0_1_2166)">
<path d="M14.6205 51.8999C19.3819 49.1621 23.6673 48.6859 25.2148 48.5669C25.4528 46.7813 25.8099 45.1148 26.2861 43.4483C24.7386 42.2579 21.7627 39.8772 19.0248 36.3061C23.4292 35.949 27.2384 36.5442 29.143 36.9013C30.0953 35.2348 31.2856 33.6873 32.7141 32.1398C31.8808 30.7114 30.3333 27.8545 29.3811 23.9263C32.9522 25.4737 35.571 27.3783 36.8804 28.4497C38.6659 27.1403 40.5705 26.0689 42.4751 25.1166C42.4751 23.4501 42.4751 20.4742 43.1893 16.9031C45.6891 19.5219 47.2366 22.0217 47.8318 23.3311C50.2125 22.8549 52.7123 22.6169 55.3311 22.7359C55.8073 21.4265 56.7595 19.1648 58.4261 16.4269C59.6164 19.5219 60.0926 22.0217 60.3307 23.3311C62.9495 23.9263 65.4492 24.7595 67.83 25.9499C71.6392 22.7359 75.2103 21.3074 79.3766 20.2361C79.3766 14.9985 78.6623 9.8799 75.9245 4.76131C73.1866 3.45191 70.2107 2.49961 67.2348 1.78539C64.1398 3.45191 61.6401 5.3565 59.4974 7.38012C57.9499 4.99939 55.9263 2.49961 53.4265 0.237909C52.2361 0.237909 49.9744 0.118872 45.5701 0.833093C43.4274 3.57094 41.8799 6.30879 40.6896 9.04664C38.0707 7.38012 34.8568 5.95168 31.1666 4.99939C29.0239 5.95168 27.0003 7.02301 24.9767 8.21338C24.2625 11.6655 24.0244 14.8795 24.1434 17.8554C21.0485 17.2602 17.4774 17.0221 13.6682 17.4983C12.3588 18.9267 11.0494 20.4742 9.859 22.1407C10.0971 26.426 11.1684 30.1162 12.7159 33.3302C9.14477 34.1634 5.45463 35.7109 2.00256 38.0917C1.52641 39.6391 1.1693 41.3056 0.812189 42.8531C2.95485 46.5433 5.6927 49.5192 8.43055 51.7809C5.6927 54.0426 2.95485 57.1376 0.455078 61.3039C0.693152 63.0894 1.05026 64.7559 1.52641 66.4224H1.64545C4.50233 60.4706 7.9544 56.5424 11.2874 53.9236C18.0725 58.566 24.7386 59.8754 25.6909 59.9944C25.5719 58.9231 25.3338 57.8518 25.2148 56.4233C23.1911 55.9472 19.0248 54.6378 14.6205 51.8999ZM73.9009 16.3079C71.7582 17.1412 68.4252 18.6886 65.2112 21.3074C64.735 19.0457 63.9018 15.7127 62.1162 11.9035C64.2589 9.76086 66.9967 7.6182 70.4488 5.83264C72.8295 9.40375 73.6628 13.8081 73.9009 16.3079ZM56.1644 11.3083C53.6646 14.5223 52.1171 17.6173 51.2838 19.76C50.0935 17.6173 47.9508 14.7604 44.7368 11.9035C45.8081 9.16568 47.3556 6.18975 49.6173 3.45191C52.4742 5.83264 54.6169 8.68953 56.1644 11.3083ZM39.3802 13.57C38.1898 17.7363 37.9517 21.4265 37.9517 23.8072C35.809 22.2597 32.7141 20.3552 28.6668 19.0457C28.3097 16.1889 28.4288 12.8558 29.262 9.28471C33.4283 10.118 36.6423 11.6655 39.3802 13.57ZM28.4288 32.854C25.6909 32.3779 21.5246 32.0208 16.8822 32.616C15.3347 29.64 14.1443 25.9499 13.9063 21.7836C17.9535 21.3074 21.6437 21.6646 24.8576 22.3788C25.6909 27.0212 27.2384 30.5923 28.4288 32.854ZM14.7395 36.9013C17.2393 40.8295 20.3342 43.6864 22.4769 45.4719C19.7391 45.9481 15.6918 47.0194 11.4065 49.7573C8.78766 47.7336 6.16885 44.9958 4.02619 41.4247C7.47826 38.9249 11.2874 37.6155 14.7395 36.9013Z" fill="white"/>
<path d="M52.144 0.106445L53.1497 0.112708L53.223 0.115445L53.5455 0.113507C58.5406 0.113507 63.0561 0.611973 67.3833 1.66453L67.6999 1.74153L67.661 1.76245L68.0059 1.84755C70.9501 2.59454 73.6099 3.51847 76.0346 4.70294L76.058 4.74845L76.5639 5.01931C76.8436 5.17187 77.18 5.35827 77.5654 5.57572L78.1461 5.90594C80.6678 7.35127 83.2196 8.95053 85.527 10.6047L86.0815 11.0069C87.4602 12.0192 88.676 13.0056 89.6896 13.9475C91.8402 15.5921 92.1988 19.0189 90.3075 21.0276L90.1372 21.2327C89.5573 21.9047 88.0039 23.5456 86.2463 25.3429L85.2683 26.3376L84.3758 27.2356L83.0376 28.5611C81.5455 30.022 80.4799 30.9992 80.0254 31.3009C77.758 32.3806 75.9904 32.0145 73.9226 30.2829L73.6999 30.0921C71.869 28.5053 69.9692 27.2193 67.8931 26.1813L67.877 26.0494L67.774 26.0622C65.5553 24.9528 63.1604 24.1175 60.5058 23.5002L60.4234 23.5729C58.7626 23.217 57.1018 22.9797 55.4412 22.8611L55.406 22.8064L55.3254 22.8613C52.8758 22.75 50.4408 22.9474 47.9863 23.4284L47.9743 23.4544C46.6928 23.7008 45.4363 24.0674 44.2912 24.4962L43.9602 24.6236C43.3124 24.8792 42.7696 25.1307 42.6762 25.2032L42.573 25.1594L42.5309 25.229C40.3616 26.3136 38.5717 27.3649 36.9542 28.551L36.806 28.5464L36.5892 28.7155C35.7667 29.3664 35.0343 30.0189 34.2422 30.7824L33.1206 31.8835L32.9447 32.0455C32.9091 32.0763 32.8794 32.0998 32.8542 32.1173C32.8401 32.127 32.8269 32.1353 32.8141 32.1421L32.8058 32.2251C31.357 33.7947 30.2187 35.2947 29.3166 36.8506L29.3701 36.9645L29.2242 37.2161C27.8691 39.5798 26.6761 42.5444 26.5319 43.3556L26.5194 43.4509L26.398 43.5104L26.2061 44.2106C25.8224 45.6614 25.5373 47.0935 25.3386 48.584L25.278 48.6394L25.3384 48.7042C24.989 51.1502 24.9831 53.8263 25.3208 56.3935L25.3392 56.4135C25.3757 56.8513 25.4218 57.254 25.4875 57.7231L25.7066 59.1674C25.7527 59.4759 25.7869 59.7291 25.8141 59.9723C25.8603 59.9791 25.9034 59.9849 25.9444 59.99L26.0502 60.0839C31.2574 81.0309 56.0109 89.1462 73.2291 75.609C75.9753 73.4847 77.9105 73.0769 79.8945 74.1165C80.8934 74.6399 81.873 75.4766 83.3918 77.036L85.9426 79.7131C86.7986 80.6058 87.5663 81.3823 88.356 82.146L88.7532 82.5273C88.7905 82.5676 89.6678 83.4726 89.9556 83.7971C92.1785 86.3037 92.501 88.6716 89.8232 91.507C77.9896 103.918 58.9234 108.529 40.6301 104.056C21.5869 99.3998 6.74273 85.8498 1.6436 66.574L1.68 66.5254L1.64538 66.548H1.52634L1.40618 66.4573C0.916485 64.7434 0.564615 63.072 0.347851 61.2401L0.595 60.8334L0.57122 60.6734C-0.277062 54.8353 -0.187427 48.7767 0.886185 43.1624L0.690353 42.8256L1.18945 40.6599L1.24117 40.4437C1.46196 39.5266 1.66533 38.7631 1.93154 37.9893L2.045 37.9114L2.22268 37.3354C3.81126 32.2894 6.28103 27.292 9.4226 22.7194L9.766 22.2274L9.75724 22.0686C10.8565 20.5297 12.1114 19.0121 13.6526 17.3748L13.981 17.3364L14.2519 17.047C14.847 16.4183 15.4487 15.8166 16.0583 15.2419L16.6775 14.6699C18.9691 12.5172 21.4795 10.571 24.1737 8.85238L24.8 8.45845L24.8542 8.18863L24.9133 8.10624C27.0575 6.8449 29.069 5.79544 31.1978 4.87895L31.474 4.95245L31.8386 4.79475C35.7673 3.09994 39.913 1.85163 44.1677 1.08079L45.0201 0.932994L45.426 0.867445L45.55 0.710303C48.2361 0.274727 50.2501 0.114886 52.144 0.106445ZM10.2062 54.983L10.1448 55.0367C7.16844 57.6535 4.5341 61.0478 2.32629 65.3343L2.03971 65.9006L1.787 66.4164L1.80576 66.4167L2.05907 65.9093C4.3641 61.3603 7.14815 57.6962 10.2062 54.983ZM52.581 0.356383H52.1446C50.3226 0.364504 48.3876 0.513819 45.9094 0.875134L45.7875 1.02972C43.7705 3.6069 42.1944 6.29215 40.9231 9.21607L40.7414 9.27168C38.0896 7.58412 35.186 6.29252 31.8822 5.40295L31.3805 5.26667L31.3429 5.28498C29.3599 6.16831 27.4401 7.16433 25.5968 8.26689L25.185 8.51487L25.0819 9.0436C24.5446 11.8652 24.3121 14.6003 24.3656 17.2496L24.3873 17.97L24.2388 18.0977C21.0704 17.4884 17.7597 17.3193 14.4338 17.6692L13.9648 17.7216L13.8546 17.8412C12.7803 19.0166 11.7309 20.2779 10.7192 21.5723L10.3677 22.0276L10.1197 22.3925L10.1644 23.0078C10.4539 26.4864 11.3098 29.7013 12.6838 32.714L12.9474 33.2765L12.8632 33.4524C9.23562 34.2989 5.6836 35.8677 2.19085 38.1962L2.079 38.2694L2.01192 38.4955C1.86644 38.9921 1.72496 39.5233 1.57733 40.1203L1.43259 40.7178L1.10398 42.1241C1.03921 42.3904 0.959709 42.7006 0.920194 42.7909L0.949 42.8384L0.991475 42.6227L1.15827 42.91C3.14392 46.3297 5.75685 49.3331 8.74815 51.8042L8.74856 51.9965C5.53659 54.6732 2.98391 57.6847 0.921952 61.4831L0.746743 61.8058L0.688722 61.4432L0.647703 61.1751C0.624731 61.2127 0.601792 61.2502 0.578884 61.2879C0.777612 62.7784 1.06268 64.2105 1.44638 65.6613L1.60181 66.2268L1.81617 65.7888C4.2944 60.8053 7.333 56.9804 10.8073 54.1483L11.2102 53.8259L11.3579 53.821L11.538 53.9414L11.596 53.94C13.0981 54.9677 14.6482 55.8709 16.2211 56.6564C17.7081 57.3856 19.2139 58.0112 20.7177 58.5379C22.5996 59.1971 24.368 59.6515 25.3811 59.8225L25.548 59.8483L25.4492 59.1372L25.3293 58.3624C25.2458 57.8202 25.1859 57.385 25.1397 56.9548L25.11 56.6464L24.9951 56.6187C21.9016 55.8608 18.1368 54.3525 14.5544 52.1257L14.555 52.0074L14.5581 51.7922C18.2061 49.6946 21.6113 48.7744 24.7916 48.478L25.1041 48.4511L25.1982 47.805C25.3512 46.816 25.5437 45.8473 25.7794 44.8761L25.9644 44.1468L26.1438 43.4953L25.6978 43.1497L25.3469 42.8708C23.9446 41.8424 22.4677 40.5055 21.0734 38.9339C20.4868 38.3005 19.9125 37.6329 19.3442 36.9187L18.9256 36.3827L19.0147 36.1821C19.9721 36.1045 20.9084 36.0674 21.8278 36.0661C24.3474 36.0544 26.7394 36.312 29.0911 36.7431L29.2921 36.4012C30.084 35.0893 31.0462 33.8123 32.2222 32.496L32.5592 32.1231L32.3417 31.7425C31.1237 29.5835 30.1311 27.2983 29.4099 24.5519L29.2595 23.9563L29.2004 23.7124L29.337 23.7704L29.4293 23.6925C32.4662 24.9661 34.7928 26.4617 36.9594 28.2345L36.959 28.2384L37.2554 28.0267C38.4649 27.1744 39.7751 26.3866 41.2659 25.598L41.8336 25.3021L42.3498 25.0398L42.3504 24.6922C42.3567 22.1316 42.4979 19.9774 42.9389 17.5488L43.0667 16.8791L43.2797 16.8174L43.303 16.8414L43.3967 16.8153C45.3807 18.7993 46.5948 20.596 48.0045 23.1695L48.4934 23.0791C50.3222 22.7521 52.1421 22.5826 53.9669 22.5811L54.6515 22.5884L55.2447 22.6084L55.3631 22.2927C55.9824 20.6697 56.8593 18.8266 58.0225 16.8574L58.4514 16.1454L58.537 16.3694L58.6617 16.3826C59.7193 19.1324 60.389 21.6363 60.557 23.2575L61.0412 23.3711C63.2987 23.925 65.3705 24.6422 67.3084 25.558L67.8116 25.8026L68.1213 25.5458C71.342 22.9109 74.4901 21.4153 78.8383 20.2488L79.2508 20.14L79.248 19.619C79.2435 19.2178 79.2344 18.822 79.2207 18.4314C78.871 15.5376 77.944 11.6827 76.727 7.54092L76.3454 6.26516L75.97 5.06745L75.8705 4.87462C73.3396 3.66417 70.4814 2.6986 67.3764 1.91668L67.413 1.89599C64.517 3.45541 62.0102 5.29177 59.7022 7.47155L59.5971 7.45839C59.5924 7.46278 59.5878 7.46716 59.5831 7.47155L59.3925 7.4488C57.7223 4.87912 55.6783 2.44437 53.4264 0.363446L52.581 0.356383ZM14.834 36.7793L14.9639 36.8348C16.9373 39.9358 19.3218 42.5113 22.142 44.9256L22.8954 45.5595L22.612 45.5964L22.1763 45.6584L22.4983 45.5956C20.9168 45.8707 19.3469 46.2627 17.7859 46.8001C15.7579 47.5262 13.6513 48.548 11.5927 49.8632L11.4797 49.8593L11.33 49.8567C8.45758 47.6371 5.92545 44.8337 3.91896 41.4896L3.95282 41.324C7.07864 39.0605 10.6797 37.6142 14.7141 36.7795L14.7527 36.7957C14.7798 36.7902 14.8069 36.7847 14.834 36.7793ZM24.8847 22.2574L24.9806 22.3573C25.6501 26.0876 26.8079 29.376 28.263 32.2603L28.6576 33.0213L28.526 32.9984L28.5386 33.0213L28.2882 32.9777C24.7485 32.3621 20.8822 32.2441 16.7816 32.8591L16.6513 32.7914C14.9098 29.3086 13.8821 25.7555 13.6624 21.9103L13.7695 21.7795L13.793 21.7764L13.8916 21.66C17.6329 21.2199 21.285 21.4574 24.8847 22.2574ZM29.2865 9.16274C33.1724 9.93993 36.4261 11.3634 39.4515 13.468L39.5002 13.6049C38.4884 17.1465 38.0766 20.5877 38.0766 23.8078L37.8785 23.9091L37.828 23.8734L37.7594 23.9091C34.9789 21.9009 31.9891 20.2911 28.5093 19.1652L28.4232 19.0567C28.2055 16.4438 28.3077 13.7519 28.7774 11.0423C28.7911 10.9673 28.8043 10.8924 28.8178 10.8175L28.7774 11.0423C28.8067 10.8737 28.8373 10.705 28.8694 10.5363C28.9042 10.3547 28.9404 10.1725 28.9784 9.9902C28.9857 9.95449 28.9932 9.91914 29.0006 9.88378C29.0449 9.67523 29.0914 9.46617 29.1402 9.25689L29.2865 9.16274ZM65.2883 21.4063L65.0891 21.3351L65.089 21.3334L65.075 21.2734L64.9339 20.651C64.2029 17.4974 63.3683 14.8697 62.003 11.9571L62.0254 11.8181C64.3517 9.36259 67.1334 7.29747 70.3773 5.72895C70.3819 5.72708 70.3866 5.72465 70.3913 5.72221L70.474 5.74345L70.5527 5.76389C72.5635 8.78014 73.6778 12.6492 74.0252 16.2966L74.001 16.3354L73.9484 16.424C70.9355 17.6646 68.0723 19.2227 65.3113 21.3883C65.304 21.3935 65.297 21.3992 65.29 21.4049L65.2883 21.4063ZM49.6973 3.35647C52.4033 5.61152 54.6042 8.29478 56.2731 11.2474L56.263 11.3754L56.2629 11.3856C54.0795 14.1929 52.4326 17.1513 51.4002 19.8058L51.352 19.9294L51.3088 20.0411L51.3038 20.0539L51.1745 19.8212L51.165 19.8054L50.8658 19.3248C49.1884 16.6718 47.2349 14.3154 44.6557 12.1183L44.6197 11.9793L44.637 11.9314L44.6204 11.8586C45.8408 8.73963 47.4484 5.88173 49.5209 3.37288L49.6973 3.35647Z" fill="#43B02A"/>
<path d="M54.4978 89.1584C63.5446 89.1584 71.7582 85.9444 78.1862 80.4687C78.6623 80.2306 83.0667 85.2302 84.8522 87.1347C85.2093 87.6109 85.2093 87.7299 85.2093 87.7299C63.5446 106.657 26.7622 103.919 9.38281 71.1838C10.8113 66.4223 12.8349 63.5654 12.8349 63.5654C17.4773 65.47 20.9294 65.5891 20.9294 65.5891C24.7386 75.7072 38.0707 89.1584 54.4978 89.1584Z" fill="white"/>
<path d="M150.56 0.119037C179.844 0.119037 203.175 23.6883 203.175 52.8524C203.175 82.0164 179.725 105.348 150.56 105.348C121.396 105.348 98.0652 82.1355 98.0652 52.8524C98.0652 23.8621 120.815 0.588626 149.684 0.126054L150.56 0.119037ZM150.56 86.4208C169.011 86.4208 184.248 71.3031 184.248 52.9714C184.248 34.6397 169.011 19.1649 150.56 19.1649C132.11 19.1649 117.111 34.5207 117.111 52.9714C117.111 71.2376 131.811 86.1205 150.008 86.4163L150.56 86.4208ZM219.007 2.73785C219.007 1.30941 220.316 0.119037 221.745 0.119037H225.435L286.263 64.7561H286.382V4.40437C286.382 2.97592 287.572 1.66652 289.119 1.66652H302.571C303.999 1.66652 305.308 2.97592 305.308 4.40437V102.848C305.308 104.276 303.999 105.467 302.571 105.467H299.119L237.934 38.3299H237.815V101.181C237.815 102.61 236.624 103.919 235.077 103.919H221.745C220.316 103.919 219.007 102.61 219.007 101.181V2.73785ZM365.303 1.66652C393.515 1.66652 416.608 24.6406 416.608 52.7334C416.608 81.0641 393.515 104.038 365.303 104.038H330.663C329.235 104.038 328.045 102.729 328.045 101.3V4.40437C328.045 2.97592 329.235 1.66652 330.663 1.66652H365.303ZM464.223 0C465.651 0 466.246 0.714222 466.723 1.66652L511.719 100.11C512.552 102.015 511.48 103.919 509.219 103.919H496.482C494.339 103.919 493.268 103.086 492.196 100.943L485.054 85.1114H441.368L434.225 100.943C433.63 102.372 432.321 103.919 429.94 103.919H417.203C415.18 103.919 413.989 102.015 414.822 100.11L460.295 1.66652C460.771 0.833259 461.485 0 462.794 0H464.223ZM363.637 19.284H346.971V86.0637H363.637C382.682 86.0637 396.491 71.7793 396.491 52.6143C396.491 33.5684 382.563 19.284 363.637 19.284ZM463.39 36.9014H462.913L448.629 69.0414H478.031L463.39 36.9014Z" fill="#43B02A"/>
</g>
<defs>
<clipPath id="clip0_1_2166">
<rect width="512" height="106" fill="white"/>
</clipPath>
</defs>
</svg>
