<svg width="256" height="246" viewBox="0 0 256 246" fill="none" xmlns="http://www.w3.org/2000/svg">
<g clip-path="url(#clip0_1_2172)">
<path d="M9.26054 187.33C6.6194 191.637 3.65319 196.635 1.13394 200.617C-1.12098 204.428 0.0895486 209.342 3.85635 211.669L56.6793 244.176C58.5335 245.321 60.7698 245.673 62.8861 245.153C65.0024 244.634 66.8214 243.286 67.9346 241.413C70.0476 237.878 72.77 233.286 75.7362 228.369C96.6622 193.831 117.71 198.057 155.661 216.18L208.037 241.088C210.021 242.032 212.302 242.133 214.362 241.367C216.421 240.602 218.082 239.035 218.968 237.024L244.119 180.138C245.896 176.075 244.088 171.338 240.056 169.492C229.004 164.291 207.021 153.93 187.233 144.381C116.044 109.802 55.5416 112.037 9.26054 187.33Z" fill="url(#paint0_linear_1_2172)"/>
<path d="M246.115 58.2319C248.756 53.9248 251.722 48.927 254.242 44.9449C256.497 41.1344 255.286 36.22 251.519 33.8928L198.696 1.38633C196.827 0.127284 194.519 -0.298916 192.323 0.209558C190.127 0.718032 188.241 2.11551 187.116 4.06811C185.003 7.60319 182.281 12.1947 179.314 17.1113C158.388 51.6494 137.34 47.4236 99.3892 29.3012L47.1757 4.51508C45.192 3.57091 42.9106 3.47009 40.8514 4.2356C38.7922 5.00111 37.1306 6.56771 36.2454 8.57838L11.0936 65.4646C9.31656 69.5275 11.1247 74.2648 15.1569 76.1105C26.2091 81.3115 48.1915 91.6729 67.9798 101.222C139.331 135.76 199.834 133.444 246.115 58.2319Z" fill="url(#paint1_linear_1_2172)"/>
</g>
<defs>
<linearGradient id="paint0_linear_1_2172" x1="24269.7" y1="13931.6" x2="18354.4" y2="360.969" gradientUnits="userSpaceOnUse">
<stop offset="0.18" stop-color="#0052CC"/>
<stop offset="1" stop-color="#2684FF"/>
</linearGradient>
<linearGradient id="paint1_linear_1_2172" x1="237.173" y1="-1543.57" x2="6161.93" y2="12033.6" gradientUnits="userSpaceOnUse">
<stop offset="0.18" stop-color="#0052CC"/>
<stop offset="1" stop-color="#2684FF"/>
</linearGradient>
<clipPath id="clip0_1_2172">
<rect width="256" height="246" fill="white"/>
</clipPath>
</defs>
</svg>
