<svg width="256" height="259" viewBox="0 0 256 259" fill="none" xmlns="http://www.w3.org/2000/svg">
<g clip-path="url(#clip0_1_2176)">
<path d="M216.745 34.1671L186.192 66.2252C152.212 35.5873 100.065 37.3848 68.2747 70.2898C36.4844 103.195 36.4844 155.372 68.2747 188.277C100.065 221.182 152.212 222.98 186.192 192.342L216.745 224.278C192.922 246.256 161.689 258.444 129.277 258.411C71.4481 258.438 20.6435 220.036 4.89468 164.393C-10.8542 108.75 12.2886 49.4187 61.5539 19.1349C110.819 -11.1489 174.208 -5.00896 216.745 34.1671ZM233.262 172.611C239.104 172.611 243.84 177.347 243.84 183.188C243.84 189.03 239.104 193.766 233.262 193.766C227.421 193.766 222.685 189.03 222.685 183.188C222.685 177.347 227.421 172.611 233.262 172.611ZM245.422 136.444C251.264 136.444 256 141.18 256 147.021C255.978 152.854 251.255 157.577 245.422 157.599C239.581 157.599 234.845 152.863 234.845 147.021C234.845 141.18 239.581 136.444 245.422 136.444ZM128.459 101.212C143.918 101.212 156.449 113.744 156.449 129.202C156.449 144.661 143.918 157.192 128.459 157.192C113.001 157.192 100.469 144.661 100.469 129.202C100.469 113.744 113.001 101.212 128.459 101.212ZM213.938 135.223C219.78 135.223 224.516 139.959 224.516 145.801C224.516 151.643 219.78 156.378 213.938 156.378C208.096 156.378 203.36 151.643 203.36 145.801C203.36 139.959 208.096 135.223 213.938 135.223ZM213.938 102.067C219.78 102.067 224.516 106.802 224.516 112.644C224.516 118.486 219.78 123.222 213.938 123.222C208.096 123.222 203.36 118.486 203.36 112.644C203.36 106.802 208.096 102.067 213.938 102.067ZM245.422 100.846C251.264 100.846 256 105.582 256 111.424C255.978 117.256 251.255 121.979 245.422 122.001C239.581 122.001 234.845 117.266 234.845 111.424C234.845 105.582 239.581 100.846 245.422 100.846ZM233.869 65.2488C239.71 65.2488 244.446 69.9845 244.446 75.8263C244.446 81.6681 239.71 86.4039 233.869 86.4039C228.027 86.4039 223.291 81.6681 223.291 75.8263C223.291 69.9845 228.027 65.2488 233.869 65.2488Z" fill="#E03875"/>
</g>
<defs>
<clipPath id="clip0_1_2176">
<rect width="256" height="259" fill="white"/>
</clipPath>
</defs>
</svg>
