<svg width="512" height="132" viewBox="0 0 512 132" fill="none" xmlns="http://www.w3.org/2000/svg">
<g clip-path="url(#clip0_1_2214)">
<path d="M229.182 41.0286C242.873 41.0286 249.319 50.3634 249.319 64.7215C249.319 78.5896 242.873 88.1926 229.182 88.1926C215.447 88.1926 209.001 78.5896 209.001 64.7215C209.001 50.3634 215.447 41.0286 229.182 41.0286ZM268.833 41.5626V67.611C268.833 77.9232 270.877 81.9678 277.456 81.9678C281.191 81.9678 284.345 80.9426 286.613 79.8794C287.78 79.3327 288.845 78.7214 289.778 78.0413L290.169 77.7456V41.5626H298.392V87.3915L292.435 87.8803L291.324 82.1466C290.169 83.2564 288.784 84.2656 287.19 85.1684C284.471 86.7105 280.569 88.1914 275.544 88.1914C265.342 88.1914 260.751 81.9714 260.654 68.3683L260.652 67.9221V41.5626H268.833ZM329.509 41.0261C333.42 41.0261 336.657 41.6276 338.976 42.2694C340.176 42.6027 341.251 42.9323 342.216 43.3369L342.622 43.5151L343.289 49.5158C342.132 49.1153 340.887 48.7208 339.51 48.4048C337.197 47.8757 334.087 47.2926 330.708 47.2926C322.752 47.2926 318.46 52.3612 318.485 64.7631C318.506 76.7204 322.751 82.0903 330.708 81.9653C334.086 81.9127 337.241 81.4288 339.555 80.8985C340.735 80.6286 341.819 80.3318 342.832 80.0003L343.333 79.8316L342.622 85.7441C341.555 86.234 340.349 86.6125 339.021 86.9886C336.748 87.6341 333.509 88.1387 329.73 88.1889C319.952 88.3175 310.083 82.3205 310.083 64.8966C310.083 46.5381 319.908 41.0274 329.509 41.0261ZM362.181 24.3139V47.0734C367.027 43.2959 371.517 41.8284 377.517 41.8284C387.769 41.8284 391.794 47.5345 391.875 62.1322L391.876 62.5865V88.1914H383.651V63.21C383.651 51.1192 380.761 48.0962 375.427 48.0962C370.04 48.0962 364.571 51.9601 362.333 52.7988L362.182 52.8524V88.1914H353.957V25.115L362.181 24.3139ZM425.079 24.3139C432.638 24.3139 439.809 25.2264 445.395 29.5159C450.923 33.7614 454.596 41.0286 454.596 54.942C454.596 74.8328 449.412 87.9276 427.742 88.1875L427.08 88.1914H406.767V24.3139H425.079ZM468.153 24.3139H485.712C502.247 24.3139 508.247 28.9819 508.247 41.0727C508.247 50.4528 500.247 53.5187 496.868 53.8751C499.581 54.0968 501.976 54.7705 504.07 55.9636C507.666 58.0152 511.271 61.7879 511.271 69.7422C511.271 82.3717 504.041 88.0757 489.536 88.1897L489.09 88.1914H468.153V24.3139ZM182.909 22.0479C187.709 22.0479 191.934 22.7093 194.954 23.383C196.734 23.7774 198.334 24.1828 199.756 24.6715L200.468 31.5615C199 31.0287 197.363 30.5081 195.578 30.0941C192.562 29.3971 188.421 28.6781 183.842 28.7161C172.373 28.8129 165.283 34.9838 165.35 54.7215C165.416 73.8787 171.173 81.5427 182.997 81.4803C187.932 81.4546 192.191 80.7882 195.399 79.8794C197.216 79.3661 198.911 78.8578 200.468 78.2784L199.712 85.2125C198.244 85.7906 196.601 86.2855 194.777 86.724C191.623 87.4846 187.22 88.1914 182.02 88.1914C174.863 88.1914 168.551 86.4129 163.972 81.2573C159.394 76.1006 156.564 67.5656 156.549 54.8085C156.52 30.1382 167.751 22.0479 182.909 22.0479ZM229.182 47.3404C220.292 47.3404 217.313 53.564 217.313 64.632C217.313 74.8537 220.292 81.9678 229.182 81.9678C238.073 81.9678 241.05 74.8549 241.05 64.632C241.05 53.564 237.939 47.3404 229.182 47.3404ZM427.391 30.7592H415.301V81.7902H424.28C441.617 81.7902 446.214 75.7895 446.239 55.2972C446.258 38.7613 442.105 30.7592 427.391 30.7592ZM486.824 57.1639H476.199V81.7902H486.956C497.802 81.7902 503.358 79.9235 503.36 69.6553C503.36 59.8317 498.204 57.1639 486.824 57.1639ZM484.599 30.7604H476.197V51.5197H486.554C496.734 51.5197 500.224 47.6956 500.246 40.7175C500.269 32.6271 495.758 30.7604 484.599 30.7604Z" fill="#444444"/>
<path d="M472.838 104.845C480.919 104.845 482.923 107.748 482.975 115.691L482.976 116.02V126.263C482.976 127.477 483.104 128.105 483.534 128.284C483.966 128.464 484.767 128.401 485.441 128.385L485.66 128.382L485.329 131.469L484.521 131.696C484.02 131.839 483.308 131.926 482.499 131.926C481.109 131.926 480.171 131.368 479.565 130.685C478.959 130.004 478.68 128.916 478.68 128.512C478.224 129.143 477.589 129.721 476.783 130.232C475.391 131.112 473.218 131.892 469.854 131.926C465.252 131.968 462.142 129.092 462.142 124.516C462.142 118.473 467.858 117.107 473.724 117.107C474.78 117.107 475.801 117.147 476.633 117.245L476.935 117.285L478.326 117.487V114.63C478.326 109.243 476.807 108.41 472.484 108.41C470.386 108.41 468.387 108.785 466.795 109.168C466.045 109.348 465.345 109.547 464.681 109.776L464.189 109.952L464.695 106.437C465.327 106.159 466.062 105.887 466.895 105.653C468.315 105.255 470.31 104.845 472.838 104.845ZM435.338 104.642C441.71 104.605 444.862 109.017 444.972 113.644C444.989 114.352 444.911 115.539 444.819 116.45C444.739 117.26 444.678 118.009 444.591 118.382L444.567 118.474H428.865V119.383C428.865 125.756 431.974 127.984 436.651 127.93C438.573 127.907 440.368 127.672 441.709 127.398C442.336 127.272 442.931 127.138 443.493 126.986L443.909 126.868L443.429 130.256C442.821 130.484 442.14 130.688 441.405 130.862C440.118 131.169 438.372 131.47 436.324 131.47C428.157 131.47 424.035 127.07 424.035 118.346C424.035 108.713 428.916 104.679 435.338 104.642ZM456.073 95.1338V131.47H451.42V95.5907L456.073 95.1338ZM493.622 105.401L499.994 115.869L506.315 105.401H511.271L502.575 118.5L511.271 131.47H506.039L499.994 121.306L493.901 131.47H488.716L497.365 118.5L488.716 105.401H493.622ZM417.891 104.643C418.575 104.643 419.232 104.794 419.737 104.921C419.939 104.972 420.13 105.034 420.31 105.099L420.571 105.199L420.015 108.814L419.661 108.638C419.384 108.561 418.903 108.459 418.093 108.459C416.173 108.459 414.531 109.069 413.34 109.649C412.795 109.913 412.281 110.223 411.799 110.557L411.443 110.811V131.014H406.766V104.896L410.027 104.643L410.913 107.828C412.861 105.804 415.337 104.643 417.891 104.643ZM466.416 124.695C466.416 127.299 468.16 128.513 471.22 128.513C473.343 128.513 475.109 127.999 476.352 127.425C476.96 127.145 477.52 126.858 478.027 126.521L478.324 126.313H478.326V120.169L477.086 120.094L474.482 120.017C471.498 119.93 466.416 120.27 466.416 124.695ZM435.439 108.105C433.848 108.105 432.356 108.561 431.168 109.7C430.026 110.792 429.211 112.466 428.969 115.284L428.942 115.642H440.902C440.902 115.364 440.909 115.163 440.928 115.01C440.959 114.731 440.958 114.454 440.952 114.225C440.832 109.925 438.55 108.105 435.439 108.105Z" fill="#777777"/>
<path d="M109.19 58.7943C109.19 64.3638 106.256 67.0928 100.791 67.1896V67.1933H33.5972V67.1896C28.1318 67.0928 25.1982 64.3638 25.1982 58.7943C25.1982 53.226 28.1318 50.4957 33.5972 50.4002V50.3953H100.791V50.4002C106.256 50.4957 109.19 53.226 109.19 58.7943ZM100.791 71.3983V71.3934H33.5972V71.3983C28.1318 71.4938 25.1982 74.2241 25.1982 79.7936C25.1982 85.3631 28.1318 88.091 33.5972 88.1877V88.1914H100.791V88.1865C106.256 88.0909 109.19 85.3619 109.19 79.7924C109.19 74.2228 106.256 71.4938 100.791 71.3983ZM121.789 25.2068V25.2019C116.323 25.2987 113.39 28.0277 113.39 33.5972V79.7924C113.39 85.3619 116.323 88.0897 121.789 88.1865V88.1779C129.987 87.8901 134.388 79.7017 134.388 62.9944V41.9963C134.388 30.8584 129.987 25.4003 121.789 25.2068ZM12.5991 25.2019V25.2068C4.401 25.4003 0 30.8584 0 41.9963V62.9944C0 79.7017 4.401 87.8888 12.5991 88.1779V88.1865C18.0645 88.0909 20.9981 85.3619 20.9981 79.7924V33.5972C20.9981 28.0277 18.0645 25.2987 12.5991 25.2019ZM121.789 20.9981C121.789 7.07491 114.454 0.252325 100.791 0.0110239V0H33.5972V0.0110239C19.9349 0.252325 12.5991 7.07491 12.5991 20.9981V21.0055C20.7972 21.15 25.1982 25.2436 25.1982 33.5972C25.1982 41.9509 29.5992 46.0445 37.7974 46.189V46.1951H96.5916V46.189C104.789 46.0445 109.19 41.9509 109.19 33.5972C109.19 25.2436 113.591 21.15 121.789 21.0055V20.9981Z" fill="#E42528"/>
</g>
<defs>
<clipPath id="clip0_1_2214">
<rect width="512" height="132" fill="white"/>
</clipPath>
</defs>
</svg>
