<svg width="512" height="89" viewBox="0 0 512 89" fill="none" xmlns="http://www.w3.org/2000/svg">
<g clip-path="url(#clip0_1_2222)">
<path d="M54.8572 29.2572C53.4506 27.7568 52.1378 26.5377 50.7312 25.6938C49.4184 24.8498 47.5429 24.4747 45.1986 24.4747C42.2916 24.4747 39.7598 25.2249 37.6968 26.6315C35.6338 28.0381 33.8521 29.8198 32.4455 32.0703C31.0389 34.2271 29.9136 36.5714 29.0697 39.1971C28.2257 41.729 27.6631 44.167 27.288 46.4176C27.1004 47.5429 27.0067 48.5744 26.9129 49.6996C26.8191 50.8249 26.7253 51.9502 26.7253 53.0755C26.7253 55.0447 26.9129 56.9202 27.288 58.7018C27.6631 60.4835 28.2257 62.1714 29.0697 63.578C29.9136 64.9846 31.0389 66.1099 32.4455 66.9539C33.8521 67.7978 35.6338 68.1729 37.8843 68.1729C40.4162 68.1729 42.6667 67.704 44.5422 66.7663C46.4176 65.8286 48.3869 64.6095 50.5437 62.9216L45.6675 85.896C43.2294 86.9275 40.9788 87.6777 38.7283 88.1465C36.4777 88.6154 34.1334 88.8967 31.6953 88.8967C27.7568 88.8967 24.0997 88.2403 20.7239 86.9275C17.348 85.6147 14.3473 83.6454 11.8154 81.0198C9.28358 78.3942 7.31435 75.1121 5.90775 71.1736C4.50116 67.2352 3.75098 62.5465 3.75098 57.2953C3.75098 55.6073 3.84475 53.9194 3.93852 52.3253C4.12607 50.6374 4.31361 48.8557 4.59493 46.9802C5.53266 40.885 7.03303 35.5399 9.00226 31.0388C10.9715 26.5377 13.222 22.5993 15.8477 19.411C18.3795 16.2227 21.099 13.5971 24.0997 11.6279C27.0067 9.65862 29.9136 8.06448 32.7268 6.93921C35.54 5.81393 38.2594 5.06375 40.7913 4.59489C43.3231 4.12602 45.4799 3.93848 47.3554 3.93848C49.3246 3.93848 51.2001 4.12602 53.1693 4.40734C55.0448 4.68866 56.8264 5.2513 58.5143 5.90771L54.8572 29.2572Z" fill="#DCE1E2"/>
<path d="M59.8272 46.2301C60.6711 41.2602 61.984 36.1964 63.9532 31.1327C65.9224 26.0689 68.4543 21.5679 71.5488 17.4418C74.7371 13.4096 78.488 10.0338 82.8015 7.50192C87.1151 4.97005 92.1788 3.65723 97.8052 3.65723C102.494 3.65723 106.432 4.50118 109.714 6.28287C112.996 8.06455 115.622 10.4089 117.685 13.4096C119.748 16.4103 121.155 19.7862 122.092 23.7246C123.03 27.5693 123.499 31.6016 123.499 35.7276C123.499 37.5092 123.405 39.1972 123.311 40.9788C123.124 42.7605 122.936 44.4484 122.655 46.1363C121.811 51.1063 120.498 56.17 118.529 61.2338C116.56 66.2975 114.028 70.7986 110.933 74.9246C107.745 78.9569 103.994 82.3327 99.6807 84.8646C95.3671 87.3964 90.3034 88.7092 84.677 88.7092C79.9884 88.7092 75.9561 87.7715 72.7678 86.0836C69.5796 84.3019 66.9539 81.9576 64.8909 78.9569C62.9217 75.9561 61.4213 72.5803 60.5774 68.6418C59.6396 64.7972 59.1708 60.6711 59.1708 56.4514C59.1708 54.7635 59.2645 53.0755 59.3583 51.2939C59.3583 49.6059 59.5459 47.918 59.8272 46.2301ZM82.5202 46.2301C82.3327 47.2616 82.2389 48.6682 81.9576 50.4499C81.77 52.2316 81.6763 54.2008 81.6763 56.2638C81.6763 57.7642 81.77 59.1708 81.9576 60.5774C82.1451 61.984 82.4265 63.203 82.8953 64.3283C83.3642 65.4536 84.0206 66.2975 84.7708 66.9539C85.6147 67.6103 86.5525 67.9854 87.8653 67.9854C89.2719 67.9854 90.4909 67.6103 91.6162 66.7664C92.7415 65.9224 93.6792 64.7972 94.5232 63.4843C95.3671 62.1715 96.1173 60.6711 96.6799 58.9832C97.3363 57.3891 97.8052 55.7012 98.2741 54.107C98.7429 52.5129 99.0243 51.0125 99.3056 49.6059C99.5869 48.1994 99.7744 47.0741 99.8682 46.1363C100.056 45.1048 100.243 43.6983 100.431 41.8228C100.712 39.9473 100.806 38.0719 100.806 36.0089C100.806 34.6023 100.712 33.1019 100.525 31.7891C100.337 30.3825 100.056 29.1635 99.5869 28.0382C99.118 26.9129 98.4616 26.0689 97.7114 25.4125C96.8675 24.7561 95.9298 24.381 94.6169 24.381C93.2103 24.381 91.9913 24.7561 90.866 25.6001C89.7407 26.444 88.803 27.5693 87.9591 28.8821C87.1151 30.195 86.3649 31.6953 85.8023 33.3832C85.1459 34.9774 84.677 36.6653 84.2081 38.2594C83.7393 39.8536 83.3642 41.3539 83.0829 42.7605C82.8015 44.2609 82.614 45.3862 82.5202 46.2301Z" fill="#DCE1E2"/>
<path d="M135.314 87.3023L129.219 5.15723H152.569V38.9155C152.475 42.2913 152.381 45.5733 152.287 48.8554C152.1 52.1374 152.006 55.4195 151.818 58.7953H152.006C153.037 55.4195 153.975 52.1374 154.725 48.8554C155.569 45.5733 156.507 42.2913 157.632 38.9155L168.979 5.15723H193.078L158.007 87.3023H135.314Z" fill="#DCE1E2"/>
<path d="M197.955 5.15723H239.215L236.308 24.5682H217.272L215.396 36.0085H232.557L229.462 55.4195H212.396L210.426 67.9851H229.462L226.555 87.3961H185.295L197.955 5.15723Z" fill="#DCE1E2"/>
<path d="M272.785 87.3023L265.846 53.0752L265.565 53.2627C265.377 55.3257 265.096 57.295 264.908 59.2642C264.721 61.2334 264.44 63.2964 264.064 65.2657L260.689 87.2085H238.464L251.218 5.06348H272.692C277.005 5.06348 280.944 5.3448 284.601 6.00121C288.258 6.65762 291.352 7.78289 293.978 9.28326C296.604 10.8774 298.667 12.9404 300.073 15.6598C301.48 18.3792 302.23 21.7551 302.23 25.8811C302.23 26.9126 302.136 27.9441 302.043 28.9756C301.949 30.0071 301.761 31.1323 301.667 32.2576C300.917 36.8525 299.323 40.9785 296.697 44.6356C294.072 48.3866 290.508 51.106 285.726 52.7939L296.979 87.021H272.785V87.3023ZM268.847 43.229C270.253 43.229 271.66 42.9477 272.879 42.3851C274.098 41.8225 275.223 40.9785 276.067 40.0408C277.005 39.103 277.755 37.9778 278.318 36.6649C278.881 35.3521 279.256 34.1331 279.537 32.8203C279.631 32.3514 279.631 31.9763 279.725 31.6012C279.725 31.2261 279.818 30.851 279.818 30.4759C279.818 27.8503 279.068 25.9748 277.568 24.662C276.067 23.443 274.098 22.7866 271.566 22.7866H270.722L267.44 43.1353L268.847 43.229Z" fill="#DCE1E2"/>
<path d="M340.677 87.3023V76.7997H325.767L322.297 87.396H299.417L331.862 5.25098H358.963L363.651 87.396H340.677V87.3023ZM340.771 59.3579L341.333 40.322C341.427 37.7902 341.521 35.1645 341.615 32.6327C341.802 30.007 341.896 27.4752 342.084 24.9433H341.896C341.146 27.4752 340.396 30.1008 339.739 32.6327C338.989 35.2583 338.239 37.7902 337.489 40.322L331.487 59.3579H340.771Z" fill="#DCE1E2"/>
<path d="M369.465 87.3023L382.218 5.15723H404.443L394.596 67.8913H411.288L408.381 87.3023H369.465Z" fill="#DCE1E2"/>
<path d="M414.476 87.3023L427.229 5.15723H449.453L439.607 67.8913H456.299L453.392 87.3023H414.476Z" fill="#DCE1E2"/>
<path d="M462.957 59.6396C463.519 60.7649 464.27 61.8902 465.114 63.0154C465.958 64.1407 466.989 65.0784 468.021 65.9224C469.146 66.7664 470.271 67.5165 471.49 67.9854C472.709 68.4543 474.022 68.7356 475.522 68.7356C477.023 68.7356 478.617 68.2667 480.117 67.329C481.711 66.3913 482.649 65.0784 482.93 63.203C483.024 62.9217 483.024 62.5466 483.024 61.9839C483.024 60.7649 482.649 59.6396 481.805 58.6081C481.43 58.0455 480.961 57.4828 480.399 57.014C479.836 56.5451 479.273 55.9825 478.617 55.5136C476.741 53.8257 474.96 52.1378 473.366 50.5437C471.771 48.8557 470.365 47.0741 469.24 45.1048C468.396 43.6982 467.833 42.1041 467.364 40.4162C466.895 38.7283 466.708 36.9466 466.708 34.9774C466.708 33.6645 466.801 32.2579 466.989 30.7576C467.364 28.3195 468.208 25.6001 469.521 22.5056C470.834 19.4111 472.615 16.4103 475.054 13.6909C477.398 10.9715 480.399 8.62717 483.868 6.65794C487.432 4.68871 491.558 3.75098 496.246 3.75098C498.966 3.75098 501.591 4.12607 504.217 4.87625C506.843 5.62643 509.281 6.65794 511.437 7.87698L507.686 32.8206C507.218 31.7891 506.561 30.7576 505.717 29.7261C504.873 28.6946 504.029 27.7568 502.998 26.9129C501.966 26.0689 500.841 25.4125 499.716 24.8499C498.497 24.2872 497.278 24.0059 495.965 24.0059C494.652 24.0059 493.339 24.4748 491.933 25.3187C490.526 26.1627 489.682 27.3817 489.401 29.0697V29.7261C489.401 31.1327 489.87 32.4455 490.901 33.6645C491.37 34.3209 491.933 34.8836 492.589 35.4462C493.245 36.0089 493.808 36.4777 494.371 37.0404C496.434 38.7283 498.309 40.3224 499.903 41.9165C501.497 43.5107 502.717 45.1986 503.654 47.0741C504.404 48.3869 504.967 49.7935 505.342 51.2938C505.717 52.7942 505.905 54.4821 505.905 56.3576C505.905 58.0455 505.717 59.7334 505.436 61.3275C504.873 65.1722 503.654 68.7356 501.873 72.0176C500.091 75.2997 497.84 78.2067 495.121 80.7385C492.401 83.2704 489.401 85.2396 485.931 86.6462C482.462 88.0528 478.804 88.803 474.96 88.803C469.333 88.803 463.895 87.6777 458.831 85.4272L462.957 59.6396Z" fill="#DCE1E2"/>
<path d="M51.2938 25.8812C49.8872 24.3808 48.5744 23.1618 47.1678 22.3178C45.855 21.4739 43.9795 21.0988 41.6352 21.0988C38.7283 21.0988 36.1964 21.849 34.1334 23.2556C32.0704 24.6622 30.2887 26.4438 28.8821 28.6944C27.4755 30.8512 26.3502 33.1955 25.5063 35.8211C24.6623 38.353 24.0997 40.7911 23.7246 43.0416C23.5371 44.1669 23.4433 45.1984 23.3495 46.3237C23.2557 47.449 23.162 48.5742 23.162 49.6995C23.162 51.6688 23.3495 53.5442 23.7246 55.3259C24.0997 57.1076 24.6623 58.7955 25.5063 60.2021C26.3502 61.6087 27.4755 62.734 28.8821 63.5779C30.2887 64.4219 32.0704 64.797 34.3209 64.797C36.8528 64.797 39.1034 64.3281 40.9788 63.3904C42.8543 62.4526 44.8235 61.2336 46.9803 59.5457L42.1041 82.52C39.666 83.5515 37.4154 84.3017 35.1649 84.7706C32.9143 85.2394 30.57 85.5208 28.1319 85.5208C24.1935 85.5208 20.5363 84.8644 17.1605 83.5515C13.7847 82.2387 10.7839 80.2695 8.25207 77.6438C5.7202 75.0182 3.75097 71.7362 2.34438 67.7977C1.03156 63.7655 0.281372 59.0768 0.281372 53.8255C0.281372 52.1376 0.375145 50.4497 0.468918 48.8556C0.656464 47.1677 0.84401 45.386 1.12533 43.5105C2.06306 37.4153 3.56342 32.0702 5.53265 27.5691C7.50188 23.068 9.75243 19.1296 12.3781 15.9413C14.9099 12.753 17.6294 10.1274 20.6301 8.15813C23.5371 6.1889 26.444 4.59476 29.2572 3.46948C32.0704 2.34421 34.7898 1.59402 37.3217 1.12516C39.8535 0.656296 42.0103 0.46875 43.8858 0.46875C45.855 0.46875 47.7305 0.656296 49.6997 0.937614C51.5751 1.21893 53.3568 1.78157 55.0447 2.43798L51.2938 25.8812Z" fill="#394A56"/>
<path d="M56.2638 42.8541C57.1078 37.8842 58.4206 32.8204 60.3898 27.7567C62.3591 22.693 64.8909 18.1919 67.9854 14.0659C71.1737 10.0336 74.9246 6.65781 79.2382 4.12594C83.5517 1.59407 88.6155 0.28125 94.2419 0.28125C98.9305 0.28125 102.869 1.12521 106.151 2.90689C109.433 4.68858 112.059 7.0329 114.122 10.0336C116.185 13.0344 117.591 16.4102 118.529 20.3486C119.467 24.1933 119.936 28.2256 119.936 32.3516C119.936 34.1333 119.842 35.8212 119.748 37.6029C119.561 39.3845 119.373 41.0725 119.092 42.7604C118.248 47.7303 116.935 52.7941 114.966 57.8578C112.996 62.9215 110.465 67.4226 107.37 71.5487C104.182 75.5809 100.431 78.9567 96.1173 81.4886C91.8038 84.0204 86.74 85.3333 81.1137 85.3333C76.425 85.3333 72.3928 84.3955 69.2045 82.7076C66.0162 80.9259 63.3906 78.5816 61.3276 75.5809C59.3583 72.5802 57.858 69.2043 57.014 65.2659C56.0763 61.4212 55.6074 57.2952 55.6074 53.0754C55.6074 51.3875 55.7012 49.6996 55.795 47.9179C55.795 46.23 55.9825 44.5421 56.2638 42.8541ZM78.9569 42.8541C78.7693 43.8856 78.6756 45.2922 78.3942 47.0739C78.2067 48.8556 78.1129 50.8248 78.1129 52.8878C78.1129 54.3882 78.2067 55.7948 78.3942 57.2014C78.5818 58.608 78.8631 59.827 79.332 60.9523C79.8008 62.0776 80.4572 62.9215 81.2074 63.578C82.0514 64.2344 82.9891 64.6095 84.3019 64.6095C85.7085 64.6095 86.9276 64.2344 88.0528 63.3904C89.1781 62.5465 90.1158 61.4212 90.9598 60.1084C91.8038 58.7955 92.5539 57.2952 93.1166 55.6073C93.773 54.0131 94.2419 52.3252 94.7107 50.7311C95.1796 49.1369 95.4609 47.6366 95.7422 46.23C96.0235 44.8234 96.2111 43.6981 96.3049 42.7604C96.4924 41.7289 96.68 40.3223 96.8675 38.4468C97.1488 36.5714 97.2426 34.6959 97.2426 32.6329C97.2426 31.2263 97.1488 29.7259 96.9613 28.4131C96.7737 27.0065 96.4924 25.7875 96.0235 24.6622C95.5547 23.5369 94.8983 22.693 94.1481 22.0366C93.3041 21.3802 92.3664 21.0051 91.0536 21.0051C89.647 21.0051 88.4279 21.3802 87.3027 22.2241C86.1774 23.0681 85.2397 24.1933 84.3957 25.5062C83.5517 26.819 82.8016 28.3193 82.2389 30.0073C81.5825 31.6014 81.1137 33.2893 80.6448 34.8834C80.1759 36.4776 79.8008 37.978 79.5195 39.3845C79.2382 40.8849 79.0506 42.0102 78.9569 42.8541Z" fill="#394A56"/>
<path d="M131.751 83.9263L125.656 1.78125H149.005V35.5395C148.911 38.9153 148.818 42.1974 148.724 45.4794C148.536 48.7615 148.443 52.0435 148.255 55.4193H148.443C149.474 52.0435 150.412 48.7615 151.162 45.4794C152.006 42.1974 152.944 38.9153 154.069 35.5395L165.415 1.78125H189.421L154.35 83.9263H131.751Z" fill="#394A56"/>
<path d="M194.391 1.78125H235.651L232.744 21.1922H213.709L211.833 32.6325H228.9L225.805 52.0435H208.739L206.769 64.6091H225.805L222.898 84.0201H181.638L194.391 1.78125Z" fill="#394A56"/>
<path d="M269.222 83.9263L262.283 49.6992L262.001 49.8867C261.814 51.9497 261.533 53.919 261.345 55.8882C261.158 57.8574 260.876 59.9204 260.501 61.8897L257.125 83.8325H234.901L247.56 1.78125H269.034C273.348 1.78125 277.286 2.06257 280.944 2.71898C284.601 3.37539 287.695 4.50066 290.321 6.00103C292.947 7.59517 295.01 9.65817 296.416 12.3776C297.823 15.097 298.573 18.4728 298.573 22.5988C298.573 23.6303 298.479 24.6618 298.385 25.6933C298.292 26.7248 298.104 27.8501 298.01 28.9754C297.26 33.5703 295.666 37.6963 293.04 41.3534C290.415 45.1043 286.851 47.8237 282.069 49.5117L293.322 83.7388H269.222V83.9263ZM265.284 39.853C266.69 39.853 268.097 39.5717 269.316 39.0091C270.535 38.4465 271.66 37.6025 272.504 36.6648C273.442 35.727 274.192 34.6018 274.755 33.2889C275.317 31.9761 275.692 30.7571 275.974 29.4443C276.067 28.9754 276.067 28.6003 276.161 28.2252C276.161 27.8501 276.255 27.475 276.255 27.0999C276.255 24.4743 275.505 22.5988 274.004 21.286C272.504 20.067 270.535 19.4106 268.003 19.4106H267.159L263.971 39.6655L265.284 39.853Z" fill="#394A56"/>
<path d="M337.114 83.9263V73.4237H322.204L318.734 84.0201H295.854L328.299 1.875H355.399L360.088 84.0201H337.114V83.9263ZM337.207 55.982L337.77 36.9461C337.864 34.4142 337.958 31.7886 338.051 29.2567C338.239 26.631 338.333 24.0992 338.52 21.5673H338.333C337.582 24.0992 336.832 26.7248 336.176 29.2567C335.426 31.8823 334.675 34.4142 333.925 36.9461L327.924 55.982H337.207Z" fill="#394A56"/>
<path d="M365.902 83.9263L378.655 1.78125H400.879L391.033 64.5153H407.725L404.818 83.9263H365.902Z" fill="#394A56"/>
<path d="M410.913 83.9263L423.666 1.78125H445.89L436.044 64.5153H452.736L449.829 83.9263H410.913Z" fill="#394A56"/>
<path d="M459.393 56.2636C459.956 57.3889 460.706 58.5142 461.55 59.6395C462.394 60.7647 463.426 61.7025 464.457 62.5464C465.583 63.3904 466.708 64.1406 467.927 64.6094C469.146 65.0783 470.459 65.3596 471.959 65.3596C473.459 65.3596 475.054 64.8907 476.554 63.953C478.148 63.0153 479.086 61.7025 479.367 59.827C479.461 59.5457 479.461 59.1706 479.461 58.608C479.461 57.3889 479.086 56.2636 478.242 55.2321C477.867 54.6695 477.398 54.1069 476.835 53.638C476.273 53.1691 475.71 52.6065 475.054 52.1376C473.178 50.4497 471.396 48.7618 469.802 47.1677C468.208 45.4798 466.802 43.6981 465.676 41.7288C464.832 40.3223 464.27 38.7281 463.801 37.0402C463.332 35.3523 463.144 33.5706 463.144 31.6014C463.144 30.2886 463.238 28.882 463.426 27.3816C463.801 24.9435 464.645 22.2241 465.958 19.1296C467.27 16.0351 469.052 13.0343 471.49 10.3149C473.835 7.59551 476.835 5.25119 480.305 3.28196C483.868 1.31273 487.994 0.375 492.683 0.375C495.402 0.375 498.028 0.750092 500.654 1.50027C503.279 2.25046 505.717 3.28196 507.874 4.50101L503.936 29.4446C503.467 28.4131 502.81 27.3816 501.966 26.3501C501.122 25.3186 500.278 24.3809 499.247 23.5369C498.215 22.6929 497.09 22.0365 495.965 21.4739C494.746 20.9113 493.527 20.6299 492.214 20.6299C490.901 20.6299 489.588 21.0988 488.182 21.9428C486.775 22.7867 485.931 24.0058 485.65 25.6937V26.3501C485.65 27.7567 486.119 29.0695 487.15 30.2886C487.619 30.945 488.182 31.5076 488.838 32.0702C489.495 32.6329 490.057 33.1017 490.62 33.6644C492.683 35.3523 494.558 36.9464 496.152 38.5406C497.747 40.1347 498.966 41.8226 499.903 43.6981C500.654 45.0109 501.216 46.4175 501.591 47.9179C501.966 49.4182 502.154 51.1061 502.154 52.9816C502.154 54.6695 501.966 56.3574 501.685 57.9516C501.122 61.7962 499.903 65.3596 498.122 68.6417C496.34 71.9237 494.089 74.8307 491.37 77.3625C488.651 79.8944 485.65 81.8636 482.18 83.2702C478.711 84.6768 475.054 85.427 471.209 85.427C465.583 85.427 460.144 84.3017 455.08 82.0512L459.393 56.2636Z" fill="#394A56"/>
</g>
<defs>
<clipPath id="clip0_1_2222">
<rect width="512" height="89" fill="white"/>
</clipPath>
</defs>
</svg>
