<svg width="256" height="276" viewBox="0 0 256 276" fill="none" xmlns="http://www.w3.org/2000/svg">
<g clip-path="url(#clip0_1_2250)">
<path d="M105.637 54.539C105.637 54.539 105.636 29.056 105.706 18.677C105.783 7.47099 112.854 0.406986 123.949 0.373986C134.848 0.340986 145.747 0.341986 156.646 0.373986C167.628 0.404986 174.719 7.38399 174.745 18.306C174.795 39.585 174.763 60.864 174.752 82.143C174.751 83.264 174.626 84.384 174.531 85.969C154.491 74.365 134.042 72.644 113.252 82.272C97.7099 89.469 86.9399 101.464 81.2139 117.64C69.7959 149.899 87.2609 185.336 119.91 196.39C153.792 207.86 192.118 189.008 201.618 150.299C202.59 151.109 234.73 182.672 249.843 197.651C258.055 205.79 258.042 215.538 249.865 223.673C242.415 231.086 234.941 238.476 227.449 245.846C219.122 254.036 209.251 254.069 200.983 245.944C193.487 238.578 174.663 220.176 174.663 220.176C174.663 220.176 174.815 246.647 174.743 257.416C174.673 267.888 167.571 274.994 157.134 275.051C145.976 275.113 134.817 275.104 123.659 275.054C113.009 275.008 105.847 267.956 105.719 257.243C105.596 246.865 105.69 220.393 105.69 220.393C105.69 220.393 87.5379 238.619 80.1299 245.89C71.8079 254.058 61.9799 254.059 53.6639 245.904C46.2529 238.636 38.8679 231.342 31.4979 224.032C22.9169 215.52 22.9479 205.998 31.3679 197.458C39.5509 189.158 56.5049 171.787 56.5049 171.787C56.5049 171.787 29.6619 171.832 18.3739 171.774C6.7549 171.715 0.0669038 164.983 0.0289038 153.365C-0.00609616 142.855 -0.0140962 132.345 0.0319038 121.835C0.0809038 110.499 6.8249 103.738 18.2219 103.662C29.2499 103.589 56.6439 103.644 56.6439 103.644C56.6439 103.644 38.1429 85.149 30.5159 77.547C22.6879 69.744 22.6219 59.87 30.3779 52.11C38.1749 44.31 46.0069 36.545 53.9099 28.852C61.3499 21.611 71.6199 21.541 78.9479 28.901C87.4469 37.436 105.637 54.539 105.637 54.539Z" fill="#9B1B1D"/>
<path d="M165.772 137.581C165.784 151.544 154.634 162.635 140.54 162.68C126.224 162.725 115.011 151.617 115.067 137.448C115.122 123.581 126.491 112.401 140.48 112.458C154.512 112.515 165.759 123.688 165.772 137.581Z" fill="#9B1B1D"/>
</g>
<defs>
<clipPath id="clip0_1_2250">
<rect width="256" height="276" fill="white"/>
</clipPath>
</defs>
</svg>
