<svg width="256" height="293" viewBox="0 0 256 293" fill="none" xmlns="http://www.w3.org/2000/svg">
<g clip-path="url(#clip0_1_2291)">
<path d="M190.207 22.9871C187.988 21.6544 185.717 20.4078 183.397 19.2475C181.025 18.0871 178.591 16.9583 176.119 15.9808C175.337 15.6529 174.562 15.3502 173.773 15.0412C171.61 14.2403 169.428 13.3511 167.202 12.7016C123.829 -1.78129 75.9992 9.09701 43.1562 40.9146C10.3131 72.7321 -2.07638 120.192 11.0238 164.003C24.1239 207.815 60.5331 240.683 105.451 249.249V284.312C179.083 273.257 244.29 215.076 249.152 138.682C252.046 92.7153 229.016 45.7905 190.207 22.9871Z" fill="#23D96C"/>
<path d="M98.792 292.024V254.597C52.7729 243.481 16.5295 208.068 4.34932 162.319C-7.83083 116.57 6.00636 67.8243 40.4061 35.2977C74.8057 2.77105 124.249 -8.31813 169.245 6.40166C170.973 6.90616 172.758 7.58093 174.492 8.23678L176.056 8.82326C177.097 9.22686 177.891 9.53587 178.686 9.87641C180.88 10.7404 183.346 11.8503 186.304 13.3007C188.78 14.5409 191.204 15.8716 193.575 17.2926C233.891 40.9788 258.87 89.928 255.736 139.104C250.924 214.779 188.12 278.611 106.41 290.877L98.792 292.024ZM129.062 13.1984H128.898C69.0358 12.9044 18.812 58.2762 13.0447 117.861C7.27743 177.445 47.8672 231.607 106.675 242.798L112.035 243.838V276.505C183.876 262.48 238.217 205.421 242.486 138.259C245.311 93.9072 222.937 49.858 186.802 28.6375L186.752 28.606C184.664 27.3447 182.52 26.1781 180.382 25.106C177.803 23.8448 175.64 22.8673 173.628 22.0727C172.815 21.7259 172.14 21.4421 171.459 21.2024L169.756 20.5718C168.199 19.979 166.723 19.4178 165.291 19.0016C153.602 15.1624 141.378 13.2041 129.075 13.1984H129.062Z" fill="#173647"/>
<path d="M104.335 66.7212C108.094 66.2536 111.839 67.6918 114.318 70.5554C116.209 72.6238 117.759 74.9804 118.909 77.5364C122.976 86.5039 125.385 99.3624 120.359 106.577C109.659 103.838 100.571 96.7903 95.2542 87.1093C93.9247 84.4852 93.1782 81.6048 93.0659 78.6652C93.2442 72.3998 98.0907 67.2631 104.335 66.7212ZM68.4968 117.329C70.9089 119.111 73.4802 120.667 76.1778 121.977C86.068 126.244 97.3378 125.925 106.971 121.106C103.203 111.28 95.5822 103.42 85.8768 99.3498C83.0145 98.0646 79.9204 97.3758 76.7832 97.3254C76.1138 97.2686 75.4409 97.2686 74.7715 97.3254C70.0751 97.5162 66.0041 100.635 64.5973 105.12C63.1905 109.605 64.7508 114.49 68.4968 117.329ZM106.965 138.978C102.065 135.712 91.9624 137.03 86.0786 137.137C82.4657 137.188 78.8973 137.942 75.5724 139.357C72.7202 140.365 70.1057 141.949 67.8914 144.011C64.1187 147.318 62.9363 152.695 64.9736 157.28C67.0108 161.865 71.7938 164.591 76.7769 164.008C79.9221 164.029 83.0312 163.337 85.8705 161.983C94.9263 158.074 105.678 147.353 106.971 138.978H106.965ZM123.424 151.591C112.926 155.477 104.452 163.455 99.9398 173.7C98.6615 176.279 97.9702 179.109 97.9155 181.987C97.7999 186.975 100.776 191.516 105.396 193.401C110.016 195.285 115.32 194.121 118.726 190.475C120.437 188.06 121.915 185.488 123.14 182.794C127.057 174.388 128.602 159.335 123.431 151.591H123.424ZM139.549 106.394C149.824 103.377 158.316 96.1078 162.882 86.4219C164.156 83.7701 164.842 80.8749 164.894 77.9337C165.039 71.4565 160.047 66.0191 153.581 65.6113C149.754 65.1936 145.971 66.7093 143.491 69.6536C141.768 72.0665 140.279 74.6385 139.045 77.3346C135.135 86.3778 133.735 99.2804 139.556 106.362L139.549 106.394ZM166.086 182.794C166.029 179.854 165.338 176.961 164.062 174.312C159.895 164.543 151.732 157.035 141.649 153.697C136.633 162.854 136.108 173.81 140.224 183.406C141.308 185.983 142.799 188.37 144.638 190.475C151.783 198.232 166.742 192.493 166.092 182.794H166.086ZM192.572 143.191C190.158 141.482 187.589 140.004 184.898 138.776C181.572 137.363 178.004 136.609 174.391 136.557C167.501 135.982 160.578 137.187 154.287 140.057C158.006 149.759 165.576 157.489 175.199 161.41C178.062 162.691 181.156 163.378 184.292 163.428C189.347 164.006 194.169 161.151 196.092 156.44C198.015 151.73 196.569 146.315 192.553 143.191H192.572Z" fill="#173647"/>
</g>
<defs>
<clipPath id="clip0_1_2291">
<rect width="256" height="293" fill="white"/>
</clipPath>
</defs>
</svg>
