<svg width="256" height="256" viewBox="0 0 256 256" fill="none" xmlns="http://www.w3.org/2000/svg">
<g clip-path="url(#clip0_1_2315)">
<path d="M255.96 198.32C255.84 200.92 255.12 203.48 253.8 205.8L229.56 247.8C226.64 252.88 221.24 256 215.4 256H80.88C75.04 256 69.64 252.88 66.72 247.84L2.2 136.2C0.72 133.64 0 130.84 0 128C0 125.16 0.56 122.2 2.28 119.32L66.76 8.16C69.68 3.12 75.08 0 80.88 0H215.4C221.24 0 226.64 3.12 229.56 8.16C229.56 8.16 252.88 46.36 254.56 49.08C256.24 51.8 255.96 55.24 255.96 58.04C255.96 60.44 255.28 63.72 254.64 66.32C254 68.92 234.48 148.04 234.48 148.04L191.88 57.44H104.56L63.68 128L104.56 198.56H191.84L255.96 198.32Z" fill="url(#paint0_linear_1_2315)"/>
<path d="M224.84 127.96L254.44 190.72C256.72 195.56 256.48 201.2 253.8 205.84L191.88 198.6L224.84 127.96Z" fill="url(#paint1_linear_1_2315)"/>
</g>
<defs>
<linearGradient id="paint0_linear_1_2315" x1="7470.51" y1="25495.3" x2="22139.8" y2="91.864" gradientUnits="userSpaceOnUse">
<stop offset="0.4147" stop-color="#51D3D9"/>
<stop offset="1" stop-color="#C8FF8C"/>
</linearGradient>
<linearGradient id="paint1_linear_1_2315" x1="2379.32" y1="8450.7" x2="7329.72" y2="2639.53" gradientUnits="userSpaceOnUse">
<stop offset="0.4147" stop-color="#51D3D9"/>
<stop offset="1" stop-color="#5A919B"/>
</linearGradient>
<clipPath id="clip0_1_2315">
<rect width="256" height="256" fill="white"/>
</clipPath>
</defs>
</svg>
