<svg width="512" height="207" viewBox="0 0 512 207" fill="none" xmlns="http://www.w3.org/2000/svg">
<g clip-path="url(#clip0_1_2327)">
<path d="M3.67445 130.62C1.23962 121.753 0 112.543 0 103.266C0 60.9206 26.595 22.2014 66.1831 6.93262L71.3737 20.366C37.2971 33.512 14.4098 66.8245 14.4098 103.266C14.4098 111.26 15.4722 119.176 17.564 126.805L3.67445 130.62Z" fill="#69D3A7"/>
<path d="M182.645 62.3577C167.24 32.782 136.915 14.4064 103.525 14.4064C91.6936 14.4064 80.1947 16.684 69.3708 21.1618L63.8481 7.86101C76.4317 2.6535 89.779 0 103.525 0C142.316 0 177.532 21.3387 195.428 55.7017L182.645 62.3577Z" fill="url(#paint0_linear_1_2327)"/>
<path d="M114.634 180.66L111.125 189.152C110.428 190.832 108.834 191.971 107.042 192.048C105.857 192.092 104.662 192.126 103.456 192.126C62.1632 192.104 25.6298 162.992 16.5767 122.88L2.521 126.053C7.60095 148.553 20.3507 168.974 38.4237 183.568C56.7072 198.328 79.7382 206.477 103.301 206.521C103.334 206.521 103.511 206.521 103.511 206.521C104.895 206.521 106.267 206.488 107.639 206.433C115.032 206.123 121.64 201.49 124.462 194.624L129.043 183.524L114.634 180.66Z" fill="url(#paint1_linear_1_2327)"/>
<path d="M120.38 69.1575L140.512 119.762L160.51 69.1575H176.071L126.456 189.804L112.057 186.94L132.145 138.226L103.912 69.1575H120.38ZM72.6136 67.8526C87.333 67.8526 99.8503 76.0785 105.284 89.3131L105.583 90.0316L91.5499 94.7971L91.2732 94.1887C87.7757 86.4162 80.9691 81.9605 72.6136 81.9605C66.7919 81.9605 61.8668 83.9952 57.9821 88.0193C53.9979 92.2651 52.0502 97.2624 52.0502 103.299C52.0502 109.292 54.0422 114.389 57.9821 118.446C61.878 122.449 66.7919 124.483 72.6136 124.483C81.1576 124.483 88.1298 119.917 91.2621 112.277L91.5275 111.647L105.583 116.423L105.284 117.142C99.8503 130.365 87.333 138.591 72.6136 138.591C62.2652 138.591 53.8542 135.274 46.9039 128.463C39.9977 121.697 36.5005 113.228 36.5005 103.288C36.5005 93.2602 39.9977 84.7468 46.9039 77.9803C53.8542 71.1698 62.2652 67.8526 72.6136 67.8526ZM245.541 77.9914C239.067 71.2692 230.988 67.8526 221.514 67.8526C212.107 67.8526 204.359 71.2029 198.472 77.8034V69.1575H183.309V163.368H198.472V128.64C204.359 135.241 212.096 138.591 221.514 138.591C230.988 138.591 239.078 135.175 245.552 128.442C251.927 121.675 255.148 113.217 255.148 103.288C255.137 93.2602 251.916 84.758 245.541 77.9914ZM233.655 118.424C229.77 122.438 224.845 124.461 219.035 124.461C213.136 124.461 208.355 122.482 204.404 118.424C200.464 114.367 198.472 109.27 198.472 103.277C198.472 97.108 200.408 92.1102 204.404 87.9974C208.344 83.9285 213.125 81.9605 219.035 81.9605C224.856 81.9605 229.77 83.9952 233.655 87.9974C237.562 92.022 239.454 97.0193 239.454 103.277C239.454 109.447 237.551 114.4 233.655 118.424ZM279.828 77.2729V69.1575H264.665V137.275H279.828V98.8436C279.828 92.6854 282.307 87.9754 287.198 84.8462C292.057 81.7394 297.89 81.1645 305.029 83.1106L305.947 83.3649V68.7927L305.383 68.6597C295.798 66.3712 286.18 69.6661 279.828 77.2729ZM345.28 67.8526C335.286 67.8526 326.809 71.258 320.08 77.9803C313.262 84.7911 309.809 93.3045 309.809 103.288C309.809 113.228 313.307 121.697 320.213 128.463C327.163 135.274 335.574 138.591 345.922 138.591C359.945 138.591 371.997 131.471 378.173 119.541L378.527 118.855L365.7 113.173L365.39 113.781C361.671 120.967 354.533 125.257 346.321 125.257C335.652 125.257 327.484 118.745 325.271 108.584H380.275L380.342 107.932C381.537 96.9419 378.704 87.4114 371.942 79.5946C365.213 71.7997 356.237 67.8526 345.28 67.8526ZM325.724 96.4222C328.414 87.124 336.006 81.1757 345.28 81.1757C354.81 81.1757 362.402 87.124 364.859 96.4222H325.724ZM420.849 96.787C412.582 95.2394 405.444 93.8905 405.444 88.1411C405.444 83.5748 410.302 80.3905 417.252 80.3905C424.922 80.3905 429.128 83.6854 430.113 90.4627L430.224 91.226L445.384 88.0525L445.276 87.3671C443.237 75.3269 432.502 67.8418 417.264 67.8418C409.616 67.8418 403.142 69.821 398.028 73.7238C392.805 77.6046 390.159 82.6683 390.159 88.7934C390.159 97.6604 395.782 104.316 405.222 106.594C407.668 107.169 410.258 107.633 412.759 108.098C422.155 109.812 431.031 111.437 431.031 117.761C431.031 122.637 425.365 126.031 417.264 126.031C409.018 126.031 404.47 122.736 403.352 115.948L403.23 115.196L388.079 118.369L388.201 119.065C390.403 131.283 401.26 138.58 417.252 138.58C425.376 138.58 432.339 136.557 437.915 132.577C443.495 128.64 446.313 123.565 446.313 117.495C446.313 101.574 432.205 98.9211 420.849 96.787ZM486.533 96.787C478.268 95.2394 471.13 93.8905 471.13 88.1411C471.13 83.5748 475.988 80.3905 482.936 80.3905C490.608 80.3905 494.811 83.6854 495.797 90.4627L495.909 91.226L511.071 88.0525L510.959 87.3671C508.924 75.3269 498.189 67.8418 482.949 67.8418C475.299 67.8418 468.824 69.821 463.713 73.7238C458.49 77.6046 455.844 82.6683 455.844 88.7934C455.844 97.6604 461.467 104.316 470.907 106.594C473.355 107.169 475.941 107.633 478.445 108.098C487.841 109.812 496.717 111.437 496.717 117.761C496.717 122.637 491.051 126.031 482.949 126.031C474.701 126.031 470.154 122.736 469.035 115.948L468.915 115.196L453.765 118.369L453.886 119.065C456.089 131.283 466.944 138.58 482.936 138.58C491.06 138.58 498.021 136.557 503.601 132.577C509.178 128.64 512 123.565 512 117.495C512 101.574 497.888 98.9211 486.533 96.787Z" fill="#1B1E2E"/>
</g>
<defs>
<linearGradient id="paint0_linear_1_2327" x1="2954.28" y1="2267.9" x2="7563.58" y2="7194.36" gradientUnits="userSpaceOnUse">
<stop offset="0.0939" stop-color="#58D09E"/>
<stop offset="0.9883" stop-color="#58D09E" stop-opacity="0"/>
</linearGradient>
<linearGradient id="paint1_linear_1_2327" x1="-359.904" y1="3673.43" x2="14094.3" y2="7520.65" gradientUnits="userSpaceOnUse">
<stop offset="0.0774" stop-color="#58D09E"/>
<stop offset="0.7617" stop-color="#1B1E2E"/>
</linearGradient>
<clipPath id="clip0_1_2327">
<rect width="512" height="207" fill="white"/>
</clipPath>
</defs>
</svg>
