<svg width="256" height="256" viewBox="0 0 256 256" fill="none" xmlns="http://www.w3.org/2000/svg">
<g clip-path="url(#clip0_1_2319)">
<path d="M141.651 223.944L137.316 234.47C136.455 236.553 134.485 237.964 132.269 238.06C130.806 238.115 129.329 238.156 127.839 238.156C76.8144 238.129 31.6702 202.043 20.4834 152.32L3.11499 156.254C9.3922 184.144 25.1468 209.457 47.4795 227.549C70.072 245.845 98.5316 255.945 127.647 256C127.688 256 127.907 256 127.907 256C129.616 256 131.312 255.959 133.008 255.891C142.143 255.507 150.308 249.765 153.796 241.254L159.457 227.494L141.651 223.944Z" fill="url(#paint0_linear_1_2319)"/>
<path d="M4.54047 161.913C1.53179 150.922 0 139.505 0 128.007C0 75.5154 32.8631 27.5197 81.7818 8.59277L88.1957 25.2446C46.0876 41.5401 17.806 82.8338 17.806 128.007C17.806 137.915 19.1188 147.728 21.7036 157.185L4.54047 161.913Z" fill="url(#paint1_linear_1_2319)"/>
<path d="M225.693 77.2976C206.656 40.636 169.184 17.8579 127.924 17.8579C113.305 17.8579 99.0957 20.6812 85.7203 26.2318L78.8965 9.74437C94.4459 3.28924 110.939 0 127.924 0C175.858 0 219.375 26.4511 241.488 69.0469L225.693 77.2976Z" fill="url(#paint2_linear_1_2319)"/>
<path d="M89.7274 101.596C100.053 101.596 108.464 107.12 112.785 116.754L113.127 117.508L130.468 111.601L130.098 110.711C123.383 94.3052 107.916 84.1084 89.7274 84.1084C76.9405 84.1084 66.5466 88.2204 57.9583 96.6625C49.4247 105.05 45.1033 115.603 45.1033 128.034C45.1033 140.355 49.4247 150.853 57.9583 159.241C66.5466 167.683 76.9405 171.795 89.7274 171.795C107.916 171.795 123.383 161.598 130.098 145.207L130.468 144.316L113.1 138.395L112.771 139.176C108.901 148.647 100.285 154.307 89.7274 154.307C82.5341 154.307 76.4621 151.785 71.6479 146.824C66.7795 141.794 64.3179 135.476 64.3179 128.048C64.3179 120.564 66.7248 114.37 71.6479 109.107C76.4482 104.119 82.5341 101.596 89.7274 101.596Z" fill="#09293F"/>
<path d="M198.341 85.7266L173.629 148.455L148.752 85.7266H128.402L163.29 171.343L138.468 231.728L156.26 235.278L217.569 85.7266H198.341Z" fill="#09293F"/>
<path d="M241.489 69.0469C250.492 86.5854 256 107.185 256 128.271C256 177.471 228.329 220.187 187.747 241.614L178.979 226.066C214.17 207.714 238.206 170.808 238.206 128.271C238.206 109.812 233.693 92.5795 225.693 77.2975L241.489 69.0469Z" fill="url(#paint3_linear_1_2319)"/>
</g>
<defs>
<linearGradient id="paint0_linear_1_2319" x1="991.184" y1="4717.19" x2="13212.9" y2="7980.46" gradientUnits="userSpaceOnUse">
<stop stop-color="#315C55"/>
<stop offset="1" stop-color="#09293F"/>
</linearGradient>
<linearGradient id="paint1_linear_1_2319" x1="4788.81" y1="4188.43" x2="3651.37" y2="15262.7" gradientUnits="userSpaceOnUse">
<stop stop-color="#4FB38D"/>
<stop offset="1" stop-color="#315C55"/>
</linearGradient>
<linearGradient id="paint2_linear_1_2319" x1="2340.38" y1="3864.88" x2="11360.7" y2="5518.37" gradientUnits="userSpaceOnUse">
<stop stop-color="#4FB38D"/>
<stop offset="1" stop-color="#97DEC0"/>
</linearGradient>
<linearGradient id="paint3_linear_1_2319" x1="4327.3" y1="5400.03" x2="-591.292" y2="14609.3" gradientUnits="userSpaceOnUse">
<stop stop-color="#97DEC0"/>
<stop offset="1" stop-color="#FFFFF0" stop-opacity="0"/>
</linearGradient>
<clipPath id="clip0_1_2319">
<rect width="256" height="256" fill="white"/>
</clipPath>
</defs>
</svg>
