<svg width="256" height="256" viewBox="0 0 256 256" fill="none" xmlns="http://www.w3.org/2000/svg">
<g clip-path="url(#clip0_1_2342)">
<path d="M52.2088 203.791L8.41288 159.995C3.21835 154.669 0 147.141 0 139.782C0 136.375 1.91972 131.049 3.36892 128L43.7959 43.7959L52.2088 203.791Z" fill="#01579B"/>
<path d="M202.116 52.2088L158.32 8.41288C154.5 4.57345 146.538 0 139.801 0C134.004 0 128.32 1.16689 124.65 3.36892L43.8147 43.7959L202.116 52.2088Z" fill="#40C4FF"/>
<path d="M104.418 256H210.529V210.529L131.369 185.253L58.9467 210.529L104.418 256Z" fill="#40C4FF"/>
<path d="M43.7959 180.209C43.7959 193.722 45.4898 197.035 52.2088 203.791L58.9466 210.529H210.529L136.432 126.325L43.7959 43.7959V180.209Z" fill="#29B6F6"/>
<path d="M178.534 43.7773H43.7959L210.529 210.51H256V106.093L202.097 52.1902C194.531 44.6055 187.812 43.7773 178.534 43.7773Z" fill="#01579B"/>
<path opacity="0.2" d="M53.9027 205.466C47.1649 198.71 45.4898 192.047 45.4898 180.209V45.4709L43.8148 43.7959V180.209C43.7959 192.047 43.7959 195.322 53.9027 205.466Z" fill="white"/>
<path opacity="0.2" d="M254.325 104.418V208.836H208.854L210.529 210.529H256V106.093L254.325 104.418Z" fill="#263238"/>
<path opacity="0.2" d="M202.116 52.2088C193.76 43.8524 186.928 43.7959 176.859 43.7959H43.8147L45.4897 45.4709H176.859C181.884 45.4709 194.569 44.624 202.116 52.2088Z" fill="white"/>
<path opacity="0.2" d="M254.325 104.418L202.116 52.2088L158.32 8.41288C154.5 4.57345 146.538 0 139.801 0C134.004 0 128.32 1.16689 124.65 3.36892L43.8147 43.7959L3.38772 128C1.93852 131.068 0.0187988 136.394 0.0187988 139.782C0.0187988 147.141 3.25597 154.65 8.43168 159.995L48.7834 200.065C49.7432 201.25 50.8725 202.455 52.2088 203.791L53.8838 205.466L58.9278 210.51L102.724 254.306L104.399 255.981H208.816H210.491V210.51H255.962V210.397V106.093L254.325 104.418Z" fill="url(#paint0_radial_1_2342)"/>
</g>
<defs>
<radialGradient id="paint0_radial_1_2342" cx="0" cy="0" r="1" gradientUnits="userSpaceOnUse" gradientTransform="translate(12797.2 12797.6) scale(12798.1 12798.1)">
<stop stop-color="white" stop-opacity="0.1"/>
<stop offset="1" stop-color="white" stop-opacity="0"/>
</radialGradient>
<clipPath id="clip0_1_2342">
<rect width="256" height="256" fill="white"/>
</clipPath>
</defs>
</svg>
