<svg width="256" height="256" viewBox="0 0 256 256" fill="none" xmlns="http://www.w3.org/2000/svg">
<g clip-path="url(#clip0_1_2359)">
<path d="M126.028 105.396H86.548C83.631 111.822 77.174 116.299 69.658 116.299C59.41 116.299 51.103 107.992 51.103 97.7449C51.103 87.4969 59.41 79.1899 69.658 79.1899C77.174 79.1899 83.631 83.6669 86.548 90.0929H117.193L104.199 67.5879H34.733L0 127.748L15.699 154.939H61.05C62.345 151.693 65.503 149.392 69.211 149.392C74.071 149.392 78.01 153.331 78.01 158.191C78.01 163.051 74.071 166.99 69.211 166.99C65.574 166.99 62.454 164.782 61.114 161.634H19.564L34.733 187.907H104.199L138.932 127.748L126.028 105.396Z" fill="#83292A"/>
<path d="M255.745 60.159L221.012 0H189.854L167.26 39.149C169.424 41.893 169.838 45.779 167.984 48.991C165.555 53.2 160.174 54.643 155.965 52.213C151.756 49.784 150.314 44.403 152.742 40.194C154.561 37.044 158.033 35.445 161.429 35.858L182.124 0H151.546L116.812 60.159L151.546 120.319H178.178L197.577 86.065C193.422 80.36 192.708 72.535 196.412 65.995C201.462 57.078 212.785 53.943 221.701 58.993C230.618 64.043 233.753 75.365 228.703 84.282C224.999 90.822 217.921 94.235 210.893 93.606L195.764 120.319H221.012L255.745 60.159Z" fill="#83292A"/>
<path d="M240.857 221.564L256 195.336L221.267 135.176H151.801L138.903 157.516L158.732 191.985C165.757 191.308 172.858 194.673 176.606 201.188C181.716 210.07 178.658 221.414 169.776 226.524C160.893 231.634 149.55 228.576 144.44 219.693C140.692 213.178 141.352 205.348 145.468 199.616L130.059 172.833L117.067 195.336L151.801 255.495H221.267L236.996 228.251L214.382 189.272C210.924 189.781 207.349 188.204 205.488 184.996C203.05 180.793 204.48 175.408 208.684 172.969C212.887 170.531 218.272 171.962 220.71 176.165C222.536 179.311 222.191 183.118 220.141 185.857L240.857 221.564Z" fill="#83292A"/>
<path d="M220.2 75.3639C220.2 79.5899 216.775 83.0149 212.549 83.0149C208.323 83.0149 204.897 79.5899 204.897 75.3639C204.897 71.1379 208.323 67.7129 212.549 67.7129C216.775 67.7129 220.2 71.1379 220.2 75.3639Z" fill="#B3B2B2"/>
<path d="M77.3091 97.7448C77.3091 101.97 73.8831 105.396 69.6581 105.396C65.4321 105.396 62.0061 101.97 62.0061 97.7448C62.0061 93.5188 65.4321 90.0928 69.6581 90.0928C73.8831 90.0928 77.3091 93.5188 77.3091 97.7448Z" fill="#B3B2B2"/>
<path d="M167.979 210.604C167.979 214.83 164.553 218.255 160.327 218.255C156.102 218.255 152.676 214.83 152.676 210.604C152.676 206.378 156.102 202.952 160.327 202.952C164.553 202.952 167.979 206.378 167.979 210.604Z" fill="#B3B2B2"/>
<path d="M212.549 62.0498C205.331 62.0498 199.458 67.9228 199.458 75.1408C199.458 78.5498 200.805 81.6168 202.956 83.9388L180.173 123.836H149.656L132.313 94.2708H82.007C80.495 88.7268 75.484 84.6218 69.466 84.6218C62.248 84.6218 56.375 90.4948 56.375 97.7128C56.375 104.931 62.248 110.803 69.466 110.803C75.376 110.803 80.318 106.847 81.929 101.455H128.019L143.34 127.593L126.384 157.294L151.301 201.253C148.924 203.619 147.428 206.864 147.428 210.475C147.428 217.693 153.301 223.566 160.519 223.566C167.737 223.566 173.61 217.693 173.61 210.475C173.61 203.257 167.737 197.387 160.519 197.387C159.53 197.387 158.579 197.526 157.654 197.738L134.783 157.244L150.038 131.142H184.285L209.246 87.7448C210.306 88.0318 211.399 88.2308 212.549 88.2308C219.767 88.2308 225.64 82.3588 225.64 75.1408C225.64 67.9228 219.767 62.0498 212.549 62.0498ZM212.549 86.0878C211.016 86.0878 209.559 85.7658 208.234 85.1958L183.044 129.002H148.81L132.311 157.226L156.667 200.262C157.87 199.807 159.159 199.527 160.519 199.527C166.556 199.527 171.467 204.438 171.467 210.475C171.467 216.513 166.556 221.426 160.519 221.426C154.481 221.426 149.571 216.513 149.571 210.475C149.571 206.863 151.35 203.679 154.057 201.684L128.85 157.3L145.815 127.578L129.248 99.3118L80.252 99.3158C79.469 104.589 74.955 108.66 69.466 108.66C63.429 108.66 58.518 103.749 58.518 97.7128C58.518 91.6758 63.429 86.7648 69.466 86.7648C75.06 86.7648 79.633 90.9948 80.283 96.4168L131.085 96.4138L148.427 125.979H181.417L205.647 83.5678C203.198 81.5588 201.601 78.5488 201.601 75.1408C201.601 69.1038 206.511 64.1928 212.549 64.1928C218.586 64.1928 223.497 69.1038 223.497 75.1408C223.497 81.1768 218.586 86.0878 212.549 86.0878Z" fill="#040707"/>
</g>
<defs>
<clipPath id="clip0_1_2359">
<rect width="256" height="256" fill="white"/>
</clipPath>
</defs>
</svg>
