<svg width="512" height="196" viewBox="0 0 512 196" fill="none" xmlns="http://www.w3.org/2000/svg">
<g clip-path="url(#clip0_1_2401)">
<path d="M334.734 30.2217V163.656H307.693V150.047C304.865 154.819 300.801 158.708 295.852 161.182C290.55 163.833 284.541 165.247 278.533 165.247C271.11 165.423 263.686 163.303 257.501 159.061C251.139 154.819 246.19 148.987 243.008 142.094C239.474 134.141 237.706 125.658 237.882 116.998C237.706 108.338 239.474 99.855 243.008 92.0788C246.19 85.3628 251.139 79.5306 257.325 75.4658C263.686 71.4009 271.11 69.4567 278.533 69.6334C284.365 69.6334 290.196 70.8705 295.322 73.5215C300.271 75.9959 304.335 79.7072 307.163 84.3024V39.2351L334.734 30.2217ZM302.215 137.323C305.749 132.727 307.693 126.012 307.693 117.352C307.693 108.692 305.927 102.153 302.215 97.5576C298.503 92.9623 292.67 90.3113 286.662 90.4881C280.653 90.1346 274.821 92.7855 270.932 97.3808C267.222 101.976 265.276 108.515 265.276 116.998C265.276 125.658 267.222 132.374 270.932 137.146C274.643 141.918 280.653 144.569 286.662 144.392C293.378 144.392 298.679 141.918 302.215 137.323ZM431.409 75.289C437.77 79.3539 442.72 85.1862 445.723 91.902C449.257 99.6784 451.025 108.161 450.849 116.822C451.025 125.481 449.257 134.142 445.723 141.918C442.542 148.81 437.594 154.643 431.23 158.884C425.045 162.949 417.622 165.07 410.2 164.893C404.191 165.07 398.181 163.656 392.88 160.828C387.932 158.354 383.866 154.466 381.215 149.694V163.479H353.999V39.2351L381.393 30.2217V84.6558C384.042 79.884 388.108 75.9959 393.056 73.5215C398.359 70.694 404.191 69.2801 410.2 69.4567C417.622 69.2801 425.045 71.4009 431.409 75.289ZM417.976 137.146C421.687 132.374 423.455 125.658 423.455 116.822C423.455 108.338 421.687 101.799 417.976 97.204C414.264 92.609 409.138 90.3113 402.423 90.3113C396.415 89.958 390.582 92.609 386.694 97.3808C382.983 102.153 381.215 108.692 381.215 117.175C381.215 125.835 382.983 132.551 386.694 137.146C390.406 141.918 396.237 144.569 402.423 144.215C408.432 144.569 414.264 141.918 417.976 137.146ZM488.67 92.2554V127.956C488.67 133.081 490.084 136.793 492.56 139.09C495.387 141.564 499.097 142.801 502.987 142.625C505.99 142.625 509.172 142.094 512 141.388V162.596C506.874 164.363 501.573 165.247 496.269 165.07C484.96 165.07 476.299 161.889 470.289 155.526C464.282 149.164 461.276 140.15 461.276 128.486V50.1926L488.67 41.356V71.7543H512V92.2554H488.67Z" fill="#262A38"/>
<path d="M187.161 8.12977C191.756 12.5481 194.761 18.3804 195.468 24.7428C195.468 27.3937 194.761 29.1612 193.17 32.5191C191.58 35.8771 171.962 69.8101 166.13 79.1769C162.772 84.6556 161.005 91.1949 161.005 97.5572C161.005 104.096 162.772 110.459 166.13 115.938C171.962 125.304 191.58 159.414 193.17 162.772C194.761 166.13 195.468 167.721 195.468 170.372C194.761 176.734 191.933 182.566 187.338 186.808C182.92 191.403 177.088 194.408 170.902 194.938C168.251 194.938 166.484 194.231 163.302 192.64C160.121 191.049 125.481 171.962 116.114 166.13C115.407 165.777 114.7 165.246 113.817 164.893L67.5125 137.499C68.5728 146.336 72.461 154.819 78.8233 161.005C80.0606 162.242 81.2977 163.302 82.7116 164.363C81.6511 164.893 80.414 165.423 79.3537 166.13C69.9866 171.962 35.8771 191.58 32.5191 193.17C29.1612 194.761 27.5705 195.468 24.7428 195.468C18.3804 194.761 12.5481 191.933 8.3065 187.338C3.71141 182.92 0.706936 177.088 0 170.725C0.176734 168.074 0.883671 165.423 2.29755 163.126C3.88816 159.768 23.5057 125.658 29.3378 116.291C32.6959 110.812 34.4632 104.45 34.4632 97.9108C34.4632 91.3715 32.6959 85.009 29.3378 79.5303C23.5057 69.8101 3.71141 35.7003 2.29755 32.3423C0.883671 30.0447 0.176734 27.3937 0 24.7428C0.706936 18.3804 3.53469 12.5481 8.12977 8.12977C12.5481 3.53469 18.3804 0.706936 24.7428 0C27.3937 0.176734 30.0447 0.883671 32.5191 2.29755C35.3469 3.53469 60.2662 18.0269 73.5214 25.8033L76.5259 27.5705C77.5862 28.2775 78.4699 28.8076 79.1769 29.1612L80.5908 30.0447L127.779 57.9688C126.718 47.3647 121.24 37.6443 112.756 31.1052C113.817 30.5751 115.054 30.0447 116.114 29.3378C125.481 23.5057 159.591 3.71141 162.949 2.29755C165.246 0.883671 167.897 0.176734 170.725 0C176.911 0.706936 182.743 3.53469 187.161 8.12977ZM100.208 110.282L110.282 100.208C111.696 98.7943 111.696 96.6737 110.282 95.2598L100.208 85.1858C98.7943 83.7719 96.6737 83.7719 95.2598 85.1858L85.1858 95.2598C83.7719 96.6737 83.7719 98.7943 85.1858 100.208L95.2598 110.282C96.4969 111.519 98.7943 111.519 100.208 110.282Z" fill="#FF694A"/>
</g>
<defs>
<clipPath id="clip0_1_2401">
<rect width="512" height="196" fill="white"/>
</clipPath>
</defs>
</svg>
