<svg width="256" height="317" viewBox="0 0 256 317" fill="none" xmlns="http://www.w3.org/2000/svg">
<g clip-path="url(#clip0_1_2413)">
<path d="M152.797 167.425C147.546 167.498 153.79 170.131 160.645 171.186C162.539 169.707 164.257 168.211 165.788 166.756C161.519 167.802 157.174 167.825 152.797 167.425Z" fill="#A80030"/>
<path d="M180.98 160.401C184.106 156.085 186.386 151.36 187.189 146.475C186.488 149.958 184.597 152.965 182.818 156.138C173.003 162.318 181.894 152.468 182.812 148.725C172.258 162.008 181.363 156.69 180.98 160.401Z" fill="#A80030"/>
<path d="M191.382 133.331C192.016 123.875 189.521 126.865 188.682 130.473C189.661 130.982 190.436 137.139 191.382 133.331Z" fill="#A80030"/>
<path d="M132.886 4.08789C135.688 4.59049 138.94 4.9762 138.484 5.64535C141.55 4.97328 142.245 4.3538 132.886 4.08789Z" fill="#A80030"/>
<path d="M138.484 5.64551L136.503 6.0546L138.347 5.89096L138.484 5.64551Z" fill="#A80030"/>
<path d="M225.866 136.916C226.178 145.408 223.382 149.528 220.86 156.821L216.322 159.089C212.608 166.3 216.682 163.668 214.023 169.404C208.225 174.558 196.429 185.533 192.654 186.536C189.898 186.474 194.521 183.283 195.126 182.033C187.365 187.363 188.899 190.033 177.029 193.271L176.682 192.5C147.408 206.271 106.745 178.979 107.28 141.74C106.967 144.104 106.391 143.514 105.743 144.47C104.232 125.31 114.591 106.065 132.062 98.2076C149.15 89.7482 169.184 93.2197 181.424 104.627C174.7 95.8203 161.317 86.4843 145.456 87.358C129.92 87.6034 115.385 97.4771 110.535 108.195C102.575 113.207 101.652 127.513 98.1833 130.131C93.5167 164.427 106.961 179.245 129.704 196.675C133.283 199.089 130.712 199.454 131.197 201.292C123.64 197.753 116.721 192.412 111.032 185.872C114.05 190.291 117.308 194.586 121.519 197.961C114.395 195.547 104.878 180.697 102.099 180.093C114.38 202.081 151.926 218.655 171.585 210.432C162.489 210.768 150.932 210.619 140.711 206.841C136.418 204.632 130.58 200.056 131.623 199.2C158.454 209.223 186.169 206.791 209.385 188.181C215.291 183.581 221.743 175.756 223.607 175.648C220.799 179.87 224.086 177.679 221.93 181.407C227.815 171.917 219.373 177.544 228.013 165.018L231.204 169.412C230.018 161.535 240.987 151.968 239.874 139.508C242.39 135.698 242.682 143.608 240.011 152.374C243.717 142.649 240.987 141.086 241.94 133.062C242.969 135.759 244.318 138.626 245.011 141.472C242.597 132.074 247.489 125.646 248.699 120.184C247.506 119.656 244.973 124.34 244.394 113.239C244.479 108.417 245.736 110.711 246.221 109.525C245.274 108.981 242.79 105.285 241.28 98.1959C242.375 96.5303 244.207 102.515 245.698 102.76C244.739 97.1235 243.088 92.8252 243.021 88.5005C238.667 79.4012 241.481 89.7132 237.948 84.5937C233.314 70.1383 241.794 81.2392 242.367 74.6704C249.391 84.8479 253.397 100.621 255.235 107.155C253.833 99.1894 251.565 91.4723 248.798 84.0064C250.931 84.9035 245.362 67.6165 251.571 79.0652C244.938 54.6601 223.183 31.8564 203.17 21.1558C205.619 23.397 208.71 26.2109 207.6 26.6522C197.647 20.7262 199.398 20.2645 197.972 17.7603C189.863 14.4613 189.331 18.0262 183.96 17.7662C168.678 9.66037 165.733 10.5224 151.669 5.44384L152.309 8.43311C142.184 5.06105 140.512 9.71297 129.569 8.44479C128.903 7.92467 133.076 6.56299 136.509 6.06331C126.72 7.35486 127.179 4.13475 117.6 6.41981C119.961 4.763 122.457 3.66722 124.976 2.25879C116.993 2.74385 105.918 6.90487 109.337 3.1208C96.3161 8.92986 73.1909 17.0853 60.214 29.2528L59.8049 26.5265C53.8585 33.6651 33.8745 47.8459 32.282 57.0913L30.6924 57.4624C27.598 62.7016 25.5963 68.6393 23.1418 74.0305C19.0948 80.9265 17.21 76.6837 17.7857 77.7649C9.82598 93.9034 5.87243 107.465 2.45654 118.586C4.89062 122.224 2.51498 140.487 3.43543 155.103C-0.561947 227.29 54.0981 297.378 113.846 313.561C122.603 316.693 135.627 316.573 146.704 316.895C133.634 313.157 131.945 314.914 119.213 310.475C110.029 306.15 108.016 301.212 101.512 295.567L104.086 300.116C91.3281 295.602 96.6667 294.529 86.2876 291.242L89.0372 287.651C84.9025 287.338 78.0853 280.682 76.2211 276.997L71.6977 277.175C66.2627 270.469 63.3669 265.636 63.5773 261.893L62.1163 264.496C60.4595 261.653 42.1206 239.346 51.6348 244.539C49.867 242.923 47.5177 241.909 44.9696 237.28L46.9069 235.065C42.3281 229.174 38.4797 221.624 38.7719 219.108C41.2148 222.407 42.9096 223.023 44.5868 223.587C33.0242 194.899 32.3755 222.007 23.6181 194.384L25.4707 194.235C24.0506 192.096 23.1886 189.773 22.046 187.494L22.8525 179.458C14.5276 169.833 20.5236 138.532 21.7246 121.365C22.5574 114.384 28.6733 106.953 33.3252 95.3002L30.4908 94.8122C35.9083 85.3622 61.4237 56.8604 73.2406 58.3273C78.9649 51.1361 72.1039 58.301 70.9847 56.4893C83.5584 43.4774 87.5119 47.2965 95.9976 44.956C105.149 39.5238 88.1431 47.0744 92.4823 42.8842C108.302 38.843 103.694 33.6972 124.333 31.646C126.51 32.8849 119.281 33.5599 117.466 35.167C130.647 28.7181 159.178 30.1849 177.71 38.7466C199.214 48.7955 223.373 78.5012 224.326 106.451L225.41 106.743C224.861 117.853 227.11 130.701 223.212 142.503L225.866 136.916Z" fill="#A80030"/>
<path d="M95.4832 174.634L94.7468 178.316C98.1978 183.003 100.936 188.081 105.342 191.745C102.172 185.556 99.8166 183 95.4832 174.634Z" fill="#A80030"/>
<path d="M103.642 174.313C101.815 172.294 100.734 169.863 99.5244 167.44C100.682 171.698 103.051 175.356 105.257 179.076L103.642 174.313Z" fill="#A80030"/>
<path d="M248.003 142.936L247.232 144.87C245.817 154.916 242.764 164.857 238.083 174.073C243.255 164.348 246.601 153.712 248.003 142.936Z" fill="#A80030"/>
<path d="M133.923 1.56915C137.473 0.26883 142.651 0.856164 146.418 0C141.509 0.412011 136.623 0.657464 131.799 1.27986L133.923 1.56915Z" fill="#A80030"/>
<path d="M9.28248 67.8477C10.1007 75.4216 3.58446 78.3612 10.726 73.3674C14.5539 64.7444 9.22988 70.986 9.28248 67.8477Z" fill="#A80030"/>
<path d="M0.890318 102.9C2.53544 97.8507 2.83349 94.8176 3.46173 91.8955C-1.085 97.7075 1.36954 98.9464 0.890318 102.9Z" fill="#A80030"/>
</g>
<defs>
<clipPath id="clip0_1_2413">
<rect width="256" height="317" fill="white"/>
</clipPath>
</defs>
</svg>
