<svg width="256" height="274" viewBox="0 0 256 274" fill="none" xmlns="http://www.w3.org/2000/svg">
<g clip-path="url(#clip0_1_2438)">
<path d="M118.84 2.17879C123.923 -0.72299 132.152 -0.729538 137.246 2.17879L246.797 73.6932C251.88 76.595 256 83.6791 256 89.5417V182.887C256 188.738 251.891 195.827 246.797 198.735L137.246 271.286C132.163 274.187 123.934 274.194 118.84 271.286L9.2029 198.735C4.12028 195.833 0 188.749 0 182.887V89.5417C0 83.6906 4.10881 76.6016 9.2029 73.6932L118.84 2.17879Z" fill="#2B64CF"/>
<path d="M143.107 59.9551C144.163 59.9551 145.02 60.8116 145.02 61.8682L145.019 94.2794L188.247 94.2795C193.002 94.2795 196.856 98.134 196.856 102.889L196.856 136.788L201.854 136.788C203.439 136.788 204.724 138.073 204.724 139.658V168.013C204.724 169.598 203.439 170.883 201.854 170.883L196.856 170.883L196.856 187.868C196.856 192.622 193.002 196.477 188.247 196.477H68.1989C63.4442 196.477 59.5898 192.622 59.5898 187.868L59.5889 170.883L54.1461 170.883C52.5612 170.883 51.2764 169.598 51.2764 168.013V139.658C51.2764 138.073 52.5612 136.788 54.1461 136.788L59.5889 136.788L59.5898 102.889C59.5898 98.134 63.4442 94.2795 68.1989 94.2795L137.12 94.2794V85.1672L121.72 85.1681C120.663 85.1681 119.807 84.3116 119.807 83.255V61.8682C119.807 60.8116 120.663 59.9551 121.72 59.9551H143.107ZM166.767 134.727L166.731 134.763L156.046 145.691C154.888 146.876 152.989 146.898 151.804 145.739L151.768 145.703L148.111 142.004C146.946 140.826 145.046 140.815 143.868 141.98C143.86 141.988 143.852 141.996 143.844 142.004L140.127 145.764C138.971 146.933 138.971 148.814 140.127 149.983L151.772 161.762C152.937 162.941 154.836 162.952 156.014 161.787C156.025 161.776 156.036 161.765 156.046 161.755L174.73 142.717C175.878 141.547 175.875 139.672 174.722 138.507L171.009 134.751C169.845 133.573 167.945 133.562 166.767 134.727ZM110.11 134.727L110.074 134.763L99.3891 145.691C98.2308 146.876 96.3315 146.898 95.1467 145.739L95.1105 145.703L91.4535 142.004C90.2887 140.826 88.3893 140.815 87.211 141.98C87.2028 141.988 87.1947 141.996 87.1866 142.004L83.4693 145.764C82.314 146.933 82.314 148.814 83.4693 149.983L95.1146 161.762C96.2794 162.941 98.1789 162.952 99.3572 161.787L99.3892 161.755L118.073 142.717C119.221 141.547 119.218 139.672 118.065 138.507L114.352 134.751C113.187 133.573 111.288 133.562 110.11 134.727Z" fill="white"/>
</g>
<defs>
<clipPath id="clip0_1_2438">
<rect width="256" height="274" fill="white"/>
</clipPath>
</defs>
</svg>
