<svg width="256" height="320" viewBox="0 0 256 320" fill="none" xmlns="http://www.w3.org/2000/svg">
<g clip-path="url(#clip0_1_2442)">
<path d="M63.9996 255.642V191.737L-3.8147e-06 255.642H63.9996Z" fill="#4B25BB"/>
<path d="M191.999 255.641H127.999V63.9238H191.999V255.641Z" fill="#4B25BB"/>
<path d="M192 319.53H128H64.0004L128 255.622L192 319.53Z" fill="black"/>
<path d="M63.9996 95.8587C63.9996 113.506 78.3256 127.811 95.9994 127.811C113.673 127.811 127.999 113.506 127.999 95.8587C127.999 78.2111 113.673 63.9062 95.9994 63.9062C78.3256 63.9062 63.9996 78.2111 63.9996 95.8587Z" fill="black"/>
<path d="M192 255.642H256L192 191.737V255.642Z" fill="#40CF9F"/>
<path d="M128 0L192 63.9048H128H64.0004L128 0Z" fill="#40CF9F"/>
<path d="M127.999 255.644H63.9999V127.832H127.999V255.644Z" fill="#40CF9F"/>
</g>
<defs>
<clipPath id="clip0_1_2442">
<rect width="256" height="320" fill="white"/>
</clipPath>
</defs>
</svg>
