<svg width="512" height="123" viewBox="0 0 512 123" fill="none" xmlns="http://www.w3.org/2000/svg">
<g clip-path="url(#clip0_1_2451)">
<path d="M492.052 73.2514L484.659 64.4842L490.82 59.2559L498.523 68.4065C501.68 64.639 503.221 60.1785 503.221 55.1809C503.221 49.566 501.372 44.8748 497.676 41.0294C493.977 37.262 489.357 35.3387 483.889 35.3387C478.421 35.3387 473.8 37.262 470.103 41.0294C466.329 44.8748 464.481 49.566 464.481 55.1809C464.481 60.7936 466.329 65.4848 470.103 69.2533C473.8 73.0977 478.421 75.0209 483.889 75.0209C486.815 75.0209 489.511 74.4047 492.052 73.2514ZM503.991 74.7903L510.613 82.7107L504.453 87.9401L497.445 79.6352C493.286 81.788 488.74 82.8644 483.889 82.8644C475.956 82.8644 469.256 80.1734 463.865 74.8661C458.397 69.5609 455.701 62.9465 455.701 55.1809C455.701 47.4132 458.397 40.7988 463.865 35.4936C469.256 30.1862 475.956 27.4952 483.889 27.4952C491.821 27.4952 498.446 30.1862 503.914 35.4936C509.304 40.7988 512 47.4132 512 55.1809C512 63.0244 509.304 69.5609 503.991 74.7903ZM410.729 82.0956H402.18V28.2641H410.729V51.4113H439.686V28.2641H448.158V82.0956H439.686V58.9483H410.729V82.0956ZM376.46 69.0996L385.932 42.1058H398.41L377.076 97.4762H364.599L369.837 83.8651L353.741 42.1058H366.987L376.46 69.0996ZM324.169 62.1007C324.169 64.7917 325.016 67.0994 326.711 68.8678C328.328 70.7142 330.407 71.6368 332.949 71.6368C335.491 71.6368 337.571 70.7142 339.265 68.8678C340.882 67.0994 341.73 64.7917 341.73 62.1007C341.73 59.4097 340.882 57.1031 339.265 55.2567C337.571 53.4883 335.491 52.5646 332.949 52.5646C330.407 52.5646 328.328 53.4883 326.711 55.2567C325.016 57.1031 324.169 59.4097 324.169 62.1007ZM311.385 62.1007C311.385 56.1793 313.464 51.2575 317.623 47.2594C321.705 43.3371 326.865 41.337 332.949 41.337C339.034 41.337 344.194 43.3371 348.353 47.2594C352.435 51.2575 354.514 56.1793 354.514 62.1007C354.514 68.0221 352.435 72.9439 348.353 76.8662C344.194 80.8643 339.034 82.8644 332.949 82.8644C326.865 82.8644 321.705 80.8643 317.623 76.8662C313.464 72.9439 311.385 68.0221 311.385 62.1007ZM292.902 82.0956H305.225V25.1875H292.902V82.0956ZM265.182 71.6368C267.723 71.6368 269.802 70.7142 271.497 68.8678C273.114 67.0994 273.961 64.7917 273.961 62.1007C273.961 59.4097 273.114 57.1031 271.497 55.2567C269.802 53.4883 267.723 52.5646 265.182 52.5646C262.64 52.5646 260.561 53.4883 258.943 55.2567C257.249 57.1031 256.402 59.4097 256.402 62.1007C256.402 64.7917 257.249 67.0994 258.943 68.8678C260.561 70.7142 262.64 71.6368 265.182 71.6368ZM281.356 47.2594C284.976 51.2575 286.746 56.1793 286.746 62.1007C286.746 68.0221 284.976 72.9439 281.356 76.8662C277.736 80.8643 273.191 82.8644 267.877 82.8644C263.333 82.8644 259.483 81.3267 256.402 78.2502V97.4762H244.08V42.1058H256.402V45.9512C259.483 42.8758 263.333 41.337 267.877 41.337C273.191 41.337 277.736 43.3371 281.356 47.2594ZM208.58 57.3337H224.985C223.522 53.6421 220.748 51.7968 216.743 51.7968C213.124 51.7968 210.12 53.9496 208.58 57.3337ZM233.302 48.874C237.384 53.8717 238.771 59.7941 237.461 66.5612H208.426C209.889 70.176 213.278 72.4057 217.513 72.4057C221.287 72.4057 224.061 70.9448 225.909 67.9463L235.921 72.5595C232.147 78.7884 225.447 82.8644 217.128 82.8644C211.044 82.8644 205.884 80.8643 201.803 76.8662C197.644 72.9439 195.564 68.0221 195.564 62.1007C195.564 56.1793 197.567 51.2575 201.649 47.2594C205.73 43.3371 210.736 41.337 216.743 41.337C223.676 41.337 229.22 43.8753 233.302 48.874ZM155.519 39.7992V70.5604H163.683C168.226 70.5604 171.923 69.0996 174.774 66.2537C177.546 63.4078 178.932 59.7172 178.932 55.1809C178.932 50.6424 177.546 46.9519 174.774 44.106C171.923 41.2612 168.226 39.7992 163.683 39.7992H155.519ZM142.427 82.0956V28.2641H164.838C172.77 28.2641 179.395 30.8024 184.632 35.9549C189.868 41.1063 192.487 47.5669 192.487 55.1809C192.487 62.7938 189.868 69.1754 184.632 74.3279C179.395 79.4814 172.77 82.0956 164.838 82.0956H142.427Z" fill="black"/>
<path d="M483.761 64.336L490.865 58.3887L496.822 65.4828L483.761 64.336Z" fill="#40CF9F"/>
<path d="M504.366 88.7374L498.395 81.627L511.486 82.7759L504.366 88.7374Z" fill="#4B25BB"/>
<path d="M24.5687 98.1377V73.6055L3.8147e-06 98.1377H24.5687Z" fill="#4B25BB"/>
<path d="M73.7061 98.138H49.1375V24.54H73.7061V98.138Z" fill="#4B25BB"/>
<path d="M73.7063 122.663H49.1376H24.569L49.1376 98.1299L73.7063 122.663Z" fill="black"/>
<path d="M24.5687 36.7984C24.5687 43.5731 30.0683 49.0645 36.853 49.0645C43.6377 49.0645 49.1373 43.5731 49.1373 36.7984C49.1373 30.0237 43.6377 24.5322 36.853 24.5322C30.0683 24.5322 24.5687 30.0237 24.5687 36.7984Z" fill="black"/>
<path d="M73.7066 98.1377H98.2753L73.7066 73.6055V98.1377Z" fill="#40CF9F"/>
<path d="M49.1376 0L73.7063 24.5323H49.1376H24.569L49.1376 0Z" fill="#40CF9F"/>
<path d="M49.1375 98.1389H24.5688V49.0732H49.1375V98.1389Z" fill="#40CF9F"/>
</g>
<defs>
<clipPath id="clip0_1_2451">
<rect width="512" height="123" fill="white"/>
</clipPath>
</defs>
</svg>
