<svg width="512" height="121" viewBox="0 0 512 121" fill="none" xmlns="http://www.w3.org/2000/svg">
<g clip-path="url(#clip0_1_2471)">
<path d="M0 109.614C0 116.199 4.27322 120.47 10.8605 120.47L42.5924 120.471C61.5221 120.471 77.0072 114.068 87.535 102.86H0V109.614ZM42.5924 0.00060235L10.8605 0C4.27322 0 0 4.27126 0 10.8562V17.6103H87.535C77.0072 6.40238 61.5221 0.00060235 42.5924 0.00060235ZM70.2849 77.4008C70.2849 82.7279 73.7566 86.1842 79.1091 86.1842H98.1232C100.279 80.8378 101.727 74.96 102.4 68.6173H79.1091C73.7566 68.6173 70.2849 72.073 70.2849 77.4008ZM43.9296 43.1132C43.9296 48.441 47.4013 51.8967 52.7539 51.8967H102.4C101.727 45.5539 100.279 39.6762 98.1232 34.3297H52.7539C47.4013 34.3297 43.9296 37.7854 43.9296 43.1132ZM52.7478 77.4008C52.7478 72.073 49.2761 68.6173 43.9236 68.6173H0V86.1842H43.9236C49.2761 86.1842 52.7478 82.7285 52.7478 77.4008ZM26.3926 43.1132C26.3926 37.7854 22.9209 34.3297 17.5684 34.3297H0V51.8967H17.5684C22.9209 51.8967 26.3926 48.441 26.3926 43.1132Z" fill="#0062FF"/>
<path d="M171.671 78.3056C162.266 78.3056 156.612 71.5631 156.612 63.2465C156.612 54.9298 162.374 48.188 171.671 48.188C180.967 48.188 186.729 54.9298 186.729 63.2465C186.729 71.5631 181.076 78.3056 171.671 78.3056ZM185.705 44.1003C181.949 39.5898 176.617 36.8249 169.998 36.8249C155.204 36.8249 144.565 48.8079 144.565 63.5888C144.565 78.3702 155.103 90.3527 169.998 90.3527C176.617 90.3527 181.949 87.5877 185.705 83.0772V89.0346H198.776V18.0703H185.705V44.1003ZM223.306 58.4211C224.72 51.5464 229.287 48.0508 235.29 48.0508C241.242 48.0508 245.594 51.7031 246.982 58.4211H223.306ZM235.617 36.1409C220.331 36.1409 210.824 48.3796 210.824 63.3494C210.824 78.8534 220.983 90.3527 236.083 90.3527C246.497 90.3527 252.814 85.5267 256.723 79.4495L247.002 73.226C244.558 76.5719 240.647 78.3398 236.456 78.3398C229.599 78.3398 225.007 75.1225 223.442 68.6884H249.101L258.448 68.769C258.803 67.0759 259.012 65.3265 259.012 63.3494C259.012 50.31 250.996 36.1409 235.617 36.1409ZM298.986 62.3573C302.535 64.8364 304.784 68.5539 304.784 73.4593C304.784 83.3734 298.102 90.2518 285.608 90.2518C273.851 90.2518 267.546 84.2273 265.035 78.1428L275.827 71.841L275.931 72.2052C276.378 73.5854 278.442 78.4163 285.415 78.4163C290.451 78.4163 292 76.1905 292 74.2249L291.969 73.7541C291.833 72.8049 291.158 71.4207 288.127 70.222L286.655 69.6876C279.192 67.1646 267.014 65.2647 267.014 53.1263C267.014 42.5052 275.339 36.8404 285.608 36.8404C295.211 36.8404 301.379 42.8152 303.721 47.4641L293.162 53.6324L292.939 53.1562C292.281 51.879 290.112 48.473 285.705 48.473C280.282 48.473 279.798 51.6095 279.798 52.5194C279.798 54.998 282.156 56.113 287.198 57.6468L290.921 58.7523C293.105 59.4208 295.332 60.2087 297.618 61.5055L298.986 62.3573ZM335.843 77.5057C341.028 77.5057 345.014 74.9226 347.029 70.6852L357.858 77.1711C353.615 84.9444 345.708 90.3527 335.843 90.3527C320.881 90.3527 310.421 78.3961 310.421 63.6473C310.421 48.8978 320.977 36.9413 335.843 36.9413C345.564 36.9413 353.441 42.2613 357.73 49.9313L346.924 56.5652C344.87 52.3833 340.916 49.7882 335.843 49.7882C328.283 49.7882 322.915 55.993 322.915 63.6473C322.915 71.3009 328.234 77.5057 335.843 77.5057ZM379.572 46.7548C381.915 40.6652 386.686 37.1822 393.873 37.1666V51.639C385.771 50.8203 379.832 54.9265 379.584 64.6419L379.572 65.8109V88.4228H367.435V38.1715H379.572V46.7548ZM402.191 88.4228V38.1708H414.328V88.4228H402.191ZM402.191 31.4646V18.0703H414.728V31.4646H402.191ZM452.244 36.6633C465.98 36.6633 475.859 48.543 475.859 63.1964C475.859 77.8505 466.074 89.7296 452.244 89.7296C446.099 89.7296 441.148 86.9885 437.661 82.5168V108.423H425.523V38.0708H437.661V43.876C441.148 39.4044 446.099 36.6633 452.244 36.6633ZM450.691 49.0258C442.647 49.0258 437.661 55.3701 437.661 63.1964C437.661 71.0228 442.553 77.3677 450.691 77.3677C458.83 77.3677 463.722 71.0228 463.722 63.1964C463.722 55.3701 458.735 49.0258 450.691 49.0258ZM512 50.7999H501.056V71.8405C501.056 78.4165 507.448 76.9998 512 76.9998V88.8354L510.795 88.9876C509.691 89.1023 507.858 89.2399 505.415 89.2399L503.638 89.2022C495.174 88.8257 488.563 85.4681 488.563 71.8405V50.7999H480.137V38.256H488.563V24.0938H501.056V38.256H512V50.7999Z" fill="#0062FF"/>
</g>
<defs>
<clipPath id="clip0_1_2471">
<rect width="512" height="121" fill="white"/>
</clipPath>
</defs>
</svg>
