<svg width="256" height="302" viewBox="0 0 256 302" fill="none" xmlns="http://www.w3.org/2000/svg">
<g clip-path="url(#clip0_1_2468)">
<path d="M0 274.036C0 290.498 10.6831 301.175 27.1513 301.175L106.481 301.176C153.805 301.176 192.518 285.171 218.838 257.151H0V274.036ZM106.481 0.00150587L27.1513 0C10.6831 0 0 10.6782 0 27.1404V44.0258H218.838C192.518 16.0059 153.805 0.00150587 106.481 0.00150587ZM175.712 193.502C175.712 206.82 184.391 215.461 197.773 215.461H245.308C250.697 202.094 254.317 187.4 256 171.543H197.773C184.391 171.543 175.712 180.182 175.712 193.502ZM109.824 107.783C109.824 121.102 118.503 129.742 131.885 129.742H256C254.317 113.885 250.697 99.1905 245.308 85.8243H131.885C118.503 85.8243 109.824 94.4635 109.824 107.783ZM131.87 193.502C131.87 180.182 123.19 171.543 109.809 171.543H0V215.461H109.809C123.19 215.461 131.87 206.821 131.87 193.502ZM65.9815 107.783C65.9815 94.4635 57.3022 85.8243 43.9209 85.8243H0V129.742H43.9209C57.3022 129.742 65.9815 121.102 65.9815 107.783Z" fill="#0062FF"/>
</g>
<defs>
<clipPath id="clip0_1_2468">
<rect width="256" height="302" fill="white"/>
</clipPath>
</defs>
</svg>
