<svg width="512" height="130" viewBox="0 0 512 130" fill="none" xmlns="http://www.w3.org/2000/svg">
<g clip-path="url(#clip0_1_2488)">
<path d="M79.8567 23.4632V0.00488281H56.3977L54.0568 2.366L42.9876 23.4607L39.5068 25.8092H0V58.0243H21.7192L23.6535 60.3639L0 105.563V129.022H23.4583L25.7999 126.661L36.8698 105.566L40.3499 103.218H79.8567V71.0025H58.1375L56.2051 68.6471L79.8567 23.4632Z" fill="#45AD47"/>
<path d="M125.69 106.637L132.355 93.9167L135.43 106.637H125.69ZM126.34 71.0058L95.9805 129.021H113.996L118.401 120.579L138.743 120.578L140.756 129.021H158.77L144.886 71.0058H126.34ZM187.102 98.128H179.405V86.3976H187.102C191.792 86.3976 193.574 88.7442 193.574 92.3095C193.574 95.7833 191.792 98.128 187.102 98.128ZM211.219 92.0235C211.219 78.7011 202.208 71.0058 189.54 71.0058H162.05V129.027H179.405V112.105H183.628L187.075 112.095L195.478 129.027H213.494L202.78 108.554C208.035 105.207 211.219 99.5331 211.219 92.0235ZM213.785 71.0058V86.3862H230.184V129.027H240.065L247.526 114.755V86.3862H262.399L270.441 71.0058H213.785ZM311.013 0.00442038H328.352V58.0175H311.013V0.00442038ZM163.533 0.0334686L155.741 14.9074H160.526C169.067 14.9074 174.475 20.3666 174.475 29.0034C174.475 37.5398 169.067 43.0008 160.526 43.0008H155.119V16.0959L138.346 48.1165V58.0086H161.682C180.487 58.0086 191.54 46.6704 191.54 29.0027C191.54 11.9199 181.208 0.759042 163.533 0.0334686ZM196.125 58.0175H240.408V42.6396H213.463V36.3703H238.237V21.6504H213.463V15.3829H240.408V0.00442038H196.125V58.0175ZM271.237 35.1111L262.833 0.00442038H244.836L258.728 58.0156H277.242L307.629 0.00442038H289.611L271.237 35.1111ZM455.345 0V15.3804H471.743V58.0213H481.625L489.086 43.7491V15.3804H503.959L512 0H455.345ZM361.436 35.6365L368.09 22.9272L371.164 35.6365H361.436ZM362.111 0.00442038L331.744 58.0156H349.729L354.15 49.5632L374.473 49.5626L376.49 58.0156L394.481 58.0175L380.595 0.00442038H362.111ZM434.293 27.4847L414.874 0.00442038H397.774V58.0175H415.107V28.555L436.606 58.0175H451.628V0.00442038H434.293V27.4847Z" fill="#1F211F"/>
</g>
<defs>
<clipPath id="clip0_1_2488">
<rect width="512" height="130" fill="white"/>
</clipPath>
</defs>
</svg>
