<svg width="256" height="305" viewBox="0 0 256 305" fill="none" xmlns="http://www.w3.org/2000/svg">
<g clip-path="url(#clip0_1_2493)">
<path d="M206.721 54.8101C209.704 49.3695 211.272 43.2615 211.272 37.0524C211.238 16.6028 194.669 0.0334054 174.219 0C157.19 0.0206372 142.36 11.6279 138.249 28.1534L128.005 27.7489C57.3186 27.76 0.0170291 85.057 9.27833e-05 155.744C-0.0401706 189.145 13.0253 221.243 36.3853 245.118C31.5312 251.53 28.9222 259.337 28.9323 267.366C28.9657 287.816 45.5351 304.385 65.9847 304.418C81.639 304.418 95.1392 294.589 100.519 280.755C109.544 282.731 118.756 283.727 127.995 283.728C198.685 283.717 255.989 226.414 256 155.723C256.046 116.285 237.855 79.0404 206.721 54.8303V54.8101ZM174.209 59.7956C172.272 59.7963 170.342 59.5516 168.465 59.0675L153.094 103.664L175.544 100.003L143.922 151.537L170.235 145.146L81.6289 250.791C90.0516 258.868 90.9995 272.006 83.8234 281.208C76.6473 290.409 63.6735 292.69 53.789 286.489C43.934 280.207 40.4409 267.48 45.7082 257.047C50.9754 246.615 63.2899 241.869 74.1961 246.069L99.3056 191.289L74.8029 197.923L114.646 140.888L90.1538 146.814L159.597 54.355C152.285 48.2063 149.593 38.1453 152.857 29.1671C156.121 20.1889 164.646 14.2056 174.199 14.1879C186.762 14.1879 196.947 24.3687 196.952 36.9311C196.952 49.4934 186.772 59.6787 174.209 59.6843V59.7956Z" fill="url(#paint0_linear_1_2493)"/>
</g>
<defs>
<linearGradient id="paint0_linear_1_2493" x1="0" y1="15220.9" x2="25600" y2="15220.9" gradientUnits="userSpaceOnUse">
<stop stop-color="#FF1800"/>
<stop offset="1" stop-color="#FF009B"/>
</linearGradient>
<clipPath id="clip0_1_2493">
<rect width="256" height="305" fill="white"/>
</clipPath>
</defs>
</svg>
