<svg width="256" height="326" viewBox="0 0 256 326" fill="none" xmlns="http://www.w3.org/2000/svg">
<g clip-path="url(#clip0_1_2501)">
<mask id="mask0_1_2501" style="mask-type:luminance" maskUnits="userSpaceOnUse" x="0" y="0" width="257" height="325">
<path d="M244.828 64.4289L139.051 3.38829C132.189 -0.58646 123.725 -0.58646 116.863 3.38829L11.0672 64.4289C4.2167 68.414 0 75.7408 0 83.6661V205.837C0.00604378 213.747 4.22255 221.056 11.0672 225.02L63.9919 255.613V317.985C64.0011 320.359 65.2737 322.549 67.3322 323.732C69.3906 324.915 71.9233 324.913 73.9794 323.726L244.936 225.074C251.789 221.118 256.009 213.804 256.004 205.891V83.6481C255.962 75.71 251.707 68.3915 244.828 64.4289Z" fill="#EF6C00"/>
</mask>
<g mask="url(#mask0_1_2501)">
<path d="M255.896 70.8711L127.984 144.743L0 70.8711V218.614L63.9919 255.523V329.412L255.896 218.614V70.8711Z" fill="#EF6C00"/>
</g>
<mask id="mask1_1_2501" style="mask-type:luminance" maskUnits="userSpaceOnUse" x="0" y="0" width="257" height="325">
<path d="M244.828 64.4289L139.051 3.38829C132.189 -0.58646 123.725 -0.58646 116.863 3.38829L11.0672 64.4289C4.2167 68.414 0 75.7408 0 83.6661V205.837C0.00604378 213.747 4.22255 221.056 11.0672 225.02L63.9919 255.613V317.985C64.0011 320.359 65.2737 322.549 67.3322 323.732C69.3906 324.915 71.9233 324.913 73.9794 323.726L244.936 225.074C251.789 221.118 256.009 213.804 256.004 205.891V83.6481C255.962 75.71 251.707 68.3915 244.828 64.4289Z" fill="#FF9800"/>
</mask>
<g mask="url(#mask1_1_2501)">
<path d="M127.984 144.743L0 70.8714L127.984 -3L255.896 70.8714L127.984 144.743Z" fill="#FF9800"/>
</g>
<mask id="mask2_1_2501" style="mask-type:luminance" maskUnits="userSpaceOnUse" x="0" y="0" width="257" height="325">
<path d="M244.828 64.4289L139.051 3.38829C132.189 -0.58646 123.725 -0.58646 116.863 3.38829L11.0672 64.4289C4.2167 68.414 0 75.7408 0 83.6661V205.837C0.00604378 213.747 4.22255 221.056 11.0672 225.02L63.9919 255.613V317.985C64.0011 320.359 65.2737 322.549 67.3322 323.732C69.3906 324.915 71.9233 324.913 73.9794 323.726L244.936 225.074C251.789 221.118 256.009 213.804 256.004 205.891V83.6481C255.962 75.71 251.707 68.3915 244.828 64.4289Z" fill="#FF9800"/>
</mask>
<g mask="url(#mask2_1_2501)">
<path d="M125.716 142.493L0.809796 70.3855L0 70.8714L127.984 144.743L255.896 70.8714L252.89 69.0898L125.716 142.493Z" fill="#FF9800"/>
</g>
<mask id="mask3_1_2501" style="mask-type:luminance" maskUnits="userSpaceOnUse" x="0" y="0" width="257" height="325">
<path d="M244.828 64.4289L139.051 3.38829C132.189 -0.58646 123.725 -0.58646 116.863 3.38829L11.0672 64.4289C4.2167 68.414 0 75.7408 0 83.6661V205.837C0.00604378 213.747 4.22255 221.056 11.0672 225.02L63.9919 255.613V317.985C64.0011 320.359 65.2737 322.549 67.3322 323.732C69.3906 324.915 71.9233 324.913 73.9794 323.726L244.936 225.074C251.789 221.118 256.009 213.804 256.004 205.891V83.6481C255.962 75.71 251.707 68.3915 244.828 64.4289Z" fill="#FF9800"/>
</mask>
<g mask="url(#mask3_1_2501)">
<path d="M127.984 145.66V144.742L0.809796 71.3027L0 71.7886L127.984 145.66Z" fill="#FF9800"/>
</g>
</g>
<defs>
<clipPath id="clip0_1_2501">
<rect width="256" height="326" fill="white"/>
</clipPath>
</defs>
</svg>
