<svg width="512" height="139" viewBox="0 0 512 139" fill="none" xmlns="http://www.w3.org/2000/svg">
<g clip-path="url(#clip0_1_2523)">
<path d="M13.017 0H78.1017C102.465 0 121.492 12.2056 121.492 39.0508V99.7966C121.492 127.006 102.465 138.847 78.1017 138.847H13.017C10.6206 138.847 8.67798 136.905 8.67798 134.508V4.33898C8.67798 1.94263 10.6206 0 13.017 0Z" fill="#6142D2"/>
<path d="M8.67797 0H47.7288C72.0922 0 91.1187 12.2056 91.1187 39.0508V99.7966C91.1187 127.006 72.0922 138.847 47.7288 138.847H8.67797C6.28162 138.847 4.33899 136.905 4.33899 134.508V4.33898C4.33899 1.94263 6.28162 0 8.67797 0Z" fill="#461C7C"/>
<path d="M4.33898 0H17.3559C41.7193 0 60.7458 12.2056 60.7458 39.0508V99.7966C60.7458 127.006 41.7193 138.847 17.3559 138.847H4.33898C1.94263 138.847 0 136.905 0 134.508V4.33898C0 1.94263 1.94263 0 4.33898 0Z" fill="#02E2FF"/>
<path d="M169.463 103.945L174.748 102.435C175.708 102.192 176.653 101.898 177.582 101.554C177.959 101.385 178.146 100.842 178.146 99.9183V39.1421C178.146 38.2179 177.959 37.6105 177.582 37.3198C177.204 37.0247 176.302 36.6689 174.874 36.248L169.463 34.7381V30.4598H208.974C215.266 30.4598 221.054 31.3406 226.339 33.1023C231.624 34.8639 236.197 37.3979 240.054 40.7172C243.917 44.0364 247.009 48.1589 249.114 52.7969C251.297 57.5351 252.386 62.8807 252.386 68.8381C252.386 73.8714 251.505 78.757 249.743 83.4996C248.03 88.1582 245.448 92.4489 242.133 96.1434C238.818 99.8315 234.709 102.812 229.801 105.077C224.894 107.342 219.292 108.475 213.001 108.475H169.463V103.945ZM208.471 104.322C215.517 104.322 221.076 101.346 225.146 95.3884C229.216 89.431 231.246 80.7486 231.246 69.3415C231.246 65.5665 230.89 61.605 230.179 57.4526C229.534 53.5084 228.281 49.6881 226.465 46.1279C224.762 42.7971 222.306 39.9091 219.292 37.6929C216.272 35.4714 212.415 34.3606 207.716 34.3606H206.206C204.948 34.3606 203.607 34.5081 202.179 34.8032C200.953 35.0264 199.766 35.4284 198.656 35.9964V102.938C199.749 103.359 201.047 103.693 202.561 103.945C204.067 104.197 205.789 104.322 207.716 104.322H208.471ZM432.883 109.985C428.774 109.985 424.999 109.312 421.558 107.971C418.2 106.682 415.17 104.662 412.689 102.057C410.216 99.454 408.285 96.2692 406.901 92.4943C405.513 88.7194 404.784 84.3977 404.697 79.5337C404.615 74.5873 405.326 70.1615 406.836 66.2564C408.346 62.3557 410.424 59.045 413.067 56.3202C415.724 53.5834 418.944 51.4573 422.504 50.0894C426.256 48.6445 430.247 47.9188 434.267 47.9503C437.386 47.9415 440.493 48.3219 443.518 49.0827C446.35 49.7727 449.035 50.9661 451.445 52.606C453.754 54.1984 455.619 56.2551 457.043 58.7717C458.474 61.2883 459.182 64.2648 459.182 67.7057C459.182 68.8772 459.099 70.1572 458.93 71.5413C458.778 72.8301 458.568 74.1114 458.301 75.3813L424.075 74.5005V76.6396C424.248 79.742 424.726 82.6361 425.524 85.3219C426.228 87.8155 427.379 90.1605 428.922 92.2426C430.388 94.1735 432.176 95.6834 434.267 96.7725C436.367 97.8616 438.84 98.4083 441.691 98.4083C445.384 98.4083 448.36 97.9267 450.629 96.9591C452.987 95.9317 455.123 94.4584 456.921 92.6201L458.179 93.8784C457.211 95.9663 456.029 97.9483 454.652 99.7924C453.193 101.755 451.455 103.493 449.493 104.951C447.314 106.546 444.892 107.778 442.32 108.601C439.552 109.525 436.406 109.985 432.883 109.985ZM440.81 68.8381C441.202 67.9334 441.477 66.9829 441.63 66.0091C441.756 65.124 441.817 64.1 441.817 62.9241C441.817 59.3184 441.188 56.7194 439.93 55.1226C438.671 53.5302 436.953 52.7318 434.771 52.7318C431.668 52.7318 429.234 54.3242 427.472 57.5134C425.711 60.7025 424.622 64.894 424.201 70.0964L440.81 68.8381ZM257.605 104.448L259.87 103.693C261.467 103.021 262.535 102.539 263.081 102.244C263.628 101.953 263.897 101.385 263.897 100.547V62.7983C263.897 61.2059 263.52 60.1124 262.769 59.5267C262.01 58.9409 260.92 58.1816 259.493 57.2617L257.731 56.2551V52.4802L279.877 47.9503H283.652V100.547C283.652 101.385 283.887 101.953 284.347 102.248C284.807 102.539 285.878 103.021 287.557 103.693L289.818 104.448V108.475H257.605V104.448ZM293.905 56.2334V52.4802L316.052 47.9503H319.827V60.4075C321.623 56.9424 324.157 53.9135 327.25 51.5343C330.357 49.1478 334.423 47.9503 339.456 47.9503C343.569 47.9503 347.153 49.0394 350.217 51.2219C353.28 53.4044 355.397 56.4243 356.569 60.2817H357.45C358.17 58.7753 359.034 57.3425 360.032 56.0034C361.156 54.4994 362.49 53.1639 363.993 52.0376C365.59 50.8227 367.456 49.8377 369.59 49.0827C371.734 48.3278 374.19 47.9503 376.954 47.9503C380.06 47.9503 382.742 48.5143 385.007 49.6511C387.227 50.7457 389.164 52.3374 390.669 54.3025C392.179 56.2768 393.294 58.5417 394.006 61.0974C394.717 63.6574 395.073 66.3649 395.073 69.2156V100.547C395.073 101.385 395.307 101.953 395.767 102.248C396.227 102.539 397.299 103.021 398.978 103.693L401.239 104.448V108.475H369.53V104.448L371.794 103.693C373.643 103.021 374.775 102.539 375.192 102.244C375.613 101.953 375.821 101.385 375.821 100.547V70.7256C375.821 69.2981 375.717 67.7881 375.509 66.1957C375.325 64.6912 374.9 63.2262 374.25 61.8567C373.645 60.5853 372.736 59.4826 371.604 58.6459C370.475 57.8084 369.026 57.3876 367.265 57.3876C364.835 57.3876 362.821 58.0384 361.225 59.3401C359.632 60.6418 358.374 62.0867 357.45 63.6791L357.701 69.2156V100.547C357.701 101.385 357.936 101.953 358.396 102.248C358.856 102.539 359.927 103.021 361.607 103.693L363.867 104.448V108.475H332.032V104.448L334.297 103.693C336.145 103.021 337.278 102.539 337.694 102.244C338.115 101.953 338.324 101.385 338.324 100.547V70.7256C338.324 69.2981 338.219 67.8098 338.011 66.2564C337.822 64.7726 337.397 63.3284 336.753 61.9782C336.147 60.7084 335.238 59.6072 334.106 58.7717C332.978 57.9343 331.529 57.5134 329.767 57.5134C328.596 57.5134 327.485 57.765 326.435 58.2684C325.402 58.7609 324.431 59.3725 323.541 60.0907C322.013 61.3136 320.749 62.834 319.827 64.5599V100.547C319.827 101.385 320.017 101.91 320.391 102.122C320.772 102.331 321.462 102.643 322.473 103.064L325.992 104.448V108.475H293.78V104.448L296.045 103.693C297.724 103.021 298.813 102.539 299.316 102.244C299.819 101.953 300.071 101.385 300.071 100.547V62.7983C300.071 61.2059 299.715 60.1124 299.004 59.5267C297.975 58.7149 296.903 57.9589 295.793 57.2617C295.494 57.0283 295.152 56.8572 294.786 56.7584C294.502 56.57 294.208 56.3963 293.905 56.2377V56.2334ZM465.408 104.448L467.673 103.693C469.352 103.021 470.441 102.539 470.945 102.244C471.448 101.953 471.7 101.385 471.7 100.547V62.7983C471.7 61.2059 471.344 60.1124 470.632 59.5267C469.603 58.7149 468.531 57.9589 467.421 57.2617L465.534 56.2551V52.4802L487.68 47.9503H491.455V61.2883C491.958 59.7783 492.67 58.251 493.594 56.6933C494.516 55.1458 495.614 53.7102 496.866 52.4151C498.124 51.1134 499.469 50.046 500.892 49.2086C502.178 48.4102 503.657 47.9753 505.171 47.9503C505.843 47.9503 506.576 48.0544 507.375 48.2627C508.173 48.4753 508.885 48.8528 509.514 49.3951C510.143 49.9419 510.668 50.7619 511.085 51.851C511.505 52.9401 511.714 54.3676 511.714 56.1293C511.714 57.5568 511.462 58.9409 510.959 60.2817C510.455 61.6267 509.952 62.7983 509.449 63.8049C508.72 65.0235 507.924 66.1998 507.062 67.3282C505.717 65.5665 504.29 64.3516 502.78 63.6791C501.27 63.0065 499.508 62.6724 497.495 62.6724C496.154 62.6724 494.935 62.8417 493.85 63.1758C492.757 63.5099 491.958 64.0132 491.455 64.6857V99.4149C491.455 100.339 491.585 101.029 491.832 101.493C492.084 101.953 493.134 102.391 494.978 102.812L501.27 104.448V108.475H465.408V104.448ZM274.094 35.0678C271.219 35.0941 268.454 33.9691 266.414 31.9438C264.277 29.9646 263.086 27.1672 263.142 24.2551C263.142 21.2048 264.235 18.6144 266.414 16.4883C268.596 14.3535 271.156 13.2861 274.094 13.2861C277.109 13.2861 279.669 14.3535 281.765 16.484C283.865 18.6187 284.911 21.2048 284.911 24.2507C284.911 27.301 283.865 29.8654 281.765 31.9438C279.669 34.0265 277.109 35.0678 274.089 35.0678H274.094Z" fill="#110122"/>
</g>
<defs>
<clipPath id="clip0_1_2523">
<rect width="512" height="139" fill="white"/>
</clipPath>
</defs>
</svg>
