<svg width="512" height="134" viewBox="0 0 512 134" fill="none" xmlns="http://www.w3.org/2000/svg">
<g clip-path="url(#clip0_1_2530)">
<path d="M99.2846 133.859C135.73 134.036 168.999 104.201 168.999 67.904C168.999 28.215 135.73 0.781595 99.2846 0.792972H67.9198C31.0374 0.781595 0.679077 28.2215 0.679077 67.904C0.679077 104.209 31.0374 134.036 67.9198 133.859H99.2846Z" fill="#006095"/>
<path d="M81.9093 103.246V31.1745C96.4265 36.7318 106.732 50.7573 106.757 67.208C106.732 83.6619 96.4265 97.6793 81.9093 103.246ZM29.3877 67.208C29.4203 50.7671 39.7096 36.7497 54.2186 31.1762V103.232C39.7096 97.663 29.4203 83.6537 29.3877 67.208ZM68.0664 6.29297C34.3646 6.30435 7.05502 33.5655 7.04688 67.208C7.05502 100.847 34.3646 128.103 68.0664 128.113C101.78 128.103 129.094 100.847 129.099 67.208C129.094 33.5655 101.78 6.30435 68.0664 6.29297Z" fill="white"/>
<path d="M190.372 29.421C190.372 23.1275 187.081 23.5403 183.928 23.4737V21.6549C186.661 21.7881 189.464 21.7881 192.203 21.7881C195.146 21.7881 199.144 21.6549 204.336 21.6549C222.493 21.6549 232.378 33.7576 232.378 46.1512C232.378 53.0803 228.315 70.5045 203.491 70.5045C199.918 70.5045 196.616 70.3664 193.323 70.3664C190.171 70.3664 187.081 70.433 183.928 70.5045V68.6841C188.132 68.2631 190.171 68.1233 190.372 63.3642V29.421ZM197.245 62.2459C197.245 67.6341 201.106 68.2631 204.539 68.2631C219.689 68.2631 224.664 56.8561 224.664 46.4275C224.664 33.3447 216.249 23.8979 202.717 23.8979C199.838 23.8979 198.514 24.1027 197.245 24.1775V62.2459ZM234.838 68.6857H236.168C238.129 68.6857 239.533 68.6857 239.533 66.3711V47.4093C239.533 44.3324 238.482 43.9049 235.885 42.5136V41.392C239.181 40.4071 243.111 39.084 243.388 38.8743C243.881 38.5947 244.3 38.52 244.651 38.52C244.998 38.52 245.143 38.9409 245.143 39.505V66.3711C245.143 68.6857 246.685 68.6857 248.651 68.6857H249.84V70.5062C247.454 70.5062 244.998 70.3664 242.48 70.3664C239.955 70.3664 237.429 70.4346 234.838 70.5062V68.6857ZM242.34 27.7452C240.513 27.7452 238.904 26.0662 238.904 24.2457C238.904 22.4936 240.59 20.8795 242.34 20.8795C244.158 20.8795 245.775 22.3554 245.775 24.2457C245.775 26.1377 244.23 27.7452 242.34 27.7452ZM256.502 47.827C256.502 45.2394 255.727 44.5421 252.439 43.2125V41.8829C255.45 40.9044 258.323 39.991 261.693 38.52C261.901 38.52 262.106 38.663 262.106 39.2189V43.77C266.109 40.9044 269.547 38.52 274.251 38.52C280.206 38.52 282.309 42.8598 282.309 48.3195V66.3711C282.309 68.6857 283.85 68.6857 285.815 68.6857H287.077V70.5062C284.618 70.5062 282.164 70.3664 279.646 70.3664C277.119 70.3664 274.593 70.4346 272.07 70.5062V68.6857H273.331C275.298 68.6857 276.694 68.6857 276.694 66.3711V48.2512C276.694 44.2576 274.251 42.3023 270.248 42.3023C268.005 42.3023 264.429 44.1195 262.106 45.6603V66.3711C262.106 68.6857 263.658 68.6857 265.623 68.6857H266.883V70.5062C264.429 70.5062 261.971 70.3664 259.447 70.3664C256.926 70.3664 254.397 70.4346 251.876 70.5062V68.6857H253.141C255.104 68.6857 256.502 68.6857 256.502 66.3711V47.827ZM292.409 51.1916C292.264 51.8222 292.264 52.869 292.409 55.2502C292.821 61.8964 297.111 67.3529 302.712 67.3529C306.575 67.3529 309.594 65.2529 312.182 62.6669L313.162 63.647C309.936 67.9169 305.938 71.5545 300.194 71.5545C289.04 71.5545 286.799 60.7749 286.799 56.2986C286.799 42.5802 296.051 38.52 300.956 38.52C306.642 38.52 312.747 42.0877 312.809 49.506C312.809 49.9319 312.809 50.3464 312.747 50.7706L312.11 51.1916H292.409ZM304.822 48.9501C306.575 48.9501 306.778 48.0383 306.778 47.1996C306.778 43.6318 304.607 40.763 300.678 40.763C296.403 40.763 293.458 43.9049 292.618 48.9501H304.822ZM314.426 68.6857H316.32C318.276 68.6857 319.68 68.6857 319.68 66.3711V46.7103C319.68 44.5421 317.089 44.1195 316.035 43.5603V42.5136C321.154 40.342 323.96 38.52 324.6 38.52C325.012 38.52 325.22 38.7297 325.22 39.4334V45.7302H325.37C327.116 43.0012 330.067 38.52 334.342 38.52C336.096 38.52 338.337 39.7081 338.337 42.2291C338.337 44.1195 337.008 45.8034 335.046 45.8034C332.863 45.8034 332.863 44.1195 330.412 44.1195C329.219 44.1195 325.294 45.7302 325.294 49.9319V66.3711C325.294 68.6857 326.693 68.6857 328.658 68.6857H332.583V70.5062C328.725 70.4346 325.79 70.3664 322.771 70.3664C319.897 70.3664 316.95 70.4346 314.426 70.5062V68.6857ZM341.421 60.7749C342.335 65.3927 345.138 69.3147 350.26 69.3147C354.39 69.3147 355.932 66.7954 355.932 64.3475C355.932 56.0873 340.651 58.7448 340.651 47.4808C340.651 43.5587 343.811 38.52 351.52 38.52C353.761 38.52 356.776 39.1523 359.508 40.5533L360.003 47.6856H358.39C357.689 43.2808 355.237 40.7614 350.747 40.7614C347.939 40.7614 345.278 42.3705 345.278 45.3791C345.278 53.5728 361.546 51.0485 361.546 62.0346C361.546 66.6523 357.829 71.5562 349.483 71.5562C346.678 71.5562 343.382 70.5744 340.931 69.1766L340.158 61.1276L341.421 60.7749ZM424.863 34.3199H423.114C421.779 26.1377 415.958 22.8446 408.108 22.8446C400.04 22.8446 388.328 28.2312 388.328 45.0264C388.328 59.1706 398.433 69.3147 409.227 69.3147C416.167 69.3147 421.922 64.5572 423.326 57.2055L424.935 57.6249L423.326 67.8421C420.38 69.6675 412.455 71.5545 407.823 71.5545C391.42 71.5545 381.045 60.9862 381.045 45.2394C381.045 30.892 393.873 20.6016 407.617 20.6016C413.294 20.6016 418.766 22.4269 424.163 24.3173L424.863 34.3199ZM427.392 68.6857H428.718C430.687 68.6857 432.091 68.6857 432.091 66.3711V27.3974C432.091 22.8446 431.039 22.7049 428.374 21.936V20.8162C431.177 19.9076 434.123 18.6479 435.596 17.8043C436.361 17.3882 436.926 17.0322 437.133 17.0322C437.56 17.0322 437.701 17.4565 437.701 18.0172V66.3711C437.701 68.6857 439.242 68.6857 441.208 68.6857H442.392V70.5062C440.016 70.5062 437.56 70.3664 435.035 70.3664C432.513 70.3664 429.988 70.4346 427.392 70.5062V68.6857ZM472.414 66.6523C472.414 67.9169 473.183 67.9835 474.374 67.9835C475.217 67.9835 476.264 67.9169 477.18 67.9169V69.3895C474.16 69.6675 468.413 71.1368 467.079 71.5562L466.726 71.3449V65.6787C462.526 69.1067 459.295 71.5562 454.311 71.5562C450.528 71.5562 446.602 69.1067 446.602 63.2309V45.3109C446.602 43.4904 446.323 41.7399 442.4 41.392V40.0609C444.927 39.9926 450.528 39.5732 451.443 39.5732C452.22 39.5732 452.22 40.0608 452.22 41.6017V59.6534C452.22 61.7566 452.22 67.7739 458.316 67.7739C460.7 67.7739 463.855 65.955 466.796 63.5105V44.677C466.796 43.2808 463.433 42.5136 460.913 41.813V40.5533C467.218 40.1307 471.151 39.5732 471.848 39.5732C472.414 39.5732 472.414 40.0608 472.414 40.8345V66.6523ZM486.366 43.5603C489.168 41.1807 492.956 38.52 496.815 38.52C504.95 38.52 509.852 45.5937 509.852 53.2184C509.852 62.3857 503.125 71.5562 493.091 71.5562C487.907 71.5562 485.173 69.8739 483.347 69.1067L481.246 70.7126L479.779 69.9454C480.399 65.8169 480.758 61.7566 480.758 57.4883V27.3974C480.758 22.8446 479.701 22.7049 477.038 21.936V20.8162C479.849 19.9076 482.787 18.6479 484.262 17.8043C485.033 17.3882 485.59 17.0322 485.808 17.0322C486.228 17.0322 486.366 17.4565 486.366 18.0172V43.5603ZM486.366 62.5937C486.366 65.2529 488.889 69.7373 493.588 69.7373C501.092 69.7373 504.245 62.3857 504.245 56.1539C504.245 48.5974 498.501 42.3023 493.029 42.3023C490.428 42.3023 488.259 43.9829 486.366 45.5937V62.5937ZM183.848 111.195H184.386C185.757 111.195 187.207 111.009 187.207 109.026V89.0779C187.207 87.0917 185.757 86.9032 184.386 86.9032H183.848V85.7605C185.337 85.7605 187.627 85.91 189.501 85.91C191.407 85.91 193.693 85.7605 195.486 85.7605V86.9032H194.95C193.582 86.9032 192.13 87.0917 192.13 89.0779V109.026C192.13 111.009 193.582 111.195 194.95 111.195H195.486V112.342C193.656 112.342 191.361 112.193 189.46 112.193C187.589 112.193 185.337 112.342 183.848 112.342V111.195ZM221.7 104.836L221.776 104.761V90.4839C221.776 87.3599 219.599 86.9032 218.456 86.9032H217.615V85.7605C219.41 85.7605 221.166 85.9117 222.957 85.9117C224.52 85.9117 226.09 85.7605 227.651 85.7605V86.9032H227.082C225.475 86.9032 223.682 87.2087 223.682 91.7387V109.069C223.682 110.4 223.721 111.731 223.908 112.911H222.459L202.812 91.0512V106.743C202.812 110.055 203.455 111.195 206.396 111.195H207.043V112.342C205.404 112.342 203.766 112.193 202.123 112.193C200.411 112.193 198.654 112.342 196.936 112.342V111.195H197.47C200.102 111.195 200.901 109.408 200.901 106.366V90.3262C200.901 88.197 199.142 86.9032 197.432 86.9032H196.936V85.7605C198.383 85.7605 199.872 85.9117 201.318 85.9117C202.465 85.9117 203.574 85.7605 204.717 85.7605L221.7 104.836ZM233.365 87.6638C230.499 87.6638 230.392 88.3498 229.818 91.1259H228.675C228.823 90.0613 229.017 88.9967 229.133 87.8898C229.287 86.8219 229.361 85.7605 229.361 84.6569H230.276C230.584 85.8011 231.536 85.7605 232.572 85.7605H252.254C253.286 85.7605 254.237 85.7231 254.317 84.5788L255.227 84.7316C255.079 85.7605 254.924 86.7861 254.809 87.8166C254.739 88.8455 254.739 89.8744 254.739 90.9L253.592 91.3226C253.514 89.915 253.322 87.6638 250.768 87.6638H244.511V107.923C244.511 110.86 245.848 111.195 247.676 111.195H248.4V112.342C246.913 112.342 244.241 112.193 242.184 112.193C239.894 112.193 237.222 112.342 235.732 112.342V111.195H236.456C238.562 111.195 239.624 111.008 239.624 108.002V87.6638H233.365ZM256.447 111.195H256.983C258.356 111.195 259.807 111.009 259.807 109.026V89.0779C259.807 87.0917 258.356 86.9032 256.983 86.9032H256.447V85.7605C258.769 85.7605 262.746 85.91 265.945 85.91C269.155 85.91 273.117 85.7605 275.71 85.7605C275.645 87.3957 275.682 89.9134 275.793 91.5876L274.643 91.8931C274.459 89.4193 274.003 87.4395 269.994 87.4395H264.696V97.413H269.23C271.518 97.413 272.018 96.1224 272.244 94.0614H273.386C273.311 95.5503 273.272 97.0343 273.272 98.5166C273.272 99.9681 273.311 101.413 273.386 102.86L272.244 103.086C272.018 100.804 271.902 99.3179 269.266 99.3179H264.696V108.189C264.696 110.665 266.899 110.665 269.342 110.665C273.923 110.665 275.943 110.358 277.089 106.023L278.156 106.284C277.658 108.308 277.202 110.32 276.863 112.342C274.417 112.342 270.029 112.193 266.6 112.193C263.162 112.193 258.621 112.342 256.447 112.342V111.195ZM283.306 89.7947C283.306 87.0169 281.78 86.9032 280.594 86.9032H279.907V85.7589C281.128 85.7589 283.493 85.9117 285.822 85.9117C288.108 85.9117 289.942 85.7589 291.963 85.7589C296.767 85.7589 301.046 87.0527 301.046 92.4653C301.046 95.8867 298.758 97.9819 295.743 99.1684L302.266 108.909C303.335 110.52 304.094 110.972 305.967 111.193V112.342C304.707 112.342 303.485 112.193 302.228 112.193C301.046 112.193 299.821 112.342 298.644 112.342C295.706 108.497 293.181 104.384 290.704 99.999H288.191V108.152C288.191 111.087 289.561 111.193 291.313 111.193H292.002V112.342C289.823 112.342 287.618 112.193 285.441 112.193C283.607 112.193 281.814 112.342 279.907 112.342V111.193H280.594C282.011 111.193 283.306 110.554 283.306 109.143V89.7947ZM288.191 98.6272H290.054C293.873 98.6272 295.929 97.1838 295.929 92.688C295.929 89.3039 293.756 87.1323 290.357 87.1323C289.211 87.1323 288.722 87.2494 288.191 87.2835V98.6272ZM331.871 104.836L331.94 104.761V90.4839C331.94 87.3599 329.769 86.9032 328.626 86.9032H327.789V85.7605C329.582 85.7605 331.331 85.9117 333.129 85.9117C334.695 85.9117 336.252 85.7605 337.829 85.7605V86.9032H337.252C335.651 86.9032 333.857 87.2087 333.857 91.7387V109.069C333.857 110.4 333.893 111.731 334.081 112.911H332.635L312.986 91.0512V106.743C312.986 110.055 313.633 111.195 316.571 111.195H317.219V112.342C315.581 112.342 313.939 112.193 312.301 112.193C310.578 112.193 308.824 112.342 307.109 112.342V111.195H307.638C310.275 111.195 311.076 109.408 311.076 106.366V90.3262C311.076 88.197 309.321 86.9032 307.606 86.9032H307.109V85.7605C308.553 85.7605 310.049 85.9117 311.498 85.9117C312.633 85.9117 313.744 85.7605 314.892 85.7605L331.871 104.836ZM343.964 106.897C343.576 108.189 343.117 109.186 343.117 109.865C343.117 111.009 344.721 111.195 345.977 111.195H346.403V112.342C344.874 112.259 343.315 112.194 341.778 112.194C340.407 112.194 339.042 112.259 337.663 112.342V111.195H337.894C339.381 111.195 340.643 110.32 341.206 108.718L347.318 91.2462C347.809 89.837 348.502 87.932 348.732 86.5179C349.947 86.1051 351.476 85.3444 352.201 84.886C352.318 84.8454 352.385 84.8064 352.506 84.8064C352.62 84.8064 352.69 84.8064 352.776 84.9234C352.89 85.2274 352.997 85.5703 353.121 85.8743L360.14 105.792C360.596 107.123 361.051 108.531 361.544 109.678C362.007 110.744 362.808 111.195 364.068 111.195H364.296V112.342C362.58 112.259 360.86 112.194 359.033 112.194C357.165 112.194 355.251 112.259 353.305 112.342V111.195H353.729C354.602 111.195 356.095 111.047 356.095 110.093C356.095 109.6 355.751 108.573 355.325 107.351L353.841 102.934H345.18L343.964 106.897ZM349.532 90.0256H349.454L345.905 100.804H353.035L349.532 90.0256ZM365.975 87.6638C363.112 87.6638 362.998 88.3498 362.425 91.1259H361.279C361.428 90.0613 361.622 88.9967 361.741 87.8898C361.893 86.8219 361.964 85.7605 361.964 84.6569H362.884C363.187 85.8011 364.145 85.7605 365.171 85.7605H384.862C385.888 85.7605 386.841 85.7231 386.919 84.5788L387.833 84.7316C387.686 85.7605 387.533 86.7861 387.419 87.8166C387.334 88.8455 387.334 89.8744 387.334 90.9L386.193 91.3226C386.123 89.915 385.93 87.6638 383.374 87.6638H377.115V107.923C377.115 110.86 378.454 111.195 380.281 111.195H381.007V112.342C379.519 112.342 376.85 112.193 374.788 112.193C372.503 112.193 369.825 112.342 368.339 112.342V111.195H369.063C371.166 111.195 372.232 111.008 372.232 108.002V87.6638H365.975ZM389.24 111.195H389.774C391.152 111.195 392.595 111.009 392.595 109.026V89.0779C392.595 87.0917 391.152 86.9032 389.774 86.9032H389.24V85.7605C390.732 85.7605 393.016 85.91 394.883 85.91C396.796 85.91 399.084 85.7605 400.881 85.7605V86.9032H400.347C398.97 86.9032 397.518 87.0917 397.518 89.0779V109.026C397.518 111.009 398.97 111.195 400.347 111.195H400.881V112.342C399.047 112.342 396.757 112.193 394.852 112.193C392.979 112.193 390.732 112.342 389.24 112.342V111.195ZM416.097 85.1916C424.231 85.1916 430.713 90.2206 430.713 98.3313C430.713 107.091 424.417 112.913 416.294 112.913C408.198 112.913 402.021 107.43 402.021 99.2432C402.021 91.3242 408.162 85.1916 416.097 85.1916ZM416.673 111.237C424.077 111.237 425.365 104.721 425.365 99.17C425.365 93.6014 422.36 86.8642 416.023 86.8642C409.344 86.8642 407.363 92.8066 407.363 97.9038C407.363 104.721 410.491 111.237 416.673 111.237ZM456.423 104.836L456.502 104.761V90.4839C456.502 87.3599 454.321 86.9032 453.176 86.9032H452.349V85.7605C454.135 85.7605 455.893 85.9117 457.679 85.9117C459.251 85.9117 460.814 85.7605 462.381 85.7605V86.9032H461.804C460.205 86.9032 458.409 87.2087 458.409 91.7387V109.069C458.409 110.4 458.445 111.731 458.638 112.911H457.19L437.537 91.0512V106.743C437.537 110.055 438.187 111.195 441.121 111.195H441.773V112.342C440.131 112.342 438.494 112.193 436.853 112.193C435.136 112.193 433.376 112.342 431.658 112.342V111.195H432.197C434.833 111.195 435.627 109.408 435.627 106.366V90.3262C435.627 88.197 433.881 86.9032 432.156 86.9032H431.658V85.7605C433.11 85.7605 434.599 85.9117 436.047 85.9117C437.19 85.9117 438.294 85.7605 439.442 85.7605L456.423 104.836ZM468.511 106.897C468.136 108.189 467.674 109.186 467.674 109.865C467.674 111.009 469.281 111.195 470.532 111.195H470.958V112.342C469.431 112.259 467.864 112.194 466.338 112.194C464.96 112.194 463.592 112.259 462.224 112.342V111.195H462.441C463.934 111.195 465.198 110.32 465.762 108.718L471.875 91.2462C472.369 89.837 473.059 87.932 473.281 86.5179C474.504 86.1051 476.028 85.3444 476.759 84.886C476.869 84.8454 476.945 84.8064 477.061 84.8064C477.175 84.8064 477.248 84.8064 477.325 84.9234C477.44 85.2274 477.557 85.5703 477.673 85.8743L484.689 105.792C485.147 107.123 485.603 108.531 486.104 109.678C486.562 110.744 487.366 111.195 488.622 111.195H488.855V112.342C487.135 112.259 485.417 112.194 483.583 112.194C481.719 112.194 479.807 112.259 477.86 112.342V111.195H478.282C479.154 111.195 480.652 111.047 480.652 110.093C480.652 109.6 480.305 108.573 479.88 107.351L478.398 102.934H469.735L468.511 106.897ZM474.087 90.0256H474.01L470.457 100.804H477.598L474.087 90.0256ZM498.468 108.609C498.468 110.135 499.529 110.588 500.75 110.744C502.315 110.86 504.032 110.86 505.792 110.666C507.391 110.475 508.764 109.563 509.45 108.609C510.059 107.77 510.401 106.705 510.634 105.867H511.74C511.321 108.037 510.785 110.174 510.324 112.342C506.976 112.342 503.607 112.194 500.258 112.194C496.895 112.194 493.542 112.342 490.184 112.342V111.195H490.71C492.089 111.195 493.581 111.009 493.581 108.646V89.0763C493.581 87.0917 492.089 86.9032 490.71 86.9032H490.184V85.7605C492.202 85.7605 494.189 85.9117 496.208 85.9117C498.161 85.9117 500.064 85.7605 502.012 85.7605V86.9032H501.053C499.607 86.9032 498.468 86.9454 498.468 88.9593V108.609Z" fill="#1A1918"/>
</g>
<defs>
<clipPath id="clip0_1_2530">
<rect width="512" height="134" fill="white"/>
</clipPath>
</defs>
</svg>
