<svg width="256" height="259" viewBox="0 0 256 259" fill="none" xmlns="http://www.w3.org/2000/svg">
<g clip-path="url(#clip0_1_2541)">
<path d="M129.095 0C59.0099 0 0 56.8198 0 126.93V258.364L129.07 258.24C199.155 258.24 256 199.23 256 129.145C256 59.0597 199.106 0 129.095 0Z" fill="black"/>
<path d="M130.34 49.1289C102.619 49.1453 76.9516 63.7447 62.7692 87.5624C48.5868 111.38 47.9813 140.903 61.1753 165.282L46.9392 211.076L98.0596 199.528C127.333 212.717 161.684 206.794 184.849 184.562C208.015 162.33 215.346 128.252 203.372 98.4609C191.398 68.6699 162.522 49.1446 130.414 49.1289H130.34Z" fill="#FFF9AE"/>
<path d="M191.857 176.491C169.51 204.681 130.886 214.116 98.0596 199.404L46.9392 211.101L98.9804 204.954C133.48 225.164 177.652 216.272 201.646 184.287C225.639 152.303 221.815 107.407 192.759 79.9404C214.575 108.543 214.203 148.301 191.857 176.491Z" fill="#00AEEF"/>
<path d="M187.456 161.546C168.175 191.914 130.749 205.331 96.5663 194.128L46.9392 211.101L98.0596 199.528C134.467 215.974 177.42 202.512 197.929 168.228C218.437 133.944 209.983 89.7311 178.274 65.4307C202.955 91.5993 206.736 131.178 187.456 161.546Z" fill="#00A94F"/>
<path d="M65.8791 167.025C51.6313 132.681 63.373 93.052 94.0299 72.0129C124.687 50.9739 165.887 54.2703 192.809 79.9163C167.875 47.1956 121.943 39.2087 87.4279 61.5924C52.9128 83.976 41.47 129.172 61.1753 165.283L46.9392 211.077L65.8791 167.025Z" fill="#F15D22"/>
<path d="M61.1753 165.282C43.4965 132.628 51.0577 92.0581 79.313 67.9645C107.568 43.8709 148.823 42.8147 178.274 65.4309C150.023 35.6833 103.655 32.639 71.7566 58.4375C39.8583 84.236 33.1396 130.216 56.3221 164.063L46.9641 211.101L61.1753 165.282Z" fill="#D0232B"/>
</g>
<defs>
<clipPath id="clip0_1_2541">
<rect width="256" height="259" fill="white"/>
</clipPath>
</defs>
</svg>
