<svg width="512" height="139" viewBox="0 0 512 139" fill="none" xmlns="http://www.w3.org/2000/svg">
<g clip-path="url(#clip0_1_2549)">
<path d="M156.326 29.5874C158.522 29.5577 160.631 30.4457 162.145 32.0374C163.732 33.6066 164.608 35.7576 164.568 37.9895C164.608 40.1966 163.742 42.3236 162.171 43.8751C160.681 45.4509 158.601 46.334 156.432 46.3118C154.219 46.3425 152.094 45.4442 150.573 43.8351C148.982 42.2411 148.107 40.0685 148.15 37.8164C148.15 33.2894 151.812 29.6154 156.339 29.6007L156.326 29.5874ZM149.881 57.6168H162.77V111.359H149.881V57.6168ZM205.94 66.1255L197.95 74.1149C194.701 70.8659 191.745 69.2414 189.082 69.2414C187.881 69.1715 186.689 69.494 185.687 70.1601C184.924 70.6729 184.465 71.531 184.462 72.4504C184.466 73.1645 184.742 73.8501 185.234 74.3679C186.381 75.3731 187.68 76.1909 189.082 76.7913L193.809 79.1482C198.78 81.6072 202.198 84.1105 204.062 86.6582C208.509 93.0643 207.555 101.768 201.825 107.058C198.47 110.112 193.973 111.638 188.337 111.638C181.291 111.833 174.601 108.552 170.44 102.863L178.43 94.2215C179.922 95.9668 181.729 97.4167 183.756 98.4958C185.375 99.4602 187.201 100.022 189.082 100.134C190.553 100.208 192.006 99.7752 193.197 98.9086C194.141 98.268 194.721 97.2131 194.755 96.0724C194.755 94.0839 192.882 92.1487 189.135 90.2668L184.795 88.0963C176.486 83.9063 172.331 78.6644 172.331 72.3705C172.3 68.3793 174.018 64.5744 177.032 61.9577C180.317 59.0213 184.612 57.4705 189.016 57.6301C195.687 57.5936 201.973 60.7515 205.926 66.1255H205.94ZM265.993 69.3346L255.261 75.2334C253.59 73.3743 251.555 71.8786 249.282 70.8392C247.077 69.9794 244.724 69.5631 242.358 69.6142C238.036 69.4254 233.819 70.9797 230.654 73.9285C227.662 76.8113 226.036 80.8287 226.18 84.9805C226.05 88.9784 227.611 92.8459 230.481 95.633C233.527 98.5051 237.602 100.031 241.786 99.8674C247.556 99.8674 252.047 97.9011 255.261 93.9685L265.434 100.933C259.921 108.096 252.145 111.678 242.105 111.678C233.068 111.678 225.993 109.015 220.88 103.689C214.91 97.688 212.139 89.2113 213.413 80.8427C214.686 72.4741 219.853 65.2053 227.338 61.252C231.955 58.7977 237.116 57.5474 242.345 57.6168C247.101 57.5402 251.809 58.5848 256.087 60.6661C260.076 62.6611 263.486 65.6456 265.993 69.3346ZM297.751 57.6167C302.55 57.6029 307.268 58.857 311.426 61.252C319.851 65.9877 325.05 74.9162 325.009 84.581C325.029 89.3522 323.784 94.0436 321.4 98.1763C319.089 102.308 315.696 105.733 311.586 108.083C307.402 110.468 302.66 111.7 297.844 111.652C290.736 111.759 283.902 108.908 278.976 103.782C273.855 98.7578 271.028 91.8471 271.16 84.6742C271.093 69.8691 282.987 57.785 297.791 57.6167H297.751ZM297.964 69.7607C294.189 69.6733 290.554 71.1931 287.964 73.9418C285.271 76.8214 283.834 80.6539 283.969 84.5943C283.805 88.603 285.242 92.5126 287.964 95.4599C290.55 98.2116 294.19 99.724 297.964 99.6144C301.771 99.7178 305.441 98.1862 308.044 95.4066C310.762 92.478 312.2 88.5865 312.039 84.5943C312.194 80.623 310.756 76.7544 308.044 73.8486C305.419 71.1131 301.753 69.6262 297.964 69.7607ZM332.891 58.9484H345.927V83.6888C345.76 87.0658 346.092 90.4488 346.913 93.7288C347.49 95.4854 348.609 97.0142 350.108 98.0964C351.705 99.1742 353.602 99.7195 355.528 99.6543C357.466 99.7181 359.377 99.1834 361.001 98.123C362.568 97.0133 363.739 95.4316 364.343 93.609C364.875 92.1265 365.142 88.9618 365.142 84.1149V58.9484H378.031V80.7195C378.031 89.6942 377.321 95.8327 375.901 99.135C374.363 102.952 371.69 106.206 368.244 108.456C364.361 110.748 359.9 111.872 355.395 111.692C349.758 111.692 345.199 110.431 341.719 107.91C338.182 105.302 335.603 101.6 334.383 97.3773C333.388 94.2348 332.891 88.5535 332.891 80.3333V58.9484ZM386.567 58.9484H397.619V65.4198C398.641 63.0812 400.291 61.0716 402.386 59.6142C404.307 58.3119 406.576 57.6204 408.897 57.63C410.724 57.6681 412.519 58.1235 414.143 58.9617L410.149 70.0669C409.005 69.4179 407.732 69.0313 406.42 68.9351C404.432 68.9351 402.754 70.1646 401.387 72.6235C400.02 75.0825 399.336 79.8983 399.336 87.071V110.333H386.54L386.567 58.9484ZM450.641 66.1255L442.652 74.1149C439.412 70.8659 436.469 69.2414 433.824 69.2414C432.622 69.1715 431.431 69.494 430.428 70.1601C429.665 70.6729 429.206 71.531 429.203 72.4504C429.208 73.1645 429.484 73.8501 429.976 74.3679C431.126 75.358 432.425 76.1623 433.824 76.7514L438.551 79.1083C443.522 81.5672 446.94 84.0706 448.804 86.6183C453.245 93.0258 452.291 101.725 446.567 107.018C443.211 110.072 438.715 111.598 433.078 111.598C426.012 111.808 419.297 108.52 415.129 102.81L423.118 94.1683C424.61 95.914 426.417 97.3639 428.444 98.4426C430.088 99.4141 431.943 99.9716 433.85 100.067C435.322 100.141 436.774 99.7086 437.965 98.842C438.851 98.1926 439.386 97.1702 439.416 96.0724C439.416 94.0839 437.543 92.1487 433.797 90.2668L429.456 88.0963C421.147 83.9063 416.993 78.6644 416.993 72.3705C416.962 68.3793 418.679 64.5744 421.693 61.9577C424.98 59.0226 429.274 57.4719 433.677 57.6301C440.349 57.5936 446.635 60.7515 450.588 66.1255H450.641ZM511.88 88.3626H470.468C470.927 91.7607 472.637 94.8657 475.262 97.0711C478.084 99.3044 481.613 100.452 485.209 100.307C489.863 100.377 494.346 98.556 497.632 95.2601L508.498 100.36C506.035 103.986 502.684 106.92 498.764 108.882C494.546 110.815 489.941 111.758 485.302 111.638C477.242 111.638 470.677 109.095 465.608 104.009C460.577 98.9554 457.847 92.0548 458.058 84.9272C457.832 77.6581 460.566 70.6086 465.635 65.3931C470.602 60.2503 477.503 57.433 484.65 57.6301C492.737 57.6301 499.319 60.2178 504.397 65.3931C509.474 70.5685 512.009 77.4083 512 85.9126L511.88 88.3626ZM498.991 78.2028C498.172 75.3784 496.416 72.9172 494.011 71.2254C491.461 69.4322 488.405 68.4993 485.289 68.5623C481.886 68.4983 478.558 69.561 475.821 71.5849C473.723 73.3829 472.1 75.6694 471.094 78.2427L498.991 78.2028ZM69.0683 0C31.5714 0 0 30.3996 0 67.9098V138.23L69.0549 138.163C106.552 138.163 136.965 106.592 136.965 69.0949C136.965 31.598 106.525 0 69.0683 0Z" fill="black"/>
<path d="M69.734 26.2852C54.903 26.2939 41.1705 34.1049 33.5826 46.8478C25.9948 59.5907 25.6708 75.386 32.7298 88.4293L25.1133 112.93L52.4636 106.752C68.1255 113.808 86.5038 110.639 98.8978 98.7443C111.292 86.85 115.214 68.6175 108.808 52.6787C102.401 36.7399 86.952 26.2935 69.774 26.2852H69.734Z" fill="#FFF9AE"/>
<path d="M102.647 94.4261C90.6912 109.508 70.0263 114.556 52.4636 106.685L25.1133 112.943L52.9563 109.654C71.4143 120.467 95.0473 115.709 107.884 98.597C120.721 81.4848 118.675 57.4647 103.13 42.7695C114.801 58.0725 114.603 79.344 102.647 94.4261Z" fill="#00AEEF"/>
<path d="M100.292 86.4303C89.9769 102.678 69.9529 109.856 51.6647 103.862L25.1133 112.943L52.4636 106.752C71.9424 115.55 94.9231 108.348 105.895 90.0052C116.868 71.6625 112.345 48.008 95.38 35.0068C108.585 49.0075 110.608 70.1828 100.292 86.4303Z" fill="#00A94F"/>
<path d="M35.2465 89.3612C27.6237 70.9867 33.9056 49.7843 50.3077 38.528C66.7097 27.2717 88.7527 29.0354 103.156 42.7564C89.8164 25.2502 65.2418 20.9771 46.7755 32.9528C28.3093 44.9284 22.1872 69.1089 32.7298 88.4291L25.1133 112.93L35.2465 89.3612Z" fill="#F15D22"/>
<path d="M32.7298 88.4287C23.2714 70.9579 27.3168 49.2524 42.4339 36.3619C57.551 23.4714 79.623 22.9063 95.38 35.0064C80.2649 19.0909 55.4572 17.4621 38.391 31.2648C21.3249 45.0675 17.7302 69.6674 30.1333 87.7763L25.1266 112.943L32.7298 88.4287Z" fill="#D0232B"/>
</g>
<defs>
<clipPath id="clip0_1_2549">
<rect width="512" height="139" fill="white"/>
</clipPath>
</defs>
</svg>
