<svg width="512" height="86" viewBox="0 0 512 86" fill="none" xmlns="http://www.w3.org/2000/svg">
<g clip-path="url(#clip0_1_2558)">
<path d="M270.356 0.364258C246.374 0.364258 226.917 19.0993 226.917 42.222C226.917 66.8052 245.529 85.1822 270.356 85.1822C294.564 85.1822 313.678 66.5623 313.678 42.7046C313.678 18.9889 294.692 0.364258 270.356 0.364258Z" fill="url(#paint0_linear_1_2558)"/>
<g filter="url(#filter0_i_1_2558)">
<path d="M270.356 0.364258C246.374 0.364258 226.917 19.0993 226.917 42.222C226.917 66.8052 245.529 85.1822 270.356 85.1822C294.564 85.1822 313.678 66.5623 313.678 42.7046C313.678 18.9889 294.692 0.364258 270.356 0.364258Z" fill="black"/>
</g>
<path d="M23.7458 1.8911H0.392822V83.345H23.6243C35.9498 83.345 44.8639 80.4241 52.6835 73.9467C61.9619 66.2517 67.4646 54.6486 67.4646 42.6575C67.4646 18.609 49.4992 1.8911 23.7458 1.8911ZM42.3184 63.0674C37.2967 67.5986 30.832 69.5559 20.5584 69.5559H16.2906V15.6833H20.5584C30.832 15.6833 37.0491 17.5176 42.3184 22.2759C47.8132 27.1619 51.0905 34.7275 51.0905 42.5407C51.0905 50.3698 47.8132 58.2003 42.3184 63.0674ZM74.7984 83.345H90.6693V1.8911H74.7984V83.345ZM129.526 33.1362C119.987 29.6017 117.18 27.2707 117.18 22.8894C117.18 17.7557 122.178 13.8507 129.029 13.8507C133.792 13.8507 137.7 15.8032 141.865 20.4306L150.16 9.57816C143.321 3.58023 135.139 0.53159 126.214 0.53159C111.816 0.53159 100.815 10.5513 100.815 23.8514C100.815 35.0981 105.941 40.8327 120.847 46.2202C127.08 48.4078 130.248 49.8666 131.839 50.8634C135.014 52.9405 136.609 55.8614 136.609 59.2791C136.609 65.8842 131.352 70.7624 124.258 70.7624C116.684 70.7624 110.584 66.9804 106.917 59.8974L96.6704 69.8019C103.984 80.5345 112.779 85.3132 124.884 85.3132C141.372 85.3132 152.969 74.3063 152.969 58.5552C152.969 45.6067 147.608 39.7397 129.526 33.1362ZM157.974 42.6575C157.974 66.6224 176.79 85.1823 200.98 85.1823C207.819 85.1823 213.681 83.8307 220.895 80.4241V61.7269C214.534 68.0844 208.915 70.6425 201.706 70.6425C185.709 70.6425 174.342 59.0362 174.342 42.5407C174.342 26.9143 186.064 14.5762 200.98 14.5762C208.541 14.5762 214.292 17.2621 220.895 23.7347V5.0391C213.934 1.50785 208.183 0.0537109 201.343 0.0537109C177.276 0.0537109 157.974 18.9891 157.974 42.6575ZM349.626 56.6058L327.883 1.8911H310.538L345.117 85.4252H353.66L388.843 1.8911H371.626L349.626 56.6058ZM396.065 83.345H441.131V69.5559H411.943V47.5545H440.014V33.7623H411.943V15.6833H441.131V1.8911H396.065V83.345ZM504.02 25.9301C504.02 10.6711 493.53 1.8911 475.198 1.8911H451.621V83.345H467.515V50.6079H469.595L491.57 83.345H511.114L485.447 49.0339C497.435 46.583 504.02 38.396 504.02 25.9301ZM472.138 39.3817H467.515V14.6992H472.392C482.307 14.6992 487.679 18.8645 487.679 26.7913C487.679 34.9688 482.307 39.3817 472.138 39.3817Z" fill="#0B1015"/>
</g>
<defs>
<filter id="filter0_i_1_2558" x="226.917" y="0.364258" width="89.761" height="87.8184" filterUnits="userSpaceOnUse" color-interpolation-filters="sRGB">
<feFlood flood-opacity="0" result="BackgroundImageFix"/>
<feBlend mode="normal" in="SourceGraphic" in2="BackgroundImageFix" result="shape"/>
<feColorMatrix in="SourceAlpha" type="matrix" values="0 0 0 0 0 0 0 0 0 0 0 0 0 0 0 0 0 0 127 0" result="hardAlpha"/>
<feOffset dx="3" dy="3"/>
<feGaussianBlur stdDeviation="4"/>
<feComposite in2="hardAlpha" operator="arithmetic" k2="-1" k3="1"/>
<feColorMatrix type="matrix" values="0 0 0 0 0 0 0 0 0 0 0 0 0 0 0 0 0 0 0.5 0"/>
<feBlend mode="normal" in2="shape" result="effect1_innerShadow_1_2558"/>
</filter>
<linearGradient id="paint0_linear_1_2558" x1="1911.33" y1="769.083" x2="7773.81" y2="6960.84" gradientUnits="userSpaceOnUse">
<stop stop-color="#F34F26"/>
<stop offset="1" stop-color="#F69E35"/>
</linearGradient>
<clipPath id="clip0_1_2558">
<rect width="512" height="86" fill="white"/>
</clipPath>
</defs>
</svg>
