<svg width="256" height="256" viewBox="0 0 256 256" fill="none" xmlns="http://www.w3.org/2000/svg">
<g clip-path="url(#clip0_1_2567)">
<path d="M228 0H28C12.536 0 0 12.536 0 28V228C0 243.464 12.536 256 28 256H228C243.464 256 256 243.464 256 228V28C256 12.536 243.464 0 228 0Z" fill="#092E20"/>
<path d="M186.377 94.198V160.425C186.377 183.244 184.708 194.188 179.699 203.65C175.06 212.742 168.938 218.491 156.324 224.799L129.795 212.184C142.41 206.248 148.532 201.055 152.427 193.075C156.509 184.913 157.809 175.452 157.809 150.593V94.198H186.377ZM140.928 50.0791V182.317C126.273 185.1 115.513 186.213 103.826 186.213C68.9488 186.213 50.7686 170.445 50.7686 140.205C50.7686 111.08 70.063 92.1587 99.9296 92.1587C104.567 92.1587 108.092 92.5285 112.359 93.6415V50.0791H140.928ZM102.713 115.161C88.2431 115.161 79.8944 124.066 79.8944 139.648C79.8944 154.861 87.8721 163.209 102.528 163.209C105.68 163.209 108.278 163.023 112.359 162.468V116.643C109.02 115.532 106.238 115.161 102.713 115.161ZM186.377 50.2311V79.5424H157.809V50.2311H186.377Z" fill="#FFFFFD"/>
</g>
<defs>
<clipPath id="clip0_1_2567">
<rect width="256" height="256" fill="white"/>
</clipPath>
</defs>
</svg>
