<svg width="256" height="286" viewBox="0 0 256 286" fill="none" xmlns="http://www.w3.org/2000/svg">
<g clip-path="url(#clip0_1_2574)">
<path d="M240.481 60.1307L143.525 4.15974C133.918 -1.38528 122.086 -1.38528 112.479 4.15974L15.5227 60.1307C5.91997 65.6799 0 75.9284 0 87.0184V198.973C0 210.063 5.91997 220.311 15.5227 225.856L112.479 281.84C122.086 287.385 133.918 287.385 143.525 281.84L240.481 225.856C250.084 220.311 256 210.063 256 198.973V87.0184C256 75.9284 250.084 65.6799 240.481 60.1307ZM231.166 196.048C231.166 199.377 229.391 202.452 226.508 204.118L203.824 217.216C200.941 218.878 197.392 218.878 194.509 217.216L171.821 204.118C168.942 202.456 167.167 199.377 167.167 196.048V169.852C167.167 166.523 168.942 163.453 171.821 161.787L194.509 148.689C197.392 147.026 200.941 147.026 203.824 148.689L226.508 161.787C229.391 163.449 231.166 166.523 231.166 169.852V196.048Z" fill="url(#paint0_linear_1_2574)"/>
</g>
<defs>
<linearGradient id="paint0_linear_1_2574" x1="19722.5" y1="3770.5" x2="3777.59" y2="23350.6" gradientUnits="userSpaceOnUse">
<stop stop-color="#7236DC"/>
<stop offset="1" stop-color="#3F37AE"/>
</linearGradient>
<clipPath id="clip0_1_2574">
<rect width="256" height="286" fill="white"/>
</clipPath>
</defs>
</svg>
