<svg width="256" height="339" viewBox="0 0 256 339" fill="none" xmlns="http://www.w3.org/2000/svg">
<g clip-path="url(#clip0_1_2583)">
<path d="M208.493 111.5C208.199 111.182 207.931 110.848 207.621 110.539L106.545 9.90502C94.453 -2.13298 74.89 -2.09298 62.85 10C50.81 22.093 50.853 41.655 62.945 53.694L96.348 86.951C40.966 101.04 0 151.232 0 210.999C0 281.692 57.308 338.999 128 338.999C198.692 338.999 256 281.692 256 210.999C256 170.811 237.465 134.967 208.493 111.5Z" fill="#FE8439"/>
<path d="M203.633 195.18L130.585 123.015C120.874 113.421 105.226 113.52 95.6298 123.227C86.0358 132.939 86.1308 148.589 95.8428 158.183L126.073 188.047H62.2348C48.5828 188.047 37.5168 199.113 37.5168 212.764C37.5168 226.416 48.5828 237.482 62.2348 237.482H126.728L96.0118 268.389C86.3898 278.071 86.4398 293.721 96.1208 303.346C100.943 308.137 107.245 310.53 113.545 310.53C119.895 310.53 126.247 308.097 131.078 303.237L201.809 232.064C201.939 231.934 202.048 231.79 202.174 231.657C205.161 229.143 207.58 225.92 209.126 222.154C212.935 212.88 210.764 202.227 203.633 195.18Z" fill="white"/>
</g>
<defs>
<clipPath id="clip0_1_2583">
<rect width="256" height="339" fill="white"/>
</clipPath>
</defs>
</svg>
