<svg width="256" height="218" viewBox="0 0 256 218" fill="none" xmlns="http://www.w3.org/2000/svg">
<g clip-path="url(#clip0_1_2587)">
<path d="M236.308 45.9482H126.031V90.5841H236.308V45.9482Z" fill="white"/>
<path d="M26.2564 191.671C16.5442 191.671 8.08304 186.384 3.54068 178.543C1.30232 182.408 0 186.883 0 191.671C0 206.173 11.755 217.928 26.2564 217.928H52.5128V191.671H26.2564Z" fill="#3ECC5F"/>
<path d="M144.385 53.0063L236.308 47.2614V34.1332C236.308 19.6318 224.552 7.87677 210.052 7.87677H91.898L88.616 2.19226C87.1561 -0.33492 83.5104 -0.33492 82.0519 2.19226L78.7698 7.87677L75.4878 2.19226C74.0279 -0.33492 70.3822 -0.33492 68.9237 2.19226L65.6416 7.87677L62.3595 2.19226C60.8997 -0.33492 57.254 -0.33492 55.7954 2.19226L52.5134 7.87677C52.4845 7.87677 52.4569 7.88071 52.4281 7.88071L46.9904 2.44432C44.9279 0.38188 41.4069 1.32449 40.6507 4.14311L38.8548 10.8437L32.0373 9.0163C29.2187 8.26143 26.6403 10.8398 27.3965 13.6584L29.2226 20.4759L22.5233 22.2705C19.7047 23.0267 18.7608 26.549 20.8232 28.6115L26.2596 34.0492C26.2596 34.0767 26.257 34.1043 26.257 34.1332L20.5712 37.4152C18.0453 38.8738 18.0453 42.5208 20.5712 43.9793L26.257 47.2614L20.5712 50.5434C18.0453 52.002 18.0453 55.649 20.5712 57.1075L26.257 60.3896L20.5712 63.6716C18.0453 65.1302 18.0453 68.7772 20.5712 70.2357L26.257 73.5178L20.5712 76.7999C18.0453 78.2584 18.0453 81.9054 20.5712 83.364L26.257 86.646L20.5712 89.9281C18.0453 91.3866 18.0453 95.0336 20.5712 96.4922L26.257 99.7742L20.5712 103.056C18.0453 104.515 18.0453 108.162 20.5712 109.62L26.257 112.902L20.5712 116.184C18.0453 117.643 18.0453 121.29 20.5712 122.749L26.257 126.031L20.5712 129.313C18.0453 130.771 18.0453 134.418 20.5712 135.877L26.257 139.159L20.5712 142.441C18.0453 143.899 18.0453 147.546 20.5712 149.005L26.257 152.287L20.5712 155.569C18.0453 157.028 18.0453 160.675 20.5712 162.133L26.257 165.415L20.5712 168.697C18.0453 170.156 18.0453 173.803 20.5712 175.261L26.257 178.543L20.5712 181.825C18.0453 183.284 18.0453 186.931 20.5712 188.39L26.257 191.672C26.257 206.173 38.012 217.928 52.5134 217.928H210.052C224.552 217.928 236.308 206.173 236.308 191.672V86.646L144.385 80.9011C137.02 80.4403 131.283 74.3331 131.283 66.9537C131.283 59.5743 137.02 53.4671 144.385 53.0063Z" fill="#3ECC5F"/>
<path d="M183.795 217.928H223.18V165.415H183.795V217.928Z" fill="#3ECC5F"/>
<path d="M249.436 185.108C249.148 185.108 248.874 185.157 248.597 185.192C248.547 184.995 248.5 184.797 248.445 184.6C250.816 183.61 252.482 181.273 252.482 178.544C252.482 174.918 249.544 171.98 245.918 171.98C244.424 171.98 243.062 172.5 241.958 173.34C241.812 173.191 241.667 173.044 241.518 172.899C242.341 171.801 242.846 170.454 242.846 168.977C242.846 165.351 239.907 162.413 236.281 162.413C233.57 162.413 231.244 164.058 230.244 166.406C230.049 166.35 229.854 166.304 229.66 166.255C229.695 165.978 229.744 165.703 229.744 165.416C229.744 161.79 226.806 158.852 223.18 158.852C219.553 158.852 216.615 161.79 216.615 165.416C216.615 165.703 216.664 165.978 216.699 166.255C216.505 166.304 216.31 166.35 216.115 166.406C215.115 164.058 212.789 162.413 210.078 162.413C206.452 162.413 203.513 165.351 203.513 168.977C203.513 170.454 204.018 171.801 204.841 172.899C199.961 177.667 196.923 184.311 196.923 191.672C196.923 206.173 208.678 217.928 223.18 217.928C235.44 217.928 245.707 209.513 248.597 198.152C248.874 198.188 249.148 198.236 249.436 198.236C253.062 198.236 256 195.298 256 191.672C256 188.046 253.062 185.108 249.436 185.108Z" fill="#44D860"/>
<path d="M196.923 139.159H236.308V112.902H196.923V139.159Z" fill="#3ECC5F"/>
<path d="M249.436 129.313C251.249 129.313 252.718 127.843 252.718 126.03C252.718 124.217 251.249 122.748 249.436 122.748C249.293 122.748 249.155 122.773 249.017 122.79C248.991 122.692 248.968 122.594 248.941 122.495C250.125 122 250.959 120.83 250.959 119.466C250.959 117.653 249.49 116.184 247.677 116.184C246.93 116.184 246.248 116.443 245.697 116.864C245.625 116.79 245.551 116.716 245.476 116.644C245.889 116.096 246.141 115.422 246.141 114.682C246.141 112.871 244.672 111.4 242.859 111.4C241.502 111.4 240.339 112.224 239.839 113.397C238.714 113.083 237.534 112.902 236.308 112.902C229.058 112.902 223.179 118.781 223.179 126.03C223.179 133.28 229.058 139.159 236.308 139.159C237.534 139.159 238.714 138.978 239.839 138.664C240.339 139.837 241.502 140.661 242.859 140.661C244.672 140.661 246.141 139.19 246.141 137.378C246.141 136.639 245.889 135.965 245.476 135.417C245.551 135.345 245.625 135.271 245.697 135.197C246.248 135.618 246.93 135.877 247.677 135.877C249.49 135.877 250.959 134.408 250.959 132.595C250.959 131.231 250.125 130.061 248.941 129.566C248.968 129.469 248.991 129.369 249.017 129.271C249.155 129.288 249.293 129.313 249.436 129.313Z" fill="#44D860"/>
<path d="M78.7692 50.5439C76.9562 50.5439 75.4871 49.0748 75.4871 47.2618C75.4871 41.832 71.0708 37.4157 65.641 37.4157C60.2111 37.4157 55.7948 41.832 55.7948 47.2618C55.7948 49.0748 54.3258 50.5439 52.5128 50.5439C50.6998 50.5439 49.2307 49.0748 49.2307 47.2618C49.2307 38.2125 56.5917 30.8516 65.641 30.8516C74.6902 30.8516 82.0512 38.2125 82.0512 47.2618C82.0512 49.0748 80.5822 50.5439 78.7692 50.5439Z" fill="black"/>
<path d="M131.282 217.928H210.051C224.553 217.928 236.308 206.173 236.308 191.672V99.7744H157.538C143.037 99.7744 131.282 111.529 131.282 126.031V217.928Z" fill="#FFFF50"/>
<path d="M216.641 140.471H150.949C150.223 140.471 149.636 139.885 149.636 139.159C149.636 138.433 150.223 137.846 150.949 137.846H216.641C217.367 137.846 217.954 138.433 217.954 139.159C217.954 139.885 217.367 140.471 216.641 140.471Z" fill="black"/>
<path d="M216.641 166.728H150.949C150.223 166.728 149.636 166.141 149.636 165.415C149.636 164.689 150.223 164.103 150.949 164.103H216.641C217.367 164.103 217.954 164.689 217.954 165.415C217.954 166.141 217.367 166.728 216.641 166.728Z" fill="black"/>
<path d="M216.641 192.984H150.949C150.223 192.984 149.636 192.397 149.636 191.671C149.636 190.945 150.223 190.358 150.949 190.358H216.641C217.367 190.358 217.954 190.945 217.954 191.671C217.954 192.397 217.367 192.984 216.641 192.984Z" fill="black"/>
<path d="M216.641 127.587H150.949C150.223 127.587 149.636 126.998 149.636 126.274C149.636 125.548 150.223 124.961 150.949 124.961H216.641C217.367 124.961 217.954 125.548 217.954 126.274C217.954 126.998 217.367 127.587 216.641 127.587Z" fill="black"/>
<path d="M216.641 153.6H150.949C150.223 153.6 149.636 153.013 149.636 152.287C149.636 151.561 150.223 150.975 150.949 150.975H216.641C217.367 150.975 217.954 151.561 217.954 152.287C217.954 153.013 217.367 153.6 216.641 153.6Z" fill="black"/>
<path d="M216.641 179.856H150.949C150.223 179.856 149.636 179.269 149.636 178.543C149.636 177.817 150.223 177.23 150.949 177.23H216.641C217.367 177.23 217.954 177.817 217.954 178.543C217.954 179.269 217.367 179.856 216.641 179.856Z" fill="black"/>
<path d="M236.308 58.5663C236.292 58.5663 236.279 58.5584 236.263 58.5597C232.207 58.6976 230.287 62.7555 228.594 66.3356C226.827 70.0758 225.46 72.5097 223.22 72.4362C220.74 72.347 219.323 69.5454 217.821 66.5797C216.096 63.1756 214.126 59.3133 209.992 59.4577C205.993 59.5942 204.068 63.1257 202.369 66.241C200.561 69.5598 199.331 71.5776 196.959 71.4844C194.429 71.3925 193.085 69.1148 191.529 66.4786C189.795 63.5432 187.79 60.2428 183.736 60.3557C179.805 60.4909 177.874 63.4867 176.17 66.1321C174.368 68.9284 173.105 70.6324 170.702 70.5313C168.112 70.4381 166.774 68.549 165.226 66.3605C163.488 63.9016 161.53 61.1184 157.487 61.2536C153.643 61.3849 151.712 63.8386 150.01 66.0034C148.392 68.0567 147.129 69.6819 144.458 69.5795C143.733 69.5506 143.125 70.1191 143.099 70.8451C143.071 71.5685 143.638 72.1776 144.363 72.2052C148.324 72.3378 150.33 69.8408 152.072 67.6274C153.617 65.6634 154.951 63.9685 157.577 63.8793C160.105 63.7716 161.291 65.3431 163.084 67.8768C164.787 70.2845 166.719 73.0152 170.608 73.1557C174.681 73.2922 176.641 70.2478 178.377 67.5539C179.929 65.1461 181.268 63.0679 183.825 62.98C186.179 62.892 187.46 64.7523 189.267 67.8125C190.97 70.6967 192.898 73.9644 196.864 74.1088C200.967 74.2506 202.948 70.6679 204.674 67.4987C206.169 64.7575 207.581 62.1673 210.082 62.082C212.435 62.0269 213.663 64.176 215.479 67.7665C217.175 71.1182 219.098 74.9148 223.126 75.0606C223.201 75.0632 223.274 75.0645 223.348 75.0645C227.37 75.0645 229.279 71.0276 230.969 67.458C232.464 64.2941 233.879 61.3127 236.308 61.1919V58.5663Z" fill="black"/>
<path d="M105.026 217.928H157.538V165.415H105.026V217.928Z" fill="#3ECC5F"/>
<path d="M183.795 185.108C183.507 185.108 183.233 185.157 182.956 185.192C182.906 184.995 182.859 184.797 182.804 184.6C185.175 183.61 186.841 181.273 186.841 178.544C186.841 174.918 183.902 171.98 180.276 171.98C178.782 171.98 177.421 172.5 176.317 173.34C176.171 173.191 176.026 173.044 175.877 172.899C176.7 171.801 177.204 170.454 177.204 168.977C177.204 165.351 174.266 162.413 170.64 162.413C167.929 162.413 165.603 164.058 164.603 166.406C164.408 166.35 164.213 166.304 164.018 166.255C164.054 165.978 164.103 165.703 164.103 165.416C164.103 161.79 161.164 158.852 157.538 158.852C153.912 158.852 150.974 161.79 150.974 165.416C150.974 165.703 151.023 165.978 151.058 166.255C150.864 166.304 150.668 166.35 150.474 166.406C149.474 164.058 147.147 162.413 144.436 162.413C140.81 162.413 137.872 165.351 137.872 168.977C137.872 170.454 138.376 171.801 139.2 172.899C134.32 177.667 131.282 184.311 131.282 191.672C131.282 206.173 143.037 217.928 157.538 217.928C169.799 217.928 180.066 209.513 182.956 198.152C183.233 198.188 183.507 198.236 183.795 198.236C187.421 198.236 190.359 195.298 190.359 191.672C190.359 188.046 187.421 185.108 183.795 185.108Z" fill="#44D860"/>
<path d="M105.026 139.159H157.538V112.902H105.026V139.159Z" fill="#3ECC5F"/>
<path d="M170.667 129.313C172.48 129.313 173.949 127.843 173.949 126.03C173.949 124.217 172.48 122.748 170.667 122.748C170.523 122.748 170.386 122.773 170.248 122.79C170.222 122.692 170.199 122.594 170.172 122.495C171.356 122 172.189 120.83 172.189 119.466C172.189 117.653 170.72 116.184 168.907 116.184C168.16 116.184 167.479 116.443 166.928 116.864C166.855 116.79 166.782 116.716 166.707 116.644C167.119 116.096 167.371 115.422 167.371 114.682C167.371 112.871 165.902 111.4 164.089 111.4C162.733 111.4 161.57 112.224 161.07 113.397C159.945 113.083 158.765 112.902 157.538 112.902C150.289 112.902 144.41 118.781 144.41 126.03C144.41 133.28 150.289 139.159 157.538 139.159C158.765 139.159 159.945 138.978 161.07 138.664C161.57 139.837 162.733 140.661 164.089 140.661C165.902 140.661 167.371 139.19 167.371 137.378C167.371 136.639 167.119 135.965 166.707 135.417C166.782 135.345 166.855 135.271 166.928 135.197C167.479 135.618 168.16 135.877 168.907 135.877C170.72 135.877 172.189 134.408 172.189 132.595C172.189 131.231 171.356 130.061 170.172 129.566C170.199 129.469 170.222 129.369 170.248 129.271C170.386 129.288 170.523 129.313 170.667 129.313Z" fill="#44D860"/>
<path d="M183.795 32.4922C183.585 32.4922 183.362 32.4659 183.151 32.4265C182.941 32.3872 182.73 32.3215 182.534 32.2428C182.338 32.164 182.154 32.059 181.969 31.9408C181.798 31.8227 181.629 31.6782 181.47 31.5338C181.327 31.3763 181.182 31.2188 181.064 31.035C180.946 30.8512 180.841 30.6674 180.761 30.4704C180.683 30.2735 180.618 30.0635 180.578 29.8534C180.539 29.6434 180.513 29.4202 180.513 29.2101C180.513 29.0001 180.539 28.7769 180.578 28.5669C180.618 28.3568 180.683 28.1599 180.761 27.9498C180.841 27.7529 180.946 27.5691 181.064 27.3853C181.182 27.2146 181.327 27.044 181.47 26.8864C181.629 26.742 181.798 26.5976 181.969 26.4795C182.154 26.3613 182.338 26.2563 182.534 26.1775C182.73 26.0988 182.941 26.0331 183.151 25.9937C183.572 25.9018 184.005 25.9018 184.438 25.9937C184.647 26.0331 184.858 26.0988 185.055 26.1775C185.251 26.2563 185.436 26.3613 185.62 26.4795C185.79 26.5976 185.96 26.742 186.118 26.8864C186.263 27.044 186.407 27.2146 186.525 27.3853C186.644 27.5691 186.749 27.7529 186.827 27.9498C186.906 28.1599 186.972 28.3568 187.011 28.5669C187.049 28.7769 187.077 29.0001 187.077 29.2101C187.077 30.0766 186.721 30.9299 186.118 31.5338C185.96 31.6782 185.79 31.8227 185.62 31.9408C185.436 32.059 185.251 32.164 185.055 32.2428C184.858 32.3215 184.647 32.3872 184.438 32.4265C184.228 32.4659 184.005 32.4922 183.795 32.4922Z" fill="black"/>
<path d="M210.051 30.8516C209.185 30.8516 208.345 30.4971 207.726 29.8932C207.583 29.7357 207.439 29.565 207.321 29.3943C207.203 29.2105 207.097 29.0267 207.017 28.8298C206.94 28.6329 206.874 28.4228 206.835 28.2128C206.796 28.0027 206.769 27.7796 206.769 27.5695C206.769 26.7031 207.124 25.8628 207.726 25.2458C207.885 25.1014 208.055 24.957 208.225 24.8388C208.41 24.7207 208.594 24.6157 208.791 24.5369C208.987 24.4581 209.198 24.3925 209.408 24.3531C209.828 24.2612 210.275 24.2612 210.695 24.3531C210.903 24.3925 211.115 24.4581 211.312 24.5369C211.507 24.6157 211.692 24.7207 211.876 24.8388C212.047 24.957 212.216 25.1014 212.375 25.2458C212.978 25.8628 213.333 26.7031 213.333 27.5695C213.333 27.7796 213.306 28.0027 213.268 28.2128C213.228 28.4228 213.163 28.6329 213.084 28.8298C212.992 29.0267 212.9 29.2105 212.782 29.3943C212.664 29.565 212.519 29.7357 212.375 29.8932C212.216 30.0376 212.047 30.182 211.876 30.3002C211.692 30.4183 211.507 30.5234 211.312 30.6021C211.115 30.6809 210.903 30.7465 210.695 30.7859C210.485 30.8253 210.261 30.8516 210.051 30.8516Z" fill="black"/>
</g>
<defs>
<clipPath id="clip0_1_2587">
<rect width="256" height="218" fill="white"/>
</clipPath>
</defs>
</svg>
