<svg width="256" height="183" viewBox="0 0 256 183" fill="none" xmlns="http://www.w3.org/2000/svg">
<g clip-path="url(#clip0_1_2611)">
<path d="M31.0352 117.482L31.6387 118.436C34.7553 122.858 38.3895 126.891 42.464 130.449C51.9414 138.211 63.819 142.444 76.0693 142.423H78.3862C86.8936 141.731 95.2318 139.66 103.074 136.29C99.5567 136.855 96.005 137.18 92.4435 137.264C80.1997 137.254 68.5361 132.045 60.357 122.934C50.3237 123.016 40.3684 121.165 31.0352 117.482Z" fill="url(#paint0_linear_1_2611)"/>
<path d="M76.0498 36.1945C94.6572 36.1783 111.914 45.9075 121.532 61.8365C110.383 51.7244 94.7805 48.1334 80.3333 52.3546C90.0682 57.0469 103.327 60.6293 121.59 61.8754C121.59 61.8754 120.695 44.4887 98.4403 35.3962C67.2884 22.7213 62.9855 25.2329 55.1001 12.0322C53.9358 21.2561 56.4697 30.5659 62.1483 37.9273C66.6854 36.7389 71.3598 36.1562 76.0498 36.1945Z" fill="#F15A24"/>
<path d="M98.4404 35.3967C87.7903 31.1523 80.2944 28.5044 74.687 26.4795C76.1359 30.0463 78.1042 33.3792 80.528 36.3702C97.516 37.7725 112.798 47.2457 121.61 61.837C114.945 55.7774 106.55 51.9576 97.6032 50.9143C105.003 55.3292 112.831 58.9822 120.967 61.8175H121.649C121.649 61.8175 120.714 44.4892 98.4404 35.3967Z" fill="#ED1C24"/>
<path d="M121.551 61.8756H121.668C122.019 59.9286 124.102 44.9562 107.163 31.814C81.8909 12.2077 76.965 10.3775 75.7578 0C71.6569 8.27387 71.2676 17.9012 74.687 26.4792C80.2749 28.4262 87.7903 31.0546 98.4209 35.3965C120.714 44.4889 121.59 61.8756 121.59 61.8756H121.551Z" fill="#C1272D"/>
<path d="M198.244 44.7814C207.727 44.7698 216.896 48.1856 224.061 54.3996C232.343 54.7585 240.227 58.0582 246.295 63.7063C246.295 63.7063 225.054 32.8463 187.613 45.6771C184.258 46.8864 181.046 48.4599 178.034 50.3693C184.141 46.7121 191.125 44.7809 198.244 44.7814Z" fill="url(#paint1_linear_1_2611)"/>
<path d="M198.243 44.7815C191.127 44.774 184.142 46.6986 178.034 50.3499L179.124 49.6879C148.868 67.5029 111.777 122.253 60.3569 122.934C68.5535 132.009 80.2148 137.182 92.4435 137.167C96.005 137.083 99.5566 136.758 103.074 136.193C136.524 122.408 168.649 89.4651 183.232 73.4802C196.744 58.6636 211.561 53.6208 224.119 54.3802C216.936 48.16 207.745 44.7503 198.243 44.7815Z" fill="url(#paint2_linear_1_2611)"/>
<path d="M120.13 150.892C119.453 153.102 119.093 155.396 119.059 157.707C119.054 160.382 119.461 163.041 120.266 165.592C119.39 159.135 121.801 152.668 126.691 148.361L126.847 147.777C128.553 142.167 132.269 137.383 137.283 134.343C135.7 134.852 134.146 135.45 132.63 136.134C126.608 139.121 122.085 144.461 120.13 150.892Z" fill="url(#paint3_linear_1_2611)"/>
<path d="M255.524 92.5801C255.536 82.1951 252.288 72.0683 246.237 63.6282C240.171 58.0227 232.312 54.7523 224.061 54.3994C232.737 61.9031 237.713 72.8149 237.69 84.2859C237.69 97.5449 232.881 112.712 217.285 120.87C194.583 132.747 159.751 127.1 137.127 134.499C132.124 137.538 128.416 142.314 126.711 147.914L126.555 148.498C133.175 142.657 146.239 138.51 171.725 141.8C189.93 144.137 204.376 144.779 216.798 141.216C228.807 138.596 239.359 131.484 246.295 121.337C252.287 112.944 255.513 102.892 255.524 92.5801Z" fill="url(#paint4_linear_1_2611)"/>
<path opacity="0.49" d="M255.524 92.5801C255.536 82.1951 252.288 72.0683 246.237 63.6282C240.171 58.0227 232.312 54.7523 224.061 54.3994C232.737 61.9031 237.713 72.8149 237.69 84.2859C237.69 97.5449 232.881 112.712 217.285 120.87C194.583 132.747 159.751 127.1 137.127 134.499C132.124 137.538 128.416 142.314 126.711 147.914L126.555 148.498C133.175 142.657 146.239 138.51 171.725 141.8C189.93 144.137 204.376 144.779 216.798 141.216C228.807 138.596 239.359 131.484 246.295 121.337C252.287 112.944 255.513 102.892 255.524 92.5801Z" fill="url(#paint5_linear_1_2611)"/>
<path d="M142.735 177.663C130.305 173.855 123.196 160.813 126.73 148.303C121.84 152.609 119.429 159.077 120.305 165.534C122.809 173.372 129.085 179.426 137.007 181.649C144.929 183.872 153.438 181.965 159.654 176.573C154.339 179 148.317 179.388 142.735 177.663Z" fill="url(#paint6_linear_1_2611)"/>
<g style="mix-blend-mode:screen">
<path d="M151.029 175.931C153.501 168.708 161.523 157.571 170.109 162.672C170.109 162.672 177.099 166.566 178.559 155.526C178.559 155.526 183.797 181.577 158.564 180.701C158.564 180.701 164.249 176.554 164.191 172.29C160.157 174.537 155.644 175.786 151.029 175.931Z" fill="#2DB5F9"/>
</g>
<g style="mix-blend-mode:screen">
<path d="M161.114 159.985C163.927 158.086 167.558 157.891 170.557 159.479C174.12 161.056 178.598 154.884 174.724 149.354C174.724 149.354 174.977 155.059 170.382 155.001C166.613 154.84 163.058 156.752 161.114 159.985Z" fill="#5FD2FF"/>
</g>
<path d="M186.464 77.1013C180.428 85.3371 171.55 92.2295 170.518 93.9234C169.486 95.6173 172.27 101.069 176.359 101.458C180.448 101.848 177.313 99.8812 176.963 97.9537C176.612 96.0262 178.189 99.1803 183.135 98.4404C188.08 97.7006 181.344 95.8704 181.811 93.3782C182.278 90.8861 187.36 86.1549 189.385 81.4042C191.409 76.6535 194.875 81.4042 193.103 85.123C192.402 86.6027 198.73 80.9759 195.537 76.6925C192.344 72.4091 189.988 72.2922 186.464 77.1013Z" fill="#219058"/>
<path d="M169.233 95.1113C168.337 95.968 165.729 97.8761 165.729 97.8761C165.729 97.8761 168.299 101.439 171.57 101.381C171.57 101.381 172.27 101.05 171.258 99.9983C170.13 98.596 169.428 96.9002 169.233 95.1113Z" fill="#219058"/>
<path d="M80.3332 52.3544C73.2164 49.1128 66.9854 44.2041 62.1677 38.0439C45.9324 42.4385 32.738 54.2632 26.5974 69.9218C20.4567 85.5804 22.0957 103.222 31.0157 117.482C40.3551 121.167 50.3172 123.018 60.357 122.933C50.3599 111.878 46.7543 96.4571 50.8135 82.1156C54.8726 67.7741 66.0253 56.5302 80.3332 52.3544Z" fill="url(#paint7_linear_1_2611)"/>
<path d="M80.4307 36.3701C82.7865 39.7774 89.5621 45.6573 97.5448 50.9142C106.485 51.9614 114.873 55.7809 121.532 61.8369C112.716 47.2403 97.4257 37.7663 80.4307 36.3701Z" fill="#F7B852"/>
<path d="M80.4306 36.3696C78.9898 36.2527 77.5296 36.1943 76.0693 36.1943C71.3697 36.2259 66.6951 36.8806 62.1677 38.1413C66.9854 44.3015 73.2164 49.2102 80.3332 52.4518C85.9149 50.817 91.7705 50.3335 97.5447 51.0305C89.562 45.6568 82.7864 39.7768 80.4306 36.3696Z" fill="#FF8431"/>
<path d="M109.908 48.4605C105.82 44.6236 100.952 41.7147 95.6367 39.9326C99.0634 46.4551 102.023 48.4605 109.908 48.4605Z" fill="#FFFB69"/>
<path d="M94.8772 20.7163C97.5382 22.3378 100.094 24.1262 102.529 26.0706C103.132 26.5378 101.439 21.9235 99.4721 21.0473C97.9974 20.5291 96.4109 20.4148 94.8772 20.7163Z" fill="#C1272D"/>
<path d="M104.32 27.3946C106.952 29.0609 109.487 30.8745 111.914 32.8267C112.537 33.2745 110.862 28.6602 108.896 27.7645C107.431 27.2368 105.851 27.1091 104.32 27.3946Z" fill="#C1272D"/>
<path d="M113.198 33.9365C114.808 35.4432 116.192 37.1744 117.307 39.0766C117.618 39.5244 117.307 36.0588 116.236 35.0658C115.342 34.4256 114.293 34.0357 113.198 33.9365Z" fill="#C1272D"/>
<path d="M72.2725 118.124C72.0389 117.365 75.0178 116.391 75.8161 116.353C77.2693 116.59 78.6756 117.057 79.9827 117.735C78.1478 118.429 76.2172 118.836 74.2585 118.942C73.547 118.81 72.8707 118.532 72.2725 118.124Z" fill="#44C688"/>
<path d="M83.0006 115.574C82.7475 114.99 85.0449 113.958 85.6874 113.86C86.8691 113.93 88.0323 114.186 89.1336 114.62C87.7236 115.327 86.2133 115.813 84.6555 116.06C84.0761 116.015 83.5125 115.849 83.0006 115.574Z" fill="#44C688"/>
<path d="M91.9958 112.283C91.7427 111.816 93.5339 110.784 94.0401 110.628C95.0175 110.578 95.9967 110.683 96.9412 110.94C95.8668 111.645 94.6918 112.183 93.456 112.536C92.9567 112.558 92.4586 112.472 91.9958 112.283Z" fill="#44C688"/>
<path d="M99.1413 109.032C98.8687 108.623 100.446 107.552 100.894 107.377C101.777 107.236 102.677 107.236 103.561 107.377C102.609 108.099 101.552 108.67 100.426 109.071C99.9998 109.146 99.5625 109.133 99.1413 109.032Z" fill="#44C688"/>
<path d="M105.8 105.391C105.547 105.06 106.851 104.048 107.241 103.873C108.008 103.751 108.79 103.751 109.558 103.873C108.77 104.549 107.884 105.101 106.929 105.508C106.549 105.548 106.164 105.508 105.8 105.391Z" fill="#44C688"/>
<path d="M61.5057 118.982C61.3889 118.125 64.6988 117.619 65.5555 117.716C67.0508 118.218 68.4571 118.954 69.722 119.897C67.667 120.32 65.5591 120.425 63.4722 120.208C62.7382 119.941 62.0683 119.523 61.5057 118.982Z" fill="#44C688"/>
<path d="M63.5501 18.5746C65.8047 20.5725 68.4599 22.0661 71.3381 22.9554C70.3796 20.1065 70.0086 17.0928 70.2477 14.0965C70.2477 13.8824 63.5306 13.9797 62.4597 8.46972C62.1677 7.35993 61.2137 15.9267 63.5501 18.5746Z" fill="#C1272D"/>
<path d="M40.6922 145.869C40.8835 144.052 41.8393 142.402 43.3207 141.332L43.5348 141.216C42.9821 141.089 42.4232 140.992 41.8604 140.924C33.8583 139.736 31.8139 144.506 31.405 149.86C31.405 150.172 31.405 150.483 31.405 150.775C33.2681 147.487 36.866 145.574 40.6338 145.869H40.6922Z" fill="#F15A24"/>
<path d="M50.4467 144.078C42.4835 139.25 38.0054 138.899 36.2336 152.431C36.2336 152.431 44.6057 145.811 48.5776 150.192C52.8805 154.962 58.7215 150.562 55.6647 147.797C54.1167 146.309 52.3587 145.056 50.4467 144.078Z" fill="#F15A24"/>
<path d="M47.1564 145.694C42.6394 148.693 42.6394 155.76 42.6394 155.76C42.6394 155.76 50.8752 151.302 50.2327 148.517C49.9652 146.988 48.703 145.83 47.1564 145.694Z" fill="#F15A24"/>
<path d="M9.735 90.0686C11.2695 89.0787 13.1527 88.7884 14.914 89.2704H15.1477C14.9007 88.7634 14.6278 88.2695 14.3299 87.7907C10.1633 80.8788 5.17902 82.2806 0.73986 85.2985C0.46728 85.4737 0.23364 85.6684 0 85.8631C3.72944 85.2599 7.4711 86.8689 9.59871 89.9908L9.735 90.0686Z" fill="#F15A24"/>
<path d="M18.1849 98.3819C15.2839 86.8946 12.9475 82.4554 1.84961 90.3992C1.84961 90.3992 11.351 87.6734 12.4413 101.186C12.9475 107.572 19.1 108.857 19.0221 104.729C19.0549 102.584 18.7728 100.445 18.1849 98.3819Z" fill="#F15A24"/>
<path d="M14.1353 92.2289C8.85895 90.9828 3.67993 95.8114 3.67993 95.8114C3.67993 95.8114 11.7989 95.5388 12.7724 100.445C13.337 103.191 14.1353 92.2289 14.1353 92.2289Z" fill="#F15A24"/>
<path d="M183.232 73.4995C188.335 67.572 194.47 62.618 201.339 58.8776C208.04 55.4432 215.442 53.5978 222.97 53.4844L225.132 55.4314H224.002C216.321 54.9308 208.643 56.4477 201.729 59.8316C194.791 63.238 188.525 67.8682 183.232 73.4995Z" fill="#29B36E"/>
<path d="M223.788 53.562C228.003 53.9589 232.129 55.0167 236.015 56.6967C239.874 58.3373 243.373 60.7186 246.315 63.7059C243.184 60.9484 239.538 58.8376 235.587 57.4949C232.161 56.4122 228.63 55.6944 225.054 55.3532L222.893 53.4062L223.788 53.562Z" fill="#6FD191"/>
<path d="M127.197 146.785C128.36 145.965 129.577 145.223 130.838 144.565C131.72 144.118 132.623 143.715 133.545 143.358C134.46 142.969 135.492 142.677 136.329 142.365C140.073 141.218 143.932 140.487 147.836 140.184C155.583 139.683 163.36 139.99 171.044 141.099C178.666 142.222 186.341 142.957 194.038 143.3C201.747 143.693 209.471 142.931 216.954 141.041C209.492 143.072 201.768 143.978 194.038 143.728C186.316 143.529 178.609 142.938 170.947 141.956C163.323 141.024 155.624 140.887 147.972 141.547C144.182 141.889 140.44 142.647 136.816 143.806C135.92 144.117 135.024 144.409 134.168 144.799C133.298 145.158 132.447 145.561 131.617 146.006C129.973 146.883 128.431 147.941 127.022 149.16L126.399 149.705C126.596 148.714 126.863 147.738 127.197 146.785Z" fill="#C83AD7"/>
<path d="M81.7739 55.7812C74.3364 57.4167 75.4851 63.3161 75.4851 63.3161C75.4851 63.3161 77.841 60.4735 90.7885 58.9354C87.7061 58.1204 84.6921 57.0658 81.7739 55.7812Z" fill="#C1272D"/>
<path d="M120.266 165.631C120.02 163.994 119.988 162.332 120.169 160.686C120.334 159.008 120.693 157.355 121.24 155.76C121.788 154.156 122.52 152.621 123.42 151.184C124.358 149.771 125.449 148.466 126.672 147.29L127.198 146.804C127.198 146.804 126.458 149.16 126.38 149.744C125.682 150.453 125.031 151.207 124.433 152.002C122.472 154.581 121.139 157.58 120.539 160.764C120.239 162.368 120.147 164.004 120.266 165.631Z" fill="#FBA9FF"/>
<path d="M58.6436 122.933C54.0495 117.47 50.8611 110.967 49.3564 103.989C48.5587 100.347 48.238 96.616 48.4024 92.891L48.5582 90.1068L48.9476 87.3421C49.0821 86.4247 49.264 85.5148 49.4927 84.6163C49.672 83.7073 49.9061 82.8101 50.1937 81.9294C51.2306 78.377 52.7365 74.9788 54.6718 71.8245C55.6246 70.2445 56.6714 68.7231 57.8064 67.2685L59.5977 65.1657C60.1818 64.4648 60.8827 63.8418 61.5447 63.2188C64.1666 60.6454 67.104 58.4145 70.2867 56.5795C73.4709 54.7798 76.856 53.3617 80.3722 52.3545C76.9029 53.4659 73.5765 54.982 70.4619 56.8715C67.3756 58.7784 64.5429 61.0681 62.0314 63.686C61.4278 64.348 60.7659 64.971 60.2012 65.633L58.41 67.7942C57.3398 69.2527 56.358 70.7741 55.47 72.3502C53.6758 75.477 52.3072 78.8296 51.4008 82.3188C51.1459 83.1818 50.9443 84.0596 50.7972 84.9473C50.6207 85.8289 50.4907 86.7193 50.4078 87.6147L50.1158 90.282V92.9689C50.069 96.545 50.4879 100.112 51.3619 103.58C53.1008 110.503 56.5637 116.872 61.4278 122.096L62.2066 122.933C62.2066 122.933 59.2861 122.992 58.6436 122.933Z" fill="#FF737D"/>
<path d="M103.074 136.29C99.2384 137.147 95.3221 137.591 91.3921 137.614C87.4274 137.503 83.4967 136.848 79.7101 135.667C75.9206 134.542 72.2647 133.008 68.8069 131.092C65.3011 129.173 62.0991 126.746 59.3055 123.888L58.4878 123.031H61.9535C64.262 125.499 66.8797 127.659 69.7414 129.456C73.0626 131.467 76.595 133.106 80.2747 134.343C83.8914 135.662 87.6709 136.48 91.5089 136.777C95.3704 137.016 99.2463 136.853 103.074 136.29Z" fill="#FFF4C0"/>
</g>
<defs>
<linearGradient id="paint0_linear_1_2611" x1="3632.98" y1="2494.77" x2="3632.98" y2="479.624" gradientUnits="userSpaceOnUse">
<stop stop-color="#FFFA8F"/>
<stop offset="1" stop-color="#FB784B"/>
</linearGradient>
<linearGradient id="paint1_linear_1_2611" x1="4097.34" y1="1071.29" x2="4177.8" y2="382.453" gradientUnits="userSpaceOnUse">
<stop stop-color="#5BCB99"/>
<stop offset="1" stop-color="#85A8E8"/>
</linearGradient>
<linearGradient id="paint2_linear_1_2611" x1="1674.42" y1="8237.78" x2="13367.3" y2="-10825.5" gradientUnits="userSpaceOnUse">
<stop stop-color="#34E28B"/>
<stop offset="1"/>
</linearGradient>
<linearGradient id="paint3_linear_1_2611" x1="119.064" y1="1699.73" x2="1941.46" y2="1699.73" gradientUnits="userSpaceOnUse">
<stop stop-color="#C297FF"/>
<stop offset="1" stop-color="#AE31BB"/>
</linearGradient>
<linearGradient id="paint4_linear_1_2611" x1="-8048.89" y1="18393.2" x2="7639.89" y2="-4592.44" gradientUnits="userSpaceOnUse">
<stop/>
<stop offset="1" stop-color="#D23DE2"/>
</linearGradient>
<linearGradient id="paint5_linear_1_2611" x1="8993.19" y1="-1115.75" x2="8486.14" y2="2099.66" gradientUnits="userSpaceOnUse">
<stop/>
<stop offset="1" stop-opacity="0"/>
</linearGradient>
<linearGradient id="paint6_linear_1_2611" x1="1101.62" y1="1770.15" x2="7499.71" y2="3833.18" gradientUnits="userSpaceOnUse">
<stop stop-color="#2DB5F9"/>
<stop offset="1"/>
</linearGradient>
<linearGradient id="paint7_linear_1_2611" x1="5603.51" y1="-3811.17" x2="-1869.49" y2="5575.45" gradientUnits="userSpaceOnUse">
<stop/>
<stop offset="0.21" stop-color="#48080A"/>
<stop offset="0.42" stop-color="#891014"/>
<stop offset="0.61" stop-color="#BC151B"/>
<stop offset="0.78" stop-color="#E01A21"/>
<stop offset="0.91" stop-color="#F71C24"/>
<stop offset="1" stop-color="#FF1D25"/>
</linearGradient>
<clipPath id="clip0_1_2611">
<rect width="256" height="183" fill="white"/>
</clipPath>
</defs>
</svg>
