<svg width="512" height="147" viewBox="0 0 512 147" fill="none" xmlns="http://www.w3.org/2000/svg">
<g clip-path="url(#clip0_1_2663)">
<path d="M404.492 37.5941L404.523 32.4329H413.676V37.5941V117.99C413.676 128.095 409.341 133.443 401.202 133.443C400.414 133.435 399.63 133.341 398.863 133.162V128.141C399.505 128.308 400.165 128.397 400.828 128.406C405.428 128.406 408.281 126.488 408.281 116.946V37.5941H404.492ZM253.258 32.4485C277.972 32.4485 292.754 46.5288 292.754 70.6664C292.754 94.804 278.362 108.65 253.273 108.65H228.013V103.536H232.052V37.5629H227.982V32.4485H253.258ZM253.383 103.536C282.962 103.536 287.375 83.0626 287.375 70.682C287.375 58.3013 283.009 37.5629 253.383 37.5629H237.416V103.536H253.383ZM348.623 30.6865C370.78 30.6865 386.857 47.4331 386.857 70.5416C386.857 93.6501 370.78 110.397 348.623 110.397C326.466 110.397 310.39 93.6345 310.39 70.5416C310.39 47.4487 326.466 30.6865 348.623 30.6865ZM348.623 105.282C367.989 105.282 381.493 91.0617 381.493 70.604C381.493 50.1463 367.958 35.8633 348.623 35.8633C329.288 35.8633 315.754 50.0839 315.754 70.5416C315.754 90.9993 329.273 105.282 348.623 105.282ZM473.287 30.6865C495.445 30.6865 511.505 47.4487 511.505 70.5416C511.505 93.6345 495.429 110.397 473.272 110.397C451.114 110.397 435.038 93.6345 435.038 70.5416C435.038 47.4487 451.146 30.6865 473.287 30.6865ZM473.287 105.282C492.638 105.282 506.157 91.0617 506.157 70.604C506.157 50.1463 492.622 35.8633 473.287 35.8633C453.952 35.8633 440.418 50.0839 440.418 70.5416C440.418 90.9993 453.937 105.282 473.287 105.282Z" fill="black"/>
<path d="M24.855 94.0869L25.3384 94.851C27.8343 98.3921 30.7448 101.622 34.0079 104.472C41.598 110.688 51.1103 114.077 60.921 114.061H62.7766C69.5898 113.507 76.2676 111.848 82.5482 109.15C79.7312 109.602 76.8868 109.862 74.0346 109.929C64.229 109.921 54.888 105.75 48.3377 98.4529C40.3024 98.5189 32.3296 97.0365 24.855 94.0869Z" fill="url(#paint0_linear_1_2663)"/>
<path d="M60.9053 28.9873C75.8072 28.9743 89.6276 36.7661 97.33 49.523C88.4016 41.4246 75.9059 38.5487 64.3357 41.9293C72.1321 45.6872 82.7507 48.5563 97.3768 49.5542C97.3768 49.5542 96.6595 35.6299 78.837 28.348C53.8885 18.1971 50.4425 20.2086 44.1275 9.63672C43.195 17.0238 45.2243 24.4796 49.772 30.3751C53.4056 29.4233 57.1492 28.9567 60.9053 28.9873Z" fill="#F15A24"/>
<path d="M78.8371 28.3475C70.3079 24.9483 64.3047 22.8277 59.814 21.2061C60.9743 24.0625 62.5506 26.7318 64.4918 29.1272C78.0968 30.2502 90.3353 37.8369 97.3925 49.5225C92.0552 44.6696 85.3318 41.6105 78.1666 40.775C84.0926 44.3106 90.3617 47.2363 96.878 49.5069H97.4237C97.4237 49.5069 96.6753 35.6294 78.8371 28.3475Z" fill="#ED1C24"/>
<path d="M97.3456 49.5538H97.4392C97.7199 47.9945 99.3883 36.0037 85.8226 25.4786C65.5832 9.77666 61.6382 8.31094 60.6715 0C57.3872 6.62623 57.0754 14.3364 59.8139 21.2062C64.289 22.7654 70.3078 24.8705 78.8214 28.3476C96.6752 35.6295 97.3768 49.5538 97.3768 49.5538H97.3456Z" fill="#C1272D"/>
<path d="M158.766 35.8634C166.361 35.8541 173.704 38.5897 179.442 43.5662C186.075 43.8536 192.388 46.4963 197.249 51.0196C197.249 51.0196 180.237 26.305 150.252 36.5807C147.565 37.5492 144.993 38.8093 142.58 40.3385C147.471 37.4096 153.065 35.8629 158.766 35.8634Z" fill="url(#paint1_linear_1_2663)"/>
<path d="M158.766 35.8635C153.066 35.8575 147.472 37.3988 142.58 40.323L143.454 39.7928C119.222 54.0602 89.5181 97.9071 48.3376 98.4528C54.902 105.721 64.241 109.863 74.0345 109.851C76.8868 109.784 79.7312 109.524 82.5482 109.071C109.337 98.0318 135.065 71.6488 146.744 58.8472C157.565 46.9811 169.431 42.9426 179.488 43.5507C173.736 38.5692 166.375 35.8385 158.766 35.8635Z" fill="url(#paint2_linear_1_2663)"/>
<path d="M96.2073 120.844C95.6654 122.613 95.3766 124.451 95.3497 126.301C95.3453 128.443 95.6714 130.573 96.3164 132.616C95.6143 127.445 97.5457 122.266 101.462 118.817L101.587 118.349C102.953 113.856 105.929 110.025 109.944 107.59C108.676 107.998 107.432 108.477 106.218 109.024C101.395 111.417 97.7732 115.693 96.2073 120.844Z" fill="url(#paint3_linear_1_2663)"/>
<path d="M204.64 74.1438C204.649 65.8269 202.048 57.7167 197.202 50.9574C192.344 46.4682 186.05 43.849 179.442 43.5664C186.39 49.5758 190.375 58.3147 190.357 67.5013C190.357 78.12 186.505 90.2667 174.015 96.8001C155.834 106.312 127.939 101.79 109.82 107.715C105.813 110.149 102.843 113.974 101.478 118.458L101.353 118.926C106.655 114.248 117.117 110.927 137.528 113.562C152.107 115.433 163.677 115.948 173.625 113.095C183.243 110.996 191.694 105.301 197.249 97.1743C202.047 90.4527 204.63 82.4024 204.64 74.1438Z" fill="url(#paint4_linear_1_2663)"/>
<path opacity="0.49" d="M204.64 74.1438C204.649 65.8269 202.048 57.7167 197.202 50.9574C192.344 46.4682 186.05 43.849 179.442 43.5664C186.39 49.5758 190.375 58.3147 190.357 67.5013C190.357 78.12 186.505 90.2667 174.015 96.8001C155.834 106.312 127.939 101.79 109.82 107.715C105.813 110.149 102.843 113.974 101.478 118.458L101.353 118.926C106.655 114.248 117.117 110.927 137.528 113.562C152.107 115.433 163.677 115.948 173.625 113.095C183.243 110.996 191.694 105.301 197.249 97.1743C202.047 90.4527 204.63 82.4024 204.64 74.1438Z" fill="url(#paint5_linear_1_2663)"/>
<path d="M114.311 142.284C104.356 139.234 98.6627 128.79 101.493 118.771C97.577 122.219 95.6457 127.399 96.3478 132.57C98.3533 138.847 103.379 143.696 109.724 145.476C116.068 147.256 122.883 145.729 127.861 141.411C123.604 143.355 118.781 143.666 114.311 142.284Z" fill="url(#paint6_linear_1_2663)"/>
<g style="mix-blend-mode:screen">
<path d="M120.953 140.896C122.933 135.111 129.358 126.192 136.234 130.277C136.234 130.277 141.832 133.396 143.001 124.555C143.001 124.555 147.196 145.418 126.988 144.716C126.988 144.716 131.541 141.395 131.494 137.98C128.264 139.78 124.649 140.78 120.953 140.896Z" fill="#2DB5F9"/>
</g>
<g style="mix-blend-mode:screen">
<path d="M129.03 128.126C131.283 126.605 134.19 126.449 136.593 127.721C139.446 128.984 143.032 124.041 139.929 119.612C139.929 119.612 140.132 124.181 136.452 124.134C133.434 124.005 130.586 125.537 129.03 128.126Z" fill="#5FD2FF"/>
</g>
<path d="M149.332 61.7477C144.498 68.3434 137.388 73.8632 136.561 75.2198C135.735 76.5764 137.965 80.9423 141.239 81.2542C144.514 81.5661 142.003 79.9912 141.723 78.4475C141.442 76.9038 142.705 79.4298 146.665 78.8373C150.626 78.2448 145.231 76.7791 145.605 74.7832C145.979 72.7873 150.049 68.9983 151.671 65.1937C153.292 61.389 156.068 65.1937 154.649 68.1719C154.088 69.3569 159.155 64.8506 156.598 61.4202C154.041 57.9898 152.154 57.8962 149.332 61.7477Z" fill="#219058"/>
<path d="M135.532 76.1709C134.815 76.857 132.726 78.3851 132.726 78.3851C132.726 78.3851 134.784 81.2386 137.403 81.1918C137.403 81.1918 137.965 80.9267 137.154 80.0847C136.251 78.9617 135.688 77.6036 135.532 76.1709Z" fill="#219058"/>
<path d="M64.3358 41.9294C58.6362 39.3333 53.646 35.4022 49.7878 30.4688C36.7855 33.9882 26.2186 43.4581 21.3008 55.9985C16.383 68.5388 17.6956 82.6674 24.8393 94.0872C32.3188 97.0388 40.2971 98.5212 48.3376 98.4532C40.3313 89.5997 37.4438 77.2496 40.6946 65.764C43.9454 54.2785 52.8771 45.2737 64.3358 41.9294Z" fill="url(#paint7_linear_1_2663)"/>
<path d="M64.4138 29.127C66.3005 31.8557 71.7268 36.5647 78.1199 40.7747C85.2795 41.6134 91.9971 44.6723 97.3301 49.5223C90.2698 37.8325 78.0245 30.2451 64.4138 29.127Z" fill="#F7B852"/>
<path d="M64.4136 29.1276C63.2597 29.0341 62.0903 28.9873 60.9208 28.9873C57.1571 29.0126 53.4134 29.5369 49.7876 30.5466C53.6459 35.48 58.636 39.4112 64.3356 42.0073C68.8058 40.6981 73.4953 40.3108 78.1197 40.869C71.7266 36.5654 66.3003 31.8564 64.4136 29.1276Z" fill="#FF8431"/>
<path d="M88.021 38.8101C84.7473 35.7373 80.8486 33.4077 76.5916 31.9805C79.3359 37.204 81.706 38.8101 88.021 38.8101Z" fill="#FFFB69"/>
<path d="M75.9836 16.5908C78.1147 17.8894 80.1615 19.3216 82.1116 20.8788C82.595 21.253 81.2384 17.5575 79.6635 16.8558C78.4825 16.4408 77.212 16.3493 75.9836 16.5908Z" fill="#C1272D"/>
<path d="M83.5461 21.9392C85.6535 23.2737 87.6838 24.7262 89.6273 26.2896C90.1263 26.6483 88.7853 22.9528 87.2104 22.2355C86.037 21.8129 84.7722 21.7106 83.5461 21.9392Z" fill="#C1272D"/>
<path d="M90.6562 27.1777C91.9454 28.3843 93.0535 29.7708 93.9463 31.2942C94.1958 31.6529 93.9463 28.8773 93.0887 28.0821C92.3729 27.5694 91.5332 27.2572 90.6562 27.1777Z" fill="#C1272D"/>
<path d="M57.8803 94.6016C57.6932 93.9934 60.0789 93.2138 60.7182 93.1826C61.882 93.3728 63.0083 93.7465 64.055 94.2897C62.5856 94.8452 61.0394 95.1713 59.4708 95.2565C58.9009 95.1508 58.3593 94.9278 57.8803 94.6016Z" fill="#44C688"/>
<path d="M66.4721 92.5587C66.2694 92.0909 68.1093 91.2645 68.6239 91.1865C69.5702 91.2421 70.5017 91.4473 71.3838 91.7946C70.2546 92.3609 69.045 92.7501 67.7975 92.9485C67.3334 92.912 66.882 92.7792 66.4721 92.5587Z" fill="#44C688"/>
<path d="M73.6758 89.9239C73.4731 89.5497 74.9076 88.7233 75.313 88.5986C76.0958 88.5585 76.8799 88.6427 77.6363 88.848C76.7759 89.4129 75.8349 89.844 74.8452 90.1266C74.4453 90.1442 74.0464 90.075 73.6758 89.9239Z" fill="#44C688"/>
<path d="M79.3985 87.3192C79.1802 86.9917 80.4432 86.1341 80.8018 85.9938C81.5094 85.881 82.2304 85.881 82.938 85.9938C82.1755 86.5717 81.3288 87.0292 80.4276 87.3504C80.086 87.4103 79.7358 87.3997 79.3985 87.3192Z" fill="#44C688"/>
<path d="M84.731 84.4038C84.5283 84.1387 85.573 83.3279 85.8848 83.1875C86.4995 83.0898 87.1257 83.0898 87.7404 83.1875C87.11 83.7295 86.4 84.1712 85.6353 84.4973C85.3307 84.529 85.0227 84.4972 84.731 84.4038Z" fill="#44C688"/>
<path d="M49.2575 95.2877C49.164 94.6016 51.8148 94.1962 52.5008 94.2742C53.6984 94.6764 54.8246 95.2659 55.8377 96.0206C54.1919 96.3596 52.5038 96.4438 50.8324 96.2701C50.2446 96.0563 49.7081 95.7216 49.2575 95.2877Z" fill="#44C688"/>
<path d="M50.8947 14.8757C52.7004 16.4758 54.8268 17.6719 57.1318 18.3841C56.3642 16.1025 56.0672 13.689 56.2586 11.2894C56.2586 11.1179 50.8791 11.1958 50.0215 6.78309C49.7876 5.8943 49.0236 12.7551 50.8947 14.8757Z" fill="#C1272D"/>
<path d="M32.5889 116.821C32.742 115.366 33.5076 114.045 34.6939 113.188L34.8654 113.095C34.4228 112.993 33.9752 112.915 33.5244 112.861C27.1158 111.909 25.4786 115.73 25.1511 120.018C25.1511 120.267 25.1511 120.517 25.1511 120.751C26.6432 118.117 29.5246 116.585 32.5421 116.821H32.5889Z" fill="#F15A24"/>
<path d="M40.4008 115.386C34.0233 111.519 30.437 111.239 29.0181 122.075C29.0181 122.075 35.723 116.774 38.9039 120.282C42.3499 124.103 47.0277 120.579 44.5796 118.364C43.3399 117.173 41.932 116.169 40.4008 115.386Z" fill="#F15A24"/>
<path d="M37.7657 116.681C34.1482 119.082 34.1482 124.742 34.1482 124.742C34.1482 124.742 40.7439 121.171 40.2294 118.942C40.0151 117.717 39.0043 116.789 37.7657 116.681Z" fill="#F15A24"/>
<path d="M7.79638 72.1319C9.02527 71.339 10.5335 71.1066 11.9441 71.4926H12.1312C11.9334 71.0865 11.7148 70.691 11.4763 70.3075C8.13942 64.7721 4.14768 65.8948 0.592525 68.3116C0.374226 68.452 0.187113 68.6079 0 68.7638C2.98676 68.2808 5.98331 69.5693 7.68723 72.0695L7.79638 72.1319Z" fill="#F15A24"/>
<path d="M14.5635 78.7906C12.2402 69.5909 10.3691 66.0358 1.4812 72.3976C1.4812 72.3976 9.09047 70.2146 9.96367 81.036C10.3691 86.1504 15.2964 87.1796 15.234 83.8739C15.2602 82.1558 15.0343 80.4432 14.5635 78.7906Z" fill="#F15A24"/>
<path d="M11.3203 73.8628C7.0947 72.8649 2.94702 76.7319 2.94702 76.7319C2.94702 76.7319 9.4492 76.5136 10.2288 80.4429C10.681 82.6415 11.3203 73.8628 11.3203 73.8628Z" fill="#F15A24"/>
<path d="M146.743 58.8624C150.83 54.1153 155.743 50.1478 161.245 47.1522C166.611 44.4018 172.539 42.9238 178.568 42.833L180.299 44.3923H179.395C173.243 43.9914 167.094 45.2063 161.557 47.9162C156.001 50.6443 150.983 54.3524 146.743 58.8624Z" fill="#29B36E"/>
<path d="M179.223 42.8952C182.599 43.2131 185.903 44.0602 189.015 45.4057C192.105 46.7196 194.908 48.6267 197.264 51.0191C194.756 48.8107 191.836 47.1203 188.672 46.045C185.929 45.1779 183.101 44.603 180.237 44.3298L178.506 42.7705L179.223 42.8952Z" fill="#6FD191"/>
<path d="M101.868 117.554C102.799 116.897 103.773 116.303 104.783 115.776C105.489 115.418 106.213 115.095 106.951 114.809C107.684 114.498 108.51 114.264 109.181 114.014C112.179 113.096 115.269 112.51 118.396 112.268C124.6 111.867 130.829 112.112 136.982 113.001C143.087 113.9 149.233 114.488 155.398 114.763C161.571 115.077 167.757 114.468 173.75 112.954C167.774 114.581 161.588 115.306 155.398 115.106C149.213 114.947 143.041 114.473 136.905 113.687C130.799 112.94 124.633 112.831 118.505 113.359C115.47 113.633 112.473 114.24 109.57 115.168C108.853 115.418 108.136 115.651 107.45 115.963C106.753 116.251 106.071 116.574 105.407 116.93C104.09 117.632 102.856 118.48 101.727 119.456L101.228 119.893C101.386 119.099 101.6 118.317 101.868 117.554Z" fill="#C83AD7"/>
<path d="M65.4896 44.6729C59.5331 45.9826 60.4531 50.7073 60.4531 50.7073C60.4531 50.7073 62.3398 48.4307 72.709 47.1989C70.2404 46.5462 67.8266 45.7016 65.4896 44.6729Z" fill="#C1272D"/>
<path d="M96.3164 132.648C96.1196 131.336 96.0934 130.005 96.2385 128.687C96.3707 127.343 96.6585 126.019 97.0961 124.742C97.5355 123.458 98.1215 122.228 98.8425 121.078C99.5937 119.946 100.467 118.9 101.446 117.959L101.867 117.569C101.867 117.569 101.275 119.456 101.213 119.924C100.653 120.492 100.133 121.096 99.6533 121.733C98.0829 123.798 97.0151 126.2 96.5347 128.749C96.2945 130.034 96.2212 131.344 96.3164 132.648Z" fill="#FBA9FF"/>
<path d="M46.9655 98.4525C43.2862 94.0774 40.7328 88.8688 39.5278 83.2807C38.8889 80.3637 38.6321 77.3761 38.7637 74.3928L38.8885 72.1631L39.2003 69.9489C39.308 69.2142 39.4538 68.4855 39.6369 67.7659C39.7805 67.038 39.9679 66.3194 40.1983 65.6141C41.0287 62.7692 42.2347 60.0476 43.7846 57.5215C44.5477 56.2561 45.386 55.0377 46.295 53.8728L47.7296 52.1888C48.1973 51.6274 48.7587 51.1284 49.2888 50.6295C51.3886 48.5685 53.7411 46.7819 56.29 45.3123C58.8401 43.8711 61.5511 42.7354 64.367 41.9287C61.5886 42.8188 58.9247 44.033 56.4303 45.5462C53.9586 47.0734 51.69 48.9071 49.6787 51.0037C49.1953 51.5339 48.6651 52.0328 48.2129 52.563L46.7784 54.2938C45.9213 55.4618 45.1351 56.6803 44.4239 57.9425C42.9869 60.4467 41.8909 63.1316 41.165 65.926C40.9609 66.6171 40.7994 67.3201 40.6816 68.031C40.5402 68.7371 40.4361 69.4502 40.3698 70.1672L40.1359 72.3034V74.4552C40.0984 77.3192 40.4339 80.1759 41.1338 82.9533C42.5265 88.4973 45.2998 93.5986 49.1953 97.782L49.819 98.4525C49.819 98.4525 47.4801 98.4993 46.9655 98.4525Z" fill="#FF737D"/>
<path d="M82.548 109.149C79.4762 109.835 76.3398 110.19 73.1923 110.209C70.0172 110.12 66.8692 109.595 63.8367 108.65C60.8018 107.749 57.8739 106.52 55.1047 104.986C52.2971 103.449 49.7327 101.505 47.4955 99.2164L46.8406 98.5303H49.6161C51.4649 100.507 53.5613 102.236 55.8532 103.676C58.513 105.286 61.3419 106.598 64.2889 107.59C67.1853 108.645 70.2122 109.301 73.2859 109.539C76.3784 109.73 79.4825 109.599 82.548 109.149Z" fill="#FFF4C0"/>
</g>
<defs>
<linearGradient id="paint0_linear_1_2663" x1="2909.52" y1="1997.96" x2="2909.52" y2="384.112" gradientUnits="userSpaceOnUse">
<stop stop-color="#FFFA8F"/>
<stop offset="1" stop-color="#FB784B"/>
</linearGradient>
<linearGradient id="paint1_linear_1_2663" x1="3281.4" y1="857.952" x2="3345.84" y2="306.291" gradientUnits="userSpaceOnUse">
<stop stop-color="#5BCB99"/>
<stop offset="1" stop-color="#85A8E8"/>
</linearGradient>
<linearGradient id="paint2_linear_1_2663" x1="1340.98" y1="6597.32" x2="10705.4" y2="-8669.69" gradientUnits="userSpaceOnUse">
<stop stop-color="#34E28B"/>
<stop offset="1"/>
</linearGradient>
<linearGradient id="paint3_linear_1_2663" x1="95.3539" y1="1361.25" x2="1554.84" y2="1361.25" gradientUnits="userSpaceOnUse">
<stop stop-color="#C297FF"/>
<stop offset="1" stop-color="#AE31BB"/>
</linearGradient>
<linearGradient id="paint4_linear_1_2663" x1="-6446.05" y1="14730.4" x2="6118.49" y2="-3677.91" gradientUnits="userSpaceOnUse">
<stop/>
<stop offset="1" stop-color="#D23DE2"/>
</linearGradient>
<linearGradient id="paint5_linear_1_2663" x1="7202.3" y1="-893.559" x2="6796.22" y2="1681.54" gradientUnits="userSpaceOnUse">
<stop/>
<stop offset="1" stop-opacity="0"/>
</linearGradient>
<linearGradient id="paint6_linear_1_2663" x1="882.243" y1="1417.65" x2="6006.23" y2="3069.85" gradientUnits="userSpaceOnUse">
<stop stop-color="#2DB5F9"/>
<stop offset="1"/>
</linearGradient>
<linearGradient id="paint7_linear_1_2663" x1="4487.63" y1="-3052.22" x2="-1497.21" y2="4465.16" gradientUnits="userSpaceOnUse">
<stop/>
<stop offset="0.21" stop-color="#48080A"/>
<stop offset="0.42" stop-color="#891014"/>
<stop offset="0.61" stop-color="#BC151B"/>
<stop offset="0.78" stop-color="#E01A21"/>
<stop offset="0.91" stop-color="#F71C24"/>
<stop offset="1" stop-color="#FF1D25"/>
</linearGradient>
<clipPath id="clip0_1_2663">
<rect width="512" height="147" fill="white"/>
</clipPath>
</defs>
</svg>
