<svg width="512" height="239" viewBox="0 0 512 239" fill="none" xmlns="http://www.w3.org/2000/svg">
<g clip-path="url(#clip0_1_2654)">
<path d="M130.873 0H154.879V193.077H130.873V175.257C116.804 189.166 97.6941 197.432 77.4806 197.432C51.0722 197.432 16.2142 181.295 4.21068 141.689C3.05693 138.024 2.01397 133.064 1.81037 130.599C0.434057 113.97 1.06483 112.837 1.81037 107.034C7.90347 59.6176 46.2705 40.2005 77.4806 40.2005C92.4134 40.2005 106 44.3095 117.475 51.2888L114.113 73.3677C104.512 65.2526 92.0292 60.0038 77.4806 60.0038C46.2705 60.0038 21.0159 86.0439 21.0159 118.223C21.0159 147.925 43.8692 177.63 77.4806 177.63C99.6633 177.63 121.846 163.673 130.873 140.795V0Z" fill="#353535"/>
<path d="M237.346 40.6484C205.975 40.6484 165.55 59.4417 161.285 106.058C160.76 111.8 160.253 117.967 161.285 129.12C161.508 131.533 162.538 136.387 163.698 139.974C175.765 178.735 210.801 194.529 237.346 194.529C278.369 194.529 314.567 161.777 314.567 117.008C314.567 75.8237 281.942 40.6484 237.346 40.6484ZM237.346 175.149C203.561 175.149 180.59 146.077 180.59 117.008C180.59 85.5138 205.975 60.0296 237.346 60.0296C272.289 60.0296 295.262 89.1008 295.262 117.008C295.262 152.088 266.305 175.149 237.346 175.149Z" fill="#353535"/>
<path d="M273.92 17.0247C273.92 19.4669 272.603 19.4669 271.386 20.3242H205.552C205.552 19.4669 204.237 19.4669 204.237 17.0247C204.237 15.3749 205.552 15.3749 206.77 14.5176H272.603C272.603 15.3749 273.92 15.3749 273.92 17.0247Z" fill="#8C8C8C"/>
<path d="M328.296 6.37598H347.563V35.3224H328.296V6.37598Z" fill="#353535"/>
<path d="M347.563 183.281C348.908 206.342 319.241 238.081 319.241 238.081L306.669 220.527C322.999 208.947 328.104 190.609 328.489 182.074L328.296 44.9697H347.563V183.281Z" fill="#353535"/>
<path d="M434.778 40.6484C403.408 40.6484 362.983 59.4407 358.717 106.058C358.192 111.799 357.685 117.966 358.717 129.12C358.942 131.533 359.972 136.387 361.132 139.973C373.196 178.735 408.235 194.53 434.778 194.53C475.803 194.53 512 161.777 512 117.007C512 75.8227 479.375 40.6484 434.778 40.6484ZM434.778 175.147C400.995 175.147 378.025 146.078 378.025 117.007C378.025 85.5128 403.408 60.0276 434.778 60.0276C469.722 60.0276 492.695 89.0998 492.695 117.007C492.695 152.088 463.736 175.147 434.778 175.147Z" fill="#353535"/>
<path d="M468.449 17.0247C468.449 19.4669 467.134 19.4669 465.917 20.3242H400.083C400.083 19.4669 398.767 19.4669 398.767 17.0247C398.767 15.3749 400.083 15.3749 401.299 14.5176H467.134C467.134 15.3749 468.449 15.3749 468.449 17.0247Z" fill="#8C8C8C"/>
</g>
<defs>
<clipPath id="clip0_1_2654">
<rect width="512" height="239" fill="white"/>
</clipPath>
</defs>
</svg>
