<svg width="256" height="256" viewBox="0 0 256 256" fill="none" xmlns="http://www.w3.org/2000/svg">
<g clip-path="url(#clip0_1_2707)">
<path d="M256 0H0V256H256V0Z" fill="#512BD4"/>
<path d="M45.6274 163.555C43.8173 163.555 42.2787 162.952 41.0117 161.746C39.7446 160.509 39.111 159.039 39.111 157.338C39.111 155.606 39.7446 154.122 41.0117 152.884C42.2787 151.647 43.8173 151.028 45.6274 151.028C47.4677 151.028 49.0214 151.647 50.2885 152.884C51.5857 154.122 52.2343 155.606 52.2343 157.338C52.2343 159.039 51.5857 160.509 50.2885 161.746C49.0214 162.952 47.4677 163.555 45.6274 163.555ZM117.988 162.535H106.223L75.2247 113.631C74.4404 112.394 73.7914 111.11 73.2789 109.78H73.0072L73.0538 110.086L73.0973 110.436L73.1375 110.829L73.1745 111.265L73.224 112.001L73.2663 112.833L73.3013 113.764L73.329 114.791L73.3496 115.916L73.3592 116.721L73.3693 118.92V162.535H62.9608V96H75.4959L105.453 143.743L106.194 144.912L106.67 145.68L107.078 146.355L107.419 146.938L107.608 147.276L107.768 147.572L107.897 147.827H108.078L108.044 147.618L107.98 147.168L107.921 146.674L107.867 146.137C107.859 146.044 107.851 145.949 107.842 145.852L107.797 145.25L107.757 144.605L107.722 143.916L107.68 142.801L107.65 141.589L107.632 140.279L107.626 138.872V96H117.988V162.535ZM168.673 162.535H132.245V96H167.225V105.373H143.015V124.21H165.325V133.536H143.015V153.209H168.673V162.535ZM220.445 105.373H201.8V162.535H191.03V105.373H172.431V96H220.445V105.373Z" fill="white"/>
</g>
<defs>
<clipPath id="clip0_1_2707">
<rect width="256" height="256" fill="white"/>
</clipPath>
</defs>
</svg>
