<svg width="512" height="138" viewBox="0 0 512 138" fill="none" xmlns="http://www.w3.org/2000/svg">
<g clip-path="url(#clip0_1_2714)">
<path d="M197.894 90.4861H185.008V51.4923H197.894C203.307 51.4923 207.769 53.2994 211.172 56.8834C214.58 60.4975 216.279 65.2088 216.279 71.0086C216.279 76.7739 214.58 81.5196 211.172 85.0993C207.769 88.679 203.307 90.4861 197.894 90.4861ZM197.894 38.7224H172.101V103.26H197.894C206.749 103.26 214.235 100.132 220.173 93.9539C226.11 87.7755 229.139 80.0525 229.139 71.0086C229.139 61.9302 226.115 54.2072 220.173 48.0288C214.235 41.8504 206.749 38.7224 197.894 38.7224ZM259.18 92.2673C255.776 92.2673 252.863 91.1315 250.63 88.8253C248.363 86.5191 247.188 83.5676 247.188 80.0137C247.188 76.4943 248.363 73.5427 250.63 71.2366C252.863 68.9304 255.776 67.7946 259.18 67.7946C262.583 67.7946 265.496 68.9304 267.763 71.2366C270.074 73.5427 271.248 76.4943 271.248 80.0137C271.248 83.5676 270.074 86.5191 267.763 88.8253C265.496 91.1315 262.583 92.2673 259.18 92.2673ZM276.652 62.6143C271.889 57.8859 266.025 55.5023 259.18 55.5023C252.334 55.5023 246.47 57.8859 241.741 62.6143C237.013 67.3428 234.629 73.2028 234.629 80.0137C234.629 86.859 237.013 92.7234 241.741 97.4519C246.47 102.176 252.334 104.56 259.18 104.56C266.025 104.56 271.889 102.176 276.652 97.4519C281.385 92.7191 283.803 86.859 283.803 80.0137C283.803 73.2028 281.381 67.3428 276.652 62.6143ZM333.29 55.9325L316.235 103.26H301.176L283.966 55.9325H297.773L308.59 87.1731L319.484 55.9325H333.29ZM346.456 75.3584C347.175 72.7511 348.461 70.6687 350.354 69.1972C352.359 67.644 354.928 66.848 357.996 66.848C360.564 66.848 362.909 67.6053 364.953 69.0853C366.846 70.4793 368.167 72.5618 368.851 75.3584H346.456ZM357.996 55.5023C350.845 55.5023 344.907 57.8471 340.329 62.5025C335.752 67.1922 333.445 73.0523 333.445 80.0137C333.445 87.0484 335.79 92.9471 340.407 97.6024C345.054 102.215 351.262 104.56 358.903 104.56C367.792 104.56 374.599 101.234 379.138 94.6122L379.401 94.2723L369.229 88.4123L369.04 88.6704C366.803 91.6262 363.438 93.102 359.093 93.102C352.398 93.102 348.311 90.5291 346.684 85.2714H380.993L381.066 84.9272C381.367 83.2277 381.522 81.5626 381.522 80.0137C381.522 73.1297 379.284 67.2654 374.861 62.5756C370.438 57.8859 364.763 55.5023 357.996 55.5023ZM405.745 68.9649V87.612C405.745 89.0835 406.085 90.1462 406.803 90.7873C407.522 91.467 408.619 91.8457 410.056 91.9618C410.701 91.9963 411.416 91.9963 412.173 91.9963C413.231 91.9963 414.406 91.9618 415.692 91.8844H416.071V103.308L415.727 103.346C413.532 103.609 411.454 103.725 409.6 103.725C404.57 103.725 400.788 102.817 398.327 101.001C394.885 98.506 393.186 94.0012 393.186 87.612V68.9649H384.344V57.3653H393.186V47.7061L405.745 43.8855V57.3653H414.462V68.9649H405.745ZM443.59 92.5685C440.036 92.5685 437.084 91.3638 434.813 89.0533C432.511 86.7472 431.336 83.6838 431.336 80.0137C431.336 76.3824 432.511 73.319 434.817 71.0129C437.085 68.6637 440.075 67.4934 443.594 67.4934C447.114 67.4934 450.1 68.6637 452.445 71.0129C454.751 73.3534 455.921 76.3824 455.921 80.0137C455.921 83.6838 454.751 86.7472 452.445 89.0533C450.1 91.3595 447.148 92.5685 443.59 92.5685ZM456.067 55.9325V61.5473C452.513 57.5374 447.488 55.5023 441.396 55.5023C435.23 55.5023 429.822 57.8859 425.433 62.6143C421.01 67.3428 418.777 73.2028 418.777 80.0137C418.777 86.859 421.015 92.7234 425.438 97.4519C429.826 102.18 435.196 104.56 441.4 104.56C447.488 104.56 452.513 102.086 456.067 98.0757V103.26H468.975V55.9325H456.067ZM478.346 47.2802C476.903 45.8998 476.097 43.9843 476.117 41.9881C476.117 39.9745 476.861 38.1846 478.346 36.696C479.834 35.1643 481.581 34.4199 483.59 34.4199C485.673 34.4199 487.458 35.1643 488.943 36.6917C490.431 38.1846 491.176 39.9745 491.176 41.9838C491.176 44.0016 490.431 45.7872 488.943 47.2759C487.532 48.7063 485.6 49.5015 483.59 49.4787C481.616 49.4883 479.723 48.6946 478.346 47.2802ZM477.58 103.26H490.487V55.9325H477.58V103.26ZM499.092 103.26H512V34.4199H499.092V103.26Z" fill="#230078"/>
<path d="M120.471 86.0504L90.3529 103.261V68.8403L60.2353 51.4409L90.3529 34.4202L120.471 51.6303V86.0504ZM60.231 51.6303L30.1133 68.8403V34.4202L0 17.2101L30.1176 0L60.231 17.2101V51.6303ZM60.231 120.471L30.1133 137.681L30.1176 103.261L0 86.0504L30.1133 68.8403L60.231 86.0504V120.471Z" fill="#230078"/>
</g>
<defs>
<clipPath id="clip0_1_2714">
<rect width="512" height="138" fill="white"/>
</clipPath>
</defs>
</svg>
