<svg width="256" height="253" viewBox="0 0 256 253" fill="none" xmlns="http://www.w3.org/2000/svg">
<g clip-path="url(#clip0_1_2718)">
<path d="M252.69 189.793C231.947 201.366 207.867 207.79 182.267 207.266C106.806 205.748 46.8485 144.589 48.3273 70.6996C48.8564 45.6049 56.3591 22.3155 69.0449 2.50293C28.6433 25.0604 1.03127 67.2425 0.0272887 116.072C-1.46632 189.971 58.5402 251.125 134.022 252.648C183.86 253.662 228.04 228.394 252.69 189.793Z" fill="#1F3244"/>
<path d="M180.943 191.375C181.779 191.39 182.62 191.405 183.461 191.405C203.155 191.405 222.581 186.528 239.852 177.349C250.03 159.9 255.955 139.648 255.955 117.961C255.955 52.8253 203.293 0 138.316 0C117.831 0 98.5773 5.27214 81.8112 14.5058C70.9801 31.9346 65.0106 51.9746 64.5754 72.5588C63.2895 136.739 115.487 190.054 180.943 191.375Z" fill="#3E95BE"/>
</g>
<defs>
<clipPath id="clip0_1_2718">
<rect width="256" height="253" fill="white"/>
</clipPath>
</defs>
</svg>
