<svg width="512" height="117" viewBox="0 0 512 117" fill="none" xmlns="http://www.w3.org/2000/svg">
<g clip-path="url(#clip0_1_2729)">
<path d="M310.39 0.517776C312.133 0.807395 312.712 2.55019 311.843 3.70866C311.747 3.8052 311.682 3.90174 311.629 3.99828L311.478 4.2879C311.425 4.38444 311.36 4.48098 311.264 4.57752L282.251 37.3552L281.387 38.2292C280.219 39.6773 281.387 41.4201 283.415 41.7097H295.015C297.047 41.9993 297.916 43.7421 297.047 45.1902L296.178 46.059L275.001 70.138L274.132 71.0069C273.263 72.4601 274.421 74.1978 276.164 74.1978H283.994C285.059 74.1929 286.048 74.7438 286.606 75.6509C286.895 76.5147 286.895 77.3887 286.026 77.9679L285.442 78.5522L236.131 115.679L235.262 116.553C234.677 116.843 234.098 116.843 233.809 116.553C233.503 116.233 233.301 115.827 233.229 115.39C233.229 115.1 233.519 114.521 233.519 114.521L247.151 86.6768L247.441 85.8028C248.315 84.0601 247.441 82.3223 245.409 82.0327H233.814C232.076 81.7431 231.202 80.2899 231.781 79.1314C232.076 78.8418 232.366 78.2575 232.366 78.2575L249.184 50.1239C249.184 50.1239 249.479 49.8292 249.479 49.5395C250.347 47.8018 249.189 46.3487 247.156 46.3487H236.136C234.883 46.4088 233.773 45.5456 233.524 44.3162C233.524 43.7421 233.524 43.1578 234.103 42.5785L239.327 33.5851L256.44 3.70866L256.729 3.12943C257.603 1.67625 259.051 0.807395 261.084 0.807395L308.947 0.517776H310.39ZM183.913 0.517776C210.314 0.517776 224.236 18.5046 224.236 39.9669C224.236 59.6965 212.921 70.4277 203.932 74.777L224.236 115.39H185.656V115.684L170.57 80.5745H157.807V115.674H123.865V0.517776H183.913ZM405.248 0.512695V30.9684H353.904V46.3436H404.089V76.8043H353.904V115.674L319.673 115.684V0.512695H405.248ZM512 0.517776V30.9735H481.544V115.684H447.603V30.9684H417.432V0.517776H512ZM50.4749 0.512695C86.1539 0.512695 112.555 21.1061 112.555 57.9486C112.555 94.7861 86.1539 115.674 50.7696 115.674H0V0.512695H50.4749ZM50.7646 30.9735H34.2309V85.2236H50.4749C67.5878 85.2236 77.7448 72.4601 77.7448 57.9537H77.7397C77.7397 42.2889 69.041 30.9735 50.7646 30.9735ZM178.695 30.9735H158.096V53.8889H178.695C184.492 53.8889 189.721 50.4135 189.721 42.2889C189.721 34.459 184.203 30.9735 178.695 30.9735Z" fill="#111111"/>
</g>
<defs>
<clipPath id="clip0_1_2729">
<rect width="512" height="117" fill="white"/>
</clipPath>
</defs>
</svg>
