<svg width="512" height="683" viewBox="0 0 512 683" fill="none" xmlns="http://www.w3.org/2000/svg">
<g clip-path="url(#clip0_1_2740)">
<path d="M504.395 242.484C504.395 113.98 383.961 9.16895 255.457 9.16895C126.952 9.16895 6.46661 114.316 6.46661 242.82C6.46661 243.157 0 361.056 0 361.056C1.34505 399.028 128.246 433.068 255.922 433.068C384.453 433.068 512 399.028 512 361.056C511.897 361.056 504.395 243.803 504.395 242.484Z" fill="url(#paint0_radial_1_2740)"/>
<path d="M117.356 264.522C116.539 250.385 114.68 236.327 111.795 222.463C109.067 209.156 105.419 196.053 100.879 183.25C98.551 176.99 96.223 170.834 93.5329 164.91C90.8428 158.987 83.9623 141.346 82.9277 138.397C81.893 135.449 80.5738 132.577 79.2288 129.758C76.6332 124.105 73.7496 118.588 70.5894 113.229L70.1496 112.479C65.5495 104.408 66.3552 94.3444 72.1809 87.108C78.0066 79.8716 87.6662 76.9357 96.5334 79.7065L99.12 80.5342L101.422 81.3102L106.052 82.7846C108.975 83.871 111.846 84.9574 114.692 86.0955C120.348 88.4062 125.918 90.8463 131.401 93.4157C142.361 98.5757 153.041 104.309 163.398 110.591C184.281 123.203 203.644 138.174 221.106 155.211C237.489 171.221 251.787 189.224 263.667 208.793C264.601 210.331 262.468 212.131 262.553 209.861C263.277 190.476 261.783 171.064 258.095 152.003C253.972 130.851 246.884 110.387 237.04 91.217C227.098 71.9876 214.632 54.172 199.973 38.2426L199.663 37.9322C193.25 30.9035 191.911 20.617 196.311 12.1809C200.711 3.74475 209.913 -1.04383 219.347 0.193089L221.287 0.451753L222.865 0.684551L225.891 1.20188C227.857 1.53814 229.797 1.90027 231.711 2.31414C235.514 3.09013 239.264 3.96959 242.963 4.90078C250.387 6.78903 257.655 8.96181 264.82 11.3933C307.8 25.9958 347.247 49.4333 380.624 80.1979C402.748 100.686 421.964 124.106 437.737 149.804C439.836 153.235 441.88 156.696 443.868 160.188C443.937 160.31 443.862 160.624 443.843 160.225C443.503 152.956 442.475 145.716 440.764 138.604C438.779 130.711 436.015 123.034 432.512 115.687C428.854 108.075 424.526 100.804 419.579 93.9589C414.39 86.8882 408.702 80.1976 402.559 73.9383C396.219 67.5442 389.535 61.4998 382.538 55.8318C391.125 59.0527 399.475 62.8731 407.525 67.2647C415.818 71.6933 423.726 76.8068 431.167 82.5518C438.856 88.4721 445.935 95.1442 452.3 102.469C458.899 109.998 464.65 118.23 469.45 127.016C479.28 145.27 485.15 165.393 486.677 186.069C487.187 191.23 487.187 196.428 486.677 201.589C486.002 206.741 485.009 211.847 483.702 216.876C482.538 222.049 481.322 226.938 479.796 231.93C479.046 234.517 478.218 236.923 477.21 239.432L475.942 243.156L475.114 245.148L474.054 247.554C470.339 256.126 461.723 261.52 452.389 261.119C443.055 260.717 434.934 254.603 431.969 245.743L431.762 245.071C423.598 220.083 412.547 196.133 398.834 173.705C385.273 151.595 368.745 131.447 349.714 113.824C327.343 93.1424 301.779 76.3037 274.065 63.9286C273.682 63.7575 276.344 68.0666 277.521 70.3428C289.302 93.3107 297.792 117.822 302.741 143.157C307.689 168.305 309.393 193.984 307.81 219.566C307.022 232.288 305.468 244.952 303.154 257.486C301.965 263.772 300.568 270.006 299.016 276.265C298.24 279.395 297.386 282.525 296.429 285.681L294.929 290.44L294.127 293.027L293.118 295.872C289.779 305.289 280.659 311.403 270.679 310.914C260.699 310.425 252.221 303.45 249.818 293.751L249.663 293.104C244.89 273.2 237.276 254.087 227.055 236.354C216.704 218.512 203.963 202.169 189.187 187.776C174.196 173.209 157.585 160.408 139.679 149.623C137.097 148.055 134.493 146.525 131.867 145.035C132.171 145.043 132.742 144.384 132.811 144.934C133.231 148.25 133.526 151.591 133.859 154.874C134.479 162.634 134.816 170.239 134.712 177.844C134.503 192.827 132.945 207.76 130.056 222.463C128.608 229.706 126.875 236.845 124.728 243.855C122.743 250.903 120.28 257.808 117.356 264.522Z" fill="white"/>
<path d="M117.356 264.522C118.468 250.567 118.468 236.547 117.356 222.592C116.3 208.814 114.251 195.129 111.226 181.646C109.691 174.972 107.898 168.385 105.845 161.884C103.776 155.417 101.267 149.132 99.1461 142.743C98.1114 139.535 96.9992 136.354 95.8352 133.198C94.6712 130.042 93.2485 126.964 91.8518 123.938C89.1099 117.807 85.8507 111.936 82.5398 106.116L82.3846 105.857C81.2278 103.83 80.9236 101.426 81.5397 99.1752C82.1559 96.9241 83.6416 95.0102 85.6697 93.855C87.7777 92.6323 90.3022 92.3508 92.6277 93.079C98.6546 94.9156 103.906 96.9073 109.415 99.1059C114.925 101.305 120.15 103.633 125.401 106.09C135.907 111.052 146.147 116.56 156.078 122.593C176.082 134.618 194.631 148.913 211.355 165.195C228.15 181.557 242.631 200.137 254.396 220.419C261.106 232.09 266.832 244.279 271.524 256.86C271.566 256.787 270.972 256.176 271.003 256.291C271.313 254.777 271.614 253.26 271.908 251.744C273.988 240.465 275.387 229.072 276.098 217.626C277.582 194.754 276.121 171.786 271.753 149.287C267.378 126.858 259.863 105.158 249.43 84.8276C238.912 64.4971 225.724 45.6635 210.217 28.8268C207.696 26.0788 207.176 22.0426 208.917 18.7453C210.659 15.4481 214.286 13.6022 217.976 14.1347C222.063 14.652 225.452 15.2987 229.099 16.0488C232.746 16.799 236.238 17.6008 239.756 18.6355C246.792 20.3599 253.689 22.4206 260.449 24.8175C301.547 38.7504 339.269 61.1404 371.183 90.5441C392.369 110.172 410.767 132.608 425.865 157.228C436.37 174.382 445.444 192.356 453.001 210.966C456.249 218.962 451.868 214.623 452.663 210.435C454.189 202.106 455.068 193.725 455.844 185.293C457.21 168.289 455.044 151.186 449.481 135.06C443.643 118.652 434.674 103.533 423.071 90.5441C411.145 77.2419 397.486 65.6014 382.461 55.9349C398.84 63.8335 414.033 73.9853 427.598 86.0951C441.472 98.5841 452.711 113.719 460.655 130.611C468.556 147.951 472.8 166.732 473.123 185.784C473.265 190.551 473.084 195.321 472.58 200.063C472.036 204.796 471.131 209.478 470.148 214.134C469.165 218.79 467.975 223.394 466.579 227.972C465.889 230.249 465.139 232.525 464.328 234.801C463.475 237.129 462.699 239.198 461.509 241.811C460.011 245.1 456.659 247.142 453.05 246.965C449.441 246.789 446.304 244.428 445.135 241.009V240.828C436.645 214.802 425.134 189.86 410.837 166.514C396.552 143.253 379.146 122.061 359.104 103.529C328.996 75.7542 293.396 54.6055 254.603 41.4497C249.68 39.782 244.695 38.2363 239.685 36.8592C238.167 36.4421 234.757 30.0532 240.031 36.9993C249.527 49.5049 257.944 62.8134 265.183 76.7832C276.371 98.5924 284.434 121.868 289.135 145.924C293.773 169.917 295.329 194.403 293.765 218.79C293.009 230.94 291.515 243.034 289.29 255.003C288.178 260.978 286.885 266.953 285.384 272.877C284.608 275.851 283.806 278.8 282.927 281.775C282.048 284.749 281.168 287.569 279.978 290.828C278.629 294.455 275.078 296.784 271.213 296.577C267.348 296.37 264.067 293.674 263.113 289.923V289.716C258.008 268.525 249.889 248.177 239.006 229.292C228.05 210.402 214.56 193.101 198.913 177.869C183.191 162.546 165.764 149.076 146.973 137.724C137.569 132.045 127.873 126.865 117.925 122.205C114.822 120.75 111.698 119.349 108.554 118.002C108.541 118.034 108.577 117.866 108.565 117.897C111.437 124.09 114.05 130.402 116.399 136.819C118.727 143.746 120.458 150.859 121.572 158.081C122.84 165.246 123.745 172.437 124.392 179.628C125.594 193.933 125.594 208.313 124.392 222.618C123.84 229.74 122.978 236.802 121.805 243.803C120.727 250.79 119.242 257.708 117.356 264.522Z" fill="#E911BD"/>
<path d="M291.308 527.661C293.477 526.455 296.092 526.359 298.343 527.402C300.207 528.698 301.202 530.917 300.93 533.171C300.908 535.679 300.231 538.133 298.971 540.292L298.576 540.931L251.629 615.374L294.722 597.526L346.817 575.902C348.99 574.704 351.605 574.617 353.853 575.669C355.712 576.956 356.707 579.166 356.439 581.412C356.418 583.92 355.74 586.374 354.481 588.533L354.086 589.172L307.138 663.641L350.231 645.767C351.851 644.916 353.785 644.916 355.405 645.767C356.885 646.563 357.794 648.122 357.76 649.802C357.712 651.942 356.977 654.01 355.663 655.7C354.493 657.35 352.923 658.67 351.105 659.54L350.49 659.813L298.162 681.489C295.841 682.689 293.152 682.966 290.635 682.265C288.57 681.426 287.328 679.303 287.609 677.091C287.669 674.471 288.43 671.918 289.805 669.696L290.195 669.099L338.488 593.595L296.067 611.158L242.524 633.351C240.195 634.558 237.496 634.835 234.971 634.127C232.905 633.289 231.663 631.165 231.944 628.954C232.005 626.333 232.765 623.781 234.141 621.559L234.531 620.961L282.927 545.457L240.506 563.021C238.887 563.871 236.952 563.871 235.333 563.021C233.921 562.119 233.14 560.496 233.315 558.83C233.355 556.686 234.06 554.607 235.333 552.881C236.468 551.182 238.042 549.829 239.883 548.961L240.506 548.691L291.308 527.661ZM450.567 542.12C458.132 541.92 465.591 543.924 472.036 547.889C477.988 551.669 482.757 557.047 485.797 563.409C488.764 569.581 490.357 576.318 490.475 583.155L490.479 584.438C490.548 586.498 489.746 588.492 488.269 589.93C486.792 591.368 484.777 592.116 482.719 591.991H425.813C426.304 598.952 429.43 605.465 434.556 610.201C439.274 614.373 445.804 616.566 454.191 616.735L455.249 616.745C463.107 616.941 470.889 615.162 477.882 611.572C478.826 611.119 479.862 610.888 480.909 610.899C482.648 610.883 484.326 611.541 485.59 612.736C486.921 613.933 487.658 615.654 487.608 617.443C487.446 620.161 485.764 622.553 483.262 623.626C479.188 625.981 474.846 627.84 470.329 629.161C465.454 630.412 460.443 631.044 455.413 631.043L453.904 631.023C440.281 631.006 429.641 627.109 421.985 619.332C414.328 611.572 410.5 600.648 410.5 586.559C410.416 579.015 411.905 571.536 414.872 564.598C417.677 557.997 422.33 552.348 428.27 548.328C434.891 544.024 442.674 541.857 450.567 542.12ZM98.37 506.063C100.398 506.02 102.348 506.849 103.724 508.339C105.169 509.773 105.963 511.736 105.923 513.771V622.617C105.973 624.631 105.175 626.573 103.724 627.971C102.317 629.404 100.378 630.191 98.37 630.144C96.3363 630.163 94.3765 629.383 92.9122 627.971C91.4372 626.586 90.6193 624.64 90.6618 622.617V618.219C83.3735 626.334 72.9864 630.977 62.0795 630.998C55.1292 631.022 48.2983 629.192 42.2916 625.695C35.9221 622.013 30.6943 616.642 27.1856 610.175C19.5081 595.294 19.5081 577.617 27.1856 562.736C30.6976 556.272 35.9246 550.902 42.2916 547.216C48.2848 543.793 55.074 542.008 61.976 542.043C72.915 542.027 83.3447 546.664 90.6618 554.795V513.771C90.6035 511.692 91.4198 509.684 92.9122 508.235C94.3765 506.824 96.3363 506.044 98.37 506.063ZM174.754 542.119C176.705 542.093 178.58 542.88 179.927 544.293C181.318 545.734 182.072 547.672 182.022 549.673C182.079 551.631 181.287 553.517 179.849 554.847C178.468 556.077 176.704 556.778 174.867 556.839L173.486 556.839C168.294 556.785 163.186 558.154 158.716 560.796C154.245 563.516 150.465 567.234 147.671 571.66V622.617C147.714 624.645 146.885 626.594 145.395 627.971C144.072 629.279 142.316 630.047 140.469 630.136L139.963 630.144C137.921 630.21 135.943 629.423 134.505 627.971C133.072 626.563 132.286 624.625 132.333 622.617V550.682C132.291 548.644 133.074 546.676 134.505 545.224C135.898 543.741 137.852 542.915 139.886 542.948C141.933 542.926 143.898 543.749 145.318 545.224C146.807 546.644 147.633 548.624 147.594 550.682V557.873C155.406 547.371 164.183 542.119 173.926 542.119H174.754ZM209.714 545.132C211.064 546.482 211.842 548.293 211.9 550.189L211.898 622.617C211.94 624.645 211.112 626.594 209.622 627.971C208.178 629.398 206.219 630.182 204.19 630.144C202.173 630.195 200.225 629.408 198.809 627.971C197.357 626.572 196.552 624.633 196.585 622.617V550.682C196.543 548.644 197.327 546.676 198.758 545.224C200.148 543.739 202.103 542.911 204.138 542.948C206.22 542.867 208.241 543.659 209.714 545.132ZM387.098 508.229C388.574 509.706 389.361 511.736 389.264 513.823V622.617C389.306 624.645 388.478 626.594 386.988 627.971C385.544 629.398 383.585 630.182 381.556 630.144C379.522 630.203 377.555 629.416 376.124 627.971C374.691 626.563 373.904 624.625 373.951 622.617V513.771C373.913 511.741 374.697 509.783 376.124 508.339C377.395 506.972 379.146 506.162 380.997 506.07L381.504 506.063C383.59 505.966 385.621 506.752 387.098 508.229ZM44.2058 564.262C39.1877 569.435 36.6528 576.937 36.6528 586.559C36.6528 596.181 39.2394 603.605 44.2058 608.856C49.4445 614.195 56.7015 617.062 64.1746 616.745C69.2071 616.759 74.1711 615.58 78.6598 613.305C83.184 611.008 87.2512 607.905 90.6618 604.148V569.073C87.2573 565.317 83.1885 562.221 78.6598 559.942C74.1753 557.656 69.2084 556.476 64.1746 556.502C56.721 556.152 49.4669 558.971 44.2058 564.262ZM439.341 557.563C435.577 559.363 432.389 562.175 430.133 565.685C427.53 569.805 426.083 574.549 425.942 579.42H475.399C475.246 574.54 473.77 569.793 471.131 565.685C468.815 562.188 465.598 559.382 461.819 557.563C454.731 554.079 446.429 554.079 439.341 557.563ZM204.836 508.52C206.949 508.509 208.978 509.306 210.515 510.736L210.889 511.107C212.557 512.665 213.496 514.851 213.476 517.134V517.806C213.494 519.913 212.696 521.938 211.261 523.462L210.889 523.833C209.316 525.495 207.125 526.431 204.836 526.42H203.853C201.741 526.43 199.712 525.633 198.174 524.203L197.801 523.833C196.132 522.275 195.194 520.089 195.214 517.806V517.134C195.195 515.027 195.994 513.002 197.429 511.477L197.801 511.107C199.374 509.445 201.565 508.508 203.853 508.52H204.836Z" fill="#5E464D"/>
</g>
<defs>
<radialGradient id="paint0_radial_1_2740" cx="0" cy="0" r="1" gradientUnits="userSpaceOnUse" gradientTransform="translate(21190.8 21204.1) scale(23497.1 23497.1)">
<stop stop-color="#5E464D"/>
<stop offset="1" stop-color="#5E464D"/>
</radialGradient>
<clipPath id="clip0_1_2740">
<rect width="512" height="683" fill="white"/>
</clipPath>
</defs>
</svg>
