<svg width="256" height="217" viewBox="0 0 256 217" fill="none" xmlns="http://www.w3.org/2000/svg">
<g clip-path="url(#clip0_1_2735)">
<path d="M252.198 121.242C252.198 56.9894 191.981 4.58398 127.728 4.58398C63.4762 4.58398 3.2333 57.1575 3.2333 121.41C3.2333 121.578 0 180.527 0 180.527C0.672527 199.513 64.1229 216.533 127.961 216.533C192.226 216.533 256 199.513 256 180.527C255.948 180.527 252.198 121.901 252.198 121.242Z" fill="url(#paint0_radial_1_2735)"/>
<path d="M58.6781 132.261C58.2696 125.192 57.3402 118.164 55.8974 111.232C54.5335 104.578 52.7098 98.0265 50.4396 91.6249C49.2756 88.495 48.1116 85.4169 46.7666 82.4552C45.4215 79.4935 41.9813 70.6731 41.464 69.1987C40.9466 67.7243 40.287 66.2887 39.6145 64.879C38.3167 62.0523 36.8749 59.2939 35.2948 56.6147L35.0749 56.2396C32.7749 52.2041 33.1777 47.1722 36.0906 43.554C39.0034 39.9358 43.8332 38.4679 48.2668 39.8532L49.5601 40.2671L50.7112 40.6551L53.0262 41.3923C54.4877 41.9355 55.9233 42.4787 57.3459 43.0477C60.174 44.2031 62.959 45.4231 65.7008 46.7078C71.1805 49.2879 76.5207 52.1544 81.6992 55.2955C92.1407 61.6013 101.822 69.087 110.553 77.6053C118.744 85.6106 125.893 94.6122 131.834 104.396C132.301 105.165 131.234 106.066 131.277 104.931C131.638 95.2379 130.891 85.5318 129.048 76.0016C126.986 65.4256 123.442 55.1936 118.52 45.6085C113.549 35.9938 107.316 27.086 99.9867 19.1213L99.8315 18.9661C96.625 15.4517 95.9556 10.3085 98.1557 6.09043C100.356 1.87237 104.957 -0.521914 109.674 0.0965444L110.644 0.225877L111.433 0.342275L112.946 0.60094C113.929 0.769071 114.899 0.950136 115.856 1.15707C117.757 1.54506 119.632 1.98479 121.482 2.45039C125.194 3.39451 128.828 4.4809 132.41 5.69663C153.9 12.9979 173.624 24.7166 190.312 40.099C201.374 50.343 210.982 62.0528 218.869 74.9022C219.918 76.6173 220.94 78.3482 221.934 80.0941C221.969 80.1552 221.931 80.312 221.922 80.1127C221.751 76.4779 221.238 72.858 220.382 69.3022C219.389 65.3554 218.007 61.517 216.256 57.8433C214.427 54.0374 212.263 50.4018 209.79 46.9794C207.195 43.4441 204.351 40.0988 201.28 36.9691C198.11 33.7721 194.768 30.7499 191.269 27.9159C195.563 29.5263 199.737 31.4365 203.763 33.6324C207.909 35.8466 211.863 38.4034 215.584 41.2759C219.428 44.2361 222.968 47.5721 226.15 51.2345C229.45 54.999 232.325 59.115 234.725 63.5081C239.64 72.6352 242.575 82.6963 243.338 93.0346C243.594 95.615 243.594 98.2142 243.338 100.795C243.001 103.371 242.504 105.923 241.851 108.438C241.269 111.025 240.661 113.469 239.898 115.965C239.523 117.259 239.109 118.461 238.605 119.716L237.971 121.578L237.557 122.574L237.027 123.777C235.169 128.063 230.862 130.76 226.195 130.559C221.528 130.359 217.467 127.301 215.985 122.872L215.881 122.535C211.799 110.042 206.274 98.0664 199.417 86.8525C192.636 75.7975 184.373 65.7237 174.857 56.9121C163.672 46.5712 150.89 38.1519 137.033 31.9643C136.841 31.8787 138.172 34.0333 138.761 35.1714C144.651 46.6553 148.896 58.9112 151.37 71.5784C153.844 84.1527 154.696 96.9922 153.905 109.783C153.511 116.144 152.734 122.476 151.577 128.743C150.982 131.886 150.284 135.003 149.508 138.133C149.12 139.698 148.693 141.263 148.215 142.84L147.465 145.22L147.064 146.513L146.559 147.936C144.89 152.645 140.33 155.701 135.34 155.457C130.35 155.212 126.111 151.725 124.909 146.876L124.831 146.552C122.445 136.6 118.638 127.044 113.528 118.177C108.352 109.256 101.982 101.084 94.5936 93.8882C87.0981 86.6045 78.7925 80.2039 69.8394 74.8117C68.5489 74.0273 67.2467 73.2624 65.9335 72.5174C66.0855 72.5214 66.3709 72.192 66.4058 72.4671C66.6157 74.1251 66.7631 75.7954 66.9295 77.4371C67.2398 81.3171 67.408 85.1195 67.3562 88.9218C67.2517 96.4133 66.4725 103.88 65.0283 111.232C64.304 114.853 63.4375 118.423 62.364 121.927C61.3714 125.452 60.1399 128.904 58.6781 132.261Z" fill="white"/>
<path d="M58.6779 132.261C59.2341 125.284 59.2341 118.274 58.6779 111.297C58.1499 104.407 57.1255 97.5651 55.6127 90.8233C54.8454 87.4866 53.9487 84.1929 52.9226 80.9424C51.888 77.709 50.6334 74.5663 49.5729 71.3718C49.0556 69.7681 48.4995 68.1773 47.9175 66.5994C47.3355 65.0216 46.6241 63.4825 45.9258 61.9693C44.5548 58.9042 42.9252 55.9683 41.2698 53.0583L41.1922 52.929C40.6138 51.9155 40.4617 50.7137 40.7698 49.5881C41.0778 48.4625 41.8207 47.5056 42.8347 46.928C43.8887 46.3166 45.151 46.1759 46.3138 46.54C49.3272 47.4583 51.9526 48.4541 54.7074 49.5534C57.4622 50.6528 60.0747 51.8168 62.7001 53.0454C67.9535 55.5263 73.0735 58.2806 78.0389 61.2968C88.041 67.3095 97.3152 74.4572 105.677 82.5978C114.075 90.779 121.315 100.069 127.198 110.21C130.553 116.045 133.416 122.14 135.762 128.431C135.783 128.394 135.486 128.089 135.501 128.146C135.657 127.389 135.807 126.631 135.954 125.872C136.994 120.233 137.694 114.537 138.049 108.813C138.791 97.3775 138.06 85.8937 135.876 74.6439C133.689 63.4296 129.931 52.5796 124.715 42.4143C119.456 32.249 112.862 22.8322 105.108 14.4139C103.848 13.0399 103.588 11.0218 104.459 9.37316C105.329 7.72453 107.143 6.80159 108.988 7.06784C111.032 7.32651 112.726 7.64984 114.549 8.0249C116.373 8.39997 118.119 8.80089 119.878 9.31822C123.396 10.1804 126.845 11.2108 130.224 12.4093C150.773 19.3757 169.634 30.5707 185.592 45.2726C196.184 55.0864 205.383 66.3045 212.932 78.6144C218.185 87.1915 222.722 96.1784 226.501 105.484C228.124 109.482 225.934 107.312 226.331 105.218C227.094 101.053 227.534 96.8631 227.922 92.6469C228.605 84.145 227.522 75.5937 224.74 67.5306C221.821 59.3263 217.337 51.767 211.536 45.2726C205.572 38.6214 198.743 32.8012 191.23 27.9679C199.42 31.9172 207.016 36.9932 213.799 43.048C220.736 49.2925 226.355 56.86 230.327 65.3061C234.278 73.9759 236.4 83.3666 236.561 92.8926C236.633 95.2758 236.542 97.661 236.29 100.032C236.018 102.399 235.565 104.739 235.074 107.067C234.583 109.395 233.988 111.698 233.289 113.987C232.944 115.125 232.569 116.263 232.164 117.401C231.737 118.565 231.349 119.6 230.754 120.906C230.006 122.55 228.33 123.572 226.525 123.483C224.72 123.395 223.152 122.215 222.568 120.505V120.415C218.322 107.401 212.567 94.9306 205.418 83.2574C198.276 71.6271 189.573 61.031 179.552 51.765C164.498 37.8776 146.698 27.3032 127.302 20.7253C124.84 19.8915 122.348 19.1186 119.842 18.4301C119.084 18.2215 117.378 15.0271 120.015 18.5002C124.763 24.7529 128.972 31.4072 132.591 38.3921C138.185 49.2967 142.217 60.9343 144.567 72.9626C146.886 84.9588 147.664 97.2021 146.882 109.395C146.505 115.471 145.757 121.517 144.645 127.502C144.089 130.489 143.442 133.477 142.692 136.439C142.304 137.926 141.903 139.4 141.463 140.888C141.024 142.375 140.584 143.785 139.989 145.414C139.314 147.228 137.539 148.393 135.606 148.289C133.674 148.185 132.033 146.837 131.557 144.962V144.858C129.004 134.263 124.944 124.089 119.503 114.646C114.025 105.202 107.28 96.551 99.4563 88.9351C91.5956 81.2734 82.882 74.5386 73.4864 68.8627C68.7846 66.0231 63.9365 63.4329 58.9624 61.1028C57.4106 60.3754 55.8487 59.6749 54.2767 59.0014C54.2702 59.0177 54.2882 58.9337 54.2822 58.9489C55.7181 62.0453 57.0251 65.2017 58.1994 68.4101C59.3633 71.8735 60.2287 75.4302 60.786 79.0412C61.4197 82.6237 61.8724 86.2191 62.1957 89.8145C62.7971 96.9669 62.7971 104.157 62.1957 111.31C61.9198 114.87 61.4887 118.401 60.9024 121.902C60.3634 125.395 59.6206 128.854 58.6779 132.261Z" fill="#E911BD"/>
</g>
<defs>
<radialGradient id="paint0_radial_1_2735" cx="0" cy="0" r="1" gradientUnits="userSpaceOnUse" gradientTransform="translate(10595.4 10602.1) scale(11748.5 11748.5)">
<stop stop-color="#5E464D"/>
<stop offset="1" stop-color="#5E464D"/>
</radialGradient>
<clipPath id="clip0_1_2735">
<rect width="256" height="217" fill="white"/>
</clipPath>
</defs>
</svg>
