<svg width="512" height="136" viewBox="0 0 512 136" fill="none" xmlns="http://www.w3.org/2000/svg">
<g clip-path="url(#clip0_1_2750)">
<path d="M178.038 39.9325H204.679C212.647 39.3252 220.531 41.9019 226.603 47.0979C231.997 53.4516 234.622 61.7006 233.891 70.0027C234.563 78.0931 231.934 86.1111 226.603 92.2339C220.622 97.3762 212.853 99.9511 204.985 99.3993H178.038V39.9325ZM202.535 86.1096C205.092 86.1856 207.637 85.7267 210.007 84.7623C212.074 83.8358 213.654 82.0784 214.355 79.9241C215.473 76.7409 215.972 73.3733 215.825 70.0027C215.963 66.5325 215.464 63.0662 214.355 59.7752C213.612 57.5918 212.113 55.7457 210.129 54.5696C207.749 53.4883 205.147 52.9847 202.535 53.0997H195.431V86.1096H202.535ZM250.427 39.9325H281.477C287.344 39.5465 293.109 41.6085 297.4 45.6281C301.133 49.9402 303.005 55.5557 302.606 61.245C302.66 64.9853 301.64 68.6626 299.666 71.84C297.692 74.8746 294.944 77.3271 291.705 78.9442C292.437 79.4735 293.061 80.1389 293.542 80.904C294.157 81.9423 294.69 83.0276 295.134 84.1498L301.993 99.7667H283.62L277.496 85.4359C277.11 84.5058 276.5 83.6855 275.72 83.0475C274.824 82.5477 273.805 82.314 272.781 82.3738H267.881V99.7667H250.611V39.9325H250.427ZM276.884 68.7166C279.109 68.9458 281.329 68.2354 283.008 66.7569C284.511 65.2601 285.273 63.1744 285.09 61.0613C285.09 55.8557 282.702 53.2835 277.619 53.2835H267.514V68.9004H276.761L276.884 68.7166ZM346.578 100.379C338.348 100.967 330.209 98.3563 323.857 93.0913C318.284 86.7493 315.522 78.4181 316.202 70.0027C315.431 61.4467 318.197 52.9483 323.857 46.4855C330.171 41.1466 338.333 38.5068 346.578 39.1364C354.841 38.5103 363.021 41.1488 369.36 46.4855C374.998 52.9581 377.742 61.4554 376.955 70.0027C377.651 78.4094 374.911 86.7396 369.36 93.0913C362.958 98.3961 354.746 101.009 346.456 100.379H346.578ZM346.578 85.6197C350.189 85.9311 353.74 84.5514 356.193 81.8839C358.477 78.2301 359.489 73.9239 359.072 69.6353C359.462 65.3486 358.452 61.0509 356.193 57.3867C350.634 52.4049 342.216 52.4049 336.657 57.3867C334.45 61.072 333.444 65.3527 333.778 69.6353C333.419 73.9198 334.426 78.208 336.657 81.8839C339.175 84.5801 342.775 85.9975 346.456 85.7421L346.578 85.6197ZM393.674 39.9325H408.495L430.909 71.4726V39.9325H448.302V99.3993H433.237L410.944 68.043V99.3993H393.551L393.674 39.9325ZM467.165 39.9325H511.995V53.2835H484.191V63.0211H508.688V76.4945H484.191V86.2321H511.995V99.583H466.859L467.165 39.9325Z" fill="#1E375A"/>
<path d="M27.1356 15.1294L26.462 15.7419L50.0404 39.0141C46.5698 44.6212 44.7645 51.0993 44.8348 57.6932C44.5544 66.6604 48.0192 75.3398 54.3979 81.6488C60.7766 87.9577 69.4935 91.3269 78.4571 90.948C85.1124 91.0466 91.6572 89.2404 97.3199 85.7424L121.021 109.321C108.254 125.999 88.3752 135.689 67.3722 135.472C49.5641 135.734 32.3972 128.831 19.729 116.313C7.06082 103.794 -0.0461611 86.7105 0.00506979 68.9006C-0.284561 47.6197 9.84633 27.5408 27.1356 15.1294ZM40.3028 6.12674C49.3208 2.02997 59.1209 -0.0596064 69.0257 0.00246006C86.7698 -0.178136 103.845 6.76566 116.427 19.2787C129.009 31.7918 136.047 48.8285 135.964 66.5734C136.069 76.5022 133.978 86.3314 129.84 95.3575L108.711 74.2287C112.117 68.706 113.92 62.3445 113.917 55.8559C114.285 46.8202 110.852 38.0433 104.452 31.6546C98.0513 25.266 89.2682 21.8493 80.2331 22.2336C73.74 22.1978 67.3696 24.0027 61.8603 27.4392L40.3028 6.12674ZM80.6006 75.0249C75.2445 75.2117 70.0481 73.1829 66.2354 69.4165C62.4226 65.6501 60.3305 60.479 60.4517 55.121C60.244 49.7107 62.298 44.4581 66.1207 40.6238C69.9433 36.7895 75.1897 34.7196 80.6006 34.9109C85.9854 34.7912 91.1834 36.8862 94.9803 40.7063C98.7773 44.5264 100.841 49.737 100.688 55.121C100.897 60.5099 98.8478 65.7415 95.0345 69.5549C91.2211 73.3682 85.9895 75.4175 80.6006 75.2086V75.0249Z" fill="#00ABE4"/>
</g>
<defs>
<clipPath id="clip0_1_2750">
<rect width="512" height="136" fill="white"/>
</clipPath>
</defs>
</svg>
