<svg width="256" height="256" viewBox="0 0 256 256" fill="none" xmlns="http://www.w3.org/2000/svg">
<g clip-path="url(#clip0_1_2747)">
<path d="M51.0914 28.4863L49.823 29.6394L94.2162 73.4561C87.6818 84.013 84.2827 96.2098 84.4151 108.625C83.8872 125.508 90.4107 141.849 102.42 153.728C114.43 165.606 130.842 171.95 147.719 171.236C160.249 171.422 172.572 168.021 183.233 161.435L227.857 205.829C203.819 237.231 166.392 255.474 126.848 255.065C93.3194 255.56 60.9978 242.562 37.1464 218.992C13.2949 195.423 -0.0860493 163.258 0.0104074 129.726C-0.534905 89.6584 18.5394 51.8543 51.0914 28.4863ZM75.8824 11.5362C92.8614 3.82285 111.313 -0.111364 129.961 0.00549386C163.37 -0.33453 195.519 12.7391 219.208 36.2986C242.898 59.858 256.148 91.9345 255.992 125.344C256.189 144.038 252.252 162.544 244.461 179.538L204.68 139.758C211.093 129.359 214.487 117.382 214.481 105.165C215.174 88.1532 208.711 71.6282 196.661 59.5997C184.61 47.5712 168.074 41.1384 151.063 41.8619C138.837 41.7945 126.843 45.1928 116.47 51.663L75.8824 11.5362ZM151.754 141.257C141.67 141.608 131.886 137.789 124.708 130.697C117.529 123.606 113.59 113.87 113.818 103.782C113.427 93.5953 117.295 83.7058 124.492 76.4867C131.689 69.2675 141.567 65.3704 151.754 65.7305C161.893 65.5053 171.68 69.4496 178.828 76.6421C185.977 83.8345 189.862 93.645 189.575 103.782C189.968 113.928 186.11 123.778 178.93 130.958C171.751 138.137 161.901 141.996 151.754 141.602V141.257Z" fill="#00ABE4"/>
</g>
<defs>
<clipPath id="clip0_1_2747">
<rect width="256" height="256" fill="white"/>
</clipPath>
</defs>
</svg>
