<svg width="256" height="342" viewBox="0 0 256 342" fill="none" xmlns="http://www.w3.org/2000/svg">
<g clip-path="url(#clip0_1_2754)">
<path d="M56.3594 263.855C55.7953 263.855 55.2241 263.782 54.6529 263.631C51.1502 262.692 49.067 259.085 50.0064 255.58C60.8659 215.038 58.7898 106.573 58.766 105.479C58.6918 101.855 61.5757 98.8506 65.2044 98.7806C65.2506 98.7764 65.2954 98.7764 65.3388 98.7764C68.9074 98.7764 71.8347 101.63 71.9075 105.216C71.9999 109.745 74.0396 216.659 62.7041 258.986C61.9173 261.919 59.2602 263.855 56.3594 263.855Z" fill="#0095DD"/>
<path d="M151.077 182.146C137.86 182.146 126.729 176.7 126.011 176.337C122.765 174.716 121.449 170.768 123.072 167.524C124.692 164.288 128.624 162.965 131.879 164.579C132.27 164.772 152.567 174.509 166.205 164.43C169.121 162.266 173.236 162.886 175.394 165.805C177.553 168.723 176.936 172.836 174.018 174.995C166.71 180.398 158.56 182.146 151.077 182.146Z" fill="#7658B1"/>
<path d="M177.112 245.859C171.861 245.859 165.917 245.538 159.23 245.131C155.607 244.908 152.851 241.79 153.072 238.164C153.293 234.543 156.382 231.807 160.033 232.009C173.807 232.854 189.411 233.816 193.17 229.238C195.905 225.901 195.329 216.762 191.451 202.079C181.937 166.055 190.208 153.917 198.71 145.373C199.305 144.781 199.858 144.229 200.332 143.683C206.079 137.124 224.701 126.972 228.373 125.005C231.574 123.289 235.557 124.495 237.269 127.691C238.982 130.892 237.78 134.872 234.582 136.59C226.316 141.018 213.293 148.835 210.224 152.337C209.582 153.074 208.834 153.833 208.031 154.642C203.149 159.549 195.77 166.962 204.157 198.717C209.524 219.052 209.286 230.309 203.329 237.571C197.983 244.092 189.452 245.859 177.112 245.859Z" fill="#FF8A12"/>
<path d="M164.055 341.025C147.816 341.025 131.89 333.779 120.764 320.657C94.5813 289.775 75.4382 290.062 75.2156 290.035C71.5883 290.279 68.5643 287.376 68.3865 283.797C68.2073 280.219 70.8631 277.164 74.4344 276.918C76.9991 276.768 100.331 276.233 130.787 312.156C142.338 325.779 159.712 331.115 176.127 326.072C208.106 316.253 230.748 270.736 238.236 201.194C244.857 139.731 248.775 76.8862 218.383 43.0504C200.312 22.9245 170.859 13.1443 128.342 13.1443C37.0413 13.1443 18.2411 72.6471 14.3968 98.2315C8.60792 136.756 23.4392 176.663 46.1312 183.642C49.6004 184.71 51.5491 188.387 50.4809 191.857C49.4128 195.323 45.7379 197.262 42.2673 196.203C13.3118 187.3 -5.40296 141.542 1.39808 96.2786C10.4601 35.9918 57.9148 0 128.343 0C174.805 0 207.457 11.2109 228.165 34.2698C262.169 72.1319 258.242 138.188 251.305 202.602C240.24 305.304 201.869 331.914 179.985 338.637C174.746 340.244 169.384 341.025 164.055 341.025Z" fill="#DB0012"/>
</g>
<defs>
<clipPath id="clip0_1_2754">
<rect width="256" height="342" fill="white"/>
</clipPath>
</defs>
</svg>
