<svg width="256" height="256" viewBox="0 0 256 256" fill="none" xmlns="http://www.w3.org/2000/svg">
<g clip-path="url(#clip0_1_2779)">
<path d="M128 42.667C80.8712 42.667 42.6667 80.8714 42.6667 128V213.334H64.0001H128C175.129 213.334 213.333 175.129 213.333 128C213.333 80.8714 175.129 42.667 128 42.667ZM128 192H64.0001V128C64.0001 92.6545 92.6543 64.0003 128 64.0003C163.346 64.0003 192 92.6545 192 128C192 163.346 163.349 192 128 192Z" fill="#028BF4"/>
<path d="M128 85.333C104.437 85.333 85.3333 104.437 85.3333 128V170.666H106.667H128C151.563 170.666 170.667 151.562 170.667 128C170.667 104.437 151.563 85.333 128 85.333ZM128 149.333H106.667V128C106.667 116.22 116.22 106.666 128 106.666C139.779 106.666 149.333 116.22 149.333 128C149.333 139.779 139.783 149.333 128 149.333Z" fill="#028BF4"/>
<path d="M128 0H0V256H128C198.692 256 256 198.692 256 128C256 57.3084 198.692 0 128 0ZM128 234.667H21.3333V170.667V128C21.3333 69.0916 69.0916 21.3333 128 21.3333C186.908 21.3333 234.667 69.0916 234.667 128C234.667 186.908 186.912 234.667 128 234.667Z" fill="#028BF4"/>
</g>
<defs>
<clipPath id="clip0_1_2779">
<rect width="256" height="256" fill="white"/>
</clipPath>
</defs>
</svg>
