<svg width="256" height="255" viewBox="0 0 256 255" fill="none" xmlns="http://www.w3.org/2000/svg">
<g clip-path="url(#clip0_1_2790)">
<path d="M128.145 18.8408C188.147 18.8408 236.788 67.4818 236.788 127.484C236.788 187.485 188.147 236.126 128.145 236.126C68.1439 236.126 19.5029 187.485 19.5029 127.484C19.5029 67.4818 68.1439 18.8408 128.145 18.8408Z" fill="#DE5833"/>
<path d="M128.143 254.922C198.526 254.922 255.583 197.865 255.583 127.482C255.583 57.099 198.526 0.0419922 128.143 0.0419922C57.7599 0.0419922 0.702881 57.099 0.702881 127.482C0.702881 197.865 57.7599 254.922 128.143 254.922ZM128.143 244.302C63.6249 244.302 11.3229 192 11.3229 127.482C11.3229 62.964 63.6249 10.662 128.143 10.662C192.661 10.662 244.963 62.964 244.963 127.482C244.963 192 192.661 244.302 128.143 244.302Z" fill="#DE5833"/>
<path d="M75.2188 54.1305C75.1978 52.3035 76.5248 51.2805 78.2878 50.5635C77.4808 50.6955 76.7078 50.8975 76.0118 51.2095C74.1738 52.0425 72.7998 55.1965 72.8128 56.6895C81.7358 55.7875 94.9308 56.4115 104.58 59.2915C105.292 59.1915 106.004 59.0915 106.727 59.0085C97.1028 54.7355 85.6608 53.0855 75.2188 54.1305Z" fill="#D5D7D8"/>
<path d="M77.048 43.1497C77.249 43.1137 77.453 43.0887 77.655 43.0547C75.73 43.2937 74.715 43.9817 73.27 44.2187C74.839 44.3577 80.784 47.1327 84.52 48.6587C85.044 48.4597 85.516 48.2387 85.901 47.9777C83.964 47.6917 79.151 43.3417 77.048 43.1497Z" fill="#D5D7D8"/>
<path d="M86.3259 64.7559C85.7909 64.9619 85.2829 65.1769 84.8429 65.4079C70.2979 73.0709 63.8729 90.9699 67.7019 112.418C71.1969 131.936 85.5219 198.623 92.0809 229.989C93.9959 230.662 95.9339 231.287 97.8959 231.854C92.0549 203.614 76.1119 129.614 72.3919 108.831C68.6209 87.6879 72.2899 72.5169 86.3259 64.7559Z" fill="#D5D7D8"/>
<path d="M145.184 218.618C144.944 218.778 144.658 218.928 144.353 219.074C144.127 219.95 143.782 220.614 143.279 220.948C140.275 222.941 131.79 223.945 127.31 222.941C126.539 222.77 125.955 222.487 125.499 222.098C117.85 226.345 106.85 231.999 104.616 230.725C101.126 228.724 100.62 202.274 101.126 195.783C101.495 190.883 118.707 198.82 127.08 202.983C128.931 201.254 133.466 200.097 137.48 199.704C131.415 184.943 126.942 168.059 129.684 156.086C125.894 153.445 120.871 147.32 121.917 140.927C122.723 136.061 135.297 126.855 144.2 126.299C153.123 125.736 155.904 125.863 163.338 124.083C163.71 123.994 164.119 123.896 164.547 123.793C169.123 107.706 158.148 79.7192 145.906 67.4722C141.915 63.4812 135.779 60.9692 128.865 59.6432C126.206 55.9942 121.917 52.5052 115.845 49.2742C104.57 43.2882 90.6358 40.8512 77.6548 43.0552C77.4528 43.0892 77.2488 43.1142 77.0478 43.1502C79.1508 43.3422 83.9638 47.6922 85.9008 47.9782C85.5158 48.2392 85.0438 48.4602 84.5198 48.6592C82.7018 49.3512 80.2308 49.7712 78.2878 50.5632C76.5248 51.2802 75.1978 52.3032 75.2188 54.1302C85.6608 53.0852 97.1028 54.7352 106.727 59.0082C106.004 59.0912 105.292 59.1912 104.58 59.2912C97.7548 60.2512 91.4818 62.0192 86.9498 64.4102C86.7368 64.5212 86.5348 64.6412 86.3258 64.7562C72.2898 72.5172 68.6208 87.6882 72.3918 108.831C76.1118 129.614 92.1588 204.76 97.9998 233C107.603 235.779 116.582 238 127.08 238C135.992 238 146.711 236.025 155 234C152.089 228.387 148.344 222.18 146.036 217.729C145.728 218.096 145.485 218.417 145.184 218.618ZM151.057 112.057C147.253 112.057 144.15 108.963 144.15 105.137C144.15 101.329 147.253 98.2342 151.057 98.2342C154.882 98.2342 157.973 101.329 157.973 105.137C157.973 108.963 154.882 112.057 151.057 112.057ZM155.218 86.0492C155.218 86.0492 150.861 83.5602 147.48 83.6022C140.532 83.6932 138.64 86.7632 138.64 86.7632C138.64 86.7632 139.806 79.4452 148.691 80.9132C153.508 81.7142 155.218 86.0492 155.218 86.0492ZM81.9628 95.0462C81.9628 95.0462 78.8338 88.0732 87.1728 84.6562C95.5208 81.2382 99.5858 86.6012 99.5858 86.6012C99.5858 86.6012 93.5238 83.8592 87.6298 87.5632C81.7458 91.2632 81.9628 95.0462 81.9628 95.0462ZM89.2528 109.908C89.2528 105.462 92.8478 101.864 97.2998 101.864C101.74 101.864 105.34 105.462 105.34 109.908C105.34 114.355 101.74 117.949 97.2998 117.949C92.8478 117.951 89.2528 114.355 89.2528 109.908Z" fill="white"/>
<path d="M105.34 109.908C105.34 105.462 101.74 101.864 97.2999 101.864C92.8479 101.864 89.2529 105.462 89.2529 109.908C89.2529 114.355 92.8479 117.951 97.2999 117.949C101.74 117.949 105.34 114.355 105.34 109.908ZM100.862 109.317C99.7199 109.32 98.7809 108.381 98.7809 107.227C98.7809 106.07 99.7169 105.139 100.862 105.139C102.016 105.139 102.952 106.07 102.952 107.227C102.952 108.381 102.016 109.317 100.862 109.317Z" fill="#2D4F8E"/>
<path d="M100.862 105.139C99.717 105.139 98.781 106.07 98.781 107.227C98.781 108.381 99.72 109.32 100.862 109.317C102.016 109.317 102.952 108.381 102.952 107.227C102.952 106.07 102.016 105.139 100.862 105.139Z" fill="white"/>
<path d="M151.057 98.2344C147.253 98.2344 144.15 101.329 144.15 105.137C144.15 108.963 147.253 112.057 151.057 112.057C154.882 112.057 157.973 108.963 157.973 105.137C157.973 101.329 154.882 98.2344 151.057 98.2344ZM154.124 104.628C153.149 104.628 152.344 103.835 152.344 102.839C152.344 101.856 153.149 101.049 154.124 101.049C155.141 101.049 155.921 101.856 155.921 102.839C155.921 103.835 155.141 104.628 154.124 104.628Z" fill="#2D4F8E"/>
<path d="M154.124 101.049C153.149 101.049 152.344 101.856 152.344 102.839C152.344 103.835 153.149 104.628 154.124 104.628C155.141 104.628 155.921 103.835 155.921 102.839C155.921 101.856 155.141 101.049 154.124 101.049Z" fill="white"/>
<path d="M99.5858 86.6008C99.5858 86.6008 95.5208 81.2378 87.1728 84.6558C78.8338 88.0728 81.9628 95.0458 81.9628 95.0458C81.9628 95.0458 81.7458 91.2628 87.6298 87.5628C93.5238 83.8588 99.5858 86.6008 99.5858 86.6008Z" fill="url(#paint0_linear_1_2790)"/>
<path d="M148.691 80.9134C139.806 79.4454 138.64 86.7634 138.64 86.7634C138.64 86.7634 140.532 83.6934 147.48 83.6024C150.861 83.5604 155.218 86.0494 155.218 86.0494C155.218 86.0494 153.508 81.7144 148.691 80.9134Z" fill="url(#paint1_linear_1_2790)"/>
<path d="M144.2 126.299C135.297 126.855 122.723 136.061 121.917 140.927C120.871 147.32 125.894 153.445 129.684 156.086C129.694 156.093 129.705 156.102 129.715 156.109C133.504 158.745 158.733 167.256 171.25 167.02C183.781 166.776 204.361 159.102 202.101 152.953C199.851 146.802 179.412 158.38 158.094 156.404C142.306 154.937 139.519 147.864 143.015 142.698C147.412 136.205 155.421 143.93 168.631 139.977C181.861 136.035 200.363 128.979 207.228 125.137C223.101 116.288 200.586 112.618 195.268 115.073C190.227 117.402 172.681 121.83 164.547 123.793C164.119 123.896 163.71 123.994 163.338 124.083C155.904 125.863 153.123 125.736 144.2 126.299Z" fill="#FDD209"/>
<path d="M124.316 206.971C124.316 206.05 125.057 205.235 126.233 204.54C126.266 203.981 126.57 203.461 127.08 202.984C118.707 198.821 101.495 190.884 101.126 195.784C100.62 202.275 101.126 228.725 104.616 230.726C106.85 232 117.85 226.346 125.499 222.099C123.292 220.218 124.316 215.652 124.316 206.971Z" fill="#65BC46"/>
<path d="M145.925 217.686C145.961 217.7 146 217.715 146.036 217.729C152.89 220.374 166.534 225.353 169.497 224.266C173.492 222.739 172.492 190.813 168.008 189.796C164.416 188.999 150.665 198.688 145.255 202.635C146.212 206.676 147.37 214.68 145.925 217.686Z" fill="#65BC46"/>
<path d="M129.214 220.611C124.719 219.615 126.221 215.118 126.221 204.64C126.221 204.606 126.231 204.573 126.233 204.539C125.057 205.234 124.316 206.049 124.316 206.97C124.316 215.651 123.292 220.217 125.499 222.098C125.955 222.487 126.539 222.77 127.31 222.941C131.79 223.945 140.275 222.941 143.279 220.948C143.782 220.614 144.127 219.95 144.353 219.074C140.837 220.758 133.329 221.547 129.214 220.611Z" fill="#43A244"/>
<path d="M127.08 202.983C126.57 203.46 126.266 203.98 126.233 204.539C126.231 204.573 126.221 204.606 126.221 204.64C126.221 215.118 124.719 219.615 129.214 220.611C133.329 221.547 140.837 220.758 144.353 219.074C144.658 218.928 144.944 218.778 145.184 218.618C145.485 218.417 145.728 218.096 145.925 217.686C147.37 214.68 146.212 206.676 145.255 202.635C145.044 201.746 144.844 201.046 144.683 200.636C144.27 199.614 141.089 199.351 137.48 199.704C133.466 200.097 128.931 201.254 127.08 202.983Z" fill="#65BC46"/>
</g>
<defs>
<linearGradient id="paint0_linear_1_2790" x1="1373.54" y1="1236.43" x2="81.3877" y2="1236.43" gradientUnits="userSpaceOnUse">
<stop stop-color="#394A9F"/>
<stop offset="1" stop-color="#6176B9"/>
</linearGradient>
<linearGradient id="paint1_linear_1_2790" x1="1315.75" y1="685.182" x2="138.64" y2="685.182" gradientUnits="userSpaceOnUse">
<stop stop-color="#394A9F"/>
<stop offset="1" stop-color="#6176B9"/>
</linearGradient>
<clipPath id="clip0_1_2790">
<rect width="256" height="255" fill="white"/>
</clipPath>
</defs>
</svg>
