<svg width="256" height="260" viewBox="0 0 256 260" fill="none" xmlns="http://www.w3.org/2000/svg">
<g clip-path="url(#clip0_1_2811)">
<path d="M86.3858 21.6894C83.0567 39.2592 78.988 65.3366 76.7686 91.7838C72.8848 138.39 75.289 169.646 75.289 169.646L9.6334 231.972C9.6334 231.972 4.63987 197.018 2.05064 157.624C0.571072 133.212 0.0162354 111.758 0.0162354 98.8117C0.0162354 98.0719 0.386126 97.3321 0.386126 96.5923C0.386126 95.6676 1.4958 86.9752 10.0033 78.8376C19.2506 69.9602 87.4954 16.5109 86.3858 21.6894Z" fill="#1496FF"/>
<path d="M86.3858 21.69C83.0567 39.2598 78.988 65.3371 76.7686 91.7843C76.7686 91.7843 4.08504 83.0919 0.0162354 100.662C0.0162354 99.737 1.31085 89.0102 9.81835 80.8726C19.0656 71.9952 87.4954 16.5115 86.3858 21.69Z" fill="#1284EA"/>
<path d="M0.0162366 96.4075V100.476C0.756018 97.3323 2.05064 95.1129 4.63987 91.599C10.0033 84.756 18.6957 82.9065 22.2097 82.5366C39.9645 80.1323 66.2267 77.3582 92.6739 76.6184C139.465 75.1388 170.351 79.0227 170.351 79.0227L236.007 16.696C236.007 16.696 201.607 10.223 162.398 5.59932C136.691 2.45525 114.128 0.790736 101.366 0.0509544C100.442 0.0509544 91.3793 -1.05872 82.8718 7.07888C73.6245 15.9563 26.6484 60.5281 7.78395 78.4678C-0.723545 86.6054 0.0162366 95.6678 0.0162366 96.4075Z" fill="#B4DC00"/>
<path d="M233.602 176.119C215.848 178.523 189.585 181.482 163.138 182.407C116.347 183.887 85.2761 180.003 85.2761 180.003L19.6205 242.514C19.6205 242.514 54.3902 249.357 93.5986 253.796C117.642 256.57 138.91 258.05 151.856 258.789C152.781 258.789 154.261 258.05 155.185 258.05C156.11 258.05 165.173 256.385 173.68 248.248C182.927 239.37 238.781 175.564 233.602 176.119Z" fill="#6F2DA8"/>
<path d="M233.602 176.119C215.848 178.523 189.585 181.482 163.138 182.407C163.138 182.407 168.132 255.46 150.562 258.604C151.487 258.604 163.508 258.05 172.016 249.912C181.263 241.035 238.781 175.564 233.602 176.119Z" fill="#591F91"/>
<path d="M154.446 258.974C153.151 258.974 151.856 258.789 150.377 258.789C153.706 258.235 155.925 257.125 159.439 254.536C166.467 249.542 168.686 240.85 169.426 237.336C172.57 219.766 176.824 193.689 178.858 167.241C182.557 120.635 180.338 89.5643 180.338 89.5643L245.994 27.0527C245.994 27.0527 250.802 61.8225 253.576 101.216C255.241 126.923 255.796 149.672 255.981 162.248C255.981 163.173 256.721 172.235 248.213 180.373C238.966 189.25 191.99 234.007 173.31 251.946C164.433 260.084 155.37 258.974 154.446 258.974Z" fill="#73BE28"/>
</g>
<defs>
<clipPath id="clip0_1_2811">
<rect width="256" height="260" fill="white"/>
</clipPath>
</defs>
</svg>
