<svg width="512" height="150" viewBox="0 0 512 150" fill="none" xmlns="http://www.w3.org/2000/svg">
<g clip-path="url(#clip0_1_2829)">
<path d="M153.393 0C191.744 0 222.834 31.0899 222.834 69.4413V79.8057C222.834 118.157 191.744 149.247 153.393 149.247H69.4413C31.0899 149.247 0 118.157 0 79.8057V69.4413C0 31.0899 31.0899 0 69.4413 0H153.393ZM153.393 25.9109H69.4413C45.6405 25.9109 26.3012 45.0123 25.9168 68.7214L25.9109 69.4413V79.8057C25.9109 103.606 45.0123 122.946 68.7214 123.33L69.4413 123.336H153.393C177.193 123.336 196.533 104.235 196.917 80.5255L196.923 79.8057V69.4413C196.923 45.6405 177.822 26.3012 154.113 25.9168L153.393 25.9109Z" fill="#C74634"/>
<path d="M366.001 73.0856C366.001 85.1939 362.72 94.5232 356.157 101.074C349.593 107.624 340.368 110.899 328.479 110.899H305.37V38.3486H330.091C341.556 38.3486 350.408 41.3261 356.645 47.281C362.882 53.2359 366.001 61.8374 366.001 73.0856ZM349.353 74.6943C349.353 66.8088 347.692 60.9633 344.369 57.1579C341.046 53.3524 335.999 51.4497 329.228 51.4497H322.018V99.6455H327.535C335.058 99.6455 340.576 97.5957 344.087 93.496C347.598 89.3963 349.353 83.1291 349.353 74.6943ZM370.444 38.3486L396.329 83.1007V110.899H412.196V83.1007L437.881 38.3486H420.611L404.162 68.3922L388.687 38.3486H370.444ZM450.916 110.899V38.3486H465.449L495.751 84.8233V38.3486H512V110.899H497.707L466.861 65.4934V110.899H450.916Z" fill="black"/>
</g>
<defs>
<clipPath id="clip0_1_2829">
<rect width="512" height="150" fill="white"/>
</clipPath>
</defs>
</svg>
