<svg width="512" height="94" viewBox="0 0 512 94" fill="none" xmlns="http://www.w3.org/2000/svg">
<g clip-path="url(#clip0_1_2833)">
<path d="M355.586 0C362.252 0 369.354 2.28898 376.148 6.36155L377.278 7.05674L425.65 37.8487L480.892 0.931138H508.893L439.989 46.9785L512 92.8181H481.231L423.624 56.164L368.833 92.8181H340.785L409.253 47.0166L366.262 19.6622C363.046 17.6044 359.957 15.8857 356.167 15.6657L355.343 15.6419C348.79 15.6419 343.154 19.8972 342.837 28.5018L342.823 29.2723V68.4972C342.823 85.1669 335.154 93.6994 321.225 93.6994C313.037 93.6994 306.066 90.0537 299.442 82.8884L298.708 82.0778L241.826 18.2392C239.935 16.2305 238.48 15.5922 236.878 15.5922C234.198 15.5922 232.092 17.2813 231.897 20.8746L231.883 21.4279V72.5673C231.883 86.6866 224.6 93.6994 212.469 93.6994C205.768 93.6994 200.009 90.9081 195.824 85.7093L195.287 85.0176L185.346 71.683H139.138V92.821H122.784V21.6709C122.784 7.59844 130.403 0 142.388 0C147.602 0 153.452 1.79069 159.495 9.504L160.1 10.2952L209.219 76.1484C210.235 77.4719 211.351 78.0633 212.469 78.0633C214.054 78.0633 215.344 76.9512 215.508 74.7699L215.526 74.2861V23.3868C215.526 7.74777 225.087 0 236.491 0C244.051 0 250.669 3.76301 255.782 9.19615L256.388 9.85601L313.896 74.4793C316.323 77.1263 318.558 78.157 320.595 78.157C323.797 78.157 326.245 75.8691 326.452 71.893L326.466 71.3404V30.8915C326.466 9.90579 338.211 0 355.586 0ZM141.855 15.6361C140.535 15.6361 139.302 16.542 139.153 18.7977L139.138 19.2669V56.9751H174.38L144.912 17.4515C144.051 16.3193 143.265 15.7655 142.248 15.6564L141.855 15.6361ZM80.318 0.934066C98.3727 0.934066 107.93 10.7374 107.93 24.3209C107.93 32.5879 103.39 39.5936 95.9932 43.9211L95.7637 44.0504L96.0534 44.1695C105.979 48.3924 110.94 55.678 110.94 65.2119C110.94 80.3619 100.168 92.8181 80.8538 92.8181H47.2684V0.934066H80.318ZM76.6315 53.2974H63.6717V77.1761H76.6315C89.1521 77.1761 94.1006 71.5366 94.1006 64.6233C94.1006 57.7101 89.0525 53.2974 76.6315 53.2974ZM77.018 16.5233H63.6717V38.5866H75.5129C85.8989 38.5866 91.8694 33.9778 91.8694 27.1143C91.8694 20.7896 87.404 16.5233 77.018 16.5233ZM34.5517 0.931138V16.5233H16.3564V38.5866H32.7567V53.2974H16.3564V77.1761H34.5517V92.8151H0V0.931138H34.5517Z" fill="#0051FF"/>
</g>
<defs>
<clipPath id="clip0_1_2833">
<rect width="512" height="94" fill="white"/>
</clipPath>
</defs>
</svg>
