<svg width="256" height="240" viewBox="0 0 256 240" fill="none" xmlns="http://www.w3.org/2000/svg">
<g clip-path="url(#clip0_1_2836)">
<path d="M251.481 152.819C246.246 170.642 236.537 186.62 222.33 200.732L221.706 201.357C203.966 218.982 183.308 229.55 159.752 233.105C153.799 234.003 147.671 234.474 141.346 234.474C109.704 234.474 82.646 223.237 60.1437 200.732C46.0288 186.615 36.3877 170.642 31.1921 152.819H251.481ZM255.903 126.171C255.692 130.417 255.254 134.566 254.618 138.635L254.399 139.989H28.2955C27.6185 135.937 27.1389 131.807 26.8806 127.583L26.8027 126.171H255.903ZM254.394 99.5234C255.075 103.577 255.557 107.707 255.818 111.93L255.896 113.341H26.8027C27.0115 109.097 27.4462 104.948 28.0778 100.878L28.2955 99.5234H254.394Z" fill="#2C2255"/>
<path d="M251.486 86.6907C246.255 68.8192 236.544 52.7709 222.33 38.5552C204.499 20.7235 183.691 10.0254 159.935 6.42583C153.926 5.51421 147.737 5.03613 141.346 5.03613C109.704 5.03613 82.6436 16.2123 60.1437 38.5552C46.0241 52.7709 36.3783 68.8192 31.1851 86.6907" fill="#2C2255"/>
<path d="M19.9901 119.76C19.9901 59.2414 65.4423 8.95686 124.571 0.112488C123.104 0.0585875 121.63 0 120.149 0C53.7951 0 0 53.6193 0 119.76C0 185.903 53.7927 239.52 120.149 239.52C121.635 239.52 123.109 239.464 124.581 239.41C65.4423 230.565 19.9901 180.281 19.9901 119.76Z" fill="#F7941E"/>
<path d="M219.312 113.339C218.927 108.603 218.131 103.984 216.94 99.5215H65.7609C64.5704 103.981 63.7713 108.6 63.387 113.339H219.312Z" fill="url(#paint0_linear_1_2836)"/>
<path d="M219.312 126.172H63.3894C63.7737 130.908 64.5682 135.527 65.761 139.989H216.943C218.133 135.527 218.928 130.908 219.312 126.172Z" fill="url(#paint1_linear_1_2836)"/>
<path d="M141.351 198.004C172.746 198.004 199.809 179.507 212.272 152.819H70.4292C82.8919 179.507 109.955 198.004 141.351 198.004Z" fill="url(#paint2_linear_1_2836)"/>
<path d="M254.368 139.986C253.597 144.355 252.587 148.639 251.336 152.819H31.1896C29.9358 148.636 29.0617 144.352 28.293 139.986H254.368ZM255.702 113.338C255.828 115.548 255.91 117.768 255.91 120.006C255.91 122.075 255.849 124.13 255.742 126.171H26.7627C26.6549 124.13 26.594 122.075 26.594 120.006C26.594 117.768 26.676 115.546 26.8026 113.338H255.702ZM250.586 86.6904C251.858 90.8712 252.878 95.1575 253.67 99.5234H28.2954C29.0851 95.1552 29.9077 90.8689 31.1826 86.6904H250.586Z" fill="white"/>
</g>
<defs>
<linearGradient id="paint0_linear_1_2836" x1="7859.58" y1="15152" x2="7859.58" y2="-2104.33" gradientUnits="userSpaceOnUse">
<stop offset="0.3033" stop-color="#473788"/>
<stop offset="0.872" stop-color="#2C2255"/>
</linearGradient>
<linearGradient id="paint1_linear_1_2836" x1="7859.35" y1="12513.9" x2="7859.35" y2="-4742.48" gradientUnits="userSpaceOnUse">
<stop offset="0.3033" stop-color="#473788"/>
<stop offset="0.872" stop-color="#2C2255"/>
</linearGradient>
<linearGradient id="paint2_linear_1_2836" x1="7162.4" y1="9875.28" x2="7162.4" y2="-7380.22" gradientUnits="userSpaceOnUse">
<stop offset="0.3033" stop-color="#473788"/>
<stop offset="0.8631" stop-color="#2C2255"/>
</linearGradient>
<clipPath id="clip0_1_2836">
<rect width="256" height="240" fill="white"/>
</clipPath>
</defs>
</svg>
