<svg width="512" height="212" viewBox="0 0 512 212" fill="none" xmlns="http://www.w3.org/2000/svg">
<g clip-path="url(#clip0_1_2870)">
<path d="M275.344 50.6651C290.025 50.6651 301.483 55.7967 309.731 66.0282H309.763V53.6436H339.097V155.508C339.097 173.294 333.712 187.292 322.935 197.45C312.159 207.607 297.807 211.612 279.402 211.612C270.24 211.579 261.122 210.361 252.273 207.988C247.826 206.785 244.75 205.752 242.816 205.034L242.455 204.899C240.898 204.31 240.195 203.967 240.195 203.967L260.314 182.944C260.314 182.944 264.843 186.107 277.825 186.107C287.374 186.107 295.082 183.679 300.848 178.563C306.615 173.453 309.509 166.179 309.509 156.788V148.985C301.245 158.995 289.871 164.01 275.344 164.01C268.67 164.022 262.07 162.615 255.981 159.883C249.863 157.18 244.318 153.332 239.645 148.546C234.942 143.721 231.196 137.733 228.408 130.549C225.605 123.38 224.219 115.651 224.219 107.404C224.219 99.0766 225.62 91.3422 228.408 84.195C231.196 77.0426 234.942 71.0592 239.645 66.1975C244.305 61.3786 249.852 57.5057 255.981 54.7916C262.071 52.061 268.67 50.6545 275.344 50.6651ZM214.278 0V165.036H185.065V152.768C176.886 162.846 165.803 167.887 151.826 167.887C136.484 167.887 123.671 162.312 113.445 151.16C103.198 140.008 98.0821 126.105 98.0821 109.44C98.0821 92.7812 103.198 78.873 113.445 67.7211C123.671 56.5691 136.468 50.9931 151.826 50.9931C165.412 50.9931 176.304 55.8496 184.483 65.5468V25.6579L214.278 0ZM451.823 50.6651C469.096 50.6651 483.432 56.2253 494.859 67.3455C506.271 78.4657 511.984 92.3897 512 109.118C512 125.846 506.286 139.77 494.859 150.89C483.432 162.01 469.085 167.565 451.823 167.565C434.635 167.565 420.351 162.005 408.956 150.89C397.581 139.77 391.884 125.846 391.884 109.118C391.884 92.3897 397.566 78.4657 408.956 67.3455C420.346 56.2253 434.629 50.6651 451.823 50.6651ZM122.386 4.24282L106.991 33.5934H31.964V69.1177H93.8498L86.3376 98.4524H31.9692V135.357H89.8027L105.949 164.692H0V4.24282H122.386ZM382.24 53.6436V164.687H352.334V79.3015L382.24 53.6436ZM157.317 78.8624C148.747 78.8624 141.838 81.8038 136.569 87.6337C131.3 93.4689 128.665 100.754 128.665 109.461C128.665 118.169 131.284 125.438 136.569 131.289C141.854 137.14 148.768 140.066 157.317 140.066C165.787 140.066 172.696 137.177 177.997 131.411C183.319 125.629 185.97 118.323 185.97 109.461C185.97 100.6 183.303 93.2838 178.003 87.5173C172.696 81.7509 165.803 78.8624 157.317 78.8624ZM451.823 78.5344C443.337 78.5344 436.312 81.3859 430.73 87.1206C425.155 92.85 422.372 100.188 422.372 109.118C422.372 118.048 425.155 125.385 430.73 131.115C436.306 136.844 443.337 139.701 451.823 139.701C460.372 139.701 467.44 136.844 473.016 131.115C478.592 125.385 481.38 118.048 481.38 109.118C481.38 100.188 478.592 92.85 473.016 87.1206C467.44 81.3912 460.377 78.5344 451.823 78.5344ZM282.909 78.1747C274.577 78.1747 267.821 80.9785 262.674 86.5915C257.521 92.1993 254.939 99.1295 254.939 107.388C254.939 115.651 257.505 122.56 262.674 128.142C267.837 133.712 274.577 136.5 282.909 136.5C291.083 136.5 297.77 133.733 302.97 128.189C308.154 122.666 310.752 115.72 310.752 107.404C310.752 98.992 308.17 92.03 303.023 86.4857C297.859 80.9415 291.151 78.1747 282.909 78.1747ZM382.256 16.3999V46.3218H352.339V16.3999H382.256Z" fill="black"/>
</g>
<defs>
<clipPath id="clip0_1_2870">
<rect width="512" height="212" fill="white"/>
</clipPath>
</defs>
</svg>
