<svg width="512" height="94" viewBox="0 0 512 94" fill="none" xmlns="http://www.w3.org/2000/svg">
<g clip-path="url(#clip0_1_2908)">
<path d="M8.32291 21.6875L24.5181 5.57988C28.1359 1.98211 32.944 6.8158e-05 38.062 6.8158e-05C43.1448 -0.0134881 48.0219 1.99566 51.6064 5.57988C59.0739 13.008 59.0739 25.0936 51.6064 32.5212L35.5812 48.4598C34.0697 49.967 32.0166 50.8129 29.8763 50.8101C26.6132 50.8101 23.6715 48.8547 22.4229 45.8563C21.1742 42.8578 21.8645 39.4065 24.1718 37.1116L40.1965 21.1736L40.2557 21.1101C41.2744 19.9702 41.2708 18.262 40.2729 17.1313L40.1371 16.9871C39.0528 15.9087 37.3378 15.8178 36.1474 16.7462L35.9952 16.8731L23.4769 29.3121L20.1671 32.6038C14.8251 38.0038 14.769 46.6376 19.9989 52.1055L20.2492 52.3607C25.6727 57.755 34.4142 57.8381 39.9399 52.6099L40.2265 52.3314L40.4638 52.0951L40.4624 52.0932L55.875 36.7673C59.3855 33.2753 64.0186 31.3056 68.9681 31.1927L69.4189 31.1876C74.5374 31.1876 79.345 33.1695 82.9633 36.7673C86.567 40.3324 88.5871 45.1831 88.5735 50.2384C88.5735 55.1791 86.6961 59.8293 83.2783 63.3886L82.9633 63.7091L59.4454 87.0999C55.8608 90.684 50.9837 92.6929 45.901 92.6791C40.783 92.6791 35.9754 90.6977 32.3571 87.0999C31.7858 86.5305 31.2509 85.9264 30.7556 85.2911L30.3915 84.8088L24.1689 90.9982C21.0038 94.0437 15.9679 94.0022 12.854 90.9048C9.80632 87.8734 9.70185 83.0111 12.5698 79.8545L12.761 79.651L21.2717 71.1862C16.6284 69.7625 12.3743 67.2251 8.8396 63.7086C8.74081 63.6107 8.64542 63.5109 8.55341 63.4091C-2.59519 52.0167 -2.84742 33.9389 7.80864 22.2503C7.96901 22.0565 8.14069 21.8687 8.32291 21.6875ZM71.4921 48.1731C70.4078 47.0947 68.6928 47.0038 67.5024 47.9322L67.3502 48.0591L51.6714 63.6411L43.7669 71.5038C43.0043 72.2622 42.7064 73.3676 42.9855 74.4037C43.2645 75.4398 44.0781 76.2491 45.1198 76.5267C46.0963 76.787 47.1343 76.543 47.8886 75.8866L48.0355 75.7498L71.6123 52.2989C72.6738 51.1068 72.6235 49.2984 71.4921 48.1731Z" fill="#0033CC"/>
<path d="M130.987 57.3332C134.159 57.3332 136.866 56.1016 138.414 54.4087L147.697 59.7187C143.907 64.9501 138.182 67.6434 130.832 67.6434C117.603 67.6434 109.403 58.7949 109.403 47.3302C109.403 35.8655 117.758 27.017 129.984 27.017C141.279 27.017 149.634 35.7114 149.634 47.3302C149.64 48.881 149.485 50.4282 149.17 51.9471H121.704C123.173 55.948 126.732 57.3332 130.987 57.3332ZM138.105 43.3288C136.867 38.8665 133.386 37.2502 129.905 37.2502C125.495 37.2502 122.556 39.405 121.472 43.3288H138.105ZM156.208 10.3965H167.812V66.5665H156.208V10.3965ZM216.009 28.0939V66.5665H204.404V62.9504C201.851 65.8739 198.061 67.6434 192.879 67.6434C182.745 67.6434 174.39 58.7949 174.39 47.3302C174.39 35.8655 182.745 27.017 192.879 27.017C198.061 27.017 201.853 28.787 204.404 31.7105V28.0939H216.009ZM204.404 47.3302C204.404 41.5593 200.537 37.9428 195.198 37.9428C189.86 37.9428 185.993 41.5593 185.993 47.3302C185.993 53.1011 189.86 56.7176 195.198 56.7176C200.442 56.7176 204.268 53.2269 204.401 47.6319L204.404 47.3302ZM254.15 55.0247C254.15 63.8732 246.413 67.6434 238.058 67.6434C230.322 67.6434 224.442 64.7199 221.425 58.4871L231.482 52.7933C232.488 55.7173 234.654 57.3332 238.058 57.3332C240.843 57.3332 242.236 56.4869 242.236 54.9481C242.236 54.1864 241.619 53.634 240.608 53.1627L240.256 53.0084C240.135 52.9579 240.008 52.9082 239.878 52.8591L239.473 52.7137L239.045 52.5711L238.595 52.4303L237.637 52.1498L235.262 51.4855L234.425 51.2412L233.86 51.0688L233.291 50.8877L232.72 50.6968L232.149 50.4949L231.581 50.2812L231.016 50.0544C226.889 48.3409 223.205 45.4929 223.205 39.6357C223.205 31.2486 230.323 27.017 238.368 27.017C244.635 27.017 250.205 29.7869 253.454 35.25L243.553 40.559C242.47 38.5583 240.923 37.1736 238.372 37.1736C236.361 37.1736 235.122 37.9442 235.122 39.3284C235.122 40.2055 235.882 40.7901 237.1 41.2782L237.478 41.4219C237.609 41.469 237.744 41.5153 237.882 41.561L238.31 41.6966L238.76 41.83L239.472 42.0284L242.093 42.7226L242.649 42.8763L243.495 43.1218L244.064 43.297C244.159 43.3271 244.254 43.3576 244.349 43.3885L244.92 43.5802C245.015 43.6131 245.11 43.6466 245.205 43.6806L245.774 43.8913L246.339 44.1161C250.465 45.8199 254.15 48.7613 254.15 55.0247ZM286.874 17.7837C286.874 14.0135 290.046 10.8584 293.837 10.8584C297.628 10.8584 300.8 14.0135 300.8 17.7837C300.8 21.5539 297.628 24.7081 293.837 24.7081C290.046 24.7081 286.874 21.5539 286.874 17.7837ZM288.037 28.0939H299.641V66.5665H288.035L288.037 28.0939ZM306.215 47.3302C306.215 35.8674 314.957 27.017 326.716 27.017C334.222 27.017 340.874 30.9408 344.2 36.8658L334.066 42.7138C332.751 40.0205 329.966 38.4047 326.56 38.4047C321.532 38.4047 317.818 42.0207 317.818 47.3302C317.818 52.6397 321.532 56.2557 326.56 56.2557C329.964 56.2557 332.827 54.6399 334.066 51.9471L344.201 57.718C340.874 63.7196 334.298 67.6434 326.717 67.6434C314.957 67.6434 306.215 58.7968 306.215 47.3302ZM390.851 47.3302C390.851 58.793 382.495 67.6434 372.361 67.6434C367.179 67.6434 363.387 65.8739 360.835 62.9504V81.9555H349.23V28.0939H360.834V31.7105C363.387 28.787 367.177 27.017 372.359 27.017C382.495 27.017 390.851 35.8655 390.851 47.3302ZM379.246 47.3302C379.246 41.5593 375.378 37.9423 370.039 37.9423C364.699 37.9423 360.832 41.5588 360.832 47.3297C360.832 53.1006 364.701 56.7172 370.039 56.7172C375.283 56.7172 379.11 53.2268 379.242 47.6319L379.246 47.3302ZM437.113 28.0939V66.5665H425.509V62.9504C422.956 65.8739 419.165 67.6434 413.984 67.6434C403.849 67.6434 395.494 58.7949 395.494 47.3302C395.494 35.8655 403.849 27.017 413.984 27.017C419.165 27.017 422.957 28.787 425.509 31.7105V28.0939H437.113ZM425.509 47.3302C425.509 41.5593 421.641 37.9428 416.303 37.9428C410.964 37.9428 407.097 41.5593 407.097 47.3302C407.097 53.1011 410.965 56.7176 416.303 56.7176C421.64 56.7176 425.509 53.1011 425.509 47.3302ZM460.322 39.1743V52.7933C460.322 55.3738 462.064 56.1287 465.253 56.19L465.755 56.1941L466.28 56.1882L466.827 56.1731L467.396 56.1499L468.291 56.1016V66.5665L467.839 66.6109L466.955 66.6887C466.519 66.724 466.093 66.7538 465.676 66.7781L464.855 66.8195L464.058 66.8462C454.382 67.0852 450.247 63.9849 449.082 57.4852L448.994 56.9508L448.919 56.4014C448.885 56.123 448.855 55.839 448.829 55.5494L448.785 54.9628C448.772 54.7647 448.761 54.5642 448.751 54.3612L448.73 53.7447L448.719 53.1132C448.718 53.0067 448.718 52.8996 448.718 52.7919V39.1743H442.53V28.0939H448.719V22.1795L460.322 18.6771V28.0939H468.292V39.1743H460.322ZM273.508 39.1743V52.7933C273.508 55.3738 275.25 56.1287 278.439 56.19L278.941 56.1941L279.466 56.1882L280.013 56.1731L280.582 56.1499L281.477 56.1016V66.5665L281.025 66.6109L280.141 66.6887C279.705 66.724 279.279 66.7538 278.862 66.7781L278.041 66.8195L277.244 66.8462C266.784 67.1046 262.799 63.4602 262.042 55.8372L261.992 55.258C261.969 54.9646 261.951 54.6657 261.938 54.3612L261.916 53.7447L261.905 53.1132C261.904 53.0067 261.904 52.8996 261.904 52.7919V39.1743H255.715V28.0939H261.906V22.1795L273.508 18.6771V28.0939H281.477V39.1743H273.508ZM512 42.9445V66.5665H500.398V44.6369C500.398 39.8688 497.382 37.635 493.667 37.635C489.412 37.635 486.472 40.0971 486.472 45.5597V66.5665H474.866V14.2885L486.47 10.7842V31.7105C488.56 28.8636 492.427 27.017 497.534 27.017C505.347 27.017 512 32.5572 512 42.9445Z" fill="#333333"/>
</g>
<defs>
<clipPath id="clip0_1_2908">
<rect width="512" height="94" fill="white"/>
</clipPath>
</defs>
</svg>
