<svg width="256" height="288" viewBox="0 0 256 288" fill="none" xmlns="http://www.w3.org/2000/svg">
<g clip-path="url(#clip0_1_2912)">
<path d="M0 143.821C0 156.261 1.74383 168.261 4.71015 179.776H179.777C199.633 179.776 215.732 163.677 215.732 143.821C215.732 123.955 199.633 107.865 179.777 107.865H4.71015C1.74383 119.371 0 131.38 0 143.821Z" fill="#343741"/>
<path d="M242.013 68.8634C247.038 64.2342 251.712 59.2633 256 53.933C229.636 21.0788 189.213 0 143.819 0C87.0011 0 38.1019 33.0519 14.7759 80.8994H211.335C222.714 80.8994 233.654 76.5758 242.013 68.8634Z" fill="#FEC514"/>
<path d="M211.334 206.742H14.7749C38.1099 254.581 87.0001 287.642 143.819 287.642C189.212 287.642 229.635 266.554 255.999 233.709C251.711 228.369 247.037 223.398 242.012 218.769C233.653 211.048 222.713 206.742 211.334 206.742Z" fill="#00BFB3"/>
</g>
<defs>
<clipPath id="clip0_1_2912">
<rect width="256" height="288" fill="white"/>
</clipPath>
</defs>
</svg>
