<svg width="256" height="214" viewBox="0 0 256 214" fill="none" xmlns="http://www.w3.org/2000/svg">
<g clip-path="url(#clip0_1_2931)">
<path d="M98.3289 4.64128C100.472 4.64128 102.175 5.85395 103.092 7.82396C103.736 9.2047 104.017 10.9585 104.031 13.1611L104.031 13.3271V170.876C104.018 173.796 103.713 176.078 103.044 177.797C102.117 180.182 100.348 181.722 97.9333 181.762H97.8389L79.6533 181.739C77.1951 181.739 75.426 180.165 74.5176 177.738C73.8791 176.032 73.5877 173.764 73.5758 170.853L73.5754 39.1453L68.6789 40.3857L66.7248 40.8756L66.1538 41.0147L65.8644 41.0816L65.7279 41.1099L65.6782 41.1183L65.6524 41.1214L65.6309 41.1219L65.6249 41.1207L65.6216 41.1188L65.6207 41.1161L65.6218 41.1128L65.6245 41.1089L65.6564 41.0791C65.6677 41.0671 65.6731 41.0555 65.6543 41.0485L65.6428 41.0453L65.5865 41.048C63.5232 41.1254 61.8062 40.0216 60.8671 38.1313C60.196 36.7806 59.9085 35.055 59.8952 32.8707L59.8947 32.71V21.2836C59.8947 19.2377 60.2247 17.5197 60.9705 16.119C61.8215 14.5209 63.1839 13.4238 64.8978 12.9787L65.0011 12.9528L65.1197 12.9253L96.5656 4.83173C97.013 4.72051 97.5069 4.66065 98.0435 4.64458L98.191 4.64128H98.3289ZM150.842 0C153.095 0 154.89 1.26267 155.876 3.34433C156.588 4.84874 156.905 6.78578 156.919 9.22228L156.92 9.39308V55.6954L156.92 55.8059H170.446C172.57 55.8059 174.316 56.9014 175.343 58.7698L175.391 58.8593L175.438 58.9501C176.181 60.4027 176.509 62.2574 176.523 64.5726L176.524 64.7349V71.1664C176.524 73.522 176.195 75.4061 175.425 76.8775C174.422 78.795 172.675 79.9275 170.546 79.9619L170.446 79.9627L156.898 79.9625V140.675L156.899 141.158L156.902 141.634L156.907 142.104L156.915 142.567L156.92 142.797L156.934 143.363L156.951 143.918L156.972 144.464L156.997 144.999L157.007 145.211L157.03 145.629L157.056 146.04L157.083 146.445L157.113 146.843L157.128 147.039L157.161 147.428L157.178 147.619L157.196 147.809L157.233 148.185C157.246 148.309 157.259 148.431 157.273 148.553L157.293 148.735L157.336 149.094C157.427 149.84 157.534 150.543 157.654 151.202L157.694 151.42L157.724 151.574L157.782 151.862C157.801 151.957 157.821 152.05 157.841 152.143L157.871 152.281L157.932 152.552L157.995 152.816L158.027 152.946L158.092 153.2C158.176 153.523 158.264 153.829 158.354 154.117L158.432 154.361C158.814 155.517 159.243 156.377 159.697 156.935C160.539 157.972 161.28 158.598 161.85 158.847L162.023 158.918C162.697 159.187 163.63 159.34 164.83 159.35L164.965 159.351H173.407C175.426 159.351 177.172 160.154 178.318 161.733C179.269 163.044 179.687 164.709 179.705 166.703L179.706 166.843V173.982C179.706 176.189 179.278 178.009 178.279 179.425C177.119 181.07 175.343 181.931 173.279 181.96L173.17 181.96L161.053 181.983C157.694 181.983 154.764 181.747 152.213 181.266C149.485 180.751 146.712 179.619 143.862 177.885C140.896 176.079 138.464 173.602 136.571 170.481C134.732 167.449 133.294 163.358 132.21 158.197C131.155 153.172 130.616 147.318 130.597 140.651L130.597 140.299V79.9625L125.005 79.9627C122.898 79.9627 121.155 78.8939 120.122 77.055L120.074 76.9668L120.026 76.8775C119.274 75.4403 118.943 73.6095 118.927 71.3299V71.1664V64.7349C118.927 62.3439 119.253 60.4364 120.013 58.9501C121.009 57.0025 122.758 55.842 124.904 55.8067L125.005 55.8059H130.596L130.597 55.6238L132.744 9.24997L132.756 9.04218C132.908 6.64547 133.297 4.75831 134.006 3.3086C134.99 1.29826 136.677 0.0385817 138.829 0H138.929H150.842ZM250.872 55.7617C252.872 55.7617 254.425 56.9451 255.228 58.7718C255.772 60.0109 256 61.562 256 63.4972C256 63.5682 256 63.6405 255.998 63.714L255.996 63.8254L255.988 64.0542L255.983 64.1717L255.969 64.413L255.961 64.5368L255.942 64.7909C255.925 64.9976 255.904 65.2129 255.88 65.4371L255.862 65.6069L255.828 65.8976L255.79 66.1979L255.749 66.508L255.716 66.7444L234.509 177.158L234.46 177.429L234.354 178.005L234.247 178.574L234.087 179.419L233.979 179.975L233.816 180.799L233.707 181.341L233.598 181.878L233.487 182.41L233.377 182.936L233.266 183.457L233.098 184.227L232.986 184.734L232.873 185.236L232.759 185.732L232.645 186.223L232.531 186.708L232.416 187.187L232.3 187.662L232.184 188.13L232.067 188.594L231.95 189.051L231.832 189.504L231.714 189.951L231.595 190.392L231.476 190.828L231.356 191.259L231.236 191.684L231.115 192.103L230.994 192.517L230.872 192.926L230.749 193.329L230.626 193.727L230.503 194.119L230.379 194.506L230.254 194.887L230.129 195.263L230.066 195.448L229.94 195.816L229.877 195.998L229.814 196.178L229.655 196.623L229.495 197.06L229.431 197.232L229.302 197.572L229.173 197.907C229.115 198.054 229.058 198.2 229 198.345L228.848 198.718L228.691 199.098C228.413 199.758 228.131 200.392 227.844 201.002L227.72 201.261L227.554 201.603L227.387 201.938C225.544 205.602 223.479 208.268 221.106 209.942C218.149 212.046 214.376 213.122 209.815 213.251L209.61 213.256H208.349C201.199 213.256 195.976 211.294 192.967 207.147L192.877 207.02L192.799 206.909L192.759 206.859C191.902 205.771 191.478 204.273 191.311 202.178L191.3 202.038L191.282 201.769L191.273 201.632L191.266 201.494L191.253 201.213L191.247 201.07L191.242 200.925L191.232 200.555L191.225 200.176L191.223 200.021L191.221 199.706L191.221 199.36L191.222 199.169L191.226 198.791L191.229 198.605L191.233 198.421L191.242 198.057L191.247 197.878L191.254 197.701L191.268 197.351L191.285 197.009L191.305 196.673C191.312 196.562 191.32 196.452 191.328 196.344L191.34 196.182L191.367 195.863L191.397 195.552C191.537 194.163 191.763 192.98 192.084 191.987C192.917 189.411 194.575 187.682 197.076 187.641L197.166 187.641L197.264 187.642L197.345 187.646L197.429 187.652L197.516 187.661L197.634 187.676L197.762 187.697L197.934 187.73L198.094 187.764L198.236 187.797L198.515 187.866L198.89 187.965L199.395 188.105L199.929 188.257L200.636 188.463L202.33 188.96L202.811 189.106L203.241 189.234L203.651 189.353L204.039 189.463L204.405 189.563L204.665 189.633L204.911 189.698L205.219 189.776L205.502 189.845L205.698 189.891L205.879 189.931L206.046 189.967L206.244 190.006L206.374 190.03L206.489 190.048L206.557 190.057L206.617 190.064L206.67 190.069L206.694 190.07L206.736 190.072C206.761 190.072 206.78 190.068 206.816 190.052C206.904 190.013 207.022 189.933 207.17 189.795C207.632 189.362 208.15 188.574 208.668 187.427C209.327 185.97 209.809 184.088 210.101 181.789L210.125 181.591L210.165 181.247L210.202 180.896L210.22 180.719L210.237 180.54L210.268 180.178C210.366 178.985 210.42 177.696 210.426 176.313L210.427 176.015L210.425 175.92L210.421 175.846L210.412 175.72L210.393 175.524L210.366 175.295L210.332 175.034L210.312 174.892L210.267 174.584L210.214 174.244L210.138 173.774L210.05 173.257L209.95 172.692L209.839 172.079L209.691 171.281L209.526 170.417L209.313 169.325L209.043 167.968L208.783 166.687L208.459 165.118L208.116 163.482L184.752 66.3735L184.711 66.0826L184.674 65.8059L184.64 65.5391L184.608 65.2817L184.573 64.973L184.543 64.678L184.532 64.5638L184.512 64.3415L184.496 64.1273L184.489 64.023L184.476 63.8202L184.467 63.6247L184.464 63.5296L184.459 63.3444L184.458 63.2542V63.0032C184.47 61.28 184.673 59.8898 185.144 58.7618C185.877 57.0044 187.331 55.8212 189.251 55.7847L189.342 55.7838H203.752C205.681 55.7838 207.392 56.4889 208.713 57.8502C209.929 59.1022 210.654 60.992 211.126 63.6265L211.153 63.7764L211.197 64.0382L223.874 131.135L233.774 64.5055L233.79 64.3782C234.15 61.7098 234.758 59.7265 235.768 58.3581L235.829 58.2768L235.89 58.1984C237.113 56.6497 238.826 55.7927 240.776 55.7617H240.883H250.872ZM38.4564 4.8402C40.5993 4.8402 42.3021 6.05286 43.2198 8.02287C43.8631 9.40361 44.1447 11.1574 44.158 13.36L44.1585 13.526V170.888C44.1585 173.898 43.8545 176.24 43.1719 177.996C42.2446 180.381 40.4753 181.921 38.0644 181.96H37.9701H19.7586C17.3005 181.96 15.5313 180.386 14.6229 177.959C13.9844 176.253 13.693 173.985 13.6811 171.074L13.6807 39.3661L10.1685 40.2543L7.39668 40.947L6.74016 41.1054L6.45081 41.172L6.23086 41.2178L6.10511 41.2378L6.00209 41.2488L5.8803 41.2588C3.73326 41.4126 1.94001 40.2999 0.972391 38.3523C0.301309 37.0016 0.0137968 35.276 0.000486181 33.0917L0 32.931V21.5046C0 19.4587 0.329988 17.7407 1.07586 16.34C1.92686 14.7419 3.2892 13.6448 5.00316 13.1997L5.10641 13.1738L5.22542 13.1461L36.693 5.03064C37.1404 4.91942 37.6343 4.85956 38.171 4.8435L38.3184 4.8402H38.4564Z" fill="black"/>
</g>
<defs>
<clipPath id="clip0_1_2931">
<rect width="256" height="214" fill="white"/>
</clipPath>
</defs>
</svg>
