<svg width="512" height="197" viewBox="0 0 512 197" fill="none" xmlns="http://www.w3.org/2000/svg">
<g clip-path="url(#clip0_1_2955)">
<path d="M79.8168 43.3441C85.5685 41.4226 91.7172 40.3901 98.12 40.3901C126.038 40.3901 149.347 60.2202 154.686 86.5779L194.262 78.5053C185.179 33.7109 145.594 0 98.12 0C87.2414 0 76.791 1.77291 67.0143 5.03947L79.8168 43.3441Z" fill="#FFCC00"/>
<path d="M33.1114 171.603L59.8742 141.346C47.9275 130.762 40.39 115.316 40.39 98.1068C40.39 80.9108 47.9172 65.4718 59.8561 54.901L33.0909 24.6387C12.8023 42.6137 0 68.8694 0 98.1068C0 127.362 12.8075 153.626 33.1114 171.603Z" fill="#00A0DE"/>
<path d="M154.676 109.689C149.314 136.035 126.03 155.826 98.1199 155.826C91.7151 155.826 85.5483 154.793 79.7992 152.862L66.9787 191.182C76.7579 194.446 87.229 196.214 98.1199 196.214C145.548 196.214 185.128 162.559 194.246 117.806L154.676 109.689Z" fill="#EC3413"/>
<path d="M228.869 142.622C227.573 140.522 225.81 137.163 224.75 134.691C218.483 120.141 218.183 105.084 223.477 90.6291C229.295 74.7776 240.411 62.6417 254.774 56.462C272.831 48.6914 292.802 50.2235 310.108 60.4922C321.102 66.7994 328.896 76.5378 334.814 90.3059L335.363 91.6442L336.387 94.3045C336.552 94.7334 336.714 95.1508 336.876 95.5505L228.869 142.622ZM264.935 79.8198C252.112 85.3308 245.502 97.3592 246.86 111.463L301.179 88.085C291.839 77.1068 279.682 73.4686 264.935 79.8198ZM328.949 144.723L307.953 130.686L307.923 130.717L306.798 129.958C303.557 135.218 298.499 139.479 292.118 142.246C279.976 147.526 268.724 146.168 260.644 139.082L259.901 140.211C259.893 140.198 259.89 140.189 259.877 140.189L246.096 160.805C249.517 163.182 253.191 165.196 257.049 166.805C272.272 173.128 287.847 172.836 303.191 166.162C314.29 161.353 322.998 154.018 328.949 144.723ZM374.627 26.0996V140.719L392.446 147.941L382.321 171.568L362.65 163.377C358.235 161.466 355.23 158.54 352.955 155.238C350.78 151.871 349.153 147.252 349.153 141.031V26.0996H374.627ZM420.792 111.52C420.802 101.759 425.112 93.0064 431.932 87.0575L413.649 66.6714C401.249 77.632 393.44 93.6472 393.425 111.491C393.404 129.341 401.203 145.374 413.59 156.362L431.852 135.956C425.065 129.984 420.784 121.258 420.792 111.52ZM453.276 144.052C449.676 144.042 446.209 143.447 442.976 142.371L434.245 168.332C440.212 170.335 446.604 171.427 453.247 171.437C482.196 171.466 506.368 150.926 511.969 123.62L485.132 118.14C482.08 132.941 468.975 144.062 453.276 144.052ZM453.355 51.6635C446.72 51.6558 440.33 52.7345 434.371 54.7199L443.026 80.7038C446.269 79.6329 449.735 79.0411 453.33 79.0411C469.066 79.0566 482.181 90.2444 485.161 105.086L512 99.642C506.476 72.2975 482.327 51.6811 453.355 51.6635Z" fill="black"/>
</g>
<defs>
<clipPath id="clip0_1_2955">
<rect width="512" height="197" fill="white"/>
</clipPath>
</defs>
</svg>
