<svg width="256" height="256" viewBox="0 0 256 256" fill="none" xmlns="http://www.w3.org/2000/svg">
<g clip-path="url(#clip0_1_2971)">
<path d="M253 128C253 197.036 197.036 253 128 253C58.9645 253 3 197.036 3 128C3 58.9644 58.9645 3 128 3C197.036 3 253 58.9644 253 128Z" fill="url(#paint0_linear_1_2971)"/>
<path d="M128 0C57.2994 0 0 57.3155 0 128C0 198.684 57.2994 256 128 256C198.701 256 256 198.684 256 128C256 57.3155 198.701 0 128 0ZM128 7.05007C194.752 7.05007 248.88 61.1932 248.88 128C248.88 194.807 194.752 248.95 128 248.95C61.2481 248.95 7.12009 194.807 7.12009 128C7.12009 61.1932 61.2481 7.05007 128 7.05007Z" fill="url(#paint1_linear_1_2971)"/>
<path d="M85.2295 217.572C85.2295 217.572 95.7662 218.318 109.321 217.123C114.811 216.639 135.652 214.592 151.234 211.175C151.234 211.175 170.233 207.109 180.397 203.363C191.032 199.444 196.819 196.118 199.424 191.405C199.31 190.439 200.226 187.014 195.321 184.957C182.783 179.698 168.241 180.65 139.466 180.039C107.556 178.943 96.9413 173.602 91.2867 169.3C85.8643 164.936 88.591 152.863 111.825 142.228C123.528 136.564 169.407 126.113 169.407 126.113C153.956 118.476 125.144 105.05 119.222 102.15C114.027 99.6077 105.715 95.7789 103.913 91.1466C101.87 86.6995 108.738 82.8686 112.574 81.7716C124.929 78.2078 142.37 75.9929 158.244 75.7442C166.223 75.6192 167.518 75.1058 167.518 75.1058C178.528 73.2796 185.775 65.7471 182.756 53.818C180.045 41.6415 165.748 34.4867 152.161 36.9636C139.366 39.2961 108.528 48.2538 108.528 48.2538C146.647 47.9239 153.026 48.5601 155.876 52.5439C157.559 54.8967 155.111 58.1226 144.945 59.783C133.878 61.5905 110.871 63.7673 110.871 63.7673C88.8009 65.0781 73.2545 65.1658 68.5917 75.0378C65.5455 81.4873 71.8402 87.1891 74.5991 90.7582C86.258 103.724 103.098 110.717 113.938 115.866C118.017 117.804 129.984 121.463 129.984 121.463C94.8174 119.529 69.4495 130.327 54.5689 142.76C37.7384 158.327 45.1837 176.883 79.6647 188.309C100.031 195.057 110.131 198.231 140.51 195.495C158.403 194.531 161.224 195.105 161.402 196.573C161.653 198.64 141.528 203.775 136.033 205.36C122.055 209.392 85.4129 217.533 85.2295 217.572Z" fill="white"/>
</g>
<defs>
<linearGradient id="paint0_linear_1_2971" x1="6288.13" y1="5037.12" x2="23101.4" y2="25372.3" gradientUnits="userSpaceOnUse">
<stop stop-color="#8381C5"/>
<stop offset="0.566394" stop-color="#7E55B3" stop-opacity="0.996078"/>
<stop offset="1" stop-color="#A52ECB" stop-opacity="0.992157"/>
</linearGradient>
<linearGradient id="paint1_linear_1_2971" x1="23223.4" y1="20247.6" x2="8383.67" y2="2515.32" gradientUnits="userSpaceOnUse">
<stop stop-color="#411F5D"/>
<stop offset="1" stop-color="#5B2A85"/>
</linearGradient>
<clipPath id="clip0_1_2971">
<rect width="256" height="256" fill="white"/>
</clipPath>
</defs>
</svg>
