<svg width="512" height="213" viewBox="0 0 512 213" fill="none" xmlns="http://www.w3.org/2000/svg">
<g clip-path="url(#clip0_1_3372)">
<path d="M511.721 146.402C510.477 134.204 501.62 128.766 493.307 128.766C489.5 128.766 486.47 129.854 485.305 130.32L483.673 131.019L482.275 132.029C480.332 133.505 476.914 135.525 473.884 136.613C473.728 134.127 473.806 130.941 474.195 128.3L474.272 127.834C476.525 106.39 472.019 93.8816 460.909 90.6962C459.044 90.1523 457.102 89.9192 455.16 89.9192C448.4 89.9192 442.418 93.1823 438.533 95.9793C435.27 91.8616 429.832 89.5308 422.995 89.5308C412.817 89.5308 404.659 94.2701 401.707 101.884C401.396 102.661 401.007 103.826 400.541 105.38C394.559 92.1723 382.361 87.1223 371.018 87.1223C360.296 87.1223 349.885 91.3177 346 94.2701C345.845 94.4254 345.612 94.5031 345.379 94.7362C335.201 101.962 327.276 111.052 321.682 122.007C318.963 112.528 312.981 103.671 302.259 96.9893L302.104 96.8339C301.793 96.6786 301.56 96.5232 301.249 96.3678C311.738 77.7213 321.061 53.0148 315.467 29.4737C309.562 4.3787 294.8 0.649414 286.487 0.649414C283.069 0.649414 279.572 1.27096 275.999 2.51406L275.765 2.59175L275.532 2.66944C259.916 8.80723 253.079 18.0528 251.603 20.2282C250.049 22.559 232.956 48.5086 228.839 86.5007C228.372 90.6962 227.906 95.047 227.44 99.3978C225.032 95.9793 221.069 92.8716 214.776 90.9292C212.834 90.3077 210.814 90.0746 208.794 90.0746C200.17 90.0746 193.177 95.3578 189.448 98.854L189.37 98.7763C186.107 93.9593 180.902 91.0846 175.152 90.8515H173.754C164.586 90.8515 157.283 94.8916 151.922 99.4755C148.504 93.4931 142.21 89.7638 134.83 89.7638C134.208 89.7638 133.664 89.7638 133.12 89.8415H131.877C121.699 89.8415 113.697 94.6585 110.434 102.661C110.201 103.283 109.89 104.059 109.579 105.069C101.577 95.1247 91.3989 90.4631 77.7248 90.4631H76.404C67.8577 90.6185 46.5697 94.1924 33.5172 123.56C31.4972 128.067 29.9433 132.651 28.7779 137.157C25.9033 135.836 23.2617 135.525 21.3194 135.525C14.4823 135.525 9.35456 139.41 6.86837 143.062C4.84834 146.014 -1.60022 156.503 1.58521 166.758C3.29447 172.274 7.25683 176.47 12.8508 178.645C17.7455 180.587 23.9609 182.452 28.6225 183.773C31.4972 190.299 36.625 197.835 45.7151 204.75C52.1637 209.645 60.3992 212.131 70.1109 212.131C86.4265 212.131 102.198 205.061 103.908 204.284L104.529 203.973L104.684 203.818C107.792 207.081 111.91 209.412 117.115 210.422C118.669 210.733 120.689 210.966 123.02 210.966C131.877 210.966 138.015 206.459 143.687 197.991C148.348 205.294 156.817 209.412 166.839 209.412H166.917C167.461 209.412 168.005 209.8 168.626 209.8C173.909 209.8 180.513 207.936 186.03 199.079C190.613 207.314 199.004 212.053 208.949 212.053C217.806 212.053 225.498 208.402 226.896 207.703L227.207 207.547C230.159 205.993 232.646 204.595 234.588 203.507C241.192 207.003 251.214 210.888 263.49 210.888C265.588 210.888 267.685 210.81 269.783 210.577L270.327 210.499L270.871 210.422C296.898 205.294 313.835 199.079 323.935 194.339C331.006 202.264 342.271 209.878 358.354 211.043C360.141 211.199 362.005 211.276 363.792 211.276C377 211.276 387.566 207.547 395.336 203.429C397.822 206.071 400.93 208.479 404.97 210.111C407.378 211.121 409.864 211.587 412.428 211.587C428.589 211.587 436.125 192.319 438.223 185.793L442.107 175.382C445.526 179.034 449.877 181.986 455.393 183.54C458.423 184.394 461.686 184.861 465.027 184.861C482.819 184.861 499.911 172.274 502.63 170.177C507.525 166.137 512.886 157.823 511.721 146.402Z" fill="white"/>
<path d="M348.727 151.667C348.727 151.667 346.474 143.743 354.865 128.437C363.178 113.209 369.704 121.522 369.704 121.522C369.704 121.522 376.852 129.292 368.694 140.868C360.537 152.522 348.727 151.667 348.727 151.667ZM284.63 162.7C275.074 187.717 251.843 177.539 251.843 177.539C251.843 177.539 249.202 168.604 256.738 143.509C264.274 118.492 281.989 128.282 281.989 128.282C281.989 128.282 294.186 137.682 284.63 162.7ZM267.305 57.8912C267.305 57.8912 281.755 20.2099 285.252 38.5456C288.748 56.8812 254.951 111.422 254.951 111.422C255.262 99.1465 267.305 57.8912 267.305 57.8912ZM60.6399 151.667C61.2614 127.427 77.1109 116.861 82.6271 122.144C88.1433 127.427 86.1233 138.848 75.7124 145.996C65.3792 153.143 60.6399 151.667 60.6399 151.667ZM498.52 147.705C497.743 139.547 490.362 142.577 490.362 142.577C490.362 142.577 478.553 151.745 468.142 150.735C457.809 149.647 461.072 126.495 461.072 126.495C461.072 126.495 463.325 105.207 457.187 103.42C451.05 101.633 443.513 108.936 443.513 108.936C443.513 108.936 434.112 119.347 429.684 132.555L428.441 132.943C428.441 132.943 429.839 109.713 428.208 104.43C426.965 101.788 415.777 102.021 413.99 106.683C412.125 111.344 403.19 143.898 402.569 157.572C402.569 157.572 385.088 172.411 369.782 174.898C354.477 177.306 350.825 167.75 350.825 167.75C350.825 167.75 392.391 156.173 390.915 122.998C389.516 89.8233 357.429 102.099 353.777 104.818C350.281 107.46 331.557 118.725 326.041 150.036C325.885 151.123 325.497 155.785 325.497 155.785C325.497 155.785 309.414 166.584 300.48 169.459C300.48 169.459 325.497 127.349 294.963 108.159C281.134 99.8457 270.101 117.327 270.101 117.327C270.101 117.327 311.434 71.3322 302.267 32.4078C297.916 13.9167 288.67 11.8967 280.124 14.9267C267.227 20.0545 262.332 27.5131 262.332 27.5131C262.332 27.5131 245.628 51.7534 241.743 87.8032C237.859 123.853 232.187 167.361 232.187 167.361C232.187 167.361 224.262 175.131 216.959 175.519C209.656 175.908 212.919 153.765 212.919 153.765C212.919 153.765 218.591 119.968 218.202 114.297C217.814 108.625 217.425 105.517 210.666 103.497C203.984 101.477 196.603 110.024 196.603 110.024C196.603 110.024 177.258 139.314 175.626 143.82L174.616 145.685L173.606 144.442C173.606 144.442 187.28 104.507 174.228 103.963C161.175 103.342 152.629 118.181 152.629 118.181C152.629 118.181 137.789 143.043 137.168 145.84L136.158 144.597C136.158 144.597 142.296 115.695 141.053 108.547C139.81 101.4 133.128 102.876 133.128 102.876C133.128 102.876 124.582 101.866 122.328 107.382C120.075 112.898 111.918 149.336 110.908 160.913C110.908 160.913 89.5418 176.218 75.4793 176.374C61.4168 176.607 62.893 167.439 62.893 167.439C62.893 167.439 114.404 149.803 100.341 114.996C94.048 106.061 86.6672 103.264 76.3339 103.42C65.923 103.653 53.7251 109.946 45.3342 128.67C41.3719 137.605 39.7403 146.073 39.7403 152.522C39.7403 152.522 30.1063 154.387 25.2116 150.269C20.3169 146.229 17.52 150.269 17.52 150.269C17.52 150.269 8.97369 162.467 17.2869 165.73C25.6001 168.993 38.4972 172.023 38.4972 172.023C39.6626 177.306 43.1588 185.93 53.3367 193.622C68.5646 205.198 97.9327 191.835 97.9327 191.835L109.975 184.687C109.975 184.687 110.364 195.486 119.143 197.118C127.922 198.75 131.574 196.963 146.802 159.98C155.737 141.023 156.358 142.033 156.358 142.033L157.368 141.8C157.368 141.8 150.454 178.005 153.095 187.795C155.737 197.584 167.313 196.574 167.313 196.574C167.313 196.574 173.606 198.827 178.734 180.88C183.862 162.933 193.573 144.209 193.573 144.209H194.816C194.816 144.209 190.543 180.258 197.07 192.068C203.596 203.877 220.455 195.564 220.455 195.564C220.455 195.564 232.265 189.349 234.129 187.484C234.129 187.484 248.114 199.293 267.926 197.118C312.134 188.416 327.828 176.607 327.828 176.607C327.828 176.607 335.442 195.797 358.905 197.584C385.787 199.604 400.471 182.667 400.471 182.667C400.471 182.667 400.238 193.622 409.639 197.506C419.04 201.391 425.333 180.88 425.333 180.88L441.027 138.848H442.426C442.426 138.848 443.203 165.73 458.741 170.236C474.358 174.665 494.48 159.126 494.48 159.126C494.48 159.126 499.375 155.863 498.52 147.705Z" fill="#E24B31"/>
</g>
<defs>
<clipPath id="clip0_1_3372">
<rect width="512" height="213" fill="white"/>
</clipPath>
</defs>
</svg>
