<svg width="256" height="245" viewBox="0 0 256 245" fill="none" xmlns="http://www.w3.org/2000/svg">
<g clip-path="url(#clip0_1_3022)">
<path d="M57.8 188.15C58 187.65 58.2 187.15 58.4 186.65L58.5 186.45C59 185.25 59.5 183.95 60 182.75C60.6 181.15 61.2 179.45 61.8 177.85C62.2 176.95 62.5 176.05 62.8 175.05C63.6 172.85 64.7 169.95 66 167.15C66.8 165.45 67.4 164.25 68.1 163.15C68.9 161.85 69.7 160.65 70.6 159.45L71.3 158.45L72.4 157.75C72.5 157.65 72.7 157.55 72.9 157.45C73.4 157.15 74 156.95 74.4 156.75C75.1 156.45 76 156.15 77 155.85C78.4 155.45 80 155.05 81.9 154.65C84.7 154.05 87.7 153.45 91.5 152.85C97.2 151.95 103.3 151.15 110.6 150.35C123.5 148.95 136.4 147.95 148.8 147.35C155.4 147.05 160.4 146.95 165.1 146.95C166.1 146.95 167.1 146.95 168.1 146.95C171.2 147.05 174.8 147.15 178.1 147.65C179.3 147.85 180.4 148.05 181.2 148.35C181.5 148.45 181.8 148.55 181.9 148.65L182.9 149.05L183.7 149.75C184 150.05 184.3 150.35 184.6 150.65C185.7 151.75 186.9 153.05 188.1 154.55C191.9 159.35 195.3 165.15 198.3 171.75C201.2 178.15 203 183.85 204.1 189.45L205.6 197.35H187.2L186.1 192.05C184.9 186.45 169.8 171.65 162.3 168.75C161.5 168.45 158.3 167.55 148.4 167.55C128 167.55 99.2 171.15 95.1 172.05C90.2 174.35 82.7 183.95 78.4 193.55L76.6 197.45" fill="white"/>
<path d="M182.8 158.95C181.9 157.75 180.9 156.65 179.8 155.65C179.6 155.45 179.3 155.15 179.1 154.95C179.1 154.95 179 154.95 178.9 154.85C178.4 154.65 177.7 154.55 177 154.45C174.1 154.05 171 153.95 167.9 153.85C161.6 153.75 155.3 153.95 149 154.25C136.4 154.85 123.7 155.85 111.2 157.25C104.9 157.95 98.5999 158.75 92.3999 159.75C89.2999 160.25 86.1999 160.75 83.1999 161.45C81.6999 161.75 80.1999 162.15 78.7999 162.55C78.0999 162.75 77.3999 162.95 76.7999 163.25C76.4999 163.35 76.1999 163.45 76.0999 163.65C76.0999 163.65 75.9999 163.65 75.9999 163.75C75.2999 164.75 74.5999 165.75 73.8999 166.85C73.1999 167.95 72.6999 169.15 72.0999 170.35C70.9999 172.75 69.9999 175.25 69.0999 177.75C68.1999 180.25 67.1999 182.85 66.2999 185.45C65.7999 186.75 65.2999 188.05 64.6999 189.35C64.4999 189.95 64.1999 190.55 63.8999 191.15H72.3999C76.9999 180.85 85.6999 169.05 92.8999 166.15C94.8999 165.35 127.1 161.35 148.4 161.35C156.3 161.35 161.7 161.95 164.7 163.05C173.4 166.45 190.8 182.55 192.6 191.25H197.5C196.5 185.75 194.5 180.35 192.2 175.15C189.6 169.15 186.5 163.65 182.8 158.95Z" fill="#BA8449"/>
<path d="M192 197.45L191 192.05C190.1 187.55 188.6 182.75 186.2 177.45C183.6 171.85 180.8 166.95 177.6 163.05C177 162.25 176.4 161.55 175.8 160.95C173.3 160.55 170.4 160.55 167.8 160.45C166.9 160.45 166 160.45 165 160.45C160.5 160.45 155.7 160.55 149.3 160.85C137.1 161.45 124.6 162.45 111.9 163.85C104.8 164.65 98.9 165.45 93.5 166.25C90 166.75 87.2 167.35 84.7 167.85C83.1 168.25 81.9 168.55 80.8 168.85C80.6 168.85 80.5 168.95 80.4 168.95C80.2 169.35 79.9 169.65 79.7 170.05C79.2 170.85 78.8 171.75 78.1 172.95C77 175.25 76.1 177.65 75.3 179.75C74.9 180.65 74.6 181.55 74.3 182.45C73.7 184.15 73.1 185.85 72.4 187.55C71.9 188.85 71.3 190.15 70.8 191.55L70.7 191.75C70.5 192.35 70.2 192.95 70 193.45L68.2 197.45H56.5L54.8 196.65L54.6 196.55C50.6 194.25 50.6 190.85 50.7 189.45V189.15L50.9 188.25L51.2 187.15C51.4 186.45 51.6 185.65 51.8 184.95C52.2 183.45 52.7 182.05 53.2 180.65C54.1 178.05 55.2 175.25 56.5 172.25C57.9 169.15 59.2 166.45 60.7 163.95C61.4 162.65 62.2 161.35 63.2 159.85C64.1 158.45 65.1 157.05 66.1 155.75C67 154.65 67.8 153.95 68.4 153.55H68.5C69.1 153.05 69.7 152.75 70 152.65C70.9 152.15 71.6 151.85 72.1 151.65C73.3 151.15 74.4 150.85 75.3 150.55C77.3 149.95 79.2 149.55 80.6 149.25C83.5 148.65 86.6 148.05 90.5 147.45C96.3 146.55 102.4 145.85 109.9 145.05C122.9 143.75 135.9 142.75 148.5 142.25C154.5 142.05 159.2 141.85 163.5 141.85C165.1 141.85 166.6 141.85 168.1 141.85C171.3 141.95 174.9 142.05 178.8 142.65H178.9C179.8 142.85 181.2 143.05 182.8 143.55H182.9C183.3 143.75 183.9 143.95 184.6 144.25C185.1 144.55 185.5 144.75 185.8 144.95L186.3 145.35L186.7 145.65L187.1 146.05C187.5 146.45 187.8 146.75 188.2 147.15C189.5 148.45 190.7 149.85 192 151.55C196 156.75 199.5 162.75 202.7 169.85C204.2 173.15 205.5 176.45 206.5 179.65C207.6 183.15 208.4 186.45 209 189.65L210.2 197.35H192V197.45Z" fill="white"/>
<path d="M64.2 197.45L68.5999 187.95C72.2999 180.05 81.1999 165.55 91.0999 161.45L91.2999 161.35C94.5999 160.15 128 156.25 148.4 156.25C159.8 156.25 164.1 157.35 166.3 158.25C176.6 162.25 194.5 179.15 196.9 189.15L198.9 197.35H64.2V197.45Z" fill="white"/>
<path d="M185.3 197.45L184.1 192.35C183 187.65 168.9 173.55 161.6 170.65C160.9 170.35 158 169.55 148.4 169.55C128.8 169.55 100.4 173.05 95.8 173.95C92 175.85 85.0999 183.95 80.5999 193.55L78.8 197.35H62.2L66.4 188.05C71.3 177.05 81 163.45 90.5 159.65C94.2 158.15 128 154.35 148.5 154.35C157.4 154.35 163.4 155.05 167.1 156.45C177.4 160.45 196.7 177.85 199.1 189.45L200.7 197.45H185.3Z" fill="white"/>
<path d="M193 197.45L191.1 195.65C183.9 188.95 181.9 175.05 184.1 169.35C185.6 165.55 188.8 164.25 191.2 164.25C191.9 164.25 192.5 164.35 193.1 164.55C194.4 164.45 197.4 161.95 198.3 160.55C199.7 157.95 202.4 156.35 205.7 156.35C210.6 156.35 218.6 160.25 221.2 163.95C222.7 166.05 223.1 168.55 222.3 170.75C222.2 170.95 222.1 171.35 221.9 171.85C219.2 179.95 215.7 189.85 212.9 194.45L211 197.55L193 197.45Z" fill="white"/>
<path d="M192.4 197.45L198.6 187.35C201.6 182.45 203.7 178.45 205.1 175.35C201.6 177.85 196.7 179.35 189.4 179.75L189.2 179.55L189.1 180.25C184.8 180.25 181.3 176.75 181.1 172.45C181 170.35 181.8 168.25 183.2 166.65C184.6 165.05 186.6 164.15 188.7 164.05C195.9 163.75 196.8 162.05 198.1 159.55C199.9 156.15 203.8 154.15 208.9 154.15C210.2 154.15 211.5 154.25 212.7 154.55C219 155.95 223.1 160.75 223.4 166.95C223.7 173.25 220.2 182.45 213.2 194.25L211.3 197.45H192.4Z" fill="white"/>
<path d="M218.7 177.75C210.6 177.75 201.8 172.45 197.3 167.25C193.2 162.55 192.8 158.35 193.2 155.65C193.7 152.35 196.4 149.05 201.3 149.05C202.2 149.05 203.1 149.15 203.9 149.25C204.7 145.65 206.6 138.15 214.3 138.15C214.7 138.15 215 138.15 215.4 138.15C219.1 138.55 221.9 140.85 223 144.35C224.2 143.75 225.6 143.25 227.2 143.25C229.6 143.25 231.9 144.25 233.6 146.05C236.3 148.95 236.9 152.95 235.2 156.75C237 157.85 238.4 159.55 239 161.75C239.8 164.55 239.3 167.55 237.5 169.95C234 174.85 225.9 177.15 219.5 177.35C219.1 177.75 218.9 177.75 218.7 177.75Z" fill="white"/>
<path d="M210.7 13.0496C203.4 17.6496 195.4 28.1496 185.6 42.5496C184.1 44.8496 181.6 46.0496 178.8 46.0496C175.2 46.0496 170.6 43.8496 165.3 39.5496C156.9 32.7496 156.7 28.9496 156.6 27.4496C156.4 23.4496 159.4 20.0496 163.6 19.6496C171.7 18.9496 178.4 14.0496 184.9 9.34961C191.4 4.64961 197.4 0.349609 204.6 0.349609C206 0.349609 207.5 0.549609 208.9 0.849609" fill="white"/>
<path d="M164.2 26.3497C183.8 24.5497 195.3 4.24974 207.2 7.34974C199.2 12.3497 191.3 22.3497 180.2 38.7497C177.5 42.6497 158.8 26.8497 164.2 26.3497Z" fill="#FFF8EE"/>
<path d="M37.2 17.05C42.1 12.55 48.7 10.25 56.8 10.25C63.8 10.25 72.1 11.95 81.4 15.35C83.9 16.25 87.2 16.45 89.7 16.45C90.4 16.45 91.1 16.45 91.7 16.45C92.3 16.45 92.9 16.45 93.4 16.45C95.7 16.45 100.6 16.45 102.7 20.95C103.4 22.65 104.3 26.15 101.6 30.25C98.2999 35.35 89.6 40.75 81.2 40.75C81.1 40.75 80.9 40.75 80.8 40.75C76.3 40.65 72.1 38.25 67.2 35.55C61.1 32.15 54.2 28.25 46 28.25C44.9 28.25 43.7 28.35 42.6 28.45" fill="white"/>
<path d="M188 65.55C184.4 65.55 177.6 64.05 173.3 53.85C170.9 48.45 170.1 42.35 170.1 38.95C170.1 31.95 173.8 30.05 176.1 29.55C177.7 27.95 180.7 23.85 182.9 20.75C192 8.35 198.6 0.25 206.3 0.25C207.6 0.25 208.8 0.449999 210 0.949999C220.3 5.05 225.3 13.75 223.6 24.75C222.4 32.85 217.3 42.45 209.8 51.25C206.3 55.35 197.2 64.95 189.1 65.55C188.7 65.55 188.4 65.55 188 65.55Z" fill="white"/>
<path d="M69.8001 69.3502C68.9001 69.3502 68.0001 69.3502 67.2001 69.1502C54.4001 67.0502 38.4001 54.1502 32.4001 40.8502C28.3001 31.7502 30.1001 25.5502 32.4001 21.9502C36.1001 16.0502 41.6001 12.9502 48.4001 12.9502C56.6001 12.9502 64.8001 17.4502 72.0001 21.3502C74.8001 22.8502 78.8001 25.0502 80.5001 25.4502C81.1001 25.2502 81.7001 25.1502 82.4001 25.1502C85.0001 25.1502 87.4001 26.5502 88.8001 28.9502C92.1001 34.7502 90.1001 50.3502 84.9001 59.3502C81.3001 65.9502 75.9001 69.3502 69.8001 69.3502Z" fill="white"/>
<path d="M114.4 180.95C84.3999 180.95 54.6999 166.25 44.7999 155.55C34.4999 144.45 30.7999 131.85 33.5999 118.05C35.9999 106.75 42.2999 96.6504 47.7999 87.6504C51.5999 81.4504 55.1999 75.6504 56.1999 71.4504C68.3999 17.5504 98.9999 10.6504 124.3 10.6504C125.9 10.6504 127.6 10.6504 129.5 10.7504C183.4 12.3504 188.8 38.3504 192 53.9504C192.6 56.8504 193.2 59.5504 193.9 61.3504C212 105.75 215 132.35 203.9 150.35C193 168.05 169.1 176.75 121.5 180.65C119.2 180.85 116.8 180.95 114.4 180.95Z" fill="white"/>
<path d="M113.3 181.05C82.7 181.05 54.4 165.85 44.9 155.55C34.6 144.45 30.9 131.85 33.7 118.05C36.1 106.75 42.4 96.6504 47.9 87.6504C51.7 81.4504 55.3 75.6504 56.3 71.4504C68.5 17.5504 99.1 10.6504 124.4 10.6504C126 10.6504 127.7 10.6504 129.6 10.7504C183.5 12.3504 188.9 38.3504 192.1 53.9504C192.7 56.8504 193.3 59.5504 194 61.3504C211.8 105.05 214.7 131.45 203.8 149.45C191.3 170.15 161.9 176.85 121.7 180.65C118.9 180.95 116.1 181.05 113.3 181.05Z" fill="white"/>
<path d="M191.2 143.45C191.6 142.55 192 141.55 192.4 140.65C196.5 130.85 199.6 122.25 194.7 116.75C188.9 110.35 164.4 98.7496 142.6 88.5496C100.9 68.8496 75.0999 56.1496 71.3999 43.5496C70.4999 40.3496 70.8999 37.0496 72.5999 34.2496C79.7999 22.9496 99.8999 10.8496 127.4 10.8496C127.7 10.8496 127.9 10.8496 128.2 10.8496C154.1 11.0496 172.9 18.5496 184.2 32.9496C193.8 45.1496 195.9 59.4496 197.5 69.8496C198 73.3496 198.7 77.8496 199.4 79.0496C219 112.75 210 137.65 202.9 149.35L191.2 143.45Z" fill="white"/>
<path d="M170.7 104.65C160.6 104.65 143.7 102.15 137.9 96.5496C133.3 92.1496 131.6 84.8496 129.8 77.7496C129.1 74.7496 127.9 69.9496 126.8 67.7496H126.7C126.3 68.8496 125.8 70.2496 125.4 71.3496C122.7 78.9496 118.9 89.4496 111 95.1496C107.6 97.6496 95.2999 99.8496 85.7999 99.8496C76.2999 99.8496 69.0999 97.8496 64.2999 93.7496C57.3999 87.9496 52.1999 77.2496 48.6999 61.9496C48.4999 61.8496 48.3999 61.7496 48.1999 61.6496C46.5999 60.5496 44.4999 59.2496 43.3999 56.9496C41.5999 53.3496 42.2999 46.9496 44.1999 43.5496C45.5999 41.0496 47.9999 39.4496 50.5999 39.2496C50.8999 39.2496 51.0999 39.2496 51.4999 39.2496C52.8999 39.2496 54.2999 39.4496 55.8999 39.7496C57.4999 40.0496 59.3999 40.3496 60.9999 40.3496C61.3999 40.3496 61.6999 40.3496 61.8999 40.3496C71.3999 38.9496 80.2999 38.3496 88.3999 38.3496C108.1 38.3496 118.5 42.3496 122.4 43.9496C122.7 44.0496 123 44.1496 123.2 44.2496C124.3 44.5496 126.4 44.9496 128.6 44.9496C129.4 44.9496 130.2 44.9496 130.9 44.7496C139.8 43.3496 148.3 42.7496 156.1 42.7496C176.9 42.7496 187.9 47.4496 192.7 49.5496C193.1 49.7496 193.5 49.9496 193.8 49.9496C193.8 49.9496 194 49.9496 194.2 49.9496C195.5 49.9496 197.4 49.5496 199 49.2496C200.2 48.9496 201.4 48.7496 202.5 48.5496C202.8 48.5496 203.1 48.5496 203.4 48.5496C206.5 48.5496 209.3 50.3496 211 53.3496C212.9 56.8496 214.2 64.1496 211.5 68.3496C209.7 71.1496 206.8 72.4496 204.4 73.5496C204.1 73.6496 203.7 73.8496 203.4 74.0496C202.6 75.4496 201.2 78.2496 200 80.5496C196.5 87.3496 192.6 95.1496 189 99.3496C185.8 102.95 179.8 104.65 170.7 104.65Z" fill="white"/>
<mask id="mask0_1_3022" style="mask-type:luminance" maskUnits="userSpaceOnUse" x="42" y="43" width="170" height="61">
<path d="M211.9 43.8496H42.3999V103.05H211.9V43.8496Z" fill="white"/>
</mask>
<g mask="url(#mask0_1_3022)">
<g opacity="0.3">
<path d="M166.677 103.031C158.677 103.031 147.377 101.831 139.277 96.1307C134.677 92.8307 132.577 86.2307 129.677 75.6307C128.877 72.6307 127.677 68.4307 126.777 66.3307C126.277 67.5307 125.677 69.1307 125.177 70.4307C122.177 78.5307 118.077 89.5307 110.577 94.1307C106.677 96.5307 94.5774 98.7307 85.1774 98.7307C75.0774 98.7307 67.7775 96.4307 63.5775 92.0307C52.8775 80.8307 50.7774 70.1307 49.4774 63.8307C49.2774 62.9307 49.0774 61.7307 48.8774 61.0307C42.5774 57.7307 42.1774 52.8307 42.2774 50.7307C42.5774 46.8307 45.5774 43.9307 49.2774 43.9307C51.7774 43.9307 53.3775 45.1307 54.5775 45.9307C54.6775 46.0307 54.7774 46.1307 54.9774 46.1307C55.0774 46.1307 55.3774 46.2307 55.4774 46.3307C57.0774 46.8307 61.7774 48.1307 62.7774 54.2307C62.9774 55.3307 64.5774 61.7307 67.1774 68.4307C71.2774 79.1307 74.1774 80.9307 74.4774 81.0307C77.8774 82.2307 81.8774 82.8307 86.3774 82.8307C93.7774 82.8307 99.9774 81.2307 102.477 80.4307C103.977 78.1307 106.977 72.1307 109.077 68.0307C115.377 55.5307 116.477 53.6307 119.177 52.2307C120.677 51.4307 122.477 51.0307 124.777 51.0307C127.777 51.0307 132.077 51.7307 134.077 52.6307C138.677 54.6307 141.077 60.6307 146.477 76.1307C147.477 78.9307 148.677 82.5307 149.477 84.3307C153.477 86.2307 162.577 87.5307 172.077 87.5307C174.777 87.5307 176.777 87.4307 178.077 87.3307C178.977 85.4307 180.277 82.7307 181.377 80.4307C188.977 64.2307 190.177 62.3307 192.077 60.8307C195.377 58.3307 201.177 56.6307 204.477 56.6307C208.877 56.6307 211.277 59.5307 211.877 62.3307C212.977 68.1307 207.277 70.3307 205.377 71.0307C204.877 71.2307 204.177 71.5307 203.677 71.7307C202.977 72.9307 201.677 75.5307 200.677 77.6307C192.477 93.6307 189.777 98.0307 186.677 99.9307C182.877 102.031 173.677 103.031 166.677 103.031Z" fill="white"/>
</g>
</g>
<mask id="mask1_1_3022" style="mask-type:luminance" maskUnits="userSpaceOnUse" x="44" y="39" width="35" height="17">
<path d="M78.2999 39.5498H44.8999V55.7498H78.2999V39.5498Z" fill="white"/>
</mask>
<g mask="url(#mask1_1_3022)">
<g opacity="0.3">
<path d="M61.2881 55.6662C60.0881 55.6662 57.7881 55.4662 53.1881 53.9662C51.9881 53.5662 50.8881 53.1662 50.1881 52.8662C48.6881 52.2662 44.7881 50.7662 44.7881 46.1662V39.4662H51.3881C52.2881 39.4662 52.8881 39.6662 53.3881 39.7662C54.7881 39.9662 59.2881 40.2662 60.7881 40.3662L61.6881 40.4662C62.8881 40.4662 66.5881 39.9662 68.1881 39.7662C70.1881 39.4662 70.7881 39.3662 71.5881 39.3662H77.2881L78.1881 44.9662C78.5881 47.7662 77.0881 51.2662 73.3881 52.3662C73.1881 52.4662 72.4881 52.6662 71.8881 52.8662C68.3881 54.1662 64.8881 55.3662 61.8881 55.4662C61.6881 55.6662 61.4881 55.6662 61.2881 55.6662Z" fill="white"/>
</g>
</g>
<mask id="mask2_1_3022" style="mask-type:luminance" maskUnits="userSpaceOnUse" x="180" y="48" width="27" height="18">
<path d="M206.3 48.1504H180.9V65.3504H206.3V48.1504Z" fill="white"/>
</mask>
<g mask="url(#mask2_1_3022)">
<g opacity="0.3">
<path d="M193.388 65.2605C191.188 65.2605 188.988 64.3605 185.988 62.2605C183.088 60.2605 180.888 58.2605 180.888 54.7605V48.0605H187.388C188.288 48.0605 189.188 48.2606 190.088 48.6606C190.788 48.9606 193.488 49.8606 194.688 50.1606C195.088 50.1606 195.888 49.9606 197.488 49.6606C198.288 49.4606 198.788 49.4605 199.488 49.4605H205.188L206.088 55.0605C206.488 57.7605 205.288 61.1605 201.588 62.4605C201.388 62.5605 200.788 62.8605 200.388 63.0605C198.588 63.9605 196.488 64.9605 194.388 65.3605C194.188 65.2605 193.788 65.2605 193.388 65.2605Z" fill="white"/>
</g>
</g>
<path d="M171.6 212.151H147V190.851H171.6V212.151Z" fill="white"/>
<path d="M182.8 158.95C181.9 157.75 180.9 156.65 179.8 155.65C179.6 155.45 179.3 155.15 179.1 154.95C179.1 154.95 179 154.95 178.9 154.85C178.4 154.65 177.7 154.55 177 154.45C174.1 154.05 171 153.95 167.9 153.85C161.6 153.75 155.3 153.95 149 154.25C136.4 154.85 123.7 155.85 111.2 157.25C104.9 157.95 98.5999 158.75 92.3999 159.75C89.2999 160.25 86.1999 160.75 83.1999 161.45C81.6999 161.75 80.1999 162.15 78.7999 162.55C78.0999 162.75 77.3999 162.95 76.7999 163.25C76.4999 163.35 76.1999 163.45 76.0999 163.65C76.0999 163.65 75.9999 163.65 75.9999 163.75C75.2999 164.75 74.5999 165.75 73.8999 166.85C73.1999 167.95 72.6999 169.15 72.0999 170.35C70.9999 172.75 69.9999 175.25 69.0999 177.75C68.1999 180.25 67.1999 182.85 66.2999 185.45C65.7999 186.75 65.2999 188.05 64.6999 189.35C64.4999 189.95 64.1999 190.55 63.8999 191.15H72.3999C76.9999 180.85 85.6999 169.05 92.8999 166.15C94.8999 165.35 127.1 161.35 148.4 161.35C156.3 161.35 161.7 161.95 164.7 163.05C173.4 166.45 190.8 182.55 192.6 191.25H197.5C196.5 185.75 194.5 180.35 192.2 175.15C189.6 169.15 186.5 163.65 182.8 158.95Z" fill="#BA8449"/>
<path d="M196.8 172.65C194.1 166.65 191 160.95 186.9 155.75C185.9 154.45 184.8 153.15 183.6 151.95C183.3 151.65 183 151.35 182.7 151.05L182.5 150.85L182.4 150.75L182.2 150.55C182 150.45 181.8 150.35 181.7 150.25C181.4 150.05 181.1 149.95 180.8 149.85C179.7 149.45 178.9 149.35 178 149.15C174.6 148.65 171.4 148.55 168.2 148.45C161.7 148.35 155.4 148.45 149 148.75C136.2 149.25 123.5 150.25 110.8 151.55C104.5 152.25 98.1001 152.95 91.7001 153.95C88.5001 154.45 85.4001 154.95 82.2001 155.65C80.6001 156.05 79.0001 156.35 77.4001 156.85C76.6001 157.05 75.8001 157.35 74.9001 157.75C74.5001 157.95 74.0001 158.15 73.5001 158.45C73.3001 158.65 73.0001 158.75 72.7001 158.95C72.4001 159.15 72.1001 159.45 71.7001 159.95C70.8001 161.05 69.9001 162.35 69.1001 163.55C68.3001 164.75 67.5001 166.05 66.8001 167.35C65.4001 169.85 64.1001 172.45 62.9001 175.05C61.8001 177.65 60.7001 180.25 59.8001 182.95C59.3001 184.25 58.9001 185.55 58.6001 186.95C58.4001 187.65 58.2001 188.25 58.0001 188.95L57.7001 189.95L57.6001 190.45C57.6001 190.55 57.8001 190.65 58.2001 190.95H58.3001H64.1001C64.4001 190.35 64.6001 189.75 64.9001 189.15C65.4001 187.85 66.0001 186.55 66.5001 185.35C67.5001 182.75 68.4001 180.25 69.3001 177.65C70.2001 175.15 71.2001 172.55 72.3001 170.25C72.9001 169.05 73.5001 167.95 74.1001 166.75C74.8001 165.65 75.4001 164.65 76.2001 163.65C76.2001 163.65 76.3001 163.65 76.3001 163.55C76.5001 163.45 76.8001 163.35 77.0001 163.15C77.6001 162.95 78.3001 162.65 79.0001 162.45C80.4001 162.05 81.9001 161.65 83.4001 161.35C86.4001 160.65 89.5001 160.15 92.6001 159.65C98.8001 158.65 105.1 157.85 111.4 157.15C124 155.75 136.6 154.75 149.2 154.15C155.5 153.85 161.8 153.65 168.1 153.75C171.2 153.85 174.4 153.95 177.2 154.35C177.9 154.45 178.6 154.65 179.1 154.75C179.2 154.75 179.3 154.75 179.3 154.85C179.5 155.05 179.8 155.35 180 155.55C181.1 156.65 182 157.75 183 158.85C186.7 163.55 189.8 169.05 192.4 174.65C194.7 179.85 196.7 185.25 197.7 190.75H202.7C202.2 187.65 201.4 184.65 200.5 181.75C199.3 178.65 198.1 175.65 196.8 172.65Z" fill="#895B2E"/>
<path d="M164 164.55C161.4 163.55 156.1 162.95 148.5 162.95C127.1 162.95 95.5 166.95 93.7999 167.65C87.2999 170.25 79.2 181.25 74.7 190.85H190.6C188.7 183.35 172.6 167.95 164 164.55Z" fill="#FFF8EE"/>
<path d="M164.7 162.65C161.8 161.55 156.3 160.95 148.4 160.95C127.1 160.95 94.8999 164.95 92.8999 165.75C85.5999 168.75 76.9999 180.45 72.3999 190.75H74.5999C79.0999 181.25 87.1999 170.25 93.6999 167.55C95.3999 166.85 127 162.85 148.4 162.85C156 162.85 161.3 163.35 163.9 164.45C172.5 167.75 188.6 183.25 190.5 190.75H192.5C190.8 182.15 173.4 166.05 164.7 162.65Z" fill="#E5D0AE"/>
<path d="M204.3 163.55C203.1 166.05 196.8 172.45 191.5 170.95C188.7 170.15 189.2 184.95 195.6 190.85H207.2C210.4 185.75 215.4 170.15 216 168.55C216.7 166.65 205.5 161.05 204.3 163.55Z" fill="#BA8449"/>
<path d="M216.6 167.25C216.4 164.05 214.5 161.75 211.1 160.95C208.4 160.35 204.8 160.85 203.9 162.55C202.1 165.95 199.9 170.05 189 170.65C188.3 170.65 187.7 171.35 187.7 172.05C187.7 172.75 188.4 173.35 189.1 173.35C200.5 172.85 203.8 168.45 206.2 163.95C206.7 163.55 209.4 163.05 211.6 163.95C213.2 164.65 213.9 165.75 214 167.45C214.3 173.65 207.8 185.15 204.3 190.95H207.4C211.3 184.15 216.9 173.65 216.6 167.25Z" fill="#895B2E"/>
<mask id="mask3_1_3022" style="mask-type:luminance" maskUnits="userSpaceOnUse" x="193" y="165" width="24" height="28">
<path d="M216.9 165.35H193.4V192.65H216.9V165.35Z" fill="white"/>
</mask>
<g mask="url(#mask3_1_3022)">
<g opacity="0.15">
<path d="M194.135 191.15C201.235 189.45 207.535 182.35 208.035 172.25C208.135 170.35 204.235 166.75 204.235 165.75C204.235 164.75 216.135 165.95 216.735 168.75C217.235 171.55 209.335 188.45 206.635 191.25C204.035 193.95 189.935 192.15 194.135 191.15Z" fill="#E3AB5E"/>
</g>
</g>
<path d="M199.7 156.65C198.8 162.85 210.9 171.35 219.1 171.15C225.9 170.95 233.6 167.75 232.5 163.95C231.4 160.05 224.8 164.65 224.2 161.95C223.7 159.35 231.9 154.45 228.6 150.85C225.5 147.55 221.9 156.05 218.3 154.85C214.7 153.65 219 145.35 214.5 144.85C209.2 144.35 211.2 156.15 207.2 156.35C204.4 156.65 200 154.65 199.7 156.65Z" fill="#FCD4C3"/>
<path d="M199.7 156.65C198.8 162.85 210.9 171.35 219.1 171.15C225.9 170.95 233.6 167.75 232.5 163.95C231.4 160.05 224.8 164.65 224.2 161.95C223.7 159.35 231.9 154.45 228.6 150.85C225.5 147.55 221.9 156.05 218.3 154.85C214.7 153.65 219 145.35 214.5 144.85C209.2 144.35 211.2 156.15 207.2 156.35C204.4 156.65 200 154.65 199.7 156.65Z" stroke="#F8A38F" stroke-width="2" stroke-miterlimit="10"/>
<mask id="mask4_1_3022" style="mask-type:luminance" maskUnits="userSpaceOnUse" x="203" y="151" width="8" height="8">
<path d="M210.9 151.65H203.1V158.05H210.9V151.65Z" fill="white"/>
</mask>
<g mask="url(#mask4_1_3022)">
<g opacity="0.5">
<path d="M203.139 156.593C204.439 157.593 209.139 158.893 209.839 157.193C210.639 155.493 211.239 152.093 210.739 151.593C210.339 153.193 209.839 156.193 208.139 156.893C206.839 157.393 204.039 156.793 203.139 156.593Z" fill="#FCD4C3"/>
</g>
</g>
<mask id="mask5_1_3022" style="mask-type:luminance" maskUnits="userSpaceOnUse" x="215" y="150" width="9" height="8">
<path d="M223.5 150.05H215.8V157.25H223.5V150.05Z" fill="white"/>
</mask>
<g mask="url(#mask5_1_3022)">
<g opacity="0.5">
<path d="M216.059 149.992C215.859 151.092 214.959 156.292 217.659 156.992C219.959 157.592 221.659 156.192 223.459 153.292C222.459 154.192 219.959 156.392 218.059 155.592C216.159 154.692 215.959 152.692 216.059 149.992Z" fill="#FCD4C3"/>
</g>
</g>
<mask id="mask6_1_3022" style="mask-type:luminance" maskUnits="userSpaceOnUse" x="204" y="161" width="17" height="10">
<path d="M220.2 161.85H204.4V170.45H220.2V161.85Z" fill="white"/>
</mask>
<g mask="url(#mask6_1_3022)">
<g opacity="0.25">
<path d="M204.476 164.007C218.076 157.307 220.876 168.207 220.176 170.407C214.776 171.307 205.276 165.707 204.476 164.007Z" fill="#FCD4C3"/>
</g>
</g>
<mask id="mask7_1_3022" style="mask-type:luminance" maskUnits="userSpaceOnUse" x="222" y="159" width="7" height="6">
<path d="M228.6 159.75H222.9V164.75H228.6V159.75Z" fill="white"/>
</mask>
<g mask="url(#mask7_1_3022)">
<g opacity="0.5">
<path d="M224.251 159.745C221.951 162.345 223.051 164.445 224.551 164.745C226.451 165.145 228.951 163.145 228.551 163.145C228.051 163.145 224.351 164.345 223.651 162.545C223.151 161.145 223.951 160.345 224.251 159.745Z" fill="#FCD4C3"/>
</g>
</g>
<mask id="mask8_1_3022" style="mask-type:luminance" maskUnits="userSpaceOnUse" x="66" y="151" width="129" height="37">
<path d="M194.9 151.45H66V187.95H194.9V151.45Z" fill="white"/>
</mask>
<g mask="url(#mask8_1_3022)">
<g opacity="0.15">
<path d="M68.934 177.117C112.634 202.217 199.334 176.717 194.734 168.517C188.634 157.617 186.234 150.817 172.834 151.417C159.534 152.117 73.934 158.917 70.434 161.517C67.034 164.217 63.234 173.817 68.934 177.117Z" fill="#E3AB5E"/>
</g>
</g>
<path d="M164.2 26.3497C183.8 24.5497 195.3 4.24974 207.2 7.34974C199.2 12.3497 191.3 22.3497 180.2 38.7497C177.5 42.6497 158.8 26.8497 164.2 26.3497Z" fill="#FFF8EE"/>
<path d="M164.2 26.3497C183.8 24.5497 195.3 4.24974 207.2 7.34974C199.2 12.3497 191.3 22.3497 180.2 38.7497C177.5 42.6497 158.8 26.8497 164.2 26.3497Z" stroke="#E5D0AE" stroke-width="3" stroke-miterlimit="10" stroke-linecap="round" stroke-linejoin="round"/>
<path d="M41.7 21.9504C50.5 13.7504 66.4 16.9504 79.2 21.5504C86.5 24.1504 96 22.0504 96.5999 23.5504C98.1999 27.0504 88.7 34.2504 80.9 34.0504C73.2 33.9504 60.3 19.4504 41.7 21.9504Z" fill="#BA8449"/>
<path d="M41.7 21.9504C50.5 13.7504 66.4 16.9504 79.2 21.5504C86.5 24.1504 95.9999 22.0504 96.5999 23.5504C98.1999 27.0504 88.7 34.2504 80.9 34.0504C73.2 33.9504 60.3 19.4504 41.7 21.9504Z" stroke="#895B2E" stroke-width="2" stroke-miterlimit="10" stroke-linecap="round" stroke-linejoin="round"/>
<path d="M177.6 36.0498C182.1 37.3498 199.2 3.84976 207.5 7.14976C233.9 17.6498 199.5 58.0498 188.6 58.9498C177.6 59.7498 175.1 35.2498 177.6 36.0498Z" fill="#FCD4C3"/>
<path d="M177.6 36.0498C182.1 37.3498 199.2 3.84976 207.5 7.14976C233.9 17.6498 199.5 58.0498 188.6 58.9498C177.6 59.7498 175.1 35.2498 177.6 36.0498Z" stroke="#F8A38F" stroke-width="2" stroke-miterlimit="10"/>
<path d="M82.1999 32.0497C74.8999 35.2497 48.9999 8.14972 38.0999 25.5497C30.8999 37.0497 52.6999 60.2497 68.2999 62.7497C83.8999 65.2497 85.9999 30.3497 82.1999 32.0497Z" fill="#FCD4C3"/>
<path d="M82.1999 32.0497C74.8999 35.2497 48.9999 8.14972 38.0999 25.5497C30.8999 37.0497 52.6999 60.2497 68.2999 62.7497C83.8999 65.2497 85.9999 30.3497 82.1999 32.0497Z" stroke="#F8A38F" stroke-width="2" stroke-miterlimit="10"/>
<mask id="mask9_1_3022" style="mask-type:luminance" maskUnits="userSpaceOnUse" x="180" y="13" width="19" height="46">
<path d="M198.4 13.6504H180.4V58.2504H198.4V13.6504Z" fill="white"/>
</mask>
<g mask="url(#mask9_1_3022)">
<path d="M197.967 13.6504C196.567 18.2504 184.767 30.1504 186.367 40.3504C186.967 44.1504 190.967 55.3504 192.667 54.9504C194.367 54.5504 198.667 51.8504 198.267 52.4504C197.867 53.0504 192.267 57.1504 190.167 58.2504C188.067 57.1504 179.167 36.4504 180.467 35.3504C184.367 31.8504 196.267 13.8504 197.967 13.6504Z" fill="#FCD4C3"/>
</g>
<mask id="mask10_1_3022" style="mask-type:luminance" maskUnits="userSpaceOnUse" x="38" y="20" width="45" height="32">
<path d="M82.7 20.3496H38.5V51.9496H82.7V20.3496Z" fill="white"/>
</mask>
<g mask="url(#mask10_1_3022)">
<path d="M38.4331 26.25C46.4331 21.35 61.0331 23.45 69.5331 31.75C72.5331 34.75 73.4331 44.75 66.6331 51.55C63.9331 54.25 82.6331 41.95 82.7331 38.35C82.7331 34.75 81.5331 33.75 78.7331 32.75C68.4331 28.95 57.6331 20.15 48.2331 20.35C42.1331 20.45 39.3331 24.65 38.4331 26.25Z" fill="#FCD4C3"/>
</g>
<mask id="mask11_1_3022" style="mask-type:luminance" maskUnits="userSpaceOnUse" x="181" y="11" width="27" height="45">
<path d="M207.2 11.0498H181V55.2498H207.2V11.0498Z" fill="white"/>
</mask>
<g mask="url(#mask11_1_3022)">
<g opacity="0.25">
<path d="M201.2 11.0248C219.4 21.0248 190.1 36.2248 192.3 55.1248C188.5 54.7248 179.1 36.4248 181.4 34.8248C184.6 32.6248 198.1 10.2248 201.2 11.0248Z" fill="#FCD4C3"/>
</g>
</g>
<path d="M60.8001 72.4504C61.1001 71.1504 61.3001 69.7504 61.3001 68.4504C61.4001 67.0504 61.5001 65.6504 61.8001 64.3504C61.9001 63.6504 62.1001 62.9504 62.4001 62.3504C62.7001 61.7504 62.9001 61.0504 63.1001 60.4504C63.6001 59.1504 64.1001 57.8504 64.7001 56.6504C67.0001 51.5504 69.6001 46.7504 72.8001 42.2504C76.0001 37.7504 79.5001 33.5504 83.5001 29.9504C87.5001 26.2504 92.2001 23.2504 97.2001 21.2504C102.2 19.1504 107.6 17.8504 113 17.2504C118.4 16.5504 123.8 16.4504 129.2 16.5504C134.6 16.6504 140 16.9504 145.4 17.6504C150.8 18.3504 156.2 19.5504 161.4 21.4504C164 22.4504 166.5 23.5504 168.9 24.9504C171.3 26.3504 173.6 28.0504 175.7 30.0504C177.8 31.9504 179.6 34.2504 181.1 36.6504C182.6 39.0504 183.7 41.6504 184.7 44.3504C185.6 46.9504 186.3 49.6504 186.9 52.3504C187.5 55.0504 187.9 57.6504 188.5 60.1504C188.8 61.3504 189.2 62.5504 189.6 63.7504C190.1 64.9504 190.6 66.2504 191 67.5504C191.9 70.0504 192.9 72.6504 193.8 75.1504C197.3 85.3504 200.4 95.7504 202.3 106.35C203.2 111.65 203.9 117.05 204 122.45C204.1 127.85 203.6 133.25 202.1 138.45C201.7 139.75 201.3 141.05 200.8 142.25C200.3 143.45 199.6 144.65 199.2 145.95C199 146.65 198.8 147.25 198.5 147.85C198.2 148.45 197.8 149.05 197.4 149.65C196.7 150.75 195.8 151.95 194.9 152.95C191.4 157.15 186.9 160.55 182.1 163.15C177.3 165.75 172.1 167.75 166.9 169.25C161.6 170.75 156.4 171.95 151 172.95C145.6 173.95 140.3 174.65 135 175.35C132.3 175.65 129.6 175.95 126.9 176.25L122.9 176.65C121.6 176.75 120.2 176.85 118.8 176.95C107.8 177.55 96.8001 175.95 86.3001 173.05C81.0001 171.55 75.9001 169.75 70.9001 167.55C65.9001 165.35 61.0001 162.85 56.4001 159.85C54.1001 158.35 51.8001 156.65 49.7001 154.75C49.2001 154.25 48.6001 153.75 48.1001 153.25C47.6001 152.75 47.2001 152.15 46.7001 151.65C45.8001 150.55 44.9001 149.45 44.1001 148.35C41.0001 143.75 38.5001 138.35 37.7001 132.75C36.8001 127.05 37.6001 121.25 39.2001 115.95C40.8001 110.55 43.3001 105.65 45.9001 100.85C48.6001 96.1504 51.5001 91.5504 54.3001 87.0504C55.7001 84.7504 57.0001 82.4504 58.2001 80.1504C59.3001 77.1504 60.3001 74.8504 60.8001 72.4504ZM64.8001 73.3504C64.1001 76.1504 62.9001 78.7504 61.6001 81.2504C60.3001 83.7504 58.9001 86.0504 57.5001 88.3504C54.7001 92.9504 51.8001 97.4504 49.3001 102.05C46.8001 106.65 44.5001 111.45 43.1001 116.35C41.7001 121.25 41.1001 126.35 41.9001 131.35C42.7001 136.25 44.8001 140.95 47.8001 145.05C48.5001 146.05 49.4001 147.05 50.2001 148.05C50.6001 148.55 51.1001 149.05 51.5001 149.45C51.9001 149.95 52.4001 150.35 52.8001 150.75C54.6001 152.45 56.7001 153.95 58.9001 155.45C63.3001 158.25 67.9001 160.75 72.8001 162.85C77.6001 164.95 82.6001 166.75 87.7001 168.15C92.8001 169.55 97.9001 170.65 103.1 171.35C108.3 172.05 113.5 172.25 118.7 172.05C120 171.95 121.3 171.85 122.6 171.75L126.6 171.35C129.2 171.15 131.9 170.85 134.6 170.55C139.9 170.05 145.2 169.35 150.4 168.45C155.7 167.55 160.8 166.55 165.9 165.15C171 163.75 176 162.15 180.8 160.05C185.5 157.85 190.1 155.15 193.8 151.45C194.7 150.55 195.6 149.55 196.4 148.55C196.8 148.05 197.2 147.45 197.6 146.95C198 146.45 198.5 145.95 198.9 145.35C199.8 144.25 200.2 143.05 200.8 141.85C201.3 140.65 201.7 139.35 202 138.05C203.3 132.85 203.6 127.45 203.3 122.15C202.9 116.85 202 111.55 200.7 106.35C198.2 95.9504 194.5 85.9504 190.6 76.0504C189.6 73.5504 188.6 71.0504 187.6 68.6504L186 64.9504C185.5 63.6504 185 62.2504 184.6 60.9504C183.9 58.2504 183.4 55.6504 182.8 53.0504C182.3 50.4504 181.6 47.9504 180.8 45.5504C179.1 40.6504 176.6 36.2504 172.9 32.7504C169.3 29.2504 164.8 26.5504 160 24.5504C155.2 22.5504 150 21.2504 144.8 20.3504C139.6 19.4504 134.3 18.9504 129 18.6504C123.7 18.4504 118.3 18.3504 113 18.9504C107.7 19.5504 102.5 20.6504 97.6001 22.7504C92.7001 24.7504 88.2001 27.6504 84.4001 31.2504C80.5001 34.8504 77.4001 39.2504 75.1001 43.8504C72.7001 48.5504 71.0001 53.5504 69.5001 58.5504C69.1001 59.7504 68.8001 61.0504 68.5001 62.3504C68.3001 62.9504 68.2001 63.6504 68.0001 64.2504C67.9001 64.5504 67.9001 64.9504 67.8001 65.2504C67.7001 65.5504 67.6001 65.8504 67.4001 66.1504C66.9001 67.3504 66.3001 68.5504 65.7001 69.7504C65.5001 70.8504 65.1001 72.0504 64.8001 73.3504Z" fill="#E5D0AE"/>
<path d="M62.8001 72.9505C58.6001 91.5505 21.9001 120.95 49.8001 151.05C59.3001 161.25 90.1001 176.95 121 174.05C201.4 166.45 221.7 147.05 187.8 63.8505C182.3 50.3505 188.5 19.1505 129.4 17.3505C104.6 16.6505 74.8001 20.0504 62.8001 72.9505Z" fill="#FFF8EE"/>
<path d="M76.7 36.55C79.3 32.55 82.7 29.25 86.5 26.55C90.3 23.85 94.6 21.85 98.9 20.25C107.7 17.05 116.9 15.85 126.1 15.55C135.3 15.35 144.6 16.05 153.6 18.35C158.1 19.55 162.5 21.15 166.7 23.45C170.9 25.75 174.8 28.55 178.1 32.05C181.4 35.55 184.1 39.45 186.2 43.75C188.3 48.05 189.8 52.55 190.9 57.05C192 61.65 192.7 66.15 193.3 70.65C193.6 72.95 193.9 75.15 194.4 77.25C194.6 78.35 194.9 79.35 195.2 80.15C195.3 80.35 195.4 80.55 195.5 80.75L195.6 80.85L195.7 80.95L195.9 81.35L196.8 82.85C201.2 90.95 204.5 99.85 205.7 109.15C206.3 113.75 206.4 118.45 205.9 123.15C205.4 127.75 204.2 132.35 202.4 136.65C201.5 138.75 200.5 140.85 199.3 142.95C199 143.45 198.7 143.95 198.4 144.45C198.1 144.95 197.8 145.35 197.4 145.95C197.3 146.05 197.3 146.15 197.2 146.25C196.9 146.05 197.6 146.95 195.6 146.25C195.1 145.35 195.4 145.55 195.3 145.35C195.3 145.05 195.4 144.95 195.4 144.75L195.7 143.85L196.2 142.25C197.6 137.95 198.8 133.65 199.3 129.15C199.5 126.95 199.6 124.75 199.3 122.45C199 120.25 198.4 118.15 197.3 116.35C197 115.85 196.7 115.45 196.3 115.05C195.9 114.65 195.6 114.25 195.2 113.85C194.4 113.05 193.6 112.35 192.7 111.65C190.9 110.25 189 109.15 187 108.15C182.9 106.35 178.4 105.65 174 105.85C169.5 106.05 165.1 106.95 160.8 108.15C158.6 108.75 156.5 109.45 154.3 110.15C153.2 110.55 152.1 110.85 151 111.15C150.4 111.35 149.9 111.45 149.2 111.55C148.6 111.65 148.1 111.75 147.5 111.75C142.9 112.25 138.4 112.55 133.7 112.45C129.1 112.35 124.5 111.85 119.9 110.85C115.4 109.85 110.9 108.35 106.7 106.45C102.5 104.45 98.5 102.05 94.9 99.05C91.3 96.05 88.1 92.65 85.3 88.95C79.7 81.45 76 72.75 74.2 63.65C73.3 59.05 72.9 54.45 73.1 49.75C73.2 47.45 73.5 45.05 74 42.75C74.6 40.95 75.4 38.65 76.7 36.55ZM78.7 37.85C77.6 39.65 76.9 41.65 76.4 43.85C75.9 45.95 75.7 48.15 75.5 50.35C75.3 54.75 75.8 59.25 76.7 63.55C78.6 72.25 82.3 80.55 87.7 87.55C90.4 91.05 93.5 94.25 96.9 97.05C100.3 99.85 104.1 102.25 108.1 104.15C112.1 106.05 116.3 107.45 120.7 108.45C125 109.45 129.5 110.05 133.9 110.15C138.4 110.35 142.8 110.15 147.3 109.65L149 109.45C149.5 109.35 150 109.25 150.6 109.15C151.7 108.85 152.7 108.55 153.8 108.25C156 107.65 158.2 106.95 160.4 106.45C164.8 105.35 169.4 104.55 174.1 104.55C178.7 104.55 183.4 105.35 187.6 107.35C189.7 108.35 191.7 109.55 193.5 110.95C194.4 111.65 195.3 112.45 196.1 113.25C196.5 113.65 196.9 114.05 197.3 114.45C197.7 114.85 198.1 115.35 198.4 115.85C199.7 117.85 200.4 120.15 200.7 122.55C201 124.95 201 127.25 200.8 129.55C200.4 134.15 199.4 138.65 198.1 143.05L197.6 144.65L197.4 145.45C197.4 145.55 197.3 145.75 197.4 145.75C197.3 145.65 197.6 145.95 197.2 145.05C195.3 144.35 196 145.25 195.8 144.95C196 144.55 196.3 144.05 196.6 143.55C196.9 143.05 197.1 142.55 197.4 142.05C198.4 140.05 199.3 138.05 200.1 135.95C203.1 127.65 203.7 118.55 202.2 109.85C201.5 105.45 200.2 101.25 198.6 97.15C197 93.05 195.1 89.05 192.9 85.15L192.1 83.75L191.9 83.35L191.8 83.15L191.7 82.95C191.5 82.65 191.4 82.35 191.3 82.05C190.8 80.85 190.5 79.55 190.2 78.45C189.7 76.15 189.3 73.85 189 71.65C188.3 67.15 187.7 62.75 186.6 58.45C185.6 54.15 184.2 49.95 182.3 46.05C180.4 42.15 178.1 38.55 175.1 35.35C169.3 29.05 161.3 24.85 152.8 22.35C144.3 19.85 135.3 19.05 126.3 19.05C117.4 19.05 108.4 20.15 100 22.95C95.8 24.35 91.8 26.25 88.1 28.75C84.3 31.15 81.1 34.15 78.7 37.85Z" fill="#E5BFA1"/>
<path d="M75.4999 36.0497C76.9999 33.6497 78.7999 31.7497 80.5999 29.9497C82.4999 28.1497 84.4999 26.6497 86.5999 25.2497C90.7999 22.4497 95.2999 20.2497 99.9999 18.5497C109.4 15.2497 119.3 13.9497 129.1 14.1497C138.8 14.4497 148.6 15.6497 158 19.0497C162.7 20.7497 167.2 22.9497 171.3 25.9497C175.4 28.8497 179 32.4497 182 36.5497C184.9 40.6497 187.1 45.1497 188.8 49.8497C190.4 54.5497 191.5 59.3497 192.3 64.0497C192.7 66.4497 193 68.7497 193.4 71.1497C193.8 73.4497 194.1 75.8497 194.5 77.9497C194.7 79.0497 195 80.0497 195.4 80.8497L195.5 81.0497L195.6 81.2497L195.8 81.6497L196.2 82.4497L197.1 84.0497C198.2 86.1497 199.3 88.3497 200.3 90.5497C202.2 94.9497 203.8 99.6497 204.9 104.45C206 109.15 206.5 114.05 206.5 118.95C206.4 128.75 203.7 138.45 198.6 146.75C198.2 147.35 197.4 147.65 196.8 147.25C196.2 146.85 196 146.15 196.2 145.65C197.6 142.05 199.1 138.65 200.2 135.15C201.4 131.65 202.2 128.05 202.2 124.55C202.2 121.05 201.3 117.65 199.2 114.95C199.1 114.75 198.9 114.55 198.8 114.45L198.6 114.25L198.4 113.95C198.1 113.65 197.8 113.35 197.5 113.05C196.9 112.45 196.2 111.85 195.5 111.35C194.1 110.25 192.5 109.25 191 108.25C184.7 104.35 178 100.95 171.2 97.5497C164.4 94.2497 157.5 91.0497 150.7 87.9497C136.9 81.6497 123.1 75.3497 109.5 68.5497C102.7 65.0497 95.9999 61.5497 89.3999 57.3497C85.8999 54.8497 82.6999 52.6497 79.5999 49.8497C78.0999 48.4497 76.5999 46.8497 75.3999 44.6497C74.7999 43.5497 74.3 42.2497 74.2 40.6497C74.2 39.8497 74.1999 39.0497 74.3999 38.2497C74.4999 37.8497 74.5999 37.4497 74.7999 37.0497C74.8999 36.7497 75.1999 36.1497 75.2999 36.0497H75.4999ZM81.0999 39.4497C80.8999 39.7497 80.9999 39.6497 80.8999 39.7497C80.8999 39.8497 80.8999 39.8497 80.7999 39.9497C80.7999 40.0497 80.7999 40.1497 80.7999 40.3497C80.7999 40.6497 81 41.1497 81.2 41.7497C81.8 42.9497 82.8999 44.2497 84.0999 45.3497C86.5999 47.7497 89.4999 49.9497 92.5999 51.9497C98.6999 56.0497 105.3 59.6497 112 63.2497C125.3 70.2497 139 76.7497 152.6 83.3497C159.4 86.6497 166.2 90.0497 173 93.4497C179.8 96.9497 186.5 100.45 193 104.75C194.6 105.85 196.2 106.95 197.7 108.25C198.5 108.85 199.2 109.55 200 110.25C200.4 110.65 200.7 110.95 201.1 111.45L201.3 111.75L201.6 112.05C201.8 112.25 201.9 112.45 202.1 112.65C203.3 114.35 204.2 116.25 204.8 118.25C205.4 120.25 205.5 122.35 205.5 124.35C205.4 128.35 204.3 132.25 203 135.95C201.7 139.65 200.1 143.05 198.6 146.55L196.2 145.35C200.9 137.35 203.1 128.15 203 118.95C202.8 109.75 200.4 100.65 196.5 92.2497C195.5 90.1497 194.5 88.0497 193.3 86.0497L191.5 82.8497C190.8 81.5497 190.5 80.2497 190.2 79.0497C189.6 76.5497 189.2 74.2497 188.8 71.8497C188.4 69.4497 188 67.1497 187.6 64.9497C186.7 60.3497 185.6 55.9497 184 51.6497C182.4 47.4497 180.3 43.3497 177.7 39.8497C175.1 36.2497 171.8 33.1497 168.2 30.6497C164.5 28.1497 160.5 26.1497 156.2 24.7497C147.6 21.8497 138.4 20.8497 129.2 20.7497C124.6 20.7497 120.1 20.9497 115.6 21.7497C111.1 22.4497 106.7 23.5497 102.5 25.0497C98.2999 26.5497 94.1999 28.4497 90.4999 30.8497C88.5999 32.0497 86.9 33.3497 85.2999 34.8497C83.6999 36.3497 82.1999 37.8497 81.0999 39.4497Z" fill="#895B2E"/>
<path d="M77.7 37.1503C66.7 54.1503 79.8 119.45 148.9 110.65C156.2 109.75 180.5 96.7503 196.9 114.95C205.8 124.95 193.8 150.25 196.9 144.95C200.4 139.15 213.8 116.75 193.7 82.2503C187.3 71.1503 197.9 17.8503 128.7 17.1503C102.2 17.0503 85 25.8503 77.7 37.1503Z" fill="#BA8449"/>
<mask id="mask12_1_3022" style="mask-type:luminance" maskUnits="userSpaceOnUse" x="61" y="33" width="118" height="113">
<path d="M178.9 33.4502H61.6001V145.35H178.9V33.4502Z" fill="white"/>
</mask>
<g mask="url(#mask12_1_3022)">
<g opacity="0.15">
<path d="M75.8681 41.2836C95.7681 28.4836 155.968 29.3836 175.168 60.0836C187.968 80.4836 164.568 130.884 155.868 137.284C147.268 143.684 135.268 149.284 103.668 141.684C76.8681 135.284 117.168 110.384 85.7681 106.784C57.0681 103.484 54.1681 55.2836 75.8681 41.2836Z" fill="#E3AB5E"/>
</g>
</g>
<mask id="mask13_1_3022" style="mask-type:luminance" maskUnits="userSpaceOnUse" x="118" y="88" width="14" height="6">
<path d="M131.5 88.0498H118.4V93.5498H131.5V88.0498Z" fill="white"/>
</mask>
<g mask="url(#mask13_1_3022)">
<g opacity="0.25">
<path d="M131.5 90.8156C131.5 92.3156 128.6 93.6156 125 93.6156C121.4 93.6156 118.5 92.4156 118.5 90.8156C118.5 89.3156 121.4 88.0156 125 88.0156C128.6 88.1156 131.5 89.3156 131.5 90.8156Z" fill="#E3AB5E"/>
</g>
</g>
<path d="M120 82.6501C121.5 81.6501 129.5 81.9501 130.5 83.0501C131.5 84.0501 133.7 88.2501 131.2 90.0501C130.3 90.6501 130.3 88.1501 128.3 88.5501C125.9 89.0501 127.2 92.1501 125.3 92.1501C122.4 92.0501 125.2 88.7501 122.7 88.3501C120.8 87.9501 120.4 89.8501 119.5 89.6501C116.6 89.0501 117.9 84.0501 120 82.6501Z" fill="#F8A38F"/>
<mask id="mask14_1_3022" style="mask-type:luminance" maskUnits="userSpaceOnUse" x="117" y="82" width="16" height="10">
<path d="M132.3 82.0498H117.8V91.9498H132.3V82.0498Z" fill="white"/>
</mask>
<g mask="url(#mask14_1_3022)">
<path d="M124.321 82.0547C122.421 82.0547 120.621 82.2547 120.021 82.6547C117.921 84.0547 116.621 89.0547 119.421 89.5547H119.521C120.221 89.5547 120.621 88.1547 122.121 88.1547C122.321 88.1547 122.421 88.1547 122.621 88.1547C125.121 88.5547 122.421 91.9547 125.221 91.9547C127.021 91.9547 125.721 88.9547 128.221 88.4547C128.421 88.4547 128.521 88.4547 128.621 88.4547C130.021 88.4547 130.221 90.0547 130.821 90.0547C130.921 90.0547 131.021 90.0547 131.121 89.9547C133.721 88.1547 131.521 83.9547 130.421 82.9547C129.921 82.4547 127.021 82.0547 124.321 82.0547ZM124.321 82.7547C127.321 82.7547 129.621 83.1547 130.021 83.4547C130.621 84.0547 131.821 86.2547 131.621 87.8547C131.521 88.4547 131.321 88.9547 130.921 89.2547C130.921 89.1547 130.821 89.1547 130.721 89.0547C130.321 88.5547 129.721 87.7547 128.621 87.7547C128.421 87.7547 128.221 87.7547 128.121 87.8547C126.421 88.2547 126.121 89.5547 125.821 90.4547C125.621 91.3547 125.521 91.3547 125.221 91.3547C124.421 91.3547 124.421 91.1547 124.421 90.2547C124.421 89.3547 124.421 87.9547 122.621 87.6547C122.421 87.6547 122.221 87.6547 122.021 87.6547C120.921 87.6547 120.221 88.3547 119.721 88.7547C119.621 88.8547 119.421 89.0547 119.321 89.0547C118.921 88.9547 118.521 88.7547 118.321 87.9547C118.021 86.5547 119.021 84.1547 120.121 83.3547C120.721 82.9547 122.121 82.7547 124.321 82.7547Z" fill="#F8A38F"/>
</g>
<mask id="mask15_1_3022" style="mask-type:luminance" maskUnits="userSpaceOnUse" x="74" y="93" width="113" height="65">
<path d="M186.9 93.75H74V157.85H186.9V93.75Z" fill="white"/>
</mask>
<g mask="url(#mask15_1_3022)">
<g opacity="0.25">
<path d="M186.699 108.9C189.699 128.1 165.699 152.2 133.399 157.2C101.099 162.1 77.2986 133.3 74.2986 114C71.2986 94.8001 91.0986 102.1 123.399 97.2001C155.699 92.3001 183.699 89.7002 186.699 108.9Z" fill="#F7E8D0"/>
</g>
</g>
<mask id="mask16_1_3022" style="mask-type:luminance" maskUnits="userSpaceOnUse" x="79" y="94" width="95" height="49">
<path d="M173.5 94.75H79.8999V142.25H173.5V94.75Z" fill="white"/>
</mask>
<g mask="url(#mask16_1_3022)">
<g opacity="0.5">
<path d="M102.415 138.126C101.515 136.726 101.015 135.026 100.515 133.426C100.015 131.826 99.5148 130.226 99.0148 128.626C98.0148 125.426 96.9148 122.226 95.4148 119.226C93.9148 116.226 92.0148 113.426 89.6148 111.326C87.2148 109.226 84.3148 107.826 81.2148 107.226C80.1148 106.826 79.6148 105.726 80.0148 104.726C80.4148 103.726 81.4148 103.226 82.3148 103.426C89.5148 105.126 97.0148 105.926 104.415 106.026C111.815 106.126 119.415 105.726 126.915 104.826C134.415 103.926 141.815 102.626 149.115 100.926C156.415 99.2265 163.715 97.2265 170.815 94.8265C171.915 94.4265 173.015 95.0265 173.315 96.0265C173.615 96.8265 173.315 97.6265 172.715 98.1265C172.515 98.3265 172.115 98.6265 171.815 98.9265C171.515 99.2265 171.215 99.6265 170.915 99.9265C170.315 100.626 169.715 101.426 169.115 102.226C167.915 103.826 166.815 105.426 165.815 107.126C163.615 110.426 161.615 113.826 159.715 117.326C157.815 120.826 155.915 124.326 154.215 127.826C153.315 129.626 152.515 131.426 151.815 133.226C151.415 134.126 151.115 135.026 150.715 136.026C150.515 136.526 150.415 136.926 150.315 137.426C150.315 137.426 150.315 137.526 150.315 137.626C150.315 137.726 150.315 137.726 150.215 137.826C150.215 137.926 150.115 138.026 150.015 138.026C149.915 138.126 149.815 138.226 149.615 138.326C149.415 138.526 149.115 138.626 148.915 138.726C147.015 139.526 145.015 139.926 143.115 140.326C141.215 140.726 139.215 141.026 137.215 141.226C133.215 141.726 129.315 142.126 125.315 142.226C121.315 142.426 117.315 142.426 113.415 142.026C111.415 141.826 109.415 141.526 107.515 141.026C106.515 140.726 105.615 140.426 104.715 139.926C103.815 139.526 103.015 138.926 102.415 138.126ZM102.515 138.026C103.015 138.826 103.915 139.426 104.815 139.826C105.715 140.226 106.615 140.526 107.615 140.826C109.515 141.326 111.515 141.626 113.515 141.726C117.515 142.026 121.415 142.026 125.415 141.826C129.415 141.626 133.315 141.126 137.215 140.626C139.115 140.326 141.115 140.026 143.015 139.526C144.915 139.026 146.915 138.626 148.615 137.826C148.815 137.726 149.015 137.626 149.215 137.426C149.415 137.326 149.515 137.226 149.515 137.126C149.615 136.626 149.715 136.126 149.915 135.626C150.215 134.626 150.515 133.726 150.815 132.726C151.515 130.826 152.215 129.026 153.015 127.126C154.615 123.426 156.215 119.826 157.915 116.226C159.615 112.626 161.415 109.026 163.315 105.526C164.215 103.726 165.215 102.026 166.315 100.226C166.815 99.3265 167.415 98.4265 168.015 97.6265C168.315 97.2265 168.615 96.7265 168.915 96.3265C169.315 95.9265 169.615 95.4265 170.115 95.0265L172.015 98.4265C164.715 100.926 157.415 102.926 149.915 104.626C142.415 106.326 134.915 107.726 127.315 108.626C119.715 109.526 112.015 110.026 104.315 109.826C96.6148 109.626 88.9148 108.726 81.3148 106.926L82.4147 102.926C85.7147 104.926 88.7148 106.826 91.0148 109.526C93.3148 112.226 94.9148 115.326 96.2148 118.526C97.4148 121.726 98.4148 125.026 99.2148 128.226C99.6148 129.826 100.115 131.526 100.515 133.126C101.115 135.026 101.615 136.626 102.515 138.026Z" fill="#D8CAB2"/>
</g>
</g>
<mask id="mask17_1_3022" style="mask-type:luminance" maskUnits="userSpaceOnUse" x="80" y="95" width="93" height="48">
<path d="M172.5 95.75H80.8999V142.25H172.5V95.75Z" fill="white"/>
</mask>
<g mask="url(#mask17_1_3022)">
<g opacity="0.5">
<path d="M102.432 138.139C101.532 136.739 101.032 135.139 100.532 133.539C100.032 131.939 99.6324 130.339 99.1324 128.739C98.1324 125.539 97.1324 122.339 95.6324 119.239C94.2324 116.239 92.3324 113.439 90.0324 111.239C87.6324 108.939 84.7324 107.339 81.6324 106.639V106.539C81.1324 106.339 80.8324 105.739 81.0324 105.239C81.2324 104.739 81.7324 104.439 82.2324 104.539C89.5324 106.239 97.0324 107.039 104.632 107.139C112.232 107.239 119.732 106.839 127.232 105.939C134.732 105.039 142.132 103.639 149.532 102.039C156.932 100.339 164.232 98.3386 171.332 95.9386C171.832 95.7386 172.432 96.0386 172.632 96.5386C172.732 96.9386 172.632 97.3386 172.332 97.6386C171.732 98.1386 171.032 98.9386 170.432 99.6386C169.832 100.339 169.232 101.239 168.632 101.939C167.532 103.539 166.432 105.239 165.432 106.939C163.332 110.239 161.332 113.739 159.432 117.239C157.532 120.739 155.732 124.239 154.132 127.839C153.332 129.639 152.532 131.439 151.732 133.239C151.332 134.139 151.032 135.039 150.732 136.039C150.532 136.539 150.432 136.939 150.332 137.439C150.232 137.839 149.932 137.939 149.732 138.139C149.532 138.339 149.232 138.439 149.032 138.539C147.132 139.339 145.132 139.739 143.232 140.139C141.332 140.539 139.332 140.839 137.332 141.139C133.432 141.639 129.432 142.039 125.432 142.239C121.432 142.439 117.432 142.439 113.532 142.039C111.532 141.839 109.532 141.539 107.632 141.039C106.632 140.739 105.732 140.439 104.832 140.039C103.832 139.539 102.932 138.939 102.432 138.139ZM102.432 138.039C102.932 138.839 103.832 139.439 104.732 139.939C105.632 140.339 106.532 140.639 107.532 140.939C109.432 141.439 111.432 141.739 113.432 141.839C117.432 142.239 121.332 142.139 125.332 141.939C129.332 141.739 133.232 141.339 137.232 140.739C139.132 140.439 141.132 140.139 143.132 139.639C145.032 139.239 147.032 138.739 148.732 137.939C148.932 137.839 149.132 137.739 149.332 137.539C149.532 137.439 149.732 137.239 149.732 137.139C149.832 136.639 149.932 136.139 150.132 135.639C150.432 134.639 150.732 133.739 151.132 132.839C151.832 130.939 152.632 129.139 153.432 127.339C155.032 123.639 156.732 120.139 158.532 116.539C160.332 112.939 162.132 109.439 164.132 105.939C165.132 104.139 166.132 102.439 167.232 100.839C167.732 99.9386 168.332 99.1386 168.932 98.3386C169.532 97.5386 170.132 96.7386 171.032 95.9386L172.032 97.7386C164.832 100.239 157.432 102.239 150.032 103.939C142.632 105.639 135.132 106.939 127.532 107.939C119.932 108.839 112.332 109.339 104.632 109.139C97.0324 108.939 89.3324 108.139 81.8324 106.439L82.3324 104.539C85.6324 105.839 88.6324 107.839 90.9324 110.439C93.2324 113.039 94.9324 116.039 96.2324 119.139C97.5324 122.239 98.5324 125.439 99.4324 128.739C99.8324 130.339 100.332 131.939 100.832 133.639C101.032 135.039 101.532 136.639 102.432 138.039Z" fill="#D8CAB2"/>
</g>
</g>
<path d="M102.5 138.05C107.6 146.05 149.3 140.55 150 137.35C151.8 129.25 166.8 100.65 171.6 96.6504C163 99.6504 118.3 113.95 82 105.25C98.3 110.75 98.5 131.85 102.5 138.05Z" fill="#333333"/>
<mask id="mask18_1_3022" style="mask-type:luminance" maskUnits="userSpaceOnUse" x="81" y="96" width="91" height="47">
<path d="M171.5 96.75H81.8999V142.15H171.5V96.75Z" fill="white"/>
</mask>
<g mask="url(#mask18_1_3022)">
<path d="M171.45 96.7998C164.75 99.0998 136.55 108.2 107.35 108.2C98.7499 108.2 90.1499 107.4 81.8499 105.5C98.2499 110.8 98.4498 132 102.45 138.2C104.35 141.2 111.65 142.3 119.95 142.3C133.35 142.3 149.45 139.5 149.95 137.5C151.75 129.3 166.65 100.7 171.45 96.7998ZM165.85 100.7C159.35 110.5 149.95 129.4 148.05 136.5C145.55 137.9 132.65 140.3 119.95 140.3C109.75 140.3 105.15 138.6 104.15 137.1C103.15 135.6 102.35 132.8 101.55 129.6C99.8498 123.5 97.4498 115.1 91.7498 109.3C96.7498 109.9 101.95 110.2 107.45 110.2C131.25 110.1 154.55 104.1 165.85 100.7Z" fill="#333333"/>
</g>
<path d="M119.6 142.25C111 142.25 105.4 141.05 103.2 138.65C103 138.45 103 137.25 104 134.95C106.4 129.45 113.8 120.05 126.6 119.25C127.5 119.25 128.3 119.15 129.1 119.15C144.1 119.15 153.1 126.75 153.1 128.05C152.9 128.45 152.7 129.05 152.4 129.85C151.6 131.75 150.4 134.75 149.3 137.95C148 139.25 133 142.25 119.6 142.25Z" fill="#FCD4C3"/>
<path d="M129.1 118.65C128.2 118.65 127.4 118.65 126.5 118.75C109 119.85 100.9 137.15 102.7 139.25C105.3 142.05 112 143.05 119.6 143.05C133.1 143.05 149.4 139.95 149.9 138.45C151.4 133.95 153.1 130.25 153.8 128.45C154.4 126.65 144.3 118.55 129.1 118.65ZM129.1 119.95C142.5 119.95 151.5 126.35 152.4 128.25C152.2 128.65 152 129.15 151.8 129.75C151 131.65 149.8 134.45 148.7 137.65C146.6 138.85 132.6 141.55 119.6 141.55C111.5 141.55 105.9 140.35 103.8 138.25C103.7 137.55 104.4 134.75 106.9 131.25C109.1 128.05 115.5 120.55 126.6 119.95C127.4 119.95 128.3 119.95 129.1 119.95Z" fill="#F8A38F"/>
<mask id="mask19_1_3022" style="mask-type:luminance" maskUnits="userSpaceOnUse" x="103" y="118" width="51" height="21">
<path d="M153.2 118.25H103V138.95H153.2V118.25Z" fill="white"/>
</mask>
<g mask="url(#mask19_1_3022)">
<path d="M102.984 138.167C101.784 143.567 134.884 117.067 152.684 129.767C156.384 124.867 136.684 116.567 125.184 118.467C115.484 120.167 105.484 126.367 102.984 138.167Z" fill="#FCD4C3"/>
</g>
<path d="M109.7 109.65C111.4 112.65 114.5 127.25 115.8 127.55C117.1 127.85 125.3 130.15 126.4 129.65C127.6 129.15 127.5 126.35 128.7 127.15C129.7 127.85 130.2 129.15 131.2 128.65C133 127.75 138.3 124.45 139.2 123.05C140 121.55 139.9 113.25 139.2 106.65C135.8 108.25 115.7 110.35 109.7 109.65Z" fill="#FFF7E3"/>
<mask id="mask20_1_3022" style="mask-type:luminance" maskUnits="userSpaceOnUse" x="109" y="106" width="31" height="24">
<path d="M139.8 106.75H109.7V129.95H139.8V106.75Z" fill="white"/>
</mask>
<g mask="url(#mask20_1_3022)">
<path d="M139.25 106.7C136.25 108 120.55 109.8 112.65 109.8C111.45 109.8 110.55 109.8 109.75 109.7C111.45 112.7 114.55 127.3 115.85 127.6C117.05 127.9 123.85 129.8 125.95 129.8C126.15 129.8 126.35 129.8 126.45 129.7C127.45 129.3 127.55 127.1 128.35 127.1C128.45 127.1 128.65 127.1 128.75 127.3C129.65 127.8 130.05 128.9 130.85 128.9C130.95 128.9 131.15 128.9 131.25 128.8C133.05 127.9 138.35 124.6 139.25 123.2C140.15 121.7 139.95 113.4 139.25 106.7ZM138.75 107.6C139.35 114.4 139.35 121.6 138.75 122.8C138.05 124 133.25 127.1 131.05 128.2H130.95C130.75 128.2 130.45 127.9 130.25 127.6C129.95 127.3 129.65 127 129.25 126.7C128.95 126.5 128.75 126.4 128.45 126.4C127.55 126.4 127.25 127.3 126.95 128C126.75 128.4 126.55 129 126.25 129.1C126.25 129.1 126.15 129.1 125.95 129.1C124.25 129.1 119.15 127.7 117.05 127.2C116.65 127.1 116.35 127 116.15 127C115.55 126.3 114.25 121.6 113.25 118.2C112.35 115.1 111.55 112.2 110.85 110.5C111.35 110.5 112.05 110.5 112.75 110.5C120.25 110.5 134.25 108.9 138.75 107.6Z" fill="#FFDC99"/>
</g>
<mask id="mask21_1_3022" style="mask-type:luminance" maskUnits="userSpaceOnUse" x="109" y="106" width="31" height="11">
<path d="M139.5 106.35H109.8V116.65H139.5V106.35Z" fill="white"/>
</mask>
<g mask="url(#mask21_1_3022)">
<path d="M112.051 116.699C111.551 111.299 136.451 109.499 139.551 109.999C139.551 108.699 139.351 107.899 139.351 106.399C135.251 108.499 112.851 110.699 109.851 109.799C110.151 110.399 111.251 113.399 112.051 116.699Z" fill="#EADCBE"/>
</g>
<mask id="mask22_1_3022" style="mask-type:luminance" maskUnits="userSpaceOnUse" x="123" y="112" width="7" height="16">
<path d="M129.4 112.65H123.9V127.35H129.4V112.65Z" fill="white"/>
</mask>
<g mask="url(#mask22_1_3022)">
<path d="M124.458 112.618C124.958 113.818 125.458 114.918 125.858 116.118C126.258 117.318 126.658 118.518 127.058 119.718L128.158 123.318L129.258 126.918L127.558 127.418L126.758 123.718L125.858 120.018C125.558 118.818 125.258 117.618 124.958 116.418C124.558 115.218 124.258 114.018 123.858 112.918L124.458 112.618Z" fill="#FFDC99"/>
</g>
<mask id="mask23_1_3022" style="mask-type:luminance" maskUnits="userSpaceOnUse" x="39" y="20" width="40" height="37">
<path d="M78.4 20.3496H39V56.0496H78.4V20.3496Z" fill="white"/>
</mask>
<g mask="url(#mask23_1_3022)">
<g opacity="0.4">
<path d="M40.284 27.9664C53.484 31.3664 51.384 54.1664 59.184 55.9664C67.084 57.7664 77.384 37.1664 78.384 32.6664C63.184 26.1664 56.084 18.5664 45.184 20.7664C41.584 21.4664 36.584 26.9664 40.284 27.9664Z" fill="#FCD4C3"/>
</g>
</g>
<mask id="mask24_1_3022" style="mask-type:luminance" maskUnits="userSpaceOnUse" x="59" y="57" width="135" height="44">
<path d="M193.5 57.5498H59.8V100.05H193.5V57.5498Z" fill="white"/>
</mask>
<g mask="url(#mask24_1_3022)">
<g opacity="0.5">
<path d="M76.8671 94.6826C93.4671 95.9826 107.167 96.6826 112.067 91.5826C116.967 86.4826 118.767 63.8826 126.767 64.4826C133.567 64.9826 135.867 94.3826 140.267 95.1826C144.667 96.0826 175.767 104.583 183.567 96.5826C191.267 88.5826 194.867 83.5826 193.067 78.7826C191.267 73.9826 145.767 58.4826 136.467 57.5826C127.167 56.6826 64.3671 64.5826 62.7671 68.4826C61.1671 72.4826 59.4671 71.8826 59.7671 76.0826C60.3671 84.1826 60.2671 93.3826 76.8671 94.6826Z" fill="#E3AB5E"/>
</g>
</g>
<path d="M123.4 61.2496C124.6 61.2496 129.3 60.8496 130.4 61.7496C136.4 66.4496 136.2 85.7496 142.5 91.7496C148.1 97.1496 178.7 101.05 184 94.9496C189.3 88.8496 197.1 70.2496 198.9 68.8496C200.7 67.5496 204.7 66.5496 205.9 64.6496C207.1 62.8496 206.1 54.6496 203.3 55.0496C200.5 55.4496 195.2 57.1496 191.9 56.2496C188.6 55.2496 172.5 45.1496 132 51.2496C128.1 51.8496 124.2 51.2496 121.5 50.5496C118.8 49.8496 103.6 41.0496 62.9001 46.8496C58.9001 47.4496 53.3001 45.6496 51.3001 45.8496C49.3001 46.0496 48.7001 52.3496 49.5001 53.9496C50.3001 55.5496 54.5001 56.9496 55.0001 58.9496C55.5001 60.9496 59.2001 80.5496 68.8001 88.6496C79.0001 97.2496 105 91.2496 107.3 89.6496C117.6 82.3496 119.9 61.2496 123.4 61.2496Z" fill="#333333"/>
<mask id="mask25_1_3022" style="mask-type:luminance" maskUnits="userSpaceOnUse" x="49" y="44" width="158" height="55">
<path d="M206.3 44.9502H49V98.0502H206.3V44.9502Z" fill="white"/>
</mask>
<g mask="url(#mask25_1_3022)">
<path d="M88.338 44.9736C81.238 44.9736 72.738 45.4736 62.738 46.9736C62.138 47.0736 61.538 47.0736 60.938 47.0736C57.438 47.0736 53.338 45.9736 51.438 45.9736C51.338 45.9736 51.238 45.9736 51.138 45.9736C49.138 46.1736 48.538 52.4736 49.338 54.0736C50.138 55.7736 54.338 57.0736 54.838 59.0736C55.338 61.0736 59.038 80.6737 68.638 88.7737C72.638 92.1737 79.238 93.2737 85.838 93.2737C95.838 93.2737 105.738 90.7737 107.138 89.7737C117.538 82.3736 119.938 61.2737 123.438 61.2737C123.938 61.2737 125.238 61.1736 126.438 61.1736C128.038 61.1736 129.738 61.2736 130.338 61.6736C136.338 66.3736 136.138 85.6736 142.438 91.6736C146.038 95.0736 159.838 97.9736 170.638 97.9736C176.738 97.9736 181.938 97.0736 183.838 94.8736C189.138 88.7736 196.938 70.1737 198.738 68.7737C200.538 67.3737 204.538 66.4736 205.738 64.5736C206.838 62.7736 205.938 54.9736 203.238 54.9736C203.238 54.9736 203.138 54.9736 203.038 54.9736C200.838 55.2736 197.038 56.3736 193.938 56.3736C193.138 56.3736 192.338 56.2736 191.638 56.0736C189.038 55.2736 178.938 49.1736 155.938 49.1736C149.038 49.1736 141.038 49.6736 131.738 51.0736C130.638 51.2736 129.438 51.2737 128.438 51.2737C125.738 51.2737 123.238 50.8736 121.338 50.3736C119.338 50.1736 110.138 44.9736 88.338 44.9736ZM88.338 46.9736C106.438 46.9736 115.738 50.5736 119.138 51.9736C119.838 52.2736 120.338 52.4736 120.838 52.5736C122.638 52.9736 125.338 53.5736 128.438 53.5736C129.638 53.5736 130.938 53.4737 132.038 53.2737C140.538 51.9737 148.538 51.3736 155.938 51.3736C174.938 51.3736 184.838 55.5736 189.138 57.4736C190.038 57.8736 190.638 58.0737 191.138 58.2737C192.038 58.5737 192.938 58.6736 194.038 58.6736C196.238 58.6736 198.638 58.1737 200.638 57.7737C201.538 57.5737 202.438 57.3737 203.138 57.2737C204.038 58.2737 204.638 62.6736 204.138 63.8736C203.738 64.4736 202.038 65.2737 200.838 65.7737C199.638 66.2737 198.538 66.7736 197.738 67.3736C196.638 68.1736 195.538 70.2736 192.338 76.6736C189.238 82.7736 185.438 90.3736 182.538 93.6736C181.538 94.8736 177.938 96.0736 170.738 96.0736C160.238 96.0736 146.838 93.2736 143.838 90.3736C141.038 87.7736 139.638 81.6737 138.238 75.7737C136.638 69.1737 135.138 62.9736 131.638 60.1736C130.738 59.4736 129.338 59.1736 126.538 59.1736C125.738 59.1736 124.938 59.1736 124.338 59.1736C123.938 59.1736 123.638 59.1736 123.438 59.1736C120.638 59.1736 119.438 62.4736 117.338 68.4736C115.038 75.0736 111.738 83.9736 106.038 88.0736C104.738 88.8736 95.338 91.2737 85.838 91.2737C78.538 91.2737 73.038 89.8736 69.938 87.2737C66.138 84.0737 60.838 76.5736 57.038 59.4736C56.938 59.0736 56.838 58.7736 56.838 58.5736C56.338 56.6736 54.538 55.5736 53.038 54.5736C52.438 54.1736 51.438 53.4736 51.238 53.1736C50.838 52.2736 51.238 48.9736 51.838 47.8736C52.538 47.8736 53.538 48.0737 54.638 48.2737C56.538 48.5737 58.938 48.9736 61.138 48.9736C61.838 48.9736 62.638 48.9737 63.238 48.7737C72.138 47.6737 80.638 46.9736 88.338 46.9736Z" fill="#1A1A1A"/>
</g>
<mask id="mask26_1_3022" style="mask-type:luminance" maskUnits="userSpaceOnUse" x="64" y="52" width="51" height="35">
<path d="M114.8 52.25H64.3V86.45H114.8V52.25Z" fill="white"/>
</mask>
<g mask="url(#mask26_1_3022)">
<g opacity="0.5">
<path d="M66.1 59.3004C65.2 60.5004 64.6 78.2004 72.1 83.0004C77 86.2004 97.8 85.5004 102 83.2004C108.5 79.5004 114.9 62.7004 113.1 60.3004C110.1 56.3004 88.5 51.0004 72.3 55.2004C70.3 55.6004 67.2 57.8004 66.1 59.3004Z" stroke="#333333" stroke-width="4" stroke-miterlimit="10"/>
</g>
</g>
<path d="M66.1 59.2496C65.2 60.4496 64.6 78.1496 72.1 82.9496C77 86.1496 97.8 85.4496 102 83.1496C108.5 79.4496 114.9 62.6496 113.1 60.2496C110.1 56.2496 88.5 50.9496 72.3 55.1496C70.3 55.6496 67.2 57.7496 66.1 59.2496Z" fill="white"/>
<mask id="mask27_1_3022" style="mask-type:luminance" maskUnits="userSpaceOnUse" x="139" y="56" width="51" height="36">
<path d="M189.8 56.9502H139.7V91.9502H189.8V56.9502Z" fill="white"/>
</mask>
<g mask="url(#mask27_1_3022)">
<g opacity="0.5">
<path d="M188.294 67.013C189.094 68.313 187.294 85.913 179.294 89.813C173.994 92.313 153.494 88.913 149.694 86.113C143.694 81.613 139.494 64.113 141.594 61.913C145.094 58.313 167.194 55.913 182.694 62.113C184.594 62.813 187.394 65.413 188.294 67.013Z" stroke="#333333" stroke-width="4" stroke-miterlimit="10"/>
</g>
</g>
<path d="M188.3 67.0501C189.1 68.3501 187.3 85.9501 179.3 89.8501C174 92.3501 153.5 88.9501 149.7 86.1502C143.7 81.6502 139.5 64.1501 141.6 61.9501C145.1 58.3501 167.2 55.9501 182.7 62.1501C184.6 62.8501 187.3 65.3501 188.3 67.0501Z" fill="white"/>
<path d="M89.8 70.0496C89.3 73.9496 87.3 76.8496 85.4 76.5496C83.5 76.2496 82.5 72.9496 83 69.0496C83.5 65.1496 85.5 62.2496 87.4 62.5496C89.3 62.8496 90.3 66.1496 89.8 70.0496Z" fill="black"/>
<path d="M169.5 74.4505C169.9 78.3505 168.7 81.6505 166.9 81.8505C165 82.0505 163.2 79.0505 162.8 75.1505C162.4 71.2505 163.6 67.9505 165.4 67.7505C167.2 67.6505 169 70.6505 169.5 74.4505Z" fill="black"/>
<mask id="mask28_1_3022" style="mask-type:luminance" maskUnits="userSpaceOnUse" x="49" y="50" width="157" height="47">
<path d="M205.3 50.4502H49V96.4502H205.3V50.4502Z" fill="white"/>
</mask>
<g mask="url(#mask28_1_3022)">
<g opacity="0.3">
<path d="M51.3749 51.6006C53.6749 53.1006 55.7749 52.2006 56.2749 55.2006C56.7749 58.2006 63.6749 84.2006 72.2749 87.2006C86.3749 92.1006 104.175 87.3006 106.575 85.8006C108.975 84.3006 120.275 59.0006 122.175 58.0006C124.075 57.0006 130.075 58.1006 131.375 58.7006C135.275 60.4006 142.475 87.8006 144.375 89.2006C153.075 95.3006 180.975 94.8006 182.275 93.2006C183.675 91.5006 194.075 67.6006 195.975 66.2006C198.675 64.1006 204.975 62.7006 205.175 63.6006C205.375 64.5006 200.075 65.4006 198.475 67.3006C196.875 69.3006 186.375 92.2006 183.075 94.2006C179.775 96.2006 155.375 99.5006 142.975 90.8006C137.075 86.6006 134.775 61.7006 130.075 60.3006C127.075 59.4006 124.775 59.5006 122.575 60.1006C119.675 62.0006 115.575 83.2006 106.875 88.5006C103.375 90.6006 76.2749 95.9006 68.1749 87.4006C53.0749 71.6006 57.6749 57.5006 52.7749 55.5006C49.4749 54.1006 48.7749 52.3006 48.7749 51.1006C49.0749 49.8006 50.1749 50.8006 51.3749 51.6006Z" fill="#333333"/>
</g>
</g>
<mask id="mask29_1_3022" style="mask-type:luminance" maskUnits="userSpaceOnUse" x="51" y="46" width="21" height="4">
<path d="M71.7 46.0498H51.5V49.0498H71.7V46.0498Z" fill="white"/>
</mask>
<g mask="url(#mask29_1_3022)">
<g opacity="0.3">
<path d="M51.6501 46.3001C50.0501 45.7001 58.4501 49.2001 61.5501 49.0001C64.6501 48.8001 69.8501 46.6001 71.5501 46.1001C73.0501 45.6001 63.7501 47.3001 61.4501 47.2001C59.1501 47.1001 52.5501 46.6001 51.6501 46.3001Z" fill="#333333"/>
</g>
</g>
<mask id="mask30_1_3022" style="mask-type:luminance" maskUnits="userSpaceOnUse" x="116" y="50" width="23" height="7">
<path d="M138.2 50.9502H116.5V56.2502H138.2V50.9502Z" fill="white"/>
</mask>
<g mask="url(#mask30_1_3022)">
<g opacity="0.3">
<path d="M116.5 51C119.4 52.3 120.7 55.6 123.5 55.9C126.3 56.2 129.7 56.7 131.3 55.8C132.9 54.9 136.9 52.8 138 52.6C139.2 52.4 129.3 53.9 125.6 53.6C121.9 53.2 117.6 51.1 116.5 51Z" fill="#333333"/>
</g>
</g>
<mask id="mask31_1_3022" style="mask-type:luminance" maskUnits="userSpaceOnUse" x="187" y="54" width="13" height="5">
<path d="M199.6 54.8496H187.3V58.7496H199.6V54.8496Z" fill="white"/>
</mask>
<g mask="url(#mask31_1_3022)">
<g opacity="0.3">
<path d="M187.475 54.8249C186.275 54.3249 191.875 58.8249 193.575 58.6249C195.275 58.4249 198.275 56.5249 199.575 56.0249C200.575 55.6249 195.575 57.0249 194.075 56.7249C192.575 56.6249 188.675 55.3249 187.475 54.8249Z" fill="#333333"/>
</g>
</g>
<mask id="mask32_1_3022" style="mask-type:luminance" maskUnits="userSpaceOnUse" x="62" y="51" width="30" height="30">
<path d="M91.0999 51.6504H62.2V80.2504H91.0999V51.6504Z" fill="white"/>
</mask>
<g mask="url(#mask32_1_3022)">
<g opacity="0.3">
<path d="M62.9499 56.6751C70.3499 49.3751 87.9499 51.875 91.1499 52.475C70.0499 53.975 69.6499 55.575 65.9499 59.275C65.4499 62.175 64.7499 71.7751 68.0499 80.1751C64.3499 78.1751 60.4499 59.1751 62.9499 56.6751Z" fill="#333333"/>
</g>
</g>
<mask id="mask33_1_3022" style="mask-type:luminance" maskUnits="userSpaceOnUse" x="165" y="56" width="28" height="32">
<path d="M192.8 56.6504H165V87.1504H192.8V56.6504Z" fill="white"/>
</mask>
<g mask="url(#mask33_1_3022)">
<g opacity="0.3">
<path d="M192.36 64.5482C185.96 56.3482 168.26 56.4482 164.96 56.7482C185.66 61.0482 185.86 62.6482 189.06 66.8482C189.26 69.7482 188.66 79.3482 184.36 87.2482C188.16 85.6482 194.46 67.2482 192.36 64.5482Z" fill="#333333"/>
</g>
</g>
<mask id="mask34_1_3022" style="mask-type:luminance" maskUnits="userSpaceOnUse" x="65" y="53" width="49" height="29">
<path d="M113.5 53.6504H65.7V81.1504H113.5V53.6504Z" fill="white"/>
</mask>
<g mask="url(#mask34_1_3022)">
<path d="M66.3124 71.4255C67.0124 62.8255 67.8123 55.8255 84.9123 55.3255C98.6123 54.9255 109.512 58.1255 111.012 61.4255C112.012 63.5255 111.212 72.7255 104.412 81.1255C108.812 77.2255 115.812 61.7255 112.812 59.8255C101.712 52.7255 79.6123 52.5255 71.4123 55.4255C69.9123 55.9255 67.5123 57.6255 65.9123 59.4255C65.6123 61.6255 65.6124 70.2255 66.3124 71.4255Z" fill="#D0DDDC"/>
</g>
<mask id="mask35_1_3022" style="mask-type:luminance" maskUnits="userSpaceOnUse" x="66" y="71" width="36" height="15">
<path d="M101.9 71.8496H66.7V85.7496H101.9V71.8496Z" fill="white"/>
</mask>
<g mask="url(#mask35_1_3022)">
<path d="M66.7839 72.0498C69.3839 88.8498 100.084 83.7498 101.884 83.0498C101.784 83.9498 85.7839 88.4498 72.3839 83.2498C66.9839 81.2498 66.5839 70.1498 66.7839 72.0498Z" fill="#D0DDDC"/>
</g>
<mask id="mask36_1_3022" style="mask-type:luminance" maskUnits="userSpaceOnUse" x="141" y="58" width="48" height="26">
<path d="M188.8 58.3496H141.1V83.8496H188.8V58.3496Z" fill="white"/>
</mask>
<g mask="url(#mask36_1_3022)">
<path d="M186.857 78.937C187.257 70.237 187.257 63.337 170.457 60.737C156.957 58.637 145.757 60.437 143.757 63.537C142.557 65.437 142.157 74.737 147.957 83.937C144.057 79.437 138.957 63.337 142.257 61.737C154.157 56.037 176.157 58.537 183.857 62.437C185.257 63.137 187.557 65.037 188.857 67.137C188.757 69.237 187.757 77.837 186.857 78.937Z" fill="#D0DDDC"/>
</g>
<mask id="mask37_1_3022" style="mask-type:luminance" maskUnits="userSpaceOnUse" x="150" y="79" width="37" height="12">
<path d="M186.4 79.25H150.1V90.95H186.4V79.25Z" fill="white"/>
</mask>
<g mask="url(#mask37_1_3022)">
<path d="M186.283 79.463C181.683 95.763 151.783 86.963 150.083 86.063C150.083 86.963 165.383 93.363 179.383 89.963C184.983 88.563 186.883 77.563 186.283 79.463Z" fill="#D0DDDC"/>
</g>
<mask id="mask38_1_3022" style="mask-type:luminance" maskUnits="userSpaceOnUse" x="87" y="64" width="3" height="3">
<path d="M89.2 64.0498H87.2V66.0498H89.2V64.0498Z" fill="white"/>
</mask>
<g mask="url(#mask38_1_3022)">
<g opacity="0.25">
<path d="M89.2749 65.0498C89.2749 64.5498 88.8749 64.0498 88.2749 64.0498C87.6749 64.0498 87.2749 64.4498 87.2749 65.0498C87.2749 65.6498 87.6749 66.0498 88.2749 66.0498C88.8749 66.0498 89.2749 65.6498 89.2749 65.0498Z" fill="white"/>
</g>
</g>
<mask id="mask39_1_3022" style="mask-type:luminance" maskUnits="userSpaceOnUse" x="166" y="68" width="3" height="3">
<path d="M168.2 68.75H166.2V70.75H168.2V68.75Z" fill="white"/>
</mask>
<g mask="url(#mask39_1_3022)">
<g opacity="0.25">
<path d="M168.275 69.75C168.275 69.25 167.875 68.75 167.275 68.75C166.775 68.75 166.275 69.15 166.275 69.75C166.275 70.35 166.675 70.75 167.275 70.75C167.775 70.75 168.275 70.25 168.275 69.75Z" fill="white"/>
</g>
</g>
<mask id="mask40_1_3022" style="mask-type:luminance" maskUnits="userSpaceOnUse" x="51" y="47" width="66" height="11">
<path d="M116.7 47.9502H51.8999V57.4502H116.7V47.9502Z" fill="white"/>
</mask>
<g mask="url(#mask40_1_3022)">
<g opacity="0.1">
<path d="M51.9248 50.5256C54.3248 53.2256 55.8248 53.5256 59.0248 53.1256C90.1248 49.1256 107.325 49.2256 115.825 57.1256C117.625 58.8256 116.625 52.0256 113.225 51.1256C87.0248 44.2256 68.0248 50.4256 64.0248 50.9256C59.9248 51.5256 57.0248 50.6256 51.9248 50.5256Z" fill="#D0DDDC"/>
</g>
</g>
<mask id="mask41_1_3022" style="mask-type:luminance" maskUnits="userSpaceOnUse" x="137" y="51" width="49" height="10">
<path d="M185.5 51.1504H137.6V60.3504H185.5V51.1504Z" fill="white"/>
</mask>
<g mask="url(#mask41_1_3022)">
<g opacity="0.1">
<path d="M137.925 54.5258C137.225 55.2258 137.525 62.4258 140.925 59.7258C150.725 51.9258 171.225 53.7258 185.525 58.5258C183.225 54.0258 166.525 50.9258 157.125 51.0258C152.625 51.2258 139.825 52.5258 137.925 54.5258Z" fill="#D0DDDC"/>
</g>
</g>
<path d="M197.1 60.25C197.1 60.55 195.5 60.75 193.6 60.75C191.7 60.75 190.1 60.55 190.1 60.25C190.1 59.95 191.7 59.75 193.6 59.75C195.6 59.75 197.1 60.05 197.1 60.25Z" fill="#D0DDDC"/>
<path d="M62.3001 51.6502C62.3001 51.9502 60.7001 51.9502 58.8001 51.6502C56.9001 51.3502 55.4001 50.8502 55.5001 50.5502C55.6001 50.2502 57.1001 50.2502 59.0001 50.5502C60.9001 50.7502 62.4001 51.2502 62.3001 51.6502Z" fill="#D0DDDC"/>
<path d="M255.94 211.886C255.34 205.786 250.84 203.086 246.74 203.086C244.84 203.086 243.34 203.586 242.74 203.886L241.94 204.286L241.24 204.786C240.24 205.486 238.54 206.586 237.04 207.086C236.94 205.886 237.04 204.286 237.24 202.886V202.686C238.34 191.986 236.14 185.686 230.54 184.086C229.64 183.786 228.64 183.686 227.64 183.686C224.24 183.686 221.24 185.286 219.34 186.686C217.74 184.586 214.94 183.486 211.54 183.486C206.44 183.486 202.34 185.886 200.84 189.686C200.64 190.086 200.44 190.686 200.24 191.486C197.24 184.886 191.14 182.386 185.44 182.386C180.04 182.386 174.84 184.486 172.94 185.986C172.84 186.086 172.74 186.086 172.64 186.186C167.54 189.786 163.54 194.386 160.74 199.886C159.34 195.186 156.34 190.686 151.04 187.386L150.94 187.286C150.74 187.186 150.64 187.086 150.54 187.086C155.84 177.786 160.44 165.386 157.64 153.586C154.64 140.986 147.24 139.186 143.14 139.186C141.44 139.186 139.64 139.486 137.84 140.086H137.74H137.64C129.84 143.186 126.44 147.786 125.64 148.886C124.84 150.086 116.34 163.086 114.24 182.086C114.04 184.186 113.74 186.386 113.54 188.586C112.34 186.886 110.34 185.286 107.24 184.386C106.24 184.086 105.24 183.986 104.24 183.986C99.9404 183.986 96.4405 186.586 94.5405 188.386C92.9405 185.986 90.3404 184.486 87.4404 184.386C87.2404 184.386 86.9404 184.386 86.7404 184.386C82.1404 184.386 78.5404 186.386 75.8404 188.686C74.1404 185.686 70.9404 183.786 67.2404 183.786C66.9404 183.786 66.6404 183.786 66.3404 183.786C66.1404 183.786 65.9405 183.786 65.7405 183.786C60.6405 183.786 56.6404 186.186 55.0405 190.186C54.9405 190.486 54.7404 190.886 54.6404 191.386C50.6404 186.386 45.5404 184.086 38.6404 184.086C38.4404 184.086 38.2404 184.086 37.9404 184.086C33.6404 184.186 23.0404 185.986 16.4404 200.686C15.4404 202.986 14.6405 205.286 14.0405 207.486C12.6405 206.786 11.2404 206.686 10.3404 206.686C6.94044 206.686 4.34043 208.586 3.14043 210.486C2.14043 211.986 -1.05955 217.186 0.540452 222.386C1.44045 225.186 3.34043 227.286 6.14043 228.386C8.64043 229.386 11.7405 230.286 14.0405 230.986C15.4405 234.286 18.0404 237.986 22.6404 241.486C25.8404 243.986 30.0404 245.186 34.8404 245.186C43.0404 245.186 50.9405 241.686 51.7405 241.286L52.0405 241.086L52.1404 240.986C53.7404 242.586 55.7404 243.786 58.3404 244.286C59.1404 244.486 60.1404 244.586 61.3404 244.586C65.7404 244.586 68.8404 242.286 71.7404 238.086C74.0404 241.786 78.3404 243.786 83.3404 243.786C83.6404 243.786 83.8404 243.986 84.2404 243.986C86.8404 243.986 90.2404 243.086 92.9404 238.586C95.2404 242.686 99.4404 245.086 104.44 245.086C108.84 245.086 112.74 243.286 113.44 242.886L113.64 242.786C115.14 241.986 116.34 241.286 117.34 240.786C120.64 242.586 125.64 244.486 131.84 244.486C132.94 244.486 133.94 244.486 135.04 244.286H135.34H135.64C148.64 241.686 157.14 238.586 162.24 236.186C165.74 240.186 171.44 243.986 179.44 244.586C180.34 244.686 181.24 244.686 182.14 244.686C188.74 244.686 194.04 242.786 197.94 240.786C199.14 242.086 200.74 243.286 202.74 244.086C203.94 244.586 205.24 244.786 206.44 244.786C214.54 244.786 218.34 235.186 219.34 231.886L221.24 226.686C222.94 228.486 225.14 229.986 227.94 230.786C229.44 231.186 231.14 231.486 232.74 231.486C241.64 231.486 250.24 225.186 251.54 224.086C253.84 221.786 256.44 217.586 255.94 211.886Z" fill="white"/>
<path d="M174.25 214.563C174.25 214.563 173.15 210.563 177.35 202.963C181.55 195.363 184.75 199.463 184.75 199.463C184.75 199.463 188.35 203.363 184.25 209.163C180.15 214.963 174.25 214.563 174.25 214.563ZM142.15 220.063C137.35 232.563 125.75 227.463 125.75 227.463C125.75 227.463 124.45 222.963 128.25 210.463C132.05 197.963 140.85 202.863 140.85 202.863C140.85 202.863 146.95 207.563 142.15 220.063ZM133.45 167.563C133.45 167.563 140.65 148.663 142.45 157.863C144.25 167.063 127.25 194.363 127.25 194.363C127.45 188.263 133.45 167.563 133.45 167.563ZM29.9502 214.563C30.2502 202.463 38.1502 197.163 40.9502 199.763C43.7502 202.363 42.7502 208.163 37.4502 211.663C32.3502 215.263 29.9502 214.563 29.9502 214.563ZM249.25 212.563C248.85 208.463 245.15 209.963 245.15 209.963C245.15 209.963 239.25 214.563 234.05 214.063C228.85 213.563 230.55 201.963 230.55 201.963C230.55 201.963 231.65 191.263 228.65 190.363C225.55 189.463 221.85 193.163 221.85 193.163C221.85 193.163 217.15 198.363 214.95 204.963L214.35 205.163C214.35 205.163 215.05 193.563 214.25 190.863C213.65 189.563 208.05 189.663 207.15 191.963C206.25 194.263 201.75 210.563 201.45 217.463C201.45 217.463 192.65 224.863 185.05 226.163C177.35 227.363 175.55 222.563 175.55 222.563C175.55 222.563 196.35 216.763 195.65 200.163C194.95 183.563 178.85 189.663 177.05 191.063C175.25 192.363 165.95 198.063 163.15 213.663C163.05 214.163 162.85 216.563 162.85 216.563C162.85 216.563 154.75 221.963 150.35 223.363C150.35 223.363 162.85 202.263 147.55 192.663C140.65 188.463 135.05 197.263 135.05 197.263C135.05 197.263 155.75 174.263 151.15 154.763C148.95 145.463 144.35 144.463 140.05 145.963C133.55 148.563 131.15 152.263 131.15 152.263C131.15 152.263 122.75 164.363 120.85 182.463C118.95 200.563 116.05 222.263 116.05 222.263C116.05 222.263 112.05 226.163 108.45 226.363C104.75 226.563 106.45 215.463 106.45 215.463C106.45 215.463 109.25 198.563 109.05 195.663C108.85 192.763 108.65 191.263 105.25 190.263C101.95 189.263 98.2502 193.563 98.2502 193.563C98.2502 193.563 88.5502 208.263 87.7502 210.463L87.2502 211.363L86.7502 210.763C86.7502 210.763 93.5502 190.763 87.0502 190.463C80.5502 190.163 76.2502 197.563 76.2502 197.563C76.2502 197.563 68.8502 210.063 68.5502 211.463L68.0502 210.863C68.0502 210.863 71.1502 196.363 70.5502 192.763C69.9502 189.163 66.5502 189.963 66.5502 189.963C66.5502 189.963 62.2502 189.463 61.1502 192.263C60.0502 195.063 55.9502 213.263 55.4502 219.063C55.4502 219.063 44.7502 226.763 37.7502 226.763C30.7502 226.863 31.4502 222.263 31.4502 222.263C31.4502 222.263 57.2502 213.463 50.2502 195.963C47.0502 191.463 43.4502 190.063 38.2502 190.163C33.0502 190.263 26.9502 193.463 22.7502 202.763C20.7502 207.263 19.9502 211.463 19.9502 214.663C19.9502 214.663 15.1502 215.563 12.6502 213.563C10.1502 211.563 8.75018 213.563 8.75018 213.563C8.75018 213.563 4.45017 219.663 8.65017 221.263C12.8502 222.863 19.2502 224.463 19.2502 224.463C19.8502 227.063 21.5502 231.463 26.6502 235.263C34.2502 241.063 48.9502 234.363 48.9502 234.363L54.9502 230.763C54.9502 230.763 55.1502 236.163 59.5502 236.963C63.9502 237.763 65.7502 236.863 73.4502 218.363C77.9502 208.863 78.2502 209.363 78.2502 209.363L78.7502 209.263C78.7502 209.263 75.2502 227.363 76.6502 232.263C78.0502 237.163 83.7502 236.663 83.7502 236.663C83.7502 236.663 86.9502 237.763 89.4502 228.763C92.0502 219.763 96.8502 210.363 96.8502 210.363H97.4502C97.4502 210.363 95.3502 228.463 98.5502 234.363C101.85 240.263 110.25 236.163 110.25 236.163C110.25 236.163 116.15 233.063 117.05 232.163C117.05 232.163 124.05 238.063 133.95 236.963C156.05 232.563 163.95 226.663 163.95 226.663C163.95 226.663 167.75 236.263 179.55 237.163C193.05 238.163 200.35 229.663 200.35 229.663C200.35 229.663 200.25 235.163 204.95 237.063C209.65 238.963 212.85 228.763 212.85 228.763L220.75 207.663H221.45C221.45 207.663 221.85 221.163 229.65 223.363C237.45 225.563 247.55 217.763 247.55 217.763C247.55 217.763 249.75 216.663 249.25 212.563Z" fill="#E24B31"/>
</g>
<defs>
<clipPath id="clip0_1_3022">
<rect width="256" height="245" fill="white"/>
</clipPath>
</defs>
</svg>
