<svg width="256" height="256" viewBox="0 0 256 256" fill="none" xmlns="http://www.w3.org/2000/svg">
<g clip-path="url(#clip0_1_3376)">
<path d="M127.555 255.74C198.002 255.74 255.111 198.631 255.111 128.184C255.111 57.7374 198.002 0.628906 127.555 0.628906C57.1085 0.628906 0 57.7374 0 128.184C0 198.631 57.1085 255.74 127.555 255.74Z" fill="#1C1C20"/>
<path d="M178.496 124.737L164.291 110.532L171.596 80.4967L141.156 87.3966L127.356 73.5967L195.543 56.5498L178.496 124.737Z" fill="#BAFFA9"/>
<path d="M154.956 218.901L33.1919 97.1377L101.38 80.0908L115.179 93.8907L66.474 106.067L94.0737 133.667L126.138 125.955L118.021 157.614L145.62 185.213L157.797 136.508L172.002 150.714L154.956 218.901Z" fill="#7ACB16"/>
</g>
<defs>
<clipPath id="clip0_1_3376">
<rect width="256" height="256" fill="white"/>
</clipPath>
</defs>
</svg>
