<svg width="512" height="97" viewBox="0 0 512 97" fill="none" xmlns="http://www.w3.org/2000/svg">
<g clip-path="url(#clip0_1_3397)">
<path d="M65.8979 9.7649C63.3242 8.33635 55.9464 9.21964 47.0854 11.9626C31.5773 22.563 18.4889 38.1801 17.5755 63.2585C17.4092 63.8581 15.8796 63.177 15.5771 62.9915C11.3893 54.9648 9.73018 46.5128 13.2269 34.3201C13.8786 33.235 11.7478 31.8992 11.3647 32.2808C10.5972 33.0495 7.39756 36.458 5.27249 40.144C-5.26109 58.4167 1.62741 81.8299 20.0565 92.0763C38.4818 102.339 61.7489 95.7189 72.0081 77.2881C83.8768 56.0157 72.8558 13.6505 65.8979 9.7649Z" fill="#82B541"/>
<path d="M131.85 19.9746C110.003 19.9746 94.1459 36.216 94.1459 58.5937C94.1459 81.1549 109.962 96.9121 132.611 96.9121C144.052 96.9121 153.109 93.3348 160.312 85.9708C162.464 83.6478 162.695 81.4092 162.695 80.5534C162.695 76.9054 159.982 74.2556 156.244 74.2556C154.36 74.2556 152.784 74.9671 150.977 76.6384C146.898 80.4389 141.527 84.3213 132.611 84.3213C120.214 84.3213 110.132 75.0135 109.497 63.0606H158.839C164.204 63.0606 166.811 60.5521 166.811 55.3938C166.811 53.875 166.811 52.7791 166.505 50.6169C163.847 31.4308 150.893 19.9772 131.852 19.9772L131.85 19.9746ZM131.85 31.9546C143.697 31.9546 151.298 39.5042 151.767 51.6889H109.512C110.621 40.4121 120.156 31.9546 131.85 31.9546Z" fill="black"/>
<path d="M213.927 19.9746C204.003 19.9746 194.176 25.6811 190.338 33.6067V28.7087C190.338 21.1208 184.457 20.7364 183.279 20.7364C179.794 20.7364 176.07 22.8304 176.07 28.7087V87.8685C176.07 95.748 182.33 96.1462 183.584 96.1462C184.839 96.1462 191.101 95.748 191.101 87.8685V56.1546C191.101 42.3558 198.921 32.718 210.116 32.718C220.959 32.718 226.232 39.8339 226.232 54.475V87.8685C226.232 95.748 232.494 96.1462 233.749 96.1462C235.003 96.1462 241.263 95.748 241.263 87.8685V49.7547C241.263 35.3589 234.081 19.9791 213.927 19.9791V19.9746Z" fill="black"/>
<path d="M309.272 20.7373C305.799 20.7373 303.28 22.7632 301.78 26.7492L281.215 78.4609L260.808 26.7492C259.21 22.7034 256.71 20.7373 253.163 20.7373C249.019 20.7373 245.646 23.9708 245.646 27.9462C245.646 28.9303 245.758 30.2063 246.59 32.1993L270.223 88.0012C273.039 94.733 277.671 96.1455 281.063 96.1455C284.452 96.1455 289.087 94.733 291.909 88.0044L315.695 31.8923C316.508 29.9239 316.634 28.4787 316.634 27.7947C316.634 23.7732 313.465 20.7373 309.272 20.7373Z" fill="black"/>
<path d="M352.963 19.9745C343.35 19.9745 334.396 22.6519 327.755 27.5078C325.502 29.0617 324.406 31.0003 324.406 33.4378C324.406 36.7941 326.969 39.4251 330.247 39.4251C331.664 39.4251 333.251 38.8607 334.707 37.8408C340.416 34.0349 345.782 32.26 351.589 32.26C362.702 32.26 369.082 37.9118 369.082 47.7681V49.4013C344.135 49.4285 318.761 52.4413 318.761 74.1439C318.761 89.7636 332.11 96.757 345.338 96.757C355.874 96.757 364.287 92.5826 369.686 84.6784V88.4792C369.686 94.1394 373.486 96.1465 376.747 96.1465C377.434 96.1465 383.498 95.9309 383.498 88.4792V48.6801C383.498 30.7019 372.08 19.9707 352.962 19.9707L352.963 19.9745ZM365.92 60.4676H369.082V63.9301C369.082 76.5945 361.018 84.7766 348.541 84.7766C345.155 84.7766 334.102 83.9886 334.102 73.8382C334.102 61.8527 352.26 60.4676 365.92 60.4676Z" fill="black"/>
<path d="M422.648 34.3945C429.224 34.3945 429.557 29.2771 429.557 28.2518C429.557 25.2089 427.741 21.9562 422.648 21.9562H409.125V8.27771C409.125 2.1676 405.161 0 401.763 0C400.509 0 394.249 0.398151 394.249 8.27771V73.2323C394.249 88.2223 401.643 96.1453 415.636 96.1453C419.256 96.1453 422.784 95.5045 425.09 94.4303C427.736 93.1108 429.251 90.9406 429.251 88.4785C429.251 85.0051 426.732 82.486 423.259 82.486C422.588 82.486 421.634 82.6523 420.581 82.9549C419.294 83.2769 418.422 83.402 417.468 83.402C411.775 83.402 409.125 79.6859 409.125 71.7056V34.3881H422.648V34.3945Z" fill="black"/>
<path d="M472.345 19.9746C449.611 19.9746 433.118 36.0881 433.118 58.2867C433.118 69.0946 437.115 78.9451 444.367 86.0226C451.565 93.0432 461.5 96.9096 472.346 96.9096C494.796 96.9096 511.726 80.3055 511.726 58.2873C511.726 36.0884 495.16 19.9752 472.346 19.9752L472.345 19.9746ZM472.345 84.1649C456.755 84.1649 448.603 71.1458 448.603 58.2851C448.603 40.6123 460.91 32.5639 472.345 32.5639C483.779 32.5639 496.087 40.6123 496.087 58.2851C496.087 76.0672 483.779 84.1649 472.345 84.1649Z" fill="black"/>
</g>
<defs>
<clipPath id="clip0_1_3397">
<rect width="512" height="97" fill="white"/>
</clipPath>
</defs>
</svg>
