<svg width="512" height="166" viewBox="0 0 512 166" fill="none" xmlns="http://www.w3.org/2000/svg">
<g clip-path="url(#clip0_1_3411)">
<path d="M259.146 91.1646C259.146 93.3257 259.637 95.3887 260.62 97.1569C261.602 98.9251 262.879 100.497 264.353 101.774C265.924 103.051 267.693 104.033 269.756 104.721C271.818 105.408 273.98 105.801 276.141 105.801C279.088 105.801 281.74 105.114 283.901 103.739C286.062 102.363 288.125 100.497 289.992 98.2374L297.261 103.739C291.956 110.615 284.491 114.053 274.962 114.053C271.033 114.053 267.398 113.365 264.156 111.99C260.915 110.615 258.164 108.748 256.003 106.391C253.743 104.033 252.073 101.184 250.895 98.041C249.716 94.7992 249.126 91.3611 249.126 87.53C249.126 83.7971 249.814 80.2607 251.091 77.0189C252.368 73.7772 254.235 71.0267 256.494 68.6691C258.753 66.3115 261.504 64.445 264.746 63.0697C267.889 61.6945 271.426 61.0068 275.158 61.0068C279.579 61.0068 283.41 61.7927 286.455 63.3644C289.501 64.9362 292.055 66.9991 294.019 69.4549C295.984 72.009 297.457 74.7596 298.342 78.0013C299.226 81.1448 299.717 84.3865 299.717 87.6282V91.0664H259.146V91.1646ZM289.402 83.5024C289.304 81.3412 289.009 79.4748 288.42 77.7066C287.831 75.9384 286.946 74.3666 285.669 73.0896C284.491 71.8125 282.919 70.732 281.151 70.0443C279.382 69.2585 277.221 68.9638 274.864 68.9638C272.506 68.9638 270.345 69.4549 268.479 70.339C266.514 71.2231 264.844 72.4019 263.567 73.7772C262.192 75.1525 261.209 76.7242 260.423 78.4924C259.637 80.2607 259.343 81.9306 259.343 83.6006H289.402V83.5024ZM307.87 62.4803H317.399V70.2408H317.595C318.774 67.5885 320.935 65.3291 323.882 63.6591C326.829 61.9892 330.268 61.2033 334.197 61.2033C336.653 61.2033 338.912 61.5962 341.171 62.2839C343.431 63.0697 345.396 64.1503 346.967 65.7221C348.637 67.2938 349.914 69.2585 350.995 71.7143C351.977 74.1702 352.468 77.0189 352.468 80.3589V112.776H342.94V83.1094C342.94 80.7518 342.645 78.7871 341.957 77.1172C341.368 75.4472 340.484 74.0719 339.403 73.0896C338.323 72.1072 337.144 71.3214 335.769 70.8302C334.393 70.339 332.92 70.1426 331.446 70.1426C329.482 70.1426 327.615 70.4373 325.945 71.1249C324.275 71.7143 322.802 72.7949 321.525 74.1702C320.248 75.5454 319.265 77.3136 318.578 79.4748C317.89 81.6359 317.497 84.0918 317.497 87.0388V112.972H307.968V62.4803H307.87ZM355.612 62.4803H366.712L381.84 101.086L396.281 62.4803H406.497L386.752 112.874H376.044L355.612 62.4803ZM406.988 87.6282C406.988 83.9935 407.676 80.5554 409.051 77.3136C410.426 74.1702 412.293 71.3214 414.749 68.9638C417.204 66.5079 419.955 64.6415 423.295 63.2662C426.537 61.8909 430.073 61.2033 433.806 61.2033C437.539 61.2033 441.075 61.8909 444.317 63.2662C447.559 64.6415 450.407 66.5079 452.863 68.9638C455.319 71.4196 457.186 74.1702 458.561 77.3136C459.936 80.4571 460.624 83.8953 460.624 87.6282C460.624 91.3611 459.936 94.7992 458.561 97.9427C457.186 101.184 455.319 103.935 452.863 106.293C450.407 108.65 447.657 110.517 444.317 111.892C441.075 113.267 437.539 113.955 433.806 113.955C430.073 113.955 426.537 113.267 423.295 111.892C420.053 110.517 417.204 108.65 414.749 106.293C412.293 103.935 410.426 101.086 409.051 97.9427C407.676 94.7992 406.988 91.3611 406.988 87.6282ZM417.204 87.6282C417.204 90.1823 417.597 92.5399 418.383 94.701C419.169 96.8622 420.25 98.7286 421.723 100.202C423.098 101.774 424.867 102.953 426.93 103.837C428.992 104.721 431.252 105.212 433.806 105.212C436.36 105.212 438.619 104.819 440.682 103.837C442.745 102.953 444.513 101.774 445.889 100.202C447.264 98.6304 448.443 96.8622 449.229 94.701C450.014 92.5399 450.407 90.1823 450.407 87.6282C450.407 85.0741 450.014 82.7165 449.229 80.5554C448.443 78.3942 447.362 76.5278 445.889 75.0543C444.513 73.5808 442.745 72.3037 440.682 71.4196C438.619 70.5355 436.36 70.0443 433.806 70.0443C431.252 70.0443 428.992 70.5355 426.93 71.4196C424.867 72.3037 423.098 73.4825 421.723 75.0543C420.348 76.626 419.169 78.3942 418.383 80.5554C417.597 82.7165 417.204 85.0741 417.204 87.6282ZM461.311 62.4803H472.314L487.245 101.774H487.442L501.784 62.4803H512L488.031 123.68C487.147 125.841 486.263 127.904 485.379 129.672C484.495 131.44 483.414 133.012 482.137 134.289C480.86 135.566 479.288 136.549 477.52 137.236C475.752 137.924 473.492 138.317 470.938 138.317C469.563 138.317 468.089 138.219 466.616 138.022C465.142 137.826 463.767 137.433 462.392 136.942L463.571 128.199C465.437 128.985 467.402 129.378 469.268 129.378C470.742 129.378 472.019 129.181 473.001 128.788C473.984 128.395 474.868 127.806 475.653 127.118C476.439 126.332 477.029 125.546 477.52 124.466C478.011 123.483 478.502 122.305 478.993 121.028L482.137 113.071L461.311 62.4803Z" fill="#4A0D66"/>
<path d="M55.3113 79.8679L55.606 93.2277L69.6534 101.971L69.3587 88.6107L55.3113 79.8679ZM89.5949 135.37L89.3002 122.305L77.021 114.643C76.8245 114.544 76.628 114.348 76.5298 114.25L76.8245 127.413L89.5949 135.37ZM45.6844 152.954L13.562 133.111L12.7761 99.7112L28.4935 92.933L28.1988 79.5732L3.05094 90.379C1.08627 91.2631 -0.0925382 93.0313 0.00569559 95.0942L0.988033 135.174C0.988033 137.236 2.26507 139.299 4.32798 140.478L42.9338 164.349C44.7021 165.43 46.8632 165.724 48.7296 165.233C48.9261 165.135 49.1226 165.135 49.319 165.037L72.9934 154.82L60.1248 146.863L45.6844 152.954Z" fill="#B31AAB"/>
<path d="M149.616 79.0817C149.517 76.7241 148.142 74.2683 145.785 72.893L98.9271 43.9141L97.4536 44.5035L97.7483 58.5509L134.782 81.5376L135.667 119.063L149.812 127.806L150.598 127.511L149.616 79.0817ZM93.5242 145.095L50.1049 118.081L49.0244 72.893L68.8676 64.3467L68.4746 48.7275L37.6292 61.9891C35.3699 62.9714 33.9946 65.0343 34.0928 67.4902L35.3699 120.536C35.3699 122.992 36.8434 125.35 39.201 126.725L90.1843 158.356C92.2472 159.633 94.8013 160.026 96.9624 159.339C97.1589 159.24 97.3554 159.142 97.5518 159.142L127.71 146.175L112.778 136.941L93.5242 145.095Z" fill="#D163CE"/>
<path d="M215.924 41.9495L150.5 1.47722C148.044 0.00371635 145.195 -0.389219 142.739 0.396651C142.543 0.494885 142.248 0.593119 142.052 0.691352L78.2981 28.1968C75.744 29.2774 74.1722 31.635 74.2705 34.4838L75.8422 102.462C75.9404 105.212 77.6104 107.963 80.2627 109.534L145.588 150.007C147.946 151.48 150.893 151.873 153.349 151.087C153.545 150.989 153.84 150.891 154.036 150.793L217.79 123.287C220.344 122.206 221.916 119.751 221.818 117L220.246 49.0224C220.246 46.2718 218.576 43.6195 215.924 41.9495ZM149.518 134.78L92.7384 99.6127L91.2649 40.476L146.669 16.6052L203.448 51.7729L204.823 110.811L149.518 134.78Z" fill="#E13EAF"/>
</g>
<defs>
<clipPath id="clip0_1_3411">
<rect width="512" height="166" fill="white"/>
</clipPath>
</defs>
</svg>
