<svg width="512" height="106" viewBox="0 0 512 106" fill="none" xmlns="http://www.w3.org/2000/svg">
<g clip-path="url(#clip0_1_3457)">
<path d="M142.563 82.3241L138.981 85.0474L139.554 89.5057L143.699 91.2452L147.281 88.5219L146.709 84.0592L142.563 82.3241ZM5.95188 52.7034L0 57.2332L0.948007 64.6563L7.84789 67.545L13.7998 63.0152L12.8518 55.5921L5.95188 52.7034ZM31.6152 41.3273L30.9533 36.1222L25.3994 33.7969L20.6102 37.4413L21.1155 41.3765L16.854 44.6185L18.1329 54.6307L27.443 58.5345L35.4743 52.4172L34.1953 42.405L31.6152 41.3273Z" fill="#1A1233"/>
<path d="M139.961 38.8191L144.593 26.3877L143.985 13.8177L143.404 7.14136L138.767 7.03851L134.644 13.2989L134.608 9.27437L131.617 7.55723L128.039 10.5086L125.835 22.0054L128.039 36.628C128.039 36.628 125.065 37.9695 124.596 38.1707C124.363 38.2736 123.742 38.5597 123.111 38.8728L122.664 35.3982L105.828 28.3463L104.822 29.111L104.415 25.9047L84.6052 17.6097L78.9395 21.9204L73.6718 19.7114L67.7646 24.1831L62.2733 21.8847L68.896 16.845L67.3488 4.72215L56.0755 0L46.3495 7.40519L47.6061 17.243L40.496 22.6538L41.3456 29.3212L39.0024 31.1098L41.5603 51.1298L60.1761 58.9285L70.1481 51.3265L70.2241 51.8989L75.7243 54.2063L76.8914 63.3555L92.9897 70.0989L95.4715 68.2118L102.148 71.6148L101.54 78.6175L114.391 92.7706V92.8421L114.481 92.8779L114.798 93.2222L115.058 93.1194L117.741 94.2462L120.638 92.0417L120.191 88.433L116.931 87.0915L116.717 86.85L114.06 79.3733L117.191 70.716L117.571 70.631L117.517 70.6713L118.411 77.7992L124.515 80.3526L124.904 83.4202L130.53 85.7768L135.382 82.0831L134.613 76.0329L130.521 74.3202L129.855 69.0927L127.883 68.2699L130.221 67.7333H142.519L148.739 63.5612V47.8028L139.961 38.8191Z" fill="#1A1233"/>
<path opacity="0.77" d="M122.66 35.3849L105.824 28.333L91.2949 39.3871L93.6068 57.4932L110.447 64.5451L124.972 53.491L122.66 35.3849Z" fill="#A1BEFF"/>
<path opacity="0.74" d="M104.406 25.8913L84.5963 17.5918L67.5054 30.6001L70.2242 51.9079L90.034 60.2029L107.129 47.1991L104.406 25.8913Z" fill="#A1BEFF"/>
<path opacity="0.79" d="M73.6851 26.6737L55.0693 18.875L39.0068 31.1007L41.5602 51.1251L60.1805 58.9194L76.243 46.6981L73.6851 26.6737Z" fill="#A1BEFF"/>
<path opacity="0.7" d="M57.1086 20.5343L48.1919 16.7959L40.4961 22.6539L41.7213 32.2413L50.638 35.9752L58.3338 30.1217L57.1086 20.5343Z" fill="#A1BEFF"/>
<path opacity="0.37" d="M83.684 23.8927L73.6673 19.6982L65.0234 26.2762L66.3963 37.053L76.4174 41.2475L85.0613 34.6696L83.684 23.8927Z" fill="#A1BEFF"/>
<path opacity="0.7" d="M134.604 76.028L130.512 74.3154L129.846 69.0924L123.214 66.3154L117.495 70.6664L118.407 77.7988L124.507 80.3522L124.9 83.4153L130.525 85.7719L135.377 82.0783L134.604 76.028Z" fill="#A1BEFF"/>
<path d="M120.169 88.4333L116.815 87.0291L113.922 89.2292L114.382 92.8379L117.736 94.242L120.629 92.0419L120.169 88.4333ZM146.709 84.0599L142.563 82.3249L138.981 85.0481L139.554 89.5065L143.699 91.246L147.281 88.5227L146.709 84.0599ZM12.8518 55.5928L5.95188 52.7041L0 57.234L0.948007 64.657L7.84789 67.5458L13.7998 63.0159L12.8518 55.5928Z" fill="#A1BEFF"/>
<path opacity="0.29" d="M34.1954 42.4052L24.8852 38.5059L16.854 44.6187L18.1329 54.6309L27.4431 58.5348L35.4743 52.4174L34.1954 42.4052Z" fill="#A1BEFF"/>
<path opacity="0.46" d="M119.757 40.9025C120.205 40.4553 124.113 38.367 124.582 38.1568L128.026 36.6141L125.821 21.9915L128.026 10.4947L131.603 7.54334L134.595 9.3052L134.63 13.3298L138.753 7.06934L143.39 7.17219L143.972 13.8485L144.58 26.4185L139.947 38.8499L148.716 47.7934V63.5742L142.496 67.7463H130.199L117.191 70.7155L114.06 79.3728L116.69 86.8316L120.442 90.9859L114.78 93.2217L101.54 78.6171L102.175 71.6233L93.3563 67.1247L90.8074 47.8023L105.537 37.0434L119.757 40.9025Z" fill="#A1BEFF"/>
<mask id="mask0_1_3457" style="mask-type:luminance" maskUnits="userSpaceOnUse" x="90" y="7" width="59" height="87">
<path d="M119.757 40.9025C120.205 40.4553 124.113 38.367 124.582 38.1568L128.026 36.6141L125.821 21.9915L128.026 10.4947L131.603 7.54334L134.595 9.3052L134.63 13.3298L138.753 7.06934L143.39 7.17219L143.972 13.8485L144.58 26.4185L139.947 38.8499L148.716 47.7934V63.5742L142.496 67.7463H130.199L117.191 70.7155L114.06 79.3728L116.69 86.8316L120.442 90.9859L114.78 93.2217L101.54 78.6171L102.175 71.6233L93.3563 67.1247L90.8074 47.8023L105.537 37.0434L119.757 40.9025Z" fill="#A1BEFF"/>
</mask>
<g mask="url(#mask0_1_3457)">
<path d="M121.573 39.7535C122.02 39.3064 124.113 38.3494 124.582 38.1392L128.026 36.5965L125.821 21.9739L128.026 10.4771L131.603 7.52576L134.595 9.28762L134.63 13.3122L138.753 7.05176L143.39 7.15461L143.972 13.8309L144.58 26.4009L139.947 38.8324L148.716 47.7758V63.5566L142.496 67.7287H130.199L117.191 70.7158L114.06 79.3731L116.69 86.8319L120.442 90.9862L114.78 93.222L101.54 78.6174L102.175 71.6236L93.3563 67.125L90.8074 47.8027L107.12 33.6004L121.573 39.7535Z" fill="#A1BEFF"/>
</g>
<path opacity="0.7" d="M30.9532 36.1222L25.3993 33.7969L20.6101 37.4413L21.3748 43.4111L26.9242 45.7364L31.7134 42.0919L30.9532 36.1222Z" fill="#A1BEFF"/>
<path opacity="0.22" d="M104.679 42.2176L88.576 35.4697L74.6824 46.0454L76.8959 63.3599L92.9986 70.1078L106.888 59.5321L104.679 42.2176Z" fill="#A1BEFF"/>
<path opacity="0.22" d="M109.464 40.4961L97.2423 35.376L86.698 43.4027L88.3794 56.5452L100.601 61.6608L111.14 53.6385L109.464 40.4961Z" fill="#A1BEFF"/>
<path d="M67.3488 4.72215L56.0756 0L46.354 7.40072L47.9012 19.5236L59.17 24.2457L68.896 16.845L67.3488 4.72215Z" fill="#A1BEFF"/>
<g style="mix-blend-mode:color" opacity="0.3">
<path d="M142.563 82.3241L138.981 85.0474L139.554 89.5057L143.699 91.2452L147.281 88.5219L146.709 84.0592L142.563 82.3241ZM5.95188 52.7034L0 57.2332L0.948007 64.6563L7.84789 67.545L13.7998 63.0152L12.8518 55.5921L5.95188 52.7034ZM31.6152 41.3273L30.9533 36.1222L25.3994 33.7969L20.6102 37.4413L21.1155 41.3765L16.854 44.6185L18.1329 54.6307L27.443 58.5345L35.4743 52.4172L34.1953 42.405L31.6152 41.3273Z" fill="#1A1233"/>
<path d="M139.961 38.8191L144.593 26.3877L143.985 13.8177L143.404 7.14136L138.767 7.03851L134.644 13.2989L134.608 9.27437L131.617 7.55723L128.039 10.5086L125.835 22.0054L128.039 36.628C128.039 36.628 125.065 37.9695 124.596 38.1707C124.363 38.2736 123.742 38.5597 123.111 38.8728L122.664 35.3982L105.828 28.3463L104.822 29.111L104.415 25.9047L84.6052 17.6097L78.9395 21.9204L73.6718 19.7114L67.7646 24.1831L62.2733 21.8847L68.896 16.845L67.3488 4.72215L56.0755 0L46.3495 7.40519L47.6061 17.243L40.496 22.6538L41.3456 29.3212L39.0024 31.1098L41.5603 51.1298L60.1761 58.9285L70.1481 51.3265L70.2241 51.8989L75.7243 54.2063L76.8914 63.3555L92.9897 70.0989L95.4715 68.2118L102.148 71.6148L101.54 78.6175L114.391 92.7706V92.8421L114.481 92.8779L114.798 93.2222L115.058 93.1194L117.741 94.2462L120.638 92.0417L120.191 88.433L116.931 87.0915L116.717 86.85L114.06 79.3733L117.191 70.716L117.571 70.631L117.517 70.6713L118.411 77.7992L124.515 80.3526L124.904 83.4202L130.53 85.7768L135.382 82.0831L134.613 76.0329L130.521 74.3202L129.855 69.0927L127.883 68.2699L130.221 67.7333H142.519L148.739 63.5612V47.8028L139.961 38.8191Z" fill="#1A1233"/>
<path d="M142.563 82.3242L138.981 85.0475L139.554 89.5058L143.699 91.2453L147.281 88.522L146.709 84.0592L142.563 82.3242Z" fill="url(#paint0_linear_1_3457)"/>
<path d="M5.95188 52.7041L0 57.234L0.948007 64.657L7.84789 67.5458L13.7998 63.0159L12.8518 55.5928L5.95188 52.7041Z" fill="url(#paint1_linear_1_3457)"/>
<path d="M31.6152 41.3273L30.9534 36.1222L25.3995 33.7969L20.6103 37.4413L21.1156 41.3765L16.854 44.6185L18.1329 54.6307L27.4431 58.5345L35.4743 52.4172L34.1954 42.405L31.6152 41.3273Z" fill="url(#paint2_linear_1_3457)"/>
<path d="M139.961 38.8191L144.593 26.3877L143.985 13.8177L143.404 7.14136L138.767 7.03851L134.644 13.2989L134.608 9.27437L131.617 7.55723L128.039 10.5086L125.835 22.0054L128.039 36.628C128.039 36.628 125.065 37.9695 124.596 38.1707C124.363 38.2736 123.742 38.5597 123.111 38.8728L122.664 35.3982L105.828 28.3463L104.822 29.111L104.415 25.9047L84.6052 17.6097L78.9395 21.9204L73.6718 19.7114L67.7646 24.1831L62.2733 21.8847L68.896 16.845L67.3488 4.72215L56.0755 0L46.3495 7.40519L47.6061 17.243L40.496 22.6538L41.3456 29.3212L39.0024 31.1098L41.5603 51.1298L60.1761 58.9285L70.1481 51.3265L70.2241 51.8989L75.7243 54.2063L76.8914 63.3555L92.9897 70.0989L95.4715 68.2118L102.148 71.6148L101.54 78.6175L114.391 92.7706V92.8421L114.481 92.8779L114.798 93.2222L115.058 93.1194L117.741 94.2462L120.638 92.0417L120.191 88.433L116.931 87.0915L116.717 86.85L114.06 79.3733L117.191 70.716L117.571 70.631L117.517 70.6713L118.411 77.7992L124.515 80.3526L124.904 83.4202L130.53 85.7768L135.382 82.0831L134.613 76.0329L130.521 74.3202L129.855 69.0927L127.883 68.2699L130.221 67.7333H142.519L148.739 63.5612V47.8028L139.961 38.8191Z" fill="url(#paint3_linear_1_3457)"/>
</g>
<path d="M146.704 84.0641L147.272 88.5358L143.695 91.2591L139.549 89.5107L138.981 85.0389L142.559 82.3157L146.704 84.0641ZM5.95188 52.7217L0 57.2382L0.925649 64.6568L7.82553 67.55L13.7998 63.0067L12.8518 55.5881L5.95188 52.7217ZM31.6152 41.3412L30.9489 36.1405L25.3994 33.8152L20.6013 37.4463L21.1021 41.3769L16.8405 44.6234L18.1195 54.6356L27.4386 58.535L35.4877 52.4221L34.1953 42.4099L31.6152 41.3412ZM139.961 38.8325L144.593 26.4011L143.985 13.8177L143.404 7.14136L138.767 7.03851L134.644 13.2989L134.608 9.27437L131.617 7.55723L128.039 10.5086L125.835 22.0054L128.039 36.628C128.039 36.628 125.065 37.9695 124.596 38.1707C124.363 38.2736 123.742 38.5597 123.111 38.8728L122.664 35.3982L105.828 28.3463L104.822 29.111L104.415 25.9047L84.6052 17.6097L78.9395 21.9204L73.6718 19.7114L67.7646 24.1831L62.2734 21.8847L68.896 16.845L67.3488 4.72215L56.0755 0L46.3495 7.40519L47.6061 17.243L40.496 22.6538L41.3456 29.3212L39.0025 31.1098L41.5603 51.1298L60.1761 58.9285L70.1481 51.3265L70.2241 51.8989L75.7243 54.2063L76.8914 63.3555L92.9897 70.0989L95.4715 68.2118L102.148 71.6148L101.54 78.6175L114.391 92.7706V92.8421L114.481 92.8779L114.798 93.2222L115.058 93.1194L117.741 94.2462L120.638 92.0417L120.191 88.433L116.931 87.0915L116.717 86.85L114.06 79.3733L117.191 70.716L117.571 70.631L117.517 70.6713L118.411 77.7992L124.515 80.3526L124.904 83.4202L130.53 85.7768L135.382 82.0831L134.613 76.0329L130.521 74.3202L129.855 69.0927L127.883 68.2699L130.221 67.7333H142.519L148.739 63.5612V47.8028L139.961 38.8325Z" fill="url(#paint4_linear_1_3457)"/>
<path d="M120.442 39.7666C120.889 39.3195 124.113 38.367 124.582 38.1568L128.026 36.6141L125.821 21.9915L128.026 10.4947L131.603 7.54334L134.595 9.3052L134.63 13.3298L138.753 7.06934L143.391 7.17219L143.972 13.8485L144.58 26.4185L139.947 38.8499L148.716 47.7934V63.5742L142.496 67.7463H130.199L117.191 70.7155L114.06 79.3728L116.69 86.8316L120.442 90.9859L114.78 93.2217L101.54 78.6171L102.175 71.6233V67.5451L98.0115 70.1074V41.2468L107.129 33.8148L120.442 39.7666Z" fill="url(#paint5_linear_1_3457)"/>
<path d="M175.019 63.628V62.9305C175.019 46.5907 181.956 38.4209 195.83 38.4209C198.521 38.3833 201.195 38.8489 203.714 39.7937C205.766 40.5267 207.67 41.6217 209.335 43.0268C210.834 44.414 212.071 46.0588 212.989 47.8831C213.873 49.5162 214.621 51.2198 215.224 52.9764C215.727 54.6311 216.075 56.3286 216.266 58.0473C216.511 59.9702 216.634 61.179 216.637 61.6739V63.7175L216.454 67.0668H181.901C182.336 71.8367 183.796 75.3022 186.279 77.4636C188.762 79.6249 192.442 80.7011 197.32 80.6922C204.212 80.6922 209.635 79.5146 213.588 77.1595V84.2293C209.012 86.4294 203.465 87.5295 196.948 87.5295H196.667C194.084 87.5551 191.509 87.2179 189.02 86.5278C186.554 85.7869 184.24 84.6151 182.183 83.0667C179.944 81.4211 178.19 78.9482 176.92 75.6481C175.65 72.3479 175.016 68.3412 175.019 63.628ZM181.901 60.9763H209.755C209.741 59.7574 209.607 58.5429 209.357 57.3497C208.967 55.5978 208.437 53.8798 207.775 52.2117C206.934 50.0585 205.432 48.227 203.486 46.9798C201.423 45.5846 198.87 44.887 195.826 44.887C191.104 44.887 187.676 46.1108 185.541 48.5583C183.407 51.0058 182.193 55.1452 181.901 60.9763ZM227.942 104.41V53.4325C227.949 52.1102 228.145 50.7956 228.523 49.5287C229.085 47.8281 229.869 46.2089 230.853 44.7126C232.016 42.8375 234.033 41.3186 236.903 40.1559C239.774 38.9933 243.305 38.4116 247.497 38.4116C249.237 38.4041 250.975 38.5538 252.689 38.8591C254.619 39.2575 256.473 39.9626 258.18 40.9474C260.142 42.0232 261.875 43.4742 263.278 45.2179C264.703 46.9798 265.906 49.4318 266.886 52.5739C267.92 56.1485 268.408 59.8586 268.335 63.5789C268.335 68.301 267.699 72.3166 266.426 75.6257C265.153 78.9348 263.404 81.4121 261.18 83.0577C259.114 84.6121 256.789 85.787 254.312 86.5278C251.812 87.2179 249.227 87.5551 246.634 87.5295C242.633 87.5091 238.659 86.8896 234.842 85.6916V104.41H227.942ZM234.824 78.6978C238.548 80.2978 242.563 81.1049 246.616 81.0678C251.812 81.0678 255.588 79.6905 257.943 76.9359C260.298 74.1813 261.474 69.6977 261.471 63.4849C261.471 59.4962 261.045 56.1722 260.192 53.513C259.34 50.8538 258.147 48.916 256.615 47.6997C255.319 46.6248 253.83 45.8068 252.228 45.2895C250.685 44.8677 249.091 44.6645 247.492 44.6858C239.074 44.6858 234.849 47.5 234.82 53.1284L234.824 78.6978ZM277.422 52.158C277.371 48.4743 278.884 44.9416 281.585 42.4365C284.357 39.7535 288.597 38.4119 294.303 38.4119C298.529 38.4501 302.694 39.4373 306.488 41.3007V48.1424C303.048 46.0196 299.087 44.8898 295.045 44.8781C287.89 44.8781 284.313 47.3017 284.313 52.1491C284.313 53.7977 285.182 55.1273 286.92 56.1379C288.922 57.2538 291.063 58.1003 293.287 58.6555C295.801 59.3233 298.312 60.1237 300.822 61.0568C303.355 62.0044 305.57 63.6436 307.217 65.7879C308.967 68.0088 309.842 70.8409 309.842 74.2842C309.842 78.4131 308.301 81.6491 305.218 83.9923C302.136 86.3355 297.865 87.5071 292.407 87.5071C287.388 87.5718 282.437 86.3396 278.034 83.9297V76.6855C282.599 79.4908 287.292 80.8934 292.116 80.8934C299.342 80.8934 302.954 78.7022 302.951 74.32C302.951 71.9589 302.083 70.1091 300.348 68.7705C298.446 67.3536 296.279 66.3319 293.976 65.7655C291.466 65.0948 288.954 64.3644 286.441 63.5744C283.995 62.8159 281.792 61.428 280.051 59.5498C278.298 57.6806 277.422 55.2167 277.422 52.158ZM318.486 72.1825C318.453 70.2046 318.857 68.2439 319.671 66.4408C320.36 64.889 321.347 63.488 322.577 62.3178C323.872 61.1813 325.351 60.274 326.951 59.6348C328.473 58.9719 330.043 58.4219 331.646 57.9892C333.243 57.5997 334.868 57.3336 336.507 57.1932C338.379 57.0084 339.712 56.9011 340.504 56.8713C341.296 56.84 342.231 56.8221 343.317 56.8221L350.946 57.2692C350.946 52.9555 349.777 49.8775 347.44 48.0351C345.103 46.1928 341.645 45.2716 337.066 45.2716C332.335 45.2032 327.629 45.9738 323.168 47.5477V40.8848C327.749 39.2564 332.575 38.4202 337.437 38.4119C344.097 38.4119 349.175 40.0933 352.672 43.4561C356.169 46.8188 357.919 51.7377 357.922 58.2128V72.491C357.922 75.5318 357.217 78.1284 355.807 80.2808C354.503 82.3458 352.61 83.9733 350.374 84.9537C348.378 85.8445 346.29 86.5148 344.149 86.9526C342.259 87.32 340.337 87.5071 338.412 87.5116C336.909 87.5088 335.409 87.4147 333.918 87.2298C332.14 86.9926 330.393 86.57 328.704 85.9688C326.901 85.3687 325.198 84.5037 323.651 83.402C322.103 82.2143 320.852 80.6836 319.997 78.9303C318.954 76.8367 318.435 74.521 318.486 72.1825ZM325.368 72.1825C325.368 78.106 329.669 81.0678 338.273 81.0678H338.412C346.828 81.0678 351.037 78.1984 351.04 72.4597V63.3463C348.243 62.9252 345.416 62.7382 342.588 62.7874C331.111 62.7874 325.371 65.9191 325.368 72.1825ZM368.337 62.8142C368.337 57.8476 369.004 53.6352 370.34 50.1771C371.675 46.7189 373.464 44.1969 375.706 42.6109C379.396 39.8188 383.913 38.3408 388.54 38.4119C392.597 38.4119 396.005 38.9784 398.762 40.1112C401.52 41.244 403.458 42.7003 404.575 44.4801C405.517 45.9198 406.269 47.4755 406.811 49.1083C407.19 50.36 407.386 51.6598 407.393 52.9674V88.7771C407.417 90.7509 407.115 92.7152 406.498 94.5903C405.821 96.4849 404.806 98.241 403.502 99.7731C402.113 101.463 399.984 102.781 397.117 103.726C394.249 104.671 390.789 105.145 386.738 105.148C382.175 105.13 377.632 104.552 373.211 103.426V96.9916C377.372 98.1539 381.675 98.7332 385.995 98.7133C388.563 98.7597 391.126 98.4817 393.624 97.886C395.681 97.3434 397.172 96.5713 398.096 95.5696C398.931 94.714 399.578 93.6936 399.996 92.5736C400.364 91.4175 400.537 90.2088 400.511 88.9962V84.2606C396.911 85.4245 393.15 86.0101 389.367 85.9956C387.384 86.0072 385.404 85.8275 383.455 85.459C381.487 85.0528 379.594 84.3391 377.848 83.3439C375.958 82.3082 374.288 80.9156 372.929 79.2433C371.561 77.5709 370.45 75.335 369.598 72.5357C368.701 69.375 368.276 66.0991 368.337 62.8142ZM375.219 62.7874C375.219 66.3647 375.599 69.3027 376.359 71.6011C377.119 73.8996 378.227 75.6123 379.681 76.7392C380.992 77.776 382.5 78.5366 384.113 78.975C385.837 79.38 387.605 79.5737 389.376 79.5519C393.197 79.5506 396.981 78.8096 400.52 77.3697V52.7215C400.52 47.3882 396.526 44.7216 388.54 44.7216C387.003 44.6995 385.47 44.9029 383.992 45.3252C382.468 45.8348 381.052 46.6233 379.815 47.6505C378.364 48.7983 377.234 50.6585 376.426 53.2313C375.618 55.804 375.213 58.9894 375.21 62.7874H375.219ZM419.399 75.3216C418.067 71.9261 417.4 67.8106 417.4 62.9752C417.4 58.1397 418.067 54.0242 419.399 50.6287C420.732 47.2362 422.546 44.7022 424.841 43.0268C426.949 41.4371 429.317 40.2266 431.84 39.4494C434.395 38.7266 437.041 38.3742 439.696 38.403C442.368 38.3766 445.03 38.7289 447.602 39.4494C450.143 40.22 452.528 41.4309 454.65 43.0268C456.942 44.6992 458.756 47.2332 460.092 50.6287C461.428 54.0242 462.094 58.1397 462.091 62.9752C462.091 67.8136 461.425 71.9291 460.092 75.3216C458.759 78.7142 456.945 81.2482 454.65 82.9236C452.526 84.51 450.141 85.7132 447.602 86.4786C445.03 87.1991 442.368 87.5514 439.696 87.525C437.041 87.5537 434.395 87.2013 431.84 86.4786C429.321 85.7079 426.955 84.5066 424.846 82.928C422.544 81.2526 420.729 78.7172 419.399 75.3216ZM427.976 49.0725C425.529 51.9822 424.305 56.6164 424.305 62.9752C424.305 69.334 425.529 73.9652 427.976 76.8688C430.427 79.7814 434.348 81.2377 439.741 81.2377C445.134 81.2377 449.065 79.7963 451.533 76.9136C453.996 74.0308 455.228 69.3802 455.231 62.9618C455.234 56.5433 454.002 51.8927 451.533 49.0099C449.068 46.1272 445.137 44.6858 439.741 44.6858C434.345 44.6858 430.424 46.148 427.976 49.0725ZM473.02 86.7871V43.0715C479.271 39.9676 486.163 38.3746 493.143 38.4209C499.12 38.4209 503.757 39.9398 507.054 42.9776C510.351 46.0154 512 50.2948 512 55.8159V86.7871H505.118V55.8159C505.135 54.6105 504.996 53.4078 504.702 52.2385C504.347 51.0481 503.798 49.9242 503.079 48.9116C502.274 47.734 500.974 46.8277 499.179 46.1928C496.989 45.4992 494.697 45.1773 492.4 45.2403C488.169 45.2762 483.965 45.9177 479.915 47.1452V86.7693L473.02 86.7871Z" fill="black"/>
</g>
<defs>
<linearGradient id="paint0_linear_1_3457" x1="-10203.2" y1="-3890.81" x2="428.904" y2="-110.521" gradientUnits="userSpaceOnUse">
<stop stop-color="#5CCD53"/>
<stop offset="0.99" stop-color="#0000F3"/>
</linearGradient>
<linearGradient id="paint1_linear_1_3457" x1="1128.38" y1="975.223" x2="11750" y2="4751.78" gradientUnits="userSpaceOnUse">
<stop stop-color="#5CCD53"/>
<stop offset="0.99" stop-color="#0000F3"/>
</linearGradient>
<linearGradient id="paint2_linear_1_3457" x1="517.415" y1="991.195" x2="7945.37" y2="3632.24" gradientUnits="userSpaceOnUse">
<stop stop-color="#5CCD53"/>
<stop offset="0.99" stop-color="#0000F3"/>
</linearGradient>
<linearGradient id="paint3_linear_1_3457" x1="-979.211" y1="2308.44" x2="10738.9" y2="6474.89" gradientUnits="userSpaceOnUse">
<stop stop-color="#5CCD53"/>
<stop offset="0.99" stop-color="#0000F3"/>
</linearGradient>
<linearGradient id="paint4_linear_1_3457" x1="6941.4" y1="4712.31" x2="14724.3" y2="4712.31" gradientUnits="userSpaceOnUse">
<stop stop-color="white" stop-opacity="0"/>
<stop offset="1" stop-color="white" stop-opacity="0.8"/>
</linearGradient>
<linearGradient id="paint5_linear_1_3457" x1="5168.5" y1="4314.69" x2="98.0115" y2="4314.69" gradientUnits="userSpaceOnUse">
<stop stop-color="#EEF1FE"/>
<stop offset="0.87071" stop-color="#C6D4FC"/>
<stop offset="1" stop-color="#C2D1FC" stop-opacity="0"/>
</linearGradient>
<clipPath id="clip0_1_3457">
<rect width="512" height="106" fill="white"/>
</clipPath>
</defs>
</svg>
