<svg width="256" height="225" viewBox="0 0 256 225" fill="none" xmlns="http://www.w3.org/2000/svg">
<g clip-path="url(#clip0_1_3491)">
<path d="M256 0H0V225H256V0Z" fill="white"/>
<path d="M44.34 159.659C25.5366 139.734 14.535 112.207 14.5629 79.3646C14.5369 50.3194 23.6629 25.3537 39.3518 6.35645L39.3264 6.36595H6.35059V159.662H44.3165L44.34 159.659Z" fill="#A90533"/>
<path d="M218.009 159.671C226.11 150.996 233.368 140.779 239.944 129.094L203.445 110.844C190.627 131.684 171.881 150.865 145.959 150.993C108.233 150.865 93.4103 118.605 93.492 77.0828H234.469C234.658 72.3949 234.658 70.2151 234.469 67.9586C235.39 43.2553 228.843 22.4908 216.933 6.32031L216.871 6.36657H248.613V159.662H217.94L218.009 159.671Z" fill="#A90533"/>
<path d="M95.7737 41.496C97.3344 22.6965 112.156 10.0536 129.535 10.0156C147.033 10.0536 159.675 22.6965 160.103 41.496H95.7737Z" fill="#A90533"/>
<path d="M26.4256 185.668V179.281H6.80737V217.149H26.4256V210.761H14.1072V200.724H25.9687V194.337H14.1072V185.668H26.4256Z" fill="black"/>
<path d="M59.7309 201.181C64.6215 200.454 67.307 195.608 67.4869 190.687C67.307 182.636 62.0881 179.305 54.7123 179.281H44.675V217.149H51.9748V202.093L61.0996 217.149H70.2244L59.7309 201.181ZM51.9742 185.213H52.8867C56.8693 185.363 59.8583 186.271 59.7303 191.144C59.8583 195.609 56.9707 196.82 52.8867 196.619H51.9742V185.213Z" fill="black"/>
<path d="M93.0357 179.281H85.7366V217.149H103.529V210.761H93.0357V179.281Z" fill="black"/>
<path d="M140.941 209.392L144.134 217.148H151.89L137.747 178.368H131.816L116.76 217.148H124.515L127.71 209.392H140.941ZM139.116 203.462H129.991L134.097 189.319L139.116 203.462Z" fill="black"/>
<path d="M165.578 217.149H173.334V191.6L193.409 218.061H198.883V179.281H191.127V204.831L171.052 178.368H165.578V217.149Z" fill="black"/>
<path d="M230.82 197.074V203.005H239.032C238.861 207.772 234.96 211.81 230.364 211.674C223.104 211.81 219.507 204.795 219.414 198.443C219.507 192.176 223.054 184.857 230.364 184.756C234.2 184.856 237.443 187.481 239.032 190.687L245.42 187.493C242.611 181.576 236.936 178.295 230.364 178.368C219.051 178.296 211.806 187.633 211.658 198.443C211.806 208.983 218.849 218.372 229.907 218.517C241.851 218.372 247.373 208.832 247.244 197.987V197.074H230.82Z" fill="black"/>
</g>
<defs>
<clipPath id="clip0_1_3491">
<rect width="256" height="225" fill="white"/>
</clipPath>
</defs>
</svg>
