<svg width="512" height="226" viewBox="0 0 512 226" fill="none" xmlns="http://www.w3.org/2000/svg">
<g clip-path="url(#clip0_1_3525)">
<path d="M92.5152 41.1179C102.55 41.1179 111.85 42.5864 120.417 45.5233C129.228 48.2156 137.304 52.3763 144.647 58.0056C151.745 63.6348 158.108 69.8759 163.737 76.7289C169.611 83.5818 174.751 90.9243 179.156 98.7563L57.6384 164.471L43.3206 138.773L129.962 89.5782L128.493 88.844C128.004 88.3545 127.514 87.7426 127.025 87.0083L125.189 85.1727C124.7 84.4385 124.088 83.7042 123.354 82.97C122.619 82.4805 121.763 81.991 120.784 81.5015L118.581 79.2987L115.644 77.8302C114.665 77.096 113.564 76.4841 112.34 75.9946C109.99 74.8198 107.19 73.9834 103.938 73.4853L103.529 73.4248C100.347 72.9352 96.6759 72.6905 92.5152 72.6905C82.97 72.6905 74.5261 74.4037 67.1837 77.8302C60.0859 81.2567 54.0896 86.2741 49.1946 92.8823C44.2996 99.4905 40.6284 106.466 38.1809 113.808C35.7334 121.151 34.5096 128.738 34.5096 136.57V137.671C34.5096 144.769 35.7334 151.622 38.1809 158.23C40.8731 164.594 44.6667 170.713 49.5617 176.587C54.4567 182.461 60.453 186.866 67.5508 189.803C74.8932 192.74 83.2147 194.208 92.5152 194.208C102.55 194.208 110.871 193.107 117.48 190.904C124.333 188.457 129.472 184.908 132.899 180.258C136.325 175.363 139.385 169.611 142.077 163.003C144.922 156.601 147.423 149.396 149.579 141.386L149.786 140.608V140.241L150.154 139.874V139.507L182.093 141.343V142.811C182.093 143.056 182.216 143.301 182.461 143.545V146.85C182.461 147.094 182.583 147.339 182.828 147.584V149.419C182.828 151.377 182.705 153.458 182.461 155.66C182.216 157.618 181.849 159.699 181.359 161.902C181.114 162.881 180.747 163.982 180.258 165.206C180.013 166.429 179.768 167.531 179.524 168.51L178.055 172.181C177.81 173.16 177.443 174.261 176.954 175.485C174.017 181.604 170.101 187.6 165.206 193.474C160.311 199.348 154.314 204.855 147.217 209.995C140.364 215.135 132.287 218.928 122.986 221.376C113.931 224.068 103.774 225.414 92.5152 225.414C79.5435 225.414 67.5508 223.456 56.5371 219.54C45.5233 215.379 35.611 209.138 26.8 200.817C17.7443 192.25 11.0137 182.705 6.60823 172.181C2.20274 161.412 0 149.542 0 136.57C0 122.864 1.83562 110.749 5.50686 100.225C9.17809 89.7006 14.6849 80.6449 22.0274 73.0576C29.3699 65.4704 37.0795 59.2293 45.1562 54.3343C53.2329 49.4393 61.6768 45.8905 70.4878 43.6877C71.4668 43.443 72.3234 43.3206 73.0576 43.3206L75.9946 42.5864H78.5645L81.5015 41.8521C83.4595 41.6074 85.2951 41.485 87.0083 41.485C88.9663 41.2402 90.8019 41.1179 92.5152 41.1179ZM422.055 41.1179C436.495 41.1179 449.344 43.0759 460.603 46.9918C471.861 50.9078 481.284 56.7818 488.871 64.6138C496.703 72.4458 502.455 80.7672 506.126 89.5782C510.042 98.1444 512 107.078 512 116.378V219.54H477.123V118.214C477.123 112.829 476.022 107.567 473.819 102.428C471.861 97.0431 468.802 92.0257 464.641 87.3755C460.48 82.4805 454.606 78.8092 447.019 76.3617C439.432 73.9143 430.254 72.6905 419.485 72.6905C417.772 72.6905 415.936 72.8129 413.978 73.0576C412.265 73.3024 410.307 73.6695 408.104 74.159C405.901 74.4038 403.698 74.8932 401.496 75.6275C399.293 76.3617 397.09 77.3407 394.888 78.5645C390.972 80.2777 387.178 82.7252 383.507 85.907C379.835 88.8439 376.287 92.3928 372.86 96.5536C369.678 100.47 367.108 105.365 365.15 111.239C363.192 116.868 361.969 123.354 361.479 130.696C361.479 140.486 362.825 149.052 365.518 156.395C368.21 163.492 372.248 169.489 377.633 174.384C383.262 179.034 389.014 182.828 394.888 185.765C401.006 188.457 407.37 190.17 413.978 190.904H415.814C416.303 191.149 416.67 191.271 416.915 191.271H422.055C424.992 191.271 427.684 191.149 430.131 190.904C432.824 190.415 435.394 189.681 437.841 188.702C439.065 188.212 440.166 187.723 441.145 187.233L444.816 185.765C445.795 185.03 446.897 184.296 448.12 183.562C449.344 182.828 450.446 181.971 451.425 180.992C452.648 180.258 453.75 179.401 454.729 178.422C455.952 177.198 457.176 176.097 458.4 175.118C459.624 173.894 460.847 172.793 462.071 171.814L465.742 168.143V208.159C465.525 208.594 465.307 208.933 465.09 209.174L465.008 209.261V209.628C462.071 211.586 459.012 213.421 455.83 215.135C452.648 216.603 449.344 217.949 445.918 219.173C442.491 220.152 438.331 220.886 433.436 221.376C428.541 222.11 422.911 222.477 416.548 222.477H411.775C400.517 222.477 389.993 220.519 380.203 216.603C370.657 212.442 361.846 206.201 353.77 197.88C345.693 189.313 339.574 179.524 335.413 168.51C331.497 157.251 329.539 144.647 329.539 130.696C329.539 118.459 331.497 107.078 335.413 96.5536C339.329 86.0293 345.203 76.3617 353.035 67.5508C360.867 58.7398 370.535 52.1316 382.038 47.7261C393.541 43.3206 406.88 41.1179 422.055 41.1179ZM253.901 0V43.3206H320.717V74.8932H253.901V164.471C253.901 167.898 254.145 170.957 254.635 173.65C255.124 176.342 255.858 178.912 256.837 181.359C257.816 183.807 259.897 185.642 263.079 186.866C266.505 187.845 271.155 188.335 277.029 188.335L317.78 187.6V219.54H272.257L271.89 219.907H269.32C260.998 219.907 253.778 218.683 247.659 216.236C241.541 213.788 236.523 209.995 232.607 204.855C228.691 199.715 225.632 194.208 223.429 188.335C221.471 182.461 220.247 176.342 219.758 169.978C219.513 169.489 219.391 168.999 219.391 168.51V0H253.901Z" fill="#0C022F"/>
</g>
<defs>
<clipPath id="clip0_1_3525">
<rect width="512" height="226" fill="white"/>
</clipPath>
</defs>
</svg>
