<svg width="256" height="427" viewBox="0 0 256 427" fill="none" xmlns="http://www.w3.org/2000/svg">
<g clip-path="url(#clip0_1_3531)">
<path d="M256 241.649L128 426.8V322.456L256 241.649ZM188.159 306.731L147.071 332.587V366.06L188.159 306.731Z" fill="#5A9DED"/>
<path d="M0 241.649L128 426.8V322.456L0 241.649ZM67.8405 306.731L108.929 332.587V366.06L67.8405 306.731Z" fill="#53D3E0"/>
<path d="M144.238 156.998L229.013 204.213L232.018 213.4L221.924 222.212L144.238 178.854V156.998Z" fill="#D995D1"/>
<path d="M111.818 156.998L27.0426 204.213L24.0377 213.4L34.1318 222.212L111.818 178.854V156.998Z" fill="#A6E276"/>
<path d="M128 0L256 219.203L128 299.811V0ZM146.904 70.3167V266.031L230.526 213.4L146.904 70.3167Z" fill="#FF9C92"/>
<path d="M128 0L0 219.203L128 299.811V0ZM109.096 70.3167V266.031L25.4743 213.4L109.096 70.3167Z" fill="#FFE94D"/>
</g>
<defs>
<clipPath id="clip0_1_3531">
<rect width="256" height="427" fill="white"/>
</clipPath>
</defs>
</svg>
