<svg width="256" height="256" viewBox="0 0 256 256" fill="none" xmlns="http://www.w3.org/2000/svg">
<g clip-path="url(#clip0_1_3550)">
<path d="M128 0C198.687 0 256 57.3127 256 128C256 198.687 198.687 256 128 256C57.3127 256 0 198.687 0 128C0 57.3127 57.3127 0 128 0Z" fill="#24373E"/>
<path d="M128 46.9678C172.774 46.9678 208.98 83.278 208.98 127.947C208.98 172.617 172.669 208.927 128 208.927C83.3307 208.927 47.0205 172.721 47.0205 127.947C47.0205 83.278 83.2785 46.9678 128 46.9678Z" fill="#F8F4EF"/>
<path d="M128 79.7783C154.593 79.7783 176.222 101.355 176.222 128C176.222 154.645 154.645 176.222 128 176.222C101.355 176.222 79.7781 154.593 79.7781 127.948C79.7781 101.303 101.355 79.7783 128 79.7783Z" fill="#8EB0BD"/>
</g>
<defs>
<clipPath id="clip0_1_3550">
<rect width="256" height="256" fill="white"/>
</clipPath>
</defs>
</svg>
