<svg width="256" height="256" viewBox="0 0 256 256" fill="none" xmlns="http://www.w3.org/2000/svg">
<g clip-path="url(#clip0_1_3555)">
<path d="M128 256C198.692 256 256 198.692 256 128C256 57.3075 198.692 0 128 0C57.3075 0 0 57.3075 0 128C0 198.692 57.3075 256 128 256Z" fill="#F05537"/>
<path d="M117.475 82.7287C136.772 78.4405 156.07 86.3022 166.79 101.311L81.5017 120.608C84.3605 102.264 98.1782 87.0169 117.475 82.7287ZM167.267 153.485C160.596 163.252 150.352 170.161 138.678 172.782C119.381 177.07 99.8459 169.208 89.1252 153.961L174.652 134.664L188.47 131.567L215.152 125.611C214.914 119.893 214.199 114.176 213.008 108.696C202.287 62.7169 155.355 33.8903 108.422 44.611C61.4899 55.3316 32.1869 101.073 43.1457 147.291C54.1046 193.508 100.799 222.097 147.731 211.376C175.367 205.182 196.808 186.6 207.767 163.014L167.267 153.485Z" fill="white"/>
</g>
<defs>
<clipPath id="clip0_1_3555">
<rect width="256" height="256" fill="white"/>
</clipPath>
</defs>
</svg>
