<svg width="256" height="256" viewBox="0 0 256 256" fill="none" xmlns="http://www.w3.org/2000/svg">
<g clip-path="url(#clip0_1_3563)">
<path d="M98.1465 242.921L13.4157 158.189C-3.29173 141.481 -3.29173 114.394 13.4157 97.6862L98.1465 12.9554C114.854 -3.75206 141.942 -3.75206 158.649 12.9554L243.38 97.6862C260.087 114.394 260.087 141.481 243.38 158.189L158.649 242.921C141.942 259.629 114.854 259.629 98.1465 242.921Z" fill="white"/>
<mask id="mask0_1_3563" style="mask-type:luminance" maskUnits="userSpaceOnUse" x="0" y="0" width="256" height="256">
<path d="M98.1465 242.921L13.4157 158.189C-3.29173 141.481 -3.29173 114.394 13.4157 97.6862L98.1465 12.9554C114.854 -3.75206 141.942 -3.75206 158.649 12.9554L243.38 97.6862C260.087 114.394 260.087 141.481 243.38 158.189L158.649 242.921C141.942 259.629 114.854 259.629 98.1465 242.921Z" fill="#F4922E"/>
</mask>
<g mask="url(#mask0_1_3563)">
<path d="M247.196 102.088C246.047 100.583 244.828 99.116 243.451 97.7392L213.575 67.8633C153.998 94.2624 35.5234 99.7301 9.22456 100.612C9.32661 100.491 0.819798 116.353 0.902826 116.069C34.2503 117.711 197.04 124.207 247.196 102.088Z" fill="#F4922E"/>
</g>
<mask id="mask1_1_3563" style="mask-type:luminance" maskUnits="userSpaceOnUse" x="0" y="0" width="256" height="256">
<path d="M98.1465 242.921L13.4157 158.189C-3.29173 141.481 -3.29173 114.394 13.4157 97.6862L98.1465 12.9554C114.854 -3.75206 141.942 -3.75206 158.649 12.9554L243.38 97.6862C260.087 114.394 260.087 141.481 243.38 158.189L158.649 242.921C141.942 259.629 114.854 259.629 98.1465 242.921Z" fill="#F4922E"/>
</mask>
<g mask="url(#mask1_1_3563)">
<path d="M33.0811 77.1888C64.8441 76.2184 135.775 70.4809 187.321 40.0048L158.398 11.8448C141.501 -5.61682 113.545 -4.48904 96.6486 12.9726L33.0811 77.1888Z" fill="#F4922E"/>
</g>
<mask id="mask2_1_3563" style="mask-type:luminance" maskUnits="userSpaceOnUse" x="0" y="0" width="256" height="256">
<path d="M98.1465 242.921L13.4157 158.189C-3.29173 141.481 -3.29173 114.394 13.4157 97.6862L98.1465 12.9554C114.854 -3.75206 141.942 -3.75206 158.649 12.9554L243.38 97.6862C260.087 114.394 260.087 141.481 243.38 158.189L158.649 242.921C141.942 259.629 114.854 259.629 98.1465 242.921Z" fill="#F4922E"/>
</mask>
<g mask="url(#mask2_1_3563)">
<path d="M96.6347 243.027C113.342 259.734 140.757 262.054 159.567 243.459L189.428 213.599C139.674 184.43 68.0648 181.277 35.4594 181.837L96.6347 243.027Z" fill="#F4922E"/>
</g>
<mask id="mask3_1_3563" style="mask-type:luminance" maskUnits="userSpaceOnUse" x="0" y="0" width="256" height="256">
<path d="M98.1465 242.921L13.4157 158.189C-3.29173 141.481 -3.29173 114.394 13.4157 97.6862L98.1465 12.9554C114.854 -3.75206 141.942 -3.75206 158.649 12.9554L243.38 97.6862C260.087 114.394 260.087 141.481 243.38 158.189L158.649 242.921C141.942 259.629 114.854 259.629 98.1465 242.921Z" fill="#F4922E"/>
</mask>
<g mask="url(#mask3_1_3563)">
<path d="M-1.58618 136.252L9.48582 157.571C42.7451 158.662 144.356 163.741 215.145 186.549L243.451 158.243C245.691 156.003 247.606 153.566 249.245 151.005C201.174 127.546 33.6 134.664 1.82139 136.252" fill="#F4922E"/>
</g>
</g>
<defs>
<clipPath id="clip0_1_3563">
<rect width="256" height="256" fill="white"/>
</clipPath>
</defs>
</svg>
