<svg width="256" height="231" viewBox="0 0 256 231" fill="none" xmlns="http://www.w3.org/2000/svg">
<g clip-path="url(#clip0_1_3593)">
<path d="M121.309 84.6733C123.402 81.5874 125.694 81.195 127.553 81.195C129.413 81.195 132.51 81.5874 134.604 84.6733C151.106 107.34 178.345 152.492 198.439 185.799C211.542 207.52 221.607 224.202 223.672 226.325C231.423 234.295 242.053 229.328 248.231 220.288C254.312 211.388 256 205.138 256 198.471C256 193.93 167.895 30.0714 159.022 16.4322C150.489 3.3136 147.71 0 133.105 0H122.177C107.616 0 105.511 3.3136 96.9776 16.4322C88.1054 30.0714 0 193.93 0 198.471C0 205.138 1.68828 211.388 7.7698 220.288C13.947 229.328 24.5775 234.295 32.3285 226.325C34.3936 224.202 44.458 207.52 57.5615 185.799C77.6547 152.492 104.807 107.34 121.309 84.6733Z" fill="#000020"/>
</g>
<defs>
<clipPath id="clip0_1_3593">
<rect width="256" height="231" fill="white"/>
</clipPath>
</defs>
</svg>
