<svg width="256" height="195" viewBox="0 0 256 195" fill="none" xmlns="http://www.w3.org/2000/svg">
<g clip-path="url(#clip0_1_3603)">
<path d="M195.575 178.073C194.284 183.607 193.622 186.977 190.866 190.696C189.03 193.176 186.021 194.6 182.956 194.241C180.293 193.93 177.714 192.789 175.121 191.791C145.135 180.25 120.936 159.929 96.4871 139.982C90.6598 135.228 78.3629 124.221 71.3792 118.438C88.3817 106.418 95.4202 98.9844 95.4202 98.9844C122.818 122.77 154.761 150.616 188.098 164.543C193.41 166.764 198.381 166.044 195.575 178.073Z" fill="#FEC32D"/>
<path d="M161.69 88.6738C153.977 82.5787 140.486 72.4592 132.87 66.5841C113.517 51.6554 92.8763 39.1961 69.1978 32.0968C56.3729 28.2519 54.6885 15.3612 64.3846 3.9747C66.1467 1.90478 68.902 0.54609 71.5636 1.10291C115.664 10.3358 149.038 37.3583 186.202 71.4631C173.628 78.1061 161.69 88.6738 161.69 88.6738Z" fill="#FEC32D"/>
<path d="M135.123 120.681C162.66 92.8095 216.125 59.134 243.088 57.8959C246.239 57.7514 249.233 59.3273 250.888 62.0128C253.544 66.321 254.402 71.4788 255.195 76.551C255.961 81.4518 253.406 85.6345 248.758 86.9364C216.546 95.9592 185.262 117.896 159.87 138.841C151.329 134.807 135.123 120.681 135.123 120.681Z" fill="#2C6DB0"/>
<path d="M120.093 67.9057C88.4605 94.3186 54.1366 125.831 17.0306 137.113C13.8978 138.066 10.4393 137.28 8.18611 134.904C5.15495 131.708 3.99448 128.418 2.76529 125.217C-1.52794 114.032 -0.310699 110.76 10.8039 106.483C36.894 96.4403 58.6022 79.7505 79.6051 61.9101C82.7857 59.2087 89.0941 54.022 92.5735 51.1611C104.08 54.2451 120.093 67.9057 120.093 67.9057Z" fill="#2C6DB0"/>
<path d="M63.1037 165.362C72.1752 160.713 86.1407 155.226 95.2451 150.111C102.599 156.596 119.627 169.514 119.627 169.514C107.28 177.767 87.588 190.056 73.8786 193.601C70.5645 194.459 67.0453 193.169 64.9515 190.461C60.9431 185.274 58.6252 179.767 58.4259 173.215C58.3263 169.928 60.1781 166.861 63.1037 165.362Z" fill="#2C6DB0"/>
<path d="M136.655 20.665C152.867 10.8593 171.108 3.49609 183.607 0.821541C187.044 0.0864126 190.636 1.58755 192.523 4.55396C196.11 10.1929 197.601 15.8598 197.235 22.0586C197.054 25.1166 195.359 27.8918 192.671 29.3591C184.83 33.6413 170.864 36.9803 162.837 40.4836C162.837 40.4836 148.682 28.5433 136.655 20.665Z" fill="#2C6DB0"/>
<path d="M233.098 101.672C254.992 110.176 263.068 113.059 247.095 135.123C245.222 137.709 242.247 137.726 239.139 136.992C229.177 134.639 211.499 124.453 201.713 118.76C219.751 106.282 233.098 101.672 233.098 101.672Z" fill="#FEC32D"/>
<path d="M25.6719 91.7886C20.265 90.2426 9.97822 88.611 5.26762 85.7422C3.13794 84.4453 1.70554 82.1871 1.39973 79.7128C0.625756 73.4562 2.23248 67.8212 5.28356 62.1514C6.95105 59.0545 10.3548 57.2625 13.8511 57.65C24.3501 58.8164 43.324 66.7504 53.5958 71.4471C38.7199 85.1455 25.6719 91.7886 25.6719 91.7886Z" fill="#FEC32D"/>
</g>
<defs>
<clipPath id="clip0_1_3603">
<rect width="256" height="195" fill="white"/>
</clipPath>
</defs>
</svg>
