<svg width="512" height="136" viewBox="0 0 512 136" fill="none" xmlns="http://www.w3.org/2000/svg">
<g clip-path="url(#clip0_1_3660)">
<path d="M161.539 54.6374V49.6985C161.539 33.4584 175.207 21.4453 191.271 21.4453C194.491 21.4453 197.712 21.9347 199.149 22.4241L195.449 36.9289C194.143 36.4395 192.707 36.2615 191.271 36.2615C182.913 36.2615 177.297 42.4905 177.297 49.7429V54.6818H196.58V66.8283H177.297V128.585H161.539V66.7839H152.224V54.6374H161.539ZM199.759 91.6099C199.759 70.2532 214.864 53.8352 234.801 53.8352C245.073 53.8352 254.085 59.4416 259.394 67.8061V54.6807H275.109V128.584H259.352V115.459C253.866 123.823 244.899 129.429 234.757 129.429C214.864 129.385 199.759 112.789 199.759 91.6099ZM215.517 91.6099C215.517 105.893 225.311 117.06 237.369 117.06C247.642 117.06 259.394 108.339 259.394 91.6099C259.394 77.5059 249.906 66.1601 237.369 66.1601C225.311 66.1601 215.517 77.6391 215.517 91.6099ZM285.251 97.5233V54.6765H300.834V98.5466C300.834 108.068 307.886 116.299 317.854 116.299C330.565 116.299 337.443 105.31 337.443 97.568V54.7209H353.027V128.624H337.443V118.614C332.481 125.02 324.602 129.47 315.417 129.47C296.482 129.381 285.251 114.743 285.251 97.5233ZM361.733 128.541V54.6374H377.318V64.6483C382.149 58.2414 390.027 53.792 399.343 53.792C418.147 53.792 429.551 68.4303 429.551 85.6488V128.496H413.971V84.6258C413.971 74.6149 406.439 66.873 396.773 66.873C383.932 66.873 377.318 78.3524 377.318 85.6048V128.452H361.733V128.541ZM436.606 91.6099C436.606 70.2532 451.708 53.8352 471.645 53.8352C481.92 53.8352 490.931 59.4416 496.239 67.8061V54.6807H512V128.584H496.239V115.459C490.758 123.823 481.788 129.429 471.645 129.429C451.708 129.385 436.606 112.789 436.606 91.6099ZM452.363 91.6099C452.363 105.893 462.156 117.06 474.214 117.06C484.489 117.06 496.239 108.339 496.239 91.6099C496.239 77.5059 486.751 66.1601 474.214 66.1601C462.156 66.1601 452.363 77.6391 452.363 91.6099Z" fill="#3A1AB6"/>
<path d="M93.0667 28.4757C84.8398 31.2788 80.8784 36.3066 78.1797 44.1373C77.4832 46.2284 75.742 48.5423 73.7833 50.0995L80.5304 57.4854L59.1134 42.1797L0 0C0 0 4.26594 28.2977 5.74595 38.7093C6.79065 46.0504 8.57541 49.3429 14.2343 52.6801L16.4979 53.9258L26.2486 59.1763L20.4591 56.1061L47.1863 71.0112L47.0125 71.4119L18.239 57.797C19.7626 63.1362 22.7226 73.4139 23.985 77.9524C25.3344 82.8465 26.858 84.6261 31.5157 86.3621L40.0912 89.5654L45.4018 87.4295L38.6547 92.0124L4.91886 135.749C27.3368 114.481 46.3157 106.917 60.2019 100.733C77.9186 92.9022 88.5834 87.8746 95.548 69.8099C100.511 57.1295 104.384 40.8896 109.304 34.6158L119.795 20.9119C119.795 20.9119 98.0725 26.785 93.0667 28.4757Z" fill="#3A1AB6"/>
</g>
<defs>
<clipPath id="clip0_1_3660">
<rect width="512" height="136" fill="white"/>
</clipPath>
</defs>
</svg>
