<svg width="256" height="290" viewBox="0 0 256 290" fill="none" xmlns="http://www.w3.org/2000/svg">
<g clip-path="url(#clip0_1_3657)">
<path d="M198.883 60.8523C181.302 66.8426 172.836 77.5868 167.069 94.3209C165.581 98.7896 161.86 103.734 157.674 107.062L172.093 122.846L126.325 90.1376L0 0C0 0 9.11627 60.472 12.279 82.7214C14.5116 98.4093 18.3256 105.445 30.4185 112.577L35.2558 115.239L56.0929 126.459L43.7209 119.898L100.837 151.75L100.465 152.607L38.9766 123.512C42.2326 134.921 48.5579 156.885 51.2556 166.584C54.1394 177.042 57.3952 180.845 67.3487 184.555L85.6745 191.4L97.0232 186.836L82.6048 196.63L10.5116 290.094C58.4185 244.646 98.9762 228.482 128.651 215.265C166.511 198.531 189.302 187.787 204.185 149.183C214.79 122.085 223.068 87.3806 233.582 73.9736L256 44.6885C256 44.6885 209.58 57.2393 198.883 60.8523Z" fill="#3A1AB6"/>
</g>
<defs>
<clipPath id="clip0_1_3657">
<rect width="256" height="290" fill="white"/>
</clipPath>
</defs>
</svg>
