<svg width="256" height="244" viewBox="0 0 256 244" fill="none" xmlns="http://www.w3.org/2000/svg">
<g clip-path="url(#clip0_1_3677)">
<path d="M2.13226 51.5918V21.1895L22.541 28.2205V56.5031L2.13226 51.5918Z" fill="#0B4819"/>
<path d="M18.5894 176.576V63.5332L38.0968 67.66V172.721L18.5894 176.576Z" fill="#0B4819"/>
<path d="M114.003 21.1394L63.8675 78.6393V103.108L138.225 19.2658L256 10.1484L82.7616 190.718L105.824 191.933L231.652 63.2337V184.872L217.674 198.012L253.125 199.928V233.593L141.922 224.98L198.609 169.988V142.887L117.566 223.094L20.5256 215.592L176.18 48.1952L150.564 49.5806L38.0969 172.721V67.6609L48.7498 55.0844L22.541 56.5031V28.2204L114.003 21.1394Z" fill="#105C80"/>
<path d="M18.5894 63.5333L29.8724 49.9512L48.7498 55.0836L38.0968 67.6602L18.5894 63.5333Z" fill="#0B4819"/>
<path d="M45.9165 75.2715L63.8675 78.6389V103.108L45.9165 101.639V75.2715Z" fill="#084010"/>
<path d="M66.0123 196.143L82.7616 190.719L105.824 191.933L90.6063 197.562L66.0123 196.143Z" fill="#0C541E"/>
<path d="M99.3439 12.9609L114.003 21.1395L63.8675 78.6394L45.9165 75.272L99.3439 12.9609Z" fill="#1A5C34"/>
<path d="M45.9165 101.639L125.273 10.7656L138.225 19.2654L63.8675 103.108L45.9165 101.639Z" fill="#0B4819"/>
<path d="M138.513 43.5293L150.564 49.5797L38.0968 172.721L18.5894 176.576L138.513 43.5293Z" fill="#1A5C34"/>
<path d="M0 222.589L166.066 41.9023L176.18 48.1948L20.5256 215.591L0 222.589Z" fill="#0B4819"/>
<path d="M190.263 144.698L198.609 142.887L117.566 223.095L103.154 231.323L190.263 144.698Z" fill="#1A5C34"/>
<path d="M190.263 174.157V144.698L198.609 142.887V169.988L190.263 174.157Z" fill="#0B4819"/>
<path d="M129.241 233.526L190.263 174.157L198.609 169.988L141.922 224.98L129.241 233.526Z" fill="#0B4819"/>
<path d="M226.027 190.475L210.88 204.708L217.674 198.011L231.652 184.871L226.027 190.475Z" fill="#13802D"/>
<path d="M90.6063 197.561L226.027 58L231.652 63.2326L105.824 191.932L90.6063 197.561Z" fill="#0B4819"/>
<path d="M226.027 58L231.652 63.2326V184.871L226.027 190.475V58Z" fill="#084010"/>
<path d="M249.357 206.984L253.125 199.928V233.593L249.357 243.699V206.984Z" fill="#084010"/>
<path d="M252.478 0L256 10.148L82.7616 190.718L66.0123 196.142L252.478 0Z" fill="#1A5C34"/>
<path d="M99.3439 12.9604L45.9165 75.2715V101.639L125.273 10.7656L252.478 0L66.0123 196.142L90.6062 197.561L226.027 58.0007V190.476L210.88 204.709L249.357 206.983V243.699L129.241 233.526L190.263 174.156V144.697L103.154 231.323L0 222.589L166.066 41.9024L138.513 43.5297L18.5894 176.577V63.5337L29.8724 49.9515L2.13226 51.5914V21.189L99.3439 12.9604Z" fill="url(#paint0_radial_1_3677)"/>
</g>
<defs>
<radialGradient id="paint0_radial_1_3677" cx="0" cy="0" r="1" gradientUnits="userSpaceOnUse" gradientTransform="translate(4857.31 4594.16) scale(12342.9 12342.9)">
<stop stop-color="white"/>
<stop offset="1" stop-color="#007808"/>
</radialGradient>
<clipPath id="clip0_1_3677">
<rect width="256" height="244" fill="white"/>
</clipPath>
</defs>
</svg>
