<svg width="512" height="160" viewBox="0 0 512 160" fill="none" xmlns="http://www.w3.org/2000/svg">
<g clip-path="url(#clip0_1_3812)">
<path d="M510.16 79.5639C506.057 78.312 501.949 78.312 497.638 78.312C480.384 78.312 470.722 90.9383 470.722 112.023V157.485H433.783V49.8081H467.458V69.6493H467.85C474.229 55.9952 483.472 47.3164 499.486 47.3164C503.793 47.3164 508.32 47.9283 512 48.5682L510.16 79.5639Z" fill="#FF0082"/>
<path d="M311.316 2.45565H348.283V95.0666H348.683L379.491 49.809H419.937L382.778 99.222L423.013 157.494H378.259L348.683 104.165H348.283V157.49H311.316V2.45565ZM292.419 80.5967C285.64 76.4772 278.885 74.6175 270.05 74.6175C254.024 74.6175 241.706 85.7879 241.706 104.381C241.706 121.515 256.072 132.677 272.098 132.677C280.521 132.677 288.935 130.83 295.103 127.522L295.918 155.214C286.688 158.31 275.589 159.978 265.723 159.978C230.408 159.978 203.511 139.292 203.511 103.745C203.511 67.9784 230.412 47.3173 265.727 47.3173C276.821 47.3173 286.684 49.2011 295.103 53.3285L292.419 80.5967ZM154.886 157.482H191.829V49.805H154.886V157.482ZM154.886 32.2435H191.829V4.94331H154.886V32.2435ZM99.798 157.486H136.769V2.45565H99.798V157.486ZM21.7569 75.8293H0V49.805H22.3809V43.2059C22.3809 11.1664 37.3707 0 66.9346 0C74.9455 0 81.1086 1.24382 85.8279 2.05971L83.5602 27.6961C80.4887 26.6603 77.4091 26.0243 71.8499 26.0243C62.4112 26.0243 58.7317 32.6434 58.7317 43.2019V49.805H85.008V75.8293H58.7317V157.486H21.7569V75.8293Z" fill="#005FDD"/>
</g>
<defs>
<clipPath id="clip0_1_3812">
<rect width="512" height="160" fill="white"/>
</clipPath>
</defs>
</svg>
