<svg width="256" height="256" viewBox="0 0 256 256" fill="none" xmlns="http://www.w3.org/2000/svg">
<g clip-path="url(#clip0_1_3819)">
<path d="M128 231.899C70.618 231.899 24.101 185.382 24.101 128C24.101 70.618 70.618 24.101 128 24.101C185.382 24.101 231.899 70.618 231.899 128C231.899 185.382 185.382 231.899 128 231.899ZM128 0C57.308 0 0 57.308 0 128C0 198.692 57.308 256 128 256C198.692 256 256 198.692 256 128C256 57.308 198.692 0 128 0ZM140.926 117.091C144.064 109.214 146.594 101.039 150.384 93.4936C154.373 85.5506 159.546 80.3806 169.294 80.6796C178.628 80.9656 185.885 86.9416 189.134 94.7876C194.27 107.191 198.021 119.486 202.213 132.262C204.889 140.418 207.503 149.309 215.407 153.486C222.714 158.347 219.833 162.937 217.938 166.209C214.264 170.765 208.251 169.218 207.724 169.149C201.552 168.34 192.215 158.409 189.428 151.367C183.723 136.951 182.477 128.655 177.083 114.113C176.531 112.621 175.039 107.037 174.216 105.446C172.536 102.195 167.919 102.01 166.02 105.137C165.467 106.045 165.012 106.908 164.661 107.812C160.635 118.186 152.072 143.039 151.219 144.901C140.188 168.984 124.081 171.917 105.222 151.734C102.021 148.309 99.0755 143.681 95.9635 140.198C90.3765 133.946 85.5315 133.413 80.5325 140.051C76.8375 144.957 72.9585 149.652 69.4565 154.712C64.3735 162.055 57.6815 168.199 48.6425 169.149C43.5225 169.687 38.2965 167.493 36.8865 161.948C35.5635 156.748 39.1155 152.368 43.7265 151.154C50.6995 149.318 51.7135 148.096 55.1825 142.549C55.6485 141.804 59.1325 136.246 59.5915 135.495C76.3665 108.044 96.9705 108.338 115.727 134.207C117.062 136.051 119.261 139.103 121.248 141.866C123.277 144.686 127.565 144.379 129.169 141.298C135.494 133.732 138.585 122.968 140.926 117.091Z" fill="#298EEA"/>
</g>
<defs>
<clipPath id="clip0_1_3819">
<rect width="256" height="256" fill="white"/>
</clipPath>
</defs>
</svg>
