<svg width="256" height="267" viewBox="0 0 256 267" fill="none" xmlns="http://www.w3.org/2000/svg">
<g clip-path="url(#clip0_1_3822)">
<path opacity="0.7" d="M237.3 115.091L148.49 26.291H237.3V115.091Z" fill="#FFCA20"/>
<path opacity="0.7" d="M86.2871 0H136.632L175.108 38.466H86.2871V0Z" fill="#FFCA20"/>
<path opacity="0.9" d="M89.1696 88.8213L0.358887 0H107.141V88.8107L89.1696 88.8213ZM167.189 177.621L256 266.432H167.189V177.621Z" fill="#FFCF39"/>
<path opacity="0.7" d="M107.141 177.632L18.3408 88.8111H107.152V177.622L107.141 177.632ZM202.783 132.683L131.986 61.8438H202.815L202.783 132.683ZM211.061 258.165L130.518 177.632H211.061V258.165Z" fill="#FFE490"/>
<path opacity="0.9" d="M107.141 70.7445L36.3965 0H107.141V70.7445Z" fill="#FCBC7C"/>
<path opacity="0.8" d="M130.877 177.621L219.688 266.432H130.877V177.621Z" fill="#F9A040"/>
<path opacity="0.7" d="M220.765 213.077L132.071 124.383H220.765V213.077Z" fill="#F9A040"/>
<path opacity="0.9" d="M131.986 61.8438L219.72 149.577H131.986V61.8438Z" fill="#FFCF39"/>
<path opacity="0.7" d="M107.141 266.084L0 158.922H107.141V266.084Z" fill="#FFC737"/>
</g>
<defs>
<clipPath id="clip0_1_3822">
<rect width="256" height="267" fill="white"/>
</clipPath>
</defs>
</svg>
