<svg width="256" height="231" viewBox="0 0 256 231" fill="none" xmlns="http://www.w3.org/2000/svg">
<g clip-path="url(#clip0_1_3858)">
<path d="M179.016 31.5977H208.494C234.713 31.5977 256 52.8845 256 79.104V182.757C256 208.976 234.713 230.263 208.494 230.263H206.171C192.676 228.152 186.823 224.105 182.302 220.685L144.823 189.869C142.888 188.304 140.123 188.304 138.188 189.869L126.012 199.881L91.7201 171.685C89.7875 170.117 87.0207 170.117 85.0881 171.685L37.4476 213.594C27.8596 221.392 21.5176 219.952 17.4049 219.5C6.78172 210.782 0 197.555 0 182.757V79.104C0 52.8845 21.2868 31.5977 47.5095 31.5977H76.9219L76.8689 31.7161L75.8774 34.6066L75.5687 35.5981L74.2342 41.5192L74.0502 42.5575L73.464 48.488L73.3861 50.1157L73.3736 50.6863L73.4297 53.4052L73.5638 54.9985L73.8943 57.4929L74.3152 59.7379L74.8141 61.8052L75.4627 64.0439L77.1464 68.7833L77.7014 70.2052L80.6324 76.3976L81.6676 78.2996L85.0569 84.1178L86.354 86.2163L91.084 93.182L91.7669 94.1049L97.9219 102.115L99.9112 104.581L106.939 112.798L108.383 114.378L114.176 120.611L116.471 122.987L120.263 126.754L119.502 127.39L119.028 127.817C117.74 129.018 116.518 130.293 115.374 131.634C114.824 132.282 114.299 132.952 113.802 133.642C113.043 134.695 112.365 135.804 111.772 136.959C111.469 137.559 111.198 138.174 110.958 138.802C110.341 140.406 109.97 142.094 109.858 143.809L109.836 145.291C109.89 147.379 110.315 149.441 111.092 151.38C111.88 153.346 113.028 155.147 114.479 156.69C115.533 157.813 116.733 158.792 118.049 159.596C119.168 160.282 120.362 160.846 121.603 161.277C124.301 162.191 127.163 162.516 129.997 162.231H130.013C132.43 161.996 134.781 161.299 136.935 160.176C137.864 159.683 138.749 159.113 139.579 158.464C141.954 156.616 143.794 154.169 144.911 151.374C145.784 149.194 146.211 146.865 146.173 144.52L146.105 143.295C145.947 141.676 145.56 140.088 144.957 138.577C144.696 137.92 144.4 137.276 144.069 136.65C143.455 135.498 142.757 134.392 141.98 133.342C141.624 132.862 141.256 132.391 140.876 131.93C139.61 130.419 138.248 128.992 136.798 127.658L135.772 126.785L137.508 125.07L144.973 117.275L147.555 114.441L151.568 109.926L154.177 106.873L157.9 102.34L160.42 99.1717L164.121 94.2234L165.989 91.6635L168.639 87.7005L170.846 84.3236L175.006 77.0804L177.385 72.3285L177.454 72.182L179.275 67.7731C179.299 67.7161 179.319 67.6578 179.337 67.5985L181.298 61.4809L181.504 60.5891L182.355 55.7188L182.52 54.3998L182.57 53.5923L182.63 50.5428L182.614 49.9754L182.458 47.244L182.265 45.1237L181.298 39.0092C181.283 38.9282 181.267 38.8471 181.242 38.766L180.001 34.2449L179.574 32.9883L179.016 31.5977ZM193.028 160.856C186.848 160.943 181.859 165.932 181.772 172.112C181.863 178.29 186.85 183.276 193.028 183.365C199.206 183.275 204.194 178.29 204.287 172.112C204.199 165.931 199.209 160.943 193.028 160.856Z" fill="url(#paint0_radial_1_3858)"/>
<path d="M102.63 230.264H47.5095C36.5295 230.279 25.8864 226.473 17.4048 219.5C21.5175 219.952 27.8596 221.393 37.4476 213.595L85.088 171.685C87.0207 170.117 89.7874 170.117 91.7201 171.685L126.012 199.882L138.188 189.87C140.123 188.305 142.888 188.305 144.823 189.87L182.302 220.685C186.823 224.106 192.676 228.153 206.171 230.264H181.239C179.036 230.237 176.897 229.524 175.118 228.225L174.682 227.888L141.699 200.499L109.15 227.888C107.312 229.401 105.011 230.239 102.63 230.264ZM193.028 160.856C186.848 160.943 181.859 165.932 181.772 172.112C181.862 178.291 186.85 183.277 193.028 183.365C199.206 183.275 204.194 178.29 204.287 172.112C204.199 165.932 199.209 160.943 193.028 160.856ZM120.263 126.754L116.471 122.988L114.176 120.612L108.383 114.379L106.939 112.798L99.9112 104.582L97.9219 102.116L91.7669 94.1054L91.084 93.1825L86.354 86.2168L85.0568 84.1183L81.6675 78.3001L80.6324 76.3981L77.7014 70.2057L77.1464 68.7838L75.4627 64.0444L74.8141 61.8057L74.3152 59.7384L73.8943 57.4934L73.5638 54.999L73.4297 53.4057L73.3736 50.6868L73.386 50.1162L73.464 48.4886L74.0502 42.5581L74.2341 41.5197L75.5687 35.5986L75.8773 34.6071L76.8689 31.7166L77.1869 30.9683L78.7646 27.5011L79.8591 25.4369L81.3838 22.9238L82.9023 20.685L83.9842 19.2632L85.2315 17.7603L86.6034 16.2512L87.7789 15.0695L90.6412 12.5501L92.7334 10.8383C92.7833 10.7946 92.8363 10.7572 92.8894 10.7198L95.3651 9.04542L97.3326 7.79197L101.068 5.82449C101.124 5.79019 101.19 5.76213 101.249 5.73407L106.546 3.53585L107.036 3.35189L111.744 1.97372L113.733 1.52784L116.421 0.988417L118.205 0.717148L120.939 0.377282L122.804 0.212026L126.505 0.0155902L127.955 0L130.702 0.0561246L131.416 0.0966591L135.394 0.427171L140.658 1.16926L141.266 1.2971L146.467 2.59109L147.994 3.04632L149.691 3.63251L151.758 4.41514L153.392 5.10734L155.793 6.23919L157.305 7.01558L160.024 8.61201L161.037 9.23562L164.744 11.9421L165.808 12.865L168.393 15.2191L168.52 15.347L170.712 17.698L171.467 18.5492L174.039 21.9666L174.563 22.7835L176.605 26.232L177.22 27.4138L178.37 29.9861L179.574 32.9888L180.001 34.2454L181.242 38.7665C181.265 38.8465 181.284 38.9277 181.298 39.0097L182.265 45.1242L182.458 47.2445L182.614 49.9759L182.63 50.5433L182.57 53.5928L182.52 54.4004L182.355 55.7193L181.504 60.5896L181.298 61.4814L179.337 67.599C179.319 67.6583 179.299 67.7166 179.275 67.7736L177.454 72.1825L177.385 72.329L175.006 77.0809L170.846 84.3241L168.639 87.701L165.989 91.664L164.121 94.2239L160.42 99.1722L157.9 102.34L154.177 106.874L151.568 109.926L147.555 114.441L144.973 117.276L137.508 125.071L135.772 126.786L136.798 127.659C138.247 128.993 139.61 130.418 140.876 131.93C141.256 132.392 141.624 132.863 141.98 133.343C142.757 134.392 143.455 135.498 144.069 136.651C144.399 137.275 144.695 137.92 144.957 138.578C145.553 140.087 145.955 141.683 146.105 143.296L146.173 144.521C146.212 146.867 145.782 149.196 144.911 151.374C143.794 154.169 141.954 156.616 139.579 158.465C138.749 159.113 137.864 159.684 136.935 160.177C134.781 161.299 132.43 161.997 130.013 162.231H129.997C127.163 162.517 124.301 162.192 121.603 161.277C120.361 160.847 119.17 160.283 118.049 159.597C116.734 158.792 115.533 157.815 114.479 156.691C113.028 155.147 111.88 153.346 111.092 151.381C110.315 149.441 109.89 147.379 109.836 145.291L109.858 143.81C109.97 142.095 110.341 140.407 110.958 138.802C111.198 138.173 111.47 137.558 111.772 136.96C112.365 135.803 113.044 134.696 113.802 133.642C114.298 132.953 114.825 132.283 115.373 131.634C116.518 130.293 117.74 129.018 119.028 127.818L119.502 127.39L120.263 126.754Z" fill="black"/>
<path d="M141.699 200.499L174.682 227.888C176.566 229.422 178.921 230.26 181.351 230.264H102.518C104.937 230.264 107.282 229.425 109.15 227.888L141.699 200.499ZM128.164 135.859L128.463 135.946C128.56 135.993 128.641 136.062 128.728 136.121L128.978 136.342C129.595 136.91 130.194 137.505 130.77 138.116C131.176 138.55 131.572 138.996 131.952 139.457C132.435 140.04 132.888 140.651 133.299 141.287C133.477 141.568 133.642 141.852 133.798 142.148C133.932 142.404 134.054 142.669 134.16 142.937C134.347 143.405 134.487 143.897 134.531 144.399L134.521 145.341C134.396 147.065 133.447 148.624 131.974 149.528C131.031 150.098 129.971 150.447 128.875 150.548L127.712 150.582L126.729 150.495C126.27 150.428 125.818 150.318 125.379 150.168C124.933 150.015 124.504 149.815 124.101 149.569L123.334 149.008C122.431 148.236 121.815 147.181 121.588 146.014C121.55 145.818 121.52 145.621 121.497 145.422L121.469 144.524C121.485 144.281 121.522 144.041 121.575 143.801C121.709 143.277 121.903 142.769 122.146 142.285C122.46 141.679 122.819 141.096 123.219 140.542C123.883 139.644 124.603 138.79 125.373 137.982C125.869 137.459 126.377 136.95 126.907 136.461L127.284 136.121C127.546 135.946 127.549 135.946 127.849 135.859H128.164ZM126.234 10.6637L126.355 10.6543V115.635L126.093 115.152C122.638 108.759 119.421 102.24 116.449 95.6083C114.038 90.2411 111.854 84.7745 109.905 79.223C108.346 74.8006 107.029 70.2967 105.96 65.7313C105.131 62.105 104.495 58.4257 104.233 54.709C104.133 53.123 104.102 51.5333 104.142 49.9447C104.167 48.5602 104.223 47.179 104.311 45.7977C104.448 43.6244 104.669 41.4574 104.987 39.3059C105.24 37.6128 105.552 35.926 105.938 34.2578C106.244 32.9327 106.599 31.6168 107.005 30.3229C107.591 28.452 108.292 26.6249 109.109 24.8414C109.409 24.199 109.73 23.5598 110.067 22.9331C112.093 19.179 114.843 15.7211 118.445 13.4075C120.785 11.8851 123.456 10.9444 126.234 10.6637ZM139.847 10.9287L146.909 12.9429C150.18 14.1496 153.329 15.7242 156.223 17.6886C160.167 20.3506 163.566 23.7414 166.238 27.6788C167.806 30.0111 169.104 32.5273 170.117 35.1558C171.585 39.044 172.496 43.1193 172.817 47.2631C172.911 48.3482 172.964 49.4364 172.985 50.5246C173.01 51.5349 173.004 52.5482 172.923 53.5585C172.723 55.8192 172.297 58.0545 171.654 60.231C171.137 62.0122 170.526 63.7649 169.824 65.4818C168.951 67.6177 167.981 69.713 166.918 71.7584C164.564 76.3045 161.854 80.6542 158.954 84.8604C155.36 90.03 151.528 95.0304 147.471 99.8457C143.065 105.1 138.47 110.193 133.695 115.115C136.935 109.039 139.959 102.851 142.762 96.5624C144.321 93.0577 145.79 89.5156 147.171 85.9392C148.691 82.0109 150.06 78.0263 151.278 73.9941C152.182 70.9727 152.98 67.9201 153.638 64.8333C154.202 62.1861 154.645 59.5108 154.92 56.8199C155.15 54.5749 155.234 52.3175 155.178 50.0663C155.157 48.6882 155.106 47.3107 155.026 45.9349C154.695 40.3972 153.853 34.8783 152.238 29.5683C151.627 27.555 150.883 25.5843 150.012 23.669C147.945 19.1665 145.06 14.9572 141.157 11.8859L139.847 10.9287Z" fill="white"/>
</g>
<defs>
<radialGradient id="paint0_radial_1_3858" cx="0" cy="0" r="1" gradientUnits="userSpaceOnUse" gradientTransform="translate(10548.4 9878.35) scale(18544.9 18544.9)">
<stop stop-color="#BA7BF0"/>
<stop offset="0.45" stop-color="#996BEC"/>
<stop offset="1" stop-color="#5046E4"/>
</radialGradient>
<clipPath id="clip0_1_3858">
<rect width="256" height="231" fill="white"/>
</clipPath>
</defs>
</svg>
