<svg width="512" height="146" viewBox="0 0 512 146" fill="none" xmlns="http://www.w3.org/2000/svg">
<g clip-path="url(#clip0_1_3863)">
<path d="M107.702 19.0098H125.437C141.212 19.0098 154.019 31.8167 154.019 47.5913V109.952C154.019 125.727 141.212 138.534 125.437 138.534H124.039C115.92 137.264 112.399 134.829 109.679 132.771L87.1308 114.231C85.9667 113.29 84.3029 113.29 83.1388 114.231L75.8134 120.255L55.182 103.291C54.0193 102.348 52.3547 102.348 51.1919 103.291L22.5298 128.505C16.7613 133.197 12.9457 132.33 10.4714 132.058C4.08012 126.813 0 118.856 0 109.952V47.5913C0 31.8167 12.8069 19.0098 28.5834 19.0098H46.2789L46.247 19.0811L45.6505 20.82L45.4648 21.4166L44.6619 24.9789L44.5512 25.6036L44.1985 29.1716L44.1516 30.1508L44.1441 30.4941L44.1779 32.1299L44.2585 33.0885L44.4574 34.5893L44.7106 35.9399L45.0108 37.1837L45.401 38.5306L46.414 41.382L46.7479 42.2374L48.5112 45.963L49.1341 47.1073L51.1732 50.6077L51.9536 51.8702L54.7993 56.061L55.2102 56.6163L58.9132 61.4355L60.1101 62.9194L64.3384 67.8624L65.2069 68.8135L68.6924 72.5635L70.0731 73.9929L72.3542 76.259L71.8964 76.6417L71.6113 76.8987C70.8365 77.621 70.1012 78.3882 69.4127 79.1949C69.0819 79.585 68.7665 79.988 68.4673 80.4029C68.0108 81.0368 67.6026 81.704 67.246 82.3989C67.0638 82.7598 66.9004 83.1298 66.7564 83.5076C66.3851 84.4727 66.1619 85.4884 66.0942 86.5203L66.0811 87.4114C66.1135 88.6678 66.3695 89.9084 66.8371 91.075C67.3108 92.2578 68.0018 93.3413 68.8743 94.2697C69.5084 94.9451 70.2306 95.5341 71.0223 96.0181C71.6957 96.4308 72.4142 96.7703 73.1608 97.0292C74.7838 97.5793 76.5058 97.7751 78.2108 97.6032H78.2202C79.6748 97.4621 81.0887 97.0424 82.3847 96.367C82.9437 96.0706 83.4765 95.7273 83.9755 95.3371C85.4044 94.2251 86.5116 92.7527 87.1833 91.0713C87.7086 89.76 87.9656 88.3587 87.943 86.948L87.9018 86.2108C87.8066 85.2369 87.5741 84.2814 87.2114 83.3725C87.0543 82.9767 86.8758 82.5897 86.6768 82.2132C86.3075 81.5197 85.8874 80.8544 85.4199 80.2229C85.206 79.9339 84.9846 79.6505 84.7559 79.3731C83.9945 78.4642 83.1749 77.6057 82.3022 76.8031L81.685 76.2778L82.7299 75.246L87.2208 70.5562L88.7741 68.851L91.1884 66.1347L92.7585 64.2982L94.9984 61.5706L96.5141 59.6647L98.7408 56.6876L99.8645 55.1475L101.459 52.7632L102.787 50.7315L105.29 46.3738L106.721 43.5149L106.762 43.4267L107.858 40.7742C107.872 40.7399 107.885 40.7048 107.895 40.6691L109.075 36.9886L109.199 36.4521L109.711 33.5219L109.811 32.7284L109.841 32.2425L109.876 30.4078L109.867 30.0664L109.773 28.4231L109.657 27.1475L109.075 23.4688C109.066 23.4201 109.057 23.3713 109.042 23.3225L108.295 20.6024L108.038 19.8464L107.702 19.0098ZM116.132 96.776C112.414 96.8284 109.413 99.8298 109.36 103.548C109.415 107.265 112.415 110.265 116.132 110.318C119.849 110.264 122.85 107.265 122.906 103.548C122.853 99.8295 119.851 96.8284 116.132 96.776Z" fill="url(#paint0_radial_1_3863)"/>
<path d="M61.7459 138.535H28.5834C21.9775 138.544 15.5742 136.254 10.4714 132.059C12.9458 132.331 16.7614 133.198 22.5298 128.506L51.192 103.292C52.3547 102.348 54.0193 102.348 55.1821 103.292L75.8134 120.256L83.1389 114.232C84.303 113.291 85.9667 113.291 87.1308 114.232L109.679 132.772C112.399 134.83 115.921 137.265 124.04 138.535H109.04C107.715 138.518 106.427 138.09 105.357 137.308L105.095 137.105L85.2512 120.627L65.6685 137.105C64.5625 138.016 63.1783 138.52 61.7459 138.535ZM116.133 96.7767C112.414 96.8292 109.413 99.8306 109.36 103.549C109.415 107.266 112.415 110.266 116.133 110.319C119.849 110.265 122.85 107.266 122.906 103.549C122.853 99.8303 119.851 96.8292 116.133 96.7767ZM72.3542 76.2598L70.0731 73.9937L68.6924 72.5643L65.207 68.8143L64.3384 67.8632L60.1101 62.9202L58.9133 61.4363L55.2102 56.6171L54.7994 56.0618L51.9536 51.871L51.1732 50.6085L49.1341 47.1081L48.5113 45.9637L46.7479 42.2382L46.414 41.3828L45.401 38.5314L45.0108 37.1845L44.7107 35.9407L44.4574 34.5901L44.2586 33.0893L44.1779 32.1307L44.1442 30.4949L44.1517 30.1516L44.1986 29.1724L44.5512 25.6044L44.6619 24.9797L45.4648 21.4174L45.6505 20.8208L46.2471 19.0818L46.4384 18.6316L47.3876 16.5456L48.0461 15.3037L48.9634 13.7918L49.877 12.4448L50.5279 11.5894L51.2783 10.6852L52.1037 9.77729L52.8109 9.06631L54.533 7.55057L55.7917 6.52069C55.8218 6.49443 55.8537 6.47192 55.8855 6.44941L57.375 5.44204L58.5587 4.68792L60.8061 3.50422C60.8398 3.48358 60.8792 3.4667 60.9149 3.44981L64.1021 2.12729L64.3966 2.01661L67.2292 1.18746L68.4261 0.9192L70.0431 0.594666L71.1161 0.431461L72.7613 0.226986L73.8831 0.127562L76.1098 0.00937959L76.9821 0L78.6348 0.0337665L79.0644 0.0581535L81.4581 0.257001L84.6246 0.703469L84.9904 0.780382L88.1194 1.55889L89.0386 1.83277L90.0591 2.18544L91.3029 2.6563L92.2859 3.07275L93.7303 3.75371L94.6401 4.22082L96.2759 5.18129L96.8856 5.55647L99.1161 7.18477L99.7558 7.74004L101.311 9.15636L101.388 9.23327L102.707 10.6477L103.161 11.1598L104.708 13.2158L105.023 13.7073L106.252 15.7821L106.622 16.4931L107.314 18.0407L108.038 19.8472L108.295 20.6032L109.042 23.3233C109.055 23.3714 109.067 23.4203 109.075 23.4696L109.657 27.1483L109.773 28.4239L109.867 30.0672L109.876 30.4086L109.841 32.2433L109.811 32.7291L109.711 33.5227L109.199 36.4528L109.075 36.9894L107.895 40.6699C107.885 40.7056 107.872 40.7407 107.858 40.775L106.762 43.4275L106.721 43.5157L105.29 46.3746L102.787 50.7323L101.459 52.764L99.8646 55.1482L98.7409 56.6884L96.5142 59.6655L94.9984 61.5714L92.7586 64.299L91.1884 66.1355L88.7741 68.8518L87.2209 70.557L82.7299 75.2468L81.685 76.2786L82.3022 76.8038C83.1745 77.6067 83.9943 78.464 84.7559 79.3739C84.9848 79.6515 85.2061 79.9348 85.42 80.2236C85.8875 80.8552 86.3076 81.5205 86.6769 82.214C86.8757 82.5892 87.0539 82.9775 87.2115 83.3733C87.5698 84.2813 87.8118 85.2417 87.9018 86.2116L87.9431 86.9488C87.9661 88.36 87.7079 89.7617 87.1834 91.0721C86.5116 92.7535 85.4044 94.2259 83.9755 95.3379C83.4765 95.7281 82.9438 96.0714 82.3848 96.3678C81.0887 97.0432 79.6749 97.4629 78.2202 97.604H78.2108C76.5058 97.7758 74.7838 97.5801 73.1609 97.03C72.4137 96.7709 71.6967 96.4319 71.0223 96.0189C70.2313 95.5348 69.5089 94.9468 68.8744 94.2705C68.0018 93.3421 67.3109 92.2586 66.8372 91.0758C66.3695 89.9092 66.1136 88.6686 66.0812 87.4122L66.0943 86.5211C66.162 85.4892 66.3852 84.4735 66.7565 83.5084C66.9009 83.1294 67.0641 82.7599 67.2461 82.3997C67.6025 81.7037 68.0115 81.0378 68.4673 80.4037C68.7656 79.9892 69.0826 79.5858 69.4128 79.1956C70.1012 78.389 70.8366 77.6217 71.6114 76.8995L71.8965 76.6425L72.3542 76.2598Z" fill="black"/>
<path d="M85.2511 120.627L105.095 137.105C106.228 138.028 107.645 138.533 109.107 138.535H61.6783C63.1341 138.535 64.5447 138.03 65.6684 137.105L85.2511 120.627ZM77.1078 81.7377L77.2879 81.7902C77.346 81.8183 77.3948 81.8596 77.4473 81.8952L77.5974 82.0284C77.9688 82.3698 78.329 82.7281 78.676 83.0958C78.9199 83.3566 79.1581 83.6248 79.387 83.9025C79.6778 84.2533 79.9498 84.6209 80.1974 85.0036C80.3043 85.1725 80.4038 85.3432 80.4976 85.5214C80.5782 85.6752 80.6514 85.8347 80.7152 85.996C80.8277 86.2774 80.9121 86.5738 80.9384 86.8758L80.9328 87.4423C80.8571 88.4798 80.2867 89.4174 79.4001 89.9617C78.8329 90.3044 78.1954 90.5141 77.5355 90.5751L76.8358 90.5957L76.2448 90.5432C75.9686 90.5029 75.6966 90.437 75.4326 90.3462C75.1638 90.2547 74.9059 90.1339 74.6634 89.9861L74.202 89.6484C73.6586 89.1839 73.2883 88.5492 73.1515 87.8475C73.1286 87.7295 73.1105 87.6106 73.0971 87.4911L73.0802 86.9508C73.0896 86.8045 73.1121 86.6601 73.144 86.5156C73.2246 86.2005 73.3409 85.8947 73.4872 85.6039C73.6764 85.239 73.8921 84.8885 74.1326 84.5553C74.5321 84.015 74.9655 83.501 75.4288 83.0152C75.7271 82.7 76.0329 82.3942 76.3518 82.0997L76.5788 81.8952C76.7363 81.7902 76.7382 81.7902 76.9183 81.7377H77.1078ZM75.9466 6.41578L76.0197 6.41016V69.5704L75.8622 69.2797C73.7832 65.4335 71.8478 61.5113 70.0599 57.5214C68.6092 54.2923 67.2955 51.0034 66.1224 47.6635C65.1847 45.0028 64.3925 42.2931 63.7494 39.5464C63.2504 37.3647 62.8677 35.1511 62.7101 32.915C62.6498 31.9608 62.6316 31.0044 62.6557 30.0486C62.6707 29.2157 62.7045 28.3847 62.757 27.5536C62.8395 26.2461 62.9727 24.9424 63.1641 23.648C63.316 22.6293 63.5036 21.6145 63.7362 20.6109C63.9201 19.8136 64.1339 19.022 64.3778 18.2434C64.7305 17.1179 65.1525 16.0186 65.644 14.9456C65.8241 14.5591 66.0173 14.1746 66.2199 13.7975C67.4393 11.5389 69.0938 9.45852 71.2605 8.06659C72.6686 7.15067 74.2753 6.58467 75.9466 6.41578ZM84.1368 6.57524L88.3858 7.78708C90.3536 8.51306 92.2483 9.4604 93.9892 10.6422C96.362 12.2438 98.4071 14.2838 100.015 16.6527C100.958 18.0559 101.739 19.5697 102.348 21.1511C103.232 23.4904 103.78 25.9422 103.973 28.4353C104.029 29.0881 104.061 29.7428 104.074 30.3975C104.089 31.0053 104.085 31.615 104.037 32.2228C103.916 33.583 103.66 34.9277 103.273 36.2373C102.962 37.3089 102.594 38.3634 102.172 39.3963C101.647 40.6813 101.063 41.9419 100.424 43.1725C99.0072 45.9076 97.3771 48.5245 95.6325 51.0551C93.4698 54.1653 91.1643 57.1738 88.7235 60.0708C86.0727 63.232 83.3083 66.2961 80.4356 69.2572C82.385 65.602 84.2045 61.8792 85.8908 58.0955C86.8288 55.9869 87.7123 53.8559 88.5434 51.7042C89.4575 49.3408 90.2816 46.9435 91.014 44.5176C91.558 42.6998 92.0382 40.8633 92.434 39.0061C92.7736 37.4135 93.0399 35.8039 93.205 34.185C93.3438 32.8343 93.3945 31.4762 93.3607 30.1218C93.3479 29.2927 93.3173 28.4639 93.2688 27.6362C93.07 24.3045 92.5635 20.9842 91.5917 17.7895C91.2238 16.5782 90.7764 15.3926 90.2523 14.2402C89.0086 11.5314 87.2734 8.99892 84.9247 7.15114L84.1368 6.57524Z" fill="white"/>
<path d="M354.265 122.384L332.991 76.8391C331.214 73.0441 330.156 71.6578 328.379 70.0482L326.648 68.4875C325.271 67.1499 324.365 65.9137 324.365 64.4411C324.365 62.3345 326.031 60.5636 329.07 60.5636H347.54C350.44 60.5636 352.245 62.0718 352.245 64.3229C352.245 65.5798 351.667 66.5215 350.937 67.4445C350.071 68.5438 348.943 69.6149 348.943 71.5659C348.943 72.789 349.298 74.0083 349.986 75.5653L362.683 105.299L374.071 76.3138C374.771 74.3854 375.251 72.6877 375.251 71.3276C375.251 69.2135 374.101 68.3505 373.214 67.4051C372.443 66.5834 371.826 65.7149 371.826 64.3229C371.826 62.0493 373.675 60.5636 376.165 60.5636H387.54C390.729 60.5636 392.245 62.2125 392.245 64.3229C392.245 65.6736 391.468 66.923 389.938 68.2717L388.328 69.5943C386.088 71.4252 385.051 74.0721 383.877 76.8109L366.628 118.366C364.588 123.225 361.555 129.969 356.92 135.501C352.213 141.121 345.865 145.492 337.266 145.492C330.066 145.492 325.71 142.055 325.71 137.101C325.71 132.563 329.064 128.948 333.473 128.948C335.889 128.948 337.144 130.089 338.419 131.261C339.472 132.229 340.541 133.222 342.648 133.222C344.602 133.222 346.426 132.394 348.075 131.061C350.594 129.021 352.708 125.812 354.265 122.384ZM479.284 122.221C488.861 122.221 496.708 118.94 502.829 112.393C508.942 105.854 512 97.9825 512 88.7793C512 79.7993 509.094 72.4194 503.301 66.6341C497.512 60.8544 489.997 57.9504 480.751 57.9504C471.015 57.9504 463.05 61.1114 456.852 67.4107C450.648 73.7157 447.543 81.3525 447.543 90.3232C447.543 99.215 450.504 106.749 456.417 112.932C462.331 119.119 469.951 122.221 479.284 122.221ZM398.304 121.508C403.842 121.508 407.781 117.781 407.781 112.406C407.781 107.158 403.713 103.423 398.304 103.423C392.639 103.423 388.583 107.163 388.583 112.406C388.583 117.775 392.641 121.508 398.304 121.508ZM418.022 112.99L419.369 111.566C420.975 110.007 421.489 108.433 421.489 104.096V78.4505C421.489 74.7005 420.979 73.0272 419.39 71.594L417.803 70.1721C416.251 68.8026 415.741 67.9491 415.741 66.5797C415.741 64.6325 417.249 63.0361 419.677 62.4808L430.443 59.8695C431.472 59.62 432.632 59.3761 433.534 59.3761C434.772 59.3761 435.785 59.7832 436.496 60.4904C437.207 61.1977 437.627 62.2182 437.627 63.4919V104.096C437.627 108.191 438.124 110.095 439.833 111.532C439.861 111.556 439.887 111.582 439.912 111.609L441.115 113.012C442.627 114.483 443.255 115.459 443.255 116.8C443.255 119.192 441.449 120.559 438.548 120.559H420.324C417.559 120.559 415.741 119.199 415.741 116.8C415.741 115.453 416.368 114.468 418.022 112.99ZM296.189 112.99L297.536 111.566C299.14 110.007 299.655 108.433 299.655 104.096V50.5518C299.655 46.92 299.271 45.1379 297.571 43.7066L295.945 42.1308C294.54 40.7689 294.028 39.9229 294.028 38.5591C294.028 36.61 295.547 35.0192 297.841 34.4621L308.485 31.8508C309.515 31.6013 310.676 31.3574 311.577 31.3574C312.806 31.3574 313.847 31.7289 314.59 32.4304C315.332 33.1339 315.794 34.1826 315.794 35.5914V104.096C315.794 108.201 316.302 109.996 318.019 111.549L319.392 113.001C320.913 114.481 321.42 115.451 321.42 116.8C321.42 117.792 321.118 118.595 320.578 119.205C319.816 120.068 318.538 120.559 316.837 120.559H298.611C296.909 120.559 295.633 120.068 294.87 119.205C294.332 118.595 294.028 117.792 294.028 116.8C294.028 115.449 294.529 114.472 296.189 112.99ZM246.558 85.4176V103.858C246.558 106.638 247.107 109.204 249.4 111.317L250.88 112.752C252.536 114.361 253.041 115.325 253.041 116.8C253.041 119.051 251.234 120.559 248.336 120.559H227.785C224.887 120.559 223.08 119.051 223.08 116.8C223.08 115.05 223.594 114.22 225.251 112.744L226.727 111.313C228.444 109.756 229.564 107.636 229.564 103.858V54.5869C229.564 51.5854 228.9 49.1317 226.723 47.1301L225.242 45.6932C223.718 44.215 223.08 43.2432 223.08 41.765C223.08 39.3789 224.891 37.8875 227.785 37.8875H282.83C284.935 37.8875 286.785 38.3546 287.965 39.5139C288.786 40.3187 289.312 41.4536 289.37 43.0313L290.227 55.7387C290.313 57.3276 289.844 58.652 288.927 59.4681C288.297 60.029 287.447 60.3666 286.378 60.3666C285.031 60.3666 283.997 59.8582 283.076 58.9803C282.247 58.1906 281.508 57.0819 280.675 55.7781C278.666 52.5647 277.728 51.4091 275.586 49.9065C272.603 47.706 268.059 46.9501 259.468 46.9501C254.51 46.9501 251.381 47.1658 249.411 47.6742C248.135 48.0024 247.4 48.4302 247.006 49.0567C246.603 49.6983 246.558 50.5105 246.558 51.501V76.4714H259.468C262.557 76.4714 264.73 75.9142 267.247 72.4719L267.26 72.4532C268.269 71.1682 268.999 70.2227 269.693 69.5943C270.504 68.8627 271.28 68.5175 272.312 68.5175C274.248 68.5175 276.038 70.1083 276.038 72.2768V89.4921C276.038 91.7995 274.242 93.3715 272.312 93.3715C271.353 93.3715 270.571 93.0301 269.761 92.3135C269.063 91.6982 268.331 90.7809 267.38 89.5503C264.626 85.986 262.681 85.4176 259.468 85.4176H246.558ZM464.661 84.9805C464.661 78.805 466.006 74.3666 468.796 71.6972C471.55 69.0615 474.512 67.7277 477.693 67.7277C482.072 67.7277 486.015 70.1758 489.572 74.995C493.209 79.9193 495.006 86.577 495.006 94.9529C495.006 101.136 493.655 105.616 490.864 108.362C488.112 111.073 485.154 112.446 481.974 112.446C477.596 112.446 473.654 109.977 470.096 105.12C466.458 100.155 464.661 93.4372 464.661 84.9805ZM428.642 51.5798C434.191 51.5798 438.117 48.4583 438.117 43.0707C438.117 37.8106 434.194 34.6815 428.642 34.6815C422.96 34.6815 419.043 37.8143 419.043 43.0707C419.043 48.327 422.961 51.5798 428.642 51.5798Z" fill="black"/>
</g>
<defs>
<radialGradient id="paint0_radial_1_3863" cx="0" cy="0" r="1" gradientUnits="userSpaceOnUse" gradientTransform="translate(6346.31 5943.16) scale(11157.3 11157.3)">
<stop stop-color="#BA7BF0"/>
<stop offset="0.45" stop-color="#996BEC"/>
<stop offset="1" stop-color="#5046E4"/>
</radialGradient>
<clipPath id="clip0_1_3863">
<rect width="512" height="146" fill="white"/>
</clipPath>
</defs>
</svg>
