<svg width="512" height="111" viewBox="0 0 512 111" fill="none" xmlns="http://www.w3.org/2000/svg">
<g clip-path="url(#clip0_1_3875)">
<path d="M32.427 110.591L92.2611 58.3125H32.5284C32.5284 58.3125 32.4397 108.576 32.427 110.591Z" fill="url(#paint0_linear_1_3875)"/>
<path d="M59.8468 0L0 58.3129H59.5806C59.5806 58.3129 59.8341 1.52121 59.8468 0Z" fill="url(#paint1_linear_1_3875)"/>
<path d="M157.914 25.5697C159.185 25.5836 160.209 26.6182 160.209 27.8895V33.911C160.215 34.5234 159.967 35.1112 159.524 35.5336C159.101 35.9668 158.52 36.2093 157.914 36.2055H130.824V52.6852H156.177C157.421 52.7118 158.426 53.7104 158.459 54.9543V60.9885C158.439 62.2471 157.423 63.2626 156.165 63.2829H130.811V82.729C130.791 83.9877 129.775 85.0032 128.517 85.0235H121.697C120.438 85.0032 119.422 83.9877 119.402 82.729V27.8895C119.402 26.6182 120.425 25.5836 121.697 25.5697H157.914ZM167.333 47.7286C167.476 44.669 168.091 41.65 169.158 38.7788C170.162 36.039 171.74 33.5452 173.785 31.4644C175.952 29.3155 178.542 27.6405 181.391 26.5458C184.865 25.2561 188.551 24.6367 192.255 24.7204C195.93 24.6443 199.587 25.2459 203.043 26.4951C208.729 28.5949 213.224 33.0578 215.365 38.7281C216.458 41.6109 217.087 44.6488 217.228 47.7286C217.228 48.0878 217.24 48.4596 217.256 48.8442L217.311 50.0358C217.33 50.4457 217.347 50.8682 217.355 51.3034C217.374 52.2827 217.365 53.2834 217.359 54.3055L217.355 59.3658C217.355 59.92 217.341 60.4648 217.321 60.9884L217.228 62.9407C217.118 65.9991 216.537 69.0221 215.504 71.9031C214.499 74.6383 212.921 77.1276 210.877 79.2049C208.693 81.3601 206.074 83.024 203.195 84.0854C196.157 86.4685 188.531 86.4685 181.493 84.0854C178.641 83.0145 176.049 81.351 173.887 79.2049C171.838 77.1317 170.259 74.6413 169.26 71.9031C168.158 69.0332 167.508 66.0098 167.333 62.9407C167.333 62.5815 167.322 62.2096 167.305 61.8251L167.217 60.0092C167.208 59.7979 167.2 59.5835 167.193 59.3658C167.174 58.713 167.174 58.0538 167.179 57.3835L167.193 55.3346V51.3034C167.193 50.8682 167.209 50.4457 167.229 50.0358L167.297 48.8442C167.317 48.4596 167.333 48.0878 167.333 47.7286ZM205.807 48.1596C205.803 44.6022 204.379 41.1935 201.851 38.6901C196.278 34.193 188.322 34.193 182.748 38.6901C180.222 41.1987 178.802 44.6123 178.805 48.1723C178.729 49.609 178.681 51.1471 178.658 52.7941L178.642 54.4778V57.0737C178.649 59.0495 178.677 60.8856 178.805 62.5223C178.804 66.0697 180.229 69.4686 182.76 71.9538C188.364 76.3661 196.261 76.3661 201.864 71.9538C204.395 69.4686 205.821 66.0697 205.819 62.5223L205.852 61.7988L205.907 60.2959C205.932 59.5259 205.951 58.7282 205.964 57.9033L205.982 56.2173C205.983 55.9303 205.984 55.6403 205.984 55.3473L205.982 54.4773L205.964 52.7913C205.951 51.9664 205.932 51.1687 205.907 50.3987L205.852 48.8958C205.841 48.6515 205.831 48.4103 205.819 48.1723L205.807 48.1596ZM226.368 47.5638C226.424 44.3802 227.038 41.231 228.181 38.2591C229.276 35.5223 230.96 33.0598 233.112 31.046C235.406 28.9557 238.108 27.363 241.048 26.3683C248.626 24.0827 256.723 24.1757 264.246 26.6346C267.045 27.6726 269.624 29.2247 271.852 31.2108C273.601 32.7391 274.991 34.6352 275.922 36.7632C276.573 38.2911 277 39.905 277.189 41.555C277.275 42.1805 277.036 42.8065 276.555 43.2157C276.104 43.6321 275.509 43.859 274.895 43.8495H268.024C267.485 43.8816 266.952 43.7147 266.528 43.3805C266.261 43.1692 266.034 42.9139 265.855 42.6261L265.638 42.2404L265.321 41.7098L264.829 40.9212C264.208 40.0084 263.436 39.207 262.548 38.5507C261.289 37.6151 259.901 36.8678 258.428 36.3322C256.39 35.6317 254.243 35.3011 252.089 35.3561C248.395 35.1846 244.772 36.4163 241.948 38.8042C239.372 41.18 237.894 44.516 237.866 48.0202C237.768 49.8565 237.717 51.8139 237.704 53.8923L237.702 55.8604L237.71 57.6497C237.724 59.1149 237.763 60.5163 237.866 61.8632C238.044 66.5535 239.4 69.9762 241.948 72.0933C244.843 74.3256 248.438 75.4537 252.089 75.2751C254.036 75.2901 255.978 75.0644 257.87 74.6033C259.526 74.1901 261.074 73.4248 262.408 72.3595C263.727 71.2904 264.752 69.9031 265.387 68.3283C266.141 66.3642 266.498 64.2703 266.439 62.1674V61.4955H256.07C254.811 61.4752 253.796 60.4597 253.775 59.201V53.1669C253.796 51.9082 254.811 50.8928 256.07 50.8724H275.605C276.863 50.8928 277.879 51.9082 277.899 53.1669V62.5097C277.949 65.7081 277.425 68.8896 276.353 71.9031C275.311 74.6978 273.657 77.2232 271.51 79.2936C269.192 81.4593 266.439 83.1059 263.435 84.1235C256.111 86.422 248.258 86.422 240.934 84.1235C237.99 83.1245 235.297 81.5031 233.036 79.3697C230.914 77.3013 229.274 74.791 228.232 72.0172C227.1 69.0153 226.483 65.8438 226.406 62.6364C226.406 62.2773 226.395 61.9054 226.379 61.5209L226.324 60.3293C226.305 59.9194 226.288 59.4968 226.28 59.0616C226.267 58.4087 226.267 57.7527 226.27 57.0888L226.28 55.0684V51.0753C226.28 49.7696 226.305 48.6413 226.368 47.5638ZM290.918 85.0235C289.659 85.0032 288.644 83.9877 288.624 82.729V27.8895C288.637 26.6281 289.657 25.6088 290.918 25.5951H315.967C319.079 25.4959 322.177 26.0576 325.057 27.243C327.283 28.2073 329.283 29.6281 330.926 31.4137C332.346 32.9906 333.429 34.8413 334.108 36.852C334.723 38.6137 335.053 40.4625 335.084 42.3283C335.108 43.8685 334.877 45.402 334.399 46.8666C334.012 48.0709 333.458 49.2146 332.751 50.264C332.195 51.0905 331.563 51.8629 330.862 52.5711C330.387 53.0506 329.86 53.4758 329.291 53.8388C331.209 55.2097 332.852 56.93 334.133 58.9095C335.574 61.2442 336.32 63.9373 336.29 66.6738L336.275 67.1874C336.264 69.3794 335.86 71.5517 335.084 73.6018C334.293 75.7145 333.111 77.6586 331.598 79.3317C329.993 81.0868 328.042 82.4897 325.868 83.4516C323.367 84.5433 320.66 85.0796 317.932 85.0235H290.918ZM323.611 42.7213C323.741 40.8659 322.99 39.0576 321.583 37.8408C320.214 36.7379 318.072 36.1801 315.118 36.1801H300.096V49.2625H315.118C318.072 49.2625 320.189 48.7174 321.583 47.6018C322.912 46.4526 323.656 44.7758 323.625 43.03L323.611 42.7213ZM300.096 74.4131H315.803C318.921 74.4131 321.199 73.7497 322.635 72.4229C324.034 71.03 324.815 69.133 324.801 67.1587C324.786 65.1845 323.978 63.299 322.559 61.9265C320.636 60.4362 318.228 59.7133 315.803 59.8983H300.096V74.4131ZM392.839 25.5697C394.11 25.5836 395.133 26.6182 395.133 27.8895V62.6871C395.181 65.9216 394.662 69.1394 393.6 72.1947C392.634 74.9406 391.066 77.4356 389.011 79.4965C386.858 81.6151 384.259 83.2262 381.405 84.2122C374.487 86.4266 367.051 86.4266 360.133 84.2122C357.281 83.2201 354.684 81.6097 352.527 79.4965C350.477 77.4583 348.913 74.9842 347.951 72.2581C346.998 69.4138 346.497 66.4391 346.466 63.4424L346.467 27.8895C346.467 26.6223 347.495 25.5951 348.762 25.5951H355.633C356.9 25.5951 357.927 26.6223 357.927 27.8895V62.2561C357.88 64.2782 358.197 66.2923 358.865 68.2015C359.936 71.2796 362.438 73.6441 365.571 74.5399C367.254 75.0357 369.002 75.2792 370.756 75.2624C372.523 75.2765 374.282 75.0331 375.979 74.5399C377.511 74.1096 378.921 73.3284 380.099 72.2581C381.313 71.1356 382.25 69.7471 382.837 68.2015C383.531 66.2981 383.862 64.2815 383.813 62.2561V27.8895C383.827 26.6281 384.846 25.6088 386.108 25.5951L392.839 25.5697ZM405.833 47.5638C405.905 44.3771 406.536 41.2278 407.696 38.2591C408.791 35.5223 410.475 33.0598 412.627 31.046C414.921 28.9557 417.623 27.363 420.563 26.3683C428.141 24.0827 436.238 24.1757 443.761 26.6346C446.558 27.6769 449.137 29.2286 451.367 31.2108C453.095 32.7469 454.467 34.6419 455.386 36.7632C456.037 38.2911 456.464 39.905 456.654 41.555C456.739 42.1805 456.5 42.8065 456.02 43.2157C455.568 43.6321 454.973 43.859 454.359 43.8495H447.488C446.949 43.8793 446.418 43.7126 445.992 43.3805C445.726 43.1692 445.498 42.9139 445.319 42.6261L445.103 42.2404L444.786 41.7098L444.294 40.9212C443.672 40.0084 442.9 39.207 442.012 38.5507C440.754 37.6151 439.366 36.8678 437.892 36.3322C435.854 35.6317 433.708 35.3011 431.554 35.3561C427.859 35.1846 424.236 36.4163 421.412 38.8042C418.836 41.18 417.359 44.516 417.33 48.0202C417.216 50.1625 417.166 52.4697 417.166 54.9417L417.168 56.763C417.176 58.5522 417.207 60.2469 417.33 61.8632C417.508 66.5535 418.864 69.9762 421.412 72.0933C424.307 74.3256 427.902 75.4537 431.554 75.2751C433.501 75.2901 435.442 75.0644 437.334 74.6033C438.989 74.1977 440.536 73.4411 441.872 72.3848C443.192 71.3157 444.217 69.9284 444.852 68.3536C445.605 66.3895 445.963 64.2957 445.904 62.1927V61.5209H435.547C434.288 61.5005 433.273 60.4851 433.252 59.2264V53.1669C433.273 51.9082 434.288 50.8928 435.547 50.8724H455.094C456.353 50.8928 457.368 51.9082 457.389 53.1669V62.5097C457.419 65.7119 456.873 68.8935 455.779 71.9031C454.738 74.6978 453.083 77.2232 450.936 79.2936C448.619 81.4593 445.866 83.1059 442.861 84.1235C435.537 86.422 427.684 86.422 420.36 84.1235C417.417 83.1245 414.723 81.5031 412.462 79.3697C410.341 77.3013 408.7 74.791 407.658 72.0172C406.526 69.0153 405.909 65.8438 405.833 62.6364L405.803 62.0882L405.755 60.9346L405.72 59.7049C405.715 59.4937 405.71 59.2792 405.706 59.0616C405.693 58.4087 405.693 57.7527 405.696 57.0888L405.706 55.0684V51.0753C405.706 50.2048 405.734 49.4132 405.772 48.6629L405.833 47.5638ZM509.706 74.4004C510.964 74.4208 511.98 75.4362 512 76.6949V82.729C511.98 83.9877 510.964 85.0032 509.706 85.0235H467.15C465.891 85.0032 464.876 83.9877 464.855 82.729V76.6949C464.825 76.0411 464.988 75.3928 465.324 74.8314L465.681 74.3264C465.737 74.2493 465.791 74.1758 465.843 74.1058L466.136 73.7286L496.281 36.1801H467.999C467.394 36.1839 466.812 35.9414 466.389 35.5083C465.946 35.0859 465.698 34.4981 465.705 33.8856V27.8895C465.718 26.6281 466.738 25.6088 467.999 25.5951H508.856C510.118 25.6088 511.137 26.6281 511.151 27.8895V33.911C511.184 34.9568 510.785 35.9702 510.048 36.7125L479.814 74.4004H509.706Z" fill="#804DDA"/>
</g>
<defs>
<linearGradient id="paint0_linear_1_3875" x1="-1434.27" y1="4008.71" x2="6744.94" y2="-3990.01" gradientUnits="userSpaceOnUse">
<stop stop-color="#AB68FC"/>
<stop offset="0.86" stop-color="#5521B3"/>
</linearGradient>
<linearGradient id="paint1_linear_1_3875" x1="6259.76" y1="5865.48" x2="2968.77" y2="2736.56" gradientUnits="userSpaceOnUse">
<stop offset="0.02" stop-color="#AA69FF"/>
<stop offset="0.86" stop-color="#C6B1FF"/>
</linearGradient>
<clipPath id="clip0_1_3875">
<rect width="512" height="111" fill="white"/>
</clipPath>
</defs>
</svg>
