<svg width="512" height="138" viewBox="0 0 512 138" fill="none" xmlns="http://www.w3.org/2000/svg">
<g clip-path="url(#clip0_1_3884)">
<path d="M455.046 4.21624H454.931C445.982 4.05118 437.113 5.92161 428.993 9.68629C424.276 6.26045 418.627 4.35246 412.799 4.21624C396.173 4.21624 380.551 12.0906 371.329 31.8209V8.64316C371.329 6.19824 369.347 4.21624 366.902 4.21624H359.371C342.719 4.21624 328.153 13.6807 321.017 31.9481V5.60284C321.017 5.23509 320.871 4.8824 320.611 4.62237C320.351 4.36233 319.998 4.21624 319.63 4.21624H309.059C292.293 4.21624 277.04 14.622 270.553 32.3424V5.83181C270.553 5.39437 270.376 4.97554 270.062 4.67106C269.747 4.36658 269.323 4.20247 268.886 4.21624H258.239C242.121 4.21624 221.742 12.8284 213.715 36.6167C205.179 17.1663 188.273 4.22896 163.187 4.22896H163.073C124.057 4.22896 105.981 33.8435 105.981 70.7727C105.981 113.541 124.312 137.329 163.073 137.329C200.905 137.329 220.165 113.553 220.165 70.7727C220.165 43.4733 235.837 30.5869 245.734 29.9891C245.921 29.9749 246.106 30.0396 246.244 30.1676C246.381 30.2956 246.459 30.4753 246.459 30.6633V131.287C246.459 132.467 247.416 133.424 248.596 133.424H268.415C269.596 133.424 270.553 132.467 270.553 131.287V104.038C270.553 43.0408 291.644 31.7191 296.236 30.2562C296.44 30.1856 296.666 30.219 296.841 30.3457C297.016 30.4723 297.118 30.6764 297.114 30.8922V131.325C297.114 132.505 298.071 133.462 299.251 133.462H318.892C319.459 133.462 320.003 133.237 320.404 132.836C320.804 132.435 321.03 131.892 321.03 131.325V104.038C321.03 42.6465 341.383 31.5283 346.586 30.1799C346.786 30.1283 346.998 30.1727 347.16 30.2999C347.322 30.4271 347.416 30.6226 347.413 30.8286V131.325C347.413 132.505 348.37 133.462 349.55 133.462H369.191C369.758 133.462 370.302 133.237 370.703 132.836C371.103 132.435 371.329 131.892 371.329 131.325V104.038C371.329 42.3666 391.542 29.9636 400.841 29.9636C402.877 29.9922 404.881 30.4609 406.718 31.3375C400.727 42.3539 397.814 55.9654 397.814 70.7727C397.814 113.541 416.145 137.329 454.906 137.329C492.738 137.329 511.999 113.553 511.999 70.7727C512.138 33.8308 493.056 4.21624 455.046 4.21624ZM163.174 113.401C140.366 113.401 131.55 94.3193 131.55 70.7727C131.55 47.226 140.162 28.1699 163.174 28.1445C186.187 28.1191 194.799 47.226 194.799 70.7727C194.799 94.3193 185.996 113.363 163.174 113.401ZM104.327 0.603471C105.156 -0.201157 106.474 -0.201157 107.304 0.603471L120.215 13.528C120.626 13.9417 120.851 14.5043 120.84 15.0871C120.827 15.6699 120.579 16.2229 120.152 16.6192C109.542 26.4399 99.989 32.228 83.528 32.228H51.9417C50.7613 32.228 49.8045 33.1848 49.8045 34.3651V60.4814C49.8045 61.6617 50.7613 62.6185 51.9417 62.6185H88.4256C88.9924 62.6185 89.536 62.8437 89.9367 63.2444C90.3375 63.6452 90.5627 64.1888 90.5627 64.7556V84.2061C90.5627 85.3864 89.6059 86.3432 88.4256 86.3432H51.9671C50.7868 86.3432 49.83 87.3 49.83 88.4804V131.35C49.83 132.531 48.8731 133.487 47.6928 133.487H28.2424C27.0621 133.487 26.1052 132.531 26.1052 131.35V88.4804C26.1052 87.9136 25.8801 87.37 25.4793 86.9692C25.0785 86.5684 24.5349 86.3432 23.9681 86.3432H2.13881C0.958508 86.3432 0.00051255 85.3864 0.00051255 84.2061V64.7556C-0.0119613 64.1844 0.203673 63.6316 0.60044 63.2205C0.997207 62.8094 1.54207 62.5742 2.11337 62.5676H23.9427C25.123 62.5676 26.0798 61.6108 26.0798 60.4305V10.6912C26.0798 9.51094 27.0366 8.55412 28.2169 8.55412H78.1851L79.2138 8.54972C94.0782 8.42083 99.2147 5.46686 104.327 0.603471ZM454.982 28.1445C477.994 28.1191 486.607 47.226 486.607 70.7727C486.607 94.3193 477.804 113.363 454.982 113.401C432.173 113.401 423.358 94.3193 423.358 70.7727C423.358 47.226 431.97 28.1699 454.982 28.1445Z" fill="#EBA06D"/>
</g>
<defs>
<clipPath id="clip0_1_3884">
<rect width="512" height="138" fill="white"/>
</clipPath>
</defs>
</svg>
