<svg width="256" height="256" viewBox="0 0 256 256" fill="none" xmlns="http://www.w3.org/2000/svg">
<g clip-path="url(#clip0_1_3881)">
<path d="M253.971 0C255.092 0 256 0.908254 256 2.02864V253.971C256 255.092 255.092 256 253.971 256H2.02873C0.908291 256 0 255.092 0 253.971V2.02864C0 0.908254 0.908291 0 2.02873 0H253.971ZM233.496 20.4854H22.5073C21.3868 20.4854 20.4785 21.3937 20.4785 22.5141V233.481C20.4785 234.019 20.6923 234.535 21.0727 234.915L22.5073 235.51H233.496C234.616 235.51 235.524 234.601 235.524 233.481V22.5141C235.524 21.3937 234.616 20.4854 233.496 20.4854ZM199.685 186.876C206.754 186.876 212.485 192.607 212.485 199.676C212.485 206.745 206.754 212.476 199.685 212.476C192.615 212.476 186.884 206.745 186.884 199.676C186.884 192.607 192.615 186.876 199.685 186.876ZM175.847 60.9491C176.634 60.1853 177.886 60.1853 178.673 60.9491L190.942 73.2175C191.33 73.6117 191.542 74.1468 191.53 74.7C191.514 75.2532 191.277 75.7772 190.869 76.1518C180.798 85.4739 171.729 90.9681 156.103 90.9681H126.119C124.999 90.9681 124.09 91.8764 124.09 92.9967V117.787C124.09 118.908 124.999 119.816 126.119 119.816H160.74C161.278 119.816 161.794 120.03 162.175 120.41C162.555 120.79 162.769 121.306 162.769 121.845V140.259C162.769 140.797 162.555 141.313 162.175 141.694C161.794 142.074 161.278 142.288 160.74 142.288H126.131C125.011 142.288 124.102 143.196 124.102 144.317V185.01C124.102 185.548 123.889 186.064 123.508 186.445C123.128 186.825 122.612 187.039 122.074 187.039H103.61C102.489 187.039 101.581 186.131 101.581 185.01V144.317C101.581 143.196 100.673 142.288 99.5524 142.288H78.8305C77.71 142.288 76.8017 141.38 76.8017 140.259V121.796C76.8017 121.258 77.0155 120.742 77.3959 120.362C77.7764 119.981 78.2924 119.768 78.8305 119.768H99.5524C100.673 119.768 101.581 118.859 101.581 117.739V70.5247C101.581 69.4043 102.489 68.4961 103.61 68.4961H151.031L152.03 68.4917C166.123 68.3667 170.997 65.5632 175.847 60.9491Z" fill="#EBA06D"/>
</g>
<defs>
<clipPath id="clip0_1_3881">
<rect width="256" height="256" fill="white"/>
</clipPath>
</defs>
</svg>
