<svg width="256" height="258" viewBox="0 0 256 258" fill="none" xmlns="http://www.w3.org/2000/svg">
<g clip-path="url(#clip0_1_3887)">
<path d="M103.893 9.19336C122.048 9.19336 134.461 13.7903 146.873 18.3873L147.776 18.7227L148.985 19.1705L150.194 19.6166C150.395 19.6907 150.597 19.7648 150.799 19.8387L152.009 20.2805C162.711 24.167 173.75 27.5813 189.395 27.5813C204.625 27.5813 215.57 24.3476 225.823 20.5924L227.004 20.1569C227.396 20.0111 227.788 19.8647 228.179 19.7178L229.351 19.2758C229.546 19.202 229.74 19.1281 229.935 19.0541L231.104 18.6097C231.298 18.5356 231.493 18.4615 231.688 18.3873L233.44 17.7205C240.461 15.0549 247.583 12.4645 256 10.8518L256 194.731C248.284 196.209 241.657 198.51 235.197 200.936L234.025 201.378C233.245 201.673 232.466 201.97 231.688 202.266L229.935 202.933C229.74 203.007 229.545 203.081 229.35 203.155L228.178 203.597C217.227 207.71 205.796 211.46 189.395 211.46C173.991 211.46 162.968 208.151 152.366 204.338L151.144 203.896C150.737 203.749 150.331 203.6 149.925 203.451L148.706 203.003L147.487 202.553L146.586 202.224L145.343 201.766C145.136 201.69 144.929 201.613 144.721 201.537L143.476 201.081C143.268 201.005 143.061 200.93 142.853 200.854L141.603 200.402C130.753 196.503 119.382 193.072 103.893 193.072C91.0378 193.072 81.236 195.376 72.3255 198.353L72.3259 161.577C81.2359 158.6 91.0384 156.297 103.893 156.297C120.56 156.297 132.388 160.171 143.818 164.363L145.041 164.813L146.873 165.491L147.776 165.825C148.583 166.124 149.388 166.423 150.194 166.719L151.403 167.163L152.572 167.587C152.767 167.657 152.962 167.728 153.157 167.798L154.331 168.215C164.327 171.744 174.878 174.685 189.395 174.685C202.102 174.685 211.827 172.433 220.655 169.506L220.655 59.1787C211.826 62.1058 202.102 64.3571 189.395 64.3571C173.971 64.3571 162.939 61.0387 152.323 57.2199L151.122 56.7856L149.925 56.3479L148.706 55.8999L147.487 55.4504L146.586 55.1205C145.55 54.7385 144.515 54.3567 143.476 53.9776L142.228 53.5241L140.976 53.0743C130.314 49.2694 119.084 45.9692 103.893 45.9692C88.642 45.9692 77.6887 49.2116 67.4227 52.9733L66.2632 53.4012L65.1085 53.8327L63.9367 54.2746C63.5466 54.4223 63.157 54.5703 62.7675 54.7184L61.5994 55.1631C60.8208 55.4597 60.0422 55.7563 59.262 56.0516L58.0903 56.4936C47.139 60.6068 35.708 64.3571 19.3072 64.3571C18.9988 64.3571 18.6921 64.3558 18.3872 64.3531L18.3874 27.5773C18.6923 27.5799 18.9988 27.5813 19.3072 27.5813C35.708 27.5813 47.1405 23.831 58.0908 19.7178L59.2624 19.2758L59.8472 19.0541L61.0155 18.6097C61.2102 18.5356 61.4048 18.4615 61.5994 18.3873L63.3516 17.7205C74.8477 13.3562 86.6122 9.19336 103.893 9.19336Z" fill="#528DD7"/>
<path d="M18.3879 0C8.23263 0 0 8.23263 0 18.3879V239.043C0 249.198 8.23263 257.431 18.3879 257.431C28.5432 257.431 36.7758 249.198 36.7758 239.043V18.3879C36.7758 8.23263 28.5432 0 18.3879 0Z" fill="#193154"/>
</g>
<defs>
<clipPath id="clip0_1_3887">
<rect width="256" height="258" fill="white"/>
</clipPath>
</defs>
</svg>
