<svg width="512" height="130" viewBox="0 0 512 130" fill="none" xmlns="http://www.w3.org/2000/svg">
<g clip-path="url(#clip0_1_3895)">
<path d="M161.913 47.2274V59.9488H179.865V66.2772H161.913V86.102H155.197V40.8989H181.35V47.2274H161.913ZM199.285 55.2993C202.384 55.2993 205.161 55.9881 207.615 57.3658C210.112 58.7434 212.071 60.6376 213.491 63.0484C214.912 65.4593 215.622 68.1714 215.622 71.185C215.622 74.1985 214.912 76.9107 213.491 79.3215C212.071 81.7324 210.112 83.6266 207.615 85.0042C205.161 86.3818 202.384 87.0706 199.285 87.0706C196.185 87.0706 193.387 86.3818 190.89 85.0042C188.436 83.6266 186.499 81.7324 185.078 79.3215C183.657 76.9107 182.947 74.1985 182.947 71.185C182.947 68.1714 183.657 65.4593 185.078 63.0484C186.499 60.6376 188.436 58.7434 190.89 57.3658C193.387 55.9881 196.185 55.2993 199.285 55.2993ZM199.285 61.4986C196.443 61.4986 194.119 62.3811 192.31 64.1462C190.545 65.9113 189.663 68.2575 189.663 71.185C189.663 74.1124 190.545 76.4587 192.31 78.2237C194.119 79.9888 196.443 80.8713 199.285 80.8713C202.126 80.8713 204.429 79.9888 206.194 78.2237C208.002 76.4587 208.906 74.1124 208.906 71.185C208.906 68.2575 208.002 65.9113 206.194 64.1462C204.429 62.3811 202.126 61.4986 199.285 61.4986ZM238.25 62.7901H237.282C234.139 62.7901 231.771 63.6081 230.178 65.244C228.585 66.8369 227.789 69.3769 227.789 72.8639V86.102H221.461V56.268H227.789V62.7901H227.918C228.65 60.5084 229.855 58.7003 231.534 57.3658C233.256 56.0312 235.344 55.3639 237.798 55.3639H238.25V62.7901ZM254.439 55.2993C258.916 55.2993 262.403 56.7415 264.9 59.6259C267.44 62.4672 268.71 66.3203 268.71 71.185V72.2182H245.592C245.721 74.8443 246.603 76.9753 248.239 78.6112C249.918 80.2041 252.049 81.0005 254.632 81.0005C256.785 81.0005 258.571 80.5054 259.992 79.5153C261.456 78.482 262.726 77.2336 263.802 75.7699L268.258 79.9673C264.814 84.7028 260.315 87.0706 254.761 87.0706C251.619 87.0706 248.864 86.4249 246.496 85.1334C244.171 83.7988 242.363 81.9476 241.071 79.5798C239.823 77.169 239.199 74.3922 239.199 71.2496C239.199 68.236 239.801 65.5238 241.007 63.113C242.255 60.6591 244.02 58.7434 246.302 57.3658C248.627 55.9881 251.339 55.2993 254.439 55.2993ZM254.051 61.1112C251.856 61.1112 250.047 61.6708 248.627 62.7901C247.206 63.9094 246.302 65.5238 245.915 67.6333H261.865C261.736 65.5669 260.961 63.974 259.54 62.8547C258.162 61.6923 256.333 61.1112 254.051 61.1112ZM283.73 87.0706C281.62 87.0706 279.489 86.7908 277.337 86.2311C275.227 85.6715 273.312 84.8966 271.59 83.9064L274.431 78.2883C277.703 80.1825 280.867 81.1297 283.924 81.1297C287.023 81.1297 288.573 80.2041 288.573 78.3529C288.573 77.7071 288.336 77.1475 287.863 76.6739C287.432 76.1573 286.614 75.5977 285.409 74.995L279.984 72.3473C275.809 70.367 273.721 67.5042 273.721 63.7588C273.721 61.0466 274.646 58.9586 276.497 57.4949C278.392 56.0312 280.996 55.2993 284.311 55.2993C285.99 55.2993 287.712 55.5146 289.477 55.9451C291.285 56.3325 293.007 56.8922 294.643 57.6241L292.06 63.113C289.047 61.8215 286.399 61.1757 284.117 61.1757C281.663 61.1757 280.437 61.9291 280.437 63.4359C280.437 64.1677 280.673 64.792 281.147 65.3086C281.663 65.8252 282.568 66.3848 283.859 66.9876L289.413 69.6352C291.393 70.5392 292.878 71.6801 293.868 73.0577C294.858 74.3922 295.354 76.0497 295.354 78.03C295.354 81.0005 294.299 83.2607 292.189 84.8105C290.123 86.3172 287.303 87.0706 283.73 87.0706ZM309.259 61.6278V77.2551C309.259 78.3314 309.496 79.1278 309.969 79.6444C310.486 80.118 311.282 80.3547 312.358 80.3547H313.908V86.1666H311.002C308.376 86.1666 306.374 85.4993 304.997 84.1647C303.619 82.8301 302.93 80.9359 302.93 78.482V61.6278H297.635V56.268H302.93V44.3214H309.259V56.268H315.329V61.6278H309.259ZM365.833 74.8658H346.072L341.746 86.102H334.384L352.853 40.8989H359.052L377.521 86.102H370.159L365.833 74.8658ZM363.443 68.6665L355.953 49.2938L348.462 68.6665H363.443ZM393.665 87.0706C390.996 87.0706 388.563 86.4249 386.368 85.1334C384.172 83.8418 382.407 82.0122 381.073 79.6444C379.781 77.2336 379.135 74.4138 379.135 71.185C379.135 67.9562 379.781 65.1579 381.073 62.7901C382.407 60.3793 384.172 58.5281 386.368 57.2366C388.563 55.9451 390.996 55.2993 393.665 55.2993C396.033 55.2993 398.056 55.7729 399.735 56.72C401.414 57.6671 402.748 58.9802 403.739 60.6591H403.868V40.8989H410.196V86.102H403.868V81.7108H403.739C402.748 83.3898 401.414 84.7028 399.735 85.65C398.056 86.5971 396.033 87.0706 393.665 87.0706ZM395.021 80.8713C397.776 80.8713 399.993 79.9888 401.672 78.2237C403.351 76.4156 404.191 74.0694 404.191 71.185C404.191 68.3006 403.351 65.9759 401.672 64.2108C399.993 62.4027 397.776 61.4986 395.021 61.4986C392.266 61.4986 390.049 62.4027 388.37 64.2108C386.691 65.9759 385.851 68.3006 385.851 71.185C385.851 74.0694 386.691 76.4156 388.37 78.2237C390.049 79.9888 392.266 80.8713 395.021 80.8713ZM418.279 56.268H424.607V60.9174H424.737C425.555 58.9801 426.738 57.5595 428.288 56.6554C429.881 55.7514 431.689 55.2993 433.713 55.2993C438.061 55.2993 441.074 57.3227 442.753 61.3695H442.882C443.743 59.3461 445.013 57.8393 446.692 56.8491C448.371 55.8159 450.222 55.2993 452.246 55.2993C455.259 55.2993 457.713 56.311 459.607 58.3344C461.502 60.3578 462.449 63.4574 462.449 67.6333V86.102H456.12V67.9562C456.12 65.8898 455.604 64.3184 454.571 63.2422C453.58 62.1659 452.138 61.6278 450.244 61.6278C448.178 61.6278 446.542 62.3596 445.336 63.8233C444.131 65.244 443.528 67.5042 443.528 70.6038V86.102H437.2V67.9562C437.2 65.8898 436.683 64.3184 435.65 63.2422C434.66 62.1659 433.196 61.6278 431.259 61.6278C429.235 61.6278 427.621 62.3596 426.415 63.8233C425.21 65.2871 424.607 67.5687 424.607 70.6684V86.102H418.279V56.268ZM470.187 56.268H476.516V86.102H470.187V56.268ZM473.351 40.6406C474.643 40.6406 475.741 41.0927 476.645 41.9967C477.549 42.9008 478.001 43.9986 478.001 45.2901C478.001 46.5816 477.549 47.6794 476.645 48.5834C475.741 49.4875 474.643 49.9395 473.351 49.9395C472.06 49.9395 470.962 49.4875 470.058 48.5834C469.154 47.6794 468.702 46.5816 468.702 45.2901C468.702 43.9986 469.154 42.9008 470.058 41.9967C470.962 41.0927 472.06 40.6406 473.351 40.6406ZM500.764 55.2993C504.208 55.2993 506.942 56.311 508.965 58.3344C510.988 60.3147 512 63.4574 512 67.7625V86.102H505.672V68.8602C505.672 64.0386 503.39 61.6278 498.827 61.6278C496.373 61.6278 494.435 62.4457 493.015 64.0816C491.594 65.7176 490.884 68.3006 490.884 71.8307V86.102H484.555V56.268H490.884V60.7883H491.013C493.079 57.129 496.33 55.2993 500.764 55.2993Z" fill="#233A5E"/>
<path d="M10.7626 0H118.389C124.333 0 129.152 4.81859 129.152 10.7626V118.389C129.152 124.333 124.333 129.152 118.389 129.152H10.7626C4.81859 129.152 0 124.333 0 118.389V10.7626C0 4.81859 4.81859 0 10.7626 0Z" fill="#54BD7E"/>
<path d="M68.4568 42.6898C84.0301 41.5164 93.4436 34.1004 96.3767 24.2168C75.8249 33.6863 50.1802 22.1017 45.3266 43.0253L42.8385 54.1797C47.167 47.4641 52.8844 43.8632 68.4568 42.6898ZM60.3593 44.5891C52.7054 45.6917 46.5659 49.2423 43.1202 55.4788C42.0111 57.4854 41.6215 59.642 41.6215 59.642L39.8602 67.5372C42.0666 63.6026 46.0121 58.5746 56.3526 56.1821C56.5854 54.9301 57.9974 47.7536 60.3593 44.5891ZM38.2531 74.7412L35.5632 86.801C42.6903 73.2306 58.0281 70.5967 59.922 70.201C73.2782 67.4078 79.7086 60.7761 82.2658 52.1582C70.6118 58.7484 43.4095 50.4733 38.2531 74.7412ZM34.2677 92.6115L32.2879 101.487C48.0831 100.598 49.8251 85.4185 52.4025 73.3601C47.4882 75.0753 36.6583 81.7972 34.2677 92.6115Z" fill="white"/>
</g>
<defs>
<clipPath id="clip0_1_3895">
<rect width="512" height="130" fill="white"/>
</clipPath>
</defs>
</svg>
