<svg width="256" height="256" viewBox="0 0 256 256" fill="none" xmlns="http://www.w3.org/2000/svg">
<g clip-path="url(#clip0_1_3891)">
<path d="M21.3333 0H234.667C246.449 0 256 9.55126 256 21.3333V234.667C256 246.449 246.449 256 234.667 256H21.3333C9.55126 256 0 246.449 0 234.667V21.3333C0 9.55126 9.55126 0 21.3333 0Z" fill="#54BD7E"/>
<path d="M135.693 84.6165C166.562 82.2907 185.221 67.5909 191.035 48C150.298 66.7701 99.4656 43.8075 89.8448 85.2816L84.9131 107.391C93.4928 94.08 104.826 86.9424 135.693 84.6165ZM119.642 88.3813C104.471 90.5669 92.3013 97.6048 85.4715 109.966C83.2731 113.944 82.5008 118.219 82.5008 118.219L79.0096 133.868C83.3829 126.069 91.2037 116.103 111.7 111.361C112.162 108.879 114.961 94.6539 119.642 88.3813ZM75.824 148.148L70.4923 172.052C84.6192 145.154 115.021 139.933 118.775 139.148C145.25 133.612 157.996 120.467 163.065 103.385C139.964 116.447 86.0448 100.045 75.824 148.148ZM67.9243 183.57L64 201.163C95.3088 199.4 98.7616 169.312 103.87 145.41C94.1296 148.81 72.6629 162.134 67.9243 183.57Z" fill="white"/>
</g>
<defs>
<clipPath id="clip0_1_3891">
<rect width="256" height="256" fill="white"/>
</clipPath>
</defs>
</svg>
