<svg width="256" height="216" viewBox="0 0 256 216" fill="none" xmlns="http://www.w3.org/2000/svg">
<g clip-path="url(#clip0_1_3976)">
<path d="M240.382 20.8652C277.73 112.03 240.382 161.045 208.786 188.07C216.508 215.094 185.731 220.669 174.041 207.373C139.627 219.241 69.7105 218.855 19.6147 168.767C-7.40977 141.742 13.6694 81.6241 85.2457 41.3652C147.016 6.61943 208.786 -12.6838 240.382 20.8652Z" fill="#FFDB1E"/>
<path d="M85.2457 41.366C138.121 6.64339 201.258 -7.8958 227.07 14.5732C266.696 49.0873 143.155 127.165 96.8277 145.603C46.6393 165.578 73.6638 211.234 46.6393 211.234C23.4754 211.234 27.336 180.349 6.61981 151.394C-5.61844 134.292 24.7108 81.1152 85.2457 41.366Z" fill="white"/>
<path d="M83.1265 38.1385C72.8124 44.9111 63.1433 52.2716 54.3076 59.9159L49.9601 63.7603C12.1861 97.9033 -8.71748 136.595 3.48017 153.641C4.62161 155.236 5.70906 156.871 6.74884 158.55C9.46876 162.941 11.8086 167.523 14.0486 172.698L15.6809 176.62L21.4681 191.924C27.7925 208.313 33.9042 215.095 46.6392 215.095C58.2601 215.095 62.3007 209.583 65.1638 195.379L66.4919 188.431L67.3079 184.461L67.8032 182.33L68.298 180.468L68.8252 178.751L69.4177 177.055L70.1085 175.257C74.4571 164.31 82.2896 156.072 96.0354 150.112L98.2553 149.19C124.965 138.56 167.414 113.174 196.637 89.0957L200.684 85.7015C202.663 84.0126 204.571 82.3363 206.409 80.6734L209.99 77.3657C237.868 51.0509 247.253 28.3114 230.675 12.6315L229.605 11.6607C202.918 -11.5695 139.279 1.26387 83.1265 38.1385ZM224.536 17.4846C237.56 28.8287 229.901 47.869 204.94 71.5142L201.429 74.7668C200.826 75.3136 200.214 75.8627 199.594 76.414L195.765 79.749C194.454 80.8695 193.107 81.9989 191.727 83.1367C164.134 105.872 124.319 129.905 98.2399 140.854L95.4 142.016C78.2829 148.829 68.2895 158.921 62.9326 172.407L61.8103 175.384L61.1901 177.258L60.6305 179.198C60.5402 179.534 60.451 179.879 60.3621 180.234L59.8261 182.52L58.9562 186.733L57.6039 193.82L57.0146 196.592C55.0362 205.18 52.7967 207.373 46.6392 207.373C38.4012 207.373 34.3299 203.253 29.3559 190.883L23.5326 175.499L22.5336 172.964C19.7287 166.079 16.828 160.159 13.3131 154.484C12.1843 152.662 11.0021 150.884 9.75957 149.148C3.08119 139.815 11.5655 118.776 30.1249 95.8096L33.2221 92.0699C47.0188 75.8047 65.6548 58.8481 87.3647 44.5927C140.935 9.41389 201.283 -2.75588 224.536 17.4846Z" fill="#FFDB1E"/>
<path d="M197.475 20.3019C233.34 29.9535 194.656 64.2746 164.25 86.2108C135.434 106.997 113.243 118.717 103.074 123.505C100.248 124.84 90.5888 106.116 90.5888 115.783C90.5888 119.003 85.1839 133.064 83.3772 133.743C72.8376 137.696 50.7701 143.704 38.3234 143.704C11.3684 143.704 23.4754 106.997 61.5954 73.2699C68.4828 67.1778 73.0075 68.2897 79.2231 68.2897C75.0768 62.3211 75.0999 61.2093 82.3348 56.3526C114.509 34.7252 154.737 20.2864 171.817 17.584C174.643 17.6921 178.148 20.2864 178.148 22.4407C181.314 21.3597 194.324 19.4448 197.475 20.2942V20.3019Z" fill="#FFE600"/>
<path d="M87.5389 79.8951C95.1444 74.1273 100.233 72.0966 103.746 60.3911C108.116 61.3254 110.24 59.7734 113.706 54.9785C116.208 58.5766 126.501 59.6731 132.647 60.3911C127.126 63.8734 124.485 66.9697 121.435 76.6522C110.131 71.9345 96.9821 74.3204 87.5389 79.8951Z" fill="white"/>
</g>
<defs>
<clipPath id="clip0_1_3976">
<rect width="256" height="216" fill="white"/>
</clipPath>
</defs>
</svg>
