<svg width="256" height="257" viewBox="0 0 256 257" fill="none" xmlns="http://www.w3.org/2000/svg">
<g clip-path="url(#clip0_1_4051)">
<path d="M255.275 115.989H174.854C168.773 92.3764 146.129 76.9811 122 80.0539C97.871 83.1267 79.7849 103.709 79.7849 128.095C79.7849 152.482 97.871 173.064 122 176.137C146.129 179.21 168.773 163.814 174.854 140.202H230.642C225.426 185.371 191.455 221.855 146.868 230.171C102.282 238.488 57.4962 216.694 36.4283 176.428C15.3604 136.162 22.9315 86.8307 55.0985 54.778C87.2654 22.7252 136.514 15.4387 176.544 36.8095C170.072 54.9008 177.626 75.0296 194.389 84.3546C211.152 93.6795 232.184 89.4536 244.069 74.3729C255.953 59.2922 255.189 37.799 242.263 23.6052C229.338 9.41144 208.058 6.69817 192.001 17.1964C141.83 -11.8457 78.4579 -3.48095 37.4932 37.5906C-3.47157 78.6621 -11.8149 142.199 17.1511 192.502C46.1172 242.804 105.17 267.329 161.129 252.297C217.088 237.264 256 186.422 256 128.338C256 123.495 255.758 119.379 255.275 115.989ZM128.001 152.309C114.663 152.309 103.851 141.468 103.851 128.095C103.851 114.723 114.663 103.882 128.001 103.882C141.34 103.882 152.152 114.723 152.152 128.095C152.152 141.468 141.34 152.309 128.001 152.309ZM213.253 35.5988C219.114 35.5988 224.398 39.1385 226.641 44.5674C228.884 49.9962 227.644 56.2451 223.5 60.4001C219.355 64.5552 213.123 65.7982 207.708 63.5495C202.293 61.3008 198.763 56.0032 198.763 50.1271C198.763 42.1034 205.251 35.5988 213.253 35.5988Z" fill="#347EFF"/>
</g>
<defs>
<clipPath id="clip0_1_4051">
<rect width="256" height="257" fill="white"/>
</clipPath>
</defs>
</svg>
