<svg width="512" height="140" viewBox="0 0 512 140" fill="none" xmlns="http://www.w3.org/2000/svg">
<g clip-path="url(#clip0_1_4054)">
<path d="M139.023 63.1675H95.2256C91.914 50.3083 79.5821 41.924 66.4414 43.5974C53.3006 45.2709 43.4509 56.48 43.4509 69.7609C43.4509 83.0418 53.3006 94.251 66.4414 95.9244C79.5821 97.5979 91.914 89.2135 95.2256 76.3543H125.608C122.768 100.953 104.266 120.822 79.9846 125.352C55.7029 129.881 31.3125 118.012 19.8389 96.0829C8.36527 74.1542 12.4885 47.2881 30.0067 29.8321C47.5248 12.3762 74.3458 8.40791 96.1462 20.0465C92.6212 29.8991 96.7355 40.8612 105.864 45.9396C114.993 51.0179 126.448 48.7165 132.92 40.5036C139.393 32.2906 138.976 20.5854 131.937 12.8554C124.898 5.12548 113.309 3.64783 104.564 9.36516C77.2405 -6.45117 42.7283 -1.89573 20.4188 20.4719C-1.89062 42.8395 -6.4344 77.4419 9.34053 104.837C25.1155 132.231 57.2757 145.588 87.7509 137.401C118.226 129.214 139.418 101.525 139.418 69.8928C139.418 67.2554 139.286 65.0137 139.023 63.1675ZM69.7097 82.9478C62.4458 82.9478 56.5573 77.0438 56.5573 69.7609C56.5573 62.478 62.4458 56.5741 69.7097 56.5741C76.9737 56.5741 82.8622 62.478 82.8622 69.7609C82.8622 77.0438 76.9737 82.9478 69.7097 82.9478ZM116.138 19.3872C119.33 19.3872 122.207 21.3149 123.429 24.2714C124.65 27.228 123.975 30.6311 121.718 32.894C119.461 35.1568 116.067 35.8338 113.118 34.6091C110.169 33.3845 108.247 30.4994 108.247 27.2993C108.247 22.9295 111.78 19.3872 116.138 19.3872Z" fill="#347EFF"/>
<path d="M275.328 100.153C275.475 100.538 275.475 100.963 275.328 101.348C274.899 101.464 274.446 101.464 274.017 101.348C269.178 102.092 264.292 102.489 259.397 102.537L258.173 102.542C255.613 102.578 253.057 102.337 250.548 101.825C248.429 101.354 246.411 100.504 244.592 99.317C242.689 98.0443 241.231 96.2066 240.422 94.0615C239.398 91.3136 238.913 88.3936 238.992 85.4615V56.9143C238.916 53.9824 239.401 51.063 240.422 48.3144C241.224 46.1652 242.683 44.3255 244.592 43.0588C246.411 41.8715 248.429 41.0218 250.548 40.5505C252.806 40.0897 255.102 39.849 257.405 39.8314L258.173 39.8338C263.477 39.8225 268.774 40.2219 274.017 41.0283C274.446 40.9115 274.899 40.9115 275.328 41.0283C275.475 41.4128 275.475 41.8381 275.328 42.2227V47.5977C275.328 48.5212 274.581 49.2699 273.66 49.2699H256.743C254.897 49.0766 253.051 49.6362 251.62 50.8227C250.482 52.4588 249.974 54.4535 250.191 56.4366V65.3949H272.707C273.628 65.3949 274.375 66.1436 274.375 67.0671V73.0393C274.375 73.9628 273.628 74.7115 272.707 74.7115H250.191V85.4615C249.784 87.6789 250.3 89.9667 251.62 91.792C253.051 92.9785 254.897 93.5381 256.743 93.3448H273.66C274.581 93.3448 275.328 94.0935 275.328 95.017V100.153ZM324.01 100.153C324.156 100.538 324.156 100.963 324.01 101.348C323.581 101.464 323.128 101.464 322.699 101.348C317.86 102.092 312.974 102.49 308.079 102.537L306.855 102.542C304.295 102.578 301.739 102.337 299.23 101.825C297.112 101.352 295.094 100.502 293.274 99.317C291.371 98.0443 289.913 96.2066 289.104 94.0615C288.08 91.3136 287.595 88.3936 287.674 85.4615V56.9143C287.595 53.9822 288.08 51.0622 289.104 48.3144C289.913 46.1692 291.371 44.3315 293.274 43.0588C295.094 41.8738 297.112 41.0243 299.23 40.5505C301.488 40.0897 303.784 39.849 306.087 39.8314L306.855 39.8338C312.159 39.8225 317.456 40.2219 322.699 41.0283C323.128 40.9115 323.581 40.9115 324.01 41.0283C324.156 41.4128 324.156 41.8381 324.01 42.2227V47.5977C324.01 48.0412 323.834 48.4665 323.521 48.7801C323.209 49.0937 322.784 49.2699 322.342 49.2699H305.425C303.579 49.0766 301.733 49.6362 300.302 50.8227C299.164 52.4588 298.656 54.4535 298.873 56.4366V65.3949H321.389C322.31 65.3949 323.057 66.1436 323.057 67.0671V73.0393C323.057 73.9628 322.31 74.7115 321.389 74.7115H298.873V85.4615C298.656 87.4446 299.164 89.4392 300.302 91.0754C301.733 92.2619 303.579 92.8215 305.425 92.6281H322.342C323.263 92.6281 324.01 93.3768 324.01 94.3004V100.153ZM373.257 45.5467H357.055V99.416C357.191 99.8025 357.191 100.224 357.055 100.61C356.714 100.764 356.324 100.764 355.983 100.61H350.979C350.638 100.764 350.248 100.764 349.907 100.61C349.771 100.224 349.771 99.8025 349.907 99.416V45.5467H333.228C332.84 45.6665 332.425 45.6665 332.037 45.5467C331.888 45.2457 331.888 44.8922 332.037 44.5912V41.0079C331.884 40.6659 331.884 40.2748 332.037 39.9329C332.422 39.7962 332.843 39.7962 333.228 39.9329H373.257C374.289 39.9329 374.806 40.4106 374.806 41.3662V44.9495C374.806 45.3477 374.289 45.5467 373.257 45.5467ZM415.228 101.635C415.034 101.699 414.825 101.699 414.632 101.635H398.311C393.626 101.968 388.966 100.706 385.087 98.052C381.853 94.9692 380.225 90.5585 380.679 86.1076V55.4105C380.225 50.9596 381.853 46.5489 385.087 43.4661C388.966 40.8124 393.626 39.5498 398.311 39.8827H415.108C415.302 39.8189 415.511 39.8189 415.704 39.8827C415.765 40.1178 415.765 40.3644 415.704 40.5994L415.703 45.0015C415.692 45.5468 415.598 45.7355 414.751 45.7355H398.549C396.767 45.5402 394.97 45.5402 393.188 45.7355C392.033 45.9595 390.962 46.4966 390.09 47.2883C389.37 48.0067 388.873 48.9197 388.661 49.916C388.147 51.7008 387.906 53.5533 387.946 55.4105V67.3549H413.441C413.822 67.1956 414.251 67.1956 414.632 67.3549C414.791 67.7371 414.791 68.1671 414.632 68.5493V71.6549C414.791 72.0371 414.791 72.4671 414.632 72.8493C414.251 73.0086 413.822 73.0086 413.441 72.8493H387.946V86.9437C387.799 88.2934 387.799 89.6552 387.946 91.0048C388.136 92.0438 388.635 93.0012 389.376 93.752C390.247 94.5438 391.319 95.0808 392.473 95.3048C394.255 95.5001 396.052 95.5001 397.834 95.3048L414.107 95.3061C414.588 95.3166 414.87 95.411 414.87 96.2604V100.56C415.131 100.854 415.261 101.243 415.228 101.635ZM462.041 85.8646C461.969 87.6914 461.648 89.4998 461.088 91.2396C460.46 93.2632 459.357 95.1064 457.871 96.6146C456.077 98.3451 453.92 99.6511 451.557 100.437C448.3 101.549 444.871 102.075 441.431 101.99C438.852 102.133 436.267 102.133 433.687 101.99L427.612 101.153C427.184 101.283 426.728 101.283 426.301 101.153C426.208 100.842 426.208 100.51 426.301 100.198V96.4951C426.168 96.1905 426.168 95.8442 426.301 95.5396C426.611 95.4391 426.944 95.4391 427.254 95.5396H440.954C443.042 95.5868 445.127 95.3457 447.149 94.8229C448.558 94.4473 449.862 93.7526 450.962 92.7923C451.901 91.9571 452.601 90.8848 452.987 89.6868C453.197 88.3413 453.197 86.9712 452.987 85.6257C453.164 84.6784 453.164 83.7063 452.987 82.759C452.594 81.8245 452.028 80.9733 451.319 80.2507C450.672 79.3586 449.955 78.5198 449.175 77.7424L444.409 74.6368L436.308 69.7396C433.077 67.8869 430.178 65.5049 427.731 62.6924C425.79 60.2566 424.777 57.2084 424.871 54.0924C424.698 49.9404 426.568 45.9674 429.875 43.4619C434.33 40.8104 439.477 39.562 444.648 39.8786H459.063C460.016 39.8786 460.492 40.4758 460.492 41.3119V44.8952C460.492 45.7712 460.016 46.2091 459.063 46.2091H444.767C441.54 45.9817 438.307 46.5561 435.355 47.8814C433.317 49.2517 432.214 51.6486 432.496 54.0924C432.303 54.998 432.303 55.9342 432.496 56.8397C432.914 57.7242 433.478 58.5318 434.164 59.2285C435.028 60.1258 435.987 60.9267 437.023 61.6174L441.074 64.2452L448.698 68.7841C450.822 70.0274 452.853 71.4247 454.774 72.9646C456.268 74.1659 457.626 75.5277 458.824 77.0257C459.833 78.2649 460.601 79.683 461.088 81.2063C461.637 82.7023 461.958 84.2727 462.041 85.8646ZM510.332 45.5467H494.13V99.416C494.266 99.8025 494.266 100.224 494.13 100.61C493.789 100.764 493.399 100.764 493.058 100.61H488.054C487.713 100.764 487.323 100.764 486.982 100.61C486.846 100.224 486.846 99.8025 486.982 99.416V45.5467H470.423C470.035 45.6665 469.62 45.6665 469.231 45.5467C469.082 45.2457 469.082 44.8922 469.231 44.5912V41.0079C469.078 40.6659 469.078 40.2748 469.231 39.9329C469.617 39.7962 470.037 39.7962 470.423 39.9329L510.707 39.9337C511.6 39.9428 512 40.0523 512 41.3662V44.9495C512 45.1884 511.404 45.5467 510.332 45.5467ZM200.535 52.857C202.941 50.3161 206.338 48.9624 209.827 49.1542C214.688 49.0357 219.469 50.4112 223.527 53.0959C224.109 53.5997 224.971 53.5997 225.553 53.0959L228.65 48.7959C228.65 48.0792 229.365 47.2431 228.65 46.5265C223.045 42.1537 216.141 39.7989 209.049 39.8304L208.517 39.8376C205.802 39.8364 203.106 40.2802 200.535 41.1515C197.935 42.08 195.517 43.4541 193.387 45.2126C190.903 47.3628 189.016 50.1193 187.907 53.2153C186.501 57.0372 185.815 61.087 185.881 65.1597V77.1041C185.822 80.5819 186.305 84.0476 187.311 87.3763C188.105 90.0273 189.399 92.5008 191.123 94.6624C194.082 98.1734 198.025 100.712 202.441 101.949C204.671 102.435 206.949 102.675 209.231 102.665C215.142 102.882 221.02 101.695 226.386 99.2013C227.345 98.7376 227.948 97.7597 227.935 96.693V67.1903C228.094 66.8081 228.094 66.3781 227.935 65.9958C227.554 65.8366 227.125 65.8366 226.744 65.9958H209.47C208.548 65.9958 207.802 66.7445 207.802 67.6681V73.6403C207.802 74.5638 208.548 75.3125 209.47 75.3125H216.379V91.0791C214.155 91.8317 211.817 92.1953 209.47 92.1541C206.139 92.3038 202.898 91.0475 200.535 88.6902C198.11 85.2048 196.973 80.9811 197.318 76.7458V64.8014C197.021 60.5707 198.154 56.363 200.535 52.857Z" fill="#292F3A"/>
</g>
<defs>
<clipPath id="clip0_1_4054">
<rect width="512" height="140" fill="white"/>
</clipPath>
</defs>
</svg>
