<svg width="256" height="360" viewBox="0 0 256 360" fill="none" xmlns="http://www.w3.org/2000/svg">
<g clip-path="url(#clip0_1_4082)">
<path d="M125.883 359.543C96.0649 358.267 75.3334 354.302 58.788 346.71C56.3729 345.602 56.7352 346.343 54.1306 337.175C49.5942 321.208 46.1461 306.741 42.4523 288.176C40.5797 278.766 39.7028 274.831 35.3786 256.441C27.6191 223.442 24.672 208.268 22.9763 192.587C22.5469 188.615 23.32 183.185 24.5347 181.641C25.2538 180.727 25.2684 178.393 24.5562 178.207C24.1407 178.098 24.0377 177.747 23.8857 175.923C23.7596 174.408 23.5631 173.585 23.225 173.155C22.8987 172.741 22.7438 172.129 22.7438 171.256C22.7438 170.547 22.6286 169.896 22.4878 169.809C22.3341 169.714 22.2319 167.977 22.2319 165.458C22.2319 162.939 22.1297 161.203 21.976 161.108C21.8352 161.021 21.72 161.18 21.72 161.461C21.72 164.616 19.4529 158.87 18.1314 152.366C14.7399 135.675 9.17367 119.089 10.4541 129.49C10.9046 133.149 11.7348 136.747 14.1181 145.368C16.9179 155.496 18.1934 162.667 17.624 165.08C16.8103 168.527 11.5521 147.826 8.52156 129.244C7.75248 124.529 6.5977 117.446 5.95537 113.505C4.52012 104.698 3.18506 98.0846 1.36096 90.7449C-0.464888 83.3982 -0.413298 82.2066 1.85571 79.3169C6.53285 73.3605 20.2577 68.7299 21.7414 72.6078C22.7582 75.2656 19.7612 77.1068 11.6108 78.8312C4.54687 80.3258 3.89352 81.3944 7.72825 85.1815C11.5621 88.9678 33.7992 92.3518 60.1094 93.1528C106.708 94.5714 136.249 94.945 144.566 94.2206C146.607 94.0429 149.509 93.8303 151.015 93.7483C153.752 93.5991 153.752 93.5991 153.628 92.9309C153.534 92.4248 153.752 91.9522 154.527 90.983C155.09 90.2792 155.93 89.1851 156.394 88.5517C157.973 86.3971 160.624 85.5758 161.724 86.9008C163.099 88.5584 161.884 92.3951 159.612 93.5704C158.562 94.1131 158.863 94.2802 161.286 94.4988C162.436 94.6025 164.036 94.757 164.843 94.842C167.282 95.0993 169.141 94.2183 168.116 93.2909C165.859 91.2481 170.107 87.1275 176.685 84.9787C177.67 84.6568 178.586 84.2926 178.72 84.1693C178.853 84.0459 179.145 83.945 179.368 83.945C180.207 83.945 182.608 82.084 185.278 79.3644C186.797 77.8169 188.504 76.2583 189.07 75.9008C189.636 75.5434 190.224 75.0189 190.375 74.7353C190.836 73.8752 189.939 74.107 187.946 75.363C186.961 75.9841 185.579 76.8441 184.875 77.2742C183.414 78.1671 180.162 80.3232 177.034 82.4731C175.857 83.2822 174.606 84.1393 174.254 84.3777C173.902 84.6161 173.405 84.9864 173.149 85.2007C172.583 85.6751 169.957 85.789 168.495 85.4025C164.7 84.3988 164.427 81.0668 167.667 75.2805C169.085 72.7471 172.993 67.5655 173.485 67.5655C173.608 67.5655 174.032 67.0846 174.429 66.4969C175.146 65.4331 175.601 65.0896 177.884 63.885C179.526 63.0188 180.486 62.9246 180.747 63.6041C180.902 64.0077 179.751 66.5407 178.454 68.6496C175.736 73.0703 175.499 73.52 175.753 73.774C176.116 74.1366 178.883 72.4763 179.293 71.6502C179.465 71.3039 179.924 70.3326 180.315 69.4918C182.954 63.8035 189.272 63.2434 193.158 68.3531C194.185 69.7037 194.471 69.8567 194.476 69.0585C194.494 66.5607 197.972 64.5114 202.214 64.4988C203.972 64.4935 204.088 64.2058 202.565 63.6242C200.484 62.8292 200.364 62.4316 201.737 60.8629C203.639 58.6882 202.736 58.2656 199.122 59.6388C195.635 60.9637 192.246 61.681 189.928 61.5845C188.697 61.5333 187.413 61.595 187.075 61.7216C186.737 61.8483 185.835 62.0052 185.069 62.0703C184.304 62.1354 183.585 62.2462 183.471 62.3166C183.357 62.3869 182.705 62.3681 182.022 62.2749C178.224 61.7563 178.576 58.4629 183.333 50.0344C183.968 48.9083 184.845 47.2384 185.282 46.3234C185.718 45.4085 187.491 41.7807 189.223 38.2617C190.954 34.7426 192.846 30.8269 193.427 29.5601C194.008 28.2932 194.769 26.7096 195.118 26.0409C195.467 25.3722 195.752 24.7094 195.752 24.5681C195.752 24.4267 196.047 23.707 196.407 22.9686C198.734 18.203 202.444 6.4392 201.992 5.26117C201.9 5.02214 201.977 4.86292 202.184 4.86292C202.374 4.86292 203.106 4.47899 203.811 4.00975C204.516 3.54051 205.407 2.96399 205.79 2.7286C206.362 2.37749 206.461 2.17049 206.343 1.57623C205.682 -1.72462 211.778 0.385295 219.362 6.08291C230.518 14.464 240.421 28.6264 248.697 48.0334C256.051 65.2811 257.982 94.5325 253.213 116.448C249.87 131.812 247.594 155.392 245.149 200.009C243.592 228.416 242.702 241.235 241.418 253.754C241.071 257.132 240.618 262.2 240.41 265.015C239.368 279.149 237.798 292.272 235.127 309.163C234.214 314.937 234.085 316.293 234.016 320.935C233.753 338.437 227.337 348.375 215.172 350.128C213.992 350.298 211.53 350.876 209.7 351.413C194.867 355.768 179.043 358.077 157.362 359.051C139.78 359.841 134.695 359.92 125.883 359.543ZM65.4826 333.072C62.3253 320.199 60.4784 314.087 58.2574 309.163C55.88 303.891 55.3398 303.193 55.6334 305.772C56.9832 317.622 60.2362 328.612 65.5309 339.21C68.3227 344.799 68.3215 344.648 65.4826 333.072ZM59.9481 341.602C60.8695 338.163 59.3958 330.931 55.1047 317.832C52.6571 310.361 50.8534 303.863 50.5137 301.293C50.2911 299.609 50.0597 299.466 49.1016 300.424C47.5649 301.961 48.0295 305.141 51.4904 316.773C52.4217 319.903 53.3154 323.473 53.4766 324.707C54.4234 331.956 59.1948 344.413 59.9481 341.602ZM146.728 303.488C151.398 300.395 150.785 291.379 145.71 288.504C141.141 285.916 138.687 291.556 140.627 300.186C141.497 304.057 143.903 305.359 146.728 303.488ZM132.962 302.806C136.445 301.02 137.601 295.062 135.419 290.149C133.268 285.305 128.953 287.76 128.175 294.27C128.063 295.212 127.797 297.088 127.585 298.439C126.825 303.284 128.84 304.92 132.962 302.806ZM48.2243 293.898C48.7826 289.43 47.6247 282.974 43.8789 269.669C42.8163 265.895 41.5911 261 41.1563 258.792C39.7345 251.573 37.5819 248.055 38.6215 254.65C39.1262 257.851 41.9752 272.46 42.5894 274.996C42.9303 276.404 43.5062 279.954 43.8692 282.886C44.7731 290.188 45.5661 293.081 47.1253 294.767C47.8982 295.602 48.0239 295.503 48.2243 293.898ZM107.456 269.204C126.951 264.736 133.237 240.357 117.85 228.893C107.928 221.502 101.715 220.964 86.2142 226.158C83.047 227.22 80.1958 228.252 79.8781 228.452C78.7485 229.162 77.001 231.683 77.0009 232.601C77.0008 233.073 76.5486 234.58 75.996 235.95C68.6735 254.112 87.3167 273.818 107.456 269.204ZM82.7591 255.252C75.0901 254.106 73.4372 247.577 79.3073 241.615C83.5714 237.284 88.5367 236.909 92.1818 240.642C99.3946 248.03 93.6845 256.883 82.7591 255.252ZM179.995 265.614C193.386 263.365 201.783 247.97 196.261 235.791C183.33 207.274 136.893 220.973 147.077 250.3C151.431 262.839 163.392 268.403 179.995 265.614ZM153.907 253.779C147.938 252.309 146.002 246.854 149.201 240.518C153.2 232.596 161.756 232.69 165.977 240.702C168.527 245.54 167.949 247.153 163.814 246.736C160.096 246.361 158.876 246.893 160.694 248.096C162.018 248.972 163.712 250.498 164.039 251.109C165.06 253.017 158.178 254.831 153.907 253.779ZM90.9791 147.97C91.9799 147.825 92.69 147.48 93.9894 146.51C94.9246 145.811 96.4082 144.713 97.2862 144.068C105.202 138.259 107.749 136.223 110.655 133.379C111.641 132.415 114.52 129.818 117.054 127.607C119.587 125.397 122.133 123.162 122.711 122.641C123.289 122.121 124.326 121.196 125.014 120.586C127.176 118.673 131.003 115.174 133.945 112.423C137.398 109.193 144.863 101.643 144.811 101.433C144.687 100.93 142.485 100.51 139.831 100.482C137.076 100.453 137.017 100.44 137.037 99.8707C137.065 99.0986 137.097 99.1026 129.594 98.9294C69.5739 97.5435 29.3563 95.4739 7.61965 92.6525C5.088 92.3238 4.82872 92.3318 4.82872 92.7385C4.82872 93.4502 6.9009 95.4187 8.53879 96.2629C10.5998 97.3253 10.6309 97.7908 8.66468 98.1491C6.55666 98.5331 6.62022 98.2842 7.44784 102.916C10.7679 121.495 15.649 125.701 25.9534 118.861C31.8797 114.927 69.8542 110.853 94.9157 111.462C99.2174 111.567 102.183 111.522 103.617 111.331C104.814 111.172 106.449 110.981 107.251 110.907C108.054 110.834 108.845 110.611 109.01 110.412C109.175 110.213 109.75 110.05 110.286 110.05C110.823 110.05 111.586 109.917 111.982 109.754C114.695 108.64 135.353 108.212 135.353 109.27C135.353 109.455 134.29 110.469 131.824 112.633C131.248 113.139 128.264 115.441 125.195 117.749C120.539 121.249 117.43 123.665 116.03 124.87C115.889 124.991 114.35 126.606 112.609 128.459C105.451 136.077 97.9761 141.319 91.5519 143.227C90.6535 143.494 90.2894 143.756 90.0841 144.283C89.7382 145.171 88.6217 147.158 88.2718 147.508C87.6893 148.09 87.9742 148.504 88.8374 148.329C89.2949 148.236 90.2586 148.075 90.9791 147.97ZM103.233 145.624C103.33 145.468 105.27 145.368 108.199 145.368C113.872 145.368 118.461 145.122 118.461 144.817C118.461 144.698 118.297 144.6 118.096 144.6C117.006 144.6 116.665 143.327 117.353 141.824C118.206 139.958 119.002 139.061 127.721 130.14C131.16 126.621 134.44 123.166 135.009 122.462C139.931 116.374 143.901 110.579 143.455 110.133C143.263 109.941 139.485 113.476 138.907 114.389C138.681 114.747 137.587 115.939 136.476 117.038C134.299 119.191 134.172 119.331 130.091 124.126C128.593 125.885 127.041 127.67 126.642 128.093C126.243 128.515 125.348 129.494 124.653 130.268C122.365 132.815 118.164 136.883 116.286 138.37C112.067 141.71 105.549 145.003 103.489 144.834C102.794 144.777 101.314 145.133 101.314 145.357C101.314 145.897 102.926 146.121 103.233 145.624ZM161.936 144.617C162.262 144.126 162.537 144.088 165.775 144.084C170.528 144.079 173.071 143.09 171.306 141.934C170.947 141.698 170.67 141.27 170.668 140.947C170.66 138.964 169.194 137.327 168.384 138.394C166.026 141.498 165.586 141.957 164.397 142.553C156.68 146.421 152.096 137.526 155.955 126.167C159.283 116.371 159.549 115.485 160.336 111.585C160.717 109.696 160.364 105.983 159.794 105.886C158.592 105.683 153.039 123.263 150.719 134.619C149.72 139.509 149.699 139.56 148.351 140.414C143.616 143.412 141.717 142.027 143.213 136.666C143.681 134.989 145.181 130.833 145.868 129.311C146.137 128.715 146.357 128.161 146.357 128.081C146.357 128.002 146.594 127.396 146.883 126.735C150.251 119.038 151.044 116.234 149.94 115.916C146.759 114.999 142.386 117.443 140.477 121.205C140.269 121.615 139.839 122.377 139.522 122.898C138.799 124.084 137.542 126.414 135.407 130.524C132.497 136.125 131.855 137.193 129.894 139.705C127.814 142.367 125.651 143.669 122.172 144.353C119.685 144.842 119.726 144.968 122.428 145.143C129.446 145.598 161.569 145.17 161.936 144.617ZM133.102 143.308C132.006 142.869 131.444 140.58 132.055 139.046C133.261 136.015 134.883 133.492 140.494 125.917C141.693 124.299 143.111 122.312 143.645 121.503C146.492 117.187 146.918 124.815 144.185 131.164C141.265 137.947 136.469 143.739 133.92 143.56C133.793 143.551 133.425 143.438 133.102 143.308ZM201.072 142.277C202.498 142.118 203.73 141.845 203.962 141.637C204.241 141.386 205.008 141.273 206.442 141.273C207.584 141.273 208.589 141.158 208.676 141.017C208.763 140.876 209.044 140.761 209.301 140.761C209.729 140.761 210.229 139.797 209.947 139.516C209.883 139.452 209.226 139.535 208.486 139.7C207.177 139.992 206.055 140.165 203.686 140.44C200.542 140.804 191.778 140.56 189.365 140.04C188.518 139.857 188.469 139.784 188.199 138.288C187.71 135.589 186.281 134.321 184.449 134.963C182.639 135.598 182.537 135.931 183.976 136.507C185.02 136.925 186.026 137.752 186.026 138.193C186.026 138.662 184.437 140.249 183.968 140.249C183.709 140.249 183.433 140.353 183.355 140.48C183.182 140.76 180.172 141.693 178.669 141.933C175.841 142.384 178.411 142.553 188.084 142.553C193.89 142.553 199.699 142.429 201.072 142.277ZM217.705 128.359C219.084 128.125 220.577 126.802 220.577 125.815C220.577 125.077 219.995 124.686 219.486 125.084C219.169 125.331 217.207 125.849 216.482 125.876C216.271 125.884 215.612 125.968 215.019 126.064C211.093 126.698 200.173 123.237 195.066 119.74C194.477 119.337 193.929 119.007 193.848 119.007C193.609 119.007 191.081 117.211 190.313 116.496C187.666 114.03 192.615 113.792 199.079 116.074C203.166 117.516 203.703 117.725 204.801 118.292C206.494 119.166 206.691 119.251 208.497 119.89C212.655 121.36 213 121.009 209.7 118.665C204.785 115.174 199.557 113.011 197.596 113.658C195.47 114.359 190.614 113.093 186.027 110.64C177.81 106.247 174.702 105.451 177.504 108.456C181.26 112.483 186.131 116.976 189.201 119.246C191.11 120.657 193.715 122.437 194.216 122.672C194.427 122.772 195.118 123.154 195.752 123.522C197.228 124.38 202.116 126.576 203.365 126.943C205.808 127.66 207.029 127.949 208.313 128.112C209.076 128.208 209.841 128.362 210.013 128.453C210.425 128.669 216.3 128.598 217.705 128.359ZM187.562 90.6822C188.195 90.6285 189.232 90.5321 189.865 90.4681C191.097 90.3436 194.897 89.5751 197.415 88.9412C198.26 88.7286 201.888 88.1531 205.477 87.6624C218.747 85.8481 222.674 84.3686 225.971 79.9407C227.415 78.0013 227.422 77.7527 226.088 75.169C223.421 69.9986 226.221 68.4057 232.478 71.5346C234.671 72.6314 234.653 72.6313 234.653 71.5475C234.653 70.5641 234.458 70.379 233.137 70.108C225.946 68.6327 222.624 63.1955 226.399 59.0814C227.078 58.3421 227.022 57.5294 226.056 54.0653C225.63 52.5398 225.384 52.4523 224.146 53.3867C223.661 53.7525 222.765 54.2706 222.156 54.5381C221.048 55.0244 221.048 55.0244 222.181 56.1579C225.795 59.7715 221.225 64.2443 213.411 64.7423C208.292 65.0685 207.849 65.2262 210.165 65.8994C214.078 67.037 214.663 69.472 211.404 71.0564C208.369 72.532 208.504 72.6448 212.277 71.7841C218.33 70.4038 222.984 70.6051 223.57 72.2725C225.185 76.8661 222.041 81.572 215.714 84.0314C214.201 84.6197 213.295 84.895 210.212 85.7041C208.653 86.1132 204.153 86.8012 204.005 86.6531C203.933 86.5812 203.683 86.6248 203.449 86.7501C203.214 86.8754 202.107 87.0537 200.987 87.1463C194.434 87.6883 190.978 88.1448 183.666 89.4339C179.618 90.1476 179.116 90.2781 179.116 90.6179C179.116 90.8661 184.139 91.089 185.515 90.9018C186.007 90.8348 186.929 90.736 187.562 90.6822ZM209.404 54.3075C210.411 53.6324 212.561 52.2035 214.181 51.1319C219.298 47.7475 222.781 44.1007 223.507 41.3681C223.699 40.6449 223.932 39.8657 224.023 39.6365C224.305 38.9349 223.363 36.398 223.027 36.9525C221.481 39.5017 220.317 40.9604 218.024 43.2259C214.218 46.9858 212.831 48.2885 212.369 48.5378C211.607 48.9485 207.482 53.6187 207.12 54.4804C206.405 56.1791 206.636 56.1615 209.404 54.3075ZM26.8386 73.2328C26.8386 72.9715 27.2244 72.2517 27.6958 71.6332C28.8795 70.0805 29.3979 69.0059 29.3979 68.1052C29.3979 67.1048 29.0568 67.2333 35.1862 65.9236C48.9 62.9932 54.7739 62.24 65.2724 62.0657C120.649 61.1462 136.903 60.638 154.504 59.2762C158.983 58.9297 158.974 58.9274 160.204 60.8667C162.863 65.0583 155.336 67.8134 143.67 66.919C142.544 66.8327 137.189 66.7287 131.77 66.688C121.916 66.6139 121.916 66.6139 116.566 65.5364C108.755 63.9635 106.468 64.0548 104.219 66.0291C103.164 66.9551 103.502 66.9518 100.974 66.0607C94.5825 63.808 86.676 63.67 73.9296 65.5889C69.6364 66.2352 64.6265 66.8909 62.7966 67.0461C53.2892 67.8522 44.373 69.4998 32.9352 72.5642C28.18 73.8382 26.8386 73.9853 26.8386 73.2328Z" fill="#F3D71D"/>
<path d="M125.883 359.543C96.0649 358.267 75.3334 354.301 58.788 346.709C56.3729 345.601 56.7352 346.343 54.1306 337.175C49.5942 321.208 46.1461 306.74 42.4523 288.176C40.5797 278.765 39.7028 274.831 35.3786 256.441C27.6191 223.441 24.672 208.268 22.9763 192.587C22.5469 188.615 23.32 183.185 24.5347 181.64C25.2538 180.726 25.2684 178.392 24.5562 178.206C24.1407 178.098 24.0377 177.747 23.8857 175.922C23.7596 174.408 23.5631 173.585 23.225 173.155C22.8987 172.74 22.7438 172.128 22.7438 171.255C22.7438 170.547 22.6286 169.896 22.4878 169.809C22.3341 169.714 22.2319 167.977 22.2319 165.458C22.2319 162.939 22.1297 161.202 21.976 161.107C21.8352 161.02 21.72 161.179 21.72 161.461C21.72 164.616 19.4529 158.87 18.1314 152.366C14.7399 135.675 9.17367 119.089 10.4541 129.49C10.9046 133.149 11.7348 136.746 14.1181 145.368C16.9179 155.496 18.1934 162.667 17.624 165.079C16.8103 168.526 11.5521 147.826 8.52156 129.244C7.75248 124.529 6.5977 117.446 5.95537 113.504C4.52012 104.698 3.18506 98.0842 1.36096 90.7446C-0.464888 83.3979 -0.413298 82.2062 1.85571 79.3166C6.53285 73.3602 20.2577 68.7296 21.7414 72.6074C22.7582 75.2653 19.7612 77.1064 11.6108 78.8309C4.54687 80.3255 3.89352 81.3941 7.72825 85.1812C11.5621 88.9674 33.7992 92.3514 60.1094 93.1524C106.708 94.5711 136.249 94.9446 144.566 94.2203C146.607 94.0426 149.509 93.83 151.015 93.7479C153.752 93.5988 153.752 93.5988 153.628 92.9306C153.534 92.4245 153.752 91.9519 154.527 90.9827C155.09 90.2789 155.93 89.1848 156.394 88.5514C158.071 86.2625 160.758 85.5468 161.845 87.0992C162.565 88.1268 162.232 88.4206 161.439 87.458C160.179 85.9301 158.271 86.5423 156.467 89.0529C156.044 89.6406 155.325 90.5852 154.867 91.1521C153.086 93.3594 154.703 94.923 157.835 94.0209C160.048 93.3834 161.969 91.1188 161.969 89.1482C161.969 88.6801 162.054 88.534 162.226 88.706C162.955 89.435 161.164 92.7673 159.612 93.5701C158.562 94.1128 158.863 94.2798 161.286 94.4985C162.436 94.6022 164.036 94.7567 164.843 94.8417C167.282 95.099 169.141 94.2179 168.116 93.2906C165.859 91.2477 170.107 87.1272 176.685 84.9784C177.67 84.6565 178.586 84.2923 178.72 84.1689C178.853 84.0456 179.145 83.9447 179.368 83.9447C180.206 83.9447 182.607 82.0847 185.27 79.3728C187.987 76.6042 189.239 75.5552 189.506 75.8224C189.582 75.8976 189.204 76.2833 188.667 76.6794C184.695 79.6085 184.53 80.7358 188.364 78.7431C193.937 75.8472 196.261 75.252 194.456 77.1831C192.138 79.6627 184.48 83.32 183.552 82.3911C183.357 82.1964 182.872 82.3765 181.876 83.0134C181.106 83.5063 179.335 84.3095 177.94 84.7981C173.157 86.4748 171.911 87.1741 169.14 89.7394C160.276 97.9463 207.889 94.5307 234.048 85.0832C238.436 83.4984 239.274 82.5528 238.922 79.5829C238.318 74.478 228.329 68.1146 225.578 71.0816C224.922 71.7885 224.653 71.5929 225.248 70.8415C226.27 69.5481 229.036 69.8131 232.478 71.5342C234.672 72.6317 234.653 72.6316 234.653 71.5411C234.653 70.5886 234.159 70.1404 233.07 70.1055C232.496 70.0871 230.211 69.1579 230.647 69.1198C230.766 69.1093 231.5 69.286 232.279 69.5124C237.812 71.121 239.868 68.3439 237.211 62.8495C236.934 62.276 236.138 59.561 235.442 56.8162C231.793 42.4146 224.384 26.8733 221.168 26.8726C220.408 26.8724 220.423 26.9093 219.155 22.0095C216.978 13.6006 215.372 10.5061 212.268 8.74001C205.523 4.90224 203.872 -2.0733 210.34 0.592187C224.22 6.31241 238.369 23.8124 248.697 48.0331C256.051 65.2807 257.982 94.5322 253.213 116.448C249.87 131.812 247.594 155.391 245.149 200.008C243.592 228.415 242.702 241.234 241.418 253.754C241.071 257.132 240.618 262.199 240.41 265.014C239.368 279.149 237.798 292.272 235.127 309.162C234.214 314.936 234.085 316.293 234.016 320.935C233.753 338.436 227.337 348.375 215.172 350.127C213.992 350.297 211.53 350.876 209.7 351.413C194.867 355.768 179.043 358.077 157.362 359.051C139.78 359.84 134.695 359.92 125.883 359.543ZM65.4826 333.072C62.3253 320.198 60.4784 314.087 58.2574 309.162C55.88 303.891 55.3398 303.193 55.6334 305.771C56.9832 317.622 60.2362 328.612 65.5309 339.21C68.3227 344.798 68.3215 344.648 65.4826 333.072ZM59.9481 341.601C60.8695 338.163 59.3958 330.93 55.1047 317.832C52.6571 310.36 50.8534 303.863 50.5137 301.293C50.2911 299.608 50.0597 299.466 49.1016 300.424C47.5649 301.961 48.0295 305.141 51.4904 316.773C52.4217 319.902 53.3154 323.473 53.4766 324.706C54.4234 331.956 59.1948 344.412 59.9481 341.601ZM146.728 303.487C151.398 300.394 150.785 291.379 145.71 288.504C141.141 285.916 138.687 291.555 140.627 300.185C141.497 304.056 143.903 305.359 146.728 303.487ZM132.962 302.806C136.445 301.02 137.601 295.062 135.419 290.149C133.268 285.305 128.953 287.76 128.175 294.27C128.063 295.211 127.797 297.088 127.585 298.439C126.825 303.284 128.84 304.92 132.962 302.806ZM48.2243 293.898C48.7826 289.43 47.6247 282.974 43.8789 269.669C42.8163 265.895 41.5911 261 41.1563 258.792C39.7345 251.572 37.5819 248.054 38.6215 254.649C39.1262 257.851 41.9752 272.46 42.5894 274.996C42.9303 276.403 43.5062 279.954 43.8692 282.886C44.7731 290.188 45.5661 293.081 47.1253 294.766C47.8982 295.602 48.0239 295.502 48.2243 293.898ZM107.456 269.203C126.951 264.736 133.237 240.357 117.85 228.893C107.928 221.501 101.715 220.964 86.2142 226.158C83.047 227.219 80.1958 228.251 79.8781 228.451C78.7485 229.162 77.001 231.682 77.0009 232.601C77.0008 233.072 76.5486 234.58 75.996 235.95C68.6735 254.112 87.3167 273.818 107.456 269.203ZM82.7591 255.251C75.0901 254.106 73.4372 247.576 79.3073 241.614C83.5714 237.283 88.5367 236.909 92.1818 240.642C99.3946 248.03 93.6845 256.883 82.7591 255.251ZM179.995 265.614C193.386 263.365 201.783 247.969 196.261 235.791C183.33 207.274 136.893 220.973 147.077 250.3C151.431 262.838 163.392 268.403 179.995 265.614ZM153.907 253.779C147.938 252.309 146.002 246.854 149.201 240.518C153.2 232.596 161.756 232.689 165.977 240.701C168.527 245.54 167.949 247.153 163.814 246.736C160.096 246.361 158.876 246.892 160.694 248.095C162.018 248.972 163.712 250.498 164.039 251.108C165.06 253.016 158.178 254.83 153.907 253.779ZM90.9828 147.969C91.9914 147.823 92.6884 147.484 93.9842 146.509C94.9125 145.811 96.3368 144.755 97.1493 144.163C101.617 140.907 105.46 137.983 106.816 136.808C108.576 135.284 108.992 135.003 108.992 135.34C108.992 135.472 108.33 136.118 107.52 136.776C106.711 137.434 105.849 138.137 105.604 138.338C104.923 138.897 100.127 142.469 97.3757 144.466C94.4261 146.607 94.3919 146.725 96.7712 146.556C100.138 146.317 100.839 146.144 100.665 145.596C100.49 145.043 101.537 144.503 102.449 144.677C102.863 144.757 102.796 144.822 102.136 144.979C101.673 145.089 101.336 145.308 101.388 145.466C101.515 145.854 102.846 145.986 103.188 145.644C103.365 145.466 105.165 145.368 108.235 145.368C113.876 145.368 118.461 145.121 118.461 144.817C118.461 144.698 118.297 144.6 118.096 144.6C117.686 144.6 116.926 143.923 116.926 143.558C116.926 143.427 117.156 143.551 117.438 143.832C117.801 144.196 118.291 144.344 119.128 144.344C120.031 144.344 120.275 144.427 120.171 144.701C119.796 145.677 161.275 145.584 161.936 144.607C162.26 144.129 162.56 144.088 165.775 144.084C170.528 144.079 173.071 143.09 171.306 141.933C170.947 141.698 170.67 141.27 170.668 140.947C170.667 140.633 170.384 139.772 170.04 139.033C169.696 138.294 169.518 137.69 169.644 137.69C169.973 137.69 170.167 138.07 170.805 139.964C171.356 141.599 171.404 141.655 172.493 141.935C173.583 142.214 173.593 142.226 172.846 142.349C172.424 142.419 173.115 142.478 174.382 142.48C175.999 142.484 176.418 142.429 175.789 142.296C175.297 142.193 174.972 142.093 175.067 142.074C175.162 142.056 176.137 141.916 177.232 141.764C180.689 141.283 183.163 140.37 183.259 139.539C183.331 138.91 183.439 138.841 184.359 138.841C186.145 138.841 185.702 137.124 183.825 136.772C182.893 136.597 182.305 136.074 182.566 135.652C182.819 135.241 184.231 134.573 184.572 134.701C184.745 134.766 184.654 134.891 184.363 134.991C182.756 135.545 182.643 135.974 183.965 136.503C185.019 136.924 186.026 137.75 186.026 138.193C186.026 138.661 184.437 140.249 183.968 140.249C183.709 140.249 183.433 140.353 183.355 140.48C183.182 140.76 180.172 141.693 178.669 141.933C175.841 142.383 178.411 142.552 188.084 142.552C198.776 142.552 203.23 142.296 203.962 141.637C204.241 141.385 205.008 141.273 206.442 141.273C207.584 141.273 208.589 141.158 208.676 141.017C208.763 140.876 209.044 140.761 209.301 140.761C209.729 140.761 210.229 139.797 209.947 139.515C209.883 139.451 209.226 139.526 208.486 139.681C205.792 140.245 205.477 140.286 205.477 140.069C205.477 139.948 206.299 139.696 207.304 139.51C216.237 137.858 223.09 132.857 225.962 125.892C226.36 124.926 227.518 122.607 228.535 120.739C234.752 109.318 238.383 99.4489 237.455 96.4931C237.343 96.1369 237.184 95.4335 237.101 94.9301C236.814 93.1891 236.671 93.1318 233.629 93.5365C220.031 95.3456 193.606 98.0504 177.453 99.2866C166.109 100.155 150.676 101.086 147.565 101.09C146.342 101.092 146.342 101.092 141.816 105.431C136.153 110.86 135.678 110.883 141.087 105.466C143.313 103.237 145.035 101.355 144.914 101.284C144.089 100.801 141.019 100.321 139.151 100.382C137.075 100.45 137.017 100.436 137.037 99.8703C137.065 99.0982 137.097 99.1023 129.594 98.9291C69.5739 97.5432 29.3563 95.4735 7.61965 92.6521C5.088 92.3235 4.82872 92.3315 4.82872 92.7382C4.82872 93.4499 6.9009 95.4184 8.53879 96.2626C10.5998 97.325 10.6309 97.7905 8.66468 98.1487C6.55666 98.5328 6.62022 98.2838 7.44784 102.915C10.7679 121.495 15.649 125.7 25.9534 118.861C31.8797 114.927 69.8542 110.853 94.9157 111.462C99.2174 111.566 102.183 111.522 103.617 111.331C104.814 111.172 106.449 110.981 107.251 110.907C108.054 110.833 108.845 110.61 109.01 110.411C109.175 110.212 109.75 110.049 110.286 110.049C110.823 110.049 111.586 109.916 111.982 109.753C114.695 108.639 135.353 108.211 135.353 109.269C135.353 109.455 134.29 110.468 131.824 112.633C131.248 113.139 128.264 115.441 125.195 117.749C120.539 121.249 117.43 123.665 116.03 124.87C115.889 124.991 114.35 126.606 112.609 128.458C105.451 136.076 97.9761 141.319 91.5519 143.227C90.6535 143.494 90.2894 143.756 90.0841 144.283C89.7382 145.171 88.6217 147.157 88.2718 147.507C87.6893 148.09 87.9742 148.503 88.8374 148.328C89.2949 148.236 90.2603 148.074 90.9828 147.969ZM26.8386 73.2325C26.8386 72.9712 27.2244 72.2514 27.6958 71.6329C28.8795 70.0802 29.3979 69.0056 29.3979 68.1049C29.3979 67.1044 29.0568 67.233 35.1862 65.9233C48.9 62.9929 54.7739 62.2397 65.2724 62.0654C120.649 61.1458 136.903 60.6377 154.504 59.2759C158.983 58.9293 158.974 58.9271 160.204 60.8664C162.863 65.058 155.336 67.8131 143.67 66.9187C142.544 66.8323 137.189 66.7284 131.77 66.6876C121.916 66.6136 121.916 66.6136 116.566 65.536C108.755 63.9631 106.468 64.0544 104.219 66.0288C103.164 66.9548 103.502 66.9515 100.974 66.0604C94.5825 63.8077 86.676 63.6697 73.9296 65.5885C69.6364 66.2348 64.6265 66.8906 62.7966 67.0457C53.2892 67.8518 44.373 69.4995 32.9352 72.5639C28.18 73.8379 26.8386 73.985 26.8386 73.2325Z" fill="#D5AD2D"/>
<path d="M125.883 359.542C96.0649 358.266 75.3334 354.301 58.788 346.709C56.3729 345.601 56.7352 346.342 54.1306 337.174C49.5942 321.207 46.1461 306.74 42.4523 288.176C40.5797 278.765 39.7028 274.831 35.3786 256.44C27.6191 223.441 24.672 208.268 22.9763 192.586C22.5469 188.615 23.32 183.184 24.5347 181.64C25.2538 180.726 25.2684 178.392 24.5562 178.206C24.1407 178.097 24.0377 177.746 23.8857 175.922C23.7596 174.407 23.5631 173.585 23.225 173.155C22.8987 172.74 22.7438 172.128 22.7438 171.255C22.7438 170.546 22.6286 169.895 22.4878 169.808C22.3341 169.713 22.2319 167.977 22.2319 165.458C22.2319 162.939 22.1297 161.202 21.976 161.107C21.8352 161.02 21.72 161.179 21.72 161.461C21.72 164.615 19.4529 158.87 18.1314 152.366C14.7399 135.675 9.17367 119.089 10.4541 129.489C10.9046 133.148 11.7348 136.746 14.1181 145.367C16.9179 155.495 18.1934 162.667 17.624 165.079C16.8103 168.526 11.5521 147.825 8.52156 129.244C7.75248 124.528 6.5977 117.445 5.95537 113.504C4.52012 104.697 3.18506 98.0838 1.36096 90.7441C-0.464888 83.3974 -0.413298 82.2058 1.85571 79.3162C6.53285 73.3597 20.2577 68.7291 21.7414 72.607C22.7582 75.2648 19.7612 77.106 11.6108 78.8304C4.54687 80.325 3.89352 81.3936 7.72825 85.1807C11.5621 88.967 33.7992 92.351 60.1094 93.152C106.668 94.5694 136.233 94.9438 144.566 94.2214C152.797 93.5078 153.292 93.5126 154.669 94.3191C155.895 95.0379 155.895 95.038 157.461 94.6492C159.027 94.2601 159.402 94.2699 164.861 94.8424C166.05 94.967 166.622 94.8862 167.727 94.4375C168.953 93.9398 169.217 93.9132 170.081 94.2005C171.875 94.7968 188.964 94.6248 194.984 93.9498C211.723 92.0728 231.538 87.5022 238.128 83.9981C238.903 83.5856 244 82.3504 247.321 81.7697C250.511 81.2121 252.573 80.7205 254.104 80.1524C255.511 79.6301 255.511 79.6301 255.677 81.8511C256.412 91.7254 255.313 107.66 253.334 115.807C252.816 117.944 252.205 121.354 251.295 127.196C250.999 129.097 250.631 130.903 250.477 131.21C250.322 131.518 250.266 132.036 250.351 132.361C250.436 132.687 250.223 135.257 249.876 138.073C248.055 152.887 246.908 167.911 245.149 200.008C243.592 228.415 242.702 241.234 241.418 253.753C241.071 257.131 240.618 262.199 240.41 265.014C239.368 279.149 237.798 292.272 235.127 309.162C234.214 314.936 234.085 316.293 234.016 320.935C233.753 338.436 227.337 348.374 215.172 350.127C213.992 350.297 211.53 350.875 209.7 351.413C194.867 355.767 179.043 358.076 157.362 359.05C139.78 359.84 134.695 359.919 125.883 359.542ZM65.4826 333.072C62.3253 320.198 60.4784 314.086 58.2574 309.162C55.88 303.891 55.3398 303.193 55.6334 305.771C56.9832 317.621 60.2362 328.612 65.5309 339.21C68.3227 344.798 68.3215 344.647 65.4826 333.072ZM59.9481 341.601C60.8695 338.162 59.3958 330.93 55.1047 317.831C52.6571 310.36 50.8534 303.862 50.5137 301.292C50.2911 299.608 50.0597 299.466 49.1016 300.424C47.5649 301.96 48.0295 305.14 51.4904 316.772C52.4217 319.902 53.3154 323.472 53.4766 324.706C54.4234 331.956 59.1948 344.412 59.9481 341.601ZM146.728 303.487C151.398 300.394 150.785 291.378 145.71 288.503C141.141 285.915 138.687 291.555 140.627 300.185C141.497 304.056 143.903 305.358 146.728 303.487ZM132.962 302.805C136.445 301.02 137.601 295.062 135.419 290.148C133.268 285.304 128.953 287.759 128.175 294.269C128.063 295.211 127.797 297.087 127.585 298.439C126.825 303.283 128.84 304.919 132.962 302.805ZM48.2243 293.897C48.7826 289.429 47.6247 282.974 43.8789 269.668C42.8163 265.894 41.5911 260.999 41.1563 258.791C39.7345 251.572 37.5819 248.054 38.6215 254.649C39.1262 257.85 41.9752 272.459 42.5894 274.995C42.9303 276.403 43.5062 279.953 43.8692 282.886C44.7731 290.187 45.5661 293.08 47.1253 294.766C47.8982 295.601 48.0239 295.502 48.2243 293.897ZM125.182 285.616C127.789 284.21 130.45 283.568 133.666 283.57C136.14 283.573 138.006 283.827 145.078 285.133C153.709 286.726 158.782 285.526 158.183 282.034C156.827 274.123 152.804 272.387 140.452 274.381C133.246 275.544 128.028 275.599 125.096 274.542C122.78 273.708 122.921 273.714 121.202 274.357C114.985 276.683 115.258 284.095 121.635 286.117C122.494 286.389 123.216 286.618 123.24 286.626C123.265 286.634 124.139 286.179 125.182 285.616ZM107.456 269.203C126.951 264.736 133.237 240.357 117.85 228.893C107.928 221.501 101.715 220.964 86.2142 226.158C83.047 227.219 80.1958 228.251 79.8781 228.451C78.7485 229.162 77.001 231.682 77.0009 232.6C77.0008 233.072 76.5486 234.579 75.996 235.95C68.6735 254.112 87.3167 273.818 107.456 269.203ZM82.7591 255.251C75.0901 254.106 73.4372 247.576 79.3073 241.614C83.5714 237.283 88.5367 236.908 92.1818 240.642C99.3946 248.029 93.6845 256.883 82.7591 255.251ZM179.995 265.613C193.386 263.364 201.783 247.969 196.261 235.79C183.33 207.273 136.893 220.972 147.077 250.299C151.431 262.838 163.392 268.402 179.995 265.613ZM153.907 253.778C147.938 252.309 146.002 246.854 149.201 240.517C153.2 232.596 161.756 232.689 165.977 240.701C168.527 245.54 167.949 247.152 163.814 246.735C160.096 246.36 158.876 246.892 160.694 248.095C162.018 248.972 163.712 250.497 164.039 251.108C165.06 253.016 158.178 254.83 153.907 253.778ZM89.5263 148.19C89.7811 148.054 90.7077 147.914 91.5855 147.879C92.8711 147.829 93.2156 147.724 93.3571 147.342C93.5106 146.927 93.8845 146.856 96.3356 146.782C100.021 146.67 101.481 146.465 102.722 145.884C103.83 145.365 114.483 144.948 121.532 145.148C134.069 145.504 161.586 145.145 161.934 144.62C162.263 144.124 162.528 144.087 165.775 144.084C169.424 144.08 170.912 143.788 171.52 142.957C171.83 142.533 172.704 142.506 185.145 142.536C198.694 142.569 203.163 142.355 203.962 141.636C204.241 141.385 205.008 141.272 206.442 141.272C207.584 141.272 208.589 141.157 208.676 141.016C208.777 140.853 212.557 140.76 219.175 140.76C229.144 140.76 229.526 140.743 229.782 140.265C230.011 139.836 230.421 139.75 232.798 139.631C238.455 139.348 239.894 139.189 240.327 138.799C240.66 138.5 241.313 138.431 243.257 138.487C245.759 138.56 245.759 138.56 246.069 137.421C246.239 136.794 246.61 135.648 246.892 134.874C247.302 133.75 247.441 132.512 247.583 128.732C247.777 123.56 247.958 121.91 248.645 119.006C249.196 116.678 249.21 101.147 248.666 95.0771C248.327 91.2892 241.338 89.8665 236.164 92.5321C235.31 92.972 214.588 95.4284 198.567 96.9888C182.368 98.5665 161.934 100.065 150.964 100.48C148.045 100.591 146.249 100.769 145.807 100.992C145.226 101.285 144.93 101.272 143.759 100.9C142.841 100.608 141.506 100.463 139.703 100.459C137.075 100.452 137.017 100.439 137.037 99.8699C137.065 99.0978 137.097 99.1019 129.594 98.9286C69.5739 97.5427 29.3563 95.4731 7.61965 92.6517C5.088 92.3231 4.82872 92.3311 4.82872 92.7377C4.82872 93.4494 6.9009 95.4179 8.53879 96.2622C10.5998 97.3246 10.6309 97.79 8.66468 98.1483C6.55666 98.5324 6.62022 98.2834 7.44784 102.915C10.7679 121.494 15.649 125.7 25.9534 118.86C31.8797 114.927 69.8542 110.852 94.9157 111.461C99.2174 111.566 102.183 111.521 103.617 111.33C104.814 111.171 106.449 110.98 107.251 110.907C108.054 110.833 108.845 110.61 109.01 110.411C109.175 110.212 109.75 110.049 110.286 110.049C110.823 110.049 111.586 109.916 111.982 109.753C114.695 108.639 135.353 108.211 135.353 109.269C135.353 109.455 134.29 110.468 131.824 112.632C131.248 113.138 128.264 115.44 125.195 117.748C120.539 121.248 117.43 123.664 116.03 124.87C115.889 124.991 114.35 126.605 112.609 128.458C105.451 136.076 97.9761 141.319 91.5519 143.226C90.6535 143.493 90.2894 143.755 90.0841 144.282C89.7382 145.17 88.6217 147.157 88.2718 147.507C87.528 148.251 88.4625 148.76 89.5263 148.19ZM26.8386 73.232C26.8386 72.9707 27.2244 72.2509 27.6958 71.6324C28.8795 70.0798 29.3979 69.0051 29.3979 68.1044C29.3979 67.104 29.0568 67.2326 35.1862 65.9228C48.9 62.9924 54.7739 62.2392 65.2724 62.0649C120.649 61.1454 136.903 60.6373 154.504 59.2754C158.983 58.9289 158.974 58.9266 160.204 60.866C162.863 65.0575 155.336 67.8126 143.67 66.9182C142.544 66.8319 137.189 66.7279 131.77 66.6872C121.916 66.6131 121.916 66.6131 116.566 65.5356C108.755 63.9627 106.468 64.054 104.219 66.0283C103.164 66.9543 103.502 66.951 100.974 66.06C94.5825 63.8072 86.676 63.6692 73.9296 65.5881C69.6364 66.2344 64.6265 66.8901 62.7966 67.0453C53.2892 67.8514 44.373 69.499 32.9352 72.5634C28.18 73.8374 26.8386 73.9845 26.8386 73.232Z" fill="#28A8DD"/>
<path d="M125.883 359.542C96.0649 358.266 75.3334 354.301 58.788 346.709C56.3729 345.601 56.7352 346.342 54.1306 337.174C49.5942 321.207 46.1461 306.74 42.4523 288.176C40.5797 278.765 39.7028 274.831 35.3786 256.44C27.6191 223.441 24.672 208.268 22.9763 192.586C22.5017 188.197 23.3839 182.821 24.8136 181.391C25.7471 180.458 25.87 178.692 25.0545 177.932C24.6814 177.584 24.4883 176.911 24.3135 175.348C24.1777 174.135 23.9129 173.05 23.6915 172.801C23.2007 172.249 23.0098 170.628 22.7913 165.158C22.6948 162.741 22.5232 160.672 22.4099 160.559C22.1631 160.313 21.7294 160.933 21.724 161.54C21.6966 164.563 19.4376 158.794 18.1314 152.366C14.7399 135.675 9.17367 119.089 10.4541 129.489C10.9046 133.148 11.7348 136.746 14.1181 145.367C16.9179 155.495 18.1934 162.667 17.624 165.079C16.8103 168.526 11.5521 147.825 8.52156 129.244C7.75248 124.528 6.5977 117.445 5.95537 113.504C4.52012 104.697 3.18506 98.0838 1.36096 90.7441C-0.464888 83.3974 -0.413298 82.2058 1.85571 79.3162C6.53285 73.3597 20.2577 68.7291 21.7414 72.607C22.7582 75.2648 19.7612 77.106 11.6108 78.8304C4.54687 80.325 3.89352 81.3936 7.72825 85.1807C11.5621 88.967 33.7992 92.351 60.1094 93.152C106.668 94.5694 136.233 94.9438 144.566 94.2214C152.797 93.5078 153.292 93.5126 154.669 94.3191C155.895 95.0379 155.895 95.038 157.461 94.6492C159.027 94.2601 159.402 94.2699 164.861 94.8424C166.05 94.967 166.622 94.8862 167.727 94.4375C168.953 93.9398 169.217 93.9132 170.081 94.2005C171.875 94.7968 188.964 94.6248 194.984 93.9498C211.723 92.0728 231.538 87.5022 238.128 83.9981C238.903 83.5856 244 82.3504 247.321 81.7697C250.511 81.2121 252.573 80.7205 254.104 80.1524C255.511 79.6301 255.511 79.6301 255.677 81.8511C256.412 91.7254 255.313 107.66 253.334 115.807C252.816 117.944 252.205 121.354 251.295 127.196C250.999 129.097 250.631 130.903 250.477 131.21C250.322 131.518 250.266 132.036 250.351 132.361C250.436 132.687 250.223 135.257 249.876 138.073C248.055 152.887 246.908 167.911 245.149 200.008C243.592 228.415 242.702 241.234 241.418 253.753C241.071 257.131 240.618 262.199 240.41 265.014C239.368 279.149 237.798 292.272 235.127 309.162C234.214 314.936 234.085 316.293 234.016 320.935C233.753 338.436 227.337 348.374 215.172 350.127C213.992 350.297 211.53 350.875 209.7 351.413C194.867 355.767 179.043 358.076 157.362 359.05C139.78 359.84 134.695 359.919 125.883 359.542ZM65.4826 333.072C62.3253 320.198 60.4784 314.086 58.2574 309.162C55.88 303.891 55.3398 303.193 55.6334 305.771C56.9832 317.621 60.2362 328.612 65.5309 339.21C68.3227 344.798 68.3215 344.647 65.4826 333.072ZM59.9481 341.601C60.8695 338.162 59.3958 330.93 55.1047 317.831C52.6571 310.36 50.8534 303.862 50.5137 301.292C50.2911 299.608 50.0597 299.466 49.1016 300.424C47.5649 301.96 48.0295 305.14 51.4904 316.772C52.4217 319.902 53.3154 323.472 53.4766 324.706C54.4234 331.956 59.1948 344.412 59.9481 341.601ZM146.728 303.487C151.398 300.394 150.785 291.378 145.71 288.503C141.141 285.915 138.687 291.555 140.627 300.185C141.497 304.056 143.903 305.358 146.728 303.487ZM132.962 302.805C136.445 301.02 137.601 295.062 135.419 290.148C133.268 285.304 128.953 287.759 128.175 294.269C128.063 295.211 127.797 297.087 127.585 298.439C126.825 303.283 128.84 304.919 132.962 302.805ZM48.2243 293.897C48.7826 289.429 47.6247 282.974 43.8789 269.668C42.8163 265.894 41.5911 260.999 41.1563 258.791C39.7345 251.572 37.5819 248.054 38.6215 254.649C39.1262 257.85 41.9752 272.459 42.5894 274.995C42.9303 276.403 43.5062 279.953 43.8692 282.886C44.7731 290.187 45.5661 293.08 47.1253 294.766C47.8982 295.601 48.0239 295.502 48.2243 293.897ZM125.182 285.616C127.789 284.21 130.45 283.568 133.666 283.57C136.14 283.573 138.006 283.827 145.078 285.133C153.709 286.726 158.782 285.526 158.183 282.034C156.827 274.123 152.804 272.387 140.452 274.381C133.246 275.544 128.028 275.599 125.096 274.542C122.78 273.708 122.921 273.714 121.202 274.357C114.985 276.683 115.258 284.095 121.635 286.117C122.494 286.389 123.216 286.618 123.24 286.626C123.265 286.634 124.139 286.179 125.182 285.616ZM107.456 269.203C126.951 264.736 133.237 240.357 117.85 228.893C107.677 221.313 101.192 220.883 84.6234 226.691C81.1482 227.909 79.4951 228.377 79.3128 228.195C79.1305 228.012 79.0481 228.068 79.0481 228.373C79.0481 228.617 78.8851 228.879 78.6858 228.955C77.9299 229.245 77.0705 230.947 77.02 232.254C76.9893 233.049 76.5961 234.461 75.981 235.987C68.6734 254.112 87.3408 273.812 107.456 269.203ZM82.7591 255.251C75.0901 254.106 73.4372 247.576 79.3073 241.614C83.5714 237.283 88.5367 236.908 92.1818 240.642C99.3946 248.029 93.6845 256.883 82.7591 255.251ZM179.995 265.613C193.386 263.364 201.783 247.969 196.261 235.79C183.33 207.273 136.893 220.972 147.077 250.299C151.431 262.838 163.392 268.402 179.995 265.613ZM153.907 253.778C147.938 252.309 146.002 246.854 149.201 240.517C153.2 232.596 161.756 232.689 165.977 240.701C168.527 245.54 167.949 247.152 163.814 246.735C160.096 246.36 158.876 246.892 160.694 248.095C162.018 248.972 163.712 250.497 164.039 251.108C165.06 253.016 158.178 254.83 153.907 253.778ZM139.015 166.208C139.203 165.548 139.114 165.225 138.456 164.187C133.426 156.257 139.038 145.236 146.983 147.442C150.232 148.344 150.243 150.139 147.042 157.135C144.019 163.743 144.251 164.946 148.548 164.946C151.59 164.946 151.449 165.156 151.734 160.183C152.465 147.402 156.319 143.089 164.528 145.866C166.659 146.587 166.695 146.629 167.339 149.169C169.806 158.911 173.171 161.676 182.06 161.261C188.365 160.968 189.767 159.632 192.181 151.617C194.237 144.795 195.661 143.123 199.913 142.541C200.932 142.402 202.284 142.18 202.918 142.047C205.604 141.486 208.265 141.881 208.963 142.946C209.556 143.853 209.905 143.446 209.767 142.007C209.647 140.76 209.647 140.76 219.582 140.76C229.148 140.76 229.526 140.742 229.782 140.265C230.011 139.836 230.421 139.75 232.798 139.631C238.455 139.348 239.894 139.189 240.327 138.799C240.66 138.5 241.313 138.431 243.257 138.487C245.759 138.56 245.759 138.56 246.069 137.421C246.239 136.794 246.61 135.648 246.892 134.874C247.302 133.75 247.441 132.512 247.583 128.732C247.777 123.56 247.958 121.91 248.645 119.006C249.196 116.678 249.21 101.147 248.666 95.0771C248.327 91.2892 241.338 89.8665 236.164 92.5321C235.31 92.972 214.588 95.4284 198.567 96.9888C182.368 98.5665 161.934 100.065 150.964 100.48C148.045 100.591 146.249 100.769 145.807 100.992C145.226 101.285 144.93 101.272 143.759 100.9C142.841 100.608 141.506 100.463 139.703 100.459C137.075 100.452 137.017 100.439 137.037 99.8699C137.065 99.0978 137.097 99.1019 129.594 98.9286C69.5739 97.5427 29.3563 95.4731 7.61965 92.6517C5.088 92.3231 4.82872 92.3311 4.82872 92.7377C4.82872 93.4494 6.9009 95.4179 8.53879 96.2622C10.5998 97.3246 10.6309 97.79 8.66468 98.1483C6.55666 98.5324 6.62022 98.2834 7.44784 102.915C10.7679 121.494 15.649 125.7 25.9534 118.86C30.8568 115.606 50.6567 112.941 79.0799 111.712C101.739 110.732 96.6546 112.171 66.8915 115.163C52.2304 116.637 45.3387 117.589 38.2275 119.122C36.6791 119.456 34.6036 119.788 33.6152 119.86C25.0057 120.486 16.7854 130.854 21.1066 135.637C22.3838 137.051 24.2314 137.688 27.7672 137.934C29.3336 138.043 30.7237 138.2 30.8564 138.282C30.989 138.363 32.6442 138.714 34.5346 139.06C38.5608 139.796 39.3816 140.075 39.5617 140.764C39.683 141.227 39.915 141.272 42.193 141.272C44.4608 141.272 44.7247 141.323 45.0544 141.819C45.3578 142.276 45.7404 142.387 47.3792 142.492C48.8599 142.587 49.4471 142.735 49.7742 143.097C50.0522 143.404 50.5548 143.576 51.1764 143.576C51.7094 143.576 52.2166 143.691 52.3036 143.832C52.3906 143.972 53.0521 144.088 53.7738 144.088C54.7823 144.088 55.2274 144.221 55.6982 144.663C56.2838 145.214 56.5325 145.243 61.3866 145.322C66.0121 145.398 66.5022 145.449 66.9087 145.898C67.3723 146.41 69.8347 146.636 69.8347 146.166C69.8347 145.269 74.2526 144.523 79.9439 144.459C84.0248 144.414 85.5544 144.294 87.4889 143.869C90.7031 143.162 90.8095 143.326 89.041 146.263C88.6171 146.967 88.1596 147.792 88.0243 148.098C87.8889 148.403 87.4638 148.806 87.0795 148.993C86.6952 149.181 85.9242 150.005 85.3661 150.825C84.5936 151.959 84.0391 152.463 83.0434 152.934C78.7485 154.965 75.2625 158.42 77.5071 158.42C78.0831 158.42 78.8294 158.6 79.1656 158.82C79.7203 159.184 79.8487 159.184 80.5515 158.82C80.9775 158.6 81.4882 158.42 81.6863 158.42C81.8844 158.42 82.4886 157.7 83.029 156.82C84.7309 154.049 91.8104 147.477 92.7183 147.825C92.9839 147.927 93.191 147.791 93.3268 147.423C93.5181 146.906 93.7314 146.861 96.3356 146.779C99.6368 146.676 101.845 146.427 102.23 146.114C102.397 145.978 103.187 146.152 104.227 146.554C107.186 147.698 107.403 148.974 104.866 150.32C100.379 152.702 99.6196 157.854 103.162 161.878C106.214 165.346 111.342 164.65 108.44 161.162C102.906 154.513 106.783 148.953 118.462 146.787C125.907 145.407 136.831 147.769 134.821 150.325C133.076 152.543 133.077 155.636 134.825 162.764C135.256 164.52 135.608 166.224 135.608 166.551C135.608 167.607 138.704 167.295 139.015 166.208ZM176.527 157.043C169.109 154.392 169.195 146.205 176.638 146.42C178.715 146.48 179.167 146.409 180.524 145.806C185.818 143.453 190.795 147.323 189.257 152.596C188.352 155.699 186.544 156.867 182.188 157.163C178.17 157.436 177.594 157.424 176.527 157.043ZM26.8386 73.232C26.8386 72.9707 27.2244 72.2509 27.6958 71.6324C28.8795 70.0798 29.3979 69.0051 29.3979 68.1044C29.3979 67.104 29.0568 67.2326 35.1862 65.9228C48.9 62.9924 54.7739 62.2392 65.2724 62.0649C120.649 61.1454 136.903 60.6373 154.504 59.2754C158.983 58.9289 158.974 58.9266 160.204 60.866C162.863 65.0575 155.336 67.8126 143.67 66.9182C142.544 66.8319 137.189 66.7279 131.77 66.6872C121.916 66.6131 121.916 66.6131 116.566 65.5356C108.755 63.9627 106.468 64.054 104.219 66.0283C103.164 66.9543 103.502 66.951 100.974 66.06C94.5825 63.8072 86.676 63.6692 73.9296 65.5881C69.6364 66.2344 64.6265 66.8901 62.7966 67.0453C53.2892 67.8514 44.373 69.499 32.9352 72.5634C28.18 73.8374 26.8386 73.9845 26.8386 73.232Z" fill="#3698A6"/>
<path d="M130.618 359.675C96.9412 357.872 80.909 355.223 64.2045 348.703C56.939 345.867 56.92 345.855 56.1778 343.419C51.6786 328.654 46.9858 309.529 43.0639 289.973C40.7828 278.599 39.9953 275.057 35.436 255.659C23.8702 206.451 20.9609 186.24 24.8121 181.854C25.7572 180.778 25.8853 178.707 25.0547 177.933C24.6816 177.586 24.4886 176.913 24.3137 175.35C24.178 174.136 23.9131 173.052 23.6917 172.803C23.2 172.25 23.0096 170.627 22.7916 165.129C22.6546 161.677 22.5343 160.654 22.2443 160.475C21.7223 160.154 21.4657 160.385 21.4562 161.187C21.4283 163.547 19.3454 157.325 18.131 151.255C14.406 132.635 7.81954 115.916 10.6087 132.16C11.0676 134.833 12.4107 140.181 14.3915 147.222C16.0861 153.246 17.0348 157.834 17.3426 161.492C18.3232 173.149 12.063 149.724 8.7931 129.501C4.31222 101.788 3.04355 95.2367 0.566124 87.0168C-0.503406 83.4681 0.00743365 81.6128 2.88071 78.6103C8.92636 72.2927 22.6174 68.7751 21.6129 73.7974C21.1982 75.8708 18.4533 77.1766 11.4979 78.6093C4.30315 80.0914 3.57443 81.3295 7.57207 85.2798C10.7219 88.3924 27.9205 91.644 47.825 92.8902C51.5266 93.1219 55.8515 93.2689 78.5365 93.9341C109.075 94.8297 137.299 95.0603 144.438 94.4728C152.741 93.7895 153.698 93.7865 154.86 94.44C155.795 94.965 156.03 94.9977 157.082 94.7483C158.205 94.482 159.069 94.5209 165.075 95.108C166.282 95.226 166.748 95.1401 167.925 94.5832C169.131 94.0129 169.438 93.9593 170.066 94.2095C171.506 94.7837 189.203 94.6006 194.984 93.9517C211.734 92.0718 231.539 87.5033 238.128 83.9995C238.904 83.587 244 82.3518 247.322 81.7711C250.555 81.2058 252.598 80.7221 253.924 80.2077C256.169 79.3367 256.701 91.2183 254.989 104.019C254.054 111.015 253.845 112.371 253.355 114.657C253.069 115.994 252.673 117.837 252.477 118.752C249.64 131.959 247.197 158.215 244.893 200.265C243.22 230.795 242.415 242.102 240.803 257.721C240.534 260.326 240.244 263.55 240.158 264.887C239.402 276.678 237.707 290.881 234.775 309.997C233.865 315.928 233.675 317.741 233.795 319.338C235.036 335.763 227.455 347.995 214.819 349.957C213.552 350.153 210.488 350.903 208.01 351.622C195.492 355.255 181.29 357.423 162.609 358.554C150.517 359.286 134.097 359.861 130.618 359.675ZM129.509 356.058C130.448 355.119 127.674 354.672 115.646 353.824C112.761 353.621 108.96 353.283 107.201 353.073C97.5876 351.928 89.9706 351.863 92.7892 352.949C97.8981 354.919 128.092 357.475 129.509 356.058ZM68.0434 342.85C68.0434 342.189 63.4742 323.887 62.3169 319.912C60.1816 312.579 56.3904 303.533 55.4526 303.533C54.5758 303.533 56.7513 315.982 58.8516 322.983C61.6206 332.214 68.0434 346.096 68.0434 342.85ZM60.1433 341.773C61.0313 337.672 59.7446 331.232 55.3661 317.865C52.9593 310.517 51.127 303.953 50.7577 301.357C50.5215 299.697 50.2733 299.383 49.4815 299.744C47.1957 300.785 47.5487 304.44 51.0566 316.055C51.9676 319.072 52.8894 322.7 53.105 324.117C54.487 333.204 59.3549 345.415 60.1433 341.773ZM146.643 303.825C150.721 301.239 151.435 295.319 148.219 290.747C142.886 283.166 137.398 290.63 140.585 301.13C141.55 304.31 144.094 305.442 146.643 303.825ZM132.963 303.061C137.396 300.781 138.14 292.077 134.251 287.985C131.927 285.54 128.516 289.075 127.902 294.565C127.772 295.724 127.556 297.151 127.421 297.735C126.216 302.953 128.641 305.283 132.963 303.061ZM48.4431 293.915C49.0381 290.065 47.791 282.846 44.4825 270.987C43.2128 266.436 41.7753 260.722 41.2881 258.289C40.1037 252.376 38.0997 248.364 38.0997 251.906C38.0997 253.693 40.9399 269.152 42.3187 274.869C42.6751 276.347 43.2597 279.917 43.6177 282.802C44.5678 290.46 45.1712 292.751 46.7121 294.551C47.8693 295.903 48.1519 295.799 48.4431 293.915ZM125.212 285.618C129.774 283.115 133.601 282.966 143.67 284.9C157.008 287.462 162.347 283.596 155.693 276.195C152.968 273.165 150.119 272.837 140.215 274.414C133.607 275.466 127.912 275.554 125.5 274.643C122.564 273.533 120.719 273.919 118.454 276.115C114.581 279.871 117.171 285.523 123.272 286.628C123.314 286.635 124.187 286.181 125.212 285.618ZM107.77 269.39C110.585 268.676 111.301 268.344 115.729 265.697C130.405 256.924 130.43 235.659 115.774 227.205C114.789 226.636 113.349 225.798 112.575 225.342C105.544 221.201 98.7896 221.425 85.1907 226.253C82.7274 227.127 80.3895 227.836 79.9954 227.827C79.4639 227.815 79.2177 227.972 79.042 228.434C78.9117 228.777 78.7066 229.057 78.5862 229.057C78.0103 229.057 76.745 231.346 76.745 232.388C76.745 233.041 76.3512 234.436 75.7348 235.965C68.3628 254.249 87.7432 274.471 107.77 269.39ZM82.1047 254.904C75.3037 253.752 74.0144 247.606 79.3819 241.925C83.5328 237.532 88.1836 237.109 91.8529 240.791C99.3359 248.302 93.4482 256.826 82.1047 254.904ZM180.4 265.783C196.657 262.55 203.251 244.676 193.378 230.606C178.374 209.224 141.44 221.659 145.859 246.605C148.5 261.518 162.571 269.33 180.4 265.783ZM154.14 253.619C147.042 252.212 145.742 243.515 151.728 237.489C157.007 232.174 164.51 235.239 166.955 243.708C167.716 246.346 167.243 246.714 163.335 246.522C158.827 246.301 158.468 246.712 161.309 248.843C163.561 250.533 164.235 251.392 163.757 251.968C162.585 253.38 157.412 254.268 154.14 253.619ZM154.419 191.83C156.249 191.755 158.15 191.626 158.642 191.543C159.135 191.461 159.884 191.355 160.306 191.306C160.728 191.258 161.592 191.153 162.225 191.072C162.859 190.991 163.78 190.874 164.273 190.812C164.765 190.75 165.572 190.634 166.064 190.554C166.557 190.474 167.305 190.359 167.728 190.299C168.506 190.187 171.066 189.743 175.022 189.033C191.989 185.991 203.822 180.523 216.514 169.862C216.884 169.552 217.675 168.895 218.272 168.402C218.869 167.91 219.845 167.046 220.439 166.483C221.034 165.92 222.299 164.768 223.249 163.923C224.199 163.079 225.58 161.812 226.318 161.108C228.96 158.589 231.79 156.033 234.172 154.017C234.789 153.495 235.639 152.774 236.061 152.413C236.483 152.053 237.371 151.328 238.034 150.803C238.879 150.133 239.29 149.595 239.408 149.003C239.56 148.244 239.657 148.167 240.366 148.236C240.985 148.295 241.222 148.179 241.468 147.693C241.641 147.352 241.963 146.972 242.184 146.848C242.47 146.688 242.587 146.236 242.587 145.289C242.587 144.15 242.672 143.917 243.163 143.702C243.48 143.563 243.773 143.206 243.816 142.908C243.858 142.611 244.166 142.243 244.499 142.091C244.998 141.864 245.138 141.551 245.286 140.329C245.385 139.511 245.549 138.727 245.652 138.586C245.755 138.446 245.96 137.87 246.109 137.307C246.257 136.744 246.609 135.65 246.892 134.875C247.302 133.751 247.441 132.515 247.583 128.733C247.778 123.561 247.958 121.912 248.645 119.008C249.196 116.679 249.21 101.148 248.666 95.0785C248.327 91.2906 241.338 89.8678 236.164 92.5335C235.31 92.9735 214.577 95.4311 198.567 96.9901C186.22 98.1925 170.4 99.4305 159.154 100.075C156.409 100.232 152.321 100.473 150.069 100.61C144.734 100.935 143.828 100.924 143.349 100.527C143.069 100.295 142.087 100.208 140.025 100.235C137.238 100.272 137.104 100.25 137.229 99.7734C137.438 98.9739 136.727 98.8753 129.466 98.6973C65.8997 97.1382 31.3089 95.352 7.26699 92.387C4.58486 92.0562 4.57303 92.0573 4.57303 92.6195C4.57303 93.4066 6.72425 95.5659 8.39594 96.4569C10.2659 97.4536 10.3195 97.6839 8.73187 97.8996C6.2017 98.2433 6.27553 97.9087 7.39742 103.948C10.692 121.684 16.237 126.135 26.1609 119.008C29.1766 116.842 46.0501 113.926 61.6452 112.875C68.4568 112.416 69.7278 112.348 78.7924 111.963C89.2623 111.517 91.7858 111.491 91.4451 111.832C91.1093 112.168 81.8421 113.47 74.0578 114.276C51.2047 116.64 48.1629 117.026 39.8912 118.61C37.4279 119.081 34.376 119.596 33.1091 119.753C19.3965 121.455 14.6817 137.193 27.6066 138.12C32.2204 138.451 39.3794 140.141 39.3794 140.899C39.3794 141.204 39.8735 141.274 42.0354 141.274C44.4644 141.274 44.7225 141.32 45.0546 141.821C45.358 142.278 45.7406 142.388 47.3794 142.494C48.8602 142.589 49.4473 142.737 49.7744 143.098C50.0524 143.405 50.555 143.577 51.1767 143.577C51.7096 143.577 52.2168 143.692 52.3038 143.833C52.3908 143.974 53.0524 144.089 53.774 144.089C54.7826 144.089 55.2277 144.222 55.6984 144.665C56.2836 145.215 56.5341 145.244 61.3453 145.323C65.8345 145.397 66.4353 145.458 66.8917 145.883C67.5941 146.537 69.808 146.675 70.3829 146.1C71.2924 145.191 75.2756 144.545 79.7271 144.585C83.4036 144.619 87.5835 144.226 89.3495 143.681C90.5434 143.312 87.9383 148.447 86.6623 148.977C86.2752 149.138 85.9563 149.4 85.9536 149.558C85.9384 150.46 84.3449 152.322 83.0758 152.921C72.1397 158.086 71.9459 169.317 82.6727 176.29C89.6212 180.807 90.9168 181.594 93.8923 183.103C100.9 186.657 110.145 189.543 117.694 190.533C118.327 190.616 119.133 190.735 119.485 190.798C120.237 190.933 122.164 191.162 123.964 191.331C124.668 191.397 125.819 191.51 126.523 191.581C127.227 191.652 128.866 191.742 130.165 191.781C131.463 191.819 132.577 191.902 132.639 191.963C132.787 192.112 150.162 192.005 154.419 191.83ZM27.0948 73.1054C27.0948 72.9145 27.4805 72.2523 27.952 71.6338C29.1313 70.0869 29.6541 69.0071 29.6541 68.1185C29.6541 67.5502 29.7952 67.3312 30.2299 67.225C42.4665 64.2342 54.7255 62.4805 64.5884 62.3099C124.669 61.2708 137.371 60.8755 154.292 59.5181C158.793 59.157 158.877 59.1769 159.939 60.8523C162.683 65.1793 158.527 66.6782 144.054 66.5813C120.935 66.4266 122.527 66.5004 116.601 65.3083C108.8 63.7392 106.353 63.8469 103.963 65.8644C103.156 66.5452 103.156 66.5452 100.495 65.6545C93.8814 63.4416 87.3106 63.399 73.034 65.4766C68.1074 66.1936 62.5169 66.8945 60.6106 67.0343C53.9701 67.5211 46.7453 68.8616 35.5588 71.6824C28.3405 73.5026 27.0948 73.712 27.0948 73.1054Z" fill="#008ECF"/>
<path d="M130.618 359.675C96.9412 357.872 80.909 355.223 64.2045 348.703C56.939 345.867 56.92 345.855 56.1778 343.419C51.6786 328.654 46.9858 309.529 43.0639 289.973C40.7828 278.599 39.9953 275.057 35.436 255.659C23.8987 206.572 20.9554 186.176 24.7898 181.885C26.0619 180.461 27.0848 182.131 28.2111 187.469C34.6334 217.909 45.1305 257.761 52.9851 281.523C55.9231 290.411 55.4254 289.559 57.5724 289.379C59.7982 289.192 59.834 289.269 58.7234 291.855C56.6628 296.653 57.68 299.083 64.1405 304.797C66.88 307.22 66.6269 307.931 63.2002 307.437C60.8271 307.095 60.9861 306.763 61.8711 310.213C62.2825 311.818 62.8589 314.282 63.1518 315.689C67.6587 337.347 72.1842 345.038 81.551 346.96C110.499 352.897 143.533 353.922 187.209 350.236C204.369 348.788 217.737 343.455 222.014 336.353C223.12 334.517 223.15 334.601 221.323 334.41C218.375 334.102 218.452 333.388 221.574 332.094C226.201 330.176 227.645 328.668 227.573 325.827C227.542 324.595 227.721 323.59 228.259 321.972C230.085 316.48 230.455 312.219 230.031 301.599C229.673 292.64 229.781 289.083 230.514 285.746C231.645 280.59 232.248 275.448 233.249 262.456C233.927 253.647 234.428 248.69 235.033 244.797C235.602 241.132 235.895 237.225 236.308 227.778C236.776 217.075 237.072 212.97 237.74 207.943C238.57 201.691 238.711 201.222 240.223 199.71C242.39 197.544 242.326 196.024 239.92 192.512C236.248 187.15 236.245 184.339 239.909 180.961C241.312 179.668 241.357 177.788 240.281 165.459C239.142 152.408 239.163 148.119 240.367 148.236C240.985 148.295 241.222 148.178 241.468 147.693C241.641 147.352 241.963 146.972 242.184 146.848C242.47 146.688 242.587 146.236 242.587 145.289C242.587 144.15 242.672 143.917 243.163 143.702C243.48 143.563 243.773 143.206 243.816 142.908C243.858 142.611 244.166 142.243 244.499 142.091C244.998 141.864 245.138 141.551 245.286 140.329C245.385 139.511 245.549 138.727 245.652 138.586C245.755 138.446 245.96 137.87 246.109 137.307C246.257 136.744 246.609 135.65 246.892 134.875C247.302 133.751 247.441 132.515 247.583 128.733C247.778 123.561 247.958 121.912 248.645 119.008C249.196 116.679 249.21 101.148 248.666 95.0785C248.327 91.2906 241.338 89.8678 236.164 92.5335C235.31 92.9735 214.577 95.4311 198.567 96.9901C186.22 98.1925 170.4 99.4305 159.154 100.075C156.409 100.232 152.321 100.473 150.069 100.61C144.734 100.935 143.828 100.924 143.349 100.527C143.069 100.295 142.087 100.208 140.025 100.235C137.238 100.272 137.104 100.25 137.229 99.7734C137.438 98.9739 136.727 98.8753 129.466 98.6973C65.8997 97.1382 31.3089 95.352 7.26699 92.387C4.58486 92.0562 4.57303 92.0573 4.57303 92.6195C4.57303 93.4066 6.72425 95.5659 8.39594 96.4569C10.2659 97.4536 10.3195 97.6839 8.73187 97.8996C6.2017 98.2433 6.27553 97.9087 7.39742 103.948C10.692 121.684 16.237 126.135 26.1609 119.008C29.1766 116.842 46.0501 113.926 61.6452 112.875C68.4568 112.416 69.7278 112.348 78.7924 111.963C89.2623 111.517 91.7858 111.491 91.4451 111.832C91.1093 112.168 81.8421 113.47 74.0578 114.276C51.2047 116.64 48.1629 117.026 39.8912 118.61C37.4279 119.081 34.376 119.596 33.1091 119.753C19.3965 121.455 14.6817 137.193 27.6066 138.12C29.8464 138.281 38.103 139.841 38.8611 140.247C39.7425 140.718 39.5043 141.498 38.3257 141.998C37.272 142.446 37.272 142.446 38.3439 143.155C39.2216 143.736 39.3606 143.931 39.1104 144.233C38.6452 144.793 38.4199 144.748 30.7747 142.548C21.1687 139.783 19.0971 139.58 21.7203 141.658C23.7297 143.249 23.4652 143.907 21.1038 143.19C18.9727 142.544 19.0987 141.902 20.073 148.44C20.3143 150.058 20.5018 151.815 20.4897 152.343C20.4776 152.872 20.6377 154.081 20.8456 155.031C21.8147 159.459 21.9059 162.534 21.0329 161.344C20.4288 160.52 18.9695 155.446 18.131 151.255C14.406 132.635 7.81954 115.916 10.6087 132.16C11.0676 134.833 12.4107 140.181 14.3915 147.222C16.0861 153.246 17.0348 157.834 17.3426 161.492C18.3232 173.149 12.063 149.724 8.7931 129.501C4.31222 101.788 3.04355 95.2367 0.566124 87.0168C-0.503406 83.4681 0.00743365 81.6128 2.88071 78.6103C8.92636 72.2927 22.6174 68.7751 21.6129 73.7974C21.1982 75.8708 18.4533 77.1766 11.4979 78.6093C4.30315 80.0914 3.57443 81.3295 7.57207 85.2798C10.7219 88.3924 27.9205 91.644 47.825 92.8902C51.5266 93.1219 55.8515 93.2689 78.5365 93.9341C109.075 94.8297 137.299 95.0603 144.438 94.4728C152.741 93.7895 153.698 93.7865 154.86 94.44C155.795 94.965 156.03 94.9977 157.082 94.7483C158.205 94.482 159.069 94.5209 165.075 95.108C166.282 95.226 166.748 95.1401 167.925 94.5832C169.131 94.0129 169.438 93.9593 170.066 94.2095C171.506 94.7837 189.203 94.6006 194.984 93.9517C211.734 92.0718 231.539 87.5033 238.128 83.9995C238.904 83.587 244 82.3518 247.322 81.7711C250.555 81.2058 252.598 80.7221 253.924 80.2077C256.169 79.3367 256.701 91.2183 254.989 104.019C254.054 111.015 253.845 112.371 253.355 114.657C253.069 115.994 252.673 117.837 252.477 118.752C249.64 131.959 247.197 158.215 244.893 200.265C243.22 230.795 242.415 242.102 240.803 257.721C240.534 260.326 240.244 263.55 240.158 264.887C239.402 276.678 237.707 290.881 234.775 309.997C233.865 315.928 233.675 317.741 233.795 319.338C235.036 335.763 227.455 347.995 214.819 349.957C213.552 350.153 210.488 350.903 208.01 351.622C195.492 355.255 181.29 357.423 162.609 358.554C150.517 359.286 134.097 359.861 130.618 359.675ZM129.509 356.058C130.448 355.119 127.674 354.672 115.646 353.824C112.761 353.621 108.96 353.283 107.201 353.073C97.5876 351.928 89.9706 351.863 92.7892 352.949C97.8981 354.919 128.092 357.475 129.509 356.058ZM68.0434 342.85C68.0434 342.189 63.4742 323.887 62.3169 319.912C60.1816 312.579 56.3904 303.533 55.4526 303.533C54.5758 303.533 56.7513 315.982 58.8516 322.983C61.6206 332.214 68.0434 346.096 68.0434 342.85ZM60.1433 341.773C61.0313 337.672 59.7446 331.232 55.3661 317.865C52.9593 310.517 51.127 303.953 50.7577 301.357C50.5215 299.697 50.2733 299.383 49.4815 299.744C47.1957 300.785 47.5487 304.44 51.0566 316.055C51.9676 319.072 52.8894 322.7 53.105 324.117C54.487 333.204 59.3549 345.415 60.1433 341.773ZM48.4431 293.915C49.0381 290.065 47.791 282.846 44.4825 270.987C43.2128 266.436 41.7753 260.722 41.2881 258.289C40.1037 252.376 38.0997 248.364 38.0997 251.906C38.0997 253.693 40.9399 269.152 42.3187 274.869C42.6751 276.347 43.2597 279.917 43.6177 282.802C44.5678 290.46 45.1712 292.751 46.7121 294.551C47.8693 295.903 48.1519 295.799 48.4431 293.915ZM104.641 319.238C104.289 319.187 102.965 319.021 101.698 318.868C100.431 318.715 95.6518 317.846 91.077 316.937C81.5691 315.047 76.6831 314.291 73.9228 314.286C70.8665 314.279 69.8614 312.936 71.6068 311.191C72.886 309.912 75.3616 310.197 83.0192 312.507C88.2669 314.089 92.1749 315.04 94.5231 315.304C95.5134 315.416 97.4753 315.755 98.8829 316.058C100.981 316.509 115.942 318.377 117.459 318.377C117.696 318.377 117.95 318.607 118.024 318.888C118.15 319.373 107.499 319.651 104.641 319.238ZM128.827 307.788C125.412 306.181 124.166 303.76 123.449 297.338C122.479 288.663 121.114 286.729 115.096 285.503C113.672 285.213 113.458 280.563 114.74 277.764C116.097 274.799 119.188 271.385 124.198 267.319C125.585 266.193 127.461 264.555 128.366 263.68C130.36 261.752 130.634 261.679 135.737 261.716C147.194 261.797 158.891 270.846 162.452 282.382C163.391 285.426 163.289 285.583 158.258 288.833C152.014 292.868 150.692 294.925 151.469 299.397C152.669 306.306 149.547 308.441 141.34 306.322C135.867 304.909 133.357 305.228 131.577 307.562C130.821 308.553 130.507 308.579 128.827 307.788ZM146.643 303.825C150.721 301.239 151.435 295.319 148.219 290.747C142.886 283.166 137.398 290.63 140.585 301.13C141.55 304.31 144.094 305.442 146.643 303.825ZM132.963 303.061C137.396 300.781 138.14 292.077 134.251 287.985C131.927 285.54 128.516 289.075 127.902 294.565C127.772 295.724 127.556 297.151 127.421 297.735C126.216 302.953 128.641 305.283 132.963 303.061ZM125.212 285.618C129.774 283.115 133.601 282.966 143.67 284.9C157.008 287.462 162.347 283.596 155.693 276.195C152.968 273.165 150.119 272.837 140.215 274.414C133.607 275.466 127.912 275.554 125.5 274.643C122.564 273.533 120.719 273.919 118.454 276.115C114.581 279.871 117.171 285.523 123.272 286.628C123.314 286.635 124.187 286.181 125.212 285.618ZM95.4072 273.074C77.4441 270.034 65.1827 250.08 72.3671 235.579C75.3434 229.572 78.1813 229.897 75.7348 235.965C67.8018 255.641 92.1625 277.719 111.322 268.217C130.044 258.932 132.444 236.821 115.774 227.205C114.789 226.636 113.349 225.798 112.575 225.342C105.57 221.216 98.8377 221.427 85.3186 226.198C81.0185 227.716 80.506 227.867 79.8801 227.808C79.3178 227.755 79.5251 227.417 81.1605 225.724C96.1879 210.163 128.707 221.3 130.729 242.7C132.499 261.434 115.089 276.406 95.4072 273.074ZM169.903 271.113C147.3 268.833 133.656 247.158 144.256 230.371C158.371 208.016 190.884 210.964 200.227 235.446C207.167 253.63 190.533 273.195 169.903 271.113ZM180.4 265.783C196.657 262.55 203.251 244.676 193.378 230.606C178.374 209.224 141.44 221.659 145.859 246.605C148.5 261.518 162.571 269.33 180.4 265.783ZM154.14 253.619C147.042 252.212 145.742 243.515 151.728 237.489C157.007 232.174 164.51 235.239 166.955 243.708C167.716 246.346 167.243 246.714 163.335 246.522C158.827 246.301 158.468 246.712 161.309 248.843C163.561 250.533 164.235 251.392 163.757 251.968C162.585 253.38 157.412 254.268 154.14 253.619ZM82.1047 254.904C75.3037 253.752 74.0144 247.606 79.3819 241.925C83.5328 237.532 88.1836 237.109 91.8529 240.791C99.3359 248.302 93.4482 256.826 82.1047 254.904ZM27.0948 73.1054C27.0948 72.9145 27.4805 72.2523 27.952 71.6338C29.1313 70.0869 29.6541 69.0071 29.6541 68.1185C29.6541 67.5502 29.7952 67.3312 30.2299 67.225C42.4665 64.2342 54.7255 62.4805 64.5884 62.3099C124.669 61.2708 137.371 60.8755 154.292 59.5181C158.793 59.157 158.877 59.1769 159.939 60.8523C162.683 65.1793 158.527 66.6782 144.054 66.5813C120.935 66.4266 122.527 66.5004 116.601 65.3083C108.8 63.7392 106.353 63.8469 103.963 65.8644C103.156 66.5452 103.156 66.5452 100.495 65.6545C93.8814 63.4416 87.3106 63.399 73.034 65.4766C68.1074 66.1936 62.5169 66.8945 60.6106 67.0343C53.9701 67.5211 46.7453 68.8616 35.5588 71.6824C28.3405 73.5026 27.0948 73.712 27.0948 73.1054Z" fill="#1B6F95"/>
<path d="M130.234 359.583C96.7657 357.736 80.1298 354.923 63.634 348.321C56.9035 345.627 57.0225 345.706 56.3202 343.457C52.327 330.668 47.1972 309.718 43.0759 289.37C40.6768 277.525 39.7989 273.588 35.2495 254.266C23.9757 206.385 20.5962 181.838 25.2781 181.838C26.3863 181.838 26.7127 182.785 28.7603 191.947C37.0119 228.868 46.0705 262.801 53.4424 284.406C55.53 290.524 55.2159 290.061 57.1708 289.904C59.2447 289.738 59.2275 289.7 58.1703 292.097C56.295 296.35 57.4565 299.25 63.0725 304.34C66.2338 307.205 66.2234 307.534 62.9861 307.062C60.4231 306.689 60.4645 306.647 61.1038 308.948C61.391 309.981 62.2101 313.475 62.9241 316.713C67.6922 338.332 72.0059 345.44 81.5518 347.406C110.001 353.265 145.702 354.245 189.866 350.381C205.199 349.04 219.267 342.859 222.749 335.935C223.516 334.409 223.482 334.346 221.794 334.135C219.147 333.804 219.182 333.606 222.113 332.344C226.492 330.457 227.854 329.017 227.904 326.217C227.927 324.945 228.178 323.629 228.72 321.937C230.443 316.557 230.848 311.397 230.356 301.101C229.981 293.264 230.075 290.109 230.788 286.634C232.002 280.715 232.608 275.415 233.771 260.536C234.128 255.961 234.756 249.685 235.166 246.588C235.951 240.656 236.333 236.299 236.569 230.592C237.235 214.51 237.723 208.768 238.903 203.098C239.223 201.559 239.437 201.151 240.524 200.001C242.918 197.47 242.837 196.152 240.025 191.887C236.693 186.833 236.692 185.02 240.024 181.378C241.575 179.682 241.666 176.673 240.547 164.066C239.719 154.719 239.715 148.641 240.537 148.443C240.888 148.358 241.312 148.015 241.478 147.681C241.645 147.347 241.963 146.972 242.184 146.848C242.464 146.691 242.587 146.244 242.587 145.38C242.587 144.231 242.644 144.119 243.355 143.871C243.777 143.724 244.122 143.422 244.122 143.2C244.122 142.979 244.396 142.673 244.73 142.521C245.46 142.188 246.048 140.6 245.835 139.535C245.68 138.76 246.011 137.302 246.893 134.875C247.301 133.753 247.441 132.505 247.583 128.733C247.778 123.561 247.958 121.911 248.645 119.007C249.196 116.678 249.21 101.148 248.666 95.078C248.327 91.29 241.338 89.8673 236.164 92.5329C235.31 92.9729 214.588 95.4292 198.567 96.9897C182.405 98.5638 162.023 100.06 150.964 100.483C148.501 100.578 146.269 100.732 146.005 100.827C145.74 100.922 144.934 100.837 144.213 100.638C141.806 99.9724 140.867 99.8545 139.128 99.9992C137.48 100.136 137.4 100.117 137.4 99.5858C137.4 98.7397 139.857 98.8592 97.2192 97.6325C58.2941 96.5126 34.7354 95.1984 14.4261 93.014C3.65547 91.8555 3.78202 91.8487 4.82062 93.5292C5.53971 94.6927 6.86851 95.8315 8.43073 96.6231C9.97274 97.4045 9.89214 97.6492 8.01543 97.8837C6.16938 98.1143 6.19023 97.9903 7.12451 103.182C10.4919 121.895 15.5624 126.175 26.0938 119.195C29.5813 116.884 45.1844 114.175 61.773 113.002C72.1576 112.267 89.344 111.612 88.9917 111.964C88.6421 112.314 78.9346 113.491 64.7162 114.908C52.2885 116.146 44.3499 117.256 38.7394 118.54C37.4725 118.83 35.4375 119.157 34.2171 119.266C19.3002 120.599 13.6137 137.352 27.7077 138.443C29.2708 138.564 30.7224 138.731 30.9336 138.815C31.1447 138.899 32.8334 139.247 34.6863 139.588C39.4544 140.465 39.9477 140.828 37.6875 141.797C36.3114 142.387 36.3115 142.383 37.6517 143.248C39.3755 144.361 38.2478 144.267 33.6167 142.91C20.694 139.124 17.9381 138.847 21.1094 141.65C22.6064 142.973 22.5299 143.171 20.7264 142.642C19.7848 142.366 19.2855 142.326 19.101 142.51C18.8192 142.792 19.4755 147.876 21.3362 159.828C21.9708 163.904 19.5709 157.868 18.6349 153.033C15.7157 137.957 11.0987 123.592 9.83126 125.642C9.24168 126.596 10.9539 135.353 13.5418 144.618C16.1789 154.06 17.3694 159.899 17.3694 163.392C17.3694 169.227 11.664 146.367 8.94283 129.628C8.37074 126.109 7.27517 119.372 6.50822 114.657C4.86285 104.54 3.67975 98.5197 2.13268 92.3907C0.63503 86.4575 0.699305 86.6822 0.385579 86.2833C-0.634329 84.9863 0.455981 81.4208 2.63378 78.9312C7.9122 72.8972 21.4642 69.0811 21.4642 73.6288C21.4642 75.6345 18.5898 77.0083 11.0991 78.5826C4.07715 80.0584 3.45884 81.2907 7.60211 85.5522C8.93813 86.9263 9.48546 87.133 15.8338 88.66C28.5811 91.7262 41.6698 93.0596 64.9722 93.6657C70.5322 93.8103 78.8819 94.0464 83.527 94.1904C107.51 94.9338 134.526 95.1638 142.263 94.6906C152.115 94.088 153.958 94.0694 155.049 94.5616C155.936 94.9616 156.215 94.9797 157.207 94.7019C157.833 94.5265 158.488 94.4708 158.662 94.5781C158.835 94.6855 160.025 94.8686 161.305 94.9851C162.585 95.1016 164.175 95.2678 164.839 95.3544C166.082 95.5168 168.043 94.9891 168.908 94.2595C169.233 93.9846 169.475 93.9735 170.059 94.2065C171.506 94.7832 189.185 94.6021 194.984 93.9512C211.734 92.0712 231.539 87.5027 238.128 83.999C238.9 83.5885 243.979 82.3563 247.322 81.7684C251.141 81.0968 252.182 80.8538 253.543 80.3156C254.552 79.9165 254.976 79.8527 255.191 80.0673C255.902 80.7779 256.039 95.3128 255.378 99.9406C255.238 100.926 254.891 103.632 254.607 105.955C254.324 108.278 253.578 112.711 252.95 115.808C252.001 120.493 250.585 128.861 250.115 132.572C248.028 149.022 246.57 167.016 245.023 195.402C243.128 230.186 242.441 240.026 240.68 257.593C240.342 260.971 239.991 264.944 239.901 266.422C239.266 276.792 237.512 291.327 234.642 309.985C233.789 315.527 233.629 317.193 233.629 320.532C233.629 338.277 227.236 348.04 214.424 349.857C213.376 350.005 211.439 350.473 210.119 350.896C196.374 355.299 176.307 358.075 151.988 358.937C149.665 359.02 146.441 359.194 144.822 359.324C140.551 359.669 133.917 359.786 130.234 359.583ZM129.379 356.238C131.973 355.252 127.828 354.485 115.635 353.694C113.448 353.552 109.681 353.21 107.266 352.934C96.6697 351.723 90.0626 351.699 92.2687 352.879C95.9262 354.837 125.924 357.552 129.379 356.238ZM68.2992 343.198C68.2992 338.716 59.653 310.345 56.6205 304.876C53.2657 298.825 56.4478 317.612 60.7062 328.997C63.9977 337.798 68.2992 345.842 68.2992 343.198ZM60.396 340.529C60.5155 334.466 59.8026 331.141 55.6197 318.248C52.6883 309.213 51.9124 306.488 51.1479 302.543C50.4762 299.077 50.1391 298.703 48.8871 300.036C47.1958 301.837 47.5246 304.677 50.6305 315.091C52.4634 321.237 53.017 323.52 53.3189 326.182C53.8254 330.648 57.3961 340.417 59.2883 342.514C59.9253 343.22 60.3583 342.444 60.396 340.529ZM48.4374 295.194C49.5011 292.421 48.1018 283.45 44.7136 271.319C42.4587 263.246 41.6612 260.026 41.0638 256.581C40.4159 252.845 38.5023 249.395 37.9839 251.028C37.6993 251.925 41.0538 270.803 42.3111 275.38C42.5238 276.154 42.995 279.149 43.3583 282.034C44.6274 292.115 47.1302 298.6 48.4374 295.194ZM105.665 318.967C103.068 318.771 96.9601 317.748 90.693 316.46C82.745 314.828 79.8368 314.36 75.0814 313.95C71.4984 313.641 71.4984 313.641 71.4231 312.874C71.1671 310.262 73.8806 310.255 82.632 312.848C89.2826 314.818 91.203 315.291 93.2523 315.465C94.2377 315.549 95.9076 315.837 96.9633 316.105C99.0201 316.628 103.945 317.328 110.144 317.978C115.494 318.539 116.156 318.654 115.518 318.906C115.023 319.101 108.012 319.145 105.665 318.967ZM128.826 307.332C125.584 305.657 124.494 303.344 123.716 296.49C123.12 291.233 122.618 289.581 121.112 287.914C119.982 286.663 118.138 285.668 116.542 285.45C110.828 284.666 114.497 275.993 123.836 268.204C125.595 266.737 127.798 264.823 128.731 263.952C130.72 262.094 131.323 261.924 135.737 261.978C146.736 262.112 158.258 271.046 161.955 282.307C162.947 285.329 162.998 285.253 157.563 288.777C151.458 292.735 150.118 295.209 151.24 300.442C152.371 305.713 148.459 307.985 141.751 305.953C136.992 304.511 133.064 304.964 131.456 307.139C130.809 308.013 130.229 308.056 128.826 307.332ZM145.77 304.423C152.918 301.436 150.545 286.134 143.149 287.521C138.857 288.327 138.129 301.268 142.225 303.952C143.554 304.822 144.509 304.949 145.77 304.423ZM132.784 303.235C137.56 301.184 138.42 291.403 134.154 287.658C132.099 285.853 128.731 288.753 128.065 292.901C127.996 293.329 127.707 295.079 127.423 296.791C126.296 303.587 127.788 305.381 132.784 303.235ZM125.447 285.635C129.815 283.254 133.661 283.089 142.95 284.887C152.237 286.684 158.64 285.919 158.433 283.038C158.22 280.071 156.94 276.985 155.341 275.58C152.271 272.886 149.699 272.77 136.888 274.752C131.741 275.548 126.498 275.216 124.025 273.938C122.482 273.14 118.731 274.981 117.36 277.21C114.238 282.284 120.201 288.497 125.447 285.635ZM96.3452 272.811C77.1529 269.793 64.2086 247.698 73.6559 234.082C76.4531 230.051 77.5313 231.006 75.6424 235.842C67.6225 256.375 92.2055 278.049 112.068 267.958C130.95 258.365 132.297 236.08 114.584 226.343C113.409 225.697 111.871 224.837 111.167 224.431C105.271 221.036 97.7888 221.611 84.0828 226.512C79.4247 228.177 79.3151 228.119 82.0554 225.426C92.0301 215.627 111.891 217.03 123.103 228.326C141.317 246.677 123.07 277.013 96.3452 272.811ZM170.671 270.738C149.224 268.917 135.06 249.231 143.352 232.768C156.256 207.148 192.951 211.134 200.941 239.023C205.448 254.753 188.728 272.272 170.671 270.738ZM174.563 266.375C196.652 267.008 206.211 242.215 189.988 226.37C178.382 215.034 155.28 218.471 147.914 232.63C139.992 247.858 152.463 267.628 169.263 266.472C170.671 266.375 173.056 266.331 174.563 266.375ZM153.341 253.255C147.846 251.537 146.413 245.435 150.147 239.657C154.957 232.216 163.459 233.947 166.575 243.001C167.675 246.199 167.332 246.59 163.646 246.339C159.009 246.023 158.128 246.706 160.754 248.582C163.848 250.793 164.4 251.746 163.006 252.468C160.921 253.546 155.646 253.975 153.341 253.255ZM83.783 254.917C76.9124 254.245 74.5288 250.632 77.2749 245.054C80.4358 238.634 87.582 236.546 91.8115 240.807C98.7192 247.767 94.0775 255.925 83.783 254.917ZM27.2381 73.221C27.1595 73.0939 27.6092 72.3064 28.2373 71.4708C29.4601 69.8441 29.9099 68.9037 29.9099 67.9737C29.9099 67.4182 30.2078 67.3304 36.3721 66.0678C53.7722 62.504 51.2862 62.6854 92.8684 61.9467C124.583 61.3833 141.321 60.7517 155.052 59.6003C158.787 59.287 159.772 59.7374 160.402 62.0479C161.436 65.8403 158.427 66.4238 138.168 66.359C120.944 66.3039 123.685 66.5107 113.087 64.4674C108.651 63.6122 105.562 64.0484 104.026 65.7469C103.407 66.4313 103.165 66.4235 101.021 65.6501C97.1852 64.2665 94.4808 63.8828 88.6456 63.8942C83.0548 63.9052 82.3699 63.9747 70.3467 65.7508C67.4611 66.1771 63.5454 66.6474 61.6451 66.7959C53.3987 67.4406 44.8492 69.0628 31.9862 72.4232C27.7708 73.5244 27.4581 73.577 27.2381 73.221Z" fill="#0C0E0E"/>
</g>
<defs>
<clipPath id="clip0_1_4082">
<rect width="256" height="360" fill="white"/>
</clipPath>
</defs>
</svg>
