<svg width="256" height="228" viewBox="0 0 256 228" fill="none" xmlns="http://www.w3.org/2000/svg">
<g clip-path="url(#clip0_1_4174)">
<path d="M80.281 4.74023L165.982 90.4409L118.228 138.194L0.975891 20.9423L80.281 4.74023Z" fill="#DA233C"/>
<path d="M36.7911 2.18153C14.6198 6.01888 -1.58234 13.6936 0.123141 19.6628C2.255 25.632 21.8681 27.3374 44.4658 23.5001C66.6371 19.2364 83.2655 11.5617 81.1337 5.5925C79.0018 -0.376695 58.9624 -1.65581 36.7911 2.18153Z" fill="#DA233C"/>
<path d="M37.6438 2.18179C16.7516 5.59276 1.40223 13.2674 3.53409 18.8103C5.66594 24.3531 23.9999 25.6322 44.8921 22.2212C65.7843 18.8103 81.1337 11.1356 79.0018 6.01913C76.87 0.0499344 58.536 -1.65555 37.6438 2.18179Z" fill="#FF8080"/>
<path d="M63.4598 89.8574L118.33 34.9868L190.084 106.741L135.214 161.611L63.4598 89.8574Z" fill="#E8E8E8"/>
<path d="M180.935 210.15L238.21 152.86L256 170.645L198.726 227.936L180.935 210.15Z" fill="#555B61"/>
<path d="M111.178 140.443L168.445 83.1446L185.031 99.7217L127.765 157.02L111.178 140.443Z" fill="#B2C1C0"/>
<path d="M116.218 151.402L179.531 88.09L253.093 161.653L189.781 224.965L116.218 151.402Z" fill="#3E4347"/>
</g>
<defs>
<clipPath id="clip0_1_4174">
<rect width="256" height="228" fill="white"/>
</clipPath>
</defs>
</svg>
