<svg width="512" height="114" viewBox="0 0 512 114" fill="none" xmlns="http://www.w3.org/2000/svg">
<g clip-path="url(#clip0_1_4183)">
<path d="M466.504 86.2518C465.256 89.6932 463.411 92.2228 460.968 93.8406C458.504 95.4729 455.688 96.289 452.519 96.289C448.167 96.289 445.238 95.0088 443.734 92.4484C442.966 91.1363 442.582 89.5521 442.582 87.6958C442.582 86.1276 442.838 84.3994 443.35 82.5111L445.558 74.062C443.062 80.0468 440.662 84.6474 438.357 87.8638C436.053 91.0803 433.709 93.2886 431.324 94.4887C428.94 95.6889 426.196 96.289 423.091 96.289C420.115 96.289 417.835 95.5929 416.25 94.2007C414.666 92.8085 413.874 90.7682 413.874 88.0798C413.874 86.2236 414.29 83.9993 415.122 81.407L424.675 52.219C424.995 51.2589 425.156 50.4748 425.156 49.8667C425.156 48.6825 424.595 48.0904 423.475 48.0904C421.555 48.0904 419.827 50.1547 418.291 54.2833L416.226 59.804H414.541C414.455 65.1553 413.176 70.596 410.705 76.1262C408.145 81.855 404.28 86.6476 399.111 90.5042C393.943 94.3607 387.678 96.289 380.317 96.289C374.62 96.289 370.275 94.8488 367.283 91.9684C364.291 89.088 362.794 84.9595 362.794 79.5827C362.794 74.0139 364.075 68.3652 366.635 62.6364C366.966 61.8964 367.318 61.172 367.692 60.4632C366.99 61.3016 366.182 62.026 365.266 62.6364C363.586 63.7566 361.69 64.3166 359.577 64.3166C357.177 64.3166 355.345 63.6926 354.081 62.4444C352.816 61.1962 352.184 59.356 352.184 56.9236C352.184 55.0354 352.672 53.2271 353.648 51.4989C354.625 49.7707 355.937 48.3065 357.585 47.1063C359.233 45.9061 361.017 45.13 362.938 44.778C362.266 44.554 361.802 44.4419 361.546 44.4419C359.433 44.4419 357.537 44.866 355.857 45.7141C354.177 46.5622 352.296 48.6505 350.216 51.979C348.136 55.3074 345.975 60.4121 343.735 67.293L336.486 94.8968H319.06L331.061 52.219C331.349 51.1628 331.493 50.3147 331.493 49.6746C331.493 48.6185 331.061 48.0904 330.197 48.0904C329.173 48.0904 328.229 48.5545 327.365 49.4826C326.501 50.4108 325.637 52.011 324.773 54.2833L322.516 60.2841H320.964C320.812 65.4806 319.537 70.7613 317.139 76.1262C314.578 81.855 310.714 86.6476 305.545 90.5042C300.377 94.3607 294.112 96.289 286.751 96.289C281.054 96.289 276.709 94.8488 273.717 91.9684C270.725 89.088 269.228 84.9595 269.228 79.5827C269.228 74.0139 270.508 68.3652 273.069 62.6364C275.629 56.9076 279.486 52.115 284.638 48.2585C289.791 44.4019 296.064 42.4737 303.457 42.4737C309.154 42.4737 313.498 43.9139 316.491 46.7943C319.483 49.6747 320.979 53.8192 320.979 59.2279C320.979 59.2664 320.979 59.3048 320.979 59.3432L323.38 52.603C325.845 45.8501 330.725 42.4737 338.022 42.4737C341.255 42.4737 343.583 43.3458 345.007 45.09C346.431 46.8343 347.144 49.0826 347.144 51.8349C347.144 52.219 347.112 52.8271 347.048 53.6592C348.328 50.8748 349.664 48.6665 351.056 47.0343C352.448 45.4021 353.952 44.2339 355.569 43.5298C357.185 42.8257 359.049 42.4737 361.161 42.4737C363.146 42.4737 364.85 42.8897 366.274 43.7218C367.698 44.554 368.786 45.6981 369.539 47.1543C370.291 48.6105 370.667 50.2347 370.667 52.027C370.667 53.8343 370.336 55.5423 369.674 57.1509C371.949 53.7763 374.792 50.8122 378.204 48.2585C383.357 44.4019 389.63 42.4737 397.023 42.4737C402.72 42.4737 407.064 43.9139 410.057 46.7943C413.049 49.6747 414.545 53.8192 414.545 59.2279C414.545 59.2324 414.545 59.2368 414.545 59.2413L416.802 52.603C419.171 45.8501 423.859 42.4737 430.868 42.4737C434.165 42.4737 436.717 43.2498 438.525 44.802C440.334 46.3542 441.238 48.6665 441.238 51.7389C441.238 54.0112 440.758 56.5716 439.798 59.42L431.348 84.8634C430.804 86.5917 430.532 87.8718 430.532 88.7039C430.532 89.6961 430.868 90.1921 431.54 90.1921C433.141 90.1921 435.173 88.1919 437.637 84.1913C440.102 80.1908 442.646 74.9981 445.27 68.6132C447.895 62.2283 450.199 55.6435 452.183 48.8585L453.479 43.8659C460.712 43.7698 466.649 43.3058 471.29 42.4737L458.904 86.5436C458.488 87.8878 458.28 88.8319 458.28 89.376C458.28 90.2401 458.776 90.6722 459.768 90.6722C460.792 90.6722 461.736 90.2081 462.601 89.28C463.465 88.3519 464.329 86.7517 465.193 84.4794L466.694 80.4879C466.864 79.8514 467.09 79.2518 467.37 78.6891L467.449 78.4785H467.479C467.67 78.1189 467.884 77.7749 468.122 77.4464C469.338 75.7662 470.954 74.9261 472.971 74.9261C474.891 74.9261 476.435 75.7182 477.603 77.3024C478.771 78.8866 479.356 80.9749 479.356 83.5672C479.356 84.8474 479.204 86.1036 478.899 87.3358C478.595 88.5679 478.227 89.7201 477.795 90.7922C477.363 91.8644 476.971 92.7685 476.619 93.5046C477.611 93.9847 478.763 94.2247 480.076 94.2247C482.124 94.2247 483.812 93.5446 485.14 92.1844C486.469 90.8242 487.133 89.008 487.133 86.7357C487.133 84.6874 486.645 82.4871 485.668 80.1348C484.692 77.7824 483.276 75.1021 481.42 72.0937C479.884 69.5973 478.771 67.7251 478.083 66.4769C477.395 65.2287 476.803 63.8206 476.307 62.2524C475.811 60.6841 475.563 59.0519 475.563 57.3557C475.563 54.5073 476.291 51.963 477.747 49.7227C479.204 47.4823 481.396 45.7141 484.324 44.4179C487.253 43.1218 490.845 42.4737 495.102 42.4737C499.934 42.4737 503.959 43.3378 507.175 45.066C510.392 46.7943 512 49.7066 512 53.8032C512 55.2114 511.728 56.5876 511.184 57.9318C510.64 59.276 509.848 60.3801 508.808 61.2442C507.767 62.1083 506.511 62.5404 505.039 62.5404C503.087 62.5404 501.551 61.7803 500.43 60.2601C499.31 58.7399 498.75 56.7476 498.75 54.2833C498.75 52.363 499.07 50.5628 499.71 48.8825C500.35 47.2023 501.07 45.9301 501.871 45.066C501.295 44.778 500.478 44.634 499.422 44.634C497.118 44.634 495.382 45.306 494.214 46.6502C493.045 47.9944 492.461 49.9467 492.461 52.507C492.461 54.1073 492.813 55.6915 493.517 57.2597C494.222 58.8279 495.07 60.4201 496.062 62.0363C497.054 63.6525 497.79 64.8767 498.27 65.7088C500.446 69.4213 501.967 72.4297 502.831 74.734C503.695 77.0384 504.127 79.2947 504.127 81.503C504.127 84.2553 503.375 86.7517 501.871 88.992C500.366 91.2323 498.134 93.0085 495.174 94.3207C492.213 95.6329 488.653 96.289 484.492 96.289C479.212 96.289 474.859 95.3128 471.434 93.3606C468.696 91.7994 467.052 89.4298 466.504 86.2518ZM133.202 78.9586C133.852 74.3909 135.379 69.7423 137.785 65.0127C141.082 58.5318 145.21 53.1551 150.171 48.8825C155.132 44.6099 159.868 42.4737 164.381 42.4737C168.093 42.4737 170.142 44.3619 170.526 48.1384L171.774 43.9619C178.271 43.8659 184.191 43.3698 189.536 42.4737L176.286 86.5436C175.998 87.4078 175.854 88.2079 175.854 88.944C175.854 90.0961 176.382 90.6722 177.439 90.6722C179.391 90.6722 181.135 88.6079 182.671 84.4794L184.736 78.9586H186.608L184.159 86.1596C181.791 92.9125 177.103 96.289 170.094 96.289C166.061 96.289 163.213 95.1368 161.548 92.8325C160.46 91.2963 159.916 89.28 159.916 86.7837C159.916 86.0476 159.932 85.4715 159.964 85.0555C158.396 89.12 156.364 92.0084 153.867 93.7206C151.371 95.4329 148.427 96.289 145.034 96.289C140.97 96.289 137.921 95.2408 135.889 93.1445C133.857 91.0482 132.84 87.9999 132.84 83.9993C132.84 83.6699 132.845 83.3402 132.855 83.0099L131.784 86.1596C130.471 89.9681 128.535 92.6085 125.975 94.0807C123.415 95.5529 120.694 96.289 117.814 96.289C114.549 96.289 112.005 95.4408 110.181 93.7446C108.356 92.0484 107.444 89.5681 107.444 86.3036C107.444 84.2873 107.828 81.967 108.597 79.3427L123.623 29.3199C123.943 28.1357 124.103 27.2236 124.103 26.5835C124.103 25.2713 123.591 24.3192 122.566 23.7271C121.542 23.1351 119.83 22.839 117.43 22.839L118.102 20.7747C123.319 20.7427 128.007 20.3907 132.168 19.7186C136.328 19.0465 140.425 18.0544 144.457 16.7422L123.719 86.5436C123.527 87.2477 123.431 87.8558 123.431 88.3679C123.431 89.168 123.615 89.7521 123.983 90.1201C124.351 90.4882 124.791 90.6722 125.303 90.6722C125.943 90.6722 126.703 90.2642 127.583 89.448C128.463 88.6319 129.367 86.9757 130.295 84.4794L132.36 78.9586H133.202ZM66.3501 91.4883C65.166 90.3362 64.5739 88.944 64.5739 87.3118C64.5739 85.4875 65.382 83.8153 66.9982 82.2951C68.6144 80.7749 70.7347 79.3747 73.3591 78.0945C75.9834 76.8143 79.4559 75.3101 83.7765 73.5819C78.8798 73.4859 74.9513 72.5018 71.9909 70.6295C69.0305 68.7572 67.5503 65.9649 67.5503 62.2524C67.5503 59.0519 68.6704 55.9395 70.9107 52.9151C73.1511 49.8907 76.3355 47.4104 80.464 45.4741C84.5926 43.5378 89.3612 42.5697 94.77 42.5697C96.3062 42.5697 97.7624 42.6497 99.1386 42.8097C100.675 39.5133 102.131 36.7609 103.507 34.5526C104.883 32.3443 106.372 30.6001 107.972 29.3199C109.828 27.8157 111.892 27.0636 114.165 27.0636C116.373 27.0636 118.133 27.6477 119.445 28.8158C120.757 29.984 121.414 31.6562 121.414 33.8325C121.414 35.5287 121.006 37.1689 120.189 38.7532C119.373 40.3374 118.253 41.6176 116.829 42.5937C115.405 43.5698 113.861 44.0579 112.196 44.0579C110.404 44.0579 108.972 43.5298 107.9 42.4737C106.828 41.4175 106.292 40.0734 106.292 38.4411C106.292 37.1289 106.692 35.7768 107.492 34.3846C108.292 32.9924 109.46 31.6722 110.996 30.424C110.676 30.264 110.404 30.184 110.18 30.184C109.572 30.184 109.028 30.456 108.548 31.0001C107.492 31.9603 106.236 33.5925 104.779 35.8968C103.323 38.2011 102.067 40.6014 101.011 43.0978C104.339 43.7378 106.948 44.946 108.836 46.7222C110.724 48.4985 111.668 50.8588 111.668 53.8032C111.668 56.8116 110.7 59.74 108.764 62.5884C106.828 65.4368 104.067 67.8451 100.483 69.8134C96.8982 71.7817 92.7537 72.9898 88.0491 73.4379C82.6403 75.3581 79.936 77.1024 79.936 78.6706C79.936 79.1826 80.208 79.6067 80.7521 79.9428C81.2961 80.2788 82.1763 80.6708 83.3924 81.1189L92.3216 84.4794C99.7787 87.2638 103.507 91.1042 103.507 96.0009C103.507 99.9055 101.867 103.162 98.5865 105.77C95.306 108.379 91.2975 110.299 86.5609 111.531C81.8242 112.763 77.2796 113.379 72.927 113.379C68.8624 113.379 65.366 113.059 62.4376 112.419C59.5092 111.779 57.2689 110.875 55.7167 109.707C54.1645 108.539 53.3884 107.17 53.3884 105.602C53.3884 103.266 54.4685 101.578 56.6288 100.538C58.7891 99.4974 61.9415 98.5293 66.0861 97.6331C70.2307 96.737 73.119 95.9689 74.7513 95.3288L70.8627 94.1287C69.0385 93.5206 67.5343 92.6405 66.3501 91.4883ZM269.18 78.9586L266.683 86.1596C264.379 92.9125 259.69 96.289 252.617 96.289C248.233 96.289 245.192 94.9128 243.496 92.1604C242.632 90.6882 242.2 88.96 242.2 86.9757C242.2 84.7674 242.696 82.2231 243.688 79.3427L252.137 53.8992C252.617 52.491 252.857 51.4349 252.857 50.7308C252.857 49.9627 252.585 49.5786 252.041 49.5786C250.761 49.5786 249.241 50.5628 247.481 52.531C245.72 54.4993 243.72 57.8277 241.48 62.5164C239.24 67.205 236.935 73.3578 234.567 80.9749L230.534 94.8968H213.012L224.822 53.8992C225.334 52.139 225.59 51.0188 225.59 50.5388C225.59 49.8987 225.27 49.5786 224.63 49.5786C222.293 49.5786 219.677 52.219 216.781 57.4997C213.884 62.7805 210.868 70.1734 207.731 79.6787L203.795 94.8968H186.368L198.37 52.219C198.658 51.1628 198.802 50.3467 198.802 49.7707C198.802 48.6505 198.29 48.0904 197.266 48.0904C195.378 48.0904 193.649 50.1547 192.081 54.2833L189.825 60.2841H187.953L190.689 52.603C191.969 49.1146 193.849 46.5542 196.33 44.922C198.81 43.2898 201.65 42.4737 204.851 42.4737C208.243 42.4737 210.692 43.2978 212.196 44.946C213.7 46.5942 214.452 48.7625 214.452 51.4509C214.452 52.9231 214.244 54.5233 213.828 56.2515L212.724 60.5721C214.58 56.2835 216.541 52.8111 218.605 50.1547C220.669 47.4983 222.941 45.5541 225.422 44.3219C227.902 43.0898 230.71 42.4737 233.847 42.4737C239.608 42.4737 242.488 45.082 242.488 50.2987C242.488 52.315 242.104 54.6673 241.336 57.3557L240.808 59.1319C242.792 54.8753 244.856 51.5229 247.001 49.0746C249.145 46.6262 251.353 44.914 253.626 43.9379C255.898 42.9617 258.394 42.4737 261.115 42.4737C267.003 42.4737 269.948 45.05 269.948 50.2027C269.948 52.251 269.484 54.6353 268.556 57.3557L258.858 86.5436C258.538 87.5038 258.378 88.2879 258.378 88.896C258.378 90.0801 258.922 90.6722 260.01 90.6722C261.963 90.6722 263.707 88.6079 265.243 84.4794L267.307 78.9586H269.18ZM72.1349 103.058C71.2868 105.33 70.8627 107.266 70.8627 108.867C70.8627 109.891 71.1348 110.619 71.6788 111.051C72.2229 111.483 73.039 111.699 74.1272 111.699C76.4315 111.699 78.8238 111.323 81.3041 110.571C83.7845 109.819 85.8488 108.755 87.497 107.378C89.1452 106.002 89.9693 104.434 89.9693 102.674C89.9693 101.81 89.7133 101.114 89.2012 100.586C88.6891 100.057 88.0971 99.6654 87.425 99.4094C86.7529 99.1534 85.6968 98.8013 84.2565 98.3532L76.2395 95.8089C74.3512 98.3693 72.983 100.786 72.1349 103.058ZM169.613 50.0587C169.613 48.2344 168.989 47.3223 167.741 47.3223C165.885 47.3223 163.637 49.2186 160.996 53.0111C158.356 56.8036 156.084 61.5802 154.179 67.341C152.275 73.1019 151.323 78.7826 151.323 84.3833C151.323 86.3036 151.483 87.6478 151.803 88.4159C152.123 89.184 152.715 89.5681 153.579 89.5681C154.859 89.5681 156.156 88.6479 157.468 86.8077C158.78 84.9674 160.236 81.679 161.836 76.9423L169.517 51.4989C169.581 50.8588 169.613 50.3787 169.613 50.0587ZM90.7854 68.7092C92.0976 66.6449 93.1297 63.9646 93.8819 60.6681C94.634 57.3717 95.026 53.9632 95.058 50.4428C95.058 48.3625 94.89 46.8263 94.5539 45.8341C94.2179 44.842 93.5378 44.3459 92.5137 44.3459C91.0735 44.3459 89.6893 45.3701 88.3611 47.4183C87.0329 49.4666 85.9688 52.155 85.1687 55.4834C84.3686 58.8119 83.9685 62.3163 83.9685 65.9969C83.9685 68.2052 84.1525 69.7254 84.5206 70.5575C84.8886 71.3896 85.5207 71.8056 86.4168 71.8056C88.0171 71.8056 89.4733 70.7735 90.7854 68.7092ZM295.992 51.8349C293.192 56.7636 290.751 62.7164 288.671 69.6934C286.591 76.6703 285.551 83.0391 285.551 88.8C285.551 90.8162 285.703 92.2404 286.007 93.0725C286.311 93.9046 286.783 94.3207 287.423 94.3207C289.183 94.3207 291.455 91.9524 294.24 87.2157C297.024 82.4791 299.456 76.6623 301.537 69.7654C303.617 62.8684 304.657 56.3316 304.657 50.1547C304.657 47.8824 304.505 46.3622 304.201 45.5941C303.897 44.826 303.489 44.4419 302.977 44.4419C301.121 44.4419 298.792 46.9062 295.992 51.8349ZM389.558 51.8349C386.758 56.7636 384.317 62.7164 382.237 69.6934C380.157 76.6703 379.117 83.0391 379.117 88.8C379.117 90.8162 379.269 92.2404 379.573 93.0725C379.877 93.9046 380.349 94.3207 380.989 94.3207C382.749 94.3207 385.021 91.9524 387.806 87.2157C390.59 82.4791 393.022 76.6623 395.103 69.7654C397.183 62.8684 398.223 56.3316 398.223 50.1547C398.223 47.8824 398.071 46.3622 397.767 45.5941C397.463 44.826 397.055 44.4419 396.543 44.4419C394.687 44.4419 392.358 46.9062 389.558 51.8349Z" fill="url(#paint0_linear_1_4183)"/>
<path d="M48.1429 22.9278L37.9675 67.1302L13.3445 61.4291L27.2661 0.953125L48.1429 22.9278Z" fill="#ED4C5C"/>
<path d="M40.3239 8.60947C34.707 2.32881 29.0575 -1.2956 27.5026 0.429099C26.0324 2.28921 29.3836 8.85598 35.0852 15.2721C40.8373 21.4682 46.5715 25.228 48.0417 23.3679C49.512 21.5078 45.9409 14.8901 40.3239 8.60947Z" fill="#ED4C5C"/>
<path d="M40.4931 8.88108C35.2653 2.92214 29.785 -0.431456 28.45 1.34415C27.1149 3.11975 30.3476 9.1958 35.5754 15.1547C40.8033 21.1137 46.2836 24.4673 47.4834 22.7762C48.9536 20.9161 45.8563 14.7555 40.4931 8.88108Z" fill="#FF8080"/>
<path d="M17.8054 34.4766L46.1202 41.0136L37.5827 77.9937L9.26782 71.4567L17.8054 34.4766Z" fill="#E8E8E8"/>
<path d="M2.95603 95.6172L32.5165 102.437L30.4013 111.605L0.840881 104.785L2.95603 95.6172Z" fill="#555B61"/>
<path d="M11.2225 59.6465L40.7839 66.4625L38.8133 75.0089L9.25195 68.1929L11.2225 59.6465Z" fill="#B2C1C0"/>
<path d="M8.75277 63.4316L41.4238 70.9743L32.671 108.887L0 101.344L8.75277 63.4316Z" fill="#3E4347"/>
</g>
<defs>
<linearGradient id="paint0_linear_1_4183" x1="12175.9" y1="5542.31" x2="49536.7" y2="5542.31" gradientUnits="userSpaceOnUse">
<stop stop-color="#F87880"/>
<stop offset="1" stop-color="#EA4964"/>
</linearGradient>
<clipPath id="clip0_1_4183">
<rect width="512" height="114" fill="white"/>
</clipPath>
</defs>
</svg>
