<svg width="256" height="341" viewBox="0 0 256 341" fill="none" xmlns="http://www.w3.org/2000/svg">
<g clip-path="url(#clip0_1_4277)">
<path d="M0.0272631 164.166H18.0254V109.989C18.0254 49.2549 67.2803 0 128.014 0C188.749 0 238.001 49.2549 238.001 109.989V163.631C237.741 163.813 237.482 163.991 237.227 164.166H237.229L237.062 164.279L237.043 164.291L237.024 164.302L237.005 164.314L236.922 164.371L236.823 164.438L236.804 164.451L236.696 164.524L236.691 164.528L236.647 164.556L236.622 164.572L236.571 164.608L236.558 164.617L236.493 164.66L236.427 164.705L236.339 164.764L236.294 164.792L236.256 164.816L236.225 164.835L236.126 164.903L236.03 164.965L236.026 164.968L235.901 165.051L235.876 165.069L235.724 165.168L235.712 165.177L235.648 165.218L235.646 165.22L235.621 165.235L235.423 165.365L235.391 165.385L235.347 165.414L235.328 165.426L235.315 165.435L235.213 165.502L235.2 165.507L235.198 165.509L235.191 165.513L235.075 165.589L235.049 165.604L235.011 165.628L234.973 165.651L234.948 165.668L234.884 165.708L234.827 165.745L234.823 165.746L234.76 165.786L234.753 165.791L234.696 165.825L234.677 165.836L234.633 165.865L234.601 165.883L234.569 165.903L234.531 165.928L234.506 165.942L234.172 166.152L234.101 166.195L234.082 166.205L233.903 166.316L233.89 166.325L233.687 166.449L233.682 166.452L233.669 166.461L233.612 166.494L233.609 166.496L233.552 166.531L233.545 166.535L233.495 166.566L233.444 166.597L233.438 166.601L233.412 166.618L233.324 166.67L233.28 166.699L233.212 166.739L233.016 166.855L232.819 166.97L232.622 167.086L232.424 167.203L232.024 167.436L231.823 167.553L231.622 167.671L231.538 167.719L231.011 168.023L230.806 168.141L230.6 168.259L230.393 168.378L230.121 168.534L229.766 168.735L229.555 168.854L228.738 169.313L228.699 169.332L228.484 169.452L228.268 169.573L228.218 169.6L227.93 169.759L227.286 170.113L226.983 170.279C226.673 170.447 226.361 170.616 226.045 170.786L225.964 170.829L225.817 170.908L225.358 171.152L225.127 171.275L225.089 171.295L224.665 171.519L224.663 171.52L224.429 171.643L224.361 171.678L223.957 171.889L223.72 172.012L223.502 172.125C223.206 172.278 222.907 172.432 222.605 172.585L222.359 172.711C222.004 172.89 221.646 173.071 221.284 173.251L221.281 173.252C220.935 173.424 220.586 173.596 220.234 173.769L219.884 173.94C219.501 174.126 219.115 174.313 218.724 174.5H218.722C196.88 184.935 161.851 196.036 95.3531 200.81C47.7155 204.232 18.8363 225.2 0 250.504V164.166H0.0272631ZM68.6878 164.166H187.339V109.989C187.339 77.2281 160.773 50.6625 128.014 50.6625C95.2548 50.6625 68.6878 77.2281 68.6878 109.989V164.166ZM222.386 172.711C222.031 172.89 221.674 173.07 221.311 173.251L222.386 172.711ZM177.839 26.6082C163.734 18.1801 147.245 13.331 129.625 13.331C81.3259 13.331 41.5141 49.7209 36.0983 96.5685C50.2573 52.2704 91.7626 20.1817 140.752 20.1817C153.766 20.1817 166.252 22.4515 177.839 26.6082ZM256 184.903V340.146H37.0043C61.1455 326.724 79.1372 328.091 108.936 329.033C149.515 330.316 194.354 313.317 216.406 290.807C238.461 268.296 214.41 285.481 189.445 291.814C164.476 298.144 116.161 298.818 83.8658 290.329C185.583 291.715 225.169 258.812 247.65 229.344C270.129 199.877 237.927 224.228 217.066 234.387C196.206 244.555 159.823 251.819 119.817 246.521C180.374 246.396 226.451 216.134 256 184.903Z" fill="#0093DD"/>
</g>
<defs>
<clipPath id="clip0_1_4277">
<rect width="256" height="341" fill="white"/>
</clipPath>
</defs>
</svg>
