<svg width="512" height="173" viewBox="0 0 512 173" fill="none" xmlns="http://www.w3.org/2000/svg">
<g clip-path="url(#clip0_1_4280)">
<path d="M508.587 87.946V98.6269C500.666 93.2338 492.829 90.5372 485.077 90.5372C476.65 90.5372 469.845 93.4023 464.663 99.1325C461.419 102.714 459.207 106.653 458.027 110.951C456.552 116.133 455.815 121.864 455.815 128.141C455.815 141.076 458.722 150.704 464.536 157.024C469.424 162.375 475.849 165.05 483.813 165.05C488.447 165.05 492.892 163.85 497.148 161.448V127.762C497.148 126.203 496.979 124.813 496.642 123.591H511.684C511.347 124.897 511.178 126.288 511.178 127.762V160.942C511.22 162.881 511.494 164.608 512 166.125C504.247 168.653 498.58 170.275 494.999 170.991C491.46 171.708 487.204 172.066 482.233 172.066C473.258 172.066 465.927 170.465 460.239 167.263C453.413 163.428 448.294 157.804 444.881 150.388C441.89 143.899 440.394 136.421 440.394 127.952C440.394 112.91 445.071 101.323 454.424 93.1916C461.966 86.5767 471.973 83.2692 484.445 83.2692C492.029 83.2692 500.076 84.8281 508.587 87.946ZM392.488 133.703V166.631C392.488 167.852 392.699 169.243 393.12 170.802H377.51C377.889 169.496 378.078 168.105 378.078 166.631V88.7676C378.078 87.2087 377.889 85.7972 377.51 84.5332H405.128C411.869 84.5332 417.579 85.8815 422.255 88.578C429.418 92.7914 432.999 99.3853 432.999 108.36C432.999 118.303 428.639 125.466 419.917 129.848C414.819 132.418 408.731 133.703 401.652 133.703H392.488ZM392.488 127.067H400.198C404.412 127.067 407.804 126.309 410.374 124.792C412.817 123.317 414.756 121.126 416.188 118.219C417.621 115.312 418.337 112.089 418.337 108.549C418.337 103.072 416.82 98.7744 413.787 95.6565C410.795 92.4964 406.666 90.9164 401.399 90.9164H392.488V127.067ZM346.668 170.802V161.574C344.266 164.861 341.949 167.22 339.716 168.653C336.176 170.886 331.731 172.003 326.38 172.003C319.176 172.003 313.635 169.959 309.759 165.872C306.557 162.501 304.955 157.635 304.955 151.273V107.538C304.955 106.106 304.787 104.736 304.45 103.43H318.67C318.333 104.61 318.164 105.979 318.164 107.538V149.819C318.164 153.443 319.028 156.329 320.756 158.478C323.031 161.216 326.444 162.586 330.994 162.586C335.587 162.586 339.294 161.28 342.117 158.667C344.982 156.013 346.415 152.579 346.415 148.366V107.538C346.415 106.063 346.246 104.694 345.909 103.43H360.129C359.792 104.526 359.624 105.895 359.624 107.538V166.631C359.624 167.979 359.792 169.369 360.129 170.802H346.668ZM232.149 103.43H245.61V112.847C247.633 109.687 249.676 107.37 251.741 105.895C255.617 103.198 260.526 101.85 266.466 101.85C274.135 101.85 279.949 104.189 283.91 108.865C286.438 111.857 287.702 116.028 287.702 121.379V166.631C287.702 168.021 287.87 169.411 288.207 170.802H273.987C274.324 169.748 274.493 168.358 274.493 166.631V123.338C274.493 119.504 273.376 116.534 271.143 114.427C268.91 112.32 265.729 111.267 261.6 111.267C256.46 111.267 252.583 112.7 249.971 115.565C247.232 118.598 245.863 122.496 245.863 127.257V166.631C245.863 168.105 246.032 169.496 246.369 170.802H232.149C232.486 169.58 232.654 168.189 232.654 166.631V107.538C232.654 106.106 232.486 104.736 232.149 103.43ZM213.568 87.946V98.6269C205.647 93.2338 197.81 90.5372 190.057 90.5372C181.63 90.5372 174.826 93.4023 169.643 99.1325C166.399 102.714 164.187 106.653 163.007 110.951C161.533 116.133 160.795 121.864 160.795 128.141C160.795 141.076 163.703 150.704 169.517 157.024C174.405 162.375 180.83 165.05 188.793 165.05C193.428 165.05 197.873 163.85 202.128 161.448V127.762C202.128 126.203 201.96 124.813 201.623 123.591H216.665C216.327 124.897 216.159 126.288 216.159 127.762V160.942C216.201 162.881 216.475 164.608 216.981 166.125C209.228 168.653 203.561 170.275 199.98 170.991C196.44 171.708 192.185 172.066 187.213 172.066C178.239 172.066 170.907 170.465 165.219 167.263C158.394 163.428 153.275 157.804 149.862 150.388C146.87 143.899 145.374 136.421 145.374 127.952C145.374 112.91 150.051 101.323 159.405 93.1916C166.947 86.5767 176.954 83.2692 189.425 83.2692C197.009 83.2692 205.057 84.8281 213.568 87.946ZM0.0137931 83.0554H9.11946V55.646C9.11946 24.9193 34.0387 0 64.7652 0C95.4926 0 120.41 24.9193 120.41 55.646V82.7847C120.279 82.8767 120.148 82.9669 120.019 83.0554L119.935 83.1125L119.926 83.1189L119.916 83.1244L119.906 83.1305L119.864 83.1593L119.815 83.193L119.805 83.1998L119.75 83.2366L119.748 83.2386L119.725 83.253L119.713 83.261L119.687 83.2793L119.68 83.2835L119.647 83.3056L119.614 83.3281L119.569 83.3579L119.547 83.3723L119.528 83.3842L119.512 83.3941L119.462 83.4281L119.413 83.4599L119.411 83.4615L119.348 83.5032L119.335 83.5122L119.259 83.5625L119.252 83.567L119.22 83.5879L119.219 83.5885L119.206 83.5962L119.106 83.662L119.09 83.6722L119.067 83.6867L119.058 83.6928L119.051 83.6976L119 83.7313L118.993 83.7342L118.992 83.7351L118.989 83.737L118.93 83.7752L118.917 83.7832L118.898 83.7954L118.879 83.8066L118.866 83.8153L118.834 83.8355L118.805 83.8541L118.803 83.8551L118.77 83.8753L118.767 83.8775L118.738 83.8949L118.729 83.9006L118.706 83.9151L118.69 83.924L118.674 83.9343L118.655 83.9468L118.642 83.9539L118.473 84.0601L118.437 84.0819L118.428 84.0873L118.337 84.1435L118.331 84.1479L118.228 84.2105L118.225 84.2121L118.219 84.2166L118.19 84.2333L118.188 84.2342L118.159 84.2522L118.156 84.2541L118.131 84.2698L118.105 84.2852L118.102 84.2875L118.089 84.2958L118.044 84.3224L118.022 84.3369L117.988 84.3574L117.888 84.4158L117.789 84.4742L117.689 84.5329L117.589 84.5919L117.387 84.7099L117.285 84.769L117.183 84.8286L117.141 84.853L116.874 85.007L116.77 85.0666L116.666 85.1263L116.561 85.1866L116.424 85.2652L116.244 85.3669L116.138 85.4272L115.724 85.6597L115.705 85.6693L115.595 85.73L115.486 85.7912L115.461 85.8047L115.315 85.8849L114.989 86.0642L114.836 86.1483C114.679 86.2333 114.521 86.3189 114.361 86.4045L114.321 86.4267L114.246 86.4665L114.014 86.59L113.897 86.6522L113.878 86.6625L113.663 86.7757L113.663 86.7763L113.544 86.8382L113.51 86.8559L113.305 86.963L113.185 87.0252L113.075 87.082C112.925 87.1596 112.774 87.2373 112.621 87.3149L112.497 87.3784C112.317 87.4692 112.136 87.5606 111.953 87.6517L111.951 87.6523C111.776 87.7393 111.6 87.8265 111.422 87.9138L111.245 88.0004C111.051 88.0944 110.855 88.1893 110.658 88.2839C99.6071 93.5628 81.8843 99.1795 48.2414 101.595C24.1404 103.326 9.52972 113.934 0 126.736V83.0554H0.0137931ZM34.7508 83.0554H94.7792V55.646C94.7792 39.0716 81.339 25.6314 64.7652 25.6314C48.1917 25.6314 34.7508 39.0716 34.7508 55.646V83.0554ZM112.51 87.3784C112.331 87.4692 112.15 87.5603 111.967 87.6517L112.51 87.3784ZM89.9728 13.4617C82.837 9.19773 74.4947 6.74449 65.5802 6.74449C41.1447 6.74449 21.003 25.155 18.263 48.8563C25.4264 26.4448 46.4249 10.2104 71.2101 10.2104C77.7938 10.2104 84.1107 11.3587 89.9728 13.4617ZM129.517 93.5468V172.088H18.7214C30.935 165.297 40.0374 165.989 55.1132 166.466C75.6434 167.115 98.3285 158.514 109.485 147.126C120.643 135.737 108.475 144.432 95.8448 147.636C83.2123 150.838 58.7687 151.179 42.4297 146.884C93.8907 147.586 113.919 130.939 125.292 116.031C136.665 101.123 120.373 113.442 109.819 118.582C99.2651 123.726 80.8585 127.401 60.6183 124.721C91.2555 124.658 114.567 109.347 129.517 93.5468Z" fill="#0093DD"/>
</g>
<defs>
<clipPath id="clip0_1_4280">
<rect width="512" height="173" fill="white"/>
</clipPath>
</defs>
</svg>
