<svg width="256" height="242" viewBox="0 0 256 242" fill="none" xmlns="http://www.w3.org/2000/svg">
<g clip-path="url(#clip0_1_4289)">
<path d="M240.34 164.493C240.34 164.493 239.966 162.203 239.748 162.223L198.2 166.232C194.894 166.551 192.326 169.188 192.094 172.501L190.953 188.861L158.81 191.154L156.624 176.327C156.137 173.029 153.257 170.543 149.923 170.543H106.071C102.739 170.543 99.8591 173.029 99.3722 176.327L97.1846 191.154L65.0416 188.861L63.9002 172.501C63.6682 169.187 61.1006 166.55 57.7946 166.231L16.226 162.223C16.0113 162.203 15.854 164.495 15.6393 164.495L15.583 173.486L50.788 179.163L51.9409 195.669C52.174 199.011 54.8702 201.713 58.2141 201.953L102.482 205.111C102.65 205.122 102.815 205.129 102.981 205.129C106.307 205.129 109.183 202.642 109.67 199.344L111.919 184.088H144.077L146.327 199.344C146.812 202.641 149.691 205.128 153.023 205.128C153.186 205.128 153.349 205.122 153.508 205.111L197.783 201.953C201.125 201.713 203.823 199.011 204.056 195.669L205.207 179.163L240.397 173.461L240.34 164.493Z" fill="white"/>
<path d="M101.963 0C90.2688 2.60002 78.7002 6.21862 67.8542 11.6777C68.1023 21.2543 68.7214 30.4305 69.9764 39.7513C65.7645 42.4498 61.3379 44.7659 57.4035 47.9246C53.4063 50.9997 49.3231 53.9428 45.704 57.5393C38.4731 52.7566 30.8209 48.2619 22.9369 44.294C14.4384 53.4405 6.49129 63.3125 0 74.3588C4.88373 82.2595 9.98249 89.6645 15.4877 96.6918H15.6409L15.6409 164.49C15.7649 164.491 15.8898 164.496 16.0127 164.508L57.5767 168.514C59.7539 168.724 61.4599 170.477 61.6114 172.659L62.8934 191.007L99.1494 193.594L101.646 176.66C101.97 174.464 103.854 172.838 106.075 172.838H149.927C152.146 172.838 154.03 174.464 154.354 176.66L156.851 193.594L193.109 191.007L194.389 172.659C194.542 170.477 196.246 168.725 198.424 168.514L239.971 164.508C240.094 164.496 240.217 164.491 240.341 164.49V159.079L240.359 159.073V96.6916H240.512C246.018 89.664 251.114 82.2585 256 74.3585C249.511 63.3115 241.56 53.4395 233.062 44.2938C225.18 48.2612 217.524 52.7557 210.293 57.5391C206.675 53.9425 202.599 50.9996 198.596 47.9243C194.663 44.7654 190.231 42.4493 186.027 39.751C187.278 30.4302 187.898 21.2541 188.147 11.6775C177.301 6.21839 165.733 2.59956 154.033 0C149.361 7.85122 145.089 16.3519 141.369 24.6638C136.957 23.9266 132.525 23.6533 128.087 23.6005V23.5945C128.056 23.5945 128.027 23.6005 128.001 23.6005C127.973 23.6005 127.944 23.5945 127.916 23.5945V23.6005C123.47 23.6533 119.041 23.9266 114.628 24.6638C110.91 16.3527 106.641 7.85122 101.963 0ZM15.5699 173.457C15.5871 177.473 15.6383 181.874 15.6383 182.75C15.6383 222.222 65.7107 241.194 127.92 241.412H128.074C190.284 241.194 240.34 222.222 240.34 182.75C240.34 181.858 240.395 177.476 240.413 173.457L203.054 177.06L201.766 195.506C201.611 197.729 199.843 199.499 197.62 199.658L153.346 202.817C153.238 202.825 153.13 202.829 153.023 202.829C150.823 202.829 148.925 201.213 148.6 199.004L146.062 181.787H109.936L107.398 199.004C107.057 201.321 104.986 202.988 102.652 202.817L58.3783 199.658C56.1551 199.499 54.387 197.729 54.232 195.506L52.9455 177.06L15.5699 173.457Z" fill="#478CBF"/>
<path d="M69.0787 99.1777C55.251 99.1777 44.0342 110.383 44.0342 124.213C44.0342 138.052 55.2502 149.263 69.0787 149.263C82.9134 149.263 94.1271 138.052 94.1271 124.213C94.1271 110.383 82.9134 99.1777 69.0787 99.1777ZM186.919 99.1777C173.082 99.1777 161.869 110.383 161.869 124.213C161.869 138.052 173.082 149.263 186.919 149.263C200.746 149.263 211.961 138.052 211.961 124.213C211.961 110.383 200.746 99.1777 186.919 99.1777ZM127.994 113.828C123.541 113.828 119.932 117.113 119.932 121.155L119.932 144.214C119.932 148.259 123.541 151.541 127.994 151.541C132.447 151.541 136.065 148.259 136.065 144.214V121.155C136.065 117.113 132.447 113.828 127.994 113.828Z" fill="white"/>
<path d="M71.4749 109.076C62.2927 109.076 54.8496 116.523 54.8496 125.703C54.8496 134.883 62.293 142.322 71.4749 142.322C80.6617 142.322 88.1017 134.882 88.1017 125.703C88.1017 116.524 80.6614 109.076 71.4749 109.076ZM184.518 109.076C175.339 109.076 167.901 116.523 167.901 125.703C167.901 134.883 175.339 142.322 184.518 142.322C193.708 142.322 201.144 134.882 201.144 125.703C201.144 116.524 193.707 109.076 184.518 109.076Z" fill="#414042"/>
</g>
<defs>
<clipPath id="clip0_1_4289">
<rect width="256" height="242" fill="white"/>
</clipPath>
</defs>
</svg>
