<svg width="512" height="175" viewBox="0 0 512 175" fill="none" xmlns="http://www.w3.org/2000/svg">
<g clip-path="url(#clip0_1_4295)">
<path d="M251.608 53.6946C241.961 53.6946 234.418 56.7317 228.971 62.8054C223.519 68.8818 220.799 76.7685 220.799 86.4781C220.799 97.8782 223.583 106.52 229.153 112.407C234.733 118.293 242.058 121.232 251.141 121.232C256.025 121.232 260.359 120.811 264.147 119.965C267.939 119.122 270.459 118.257 271.713 117.382L272.089 87.987C272.089 86.2788 267.581 85.5024 262.524 85.4159C257.467 85.3377 251.679 86.3922 251.679 86.3922V96.2629H257.499L257.435 100.663C257.435 102.293 255.819 103.111 252.596 103.111C249.37 103.111 246.52 101.745 244.047 99.0205C241.57 96.2923 240.337 92.3037 240.337 87.0488C240.337 81.7829 241.541 77.9012 243.953 75.3957C246.359 72.8929 249.513 71.637 253.393 71.637C255.023 71.637 256.71 71.8999 258.465 72.4366C260.221 72.9682 261.393 73.4665 261.991 73.9334C262.584 74.4134 263.148 74.6413 263.682 74.6413C264.213 74.6413 265.073 74.0197 266.261 72.7641C267.452 71.5119 268.519 69.6144 269.46 67.0842C270.397 64.5406 270.866 62.5909 270.866 61.2081C270.866 59.836 270.835 58.8905 270.774 58.3913C269.459 56.9518 267.031 55.81 263.49 54.9613C259.955 54.1151 255.992 53.6946 251.609 53.6946H251.608ZM309.24 53.6946C300.378 53.6946 293.143 56.5443 287.539 62.239C281.936 67.941 279.135 76.3146 279.135 87.3734C279.135 98.4263 281.905 106.834 287.442 112.595C292.987 118.352 300.16 121.231 308.957 121.231C317.758 121.231 324.94 118.463 330.516 112.927C336.093 107.379 338.878 98.9243 338.878 87.5573C338.878 76.1991 336.155 67.707 330.702 62.1044C325.258 56.4914 318.101 53.6946 309.24 53.6946ZM433.827 53.6946C424.962 53.6946 417.731 56.5443 412.122 62.239C406.52 67.941 403.719 76.3146 403.719 87.3734C403.719 98.4263 406.49 106.834 412.034 112.595C417.574 118.352 424.742 121.231 433.542 121.231C442.34 121.231 449.528 118.463 455.102 112.927C460.677 107.379 463.464 98.9243 463.464 87.5573C463.464 76.1991 460.741 67.707 455.292 62.1044C449.841 56.4914 442.689 53.6946 433.827 53.6946ZM351.399 54.5346C350.143 54.5346 349.127 54.9933 348.345 55.8961C347.559 56.813 347.17 58.0493 347.17 59.6159V115.974C347.17 118.857 348.77 120.294 351.962 120.294H368.021C387.686 120.294 397.523 108.773 397.523 85.7255C397.523 74.9521 394.937 67.0654 389.766 62.0565C384.604 57.0459 377.043 54.5346 367.087 54.5346H351.399ZM468.601 54.5351C467.535 54.5351 466.783 55.9822 466.346 58.8627C466.158 60.2397 466.068 61.6525 466.068 63.0869C466.068 64.5296 466.158 65.9365 466.346 67.311C466.783 70.1991 467.535 71.6365 468.601 71.6365H479.871V118.797C479.871 120.042 482.976 120.673 489.173 120.673C495.376 120.673 498.473 120.042 498.473 118.797V71.6365H509.464C510.529 71.6365 511.277 70.1991 511.721 67.311C511.905 65.9365 512 64.5297 512 63.0869C512 61.6525 511.905 60.2397 511.721 58.8627C511.277 55.9822 510.529 54.5351 509.464 54.5351H468.601ZM308.997 71.7313C312.006 71.7313 314.527 73.0766 316.56 75.7658C318.595 78.4583 319.616 82.3141 319.616 87.3226C319.616 92.3357 318.627 96.1863 316.655 98.8765C314.682 101.576 312.113 102.922 308.951 102.922C305.788 102.922 303.238 101.592 301.297 98.9239C299.352 96.2638 298.382 92.4469 298.382 87.4605C298.382 82.4849 299.403 78.6182 301.434 75.8632C303.475 73.1108 305.993 71.7313 308.997 71.7313ZM433.584 71.7313C436.593 71.7313 439.111 73.0766 441.147 75.7658C443.182 78.4583 444.201 82.3141 444.201 87.3226C444.201 92.3357 443.213 96.1863 441.239 98.8765C439.269 101.576 436.698 102.922 433.536 102.922C430.372 102.922 427.82 101.592 425.882 98.9239C423.943 96.2638 422.97 92.4469 422.97 87.4605C422.97 82.4849 423.986 78.6182 426.016 75.8632C428.055 73.1108 430.579 71.7313 433.584 71.7313ZM365.201 72.3822L366.14 72.3822C370.148 72.3822 373.077 73.2986 374.927 75.1149C376.767 76.9263 377.693 80.8259 377.693 86.81C377.693 92.7915 376.808 97.0618 375.018 99.627C373.233 102.195 370.621 103.483 367.173 103.483C366.237 103.483 365.671 103.31 365.485 102.964C365.297 102.617 365.2 101.79 365.2 100.478L365.201 72.3822Z" fill="#414042"/>
<path d="M174.146 119.188C174.146 119.188 173.875 117.529 173.717 117.544L143.612 120.449C141.217 120.68 139.356 122.591 139.188 124.991L138.361 136.845L115.071 138.507L113.487 127.763C113.134 125.374 111.047 123.572 108.632 123.572L76.8574 123.572C74.4428 123.572 72.3561 125.374 72.0033 127.763L70.4182 138.507L47.128 136.845L46.3009 124.991C46.1329 122.59 44.2724 120.679 41.877 120.448L11.7572 117.544C11.6016 117.529 11.4876 119.19 11.332 119.19L11.2913 125.705L36.8001 129.819L37.6355 141.778C37.8044 144.2 39.758 146.157 42.1809 146.331L74.2568 148.619C74.3782 148.628 74.4981 148.633 74.6179 148.633C77.0283 148.633 79.1117 146.831 79.4645 144.441L81.0945 133.387H104.396L106.026 144.441C106.378 146.83 108.464 148.632 110.877 148.632C110.995 148.632 111.114 148.628 111.229 148.619L143.309 146.331C145.732 146.157 147.686 144.2 147.855 141.778L148.689 129.819L174.187 125.687L174.146 119.188Z" fill="white"/>
<path d="M73.8804 0C65.407 1.88393 57.0246 4.50589 49.1659 8.46143C49.3456 15.4005 49.7942 22.0493 50.7036 28.803C47.6517 30.7583 44.4443 32.4365 41.5935 34.7252C38.6971 36.9534 35.7386 39.0859 33.1162 41.6919C27.8769 38.2264 22.3322 34.9696 16.6196 32.0946C10.4618 38.7219 4.70346 45.875 0 53.8789C3.53866 59.6036 7.23312 64.9692 11.2221 70.061H11.3331L11.3331 119.186C11.4229 119.187 11.5135 119.191 11.6025 119.199L41.719 122.102C43.2965 122.254 44.5327 123.524 44.6425 125.105L45.5713 138.4L71.8418 140.275L73.651 128.004C73.8857 126.413 75.2509 125.235 76.8601 125.235L108.634 125.235C110.242 125.235 111.607 126.413 111.842 128.004L113.651 140.275L139.923 138.4L140.85 125.105C140.961 123.524 142.196 122.255 143.774 122.102L173.878 119.199C173.967 119.191 174.057 119.187 174.147 119.186V115.266L174.16 115.262V70.0609H174.271C178.26 64.9688 181.952 59.6029 185.493 53.8788C180.791 45.8743 175.03 38.7212 168.872 32.0944C163.161 34.9691 157.613 38.2258 152.374 41.6917C149.752 39.0857 146.8 36.9533 143.899 34.7251C141.049 32.4361 137.837 30.7579 134.791 28.8028C135.698 22.0492 136.147 15.4003 136.328 8.46126C128.469 4.50572 120.087 1.88359 111.609 0C108.224 5.68884 105.129 11.8483 102.433 17.8709C99.2365 17.3368 96.0249 17.1387 92.8095 17.1005V17.0961C92.7871 17.0961 92.7661 17.1005 92.747 17.1005C92.7271 17.1005 92.7056 17.0961 92.6856 17.0961V17.1005C89.4639 17.1387 86.2547 17.3368 83.0574 17.8709C80.3633 11.8489 77.2702 5.68884 73.8804 0ZM11.2816 125.683C11.2941 128.594 11.3312 131.782 11.3312 132.417C11.3312 161.017 47.6127 174.764 92.6886 174.923H92.7996C137.876 174.764 174.146 161.017 174.146 132.417C174.146 131.771 174.186 128.595 174.199 125.683L147.129 128.294L146.196 141.66C146.083 143.271 144.802 144.553 143.191 144.668L111.111 146.957C111.033 146.963 110.955 146.966 110.878 146.966C109.283 146.966 107.908 145.795 107.673 144.194L105.833 131.719H79.6579L77.8184 144.194C77.5713 145.873 76.0705 147.081 74.3798 146.957L42.2998 144.668C40.6889 144.553 39.4078 143.271 39.2954 141.66L38.3633 128.294L11.2816 125.683Z" fill="#478CBF"/>
<path d="M50.0531 71.8633C40.0337 71.8633 31.9062 79.9825 31.9062 90.0035C31.9062 100.031 40.0332 108.154 50.0531 108.154C60.0774 108.154 68.2026 100.031 68.2026 90.0035C68.2026 79.9825 60.0774 71.8633 50.0531 71.8633ZM135.438 71.8633C125.412 71.8633 117.287 79.9825 117.287 90.0035C117.287 100.031 125.412 108.154 135.438 108.154C145.457 108.154 153.583 100.031 153.583 90.0035C153.583 79.9825 145.457 71.8633 135.438 71.8633ZM92.7417 82.4785C89.5151 82.4785 86.9 84.859 86.9 87.7877V104.496C86.9 107.427 89.515 109.805 92.7417 109.805C95.9684 109.805 98.59 107.427 98.59 104.496L98.59 87.7877C98.59 84.859 95.9686 82.4785 92.7417 82.4785Z" fill="white"/>
<path d="M51.7893 79.0352C45.136 79.0352 39.7429 84.4313 39.7429 91.0826C39.7429 97.734 45.1363 103.125 51.7893 103.125C58.4459 103.125 63.8368 97.7339 63.8368 91.0826C63.8368 84.4314 58.4456 79.0352 51.7893 79.0352ZM133.698 79.0352C127.047 79.0352 121.658 84.4313 121.658 91.0826C121.658 97.734 127.047 103.125 133.698 103.125C140.357 103.125 145.745 97.7339 145.745 91.0826C145.745 84.4314 140.356 79.0352 133.698 79.0352Z" fill="#414042"/>
</g>
<defs>
<clipPath id="clip0_1_4295">
<rect width="512" height="175" fill="white"/>
</clipPath>
</defs>
</svg>
