<svg width="256" height="256" viewBox="0 0 256 256" fill="none" xmlns="http://www.w3.org/2000/svg">
<g clip-path="url(#clip0_1_4305)">
<path d="M225.493 99.0137L256 166.667L203.787 256L171.627 177.92L225.493 99.0137Z" fill="url(#paint0_linear_1_4305)"/>
<path d="M171.627 177.92L203.787 256L122.88 228.187L171.627 177.92Z" fill="#B74AF7"/>
<path d="M180.347 72.2933L163.76 0H71.7867L0 109.813L20.7733 160.267L0 206.32L148.667 79.84L180.347 72.2933Z" fill="url(#paint1_linear_1_4305)"/>
<path d="M256 54.3457L148.667 79.839L0 206.319L95.8933 255.999L171.627 177.919L256 54.3457Z" fill="url(#paint2_linear_1_4305)"/>
<path d="M48 48H208V208H48V48Z" fill="black"/>
<path d="M63.0133 178H123.013V188H63.0133V178ZM58.5063 102.16V101.973C58.4759 92.8463 62.13 84.0935 68.641 77.698C75.152 71.3024 83.9687 67.8055 93.0933 67.9996C102.592 67.499 111.909 70.7448 119.04 77.0396L109.893 88.0796C105.256 83.6451 99.0555 81.2205 92.64 81.3329C82.1867 81.3329 74.0127 90.2967 73.6899 101.197L73.68 102.053C73.68 113.901 81.6574 122.645 93.0084 122.976L93.68 122.986C98.5355 123.129 103.313 121.739 107.333 119.013V109.52H92.72V96.9863H121.333V125.626C113.512 132.41 103.5 136.132 93.1467 136.107C72.64 136.107 58.5063 121.68 58.5063 102.16ZM127.467 102.16V101.973C127.498 92.7626 131.253 83.9564 137.878 77.5577C144.503 71.1589 153.434 67.7115 162.64 67.9996C182.692 67.9996 197.175 82.7363 197.591 101.107L197.6 102.106C197.612 111.34 193.879 120.183 187.255 126.616C180.868 132.819 172.319 136.269 163.441 136.255L162.453 136.24C142.08 136.106 127.467 120.933 127.467 102.16ZM182.427 102.16V101.973C182.592 96.5653 180.563 91.3207 176.801 87.4329C173.039 83.5451 167.863 81.3448 162.453 81.3327C157.083 81.3148 151.938 83.4861 148.204 87.3456C144.657 91.0122 142.675 95.9017 142.654 100.983L142.667 101.973C142.479 107.401 144.501 112.674 148.271 116.584C152.04 120.494 157.235 122.708 162.667 122.72C168.051 122.732 173.207 120.543 176.938 116.66C180.67 112.778 182.652 107.54 182.427 102.16Z" fill="white"/>
</g>
<defs>
<linearGradient id="paint0_linear_1_4305" x1="5495.66" y1="4779.01" x2="-359.379" y2="9734.48" gradientUnits="userSpaceOnUse">
<stop stop-color="#087CFA"/>
<stop offset="0.02" stop-color="#0D7BFA"/>
<stop offset="0.37" stop-color="#5566F9"/>
<stop offset="0.66" stop-color="#8A57F8"/>
<stop offset="0.88" stop-color="#AB4EF7"/>
<stop offset="1" stop-color="#B74AF7"/>
</linearGradient>
<linearGradient id="paint1_linear_1_4305" x1="8859.43" y1="7936" x2="14311.9" y2="1732.31" gradientUnits="userSpaceOnUse">
<stop stop-color="#087CFA"/>
<stop offset="0.02" stop-color="#0D7BFA"/>
<stop offset="0.37" stop-color="#5566F9"/>
<stop offset="0.66" stop-color="#8A57F8"/>
<stop offset="0.88" stop-color="#AB4EF7"/>
<stop offset="1" stop-color="#B74AF7"/>
</linearGradient>
<linearGradient id="paint2_linear_1_4305" x1="3557.33" y1="14384.4" x2="19975.8" y2="3833.95" gradientUnits="userSpaceOnUse">
<stop stop-color="#087CFA"/>
<stop offset="0.1" stop-color="#1598D3"/>
<stop offset="0.22" stop-color="#23B6AA"/>
<stop offset="0.35" stop-color="#2DCC8B"/>
<stop offset="0.46" stop-color="#35DD74"/>
<stop offset="0.57" stop-color="#39E767"/>
<stop offset="0.67" stop-color="#3BEA62"/>
</linearGradient>
<clipPath id="clip0_1_4305">
<rect width="256" height="256" fill="white"/>
</clipPath>
</defs>
</svg>
