<svg width="256" height="206" viewBox="0 0 256 206" fill="none" xmlns="http://www.w3.org/2000/svg">
<g clip-path="url(#clip0_1_4407)">
<path d="M170.252 56.8185L192.505 34.5655L193.988 25.1955C153.437 -11.6775 88.9758 -7.49646 52.4208 33.9195C42.2668 45.4225 34.7338 59.7635 30.7168 74.5725L38.6868 73.4495L83.1918 66.1105L86.6278 62.5965C106.425 40.8545 139.898 37.9295 162.756 56.4285L170.252 56.8185Z" fill="#EA4335"/>
<path d="M224.205 73.9173C219.09 55.0813 208.589 38.1483 193.988 25.1953L162.756 56.4273C175.944 67.2033 183.457 83.4373 183.135 100.464V106.008C198.486 106.008 210.932 118.453 210.932 133.804C210.932 149.156 198.486 161.289 183.135 161.289H127.464L121.998 167.223V200.563L127.464 205.794H183.135C223.065 206.105 255.687 174.3 255.998 134.37C256.186 110.167 244.253 87.4773 224.205 73.9173Z" fill="#4285F4"/>
<path d="M71.8704 205.795H127.463V161.289H71.8704C67.9094 161.288 64.0734 160.437 60.4714 158.791L52.5844 161.211L30.1754 183.464L28.2234 191.038C40.7904 200.527 56.1234 205.863 71.8704 205.795Z" fill="#34A853"/>
<path d="M71.8703 61.4262C31.9393 61.6642 -0.236688 94.2282 0.00131186 134.158C0.134312 156.456 10.5483 177.446 28.2233 191.039L60.4713 158.792C46.4803 152.471 40.2633 136.006 46.5843 122.016C52.9043 108.026 69.3703 101.809 83.3593 108.129C89.5243 110.914 94.4613 115.852 97.2463 122.016L129.494 89.7692C115.773 71.8322 94.4533 61.3452 71.8703 61.4262Z" fill="#FBBC05"/>
</g>
<defs>
<clipPath id="clip0_1_4407">
<rect width="256" height="206" fill="white"/>
</clipPath>
</defs>
</svg>
