<svg width="256" height="228" viewBox="0 0 256 228" fill="none" xmlns="http://www.w3.org/2000/svg">
<g clip-path="url(#clip0_1_4538)">
<path d="M165.979 0H90.0205L71.0964 19.0554V37.9795H90.0205V19.0554H165.979V37.9795H184.903V19.0554L165.979 0Z" fill="#737373"/>
<path d="M90.0205 0V19.0554H165.979V0H90.0205Z" fill="#BFBFBF"/>
<path d="M36.4025 37.9785L0 74.381V208.558C0 219.071 8.54209 227.482 18.924 227.482H237.076C247.589 227.482 256 218.939 256 208.558V74.5124L219.466 37.9785H36.4025Z" fill="url(#paint0_radial_1_4538)"/>
<path d="M28.5173 109.076H227.614V227.614H28.5173V109.076Z" fill="white"/>
<path d="M36.4025 37.9785L0 74.381V109.075H256V74.5124L219.466 37.9785H36.4025Z" fill="#E0E0E0"/>
<path d="M42.7104 213.289H128V227.482H42.7104V213.289Z" fill="#D1D1D1"/>
<path d="M28.5173 86.998C28.5173 78.8501 35.0882 72.2793 43.236 72.2793H212.764C220.912 72.2793 227.482 78.8501 227.482 86.998V109.076H28.5173V86.998Z" fill="#4285F4"/>
<path d="M56.9035 90.1512C56.9035 94.0937 53.7495 97.2477 49.807 97.2477C45.8645 97.2477 42.7104 94.0937 42.7104 90.1512C42.7104 86.2087 45.8645 83.0547 49.807 83.0547C53.7495 83.0547 56.9035 86.2087 56.9035 90.1512ZM80.5585 90.1512C80.5585 94.0937 77.4045 97.2477 73.462 97.2477C69.5195 97.2477 66.3655 94.0937 66.3655 90.1512C66.3655 86.2087 69.5195 83.0547 73.462 83.0547C77.4045 83.0547 80.5585 86.2087 80.5585 90.1512Z" fill="#E6E6E6"/>
<path d="M227.482 165.191L197.651 135.36L187.663 166.243L146.924 125.635L145.741 188.321L160.854 211.976C163.088 211.581 149.552 227.483 149.552 227.483H227.482V165.191Z" fill="#BABABA"/>
<path d="M208.821 164.008C208.821 147.187 198.965 132.731 184.903 125.766V165.717L166.111 175.836L147.055 165.717V125.635C132.994 132.6 123.4 147.187 123.4 163.877C123.4 180.698 133.125 195.154 147.187 202.119V227.483H185.035V202.119C198.965 195.286 208.821 180.698 208.821 164.008Z" fill="#4D4D4D"/>
<path d="M42.7104 123.27H109.076V199.097H42.7104V123.27Z" fill="#D1D1D1"/>
</g>
<defs>
<radialGradient id="paint0_radial_1_4538" cx="0" cy="0" r="1" gradientUnits="userSpaceOnUse" gradientTransform="translate(887.359 7701.87) rotate(44.9916) scale(17849.6 13816.4)">
<stop stop-color="#F1F2F2"/>
<stop offset="1" stop-color="#E6E7E8"/>
</radialGradient>
<clipPath id="clip0_1_4538">
<rect width="256" height="228" fill="white"/>
</clipPath>
</defs>
</svg>
