<svg width="512" height="204" viewBox="0 0 512 204" fill="none" xmlns="http://www.w3.org/2000/svg">
<g clip-path="url(#clip0_1_4511)">
<path d="M362.927 55.0572C377.002 55.0572 387.879 58.896 396.196 66.5736C404.514 74.2512 408.352 84.488 408.352 97.284V158.705H390.438V144.629H389.798C382.121 156.146 371.244 161.904 358.448 161.904C347.571 161.904 337.974 158.705 330.297 152.307C323.259 145.909 318.78 136.952 318.78 127.355C318.78 117.118 322.619 108.8 330.297 102.402C337.974 96.0044 348.851 93.4452 361.647 93.4452C373.163 93.4452 382.121 95.3646 389.158 99.8432V95.3646C389.158 89.3931 386.929 83.4217 382.47 79.5309L381.481 78.7298C376.362 74.2512 369.964 71.692 362.927 71.692C352.05 71.692 343.733 76.1706 337.974 85.1278L321.34 74.891C331.576 61.4552 345.012 55.0572 362.927 55.0572ZM272.715 11.5508C284.196 11.5508 295.106 15.5456 303.828 22.9962L305.345 24.3468C314.302 32.0244 318.78 43.5408 318.78 55.697C318.78 67.8532 314.302 78.7298 305.345 87.0472C296.387 95.3646 285.511 99.8432 272.715 99.8432L242.004 99.2034V158.705H222.81V11.5508H272.715ZM365.486 108.8C357.808 108.8 351.41 110.72 346.292 114.559C341.173 117.758 338.614 122.236 338.614 127.994C338.614 133.113 341.173 137.591 345.012 140.151C349.491 143.35 354.609 145.269 359.728 145.269C366.893 145.269 374.059 142.482 379.664 137.429L380.841 136.312C387.239 130.554 390.438 123.516 390.438 115.838C384.68 111.36 376.362 108.8 365.486 108.8ZM273.994 29.4652H242.004V80.6492H273.994C281.032 80.6492 288.07 78.09 292.549 72.9716C302.785 63.3746 302.785 47.3796 293.188 37.7826L292.549 37.1428C287.43 32.0244 281.032 28.8254 273.994 29.4652ZM512 58.2562L448.66 203.491H429.466L453.138 152.947L411.551 58.896H432.025L462.096 131.193H462.735L492.166 58.896H512V58.2562Z" fill="#5F6368"/>
<path d="M165.868 86.4074C165.868 80.6492 165.228 74.891 164.589 69.1328H84.6135V101.763H130.039C128.12 111.999 122.362 121.596 113.405 127.355V148.468H140.916C156.911 133.753 165.868 111.999 165.868 86.4074Z" fill="#4285F4"/>
<path d="M84.6136 168.941C107.646 168.941 126.84 161.263 140.916 148.467L113.405 127.354C105.727 132.472 96.13 135.671 84.6136 135.671C62.8604 135.671 43.6664 120.956 37.2684 100.482H9.11719V122.236C23.8326 151.027 52.6236 168.941 84.6136 168.941Z" fill="#34A853"/>
<path d="M37.2684 100.483C33.4296 90.2458 33.4296 78.7294 37.2684 67.8528V46.0996H9.11715C-3.03905 69.7722 -3.03905 97.9234 9.11715 122.236L37.2684 100.483Z" fill="#FBBC04"/>
<path d="M84.6136 33.304C96.7698 33.304 108.286 37.7826 117.243 46.1L141.556 21.7876C126.201 7.71202 105.727 -0.605378 85.2534 0.0344221C53.2634 0.0344221 23.8326 17.9488 9.75696 46.7398L37.9082 68.493C43.6664 48.0194 62.8604 33.304 84.6136 33.304Z" fill="#EA4335"/>
</g>
<defs>
<clipPath id="clip0_1_4511">
<rect width="512" height="204" fill="white"/>
</clipPath>
</defs>
</svg>
