<svg width="512" height="101" viewBox="0 0 512 101" fill="none" xmlns="http://www.w3.org/2000/svg">
<g clip-path="url(#clip0_1_4531)">
<path d="M502.725 42.4622L493.261 66.5638H492.978L483.104 42.4622H474.176L488.971 76.1539L480.517 94.8925H489.192L512 42.4622H502.725ZM435.847 22.4617H427.582V78.0467H435.847V22.4617ZM404.742 22.4617H384.868V78.0467H393.196V57.0052H404.773C409.488 57.1665 414.071 55.432 417.498 52.1892C420.925 48.9464 422.909 44.4659 423.007 39.7492C422.909 35.0242 420.921 30.5356 417.489 27.2869C414.056 24.0383 409.465 22.3004 404.742 22.4617ZM404.963 49.2447H393.196V30.3168H404.994C410.221 30.3168 414.458 34.554 414.458 39.7808C414.458 45.0076 410.221 49.2447 404.994 49.2447H404.963ZM456.226 41.2635C450.039 40.9086 444.23 44.2528 441.431 49.781L448.812 52.9357C450.307 50.2023 453.281 48.6162 456.384 48.8977C458.489 48.6868 460.592 49.3239 462.226 50.668C463.86 52.0121 464.891 53.9522 465.09 56.0588V56.6266C462.445 55.196 459.485 54.4478 456.478 54.4499C448.56 54.4499 440.484 58.8033 440.484 67.0685C440.484 74.5135 446.951 79.3086 454.27 79.3086C458.513 79.5779 462.561 77.4933 464.807 73.8825H465.122V78.1729H473.198V56.7843C473.198 46.9103 465.816 41.4212 456.289 41.4212L456.226 41.2635ZM455.248 71.7374C452.535 71.7374 448.749 70.3493 448.749 67.0054C448.749 62.7151 453.45 61.0747 457.551 61.0747C460.196 61.0039 462.811 61.6468 465.122 62.9359C464.492 67.9246 460.276 71.6825 455.248 71.7374ZM156.124 79.2455C139.788 79.2993 126.445 66.2093 126.186 49.8757C126.445 33.542 139.788 20.452 156.124 20.5059C163.68 20.38 170.969 23.3023 176.345 28.6133L170.635 34.2601C166.762 30.4653 161.546 28.356 156.124 28.3925C144.329 28.3925 134.767 37.9543 134.767 49.7495C134.767 61.5446 144.329 71.1065 156.124 71.1065C161.698 71.3353 167.109 69.1918 171.014 65.2073C173.581 62.4392 175.128 58.8782 175.399 55.1124H156.124V47.3204H183.254C183.55 48.9755 183.687 50.6551 183.664 52.3363C183.937 59.3196 181.429 66.1261 176.692 71.2642C171.283 76.7284 163.803 79.6309 156.124 79.2455ZM225.621 60.3176C225.903 67.1899 222.397 73.6645 216.488 77.1847C210.579 80.7049 203.217 80.7049 197.308 77.1847C191.399 73.6645 187.893 67.1899 188.175 60.3176C187.893 53.4452 191.399 46.9706 197.308 43.4504C203.217 39.9302 210.579 39.9302 216.488 43.4504C222.397 46.9706 225.903 53.4452 225.621 60.3176ZM217.419 60.3176C217.798 56.3206 215.88 52.4538 212.468 50.3376C209.056 48.2215 204.74 48.2215 201.328 50.3376C197.916 52.4538 195.998 56.3206 196.377 60.3176C195.998 64.3145 197.916 68.1813 201.328 70.2975C204.74 72.4136 209.056 72.4136 212.468 70.2975C215.88 68.1813 217.798 64.3145 217.419 60.3176ZM267.578 60.3176C267.578 70.6492 259.202 79.0246 248.871 79.0246C238.539 79.0246 230.164 70.6492 230.164 60.3176C230.164 49.9859 238.539 41.6105 248.871 41.6105C259.202 41.6105 267.578 49.9859 267.578 60.3176ZM259.407 60.3176C259.787 56.3206 257.869 52.4538 254.457 50.3376C251.045 48.2215 246.728 48.2215 243.316 50.3376C239.904 52.4538 237.986 56.3206 238.366 60.3176C237.986 64.3145 239.904 68.1813 243.316 70.2975C246.728 72.4136 251.045 72.4136 254.457 70.2975C257.869 68.1813 259.787 64.3145 259.407 60.3176ZM308.525 42.5569V76.5325C308.525 90.476 300.228 96.2175 290.449 96.2175C283.118 96.2792 276.471 91.9225 273.603 85.1762L280.764 82.0215C282.283 85.959 286.01 88.6054 290.228 88.741C296.537 88.741 300.386 84.8607 300.386 77.6366V74.9236H300.071C297.567 77.717 293.979 79.2926 290.228 79.2455C279.775 79.2455 271.3 70.7711 271.3 60.3176C271.3 49.864 279.775 41.3896 290.228 41.3896C294.003 41.3065 297.632 42.8456 300.197 45.6169H300.512V42.4622H308.525V42.5569ZM301.175 60.4122C301.409 57.5276 300.464 54.6714 298.556 52.4956C296.647 50.3198 293.939 49.0104 291.048 48.8662C288.102 48.9638 285.318 50.2424 283.325 52.4141C281.331 54.5858 280.295 57.4681 280.449 60.4122C280.312 63.3364 281.359 66.1925 283.354 68.3354C285.348 70.4783 288.122 71.7273 291.048 71.8005C293.922 71.6891 296.626 70.4117 298.537 68.2627C300.447 66.1138 301.4 63.279 301.175 60.4122ZM323.131 22.5248V78.0782H314.803V22.5248H323.131ZM355.94 66.5638L362.438 70.8541C358.914 76.1128 352.995 79.2619 346.665 79.2455C341.655 79.3172 336.833 77.3344 333.323 73.7586C329.813 70.1828 327.92 65.3257 328.084 60.3176C327.319 51.4972 333.295 43.5072 341.972 41.7476C350.648 39.988 359.264 45.0191 361.996 53.4404L362.848 55.6171L337.611 66.059C339.22 69.6754 342.867 71.9488 346.823 71.8005C350.561 71.7419 354.005 69.7632 355.94 66.5638ZM336.034 59.7497L353.006 52.7464C351.663 50.1185 348.884 48.5429 345.939 48.74C343.157 48.8617 340.54 50.0966 338.677 52.167C336.814 54.2375 335.862 56.9699 336.034 59.7497Z" fill="#5F6368"/>
<path d="M42.7141 48.2031L0.378662 92.5575C1.342 95.9719 3.82942 98.7492 7.11733 100.082C10.4052 101.414 14.1244 101.152 17.193 99.3716L64.8282 72.2416L42.7141 48.2031Z" fill="#EA4335"/>
<path d="M85.5226 40.6636L64.9228 28.8652L41.7361 49.2127L65.0174 72.1786L85.4595 60.5064C89.1508 58.5737 91.4639 54.7516 91.4639 50.585C91.4639 46.4184 89.1508 42.5963 85.4595 40.6636H85.5226Z" fill="#FBBC04"/>
<path d="M0.378801 8.39062C0.122892 9.33667 -0.00443863 10.3129 0.000118094 11.2929V89.6544C0.00280224 90.634 0.13001 91.6093 0.378801 92.5567L44.1654 49.338L0.378801 8.39062Z" fill="#4285F4"/>
<path d="M43.0295 50.4745L64.9228 28.8651L17.3507 1.60892C15.561 0.560754 13.5255 0.00561876 11.4515 2.26789e-05C6.304 -0.0101553 1.77866 3.40642 0.378662 8.35987L43.0295 50.4745Z" fill="#34A853"/>
</g>
<defs>
<clipPath id="clip0_1_4531">
<rect width="512" height="101" fill="white"/>
</clipPath>
</defs>
</svg>
