<svg width="512" height="66" viewBox="0 0 512 66" fill="none" xmlns="http://www.w3.org/2000/svg">
<g clip-path="url(#clip0_1_4557)">
<path d="M402.551 18.1985C406.567 18.1985 409.985 19.7792 412.804 22.9405C415.709 26.1018 417.161 29.9466 417.161 34.4749C417.161 39.0887 415.709 42.9762 412.804 46.1375C409.985 49.2988 406.567 50.8794 402.551 50.8794H402.423C400.202 50.8794 398.151 50.4095 396.271 49.4696C394.392 48.5298 392.982 47.2482 392.042 45.6248H391.786L392.042 49.8541V63.4391H386.275V19.0957H391.786V23.4531H392.042C392.982 21.8298 394.392 20.5482 396.271 19.6083C398.151 18.6685 400.244 18.1985 402.551 18.1985ZM369.87 18.0704C372.604 18.0704 375.082 18.7539 377.304 20.121C379.525 21.488 381.063 23.1968 381.917 25.2474L376.791 27.4261C376.212 26.1203 375.222 25.0399 373.971 24.3502C372.591 23.6243 371.045 23.2709 369.486 23.325C368.048 23.2626 366.624 23.6188 365.385 24.3502C364.189 25.1192 363.59 26.059 363.59 27.1698C363.59 28.964 365.257 30.2029 368.589 30.8864L373.203 32.168C379.354 33.6205 382.43 36.6963 382.43 41.3955C382.43 44.0442 381.277 46.3083 378.97 48.188C376.663 50.0677 373.672 50.9648 369.999 50.8794C366.923 50.8794 364.231 50.0677 361.924 48.4444C359.653 46.9143 357.907 44.7216 356.926 42.1645L362.053 39.9858C362.822 41.78 363.89 43.1898 365.257 44.2151C366.631 45.2231 368.294 45.7623 369.999 45.753C371.878 45.753 373.416 45.3685 374.612 44.5995C375.808 43.8306 376.449 42.8907 376.535 41.78C376.535 39.8149 375.039 38.3624 372.049 37.4226L366.666 36.141C360.686 34.6031 357.695 31.6981 357.695 27.4261C357.695 24.6066 358.849 22.3424 361.155 20.6336C363.462 18.9248 366.367 18.0704 369.87 18.0704ZM288.745 18.1985C293.359 18.1985 297.118 19.7365 300.023 22.8123C303.013 25.8882 304.509 29.7757 304.509 34.4749C304.509 39.2595 303.013 43.1898 300.023 46.2656C297.033 49.3415 293.273 50.8794 288.745 50.8794C284.217 50.8794 280.415 49.3415 277.339 46.2656C274.348 43.1898 272.853 39.2595 272.853 34.4749C272.853 29.7757 274.348 25.8882 277.339 22.8123C280.329 19.7365 284.131 18.1985 288.745 18.1985ZM497.005 18.1985C501.619 18.1985 505.25 19.651 507.899 22.556C510.548 25.461 511.915 29.6048 512 34.9875V35.6283H487.778C487.863 38.6187 488.846 41.0538 490.725 42.9335C492.605 44.8131 494.912 45.7103 497.646 45.6248C501.32 45.6248 504.225 43.7879 506.361 40.1139L511.487 42.6771C510.156 45.1778 508.161 47.2623 505.72 48.7007C503.328 50.1532 500.551 50.8794 497.39 50.8794C492.861 50.8794 489.145 49.3415 486.24 46.2656C483.335 43.1898 481.882 39.2595 481.882 34.4749C481.882 29.8611 483.292 25.9736 486.112 22.8123C488.931 19.651 492.562 18.1131 497.005 18.1985ZM466.375 18.1985C469.536 18.1985 472.27 18.9675 474.577 20.5054C476.884 22.0434 478.636 24.2221 479.832 27.0416L474.577 29.2203C472.954 25.3755 470.092 23.4531 465.99 23.4531C463.342 23.4531 461.035 24.5211 459.07 26.6571C457.19 28.7931 456.25 31.399 456.25 34.4749C456.25 37.5507 457.19 40.1994 459.07 42.4208C461.035 44.5568 463.342 45.6248 465.99 45.6248C470.177 45.6248 473.125 43.7024 474.834 39.8576L480.088 42.0363C478.892 44.8559 477.098 47.0346 474.705 48.5725C472.313 50.1104 469.536 50.8794 466.375 50.8794C461.761 50.8794 457.959 49.3415 454.969 46.2656C451.978 43.1043 450.483 39.1741 450.483 34.4749C450.483 29.7757 451.978 25.8882 454.969 22.8123C457.959 19.7365 461.761 18.1985 466.375 18.1985ZM432.925 18.1985C437.197 18.1985 440.572 19.3093 443.05 21.5307C445.528 23.7522 446.766 26.8707 446.766 30.8864V49.8541H441.256V45.6248H440.999C438.607 49.1279 435.403 50.8794 431.387 50.8794C428.055 50.8794 425.236 49.8968 422.929 47.9317C420.622 45.9666 419.468 43.4461 419.468 40.3703C419.468 37.209 420.665 34.6885 423.057 32.8088C425.449 30.9291 428.696 29.9893 432.797 29.9893C436.215 29.9893 439.034 30.5874 441.256 31.7835V30.5019C441.256 28.4514 440.444 26.7426 438.821 25.3755C437.322 24.0539 435.394 23.3252 433.398 23.3245L433.31 23.325C430.063 23.325 427.5 24.692 425.62 27.4261L420.494 24.2221C423.313 20.2064 427.457 18.1985 432.925 18.1985ZM223.64 4.99805L233.123 40.2421H233.38L243.12 11.0216H248.503L258.243 40.2421H258.499L267.47 4.99805H273.494L261.447 49.8541H255.551L245.939 20.2491H245.683L235.943 49.8541H230.048L217.616 4.99805H223.64ZM323.476 18.1985C325.1 18.1985 326.509 18.4549 327.706 18.9675L325.911 24.6066C325.228 24.3502 324.117 24.2221 322.579 24.2221C320.358 24.2221 318.435 25.0765 316.812 26.7853C315.189 28.4941 314.377 30.5446 314.377 32.937V49.8541H308.61V19.0957H314.121V24.2221H314.377C314.975 22.5133 316.214 21.1035 318.094 19.9928C319.973 18.8821 321.768 18.284 323.476 18.1985ZM336.164 4.99805V32.6807L349.493 19.0957H356.798V19.352L344.879 31.2709L357.439 49.5978V49.8541H350.39L340.906 35.372L336.164 40.1139V49.8541H330.397V4.99805H336.164ZM433.694 34.6031C431.387 34.6031 429.422 35.1584 427.799 36.2691C426.175 37.3799 425.406 38.7896 425.492 40.4984C425.492 42.0363 426.133 43.2752 427.414 44.2151C428.696 45.1549 430.191 45.6675 431.9 45.753C434.292 45.753 436.428 44.8559 438.308 43.0616C440.188 41.2674 441.17 39.1741 441.256 36.7818C439.461 35.3293 436.941 34.6031 433.694 34.6031ZM401.526 23.4531C398.706 23.4531 396.357 24.4784 394.477 26.529C392.683 28.665 391.786 31.3136 391.786 34.4749C391.786 37.8071 392.683 40.4984 394.477 42.549C396.357 44.5995 398.706 45.6248 401.526 45.6248C404.345 45.6248 406.695 44.5995 408.575 42.549C410.454 40.4984 411.394 37.8071 411.394 34.4749C411.394 31.3136 410.454 28.665 408.575 26.529C406.695 24.393 404.345 23.3677 401.526 23.4531ZM288.745 23.4531C285.925 23.4531 283.533 24.4784 281.568 26.529C279.603 28.5795 278.62 31.2282 278.62 34.4749C278.62 37.8071 279.603 40.4984 281.568 42.549C283.533 44.5995 285.925 45.6248 288.745 45.6248C291.564 45.6248 293.957 44.5995 295.922 42.549C297.887 40.4984 298.827 37.8071 298.741 34.4749C298.741 31.2282 297.802 28.5795 295.922 26.529C293.957 24.4784 291.564 23.4531 288.745 23.4531ZM496.877 23.4531C494.741 23.4531 492.904 24.0939 491.366 25.3755C489.828 26.6571 488.76 28.4514 488.162 30.7582H505.848C505.677 28.6222 504.823 26.8707 503.285 25.5037C501.747 24.1366 499.611 23.4531 496.877 23.4531Z" fill="#5F6368"/>
<path d="M25.8884 30.2458V23.197H49.2135C49.481 24.6338 49.6097 26.093 49.598 27.5544C49.598 32.6809 48.1882 39.217 43.5745 43.7026C39.0889 48.4446 33.4498 50.8796 25.7602 50.8796C11.7907 50.8796 0 39.4733 0 25.5039C0 11.5344 11.7907 0 25.7602 0C33.578 0 39.0889 3.07584 43.3181 7.04881L38.3199 11.9189C32.9957 6.83768 25.1351 5.46346 18.4028 8.43692C11.6704 11.4104 7.39176 18.1461 7.56145 25.5039C7.56145 35.7567 15.6355 43.959 25.7602 43.959C32.4245 43.959 36.2693 41.2676 38.7044 38.8325C40.6268 36.9101 41.9084 34.0906 42.421 30.2458H25.8884Z" fill="#4285F4"/>
<path d="M85.0984 34.4748C85.0984 43.9587 77.6651 50.8793 68.5657 50.8793C59.4663 50.8793 52.1612 43.9587 52.1612 34.4748C52.1612 24.991 59.5945 18.0703 68.5657 18.0703C77.5369 18.0703 85.0984 24.991 85.0984 34.4748ZM77.7932 34.4748C77.7932 28.5794 73.5639 24.6065 68.5657 24.6065C63.5674 24.6065 59.3382 28.5794 59.3382 34.4748C59.3382 40.3702 63.6956 44.4713 68.5657 44.4713C73.4358 44.4713 77.7932 40.3702 77.7932 34.4748Z" fill="#EA4335"/>
<path d="M120.983 34.4748C120.983 43.9587 113.55 50.8793 104.451 50.8793C95.3512 50.8793 88.0461 43.9587 88.0461 34.4748C88.0461 24.991 95.4793 18.0703 104.451 18.0703C113.422 18.0703 120.983 24.991 120.983 34.4748ZM113.678 34.4748C113.678 28.5794 109.449 24.6065 104.451 24.6065C99.4523 24.6065 95.223 28.5794 95.223 34.4748C95.223 40.3702 99.5805 44.4713 104.451 44.4713C109.321 44.4713 113.678 40.3702 113.678 34.4748Z" fill="#FBBC04"/>
<path d="M155.33 19.0956V48.5724C155.33 60.6195 148.153 65.6177 139.695 65.6177C131.749 65.6177 127.007 60.235 125.213 55.8776L131.492 53.3144C132.646 56.0057 135.337 59.2097 139.695 59.2097C145.205 59.2097 148.538 55.7494 148.538 49.5977V47.1627H148.281C146.073 49.6355 142.879 50.9976 139.566 50.8793C131.492 50.8793 123.931 43.7024 123.931 34.603C123.931 25.3754 131.492 18.0703 139.566 18.0703C143.539 18.0703 146.615 19.8646 148.281 21.787H148.538V19.0956H155.33ZM149.05 34.603C149.05 28.8358 145.206 24.6065 140.207 24.6065C135.337 24.6065 131.108 28.8358 131.108 34.603C131.108 40.242 135.337 44.4713 140.207 44.4713C145.206 44.4713 149.05 40.242 149.05 34.603Z" fill="#4285F4"/>
<path d="M160.328 1.92188H167.505V49.982H160.328V1.92188Z" fill="#34A853"/>
<path d="M195.316 39.8575L200.955 43.7024C199.161 46.2656 194.803 50.8793 187.242 50.8793C177.886 50.8793 170.966 43.7024 170.966 34.4748C170.966 24.7346 178.014 18.0703 186.473 18.0703C194.932 18.0703 199.161 24.8628 200.443 28.5794L201.212 30.3737L179.296 39.4731C180.962 42.8052 183.525 44.4713 187.242 44.4713C190.959 44.4713 193.394 42.6771 195.316 39.8575ZM178.143 33.9622L192.753 27.9386C191.984 25.8881 189.549 24.4783 186.729 24.4783C183.013 24.4783 177.886 27.6823 178.143 33.9622Z" fill="#EA4335"/>
</g>
<defs>
<clipPath id="clip0_1_4557">
<rect width="512" height="66" fill="white"/>
</clipPath>
</defs>
</svg>
