<svg width="512" height="76" viewBox="0 0 512 76" fill="none" xmlns="http://www.w3.org/2000/svg">
<g clip-path="url(#clip0_1_4432)">
<path d="M308.541 60.6367V20.3025H320.875C327.066 20.3025 332.021 22.1704 335.738 25.9062C339.456 29.642 341.311 34.4985 341.311 40.4696C341.311 46.4408 339.456 51.2973 335.738 55.0331C332.021 58.7689 327.066 60.6367 320.875 60.6367H308.541ZM313.722 55.6884H320.875C325.529 55.6884 329.216 54.3533 331.941 51.6892C334.661 49.0252 336.026 45.2833 336.026 40.4758C336.026 35.705 334.667 31.9753 331.941 29.2929C329.222 26.6105 325.529 25.2632 320.875 25.2632H313.722V55.6884ZM348.158 36.3297C350.822 33.5309 354.221 32.1346 358.349 32.1346C362.477 32.1346 365.876 33.537 368.54 36.3297C371.204 39.1284 372.539 42.6315 372.539 46.8388C372.539 51.0462 371.204 54.5493 368.54 57.348C365.876 60.1468 362.477 61.5431 358.349 61.5431C354.221 61.5431 350.822 60.1468 348.158 57.348C345.494 54.5493 344.159 51.0462 344.159 46.8388C344.159 42.6315 345.494 39.1284 348.158 36.3297ZM352.017 54.0777C353.799 55.9027 355.912 56.8091 358.349 56.8091C360.787 56.8091 362.899 55.8966 364.682 54.0777C366.464 52.2588 367.358 49.8458 367.358 46.8388C367.358 43.8318 366.464 41.4189 364.682 39.6C362.899 37.7811 360.787 36.8686 358.349 36.8686C355.912 36.8686 353.799 37.7811 352.017 39.6C350.234 41.425 349.34 43.838 349.34 46.8388C349.34 49.7488 350.178 52.1025 351.847 53.8998L352.017 54.0777ZM376.213 60.6429V33.0348H381.168V36.8686H381.395C382.185 35.5519 383.391 34.4373 385.026 33.5186C386.661 32.6 388.284 32.1407 389.895 32.1407C394.176 32.1407 397.085 33.9045 398.622 37.4381C400.876 33.9106 404.085 32.1407 408.249 32.1407C411.514 32.1407 413.976 33.1818 415.623 35.2702C417.276 37.3524 418.103 40.1818 418.103 43.7522V60.6551H412.922V44.53C412.922 41.7496 412.414 39.7776 411.403 38.614C410.387 37.4504 408.85 36.8686 406.786 36.8686C404.759 36.8686 403.08 37.7321 401.745 39.4591C400.41 41.1862 399.749 43.1582 399.749 45.3752V60.6429H394.568V44.53C394.568 41.7496 394.059 39.7776 393.049 38.614C392.032 37.4504 390.495 36.8686 388.431 36.8686C386.404 36.8686 384.726 37.7321 383.391 39.4591C382.056 41.1862 381.395 43.1582 381.395 45.3752V60.6429H376.213ZM431.779 61.5431C428.851 61.5431 426.402 60.698 424.43 59.0077C422.458 57.3174 421.472 55.0821 421.472 52.3017C421.472 49.2947 422.635 46.943 424.962 45.2282C427.29 43.5195 430.162 42.6621 433.579 42.6621C436.617 42.6621 439.115 43.2255 441.069 44.3524V43.5624C441.069 41.5353 440.371 39.9123 438.987 38.6875C437.597 37.4688 435.888 36.8563 433.861 36.8563C432.36 36.8563 431.001 37.2115 429.776 37.9281C428.557 38.6446 427.718 39.6184 427.271 40.8555L422.543 38.8284C423.18 37.1748 424.436 35.6437 426.316 34.2352C428.19 32.8266 430.67 32.1223 433.751 32.1223C437.278 32.1223 440.206 33.1573 442.533 35.2212C444.86 37.285 446.024 40.2002 446.024 43.9543V60.6306H441.069V56.7969H440.842C438.824 59.9002 435.89 61.4739 432.037 61.5409L431.779 61.5431ZM432.624 56.8152C434.761 56.8152 436.709 56.0191 438.454 54.4207C440.199 52.8222 441.069 50.936 441.069 48.7557C439.605 47.5554 437.407 46.9552 434.479 46.9552C431.962 46.9552 430.07 47.5003 428.79 48.5904C427.516 49.6805 426.873 50.9543 426.873 52.4242C426.873 53.7776 427.455 54.8493 428.619 55.6333C429.719 56.371 430.967 56.7671 432.361 56.8111L432.624 56.8152ZM456.208 26.1083C455.498 26.8248 454.634 27.1801 453.618 27.1801C452.601 27.1801 451.738 26.8248 451.027 26.1083C450.317 25.3979 449.955 24.5283 449.955 23.5178C449.955 22.5011 450.311 21.6376 451.027 20.9272C451.738 20.2168 452.601 19.8555 453.618 19.8555C454.634 19.8555 455.492 20.2107 456.208 20.9272C456.919 21.6437 457.28 22.5073 457.28 23.5178C457.28 24.4688 456.965 25.2897 456.331 25.9803L456.208 26.1083ZM456.208 60.6429H451.027V33.0348H456.208V60.6429ZM466.558 33.0348V36.8686H466.785C467.532 35.5519 468.72 34.4373 470.331 33.5186C471.948 32.6 473.668 32.1407 475.512 32.1407C478.929 32.1407 481.538 33.1941 483.339 35.2947C485.139 37.4014 486.039 40.2185 486.039 43.7461V60.649H480.858V44.53C480.858 39.4224 478.586 36.8686 474.048 36.8686C471.911 36.8686 470.165 37.726 468.812 39.4346C467.458 41.1433 466.785 43.1276 466.785 45.3813V60.649H461.604V33.0348H466.558ZM501.123 61.5431C498.043 61.5431 495.501 60.7899 493.493 59.2894C491.484 57.789 490.008 55.9088 489.071 53.6551L493.689 51.7382C495.152 55.1923 497.651 56.9193 501.178 56.9193C502.789 56.9193 504.112 56.5641 505.147 55.8476C506.182 55.1372 506.696 54.1941 506.696 53.0304C506.696 51.2299 505.441 50.0051 502.924 49.3682L497.351 48.0147C495.587 47.5615 493.915 46.7102 492.341 45.4486C490.767 44.1932 489.977 42.4906 489.977 40.3472C489.977 37.9036 491.055 35.9255 493.217 34.4005C495.373 32.8817 497.939 32.1162 500.903 32.1162C503.34 32.1162 505.521 32.6735 507.437 33.7759C509.354 34.8843 510.72 36.4705 511.547 38.5344L507.039 40.3962C506.029 37.9526 503.922 36.7339 500.731 36.7339C499.194 36.7339 497.896 37.0523 496.849 37.6892C495.795 38.3262 495.275 39.1897 495.275 40.2798C495.275 41.8147 496.425 42.8642 498.731 43.4394L504.4 44.7872C506.99 45.3874 508.901 46.4224 510.144 47.8861C511.381 49.3498 512 51.0033 512 52.8467C512 55.327 510.983 57.3909 508.956 59.0444C506.985 60.6606 504.481 61.4871 501.44 61.5404L501.123 61.5431Z" fill="#5F6368"/>
<path d="M133.957 61.5371C121.402 61.5371 110.85 51.3035 110.85 38.7305C110.85 26.1574 121.402 15.9238 133.957 15.9238C140.902 15.9238 145.844 18.6491 149.568 22.2073L145.177 26.5984C142.513 24.0936 138.899 22.1461 133.957 22.1461C124.789 22.1461 117.624 29.5441 117.624 38.7244C117.624 47.9046 124.789 55.2965 133.957 55.2965C139.904 55.2965 143.29 52.9081 145.458 50.734C147.234 48.9518 148.404 46.398 148.845 42.8888H133.798V36.6727H154.902C155.122 37.7873 155.233 39.1224 155.233 40.5677C155.233 45.2405 153.953 51.0279 149.843 55.1434C145.916 59.2335 140.919 61.4569 134.319 61.535L133.957 61.5371ZM186.84 46.8512C186.84 55.3088 180.238 61.5371 172.136 61.5371C164.033 61.5371 157.431 55.3088 157.431 46.8512C157.431 38.3385 164.033 32.1653 172.136 32.1653C180.238 32.1653 186.84 38.3385 186.84 46.8512ZM180.403 46.8512C180.403 41.566 176.576 37.9527 172.136 37.9527C167.695 37.9527 163.868 41.566 163.868 46.8512C163.868 52.0813 167.695 55.7497 172.136 55.7497C176.576 55.7497 180.403 52.0752 180.403 46.8512ZM218.845 46.8512C218.845 55.3088 212.243 61.5371 204.141 61.5371C196.038 61.5371 189.437 55.3027 189.437 46.8512C189.437 38.3385 196.038 32.1653 204.141 32.1653C212.243 32.1653 218.845 38.3385 218.845 46.8512ZM212.409 46.8512C212.409 41.566 208.581 37.9527 204.141 37.9527C199.701 37.9527 195.873 41.566 195.873 46.8512C195.873 52.0813 199.701 55.7497 204.141 55.7497C208.581 55.7497 212.409 52.0752 212.409 46.8512ZM249.46 33.0533V59.4181C249.46 70.2642 243.073 74.7165 235.515 74.7165C228.405 74.7165 224.13 69.9335 222.52 66.0384L228.129 63.7051C229.128 66.0997 231.571 68.9352 235.515 68.9352C240.347 68.9352 243.348 65.9343 243.348 60.3123V58.1994H243.128C241.682 59.9816 238.908 61.5371 235.405 61.5371C228.074 61.5371 221.35 55.1434 221.35 46.9063C221.35 38.6202 228.074 32.1653 235.405 32.1653C238.902 32.1653 241.682 33.7209 243.128 35.4479H243.348V33.0533H249.46ZM243.789 46.9063C243.789 41.7314 240.347 37.9527 235.956 37.9527C231.51 37.9527 227.793 41.7375 227.793 46.9063C227.793 52.0262 231.516 55.7497 235.956 55.7497C240.347 55.7497 243.789 52.0201 243.789 46.9063ZM260.539 17.4794V60.643H254.096V17.4794H260.539ZM285.514 51.6894L290.511 55.0271L290.356 55.2528C288.658 57.671 284.805 61.5371 278.293 61.5371C269.958 61.5371 263.742 55.0822 263.742 46.8512C263.742 38.1181 270.019 32.1653 277.577 32.1653C285.189 32.1653 288.906 38.2283 290.131 41.5109L290.799 43.1767L271.183 51.2974C272.683 54.2432 275.017 55.7497 278.293 55.7497C281.57 55.7497 283.848 54.1391 285.514 51.6894ZM270.123 46.4041L283.235 40.9536C282.513 39.1163 280.345 37.8363 277.791 37.8363C274.56 37.8363 270.084 40.6532 270.119 46.1695L270.123 46.4041Z" fill="#5F6368"/>
<path d="M78.643 0C80.6579 0 82.0174 2.05774 81.2213 3.90726L52.8232 71.8434C51.7454 74.3298 49.2895 75.9405 46.5765 75.9405H27.1688C25.1539 75.9405 23.7454 73.9501 24.5476 72.1006L26.7707 66.7664L31.6211 38.4418L45.713 21.3123L52.8906 4.09711C53.9623 1.61067 55.9711 0 58.6841 0H78.643Z" fill="#4285F4"/>
<path d="M45.811 21.0741C40.8748 16.2788 34.1137 13.3575 26.6789 13.4371C11.7847 13.6025 -0.163659 25.7775 0.00169576 40.6287C0.160926 55.2473 11.9991 67.0058 26.5809 67.214C26.6482 67.0303 39.6255 46.6611 39.6255 46.6611C39.6255 46.6611 45.811 21.0863 45.811 21.0741Z" fill="#FBBC04"/>
<path d="M45.811 21.0742C45.811 21.0742 26.5625 67.2203 26.5809 67.2203C26.8136 67.2265 27.0463 67.2265 27.2791 67.2203C42.1793 67.055 54.1216 54.8861 53.9562 40.0287C53.8766 32.5939 50.7655 25.894 45.811 21.0742Z" fill="#EA4335"/>
</g>
<defs>
<clipPath id="clip0_1_4432">
<rect width="512" height="76" fill="white"/>
</clipPath>
</defs>
</svg>
