<svg width="256" height="239" viewBox="0 0 256 239" fill="none" xmlns="http://www.w3.org/2000/svg">
<g clip-path="url(#clip0_1_4427)">
<path d="M247.17 0C253.503 0 257.776 6.46737 255.274 12.2803L166.02 225.8C162.633 233.614 154.914 238.677 146.387 238.677H85.39C79.0574 238.677 74.6303 232.421 77.1518 226.608L84.1389 209.843L99.3834 120.82L143.673 66.9835L166.232 12.877C169.601 5.06226 175.914 0 184.441 0H247.17Z" fill="#4285F4"/>
<path d="M143.981 66.232C128.467 51.1607 107.217 41.9794 83.8501 42.2296C37.0387 42.7493 -0.51437 81.0146 0.00532968 127.691C0.505781 173.637 37.7124 210.593 83.5422 211.247C83.7539 210.67 124.541 146.651 124.541 146.651C124.541 146.651 143.981 66.2705 143.981 66.232Z" fill="#FBBC04"/>
<path d="M143.981 66.2324C143.981 66.2324 83.4845 211.267 83.5422 211.267C84.2736 211.286 85.005 211.286 85.7365 211.267C132.567 210.747 170.101 172.501 169.581 125.805C169.331 102.438 159.553 81.3807 143.981 66.2324Z" fill="#EA4335"/>
</g>
<defs>
<clipPath id="clip0_1_4427">
<rect width="256" height="239" fill="white"/>
</clipPath>
</defs>
</svg>
