<svg width="256" height="283" viewBox="0 0 256 283" fill="none" xmlns="http://www.w3.org/2000/svg">
<g clip-path="url(#clip0_1_4525)">
<path d="M119.553 134.916L1.06006 259.06C3.75635 268.617 10.7184 276.39 19.921 280.12C29.1236 283.849 39.5333 283.115 48.1218 278.132L181.449 202.198L119.553 134.916Z" fill="#EA4335"/>
<path d="M239.371 113.814L181.714 80.791L116.816 137.742L181.979 202.021L239.194 169.352C249.526 163.943 256 153.245 256 141.583C256 129.921 249.526 119.223 239.194 113.814H239.371Z" fill="#FBBC04"/>
<path d="M1.05999 23.4863C0.34372 26.1342 -0.0126675 28.8665 8.63935e-05 31.6096V250.937C0.00759908 253.679 0.363643 256.408 1.05999 259.06L123.615 138.095L1.05999 23.4863Z" fill="#4285F4"/>
<path d="M120.436 141.274L181.714 80.791L48.5633 4.50322C43.5541 1.5695 37.857 0.0157264 32.052 6.34762e-05C17.6446 -0.0284239 4.97853 9.53427 1.06006 23.3986L120.436 141.274Z" fill="#34A853"/>
</g>
<defs>
<clipPath id="clip0_1_4525">
<rect width="256" height="283" fill="white"/>
</clipPath>
</defs>
</svg>
