<svg width="256" height="257" viewBox="0 0 256 257" fill="none" xmlns="http://www.w3.org/2000/svg">
<g clip-path="url(#clip0_1_4611)">
<path d="M128 0C198.696 0 256 57.3602 256 128.125C256 196.716 202.156 252.72 134.464 256.09H121.536C53.8486 252.72 0 196.716 0 128.125C0 57.3602 57.3094 0 128 0Z" fill="#15C39A"/>
<path d="M122.864 53.0043C151.607 51.0771 177.168 65.299 191.393 87.5261C193.643 91.4046 192.551 96.3348 188.812 98.9293C184.872 101.665 179.688 100.459 176.725 96.284C166.448 81.8059 148.508 69.8288 128.056 69.8288C88.8149 69.8288 58.7028 109.235 74.5183 150.508C81.4851 168.691 97.9973 181.709 117.221 184.731C140.834 188.438 162.431 180.033 174.87 161.767L167.097 162.859H153.684C149.426 162.859 145.486 159.984 144.728 155.79C143.733 150.286 147.934 145.49 153.254 145.49H200.348V194.935C200.348 200.261 195.562 204.467 190.058 203.474C185.867 202.716 183.001 198.768 183.001 194.511V186.255L184.631 177.121C170.858 193.045 150.638 202.89 128.056 202.89C85.0646 202.89 50.4974 167.276 52.9985 123.658C55.15 86.1728 85.4383 55.5188 122.864 53.0043Z" fill="white"/>
</g>
<defs>
<clipPath id="clip0_1_4611">
<rect width="256" height="257" fill="white"/>
</clipPath>
</defs>
</svg>
