<svg width="512" height="121" viewBox="0 0 512 121" fill="none" xmlns="http://www.w3.org/2000/svg">
<g clip-path="url(#clip0_1_4615)">
<path d="M168.135 40.1327C173.634 40.1327 177.075 42.2545 179.895 45.1137L180.417 45.6581C180.502 45.7502 180.588 45.8429 180.673 45.9362V45.8621C180.673 42.8894 183.138 40.4239 186.182 40.4239C189.225 40.4239 191.688 42.8894 191.688 45.9362V70.9653C191.688 77.9325 190.024 83.0092 186.761 86.2744C183.138 89.9023 177.556 91.4979 170.02 91.4979C164.871 91.4979 160.377 90.6279 155.813 88.8127C153.929 88.0896 152.696 86.5643 152.696 84.5319C152.696 82.0664 154.724 80.0365 157.19 80.0365C157.916 80.0365 158.493 80.1796 159.001 80.3981C162.191 81.8492 165.597 82.7192 169.73 82.7192C177.267 82.7192 180.819 79.0925 180.819 72.1265V70.2398C177.556 74.159 174.007 76.5517 168.135 76.5517C159.197 76.5517 151.103 70.127 150.886 58.8793L150.882 58.27C150.882 46.6617 159.219 40.1327 168.135 40.1327ZM171.324 49.2729C166.068 49.2729 162.064 52.8259 161.906 57.9541L161.901 58.4143C161.901 63.7822 165.961 67.4102 171.324 67.4102C176.58 67.4102 180.654 63.8584 180.815 58.7303L180.819 58.27C180.819 52.9724 176.687 49.2729 171.324 49.2729ZM238.879 40.4239C244.894 40.4239 249.244 42.0195 251.997 44.775C254.896 47.6748 256.203 51.9593 256.203 57.1828V74.882C256.203 77.8585 253.811 80.1796 250.838 80.1796C247.749 80.1796 245.68 78.0708 245.554 75.8264L245.548 75.5348C242.865 78.5113 239.169 80.4684 233.804 80.4684C226.607 80.4684 220.669 76.4019 220.473 68.9531L220.468 68.427C220.468 59.9383 226.917 56.0191 236.125 56.0191C240.038 56.0191 242.865 56.6719 245.621 57.6147V56.9632C245.621 52.3937 242.792 49.8528 237.285 49.8528C234.241 49.8528 231.775 50.2897 229.674 50.9425C229.022 51.1597 228.588 51.2337 228.08 51.2337C225.544 51.2337 223.513 49.2729 223.513 46.732C223.513 44.775 224.743 43.1066 226.485 42.4513C229.964 41.147 233.734 40.4239 238.879 40.4239ZM216.41 40.4239C219.817 40.4239 221.773 42.671 221.773 45.7893C221.773 48.5916 220.015 50.3125 217.874 50.8855L217.643 50.9425C212.059 52.2493 208.942 56.5276 208.942 64.3635V74.6649C208.942 77.7116 206.479 80.1796 203.436 80.1796C200.389 80.1796 197.926 77.7116 197.926 74.6649V45.9362C197.926 42.8894 200.389 40.4239 203.436 40.4239C206.479 40.4239 208.942 42.8894 208.942 45.9362V47.6748C210.539 43.905 213.146 40.4239 216.41 40.4239ZM238.733 62.6223C234.021 62.6223 231.124 64.5078 231.124 67.9927V68.137C231.124 71.1122 233.589 72.8521 237.138 72.8521C242.286 72.8521 245.765 70.0226 245.765 66.0331V64.0735C243.881 63.2035 241.418 62.6223 238.733 62.6223ZM308.245 40.1327C316.438 40.1327 321.366 45.0662 321.366 54.4274V74.6649C321.366 77.7116 318.901 80.1796 315.856 80.1796C312.812 80.1796 310.347 77.7116 310.347 74.6649V58.0528C310.347 52.828 308.028 50.1428 303.898 50.1428C299.765 50.1428 297.229 52.828 297.229 58.0528V74.6649C297.229 77.7116 294.766 80.1796 291.72 80.1796C288.675 80.1796 286.21 77.7116 286.21 74.6649V58.0528C286.21 52.828 283.894 50.1428 279.761 50.1428C275.629 50.1428 273.095 52.828 273.095 58.0528V74.6649C273.095 77.7116 270.63 80.1796 267.586 80.1796C264.539 80.1796 262.076 77.7116 262.076 74.6649V45.9362C262.076 42.8894 264.539 40.4239 267.586 40.4239C270.63 40.4239 273.095 42.8894 273.095 45.9362V46.373C275.629 43.1066 278.965 40.1327 284.545 40.1327C289.618 40.1327 293.461 42.381 295.488 46.3002C298.897 42.3094 302.956 40.1327 308.245 40.1327ZM373.482 40.1327C381.674 40.1327 386.603 45.0662 386.603 54.4274V74.6649C386.603 77.7116 384.14 80.1796 381.093 80.1796C378.049 80.1796 375.583 77.7116 375.583 74.6649V58.0528C375.583 52.828 373.265 50.1428 369.135 50.1428C365.002 50.1428 362.466 52.828 362.466 58.0528V74.6649C362.466 77.7116 360.003 80.1796 356.957 80.1796C353.912 80.1796 351.449 77.7116 351.449 74.6649V58.0528C351.449 52.828 349.131 50.1428 344.998 50.1428C340.865 50.1428 338.331 52.828 338.331 58.0528V74.6649C338.331 77.7116 335.865 80.1796 332.822 80.1796C329.776 80.1796 327.313 77.7116 327.313 74.6649V45.9362C327.313 42.8894 329.776 40.4239 332.822 40.4239C335.865 40.4239 338.331 42.8894 338.331 45.9362V46.373C340.865 43.1066 344.202 40.1327 349.782 40.1327C354.855 40.1327 358.696 42.381 360.725 46.3002C364.133 42.3094 368.192 40.1327 373.482 40.1327ZM408.641 40.4239C414.657 40.4239 419.005 42.0195 421.758 44.775C424.658 47.6748 425.962 51.9593 425.962 57.1828V74.882C425.962 77.8585 423.572 80.1796 420.602 80.1796C417.51 80.1796 415.441 78.0708 415.315 75.8264L415.309 75.5348C412.626 78.5113 408.928 80.4684 403.568 80.4684C396.367 80.4684 390.43 76.4019 390.235 68.9531L390.23 68.427C390.23 59.9383 396.682 56.0191 405.884 56.0191C409.799 56.0191 412.626 56.6719 415.379 57.6147V56.9632C415.379 52.3937 412.556 49.8528 407.044 49.8528C404 49.8528 401.537 50.2897 399.435 50.9425C398.784 51.1597 398.349 51.2337 397.841 51.2337C395.302 51.2337 393.274 49.2729 393.274 46.732C393.274 44.775 394.507 43.1066 396.245 42.4513C399.725 41.147 403.495 40.4239 408.641 40.4239ZM408.496 62.6223C403.782 62.6223 400.885 64.5078 400.885 67.9927V68.137C400.885 71.1122 403.348 72.8521 406.899 72.8521C412.045 72.8521 415.526 70.0226 415.526 66.0331V64.0735C413.642 63.2035 411.176 62.6223 408.496 62.6223ZM450.321 40.4239C453.727 40.4239 455.681 42.671 455.681 45.7893C455.681 48.5916 453.925 50.3125 451.782 50.8855L451.551 50.9425C445.971 52.2493 442.854 56.5276 442.854 64.3635V74.6649C442.854 77.7116 440.391 80.1796 437.344 80.1796C434.3 80.1796 431.834 77.7116 431.834 74.6649V45.9362C431.834 42.8894 434.3 40.4239 437.344 40.4239C440.391 40.4239 442.854 42.8894 442.854 45.9362V47.6748C444.448 43.905 447.057 40.4239 450.321 40.4239ZM464.525 26.3477C467.572 26.3477 470.037 28.8119 470.037 31.8586V74.6649C470.037 77.7116 467.572 80.1796 464.525 80.1796C461.481 80.1796 459.018 77.7116 459.018 74.6649V31.8586C459.018 28.8119 461.481 26.3477 464.525 26.3477ZM506.784 40.4239C509.611 40.4239 512 42.5982 512 45.5005C512 46.373 511.712 47.6045 511.495 48.1129L497.94 80.688C494.679 88.5955 491.418 91.5707 484.823 91.5707C482.357 91.5707 480.619 91.2091 478.807 90.5551C477.212 89.9751 475.326 88.6683 475.326 85.9856C475.326 83.3004 477.429 81.4852 479.677 81.4852C480.353 81.4852 480.81 81.5733 481.184 81.6804L481.487 81.7752C482.43 82.0664 483.011 82.2133 483.81 82.2133C485.764 82.2133 486.707 81.8492 487.723 79.8896L488.083 79.0197L474.821 48.2573C474.531 47.5317 474.24 46.4446 474.24 45.7177C474.24 42.5982 476.633 40.4239 479.677 40.4239C482.332 40.4239 483.909 41.8387 484.863 44.2798L493.376 67.193L501.491 44.6281C502.364 42.3094 503.954 40.4239 506.784 40.4239Z" fill="black"/>
<path d="M60.1979 0C93.4458 0 120.396 26.9762 120.396 60.2569C120.396 92.5145 95.0732 118.853 63.238 120.438H57.1579C25.3248 118.853 0 92.5145 0 60.2569C0 26.9762 26.9524 0 60.1979 0Z" fill="#15C39A"/>
<path d="M57.7826 24.9277C71.3002 24.0213 83.3215 30.7098 90.0112 41.1631C91.0695 42.9871 90.5561 45.3058 88.7973 46.526C86.9444 47.8127 84.5065 47.2453 83.1131 45.2819C78.28 38.4729 69.8428 32.8401 60.2243 32.8401C41.7693 32.8401 27.6077 51.3729 35.0457 70.7831C38.3222 79.3346 46.0878 85.4569 55.1288 86.878C66.2336 88.6217 76.3907 84.6686 82.2406 76.0782L78.585 76.5916H72.2769C70.2746 76.5916 68.4217 75.2396 68.0652 73.2675C67.5969 70.6789 69.5729 68.4231 72.0748 68.4231H94.2229V91.6772C94.2229 94.1816 91.9721 96.16 89.3836 95.6931C87.4127 95.3365 86.0644 93.4799 86.0644 91.4776V87.5948L86.8314 83.299C80.3538 90.7884 70.8445 95.4181 60.2243 95.4181C40.0056 95.4181 23.7488 78.6692 24.925 58.1555C25.9369 40.5267 40.1813 26.1102 57.7826 24.9277Z" fill="white"/>
</g>
<defs>
<clipPath id="clip0_1_4615">
<rect width="512" height="121" fill="white"/>
</clipPath>
</defs>
</svg>
