<svg width="256" height="256" viewBox="0 0 256 256" fill="none" xmlns="http://www.w3.org/2000/svg">
<g clip-path="url(#clip0_1_4638)">
<path d="M102.397 25.589V115.184C102.397 129.316 113.854 140.773 127.986 140.773C142.119 140.773 153.575 129.316 153.575 115.184V55.5772C185.84 66.9523 206.691 98.2961 204.715 132.45C202.738 166.604 178.41 195.333 145.049 202.91C111.687 210.487 77.336 195.085 60.8004 165.135C44.2648 135.186 49.5316 97.9102 73.7175 73.7143C83.5451 63.6809 83.4619 47.6053 73.5308 37.6743C63.5998 27.7432 47.5243 27.66 37.4909 37.4876C-5.68735 80.6653 -12.3517 148.331 21.5736 199.103C55.4989 249.874 120.565 269.61 176.979 246.241C233.393 222.871 265.442 162.905 253.527 103.017C241.611 43.1275 189.049 -0.00399423 127.986 2.77432e-07C113.854 2.77432e-07 102.397 11.4566 102.397 25.589Z" fill="#4678EB"/>
</g>
<defs>
<clipPath id="clip0_1_4638">
<rect width="256" height="256" fill="white"/>
</clipPath>
</defs>
</svg>
