<svg width="512" height="188" viewBox="0 0 512 188" fill="none" xmlns="http://www.w3.org/2000/svg">
<g clip-path="url(#clip0_1_4720)">
<path d="M512 0H0V188H512V0Z" fill="#262626"/>
<path d="M163.014 121.689C163.014 121.081 163.275 120.82 163.883 120.82H173.529C173.877 120.82 174.051 121.081 174.051 121.689V122.124C174.051 122.733 173.878 122.993 173.529 122.993H165.448V129.337H172.661C173.008 129.337 173.182 129.598 173.182 130.206V130.641C173.182 131.249 173.009 131.51 172.661 131.51H165.448V138.289H173.529C173.877 138.289 174.051 138.549 174.051 139.157V139.592C174.051 140.201 173.878 140.461 173.529 140.461H163.796C163.188 140.461 162.927 140.201 162.927 139.592V121.69L163.014 121.689ZM177.703 139.765L177.788 129.945L177.786 129.623C177.755 127.578 177.441 126.552 177.441 126.469C177.441 125.948 178.571 125.861 178.918 125.861C179.614 125.861 179.7 126.991 179.874 127.686C181.004 126.382 182.655 125.6 184.22 125.6C187.088 125.6 188.739 127.251 188.739 130.119V139.765C188.739 140.113 188.392 140.374 187.609 140.374H187.522C186.74 140.374 186.393 140.114 186.393 139.765V130.38C186.393 128.728 185.35 127.686 183.525 127.686C182.308 127.686 180.918 128.468 180.049 129.598V139.765C180.049 140.113 179.701 140.374 178.919 140.374H178.832C178.05 140.374 177.703 140.114 177.703 139.765ZM194.909 139.157C193.866 138.723 193.171 138.028 193.171 136.898C193.171 135.507 194.3 134.899 195.257 134.552C193.605 133.77 192.736 132.205 192.736 130.38C192.736 127.773 194.648 125.601 198.298 125.601C198.994 125.601 199.602 125.687 200.123 125.774H204.903C205.25 125.774 205.425 126.034 205.425 126.643V126.991C205.425 127.599 205.251 127.859 204.903 127.859H202.991C203.6 128.642 203.947 129.511 203.947 130.467C203.947 133.074 202.036 135.246 198.385 135.246H198.125C197.43 135.246 195.778 135.42 195.778 136.376C195.778 138.549 205.164 136.376 205.164 141.851C205.164 144.284 202.731 146.197 198.212 146.197L197.901 146.195C194.414 146.15 191.954 145.333 191.954 142.546C191.78 140.896 193.084 139.766 194.909 139.157ZM198.385 144.111C200.905 144.111 202.556 143.155 202.556 141.851C202.556 140.2 199.601 140.027 196.994 139.592C195.865 140.027 194.213 140.982 194.213 142.199C194.213 143.764 196.126 144.111 198.385 144.111ZM201.427 130.38C201.427 128.247 200.087 127.622 198.394 127.599L198.298 127.599C196.56 127.599 195.169 128.294 195.169 130.38C195.169 132.553 196.56 133.161 198.298 133.161L198.49 133.159C200.138 133.114 201.427 132.472 201.427 130.38ZM216.549 131.249V129.945C216.549 128.728 215.767 127.599 213.507 127.599C210.987 127.599 209.422 128.728 209.161 128.728C208.814 128.728 208.206 127.686 208.206 127.338C208.206 126.642 210.639 125.6 213.42 125.6C216.896 125.6 218.895 127.251 218.895 129.945V136.116C218.895 138.375 219.243 139.505 219.243 139.592C219.243 140.114 218.113 140.2 217.765 140.2C217.07 140.2 216.983 139.071 216.809 138.289C215.767 139.418 214.202 140.374 212.116 140.374C209.422 140.374 207.336 139.071 207.336 136.203C207.336 131.597 212.377 131.249 216.549 131.249ZM212.203 138.375C214.202 138.375 215.419 137.42 216.549 136.464V133.162L215.979 133.162C213.2 133.174 209.857 133.348 209.857 136.03C209.857 137.593 210.639 138.375 212.203 138.375ZM225.239 139.157C224.197 138.723 223.501 138.028 223.501 136.898C223.501 135.507 224.631 134.899 225.587 134.552C223.936 133.77 223.067 132.205 223.067 130.38C223.067 127.773 224.979 125.601 228.629 125.601C229.324 125.601 229.933 125.687 230.454 125.774H235.234C235.581 125.774 235.755 126.034 235.755 126.643V126.991C235.755 127.599 235.581 127.859 235.234 127.859H233.322C233.93 128.642 234.278 129.511 234.278 130.467C234.278 133.074 232.366 135.246 228.716 135.246H228.455C227.76 135.246 226.108 135.42 226.108 136.376C226.108 138.549 235.495 136.376 235.495 141.851C235.495 144.284 233.061 146.197 228.542 146.197L228.232 146.195C224.745 146.15 222.285 145.333 222.285 142.546C222.111 140.896 223.327 139.766 225.239 139.157ZM228.628 144.111C231.149 144.111 232.8 143.155 232.8 141.851C232.8 140.2 229.845 140.027 227.238 139.592C226.108 140.027 224.456 140.982 224.456 142.199C224.457 143.764 226.369 144.111 228.628 144.111ZM231.67 130.38C231.67 128.247 230.331 127.622 228.638 127.599L228.542 127.599C226.804 127.599 225.413 128.294 225.413 130.38C225.413 132.553 226.804 133.161 228.542 133.161L228.733 133.159C230.381 133.114 231.67 132.472 231.67 130.38ZM238.71 121.689V120.038C238.71 119.69 239.057 119.43 239.839 119.43H240.187C240.969 119.43 241.316 119.69 241.316 120.038V121.689C241.316 122.037 240.969 122.298 240.187 122.298H239.839C239.057 122.298 238.71 122.037 238.71 121.689ZM238.796 126.295C238.796 125.948 239.144 125.687 239.926 125.687H240.013C240.795 125.687 241.143 125.947 241.143 126.295V139.679C241.143 140.026 240.795 140.287 240.013 140.287H239.926C239.144 140.287 238.796 140.027 238.796 139.679V126.295ZM246.01 129.945C246.01 127.686 245.663 126.556 245.663 126.469C245.663 125.948 246.792 125.861 247.14 125.861C247.835 125.861 247.922 126.991 248.096 127.686C249.225 126.382 250.877 125.6 252.441 125.6C255.31 125.6 256.961 127.251 256.961 130.119V139.765C256.961 140.113 256.613 140.374 255.831 140.374H255.744C254.962 140.374 254.615 140.114 254.615 139.765V130.38C254.615 128.728 253.572 127.686 251.746 127.686C250.53 127.686 249.14 128.468 248.27 129.598V139.765C248.27 140.113 247.923 140.374 247.141 140.374H247.054C246.272 140.374 245.925 140.114 245.925 139.765L246.01 129.945ZM263.13 139.157C262.088 138.723 261.393 138.028 261.393 136.898C261.393 135.507 262.522 134.899 263.479 134.552C261.827 133.77 260.958 132.205 260.958 130.38C260.958 127.773 262.87 125.601 266.52 125.601C267.216 125.601 267.824 125.687 268.345 125.774H273.125C273.472 125.774 273.646 126.034 273.646 126.643V126.991C273.646 127.599 273.473 127.859 273.125 127.859H271.126C271.735 128.642 272.082 129.511 272.082 130.467C272.082 133.074 270.17 135.246 266.52 135.246H266.259C265.564 135.246 263.913 135.42 263.913 136.376C263.913 138.549 273.299 136.376 273.299 141.851C273.299 144.284 270.865 146.197 266.346 146.197L266.036 146.195C262.549 146.15 260.089 145.333 260.089 142.546C260.002 140.896 261.305 139.766 263.13 139.157ZM266.607 144.111C269.127 144.111 270.778 143.155 270.778 141.851C270.778 140.2 267.823 140.027 265.216 139.592C264.087 140.027 262.435 140.982 262.435 142.199C262.435 143.764 264.26 144.111 266.607 144.111ZM269.649 130.38C269.649 128.247 268.309 127.622 266.616 127.599L266.52 127.599C264.782 127.599 263.391 128.294 263.391 130.38C263.391 132.553 264.782 133.161 266.52 133.161L266.711 133.159C268.359 133.114 269.649 132.472 269.649 130.38ZM283.814 127.773H282.423C282.076 127.773 281.902 127.512 281.902 126.904V126.556C281.902 125.948 282.076 125.687 282.423 125.687H283.814L284.162 122.733C284.162 122.385 284.422 122.124 285.031 122.124H285.291C285.899 122.124 286.16 122.384 286.16 122.733V125.687H288.506C288.854 125.687 289.028 125.948 289.028 126.556V126.904C289.028 127.512 288.854 127.773 288.506 127.773H286.16V136.376C286.16 138.028 286.856 138.462 287.638 138.462C288.42 138.462 288.593 138.289 288.855 138.289C289.202 138.289 289.463 139.331 289.463 139.592C289.463 140.327 288.312 140.448 287.597 140.46L287.464 140.461C286.095 140.461 283.968 139.872 283.902 136.786L283.814 127.773ZM292.939 120.038C292.939 119.69 293.287 119.43 294.069 119.43H294.156C294.938 119.43 295.285 119.69 295.285 120.038V127.512C296.241 126.556 297.718 125.601 299.544 125.601C301.369 125.601 303.976 126.296 303.976 130.12V139.766C303.976 140.114 303.628 140.374 302.846 140.374H302.76C301.977 140.374 301.63 140.114 301.63 139.766V130.38C301.63 128.729 300.674 127.686 298.762 127.686C296.676 127.686 295.286 129.598 295.286 129.598V139.766C295.286 140.114 294.938 140.375 294.156 140.375H294.069C293.287 140.375 292.94 140.114 292.94 139.766L292.939 120.038ZM314.058 125.6C317.881 125.6 319.793 128.12 319.793 132.813C319.793 133.161 319.185 133.943 318.837 133.943H310.06C310.321 136.984 311.624 138.375 314.318 138.375C316.752 138.375 318.055 137.246 318.403 137.246C318.75 137.246 319.359 138.288 319.359 138.636C319.359 139.331 317.186 140.374 314.405 140.374C309.799 140.374 307.626 138.028 307.626 133.074C307.54 128.207 309.799 125.6 314.058 125.6ZM317.273 131.944C317.273 129.076 316.144 127.599 313.971 127.599C311.537 127.599 310.321 129.076 310.06 131.944H317.273ZM330.309 121.429C330.309 121.081 330.657 120.82 331.439 120.82H331.699C332.482 120.82 332.829 121.081 332.829 121.429V139.766C332.829 140.114 332.482 140.374 331.699 140.374H331.439C330.656 140.374 330.309 140.114 330.309 139.766V121.429ZM337.784 139.765L337.87 129.945L337.867 129.623C337.836 127.578 337.522 126.552 337.522 126.469C337.522 125.948 338.652 125.861 339 125.861C339.695 125.861 339.782 126.991 339.956 127.686C341.085 126.382 342.737 125.6 344.301 125.6C347.169 125.6 348.82 127.251 348.82 130.119V139.765C348.82 140.113 348.473 140.374 347.691 140.374H347.604C346.821 140.374 346.474 140.114 346.474 139.765V130.38C346.474 128.728 345.431 127.686 343.606 127.686C342.389 127.686 340.999 128.468 340.13 129.598V139.765C340.13 140.113 339.783 140.374 339.001 140.374H338.914C338.132 140.374 337.784 140.114 337.784 139.765ZM353.861 127.773H352.47C352.123 127.773 351.949 127.512 351.949 126.904V126.556C351.949 125.948 352.122 125.687 352.47 125.687H353.861L354.208 122.733C354.208 122.385 354.556 122.124 355.077 122.124H355.338C355.946 122.124 356.207 122.384 356.207 122.733V125.687H358.553C358.901 125.687 359.075 125.948 359.075 126.556V126.904C359.075 127.512 358.901 127.773 358.553 127.773H356.207V136.376C356.207 138.028 356.902 138.462 357.684 138.462C358.466 138.462 358.64 138.289 358.901 138.289C359.249 138.289 359.51 139.331 359.51 139.592C359.51 140.327 358.359 140.448 357.643 140.46L357.511 140.461C356.142 140.461 354.015 139.872 353.949 136.786L353.861 127.773ZM368.374 125.6C372.198 125.6 374.11 128.12 374.11 132.813C374.11 133.161 373.501 133.943 373.154 133.943H364.377C364.637 136.984 365.941 138.375 368.635 138.375C371.068 138.375 372.372 137.246 372.719 137.246C373.067 137.246 373.675 138.288 373.675 138.636C373.675 139.331 371.502 140.374 368.722 140.374C364.116 140.374 361.943 138.028 361.943 133.074C361.943 128.207 364.116 125.6 368.374 125.6ZM371.589 131.944C371.589 129.076 370.46 127.599 368.287 127.599C365.854 127.599 364.637 129.076 364.377 131.944H371.589ZM377.847 139.679V129.945L377.845 129.623C377.814 127.578 377.5 126.552 377.5 126.469C377.5 125.948 378.629 125.861 378.977 125.861C379.672 125.861 379.759 126.991 379.933 127.686C380.889 126.382 382.019 125.6 383.148 125.6C384.191 125.6 384.799 126.034 384.799 126.642C384.799 127.164 384.539 128.12 384.278 128.12C383.93 128.12 383.669 127.86 382.713 127.86C381.236 127.86 380.194 129.511 380.194 129.511V139.679C380.194 140.026 379.846 140.287 379.064 140.287H378.977C378.195 140.287 377.847 140.027 377.847 139.679ZM387.841 129.945C387.841 127.686 387.494 126.556 387.494 126.469C387.494 125.948 388.623 125.861 388.971 125.861C389.666 125.861 389.753 126.991 389.927 127.686C391.057 126.382 392.708 125.6 394.273 125.6C397.141 125.6 398.792 127.251 398.792 130.119V139.765C398.792 140.113 398.444 140.374 397.662 140.374H397.576C396.793 140.374 396.446 140.114 396.446 139.765V130.38C396.446 128.728 395.403 127.686 393.578 127.686C392.361 127.686 390.971 128.468 390.102 129.598V139.765C390.102 140.113 389.754 140.374 388.972 140.374H388.885C388.103 140.374 387.756 140.114 387.756 139.765L387.841 129.945ZM408.959 125.6C412.783 125.6 414.695 128.12 414.695 132.813C414.695 133.161 414.087 133.943 413.739 133.943H404.962C405.222 136.984 406.526 138.375 409.22 138.375C411.653 138.375 412.957 137.246 413.305 137.246C413.652 137.246 414.26 138.288 414.26 138.636C414.26 139.331 412.088 140.374 409.307 140.374C404.701 140.374 402.528 138.028 402.528 133.074C402.441 128.207 404.701 125.6 408.959 125.6ZM412.175 131.944C412.175 129.076 411.045 127.599 408.872 127.599C406.439 127.599 405.222 129.076 404.962 131.944H412.175ZM418.867 127.773H417.476C417.128 127.773 416.954 127.512 416.954 126.904V126.556C416.954 125.948 417.128 125.687 417.476 125.687H418.867L419.214 122.733C419.214 122.385 419.475 122.124 420.083 122.124H420.343C420.952 122.124 421.212 122.384 421.212 122.733V125.687H423.559C423.906 125.687 424.081 125.948 424.081 126.556V126.904C424.081 127.512 423.907 127.773 423.559 127.773H421.212V136.376C421.212 138.028 421.908 138.462 422.69 138.462C423.472 138.462 423.646 138.289 423.907 138.289C424.254 138.289 424.515 139.331 424.515 139.592C424.515 140.327 423.365 140.448 422.649 140.46L422.516 140.461C421.148 140.461 419.021 139.872 418.954 136.786L418.867 127.773Z" fill="#848484"/>
<path d="M184.915 50.8613C192.215 50.8613 198.993 53.4683 198.993 55.4672C198.993 56.684 197.429 59.7253 196.473 59.7253C195.691 59.7253 192.127 56.51 185.001 56.51C171.965 56.51 167.707 64.0709 167.707 76.9328C167.707 88.2305 171.096 97.7904 184.219 97.7904L184.717 97.788C188.365 97.7525 191.863 97.3334 193.692 96.8347V81.9739H185.088C184.046 81.9739 183.611 81.2784 183.611 79.8008V78.584C183.611 77.0198 184.046 76.4114 185.088 76.4114H198.038C199.602 76.4114 200.21 77.1064 200.21 78.584V98.1381C200.21 102.309 192.215 103.439 183.785 103.439C169.098 103.439 161.015 95.183 161.015 77.6283C161.015 59.2044 169.532 50.8613 184.915 50.8613ZM207.858 101.528L207.858 75.6298C207.858 69.6239 207.011 66.7523 206.99 66.3452L206.989 66.3306C206.989 64.94 210.031 64.5927 210.987 64.5927C212.725 64.5927 213.16 67.5474 213.594 69.4593C216.114 65.8958 219.069 63.8973 222.111 63.8973C224.979 63.8973 226.369 65.1141 226.369 66.7653C226.369 68.1558 225.76 70.7632 224.891 70.7632C223.935 70.7632 223.327 69.9807 220.807 69.9807C216.983 69.9807 214.028 74.4999 214.028 74.4999V101.528C214.028 102.571 213.159 103.179 211.073 103.179H210.812C208.727 103.179 207.858 102.571 207.858 101.528ZM246.531 63.8973C256.612 63.8973 261.74 70.5891 261.74 83.1037C261.74 83.9728 260.176 86.1454 259.307 86.1454H236.016C236.624 94.3143 240.1 98.0515 247.4 98.0515C253.832 98.0515 257.395 94.9228 258.177 94.9228C259.22 94.9228 260.784 97.7908 260.784 98.5733C260.784 100.311 254.961 103.266 247.487 103.266C235.356 103.266 229.528 97.1333 229.413 84.1933L229.411 83.7991C229.324 70.8498 235.234 63.8973 246.531 63.8973ZM255.135 80.9311C255.135 73.1965 252.18 69.2856 246.271 69.2856C239.839 69.2856 236.45 73.1965 235.929 80.9311H255.135ZM284.77 63.8973C294.851 63.8973 299.979 70.5891 299.979 83.1037C299.979 83.9728 298.414 86.1454 297.545 86.1454H274.254C274.863 94.3143 278.339 98.0515 285.64 98.0515C292.07 98.0515 295.634 94.9228 296.416 94.9228C297.459 94.9228 299.023 97.7908 299.023 98.5733C299.023 100.311 293.201 103.266 285.726 103.266C273.472 103.266 267.65 97.0087 267.65 83.7991C267.649 70.8498 273.472 63.8973 284.77 63.8973ZM293.46 80.9311C293.46 73.1965 290.506 69.2856 284.596 69.2856C278.165 69.2856 274.776 73.1965 274.254 80.9311H293.46ZM306.67 101.354L306.67 75.6298L306.669 75.1681C306.627 69.4764 305.823 66.7418 305.802 66.3452L305.801 66.3306C305.801 64.94 308.843 64.5927 309.799 64.5927C311.537 64.5927 311.972 67.5474 312.406 69.4593C315.534 65.9832 319.793 63.8973 323.878 63.8973C331.439 63.8973 335.871 68.4165 335.871 75.8034V101.354C335.871 102.397 335.001 103.005 332.916 103.005H332.655C330.569 103.005 329.7 102.397 329.7 101.354V76.3248C329.7 71.8055 327.006 69.1986 322.139 69.1986C318.837 69.1986 315.274 71.1975 312.84 74.3263V101.354C312.84 102.397 311.971 103.006 309.885 103.006H309.625C307.539 103.006 306.67 102.397 306.67 101.354Z" fill="white"/>
<path d="M349.081 90.49C350.385 90.49 354.034 93.8795 359.945 93.8795L360.159 93.878C363.245 93.8342 366.897 92.8226 366.897 88.4911C366.897 79.8003 345.605 83.1898 345.605 65.8087C345.605 54.9453 354.469 50.6872 363.073 50.6872C370.895 50.6872 376.37 53.3807 376.37 55.8144C376.37 57.8138 374.11 62.2456 372.285 62.2456C371.329 62.2456 369.07 60.4207 364.116 60.4207C358.38 60.4207 357.251 63.1147 357.251 64.7663C357.251 73.1964 378.542 69.8065 378.542 87.1015C378.542 99.3553 369.938 103.44 361.857 103.44C350.646 103.44 344.562 99.4419 344.562 96.922C344.562 94.7486 347.517 90.49 349.081 90.49ZM400.79 63.8097C412.523 63.8097 418.606 70.8493 418.606 83.6246C418.606 96.4868 412.523 103.526 400.79 103.526C389.058 103.526 382.887 96.4868 382.887 83.6246C382.887 70.7623 389.058 63.8097 400.79 63.8097ZM407.569 83.8451L407.569 83.6246C407.569 76.2377 405.483 72.4135 400.79 72.4135C396.097 72.4135 393.924 76.2377 393.924 83.6246C393.924 91.0114 396.097 94.9223 400.79 94.9223C405.436 94.9223 407.527 91.0897 407.569 83.8451ZM442.332 63.8097L442.647 63.8118C447.825 63.8799 454.586 65.6158 454.586 68.9374C454.586 70.3283 451.892 74.5865 450.675 74.5865C450.414 74.5865 449.98 74.3258 449.371 74.0647L449.081 73.9122C447.776 73.2379 445.846 72.4135 442.94 72.4135C437.09 72.4135 434.646 75.9914 434.598 83.3989L434.597 83.6246C434.597 91.1851 436.856 94.9223 442.505 94.9223C445.982 94.9223 448.328 93.8799 449.719 93.1844L449.953 93.085C450.44 92.8804 450.796 92.7497 451.022 92.7497C452.673 92.7497 454.846 96.9212 454.846 98.3117C454.846 102.483 444.331 103.439 441.984 103.439C429.383 103.439 423.386 97.0082 423.386 83.7986C423.386 70.7623 429.122 63.8097 442.332 63.8097ZM460.147 49.731C460.147 48.1943 461.406 47.4124 464.417 47.3855L466.665 47.3848C469.794 47.3848 471.098 48.1668 471.098 49.731V78.9316L471.358 79.0183L480.309 65.635C481.156 64.4502 482.579 64.254 484.659 64.2444L487.523 64.2441C490.304 64.2441 491.694 64.6789 491.694 65.3739C491.694 65.7008 491.463 66.1822 491.074 66.745L480.744 81.4515L492.737 100.484L493.032 101.067C493.222 101.451 493.345 101.75 493.345 102.048C493.345 102.743 492.041 103.178 489.174 103.178H486.045L485.716 103.176C483.714 103.149 482.273 102.859 481.613 101.787L471.358 84.8405L471.097 84.9272V100.831C471.097 102.395 469.794 103.178 466.665 103.178H464.579C461.451 103.178 460.147 102.395 460.147 100.831L460.147 49.731Z" fill="#88CE02"/>
<path d="M24.9203 83.0157C20.4877 85.1008 8.75564 94.487 6.49602 97.268C4.14935 100.049 3.45431 95.7039 5.88759 88.4907C7.79906 82.6679 12.6665 74.7592 20.8354 67.9808C25.615 64.07 36.131 58.4213 42.5617 55.1185C43.8656 54.423 60.7253 47.2968 75.7602 43.7337C77.0641 43.386 74.1961 45.9063 73.7613 47.2968C71.5017 53.9016 26.397 82.2332 26.397 82.2332L24.9203 83.0157Z" fill="black"/>
<path d="M88.4485 162.709C89.2306 167.402 88.5355 167.75 83.669 168.358C78.802 168.966 75.2389 167.141 73.9354 165.925C72.6315 164.707 72.3713 162.014 73.6747 159.581C74.4572 158.016 75.2393 157.495 75.6741 155.583C76.1084 153.758 76.4562 153.323 76.8035 152.628C77.1508 152.019 77.2383 151.411 77.3249 147.153C77.4119 142.895 77.3249 134.899 77.7596 131.51C78.1944 128.034 93.2293 133.074 93.2293 133.074C93.2293 133.074 89.6658 141.938 88.71 144.111C87.7539 146.284 87.8409 150.455 87.8409 151.324C87.8409 152.193 87.4936 153.931 87.2325 154.018C86.9718 154.105 88.1016 156.364 87.5798 157.668C87.2321 158.885 88.3619 162.014 88.4485 162.709Z" fill="black"/>
<path d="M94.1847 29.8293C93.6628 26.5269 94.1847 20.0083 94.8797 18.9659C97.0527 16.0108 108.524 15.6635 110.958 19.1396C112.001 20.7037 111.914 24.3539 111.74 26.7005C111.566 29.0468 110.958 34.0874 110.871 35.739C110.784 36.9559 98.1825 38.8674 95.4015 35.565C94.619 34.6963 94.1847 29.8293 94.1847 29.8293Z" fill="black"/>
<path d="M119.735 154.279C125.036 158.103 129.121 158.798 131.815 160.189C134.509 161.58 133.814 164.274 129.295 165.056C125.644 165.751 119.909 164.36 116.085 164.36C112.261 164.36 103.744 164.795 101.484 163.231C98.8774 161.406 100.007 158.016 100.007 158.016C100.702 156.105 102.44 151.846 101.919 148.37C101.397 144.894 100.702 142.982 99.3984 139.766C98.0949 136.551 97.1392 128.643 98.3561 128.208C99.5729 127.773 99.2247 128.208 100.789 128.555C102.353 128.902 104.092 129.424 107.481 129.424C110.871 129.424 114.607 128.902 115.911 128.642C117.215 128.381 118.257 128.12 117.823 130.815C117.388 133.509 116.085 138.549 115.998 142.46C115.911 146.371 115.911 150.89 116.172 151.672C116.432 152.454 118.345 153.323 119.735 154.279Z" fill="black"/>
<path d="M101.137 38.5198C91.5777 46.7762 73.0664 49.0354 45.6044 59.6381C38.5648 62.3321 19.7932 70.4144 15.2739 78.8445C30.4825 70.0671 36.1315 82.1469 37.348 94.5744C38.4773 106.22 44.3005 112.304 59.2483 111.956C74.6309 111.608 79.3239 120.559 83.582 131.075C91.838 90.8372 105.048 83.016 113.564 76.1505C131.641 61.4629 109.393 35.5647 101.137 38.5198Z" fill="#88CE02"/>
<path d="M101.137 38.5195C78.194 46.5148 55.5111 48.5138 28.8312 64.9392C22.4871 68.85 9.10345 77.714 6.49609 94.6612C16.2292 83.8844 38.738 70.3275 66.2875 61.7238C80.1925 57.3782 90.3608 54.5106 102.701 49.7306C101.833 44.1682 101.833 41.9956 101.137 38.5195Z" fill="#88CE02"/>
<path d="M130.424 86.1461C130.424 86.1461 128.773 91.7952 125.471 93.6204C125.471 93.6204 123.038 94.4896 118.171 91.7956C116.781 91.0135 115.738 88.3195 115.824 87.45C115.911 85.364 117.215 84.4083 117.215 84.4083C117.215 84.4083 118.606 82.0616 120.257 82.1486C121.908 82.2353 124.689 82.496 125.558 81.7139C126.34 80.8448 130.599 83.278 130.424 86.1461Z" fill="black"/>
<path d="M94.9668 31.481C94.9668 31.481 94.6195 35.9136 94.0111 38.6942C93.924 39.216 91.3171 39.4763 89.4048 40.2588C93.0549 50.6874 115.042 50.6004 117.91 45.4731C116.52 44.5174 113.739 43.0398 112.435 42.5184C111.132 41.9966 111.219 42.0837 111.132 39.6504C111.045 37.2167 110.871 32.6979 110.697 31.481C110.523 30.2641 97.0524 30.2641 94.9668 31.481Z" fill="black"/>
<path d="M95.8359 31.4809C95.8359 31.4809 95.8359 34.0012 95.5752 36.4345C95.4886 37.5643 95.4016 38.2593 95.2279 39.1285C95.1409 39.6503 98.1826 41.7354 99.0517 46.3417C103.223 55.6405 112.87 51.0346 116.868 46.6024C115.477 45.6462 113.217 44.3428 110.611 43.3C109.307 42.7782 109.915 41.6488 109.828 39.2155C109.741 36.7822 109.394 33.2187 109.22 31.9152C109.046 30.6118 97.9219 30.264 95.8359 31.4809Z" fill="#EFEFEF"/>
<path d="M94.9667 31.481C94.9667 31.481 94.8797 33.0456 94.6194 34.8704C95.7488 35.9998 97.2263 37.5644 98.3566 38.5206C99.1386 39.216 101.05 39.129 102.789 39.129C104.353 39.129 105.743 39.3027 106.352 38.9553C107.743 38.2599 109.741 36.5221 110.871 35.2182C110.785 33.654 110.697 32.1765 110.611 31.481C110.523 30.2641 97.0522 30.2641 94.9667 31.481Z" fill="black"/>
<path d="M102.875 38.0861C101.832 38.0861 100.615 37.9995 99.6595 37.8254C99.2247 37.7388 98.7904 37.4781 98.4426 37.304C97.8342 36.8692 97.2258 36.3483 96.5312 35.8265C95.1403 34.7837 95.0536 34.1753 95.0536 33.915C95.6621 28.4396 94.8796 23.8337 94.8796 23.8337C94.8796 23.8337 94.2711 21.4871 97.5735 20.8786C100.876 20.2702 102.875 20.1836 102.875 20.1836C102.875 20.1836 104.961 20.1836 108.176 20.8786C111.479 21.4871 110.87 23.8337 110.87 23.8337C110.87 23.8337 110.088 28.4396 110.697 33.915C110.697 34.1753 110.61 34.7837 109.219 35.8265C108.002 36.6956 107.046 37.6513 106.091 37.8254C105.134 37.9995 103.918 38.0861 102.875 38.0861Z" fill="black"/>
<path d="M102.875 17.9238C97.1396 17.9238 96.0094 19.488 94.3582 21.2262C94.0109 21.6606 94.2712 24.2679 94.88 29.83H95.6621C95.6621 29.83 95.1403 28.2654 95.2273 26.4405C95.3144 24.6157 95.6621 24.7027 95.401 24.2679C95.0537 23.7461 94.3582 22.877 95.9228 22.0083C97.487 21.1392 99.9202 22.7033 102.875 22.7904C105.83 22.7033 108.35 21.1392 109.914 22.0083C111.479 22.877 110.784 23.7461 110.436 24.2679C110.089 24.7893 110.523 24.6152 110.61 26.4405C110.697 28.2654 110.175 29.83 110.175 29.83H110.957C111.479 24.2679 111.826 21.8347 111.566 21.3999C110.088 19.488 108.611 18.0104 102.875 17.9238Z" fill="black"/>
<path d="M130.424 86.4068C130.424 86.4068 128.773 91.7082 125.558 93.533C124.862 93.1857 124.949 92.6643 124.341 91.8818C124.167 91.6215 123.558 91.447 123.298 91.1868C123.037 90.9261 123.124 90.4913 122.69 90.144C122.342 89.7963 122.081 90.057 121.734 89.7963C121.386 89.449 121.299 89.0142 121.039 88.7539C120.864 88.5798 120.169 88.4932 119.996 88.3191C119.561 87.8844 115.738 87.1023 115.911 86.2332C116.259 84.9293 116.954 83.9735 116.954 83.9735C116.954 83.9735 118.605 81.5403 120.256 81.6269C121.907 81.7139 123.472 82.0617 124.341 81.2796C125.297 80.41 130.685 83.6258 130.424 86.4068Z" fill="black"/>
<path d="M119.127 47.9945C119.127 47.9945 124.602 46.6907 128.339 50.2542C132.076 53.9043 131.815 58.4231 130.685 61.2041C131.641 62.334 133.379 65.4623 132.076 69.1995C137.812 74.066 135.291 81.5404 130.164 86.494C130.164 86.494 128.947 81.9747 124.081 81.714C124.254 79.9762 119.561 78.5853 121.734 74.066C118.432 73.2839 118.519 71.0243 117.997 68.2437C117.562 65.4623 119.127 47.9945 119.127 47.9945Z" fill="black"/>
<path d="M117.128 50.4276C117.128 50.4276 123.472 47.2122 127.209 50.8624C130.946 54.5125 129.903 58.5099 128.773 61.2909C129.729 62.4203 131.989 65.6365 130.598 69.4599C130.337 70.329 128.426 70.329 127.035 72.5886C130.511 70.5893 132.684 71.1111 133.466 73.631C134.683 77.5418 131.988 82.2347 129.642 84.8421C129.642 84.7551 129.555 84.668 129.555 84.5814C129.208 85.8853 128.773 88.4052 126.166 91.1862C124.862 92.5767 123.819 92.403 122.342 92.0553C120.604 91.6205 119.996 90.838 117.562 89.535C116.172 88.7529 116.954 87.7968 116.954 87.0147C116.954 86.841 117.127 86.5799 117.389 86.2326C117.562 85.7978 118.084 85.1032 118.866 84.3207C118.866 84.3207 119.996 82.7565 121.647 82.8432C123.298 82.9302 125.036 82.5829 125.471 82.1481C125.471 79.1064 121.995 79.0194 123.211 73.8051C123.298 73.5444 123.733 73.1096 125.123 72.936C123.037 72.5012 122.081 72.4141 120.604 71.0241C119.561 70.0683 118.779 68.8515 118.518 67.2873C117.997 64.5933 117.128 50.4276 117.128 50.4276Z" fill="#EFEFEF"/>
<path d="M98.7904 44.9519C98.2691 44.2564 95.5751 40.7804 90.4474 39.3899C88.9699 38.9551 88.0141 40.172 86.537 41.0411C86.1022 40.7804 84.1903 39.9113 83.1476 40.5193C82.1048 41.1273 81.4097 41.7361 80.3665 42.1705C79.8447 41.9098 78.4546 41.9098 77.3248 42.3441C76.195 42.6918 74.4568 43.4739 72.8056 45.7336C71.7628 49.4707 91.2295 46.6893 91.2295 46.6893L98.7904 44.9519Z" fill="black"/>
<path d="M98.9646 44.9524C96.1832 43.9962 96.618 40.7808 90.4475 40.2595C89.2307 40.1724 88.4486 41.1282 87.5795 41.7366C88.0142 42.1714 88.4486 42.8664 88.7093 43.5614C87.9272 42.6927 86.5367 41.5625 85.1458 41.3018C83.8423 41.0415 82.9732 41.9973 81.5827 42.6927C81.8429 42.953 82.1041 43.3878 82.4514 43.9096C81.2345 43.1275 80.3658 42.8668 78.7146 43.4748C77.5848 43.8221 75.4122 44.7783 73.761 47.125C72.7182 50.8621 91.3162 46.6902 91.3162 46.6902L98.9646 44.9524Z" fill="#88CE02"/>
<path d="M115.303 46.3419C115.303 46.3419 115.303 45.3858 115.216 44.5171C115.216 44.3434 114.521 43.9086 114.521 43.735L114.347 43.5609C114.347 43.5609 115.738 42.7788 116.78 43.2136C117.91 43.5609 118.518 45.0384 118.518 45.0384C120.517 44.3434 120.691 45.1255 121.647 46.1683C123.733 45.7335 123.993 46.5156 125.297 48.4279C125.297 48.4279 123.733 48.1672 120.691 48.6882C117.736 49.1225 115.303 46.2549 115.303 46.3419Z" fill="black"/>
<path d="M114.955 45.908C114.955 45.908 115.477 45.4732 115.303 45.3862C116.258 44.8648 117.562 44.2568 118.171 45.908C120.17 45.2125 120.43 46.1687 121.386 47.2119C123.819 46.0821 123.993 47.4721 124.167 48.0806C123.385 48.0806 122.256 48.1676 120.691 48.3413C117.736 48.776 114.868 45.8209 114.955 45.908Z" fill="#88CE02"/>
<path d="M85.4071 43.7344C85.4071 43.7344 90.3607 45.4722 94.5323 45.2115C98.7038 44.8642 105.83 44.5165 109.654 46.7761C109.654 46.7761 113.565 45.3851 117.215 46.3413C120.865 47.297 127.557 53.5545 125.558 60.1593C125.384 60.5941 124.254 61.2892 122.951 61.7239C122.951 61.7239 123.646 64.6786 122.429 67.1119C121.213 69.4585 118.519 73.9778 118.432 80.2349C118.345 81.2776 118.171 83.4502 117.997 84.493C111.218 84.2327 100.79 81.712 90.5348 81.8861C90.6214 80.7567 90.7085 80.0612 90.7955 78.9314H91.0558C90.5344 76.0633 90.3607 74.5858 89.8389 72.4132C86.5365 70.3277 83.06 67.8944 80.1058 63.2881C77.2377 58.6818 85.4071 43.7344 85.4071 43.7344Z" fill="black"/>
<path d="M118.953 90.6641C118.953 90.6641 124.341 109.958 117.997 118.04C117.997 118.04 118.953 121.777 116.781 125.774C116.433 127.512 115.998 129.077 115.738 130.815C114.608 138.028 112.696 141.07 112.174 152.628L106.96 152.541C106.96 152.541 106.351 144.198 104.526 139.766C103.484 137.246 99.3985 133.856 99.5731 130.467C99.7467 127.86 100.268 125.687 104.701 122.211C105.048 117.171 100.007 112.39 100.79 93.6187L118.953 90.6641Z" fill="black"/>
<path d="M117.389 89.8828C118.779 98.7472 121.995 111.87 116.172 118.301C116.432 119.518 116.606 121.256 116.259 123.255C116.085 124.297 115.737 125.427 115.303 126.644C114.434 128.73 114.086 131.771 113.825 133.596C112.696 140.809 112.696 141.157 112.174 152.716L106.96 152.629C106.96 152.629 106.351 144.286 104.526 139.854C103.484 137.334 101.311 135.161 101.137 131.772C100.964 129.165 102.788 123.95 107.134 124.124C106.873 113.608 102.006 115.694 100.703 93.7936L117.389 89.8828Z" fill="#EFEFEF"/>
<path d="M85.4073 43.7344C85.4073 43.7344 87.3192 44.3428 89.4047 44.5165C91.4907 44.6901 93.7503 44.5165 95.7488 44.4294C99.9204 44.0821 105.83 43.6473 109.741 45.907C109.741 45.907 111.914 45.2115 114.26 45.3851C115.303 45.4722 116.346 46.3413 117.563 46.689C121.386 47.6448 125.037 53.9889 123.385 59.725C123.211 60.1598 121.994 59.725 120.604 60.1598C120.864 61.3766 121.039 64.1576 119.648 67.1123C118.171 70.0674 116.259 73.8912 116.606 81.1914C107.481 80.7567 103.396 80.1487 94.3579 79.7139C93.5758 76.4981 93.054 73.2827 92.9674 71.6315C94.1842 71.0231 94.8789 70.5022 95.8355 69.459C93.2285 69.8937 92.1853 69.7197 90.6207 68.8505C89.0566 67.9814 86.2756 65.2004 84.885 63.3755C84.7114 63.2015 83.7557 66.0691 81.5831 66.1566C80.8006 65.0267 84.103 61.811 83.4945 60.5945C81.3224 56.1619 85.4073 43.7344 85.4073 43.7344Z" fill="#EFEFEF"/>
<path d="M118.084 82.6694C118.084 82.6694 118.257 85.7981 118.257 86.5802C118.257 87.4493 118.953 90.0563 119.039 91.2731C118.084 92.9243 113.912 96.6615 106.351 98.052C98.8772 99.6162 88.97 87.8841 88.97 87.8841C89.2307 86.7543 90.0998 83.4515 90.7082 81.7137C90.7952 81.54 90.9689 81.1052 90.9689 80.9316C91.7514 79.8018 118.084 82.6694 118.084 82.6694Z" fill="black"/>
<path d="M116.172 82.9291C116.172 85.1017 116.519 86.6663 116.78 88.0568C117.215 90.5771 117.91 92.2283 117.91 93.8795C117.91 98.9197 111.305 98.0506 105.743 98.2247C98.2687 99.7892 91.9246 88.0568 91.9246 88.0568C92.4459 86.0578 92.7937 83.7986 93.5758 81.8863C93.6624 80.8435 93.8365 79.5401 93.9231 78.9316C104.526 78.9316 112 79.5401 116.345 79.974C116.519 80.9301 116.346 82.5813 116.172 82.9291Z" fill="#EFEFEF"/>
<path d="M107.829 94.1401C107.829 94.1401 103.223 83.8852 89.4042 86.9273C86.1022 96.2261 81.6696 106.916 84.5376 118.474C81.6696 122.385 78.3672 124.558 78.3672 131.771C78.3672 138.984 78.7149 140.201 78.7149 140.201L88.8828 140.723C88.8828 140.723 92.1852 136.465 93.4887 131.858C93.8364 130.554 94.1841 128.208 93.9235 125.514C94.2708 124.993 95.7483 123.776 95.9224 121.43C95.9224 121.43 100.876 118.823 103.744 112.479C106.438 106.742 105.743 101.788 107.829 94.1401Z" fill="black"/>
<path d="M107.828 94.1403C107.568 93.1846 104.092 83.7988 91.2294 86.5793C83.6689 106.742 86.4499 115.085 87.5793 118.735C82.4516 125.252 80.1054 126.643 81.1486 139.853H87.9275C91.0558 134.899 91.7513 133.074 91.9249 126.556C91.9249 126.296 90.9692 127.078 90.2737 127.947C90.7955 125.253 92.2726 124.731 93.4025 123.08C93.9238 122.385 94.3582 121.342 94.3582 119.952C100.442 115.867 102.701 110.739 104.005 105.438C105.048 101.788 106.264 95.7915 107.828 94.1403Z" fill="#EFEFEF"/>
<path d="M86.363 80.1484C86.363 80.1484 88.7097 80.235 90.7957 80.9305C92.7946 81.6256 92.7946 82.0599 93.5767 82.9295C94.3588 83.799 96.2707 85.102 95.9233 86.4055C95.7493 87.101 95.3149 87.2746 94.7065 87.883C94.4458 88.1437 92.5335 90.2293 92.0991 90.49C91.8384 90.6636 91.4907 90.9248 91.23 91.0984C90.9697 91.2721 90.1877 91.7939 89.9265 91.9675C89.0574 92.4023 88.449 92.663 87.4933 92.576C87.4933 92.576 85.3207 92.4889 83.9297 91.0118C83.9297 91.0118 83.7561 90.3163 84.1038 89.969C84.1038 89.969 82.2785 88.4044 81.7572 87.3617C81.2353 86.3193 81.2353 84.8418 81.5835 84.0597C81.7572 83.2768 85.1462 81.1042 86.363 80.1484Z" fill="black"/>
<path d="M88.536 164.709L88.2753 166.882C88.2753 166.882 87.4932 167.838 81.6705 167.752C75.7607 167.664 74.1966 165.84 73.6752 164.883L73.3279 162.624C73.3279 162.624 74.4577 160.973 74.7184 160.973C76.6303 161.146 83.1485 163.754 87.6677 164.449C88.1012 164.449 88.1878 164.622 88.536 164.709Z" fill="black"/>
<path d="M101.137 160.276C101.137 161.231 101.05 161.231 101.05 162.188C102.093 162.97 104.701 163.404 109.654 163.317C116.867 163.143 123.559 165.49 131.728 164.099L131.815 162.535L131.033 162.448L102.093 160.102L101.137 160.276Z" fill="black"/>
<path d="M107.481 163.318C108.177 163.318 108.872 163.318 109.654 163.318C114.347 163.145 118.779 164.187 123.559 164.448C126.079 164.361 129.208 163.753 128.947 161.928L104.266 159.842C102.788 161.493 103.918 162.884 107.481 163.318Z" fill="black"/>
<path d="M79.1497 126.73C79.9318 127.252 85.2331 130.381 93.8369 129.946C93.6628 131.597 93.7498 134.813 89.926 140.461C88.0142 143.242 86.3625 148.109 86.0152 154.28C86.1023 155.67 86.8843 156.887 85.8416 158.712C86.1889 159.842 87.5794 162.101 88.2748 163.492C88.9699 164.883 89.3176 166.447 84.7113 166.534C80.0184 166.62 72.4575 166.099 73.5007 162.449C74.0225 160.537 75.4996 158.538 75.6737 157.756C75.8473 156.974 75.8473 154.628 77.3245 153.063C78.6283 148.718 78.1936 144.546 77.9333 140.636C77.4985 136.551 77.4115 130.033 79.1497 126.73Z" fill="black"/>
<path d="M87.2322 55.9019C93.4027 47.6455 88.1879 41.0411 78.2812 43.0396C74.2833 43.8217 70.2859 46.6031 70.0247 51.6434C68.7213 51.817 65.7666 51.9907 64.2891 57.379C63.1597 61.5506 62.5512 62.3326 60.5519 64.4182C59.2484 65.8957 60.6389 68.9374 61.5947 71.1105C64.8104 78.5844 74.7176 79.2794 81.4095 84.9285C83.6691 84.3201 86.0153 81.8002 86.7108 80.149C81.0617 73.4567 82.2782 70.8498 80.0185 67.3737C82.4523 66.5042 88.0143 63.1151 87.2322 55.9019Z" fill="black"/>
<path d="M86.0154 55.3805C86.3627 54.8586 86.9711 53.7293 87.2322 53.2945C87.3193 53.2074 88.275 54.8586 88.362 54.772C90.7083 50.9478 91.3167 45.3858 88.6223 44.8644C88.0139 44.7774 86.8845 44.5171 85.9283 44.1689C84.1905 43.5605 82.6263 43.5605 79.8449 44.0823C76.0211 44.7774 72.1973 47.5584 72.1973 51.5562C72.1973 51.8169 74.8909 52.599 75.6734 55.8148C74.3695 53.9895 72.1099 51.9906 69.4159 53.7288C66.5478 55.5537 68.0254 59.7252 64.2016 64.0704C62.8977 65.5479 63.0718 67.2862 64.4619 70.7622C66.7215 76.2376 77.4112 79.1923 83.2339 84.4066C84.6244 83.7982 85.5802 82.4077 86.2756 81.3649C82.3648 77.2804 80.8002 73.4562 79.6708 70.6752C78.2803 67.4598 76.7157 65.635 73.674 63.2008C75.2386 63.8093 76.4555 64.4177 77.1501 64.9391C77.9322 65.4605 79.062 65.5475 80.1052 65.1998C83.8428 63.8972 85.8417 58.6824 86.0154 55.3805Z" fill="#EFEFEF"/>
<path d="M123.82 56.7714C123.559 60.0738 121.126 58.4226 119.822 57.8142C117.215 56.6844 114.607 55.9023 111.566 55.9023C108.524 55.9023 104.613 56.163 101.224 57.0321C96.5313 58.3356 95.1404 58.2489 93.0548 57.2057C90.9693 56.0759 87.3196 53.2949 87.3196 53.2949C87.3196 53.2949 87.2325 54.164 88.1016 55.2939C89.231 56.6844 91.7518 58.4226 95.1408 59.552C96.792 60.0738 98.0959 59.7256 99.5734 59.3783C107.308 57.4664 115.477 57.1187 122.342 61.2902C122.69 61.4639 123.907 60.9425 124.428 60.1604C125.123 59.031 123.82 56.7714 123.82 56.7714Z" fill="black"/>
<path d="M84.2773 89.8828C84.9724 90.3176 85.8415 90.5783 86.7972 91.3604C86.7972 91.3604 86.0152 91.3604 85.6678 91.0131C85.2331 90.7524 84.364 89.9703 84.2773 89.8828Z" fill="#001423"/>
<path d="M109.393 20.966C109.132 20.1839 107.22 18.793 102.788 18.793C98.0083 18.793 96.6178 20.2705 96.5312 21.0526C96.5312 21.3133 96.1835 24.0947 96.0964 25.2241C96.0964 25.2241 96.0964 26.6146 96.1831 28.7002C96.2701 30.0907 96.6178 30.8728 96.7915 32.698C96.9651 34.6095 97.4869 35.8264 98.4427 37.3909C98.8774 37.6512 99.2248 37.9123 99.6595 37.9994C101.398 38.3467 104.439 38.4337 106.091 37.9994C107.046 37.7387 108.263 36.0875 108.524 34.6099C108.871 32.7851 109.219 31.4812 109.306 30.3518C109.48 29.2224 109.567 26.7017 109.653 26.0062C109.914 24.0947 109.48 21.1396 109.393 20.966Z" fill="#EFEFEF"/>
<path d="M100.268 128.383C100.268 128.383 104.874 130.382 116.259 128.644C116.259 128.644 113.044 144.808 114.521 152.89C114.521 152.89 115.998 154.976 126.949 158.974C126.949 158.974 131.815 160.19 131.642 162.624C131.642 162.624 131.815 163.145 125.906 162.971C119.997 162.797 114.434 161.755 110.523 161.755C106.612 161.755 102.441 161.928 101.746 160.799C100.964 159.756 101.92 157.062 103.049 155.497C104.267 153.846 103.919 152.629 103.832 149.675C103.57 141.94 97.6606 133.945 100.268 128.383Z" fill="black"/>
<path d="M99.3119 129.859C98.7035 130.728 99.3985 134.03 100.268 137.246C101.137 140.461 103.049 142.374 103.483 147.675C103.918 152.889 104.005 153.584 102.527 156.626C101.05 159.667 100.615 162.448 105.743 162.535C110.87 162.623 113.651 162.448 118.866 163.231C124.08 164.013 125.905 164.274 128.773 163.839C131.641 163.405 132.249 162.448 131.033 161.58C129.816 160.711 124.775 159.755 122.603 158.016C120.517 156.452 114.607 153.845 114.521 153.15C114.26 150.803 114.173 142.286 114.607 139.505C115.042 136.724 115.65 132.726 115.824 131.684C115.998 130.641 116.867 129.598 115.39 129.945C113.912 130.293 108.35 131.075 104.179 130.814C100.007 130.554 99.573 129.598 99.3119 129.859Z" fill="#88CE02"/>
<path opacity="0.3" d="M102.267 156.713C103.744 157.408 105.917 157.93 107.568 157.93C107.568 157.93 106.959 160.798 107.916 162.536C108.871 164.274 100.963 163.231 100.963 163.231L100.616 157.061L102.267 156.713Z" fill="black"/>
<path opacity="0.3" d="M125.297 164.187C126.688 163.753 127.644 162.188 126.514 160.711C125.297 159.234 124.254 158.973 125.819 158.886C127.383 158.799 133.119 162.275 133.119 162.275L130.164 164.969L125.297 164.187Z" fill="black"/>
<path opacity="0.3" d="M99.0511 133.248C101.05 133.944 104.092 134.117 106.699 134.03C109.306 133.944 113.217 133.596 115.738 132.727C118.257 131.858 117.215 133.683 117.215 133.683L115.824 134.986C115.824 134.986 112.522 136.29 107.134 136.203C100.79 136.116 98.8774 135.421 98.8774 135.421L99.0511 133.248Z" fill="black"/>
<path opacity="0.3" d="M99.2249 137.595C101.224 138.29 104.265 138.464 106.873 138.377C109.48 138.29 112.956 138.29 115.477 137.334C116.519 136.987 115.911 138.464 115.911 138.464L115.477 139.246C115.477 139.246 112.087 140.463 106.786 140.375C100.442 140.289 99.3119 139.767 99.3119 139.767L99.2249 137.595Z" fill="black"/>
<path d="M93.4893 76.6719C93.4893 77.2803 100.268 80.6693 104.005 81.3648C107.742 82.0598 115.564 81.3648 116.78 81.1041L116.606 82.3209C116.606 82.3209 107.307 83.7115 100.181 81.7996C93.0545 79.8877 93.837 79.4529 93.837 79.4529L93.4893 76.6719Z" fill="black"/>
<path d="M78.9756 150.803C80.0184 151.325 83.7555 152.28 86.1888 151.759C86.5361 151.672 86.1888 145.762 87.145 143.068C88.5355 139.331 90.7951 136.289 91.8375 129.685C88.1873 129.337 84.0162 128.381 81.8432 127.686C79.0626 136.203 80.0188 143.503 78.9756 150.803Z" fill="#EFEFEF"/>
<path d="M84.7987 156.277C85.4072 156.451 85.8415 157.146 86.0156 156.712C86.3629 155.929 85.4072 154.452 85.3201 153.41C85.3201 153.323 85.3201 153.41 85.3201 153.323C84.5381 152.628 79.2367 152.54 79.5845 152.888C78.976 154.018 78.0203 153.844 77.673 156.104C77.4993 157.233 78.8898 156.277 80.1929 156.19C77.8466 157.754 75.1527 159.754 74.7179 161.492C74.1965 163.925 75.0656 164.62 77.673 165.924C79.9326 166.446 82.6266 166.533 84.7121 166.446C87.0588 166.011 87.4936 164.881 86.7981 163.317C85.7545 160.97 85.0594 157.928 84.7987 156.277Z" fill="#EFEFEF"/>
<path d="M85.7545 43.3867C88.6225 45.0379 92.6204 44.6036 94.0975 44.5165C94.4452 44.5165 97.9217 43.9081 98.0954 43.9947C98.4427 44.0818 98.4427 44.3425 98.4427 44.3425C98.4427 44.3425 97.1392 45.0375 94.1845 45.2111C91.4035 45.3848 88.1011 45.2111 86.2763 44.3425C84.1033 43.3867 85.7545 43.3867 85.7545 43.3867Z" fill="black"/>
<path d="M115.303 45.0392C115.824 45.3865 119.214 46.6904 120.691 48.2545C121.995 49.6455 121.3 49.5584 121.039 49.2107C120.691 48.7759 117.997 46.9511 116.954 46.5167C115.911 46.0824 114.607 45.2999 114.607 45.1262C114.607 44.9526 115.303 45.0392 115.303 45.0392Z" fill="black"/>
<path d="M85.3197 81.1046C87.84 80.931 90.4474 81.5394 92.0986 83.2772C92.9677 84.1463 94.3582 85.1021 94.1845 85.9712C94.1845 86.2319 93.6627 86.9274 93.2288 87.4487C92.9681 87.796 92.186 88.5781 91.9249 88.8392C91.5776 89.0999 90.3607 90.0561 90.1001 90.2298C89.8394 90.4038 89.4916 90.8386 89.2309 90.9252C88.3622 91.36 87.4061 91.0123 86.537 90.5779C85.6683 90.1431 86.711 90.0561 85.7549 89.3611C83.4086 87.7099 82.1047 86.5796 83.0609 83.3643C83.1475 82.7558 84.1033 82.0604 85.3197 81.1046Z" fill="#EFEFEF"/>
<path opacity="0.4" d="M63.159 61.2023C55.3374 64.3311 35.4355 74.2387 29.7869 77.2804C34.4798 80.2351 36.6524 87.3613 37.3478 94.5745C37.4344 95.2699 37.5215 95.8784 37.6085 96.5734C37.6951 97.1818 37.7822 97.6162 37.8688 97.8773C37.8688 97.9643 37.8688 98.138 37.9558 98.2246C43.0835 84.2329 61.4204 69.4587 62.1158 68.3289C62.4631 67.8075 61.681 65.5479 62.8979 63.3758C64.4625 60.5939 67.5046 59.377 63.159 61.2023Z" fill="black"/>
<path opacity="0.4" d="M81.7571 126.818C85.7545 118.822 85.8416 111.174 85.7545 102.223C85.7545 98.4856 88.4485 93.1843 87.0584 94.6618C81.8437 100.484 68.7211 111.435 59.2483 112.043C72.5449 111.609 77.7592 118.3 81.7571 126.818Z" fill="black"/>
<path d="M22.1389 84.6661C27.0925 81.103 52.7301 67.4591 58.9005 65.5468C65.0705 63.5478 63.1586 61.2012 63.1586 61.2012C63.1586 61.2012 38.1295 71.9775 23.1817 81.2767" fill="black"/>
<path opacity="0.4" d="M95.1403 59.552C93.1414 58.7699 91.5772 61.1166 92.0986 63.3762C92.6204 65.6358 97.3133 68.1557 97.0522 76.4121C96.8786 83.191 95.401 85.9716 95.401 85.9716L92.0986 81.8005C92.0986 81.8005 91.5772 72.4143 90.4474 71.0238C89.318 69.6333 85.7545 67.1129 84.364 65.8095C82.9735 64.5056 85.9282 62.7678 85.7545 60.3341C85.5809 57.9878 87.2321 53.2949 87.2321 53.2949L95.1403 59.552Z" fill="black"/>
<path opacity="0.4" d="M107.22 96.5723C107.047 103.09 108.524 112.737 109.132 117.343C109.741 121.949 110.523 122.297 109.132 124.383C107.742 126.382 105.917 129.684 105.917 129.684L99.9202 129.162C99.9202 129.162 104.7 123.079 104.96 121.949C105.221 120.82 102.527 112.216 102.527 112.216L107.22 96.5723Z" fill="black"/>
<path opacity="0.4" d="M95.6621 35.7384C96.879 38.432 98.3561 39.6488 100.702 40.4313C102.093 40.9527 107.568 41.6482 109.741 39.2145C110.697 38.0847 110.088 35.043 110.088 35.043L105.135 39.0404L98.4427 37.824L97.6606 35.825L95.6621 35.7384Z" fill="black"/>
<path d="M96.1831 41.7363C98.4427 43.2139 104.092 44.6044 105.656 44.8651C107.22 45.2124 109.74 43.2139 110.957 42.6925C112.261 42.0841 114.521 41.7363 117.128 44.083C117.388 44.3437 116.519 45.4735 116.519 45.4735C116.432 45.3865 115.911 45.3865 115.215 45.0387C114.52 44.6914 113.912 44.4303 112.869 44.5173C108.524 45.0387 107.829 46.5163 104.005 45.6467C100.181 44.7772 99.2248 44.0826 95.488 44.2562" fill="#88CE02"/>
<path d="M96.1831 41.7363C98.4427 43.2139 104.092 44.6044 105.656 44.8651C107.22 45.2124 109.74 43.2139 110.957 42.6925C112.261 42.0841 114.521 41.7363 117.128 44.083C117.388 44.3437 116.519 45.4735 116.519 45.4735C116.432 45.3865 115.911 45.3865 115.215 45.0387C114.52 44.6914 113.912 44.4303 112.869 44.5173C108.524 45.0387 107.829 46.5163 104.005 45.6467C100.181 44.7772 99.2248 44.0826 95.488 44.2562" stroke="black" stroke-width="1.586" stroke-linejoin="round"/>
<path d="M95.4011 41.9961C98.2691 43.2129 103.831 44.5164 105.395 44.8641C106.959 45.2119 109.48 43.6473 110.697 42.8652C112.87 41.4747 115.65 42.6045 116.954 44.0821C117.823 45.0378 118.171 45.6462 118.171 45.9069C118.171 46.2542 117.128 45.9069 117.128 45.9069C116.52 45.6462 115.824 45.5596 115.303 45.2115C114.608 44.8641 113.912 44.3428 112.87 44.4294C108.524 44.9512 107.655 46.4283 103.919 45.5592C100.182 44.6901 99.2257 43.908 95.2283 44.1683" fill="#88CE02"/>
<path d="M81.9308 123.166C81.7571 122.992 82.1044 122.818 81.9308 122.818C80.8014 122.818 79.2368 121.949 78.3673 120.732C74.6305 115.344 69.1551 111.781 59.2479 112.042C44.3867 112.389 38.4769 106.306 37.3475 94.661C36.7391 88.3169 35.0009 82.1464 31.4378 78.6699L29.3518 79.9738C33.3492 83.4499 34.6531 89.0989 35.5223 96.8335C36.9128 108.479 46.2986 113.867 57.249 114.041C68.6337 114.215 72.7182 116.561 76.9763 122.297C78.3668 124.122 79.9314 124.731 81.1479 124.991L81.9308 123.166Z" fill="black"/>
<path opacity="0.4" d="M122.255 67.2852C122.516 68.5886 123.211 71.1089 124.602 72.3254C125.21 72.9338 125.297 73.1074 124.776 73.1074C124.254 73.1074 120.43 72.9338 120.43 72.9338L119.387 71.1089L122.255 67.2852Z" fill="black"/>
</g>
<defs>
<clipPath id="clip0_1_4720">
<rect width="512" height="188" fill="white"/>
</clipPath>
</defs>
</svg>
