<svg width="256" height="297" viewBox="0 0 256 297" fill="none" xmlns="http://www.w3.org/2000/svg">
<g clip-path="url(#clip0_1_4654)">
<path d="M40.1691 129.72C31.5062 133.795 8.57793 152.139 4.16187 157.574C-0.424293 163.009 -1.78263 154.517 2.9728 140.42C6.70844 129.041 16.221 113.584 32.1858 100.337C41.5266 92.6941 62.0784 81.6547 74.6462 75.1999C77.1944 73.8408 110.144 59.9138 139.527 52.9504C142.075 52.2708 136.47 57.1963 135.62 59.9138C131.204 72.8218 43.055 128.191 43.055 128.191L40.1691 129.72Z" fill="black"/>
<path d="M164.324 285.466C165.852 294.638 164.494 295.318 154.983 296.507C145.472 297.696 138.508 294.128 135.961 291.751C133.412 289.372 132.904 284.108 135.451 279.353C136.98 276.295 138.509 275.276 139.359 271.54C140.207 267.973 140.887 267.124 141.566 265.765C142.245 264.575 142.415 263.386 142.585 255.064C142.755 246.743 142.585 231.116 143.434 224.493C144.284 217.7 173.667 227.55 173.667 227.55C173.667 227.55 166.703 244.874 164.835 249.12C162.967 253.367 163.137 261.518 163.137 263.217C163.137 264.915 162.458 268.312 161.948 268.482C161.438 268.651 163.646 273.067 162.626 275.615C161.947 277.994 164.155 284.108 164.324 285.466Z" fill="black"/>
<path d="M175.534 25.775C174.514 19.321 175.534 6.58148 176.893 4.54439C181.139 -1.23084 203.558 -1.90959 208.314 4.88377C210.352 7.94065 210.182 15.0742 209.843 19.6604C209.503 24.2457 208.314 34.0968 208.144 37.3246C207.975 39.7028 183.347 43.4384 177.912 36.9844C176.383 35.2867 175.534 25.775 175.534 25.775Z" fill="black"/>
<path d="M225.468 268.99C235.829 276.464 243.811 277.822 249.076 280.54C254.341 283.258 252.983 288.523 244.151 290.052C237.017 291.41 225.808 288.692 218.335 288.692C210.862 288.692 194.217 289.542 189.801 286.485C184.706 282.919 186.913 276.294 186.913 276.294C188.272 272.558 191.668 264.235 190.649 257.442C189.63 250.648 188.271 246.912 185.724 240.627C183.176 234.343 181.309 218.888 183.687 218.038C186.065 217.188 185.384 218.038 188.442 218.717C191.499 219.396 194.896 220.415 201.52 220.415C208.144 220.415 215.447 219.396 217.995 218.887C220.543 218.377 222.581 217.867 221.731 223.133C220.882 228.398 218.335 238.249 218.165 245.892C217.995 253.535 217.995 262.367 218.505 263.895C219.014 265.424 222.751 267.122 225.468 268.99Z" fill="black"/>
<path d="M189.122 42.7594C170.439 58.8952 134.262 63.3104 80.5924 84.0316C66.8347 89.2965 30.1488 105.092 21.3167 121.567C51.0392 104.413 62.0793 128.021 64.4566 152.309C66.6638 175.068 78.0442 186.958 107.257 186.277C137.32 185.598 146.491 203.092 154.813 223.644C170.948 145.005 196.765 129.72 213.408 116.302C248.737 87.5979 205.257 36.9842 189.122 42.7594Z" fill="#88CE02"/>
<path d="M189.122 42.7598C144.283 58.3852 99.9535 62.2918 47.8121 94.3925C35.4136 102.035 9.25751 119.359 4.16187 152.479C23.1836 131.418 67.1732 104.923 121.014 88.1086C148.189 79.6158 168.061 74.0115 192.179 64.67C190.481 53.7991 190.481 49.5531 189.122 42.7598Z" fill="#88CE02"/>
<path d="M246.359 135.834C246.359 135.834 243.132 146.874 236.678 150.441C236.678 150.441 231.922 152.139 222.411 146.875C219.694 145.346 217.656 140.081 217.825 138.382C217.995 134.305 220.543 132.437 220.543 132.437C220.543 132.437 223.261 127.851 226.487 128.021C229.715 128.191 235.15 128.7 236.849 127.172C238.376 125.473 246.699 130.228 246.359 135.834Z" fill="black"/>
<path d="M177.063 29.0004C177.063 29.0004 176.384 37.6632 175.195 43.0974C175.025 44.1172 169.93 44.6259 166.193 46.1551C173.326 66.5361 216.297 66.366 221.902 56.3456C219.184 54.4778 213.749 51.5902 211.202 50.5712C208.654 49.5514 208.824 49.7215 208.654 44.9661C208.485 40.2098 208.144 31.3785 207.804 29.0004C207.465 26.6223 181.139 26.6223 177.063 29.0004Z" fill="black"/>
<path d="M178.761 29.0017C178.761 29.0017 178.761 33.9273 178.252 38.6827C178.082 40.8907 177.912 42.2491 177.573 43.9476C177.403 44.9674 183.347 49.0424 185.046 58.0446C193.198 76.2175 212.052 67.2161 219.864 58.5541C217.146 56.6855 212.73 54.1381 207.636 52.1001C205.087 51.0803 206.276 48.8732 206.107 44.1177C205.937 39.3623 205.257 32.398 204.918 29.8506C204.577 27.3032 182.838 26.6236 178.761 29.0017Z" fill="#EFEFEF"/>
<path d="M177.063 29.0004C177.063 29.0004 176.893 32.0581 176.384 35.6245C178.591 37.8317 181.479 40.8894 183.688 42.7581C185.216 44.1172 188.952 43.9471 192.35 43.9471C195.407 43.9471 198.124 44.2865 199.313 43.6077C202.032 42.2486 205.937 38.8523 208.145 36.3041C207.976 33.2472 207.806 30.3596 207.637 29.0004C207.465 26.6223 181.139 26.6223 177.063 29.0004Z" fill="black"/>
<path d="M192.519 41.9093C190.48 41.9093 188.102 41.74 186.234 41.3998C185.385 41.2305 184.536 40.7211 183.856 40.3809C182.667 39.5312 181.478 38.513 180.12 37.4932C177.402 35.4553 177.233 34.2662 177.233 33.7576C178.422 23.0568 176.893 14.0554 176.893 14.0554C176.893 14.0554 175.704 9.46928 182.158 8.28021C188.612 7.09115 192.518 6.92188 192.518 6.92188C192.518 6.92188 196.595 6.92188 202.879 8.28021C209.333 9.46928 208.144 14.0554 208.144 14.0554C208.144 14.0554 206.615 23.0568 207.804 33.7576C207.804 34.2662 207.635 35.4553 204.917 37.4932C202.538 39.1918 200.671 41.0596 198.803 41.3998C196.934 41.74 194.556 41.9093 192.519 41.9093Z" fill="black"/>
<path d="M192.519 2.50586C181.309 2.50586 179.101 5.56275 175.874 8.95984C175.195 9.8087 175.704 14.9043 176.893 25.7744H178.422C178.422 25.7744 177.402 22.7167 177.572 19.1503C177.742 15.5839 178.422 15.754 177.912 14.9043C177.233 13.8845 175.874 12.186 178.931 10.4883C181.988 8.78974 186.744 11.8466 192.519 12.0167C198.293 11.8466 203.219 8.78974 206.276 10.4883C209.333 12.186 207.974 13.8845 207.296 14.9043C206.616 15.9233 207.465 15.5831 207.635 19.1503C207.804 22.7167 206.785 25.7744 206.785 25.7744H208.314C209.333 14.9043 210.012 10.1489 209.503 9.29922C206.615 5.56275 203.728 2.67513 192.519 2.50586Z" fill="black"/>
<path d="M246.359 136.342C246.359 136.342 243.132 146.703 236.848 150.269C235.489 149.591 235.659 148.572 234.47 147.042C234.129 146.534 232.94 146.193 232.432 145.684C231.922 145.175 232.092 144.325 231.243 143.646C230.563 142.967 230.054 143.476 229.374 142.966C228.695 142.288 228.524 141.438 228.016 140.929C227.675 140.589 226.317 140.42 225.978 140.08C225.128 139.23 217.656 137.702 217.995 136.003C218.674 133.455 220.033 131.587 220.033 131.587C220.033 131.587 223.26 126.832 226.486 127.001C229.713 127.171 232.771 127.851 234.47 126.322C236.338 124.623 246.869 130.907 246.359 136.342Z" fill="black"/>
<path d="M224.279 61.2714C224.279 61.2714 234.979 58.7232 242.283 65.6875C249.587 72.8211 249.076 81.6523 246.869 87.0874C248.737 89.2954 252.134 95.4092 249.587 102.713C260.796 112.224 255.87 126.831 245.85 136.512C245.85 136.512 243.472 127.68 233.961 127.17C234.3 123.774 225.129 121.056 229.375 112.224C222.921 110.695 223.091 106.279 222.072 100.845C221.222 95.4092 224.279 61.2714 224.279 61.2714Z" fill="black"/>
<path d="M220.373 66.0278C220.373 66.0278 232.771 59.744 240.075 66.8775C247.378 74.0111 245.339 81.8234 243.132 87.2584C245 89.4656 249.416 95.7512 246.698 103.223C246.189 104.922 242.452 104.922 239.734 109.338C246.527 105.43 250.774 106.45 252.303 111.375C254.681 119.018 249.415 128.19 244.83 133.285C244.83 133.115 244.659 132.945 244.659 132.776C243.981 135.324 243.131 140.249 238.036 145.684C235.488 148.401 233.45 148.062 230.562 147.382C227.166 146.533 225.977 145.003 221.222 142.457C218.504 140.928 220.033 139.06 220.033 137.531C220.033 137.192 220.372 136.681 220.882 136.003C221.222 135.153 222.241 133.795 223.769 132.266C223.769 132.266 225.977 129.209 229.205 129.379C232.432 129.549 235.828 128.87 236.678 128.02C236.678 122.076 229.885 121.906 232.262 111.715C232.432 111.206 233.282 110.356 235.998 110.017C231.922 109.167 230.054 108.997 227.166 106.28C225.128 104.412 223.6 102.034 223.089 98.9773C222.071 93.7124 220.373 66.0278 220.373 66.0278Z" fill="#EFEFEF"/>
<path d="M184.536 55.3273C183.517 53.9681 178.252 47.1747 168.231 44.4572C165.343 43.6075 163.475 45.9857 160.588 47.6842C159.739 47.1747 156.002 45.4762 153.964 46.6644C151.926 47.8527 150.568 49.0426 148.529 49.8914C147.509 49.3819 144.793 49.3819 142.585 50.2308C140.377 50.9104 136.98 52.4388 133.753 56.8549C131.715 64.1586 169.759 58.7227 169.759 58.7227L184.536 55.3273Z" fill="black"/>
<path d="M184.876 55.3269C179.44 53.4582 180.29 47.1743 168.231 46.1554C165.853 45.9853 164.324 47.8531 162.626 49.0422C163.475 49.8919 164.324 51.2502 164.834 52.6085C163.305 50.9108 160.588 48.702 157.869 48.1925C155.322 47.6838 153.623 49.5517 150.906 50.9108C151.414 51.4195 151.925 52.2692 152.604 53.289C150.225 51.7605 148.528 51.251 145.301 52.4393C143.093 53.118 138.847 54.9867 135.62 59.5728C133.582 66.8765 169.928 58.7231 169.928 58.7231L184.876 55.3269Z" fill="#88CE02"/>
<path d="M216.806 58.0447C216.806 58.0447 216.806 56.1761 216.636 54.4783C216.636 54.139 215.278 53.2893 215.278 52.9499L214.938 52.6097C214.938 52.6097 217.656 51.0813 219.694 51.9309C221.901 52.6097 223.09 55.4973 223.09 55.4973C226.997 54.139 227.336 55.6674 229.205 57.7053C233.281 56.8556 233.79 58.3841 236.338 62.1214C236.338 62.1214 233.281 61.6119 227.337 62.63C221.562 63.4789 216.806 57.8746 216.806 58.0447Z" fill="black"/>
<path d="M216.127 57.1946C216.127 57.1946 217.146 56.3449 216.806 56.1748C218.673 55.1558 221.222 53.9676 222.411 57.1946C226.317 55.8354 226.827 57.704 228.695 59.7428C233.45 57.5348 233.789 60.2514 234.13 61.4405C232.601 61.4405 230.394 61.6106 227.336 61.95C221.562 62.7997 215.957 57.0244 216.127 57.1946Z" fill="#88CE02"/>
<path d="M158.38 52.9492C158.38 52.9492 168.061 56.3455 176.214 55.836C184.366 55.1573 198.293 54.4777 205.766 58.8937C205.766 58.8937 213.409 56.1754 220.543 58.044C227.677 59.9118 240.755 72.1411 236.849 85.049C236.509 85.8987 234.301 87.2571 231.753 88.1067C231.753 88.1067 233.112 93.8811 230.734 98.6366C228.356 103.223 223.091 112.055 222.921 124.283C222.752 126.321 222.412 130.567 222.072 132.605C208.824 132.096 188.443 127.17 168.402 127.51C168.571 125.303 168.741 123.944 168.911 121.736H169.42C168.401 116.131 168.061 113.243 167.042 108.997C160.588 104.921 153.793 100.166 148.02 91.1636C142.415 82.1614 158.38 52.9492 158.38 52.9492Z" fill="black"/>
<path d="M223.94 144.666C223.94 144.666 234.47 182.372 222.072 198.167C222.072 198.167 223.94 205.47 219.694 213.283C219.014 216.68 218.165 219.737 217.656 223.134C215.448 237.231 211.711 243.175 210.692 265.764L200.5 265.595C200.5 265.595 199.311 249.29 195.745 240.628C193.708 235.703 185.724 229.078 186.065 222.455C186.404 217.359 187.423 213.113 196.086 206.319C196.765 196.469 186.914 187.126 188.443 150.44L223.94 144.666Z" fill="black"/>
<path d="M220.883 143.137C223.601 160.461 229.884 186.107 218.505 198.675C219.014 201.053 219.354 204.45 218.674 208.356C218.335 210.394 217.655 212.602 216.806 214.979C215.108 219.056 214.428 225.001 213.919 228.567C211.711 242.664 211.711 243.344 210.692 265.933L200.5 265.763C200.5 265.763 199.311 249.458 195.745 240.797C193.708 235.871 189.461 231.625 189.122 225.001C188.782 219.907 192.349 209.716 200.842 210.055C200.332 189.504 190.82 193.58 188.273 150.78L220.883 143.137Z" fill="#EFEFEF"/>
<path d="M158.38 52.9492C158.38 52.9492 162.117 54.1383 166.193 54.4777C170.269 54.817 174.685 54.4777 178.591 54.3076C186.744 53.6288 198.293 52.7791 205.936 57.1952C205.936 57.1952 210.182 55.836 214.768 56.1754C216.806 56.3455 218.845 58.044 221.222 58.7236C228.695 60.5914 235.829 72.9899 232.601 84.2002C232.262 85.0499 229.884 84.2002 227.166 85.0499C227.675 87.428 228.016 92.863 225.297 98.6374C222.411 104.413 218.674 111.886 219.353 126.153C201.519 125.303 193.537 124.115 175.873 123.265C174.344 116.98 173.324 110.697 173.155 107.47C175.533 106.28 176.891 105.262 178.76 103.224C173.666 104.073 171.627 103.733 168.569 102.035C165.512 100.336 160.077 94.9009 157.36 91.3346C157.02 90.9944 155.152 96.5986 150.906 96.7696C149.377 94.5616 155.831 88.2769 154.642 85.8996C150.397 77.2367 158.38 52.9492 158.38 52.9492Z" fill="#EFEFEF"/>
<path d="M222.241 129.038C222.241 129.038 222.58 135.153 222.58 136.681C222.58 138.38 223.939 143.475 224.108 145.853C222.241 149.08 214.088 156.384 199.311 159.101C184.705 162.158 165.343 139.23 165.343 139.23C165.852 137.022 167.551 130.567 168.74 127.171C168.91 126.831 169.25 125.982 169.25 125.642C170.779 123.434 222.241 129.038 222.241 129.038Z" fill="black"/>
<path d="M218.505 129.549C218.505 133.795 219.184 136.852 219.694 139.57C220.543 144.495 221.901 147.722 221.901 150.949C221.901 160.8 208.993 159.101 198.122 159.441C183.516 162.499 171.117 139.57 171.117 139.57C172.136 135.663 172.816 131.248 174.344 127.511C174.514 125.473 174.854 122.925 175.023 121.736C195.744 121.736 210.351 122.925 218.844 123.773C219.184 125.642 218.844 128.869 218.505 129.549Z" fill="#EFEFEF"/>
<path d="M202.199 151.458C202.199 151.458 193.198 131.417 166.192 137.362C159.739 155.535 151.076 176.426 156.681 199.015C151.076 206.658 144.622 210.905 144.622 225.001C144.622 239.098 145.301 241.476 145.301 241.476L165.173 242.496C165.173 242.496 171.627 234.174 174.174 225.172C174.854 222.624 175.533 218.039 175.024 212.774C175.703 211.755 178.59 209.377 178.93 204.791C178.93 204.791 188.611 199.696 194.217 187.298C199.482 176.086 198.123 166.405 202.199 151.458Z" fill="black"/>
<path d="M202.199 151.459C201.69 149.591 194.896 131.248 169.759 136.682C154.983 176.086 160.418 192.392 162.626 199.524C152.604 212.262 148.019 214.98 150.058 240.796H163.306C169.42 231.115 170.779 227.548 171.118 214.81C171.118 214.301 169.25 215.829 167.891 217.528C168.911 212.263 171.798 211.244 174.006 208.017C175.025 206.658 175.874 204.62 175.874 201.902C187.763 193.92 192.179 183.899 194.726 173.538C196.765 166.405 199.142 154.686 202.199 151.459Z" fill="#EFEFEF"/>
<path d="M160.248 124.113C160.248 124.113 164.834 124.283 168.911 125.642C172.818 127 172.818 127.849 174.346 129.548C175.874 131.248 179.611 133.794 178.932 136.342C178.592 137.701 177.743 138.04 176.554 139.229C176.045 139.739 172.307 143.815 171.458 144.324C170.949 144.663 170.269 145.174 169.76 145.513C169.251 145.853 167.723 146.872 167.212 147.212C165.514 148.061 164.325 148.571 162.457 148.401C162.457 148.401 158.211 148.231 155.493 145.344C155.493 145.344 155.153 143.985 155.833 143.306C155.833 143.306 152.266 140.248 151.247 138.21C150.227 136.173 150.227 133.286 150.907 131.757C151.247 130.227 157.87 125.981 160.248 124.113Z" fill="black"/>
<path d="M164.495 289.371L163.985 293.618C163.985 293.618 162.457 295.486 151.077 295.317C139.528 295.146 136.471 291.58 135.452 289.711L134.773 285.295C134.773 285.295 136.981 282.068 137.491 282.068C141.227 282.408 153.966 287.503 162.798 288.862C163.645 288.862 163.814 289.201 164.495 289.371Z" fill="black"/>
<path d="M189.122 280.709C189.122 282.577 188.952 282.577 188.952 284.446C190.99 285.974 196.086 286.824 205.766 286.653C219.863 286.314 232.941 290.9 248.906 288.181L249.076 285.125L247.548 284.955L190.99 280.369L189.122 280.709Z" fill="black"/>
<path d="M201.52 286.654C202.88 286.654 204.238 286.654 205.766 286.654C214.939 286.314 223.601 288.352 232.941 288.862C237.867 288.691 243.982 287.502 243.472 283.936L195.236 279.859C192.349 283.086 194.556 285.804 201.52 286.654Z" fill="black"/>
<path d="M146.151 215.15C147.679 216.169 158.04 222.284 174.855 221.434C174.514 224.661 174.684 230.946 167.212 241.985C163.475 247.42 160.247 256.932 159.568 268.991C159.739 271.709 161.267 274.086 159.229 277.653C159.908 279.86 162.625 284.276 163.985 286.994C165.343 289.712 166.022 292.769 157.02 292.939C147.849 293.108 133.072 292.09 135.111 284.957C136.131 281.22 139.017 277.314 139.358 275.784C139.697 274.256 139.697 269.671 142.584 266.613C145.132 258.121 144.282 249.969 143.774 242.326C142.924 234.342 142.754 221.604 146.151 215.15Z" fill="black"/>
<path d="M161.947 76.7273C174.006 60.5915 163.815 47.6844 144.453 51.5902C136.64 53.1186 128.828 58.5545 128.318 68.4047C125.77 68.7441 119.996 69.0835 117.108 79.6141C114.901 87.7666 113.712 89.2951 109.805 93.3709C107.257 96.2586 109.975 102.203 111.843 106.45C118.127 121.056 137.489 122.415 150.567 133.455C154.983 132.266 159.569 127.341 160.928 124.114C149.888 111.035 152.265 105.94 147.849 99.147C152.605 97.4476 163.475 90.8244 161.947 76.7273Z" fill="black"/>
<path d="M159.568 75.708C160.247 74.6882 161.436 72.481 161.947 71.6313C162.117 71.4612 163.985 74.6882 164.155 74.5189C168.74 67.0452 169.929 56.1751 164.663 55.1562C163.474 54.9861 161.267 54.4774 159.398 53.797C156.002 52.6079 152.945 52.6079 147.509 53.6277C140.036 54.9861 132.563 60.4211 132.563 68.2342C132.563 68.7437 137.828 70.2722 139.357 76.5569C136.809 72.9897 132.393 69.0831 127.128 72.4802C121.522 76.0465 124.41 84.1991 116.937 92.691C114.389 95.5786 114.729 98.9757 117.446 105.769C121.862 116.47 142.753 122.244 154.133 132.435C156.85 131.246 158.718 128.528 160.077 126.49C152.434 118.508 149.376 111.034 147.169 105.599C144.452 99.3151 141.394 95.7487 135.449 90.9916C138.507 92.1807 140.885 93.3697 142.243 94.3887C143.771 95.4077 145.979 95.5778 148.018 94.8982C155.323 92.3524 159.229 82.1612 159.568 75.708Z" fill="#EFEFEF"/>
<path d="M233.451 78.427C232.941 84.881 228.186 81.654 225.638 80.4649C220.543 78.2569 215.447 76.7285 209.503 76.7285C203.558 76.7285 195.915 77.2379 189.292 78.9365C180.12 81.4839 177.402 81.3146 173.326 79.2759C169.25 77.0678 162.118 71.6328 162.118 71.6328C162.118 71.6328 161.947 73.3314 163.646 75.5394C165.853 78.2569 170.78 81.654 177.403 83.8612C180.63 84.881 183.178 84.2006 186.066 83.5218C201.182 79.7853 217.146 79.1058 230.564 87.2583C231.244 87.5977 233.622 86.5787 234.641 85.0503C235.998 82.8431 233.451 78.427 233.451 78.427Z" fill="black"/>
<path d="M156.172 143.137C157.531 143.986 159.229 144.496 161.097 146.024C161.097 146.024 159.569 146.024 158.89 145.346C158.04 144.836 156.342 143.308 156.172 143.137Z" fill="#001423"/>
<path d="M205.257 8.44991C204.747 6.92147 201.01 4.20312 192.349 4.20312C183.007 4.20312 180.29 7.09074 180.12 8.61918C180.12 9.12866 179.441 14.5645 179.271 16.7717C179.271 16.7717 179.271 19.4892 179.44 23.5651C179.61 26.2826 180.29 27.811 180.629 31.3782C180.968 35.1139 181.988 37.492 183.856 40.5497C184.706 41.0584 185.385 41.5687 186.234 41.7388C189.631 42.4175 195.576 42.5876 198.803 41.7388C200.671 41.2293 203.049 38.0023 203.558 35.1147C204.237 31.5483 204.917 29.0001 205.087 26.7929C205.426 24.5857 205.596 19.6593 205.765 18.3002C206.276 14.5645 205.426 8.78929 205.257 8.44991Z" fill="#EFEFEF"/>
<path d="M187.423 218.377C187.423 218.377 196.426 222.284 218.675 218.886C218.675 218.886 212.391 250.478 215.279 266.272C215.279 266.272 218.166 270.349 239.566 278.161C239.566 278.161 249.077 280.539 248.738 285.296C248.738 285.296 249.077 286.315 237.528 285.975C225.98 285.634 215.109 283.596 207.466 283.596C199.823 283.596 191.67 283.936 190.312 281.729C188.783 279.691 190.651 274.425 192.859 271.367C195.238 268.141 194.558 265.762 194.388 259.988C193.877 244.872 182.328 229.247 187.423 218.377Z" fill="black"/>
<path d="M185.555 221.265C184.366 222.964 185.724 229.417 187.423 235.702C189.121 241.985 192.858 245.723 193.707 256.082C194.556 266.273 194.726 267.632 191.839 273.576C188.951 279.519 188.102 284.955 198.122 285.125C208.143 285.295 213.579 284.955 223.769 286.485C233.96 288.013 237.527 288.522 243.132 287.674C248.737 286.825 249.925 284.955 247.548 283.258C245.17 281.559 235.319 279.691 231.073 276.293C226.996 273.236 215.447 268.141 215.278 266.782C214.769 262.196 214.598 245.552 215.447 240.117C216.297 234.681 217.485 226.869 217.825 224.831C218.166 222.793 219.863 220.754 216.976 221.434C214.089 222.112 203.219 223.642 195.066 223.132C186.914 222.623 186.065 220.755 185.555 221.265Z" fill="#88CE02"/>
<path opacity="0.3" d="M191.33 273.746C194.217 275.104 198.463 276.124 201.69 276.124C201.69 276.124 200.5 281.729 202.369 285.126C204.237 288.523 188.782 286.485 188.782 286.485L188.103 274.426L191.33 273.746Z" fill="black"/>
<path opacity="0.3" d="M236.338 288.353C239.056 287.503 240.925 284.447 238.717 281.56C236.338 278.672 234.3 278.163 237.357 277.993C240.415 277.823 251.624 284.617 251.624 284.617L245.849 289.882L236.338 288.353Z" fill="black"/>
<path opacity="0.3" d="M185.045 227.888C188.952 229.247 194.896 229.586 199.992 229.416C205.087 229.247 212.73 228.566 217.656 226.869C222.581 225.17 220.543 228.737 220.543 228.737L217.825 231.285C217.825 231.285 211.371 233.832 200.842 233.663C188.443 233.493 184.706 232.135 184.706 232.135L185.045 227.888Z" fill="black"/>
<path opacity="0.3" d="M185.385 236.38C189.292 237.74 195.236 238.079 200.331 237.909C205.426 237.74 212.22 237.74 217.146 235.871C219.184 235.192 217.995 238.079 217.995 238.079L217.146 239.607C217.146 239.607 210.522 241.986 200.161 241.815C187.763 241.645 185.555 240.626 185.555 240.626L185.385 236.38Z" fill="black"/>
<path d="M174.175 117.32C174.175 118.509 187.423 125.133 194.726 126.492C202.03 127.85 217.316 126.492 219.693 125.982L219.353 128.36C219.353 128.36 201.18 131.078 187.253 127.341C173.325 123.605 174.855 122.755 174.855 122.755L174.175 117.32Z" fill="black"/>
<path d="M145.811 262.196C147.849 263.216 155.153 265.084 159.908 264.065C160.587 263.895 159.908 252.345 161.777 247.08C164.494 239.777 168.91 233.832 170.947 220.925C163.814 220.245 155.662 218.377 151.415 217.018C145.981 233.663 147.85 247.929 145.811 262.196Z" fill="#EFEFEF"/>
<path d="M157.191 272.896C158.38 273.236 159.229 274.594 159.569 273.746C160.248 272.217 158.38 269.33 158.21 267.292C158.21 267.122 158.21 267.292 158.21 267.122C156.682 265.764 146.321 265.594 147.001 266.272C145.812 268.48 143.944 268.141 143.265 272.557C142.926 274.764 145.643 272.896 148.19 272.726C143.605 275.783 138.34 279.691 137.49 283.087C136.471 287.842 138.17 289.202 143.265 291.75C147.681 292.769 152.946 292.939 157.022 292.769C161.608 291.919 162.458 289.712 161.099 286.654C159.059 282.068 157.701 276.123 157.191 272.896Z" fill="#EFEFEF"/>
<path d="M159.059 52.2695C164.664 55.4965 172.477 54.6477 175.364 54.4776C176.044 54.4776 182.838 53.2885 183.177 53.4578C183.856 53.6279 183.856 54.1374 183.856 54.1374C183.856 54.1374 181.309 55.4957 175.534 55.8351C170.099 56.1744 163.645 55.8351 160.079 54.1374C155.832 52.2695 159.059 52.2695 159.059 52.2695Z" fill="black"/>
<path d="M216.806 55.4973C217.825 56.176 224.449 58.7243 227.337 61.7812C229.885 64.4995 228.526 64.3294 228.016 63.6498C227.337 62.8001 222.071 59.2338 220.033 58.3849C217.995 57.5361 215.447 56.0068 215.447 55.6674C215.447 55.328 216.806 55.4973 216.806 55.4973Z" fill="black"/>
<path d="M158.21 125.981C163.135 125.642 168.231 126.831 171.458 130.227C173.156 131.926 175.874 133.794 175.534 135.492C175.534 136.002 174.515 137.361 173.667 138.38C173.157 139.059 171.629 140.587 171.118 141.097C170.44 141.607 168.061 143.476 167.552 143.815C167.042 144.155 166.363 145.005 165.853 145.174C164.156 146.024 162.287 145.344 160.588 144.495C158.891 143.646 160.929 143.476 159.06 142.117C154.475 138.89 151.926 136.681 153.795 130.397C153.964 129.208 155.832 127.849 158.21 125.981Z" fill="#EFEFEF"/>
<path opacity="0.4" d="M114.9 87.0877C99.6141 93.2023 60.7192 112.565 49.6799 118.51C58.8514 124.284 63.0974 138.211 64.4565 152.308C64.6258 153.667 64.7959 154.856 64.966 156.215C65.1353 157.404 65.3054 158.252 65.4747 158.763C65.4747 158.933 65.4747 159.272 65.6448 159.442C75.666 132.097 111.502 103.224 112.861 101.015C113.54 99.9965 112.012 95.5805 114.39 91.3354C117.448 85.8987 123.393 83.5205 114.9 87.0877Z" fill="black"/>
<path opacity="0.4" d="M151.247 215.321C159.059 199.696 159.229 184.749 159.059 167.255C159.059 159.951 164.324 149.59 161.607 152.478C151.416 163.857 125.77 185.258 107.257 186.446C133.243 185.598 143.434 198.676 151.247 215.321Z" fill="black"/>
<path d="M34.7332 132.946C44.4141 125.983 94.5184 99.3179 106.577 95.5806C118.636 91.6741 114.899 87.0879 114.899 87.0879C114.899 87.0879 65.9841 108.148 36.7711 126.322" fill="black"/>
<path opacity="0.4" d="M177.402 83.8612C173.496 82.3327 170.439 86.9189 171.458 91.335C172.477 95.751 181.649 100.676 181.139 116.812C180.799 130.06 177.912 135.494 177.912 135.494L171.458 127.342C171.458 127.342 170.439 108.998 168.231 106.281C166.023 103.563 159.059 98.6378 156.342 96.0904C153.624 93.5422 159.398 90.1459 159.059 85.3896C158.72 80.8043 161.947 71.6328 161.947 71.6328L177.402 83.8612Z" fill="black"/>
<path opacity="0.4" d="M201.011 156.215C200.671 168.953 203.559 187.806 204.747 196.808C205.936 205.81 207.465 206.489 204.747 210.566C202.03 214.472 198.463 220.926 198.463 220.926L186.744 219.907C186.744 219.907 196.085 208.018 196.594 205.81C197.103 203.602 191.838 186.788 191.838 186.788L201.011 156.215Z" fill="black"/>
<path opacity="0.4" d="M178.422 37.324C180.8 42.5881 183.687 44.9662 188.272 46.4955C190.99 47.5145 201.69 48.8736 205.936 44.1174C207.804 41.9093 206.615 35.9648 206.615 35.9648L196.934 43.7772L183.856 41.3999L182.328 37.4933L178.422 37.324Z" fill="black"/>
<path d="M179.44 49.043C183.856 51.9306 194.896 54.6481 197.953 55.1576C201.01 55.8363 205.935 51.9306 208.314 50.9116C210.862 49.7226 215.278 49.043 220.373 53.6291C220.882 54.1386 219.184 56.3466 219.184 56.3466C219.013 56.1765 217.995 56.1765 216.635 55.497C215.277 54.8182 214.088 54.3079 212.05 54.478C203.557 55.497 202.199 58.3846 194.726 56.6852C187.253 54.9858 185.384 53.6283 178.082 53.9677" fill="#88CE02"/>
<path d="M179.44 49.043C183.856 51.9306 194.896 54.6481 197.953 55.1576C201.01 55.8363 205.935 51.9306 208.314 50.9116C210.862 49.7226 215.278 49.043 220.373 53.6291C220.882 54.1386 219.184 56.3466 219.184 56.3466C219.013 56.1765 217.995 56.1765 216.635 55.497C215.277 54.8182 214.088 54.3079 212.05 54.478C203.557 55.497 202.199 58.3846 194.726 56.6852C187.253 54.9858 185.384 53.6283 178.082 53.9677" stroke="black" stroke-width="1.586" stroke-linejoin="round"/>
<path d="M177.911 49.5527C183.517 51.9309 194.387 54.4783 197.443 55.1579C200.5 55.8374 205.426 52.7797 207.804 51.2513C212.051 48.5338 217.485 50.7418 220.033 53.6294C221.731 55.4972 222.411 56.6863 222.411 57.1958C222.411 57.8745 220.373 57.1958 220.373 57.1958C219.184 56.6863 217.825 56.517 216.807 55.8366C215.448 55.1579 214.089 54.1389 212.052 54.3082C203.559 55.328 201.86 58.2147 194.558 56.5162C187.255 54.8176 185.386 53.2892 177.574 53.7979" fill="#88CE02"/>
<path d="M151.586 208.186C151.247 207.847 151.925 207.507 151.586 207.507C149.379 207.507 146.321 205.809 144.622 203.431C137.319 192.901 126.618 185.937 107.256 186.447C78.2125 187.126 66.6628 175.237 64.4557 152.478C63.2666 140.08 59.8695 128.021 52.906 121.227L48.8293 123.775C56.6417 130.568 59.1899 141.608 60.8885 156.724C63.606 179.483 81.9489 190.014 103.35 190.353C125.599 190.693 133.582 195.279 141.903 206.489C144.621 210.056 147.679 211.245 150.056 211.754L151.586 208.186Z" fill="black"/>
<path opacity="0.4" d="M230.394 98.9785C230.903 101.526 232.262 106.451 234.979 108.829C236.169 110.018 236.338 110.357 235.319 110.357C234.3 110.357 226.827 110.018 226.827 110.018L224.789 106.451L230.394 98.9785Z" fill="black"/>
</g>
<defs>
<clipPath id="clip0_1_4654">
<rect width="256" height="297" fill="white"/>
</clipPath>
</defs>
</svg>
