<svg width="512" height="80" viewBox="0 0 512 80" fill="none" xmlns="http://www.w3.org/2000/svg">
<g clip-path="url(#clip0_1_4826)">
<path d="M24.3954 28.2798L74.6545 0C74.6545 0 69.9162 4.16812 70.1246 13.1906C70.3467 22.8061 74.6545 26.3816 74.6545 26.3816L68.7487 23.6908L22.5163 41.7896C22.5163 41.7896 21.3939 38.6446 21.3756 36.2741C21.3278 30.426 24.3954 28.2798 24.3954 28.2798Z" fill="#029DD1"/>
<path d="M13.7034 46.7681L68.6148 26.6816C68.6148 26.6816 63.8766 30.8498 64.085 39.8726C64.3071 49.488 68.6148 53.0632 68.6148 53.0632L60.9433 50.11L11.6569 59.8119C11.6569 59.8119 10.701 56.9131 10.683 54.7624C10.6361 48.914 13.7034 46.7681 13.7034 46.7681Z" fill="#0047BD"/>
<path d="M3.0204 63.0557L60.9574 52.6621C60.9574 52.6621 56.2191 56.8302 56.4275 65.8527C56.6497 75.4682 60.9574 79.0437 60.9574 79.0437H3.45301C3.45301 79.0437 0.0510237 76.9773 4.38786e-05 70.7498C-0.0468448 64.9014 3.0204 63.0557 3.0204 63.0557Z" fill="#4817A1"/>
<path d="M89.2804 49.1274C89.2804 65.8618 101.849 76.8311 117.301 76.8311C126.587 76.8311 134.032 72.9884 139.316 67.1431V47.1259H114.018V55.373H129.95V63.6999C127.548 65.9419 122.745 68.5033 117.301 68.5033C106.733 68.5033 98.8874 60.3361 98.8874 49.1265C98.8874 37.917 106.733 29.8302 117.301 29.8302C122.798 29.8269 127.957 32.4816 131.15 36.9563L138.836 32.6333C134.513 26.4679 127.708 21.5039 117.301 21.5039C101.849 21.5039 89.2804 32.3934 89.2804 49.1274ZM146.433 75.7903H154.839V49.4478C156.52 46.7255 161.243 44.3235 164.766 44.3235C165.652 44.3088 166.538 44.3893 167.407 44.5637V36.2367C162.364 36.2367 157.721 39.1187 154.839 42.8023V37.1172H146.433V75.7903ZM189.258 76.751C201.667 76.751 209.192 67.5432 209.192 56.4138C209.192 45.3643 201.667 36.1566 189.258 36.1566C177.01 36.1566 169.404 45.3643 169.404 56.4138C169.404 67.5432 177.009 76.751 189.258 76.751ZM189.258 69.3058C182.133 69.3058 178.13 63.3016 178.13 56.4147C178.13 49.609 182.133 43.6039 189.258 43.6039C196.463 43.6039 200.466 49.6081 200.466 56.4147C200.466 63.2998 196.463 69.3058 189.258 69.3058ZM248.974 75.7903H257.78L269.789 37.1172H261.063L252.898 65.2214L243.69 37.1172H236.326L227.119 65.2214L218.954 37.1172H210.226L222.235 75.7903H231.042L240.009 47.4463L248.974 75.7903ZM284.831 76.751C288.754 76.751 291.235 75.7102 292.756 74.2688L290.754 67.9425C290.114 68.663 288.593 69.3037 286.992 69.3037C284.59 69.3037 283.309 67.3823 283.309 64.7405V44.4835H291.155V37.1172H283.309V26.5498H274.903V37.1187H268.499V44.485H274.903V66.8227C274.903 73.228 278.346 76.751 284.831 76.751ZM322.531 75.7903H330.94V48.4069C330.94 40.4814 326.776 36.1566 318.449 36.1566C312.366 36.1566 307.323 39.3592 304.759 42.4009V22.3847H296.353V75.7903H304.759V48.8074C306.761 46.1656 310.445 43.603 314.687 43.603C319.409 43.603 322.531 45.4445 322.531 51.4496V75.7903ZM339.658 75.7903H366.638C376.644 75.7903 382.168 69.6249 382.168 61.3781C382.168 54.8125 377.524 49.1274 371.841 48.2469C376.803 47.2061 381.126 42.7231 381.126 35.9966C381.126 28.47 375.684 22.3847 365.918 22.3847H339.658V75.7903ZM349.025 44.4835V30.6318H363.996C368.8 30.6318 371.52 33.5943 371.52 37.5967C371.52 41.5991 368.8 44.4823 363.996 44.4823H349.025V44.4835ZM349.025 67.5432V52.7306H364.396C369.76 52.7306 372.561 56.0929 372.561 60.0968C372.561 64.7408 369.52 67.542 364.396 67.542H349.025V67.5432ZM406.338 76.751C418.746 76.751 426.272 67.5432 426.272 56.4138C426.272 45.3643 418.746 36.1566 406.338 36.1566C394.09 36.1566 386.482 45.3643 386.482 56.4138C386.482 67.5432 394.09 76.751 406.338 76.751ZM406.338 69.3058C399.214 69.3058 395.209 63.3016 395.209 56.4147C395.209 49.609 399.214 43.6039 406.338 43.6039C413.543 43.6039 417.545 49.6081 417.545 56.4147C417.545 63.2998 413.543 69.3058 406.338 69.3058ZM449.802 76.751C462.21 76.751 469.736 67.5432 469.736 56.4138C469.736 45.3643 462.21 36.1566 449.802 36.1566C437.554 36.1566 429.947 45.3643 429.947 56.4138C429.947 67.5432 437.554 76.751 449.802 76.751ZM449.802 69.3058C442.676 69.3058 438.674 63.3016 438.674 56.4147C438.674 49.609 442.676 43.6039 449.802 43.6039C457.008 43.6039 461.009 49.6081 461.009 56.4147C461.009 63.2998 457.008 69.3058 449.802 69.3058ZM501.433 75.7903H512L495.588 54.6522L511.679 37.1172H501.274L484.219 55.7732V22.3847H475.813V75.7903H484.219V65.3814L489.583 59.8576L501.433 75.7903Z" fill="#029DD1"/>
</g>
<defs>
<clipPath id="clip0_1_4826">
<rect width="512" height="80" fill="white"/>
</clipPath>
</defs>
</svg>
