<svg width="256" height="272" viewBox="0 0 256 272" fill="none" xmlns="http://www.w3.org/2000/svg">
<g clip-path="url(#clip0_1_4821)">
<path d="M83.6548 96.9752L256 0C256 0 239.752 14.293 240.466 45.2325C241.228 78.2051 256 90.466 256 90.466L235.748 81.2389L77.2114 143.302C77.2114 143.302 73.3623 132.517 73.2995 124.389C73.1358 104.335 83.6548 96.9752 83.6548 96.9752Z" fill="#029DD1"/>
<path d="M46.9906 160.371L235.289 91.4922C235.289 91.4922 219.041 105.785 219.756 136.726C220.518 169.698 235.289 181.958 235.289 181.958L208.982 171.831L39.9728 205.1C39.9728 205.1 36.695 195.16 36.6334 187.785C36.4726 167.73 46.9906 160.371 46.9906 160.371Z" fill="#0047BD"/>
<path d="M10.3572 216.229L209.031 180.588C209.031 180.588 192.783 194.881 193.497 225.82C194.259 258.793 209.031 271.054 209.031 271.054H11.8407C11.8407 271.054 0.17481 263.968 -6.20715e-06 242.613C-0.160794 222.558 10.3572 216.229 10.3572 216.229Z" fill="#4817A1"/>
</g>
<defs>
<clipPath id="clip0_1_4821">
<rect width="256" height="272" fill="white"/>
</clipPath>
</defs>
</svg>
