<svg width="512" height="208" viewBox="0 0 512 208" fill="none" xmlns="http://www.w3.org/2000/svg">
<g clip-path="url(#clip0_1_4833)">
<path d="M56.6782 179.868C60.4794 184.925 65.4194 189.015 71.0974 191.806C77.2381 194.847 84.014 196.385 90.8661 196.293C96.4063 196.438 101.921 195.497 107.1 193.524C111.242 191.897 114.94 189.311 117.891 185.98C120.66 182.734 122.681 178.92 123.812 174.806C125.045 170.36 125.655 165.765 125.626 161.151V145.108H125.245C121.654 150.8 116.474 155.315 110.346 158.095C104.502 160.639 98.1932 161.94 91.82 161.915C85.575 161.962 79.3805 160.795 73.5811 158.478C68.0899 156.297 63.0656 153.088 58.7784 149.023C54.5243 144.939 51.1452 140.032 48.8463 134.601C46.4001 128.868 45.1647 122.691 45.2177 116.458C45.1649 110.243 46.3333 104.078 48.6566 98.3131C50.8526 92.8592 54.06 87.8696 58.1098 83.6074C62.159 79.38 67.0352 76.0316 72.4348 73.7708C78.2124 71.3686 84.4183 70.1666 90.675 70.2376C93.524 70.2541 96.3665 70.5093 99.1729 71.0005C102.259 71.5397 105.272 72.4373 108.15 73.6753C114.983 76.6367 120.889 81.3883 125.245 87.4284H125.626V72.5289H138.233V161.151C138.19 166.358 137.581 171.545 136.418 176.621C135.201 182.109 132.788 187.261 129.351 191.709C125.441 196.616 120.437 200.542 114.74 203.171C108.5 206.225 100.35 207.752 90.2916 207.752C82.1207 207.891 74.0043 206.398 66.4179 203.36C59.1598 200.251 52.649 195.628 47.3206 189.801L56.6782 179.868ZM58.9695 116.077C58.938 120.629 59.8148 125.141 61.5487 129.35C63.2018 133.389 65.5982 137.081 68.6137 140.236C71.6116 143.363 75.1767 145.891 79.119 147.686C83.2257 149.552 87.6913 150.497 92.2021 150.455C101.136 150.487 109.744 147.105 116.267 141.002C119.471 137.979 121.98 134.296 123.621 130.208C125.39 125.715 126.203 120.902 126.009 116.077C126.041 111.551 125.265 107.055 123.717 102.802C122.245 98.759 119.971 95.056 117.031 91.9155C114.009 88.7319 110.37 86.1975 106.336 84.4671C101.869 82.5686 97.055 81.625 92.2021 81.6968C87.6912 81.6554 83.2259 82.601 79.119 84.4671C75.1779 86.2637 71.6132 88.7911 68.6137 91.9155C65.5992 95.0712 63.2024 98.7635 61.5474 102.802C59.8143 107.011 58.9379 111.525 58.9695 116.077ZM189.607 161.915H175.857V26.6895H217.493C231.245 26.6895 242.099 29.6817 250.057 35.6663C258.014 41.6526 261.993 50.6932 261.995 62.7879C262.237 71.5669 259.052 80.0953 253.114 86.566C247.192 92.9973 238.629 96.7215 227.425 97.7386L266.388 161.915H249.579L212.528 99.0773H189.609L189.607 161.915ZM189.607 86.4718H214.055C219.309 86.5824 224.55 85.939 229.621 84.5613C233.329 83.5698 236.803 81.8495 239.84 79.501C242.289 77.5297 244.195 74.9661 245.378 72.0526C246.54 69.1032 247.123 65.9578 247.097 62.7879C247.111 59.6819 246.527 56.6022 245.378 53.7168C244.182 50.7839 242.279 48.1919 239.84 46.1716C236.832 43.7764 233.349 42.0508 229.621 41.11C224.539 39.8016 219.302 39.1914 214.055 39.2963H189.607V86.4718ZM290.068 26.6895H329.414C343.165 26.6895 354.019 29.6822 361.977 35.6676C369.934 41.654 373.913 50.6945 373.915 62.7892C373.915 74.8875 369.936 83.9594 361.977 90.005C354.019 96.0541 343.165 99.0782 329.414 99.0773H303.821V161.915H290.068V26.6895ZM303.823 86.4732H325.978C331.231 86.5835 336.473 85.9401 341.544 84.5626C345.252 83.5707 348.726 81.8505 351.762 79.5024C354.211 77.5308 356.117 74.9672 357.3 72.054C358.463 69.1047 359.046 65.9592 359.02 62.7892C359.034 59.6832 358.45 56.6034 357.3 53.7182C356.104 50.7853 354.202 48.1935 351.762 46.1729C348.755 43.7781 345.271 42.0525 341.544 41.1113C336.461 39.8031 331.225 39.1929 325.978 39.2976H303.821L303.823 86.4732ZM512 140.524C509.58 144.109 506.726 147.381 503.503 150.265C500.014 153.4 496.129 156.064 491.947 158.19C487.483 160.469 482.774 162.232 477.91 163.444C472.693 164.738 467.335 165.38 461.96 165.353C452.372 165.443 442.861 163.625 433.981 160.006C417.047 153.163 403.632 139.714 396.832 122.761C393.193 113.72 391.376 104.048 391.485 94.3023C391.376 84.5565 393.193 74.8851 396.832 65.8434C403.632 48.8917 417.047 35.4433 433.981 28.6013C442.861 24.9814 452.371 23.1634 461.96 23.2532C470.602 23.2995 479.158 24.9841 487.172 28.2179C495.72 31.6389 503.179 37.3163 508.753 44.6445L496.722 53.6213C495.106 51.2135 493.179 49.0298 490.991 47.1268C488.464 44.8891 485.675 42.9655 482.685 41.3979C479.491 39.7156 476.13 38.3714 472.656 37.3871C469.18 36.3812 465.579 35.8668 461.96 35.8587C453.937 35.7271 445.984 37.3571 438.66 40.6337C432.015 43.6484 426.065 48.0047 421.185 53.4289C416.354 58.8688 412.624 65.1933 410.201 72.0526C405.109 86.4488 405.109 102.156 410.201 116.552C412.624 123.411 416.354 129.735 421.185 135.174C426.064 140.601 432.014 144.958 438.66 147.971C445.983 151.25 453.937 152.88 461.96 152.747C465.515 152.749 469.063 152.429 472.561 151.792C476.119 151.138 479.583 150.047 482.875 148.545C486.345 146.954 489.563 144.862 492.425 142.336C495.641 139.464 498.437 136.153 500.732 132.502L512 140.524Z" fill="#244B5A"/>
<path d="M35.6138 70.9629L-1.47198e-06 35.6129L35.35 -0.00084042L70.9637 35.3491L35.6138 70.9629Z" fill="url(#paint0_linear_1_4833)"/>
<path d="M132.524 55.875L111.634 35.1404L132.369 14.251L153.258 34.9857L132.524 55.875Z" fill="url(#paint1_linear_1_4833)"/>
<path d="M36.9094 14.0266L15.5022 35.5944L37.0686 57.0016L55.3142 56.934L36.181 37.9547L130.658 37.6045L122.378 45.9405L131.501 45.9073L142.205 35.1234L131.421 24.4205L122.298 24.4536L130.641 32.7299L36.1638 33.0802L55.1537 13.959L36.9094 14.0266Z" fill="#244B5A"/>
</g>
<defs>
<linearGradient id="paint0_linear_1_4833" x1="-3525.76" y1="-3464.03" x2="3570.61" y2="-3490.41" gradientUnits="userSpaceOnUse">
<stop stop-color="#72C9C9"/>
<stop offset="1" stop-color="#02B0AD"/>
</linearGradient>
<linearGradient id="paint1_linear_1_4833" x1="-1956.41" y1="-2017.59" x2="2205.98" y2="-2033.06" gradientUnits="userSpaceOnUse">
<stop stop-color="#03B6B4"/>
<stop offset="1" stop-color="#74CBCA"/>
</linearGradient>
<clipPath id="clip0_1_4833">
<rect width="512" height="208" fill="white"/>
</clipPath>
</defs>
</svg>
