<svg width="256" height="344" viewBox="0 0 256 344" fill="none" xmlns="http://www.w3.org/2000/svg">
<g clip-path="url(#clip0_1_4839)">
<path d="M17.2975 83.3734C17.2975 83.3734 23.1722 106.031 24.0098 113.585C24.8505 121.137 8.90479 137.921 8.90479 146.314C8.90479 154.706 12.2574 169.811 30.7221 177.365C49.1869 184.918 51.7018 204.219 51.7018 215.97C51.7018 227.718 44.9895 250.374 44.9895 250.374C44.9895 250.374 40.7952 306.6 63.4512 316.67C86.1072 326.739 81.0743 326.739 86.1072 326.739C91.1412 326.739 128.068 341.848 149.885 335.974C171.704 330.099 177.575 323.387 177.575 323.387C177.575 323.387 199.396 325.063 206.109 305.76C212.825 286.46 217.018 246.18 214.5 227.716C211.982 209.252 208.627 184.919 223.731 176.526C238.84 168.133 254.783 158.066 252.265 149.672C249.747 141.28 236.323 129.53 236.323 129.53C236.323 129.53 232.965 108.553 235.481 103.516C237.997 98.4815 253.104 85.8904 244.712 76.6611C236.324 67.4307 221.214 67.4307 221.214 67.4307L201.914 69.107C201.914 69.107 169.186 39.7367 126.387 41.415C83.5902 43.0933 56.7338 69.107 56.7338 69.107C56.7338 69.107 42.4695 64.072 29.8804 69.107C17.2913 74.1441 14.7815 69.106 17.2975 83.3734Z" fill="#FBA919"/>
<path d="M93.9777 208.32C93.9777 208.32 77.3592 233.731 65.1696 251.764C63.2833 254.553 77.3592 254.746 77.3592 254.746L93.9777 208.32Z" fill="#E78724"/>
<path d="M101.89 155.637C101.89 155.637 96.8806 168.135 94.1363 174.76C91.1575 181.963 79.8003 185.546 79.8003 185.546C79.8003 185.546 85.6873 179.371 85.6873 163.729C85.6873 157.166 94.1598 154.557 94.1598 154.557L101.89 155.637Z" fill="#E78724"/>
<path d="M96.8296 162.703C96.8296 162.703 86.566 174.92 67.5094 168.078C48.4487 161.238 46.4949 136.8 46.4949 129.958C46.4949 123.115 82.6595 136.8 87.5481 139.733C92.4366 142.665 101.716 154.393 96.8296 162.703Z" fill="#E78724"/>
<path d="M24.8433 32.1517C24.8433 32.1517 42.4356 28.7284 54.1635 38.0151C65.8964 47.2997 69.3125 54.6326 69.3125 54.6326L49.5442 70.3028C49.5442 70.3028 39.9923 65.874 37.0596 53.1662C34.1279 40.4594 36.0827 34.5959 24.8433 32.1517Z" fill="#E78724"/>
<path d="M91.6981 127.413C84.1236 116.661 71.6411 111.971 61.6745 111.194C44.6802 109.865 36.6121 115.873 36.6121 115.873C36.6121 115.873 64.4444 117.051 72.4664 127.587C87.4004 147.197 109.187 148.79 112.671 144.483C108.642 144.684 104.21 142.688 99.4672 138.203C96.5038 135.397 94.1015 130.826 91.6981 127.413Z" fill="#E78724"/>
<path d="M44.7141 165.432C44.7141 165.432 13.8334 154.816 19.7029 144.066C25.5664 133.313 20.899 127.455 20.899 127.455C20.899 127.455 3.65583 140.327 8.04982 154.009C10.7501 162.408 15.2803 168.489 40.1563 180.147C52.088 202.309 42.6201 242.201 43.1874 242.389C44.1325 242.703 59.94 234.576 58.8607 197.254C58.532 185.793 57.6155 170.148 44.7141 165.432Z" fill="#E78724"/>
<path d="M85.1804 51.2754C72.2319 57.8536 54.4932 67.0143 54.4932 67.0143L61.4748 70.5071C60.8082 71.5864 60.4866 72.2305 60.4866 72.2305L67.6526 75.4889C67.6526 75.4889 85.1456 88.1609 95.8638 96.3078C92.29 85.3039 81.8002 68.0168 81.8002 68.0168C81.8002 68.0168 78.8275 60.0736 85.1804 51.2754Z" fill="#E78724"/>
<path d="M128.196 319.421C88.397 319.421 74.916 299.217 74.916 299.217L81.1358 314.363C83.4869 320.915 108.567 341.305 128.135 341.305" fill="#E78724"/>
<path d="M79.2771 285.564C79.2771 285.564 82.9389 307.942 97.6006 307.942C110.06 307.942 113.731 289.039 113.731 285.133L79.2771 285.564Z" fill="#E78724"/>
<path d="M54.8781 251.814C56.1807 248.228 60.7416 233.73 62.2069 220.536C63.9631 204.734 63.3231 181.621 63.3231 181.621C63.3231 181.621 59.4114 196.771 55.9902 199.22C52.5711 201.662 46.2161 218.276 46.2161 218.276C46.2161 218.276 42.8124 243.012 41.1924 251.326C45.6755 252.224 49.4499 249.582 54.8781 251.814Z" fill="#E78724"/>
<path d="M19.4725 153.766C19.4725 153.766 27.7781 150.831 30.2245 132.752C32.6667 114.668 27.2897 99.0293 27.2897 99.0293C27.2897 99.0293 27.7781 123.953 24.8475 128.842C21.9127 133.728 19.4725 135.194 16.0492 141.549C12.626 147.905 17.5146 151.81 19.4725 153.766Z" fill="#E78724"/>
<path d="M29.3899 36.4296L27.6941 35.3555C22.6939 35.5244 29.3899 36.4296 29.3899 36.4296Z" fill="#FDC168"/>
<path d="M91.9408 45.9215C91.9408 45.9215 84.1236 44.619 80.2119 38.7555C76.3002 32.8901 65.2247 21.1591 47.5678 21.0281C29.912 20.896 12.4436 25.721 12.4436 25.721L27.692 35.3559C29.3048 35.3036 32.1249 35.3251 36.7882 35.4808C55.9247 36.1167 58.8707 55.0453 58.8707 55.0453L126.313 45.7587" fill="#FBA919"/>
<path d="M98.4587 150.468C98.4587 150.468 89.3348 159.592 75.3234 156.657C61.312 153.726 52.8395 147.535 52.1882 136.782C51.5369 126.03 55.123 121.795 55.123 121.795C55.123 121.795 70.7605 126.686 78.2582 133.202C85.7518 139.717 91.2896 150.143 98.4587 150.468Z" fill="white"/>
<path d="M87.4169 147.209C87.4169 147.209 79.5045 150.824 70.6602 147.88C59.0828 144.019 58.3118 131.979 58.3118 131.979C58.3118 131.979 51.2093 152.821 71.122 156.833C87.0933 160.05 96.5387 150.796 96.5387 150.796L87.4169 147.209Z" fill="#C9C9C9"/>
<path d="M93.0397 41.5007C92.1888 23.6257 106.842 9.38906 111.919 8.78285C112.2 11.8118 111.637 23.6268 116.713 27.2599C118.19 17.6097 123.187 6.97037 142.92 0C138.694 11.2087 142.356 20.5978 144.099 24.9498C157.574 12.7191 166.653 14.7405 166.653 14.7405C166.653 14.7405 157.291 30.8961 160.952 41.4966C133.902 39.3759 93.1718 44.3709 93.0397 41.5007Z" fill="#463014"/>
<path d="M35.6937 68.7285C29.2394 63.374 34.0502 58.4045 33.5402 52.3209C33.2627 49.0841 33.0067 46.0295 31.9397 44.345C26.0005 34.9662 11.9891 32.1205 11.8488 32.0908L5.27271 30.8026L9.62573 25.7103C10.19 25.0508 28.0669 7.99404 55.7313 16.9254C75.0829 23.1666 89.4086 44.3307 89.9421 45.1857L80.2387 49.7487C80.1251 49.5684 68.7996 29.6752 52.1975 24.3217C38.777 19.9912 26.4081 24.1108 21.1099 26.8111C26.7419 29.0598 34.1055 33.1547 38.5425 40.1599C40.6355 43.4685 40.9888 47.6341 41.3298 51.6676C41.7793 57.0078 42.2002 62.049 46.1303 65.3135L35.6937 68.7285Z" fill="#463014"/>
<path d="M18.4556 146.894C18.4556 146.894 26.5872 136.81 28.9956 117.189C29.9418 109.461 28.2614 94.218 25.5724 88.3535C26.0608 102.77 22.3959 117.189 22.3959 117.189C22.3959 117.189 19.925 143.961 18.4556 146.894Z" fill="#463014"/>
<path d="M61.3336 58.5435C61.3295 58.522 58.7245 47.1382 51.5022 41.3915C41.3144 33.2875 28.8749 37.5986 28.7551 37.6365L26.9487 32.0567C27.5508 31.8611 41.7691 27.3811 54.8722 36.592C68.0541 45.8551 69.6362 54.2519 69.7734 55.1796L61.3336 58.5435Z" fill="#463014"/>
<path d="M43.9951 139.662C43.9951 139.662 39.7291 133.555 40.4961 126.838C40.878 123.522 42.4151 120.117 45.1594 118.909C50.2589 116.668 52.5189 122.449 52.5189 122.449C52.5189 122.449 45.3417 124.22 43.9951 139.662Z" fill="#463014"/>
<path d="M90.836 148.969C91.0141 149.301 91.1053 149.488 91.1053 149.488C91.1053 149.488 77.7994 159.474 64.1628 149.34C56.8637 143.911 57.5529 130.481 59.7893 124.786C65.6046 126.104 70.5372 128.479 74.6598 131.253C69.4497 126.603 64.8888 123.18 64.9011 123.101L58.9793 121.425L47.4696 117.479C47.3221 118.356 43.1237 138.034 55.2417 151.443C60.6126 157.388 85.7928 170.702 97.748 147.936L90.836 148.969Z" fill="#463014"/>
<path d="M89.5897 150.433C97.0813 161.835 115.983 155.319 115.658 143.265C115.658 143.265 103.028 150.235 91.8691 137.401C85.3545 129.908 64.4792 109.249 36.1697 116.115C55.7199 120.414 81.6015 138.276 89.5897 150.433Z" fill="#463014"/>
<path d="M33.5248 182.614C35.327 183.655 41.683 190.237 41.6871 200.082C41.6871 205.019 41.1956 229.819 38.7523 244.97C42.4274 247.358 44.9874 247.866 48.6472 250.3C50.4792 232.753 51.793 207.321 51.1806 197.054C50.4802 185.351 44.2143 177.497 38.4031 174.147C36.5835 173.101 34.6819 172.072 32.767 171.036C22.8138 165.658 12.5215 160.095 12.5215 150.595C12.5215 143.164 15.4102 140.84 18.4689 138.376L18.7986 138.109C20.8282 136.469 23.125 134.61 24.4859 131.556C28.199 123.207 28.8062 101.941 24.4859 96.5424C22.3325 93.8523 16.5622 84.8063 18.2211 78.7279C18.8529 76.4075 20.3142 74.6882 22.6929 73.4696C25.2099 72.1804 28.6106 71.5271 32.7967 71.5271C41.0194 71.5271 50.1392 74.0298 54.8445 75.5197C71.6575 80.8486 91.945 96.2127 97.7603 100.795C97.9272 100.923 98.0255 100.998 98.0429 101.01L101.764 103.598L99.4366 99.7035C99.2932 99.4608 84.5538 75.2248 58.1991 66.3385C53.0719 64.61 42.9988 61.709 33.0998 61.709C27.2057 61.709 22.2045 62.7381 18.2447 64.7656C13.4186 67.2345 10.1499 71.1738 8.79212 76.1535C5.46412 88.3606 16.3032 101.952 16.6728 102.386C17.9364 104.642 18.472 121.029 15.5526 127.588C15.1512 128.493 14.0504 129.383 12.6567 130.507C12.2205 130.861 11.732 131.227 11.2149 131.62C7.09638 134.728 0.868408 139.425 0.868408 150.252C0.868408 165.066 15.8823 173.099 27.9481 179.557C29.9275 180.622 31.8168 181.63 33.5248 182.614Z" fill="#463014"/>
<path d="M35.6937 68.7285C29.2394 63.374 34.0502 58.4045 33.5402 52.3209C33.2627 49.0841 33.0067 46.0295 31.9397 44.345C26.0005 34.9662 11.9891 32.1205 11.8488 32.0908L5.27271 30.8026L9.62573 25.7103C10.19 25.0508 28.0669 7.99404 55.7313 16.9254C75.0829 23.1666 89.4086 44.3307 89.9421 45.1857L80.2387 49.7487C80.1251 49.5684 68.7996 29.6752 52.1975 24.3217C38.777 19.9912 26.4081 24.1108 21.1099 26.8111C26.7419 29.0598 34.1055 33.1547 38.5425 40.1599C40.6355 43.4685 40.9888 47.6341 41.3298 51.6676C41.7793 57.0078 42.2002 62.049 46.1303 65.3135L35.6937 68.7285Z" fill="#463014"/>
<path d="M35.4838 69.8254L35.067 69.4803C30.2808 65.5082 31.1297 61.5955 31.952 57.8098C32.3258 56.0629 32.72 54.2565 32.5603 52.4041C32.2991 49.2891 32.0483 46.3502 31.1103 44.8665C25.4547 35.9372 11.7874 33.0761 11.6522 33.0485L3.43872 31.4377L8.88333 25.0725C8.98266 24.9537 20.4607 13.3672 39.9003 13.3672C45.1995 13.3672 50.6287 14.2489 56.0303 15.9937C76.2277 22.5064 90.6364 44.4497 90.7726 44.6668L91.3553 45.5986L79.8773 50.9971L79.4165 50.266C78.1815 48.1607 67.2984 30.213 51.9026 25.2466C48.121 24.026 44.1376 23.4096 40.0652 23.4096C32.6893 23.4096 26.7081 25.4197 23.5255 26.7693C28.8442 29.1644 35.2943 33.1959 39.376 39.6328C41.595 43.139 41.9544 47.4244 42.3067 51.5644C42.7388 56.7131 43.1474 61.5546 46.759 64.5528L48.122 65.6833L35.4838 69.8254Z" fill="#463014"/>
<path d="M61.3336 58.5435C61.3295 58.522 58.7245 47.1382 51.5022 41.3915C41.3144 33.2875 28.8749 37.5986 28.7551 37.6365L26.9487 32.0567C27.5508 31.8611 41.7691 27.3811 54.8722 36.592C68.0541 45.8551 69.6362 54.2519 69.7734 55.1796L61.3336 58.5435Z" fill="#463014"/>
<path d="M60.6331 59.8757L60.3792 58.7555C60.3525 58.6459 57.7976 47.6512 50.8908 42.1595C46.9545 39.025 42.2072 37.4338 36.7893 37.4338C32.5601 37.4338 29.4175 38.4434 29.0744 38.5622L28.1406 38.8725L25.7178 31.429L26.6465 31.129C27.0633 30.9969 30.8367 29.8203 36.1749 29.8203C43.2169 29.8203 49.875 31.8867 55.4373 35.7923C68.949 45.2878 70.5987 54.0686 70.74 55.0373L70.8588 55.8033L60.6331 59.8757ZM36.7903 35.482C42.5779 35.482 47.8792 37.2617 52.1103 40.6266C58.2431 45.5111 61.1277 54.1342 62.0001 57.2256L68.6479 54.5765C68.0458 52.2295 65.3957 45.1854 54.3119 37.3938C49.0087 33.6665 42.9087 31.7782 36.1759 31.7782C32.4813 31.7782 29.611 32.366 28.1928 32.7244L29.3919 36.4302C30.7825 36.0565 33.4582 35.482 36.7903 35.482Z" fill="#463014"/>
<path d="M96.9881 302.574C94.1004 302.574 91.1534 301.526 89.1105 299.758C87.5468 298.41 82.2589 293.553 79.9272 287.603C79.0568 285.378 79.2524 283.598 80.515 282.317C81.3854 281.44 83.1917 280.39 86.8587 280.39L89.4678 280.386C92.5767 280.383 97.8114 280.383 102.285 280.383H106.575C109.364 280.383 111.364 280.986 112.514 282.161C113.991 283.679 113.518 285.609 113.105 286.625C112.386 288.405 109.411 294.197 104.375 299.581C102.572 301.51 99.9475 302.574 96.9881 302.574Z" fill="#463014"/>
<path d="M100.015 151.104L89.5889 150.434C89.5889 150.434 92.2543 155.132 93.9808 161.208C95.9305 168.081 92.198 178.126 92.198 178.126C92.198 178.126 106.1 162.387 100.015 151.104Z" fill="#463014"/>
<path d="M87.0002 330.105C49.8914 327.253 36.8354 292.188 36.8354 284.885L46.5266 284.889L41.681 284.885H46.5266C46.5747 288.042 56.4369 318.037 87.7426 320.444L87.0002 330.105Z" fill="#463014"/>
<path d="M76.5718 267.281C75.9922 263.93 75.9318 260.751 76.6394 257.628C73.8193 255.508 68.7587 254.721 64.9617 253.49C61.8569 251.525 45.9685 255.504 34.4414 241.554C19.9989 224.086 23.0381 213.656 23.0381 213.656C19.3353 217.771 15.7462 216.203 10.1019 235.387C4.44944 254.574 12.7551 267.951 28.2349 281.38C35.5483 287.723 45.8866 290.336 54.779 291.337C51.8002 288.346 59.8673 288.047 65.4276 285.966C64.9842 281.477 65.7266 277.119 69.0741 273.609C71.0924 271.494 73.6892 270.229 76.3834 269.222C76.5339 268.873 76.6609 268.552 76.8043 268.218C76.7152 267.913 76.6281 267.605 76.5718 267.281Z" fill="white"/>
<path d="M65.3526 285.849C65.0311 284.907 64.7884 283.947 64.5498 282.98C64.2928 281.924 63.0128 278.933 64.5908 282.348C64.1853 281.474 63.9201 280.572 63.7245 279.664C38.6549 279.632 16.8447 262.42 21.0585 226.233C17.7766 221.876 13.1809 235.019 13.1809 235.019C13.1809 235.019 0.63072 271.461 33.0444 285.585C43.8445 290.295 53.3892 293.671 55.641 292.309C60.332 293.262 64.5662 289.991 66.1544 287.841C65.8564 287.18 65.5851 286.519 65.3526 285.849Z" fill="#C9C9C9"/>
<path d="M76.1202 262.033C76.1591 258.979 76.7828 256.021 78.2594 253.072C78.3628 252.87 78.4826 252.675 78.5932 252.477C68.9461 252.395 57.8357 251.471 48.3749 247.684C37.9762 243.525 24.9684 229.294 22.733 212.574C22.733 212.574 3.14896 227.686 8.90384 260.033C14.3054 290.406 39.7221 300.308 68.7095 301.984C68.7249 301.787 65.4491 295.021 66.4844 290.878C50.0246 292.075 31.6182 285.715 22.733 271.095C14.5983 257.713 16.8798 234.867 20.2231 231.519C28.3783 257.251 57.722 262.482 76.1202 262.033Z" fill="#463014"/>
<path d="M79.1574 243.612C73.9411 258.919 63.2864 271.308 63.2864 271.308C63.2864 271.308 77.9429 270.641 78.7519 268.047C79.3509 266.136 91.986 236.557 96.8357 201.908C92.2738 209.403 79.6038 242.301 79.1574 243.612Z" fill="#463014"/>
<path d="M162.195 208.32C162.195 208.32 178.809 233.731 191.003 251.764C192.889 254.553 178.809 254.746 178.809 254.746L162.195 208.32Z" fill="#E78724"/>
<path d="M154.28 155.637C154.28 155.637 159.29 168.135 162.031 174.76C165.01 181.963 176.366 185.546 176.366 185.546C176.366 185.546 170.48 179.371 170.48 163.729C170.48 157.166 162.008 154.557 162.008 154.557L154.28 155.637Z" fill="#E78724"/>
<path d="M159.34 162.703C159.34 162.703 169.603 174.92 188.665 168.078C207.727 161.236 209.679 136.8 209.679 129.958C209.679 123.115 173.515 136.8 168.626 139.733C163.738 142.665 154.454 154.393 159.34 162.703Z" fill="#E78724"/>
<path d="M231.328 32.1517C231.328 32.1517 213.736 28.7284 202.004 38.0151C190.276 47.2997 186.854 54.6326 186.854 54.6326L206.623 70.3018C206.623 70.3018 216.179 65.873 219.112 53.1652C222.042 40.4594 220.088 34.5959 231.328 32.1517Z" fill="#E78724"/>
<path d="M164.473 127.413C172.047 116.661 184.526 111.971 194.497 111.194C211.492 109.865 219.556 115.873 219.556 115.873C219.556 115.873 191.724 117.051 183.701 127.587C168.766 147.197 146.986 148.79 143.502 144.483C147.53 144.684 151.964 142.688 156.704 138.203C159.666 135.397 162.07 130.826 164.473 127.413Z" fill="#E78724"/>
<path d="M211.457 165.432C211.457 165.432 242.334 154.816 236.469 144.066C230.606 133.313 235.269 127.455 235.269 127.455C235.269 127.455 252.516 140.327 248.118 154.009C245.418 162.408 240.888 168.489 216.012 180.147C204.08 202.309 213.548 242.201 212.984 242.389C212.038 242.703 196.232 234.576 197.312 197.254C197.639 185.793 198.556 170.148 211.457 165.432Z" fill="#E78724"/>
<path d="M170.992 51.2754C183.936 57.8536 201.678 67.0143 201.678 67.0143L194.697 70.5071C195.364 71.5864 195.687 72.2305 195.687 72.2305L188.521 75.4889C188.521 75.4889 171.027 88.1609 160.308 96.3078C163.878 85.3039 174.368 68.0168 174.368 68.0168C174.368 68.0168 177.346 60.0736 170.992 51.2754Z" fill="#E78724"/>
<path d="M127.978 319.421C167.77 319.421 181.251 299.217 181.251 299.217L175.035 314.363C172.684 320.915 147.603 341.305 128.038 341.305" fill="#E78724"/>
<path d="M176.894 285.564C176.894 285.564 173.228 307.942 158.57 307.942C146.113 307.942 142.441 289.039 142.441 285.133L176.894 285.564Z" fill="#E78724"/>
<path d="M201.293 251.814C199.99 248.228 195.429 233.73 193.96 220.536C192.204 204.734 192.848 181.621 192.848 181.621C192.848 181.621 196.759 196.771 200.176 199.22C203.6 201.662 209.951 218.276 209.951 218.276C209.951 218.276 213.355 243.012 214.975 251.326C210.493 252.224 206.722 249.582 201.293 251.814Z" fill="#E78724"/>
<path d="M236.702 153.766C236.702 153.766 228.392 150.831 225.95 132.752C223.507 114.668 228.883 99.0293 228.883 99.0293C228.883 99.0293 228.392 123.953 231.326 128.842C234.261 133.73 236.702 135.194 240.124 141.549C243.542 147.904 238.656 151.81 236.702 153.766Z" fill="#E78724"/>
<path d="M226.78 36.4296L228.479 35.3555C233.48 35.5244 226.78 36.4296 226.78 36.4296Z" fill="#FDC168"/>
<path d="M164.227 45.9215C164.227 45.9215 172.048 44.619 175.956 38.7555C179.867 32.8901 190.946 21.1591 208.604 21.0281C226.26 20.896 243.728 25.721 243.728 25.721L228.479 35.3559C226.866 35.3036 224.046 35.3251 219.379 35.4808C200.245 36.1167 197.299 55.0453 197.299 55.0453L129.859 45.7587" fill="#FBA919"/>
<path d="M157.712 150.468C157.712 150.468 166.836 159.592 180.845 156.657C194.857 153.726 203.329 147.535 203.981 136.782C204.631 126.03 201.049 121.795 201.049 121.795C201.049 121.795 185.407 126.686 177.914 133.202C170.42 139.719 164.882 150.143 157.712 150.468Z" fill="white"/>
<path d="M168.751 147.209C168.751 147.209 176.667 150.824 185.508 147.88C197.088 144.019 197.859 131.979 197.859 131.979C197.859 131.979 204.958 152.821 185.045 156.833C169.077 160.05 159.629 150.796 159.629 150.796L168.751 147.209Z" fill="#C9C9C9"/>
<path d="M220.477 68.7285C226.931 63.374 222.124 58.4045 222.634 52.3209C222.906 49.0841 223.162 46.0295 224.23 44.345C230.171 34.9662 244.181 32.1205 244.325 32.0908L250.903 30.8026L246.549 25.7103C245.984 25.0508 228.107 7.99404 200.439 16.9254C181.09 23.1666 166.765 44.3307 166.232 45.1857L175.932 49.7487C176.049 49.5684 187.376 29.6752 203.978 24.3217C217.397 19.9912 229.766 24.1108 235.061 26.8111C229.432 29.0598 222.066 33.1547 217.629 40.1599C215.536 43.4685 215.186 47.6341 214.846 51.6676C214.396 57.0078 213.971 62.049 210.04 65.3135L220.477 68.7285Z" fill="#463014"/>
<path d="M237.711 146.894C237.711 146.894 229.584 136.81 227.175 117.189C226.229 109.461 227.907 94.218 230.595 88.3535C230.106 102.77 233.774 117.189 233.774 117.189C233.774 117.189 236.246 143.961 237.711 146.894Z" fill="#463014"/>
<path d="M194.838 58.5435C194.842 58.522 197.447 47.1382 204.67 41.3915C214.857 33.2875 227.297 37.5986 227.413 37.6365L229.225 32.0567C228.62 31.8611 214.404 27.3811 201.297 36.592C188.115 45.8551 186.537 54.2519 186.396 55.1796L194.838 58.5435Z" fill="#463014"/>
<path d="M212.176 139.662C212.176 139.662 216.442 133.555 215.671 126.838C215.293 123.522 213.756 120.117 211.012 118.909C205.912 116.668 203.651 122.449 203.651 122.449C203.651 122.449 210.829 124.22 212.176 139.662Z" fill="#463014"/>
<path d="M165.336 148.97C165.158 149.303 165.066 149.49 165.066 149.49C165.066 149.49 178.367 159.476 192.004 149.342C199.308 143.913 198.618 130.483 196.378 124.788C190.565 126.106 185.634 128.481 181.509 131.255C186.72 126.605 191.281 123.182 191.265 123.103L197.191 121.427L208.699 117.482C208.847 118.36 213.044 138.038 200.922 151.446C195.552 157.392 170.372 170.706 158.42 147.94L165.336 148.97Z" fill="#463014"/>
<path d="M166.578 150.433C159.087 161.835 140.19 155.319 140.516 143.265C140.516 143.265 153.142 150.235 164.301 137.401C170.816 129.908 191.695 109.249 220.003 116.115C200.454 120.414 174.571 138.276 166.578 150.433Z" fill="#463014"/>
<path d="M222.649 182.614C220.846 183.655 214.487 190.237 214.487 200.082C214.483 205.019 214.976 229.819 217.422 244.97C213.746 247.358 211.186 247.866 207.526 250.3C205.694 232.753 204.376 207.321 204.993 197.054C205.692 185.351 211.956 177.497 217.766 174.147C219.586 173.101 221.488 172.072 223.407 171.036C233.36 165.658 243.653 160.095 243.653 150.595C243.653 143.164 240.761 140.84 237.702 138.376L237.377 138.109C235.347 136.469 233.046 134.61 231.689 131.556C227.975 123.207 227.366 101.941 231.685 96.5424C233.839 93.8523 239.613 84.8063 237.954 78.7279C237.318 76.4075 235.856 74.6882 233.478 73.4696C230.96 72.1804 227.565 71.5271 223.374 71.5271C215.157 71.5271 206.032 74.0298 201.331 75.5197C184.518 80.8486 164.23 96.2127 158.411 100.795C158.245 100.923 158.149 100.998 158.13 101.01L154.407 103.598L156.735 99.7035C156.882 99.4608 171.618 75.2248 197.972 66.3385C203.1 64.61 213.172 61.709 223.072 61.709C228.966 61.709 233.963 62.7381 237.926 64.7656C242.754 67.2345 246.02 71.1738 247.38 76.1535C250.708 88.3606 239.868 101.952 239.498 102.386C238.235 104.642 237.7 121.029 240.615 127.588C241.017 128.493 242.118 129.383 243.514 130.507C243.951 130.861 244.435 131.227 244.956 131.62C249.076 134.728 255.301 139.425 255.301 150.252C255.301 165.066 240.287 173.099 228.225 179.557C226.244 180.622 224.352 181.63 222.649 182.614Z" fill="#463014"/>
<path d="M204.738 66.9845C202.351 62.9397 196.243 55.1296 182.168 48.2668C166.459 40.6103 148.279 36.7242 128.124 36.715V36.7109H128.085H128.046V36.713C107.888 36.7232 89.7044 40.6093 74.0003 48.2647C59.9244 55.1286 53.8193 62.9376 51.4293 66.9824L50.4043 68.3392L62.4578 71.0221L62.8398 70.5398L63.0415 70.0974C63.2278 69.3008 64.8437 65 78.2827 58.4464C92.6494 51.4391 109.406 47.8869 128.083 47.8807C146.762 47.8869 163.511 51.4391 177.877 58.4464C191.317 65 192.938 69.3008 193.122 70.0974L193.323 70.5398L193.701 71.0221L205.758 68.3392L204.738 66.9845Z" fill="#463014"/>
<path d="M220.477 68.7285C226.931 63.374 222.124 58.4045 222.634 52.3209C222.906 49.0841 223.162 46.0295 224.23 44.345C230.171 34.9662 244.181 32.1205 244.325 32.0908L250.903 30.8026L246.549 25.7103C245.984 25.0508 228.107 7.99404 200.439 16.9254C181.09 23.1666 166.765 44.3307 166.232 45.1857L175.932 49.7487C176.049 49.5684 187.376 29.6752 203.978 24.3217C217.397 19.9912 229.766 24.1108 235.061 26.8111C229.432 29.0598 222.066 33.1547 217.629 40.1599C215.536 43.4685 215.186 47.6341 214.846 51.6676C214.396 57.0078 213.971 62.049 210.04 65.3135L220.477 68.7285Z" fill="#463014"/>
<path d="M208.054 65.6862L209.412 64.5557C213.027 61.5575 213.432 56.715 213.869 51.5673C214.219 47.4252 214.58 43.1398 216.799 39.6357C220.877 33.2009 227.332 29.1683 232.65 26.7712C229.466 25.4225 223.484 23.4124 216.107 23.4124C212.033 23.4124 208.056 24.0289 204.274 25.2495C188.874 30.2159 177.992 48.1635 176.76 50.2689L176.298 50.999L164.82 45.6015L165.404 44.6697C165.539 44.4526 179.944 22.5093 200.142 15.9966C205.544 14.2517 210.972 13.3711 216.276 13.3711C235.715 13.3711 247.194 24.9597 247.292 25.0764L252.737 31.4416L244.522 33.0524C244.386 33.08 230.72 35.939 225.06 44.8704C224.122 46.3552 223.876 49.291 223.61 52.408C223.455 54.2615 223.844 56.0678 224.223 57.8137C225.045 61.5994 225.892 65.5152 221.104 69.4842L220.688 69.8293L208.054 65.6862Z" fill="#463014"/>
<path d="M194.838 58.5435C194.842 58.522 197.447 47.1382 204.67 41.3915C214.857 33.2875 227.297 37.5986 227.413 37.6365L229.225 32.0567C228.62 31.8611 214.404 27.3811 201.297 36.592C188.115 45.8551 186.537 54.2519 186.396 55.1796L194.838 58.5435Z" fill="#463014"/>
<path d="M185.318 55.8033L185.432 55.0373C185.575 54.0686 187.226 45.2899 200.736 35.7923C206.294 31.8867 212.954 29.8203 219.996 29.8203C225.337 29.8203 229.111 30.9948 229.529 31.129L230.456 31.429L228.035 38.8725L227.1 38.5622C226.75 38.4444 223.609 37.4338 219.382 37.4338C213.965 37.4338 209.221 39.023 205.284 42.1595C198.376 47.6533 195.819 58.6469 195.796 58.7555L195.542 59.8737L185.318 55.8033ZM226.78 36.4302L227.983 32.7244C226.564 32.3639 223.691 31.7782 219.996 31.7782C213.264 31.7782 207.162 33.6685 201.862 37.3938C190.774 45.1875 188.124 52.2295 187.523 54.5765L194.176 57.2256C195.046 54.1321 197.928 45.509 204.064 40.6266C208.298 37.2617 213.593 35.482 219.381 35.482C222.709 35.482 225.39 36.0565 226.78 36.4302Z" fill="#463014"/>
<path d="M151.8 299.581C146.765 294.198 143.786 288.405 143.066 286.625C142.655 285.611 142.186 283.679 143.662 282.161C144.813 280.986 146.808 280.383 149.597 280.383H153.89C158.364 280.383 163.595 280.383 166.706 280.386L169.315 280.39C172.98 280.39 174.786 281.439 175.655 282.317C176.919 283.596 177.116 285.376 176.246 287.603C173.914 293.555 168.625 298.411 167.062 299.758C165.014 301.526 162.074 302.574 159.186 302.574C156.226 302.574 153.603 301.51 151.8 299.581Z" fill="#463014"/>
<path d="M156.158 151.104L166.578 150.434C166.578 150.434 163.917 155.132 162.19 161.208C160.241 168.081 163.973 178.126 163.973 178.126C163.973 178.126 150.07 162.387 156.158 151.104Z" fill="#463014"/>
<path d="M128.087 113.879C121.442 113.879 112.778 113.697 106.278 109.025C106.278 109.025 114.789 123.946 128.076 123.946L128.087 122.058L128.098 123.946C141.386 123.946 149.896 109.025 149.896 109.025C143.396 113.697 134.726 113.879 128.087 113.879Z" fill="#E78724"/>
<path d="M146.383 113.809C139.718 117.842 133.765 119.24 128.087 119.364C122.408 119.24 116.457 117.842 109.791 113.809C109.791 113.809 119.498 125.653 128.038 125.744V125.752C128.053 125.752 128.069 125.747 128.086 125.747C128.101 125.747 128.117 125.752 128.134 125.752V125.744C136.672 125.653 146.383 113.809 146.383 113.809Z" fill="#463014"/>
<path d="M169.172 330.104L168.429 320.442C199.727 318.035 209.589 288.04 209.641 284.883H219.332C219.336 292.185 206.276 327.252 169.172 330.104Z" fill="#463014"/>
<path d="M179.599 267.281C180.181 263.93 180.237 260.751 179.531 257.628C182.355 255.508 187.412 254.721 191.209 253.49C194.313 251.525 210.206 255.504 221.733 241.554C236.176 224.086 233.132 213.656 233.132 213.656C236.838 217.771 240.424 216.203 246.073 235.387C251.725 254.574 243.415 267.951 227.935 281.38C220.623 287.723 210.284 290.336 201.391 291.337C204.37 288.346 196.303 288.047 190.746 285.966C191.19 281.477 190.444 277.119 187.097 273.609C185.083 271.494 182.482 270.229 179.79 269.222C179.638 268.873 179.508 268.552 179.369 268.218C179.458 267.913 179.542 267.605 179.599 267.281Z" fill="white"/>
<path d="M190.814 285.849C191.14 284.907 191.379 283.947 191.617 282.98C191.878 281.924 193.158 278.933 191.578 282.348C191.984 281.474 192.249 280.572 192.445 279.664C217.514 279.632 239.324 262.42 235.106 226.233C238.388 221.876 242.987 235.019 242.987 235.019C242.987 235.019 255.538 271.461 223.125 285.585C212.325 290.295 202.781 293.671 200.528 292.309C195.833 293.262 191.599 289.991 190.015 287.841C190.311 287.18 190.588 286.519 190.814 285.849Z" fill="#C9C9C9"/>
<path d="M180.047 262.033C180.012 258.979 179.384 256.021 177.912 253.072C177.807 252.87 177.688 252.675 177.578 252.477C187.224 252.395 198.336 251.471 207.796 247.684C218.194 243.525 231.202 229.294 233.438 212.574C233.438 212.574 253.022 227.686 247.267 260.033C241.862 290.406 216.448 300.308 187.462 301.984C187.446 301.787 190.723 295.021 189.687 290.878C206.143 292.075 224.549 285.715 233.439 271.095C241.569 257.713 239.288 234.867 235.945 231.519C227.793 257.251 198.446 262.482 180.047 262.033Z" fill="#463014"/>
<path d="M191.752 269.652C188.289 265.908 181.922 261.445 167.241 261.445C167.241 261.445 139.406 261.429 128.136 261.422H128.088H128.04C116.771 261.43 88.9293 261.445 88.9293 261.445C74.2523 261.445 67.8851 265.909 64.4198 269.652C59.3725 275.1 58.581 282.68 62.0728 292.154C71.3513 317.371 84.3899 342.991 128.038 343.026V343.031C128.054 343.031 128.069 343.026 128.086 343.026C128.101 343.026 128.117 343.031 128.134 343.031V343.026C171.778 342.989 184.817 317.371 194.098 292.154C197.59 282.68 196.796 275.1 191.752 269.652ZM184.957 290.386C180.536 303.048 168.656 333.699 128.085 333.752C87.509 333.699 75.6326 303.05 71.212 290.386C68.7657 283.36 68.9521 278.161 71.7845 274.931C73.7188 272.724 78.1629 270.089 88.2913 270.089L98.8723 270.085C106.678 270.078 116.479 270.07 128.086 270.065C139.689 270.07 149.495 270.078 157.299 270.085L167.876 270.089C178.007 270.089 182.45 272.723 184.386 274.931C187.215 278.164 187.403 283.36 184.957 290.386Z" fill="#463014"/>
<path d="M177.012 243.612C182.228 258.919 192.882 271.308 192.882 271.308C192.882 271.308 178.226 270.641 177.416 268.047C176.821 266.136 164.185 236.557 159.335 201.908C163.894 209.403 176.564 242.301 177.012 243.612Z" fill="#463014"/>
</g>
<defs>
<clipPath id="clip0_1_4839">
<rect width="256" height="344" fill="white"/>
</clipPath>
</defs>
</svg>
