<svg width="256" height="566" viewBox="0 0 256 566" fill="none" xmlns="http://www.w3.org/2000/svg">
<g clip-path="url(#clip0_1_4913)">
<path d="M197.28 548.75L202.707 458.32L217.692 432.74C217.692 432.74 183.586 446.692 126.487 446.692C69.3871 446.692 35.7981 432.998 35.7981 432.998L52.5921 460.902L58.5331 548.75C58.5331 558.168 89.5921 565.802 127.907 565.802C166.22 565.802 197.28 558.168 197.28 548.75Z" fill="#D34A47"/>
<path d="M180.161 126.455L191.552 81.4296L254.633 15.0536L238.007 0.892578L171.223 71.5996L157.997 125.393C148.414 125.069 138.413 124.896 128.124 124.896C57.788 124.896 0.769043 132.912 0.769043 142.798C0.769043 152.685 57.788 160.7 128.124 160.7C198.459 160.7 255.477 152.685 255.477 142.798C255.477 135.518 224.553 129.252 180.161 126.455Z" fill="#D34A47"/>
<path d="M173.535 151.67C173.535 151.67 171.068 152.223 163.811 152.254C156.552 152.284 151.398 152.207 149.345 150.337C148.793 149.835 148.491 148.838 148.494 148.163C148.5 146.878 149.412 146.121 150.574 145.647L151.673 147.371C151.195 147.536 150.922 147.731 150.921 147.939C150.917 148.915 158.343 149.583 164.023 149.511C169.704 149.441 176.568 148.973 176.574 148.011C176.574 147.72 176.055 147.446 175.152 147.23L176.246 145.518C177.718 145.975 179.003 146.858 179 148.386C178.986 150.984 175.68 151.379 173.535 151.67Z" fill="white"/>
<path d="M254.509 15.1845C256.095 13.3525 253.688 8.66654 249.133 4.71954C244.576 0.774536 239.596 -0.939464 238.007 0.892536C236.42 2.72454 238.828 7.41054 243.385 11.3555C247.94 15.3015 252.922 17.0175 254.509 15.1845Z" fill="#D34A47"/>
<path d="M194.246 327.866C192.751 313.482 225.708 292.65 217.25 291.983C199.042 293.024 189.98 313.321 180.819 334.579C177.462 342.37 165.975 375.592 158.441 371.502C150.909 367.414 168.206 340.095 173.054 323.871C167.46 327.973 146.945 343.912 141.658 328.985C133.158 336.204 114.995 340.115 117.044 321.152C112.522 329.162 102.373 340.345 90.1909 335.698C74.1929 329.597 99.4609 278.636 105.744 281.207C112.028 283.777 104.476 295.386 102.498 299.894C98.1479 309.815 93.1229 322.287 96.4799 324.84C102.231 329.214 117.881 308.293 118.229 307.833C121.156 303.966 129.495 278.667 136.216 281.572C142.937 284.477 119.452 317.88 128.233 324.509C130.004 325.847 137.25 323.684 141.658 318.915C144.51 315.83 143.529 308.997 153.036 286.325C162.543 263.654 171.016 235.42 177.536 237.571C184.056 239.721 178.682 254.212 176.343 259.614C165.367 284.968 146.387 326.855 155.338 323.684C164.289 320.514 168.95 320.328 177.715 310.071C186.48 299.814 186.076 282.919 191.918 283.278C197.762 283.638 196.781 289.055 195.364 293.18C201.114 286.6 222.62 272.742 227.812 286.467C233.962 302.716 197.043 326.187 206.248 324.99C215.223 323.823 229.763 314.614 235.971 306.241L253.059 152.615C253.059 152.615 235.864 166.845 126.47 166.845C17.0749 166.845 1.65894 152.911 1.65894 152.911L16.2069 293.135C23.9289 271.188 42.2659 226.796 71.1699 228.286C84.3179 228.964 101.87 254.281 86.8349 255.139C80.4709 255.501 79.8249 242.502 72.2889 240.593C66.8509 239.215 59.2799 243.636 54.3869 248.426C44.6289 257.976 23.6419 295.655 26.4149 314.44C29.9479 338.389 59.4629 306.118 64.4569 296.537C67.9739 289.788 70.3499 269.792 78.0419 271.89C85.7349 273.988 77.3709 294.624 71.7949 312.869C65.5309 333.356 62.2379 354.967 54.3869 352.481C46.5349 349.997 59.3249 323.549 58.8619 318.915C51.4819 325.724 37.8859 342.962 20.4919 334.43L29.5269 421.508C29.5269 421.508 53.5399 440.481 125.877 440.481C198.214 440.481 223.116 421.804 223.116 421.804L234.335 320.947C225.156 329.885 196.106 345.757 194.246 327.866Z" fill="#D34A47"/>
</g>
<defs>
<clipPath id="clip0_1_4913">
<rect width="256" height="566" fill="white"/>
</clipPath>
</defs>
</svg>
