<svg width="256" height="156" viewBox="0 0 256 156" fill="none" xmlns="http://www.w3.org/2000/svg">
<g clip-path="url(#clip0_1_4920)">
<path opacity="0.263538" d="M255.854 146.502C255.854 151.498 198.579 155.548 127.927 155.548C57.2749 155.548 0 151.498 0 146.502C-1.36208e-06 143.271 24.3827 140.285 63.9635 138.669C103.544 137.053 152.31 137.053 191.891 138.669C231.471 140.285 255.854 143.271 255.854 146.502Z" fill="url(#paint0_linear_1_4920)"/>
<path d="M110.639 150.146C108.162 149.357 108.153 149.009 110.435 142.081C112.714 135.163 111.669 128.738 107.445 123.688C101.702 116.82 98.9357 110.96 98.0541 103.791C97.2972 97.6354 97.0573 97.1474 94.5512 96.6663C92.8704 96.3436 90.5483 96.9827 85.0141 99.2912C76.9625 102.65 75.0448 104.125 73.1449 108.419C72.1468 110.675 72.0268 112.026 72.5929 114.636C73.2842 117.822 76.1174 122.951 77.1899 122.958C77.4698 122.96 79.0161 124.019 80.626 125.312C83.2976 127.457 83.4809 127.829 82.725 129.578C81.0824 133.377 77.1798 137.983 75.6035 137.983C74.7192 137.983 71.1076 135.453 67.1322 132.049C59.3238 125.363 58.9965 124.693 58.19 113.733C57.2277 100.657 60.4432 94.5545 74.7647 82.2769L83.7471 74.5764L84.3208 69.9054C84.9122 65.0902 84.0784 53.6246 82.6766 47.2956C81.8484 43.5567 79.1154 39.9956 76.5218 39.276C73.6962 38.492 72.0397 40.1096 69.8901 45.7519C67.5707 51.8398 65.3541 53.9636 61.3196 53.9636C58.8067 53.9636 56.4616 52.3561 54.8423 49.5236C53.682 47.4939 53.0085 35.3006 53.7021 28.8821C54.0358 25.7945 54.0549 22.6685 53.7447 21.9353C53.2398 20.7422 48.8922 18.1615 38.6424 12.9705C36.7791 12.0269 34.6069 10.7563 33.8152 10.147C33.0236 9.53776 30.9693 8.41757 29.2501 7.65773C25.3561 5.93665 15.203 0 16.1535 0C17.9518 0 25.5724 2.34548 29.6292 4.14757C32.1058 5.24767 34.4764 6.14774 34.8973 6.14774C35.3182 6.14774 40.0927 7.68469 45.5074 9.56318C50.922 11.4417 55.8709 12.9786 56.5049 12.9786C58.0109 12.9786 58.2471 11.6757 57.7645 6.02952C57.5453 3.46468 57.555 1.36616 57.786 1.36616C58.0171 1.36616 59.0149 1.86135 60.0033 2.46657C63.0232 4.31559 69.5191 5.44805 77.1539 5.45655C84.4543 5.46521 93.9834 6.91312 97.6254 8.5682C102.85 10.9425 108.91 18.3581 116.598 31.7839C121.943 41.1178 127.685 45.0701 135.915 45.0788C139.243 45.0826 148.119 43.7109 160.14 41.3363C170.051 39.3783 183.136 38.9382 188.215 40.392C194.41 42.1655 202.603 46.9069 209.377 52.6394C215.716 58.0047 216.693 59.1959 220.587 66.3156C225.235 74.8125 230.365 86.8884 234.926 100.072C235.576 101.95 236.949 105.11 237.977 107.094C240.72 112.386 240.583 112.709 235.599 112.709C230.189 112.709 227.652 111.856 224.106 108.845C220.705 105.956 219.816 104.189 214.493 89.7258C211.766 82.3173 209.112 77.8716 207.415 77.8716C206.253 77.8716 203.9 85.8106 203.9 89.733C203.9 92.5188 205.646 96.2823 210.159 103.227C217.492 114.507 221.349 130.455 219.805 143.106L219.138 148.571L214.251 148.774C206.558 149.094 206.635 149.201 206.635 138.2C206.635 126.489 205.837 123.952 200.669 119.229C198.522 117.267 193.706 111.693 189.966 106.842C186.226 101.991 182.645 98.0225 182.007 98.0225C180.542 98.0225 179.811 102.012 179.734 110.436C179.682 115.985 179.464 116.924 177.827 118.633C173.389 123.268 170.274 131.708 168.354 144.299C167.929 147.086 167.564 147.607 165.758 148.013C163.101 148.609 155.741 148.707 155.106 148.154C154.559 147.677 155.518 140.109 157.692 127.737C158.518 123.04 159.419 116.739 159.695 113.733C160.185 108.383 159.088 98.3585 157.79 96.3304C157.25 95.4871 154.501 95.3044 141.643 95.2572C133.121 95.2259 123.774 94.9455 120.873 94.6342L115.598 94.068V96.4087C115.598 98.9153 116.241 101.125 120.537 113.392C122.05 117.712 124.243 124.299 125.41 128.029L127.531 134.81L125.741 140.324C124.756 143.357 123.295 146.991 122.494 148.4C121.08 150.885 120.914 150.96 116.95 150.908C114.702 150.878 111.862 150.535 110.639 150.146Z" fill="#499848"/>
</g>
<defs>
<linearGradient id="paint0_linear_1_4920" x1="18860.5" y1="211.714" x2="18608.2" y2="2709.92" gradientUnits="userSpaceOnUse">
<stop stop-color="#959595"/>
<stop offset="1" stop-color="#CCCCCC"/>
</linearGradient>
<clipPath id="clip0_1_4920">
<rect width="256" height="156" fill="white"/>
</clipPath>
</defs>
</svg>
