<svg width="512" height="195" viewBox="0 0 512 195" fill="none" xmlns="http://www.w3.org/2000/svg">
<g clip-path="url(#clip0_1_4927)">
<path d="M454.641 28.4642C423.008 28.4642 397.267 54.3165 397.267 86.0976C397.267 117.879 423.008 143.731 454.641 143.731C486.266 143.731 512 117.879 512 86.0976C512 54.3165 486.266 28.4642 454.641 28.4642ZM454.641 116.417C438.005 116.417 424.455 102.801 424.455 86.0976C424.455 69.3871 438.005 55.7783 454.641 55.7783C471.263 55.7783 484.819 69.3871 484.819 86.0976C484.819 102.808 471.27 116.417 454.634 116.417H454.641ZM285.696 74.4255L275.664 69.3946C271.308 67.2278 268.577 65.5508 267.479 64.3117C266.432 63.2136 265.836 61.7622 265.81 60.2453C265.81 58.3012 266.685 56.6613 268.407 55.385C270.113 54.0494 272.54 53.4409 275.619 53.4409C281.251 53.4409 287.492 56.8394 294.363 63.6883L311.296 46.6736C307.135 41.0078 301.694 36.4057 295.417 33.2429C289.221 30.1258 282.376 28.5188 275.441 28.5527C265.105 28.5527 256.571 31.603 249.923 37.747C243.282 43.891 239.942 51.2742 239.942 59.9337C239.942 73.3644 248.736 84.5542 266.381 93.4363L275.619 98.074C283.581 102.103 287.544 106.207 287.544 110.451C287.544 112.751 286.438 114.74 284.242 116.506C282.045 118.279 279.136 119.118 275.53 119.118C272.191 119.118 268.362 117.968 264.051 115.63C259.755 113.331 255.933 110.239 252.787 106.518L235.943 124.95C245.441 137.416 258.107 143.694 274.031 143.694C286 143.694 295.55 140.422 302.629 133.921C309.753 127.429 313.314 119.296 313.314 109.568C313.314 102.274 311.341 95.8701 307.423 90.4311C303.468 84.992 296.211 79.6939 285.696 74.4329V74.4255ZM115.356 131.176V30.7571H88.1234V37.4799C78.9474 31.582 68.2668 28.452 57.3588 28.4642C25.7336 28.4642 0 54.3165 0 86.0976C0 117.879 25.7336 143.731 57.3663 143.731C68.1433 143.747 78.7027 140.697 87.8117 134.938C87.8117 135.821 87.7672 136.615 87.7672 137.149C87.7672 153.852 74.2177 167.469 57.5889 167.469C51.9347 167.455 46.3993 165.845 41.6204 162.823L28.1526 186.516C37.0333 191.934 47.2309 194.808 57.6334 194.827C89.2661 194.827 115.356 168.967 115.356 137.186C115.356 135.955 115.437 132.326 115.356 131.176ZM57.3663 116.41C40.7448 116.41 27.1879 102.801 27.1879 86.0976C27.1879 69.3871 40.7374 55.7783 57.3663 55.7783C73.9951 55.7783 87.5446 69.3871 87.5446 86.0976C87.5446 102.801 73.9951 116.417 57.3663 116.417V116.41ZM223.833 30.72H196.467V85.5114C196.512 93.2953 196.512 106.733 190.798 112.477C188.067 115.215 185.077 117.693 178.784 117.693C172.448 117.693 169.457 115.215 166.734 112.477C161.013 106.726 161.057 93.2508 161.094 85.5114V30.72H133.736V85.3482C133.647 96.6122 133.513 117.523 147.241 131.398C155.292 139.531 164.886 143.686 178.74 143.686C192.601 143.686 202.188 139.576 210.239 131.398C223.967 117.523 223.833 96.5677 223.744 85.3482L223.833 30.7126V30.72ZM378.91 111.512C376.713 113.189 371.385 116.907 365.36 116.068C360.433 115.4 356.434 111.779 355.818 99.6693V54.2349H387.977V30.631H355.818V0H328.541V6.01043H328.496V96.0928C328.496 110.414 332.102 143.686 365.316 143.686C382.123 143.427 392.326 134.278 396.6 130.701L397.171 130.256L380.802 110.013C380.757 110.05 379.615 110.978 378.91 111.512Z" fill="#F45D48"/>
</g>
<defs>
<clipPath id="clip0_1_4927">
<rect width="512" height="195" fill="white"/>
</clipPath>
</defs>
</svg>
