<svg width="256" height="270" viewBox="0 0 256 270" fill="none" xmlns="http://www.w3.org/2000/svg">
<g clip-path="url(#clip0_1_4930)">
<path d="M103.996 27.7979C104.917 26.876 104.917 25.3159 103.996 24.394L80.3457 0.744147C79.4238 -0.177737 77.8637 -0.177737 76.9418 0.744147L0.921881 76.7286C-2.14577e-06 77.6505 -2.14577e-06 79.2106 0.921881 80.1325L76.9418 156.152C77.8637 157.074 79.4238 157.074 80.3457 156.152L103.996 132.503C104.917 131.581 104.917 130.021 103.996 129.099L55.0648 80.168C54.1429 79.2461 54.1429 77.686 55.0648 76.7641L103.996 27.7979Z" fill="#F93535"/>
<path d="M179.165 0.744147C178.243 -0.177737 176.683 -0.177737 175.761 0.744147L99.8471 76.6223C98.9252 77.5441 98.9252 79.1043 99.8471 80.0261L123.497 103.711C124.419 104.633 125.979 104.633 126.901 103.711L175.761 54.8516C176.683 53.9297 178.243 53.9297 179.165 54.8516L201.042 76.7286C201.963 77.6505 201.963 79.2106 201.042 80.1325L152.111 129.063C151.189 129.985 151.189 131.545 152.111 132.467L175.761 156.117C176.683 157.039 178.243 157.039 179.165 156.117L255.149 80.1325C256.071 79.2106 256.071 77.6505 255.149 76.7286L179.165 0.744147Z" fill="#F93535"/>
<path d="M45.9524 224.3V240.398H64.1773V247.879C60.5252 250.999 55.8449 252.559 50.3136 252.559C44.4277 252.559 39.5701 250.645 35.4925 246.744C31.5213 242.773 29.6067 237.951 29.6067 232.03C29.6067 226.073 31.5568 221.251 35.5989 217.315C39.6765 213.344 44.4986 211.394 50.349 211.394C56.2349 211.394 60.9862 213.025 64.851 216.358C68.3258 212.635 73.5025 208.132 76.3745 204.799C69.1767 198.204 60.4188 194.906 50.349 194.906C39.4992 194.906 30.5285 198.381 22.9762 205.508C15.3884 212.67 11.7363 221.357 11.7363 232.03C11.7363 242.702 15.4238 251.389 23.0116 258.552C30.4931 265.537 39.7119 269.047 50.3845 269.047C62.6172 269.047 74.0344 263.551 80.8776 254.403L81.1258 254.049V224.265H45.9524V224.3Z" fill="#424242"/>
<path d="M158.599 196.006L146.509 235.363L134.985 196.006H121.015L109.527 235.363L97.436 196.006H79.6366L101.407 267.984H116.264L127.965 229.655L139.665 267.984H154.522L176.293 196.006H158.599Z" fill="#424242"/>
<path d="M181.292 196.006L176.293 212.529H197.638V267.984H217.848V212.529H239.158V196.006H181.292Z" fill="#424242"/>
</g>
<defs>
<clipPath id="clip0_1_4930">
<rect width="256" height="270" fill="white"/>
</clipPath>
</defs>
</svg>
