<svg width="256" height="192" viewBox="0 0 256 192" fill="none" xmlns="http://www.w3.org/2000/svg">
<g clip-path="url(#clip0_1_4947)">
<path d="M94.9192 42.1868L77.9645 44.941L62.4949 51.7235L49.3552 59.9882L36.851 75.2466L29.7876 82.7284L22.9563 85.2466L21.1504 80.8308L24.309 76.2716L25.0183 69.8417L27.134 69.9274L29.446 72.0362L28.8224 65.4858L26.2594 63.7665L26.3381 61.2702L20.2678 64.7048L14.7713 71.1905L13.6238 76.9868L15.9756 81.6287L18.168 89.5139L22.6266 91.6246L27.3173 91.3945L31.7649 88.8106L28.7975 103.858L31.7649 120.599L28.4987 128.33L17.8015 139.855L19.703 146.741L24.7712 154.72L34.3259 161.444L39.3941 162.138L45.0291 162.329L41.5128 176.761L54.4413 182.058L70.5474 184.178L76.0569 180.576L76.4812 170.826L82.6282 160.654L83.0516 152.6L97.8866 153.66L111.662 152.389L97.8866 160.654L100.219 170.615L108.907 184.178L117.384 187.781L124.166 185.026L126.92 179.516L141.12 168.708L143.875 171.038L166.128 171.886L170.578 168.284L171.001 161.925L169.519 159.172L168.458 142.005L161.041 127.17L162.313 120.599L166.763 122.931L179.267 134.587L185.413 135.011L192.194 132.256L198.977 127.17L202.367 116.149L222.289 117.421L234.368 112.759L244.117 103.646L251.111 90.506L252.805 75.0355L251.322 57.0208L247.508 40.9157L243.693 35.8296L238.396 34.1332L229.07 44.3055L220.593 47.2729L213.175 34.9809L205.758 28.1994L201.731 25.6563L185.624 12.3045L172.697 5.31082L159.769 4.25195L144.723 6.79502L131.583 11.668L122.47 19.086L115.265 27.7751L107.848 29.8948L94.9192 42.1868Z" fill="#FFFF00"/>
<path d="M45.7473 80.4361C31.225 97.3749 34.4514 117.918 38.4757 138.046C36.328 132.618 34.1794 127.19 32.0318 121.766C31.2399 116.79 30.448 111.815 29.6571 106.839C29.8832 101.751 30.1083 96.6637 30.3355 91.5766C32.3705 86.7156 34.4056 81.8536 36.4406 76.9916C39.4927 72.4692 42.5458 67.9469 45.5988 63.4236C50.3473 59.467 55.0967 55.5095 59.8452 51.5529C65.0449 49.4043 70.2466 47.2567 75.4472 45.1081C81.5524 44.3172 87.6575 43.5263 93.7637 42.7344C88.1098 49.1782 82.4569 55.623 76.8039 62.0669C63.1861 66.4836 55.1565 69.459 45.7473 80.4361Z" fill="#FFFFCC"/>
<path d="M114.114 28.8262C104.019 38.6767 98.5032 46.1057 92.0783 57.6386C87.4833 65.8894 82.3274 73.8354 77.4953 81.9706C75.0518 86.0885 74.8207 89.541 74.0896 94.2895C71.7159 91.4635 69.3421 88.6365 66.9674 85.8106C68.099 82.4178 69.2286 79.0261 70.3592 75.6343C74.2031 68.7373 78.0481 61.8402 81.8921 54.9441C90.0323 46.9165 98.1735 38.8899 106.314 30.8622C108.914 30.1829 111.514 29.5055 114.114 28.8262Z" fill="#FFFFCC"/>
<path d="M163.975 4.40625C155.888 7.43741 142.46 8.43651 141.528 17.7173C140.865 24.3085 142.025 27.6206 145.998 34.5943C136.185 24.439 133.759 26.0109 114.793 29.1665C117.507 25.3225 120.22 21.4786 122.933 17.6346C127.681 14.6941 132.431 11.7545 137.179 8.81503C143.284 7.45833 149.39 6.10163 155.496 4.74493C158.322 4.63237 161.149 4.51981 163.975 4.40625Z" fill="#FFFFCC"/>
<path d="M186.288 129.946C188.98 131.608 188.922 132.812 188.472 133.951C190.595 133.101 192.719 132.251 194.842 131.403C196.218 129.556 197.593 127.709 198.97 125.861C199.991 123.228 201.012 120.598 202.033 117.965C200.728 116.984 199.424 116.003 198.118 115.021C192.415 115.749 186.713 116.477 181.009 117.206C180.586 118.357 180.16 119.511 179.735 120.664C179.856 122.302 179.979 123.941 180.099 125.578C180.645 126.549 181.192 127.52 181.738 128.491C182.588 128.915 183.436 129.341 184.286 129.765C184.954 129.825 185.621 129.886 186.288 129.946Z" fill="#CCCC00"/>
<path d="M184.696 100.686C176.119 103.161 176.186 103.843 173.654 112.352C176.997 106.988 179.472 104.281 184.696 100.686Z" fill="#CCCC00"/>
<path d="M241.72 37.0156C240.196 37.7199 238.711 38.0586 237.758 39.4531C235.706 42.4554 233.948 44.9805 230.555 47.0873C228.846 48.1491 227.079 48.8365 225.267 49.4022C223.764 49.8694 222.86 49.4511 221.581 50.3715C222.34 50.5029 223.099 50.6364 223.859 50.7689H228.879C230.942 49.4949 233.005 48.2209 235.068 46.9478C236.282 45.6728 237.495 44.3988 238.709 43.1248C239.712 41.0887 240.716 39.0507 241.72 37.0156Z" fill="#CCCC00"/>
<path d="M105.108 56.0472C101.735 65.2801 98.7861 73.1942 93.676 81.5526C100.224 74.4961 104.195 68.4985 107.946 60.5207C109.404 57.4218 109.679 53.785 113.738 55.1367C113.92 58.2326 114.574 61.3256 114.756 64.4195C116.949 48.7009 123.133 42.1266 137.508 36.0254C133.443 36.5115 129.378 36.9966 125.313 37.4817C121.49 38.3314 117.668 39.1811 113.845 40.0297C111.965 42.7601 110.083 45.4914 108.203 48.2208C107.171 50.8296 106.14 53.4384 105.108 56.0472Z" fill="#CCCC00"/>
<path d="M132.957 55.6836C136.057 70.2736 140.521 84.2769 142.459 99.099C143.719 108.73 143.856 113.357 139.011 121.667C133.715 121.324 130.426 121.921 125.303 123.6C104.911 130.285 93.2148 140.115 79.4735 120.309C83.8604 122.376 88.2472 124.443 92.6341 126.511C95.7609 125.896 98.8877 125.283 102.014 124.666C107.536 121.452 113.057 118.235 118.579 115.021C122.886 114.171 127.194 113.321 131.501 112.472C132.897 106.649 134.292 100.823 135.688 94.999C134.656 87.2931 133.624 79.5882 132.593 71.8823C132.472 68.2425 132.351 64.6028 132.229 60.962C132.472 59.2019 132.716 57.4427 132.957 55.6836Z" fill="#CCCC00"/>
<path d="M168.086 145.964C166.373 157.817 172.031 164.189 169.688 167.464C169.025 168.39 168.126 170.008 167.123 170.452C163.538 172.035 158.609 170.155 158.258 171.082H146.427C144.849 170.414 143.272 169.747 141.694 169.079C144.121 166.228 146.548 163.376 148.975 160.525C151.341 155.369 153.708 150.211 156.073 145.053C157.59 139.836 159.107 134.618 160.624 129.4H162.99C164.689 134.922 166.388 140.442 168.086 145.964Z" fill="#CCCC00"/>
<path d="M148.201 111.504C149.162 116.886 150.832 118.165 153.363 123.375C151.677 131.874 148.971 141.982 145.713 149.482C144.339 152.644 143.23 154.388 140.807 156.833C136.718 160.963 132.584 164.559 127.946 168.139C124.607 170.712 122.277 169.422 118.158 168.838C116.406 172.014 115.923 173.778 112.699 175.39C107.74 177.869 103.303 172.528 99.4106 169.384C102.221 173.773 105.031 178.161 107.839 182.549C109.781 184.37 111.723 186.188 113.664 188.009C115.302 188.251 116.94 188.495 118.579 188.738C120.762 187.403 122.947 186.068 125.13 184.733C126.284 182.549 127.436 180.365 128.589 178.181C131.016 176.361 133.444 174.541 135.869 172.72C138.843 170.173 141.816 167.624 144.788 165.076C146.67 162.406 148.55 159.737 150.431 157.067C152.13 153.912 153.828 150.758 155.526 147.603C157.712 141.05 159.895 134.497 162.081 127.946C162.262 125.457 162.443 122.97 162.626 120.482C159.895 119.27 157.166 118.054 154.435 116.841C152.433 114.961 150.203 113.385 148.201 111.504Z" fill="#CCCC00"/>
<path d="M82.9031 149.422C92.0892 149.422 101.791 148.912 110.205 145.054C112.586 141.482 114.937 138.565 117.85 135.408C115.199 140.416 114.367 143.247 113.664 148.877C112.754 150.211 111.844 151.545 110.934 152.881C104.017 153.062 97.1007 153.245 90.1837 153.427C87.9384 153.183 85.6942 152.941 83.449 152.699C83.2059 152.455 82.9639 152.213 82.7208 151.971C82.7826 151.121 82.8433 150.271 82.9031 149.422Z" fill="#CCCC00"/>
<path d="M81.6291 143.052C81.392 140.898 81.1539 138.743 80.9159 136.588C79.347 146.035 79.7235 152.367 75.3755 160.83C72.1282 164.593 68.1288 168.016 63.5487 169.849C63.9362 172.169 64.0517 173.62 63.8266 175.321C63.0198 181.44 50.7796 178.736 45.7443 178.492C53.8237 180.573 61.9012 182.652 69.9796 184.732C71.8005 184.004 73.6194 183.277 75.4403 182.548C76.0479 179.03 76.6545 175.51 77.2612 171.992C78.9595 168.837 80.6589 165.68 82.3572 162.528C82.6601 160.584 82.9639 158.645 83.2677 156.702C82.7208 152.152 82.1759 147.602 81.6291 143.052Z" fill="#CCCC00"/>
<path d="M67.9775 89.7207C67.7245 94.3148 67.4276 96.2293 69.4527 100.286C72.0277 105.442 75.1903 110.288 77.9884 115.384C78.2922 111.986 78.595 108.589 78.8988 105.191C75.2591 100.033 71.6183 94.8776 67.9775 89.7207Z" fill="#CCCC00"/>
<path d="M30.6145 124.422C29.8256 126.098 29.0386 127.776 28.2497 129.453C30.4182 136.758 32.3467 141.385 36.4756 147.766C35.7564 150.351 35.2185 151.482 33.564 153.589C29.9302 153.031 26.7028 152.869 23.0201 152.881C27.0853 156.034 31.1504 159.191 35.2155 162.346C37.2167 161.98 39.2199 161.617 41.222 161.253C43.2232 159.251 45.2264 157.249 47.2286 155.246C44.3767 150.817 41.5249 146.389 38.674 141.959C35.9865 136.114 33.3 130.267 30.6145 124.422Z" fill="#CCCC00"/>
<path d="M241.746 34.5996C244.222 45.7371 247.416 56.016 247.119 67.4234C246.755 81.4187 244.028 99.0977 231.06 107.537C216.538 116.989 199.491 112.518 183.557 108.468C190.05 111.139 196.542 113.807 203.033 116.477C209.1 116.781 215.168 117.084 221.235 117.386C225.361 116.174 229.487 114.961 233.611 113.747C236.827 111.077 240.043 108.408 243.259 105.738C245.685 100.642 248.112 95.5455 250.539 90.4494C251.45 84.5634 252.359 78.6784 253.269 72.7934C252.542 67.0289 251.812 61.2654 251.085 55.502C249.75 49.7992 248.415 44.0955 247.081 38.3928C245.303 37.1277 243.525 35.8637 241.746 34.5996Z" fill="#CCCC00"/>
<path d="M25.0282 67.7955C18.436 72.0867 15.8461 73.9703 16.5693 81.9233C17.2257 84.305 17.8832 86.6867 18.5396 89.0684C19.471 89.6989 20.4013 90.3284 21.3317 90.958C22.4822 91.3415 23.6317 91.724 24.7822 92.1075C26.8631 91.6154 28.944 91.1224 31.0238 90.6293C32.0927 87.3162 33.1605 84.0042 34.2273 80.6911C31.2709 82.1424 28.3134 83.5938 25.357 85.0451H23.304C22.538 83.8677 21.771 82.6903 21.004 81.5129C21.9353 80.1432 22.8657 78.7756 23.7971 77.4059C24.2901 74.8051 24.7822 72.2042 25.2753 69.6034C25.9048 69.7947 26.5344 69.9869 27.1639 70.1772C27.9309 70.7808 28.6969 71.3835 29.4639 71.9841C29.3544 70.6164 29.2448 69.2468 29.1352 67.8781C28.6152 67.0026 28.0943 66.126 27.5743 65.2504C27.0543 64.8111 26.5344 64.3738 26.0144 63.9355C25.6857 65.2225 25.357 66.5095 25.0282 67.7955Z" fill="#CCCC00"/>
<path d="M172.938 5.13086C178.79 10.5646 185.971 15.2872 190.651 21.9272C192.462 24.4972 194.474 25.8121 190.62 29.4429C194.693 28.2794 196.206 28.4059 199.466 28.8004C205.396 29.5186 210.954 37.9487 211.308 43.9891C211.238 44.5539 209.661 45.8368 205.076 47.1029C204.985 47.2792 202.488 46.7612 202.55 46.9306C203.027 48.2335 203.663 48.4337 204.636 49.0433C204.847 50.4937 204.982 52.7299 205.97 54.3157C208.855 54.2639 211.675 54.5787 214.5 55.1375C215.45 56.7154 215.308 58.2922 215.228 59.87C216.32 59.6887 217.412 59.5065 218.504 59.3252C218.202 56.8369 217.898 54.3496 217.595 51.8623C218.565 50.2237 219.535 48.5851 220.507 46.9485C219.111 43.7918 217.716 40.6382 216.32 37.4825C213.651 34.9344 210.982 32.3864 208.311 29.8383C208.055 29.8254 207.796 29.8124 207.541 29.7995C204.538 27.9567 201.537 26.1149 198.534 24.2721C193.638 20.2657 188.742 16.2604 183.845 12.254C180.209 9.87931 176.574 7.50558 172.938 5.13086Z" fill="#CCCC00"/>
<path d="M182.795 49.9766C182.486 50.5165 182.02 51.3791 181.423 51.9767C183.86 54.2817 185.062 55.8257 185.932 59.086C183.176 60.4536 180.421 61.8223 177.667 63.1889C175.335 65.4242 173.003 67.6595 170.673 69.8938C167.604 68.2422 166.84 66.9742 165.355 63.8245C163.626 64.2827 161.988 64.723 160.56 64.199C161.466 64.206 162.022 63.9799 162.928 63.42C164.411 61.8791 165.895 60.3381 167.378 58.7971C169.998 56.8129 172.619 54.8276 175.238 52.8434C176.954 52.2845 178.668 51.7257 180.383 51.1669C181.038 50.898 182.14 50.2465 182.795 49.9766Z" fill="#CCCC00"/>
<path d="M190.399 58.1992C181.634 62.9188 173.239 67.6652 168.758 76.6282C168.758 65.2517 180.181 60.2432 190.399 58.1992Z" fill="#CCCC00"/>
<path d="M167.018 35.8184C160.509 40.256 155.907 49.212 156.485 57.9399C154.365 50.3825 155.116 43.2414 161.626 38.0218C162.724 37.4878 163.822 36.9529 164.921 36.42C165.62 36.2198 166.318 36.0196 167.018 35.8184Z" fill="#CCCC00"/>
<path d="M254.605 56.4234C253.424 48.9805 251.468 41.7557 248.752 36.561C248.422 35.9255 247.92 35.282 247.298 34.6674C245.949 33.3376 243.952 32.0785 241.889 31.3693C239.703 30.6172 237.398 30.4638 235.568 31.4201C235.093 31.6691 234.651 31.9898 234.258 32.3893C233.073 33.5906 232.074 35.0489 231.072 36.5112C229.959 38.1388 228.839 39.7744 227.499 40.918C225.946 42.2458 224.003 43.0516 222.17 43.7877C221.366 41.8443 220.442 40.0663 219.397 38.3968C218.144 36.3986 216.717 34.5279 215.148 32.6562C213.865 31.1292 212.617 29.9817 211.266 28.9537C209.912 27.9207 208.527 27.0511 206.912 26.0411C202.585 23.3307 198.9 20.0993 195.142 16.8012C193.434 15.303 191.709 13.7909 190.022 12.3994C181.073 5.02018 172.724 1.44117 163.796 0.87936C154.929 0.321539 145.565 2.75802 134.511 7.41184C129.175 9.65707 125.213 12.3107 121.761 15.5012C118.464 18.5523 115.665 22.0636 112.588 26.1646C110.797 26.2921 109.212 26.5571 107.593 27.2055C105.809 27.9187 104.013 29.0742 101.861 30.9738C100.334 32.3195 98.8728 33.6753 97.4603 35.0409C96.1375 36.3199 94.8535 37.6218 93.5875 38.9377C83.5228 40.5544 75.3228 42.3394 67.9795 45.1843C60.4698 48.0929 53.8497 52.0953 47.0503 58.1247C44.2721 60.5871 41.8675 63.19 39.7627 65.9472C37.6948 68.6556 35.9247 71.5035 34.3718 74.5068C33.0111 76.0119 31.6494 77.5309 30.1742 78.8597C28.7358 80.1547 27.2028 81.2454 25.4855 81.9068L25.4865 81.9078C24.4874 82.2923 24.074 82.5175 24.0292 82.5025C23.9794 82.4746 23.9515 82.3252 23.8808 82.0493C26.3481 79.6945 26.7356 76.236 26.9637 72.8014C27.2596 73.156 27.5444 73.5923 27.8393 74.0475C28.165 74.5506 28.4987 75.0695 28.8992 75.5746L30.5736 77.6873L31.1623 75.0516C31.6564 72.8432 32.0259 69.9017 31.4502 67.3517C31.0776 65.6972 30.3096 64.2219 28.9719 63.177C29.1004 62.8423 29.2209 62.5345 29.3404 62.2307C29.7608 61.1559 30.1931 60.0532 30.5607 59.0113L31.2858 56.9454L29.1263 57.3199C26.2525 57.8189 20.0756 61.2137 15.7266 65.727C14.1109 67.4035 12.7223 69.2563 11.8109 71.2007C10.8626 73.2238 10.4383 75.3405 10.8058 77.4592C11.1266 79.311 12.053 81.1279 13.7364 82.8432C14.0432 84.0794 14.3261 85.1522 14.6289 86.1204C14.9755 87.2221 15.3491 88.2072 15.8163 89.1764C17.0823 91.8092 19.1004 93.4169 21.4353 94.167C23.313 94.7696 25.3889 94.7995 27.4249 94.3542C27.0275 96.6552 26.7764 99.0608 26.6788 101.689C26.5503 105.124 26.6758 108.919 27.0544 113.323C27.137 114.289 27.2616 115.353 27.4229 116.509C27.5624 117.495 27.7287 118.463 27.908 119.424C27.5275 120.462 27.145 121.502 26.7635 122.54C26.1708 124.152 25.5781 125.766 24.9864 127.377C23.6825 128.669 22.3786 129.961 21.0757 131.252C19.8595 132.454 18.6422 133.661 17.426 134.866C17.3254 134.967 16.915 135.36 16.5434 135.719C14.0781 138.09 13.59 138.562 14.2902 142.736C14.7176 145.294 15.5593 147.886 16.8731 150.385C18.0834 152.69 19.7071 154.935 21.7909 157.024C24.3918 159.631 28.6531 162.869 33.1147 164.564C35.6647 165.533 38.2935 166.006 40.7598 165.611C40.6343 165.99 40.5118 166.369 40.3733 166.751C39.9849 167.824 39.5515 168.898 39.0724 169.949C36.0462 176.584 39.1531 180.048 43.9892 182.254C46.4038 183.355 49.2746 184.102 51.9421 184.798C52.488 184.938 53.0339 185.082 53.7212 185.267C56.8829 186.122 62.3435 187.691 67.331 188.005C72.7748 188.35 77.6846 187.226 79.0005 182.34C79.5214 180.403 79.8242 178.919 79.9468 177.467C80.0603 176.119 80.0165 174.756 79.8591 173.071C81.411 169.631 82.0695 168.664 83.204 167.004C83.4262 166.677 83.6951 166.284 83.7758 166.161C84.993 164.358 85.5628 163.078 85.77 161.636C85.9692 160.246 85.8009 158.86 85.5489 156.742C85.525 156.54 85.4881 156.246 85.4363 155.858C88.6229 156.266 91.7646 156.486 94.8884 156.505C96.4742 156.515 98.059 156.469 99.6438 156.385C99.2394 156.593 98.8419 156.798 98.4076 157.021C98.2154 157.12 98.0172 157.223 97.8179 157.325C93.6144 159.487 93.4391 163.582 94.7549 167.794C95.9413 171.594 98.3827 175.472 99.9148 177.832C103.135 182.795 106.208 186.995 109.934 189.278C113.839 191.672 118.301 191.954 124.06 188.837C126.99 187.25 127.914 185.634 129.159 183.454C129.539 182.789 129.959 182.064 130.427 181.348C131.638 180.547 134.65 178.062 137.608 175.617C138.614 174.785 139.62 173.956 140.755 173.032C141.537 173.607 142.481 174.006 143.622 174.278C145.104 174.633 146.869 174.793 148.984 174.944C150.567 175.061 155.729 175.057 159.064 175.056C160.094 175.056 160.949 175.056 161.462 175.059C164.905 175.08 167.684 174.899 169.784 173.709C172.022 172.44 173.349 170.193 173.639 166.163C173.765 164.373 173.788 163.269 173.54 162.141C173.308 161.086 172.855 160.129 172.077 158.729C172.03 156.988 171.983 155.245 171.937 153.504C171.889 151.656 171.838 149.808 171.789 147.961C171.73 145.782 171.49 144.013 171.048 142.272C170.61 140.543 169.984 138.879 169.146 136.884C168.579 135.534 168.118 134.294 167.668 133.078L166.46 133.52L166.646 133.452L167.668 133.078V133.073C166.948 131.131 166.238 129.24 165.244 127.217C165.308 126.826 165.373 126.407 165.436 125.959C166.075 126.576 166.716 127.193 167.355 127.809L170.185 130.536C172.344 132.615 174.317 134.505 176.635 135.872C179.032 137.287 181.727 138.107 185.218 137.942C188.871 137.77 192.781 136.231 196 133.856C199.114 131.557 201.613 128.457 202.656 125.026C202.958 124.034 203.26 123.041 203.56 122.05C203.8 121.259 204.041 120.466 204.282 119.674C209.406 120.543 214.906 120.823 220.218 120.267C225.344 119.728 230.296 118.423 234.567 116.145C240.845 112.795 245.552 107.86 248.935 102.001L248.937 102.002C252.717 95.4539 254.834 87.7381 255.638 79.7981C256.283 73.43 255.931 64.7728 254.605 56.4234ZM188.218 109.941C185.265 108.948 183.212 107.498 180.618 105.863C181.324 109.046 181.645 112.412 180.705 115.589C179.213 120.631 176.803 128.878 183.648 130.4C186.253 130.979 187.435 130.895 191.113 128.998C188.136 129.672 186.635 129.507 184.589 129.127C182.735 128.787 181.752 127.609 181.234 126.221C181.882 126.688 182.938 126.942 184.743 127.377C189.818 128.6 194.653 126.157 195.599 122.639C196.15 120.583 196.056 119.503 197.225 116.701C198.275 117.026 199.36 117.321 200.474 117.59C199.845 119.639 199.217 121.69 198.588 123.739C196.958 129.06 190.604 133.349 184.993 133.251C179.807 133.16 176.519 129.911 172.938 126.726C170.471 124.529 168.097 122.431 165.745 120.351C159.29 118.314 154.116 115.934 148.125 111.499C152.389 116.509 155.28 119.283 161.226 121.776C160.362 130.597 157.297 137.028 154.683 145.469C153.499 149.285 144.162 164.58 141.574 166.071C139.729 167.134 128.171 176.868 125.998 178.153C124.378 180.303 122.957 183.275 120.522 184.561C113.104 188.484 108.337 180.973 104.345 174.63C102.528 171.739 97.4803 163.415 101.88 161.084C106.041 158.881 108.371 157.306 112.615 154.519C113.239 155.656 114.309 156.753 115.006 157.889C114.852 156.647 114.698 155.406 114.543 154.163C114.264 151.912 114.275 150.086 114.454 147.821C114.627 145.63 114.799 143.437 114.971 141.245C114.332 143.473 113.056 145.702 112.419 147.929C112.164 148.82 111.953 149.541 111.831 150.208C102.307 152.154 92.8523 152.276 83.3256 150.577C82.7179 147.049 81.9778 143.375 81.3572 140.74C81.169 143.691 81.2905 151.848 81.2746 156.416C81.2626 159.954 81.1142 161.165 79.2893 164.176C77.581 166.993 76.8578 167.634 74.4652 172.395C74.6644 175.401 74.6684 177.386 73.8705 180.238C72.5427 184.979 59.15 181.306 55.6178 180.338C51.2668 179.147 42.2729 177.378 44.5351 171.579C46.5253 166.474 47.7874 161.092 48.7596 153.949C40.7887 142.467 33.3767 126.732 31.9542 112.789C30.8495 101.964 31.512 95.3015 33.8548 88.6794C37.5663 78.1874 42.76 69.1059 51.0925 61.7924C62.3316 51.9299 72.8385 47.9694 89.2893 45.4652C85.3327 49.8939 81.419 54.5766 77.1527 59.598C72.8345 64.6811 70.2686 69.8151 67.5263 75.3754C63.7381 83.0544 63.8197 85.9769 68.8411 92.7186C73.1682 98.5289 75.5041 101.144 77.3937 106.829C75.8338 110.045 75.266 112.763 74.7421 117.155C80.0404 122.948 83.978 126.916 89.1229 128.138C94.1692 129.338 98.3827 129.105 102.898 126.798C112.925 121.672 122.203 115.051 133.515 114.778C138.747 101.914 138.218 91.1637 135.706 78.7163C133.99 70.2155 133.301 62.167 132.768 53.5008C130.647 62.4259 130.248 70.2743 131.822 79.1646C133.72 89.8777 135.195 101.715 129.917 111.131C119.689 111.914 110.923 118.136 101.705 122.911C97.9992 124.83 94.1413 125.017 90.0403 123.892C86.2332 122.846 83.6642 120.327 79.5633 115.597C79.4985 110.848 80.5703 108.656 82.7508 104.355C86.2551 97.4481 90.122 91.0192 94.3664 84.2238C89.1697 90.4963 84.246 95.7368 80.1559 102.043C78.592 97.5896 76.3568 95.3274 72.6532 90.312C69.0364 85.4131 68.6579 83.2685 71.3623 77.5987C74.0817 71.9019 76.3877 66.8945 81.0166 61.897C89.0143 53.2597 96.3407 43.6483 105.087 35.1415C109.836 30.5236 111.764 30.6829 118.063 29.7287C123.757 28.865 129.315 27.7763 135.121 26.4276C129.506 26.9505 124.078 27.1428 118.611 27.2782C118.554 27.2802 118.498 27.2822 118.441 27.2832C123.82 20.4141 126.942 16.586 135.677 12.7898C157.185 3.44932 170.851 2.43927 187.746 16.6408C192.125 20.3224 195.949 23.8955 200.388 27.071C198.779 27.2085 197.391 27.4974 195.556 28.2176C197.789 27.7922 200.368 28.2136 202.686 28.6379C203.337 29.0603 204.005 29.4717 204.689 29.8751C207.824 31.7219 209.603 32.7419 211.723 35.6954C213.963 38.8162 215.831 41.935 217.477 45.3726C216.398 44.9871 215.493 44.6613 214.687 44.4223C214.094 44.1493 213.448 43.971 212.764 43.9043C211.408 43.7738 210.111 44.1075 209.031 44.7729C208.987 44.7928 208.944 44.8127 208.9 44.8337C207.166 45.6774 204.48 46.6396 202.683 46.9315C203.6 47.2482 205.628 47.3668 206.584 46.9882C206.712 46.9374 206.842 46.8986 206.976 46.8667C206.544 47.6008 206.263 48.4336 206.176 49.3351C206.061 50.5294 206.304 51.6749 206.817 52.6701C206.819 52.673 206.82 52.676 206.822 52.681C206.985 53.0625 207.21 53.4141 207.458 53.6682C206.637 53.971 205.798 54.3166 204.934 54.6922C208.942 54.0815 212.556 53.9769 216.467 54.4919C216.725 55.7251 216.985 57.032 217.227 58.3608C216.741 58.3987 216.258 58.4355 215.773 58.4744C215.735 58.4774 215.694 58.4813 215.656 58.4853C213.805 57.0061 211.743 57.2541 208.926 57.8976C200.358 59.851 202.372 64.6582 198.431 71.9019C202.523 66.8995 202.219 61.6659 208.888 60.0861C210.442 59.7185 211.5 59.2573 212.552 59.4157C210.659 60.368 209.022 61.9468 208.372 63.7797C206.541 68.9485 207.678 73.3035 205.667 78.1316C208.158 73.8155 208.308 69.6039 210.536 65.0626C211.336 63.432 214.304 60.8212 216.127 60.7814C216.628 60.7694 217.126 60.7594 217.627 60.7485C218.066 63.6213 218.333 66.4741 218.163 68.8399C217.852 73.158 216.73 79.567 216.059 82.0194C218.315 79.1187 219.343 72.9757 220.334 68.6506C221.366 64.1482 221.105 58.7443 220.202 53.9072C218.963 47.2701 225.798 48.3499 229.767 45.2221C232.683 42.9221 234.692 39.2505 237.367 36.6486C240.019 34.0697 244.195 37.8599 245.239 40.3811C249.763 51.3273 251.824 68.549 250.63 79.5839C249.288 91.9656 243.308 105.483 232.387 111.579C218.465 119.35 202.05 114.602 188.218 109.941ZM168.436 164.936C167.982 170.045 166.28 170.382 161.793 170.304C159.755 170.268 151.639 170.231 149.579 170.054C146.669 169.803 145.036 169.543 144.146 168.879C148.718 165.523 156.487 151.666 158.001 146.896C159.603 141.857 161.356 137.458 162.66 132.8C163.259 134.746 163.733 136.676 164.606 138.744C166.063 142.199 166.776 144.335 166.88 148.042C166.99 151.952 167.1 155.864 167.211 159.775C168.463 161.967 168.658 162.435 168.436 164.936ZM30.8426 126.234C33.7462 136.276 38.6919 146.146 44.1755 154.443C44.1755 154.49 44.1745 154.538 44.1745 154.588C43.8298 156.014 43.4334 157.403 42.5996 158.519C38.6809 163.762 28.7119 156.065 25.8262 153.121C22.6725 149.899 20.5607 146.086 20.0577 142.508C19.6921 139.899 20.0477 139.836 21.8676 137.99C24.321 135.505 26.7774 133.02 29.2299 130.537C29.7668 129.102 30.3047 127.667 30.8426 126.234ZM25.2982 63.0734C24.5541 64.6712 24.0262 65.8814 23.6666 67.1276C22.1037 72.5255 24.3738 77.3437 19.473 81.2564C21.776 85.9032 21.6704 87.756 27.0275 85.6094C29.0934 84.7806 30.7977 83.6192 32.3188 82.2455C31.5936 84.1202 30.9213 86.0546 30.2877 88.0518C30.1821 88.3826 30.0815 88.7152 29.9839 89.045C26.1529 90.6706 21.1146 91.7036 19.1861 87.6773C18.2498 85.7229 17.7208 83.8044 17.0385 81.3351C10.7291 74.7986 20.1603 66.1683 25.2982 63.0734ZM28.3991 69.9974C27.6202 69.2184 26.9966 68.6905 25.9905 68.805C26.0752 68.1446 26.1877 67.5081 26.3471 66.9094C26.4278 66.6016 26.5135 66.2998 26.6051 65.997C27.911 66.758 28.2557 68.1366 28.3991 69.9974ZM217.577 45.5837C217.815 46.0858 218.049 46.5968 218.279 47.1138C218.089 47.2532 217.908 47.4006 217.739 47.556C217.428 46.8289 216.976 46.1694 216.418 45.6176C216.794 45.6037 217.18 45.5917 217.577 45.5837Z" fill="black"/>
<path d="M3.68755 81.54C4.69163 70.1724 6.90199 65.2646 14.9784 56.709C4.84801 63.8481 2.31989 67.0924 3.68755 81.54Z" fill="black"/>
<path d="M1.07481 72.2539C2.19045 67.1379 3.23039 65.2074 6.38407 61.0078C1.26706 64.5828 0.599663 66.0511 1.07481 72.2539Z" fill="black"/>
<path d="M119.925 0.935547C113.856 2.39783 112.699 3.52045 110.879 9.46921C113.783 5.11323 115.455 3.69576 119.925 0.935547Z" fill="black"/>
<path d="M129.495 0.0683594C117.458 3.01883 113.921 5.11664 109.923 19.0671C115.005 8.85005 118.854 5.08775 129.495 0.0683594Z" fill="black"/>
<path d="M155.419 50.9242C156.702 45.2404 158.982 39.7628 167.809 35.5254C156.108 38.4559 153.915 43.3697 155.419 50.9242Z" fill="black"/>
<path d="M229.867 51.3176C236.796 48.8473 240.136 43.2771 241.796 36.7227C239.083 42.2162 234.898 46.8103 229.213 49.6243C226.162 51.1334 224.213 50.6074 220.807 50.2847C224.271 51.2788 226.465 52.5299 229.867 51.3176Z" fill="black"/>
<path d="M182.665 56.8874C181.742 54.952 180.124 53.5654 178.252 52.8791C179.951 51.9716 181.621 51.0184 182.923 49.834C179.108 51.6001 174.667 51.1688 171.393 53.3801C168.51 55.3275 164.53 61.4994 161.6 64.1162C163.722 63.2924 165.767 61.868 167.649 60.3658C167.657 61.4825 167.902 62.6131 168.413 63.6849C169.176 65.2826 170.41 66.5049 171.872 67.2689C170.817 68.6585 169.941 70.2144 169.315 71.9396C174.894 65.3275 182.983 60.334 190.589 58.1983C188.463 58.1684 185.946 58.5659 183.382 59.4086C183.288 58.5559 183.055 57.7042 182.665 56.8874Z" fill="black"/>
<path d="M174.638 106.85C174.367 108.562 173.995 110.69 173.724 112.403C174.449 110.465 175.321 108.212 176.164 106.365C177.058 104.409 177.561 104.225 179.458 103.193C180.803 102.461 183.245 101.455 184.59 100.723C183.206 100.956 180.726 101.465 179.342 101.698C175.646 102.322 175.211 103.21 174.638 106.85Z" fill="black"/>
<path d="M111.499 40.746C107.209 44.9865 103.043 59.5366 101.712 65.3579C103.809 60.5218 109.057 46.9946 113.083 43.5531C114.195 42.6018 114.972 42.0181 115.807 41.5937C112.925 46.4259 113.136 47.6282 114.148 54.1029C115.007 47.5206 117.283 44.9775 121.018 40.0667C125.112 39.0387 128.944 37.8085 133.144 36.1699C128.407 36.7058 123.678 37.1959 118.939 37.6442C114.961 38.0217 114.32 37.9569 111.499 40.746Z" fill="black"/>
<path d="M169.939 65.5146C169.157 63.879 169.857 61.9087 171.496 61.1288C173.136 60.3478 175.11 61.0451 175.892 62.6817C175.967 62.8371 176.025 62.9965 176.074 63.1558C174.508 64.3183 173.073 65.6869 171.869 67.2728C171.059 66.947 170.341 66.3543 169.939 65.5146Z" fill="#FFFFCC"/>
<path d="M206.573 51.3424C206.705 49.9867 207.86 48.9876 209.215 49.119C210.569 49.2505 211.57 50.4608 211.439 51.8155C211.41 52.1044 211.333 52.3743 211.216 52.6234C209.976 52.8355 208.736 53.1981 207.458 53.6683C206.924 53.1214 206.498 52.1233 206.573 51.3424Z" fill="#FFFFCC"/>
</g>
<defs>
<clipPath id="clip0_1_4947">
<rect width="256" height="192" fill="white"/>
</clipPath>
</defs>
</svg>
