<svg width="512" height="132" viewBox="0 0 512 132" fill="none" xmlns="http://www.w3.org/2000/svg">
<g clip-path="url(#clip0_1_4986)">
<path d="M275.943 39.1868C299.741 39.1868 309.206 47.5703 309.206 62.3092V98.0064C309.206 104.497 309.477 109.23 311.64 114.503H285.679C284.326 112.475 283.38 110.041 282.839 107.472C278.106 113.962 271.481 116.396 262.421 116.396C247.141 116.396 238.487 107.066 238.487 93.95C238.487 79.4818 246.736 71.2333 270.399 68.2584L282.163 66.7712V63.9317C282.163 58.9287 280.811 56.9005 275.537 56.9005C270.263 56.9005 268.371 59.0636 268.235 63.661H241.327C241.868 47.976 254.037 39.1868 275.943 39.1868ZM466.706 41.215V83.9439C466.706 91.1105 469.545 93.409 474.546 93.409C481.036 93.409 484.96 88.0003 484.96 80.8337V41.215H512.001V114.503H486.309V105.308C480.63 112.881 473.871 116.396 463.593 116.396C450.749 116.396 439.661 108.959 439.661 90.5695V41.215H466.706ZM172.586 19.8506V54.0606H200.981V19.8506H229.648V114.503H200.981V76.7773H172.586V114.503H143.919V19.8506H172.586ZM346.424 41.215V114.503H319.381V41.215H346.424ZM384.323 19.8506V65.1486L406.091 41.215H436.381L409.472 68.7994L437.598 114.503H406.364L391.082 87.5947L384.323 94.6259V114.503H357.278V19.8506H384.323ZM282.163 82.051L276.213 82.9973C268.506 84.2142 265.801 86.7834 265.801 90.8402C265.801 94.7612 268.371 96.7895 272.157 96.7895C278.106 96.7895 282.163 92.733 282.163 87.189V82.051ZM332.902 5.51758C340.88 5.51758 347.776 11.4672 347.776 19.445C347.776 27.2875 340.88 33.3725 332.902 33.3725C325.06 33.3725 318.028 27.2875 318.028 19.445C318.028 11.4672 325.06 5.51758 332.902 5.51758Z" fill="black"/>
<path d="M91.9403 0.396484L91.1226 0.105977C90.7651 0.0201096 90.3959 -0.013479 90.0262 0.00722006C89.447 0.0396335 88.8825 0.204847 88.3767 0.490009C82.7683 2.77878 76.5354 5.33716 70.3325 7.94513C69.2145 8.41507 69.2195 9.99768 70.3386 10.4637L85.3868 16.7283C85.897 16.9406 86.2291 17.4391 86.2303 17.9915C86.2378 22.9202 86.3034 27.5339 86.242 32.4695C86.2352 33.0123 85.9065 33.4991 85.4061 33.7095L45.7859 50.3913C44.884 50.7707 43.8866 50.1084 43.8866 49.13L43.8881 11.975C43.8881 10.5495 43.0905 9.46603 41.8929 8.86219C41.7788 8.80096 41.6631 8.74311 41.5407 8.69208L21.7312 0.301215C21.1972 0.0745111 20.6183 -0.0265202 20.0391 0.0059311C19.4599 0.0383445 18.8958 0.203407 18.3905 0.488304C12.9992 2.68863 6.56341 5.34353 0.838719 7.73682C-0.268501 8.1997 -0.282584 9.76112 0.815021 10.2463L15.5621 16.7662C16.0575 16.985 16.3771 17.4759 16.3771 18.0176V65.4368C16.4927 65.9539 16.7018 66.3974 16.9838 66.7633C17.2713 67.2428 17.7441 67.6648 18.4552 68.0014L62.0305 88.738L62.2652 88.8298C62.7383 89.0663 63.2725 89.1975 63.8354 89.1975L64.0887 89.1888C64.989 89.1198 65.8295 88.7123 66.4418 88.0488C67.054 87.385 67.3922 86.5146 67.3888 85.6116V70.9808C67.3888 70.3845 67.7743 69.8571 68.3426 69.6767L84.4777 64.5489C85.3602 64.2684 86.2606 64.9272 86.2602 65.8534L86.2409 128.746C86.2405 129.302 86.5771 129.803 87.092 130.013L87.8384 130.318C88.0784 130.416 88.3275 130.488 88.5818 130.536C89.6054 130.885 90.7204 130.855 91.7235 130.451L111.479 122.37C112.238 122.038 112.754 121.666 113.077 121.247C113.572 120.726 113.876 120.041 113.876 119.06V11.9784C113.876 10.9153 113.392 10.0461 112.652 9.4252C112.332 9.12415 111.954 8.87409 111.529 8.69379L91.9403 0.396484Z" fill="url(#paint0_linear_1_4986)"/>
<path d="M43.9707 101.859C43.9756 101.326 43.6708 100.839 43.1897 100.61L21.2021 90.1604C20.7708 89.9788 20.3077 89.8844 19.8396 89.8828C19.3715 89.881 18.9077 89.9723 18.4752 90.1509C18.0425 90.3298 17.6497 90.5926 17.3192 90.9239C16.9888 91.2556 16.7273 91.6491 16.55 92.0824C16.4787 92.2542 16.421 92.4305 16.3771 92.6098V128.74C16.3771 129.286 16.7014 129.78 17.2023 129.996L18.353 130.494C18.471 130.542 18.5913 130.584 18.7136 130.62C19.6509 131.076 20.7684 131.147 21.8111 130.722L41.3973 122.918C42.1047 122.626 42.7102 122.131 43.1363 121.496C43.562 120.86 43.7898 120.113 43.7906 119.347C43.8008 119.242 43.8043 119.136 43.8043 119.029L43.9707 101.859Z" fill="url(#paint1_linear_1_4986)"/>
</g>
<defs>
<linearGradient id="paint0_linear_1_4986" x1="5589.47" y1="563.84" x2="5589.47" y2="12526.7" gradientUnits="userSpaceOnUse">
<stop stop-color="#F1CB2B"/>
<stop offset="1" stop-color="#D62B5F"/>
</linearGradient>
<linearGradient id="paint1_linear_1_4986" x1="3968.14" y1="-8334.54" x2="3968.14" y2="3628.37" gradientUnits="userSpaceOnUse">
<stop stop-color="#F1CB2B"/>
<stop offset="1" stop-color="#D62B5F"/>
</linearGradient>
<clipPath id="clip0_1_4986">
<rect width="512" height="132" fill="white"/>
</clipPath>
</defs>
</svg>
