<svg width="256" height="295" viewBox="0 0 256 295" fill="none" xmlns="http://www.w3.org/2000/svg">
<g clip-path="url(#clip0_1_4982)">
<path d="M206.69 0.891331L204.851 0.238245C204.048 0.0452081 203.218 -0.030302 202.387 0.0162313C201.084 0.0890995 199.815 0.460514 198.679 1.10158C186.07 6.24693 172.058 11.9984 158.114 17.8613C155.6 18.9178 155.611 22.4756 158.127 23.5232L191.957 37.6067C193.104 38.0839 193.85 39.2046 193.853 40.4464C193.87 51.5266 194.018 61.8986 193.879 72.9942C193.864 74.2146 193.125 75.3089 192 75.7819L102.931 113.284C100.903 114.137 98.6608 112.648 98.6608 110.448L98.6642 26.9208C98.6642 23.7163 96.871 21.2804 94.1788 19.923C93.9222 19.7853 93.6623 19.6553 93.387 19.5406L48.8537 0.677158C47.6532 0.167507 46.3517 -0.0596198 45.0496 0.0133336C43.7474 0.0862018 42.4794 0.457275 41.3435 1.09775C29.2233 6.04426 14.7551 12.0127 1.88551 17.393C-0.603612 18.4336 -0.635274 21.9438 1.83224 23.0346L34.9848 37.6919C36.0987 38.1836 36.8172 39.2873 36.8172 40.5052V147.107C37.077 148.27 37.5471 149.267 38.1811 150.09C38.8273 151.168 39.8904 152.116 41.4888 152.873L139.45 199.491L139.977 199.697C141.041 200.229 142.242 200.524 143.508 200.524L144.077 200.504C146.101 200.349 147.99 199.433 149.367 197.941C150.743 196.449 151.503 194.492 151.496 192.462V159.571C151.496 158.23 152.362 157.045 153.64 156.639L189.913 145.111C191.897 144.481 193.921 145.962 193.92 148.044L193.877 289.432C193.876 290.682 194.633 291.809 195.79 292.281L197.468 292.966C198.008 293.186 198.568 293.349 199.14 293.456C201.441 294.241 203.947 294.174 206.202 293.265L250.615 275.097C252.321 274.351 253.48 273.515 254.207 272.574C255.319 271.403 256.003 269.863 256.003 267.656V26.9284C256.003 24.5385 254.914 22.5844 253.25 21.1887C252.531 20.5119 251.682 19.9497 250.727 19.5444L206.69 0.891331Z" fill="url(#paint0_linear_1_4982)"/>
<path d="M98.8502 228.988C98.8611 227.79 98.1759 226.694 97.0944 226.18L47.6644 202.688C46.6947 202.28 45.6536 202.068 44.6013 202.065C43.549 202.06 42.5064 202.266 41.5339 202.667C40.5613 203.069 39.6781 203.66 38.9353 204.405C38.1924 205.151 37.6047 206.035 37.206 207.009C37.0457 207.395 36.916 207.792 36.8173 208.195V289.419C36.8173 290.647 37.5464 291.756 38.6725 292.243L41.2594 293.361C41.5246 293.469 41.7951 293.564 42.0701 293.644C44.177 294.669 46.6893 294.83 49.0334 293.874L93.0649 276.33C94.6552 275.675 96.0163 274.562 96.9742 273.134C97.9313 271.704 98.4435 270.024 98.4452 268.303C98.4682 268.066 98.4759 267.829 98.4759 267.588L98.8502 228.988Z" fill="url(#paint1_linear_1_4982)"/>
</g>
<defs>
<linearGradient id="paint0_linear_1_4982" x1="12565.6" y1="1267.56" x2="12565.6" y2="28161.2" gradientUnits="userSpaceOnUse">
<stop stop-color="#F1CB2B"/>
<stop offset="1" stop-color="#D62B5F"/>
</linearGradient>
<linearGradient id="paint1_linear_1_4982" x1="8920.72" y1="-18736.8" x2="8920.72" y2="8156.89" gradientUnits="userSpaceOnUse">
<stop stop-color="#F1CB2B"/>
<stop offset="1" stop-color="#D62B5F"/>
</linearGradient>
<clipPath id="clip0_1_4982">
<rect width="256" height="295" fill="white"/>
</clipPath>
</defs>
</svg>
