<svg width="256" height="316" viewBox="0 0 256 316" fill="none" xmlns="http://www.w3.org/2000/svg">
<g clip-path="url(#clip0_1_4992)">
<path d="M119.78 158.372L98.1725 312.676C98.1725 312.676 62.9431 325.594 31.0018 298.585L65.9963 148.977L0 15.1058C0 15.1058 26.0697 4.06726 42.745 7.82505L100.756 117.271L201.277 31.781C201.277 31.781 235.097 43.5241 238.15 54.7975L119.78 158.372Z" fill="#ECDFA7"/>
<path d="M251.773 173.798C250.129 170.51 248.015 167.457 245.666 164.639C240.969 159.237 235.332 154.774 229.226 151.251C223.354 147.494 216.778 144.44 210.202 142.327L207.618 141.622C206.914 141.387 206.209 141.152 205.505 140.917C204.096 140.448 202.921 139.743 201.747 139.273C199.398 137.864 197.754 136.455 196.58 134.576C194.231 131.053 193.996 125.651 195.171 120.015C195.406 118.606 195.875 117.196 196.345 115.787C196.815 114.378 197.285 112.969 197.754 111.325C198.224 109.211 198.459 107.097 198.459 104.514L199.633 103.574L213.725 91.8312C216.308 89.7174 218.892 87.3688 221.475 85.255C222.415 85.7248 223.354 86.4294 224.059 86.8991C224.059 86.8991 231.34 87.6037 235.332 76.5651L233.218 75.156L234.628 73.9817L238.151 70.9284C239.325 69.989 240.264 68.8147 240.734 66.7009C238.62 66.4661 237.211 67.1706 236.037 68.1101L232.279 70.9284L229.696 72.8073L197.285 50.4954C198.929 49.0862 200.338 47.9119 201.982 46.5028L208.793 40.3963C209.028 40.1615 209.262 39.9266 209.497 39.6917C210.202 40.1615 210.672 40.6312 211.376 41.1009C213.02 42.2752 214.899 43.4495 216.543 44.389L226.877 50.0257C230.165 51.9046 233.688 53.7835 237.211 55.4275C238.855 56.367 240.734 57.0716 242.613 57.7761C243.552 58.011 244.492 58.4807 245.431 58.7156C245.901 58.7156 246.606 58.9505 247.075 58.9505H248.25C248.719 58.9505 249.189 58.7156 249.659 58.011V57.7761C249.659 57.5413 249.659 57.3064 249.894 57.0716V56.1321C249.894 55.6624 249.659 55.4275 249.424 55.1927C249.189 54.7229 248.719 54.2532 248.485 53.7835C247.78 53.0789 247.075 52.1395 246.371 51.6697C244.962 50.2605 243.318 49.0862 241.908 47.9119C238.855 45.5633 235.567 43.4495 232.279 41.3358C228.991 39.222 225.703 37.3431 222.18 35.6991C220.536 34.7596 218.657 34.055 216.778 33.3505C215.839 33.1156 214.899 32.6459 213.725 32.411C213.255 32.411 212.551 32.1761 211.846 32.1761C211.376 32.1761 211.141 32.1761 210.437 32.411C209.967 32.6459 209.262 32.8807 208.558 33.5853C206.914 34.2899 205.505 34.9945 204.33 35.9339L197.285 39.9266C195.171 41.5706 192.822 43.4495 190.708 45.0936L188.36 43.4495C188.36 43.4495 178.496 44.389 181.784 50.7303C181.784 50.7303 182.018 50.9651 182.723 51.6697C173.329 59.4202 164.169 67.4055 155.009 75.156C145.615 83.1413 136.455 91.1266 127.061 99.3468L113.204 111.56C112.499 112.264 111.795 112.969 110.855 113.673C110.385 112.264 109.681 111.09 109.211 109.916L105.923 102.87L99.5818 88.778C95.3542 79.3835 91.1267 69.989 86.6643 60.5945L73.512 32.6459C72.8074 31.2367 72.1029 29.8275 71.3983 28.4183H74.2166C74.2166 28.4183 75.1561 20.6679 69.5194 19.2587C69.5194 19.2587 68.5799 19.2587 67.1707 19.4936C65.057 15.2661 63.1781 11.0385 61.0643 6.81101L60.1249 3.28807C59.89 2.11376 59.1854 1.64404 58.7157 1.17431C58.246 0.939449 57.7763 0.704587 57.5414 0.704587C56.8368 0.469725 56.3671 0.469725 55.6625 0.234862C54.4882 0 53.5487 0 52.6093 0C50.4955 0 48.6166 0.234862 46.7377 0.469725C42.9799 0.93945 38.9873 1.64404 35.2295 2.58349C31.4717 3.52294 27.7139 4.46239 23.9561 5.6367C22.0772 6.34128 20.1983 6.81101 18.5542 7.75046C17.6148 8.22018 16.6753 8.68991 15.7359 9.15963C15.2662 9.3945 14.7964 9.86422 14.3267 10.0991C14.0919 10.3339 13.857 10.5688 13.6221 10.8037C13.3873 11.0385 13.3873 11.2734 13.1524 11.5083V12.2128V12.4477C13.3873 13.3872 13.857 13.622 14.3267 13.8569C14.7964 14.0917 15.0313 14.3266 15.2662 14.3266C15.9707 14.5615 16.4405 14.5615 16.9102 14.7963C17.8496 15.0312 19.024 15.0312 19.9634 15.0312C21.8423 15.0312 23.9561 14.7963 25.835 14.5615C29.5928 14.0917 33.5854 13.622 37.3432 12.9174L48.8515 11.0385C50.7304 10.8037 52.6093 10.3339 54.723 9.86422C56.3671 13.1523 58.0111 16.6752 59.6552 19.9633C48.8515 20.9028 31.9414 22.3119 21.3726 23.4862C20.1983 21.3725 19.2588 19.4936 18.0845 17.3798C17.8496 16.9101 17.1451 16.4404 16.4405 16.6752C15.7359 16.9101 15.501 17.6147 15.7359 18.3193C16.4405 20.1982 17.1451 21.8422 17.8496 23.7211C14.5616 24.1908 12.4478 24.6606 12.213 25.1303C11.0386 27.244 14.5616 38.2826 19.2588 41.1009C19.2588 41.1009 21.1377 40.3963 24.4258 39.6917C26.0698 43.4495 27.7139 47.2073 29.3579 50.9651L43.4496 82.9064L57.7763 114.848C62.4735 125.417 67.4056 135.985 72.3377 146.789C72.3377 146.789 72.3377 147.024 72.5726 147.024C71.868 149.372 71.1634 151.721 70.4588 154.07C68.5799 160.646 66.701 167.222 64.8221 173.798C61.2992 186.95 58.0111 200.338 54.723 213.49L49.7909 233.453L45.0937 253.417C41.8056 266.804 38.7524 279.956 34.9946 293.108C34.9946 293.343 34.9946 293.813 35.2295 294.048C37.1084 296.631 39.6919 298.51 42.0405 300.389C44.624 302.268 47.2074 303.677 49.7909 305.086C55.1928 307.905 60.8295 310.018 66.701 311.897C72.5726 313.541 78.679 314.716 85.0203 314.95C88.0735 315.185 91.3616 314.95 94.4148 314.481C97.468 314.011 100.521 313.541 103.809 312.602C104.749 312.367 105.453 311.428 105.688 310.488V310.253C108.272 297.336 110.385 284.183 112.734 271.266L119.31 232.044C121.424 218.892 123.773 205.974 125.886 192.822C126.121 191.413 126.356 189.769 126.591 188.36C127.061 188.829 127.296 189.534 127.765 190.004C130.114 192.822 132.932 195.171 135.751 197.284C141.387 201.277 147.494 204.33 153.6 206.679C159.707 209.028 166.048 210.906 172.389 212.316C176.617 213.255 180.609 213.96 184.837 214.429C182.958 218.657 181.784 223.119 182.018 228.051C182.018 228.521 182.253 228.991 182.723 229.226H182.958C187.42 231.574 192.118 233.453 197.285 234.628C202.217 235.567 207.618 236.037 212.785 235.332C218.187 234.628 223.589 232.514 227.817 228.991C232.044 225.468 235.097 220.771 236.976 215.839L237.211 215.604V215.369C237.446 213.255 237.681 211.141 237.916 209.028V208.793C240.264 207.383 242.613 205.974 244.962 204.095C247.78 201.747 250.363 199.163 252.242 195.875C254.121 192.587 255.296 188.594 255.061 184.602C254.826 180.844 253.417 177.086 251.773 173.798ZM230.635 42.9798C233.923 44.8587 236.976 46.7376 240.029 49.0862C241.439 50.2606 243.083 51.2 244.492 52.6092C245.196 53.3138 245.901 53.7835 246.371 54.4881C246.606 54.7229 246.606 54.7229 246.84 54.9578H246.371C245.431 54.7229 244.727 54.4881 243.787 54.2532C242.143 53.5486 240.264 52.844 238.62 52.1395C235.332 50.4954 231.809 48.8514 228.756 46.7376C225.703 44.6239 222.65 42.2752 220.066 39.6917C219.127 38.7523 218.187 37.8128 217.483 36.8734C218.657 37.3431 219.831 37.8128 221.006 38.2826C224.059 39.4569 227.347 41.1009 230.635 42.9798ZM214.664 32.6459C214.664 32.6459 214.664 32.6459 214.899 32.8807V33.1156V33.3505C214.899 33.3505 214.899 33.1156 214.664 33.1156V32.6459ZM47.2074 6.34128C43.9194 7.98532 40.1616 9.15963 36.6386 10.0991C32.8808 11.0385 29.3579 11.7431 25.6001 11.978C23.7212 12.2128 21.8423 12.2128 19.9634 12.2128C19.024 12.2128 18.0845 12.2128 17.3799 11.978H16.6753C16.9102 11.978 16.9102 11.7431 17.1451 11.7431C17.8496 11.2734 18.7891 11.0385 19.4937 10.5688C21.1377 9.86422 23.0166 9.3945 24.6607 8.68991C28.1836 7.75046 31.9414 6.81101 35.6992 6.10642C39.457 5.40183 43.2148 4.93211 46.7377 4.69725C47.912 4.69725 49.0863 4.69725 50.2607 4.46239C49.5561 5.16697 48.3818 5.6367 47.2074 6.34128ZM210.202 86.4294L195.64 97.7028L181.079 109.211C177.086 112.499 173.094 115.787 169.101 118.84C169.336 118.606 169.571 118.136 169.806 117.901C171.685 115.317 173.563 112.969 175.442 110.62C179.435 105.923 183.193 100.991 187.42 96.5284C191.648 92.0661 196.11 87.6037 200.573 83.611C202.921 81.4972 205.27 79.6183 207.853 77.9743C208.558 77.5046 209.262 77.0349 209.967 76.5651C212.081 78.2092 214.429 79.8532 216.543 81.4972C214.664 83.1413 212.316 84.7853 210.202 86.4294ZM38.0478 57.5413L39.2221 58.7156C41.5707 61.0642 43.9194 63.4128 45.7983 65.9963C47.6772 68.5798 49.3212 71.3982 50.0258 74.2165C50.4955 76.5651 50.4955 79.1486 49.3212 81.2624L49.0863 80.5578L38.0478 57.5413ZM49.5561 81.967C50.2607 81.2624 50.7304 80.3229 51.2001 79.1486C51.9047 77.5046 51.9047 75.6257 51.6698 73.9817C51.2001 70.4587 49.5561 67.1706 47.4423 64.5872C44.3891 60.5945 40.6313 57.3064 36.4038 54.4881L33.8203 49.0862C32.1763 45.5633 30.5322 42.0404 28.6533 38.7523C32.1763 37.8128 36.4038 36.4037 41.101 35.2294C45.3285 42.0404 49.0863 49.0862 52.6093 56.367C56.6019 65.5266 60.5946 75.156 61.2992 85.0202C61.5341 87.3688 61.2992 89.9523 61.2992 92.5358C61.2992 95.1193 61.2992 97.7028 61.534 100.286C61.7689 103.809 62.4735 107.567 63.1781 111.09L49.5561 81.967ZM104.984 273.38C104.279 274.319 103.809 275.024 102.87 275.728C101.696 276.668 100.521 277.138 99.112 276.903C97.9377 276.668 96.9983 275.494 96.5285 274.319C96.0588 273.145 95.5891 271.736 95.5891 270.327C95.3542 267.508 95.3542 264.69 96.0588 261.872C96.5285 259.053 97.468 256.47 98.6423 253.886C99.3469 252.712 100.051 251.538 100.991 250.598C101.93 249.659 103.105 248.954 104.279 249.189C105.453 249.189 106.628 250.363 107.332 251.538C107.802 252.242 108.037 252.947 108.272 253.651L105.453 270.327C105.218 271.501 105.218 272.44 104.984 273.38ZM118.84 192.352C117.431 200.572 116.022 208.793 114.613 217.013C114.378 215.369 113.908 213.725 113.439 212.081C112.264 207.618 110.855 203.391 109.446 199.163C106.393 190.708 102.87 182.488 98.6423 174.738C101.226 183.428 104.279 191.648 107.332 200.103C108.976 204.33 110.385 208.558 111.795 212.55C112.499 214.664 113.204 216.778 113.908 218.892C113.908 219.127 114.143 219.596 114.143 219.831C113.439 223.589 112.734 227.347 112.264 231.339L108.741 252.712C108.507 252.242 108.507 251.772 108.272 251.303C107.567 249.894 106.628 248.484 104.749 248.015C103.105 247.545 101.461 248.484 100.051 249.424C98.8772 250.363 97.9377 251.772 96.9983 252.947C95.3542 255.53 94.4148 258.583 93.9451 261.402C93.4753 264.455 93.2405 267.508 93.9451 270.561C94.1799 271.971 94.6496 273.615 95.5891 275.024C96.2937 276.433 97.7029 277.842 99.3469 278.077C100.991 278.312 102.635 277.372 103.574 276.198C104.044 275.728 104.514 275.024 104.984 274.554C103.34 285.593 101.461 296.631 99.8166 307.905C97.7029 308.609 95.5891 309.079 93.4753 309.314C90.657 309.783 87.8386 310.018 85.0203 310.253C79.1487 310.488 73.512 310.018 67.6405 308.609C62.0038 307.435 56.1322 305.556 50.7304 303.207C45.5634 300.859 40.6313 297.805 36.8735 293.578C40.3964 280.661 44.3891 267.743 48.3818 254.826L54.4882 235.332L60.3597 215.604C64.3524 202.451 68.3451 189.299 72.1029 176.147C73.9818 169.571 75.6258 162.994 77.5047 156.418C78.9139 149.607 81.7322 143.266 79.6185 135.75V135.516C79.3836 135.281 79.1487 135.281 79.1487 135.516C77.9744 136.69 77.2698 137.629 76.3304 138.804C73.7469 132.932 70.9285 127.295 68.3451 121.424C67.6405 119.31 66.9359 117.196 66.4662 114.848C65.2919 109.916 64.3524 104.983 64.1175 100.051C63.8827 97.4679 63.8827 95.1193 63.8827 92.5358C63.8827 89.9523 64.1175 87.3688 63.8827 84.7853C62.9432 74.4514 58.9506 64.5872 54.4882 55.4275C50.9652 48.1468 46.7377 41.3358 42.0405 34.7596C49.7909 32.6459 58.0111 30.5321 64.5873 29.3578C65.5267 31.4716 66.701 33.3505 67.6405 35.4642L81.7322 63.178C86.4295 72.3376 91.1267 81.4973 95.824 90.6569L102.87 104.279L106.393 111.09C107.332 112.499 107.802 114.143 108.741 115.317C105.688 118.136 102.635 120.954 99.5818 123.772C99.3469 124.007 99.112 124.477 99.5818 124.947C99.8166 125.417 100.521 125.417 100.756 125.182C105.688 121.659 110.62 117.901 115.552 114.143L130.349 102.87C140.213 95.3541 149.842 87.8385 159.472 80.3229C169.101 72.8073 178.73 65.0569 188.36 57.3064L188.595 57.0716C193.762 62.0037 201.512 69.2844 209.732 75.6257C206.209 77.5046 202.921 79.3835 199.868 81.7321C194.936 85.4899 190.239 89.7174 186.011 94.4147C181.784 99.1119 177.791 103.809 174.268 108.976C171.685 112.499 169.336 116.257 166.987 120.25C152.661 131.993 138.569 143.971 124.947 156.418C124.477 156.888 124.477 157.593 124.712 158.062C125.182 158.532 125.886 158.767 126.356 158.532C124.712 163.229 123.773 167.927 122.833 172.624C121.424 179.2 120.015 185.776 118.84 192.352ZM222.65 223.824C219.362 226.407 215.369 228.051 211.141 228.991C206.914 229.93 202.217 229.93 197.754 229.461C193.527 228.991 189.064 228.286 184.837 227.112C184.367 223.354 185.072 219.127 186.716 215.369C188.36 215.604 189.769 215.604 191.413 215.839C192.118 215.839 192.587 215.604 192.822 214.899C193.057 214.194 192.822 213.255 191.883 213.02C190.708 212.55 189.769 212.316 188.595 211.846C189.534 210.202 190.708 208.793 191.883 207.383C193.292 205.974 194.701 204.565 196.11 203.391C199.163 205.27 202.217 206.679 205.74 207.853C209.732 209.028 213.96 209.497 218.422 209.028C222.65 208.558 227.112 206.444 229.93 202.921C232.514 199.868 233.688 196.345 233.923 192.587C234.393 193.996 234.393 195.64 234.158 197.05C233.923 198.928 233.688 201.042 233.218 202.921C232.984 204.095 232.749 205.27 232.514 206.444C231.34 207.149 230.165 207.853 228.991 208.558C227.582 209.497 226.407 210.437 225.233 212.55C227.347 213.255 228.991 213.02 230.635 212.55C230.87 212.55 230.87 212.316 231.105 212.316C230.87 213.02 230.87 213.49 230.635 214.194C228.756 217.952 225.938 221.24 222.65 223.824ZM245.901 193.057C244.727 195.64 242.848 197.989 240.734 200.103C239.795 201.042 238.62 201.982 237.681 202.686C237.681 200.572 237.446 198.459 236.976 196.345C236.741 195.171 236.507 194.231 236.037 193.057C235.567 192.117 235.097 190.943 233.923 190.239C233.688 190.239 233.453 190.239 233.453 190.473C232.044 193.996 229.696 197.05 227.112 199.163C224.529 201.277 221.24 202.217 217.952 202.451C214.664 202.686 211.141 201.982 207.618 201.042C204.096 200.103 200.573 198.928 197.05 197.754L196.58 197.519C195.875 197.284 194.936 197.519 194.466 197.989C192.587 200.338 191.178 202.451 189.534 204.8C188.36 206.679 187.42 208.323 186.481 210.202C182.253 208.558 178.261 207.149 174.033 205.505C168.162 203.156 162.29 200.807 156.888 197.989C151.251 195.406 145.85 192.352 141.152 188.829C136.455 185.306 132.228 181.549 130.114 176.851V176.617C129.644 175.677 128.94 174.972 128 174.503C128 174.033 128.235 173.328 128.235 172.859C128.94 167.222 129.879 161.585 129.409 155.714C148.433 142.327 166.987 128.235 185.307 113.673C185.072 114.378 184.837 115.083 184.602 115.787C183.428 119.31 182.958 123.303 182.958 127.295C183.193 131.288 184.367 135.75 186.951 139.508C189.534 143.266 193.057 146.084 196.58 147.728C198.459 148.668 200.338 149.372 201.982 149.842C202.921 150.077 203.861 150.312 204.8 150.547L207.149 151.017C213.255 152.661 219.127 155.009 224.529 158.062C229.93 161.116 235.097 164.873 239.325 169.101C243.552 173.328 246.84 178.73 247.31 184.132C247.545 187.89 247.075 190.708 245.901 193.057Z" fill="#3F3E29"/>
<path d="M89.9524 247.075C88.0735 249.658 86.6643 252.711 85.9597 255.765C85.49 257.409 85.2551 259.053 85.2551 260.462L85.0202 265.159C84.5505 271.265 84.7854 277.842 86.6643 283.948C88.5432 290.054 91.1267 295.691 94.1799 301.093C93.2404 298.04 92.0661 295.221 91.1267 292.403C90.1872 289.585 89.2478 286.532 88.5432 283.478C87.134 277.607 87.134 271.5 87.3689 265.394L87.6037 260.697C87.6037 259.287 87.8386 257.643 88.0735 256.234C88.778 253.416 89.9524 250.598 91.3615 248.014C93.0056 245.431 94.8845 243.082 97.2331 240.968C99.3468 238.854 101.93 236.976 104.749 235.566C98.8771 237.915 93.4753 241.673 89.9524 247.075Z" fill="#3F3E29"/>
</g>
<defs>
<clipPath id="clip0_1_4992">
<rect width="256" height="316" fill="white"/>
</clipPath>
</defs>
</svg>
