<svg width="256" height="262" viewBox="0 0 256 262" fill="none" xmlns="http://www.w3.org/2000/svg">
<g clip-path="url(#clip0_1_4997)">
<path d="M152.229 2.78711L255.861 119.842L176.589 254.483L23.8719 220.596L8.96997 65.0753L152.229 2.78711Z" fill="#DC3011" fill-opacity="0.65"/>
<path d="M176.152 10.7227L253.183 146.766L147.649 261.983L5.31543 197.085L23.0737 41.8645L176.152 10.7227Z" fill="#DC3011" fill-opacity="0.65"/>
<path d="M127.178 0L252.883 92.9506L203.336 241.131L46.9109 239.736L0 90.7121L127.178 0Z" fill="#DC3011"/>
<path d="M127.94 79.2148C156.513 79.2148 179.676 102.378 179.676 130.951C179.676 159.524 156.513 182.688 127.94 182.688C99.3668 182.688 76.2034 159.524 76.2034 130.951C76.2034 102.378 99.3668 79.2148 127.94 79.2148ZM127.94 90.3286C105.505 90.3286 87.3171 108.516 87.3171 130.951C87.3171 153.387 105.505 171.574 127.94 171.574C150.375 171.574 168.563 153.387 168.563 130.951C168.563 108.516 150.375 90.3286 127.94 90.3286ZM146.111 114.641L152.792 123.655L127.94 154.554L103.16 123.655L109.796 114.641H146.111Z" fill="white"/>
</g>
<defs>
<clipPath id="clip0_1_4997">
<rect width="256" height="262" fill="white"/>
</clipPath>
</defs>
</svg>
