<svg width="256" height="177" viewBox="0 0 256 177" fill="none" xmlns="http://www.w3.org/2000/svg">
<g clip-path="url(#clip0_1_5012)">
<path d="M256 148.406C256 148.406 217.007 142.629 196.403 140.973C176.615 139.383 153.167 138.465 128.011 138.465C102.856 138.465 79.4075 139.383 59.6257 140.973C39.0154 142.652 0.0282288 150.668 0.0282288 150.668V160.743C0.0282288 169.699 57.3307 176.976 128.011 176.976C198.692 176.976 255.994 169.699 255.994 160.743L256 148.406Z" fill="#F0D50C"/>
<path d="M88.6603 14.7637C41.9255 31.4157 10.7167 75.6639 10.714 125.277V141.89C27.3914 137.906 44.3954 135.44 61.5177 134.524C61.402 131.337 61.3423 128.126 61.3385 124.89C61.3553 81.2965 71.8788 42.0687 88.6603 14.7637Z" fill="#F0D50C"/>
<path d="M245.303 125.277C245.343 98.0544 235.873 71.6725 218.53 50.6895C226.048 74.7036 229.795 99.739 229.635 124.902C229.635 129.481 229.518 134.008 229.283 138.482C234.62 139.303 239.907 140.425 245.118 141.84L245.303 125.277Z" fill="#FFF04D"/>
<path d="M245.303 125.277C245.343 98.0544 235.873 71.6725 218.53 50.6895C226.048 74.7036 229.795 99.739 229.635 124.902C229.635 129.481 229.518 134.008 229.283 138.482C234.62 139.303 239.907 140.425 245.118 141.84L245.303 125.277Z" fill="#FFEA00"/>
<path d="M218.53 50.6831C187.104 12.5894 135.2 -1.76706 88.6659 14.7634C71.8732 42.0684 61.3553 81.2963 61.3553 124.896C61.3553 128.131 61.415 131.342 61.5344 134.529C78.9989 133.18 99.2174 132.346 120.869 132.195C120.869 132.195 125.789 132.195 128.022 132.195C161.889 131.789 195.739 133.897 229.294 138.504C229.522 134.025 229.639 129.499 229.647 124.924C229.805 99.7507 226.055 74.7056 218.53 50.6831Z" fill="#FFF04D"/>
<path d="M175.193 58.4423L167.76 11.9824C167.232 8.56416 164.783 5.75552 161.468 4.76709C139.809 -1.58903 116.779 -1.58903 95.1199 4.76709C91.8076 5.75734 89.361 8.56561 88.8338 11.9824L81.3947 58.4423" fill="#FFF04D"/>
<path d="M128.023 131.211C125.783 131.211 123.561 131.211 121.356 131.211H121.11H120.863C53.5075 131.681 0.0338333 138.756 0.0338333 147.416V159.966C-0.0752921 160.701 0.081507 161.451 0.476042 162.082C3.89691 159.512 7.829 157.707 12.0071 156.786C22.6478 154.197 33.4629 152.386 44.3667 151.368C50.5593 150.689 56.7447 152.708 61.3441 156.909C69.7656 164.619 80.7693 168.895 92.1868 168.894H163.836C175.253 168.894 186.257 164.619 194.678 156.909C199.278 152.703 205.466 150.681 211.662 151.362C222.563 152.381 233.377 154.192 244.016 156.781C247.972 157.542 251.709 159.177 254.953 161.567C255.138 161.751 255.351 161.914 255.513 162.082C255.91 161.448 256.069 160.694 255.961 159.955V147.405C256 138.477 198.698 131.211 128.023 131.211Z" fill="#FFF04D"/>
<path d="M154.98 93.9414L127.989 110.555V132.134L154.98 93.9414Z" fill="#6E6F70"/>
<path d="M128.017 132.134V110.555L101.025 93.9414L128.017 132.134Z" fill="#0A0A0A"/>
<path d="M101.025 84.0852L128.017 99.6913V40.4297L101.025 84.0852Z" fill="#0A0A0A"/>
<path d="M154.98 84.085L127.989 40.4238V68.4733V99.6854L154.98 84.0794V84.085Z" fill="#6E6F70"/>
</g>
<defs>
<clipPath id="clip0_1_5012">
<rect width="256" height="177" fill="white"/>
</clipPath>
</defs>
</svg>
