<svg width="512" height="111" viewBox="0 0 512 111" fill="none" xmlns="http://www.w3.org/2000/svg">
<g clip-path="url(#clip0_1_5045)">
<path d="M94.864 57.4953C94.1822 59.5881 93.0776 61.5204 91.6176 63.1731L83.283 71.4614L67.166 55.4345L83.283 39.4079L91.6176 47.5356C93.0779 48.6989 94.1635 50.262 94.7403 52.032C95.3173 53.802 95.3603 55.7013 94.864 57.4953ZM53.4206 94.334C51.3662 93.6297 49.478 92.5156 47.8718 91.0597L39.5603 82.7945L55.677 66.7679L71.794 82.7945L63.4361 91.1056C62.2665 92.5576 60.6944 93.6371 58.9146 94.2108C57.1347 94.7845 55.2247 94.8273 53.4206 94.334ZM16.3521 53.1221C17.0446 51.0241 18.1653 49.0911 19.6445 47.4442L27.9791 39.1788L44.0961 55.2057L27.9791 71.2325L19.6215 62.9215C18.16 61.7534 17.0722 60.1872 16.4916 58.4144C15.911 56.6416 15.8626 54.739 16.3521 52.939V53.1221ZM57.7954 16.1004C59.9151 16.7816 61.8681 17.897 63.5283 19.3743L71.8401 27.6396L55.7231 43.6665L39.6064 27.6396L47.8718 19.5576C49.0417 18.1054 50.6138 17.0261 52.3936 16.4521C54.1735 15.8784 56.0833 15.8359 57.8873 16.3292L57.7954 16.1004ZM103.13 36.2025L74.9021 8.22427C71.5964 5.15124 67.6727 2.81012 63.39 1.35579C53.789 -1.8268 44.2571 0.645899 36.521 8.22427L8.27067 36.2025C5.18126 39.4906 2.82734 43.3923 1.36328 47.6501C-1.83698 57.1976 0.649548 66.699 8.27067 74.3921L36.36 102.439C39.6512 105.564 43.5761 107.952 47.8718 109.445C50.491 110.325 53.235 110.781 55.9993 110.796C59.5275 110.725 63.005 109.948 66.2247 108.512C69.4444 107.077 72.3408 105.011 74.7411 102.439L103.13 74.4835C106.261 71.2069 108.655 67.3045 110.152 63.0359C113.352 53.4884 110.843 43.987 103.13 36.3169" fill="#00ADE5"/>
<path d="M496.84 52.9396H510.656C510.474 48.3344 508.58 43.9601 505.336 40.6677C500.961 36.0886 493.709 33.799 486.572 33.799C479.987 33.5453 473.531 35.6585 468.383 39.752C466.414 41.3865 464.84 43.4417 463.78 45.7647C462.72 48.0873 462.2 50.6182 462.259 53.1687C462.326 57.0212 463.742 60.7299 466.263 63.6557C468.785 66.5813 472.254 68.5405 476.073 69.1953C481.37 70.3401 487.355 70.6834 492.652 71.485C494.272 71.5674 495.798 72.2676 496.911 73.44C498.028 74.6128 498.645 76.1675 498.637 77.781C498.637 84.3062 491.269 85.3366 486.433 85.3366C483.182 85.5891 479.949 84.6531 477.34 82.7037C475.74 81.2962 474.67 79.3913 474.302 77.3003H460.739C461.294 81.9961 463.506 86.3442 466.98 89.5722C472.277 94.2833 479.217 96.7483 486.318 96.4409C494.492 96.4409 501.975 94.3573 506.811 89.5722C508.526 87.8654 509.87 85.8264 510.764 83.5815C511.655 81.3369 512.072 78.9338 511.99 76.5218C511.99 67.1348 505.083 61.182 495.644 59.6939C489.772 58.7779 488.277 58.6635 482.865 57.9766C479.642 57.5186 475.958 56.2594 475.958 52.0008C475.994 50.6112 476.455 49.2655 477.276 48.1414C478.098 47.0173 479.245 46.1676 480.563 45.7048C482.545 44.9626 484.664 44.6503 486.779 44.7888C489.641 44.7046 492.431 45.6843 494.607 47.5362C495.995 49.0023 496.791 50.9264 496.84 52.9396ZM420.562 51.7719C420.598 50.3824 421.059 49.0366 421.88 47.9125C422.702 46.7881 423.849 45.9385 425.167 45.4756C427.149 44.7337 429.269 44.4214 431.383 44.5599C434.25 44.4852 437.046 45.4633 439.235 47.3073C440.702 48.8205 441.526 50.8376 441.536 52.9396H455.352C455.181 48.3369 453.292 43.9624 450.056 40.6677C445.681 36.0886 438.543 33.799 431.268 33.799C424.684 33.5453 418.227 35.6585 413.079 39.752C411.141 41.3822 409.592 43.4225 408.551 45.7242C407.506 48.0256 406.991 50.5298 407.048 53.054C407.109 56.9081 408.525 60.6191 411.047 63.5456C413.571 66.472 417.042 68.4301 420.862 69.0809C426.158 70.2257 432.143 70.569 437.463 71.3703C439.084 71.4527 440.609 72.1531 441.723 73.3256C442.839 74.4984 443.456 76.053 443.448 77.6666C443.448 84.1918 436.058 85.2222 431.222 85.2222C427.932 85.5033 424.65 84.5656 422.014 82.5892C420.424 81.1748 419.354 79.2733 418.975 77.1858H405.412C406.006 81.8374 408.213 86.1374 411.653 89.3433C416.95 94.0545 423.89 96.5195 430.991 96.2118C439.166 96.2118 446.671 94.1284 451.507 89.3433C453.217 87.6332 454.561 85.5937 455.45 83.3496C456.341 81.1055 456.763 78.7042 456.686 76.2929C456.686 66.9059 449.779 60.9529 440.318 59.4648C434.445 58.549 432.95 58.4346 427.538 57.7478C424.315 57.2898 420.631 56.0305 420.631 51.7719H420.562ZM401.29 65.5092C401.887 58.2178 400.067 50.933 396.111 44.766C393.697 41.2434 390.426 38.3872 386.601 36.4652C382.774 34.5431 378.522 33.618 374.239 33.7762C370.701 33.6751 367.178 34.293 363.889 35.592C360.599 36.8912 357.609 38.8442 355.105 41.3318C349.348 47.1698 346.47 55.6642 346.47 65.1656C346.296 69.5489 347.023 73.9211 348.608 78.015C350.193 82.1092 352.599 85.8392 355.681 88.977C358.182 91.3895 361.142 93.2818 364.388 94.5439C367.634 95.8057 371.1 96.4117 374.584 96.3265C378.355 96.4882 382.116 95.8214 385.598 94.3729C389.079 92.9245 392.197 90.7303 394.729 87.9465C397.35 84.7839 399.096 80.9959 399.795 76.957H385.979C385.498 78.8647 384.504 80.606 383.102 81.9938C381.932 83.061 380.547 83.868 379.036 84.3615C377.528 84.8548 375.931 85.0235 374.354 84.8559C371.029 84.8438 367.844 83.5272 365.489 81.1925C363.999 79.644 362.842 77.8105 362.084 75.8032C361.329 73.7959 360.991 71.657 361.091 69.5158H401.06C401.06 68.2566 401.06 65.5092 401.06 65.5092H401.29ZM386.67 59.0984H360.999C360.922 55.7353 362.02 52.4496 364.106 49.8031C365.302 48.316 366.83 47.1273 368.568 46.3322C370.309 45.5371 372.209 45.1577 374.124 45.224C375.795 45.1344 377.47 45.3937 379.036 45.9851C380.6 46.5764 382.026 47.487 383.217 48.6582C385.692 51.5712 387.003 55.2868 386.901 59.0984H386.67ZM325.22 94.8153H339.633V55.0001C339.633 42.6138 332.15 33.6845 319.35 33.6845C315.861 33.5248 312.392 34.2884 309.297 35.8974C306.204 37.5061 303.593 39.903 301.734 42.8427L300.7 35.1729H288.612V94.7009H303.002V70.4546C303.002 65.4175 303.002 59.2359 304.958 54.4277C306.916 49.6198 310.254 46.8493 315.32 46.8493C322.918 46.8493 325.22 51.0851 325.22 58.0911V94.8153ZM279.654 47.9256C280.425 47.935 281.193 47.9885 281.958 48.0858V34.5088C281.336 34.5088 280.714 34.3714 280.092 34.3714C273.07 34.3714 265.933 37.2335 263.148 44.1019L261.903 35.1729H249.677V94.7009H264.297V64.7307C264.297 55.1145 269.594 47.8797 279.724 47.8797L279.654 47.9256ZM234.368 95.6624C236.844 95.7415 239.301 95.1898 241.505 94.0598V83.505C240.901 83.6463 240.282 83.7231 239.662 83.7338C237.361 83.7338 236.324 82.7037 236.324 79.9563V57.8622C236.503 53.7762 235.917 49.6925 234.596 45.8192C231.119 36.8899 222.372 33.6845 212.127 33.6845C198.771 33.6845 188.066 39.6373 187.237 53.054H201.19C201.534 47.5362 205.448 44.5599 212.127 44.5599C220.298 44.5599 222.257 48.3377 222.257 53.97V57.6331L204.644 58.8923C193.131 59.6939 184.359 66.2191 184.359 77.5522C184.359 87.2827 191.749 96.2348 206.024 96.2348C214.543 96.2348 221.45 92.0907 224.213 87.2827C224.469 89.7214 225.677 91.9637 227.574 93.5297C229.471 95.0956 231.908 95.861 234.368 95.6624ZM222.257 71.027C222.257 79.8416 215.926 84.7642 206.945 84.7642C205.891 84.8515 204.828 84.7263 203.825 84.3966C202.819 84.0666 201.892 83.5385 201.096 82.844C200.3 82.1494 199.654 81.3026 199.196 80.3538C198.738 79.4054 198.474 78.3745 198.426 77.3231C198.426 72.5151 202.686 69.8822 207.061 69.5389L222.257 68.394V71.027ZM163.683 94.7236H178.211V54.6568C178.211 42.2933 170.659 33.181 157.766 33.181C154.589 33.1147 151.441 33.7931 148.578 35.1614C145.714 36.5297 143.214 38.5493 141.281 41.0568V11.293H126.753V94.7236H141.281V63.0823C141.281 55.687 144.988 46.4602 153.714 46.4602C161.358 46.4602 163.683 50.7188 163.683 57.6561V94.7236Z" fill="#07182B"/>
</g>
<defs>
<clipPath id="clip0_1_5045">
<rect width="512" height="111" fill="white"/>
</clipPath>
</defs>
</svg>
