<svg width="256" height="255" viewBox="0 0 256 255" fill="none" xmlns="http://www.w3.org/2000/svg">
<g clip-path="url(#clip0_1_5042)">
<path d="M217.787 131.997C216.222 136.802 213.686 141.238 210.334 145.032L191.2 164.06L154.199 127.266L191.2 90.4721L210.334 109.132C213.687 111.802 216.179 115.391 217.503 119.454C218.828 123.518 218.927 127.878 217.787 131.997ZM122.642 216.571C117.926 214.954 113.591 212.396 109.903 209.054L90.8219 190.078L127.823 153.285L164.824 190.078L145.636 209.159C142.95 212.492 139.341 214.971 135.255 216.288C131.169 217.605 126.784 217.703 122.642 216.571ZM37.5409 121.957C39.1307 117.141 41.7037 112.703 45.0996 108.922L64.234 89.9461L101.235 126.74L64.234 163.535L45.0467 144.454C41.6914 141.773 39.1941 138.177 37.8612 134.107C36.5282 130.037 36.4172 125.669 37.5409 121.537V121.957ZM132.686 36.963C137.552 38.5269 142.036 41.0876 145.847 44.4794L164.929 63.4545L127.928 100.249L90.9277 63.4545L109.903 44.9002C112.589 41.566 116.199 39.0882 120.284 37.7705C124.371 36.4534 128.755 36.3559 132.897 37.4884L132.686 36.963ZM236.764 83.1132L171.959 18.8812C164.37 11.8262 155.362 6.45144 145.53 3.1126C123.488 -4.19395 101.605 1.48285 83.8445 18.8812L18.9877 83.1132C11.8951 90.6619 6.49097 99.6194 3.12979 109.394C-4.21731 131.313 1.49122 153.127 18.9877 170.788L83.4748 235.178C91.0306 242.352 100.042 247.836 109.903 251.262C115.916 253.282 122.216 254.329 128.562 254.363C136.662 254.2 144.646 252.417 152.038 249.121C159.43 245.825 166.079 241.083 171.59 235.178L236.764 170.998C243.953 163.476 249.45 154.517 252.885 144.717C260.233 122.798 254.471 100.985 236.764 83.3759" fill="#00ADE5"/>
</g>
<defs>
<clipPath id="clip0_1_5042">
<rect width="256" height="255" fill="white"/>
</clipPath>
</defs>
</svg>
