<svg width="512" height="88" viewBox="0 0 512 88" fill="none" xmlns="http://www.w3.org/2000/svg">
<g clip-path="url(#clip0_1_5059)">
<path fill-rule="evenodd" clip-rule="evenodd" d="M5.91859 28.7772C-1.97286 36.6686 -1.97286 49.4617 5.91859 57.3524L28.7777 80.2123C36.6692 88.1031 49.4623 88.1031 57.353 80.2123L80.2129 57.3524C88.1036 49.461 88.1036 36.6679 80.2129 28.7772L57.353 5.91803C49.4615 -1.97268 36.6685 -1.97268 28.7777 5.91803L5.91859 28.7772ZM53.0663 53.0665C58.5903 47.5425 58.5903 38.5872 53.0663 33.0639C47.543 27.5399 38.5877 27.5399 33.0644 33.0639C27.5404 38.5879 27.5404 47.5425 33.0644 53.0665C38.5885 58.5898 47.5423 58.5898 53.0663 53.0665Z" fill="#2962FF"/>
<path fill-rule="evenodd" clip-rule="evenodd" d="M120.186 58.3374C120.218 51.9729 124.108 48.2438 129.701 48.2438C135.262 48.2438 138.541 51.8121 138.509 57.8878V86.8829H152.203V55.4444C152.235 43.8722 145.42 36.8645 135.134 36.8645C127.644 36.8645 122.629 40.4008 120.379 46.2188H119.8V21.0496H106.492V86.8829H120.186V58.3374ZM173.439 87.815C180.735 87.815 185.46 84.6323 187.872 80.0359H188.257V86.8829H201.244V53.5802C201.244 41.8153 191.279 36.8645 180.285 36.8645C168.456 36.8645 160.677 42.5225 158.78 51.5232L171.446 52.5514C172.378 49.2727 175.303 46.8621 180.221 46.8621C184.882 46.8621 187.55 49.2087 187.55 53.2586V53.4522C187.55 56.6341 184.175 57.0517 175.592 57.8878C165.82 58.7878 157.044 62.0665 157.044 73.0922C157.044 82.8642 164.019 87.815 173.439 87.815ZM177.36 78.3639C173.149 78.3639 170.127 76.4037 170.127 72.6426C170.127 68.7847 173.31 66.8878 178.132 66.2133C181.121 65.7956 186.007 65.0883 187.646 63.9947V69.2351C187.646 74.4099 183.371 78.3639 177.36 78.3639ZM249.328 51.5873C248.107 42.4898 240.778 36.8645 228.306 36.8645C215.673 36.8645 207.347 42.7153 207.379 52.2305C207.347 59.6231 212.008 64.4131 221.652 66.342L230.202 68.0454C234.509 68.9135 236.47 70.4888 236.534 72.9634C236.47 75.8892 233.288 77.9782 228.499 77.9782C223.613 77.9782 220.366 75.8892 219.53 71.8705L206.061 72.5778C207.347 82.0289 215.383 87.847 228.467 87.847C241.26 87.847 250.421 81.3217 250.454 71.5817C250.421 64.4451 245.761 60.1696 236.182 58.2094L227.245 56.4092C222.648 55.4124 220.944 53.8371 220.976 51.4585C220.944 48.5014 224.288 46.5725 228.531 46.5725C233.288 46.5725 236.117 49.1766 236.792 52.3585L249.328 51.5873ZM269.15 58.3374C269.182 51.9729 273.071 48.2438 278.664 48.2438C284.226 48.2438 287.504 51.8121 287.472 57.8878V86.8829H301.166V55.4444C301.198 43.8722 294.383 36.8645 284.097 36.8645C276.607 36.8645 271.593 40.4008 269.343 46.2188H268.764V21.0496H255.456V86.8829H269.15V58.3374ZM322.016 58.3374C322.048 51.9729 325.841 48.2438 331.37 48.2438C336.867 48.2438 340.178 51.8441 340.145 57.8878V86.8829H353.839V55.4444C353.839 43.937 347.089 36.8645 336.803 36.8645C329.473 36.8645 324.17 40.4648 321.952 46.2188H321.373V37.5077H308.322V86.8829H322.016V58.3374ZM383.32 87.847C398.3 87.847 407.622 77.5926 407.622 62.3881C407.622 47.0869 398.3 36.8645 383.32 36.8645C368.34 36.8645 359.019 47.0869 359.019 62.3881C359.019 77.5926 368.34 87.847 383.32 87.847ZM383.385 77.239C376.474 77.239 372.937 70.9064 372.937 62.2914C372.937 53.6763 376.474 47.3125 383.385 47.3125C390.167 47.3125 393.703 53.677 393.703 62.2914C393.703 70.9064 390.167 77.239 383.385 77.239ZM431.1 87.6862C439.072 87.6862 443.218 83.0898 445.115 78.9751H445.694V86.8829H459.195V21.0488H445.533V45.8012H445.115C443.282 41.7832 439.328 36.8645 431.068 36.8645C420.235 36.8645 411.073 45.2868 411.073 62.2593C411.073 78.7823 419.849 87.6862 431.1 87.6862ZM435.439 76.7893C428.721 76.7893 425.056 70.8097 425.056 62.1953C425.056 53.6443 428.656 47.7621 435.439 47.7621C442.093 47.7621 445.822 53.3874 445.822 62.1953C445.822 71.0025 442.029 76.7893 435.439 76.7893ZM489.334 87.847C501.549 87.847 509.778 81.9001 511.707 72.7386L499.042 71.9033C497.66 75.6636 494.124 77.6246 489.559 77.6246C482.712 77.6246 478.372 73.0922 478.372 65.7308V65.6988H511.997V61.9377C511.997 45.158 501.838 36.8645 488.788 36.8645C474.258 36.8645 464.839 47.1829 464.839 62.4201C464.839 78.075 474.13 87.847 489.334 87.847ZM478.372 57.2125C478.662 51.5873 482.938 47.0869 489.013 47.0869C494.959 47.0869 499.074 51.3304 499.106 57.2125H478.372Z" fill="black"/>
</g>
<defs>
<clipPath id="clip0_1_5059">
<rect width="512" height="88" fill="white"/>
</clipPath>
</defs>
</svg>
