<svg width="256" height="256" viewBox="0 0 256 256" fill="none" xmlns="http://www.w3.org/2000/svg">
<g clip-path="url(#clip0_1_5056)">
<path fill-rule="evenodd" clip-rule="evenodd" d="M17.5913 85.5321C-5.86378 108.987 -5.86378 147.011 17.5913 170.464L85.5338 238.409C108.989 261.862 147.013 261.862 170.466 238.409L238.41 170.464C261.863 147.009 261.863 108.985 238.41 85.5321L170.466 17.5897C147.011 -5.86323 108.987 -5.86323 85.5338 17.5897L17.5913 85.5321ZM157.725 157.725C174.143 141.307 174.143 114.689 157.725 98.2731C141.308 81.8545 114.691 81.8545 98.2748 98.2731C81.8562 114.692 81.8562 141.307 98.2748 157.725C114.693 174.142 141.308 174.142 157.727 157.725H157.725Z" fill="#2962FF"/>
</g>
<defs>
<clipPath id="clip0_1_5056">
<rect width="256" height="256" fill="white"/>
</clipPath>
</defs>
</svg>
