<svg width="256" height="259" viewBox="0 0 256 259" fill="none" xmlns="http://www.w3.org/2000/svg">
<g clip-path="url(#clip0_1_5074)">
<path d="M233.5 2.05687C235.107 -0.413603 238.707 -0.733312 240.642 1.50465C255.173 18.299 259.841 63.3409 252.717 86.84L252.368 87.9426C249.837 95.6445 249.124 103.783 250.583 111.688L251.174 114.903L251.744 118.228C252.758 124.384 253.557 130.77 253.557 135.608C253.557 203.329 197.341 258.26 127.97 258.26C58.6288 258.26 2.38192 203.358 2.38192 135.608C2.38192 130.33 3.33424 123.21 4.47704 116.556L5.06079 113.278C5.15955 112.742 5.25875 112.211 5.35795 111.688C6.75842 104.248 6.23448 96.6011 4.05902 89.3061L3.63184 87.9426C-3.98677 64.8071 0.5963 18.5945 15.3574 1.50465C17.1899 -0.587989 20.5184 -0.437274 22.23 1.68496L22.4998 2.05687L40.6832 29.9299C45.2068 35.4812 53.3015 36.789 59.3729 32.8943C79.1039 20.2804 102.674 12.9561 128 12.9561C153.326 12.9561 176.895 20.2804 196.626 32.8943C202.525 36.6592 210.285 35.5895 214.856 30.4735L215.317 29.9299L233.5 2.05687ZM128 40.9741C113.12 40.9741 99.0133 44.2293 86.4247 50.1005C55.0276 64.6327 32.8268 95.1213 30.8922 130.812C30.8028 132.498 30.7435 134.184 30.7435 135.899C30.7435 188.273 74.3423 230.882 127.97 230.882C181.598 230.882 225.226 188.273 225.256 135.928C225.256 134.242 225.197 132.527 225.107 130.842C223.172 95.1793 200.972 64.6619 169.575 50.1294C156.956 44.2293 142.88 40.9741 128 40.9741ZM121.541 93.9581C122.4 93.9581 123.214 94.3365 123.743 94.9957L123.952 95.2951L145.26 130.376L170.109 172.462C170.616 173.305 170.616 174.351 170.109 175.165C169.693 175.902 168.934 176.395 168.073 176.507L167.699 176.531H147.492C146.632 176.531 145.819 176.13 145.29 175.466L145.081 175.165L131.808 152.697L117.017 175.251C116.575 175.938 115.836 176.381 115.02 176.48L114.666 176.502H94.1614C93.1198 176.502 92.1675 175.949 91.6912 175.077C91.2747 174.314 91.2455 173.396 91.6234 172.614L91.8103 172.288L119.16 131.538L98.7744 98.0852C98.2683 97.2424 98.2385 96.1961 98.7446 95.3534C99.1871 94.5902 99.9487 94.0943 100.81 93.9822L101.185 93.9581H121.541Z" fill="#1EB4D4"/>
</g>
<defs>
<clipPath id="clip0_1_5074">
<rect width="256" height="259" fill="white"/>
</clipPath>
</defs>
</svg>
