<svg width="512" height="150" viewBox="0 0 512 150" fill="none" xmlns="http://www.w3.org/2000/svg">
<g clip-path="url(#clip0_1_5077)">
<path d="M135.399 1.19271C136.331 -0.239836 138.419 -0.425224 139.541 0.872502C147.967 10.611 150.674 36.7294 146.542 50.3558L146.341 50.9951C144.873 55.4612 144.459 60.1803 145.305 64.7644L145.648 66.6287L145.979 68.5566C146.566 72.1265 147.03 75.8294 147.03 78.6349C147.03 117.904 114.432 149.757 74.2058 149.757C33.997 149.757 1.3812 117.921 1.3812 78.6349C1.3812 75.5744 1.93342 71.4459 2.59609 67.587L2.93459 65.6863C2.99186 65.3753 3.04938 65.0678 3.10691 64.7644C3.919 60.4499 3.61518 56.0159 2.3537 51.7858L2.10599 50.9951C-2.3118 37.5796 0.345777 10.7824 8.90526 0.872502C9.96789 -0.340957 11.898 -0.253561 12.8905 0.977053L13.0469 1.19271L23.5909 17.3554C26.214 20.5744 30.9079 21.3328 34.4285 19.0744C45.8699 11.76 59.5373 7.51281 74.2231 7.51281C88.9089 7.51281 102.576 11.76 114.017 19.0744C117.438 21.2575 121.938 20.6373 124.588 17.6706L124.856 17.3554L135.399 1.19271ZM74.2231 23.7596C65.5946 23.7596 57.4147 25.6472 50.115 29.0517C31.9088 37.4785 19.0352 55.1579 17.9134 75.854C17.8616 76.8316 17.8272 77.8091 17.8272 78.8035C17.8272 109.174 43.1087 133.881 74.2058 133.881C105.303 133.881 130.601 109.174 130.619 78.8203C130.619 77.8427 130.585 76.8485 130.533 75.8709C129.411 55.1915 116.537 37.4954 98.3313 29.0685C91.0142 25.6472 82.8515 23.7596 74.2231 23.7596ZM70.4778 54.4833C70.976 54.4833 71.4479 54.7028 71.7546 55.085L71.8756 55.2586L84.2315 75.6009L98.641 100.005C98.9348 100.494 98.9348 101.101 98.641 101.573C98.3995 102 97.9595 102.286 97.4604 102.351L97.2433 102.365H85.5259C85.0275 102.365 84.5556 102.133 84.2489 101.747L84.1279 101.573L76.4315 88.5445L67.8546 101.623C67.598 102.021 67.1695 102.278 66.6964 102.335L66.4914 102.348H54.6012C53.9972 102.348 53.445 102.027 53.1689 101.522C52.9274 101.079 52.9104 100.547 53.1295 100.093L53.2379 99.9042L69.0972 76.2751L57.2762 56.8765C56.9827 56.3878 56.9654 55.7811 57.2589 55.2925C57.5155 54.8499 57.9571 54.5623 58.4566 54.4974L58.6738 54.4833H70.4778Z" fill="#1EB4D4"/>
<path d="M214.196 37.918H229.227V118.41H214.196V84.1136H197.215V118.428H182.184V37.918H197.215V72.8722H214.196V37.918ZM275.597 118.426L272.456 101.708H254.424L251.541 118.426H236.511L253.094 37.9333H273.336L290.715 118.426H275.597ZM256.39 90.6007H270.369L263.19 52.0733L256.39 90.6007ZM324.193 103.746V86.5222C324.193 85.1569 323.936 84.2469 323.418 83.7749C322.899 83.303 321.933 83.0671 320.535 83.0671H309.958C300.983 83.0671 296.497 78.82 296.497 70.3089V50.5566C296.497 42.1298 301.19 37.9333 310.594 37.9333H324.97C334.375 37.9333 339.069 42.1465 339.069 50.5566V61.781H323.918V52.5958C323.918 51.2308 323.659 50.3207 323.142 49.8488C322.624 49.3768 321.658 49.1409 320.26 49.1409H315.29C313.806 49.1409 312.804 49.3768 312.288 49.8488C311.769 50.3207 311.51 51.2308 311.51 52.5958V68.7921C311.51 70.1574 311.769 71.0674 312.288 71.5392C312.804 72.0111 313.806 72.2472 315.29 72.2472H325.609C334.755 72.2472 339.328 76.4099 339.328 84.7525V105.803C339.328 114.229 334.584 118.426 325.091 118.426H310.976C301.485 118.426 296.738 114.213 296.738 105.803V94.6962H311.751V103.746C311.751 105.111 312.01 106.022 312.529 106.494C313.047 106.965 314.047 107.202 315.532 107.202H320.501C321.899 107.202 322.847 106.965 323.383 106.494C323.918 106.022 324.193 105.111 324.193 103.746ZM379.432 37.918H394.445V105.787C394.445 114.214 389.7 118.41 380.209 118.41H364.28C354.789 118.41 350.043 114.197 350.043 105.787V37.918H365.074V103.748C365.074 105.113 365.333 106.023 365.851 106.495C366.367 106.967 367.335 107.203 368.733 107.203H375.652C377.136 107.203 378.138 106.967 378.654 106.495C379.173 106.023 379.432 105.113 379.432 103.748V37.918ZM421.883 87.0461V118.428H406.868V37.918H437.173C446.664 37.918 451.409 42.1313 451.409 50.5413V74.4059C451.409 81.3834 448.235 85.4619 441.867 86.6584L455.587 118.428H439.383L426.836 87.0461H421.883ZM421.883 49.1424V76.1924H432.72C434.118 76.1924 435.068 75.9565 435.602 75.4846C436.12 75.0126 436.378 74.1026 436.378 72.7375V52.5975C436.378 51.2322 436.12 50.3221 435.602 49.8502C435.084 49.3783 434.118 49.1424 432.72 49.1424H421.883ZM496.867 118.426L493.725 101.708H475.691L472.809 118.426H457.796L474.38 37.9333H494.623L512 118.426H496.867ZM477.676 90.6007H491.654L484.475 52.0733L477.676 90.6007Z" fill="#1B2738"/>
</g>
<defs>
<clipPath id="clip0_1_5077">
<rect width="512" height="150" fill="white"/>
</clipPath>
</defs>
</svg>
