<svg width="256" height="256" viewBox="0 0 256 256" fill="none" xmlns="http://www.w3.org/2000/svg">
<g clip-path="url(#clip0_1_5081)">
<path d="M127.946 31.9898L55.0724 23.9194L0 0.00327301H63.9707L127.946 31.9941" fill="#FBC707"/>
<path d="M127.946 31.9898L202.488 25.5881L255.892 0.00327301H191.917L127.946 31.9941" fill="#FBC707"/>
<path d="M127.946 223.904L197.482 226.407L255.892 255.891H191.917L127.946 223.899" fill="#F68712"/>
<path d="M127.946 223.904H57.8538L0 255.891H63.9707L127.946 223.899" fill="#F25C19"/>
<path d="M31.9853 127.948V195.255L0 255.891V191.92L31.9853 127.946" fill="#FFF200"/>
<path d="M31.9853 127.949L26.7016 61.1916L0 0.00435638V63.9746L31.9853 127.948" fill="#FFF200"/>
<path d="M223.901 127.949L230.859 57.8539L255.892 0.00435638V63.9746L223.901 127.948" fill="#F1471D"/>
<path d="M223.901 127.948L229.746 203.043L255.892 255.891V191.92L223.901 127.946" fill="#F1471D"/>
<path d="M0 0.00435638L127.946 31.9909L107.363 113.483L31.9853 127.949L0 0.0111084" fill="#FAB20B"/>
<path d="M255.892 0.00435638L223.901 127.949L137.959 112.366L127.946 31.987L255.892 0.0111084" fill="#F47216"/>
<path d="M255.892 255.891L127.946 223.904L142.409 139.077L223.901 127.954L255.892 255.883" fill="#F25C19"/>
<path d="M0 255.891L31.9853 127.948L109.032 145.19L127.946 223.904L0 255.883" fill="#F89C0E"/>
<path d="M127.946 31.9898L31.9854 127.948L127.946 223.904L223.901 127.948L127.946 31.9941" fill="#F68712"/>
</g>
<defs>
<clipPath id="clip0_1_5081">
<rect width="256" height="256" fill="white"/>
</clipPath>
</defs>
</svg>
