<svg width="512" height="140" viewBox="0 0 512 140" fill="none" xmlns="http://www.w3.org/2000/svg">
<g clip-path="url(#clip0_1_5157)">
<path opacity="0.5" d="M104.827 122.285H87.3533V139.759H104.827V122.285Z" fill="url(#paint0_linear_1_5157)"/>
<path opacity="0.7" d="M87.3533 122.285H69.8796V139.759H87.3533V122.285Z" fill="url(#paint1_linear_1_5157)"/>
<path opacity="0.7" d="M69.8872 122.285H52.4136V139.759H69.8872V122.285Z" fill="url(#paint2_linear_1_5157)"/>
<path opacity="0.5" d="M52.4136 122.285H34.9399V139.759H52.4136V122.285Z" fill="url(#paint3_linear_1_5157)"/>
<path opacity="0.7" d="M122.286 104.82H104.82V122.294H122.286V104.82Z" fill="url(#paint4_linear_1_5157)"/>
<path opacity="0.8" d="M104.827 104.82H87.3533V122.294H104.827V104.82Z" fill="url(#paint5_linear_1_5157)"/>
<path d="M87.3533 104.82H69.8796V122.294H87.3533V104.82Z" fill="url(#paint6_linear_1_5157)"/>
<path d="M69.8872 104.82H52.4136V122.294H69.8872V104.82Z" fill="url(#paint7_linear_1_5157)"/>
<path opacity="0.8" d="M52.4136 104.82H34.9399V122.294H52.4136V104.82Z" fill="url(#paint8_linear_1_5157)"/>
<path opacity="0.7" d="M34.9473 104.82H17.4736V122.294H34.9473V104.82Z" fill="url(#paint9_linear_1_5157)"/>
<path opacity="0.5" d="M139.759 87.3535H122.286V104.82H139.759V87.3535Z" fill="url(#paint10_linear_1_5157)"/>
<path opacity="0.8" d="M122.286 87.3535H104.82V104.82H122.286V87.3535Z" fill="url(#paint11_linear_1_5157)"/>
<path d="M104.827 87.3535H87.3533V104.82H104.827V87.3535Z" fill="url(#paint12_linear_1_5157)"/>
<path d="M87.3533 87.3535H69.8796V104.82H87.3533V87.3535Z" fill="url(#paint13_linear_1_5157)"/>
<path d="M69.8872 87.3535H52.4136V104.82H69.8872V87.3535Z" fill="url(#paint14_linear_1_5157)"/>
<path d="M52.4136 87.3535H34.9399V104.82H52.4136V87.3535Z" fill="url(#paint15_linear_1_5157)"/>
<path opacity="0.8" d="M34.9473 87.3535H17.4736V104.82H34.9473V87.3535Z" fill="url(#paint16_linear_1_5157)"/>
<path opacity="0.5" d="M17.4736 87.3535H0V104.82H17.4736V87.3535Z" fill="url(#paint17_linear_1_5157)"/>
<path opacity="0.7" d="M139.759 69.8789H122.286V87.3525H139.759V69.8789Z" fill="url(#paint18_linear_1_5157)"/>
<path d="M122.286 69.8789H104.82V87.3525H122.286V69.8789Z" fill="url(#paint19_linear_1_5157)"/>
<path d="M104.827 69.8789H87.3533V87.3525H104.827V69.8789Z" fill="url(#paint20_linear_1_5157)"/>
<path d="M87.3533 69.8789H69.8796V87.3525H87.3533V69.8789Z" fill="url(#paint21_linear_1_5157)"/>
<path d="M69.8872 69.8789H52.4136V87.3525H69.8872V69.8789Z" fill="url(#paint22_linear_1_5157)"/>
<path d="M52.4136 69.8789H34.9399V87.3525H52.4136V69.8789Z" fill="url(#paint23_linear_1_5157)"/>
<path d="M34.9473 69.8789H17.4736V87.3525H34.9473V69.8789Z" fill="url(#paint24_linear_1_5157)"/>
<path opacity="0.7" d="M17.4736 69.8789H0V87.3525H17.4736V69.8789Z" fill="url(#paint25_linear_1_5157)"/>
<path opacity="0.7" d="M139.759 52.4141H122.286V69.8877H139.759V52.4141Z" fill="url(#paint26_linear_1_5157)"/>
<path d="M122.286 52.4141H104.82V69.8877H122.286V52.4141Z" fill="url(#paint27_linear_1_5157)"/>
<path d="M104.827 52.4141H87.3533V69.8877H104.827V52.4141Z" fill="url(#paint28_linear_1_5157)"/>
<path d="M87.3533 52.4141H69.8796V69.8877H87.3533V52.4141Z" fill="url(#paint29_linear_1_5157)"/>
<path d="M69.8872 52.4141H52.4136V69.8877H69.8872V52.4141Z" fill="url(#paint30_linear_1_5157)"/>
<path d="M52.4136 52.4141H34.9399V69.8877H52.4136V52.4141Z" fill="url(#paint31_linear_1_5157)"/>
<path d="M34.9473 52.4141H17.4736V69.8877H34.9473V52.4141Z" fill="url(#paint32_linear_1_5157)"/>
<path opacity="0.7" d="M17.4736 52.4141H0V69.8877H17.4736V52.4141Z" fill="url(#paint33_linear_1_5157)"/>
<path opacity="0.5" d="M139.759 34.9395H122.286V52.4131H139.759V34.9395Z" fill="url(#paint34_linear_1_5157)"/>
<path opacity="0.8" d="M122.286 34.9395H104.82V52.4131H122.286V34.9395Z" fill="url(#paint35_linear_1_5157)"/>
<path d="M104.827 34.9395H87.3533V52.4131H104.827V34.9395Z" fill="url(#paint36_linear_1_5157)"/>
<path d="M87.3533 34.9395H69.8796V52.4131H87.3533V34.9395Z" fill="url(#paint37_linear_1_5157)"/>
<path d="M69.8872 34.9395H52.4136V52.4131H69.8872V34.9395Z" fill="url(#paint38_linear_1_5157)"/>
<path d="M52.4136 34.9395H34.9399V52.4131H52.4136V34.9395Z" fill="url(#paint39_linear_1_5157)"/>
<path opacity="0.8" d="M34.9473 34.9395H17.4736V52.4131H34.9473V34.9395Z" fill="url(#paint40_linear_1_5157)"/>
<path opacity="0.5" d="M17.4736 34.9395H0V52.4131H17.4736V34.9395Z" fill="url(#paint41_linear_1_5157)"/>
<path opacity="0.7" d="M122.286 17.4727H104.82V34.9463H122.286V17.4727Z" fill="url(#paint42_linear_1_5157)"/>
<path opacity="0.8" d="M104.827 17.4727H87.3533V34.9463H104.827V17.4727Z" fill="url(#paint43_linear_1_5157)"/>
<path d="M87.3533 17.4727H69.8796V34.9463H87.3533V17.4727Z" fill="url(#paint44_linear_1_5157)"/>
<path d="M69.8872 17.4727H52.4136V34.9463H69.8872V17.4727Z" fill="url(#paint45_linear_1_5157)"/>
<path opacity="0.8" d="M52.4136 17.4727H34.9399V34.9463H52.4136V17.4727Z" fill="url(#paint46_linear_1_5157)"/>
<path opacity="0.7" d="M34.9473 17.4727H17.4736V34.9463H34.9473V17.4727Z" fill="url(#paint47_linear_1_5157)"/>
<path opacity="0.5" d="M104.827 0H87.3533V17.4736H104.827V0Z" fill="url(#paint48_linear_1_5157)"/>
<path opacity="0.7" d="M87.3533 0H69.8796V17.4736H87.3533V0Z" fill="url(#paint49_linear_1_5157)"/>
<path opacity="0.7" d="M69.8872 0H52.4136V17.4736H69.8872V0Z" fill="url(#paint50_linear_1_5157)"/>
<path opacity="0.5" d="M52.4136 0H34.9399V17.4736H52.4136V0Z" fill="url(#paint51_linear_1_5157)"/>
<path d="M45.9949 64.3346L50.8606 53.4423C52.6353 50.6471 52.3987 47.2307 50.4539 45.3081C50.1942 45.048 49.9065 44.8173 49.5961 44.6204C48.2474 43.7995 46.606 43.6129 45.1075 44.1102C43.4254 44.6377 41.9895 45.7533 41.0626 47.2529C41.0626 47.2529 34.4074 62.7817 31.9154 69.7919C29.4234 76.8021 30.4365 89.5948 39.983 99.1783C50.1137 109.309 64.8069 111.646 74.1612 104.606C74.5552 104.402 74.9249 104.154 75.263 103.867L104.102 79.7673C105.507 78.5916 107.585 76.2179 105.714 73.4966C103.843 70.7754 100.457 72.6463 99.0591 73.5484L82.4506 85.6239C82.2944 85.7559 82.0904 85.8173 81.8873 85.7935C81.6841 85.7697 81.4999 85.6628 81.3784 85.4982C80.8853 84.7388 80.9516 83.7452 81.5411 83.058L107.001 61.4507C109.219 59.4689 109.508 56.5924 107.74 54.618C105.973 52.6436 103.237 52.7398 101.026 54.7437L78.1026 72.6684C77.8846 72.8484 77.6017 72.9299 77.3214 72.8934C77.041 72.857 76.7884 72.7059 76.6236 72.4762C76.1121 71.9714 76.0611 71.1629 76.5053 70.5979L102.468 45.4043C104.513 43.4945 104.628 40.2911 102.727 38.2388C101.803 37.2836 100.528 36.749 99.1996 36.7599C97.8371 36.7539 96.5272 37.2853 95.554 38.2388L69.0589 63.1219C68.4229 63.7578 67.1806 63.1219 67.0327 62.3824C66.978 62.113 67.0644 61.8342 67.262 61.643L87.5678 38.5198C88.9273 37.2785 89.4959 35.3912 89.0483 33.6055C88.6007 31.8198 87.2091 30.4238 85.4248 29.9706C83.6405 29.5174 81.7514 30.0801 80.5058 31.4357L49.6996 65.4512C48.5978 66.553 46.971 66.6048 46.1945 65.9689C45.9489 65.7803 45.7894 65.501 45.7518 65.1936C45.7143 64.8863 45.8019 64.5767 45.9949 64.3346Z" fill="white"/>
<path d="M196.765 101.055H183.344V78.1318C183.344 72.8298 182.678 68.2303 177.088 68.2303C171.497 68.2303 169.752 73.1773 169.752 79.6329V101.018H156.442V40.0714H169.752L169.749 56.2411C169.733 60.1235 169.671 63.7639 169.671 63.7639C171.998 59.2707 176.704 56.519 181.761 56.6946C193.562 56.6946 196.703 64.5799 196.764 75.0266L196.765 101.055ZM249.556 82.6647L254.044 93.8085L253.719 94.1563C250.681 97.3477 244.618 102.113 233.287 102.113C216.361 102.113 203.11 90.2812 203.11 70.6484C203.11 51.0155 216.524 39.1914 233.28 39.1914C245.111 39.1914 251.537 44.4047 253.039 46.0832L248.868 57.9147C247.781 56.4358 241.614 51.5479 234.027 51.5479C224.273 51.5479 216.768 58.4398 216.768 70.3748C216.768 82.3098 224.606 89.1129 234.027 89.1129C241.2 89.1129 246.369 86.1106 249.556 82.6647ZM296.223 101.055H283.468L283.216 96.4632L282.62 97.0926C280.738 99.0475 277.439 102.031 271.459 102.031C264.204 102.031 256.536 97.8756 256.536 88.159C256.536 78.4423 264.959 75.1665 272.546 74.8485L282.898 74.4049V73.3918C282.898 68.7923 279.815 66.4112 274.476 66.4112C270.015 66.5716 265.677 67.9138 261.905 70.3008L258.4 61.1092C263.828 58.2552 269.859 56.7344 275.992 56.6724C283.66 56.6724 288.082 58.5285 291.328 61.7082C294.574 64.8879 296.246 69.1029 296.246 76.4975L296.223 101.055ZM282.965 81.8809L276.376 82.3246C272.294 82.502 269.876 84.3581 269.876 87.6265C269.876 90.895 272.464 93.0173 276.132 93.0173C278.944 92.9617 281.528 91.4572 282.965 89.0389V81.8809ZM330.986 102.046C324.9 102.046 320.567 99.6577 317.979 95.598V117.043H304.661V57.4858H317.335L317.232 63.054H317.402C320.404 59.2532 324.797 56.6872 331.075 56.6872C342.906 56.6872 350.419 66.4999 350.419 79.3149C350.419 92.1299 342.913 102.046 330.986 102.046ZM327.148 67.8458C321.476 67.8458 317.535 72.4379 317.535 79.1596C317.535 85.8814 321.454 90.4735 327.148 90.4735C332.842 90.4735 336.828 85.8518 336.828 79.1227C336.828 72.3935 332.908 67.8236 327.155 67.8236L327.148 67.8458ZM381.344 68.2673H372.256V83.907L372.259 84.4164C372.304 87.6893 372.79 88.5371 373.424 89.2977C374.089 90.0964 374.844 90.3552 376.589 90.3552C377.958 90.3226 379.312 90.0524 380.589 89.5565L381.255 100.604C378.171 101.529 374.972 102.015 371.753 102.046C366.998 102.046 363.833 100.567 361.748 97.9791C359.703 95.4417 358.86 91.9306 358.828 85.5504L358.827 68.2673H352.992V57.5746H358.827V45.7431H372.248V57.5746H381.344V68.2673ZM417.6 86.1032L420.757 96.8107L420.406 97.1424C419.14 98.3165 414.622 102.024 405.081 102.024C393.826 102.024 383.407 93.8898 383.407 79.3963C383.407 64.9027 393.996 56.6798 405.251 56.6798C415.758 56.6798 420.506 61.2719 420.506 61.2719L417.585 71.9646C414.628 69.454 410.875 68.0755 406.996 68.075C401.324 68.075 396.828 72.2308 396.828 79.1227C396.828 86.0145 400.91 90.3478 407.181 90.3478C411.056 90.257 414.764 88.7466 417.6 86.1032ZM466.708 101.055H453.294V78.1318C453.294 72.8298 452.628 68.2303 447.038 68.2303C441.522 68.2303 439.75 73.0463 439.703 79.3755L439.702 101.018H426.392V40.0714H439.702L439.699 56.2411C439.683 60.1235 439.621 63.7639 439.621 63.7639C441.948 59.2707 446.654 56.519 451.711 56.6946C463.632 56.6946 466.715 64.74 466.715 75.344L466.708 101.055ZM511.978 101.055H499.222L498.971 96.4632L498.374 97.0926C496.492 99.0475 493.193 102.031 487.213 102.031C479.959 102.031 472.291 97.8756 472.291 88.159C472.291 78.4423 480.713 75.1665 488.3 74.8485L498.653 74.4049V73.3918C498.653 68.7923 495.569 66.4112 490.23 66.4112C485.769 66.5716 481.431 67.9138 477.659 70.3008L474.154 61.1092C479.583 58.2552 485.613 56.7344 491.746 56.6724C499.414 56.6724 503.836 58.5285 507.083 61.7082C510.329 64.8879 512 69.1029 512 76.4975L511.978 101.055ZM498.719 81.8809L492.131 82.3246C488.049 82.502 485.631 84.3581 485.631 87.6265C485.631 90.895 488.219 93.0173 491.887 93.0173C494.699 92.9617 497.283 91.4572 498.719 89.0389V81.8809Z" fill="#4D4D4D"/>
</g>
<defs>
<linearGradient id="paint0_linear_1_5157" x1="960.665" y1="-12147.7" x2="960.665" y2="1834.15" gradientUnits="userSpaceOnUse">
<stop stop-color="#00D4BF"/>
<stop offset="1" stop-color="#0074BF"/>
</linearGradient>
<linearGradient id="paint1_linear_1_5157" x1="943.191" y1="-12147.7" x2="943.191" y2="1834.15" gradientUnits="userSpaceOnUse">
<stop stop-color="#00D4BF"/>
<stop offset="1" stop-color="#0074BF"/>
</linearGradient>
<linearGradient id="paint2_linear_1_5157" x1="925.725" y1="-12147.7" x2="925.725" y2="1834.15" gradientUnits="userSpaceOnUse">
<stop stop-color="#00D4BF"/>
<stop offset="1" stop-color="#0074BF"/>
</linearGradient>
<linearGradient id="paint3_linear_1_5157" x1="908.252" y1="-12147.7" x2="908.252" y2="1834.15" gradientUnits="userSpaceOnUse">
<stop stop-color="#00D4BF"/>
<stop offset="1" stop-color="#0074BF"/>
</linearGradient>
<linearGradient id="paint4_linear_1_5157" x1="978.131" y1="-10418.5" x2="978.131" y2="3563.31" gradientUnits="userSpaceOnUse">
<stop stop-color="#00D4BF"/>
<stop offset="1" stop-color="#0074BF"/>
</linearGradient>
<linearGradient id="paint5_linear_1_5157" x1="960.665" y1="-10418.5" x2="960.665" y2="3563.31" gradientUnits="userSpaceOnUse">
<stop stop-color="#00D4BF"/>
<stop offset="1" stop-color="#0074BF"/>
</linearGradient>
<linearGradient id="paint6_linear_1_5157" x1="943.191" y1="-10418.5" x2="943.191" y2="3563.31" gradientUnits="userSpaceOnUse">
<stop stop-color="#00D4BF"/>
<stop offset="1" stop-color="#0074BF"/>
</linearGradient>
<linearGradient id="paint7_linear_1_5157" x1="925.725" y1="-10418.5" x2="925.725" y2="3563.31" gradientUnits="userSpaceOnUse">
<stop stop-color="#00D4BF"/>
<stop offset="1" stop-color="#0074BF"/>
</linearGradient>
<linearGradient id="paint8_linear_1_5157" x1="908.252" y1="-10418.5" x2="908.252" y2="3563.31" gradientUnits="userSpaceOnUse">
<stop stop-color="#00D4BF"/>
<stop offset="1" stop-color="#0074BF"/>
</linearGradient>
<linearGradient id="paint9_linear_1_5157" x1="890.785" y1="-10418.5" x2="890.785" y2="3563.31" gradientUnits="userSpaceOnUse">
<stop stop-color="#00D4BF"/>
<stop offset="1" stop-color="#0074BF"/>
</linearGradient>
<linearGradient id="paint10_linear_1_5157" x1="996.336" y1="-8689.39" x2="996.336" y2="5292.47" gradientUnits="userSpaceOnUse">
<stop stop-color="#00D4BF"/>
<stop offset="1" stop-color="#0074BF"/>
</linearGradient>
<linearGradient id="paint11_linear_1_5157" x1="978.132" y1="-8689.39" x2="978.132" y2="5292.47" gradientUnits="userSpaceOnUse">
<stop stop-color="#00D4BF"/>
<stop offset="1" stop-color="#0074BF"/>
</linearGradient>
<linearGradient id="paint12_linear_1_5157" x1="960.665" y1="-8689.39" x2="960.665" y2="5292.47" gradientUnits="userSpaceOnUse">
<stop stop-color="#00D4BF"/>
<stop offset="1" stop-color="#0074BF"/>
</linearGradient>
<linearGradient id="paint13_linear_1_5157" x1="943.191" y1="-8689.39" x2="943.191" y2="5292.47" gradientUnits="userSpaceOnUse">
<stop stop-color="#00D4BF"/>
<stop offset="1" stop-color="#0074BF"/>
</linearGradient>
<linearGradient id="paint14_linear_1_5157" x1="925.725" y1="-8689.39" x2="925.725" y2="5292.47" gradientUnits="userSpaceOnUse">
<stop stop-color="#00D4BF"/>
<stop offset="1" stop-color="#0074BF"/>
</linearGradient>
<linearGradient id="paint15_linear_1_5157" x1="908.251" y1="-8689.39" x2="908.251" y2="5292.47" gradientUnits="userSpaceOnUse">
<stop stop-color="#00D4BF"/>
<stop offset="1" stop-color="#0074BF"/>
</linearGradient>
<linearGradient id="paint16_linear_1_5157" x1="890.785" y1="-8689.39" x2="890.785" y2="5292.47" gradientUnits="userSpaceOnUse">
<stop stop-color="#00D4BF"/>
<stop offset="1" stop-color="#0074BF"/>
</linearGradient>
<linearGradient id="paint17_linear_1_5157" x1="873.311" y1="-8689.39" x2="873.311" y2="5292.47" gradientUnits="userSpaceOnUse">
<stop stop-color="#00D4BF"/>
<stop offset="1" stop-color="#0074BF"/>
</linearGradient>
<linearGradient id="paint18_linear_1_5157" x1="996.336" y1="-6959.5" x2="996.336" y2="7022.35" gradientUnits="userSpaceOnUse">
<stop stop-color="#00D4BF"/>
<stop offset="1" stop-color="#0074BF"/>
</linearGradient>
<linearGradient id="paint19_linear_1_5157" x1="978.131" y1="-6959.5" x2="978.131" y2="7022.35" gradientUnits="userSpaceOnUse">
<stop stop-color="#00D4BF"/>
<stop offset="1" stop-color="#0074BF"/>
</linearGradient>
<linearGradient id="paint20_linear_1_5157" x1="960.665" y1="-6959.5" x2="960.665" y2="7022.35" gradientUnits="userSpaceOnUse">
<stop stop-color="#00D4BF"/>
<stop offset="1" stop-color="#0074BF"/>
</linearGradient>
<linearGradient id="paint21_linear_1_5157" x1="943.191" y1="-6959.5" x2="943.191" y2="7022.35" gradientUnits="userSpaceOnUse">
<stop stop-color="#00D4BF"/>
<stop offset="1" stop-color="#0074BF"/>
</linearGradient>
<linearGradient id="paint22_linear_1_5157" x1="925.725" y1="-6959.5" x2="925.725" y2="7022.35" gradientUnits="userSpaceOnUse">
<stop stop-color="#00D4BF"/>
<stop offset="1" stop-color="#0074BF"/>
</linearGradient>
<linearGradient id="paint23_linear_1_5157" x1="908.252" y1="-6959.5" x2="908.252" y2="7022.35" gradientUnits="userSpaceOnUse">
<stop stop-color="#00D4BF"/>
<stop offset="1" stop-color="#0074BF"/>
</linearGradient>
<linearGradient id="paint24_linear_1_5157" x1="890.785" y1="-6959.5" x2="890.785" y2="7022.35" gradientUnits="userSpaceOnUse">
<stop stop-color="#00D4BF"/>
<stop offset="1" stop-color="#0074BF"/>
</linearGradient>
<linearGradient id="paint25_linear_1_5157" x1="873.312" y1="-6959.5" x2="873.312" y2="7022.35" gradientUnits="userSpaceOnUse">
<stop stop-color="#00D4BF"/>
<stop offset="1" stop-color="#0074BF"/>
</linearGradient>
<linearGradient id="paint26_linear_1_5157" x1="996.336" y1="-5230.34" x2="996.336" y2="8751.51" gradientUnits="userSpaceOnUse">
<stop stop-color="#00D4BF"/>
<stop offset="1" stop-color="#0074BF"/>
</linearGradient>
<linearGradient id="paint27_linear_1_5157" x1="978.131" y1="-5230.34" x2="978.131" y2="8751.51" gradientUnits="userSpaceOnUse">
<stop stop-color="#00D4BF"/>
<stop offset="1" stop-color="#0074BF"/>
</linearGradient>
<linearGradient id="paint28_linear_1_5157" x1="960.665" y1="-5230.34" x2="960.665" y2="8751.51" gradientUnits="userSpaceOnUse">
<stop stop-color="#00D4BF"/>
<stop offset="1" stop-color="#0074BF"/>
</linearGradient>
<linearGradient id="paint29_linear_1_5157" x1="943.191" y1="-5230.34" x2="943.191" y2="8751.51" gradientUnits="userSpaceOnUse">
<stop stop-color="#00D4BF"/>
<stop offset="1" stop-color="#0074BF"/>
</linearGradient>
<linearGradient id="paint30_linear_1_5157" x1="925.725" y1="-5230.34" x2="925.725" y2="8751.51" gradientUnits="userSpaceOnUse">
<stop stop-color="#00D4BF"/>
<stop offset="1" stop-color="#0074BF"/>
</linearGradient>
<linearGradient id="paint31_linear_1_5157" x1="908.252" y1="-5230.34" x2="908.252" y2="8751.51" gradientUnits="userSpaceOnUse">
<stop stop-color="#00D4BF"/>
<stop offset="1" stop-color="#0074BF"/>
</linearGradient>
<linearGradient id="paint32_linear_1_5157" x1="890.785" y1="-5230.34" x2="890.785" y2="8751.51" gradientUnits="userSpaceOnUse">
<stop stop-color="#00D4BF"/>
<stop offset="1" stop-color="#0074BF"/>
</linearGradient>
<linearGradient id="paint33_linear_1_5157" x1="873.312" y1="-5230.34" x2="873.312" y2="8751.51" gradientUnits="userSpaceOnUse">
<stop stop-color="#00D4BF"/>
<stop offset="1" stop-color="#0074BF"/>
</linearGradient>
<linearGradient id="paint34_linear_1_5157" x1="996.336" y1="-3500.46" x2="996.336" y2="10481.4" gradientUnits="userSpaceOnUse">
<stop stop-color="#00D4BF"/>
<stop offset="1" stop-color="#0074BF"/>
</linearGradient>
<linearGradient id="paint35_linear_1_5157" x1="978.131" y1="-3500.46" x2="978.131" y2="10481.4" gradientUnits="userSpaceOnUse">
<stop stop-color="#00D4BF"/>
<stop offset="1" stop-color="#0074BF"/>
</linearGradient>
<linearGradient id="paint36_linear_1_5157" x1="960.665" y1="-3500.46" x2="960.665" y2="10481.4" gradientUnits="userSpaceOnUse">
<stop stop-color="#00D4BF"/>
<stop offset="1" stop-color="#0074BF"/>
</linearGradient>
<linearGradient id="paint37_linear_1_5157" x1="943.191" y1="-3500.46" x2="943.191" y2="10481.4" gradientUnits="userSpaceOnUse">
<stop stop-color="#00D4BF"/>
<stop offset="1" stop-color="#0074BF"/>
</linearGradient>
<linearGradient id="paint38_linear_1_5157" x1="925.725" y1="-3500.46" x2="925.725" y2="10481.4" gradientUnits="userSpaceOnUse">
<stop stop-color="#00D4BF"/>
<stop offset="1" stop-color="#0074BF"/>
</linearGradient>
<linearGradient id="paint39_linear_1_5157" x1="908.252" y1="-3500.46" x2="908.252" y2="10481.4" gradientUnits="userSpaceOnUse">
<stop stop-color="#00D4BF"/>
<stop offset="1" stop-color="#0074BF"/>
</linearGradient>
<linearGradient id="paint40_linear_1_5157" x1="890.785" y1="-3500.46" x2="890.785" y2="10481.4" gradientUnits="userSpaceOnUse">
<stop stop-color="#00D4BF"/>
<stop offset="1" stop-color="#0074BF"/>
</linearGradient>
<linearGradient id="paint41_linear_1_5157" x1="873.312" y1="-3500.46" x2="873.312" y2="10481.4" gradientUnits="userSpaceOnUse">
<stop stop-color="#00D4BF"/>
<stop offset="1" stop-color="#0074BF"/>
</linearGradient>
<linearGradient id="paint42_linear_1_5157" x1="978.131" y1="-1771.3" x2="978.131" y2="12210.6" gradientUnits="userSpaceOnUse">
<stop stop-color="#00D4BF"/>
<stop offset="1" stop-color="#0074BF"/>
</linearGradient>
<linearGradient id="paint43_linear_1_5157" x1="960.665" y1="-1771.3" x2="960.665" y2="12210.6" gradientUnits="userSpaceOnUse">
<stop stop-color="#00D4BF"/>
<stop offset="1" stop-color="#0074BF"/>
</linearGradient>
<linearGradient id="paint44_linear_1_5157" x1="943.191" y1="-1771.3" x2="943.191" y2="12210.6" gradientUnits="userSpaceOnUse">
<stop stop-color="#00D4BF"/>
<stop offset="1" stop-color="#0074BF"/>
</linearGradient>
<linearGradient id="paint45_linear_1_5157" x1="925.725" y1="-1771.3" x2="925.725" y2="12210.6" gradientUnits="userSpaceOnUse">
<stop stop-color="#00D4BF"/>
<stop offset="1" stop-color="#0074BF"/>
</linearGradient>
<linearGradient id="paint46_linear_1_5157" x1="908.252" y1="-1771.3" x2="908.252" y2="12210.6" gradientUnits="userSpaceOnUse">
<stop stop-color="#00D4BF"/>
<stop offset="1" stop-color="#0074BF"/>
</linearGradient>
<linearGradient id="paint47_linear_1_5157" x1="890.785" y1="-1771.3" x2="890.785" y2="12210.6" gradientUnits="userSpaceOnUse">
<stop stop-color="#00D4BF"/>
<stop offset="1" stop-color="#0074BF"/>
</linearGradient>
<linearGradient id="paint48_linear_1_5157" x1="960.665" y1="-41.4102" x2="960.665" y2="13940.4" gradientUnits="userSpaceOnUse">
<stop stop-color="#00D4BF"/>
<stop offset="1" stop-color="#0074BF"/>
</linearGradient>
<linearGradient id="paint49_linear_1_5157" x1="943.191" y1="-41.4102" x2="943.191" y2="13940.4" gradientUnits="userSpaceOnUse">
<stop stop-color="#00D4BF"/>
<stop offset="1" stop-color="#0074BF"/>
</linearGradient>
<linearGradient id="paint50_linear_1_5157" x1="925.725" y1="-41.4102" x2="925.725" y2="13940.4" gradientUnits="userSpaceOnUse">
<stop stop-color="#00D4BF"/>
<stop offset="1" stop-color="#0074BF"/>
</linearGradient>
<linearGradient id="paint51_linear_1_5157" x1="908.252" y1="-41.4102" x2="908.252" y2="13940.4" gradientUnits="userSpaceOnUse">
<stop stop-color="#00D4BF"/>
<stop offset="1" stop-color="#0074BF"/>
</linearGradient>
<clipPath id="clip0_1_5157">
<rect width="512" height="140" fill="white"/>
</clipPath>
</defs>
</svg>
