<svg width="256" height="256" viewBox="0 0 256 256" fill="none" xmlns="http://www.w3.org/2000/svg">
<g clip-path="url(#clip0_1_5102)">
<path opacity="0.5" d="M192.014 223.994H160.007V256.001H192.014V223.994Z" fill="url(#paint0_linear_1_5102)"/>
<path opacity="0.7" d="M160.007 223.994H128V256.001H160.007V223.994Z" fill="url(#paint1_linear_1_5102)"/>
<path opacity="0.7" d="M128.014 223.994H96.0068V256.001H128.014V223.994Z" fill="url(#paint2_linear_1_5102)"/>
<path opacity="0.5" d="M96.0068 223.994H64V256.001H96.0068V223.994Z" fill="url(#paint3_linear_1_5102)"/>
<path opacity="0.7" d="M223.993 192H192V224.007H223.993V192Z" fill="url(#paint4_linear_1_5102)"/>
<path opacity="0.8" d="M192.014 192H160.007V224.007H192.014V192Z" fill="url(#paint5_linear_1_5102)"/>
<path d="M160.007 192H128V224.007H160.007V192Z" fill="url(#paint6_linear_1_5102)"/>
<path d="M128.014 192H96.0068V224.007H128.014V192Z" fill="url(#paint7_linear_1_5102)"/>
<path opacity="0.8" d="M96.0068 192H64V224.007H96.0068V192Z" fill="url(#paint8_linear_1_5102)"/>
<path opacity="0.7" d="M64.0135 192H32.0067V224.007H64.0135V192Z" fill="url(#paint9_linear_1_5102)"/>
<path opacity="0.5" d="M256 160.006H223.993V191.999H256V160.006Z" fill="url(#paint10_linear_1_5102)"/>
<path opacity="0.8" d="M223.993 160.006H192V191.999H223.993V160.006Z" fill="url(#paint11_linear_1_5102)"/>
<path d="M192.014 160.006H160.007V191.999H192.014V160.006Z" fill="url(#paint12_linear_1_5102)"/>
<path d="M160.007 160.006H128V191.999H160.007V160.006Z" fill="url(#paint13_linear_1_5102)"/>
<path d="M128.014 160.006H96.0068V191.999H128.014V160.006Z" fill="url(#paint14_linear_1_5102)"/>
<path d="M96.0068 160.006H64V191.999H96.0068V160.006Z" fill="url(#paint15_linear_1_5102)"/>
<path opacity="0.8" d="M64.0135 160.006H32.0067V191.999H64.0135V160.006Z" fill="url(#paint16_linear_1_5102)"/>
<path opacity="0.5" d="M32.0068 160.006H0V191.999H32.0068V160.006Z" fill="url(#paint17_linear_1_5102)"/>
<path opacity="0.7" d="M256 128H223.993V160.007H256V128Z" fill="url(#paint18_linear_1_5102)"/>
<path d="M223.993 128H192V160.007H223.993V128Z" fill="url(#paint19_linear_1_5102)"/>
<path d="M192.014 128H160.007V160.007H192.014V128Z" fill="url(#paint20_linear_1_5102)"/>
<path d="M160.007 128H128V160.007H160.007V128Z" fill="url(#paint21_linear_1_5102)"/>
<path d="M128.014 128H96.0068V160.007H128.014V128Z" fill="url(#paint22_linear_1_5102)"/>
<path d="M96.0068 128H64V160.007H96.0068V128Z" fill="url(#paint23_linear_1_5102)"/>
<path d="M64.0135 128H32.0067V160.007H64.0135V128Z" fill="url(#paint24_linear_1_5102)"/>
<path opacity="0.7" d="M32.0068 128H0V160.007H32.0068V128Z" fill="url(#paint25_linear_1_5102)"/>
<path opacity="0.7" d="M256 96.0059H223.993V128.013H256V96.0059Z" fill="url(#paint26_linear_1_5102)"/>
<path d="M223.993 96.0059H192V128.013H223.993V96.0059Z" fill="url(#paint27_linear_1_5102)"/>
<path d="M192.014 96.0059H160.007V128.013H192.014V96.0059Z" fill="url(#paint28_linear_1_5102)"/>
<path d="M160.007 96.0059H128V128.013H160.007V96.0059Z" fill="url(#paint29_linear_1_5102)"/>
<path d="M128.014 96.0059H96.0068V128.013H128.014V96.0059Z" fill="url(#paint30_linear_1_5102)"/>
<path d="M96.0068 96.0059H64V128.013H96.0068V96.0059Z" fill="url(#paint31_linear_1_5102)"/>
<path d="M64.0135 96.0059H32.0067V128.013H64.0135V96.0059Z" fill="url(#paint32_linear_1_5102)"/>
<path opacity="0.7" d="M32.0068 96.0059H0V128.013H32.0068V96.0059Z" fill="url(#paint33_linear_1_5102)"/>
<path opacity="0.5" d="M256 64H223.993V96.0068H256V64Z" fill="url(#paint34_linear_1_5102)"/>
<path opacity="0.8" d="M223.993 64H192V96.0068H223.993V64Z" fill="url(#paint35_linear_1_5102)"/>
<path d="M192.014 64H160.007V96.0068H192.014V64Z" fill="url(#paint36_linear_1_5102)"/>
<path d="M160.007 64H128V96.0068H160.007V64Z" fill="url(#paint37_linear_1_5102)"/>
<path d="M128.014 64H96.0068V96.0068H128.014V64Z" fill="url(#paint38_linear_1_5102)"/>
<path d="M96.0068 64H64V96.0068H96.0068V64Z" fill="url(#paint39_linear_1_5102)"/>
<path opacity="0.8" d="M64.0135 64H32.0067V96.0068H64.0135V64Z" fill="url(#paint40_linear_1_5102)"/>
<path opacity="0.5" d="M32.0068 64H0V96.0068H32.0068V64Z" fill="url(#paint41_linear_1_5102)"/>
<path opacity="0.7" d="M223.993 32.0059H192V64.0126H223.993V32.0059Z" fill="url(#paint42_linear_1_5102)"/>
<path opacity="0.8" d="M192.014 32.0059H160.007V64.0126H192.014V32.0059Z" fill="url(#paint43_linear_1_5102)"/>
<path d="M160.007 32.0059H128V64.0126H160.007V32.0059Z" fill="url(#paint44_linear_1_5102)"/>
<path d="M128.014 32.0059H96.0068V64.0126H128.014V32.0059Z" fill="url(#paint45_linear_1_5102)"/>
<path opacity="0.8" d="M96.0068 32.0059H64V64.0126H96.0068V32.0059Z" fill="url(#paint46_linear_1_5102)"/>
<path opacity="0.7" d="M64.0135 32.0059H32.0067V64.0126H64.0135V32.0059Z" fill="url(#paint47_linear_1_5102)"/>
<path opacity="0.5" d="M192.014 0H160.007V32.0068H192.014V0Z" fill="url(#paint48_linear_1_5102)"/>
<path opacity="0.7" d="M160.007 0H128V32.0068H160.007V0Z" fill="url(#paint49_linear_1_5102)"/>
<path opacity="0.7" d="M128.014 0H96.0068V32.0068H128.014V0Z" fill="url(#paint50_linear_1_5102)"/>
<path opacity="0.5" d="M96.0068 0H64V32.0068H96.0068V0Z" fill="url(#paint51_linear_1_5102)"/>
<path d="M84.2498 117.841L93.1624 97.8892C96.4132 92.7692 95.9797 86.5115 92.4174 82.9898C91.9417 82.5132 91.4148 82.0908 90.8462 81.7301C88.3758 80.2263 85.3692 79.8846 82.6244 80.7955C79.5432 81.7617 76.913 83.8053 75.2153 86.5521C75.2153 86.5521 63.0248 114.997 58.4601 127.837C53.8955 140.678 55.7511 164.111 73.2377 181.665C91.7943 200.222 118.708 204.502 135.843 191.607C136.564 191.233 137.241 190.779 137.861 190.252L190.686 146.109C193.26 143.956 197.066 139.608 193.639 134.623C190.212 129.639 184.008 133.066 181.449 134.718L151.026 156.837C150.74 157.079 150.367 157.191 149.995 157.148C149.622 157.104 149.285 156.908 149.062 156.607C148.159 155.216 148.281 153.396 149.36 152.137L195.996 112.558C200.059 108.928 200.588 103.659 197.35 100.043C194.113 96.4264 189.101 96.6025 185.051 100.273L143.062 133.106C142.663 133.436 142.145 133.585 141.631 133.518C141.118 133.452 140.655 133.175 140.353 132.754C139.416 131.829 139.323 130.348 140.136 129.314L187.693 83.1659C191.438 79.6678 191.65 73.7999 188.167 70.0408C186.475 68.291 184.14 67.3118 181.706 67.3318C179.21 67.3207 176.811 68.2941 175.028 70.0408L126.497 115.62C125.332 116.784 123.056 115.62 122.785 114.265C122.685 113.772 122.843 113.261 123.205 112.911L160.4 70.5555C162.89 68.2818 163.931 64.8248 163.111 61.5539C162.292 58.2829 159.743 55.7259 156.474 54.8958C153.206 54.0656 149.746 55.0962 147.464 57.5794L91.0358 119.886C89.0176 121.904 86.0377 121.999 84.6155 120.834C84.1656 120.489 83.8733 119.977 83.8046 119.414C83.7358 118.851 83.8962 118.284 84.2498 117.841Z" fill="white"/>
</g>
<defs>
<linearGradient id="paint0_linear_1_5102" x1="1759.67" y1="-22251.2" x2="1759.67" y2="3359.66" gradientUnits="userSpaceOnUse">
<stop stop-color="#00D4BF"/>
<stop offset="1" stop-color="#0074BF"/>
</linearGradient>
<linearGradient id="paint1_linear_1_5102" x1="1727.66" y1="-22251.2" x2="1727.66" y2="3359.66" gradientUnits="userSpaceOnUse">
<stop stop-color="#00D4BF"/>
<stop offset="1" stop-color="#0074BF"/>
</linearGradient>
<linearGradient id="paint2_linear_1_5102" x1="1695.67" y1="-22251.2" x2="1695.67" y2="3359.66" gradientUnits="userSpaceOnUse">
<stop stop-color="#00D4BF"/>
<stop offset="1" stop-color="#0074BF"/>
</linearGradient>
<linearGradient id="paint3_linear_1_5102" x1="1663.66" y1="-22251.2" x2="1663.66" y2="3359.66" gradientUnits="userSpaceOnUse">
<stop stop-color="#00D4BF"/>
<stop offset="1" stop-color="#0074BF"/>
</linearGradient>
<linearGradient id="paint4_linear_1_5102" x1="1791.66" y1="-19083.9" x2="1791.66" y2="6526.99" gradientUnits="userSpaceOnUse">
<stop stop-color="#00D4BF"/>
<stop offset="1" stop-color="#0074BF"/>
</linearGradient>
<linearGradient id="paint5_linear_1_5102" x1="1759.67" y1="-19083.9" x2="1759.67" y2="6526.99" gradientUnits="userSpaceOnUse">
<stop stop-color="#00D4BF"/>
<stop offset="1" stop-color="#0074BF"/>
</linearGradient>
<linearGradient id="paint6_linear_1_5102" x1="1727.66" y1="-19083.9" x2="1727.66" y2="6526.99" gradientUnits="userSpaceOnUse">
<stop stop-color="#00D4BF"/>
<stop offset="1" stop-color="#0074BF"/>
</linearGradient>
<linearGradient id="paint7_linear_1_5102" x1="1695.67" y1="-19083.9" x2="1695.67" y2="6526.99" gradientUnits="userSpaceOnUse">
<stop stop-color="#00D4BF"/>
<stop offset="1" stop-color="#0074BF"/>
</linearGradient>
<linearGradient id="paint8_linear_1_5102" x1="1663.66" y1="-19083.9" x2="1663.66" y2="6526.99" gradientUnits="userSpaceOnUse">
<stop stop-color="#00D4BF"/>
<stop offset="1" stop-color="#0074BF"/>
</linearGradient>
<linearGradient id="paint9_linear_1_5102" x1="1631.67" y1="-19083.9" x2="1631.67" y2="6526.99" gradientUnits="userSpaceOnUse">
<stop stop-color="#00D4BF"/>
<stop offset="1" stop-color="#0074BF"/>
</linearGradient>
<linearGradient id="paint10_linear_1_5102" x1="1825.01" y1="-15916.5" x2="1825.01" y2="9694.31" gradientUnits="userSpaceOnUse">
<stop stop-color="#00D4BF"/>
<stop offset="1" stop-color="#0074BF"/>
</linearGradient>
<linearGradient id="paint11_linear_1_5102" x1="1791.66" y1="-15916.5" x2="1791.66" y2="9694.31" gradientUnits="userSpaceOnUse">
<stop stop-color="#00D4BF"/>
<stop offset="1" stop-color="#0074BF"/>
</linearGradient>
<linearGradient id="paint12_linear_1_5102" x1="1759.67" y1="-15916.5" x2="1759.67" y2="9694.31" gradientUnits="userSpaceOnUse">
<stop stop-color="#00D4BF"/>
<stop offset="1" stop-color="#0074BF"/>
</linearGradient>
<linearGradient id="paint13_linear_1_5102" x1="1727.66" y1="-15916.5" x2="1727.66" y2="9694.31" gradientUnits="userSpaceOnUse">
<stop stop-color="#00D4BF"/>
<stop offset="1" stop-color="#0074BF"/>
</linearGradient>
<linearGradient id="paint14_linear_1_5102" x1="1695.67" y1="-15916.5" x2="1695.67" y2="9694.31" gradientUnits="userSpaceOnUse">
<stop stop-color="#00D4BF"/>
<stop offset="1" stop-color="#0074BF"/>
</linearGradient>
<linearGradient id="paint15_linear_1_5102" x1="1663.66" y1="-15916.5" x2="1663.66" y2="9694.31" gradientUnits="userSpaceOnUse">
<stop stop-color="#00D4BF"/>
<stop offset="1" stop-color="#0074BF"/>
</linearGradient>
<linearGradient id="paint16_linear_1_5102" x1="1631.67" y1="-15916.5" x2="1631.67" y2="9694.31" gradientUnits="userSpaceOnUse">
<stop stop-color="#00D4BF"/>
<stop offset="1" stop-color="#0074BF"/>
</linearGradient>
<linearGradient id="paint17_linear_1_5102" x1="1599.66" y1="-15916.5" x2="1599.66" y2="9694.31" gradientUnits="userSpaceOnUse">
<stop stop-color="#00D4BF"/>
<stop offset="1" stop-color="#0074BF"/>
</linearGradient>
<linearGradient id="paint18_linear_1_5102" x1="1825.01" y1="-12747.9" x2="1825.01" y2="12863" gradientUnits="userSpaceOnUse">
<stop stop-color="#00D4BF"/>
<stop offset="1" stop-color="#0074BF"/>
</linearGradient>
<linearGradient id="paint19_linear_1_5102" x1="1791.66" y1="-12747.9" x2="1791.66" y2="12863" gradientUnits="userSpaceOnUse">
<stop stop-color="#00D4BF"/>
<stop offset="1" stop-color="#0074BF"/>
</linearGradient>
<linearGradient id="paint20_linear_1_5102" x1="1759.67" y1="-12747.9" x2="1759.67" y2="12863" gradientUnits="userSpaceOnUse">
<stop stop-color="#00D4BF"/>
<stop offset="1" stop-color="#0074BF"/>
</linearGradient>
<linearGradient id="paint21_linear_1_5102" x1="1727.66" y1="-12747.9" x2="1727.66" y2="12863" gradientUnits="userSpaceOnUse">
<stop stop-color="#00D4BF"/>
<stop offset="1" stop-color="#0074BF"/>
</linearGradient>
<linearGradient id="paint22_linear_1_5102" x1="1695.67" y1="-12747.9" x2="1695.67" y2="12863" gradientUnits="userSpaceOnUse">
<stop stop-color="#00D4BF"/>
<stop offset="1" stop-color="#0074BF"/>
</linearGradient>
<linearGradient id="paint23_linear_1_5102" x1="1663.66" y1="-12747.9" x2="1663.66" y2="12863" gradientUnits="userSpaceOnUse">
<stop stop-color="#00D4BF"/>
<stop offset="1" stop-color="#0074BF"/>
</linearGradient>
<linearGradient id="paint24_linear_1_5102" x1="1631.67" y1="-12747.9" x2="1631.67" y2="12863" gradientUnits="userSpaceOnUse">
<stop stop-color="#00D4BF"/>
<stop offset="1" stop-color="#0074BF"/>
</linearGradient>
<linearGradient id="paint25_linear_1_5102" x1="1599.66" y1="-12747.9" x2="1599.66" y2="12863" gradientUnits="userSpaceOnUse">
<stop stop-color="#00D4BF"/>
<stop offset="1" stop-color="#0074BF"/>
</linearGradient>
<linearGradient id="paint26_linear_1_5102" x1="1825.01" y1="-9580.52" x2="1825.01" y2="16030.3" gradientUnits="userSpaceOnUse">
<stop stop-color="#00D4BF"/>
<stop offset="1" stop-color="#0074BF"/>
</linearGradient>
<linearGradient id="paint27_linear_1_5102" x1="1791.66" y1="-9580.52" x2="1791.66" y2="16030.3" gradientUnits="userSpaceOnUse">
<stop stop-color="#00D4BF"/>
<stop offset="1" stop-color="#0074BF"/>
</linearGradient>
<linearGradient id="paint28_linear_1_5102" x1="1759.67" y1="-9580.52" x2="1759.67" y2="16030.3" gradientUnits="userSpaceOnUse">
<stop stop-color="#00D4BF"/>
<stop offset="1" stop-color="#0074BF"/>
</linearGradient>
<linearGradient id="paint29_linear_1_5102" x1="1727.66" y1="-9580.52" x2="1727.66" y2="16030.3" gradientUnits="userSpaceOnUse">
<stop stop-color="#00D4BF"/>
<stop offset="1" stop-color="#0074BF"/>
</linearGradient>
<linearGradient id="paint30_linear_1_5102" x1="1695.67" y1="-9580.52" x2="1695.67" y2="16030.3" gradientUnits="userSpaceOnUse">
<stop stop-color="#00D4BF"/>
<stop offset="1" stop-color="#0074BF"/>
</linearGradient>
<linearGradient id="paint31_linear_1_5102" x1="1663.66" y1="-9580.52" x2="1663.66" y2="16030.3" gradientUnits="userSpaceOnUse">
<stop stop-color="#00D4BF"/>
<stop offset="1" stop-color="#0074BF"/>
</linearGradient>
<linearGradient id="paint32_linear_1_5102" x1="1631.67" y1="-9580.52" x2="1631.67" y2="16030.3" gradientUnits="userSpaceOnUse">
<stop stop-color="#00D4BF"/>
<stop offset="1" stop-color="#0074BF"/>
</linearGradient>
<linearGradient id="paint33_linear_1_5102" x1="1599.66" y1="-9580.52" x2="1599.66" y2="16030.3" gradientUnits="userSpaceOnUse">
<stop stop-color="#00D4BF"/>
<stop offset="1" stop-color="#0074BF"/>
</linearGradient>
<linearGradient id="paint34_linear_1_5102" x1="1825.01" y1="-6411.85" x2="1825.01" y2="19199" gradientUnits="userSpaceOnUse">
<stop stop-color="#00D4BF"/>
<stop offset="1" stop-color="#0074BF"/>
</linearGradient>
<linearGradient id="paint35_linear_1_5102" x1="1791.66" y1="-6411.85" x2="1791.66" y2="19199" gradientUnits="userSpaceOnUse">
<stop stop-color="#00D4BF"/>
<stop offset="1" stop-color="#0074BF"/>
</linearGradient>
<linearGradient id="paint36_linear_1_5102" x1="1759.67" y1="-6411.85" x2="1759.67" y2="19199" gradientUnits="userSpaceOnUse">
<stop stop-color="#00D4BF"/>
<stop offset="1" stop-color="#0074BF"/>
</linearGradient>
<linearGradient id="paint37_linear_1_5102" x1="1727.66" y1="-6411.85" x2="1727.66" y2="19199" gradientUnits="userSpaceOnUse">
<stop stop-color="#00D4BF"/>
<stop offset="1" stop-color="#0074BF"/>
</linearGradient>
<linearGradient id="paint38_linear_1_5102" x1="1695.67" y1="-6411.85" x2="1695.67" y2="19199" gradientUnits="userSpaceOnUse">
<stop stop-color="#00D4BF"/>
<stop offset="1" stop-color="#0074BF"/>
</linearGradient>
<linearGradient id="paint39_linear_1_5102" x1="1663.66" y1="-6411.85" x2="1663.66" y2="19199" gradientUnits="userSpaceOnUse">
<stop stop-color="#00D4BF"/>
<stop offset="1" stop-color="#0074BF"/>
</linearGradient>
<linearGradient id="paint40_linear_1_5102" x1="1631.67" y1="-6411.85" x2="1631.67" y2="19199" gradientUnits="userSpaceOnUse">
<stop stop-color="#00D4BF"/>
<stop offset="1" stop-color="#0074BF"/>
</linearGradient>
<linearGradient id="paint41_linear_1_5102" x1="1599.66" y1="-6411.85" x2="1599.66" y2="19199" gradientUnits="userSpaceOnUse">
<stop stop-color="#00D4BF"/>
<stop offset="1" stop-color="#0074BF"/>
</linearGradient>
<linearGradient id="paint42_linear_1_5102" x1="1791.66" y1="-3244.52" x2="1791.66" y2="22366.3" gradientUnits="userSpaceOnUse">
<stop stop-color="#00D4BF"/>
<stop offset="1" stop-color="#0074BF"/>
</linearGradient>
<linearGradient id="paint43_linear_1_5102" x1="1759.67" y1="-3244.52" x2="1759.67" y2="22366.3" gradientUnits="userSpaceOnUse">
<stop stop-color="#00D4BF"/>
<stop offset="1" stop-color="#0074BF"/>
</linearGradient>
<linearGradient id="paint44_linear_1_5102" x1="1727.66" y1="-3244.52" x2="1727.66" y2="22366.3" gradientUnits="userSpaceOnUse">
<stop stop-color="#00D4BF"/>
<stop offset="1" stop-color="#0074BF"/>
</linearGradient>
<linearGradient id="paint45_linear_1_5102" x1="1695.67" y1="-3244.52" x2="1695.67" y2="22366.3" gradientUnits="userSpaceOnUse">
<stop stop-color="#00D4BF"/>
<stop offset="1" stop-color="#0074BF"/>
</linearGradient>
<linearGradient id="paint46_linear_1_5102" x1="1663.66" y1="-3244.52" x2="1663.66" y2="22366.3" gradientUnits="userSpaceOnUse">
<stop stop-color="#00D4BF"/>
<stop offset="1" stop-color="#0074BF"/>
</linearGradient>
<linearGradient id="paint47_linear_1_5102" x1="1631.67" y1="-3244.52" x2="1631.67" y2="22366.3" gradientUnits="userSpaceOnUse">
<stop stop-color="#00D4BF"/>
<stop offset="1" stop-color="#0074BF"/>
</linearGradient>
<linearGradient id="paint48_linear_1_5102" x1="1759.67" y1="-75.8518" x2="1759.67" y2="25535" gradientUnits="userSpaceOnUse">
<stop stop-color="#00D4BF"/>
<stop offset="1" stop-color="#0074BF"/>
</linearGradient>
<linearGradient id="paint49_linear_1_5102" x1="1727.66" y1="-75.8518" x2="1727.66" y2="25535" gradientUnits="userSpaceOnUse">
<stop stop-color="#00D4BF"/>
<stop offset="1" stop-color="#0074BF"/>
</linearGradient>
<linearGradient id="paint50_linear_1_5102" x1="1695.67" y1="-75.8518" x2="1695.67" y2="25535" gradientUnits="userSpaceOnUse">
<stop stop-color="#00D4BF"/>
<stop offset="1" stop-color="#0074BF"/>
</linearGradient>
<linearGradient id="paint51_linear_1_5102" x1="1663.66" y1="-75.8518" x2="1663.66" y2="25535" gradientUnits="userSpaceOnUse">
<stop stop-color="#00D4BF"/>
<stop offset="1" stop-color="#0074BF"/>
</linearGradient>
<clipPath id="clip0_1_5102">
<rect width="256" height="256" fill="white"/>
</clipPath>
</defs>
</svg>
