<svg width="512" height="90" viewBox="0 0 512 90" fill="none" xmlns="http://www.w3.org/2000/svg">
<g clip-path="url(#clip0_1_5218)">
<path d="M138.845 29.1291C133.29 29.1291 128.88 31.1719 126.186 35.4196V13.8508H117.365V71.0383H126.186V49.1449C126.186 40.8118 130.758 37.3811 136.556 37.3811C142.11 37.3811 145.706 40.6467 145.706 46.8559V71.0383H154.523V45.9577C154.523 35.3384 147.992 29.1291 138.845 29.1291ZM181.255 29.1291C193.424 29.1291 201.755 38.9313 201.755 50.6951C201.755 51.6143 201.662 52.5792 201.547 53.487L201.427 54.372H168.923C170.311 60.7436 175.457 64.0119 181.991 64.0119C186.645 64.0119 190.196 62.0219 192.219 59.371L192.526 58.9471L199.793 63.1948C196.038 68.7493 189.91 72.0988 181.907 72.0988C168.433 72.0988 159.694 62.8702 159.694 50.614C159.694 38.5228 168.433 29.1291 181.255 29.1291ZM181.174 37.1349C174.779 37.1349 170.367 40.7982 168.972 46.5754L168.839 47.1805H192.851C191.625 40.157 186.482 37.1349 181.174 37.1349ZM225.282 29.1291C231.377 29.1291 236.048 31.5204 239.161 35.4457L239.575 35.9904V30.1897H248.395V71.0383H239.575V65.1564C236.472 69.4852 231.654 72.0988 225.282 72.0988C214.176 72.0988 204.947 62.7023 204.947 50.614C204.947 38.4417 214.173 29.1291 225.282 29.1291ZM226.67 37.5434C219.322 37.5434 213.767 43.0168 213.767 50.614C213.767 58.0001 219.018 63.3814 226.062 63.6747L226.67 63.6873C234.021 63.6845 239.575 58.2112 239.575 50.614C239.575 43.0168 234.021 37.5434 226.67 37.5434ZM297.795 13.8508V71.0383H288.975V65.1564C285.872 69.4852 281.054 72.0988 274.682 72.0988C263.576 72.0988 254.347 62.7023 254.347 50.614C254.347 38.4417 263.576 29.1291 274.682 29.1291C280.777 29.1291 285.45 31.5204 288.561 35.4457L288.975 35.9904V13.8508H297.795ZM276.073 37.5434C268.722 37.5434 263.167 43.0168 263.167 50.614C263.167 58.0001 268.418 63.3814 275.464 63.6747L276.073 63.6873C283.421 63.6845 288.975 58.2112 288.975 50.614C288.975 43.0168 283.421 37.5434 276.073 37.5434ZM306.033 71.0383H314.856V11.4023H306.033V71.0383ZM342.329 29.1291C354.499 29.1291 362.829 38.9313 362.829 50.6951C362.829 51.6143 362.736 52.5792 362.621 53.487L362.502 54.372H329.997C331.385 60.7436 336.531 64.0119 343.062 64.0119C347.72 64.0119 351.269 62.0219 353.291 59.371L353.598 58.9471L360.868 63.1948C357.11 68.7493 350.984 72.0988 342.981 72.0988C329.508 72.0988 320.769 62.8702 320.769 50.614C320.769 38.5228 329.508 29.1291 342.329 29.1291ZM342.248 37.1349C335.854 37.1349 331.441 40.7982 330.047 46.5754L329.914 47.1805H353.925C352.7 40.157 347.556 37.1349 342.248 37.1349ZM374.873 41.4637C374.873 38.5256 377.651 37.1349 380.836 37.1349C384.185 37.1349 387.042 38.604 388.514 41.7911L395.946 37.6246C393.086 32.2324 387.532 29.1291 380.836 29.1291C372.505 29.1291 365.89 33.9477 365.89 41.6288C365.89 49.0721 371.584 51.668 377.174 53.3821L378.961 53.9076L381.257 54.5643L382.34 54.8934C385.506 55.8943 387.859 57.0576 387.859 59.4368C387.859 62.7051 384.837 64.0119 380.917 64.0119C376.426 64.0119 373.16 61.8069 371.853 58.13L364.256 62.54C366.87 68.4219 372.752 72.0988 380.917 72.0988C389.737 72.0988 396.844 67.6888 396.844 59.5179C396.844 52.2325 391.737 49.5038 386.447 47.798L385.27 47.4344L381.279 46.3024L380.224 45.9836C377.314 45.0652 375.127 43.9816 374.894 41.8508L374.873 41.4637ZM408.004 41.4637C408.004 38.5256 410.782 37.1349 413.967 37.1349C417.314 37.1349 420.173 38.604 421.642 41.7911L429.074 37.6246C426.217 32.2324 420.663 29.1291 413.967 29.1291C405.637 29.1291 399.021 33.9477 399.021 41.6288C399.021 49.0721 404.715 51.668 410.305 53.3821L412.092 53.9076L414.388 54.5643L415.471 54.8934C418.637 55.8943 420.99 57.0576 420.99 59.4368C420.99 62.7051 417.968 64.0119 414.048 64.0119C409.557 64.0119 406.288 61.8069 404.982 58.13L397.387 62.54C400.001 68.4219 405.88 72.0988 414.048 72.0988C422.868 72.0988 429.973 67.6888 429.973 59.5179C429.973 52.2325 424.866 49.5038 419.576 47.798L418.4 47.4344L414.409 46.3024L413.354 45.9836L412.359 45.6512C409.957 44.7957 408.231 43.7309 408.025 41.8508L408.004 41.4637Z" fill="#111827"/>
<path d="M494.967 14.207C499.485 14.207 503.819 16.0023 507.013 19.1978C510.02 22.2053 511.786 26.2212 511.982 30.4502L512 31.2455V59.6391C512.001 64.157 510.206 68.4901 507.012 71.685C504.006 74.6919 499.991 76.4587 495.762 76.6562L494.967 76.6748H466.582C462.064 76.674 457.732 74.8788 454.539 71.684C451.533 68.6771 449.767 64.6623 449.57 60.4342L449.552 59.6391V31.2427C449.551 26.7253 451.345 22.3926 454.539 19.1978C457.544 16.1909 461.559 14.4238 465.787 14.2257L466.582 14.207H494.967ZM494.967 19.8846L466.582 19.8874C460.311 19.889 455.228 24.972 455.227 31.2427V59.6391C455.228 65.9098 460.311 70.9928 466.582 70.9943H494.967C501.238 70.9928 506.321 65.9098 506.322 59.6391V31.2455C506.323 28.2331 505.127 25.3439 502.998 23.2133C500.868 21.0827 497.979 19.8854 494.967 19.8846ZM470.11 33.2322V51.5187C470.11 54.2217 471.543 56.2477 475.279 56.2477C478.836 56.2477 480.303 54.4101 480.434 51.9001L480.444 51.5187V33.235H485.929V51.9552C485.929 57.7638 481.686 61.3789 475.866 61.6061L475.279 61.6175C469.394 61.6148 464.962 58.1895 464.682 52.5287L464.668 51.9552V33.2322H470.11ZM497.147 33.2322V61.0578H491.662V33.2322H497.147Z" fill="#111827"/>
<path d="M17.7259 55.6376L72.3473 37.3988C71.256 30.5711 70.4781 26.01 69.5771 22.529C68.6061 18.7849 67.8366 17.7832 67.5344 17.4362C66.4812 16.2307 65.1699 15.2781 63.698 14.6492C63.2727 14.4673 62.0806 14.0447 58.2247 14.277C54.1448 14.5232 48.789 15.3571 40.3076 16.7003C31.8289 18.0434 26.4759 18.9081 22.522 19.9322C18.7808 20.9032 17.7762 21.6755 17.4292 21.9777C16.226 23.0327 15.2746 24.3422 14.645 25.8141C14.4631 26.2394 14.0406 27.4315 14.2728 31.2902C14.5191 35.3701 15.353 40.7287 16.6961 49.2101C17.0711 51.5886 17.4097 53.7153 17.7259 55.6376Z" fill="url(#paint0_linear_1_5218)"/>
<path d="M2.66586 51.4313C0.069104 35.0224 -1.23207 26.818 1.58295 20.231C3.05039 16.7955 5.27314 13.735 8.08604 11.2766C13.4782 6.56722 21.6798 5.26884 38.0831 2.66928C54.4919 0.0669265 62.6935 -1.23145 69.2834 1.58357C72.7169 3.05149 75.7756 5.27423 78.2321 8.08666C82.9443 13.4816 84.2427 21.6861 86.8395 38.0977C89.439 54.5065 90.7374 62.7137 87.9224 69.298C86.4559 72.7332 84.2341 75.7938 81.4221 78.2523C76.0299 82.9645 67.8255 84.2629 51.4195 86.8625C35.0162 89.462 26.8118 90.7604 20.2276 87.9454C16.794 86.4774 13.7354 84.2547 11.2788 81.4423C6.5666 76.0473 5.26822 67.8429 2.66866 51.4313H2.66586ZM31.6024 80.5721C35.9956 80.3062 41.6536 79.4192 50.0287 78.0928C58.4066 76.7665 64.0563 75.8598 68.3208 74.7545C72.4482 73.6828 74.351 72.6391 75.5794 71.5645C77.3867 69.9841 78.8146 68.0167 79.7571 65.8086C80.4007 64.3087 80.8065 62.1765 80.549 57.9176C80.2832 53.5243 79.3962 47.8635 78.0698 39.4856C76.7435 31.1077 75.8396 25.4525 74.7343 21.1908C73.6626 17.0606 72.6161 15.1578 71.5443 13.9294C69.965 12.1213 67.9986 10.6924 65.7912 9.74881C64.2913 9.10522 62.1591 8.69947 57.9002 8.95691C53.5069 9.22274 47.8517 10.1098 39.4738 11.4361C31.0987 12.7653 25.4463 13.6691 21.1846 14.7744C17.0544 15.8462 15.1544 16.8927 13.9259 17.9644C12.1177 19.5447 10.6888 21.512 9.74539 23.7204C9.10459 25.2202 8.69885 27.3525 8.95629 31.6114C9.22212 36.0074 10.1064 41.6654 11.4355 50.0433C12.7619 58.4213 13.6657 64.0765 14.771 68.3382C15.8427 72.4684 16.8865 74.3712 17.961 75.5996C19.5404 77.4075 21.5068 78.8364 23.7142 79.7802C25.214 80.4237 27.3435 80.8295 31.6052 80.5721H31.6024Z" fill="url(#paint1_linear_1_5218)"/>
</g>
<defs>
<linearGradient id="paint0_linear_1_5218" x1="2099.81" y1="312.576" x2="2838.85" y2="4930.02" gradientUnits="userSpaceOnUse">
<stop stop-color="#66E3FF"/>
<stop offset="1" stop-color="#7064F9"/>
</linearGradient>
<linearGradient id="paint1_linear_1_5218" x1="3506.6" y1="-0.0231419" x2="4927.8" y2="8879.49" gradientUnits="userSpaceOnUse">
<stop stop-color="#66E3FF"/>
<stop offset="1" stop-color="#7064F9"/>
</linearGradient>
<clipPath id="clip0_1_5218">
<rect width="512" height="90" fill="white"/>
</clipPath>
</defs>
</svg>
