<svg width="512" height="198" viewBox="0 0 512 198" fill="none" xmlns="http://www.w3.org/2000/svg">
<g clip-path="url(#clip0_1_5231)">
<path d="M22.9179 42.7871H0V155.085H22.9179V42.7871Z" fill="black"/>
<path d="M72.5864 0H49.6684V85.5601H72.5864V0Z" fill="black"/>
<path d="M72.5864 112.314H49.6684V197.875H72.5864V112.314Z" fill="#31D891"/>
<path d="M122.231 42.7871H99.3132V155.085H122.231V42.7871Z" fill="#31D891"/>
<path d="M251.639 155.014V105.145H194.332V155.014H178.816V42.7637H194.332V90.7377H251.639V42.7637H267.163V155.014H251.639ZM350.796 133.318C346.522 146.776 334.326 157.381 316.61 157.381C296.19 157.381 278.296 142.503 278.296 116.696C278.296 92.7895 295.552 76.4792 314.707 76.4792C338.144 76.4792 351.282 92.6261 351.282 116.381C351.29 117.97 351.185 119.556 350.967 121.129H293.633C293.949 134.743 303.768 144.261 316.588 144.261C328.936 144.261 335.112 137.455 337.961 128.901L350.796 133.318ZM335.743 109.096C335.427 98.1717 328.306 89.6253 314.852 89.6253C302.347 89.6253 294.746 99.2811 294.108 109.096H335.743ZM381.749 111.475L402.329 108.47C406.925 107.832 408.19 105.458 408.19 102.773C408.19 95.3355 403.282 89.159 391.728 89.159C381.278 89.159 375.417 95.6507 374.463 104.52L360.219 101.193C361.8 86.6257 374.942 76.503 391.408 76.503C414.198 76.503 423.072 89.4857 423.072 104.368V142.508C423.022 146.695 423.339 150.88 424.018 155.012H409.458C408.876 151.613 408.61 148.167 408.664 144.718C405.341 150.108 397.74 157.386 384.126 157.386C368.611 157.386 358.632 146.621 358.632 134.596C358.632 120.975 368.611 113.374 381.749 111.475ZM408.19 122.399V118.919L384.913 122.399C378.581 123.353 373.833 126.987 373.833 133.794C373.833 139.492 378.581 144.874 386.182 144.874C398.371 144.882 408.19 139.021 408.19 122.399ZM437.111 185.099V78.8619H451.518V90.7395C455.636 83.1428 464.661 77.1223 477.009 77.1223C499.799 77.1223 512 94.6973 512 116.861C512 139.503 498.854 157.075 476.534 157.075C464.816 157.075 455.955 151.536 451.845 144.722V185.099H437.111ZM474.316 90.2647C460.703 90.2647 451.678 101.66 451.678 116.853C451.678 132.526 460.703 143.769 474.316 143.769C488.093 143.769 496.799 132.526 496.799 116.853C496.799 101.66 488.253 90.2647 474.316 90.2647Z" fill="black"/>
</g>
<defs>
<clipPath id="clip0_1_5231">
<rect width="512" height="198" fill="white"/>
</clipPath>
</defs>
</svg>
