<svg width="512" height="144" viewBox="0 0 512 144" fill="none" xmlns="http://www.w3.org/2000/svg">
<g clip-path="url(#clip0_1_5262)">
<path d="M116.494 0C123.539 0 129.27 5.62743 129.435 12.6338L129.438 12.9438V130.876C129.438 137.921 123.809 143.652 116.804 143.817L116.494 143.82H12.9438C5.89955 143.82 0.168283 138.191 0.00363862 131.186L0 130.876V12.9438C0 5.89778 5.62917 0.168231 12.6339 0.0036375L12.9438 0H116.494ZM116.494 7.19101H12.9438C9.84633 7.19101 7.3114 9.65391 7.19517 12.7236L7.19101 12.9438V130.876C7.19101 133.974 9.65391 136.509 12.7236 136.625L12.9438 136.629H116.494C119.594 136.629 122.127 134.166 122.243 131.097L122.247 130.876V12.9438C122.247 9.77258 119.667 7.19101 116.494 7.19101ZM32.3596 93.4831L48.5393 107.865L32.3596 122.247V93.4831ZM46.7416 21.573V62.4018C53.9218 60.0647 63.9586 57.5281 73.7079 57.5281C82.5977 57.5281 87.9191 61.0229 90.8171 63.9551C96.909 70.1179 97.0837 77.9432 97.0773 79.0552L97.0769 79.1011L97.0787 122.247H82.6966V79.2989C82.6265 75.9425 81.0085 71.9101 73.7079 71.9101C59.2312 71.9101 43.0101 79.1184 42.5284 79.334L42.5187 79.3384L32.3596 83.9407V21.573H46.7416ZM97.0787 21.573C96.1079 29.742 92.7964 37.573 86.2921 44.9438H71.9101C77.5622 37.5281 81.111 29.724 82.6966 21.573H97.0787Z" fill="#430098"/>
<path d="M365.095 45.8203C377.855 45.8203 391.117 53.9246 391.117 73.3475C391.117 92.774 377.855 100.875 365.095 100.875C352.263 100.875 339.002 92.774 339.002 73.3475C339.002 53.9246 352.263 45.8203 365.095 45.8203ZM481.819 46.8253V78.5124C481.819 85.8203 484.185 89.1192 489.922 89.1192C495.655 89.1192 497.949 85.8203 497.949 78.5124V46.8253H512V78.5826C512 92.6356 505.262 100.661 489.778 100.661C474.292 100.661 467.482 92.6356 467.482 78.5826V46.8253H481.819ZM176.135 46.8253V66.5376H193.769V46.8253H208.108V99.8733H193.769V78.4387H176.135V99.8733H161.798V46.8253H176.135ZM264.424 46.8253V58.7264H240.912V67.3286H257.686V78.5124H240.912V88.3318H265.645V99.8733H226.574V46.8253H264.424ZM302.109 46.8253C315.729 46.8253 324.045 51.343 324.045 64.1017C324.045 72.4163 320.53 77.2217 313.579 79.5839L324.832 99.8733H309.636L299.383 81.4518H295.441V99.8733H281.392V46.8253H302.109ZM421.413 46.8253V66.0396L436.04 46.8253H452.669L434.819 67.7583L454.245 99.8733H438.044L425.501 78.6527L421.413 83.3844V99.8733H407.078V46.8253H421.413ZM365.095 57.6495C357.568 57.6495 353.339 63.5983 353.339 73.3475C353.339 83.1003 357.568 89.4068 365.095 89.4068C372.55 89.4068 376.779 83.1003 376.779 73.3475C376.779 63.5983 372.55 57.6495 365.095 57.6495ZM301.605 58.4369H295.441V70.552H301.605C307.484 70.552 310.064 68.9035 310.064 64.4594C310.064 60.0172 307.484 58.4369 301.605 58.4369Z" fill="#430098"/>
</g>
<defs>
<clipPath id="clip0_1_5262">
<rect width="512" height="144" fill="white"/>
</clipPath>
</defs>
</svg>
