<svg width="256" height="295" viewBox="0 0 256 295" fill="none" xmlns="http://www.w3.org/2000/svg">
<g clip-path="url(#clip0_1_5266)">
<path d="M128.039 0L0.575195 73.7677L0.590786 221.079L128.345 294.544L255.809 220.775L255.811 73.5451L128.039 0Z" fill="#0E83CD"/>
<path d="M68.2419 211.051L68.2516 147.35L68.2612 83.6489L79.8344 76.8809L90.92 83.4408L91.0396 109.471L91.1591 135.502H128.197H165.235L165.355 109.488L165.474 83.4749L176.732 76.97L188.144 83.6489L188.138 147.308L188.133 210.967L176.835 217.277L165.474 210.885L165.354 184.999L165.235 159.114H128.197H91.1587L91.0391 184.992L91.0733 211L79.7129 217.662L68.2419 211.051Z" fill="white"/>
</g>
<defs>
<clipPath id="clip0_1_5266">
<rect width="256" height="295" fill="white"/>
</clipPath>
</defs>
</svg>
