<svg width="256" height="243" viewBox="0 0 256 243" fill="none" xmlns="http://www.w3.org/2000/svg">
<g clip-path="url(#clip0_1_5284)">
<path d="M178.6 119.7L176.8 116.6L116.5 96.9004L114.8 98.9004L112.2 99.5004L58.6 224.7L59.3 228.5L188.4 174L189.5 171.8L180.5 121.8L178.6 119.7Z" fill="#78758C"/>
<path d="M59.3 228.501L114.8 98.9012L0.799988 61.7012L59.3 228.501Z" fill="#A3EDBA"/>
<path d="M157.1 0.300781L114.8 98.9008L178.6 119.701L178.9 118.901L157.5 1.20078L157.1 0.300781Z" fill="#8087E8"/>
<path d="M178.6 119.701L188.4 174.001L192.9 173.901L254 147.401L256.7 145.101L253.5 142.401L181.6 118.201L178.6 119.701Z" fill="#30426B"/>
<path d="M188.4 174.002L200.9 243.402L256.7 145.102L188.4 174.002Z" fill="#6699A1"/>
<path d="M157.1 0.300781L178.6 119.701L256.7 145.101L157.1 0.300781Z" fill="#6699A1"/>
</g>
<defs>
<clipPath id="clip0_1_5284">
<rect width="256" height="243" fill="white"/>
</clipPath>
</defs>
</svg>
