<svg width="512" height="223" viewBox="0 0 512 223" fill="none" xmlns="http://www.w3.org/2000/svg">
<g clip-path="url(#clip0_1_5292)">
<path d="M140.555 0H87.49C64.0438 1.10859 44.8782 10.5522 39.3443 30.0264C36.4588 40.1826 34.8708 51.3368 32.6144 61.8649C21.1436 115.398 10.9723 170.404 0 222.867H413.121C445.059 222.867 466.987 216.118 472.914 190.771C475.667 178.995 478.304 165.657 480.938 152.72C491.206 102.278 501.483 51.8383 512 0H140.555Z" fill="#B82126"/>
<path d="M353.7 133.154C347.97 138.763 331.887 140.356 333.533 126.949C334.899 115.813 347.023 113.447 360.163 115.055C359.186 121.146 358.066 128.88 353.7 133.154ZM335.601 89.7172C335.054 92.7892 334.214 95.569 333.533 98.5075C340.094 96.8631 360.522 91.8194 362.491 100.576C363.145 103.485 362.017 106.576 361.198 108.85C342.724 107.1 327.667 110.169 323.708 123.328C321.055 132.143 324.005 140.817 329.655 143.238C340.536 147.899 353.772 142.56 358.354 135.223C357.878 137.763 357.427 140.328 357.578 143.496H367.144C367.246 134.334 368.579 126.918 369.988 118.674C371.19 111.654 373.45 104.704 373.09 98.5075C372.269 84.3171 348.76 89.3367 335.601 89.7172ZM431.524 137.549C424.039 137.71 420.318 133.078 420.147 125.398C419.849 111.947 425.749 97.0036 437.729 95.6634C443.307 95.04 447.345 96.337 451.432 97.7325C447.681 112.84 449.035 137.174 431.524 137.549ZM456.345 66.4473C455.392 74.8019 454.118 82.8363 452.467 90.4922C425.196 81.8605 408.471 101.925 408.771 126.69C408.83 131.479 409.654 136.229 412.65 139.617C417.812 145.456 432.594 146.852 440.056 141.945C441.502 140.995 442.977 139.267 443.935 138.067C444.654 137.163 445.796 134.8 446.002 135.48C445.611 138.105 445.024 140.536 444.969 143.496H455.053C456.995 115.619 463.005 91.8083 467.463 66.4473H456.345ZM171.679 133.413C165.73 139.712 151.107 139.616 149.961 129.017C149.461 124.405 151.18 119.569 152.029 114.797C152.888 109.967 153.507 105.333 154.355 101.093C160.214 93.9387 177.43 93.0753 179.177 104.972C180.693 115.3 176.605 128.195 171.679 133.413ZM180.47 89.7172C171.06 86.1824 159.591 90.4018 154.62 94.4155C154.637 94.5922 154.502 94.6163 154.355 94.6294C154.44 94.5581 154.532 94.4868 154.62 94.4155C154.619 94.4005 154.618 94.3874 154.614 94.3713C154.698 92.6446 155.306 91.4429 155.39 89.7172H145.824C141.837 116.24 137.11 142.02 132.12 167.541H143.238C144.847 157.601 145.91 147.116 148.151 137.808C150.69 147.598 167.268 145.727 174.264 141.945C188.699 134.14 199.833 96.9906 180.47 89.7172ZM233.214 108.333H207.101C207.927 102.329 213.328 95.7306 221.838 95.4054C229.847 95.0992 235.581 98.3459 233.214 108.333ZM222.614 88.6831C214.58 89.3015 207.79 91.6136 202.964 96.6974C197.045 102.934 192.251 116.721 193.656 129.276C195.659 147.188 217.961 146.545 235.8 142.203C236.103 139.06 236.864 136.372 237.351 133.413C230.002 136.163 217.244 140.001 209.686 135.223C203.98 131.615 203.947 122.478 205.808 114.538C217.797 114.157 230.257 114.23 242.263 114.538C243.025 108.91 245.205 102.774 243.297 97.2155C240.782 89.8768 231.777 87.9774 222.614 88.6831ZM124.881 89.7172C124.58 89.7603 124.6 90.1258 124.622 90.4922C122.172 108.813 118.857 126.269 115.314 143.496H126.432C129.103 125.052 132.163 106.998 135.998 89.7172H124.881ZM414.977 89.9752C405.151 85.063 396.971 93.3062 393.776 98.2485C394.686 95.7126 394.738 92.3173 395.585 89.7172H385.76C383.112 108.183 379.917 126.104 376.194 143.496H387.57C387.642 136.368 389.042 131.096 390.155 124.104C392.533 109.179 396.023 92.8102 413.426 97.7325C414.003 95.2076 414.243 92.3444 414.977 89.9752ZM290.095 130.827C289.071 128.179 288.805 123.807 289.061 120.484C289.636 113.013 292.358 103.918 296.559 99.8006C302.357 94.1174 313.803 95.058 322.931 98.2485C323.215 95.1715 323.833 92.4278 324.225 89.4592C309.252 87.0136 295.044 88.5345 287.51 96.4394C280.136 104.178 275.301 121.963 278.719 133.154C282.719 146.249 300.653 146.961 315.176 141.945C315.818 139.313 316.158 136.378 316.727 133.671C308.792 137.794 293.622 139.936 290.095 130.827ZM283.891 89.7172C274.032 85.7356 266.283 92.4639 262.69 98.7665C263.504 95.9626 263.841 92.6787 264.499 89.7172H254.674C252.272 108.345 248.732 125.833 245.367 143.496H256.485C258.043 133.011 258.716 118.879 262.172 108.85C264.935 100.836 272.165 94.0079 282.598 97.7325C282.745 94.7759 283.591 92.5191 283.891 89.7172ZM104.714 67.9983C103.126 78.3036 101.337 88.408 99.5429 98.5075C88.0249 98.629 76.2649 99.0767 65.1555 98.2485C67.2537 88.3689 68.7586 77.894 70.8428 67.9983H58.4333C53.9899 93.2038 49.9491 118.81 44.9888 143.496H57.6573C59.645 130.832 61.5033 118.039 64.1205 106.006C74.9227 105.74 87.8693 105.276 98.2498 106.265C96.1095 118.776 93.5234 130.84 91.5276 143.496H104.197C108.267 117.919 112.557 92.5613 117.642 67.9983H104.714ZM136.257 79.3748C138.474 77.8488 141.328 70.8936 138.067 67.9983C137.034 67.0817 135.306 66.8157 132.896 67.2233C130.66 67.6008 129.374 68.3597 128.501 69.5494C127.096 71.4629 125.808 77.2314 127.983 79.3748C130.101 81.4619 134.847 80.3456 136.257 79.3748Z" fill="white"/>
</g>
<defs>
<clipPath id="clip0_1_5292">
<rect width="512" height="223" fill="white"/>
</clipPath>
</defs>
</svg>
