<svg width="256" height="325" viewBox="0 0 256 325" fill="none" xmlns="http://www.w3.org/2000/svg">
<g clip-path="url(#clip0_1_5305)">
<path d="M86.2338 231.414C99.0319 226.874 108.215 214.695 108.215 200.34V117.543C108.215 103.188 99.0319 91.0088 86.2338 86.4688V73.6589C86.2338 68.473 90.4525 64.2526 95.6401 64.2526H181.367C185.895 64.2526 188.641 66.772 189.875 68.2735C191.108 69.7733 193.049 72.9555 192.173 77.3974L157.984 250.778C156.886 256.349 151.968 260.392 146.288 260.392H95.684C90.4728 260.392 86.2338 256.153 86.2338 250.942V231.414ZM232.989 85.0468L198.24 260.621C193.417 284.982 171.894 302.664 147.059 302.664H94.7862C66.7619 302.664 43.9623 279.864 43.9623 251.84V233.339H64.2526V250.942C64.2526 268.302 78.3257 282.373 95.684 282.373H146.288C162.483 282.373 176.417 270.92 179.551 255.031L213.738 81.6499C217.759 61.2581 202.151 42.2715 181.367 42.2715H95.6401C78.3054 42.2715 64.2526 56.3242 64.2526 73.6589V84.5429H43.9623V73.1195C43.9623 44.921 66.9022 21.9812 95.099 21.9812H181.182C197.046 21.9812 211.92 29.0118 221.989 41.2705C232.06 53.5292 236.069 69.4842 232.989 85.0468ZM181.182 0H95.099C54.7179 0 21.9812 32.7367 21.9812 73.1195V86.4688C9.18305 91.0088 0 103.188 0 117.543V200.34C0 214.695 9.18305 226.874 21.9812 231.414V251.84C21.9812 292.049 54.5775 324.645 94.7862 324.645H147.059C182.462 324.645 212.928 299.619 219.803 264.888L254.552 89.3146C263.703 43.0746 228.318 0 181.182 0Z" fill="#3B2C6C"/>
</g>
<defs>
<clipPath id="clip0_1_5305">
<rect width="256" height="325" fill="white"/>
</clipPath>
</defs>
</svg>
