<svg width="256" height="257" viewBox="0 0 256 257" fill="none" xmlns="http://www.w3.org/2000/svg">
<g clip-path="url(#clip0_1_5308)">
<path d="M25.5512 2.11756C26.1099 0.538877 27.7894 -0.3221 29.3794 0.112023L29.6058 0.182913C29.6058 0.182913 80.1347 19.3916 115.381 32.7907C119.436 32.1229 123.463 31.7905 127.424 31.8189C142.394 31.9227 156.531 35.2833 170.708 43.6575L253.211 36.8272C254.187 36.7838 255.108 37.2763 255.614 38.1121C256.335 39.3035 256.015 40.8338 254.914 41.643L254.681 41.7964C253.657 42.3927 227.817 57.4434 203.14 71.8163C203.973 72.771 204.807 73.7464 205.644 74.7423C229.125 102.741 243.409 143.254 250.231 166.679C254.259 180.514 251.643 195.435 243.149 207.074C227.815 228.059 195.115 256.629 130.959 256.174C60.9183 255.689 24.741 220.842 7.35948 199.427C-0.0471487 190.227 -2.02457 177.791 2.16316 166.747L3.46337 163.348C13.7205 136.67 32.8287 90.3358 48.1348 73.1072C57.3494 62.7473 67.9754 53.8022 79.2018 46.9127L26.5214 5.62574C25.4937 4.77584 25.1061 3.37469 25.5512 2.11756Z" fill="#FF4C46"/>
<path d="M128.966 183.475C129.078 183.187 129.403 183.044 129.692 183.157C140.886 189.583 154.325 190.766 166.453 186.421L167.151 186.164C167.368 186.063 167.625 186.119 167.781 186.3C167.946 186.492 167.951 186.767 167.809 186.962L152.455 203.869C151.479 204.936 149.831 205.032 148.738 204.085C143.061 199.207 133.579 189.014 129.035 184.009C128.922 183.855 128.896 183.654 128.966 183.475ZM150.281 96.8899C189.985 69.2661 211.509 93.2448 223.586 119.844C232.31 139.015 235.4 174.906 207.077 180.406C185.382 184.637 165.334 162.657 150.508 142.135C148.986 140.034 146.048 139.564 143.947 141.086C143.551 141.372 143.202 141.719 142.913 142.113L142.309 142.953C132.16 157.184 107.959 195.872 72.1433 186.081C37.5831 176.619 29.9895 137.744 44.3623 110.87C65.6307 70.348 96.701 57.1447 150.281 96.8899ZM144.638 152.496C146.007 151.179 148.149 151.16 149.54 152.408L149.74 152.603L168.713 174.223C168.814 174.338 168.901 174.465 168.972 174.601C169.462 175.542 169.096 176.703 168.155 177.193C162.443 180.105 156.15 181.694 149.741 181.841C141.304 181.772 132.67 176.173 129.136 173.599L128.991 173.482C128.251 172.823 128.14 171.721 128.702 170.932L128.833 170.768L144.424 152.684L144.45 152.691C144.51 152.623 144.573 152.558 144.638 152.496Z" fill="white"/>
<path d="M196.358 120.778L196.577 121.133C201.168 128.26 199.112 137.759 191.985 142.35C184.858 146.941 175.359 144.885 170.768 137.758C166.303 130.826 168.121 121.634 174.815 116.91L175.184 116.656C181.85 111.886 191.122 113.421 195.893 120.087C196.054 120.313 196.21 120.544 196.358 120.778ZM100.381 112.601C92.392 115.325 88.4197 123.81 90.8003 131.713C93.5238 139.702 102.009 143.675 109.912 141.294C117.901 138.571 121.808 129.978 119.493 122.183C119.514 122.131 119.462 121.984 119.365 121.808C116.907 114.116 109.057 110.052 101.584 112.176C101.241 112.089 100.811 112.345 100.381 112.601Z" fill="#FF4C46"/>
</g>
<defs>
<clipPath id="clip0_1_5308">
<rect width="256" height="257" fill="white"/>
</clipPath>
</defs>
</svg>
