<svg width="512" height="101" viewBox="0 0 512 101" fill="none" xmlns="http://www.w3.org/2000/svg">
<g clip-path="url(#clip0_1_5313)">
<path d="M137.084 79.5343H126.683V32.6578H137.084V53.0196H171.582V32.6578H181.983V79.5343H171.582V61.8093H137.084V79.5343ZM211.388 80.7063C204.503 80.7063 198.961 78.9239 194.762 75.359C190.562 71.7952 188.463 67.0825 188.463 61.223C188.463 55.3636 190.562 50.6515 194.762 47.0865C198.961 43.5228 204.503 41.7397 211.388 41.7397C218.321 41.7397 223.888 43.5228 228.088 47.0865C232.287 50.6515 234.387 55.3636 234.387 61.223C234.387 67.0825 232.287 71.7952 228.088 75.359C223.888 78.9239 218.321 80.7063 211.388 80.7063ZM211.388 72.649C215.392 72.649 218.615 71.5996 221.057 69.4995C223.498 67.4007 224.719 64.6418 224.719 61.223C224.719 57.7565 223.498 54.973 221.057 52.8729C218.615 50.774 215.392 49.7234 211.388 49.7234C207.433 49.7234 204.234 50.7855 201.793 52.9097C199.351 55.0339 198.131 57.8061 198.131 61.223C198.131 64.6418 199.351 67.4007 201.793 69.4995C204.234 71.5996 207.433 72.649 211.388 72.649ZM261.951 80.7063C255.065 80.7063 249.523 78.9239 245.325 75.359C241.124 71.7952 239.026 67.0825 239.026 61.223C239.026 55.3636 241.124 50.6515 245.325 47.0865C249.523 43.5228 255.065 41.7397 261.951 41.7397C268.884 41.7397 274.45 43.5228 278.65 47.0865C282.849 50.6515 284.949 55.3636 284.949 61.223C284.949 67.0825 282.849 71.7952 278.65 75.359C274.45 78.9239 268.884 80.7063 261.951 80.7063ZM261.951 72.649C265.954 72.649 269.177 71.5996 271.619 69.4995C274.06 67.4007 275.282 64.6418 275.282 61.223C275.282 57.7565 274.06 54.973 271.619 52.8729C269.177 50.774 265.954 49.7234 261.951 49.7234C257.995 49.7234 254.797 50.7855 252.355 52.9097C249.914 55.0339 248.693 57.8061 248.693 61.223C248.693 64.6418 249.914 67.4007 252.355 69.4995C254.797 71.5996 257.995 72.649 261.951 72.649ZM304.163 80.2662C299.661 80.2662 297.091 78.2048 295.705 76.3289L295.625 76.2188C294.282 74.3496 293.217 71.9116 293.178 66.6508L293.177 50.4558H287.903V42.9118H294.642V32.6578H303.578V42.9118H314.124V50.4558H303.578V64.1527C303.5 68.2448 304.154 69.7368 305.147 70.7283C306.891 72.4685 312.213 71.2892 314.124 70.0701V78.0073C311.896 79.5567 307.874 80.2662 304.163 80.2662ZM340.627 80.7063C334.132 80.7063 327.589 79.7541 320.998 77.8497V69.4995C326.515 71.5996 332.497 72.649 338.942 72.649L339.703 72.6463C343.945 72.6156 347.012 72.3236 348.904 71.7699C350.905 71.1842 351.907 70.1353 351.907 68.621C351.907 67.205 350.796 66.2166 348.574 65.6544C346.458 65.1202 343.899 64.7733 340.898 64.6147L340.444 64.5923C337.245 64.4462 334.047 64.1654 330.849 63.75C327.65 63.3358 324.94 62.3214 322.718 60.7104C320.496 59.0988 319.387 56.8285 319.387 53.8988C319.387 49.8955 321.315 46.8667 325.172 44.8162C329.029 42.765 334.279 41.7397 340.92 41.7397C346.144 41.7397 352.247 42.4245 359.231 43.7909V51.8476C353.225 50.5784 347.487 49.9432 342.019 49.9432C333.717 49.9432 329.568 51.2136 329.568 53.752C329.568 55.0225 330.689 55.9131 332.936 56.4257C335.064 56.9114 337.608 57.2556 340.569 57.4558L341.067 57.4878C344.24 57.6835 347.426 58.0126 350.625 58.4763C353.823 58.9412 356.545 60.0033 358.792 61.6626C361.037 63.3231 362.161 65.643 362.161 68.621C362.161 72.7227 360.256 75.7623 356.448 77.7398C352.639 79.7173 347.366 80.7063 340.627 80.7063ZM401.483 42.9118H411.884V79.5337H400.458L401.923 64.4456H401.336C399.626 75.2859 393.62 80.7057 383.318 80.7057C378.045 80.6073 374.187 78.887 371.746 75.5419C369.348 72.2577 368.127 66.8173 368.084 59.2218L368.083 42.9118H378.484V57.5609C378.484 63.0792 379.265 67.0088 380.828 69.3528C382.39 71.6968 384.954 72.8688 388.519 72.8688C392.474 72.8688 395.623 71.0628 397.967 67.4484C400.258 63.9173 401.429 59.2438 401.481 53.4273L401.483 42.9118ZM426 39.3921C423.997 39.3921 422.435 38.8922 421.312 37.8904C420.189 36.8905 419.628 35.4124 419.628 33.459C419.628 31.5063 420.189 30.042 421.312 29.0645C422.435 28.0881 423.997 27.5996 426 27.5996C428.051 27.5996 429.65 28.0881 430.798 29.0645C431.945 30.042 432.519 31.5063 432.519 33.459C432.519 37.414 430.345 39.3921 426 39.3921ZM431.347 79.5337H420.946V42.9118H431.347V79.5337ZM489.953 80.7063C483.312 80.7063 477.977 78.9239 473.949 75.359C469.921 71.7952 467.907 67.0825 467.907 61.223C467.907 55.3636 469.921 50.6515 473.949 47.0865C477.977 43.5228 483.312 41.7397 489.953 41.7397C496.496 41.7397 501.782 43.2668 505.811 46.3179C509.761 49.3115 511.822 53.2314 511.992 58.0801L512 58.4312C512 59.0793 512 64.3725 512 64.3725H477.868C478.454 67.3518 480.004 69.5001 482.519 70.8183C485.034 72.1364 488.733 72.7958 493.616 72.7958L494.306 72.7912C500.282 72.7163 503.104 71.725 506.141 70.5985L506.432 70.4808C507.399 70.0773 510.088 68.8955 510.388 68.7671V77.1173C506.726 78.5338 503.527 79.486 500.793 79.9739C498.058 80.4618 494.445 80.7063 489.953 80.7063ZM477.648 59.3186L502.112 58.7329C501.966 55.5103 500.915 53.2026 498.962 51.8108C497.008 50.419 494.006 49.7234 489.953 49.7234C486.047 49.7234 483.105 50.4685 481.128 51.9575C479.15 53.4477 477.99 55.901 477.648 59.3186ZM454.546 80.2662C450.044 80.2662 447.474 78.2048 446.087 76.3289L446.007 76.2188C444.665 74.3496 443.599 71.9116 443.56 66.6508L443.559 50.4558H438.286V42.9118H445.024V32.6578H453.96V42.9118H464.507V50.4558H453.96V64.1527C453.883 68.2448 454.537 69.7368 455.53 70.7283C457.273 72.4685 462.596 71.2892 464.507 70.0701V78.0073C462.279 79.5567 458.256 80.2662 454.546 80.2662Z" fill="#FF4C46"/>
<path d="M10.057 0.833475C10.2769 0.212103 10.938 -0.126779 11.5638 0.0440925L11.6529 0.071995C11.6529 0.071995 31.5412 7.6326 45.4143 12.9065C47.0105 12.6436 48.5953 12.5128 50.1545 12.524C56.0466 12.5648 61.6109 13.8876 67.191 17.1837L99.6645 14.4953C100.049 14.4782 100.411 14.672 100.61 15.001C100.894 15.47 100.768 16.0723 100.335 16.3908L100.243 16.4512C99.84 16.6859 89.6693 22.6099 79.9566 28.2671C80.2843 28.6428 80.6127 29.0268 80.942 29.4188C90.1842 40.4391 95.8064 56.3852 98.4915 65.6054C100.077 71.0508 99.0474 76.9236 95.7039 81.5047C89.6685 89.7648 76.7976 101.01 51.5459 100.831C23.9776 100.64 9.73811 86.9241 2.89671 78.4948C-0.0185578 74.8737 -0.796878 69.9789 0.851424 65.6322L1.36319 64.294C5.40044 53.7936 12.9215 35.5564 18.946 28.7752C22.5729 24.6975 26.7553 21.1767 31.174 18.465L10.4389 2.2143C10.0344 1.87978 9.88182 1.32829 10.057 0.833475Z" fill="#FF4C46"/>
<path d="M50.7612 72.2154C50.8054 72.1018 50.9333 72.0457 51.0469 72.0899C55.453 74.6193 60.7427 75.085 65.5163 73.3748L65.7912 73.2737C65.8765 73.234 65.9777 73.2558 66.0391 73.3272C66.104 73.4026 66.106 73.5108 66.0498 73.5879L60.0066 80.2424C59.6225 80.6623 58.9739 80.7 58.5436 80.3274C56.3091 78.4072 52.5769 74.3954 50.7884 72.4255C50.744 72.3647 50.7339 72.2855 50.7612 72.2154ZM59.151 38.1351C74.7784 27.2623 83.2504 36.7004 88.0038 47.17C91.4379 54.7156 92.6539 68.8423 81.5061 71.0072C72.9667 72.6725 65.076 64.021 59.2402 55.9437C58.6412 55.1165 57.4849 54.9316 56.6578 55.5307C56.5019 55.6435 56.3647 55.7801 56.251 55.9352L56.0133 56.2658C52.0186 61.8671 42.4928 77.0947 28.3957 73.2408C14.7927 69.5168 11.8039 54.2153 17.4611 43.6377C25.8324 27.6881 38.0617 22.4913 59.151 38.1351ZM56.9298 60.0217C57.4688 59.5034 58.3116 59.4959 58.8593 59.9873L58.938 60.0638L66.4059 68.5737C66.4456 68.6189 66.4798 68.669 66.5076 68.7223C66.7006 69.0929 66.5566 69.5497 66.1861 69.7427C63.938 70.8887 61.4608 71.5141 58.9382 71.5722C55.6176 71.5448 52.2193 69.3409 50.8282 68.3278L50.7713 68.2818C50.48 68.0226 50.4363 67.5887 50.6576 67.2783L50.709 67.2138L56.8456 60.0958L56.8558 60.0984C56.8794 60.072 56.9042 60.0464 56.9298 60.0217Z" fill="white"/>
<path d="M77.2872 47.5381L77.373 47.6779C79.1801 50.483 78.3709 54.2218 75.5658 56.0289C72.7607 57.8358 69.0218 57.0267 67.2148 54.2216C65.4571 51.4931 66.1728 47.8751 68.8074 46.0156L68.953 45.9159C71.5767 44.0381 75.226 44.6426 77.1038 47.2663C77.1675 47.3552 77.2286 47.4458 77.2872 47.5381ZM39.5104 44.3198C36.3657 45.3918 34.8022 48.7316 35.7392 51.8422C36.8112 54.9868 40.1511 56.5503 43.2616 55.6133C46.4062 54.5413 47.9441 51.1591 47.0327 48.0911C47.0412 48.0708 47.0207 48.0129 46.9823 47.9434C46.0147 44.916 42.9252 43.3162 39.9838 44.1523C39.8487 44.1181 39.6796 44.2189 39.5104 44.3198Z" fill="#FF4C46"/>
</g>
<defs>
<clipPath id="clip0_1_5313">
<rect width="512" height="101" fill="white"/>
</clipPath>
</defs>
</svg>
