<svg width="256" height="355" viewBox="0 0 256 355" fill="none" xmlns="http://www.w3.org/2000/svg">
<g clip-path="url(#clip0_1_5323)">
<path d="M194.533 259.738C184.498 269.474 174.503 282.839 164.386 292.492C169.198 317.862 159.779 329 171.131 338.117C175.244 341.376 199.921 348.348 214.111 340.262C214.399 327.103 207.242 323.184 199.592 318.275C191.819 301.774 194.616 276.198 194.451 259.738" fill="#2E93EE"/>
<path d="M200.291 343.975C198.643 336.438 193.326 330.238 186.143 327.475C191.842 330.968 195.209 337.282 194.944 343.975C196.754 344.058 198.523 344.058 200.291 343.975Z" fill="#2E578B"/>
<path d="M212.26 341.253C210.655 333.72 205.363 327.512 198.194 324.752C205.515 330.403 207.859 336.468 206.831 343.068C208.694 342.638 210.512 342.03 212.26 341.253Z" fill="#2E578B"/>
<path d="M182.811 128.392C177.629 135.941 175.326 151.782 216.537 175.007C216.537 175.007 199.222 204.997 193.752 210.483C188.282 215.97 184.95 230.573 190.297 237.916C193.064 241.778 196.236 245.332 199.757 248.518C199.757 248.518 213.411 251.075 219.252 247.775C226.476 239.763 228.105 228.145 223.365 218.445C223.365 218.445 258.119 181.978 255.898 171.005C253.677 160.032 199.222 104.466 182.811 128.392Z" fill="#2E93EE"/>
<path d="M223.159 218.445C223.159 218.445 209.093 230.078 205.556 232.058C208.421 231.189 211.181 229.999 213.781 228.511C213.781 228.511 220.033 236.184 215.468 242.66C215.468 242.66 223.694 237.834 218.223 226.737C220.119 224.341 221.85 221.819 223.406 219.188L223.159 218.445Z" fill="#2E578B"/>
<path d="M78.3026 211.68C78.2026 214.379 77.3785 217.002 75.9171 219.271C73.5316 223.024 72.1744 222.612 78.097 225.83C82.5072 228.07 87.2626 229.548 92.1631 230.202C100.389 231.564 98.5381 230.656 94.8776 222.818C93.2683 219.289 91.3554 215.907 89.1607 212.711C80.9349 201.367 78.6316 202.151 78.3026 211.598" fill="#2E93EE"/>
<path d="M48.772 207.761C45.7285 213.413 50.376 214.32 56.3397 216.424C58.5749 217.204 60.8943 217.717 63.2494 217.951C69.9534 218.693 68.226 217.703 65.2647 212.258C63.4813 208.9 61.5037 205.649 59.3422 202.522C47.5381 185.527 53.1728 199.511 48.772 207.761Z" fill="#2E93EE"/>
<path d="M23.2721 205.245C23.372 206.536 23.372 207.832 23.2721 209.123C22.8608 213.825 22.3261 213.042 28.1253 213.578C30.7083 213.87 33.3157 213.87 35.8987 213.578C43.3019 212.464 40.5874 209.865 36.7213 205.534C35.4005 204.024 33.9408 202.643 32.3616 201.408C17.7197 190.105 23.231 198.067 23.4366 205.286" fill="#2E93EE"/>
<path d="M121.365 39.4531C121.365 39.4531 79.372 61.1517 79.7422 68.0408C80.1124 74.9299 91.5874 73.9811 96.1938 83.2215C96.1938 83.2215 70.4882 101.042 72.1333 109.21C73.7785 117.378 90.3535 114.408 94.4664 120.885C94.4664 120.885 90.3535 137.138 94.0962 143.078C97.839 149.019 97.2632 143.903 102.322 151.329C102.692 151.494 99.7309 90.8531 121.365 39.4531Z" fill="#2E93EE"/>
<path d="M112.563 59.1715C127.37 73.2797 146.042 82.1489 163.069 93.0807C174.79 100.109 185.121 109.24 193.546 120.018C203.746 133.714 197.659 149.843 200.209 166.633C200.99 172.326 201.361 178.101 201.607 183.876C202.046 194.376 201.744 204.894 200.703 215.352C198.111 240.35 196.836 260.729 179.233 279.457C157.27 302.888 133.086 308.334 105.653 287.955C95.9846 281.617 87.1778 274.046 79.4543 265.432C73.8196 258.831 66.8277 254.624 60.7817 248.477C53.1044 240.314 43.9478 233.692 33.8011 228.965C23.1898 224.84 15.8689 230.45 10.6455 232.843C7.9721 234.08 4.27049 236.473 1.26807 234.08C0.111389 233.211 -0.311671 231.666 0.239846 230.326C1.80515 226.567 4.17855 223.2 7.19064 220.467C23.3543 205.616 49.4712 205.286 68.8841 215.723C76.2462 219.848 84.2664 224.18 92.7801 224.716C98.785 225.417 104.822 223.695 109.561 219.931C113.237 216.544 115.658 212.006 116.429 207.06C117.801 200.18 117.304 193.056 114.99 186.434C111.823 176.864 106.147 168.201 102.445 158.754C90.1067 126.619 85.9938 89.9868 106.024 59.9553L108.82 55.8301L112.563 59.1715Z" fill="#2E93EE"/>
<path d="M37.2559 230.367C51.4042 237.462 66.4574 253.344 80.8937 270.464C99.7719 292.946 146.7 326.072 185.814 274.011C222.46 225.004 205.227 156.319 203.088 148.523L202.841 147.698C201.607 146.13 168.951 104.301 139.009 98.1953C131.03 105.126 129.467 117.377 140.078 138.499C157.969 174.017 172.282 225.788 140.49 257.593C135.756 262.449 129.952 266.123 123.544 268.319C100.965 275.785 88.9961 262.048 74.8478 248.765C64.5497 238.832 51.3995 232.396 37.2559 230.367Z" fill="#FFCF00"/>
<path d="M190.215 267.741C176.448 266.174 163.381 260.821 152.458 252.271C160.261 263.685 172.255 271.532 185.814 274.094C187.377 272.031 189.063 269.886 190.215 267.741Z" fill="#ECA93F"/>
<path d="M126.629 270.918C132 282.339 139.774 292.457 149.415 300.578C152.494 299.853 155.497 298.83 158.381 297.526C145.449 291.931 134.417 282.687 126.629 270.918Z" fill="#ECA93F"/>
<path d="M78.5906 267.823L80.8938 270.546L81.9632 271.825C81.23 268.473 81.5904 264.973 82.9914 261.842C81.3875 263.731 79.917 265.729 78.5906 267.823Z" fill="#ECA93F"/>
<path d="M94.4663 283.706C96.1115 285.027 97.7978 286.347 99.5663 287.832C98.3736 282.139 97.8389 276.199 99.7719 272.898C97.6103 276.293 95.8309 279.918 94.4663 283.706Z" fill="#ECA93F"/>
<path d="M63.4551 251.363L67.1156 255.117C67.0551 252.467 67.3316 249.819 67.9381 247.238C66.3411 248.497 64.8423 249.876 63.4551 251.363Z" fill="#FF9144"/>
<path d="M162.576 225.088C176.886 220.757 192.151 220.757 206.461 225.088C206.831 223.025 207.16 220.962 207.448 218.982C178.698 212.134 162.576 225.088 162.576 225.088Z" fill="#ECA93F"/>
<path d="M208.311 179.956C208.106 177.481 207.859 175.13 207.612 172.861C177.136 172.118 161.424 186.969 161.424 186.969C175.877 179.578 192.338 177.116 208.311 179.956Z" fill="#ECA93F"/>
<path d="M196.302 139.943C195.109 138.582 193.793 137.097 192.189 135.529C159.82 135.529 151.06 150.628 151.06 150.628C164.535 142.117 180.456 138.357 196.302 139.943Z" fill="#ECA93F"/>
<path d="M207.9 175.295C207.103 167.961 205.909 160.676 204.322 153.472L201.978 152.028C191.654 145.263 146.166 117.83 132.84 109.58C132.609 111.609 132.609 113.657 132.84 115.685C146.824 135.321 178.205 168.57 207.9 175.295Z" fill="#ECA93F"/>
<path d="M104.749 254.663C108.928 248.5 116.098 245.077 123.503 245.712C144.315 248.434 137.734 273.144 132.757 287.665C129.3 298.105 127.307 308.975 126.835 319.965C126.835 334.321 132.305 338.653 125.642 344.263C115.036 351.715 102.204 355.297 89.284 354.411C77.7268 351.771 77.4389 327.927 95.8647 321.863C100.965 310.725 100.759 299.339 100.348 287.459C100.06 279.208 99.3606 262.708 104.749 254.457" fill="#2E93EE"/>
<path d="M100.266 354.288C101.911 354.04 103.556 353.752 105.16 353.38C103.714 346.37 105.877 339.101 110.918 334.033C103.35 338.365 100.883 345.749 100.266 354.288Z" fill="#2E578B"/>
<path d="M89.1197 354.453C87.4011 346.798 89.4683 338.78 94.6721 332.92C88.2741 336.889 84.3356 343.856 84.2253 351.401C85.4912 352.915 87.2059 353.984 89.1197 354.453Z" fill="#2E578B"/>
<path d="M99.813 224.467C99.813 224.467 97.4275 238.287 106.805 242.907C114.702 247.032 124.408 247.032 129.261 241.133C135.965 232.883 145.713 216.382 119.02 200.17C102.569 190.146 101.54 224.179 101.54 224.179L99.813 224.467Z" fill="#2E578B"/>
<path d="M102.116 158.217C105.612 165.849 108.779 171.748 108.944 172.284C109.108 172.82 130.66 145.264 126.629 140.809C122.599 136.354 105.53 152.236 102.116 158.217Z" fill="#2E578B"/>
<path d="M123.257 118.697C146.577 141.262 98.168 171.128 98.168 171.128C103.432 174.469 110.095 185.896 115.072 194.229C120.049 202.562 122.023 201.201 128.11 208.131C134.197 215.061 116.841 225.416 116.841 225.416C116.841 225.416 58.6019 193.858 58.7657 173.644C58.7657 171.128 72.2979 148.646 85.9527 134.702C92.8212 127.69 112.111 107.93 123.257 118.697Z" fill="#2E93EE"/>
<path d="M100.636 214.196C100.636 214.196 96.5228 235.688 109.108 241.958C109.108 241.958 119.514 242.618 124.778 238.823C124.778 238.823 137.899 218.61 128.11 208.132C118.321 197.654 100.636 214.196 100.636 214.196Z" fill="#2E93EE"/>
<path d="M100.389 215.723C100.389 215.723 117.211 224.757 120.131 225.582C117.203 225.986 114.22 225.542 111.535 224.303C111.535 224.303 107.422 232.553 112.234 237.669C112.234 237.669 104.502 236.307 107.257 223.354L100.224 216.094L100.389 215.723Z" fill="#2E578B"/>
<path d="M115.483 52.6944C115.483 52.6944 124.244 0.881865 145.672 0.0155728C159.779 -0.603208 166.894 17.4239 166.894 17.4239C175.535 17.4622 183.984 19.9817 191.243 24.6843C191.243 24.6843 195.356 17.5477 201.895 19.8578C208.435 22.1679 215.879 37.1837 213.206 61.8524C219.676 62.8492 225.34 66.7528 228.588 72.4541C226.855 74.9487 224.208 76.6542 221.226 77.1981C216.784 77.5694 197.618 70.5565 192.435 75.1355C187.157 78.8407 184.482 85.2666 185.567 91.6363C185.567 91.6363 164.386 89.4912 154.967 77.4044C145.548 65.3175 137.446 41.8864 115.483 52.6944Z" fill="#2E93EE"/>
<path d="M188.405 56.448C188.405 56.448 193.67 39.0396 203.787 34.1719C204.146 42.5983 205.067 50.9912 206.543 59.2944C200.557 57.9918 194.501 57.0414 188.405 56.448Z" fill="#F1F1F2"/>
<path d="M142.587 20.7656C142.587 20.7656 155.625 27.0772 164.386 54.1798C154.628 52.5138 144.753 51.631 134.855 51.5396C139.707 41.9952 142.35 31.4763 142.587 20.7656Z" fill="#F1F1F2"/>
<path d="M147.934 32.8105C151.101 32.8105 153.692 36.3582 153.692 40.7722C153.692 45.1862 151.101 48.6926 147.934 48.6926C144.767 48.6926 142.176 45.1449 142.176 40.7722C142.176 36.3995 144.726 32.8105 147.934 32.8105Z" fill="#2E578B"/>
<path d="M196.631 53.9323C199.14 53.9323 201.155 51.2509 201.155 47.9095C201.155 44.5681 199.14 41.8867 196.631 41.8867C196.149 41.9136 195.676 42.0253 195.232 42.2167C193.85 43.8213 192.802 45.6866 192.148 47.7033C192.128 47.84 192.128 47.979 192.148 48.1158C192.107 51.2509 194.122 53.9323 196.631 53.9323Z" fill="#2E578B"/>
<path d="M143.821 65.6067C143.821 65.6067 128.192 53.2311 120.254 62.059C110.794 72.702 120.254 89.2441 120.254 89.2441C120.254 89.2441 121.406 82.1488 124.943 79.7974C124.943 79.7974 126.341 102.197 162.699 127.113C199.057 152.03 214.892 149.307 222.83 147.203C230.768 145.099 238.829 139.407 235.785 133.013C232.742 126.618 212.219 109.251 212.219 109.251C212.219 109.251 204.445 110.2 188.61 104.631C172.776 99.0621 151.594 88.1303 137.94 69.1544C139.96 68.0744 141.923 66.8903 143.821 65.6067Z" fill="#FF9144"/>
<path d="M134.69 94.7296C155.051 89.8307 176.5 95.6244 191.654 110.117L187.541 107.889C187.541 107.889 206.214 106.981 208.805 109.58C219.885 117.09 226.989 129.219 228.135 142.582C228.67 148.976 213.576 152.606 179.932 135.817C159.039 125.256 134.69 94.7296 134.69 94.7296Z" fill="#FF6B17"/>
<path d="M210.697 109.127C210.697 109.127 206.173 127.731 199.181 125.627C196.836 124.926 197.782 119.646 196.836 116.016C195.89 112.385 193.176 105.455 193.176 105.455L210.697 109.127Z" fill="#EBEEF2"/>
<path d="M245.286 102.073C245.286 102.073 243.847 121.172 236.608 120.265C234.182 119.976 234.264 114.613 232.742 111.189C231.22 107.765 227.478 101.33 227.478 101.33L245.286 102.073Z" fill="#EBEEF2"/>
<path d="M252.977 85.3257C252.073 71.8775 234.387 65.9785 221.39 75.4252C210.779 73.0738 199.016 65.9785 188.487 76.6215C184.182 80.2307 182.847 86.2986 185.238 91.3897C185.238 91.3897 163.193 87.8421 155.584 76.5803C147.975 65.3185 138.022 50.2202 127.37 49.1477C121.694 48.6114 112.111 47.7863 106.558 58.6356C101.006 69.4849 98.3325 89.0796 139.461 120.101C180.59 151.123 198.605 159.497 207.571 159.456C218.964 159.456 219.663 155.33 232.783 153.35C239.487 152.401 244.587 140.975 237.225 131.074C231.074 123.313 223.612 116.695 215.18 111.521C214.769 111.933 231.138 125.093 234.182 131.487C237.225 137.881 228.218 141.923 220.321 143.862C212.424 145.801 202.265 147.988 165.949 123.236C129.632 98.4851 125.724 73.4451 125.724 73.4451C121.118 72.7438 120.583 82.7681 120.583 82.7681C120.583 82.7681 115.278 71.1762 122.393 64.2459C130.989 55.9955 139.873 66.1847 139.873 66.1847H139.338C133.95 63.5859 133.21 68.2473 133.21 68.2473C147.531 86.739 166.454 101.123 188.076 109.953C203.911 115.522 212.219 109.252 212.219 109.252C219.738 109.198 227.244 108.592 234.675 107.437C240.351 105.91 254.252 103.518 252.977 85.3257Z" fill="#FFCF00"/>
<path d="M200.291 83.8801C203.993 82.7251 206.831 87.7166 201.978 89.8617C201.278 91.718 202.389 93.7394 205.35 94.4407C202.443 95.8418 198.953 94.6136 197.556 91.6974C196.159 88.7812 197.384 85.2813 200.291 83.8801Z" fill="#ECA93F"/>
<path d="M241.996 82.3544C238.952 81.3644 236.608 85.4896 240.639 87.3046C241.173 88.831 240.269 90.481 237.801 91.0586C245.615 92.6674 246.027 83.7982 241.914 82.3544" fill="#ECA93F"/>
</g>
<defs>
<clipPath id="clip0_1_5323">
<rect width="256" height="355" fill="white"/>
</clipPath>
</defs>
</svg>
