<svg width="512" height="92" viewBox="0 0 512 92" fill="none" xmlns="http://www.w3.org/2000/svg">
<g clip-path="url(#clip0_1_5367)">
<path d="M307.59 13.623C321.189 13.623 333.084 20.013 337.362 31.985L322.884 36.182C319.327 29.2359 313.469 27.4102 307.59 27.4102C297.662 27.4102 290.109 35.2691 290.109 45.5833C290.109 55.8974 297.84 63.8507 308.04 63.8507C316.053 63.8507 321.88 59.6537 324.16 52.8966H305.487V40.1062H339.088C339.326 41.9539 339.448 43.8147 339.455 45.6777C339.455 64.218 326.253 77.554 307.862 77.554C289.471 77.554 274.993 63.5465 274.993 45.5833C274.993 27.6201 289.283 13.623 307.59 13.623ZM213.407 28.6798C224.737 28.6798 232.237 33.8631 234.068 41.7745L220.835 44.4081C220.385 41.5856 217.696 39.0464 213.219 39.0464C209.327 39.0464 207.371 40.6833 207.015 42.5929C206.775 43.8415 207.371 44.8803 211.503 45.7407C212.581 45.9737 214.532 46.3745 216.475 46.7695L217.029 46.882C219.699 47.4238 222.195 47.9231 222.195 47.9231C230.804 49.7383 234.748 54.9216 234.748 61.6473C234.748 71.7411 226.044 77.0189 214.077 77.0189C203.385 77.0189 194.2 73.1051 192.684 63.7458L206.879 60.8604C207.507 64.7741 211.064 66.2325 214.945 66.2325C218.826 66.2325 221.797 64.5852 221.881 62.5916C222.017 59.5698 219.653 57.7756 216.305 57.125C213.993 56.6844 207.057 55.3098 207.057 55.3098C198.626 53.7674 193.824 51.3227 193.824 44.1353C193.824 34.776 201.889 28.6798 213.407 28.6798ZM364.593 27.9034C377.439 27.9244 385.536 34.4087 385.536 46.0974V75.1407H371.518V71.7621C367.704 74.9814 362.838 76.6741 357.856 76.5152C347.667 76.5152 340.835 70.5765 340.835 61.5319C340.835 52.4873 347.667 46.7584 359.833 46.7584H371.487V45.8456C371.582 44.1104 370.935 42.4168 369.709 41.189C368.483 39.9612 366.794 39.3155 365.064 39.4137C360.691 39.4137 358.138 41.1449 357.417 45.1636L343.67 42.3306C345.669 33.4749 353.682 27.9034 364.593 27.9034ZM259.332 13.9483V29.2989H272.806V40.8406H259.405V56.7893C259.405 61.5319 261.675 63.452 265.504 63.452C267.83 63.3704 270.105 62.7452 272.147 61.6263L275.463 73.1366C271.676 75.3449 267.374 76.5104 262.993 76.5152C251.612 76.5152 244.76 70.3036 244.76 58.3002V40.8931H236.495V29.3513H244.76V17.0961L259.332 13.9483ZM410.591 13.9483V29.2989H424.065V40.8406H410.57V56.7893C410.57 61.5319 412.851 63.452 416.669 63.452C418.998 63.3716 421.277 62.7464 423.322 61.6263L426.691 73.1366C422.906 75.3412 418.608 76.5066 414.231 76.5152C402.85 76.5152 396.029 70.3036 396.029 58.2477V40.8931H387.744V29.3513H396.029V17.0961L410.591 13.9483ZM166.803 28.0817C180.371 28.1132 191.847 37.7873 191.847 52.2145C191.847 66.7362 180.339 76.4208 166.803 76.4208C152.962 76.4208 141.486 66.7362 141.486 52.2145C141.486 37.6929 152.994 28.0817 166.803 28.0817ZM449.726 28.0817C463.295 28.1132 474.76 37.7873 474.76 52.2145C474.76 66.7362 463.253 76.4208 449.726 76.4208C435.886 76.4208 424.41 66.7362 424.41 52.2145C424.41 37.6929 435.918 28.0817 449.726 28.0817ZM97.1517 13.9483V37.7873H122.834V13.9483H137.762V75.1407H122.834V50.9554H97.1517V75.1407H82.1294V13.9483H97.1517ZM508.717 28.6169C509.826 28.6025 510.931 28.7402 512.002 29.0261L511.364 43.6107H508.717C498.528 43.6107 492.973 48.8569 492.973 60.7869V75.1407H478.401V32.4466L492.973 29.2989V38.0601C496.247 32.583 501.258 28.6169 508.717 28.6169ZM371.518 56.0128H361.496C357.856 56.0128 355.586 57.933 355.586 60.7659C355.586 63.5989 358.128 65.5086 361.957 65.5086C366.968 65.5505 371.518 62.1719 371.518 57.0621V56.0128ZM166.792 40.3475C163.715 40.3822 160.782 41.6618 158.659 43.8961C156.536 46.1304 155.402 49.13 155.515 52.2145C155.515 59.4334 160.881 64.0921 166.803 64.0921C172.452 64.0921 177.808 59.4334 177.808 52.2145C177.808 45.0901 172.441 40.3475 166.792 40.3475ZM449.726 40.3475C446.646 40.3766 443.707 41.6537 441.579 43.8887C439.452 46.1236 438.315 49.1264 438.428 52.2145C438.428 59.4334 443.805 64.0921 449.726 64.0921C455.365 64.0921 460.742 59.4334 460.742 52.2145C460.742 45.0901 455.365 40.3475 449.726 40.3475Z" fill="#1F2044"/>
<path d="M49.4798 66.0645C46.9273 68.5407 44.3852 71.9403 41.8118 74.3955C43.0357 80.8484 40.6401 83.6814 43.5274 86.0002C44.5735 86.8292 50.8503 88.6024 54.4594 86.5459C54.5326 83.1987 52.7124 82.2019 50.7666 80.9533C48.7894 76.7563 49.5008 70.251 49.4589 66.0645" fill="#2E93EE"/>
<path d="M50.9444 87.49C50.5251 85.5729 49.1728 83.9957 47.3457 83.293C48.7952 84.1816 49.6517 85.7874 49.5844 87.49C50.0447 87.511 50.4945 87.511 50.9444 87.49Z" fill="#2E578B"/>
<path d="M53.9886 86.7986C53.5805 84.8827 52.2344 83.3036 50.4109 82.6016C52.273 84.039 52.8693 85.5814 52.6077 87.2602C53.0816 87.1508 53.544 86.9962 53.9886 86.7986Z" fill="#2E578B"/>
<path d="M46.4984 32.6569C45.1803 34.577 44.5944 38.6062 55.0766 44.5135C55.0766 44.5135 50.6724 52.1415 49.2811 53.537C47.8897 54.9325 47.0424 58.6469 48.4023 60.5146C49.1063 61.4968 49.9129 62.4008 50.8084 63.2111C50.8084 63.2111 54.2815 63.8617 55.767 63.0223C57.6046 60.9844 58.019 58.0293 56.8131 55.5621C56.8131 55.5621 65.6529 46.2867 65.088 43.4957C64.5231 40.7047 50.6724 26.5713 46.4984 32.6569Z" fill="#2E93EE"/>
<path d="M56.7609 55.5625C56.7609 55.5625 53.1831 58.5214 52.2834 59.025C53.0124 58.8038 53.7142 58.5011 54.3757 58.1227C54.3757 58.1227 55.9658 60.0743 54.8046 61.7216C54.8046 61.7216 56.8968 60.494 55.5055 57.6715C55.9876 57.0621 56.428 56.4205 56.8236 55.7514L56.7609 55.5625Z" fill="#2E578B"/>
<path d="M19.9164 53.8411C19.891 54.5276 19.6814 55.1946 19.3097 55.7717C18.7029 56.7265 18.3577 56.6216 19.8641 57.44C20.9859 58.0098 22.1954 58.3858 23.4418 58.5522C25.5341 58.8985 25.0633 58.6676 24.1323 56.674C23.723 55.7764 23.2364 54.9163 22.6782 54.1034C20.5859 51.2179 20.0001 51.4173 19.9164 53.8201" fill="#2E93EE"/>
<path d="M12.4053 52.8433C11.6312 54.2808 12.8133 54.5116 14.3302 55.0468C14.8987 55.2452 15.4886 55.3755 16.0877 55.435C17.7928 55.6238 17.3535 55.372 16.6003 53.987C16.1466 53.1329 15.6436 52.3061 15.0938 51.5108C12.0915 47.1879 13.5247 50.7448 12.4053 52.8433Z" fill="#2E93EE"/>
<path d="M5.91939 52.2041C5.94481 52.5324 5.94481 52.8621 5.91939 53.1904C5.81477 54.3865 5.67878 54.1872 7.15381 54.3236C7.81079 54.3978 8.474 54.3978 9.13098 54.3236C11.014 54.0403 10.3236 53.3792 9.34021 52.2775C9.00425 51.8936 8.63298 51.5423 8.23132 51.2283C4.50712 48.3533 5.90893 50.3784 5.96123 52.2146" fill="#2E93EE"/>
<path d="M30.8692 10.0352C30.8692 10.0352 20.1883 15.5542 20.2825 17.3065C20.3766 19.0587 23.2953 18.8174 24.467 21.1677C24.467 21.1677 17.9287 25.7005 18.3471 27.778C18.7656 29.8555 22.9815 29.1001 24.0276 30.7474C24.0276 30.7474 22.9815 34.8814 23.9334 36.3924C24.8854 37.9033 24.739 36.6022 26.0257 38.491C26.1198 38.5328 25.3666 23.1088 30.8692 10.0352Z" fill="#2E93EE"/>
<path d="M28.6306 15.0511C32.3967 18.6395 37.146 20.8954 41.477 23.6759C44.4581 25.4635 47.0858 27.786 49.2288 30.5275C51.8231 34.0111 50.2749 38.1136 50.9235 42.3841C51.1222 43.8321 51.2164 45.301 51.2792 46.77C51.3908 49.4407 51.3139 52.1159 51.049 54.7757C50.39 61.1342 50.0657 66.3175 45.5883 71.0811C40.002 77.0409 33.8508 78.4259 26.8731 73.2426C24.4138 71.6305 22.1738 69.7047 20.2093 67.5137C18.7761 65.8349 16.9977 64.7646 15.4599 63.2012C13.5072 61.1251 11.1782 59.4408 8.59736 58.2383C5.89837 57.189 4.03627 58.616 2.7077 59.2246C2.02772 59.5394 1.08621 60.1479 0.322536 59.5394C0.028332 59.3182 -0.0792741 58.9254 0.0610053 58.5845C0.459142 57.6283 1.06282 56.772 1.82895 56.0768C5.94021 52.2995 12.5831 52.2156 17.5208 54.8702C19.3933 55.9194 21.4333 57.0212 23.5988 57.1576C25.1261 57.3358 26.6615 56.898 27.8669 55.9404C28.802 55.079 29.4179 53.9249 29.614 52.6668C29.9629 50.9167 29.8364 49.1047 29.2478 47.4205C28.4423 44.9862 26.9987 42.7828 26.0571 40.38C22.9188 32.2063 21.8727 22.889 26.9673 15.2504L27.6786 14.2012L28.6306 15.0511Z" fill="#2E93EE"/>
<path d="M9.47607 58.5946C13.0747 60.3993 16.9035 64.4389 20.5754 68.7933C25.3771 74.5118 37.3134 82.9372 47.262 69.6957C56.583 57.2306 52.1997 39.7605 51.6557 37.7774L51.593 37.5676C51.2791 37.1689 42.9729 26.5295 35.3571 24.9766C33.3277 26.7393 32.9301 29.8556 35.6291 35.2278C40.1798 44.2618 43.8203 57.4299 35.7337 65.5197C34.5297 66.7547 33.0534 67.6891 31.4237 68.2477C25.6805 70.1469 22.6363 66.6529 19.0376 63.2743C16.4183 60.7477 13.0735 59.1106 9.47607 58.5946Z" fill="#FFCF00"/>
<path d="M48.3815 68.1007C44.8799 67.7022 41.5563 66.3405 38.7781 64.166C40.7627 67.069 43.8134 69.0649 47.2621 69.7166C47.6597 69.1919 48.0886 68.6463 48.3815 68.1007Z" fill="#ECA93F"/>
<path d="M32.2083 68.9082C33.5744 71.8131 35.5516 74.3868 38.0038 76.4523C38.7871 76.2678 39.5508 76.0078 40.2843 75.6759C36.9951 74.253 34.1892 71.9017 32.2083 68.9082Z" fill="#ECA93F"/>
<path d="M19.9897 68.121L20.5756 68.8135L20.8476 69.1388C20.6611 68.2862 20.7528 67.396 21.1091 66.5996C20.7012 67.08 20.3271 67.5884 19.9897 68.121Z" fill="#ECA93F"/>
<path d="M24.0276 72.1611C24.446 72.4969 24.8749 72.8327 25.3248 73.2104C25.0214 71.7624 24.8854 70.2515 25.3771 69.4121C24.8273 70.2756 24.3747 71.1976 24.0276 72.1611Z" fill="#ECA93F"/>
<path d="M16.1399 63.934L17.0709 64.8888C17.0556 64.2146 17.1259 63.5412 17.2802 62.8848C16.8739 63.2048 16.4927 63.5556 16.1399 63.934Z" fill="#FF9144"/>
<path d="M41.3516 57.2505C44.9912 56.1491 48.874 56.1491 52.5137 57.2505C52.6078 56.7259 52.6915 56.2012 52.7648 55.6976C45.4524 53.9558 41.3516 57.2505 41.3516 57.2505Z" fill="#ECA93F"/>
<path d="M52.9844 45.7725C52.9321 45.143 52.8693 44.5449 52.8065 43.9678C45.0548 43.7789 41.0586 47.5562 41.0586 47.5562C44.7346 45.6763 48.9215 45.0501 52.9844 45.7725Z" fill="#ECA93F"/>
<path d="M49.9297 35.5954C49.6263 35.2491 49.2916 34.8714 48.8836 34.4727C40.6506 34.4727 38.4224 38.3129 38.4224 38.3129C41.8499 36.1482 45.8993 35.1918 49.9297 35.5954Z" fill="#ECA93F"/>
<path d="M52.8796 44.5876C52.6769 42.7223 52.3731 40.8693 51.9695 39.0371L51.3732 38.6698C48.7474 36.9491 37.1773 29.9716 33.7879 27.873C33.7292 28.389 33.7292 28.91 33.7879 29.4259C37.3447 34.4204 45.3266 42.8774 52.8796 44.5876Z" fill="#ECA93F"/>
<path d="M26.6429 64.7745C27.706 63.2067 29.5297 62.3362 31.4132 62.4976C36.7066 63.1901 35.0328 69.4751 33.767 73.1685C32.8877 75.8238 32.3807 78.5888 32.2606 81.3841C32.2606 85.0355 33.6519 86.1373 31.9572 87.5642C29.2595 89.4598 25.9956 90.3708 22.7095 90.1454C19.7699 89.4739 19.6967 83.4092 24.3833 81.8668C25.6805 79.0338 25.6282 76.1379 25.5236 73.116C25.4503 71.0175 25.2725 66.8205 26.6429 64.722" fill="#2E93EE"/>
<path d="M25.5027 90.1128C25.9211 90.0498 26.3396 89.9764 26.7476 89.8819C26.3797 88.0989 26.93 86.2499 28.2121 84.9609C26.2873 86.0627 25.6596 87.9408 25.5027 90.1128Z" fill="#2E578B"/>
<path d="M22.6677 90.1548C22.2306 88.2075 22.7564 86.1683 24.08 84.6777C22.4526 85.6872 21.4509 87.4594 21.4229 89.3784C21.7448 89.7635 22.1809 90.0355 22.6677 90.1548Z" fill="#2E578B"/>
<path d="M25.3876 57.0934C25.3876 57.0934 24.7808 60.6084 27.166 61.7835C29.1746 62.8328 31.6434 62.8328 32.8778 61.3324C34.583 59.2339 37.0623 55.0369 30.273 50.9133C26.0885 48.3636 25.827 57.0199 25.827 57.0199L25.3876 57.0934Z" fill="#2E578B"/>
<path d="M25.9734 40.2428C26.8626 42.1839 27.6681 43.6844 27.71 43.8208C27.7518 43.9572 33.2335 36.9482 32.2083 35.815C31.1831 34.6818 26.8417 38.7214 25.9734 40.2428Z" fill="#2E578B"/>
<path d="M31.3505 30.1908C37.282 35.9302 24.9691 43.5268 24.9691 43.5268C26.3082 44.3767 28.0029 47.2831 29.2687 49.4026C30.5345 51.5221 31.0366 51.1758 32.5849 52.9386C34.1332 54.7013 29.7185 57.3349 29.7185 57.3349C29.7185 57.3349 14.9054 49.3082 14.9471 44.1668C14.9471 43.5268 18.389 37.8084 21.8622 34.2619C23.6092 32.4782 28.5155 27.4522 31.3505 30.1908Z" fill="#2E93EE"/>
<path d="M25.5968 54.4815C25.5968 54.4815 24.5507 59.9482 27.7518 61.543C27.7518 61.543 30.3985 61.7109 31.7375 60.7456C31.7375 60.7456 35.0747 55.6042 32.5849 52.9391C30.0951 50.274 25.5968 54.4815 25.5968 54.4815Z" fill="#2E93EE"/>
<path d="M25.534 54.8691C25.534 54.8691 29.8127 57.167 30.5554 57.3769C29.8106 57.4797 29.052 57.3668 28.369 57.0516C28.369 57.0516 27.3229 59.1501 28.5469 60.4512C28.5469 60.4512 26.5802 60.1049 27.2811 56.8103L25.4922 54.9636L25.534 54.8691Z" fill="#2E578B"/>
<path d="M29.3733 13.4029C29.3733 13.4029 31.6015 0.224304 37.0518 0.00396098C40.64 -0.153427 42.4498 4.4318 42.4498 4.4318C44.6476 4.44155 46.7967 5.08237 48.6429 6.27849C48.6429 6.27849 49.689 4.46328 51.3523 5.05086C53.0157 5.63844 54.9091 9.45772 54.2292 15.7322C55.875 15.9858 57.3156 16.9787 58.1417 18.4288C57.7009 19.0633 57.0277 19.4971 56.2691 19.6355C55.1393 19.7299 50.2644 17.9462 48.9462 19.1108C47.6037 20.0533 46.9233 21.6877 47.1992 23.3078C47.1992 23.3078 41.8117 22.7622 39.4161 19.6879C37.0204 16.6136 34.9596 10.6539 29.3733 13.4029Z" fill="#2E93EE"/>
<path d="M47.9211 14.3574C47.9211 14.3574 49.2602 9.92952 51.8336 8.69141C51.925 10.8347 52.1592 12.9694 52.5345 15.0814C51.0121 14.75 49.4717 14.5083 47.9211 14.3574Z" fill="#F1F1F2"/>
<path d="M36.2673 5.28125C36.2673 5.28125 39.5835 6.88661 41.8117 13.7802C39.3298 13.3565 36.8181 13.1319 34.3005 13.1087C35.5346 10.681 36.2068 8.00552 36.2673 5.28125Z" fill="#F1F1F2"/>
<path d="M37.6272 8.3457C38.4327 8.3457 39.0917 9.24806 39.0917 10.3708C39.0917 11.4935 38.4327 12.3853 37.6272 12.3853C36.8217 12.3853 36.1626 11.483 36.1626 10.3708C36.1626 9.25855 36.8112 8.3457 37.6272 8.3457Z" fill="#2E578B"/>
<path d="M50.0133 13.7181C50.6514 13.7181 51.164 13.0361 51.164 12.1862C51.164 11.3363 50.6514 10.6543 50.0133 10.6543C49.8907 10.6611 49.7703 10.6895 49.6576 10.7382C49.306 11.1464 49.0393 11.6208 48.873 12.1337C48.8679 12.1685 48.8679 12.2039 48.873 12.2387C48.8625 13.0361 49.3751 13.7181 50.0133 13.7181Z" fill="#2E578B"/>
<path d="M36.5812 16.6868C36.5812 16.6868 32.606 13.539 30.5869 15.7844C28.1809 18.4915 30.5869 22.699 30.5869 22.699C30.5869 22.699 30.8799 20.8943 31.7795 20.2962C31.7795 20.2962 32.1352 25.9937 41.3829 32.3311C50.6307 38.6686 54.6582 37.9761 56.6772 37.441C58.6963 36.9059 60.7467 35.4579 59.9725 33.8316C59.1984 32.2052 53.9782 27.7879 53.9782 27.7879C53.9782 27.7879 52.0011 28.0292 47.9735 26.6127C43.9459 25.1962 38.5584 22.4157 35.0853 17.5892C35.5991 17.3145 36.0984 17.0133 36.5812 16.6868Z" fill="#FF9144"/>
<path d="M34.2588 24.0946C39.4376 22.8486 44.8931 24.3222 48.7476 28.0083L47.7015 27.4417C47.7015 27.4417 52.4509 27.2109 53.1099 27.8719C55.9281 29.7821 57.7351 32.867 58.0267 36.2659C58.1627 37.8923 54.3234 38.8156 45.7661 34.5452C40.4518 31.8591 34.2588 24.0946 34.2588 24.0946Z" fill="#FF6B17"/>
<path d="M53.591 27.7561C53.591 27.7561 52.4403 32.4882 50.6619 31.9531C50.0656 31.7747 50.3062 30.4317 50.0656 29.5084C49.825 28.585 49.1345 26.8223 49.1345 26.8223L53.591 27.7561Z" fill="#EBEEF2"/>
<path d="M62.3891 25.9623C62.3891 25.9623 62.0229 30.8203 60.1818 30.5895C59.5646 30.5161 59.5855 29.152 59.1984 28.2812C58.8113 27.4103 57.8594 25.7734 57.8594 25.7734L62.3891 25.9623Z" fill="#EBEEF2"/>
<path d="M64.3453 21.7024C64.1151 18.2819 59.6168 16.7814 56.3111 19.1842C53.6121 18.5862 50.6202 16.7814 47.9421 19.4885C46.8471 20.4065 46.5076 21.9499 47.1156 23.2448C47.1156 23.2448 41.5084 22.3425 39.5731 19.478C37.6378 16.6136 35.1062 12.7733 32.3967 12.5005C30.9531 12.3641 28.5156 12.1542 27.1033 14.9138C25.6911 17.6733 25.0111 22.6573 35.4723 30.5476C45.9335 38.438 50.5155 40.568 52.7961 40.5576C55.6938 40.5576 55.8717 39.5082 59.2088 39.0046C60.914 38.7633 62.2112 35.8568 60.3386 33.3386C58.7741 31.3645 56.8762 29.6812 54.7314 28.3652C54.6268 28.4701 58.7904 31.8172 59.5645 33.4436C60.3386 35.0699 58.0476 36.0982 56.0391 36.5913C54.0305 37.0845 51.4466 37.6406 42.2093 31.3451C32.9721 25.0495 31.9783 18.6806 31.9783 18.6806C30.8066 18.5022 30.6706 21.0519 30.6706 21.0519C30.6706 21.0519 29.3211 18.1035 31.1309 16.3408C33.3173 14.2423 35.5769 16.8339 35.5769 16.8339H35.4409C34.0705 16.1729 33.8822 17.3585 33.8822 17.3585C37.5249 22.0619 42.3379 25.7205 47.8375 27.9665C51.865 29.383 53.9782 27.7881 53.9782 27.7881C55.8908 27.7745 57.7999 27.6202 59.69 27.3264C61.1337 26.9382 64.6696 26.3296 64.3453 21.7024Z" fill="#FFCF00"/>
<path d="M50.9444 21.3345C51.8859 21.0408 52.6077 22.3104 51.3733 22.856C51.1954 23.3281 51.4779 23.8423 52.2311 24.0206C51.4916 24.377 50.604 24.0646 50.2487 23.3229C49.8934 22.5811 50.2048 21.6909 50.9444 21.3345Z" fill="#ECA93F"/>
<path d="M61.5522 20.9467C60.778 20.6949 60.1817 21.7441 61.2069 22.2058C61.3429 22.594 61.1128 23.0137 60.4851 23.1606C62.4727 23.5698 62.5773 21.3139 61.5312 20.9467" fill="#ECA93F"/>
</g>
<defs>
<clipPath id="clip0_1_5367">
<rect width="512" height="92" fill="white"/>
</clipPath>
</defs>
</svg>
