<svg width="256" height="288" viewBox="0 0 256 288" fill="none" xmlns="http://www.w3.org/2000/svg">
<g clip-path="url(#clip0_1_5413)">
<path d="M256 100.586C256 153.653 232.346 181.603 206.692 199.988L201.708 203.431L196.709 206.661L191.729 209.701L186.804 212.578L168.181 223.029C167.212 223.583 166.256 224.134 165.314 224.685L159.83 227.988C140.357 240.143 127.972 253.265 126.932 282.968L126.861 287.122H71.7525C71.7525 235.767 93.9102 207.933 118.59 189.528L123.554 185.968C124.385 185.394 125.217 184.83 126.05 184.275L131.049 181.045L136.028 178.005L145.787 172.39L159.574 164.677L165.226 161.372C186.248 148.723 199.736 135.793 200.823 104.74L200.894 100.586H256ZM184.252 0.144531C184.252 51.4956 162.099 79.3303 137.419 97.7365L132.455 101.296C131.624 101.87 130.791 102.434 129.958 102.99L124.959 106.219L119.979 109.26L110.219 114.875L96.4309 122.588L90.7789 125.894C89.8649 126.444 88.965 126.994 88.0799 127.547L82.9479 130.898C66.4486 142.226 56.1272 155.525 55.1816 182.528L55.1105 186.682H0C0 131.903 25.2057 103.889 51.7975 85.5301L56.7939 82.1968L61.7878 79.0646L66.7445 76.1086L87.8212 64.2361L93.4732 60.9306C114.496 48.2801 127.983 35.3504 129.07 4.29896L129.142 0.144531H184.252Z" fill="#FF3C00"/>
</g>
<defs>
<clipPath id="clip0_1_5413">
<rect width="256" height="288" fill="white"/>
</clipPath>
</defs>
</svg>
