<svg width="256" height="361" viewBox="0 0 256 361" fill="none" xmlns="http://www.w3.org/2000/svg">
<g clip-path="url(#clip0_1_5423)">
<path d="M255.555 70.7656L232.314 331.125L127.844 360.088L23.6617 331.166L0.44519 70.7656H255.555Z" fill="#E44D26"/>
<path d="M128 337.95L212.417 314.546L232.278 92.0566H128V337.95Z" fill="#F16529"/>
<path d="M82.8202 155.932H128V123.994H47.917L48.6815 132.562L56.531 220.572H128V188.636H85.7389L82.8202 155.932Z" fill="#EBEBEB"/>
<path d="M90.0178 236.541H57.958L62.4324 286.687L127.853 304.848L128 304.807V271.579L127.86 271.617L92.2915 262.012L90.0178 236.541Z" fill="#EBEBEB"/>
<path d="M24.1808 0H40.4108V16.0352H55.2574V0H71.488V48.5584H55.2581V32.2982H40.4115V48.5584H24.1815L24.1808 0Z" fill="black"/>
<path d="M92.8309 16.1027H78.5427V0H123.357V16.1027H109.062V48.5584H92.8316L92.8309 16.1027Z" fill="black"/>
<path d="M130.469 0H147.393L157.803 17.062L168.203 0H185.132V48.5584H168.969V24.4902L157.803 41.7554H157.524L146.35 24.4902V48.5584H130.469V0Z" fill="black"/>
<path d="M193.21 0H209.445V32.5078H232.269V48.5584H193.21V0Z" fill="black"/>
<path d="M127.89 220.573H167.216L163.509 261.993L127.89 271.607V304.834L193.362 286.688L193.843 281.293L201.347 197.213L202.127 188.637H127.89V220.573Z" fill="white"/>
<path d="M127.89 155.853V155.932H205.033L205.673 148.753L207.129 132.562L207.892 123.994H127.89V155.853Z" fill="white"/>
</g>
<defs>
<clipPath id="clip0_1_5423">
<rect width="256" height="361" fill="white"/>
</clipPath>
</defs>
</svg>
