<svg width="256" height="256" viewBox="0 0 256 256" fill="none" xmlns="http://www.w3.org/2000/svg">
<g clip-path="url(#clip0_1_5435)">
<path d="M256 0H0V256H256V0Z" fill="#222222"/>
<path d="M114.406 35.2773L91.8272 99.8201L23.3329 100.01L78.8429 141.031L58.8954 207.263L114.97 167.563L172.554 209.711L151.475 140.842L206.423 99.8201L138.117 100.01L114.406 35.2773Z" fill="#E08524"/>
<path d="M117.228 34.3359L139.996 45.0618L159.001 96.9991H140.184L117.228 34.3405" fill="#466770"/>
<path d="M156.339 142.238L178.826 153.282L233.246 113.764L210.76 101.789L156.339 142.238Z" fill="#304A51"/>
<path d="M156.308 142.197L178.826 153.233L200.115 222.071L176.83 210.229L156.308 142.2" fill="#466770"/>
<path d="M62.0954 209.619L114.97 171.797L133.505 185.533L83.5456 220.533L62.0944 209.619" fill="#304A51"/>
</g>
<defs>
<clipPath id="clip0_1_5435">
<rect width="256" height="256" fill="white"/>
</clipPath>
</defs>
</svg>
