<svg width="512" height="148" viewBox="0 0 512 148" fill="none" xmlns="http://www.w3.org/2000/svg">
<g clip-path="url(#clip0_1_5446)">
<path d="M382.141 40.1012C398.869 40.1012 407.526 53.877 407.526 76.7073C407.526 100.433 398.565 114.362 381.702 114.362C372.783 114.362 366.201 110.943 362.019 103.135C361.598 102.408 360.745 102.049 359.931 102.256C359.117 102.462 358.538 103.184 358.515 104.024V129.957C358.516 130.617 358.254 131.25 357.788 131.716C357.322 132.182 356.689 132.443 356.029 132.443H340.901C340.238 132.448 339.601 132.188 339.131 131.722C338.661 131.255 338.396 130.62 338.396 129.957V44.5251C338.406 43.1491 339.525 42.0391 340.901 42.0392H356.029C357.402 42.0392 358.515 43.1522 358.515 44.5251V50.4581C358.515 52.3773 361.086 53.0567 362.006 51.3723C366.308 43.495 373.161 40.1012 382.141 40.1012ZM261.348 24.3967C262.696 24.3967 263.792 25.4681 263.833 26.8052L263.834 26.8826V42.0392H292.166V26.8826C292.165 26.2231 292.426 25.5903 292.893 25.1239C293.336 24.6808 293.929 24.4233 294.553 24.3987L294.652 24.3967H309.648C310.994 24.3984 312.089 25.4693 312.13 26.8053L312.131 26.8826V42.0392H327.995C329.339 42.0492 330.431 43.1169 330.48 44.451L330.481 44.5282V56.4569C330.481 57.8039 329.41 58.9007 328.073 58.9416L327.995 58.9428H312.131V86.3723C312.131 92.0079 314.185 94.6754 320.206 94.6754C322.019 94.6754 323.986 94.3159 325.807 93.9009L326.323 93.7811C326.408 93.7609 326.493 93.7407 326.577 93.7205C327.269 93.5515 328 93.6871 328.585 94.093C329.144 94.4813 329.519 95.0812 329.623 95.7514L329.636 95.8432L331.264 109.663C331.4 110.866 330.655 111.995 329.495 112.343L329.131 112.451L328.769 112.556L328.41 112.659L328.053 112.759L327.698 112.857L327.344 112.952L326.99 113.045L326.635 113.135L326.281 113.222L325.925 113.306L325.567 113.388C325.507 113.401 325.447 113.414 325.387 113.427L325.026 113.505C324.966 113.517 324.905 113.53 324.844 113.542L324.478 113.615L324.108 113.685L323.734 113.752L323.355 113.816L322.97 113.877L322.579 113.934L322.181 113.989L321.777 114.04C321.709 114.048 321.64 114.056 321.572 114.064L321.155 114.111C321.085 114.118 321.015 114.125 320.944 114.133L320.515 114.174C320.443 114.181 320.37 114.187 320.297 114.193L319.854 114.23C319.63 114.247 319.402 114.263 319.17 114.278L318.701 114.305C318.463 114.318 318.221 114.33 317.975 114.34L317.476 114.359C317.392 114.361 317.307 114.364 317.222 114.367L316.703 114.38C316.616 114.382 316.528 114.383 316.439 114.385L315.9 114.393L315.347 114.397C315.254 114.397 315.16 114.397 315.065 114.397C299.08 114.397 292.302 103.789 292.168 90.6291L292.166 90.2296V58.9428H263.834V86.3723C263.834 92.0079 265.888 94.6754 271.909 94.6754C273.722 94.6754 275.689 94.3159 277.51 93.9009L278.026 93.7811C278.111 93.7609 278.196 93.7407 278.28 93.7205C278.972 93.5515 279.703 93.6871 280.288 94.093C280.847 94.4813 281.222 95.0812 281.327 95.7514L281.339 95.8432L282.967 109.663C283.103 110.866 282.358 111.995 281.198 112.343L280.834 112.451L280.472 112.556L280.113 112.659L279.756 112.759L279.401 112.857L279.047 112.952L278.693 113.045L278.339 113.135L277.984 113.222L277.628 113.306L277.27 113.388C277.211 113.401 277.151 113.414 277.091 113.427L276.729 113.505C276.669 113.517 276.608 113.53 276.548 113.542L276.182 113.615L275.812 113.685L275.437 113.752L275.058 113.816L274.673 113.877L274.283 113.934L273.885 113.989L273.481 114.04C273.413 114.048 273.344 114.056 273.276 114.064L272.859 114.111C272.789 114.118 272.719 114.125 272.648 114.133L272.219 114.174C272.147 114.181 272.074 114.187 272.001 114.193L271.558 114.23C271.334 114.247 271.106 114.263 270.875 114.278L270.405 114.305C270.168 114.318 269.926 114.33 269.68 114.34L269.181 114.359C269.097 114.361 269.012 114.364 268.927 114.367L268.409 114.38C268.321 114.382 268.233 114.383 268.145 114.385L267.606 114.393L267.053 114.397C266.96 114.397 266.866 114.397 266.771 114.397C250.784 114.397 244.005 103.789 243.871 90.6291L243.869 90.2296V58.9428H238.28C237.621 58.9436 236.988 58.682 236.521 58.2156C236.078 57.7725 235.821 57.1793 235.796 56.5556L235.794 56.4569V44.5282C235.794 43.8684 236.055 43.2353 236.521 42.7684C236.964 42.3249 237.558 42.0659 238.181 42.0411L238.28 42.0392H243.869V26.8826C243.868 26.2231 244.13 25.5903 244.596 25.1239C245.039 24.6808 245.632 24.4233 246.256 24.3987L246.355 24.3967H261.348ZM480.156 40.1544C501.366 40.1544 511.79 53.6653 511.997 72.4848L512 73.0567V80.5896C511.99 81.932 510.925 83.0226 509.593 83.0737L509.514 83.0755H464.523C464.438 83.072 464.354 83.0636 464.27 83.0505C465.735 92.6529 470.976 96.9171 480.156 96.9171C488.18 96.9171 491.562 93.4575 493.368 88.9585C493.833 87.8028 495.073 87.168 496.277 87.4574L496.355 87.4775L508.979 91.0436C509.637 91.2344 510.188 91.6865 510.504 92.2947C510.82 92.9029 510.873 93.6139 510.651 94.2621C506.768 105.749 497.657 114.256 479.865 114.256C458.878 114.256 444.207 102.105 444.207 78.6892C444.207 54.3842 457.56 40.1544 480.156 40.1544ZM433.528 42.0829C434.187 42.0829 434.82 42.3438 435.286 42.8102C435.753 43.2766 436.014 43.9094 436.014 44.5689V109.845C436.014 111.217 434.901 112.33 433.528 112.33H418.384C417.014 112.322 415.905 111.214 415.895 109.845V44.5689C415.895 43.9064 416.159 43.2712 416.629 42.8045C417.1 42.3377 417.737 42.078 418.399 42.0829H433.528ZM182.194 21.4318C182.853 21.4318 183.486 21.6926 183.952 22.159C184.419 22.6253 184.681 23.2581 184.68 23.9177V50.4237C184.705 51.266 185.289 51.988 186.107 52.19C186.925 52.392 187.778 52.0245 188.193 51.2909C192.404 43.2884 199.05 40.2295 207.109 40.1168C219.213 39.9446 229.025 49.9634 229.025 62.0705V109.835C229.025 110.494 228.763 111.127 228.297 111.593C227.831 112.059 227.199 112.321 226.539 112.321H211.536C210.163 112.321 209.05 111.208 209.05 109.835V71.1031C209.05 63.8363 205.819 58.351 197.466 58.351C189.392 58.351 184.692 63.0943 184.692 71.1031V109.835C184.693 110.497 184.43 111.132 183.961 111.598C183.491 112.065 182.855 112.325 182.194 112.321H167.056C166.396 112.321 165.764 112.06 165.297 111.594C164.831 111.127 164.569 110.495 164.57 109.835V23.9177C164.569 23.2581 164.831 22.6253 165.297 22.159C165.764 21.6926 166.396 21.4318 167.056 21.4318H182.194ZM373.19 58.3416C363.944 58.3416 358.515 64.713 358.515 76.2753V77.609C358.515 89.0211 363.944 96.1344 373.19 96.1344C383.168 96.1344 387.717 89.0211 387.717 76.867C387.717 65.1607 383.315 58.3416 373.19 58.3416ZM479.57 56.9014C470.854 56.9014 465.735 60.9704 464.354 70.694L464.314 70.9904H493.659C493.071 61.6447 488.522 56.9014 479.57 56.9014ZM426.48 11.7793C429.531 11.7793 432.455 12.9968 434.604 15.1617C436.714 17.2873 437.905 20.1535 437.927 23.144V23.3103C437.88 29.599 432.769 34.6722 426.48 34.6722H425.413C422.362 34.6722 419.438 33.4548 417.289 31.2898C415.179 29.1642 413.987 26.2981 413.966 23.3075V23.1412C414.012 16.8526 419.124 11.7793 425.413 11.7793H426.48Z" fill="black"/>
<path d="M123.491 31.9725C123.362 14.186 108.524 0 90.7379 0H32.7823C15.1305 0 0.346471 13.9637 0.0052055 31.6218C-0.150162 40.2764 3.17796 48.6306 9.24191 54.8076C15.3059 60.9846 23.5972 64.4665 32.2532 64.4709H58.1455C59.0134 64.4967 59.7506 65.1139 59.9285 65.9638C60.1063 66.8137 59.6785 67.6748 58.8938 68.0464L19.2006 85.4447C7.45934 90.6494 -0.078858 102.32 0.0052055 115.163C0.139833 132.953 14.9676 147.151 32.7604 147.151H46.3421C64.2601 147.151 79.1787 132.78 79.1505 114.862C79.1139 101.735 71.1314 89.9379 58.9595 85.022C58.269 84.7371 57.8159 84.0667 57.8091 83.3198C57.8022 82.5728 58.243 81.8942 58.9282 81.5968L104.326 61.6907C116.055 56.4772 123.58 44.8082 123.491 31.9725Z" fill="black"/>
</g>
<defs>
<clipPath id="clip0_1_5446">
<rect width="512" height="148" fill="white"/>
</clipPath>
</defs>
</svg>
