<svg width="512" height="72" viewBox="0 0 512 72" fill="none" xmlns="http://www.w3.org/2000/svg">
<g clip-path="url(#clip0_1_5459)">
<path d="M7.09827 0H35.6127C39.5548 0 42.7109 3.15102 42.7109 7.08969C42.7109 11.0285 39.5548 14.1795 35.6127 14.1795H7.09827C3.15608 14.1795 0 11.0285 0 7.08969C0 3.15102 3.15608 0 7.09827 0ZM135.098 42.6709C139.017 42.6709 142.191 39.4965 142.191 35.581C142.191 31.6656 139.017 28.4913 135.098 28.4913C131.179 28.4913 128 31.6656 128 35.581C128 39.4965 131.179 42.6709 135.098 42.6709ZM21.2948 42.6709C25.2139 42.6709 28.3873 39.4968 28.3873 35.581C28.3873 31.6656 25.2139 28.4914 21.2948 28.4914C17.3757 28.4914 14.1965 31.6656 14.1965 35.581C14.1965 39.4968 17.3757 42.6709 21.2948 42.6709ZM49.8093 42.6709H78.3236C82.266 42.6709 85.422 39.5199 85.422 35.581C85.422 31.6425 82.266 28.4914 78.3236 28.4914H49.8093C45.8669 28.4914 42.7109 31.6425 42.7109 35.581C42.7109 39.5199 45.8669 42.6709 49.8093 42.6709ZM113.803 35.581C113.803 39.4968 110.63 42.6709 106.711 42.6709C102.792 42.6709 99.6127 39.4968 99.6127 35.581C99.6127 31.6656 102.792 28.4914 106.711 28.4914C110.63 28.4914 113.803 31.6656 113.803 35.581ZM56.9018 63.9393C56.9018 67.8551 53.7283 71.0292 49.8093 71.0292C45.8903 71.0292 42.7109 67.8551 42.7109 63.9393C42.7109 60.0239 45.8903 56.8498 49.8093 56.8498C53.7283 56.8498 56.9018 60.0239 56.9018 63.9393ZM106.711 56.8498H78.1966C74.2542 56.8498 71.0982 60.0008 71.0982 63.9393C71.0982 67.8782 74.2542 71.0292 78.1966 71.0292H106.711C110.653 71.0292 113.809 67.8782 113.809 63.9393C113.809 60.0008 110.653 56.8498 106.711 56.8498ZM64 14.1796H92.5145C96.4566 14.1796 99.6127 11.0286 99.6127 7.08987C99.6127 3.1512 96.4566 0.000180636 92.5145 0.000180636H64C60.0579 0.000180636 56.9018 3.1512 56.9018 7.08987C56.9018 11.0286 60.0579 14.1796 64 14.1796ZM120.902 0H149.416C153.359 0 156.515 3.15102 156.515 7.08969C156.515 11.0285 153.359 14.1795 149.416 14.1795H120.902C116.959 14.1795 113.803 11.0285 113.803 7.08969C113.803 3.15102 116.959 0 120.902 0Z" fill="url(#paint0_linear_1_5459)"/>
<path d="M419.878 6.03958C426.186 6.03958 431.837 7.48379 436.699 10.5035C441.693 13.3919 445.11 17.7245 447.081 23.2387L436.699 26.9149C433.282 20.3503 427.631 16.9367 419.746 16.9367C414.621 16.9367 410.416 18.7748 406.868 22.3197C403.319 25.9959 401.611 30.4598 401.611 35.7113C401.611 41.0944 403.451 45.5583 406.999 49.2343C410.679 52.9107 415.147 54.6174 420.403 54.6174C424.74 54.6174 428.42 53.4357 431.442 51.0725C434.465 48.7093 436.568 45.5583 437.488 41.4883H417.512V30.9849H448.789C448.921 32.9543 449.052 34.6611 449.052 35.8427C449.052 44.3765 446.293 51.335 440.904 56.9806C435.517 62.6262 428.551 65.3833 420.141 65.3833C411.599 65.3833 404.502 62.4948 398.72 56.8492C392.937 51.2039 390.046 44.114 390.046 35.7113C390.046 27.4401 392.937 20.3503 398.72 14.7048C404.502 8.92799 411.599 6.03958 419.878 6.03958ZM264.674 7.35066V38.7292C264.674 43.4558 265.857 47.2633 268.354 50.1515C270.851 53.04 274.136 54.4843 278.21 54.4843C282.021 54.4843 285.175 53.04 287.541 50.1515C289.906 47.2633 291.089 43.4558 291.089 38.7292V7.35066H302.654V38.7292H302.522C302.522 46.738 300.288 53.1714 295.82 58.0292C291.352 62.887 285.438 65.3813 278.079 65.3813C270.588 65.3813 264.543 62.887 259.943 58.0292C255.344 53.1714 253.11 46.738 253.11 38.7292V7.35066H264.674ZM364.026 9.58289C369.02 12.4713 372.568 16.5413 374.671 22.0555L364.42 25.863C360.872 19.2984 355.089 16.1474 347.204 16.2787C342.079 16.41 337.874 18.2481 334.457 21.9242C331.04 25.6004 329.332 30.0643 329.463 35.4473C329.594 40.8301 331.434 45.294 335.114 48.8389C338.794 52.3839 343.262 54.0906 348.65 53.9592C352.987 53.8281 356.535 52.6464 359.558 50.2832C362.58 47.92 364.551 44.6376 365.34 40.5676L345.627 41.0926L345.364 30.5895L376.51 29.933C376.773 31.9024 376.773 33.4779 376.904 34.7908C377.036 43.3247 374.539 50.4146 369.151 56.0599C363.894 61.7055 357.061 64.7251 348.65 64.8565C340.108 64.9877 333.011 62.362 326.966 56.7163C321.052 51.071 318.03 44.1126 317.767 35.8412C317.636 27.5698 320.395 20.4801 326.046 14.5719C331.697 8.66383 338.662 5.77543 347.073 5.51285C353.381 5.38155 359.032 6.69447 364.026 9.58289ZM196.206 7.35066V30.4579H223.409V7.35066H234.974V64.1998H223.409V40.8298H196.206V64.1998H184.642V7.35066H196.206ZM467.844 7.35066L483.352 34.1341L498.727 7.35066H512L489.134 45.9504V64.1998H477.569V46.2129L455.097 7.35066H467.844Z" fill="#050000"/>
</g>
<defs>
<linearGradient id="paint0_linear_1_5459" x1="-0.000271845" y1="-16246.2" x2="15685.3" y2="-16246.2" gradientUnits="userSpaceOnUse">
<stop stop-color="#FF0069"/>
<stop offset="1" stop-color="#4707FF"/>
</linearGradient>
<clipPath id="clip0_1_5459">
<rect width="512" height="72" fill="white"/>
</clipPath>
</defs>
</svg>
