<svg width="512" height="119" viewBox="0 0 512 119" fill="none" xmlns="http://www.w3.org/2000/svg">
<g clip-path="url(#clip0_1_5485)">
<path d="M275.763 42.6231H281.569L268.439 80.0845C267.006 84.1739 263.146 86.9075 258.813 86.9075H253.238V82.454H258.429C260.668 82.454 262.67 81.0561 263.446 78.9556L263.748 78.1322H261.857L249.436 42.6231H255.444L265.705 73.8818L275.763 42.6231ZM318.092 60.3109C318.092 71.1135 313.635 78.8751 304.387 78.8751C300.539 78.8751 297.367 77.5266 295.004 74.8241V86.9075H289.4V42.6231H294.126L294.598 47.5505C297.233 43.9075 300.945 41.8143 305.265 41.8143C314.716 41.8143 318.092 49.1716 318.092 60.3109ZM312.083 60.3109C312.083 50.9958 309.518 46.3374 303.915 46.3374C299.932 46.3374 296.895 49.2411 295.004 52.0753V69.7631C296.827 72.5315 299.796 74.2185 303.172 74.2185C309.113 74.2185 312.083 69.8308 312.083 60.3109ZM231.682 41.8143C227.497 41.8143 223.11 43.7721 220.341 47.4846V32.0254H214.739V78.1322H220.341V52.2107C222.164 49.4424 225.809 46.2697 229.927 46.2697C234.114 46.2697 236.071 48.1598 236.071 52.4102V78.1322H241.674V52.3443C241.674 45.7299 238.635 41.8143 231.682 41.8143ZM433.12 74.9614L431.771 78.941C428.731 78.5403 426.301 77.0545 425.291 73.8818C422.724 77.1881 418.742 78.8751 414.151 78.8751C406.995 78.8751 402.674 74.557 402.674 67.9408C402.674 60.6494 408.547 56.5307 419.35 56.5307H424.546V53.5611C424.546 48.4306 421.373 46.5386 416.107 46.5386C413.745 46.5386 410.507 47.0125 406.858 48.2933L405.374 44.1088C409.694 42.4895 413.476 41.8143 416.918 41.8143C425.761 41.8143 430.218 46.2697 430.218 53.2884V70.4383C430.218 73.2744 431.164 74.3539 433.12 74.9614ZM424.546 60.3786H419.417C411.517 60.3786 408.681 63.2823 408.681 67.8731C408.681 72.3284 410.909 74.6229 415.568 74.6229C419.079 74.6229 422.455 72.8005 424.546 69.5619V60.3786ZM356.982 59.299C356.982 60.514 356.914 61.5953 356.847 62.3364H332.949C333.22 70.6396 337.876 74.2185 343.345 74.2185C346.584 74.2185 349.758 73.4079 352.863 70.9085L355.496 74.7583C352.188 77.3253 347.733 78.8751 343.345 78.8751C332.949 78.8751 327.076 71.4501 327.076 60.3786C327.076 49.6455 333.15 41.8143 342.332 41.8143C351.515 41.8143 356.982 48.4983 356.982 59.299ZM351.581 58.0146C351.445 50.3884 348.004 46.4728 342.399 46.4728C337.337 46.4728 333.421 50.1871 332.949 58.0146H351.581ZM472.686 60.3109C472.686 71.1135 468.228 78.8751 458.981 78.8751C455.133 78.8751 451.96 77.5266 449.598 74.8241V86.9075H443.994V42.6231H448.72L449.192 47.5505C451.827 43.9075 455.538 41.8143 459.858 41.8143C469.31 41.8143 472.686 49.1716 472.686 60.3109ZM466.677 60.3109C466.677 50.9958 464.112 46.3374 458.509 46.3374C454.526 46.3374 451.488 49.2411 449.598 52.0753V69.7631C451.421 72.5315 454.39 74.2185 457.766 74.2185C463.707 74.2185 466.677 69.8308 466.677 60.3109ZM511.845 60.3109C511.845 71.1135 507.39 78.8751 498.141 78.8751C494.294 78.8751 491.12 77.5266 488.758 74.8241V86.9075H483.155V42.6231H487.881L488.352 47.5505C490.986 43.9075 494.697 41.8143 499.019 41.8143C508.471 41.8143 511.845 49.1716 511.845 60.3109ZM505.836 60.3109C505.836 50.9958 503.273 46.3374 497.668 46.3374C493.685 46.3374 490.648 49.2411 488.758 52.0753V69.7631C490.58 72.5315 493.55 74.2185 496.926 74.2185C502.867 74.2185 505.836 69.8308 505.836 60.3109ZM380.391 49.4424L379.714 42.6231H366.55V47.0125H374.855V73.6787H366.55V78.1322H390.449V73.6787H380.457V56.8692C381.672 51.9418 385.385 47.2833 390.179 47.2833C391.664 47.2833 392.746 47.4846 394.297 47.8908L395.309 42.3541C393.622 41.9479 392.407 41.8143 390.651 41.8143C386.398 41.8143 382.483 44.3778 380.391 49.4424Z" fill="black"/>
<path d="M69.3175 49.6122H109.332L118.943 69.3177H69.3175V118.931H49.6155V69.3177H0V49.6122H49.6155V0H69.3175V49.6122ZM192.739 118.931H169.524L111.518 0H134.733L192.739 118.931Z" fill="#0080FF"/>
</g>
<defs>
<clipPath id="clip0_1_5485">
<rect width="512" height="119" fill="white"/>
</clipPath>
</defs>
</svg>
