<svg width="512" height="281" viewBox="0 0 512 281" fill="none" xmlns="http://www.w3.org/2000/svg">
<g clip-path="url(#clip0_1_5495)">
<path d="M256.961 84.9073C258.724 86.353 260.187 88.0807 261.827 89.6322L292.662 120.432C280.685 132.433 268.697 144.421 256.696 156.398C253.417 153.242 250.261 149.963 247.035 146.789C238.379 138.115 229.704 129.477 221.066 120.802C233.042 108.849 245.008 96.8841 256.961 84.9073ZM341.586 84.7486C346.399 89.6145 351.318 94.3747 356.149 99.223L377.305 120.379C375.753 122.266 373.779 123.8 372.122 125.563L350.313 147.389C347.281 150.351 344.354 153.454 341.269 156.345C332.371 147.471 323.45 138.562 314.506 129.618C311.438 126.585 308.459 123.465 305.321 120.503C306.943 118.599 308.847 116.977 310.61 115.214C320.694 105.164 330.726 95.0623 340.828 85.0307L341.11 85.2599L341.586 84.7486ZM172.018 85.2775L207.596 120.802C197.688 130.746 187.762 140.678 177.819 150.598C175.862 152.484 174.028 154.511 172.018 156.327C162.357 146.754 152.784 137.093 143.158 127.502C141.042 125.281 138.627 123.13 136.493 120.802L172.018 85.2775ZM299.256 43.4057L334.199 78.4899C322.457 90.3727 310.557 102.114 298.78 113.98C297.683 113.035 296.635 112.035 295.642 110.982L268.35 83.585C266.693 81.822 264.824 80.3058 263.361 78.4899C275.102 66.7364 286.838 54.9829 298.568 43.2294C298.78 42.8591 299.079 43.2294 299.256 43.4057ZM383.423 43.0883C384.516 43.9698 385.432 45.0805 386.455 46.0502L418.807 78.4899C407.464 89.879 396.105 101.251 384.727 112.604C384.285 113.124 383.768 113.576 383.193 113.944C381.254 111.864 379.191 109.907 377.199 107.879L371.333 102.005L359.588 90.2732C355.673 86.3607 351.762 82.4426 347.862 78.5075C356.131 70.1684 364.488 61.8293 372.844 53.5431C376.371 50.017 379.897 46.491 383.423 43.0883ZM75.8101 82.7211C75.5683 83.0776 75.2906 83.4085 74.9814 83.7084L51.6919 107.016C49.3647 109.308 47.108 111.705 44.6398 113.927C36.1773 105.394 27.6442 96.9311 19.1641 88.4157C18.4287 87.7454 17.7451 87.0205 17.119 86.2472C17.2248 85.0659 17.1895 83.9023 17.1895 82.7211H75.8101ZM494.758 83.3911V86.2295H496.045C495.463 86.981 494.814 87.6774 494.105 88.3099L477.409 105.006C474.412 107.95 471.521 111.018 468.436 113.821C459.468 104.829 450.476 95.838 441.461 86.8466C440.277 85.7677 439.164 84.6134 438.129 83.3911H494.758ZM214.084 42.1892C214.542 42.4842 214.952 42.8468 215.301 43.2646L235.857 63.8039C240.494 68.5111 245.237 73.095 249.821 77.9081C237.903 89.8261 225.985 101.738 214.066 113.645C207.755 107.386 201.496 101.074 195.202 94.7978C189.631 89.1738 183.954 83.6908 178.4 78.0667C178.476 77.7683 178.628 77.4948 178.841 77.2734C190.213 65.8313 201.514 54.4598 212.885 43.2294C213.273 42.8768 213.573 42.3655 214.084 42.1892ZM129.847 42.3831C136.899 49.4352 143.97 56.5064 151.06 63.5965L165.266 77.8023C153.418 89.6498 141.565 101.497 129.706 113.345C117.752 101.333 105.776 89.3442 93.7753 77.3792L94.2689 77.0794C105.858 65.4787 117.453 53.8839 129.053 42.295C129.265 41.9953 129.653 42.1363 129.847 42.3831ZM468.559 41.9952L492.942 66.3603C494.211 67.7001 495.621 68.9166 496.82 70.3271H494.775V73.4652H437.195C437.847 72.5837 438.658 71.8433 439.434 71.0499C449.148 61.3709 458.827 51.6566 468.559 41.9952ZM45.2921 42.4536C52.926 50.1581 60.6657 57.792 68.3525 65.4787C70.8207 68.0175 73.4124 70.4152 75.8101 73.0245H17.1895V70.2918H16.6782C17.1131 69.7219 17.5968 69.191 18.1239 68.7051L44.5164 42.2597C44.7632 41.9071 45.0805 42.2597 45.2921 42.4536ZM172.142 0C184.095 11.9533 196.101 23.8361 208.037 35.8952C202.748 41.3782 197.194 46.7554 191.799 52.1855L172.212 71.7375C172.055 71.5654 171.843 71.4532 171.613 71.4201C170.238 70.2213 169.004 68.8461 167.699 67.5767L136.282 36.1773C135.982 35.9657 136.282 35.6836 136.423 35.5073C145.755 26.2221 155.064 16.9133 164.349 7.58101C166.994 5.1304 169.462 2.52113 172.018 0H172.142ZM256.696 0C265.229 8.32148 273.604 16.784 282.084 25.2641C285.451 28.6668 288.924 31.9636 292.204 35.4544L256.256 71.4378C255.782 71.0435 255.329 70.6257 254.898 70.186C243.632 59.0084 232.472 47.7427 221.224 36.5651C221.066 36.3536 220.643 36.0891 220.907 35.7894C225.632 31.0081 230.388 26.2352 235.153 21.4652L249.457 7.15788C251.839 4.77286 254.218 2.38714 256.591 0H256.696ZM341.392 0C351.535 10.155 361.685 20.2983 371.84 30.4298C373.603 32.1928 375.366 33.8148 376.952 35.7189C365.158 47.5135 353.328 59.2729 341.586 71.1204C338.677 68.4054 335.962 65.514 333.124 62.746L305.991 35.5955C306.311 34.9518 306.775 34.3907 307.348 33.9559L341.269 0H341.392Z" fill="#BBBCC1"/>
<path d="M298.974 28.5957C301.371 30.8524 303.646 33.2501 306.026 35.542L333.212 62.6221C336.05 65.39 338.765 68.2814 341.674 70.9964C353.416 59.1489 365.246 47.3895 377.04 35.5949C379.262 33.4088 381.43 31.1697 383.669 29.0012C398.479 43.793 413.271 58.6376 428.133 73.3765C431.165 73.3765 434.198 73.3765 437.23 73.3765C456.429 73.3765 475.629 73.3765 494.811 73.3765C494.811 72.3363 494.811 71.2785 494.811 70.2383C495.48 70.2383 496.168 70.2383 496.856 70.2383C501.898 70.2383 506.94 70.2383 512 70.2383V86.1056C506.711 86.1056 501.422 86.1056 496.133 86.1056H494.846V83.3905H438.129C433.334 83.3905 428.538 83.3905 423.743 83.3905C422.103 81.7509 420.464 80.0937 418.807 78.454L386.384 46.0496C385.362 45.08 384.445 43.9693 383.352 43.0878C379.826 46.5257 376.3 50.1399 372.774 53.5425C364.417 61.8287 356.131 70.1678 347.792 78.4717L341.516 84.748L341.039 85.2593L340.722 84.9772L334.199 78.4893L299.256 43.4404C299.079 43.2641 298.78 42.8938 298.568 43.2641C286.815 55.0176 275.061 66.7711 263.308 78.5246C261.157 80.6402 259.024 82.7734 256.908 84.9243C244.978 96.8776 233.031 108.837 221.066 120.802C218.791 123.041 216.57 125.315 214.296 127.537L207.596 120.802L172.018 85.2769L136.493 120.802C134.29 122.953 132.156 125.174 129.935 127.307C115.09 112.392 100.246 97.5358 85.4009 82.7382C82.2098 82.7382 79.0188 82.7382 75.8277 82.7382H17.1895C17.1895 83.9194 17.1895 85.083 17.1895 86.2642C11.4597 86.2642 5.72983 86.2642 0 86.2642V70.397H14.7036C15.3486 70.4589 15.998 70.4589 16.643 70.397H17.1542C17.2424 71.3138 17.1542 72.16 17.1542 73.1297H89.4382C90.8839 74.593 92.3472 76.0211 93.7929 77.4844C105.781 89.4494 117.758 101.438 129.723 113.45C141.583 101.626 153.436 89.7785 165.284 77.9075C167.399 75.7742 169.55 73.6939 171.63 71.5254C171.861 71.5585 172.073 71.6706 172.23 71.8427C174.275 73.9407 176.355 75.9858 178.418 78.0485C183.972 83.6726 189.649 89.1556 195.22 94.7796C201.514 101.056 207.772 107.368 214.084 113.626C226.002 101.673 237.914 89.7257 249.821 77.7841L256.256 71.4372L292.168 35.5244C294.443 33.2501 296.752 30.9934 298.974 28.6662M298.974 30.9758C295.871 34.2198 292.644 37.3227 289.489 40.5314C264.336 65.5898 239.19 90.6894 214.049 115.83C199.945 101.726 185.84 87.6218 171.736 73.5176C157.761 87.5512 143.769 101.591 129.759 115.636C125.404 111.387 121.155 107.033 116.836 102.749L94.2866 80.2523C92.3825 78.3835 90.5666 76.4442 88.6096 74.6635C64.8264 74.6635 41.008 74.6635 17.2248 74.6635C17.2248 76.8321 17.2248 79.0006 17.2248 81.1691C39.7386 81.1691 62.2524 81.1691 84.7662 81.1691C85.2422 81.1691 85.8417 80.9928 86.2295 81.3454L129.97 125.033C143.91 111.046 157.873 97.0833 171.86 83.1437H172.124L196.93 107.879C202.677 113.662 208.513 119.374 214.19 125.209C214.675 124.868 215.119 124.472 215.512 124.028C243.286 96.2665 271.059 68.4988 298.833 40.7253C312.937 54.8295 327.041 68.9337 341.145 83.0379C344.971 79.0358 349.008 75.2277 352.905 71.2785L383.229 40.9545C383.81 40.7606 384.128 41.695 384.604 41.9771C397.897 55.2585 411.19 68.5458 424.483 81.8391C447.92 81.8391 471.356 81.8391 494.793 81.8391V74.9632H427.251C413.888 61.4761 400.383 48.13 386.966 34.7134C385.785 33.6027 384.727 32.3333 383.44 31.3108C382.93 31.9369 382.376 32.526 381.783 33.0738C368.402 46.508 354.95 59.8718 341.604 73.306C341.19 73.0865 340.825 72.7868 340.528 72.4245L308.036 39.8967C305.003 36.9172 302.059 33.8319 298.956 30.8876L298.974 30.9758Z" fill="#221E1F"/>
<path d="M36.1597 220.52V280.462H15.0034C15.0269 260.458 15.0269 240.477 15.0034 220.52H36.1597ZM352.059 220.52V235.611H333.3V280.41H312.302V235.611H293.561C293.544 230.569 293.561 225.544 293.544 220.52H352.059ZM190.178 220.502V233.231H166.324V243.703H188.203V256.344H166.341V267.716H190.601V280.357H145.256C145.244 260.423 145.244 240.471 145.256 220.502H190.178ZM500.875 220.502V233.231H478.15V243.985H499.535V256.697H478.15V280.357H457.064V220.502H500.875Z" fill="#221E1F"/>
<path d="M298.956 30.8887C302.059 33.8153 305.003 36.9006 308.036 39.8801L340.563 72.4255C340.86 72.7878 341.225 73.0875 341.639 73.307C354.985 59.8728 368.437 46.5091 381.818 33.0748C382.412 32.5271 382.965 31.9379 383.475 31.3118C384.727 32.3344 385.785 33.6037 387.002 34.7144C400.418 48.1311 413.923 61.4771 427.287 74.9643H494.793V81.7167C471.356 81.7167 447.92 81.7167 424.483 81.7167C411.167 68.4352 397.873 55.1479 384.604 41.8547C384.128 41.5726 383.81 40.6382 383.229 40.8321L352.905 71.1562C349.008 75.1053 344.971 78.9135 341.145 82.9155C327.041 68.8113 312.937 54.7071 298.833 40.6029C271.024 68.3529 243.25 96.1206 215.512 123.906C215.119 124.35 214.675 124.746 214.19 125.087C208.513 119.251 202.677 113.539 196.93 107.757L172.124 83.0742H171.86C157.896 97.0726 143.933 111.059 129.97 125.034L86.1942 81.2759C85.8064 80.9233 85.2069 81.1701 84.7309 81.0996C62.2171 81.0996 39.7033 81.0996 17.1895 81.0996C17.1895 78.9311 17.1895 76.7626 17.1895 74.5941C40.9903 74.5941 64.7911 74.5941 88.5743 74.5941C90.5313 76.3571 92.3472 78.314 94.2513 80.1828L116.836 102.75C121.155 107.034 125.404 111.388 129.759 115.637C143.781 101.604 157.802 87.5876 171.824 73.5891C185.929 87.6933 200.033 101.798 214.137 115.902C239.325 90.8198 264.465 65.6967 289.559 40.5324C292.662 37.2532 295.853 34.1503 298.956 30.8887Z" fill="#FDD34F"/>
</g>
<defs>
<clipPath id="clip0_1_5495">
<rect width="512" height="281" fill="white"/>
</clipPath>
</defs>
</svg>
