<svg width="256" height="256" viewBox="0 0 256 256" fill="none" xmlns="http://www.w3.org/2000/svg">
<g filter="url(#filter0_dd_1_5504)">
<path d="M128 4.79883C195.496 4.79883 250.213 59.5154 250.213 127.012C250.213 194.508 195.496 249.224 128 249.224C60.5037 249.224 5.78711 194.508 5.78711 127.012C5.78711 59.5154 60.5037 4.79883 128 4.79883Z" fill="white"/>
</g>
<path d="M128 5.34961C195.204 5.34961 249.685 59.8298 249.685 127.034C249.685 194.239 195.204 248.719 128 248.719C60.7953 248.719 6.31519 194.239 6.31519 127.034C6.31519 59.8298 60.7953 5.34961 128 5.34961Z" fill="#447CAD"/>
<path d="M128 251C111.266 251 95.0304 247.723 79.7458 241.258C64.9835 235.014 51.7263 226.076 40.3421 214.691C28.9579 203.307 20.0196 190.05 13.7759 175.288C7.31087 160.003 4.03296 143.768 4.03296 127.033C4.03296 110.299 7.31087 94.0639 13.7759 78.7792C20.0196 64.0169 28.9579 50.7597 40.3421 39.3755C51.7263 27.9913 64.9835 19.053 79.7458 12.8094C95.0304 6.34432 111.266 3.06641 128 3.06641C144.734 3.06641 160.97 6.34432 176.254 12.8094C191.016 19.053 204.274 27.9913 215.658 39.3755C227.042 50.7597 235.98 64.0169 242.224 78.7792C248.689 94.0639 251.967 110.299 251.967 127.033C251.967 143.768 248.689 160.003 242.224 175.288C235.98 190.05 227.042 203.307 215.658 214.691C204.274 226.076 191.016 235.014 176.254 241.258C160.97 247.723 144.734 251 128 251ZM128 7.63104C111.88 7.63104 96.2431 10.7877 81.5239 17.0134C67.3059 23.027 54.5363 31.6367 43.5698 42.6032C32.6032 53.5698 23.9936 66.3393 17.9799 80.5574C11.7543 95.2765 8.59759 110.913 8.59759 127.033C8.59759 143.153 11.7543 158.79 17.9799 173.509C23.9936 187.728 32.6032 200.497 43.5698 211.464C54.5363 222.43 67.3059 231.04 81.5239 237.054C96.2431 243.279 111.88 246.436 128 246.436C144.12 246.436 159.757 243.279 174.476 237.054C188.694 231.04 201.464 222.43 212.43 211.464C223.396 200.497 232.006 187.728 238.02 173.509C244.245 158.79 247.402 143.153 247.402 127.033C247.402 110.913 244.245 95.2765 238.02 80.5574C232.006 66.3393 223.396 53.5698 212.43 42.6032C201.464 31.6367 188.694 23.027 174.476 17.0134C159.757 10.7877 144.12 7.63104 128 7.63104Z" fill="#EBEDF4"/>
<path d="M191.167 63.502C204.256 97.7808 213.282 133.159 213.569 170.104C159.037 173.05 106.459 177.672 57.8062 191.709C44.7174 157.43 35.6918 122.052 35.4053 85.1084C89.9372 82.1614 142.515 77.5392 191.167 63.502Z" fill="#ECF7F9"/>
<path d="M209.878 164.534C157.927 168.283 107.529 173.09 60.4661 185.743C49.2612 154.696 41.2518 122.771 40.0378 89.5978C91.9169 85.9466 142.182 81.1041 189.05 68.2812C200.415 99.354 208.557 131.315 209.878 164.534Z" fill="#DBF0F6"/>
<path d="M206.743 147.024C198.915 141.43 190.831 136.143 182.623 131.046C182.637 131.026 175.258 125.203 169.647 126.286C164.613 127.255 159.682 133.363 158.735 134.555C155.991 132.889 153.235 131.238 150.472 129.596C150.479 129.584 141.809 122.978 135.244 124.203C128.677 125.413 122.271 134.035 122.275 134.037C121.67 134.727 121.065 135.418 120.461 136.109C115.256 133.054 110.032 130.004 104.825 126.929C104.809 126.945 94.2266 118.777 86.1652 120.192C78.0381 121.592 70.1527 132.568 70.1996 132.599C64.009 140.089 58.0638 147.778 52.585 155.763C55.2317 165.24 58.2588 174.628 61.5671 183.938C107.852 171.838 157.235 167.033 208.05 163.182C207.788 157.763 207.347 152.378 206.743 147.024Z" fill="#6CC077"/>
<path d="M136.001 103.642C135.991 103.495 136.082 103.353 136.048 103.205C135.555 100.914 132.206 99.4961 128.558 100.007C128.078 100.076 127.677 100.247 127.231 100.37C125.893 99.3079 123.73 98.731 121.339 99.0533C118.245 99.471 116.039 101.199 115.795 103.113C112.865 104.006 110.878 105.94 111.255 107.988C111.612 109.923 113.96 111.253 116.881 111.47C118.174 113.107 121.036 114.049 124.206 113.622C127.079 113.233 129.298 111.842 130.131 110.181C130.912 110.283 131.737 110.29 132.593 110.17C135.875 109.715 138.182 107.684 137.75 105.646C137.569 104.812 136.883 104.152 136.001 103.642ZM162.134 104.205C162.085 104.102 161.983 104.025 161.959 103.921C161.567 102.276 163.34 100.587 165.916 100.145C166.257 100.085 166.576 100.114 166.904 100.104C167.455 99.0888 168.709 98.2233 170.382 97.9236C172.562 97.5295 174.561 98.2367 175.323 99.5004C177.534 99.4821 179.447 100.386 179.834 101.885C180.204 103.303 179.067 104.726 177.217 105.497C176.87 106.899 175.264 108.154 173.034 108.52C171.013 108.853 169.116 108.358 168.053 107.406C167.563 107.635 167.018 107.814 166.416 107.912C164.097 108.287 161.941 107.393 161.598 105.928C161.448 105.329 161.697 104.739 162.134 104.205Z" fill="#87C3E8"/>
<path d="M91.9192 116.983C91.8655 116.965 91.8033 116.898 91.7592 116.867C91.5771 116.742 91.4602 116.572 91.3895 116.386L91.3874 116.38L91.3981 116.397L91.464 116.381L91.4643 116.378C91.4752 116.281 91.4488 116.181 91.4323 116.085L91.3831 115.646C91.339 115.374 91.2391 115.118 91.0983 114.871C90.9807 114.664 90.8392 114.457 90.6568 114.284C90.5569 114.19 90.4524 114.098 90.3437 114.012C90.3107 113.986 90.1786 113.886 90.1273 113.813C90.2407 113.87 90.3485 113.926 90.4748 113.973L90.5392 113.953C90.5387 113.891 90.457 113.826 90.4162 113.777C90.3272 113.668 90.2519 113.547 90.1765 113.432C90.03 113.207 89.9306 112.966 89.7244 112.771C89.5246 112.583 89.2915 112.476 89.0217 112.377C88.9002 112.333 88.7757 112.29 88.6454 112.268C88.5683 112.255 88.4891 112.25 88.411 112.242C88.3 112.186 88.1874 112.135 88.0776 112.088C87.9224 112.02 87.7575 111.965 87.5866 111.934L87.5813 111.933C87.5123 111.911 87.4426 111.891 87.364 111.877C87.0234 111.819 86.6633 111.87 86.3717 112.028C86.1964 112.123 86.0666 112.22 85.8515 112.251C85.7415 112.267 85.6152 112.239 85.4986 112.201C85.4894 112.146 85.4717 112.095 85.441 112.043C85.4154 112.001 85.3887 111.969 85.3743 111.923C85.3619 111.883 85.3188 111.867 85.3005 111.833C85.3953 111.859 85.4724 111.905 85.583 111.91L85.6284 111.887C85.6416 111.827 85.5092 111.788 85.4625 111.769C85.2769 111.693 85.2196 111.543 85.1552 111.388C85.0969 111.245 84.984 111.153 84.8737 111.039L84.8215 110.997L84.8838 110.978C84.9186 110.989 84.9495 111.005 84.9769 111.027C85.0423 111.078 85.0745 111.145 85.1301 111.202L85.194 111.18C85.1699 111.032 85.055 110.861 84.9653 110.732C84.9021 110.642 84.8136 110.562 84.7248 110.489C84.6858 110.457 84.5709 110.421 84.5496 110.37C84.6161 110.375 84.6896 110.379 84.7325 110.332L84.7299 110.31C84.664 110.27 84.593 110.255 84.5174 110.23C84.4058 110.193 84.3505 110.105 84.295 110.023C84.1994 109.88 84.1233 109.734 84.0082 109.6C83.9227 109.501 83.856 109.382 83.7313 109.311C83.6205 109.249 83.7429 109.293 83.7939 109.318C83.8398 109.34 83.8604 109.35 83.9108 109.346L83.9468 109.319C83.9025 109.205 83.7686 109.139 83.6575 109.073C83.5999 109.039 83.5155 108.989 83.4457 108.973C83.4171 108.966 83.3484 108.952 83.2933 108.934C83.3435 108.939 83.3938 108.941 83.4412 108.936L83.4744 108.905C83.4498 108.88 83.4102 108.871 83.375 108.862C83.2571 108.831 83.1612 108.758 83.0783 108.683C83.0326 108.641 82.9928 108.637 82.9251 108.634C82.8807 108.632 82.8209 108.631 82.7631 108.633L82.742 108.61L82.6786 108.51L82.5247 108.353C82.4382 108.213 82.406 108.067 82.2838 107.941C82.2407 107.896 82.178 107.888 82.1162 107.911C82.034 107.941 82.0956 108.044 82.1083 108.096C82.1276 108.172 82.0857 108.259 82.0801 108.336C82.0761 108.395 82.0903 108.435 82.1189 108.485C82.0363 108.497 81.9554 108.521 81.8778 108.552L81.8403 108.519C81.7335 108.437 81.6333 108.383 81.5529 108.279C81.4954 108.203 81.4353 108.124 81.3422 108.077L81.2887 108.088C81.238 108.128 81.2682 108.211 81.2704 108.262C81.2732 108.339 81.2811 108.414 81.2917 108.491C81.3105 108.624 81.3752 108.683 81.4728 108.734C81.4297 108.753 81.3878 108.774 81.3501 108.801C81.2489 108.875 81.152 108.948 81.0374 109.006C81.0092 109.02 81.0171 109.043 81.0501 109.041C81.097 109.039 81.1409 109.03 81.184 109.018C81.1259 109.067 81.0802 109.116 81.0217 109.184C80.9966 109.213 81.0534 109.213 81.0721 109.202C81.1145 109.177 81.1609 109.157 81.2083 109.139C81.1132 109.211 81.0227 109.279 80.901 109.335C80.8741 109.347 80.8809 109.374 80.9139 109.37C80.9714 109.362 81.0277 109.35 81.0838 109.334L81.0774 109.339C81.0298 109.378 80.9093 109.433 80.888 109.488C80.8639 109.552 80.8637 109.616 80.8687 109.683L80.8662 109.688L80.8208 109.763L80.7998 109.788L80.7567 109.832C80.6562 109.906 80.5708 109.991 80.4886 110.078C80.3819 110.185 80.2817 110.294 80.1648 110.396L80.0301 110.508C79.9338 110.58 79.8633 110.647 79.7923 110.75C79.7466 110.815 79.7055 110.873 79.6979 110.949C79.6921 111.006 79.7502 111.06 79.795 111.111L79.8184 111.171C79.8562 111.274 79.8316 111.376 79.8934 111.473C79.9419 111.548 80.1062 111.723 80.2335 111.69L80.3129 111.661L80.3365 111.676C80.3991 111.714 80.5069 111.686 80.5779 111.693C80.7328 111.708 80.8454 111.602 80.9068 111.499L80.9433 111.441C81.2826 111.336 81.6209 111.228 81.9673 111.141L81.9785 111.138C82.1184 111.187 82.2785 111.189 82.4306 111.155L82.4664 111.296C82.4752 111.46 82.4638 111.627 82.4887 111.789C82.5308 112.064 82.5409 112.338 82.6122 112.61C82.6611 112.797 82.7017 112.984 82.7438 113.172C82.7265 113.283 82.7007 113.391 82.6662 113.5C82.6264 113.583 82.5772 113.663 82.5184 113.743C82.4144 113.886 82.349 114.108 82.3233 114.27C82.2916 114.476 82.2916 114.727 82.3619 114.926L82.3875 114.984L82.3951 115.115C82.3994 115.2 82.4461 115.294 82.4978 115.378C82.5468 115.582 82.5113 115.769 82.5237 115.973C82.5351 116.16 82.5919 116.322 82.6677 116.498C82.725 116.631 82.7844 116.764 82.845 116.897L82.8612 116.965C82.8995 117.111 82.9522 117.255 82.9611 117.406C82.9781 117.683 83.1003 117.956 82.9626 118.224C82.9302 118.288 82.9436 118.399 82.9637 118.461C82.9948 118.559 82.988 118.651 83.0572 118.739L83.0856 118.775C83.1092 118.843 83.1366 118.911 83.1564 118.98C83.1937 119.11 83.2137 119.246 83.2284 119.38L83.2299 119.398L83.2292 119.401C83.2345 119.492 83.2226 119.582 83.2145 119.673C83.2051 119.777 83.1389 119.896 83.1896 119.995C83.2621 120.137 83.3093 120.3 83.2071 120.445C83.1546 120.519 83.0742 120.562 83.0826 120.653L83.0879 120.664L83.0836 120.807C83.077 120.883 83.0679 120.955 83.0496 121.03C83.041 121.066 83.0872 121.097 83.1216 121.106C83.164 121.117 83.2205 121.114 83.2642 121.115C83.3225 121.117 83.3801 121.132 83.4381 121.127C83.5109 121.121 83.8084 121.086 83.8261 121C83.838 120.94 83.8279 120.871 83.8241 120.81C83.8203 120.75 83.8299 120.684 83.8124 120.624L83.8193 120.605C83.766 120.498 83.7196 120.399 83.6894 120.294L83.6998 120.17L83.7049 120.141C83.7447 120.097 83.7693 120.036 83.7848 119.958C83.803 119.867 83.7493 119.782 83.715 119.699C83.6661 119.578 83.6826 119.415 83.6656 119.288C83.6489 119.16 83.6456 119.035 83.6428 118.907C83.6415 118.821 83.6965 118.705 83.6945 118.613C83.7145 118.551 83.7214 118.485 83.7183 118.433C83.7153 118.379 83.7234 118.294 83.7052 118.226L83.7072 118.215C83.7287 118.096 83.6532 118.012 83.6301 117.897L83.6146 117.819C83.6354 117.643 83.6666 117.464 83.6757 117.286C83.6884 117.034 83.7077 116.767 83.6656 116.515C83.6986 116.447 83.7363 116.382 83.7627 116.311C83.7815 116.26 83.7944 116.207 83.8015 116.153C83.9217 116.103 84.0838 116.11 84.2134 116.127C84.2537 116.132 84.2902 116.14 84.3247 116.15L84.3592 116.195C84.4378 116.284 84.5131 116.361 84.5686 116.463L84.6229 116.571C84.68 116.966 84.7378 117.36 84.7958 117.755L84.7981 117.852L84.7974 117.865C84.7735 117.968 84.7294 118.071 84.6924 118.168C84.6721 118.22 84.684 118.28 84.6947 118.333C84.7109 118.415 84.7134 118.499 84.737 118.579C84.754 118.637 84.7943 118.677 84.8354 118.725C84.8615 118.756 84.8823 118.789 84.9019 118.822C84.9668 119.002 84.9812 119.215 84.986 119.376C84.9898 119.494 85.0119 119.609 85.0289 119.727L85.038 119.833L85.0309 119.862C85.0094 119.93 84.964 119.995 84.9645 120.068C84.9645 120.112 84.9909 120.183 85.0332 120.242C85.0606 120.32 85.0535 120.411 85.0522 120.485C85.05 120.611 84.9226 120.645 84.8851 120.755L84.9122 120.759L84.9128 120.782L84.9315 120.785C84.928 120.87 84.9125 120.956 84.9006 121.04C84.8953 121.077 84.8671 121.126 84.8993 121.149C84.9064 121.178 84.9379 121.195 84.9929 121.202C85.1007 121.217 85.2389 121.221 85.3461 121.21C85.4894 121.197 85.709 121.149 85.7217 121.039C85.7308 121.013 85.7253 120.982 85.7204 120.956C85.7088 120.892 85.7133 120.715 85.6241 120.703L85.6236 120.702L85.6697 120.678C85.5746 120.597 85.5117 120.497 85.4686 120.391C85.5665 120.275 85.6111 120.143 85.5723 120.01L85.5493 119.912C85.5155 119.77 85.4668 119.641 85.4577 119.493C85.4491 119.355 85.4204 119.214 85.4237 119.076C85.4253 118.995 85.4166 118.894 85.4032 118.806L85.4349 118.737C85.5262 118.594 85.4438 118.45 85.4643 118.303C85.4871 118.138 85.3502 117.993 85.3441 117.832L85.3398 117.719L85.3761 117.614C85.4324 117.438 85.4767 117.268 85.4993 117.086C85.5247 116.88 85.527 116.683 85.5239 116.475C85.5224 116.356 85.5313 116.229 85.5239 116.106L85.5305 116.106C85.8069 116.109 86.0684 116.085 86.3298 116.02C86.3572 116.124 86.3876 116.228 86.4313 116.329C86.517 116.525 86.6407 116.704 86.7493 116.891C86.8061 116.988 86.8715 117.057 86.872 117.171C86.8723 117.264 86.9022 117.361 86.9207 117.451C86.9356 117.524 86.9658 117.589 87.0132 117.648L87.0561 117.762C87.0837 117.834 87.1083 117.906 87.1312 117.979C87.1504 118.113 87.1819 118.248 87.1915 118.381C87.2062 118.588 87.2382 118.807 87.2181 119.015C87.2037 119.167 87.0911 119.297 87.1733 119.444C87.2917 119.657 87.0495 119.78 86.9673 119.963L87.0224 119.965L87.0353 119.959L86.9509 120.003C86.9278 120.022 86.9235 120.045 86.9161 120.069C86.8816 120.184 86.8317 120.282 86.7721 120.39C86.7277 120.471 87.1509 120.409 87.1847 120.404C87.3381 120.385 87.6183 120.394 87.6779 120.231C87.7111 120.139 87.7182 120.052 87.632 119.982C87.5625 119.926 87.5288 119.887 87.5514 119.802L87.563 119.757C87.5899 119.735 87.634 119.749 87.6657 119.74C87.7405 119.72 87.7291 119.616 87.736 119.566C87.7725 119.308 87.7165 119.049 87.7347 118.79C87.757 118.477 87.6739 118.162 87.6952 117.846C87.7045 117.707 87.7023 117.564 87.701 117.425C87.6997 117.312 87.7078 117.203 87.6878 117.092C87.7028 117.003 87.7035 116.922 87.6358 116.838C87.5359 116.715 87.4337 116.547 87.4063 116.4C87.3528 116.113 87.4378 115.819 87.6168 115.574C87.7007 115.459 87.8392 115.387 87.9153 115.269L87.9533 115.194C88.0606 115.338 88.1785 115.478 88.2779 115.625L88.3066 115.666C88.3451 115.907 88.4222 116.137 88.482 116.378L88.4831 116.382C88.5021 116.518 88.5198 116.654 88.5409 116.79L88.5569 116.861L88.5459 116.967C88.534 117.035 88.4998 117.107 88.4932 117.172C88.4724 117.37 88.5307 117.557 88.532 117.753C88.5323 117.848 88.6099 117.912 88.6641 117.988C88.6923 118.027 88.7123 118.065 88.7308 118.104L88.7719 118.412C88.796 118.544 88.7714 118.721 88.8229 118.859C88.8274 118.956 88.8264 119.053 88.8018 119.148C88.7658 119.287 88.7458 119.382 88.8061 119.521L88.8252 119.563C88.8262 119.63 88.814 119.695 88.7978 119.766C88.7795 119.845 88.7146 119.935 88.7257 120.017L88.7508 120.022C88.7207 120.119 88.7222 120.248 88.743 120.334C88.7536 120.377 88.7582 120.385 88.8127 120.388C88.903 120.396 88.9948 120.401 89.0851 120.406C89.1918 120.411 89.3917 120.347 89.4444 120.267C89.4604 120.243 89.448 120.144 89.4475 120.119C89.4452 120.043 89.4295 119.98 89.4041 119.909L89.4117 119.896C89.4074 119.873 89.3902 119.862 89.3686 119.846C89.3159 119.808 89.2864 119.771 89.2623 119.724L89.2202 119.567C89.2925 119.461 89.3222 119.378 89.289 119.255C89.2667 119.169 89.2233 119.085 89.1766 119.003C89.1619 118.89 89.1305 118.775 89.1239 118.666C89.1102 118.446 89.0851 118.22 89.1028 118.001C89.1112 117.892 89.1665 117.788 89.1807 117.678C89.1921 117.587 89.2099 117.496 89.2137 117.404C89.2185 117.289 89.1756 117.175 89.1426 117.064C89.1198 116.99 89.1153 116.907 89.1137 116.825C89.1604 116.686 89.2301 116.556 89.2953 116.423C89.381 116.248 89.3727 115.995 89.306 115.787L89.3034 115.767C89.2854 115.615 89.3255 115.426 89.3592 115.277L89.3869 115.132C89.3914 115.183 89.3975 115.235 89.4071 115.287L89.4097 115.289C89.4224 115.549 89.5375 115.811 89.677 116.034L89.7439 116.016C89.7363 115.938 89.7614 115.866 89.7865 115.794C89.8187 115.953 89.8514 116.11 89.873 116.273C89.8831 116.349 89.8956 116.426 89.8945 116.503C89.894 116.55 89.8829 116.609 89.9055 116.652L89.9648 116.643C90.0761 116.58 90.1213 116.421 90.1207 116.315C90.1197 116.207 90.0913 116.104 90.066 115.999C90.0574 115.963 90.0188 115.865 90.0203 115.801C90.1169 115.902 90.0774 116.09 90.1918 116.174L90.1973 116.232C90.2156 116.47 90.3371 116.67 90.4694 116.876C90.5924 117.067 90.7524 117.234 90.9343 117.388C91.0286 117.468 91.231 117.621 91.3773 117.613L91.4316 117.591C91.3912 117.526 91.2515 117.509 91.1813 117.47C91.039 117.391 90.9223 117.287 90.8445 117.16C90.7621 117.025 90.7121 116.895 90.6698 116.748L90.6508 116.657L90.615 116.617L90.6155 116.606L90.6178 116.608C90.6528 116.633 90.6802 116.667 90.7083 116.698C90.8199 116.818 90.9201 116.945 91.0233 117.07C91.0938 117.155 91.1795 117.244 91.233 117.337C91.2609 117.386 91.2794 117.484 91.3433 117.51L91.4077 117.492C91.4404 117.342 91.4047 117.169 91.3448 117.027C91.2931 116.903 91.1919 116.794 91.1179 116.68L91.1645 116.721C91.2551 116.799 91.3707 116.851 91.4825 116.906C91.621 116.973 91.8013 117.114 91.974 117.075L92.0128 117.055C91.9968 117.012 91.9689 117.001 91.9192 116.983ZM82.0446 108.733C81.3881 108.076 80.7341 107.418 80.0826 106.758C80.5185 107.501 80.957 108.242 81.3982 108.982L82.0446 108.733Z" fill="#BAB9D6"/>
<path d="M137.667 201.042L121.323 219.835L129.28 224.72L139.498 212.973L152.743 221.121L158.882 214.073L137.667 201.042ZM135.277 185.462L118.934 204.255L126.89 209.14L137.107 197.393L150.353 205.54L156.491 198.493L135.277 185.462ZM126.638 45.8677L116.421 57.6148L103.175 49.4672L97.0366 56.5147L118.251 69.546L134.595 50.7529L126.638 45.8677ZM124.248 30.2871L114.03 42.0344L100.784 33.8866L94.6462 40.9341L115.861 53.9651L132.205 35.1723L124.248 30.2871Z" fill="#76A1C4"/>
<defs>
<filter id="filter0_dd_1_5504" x="1.78711" y="0.798828" width="253.426" height="254.426" filterUnits="userSpaceOnUse" color-interpolation-filters="sRGB">
<feFlood flood-opacity="0" result="BackgroundImageFix"/>
<feColorMatrix in="SourceAlpha" type="matrix" values="0 0 0 0 0 0 0 0 0 0 0 0 0 0 0 0 0 0 127 0" result="hardAlpha"/>
<feOffset dx="-1" dy="-1"/>
<feGaussianBlur stdDeviation="1.5"/>
<feColorMatrix type="matrix" values="0 0 0 0 0 0 0 0 0 0 0 0 0 0 0 0 0 0 0.317623 0"/>
<feBlend mode="normal" in2="BackgroundImageFix" result="effect1_dropShadow_1_5504"/>
<feColorMatrix in="SourceAlpha" type="matrix" values="0 0 0 0 0 0 0 0 0 0 0 0 0 0 0 0 0 0 127 0" result="hardAlpha"/>
<feOffset dx="1" dy="2"/>
<feGaussianBlur stdDeviation="2"/>
<feColorMatrix type="matrix" values="0 0 0 0 0 0 0 0 0 0 0 0 0 0 0 0 0 0 0.293133 0"/>
<feBlend mode="normal" in2="effect1_dropShadow_1_5504" result="effect2_dropShadow_1_5504"/>
<feBlend mode="normal" in="SourceGraphic" in2="effect2_dropShadow_1_5504" result="shape"/>
</filter>
</defs>
</svg>
