<svg width="512" height="314" viewBox="0 0 512 314" fill="none" xmlns="http://www.w3.org/2000/svg">
<path d="M321.348 0C349.405 0 377.462 17.4268 389.128 51.8795C384.201 49.8892 378.935 48.8705 373.621 48.8813C367.53 48.8732 361.514 50.2122 356.001 52.803C348.026 35.9244 333.845 29.3797 319.06 29.3797C299.691 29.3797 281.481 49.7816 261.631 80.7692C264.46 84.6933 267.331 88.7133 270.235 92.7144L271.519 94.4785C287.809 116.798 305.109 137.997 322.071 137.997C335.597 137.997 339.625 135.212 349.472 124.117C356.513 129.165 364.96 131.876 373.622 131.867C378.465 131.867 383.121 131.036 387.455 129.511C387.884 129.497 388.219 129.47 388.447 129.403C376.177 161.448 346.046 179.116 319.207 179.116C286.431 179.116 263.331 149.648 240.341 117.301L239.774 116.504C218.645 150.429 197.361 177.656 166.522 177.656C139.468 177.656 112.415 161.448 100.065 129.405C100.213 129.445 100.414 129.485 100.655 129.512C105.086 131.076 109.75 131.872 114.448 131.867C120.953 131.876 127.366 130.348 133.167 127.409C141.328 142.387 154.814 148.278 168.822 148.278C187.218 148.278 209.003 122.958 225.974 96.9894C202.628 64.1276 184.226 40.345 163.832 39.6599C153.73 39.3248 144.459 45.4554 137.22 55.6941C130.462 51.2375 122.542 48.8692 114.448 48.8813C110.127 48.8813 105.967 49.538 102.046 50.7684C113.833 17.0528 141.368 0 168.902 0C201.247 0 223.787 29.1172 247.425 61.3521C267.523 28.6173 290.402 0 321.348 0ZM115.647 60.2562C132.271 60.2562 145.748 73.7383 145.748 90.3692C145.748 107 132.271 120.482 115.647 120.482C99.0222 120.482 85.5455 107 85.5455 90.3692C85.5455 73.7383 99.0222 60.2562 115.647 60.2562ZM373.614 60.2562C390.239 60.2562 403.715 73.7383 403.715 90.3692C403.715 107 390.239 120.482 373.614 120.482C356.99 120.482 343.513 107 343.513 90.3692C343.513 73.7383 356.99 60.2562 373.614 60.2562Z" fill="#00E7C3"/>
<path d="M375.943 270.497L376.883 273.585C380.373 284.998 388.292 290.906 401.042 291.712C407.753 292.114 410.706 291.712 415.672 289.295C419.026 287.684 425.547 281.696 425.547 281.696L443.32 293.726L438.22 298.963C435.401 301.782 429.764 305.811 425.737 307.824C416.109 312.639 396.669 314.391 384.802 310.376C376.079 307.422 370.978 304.334 365.206 298.291C355.408 288.22 351.114 275.466 352.188 259.219C354.067 229.547 378.896 209.943 409.364 214.239C429.496 217.059 442.112 230.486 445.736 253.042C446.54 257.877 447.212 263.784 447.212 266.202V270.497H375.943ZM198.915 215.448H221.731V229.411L226.429 223.907C232.334 216.925 240.119 213.837 251.258 213.703C261.995 213.703 268.169 216.387 274.746 223.773L279.577 229.143L284.275 224.31C291.792 216.657 298.501 213.837 309.508 213.837C321.721 213.837 328.969 216.791 335.545 224.176C343.733 233.44 344.27 236.394 344.807 274.928L345.343 309.435H321.319L320.783 278.956C320.379 252.64 319.976 247.673 317.829 243.242C311.521 230.352 294.207 231.694 286.96 245.659C284.409 250.492 284.141 253.714 283.738 280.299L283.202 309.435H259.311V278.956C259.311 252.103 258.908 247.673 256.761 242.839C253.809 236.259 248.305 233.574 240.119 234.649C233.274 235.587 226.697 242.033 224.55 249.956C223.745 252.774 223.073 267.141 223.073 282.314V309.435H198.915V215.448ZM27.1172 309.435H2.96075V215.448H27.1172V309.435ZM455.263 215.448H478.081V230.888L481.435 225.921C485.462 219.879 494.052 214.776 501.835 213.569C507.054 212.813 511.618 213.133 511.618 213.133L511.634 235.827L505.729 235.857C493.784 234.917 483.852 241.63 480.899 252.64C480.094 255.46 479.422 269.424 479.422 283.655V309.435H455.263V215.448ZM40.5391 215.448H63.3553V229.411L68.0531 223.907C73.9585 216.925 81.7431 213.837 92.8824 213.703C103.62 213.703 109.795 216.387 116.37 223.773L121.202 229.143L125.9 224.31C133.416 216.657 140.127 213.837 151.132 213.837C163.345 213.837 170.594 216.791 177.171 224.176C185.357 233.44 185.894 236.394 186.431 274.928L186.967 309.435H162.945L162.409 278.956C162.005 252.64 161.603 247.673 159.454 243.242C153.147 230.352 135.833 231.694 128.586 245.659C126.035 250.492 125.767 253.714 125.365 280.299L124.829 309.435H100.938V278.956C100.938 252.103 100.536 247.673 98.3871 242.839C95.4344 236.259 89.9311 233.574 81.7444 234.649C74.8994 235.587 68.3225 242.033 66.1753 249.956C65.3711 252.774 64.6996 267.141 64.6996 282.314V309.435H40.5391V215.448ZM421.711 249.418C421.711 244.182 417.281 237.468 412.047 234.782C399.162 227.934 381.043 235.723 376.748 250.088L375.943 253.042H421.71V249.418H421.711ZM15.4981 168.771C24.0533 168.771 30.9974 175.72 30.9974 184.276C30.9974 192.834 24.0546 199.782 15.4981 199.782C6.94551 199.782 0 192.834 0 184.276C0 175.72 6.94551 168.773 15.4981 168.773V168.771Z" fill="black"/>
</svg>
