<svg width="256" height="266" viewBox="0 0 256 266" fill="none" xmlns="http://www.w3.org/2000/svg">
<g clip-path="url(#clip0_1_5544)">
<path d="M84.1099 58.7334L80.7749 60.9464C53.2879 78.9244 38.8059 104.505 38.4739 137.261C38.0479 179.15 67.5649 215.588 108.394 224.962C161.099 237.063 213.259 198.856 217.499 145.044C220.852 102.481 192.073 64.2434 151.466 51.0264C145.343 44.1994 139.783 21.2544 149.46 10.8034C189.367 19.6714 219.286 40.0484 238.576 72.8674C280.754 144.626 242.837 238.165 162.72 260.507C88.2979 281.261 12.9969 232.201 1.86694 155.709C-10.4841 84.3874 39.8749 20.9384 110.926 10.2754C94.3509 25.2664 85.4819 45.8534 84.1099 58.7334Z" fill="#494949"/>
<path d="M179.584 119.459C185.322 108.767 185.062 97.584 181.804 86.269C181.003 83.486 179.336 78.712 178.211 75.591C197.394 89.767 213.776 123.853 205.449 157.727C197.735 189.112 167.655 214.391 136.625 217.314C96.666 221.077 65.596 197.132 53.901 168.022C41.431 136.987 51.417 98.817 72.849 79.814C62.362 100.928 65.608 117.689 69.893 123.943C74.656 130.896 82.239 134.501 89.64 132.442C97.421 130.278 103.389 123.317 103.254 114.442C103.164 108.516 102.107 101.833 99.77 96.494C85.903 64.817 97.462 36.249 119.829 16.575C126.321 10.864 133.87 5.384 143.478 0C132.92 14.991 131.126 33.256 139.149 50.253C143.852 59.515 149.879 69.188 155.196 78.124C164.753 94.185 170.614 110.698 168.076 129.856C168.048 130.068 175.678 126.899 179.584 119.459Z" fill="#FB3239"/>
</g>
<defs>
<clipPath id="clip0_1_5544">
<rect width="256" height="266" fill="white"/>
</clipPath>
</defs>
</svg>
