<svg width="512" height="103" viewBox="0 0 512 103" fill="none" xmlns="http://www.w3.org/2000/svg">
<g clip-path="url(#clip0_1_5551)">
<path d="M150.245 28.8105C147.632 28.8105 145.494 27.8604 143.594 26.1977C141.932 24.535 140.981 22.3973 140.981 20.022C140.981 17.4092 141.932 15.509 143.594 13.8463C145.494 12.1836 147.632 11.2335 150.245 11.2335C152.858 11.2335 154.996 12.1836 156.658 13.8463C158.321 15.509 159.271 17.4092 159.271 20.022C159.271 22.3973 158.321 24.535 156.658 26.1977C154.758 27.8604 152.62 28.8105 150.245 28.8105ZM141.932 82.2543V35.9364H158.083V82.2543H141.932ZM169.247 82.2543V35.9364H185.162L185.399 41.637C186.587 39.2617 188.249 37.599 190.625 36.4114C193 35.2238 195.613 34.5112 198.701 34.5112C203.926 34.5112 207.964 36.1739 210.577 39.4993C213.427 42.8247 214.615 47.5752 214.615 53.9885V82.2543H198.463V57.0763C198.463 51.6132 196.325 49.0004 192.287 49.0004C190.15 49.0004 188.487 49.713 187.062 51.3757C185.874 52.8008 185.399 54.9386 185.399 57.7889V82.2543H169.247ZM230.054 82.2543V49.0004H222.691V35.9364H230.054V31.4233C230.054 24.2975 231.717 18.8343 235.28 15.0339C238.843 11.2335 243.831 9.0957 250.244 9.0957C252.144 9.0957 253.807 9.33323 255.47 9.57076C257.133 9.80829 258.558 10.2833 259.745 10.7584L258.558 24.06C257.845 23.8224 257.133 23.5849 256.182 23.3474C255.232 23.1098 254.52 23.1098 253.57 23.1098C250.957 23.1098 249.057 23.8224 247.869 25.2476C246.681 26.6728 245.969 29.048 245.969 32.3734V35.6988H256.895V49.0004H245.969V82.2543H230.054ZM264.258 82.2543V9.57076H280.41V82.2543H264.258ZM306.776 83.6795C301.788 83.6795 297.75 82.0168 295.137 78.9289C292.524 75.6035 291.099 70.8529 291.099 64.6772V36.1739H307.488V61.3518C307.488 64.2022 307.964 66.1024 308.914 67.5276C309.864 68.9527 311.526 69.4278 313.664 69.4278C315.802 69.4278 317.465 68.7152 318.652 67.29C319.84 65.6273 320.553 63.4896 320.553 60.6393V35.9364H336.704V82.2543H320.79L320.315 76.5536C319.127 78.9289 317.227 80.5916 314.852 81.7792C312.714 82.9669 309.864 83.6795 306.776 83.6795ZM343.83 82.2543L360.695 58.5015L344.78 36.1739H362.832L370.433 48.7629L377.797 36.1739H395.136L379.222 58.739L396.086 82.4918H377.797L369.246 68.4777L361.17 82.2543H343.83ZM424.59 83.6795C420.552 83.6795 416.751 82.7293 413.426 80.5916C410.101 78.4538 407.725 75.841 405.825 72.0406C403.925 68.4777 402.975 64.2022 402.975 59.6891C402.975 55.1761 403.925 51.1381 405.825 47.5752C407.963 44.0123 410.576 41.162 413.901 39.0242C417.226 36.8865 421.027 35.6988 425.302 35.6988C428.628 35.6988 431.716 36.6489 434.566 38.3116C437.416 39.9743 439.792 42.3496 441.454 45.4375V9.57076H449.055V82.2543H441.692L441.454 74.1783C439.554 77.2662 437.179 79.6415 434.328 81.3042C431.716 82.9669 428.39 83.6795 424.59 83.6795ZM426.49 76.7911C429.578 76.7911 432.428 76.0786 434.566 74.6534C436.941 73.2282 438.841 71.328 440.029 68.7152C441.454 66.1024 442.167 63.2521 442.167 59.9267C442.167 56.6013 441.454 53.5134 440.029 51.1381C438.604 48.5253 436.941 46.6251 434.566 45.1999C432.191 43.7748 429.578 43.0622 426.49 43.0622C423.402 43.0622 420.789 43.7748 418.414 45.1999C416.039 46.6251 414.138 48.5253 412.951 51.1381C411.526 53.7509 411.051 56.6013 411.051 59.9267C411.051 63.2521 411.763 66.3399 412.951 68.7152C414.376 71.328 416.276 73.2282 418.414 74.6534C420.789 76.0786 423.402 76.7911 426.49 76.7911ZM489.435 83.6795C485.872 83.6795 482.784 82.7293 479.934 81.0666C477.083 79.4039 474.946 77.0287 473.283 73.9408L473.045 82.0168H465.682V9.57076H473.283V45.4375C475.183 42.3496 477.558 39.9743 480.409 38.3116C483.259 36.6489 486.585 35.6988 490.385 35.6988C494.66 35.6988 498.223 36.6489 501.549 38.7867C504.874 40.9244 507.249 43.5372 509.15 47.3377C511.05 50.9006 512 54.9386 512 59.6891C512 64.2022 511.05 68.2401 508.912 71.8031C507.012 75.366 504.162 78.2163 500.836 80.3541C497.273 82.7293 493.473 83.6795 489.435 83.6795ZM488.247 76.7911C491.335 76.7911 494.185 76.0786 496.323 74.6534C498.698 73.2282 500.599 71.328 501.786 68.7152C503.211 66.1024 503.924 63.2521 503.924 59.9267C503.924 56.6013 503.211 53.5134 501.786 51.1381C500.361 48.5253 498.698 46.6251 496.323 45.1999C493.948 43.7748 491.335 43.0622 488.247 43.0622C485.159 43.0622 482.547 43.7748 480.171 45.1999C477.796 46.6251 475.896 48.5253 474.708 51.1381C473.283 53.7509 472.808 56.6013 472.808 59.9267C472.808 63.2521 473.52 66.3399 474.708 68.7152C476.133 71.328 478.033 73.2282 480.171 74.6534C482.547 76.0786 485.159 76.7911 488.247 76.7911Z" fill="#020A47"/>
<path d="M22.8432 60.6862L23.0275 60.7324L66.3363 73.9881C66.6991 74.092 67.0377 74.2665 67.3328 74.5015C67.6279 74.7366 67.8738 75.0275 68.0562 75.3578C68.2388 75.688 68.3542 76.051 68.3961 76.4258C68.4297 76.7257 68.4155 77.0286 68.3548 77.3233L68.3004 77.5425L61.0431 100.774C60.7878 101.482 60.289 102.077 59.636 102.451C59.0423 102.791 58.3562 102.929 57.6805 102.847L57.4781 102.816L14.1692 89.4335C13.4457 89.2132 12.8386 88.7161 12.4799 88.0503C12.1538 87.4451 12.0571 86.7451 12.2031 86.078L12.2542 85.8789L19.4625 62.6962C19.6769 61.9645 20.1722 61.3473 20.8401 60.9794C21.4523 60.6421 22.164 60.5394 22.8432 60.6862ZM95.9556 71.2941L95.8574 71.3959L66.9353 98.1722C65.8708 99.2364 65.3215 98.8849 65.6609 97.4993L65.6978 97.3573L71.7277 77.955C71.9984 77.1529 72.4669 76.4319 73.09 75.8587C73.6439 75.3492 74.3039 74.971 75.0211 74.7506L75.2926 74.6754L95.1698 70.1587C96.5785 69.6524 96.9079 70.2162 96.0458 71.1949L95.9556 71.2941ZM1.32953 41.0877L1.42188 41.1925L15.2689 56.1371C15.8125 56.7932 16.1942 57.5676 16.3836 58.3982C16.5518 59.1365 16.5639 59.9007 16.4202 60.6421L16.359 60.9189L10.3292 80.3213C9.95896 81.7736 9.28589 81.822 8.99302 80.4666L8.9641 80.3213L0.184473 41.8799C-0.243199 40.426 0.414404 40.0848 1.32953 41.0877ZM89.628 16.3637C90.217 16.7164 90.6557 17.2699 90.8658 17.919L90.9173 18.0983L101.062 62.0973C101.169 62.4568 101.2 62.8344 101.153 63.2065C101.106 63.5785 100.982 63.9366 100.789 64.2581C100.596 64.5795 100.338 64.8572 100.031 65.0736C99.7861 65.2466 99.5147 65.3773 99.2278 65.4607L99.0099 65.5144L75.1552 70.9836C74.4286 71.1649 73.6597 71.0508 73.0172 70.666C72.4283 70.3133 71.9895 69.7598 71.7794 69.1107L71.7278 68.9314L61.6126 24.9323C61.4308 24.2097 61.5427 23.4446 61.9236 22.8043C62.2728 22.2173 62.8221 21.779 63.4673 21.5674L63.6455 21.5153L87.4899 16.0461C88.2166 15.8648 88.9855 15.9789 89.628 16.3637ZM58.5342 26.6514L58.5782 26.7979L68.1729 68.3325C68.5626 69.8433 67.683 70.6553 66.2552 70.3324L66.1106 70.2963L25.2667 57.7279C23.8159 57.3297 23.5096 56.1718 24.4802 55.1114L24.5891 54.9982L55.8382 25.9732C56.892 24.9196 58.0834 25.2698 58.5342 26.6514ZM36.0652 0.000847317C36.4371 0.00998213 36.8033 0.0928731 37.1429 0.24471C37.4145 0.366179 37.6647 0.529838 37.8843 0.729213L38.0432 0.885341L54.6007 18.8149C55.101 19.3551 55.3673 20.0712 55.3416 20.807C55.3179 21.4815 55.0507 22.1224 54.5928 22.6126L54.4632 22.7425L21.299 53.4957C20.7517 54.0014 20.0268 54.2705 19.2821 54.2448C18.5994 54.2212 17.9505 53.9515 17.4534 53.4892L17.3216 53.3583L0.734625 35.4189C0.239131 34.8764 -0.0239822 34.1613 0.00172054 33.4271C0.0252814 32.754 0.289808 32.114 0.743676 31.6218L0.872114 31.4913L34.0461 0.787151C34.3139 0.528946 34.6301 0.326478 34.9768 0.191497C35.3234 0.0565165 35.6933 -0.00828752 36.0652 0.000847317ZM44.4561 0.751454L44.5933 0.787306L82.4224 12.364C83.8844 12.7531 83.9331 13.4084 82.613 13.8242L82.4715 13.8663L62.5946 18.3732C61.7616 18.544 60.8998 18.5128 60.0814 18.2821C59.3539 18.0772 58.6795 17.7199 58.1023 17.2353L57.8905 17.0477L44.0434 2.15215C42.8543 0.96313 43.0751 0.409935 44.4561 0.751454Z" fill="#020A47"/>
</g>
<defs>
<clipPath id="clip0_1_5551">
<rect width="512" height="103" fill="white"/>
</clipPath>
</defs>
</svg>
