<svg width="256" height="261" viewBox="0 0 256 261" fill="none" xmlns="http://www.w3.org/2000/svg">
<g clip-path="url(#clip0_1_5548)">
<path d="M57.7997 153.553L58.2661 153.67L167.85 187.211C168.768 187.474 169.625 187.915 170.371 188.51C171.118 189.105 171.74 189.841 172.202 190.677C172.664 191.512 172.956 192.431 173.062 193.379C173.147 194.138 173.111 194.904 172.957 195.65L172.82 196.205L154.456 254.988C153.81 256.779 152.549 258.284 150.896 259.23C149.394 260.09 147.658 260.44 145.948 260.234L145.436 260.155L35.8521 226.292C34.0215 225.735 32.4853 224.477 31.5776 222.792C30.7527 221.261 30.508 219.49 30.8774 217.802L31.0066 217.298L49.2458 158.639C49.7882 156.788 51.0414 155.226 52.7313 154.295C54.2804 153.442 56.0813 153.182 57.7997 153.553ZM242.795 180.394L242.547 180.652L169.365 248.404C166.672 251.096 165.282 250.207 166.141 246.701L166.234 246.342L181.492 197.248C182.177 195.219 183.362 193.394 184.939 191.944C186.34 190.655 188.01 189.698 189.825 189.14L190.512 188.95L240.807 177.521C244.371 176.24 245.205 177.667 243.023 180.143L242.795 180.394ZM3.3641 103.964L3.59775 104.229L38.6348 142.043C40.0101 143.703 40.976 145.663 41.4552 147.764C41.8809 149.632 41.9115 151.566 41.5479 153.442L41.393 154.142L26.1359 203.236C25.199 206.91 23.4959 207.033 22.7549 203.603L22.6817 203.236L0.466769 105.968C-0.615363 102.289 1.04856 101.426 3.3641 103.964ZM226.785 41.4048C228.275 42.2972 229.385 43.6978 229.916 45.3401L230.047 45.7938L255.715 157.124C255.987 158.034 256.065 158.989 255.946 159.93C255.826 160.872 255.513 161.778 255.025 162.591C254.537 163.405 253.884 164.107 253.108 164.655C252.487 165.093 251.801 165.423 251.075 165.634L250.523 165.77L190.164 179.609C188.326 180.068 186.38 179.779 184.754 178.805C183.264 177.913 182.154 176.512 181.622 174.87L181.492 174.416L155.898 63.086C155.438 61.2575 155.721 59.3215 156.684 57.7013C157.568 56.2161 158.958 55.107 160.59 54.5716L161.041 54.4399L221.374 40.6011C223.213 40.1424 225.159 40.4313 226.785 41.4048ZM148.108 67.4355L148.219 67.8064L172.497 172.901C173.483 176.724 171.257 178.778 167.645 177.961L167.279 177.87L63.932 146.068C60.2611 145.061 59.4859 142.131 61.9419 139.448L62.2174 139.161L141.287 65.7195C143.953 63.0536 146.968 63.9398 148.108 67.4355ZM91.2551 0.00214395C92.1962 0.0252576 93.123 0.234996 93.9821 0.619187C94.6694 0.926538 95.3025 1.34064 95.8582 1.84512L96.2601 2.24017L138.155 47.6072C139.421 48.974 140.095 50.7859 140.03 52.6478C139.97 54.3543 139.294 55.9759 138.135 57.2164L137.808 57.545L53.8926 135.36C52.5076 136.639 50.6736 137.32 48.7892 137.255C47.0618 137.195 45.4199 136.513 44.162 135.343L43.8287 135.012L1.85881 89.62C0.60507 88.2472 -0.0606819 86.4378 0.00435346 84.58C0.0639693 82.8769 0.733297 81.2575 1.88171 80.0121L2.2067 79.6819L86.1464 1.99172C86.8239 1.33838 87.6242 0.826082 88.5012 0.484543C89.3783 0.143003 90.3143 -0.0209698 91.2551 0.00214395ZM112.487 1.90139L112.834 1.99211L208.552 31.2844C212.252 32.2691 212.375 33.9271 209.034 34.9791L208.677 35.0857L158.382 46.4893C156.275 46.9216 154.094 46.8426 152.023 46.259C150.182 45.7404 148.476 44.8365 147.015 43.6103L146.48 43.1355L111.442 5.44556C108.434 2.437 108.992 1.03725 112.487 1.90139Z" fill="#020A47"/>
</g>
<defs>
<clipPath id="clip0_1_5548">
<rect width="256" height="261" fill="white"/>
</clipPath>
</defs>
</svg>
