<svg width="256" height="256" viewBox="0 0 256 256" fill="none" xmlns="http://www.w3.org/2000/svg">
<g clip-path="url(#clip0_1_5555)">
<path d="M25.5491 25.3301L26.6721 29.7871L68.2171 71.5571L110.66 28.8891L111.004 25.3301H25.5491Z" fill="url(#paint0_linear_1_5555)"/>
<path d="M68.131 67.8398L67.468 70.4348L90.674 167.223L130.198 127.7L70.912 68.1889L68.131 67.8398Z" fill="#F6B937"/>
<path d="M185.89 67.5906L226.312 27.0186L230.669 25.7676V109.96L227.211 109.511L185.89 67.5906Z" fill="#FFD500"/>
<path d="M136.189 0L230.669 25.767L188.379 67.621L179.472 72.4265L98.6225 93.0654L91.4801 91.197L68.1311 67.84L136.189 0Z" fill="#FFF67D"/>
<path d="M188.379 67.6211L184.992 69.2371L163.733 89.8971L164.213 91.7871L163.583 94.5381L186.04 184.366L187.942 187.505L188.136 189.755L227.66 229.129L230.596 230.16L256 135.388L188.379 67.6211Z" fill="#5ACDA5"/>
<path d="M25.9131 145.434V230.306L30.9391 229.205L72.2591 187.288L28.9181 146.34L25.9131 145.434Z" fill="url(#paint1_linear_1_5555)"/>
<path d="M25.9131 230.305L68.3491 187.287L72.2591 185.301L164.556 162.395L187.942 187.505L186.901 189.905L149.51 228.643L146.006 230.079L120.976 255.49L25.9131 230.305Z" fill="#AFE682"/>
<path d="M164.213 91.7871L160.851 93.6781L128.738 125.229L128.109 127.891L187.942 187.505L164.213 91.7871Z" fill="#7DD769"/>
<path d="M188.379 67.6211L128.109 127.891L91.48 91.1971L188.379 67.6211Z" fill="#AADC50"/>
<path d="M146.088 230.161L187.942 187.506L230.596 230.161H146.088Z" fill="url(#paint2_linear_1_5555)"/>
<path d="M0 120.247L68.349 187.286L71.585 185.525L92.358 167.447L91.569 164.212L68.131 67.8391L25.549 25.3301L0 120.247Z" fill="#DC4B1E"/>
<path d="M68.3491 187.287L128.109 127.891L164.504 164.14L68.3491 187.287Z" fill="#AABE55"/>
</g>
<defs>
<linearGradient id="paint0_linear_1_5555" x1="3295.39" y1="473.819" x2="3919.31" y2="2256.05" gradientUnits="userSpaceOnUse">
<stop stop-color="#DB221A"/>
<stop offset="1" stop-color="#9E020B"/>
</linearGradient>
<linearGradient id="paint1_linear_1_5555" x1="25.9131" y1="5099.69" x2="2869.61" y2="4736.69" gradientUnits="userSpaceOnUse">
<stop stop-color="#87D152"/>
<stop offset="1" stop-color="#5CA82C"/>
</linearGradient>
<linearGradient id="paint2_linear_1_5555" x1="4877.42" y1="4205.84" x2="4695.9" y2="2272.08" gradientUnits="userSpaceOnUse">
<stop stop-color="#39BE90"/>
<stop offset="1" stop-color="#2C8A72"/>
</linearGradient>
<clipPath id="clip0_1_5555">
<rect width="256" height="256" fill="white"/>
</clipPath>
</defs>
</svg>
