<svg width="512" height="146" viewBox="0 0 512 146" fill="none" xmlns="http://www.w3.org/2000/svg">
<g clip-path="url(#clip0_1_5577)">
<path d="M27.1265 0.902049C16.6803 5.2781 5.19643 17.6254 1.56948 33.1349C-3.02392 52.7807 16.091 61.0895 17.6588 58.3689C19.5041 55.168 14.2337 54.0856 13.1488 43.892C11.7468 30.726 17.8676 16.0146 25.5716 9.55966C27.0028 8.36041 26.935 10.0296 26.935 13.117C26.935 18.6382 26.63 68.2017 26.63 78.5456C26.63 92.5423 26.0518 96.9622 25.0132 101.33C23.9617 105.756 22.2703 108.746 23.5511 109.898C24.9832 111.187 31.0971 108.121 34.6364 103.182C38.8802 97.2577 40.3655 90.143 40.6327 82.4166C40.9548 73.1026 40.9411 58.3234 40.9548 49.8934C40.9668 42.1619 41.0845 19.5222 40.8191 5.91209C40.7538 2.57378 31.4957 -0.928608 27.1265 0.902049Z" fill="#343433"/>
<path d="M398.07 66.4047C397.733 73.6809 396.122 79.3688 394.123 83.3806C390.253 91.1473 382.223 93.5587 378.813 82.3944C376.955 76.3088 376.868 66.1444 378.204 57.6517C379.564 49.0001 383.361 42.4661 389.648 43.0554C395.85 43.6379 398.753 51.6289 398.07 66.4047ZM293.52 111.55C293.436 123.64 291.533 134.241 287.453 137.32C281.665 141.686 273.886 138.411 275.497 129.589C276.922 121.781 283.663 113.809 293.537 104.067C293.537 104.067 293.557 106.288 293.52 111.55ZM291.94 66.3334C291.586 72.961 289.868 79.6188 287.993 83.3806C284.124 91.1473 276.035 93.5751 272.683 82.3944C270.391 74.7548 270.94 64.8678 272.074 58.6379C273.545 50.555 277.112 43.0563 283.518 43.0563C289.746 43.0563 292.818 49.8893 291.94 66.3334ZM231.375 66.2329C230.995 73.2514 229.626 79.1188 227.428 83.3806C223.453 91.0941 215.587 93.5398 212.118 82.3944C209.618 74.357 210.469 63.3988 211.509 57.4791C213.053 48.6943 216.919 42.4661 222.954 43.0563C229.153 43.6619 232.166 51.6289 231.375 66.2329ZM508.928 74.4309C507.413 74.4309 506.721 75.9935 506.149 78.6222C504.164 87.7652 502.079 89.8287 499.389 89.8287C496.384 89.8287 493.684 85.3023 492.99 76.2401C492.444 69.1142 492.532 55.9963 493.229 42.9472C493.372 40.2661 492.632 37.6133 485.441 35.0009C482.347 33.8772 477.849 32.2227 475.609 37.6287C469.281 52.902 466.806 65.0276 466.223 69.9526C466.193 70.2077 465.88 70.2602 465.825 69.664C465.454 65.7192 464.625 58.5494 464.521 43.4875C464.502 40.5487 463.879 38.0471 460.635 35.9991C458.53 34.6701 452.139 32.3198 449.837 35.116C447.844 37.4028 445.534 43.5571 443.135 50.8523C441.185 56.7815 439.827 60.7924 439.827 60.7924C439.827 60.7924 439.853 44.7942 439.876 38.7258C439.886 36.4364 438.316 35.6735 437.842 35.5352C435.711 34.9175 431.512 33.8841 429.729 33.8841C427.53 33.8841 426.992 35.1126 426.992 36.9037C426.992 37.1391 426.645 57.967 426.645 72.5315C426.645 73.1646 426.645 73.8545 426.648 74.5881C425.432 81.2819 421.487 90.369 417.197 90.369C412.901 90.369 410.875 86.5703 410.875 69.2069C410.875 59.0786 411.179 54.6734 411.328 47.3473C411.415 43.1276 411.583 39.8872 411.573 39.1519C411.541 36.8968 407.642 35.7603 405.828 35.3402C404.005 34.9175 402.421 34.7526 401.184 34.8231C399.433 34.9227 398.194 36.0704 398.194 37.6502C398.194 38.4981 398.204 40.108 398.204 40.108C395.949 36.5644 392.322 34.098 389.909 33.3833C383.409 31.453 376.627 33.1642 371.511 40.3219C367.445 46.0097 364.994 52.4518 364.029 61.7073C363.324 68.4742 363.554 75.3355 364.808 81.1384C363.293 87.6862 360.481 90.369 357.403 90.369C352.933 90.369 349.693 83.0739 350.069 70.456C350.317 62.1575 351.978 56.3331 353.793 47.9074C354.567 44.3157 353.938 42.4352 352.361 40.6329C350.914 38.98 347.832 38.1356 343.401 39.1742C340.245 39.9147 335.732 40.7111 331.603 41.3227C331.603 41.3227 331.852 40.3288 332.057 38.5763C333.131 29.3861 323.144 30.1317 319.958 33.0671C318.056 34.8196 316.761 36.8865 316.27 40.6028C315.491 46.5003 320.301 49.2819 320.301 49.2819C318.723 56.5066 314.854 65.9425 310.86 72.7652C308.721 76.4205 307.085 79.1291 304.972 82.0087C304.965 80.9366 304.959 79.8636 304.955 78.7966C304.907 63.6093 305.109 51.6572 305.198 47.3482C305.285 43.1284 305.454 39.974 305.445 39.2386C305.421 37.5901 304.458 36.9664 302.455 36.1778C300.683 35.4802 298.589 34.9974 296.416 34.8291C293.674 34.616 292.022 36.0695 292.065 37.7894C292.074 38.1141 292.074 40.108 292.074 40.108C289.819 36.5644 286.192 34.098 283.779 33.3833C277.279 31.4538 270.497 33.1642 265.381 40.3219C261.316 46.0097 258.654 53.9913 257.899 61.6369C257.197 68.7628 257.326 74.8175 258.284 79.9194C257.251 85.0274 254.279 90.369 250.919 90.369C246.624 90.369 244.18 86.5703 244.18 69.2069C244.18 59.0786 244.484 54.6734 244.634 47.3482C244.721 43.1284 244.888 39.8872 244.879 39.1527C244.847 36.8977 240.948 35.7611 239.133 35.3402C237.235 34.9012 235.596 34.7397 234.337 34.8334C232.676 34.9562 231.509 36.4432 231.509 37.5523V40.108C229.254 36.5644 225.627 34.098 223.214 33.3833C216.714 31.4538 209.97 33.1917 204.816 40.3219C201.456 44.9711 198.735 50.1255 197.335 61.5355C196.93 64.8326 196.751 67.9209 196.775 70.8065C195.435 79.0028 189.516 88.4482 184.674 88.4482C181.841 88.4482 179.142 82.9528 179.142 71.2412C179.142 55.6407 180.108 33.4297 180.271 31.2889C180.271 31.2889 186.389 31.1849 187.573 31.1712C190.625 31.1377 193.388 31.2098 197.452 31.0019C199.491 30.898 201.455 23.5822 199.351 22.6768C198.397 22.267 191.658 21.9079 188.986 21.8512C186.74 21.8006 180.486 21.3375 180.486 21.3375C180.486 21.3375 181.047 6.59433 181.178 5.03685C181.288 3.73881 179.609 3.07046 178.646 2.66498C176.304 1.67449 174.209 1.20029 171.725 0.688286C168.294 -0.0195797 166.738 0.672823 166.433 3.56872C165.976 7.96367 165.739 20.8367 165.739 20.8367C163.221 20.8367 154.62 20.3444 152.101 20.3444C149.761 20.3444 147.235 30.4083 150.47 30.532C154.193 30.6764 160.68 30.8018 164.98 30.9306C164.98 30.9306 164.788 53.5085 164.788 60.4798C164.788 61.2211 164.792 61.935 164.796 62.6283C162.429 74.9635 154.093 81.6272 154.093 81.6272C155.883 73.4662 152.226 67.3376 145.639 62.1498C143.212 60.2384 138.421 56.6191 133.061 52.6529C133.061 52.6529 136.165 49.5937 138.919 43.4369C140.87 39.0754 140.954 34.086 136.165 32.9855C128.253 31.166 121.73 36.9767 119.784 43.18C118.276 47.9864 119.08 51.5515 122.034 55.2558C122.249 55.5264 122.483 55.803 122.724 56.0814C120.938 59.5236 118.485 64.1582 116.407 67.7526C110.639 77.7314 106.282 85.6245 102.989 85.6245C100.357 85.6245 100.392 77.6103 100.392 70.1072C100.392 63.6394 100.87 53.9148 101.251 43.8466C101.378 40.5169 99.7128 38.6201 96.9217 36.902C95.226 35.8582 91.6067 33.8059 89.5106 33.8059C86.3734 33.8059 77.3214 34.2329 68.7686 58.973C67.6905 62.0913 65.5729 67.7732 65.5729 67.7732L65.7559 38.0222C65.7559 37.3246 65.3839 36.6503 64.5335 36.189C63.092 35.4064 59.2425 33.8059 55.82 33.8059C54.1895 33.8059 53.3751 34.5645 53.3751 36.0764L53.077 82.622C53.077 86.1596 53.1689 90.2849 53.5186 92.0889C53.8674 93.8955 54.4318 95.3653 55.1302 96.2399C55.8286 97.1127 56.6361 97.7784 57.9668 98.0533C59.2056 98.3085 65.9904 99.1796 66.3426 96.5869C66.7653 93.4797 66.7816 90.119 70.3441 77.5854C75.8902 58.0718 83.1201 48.5508 86.5203 45.1696C87.1147 44.5785 87.7934 44.5433 87.7607 45.5106C87.6156 49.7887 87.1053 60.4797 86.7616 69.5609C85.8407 93.8654 90.2623 98.3703 96.5807 98.3703C101.415 98.3703 108.229 93.5673 115.533 81.409C120.087 73.8321 124.509 66.403 127.686 61.0484C129.899 63.0982 132.384 65.3034 134.866 67.6598C140.636 73.1354 142.53 78.3388 141.273 83.2749C140.312 87.0488 136.692 90.9377 130.249 87.1579C128.371 86.0548 127.57 85.2026 125.681 83.9596C124.667 83.2921 123.118 83.0919 122.189 83.7921C119.777 85.6107 118.397 87.9242 117.61 90.7883C116.843 93.5751 119.634 95.0483 122.528 96.3369C125.019 97.446 130.374 98.4511 133.788 98.5653C147.093 99.0103 157.752 92.1413 165.172 74.4223C166.5 89.7256 172.152 98.3841 181.973 98.3841C188.539 98.3841 195.122 89.8974 198.001 81.5482C198.827 84.9518 200.05 87.9113 201.63 90.4146C209.198 102.404 223.878 99.8239 231.252 89.6423C233.532 86.4964 233.879 85.3659 233.879 85.3659C234.955 94.9796 242.697 98.3385 247.129 98.3385C252.094 98.3385 257.22 95.9916 260.812 87.9035C261.233 88.7815 261.693 89.6199 262.195 90.4146C269.762 102.404 284.443 99.8239 291.817 89.6423C292.165 89.1646 292.466 88.7317 292.73 88.3425L292.946 94.6575C292.946 94.6575 288.74 98.5164 286.157 100.884C274.777 111.314 266.133 119.225 265.497 128.437C264.688 140.184 274.209 144.55 281.423 145.122C289.07 145.729 295.631 141.501 299.657 135.584C303.201 130.375 305.521 119.166 305.35 108.094C305.283 103.66 305.171 98.0233 305.083 91.9806C309.078 87.3417 313.578 81.4778 317.723 74.6156C322.239 67.1366 327.079 57.0925 329.557 49.2759C329.557 49.2759 333.762 49.312 338.25 49.0182C339.685 48.9245 340.098 49.2175 339.832 50.2698C339.512 51.5412 334.162 72.1741 339.044 85.9191C342.386 95.3284 349.919 98.3557 354.386 98.3557C359.614 98.3557 364.615 94.4075 367.296 88.5444C367.619 89.1981 367.956 89.8304 368.325 90.4146C375.892 102.404 390.521 99.8084 397.947 89.6423C399.623 87.3486 400.574 85.3659 400.574 85.3659C402.167 95.3155 409.905 98.3892 414.337 98.3892C418.953 98.3892 423.335 96.4967 426.889 88.0857C427.038 91.7891 427.272 94.8173 427.641 95.7717C427.866 96.3558 429.178 97.0886 430.132 97.4425C434.356 99.0086 438.663 98.2681 440.256 97.946C441.36 97.7226 442.221 96.8369 442.339 94.5501C442.648 88.5453 442.458 78.4565 444.279 70.9577C447.334 58.3742 450.185 53.493 451.537 51.0765C452.294 49.7226 453.147 49.4992 453.178 50.9322C453.242 53.8315 453.386 62.3456 454.57 73.7849C455.439 82.1977 456.601 87.1708 457.493 88.7446C460.041 93.2452 463.186 93.4582 465.748 93.4582C467.378 93.4582 470.786 93.0081 470.481 90.144C470.332 88.748 470.592 80.1205 473.605 67.7234C475.572 59.6276 478.852 52.3135 480.035 49.6384C480.472 48.6522 480.674 49.4297 480.667 49.5809C480.418 55.1562 479.859 73.3923 482.13 83.366C485.209 96.8773 494.116 98.3892 497.22 98.3892C503.846 98.3892 509.265 93.3491 511.09 80.0869C511.53 76.8955 510.879 74.4309 508.928 74.4309Z" fill="#343433"/>
</g>
<defs>
<clipPath id="clip0_1_5577">
<rect width="512" height="146" fill="white"/>
</clipPath>
</defs>
</svg>
