<svg width="256" height="256" viewBox="0 0 256 256" fill="none" xmlns="http://www.w3.org/2000/svg">
<g clip-path="url(#clip0_1_5585)">
<path d="M40.5333 180.56L2.88 150.827L25.04 109.787L58.3467 120.934L40.5333 180.56Z" fill="url(#paint0_linear_1_5585)"/>
<path d="M256 68.2402L251.387 216.507L152.773 256L99.0667 221.334L256 68.2402Z" fill="#087CFA"/>
<path d="M256 68.2408L207.2 115.841L144.533 38.9608L175.467 4.1875L256 68.2408Z" fill="url(#paint1_linear_1_5585)"/>
<path d="M99.0667 221.333L20.64 249.68L37.0667 192.16L58.3467 120.933L0 101.413L37.0667 0L120.853 9.89333L207.2 115.84L99.0667 221.333Z" fill="url(#paint2_linear_1_5585)"/>
<path d="M49.1467 48H209.147V208H49.1467V48Z" fill="black"/>
<path d="M69.0934 177.76H129.093V187.76H69.0934V177.76ZM99.0401 78.9867V68.0533H69.2001V78.9867H77.5734V116.747H69.2001V127.68H99.0401V116.747H90.6934V78.9867H99.0401ZM127.467 128.427L127.653 128.533C123.587 128.665 119.555 127.747 115.947 125.867C112.983 124.271 110.342 122.137 108.16 119.573L116.4 110.373C117.905 112.072 119.648 113.545 121.573 114.747C123.294 115.813 125.282 116.368 127.307 116.347C129.497 116.452 131.626 115.606 133.147 114.027C134.753 111.855 135.511 109.171 135.28 106.48V68H148.613V107.067C148.673 110.231 148.176 113.381 147.147 116.373C145.37 121.414 141.364 125.351 136.293 127.04C133.452 128.002 130.466 128.471 127.467 128.427Z" fill="white"/>
</g>
<defs>
<linearGradient id="paint0_linear_1_5585" x1="2057.17" y1="3720.45" x2="9895.84" y2="3321.79" gradientUnits="userSpaceOnUse">
<stop offset="0.09" stop-color="#FC801D"/>
<stop offset="0.23" stop-color="#B07F61"/>
<stop offset="0.41" stop-color="#577DB3"/>
<stop offset="0.53" stop-color="#1E7CE6"/>
<stop offset="0.59" stop-color="#087CFA"/>
</linearGradient>
<linearGradient id="paint1_linear_1_5585" x1="8343.73" y1="12817.5" x2="4097.16" y2="128.458" gradientUnits="userSpaceOnUse">
<stop stop-color="#FE2857"/>
<stop offset="0.08" stop-color="#CB3979"/>
<stop offset="0.16" stop-color="#9E4997"/>
<stop offset="0.25" stop-color="#7557B2"/>
<stop offset="0.34" stop-color="#5362C8"/>
<stop offset="0.44" stop-color="#386CDA"/>
<stop offset="0.54" stop-color="#2373E8"/>
<stop offset="0.66" stop-color="#1478F2"/>
<stop offset="0.79" stop-color="#0B7BF8"/>
<stop offset="1" stop-color="#087CFA"/>
</linearGradient>
<linearGradient id="paint2_linear_1_5585" x1="5915.77" y1="5896" x2="20602.1" y2="30189" gradientUnits="userSpaceOnUse">
<stop stop-color="#FE2857"/>
<stop offset="0.08" stop-color="#FE295F"/>
<stop offset="0.21" stop-color="#FF2D76"/>
<stop offset="0.3" stop-color="#FF318C"/>
<stop offset="0.38" stop-color="#EA3896"/>
<stop offset="0.55" stop-color="#B248AE"/>
<stop offset="0.79" stop-color="#5A63D6"/>
<stop offset="1" stop-color="#087CFA"/>
</linearGradient>
<clipPath id="clip0_1_5585">
<rect width="256" height="256" fill="white"/>
</clipPath>
</defs>
</svg>
