<svg width="256" height="256" viewBox="0 0 256 256" fill="none" xmlns="http://www.w3.org/2000/svg">
<g clip-path="url(#clip0_1_5602)">
<path d="M256 0H0V256H256V0Z" fill="#FF0066"/>
<path d="M87.1116 82.3815C95.2093 82.2631 101.689 75.6236 101.611 67.5253C101.532 59.4271 94.9244 52.9146 86.8259 52.9533C78.7274 52.9923 72.1825 59.568 72.1816 67.6666C72.195 71.6025 73.7792 75.3701 76.5825 78.133C79.3857 80.8958 83.1759 82.4252 87.1116 82.3815Z" fill="white"/>
<path d="M56.1562 161.157C55.3085 164.78 54.8655 168.485 54.8353 172.206C54.8353 185.16 61.8599 193.761 76.7898 193.761C89.17 193.761 99.2154 186.409 106.435 174.53L102.021 192.246H126.597L140.657 135.926C144.169 121.651 150.968 114.248 161.29 114.248C169.411 114.248 174.459 119.296 174.459 127.641C174.499 130.317 174.13 132.983 173.363 135.547L166.124 161.444C165.088 165.01 164.57 168.707 164.588 172.421C164.588 184.709 171.827 193.72 186.972 193.72C199.926 193.72 210.248 185.385 215.951 165.407L206.295 161.669C201.462 175.063 197.294 177.48 194.007 177.48C190.72 177.48 188.949 175.288 188.949 170.895C189.043 168.59 189.411 166.304 190.044 164.086L197.079 138.844C198.658 133.655 199.473 128.263 199.496 122.839C199.496 103.956 188.078 94.1055 174.244 94.1055C161.29 94.1055 148.122 105.789 141.537 118.088L146.36 96.0101H108.831L103.557 115.466H121.129L110.316 158.72C101.816 177.602 86.2106 177.91 84.2548 177.469C81.0394 176.742 78.9914 175.524 78.9914 171.325C79.0852 167.926 79.6012 164.552 80.5274 161.28L96.9934 95.9589H55.2961L50.0327 115.415H67.369L56.1562 161.157Z" fill="white"/>
</g>
<defs>
<clipPath id="clip0_1_5602">
<rect width="256" height="256" fill="white"/>
</clipPath>
</defs>
</svg>
