<svg width="512" height="175" viewBox="0 0 512 175" fill="none" xmlns="http://www.w3.org/2000/svg">
<g clip-path="url(#clip0_1_5607)">
<path d="M174.743 0V63.2619H183.799L200.634 110.053L217.606 63.2619H237.091L209.25 132.724H191.756L174.743 90.2722V174.75H0V0H174.743ZM301.802 61.669C322.612 61.669 329.774 74.927 330.302 85.1365H312.142C311.744 80.763 308.428 76.7808 301.672 76.7808C295.561 76.7808 292.128 79.6988 292.128 83.5436C292.128 95.2087 330.57 83.5436 330.57 112.044C330.57 124.505 319.962 134.31 301.143 134.31C279.399 134.31 271.977 123.18 271.05 110.183H290.137C290.405 114.824 293.851 119.198 301.672 119.198C308.826 119.198 312.54 116.678 312.54 112.84C312.54 101.175 273.968 112.174 273.968 84.601C273.968 72.009 284.706 61.669 301.802 61.669ZM403.609 61.669C425.882 61.669 440.066 78.2363 440.066 97.9894C440.066 117.742 425.875 134.31 403.609 134.31C381.343 134.31 367.158 117.736 367.158 97.9894C367.158 78.2432 381.343 61.669 403.609 61.669ZM486.418 61.669C503.122 61.669 512 72.8055 512 89.3727V132.731H493.181V91.5012C493.181 83.4201 489.734 77.8518 481.378 77.8518C472.233 77.8518 467.2 83.6741 467.2 92.9567V132.724H448.374V63.2619H465.738V71.7481C468.924 65.7886 476.078 61.669 486.418 61.669ZM261.891 63.2619V132.724H243.065V63.2619H261.891ZM358.912 63.2619V132.724H340.086V63.2619H358.912ZM403.609 78.2432C393.66 78.2432 385.984 85.5279 385.984 97.9894C385.984 110.451 393.674 117.742 403.609 117.742C413.571 117.742 421.24 110.444 421.24 97.9894C421.24 85.5347 413.557 78.2432 403.609 78.2432Z" fill="#FF0066"/>
<path d="M61.1862 55.009C66.7122 54.9447 71.146 50.4243 71.1033 44.898C71.0606 39.3718 66.5574 34.9204 61.0311 34.9415C55.5047 34.9627 51.0358 39.4485 51.0354 44.9749C51.0444 47.6536 52.1205 50.2183 54.0256 52.1014C55.9306 53.9846 58.5076 55.0309 61.1862 55.009Z" fill="white"/>
<path d="M40.054 108.761C39.4777 111.237 39.1762 113.769 39.1549 116.311C39.1549 125.151 43.9592 131.019 54.1375 131.019C62.5861 131.019 69.4357 126.002 74.3635 117.896L71.3574 129.983H88.1312L97.7398 91.5483C100.121 81.7818 104.768 76.703 111.81 76.703C117.348 76.703 120.794 80.1346 120.794 85.838C120.819 87.6637 120.567 89.4827 120.045 91.2325L115.104 108.96C114.399 111.394 114.045 113.915 114.054 116.448C114.054 124.842 118.995 130.978 129.331 130.978C138.171 130.978 145.213 125.288 149.105 111.658L142.516 109.111C139.221 118.246 136.339 119.894 134.129 119.894C131.919 119.894 130.697 118.397 130.697 115.405C130.762 113.832 131.013 112.272 131.445 110.759L136.25 93.5386C137.331 89.9968 137.889 86.3156 137.904 82.6123C137.904 69.7299 130.114 63.0039 120.67 63.0039C111.837 63.0039 102.826 70.979 98.3506 79.3659L101.652 64.3079H76.0038L72.4075 77.5746H84.3976L77.0127 107.121C71.2201 120.003 60.5409 120.209 59.2369 119.914C57.0406 119.42 55.6405 118.583 55.6405 115.734C55.7075 113.412 56.0602 111.107 56.6906 108.871L67.9258 64.3011H39.4638L35.8674 77.5678H47.6997L40.054 108.761Z" fill="white"/>
</g>
<defs>
<clipPath id="clip0_1_5607">
<rect width="512" height="175" fill="white"/>
</clipPath>
</defs>
</svg>
