<svg width="256" height="346" viewBox="0 0 256 346" fill="none" xmlns="http://www.w3.org/2000/svg">
<g clip-path="url(#clip0_1_5662)">
<path d="M82.554 267.473C82.554 267.473 69.3555 275.148 91.9468 277.745C119.316 280.868 133.303 280.42 163.464 274.711C163.464 274.711 171.393 279.683 182.467 283.99C114.856 312.967 29.4484 282.311 82.554 267.473Z" fill="#5382A1"/>
<path d="M74.2921 229.658C74.2921 229.658 59.4888 240.616 82.0969 242.954C111.333 245.971 134.421 246.217 174.373 238.524C174.373 238.524 179.899 244.126 188.588 247.19C106.841 271.094 15.7901 249.075 74.2921 229.658Z" fill="#5382A1"/>
<path d="M143.942 165.515C160.601 184.695 139.565 201.955 139.565 201.955C139.565 201.955 181.866 180.118 162.439 152.773C144.295 127.271 130.38 114.601 205.707 70.9141C205.707 70.9141 87.4692 100.444 143.942 165.515Z" fill="#E76F00"/>
<path d="M233.364 295.441C233.364 295.441 243.131 303.488 222.607 309.714C183.581 321.537 60.1749 325.107 25.8933 310.185C13.5699 304.824 36.6797 297.384 43.9492 295.823C51.5305 294.179 55.8629 294.486 55.8629 294.486C42.1581 284.831 -32.7196 313.443 17.8288 321.637C155.682 343.992 269.121 311.57 233.364 295.441Z" fill="#5382A1"/>
<path d="M88.9009 190.48C88.9009 190.48 26.1288 205.389 66.6718 210.804C83.7902 213.096 117.916 212.577 149.702 209.914C175.68 207.722 201.765 203.063 201.765 203.063C201.765 203.063 192.605 206.986 185.978 211.511C122.234 228.276 -0.907585 220.477 34.5433 203.328C64.5242 188.836 88.9009 190.48 88.9009 190.48Z" fill="#5382A1"/>
<path d="M201.506 253.422C266.305 219.75 236.345 187.392 215.433 191.751C210.307 192.818 208.022 193.742 208.022 193.742C208.022 193.742 209.925 190.761 213.559 189.471C254.929 174.927 286.746 232.368 200.204 255.119C200.204 255.119 201.207 254.223 201.506 253.422Z" fill="#5382A1"/>
<path d="M162.439 0.371094C162.439 0.371094 198.326 36.2697 128.402 91.4717C72.3308 135.753 115.616 161.001 128.379 189.848C95.6491 160.318 71.6298 134.322 87.7438 110.128C111.395 74.613 176.918 57.3939 162.439 0.371094Z" fill="#E76F00"/>
<path d="M95.2683 344.665C157.467 348.647 252.98 342.456 255.242 313.025C255.242 313.025 250.894 324.182 203.838 333.043C150.75 343.033 85.2741 341.867 46.4393 335.464C46.4393 335.464 54.3893 342.044 95.2683 344.665Z" fill="#5382A1"/>
</g>
<defs>
<clipPath id="clip0_1_5662">
<rect width="256" height="346" fill="white"/>
</clipPath>
</defs>
</svg>
