<svg width="512" height="209" viewBox="0 0 512 209" fill="none" xmlns="http://www.w3.org/2000/svg">
<g clip-path="url(#clip0_1_5685)">
<path opacity="0.1" d="M459.303 4.29108C459.203 4.6903 459.203 5.08952 459.303 5.48874C459.303 5.48874 460.6 13.9722 459.103 17.7648L397.623 177.752C393.232 189.529 399.12 202.604 410.897 207.095C422.674 211.586 435.749 205.798 440.44 194.12L501.92 34.1328C503.117 31.0388 510.004 24.9507 510.004 24.9507C510.303 24.6513 510.603 24.3519 510.802 24.0525V23.9527C510.802 23.8529 510.902 23.8529 510.902 23.7531C512.499 19.6611 502.219 11.8763 488.047 6.38699C473.874 0.897711 461 -0.200145 459.403 3.99167C459.403 3.99167 459.303 4.09147 459.303 4.29108Z" fill="black"/>
<path d="M457.506 2.8946C457.407 3.29382 457.407 3.69304 457.506 4.09226C457.506 4.09226 458.804 12.5757 457.307 16.3683L395.827 176.356C391.435 188.133 397.324 201.207 409.101 205.699C420.878 210.19 433.952 204.401 438.643 192.724L500.123 32.7363C501.321 29.6424 508.207 23.5542 508.207 23.5542C508.507 23.2548 508.806 22.9554 509.006 22.656V22.5562C509.006 22.4564 509.106 22.4564 509.106 22.3566C510.703 18.2646 500.423 10.4798 486.25 4.99051C472.078 -0.498773 459.203 -1.59663 457.606 2.59518C457.606 2.69499 457.606 2.79479 457.506 2.8946Z" fill="url(#paint0_linear_1_5685)"/>
<path d="M476.869 75.2539L432.455 190.629C429.162 198.912 419.68 203.204 411.197 199.91C402.713 196.617 398.222 186.936 401.316 178.652L429.661 104.896C429.661 104.896 433.154 99.2071 440.14 95.1151C447.127 91.0231 452.816 91.9213 460.501 88.528C468.285 85.1346 476.869 75.2539 476.869 75.2539Z" fill="url(#paint1_linear_1_5685)"/>
<path d="M498.406 19.0189C499.291 16.7104 492.923 12.1036 484.184 8.72936C475.444 5.35509 467.643 4.49108 466.758 6.79955C465.873 9.10801 472.241 13.7148 480.98 17.0891C489.72 20.4633 497.522 21.3273 498.406 19.0189Z" fill="#333333"/>
<path opacity="0.3" d="M457.093 4.08008C457.093 4.08008 458.382 12.5396 456.894 16.3215L395.816 175.858C391.454 187.602 397.304 200.64 409.004 205.118C410.987 205.914 413.069 206.412 415.151 206.512C407.318 200.54 403.947 189.991 407.516 180.237L467.405 23.8853C467.405 23.8853 459.175 16.222 457.093 4.08008Z" fill="white"/>
<g opacity="0.5">
<path d="M437.46 108.78C438.446 108.78 439.245 107.978 439.245 106.989C439.245 105.999 438.446 105.197 437.46 105.197C436.475 105.197 435.676 105.999 435.676 106.989C435.676 107.978 436.475 108.78 437.46 108.78Z" fill="white"/>
<path d="M449.061 122.515C450.54 122.515 451.738 121.312 451.738 119.828C451.738 118.344 450.54 117.141 449.061 117.141C447.583 117.141 446.384 118.344 446.384 119.828C446.384 121.312 447.583 122.515 449.061 122.515Z" fill="white"/>
<path d="M431.313 140.23C434.106 140.23 436.37 137.957 436.37 135.154C436.37 132.351 434.106 130.078 431.313 130.078C428.52 130.078 426.256 132.351 426.256 135.154C426.256 137.957 428.52 140.23 431.313 140.23Z" fill="white"/>
<path d="M423.182 147.197C424.661 147.197 425.86 145.993 425.86 144.509C425.86 143.025 424.661 141.822 423.182 141.822C421.704 141.822 420.505 143.025 420.505 144.509C420.505 145.993 421.704 147.197 423.182 147.197Z" fill="white"/>
<path d="M433.792 166.206C434.778 166.206 435.577 165.404 435.577 164.414C435.577 163.425 434.778 162.623 433.792 162.623C432.806 162.623 432.007 163.425 432.007 164.414C432.007 165.404 432.806 166.206 433.792 166.206Z" fill="white"/>
</g>
<path opacity="0.1" d="M120.465 97.136C123.159 99.3256 128.05 98.0318 131.343 94.4489C134.837 90.667 135.336 85.7903 132.641 83.6008C129.946 81.4113 125.056 82.7051 121.762 86.487C118.269 90.2689 117.67 95.046 120.465 97.136ZM112.38 104.202C111.682 104.202 110.384 105.496 111.482 105.994C112.979 106.491 113.678 107.785 113.678 109.577C112.38 117.041 103.099 125.5 99.5056 128.387C98.6073 129.282 99.9048 131.273 100.803 130.576C102.799 128.984 106.991 125.699 110.384 121.32C104.795 133.761 93.8167 149.884 89.6249 155.557C73.2569 178.148 48.4054 198.949 31.3387 198.949C17.6654 198.949 6.08803 189.693 3.59291 176.158C3.3933 174.665 1.39719 174.367 1.79641 176.357C4.89037 194.968 19.2623 202.233 36.6284 202.233C55.6912 202.233 78.0475 188.499 90.4233 174.367C110.384 151.576 123.259 125.301 119.866 110.472C118.469 104.998 114.576 104.103 112.38 104.202ZM235.041 153.865C240.331 152.571 244.622 149.685 244.622 145.107C244.622 144.609 243.724 144.609 243.724 145.107C243.724 147.794 240.63 150.083 237.137 150.58C228.953 151.874 212.784 142.32 205.199 132.467C213.383 135.552 230.051 131.074 237.935 125.401C245.221 120.126 248.115 114.354 248.614 109.676C249.513 101.913 241.029 97.3351 229.152 101.913C221.567 104.998 212.485 111.667 203.003 124.207C212.984 107.785 232.646 80.9137 251.908 63.7956C275.362 42.9951 288.936 46.976 267.877 69.0703C259.194 78.127 242.826 89.8708 231.548 94.9465C228.055 96.4394 229.751 98.4298 232.246 97.3351C244.223 92.0603 260.192 81.2122 269.873 72.1556C298.417 44.7865 274.564 24.1851 243.025 53.1465C221.567 72.8522 207.594 93.4537 195.418 120.226C191.226 125.301 188.132 129.481 184.34 132.666C183.841 133.064 183.541 133.462 183.242 133.86C172.762 142.817 156.295 154.959 146.015 155.059C138.729 155.258 135.635 149.784 136.932 142.718C138.929 131.671 150.406 118.633 160.187 114.155C172.862 108.382 180.348 119.628 163.68 128.586C157.293 131.87 149.708 133.661 146.614 133.661C143.021 133.661 143.32 135.154 146.414 135.254C151.504 135.453 159.688 133.263 165.077 130.775C182.144 122.614 183.242 107.387 164.678 106.889C144.518 106.193 120.365 123.311 120.564 144.907C120.764 154.661 128.549 159.936 139.228 159.936C157.093 159.737 172.962 146.201 186.037 134.258C187.933 132.666 189.729 130.974 191.526 129.183C186.935 140.727 184.639 151.476 185.737 159.438C186.436 165.21 189.729 167.897 192.324 170.087C192.823 170.485 193.921 170.087 193.223 168.992C189.43 164.514 190.528 151.078 195.718 138.04C200.109 146.798 217.176 157.846 235.041 153.865ZM213.583 116.145C234.442 97.5341 242.626 114.155 229.352 124.306C222.465 129.581 208.792 133.562 204.501 130.974L203.602 130.477C203.103 129.581 202.504 128.685 202.105 127.789C205.598 123.51 209.591 119.728 213.583 116.145ZM329.556 94.9465C337.94 95.8422 334.447 85.6908 325.963 88.2784C322.171 89.3732 318.478 96.6384 315.783 102.908C307.4 115.349 293.427 132.367 283.646 141.325C274.963 148.789 266.978 150.779 276.759 136.846C280.752 131.273 285.842 125.301 288.736 119.33C295.622 104.302 280.951 97.6337 269.074 106.69C262.188 111.965 252.906 122.813 245.62 128.785C243.624 130.377 244.123 132.766 246.119 131.173C251.908 126.496 262.088 115.747 270.871 109.477C278.157 103.904 281.051 107.487 276.859 112.164C271.07 118.832 260.89 130.477 258.295 137.841C254.702 148.888 258.994 153.765 266.28 153.765C276.26 153.765 291.131 138.239 301.112 125.898C304.405 121.718 307.998 116.842 311.092 112.164C302.409 128.984 293.327 146.002 282.049 161.428C266.08 183.125 246.119 199.447 227.156 199.447C213.483 199.447 201.706 190.191 199.211 176.656C199.011 175.163 197.215 174.864 197.414 176.855C200.508 195.466 214.88 202.731 232.246 202.731C251.309 202.731 269.673 191.684 282.548 178.148C308.497 150.779 311.591 120.027 319.576 102.809C323.368 94.9465 326.762 94.6479 329.556 94.9465ZM435.15 68.6722C438.943 62.2032 438.743 57.1275 429.86 57.1275C423.173 57.3265 410.997 62.0041 405.308 66.3832C404.011 67.677 404.61 68.3737 406.207 67.677C407.304 67.2789 408.602 66.5822 409.8 66.0846C416.187 62.6013 413.592 69.8665 412.195 72.5537C404.61 85.7903 391.136 104.401 384.05 113.657C380.656 118.235 376.864 122.714 373.171 126.595C366.384 133.064 352.911 144.509 342.631 148.291C309.595 160.632 351.713 104.501 355.206 99.9227C362.991 90.1694 380.457 73.1508 385.746 64.5918C389.539 58.1227 389.339 53.047 380.457 53.047C373.77 53.246 361.594 57.9237 355.905 62.3027C354.607 63.5965 355.206 64.2932 356.803 63.5965C357.901 63.1984 359.198 62.5018 360.396 62.0041C366.784 58.5208 364.189 65.786 362.791 68.4732C355.206 81.7099 341.732 100.321 334.646 109.577C328.858 117.339 321.771 125.102 316.282 129.481C314.086 131.273 315.384 132.965 317.58 131.472C319.576 130.178 322.47 127.292 325.764 123.908C319.775 135.851 314.885 152.67 330.654 154.661C344.128 156.452 360.097 142.817 370.476 132.666C371.574 131.571 372.872 130.277 374.169 128.984C374.469 128.685 374.768 128.387 375.067 128.088C369.079 140.031 364.189 156.85 379.958 158.841C397.224 161.229 418.682 138.04 426.966 129.481C428.563 127.889 428.064 125.102 425.369 127.889C420.479 132.965 403.911 147.993 391.934 152.471C358.899 164.812 401.017 108.681 404.51 104.103C412.394 94.1503 429.86 77.1318 435.15 68.6722Z" fill="black"/>
<path d="M118.668 95.4427C121.363 97.6322 126.253 96.3384 129.547 92.7555C133.04 88.9736 133.539 84.097 130.844 81.9074C128.15 79.7179 123.259 81.0117 119.966 84.7936C116.472 88.5755 115.973 93.2532 118.668 95.4427ZM110.684 102.509C109.985 102.509 108.688 103.803 109.786 104.3C111.283 104.798 111.981 106.092 111.981 107.883C110.684 115.347 101.402 123.807 97.8089 126.693C96.9107 127.589 98.2081 129.579 99.1064 128.883C101.102 127.29 105.294 124.006 108.688 119.627C103.099 132.067 92.12 148.19 87.9282 153.863C71.5602 176.455 46.7087 197.256 29.6421 197.256C15.9688 197.256 4.39138 188 1.89625 174.465C1.69664 172.972 -0.299461 172.673 0.0997596 174.664C3.19372 193.275 17.5656 200.54 34.9317 200.54C53.9945 200.54 76.3508 186.806 88.7267 172.673C108.688 149.882 121.563 123.608 118.169 108.779C116.672 103.206 112.879 102.31 110.684 102.509ZM233.244 152.171C238.534 150.877 242.826 147.991 242.826 143.413C242.826 142.916 241.927 142.916 241.927 143.413C241.927 146.1 238.833 148.389 235.34 148.887C227.156 150.181 210.988 140.627 203.403 130.774C211.587 133.859 228.254 129.38 236.139 123.707C243.425 118.433 246.319 112.66 246.818 107.983C247.716 100.22 239.233 95.6417 227.356 100.22C219.771 103.305 210.688 109.973 201.207 122.513C211.187 106.092 230.849 79.2203 250.111 62.1022C273.566 41.3017 287.139 45.2827 266.08 67.377C257.397 76.4336 241.029 88.1774 229.751 93.2532C226.258 94.746 227.955 96.7365 230.45 95.6417C242.426 90.367 258.395 79.5189 268.076 70.4622C296.621 43.0932 272.767 22.4917 241.229 51.4532C219.771 71.0593 205.798 91.7603 193.622 118.532C189.43 123.608 186.336 127.788 182.543 130.973C182.044 131.371 181.745 131.769 181.446 132.167C170.966 141.124 154.498 153.266 144.218 153.366C136.933 153.565 133.839 148.091 135.136 141.025C137.132 129.977 148.61 116.94 158.391 112.461C171.066 106.689 178.551 117.935 161.884 126.892C155.496 130.176 147.911 131.968 144.817 131.968C141.224 131.968 141.524 133.461 144.617 133.56C149.708 133.759 157.892 131.57 163.281 129.082C180.348 120.921 181.446 105.694 162.882 105.196C142.721 104.499 118.568 121.617 118.768 143.214C118.968 152.967 126.752 158.242 137.432 158.242C155.297 158.043 171.166 144.508 184.24 132.565C186.136 130.973 187.933 129.281 189.729 127.489C185.138 139.034 182.843 149.783 183.941 157.745C184.639 163.517 187.933 166.204 190.528 168.394C191.027 168.792 192.125 168.394 191.426 167.299C187.633 162.82 188.731 149.385 193.921 136.347C198.412 145.105 215.479 156.152 233.244 152.171ZM211.786 114.352C232.646 95.7413 240.83 112.362 227.556 122.513C220.669 127.788 206.996 131.769 202.704 129.181L201.806 128.684C201.307 127.788 200.708 126.892 200.309 125.996C203.802 121.816 207.794 117.935 211.786 114.352ZM327.76 93.2532C336.143 94.1489 332.65 83.9974 324.167 86.5851C320.374 87.6798 316.681 94.9451 313.987 101.215C305.603 113.656 291.63 130.674 281.849 139.631C273.166 147.096 265.182 149.086 274.963 135.153C278.955 129.579 284.045 123.608 286.94 117.636C293.826 102.608 279.155 95.9403 267.278 104.997C260.391 110.272 251.109 121.12 243.824 127.091C241.828 128.684 242.327 131.072 244.323 129.48C250.111 124.802 260.292 114.054 269.074 107.784C276.36 102.21 279.255 105.793 275.063 110.471C269.274 117.139 259.094 128.783 256.499 136.148C252.906 147.195 257.198 152.072 264.483 152.072C274.464 152.072 289.335 136.546 299.315 124.205C302.609 120.025 306.202 115.148 309.296 110.471C300.613 127.29 291.531 144.309 280.253 159.735C264.284 181.431 244.323 197.753 225.36 197.753C211.687 197.753 199.91 188.497 197.414 174.962C197.215 173.469 195.418 173.171 195.618 175.161C198.712 193.772 213.084 201.037 230.45 201.037C249.513 201.037 267.877 189.99 280.752 176.455C306.701 149.086 309.795 118.333 317.779 101.116C321.572 93.2532 325.065 92.8551 327.76 93.2532ZM433.354 66.8793C437.146 60.4103 436.947 55.3346 428.064 55.3346C421.377 55.5336 409.201 60.2113 403.512 64.5903C402.214 65.8841 402.813 66.5808 404.41 65.8841C405.508 65.486 406.805 64.7894 408.003 64.2917C414.391 60.8084 411.796 68.0736 410.398 70.7608C402.813 83.9974 389.34 102.608 382.253 111.864C378.86 116.442 375.067 120.921 371.375 124.802C364.588 131.271 351.114 142.716 340.834 146.498C307.799 158.839 349.917 102.708 353.41 98.1298C361.195 88.3765 378.66 71.3579 383.95 62.7989C387.743 56.3298 387.543 51.2541 378.66 51.2541C371.973 51.4532 359.797 56.1308 354.108 60.5098C352.811 61.8036 353.41 62.5003 355.007 61.8036C356.104 61.4055 357.402 60.7089 358.6 60.2113C364.987 56.7279 362.392 63.9932 360.995 66.6803C353.41 79.917 339.936 98.5279 332.85 107.784C327.061 115.546 319.975 123.309 314.486 127.688C312.29 129.48 313.587 131.172 315.783 129.679C317.779 128.385 320.674 125.499 323.967 122.115C317.979 134.058 313.088 150.877 328.858 152.868C342.331 154.659 358.3 141.025 368.68 130.873C369.778 129.778 371.075 128.485 372.373 127.191C372.672 126.892 372.972 126.594 373.271 126.295C367.283 138.238 362.392 155.057 378.161 157.048C395.428 159.436 416.886 136.247 425.17 127.688C426.766 126.096 426.267 123.309 423.573 126.096C418.682 131.172 402.115 146.2 390.138 150.678C357.102 163.019 399.22 106.888 402.713 102.31C410.698 92.3574 428.064 75.3389 433.354 66.8793Z" fill="url(#paint2_linear_1_5685)"/>
</g>
<defs>
<linearGradient id="paint0_linear_1_5685" x1="3147.5" y1="9539.01" x2="8457.3" y2="10167" gradientUnits="userSpaceOnUse">
<stop stop-color="#919191"/>
<stop offset="1" stop-color="white"/>
</linearGradient>
<linearGradient id="paint1_linear_1_5685" x1="2422.87" y1="5405.53" x2="5643.37" y2="5864.1" gradientUnits="userSpaceOnUse">
<stop stop-color="#990000"/>
<stop offset="1" stop-color="#E80000"/>
</linearGradient>
<linearGradient id="paint2_linear_1_5685" x1="21782.2" y1="16370.2" x2="21782.2" y2="30.2966" gradientUnits="userSpaceOnUse">
<stop stop-color="#1A1A1A"/>
<stop offset="0.4026" stop-color="#4A4A4C"/>
<stop offset="1" stop-color="#333333"/>
</linearGradient>
<clipPath id="clip0_1_5685">
<rect width="512" height="209" fill="white"/>
</clipPath>
</defs>
</svg>
