<svg width="256" height="417" viewBox="0 0 256 417" fill="none" xmlns="http://www.w3.org/2000/svg">
<g clip-path="url(#clip0_1_5702)">
<path d="M250.741 169.278C250.741 238.735 195.671 295.095 127.702 295.095C59.7333 295.095 4.66357 238.735 4.66357 169.278C4.66357 99.8206 59.7333 43.4609 127.702 43.4609C195.671 43.4609 250.741 99.8206 250.741 169.278Z" fill="#D33833"/>
<path d="M9.72403 200.434C9.72403 200.434 0.793793 69.2589 121.749 65.4884L113.315 51.3984L47.7271 73.4263L28.9736 94.9581L12.6015 126.313L3.27441 162.828L6.05271 187.237" fill="#EF3D3A"/>
<path d="M43.4605 83.4491C21.9287 105.576 8.53338 136.038 8.53338 169.775C8.53338 203.511 21.9287 233.973 43.4605 256.1C65.0915 278.227 94.7597 291.821 127.702 291.821C160.645 291.821 190.313 278.227 211.944 256.1C233.476 233.973 246.871 203.511 246.871 169.775C246.871 136.038 233.476 105.576 211.944 83.4491C190.313 61.4212 160.645 47.7282 127.702 47.7282C94.859 47.7282 65.0915 61.322 43.4605 83.4491ZM38.0031 261.359C15.0822 237.942 0.893066 205.496 0.893066 169.775C0.893066 134.054 15.0822 101.607 38.0031 78.091C60.9241 54.6739 92.676 40.0879 127.702 40.0879C162.729 40.0879 194.481 54.6739 217.402 78.091C240.323 101.508 254.512 133.955 254.512 169.775C254.512 205.496 240.323 237.942 217.402 261.359C194.481 284.876 162.729 299.362 127.702 299.362C92.676 299.362 60.9241 284.876 38.0031 261.359Z" fill="#231F20"/>
<path d="M179.498 169.973L160.744 172.751L135.442 175.628L119.07 176.025L103.095 175.529L90.89 171.759L80.0745 160.05L71.6404 136.137L69.7551 130.977L58.5427 127.207L51.9939 116.391L47.3303 100.912L52.49 87.3183L64.6947 83.0516L74.5179 87.7152L79.1815 98.0346L84.8373 97.1415L86.7226 94.7602L84.8373 83.9446L84.3412 70.3509L87.1195 51.5974L87.0202 40.8811L95.5536 27.1881L110.537 16.3726L136.732 5.16016L165.805 9.42682L191.107 27.6842L202.816 46.4377L210.357 60.0315L212.242 93.7679L206.586 122.841L196.267 148.639L186.543 162.431" fill="#F0D6B7"/>
<path d="M163.622 251.039L96.645 253.817V265.03L102.301 304.422L99.5225 307.696L52.6884 291.721L49.414 286.065L44.7505 233.079L33.7365 201.327L31.3551 193.786L68.8621 167.988L80.5706 163.324L90.89 176.025L99.8202 183.963L110.14 187.237L114.803 188.627L120.459 213.036L124.726 218.196L135.541 214.425L128 229.011L168.682 248.261L163.622 251.039Z" fill="#335061"/>
<path d="M52.49 87.5165L64.6947 83.2498L74.5179 87.9134L79.1815 98.2327L84.8373 97.3397L86.2264 91.6839L83.4481 80.8684L86.2264 55.07L83.845 40.98L92.2792 31.1568L110.537 16.67L105.377 9.625L79.5784 22.3258L68.7629 30.7599L62.7102 43.8576L53.383 56.5583L50.6047 71.5413L52.49 87.5165Z" fill="#6D6B6D"/>
<path d="M71.7396 43.4621C71.7396 43.4621 78.7845 26.0978 106.865 17.6637C134.946 9.22956 108.254 11.611 108.254 11.611L77.7923 23.3195L66.0838 35.028L60.9241 44.3551L71.7396 43.4621Z" fill="#DCD9D8"/>
<path d="M57.6497 84.2429C57.6497 84.2429 47.8264 51.3995 85.3334 46.7359L83.9443 41.0801L58.1458 47.1328L50.6047 71.5421L52.49 87.5173L57.6497 84.2429Z" fill="#DCD9D8"/>
<path d="M72.6326 127.803L78.7845 121.85C78.7845 121.85 81.5628 122.147 82.0589 125.422C82.555 128.696 83.9442 158.265 104.087 174.141C105.972 175.629 89.1039 171.76 89.1039 171.76L74.1209 148.343" fill="#F7E4CD"/>
<path d="M158.859 118.872C158.859 118.872 159.95 104.683 163.82 105.775C167.69 106.866 167.69 110.736 167.69 110.736C167.69 110.736 158.363 116.689 158.859 118.872Z" fill="#F7E4CD"/>
<path d="M197.755 66.8789C197.755 66.8789 190.015 68.4665 189.321 75.313C188.626 82.1595 197.755 76.7022 199.144 76.206" fill="#F7E4CD"/>
<path d="M141.098 67.375C141.098 67.375 130.778 68.7642 130.778 75.313C130.778 81.8618 142.487 81.3657 145.761 78.5874" fill="#F7E4CD"/>
<path d="M77.3954 97.836C77.3954 97.836 59.6341 87.0205 57.7489 97.3399C55.8636 107.659 51.6961 115.101 60.5271 125.917L54.4744 124.031L48.8186 109.545L46.9333 95.4546L57.7489 84.2422L69.9535 85.1352L76.9985 90.791L77.3954 97.836Z" fill="#F7E4CD"/>
<path d="M85.8295 68.2673C85.8295 68.2673 93.7675 26.9898 134.053 19.0518C167.194 12.5029 184.657 20.4409 191.206 27.982C191.206 27.982 161.637 -7.14358 133.557 3.5727C105.476 14.3882 84.8372 34.0347 85.3333 46.6363C86.1271 68.2673 85.8295 68.2673 85.8295 68.2673Z" fill="#F7E4CD"/>
<path d="M194.481 32.6454C194.481 32.6454 180.887 32.1493 180.391 44.3539C180.391 44.3539 180.391 46.2392 181.284 48.1245C181.284 48.1245 192.099 35.9198 198.648 42.4686" fill="#F7E4CD"/>
<path d="M135.045 49.4148C135.045 49.4148 132.664 30.7605 116.788 41.576C106.468 48.621 107.46 58.4443 109.247 60.3295C111.132 62.2148 110.636 65.9853 112.025 63.4055C113.414 60.8256 113.017 52.3915 118.177 50.0101C123.237 47.6287 131.771 45.0489 135.045 49.4148Z" fill="#F7E4CD"/>
<path d="M90.9892 176.025L46.9334 195.672C46.9334 195.672 65.1908 268.304 55.8636 290.829L49.3148 288.447L48.8187 260.763L36.614 208.373L31.4543 193.886L77.3954 162.928L90.9892 176.025Z" fill="#49728B"/>
<path d="M95.4543 216.211L101.705 223.851V251.932H94.2636C94.2636 251.932 93.3706 232.285 93.3706 229.904C93.3706 227.523 94.2636 219.088 94.2636 219.088" fill="#49728B"/>
<path d="M95.6527 256.199L74.5178 257.092L80.5705 261.359L95.5535 263.74" fill="#49728B"/>
<path d="M167.789 251.535L185.154 251.039L189.42 294.103L171.659 296.484L167.789 251.535Z" fill="#335061"/>
<path d="M172.453 251.535L198.648 250.146C198.648 250.146 209.463 222.959 209.463 221.57C209.463 220.18 218.791 182.177 218.791 182.177L197.656 160.149L193.389 156.379L182.177 167.591V211.151L172.453 251.535Z" fill="#335061"/>
<path d="M184.161 248.262L167.789 251.536L170.171 264.634C176.223 267.412 186.543 259.97 186.543 259.97" fill="#49728B"/>
<path d="M184.657 166.203L217.501 190.612L218.394 179.399L193.588 156.479L184.657 166.203Z" fill="#49728B"/>
<path d="M111.926 343.816L102.202 304.424L97.3396 275.351L96.5458 253.819L140.502 251.438H167.789L165.309 300.653L169.575 338.656L169.079 345.701L133.457 348.479L111.926 343.816Z" fill="white"/>
<path d="M161.736 251.04C161.736 251.04 159.355 299.759 166.4 334.488C166.4 334.488 152.31 343.418 131.771 345.7L171.163 344.311L175.826 341.533L170.171 264.733L168.682 248.262" fill="#DCD9D8"/>
<path d="M190.115 290.433L208.372 285.273L243.002 283.388L248.161 267.413L238.834 239.729L228.019 238.34L213.036 243.003L198.747 250.048L191.107 248.659L185.154 251.041" fill="white"/>
<path d="M189.817 281.006C189.817 281.006 202.022 275.35 203.907 275.846L198.747 250.047L204.8 247.666C204.8 247.666 209.067 272.075 209.067 274.854C209.067 274.854 235.262 276.243 237.644 276.243C237.644 276.243 243.299 265.427 241.91 254.215L247.07 269.198L247.566 277.632L240.025 288.844L231.591 290.73L217.501 290.233L212.837 284.181L196.465 286.562L191.306 288.447" fill="#DCD9D8"/>
<path d="M171.361 247.764L161.042 221.569L150.226 206.09C150.226 206.09 152.608 199.541 155.882 199.541H166.698L177.017 203.312L176.124 220.676L171.361 247.764Z" fill="white"/>
<path d="M173.445 238.836C173.445 238.836 160.347 213.533 160.347 209.763C160.347 209.763 162.729 204.107 166.003 205.496C169.277 206.885 176.322 210.656 176.322 210.656V201.726L160.347 198.451L149.532 199.84L167.789 243.102L171.56 243.598" fill="#DCD9D8"/>
<path d="M116.093 177.017L103.095 175.628L90.89 171.857V176.124L96.8435 182.673L115.597 191.107" fill="white"/>
<path d="M95.1566 178.406C95.1566 178.406 109.643 184.459 114.406 183.07L114.902 188.726L101.805 185.947L93.8667 180.292L95.1566 178.406Z" fill="#DCD9D8"/>
<path d="M190.115 201.129C182.177 200.93 174.933 199.938 168.682 198.152C169.079 195.572 168.285 193.091 168.98 191.206C170.766 189.916 173.643 189.916 176.322 189.619C174.04 188.527 170.766 188.031 168.186 188.726C168.087 186.94 167.293 185.848 166.797 184.459C171.262 182.871 181.78 172.453 187.733 175.826C190.611 177.513 191.802 186.84 192 191.504C192.198 195.274 191.603 199.045 190.115 201.129Z" fill="#D33833"/>
<path d="M190.115 201.129C182.177 200.93 174.933 199.938 168.682 198.152C169.079 195.572 168.285 193.091 168.98 191.206C170.766 189.916 173.643 189.916 176.322 189.619C174.04 188.527 170.766 188.031 168.186 188.726C168.087 186.94 167.293 185.848 166.797 184.459C171.262 182.871 181.78 172.453 187.733 175.826C190.611 177.513 191.802 186.84 192 191.504C192.198 195.274 191.603 199.045 190.115 201.129Z" fill="black" stroke="#D33833" stroke-width="2"/>
<path d="M152.112 188.131C152.112 188.726 152.112 189.322 152.012 189.917C149.532 191.505 145.563 191.505 142.785 192.894C146.754 193.092 149.929 194.085 152.707 195.374C152.608 196.863 152.608 198.45 152.509 199.939C147.944 203.015 143.777 207.678 138.419 210.655C135.839 212.044 127.008 215.616 124.329 214.922C122.84 214.525 122.642 212.64 122.047 210.854C120.757 207.083 117.78 200.931 117.482 195.176C117.185 187.933 116.391 175.728 124.23 177.216C130.58 178.407 137.923 181.285 142.785 183.964C145.861 185.75 147.547 187.734 152.112 188.131Z" fill="#D33833"/>
<path d="M152.112 188.131C152.112 188.726 152.112 189.322 152.012 189.917C149.532 191.505 145.563 191.505 142.785 192.894C146.754 193.092 149.929 194.085 152.707 195.374C152.608 196.863 152.608 198.45 152.509 199.939C147.944 203.015 143.777 207.678 138.419 210.655C135.839 212.044 127.008 215.616 124.329 214.922C122.84 214.525 122.642 212.64 122.047 210.854C120.757 207.083 117.78 200.931 117.482 195.176C117.185 187.933 116.391 175.728 124.23 177.216C130.58 178.407 137.923 181.285 142.785 183.964C145.861 185.75 147.547 187.734 152.112 188.131Z" fill="black" stroke="#D33833" stroke-width="2"/>
<path d="M156.577 196.764C155.882 192.795 155.088 191.703 155.386 188.231C166.003 181.186 167.888 200.336 156.577 196.764Z" fill="#D33833"/>
<path d="M156.577 196.764C155.882 192.795 155.088 191.703 155.386 188.231C166.003 181.186 167.888 200.336 156.577 196.764Z" fill="black" stroke="#D33833" stroke-width="2"/>
<path d="M171.857 199.94C171.857 199.94 168.583 195.276 170.964 193.887C173.346 192.498 175.628 193.887 177.017 191.506C178.406 189.124 177.017 187.735 177.513 184.957C178.009 182.178 180.291 181.682 182.673 181.186C185.054 180.69 191.603 179.797 192.496 182.079L189.718 173.645L184.062 171.76L166.301 182.079L165.408 187.239V197.558" fill="#EF3D3A"/>
<path d="M122.642 215.418C122.047 208.075 121.451 200.832 120.856 193.489C119.864 182.575 123.436 184.46 132.961 184.46C134.45 184.46 141.892 186.147 142.388 187.238C144.967 192.497 138.121 191.306 145.364 195.275C151.417 198.55 162.233 193.291 159.752 185.849C158.363 184.162 152.608 185.353 150.524 184.261C146.853 182.376 143.181 180.491 139.51 178.606C134.847 176.224 124.13 172.652 119.169 176.026C106.567 184.559 119.963 205.992 124.428 214.922" fill="#EF3D3A"/>
<path d="M135.045 49.4147C122.245 46.4379 115.895 54.7728 112.025 63.4054C108.552 62.6116 109.941 57.8488 110.834 55.4674C113.116 49.2162 122.344 40.7821 129.885 41.9728C133.061 42.3697 137.426 45.3465 135.045 49.4147Z" fill="#231F20"/>
<path d="M197.259 63.9023H197.854C200.732 69.8558 203.212 76.2062 206.884 81.5644C204.403 87.3194 188.428 92.2806 188.626 82.1597C192.099 80.6713 198.053 81.862 201.129 79.8775C199.343 75.0155 196.862 70.8481 197.259 63.9023Z" fill="#231F20"/>
<path d="M141.495 64.0996C144.273 69.1601 145.166 74.419 149.036 78.1895C150.822 79.8764 154.195 81.9601 152.509 86.7229C152.112 87.8143 149.234 90.295 147.547 90.7911C141.495 92.5771 127.305 91.188 132.068 83.5477C137.129 83.7461 143.876 86.8221 147.647 83.1508C144.769 78.5864 139.609 69.4577 141.495 64.0996Z" fill="#231F20"/>
<path d="M194.977 115.101C185.848 120.955 175.628 127.405 160.546 125.916C157.371 123.138 156.081 116.887 159.256 112.819C160.844 115.597 159.851 120.757 164.416 121.55C172.949 123.039 182.871 116.292 189.023 114.009C192.794 107.56 188.726 105.278 185.253 101.11C178.208 92.676 168.881 82.1582 169.178 69.5567C172.056 67.4729 172.254 72.7319 172.651 73.6249C176.323 82.1582 185.551 93.1722 192.199 100.515C193.885 102.301 196.564 104.087 196.862 105.278C197.755 108.651 194.58 112.819 194.977 115.101Z" fill="#231F20"/>
<path d="M74.1209 108.949C71.2434 107.263 70.5489 100.118 67.1752 99.9199C62.3132 99.6222 63.2062 109.247 63.2062 114.903C59.9318 111.926 59.3365 102.599 61.7178 97.8361C58.9396 96.447 57.7489 99.3245 56.1613 100.317C58.245 85.9292 77.2961 93.6687 74.1209 108.949Z" fill="#231F20"/>
<path d="M200.732 121.154C196.465 129.291 190.412 138.221 177.91 138.519C177.612 135.939 177.414 131.871 177.91 130.283C187.535 129.291 193.488 124.429 200.732 121.154Z" fill="#231F20"/>
<path d="M140.8 126.414C148.738 130.582 163.423 131.078 174.338 130.78C174.933 133.161 174.933 136.138 174.933 139.016C160.943 139.611 144.471 136.138 140.8 126.414Z" fill="#231F20"/>
<path d="M139.312 134.152C144.868 148.044 163.82 146.456 179.795 146.059C179.101 147.845 177.612 150.028 175.628 150.723C170.468 152.807 156.378 154.394 149.234 150.624C144.769 148.242 141.792 142.785 139.312 139.61C138.22 138.121 132.267 134.252 139.312 134.152Z" fill="#231F20"/>
<path d="M194.282 210.655C187.833 221.769 181.581 233.179 173.941 242.903C177.116 233.477 178.506 217.601 179.002 205.496C185.749 202.32 191.504 206.19 194.282 210.655Z" fill="#81B0C4"/>
<path d="M229.11 250.543C221.867 252.031 216.806 259.076 209.662 258.58C213.631 253.123 220.378 250.741 229.11 250.543Z" fill="#231F20"/>
<path d="M232.285 261.855C226.332 262.45 219.386 263.442 213.433 262.946C216.31 258.58 227.225 260.168 232.285 261.855Z" fill="#231F20"/>
<path d="M234.369 271.678C227.721 271.777 219.485 271.678 213.135 271.181C216.906 267.113 230.102 269.693 234.369 271.678Z" fill="#231F20"/>
<path d="M181.78 298.468C182.772 306.803 186.047 315.237 185.65 324.366C181.978 325.557 179.895 326.648 174.933 326.648C174.636 318.909 173.544 307.002 173.842 299.56C176.223 299.758 179.795 297.873 181.78 298.468Z" fill="#DCD9D8"/>
<path d="M171.064 175.43C167.69 177.613 164.912 180.292 161.637 182.673C154.493 183.07 150.623 182.177 145.464 178.109C145.563 177.811 146.059 177.91 146.059 177.513C153.699 180.887 163.423 176.124 171.064 175.43Z" fill="#F0D6B7"/>
<path d="M131.175 227.326C133.259 218.296 141.495 213.534 148.937 208.572C156.577 218.296 161.24 230.799 166.4 242.904C154.195 239.233 141.792 233.378 131.175 227.326Z" fill="#81B0C4"/>
<path d="M173.842 299.66C173.544 307.102 174.536 318.909 174.933 326.748C179.895 326.748 181.978 325.657 185.65 324.466C186.047 315.337 182.772 306.903 181.78 298.568C179.795 297.874 176.223 299.759 173.842 299.66ZM97.2403 257.588C100.515 287.455 105.178 312.46 113.811 338.953C132.961 344.807 155.981 345.303 172.949 340.044C169.873 325.161 171.163 307.002 169.377 291.027C167.988 279.021 168.682 267.015 166.797 254.81C146.257 250.544 117.284 253.818 97.2403 257.588ZM171.659 255.009C171.46 267.809 172.254 280.509 173.247 293.309C178.208 292.615 181.482 292.119 186.047 291.027C184.558 278.723 184.757 264.733 181.681 253.818C178.208 253.917 175.132 253.818 171.659 255.009ZM196.564 252.925C194.183 252.429 191.504 252.925 189.321 252.925C190.412 263.344 192.893 274.854 193.786 285.868C197.259 285.967 199.144 284.28 202.022 283.784C202.22 274.159 201.228 260.863 196.564 252.925ZM234.369 287.455C241.712 285.669 246.276 276.739 244.192 267.511C242.803 261.359 240.422 249.65 237.743 245.682C235.857 242.804 230.598 238.934 226.332 241.613C219.485 245.979 207.479 247.269 202.518 252.528C204.998 260.863 205.792 272.175 206.785 282.692C215.318 283.188 225.736 280.311 232.881 283.387C227.919 284.975 221.569 284.975 217.302 287.356C220.874 289.043 229.011 288.745 234.369 287.455ZM166.301 242.903C161.141 230.798 156.478 218.295 148.837 208.571C141.395 213.533 133.259 218.295 131.076 227.325C141.792 233.378 154.195 239.232 166.301 242.903ZM179.002 205.495C178.505 217.601 177.116 233.477 173.941 242.903C181.581 233.08 187.833 221.768 194.282 210.655C191.504 206.19 185.749 202.32 179.002 205.495ZM164.614 200.435C161.736 200.137 159.256 203.809 155.485 202.221C154.592 203.213 153.798 204.206 152.905 205.198C161.24 215.319 165.11 229.607 171.56 241.415C175.033 230.004 174.636 217.601 175.429 205.198C170.667 205.396 167.988 200.733 164.614 200.435ZM155.386 188.23C155.088 191.703 155.882 192.795 156.577 196.764C167.888 200.336 166.003 181.185 155.386 188.23ZM142.785 184.063C137.923 181.384 130.58 178.506 124.229 177.316C116.391 175.827 117.185 188.032 117.482 195.275C117.78 201.03 120.757 207.083 122.047 210.953C122.642 212.739 122.84 214.624 124.329 215.021C127.008 215.616 135.938 212.144 138.419 210.754C143.777 207.877 147.944 203.213 152.509 200.038C152.608 198.55 152.608 196.962 152.707 195.474C149.929 194.085 146.853 193.192 142.785 192.993C145.464 191.604 149.532 191.604 152.012 190.016C152.012 189.421 152.012 188.826 152.112 188.23C147.547 187.734 145.86 185.75 142.785 184.063ZM96.1489 175.629C92.0807 179.796 107.56 185.353 112.422 185.65C112.422 183.071 113.91 180.59 113.612 178.705C107.758 177.713 100.118 178.407 96.1489 175.629ZM146.158 177.514C146.158 177.911 145.662 177.812 145.563 178.109C150.822 182.178 154.692 183.071 161.736 182.674C164.912 180.392 167.789 177.613 171.163 175.43C163.423 176.125 153.699 180.888 146.158 177.514ZM192 191.406C191.802 186.841 190.611 177.415 187.733 175.728C181.78 172.255 171.262 182.773 166.797 184.361C167.293 185.75 168.087 186.841 168.186 188.627C170.865 187.933 174.04 188.429 176.323 189.52C173.643 189.818 170.766 189.818 168.98 191.108C168.385 192.993 169.178 195.474 168.682 198.054C174.933 199.84 182.177 200.733 190.115 201.03C191.603 199.046 192.198 195.275 192 191.406ZM89.3024 179.598C88.0124 178.705 79.3799 167.492 78.1892 167.988C62.6109 174.14 48.0248 184.757 35.0264 194.878C47.4295 221.57 52.49 254.215 53.383 285.669C67.5721 292.317 80.0744 301.942 99.4233 302.934C97.1411 287.157 95.1566 272.968 93.8667 258.085C89.0047 256.001 82.0589 258.184 77.4946 257.489C77.4946 252.032 84.4403 255.108 85.0357 251.437C85.4326 248.658 81.1659 248.46 82.5551 244.094C86.1272 245.384 88.0124 248.261 91.783 249.353C95.2558 241.812 91.783 228.416 92.2791 222.066C92.3783 220.875 92.8745 215.517 95.5535 216.41C97.9349 217.204 95.4543 230.798 95.6527 236.751C95.8512 242.308 94.9582 247.567 97.2403 251.04C115.895 248.46 134.847 246.872 155.088 246.277C150.623 244.392 145.364 242.606 139.609 239.331C136.434 237.545 126.611 233.874 125.718 230.897C124.229 226.134 129.488 223.654 130.381 219.585C120.955 224.745 119.169 214.624 116.887 207.579C114.902 201.13 113.712 196.268 113.216 192.596C104.98 188.429 96.2481 184.559 89.3024 179.598ZM183.764 169.278C196.763 163.027 199.144 192.795 193.985 202.419C194.778 205.297 197.457 206.388 198.549 208.968C191.305 221.967 183.268 234.072 175.826 246.872C181.284 243.399 189.222 246.277 195.671 243.697C198.053 242.804 199.74 237.347 201.526 232.981C206.487 221.074 211.647 205.992 213.929 194.68C214.425 192.1 215.913 186.444 215.516 184.162C214.921 179.995 209.364 176.919 206.487 174.438C201.228 169.675 197.954 165.607 192.397 161.142C190.313 164.416 185.55 166.599 183.764 169.278ZM59.6341 54.0784C53.4822 60.9249 54.7721 73.6257 55.4667 82.7544C66.6791 75.7094 81.4636 83.3497 81.3644 95.2567C86.7225 95.1575 83.3489 88.6086 82.3566 84.342C79.1814 70.5497 87.7148 55.666 82.7535 43.0644C73.1287 43.8582 65.29 47.728 59.6341 54.0784ZM103.888 14.4877C89.8977 18.4567 71.938 28.6768 66.183 41.2784C70.6481 40.5838 73.7241 38.4009 78.09 38.1032C79.7768 38.004 81.9597 38.7978 83.845 38.3017C87.6155 37.3094 90.89 28.7761 93.7675 25.6009C96.5458 22.5249 99.9194 21.1358 102.202 18.3575C103.69 17.6629 105.873 17.6629 105.972 15.4799C105.377 14.7854 104.682 14.2893 103.888 14.4877ZM176.819 18.2582C162.233 10.0226 137.625 3.87065 122.146 11.6102C109.643 17.8613 92.7752 28.1807 87.0202 41.1792C92.3783 53.7807 85.4326 65.2908 84.9365 78.0908C84.738 84.9373 88.1117 90.7916 88.4093 98.2334C86.5241 101.309 80.9675 101.607 77.0977 101.409C75.8078 94.8598 73.5256 87.5172 66.7783 86.7234C57.2527 85.6319 50.2078 93.5699 49.8109 101.806C49.3148 111.53 57.2527 127.604 68.5644 126.513C72.9303 126.116 74.0217 121.75 78.7845 121.75C81.3644 126.909 74.8155 128.497 74.121 132.168C73.9225 133.161 74.6171 136.832 75.1132 138.618C77.1969 147.052 81.7613 158.066 86.2264 164.516C91.9814 172.751 103.194 173.942 115.299 174.736C117.482 170.072 125.42 170.469 130.58 171.66C124.329 169.179 118.574 163.226 113.811 157.967C108.354 151.914 102.797 145.464 102.499 137.526C112.918 151.914 121.451 164.516 140.304 170.866C154.592 175.629 171.262 168.683 182.276 160.944C186.84 157.768 189.519 152.609 192.794 148.044C204.899 130.581 210.555 105.775 209.364 81.6629C208.868 71.7404 208.868 61.8179 205.495 55.1699C202.022 48.2241 190.214 41.8737 183.268 48.2241C181.978 41.3776 189.023 37.2102 197.259 39.6908C191.405 32.0505 185.253 23.021 176.819 18.2582ZM204.006 242.606C215.417 236.95 236.651 227.424 243.696 242.606C246.375 248.261 249.451 257.688 250.741 263.542C252.626 271.678 248.657 288.944 240.223 291.623C232.781 294.004 224.149 293.905 215.219 292.119C214.127 291.226 213.036 289.737 212.143 288.15C205.792 287.951 199.74 288.447 194.778 291.126C195.274 295.889 192.099 296.584 189.023 297.576C186.84 306.407 193.488 317.917 191.901 325.855C190.809 331.61 183.764 332.503 178.605 333.495C178.406 336.671 178.803 339.35 179.2 342.029C178.009 346.395 172.75 348.875 167.69 349.471C151.119 351.455 126.016 352.348 110.14 346.593C105.674 335.678 102.202 322.482 98.5303 310.078C83.0512 311.765 70.4496 303.43 58.6419 297.874C54.5737 295.988 48.9179 294.897 47.3303 291.623C45.8419 288.447 46.4372 282.395 46.0403 276.739C45.1473 262.153 44.2543 248.063 40.4838 233.179C38.7969 226.432 35.721 220.578 33.6372 214.128C31.6527 208.175 28.2791 200.733 27.3861 194.779C26.0962 185.948 34.431 185.452 39.69 181.582C47.9256 175.629 54.3752 172.354 63.3055 166.996C65.9845 165.409 73.9225 161.44 74.8155 159.554C76.6016 155.883 71.7396 150.723 70.4496 147.846C68.3659 143.281 67.2745 139.412 66.9768 134.947C59.5349 133.756 53.7799 129.291 50.4062 124.33C44.7504 115.995 40.7814 100.615 45.7427 89.0055C46.1396 88.1125 48.0248 86.2272 48.3225 84.8381C48.9179 82.0598 47.231 78.3885 47.1318 75.4117C46.6357 60.2303 49.7117 47.1327 59.9318 42.5683C64.0993 25.9978 78.983 20.5404 92.9737 12.3048C98.2326 9.22879 103.988 7.24429 109.941 5.06135C131.274 -2.77741 164.118 -1.28904 181.879 12.1063C189.42 17.7621 201.426 29.7683 205.693 38.5001C217.104 61.421 216.211 99.821 208.273 127.802C207.181 131.573 205.693 137.03 203.51 141.595C202.022 144.77 197.358 151.021 197.854 153.799C198.45 156.677 208.571 164.317 210.754 166.401C214.623 170.171 222.065 175.133 222.66 179.895C223.355 184.956 220.478 191.902 218.989 196.764C214.226 213.037 209.464 228.019 204.006 242.606Z" fill="#231F20"/>
<path d="M128.099 129.887C128.695 129.093 132.068 127.803 136.831 130.085C136.831 130.085 131.175 130.978 131.671 140.405L129.29 139.909C129.389 140.008 126.909 131.475 128.099 129.887Z" fill="#F7E4CD"/>
<path d="M169.178 210.457C169.178 211.846 167.988 213.037 166.598 213.037C165.209 213.037 164.019 211.846 164.019 210.457C164.019 209.068 165.209 207.877 166.598 207.877C168.087 207.877 169.178 209.068 169.178 210.457Z" fill="#1D1919"/>
<path d="M171.758 222.463C171.758 223.852 170.567 225.042 169.178 225.042C167.789 225.042 166.598 223.852 166.598 222.463C166.598 221.074 167.789 219.883 169.178 219.883C170.667 219.883 171.758 220.974 171.758 222.463Z" fill="#1D1919"/>
<path d="M36.614 374.277C35.8202 374.377 35.1256 374.476 34.5303 374.575C33.9349 374.674 33.3396 374.774 32.5458 374.972C31.6528 375.171 31.1567 375.567 30.9582 376.163C30.7598 376.758 30.5613 377.353 30.5613 378.147V402.358C30.5613 404.541 30.0652 406.625 29.1722 408.51C28.2791 410.395 27.0884 411.884 25.5008 413.174C23.9132 414.364 22.1272 415.357 20.1427 415.952C18.1582 416.547 16.0745 416.944 13.8915 416.944C10.0218 416.944 6.9458 416.051 4.5644 414.166C2.18301 412.281 0.99231 409.8 0.99231 406.526C0.99231 404.64 1.48843 403.053 2.57991 401.763C3.67138 400.473 5.15975 399.877 7.04502 399.877C8.83107 399.877 10.2202 400.374 11.3117 401.465C12.4032 402.557 12.8993 403.846 12.8993 405.335C12.8993 406.625 12.4032 407.915 11.5101 409.006C10.6171 410.098 9.52564 411.189 8.33495 412.082V412.479C8.53339 412.876 8.93029 413.273 9.52564 413.571C10.121 413.868 10.8156 413.967 11.4109 413.967C13.8915 413.967 15.876 413.074 17.2652 411.288C18.6543 409.502 19.3489 406.823 19.3489 403.251V378.445C19.3489 377.75 19.2497 377.056 19.0512 376.56C18.8528 376.064 18.2574 375.667 17.3644 375.27C16.7691 374.972 15.9753 374.774 15.0822 374.575C14.1892 374.377 13.4946 374.277 12.8993 374.178V371.797H36.3163V374.277H36.614Z" fill="#231F20"/>
<path d="M73.3272 408.41C72.6326 409.601 71.7396 410.693 70.7473 411.784C69.7551 412.876 68.5644 413.669 67.2745 414.463C65.8853 415.257 64.4962 415.852 63.107 416.249C61.7179 416.646 60.031 416.845 58.245 416.845C55.169 416.845 52.5892 416.448 50.307 415.555C48.1241 414.662 46.2388 413.57 44.8497 412.082C43.3613 410.593 42.369 408.907 41.5752 406.922C40.8807 404.938 40.4838 402.755 40.4838 400.472C40.4838 398.389 40.8807 396.305 41.6745 394.42C42.4683 392.534 43.5597 390.748 44.9489 389.26C46.338 387.772 48.1241 386.581 50.307 385.688C52.49 384.795 54.8714 384.299 57.4512 384.299C60.3287 384.299 62.7101 384.696 64.5954 385.39C66.4807 386.085 67.969 387.077 69.1597 388.268C70.3504 389.459 71.1442 390.848 71.7396 392.435C72.2357 394.023 72.5334 395.71 72.5334 397.496V399.48H51.5969C51.5969 403.747 52.3907 406.922 54.0776 409.105C55.6652 411.288 58.3442 412.379 61.8171 412.379C63.8016 412.379 65.4884 411.883 67.076 410.792C68.6636 409.7 69.9535 408.41 71.045 406.724L73.3272 408.41ZM61.5194 396.603C61.5194 395.412 61.4202 394.122 61.321 392.832C61.2217 391.542 61.0233 390.451 60.6264 389.657C60.2295 388.665 59.8326 387.97 59.138 387.474C58.5427 386.978 57.7489 386.779 56.8559 386.779C55.2683 386.779 53.9783 387.573 53.0853 389.161C52.0931 390.748 51.5969 393.328 51.4977 396.801L61.5194 396.603Z" fill="#231F20"/>
<path d="M117.085 415.754H98.4311V413.472C98.828 413.472 99.3241 413.373 99.8202 413.274C100.416 413.174 100.812 413.075 101.11 412.976C101.507 412.778 101.805 412.381 102.003 411.984C102.202 411.587 102.301 410.892 102.301 410.098V395.612C102.301 393.528 101.904 391.94 101.11 390.849C100.316 389.757 99.2249 389.261 97.6373 389.261C96.8435 389.261 96.0497 389.36 95.3551 389.658C94.6606 389.857 93.966 390.253 93.2714 390.75C92.6761 391.147 92.1799 391.543 91.783 392.04C91.3861 392.436 91.0885 392.833 90.89 393.23V409.801C90.89 410.495 90.9892 411.091 91.1877 411.587C91.3861 412.083 91.783 412.48 92.1799 412.678C92.4776 412.877 92.8745 413.075 93.3706 413.174C93.8668 413.274 94.3629 413.373 94.859 413.472V415.754H76.0063V413.472C76.5024 413.472 76.9985 413.373 77.5939 413.274C78.09 413.174 78.5861 413.075 78.983 412.976C79.6776 412.778 80.0745 412.381 80.3722 411.885C80.5706 411.388 80.7691 410.793 80.7691 409.999V391.94C80.7691 391.345 80.5706 390.65 80.273 390.055C79.9753 389.46 79.4792 388.964 78.983 388.567C78.5861 388.368 78.1892 388.071 77.5939 387.971C76.9985 387.773 76.4032 387.674 75.7086 387.674V385.391L90.4931 384.598L90.9892 385.094V389.559H91.0885C91.6838 389.063 92.3784 388.467 93.1722 387.674C93.966 386.979 94.7598 386.384 95.4544 385.888C96.2482 385.391 97.2404 384.995 98.4311 384.598C99.6218 384.201 101.011 384.102 102.4 384.102C105.774 384.102 108.254 385.094 109.941 386.979C111.628 388.864 112.422 391.444 112.422 394.619V409.801C112.422 410.595 112.521 411.19 112.719 411.587C112.918 412.083 113.414 412.381 114.009 412.678C114.307 412.778 114.704 412.976 115.2 413.075C115.696 413.174 116.192 413.274 116.887 413.373V415.754H117.085Z" fill="#231F20"/>
<path d="M159.752 415.753H145.166C143.38 412.578 141.693 409.899 140.205 407.716C138.716 405.533 137.327 403.449 136.037 401.663L134.251 403.251V409.998C134.251 410.693 134.35 411.387 134.549 411.784C134.747 412.28 135.144 412.578 135.839 412.876C136.236 413.074 136.633 413.173 137.129 413.273C137.625 413.372 138.121 413.471 138.617 413.471V415.753H119.367V413.471C119.864 413.471 120.36 413.372 120.955 413.273C121.451 413.173 121.947 413.074 122.344 412.975C123.039 412.777 123.436 412.38 123.733 411.884C123.932 411.387 124.13 410.792 124.13 409.998V375.468C124.13 374.773 123.932 374.079 123.634 373.384C123.336 372.69 122.94 372.094 122.344 371.698C121.947 371.499 121.352 371.201 120.558 371.102C119.764 370.904 119.07 370.804 118.375 370.804V368.522L133.755 367.729L134.251 368.225V400.175C135.74 398.786 137.526 397.198 139.411 395.412C141.296 393.626 142.884 392.138 143.975 390.947C144.67 390.253 145.067 389.756 145.067 389.36C145.166 388.963 145.166 388.764 145.166 388.665C145.166 388.268 144.868 387.97 144.174 387.772C143.479 387.573 142.586 387.276 141.197 387.077V384.894H156.874V387.077C154.791 387.673 153.203 388.169 152.112 388.665C151.02 389.161 149.83 389.856 148.54 390.649C147.647 391.245 146.853 391.84 146.059 392.435C145.265 393.031 144.372 393.825 143.281 394.718C145.265 397.694 147.15 400.373 148.837 402.854C150.524 405.335 152.31 408.014 154.195 410.792C154.791 411.784 155.585 412.38 156.577 412.777C157.569 413.074 158.462 413.273 159.454 413.372V415.753H159.752Z" fill="#231F20"/>
<path d="M179.597 415.754H160.05V413.472C160.546 413.472 161.141 413.372 161.637 413.273C162.133 413.174 162.63 413.075 162.927 412.975C163.622 412.777 164.019 412.38 164.316 411.884C164.614 411.388 164.713 410.792 164.713 409.999V391.94C164.713 391.245 164.515 390.551 164.217 390.054C163.919 389.459 163.523 389.062 163.026 388.765C162.629 388.566 162.133 388.268 161.34 388.07C160.546 387.872 159.851 387.673 159.256 387.673V385.391L174.437 384.597L174.933 385.093V409.701C174.933 410.396 175.132 410.991 175.43 411.586C175.727 412.082 176.223 412.479 176.719 412.678C177.116 412.876 177.612 413.075 178.109 413.174C178.605 413.273 179.101 413.372 179.696 413.472V415.754H179.597ZM175.132 373.583C175.132 375.171 174.536 376.461 173.346 377.552C172.155 378.644 170.667 379.239 169.079 379.239C167.392 379.239 166.003 378.644 164.713 377.552C163.523 376.461 162.927 375.072 162.927 373.583C162.927 371.996 163.523 370.706 164.713 369.515C165.904 368.423 167.392 367.828 169.079 367.828C170.766 367.828 172.155 368.423 173.346 369.515C174.536 370.606 175.132 371.996 175.132 373.583Z" fill="#231F20"/>
<path d="M223.355 415.754H204.701V413.472C205.098 413.472 205.594 413.373 206.09 413.274C206.685 413.174 207.082 413.075 207.38 412.976C207.777 412.778 208.074 412.381 208.273 411.984C208.471 411.587 208.571 410.892 208.571 410.098V395.612C208.571 393.528 208.174 391.94 207.38 390.849C206.586 389.757 205.495 389.261 203.907 389.261C203.113 389.261 202.319 389.36 201.625 389.658C200.93 389.956 200.236 390.253 199.541 390.75C198.946 391.147 198.45 391.543 198.053 392.04C197.656 392.436 197.358 392.833 197.16 393.23V409.801C197.16 410.495 197.259 411.091 197.457 411.587C197.656 412.083 198.053 412.48 198.45 412.678C198.747 412.877 199.144 413.075 199.64 413.174C200.136 413.274 200.633 413.373 201.129 413.472V415.754H182.276V413.472C182.772 413.472 183.268 413.373 183.864 413.274C184.36 413.174 184.856 413.075 185.253 412.976C185.947 412.778 186.344 412.381 186.642 411.885C186.84 411.388 187.039 410.793 187.039 409.999V391.94C187.039 391.345 186.84 390.65 186.543 390.055C186.245 389.46 185.749 388.964 185.253 388.567C184.856 388.368 184.459 388.071 183.864 387.971C183.268 387.773 182.673 387.674 181.978 387.674V385.391L196.763 384.598L197.259 385.094V389.559H197.358C197.953 389.063 198.648 388.467 199.442 387.674C200.236 386.979 201.029 386.384 201.724 385.888C202.518 385.391 203.51 384.995 204.701 384.598C205.891 384.201 207.281 384.102 208.67 384.102C212.043 384.102 214.524 385.094 216.211 386.979C217.898 388.864 218.691 391.444 218.691 394.619V409.801C218.691 410.595 218.791 411.19 218.989 411.587C219.188 412.083 219.684 412.381 220.279 412.678C220.577 412.778 220.974 412.976 221.47 413.075C221.966 413.174 222.462 413.274 223.157 413.373V415.754H223.355Z" fill="#231F20"/>
<path d="M240.521 416.845C238.536 416.845 236.552 416.547 234.667 415.952C232.781 415.356 231.293 414.761 230.202 414.066L229.309 416.15H226.927L226.53 404.64H228.812C229.11 405.533 229.606 406.624 230.4 407.815C231.095 409.006 231.988 409.998 232.881 410.99C233.873 411.883 234.964 412.677 236.254 413.372C237.544 413.967 238.834 414.364 240.223 414.364C242.109 414.364 243.498 413.967 244.391 413.272C245.284 412.578 245.78 411.387 245.78 409.899C245.78 409.105 245.581 408.41 245.185 407.815C244.788 407.319 244.192 406.823 243.498 406.426C242.704 406.029 241.811 405.632 240.819 405.334C239.826 405.037 238.636 404.739 237.247 404.243C235.857 403.846 234.667 403.449 233.674 402.953C232.682 402.556 231.591 401.862 230.598 400.969C229.705 400.175 228.912 399.183 228.416 398.091C227.82 397 227.622 395.61 227.622 394.023C227.622 391.145 228.812 388.764 231.293 386.978C233.774 385.192 236.949 384.299 240.918 384.299C242.803 384.299 244.49 384.497 246.078 384.894C247.665 385.291 248.955 385.688 250.047 386.184L250.741 384.398H253.123L253.619 394.916H251.436C250.741 392.733 249.451 390.947 247.764 389.359C245.978 387.772 244.093 386.978 242.109 386.978C240.521 386.978 239.231 387.276 238.338 387.97C237.445 388.665 236.949 389.558 236.949 390.748C236.949 392.336 237.643 393.428 238.933 394.122C240.223 394.817 242.109 395.511 244.49 396.107C248.161 397.099 250.84 398.389 252.626 399.976C254.313 401.663 255.206 403.747 255.206 406.228C255.206 409.601 253.916 412.28 251.237 414.066C248.261 415.852 244.788 416.845 240.521 416.845Z" fill="#231F20"/>
</g>
<defs>
<clipPath id="clip0_1_5702">
<rect width="256" height="417" fill="white"/>
</clipPath>
</defs>
</svg>
