<svg width="256" height="257" viewBox="0 0 256 257" fill="none" xmlns="http://www.w3.org/2000/svg">
<g clip-path="url(#clip0_1_5790)">
<path d="M112.663 117.374L42.0528 57.6077C34.1666 51.0082 23.0981 49.7648 13.9442 54.4501C4.79028 59.1353 -0.67423 68.8408 0.0669358 79.0973C0.808101 89.3539 7.61124 98.1728 17.3437 101.493H17.5998L18.2658 101.698L107.335 128.832C107.981 129.066 108.663 129.187 109.35 129.191C112.195 129.176 114.686 127.276 115.451 124.535C116.217 121.794 115.072 118.878 112.646 117.391L112.663 117.374Z" fill="url(#paint0_linear_1_5790)"/>
<path d="M126.819 18.7083C126.86 11.8598 123.134 5.54274 117.12 2.26622C111.106 -1.01029 103.777 -0.715912 98.0455 3.03245L11.811 55.3879C3.82069 60.5958 -0.61424 69.8121 0.301531 79.3058C1.2173 88.7994 7.33209 96.998 16.1706 100.583C25.0091 104.167 35.1072 102.544 42.3773 96.3706L119.681 33.3767L120.296 32.8644C124.431 29.323 126.813 24.1526 126.819 18.7083Z" fill="url(#paint1_linear_1_5790)"/>
<path d="M252.226 131.53L121.389 5.52555C116.564 0.683553 109.475 -1.12746 102.919 0.807094C96.363 2.74165 91.3929 8.11108 89.9698 14.7967C88.5467 21.4824 90.8991 28.4105 96.0988 32.8474L96.3379 33.0523L235.338 150.16C239.082 153.301 244.308 153.987 248.736 151.917C253.163 149.848 255.99 145.4 255.983 140.512C255.983 137.136 254.629 133.901 252.226 131.53Z" fill="url(#paint2_linear_1_5790)"/>
<path d="M256 140.563C256.034 135.827 253.4 131.474 249.188 129.309C244.976 127.143 239.903 127.533 236.072 130.317L77.759 207.672C69.1532 211.996 63.7005 220.782 63.6451 230.413C63.5906 240.044 68.9428 248.892 77.4987 253.314C86.0547 257.736 96.368 256.985 104.193 251.37L250.587 150.894C253.979 148.548 256.002 144.686 256 140.563Z" fill="url(#paint3_linear_1_5790)"/>
<path d="M75.8465 76.8867H178.303V179.343H75.8465V76.8867Z" fill="black"/>
<path d="M86.9972 160.133H125.419V166.537H86.9972V160.133ZM85.3921 103.304L88.2438 100.606C88.7942 101.475 89.7276 102.027 90.754 102.092C91.8468 102.092 92.564 101.323 92.564 99.8376V89.7285H96.9697V99.8717C97.1028 101.523 96.5323 103.154 95.3987 104.363C94.3189 105.417 92.8857 106.024 91.3862 106.07L91.0101 106.07C88.9203 106.155 86.9241 105.237 85.6269 103.616L85.3921 103.304ZM98.9505 89.7285H111.809V93.4682H103.271V95.9101H110.938V99.3253H103.339V101.87H111.877V105.626H98.8993L98.9505 89.7285ZM118.076 93.6048H113.294V89.7285H127.314V93.6048H122.516V105.712H118.076V93.6048ZM87.168 112.03H94.7156C96.2984 111.9 97.8671 112.41 99.07 113.447C99.7559 114.135 100.132 115.072 100.112 116.043C100.138 117.641 99.1414 119.077 97.6356 119.612C99.5125 119.956 100.86 121.615 100.812 123.522C100.812 126.408 98.5748 128.116 94.7498 128.116H87.168V112.03ZM95.706 116.965C95.706 116.077 94.9888 115.599 93.6911 115.599H91.4882V118.399H93.6228C94.9547 118.399 95.7402 117.938 95.7402 117.016L95.706 116.965ZM94.1692 121.507H91.4882V124.461H94.2546C95.6207 124.461 96.372 123.932 96.372 122.993C96.3401 122.148 95.7728 121.586 94.4894 121.515L94.1692 121.507ZM111.348 128.116L108.12 123.266H106.635V128.116H102.195L102.229 112.03H109.316C111.211 111.876 113.088 112.491 114.524 113.738C115.412 114.645 115.918 115.854 115.946 117.115L115.941 117.46C116.004 119.639 114.682 121.619 112.646 122.395L115.765 127.062L122.106 111.91H126.375L133.205 128.03H128.441L127.297 125.144H121.098L119.954 128.116H111.348ZM124.206 117.17L122.396 121.695H125.999L124.206 117.17ZM109.042 115.872H106.669V119.748L109.06 119.714C110.545 119.714 111.45 118.98 111.45 117.802C111.45 116.521 110.511 115.872 109.042 115.872ZM133.905 111.979H138.345V127.979H133.905V111.979ZM139.984 111.979H144.151L149.906 120.517V111.979H154.294V127.979H150.418L144.39 119.202V127.979H139.984V111.979ZM155.029 125.605L157.487 122.651C158.928 123.855 160.734 124.536 162.61 124.581C163.823 124.581 164.455 124.154 164.455 123.471C164.455 122.955 164.176 122.634 163.149 122.296L162.661 122.149C162.572 122.124 162.478 122.099 162.38 122.074L161.739 121.917L161.389 121.835L160.707 121.666L160.054 121.487C157.501 120.743 155.712 119.641 155.712 116.914C155.712 113.942 158.068 111.791 161.91 111.791C164.285 111.702 166.615 112.458 168.485 113.925L166.35 116.965C165.058 115.989 163.494 115.44 161.876 115.394C160.8 115.394 160.271 115.821 160.271 116.419C160.271 116.96 160.568 117.278 161.619 117.606L162.117 117.748C162.208 117.772 162.303 117.797 162.403 117.821L163.054 117.972C166.726 118.775 168.997 119.97 168.997 122.959C168.997 126.111 166.587 127.956 162.925 128.075L162.542 128.082C159.99 128.19 157.483 127.423 155.432 125.917L155.029 125.605Z" fill="white"/>
</g>
<defs>
<linearGradient id="paint0_linear_1_5790" x1="2912.62" y1="3410.44" x2="10571.3" y2="7135.15" gradientUnits="userSpaceOnUse">
<stop offset="0.21" stop-color="#FE2857"/>
<stop offset="1" stop-color="#293896"/>
</linearGradient>
<linearGradient id="paint1_linear_1_5790" x1="288.705" y1="7904.82" x2="10113.3" y2="618.379" gradientUnits="userSpaceOnUse">
<stop stop-color="#FE2857"/>
<stop offset="0.01" stop-color="#FE2857"/>
<stop offset="0.86" stop-color="#FF318C"/>
</linearGradient>
<linearGradient id="paint2_linear_1_5790" x1="1137.8" y1="2130.3" x2="14815.9" y2="14550.2" gradientUnits="userSpaceOnUse">
<stop offset="0.02" stop-color="#FF318C"/>
<stop offset="0.21" stop-color="#FE2857"/>
<stop offset="0.86" stop-color="#FDB60D"/>
</linearGradient>
<linearGradient id="paint3_linear_1_5790" x1="17584.7" y1="3683.22" x2="3502.94" y2="13376" gradientUnits="userSpaceOnUse">
<stop offset="0.01" stop-color="#FDB60D"/>
<stop offset="0.86" stop-color="#FCF84A"/>
</linearGradient>
<clipPath id="clip0_1_5790">
<rect width="256" height="257" fill="white"/>
</clipPath>
</defs>
</svg>
