<svg width="512" height="142" viewBox="0 0 512 142" fill="none" xmlns="http://www.w3.org/2000/svg">
<g clip-path="url(#clip0_1_5783)">
<path d="M168.658 94.5461L179.395 81.3833C186.917 87.6262 194.701 91.5939 204.198 91.5939C211.536 91.5939 215.956 88.7302 216.168 84.0156L216.176 83.4893L216.165 83.013C216.055 80.5921 215.047 78.7869 211.897 77.0663L211.26 76.7342C211.038 76.6237 210.808 76.5135 210.567 76.4033L209.818 76.0728L209.008 75.7419C208.868 75.6867 208.726 75.6314 208.58 75.576L207.678 75.2428C207.522 75.1871 207.364 75.1313 207.203 75.0753L206.202 74.7379C206.03 74.6814 205.855 74.6247 205.677 74.5678L204.575 74.2243L203.402 73.8756C203.201 73.817 202.996 73.7581 202.789 73.699L200.837 73.1592L197.409 72.254L196.09 71.8924L194.164 71.3398L192.916 70.9624L191.698 70.5763L190.51 70.1799L189.353 69.7719C178.701 65.9043 172.162 60.3228 171.936 47.7643L171.93 46.8404C171.93 31.791 183.705 21.7592 200.315 21.4978L200.982 21.4926C212.202 21.3106 223.125 25.1003 231.821 32.1921L222.419 46.1258C215.066 40.9547 207.827 37.8333 200.832 37.8333C193.837 37.8333 190.151 41.0675 190.151 45.1668L190.154 45.6751L190.18 46.2212C190.407 49.245 191.984 51.0897 196.369 52.8916L197.173 53.2094L198.036 53.5276L198.961 53.8478L199.95 54.1712L201.004 54.4993L202.126 54.8335L203.938 55.3491L205.236 55.7044L208.816 56.653L210.313 57.0679C210.805 57.208 211.29 57.3499 211.768 57.4939L213.181 57.9318C226.633 62.2278 234.121 68.3769 234.371 81.0242L234.378 81.9286C234.378 98.6266 221.798 108.01 203.897 108.01C190.888 108.044 178.33 103.246 168.658 94.5461ZM294.099 74.7267V74.4822C294.099 63.7828 286.991 56.6937 278.567 56.6937C270.294 56.6937 263.398 63.5318 263.155 73.9125L263.148 74.7267C263.148 85.4074 270.143 92.4965 278.567 92.4965C286.991 92.4965 294.099 85.539 294.099 74.7267ZM245.341 42.4026H263.374V51.6542C267.637 45.1866 274.831 41.2778 282.549 41.197L283.193 41.1992C297.838 41.1992 311.804 52.6983 312.127 73.7358L312.132 74.7267C312.132 95.9883 298.576 107.735 283.718 108.005L283.193 108.01C275.436 108.133 268.081 104.567 263.374 98.4009V125.986H245.341V42.4026ZM360.045 84.1099V80.8568C356.427 79.2352 352.501 78.4141 348.537 78.4499C340.827 78.4499 336.089 81.5713 336.089 87.3442V87.5698C336.089 92.4965 340.113 95.3923 345.923 95.3923C354.347 95.3923 360.045 90.7101 360.045 84.1099ZM318.657 88.3032V88.1339C318.657 74.0685 329.206 67.5812 344.268 67.5812C349.562 67.535 354.822 68.4328 359.801 70.2325V69.1419C359.801 61.6203 355.175 57.3706 346.168 57.3706C340.149 57.3759 334.189 58.5576 328.623 60.8493L324.111 46.9156C331.493 43.479 339.537 41.7108 347.672 41.7305L348.781 41.7445C358.616 41.7445 365.705 44.3959 370.256 48.9652C374.806 53.5346 377.119 60.8493 377.119 69.518V106.806H359.688V99.83C354.84 105.312 347.781 108.316 340.47 108.01C328.492 108.01 318.657 101.033 318.657 88.3032ZM386.615 74.9524V74.7267C386.434 66.016 389.722 57.5905 395.753 51.3034C401.785 45.0164 410.067 41.383 418.778 41.2025L419.366 41.1956L419.954 41.1992C431.933 41.1992 439.398 45.2796 445.321 52.0115L434.302 64.0272C430.259 59.7023 426.235 56.9381 419.823 56.9381C410.977 56.9381 404.633 64.7014 404.41 73.9749L404.404 74.7267C404.404 84.58 410.703 92.4965 420.537 92.4965C426.592 92.4965 430.748 89.8639 435.129 85.6518L445.678 96.4641L444.868 97.3481L444.045 98.2087L443.207 99.0443C437.703 104.392 431.087 108.067 420.53 108.247L419.71 108.254C401.662 108.486 386.844 94.0431 386.612 75.9952C386.607 75.6476 386.608 75.3 386.615 74.9524ZM494.437 69.5744C493.365 61.3947 488.627 55.8663 481.03 55.8663C473.433 55.8663 468.694 61.2818 467.265 69.5744H494.437ZM449.608 74.9711V74.7455C449.608 56.3552 462.527 41.218 481.03 41.218C502.259 41.218 512 57.9159 512 76.1746C512 76.8985 511.967 77.6836 511.92 78.4969L511.756 80.9884H467.51C468.639 88.5815 475.378 94.0562 483.042 93.6059C489.097 93.6059 493.478 91.7255 498.461 86.9869L508.784 96.2573C502.54 104.175 492.893 108.639 482.816 108.273C463.711 108.273 449.608 94.6777 449.608 74.9711Z" fill="black"/>
<path d="M25.5408 141.03C75.7153 136.635 119.737 105.815 141.035 60.1728C114.657 22.477 71.5493 0.0178942 25.5408 0C21.4415 0 17.3234 0.181772 13.1866 0.545316C-8.08552 46.2184 -3.37615 99.7705 25.5408 141.03Z" fill="url(#paint0_linear_1_5783)"/>
<path d="M13.3369 0.564137C43.3574 12.7671 69.1508 33.4881 87.5375 60.1728H141.035C114.735 22.4557 71.6531 -0.0159371 25.6723 8.48035e-06C21.5731 8.48035e-06 17.4613 0.188057 13.3369 0.564137Z" fill="url(#paint1_linear_1_5783)"/>
<path d="M87.5375 60.1719C81.0878 102.801 25.4844 141.029 25.4844 141.029C76.0483 136.253 120.369 105.978 141.035 60.1719H87.5375Z" fill="url(#paint2_linear_1_5783)"/>
</g>
<defs>
<linearGradient id="paint0_linear_1_5783" x1="6358.19" y1="-189.41" x2="7830.44" y2="13765.9" gradientUnits="userSpaceOnUse">
<stop stop-color="#FCF84A"/>
<stop offset="0.32" stop-color="#ABE682"/>
<stop offset="0.79" stop-color="#36CDD2"/>
<stop offset="1" stop-color="#07C3F2"/>
</linearGradient>
<linearGradient id="paint1_linear_1_5783" x1="-362.299" y1="2346.28" x2="10952.9" y2="7714.59" gradientUnits="userSpaceOnUse">
<stop stop-color="#3BEA62"/>
<stop offset="1" stop-color="#087CFA"/>
</linearGradient>
<linearGradient id="paint2_linear_1_5783" x1="-356.733" y1="5866.27" x2="10707.1" y2="-1876.83" gradientUnits="userSpaceOnUse">
<stop stop-color="#009AE5"/>
<stop offset="0.18" stop-color="#0490DD"/>
<stop offset="0.49" stop-color="#1073C6"/>
<stop offset="0.89" stop-color="#2346A1"/>
<stop offset="1" stop-color="#293896"/>
</linearGradient>
<clipPath id="clip0_1_5783">
<rect width="512" height="142" fill="white"/>
</clipPath>
</defs>
</svg>
