<svg width="256" height="256" viewBox="0 0 256 256" fill="none" xmlns="http://www.w3.org/2000/svg">
<g clip-path="url(#clip0_1_5774)">
<path d="M0 0H256V256H0V0Z" fill="black"/>
<path d="M27.8613 208.001H123.861V224.001H27.8613V208.001ZM23.8506 66.0059L30.9759 59.2646C32.3513 61.4351 34.6834 62.8153 37.2479 62.9766C39.9786 62.9766 41.7706 61.0566 41.7706 57.3446V32.0859H52.7786V57.4299C53.1113 61.5566 51.6857 65.6318 48.8533 68.6513C46.1554 71.2861 42.5742 72.8015 38.8276 72.9181L37.8879 72.9179C32.6662 73.1283 27.6787 70.836 24.4375 66.7858L23.8506 66.0059ZM57.7279 32.0859H89.8559V41.4299H68.5226V47.5313H87.6799V56.0646H68.6933V62.4219H90.0266V71.8086H57.5999L57.7279 32.0859ZM105.515 41.7713H93.5679V32.0859H128.597V41.7713H116.608V72.0219H105.515V41.7713ZM28.2879 87.8086H47.1466C51.1013 87.4833 55.021 88.7592 58.0266 91.3499C59.7403 93.0676 60.6801 95.4094 60.6293 97.8353C60.6947 101.827 58.205 105.416 54.4426 106.753C59.1322 107.612 62.4987 111.757 62.3786 116.523C62.3786 123.734 56.7893 128.001 47.2319 128.001H28.2879V87.8086ZM49.6213 100.139C49.6213 97.9206 47.8293 96.7259 44.5866 96.7259H39.0826V103.723H44.4159C47.7439 103.723 49.7066 102.571 49.7066 100.267L49.6213 100.139ZM45.7813 111.489H39.0826V118.87H45.9946C49.4079 118.87 51.2853 117.547 51.2853 115.201C51.2056 113.09 49.7879 111.686 46.5813 111.508L45.7813 111.489ZM88.7039 128.001L80.6399 115.883H76.9279V128.001H65.8346L65.9199 87.8086H83.6266C88.3616 87.423 93.0524 88.961 96.6399 92.0753C98.8595 94.3429 100.123 97.3634 100.192 100.514L100.181 101.377C100.339 106.82 97.035 111.767 91.9466 113.707L99.7418 125.368L115.584 87.5099H126.251L143.317 127.787H131.413L128.555 120.577H113.067L110.208 128.001H88.7039ZM120.832 100.651L116.309 111.958H125.312L120.832 100.651ZM82.9439 97.4086H77.0133V107.094L82.9866 107.009C86.6986 107.009 88.9599 105.174 88.9599 102.23C88.9599 99.0299 86.6133 97.4086 82.9439 97.4086ZM145.067 87.6806H156.16V127.659H145.067V87.6806ZM160.256 87.6806H170.667L185.045 109.014V87.6806H196.011V127.659H186.325L171.264 105.729V127.659H160.256V87.6806ZM197.845 121.729L203.989 114.347C207.588 117.356 212.1 119.055 216.789 119.169C219.819 119.169 221.397 118.102 221.397 116.395C221.397 115.106 220.702 114.304 218.135 113.459L216.916 113.092C216.693 113.03 216.459 112.968 216.214 112.904L214.613 112.513L213.738 112.308L212.034 111.886L210.401 111.438C204.023 109.579 199.552 106.826 199.552 100.011C199.552 92.5873 205.44 87.2113 215.04 87.2113C220.974 86.9889 226.795 88.8787 231.467 92.5446L226.133 100.139C222.906 97.7005 218.998 96.3284 214.955 96.2139C212.267 96.2139 210.944 97.2806 210.944 98.7739C210.944 100.126 211.685 100.922 214.311 101.742L215.556 102.097C215.783 102.157 216.022 102.217 216.271 102.278L217.899 102.657C227.072 104.662 232.747 107.649 232.747 115.115C232.747 122.993 226.726 127.601 217.576 127.9L216.619 127.915C210.242 128.187 203.977 126.271 198.854 122.506L197.845 121.729Z" fill="white"/>
</g>
<defs>
<clipPath id="clip0_1_5774">
<rect width="256" height="256" fill="white"/>
</clipPath>
</defs>
</svg>
