<svg width="256" height="258" viewBox="0 0 256 258" fill="none" xmlns="http://www.w3.org/2000/svg">
<g clip-path="url(#clip0_1_5817)">
<path d="M255.667 35.5625C255.667 16.9552 240.583 1.87109 221.976 1.87109C204.986 1.87109 190.941 14.449 188.627 30.8001C188.411 30.6855 188.286 30.6208 188.286 30.6208C160.733 18.1933 137.524 40.2044 137.524 40.2044L76.1327 101.896L100.39 125.256L149.803 76.7107C172.877 53.6359 185.441 69.2539 185.441 69.2539C202.811 83.9276 186.039 101.298 186.039 101.298L210.896 125.256C231.194 103.334 232.371 84.2005 226.201 68.9799C242.813 66.9001 255.667 52.7374 255.667 35.5625Z" fill="#F9AE41"/>
<path d="M226.514 190.507C226.629 190.292 226.693 190.167 226.693 190.167C239.122 162.613 217.11 139.405 217.11 139.405L155.417 78.0117L132.058 102.27L180.603 151.683C203.678 174.758 188.06 187.322 188.06 187.322C173.387 204.692 156.017 187.92 156.017 187.92L132.058 212.776C153.979 233.074 173.114 234.251 188.333 228.082C190.413 244.694 204.577 257.548 221.752 257.548C240.359 257.548 255.442 242.464 255.442 223.857C255.442 206.867 242.865 192.822 226.514 190.507Z" fill="#EE4035"/>
<path d="M155.942 133.041L106.529 181.585C83.4541 204.661 70.8901 189.044 70.8901 189.044C53.52 174.37 70.2915 157 70.2915 157L45.4356 133.042C25.1378 154.963 23.9604 174.097 30.1294 189.317C13.5172 191.397 0.663452 205.559 0.663452 222.735C0.663452 241.342 15.7475 256.425 34.3548 256.425C51.3445 256.426 65.3896 243.849 67.7036 227.498C67.9197 227.613 68.0452 227.676 68.0452 227.676C95.5986 240.106 118.807 218.093 118.807 218.093L180.199 156.4L155.942 133.041Z" fill="#4F91CD"/>
<path d="M75.7272 106.614C52.6524 83.5387 68.2684 70.9747 68.2684 70.9747C82.944 53.6046 100.313 70.3761 100.313 70.3761L124.272 45.5212C102.35 25.2234 83.217 24.046 67.9974 30.2149C65.9165 13.6018 51.7549 0.748047 34.578 0.748047C15.9717 0.748047 0.888569 15.8321 0.887573 34.4394C0.887573 51.4301 13.4644 65.4752 29.8156 67.7892C29.701 68.0053 29.6373 68.1308 29.6373 68.1308C17.2068 95.6832 39.2198 118.891 39.2198 118.891L100.914 180.284L124.273 156.026L75.7272 106.614Z" fill="#7AC043"/>
</g>
<defs>
<clipPath id="clip0_1_5817">
<rect width="256" height="258" fill="white"/>
</clipPath>
</defs>
</svg>
