<svg width="257" height="183" viewBox="0 0 257 183" fill="none" xmlns="http://www.w3.org/2000/svg">
<g clip-path="url(#clip0_1_5849)">
<path d="M253.011 117.358L234.662 110.878L232.438 97.4485C232.163 95.7805 230.993 94.4075 229.403 93.8605C227.813 93.3255 226.055 93.6875 224.811 94.8285L202.096 115.809L189.571 88.9685C205.183 64.4545 212.755 40.0505 213.31 38.2185C213.824 36.4815 213.288 34.6135 211.925 33.4295C210.562 32.2465 208.632 31.9875 206.993 32.7415L171.151 49.4605L164.67 35.5555L177.132 6.82948C177.892 5.09248 177.489 3.05848 176.122 1.73848C174.752 0.40148 172.718 0.0604796 170.994 0.86148L2.71711 79.3405C1.14211 80.0695 0.114112 81.6255 0.0621118 83.3575C0.0211118 85.0795 0.937112 86.7005 2.46711 87.5215L33.0931 104.057L56.7721 154.842C57.2901 155.933 58.2131 156.786 59.3491 157.202L128.801 182.546C129.307 182.732 129.84 182.827 130.373 182.827C131.028 182.827 131.691 182.68 132.302 182.4L253.432 125.82C255.108 125.031 256.148 123.306 256.054 121.448C255.969 119.593 254.762 117.973 253.011 117.358Z" fill="#4A0000"/>
<path d="M226.066 115.043L224.792 107.311L206.156 124.531L211.265 135.48L239.425 122.27L229.06 118.611C227.496 118.058 226.345 116.683 226.066 115.043Z" fill="#CA1F27"/>
<path d="M40.1061 97.436L14.7361 83.738L30.3521 76.502L40.1061 97.436Z" fill="#FFD440"/>
<path d="M176.644 91.5489C176.711 91.4519 176.778 91.3679 176.849 91.2729C188.711 74.5749 196.703 56.5549 200.934 45.6719L110.574 87.8079C109.196 88.4429 107.606 88.3589 106.302 87.5939C105.002 86.8259 104.168 85.4539 104.064 83.9509C104.056 83.7479 102.634 64.1059 91.613 57.2049C86.463 53.9759 79.617 54.0559 71.312 57.4249L30.344 76.5189L64.273 149.257L130.149 173.304L196.137 142.544C191.82 136.256 182.234 123.611 169.426 114.539C159.378 124.615 147.52 132.96 133.71 137.291C133.255 137.433 132.797 137.5 132.343 137.5C130.399 137.5 128.592 136.243 127.981 134.286C127.222 131.878 128.563 129.304 130.976 128.559C130.976 128.559 155.694 122.263 176.644 91.5489Z" fill="#CA1F27"/>
<path d="M63.8632 74.9318C58.1732 72.8608 51.8672 75.7938 49.8042 81.4858C47.7302 87.1788 50.6682 93.4728 56.3552 95.5368C62.0502 97.6168 68.3472 94.6838 70.4182 88.9818C72.4812 83.2958 69.5542 77.0028 63.8632 74.9318Z" fill="#4A0000"/>
</g>
<defs>
<clipPath id="clip0_1_5849">
<rect width="257" height="183" fill="white"/>
</clipPath>
</defs>
</svg>
