<svg width="256" height="358" viewBox="0 0 256 358" fill="none" xmlns="http://www.w3.org/2000/svg">
<g clip-path="url(#clip0_1_5856)">
<path d="M8.75281 159.031V305.973C8.75281 334.481 61.9191 357.594 127.503 357.594C193.088 357.594 246.253 334.481 246.253 305.973V159.031C246.253 159.031 241.313 209.208 127.503 209.208C13.6905 209.209 8.75281 159.031 8.75281 159.031Z" fill="#9EAAB2"/>
<path d="M127.503 210.647C193.087 210.647 246.253 187.537 246.253 159.03C246.253 130.524 193.087 107.414 127.503 107.414C61.9191 107.414 8.75281 130.524 8.75281 159.03C8.75281 187.537 61.9191 210.647 127.503 210.647Z" fill="#8E979A"/>
<path d="M8.75281 159.031V305.973C8.75281 334.481 61.9191 357.594 127.503 357.594C193.088 357.594 246.253 334.481 246.253 305.973V159.031C246.253 159.031 241.313 209.208 127.503 209.208C13.6905 209.209 8.75281 159.031 8.75281 159.031Z" fill="#9EAAB2"/>
<path d="M230.371 183.512C233.722 180.947 236.99 178.38 239.46 174.906C240.877 172.908 242.045 170.781 243.141 168.615C244.356 166.504 245.397 164.321 246.252 162.07V305.973C246.252 319.192 234.817 331.249 216.017 340.381V192.18C221.087 189.791 225.926 186.912 230.371 183.512Z" fill="#8E979A"/>
<path d="M24.6348 183.512C21.2819 180.947 18.0156 178.38 15.5463 174.906C14.1258 172.908 12.9594 170.781 11.8637 168.615C10.6494 166.504 9.60847 164.321 8.75281 162.07V305.973C8.75281 319.192 20.1881 331.249 38.9867 340.381V192.18C33.9185 189.791 29.0794 186.912 24.6348 183.512Z" fill="#8E979A"/>
<path d="M127.503 353.736C63.5368 353.736 11.4005 332.36 8.92813 305.6C8.86637 306.259 8.82553 306.922 8.82553 307.586C8.82553 335.271 61.959 357.712 127.503 357.712C193.047 357.712 246.18 335.271 246.18 307.586C246.18 306.922 246.143 306.259 246.078 305.6C243.604 332.36 191.469 353.736 127.503 353.736Z" fill="#8E979A"/>
<path d="M127.503 207.165C63.5368 207.165 11.4005 185.792 8.92813 159.031C8.86637 159.691 8.82553 160.352 8.82553 161.019C8.82553 188.703 61.959 211.144 127.503 211.144C193.047 211.144 246.18 188.703 246.18 161.019C246.18 160.352 246.143 159.691 246.078 159.031C243.604 185.792 191.469 207.165 127.503 207.165Z" fill="#DBE1E3"/>
<path d="M127.503 337.29C63.5368 337.29 11.4005 315.917 8.92813 289.156C8.86637 289.818 8.82553 290.477 8.82553 291.144C8.82553 318.828 61.959 341.269 127.503 341.269C193.047 341.269 246.18 318.828 246.18 291.144C246.18 290.477 246.143 289.818 246.078 289.156C243.604 315.917 191.469 337.29 127.503 337.29Z" fill="#DBE1E3"/>
<path d="M235.916 156.343C235.916 160.889 233.956 164.987 230.339 169.072C223.182 177.159 175.813 195.907 128.238 195.946C80.1748 195.988 31.8994 177.24 24.6656 169.072C21.0418 164.984 19.0894 160.895 19.0894 156.343C19.0894 133.713 67.6288 115.367 127.503 115.367C187.377 115.368 235.916 133.713 235.916 156.343Z" fill="#1A2B2F"/>
<path d="M24.6646 107.413C41.7718 119.347 85.2868 130.487 127.502 130.487C169.717 130.487 215.62 118.95 230.338 107.413V100.252C230.338 100.252 198.082 120.891 127.502 120.891C56.9196 120.891 24.6646 100.252 24.6646 100.252V107.413Z" fill="#1B3134"/>
<path d="M230.339 164.919C230.339 164.919 209.432 194.357 127.503 194.357C45.572 194.357 24.6656 164.919 24.6656 164.919V101.002C24.6656 101.002 54.269 121.159 125.082 121.159C195.895 121.159 230.34 101.002 230.34 101.002V164.919H230.339Z" fill="#213F48"/>
<path d="M127.463 191.211C75.8308 191.203 33.1505 176.265 24.6656 159.031V169.074C24.6656 169.074 45.561 197.302 127.422 197.322H127.463H127.503C209.367 197.302 230.339 169.074 230.339 169.074V159.031C221.854 176.265 179.095 191.203 127.463 191.211Z" fill="#1B3134"/>
<path d="M127.503 118.79C58.7814 118.79 2.7672 97.4148 0.109583 70.6543C0.0438398 71.3137 0.00100708 71.9771 0.00100708 72.6425C0.00100708 100.327 57.086 122.768 127.503 122.768C197.92 122.768 255.005 100.327 255.005 72.6425C255.005 71.9771 254.962 71.3137 254.895 70.6543C252.239 97.4148 196.225 118.79 127.503 118.79Z" fill="#8E979A"/>
<path d="M127.503 0C57.086 0 0.00100708 22.4423 0.00100708 50.1262V72.0067C0.00100708 99.6886 57.086 122.131 127.503 122.131C197.92 122.131 255.005 99.6886 255.005 72.0067V50.1262C255.005 22.4423 197.92 0 127.503 0Z" fill="#9EAAB2"/>
<path d="M127.241 16.9082C146.084 16.9082 163.444 19.4971 176.614 23.7604L195.484 16.9082L200.054 36.3503H143.059L142.333 36.2028L162.596 28.8486C153.275 25.7337 140.841 23.8292 127.294 23.8292C116.436 23.8292 106.263 25.0624 97.8518 27.1711L79.1309 23.37C92.2626 19.2799 109.207 16.9082 127.241 16.9082ZM53.5468 34.8093C54.1794 31.9773 61.1203 29.7192 69.0612 29.7192C77.0002 29.7192 83.1382 31.9783 82.7657 34.8093C82.3872 37.692 75.4244 40.0667 67.2224 40.0667C59.0215 40.0677 52.9024 37.692 53.5468 34.8093ZM127.558 70.726C105.343 70.726 85.6664 67.1938 72.1043 61.6534L47.112 70.726L52.2947 47.0435H111.931L112.202 47.1023L89.1766 55.4586C98.7004 59.201 112.281 61.5697 127.486 61.5697C139.981 61.5697 151.301 59.9849 160.159 57.3662L181.975 62.0379C168.727 67.2874 149.601 70.726 127.558 70.726ZM189.477 54.4237C180.911 54.4237 173.592 51.8318 173.136 48.6931C172.689 45.6091 179.046 43.1527 187.321 43.1527C195.601 43.1527 202.897 45.6091 203.628 48.6931C204.372 51.8318 198.041 54.4237 189.477 54.4237Z" fill="#DBE1E3"/>
<path d="M216.017 108.081V83.7616C216.017 83.7616 250.528 73.154 255.005 50.127V72.0075C255.005 86.1731 240.052 98.9652 216.017 108.081Z" fill="#8E979A"/>
<path d="M38.9867 108.081V83.4956C11.8358 75.0098 1.22621 59.6258 0 50.127V72.0075C0.000996109 86.1731 14.9526 98.9652 38.9867 108.081Z" fill="#8E979A"/>
<path d="M127.503 96.2747C58.7814 96.2747 2.7672 74.8991 0.109583 48.1387C0.0438398 48.7991 0.00100708 49.4605 0.00100708 50.1279C0.00100708 77.8108 57.086 100.252 127.503 100.252C197.92 100.252 255.005 77.8108 255.005 50.1279C255.005 49.4605 254.962 48.7991 254.895 48.1387C252.239 74.8991 196.225 96.2747 127.503 96.2747Z" fill="#DBE1E3"/>
<path d="M195.393 155.2C195.393 164.949 188.261 172.854 178.48 172.854C168.7 172.854 161.568 164.949 161.568 155.2C161.568 145.449 168.7 137.547 178.48 137.547C188.261 137.547 195.393 145.449 195.393 155.2Z" fill="#1B3134"/>
<path d="M178.481 167.223C187.061 167.223 194.017 160.267 194.017 151.687C194.017 143.106 187.061 136.15 178.481 136.15C169.9 136.15 162.944 143.106 162.944 151.687C162.944 160.267 169.9 167.223 178.481 167.223Z" fill="#51C3F1"/>
<path d="M178.48 154.357C181.279 154.357 183.548 152.088 183.548 149.289C183.548 146.49 181.279 144.221 178.48 144.221C175.681 144.221 173.412 146.49 173.412 149.289C173.412 152.088 175.681 154.357 178.48 154.357Z" fill="white"/>
<path d="M93.0346 155.2C93.0346 164.949 85.9024 172.854 76.1216 172.854C66.3428 172.854 59.2087 164.949 59.2087 155.2C59.2087 145.449 66.3418 137.547 76.1216 137.547C85.9024 137.547 93.0346 145.449 93.0346 155.2Z" fill="#1B3134"/>
<path d="M76.277 167.223C84.857 167.223 91.8124 160.268 91.8124 151.688C91.8124 143.108 84.857 136.152 76.277 136.152C67.6971 136.152 60.7417 143.108 60.7417 151.688C60.7417 160.268 67.6971 167.223 76.277 167.223Z" fill="#51C3F1"/>
<path d="M76.1226 154.357C78.9217 154.357 81.1908 152.088 81.1908 149.289C81.1908 146.49 78.9217 144.221 76.1226 144.221C73.3236 144.221 71.0544 146.49 71.0544 149.289C71.0544 152.088 73.3236 154.357 76.1226 154.357Z" fill="white"/>
<path d="M128.239 326.029C122.941 326.029 117.613 325.751 109.231 325.041C105.304 324.704 102.106 321.193 102.106 317.205V237.543C102.106 233.829 104.919 231.027 108.651 231.027C108.857 231.027 109.07 231.037 109.281 231.055C117.631 231.764 122.947 232.042 128.239 232.042C133.53 232.042 138.846 231.764 147.199 231.054C147.408 231.036 147.62 231.027 147.827 231.027C151.556 231.027 154.371 233.828 154.371 237.543V317.205C154.371 321.193 151.172 324.704 147.245 325.041C138.862 325.751 133.534 326.029 128.239 326.029ZM108.651 235.006C107.115 235.006 106.085 236.024 106.085 237.543V317.205C106.085 319.109 107.712 320.918 109.569 321.077C117.828 321.777 123.062 322.052 128.239 322.052C133.413 322.052 138.647 321.778 146.908 321.077C148.764 320.919 150.393 319.109 150.393 317.205V237.543C150.393 235.932 149.194 234.869 147.54 235.02C139.062 235.739 133.652 236.02 128.239 236.02C122.825 236.02 117.414 235.739 108.939 235.02C108.842 235.01 108.743 235.006 108.651 235.006Z" fill="#DBE1E3"/>
<path d="M225.364 231.588C215.92 237.709 198.34 249.101 163.268 257.005C168.306 283.738 168.306 283.738 174.929 318.777C187.062 315.166 212.312 307.647 232.768 290.783C230.434 271.193 228.562 255.958 225.364 231.588Z" fill="#F5DD3E"/>
<path d="M202.513 301.993C195.601 305.806 190.876 300.266 190.876 300.266L194.957 296.388C194.957 296.388 197.234 299.323 200.994 296.82C202.755 295.649 201.606 289.781 201.606 289.781L198.226 273.649L203.546 271.406C203.546 271.406 206.771 290.034 207.108 291.898C207.738 295.388 208.257 298.822 202.513 301.993Z" fill="#3B3735"/>
<path d="M216.842 293.843C212.949 294.43 210.749 291.528 210.749 291.528L214.298 287.184C214.298 287.184 215.636 288.668 217.493 288.39C219.069 288.149 220.919 287.1 221.565 285.12C222.664 281.729 221.645 280.567 218.192 280.952C214.742 281.337 210.403 281.843 209.635 275.039C208.954 269.004 214.23 264.387 217.802 263.759C221.346 263.139 223.324 265.641 223.324 265.641L219.789 269.931C219.789 269.931 217.445 268.865 216.035 270.127C214.753 271.278 214.26 272.779 214.748 273.919C215.176 274.918 216.466 275.359 218.539 275.205C220.613 275.056 224.028 273.85 226.13 278.079C228.494 282.83 226.031 292.458 216.842 293.843Z" fill="#3B3735"/>
</g>
<defs>
<clipPath id="clip0_1_5856">
<rect width="256" height="358" fill="white"/>
</clipPath>
</defs>
</svg>
