<svg width="256" height="273" viewBox="0 0 256 273" fill="none" xmlns="http://www.w3.org/2000/svg">
<g clip-path="url(#clip0_1_5893)">
<path d="M126.517 0L256 45.398L236.333 212.796L126.517 272.817L17.706 212.715L0 45.422L126.517 0Z" fill="#E14337"/>
<path d="M174.235 140.619C174.235 144.742 170.892 148.085 166.768 148.085C162.644 148.085 159.301 144.742 159.301 140.619C159.301 136.495 162.644 133.152 166.768 133.152C170.892 133.152 174.235 136.495 174.235 140.619ZM129.68 93.8492C129.68 97.9722 126.337 101.315 122.214 101.315C118.09 101.315 114.747 97.9722 114.747 93.8492C114.747 89.7252 118.09 86.3822 122.214 86.3822C126.337 86.3822 129.68 89.7252 129.68 93.8492ZM127.711 81.2102C136.815 72.2082 146.855 64.4512 157.09 58.7402C147.783 54.7512 137.535 52.5352 126.767 52.5352C121.728 52.5352 116.806 53.0352 112.036 53.9592C112.899 61.5672 115.736 70.6732 120.234 80.2222C120.882 80.1292 121.54 80.0642 122.214 80.0642C124.169 80.0642 126.026 80.4762 127.711 81.2102ZM88.907 151.759C89.618 146.103 90.951 140.298 92.956 134.377C96.755 123.163 102.904 111.823 110.574 101.212C109.223 99.0802 108.429 96.5592 108.429 93.8492C108.429 90.1272 109.91 86.7562 112.307 84.2762C107.619 74.3952 104.505 64.7252 103.371 56.1632C72.26 66.0702 49.72 95.1892 49.72 129.582C49.72 131.836 49.838 134.061 50.027 136.266C59.569 147.83 70.361 154.374 81.032 157.766C82.805 154.893 85.594 152.722 88.907 151.759ZM131.924 115.167C129.792 112.544 127.766 109.858 125.828 107.138C124.674 107.452 123.466 107.633 122.214 107.633C120.525 107.633 118.914 107.315 117.418 106.759C110.438 116.519 104.837 126.925 101.349 137.22C99.862 141.611 98.54 146.693 97.794 152.166C101.632 153.676 104.631 156.847 105.891 160.803C108.723 160.664 111.447 160.382 114.026 160.002C127.727 157.985 141.398 152.633 153.711 145.014C153.246 143.632 152.983 142.157 152.983 140.618C152.983 139.324 153.175 138.076 153.508 136.888C146.408 131.15 139.13 124.029 131.924 115.167ZM133.169 102.191C140.211 112.082 148.774 121.591 158.533 129.583C160.832 127.864 163.676 126.834 166.768 126.834C169.497 126.834 172.034 127.637 174.174 129.005C183.987 119.397 191.79 108.272 196.389 96.5592C189.913 82.9312 179.561 71.5022 166.749 63.7092C155.474 69.0622 144.259 77.2702 134.234 87.1122C135.353 89.1052 135.998 91.4002 135.998 93.8492C135.998 96.9882 134.937 99.8732 133.169 102.191ZM180.239 143.529C186.836 146.672 193.762 149.029 200.961 150.347C202.806 143.738 203.815 136.78 203.815 129.582C203.815 122.161 202.744 114.993 200.786 108.202C195.577 118.159 188.322 127.551 179.694 135.866C180.24 137.349 180.553 138.945 180.553 140.618C180.553 141.618 180.441 142.59 180.239 143.529ZM79.041 166.349C69.529 163.403 60.781 158.567 53.026 151.936C60.552 176.796 80.302 196.329 105.285 203.572C101.823 200.17 99.035 196.711 96.91 193.163C94.16 188.573 92.078 183.699 90.644 178.594C84.477 177.643 79.656 172.621 79.041 166.349ZM159.04 152.033C145.504 160.557 130.424 166.545 115.316 168.769C112.068 169.247 108.863 169.545 105.706 169.676C104.564 172.829 102.317 175.45 99.418 177.054C100.579 180.931 102.234 184.807 104.512 188.609C108.149 194.68 114.267 200.587 123.08 206.536C124.302 206.594 125.531 206.63 126.767 206.63C158.979 206.63 186.56 186.855 198.069 158.789C191.79 157.509 184.141 155.198 175.701 151.106C173.295 153.158 170.179 154.403 166.768 154.403C163.904 154.403 161.244 153.529 159.04 152.033ZM100.224 164.988C100.224 169.112 96.881 172.455 92.757 172.455C88.633 172.455 85.29 169.112 85.29 164.988C85.29 160.864 88.633 157.521 92.757 157.521C96.881 157.521 100.224 160.864 100.224 164.988Z" fill="#F9BD3E"/>
<path d="M256 45.398L126.517 0V272.817L236.333 212.796L256 45.398Z" fill="#440401" fill-opacity="0.3"/>
</g>
<defs>
<clipPath id="clip0_1_5893">
<rect width="256" height="273" fill="white"/>
</clipPath>
</defs>
</svg>
