<svg width="256" height="287" viewBox="0 0 256 287" fill="none" xmlns="http://www.w3.org/2000/svg">
<g clip-path="url(#clip0_1_5898)">
<path d="M240.403 225.915L143.286 281.956C133.786 287.678 121.9 287.678 112.4 281.956L15.2839 225.915C5.73145 220.183 0 209.994 0 199.168V87.0863C0 75.9418 5.73145 66.0709 15.2839 60.3395L112.4 4.29859C121.953 -1.43286 133.416 -1.43286 143.286 4.29859L240.403 60.3395C249.955 66.0709 255.687 76.2602 255.687 87.0863V199.168C255.995 210.24 250.099 220.559 240.403 225.915Z" fill="#DBC01D"/>
<path d="M106.981 54.6074C106.981 54.6074 107.299 72.757 99.9756 93.7724C94.881 108.738 87.8758 116.38 71.3183 133.574C63.358 141.534 41.069 161.276 24.193 182.61C16.3728 192.189 9.54498 202.538 3.81451 213.496C3.81451 213.496 6.68024 220.82 15.5958 226.233L39.1585 239.924L49.9846 222.093C54.7608 214.77 62.7211 204.899 62.7211 204.899L88.1943 243.745L124.812 219.228L93.9257 173.057C93.9257 173.057 108.573 159.047 112.394 154.589L122.583 142.808C122.583 142.808 138.185 152.042 144.235 156.182C153.151 161.913 164.614 171.147 164.614 171.147L132.454 219.228L169.071 243.745L195.818 203.944L210.784 225.596C214.286 231.009 218.107 238.969 218.107 238.969L240.396 226.233C249.63 220.82 253.133 211.904 253.133 211.904C253.133 211.904 243.262 194.073 234.346 182.291C225.112 169.873 212.057 155.863 206.008 149.495C195.181 138.987 176.395 124.34 166.843 117.972C158.245 112.24 142.962 103.962 142.962 103.962C142.962 103.962 146.464 94.0908 148.693 79.4437C149.967 70.5281 150.603 55.5627 150.603 55.5627L106.981 54.6074Z" fill="#383307"/>
</g>
<defs>
<clipPath id="clip0_1_5898">
<rect width="256" height="287" fill="white"/>
</clipPath>
</defs>
</svg>
