<svg width="256" height="180" viewBox="0 0 256 180" fill="none" xmlns="http://www.w3.org/2000/svg">
<g clip-path="url(#clip0_1_5902)">
<path d="M148.099 0C190.899 0 225.698 34.0865 226.493 76.4519L226.507 77.9331L226.496 78.7987L227.955 79.5581C244.139 88.3324 254.894 104.891 255.92 123.577L255.981 125.097L256 126.515C256 155.632 232.603 179.264 203.572 179.81L202.207 179.818H54.053C24.0942 179.357 0 155.102 0 125.276C0 107.889 8.27339 91.9483 21.8379 81.7648L23.125 80.8271L23.3962 80.6364L23.261 79.9525C23.0668 78.848 22.9204 77.7316 22.8226 76.6064L22.7124 74.9123L22.6755 73.2073C22.6755 51.6883 40.2228 34.2565 61.8487 34.2565C67.4712 34.2565 72.9222 35.4547 77.9118 37.7021L79.3946 38.4077L80.3105 38.8855L81.2882 37.2632C94.7686 15.3731 118.371 1.19428 144.717 0.0719391L146.439 0.0173088L148.099 0ZM148.099 11.1304C121.923 11.1304 98.5079 26.1457 87.4103 49.243C85.8791 52.4299 81.803 53.3997 79.0006 51.2438C74.0917 47.4673 68.1251 45.387 61.8487 45.387C46.3536 45.387 33.8059 57.852 33.8059 73.2073C33.8059 76.0592 34.2351 78.8449 35.0674 81.4762C35.8485 83.9453 34.8231 86.6269 32.594 87.945C19.3786 95.7595 11.1304 109.799 11.1304 125.276C11.1304 148.583 29.6561 167.642 52.8896 168.651L54.1386 168.689H202.242C225.768 168.833 244.87 149.906 244.87 126.515C244.87 109.271 234.379 93.9433 218.604 87.4159C216.6 86.5865 215.277 84.678 215.173 82.5457L215.176 81.9592L215.325 79.5443L215.373 78.2976L215.361 76.4995C214.593 40.2751 184.783 11.1304 148.099 11.1304ZM164.267 81.6232C181.786 81.6232 196.143 94.9851 196.143 111.675C196.143 128.366 181.786 141.728 164.267 141.728C153.719 141.728 144.881 136.444 133.064 124.999L130.485 122.452L127.048 118.927C122.698 114.29 120.44 111.801 120.274 111.459L118.953 110.096L116.569 107.701C115.016 106.167 113.534 104.76 112.112 103.475L110.025 101.64C102.87 95.5336 97.2562 92.7536 91.7326 92.7536C80.1896 92.7536 70.9874 101.318 70.9874 111.675C70.9874 122.033 80.1896 130.597 91.7326 130.597C97.7355 130.597 102.215 128.632 106.317 124.985C106.841 124.519 107.353 124.031 107.887 123.494L110.828 120.361C112.934 118.122 116.456 118.014 118.695 120.12C120.785 122.085 121.018 125.284 119.328 127.522L118.819 128.113L116.785 130.304C115.737 131.41 114.761 132.371 113.713 133.302C107.7 138.65 100.683 141.728 91.7326 141.728C74.214 141.728 59.857 128.366 59.857 111.675C59.857 94.9851 74.214 81.6232 91.7326 81.6232C103.411 81.6232 112.994 88.0993 126.842 102.244C132.597 108.332 135.558 111.547 135.724 111.887L138.253 114.476C149.377 125.655 156.903 130.597 164.267 130.597C175.81 130.597 185.013 122.033 185.013 111.675C185.013 101.318 175.81 92.7536 164.267 92.7536C158.264 92.7536 153.785 94.7188 149.683 98.3658C149.159 98.8319 148.647 99.3192 148.113 99.8569L146.802 101.229L145.172 102.99C143.066 105.229 139.544 105.337 137.305 103.231C135.066 101.126 134.958 97.6035 137.064 95.3644L139.215 93.0464C140.263 91.9409 141.239 90.9802 142.287 90.0483C148.3 84.7009 155.317 81.6232 164.267 81.6232Z" fill="#0084FF"/>
</g>
<defs>
<clipPath id="clip0_1_5902">
<rect width="256" height="180" fill="white"/>
</clipPath>
</defs>
</svg>
