<svg width="256" height="298" viewBox="0 0 256 298" fill="none" xmlns="http://www.w3.org/2000/svg">
<g clip-path="url(#clip0_1_5909)">
<path d="M210.741 74.8649L127.883 122.742L44.959 74.88L127.874 26.9941L210.741 74.8649Z" fill="#FEEA5F"/>
<path d="M104.25 258.239L22.0107 210.774V115.121L104.25 162.568V258.239Z" fill="#E0CC41"/>
<path d="M150.051 161.648L234.904 112.66V211.846L150.051 260.818V161.648Z" fill="#EFDB50"/>
<path d="M50.435 74.879L127.881 119.579L205.265 74.8649L127.872 30.1566C110.78 40.0277 84.9675 54.9352 50.435 74.879ZM127.658 0L255.988 74.6986L194.749 122.742L126.985 148.646L63.4203 127.884L0 74.6885L127.658 0Z" fill="#C3C2C2"/>
<path d="M154.239 253.504L230.716 209.367V119.973L154.239 164.125V253.504ZM126.929 148.646L255.988 74.8672V224.204L126.929 297.911L120.382 224.204L126.929 148.646Z" fill="#B3B3B3"/>
<path d="M101.559 164.146L24.7021 119.805V209.197L101.559 253.555V164.146ZM0 74.8672L126.985 148.646L126.929 297.91L0 224.769V74.8672Z" fill="#A5A5A4"/>
</g>
<defs>
<clipPath id="clip0_1_5909">
<rect width="256" height="298" fill="white"/>
</clipPath>
</defs>
</svg>
