<svg width="512" height="330" viewBox="0 0 512 330" fill="none" xmlns="http://www.w3.org/2000/svg">
<g clip-path="url(#clip0_1_5927)">
<path d="M353.098 121.259C336.696 121.241 323.414 107.933 323.426 91.5311C323.438 75.1294 336.741 61.8415 353.143 61.8477C369.544 61.8538 382.837 75.1517 382.837 91.5533C382.819 107.965 369.509 121.259 353.098 121.259Z" fill="#CA3C32"/>
<path d="M424.492 121.259C408.09 121.241 394.807 107.933 394.82 91.5311C394.832 75.1294 408.135 61.8415 424.536 61.8477C440.938 61.8538 454.231 75.1517 454.231 91.5533C454.212 107.965 440.903 121.259 424.492 121.259Z" fill="#9259A3"/>
<path d="M388.812 59.4113C372.406 59.4113 359.106 46.1116 359.106 29.7056C359.106 13.2997 372.406 0 388.812 0C405.218 0 418.517 13.2997 418.517 29.7056C418.526 37.5868 415.399 45.1477 409.826 50.7205C404.254 56.2933 396.693 59.4202 388.812 59.4113Z" fill="#399746"/>
<path d="M73.9986 121.259C57.5926 121.259 44.293 107.959 44.293 91.5533C44.293 75.1473 57.5926 61.8477 73.9986 61.8477C90.4046 61.8477 103.704 75.1473 103.704 91.5533C103.686 107.952 90.397 121.241 73.9986 121.259Z" fill="#4D64AE"/>
<path d="M97.2624 269.787C97.6146 280.167 96.1344 290.527 92.89 300.393C90.579 307.39 86.4012 313.622 80.8075 318.417C75.3758 322.869 68.8953 325.856 61.9828 327.095C53.9343 328.658 45.7491 329.407 37.5507 329.331C32.1584 329.387 26.7758 328.861 21.4963 327.763C17.3731 326.93 13.393 325.502 9.68079 323.524C6.83811 322.055 4.38882 319.926 2.53809 317.316C0.914165 315.223 0.022894 312.655 0.00142383 310.006C-0.0604499 305.629 1.89716 301.468 5.30839 298.725C9.42431 295.528 14.5574 293.928 19.7607 294.219C21.8903 294.173 24.0089 294.536 26.0022 295.287C27.706 295.944 29.3118 296.831 30.7751 297.924C32.1427 299.028 33.4361 300.221 34.6469 301.495C35.6816 302.83 36.6161 304.065 37.4172 305.233C38.8411 307.19 40.5384 308.932 42.4571 310.407C43.5934 311.188 44.9193 311.65 46.2955 311.742C47.4745 311.755 48.6327 311.431 49.6332 310.807C50.7532 309.97 51.5821 308.803 52.003 307.469C52.7361 305.415 53.1852 303.27 53.3381 301.094C53.7417 297.706 53.9202 294.294 53.8721 290.881V135.11L97.2624 123.161V269.787ZM160.679 126.632V226.964C160.664 229.701 161.197 232.413 162.248 234.941C163.409 237.262 164.981 239.354 166.887 241.116C168.855 242.898 171.113 244.331 173.563 245.355C176.098 246.423 178.822 246.967 181.573 246.957C183.435 246.873 185.262 246.419 186.947 245.622C189.099 244.634 191.118 243.378 192.955 241.883C195.135 240.227 197.158 238.372 198.996 236.343C201.024 234.186 202.825 231.826 204.37 229.3V126.632H247.76V270.154H204.37V256.803C198.929 261.585 192.824 265.554 186.246 268.585C180.4 271.317 174.04 272.774 167.588 272.857C160.875 272.953 154.202 271.822 147.895 269.52C142.064 267.284 136.682 264.016 132.008 259.874C127.571 255.858 123.975 251.003 121.427 245.588C118.864 240.057 117.554 234.028 117.588 227.932V126.632H160.679ZM334.24 135.51L377.63 123.561V270.154H334.24V135.51ZM310.876 270.154H267.486V70.5252L310.876 58.5762V270.154ZM511.139 270.154H467.749V258.739C465.379 260.775 463.009 262.644 460.706 264.313C458.294 266.052 455.724 267.561 453.029 268.819C450.008 270.138 446.852 271.123 443.617 271.756C439.454 272.505 435.229 272.851 431 272.791C424.956 272.881 418.941 271.944 413.21 270.02C408.311 268.322 403.78 265.705 399.859 262.31C396.258 259.026 393.401 255.008 391.482 250.528C389.529 245.915 388.541 240.951 388.578 235.942C388.484 230.86 389.522 225.821 391.615 221.19C393.763 216.768 396.64 212.74 400.126 209.274C403.915 205.589 408.141 202.383 412.71 199.728C417.712 196.827 422.896 194.251 428.23 192.018C433.804 189.715 439.578 187.612 445.486 185.643L463.009 179.935L467.782 178.901V164.682C467.859 160.793 467.364 156.913 466.313 153.167C465.627 150.342 464.315 147.707 462.475 145.457C460.935 143.465 458.864 141.95 456.5 141.084C453.999 140.171 451.353 139.719 448.69 139.749C445.752 139.675 442.824 140.127 440.046 141.084C437.925 141.871 436.017 143.139 434.472 144.789C433.056 146.295 432.016 148.113 431.434 150.096C430.778 152.259 430.463 154.512 430.5 156.772C430.516 159.415 430.202 162.05 429.565 164.615C429.077 167.044 428.038 169.327 426.528 171.291C424.923 173.19 422.87 174.659 420.553 175.563C417.491 176.838 414.188 177.43 410.874 177.299C408.026 177.333 405.193 176.881 402.496 175.964C400.155 175.083 397.995 173.782 396.121 172.125C394.366 170.451 392.93 168.472 391.882 166.284C390.91 163.982 390.411 161.507 390.414 159.008C390.442 153.997 392.225 149.155 395.454 145.323C399.188 140.782 403.796 137.036 409.005 134.309C415.24 131.051 421.887 128.648 428.764 127.166C436.556 125.363 444.531 124.467 452.529 124.496C461.366 124.347 470.189 125.289 478.796 127.3C485.331 128.758 491.543 131.406 497.12 135.11C501.65 138.201 505.306 142.409 507.734 147.326C510.053 152.354 511.195 157.845 511.072 163.38L511.139 270.154ZM467.749 196.157C463.441 198.001 459.24 200.085 455.165 202.398C451.081 204.585 447.214 207.156 443.617 210.075C440.363 212.618 437.496 215.619 435.106 218.987C433.004 221.833 431.838 225.262 431.768 228.8C431.76 231.44 432.12 234.069 432.836 236.61C433.478 238.869 434.457 241.018 435.74 242.985C436.854 244.624 438.243 246.058 439.845 247.224C441.324 248.255 443.082 248.814 444.885 248.826C448.659 248.686 452.325 247.534 455.499 245.488C459.67 242.956 463.703 240.204 467.582 237.244L467.749 196.157Z" fill="#1A1A1A"/>
</g>
<defs>
<clipPath id="clip0_1_5927">
<rect width="512" height="330" fill="white"/>
</clipPath>
</defs>
</svg>
