<svg width="256" height="300" viewBox="0 0 256 300" fill="none" xmlns="http://www.w3.org/2000/svg">
<g clip-path="url(#clip0_1_5934)">
<path d="M10.5838 156.41V156.197V123.658H17.72V158.913C18.0516 161.755 17.8075 164.634 17.0023 167.378C16.1972 170.123 14.8474 172.678 13.0335 174.89C9.66241 177.798 5.34293 179.37 0.891329 179.31L0.145752 173.985C3.01713 173.986 5.78725 172.924 7.921 171.002C9.83821 168.766 10.5838 165.73 10.5838 156.41ZM63.8037 152.21C63.8037 156.204 63.8037 159.772 64.1232 162.861H57.7858L57.3598 156.523C56.0343 158.766 54.1386 160.617 51.8656 161.889C49.5925 163.161 47.0232 163.809 44.4187 163.766C38.2411 163.766 30.8919 160.411 30.8919 146.724V123.984H38.0281V145.286C38.0281 152.689 40.3181 157.642 46.762 157.642C48.0878 157.656 49.403 157.405 50.6306 156.905C51.8582 156.404 52.9735 155.663 53.911 154.725C54.8484 153.788 55.5893 152.673 56.0901 151.445C56.5909 150.217 56.8415 148.902 56.8273 147.576V123.718H63.9634V151.997L63.8037 152.21ZM77.3307 136.654C77.3307 131.702 77.3307 127.654 77.0112 123.98H83.4018L83.7213 130.637C85.1452 128.232 87.1949 126.258 89.6521 124.926C92.1093 123.594 94.8819 122.954 97.6742 123.074C107.154 123.074 114.29 131.009 114.29 142.832C114.29 156.785 105.716 163.708 96.4493 163.708C94.0776 163.814 91.7187 163.306 89.6009 162.233C87.4831 161.16 85.678 159.559 84.3604 157.584V178.886H77.3307V136.814V136.654ZM84.3604 147.039C84.3797 148.006 84.4867 148.968 84.68 149.915C85.2842 152.28 86.6597 154.375 88.5887 155.87C90.5178 157.365 92.8904 158.174 95.331 158.17C102.84 158.17 107.26 152.045 107.26 143.152C107.26 135.376 103.106 128.719 95.5973 128.719C92.6257 128.963 89.8449 130.282 87.7762 132.429C85.7076 134.576 84.4931 137.404 84.3604 140.382V147.039ZM127.004 123.944L135.579 146.897C136.484 149.454 137.442 152.542 138.082 154.832C138.827 152.489 139.626 149.507 140.585 146.738L148.36 123.944H155.869L145.218 151.637C139.892 164.951 136.644 171.821 131.744 175.975C129.276 178.229 126.268 179.806 123.01 180.555L121.253 174.59C123.531 173.842 125.645 172.667 127.484 171.128C130.082 169.011 132.144 166.311 133.502 163.247C133.792 162.716 133.99 162.14 134.087 161.542C134.027 160.9 133.865 160.271 133.608 159.679L119.123 123.838H126.898L127.004 123.944ZM174.813 112.771V123.955H185.039V129.281H174.813V150.263C174.813 155.056 176.198 157.825 180.139 157.825C181.539 157.848 182.935 157.687 184.293 157.346L184.612 162.672C182.577 163.377 180.428 163.702 178.275 163.63C176.849 163.72 175.421 163.499 174.088 162.984C172.755 162.47 171.549 161.673 170.553 160.648C168.384 157.747 167.394 154.131 167.784 150.53V129.227H161.713V123.902H167.89V114.422L174.813 112.771ZM198.184 144.648C198.04 146.454 198.289 148.27 198.915 149.971C199.541 151.671 200.529 153.215 201.81 154.496C203.091 155.777 204.635 156.765 206.336 157.391C208.036 158.017 209.852 158.266 211.658 158.122C215.311 158.203 218.94 157.514 222.309 156.098L223.534 161.424C219.4 163.126 214.955 163.943 210.486 163.82C207.881 163.998 205.268 163.611 202.827 162.685C200.385 161.758 198.173 160.315 196.341 158.453C194.51 156.592 193.103 154.356 192.217 151.9C191.331 149.443 190.987 146.824 191.208 144.222C191.208 132.506 198.184 123.24 209.581 123.24C222.362 123.24 225.558 134.423 225.558 141.559C225.626 142.659 225.626 143.762 225.558 144.861H198.025L198.184 144.648ZM219.06 139.323C219.266 137.899 219.164 136.448 218.761 135.067C218.358 133.686 217.664 132.407 216.726 131.317C215.787 130.227 214.625 129.35 213.32 128.747C212.014 128.144 210.593 127.828 209.155 127.819C206.229 128.031 203.487 129.328 201.468 131.456C199.448 133.584 198.296 136.39 198.238 139.323H219.06ZM236.385 136.054C236.385 131.474 236.385 127.533 236.066 123.912H242.456V131.527H242.776C243.447 129.177 244.833 127.094 246.741 125.567C248.65 124.04 250.987 123.145 253.427 123.007C254.099 122.918 254.779 122.918 255.451 123.007V129.664C254.637 129.569 253.815 129.569 253.001 129.664C250.583 129.757 248.283 130.728 246.528 132.394C244.774 134.06 243.686 136.307 243.468 138.717C243.269 139.807 243.162 140.911 243.149 142.019V162.735H236.119V136.107L236.385 136.054Z" fill="#4E4E4E"/>
<path d="M233.258 16.9621C233.477 20.5399 232.626 24.1017 230.813 27.1939C229 30.2862 226.308 32.7688 223.079 34.3256C219.85 35.8823 216.231 36.4428 212.683 35.9355C209.135 35.4282 205.818 33.8762 203.155 31.4771C200.491 29.078 198.603 25.9405 197.729 22.4642C196.855 18.9879 197.036 15.3302 198.249 11.9571C199.461 8.58398 201.65 5.64809 204.537 3.52347C207.424 1.39885 210.878 0.181657 214.459 0.0269504C216.807 -0.102247 219.157 0.233972 221.375 1.01627C223.592 1.79857 225.633 3.01153 227.38 4.58537C229.127 6.15922 230.546 8.06291 231.555 10.187C232.563 12.311 233.142 14.6136 233.258 16.9621Z" fill="#767677"/>
<path d="M127.953 225.542C80.0235 225.542 37.8983 208.34 16.1169 182.938C24.5682 205.79 39.8175 225.505 59.8123 239.429C79.807 253.353 103.588 260.817 127.953 260.817C152.318 260.817 176.099 253.353 196.094 239.429C216.088 225.505 231.338 205.79 239.789 182.938C218.061 208.34 176.096 225.542 127.953 225.542Z" fill="#F37726"/>
<path d="M127.953 60.354C175.883 60.354 218.008 77.5554 239.789 102.958C231.338 80.1055 216.088 60.3903 196.094 46.4664C176.099 32.5424 152.318 25.0781 127.953 25.0781C103.588 25.0781 79.807 32.5424 59.8123 46.4664C39.8175 60.3903 24.5682 80.1055 16.1169 102.958C37.8983 77.5022 79.8106 60.354 127.953 60.354Z" fill="#F37726"/>
<path d="M61.9715 274.975C62.2527 279.481 61.1859 283.969 58.9072 287.867C56.6284 291.765 53.2408 294.897 49.176 296.862C45.1112 298.828 40.5532 299.539 36.0829 298.905C31.6124 298.271 27.4319 296.321 24.0739 293.303C20.7159 290.284 18.3325 286.335 17.2274 281.957C16.1222 277.579 16.3453 272.971 17.8682 268.721C19.3912 264.47 22.145 260.769 25.7789 258.089C29.4128 255.409 33.7622 253.872 38.2729 253.673C41.2279 253.515 44.185 253.94 46.9754 254.926C49.7658 255.911 52.3348 257.436 54.5355 259.414C56.7363 261.392 58.5258 263.785 59.8016 266.455C61.0775 269.125 61.8149 272.02 61.9715 274.975Z" fill="#9E9E9E"/>
<path d="M21.5641 54.5658C18.9815 54.6371 16.4354 53.9432 14.2461 52.5714C12.0568 51.1995 10.322 49.211 9.25987 46.8558C8.19773 44.5007 7.85567 41.884 8.27671 39.3349C8.69775 36.7859 9.8631 34.4182 11.6262 32.5297C13.3893 30.6412 15.6715 29.3161 18.1856 28.7212C20.6998 28.1263 23.3337 28.288 25.7563 29.1861C28.1788 30.0841 30.2816 31.6784 31.8004 33.7685C33.3192 35.8585 34.1862 38.351 34.2922 40.9324C34.3931 44.4229 33.1131 47.8124 30.7301 50.3649C28.3471 52.9174 25.0534 54.427 21.5641 54.5658Z" fill="#616262"/>
</g>
<defs>
<clipPath id="clip0_1_5934">
<rect width="256" height="300" fill="white"/>
</clipPath>
</defs>
</svg>
