<svg width="512" height="172" viewBox="0 0 512 172" fill="none" xmlns="http://www.w3.org/2000/svg">
<g clip-path="url(#clip0_1_5954)">
<path d="M98.1918 46.0167L98.0207 0H72.3608L72.5319 46.0167L85.3618 63.6365L98.1918 46.0167Z" fill="white"/>
<path d="M72.5319 124.878V171.065H98.1918V124.878L85.3619 107.258L72.5319 124.878Z" fill="white"/>
<path d="M98.1918 124.878L125.22 162.17L145.919 147.116L118.891 109.824L98.1918 103.152V124.878Z" fill="#00F2E6"/>
<path d="M72.5319 46.017L45.3324 8.72461L24.6335 23.7784L51.6619 61.0708L72.5319 67.7423V46.017Z" fill="#00F2E6"/>
<path d="M51.6619 61.0696L7.86903 46.8711L0 71.1624L43.7929 85.532L64.4918 78.6893L51.6619 61.0696Z" fill="#00B9F1"/>
<path d="M106.061 92.2048L118.891 109.825L162.684 124.023L170.553 99.7317L126.76 85.5332L106.061 92.2048Z" fill="#00B9F1"/>
<path d="M126.76 85.532L170.553 71.1624L162.684 46.8711L118.891 61.0696L106.061 78.6893L126.76 85.532Z" fill="#D63AFF"/>
<path d="M43.7929 85.5332L0 99.7317L7.86903 124.023L51.6619 109.825L64.4918 92.2048L43.7929 85.5332Z" fill="#D63AFF"/>
<path d="M51.6619 109.824L24.6335 147.116L45.3324 162.17L72.5319 124.878V103.152L51.6619 109.824Z" fill="#FB015B"/>
<path d="M118.891 61.0708L145.919 23.7784L125.22 8.72461L98.1918 46.017V67.7423L118.891 61.0708Z" fill="#FB015B"/>
<path d="M266.349 43.6211V103.494C266.349 116.666 255.572 127.443 242.4 127.443V115.469C249.072 115.469 254.375 110.166 254.375 103.494V43.6211H266.349ZM484.972 55.5957H512V43.6211H446.14V55.5957H472.997V127.443H484.972V55.5957ZM410.045 43.6211V103.494C410.045 110.166 404.742 115.469 398.07 115.469C391.399 115.469 386.096 110.166 386.096 103.494V67.5703C386.096 54.3982 375.318 43.6211 362.146 43.6211C348.974 43.6211 338.197 54.3982 338.197 67.5703V103.494C338.197 110.166 332.894 115.469 326.223 115.469C319.551 115.469 314.248 110.166 314.248 103.494V43.6211H302.273V103.494C302.273 116.666 313.05 127.443 326.223 127.443C339.395 127.443 350.172 116.666 350.172 103.494V67.5703C350.172 60.8987 355.475 55.5957 362.146 55.5957C368.818 55.5957 374.121 60.8987 374.121 67.5703V103.494C374.121 116.666 384.898 127.443 398.07 127.443C411.242 127.443 422.019 116.666 422.019 103.494V43.6211H410.045Z" fill="black"/>
</g>
<defs>
<clipPath id="clip0_1_5954">
<rect width="512" height="172" fill="white"/>
</clipPath>
</defs>
</svg>
