<svg width="512" height="234" viewBox="0 0 512 234" fill="none" xmlns="http://www.w3.org/2000/svg">
<g clip-path="url(#clip0_1_5971)">
<path d="M49.7635 20.9791C47.1809 18.3865 43.5979 16.7893 39.6037 16.7893C35.6195 16.7893 32.0641 18.3865 29.5141 20.9791H29.4489C26.8738 23.5541 25.2766 27.1472 25.2766 31.1163C25.2766 35.108 26.8738 38.6785 29.4489 41.2285L29.5141 41.2987C32.0641 43.8687 35.6195 45.4433 39.6037 45.4433C43.5979 45.4433 47.1809 43.8687 49.7635 41.2987L49.7936 41.2285C52.3786 38.6785 53.9558 35.108 53.9558 31.1163C53.9558 27.1472 52.3786 23.5541 49.7936 20.9791H49.7635ZM39.6037 217.104C43.5979 217.104 47.1809 215.477 49.7635 212.932L49.7936 212.857C52.3786 210.317 53.9558 206.724 53.9558 202.775C53.9558 198.783 52.3786 195.208 49.7936 192.62H49.7635C47.1809 190.002 43.5979 188.42 39.6037 188.42C35.6195 188.42 32.0641 190.002 29.5141 192.62H29.4489C26.8738 195.208 25.2766 198.783 25.2766 202.775C25.2766 206.724 26.8738 210.317 29.4489 212.857L29.5141 212.932C32.0641 215.477 35.6195 217.104 39.6037 217.104ZM117.665 173.695C121.213 172.762 124.425 170.485 126.388 167.04L126.652 166.536C128.397 163.274 128.715 159.503 127.782 156.156C126.842 152.583 124.54 149.413 121.103 147.44L120.9 147.305C117.55 145.464 113.739 145.063 110.233 146.018C106.67 146.908 103.469 149.28 101.518 152.695C99.542 156.09 99.1308 159.992 100.076 163.582C101.051 167.115 103.336 170.307 106.753 172.303H106.773C110.198 174.271 114.07 174.625 117.665 173.695ZM54.2993 102.265C50.5382 98.514 45.348 96.1621 39.6037 96.1621C33.8668 96.1621 28.6917 98.514 24.9381 102.265C21.1972 106.011 18.8904 111.179 18.8904 116.923C18.8904 122.667 21.1972 127.858 24.9381 131.646C28.6917 135.375 33.8668 137.704 39.6037 137.704C45.348 137.704 50.5382 135.375 54.2993 131.646C58.0503 127.858 60.357 122.667 60.357 116.923C60.357 111.179 58.0503 106.011 54.2993 102.265ZM46.035 77.8459C54.3745 79.2199 61.8615 83.2141 67.5858 88.9785H67.6284C68.5386 89.8862 69.4236 90.8867 70.2486 91.8846L84.553 83.6103C82.6299 77.7982 82.5396 71.7229 84.0867 66.0237C86.1251 58.3938 91.0722 51.5638 98.4889 47.2837L98.7296 47.1308C106.066 42.9811 114.403 42.1161 121.928 44.1546C129.55 46.1981 136.425 51.1676 140.705 58.5718V58.5944C144.965 65.9585 145.828 74.4083 143.797 82.0156C141.768 89.643 136.804 96.5207 129.395 100.776L127.441 101.929H127.243C120.391 105.191 112.856 105.703 105.936 103.88C100.254 102.375 95.0438 99.201 90.9618 94.7003L76.6774 102.952C78.3197 107.295 79.2274 111.976 79.2274 116.923C79.2274 121.845 78.3197 126.594 76.6774 130.959L90.9618 139.188C95.0438 134.617 100.254 131.516 105.936 130.006C113.561 127.923 122.01 128.808 129.395 133.113L129.868 133.334V133.356C137.002 137.681 141.791 144.356 143.797 151.896C145.828 159.458 144.965 167.913 140.705 175.292L140.447 175.806L140.417 175.763C136.139 182.877 129.395 187.696 121.95 189.734C114.315 191.748 105.863 190.887 98.4889 186.645V186.587C91.0722 182.3 86.1251 175.455 84.0867 167.84C82.5396 162.166 82.6299 156.09 84.553 150.281L70.2486 142.027C69.4236 143.025 68.5386 143.98 67.6284 144.888L67.5858 144.933C61.8615 150.677 54.3745 154.669 46.035 155.998V172.526C51.9775 173.767 57.2981 176.738 61.4653 180.908L61.4879 180.951C67.0742 186.512 70.5344 194.26 70.5344 202.775C70.5344 211.265 67.0742 218.967 61.4879 224.556L61.4653 224.644C55.8388 230.23 48.1212 233.691 39.6037 233.691C31.1313 233.691 23.3936 230.23 17.7796 224.644H17.7571V224.556C12.1657 218.967 8.69801 211.265 8.69801 202.775C8.69801 194.26 12.1657 186.512 17.7571 180.951V180.908H17.7796C21.9444 176.738 27.275 173.767 33.1949 172.526V155.998C24.8579 154.669 17.3835 150.677 11.6692 144.933L11.609 144.888C4.47311 137.727 0.00500488 127.858 0.00500488 116.923C0.00500488 106.011 4.47311 96.1421 11.609 88.9785H11.6692C17.3835 83.2141 24.8579 79.2199 33.1949 77.8459V61.3876C27.275 60.1038 21.9444 57.1326 17.7796 52.9855H17.7571V52.9403C12.1657 47.3289 8.69801 39.6338 8.69801 31.1163C8.69801 22.644 12.1657 14.8812 17.7571 9.29229L17.7796 9.26972C23.3936 3.66077 31.1313 0.203125 39.6037 0.203125C48.1212 0.203125 55.8388 3.66077 61.4653 9.26972V9.29229H61.4879C67.0742 14.8812 70.5344 22.644 70.5344 31.1163C70.5344 39.6338 67.0742 47.3289 61.4879 52.9403L61.4653 52.9855C57.2981 57.1326 51.9775 60.1038 46.035 61.3876V77.8459ZM126.388 66.8687L126.265 66.6882C124.295 63.3634 121.145 61.1469 117.665 60.1916C114.07 59.2363 110.198 59.6375 106.753 61.6133H106.773C103.336 63.564 101.036 66.7534 100.076 70.3288C99.1308 73.8767 99.542 77.7982 101.518 81.2158L101.585 81.3035C103.564 84.6759 106.716 86.9376 110.233 87.8477C113.769 88.8482 117.708 88.4244 121.103 86.4486L121.286 86.3609C124.628 84.365 126.855 81.2158 127.782 77.7556C128.73 74.1852 128.352 70.2837 126.388 66.8687Z" fill="#1A1919"/>
<path d="M189.859 71.7022H205.821V120.425L228.839 94.9654H247.977L220.188 124.462L248.093 161.852H229.817L205.821 128.454V161.852H189.859V71.7022ZM266.519 128.697C266.519 136.994 272.487 149.057 286.864 149.057C295.76 149.057 301.615 144.421 304.651 138.345C306.241 135.397 306.973 132.245 307.219 128.965C307.329 125.791 306.73 122.491 305.381 119.56C302.583 113.242 296.372 107.763 286.746 107.763C273.838 107.763 266.519 118.229 266.519 128.587V128.697ZM323.053 161.852H307.083V152.228C302.833 160.011 293.935 163.918 284.55 163.918C263.104 163.918 250.56 147.216 250.56 128.343C250.56 107.274 265.787 92.9019 284.55 92.9019C296.733 92.9019 304.162 99.3583 307.083 104.724V94.9654H323.053V161.852ZM341.126 107.274H332.854V94.9654H341.126V91.1969C341.126 71.3236 356.237 70.1251 367.696 69.9922V82.2782C363.667 82.2782 357.095 82.2782 357.095 91.6808V94.9654H367.696V107.274H357.095V161.852H341.126V107.274ZM378.55 71.7022H394.507V120.425L417.53 94.9654H436.668L408.879 124.462L436.779 161.852H418.503L394.507 128.454V161.852H378.55V71.7022ZM455.21 128.697C455.21 136.994 461.175 149.057 475.555 149.057C484.439 149.057 490.293 144.421 493.335 138.345C494.929 135.397 495.664 132.245 495.905 128.965C496.015 125.791 495.416 122.491 494.064 119.56C491.271 113.242 485.06 107.763 475.437 107.763C462.527 107.763 455.21 118.229 455.21 128.587V128.697ZM511.739 161.852H495.774V152.228C491.512 160.011 482.621 163.918 473.241 163.918C451.795 163.918 439.261 147.216 439.261 128.343C439.261 107.274 454.483 92.9019 473.241 92.9019C485.416 92.9019 492.853 99.3583 495.774 104.724V94.9654H511.739V161.852Z" fill="#1A1919"/>
</g>
<defs>
<clipPath id="clip0_1_5971">
<rect width="512" height="234" fill="white"/>
</clipPath>
</defs>
</svg>
