<svg width="256" height="256" viewBox="0 0 256 256" fill="none" xmlns="http://www.w3.org/2000/svg">
<g clip-path="url(#clip0_1_5987)">
<path d="M256 0V256H0V0L256 0Z" fill="#1D99F3"/>
<path d="M143.025 32.3086L111.145 35.3605V166.631L142.688 161.883V105.915L185.087 167.99L218.326 157.473L174.911 97.7743L218.667 41.4669L184.75 33.669L142.689 89.974L143.025 32.3086ZM70.7616 64.2971C70.4016 64.335 70.0539 64.4937 69.7836 64.765L57.2715 77.2749C56.7454 77.8026 56.6463 78.6206 57.0342 79.2594L71.6832 103.386C69.085 107.754 67.0026 112.464 65.5142 117.432L38.6206 123.026C37.8724 123.181 37.3333 123.844 37.3333 124.612V142.304C37.3333 143.052 37.8452 143.7 38.5662 143.875L64.6692 150.255C66.0612 156.009 68.2182 161.464 71.0691 166.477L55.9599 189.517C55.5384 190.161 55.6265 191.009 56.1711 191.551L68.6788 204.061C69.2048 204.586 70.0261 204.689 70.6676 204.303L94.3439 189.924C98.9946 192.608 104.01 194.72 109.311 196.152L114.835 222.712C114.99 223.465 115.656 223.999 116.419 223.999H134.113C134.857 223.999 135.506 223.491 135.684 222.762L142.19 196.147C147.655 194.672 152.823 192.474 157.587 189.669L180.919 204.967C181.56 205.389 182.409 205.305 182.953 204.76L195.465 192.251C195.995 191.722 196.089 190.903 195.701 190.266L187.183 176.229L184.427 177.101C184.026 177.228 183.588 177.078 183.351 176.728C183.351 176.728 177.919 168.775 170.902 158.506C162.514 174.921 145.45 186.166 125.744 186.166C97.746 186.166 75.0477 163.467 75.0477 135.468C75.0477 114.871 87.3331 97.1576 104.969 89.2226V76.1436C101.759 77.2665 98.6562 78.6204 95.709 80.2258C95.7069 80.2239 95.7047 80.2184 95.6962 80.2109L71.8154 64.5482C71.4938 64.338 71.121 64.2541 70.7612 64.2911L70.7616 64.2971Z" fill="#FCFCFC"/>
</g>
<defs>
<clipPath id="clip0_1_5987">
<rect width="256" height="256" fill="white"/>
</clipPath>
</defs>
</svg>
