<svg width="512" height="149" viewBox="0 0 512 149" fill="none" xmlns="http://www.w3.org/2000/svg">
<g clip-path="url(#clip0_1_6007)">
<path d="M14.8324 119.9C16.2889 119.96 17.7604 120.161 19.1311 120.665V120.651L19.3402 120.725L37.4238 103.086L38.0886 103.971C39.026 105.241 40.0232 106.403 41.0764 107.564L41.461 108.008C41.7374 108.285 41.9578 108.561 42.2341 108.838L42.6823 109.278L43.1193 109.723L43.5077 110.107L43.9484 110.552L44.3368 110.937L44.8335 111.381L45.2817 111.769C53.6659 118.905 64.2462 122.946 75.2529 123.216C84.3179 123.444 93.2652 121.126 101.079 116.524L102.46 117.962C104.066 119.676 105.725 121.39 107.331 123.104C97.7147 129.286 86.4598 132.428 75.0326 132.12C62.1421 131.812 49.7392 127.131 39.8588 118.847L39.9149 118.735L28.311 130.174C30.1169 136.146 27.8899 142.603 22.7864 146.192C17.6829 149.782 10.8532 149.694 5.84355 145.975C0.833923 142.256 -1.22648 135.744 0.732202 129.82C2.69089 123.896 8.2272 119.896 14.4664 119.896H14.8399L14.8324 119.9ZM125.414 45.2911C131.093 54.6444 133.954 65.4371 133.653 76.3753C133.327 89.7291 128.294 102.539 119.442 112.542L119.498 112.598L126.632 120.176C129.507 119.788 132.383 120.781 134.374 122.884C137.766 126.478 137.617 132.137 134.041 135.548C130.448 138.938 124.791 138.79 121.381 135.216C119.399 133.12 118.553 130.196 119.11 127.366C114.942 122.909 110.759 118.466 106.561 114.036L105.837 113.263L106.666 112.598C108.829 110.888 110.829 108.981 112.641 106.903C120.2 98.4163 124.494 87.5171 124.753 76.1549C124.993 67.5826 122.929 59.1028 118.777 51.5991L125.414 45.2911ZM24.6398 11.488C27.1794 11.4507 29.5697 12.4553 31.3399 14.2667C33.3205 16.3645 34.1649 19.2903 33.6069 22.1208L47.3246 36.4995L46.4917 37.1643C44.3368 38.8786 42.3462 40.7571 40.5199 42.8598C26.9463 58.1409 24.4661 80.3135 34.3277 98.216L27.7434 104.632C21.9924 95.2485 19.1104 84.388 19.4523 73.3875C19.7361 60.0732 24.9236 47.2108 33.6368 37.1942L26.0851 29.3139C23.2178 29.7086 20.3358 28.6979 18.343 26.5988C14.9519 23.0037 15.1021 17.3444 18.6792 13.9343C20.0841 12.6158 21.8722 11.7787 23.7846 11.5441C24.0684 11.5142 24.356 11.5067 24.6435 11.4843L24.6398 11.488ZM140.047 2.27179e-06C145.764 0.000942965 150.945 3.36969 153.265 8.59539C155.585 13.8211 154.609 19.923 150.775 24.1644C146.941 28.4059 140.968 29.9908 135.535 28.2084V28.2271L135.311 28.1487L115.678 46.785L115.013 45.8999C113.967 44.518 112.802 43.1362 111.584 41.8664L111.36 41.5863L110.755 40.9775L109.65 39.872L109.261 39.5396L108.877 39.211L108.38 38.7665L107.992 38.4341L107.491 37.9934C99.1439 30.962 88.651 26.9827 77.7402 26.7108C68.6125 26.4867 59.7089 28.7574 51.9706 33.4035L45.6626 26.8191C55.2783 20.6373 66.5333 17.4955 77.9606 17.8035C90.8619 18.1065 103.272 22.8095 113.134 31.1327H113.246L126.243 18.7894C124.866 14.3953 125.664 9.60813 128.391 5.89782C131.119 2.18751 135.449 -0.0025748 140.054 2.27179e-06H140.047Z" fill="#2E3234"/>
<path d="M77.0007 32.291C78.6366 32.2985 80.2686 32.4255 81.8895 32.6122C105.228 35.544 121.762 56.8357 118.886 80.174C115.954 103.516 94.6623 120.05 71.324 117.174C47.9856 114.242 31.4482 92.9468 34.324 69.6122C37.1101 47.962 55.2982 32.3657 77.0007 32.291ZM77.2584 50.5464L76.3621 50.5688C66.9132 51.3269 60.0787 58.4715 59.8359 67.9689C59.9853 74.5645 62.8312 79.2217 68.2241 82.8668L69.5238 83.5726L66.2373 99.0307H88.2759L84.9931 83.5689C91.0433 80.4541 94.5054 74.7363 94.6772 67.9689C94.5503 58.169 86.9688 50.7891 77.2584 50.5464Z" fill="#047AED"/>
<path d="M294.403 54.2066C295.587 54.2066 296.017 55.1739 296.121 56.3541L298.056 93.2906C298.164 94.5791 298.272 95.1169 298.915 95.1169H299.774L315.127 56.2458C315.557 55.0694 316.632 54.2104 317.813 54.2104H335.53C336.494 54.2104 337.461 54.9573 337.461 55.8163C337.445 56.0794 337.372 56.3358 337.252 56.5707L307.725 120.349C302.463 131.837 296.342 138.496 279.483 138.496C275.188 138.496 268.103 137.637 265.31 136.561C264.238 136.132 263.271 135.814 263.271 134.843V134.526L265.097 124.106C265.31 122.926 266.598 121.854 267.887 121.854H267.995C271.969 122.067 278.411 122.713 282.49 122.713C285.496 122.713 287.752 121.746 289.04 118.635L290.545 115.087H289.149C284.099 115.087 281.309 113.156 280.663 107.681L274.437 56.5707V56.2458C274.437 55.0656 275.296 54.2066 277.123 54.2066H294.403ZM242.315 53.2393C257.885 53.2393 265.187 63.5472 265.187 76.3275C265.187 78.1117 265.021 79.896 264.764 81.6803L264.649 82.445L263.573 88.8874C263.391 90.1693 262.342 91.1423 261.067 91.2431L260.892 91.2514H227.496C227.283 92.5399 227.174 93.6118 227.174 94.5791C227.174 99.9496 230.61 100.7 235.981 100.7L236.377 100.7C242.027 100.681 252.135 100.28 256.315 99.8699L256.597 99.8413H257.026C257.936 99.8413 258.563 100.221 258.63 101.081L258.636 101.238V101.668L256.918 111.329C256.597 113.047 256.059 113.798 254.233 114.34C247.039 116.592 239.738 117.663 230.719 117.663C218.801 117.663 206.988 110.257 206.988 95.0086C206.98 93.404 207.089 91.8013 207.314 90.2132L207.418 89.5335L208.602 82.445C212.142 61.1869 224.385 53.2393 242.315 53.2393ZM175.407 33.6992C176.696 33.6992 177.555 34.237 177.234 35.8467L169.503 79.3339L187.325 56.1412C188.613 54.4232 189.368 54.2066 190.44 54.2066H210.409C211.914 54.2066 212.023 55.6034 211.164 56.4624L186.682 84.2712L200.426 114.336C200.96 115.411 200.426 116.7 199.029 116.7H179.702C178.522 116.7 177.663 116.054 177.017 114.336L167.676 89.8547L163.381 114.336C163.165 115.516 161.985 116.7 160.804 116.7H144.697C143.516 116.7 142.445 116.054 142.766 114.336L156.618 35.8467C156.834 34.6665 157.368 33.6992 159.299 33.6992H175.407ZM239.309 69.2389C233.399 69.2389 230.809 73.5963 229.498 79.553L229.43 79.868H245.321C245.643 78.3666 245.859 76.8615 245.859 75.573C245.859 71.8159 244.141 69.2389 239.309 69.2389Z" fill="#047AED"/>
<path d="M385.165 56.6751C385.165 55.6033 384.519 55.2821 383.338 54.9571C380.44 54.2102 375.286 53.2392 368.949 53.2392C352.415 53.2392 341.786 61.5079 338.35 81.4812L336.953 89.5333C336.623 91.5577 336.444 93.6037 336.415 95.6545C336.415 108.214 343.717 117.663 357.569 117.663C363.903 117.663 368.844 116.804 372.601 115.945C374.106 115.624 374.965 115.086 375.178 113.693L377.326 101.667V101.238C377.326 100.267 376.575 99.6245 375.608 99.6245H375.395C371.634 99.8412 368.198 100.271 362.939 100.271C359.287 100.271 357.139 98.9822 357.139 94.1494C357.139 92.8609 357.248 91.3596 357.569 89.5333L358.966 81.4812C360.467 72.5664 363.582 70.6356 368.198 70.6356C373.46 70.6356 376.683 71.1734 380.332 71.3862H380.549C381.729 71.3862 382.801 70.5272 383.014 69.3471L385.165 57.2129V56.6751ZM452.177 35.5253C452.177 34.4497 451.213 33.6953 450.138 33.6953H434.138C432.958 33.6953 431.886 34.6663 431.673 35.8465L428.45 53.9936C426.303 53.6687 422.65 53.2392 420.932 53.2392C401.392 53.2392 391.618 61.3996 388.078 81.2646L386.573 89.6416C386.245 91.4489 386.065 93.2801 386.035 95.1167C386.035 108.323 395.163 117.663 409.874 117.663C419.535 117.663 428.663 116.162 434.463 114.982C437.899 114.227 438.433 113.585 438.758 111.546L452.181 35.8428L452.177 35.5253ZM425.444 70.7439L420.29 100.162C418.247 100.484 415.995 100.7 412.88 100.7C408.264 100.7 406.654 98.0149 406.654 93.8282C406.654 92.5398 406.759 91.143 407.08 89.6416L408.585 81.2646C409.657 75.0388 412.234 70.3144 418.247 70.3144C420.824 70.3144 423.296 70.5272 425.444 70.7439ZM512 71.4908C512 59.465 507.059 53.2392 495.141 53.2392C491.171 53.2392 485.263 54.2102 477.749 59.1475L478.287 56.3539C478.608 54.7443 477.857 54.2065 476.457 54.2065H461.749C460.569 54.2065 459.493 55.1738 459.281 56.3539L448.973 114.336C448.756 115.841 449.94 116.7 451.441 116.7H466.795C468.408 116.7 469.48 115.624 469.697 114.336L476.998 72.783C478.929 71.7074 482.899 70.4189 486.122 70.4189C489.775 70.4189 491.171 71.2779 491.171 74.6093C491.171 76.4319 490.742 78.2581 490.417 80.0844L484.404 114.336C484.191 115.411 484.404 116.7 486.23 116.7H502.338C503.627 116.7 504.803 115.516 505.02 114.336L510.928 80.8351C511.462 77.8286 512 74.2844 512 71.4945V71.4908Z" fill="#2E3234"/>
</g>
<defs>
<clipPath id="clip0_1_6007">
<rect width="512" height="149" fill="white"/>
</clipPath>
</defs>
</svg>
