<svg width="256" height="276" viewBox="0 0 256 276" fill="none" xmlns="http://www.w3.org/2000/svg">
<g clip-path="url(#clip0_1_6016)">
<path d="M16.2525 57.1547C6.70985 63.1945 0.660186 73.4606 0 84.7347V191.115C0.660186 202.389 6.70985 212.655 16.2525 218.695L111.699 272.082C121.952 277.105 133.951 277.105 144.204 272.082L239.749 218.695C249.292 212.655 255.341 202.389 256.001 191.115V84.7347C255.341 73.4606 249.292 63.1945 239.749 57.1547L144.302 3.76771C134.05 -1.2559 122.05 -1.2559 111.798 3.76771L16.2525 57.1547Z" fill="#14BF96"/>
<path d="M226.058 111.527C173.065 111.527 133.468 155.458 133.468 209.338V211.603H122.83V209.338C122.83 155.458 83.4295 111.724 30.0412 111.527C30.0412 114.876 30.0412 118.324 30.0412 121.377C29.8271 162.139 54.9627 198.743 93.0825 213.179C104.41 217.333 116.379 219.467 128.444 219.483C140.605 219.467 152.671 217.334 164.101 213.179C202.164 198.687 227.245 162.105 227.044 121.377C226.55 118.225 226.353 114.876 226.058 111.527Z" fill="white"/>
<path d="M128.05 115.664C144.37 115.664 157.6 102.434 157.6 86.1145C157.6 69.7944 144.37 56.5645 128.05 56.5645C111.73 56.5645 98.5 69.7944 98.5 86.1145C98.5 102.434 111.73 115.664 128.05 115.664Z" fill="white"/>
</g>
<defs>
<clipPath id="clip0_1_6016">
<rect width="256" height="276" fill="white"/>
</clipPath>
</defs>
</svg>
