<svg width="256" height="99" viewBox="0 0 256 99" fill="none" xmlns="http://www.w3.org/2000/svg">
<g clip-path="url(#clip0_1_6038)">
<path d="M107.411 97.8612H58.532C50.9558 97.6168 42.5243 97.0058 35.4369 95.6617C31.8932 95.0507 28.5939 94.1953 25.4168 93.34C23.8283 92.8512 22.3619 92.4846 20.8956 91.9958C18.2224 91.0889 15.5739 90.111 12.9528 89.0631C11.7308 88.5743 10.6311 87.9633 9.6535 87.4745C7.57617 86.3748 5.74322 85.5194 4.39907 84.664C2.93271 83.8087 1.83294 83.0755 1.09977 82.5867L0 81.8535C0 81.8535 0.366589 82.0979 1.22196 82.5867C1.95514 83.0755 3.05491 83.6865 4.52126 84.5418C5.98762 85.3972 7.82056 86.2526 9.8979 87.2301C11.9752 88.2077 14.4192 89.1853 17.1075 90.0407C18.4516 90.5294 19.7958 91.0182 21.2621 91.3848C22.7285 91.8736 24.1949 92.2402 25.7834 92.6068C28.9605 93.34 32.2598 94.0731 35.8035 94.6841C42.7687 95.9061 50.3449 96.6393 57.921 96.8837C61.4647 97.128 107.411 97.8612 107.411 97.8612Z" fill="url(#paint0_linear_1_6038)"/>
<path d="M256.001 58.3931C256.001 38.8417 239.871 20.0234 220.687 20.0234C205.901 20.0234 189.16 21.8564 157.144 62.5477C115.72 114.848 94.2134 89.3087 92.9915 87.598C96.0464 93.5856 102.156 97.8625 109.366 97.8625H220.687C240.116 97.8625 256.001 77.9445 256.001 58.3931Z" fill="url(#paint1_linear_1_6038)"/>
<path d="M109.488 97.8616C99.3455 97.8616 91.0361 89.6744 91.0361 79.5321C91.0361 69.3898 99.4677 59.7363 109.366 59.7363C128.795 59.7363 131.483 77.3326 161.788 86.0085C181.461 91.6296 220.564 97.8616 220.564 97.8616H109.488Z" fill="url(#paint2_linear_1_6038)"/>
<path d="M220.564 97.8616C216.654 96.273 201.379 91.263 198.813 74.6443C196.247 57.7812 206.389 48.7387 203.212 29.3095C200.402 12.202 186.105 3.77047 171.808 0.837759C164.476 -0.628596 156.411 -0.262007 148.224 2.6707C125.251 10.98 117.553 37.1301 121.83 55.0929C125.373 69.8786 140.037 84.42 175.229 90.652C205.29 95.9064 207.734 96.3952 220.564 97.8616Z" fill="url(#paint3_linear_1_6038)"/>
<path d="M198.813 74.645C196.247 57.7819 206.39 48.7393 203.212 29.3101C202.828 27.1986 202.297 25.1163 201.624 23.0781C190.504 27.4772 176.574 37.7417 157.144 62.4253C115.72 114.848 94.2134 89.3085 92.9915 87.5978C96.0464 93.5854 102.278 97.8622 109.488 97.8622H220.687C216.654 96.2737 201.38 91.2636 198.813 74.645Z" fill="url(#paint4_linear_1_6038)"/>
<path d="M126.595 65.8457C131.605 75.1326 152.623 90.1628 220.564 97.8611C166.798 90.8959 141.748 80.7536 126.595 65.8457Z" fill="url(#paint5_linear_1_6038)"/>
<path d="M58.6542 97.8616C56.5768 97.8616 54.9883 96.1508 54.9883 94.0735C54.9883 91.9962 56.699 90.041 58.6542 90.041C62.5645 90.041 63.1754 94.3179 69.2852 96.0286C73.1955 97.1284 81.0161 97.7394 81.0161 97.7394L58.6542 97.8616Z" fill="url(#paint6_linear_1_6038)"/>
<path d="M109.488 97.8616C104.234 97.8616 99.2235 95.4176 95.802 91.874C86.1485 88.2081 84.5599 82.4648 77.3503 82.4648C73.3179 82.4648 70.0186 86.3751 70.0186 90.4076C70.0186 94.4401 73.3179 97.8616 77.3503 97.8616H121.83H109.488Z" fill="url(#paint7_linear_1_6038)"/>
<path d="M239.993 26.7442C238.772 25.7667 237.427 24.9113 236.205 24.1781C234.861 23.4449 233.395 22.7118 231.684 22.223C228.507 21.001 225.208 20.39 222.031 20.0234H220.686C214.943 20.0234 208.833 20.2678 201.624 23.0783C202.357 25.0335 202.968 27.1108 203.212 29.3104C205.412 42.7519 201.135 51.4279 199.18 60.9592C208.589 53.383 226.674 53.1386 236.816 53.7496H237.916C239.016 53.7496 239.993 53.6274 240.849 53.383C250.747 50.8169 251.358 35.7868 239.993 26.7442Z" fill="url(#paint8_linear_1_6038)"/>
<path opacity="0.47" d="M199.302 60.8354C198.447 64.99 198.08 69.5113 198.813 74.6436C201.379 91.2622 216.41 95.9057 220.564 97.8608H220.686C227.407 97.8608 233.639 95.4169 238.894 91.6288C237.672 90.5291 231.073 84.6637 229.118 78.676C222.886 59.7356 237.061 54.1146 237.916 53.748C231.073 53.6258 208.711 53.3814 199.302 60.8354Z" fill="#E35702"/>
<path d="M198.813 74.6445C201.013 89.0636 213.11 95.6622 220.564 97.8617C216.287 95.7844 205.29 89.0636 205.412 77.455C205.778 54.7265 229.607 53.8711 229.607 53.8711C219.587 53.8711 206.756 54.9709 199.18 60.8363C198.202 65.1131 197.958 69.5122 198.813 74.6445Z" fill="url(#paint9_linear_1_6038)"/>
<path d="M114.009 97.8621C109.732 97.7399 98.7346 96.3958 92.8691 87.5977C96.0462 94.0741 102.4 97.8621 109.61 97.8621H114.009Z" fill="url(#paint10_linear_1_6038)"/>
<path d="M197.469 74.645C194.903 57.7819 205.901 48.7393 202.724 29.3101C202.357 27.1106 201.502 23.0781 201.502 23.0781C202.235 25.0333 202.846 27.1106 203.09 29.3101C206.267 48.7393 196.125 57.7819 198.691 74.645C201.257 91.2636 216.532 96.2737 220.442 97.8622C220.564 97.8622 200.28 92.9744 197.469 74.645Z" fill="url(#paint11_linear_1_6038)"/>
<path d="M107.41 97.8623H58.5319C57.0656 97.8623 56.2102 96.8848 56.2102 96.8848C57.5544 97.007 107.41 97.8623 107.41 97.8623Z" fill="#EB7808"/>
<path d="M109.244 97.861H79.672C76.2505 97.861 74.5398 97.25 74.5398 97.25L109.244 97.861Z" fill="#E35702"/>
<path d="M199.302 60.8363C208.711 53.2601 227.529 53.0157 238.038 53.7489C238.038 53.7489 223.375 53.3823 213.232 55.5819C202.968 57.9036 199.302 60.8363 199.302 60.8363Z" fill="#E35702"/>
</g>
<defs>
<linearGradient id="paint0_linear_1_6038" x1="-101.396" y1="635.4" x2="787.35" y2="4123.69" gradientUnits="userSpaceOnUse">
<stop stop-color="#FEEC7F"/>
<stop offset="1" stop-color="#F3A21B"/>
</linearGradient>
<linearGradient id="paint1_linear_1_6038" x1="8243.48" y1="-2042.63" x2="8243.48" y2="8352.61" gradientUnits="userSpaceOnUse">
<stop stop-color="#FEEC7F"/>
<stop offset="0.19" stop-color="#FEE97B"/>
<stop offset="0.39" stop-color="#FCDF6E"/>
<stop offset="0.61" stop-color="#FACF58"/>
<stop offset="0.82" stop-color="#F6B93A"/>
<stop offset="1" stop-color="#F3A21B"/>
</linearGradient>
<linearGradient id="paint2_linear_1_6038" x1="-3981.71" y1="1966" x2="6160.46" y2="1966" gradientUnits="userSpaceOnUse">
<stop stop-color="#FEEC7F"/>
<stop offset="0.11" stop-color="#FDE373"/>
<stop offset="0.71" stop-color="#F6B434"/>
<stop offset="1" stop-color="#F3A21B"/>
</linearGradient>
<linearGradient id="paint3_linear_1_6038" x1="5114" y1="-920.682" x2="5114" y2="9623.61" gradientUnits="userSpaceOnUse">
<stop stop-color="#FEEC7F"/>
<stop offset="0.61" stop-color="#F7BC3F"/>
<stop offset="1" stop-color="#F3A21B"/>
</linearGradient>
<linearGradient id="paint4_linear_1_6038" x1="6477.75" y1="96.3666" x2="6477.75" y2="7621.22" gradientUnits="userSpaceOnUse">
<stop stop-color="#F9C32E"/>
<stop offset="0.52" stop-color="#F19819"/>
<stop offset="1" stop-color="#E96C04"/>
</linearGradient>
<linearGradient id="paint5_linear_1_6038" x1="-2251.38" y1="1666.62" x2="7145.51" y2="1666.62" gradientUnits="userSpaceOnUse">
<stop stop-color="#F7B425"/>
<stop offset="0.06" stop-color="#F3A620"/>
<stop offset="0.21" stop-color="#EC8816"/>
<stop offset="0.37" stop-color="#E6720E"/>
<stop offset="0.55" stop-color="#E26208"/>
<stop offset="0.74" stop-color="#E05805"/>
<stop offset="1" stop-color="#DF5504"/>
</linearGradient>
<linearGradient id="paint6_linear_1_6038" x1="1356.38" y1="-178.791" x2="1356.38" y2="1216.69" gradientUnits="userSpaceOnUse">
<stop stop-color="#FEEC7F"/>
<stop offset="0.61" stop-color="#F7BD40"/>
<stop offset="1" stop-color="#F3A21B"/>
</linearGradient>
<linearGradient id="paint7_linear_1_6038" x1="2678.92" y1="-1607.51" x2="2678.92" y2="1151.68" gradientUnits="userSpaceOnUse">
<stop stop-color="#FEEC7F"/>
<stop offset="0.23" stop-color="#FEEA7C"/>
<stop offset="0.42" stop-color="#FCE271"/>
<stop offset="0.6" stop-color="#FBD560"/>
<stop offset="0.78" stop-color="#F8C347"/>
<stop offset="0.94" stop-color="#F4AC28"/>
<stop offset="1" stop-color="#F3A21B"/>
</linearGradient>
<linearGradient id="paint8_linear_1_6038" x1="2660.22" y1="312.059" x2="2660.22" y2="5619.05" gradientUnits="userSpaceOnUse">
<stop stop-color="#F9C32E"/>
<stop offset="0.52" stop-color="#F19819"/>
<stop offset="1" stop-color="#E96C04"/>
</linearGradient>
<linearGradient id="paint9_linear_1_6038" x1="2551.53" y1="861.584" x2="463.933" y2="2401.97" gradientUnits="userSpaceOnUse">
<stop stop-color="#E66A09"/>
<stop offset="1" stop-color="#E66A09"/>
</linearGradient>
<linearGradient id="paint10_linear_1_6038" x1="1149.87" y1="-208.122" x2="1149.87" y2="1133.6" gradientUnits="userSpaceOnUse">
<stop stop-color="#F7B425"/>
<stop offset="0.06" stop-color="#F3A620"/>
<stop offset="0.21" stop-color="#EC8816"/>
<stop offset="0.37" stop-color="#E6720E"/>
<stop offset="0.55" stop-color="#E26208"/>
<stop offset="0.74" stop-color="#E05805"/>
<stop offset="1" stop-color="#DF5504"/>
</linearGradient>
<linearGradient id="paint11_linear_1_6038" x1="1365.37" y1="-1092.55" x2="1365.37" y2="4931.68" gradientUnits="userSpaceOnUse">
<stop stop-color="#F7B425"/>
<stop offset="0.35" stop-color="#EF961A"/>
<stop offset="1" stop-color="#DF5504"/>
</linearGradient>
<clipPath id="clip0_1_6038">
<rect width="256" height="99" fill="white"/>
</clipPath>
</defs>
</svg>
