<svg width="512" height="100" viewBox="0 0 512 100" fill="none" xmlns="http://www.w3.org/2000/svg">
<g clip-path="url(#clip0_1_6056)">
<path d="M441.499 22.2113C441.253 24.9131 440.885 27.7378 440.762 30.6852C440.639 33.7554 440.516 36.8256 440.516 39.7731H454.148L450.341 50.3346H440.516V79.1948C440.516 81.0369 440.639 82.5107 440.762 83.7387C440.885 84.844 441.376 85.8265 441.745 86.5634C442.113 87.3002 442.85 87.6686 443.71 88.0371C444.569 88.2827 445.674 88.4055 447.025 88.4055C447.762 88.4055 448.499 88.2827 449.359 88.1599C450.218 88.0371 451.201 87.7914 452.675 87.3002L454.517 96.5109C450.59 98.1874 446.381 99.1042 442.113 99.2127C438.183 99.2127 434.867 98.4758 431.92 96.8793C429.095 95.2828 427.13 93.3179 426.271 90.7389C426.025 90.1248 425.902 89.6336 425.657 89.0195C425.534 88.6511 425.411 88.0371 425.411 87.3002C425.411 86.5634 425.288 85.8265 425.288 84.9668V50.3346H419.516V39.7731H425.288V32.4045C425.288 30.4396 425.411 28.229 425.902 26.0184L441.499 22.2113ZM485.465 38.2993C493.693 38.2993 500.202 41.2468 505.237 47.1416C507.693 49.8434 509.167 52.9136 510.395 56.2295C511.377 59.5453 511.991 63.598 511.991 68.5104C512.114 73.4228 511.377 77.7211 510.272 81.2826C509.167 84.844 507.325 88.1599 504.746 90.9845C502.658 93.5635 499.956 95.4056 496.886 97.0021C493.938 98.4758 490.009 99.0899 485.465 99.0899C481.535 99.0899 477.973 98.353 474.78 97.0021C471.464 95.5284 468.763 93.5635 466.552 90.8617C464.219 88.2827 462.622 85.0896 461.271 81.2826C460.043 77.5983 459.429 73.4228 459.429 68.8788C459.429 64.3349 460.043 60.1594 461.271 56.3523C462.499 52.5452 464.219 49.3522 466.552 46.6504C468.885 43.9486 471.587 41.9836 474.78 40.3871C478.096 38.9134 481.658 38.2993 485.465 38.2993ZM375.059 38.1765C376.533 40.6327 377.147 42.9661 377.147 45.4223C378.252 44.5626 379.48 43.8258 380.463 43.0889C381.445 42.3521 382.551 41.6152 383.901 41.124C385.498 40.2643 386.972 39.6502 388.937 39.2818C390.779 38.9134 392.621 38.6678 394.34 38.6678C397.656 38.6678 400.481 39.4046 403.06 41.0012C405.47 42.3843 407.334 44.5514 408.34 47.1416C409.077 49.1066 409.446 51.8084 409.446 55.3698V97.739H394.709V60.1594H394.34C394.34 56.8435 393.972 54.633 393.235 53.5277C392.498 52.4224 391.147 51.8084 389.305 51.8084C387.709 51.8084 385.989 52.1768 384.147 53.2821C382.305 54.2645 380.463 55.6154 378.743 57.0891V97.9846H363.515V55.6154C363.515 50.4575 362.778 45.9135 361.55 41.9836L375.059 38.1765ZM281.724 18.7727V54.8786L304.198 18.7727H323.848L298.549 55.3698L326.672 97.739H305.795L281.724 56.5979V97.739H265.268V18.7727H281.724ZM347.55 38.1765V97.739H332.199V40.6327L347.55 38.1765ZM485.956 49.8434C484.114 49.8434 482.517 50.4575 481.166 51.4399C479.693 52.4224 478.71 54.0189 478.219 55.7383C477.605 57.3348 477.236 59.0541 477.114 61.1419C476.868 63.2296 476.745 65.6858 476.745 68.6332C476.745 75.1421 477.482 80.1773 478.71 83.2475C479.447 84.844 480.429 86.0721 482.026 86.809C483.409 87.5902 484.982 87.9728 486.57 87.9143C490.009 87.9143 492.342 86.3177 493.816 83.2475C495.289 80.1773 495.903 75.1421 495.903 68.2648C495.535 60.6506 494.43 55.6154 492.465 52.9136C490.893 50.9303 488.486 49.7947 485.956 49.8434ZM340.427 14.3516C343.006 14.3516 345.094 15.2112 346.936 17.0534C348.778 18.8955 349.638 21.2289 349.638 23.6851C349.311 26.156 348.24 28.469 346.567 30.3168C344.813 32.0774 342.421 33.0521 339.936 33.0186C337.357 33.0186 335.146 32.1589 333.427 30.3168C331.666 28.5627 330.692 26.1701 330.725 23.6851C330.725 20.9833 331.708 18.8955 333.55 17.0534C335.392 15.2112 337.725 14.3516 340.427 14.3516Z" fill="#333333"/>
<path d="M107.949 98.3517H58.8256C51.2114 98.1061 42.7376 97.492 35.6147 96.1411C32.0532 95.5271 28.7373 94.6674 25.5443 93.8077C23.9478 93.3165 22.4741 92.9481 21.0004 92.4568C18.3138 91.5454 15.652 90.5626 13.0178 89.5094C11.7897 89.0182 10.6844 88.4041 9.70192 87.9129C7.61417 86.8076 5.77203 85.9479 4.42113 85.0883C2.94742 84.2286 1.84214 83.4918 1.10528 83.0005L0 82.2637C0 82.2637 0.368427 82.5093 1.22809 83.0005C1.96495 83.4918 3.07023 84.1058 4.54394 84.9655C6.01765 85.8251 7.85979 86.6848 9.94754 87.6673C12.0353 88.6497 14.4915 89.6322 17.1933 90.4919C18.5442 90.9831 19.8951 91.4744 21.3688 91.8428C22.8425 92.334 24.3162 92.7024 25.9127 93.0709C29.1058 93.8077 32.4216 94.5446 35.9831 95.1586C42.9832 96.3867 50.5974 97.1236 58.2115 97.3692C61.773 97.6148 107.949 98.3517 107.949 98.3517Z" fill="url(#paint0_linear_1_6056)"/>
<path d="M257.285 58.6851C257.285 39.0357 241.074 20.123 221.793 20.123C206.933 20.123 190.109 21.9652 157.933 62.8606C116.3 115.423 94.6859 89.7558 93.4578 88.0365C96.528 94.0542 102.668 98.3525 109.914 98.3525H221.793C241.32 98.3525 257.285 78.3346 257.285 58.6851Z" fill="url(#paint1_linear_1_6056)"/>
<path d="M110.037 98.3516C99.8439 98.3516 91.4929 90.1234 91.4929 79.9302C91.4929 69.7371 99.9667 60.0352 109.914 60.0352C129.441 60.0352 132.143 77.7197 162.599 86.4391C182.372 92.0883 221.671 98.3516 221.671 98.3516H110.037Z" fill="url(#paint2_linear_1_6056)"/>
<path d="M221.671 98.3524C217.741 96.7559 202.389 91.7207 199.811 75.0187C197.232 58.071 207.425 48.9832 204.232 29.4565C201.407 12.2632 187.038 3.78938 172.67 0.841961C165.301 -0.631749 157.196 -0.263321 148.968 2.6841C125.879 11.0351 118.142 37.3163 122.441 55.3692C126.002 70.2291 140.739 84.8434 176.108 91.1067C206.319 96.3875 208.776 96.8787 221.671 98.3524Z" fill="url(#paint3_linear_1_6056)"/>
<path d="M199.81 75.0188C197.231 58.0712 207.425 48.9833 204.232 29.4566C203.845 27.3345 203.311 25.2417 202.635 23.1934C191.459 27.6145 177.459 37.9305 157.933 62.7379C116.3 115.423 94.6859 89.7559 93.4578 88.0366C96.528 94.0542 102.791 98.3526 110.037 98.3526H221.793C217.741 96.756 202.389 91.7209 199.81 75.0188Z" fill="url(#paint4_linear_1_6056)"/>
<path d="M127.23 66.1758C132.265 75.5093 153.389 90.6148 221.67 98.3518C167.634 91.3517 142.459 81.1585 127.23 66.1758Z" fill="url(#paint5_linear_1_6056)"/>
<path d="M58.9484 98.352C56.8607 98.352 55.2642 96.6326 55.2642 94.5449C55.2642 92.4571 56.9835 90.4922 58.9484 90.4922C62.8783 90.4922 63.4924 94.7905 69.6328 96.5098C73.5627 97.6151 81.4225 98.2292 81.4225 98.2292L58.9484 98.352Z" fill="url(#paint6_linear_1_6056)"/>
<path d="M110.037 98.3529C104.756 98.3529 99.721 95.8967 96.2824 92.3352C86.5804 88.6509 84.9839 82.8789 77.7382 82.8789C73.6855 82.8789 70.3696 86.8088 70.3696 90.8615C70.3696 94.9142 73.6855 98.3529 77.7382 98.3529H122.441H110.037Z" fill="url(#paint7_linear_1_6056)"/>
<path d="M241.197 26.8776C239.969 25.8951 238.618 25.0354 237.39 24.2986C236.039 23.5617 234.566 22.8248 232.846 22.3336C229.653 21.1055 226.337 20.4915 223.144 20.123H221.793C216.021 20.123 209.881 20.3687 202.635 23.1933C203.372 25.1582 203.986 27.246 204.232 29.4565C206.442 42.9655 202.144 51.685 200.179 61.2641C209.635 53.6499 227.811 53.4043 238.004 54.0184H239.109C240.215 54.0184 241.197 53.8956 242.057 53.6499C252.004 51.071 252.618 35.9654 241.197 26.8776Z" fill="url(#paint8_linear_1_6056)"/>
<path opacity="0.47" d="M200.302 61.1406C199.442 65.3162 199.074 69.8601 199.811 75.0181C202.39 91.7201 217.495 96.3869 221.671 98.3518H221.793C228.548 98.3518 234.811 95.8956 240.092 92.0885C238.864 90.9833 232.232 85.0884 230.267 79.0708C224.004 60.0354 238.25 54.3861 239.11 54.0177C232.232 53.8949 209.758 53.6493 200.302 61.1406Z" fill="#E35702"/>
<path d="M199.81 75.0182C202.021 89.5097 214.179 96.1414 221.671 98.3519C217.372 96.2642 206.319 89.5097 206.442 77.8428C206.811 55.0003 230.758 54.1406 230.758 54.1406C220.688 54.1406 207.793 55.2459 200.179 61.1407C199.196 65.4391 198.951 69.8602 199.81 75.0182Z" fill="url(#paint9_linear_1_6056)"/>
<path d="M114.581 98.3531C110.283 98.2303 99.2298 96.8794 93.335 88.0371C96.528 94.546 102.914 98.3531 110.16 98.3531H114.581Z" fill="url(#paint10_linear_1_6056)"/>
<path d="M198.46 75.0188C195.881 58.0712 206.934 48.9833 203.741 29.4566C203.372 27.2461 202.512 23.1934 202.512 23.1934C203.249 25.1583 203.863 27.2461 204.109 29.4566C207.302 48.9833 197.109 58.0712 199.688 75.0188C202.267 91.7209 217.618 96.756 221.548 98.3526C221.671 98.3526 201.284 93.4402 198.46 75.0188Z" fill="url(#paint11_linear_1_6056)"/>
<path d="M107.949 98.3516H58.8256C57.3519 98.3516 56.4922 97.3691 56.4922 97.3691C57.8431 97.4919 107.949 98.3516 107.949 98.3516Z" fill="#EB7808"/>
<path d="M109.791 98.3523H80.0716C76.6329 98.3523 74.9136 97.7383 74.9136 97.7383L109.791 98.3523Z" fill="#E35702"/>
<path d="M200.302 61.1408C209.758 53.5266 228.671 53.281 239.232 54.0179C239.232 54.0179 224.495 53.6494 214.302 55.86C203.986 58.1934 200.302 61.1408 200.302 61.1408Z" fill="#E35702"/>
</g>
<defs>
<linearGradient id="paint0_linear_1_6056" x1="-101.904" y1="638.587" x2="791.299" y2="4144.38" gradientUnits="userSpaceOnUse">
<stop stop-color="#FEEC7F"/>
<stop offset="1" stop-color="#F3A21B"/>
</linearGradient>
<linearGradient id="paint1_linear_1_6056" x1="8284.83" y1="-2052.88" x2="8284.83" y2="8394.51" gradientUnits="userSpaceOnUse">
<stop stop-color="#FEEC7F"/>
<stop offset="0.19" stop-color="#FEE97B"/>
<stop offset="0.39" stop-color="#FCDF6E"/>
<stop offset="0.61" stop-color="#FACF58"/>
<stop offset="0.82" stop-color="#F6B93A"/>
<stop offset="1" stop-color="#F3A21B"/>
</linearGradient>
<linearGradient id="paint2_linear_1_6056" x1="-4001.68" y1="1975.86" x2="6191.36" y2="1975.86" gradientUnits="userSpaceOnUse">
<stop stop-color="#FEEC7F"/>
<stop offset="0.11" stop-color="#FDE373"/>
<stop offset="0.71" stop-color="#F6B434"/>
<stop offset="1" stop-color="#F3A21B"/>
</linearGradient>
<linearGradient id="paint3_linear_1_6056" x1="5139.65" y1="-925.3" x2="5139.65" y2="9671.88" gradientUnits="userSpaceOnUse">
<stop stop-color="#FEEC7F"/>
<stop offset="0.61" stop-color="#F7BC3F"/>
<stop offset="1" stop-color="#F3A21B"/>
</linearGradient>
<linearGradient id="paint4_linear_1_6056" x1="6510.24" y1="96.8494" x2="6510.24" y2="7659.44" gradientUnits="userSpaceOnUse">
<stop stop-color="#F9C32E"/>
<stop offset="0.52" stop-color="#F19819"/>
<stop offset="1" stop-color="#E96C04"/>
</linearGradient>
<linearGradient id="paint5_linear_1_6056" x1="-2262.67" y1="1674.98" x2="7181.35" y2="1674.98" gradientUnits="userSpaceOnUse">
<stop stop-color="#F7B425"/>
<stop offset="0.06" stop-color="#F3A620"/>
<stop offset="0.21" stop-color="#EC8816"/>
<stop offset="0.37" stop-color="#E6720E"/>
<stop offset="0.55" stop-color="#E26208"/>
<stop offset="0.74" stop-color="#E05805"/>
<stop offset="1" stop-color="#DF5504"/>
</linearGradient>
<linearGradient id="paint6_linear_1_6056" x1="1363.18" y1="-179.688" x2="1363.18" y2="1222.79" gradientUnits="userSpaceOnUse">
<stop stop-color="#FEEC7F"/>
<stop offset="0.61" stop-color="#F7BD40"/>
<stop offset="1" stop-color="#F3A21B"/>
</linearGradient>
<linearGradient id="paint7_linear_1_6056" x1="2692.36" y1="-1615.57" x2="2692.36" y2="1157.45" gradientUnits="userSpaceOnUse">
<stop stop-color="#FEEC7F"/>
<stop offset="0.23" stop-color="#FEEA7C"/>
<stop offset="0.42" stop-color="#FCE271"/>
<stop offset="0.6" stop-color="#FBD560"/>
<stop offset="0.78" stop-color="#F8C347"/>
<stop offset="0.94" stop-color="#F4AC28"/>
<stop offset="1" stop-color="#F3A21B"/>
</linearGradient>
<linearGradient id="paint8_linear_1_6056" x1="2673.56" y1="313.623" x2="2673.56" y2="5647.23" gradientUnits="userSpaceOnUse">
<stop stop-color="#F9C32E"/>
<stop offset="0.52" stop-color="#F19819"/>
<stop offset="1" stop-color="#E96C04"/>
</linearGradient>
<linearGradient id="paint9_linear_1_6056" x1="2564.33" y1="865.904" x2="466.26" y2="2414.02" gradientUnits="userSpaceOnUse">
<stop stop-color="#E66A09"/>
<stop offset="1" stop-color="#E66A09"/>
</linearGradient>
<linearGradient id="paint10_linear_1_6056" x1="1155.63" y1="-209.166" x2="1155.63" y2="1139.29" gradientUnits="userSpaceOnUse">
<stop stop-color="#F7B425"/>
<stop offset="0.06" stop-color="#F3A620"/>
<stop offset="0.21" stop-color="#EC8816"/>
<stop offset="0.37" stop-color="#E6720E"/>
<stop offset="0.55" stop-color="#E26208"/>
<stop offset="0.74" stop-color="#E05805"/>
<stop offset="1" stop-color="#DF5504"/>
</linearGradient>
<linearGradient id="paint11_linear_1_6056" x1="1372.21" y1="-1098.03" x2="1372.21" y2="4956.42" gradientUnits="userSpaceOnUse">
<stop stop-color="#F7B425"/>
<stop offset="0.35" stop-color="#EF961A"/>
<stop offset="1" stop-color="#DF5504"/>
</linearGradient>
<clipPath id="clip0_1_6056">
<rect width="512" height="100" fill="white"/>
</clipPath>
</defs>
</svg>
