<svg width="256" height="225" viewBox="0 0 256 225" fill="none" xmlns="http://www.w3.org/2000/svg">
<g clip-path="url(#clip0_1_6091)">
<path d="M80.7209 192.399L86.8362 184.506H132.089L155.676 214.642L151.483 224.866H93.1261L94.5239 214.642L80.7209 192.399Z" fill="#169FCC"/>
<path d="M94.5591 89.642L116.41 51.8926H141.872L256.001 184.458L247.153 224.866H198.214L201.284 213.524L94.5591 89.642Z" fill="#14B59A"/>
<path d="M121.082 44.7198L131.544 25.3716L162.932 0L216.714 42.1644L209.739 49.283L219.1 62.2426V76.1149L192.301 98.0184L147.33 44.7198H121.082Z" fill="#1BC263"/>
<path d="M37.9687 129.025H52.1845L89.2535 98.0176L138.379 155.099L124.523 175.888H79.1765L47.8658 215.704L40.6679 224.865H0V176.064L37.9687 129.025Z" fill="#16BDCC"/>
</g>
<defs>
<clipPath id="clip0_1_6091">
<rect width="256" height="225" fill="white"/>
</clipPath>
</defs>
</svg>
