<svg width="512" height="167" viewBox="0 0 512 167" fill="none" xmlns="http://www.w3.org/2000/svg">
<g clip-path="url(#clip0_1_6097)">
<path d="M469.743 112.197H493.719V75.3245H469.743V112.197ZM493.587 60.8389H512V129.316C512 140.641 510.808 142.617 507.761 145.645C505.377 148.147 501.535 149.333 494.912 149.333H468.02L459.675 140.115V136.296H493.587V126.946H470.405C463.384 126.946 459.807 125.629 456.893 122.732C453.052 118.781 451.462 110.222 451.462 94.024C451.462 77.8265 453.317 68.8718 457.291 64.7895C460.337 61.8924 464.046 60.7072 470.67 60.7072L484.447 60.8389L493.587 69.1352V60.8389ZM276.339 42.666H298.064L266.801 82.1722L299.388 126.814H276.339L251.567 91.7854H245.739V126.814H226.133V42.666H245.739V75.3245H251.567L276.339 42.666ZM419.405 81.6454V75.5878H412.781C412.649 75.5878 412.649 75.5878 412.516 75.5878H407.35C407.218 75.5878 407.218 75.5878 407.085 75.5878H396.885V81.6454V126.551H378.604V60.8389H390.659H396.885V62.024V69.1352L406.025 60.8389H411.324C412.119 60.7072 413.046 60.7072 413.973 60.7072H421.922C427.485 60.7072 431.062 61.8924 433.579 64.3944C436.361 67.0282 437.42 70.452 437.42 80.1969V126.551H419.14V82.4356C419.405 82.1722 419.405 81.9088 419.405 81.6454ZM323.1 112.065H347.077V75.1928H323.1V112.065ZM323.895 126.551C317.272 126.551 313.695 125.497 310.913 122.468C306.674 118.123 304.952 112.197 304.952 93.629C304.952 74.9294 306.674 69.1352 310.913 64.6578C313.695 61.7607 317.272 60.7072 323.895 60.7072H346.15C352.773 60.7072 356.35 61.7607 359.132 64.6578C363.37 69.1352 365.093 74.9294 365.093 93.629C365.093 112.329 363.37 118.123 359.132 122.468C356.217 125.497 352.773 126.551 346.15 126.551H323.895Z" fill="#043558"/>
<path d="M59.7334 142.374L64.2586 136.533H97.7455L115.2 158.834L112.097 166.4H68.9132L69.9475 158.834L59.7334 142.374Z" fill="#169FCC"/>
<path d="M69.9734 66.3348L86.1428 38.4004H104.985L189.44 136.499L182.892 166.4H146.678L148.95 158.007L69.9734 66.3348Z" fill="#14B59A"/>
<path d="M89.6001 33.0925L97.3424 18.7749L120.569 0L160.368 31.2015L155.206 36.4693L162.133 46.0593V56.3248L142.302 72.5333L109.024 33.0925H89.6001Z" fill="#1BC263"/>
<path d="M28.0967 95.4784H38.6164L66.0473 72.5332L102.4 114.773L92.1467 130.157H58.5904L35.4205 159.621L30.0941 166.4H0V130.287L28.0967 95.4784Z" fill="#16BDCC"/>
</g>
<defs>
<clipPath id="clip0_1_6097">
<rect width="512" height="167" fill="white"/>
</clipPath>
</defs>
</svg>
