<svg width="512" height="228" viewBox="0 0 512 228" fill="none" xmlns="http://www.w3.org/2000/svg">
<g clip-path="url(#clip0_1_6105)">
<path d="M199.444 159.258C196.313 153.907 189.572 152.017 184.115 154.841L168.298 137.008C170.803 129.724 172.172 121.911 172.172 113.759C172.172 105.775 170.845 98.0887 168.425 90.9128L181.823 75.0526C185.071 76.412 188.849 76.3051 192.099 74.3944C197.619 71.1881 199.488 64.075 196.26 58.5558C193.022 53.0356 185.92 51.1465 180.389 54.3951C177.14 56.2842 175.198 59.5543 174.772 63.0363L154.688 66.8792C144.305 54.9051 130.038 46.412 113.817 43.3547L106.195 21.2102C111.237 17.8341 112.894 11.0614 109.783 5.73249C106.545 0.233885 99.4425 -1.6562 93.9233 1.59235C88.4031 4.79873 86.5238 11.9324 89.7616 17.4526C90.6002 18.8964 91.7144 20.0852 92.9993 20.9768L85.3566 43.7372C69.6347 47.1133 55.8548 55.6486 45.8336 67.4746L23.3497 63.2707C23.2438 61.5297 22.7769 59.7887 21.8421 58.1752C18.6152 52.655 11.5021 50.7865 5.98289 54.0145C0.462705 57.2415 -1.4058 64.3545 1.82117 69.8747C4.77253 74.927 10.9724 76.8809 16.216 74.6936L31.9909 92.7617C29.9527 99.4069 28.8591 106.456 28.8591 113.761C28.8591 121.934 30.2283 129.77 32.755 137.072L16.5554 156.032C13.2107 154.439 9.1667 154.482 5.74847 156.477C0.206705 159.727 -1.64022 166.817 1.58675 172.358C4.81372 177.857 11.9268 179.747 17.447 176.52C20.876 174.502 22.8828 171 23.1584 167.305L47.9463 162.443C57.7665 173.038 70.7381 180.659 85.388 183.823L93.478 206.817C88.9553 210.341 87.5753 216.711 90.5482 221.786C93.7752 227.306 100.888 229.173 106.419 225.946C111.929 222.719 113.797 215.606 110.57 210.066C109.732 208.664 108.638 207.475 107.385 206.563L115.104 183.93C130.061 180.831 143.321 173.08 153.289 162.231L178.035 167.009C178.258 168.367 178.671 169.705 179.425 170.956C182.642 176.478 189.744 178.345 195.286 175.118C200.804 171.891 202.661 164.758 199.444 159.258ZM100.505 166.455C71.3963 166.455 47.808 142.867 47.808 113.76C47.808 84.6501 71.3963 61.0618 100.505 61.0618C129.603 61.0618 153.202 84.6501 153.202 113.76C153.202 142.867 129.603 166.455 100.505 166.455Z" fill="#414042"/>
<path d="M90.6542 117.837C90.0696 115.861 89.847 114.164 89.9539 112.73C90.0706 111.127 90.5905 109.45 91.4928 107.772C92.4158 106.095 93.4673 104.736 94.6453 103.717L124.115 78.451C115.134 72.464 103.902 69.851 92.459 72.0393C69.4121 76.4972 54.3483 98.7692 58.7856 121.805C58.7856 121.805 59.0828 123.843 60.1235 126.945C60.1863 127.134 60.25 127.326 60.3256 127.518C60.4423 127.857 60.5698 128.217 60.6963 128.579C61.1642 129.769 61.6311 130.935 62.1617 132.083L62.2039 132.06C65.1974 138.302 70.697 146.073 80.6006 151.296C80.7604 151.359 80.9193 151.444 81.0782 151.53C81.5667 151.785 82.0552 152.017 82.5436 152.251C82.883 152.399 83.2224 152.549 83.5411 152.697C83.6902 152.76 83.8383 152.824 83.9874 152.909V152.888C91.4928 156.073 99.9752 157.123 108.563 155.48C112.651 154.693 116.494 153.314 120.039 151.508L94.349 123.843C92.459 121.871 91.2162 119.833 90.6542 117.837Z" fill="#414042"/>
<path d="M134.635 88.4512L109.634 109.025C108.711 109.768 107.851 110.49 107.044 111.275C106.407 111.87 106.056 112.698 105.982 113.76C105.897 115.183 106.194 116.361 106.959 117.348C107.839 118.472 108.763 119.557 109.697 120.555L131.438 142.89C140.441 133.293 144.9 119.642 142.224 105.736C140.983 99.2581 138.33 93.3976 134.635 88.4512Z" fill="#27AAE1"/>
<path d="M94.2626 123.864C92.3725 121.87 91.1308 119.852 90.5678 117.835C89.9842 115.882 89.7615 114.184 89.8675 112.74C89.9842 111.147 90.504 109.449 91.4064 107.793C92.3304 106.095 93.3808 104.735 94.5598 103.737L124.029 78.4713C115.049 72.4842 103.817 69.8506 92.3725 72.0595C69.3257 76.4958 54.2619 98.7904 58.6992 121.827C58.6992 121.827 58.9964 123.864 60.0371 126.965C60.1008 127.134 60.1646 127.347 60.2391 127.538C60.3559 127.877 60.4834 128.239 60.6109 128.579C61.0778 129.789 61.5456 130.956 62.0763 132.104L62.1184 132.06C62.5216 132.91 63.0954 133.822 63.6044 134.715C75.7276 133.398 87.4055 131.274 98.4037 128.324L94.2626 123.864Z" fill="url(#paint0_linear_1_6105)"/>
<path d="M168.34 90.9142L181.737 75.0755C186.44 68.5794 189.551 61.5928 191.483 54.3532C188.054 52.5485 183.893 52.2935 180.305 54.3954C177.056 56.3061 175.113 59.5752 174.689 63.0572L154.603 66.9002C144.221 54.9045 129.954 46.4123 113.732 43.355L106.11 21.2312C111.153 17.8561 112.809 11.0824 109.698 5.75345C106.46 0.233267 99.3473 -1.63524 93.8379 1.59173C88.3177 4.81969 86.4394 11.9318 89.6762 17.452C90.5148 18.8958 91.63 20.0845 92.914 20.9977L85.2702 43.7366C69.5483 47.1127 55.7685 55.6479 45.7482 67.4946L23.2643 63.2907C23.1584 61.5507 22.6915 59.8087 21.7567 58.1736C18.5298 52.6534 11.4167 50.8065 5.89652 54.0335C0.376334 57.2605 -1.49217 64.3735 1.7348 69.8721C4.68616 74.9245 10.8861 76.8999 16.1297 74.7126L31.9045 92.7591C29.8664 99.4043 28.7835 106.454 28.7835 113.78C28.7835 121.615 30.0998 129.13 32.4352 136.179C33.6877 136.2 34.9089 136.306 36.1722 136.306C41.7453 136.306 47.2341 136.114 52.669 135.753C49.5695 129.044 47.7226 121.656 47.7226 113.779C47.7226 84.6691 71.3109 61.0602 100.419 61.0602C126.322 61.0602 147.756 79.8071 152.182 104.437C158.16 100.383 163.627 96.0518 168.467 91.4026C168.405 91.2545 168.394 91.0838 168.34 90.9142Z" fill="url(#paint1_linear_1_6105)"/>
<path d="M134.55 88.4727L109.55 109.047C108.626 109.768 107.767 110.511 106.96 111.275C106.323 111.891 105.973 112.698 105.898 113.781C105.813 115.205 106.11 116.371 106.875 117.348C107.756 118.495 108.68 119.577 109.614 120.555L112.841 123.865C123.691 120.109 133.669 115.522 142.735 110.321C142.607 108.813 142.438 107.284 142.141 105.735C140.899 99.258 138.245 93.42 134.55 88.4727Z" fill="url(#paint2_linear_1_6105)"/>
<path d="M248.702 114.035L269.042 91.5923H290.687L267.088 117.686L292.12 154.055H271.26L254.954 130.851H244.923V154.055H226.801V61.4863H244.923V114.035H248.702ZM354.35 98.111C360.741 104.247 364 112.336 364 122.38C364 132.548 360.741 140.744 354.35 147.007C347.959 153.27 339.488 156.392 328.925 156.392C318.362 156.392 309.891 153.27 303.372 147.007C296.854 140.744 293.595 132.548 293.595 122.38C293.595 112.336 296.854 104.247 303.234 98.111C309.763 91.9974 318.362 88.8538 328.924 88.8538C339.488 88.8548 347.96 91.9974 354.35 98.111ZM328.926 105.033C318.629 105.033 311.579 111.933 311.579 122.38C311.579 132.932 318.629 140.234 328.926 140.234C339.223 140.234 346.134 132.932 346.134 122.38C346.134 111.933 339.223 105.033 328.926 105.033ZM444.479 122.507C444.479 132.146 441.613 139.979 436.007 145.967C430.402 151.828 423.099 154.842 414.362 154.842C406.931 154.842 400.806 154.566 395.721 154.056V184.163H377.599V92.6556C393.109 90.6801 404.977 89.6404 413.183 89.6404C432.876 89.6395 443.96 102.294 444.479 122.507ZM426.878 123.016C426.878 110.765 421.4 104.629 410.318 104.629C406.145 104.629 401.325 104.904 395.721 105.414V138.663C400.285 139.321 405.498 139.704 411.496 139.704C420.487 139.704 426.878 132.4 426.878 123.016ZM458.619 136.052C468.131 139.704 476.603 141.529 483.906 141.529C491.072 141.529 494.596 139.979 494.596 136.711C494.596 133.843 491.857 132.4 487.685 131.487C485.466 130.852 484.299 130.723 481.293 130.192L477.908 129.535C463.183 126.796 456.39 121.319 456.39 110.766C456.39 97.7295 466.953 89.9161 483.767 89.9161C493.024 89.9161 501.762 91.4658 509.978 94.6084L505.934 108.281C495.901 105.414 488.333 103.992 483.12 103.992C477.388 103.992 474.128 106.073 474.128 109.343C474.128 112.209 476.209 113.249 479.861 114.418C482.08 114.949 483.12 115.075 486.262 115.713L489.903 116.37C505.149 119.491 511.54 123.93 511.54 135.012C511.54 148.962 500.595 156.01 483.247 156.01C473.598 156.01 464.214 154.184 454.956 150.532L458.619 136.052Z" fill="#414042"/>
</g>
<defs>
<linearGradient id="paint0_linear_1_6105" x1="5890.72" y1="9791.15" x2="1473.04" y2="-3232.62" gradientUnits="userSpaceOnUse">
<stop stop-color="white"/>
<stop offset="0.1371" stop-color="white" stop-opacity="0.8629"/>
<stop offset="1" stop-color="white" stop-opacity="0"/>
</linearGradient>
<linearGradient id="paint1_linear_1_6105" x1="13322.2" y1="16215.5" x2="10829.7" y2="2883.77" gradientUnits="userSpaceOnUse">
<stop stop-color="white"/>
<stop offset="0.1371" stop-color="white" stop-opacity="0.8629"/>
<stop offset="1" stop-color="white" stop-opacity="0"/>
</linearGradient>
<linearGradient id="paint2_linear_1_6105" x1="3732.33" y1="7132.38" x2="-690.558" y2="-5881.99" gradientUnits="userSpaceOnUse">
<stop stop-color="white"/>
<stop offset="0.1371" stop-color="white" stop-opacity="0.8629"/>
<stop offset="1" stop-color="white" stop-opacity="0"/>
</linearGradient>
<clipPath id="clip0_1_6105">
<rect width="512" height="228" fill="white"/>
</clipPath>
</defs>
</svg>
