<svg width="256" height="297" viewBox="0 0 256 297" fill="none" xmlns="http://www.w3.org/2000/svg">
<g clip-path="url(#clip0_1_6114)">
<path d="M127.834 0L130.7 6.44682V70.4369L127.834 74.496L122.239 74.9851L66.2324 42.2619L64.0828 37.2475L127.834 0Z" fill="#C5E3EB"/>
<path d="M0.331787 74.4965L1.76419 79.0328L57.3192 110.867L64.0828 111.028L66.7095 106.73V41.3072L64.0828 37.248L0.331787 74.4965Z" fill="#C5E3EB"/>
<path d="M0.331787 222.054L2.71946 217.398L59.9579 184.599L64.0828 185.522L69.3362 184.09L125.881 216.492L127.834 222.054L129.864 225.636V293.684L127.834 296.55L0.331787 222.054Z" fill="#78ABDB"/>
<path d="M64.0828 37.248L127.834 74.4965L130.7 80.9424V141.589L127.834 148.275L120.071 147.568L66.1128 116.041L64.0828 111.028V37.248Z" fill="#A4C0C5"/>
<path d="M127.834 148.275L126.526 152.019L70.4102 184.806L64.0829 185.522L62.1733 180.867V113.535L64.0829 111.027L127.834 148.275Z" fill="#7BA6C1"/>
<path d="M0.331787 222.054L64.0828 185.522V111.027L0.331787 74.4961V222.054Z" fill="#98C3E4"/>
<path d="M127.834 148.275L129.505 152.931V216.682L127.834 222.054L64.0828 185.523L127.834 148.275Z" fill="#4B7C9E"/>
<path d="M127.834 296.549V222.053L131.009 221.205L188.243 254.644L191.585 259.301L127.834 296.549Z" fill="#F4BC6A"/>
<path d="M127.834 148.275V222.054L191.585 259.302L193.615 253.929V190.178L191.585 185.523L187.884 180.509L132.15 147.945L127.834 148.275Z" fill="#B48340"/>
<path d="M191.585 111.027L193.615 114.251V180.15L191.585 185.522L127.834 148.275L130.771 143.587L184.661 112.101L191.585 111.027Z" fill="#8C3D33"/>
<path d="M127.834 74.4967L132.012 73.4219L189.208 106.197L191.585 111.028L127.834 148.275V74.4967Z" fill="#C47973"/>
<path d="M191.585 259.303V185.523L195.267 184.688L252.351 217.399L255.336 222.055L191.585 259.303Z" fill="#F4BC6A"/>
<path d="M255.336 74.4961H250.194L193.805 106.809L191.585 111.027V185.522L255.336 222.054V74.4961Z" fill="#BB6651"/>
<path d="M127.834 0V74.496L191.585 111.027L255.336 74.496L127.834 0Z" fill="#E1938A"/>
</g>
<defs>
<clipPath id="clip0_1_6114">
<rect width="256" height="297" fill="white"/>
</clipPath>
</defs>
</svg>
