<svg width="256" height="229" viewBox="0 0 256 229" fill="none" xmlns="http://www.w3.org/2000/svg">
<g clip-path="url(#clip0_1_6137)">
<path d="M191.9 3.5L127.9 114.3L191.9 225.1C195.5 223 198.5 220 200.7 216.1L252.5 126.3C256.9 118.6 256.9 109.8 252.5 102.1L200.7 12.3C198.5 8.6 195.5 5.6 191.9 3.5Z" fill="url(#paint0_linear_1_6137)"/>
<path d="M127.9 114.401L169.3 186.001C169.7 185.501 170.1 184.901 170.4 184.301L206 122.701C209 117.401 209 111.301 206 106.101L170.4 44.5008C170 43.9008 169.7 43.4008 169.3 42.8008L127.9 114.401Z" fill="url(#paint1_linear_1_6137)"/>
<path d="M127.9 114.402L95 57.4016L190 2.60156C190.7 2.90156 191.3 3.20156 191.9 3.60156L127.9 114.402Z" fill="url(#paint2_linear_1_6137)"/>
<path d="M55.1 216.3C37.8 186.4 20.5 156.4 3.29998 126.5C1.49998 123.3 0.399976 119.9 0.0999756 116.5L95.1 171.3L63.9 225.2C60.4 223.1 57.3 220.1 55.1 216.3Z" fill="url(#paint3_linear_1_6137)"/>
<path d="M95 171.4L190 226.2C190.7 225.9 191.3 225.6 191.9 225.2L127.9 114.4L95 171.4Z" fill="url(#paint4_linear_1_6137)"/>
<path d="M55.2 12.4L3.29998 102.3C1.49998 105.5 0.399976 108.8 0.0999756 112.2L95.1 57.4L63.9 3.5C60.4 5.6 57.4 8.5 55.2 12.4Z" fill="url(#paint5_linear_1_6137)"/>
<path d="M95 57.3008L127.9 114.301L95 171.301L-1.22041e-05 116.501C-0.100012 115.101 -0.100012 113.601 -1.22041e-05 112.201L95 57.3008Z" fill="url(#paint6_linear_1_6137)"/>
<path d="M95 57.3008L190 2.50078C186.9 1.10078 183.4 0.300781 179.8 0.300781H76.1C71.7 0.300781 67.5 1.40078 64 3.50078L95 57.3008Z" fill="url(#paint7_linear_1_6137)"/>
<path d="M63.9 225.2L95 171.4L190 226.2C186.9 227.6 183.4 228.4 179.8 228.4H76.1C71.6 228.4 67.5 227.3 63.9 225.2Z" fill="url(#paint8_linear_1_6137)"/>
</g>
<defs>
<linearGradient id="paint0_linear_1_6137" x1="-4210.82" y1="11088.5" x2="20319.3" y2="11088.5" gradientUnits="userSpaceOnUse">
<stop/>
<stop offset="0.28" stop-color="#2E3192"/>
<stop offset="0.59" stop-color="#3E5AA8"/>
<stop offset="0.82" stop-color="#0093D3"/>
<stop offset="1" stop-color="#00AEEF"/>
</linearGradient>
<linearGradient id="paint1_linear_1_6137" x1="-3602.31" y1="7198.16" x2="16110.4" y2="7198.16" gradientUnits="userSpaceOnUse">
<stop/>
<stop offset="0.23" stop-color="#2E3192"/>
<stop offset="0.47" stop-color="#3E5AA8"/>
<stop offset="0.78" stop-color="#0075BE"/>
<stop offset="1" stop-color="#00AEEF"/>
</linearGradient>
<linearGradient id="paint2_linear_1_6137" x1="-5744.51" y1="11732.9" x2="19922.2" y2="1209.42" gradientUnits="userSpaceOnUse">
<stop stop-color="#F58220"/>
<stop offset="0.47" stop-color="#ED1C24"/>
<stop offset="1" stop-color="#AE2538"/>
</linearGradient>
<linearGradient id="paint3_linear_1_6137" x1="-342.69" y1="10502.7" x2="8183.11" y2="1529.26" gradientUnits="userSpaceOnUse">
<stop stop-color="#F58220"/>
<stop offset="0.38" stop-color="#ED1C24"/>
<stop offset="1" stop-color="#A71C20"/>
</linearGradient>
<linearGradient id="paint4_linear_1_6137" x1="-850.83" y1="2065.34" x2="14738.5" y2="9189.36" gradientUnits="userSpaceOnUse">
<stop stop-color="#F58220"/>
<stop offset="0.5" stop-color="#FFCB05"/>
<stop offset="1" stop-color="#FFF200"/>
</linearGradient>
<linearGradient id="paint5_linear_1_6137" x1="2665.94" y1="-1502.48" x2="6934.87" y2="12622.2" gradientUnits="userSpaceOnUse">
<stop stop-color="#FFF200"/>
<stop offset="1" stop-color="#F99D1C"/>
</linearGradient>
<linearGradient id="paint6_linear_1_6137" x1="4234.96" y1="8865.57" x2="10536.5" y2="3544.44" gradientUnits="userSpaceOnUse">
<stop stop-color="#F26522"/>
<stop offset="1" stop-color="#C61D23"/>
</linearGradient>
<linearGradient id="paint7_linear_1_6137" x1="5221.82" y1="3413.68" x2="5932.91" y2="-4867.52" gradientUnits="userSpaceOnUse">
<stop stop-color="#2E3192"/>
<stop offset="1" stop-color="#61A2D8"/>
</linearGradient>
<linearGradient id="paint8_linear_1_6137" x1="5229.65" y1="2458.08" x2="5938.39" y2="10738" gradientUnits="userSpaceOnUse">
<stop stop-color="#2E3192"/>
<stop offset="1" stop-color="#61A2D8"/>
</linearGradient>
<clipPath id="clip0_1_6137">
<rect width="256" height="229" fill="white"/>
</clipPath>
</defs>
</svg>
