<svg width="512" height="243" viewBox="0 0 512 243" fill="none" xmlns="http://www.w3.org/2000/svg">
<g clip-path="url(#clip0_1_6157)">
<path d="M161.667 80.8333L121.418 40.5843L80.8333 0L38.1533 42.68L0 80.8333L80.8333 161.667L161.667 80.8333Z" fill="url(#paint0_linear_1_6157)"/>
<path d="M80.8334 161.667L121.082 201.916L161.667 242.501L204.347 199.821L242.5 161.667L161.667 80.834L80.8334 161.667Z" fill="url(#paint1_linear_1_6157)"/>
<path d="M161.667 80.834H80.8334V161.667H161.667V80.834Z" fill="black"/>
<path d="M312.036 160.523V138.231L319.428 129.54L341.089 160.523H359.804L330.701 119.526L357.889 87.5781H340.518L312.966 120.334H312.036V87.5781H296.424V160.523H312.036ZM371.279 91.5748V105.368H362.386V116.545H371.279V145.512C371.279 156.324 376.761 160.725 390.615 160.725C393.146 160.729 395.672 160.509 398.164 160.068V149.2C396.688 149.375 395.203 149.46 393.717 149.453C388.599 149.453 386.325 147.129 386.325 142.127V116.545H398.164V105.374H386.325V91.5748H371.279ZM435.594 161.685C453.116 161.685 463.666 150.873 463.666 132.668C463.666 114.625 452.965 103.656 435.594 103.656C418.223 103.656 407.521 114.67 407.521 132.668C407.521 150.817 418.066 161.685 435.594 161.685ZM435.594 150.059C427.53 150.059 422.977 143.693 422.977 132.668C422.977 121.754 427.575 115.332 435.594 115.332C443.552 115.332 448.205 121.749 448.205 132.668C448.205 143.688 443.607 150.059 435.594 150.059ZM475.965 160.518H491.011V129.384C491.011 121.552 496.645 116.747 504.866 116.747C507.296 116.747 510.813 117.151 512 117.555V104.616C510.712 104.211 508.175 103.959 506.109 103.959C498.873 103.959 492.977 108.153 491.476 113.71H490.546V104.868H475.97V160.523L475.965 160.518Z" fill="#27282C"/>
</g>
<defs>
<linearGradient id="paint0_linear_1_6157" x1="3874.31" y1="3874.31" x2="12066.9" y2="12066.9" gradientUnits="userSpaceOnUse">
<stop offset="0.296" stop-color="#00AFFF"/>
<stop offset="0.694" stop-color="#5282FF"/>
<stop offset="1" stop-color="#945DFF"/>
</linearGradient>
<linearGradient id="paint1_linear_1_6157" x1="4317.4" y1="4317.4" x2="12063" y2="12063" gradientUnits="userSpaceOnUse">
<stop offset="0.108" stop-color="#C757BC"/>
<stop offset="0.173" stop-color="#CD5CA9"/>
<stop offset="0.492" stop-color="#E8744F"/>
<stop offset="0.716" stop-color="#F88316"/>
<stop offset="0.823" stop-color="#FF8900"/>
</linearGradient>
<clipPath id="clip0_1_6157">
<rect width="512" height="243" fill="white"/>
</clipPath>
</defs>
</svg>
