<svg width="256" height="249" viewBox="0 0 256 249" fill="none" xmlns="http://www.w3.org/2000/svg">
<g clip-path="url(#clip0_1_6164)">
<path d="M82.0851 244.934C76.1393 244.934 70.5238 242.292 66.7251 237.502L8.91867 165.657C5.11996 160.867 3.6335 154.756 5.11996 148.81L25.7651 59.1279C27.0864 53.1821 31.0503 48.3924 36.5006 45.7498L120.072 5.78076C122.715 4.45947 125.688 3.79883 128.661 3.79883C131.633 3.79883 134.606 4.45947 137.249 5.78076L220.821 45.5846C226.271 48.2272 230.235 53.0169 231.556 58.9627L252.201 148.645C253.523 154.591 252.201 160.702 248.403 165.492L190.596 237.337C186.797 241.961 181.182 244.769 175.236 244.769L82.0851 244.934Z" fill="#326DE6"/>
<path d="M128.495 7.9286C130.808 7.9286 133.12 8.42408 135.267 9.41505L218.839 49.2189C223.133 51.366 226.436 55.3299 227.427 59.9544L248.072 149.637C249.228 154.427 248.072 159.382 244.934 163.18L187.128 235.025C184.155 238.824 179.53 240.971 174.741 240.971H82.0851C77.2955 240.971 72.6709 238.824 69.698 235.025L11.8916 163.18C8.91869 159.382 7.76256 154.427 8.75353 149.637L29.3987 59.9544C30.5548 55.1647 33.6929 51.2009 37.9871 49.2189L121.559 9.24989C123.706 8.42408 126.183 7.9286 128.495 7.9286ZM128.495 0.166016C125.027 0.166016 121.559 0.991822 118.255 2.47827L34.6839 42.4473C28.0774 45.5854 23.4529 51.366 21.8013 58.468L1.15611 148.151C-0.495503 155.252 1.15611 162.52 5.78063 168.3L63.5871 240.145C68.0464 245.761 74.818 248.899 81.92 248.899H174.575C181.677 248.899 188.449 245.761 192.908 240.145L250.715 168.3C255.339 162.685 256.991 155.252 255.339 148.151L234.694 58.468C233.043 51.366 228.418 45.5854 221.812 42.4473L138.57 2.47827C135.432 0.991822 131.964 0.166016 128.495 0.166016Z" fill="white"/>
<path d="M212.232 142.535C212.067 142.535 212.067 142.535 212.232 142.535H212.067C211.902 142.535 211.737 142.535 211.737 142.37C211.406 142.37 211.076 142.205 210.746 142.205C209.59 142.04 208.599 141.874 207.608 141.874C207.112 141.874 206.617 141.874 205.956 141.709H205.791C202.322 141.379 199.515 141.049 196.872 140.223C195.716 139.727 195.386 139.067 195.055 138.406C195.055 138.241 194.89 138.241 194.89 138.076L192.743 137.415C193.734 129.818 193.404 121.89 191.587 114.127C189.77 106.365 186.632 99.0977 182.338 92.4913L183.99 91.0048V90.6745C183.99 89.8487 184.155 89.0229 184.815 88.1971C186.797 86.3803 189.275 84.8938 192.248 83.0771C192.743 82.7467 193.239 82.5816 193.734 82.2513C194.725 81.7558 195.551 81.2603 196.542 80.5996C196.707 80.4345 197.037 80.2693 197.368 79.939C197.533 79.7738 197.698 79.7738 197.698 79.6087C200.01 77.6267 200.506 74.3235 198.854 72.1764C198.028 71.0203 196.542 70.3596 195.055 70.3596C193.734 70.3596 192.578 70.8551 191.422 71.6809C191.257 71.8461 191.257 71.8461 191.092 72.0113C190.761 72.1764 190.596 72.5067 190.266 72.6719C189.44 73.4977 188.779 74.1584 188.119 74.9842C187.788 75.3145 187.458 75.81 186.962 76.1403C184.65 78.6177 182.503 80.5996 180.356 82.0861C179.861 82.4164 179.365 82.5816 178.87 82.5816C178.539 82.5816 178.209 82.5816 177.879 82.4164H177.548L175.566 83.7377C173.419 81.4254 171.107 79.4435 168.795 77.4616C158.885 69.699 146.828 64.9093 134.276 63.7532L134.111 61.6061C133.946 61.4409 133.946 61.4409 133.781 61.2758C133.285 60.7803 132.624 60.2848 132.459 59.1287C132.294 56.4861 132.624 53.5132 132.955 50.21V50.0448C132.955 49.5493 133.12 48.8887 133.285 48.3932C133.45 47.4022 133.615 46.4113 133.781 45.2551V44.2642V43.7687C133.781 40.7958 131.468 38.3184 128.661 38.3184C127.339 38.3184 126.018 38.979 125.027 39.97C124.036 40.9609 123.541 42.2822 123.541 43.7687V44.099V45.09C123.541 46.2461 123.706 47.2371 124.036 48.228C124.201 48.7235 124.201 49.219 124.366 49.8796V50.0448C124.697 53.348 125.192 56.3209 124.862 58.9635C124.697 60.1196 124.036 60.6151 123.541 61.1106C123.375 61.2758 123.375 61.2758 123.21 61.4409L123.045 63.588C120.072 63.9184 117.099 64.2487 114.126 64.9093C101.409 67.7171 90.178 74.1584 81.4244 83.4074L79.7728 82.2513H79.4425C79.1122 82.2513 78.7818 82.4164 78.4515 82.4164C77.956 82.4164 77.4605 82.2513 76.9651 81.9209C74.818 80.4345 72.6709 78.2874 70.3586 75.81C70.0283 75.4796 69.698 74.9842 69.2025 74.6538C68.5418 73.828 67.8812 73.1674 67.0554 72.3416C66.8902 72.1764 66.5599 72.0113 66.2296 71.6809C66.0644 71.5158 65.8993 71.5158 65.8993 71.3506C64.9083 70.5248 63.587 70.0293 62.2657 70.0293C60.7793 70.0293 59.2928 70.69 58.467 71.8461C56.8154 73.9932 57.3109 77.2964 59.6231 79.2784C59.7883 79.2784 59.7883 79.4435 59.9534 79.4435C60.2838 79.6087 60.4489 79.939 60.7793 80.1042C61.7702 80.7648 62.596 81.2603 63.587 81.7558C64.0825 81.9209 64.578 82.2513 65.0734 82.5816C68.0463 84.3984 70.5238 85.8848 72.5057 87.7016C73.3315 88.5274 73.3315 89.3532 73.3315 90.179V90.5093L74.9831 91.9958C74.6528 92.4913 74.3225 92.8216 74.1573 93.3171C65.8993 106.365 62.7612 121.725 64.9083 136.92L62.7612 137.58C62.7612 137.745 62.596 137.745 62.596 137.911C62.2657 138.571 61.7702 139.232 60.7793 139.727C58.3018 140.553 55.3289 140.884 51.8605 141.214H51.6954C51.1999 141.214 50.5393 141.214 50.0438 141.379C49.0528 141.379 48.0618 141.544 46.9057 141.709C46.5754 141.709 46.2451 141.874 45.9147 141.874C45.7496 141.874 45.5844 141.874 45.4193 142.04C42.4463 142.7 40.6296 145.508 41.1251 148.151C41.6205 150.463 43.7676 151.949 46.4102 151.949C46.9057 151.949 47.236 151.949 47.7315 151.784C47.8967 151.784 48.0618 151.784 48.0618 151.619C48.3922 151.619 48.7225 151.454 49.0528 151.454C50.2089 151.124 51.0347 150.793 52.0257 150.298C52.5212 150.133 53.0167 149.802 53.5122 149.637H53.6773C56.8154 148.481 59.6231 147.49 62.2657 147.16H62.596C63.587 147.16 64.2476 147.655 64.7431 147.985C64.9083 147.985 64.9083 148.151 65.0734 148.151L67.3857 147.82C71.3496 160.042 78.947 170.943 89.0218 178.871C91.3341 180.687 93.6463 182.174 96.1238 183.66L95.1328 185.807C95.1328 185.973 95.298 185.973 95.298 186.138C95.6283 186.798 95.9586 187.624 95.6283 188.78C94.6373 191.258 93.1509 193.735 91.3341 196.543V196.708C91.0038 197.204 90.6734 197.534 90.3431 198.029C89.6825 198.855 89.187 199.681 88.5263 200.672C88.3612 200.837 88.196 201.167 88.0309 201.498C88.0309 201.663 87.8657 201.828 87.8657 201.828C86.5444 204.636 87.5354 207.774 90.0128 208.93C90.6734 209.26 91.3341 209.425 91.9947 209.425C93.9767 209.425 95.9586 208.104 96.9496 206.287C96.9496 206.122 97.1147 205.957 97.1147 205.957C97.2799 205.627 97.4451 205.296 97.6102 205.131C98.1057 203.975 98.2709 203.149 98.6012 202.158C98.7663 201.663 98.9315 201.167 99.0967 200.672C100.253 197.369 101.079 194.726 102.565 192.414C103.226 191.423 104.052 191.258 104.712 190.927C104.877 190.927 104.877 190.927 105.042 190.762L106.199 188.615C113.466 191.423 121.393 192.909 129.321 192.909C134.111 192.909 139.066 192.414 143.69 191.258C146.663 190.597 149.471 189.771 152.279 188.78L153.27 190.597C153.435 190.597 153.435 190.597 153.6 190.762C154.426 190.927 155.086 191.258 155.747 192.249C157.068 194.561 158.059 197.369 159.215 200.507V200.672C159.381 201.167 159.546 201.663 159.711 202.158C160.041 203.149 160.206 204.14 160.702 205.131C160.867 205.462 161.032 205.627 161.197 205.957C161.197 206.122 161.362 206.287 161.362 206.287C162.353 208.269 164.335 209.425 166.317 209.425C166.978 209.425 167.639 209.26 168.299 208.93C169.455 208.269 170.446 207.278 170.777 205.957C171.107 204.636 171.107 203.149 170.446 201.828C170.446 201.663 170.281 201.663 170.281 201.498C170.116 201.167 169.951 200.837 169.786 200.672C169.29 199.681 168.63 198.855 167.969 198.029C167.639 197.534 167.308 197.204 166.978 196.708V196.543C165.161 193.735 163.51 191.258 162.684 188.78C162.353 187.624 162.684 186.964 162.849 186.138C162.849 185.973 163.014 185.973 163.014 185.807L162.188 183.825C170.942 178.705 178.374 171.438 183.99 162.52C186.962 157.895 189.275 152.775 190.926 147.655L192.908 147.985C193.073 147.985 193.073 147.82 193.239 147.82C193.899 147.49 194.395 146.994 195.386 146.994H195.716C198.359 147.325 201.166 148.316 204.304 149.472H204.47C204.965 149.637 205.461 149.967 205.956 150.133C206.947 150.628 207.773 150.958 208.929 151.289C209.259 151.289 209.59 151.454 209.92 151.454C210.085 151.454 210.25 151.454 210.415 151.619C210.911 151.784 211.241 151.784 211.737 151.784C214.214 151.784 216.361 150.133 217.022 147.985C217.022 146.004 215.205 143.361 212.232 142.535ZM135.762 134.442L128.495 137.911L121.228 134.442L119.412 126.68L124.366 120.404H132.459L137.414 126.68L135.762 134.442ZM178.87 117.265C180.191 122.881 180.521 128.496 180.026 133.947L154.756 126.68C152.444 126.019 151.122 123.707 151.618 121.394C151.783 120.734 152.113 120.073 152.609 119.578L172.593 101.575C175.401 106.2 177.548 111.485 178.87 117.265ZM164.666 91.6655L143.03 107.025C141.213 108.182 138.735 107.851 137.249 106.034C136.753 105.539 136.588 104.878 136.423 104.218L134.937 77.2964C146.333 78.6177 156.738 83.7377 164.666 91.6655ZM116.769 78.1222C118.586 77.7919 120.237 77.4616 122.054 77.1313L120.568 103.557C120.402 105.869 118.586 107.851 116.108 107.851C115.448 107.851 114.622 107.686 114.126 107.356L92.1599 91.6655C98.9315 84.8938 107.355 80.2693 116.769 78.1222ZM84.2322 101.575L103.886 119.082C105.703 120.569 105.868 123.376 104.382 125.193C103.886 125.854 103.226 126.349 102.4 126.514L76.7999 133.947C75.8089 122.716 78.2864 111.32 84.2322 101.575ZM79.7728 146.334L106.033 141.874C108.181 141.709 110.162 143.196 110.658 145.343C110.823 146.334 110.823 147.16 110.493 147.985L100.418 172.264C91.1689 166.318 83.7367 157.234 79.7728 146.334ZM140.057 179.201C136.258 180.027 132.459 180.522 128.495 180.522C122.715 180.522 117.099 179.531 111.814 177.88L124.862 154.262C126.183 152.775 128.33 152.114 130.147 153.105C130.973 153.601 131.633 154.262 132.129 154.922L144.846 177.88C143.36 178.375 141.708 178.705 140.057 179.201ZM172.263 156.244C168.134 162.85 162.684 168.135 156.408 172.264L146.002 147.325C145.507 145.343 146.333 143.196 148.315 142.205C148.975 141.874 149.801 141.709 150.627 141.709L177.053 146.169C176.062 149.802 174.41 153.105 172.263 156.244Z" fill="white"/>
</g>
<defs>
<clipPath id="clip0_1_6164">
<rect width="256" height="249" fill="white"/>
</clipPath>
</defs>
</svg>
