<svg width="256" height="194" viewBox="0 0 256 194" fill="none" xmlns="http://www.w3.org/2000/svg">
<g clip-path="url(#clip0_1_6173)">
<path d="M36.4519 0H61.3022C66.2573 0 71.0095 1.96841 74.5133 5.47221C78.0171 8.97601 79.9855 13.7282 79.9855 18.6833V91.1745H128.562V117.331H72.5122C62.1937 117.331 53.8289 108.966 53.8289 98.6478V26.1566H36.4519V0ZM226.463 18.6833V38.1139H200.306V26.1566H179.751V117.331H153.595V26.1566H133.046V38.1139H106.889V18.6833C106.889 8.3648 115.254 0 125.573 0H207.779C218.098 0 226.463 8.3648 226.463 18.6833Z" fill="black"/>
<path d="M24.3271 187.486L0 170.112C7.14449 160.106 14.5192 152.367 22.2765 146.935C30.8977 140.903 40.057 137.695 49.5302 137.695C58.3248 137.695 65.9446 139.83 72.7513 143.913C75.5303 145.601 78.1472 147.542 80.5683 149.712C82.3291 151.261 83.5846 152.481 86.257 155.153C90.3076 159.201 91.9876 160.686 94.0024 161.894C96.1876 163.206 98.4953 163.852 101.843 163.852C105.194 163.852 107.511 163.203 109.708 161.888C111.732 160.677 113.43 159.183 117.481 155.141L117.516 155.105C120.177 152.451 121.444 151.222 123.202 149.674C125.62 147.512 128.231 145.577 131.004 143.895C137.799 139.824 145.395 137.695 154.157 137.695C162.918 137.695 170.514 139.824 177.309 143.895C180.047 145.539 182.564 147.432 185.111 149.674C186.872 151.222 188.139 152.451 190.797 155.105L190.836 155.141C194.883 159.183 196.581 160.677 198.605 161.888C200.802 163.203 203.119 163.852 206.47 163.852C209.453 163.852 212.747 162.698 216.583 160.014C221.282 156.725 226.364 151.386 231.673 143.955L256 161.329C248.853 171.334 241.481 179.074 233.724 184.505C225.102 190.538 215.943 193.745 206.47 193.745C197.678 193.745 190.058 191.614 183.246 187.533C180.463 185.848 177.842 183.909 175.417 181.74C173.653 180.189 172.383 178.96 169.719 176.299L169.68 176.261C165.642 172.231 163.95 170.742 161.938 169.535C159.762 168.231 157.472 167.589 154.157 167.589C150.841 167.589 148.552 168.231 146.375 169.535C144.364 170.742 142.672 172.231 138.633 176.261L138.597 176.299C135.931 178.96 134.66 180.189 132.897 181.74C130.341 183.988 127.815 185.889 125.064 187.533C118.255 191.614 110.638 193.745 101.843 193.745C93.0488 193.745 85.432 191.611 78.6223 187.527C75.8436 185.84 73.2268 183.9 70.8052 181.731C69.0475 180.18 67.789 178.96 65.1195 176.291C61.069 172.24 59.386 170.754 57.3712 169.547C55.186 168.234 52.8782 167.589 49.5302 167.589C46.5468 167.589 43.2526 168.742 39.4173 171.427C34.718 174.715 29.6362 180.054 24.3271 187.486Z" fill="#239AFF"/>
</g>
<defs>
<clipPath id="clip0_1_6173">
<rect width="256" height="194" fill="white"/>
</clipPath>
</defs>
</svg>
