<svg width="256" height="256" viewBox="0 0 256 256" fill="none" xmlns="http://www.w3.org/2000/svg">
<g clip-path="url(#clip0_1_6191)">
<mask id="mask0_1_6191" style="mask-type:luminance" maskUnits="userSpaceOnUse" x="0" y="0" width="256" height="256">
<path d="M128 256C198.692 256 256 198.692 256 128C256 57.3075 198.692 0 128 0C57.3075 0 0 57.3075 0 128C0 198.692 57.3075 256 128 256Z" fill="black"/>
</mask>
<g mask="url(#mask0_1_6191)">
<path d="M256 256V0H0V255.787L256 256Z" fill="url(#paint0_linear_1_6191)"/>
<path d="M-112.514 120.984L68.5052 -60.035L69.4103 -59.1299L-111.609 121.889L-112.514 120.984Z" fill="#115EDE"/>
<path d="M-97.1274 136.371L83.8919 -44.6482L84.797 -43.7431L-96.2223 137.276L-97.1274 136.371Z" fill="#115EDE"/>
<path d="M-81.7408 151.758L99.2785 -29.2615L100.184 -28.3564L-80.8357 152.663L-81.7408 151.758Z" fill="#115EDE"/>
<path d="M-66.3546 167.145L114.665 -13.8748L115.57 -12.9697L-65.4495 168.05L-66.3546 167.145Z" fill="#115EDE"/>
<path d="M-50.9675 182.531L130.052 1.51193L130.957 2.41702L-50.0624 183.436L-50.9675 182.531Z" fill="#115EDE"/>
<path d="M-35.5807 197.918L145.439 16.8986L146.344 17.8037L-34.6756 198.823L-35.5807 197.918Z" fill="#115EDE"/>
<path d="M-20.1943 213.305L160.825 32.2854L161.73 33.1905L-19.2892 214.21L-20.1943 213.305Z" fill="#115EDE"/>
<path d="M-4.80759 228.691L176.212 47.6721L177.117 48.5772L-3.90249 229.597L-4.80759 228.691Z" fill="#115EDE"/>
<path d="M10.5788 244.078L191.598 63.0588L192.503 63.9639L11.4839 244.983L10.5788 244.078Z" fill="#115EDE"/>
<path d="M25.9655 259.465L206.985 78.4455L207.89 79.3506L26.8706 260.37L25.9655 259.465Z" fill="#115EDE"/>
<path d="M-122.169 84.7812L-121.263 83.8762L59.7559 264.895L58.8508 265.801L-122.169 84.7812Z" fill="#115EDE"/>
<path d="M-106.782 69.3945L-105.877 68.4894L75.142 249.509L74.237 250.414L-106.782 69.3945Z" fill="#115EDE"/>
<path d="M-91.3952 54.0078L-90.4901 53.1027L90.5293 234.122L89.6242 235.027L-91.3952 54.0078Z" fill="#115EDE"/>
<path d="M-76.0085 38.6211L-75.1034 37.716L105.916 218.735L105.011 219.64L-76.0085 38.6211Z" fill="#115EDE"/>
<path d="M-60.6219 23.2344L-59.7168 22.3293L121.303 203.349L120.397 204.254L-60.6219 23.2344Z" fill="#115EDE"/>
<path d="M-45.2354 7.84766L-44.3303 6.94256L136.689 187.962L135.784 188.867L-45.2354 7.84766Z" fill="#115EDE"/>
<path d="M-29.8489 -7.53906L-28.9438 -8.44416L152.075 172.575L151.17 173.48L-29.8489 -7.53906Z" fill="#115EDE"/>
<path d="M-14.4619 -22.9258L-13.5568 -23.8309L167.463 157.188L166.557 158.094L-14.4619 -22.9258Z" fill="#115EDE"/>
<path d="M0.9245 -38.3125L1.8296 -39.2176L182.849 141.802L181.944 142.707L0.9245 -38.3125Z" fill="#115EDE"/>
<path d="M16.3112 -53.6992L17.2163 -54.6043L198.236 126.415L197.331 127.32L16.3112 -53.6992Z" fill="#115EDE"/>
<path d="M31.6976 -69.0859L32.6027 -69.991L213.622 111.028L212.717 111.933L31.6976 -69.0859Z" fill="#115EDE"/>
<path d="M256 256V0H21.3333L213.333 256H256Z" fill="url(#paint1_linear_1_6191)"/>
<mask id="mask1_1_6191" style="mask-type:luminance" maskUnits="userSpaceOnUse" x="21" y="0" width="235" height="256">
<path d="M256 256V0H21.3333L213.333 256H256Z" fill="#3582F7"/>
</mask>
<g mask="url(#mask1_1_6191)">
<path d="M-31.639 40.373L149.38 -140.646L150.285 -139.741L-30.7339 41.2781L-31.639 40.373Z" fill="#3582F7"/>
<path d="M122.227 194.24L303.247 13.2209L304.152 14.126L123.132 195.145L122.227 194.24Z" fill="#3582F7"/>
<path d="M-16.2526 55.7598L164.767 -125.26L165.672 -124.354L-15.3475 56.6649L-16.2526 55.7598Z" fill="#3582F7"/>
<path d="M137.614 209.627L318.633 28.6076L319.538 29.5127L138.519 210.532L137.614 209.627Z" fill="#3582F7"/>
<path d="M-0.865875 71.1465L180.153 -109.873L181.059 -108.968L0.0392206 72.0516L-0.865875 71.1465Z" fill="#3582F7"/>
<path d="M153.001 225.014L334.02 43.9943L334.925 44.8994L153.906 225.919L153.001 225.014Z" fill="#3582F7"/>
<path d="M14.5209 86.5332L195.54 -94.4861L196.445 -93.581L15.426 87.4383L14.5209 86.5332Z" fill="#3582F7"/>
<path d="M168.387 240.4L349.407 59.3811L350.312 60.2862L169.292 241.305L168.387 240.4Z" fill="#3582F7"/>
<path d="M29.9076 101.92L210.927 -79.0994L211.832 -78.1943L30.8127 102.825L29.9076 101.92Z" fill="#3582F7"/>
<path d="M183.774 255.787L364.793 74.7678L365.698 75.6729L184.679 256.692L183.774 255.787Z" fill="#3582F7"/>
<path d="M45.2939 117.307L226.313 -63.7127L227.218 -62.8076L46.199 118.212L45.2939 117.307Z" fill="#3582F7"/>
<path d="M199.161 271.174L380.18 90.1545L381.085 91.0596L200.066 272.079L199.161 271.174Z" fill="#3582F7"/>
<path d="M60.6805 132.693L241.7 -48.326L242.605 -47.4209L61.5856 133.598L60.6805 132.693Z" fill="#3582F7"/>
<path d="M214.547 286.561L395.567 105.541L396.472 106.446L215.452 287.466L214.547 286.561Z" fill="#3582F7"/>
<path d="M76.0672 148.08L257.087 -32.9393L257.992 -32.0342L76.9723 148.985L76.0672 148.08Z" fill="#3582F7"/>
<path d="M229.934 301.947L410.953 120.928L411.858 121.833L230.839 302.852L229.934 301.947Z" fill="#3582F7"/>
<path d="M91.4539 163.467L272.473 -17.5525L273.378 -16.6474L92.359 164.372L91.4539 163.467Z" fill="#3582F7"/>
<path d="M245.321 317.334L426.34 136.315L427.245 137.22L246.226 318.239L245.321 317.334Z" fill="#3582F7"/>
<path d="M106.841 178.854L287.86 -2.16582L288.765 -1.26072L107.746 179.759L106.841 178.854Z" fill="#3582F7"/>
<path d="M-41.2936 4.16992L-40.3885 3.26482L291.782 335.435L290.877 336.34L-41.2936 4.16992Z" fill="#3582F7"/>
<path d="M-25.9069 -11.2168L-25.0018 -12.1219L307.169 320.049L306.264 320.954L-25.9069 -11.2168Z" fill="#3582F7"/>
<path d="M-10.5205 -26.6035L-9.61541 -27.5086L322.555 304.662L321.65 305.567L-10.5205 -26.6035Z" fill="#3582F7"/>
<path d="M4.86655 -41.9902L5.77164 -42.8953L337.942 289.275L337.037 290.18L4.86655 -41.9902Z" fill="#3582F7"/>
<path d="M20.2529 -57.377L21.158 -58.282L353.328 273.888L352.423 274.794L20.2529 -57.377Z" fill="#3582F7"/>
<path d="M35.6396 -72.7637L36.5448 -73.6688L368.715 258.502L367.81 259.407L35.6396 -72.7637Z" fill="#3582F7"/>
<path d="M51.026 -88.1504L51.9311 -89.0555L384.102 243.115L383.196 244.02L51.026 -88.1504Z" fill="#3582F7"/>
<path d="M66.4128 -103.537L67.3179 -104.442L399.488 227.728L398.583 228.633L66.4128 -103.537Z" fill="#3582F7"/>
<path d="M81.7995 -118.924L82.7046 -119.829L414.875 212.342L413.97 213.247L81.7995 -118.924Z" fill="#3582F7"/>
<path d="M97.1862 -134.311L98.0913 -135.216L430.262 196.955L429.357 197.86L97.1862 -134.311Z" fill="#3582F7"/>
<path d="M112.573 -149.697L113.478 -150.602L445.648 181.568L444.743 182.473L112.573 -149.697Z" fill="#3582F7"/>
</g>
<path d="M186.453 164.906L0 217.6V256H256V238.506L186.453 164.906Z" fill="url(#paint2_linear_1_6191)" stroke="#0D57D9"/>
<mask id="mask2_1_6191" style="mask-type:luminance" maskUnits="userSpaceOnUse" x="0" y="164" width="256" height="92">
<path d="M186.453 164.906L0 217.6V256H256V238.506L186.453 164.906Z" fill="#1362DD"/>
</mask>
<g mask="url(#mask2_1_6191)">
<path d="M-92.7253 238.535L398.19 93.1193L398.917 95.5739L-91.9983 240.99L-92.7253 238.535Z" fill="#1362DD"/>
<path d="M-80.3648 280.262L410.551 134.846L411.278 137.3L-79.6377 282.716L-80.3648 280.262Z" fill="#1362DD"/>
<path d="M-68.0048 321.99L422.911 176.574L423.638 179.029L-67.2777 324.445L-68.0048 321.99Z" fill="#1362DD"/>
<path d="M-55.6443 363.717L435.271 218.301L435.999 220.756L-54.9172 366.171L-55.6443 363.717Z" fill="#1362DD"/>
<path d="M-75.144 165.688L-72.6894 164.96L72.7264 655.876L70.2719 656.603L-75.144 165.688Z" fill="#1362DD"/>
<path d="M-33.416 153.326L-30.9614 152.599L114.454 643.515L112 644.242L-33.416 153.326Z" fill="#1362DD"/>
<path d="M8.31152 140.967L10.7661 140.24L156.182 631.155L153.727 631.883L8.31152 140.967Z" fill="#1362DD"/>
<path d="M50.0394 128.605L52.494 127.878L197.91 618.794L195.455 619.521L50.0394 128.605Z" fill="#1362DD"/>
<path d="M91.7675 116.246L94.222 115.519L239.638 606.435L237.183 607.162L91.7675 116.246Z" fill="#1362DD"/>
<path d="M133.495 103.885L135.95 103.158L281.365 594.073L278.911 594.8L133.495 103.885Z" fill="#1362DD"/>
<path d="M175.223 91.5254L177.677 90.7983L323.093 581.714L320.639 582.441L175.223 91.5254Z" fill="#1362DD"/>
<path d="M216.951 79.1641L219.406 78.437L364.821 569.353L362.367 570.08L216.951 79.1641Z" fill="#1362DD"/>
</g>
</g>
<path d="M98.1333 45.2266L86.6133 110.933L128.853 133.547L98.1333 45.2266Z" fill="#6AABD4"/>
<path d="M169.387 110.933L98.1333 45.2266L128.853 133.547L169.387 110.933Z" fill="#E4F6FE"/>
<path d="M169.387 110.934L128.853 133.547L209.493 180.907L169.387 110.934Z" fill="#A8CCE9"/>
<path d="M209.493 180.907L128.853 133.547L168.107 198.4L209.493 180.907Z" fill="#D8E9F8"/>
<path d="M168.107 198.4L128.853 133.547L46.9333 180.907L168.107 198.4Z" fill="#84C1F2"/>
<path d="M46.9333 180.907L128.853 133.547L86.6133 110.934L46.9333 180.907Z" fill="#AECEE9"/>
</g>
<defs>
<linearGradient id="paint0_linear_1_6191" x1="0.000893672" y1="18752" x2="9664" y2="9365.33" gradientUnits="userSpaceOnUse">
<stop stop-color="#0060FF"/>
<stop offset="1" stop-color="#1F66D6"/>
</linearGradient>
<linearGradient id="paint1_linear_1_6191" x1="8169.48" y1="-9.34485e-05" x2="23347.3" y2="22038.2" gradientUnits="userSpaceOnUse">
<stop stop-color="#1F6AE2"/>
<stop offset="1" stop-color="#2E7BED"/>
</linearGradient>
<linearGradient id="paint2_linear_1_6191" x1="19584" y1="4561.55" x2="936.995" y2="9050.65" gradientUnits="userSpaceOnUse">
<stop stop-color="#0D57D9"/>
<stop offset="1" stop-color="#0D57D9"/>
</linearGradient>
<clipPath id="clip0_1_6191">
<rect width="256" height="256" fill="white"/>
</clipPath>
</defs>
</svg>
