<svg width="512" height="129" viewBox="0 0 512 129" fill="none" xmlns="http://www.w3.org/2000/svg">
<g clip-path="url(#clip0_1_6287)">
<path d="M181.809 38.3664C181.809 36.0218 181.503 34.4927 181.095 33.7792C180.687 33.1675 179.668 32.7598 178.037 32.7598C176.814 32.7598 175.386 32.9636 173.857 33.2695V96.5733H197.405C198.628 96.5733 199.546 96.3694 200.056 95.9617C200.463 95.5539 200.769 94.6365 200.769 93.3113C200.769 92.4958 200.667 91.4764 200.463 90.2531L181.809 90.6609V38.3664ZM244.907 92.19C245.315 94.2287 245.824 95.452 246.538 96.0636C247.15 96.6753 248.373 96.8791 250.106 96.8791C251.941 96.8791 253.47 96.6753 254.591 96.0636L239.81 32.7598H228.189L224.213 48.6622C221.563 59.3657 218.913 70.0693 216.262 80.6709C213.612 91.2725 212.389 96.5733 212.49 96.5733H220.34L223.296 82.9136H242.97L244.907 92.19ZM232.878 39.1819H234.101L241.849 77.3069H224.519L232.878 39.1819ZM278.641 38.0606V96.5733H286.592V38.2645L297.5 38.3664C299.029 38.4683 300.048 38.2644 300.66 37.8567C301.271 37.4489 301.577 36.7354 301.577 35.5121C301.577 34.9005 301.475 33.983 301.373 32.7598H268.039C266.408 32.7598 265.389 32.9636 264.879 33.3714C264.267 33.7791 264.063 34.5947 264.063 35.614C264.063 36.4296 264.165 37.4489 264.369 38.4683L278.641 38.0606ZM327.966 66.8073L344.378 67.1131C345.601 67.1131 346.417 66.9092 346.927 66.3995C347.436 65.8898 347.742 64.9724 347.742 63.7491C347.742 62.7297 347.64 61.8123 347.538 61.0987H327.966V38.5703L347.232 38.7741C348.66 38.7741 349.577 38.5703 350.189 38.1625C350.698 37.7548 351.004 36.9392 351.004 35.716C351.004 35.0024 350.902 33.983 350.698 32.7598H320.015V90.5589C320.015 93.3113 320.321 95.0442 320.932 95.6559C321.544 96.2675 323.379 96.5733 326.437 96.5733H347.13C348.558 96.5733 349.475 96.3694 349.985 95.8598C350.392 95.3501 350.698 94.4326 350.698 93.1074C350.698 92.4958 350.596 91.4764 350.494 90.2531L327.966 90.6609V66.8073ZM385.1 65.2782C382.551 65.2782 380.411 65.0743 378.678 64.6665V38.2645C380.309 38.0606 382.653 37.9586 385.508 37.9586C390.197 37.9586 393.459 38.978 395.498 41.0168C397.434 43.0556 398.454 46.3176 398.454 51.0068C398.454 56.4095 397.129 60.3851 394.478 63.0355C392.439 64.5646 389.381 65.2782 385.1 65.2782ZM370.727 96.5733H378.678V70.7829C380.513 70.9867 382.144 71.0887 383.775 71.0887C385.61 71.0887 387.343 70.9867 388.77 70.6809L397.434 93.2094C397.944 94.6365 398.658 95.6559 399.473 96.1656C400.289 96.7772 401.512 96.9811 403.143 96.9811C404.978 96.9811 406.609 96.6753 407.934 95.9617L395.294 68.3363C398.454 67.1131 401.206 64.8704 403.551 61.5064C405.895 58.1425 407.119 54.3707 407.119 50.2932C407.119 38.6722 401.104 32.7598 389.075 32.7598H370.727V96.5733ZM455.813 92.19C456.221 94.2287 456.731 95.452 457.444 96.0636C458.056 96.6753 459.279 96.8791 461.012 96.8791C462.847 96.8791 464.376 96.6753 465.497 96.0636L450.716 32.7598H439.095L435.12 48.6622C432.469 59.3657 429.819 70.0693 427.168 80.6709C424.518 91.2725 423.295 96.5733 423.397 96.5733H431.246L434.202 82.9136H453.876L455.813 92.19ZM443.784 39.1819H445.008L452.755 77.3069H435.425L443.784 39.1819ZM493.039 38.3664C493.039 36.0218 492.734 34.4927 492.326 33.7792C491.918 33.1675 490.899 32.7598 489.268 32.7598C488.044 32.7598 486.617 32.9636 485.088 33.2695V96.5733H508.636C509.859 96.5733 510.777 96.3694 511.286 95.9617C511.694 95.5539 512 94.6365 512 93.3113C512 92.4958 511.898 91.4764 511.694 90.2531L493.039 90.6609V38.3664Z" fill="#006BFF"/>
<mask id="mask0_1_6287" style="mask-type:luminance" maskUnits="userSpaceOnUse" x="0" y="0" width="129" height="129">
<path d="M64.3823 128.765C99.9396 128.765 128.765 99.9396 128.765 64.3823C128.765 28.8249 99.9396 0 64.3823 0C28.8249 0 0 28.8249 0 64.3823C0 99.9396 28.8249 128.765 64.3823 128.765Z" fill="black"/>
</mask>
<g mask="url(#mask0_1_6287)">
<path d="M128.765 128.765V0H0V128.657L128.765 128.765Z" fill="url(#paint0_linear_1_6287)"/>
<path d="M-56.5931 60.8535L34.4572 -30.1968L34.9125 -29.7415L-56.1378 61.3088L-56.5931 60.8535Z" fill="#115EDE"/>
<path d="M-48.8538 68.5918L42.1965 -22.4585L42.6518 -22.0032L-48.3985 69.0471L-48.8538 68.5918Z" fill="#115EDE"/>
<path d="M-41.1145 76.332L49.9358 -14.7182L50.391 -14.263L-40.6593 76.7873L-41.1145 76.332Z" fill="#115EDE"/>
<path d="M-33.3755 84.0703L57.6748 -6.97996L58.13 -6.52471L-32.9202 84.5256L-33.3755 84.0703Z" fill="#115EDE"/>
<path d="M-25.6359 91.8105L65.4144 0.760268L65.8696 1.21552L-25.1807 92.2658L-25.6359 91.8105Z" fill="#115EDE"/>
<path d="M-17.8966 99.5488L73.1537 8.49856L73.6089 8.95381L-17.4414 100.004L-17.8966 99.5488Z" fill="#115EDE"/>
<path d="M-10.1575 107.289L80.8928 16.2388L81.348 16.694L-9.70222 107.744L-10.1575 107.289Z" fill="#115EDE"/>
<path d="M-2.41815 115.027L88.6321 23.9771L89.0874 24.4323L-1.9629 115.483L-2.41815 115.027Z" fill="#115EDE"/>
<path d="M5.32098 122.768L96.3713 31.7173L96.8265 32.1725L5.77623 123.223L5.32098 122.768Z" fill="#115EDE"/>
<path d="M13.0603 130.506L104.111 39.4556L104.566 39.9108L13.5156 130.961L13.0603 130.506Z" fill="#115EDE"/>
<path d="M-61.4491 42.6426L-60.9938 42.1873L30.0564 133.238L29.6012 133.693L-61.4491 42.6426Z" fill="#115EDE"/>
<path d="M-53.7101 34.9043L-53.2548 34.449L37.7954 125.499L37.3402 125.955L-53.7101 34.9043Z" fill="#115EDE"/>
<path d="M-45.9705 27.1641L-45.5153 26.7088L45.535 117.759L45.0798 118.214L-45.9705 27.1641Z" fill="#115EDE"/>
<path d="M-38.2313 19.4258L-37.776 18.9705L53.2743 110.021L52.819 110.476L-38.2313 19.4258Z" fill="#115EDE"/>
<path d="M-30.4919 11.6855L-30.0367 11.2303L61.0136 102.281L60.5583 102.736L-30.4919 11.6855Z" fill="#115EDE"/>
<path d="M-22.7527 3.94727L-22.2975 3.49201L68.7528 94.5423L68.2975 94.9975L-22.7527 3.94727Z" fill="#115EDE"/>
<path d="M-15.0136 -3.79297L-14.5584 -4.24822L76.4919 86.8021L76.0367 87.2573L-15.0136 -3.79297Z" fill="#115EDE"/>
<path d="M-7.27411 -11.5312L-6.81886 -11.9865L84.2314 79.0638L83.7762 79.519L-7.27411 -11.5312Z" fill="#115EDE"/>
<path d="M0.465027 -19.2715L0.920278 -19.7267L91.9706 71.3235L91.5153 71.7788L0.465027 -19.2715Z" fill="#115EDE"/>
<path d="M8.20435 -27.0098L8.6596 -27.465L99.7099 63.5853L99.2546 64.0405L8.20435 -27.0098Z" fill="#115EDE"/>
<path d="M15.9435 -34.75L16.3987 -35.2053L107.449 55.845L106.994 56.3003L15.9435 -34.75Z" fill="#115EDE"/>
<path d="M128.765 128.765V0H10.7304L107.304 128.765H128.765Z" fill="url(#paint1_linear_1_6287)"/>
<mask id="mask1_1_6287" style="mask-type:luminance" maskUnits="userSpaceOnUse" x="10" y="0" width="119" height="129">
<path d="M128.765 128.765V0H10.7304L107.304 128.765H128.765Z" fill="#3582F7"/>
</mask>
<g mask="url(#mask1_1_6287)">
<path d="M-15.9139 20.3086L75.1363 -70.7417L75.5916 -70.2864L-15.4587 20.7638L-15.9139 20.3086Z" fill="#3582F7"/>
<path d="M61.4786 97.7012L152.529 6.65089L152.984 7.10615L61.9339 98.1564L61.4786 97.7012Z" fill="#3582F7"/>
<path d="M-8.1748 28.0469L82.8755 -63.0034L83.3307 -62.5482L-7.71955 28.5021L-8.1748 28.0469Z" fill="#3582F7"/>
<path d="M69.218 105.439L160.268 14.3892L160.723 14.8444L69.6732 105.895L69.218 105.439Z" fill="#3582F7"/>
<path d="M-0.435486 35.7871L90.6148 -55.2632L91.07 -54.8079L0.0197649 36.2424L-0.435486 35.7871Z" fill="#3582F7"/>
<path d="M76.9572 113.18L168.007 22.1294L168.463 22.5847L77.4125 113.635L76.9572 113.18Z" fill="#3582F7"/>
<path d="M7.30383 43.5254L98.3541 -47.5249L98.8094 -47.0696L7.75908 43.9806L7.30383 43.5254Z" fill="#3582F7"/>
<path d="M84.6965 120.918L175.747 29.8677L176.202 30.323L85.1518 121.373L84.6965 120.918Z" fill="#3582F7"/>
<path d="M15.0432 51.2656L106.093 -39.7846L106.549 -39.3294L15.4984 51.7209L15.0432 51.2656Z" fill="#3582F7"/>
<path d="M92.4358 128.658L183.486 37.6079L183.941 38.0632L92.891 129.113L92.4358 128.658Z" fill="#3582F7"/>
<path d="M22.7823 59.0039L113.833 -32.0464L114.288 -31.5911L23.2375 59.4592L22.7823 59.0039Z" fill="#3582F7"/>
<path d="M100.175 136.396L191.225 45.3462L191.681 45.8015L100.63 136.852L100.175 136.396Z" fill="#3582F7"/>
<path d="M30.5215 66.7441L121.572 -24.3061L122.027 -23.8509L30.9768 67.1994L30.5215 66.7441Z" fill="#3582F7"/>
<path d="M107.914 144.137L198.965 53.0864L199.42 53.5417L108.37 144.592L107.914 144.137Z" fill="#3582F7"/>
<path d="M38.2608 74.4824L129.311 -16.5678L129.766 -16.1126L38.7161 74.9377L38.2608 74.4824Z" fill="#3582F7"/>
<path d="M115.654 151.875L206.704 60.8247L207.159 61.28L116.109 152.33L115.654 151.875Z" fill="#3582F7"/>
<path d="M46.0001 82.2227L137.05 -8.82761L137.506 -8.37236L46.4554 82.6779L46.0001 82.2227Z" fill="#3582F7"/>
<path d="M123.393 159.615L214.443 68.565L214.898 69.0202L123.848 160.07L123.393 159.615Z" fill="#3582F7"/>
<path d="M53.7394 89.9609L144.79 -1.08934L145.245 -0.634085L54.1946 90.4162L53.7394 89.9609Z" fill="#3582F7"/>
<path d="M-20.7701 2.09766L-20.3148 1.64241L146.762 168.72L146.307 169.175L-20.7701 2.09766Z" fill="#3582F7"/>
<path d="M-13.0308 -5.64062L-12.5755 -6.09588L154.502 160.981L154.046 161.437L-13.0308 -5.64062Z" fill="#3582F7"/>
<path d="M-5.29163 -13.3809L-4.83638 -13.8361L162.241 153.241L161.786 153.696L-5.29163 -13.3809Z" fill="#3582F7"/>
<path d="M2.44781 -21.1191L2.90307 -21.5744L169.98 145.503L169.525 145.958L2.44781 -21.1191Z" fill="#3582F7"/>
<path d="M10.187 -28.8594L10.6422 -29.3146L177.719 137.763L177.264 138.218L10.187 -28.8594Z" fill="#3582F7"/>
<path d="M17.9263 -36.5977L18.3815 -37.0529L185.459 130.024L185.004 130.48L17.9263 -36.5977Z" fill="#3582F7"/>
<path d="M25.6655 -44.3379L26.1207 -44.7931L193.198 122.284L192.743 122.739L25.6655 -44.3379Z" fill="#3582F7"/>
<path d="M33.4048 -52.0762L33.86 -52.5314L200.937 114.546L200.482 115.001L33.4048 -52.0762Z" fill="#3582F7"/>
<path d="M41.144 -59.8164L41.5993 -60.2717L208.677 106.806L208.221 107.261L41.144 -59.8164Z" fill="#3582F7"/>
<path d="M48.8834 -67.5547L49.3386 -68.0099L216.416 99.0673L215.961 99.5226L48.8834 -67.5547Z" fill="#3582F7"/>
<path d="M56.6226 -75.2949L57.0779 -75.7502L224.155 91.3271L223.7 91.7823L56.6226 -75.2949Z" fill="#3582F7"/>
</g>
<path d="M93.7835 82.9453L0 109.449V128.764H128.765V119.965L93.7835 82.9453Z" fill="url(#paint2_linear_1_6287)" stroke="#0D57D9"/>
<mask id="mask2_1_6287" style="mask-type:luminance" maskUnits="userSpaceOnUse" x="0" y="82" width="129" height="47">
<path d="M93.7835 82.9453L0 109.449V128.764H128.765V119.965L93.7835 82.9453Z" fill="#1362DD"/>
</mask>
<g mask="url(#mask2_1_6287)">
<path d="M-46.6396 119.98L200.284 46.8383L200.65 48.0729L-46.2739 121.215L-46.6396 119.98Z" fill="#1362DD"/>
<path d="M-40.4224 140.969L206.502 67.8265L206.867 69.0612L-40.0567 142.203L-40.4224 140.969Z" fill="#1362DD"/>
<path d="M-34.2055 161.957L212.718 88.8148L213.084 90.0494L-33.8398 163.192L-34.2055 161.957Z" fill="#1362DD"/>
<path d="M-27.9883 182.945L218.936 109.803L219.301 111.038L-27.6226 184.18L-27.9883 182.945Z" fill="#1362DD"/>
<path d="M-37.7964 83.3379L-36.5618 82.9722L36.5804 329.896L35.3458 330.262L-37.7964 83.3379Z" fill="#1362DD"/>
<path d="M-16.8078 77.1211L-15.5732 76.7554L57.569 323.679L56.3344 324.045L-16.8078 77.1211Z" fill="#1362DD"/>
<path d="M4.1806 70.9043L5.41523 70.5386L78.5574 317.463L77.3228 317.828L4.1806 70.9043Z" fill="#1362DD"/>
<path d="M25.1691 64.6875L26.4037 64.3218L99.546 311.246L98.3113 311.611L25.1691 64.6875Z" fill="#1362DD"/>
<path d="M46.1578 58.4707L47.3924 58.105L120.535 305.029L119.3 305.395L46.1578 58.4707Z" fill="#1362DD"/>
<path d="M67.1461 52.2539L68.3808 51.8882L141.523 298.812L140.288 299.178L67.1461 52.2539Z" fill="#1362DD"/>
<path d="M88.1348 46.0352L89.3694 45.6694L162.512 292.593L161.277 292.959L88.1348 46.0352Z" fill="#1362DD"/>
<path d="M109.123 39.8184L110.358 39.4526L183.5 286.377L182.266 286.742L109.123 39.8184Z" fill="#1362DD"/>
</g>
</g>
<path d="M49.3598 22.748L43.5654 55.7977L64.8115 67.1719L49.3598 22.748Z" fill="#6AABD4"/>
<path d="M85.1992 55.7977L49.3597 22.748L64.8115 67.1719L85.1992 55.7977Z" fill="#E4F6FE"/>
<path d="M85.1992 55.7969L64.8115 67.1711L105.372 90.9925L85.1992 55.7969Z" fill="#A8CCE9"/>
<path d="M105.372 90.9933L64.8115 67.1719L84.5554 99.7922L105.372 90.9933Z" fill="#D8E9F8"/>
<path d="M84.5554 99.7922L64.8115 67.1719L23.6068 90.9933L84.5554 99.7922Z" fill="#84C1F2"/>
<path d="M23.6068 90.9925L64.8115 67.1711L43.5653 55.7969L23.6068 90.9925Z" fill="#AECEE9"/>
</g>
<defs>
<linearGradient id="paint0_linear_1_6287" x1="0.000449505" y1="9432" x2="4860.86" y2="4710.64" gradientUnits="userSpaceOnUse">
<stop stop-color="#0060FF"/>
<stop offset="1" stop-color="#1F66D6"/>
</linearGradient>
<linearGradient id="paint1_linear_1_6287" x1="4109.14" y1="-4.70033e-05" x2="11743.4" y2="11084.9" gradientUnits="userSpaceOnUse">
<stop stop-color="#1F6AE2"/>
<stop offset="1" stop-color="#2E7BED"/>
</linearGradient>
<linearGradient id="paint2_linear_1_6287" x1="9850.49" y1="2294.4" x2="471.296" y2="4552.35" gradientUnits="userSpaceOnUse">
<stop stop-color="#0D57D9"/>
<stop offset="1" stop-color="#0D57D9"/>
</linearGradient>
<clipPath id="clip0_1_6287">
<rect width="512" height="129" fill="white"/>
</clipPath>
</defs>
</svg>
