<svg width="256" height="256" viewBox="0 0 256 256" fill="none" xmlns="http://www.w3.org/2000/svg">
<g clip-path="url(#clip0_1_6381)">
<path d="M129.865 255.306C127.71 255.311 125.74 254.085 124.792 252.149C123.873 250.327 124.07 248.141 125.299 246.512L185.279 163.928L80.2585 206.827C79.5467 207.136 78.7799 207.299 78.0037 207.306C75.5087 207.294 73.3188 205.642 72.6202 203.247C71.9042 200.904 72.8524 198.372 74.9314 197.075L167.296 142.535L4.66443 133.178C1.96747 132.705 0 130.363 0 127.625C0 124.887 1.96747 122.545 4.66443 122.072L167.381 112.743L74.9878 58.2035C72.9087 56.9065 71.9606 54.3744 72.6766 52.0308C73.3721 49.6456 75.5474 47.997 78.0319 47.9721C78.8121 47.9694 79.5828 48.1429 80.2867 48.4794L185.335 91.4345L125.356 8.8785C124.126 7.24961 123.93 5.06359 124.848 3.24136C125.768 1.28181 127.729 0.0221188 129.894 0C131.375 0.00984495 132.788 0.620089 133.811 1.69114L253.347 121.199C256.884 124.742 256.884 130.48 253.347 134.023L133.755 253.672C132.731 254.718 131.329 255.306 129.865 255.306Z" fill="black"/>
</g>
<defs>
<clipPath id="clip0_1_6381">
<rect width="256" height="256" fill="white"/>
</clipPath>
</defs>
</svg>
