<svg width="512" height="80" viewBox="0 0 512 80" fill="none" xmlns="http://www.w3.org/2000/svg">
<g clip-path="url(#clip0_1_6384)">
<path d="M30.6318 61.6568V54.1712H8.48897V17.3711H0V61.6568H30.6318ZM51.8935 60.3045C53.7733 58.9019 55.214 56.9921 56.0464 54.7993V61.6568H64.1602V40.273C64.1901 38.1102 63.5833 35.9864 62.4153 34.1658C61.2332 32.3574 59.5551 30.9277 57.5819 30.0478C55.2129 29.0126 52.6458 28.5093 50.0613 28.5734C48.5226 28.5669 46.9865 28.7013 45.4722 28.9747C44.0416 29.2397 42.6394 29.6399 41.2845 30.17C40.0322 30.6667 38.824 31.2679 37.6725 31.9672L37.9168 39.575C39.742 38.3501 41.7074 37.3484 43.771 36.5912C45.8125 35.8818 47.9613 35.5306 50.1224 35.553C51.6872 35.4569 53.2347 35.9242 54.4847 36.8704C55.5081 37.6992 56.0884 38.9565 56.0551 40.273V42.4716H48.8574C44.5358 42.4716 41.1187 43.3847 38.606 45.2111C36.139 46.927 34.7153 49.7809 34.8283 52.784C34.8055 54.4925 35.2392 56.1761 36.0846 57.661C36.9486 59.1207 38.2106 60.304 39.7228 61.0723C41.4051 61.9364 43.276 62.3681 45.1669 62.3286C47.5697 62.4045 49.9316 61.6938 51.8935 60.3045ZM44.5649 54.7993C43.6592 54.1198 43.152 53.0334 43.2126 51.9028C43.1709 50.5115 43.8941 49.2091 45.0971 48.5089C46.8196 47.6054 48.757 47.192 50.6982 47.3137H55.9329V48.57C55.9137 49.6961 55.6138 50.7997 55.0605 51.7806C54.4142 52.9498 53.4803 53.9347 52.3472 54.6423C51.11 55.4463 49.6609 55.8625 48.1856 55.8375C46.8979 55.8946 45.6267 55.5301 44.5649 54.7993ZM90.011 60.1998C92.0027 58.3873 93.4601 56.064 94.2249 53.4819V61.6568H102.47V29.5767H94.2249V44.548C94.2569 46.5135 93.9164 48.4673 93.2216 50.3062C92.6417 51.8764 91.6282 53.2499 90.2989 54.2671C89.013 55.2112 87.4531 55.7077 85.8581 55.6805C84.2831 55.7793 82.7407 55.2017 81.618 54.0926C80.5488 52.8088 80.0173 51.1614 80.1348 49.4948V29.5767H71.8988V49.6431C71.8988 53.796 72.8847 56.995 74.8565 59.2401C76.8703 61.5446 79.8259 62.804 82.883 62.6601C85.4821 62.7538 88.023 61.8768 90.011 60.1998ZM119.674 61.6742V46.6855C119.642 44.72 119.983 42.7662 120.678 40.9273C121.255 39.3625 122.258 37.9905 123.574 36.9664C124.845 36.019 126.395 35.5218 127.98 35.553C129.552 35.4496 131.094 36.0208 132.22 37.1234C133.288 38.4046 133.819 40.0488 133.703 41.7125V61.6568H142.009V41.5904C142.009 37.4375 141.012 34.2385 139.017 31.9934C136.991 29.7126 134.046 28.4659 130.999 28.5996C128.393 28.4974 125.844 29.3822 123.862 31.0773C121.892 32.8963 120.446 35.2101 119.674 37.7778V29.5767H111.438V61.6568L119.674 61.6742ZM169.71 62.3635C170.724 62.2125 171.724 61.9821 172.702 61.6742C173.627 61.3776 174.447 61.0897 175.319 60.8018L175.38 53.0021C174.05 53.6706 172.644 54.1773 171.193 54.5114C169.74 54.8509 168.253 55.0207 166.761 55.0174C164.831 55.0845 162.916 54.6613 161.194 53.7873C159.769 53.0359 158.613 51.8587 157.888 50.4196C156.458 47.3804 156.458 43.8619 157.888 40.8226C158.619 39.3811 159.772 38.1971 161.194 37.4288C162.87 36.5463 164.746 36.1134 166.638 36.1725C168.198 36.1647 169.751 36.3553 171.262 36.7395C172.681 37.1074 174.06 37.6129 175.38 38.2489L175.319 30.2572C174.438 29.9081 173.534 29.6167 172.615 29.3848C170.559 28.859 168.446 28.5952 166.324 28.5996C163.007 28.5176 159.724 29.2865 156.788 30.833C154.167 32.2356 151.998 34.3534 150.533 36.9402C149.041 39.6312 148.28 42.6664 148.326 45.7433C148.277 48.7988 149.048 51.8114 150.559 54.4678C152.042 57.0198 154.225 59.0937 156.85 60.4441C159.762 61.9156 162.992 62.6496 166.255 62.5816C167.399 62.5895 168.542 62.5107 169.675 62.346L169.71 62.3635ZM190.945 61.6742V46.6855C190.913 44.72 191.253 42.7662 191.948 40.9273C192.528 39.3571 193.542 37.9836 194.871 36.9664C196.132 36.0323 197.664 35.536 199.233 35.553C200.825 35.442 202.389 36.013 203.535 37.1234C204.602 38.4046 205.134 40.0488 205.018 41.7125V61.6568H213.254V41.5904C213.254 37.4375 212.268 34.2385 210.296 31.9934C208.287 29.7108 205.351 28.4626 202.313 28.5996C199.697 28.4997 197.138 29.3837 195.142 31.0773C193.156 32.8878 191.699 35.2038 190.928 37.7778V17.3711H182.814V61.6568L190.945 61.6742ZM239.759 61.6742C243.927 61.7977 248.059 60.8674 251.772 58.9696C255.01 57.2376 257.643 54.5593 259.319 51.2921C261.111 47.6579 261.994 43.6431 261.893 39.5925C261.988 35.534 261.105 31.5122 259.319 27.8667C257.646 24.5821 255.014 21.8833 251.772 20.128C248.065 18.2103 243.931 17.2675 239.759 17.3885H222.737V61.6568L239.759 61.6742ZM231.2 54.1712V24.8567H239.628C243.868 24.8567 247.192 26.148 249.6 28.7304C252.008 31.3129 253.215 34.9278 253.221 39.575C253.221 44.2281 252.014 47.8255 249.6 50.3673C247.186 52.909 243.862 54.177 239.628 54.1712H231.2ZM283.477 60.2783C285.354 58.8729 286.794 56.964 287.63 54.7731V61.6306H295.762V40.273C295.804 38.1146 295.213 35.9911 294.06 34.1658C292.865 32.3519 291.172 30.9219 289.183 30.0478C286.817 29.0135 284.253 28.5103 281.671 28.5734C280.13 28.5668 278.591 28.7011 277.074 28.9747C275.646 29.2397 274.246 29.6399 272.895 30.17C271.639 30.665 270.427 31.2663 269.274 31.9672L269.527 39.575C271.351 38.3484 273.317 37.3466 275.381 36.5912C277.422 35.8812 279.571 35.5299 281.732 35.553C283.298 35.4545 284.846 35.9221 286.095 36.8704C287.12 37.6983 287.704 38.9552 287.674 40.273V42.4716H280.502C276.14 42.4716 272.764 43.344 270.242 45.2111C267.78 46.9301 266.36 49.7829 266.473 52.784C266.45 54.4925 266.884 56.1761 267.73 57.661C268.582 59.1176 269.832 60.301 271.333 61.0723C273.012 61.937 274.88 62.3689 276.768 62.3286C279.189 62.4154 281.571 61.7042 283.547 60.3045L283.477 60.2783ZM276.149 54.7731C275.257 54.0962 274.76 53.0205 274.823 51.9028C274.781 50.5115 275.504 49.2091 276.707 48.5089C278.429 47.6046 280.367 47.1911 282.308 47.3137H287.543V48.57C287.519 49.6955 287.22 50.798 286.671 51.7806C286.027 52.9487 285.096 53.9336 283.966 54.6423C282.724 55.4492 281.268 55.8655 279.787 55.8375C278.502 55.8946 277.233 55.53 276.175 54.7993L276.149 54.7731ZM312.338 61.6568V47.9855C312.338 44.4259 313.088 41.7038 314.598 39.8455C316.072 37.9939 318.34 36.9541 320.705 37.0449C321.855 37.0355 323 37.2032 324.099 37.5422V29.664C323.575 29.5024 323.038 29.3885 322.493 29.3237C321.915 29.2532 321.332 29.2212 320.749 29.2277C318.8 29.2115 316.931 30.0008 315.584 31.4089C314.029 33.0543 312.913 35.0645 312.338 37.2543V29.5767H304.093V61.6568H312.338ZM337.561 61.6568V51.2746L340.518 48.4479L350.115 61.6568H359.8L346.093 42.9078L359.547 29.5767H349.234L337.535 41.0058V17.4496H329.421V61.6568H337.561ZM373.104 61.6568V17.3711H364.921V61.6568H373.104ZM385.624 73.6094C388.224 73.7181 390.799 73.0728 393.04 71.7511C394.965 70.5122 396.559 68.3631 397.821 65.3036L412.574 29.5767H404.146L395.422 52.0336L386.601 29.5767H378.173L391.382 61.5957L390.684 63.2272C390.363 64.1848 389.753 65.0196 388.939 65.6177C387.939 66.1914 386.792 66.4555 385.642 66.3768H378.793V73.6094H385.624Z" fill="black"/>
<path d="M472.957 79.0268C472.289 79.0281 471.68 78.6488 471.386 78.0496C471.102 77.4856 471.163 76.8089 471.543 76.3047L490.109 50.7419L457.602 64.0206C457.381 64.1164 457.144 64.1668 456.904 64.1689C456.131 64.165 455.453 63.654 455.237 62.9126C455.016 62.1872 455.309 61.4034 455.953 61.0019L484.543 44.1199L434.202 41.2234C433.368 41.0772 432.759 40.3522 432.759 39.5047C432.759 38.6571 433.368 37.9322 434.202 37.7859L484.569 34.8981L455.97 18.0161C455.327 17.6147 455.033 16.8309 455.255 16.1055C455.47 15.3671 456.143 14.8568 456.912 14.8491C457.154 14.8483 457.392 14.902 457.61 15.0062L490.127 28.3024L471.561 2.74823C471.18 2.24402 471.119 1.56737 471.404 1.00332C471.688 0.396769 472.295 0.00684659 472.965 0C473.424 0.00304738 473.862 0.19194 474.178 0.523472L511.179 37.5155C512.274 38.6122 512.274 40.3884 511.179 41.4851L474.161 78.5208C473.844 78.8445 473.41 79.0268 472.957 79.0268Z" fill="black"/>
</g>
<defs>
<clipPath id="clip0_1_6384">
<rect width="512" height="80" fill="white"/>
</clipPath>
</defs>
</svg>
