<svg width="256" height="283" viewBox="0 0 256 283" fill="none" xmlns="http://www.w3.org/2000/svg">
<path d="M243.264 54.8723L138.401 2.22886C132.033 -0.742952 124.816 -0.742952 118.448 2.22886L30.1426 45.9569L16.1327 53.1741C22.5009 50.2023 29.7181 50.2023 36.0863 53.1741L85.7579 75.2504L88.3052 76.0995L208.027 138.507L87.8806 201.34L86.607 201.765L35.6617 228.511C29.2936 231.483 22.0763 231.907 15.7082 228.511L13.1609 227.237L118.023 279.456C124.391 282.428 131.609 282.428 137.977 279.456L243.264 226.813C250.906 222.992 256 215.35 256 206.859V74.8259C255.575 66.335 250.906 58.6932 243.264 54.8723Z" fill="#A4A7AD"/>
<path d="M85.7579 75.2502L36.0862 53.1739C29.7181 50.2021 22.5008 49.7776 16.1327 53.1739L13.5854 54.4475C13.1609 54.4475 13.1609 54.8721 12.7363 54.8721C5.09453 58.693 0 66.3348 0 74.8257V206.859C0 215.35 5.09453 223.416 12.7363 227.237L15.2836 228.511C21.6517 231.482 28.869 231.721 35.2371 228.749L87.0315 201.722L88.3051 76.5238L85.7579 75.2502Z" fill="#4D515D"/>
</svg>
