<svg width="256" height="199" viewBox="0 0 256 199" fill="none" xmlns="http://www.w3.org/2000/svg">
<g clip-path="url(#clip0_1_6445)">
<path d="M223.435 66.6794H208.669V59.0633C208.669 53.0015 203.695 48.0277 197.633 48.0277C191.571 48.0277 186.598 53.0015 186.598 59.0633V66.6794H171.832V59.0633C171.832 44.7636 183.489 33.2617 197.633 33.2617C211.933 33.2617 223.435 44.9191 223.435 59.0633V66.6794Z" fill="#FFA400"/>
<path d="M229.496 66.6797H165.77C162.972 66.6797 160.796 68.8557 160.796 71.6535V118.749C160.796 121.547 162.972 123.723 165.77 123.723H229.496C232.294 123.723 234.47 121.547 234.47 118.749V71.6535C234.315 68.8557 232.139 66.6797 229.496 66.6797ZM200.742 97.6105V103.983C200.742 105.693 199.343 107.247 197.478 107.247C195.768 107.247 194.214 105.848 194.214 103.983V97.6105C192.193 96.5225 190.95 94.3464 190.95 91.8595C190.95 88.2846 193.903 85.3314 197.478 85.3314C201.053 85.3314 204.006 88.2846 204.006 91.8595C204.161 94.3464 202.762 96.5225 200.742 97.6105Z" fill="#003A70"/>
<path d="M159.242 59.6849H143.854C141.367 59.6849 139.346 57.6643 139.346 55.1774C139.346 52.6905 141.367 50.6699 143.854 50.6699H159.242C161.729 50.6699 163.749 52.6905 163.749 55.1774C163.749 57.6643 161.729 59.6849 159.242 59.6849Z" fill="#FFA400"/>
<path d="M170.122 35.4373C169.189 35.4373 168.101 35.1265 167.324 34.3493L155.2 24.4017C153.335 22.8474 153.024 20.0496 154.579 18.029C156.133 16.1639 158.931 15.853 160.951 17.4073L173.075 27.3549C174.94 28.9092 175.251 31.707 173.697 33.7276C172.609 34.8156 171.365 35.4373 170.122 35.4373Z" fill="#FFA400"/>
<path d="M197.633 24.8687C195.146 24.8687 193.126 22.8481 193.126 20.3612V4.81805C193.126 2.33115 195.146 0.310547 197.633 0.310547C200.12 0.310547 202.141 2.33115 202.141 4.81805V20.3612C202.141 22.8481 200.12 24.8687 197.633 24.8687Z" fill="#FFA400"/>
<path d="M224.989 35.4373C223.746 35.4373 222.347 34.8156 221.57 33.7276C220.015 31.8624 220.326 28.9092 222.191 27.3549L234.315 17.4073C236.18 15.853 239.133 16.1639 240.688 18.029C242.242 19.8942 241.931 22.8474 240.066 24.4017L227.942 34.3493C227.01 35.1265 226.077 35.4373 224.989 35.4373Z" fill="#FFA400"/>
<path d="M251.257 59.6849H235.714C233.227 59.6849 231.206 57.6643 231.206 55.1774C231.206 52.6905 233.227 50.6699 235.714 50.6699H251.257C253.744 50.6699 255.764 52.6905 255.764 55.1774C255.764 57.6643 253.744 59.6849 251.257 59.6849Z" fill="#FFA400"/>
<path d="M0.390991 123.102V72.8974H12.5146V112.532H31.9435V123.102H0.390991ZM72.0448 105.849V107.248V108.647H46.3986C46.554 109.579 46.8649 110.512 47.3312 111.289C47.7975 112.066 48.4192 112.843 49.1964 113.31C49.9735 113.931 50.9061 114.398 51.8387 114.708C52.7713 115.019 53.8593 115.175 54.7919 115.175C56.6571 115.175 58.2114 114.864 59.4548 114.087C60.6983 113.465 61.7863 112.532 62.5635 111.444L70.6459 116.574C68.9361 119.06 66.7601 120.77 64.1178 122.169C61.4754 123.413 58.2114 124.19 54.6365 124.19C51.9941 124.19 49.5072 123.723 47.1758 122.946C44.8443 122.169 42.8237 120.926 40.9585 119.371C39.2488 117.817 37.8499 115.796 36.7619 113.465C35.6739 111.134 35.2076 108.491 35.2076 105.538C35.2076 102.585 35.6739 100.098 36.7619 97.7664C37.6945 95.435 39.0934 93.4144 40.8031 91.86C42.5128 90.3057 44.5334 88.9068 46.8649 88.1297C49.1964 87.1971 51.6833 86.7308 54.3256 86.7308C56.9679 86.7308 59.2994 87.1971 61.4754 87.9743C63.6515 88.9068 65.5166 90.1503 67.071 91.7046C68.6253 93.4143 69.8687 95.435 70.6459 97.7664C71.5785 100.253 72.0448 102.896 72.0448 105.849ZM61.32 101.497C61.32 99.6316 60.6983 98.0773 59.6103 96.6784C58.5223 95.2795 56.6571 94.6578 54.3256 94.6578C53.2376 94.6578 52.1496 94.8132 51.217 95.1241C50.2844 95.435 49.5072 95.9012 48.7301 96.523C47.9529 97.1447 47.4866 97.9218 47.0203 98.699C46.5541 99.4762 46.3986 100.409 46.2432 101.341H61.32V101.497ZM90.6965 96.523V110.045C90.6965 111.755 91.0074 112.999 91.6291 113.776C92.2508 114.553 93.3388 115.019 95.0486 115.019C95.6703 115.019 96.292 115.019 96.9137 114.864C97.5355 114.708 98.1572 114.553 98.4681 114.398L98.6235 122.946C97.8463 123.257 96.7583 123.413 95.5149 123.723C94.2714 123.879 93.028 124.034 91.7845 124.034C89.4531 124.034 87.4324 123.723 85.8781 123.102C84.3238 122.48 82.9249 121.703 81.9924 120.615C81.0598 119.527 80.2826 118.128 79.9717 116.574C79.6609 115.019 79.35 113.31 79.35 111.444V96.523H73.5991V87.8188H79.1946V78.493H90.6965V87.8188H98.9344V96.523H90.6965ZM109.659 71.9648C106.24 71.9648 103.442 74.4517 103.442 77.7158C103.442 81.1353 105.773 83.3113 109.193 83.3113C109.504 83.3113 109.815 83.3113 109.97 83.1559C109.348 85.6428 107.017 87.508 104.685 87.8188H104.219V93.2589H104.841C107.638 92.9481 110.281 91.7046 112.301 89.8394C114.944 87.3525 116.343 83.6222 116.343 79.2701C116.343 75.0735 113.545 71.9648 109.659 71.9648ZM136.549 98.2327C135.616 97.3001 134.528 96.523 133.285 95.9012C132.041 95.2795 130.642 94.9687 129.243 94.9687C128.155 94.9687 127.223 95.1241 126.29 95.5904C125.358 96.0567 124.891 96.6784 124.891 97.7664C124.891 98.699 125.358 99.4762 126.446 99.9425C127.534 100.409 129.088 100.875 131.419 101.341C132.818 101.652 134.062 101.963 135.461 102.585C136.86 103.207 137.948 103.828 139.036 104.605C140.124 105.383 141.056 106.471 141.678 107.714C142.3 108.957 142.611 110.356 142.611 112.066C142.611 114.242 142.144 116.107 141.212 117.662C140.279 119.216 139.191 120.459 137.637 121.392C136.238 122.325 134.528 122.946 132.818 123.413C130.953 123.879 129.243 124.034 127.378 124.034C124.425 124.034 121.627 123.568 118.985 122.635C116.187 121.703 113.856 120.304 112.146 118.594L118.674 111.755C119.762 112.843 121.006 113.776 122.56 114.553C124.114 115.33 125.669 115.641 127.378 115.641C128.311 115.641 129.243 115.486 130.176 115.019C131.109 114.553 131.575 113.776 131.575 112.688C131.575 111.6 130.953 110.823 129.865 110.201C128.777 109.735 126.912 109.113 124.58 108.647C123.337 108.336 122.094 108.025 120.85 107.559C119.607 107.092 118.519 106.471 117.586 105.693C116.654 104.916 115.876 103.828 115.255 102.74C114.633 101.497 114.322 100.098 114.322 98.5436C114.322 96.3675 114.788 94.6578 115.721 93.1035C116.654 91.5492 117.742 90.4612 119.14 89.5286C120.539 88.596 122.094 87.8188 123.803 87.508C125.513 87.0417 127.223 86.8862 128.933 86.8862C131.575 86.8862 134.217 87.3525 136.704 88.1297C139.191 88.9068 141.367 90.1503 143.077 91.86L136.549 98.2327ZM0.390991 181.233V131.029H34.1196V141.287H12.0483V150.768H32.8761V160.405H12.0483V170.819H35.363V181.233H0.390991ZM65.9829 181.233V161.96C65.9829 161.027 65.8275 160.094 65.6721 159.162C65.5166 158.229 65.2058 157.452 64.8949 156.83C64.5841 156.209 63.9623 155.587 63.3406 155.276C62.7189 154.81 61.7863 154.654 60.6983 154.654C59.6103 154.654 58.6777 154.81 57.9005 155.276C57.1234 155.742 56.5016 156.209 55.8799 156.986C55.4136 157.763 54.9473 158.54 54.6365 159.473C54.3256 160.405 54.1702 161.338 54.1702 162.27V181.388H42.5128V146.106H53.7039V150.924H53.8593C54.3256 150.147 54.7919 149.37 55.5691 148.748C56.1908 147.971 57.1234 147.349 57.9005 146.883C58.8331 146.416 59.7657 145.95 60.8537 145.639C61.9417 145.328 63.0298 145.173 64.2732 145.173C66.6047 145.173 68.6253 145.639 70.335 146.416C72.0448 147.194 73.2882 148.437 74.3762 149.68C75.4642 151.079 76.086 152.634 76.5523 154.343C77.0186 156.053 77.174 157.763 77.174 159.628V181.388H65.9829V181.233ZM107.639 157.297C107.017 156.519 106.084 155.742 104.996 155.276C103.908 154.81 102.665 154.499 101.577 154.499C100.333 154.499 99.2452 154.81 98.3126 155.276C97.38 155.742 96.4475 156.364 95.8257 157.297C95.204 158.229 94.5823 159.006 94.116 160.094C93.6497 161.182 93.4943 162.27 93.4943 163.514C93.4943 164.757 93.6497 165.845 94.116 166.933C94.4268 168.021 95.0486 168.954 95.8257 169.731C96.6029 170.508 97.38 171.285 98.4681 171.752C99.5561 172.218 100.644 172.529 101.888 172.529C103.131 172.529 104.219 172.373 105.462 171.907C106.55 171.441 107.483 170.819 108.26 169.886L114.633 177.813C113.234 179.212 111.213 180.3 109.037 181.078C106.706 181.855 104.219 182.321 101.732 182.321C98.9344 182.321 96.292 181.855 93.9606 181.078C91.4737 180.3 89.4531 179.057 87.5879 177.347C85.8781 175.793 84.4793 173.772 83.3912 171.441C82.3032 169.109 81.8369 166.467 81.8369 163.514C81.8369 160.561 82.3032 158.074 83.3912 155.742C84.4793 153.411 85.8781 151.39 87.5879 149.836C89.2976 148.282 91.4737 146.883 93.9606 146.106C96.4475 145.173 98.9344 144.862 101.732 144.862C102.976 144.862 104.219 145.017 105.462 145.173C106.706 145.484 107.949 145.795 109.037 146.106C110.125 146.572 111.213 147.038 112.301 147.66C113.234 148.282 114.167 148.903 114.788 149.68L107.639 157.297ZM141.522 155.587C141.056 155.431 140.434 155.276 139.968 155.276H138.569C137.015 155.276 135.772 155.587 134.684 156.053C133.596 156.675 132.818 157.297 132.197 158.074C131.575 158.851 131.109 159.783 130.798 160.716C130.487 161.649 130.331 162.426 130.331 163.203V181.233H118.674V145.95H129.865V151.079H130.021C130.953 149.214 132.197 147.815 133.906 146.727C135.616 145.639 137.481 145.018 139.657 145.018H141.056C141.522 145.018 141.833 145.173 142.144 145.173L141.522 155.587ZM168.878 186.518C168.101 188.383 167.324 189.937 166.547 191.491C165.614 192.89 164.682 194.134 163.438 195.222C162.195 196.31 160.796 196.932 159.242 197.553C157.687 198.02 155.667 198.33 153.491 198.33C152.403 198.33 151.315 198.33 150.071 198.175C148.983 198.02 147.895 197.864 147.118 197.553L148.361 187.761C148.983 187.917 149.605 188.072 150.227 188.227C150.848 188.383 151.47 188.383 152.092 188.383C153.957 188.383 155.2 187.916 155.978 187.139C156.755 186.362 157.532 185.119 157.998 183.564L159.086 180.611L144.32 145.95H157.221L165.148 168.643H165.303L172.298 145.95H184.577L168.878 186.518ZM227.01 163.514C227.01 166.001 226.699 168.332 225.922 170.664C225.144 172.995 224.056 174.86 222.658 176.725C221.259 178.435 219.394 179.834 217.373 180.922C215.352 182.01 212.865 182.476 210.223 182.476C208.047 182.476 206.026 182.01 204.006 181.233C202.141 180.3 200.586 179.212 199.498 177.658H199.343V198.641H187.686V146.416H198.721V150.768H198.877C199.965 149.37 201.519 148.126 203.384 147.038C205.249 145.95 207.581 145.484 210.223 145.484C212.71 145.484 215.041 145.95 217.217 147.038C219.238 147.971 221.103 149.37 222.502 151.079C223.901 152.789 224.989 154.81 225.766 156.986C226.543 158.695 227.01 161.027 227.01 163.514ZM215.663 163.514C215.663 162.426 215.508 161.338 215.197 160.25C214.886 159.162 214.264 158.229 213.643 157.452C213.021 156.675 212.088 155.898 211 155.431C209.912 154.965 208.824 154.654 207.425 154.654C206.026 154.654 204.938 154.965 203.85 155.431C202.762 155.898 201.985 156.675 201.208 157.452C200.431 158.229 199.965 159.317 199.498 160.405C199.032 161.493 198.877 162.581 198.877 163.669C198.877 164.757 199.032 165.845 199.498 166.933C199.965 168.021 200.431 168.954 201.208 169.886C201.985 170.664 202.762 171.441 203.85 171.907C204.938 172.373 206.026 172.684 207.425 172.684C208.824 172.684 210.068 172.373 211 171.907C212.088 171.441 212.865 170.664 213.643 169.886C214.264 169.109 214.886 168.021 215.197 166.933C215.508 165.69 215.663 164.602 215.663 163.514ZM245.506 154.654V168.177C245.506 169.886 245.817 171.13 246.439 171.907C247.06 172.684 248.148 173.151 249.858 173.151C250.48 173.151 251.101 173.151 251.723 172.995C252.345 172.84 252.967 172.684 253.278 172.529L253.433 181.078C252.656 181.388 251.568 181.544 250.324 181.855C249.081 182.01 247.837 182.166 246.594 182.166C244.262 182.166 242.242 181.855 240.688 181.233C239.133 180.611 237.734 179.834 236.802 178.746C235.869 177.658 235.092 176.259 234.781 174.705C234.47 173.151 234.159 171.441 234.159 169.576V154.654H228.564V145.95H234.159V136.624H245.506V145.95H253.744V154.654H245.506Z" fill="#003A70"/>
</g>
<defs>
<clipPath id="clip0_1_6445">
<rect width="256" height="199" fill="white"/>
</clipPath>
</defs>
</svg>
