<svg width="256" height="256" viewBox="0 0 256 256" fill="none" xmlns="http://www.w3.org/2000/svg">
<g clip-path="url(#clip0_1_6551)">
<path d="M218.123 218.128H180.192V158.725C180.192 144.56 179.939 126.325 160.464 126.325C140.708 126.325 137.685 141.758 137.685 157.694V218.124H99.7541V95.9674H136.168V112.661H136.678C144.103 99.9658 157.909 92.3833 172.606 92.9288C211.051 92.9288 218.139 118.217 218.139 151.115L218.123 218.128ZM56.9551 79.2694C44.7982 79.2715 34.9414 69.418 34.9392 57.2609C34.937 45.1038 44.7903 35.2467 56.9472 35.2445C69.104 35.2423 78.9609 45.0959 78.9631 57.253C78.9641 63.091 76.646 68.6904 72.5187 72.8193C68.3914 76.9482 62.793 79.2683 56.9551 79.2694ZM75.9207 218.128H37.95V95.9674H75.9207V218.128ZM237.033 0.0190888H18.8895C8.57962 -0.0972613 0.12485 8.16139 -0.000976562 18.4714V237.525C0.120542 247.84 8.57463 256.107 18.8895 255.999H237.033C247.369 256.127 255.856 247.86 255.999 237.525V18.4556C255.852 8.12522 247.364 -0.132962 237.033 0.00162188" fill="#0A66C2"/>
</g>
<defs>
<clipPath id="clip0_1_6551">
<rect width="256" height="256" fill="white"/>
</clipPath>
</defs>
</svg>
