<svg width="256" height="256" viewBox="0 0 256 256" fill="none" xmlns="http://www.w3.org/2000/svg">
<g clip-path="url(#clip0_1_6594)">
<path d="M128 246C193.17 246 246 193.17 246 128C246 62.8304 193.17 10 128 10C62.8304 10 10 62.8304 10 128C10 193.17 62.8304 246 128 246Z" fill="#69B53F"/>
<path d="M128 0C57.3075 0 0 57.3075 0 128C0 198.692 57.3075 256 128 256C198.692 256 256 198.692 256 128C256 57.3075 198.692 0 128 0ZM128 20C187.647 20 236 68.3532 236 128C236 187.647 187.647 236 128 236C68.3532 236 20 187.647 20 128C20 68.3532 68.3532 20 128 20Z" fill="white"/>
<path d="M78.5 62.5V153C78.5 163.772 86.9297 172.317 97.6533 172.497L98 172.5H158C168.772 172.5 177.317 164.07 177.497 153.347L177.5 153V103C177.5 97.6349 173.365 93.5 168 93.5C162.727 93.5 158.643 97.4935 158.504 102.724L158.5 103V153.5H137.5V103C137.5 97.6349 133.365 93.5 128 93.5C122.727 93.5 118.643 97.4935 118.504 102.724L118.5 103V153.5H97.5V103C97.5 86.2738 111.274 72.5 128 72.5C135.038 72.5 141.734 75.015 147.179 79.4966L147.575 79.8281L148 80.196L148.434 79.8203C153.684 75.3596 160.145 72.7561 166.972 72.5179L167.498 72.5043L168 72.5C184.559 72.5 198.224 85.9997 198.496 102.499L198.5 103V153C198.5 175.027 180.612 193.135 158.666 193.495L158 193.5H98C75.9734 193.5 57.8654 175.612 57.5055 153.666L57.5 153V62.5H78.5Z" fill="#F8F8F8"/>
</g>
<defs>
<clipPath id="clip0_1_6594">
<rect width="256" height="256" fill="white"/>
</clipPath>
</defs>
</svg>
