<svg width="256" height="256" viewBox="0 0 256 256" fill="none" xmlns="http://www.w3.org/2000/svg">
<g clip-path="url(#clip0_1_6643)">
<path d="M0 127.94C0 140.427 1.799 152.492 5.133 163.901L75.753 140.77C74.861 136.918 74.386 132.906 74.386 128.782C74.386 124.009 75.035 119.391 76.218 114.992L5.095 92.1094C1.784 103.479 0 115.5 0 127.94Z" fill="#6A7A55"/>
<path d="M93.5971 87.9483L48.9461 27.2773C30.1921 42.0243 15.6641 61.8983 7.46606 84.7853L78.7551 107.722C82.1011 100.01 87.2121 93.2433 93.5971 87.9483Z" fill="#A09440"/>
<path d="M124.211 75.836V0C98.583 0.745 74.848 9.027 55.136 22.7L99.861 83.472C107.036 79.097 115.326 76.37 124.211 75.836Z" fill="#AFA148"/>
<path d="M78.044 148.119L7.51196 171.221C15.828 194.366 30.616 214.424 49.703 229.202L93.234 169.31C86.55 163.667 81.293 156.397 78.044 148.119Z" fill="#4C5C59"/>
<path d="M55.9341 233.725C75.4881 247.071 98.9271 255.144 124.211 255.88V181.728C115.159 181.184 106.726 178.36 99.4591 173.84L55.9341 233.725Z" fill="#48555D"/>
<path d="M200.148 22.2129C180.609 8.85486 157.182 0.763859 131.909 0.00585938V75.9319C140.496 76.6489 148.499 79.4139 155.436 83.7299L200.148 22.2129Z" fill="#E3B23B"/>
<path d="M131.909 181.633V255.875C157.38 255.111 180.977 246.899 200.608 233.353L156.363 173.234C149.215 177.891 140.883 180.884 131.909 181.633Z" fill="#903024"/>
<path d="M162.495 168.576L206.812 228.793C225.845 213.901 240.546 193.735 248.74 170.499L177.091 147.447C174.001 155.647 168.953 162.887 162.495 168.576Z" fill="#D65841"/>
<path d="M256 127.941C256 115.299 254.16 103.089 250.746 91.5547L178.702 115.152C179.858 119.503 180.491 124.067 180.491 128.783C180.491 132.656 180.069 136.43 179.281 140.066L251.077 163.166C254.275 151.974 256 140.16 256 127.941Z" fill="#E6703E"/>
<path d="M176.188 107.873L248.342 84.2393C240.01 61.3023 225.31 41.4213 206.375 26.7383L161.657 88.2643C167.909 93.5453 172.909 100.251 176.188 107.873Z" fill="#F4A83A"/>
</g>
<defs>
<clipPath id="clip0_1_6643">
<rect width="256" height="256" fill="white"/>
</clipPath>
</defs>
</svg>
