<svg width="256" height="233" viewBox="0 0 256 233" fill="none" xmlns="http://www.w3.org/2000/svg">
<g clip-path="url(#clip0_1_6661)">
<path fill-rule="evenodd" clip-rule="evenodd" d="M0.387695 0H24.1798V157.893H118.267V177.359H0.387697L0.387695 0Z" fill="black"/>
<path fill-rule="evenodd" clip-rule="evenodd" d="M183.154 46.5036C199.376 44.3407 216.68 47.5851 229.657 58.3997C243.716 68.1328 251.286 85.4362 252.368 101.658C254.531 121.124 252.368 140.591 241.553 156.812C231.82 169.79 216.68 178.442 199.376 179.523C183.154 181.686 164.769 178.442 150.711 167.627C137.733 156.812 131.244 140.591 129.081 124.369C126.918 107.065 129.081 87.5991 139.896 72.4587C148.548 57.3182 165.851 47.5851 183.154 46.5036ZM186.399 64.8884C197.213 63.807 209.109 67.0514 217.761 74.6216C225.331 83.2733 229.657 94.0878 230.739 104.902C231.82 116.798 230.739 129.776 225.331 140.591C219.924 151.405 210.191 158.975 198.295 161.138C187.48 163.301 175.584 160.057 168.014 153.568C159.362 147.079 153.955 137.346 151.792 127.613C149.629 113.554 150.711 99.4951 156.118 86.5176C161.525 74.6216 173.421 65.9699 186.399 64.8884Z" fill="black"/>
<path fill-rule="evenodd" clip-rule="evenodd" d="M0.387695 205.477H255.612V232.513H0.387695V205.477Z" fill="#3492FF"/>
</g>
<defs>
<clipPath id="clip0_1_6661">
<rect width="256" height="233" fill="white"/>
</clipPath>
</defs>
</svg>
