<svg width="512" height="96" viewBox="0 0 512 96" fill="none" xmlns="http://www.w3.org/2000/svg">
<g clip-path="url(#clip0_1_6677)">
<path d="M296.128 31.5451C288.193 31.5451 282.941 34.8786 275.905 40.4701V1.00558L273.983 0L249.664 11.4997V13.2604L259.072 19.0435V90.8708C267.713 94.639 275.456 95.6445 283.39 95.6445C301.119 95.6445 318.593 83.5776 318.593 60.9575C318.527 44.0504 308.994 31.5451 296.128 31.5451ZM287.169 86.9074C282.432 86.9074 278.845 84.771 275.839 81.1244V45.1812C279.258 44.364 282.756 43.9218 286.271 43.8626C294.912 43.8626 300.607 50.898 300.607 65.1677C300.673 78.9917 296.256 86.9074 287.169 86.9074ZM372.607 84.2037V56.1174C372.607 40.157 366.463 31.4825 351.04 31.4825C341.058 31.4825 332.863 35.0665 325.698 42.1019L328.446 47.5718C333.695 44.242 338.686 42.2308 343.806 42.2308C352.319 42.2308 355.648 47.255 355.648 57.0604V59.6388C330.306 62.2135 322.943 70.5713 322.943 81.3785C322.943 91.9979 330.432 95.6445 337.471 95.6445C343.489 95.6445 349.633 93.0661 355.648 89.0438V94.0717H379.841V84.8999H373.248L372.607 84.2074V84.2037ZM355.774 84.0196C353.195 84.771 350.528 85.2167 347.84 85.3382C342.848 85.3382 339.331 82.8887 339.519 77.4188C339.648 70.947 344.381 67.805 355.777 66.7994V84.0196H355.774ZM420.606 85.6513C410.495 85.6513 400.959 77.6104 400.959 59.5725C400.959 46.7541 404.929 39.8402 412.418 39.8402C415.49 39.8402 417.855 40.9711 420.481 43.1701L431.616 57.8118H433.535V34.6908C428.039 32.6745 422.239 31.6119 416.385 31.5488C395.839 31.5488 383.105 46.1905 383.105 65.0424C383.105 83.4597 394.815 95.523 413.121 95.523C421.566 95.6523 429.765 92.677 436.161 87.1616L433.406 82.1373C428.993 84.6494 425.28 85.655 420.606 85.655V85.6513ZM502.913 84.8999L483.136 57.5613L509.057 34.1235V32.9927H476.672V34.2451L485.056 42.2934L466.303 61.9004L488.831 94.1343H512V84.9036H502.913V84.8999Z" fill="#192D41"/>
<path d="M465.088 84.2037V1.00927L463.04 0L438.847 11.4997V13.1941L448.258 18.9772V84.2074L447.488 84.8999H440.895V94.1343H472.447V84.9036H465.857L465.088 84.2111V84.2037ZM15.0395 9.48858H0V94.2633H50.8795V80.6234H15.0395V9.48858ZM83.456 31.6703C64.8951 31.6703 50.8795 45.4354 50.8795 63.6574C50.8795 81.8832 64.8951 95.7698 83.456 95.7698C102.017 95.7698 116.161 81.9458 116.161 63.6574C116.161 45.3728 102.142 31.6703 83.456 31.6703ZM83.456 82.4467C73.0871 82.4467 65.2818 74.4058 65.2818 63.7201C65.2818 53.038 73.0908 45.056 83.456 45.056C93.696 45.056 101.763 53.2259 101.763 63.6574C101.763 74.3395 93.9538 82.4467 83.456 82.4467ZM153.6 31.6077C135.039 31.6077 121.024 45.3728 121.024 63.5948C121.024 81.8205 135.039 95.7072 153.6 95.7072C172.161 95.7072 186.305 81.8832 186.305 63.5948C186.305 45.3065 172.224 31.6077 153.6 31.6077ZM153.6 82.3215C143.231 82.3215 135.426 74.2768 135.426 63.5948C135.426 52.9128 143.235 44.9934 153.6 44.9934C163.84 44.9934 171.907 53.1633 171.907 63.5948C171.907 74.2768 164.032 82.3215 153.6 82.3215ZM246.655 33.0553H227.074L208.447 52.0325V6.40921H194.048V94.1343H208.45V67.1751L233.664 94.138H252.545L220.289 59.5725L246.655 33.0516V33.0553Z" fill="#192D41"/>
</g>
<defs>
<clipPath id="clip0_1_6677">
<rect width="512" height="96" fill="white"/>
</clipPath>
</defs>
</svg>
