<svg width="512" height="155" viewBox="0 0 512 155" fill="none" xmlns="http://www.w3.org/2000/svg">
<g clip-path="url(#clip0_1_6698)">
<path d="M263.696 54.6355C287.217 54.6355 303.96 72.5328 303.96 95.2614C303.96 118.356 287.039 135.846 263.696 135.846C240.344 135.846 223.433 118.525 223.433 95.2614C223.433 72.3682 240.289 54.6355 263.696 54.6355ZM348.238 54.6355C371.759 54.6355 388.501 72.5328 388.501 95.2614C388.501 118.356 371.572 135.846 348.238 135.846C324.886 135.846 307.975 118.525 307.975 95.2614C307.975 72.3682 324.831 54.6355 348.238 54.6355ZM484.258 54.7138C498.44 54.7138 512 63.292 512 83.8745V133.623H491.894V88.0885C491.894 79.8214 487.838 73.5856 478.329 73.5856C469.443 73.5856 464.142 80.4481 464.142 88.7153V133.628H443.574V88.0885C443.574 79.8214 439.366 73.5856 430.009 73.5856C420.967 73.5856 415.666 80.2926 415.666 88.7153V133.628H394.942V56.8961H414.737V66.2565C418.944 58.7719 428.768 54.7138 437.182 54.7138C447.63 54.7138 456.044 59.2385 459.94 67.501C466.014 58.1405 474.127 54.7138 484.258 54.7138ZM216.85 20.7168V133.623H196.121V20.7168H216.85ZM348.238 73.155C336.056 73.155 326.145 83.0735 326.145 95.2565C326.145 107.44 336.056 117.359 348.238 117.359C360.42 117.359 370.332 107.44 370.332 95.2565C370.327 83.0735 360.416 73.155 348.238 73.155ZM263.696 73.4158C251.652 73.4158 241.855 83.2151 241.855 95.2663C241.855 107.317 251.652 117.116 263.696 117.116C275.741 117.116 285.533 107.317 285.533 95.2663C285.533 83.2151 275.741 73.4158 263.696 73.4158Z" fill="#222222"/>
<path d="M154.342 68.5886H109.21L148.296 46.0222L139.713 31.1508L100.626 53.7171L123.188 14.634L108.316 6.04533L85.7547 45.1284V0H68.5867V45.1327L46.0167 6.04533L31.1499 14.6297L53.7156 53.7128L14.6293 31.1508L6.04517 46.0179L45.1315 68.5843H0V85.7531H45.1271L6.04517 108.319L14.6293 123.191L53.7112 100.629L31.1456 139.712L46.0167 148.296L68.5824 109.209V154.342H85.7506V109.213L108.312 148.296L123.183 139.712L100.617 100.625L139.704 123.191L148.288 108.319L109.206 85.7571H154.333V68.5886H154.342ZM77.1708 100.52C64.2256 100.52 53.7328 90.0282 53.7328 77.0823C53.7328 64.1367 64.2256 53.6437 77.1708 53.6437C90.1161 53.6437 100.608 64.1367 100.608 77.0823C100.608 90.0282 90.1161 100.52 77.1708 100.52Z" fill="#625DF5"/>
</g>
<defs>
<clipPath id="clip0_1_6698">
<rect width="512" height="155" fill="white"/>
</clipPath>
</defs>
</svg>
