<svg width="256" height="256" viewBox="0 0 256 256" fill="none" xmlns="http://www.w3.org/2000/svg">
<g clip-path="url(#clip0_1_6695)">
<path d="M256 113.765H181.142L245.973 76.3352L231.735 51.6685L166.905 89.0984L204.326 24.2728L179.659 10.0271L142.238 74.8526V0H113.762V74.8597L76.326 10.0271L51.667 24.2657L89.0958 89.0912L24.265 51.6685L10.0269 76.328L74.8577 113.758H0V142.235H74.8505L10.0269 179.665L24.265 204.332L89.0886 166.909L51.6599 231.734L76.326 245.973L113.755 181.141V256H142.231V181.147L179.653 245.973L204.318 231.734L166.89 166.902L231.721 204.332L245.959 179.665L181.135 142.242H255.985V113.765H256ZM128 166.729C106.528 166.729 89.1244 149.326 89.1244 127.853C89.1244 106.381 106.528 88.9766 128 88.9766C149.472 88.9766 166.875 106.381 166.875 127.853C166.875 149.326 149.472 166.729 128 166.729Z" fill="#625DF5"/>
</g>
<defs>
<clipPath id="clip0_1_6695">
<rect width="256" height="256" fill="white"/>
</clipPath>
</defs>
</svg>
