<svg width="512" height="138" viewBox="0 0 512 138" fill="none" xmlns="http://www.w3.org/2000/svg">
<g clip-path="url(#clip0_1_6705)">
<path d="M108.44 102.557L127.367 113.339L85.7177 137.67L45.0833 114.483L62.9804 102.992L85.6018 115.904L108.44 102.557ZM30.7656 31.2728L30.8381 53.0682L18.9115 60.0241L18.9985 78.327L34.9102 87.3987L107.484 45.0543L107.557 66.8497L35.0117 109.165L0.202882 89.3116L0 49.2424L30.7656 31.2728ZM139.858 30.7946L170.856 48.4743L170.87 88.4276L136.264 108.643L94.1083 84.6018L112.86 73.6172L136.148 86.877L151.959 77.6459L151.857 59.343L139.931 52.532L139.858 30.7946ZM85.138 0L133.062 27.3311L133.221 75.4287L114.324 64.6469L114.237 38.3012L85.2685 21.7808L56.4302 38.6201L56.5027 64.9513L50.0829 68.7046L37.6926 76.646L37.5477 27.8238L85.138 0ZM63.2268 45.3442L76.8489 53.0972L63.2847 61.0096L63.2268 45.3442Z" fill="#3F5DFF"/>
<path d="M338.494 50.1548C347.943 50.1548 353.16 57.1687 353.16 69.617C353.16 81.8737 348.102 89.0026 338.927 89.219L338.494 89.2241C333.878 89.3761 329.7 86.5031 328.191 82.1377H327.901V102.687H318.742V51.0098H327.901V57.1687H328.191C329.666 52.786 333.876 49.9198 338.494 50.1548ZM457.398 50.0968C464.919 50.0968 469.86 53.6762 472.078 59.5453L464.557 62.9074C463.842 59.6918 460.98 57.4305 457.715 57.4495L457.398 57.4585C452.326 57.4585 449.746 61.0379 449.746 66.2694V73.066C449.746 78.2974 452.326 81.7609 457.398 81.7609C461.745 81.7609 463.919 79.2539 465.281 75.9643L472.353 79.3553C469.918 85.9345 464.687 89.2241 457.456 89.2241C446.384 89.2241 440.153 81.645 440.153 69.559C440.153 57.6034 446.384 50.0968 457.398 50.0968ZM257.211 50.0968C267.877 50.0968 274.601 57.6034 274.601 69.559C274.601 81.5146 267.949 89.1661 257.211 89.1661C246.473 89.1661 239.894 81.645 239.894 69.559C239.894 57.6034 246.545 50.0968 257.211 50.0968ZM295.425 50.0968C306.149 50.0968 312.815 57.6034 312.815 69.559C312.815 81.5146 306.149 89.1661 295.425 89.1661C284.701 89.1661 278.035 81.645 278.035 69.559C278.035 57.6034 284.701 50.0968 295.425 50.0968ZM418.241 50.1548C428.386 50.1548 433.704 54.9515 433.704 63.458V81.0653H437.414V88.3111H432.342C428.4 88.3111 425.965 85.7316 425.4 81.8768H424.965C423.748 86.6736 419.676 89.1226 414.082 89.1226C406.445 89.2241 402.141 84.8621 402.141 78.254C402.141 70.5879 407.938 66.8056 418.082 66.8056H424.531V64.0377C424.531 59.8786 422.458 57.4585 417.589 57.4585C414.116 57.3963 410.873 59.1916 409.083 62.1683L403.634 57.3136C406.358 52.9661 410.72 50.1548 418.241 50.1548ZM218.04 38.4166V79.9929H237.734V88.3981H208.606V38.4166H218.04ZM486.395 35.4023V67.2838H486.743L491.685 60.5597L500.061 50.9663H510.437L497.554 65.4579L511.799 88.3981H500.916L491.322 71.6458L486.395 77.0222V88.3981H477.222V35.4023H486.395ZM383.244 38.4166C391.475 38.4166 396.475 43.4886 396.475 51.2271C396.475 58.9657 392.128 61.6756 387.534 61.9654V62.3857C391.881 62.3857 398.344 65.5448 398.344 73.9789C398.344 82.0073 392.823 88.2966 385.461 88.2966H360.058V38.4166H383.244ZM424.531 72.2689H418.734C413.807 72.2689 411.488 73.9065 411.488 76.8048V78.0221C411.488 81.0218 413.561 82.529 417.14 82.529C421.183 82.6014 424.531 80.7175 424.531 77.2106V72.2689ZM257.211 57.4875C252.414 57.4875 249.487 60.5742 249.487 66.1825V73.1239C249.487 78.7757 252.487 81.8189 257.211 81.8189C261.935 81.8189 265.007 78.7757 265.007 73.1239V66.1825C265.007 60.6032 262.008 57.4875 257.211 57.4875ZM295.367 57.4875C290.585 57.4875 287.629 60.5742 287.629 66.1825V73.1239C287.629 78.7757 290.643 81.8189 295.367 81.8189C300.092 81.8189 303.164 78.7757 303.164 73.1239V66.1825C303.164 60.6032 300.15 57.4875 295.367 57.4875ZM335.509 57.6614C331.161 57.6614 327.857 60.0235 327.857 63.6754V75.5585C327.857 79.4278 331.147 81.645 335.509 81.645C340.233 81.645 343.523 78.2539 343.523 72.9066V66.4723C343.523 61.1684 340.233 57.6614 335.509 57.6614ZM382.636 66.936H369.463V80.3552H382.636C386.215 80.3552 388.36 78.4278 388.36 74.9209V72.4573C388.36 68.9504 386.215 66.936 382.636 66.936ZM381.128 46.4304H369.463V59.241H381.128C382.59 59.3964 384.045 58.8933 385.098 57.8681C386.151 56.843 386.693 55.4022 386.577 53.9371V51.7199C386.577 48.3578 384.563 46.4304 381.128 46.4304Z" fill="#001956"/>
</g>
<defs>
<clipPath id="clip0_1_6705">
<rect width="512" height="138" fill="white"/>
</clipPath>
</defs>
</svg>
