<svg width="256" height="146" viewBox="0 0 256 146" fill="none" xmlns="http://www.w3.org/2000/svg">
<g clip-path="url(#clip0_1_6722)">
<path d="M246.4 66.5997C233.7 107.3 186.5 105.1 157.6 97.0997C138.7 91.8997 120.7 81.9997 103.3 73.2997C103.7 72.7997 104 72.2997 104.4 71.7997C106.6 69.0997 111.8 63.3997 119 56.6997C129 60.9997 139 65.5997 148.8 69.8997C181 83.9997 235.2 85.9997 236.3 33.6997C237.1 -3.10032 181 -8.00032 151.4 10.7997C140.1 17.9997 130.9 26.8997 122.4 36.2997C82.4 21.2997 29 23.3997 0.799993 59.3997C35.5 30.4997 72.4 37.9997 108.4 52.3997C103.6 57.9997 98.8 63.3997 93.6 68.6997C66.6 55.9997 40.9 48.4997 14.7 68.1997C-18.7 93.4997 10.5 132.9 45.7 128.3C67.2 125.5 78.3 111.2 88.3 95.5997C114.8 110.7 143.5 132.8 166.6 141.1C224 161.9 278.7 106 246.4 66.5997ZM207.4 29.0997C215.6 41.3997 200.7 56.2997 180 54.7997C160.5 53.3997 149.6 46.4997 136.7 41.1997C161 22.1997 192 5.99968 207.4 29.0997ZM39.6 106C23.9 105.7 27.9 82.3997 42.2 80.6997C51.3 79.5997 61.9 82.5997 73.2 87.7997C63.2 97.5997 50.7 109.4 39.6 106Z" fill="#0664A8"/>
<path d="M39.1 108.6C41 108 42.9 107.3 44.7 106.6C43 106.7 41.3 106.5 39.6 106C23.9 105.7 27.9 82.4001 42.2 80.7001C51.3 79.6001 61.8 82.6001 73.1 87.7001C51.1 73.8001 30.4 63.6001 14.8 68.2001C10.8 71.2001 7.7 74.4001 5.4 77.8001C0.700005 92.5001 13.5 117.1 39.1 108.6Z" fill="url(#paint0_linear_1_6722)"/>
<path d="M156.1 136.7C159.7 138.5 163.2 140 166.6 141.2C224 161.9 278.7 106 246.4 66.5996C234.2 115.4 193.4 147.7 156.1 136.7Z" fill="url(#paint1_linear_1_6722)"/>
<path d="M197.2 20C201 21.8 204.5 24.8 207.4 29.1C215.6 41.4 200.7 56.3 180 54.8C160.5 53.4 149.6 46.5 136.7 41.2C130.1 46.4 124 51.8 118.8 56.7C128.9 61 138.9 65.7 148.7 69.9C175.4 81.5 217 84.9 231.3 56.1C234.5 37.9 217.8 23.8 197.2 20Z" fill="url(#paint2_linear_1_6722)"/>
</g>
<defs>
<linearGradient id="paint0_linear_1_6722" x1="1112.72" y1="4184.34" x2="2198.16" y2="1201.66" gradientUnits="userSpaceOnUse">
<stop stop-color="#02364F"/>
<stop offset="1" stop-color="#0664A8"/>
</linearGradient>
<linearGradient id="paint1_linear_1_6722" x1="154.12" y1="4016.13" x2="10146" y2="4016.13" gradientUnits="userSpaceOnUse">
<stop stop-color="#02364F"/>
<stop offset="1" stop-color="#0664A8"/>
</linearGradient>
<linearGradient id="paint2_linear_1_6722" x1="10364" y1="-812.82" x2="9461.73" y2="2557.89" gradientUnits="userSpaceOnUse">
<stop stop-color="#02364F"/>
<stop offset="1" stop-color="#0664A8"/>
</linearGradient>
<clipPath id="clip0_1_6722">
<rect width="256" height="146" fill="white"/>
</clipPath>
</defs>
</svg>
