<svg width="512" height="113" viewBox="0 0 512 113" fill="none" xmlns="http://www.w3.org/2000/svg">
<g clip-path="url(#clip0_1_6729)">
<path d="M176.404 75.271C174.88 82.5538 172.491 87.9585 169.23 91.4799C165.97 95.0012 161.342 96.7645 155.338 96.7645C149.333 96.7645 145.42 95.0012 143.595 91.4799C141.89 88.1932 141.645 83.266 142.858 76.7025L142.994 75.993C143.017 75.8737 143.041 75.7539 143.066 75.6336L151.049 37.4434H133.161L125.325 74.9058C124.35 79.5697 123.885 83.7589 123.885 87.5098H123.922L123.875 87.7289C123.88 89.1166 123.948 90.4573 124.089 91.7198C124.621 96.4411 126.055 100.307 128.393 103.307C130.725 106.311 133.886 108.529 137.866 109.974C141.847 111.419 146.563 112.133 152.004 112.133C157.367 112.133 162.339 111.434 166.914 110.031C171.489 108.633 175.574 106.426 179.163 103.426C182.752 100.427 185.83 96.6028 188.408 91.9598C190.979 87.3168 192.941 81.7556 194.297 75.271L202.206 37.4434H184.318L176.404 75.271ZM299.605 36.5513L284.252 109.974H340.918L344.11 94.7247H305.333L308.036 81.7973H346.218L349.432 66.4284H311.249L314.306 51.8003H353.083L356.271 36.5513H299.605ZM441.035 36.5513H423.626L413.443 85.2509L396.53 36.5513H372.229L356.881 109.974H374.29L384.651 60.4133L403.557 109.974H425.687L441.035 36.5513ZM457.468 36.5513L442.12 109.974H496.652L499.839 94.7247H463.196L465.898 81.7973H502.542L505.755 66.4284H469.112L472.174 51.8003H508.812L512 36.5513H457.468ZM59.2011 109.974H110.452L113.514 95.3351L113.665 94.6048H80.3086L92.2605 37.4486H74.3666L71.4191 51.5603L68.3254 66.3449L59.3159 109.452L59.2011 109.974ZM50.4524 68.2908H19.2085L43.034 103.76L50.3898 68.583L50.4524 68.2908ZM53.1496 53.141L53.4834 51.5603L56.431 37.4486H0L10.5433 53.141H53.1496ZM239.324 93.5405C228.124 93.5405 220.945 84.4632 223.288 73.2625C225.63 62.0619 236.606 52.9845 247.807 52.9845C256.493 52.9845 262.738 58.457 264.021 66.131H282.212C282.53 48.6389 269.942 35.4141 251.48 35.4141C230.576 35.4141 210.089 52.3585 205.717 73.2625C201.345 94.1665 214.748 111.111 235.652 111.111C253.629 111.111 271.272 98.5592 278.649 81.7504H260.192C255.517 88.7045 247.489 93.5405 239.324 93.5405Z" fill="#019B8F"/>
<path d="M148.392 15.6766H154.995L154.203 6.0869L148.392 15.6766ZM155.394 20.1485H145.675L142.996 24.54H136.748L151.964 0.435974H159.374L162.015 24.54H155.766L155.394 20.1485ZM182.799 4.94038L181.043 11.6728H184.481C185.687 11.6728 186.694 11.3822 187.502 10.801C188.313 10.2089 188.859 9.37473 189.139 8.29849C189.42 7.22225 189.308 6.39328 188.803 5.81212C188.298 5.23096 187.443 4.94038 186.238 4.94038H182.799ZM177.758 0.436131H188.075C191.142 0.436131 193.315 1.11954 194.595 2.48636C195.888 3.84275 196.206 5.77978 195.549 8.29849C194.889 10.8276 193.558 12.7761 191.554 14.143C189.565 15.4988 187.036 16.177 183.968 16.177H179.868L177.686 24.5402H171.47L177.758 0.436131ZM207.698 15.6766H214.301L213.509 6.0869L207.698 15.6766ZM214.7 20.1485H204.981L202.302 24.54H196.054L211.27 0.435974H218.68L221.32 24.54H215.072L214.7 20.1485ZM250.237 23.2162C248.942 23.8083 247.636 24.2548 246.32 24.5564C245.003 24.8574 243.672 25.0081 242.327 25.0081C238.312 25.0081 235.424 23.8886 233.661 21.65C231.902 19.4005 231.523 16.3549 232.525 12.5122C233.53 8.65897 235.498 5.61336 238.428 3.37428C241.361 1.12476 244.835 0 248.85 0C250.196 0 251.448 0.150768 252.607 0.452303C253.766 0.753317 254.839 1.2004 255.825 1.792L254.524 6.7809C253.577 5.99524 252.592 5.41929 251.568 5.05359C250.544 4.68737 249.414 4.50425 248.176 4.50425C245.959 4.50425 244.029 5.21479 242.389 6.63535C240.748 8.05642 239.602 10.0154 238.951 12.5122C238.302 14.9985 238.428 16.9522 239.327 18.3728C240.227 19.7934 241.785 20.5039 244.002 20.5039C245.24 20.5039 246.466 20.3208 247.681 19.9551C248.896 19.5889 250.182 19.0129 251.538 18.2272L250.237 23.2162ZM267.589 0.436027H273.804L271.408 9.62243H280.578L282.974 0.436027H289.19L282.903 24.5401H276.687L279.353 14.3202H270.182L267.517 24.5401H261.301L267.589 0.436027ZM301.52 0.436027H318.294L317.069 5.13435H306.51L305.339 9.62243H315.268L314.043 14.3202H304.114L302.673 19.8418H313.587L312.362 24.5401H295.232L301.52 0.436027Z" fill="#019B8F"/>
</g>
<defs>
<clipPath id="clip0_1_6729">
<rect width="512" height="113" fill="white"/>
</clipPath>
</defs>
</svg>
