<svg width="256" height="372" viewBox="0 0 256 372" fill="none" xmlns="http://www.w3.org/2000/svg">
<g clip-path="url(#clip0_1_6739)">
<path d="M129.794 61.0254L189.27 283.037H70.3174L129.794 61.0254Z" fill="#C4BAFF"/>
<path d="M205.037 0L70.0921 283.122H254.514L205.037 0Z" fill="#6750E5" fill-opacity="0.498"/>
<path d="M56.9202 0L189.489 283.122H0L56.9202 0Z" fill="#6750E5" fill-opacity="0.498"/>
<path d="M53.3362 351.582H21.3986L13.088 369.7H0.960449L37.8747 290.412L73.4844 369.7H61.1635L53.3362 351.582ZM48.746 341L37.6814 315.634L26.0853 341H48.746ZM74.9758 369.7V295.099H90.6305C98.1358 295.099 104.063 295.84 108.411 297.321C113.082 298.771 117.318 301.235 121.119 304.714C128.817 311.736 132.666 320.965 132.666 332.4C132.666 343.867 128.656 353.144 120.635 360.23C116.609 363.774 112.389 366.238 107.976 367.623C103.853 369.008 98.0069 369.7 90.4372 369.7H74.9758ZM86.2336 359.119H91.3069C96.3642 359.119 100.568 358.588 103.918 357.525C107.268 356.397 110.296 354.609 113.001 352.161C118.542 347.104 121.312 340.517 121.312 332.4C121.312 324.218 118.574 317.582 113.098 312.493C108.17 307.951 100.906 305.68 91.3069 305.68H86.2336V359.119ZM177.353 330.853H208.18V333.318C208.18 338.922 207.519 343.883 206.199 348.199C204.91 352.194 202.736 355.93 199.676 359.409C192.75 367.204 183.94 371.102 173.246 371.102C162.81 371.102 153.871 367.333 146.43 359.795C138.989 352.226 135.269 343.142 135.269 332.545C135.269 321.722 139.054 312.541 146.624 305.004C154.193 297.434 163.406 293.649 174.261 293.649C180.091 293.649 185.535 294.841 190.592 297.225C195.424 299.608 200.175 303.474 204.846 308.821L196.825 316.503C190.705 308.354 183.248 304.279 174.454 304.279C166.562 304.279 159.943 307.001 154.596 312.445C149.249 317.792 146.575 324.492 146.575 332.545C146.575 340.855 149.555 347.7 155.514 353.079C161.086 358.072 167.126 360.569 173.633 360.569C179.173 360.569 184.15 358.7 188.563 354.964C192.976 351.195 195.44 346.685 195.955 341.435H177.353V330.853ZM255.669 305.68H225.76V323.606H254.799V334.187H225.76V359.119H255.669V369.7H214.503V295.099H255.669V305.68Z" fill="url(#paint0_linear_1_6739)"/>
<path d="M26.5415 263.875L66.2342 61.1309L130.966 207.693L198.018 61.1309L233.681 263.875H204.491L186.293 150.046L130.478 272.548L76.2505 149.924L55.976 263.875H26.5415Z" fill="url(#paint1_linear_1_6739)"/>
<path d="M44.6665 243.947L69.4048 110.635M129.189 235.014L70.092 107.199M131.938 233.64L192.409 107.199M215.086 246.696L192.409 109.948" stroke="#A28BCA" stroke-opacity="0.356" stroke-width="2" stroke-linecap="square"/>
<path d="M215.773 243.259C218.05 243.259 219.896 245.105 219.896 247.383C219.896 249.66 218.05 251.506 215.773 251.506C213.496 251.506 211.65 249.66 211.65 247.383C211.65 245.105 213.496 243.259 215.773 243.259ZM43.9793 243.259C46.2564 243.259 48.1023 245.105 48.1023 247.383C48.1023 249.66 46.2564 251.506 43.9793 251.506C41.7022 251.506 39.8562 249.66 39.8562 247.383C39.8562 245.105 41.7022 243.259 43.9793 243.259ZM130.563 235.013C132.841 235.013 134.687 236.859 134.687 239.136C134.687 241.414 132.841 243.259 130.563 243.259C128.286 243.259 126.44 241.414 126.44 239.136C126.44 236.859 128.286 235.013 130.563 235.013ZM70.092 105.824C72.3691 105.824 74.215 107.67 74.215 109.947C74.215 112.224 72.3691 114.07 70.092 114.07C67.8149 114.07 65.9689 112.224 65.9689 109.947C65.9689 107.67 67.8149 105.824 70.092 105.824ZM192.409 105.824C194.686 105.824 196.532 107.67 196.532 109.947C196.532 112.224 194.686 114.07 192.409 114.07C190.132 114.07 188.286 112.224 188.286 109.947C188.286 107.67 190.132 105.824 192.409 105.824Z" fill="#DCC6FF"/>
</g>
<defs>
<linearGradient id="paint0_linear_1_6739" x1="8191.62" y1="4035.78" x2="17392.6" y2="6548.29" gradientUnits="userSpaceOnUse">
<stop stop-color="#91C5AA"/>
<stop offset="1" stop-color="#3965AF"/>
</linearGradient>
<linearGradient id="paint1_linear_1_6739" x1="11116.6" y1="14458.8" x2="11116.6" y2="4282.91" gradientUnits="userSpaceOnUse">
<stop stop-color="#803FA5"/>
<stop offset="1" stop-color="#4B114A"/>
</linearGradient>
<clipPath id="clip0_1_6739">
<rect width="256" height="372" fill="white"/>
</clipPath>
</defs>
</svg>
