<svg width="256" height="199" viewBox="0 0 256 199" fill="none" xmlns="http://www.w3.org/2000/svg">
<g clip-path="url(#clip0_1_6749)">
<path d="M162.611 141.315H93.3889V16.9141H162.611V141.315Z" fill="#6C6BBD"/>
<path d="M97.7827 79.1159C97.7827 53.8806 109.598 31.4016 127.998 16.9153C114.543 6.32214 97.5614 -0.000549316 79.1064 -0.000549316C35.4161 -0.000549316 0 35.4205 0 79.1159C0 122.811 35.4161 158.232 79.1064 158.232C97.5614 158.232 114.543 151.91 127.998 141.317C109.598 126.83 97.7827 104.351 97.7827 79.1159Z" fill="#D32011"/>
<path d="M256 79.1159C256 122.811 220.584 158.232 176.893 158.232C158.438 158.232 141.457 151.91 127.997 141.317C146.402 126.83 158.217 104.351 158.217 79.1159C158.217 53.8806 146.402 31.4016 127.997 16.9153C141.457 6.32214 158.438 -0.000549316 176.893 -0.000549316C220.584 -0.000549316 256 35.4205 256 79.1159Z" fill="#0099DF"/>
<path d="M186.033 176.466C186.953 176.466 188.276 176.642 189.287 177.039L187.879 181.345C186.913 180.947 185.947 180.817 185.022 180.817C182.034 180.817 180.54 182.748 180.54 186.219V197.999H175.968V176.994H180.495V179.544C181.682 177.698 183.397 176.466 186.033 176.466ZM169.142 181.169H161.672V190.66C161.672 192.768 162.417 194.176 164.706 194.176C165.893 194.176 167.387 193.779 168.745 192.989L170.062 196.897C168.614 197.908 166.33 198.527 164.353 198.527C158.946 198.527 157.06 195.625 157.06 190.746V181.169H152.795V176.994H157.06V170.621H161.672V176.994H169.142V181.169ZM110.648 185.65C111.136 182.617 112.977 180.55 116.232 180.55C119.174 180.55 121.065 182.396 121.548 185.65H110.648ZM126.297 187.496C126.251 180.947 122.207 176.466 116.317 176.466C110.166 176.466 105.86 180.947 105.86 187.496C105.86 194.171 110.342 198.522 116.629 198.522C119.793 198.522 122.69 197.732 125.24 195.58L122.997 192.194C121.242 193.603 118.998 194.392 116.891 194.392C113.948 194.392 111.267 193.029 110.608 189.252H126.206C126.251 188.678 126.297 188.11 126.297 187.496ZM146.376 182.356C145.104 181.561 142.513 180.55 139.832 180.55C137.327 180.55 135.833 181.476 135.833 183.015C135.833 184.418 137.413 184.815 139.39 185.077L141.542 185.384C146.115 186.048 148.881 187.979 148.881 191.671C148.881 195.67 145.365 198.527 139.304 198.527C135.874 198.527 132.71 197.647 130.205 195.801L132.358 192.24C133.897 193.427 136.186 194.438 139.349 194.438C142.468 194.438 144.138 193.517 144.138 191.888C144.138 190.706 142.951 190.042 140.446 189.694L138.293 189.388C133.59 188.724 131.04 186.616 131.04 183.191C131.04 179.016 134.47 176.466 139.787 176.466C143.127 176.466 146.16 177.215 148.353 178.664L146.376 182.356ZM202.737 180.807C201.797 180.807 200.926 180.973 200.117 181.299C199.312 181.631 198.613 182.094 198.024 182.688C197.436 183.281 196.973 183.996 196.636 184.825C196.299 185.655 196.133 186.571 196.133 187.567C196.133 188.568 196.299 189.478 196.636 190.308C196.973 191.138 197.436 191.852 198.024 192.446C198.613 193.039 199.312 193.502 200.117 193.834C200.926 194.166 201.797 194.327 202.737 194.327C203.678 194.327 204.553 194.166 205.358 193.834C206.168 193.502 206.872 193.039 207.46 192.446C208.059 191.852 208.522 191.138 208.864 190.308C209.201 189.478 209.367 188.568 209.367 187.567C209.367 186.571 209.201 185.655 208.864 184.825C208.522 183.996 208.059 183.281 207.46 182.688C206.872 182.094 206.168 181.631 205.358 181.299C204.553 180.973 203.678 180.807 202.737 180.807ZM202.737 176.466C204.367 176.466 205.876 176.747 207.264 177.316C208.652 177.879 209.855 178.659 210.866 179.65C211.882 180.641 212.671 181.813 213.245 183.161C213.818 184.514 214.105 185.982 214.105 187.567C214.105 189.151 213.818 190.62 213.245 191.973C212.671 193.321 211.882 194.498 210.866 195.489C209.855 196.48 208.652 197.255 207.264 197.823C205.876 198.386 204.367 198.668 202.737 198.668C201.107 198.668 199.598 198.386 198.21 197.823C196.822 197.255 195.63 196.48 194.624 195.489C193.618 194.498 192.828 193.321 192.255 191.973C191.681 190.62 191.395 189.151 191.395 187.567C191.395 185.982 191.681 184.514 192.255 183.161C192.828 181.813 193.618 180.641 194.624 179.65C195.63 178.659 196.822 177.879 198.21 177.316C199.598 176.747 201.107 176.466 202.737 176.466ZM83.9493 187.496C83.9493 183.804 86.3687 180.771 90.3223 180.771C94.0998 180.771 96.65 183.674 96.65 187.496C96.65 191.319 94.0998 194.216 90.3223 194.216C86.3687 194.216 83.9493 191.188 83.9493 187.496ZM100.956 187.496V176.994H96.3884V179.544C94.9347 177.653 92.7417 176.466 89.7539 176.466C83.8638 176.466 79.2513 181.078 79.2513 187.496C79.2513 193.91 83.8638 198.527 89.7539 198.527C92.7417 198.527 94.9347 197.34 96.3884 195.449V197.999H100.956V187.496ZM75.2072 197.999V184.815C75.2072 179.851 72.0433 176.511 66.948 176.466C64.267 176.42 61.4955 177.255 59.564 180.203C58.1153 177.874 55.8267 176.466 52.6176 176.466C50.3792 176.466 48.1811 177.125 46.4659 179.584V176.994H41.8987V197.999H46.5112V186.355C46.5112 182.708 48.5332 180.771 51.6518 180.771C54.6849 180.771 56.2241 182.748 56.2241 186.309V197.999H60.8365V186.355C60.8365 182.708 62.9491 180.771 65.9772 180.771C69.1008 180.771 70.5947 182.748 70.5947 186.309V197.999H75.2072Z" fill="#110F0D"/>
</g>
<defs>
<clipPath id="clip0_1_6749">
<rect width="256" height="199" fill="white"/>
</clipPath>
</defs>
</svg>
