<svg width="512" height="158" viewBox="0 0 512 158" fill="none" xmlns="http://www.w3.org/2000/svg">
<g clip-path="url(#clip0_1_6755)">
<path d="M146.191 74.0273C130.315 74.0273 118.408 85.9343 118.408 101.81V128.27H126.346V101.81C126.346 89.9033 134.284 81.9653 146.191 81.9653C158.098 81.9653 166.036 89.9033 166.036 101.81V128.27H173.974V101.81C173.974 89.9033 181.912 81.9653 193.819 81.9653C205.726 81.9653 213.664 89.9033 213.664 101.81V128.27H221.602V101.81C221.602 85.9343 209.695 74.0273 193.819 74.0273C183.456 74.0273 174.778 79.1122 170.005 87.0505C165.232 79.1122 156.554 74.0273 146.191 74.0273Z" fill="#262F45"/>
<path d="M261.954 74.0273C246.078 74.0273 234.171 85.9343 234.171 101.81C234.171 117.686 246.078 129.593 261.954 129.593C269.892 129.593 276.837 126.616 281.799 121.655V128.27H289.737V101.81C289.737 85.9343 277.83 74.0273 261.954 74.0273ZM261.954 81.9653C273.861 81.9653 281.799 89.9033 281.799 101.81C281.799 113.717 273.861 121.655 261.954 121.655C250.047 121.655 242.109 113.717 242.109 101.81C242.109 89.9033 250.047 81.9653 261.954 81.9653Z" fill="#262F45"/>
<path d="M329.426 74.0273C313.55 74.0273 301.643 85.9343 301.643 101.81C301.643 117.686 313.55 129.593 329.426 129.593C337.364 129.593 344.31 126.616 349.271 121.655V129.593C349.271 141.5 341.333 149.438 329.426 149.438V157.376C345.302 157.376 357.209 145.469 357.209 129.593V101.81C357.209 85.9343 345.302 74.0273 329.426 74.0273ZM329.426 81.9653C341.333 81.9653 349.271 89.9033 349.271 101.81C349.271 113.717 341.333 121.655 329.426 121.655C317.519 121.655 309.581 113.717 309.581 101.81C309.581 89.9033 317.519 81.9653 329.426 81.9653Z" fill="#262F45"/>
<path d="M396.899 74.0273C381.023 74.0273 369.116 85.9343 369.116 101.81C369.116 117.686 381.023 129.593 396.899 129.593V121.655C386.376 121.655 378.969 115.439 377.385 105.779H424.434C424.603 104.485 424.682 103.168 424.682 101.81C424.682 85.9343 412.775 74.0273 396.899 74.0273ZM396.899 81.9653C407.422 81.9653 414.83 88.1814 416.413 97.8413H377.385C378.969 88.1814 386.376 81.9653 396.899 81.9653Z" fill="#262F45"/>
<path d="M436.589 75.3516H444.527V128.271H436.589V75.3516Z" fill="#262F45"/>
<path d="M440.558 148.778C437.27 148.778 434.605 146.113 434.605 142.825C434.605 139.537 437.27 136.871 440.558 136.871C443.846 136.871 446.512 139.537 446.512 142.825C446.512 146.113 443.846 148.778 440.558 148.778Z" fill="#2397D4"/>
<path d="M484.217 74.0273C468.341 74.0273 456.434 85.9343 456.434 101.81C456.434 117.686 468.341 129.593 484.217 129.593C492.155 129.593 499.101 126.616 504.062 121.655V128.27H512V101.81C512 85.9343 500.093 74.0273 484.217 74.0273ZM484.217 81.9653C496.124 81.9653 504.062 89.9033 504.062 101.81C504.062 113.717 496.124 121.655 484.217 121.655C472.31 121.655 464.372 113.717 464.372 101.81C464.372 89.9033 472.31 81.9653 484.217 81.9653Z" fill="#262F45"/>
<path d="M12.5194 62.6255C5.60647 71.5858 0 81.6641 0 93.8733C0 120.337 20.0821 142.163 44.9819 142.163C69.881 142.163 89.9638 120.338 89.9638 93.8733C89.9638 81.6617 84.3484 71.9036 77.0446 62.6255C74.3059 59.7516 70.3519 60.1789 67.4734 62.0179C59.0506 66.3762 54.504 68.1175 44.9819 68.0749C35.7725 68.0336 30.9339 66.5296 22.5106 61.9379C19.6321 60.1789 15.2582 59.7515 12.5194 62.6255ZM18.522 70.0594C27.2526 74.8867 35.039 77.3359 44.9819 77.3359C54.9332 77.3359 62.7067 74.8867 71.4419 70.0594C76.2083 76.7801 80.7028 85.1137 80.7028 93.8733C80.7028 115.571 64.7109 132.902 44.9819 132.902C25.252 132.902 8.59948 115.571 8.59948 93.8733C8.59948 85.1253 13.7451 76.7854 18.522 70.0594Z" fill="#262F45"/>
<path d="M34.8495 55.4053H34.8429C30.4288 55.4053 26.834 51.8155 26.8294 47.4044C26.8227 42.9787 30.4181 39.3836 34.8362 39.3789C39.257 39.3789 42.8511 42.9687 42.8564 47.3797C42.8564 51.8055 39.2676 55.4006 34.8495 55.4053Z" fill="#2397D4"/>
<path d="M56.4922 49.5308C52.3705 49.5308 49.0157 46.1796 49.0129 42.0614C49.0063 37.9323 52.3609 34.5757 56.4854 34.5723C60.6126 34.5723 63.9674 37.9228 63.9715 42.041C63.9715 46.1701 60.6228 49.5268 56.499 49.5308H56.4922Z" fill="#2397D4"/>
<path d="M50.3358 28.174C50.3358 31.8621 47.346 34.852 43.6579 34.852C39.9698 34.852 36.98 31.8621 36.98 28.174C36.98 24.4859 39.9698 21.4961 43.6579 21.4961C47.346 21.4961 50.3358 24.4859 50.3358 28.174Z" fill="#2397D4"/>
<path d="M60.4864 16.9542C60.4864 20.3473 57.7357 23.0979 54.3427 23.0979C50.9496 23.0979 48.199 20.3473 48.199 16.9542C48.199 13.5612 50.9496 10.8105 54.3427 10.8105C57.7357 10.8105 60.4864 13.5612 60.4864 16.9542Z" fill="#2397D4"/>
<path d="M46.5961 6.0025C46.5961 8.953 44.2042 11.3448 41.2537 11.3448C38.3032 11.3448 35.9114 8.953 35.9114 6.0025C35.9114 3.05201 38.3032 0.660156 41.2537 0.660156C44.2042 0.660156 46.5961 3.05201 46.5961 6.0025Z" fill="#2397D4"/>
</g>
<defs>
<clipPath id="clip0_1_6755">
<rect width="512" height="158" fill="white"/>
</clipPath>
</defs>
</svg>
