<svg width="512" height="127" viewBox="0 0 512 127" fill="none" xmlns="http://www.w3.org/2000/svg">
<g clip-path="url(#clip0_1_6837)">
<path d="M498.923 47.1195V95.9149H486.711V47.0655H478.389V34.9072H486.765L486.711 15.8321H498.923V34.9072H512V47.0655H498.923V47.1195ZM424.676 60.3586C425.541 54.4147 429.06 49.186 434.241 46.1469C439.378 43.2537 445.658 43.2742 450.776 46.2009C456.004 49.1376 459.546 54.3614 460.341 60.3045H424.676V60.3586ZM469.959 51.5505C467.623 46.1471 463.8 41.5184 458.936 38.2034C454.102 34.8964 448.365 33.1604 442.508 33.232C436.943 33.232 431.863 34.691 427.162 37.555C417.589 43.525 411.815 54.0487 411.924 65.33C411.815 76.6113 417.589 87.1349 427.162 93.1049C435.196 98.1635 445.214 98.9124 453.91 95.1043C457.483 93.5726 460.729 91.3715 463.475 88.6199C466.26 85.8559 468.529 82.6169 470.175 79.0554H455.693C454.397 80.5684 452.884 81.8653 451.154 82.892C443.301 87.3801 433.318 85.1016 428.189 77.6504C426.573 75.2398 425.486 72.5141 425 69.6529H472.661C473.376 63.4861 472.444 57.2399 469.959 51.5505ZM402.521 19.9389C402.521 23.5202 399.618 26.4234 396.037 26.4234C392.455 26.4234 389.552 23.5202 389.552 19.9389C389.552 16.3577 392.455 13.4545 396.037 13.4545C399.618 13.4545 402.521 16.3577 402.521 19.9389ZM376.043 126.23V114.071C380.955 114.098 385.524 111.557 388.093 107.371C389.336 105.317 389.931 103.048 389.931 100.562V34.9612H402.143V100.616C402.129 107.504 399.354 114.099 394.438 118.923C389.522 123.748 382.876 126.399 375.989 126.284M362.48 95.8068H374.638V4.48438H362.534V95.8068H362.48ZM347.62 19.9389C347.62 23.5202 344.716 26.4234 341.135 26.4234C337.554 26.4234 334.651 23.5202 334.651 19.9389C334.651 16.3577 337.554 13.4545 341.135 13.4545C344.716 13.4545 347.62 16.3577 347.62 19.9389ZM334.975 95.8608H347.187V34.9612H334.975V95.8608ZM288.179 85.6479C291.549 85.7246 294.863 84.7829 297.689 82.946C300.499 81.1087 302.607 78.6231 304.174 75.597C305.687 72.5169 306.443 69.1126 306.443 65.384C306.443 61.6014 305.687 58.1971 304.174 55.117C302.725 52.1208 300.482 49.579 297.689 47.768C291.712 44.1412 284.214 44.1412 278.236 47.768C272.073 51.4802 268.347 58.1896 268.455 65.384C268.444 72.5808 272.222 79.2524 278.398 82.946C281.424 84.7833 284.667 85.6479 288.179 85.6479ZM319.737 34.9612V95.8608H307.416V86.5665C303.367 93.4259 295.926 97.5599 287.963 97.3739C270.321 97.1993 256.045 82.9715 255.811 65.33C255.958 47.6341 270.267 33.3249 287.963 33.178C295.948 33.0142 303.395 37.1925 307.416 44.0935V34.9072H319.683L319.737 34.9612ZM153.033 34.9612H165.299V41.986C166.596 40.1488 168.001 38.7438 169.352 37.609C172.219 35.284 175.821 34.0578 179.511 34.1507C183.996 34.1507 187.994 35.1774 191.507 37.2308C195.019 39.2301 197.991 42.0941 200.369 45.7686C204.723 38.4497 212.658 34.0181 221.173 34.1507C226.253 34.1507 230.792 35.4475 234.845 38.0413C238.871 40.6188 242.121 44.2424 244.247 48.5245C246.462 52.9015 247.597 57.7108 247.597 62.9523V95.8608H235.385V62.9523C235.385 59.8722 234.845 57.0623 233.656 54.5766C232.565 52.1525 230.826 50.0768 228.63 48.5785C226.415 47.0837 223.791 46.3099 221.119 46.363C218.309 46.363 215.824 47.0655 213.554 48.5245C211.338 50.0375 209.555 52.0369 208.312 54.5766C207.07 57.1164 206.475 59.9263 206.475 62.9523V95.8608H194.263V62.9523C194.283 60.0524 193.636 57.1866 192.371 54.5766C191.174 52.1398 189.346 50.0685 187.076 48.5785C184.832 47.1013 182.197 46.3297 179.511 46.363C176.809 46.363 174.377 47.1195 172.27 48.6866C170.108 50.2537 168.379 52.3611 167.136 54.9549C165.892 57.6272 165.264 60.5451 165.299 63.4927V95.8608H153.033V34.9612Z" fill="#131B20"/>
<path d="M0 48.5252L46.2556 69.4915L55.55 60.2512L31.8818 49.4978L105.264 21.3986L77.0567 94.4566L66.3574 71.0045L57.009 80.2989L57.4953 81.3796L77.9753 126.284L126.771 0L0 48.5252Z" fill="#9585F4"/>
</g>
<defs>
<clipPath id="clip0_1_6837">
<rect width="512" height="127" fill="white"/>
</clipPath>
</defs>
</svg>
