<svg width="512" height="126" viewBox="0 0 512 126" fill="none" xmlns="http://www.w3.org/2000/svg">
<g clip-path="url(#clip0_1_6813)">
<path d="M473.798 79.0363L473.72 78.8946L473.565 78.4019L473.636 78.2553C478.515 68.2008 484.105 62.4376 488.972 62.4376H489.022C494.516 62.479 498.315 67.4222 498.262 74.4554C498.226 79.1491 496.156 81.8521 494.429 83.2925C492.456 84.9374 489.831 85.8776 487.222 85.8776C480.793 85.8287 476.38 82.1316 473.798 79.0363ZM472.466 116.991C471.681 118.037 470.588 118.566 469.219 118.566C467.647 118.553 466.466 118.006 465.663 116.932C463.411 113.924 464.045 106.854 467.719 94.019C468.156 92.4858 468.634 90.9437 469.137 89.4356L469.563 88.1543L469.936 89.4506C474.219 104.267 475.068 113.533 472.466 116.991ZM315.164 48.7449C315.308 45.5456 315.576 42.4302 315.958 39.4853C318.437 20.5021 323.611 7.24445 328.544 7.24445H328.565C330.917 7.262 332.094 9.04097 332.069 12.5287C332.003 21.1001 326.572 33.3711 315.93 49.0007L315.097 50.2243L315.164 48.7449ZM487.779 92.0457L487.952 92.0482C498.31 92.0482 505.601 84.8709 505.679 74.5995C505.718 69.5134 504.25 64.8585 501.542 61.4948C498.679 57.9344 494.673 56.0351 489.953 55.9987H489.859C483.489 55.9987 477.574 60.8304 471.776 70.7746L471.314 71.5681L471.017 70.7019C469.553 66.4381 468.249 62.8877 467.469 60.7652C466.924 59.2834 466.682 58.6177 466.625 58.402C466.347 57.3264 465.427 56.6582 464.222 56.6582C463.481 56.6582 462.694 56.9101 461.948 57.384C461.21 57.8529 460.797 58.4283 460.649 59.1956L460.612 59.3109C454.808 77.4078 450.023 86.1986 445.97 86.1986C445.381 86.1936 444.919 86.0005 444.576 85.6181C443.514 84.4447 443.775 81.654 444.136 77.7901C444.4 74.9518 444.704 71.7374 444.577 68.3286C444.336 61.7732 440.751 57.8366 434.984 57.7927C427.656 57.7902 422.906 65.5931 420.718 70.2455L420.065 71.6346L419.921 70.1064C419.374 64.3495 417.442 57.473 411.342 57.4267C404.226 57.4267 398.805 65.7774 395.498 72.7855L394.612 74.6635L394.701 72.5886C395.094 63.2425 395.417 57.7238 395.658 56.1943C395.9 54.6585 395.773 53.628 395.271 53.0375C394.796 52.4847 393.898 52.2803 392.582 52.3631C390.304 52.5072 389.139 53.8938 387.385 58.5412C384.506 66.1736 377.178 83.9307 371.327 83.9307C370.166 83.9231 369.247 83.527 368.574 82.756C366.121 79.9427 367.102 72.3392 368.46 61.8158L368.563 61.0197C369.205 56.0376 368.109 54.9745 365.405 54.4768C365.113 54.4241 364.836 54.3953 364.581 54.3953C362.421 54.3953 361.409 56.4663 359.392 62.217C355.799 72.452 351.182 83.2161 345.778 83.2161C345.58 83.2161 345.385 83.201 345.188 83.1697C342.325 82.682 342.387 78.4358 342.467 73.0563C342.509 70.1477 342.558 66.8493 342.109 63.8718C341.303 58.5299 338.154 55.1926 333.892 55.16C325.386 55.16 319.649 66.052 316.983 72.5448L316.377 74.0141L316.177 72.4369C315.819 69.6212 315.348 65.1606 315.144 59.8839L315.137 59.7272L315.234 59.6043C331.152 39.5668 338.294 25.1068 338.389 12.718C338.451 4.80354 334.797 0.0495929 328.622 0.00195312C324.106 0.00195312 313.366 3.76299 309.635 38.6102C308.942 45.0729 308.562 51.6986 308.505 58.3042L308.504 58.4334L308.43 58.5387C301.149 69.0808 285.604 87.2115 270.388 87.2115C256.638 87.2115 245.668 76.0876 245.668 56.4538C245.668 30.1316 264.301 13.9704 278.322 13.9704L278.437 13.9717C281.484 13.9942 284.096 14.8455 285.993 16.4327C287.963 18.08 288.992 20.3893 288.972 23.1097C288.943 26.7442 287.761 28.6121 286.616 30.4162C286.321 30.8813 286.029 31.3426 285.761 31.8316C285.49 32.3243 285.243 33.0414 285.603 33.6544C285.972 34.2825 286.913 34.6787 288.06 34.6862C291.398 34.6862 296.446 29.8558 296.501 22.5757C296.559 14.9571 290.14 7.1078 278.692 7.1078C261.363 7.1078 238.029 26.1424 238.029 56.9929C238.029 78.8157 251.711 93.8987 270.246 93.8987C283.398 93.8987 296.409 84.4823 307.931 68.7524L308.637 67.7996L308.687 68.9843C308.933 74.7412 309.35 79.2783 309.656 82.5917C309.853 84.7217 309.996 86.26 309.988 87.1087C309.975 88.9704 310.278 90.2605 310.92 91.0541C311.559 91.8476 312.58 92.2225 314.122 92.2338C316.711 92.2338 317.228 90.4686 318.253 86.1171L318.549 84.8734C319.821 79.5992 324.525 62.3862 331.601 62.3862C332.756 62.3962 333.647 62.7385 334.28 63.4092C335.842 65.0666 335.673 68.4678 335.474 72.4081C335.35 74.8666 335.222 77.4053 335.469 79.8788C336.136 86.5559 339.019 89.8204 344.284 89.8593C349.69 89.8618 355.33 84.0385 358.306 78.6276L358.869 77.6059L359.087 78.7517C359.638 81.6465 362.095 91.1518 369.789 91.1518C376.763 91.1518 382.744 83.8091 389.302 68.696L390.16 66.7227L390.107 68.8752C389.967 74.602 389.657 81.5951 389.655 87.0009C389.652 91.1832 390.075 92.7804 392.008 92.7804C392.146 92.7804 392.294 92.7992 392.447 92.7992C394.301 92.7992 395.559 91.6934 396.188 89.5045C401.121 72.3078 405.386 64.2981 409.611 64.2981C413.748 64.3307 414.136 71.8941 414.467 85.2608L414.49 86.1986C414.59 90.8723 414.758 92.9421 417.663 92.9634C419.867 92.9634 420.415 91.2321 421.554 86.9696C421.771 86.1572 422.01 85.2658 422.288 84.303C426.271 70.4812 429.574 64.8422 433.685 64.8422C437.205 64.8685 437.401 68.4979 437.466 69.6901C437.602 72.2439 437.338 74.918 437.085 77.498C436.849 79.8976 436.605 82.3786 436.698 84.6879C436.913 90.0937 439.873 93.0938 445.033 93.1327C451.73 93.1327 457.776 85.2997 463.07 69.8569L463.437 68.7787L463.857 69.8368C464.816 72.2639 466.068 75.5498 467.227 79.4701L467.271 79.6193L467.208 79.7609C462.082 91.1443 458.465 103.825 458.414 110.599C458.345 119.521 462.382 125.32 468.699 125.368H468.808C472.244 125.368 480.254 123.989 480.41 111.221C480.472 105.988 479.236 98.5887 476.738 89.2249L476.452 88.1518L477.374 88.7673C480.564 90.8823 484.161 92.0156 487.779 92.0457Z" fill="#0B0B0A"/>
<path d="M150.475 65.8386C148.22 74.9102 143.897 85.8573 136.103 86.4841C135.885 86.4992 135.673 86.5117 135.469 86.5117C132.236 86.5117 130.423 84.393 130.081 80.2183C129.652 74.9929 131.906 68.875 135.819 64.6263C138.311 61.9208 141.122 60.4315 143.732 60.4315H143.785C147.082 60.4565 149.391 63.1031 150.453 65.5715L150.509 65.6982L150.475 65.8386ZM221.945 15.1098L222.057 15.1073C222.791 15.1073 223.437 15.4771 223.976 16.2055C226.533 19.6644 226.571 32.2839 222.173 46.6448C219.658 54.8501 216.278 62.6041 212.398 69.063L211.78 70.0911L211.622 68.9013C211.165 65.4286 210.94 61.813 210.781 58.7352C209.659 37.0303 216.225 15.4069 221.945 15.1098ZM162.591 90.3856C170.122 89.7801 176.098 79.5375 178.317 75.1622L178.889 74.0339L179.106 75.28C180.17 81.4356 183.519 91.7784 193.993 91.8587H194.081C198.612 91.8587 203.753 89.088 208.947 83.8477L209.328 83.4628L209.605 83.9254C213.103 89.775 217.794 92.8829 222.788 92.6284C230.142 92.246 234.603 87.0358 234.997 83.4164C235.097 82.4937 234.853 81.6261 234.326 81.0394C233.664 80.3023 232.705 80.2158 231.998 80.8915L231.664 81.2099C229.951 82.8535 226.762 85.9162 223.288 86.098C219.033 86.3061 215.885 83.7624 213.851 78.512L213.767 78.2914L213.91 78.1058C225.61 62.8022 233.821 39.4499 233.011 23.789C232.638 16.5402 230.529 7.89861 222.613 7.89861C222.419 7.89861 222.222 7.90363 222.023 7.91491C218.989 8.07162 216.232 9.51586 213.825 12.2088C206.48 20.4266 202.636 40.6535 204.031 63.7399C204.321 68.5365 205.153 73.0196 206.506 77.0602L206.582 77.2847L206.428 77.4664C202.087 82.5401 197.803 85.3358 194.365 85.3358C186.095 85.3358 186.373 71.4701 187.028 59.9689C187.169 57.4891 187.379 55.9095 186.645 55.0118C186.12 54.3699 185.244 54.0528 183.966 54.0415L183.816 54.0402C180.875 54.0402 180.258 54.6457 178.752 59.0136C175.619 68.0889 169.436 83.3161 163.215 83.3161C161.49 83.3011 160.174 82.7118 159.274 81.5635C156.256 77.7109 158.548 68.1052 160.388 60.3851C160.719 58.9973 161.036 57.6646 161.308 56.431C161.712 54.6006 161.588 53.2654 160.941 52.4568C160.293 51.652 158.997 51.3248 157.288 51.4602C154.623 51.6733 152.92 52.7891 152.098 57.8552L151.932 58.9082L151.313 58.1598C150.149 56.4423 147.88 54.395 143.67 54.395C143.301 54.395 142.919 54.4101 142.525 54.4414C138.031 54.81 132.914 57.9417 129.169 62.6129C124.796 68.0689 122.709 74.9741 123.289 82.0549C123.321 82.4297 123.375 82.7896 123.429 83.1469L123.459 83.3449L123.323 83.4954C120.707 86.345 118.041 87.7892 115.401 87.7892C111.327 87.7579 108.987 84.729 108.987 79.6854C108.987 71.1905 114.743 45.5892 114.743 36.3207C114.743 26.4568 110.348 21.086 102.715 21.0284L102.6 21.0271C91.456 21.0271 82.7693 33.6742 74.4574 59.6918C73.6964 62.075 72.869 64.8269 72.1581 67.2063L70.9922 71.1203L71.3382 67.0521C72.1105 57.988 72.6408 49.1709 72.9141 40.8415C73.3278 28.2671 71.6278 20.1746 67.7176 16.1027C65.6077 13.9062 62.817 12.8243 59.1813 12.7955H59.0848C45.4473 12.7955 38.9144 35.7967 34.1579 52.0256C32.7224 56.9249 29.8916 67.9761 28.0024 75.5295L29.1219 73.7104C29.9606 64.1975 32.3915 40.3689 32.2323 27.4422C32.0605 13.5753 27.442 7.35702 17.2571 7.2793H17.1317C11.6908 7.2793 7.91718 9.98223 5.7082 12.2514C2.1628 15.8921 -0.047433 21.2127 0.0754274 25.8074C0.150648 28.6006 1.86568 31.0879 3.16449 31.0879C4.01072 31.0879 4.4796 29.9583 4.68269 29.2851C7.83318 18.8683 11.9114 13.8034 17.1468 13.8034C19.3169 13.8197 20.9316 14.4604 22.1427 15.7592C26.2309 20.1458 25.4875 31.9905 24.1385 53.4936C23.7035 60.4239 23.2108 68.277 22.7946 77.2094C22.7231 78.7427 22.6278 80.2208 22.5376 81.6286C22.1389 87.8318 21.8242 92.7337 24.1761 93.0985C27.2376 93.5762 29.231 92.3313 30.2489 89.3024C31.7609 84.8067 35.1521 72.5207 41.7138 50.0673C48.0098 28.5216 52.7662 20.6824 58.8516 20.6824C65.8822 20.6824 66.4063 32.754 65.1175 58.2275C64.8429 63.6271 64.4756 69.7438 64.1935 76.4008C64.1547 77.3373 64.1095 78.2425 64.0669 79.1163C63.7961 84.6287 63.583 88.9777 65.1563 90.6451C65.6478 91.1641 66.316 91.4211 67.1998 91.4261C70.2475 91.4261 71.1627 88.7546 72.6822 84.3253C72.9505 83.5443 73.235 82.7093 73.5522 81.8343C83.9954 53.026 91.718 28.0314 102.082 28.0314C105.191 28.0314 107.608 30.5563 107.608 35.482C107.608 46.8491 102.052 68.8136 102.052 79.9487C102.052 83.9379 103.199 87.5209 105.369 90.0371C107.596 92.6209 110.711 93.9999 114.378 94.0288H114.458C117.926 94.0288 121.54 92.3438 125.2 89.0216L125.543 88.7107L125.819 89.083C128.229 92.3225 132.119 94.0626 136.318 93.7392C142.759 93.2377 148.164 87.5034 150.174 82.0938L150.567 81.0369L150.961 82.0938C152.452 86.108 155.684 90.9435 162.591 90.3856Z" fill="#0B0B0A"/>
<path d="M186.625 32.5859C183.748 32.5859 181.424 34.8526 181.404 37.6383C181.38 40.4452 183.689 42.747 186.547 42.7696L186.589 43.187V42.7696C189.423 42.7696 191.748 40.5042 191.769 37.7185C191.791 34.9103 189.483 32.6085 186.625 32.5859Z" fill="#0B0B0A"/>
<path d="M367.522 32.5859C364.645 32.5859 362.322 34.8526 362.299 37.6383C362.277 40.4452 364.585 42.747 367.444 42.7696L367.484 43.187V42.7696C370.322 42.7696 372.646 40.5042 372.667 37.7185C372.687 34.9103 370.38 32.6085 367.522 32.5859Z" fill="#0B0B0A"/>
<path d="M508.394 92.8531C506.722 92.8531 505.374 91.5066 505.374 89.8342C505.374 88.1618 506.722 86.8128 508.394 86.8128C510.065 86.8128 511.416 88.1618 511.416 89.8342C511.416 91.5066 510.065 92.8531 508.394 92.8531ZM508.394 86.2988C506.447 86.2988 504.861 87.886 504.861 89.8342C504.861 91.7812 506.447 93.3658 508.394 93.3658C510.342 93.3658 511.93 91.7812 511.93 89.8342C511.93 87.886 510.342 86.2988 508.394 86.2988Z" fill="#0B0C0A"/>
<path d="M508.281 89.6136H507.626V88.2383H508.536C508.973 88.2383 509.448 88.39 509.448 88.9115C509.448 89.5872 508.842 89.6136 508.281 89.6136ZM509.96 88.9115C509.96 88.1819 509.601 87.7832 508.679 87.7832H507.112V91.8551H507.626V90.0724H508.356L509.573 91.8551H510.152L508.936 90.0724C509.487 89.9771 509.96 89.6637 509.96 88.9115Z" fill="#0B0C0A"/>
</g>
<defs>
<clipPath id="clip0_1_6813">
<rect width="512" height="126" fill="white"/>
</clipPath>
</defs>
</svg>
