<svg width="256" height="291" viewBox="0 0 256 291" fill="none" xmlns="http://www.w3.org/2000/svg">
<g clip-path="url(#clip0_1_6771)">
<path d="M243.813 261.513C243.354 261.817 242.879 261.968 242.385 261.968C241.655 261.968 241.021 261.706 240.488 261.185C239.953 260.661 239.685 259.974 239.685 259.126C239.685 258.333 239.916 257.657 240.377 257.1C240.836 256.541 241.468 256.263 242.268 256.263C242.778 256.263 243.22 256.368 243.594 256.578C244.205 256.919 244.584 257.516 244.732 258.368L243.503 258.349C243.429 257.952 243.273 257.688 243.033 257.552C242.832 257.424 242.611 257.361 242.373 257.361C242.011 257.361 241.714 257.511 241.484 257.807C241.253 258.105 241.138 258.555 241.138 259.155C241.138 259.751 241.264 260.183 241.52 260.453C241.775 260.722 242.081 260.857 242.437 260.857C242.764 260.857 243.012 260.768 243.18 260.59C243.347 260.412 243.456 260.186 243.503 259.916H244.698C244.568 260.676 244.274 261.21 243.813 261.513ZM239.438 256.322C238.67 257.107 238.287 258.037 238.287 259.112C238.287 260.229 238.677 261.177 239.458 261.954C240.235 262.736 241.171 263.125 242.268 263.125C243.363 263.125 244.297 262.733 245.071 261.948C245.847 261.161 246.234 260.215 246.234 259.112C246.234 258.042 245.849 257.111 245.077 256.322C244.299 255.521 243.363 255.12 242.268 255.12C241.162 255.12 240.219 255.521 239.438 256.322ZM245.639 262.569C244.703 263.476 243.578 263.928 242.268 263.928C240.914 263.928 239.771 263.464 238.845 262.536C237.915 261.609 237.451 260.468 237.451 259.112C237.451 257.706 237.954 256.536 238.954 255.604C239.895 254.732 241.001 254.297 242.268 254.297C243.597 254.297 244.732 254.766 245.672 255.709C246.613 256.649 247.085 257.784 247.085 259.112C247.085 260.48 246.603 261.632 245.639 262.569Z" fill="#59473D"/>
<path d="M255.934 210.868C255.915 210.385 255.873 209.924 255.819 209.491C255.784 209.203 255.73 208.918 255.658 208.64C255.539 207.998 255.391 207.359 255.175 206.753L255.171 206.742C254.727 205.481 254.04 204.272 253.157 203.253C252.278 202.236 251.225 201.43 250.172 200.872L250.137 200.853C249.014 200.264 247.91 199.936 246.909 199.745C246.614 199.691 246.34 199.663 246.066 199.633C247.346 194.149 245.744 189.963 244.709 188.005C244.789 187.927 244.873 187.851 244.95 187.776C246.316 186.457 247.477 185.194 248.455 183.926L248.639 183.672C249.426 182.544 249.944 181.389 250.275 180.328C250.559 179.417 250.698 178.593 250.78 177.841L250.789 177.842L250.797 177.796L250.802 177.689L250.834 177.457H250.815L250.829 177.197H250.836L250.839 177.041C250.845 176.887 250.849 176.729 250.849 176.56C250.857 176.249 250.855 175.927 250.839 175.573C250.764 173.876 250.457 171.668 249.342 169.277C248.784 168.086 248.015 166.861 246.99 165.726C245.97 164.594 244.697 163.562 243.235 162.746L243.243 162.749C243.137 162.69 243.053 162.632 242.955 162.575C239.918 158.104 236.449 154.637 233.373 152.007C231.777 150.644 230.288 149.506 229.019 148.577C227.762 147.654 226.702 146.924 226.112 146.487L226.118 146.491C224.765 145.498 223.759 144.901 223.277 144.63C222.169 143.956 221.345 143.418 220.847 143.043C220.459 142.749 220.269 142.561 220.198 142.483L220.161 142.434C220.154 142.424 220.112 142.341 220.053 142.041C219.991 141.742 219.924 141.232 219.895 140.493C219.843 139.332 219.883 137.632 220.011 135.388C220.213 131.779 220.624 126.798 221.048 120.047C221.188 117.901 221.209 115.879 221.13 113.973C221.003 110.916 220.608 108.148 219.969 105.638L219.967 105.625C219.826 105.054 219.663 104.493 219.492 103.941L219.489 103.936L219.486 103.929C219.357 103.517 219.244 103.207 219.174 103.008L219.179 103.019C219.05 102.652 218.916 102.289 218.769 101.92L218.764 101.904C218.691 101.725 218.599 101.493 218.477 101.205L218.474 101.198L218.472 101.194C218.24 100.65 217.978 100.066 217.644 99.4358L217.555 99.2679L217.389 98.97L217.27 98.7702C216.655 97.7575 216.004 96.8339 215.323 95.9742C214.981 94.4216 214.384 92.1257 213.394 89.5159C212.515 87.2188 211.337 84.6706 209.662 82.1567C209.081 81.2913 208.42 80.4328 207.696 79.5925L207.937 79.3425C208.275 78.9886 216.321 70.562 222.622 59.6271C234.364 39.245 230.455 26.7838 225.111 19.9201L224.959 19.7283L224.798 19.5479C219.645 13.8202 212.637 10.369 203.967 9.29237C186.012 7.05928 165.708 15.8695 160.384 18.3754L150.706 7.68491L150.67 7.64495C149.814 6.70422 148.864 5.86396 147.845 5.12644C146.82 4.38665 145.722 3.7496 144.57 3.2153C142.257 2.14214 139.72 1.47084 137.019 1.13519C131.603 0.468459 125.523 1.11578 118.909 2.81115C108.997 5.36847 97.8646 10.3199 86.2288 17.3C74.5987 24.2824 62.4788 33.3015 50.7117 44.0343C36.3325 57.1486 24.4546 71.0141 15.8008 84.174C11.4773 90.7557 7.95643 97.1616 5.33974 103.238C2.72876 109.317 1.0117 115.064 0.349532 120.382C-0.129966 124.248 -0.0534746 127.9 0.722856 131.266C1.06079 132.739 1.54714 134.154 2.17163 135.494C2.97193 137.217 4.00742 138.814 5.29521 140.227L5.32718 140.262L16.5874 152.055L16.5223 152.167C16.4002 152.38 16.286 152.596 16.1661 152.812C15.9926 153.132 15.8179 153.451 15.6512 153.774C15.5394 153.996 15.4298 154.216 15.3236 154.439C15.1626 154.769 15.0062 155.096 14.8532 155.431C14.7505 155.655 14.6523 155.88 14.5552 156.107C14.4068 156.445 14.2641 156.786 14.1283 157.131C14.0381 157.357 13.9502 157.584 13.86 157.812C13.7287 158.161 13.6042 158.517 13.4787 158.87C13.401 159.099 13.3211 159.329 13.2469 159.559C13.1293 159.92 13.0208 160.283 12.9124 160.649C12.8816 160.751 12.8485 160.849 12.8188 160.951C12.7822 161.08 12.748 161.211 12.7126 161.34C12.6076 161.715 12.5162 162.094 12.4238 162.473C12.369 162.699 12.3096 162.926 12.2571 163.157C12.2217 163.323 12.1863 163.488 12.152 163.655C12.1029 163.889 12.0607 164.124 12.0139 164.36C11.9739 164.572 11.9271 164.786 11.8906 164.999C11.8073 165.475 11.7376 165.959 11.6703 166.44C11.6531 166.583 11.6257 166.721 11.6086 166.865L11.604 166.905L11.5926 167.034C11.555 167.348 11.5276 167.664 11.4944 167.983C11.4476 168.48 11.4077 168.979 11.3814 169.482C11.3654 169.702 11.3552 169.927 11.3449 170.15C11.338 170.323 11.3255 170.493 11.3186 170.668C11.3095 171.018 11.3141 171.372 11.3118 171.729C11.3118 171.94 11.3095 172.153 11.3118 172.369C11.3141 172.496 11.3095 172.622 11.3118 172.75V172.822C11.3186 173.05 11.3278 173.28 11.3335 173.506C11.3449 173.757 11.3677 174.002 11.3837 174.25C11.394 174.435 11.3985 174.62 11.41 174.803C11.4259 174.966 11.4339 175.089 11.4454 175.195C11.4659 175.428 11.4876 175.665 11.5127 175.896C11.5367 176.165 11.5664 176.45 11.6063 176.777L11.6086 176.804V176.799C11.6257 176.927 11.6394 177.012 11.6531 177.112C11.6885 177.376 11.7308 177.642 11.7707 177.905C11.8027 178.141 11.8449 178.406 11.8986 178.737C11.9248 178.868 11.9454 178.979 11.9648 179.077C11.9945 179.237 12.0276 179.396 12.0584 179.552L12.0607 179.564L12.0653 179.586L12.1075 179.788C12.1475 180.006 12.2034 180.28 12.2868 180.655C12.3096 180.755 12.3267 180.823 12.3461 180.907C12.4066 181.146 12.4512 181.324 12.4843 181.451L12.5425 181.693C12.563 181.771 12.5824 181.844 12.6098 181.957L12.6681 182.18L12.7183 182.366L12.7617 182.535C12.7857 182.62 12.8039 182.678 12.8268 182.754L12.8884 182.984C12.9421 183.163 13.0014 183.339 13.0551 183.518C13.1202 183.726 13.2024 184.003 13.3234 184.374L13.3028 184.314L13.3257 184.383C13.3542 184.473 13.377 184.531 13.4033 184.605C13.5106 184.913 13.5974 185.15 13.6396 185.272L13.6465 185.285V185.288C13.7173 185.49 13.8223 185.785 13.9696 186.17L13.9719 186.176L13.9844 186.211L13.9787 186.194L14.0438 186.353C14.1374 186.59 14.2116 186.774 14.2732 186.915L14.3463 187.095L14.3577 187.123C14.3954 187.215 14.4468 187.338 14.5073 187.481C14.5632 187.614 14.6294 187.771 14.7082 187.95L14.7014 187.935L14.7813 188.108C14.8555 188.272 14.924 188.427 14.9868 188.553C15.0462 188.675 15.0975 188.785 15.1398 188.874L15.1341 188.859L15.1421 188.878C15.2368 189.076 15.351 189.329 15.5108 189.644L15.5234 189.674L15.5325 189.69L15.5999 189.822C15.6684 189.951 15.7334 190.078 15.7917 190.188C15.8739 190.344 15.9492 190.478 16.0074 190.591L16.0189 190.616C16.1056 190.773 16.2266 191.005 16.391 191.302L16.4025 191.321L16.4139 191.344L16.4824 191.458C16.5497 191.578 16.6148 191.692 16.6764 191.795C16.7815 191.973 16.8797 192.132 16.9562 192.265L16.9801 192.302L16.9847 192.313C17.0646 192.442 17.1868 192.648 17.3592 192.924L17.3751 192.95L17.4242 193.03C17.5087 193.163 17.5909 193.291 17.6663 193.406C17.7896 193.589 17.8992 193.754 17.9928 193.896L17.9768 193.872C18.0796 194.024 18.22 194.239 18.4118 194.511L18.4266 194.534L18.4358 194.551L18.4186 194.523L18.438 194.552L18.454 194.574L18.4495 194.571L18.4563 194.58L18.4586 194.582C18.5499 194.711 18.6413 194.838 18.7326 194.966C18.8593 195.142 18.9803 195.306 19.0876 195.45L19.0808 195.439C19.1835 195.579 19.3125 195.753 19.4678 195.959L19.5021 196.003C19.6197 196.156 19.7315 196.298 19.8411 196.437C19.9838 196.615 20.1197 196.782 20.2464 196.937L20.2887 196.991C20.3754 197.096 20.4759 197.22 20.6118 197.38L20.6723 197.452L20.67 197.453L20.6905 197.478L20.7259 197.516C20.9291 197.755 21.1118 197.959 21.2945 198.163L21.4886 198.386L21.4908 198.389L21.4988 198.397L21.5137 198.412L21.5091 198.409C21.6004 198.509 21.7112 198.636 21.8493 198.782L21.8927 198.831L21.8938 198.835L21.9007 198.84L21.9281 198.868L21.9212 198.861C22.1416 199.099 22.3574 199.319 22.5743 199.539C22.6633 199.629 22.7524 199.729 22.8426 199.816L22.8528 199.827C22.8997 199.871 23.0047 199.981 23.1748 200.151L23.2079 200.181L23.3049 200.282C23.5664 200.538 23.8392 200.785 24.1087 201.033L24.1715 201.095L24.1886 201.109L24.1954 201.116L24.2046 201.125C24.2742 201.186 24.385 201.289 24.5459 201.434L24.5631 201.452C24.909 201.758 25.2572 202.056 25.6031 202.344L25.6225 202.361L25.8189 202.523L25.9525 202.632L25.9479 202.627L26.1488 202.786C26.4411 203.02 26.7288 203.247 27.0051 203.458L27.0827 203.52L27.1192 203.546C27.2254 203.625 27.303 203.682 27.3464 203.716L27.4001 203.759L27.4423 203.787C27.5222 203.845 27.6022 203.901 27.6855 203.961C27.931 204.138 28.1753 204.311 28.423 204.481L28.6308 204.627L28.6548 204.645L28.9116 204.819L28.9231 204.824L29.0544 204.908C29.3044 205.077 29.5715 205.243 29.8364 205.413C29.9757 205.502 30.1024 205.586 30.2474 205.674L30.4723 205.811L30.599 205.886L30.6824 205.935C31.0945 206.182 31.4827 206.406 31.8366 206.601L31.8708 206.618L32.0912 206.738L32.1072 206.75C32.5969 207.011 33.0639 207.251 33.5046 207.47L33.581 207.507L33.8219 207.622L33.8242 207.62C34.0628 207.735 34.2946 207.835 34.5309 207.942C34.6405 207.993 34.7535 208.044 34.8654 208.094C34.999 208.154 35.1394 208.225 35.273 208.282L35.3872 208.331L35.4203 208.345L35.4739 208.369C35.7034 208.466 35.9283 208.548 36.1544 208.64L36.2697 208.684C36.5243 208.786 36.7788 208.894 37.0323 208.99L37.0928 209.011L37.28 209.079C37.3988 209.121 37.5209 209.159 37.6408 209.202L37.7527 209.24C38.1157 209.37 38.4799 209.501 38.8498 209.619L38.9366 209.646L38.9686 209.656L38.9811 209.663C39.5497 209.84 40.1182 210.004 40.6845 210.156L40.7073 210.162L40.8032 210.186L40.7701 210.179C41.2713 210.311 41.7645 210.424 42.2531 210.533H42.2588L42.4403 210.581L42.6299 210.621C43.0957 210.723 43.5706 210.805 44.049 210.888L44.1837 210.925L44.5205 210.976C44.8082 211.023 45.0959 211.061 45.3836 211.1C45.4281 211.219 45.4703 211.336 45.508 211.437L45.5126 211.453C46.2992 213.601 47.152 215.737 48.0676 217.856C61.5735 255.23 98.9081 284.204 141.51 289.5C184.115 294.797 229.592 266.48 248.12 228.215C248.918 226.752 249.648 225.315 250.312 223.924C252.149 222.032 253.576 220.071 254.524 217.991C255.658 215.546 256.04 212.973 255.934 210.868Z" fill="#59473D"/>
<path d="M218.468 101.184L218.472 101.194L218.474 101.197L218.468 101.184Z" fill="#59473D"/>
<path d="M30.4745 205.813L30.4723 205.811H30.47L30.4745 205.813Z" fill="#59473D"/>
<path d="M18.4094 194.51L18.4117 194.514V194.511L18.4094 194.51Z" fill="#59473D"/>
<path d="M18.4164 194.521L18.4187 194.522L18.4119 194.514L18.4164 194.521Z" fill="#59473D"/>
<path d="M12.7664 182.552L12.7618 182.535L12.7595 182.531L12.7664 182.552Z" fill="#59473D"/>
<path d="M12.2878 180.661L12.2867 180.655L12.2844 180.652L12.2878 180.661Z" fill="#59473D"/>
<path d="M19.5078 196.01L19.5215 196.027L19.5021 196.003L19.4907 195.988L19.5078 196.01Z" fill="#59473D"/>
<path d="M219.494 24.087C217.431 21.7934 215.045 20.0649 212.452 18.7851C211.974 18.6081 211.493 18.4323 211 18.2896C210.759 18.1298 210.514 17.9791 210.265 17.8318C207.972 16.9539 205.546 16.3808 203.051 16.06C190.673 14.4673 176.581 18.9735 168.522 22.1736C168.08 22.3585 167.635 22.5423 167.184 22.7341C166.507 23.023 165.824 23.3175 165.133 23.6223C163.972 24.1338 162.797 24.6692 161.595 25.2286C161.42 25.3086 161.246 25.3919 161.073 25.4741L157.898 21.7854L156.988 20.7271L156.595 20.2681L148.288 10.6234L147.567 9.78538L146.674 8.74989L146.515 8.78528L144.166 9.3173L141.452 9.93151C139.952 9.2351 138.17 8.73847 136.107 8.4816C131.975 7.961 126.729 8.43936 120.753 9.98403C114.776 11.5184 108.075 14.0986 100.968 17.6377C86.7529 24.7115 70.9283 35.6132 55.7008 49.505C50.3875 54.3502 45.4327 59.3004 40.8774 64.2655C36.4524 69.0822 32.4063 73.9149 28.7758 78.6802C21.403 88.3569 15.7517 97.7688 12.1429 106.165C9.73289 111.759 8.24188 116.898 7.69731 121.297C7.29544 124.495 7.40048 127.292 7.93592 129.603C8.10945 130.351 8.33892 131.03 8.59808 131.68C9.13694 133.045 9.84477 134.222 10.7592 135.23L19.9725 144.882L20.96 145.915L21.0251 145.845C21.3059 145.52 21.5936 145.196 21.8859 144.878L21.9635 144.794C22.0697 144.68 22.1804 144.572 22.2866 144.463C22.5629 144.174 22.8426 143.885 23.128 143.603C23.305 143.428 23.4842 143.261 23.6646 143.09C23.8404 142.925 24.0105 142.754 24.1886 142.59C24.2697 142.517 24.3519 142.45 24.4341 142.377C24.6213 142.207 24.8154 142.04 25.0095 141.872C25.2789 141.639 25.5495 141.409 25.8281 141.182C25.9902 141.049 26.1534 140.918 26.3178 140.787L26.3897 140.731C26.682 140.501 26.9788 140.276 27.2745 140.055C27.4618 139.914 27.6501 139.777 27.8397 139.64C28.1468 139.422 28.4607 139.205 28.7758 138.993C28.9653 138.866 29.1526 138.74 29.3444 138.615C29.6675 138.405 29.9974 138.201 30.3273 138C30.5203 137.883 30.7064 137.767 30.8982 137.656C31.2441 137.453 31.5946 137.261 31.9439 137.069C32.1312 136.969 32.315 136.864 32.5022 136.766L32.7123 136.655L32.7442 136.637C33.0411 136.484 33.3448 136.342 33.6462 136.197C33.8151 136.116 33.9772 136.032 34.1496 135.953C34.4019 135.833 34.66 135.723 34.9168 135.611C35.1395 135.514 35.3598 135.415 35.5858 135.321L35.8347 135.212C36.4033 134.98 36.9764 134.761 37.5564 134.555C37.739 134.489 37.9285 134.433 38.1135 134.369C38.3121 134.303 38.5108 134.236 38.714 134.172L38.948 134.092C39.0679 134.055 39.1889 134.014 39.3065 133.979C39.5543 133.906 39.8043 133.841 40.0509 133.769L40.2347 133.719C40.5224 133.638 40.8078 133.558 41.0978 133.485C41.3672 133.415 41.6389 133.357 41.9118 133.294C42.2486 133.216 42.5854 133.14 42.9233 133.07C43.0649 133.043 43.2053 133.012 43.3469 132.984C43.4884 132.958 43.6346 132.938 43.7773 132.911C44.1095 132.852 44.444 132.795 44.7774 132.744C45.0731 132.699 45.3676 132.66 45.6622 132.619C45.9008 132.589 46.1348 132.556 46.3723 132.53C46.4693 132.52 46.5652 132.512 46.6611 132.504C46.7707 132.491 46.8746 132.475 46.9842 132.466L47.1623 132.456C48.3439 132.409 49.6351 132.418 51.0497 132.523L51.2654 132.537C52.6925 132.655 54.236 132.881 55.8572 133.224C56.2442 133.308 56.6301 133.387 57.0297 133.485C57.1119 133.333 57.1964 133.176 57.2797 133.024C58.1382 131.484 59.0059 129.983 59.8838 128.508C65.0145 119.907 70.5173 112.388 76.1343 105.832C78.05 103.594 79.9828 101.462 81.9157 99.4413C89.9724 91.0284 98.0759 84.4764 105.485 79.4177C107.132 78.2943 108.744 77.2439 110.313 76.2621C112.452 74.9275 114.51 73.7208 116.468 72.6362C118.063 71.7525 119.592 70.9488 121.043 70.2193C123.462 69.0023 125.665 67.993 127.603 67.1631C128.203 66.9062 128.78 66.6653 129.324 66.4438C130.17 66.099 130.952 65.7931 131.661 65.5271C131.051 65.4631 130.431 65.414 129.797 65.3809C129.207 65.3501 128.606 65.3387 128 65.3375C127.847 65.3364 127.696 65.3387 127.543 65.3387C126.931 65.3467 126.314 65.3615 125.688 65.4003C124.501 65.4711 123.288 65.5956 122.046 65.7908C121.632 65.8559 121.215 65.9289 120.794 66.0123C123.877 64.4162 126.92 63.2175 129.855 62.3167C131.806 61.7173 133.713 61.247 135.543 60.8896C138.067 60.4021 140.453 60.119 142.654 59.9751C144.131 59.8804 145.52 59.8461 146.807 59.8576C148.101 59.8701 149.292 59.9261 150.363 60.006C154.104 60.2868 156.359 60.8588 156.359 60.8588C155.828 60.111 155.159 59.4591 154.432 58.8906C153.107 57.8642 151.582 57.129 150.244 56.6084C149.718 56.404 149.217 56.2259 148.776 56.0878C148.425 55.9782 148.099 55.8834 147.83 55.8104C148.461 55.7019 149.083 55.6106 149.697 55.5284C150.349 55.4405 150.994 55.3651 151.627 55.3046C157.019 54.8 161.734 55.2646 165.276 55.9222C169.549 56.7123 172.121 57.7866 172.121 57.7866C171.512 56.5993 170.609 55.5855 169.622 54.7304C168.901 54.1093 168.141 53.5693 167.414 53.1217C168.845 53.4528 170.206 53.8216 171.5 54.2166C174.915 55.2601 177.821 56.4737 180.107 57.5754C180.846 57.9327 181.523 58.2764 182.131 58.6017C182.304 58.6942 182.463 58.781 182.624 58.87C184.716 60.0117 185.872 60.8314 185.872 60.8314C185.523 59.6007 184.813 58.4385 183.984 57.395C183.776 57.1335 183.565 56.8744 183.348 56.6301L183.448 56.6757C183.525 56.7009 183.689 56.7522 183.917 56.8299C184.084 56.8858 184.285 56.9555 184.526 57.0422C185.436 57.3733 186.828 57.9293 188.464 58.7422C188.541 58.7798 188.622 58.8209 188.702 58.8609C188.924 58.9751 189.151 59.0904 189.378 59.2114C189.94 59.5071 190.52 59.8359 191.112 60.1886C191.664 60.5174 192.228 60.8702 192.794 61.2515C193.086 61.4479 193.377 61.65 193.67 61.86C194.294 62.3076 194.914 62.7882 195.529 63.302C196.158 63.8283 196.778 64.3911 197.379 64.9882C197.496 65.1069 197.617 65.2234 197.735 65.3467C198.173 65.7965 198.596 66.2703 199.003 66.7623C199.78 67.6894 200.498 68.6906 201.136 69.7683C201.9 71.0607 202.552 72.4558 203.038 73.9742C203.064 74.0598 203.087 74.1489 203.111 74.2345C203.464 73.8555 204.086 73.1739 204.896 72.2446C211.621 64.5133 231.426 39.407 219.494 24.087Z" fill="#141C26"/>
<path d="M249.088 211.658L249.092 211.657C249.092 211.657 249.325 209.919 248.405 208.364L248.385 208.321C248.331 208.228 248.274 208.144 248.216 208.061L248.155 207.971C248.055 207.835 247.933 207.705 247.807 207.574C247.582 207.337 247.32 207.116 247.007 206.918C246.845 206.811 246.668 206.713 246.478 206.619C245.957 206.37 245.332 206.181 244.59 206.072C244.048 205.994 243.428 205.971 242.753 205.991C242.48 206 242.211 206.006 241.916 206.033L241.783 206.041C241.783 206.041 241.803 206.113 241.832 206.221C241.863 206.334 241.905 206.497 241.963 206.713C241.984 206.797 242.005 206.885 242.03 206.982C242.126 207.367 242.242 207.856 242.359 208.408C242.358 208.413 242.325 208.52 242.238 208.722L242.193 208.829C241.855 209.615 240.936 211.429 238.889 213.789C238.54 214.19 238.155 214.61 237.74 215.041C232.029 220.941 219.671 229.343 193.67 234.043C184.847 235.287 176.713 235.356 169.764 234.492C159.491 233.214 151.792 229.932 148.211 225.518C147.9 225.139 147.616 224.749 147.346 224.355C147.146 224.064 146.953 223.769 146.775 223.471C146.711 223.362 146.653 223.25 146.59 223.14C145.051 220.42 144.381 217.454 144.418 214.581C144.467 211.093 145.555 207.756 147.397 205.191C148.891 203.111 150.878 201.539 153.201 200.813C154.34 200.458 155.559 200.298 156.838 200.385C157.096 200.403 157.438 200.439 157.864 200.492C158.718 200.599 159.911 200.767 161.374 200.955C161.539 200.976 161.691 200.995 161.862 201.017C166.741 201.623 174.511 202.356 183.908 201.783C201.004 200.742 223.505 195.362 243.937 176.938L243.993 176.866V176.834C244.061 175.291 243.855 172.504 241.905 170.336C241.565 169.957 241.167 169.598 240.715 169.266C240.456 169.077 240.188 168.895 239.889 168.726C239.588 168.56 239.314 168.392 239.05 168.223C238.688 167.996 238.346 167.77 238.044 167.545L237.999 167.48C237.861 167.264 237.714 167.054 237.573 166.838C232.273 158.811 224.972 154.152 222.06 152.017C220.687 151.008 219.813 150.548 219.813 150.548C213.508 146.707 212.584 145.433 213.173 135.003C213.384 131.247 213.79 126.31 214.209 119.618C214.265 118.747 214.291 117.92 214.306 117.107C214.31 116.913 214.314 116.724 214.314 116.533C214.32 115.765 214.312 115.014 214.282 114.294L214.275 114.087L214.258 113.866C214.226 113.3 214.186 112.749 214.14 112.214C214.118 111.979 214.095 111.742 214.071 111.511C214.008 110.939 213.936 110.383 213.847 109.846C213.803 109.572 213.749 109.308 213.699 109.041C213.643 108.741 213.583 108.448 213.52 108.16C213.458 107.877 213.395 107.591 213.326 107.318L213.323 107.317L213.326 107.314V107.317C213.241 106.981 213.143 106.662 213.05 106.344C213.016 106.227 212.989 106.106 212.951 105.993C212.916 105.886 212.878 105.788 212.844 105.68L212.808 105.574L212.701 105.268L212.698 105.248C212.61 105.001 212.518 104.761 212.429 104.527L212.401 104.449L212.31 104.228L212.2 103.955L212.175 103.903V103.896C211.985 103.454 211.788 103.025 211.578 102.623L211.411 102.326C211.172 101.932 210.927 101.562 210.677 101.205L210.577 101.055L210.452 100.89C210.273 100.644 210.092 100.403 209.912 100.179L209.665 99.8691C209.423 99.5826 209.183 99.3052 208.939 99.046V99.0437L208.934 99.0026L208.927 98.9524L208.913 98.8827L208.895 98.7834L208.88 98.6841L208.848 98.5231L208.833 98.4261L208.789 98.2012L208.772 98.1213C208.686 97.6931 208.565 97.1383 208.403 96.4795L208.394 96.4316C208.351 96.2729 208.309 96.1062 208.265 95.9338L208.246 95.8688C208.2 95.6895 208.15 95.508 208.097 95.3173L208.09 95.3048C207.966 94.863 207.823 94.3857 207.664 93.8925C207.615 93.7327 207.556 93.5649 207.497 93.3993C207.383 93.0523 207.265 92.7075 207.132 92.3467C207.056 92.1401 206.973 91.9346 206.891 91.7234C206.763 91.3877 206.627 91.0532 206.48 90.7096C206.387 90.4835 206.282 90.2609 206.183 90.0326C206.029 89.6924 205.869 89.3556 205.703 89.0165C205.589 88.7847 205.474 88.5553 205.352 88.3247C205.17 87.9776 204.976 87.6385 204.777 87.2972C204.648 87.0791 204.52 86.8588 204.389 86.6396C204.159 86.2731 203.911 85.9135 203.661 85.555C203.535 85.378 203.417 85.1931 203.285 85.015C203.169 84.8608 203.038 84.7181 202.917 84.5674C202.629 84.1998 202.345 83.8322 202.03 83.4863L201.992 83.4475L201.813 83.2774C201.408 82.8424 200.982 82.4177 200.524 82.0272L200.442 81.9576C200.241 81.7863 200.03 81.622 199.82 81.4621L199.798 81.4438L199.722 81.3891C199.54 81.2521 199.352 81.1208 199.162 80.9929L199.062 80.9221L199.102 80.9564C198.902 80.8079 198.538 80.6161 198.06 80.4027C197.894 80.3307 197.711 80.252 197.515 80.172C196.531 79.7782 195.201 79.3306 193.625 78.9116C193.527 78.8842 193.423 78.8603 193.327 78.8363C192.018 78.4961 190.562 78.1798 189.018 77.9344C188.499 77.8522 187.973 77.7757 187.438 77.7118C187.186 77.6798 186.927 77.6672 186.674 77.6398C186.571 77.6296 186.466 77.6216 186.363 77.6113C185.151 77.4948 183.919 77.4149 182.681 77.4263L182.608 77.4286C181.014 77.4435 179.417 77.5759 177.896 77.8773C178.254 77.2836 179.221 76.6283 180.191 76.0803C181.399 75.3965 182.61 74.8884 182.61 74.8884C181.92 74.9398 181.212 75.038 180.505 75.1521C180.278 75.1898 180.048 75.2206 179.819 75.2629C179.669 75.2903 179.522 75.32 179.375 75.3474L179.246 75.3736C179.12 75.3987 179 75.425 178.877 75.4513C175.323 76.2082 171.903 77.488 170.001 78.2643C169.731 78.3739 169.495 78.4732 169.287 78.5611L169.167 78.6114C168.978 78.6342 168.784 78.6628 168.594 78.6856L168.599 78.6799C170.001 76.0872 172.071 74.6898 173.646 73.9523C173.921 73.8233 174.184 73.7068 174.422 73.6166C174.511 73.5824 174.586 73.5595 174.666 73.5298C174.893 73.4499 175.087 73.3871 175.255 73.338C175.627 73.2296 175.869 73.1816 175.869 73.1816C175.7 73.1862 175.542 73.2079 175.377 73.217C175.236 73.2262 175.098 73.2387 174.96 73.2501C174.755 73.265 174.547 73.2764 174.345 73.2947C174.224 73.3072 174.097 73.3095 173.976 73.3221C170.046 73.7479 166.552 75.0802 163.557 76.7345C161.492 77.875 159.657 79.1651 158.114 80.4369C157.702 80.5225 157.279 80.6104 156.851 80.7018C152.555 81.6185 147.647 82.8001 142.487 84.3836C140.581 84.9682 138.64 85.6086 136.682 86.3096C135.159 86.8565 133.624 87.4524 132.085 88.078C130.983 88.5256 129.882 88.9959 128.781 89.4869C120.858 93.0237 113.051 97.7194 106.491 104.019C106.255 104.246 106.007 104.46 105.775 104.69C105.204 105.258 104.654 105.853 104.105 106.446C103.88 106.688 103.644 106.915 103.423 107.162C103.146 107.468 102.89 107.798 102.62 108.112C101.397 109.536 100.221 111.012 99.1331 112.582C98.3214 113.746 97.5565 114.955 96.8292 116.206L96.7402 116.354C95.2378 118.962 93.926 121.755 92.838 124.748C92.2946 126.246 91.8059 127.793 91.3778 129.39C91.2659 129.814 91.1552 130.239 91.0501 130.669L90.9919 130.893C90.5775 132.627 90.2453 134.43 89.977 136.285C89.9256 136.65 89.8685 137.011 89.8194 137.382C89.703 138.308 89.6116 139.252 89.534 140.209C89.4621 141.083 89.4084 141.97 89.3685 142.87L89.3593 143.077C89.3422 143.516 89.3171 143.953 89.308 144.4C89.2988 144.909 89.3023 145.428 89.3023 145.947C89.3 146.068 89.3 146.188 89.2988 146.31C89.3023 147.322 89.3194 148.343 89.3639 149.386L89.3753 149.553C89.4198 150.589 89.4929 151.646 89.5831 152.712C89.6208 153.155 89.6584 153.599 89.703 154.048C89.7144 154.156 89.7212 154.266 89.7315 154.377C89.7566 154.626 89.7875 154.878 89.8149 155.126C89.9461 156.305 90.1048 157.505 90.2898 158.722C90.3389 159.06 90.3845 159.397 90.4393 159.737C90.6106 160.802 90.7955 161.875 91.0056 162.968C91.0056 162.968 90.815 161.567 90.9337 159.506C90.9634 159.032 91.0079 158.525 91.0718 157.985C91.2191 156.815 91.4691 155.525 91.895 154.194C92 153.869 92.1176 153.541 92.2443 153.211C92.2968 153.067 92.3608 152.926 92.419 152.782C92.6713 152.172 92.9544 151.56 93.2958 150.956C93.3734 151.387 93.4556 151.815 93.5424 152.249L93.5698 152.389L93.5675 152.585C93.5652 152.853 93.5606 153.14 93.5584 153.445C93.5538 154.103 93.5538 154.845 93.5607 155.654C93.5698 156.466 93.5846 157.337 93.6143 158.261C93.7319 162.137 94.0664 166.815 94.9032 170.801C94.9032 170.801 95.0608 163.553 96.2881 162.733C96.2881 162.733 98.4333 176.155 100.424 181.222C100.682 181.878 100.939 182.401 101.187 182.729L101.136 181.398L100.852 173.938C100.852 173.938 100.865 173.659 100.892 173.171C102.385 176.227 104.083 179.369 106 182.596C106.533 183.489 107.076 184.386 107.641 185.293C103.952 188.536 100.542 193.125 98.0942 198.613C97.7037 199.489 97.3361 200.389 96.9971 201.309C96.8053 201.833 96.6226 202.369 96.4479 202.908C96.392 203.077 96.3395 203.247 96.2881 203.418C96.1705 203.797 96.0552 204.176 95.9467 204.562C95.8908 204.758 95.8383 204.955 95.7858 205.153C95.683 205.537 95.5848 205.924 95.4935 206.315C95.449 206.498 95.4022 206.68 95.3645 206.863C95.2378 207.423 95.119 207.985 95.014 208.554L95.006 208.607C94.9032 209.178 94.8119 209.754 94.7309 210.334C94.7046 210.521 94.6818 210.71 94.6601 210.896C94.6064 211.31 94.5596 211.726 94.5196 212.143C94.4968 212.355 94.4797 212.566 94.4614 212.78C94.426 213.2 94.3986 213.626 94.3769 214.049C94.3655 214.241 94.3541 214.433 94.3473 214.626C94.3221 215.238 94.3073 215.855 94.3096 216.477L94.3119 216.557C94.3119 217.036 94.3256 217.513 94.3438 217.994C94.3632 218.479 94.3929 218.964 94.4283 219.453L94.4409 219.649L94.4477 219.771C94.4945 220.364 94.5573 220.957 94.6304 221.556C94.6532 221.745 94.6863 221.935 94.7114 222.125C94.7674 222.534 94.8222 222.944 94.893 223.357C94.9295 223.584 94.974 223.816 95.014 224.044C95.0848 224.422 95.1544 224.798 95.2355 225.177C95.2868 225.42 95.3428 225.663 95.3953 225.908C95.4809 226.275 95.5677 226.646 95.6636 227.016C95.7252 227.263 95.7903 227.512 95.86 227.76C95.9627 228.132 96.0666 228.504 96.1808 228.877C96.2538 229.121 96.328 229.368 96.4057 229.613C96.5301 229.999 96.6626 230.387 96.7961 230.773C96.8783 231.005 96.9548 231.237 97.0404 231.469C97.1968 231.897 97.3647 232.325 97.5382 232.754C97.6147 232.946 97.6855 233.137 97.7665 233.329C98.2837 234.573 98.8637 235.821 99.5099 237.07C99.608 237.253 99.7131 237.439 99.809 237.626C100.043 238.063 100.282 238.501 100.531 238.938C100.662 239.167 100.799 239.395 100.937 239.626C101.171 240.02 101.407 240.417 101.657 240.812C101.809 241.056 101.969 241.302 102.128 241.547C102.375 241.926 102.629 242.308 102.888 242.685C103.062 242.939 103.236 243.189 103.413 243.44C103.679 243.818 103.955 244.196 104.24 244.571C104.424 244.82 104.607 245.068 104.797 245.316C105.097 245.703 105.403 246.089 105.719 246.473C105.907 246.71 106.095 246.946 106.289 247.18C106.641 247.6 107.007 248.022 107.377 248.439C107.551 248.638 107.715 248.836 107.892 249.033C108.447 249.648 109.015 250.264 109.609 250.876L109.607 250.872C109.603 250.867 109.261 250.373 108.795 249.508L108.778 249.479C108.692 249.318 108.601 249.14 108.507 248.952L108.478 248.899C108.379 248.703 108.28 248.492 108.177 248.27L108.157 248.232C108.049 247.996 107.939 247.745 107.829 247.482C106.955 245.38 106.105 242.463 106.215 239.208C106.553 239.661 106.898 240.097 107.24 240.543C107.638 241.353 108.145 242.359 108.737 243.489C108.935 243.865 109.142 244.255 109.357 244.657C110.226 246.259 111.232 248.039 112.328 249.817C113.647 251.952 115.096 254.089 116.593 255.934L116.59 255.932C116.583 255.92 114.848 252.297 114.267 249.92C114.104 249.252 114.026 248.678 114.111 248.317C114.251 248.46 114.39 248.605 114.531 248.749C114.67 248.894 114.81 249.035 114.952 249.18C115.228 249.548 115.578 250.011 115.969 250.526L116.167 250.786C116.361 251.041 116.561 251.306 116.778 251.587L116.789 251.603C117.038 251.927 117.299 252.264 117.569 252.613C120.011 255.752 123.26 259.764 125.576 261.967C126.349 262.702 127.017 263.236 127.518 263.468L124.175 257.479C131.741 263.636 162.961 271.541 193.718 262.717C197.429 261.655 201.138 260.342 204.792 258.752C207 257.798 209.185 256.748 211.348 255.585L211.662 255.41C213.176 254.583 214.677 253.694 216.167 252.757L216.2 252.737C217.319 252.032 218.428 251.295 219.525 250.53C221.362 249.235 223.182 247.872 224.955 246.39L224.959 246.388L224.966 246.382C225.068 246.292 225.173 246.204 225.28 246.114C227.037 244.578 228.682 242.999 230.21 241.392C232.228 239.268 234.041 237.099 235.682 234.923L235.803 234.767C236.203 234.23 236.596 233.696 236.977 233.167L237.085 233.012C237.209 232.831 237.319 232.658 237.442 232.479C237.972 231.716 238.496 230.953 238.987 230.194C239.104 230.013 239.225 229.828 239.343 229.645C239.598 229.243 239.843 228.842 240.088 228.445C240.273 228.134 240.463 227.823 240.642 227.515C240.842 227.179 241.043 226.843 241.237 226.509C241.581 225.903 241.916 225.301 242.238 224.703C242.365 224.466 242.485 224.235 242.608 224.001C242.854 223.535 243.094 223.075 243.322 222.62C243.428 222.407 243.535 222.195 243.638 221.984L243.732 221.784C244.017 221.21 244.289 220.639 244.552 220.078L244.601 219.958C245.591 219.035 246.361 218.157 246.978 217.317C247.067 217.198 247.161 217.077 247.243 216.958C248.614 214.98 249.063 213.229 249.088 211.658Z" fill="#856249"/>
<path d="M65.3536 189.423C65.3262 189.282 65.3022 189.144 65.2782 189.006L65.3022 188.997C64.9426 187.016 64.6697 184.984 64.4745 182.907C64.4619 182.759 64.4414 182.616 64.4254 182.469C64.0829 182.576 63.697 183.029 63.3088 183.648C63.1638 183.88 63.0211 184.133 62.8784 184.4C61.8395 186.353 60.9034 189.061 60.9034 189.061C60.9764 188.157 61.0757 187.218 61.1865 186.275C61.199 186.166 61.215 186.058 61.2287 185.947C61.344 184.987 61.4776 184.019 61.6203 183.057C61.6363 182.94 61.6546 182.825 61.6717 182.711C61.8384 181.626 62.0142 180.549 62.1969 179.508C62.2208 179.373 62.2425 179.241 62.2676 179.108L62.2813 179.039C62.303 178.919 62.3236 178.797 62.3453 178.677C62.3761 178.498 62.4081 178.319 62.4412 178.142C62.5907 177.318 62.7449 176.521 62.8944 175.765C63.0303 175.082 63.1616 174.436 63.2883 173.828L63.3282 173.631C63.3465 173.535 63.3671 173.449 63.3865 173.357C63.4059 173.268 63.4241 173.176 63.4424 173.083L63.4493 173.051C63.4824 172.899 63.5166 172.743 63.5474 172.599L63.5566 172.559C63.5851 172.416 63.6125 172.295 63.6411 172.162C63.6879 171.953 63.7324 171.738 63.7758 171.543L63.7883 171.488C63.8237 171.33 63.8568 171.169 63.8899 171.024C63.9379 170.815 63.9824 170.623 64.0201 170.441L64.0224 170.436L64.0247 170.431C64.0475 170.327 64.0692 170.237 64.0909 170.141L64.0954 170.124C64.116 170.037 64.1343 169.946 64.1537 169.869C64.1982 169.678 64.2382 169.504 64.2701 169.371L64.2987 169.252L64.3101 169.208L64.3432 169.068L64.366 168.971L64.3706 168.957L64.3546 168.97L64.1445 169.16C63.9596 169.325 63.7701 169.486 63.5965 169.668L63.4059 169.879C63.2015 170.107 63.0029 170.347 62.8179 170.601L62.7197 170.725C62.4903 171.044 62.2768 171.38 62.0736 171.721V171.722L62.0473 171.767L62.0462 171.769L61.964 171.921C61.9172 172.004 61.8726 172.09 61.8281 172.174C61.7105 172.388 61.5895 172.596 61.4845 172.811L61.4788 172.819L61.4753 172.826L61.4696 172.845L61.4285 172.926L61.3908 173.007C61.2264 173.348 61.0769 173.687 60.9365 174.022C60.5392 174.962 60.2321 175.859 60.0014 176.608C59.9215 176.874 59.8462 177.126 59.7857 177.348C59.6521 177.831 59.5585 178.209 59.5162 178.394L59.514 178.41L59.4843 178.535L59.4957 178.39C59.5117 178.102 59.5448 177.817 59.5676 177.531C59.6121 176.931 59.6498 176.328 59.716 175.732C59.7685 175.23 59.8462 174.739 59.917 174.24C59.9398 174.084 59.9638 173.928 59.9866 173.774C60.0174 173.544 60.0494 173.315 60.0871 173.087C60.1202 172.873 60.167 172.663 60.2069 172.454L60.2092 172.438V172.437L60.2537 172.203L60.2674 172.139C60.3143 171.883 60.3633 171.623 60.4124 171.367C60.4296 171.268 60.4478 171.169 60.4684 171.069L60.5038 170.892L60.5106 170.859C60.5277 170.776 60.546 170.69 60.5643 170.608C60.5848 170.503 60.6134 170.401 60.6351 170.302C60.7195 169.927 60.8109 169.558 60.8988 169.187L60.9136 169.125C60.9787 168.849 61.0392 168.571 61.11 168.3L61.1123 168.287L61.1191 168.269L61.1408 168.189C61.2858 167.629 61.4468 167.083 61.6078 166.531L61.6922 166.228C61.7231 166.126 61.7493 166.019 61.7813 165.916C62.0473 165.022 62.3316 164.139 62.6341 163.276L62.6729 163.168C62.9321 162.435 63.1947 161.713 63.4698 161.002L63.5006 160.921C63.6251 160.608 63.7529 160.308 63.8751 159.999L63.8957 159.953C64.0829 159.492 64.2678 159.028 64.4596 158.582L64.4608 158.577V158.575L64.4642 158.569L64.4859 158.513C64.5373 158.401 64.656 158.13 64.841 157.73L64.8444 157.723L64.8695 157.67V157.668C64.9414 157.511 65.0099 157.358 65.0796 157.198C65.1926 156.944 65.3068 156.692 65.4186 156.442L65.5202 156.223L65.5225 156.213L67.4713 152.711C67.5524 152.563 67.6323 152.417 67.7099 152.27L67.751 152.199L67.8504 152.018C68.0627 151.63 68.2762 151.24 68.484 150.861C68.7968 150.297 69.0971 149.758 69.3768 149.252C69.9487 148.222 70.4385 147.349 70.7365 146.823C70.9009 146.53 71.0094 146.337 71.0413 146.278L71.055 146.252H71.0527L71.0459 146.246L71.0276 146.232C70.9523 146.181 70.3609 145.773 69.387 145.183C68.2762 144.514 66.6619 143.607 64.6982 142.696C64.0692 142.402 63.407 142.112 62.7129 141.828C61.8818 141.487 61.0095 141.155 60.1019 140.851C59.8679 140.773 59.6224 140.71 59.3861 140.636C58.6257 140.396 57.846 140.182 57.048 139.991L57.0023 139.981C56.4543 139.849 55.9097 139.712 55.348 139.609C54.9073 139.525 54.4655 139.443 54.0168 139.381C53.8034 139.352 53.5819 139.335 53.3661 139.315C53.1515 139.293 52.9391 139.272 52.7256 139.25C52.1217 139.196 51.5155 139.169 50.9092 139.154C50.6147 139.147 50.3201 139.138 50.0256 139.145C48.7058 139.175 47.41 139.291 46.1371 139.473L45.9053 139.508C43.6106 139.852 41.3969 140.429 39.2894 141.225C38.5736 141.495 37.868 141.786 37.175 142.103C36.9787 142.194 36.7835 142.29 36.5882 142.386C36.3508 142.501 36.1099 142.615 35.8758 142.734C33.7843 143.811 31.8309 145.114 30.0374 146.598L29.9734 146.651C28.4253 147.935 27.004 149.357 25.7207 150.903C25.3531 151.344 24.9981 151.795 24.6556 152.255C24.2491 152.798 23.8575 153.353 23.4842 153.922C22.7821 154.996 22.1416 156.114 21.5662 157.272C21.3642 157.679 21.1655 158.089 20.9806 158.504C20.9463 158.582 20.9155 158.664 20.8824 158.743C19.6985 161.452 18.8685 164.352 18.4586 167.378C18.3776 167.972 18.3113 168.57 18.2623 169.175L18.2451 169.401C18.2097 169.88 18.1858 170.36 18.1709 170.843C18.1527 171.435 18.1492 172.031 18.1641 172.628C18.1664 172.725 18.1755 172.816 18.1778 172.911C18.1926 173.375 18.2109 173.837 18.2451 174.297L18.2714 174.539C18.2805 174.646 18.2908 174.752 18.2999 174.857C18.3308 175.222 18.365 175.582 18.4072 175.937L18.4221 176.02V176.042L18.4244 176.046C18.4495 176.225 18.4803 176.405 18.5054 176.586C18.5522 176.909 18.5968 177.234 18.6504 177.554C18.6927 177.787 18.744 178.015 18.7886 178.246C18.8491 178.544 18.9016 178.846 18.9712 179.142C19.026 179.386 19.0911 179.625 19.1516 179.862L19.1916 180.03L19.2566 180.28L19.3057 180.471L19.3662 180.702C19.4347 180.949 19.5158 181.197 19.5889 181.444C19.6688 181.704 19.7464 181.969 19.832 182.224C19.9142 182.478 20.0079 182.727 20.0992 182.978L20.1734 183.179C20.235 183.358 20.2978 183.54 20.3698 183.719C20.4679 183.972 20.5764 184.225 20.6814 184.479C20.7785 184.71 20.8732 184.943 20.9737 185.172C21.0319 185.304 21.0936 185.431 21.1541 185.557C21.2169 185.684 21.2728 185.813 21.3322 185.939C21.4349 186.159 21.5377 186.374 21.6473 186.591C21.7786 186.852 21.9167 187.109 22.0549 187.364C22.1645 187.566 22.2695 187.768 22.3802 187.968C22.5275 188.231 22.6862 188.49 22.8426 188.751C22.9533 188.933 23.0607 189.118 23.1748 189.303C23.3415 189.568 23.515 189.825 23.6909 190.084C23.8039 190.256 23.9169 190.426 24.0322 190.593C24.2172 190.857 24.409 191.117 24.6019 191.378C24.7149 191.532 24.8291 191.687 24.9444 191.837C25.1476 192.106 25.36 192.366 25.5735 192.625C25.6831 192.763 25.7949 192.902 25.9125 193.037C26.1352 193.302 26.3658 193.561 26.5998 193.82C26.7083 193.943 26.8179 194.064 26.932 194.186C27.1741 194.451 27.4241 194.71 27.6787 194.961C27.7883 195.068 27.8922 195.178 28.0018 195.285C28.2655 195.543 28.5395 195.799 28.8101 196.05C28.914 196.143 29.0167 196.236 29.1195 196.331C29.4049 196.584 29.696 196.834 29.9928 197.08C30.091 197.161 30.1846 197.243 30.2828 197.322C30.5911 197.574 30.905 197.815 31.2213 198.056C31.3115 198.121 31.4051 198.193 31.493 198.26C31.8241 198.501 32.1563 198.736 32.4942 198.967L32.7454 199.138C33.0947 199.372 33.4498 199.602 33.8083 199.821L34.0366 199.959C34.4076 200.186 34.7867 200.397 35.168 200.61L35.3644 200.719C35.7594 200.933 36.159 201.135 36.5597 201.334L36.7321 201.415C37.1465 201.616 37.5632 201.805 37.9868 201.989L38.1363 202.054C38.5702 202.236 39.0074 202.408 39.4469 202.576L39.5702 202.62C40.0246 202.786 40.4779 202.945 40.9414 203.093L41.035 203.124C41.2599 203.193 41.4905 203.254 41.7177 203.32C41.9655 203.392 42.2121 203.47 42.4621 203.537L42.5317 203.556C43.0215 203.684 43.5147 203.801 44.0125 203.907L44.0547 203.92C44.057 203.921 44.0615 203.921 44.0627 203.922C44.565 204.028 45.0731 204.124 45.5845 204.204L45.6085 204.212C47.1783 204.464 48.7857 204.606 50.4217 204.625C50.8111 204.632 51.2004 204.636 51.5908 204.632C52.1148 204.619 52.6526 204.585 53.1926 204.541C53.9289 204.481 54.6744 204.393 55.4279 204.28C56.0912 204.182 56.7511 204.066 57.411 203.928C58.4385 203.716 59.4534 203.465 60.4318 203.181C63.3671 202.328 65.9598 201.191 67.5102 200.034C67.5102 200.034 66.4907 195.518 65.6276 190.93C65.5339 190.425 65.4415 189.92 65.3536 189.423Z" fill="#856249"/>
<path d="M199.057 80.919L199.062 80.9212L199.049 80.9121L199.057 80.919Z" fill="#856249"/>
<path d="M138.63 19.7783L138.257 15.2037L140.547 10.1347L141.452 9.93151C139.952 9.2351 138.17 8.73847 136.107 8.4816C131.975 7.961 126.729 8.43936 120.753 9.98403C114.776 11.5184 108.075 14.0986 100.968 17.6377C86.7529 24.7115 70.9283 35.6132 55.7008 49.505C50.3875 54.3502 45.4327 59.3004 40.8774 64.2655C36.4524 69.0822 32.4063 73.9149 28.7758 78.6802C21.403 88.3569 15.7517 97.7688 12.1429 106.165C9.73289 111.759 8.24188 116.898 7.69731 121.297C7.29544 124.495 7.40048 127.292 7.93592 129.603C8.10945 130.351 8.33892 131.03 8.59808 131.68C9.13694 133.045 9.84477 134.222 10.7592 135.23L19.9725 144.882L20.96 145.915L21.0251 145.845C21.3059 145.52 21.5936 145.196 21.8859 144.878L21.9635 144.794C22.0697 144.68 22.1804 144.572 22.2866 144.463C22.5629 144.174 22.8426 143.885 23.128 143.603C23.305 143.428 23.4842 143.261 23.6646 143.09C23.8404 142.925 24.0105 142.754 24.1886 142.59C24.2697 142.517 24.3519 142.45 24.4341 142.377C24.6213 142.207 24.8154 142.04 25.0095 141.872C25.2789 141.639 25.5495 141.409 25.8281 141.182C25.9902 141.049 26.1534 140.918 26.3178 140.787L26.3897 140.731C26.682 140.501 26.9788 140.276 27.2745 140.055C27.4618 139.914 27.6501 139.777 27.8397 139.64C28.1468 139.422 28.4607 139.205 28.7758 138.993C28.9653 138.866 29.1526 138.74 29.3444 138.615C29.6675 138.405 29.9974 138.201 30.3273 138C30.5203 137.883 30.7064 137.767 30.8982 137.656C31.2441 137.453 31.5946 137.261 31.9439 137.069C32.1312 136.969 32.315 136.864 32.5022 136.766L32.7123 136.655L32.7248 136.617C34.9305 130.51 38.2345 123.881 42.518 116.974C47.7799 108.49 54.5032 99.592 62.4857 90.7304C67.5056 85.1557 73.0175 79.5958 78.969 74.166C86.6684 67.1482 94.5173 60.8862 102.259 55.461C107.474 51.8054 112.634 48.5505 117.671 45.6952C118.149 45.4247 118.628 45.1438 119.103 44.8824C120.446 44.1391 121.775 43.4336 123.097 42.7532C125.974 41.2656 128.8 39.9161 131.556 38.7242L130.206 37.1019L129.982 36.8348L118.794 23.3803L118.88 15.1832L118.775 15.0644L125.499 13.0597L138.63 19.7783Z" fill="#3478AD"/>
<path d="M249.088 211.658L249.092 211.657C249.092 211.657 249.324 209.918 248.405 208.363L248.385 208.321C248.331 208.227 248.274 208.144 248.216 208.061L248.155 207.97C248.055 207.834 247.933 207.704 247.807 207.573C247.582 207.337 247.32 207.115 247.007 206.918C246.845 206.81 246.668 206.712 246.478 206.619C245.957 206.37 245.332 206.18 244.59 206.072C244.048 205.993 243.428 205.97 242.753 205.991C242.48 206 242.211 206.006 241.916 206.033L241.783 206.041C241.783 206.041 241.803 206.113 241.832 206.22C241.863 206.333 241.905 206.496 241.963 206.712C241.984 206.797 242.005 206.885 242.03 206.982C242.126 207.366 242.242 207.855 242.359 208.408C242.358 208.412 242.325 208.52 242.238 208.722L242.193 208.829C241.855 209.614 240.936 211.428 238.889 213.788C238.54 214.189 238.154 214.609 237.74 215.041C232.029 220.941 219.671 229.342 193.67 234.043C184.847 235.287 176.712 235.355 169.764 234.491C159.49 233.214 151.792 229.931 148.211 225.518C147.9 225.139 147.616 224.748 147.345 224.354C147.146 224.063 146.953 223.769 146.775 223.471C146.711 223.361 146.652 223.249 146.59 223.14C145.051 220.419 144.381 217.453 144.418 214.581C144.467 211.093 145.555 207.756 147.397 205.19C148.891 203.11 150.878 201.538 153.201 200.812C154.34 200.457 155.559 200.297 156.838 200.384C157.096 200.402 157.438 200.439 157.864 200.491C158.718 200.599 159.911 200.766 161.374 200.955C161.539 200.975 161.69 200.995 161.862 201.016C166.741 201.623 174.511 202.356 183.908 201.783C201.004 200.741 223.505 195.362 243.937 176.938L243.993 176.866V176.834C244.061 175.29 243.855 172.503 241.905 170.335C241.565 169.956 241.167 169.598 240.715 169.266C240.456 169.076 240.188 168.895 239.889 168.726C239.588 168.559 239.314 168.391 239.05 168.222C238.688 167.995 238.346 167.769 238.044 167.544L237.999 167.479C237.861 167.263 237.714 167.053 237.573 166.837C232.273 158.81 224.972 154.151 222.06 152.016C220.687 151.007 219.813 150.547 219.813 150.547C213.508 146.706 212.584 145.432 213.173 135.002C213.384 131.246 213.79 126.31 214.209 119.617C214.265 118.746 214.291 117.919 214.306 117.107C214.31 116.912 214.314 116.723 214.314 116.532C214.32 115.764 214.312 115.014 214.282 114.294L214.275 114.087L214.258 113.865C214.226 113.299 214.186 112.749 214.14 112.213C214.118 111.978 214.095 111.742 214.071 111.51C214.008 110.938 213.936 110.382 213.847 109.846C213.803 109.572 213.749 109.308 213.699 109.041C213.643 108.74 213.582 108.447 213.52 108.159C213.458 107.876 213.395 107.591 213.326 107.318L213.323 107.317L213.326 107.313V107.317C213.241 106.98 213.143 106.662 213.05 106.343C213.016 106.227 212.989 106.106 212.951 105.992C212.916 105.885 212.878 105.787 212.844 105.68L212.808 105.573L212.701 105.268L212.698 105.247C212.61 105 212.518 104.761 212.429 104.527L212.401 104.449L212.31 104.227L212.2 103.955L212.175 103.902V103.895C211.985 103.453 211.788 103.024 211.578 102.622L211.411 102.325C211.172 101.932 210.927 101.562 210.677 101.204L210.576 101.055L210.452 100.889C210.273 100.644 210.092 100.403 209.912 100.178L209.665 99.8686C209.423 99.582 209.182 99.3046 208.939 99.0455L208.938 99.0432C208.64 98.7292 208.342 98.4324 208.039 98.1584C207.691 97.9426 207.35 97.7485 207.006 97.5773C206.895 97.5191 206.782 97.4757 206.667 97.4255C206.443 97.3204 206.213 97.2177 205.986 97.1332C205.853 97.083 205.724 97.043 205.593 96.9985C205.39 96.9334 205.182 96.8672 204.978 96.8135C204.844 96.7804 204.706 96.7519 204.571 96.7245C204.372 96.6822 204.175 96.6468 203.977 96.6183C203.841 96.6 203.707 96.584 203.57 96.5726C203.374 96.5532 203.176 96.5441 202.98 96.5361C202.846 96.5327 202.714 96.5292 202.585 96.5327C202.382 96.5361 202.182 96.5464 201.981 96.5624C201.858 96.5715 201.733 96.5818 201.611 96.5955L201.34 96.6354C201.218 96.6571 201.095 96.6708 200.968 96.6948C200.861 96.7131 200.752 96.7313 200.645 96.753C200.395 96.8055 200.147 96.8695 199.901 96.9402L199.684 96.9962C199.033 97.1903 198.384 97.4391 197.742 97.7314L197.527 97.833C197.277 97.9483 197.026 98.0693 196.776 98.1972L196.488 98.3525C196.261 98.4701 196.034 98.5957 195.809 98.7224L195.501 98.9028C195.278 99.0318 195.054 99.1642 194.832 99.3023L194.528 99.4896C194.296 99.6346 194.062 99.7841 193.828 99.936L193.57 100.105C193.307 100.277 193.042 100.453 192.778 100.632L192.62 100.739C192.324 100.941 192.022 101.148 191.721 101.356L191.71 101.365L191.664 101.394H191.667C191.105 101.78 190.545 102.175 189.977 102.569C189.503 102.9 189.018 103.231 188.532 103.56L188.298 103.721C187.808 104.049 187.313 104.37 186.816 104.69L186.566 104.846C186.066 105.157 185.565 105.459 185.059 105.747L184.793 105.894C184.285 106.181 183.768 106.448 183.246 106.704L182.986 106.826C182.458 107.077 181.92 107.311 181.375 107.517L181.15 107.602C180.588 107.808 180.018 107.996 179.438 108.149L179.286 108.184C178.673 108.342 178.06 108.469 177.429 108.554C176.371 108.697 175.314 108.744 174.251 108.748C172.52 108.756 170.784 108.616 169.039 108.357C168.458 108.269 167.871 108.166 167.287 108.059C167.079 108.02 166.872 107.988 166.667 107.948C165.146 107.652 163.616 107.3 162.076 106.929C161.429 106.775 160.783 106.618 160.133 106.461C159.09 106.206 158.036 105.961 156.981 105.72C156.772 105.672 156.57 105.619 156.359 105.573L156.369 105.572C156.221 105.54 156.071 105.51 155.922 105.479C155.688 105.427 155.454 105.377 155.222 105.325C154.998 105.28 154.773 105.236 154.551 105.191L154.434 105.167L154.356 105.152C154.151 105.111 153.947 105.07 153.74 105.03C153.262 104.94 152.78 104.854 152.298 104.774C152.155 104.749 152.011 104.731 151.87 104.709C151.511 104.653 151.154 104.599 150.798 104.551C150.617 104.524 150.434 104.507 150.256 104.485L150.216 104.481C149.904 104.441 149.591 104.404 149.279 104.374C149.072 104.353 148.862 104.336 148.657 104.317C148.564 104.31 148.47 104.304 148.374 104.296C148.162 104.28 147.946 104.263 147.731 104.25C147.527 104.237 147.321 104.225 147.114 104.216C146.784 104.202 146.461 104.194 146.135 104.189C146.037 104.188 145.939 104.186 145.841 104.184C145.752 104.183 145.658 104.18 145.567 104.18C145.163 104.181 144.753 104.189 144.342 104.207C144.236 104.21 144.124 104.209 144.015 104.217C143.495 104.239 142.972 104.28 142.447 104.335C142.311 104.348 142.175 104.369 142.037 104.383C141.698 104.423 141.357 104.468 141.016 104.521L140.864 104.543C140.678 104.57 140.489 104.605 140.304 104.638C139.954 104.702 139.608 104.77 139.258 104.845C139.056 104.891 138.855 104.934 138.654 104.986C138.309 105.068 137.961 105.16 137.613 105.258C137.415 105.313 137.218 105.368 137.018 105.43C136.642 105.544 136.268 105.672 135.891 105.805C135.72 105.865 135.55 105.918 135.379 105.986C134.827 106.188 134.281 106.409 133.727 106.656C129.394 109.15 125.672 112.555 122.713 116.527C121.728 117.849 120.826 119.236 120.015 120.672C119.157 122.193 118.412 123.772 117.765 125.389C117.575 125.862 117.395 126.335 117.224 126.814C116.941 127.621 116.67 128.435 116.441 129.258C116.417 129.346 116.397 129.437 116.373 129.526C116.12 130.454 115.901 131.39 115.72 132.335C115.528 133.322 115.382 134.314 115.273 135.31C115.213 135.849 115.159 136.387 115.123 136.927C115.03 138.378 115.04 139.836 115.128 141.289C115.133 141.421 115.145 141.554 115.154 141.684C115.179 142.056 115.192 142.425 115.232 142.797C115.339 143.832 115.486 144.866 115.694 145.892C115.767 146.271 115.87 146.629 115.961 146.994C116.047 147.344 116.124 147.704 116.218 148.046V148.043C116.941 150.665 117.986 153.026 119.225 155.171C123.946 163.327 131.708 168.204 137.332 170.822C139.519 171.786 141.803 172.648 144.175 173.405C144.175 173.405 144.063 173.475 143.89 173.593C143.471 173.698 142.98 173.828 142.436 173.982C141.613 174.214 140.663 174.503 139.615 174.855C138.438 175.251 137.14 175.729 135.771 176.295C132.12 177.808 127.977 179.959 124.306 182.929C123.845 183.3 123.395 183.684 122.952 184.08C122.198 184.758 121.48 185.481 120.789 186.238C120.71 186.323 120.626 186.405 120.551 186.492C120.446 186.609 120.343 186.73 120.24 186.847C119.98 187.152 119.722 187.464 119.471 187.781C119.37 187.909 119.271 188.036 119.17 188.164C118.84 188.6 118.518 189.042 118.214 189.501C117.915 189.95 117.627 190.415 117.355 190.887C115.179 194.685 113.945 199.232 114.324 204.655L114.335 204.599L114.342 204.559C114.351 204.51 114.365 204.441 114.382 204.357L114.394 204.312C114.41 204.23 114.434 204.133 114.459 204.026L114.474 203.959C114.503 203.835 114.539 203.694 114.579 203.54L114.606 203.439C114.651 203.275 114.7 203.097 114.754 202.904L114.757 202.903C114.81 202.713 114.878 202.509 114.944 202.297L114.987 202.168C115.058 201.954 115.136 201.729 115.221 201.497L115.266 201.386C115.345 201.167 115.433 200.942 115.528 200.711L115.573 200.603C115.676 200.353 115.79 200.095 115.908 199.833L115.984 199.669C116.111 199.401 116.24 199.129 116.385 198.854V198.853C116.39 198.842 116.397 198.831 116.403 198.821C116.618 198.41 116.86 197.991 117.118 197.57C117.215 197.41 117.308 197.251 117.416 197.091L117.498 196.958L117.5 196.954C117.72 196.625 117.952 196.295 118.202 195.968C118.405 195.701 118.621 195.436 118.844 195.172C118.914 195.09 118.989 195.008 119.063 194.926C119.241 194.726 119.426 194.526 119.618 194.33C119.697 194.251 119.774 194.17 119.853 194.092C120.116 193.835 120.385 193.584 120.671 193.341L120.695 193.318C120.695 193.318 115.756 204.493 117.903 213.353C117.903 213.353 117.901 213.326 117.901 213.279V213.224C117.899 213.175 117.899 213.118 117.899 213.043C117.899 213.028 117.899 213.011 117.897 212.995C117.899 212.903 117.899 212.798 117.903 212.673C117.903 212.657 117.903 212.642 117.905 212.624C117.905 212.492 117.915 212.346 117.921 212.183C117.921 212.168 117.924 212.151 117.924 212.136C117.933 211.968 117.943 211.785 117.958 211.589C117.958 211.571 117.959 211.556 117.961 211.54C117.977 211.341 117.994 211.13 118.02 210.908C118.022 210.891 118.024 210.872 118.026 210.853C118.048 210.63 118.08 210.4 118.113 210.157C118.115 210.135 118.12 210.113 118.122 210.092C118.16 209.835 118.202 209.568 118.254 209.292L118.265 209.227L118.291 209.089V209.083C118.352 208.774 118.424 208.458 118.506 208.137C118.512 208.116 118.516 208.095 118.521 208.073C118.605 207.76 118.695 207.444 118.796 207.126C118.828 207.027 118.858 206.931 118.89 206.833L118.958 206.63V206.627C119.052 206.365 119.154 206.104 119.265 205.843L119.282 205.801L119.283 205.799C119.438 205.435 119.618 205.082 119.81 204.731C119.859 204.639 119.914 204.547 119.967 204.456C120.172 204.11 120.386 203.771 120.631 203.451L120.641 203.435H120.642C120.642 203.435 120.359 206.186 120.432 209.46C120.446 209.975 120.47 210.505 120.503 211.038C120.523 211.393 120.546 211.75 120.579 212.107C120.797 208.588 121.44 205.283 122.376 202.2C121.44 205.285 120.797 208.589 120.58 212.11V212.111C120.439 214.357 120.47 216.687 120.701 219.102C121.094 223.127 122.051 227.387 123.736 231.87C123.736 231.87 122.191 226.714 124.416 221.557C124.617 222.027 124.832 222.499 125.057 222.975C125.239 224.505 125.548 226.678 125.998 229.069C126.428 233.055 128.335 245.012 136.457 253.421C136.457 253.421 133.388 249.438 133.865 244.251C134.186 244.933 134.503 245.547 134.805 246.077C136.195 248.677 138.959 253.522 141.972 256.879C141.972 256.879 139.527 252.145 140.097 251.124C140.097 251.124 148.068 261.036 150.604 262.003L147.27 256.475L147.195 256.313C158.778 264.712 174.67 267.83 194.326 262.357C197.704 261.414 201.193 260.22 204.792 258.751C207 257.797 209.185 256.748 211.348 255.585L211.662 255.41C213.176 254.582 214.677 253.694 216.167 252.757L216.2 252.736C217.319 252.032 218.428 251.294 219.525 250.529C221.362 249.235 223.182 247.871 224.955 246.39L224.959 246.387L224.966 246.382C225.068 246.291 225.173 246.204 225.28 246.113C227.037 244.578 228.682 242.999 230.21 241.391C232.228 239.268 234.041 237.099 235.682 234.923L235.803 234.766C236.203 234.23 236.596 233.695 236.977 233.167L237.085 233.012C237.209 232.83 237.319 232.658 237.442 232.478C237.972 231.716 238.496 230.952 238.987 230.194C239.104 230.012 239.225 229.827 239.343 229.645C239.598 229.243 239.843 228.841 240.088 228.445C240.273 228.133 240.463 227.823 240.642 227.514C240.842 227.179 241.043 226.842 241.237 226.509C241.581 225.902 241.916 225.301 242.238 224.703C242.365 224.465 242.485 224.234 242.608 224C242.854 223.535 243.094 223.075 243.322 222.619C243.428 222.407 243.535 222.194 243.638 221.983L243.731 221.783C244.017 221.209 244.289 220.638 244.552 220.078L244.601 219.958C245.591 219.034 246.361 218.156 246.978 217.316C247.067 217.197 247.161 217.076 247.243 216.958C248.614 214.979 249.063 213.229 249.088 211.658Z" fill="#FCE9C9"/>
<path d="M64.4255 182.468C64.083 182.575 63.6971 183.029 63.3089 183.647C63.1639 183.879 63.0212 184.133 62.8785 184.4C61.8396 186.352 60.9034 189.06 60.9034 189.06C60.9765 188.156 61.0758 187.217 61.1866 186.274C61.1991 186.165 61.2151 186.057 61.2288 185.947C61.3441 184.987 61.4777 184.018 61.6204 183.056C61.6364 182.94 61.6546 182.824 61.6718 182.71C61.8384 181.626 62.0143 180.548 62.1969 179.508C62.2209 179.372 62.2426 179.241 62.2677 179.107L62.2814 179.039C62.3031 178.919 62.3237 178.796 62.3453 178.677C62.3762 178.497 62.4081 178.318 62.4412 178.141C62.5908 177.317 62.7449 176.52 62.8945 175.764C63.0303 175.082 63.1616 174.435 63.2884 173.827L63.3283 173.63C63.3466 173.535 63.3671 173.448 63.3865 173.356C63.406 173.267 63.4242 173.175 63.4425 173.082L63.4493 173.05C63.4824 172.899 63.5167 172.742 63.5475 172.598L63.5567 172.558C63.5852 172.416 63.6126 172.295 63.6411 172.161C63.6879 171.952 63.7325 171.738 63.7759 171.542L63.7884 171.488C63.8238 171.329 63.8569 171.168 63.89 171.023C63.938 170.814 63.9825 170.622 64.0202 170.441L64.0224 170.435L64.0247 170.43C64.0476 170.326 64.0693 170.236 64.0909 170.14L64.0955 170.123C64.1161 170.036 64.1343 169.945 64.1537 169.869C64.1983 169.677 64.2382 169.503 64.2702 169.37L64.2987 169.251L64.3101 169.208L64.3433 169.067L64.3661 168.97L64.3707 168.956L64.3547 168.969L64.1446 169.16C63.9597 169.324 63.7701 169.485 63.5966 169.668L63.406 169.878C63.2016 170.106 63.0029 170.346 62.818 170.6L62.7198 170.724C62.4903 171.043 62.2768 171.379 62.0736 171.72V171.722L62.0474 171.766L62.0462 171.768L61.964 171.92C61.9172 172.004 61.8727 172.089 61.8282 172.174C61.7106 172.387 61.5896 172.595 61.4845 172.811L61.4788 172.819L61.4754 172.826L61.4697 172.844L61.4286 172.925L61.3909 173.006C61.2265 173.347 61.077 173.686 60.9365 174.021C60.5392 174.962 60.2321 175.858 60.0015 176.607C59.9216 176.873 59.8462 177.125 59.7857 177.348C59.6522 177.831 59.5585 178.209 59.5163 178.393L59.514 178.409L59.4843 178.534L59.4958 178.389C59.5117 178.101 59.5448 177.816 59.5677 177.53C59.6122 176.93 59.6499 176.327 59.7161 175.731C59.7686 175.229 59.8462 174.738 59.917 174.239C59.9399 174.084 59.9638 173.927 59.9867 173.773C60.0175 173.544 60.0495 173.314 60.0871 173.086C60.1202 172.872 60.1671 172.662 60.207 172.453L60.2093 172.437V172.436L60.2538 172.202L60.2675 172.138C60.3143 171.883 60.3634 171.622 60.4125 171.367C60.4296 171.267 60.4479 171.168 60.4685 171.069L60.5038 170.892L60.5107 170.858C60.5278 170.775 60.5461 170.69 60.5644 170.607C60.5849 170.502 60.6134 170.401 60.6351 170.301C60.7196 169.926 60.811 169.557 60.8989 169.186L60.9137 169.124C60.9788 168.848 61.0393 168.571 61.1101 168.299L61.1124 168.286L61.1192 168.268L61.1409 168.188C61.2859 167.629 61.4469 167.082 61.6078 166.53L61.6923 166.227C61.7231 166.125 61.7494 166.018 61.7814 165.915C62.0474 165.021 62.3316 164.139 62.6342 163.276L62.673 163.167C62.9322 162.434 63.1947 161.713 63.4699 161.001L63.5007 160.92C63.6252 160.607 63.753 160.307 63.8752 159.998L63.8957 159.952C64.083 159.491 64.2679 159.027 64.4597 158.581L64.4608 158.576V158.574L64.4643 158.568L64.486 158.513C64.5373 158.401 64.6561 158.129 64.841 157.729L64.8444 157.723L64.8696 157.669V157.668C64.9415 157.51 65.01 157.357 65.0796 157.197C65.1927 156.943 65.3068 156.692 65.4187 156.442L65.5203 156.222C65.3605 156.136 65.1927 156.058 65.0283 155.976L64.9346 155.929L64.76 155.841C63.6925 155.33 62.5691 154.92 61.4046 154.618L61.2197 154.573C60.473 154.385 59.7104 154.243 58.9318 154.153C58.4808 154.101 58.0287 154.06 57.5698 154.042C57.1885 154.026 56.8071 154.021 56.4213 154.029C55.8413 154.042 55.2705 154.091 54.7088 154.153C54.5295 154.175 54.356 154.206 54.1825 154.229C53.9039 154.271 53.6288 154.325 53.3525 154.375C53.2452 154.398 53.1321 154.412 53.0248 154.436C52.8307 154.477 52.6389 154.518 52.4471 154.567C52.0704 154.659 51.7028 154.763 51.3374 154.879C51.1673 154.932 50.9984 154.976 50.8328 155.034C50.3385 155.207 49.8521 155.397 49.3772 155.608C49.1877 155.693 49.0119 155.79 48.8269 155.876C48.61 155.984 48.3954 156.098 48.1819 156.208L47.9615 156.321C47.7264 156.451 47.4969 156.59 47.2697 156.728C47.0585 156.857 46.845 156.994 46.6406 157.135C46.3895 157.3 46.144 157.468 45.9054 157.644C45.7581 157.757 45.6177 157.872 45.4704 157.986C45.0823 158.293 44.7135 158.623 44.3505 158.96C44.1632 159.135 43.9828 159.313 43.8036 159.493C43.4862 159.808 43.1757 160.129 42.8857 160.466L42.7384 160.635C42.5855 160.818 42.4427 161.011 42.3 161.201L42.2772 161.229L42.2589 161.254C42.1619 161.382 42.0569 161.505 41.9621 161.635L41.9244 161.686L41.8868 161.738L41.8845 161.742L41.8822 161.746C41.2965 162.565 40.7828 163.438 40.3375 164.345C40.2724 164.475 40.2142 164.609 40.1526 164.741C39.9471 165.186 39.7576 165.64 39.5863 166.103C39.5189 166.287 39.4436 166.465 39.3808 166.651L39.3785 166.654V166.655L39.3762 166.658C39.2198 167.13 39.0817 167.607 38.9641 168.1L38.9196 168.283L38.8762 168.515L38.8705 168.535C38.7894 168.891 38.7118 169.248 38.6558 169.61C38.6273 169.788 38.609 169.969 38.5862 170.15L38.5782 170.201C38.5554 170.393 38.536 170.587 38.5166 170.781C38.4994 170.926 38.4777 171.073 38.4663 171.222C38.4241 171.792 38.4058 172.368 38.4195 172.951C38.4309 173.402 38.4709 173.845 38.5131 174.289L38.5166 174.314L38.5314 174.521C38.5554 174.766 38.5976 175.008 38.6342 175.252C38.7654 176.136 38.9458 177.002 39.2004 177.839C39.3899 178.477 39.6126 179.098 39.8694 179.704C40.3398 180.818 40.9243 181.868 41.5922 182.854C42.9976 184.935 44.8037 186.718 46.9135 188.078C48.11 188.849 49.4035 189.476 50.7689 189.955C52.0795 190.419 53.4472 190.755 54.8732 190.912C55.194 190.945 55.5182 190.969 55.8436 190.992C56.3299 191.024 56.8151 191.044 57.3106 191.034C57.7673 191.024 58.2114 190.968 58.6601 190.924C58.9158 190.9 59.1795 190.898 59.433 190.863C60.078 190.773 60.7105 190.641 61.3327 190.486L61.4731 190.455C61.7323 190.388 61.9732 190.293 62.2243 190.215C63.0075 189.977 63.7656 189.689 64.5019 189.35L64.6618 189.279C64.8673 189.191 65.0796 189.107 65.2783 189.005L65.3022 188.996C64.9426 187.015 64.6698 184.983 64.4745 182.906C64.462 182.758 64.4414 182.615 64.4255 182.468Z" fill="#FCE9C9"/>
<path d="M141.497 21.2441L141.838 21.4177L141.832 21.372L141.497 21.2441Z" fill="#4D94C3"/>
<path d="M242.03 206.982C242.005 206.885 241.984 206.797 241.963 206.713C241.905 206.497 241.863 206.333 241.832 206.22C241.272 204.404 240.563 202.985 239.932 201.973C239.125 200.667 238.456 200.022 238.456 200.022C238.591 199.562 238.697 199.114 238.793 198.672C238.915 198.093 239.011 197.527 239.076 196.978C239.562 192.837 238.454 189.615 237.566 187.796C237.425 187.505 237.291 187.255 237.169 187.037C236.53 187.491 235.883 187.94 235.236 188.377C222.961 196.689 209.145 202.021 194.186 204.314C183.876 205.894 173.031 206.041 161.754 204.669L161.951 204.726C161.951 204.726 155.154 205.656 153.311 212.177L153.426 212.243L152.864 216.615C153.063 222.537 155.77 226.243 158.851 228.193C162.053 229.414 165.92 230.346 170.215 230.879C177.689 231.809 186.267 231.563 195.024 230.173L195.068 230.166L195.113 230.16C206.759 228.598 223.198 222.38 234.949 214.353C237.626 212.524 240.061 210.604 242.14 208.62L242.218 208.545L242.359 208.408C242.242 207.855 242.126 207.367 242.03 206.982Z" fill="white"/>
<path d="M219.813 150.548C213.508 146.707 212.584 145.433 213.173 135.003C213.384 131.247 213.79 126.31 214.209 119.618C214.265 118.747 214.292 117.92 214.306 117.107C214.31 116.913 214.314 116.724 214.314 116.533C214.32 115.765 214.312 115.015 214.282 114.294L214.276 114.087L214.258 113.866C214.226 113.3 214.186 112.749 214.14 112.214C214.118 111.979 214.095 111.743 214.071 111.511C214.008 110.939 213.936 110.383 213.847 109.846C213.803 109.572 213.749 109.308 213.699 109.041C213.643 108.741 213.583 108.448 213.52 108.16C213.458 107.877 213.395 107.591 213.326 107.319L213.323 107.317L213.326 107.314C212.427 105.978 211.36 104.784 210.108 103.769L209.863 103.586L209.814 103.549L209.629 103.411L209.566 103.364C209.386 103.225 209.196 103.089 209.009 102.964C208.807 102.831 208.606 102.699 208.401 102.576C206.536 101.442 204.458 100.73 202.234 100.4C201.006 100.22 199.733 100.156 198.428 100.206C197.822 100.228 197.209 100.281 196.591 100.354C194.984 100.543 193.337 100.886 191.667 101.394C191.105 101.78 190.545 102.175 189.978 102.569C189.503 102.9 189.019 103.231 188.532 103.56L188.298 103.721C187.808 104.05 187.313 104.371 186.816 104.69L186.566 104.847C186.066 105.157 185.565 105.46 185.059 105.748L184.793 105.895C184.285 106.181 183.768 106.449 183.246 106.704L182.986 106.827C182.459 107.078 181.92 107.312 181.375 107.517L181.15 107.603C180.588 107.808 180.018 107.997 179.438 108.15L179.286 108.185C178.673 108.343 178.06 108.469 177.43 108.555C176.371 108.698 175.314 108.744 174.251 108.749C172.52 108.757 170.784 108.617 169.039 108.357C168.458 108.27 167.872 108.167 167.287 108.06C167.079 108.021 166.873 107.989 166.667 107.949C165.146 107.653 163.617 107.3 162.076 106.929C161.429 106.775 160.783 106.619 160.133 106.461C159.09 106.207 158.036 105.961 156.981 105.72C156.772 105.672 156.57 105.62 156.359 105.574C155.474 105.622 154.586 105.709 153.694 105.821L153.5 105.845C150.913 106.184 148.311 106.8 145.74 107.69C145.598 107.739 145.455 107.781 145.315 107.832C144.913 107.975 144.514 108.131 144.115 108.289C143.579 108.501 143.045 108.722 142.514 108.957C138.79 110.601 135.173 112.837 131.811 115.68C130.449 116.832 129.175 118.052 127.982 119.319C126.152 121.265 124.533 123.338 123.115 125.494C123.036 125.615 122.959 125.735 122.883 125.856C122.126 127.028 121.433 128.224 120.806 129.439C120.58 129.873 120.352 130.308 120.144 130.747L120.102 130.832C119.426 132.264 118.841 133.718 118.336 135.187C118.307 135.274 118.282 135.362 118.257 135.449C118.185 135.663 118.13 135.877 118.063 136.09C117.847 136.771 117.65 137.457 117.468 138.142C117.286 138.854 117.112 139.567 116.969 140.281C116.941 140.434 116.907 140.588 116.88 140.742C116.798 141.178 116.719 141.614 116.651 142.05C116.408 143.654 116.274 145.255 116.24 146.845C116.228 147.245 116.214 147.648 116.218 148.044C116.941 150.665 117.987 153.026 119.225 155.171C123.946 163.327 131.708 168.205 137.332 170.822C139.519 171.787 141.803 172.649 144.175 173.406L144.236 173.509L144.238 173.51L144.248 173.505L144.401 173.388C144.704 173.157 145.006 172.926 145.319 172.698C145.429 172.613 145.542 172.533 145.654 172.45C145.972 172.218 146.3 171.98 146.634 171.747C146.746 171.67 146.86 171.591 146.976 171.512C147.311 171.278 147.656 171.04 148.008 170.809C148.124 170.73 148.242 170.655 148.361 170.577C148.716 170.342 149.076 170.108 149.446 169.875C149.57 169.798 149.689 169.722 149.812 169.646C150.187 169.416 150.564 169.185 150.945 168.954C151.077 168.876 151.21 168.797 151.341 168.717C151.725 168.495 152.113 168.267 152.512 168.041C152.655 167.964 152.798 167.883 152.942 167.802C153.332 167.58 153.732 167.363 154.138 167.146C154.298 167.061 154.459 166.974 154.624 166.889C155.023 166.677 155.429 166.467 155.84 166.259C156.015 166.171 156.191 166.082 156.369 165.993C156.778 165.789 157.192 165.587 157.608 165.386C157.805 165.291 158.006 165.199 158.205 165.104C158.614 164.911 159.028 164.719 159.449 164.528C159.668 164.427 159.896 164.33 160.121 164.229C160.528 164.048 160.943 163.866 161.365 163.688C161.612 163.58 161.866 163.475 162.116 163.371C162.524 163.201 162.937 163.032 163.356 162.862C163.635 162.751 163.919 162.64 164.201 162.528C164.606 162.371 165.013 162.212 165.427 162.056C165.738 161.937 166.054 161.819 166.366 161.706C166.768 161.559 167.165 161.412 167.575 161.267C167.921 161.146 168.272 161.025 168.623 160.904C169.015 160.768 169.409 160.63 169.809 160.501C170.193 160.372 170.581 160.248 170.969 160.124C171.352 159.999 171.734 159.876 172.123 159.755C172.549 159.622 172.982 159.493 173.419 159.361C173.783 159.255 174.148 159.142 174.521 159.036C174.991 158.898 175.473 158.765 175.95 158.632C176.191 158.567 176.423 158.494 176.663 158.432C178.53 153.733 184.071 142.08 193.561 140.805C194.582 140.657 195.503 140.604 196.375 140.595C196.593 140.592 196.828 140.576 197.035 140.581C196.926 139.905 196.839 139.201 196.794 138.469C196.498 133.448 198.041 129.274 200.241 129.141C201.946 129.003 203.301 131.492 203.532 132.363C204.18 133.89 204.634 135.84 204.765 138.003C204.882 139.979 204.699 141.804 204.323 143.324C204.514 143.522 204.672 143.741 204.844 143.951C207.018 146.649 207.386 150.391 207.297 153.042C208.141 152.957 209.009 152.882 209.877 152.808C210.097 152.788 210.314 152.767 210.539 152.746L210.676 152.734C210.801 152.721 210.927 152.714 211.051 152.704C212.125 152.615 213.21 152.532 214.312 152.453L214.361 152.451C216.856 152.277 219.418 152.13 222.061 152.017C220.687 151.008 219.813 150.548 219.813 150.548Z" fill="#EFCFA5"/>
<path d="M243.694 220.838C239.542 224.536 235.194 227.505 230.881 229.887C228.728 231.073 226.588 232.103 224.482 233.019C219.799 235.059 215.306 236.477 211.348 237.442C202.613 239.57 196.453 239.574 196.453 239.574C201.23 242.216 207.276 242.241 211.424 241.822C214.278 241.538 216.24 241.047 216.24 241.047C216.151 242.801 215.932 244.414 215.619 245.92C215.272 247.586 214.797 249.1 214.229 250.485L214.184 250.604L214.179 250.612C213.468 252.324 212.612 253.827 211.658 255.151C211.554 255.294 211.453 255.447 211.348 255.585L211.662 255.41C213.176 254.583 214.677 253.694 216.167 252.757L216.2 252.737C217.319 252.032 218.428 251.295 219.525 250.53C221.362 249.235 223.181 247.872 224.954 246.39L224.959 246.388L224.966 246.382C225.068 246.292 225.173 246.204 225.28 246.114C227.037 244.578 228.682 242.999 230.21 241.392C232.228 239.268 234.041 237.099 235.682 234.923L235.803 234.767C236.203 234.23 236.596 233.696 236.977 233.167L237.085 233.012C237.209 232.83 237.319 232.658 237.442 232.479C237.972 231.716 238.496 230.952 238.987 230.194C239.104 230.013 239.225 229.828 239.343 229.645C239.597 229.243 239.843 228.842 240.088 228.445C240.273 228.134 240.463 227.823 240.642 227.515C240.842 227.179 241.043 226.842 241.237 226.509C241.581 225.903 241.916 225.301 242.238 224.703C242.365 224.466 242.485 224.235 242.608 224.001C242.853 223.535 243.094 223.075 243.322 222.619C243.428 222.407 243.535 222.195 243.638 221.984L243.731 221.784C244.017 221.21 244.289 220.639 244.552 220.078C244.265 220.34 243.979 220.587 243.694 220.838Z" fill="#EFCFA5"/>
<path d="M139.615 174.854C138.438 175.251 137.14 175.728 135.771 176.294C132.12 177.807 127.977 179.958 124.306 182.928C123.845 183.299 123.395 183.683 122.952 184.079C122.198 184.757 121.48 185.48 120.789 186.237C120.71 186.322 120.626 186.405 120.551 186.491C120.446 186.608 120.343 186.729 120.24 186.846C119.98 187.151 119.722 187.463 119.471 187.78C119.37 187.908 119.271 188.035 119.17 188.163C118.84 188.599 118.518 189.041 118.214 189.5C117.915 189.95 117.627 190.414 117.355 190.886C115.179 194.684 113.945 199.231 114.324 204.654L114.335 204.598L114.342 204.558C114.351 204.509 114.365 204.441 114.382 204.356L114.394 204.312C114.41 204.229 114.434 204.132 114.459 204.025L114.474 203.958C114.503 203.834 114.539 203.693 114.579 203.539L114.606 203.438C114.651 203.274 114.7 203.096 114.754 202.903L114.757 202.902C114.81 202.712 114.878 202.508 114.944 202.297L114.987 202.168C115.058 201.953 115.136 201.728 115.221 201.496L115.266 201.386C115.345 201.166 115.433 200.941 115.528 200.71L115.573 200.602C115.676 200.352 115.79 200.094 115.908 199.832L115.984 199.669C116.111 199.4 116.24 199.129 116.385 198.853V198.852C116.39 198.841 116.397 198.831 116.403 198.82C116.618 198.409 116.86 197.99 117.118 197.569C117.215 197.409 117.308 197.25 117.416 197.091L117.498 196.957L117.5 196.954C117.72 196.624 117.952 196.294 118.202 195.967C118.405 195.7 118.621 195.435 118.844 195.171C118.914 195.089 118.989 195.007 119.063 194.925C119.241 194.725 119.426 194.525 119.618 194.329C119.697 194.25 119.774 194.169 119.853 194.091C120.116 193.835 120.385 193.583 120.671 193.34L120.695 193.317C120.695 193.317 115.756 204.492 117.903 213.352C117.903 213.352 117.901 213.325 117.901 213.278V213.223C117.899 213.174 117.899 213.117 117.899 213.042C117.899 213.027 117.899 213.01 117.897 212.994C117.899 212.903 117.899 212.798 117.903 212.672C117.903 212.656 117.903 212.641 117.905 212.623C117.905 212.492 117.915 212.346 117.921 212.182C117.921 212.167 117.924 212.15 117.924 212.135C117.933 211.968 117.943 211.784 117.958 211.589C117.958 211.57 117.959 211.556 117.961 211.54C117.977 211.34 117.994 211.13 118.02 210.907C118.022 210.89 118.024 210.872 118.026 210.852C118.048 210.63 118.08 210.399 118.113 210.156C118.115 210.134 118.12 210.112 118.122 210.091C118.16 209.834 118.202 209.567 118.254 209.292L118.265 209.227L118.291 209.088V209.083C118.352 208.773 118.424 208.457 118.506 208.136C118.512 208.116 118.516 208.094 118.521 208.072C118.605 207.759 118.695 207.443 118.796 207.125C118.828 207.027 118.858 206.931 118.89 206.832L118.958 206.629V206.626C119.052 206.364 119.154 206.103 119.265 205.843L119.282 205.8L119.283 205.798C119.438 205.434 119.618 205.081 119.81 204.731C119.859 204.638 119.914 204.546 119.967 204.455C120.172 204.11 120.386 203.77 120.631 203.45L120.641 203.434H120.642C120.642 203.434 120.359 206.185 120.432 209.459C120.446 209.974 120.47 210.504 120.503 211.037C120.523 211.392 120.546 211.75 120.579 212.106C120.797 208.587 121.44 205.282 122.376 202.2C122.638 201.35 122.923 200.522 123.226 199.706C123.268 199.589 123.309 199.471 123.353 199.353C123.646 198.582 123.955 197.83 124.278 197.091C124.341 196.952 124.403 196.814 124.463 196.676C124.793 195.946 125.134 195.229 125.492 194.529C125.55 194.42 125.605 194.314 125.661 194.207C126.419 192.747 127.233 191.357 128.078 190.043C128.14 189.946 128.201 189.85 128.263 189.754C128.585 189.262 128.914 188.788 129.244 188.318C129.33 188.194 129.413 188.061 129.5 187.939C129.581 187.828 129.657 187.719 129.736 187.609C130.157 187.029 130.578 186.464 131.004 185.917C131.072 185.83 131.14 185.745 131.207 185.66C131.65 185.099 132.092 184.551 132.536 184.028L132.56 183.999C133.119 183.338 133.677 182.707 134.23 182.105C134.636 181.664 135.038 181.241 135.437 180.832C135.586 180.679 135.742 180.527 135.896 180.372C136.848 179.411 137.767 178.548 138.623 177.783C141.192 175.484 143.192 174.063 143.89 173.592C143.471 173.697 142.98 173.827 142.436 173.981C141.613 174.213 140.663 174.502 139.615 174.854Z" fill="#EFCFA5"/>
<path d="M205.308 150.111C205.308 150.111 205.28 149.826 205.179 149.395C204.777 147.762 203.163 143.907 196.805 144.518C190.158 145.159 187.926 150.522 187.353 152.35C187.235 152.729 187.184 152.968 187.184 152.968L187.364 153.122C188.207 152.406 189.815 152.49 191.273 153.416C191.94 153.84 192.471 154.374 192.834 154.937V154.939C193.396 155.805 193.552 156.737 193.155 157.43C193.07 157.579 192.964 157.704 192.842 157.815C192.842 157.815 193.098 157.913 193.529 158.039C195.376 158.583 200.498 159.658 203.27 156.079C203.403 155.906 203.539 155.746 203.661 155.555C203.116 155.276 202.811 154.476 202.81 153.527C202.805 153.07 202.868 152.582 203.015 152.094C203.47 150.591 204.498 149.702 205.308 150.111Z" fill="#EFCFA5"/>
<path d="M172.356 198.936C168.054 199.823 164.292 200.484 161.374 200.954C161.539 200.975 161.691 200.994 161.862 201.016C166.741 201.622 174.511 202.355 183.908 201.782C201.004 200.741 223.505 195.361 243.937 176.937L243.993 176.865V176.833C244.061 175.29 243.855 172.503 241.905 170.335C241.565 169.956 241.167 169.597 240.715 169.265C240.639 169.221 240.568 169.17 240.489 169.126C239.953 168.826 239.485 168.522 239.05 168.222C238.688 167.995 238.346 167.769 238.044 167.544L237.999 167.479C236.743 169.285 235.288 171.003 233.658 172.639C233.08 173.217 232.467 173.774 231.849 174.331C226.212 179.409 218.928 183.638 211.065 187.121C197.999 192.908 183.395 196.663 172.356 198.936Z" fill="#EFCFA5"/>
<path d="M64.1445 169.16C63.9596 169.324 63.77 169.485 63.5965 169.668L63.4058 169.878C63.2015 170.106 63.0028 170.346 62.8179 170.6L62.7197 170.724C62.4902 171.043 62.2767 171.379 62.0735 171.72V171.722L62.0473 171.766L62.0461 171.768L61.9639 171.92C61.9171 172.004 61.8726 172.089 61.8281 172.174C61.7105 172.387 61.5895 172.595 61.4844 172.811L61.4787 172.819L61.4753 172.826L61.4696 172.844L61.4285 172.925L61.3908 173.006C61.2264 173.347 61.0769 173.686 60.9364 174.021C60.5391 174.962 60.232 175.858 60.0014 176.607C59.9215 176.873 59.8461 177.125 59.7856 177.348C59.6521 177.831 59.5584 178.209 59.5162 178.393L59.5139 178.409L59.4842 178.534L59.4957 178.389C59.5116 178.101 59.5447 177.816 59.5676 177.53C59.6121 176.93 59.6498 176.327 59.716 175.731C59.7685 175.229 59.8461 174.738 59.9169 174.239C59.9398 174.084 59.9637 173.927 59.9866 173.773C60.0174 173.544 60.0494 173.314 60.087 173.086C60.1201 172.872 60.167 172.662 60.2069 172.453L60.2092 172.437V172.436L60.2537 172.202L60.2674 172.138C60.3142 171.883 60.3633 171.622 60.4124 171.367C60.4295 171.267 60.4478 171.168 60.4683 171.069L60.5037 170.892L60.5106 170.858C60.5277 170.775 60.546 170.69 60.5643 170.607C60.5848 170.502 60.6133 170.401 60.635 170.301C60.7195 169.926 60.8109 169.557 60.8988 169.186L60.9136 169.124C60.9787 168.848 61.0392 168.571 61.11 168.299L61.1122 168.286L61.1191 168.268L61.1408 168.188C61.2858 167.629 61.4468 167.082 61.6077 166.53L61.6922 166.227C61.723 166.125 61.7493 166.018 61.7813 165.915C62.0473 165.021 62.3315 164.139 62.6341 163.276L62.6729 163.167C62.9321 162.434 63.1946 161.713 63.4698 161.001L63.5006 160.92C63.625 160.607 63.7529 160.307 63.8751 159.998L63.8956 159.952C64.0829 159.491 64.2678 159.027 64.4596 158.581L64.4607 158.576V158.574L64.4642 158.568L64.4859 158.513C64.5372 158.401 64.656 158.129 64.8409 157.729L64.8443 157.723L64.8695 157.669V157.668C64.9414 157.51 65.0099 157.357 65.0795 157.197C65.1926 156.943 65.3067 156.692 65.4186 156.442L65.5202 156.222C65.3604 156.136 65.1926 156.058 65.0282 155.976L64.9345 155.929L64.7599 155.841C63.6924 155.33 62.569 154.92 61.4045 154.618L61.2196 154.573C60.4729 154.385 59.7103 154.243 58.9317 154.153C58.4807 154.101 58.0286 154.06 57.5697 154.042C57.1884 154.026 56.807 154.021 56.4212 154.029C55.8412 154.042 55.2704 154.091 54.7087 154.153C54.5283 154.174 54.3559 154.206 54.1824 154.229C53.9038 154.271 53.6286 154.325 53.3524 154.375C53.2451 154.398 53.132 154.412 53.0247 154.436C52.8306 154.477 52.6388 154.518 52.447 154.567C52.0703 154.659 51.7027 154.763 51.3373 154.879C51.1672 154.932 50.9983 154.976 50.8327 155.034C50.3384 155.207 49.852 155.397 49.3771 155.608C49.1876 155.693 49.0118 155.79 48.8268 155.878C48.6099 155.984 48.3953 156.098 48.1818 156.208L47.9614 156.321C47.7263 156.451 47.4968 156.59 47.2696 156.728C47.0584 156.857 46.8449 156.994 46.6405 157.135C46.3894 157.3 46.1439 157.468 45.9053 157.644C45.758 157.757 45.6176 157.872 45.4703 157.986C45.0822 158.293 44.7134 158.623 44.3504 158.96C44.1631 159.135 43.9827 159.313 43.8035 159.493C43.4861 159.808 43.1779 160.129 42.8856 160.466L42.7383 160.635C42.5853 160.818 42.4426 161.011 42.2999 161.201L42.2771 161.229L42.2588 161.254C42.1618 161.382 42.0568 161.505 41.962 161.636L41.9243 161.686L41.8867 161.738L41.8844 161.742L41.8821 161.746C41.2964 162.569 40.7827 163.44 40.3374 164.35C40.2723 164.479 40.2141 164.61 40.1547 164.741C39.947 165.186 39.7597 165.64 39.5862 166.103C39.5188 166.287 39.4435 166.465 39.3807 166.651L39.3784 166.654V166.655C39.4138 166.775 39.4538 166.888 39.4903 167.005C39.617 167.418 39.746 167.817 39.8819 168.205L39.9287 168.339L39.9801 168.474C40.1228 168.873 40.2701 169.256 40.4219 169.629C40.8831 170.772 41.3695 171.792 41.8513 172.697C41.9243 172.829 41.9962 172.968 42.067 173.095L42.1184 173.19L42.1858 173.303C42.5488 173.948 42.9039 174.518 43.2338 175.016C43.759 175.809 44.2191 176.412 44.5467 176.818C44.6186 176.906 44.6803 176.979 44.7362 177.049C44.7853 177.107 44.8299 177.159 44.8721 177.205C44.9965 177.349 45.0742 177.431 45.0742 177.432C45.0262 177.229 45.0022 177.029 44.96 176.824C44.6632 175.366 44.509 173.926 44.4714 172.516L44.4702 172.433L44.4668 172.27C44.4508 171.367 44.4645 170.471 44.5364 169.602H44.5376C44.6301 169.936 44.7294 170.259 44.8299 170.579C44.9817 171.061 45.1381 171.53 45.3002 171.981L45.3562 172.143L45.379 172.201C46.0903 174.125 46.8997 175.741 47.6578 177.044C48.5642 178.605 49.3942 179.71 49.8897 180.317C49.9902 180.439 50.0747 180.542 50.1466 180.623C50.287 180.786 50.3646 180.87 50.3646 180.87C50.0062 179.32 49.8246 177.79 49.7675 176.289C49.747 175.784 49.7287 175.278 49.7379 174.784C49.747 174.15 49.7801 173.525 49.8315 172.91C50.1078 173.963 50.4251 174.937 50.7642 175.854L50.7882 175.925C52.0063 179.226 53.5099 181.653 54.5477 183.091L54.6664 183.25C54.8491 183.494 55.0066 183.7 55.1493 183.885C55.2475 184.008 55.3411 184.128 55.4199 184.217C55.5204 184.339 55.5957 184.429 55.6574 184.497C55.7339 184.584 55.7807 184.638 55.7807 184.638L55.7384 184.423C55.6916 184.206 55.6471 183.991 55.6049 183.776C55.4553 183.002 55.3571 182.233 55.2841 181.473C55.235 180.964 55.1882 180.456 55.1699 179.956C55.1516 179.479 55.1539 179.009 55.1608 178.54C55.163 178.455 55.1665 178.371 55.1676 178.286C55.1756 178.043 55.1813 177.8 55.1939 177.559L55.203 177.41L55.2121 177.303C55.2498 176.686 55.3035 176.074 55.38 175.474C55.4976 175.873 55.622 176.261 55.7499 176.634C55.8458 176.92 55.9462 177.19 56.0467 177.463L56.0684 177.519L56.1015 177.614L56.162 177.78C56.2853 178.107 56.412 178.42 56.541 178.73C56.7865 179.309 57.0319 179.856 57.2843 180.369C57.5891 181 57.8996 181.582 58.1999 182.115C58.3745 182.416 58.5412 182.699 58.7068 182.969C58.9157 183.309 59.1189 183.627 59.313 183.915C59.4911 184.179 59.6566 184.412 59.8142 184.632C59.8541 184.685 59.8952 184.741 59.9329 184.794C60.0802 184.993 60.2206 185.182 60.3451 185.339C60.4387 185.459 60.5254 185.567 60.6042 185.662C60.8086 185.911 60.9536 186.075 61.0186 186.145L61.0563 186.185L61.1865 186.274C61.199 186.165 61.215 186.057 61.2287 185.947C61.344 184.987 61.4776 184.018 61.6203 183.056C61.6363 182.94 61.6545 182.824 61.6717 182.71C61.8383 181.626 62.0142 180.548 62.1968 179.508C62.2208 179.372 62.2425 179.241 62.2676 179.107L62.2813 179.039C62.303 178.919 62.3236 178.796 62.3452 178.677C62.3761 178.497 62.408 178.318 62.4411 178.141C62.5907 177.317 62.7448 176.52 62.8944 175.764C63.0302 175.082 63.1615 174.435 63.2883 173.827L63.3282 173.63C63.3465 173.535 63.367 173.448 63.3864 173.356C63.4058 173.267 63.4241 173.175 63.4424 173.082L63.4492 173.05C63.4823 172.899 63.5166 172.742 63.5474 172.598L63.5565 172.558C63.5851 172.416 63.6125 172.295 63.641 172.161C63.6878 171.952 63.7324 171.738 63.7757 171.542L63.7883 171.488C63.8237 171.329 63.8568 171.168 63.8899 171.023C63.9379 170.814 63.9824 170.622 64.0201 170.441L64.0223 170.435L64.0246 170.43C64.0475 170.326 64.0692 170.236 64.0908 170.14L64.0954 170.123C64.116 170.036 64.1342 169.945 64.1536 169.869C64.1982 169.677 64.2381 169.503 64.2701 169.37L64.2986 169.251L64.31 169.208L64.3432 169.067L64.366 168.97L64.3706 168.956L64.3546 168.969L64.1445 169.16Z" fill="#EFCFA5"/>
<path d="M202.503 216.92C204.115 216.363 205.519 215.912 206.608 215.437C208.791 214.508 209.963 213.881 209.89 213.649C209.816 213.413 208.499 213.591 206.18 214.115C205.019 214.387 203.612 214.623 201.995 214.986C201.191 215.179 200.303 215.29 199.382 215.468C198.455 215.629 197.48 215.832 196.451 215.943C194.42 216.23 192.096 216.493 189.629 216.78C188.413 216.879 187.159 216.983 185.869 217.087C184.566 217.152 183.228 217.218 181.854 217.285C176.367 217.446 170.309 217.197 164.145 216.064C160.895 215.492 156.551 214.016 153.426 212.241L153.311 212.175C155.154 205.655 161.951 204.725 161.951 204.725L161.754 204.668C161.641 204.654 161.527 204.643 161.412 204.629C160.423 204.507 159.554 204.388 158.809 204.287C158.277 204.217 157.81 204.153 157.416 204.104C157.037 204.057 156.766 204.028 156.609 204.018C152.515 203.737 150.272 207.204 149.496 208.707C149.386 208.924 149.284 209.146 149.181 209.374C148.59 210.721 148.197 212.275 148.092 213.916C147.89 216.98 148.679 220.345 151.027 223.209C152.593 225.141 155.318 226.844 158.851 228.192C155.77 226.242 153.063 222.536 152.864 216.614C156.354 218.114 160.421 219.032 163.476 219.575C170.019 220.781 176.333 220.925 182.009 220.577C183.427 220.458 184.807 220.354 186.147 220.219C187.489 220.045 188.791 219.877 190.054 219.714C192.51 219.299 194.776 218.898 196.904 218.429C197.964 218.231 198.949 217.939 199.88 217.686C200.812 217.415 201.695 217.212 202.503 216.92Z" fill="#EFCFA5"/>
<path d="M197.075 140.609C200.493 140.689 202.814 141.774 204.362 143.353C204.739 141.831 204.924 140.006 204.803 138.03C204.672 135.868 204.22 133.918 203.572 132.389C203.343 131.521 201.985 129.031 200.28 129.168C198.079 129.301 196.54 133.476 196.836 138.496C196.879 139.229 196.963 139.932 197.075 140.609Z" fill="#59473D"/>
<path d="M202.848 153.556C202.852 154.506 203.156 155.305 203.7 155.584C204.518 155.992 205.537 155.1 205.99 153.595C206.033 153.464 206.057 153.332 206.087 153.203V153.2C206.377 151.833 206.082 150.511 205.345 150.141C204.536 149.73 203.508 150.621 203.055 152.122C202.908 152.612 202.846 153.099 202.848 153.556Z" fill="#59473D"/>
<path d="M187.328 155.979C187.69 156.569 188.236 157.139 188.934 157.584C190.41 158.52 192.05 158.599 192.881 157.845C193.004 157.736 193.11 157.607 193.194 157.459C193.592 156.766 193.436 155.834 192.876 154.967L192.874 154.965C192.511 154.404 191.98 153.869 191.313 153.445C189.855 152.519 188.247 152.434 187.404 153.152C187.266 153.271 187.142 153.403 187.05 153.564C186.669 154.235 186.811 155.131 187.328 155.977V155.979Z" fill="#59473D"/>
<path d="M243.993 176.871V176.84L243.897 176.979C243.911 176.967 243.926 176.956 243.939 176.944L243.993 176.871Z" fill="#59473D"/>
<path d="M242.22 208.552L242.142 208.626C240.063 210.61 237.626 212.531 234.951 214.36C223.2 222.387 206.761 228.605 195.113 230.166L195.068 230.173L195.024 230.18C186.267 231.571 177.689 231.816 170.215 230.886C165.92 230.352 162.056 229.422 158.851 228.199C155.32 226.852 152.595 225.149 151.027 223.218C148.679 220.353 147.89 216.989 148.093 213.925C148.2 212.283 148.592 210.728 149.184 209.382C149.284 209.155 149.388 208.931 149.498 208.715C150.274 207.213 152.515 203.746 156.611 204.025C156.767 204.038 157.039 204.064 157.416 204.112C157.81 204.16 158.278 204.224 158.811 204.296C159.554 204.396 160.426 204.514 161.414 204.636C161.53 204.651 161.641 204.662 161.754 204.675C173.031 206.047 183.876 205.901 194.186 204.321C209.145 202.029 222.964 196.695 235.236 188.385C235.885 187.946 236.53 187.499 237.169 187.043L243.897 176.98C223.478 195.375 200.996 200.748 183.908 201.789C174.511 202.363 166.741 201.63 161.864 201.024C161.691 201.002 161.541 200.983 161.374 200.961C159.911 200.775 158.718 200.606 157.866 200.499C157.44 200.445 157.096 200.409 156.838 200.391C155.559 200.305 154.341 200.463 153.203 200.82C150.878 201.547 148.891 203.117 147.399 205.198C145.555 207.763 144.47 211.099 144.418 214.588C144.383 217.459 145.051 220.426 146.592 223.147C146.653 223.257 146.711 223.369 146.776 223.479C146.954 223.777 147.146 224.071 147.346 224.359C147.616 224.754 147.9 225.145 148.213 225.525C151.792 229.938 159.492 233.221 169.764 234.499C176.715 235.363 184.849 235.293 193.672 234.049C219.672 229.35 232.032 220.948 237.74 215.047C238.157 214.617 238.54 214.198 238.89 213.796C240.936 211.436 241.857 209.621 242.193 208.836L242.239 208.729C242.325 208.526 242.359 208.418 242.36 208.414L242.22 208.552Z" fill="#59473D"/>
<path d="M159.478 118.385C158.658 117.939 157.763 117.621 156.86 117.397C156.263 117.249 155.662 117.144 155.07 117.07C154.847 117.043 154.626 117.022 154.403 117.004C151.36 116.738 148.728 117.253 148.728 117.253C148.164 117.382 147.623 117.528 147.1 117.688C142.966 118.941 140.088 121.095 138.076 123.579C136.448 125.588 135.39 127.816 134.714 129.964C134.654 130.154 134.6 130.342 134.546 130.529C134.389 131.088 134.251 131.634 134.134 132.172C133.753 133.979 133.606 135.646 133.563 136.965C133.512 138.769 133.652 139.931 133.652 139.931C134.37 138.355 135.124 136.91 135.9 135.557C137.826 132.203 139.914 129.501 142.024 127.329C146.135 123.101 150.323 120.869 153.569 119.696C157.075 118.429 159.478 118.385 159.478 118.385Z" fill="#E1B27E"/>
<path d="M208.862 112.498L208.723 112.316C208.258 111.729 207.703 111.185 207.037 110.731C205.467 109.651 203.301 109.088 200.297 109.704C200.297 109.704 196.731 110.546 194.647 112.879C194.647 112.879 200.861 110.224 207.439 114.9C208.038 115.326 208.64 115.819 209.241 116.375C209.854 116.943 210.464 117.573 211.074 118.289C211.074 118.289 210.813 115.423 209.18 112.954C209.082 112.799 208.973 112.647 208.862 112.498Z" fill="#E1B27E"/>
<path d="M160.229 157.999C162.611 157.262 165.191 156.583 167.954 155.957C168.434 153.806 168.553 151.143 168.213 148.299C167.426 141.629 164.417 136.521 161.496 136.881C158.573 137.242 156.848 142.941 157.636 149.607C158.034 152.965 158.996 155.931 160.229 157.999Z" fill="#59473D"/>
<path d="M146.674 8.74805L140.547 10.1329L141.832 21.3714L125.499 13.0578L118.775 15.0626L118.88 15.1813L138.721 37.7954L138.911 37.6755L139.167 37.5157C139.784 37.1218 140.403 36.7291 141.026 36.342C141.244 36.2062 141.461 36.0658 141.679 35.931C142.579 35.3796 143.48 34.8373 144.384 34.2985L135.956 24.6446L149.593 31.3119L149.645 31.2833C150.056 31.0584 150.463 30.8324 150.873 30.6097L149.616 20.8725L155.804 28.0296L155.879 27.9931C156.403 27.7293 156.916 27.4793 157.431 27.2247L157.592 27.1471L157.842 27.0215C157.93 26.9793 158.02 26.9347 158.107 26.8902C158.326 26.784 158.551 26.6699 158.767 26.5648C158.811 26.542 158.853 26.5237 158.898 26.502C159.632 26.1481 160.352 25.8102 161.073 25.4723L146.674 8.74805Z" fill="#FACE56"/>
<path d="M140.587 10.489L140.547 10.1328L140.587 10.4902V10.489Z" fill="#4D94C3"/>
<path d="M140.547 10.1347L141.452 9.93151C139.952 9.2351 138.17 8.73847 136.107 8.4816C131.975 7.961 126.729 8.43936 120.753 9.98403C114.776 11.5184 108.075 14.0986 100.968 17.6377C86.7529 24.7115 70.9283 35.6132 55.7008 49.505C50.3875 54.3502 45.4327 59.3004 40.8774 64.2655L59.3735 86.9207C64.3683 81.4087 69.8174 75.9276 75.6902 70.5709C83.5425 63.4116 91.549 57.0239 99.4653 51.4732C107.136 46.0994 114.712 41.5373 122.006 37.8463L118.794 23.3803L118.88 15.1832L118.775 15.0644L125.499 13.0597L138.63 19.7783L138.257 15.2037L140.547 10.1347Z" fill="#4D94C3"/>
<path d="M140.547 10.1328L138.257 15.2018L138.63 19.7764L141.832 21.3713L140.547 10.1328Z" fill="#141C26"/>
<path d="M135.956 24.6445L149.593 31.3118L144.384 34.2984L135.956 24.6445Z" fill="#141C26"/>
<path d="M149.616 20.873L150.873 30.6103L155.804 28.0301L149.616 20.873Z" fill="#141C26"/>
<path d="M201.211 17.274C202.052 17.2409 202.875 17.2317 203.684 17.2489C205.979 17.2957 208.134 17.5663 210.177 18.0766C210.286 18.1051 210.401 18.1211 210.509 18.1508L210.534 18.1576L210.614 18.1748L210.815 18.233L211 18.2889C210.759 18.1291 210.514 17.9784 210.265 17.8311C207.972 16.9532 205.546 16.3801 203.051 16.0593C190.673 14.4666 176.581 18.9728 168.522 22.1729C168.08 22.3578 167.635 22.5416 167.184 22.7334C166.507 23.0223 165.824 23.3168 165.133 23.6216C163.971 24.1331 162.797 24.6685 161.595 25.228C161.42 25.3079 161.246 25.3912 161.073 25.4734C160.352 25.8113 159.632 26.1493 158.898 26.5032C158.853 26.5249 158.811 26.5431 158.767 26.566C158.551 26.671 158.326 26.7852 158.107 26.8914C158.02 26.9359 157.93 26.9804 157.842 27.0226L157.592 27.1482L157.431 27.2259C156.916 27.4805 156.403 27.7305 155.879 27.9942L155.804 28.0307C155.788 28.0399 155.772 28.0479 155.757 28.0559C155.627 28.1175 155.505 28.178 155.377 28.2419L155.311 28.2739C155.215 28.323 155.121 28.3732 155.028 28.4223C154.225 28.8288 153.426 29.2489 152.63 29.6702C152.073 29.9647 151.518 30.2615 150.962 30.5618L150.873 30.6109C150.463 30.8335 150.056 31.0596 149.645 31.2845L149.593 31.313C148.26 32.0505 146.936 32.8029 145.614 33.5758C145.475 33.6557 145.337 33.7322 145.198 33.8144C145.08 33.884 144.962 33.9525 144.846 34.021C144.737 34.085 144.629 34.1523 144.523 34.2163L144.384 34.2996C143.48 34.8385 142.579 35.3808 141.679 35.9322C141.461 36.0669 141.244 36.2073 141.026 36.3432C140.403 36.7302 139.784 37.1229 139.167 37.5168L138.911 37.6766L138.721 37.7965C137.002 38.8982 135.296 40.0296 133.599 41.1838C130.798 43.0904 128.028 45.0575 125.298 47.0919C124.943 47.3557 124.591 47.6239 124.236 47.8911C117.077 53.2809 110.161 59.0645 103.536 65.0708C96.5414 71.4151 89.8764 78.0082 83.5801 84.6321C80.17 88.0491 77.2405 91.111 74.8498 93.6855C70.0537 98.8503 67.4382 102.044 67.5455 102.116C67.5889 102.162 68.0113 101.771 68.7602 101.022C68.1403 101.741 67.5204 102.459 66.9119 103.175C77.3672 92.0278 88.9631 80.6123 101.414 69.8578C108.978 63.3309 116.848 57.0472 124.979 51.2179V51.219C128.54 48.6629 132.152 46.1969 135.809 43.8359C136.977 43.079 138.155 42.3323 139.334 41.5971C139.922 41.2318 140.516 40.8767 141.106 40.516C141.438 40.3116 141.773 40.105 142.11 39.9029C142.741 39.5216 143.375 39.1471 144.007 38.7715C144.628 38.4062 145.247 38.0408 145.869 37.6801C146.196 37.494 146.521 37.3045 146.847 37.1195C147.635 36.6674 148.43 36.2256 149.226 35.7849C149.698 35.5223 150.176 35.2575 150.651 34.9994L150.655 34.9972C152.155 34.1797 153.663 33.3908 155.175 32.6157C155.299 32.5506 155.426 32.4878 155.554 32.4239C155.79 32.3028 156.027 32.183 156.263 32.0631C156.577 31.9044 156.887 31.7411 157.203 31.5847C157.322 31.5265 157.438 31.4637 157.556 31.4043L157.607 31.3815C157.821 31.2753 158.031 31.1749 158.243 31.0721C158.287 31.0504 158.332 31.0299 158.376 31.0082L158.45 30.9694C159.113 30.6463 159.77 30.3278 160.419 30.0149C160.537 29.9601 160.657 29.8974 160.778 29.8414C160.989 29.7387 161.197 29.645 161.41 29.5446C162.168 29.1872 162.923 28.831 163.668 28.4874C163.873 28.3949 164.082 28.2922 164.285 28.2008C164.393 28.1518 164.498 28.1049 164.605 28.057C164.816 27.9622 165.029 27.8675 165.241 27.7716C166.117 27.3754 166.988 26.985 167.842 26.6139C168.623 26.2737 169.381 25.962 170.143 25.6412C174.45 23.8306 178.498 22.3087 182.26 21.0986C189.491 18.7798 195.734 17.5092 201.211 17.274Z" fill="white"/>
</g>
<defs>
<clipPath id="clip0_1_6771">
<rect width="256" height="291" fill="white"/>
</clipPath>
</defs>
</svg>
