<svg width="512" height="108" viewBox="0 0 512 108" fill="none" xmlns="http://www.w3.org/2000/svg">
<g clip-path="url(#clip0_1_6830)">
<path d="M512 80.8086H501.248V52.7096C501.285 49.779 500.63 46.8811 499.336 44.2512C498.125 41.7473 496.259 39.6173 493.936 38.0866C490.562 35.8337 486.355 35.2145 482.475 36.3998C478.595 37.5851 475.452 40.4496 473.913 44.2034C472.699 46.8722 472.095 49.778 472.145 52.7096V80.8086H461.393V26.9521H472.145V34.4548C474.057 31.5875 476.398 29.3893 479.074 27.8123C481.802 26.2287 484.904 25.4038 488.059 25.4226C492.742 25.4226 496.899 26.6654 500.483 29.0548C504.115 31.4919 506.935 34.7893 508.942 38.899C510.901 43.0087 511.952 47.5485 512 52.4706V80.8086ZM397.31 26.9521H408.062V54.9556C408.062 58.014 408.684 60.8812 409.974 63.4139C411.264 65.9945 413.08 68.0493 415.326 69.5307C419.865 72.5729 425.792 72.5729 430.331 69.5307C432.482 68.0493 434.154 65.9945 435.397 63.4139C436.591 60.8812 437.165 58.014 437.165 54.9556V26.9521H447.917V80.8086H437.213V73.2582C435.301 76.1254 432.912 78.2758 430.236 79.9006C427.512 81.4776 424.549 82.29 421.299 82.29C416.616 82.29 412.459 81.0475 408.875 78.6104C405.217 76.1538 402.294 72.7518 400.416 68.7661C398.383 64.515 397.338 59.859 397.358 55.1467V26.9999L397.31 26.9521ZM373.894 62.7927C372.666 65.4595 370.733 67.7399 368.303 69.3874C363.22 72.5819 356.756 72.5819 351.673 69.3874C346.43 65.9651 343.282 60.1172 343.31 53.8565C343.31 50.6069 344.027 47.6441 345.509 44.8724C346.942 42.1007 348.997 39.9025 351.578 38.3255C356.672 35.1109 363.161 35.1109 368.255 38.3255C370.645 39.9025 372.556 42.1485 373.894 44.8724C375.232 47.5963 375.901 50.6069 375.901 53.8565C375.901 57.106 375.232 60.0688 373.894 62.8405V62.7927ZM376.618 26.9521V34.8848C374.874 32.0515 372.462 29.6887 369.593 28.0034C366.659 26.3185 363.323 25.4598 359.94 25.5185C354.923 25.5185 350.287 26.761 346.082 29.3415C337.442 34.4771 332.169 43.8054 332.223 53.8565C332.178 63.905 337.449 73.2288 346.082 78.3714C350.287 80.9042 354.923 82.1944 359.94 82.1944C363.524 82.1944 366.726 81.382 369.593 79.7095C372.457 78.018 374.868 75.6566 376.618 72.8281V82.2422C376.618 85.0139 375.758 87.4988 374.133 89.7448C372.461 91.9908 370.31 93.759 367.634 95.0014C364.944 96.2679 362.006 96.9208 359.032 96.9129C353.573 96.6979 348.515 93.9841 345.317 89.5537H333.227C335.984 96.5912 341.388 102.269 348.28 105.371C351.721 106.948 355.305 107.761 359.032 107.761C363.954 107.761 368.59 106.614 372.939 104.416C377.239 102.217 380.776 99.159 383.404 95.2404C386.032 91.3696 387.37 87.021 387.37 82.2422V26.9999H376.618V26.9521ZM313.204 80.7608H323.909V0H313.204V80.7608ZM300.11 13.715C300.309 15.8799 299.266 17.9708 297.417 19.1146C295.568 20.2584 293.232 20.2584 291.383 19.1146C289.534 17.9708 288.491 15.8799 288.689 13.715C288.96 10.7629 291.435 8.50344 294.4 8.50344C297.364 8.50344 299.84 10.7629 300.11 13.715ZM289.024 80.8086H299.776V26.9521H289.024V80.8086ZM247.831 71.8245C250.816 71.8782 253.748 71.0287 256.242 69.3874C258.631 67.7626 260.542 65.5644 261.88 62.8883C263.266 60.1644 263.935 57.1538 263.935 53.8565C263.935 50.5113 263.266 47.5007 261.88 44.7768C260.625 42.1391 258.676 39.8926 256.242 38.2777C250.988 35.0766 244.387 35.0766 239.134 38.2777C233.676 41.5536 230.379 47.4916 230.484 53.8565C230.455 60.2138 233.778 66.116 239.229 69.3874C241.905 71.0121 244.773 71.7767 247.831 71.7767V71.8245ZM275.548 26.9043V80.8086H264.843V72.5891C261.309 78.6551 254.754 82.3172 247.735 82.1466C232.179 81.9402 219.625 69.3655 219.445 53.8087C219.523 38.1933 232.121 25.5316 247.735 25.3751C254.774 25.224 261.334 28.9254 264.843 35.0282V26.9043H275.595H275.548ZM129.031 26.9043H139.784V33.1167C140.978 31.5397 142.173 30.2495 143.368 29.2937C145.886 27.2409 149.056 26.1562 152.304 26.2353C156.27 26.2353 159.759 27.1911 162.817 28.9592C165.923 30.7273 168.552 33.2601 170.654 36.5096C174.443 30.0452 181.417 26.1198 188.909 26.2353C193.401 26.2353 197.415 27.3822 200.951 29.676C204.496 31.9602 207.354 35.1646 209.219 38.9468C211.226 42.8176 212.182 47.0706 212.182 51.706V80.8086H201.429V51.706C201.429 48.9821 200.951 46.4972 199.9 44.299C198.962 42.167 197.458 40.3326 195.551 38.9946C193.64 37.6565 191.442 37.0353 188.909 37.0353C184.042 36.9642 179.61 39.8305 177.679 44.299C176.561 46.6071 175.989 49.1414 176.006 51.706V80.8086H165.302V51.706C165.302 49.0299 164.776 46.545 163.629 44.299C162.599 42.1544 161.015 40.3234 159.042 38.9946C157.061 37.68 154.729 36.9969 152.352 37.0353C149.962 37.0353 147.86 37.7043 145.948 39.0901C144.037 40.476 142.603 42.3397 141.456 44.6335C140.359 46.9978 139.804 49.5775 139.831 52.1839V80.8086H129.079V26.9521L129.031 26.9043Z" fill="#131B20"/>
<path d="M50.1343 0.046875C78.5678 0.046875 101.745 23.2238 101.745 51.7051C101.711 57.7334 98.436 63.2771 93.1723 66.2156C87.9087 69.1542 81.471 69.0328 76.3218 65.898L76.0829 65.7546L75.9873 65.9936C68.7906 79.0394 53.0143 84.6966 39.1673 79.1968C25.3204 73.6969 17.725 58.7569 21.4407 44.3284C25.1564 29.9 39.0233 20.4869 53.8043 22.3596C68.5854 24.2322 79.6668 36.8059 79.6669 51.7051C79.9299 54.504 82.2795 56.6432 85.0908 56.6432C87.9021 56.6432 90.2517 54.504 90.5147 51.7051C90.5147 29.3959 72.4435 11.3033 50.1343 11.2769C31.4217 11.2432 15.1314 24.0556 10.7547 42.2492C6.37795 60.4428 15.0587 79.2623 31.7393 87.743C48.4198 96.2236 68.7404 92.1488 80.8616 77.8926L89.4634 85.1563C79.6816 96.736 65.2925 103.415 50.1343 103.411C22.2027 102.562 0 79.6735 0 51.729C0 23.7845 22.2027 0.896314 50.1343 0.046875ZM50.1343 33.4025C43.3632 33.0656 36.958 36.4894 33.4765 42.3066C29.995 48.1239 30.0045 55.3867 33.5011 61.1948C36.9978 67.003 43.4119 70.4101 50.1821 70.0555C59.9396 69.5445 67.5855 61.4772 67.5727 51.7063C67.56 41.9354 59.8931 33.8881 50.1343 33.4025ZM50.1343 44.2981C54.2251 44.2981 57.5413 47.6143 57.5413 51.7051C57.5413 55.7959 54.2251 59.1122 50.1343 59.1122C46.0435 59.1122 42.7272 55.7959 42.7272 51.7051C42.7272 47.6143 46.0435 44.2981 50.1343 44.2981Z" fill="#F06B66"/>
</g>
<defs>
<clipPath id="clip0_1_6830">
<rect width="512" height="108" fill="white"/>
</clipPath>
</defs>
</svg>
