<svg width="256" height="261" viewBox="0 0 256 261" fill="none" xmlns="http://www.w3.org/2000/svg">
<g clip-path="url(#clip0_1_6827)">
<path d="M126.143 0.046875C197.685 0.046875 256 58.3623 256 130.024C255.915 145.192 247.675 159.14 234.431 166.534C221.187 173.928 204.989 173.622 192.033 165.735L191.432 165.374L191.192 165.975C173.084 198.8 133.389 213.034 98.549 199.196C63.7085 185.358 44.5979 147.767 53.947 111.464C63.296 75.1602 98.1864 51.4762 135.377 56.1879C172.568 60.8995 200.45 92.5362 200.45 130.024C201.112 137.067 207.024 142.449 214.097 142.449C221.17 142.449 227.082 137.067 227.744 130.024C227.744 73.8919 182.275 28.3692 126.143 28.3028C79.0602 28.218 38.0722 60.4553 27.0599 106.232C16.0476 152.009 37.8892 199.361 79.8592 220.699C121.829 242.037 172.958 231.785 203.456 195.915L225.099 214.191C200.487 243.326 164.283 260.131 126.143 260.122C55.8643 257.984 0 200.395 0 130.084C0 59.7732 55.8643 2.18415 126.143 0.046875ZM126.143 83.973C109.106 83.1253 92.99 91.7399 84.2302 106.377C75.4704 121.013 75.4942 139.287 84.2922 153.901C93.0901 168.515 109.229 177.088 126.263 176.196C150.814 174.91 170.052 154.612 170.02 130.027C169.988 105.443 150.697 85.1948 126.143 83.973ZM126.143 111.387C136.436 111.387 144.78 119.731 144.78 130.024C144.78 140.317 136.436 148.661 126.143 148.661C115.85 148.661 107.506 140.317 107.506 130.024C107.506 119.731 115.85 111.387 126.143 111.387Z" fill="#F06B66"/>
</g>
<defs>
<clipPath id="clip0_1_6827">
<rect width="256" height="261" fill="white"/>
</clipPath>
</defs>
</svg>
