<svg width="256" height="328" viewBox="0 0 256 328" fill="none" xmlns="http://www.w3.org/2000/svg">
<g clip-path="url(#clip0_1_6841)">
<path d="M131.488 0.0140272C137.616 0.433007 142.359 10.1697 144.465 24.5106L144.809 27.0881L144.96 28.411L145.219 31.1212L145.326 32.5071L145.497 35.3369C145.544 36.2925 145.581 37.2603 145.607 38.2392L145.654 41.2084C145.673 44.7092 145.56 48.3346 145.307 52.0436C145.017 56.2824 144.559 60.388 143.957 64.3018L143.48 67.2002L142.95 70.0212C142.396 72.8017 141.768 75.4578 141.076 77.9648L140.363 80.4212L139.611 82.7726C135.623 94.6415 130.122 102.09 124.535 101.708C118.227 101.277 113.387 90.9716 111.379 75.9343L111.063 73.3111C111.015 72.8664 110.97 72.4182 110.927 71.9665L110.697 69.215C110.262 63.1665 110.245 56.5665 110.716 49.6784L110.965 46.5252C111.105 44.962 111.267 43.4196 111.451 41.9011L111.847 38.8968L112.298 35.9617C112.617 34.0293 112.97 32.1466 113.356 30.3211L113.958 27.6265L114.277 26.313L114.947 23.7572C115.985 19.9968 117.165 16.5718 118.454 13.5657L119.329 11.6246L120.234 9.81319C123.602 3.41561 127.523 -0.257078 131.488 0.0140272ZM8.87573 41.4779C10.5508 35.8485 20.262 33.3221 33.7477 34.0634L35.1561 34.1517L37.7823 34.3722L39.1256 34.5115L40.4878 34.6702L43.2663 35.0458L44.6809 35.2628L47.5569 35.7555L49.0168 36.0311L50.4902 36.3264L53.4743 36.9758C55.4793 37.4351 57.5141 37.9468 59.5701 38.5114L62.6692 39.3979L65.7488 40.3499L67.2626 40.8444L70.2351 41.8683L71.6924 42.3968L75.2465 43.7624L75.9413 44.0427L78.6648 45.1859C79.8549 45.7014 81.0174 46.2266 82.1502 46.76L83.8269 47.566L86.2551 48.7956C100.108 56.0348 108.412 64.3724 106.575 70.5488C104.9 76.1782 95.1883 78.7046 81.7026 77.9633L80.2942 77.875L77.668 77.6545L76.3248 77.5152L74.9625 77.3565L72.1841 76.9809L70.7695 76.7639L69.339 76.5273L66.4335 75.9956L63.474 75.3854C59.9922 74.6277 56.4129 73.7094 52.7811 72.6288L50.4651 71.9195L48.1877 71.1823L45.2153 70.1584L43.7579 69.63L40.9041 68.5423C38.4438 67.5735 36.0816 66.5611 33.8333 65.5161L31.6234 64.4607L29.1952 63.2311C15.3424 55.9919 7.03789 47.6543 8.87573 41.4779ZM247.134 41.3467C249.024 47.6996 240.184 56.3389 225.614 63.7176L223.133 64.9351C221.023 65.939 218.808 66.9147 216.501 67.8528L213.689 68.9599C211.786 69.6851 209.828 70.3838 207.822 71.0511L204.777 72.028L203.228 72.4976C201.672 72.9607 200.125 73.394 198.591 73.7977L195.543 74.5654L192.536 75.2542C190.546 75.6872 188.588 76.0677 186.671 76.3962L183.825 76.8497C182.888 76.9879 181.961 77.1131 181.047 77.2254L178.342 77.5233C162.785 79.0352 151.273 76.5941 149.435 70.4176C147.671 64.4883 155.253 56.5672 168.119 49.5382L170.592 48.2314C173.125 46.9365 175.835 45.6793 178.695 44.4788L181.463 43.3532C184.744 42.0615 188.199 40.8472 191.792 39.7364L193.34 39.2668C195.416 38.6493 197.474 38.0847 199.506 37.5729L202.535 36.8447C205.543 36.1559 208.483 35.5852 211.329 35.1317L214.141 34.7171L216.884 34.3803C233.119 32.5927 245.243 34.9938 247.134 41.3467Z" fill="#008000"/>
<path d="M83.5338 100.217C61.3464 100.227 43.3655 118.087 43.3655 140.114C43.3655 162.147 61.3551 180.009 83.5481 180.011C105.743 180.011 123.735 162.149 123.735 140.114C123.735 118.079 105.743 100.217 83.5481 100.217C83.5433 100.217 83.5386 100.217 83.5338 100.217ZM172.177 100.217C149.99 100.227 132.009 118.087 132.009 140.114C132.009 162.147 149.999 180.009 172.192 180.011C194.386 180.011 212.379 162.149 212.379 140.114C212.379 118.079 194.386 100.217 172.192 100.217C172.188 100.217 172.185 100.217 172.182 100.217H172.177ZM35.4679 149.025C15.2377 151.4 -0.00250039 168.427 3.07702e-07 188.651C0.00264637 210.682 17.9915 228.541 40.1826 228.543C62.3756 228.543 80.3674 210.684 80.37 188.651C80.3685 188.438 80.3654 188.226 80.3605 188.013C58.1946 186.693 39.7328 170.657 35.4679 149.02V149.025ZM220.533 149.367C216.268 171.006 197.804 187.042 175.636 188.361C175.633 188.573 175.631 188.786 175.631 188.998C175.634 211.031 193.626 228.891 215.819 228.891C238.008 228.885 255.994 211.027 255.997 188.998C256.001 168.772 240.761 151.743 220.529 149.367H220.533ZM127.998 160.966C120.498 176.573 105.179 187.017 87.815 188.361C87.815 188.511 87.815 188.662 87.815 188.813C87.815 210.845 105.805 228.707 127.998 228.71C150.193 228.71 168.186 210.847 168.186 188.813C168.186 188.662 168.183 188.511 168.181 188.361C150.818 187.017 135.498 176.573 127.998 160.966ZM83.5481 210.112C76.0483 225.719 60.7285 236.163 43.3648 237.507C43.3648 237.657 43.3648 237.808 43.3648 237.959C43.3681 259.99 61.3569 277.848 83.5481 277.851C105.741 277.851 123.733 259.991 123.735 237.959C123.735 237.808 123.733 237.657 123.731 237.507C106.368 236.163 91.0479 225.719 83.5481 210.112ZM172.192 210.112C164.692 225.719 149.372 236.163 132.009 237.507C132.006 237.657 132.004 237.808 132.004 237.959C132.007 259.991 149.999 277.851 172.192 277.851C194.385 277.851 212.376 259.991 212.379 237.959C212.377 237.808 212.373 237.657 212.369 237.507C195.006 236.163 179.687 225.719 172.187 210.112H172.192ZM127.994 259.354C120.495 274.958 105.177 285.402 87.815 286.748C87.815 286.898 87.815 287.049 87.815 287.2C87.815 309.232 105.805 327.094 127.998 327.097C138.657 327.097 148.878 322.893 156.415 315.411C163.952 307.929 168.186 297.781 168.186 287.2C168.186 287.049 168.183 286.898 168.181 286.748C150.818 285.404 135.498 274.96 127.998 259.354H127.994Z" fill="#FF0000"/>
</g>
<defs>
<clipPath id="clip0_1_6841">
<rect width="256" height="328" fill="white"/>
</clipPath>
</defs>
</svg>
