<svg width="256" height="258" viewBox="0 0 256 258" fill="none" xmlns="http://www.w3.org/2000/svg">
<g clip-path="url(#clip0_1_6848)">
<path d="M256 128.661C256 57.604 198.693 0 128.002 0C57.3072 0 0 57.604 0 128.661C0 199.717 57.3072 257.323 128 257.323C198.693 257.323 256 199.717 256 128.661Z" fill="#339AF0"/>
<path d="M110.576 64.111C113.131 63.7319 115.732 64.387 117.803 65.9312C122.045 69.0938 125.958 72.6733 129.484 76.6155L130.357 77.6086H157.966C163.351 77.6086 167.711 81.9831 167.711 87.3853C167.711 92.669 163.535 96.9686 158.323 97.1571L157.966 97.1636H142.716C146.977 106.973 149.164 117.556 149.141 128.251C149.163 138.562 147.129 148.771 143.163 158.281L142.715 159.335H157.957C163.343 159.335 167.703 163.711 167.703 169.113C167.703 174.395 163.526 178.696 158.314 178.885L157.957 178.891H130.341C126.594 183.223 122.387 187.134 117.795 190.558C115.722 192.104 113.117 192.759 110.559 192.379C108 191.998 105.699 190.613 104.165 188.531C103.404 187.5 102.853 186.327 102.542 185.08C101.913 182.562 102.307 179.898 103.638 177.671C104.294 176.572 105.161 175.614 106.189 174.851C121.098 163.744 129.658 146.761 129.658 128.249C129.658 109.738 121.098 92.7543 106.189 81.6468C105.16 80.8849 104.292 79.9267 103.635 78.8273C101.683 75.549 101.808 71.451 103.922 68.3053L104.165 67.9598C105.715 65.8796 108.017 64.4954 110.576 64.111ZM108.821 111.522C110.599 112.28 112.207 113.387 113.549 114.778C114.896 116.175 115.952 117.827 116.654 119.636C117.358 121.45 117.696 123.386 117.649 125.332C117.561 129.133 116.002 132.752 113.299 135.427C110.615 138.084 106.992 139.576 103.215 139.579C99.437 139.576 95.8124 138.085 93.1271 135.427C90.4246 132.752 88.8654 129.133 88.7779 125.332C88.7314 123.386 89.0704 121.45 89.7756 119.636C90.478 117.827 91.5336 116.175 92.8809 114.778C94.2224 113.387 95.8297 112.28 97.6074 111.522C101.189 109.995 105.239 109.995 108.821 111.522Z" fill="white"/>
</g>
<defs>
<clipPath id="clip0_1_6848">
<rect width="256" height="258" fill="white"/>
</clipPath>
</defs>
</svg>
