<svg width="512" height="134" viewBox="0 0 512 134" fill="none" xmlns="http://www.w3.org/2000/svg">
<g clip-path="url(#clip0_1_6852)">
<path d="M133.275 66.9818C133.275 29.989 103.44 0 66.6383 0C29.8344 0 0 29.989 0 66.9818C0 103.974 29.8344 133.964 66.6375 133.964C103.44 133.964 133.275 103.974 133.275 66.9818Z" fill="#339AF0"/>
<path d="M57.5665 33.377C58.8968 33.1797 60.2509 33.5207 61.329 34.3246C63.5373 35.9711 65.5744 37.8346 67.4098 39.8869L67.8645 40.4039H82.238C85.0414 40.4039 87.3114 42.6813 87.3114 45.4937C87.3114 48.2444 85.1373 50.4829 82.4239 50.581L82.238 50.5843H74.2988C76.5169 55.691 77.6557 61.2009 77.6438 66.7685C77.6548 72.1367 76.596 77.4513 74.5315 82.4023L74.298 82.9509H82.2331C85.0373 82.9509 87.3073 85.2291 87.3073 88.0416C87.3073 90.7915 85.1324 93.0307 82.4189 93.1288L82.2331 93.1322H67.8563C65.9054 95.3872 63.7155 97.4236 61.3249 99.2057C60.2454 100.011 58.8894 100.352 57.5575 100.154C56.2255 99.9558 55.0275 99.2348 54.229 98.1505C53.8328 97.6138 53.546 97.0031 53.3841 96.3539C53.0564 95.0434 53.2615 93.6564 53.9545 92.4969C54.2959 91.9247 54.7473 91.4259 55.2826 91.029C63.0443 85.2464 67.5004 76.4048 67.5004 66.7676C67.5004 57.1305 63.0443 48.2889 55.2826 42.5062C54.7467 42.1096 54.2948 41.6107 53.9528 41.0384C52.9368 39.3317 53.0017 37.1982 54.1024 35.5606L54.229 35.3807C55.0356 34.2978 56.2341 33.5771 57.5665 33.377ZM56.6526 58.0592C57.5784 58.4538 58.4154 59.0304 59.1141 59.7547C59.8155 60.482 60.365 61.3416 60.7307 62.2836C61.0973 63.2281 61.2733 64.2359 61.2485 65.2488C61.2029 67.2279 60.3912 69.1121 58.9843 70.5046C57.5867 71.8877 55.7004 72.6643 53.7342 72.6661C51.7674 72.6647 49.8805 71.8881 48.4825 70.5046C47.0755 69.1121 46.2638 67.2279 46.2183 65.2488C46.194 64.2358 46.3706 63.228 46.7377 62.2836C47.1034 61.3416 47.6529 60.482 48.3543 59.7547C49.0527 59.0305 49.8895 58.4539 50.8149 58.0592C52.6797 57.2646 54.7879 57.2646 56.6526 58.0592Z" fill="white"/>
<path d="M239.767 104.085C241.398 104.085 242.909 103.728 244.302 103.015C245.695 102.301 246.391 101.265 246.391 99.9065V36.2121C246.391 33.7662 245.712 32.051 244.353 31.0656C242.994 30.0802 241.466 29.5879 239.767 29.5879C238.205 29.5879 236.845 29.758 235.691 30.0974C234.536 30.4369 233.499 31.1166 232.582 32.1357C231.665 33.1548 230.595 34.6497 229.372 36.6197L216.837 59.4478L204.404 36.6197C203.317 34.6497 202.281 33.1548 201.296 32.1357C200.31 31.1166 199.257 30.4369 198.136 30.0974C197.015 29.758 195.64 29.5879 194.009 29.5879C192.378 29.5879 190.867 30.081 189.474 31.0656C188.081 32.051 187.385 33.7662 187.385 36.2121V99.9065C187.385 101.265 188.081 102.301 189.474 103.015C190.867 103.728 192.378 104.085 194.009 104.085C195.708 104.085 197.236 103.728 198.595 103.015C199.954 102.301 200.633 101.265 200.633 99.9065V55.2695L212.353 77.2822C212.964 78.3013 213.661 78.9975 214.442 79.3714C215.223 79.7454 215.987 79.9319 216.735 79.9319C217.55 79.9319 218.366 79.7281 219.181 79.3205C219.996 78.9128 220.71 78.2331 221.321 77.2822L233.143 56.0847V99.9065C233.143 101.265 233.839 102.301 235.232 103.015C236.625 103.728 238.136 104.085 239.767 104.085ZM268.019 105.002C271.551 105.002 274.557 104.187 277.038 102.556C279.517 100.926 281.675 99.0575 283.509 96.951V99.9065C283.509 101.061 284.07 102.047 285.191 102.862C286.312 103.677 287.722 104.085 289.42 104.085C291.254 104.085 292.783 103.677 294.006 102.862C295.229 102.047 295.84 101.062 295.84 99.9065V74.9383C295.84 71.4733 295.11 68.2459 293.649 65.2567C292.188 62.2676 289.861 59.8218 286.668 57.9191C283.475 56.0165 279.229 55.0656 273.929 55.0656C271.551 55.0656 269.105 55.3714 266.592 55.9828C264.078 56.5943 261.955 57.4605 260.222 58.5816C258.49 59.7026 257.624 60.9765 257.624 62.4032C257.624 63.8982 258.014 65.3587 258.796 66.7854C259.576 68.2122 260.681 68.9255 262.108 68.9255C262.99 68.9255 263.806 68.6543 264.554 68.1102C265.301 67.567 266.371 67.0402 267.764 66.5306C269.156 66.0211 271.143 65.7663 273.726 65.7663C276.035 65.7663 277.818 66.2421 279.076 67.193C280.333 68.1439 281.25 69.3332 281.827 70.7599C282.398 72.1506 282.692 73.639 282.694 75.1421V76.4669H278.515C273.827 76.4669 269.7 76.9083 266.133 77.7918C262.566 78.6753 259.78 80.204 257.777 82.3778C255.772 84.5516 254.77 87.5752 254.77 91.4479C254.77 96.0676 256.078 99.4816 258.694 101.69C261.309 103.898 264.417 105.002 268.019 105.002ZM273.318 95.2186C271.823 95.2186 270.549 94.7772 269.496 93.8937C268.443 93.0102 267.917 91.6172 267.917 89.7154C267.917 87.8128 268.545 86.4033 269.802 85.4861C271.059 84.5689 272.706 83.9738 274.745 83.7026C276.783 83.4314 278.923 83.295 281.165 83.295H282.694V85.4351C282.694 87.0657 282.201 88.6281 281.216 90.123C280.231 91.618 279.025 92.8409 277.598 93.7918C276.171 94.7427 274.745 95.2186 273.318 95.2186ZM342.493 104.085C344.192 104.085 345.721 103.728 347.079 103.015C348.438 102.301 349.118 101.265 349.118 99.9065V75.7536C349.118 71.9483 348.319 68.4842 346.723 65.3586C345.126 62.2331 343.003 59.7371 340.353 57.8682C337.703 56.0001 334.782 55.0656 331.589 55.0656C328.192 55.0656 325.321 55.8637 322.977 57.4605C320.633 59.0574 318.952 60.8409 317.933 62.8109V59.7535C317.933 58.5306 317.372 57.5452 316.251 56.7981C315.13 56.0502 313.754 55.6771 312.124 55.6771C310.221 55.6771 308.659 56.0511 307.436 56.7981C306.213 57.546 305.602 58.5306 305.602 59.7535V99.9065C305.602 100.926 306.213 101.876 307.436 102.76C308.659 103.643 310.222 104.085 312.124 104.085C313.958 104.085 315.521 103.643 316.812 102.76C318.102 101.876 318.748 100.926 318.748 99.9065V75.7536C318.748 73.851 319.156 72.2204 319.971 70.8618C320.786 69.5033 321.839 68.4497 323.13 67.7026C324.421 66.9547 325.746 66.5816 327.105 66.5816C328.735 66.5816 330.23 67.0402 331.589 67.9574C332.947 68.8746 334.017 70.012 334.799 71.3714C335.573 72.7018 335.977 74.2146 335.971 75.7536V99.9065C335.971 101.265 336.684 102.301 338.111 103.015C339.538 103.728 340.998 104.085 342.493 104.085ZM381.476 104.085C383.379 104.085 384.788 103.507 385.705 102.352C386.622 101.198 387.081 99.9065 387.081 98.4797C387.081 97.1212 386.622 95.8637 385.705 94.709C384.788 93.5543 383.379 92.9765 381.476 92.9765H377.501C375.395 92.9765 373.918 92.5689 373.068 91.7536C372.219 90.9383 371.794 89.5452 371.794 87.5752V65.2567H383.82C384.907 65.2567 385.739 64.7636 386.317 63.779C386.894 62.7936 387.183 61.6898 387.183 60.4669C387.183 59.244 386.894 58.1402 386.317 57.1548C385.739 56.1694 384.907 55.6771 383.82 55.6771H371.794V38.1484C371.794 36.9255 371.098 35.9401 369.705 35.193C368.312 34.4451 366.801 34.072 365.17 34.072C363.675 34.072 362.215 34.4459 360.788 35.193C359.361 35.9409 358.648 36.9255 358.648 38.1484V87.5752C358.648 93.2823 360.261 97.4606 363.489 100.11C366.716 102.76 371.387 104.085 377.501 104.085H381.476ZM400.438 44.8745C402.408 44.8745 404.089 44.2121 405.482 42.8873C406.876 41.5624 407.572 40.0847 407.572 38.4541C407.572 36.6871 406.876 35.1757 405.482 33.9191C404.089 32.6617 402.409 32.0338 400.438 32.0338C398.468 32.0338 396.769 32.6625 395.342 33.9191C393.916 35.1766 393.202 36.688 393.202 38.4541C393.202 40.0847 393.916 41.5624 395.342 42.8873C396.769 44.2121 398.468 44.8745 400.438 44.8745ZM400.438 104.085C402.272 104.085 403.835 103.643 405.126 102.76C406.416 101.876 407.062 100.926 407.062 99.9065V59.7535C407.062 58.5306 406.417 57.5452 405.126 56.7981C403.836 56.0502 402.272 55.6771 400.438 55.6771C398.535 55.6771 396.973 56.0511 395.75 56.7981C394.527 57.546 393.916 58.5306 393.916 59.7535V99.9065C393.916 100.926 394.527 101.876 395.75 102.76C396.973 103.643 398.536 104.085 400.438 104.085ZM454.062 104.085C455.76 104.085 457.289 103.728 458.648 103.015C460.007 102.301 460.686 101.265 460.686 99.9065V75.7536C460.686 71.9483 459.887 68.4842 458.291 65.3586C456.694 62.2331 454.572 59.7371 451.922 57.8682C449.272 56.0001 446.35 55.0656 443.158 55.0656C439.76 55.0656 436.89 55.8637 434.546 57.4605C432.202 59.0574 430.521 60.8409 429.501 62.8109V59.7535C429.501 58.5306 428.941 57.5452 427.82 56.7981C426.699 56.0502 425.323 55.6771 423.693 55.6771C421.79 55.6771 420.228 56.0511 419.005 56.7981C417.782 57.546 417.17 58.5306 417.17 59.7535V99.9065C417.17 100.926 417.782 101.876 419.005 102.76C420.228 103.643 421.791 104.085 423.693 104.085C425.527 104.085 427.089 103.643 428.38 102.76C429.671 101.876 430.317 100.926 430.317 99.9065V75.7536C430.317 73.851 430.724 72.2204 431.54 70.8618C432.355 69.5033 433.408 68.4497 434.699 67.7026C435.989 66.9547 437.314 66.5816 438.673 66.5816C440.304 66.5816 441.798 67.0402 443.158 67.9574C444.516 68.8746 445.586 70.012 446.368 71.3714C447.141 72.7018 447.546 74.2146 447.54 75.7536V99.9065C447.54 101.265 448.253 102.301 449.68 103.015C451.107 103.728 452.567 104.085 454.062 104.085ZM493.248 105.002C496.917 105.002 500.093 104.543 502.777 103.626C505.46 102.709 507.532 101.588 508.994 100.263C510.454 98.9383 511.185 97.699 511.185 96.5434C511.185 95.8637 510.981 95.0657 510.573 94.1485C510.17 93.2375 509.58 92.4216 508.841 91.7536C508.093 91.0739 507.21 90.7345 506.191 90.7345C505.239 90.7345 504.22 91.0402 503.134 91.6517C502.046 92.2631 500.755 92.9091 499.261 93.588C497.766 94.2677 495.898 94.6071 493.656 94.6071C490.123 94.6071 487.252 93.7072 485.045 91.9065C482.836 90.1066 481.732 87.7454 481.732 84.8237V83.295H502.42C503.983 83.295 505.494 83.1421 506.955 82.8364C508.416 82.5307 509.622 81.7491 510.573 80.4924C511.524 79.235 512 77.1466 512 74.2249C512 70.4197 511.015 67.0911 509.045 64.2376C507.074 61.3841 504.51 59.1421 501.35 57.5115C498.191 55.8809 494.71 55.0656 490.904 55.0656C486.76 55.0656 483.006 56.0001 479.643 57.8682C476.28 59.7363 473.596 62.2158 471.592 65.3077C469.588 68.3987 468.586 71.779 468.586 75.4478V84.1103C468.586 88.2549 469.639 91.9065 471.745 95.0657C473.851 98.2249 476.755 100.671 480.459 102.403C484.161 104.136 488.424 105.002 493.248 105.002ZM496.612 75.5497H481.732V72.6962C481.732 71.0657 482.157 69.6553 483.006 68.4669C483.855 67.2777 484.959 66.3605 486.318 65.7153C487.677 65.0702 489.137 64.7472 490.701 64.7472C492.331 64.7472 493.825 65.0866 495.185 65.7663C496.543 66.446 497.631 67.3969 498.446 68.6198C499.261 69.8427 499.669 71.2358 499.669 72.7982C499.669 73.8855 499.448 74.6153 499.006 74.9892C498.564 75.3632 497.766 75.5497 496.612 75.5497Z" fill="black"/>
</g>
<defs>
<clipPath id="clip0_1_6852">
<rect width="512" height="134" fill="white"/>
</clipPath>
</defs>
</svg>
