<svg width="512" height="150" viewBox="0 0 512 150" fill="none" xmlns="http://www.w3.org/2000/svg">
<g clip-path="url(#clip0_1_6881)">
<path d="M343.618 56.5204C355.926 56.5204 365.736 66.3316 365.736 80.9628C365.736 95.594 355.926 105.577 343.618 105.577C336.474 105.577 332.34 101.962 328.491 96.8863V127.879H316.944V57.6337H328.491V64.6101C331.378 59.7911 336.474 56.5204 343.618 56.5204ZM434.085 56.6532C447.771 56.6532 457.926 65.9092 457.926 80.6251C457.926 82.0887 457.839 83.6148 457.582 85.5393H422.812C423.328 91.3129 427.63 95.6922 433.913 95.6922C439.078 95.6922 441.574 93.2374 443.208 90.3507H456.291C453.623 99.011 445.533 105.7 433.913 105.7C420.229 105.7 410.418 96.0049 410.418 81.0292C410.418 66.0545 420.229 56.6532 434.085 56.6532ZM277.158 56.5204C284.215 56.5204 290 59.7911 292.887 64.6101V57.6337H305.396V104.785H292.887V96.8863C290 101.962 284.296 105.577 277.239 105.577C265.019 105.577 254.88 95.594 254.88 80.9628C254.88 66.3316 264.938 56.5204 277.158 56.5204ZM193.437 44.8164L212.718 89.3114L231.996 44.8164H245.423V104.889H233.373V66.934L217.02 104.889H208.328L192.062 67.1063V104.889H179.926V44.8164H193.437ZM404.808 57.2103V67.1063L384.754 94.906H404.808V104.889H370.639V94.906L390.778 67.1063H370.639V57.2103H404.808ZM493.497 56.5204C503.997 56.5204 512 63.7489 512 76.8318V104.889H499.951V78.5543C499.951 70.9803 495.734 67.0216 489.366 67.0216C482.911 67.0216 478.693 70.9803 478.693 78.5543V104.889H466.557V57.2103H478.693V64.3513C481.619 59.361 486.955 56.5204 493.497 56.5204ZM279.591 67.0216C273.394 67.0216 267.024 71.7549 267.024 80.9628C267.024 90.1707 273.394 95.0773 279.591 95.0773C285.873 95.0773 292.242 90.2573 292.242 81.0494C292.242 71.8406 285.873 67.0216 279.591 67.0216ZM340.671 67.0216C334.388 67.0216 328.105 71.8406 328.105 81.0494C328.105 90.2573 334.388 95.0773 340.671 95.0773C346.954 95.0773 353.236 90.1707 353.236 80.9628C353.236 71.7549 346.954 67.0216 340.671 67.0216ZM433.913 67.4286C428.147 67.4286 423.584 71.1054 422.812 77.8412H445.36C445.016 71.1054 440.109 67.4286 433.913 67.4286Z" fill="#54485B"/>
<path d="M102.229 60.6235L149.291 74.5128C150.117 74.7581 150.117 75.1527 149.291 75.3971L93.7344 91.795C92.9079 92.0385 92.0389 92.9064 91.7945 93.734L75.3966 149.291C75.2754 149.704 75.1147 149.911 74.9549 149.911C74.7952 149.911 74.6355 149.704 74.5133 149.291L61.9028 106.565L89.1541 89.45L90.3454 88.7023L102.229 60.6235ZM22.6059 85.5903L27.6636 87.0828L26.6186 122.494L33.4843 120.158L34.4004 89.0718L39.4552 90.5643L38.6353 118.405L59.5895 111.275L61.0329 116.168L38.4736 123.844L38.3399 128.435L62.4792 121.064L63.9216 125.954L33.0349 135.385L33.3227 125.598L21.3069 129.687L22.6059 85.5903ZM127.305 85.5903L128.603 129.687L116.464 125.556L116.754 135.385L85.9786 125.989L87.422 121.101L111.449 128.435L111.313 123.802L88.876 116.168L90.3213 111.275L111.153 118.362L110.333 90.5999L115.39 89.1074L116.304 120.116L123.292 122.494L122.249 87.0828L127.305 85.5903ZM106.967 37.9786L86.7811 85.6692L42.9251 113.21L63.1124 65.5195L106.967 37.9786ZM74.9549 0C75.1147 0 75.2754 0.205924 75.3966 0.619697L88.3236 44.4151L59.5482 62.4864L48.1453 89.424L25.0905 82.6198L22.7147 81.9183L0.619216 75.3971C-0.206405 75.1527 -0.206405 74.7581 0.619216 74.5128L56.1773 58.1149C57.003 57.8714 57.8719 57.0044 58.1153 56.1769L74.5133 0.619697C74.6355 0.205924 74.7952 0 74.9549 0ZM81.1028 68.5814C77.8523 65.3299 72.582 65.3299 69.3305 68.5814C66.079 71.8309 66.079 77.1022 69.3305 80.3537C72.582 83.6042 77.8523 83.6042 81.1028 80.3537C84.3543 77.1022 84.3543 71.8309 81.1028 68.5814ZM33.0349 13.5496L64.1863 23.0606L62.7429 27.9499L38.3399 20.4991L38.5487 27.6314L60.8299 34.4365L59.3855 39.3257L38.7075 33.0094L39.4831 59.3379L34.4283 60.8313L33.5623 31.4381L26.6147 29.3163L27.603 62.8453L22.5482 64.3378L21.3098 22.3659L33.4035 26.059L33.0349 13.5496ZM116.754 13.5496L116.383 26.0975L128.6 22.3659L127.363 64.3378L122.307 62.8453L123.296 29.3163L116.225 31.4756L115.361 60.7957L110.307 59.3023L111.08 33.047L90.5243 39.3257L89.0829 34.4365L111.238 27.6689L111.449 20.4991L87.1574 27.9152L85.714 23.0269L116.754 13.5496Z" fill="#54485B"/>
</g>
<defs>
<clipPath id="clip0_1_6881">
<rect width="512" height="150" fill="white"/>
</clipPath>
</defs>
</svg>
