<svg width="256" height="170" viewBox="0 0 256 170" fill="none" xmlns="http://www.w3.org/2000/svg">
<g clip-path="url(#clip0_1_6885)">
<path d="M250.383 0.00447242C246.426 0.130892 247.677 1.27087 239.128 3.3747C230.496 5.49918 219.95 4.84774 210.654 8.7465C182.903 20.3847 177.335 60.1626 152.107 74.4118C133.249 85.0635 114.224 85.9131 97.1189 91.2731C85.8778 94.798 73.5811 102.027 63.3964 110.804C55.491 117.619 55.2845 123.611 47.0246 132.158C38.1895 141.301 11.9102 132.313 0 146.306C3.83671 150.185 5.51875 151.272 13.0797 150.265C11.5143 153.232 2.28663 155.732 4.09296 160.097C5.99361 164.69 28.3022 167.803 48.5817 155.559C58.0261 149.857 65.5486 141.639 80.2577 139.677C99.2917 137.14 121.219 141.304 143.254 144.482C139.986 154.224 133.427 160.702 128.172 168.461C126.545 170.214 131.44 170.41 137.025 169.351C147.072 166.867 154.312 164.866 161.894 160.453C171.209 155.03 172.621 141.128 184.05 138.12C190.418 147.907 207.737 150.219 218.484 142.391C209.054 139.721 206.448 119.649 209.631 110.804C212.646 102.431 215.625 89.0383 218.662 77.9709C221.922 66.085 223.125 51.1038 227.07 45.0493C233.007 35.9402 239.566 32.812 245.26 27.6755C250.955 22.5389 256.167 17.5389 255.996 5.78539C255.941 1.99965 253.983 -0.1106 250.383 0.00447242Z" fill="#002B64"/>
<path d="M241.905 6.96875C242.854 10.2008 244.337 11.6842 250.75 12.2775C249.813 20.4081 244.39 24.8552 238.309 29.1221C232.957 32.8751 227.095 36.4891 223.328 42.3514C219.468 48.3571 217.018 68.9107 211.034 89.2088C205.861 106.748 198.05 124.089 184.409 131.687C182.984 128.1 184.591 121.48 181.756 119.304C179.922 124.535 177.849 129.525 175.42 134.164C167.416 149.463 155.565 160.918 135.76 164.416C145.157 151.7 154.142 138.569 154.337 116.652C147.724 118.083 147.864 133.704 141.069 137.88C136.713 138.354 132.3 138.352 127.858 138.085C109.618 136.992 90.9072 131.51 73.844 136.985C62.2258 140.714 52.724 149.51 42.8858 153.777C31.323 158.792 22.5664 160.854 8.16751 158.792C6.33926 156.329 18.7055 153.151 17.966 147.804C12.3308 147.181 9.05892 148.546 4.1604 146.32C4.70121 145.324 5.4961 144.494 6.49681 143.802C15.4748 137.588 40.9767 142.335 47.8014 135.633C52.0143 131.5 54.778 127.173 57.6396 122.968C60.4146 118.887 63.2833 114.919 67.6538 111.344C69.2677 110.024 71.0222 108.719 72.8845 107.446C80.3323 102.349 89.546 97.7255 98.6134 94.5389C110.965 90.1968 123.482 89.8391 136.648 84.8085C144.781 81.6999 153.626 77.8603 160.835 72.4877C162.547 71.2102 164.166 69.849 165.664 68.3898C186.25 48.3216 190.331 12.9219 222.449 9.62312C226.333 9.22426 229.512 9.35343 232.407 9.26542C235.742 9.16606 238.695 8.77855 241.905 6.96875ZM202.751 120.268C203.134 126.403 206.696 138.574 209.84 141.533C203.682 143.03 193.075 140.556 190.354 136.212C191.752 129.941 199.028 124.208 202.751 120.268Z" fill="#C49A6C"/>
<path d="M244.219 13.8373C242.981 16.4339 240.611 19.7816 240.611 26.3913C240.601 27.5261 239.749 28.3034 239.735 26.554C239.799 20.094 241.509 17.3013 243.325 13.631C244.169 12.1272 244.678 12.7476 244.219 13.8373ZM242.972 12.8595C241.512 15.3368 237.996 19.8557 237.414 26.4407C237.307 27.5697 236.388 28.2686 236.528 26.5235C237.161 20.0954 239.972 16.0721 242.105 12.5747C243.072 11.1522 243.527 11.8148 242.972 12.8595ZM241.836 11.5634C240.172 13.9085 234.76 19.3355 233.628 25.8493C233.424 26.9638 232.451 27.5857 232.737 25.858C233.908 19.5041 238.574 14.5101 240.993 11.2074C242.077 9.8692 242.474 10.5681 241.836 11.5634ZM240.822 10.1177L240.274 10.6999C237.854 13.2944 232.232 19.6227 230.359 25.4149C229.998 26.4901 228.948 26.9696 229.475 25.2986C231.527 19.1728 237.177 12.5747 240.037 9.64544C241.3 8.47286 241.593 9.22116 240.822 10.1177ZM211.772 23.2325C213.026 17.8462 217.215 15.3921 224.446 15.9907C226.191 24.0302 216.426 27.2733 211.772 23.2325Z" fill="#002B64"/>
</g>
<defs>
<clipPath id="clip0_1_6885">
<rect width="256" height="170" fill="white"/>
</clipPath>
</defs>
</svg>
