<svg width="256" height="315" viewBox="0 0 256 315" fill="none" xmlns="http://www.w3.org/2000/svg">
<g clip-path="url(#clip0_1_6896)">
<path d="M150.815 142.832L180.26 73.1856C180.609 72.3488 181.585 71.9531 182.429 72.3035C183.269 72.6521 183.672 73.6145 183.318 74.453L157.368 135.822L150.815 142.832Z" fill="#939598"/>
<path d="M176.216 107.389C176.216 107.389 162.124 125.856 152.178 136.525C142.224 147.198 127.719 164.025 127.719 164.025V201.646C127.824 201.639 127.92 201.618 128.024 201.618C130.43 201.618 132.379 203.545 132.379 205.925C132.379 208.306 130.428 210.236 128.024 210.236C127.92 210.236 127.824 210.211 127.719 210.203V248.159C127.719 248.159 145.986 235.746 159.218 223.738C174.138 210.197 190.719 189.054 190.719 189.054L176.216 107.39V107.389Z" fill="#931A2B"/>
<path d="M117.376 38.5484L117.24 53.2152L64.0103 74.5364L64.9464 61.5048L117.378 38.5449L117.376 38.5484Z" fill="#A7A9AC"/>
<path d="M191.325 60.9938L192.363 74.0201L138.864 53.1278L138.612 38.4662L191.325 60.9938ZM127.972 33.9126L128.028 48.8932L50.1611 18.4805L51.7771 1.33984L127.972 33.9126ZM51.7771 1.33984L50.1611 18.4805L39.8352 24.5735L41.6204 7.83731L51.7771 1.33984Z" fill="#BCBEC0"/>
<path d="M203.82 0.701172L205.563 17.8313L128.028 48.8926L127.97 33.9102L203.82 0.701172Z" fill="#A7A9AC"/>
<path d="M214.053 7.11691L215.969 23.8409L205.565 17.8315L203.822 0.703125L214.053 7.11691Z" fill="#BCBEC0"/>
<path d="M74.6081 77.5348L64.0085 74.5397L117.24 53.2185L39.8352 24.5753L50.1611 18.4806L128.028 48.8933L205.565 17.832L215.969 23.8414L138.864 53.1296L192.363 74.0202L181.789 77.1024L128.077 57.2282L74.6081 77.5313V77.5348Z" fill="#808285"/>
<path d="M40.6756 120.552C40.6198 120.552 40.564 120.552 40.5099 120.543C39.5999 120.452 38.934 119.654 39.0246 118.747L48.5137 24.066C48.6043 23.1681 49.3958 22.5057 50.3268 22.5963C51.2368 22.6835 51.9027 23.4889 51.8121 24.3885L42.3248 119.07C42.2376 119.917 41.5228 120.552 40.6791 120.552H40.6756ZM211.295 120.552C210.429 120.552 209.695 119.879 209.645 119.009L203.909 23.6772C203.853 22.7706 204.549 21.9914 205.464 21.9373C206.4 21.8763 207.165 22.5719 207.221 23.4784L212.952 118.805C213.009 119.711 212.315 120.489 211.4 120.545C211.363 120.55 211.33 120.55 211.295 120.552ZM100.532 139.605L73.0827 74.8916C72.7288 74.0548 73.1263 73.0889 73.9666 72.7385C74.8138 72.3899 75.7849 72.7839 76.1388 73.6189L106.606 145.445L100.532 139.605Z" fill="#939598"/>
<path d="M123.676 205.928C123.676 203.651 125.462 201.807 127.721 201.648V164.027C127.721 164.027 113.211 147.198 103.262 136.525C93.3142 125.856 79.221 107.389 79.221 107.389L64.7163 189.061C64.7163 189.061 81.2956 210.203 96.2151 223.743C109.447 235.751 127.717 248.162 127.717 248.162V210.204C125.463 210.046 123.676 208.2 123.676 205.928Z" fill="#A81E2C"/>
<path d="M128.024 208.389C127.623 208.389 127.216 208.246 126.898 207.953L69.7687 155.431L69.7512 150.937L128.014 204.493L185.538 150.299L185.769 154.608L129.166 207.934C128.846 208.241 128.434 208.391 128.021 208.391H128.024V208.389Z" fill="#939598"/>
<path d="M247.515 118.879L176.218 107.39C176.218 107.39 182.849 145.146 182.849 208.348C182.849 271.556 174.145 314.649 174.145 314.649L246.272 306.849C246.272 306.849 255.388 272.365 255.388 212.858C255.385 153.352 247.512 118.877 247.512 118.877L247.515 118.879ZM214.557 285.508C212.612 285.508 211.034 283.95 211.034 282.022C211.034 280.101 212.61 278.535 214.557 278.535C216.505 278.535 218.079 280.101 218.079 282.022C218.079 283.946 216.506 285.508 214.557 285.508ZM72.5893 208.346C72.5893 145.144 79.221 107.389 79.221 107.389L7.925 118.877C7.925 118.877 0.050293 153.354 0.050293 212.861C0.050293 272.376 9.16801 306.852 9.16801 306.852L81.2939 314.656C81.2939 314.647 72.5893 271.558 72.5893 208.346ZM39.5563 285.28C37.7433 285.28 36.2701 283.821 36.2701 282.025C36.2701 280.228 37.7398 278.77 39.5546 278.77C41.3677 278.77 42.8391 280.228 42.8391 282.022C42.8391 283.814 41.3694 285.275 39.5546 285.275L39.5563 285.28Z" fill="#CE2227"/>
<path d="M214.557 142.831C216.357 142.831 217.815 141.387 217.815 139.606C217.815 137.825 216.357 136.381 214.557 136.381C212.758 136.381 211.299 137.825 211.299 139.606C211.299 141.387 212.758 142.831 214.557 142.831Z" fill="#A51724"/>
<path d="M214.561 283.664C214.434 283.664 214.303 283.646 214.172 283.615C213.283 283.408 212.732 282.529 212.943 281.638C212.994 281.436 217.871 260.458 217.871 211.875C217.871 163.197 212.983 140.174 212.936 139.951C212.746 139.062 213.314 138.19 214.207 137.998C215.096 137.807 215.987 138.371 216.177 139.259C216.227 139.485 221.187 162.855 221.187 211.875C221.187 260.922 216.374 281.541 216.17 282.395C215.987 283.16 215.307 283.666 214.559 283.666V283.664H214.561Z" fill="#939598"/>
<path d="M39.5563 143.388C41.6668 143.388 43.3777 141.695 43.3777 139.605C43.3777 137.516 41.6668 135.822 39.5563 135.822C37.4458 135.822 35.7349 137.516 35.7349 139.605C35.7349 141.695 37.4458 143.388 39.5563 143.388Z" fill="#A51724"/>
<path d="M39.5528 283.665C38.7457 283.665 38.0396 283.077 37.9141 282.263C37.874 281.991 33.751 254.348 33.751 211.019C33.751 167.688 37.874 139.647 37.9141 139.368C38.0501 138.47 38.8904 137.851 39.7969 137.985C40.7035 138.116 41.3311 138.953 41.1968 139.847C41.1532 140.126 37.0686 167.95 37.0686 211.023C37.0686 254.113 41.1567 281.515 41.1951 281.778C41.3345 282.667 40.7069 283.513 39.8004 283.647C39.7167 283.654 39.633 283.665 39.5528 283.665Z" fill="#939598"/>
</g>
<defs>
<clipPath id="clip0_1_6896">
<rect width="256" height="315" fill="white"/>
</clipPath>
</defs>
</svg>
