<svg width="512" height="151" viewBox="0 0 512 151" fill="none" xmlns="http://www.w3.org/2000/svg">
<g clip-path="url(#clip0_1_6890)">
<path d="M391.382 77.7565C397.824 77.7565 403.051 80.5066 407.065 86.0066V78.7971H412.045V118.263H407.065V111.5C402.556 116.901 397.403 119.601 391.605 119.601C385.808 119.601 380.903 117.545 376.889 113.432C372.925 109.27 370.943 104.34 370.943 98.6418C370.943 92.894 372.95 87.9886 376.963 83.9255C380.977 79.8129 385.783 77.7565 391.382 77.7565ZM301.497 77.7565C307.938 77.7565 313.166 80.5066 317.179 86.0066V78.7971H322.159V118.263H317.179V111.5C312.67 116.901 307.517 119.601 301.72 119.601C295.922 119.601 291.017 117.545 287.003 113.432C283.039 109.27 281.057 104.34 281.057 98.6418C281.057 92.894 283.064 87.9886 287.078 83.9255C291.091 79.8129 295.898 77.7565 301.497 77.7565ZM434.469 64.8984C442.05 64.8984 447.6 65.4683 451.118 66.6079C454.685 67.698 457.757 69.457 460.334 71.8849C462.91 74.2633 464.892 77.1868 466.28 80.6552C467.667 84.1237 468.361 88.1868 468.361 92.8444C468.361 97.4526 467.271 101.813 465.091 105.926C462.96 109.989 460.037 113.061 456.32 115.142C452.654 117.223 447.352 118.263 440.415 118.263H423.395V64.8984H434.469ZM361.348 78.7971V118.263H356.219V78.7971H361.348ZM221.626 64.8984L243.328 108.676L264.882 64.8984H265.7L273.355 118.263H268.078L262.876 80.0606L243.997 118.263H242.659L223.558 79.7633L218.355 118.263H213.227L220.808 64.8984H221.626ZM344.36 77.7565C345.995 77.7565 347.631 78.2025 349.266 79.0944L346.59 83.4052C345.847 82.9593 345.079 82.7363 344.286 82.7363C342.75 82.7363 341.288 83.5291 339.901 85.1147C338.563 86.7003 337.572 88.7566 336.928 91.2836C336.284 93.7611 335.962 98.2949 335.962 104.885V118.263H330.759V78.7971H335.962V84.5201C337.349 82.1913 338.687 80.4818 339.975 79.3917C341.313 78.3016 342.775 77.7565 344.36 77.7565ZM490.044 64.8984C495.643 64.8984 499.879 66.0381 502.753 68.3173C505.677 70.5471 507.138 73.7678 507.138 77.9795C507.138 80.3084 506.544 82.4638 505.355 84.4458C504.215 86.3782 502.53 87.9391 500.301 89.1282C503.967 90.3174 506.742 92.1012 508.625 94.4796C510.557 96.858 511.524 99.6823 511.524 102.953C511.524 107.363 509.913 111.029 506.693 113.953C503.472 116.827 499.31 118.263 494.206 118.263H479.49V64.8984H490.044ZM391.68 82.662C387.319 82.662 383.628 84.2724 380.605 87.4931C377.583 90.6643 376.072 94.4301 376.072 98.7904C376.072 103.151 377.608 106.941 380.68 110.162C383.752 113.333 387.418 114.919 391.68 114.919C395.99 114.919 399.682 113.383 402.754 110.311C405.826 107.239 407.362 103.374 407.362 98.7161C407.362 94.2071 405.851 90.4165 402.828 87.3444C399.806 84.2228 396.09 82.662 391.68 82.662ZM301.794 82.662C297.434 82.662 293.742 84.2724 290.72 87.4931C287.697 90.6643 286.186 94.4301 286.186 98.7904C286.186 103.151 287.722 106.941 290.794 110.162C293.866 113.333 297.533 114.919 301.794 114.919C306.105 114.919 309.796 113.383 312.868 110.311C315.94 107.239 317.477 103.374 317.477 98.7161C317.477 94.2071 315.965 90.4165 312.943 87.3444C309.92 84.2228 306.204 82.662 301.794 82.662ZM432.313 70.1011H428.523V113.209H434.692C441.133 113.209 445.791 112.887 448.665 112.243C451.588 111.599 454.14 110.336 456.32 108.453C458.501 106.52 460.16 104.191 461.3 101.466C462.44 98.7409 463.01 95.6193 463.01 92.1012C463.01 88.5832 462.341 85.3377 461.003 82.3647C459.714 79.3917 457.856 76.939 455.428 75.0065C453.001 73.0741 450.127 71.7859 446.807 71.1417C443.537 70.448 438.705 70.1011 432.313 70.1011ZM487.74 92.5471H484.767V113.061H491.382C495.197 113.061 497.996 112.689 499.78 111.946C501.614 111.153 503.1 109.964 504.24 108.378C505.379 106.743 505.949 105.083 505.949 103.399C505.949 101.714 505.627 100.227 504.983 98.9391C504.339 97.6508 503.373 96.5112 502.084 95.5201C500.846 94.5292 499.334 93.7859 497.551 93.2904C495.816 92.7949 492.546 92.5471 487.74 92.5471ZM490.936 70.1011H484.767V87.1958H487.814C492.472 87.1958 495.94 86.4526 498.219 84.966C500.499 83.4796 501.638 81.1507 501.638 77.9795C501.638 72.7273 498.071 70.1011 490.936 70.1011ZM358.746 63.5605C359.935 63.5605 360.926 63.9818 361.719 64.8241C362.561 65.6169 362.983 66.6079 362.983 67.7971C362.983 68.9367 362.561 69.9277 361.719 70.77C360.926 71.5629 359.935 71.9592 358.746 71.9592C357.606 71.9592 356.615 71.5381 355.773 70.6957C354.98 69.8534 354.584 68.8872 354.584 67.7971C354.584 66.6575 354.98 65.6665 355.773 64.8241C356.615 63.9818 357.606 63.5605 358.746 63.5605Z" fill="#A57242"/>
<path d="M222.341 0.00397153C218.827 0.116232 219.939 1.12854 212.347 2.99674C204.681 4.88329 195.317 4.30481 187.062 7.76693C162.419 18.1017 157.474 53.4247 135.072 66.078C118.326 75.5368 101.431 76.2912 86.242 81.0509C76.2599 84.181 65.3404 90.6003 56.2963 98.3941C49.2762 104.446 49.0929 109.767 41.758 117.357C33.9124 125.476 10.5763 117.494 0 129.92C3.40701 133.365 4.90067 134.33 11.6148 133.436C10.2247 136.071 2.03054 138.291 3.63457 142.167C5.32235 146.245 25.1325 149.01 43.1407 138.137C51.5274 133.074 58.2075 125.776 71.2691 124.034C88.1715 121.781 107.643 125.479 127.21 128.3C124.309 136.951 118.483 142.704 113.817 149.594C112.372 151.15 116.72 151.325 121.679 150.384C130.6 148.178 137.03 146.402 143.763 142.483C152.035 137.668 153.288 125.322 163.437 122.651C169.092 131.342 184.471 133.395 194.015 126.443C185.641 124.073 183.326 106.249 186.153 98.3941C188.831 90.9593 191.476 79.0664 194.173 69.2385C197.068 58.6837 198.136 45.3804 201.64 40.004C206.911 31.915 212.735 29.1372 217.792 24.576C222.849 20.0147 227.477 15.5746 227.325 5.13745C227.277 1.77569 225.538 -0.0982136 222.341 0.00397153Z" fill="#002B64"/>
<path d="M215.447 6.20508C216.292 9.08366 217.613 10.4047 223.324 10.9332C222.49 18.1745 217.659 22.1352 212.244 25.9354C207.478 29.2779 202.256 32.4966 198.901 37.7177C195.464 43.0666 193.282 61.3721 187.952 79.4501C183.345 95.0706 176.388 110.515 164.239 117.283C162.97 114.088 164.401 108.192 161.877 106.254C160.243 110.912 158.396 115.357 156.233 119.489C149.104 133.114 138.55 143.316 120.912 146.431C129.281 135.106 137.283 123.411 137.456 103.892C131.566 105.166 131.691 119.079 125.64 122.798C121.76 123.22 117.829 123.218 113.874 122.98C97.6289 122.007 80.9642 117.125 65.7673 122.001C55.4198 125.322 46.9573 133.156 38.1952 136.956C27.897 141.422 20.0982 143.259 7.27415 141.422C5.64587 139.229 16.6596 136.398 16.0009 131.636C10.982 131.081 8.06807 132.297 3.70532 130.315C4.18698 129.428 4.89493 128.688 5.78619 128.072C13.7822 122.538 36.4948 126.765 42.5731 120.797C46.3252 117.116 48.7866 113.262 51.3352 109.517C53.8067 105.882 56.3617 102.349 60.2541 99.164C61.6915 97.9883 63.2541 96.8265 64.9127 95.6926C71.546 91.1528 79.7519 87.0353 87.8276 84.1972C98.8286 80.33 109.976 80.0115 121.702 75.5311C128.946 72.7626 136.823 69.3429 143.244 64.5579C144.768 63.4201 146.211 62.2078 147.544 60.9082C165.879 43.0349 169.514 11.5071 198.119 8.56913C201.578 8.21389 204.409 8.32893 206.987 8.25055C209.958 8.16206 212.587 7.81693 215.447 6.20508ZM180.575 107.112C180.917 112.576 184.088 123.416 186.889 126.051C181.405 127.385 171.957 125.181 169.534 121.313C170.779 115.728 177.259 110.621 180.575 107.112Z" fill="#C49A6C"/>
<path d="M216.84 12.2241C215.763 14.4832 213.701 17.396 213.701 23.1468C213.692 24.1341 212.951 24.8105 212.939 23.2884C212.994 17.6678 214.482 15.238 216.063 12.0446C216.797 10.7362 217.24 11.276 216.84 12.2241ZM215.755 11.3733C214.485 13.5288 211.425 17.4604 210.92 23.1898C210.826 24.1721 210.027 24.7801 210.149 23.2618C210.7 17.669 213.145 14.1685 215.001 11.1255C215.843 9.88789 216.238 10.4644 215.755 11.3733ZM214.767 10.2457C213.319 12.2861 208.61 17.0079 207.625 22.6752C207.448 23.6449 206.601 24.186 206.85 22.6828C207.869 17.1545 211.929 12.8095 214.034 9.93593C214.977 8.7716 215.322 9.37968 214.767 10.2457ZM213.884 8.98778L213.408 9.49432C211.303 11.7517 206.411 17.2578 204.781 22.2973C204.467 23.2328 203.553 23.6499 204.012 22.1961C205.797 16.8663 210.714 11.1255 213.202 8.57692C214.3 7.55671 214.556 8.20777 213.884 8.98778ZM188.609 20.3984C189.7 15.712 193.345 13.5768 199.637 14.0977C201.155 21.0925 192.658 23.9142 188.609 20.3984Z" fill="#002B64"/>
</g>
<defs>
<clipPath id="clip0_1_6890">
<rect width="512" height="151" fill="white"/>
</clipPath>
</defs>
</svg>
