<svg width="256" height="214" viewBox="0 0 256 214" fill="none" xmlns="http://www.w3.org/2000/svg">
<g clip-path="url(#clip0_1_6916)">
<path d="M80.9001 176C79.7001 174.4 78.1001 173.1 76.1001 172.2C74.1001 171.3 71.5001 170.8 68.3001 170.8C67.1001 170.8 65.8001 170.9 64.6001 171.2C63.4001 171.5 62.2001 171.8 61.1001 172.2C60.0001 172.6 59.0001 173 58.1001 173.5C57.2001 174 56.5001 174.4 55.9001 174.8C54.7001 173.6 53.2001 172.6 51.4001 171.9C49.6001 171.2 47.3001 170.8 44.5001 170.8C41.2001 170.8 38.1001 171 35.2001 171.5C32.3001 172 29.9001 172.5 28.1001 173V212.3H37.5001V179.5C38.1001 179.4 39.1001 179.3 40.3001 179.1C41.5001 178.9 42.7001 178.9 43.7001 178.9C46.6001 178.9 48.6001 179.8 49.6001 181.7C50.7001 183.6 51.2001 186.7 51.2001 190.9V212.3H60.6001V189.8C60.6001 188.1 60.5001 186.6 60.4001 185.1C60.2001 183.6 60.0001 182.3 59.5001 181C60.2001 180.5 61.2001 180.1 62.5001 179.6C63.8001 179.1 65.3001 178.9 66.8001 178.9C69.8001 178.9 71.7001 179.8 72.8001 181.7C73.8001 183.6 74.4001 186.7 74.4001 190.9V212.3H84.0001V189.5C84.0001 186.8 83.8001 184.2 83.3001 181.9C82.9001 179.6 82.1001 177.6 80.9001 176ZM117.4 175.1C116.1 173.7 114.4 172.6 112.3 171.8C110.2 171 107.7 170.7 104.6 170.6H104.4C101.8 170.6 99.4001 170.8 97.1001 171.2C94.8001 171.6 93.1001 172 91.9001 172.4L93.1001 180C94.2001 179.6 95.7001 179.2 97.5001 178.9C99.3001 178.6 101.3 178.4 103.5 178.4H104.6C105.7 178.5 106.7 178.7 107.5 179C108.6 179.4 109.4 180 110.1 180.7C110.7 181.5 111.2 182.3 111.5 183.3C111.8 184.3 111.9 185.3 111.9 186.4V188C110.6 187.7 109.4 187.5 108.2 187.3C107.1 187.2 106 187.1 104.9 187.1H104.6C102.5 187.1 100.4 187.3 98.5001 187.8C96.5001 188.2 94.7001 189 93.1001 190C91.5001 191 90.3001 192.3 89.4001 193.9C88.5001 195.5 88.0001 197.5 88.0001 199.8C88.0001 202.2 88.4001 204.3 89.2001 205.9C90.0001 207.6 91.1001 208.9 92.5001 209.9C93.9001 210.9 95.6001 211.7 97.7001 212.2C99.7001 212.7 101.9 212.9 104.4 212.9H104.6C108.2 212.9 111.4 212.7 114.3 212.2C117.2 211.8 119.4 211.4 120.9 211.1V186.5C120.9 184.1 120.6 181.9 120.1 179.9C119.6 178.2 118.7 176.5 117.4 175.1ZM111.9 205.3C110.4 205.6 108.2 205.8 105.3 205.8H104.7C102.6 205.7 100.9 205.3 99.6001 204.5C98.2001 203.6 97.5001 202.1 97.5001 199.9C97.5001 198.8 97.8001 197.8 98.3001 197.1C98.8001 196.3 99.5001 195.8 100.4 195.4C101.3 195 102.2 194.7 103.3 194.5C103.8 194.4 104.3 194.4 104.8 194.3C105.4 194.3 105.9 194.2 106.5 194.2C107.7 194.2 108.8 194.3 109.8 194.4C110.8 194.6 111.5 194.7 112.1 194.9V205.3H111.9ZM148.4 171.3C147.6 171.2 146.7 171.1 145.9 171C145.1 170.9 144.3 170.9 143.7 170.9C140.4 170.9 137.4 171.2 134.6 171.8C131.9 172.4 129.6 173 127.8 173.7V212.4H137.2V179.8C137.7 179.6 138.5 179.5 139.6 179.3C140.8 179.1 141.9 179 142.9 179C144.7 179 146.3 179.1 147.7 179.4C149.1 179.7 150.1 180 150.9 180.2L152.5 172.3C152 172.1 151.4 172 150.6 171.8C150.1 171.5 149.3 171.4 148.4 171.3ZM182.7 200.4C181.1 198.3 179.4 196.4 177.7 194.5C176 192.7 174.4 191.1 172.8 189.8C175.7 186.8 178.6 183.8 181.4 180.7C184.3 177.6 187 174.6 189.6 171.7H178.5C177.7 172.7 176.7 173.8 175.5 175.2C174.3 176.5 173.1 177.9 171.8 179.3C170.5 180.7 169.2 182.1 167.8 183.6C166.5 185 165.2 186.4 164 187.6V152L154.6 153.6V212.3H164V193.7C165.4 194.7 166.8 196 168.3 197.5C169.8 199 171.2 200.5 172.6 202.2C174 203.9 175.3 205.6 176.5 207.3C177.7 209.1 178.8 210.7 179.7 212.4H190.6C189.7 210.6 188.5 208.7 187.1 206.6C185.8 204.5 184.3 202.4 182.7 200.4ZM226.3 183.2C225.3 180.6 224 178.3 222.3 176.5C220.6 174.6 218.5 173.2 216.1 172.2C213.7 171.2 211.1 170.7 208.2 170.7C205.4 170.7 202.7 171.2 200.4 172.2C198 173.2 196 174.6 194.2 176.5C192.5 178.4 191.1 180.6 190.2 183.2C189.2 185.8 188.8 188.7 188.8 191.9C188.8 195.1 189.3 198 190.2 200.7C191.2 203.3 192.5 205.6 194.2 207.5C195.9 209.4 198 210.8 200.3 211.9C202.7 212.9 205.3 213.5 208.2 213.5C211.1 213.5 213.8 213 216.2 211.9C218.6 210.9 220.7 209.4 222.4 207.5C224.1 205.6 225.4 203.4 226.4 200.7C227.3 198.1 227.8 195.1 227.8 191.9C227.8 188.7 227.3 185.8 226.3 183.2ZM215.5 201.7C213.8 204.1 211.3 205.3 208.2 205.3C205.1 205.3 202.7 204.1 200.9 201.7C199.2 199.3 198.3 196.1 198.3 192C198.3 188 199.2 184.8 200.9 182.4C202.6 180 205.1 178.9 208.2 178.9C211.3 178.9 213.7 180.1 215.5 182.4C217.2 184.8 218.1 188 218.1 192C218.1 196.1 217.2 199.3 215.5 201.7Z" fill="#272525"/>
<path d="M128.1 0H164.2C150.9 21.8 136.2 45.8 121.5 69.7H85.3999C100.1 45.8 114.8 21.8 128.1 0Z" fill="#8DC220"/>
<path d="M42.7 0H78.8C71.7 11.6 64.5 23.3 57.4 34.9C50.3 46.5 43.2 58.1 36.1 69.7C43.2 81.3 50.3 93 57.4 104.6C64.5 116.2 71.6 127.8 78.8 139.4H42.7C35.6 127.8 28.4 116.2 21.3 104.6C14.2 93.1 7.1 81.4 0 69.8C7.1 58.2 14.2 46.6 21.3 35C28.4 23.3 35.6 11.7 42.7 0Z" fill="#44BFEF"/>
<path d="M42.7 0C57.4 24 72.1 48 85.4 69.7H121.5C108.2 48 93.5 24 78.8 0H42.7Z" fill="#00AC71"/>
<path d="M164.2 0H128.1C135.2 11.6 142.3 23.3 149.5 34.9C156.6 46.5 163.7 58.1 170.9 69.7C163.8 81.3 156.6 93 149.5 104.6C142.4 116.2 135.3 127.8 128.1 139.4H164.2C171.3 127.8 178.4 116.2 185.6 104.6C192.7 93 199.8 81.4 207 69.7C199.8 58.1 192.7 46.5 185.6 34.9C178.5 23.3 171.3 11.7 164.2 0Z" fill="#F9BC00"/>
<path d="M149.3 24.5996H113.2C108.6 32.0996 104 39.6996 99.4 47.1996C94.8 54.6996 90.2 62.2996 85.5 69.7996H121.6C126.2 62.2996 130.9 54.6996 135.5 47.1996C140 39.5996 144.6 32.0996 149.3 24.5996Z" fill="url(#paint0_linear_1_6916)"/>
<path d="M100.5 45.2H136.6C141.2 37.7 145.8 30.1 150.4 22.6C155 15.1 159.6 7.5 164.2 0H128.1C123.5 7.5 118.9 15.1 114.3 22.6C109.7 30.2 105.1 37.7 100.5 45.2Z" fill="url(#paint1_linear_1_6916)"/>
<path d="M191.9 45.2H155.8C151.2 37.7 146.5 30.1 141.9 22.6C137.3 15.1 132.7 7.5 128.1 0H164.2C168.8 7.5 173.4 15.1 178 22.6C182.7 30.2 187.3 37.7 191.9 45.2Z" fill="url(#paint2_linear_1_6916)"/>
<path d="M213.2 0H177.1C184.2 11.7 191.3 23.3 198.4 34.9C205.5 46.5 212.7 58.1 219.8 69.7C212.7 81.3 205.5 93 198.4 104.6C191.3 116.2 184.2 127.8 177 139.4H213.1C220.2 127.8 227.3 116.2 234.5 104.6C241.6 93 248.7 81.4 255.9 69.7C248.8 58.1 241.7 46.5 234.5 34.9C227.5 23.3 220.3 11.7 213.2 0Z" fill="#DF1B1C"/>
<path d="M240.9 45.2H204.8C200.1 37.7 195.5 30.1 190.9 22.6C186.3 15.1 181.7 7.5 177.1 0H213.2C217.8 7.5 222.4 15.1 227 22.6C231.6 30.2 236.3 37.7 240.9 45.2Z" fill="url(#paint3_linear_1_6916)"/>
<path d="M192.2 115.001H228.3C232.9 107.501 237.5 100.001 242.1 92.4008C246.7 84.9008 251.3 77.3008 256 69.8008H219.8C215.2 77.3008 210.6 84.9008 206 92.4008C201.4 99.9008 196.8 107.401 192.2 115.001Z" fill="url(#paint4_linear_1_6916)"/>
<path d="M143.2 115.001H179.3C183.9 107.501 188.5 99.9008 193.1 92.4008C197.7 84.9008 202.3 77.3008 207 69.8008H170.9C166.3 77.3008 161.7 84.9008 157.1 92.4008C152.4 99.9008 147.8 107.401 143.2 115.001Z" fill="url(#paint5_linear_1_6916)"/>
<path d="M63.8 24.5996H27.7C23.1 32.0996 18.5 39.6996 13.9 47.1996C9.2 54.6996 4.6 62.2996 0 69.7996H36.1C40.7 62.2996 45.3 54.7996 49.9 47.1996C54.5 39.6996 59.1 32.0996 63.8 24.5996Z" fill="url(#paint6_linear_1_6916)"/>
<path d="M15 45.2H51.1C55.7 37.7 60.3 30.1 64.9 22.6C69.6 15.1 74.2 7.5 78.8 0H42.7C38.1 7.5 33.5 15 28.9 22.6C24.3 30.1 19.7 37.7 15 45.2Z" fill="url(#paint7_linear_1_6916)"/>
<path d="M15 94.3008H51.1C55.7 101.801 60.3 109.401 64.9 116.901C69.5 124.401 74.1 132.001 78.7 139.501H42.6C38 132.001 33.3 124.501 28.7 116.901C24.2 109.401 19.6 101.901 15 94.3008Z" fill="url(#paint8_linear_1_6916)"/>
<path d="M106.5 45.2H70.4C65.8 37.7 61.1999 30.1 56.5999 22.6C51.8999 15.1 47.3 7.5 42.7 0H78.8C83.4 7.5 88 15 92.5999 22.6C97.2999 30.1 101.9 37.7 106.5 45.2Z" fill="url(#paint9_linear_1_6916)"/>
</g>
<defs>
<linearGradient id="paint0_linear_1_6916" x1="3269.82" y1="4540.46" x2="3269.82" y2="20.5197" gradientUnits="userSpaceOnUse">
<stop stop-color="#8AC23E"/>
<stop offset="1" stop-color="#8AC23E" stop-opacity="0"/>
</linearGradient>
<linearGradient id="paint1_linear_1_6916" x1="3284.45" y1="2.87981" x2="3284.45" y2="4522.82" gradientUnits="userSpaceOnUse">
<stop stop-color="#698932"/>
<stop offset="1" stop-color="#698932" stop-opacity="0"/>
</linearGradient>
<linearGradient id="paint2_linear_1_6916" x1="3321.9" y1="2.87981" x2="3321.9" y2="4522.82" gradientUnits="userSpaceOnUse">
<stop stop-color="#FFED01"/>
<stop offset="1" stop-color="#FFED01" stop-opacity="0"/>
</linearGradient>
<linearGradient id="paint3_linear_1_6916" x1="3368.19" y1="2.87981" x2="3368.19" y2="4524.19" gradientUnits="userSpaceOnUse">
<stop stop-color="#E02A89"/>
<stop offset="1" stop-color="#E02A89" stop-opacity="0"/>
</linearGradient>
<linearGradient id="paint4_linear_1_6916" x1="3379.85" y1="65.6608" x2="3379.85" y2="4585.6" gradientUnits="userSpaceOnUse">
<stop stop-color="#7F1E4F"/>
<stop offset="1" stop-color="#7F1E4F" stop-opacity="0"/>
</linearGradient>
<linearGradient id="paint5_linear_1_6916" x1="3330.98" y1="65.6608" x2="3330.98" y2="4585.6" gradientUnits="userSpaceOnUse">
<stop stop-color="#E95506"/>
<stop offset="1" stop-color="#E95506" stop-opacity="0"/>
</linearGradient>
<linearGradient id="paint6_linear_1_6916" x1="3188.51" y1="4540.46" x2="3188.51" y2="23.3996" gradientUnits="userSpaceOnUse">
<stop stop-color="#88D0F1"/>
<stop offset="1" stop-color="#88D0F1" stop-opacity="0"/>
</linearGradient>
<linearGradient id="paint7_linear_1_6916" x1="3206.31" y1="2.87981" x2="3206.31" y2="4519.94" gradientUnits="userSpaceOnUse">
<stop stop-color="#00828B"/>
<stop offset="0.8325" stop-color="#00828B" stop-opacity="0"/>
</linearGradient>
<linearGradient id="paint8_linear_1_6916" x1="3204.97" y1="4613.18" x2="3204.97" y2="97.4908" gradientUnits="userSpaceOnUse">
<stop stop-color="#2073BA"/>
<stop offset="1" stop-color="#2073BA" stop-opacity="0"/>
</linearGradient>
<linearGradient id="paint9_linear_1_6916" x1="3233.83" y1="2.87981" x2="3233.83" y2="4519.94" gradientUnits="userSpaceOnUse">
<stop stop-color="#8ED0E1"/>
<stop offset="1" stop-color="#88D0F1" stop-opacity="0"/>
</linearGradient>
<clipPath id="clip0_1_6916">
<rect width="256" height="214" fill="white"/>
</clipPath>
</defs>
</svg>
