<svg width="512" height="127" viewBox="0 0 512 127" fill="none" xmlns="http://www.w3.org/2000/svg">
<g clip-path="url(#clip0_1_6947)">
<path d="M115.235 75.6713C113.504 84.5756 99.7339 94.3197 83.9178 96.2083C75.6702 97.1934 67.5509 98.0968 58.8924 97.7002C44.7315 97.0516 33.5582 94.3197 33.5582 94.3197C33.5582 95.6987 33.6435 97.0112 33.813 98.2385C35.654 112.213 47.6706 113.051 59.0529 113.441C70.5411 113.834 80.7697 110.608 80.7697 110.608L81.2425 120.995C81.2425 120.995 73.2066 125.31 58.8924 126.103C50.9982 126.537 41.1976 125.904 29.7812 122.884C5.02305 116.33 0.765108 89.9389 0.113767 63.1603C-0.0854029 55.2097 0.0375085 47.7121 0.0375085 41.4427C0.0375085 14.0595 17.9781 6.03343 17.9781 6.03343C27.0242 1.87866 42.5469 0.131883 58.6842 0H59.0808C75.218 0.131883 90.7506 1.87866 99.7967 6.03343C99.7967 6.03343 117.737 14.0595 117.737 41.4427C117.737 41.4427 117.962 61.645 115.235 75.6713Z" fill="#3088D4"/>
<path d="M24.8748 34.8059C24.8748 30.8198 28.1063 27.5892 32.0915 27.5892C36.0776 27.5892 39.3083 30.8198 39.3083 34.8059C39.3083 38.7911 36.0776 42.0227 32.0915 42.0227C28.1063 42.0227 24.8748 38.7911 24.8748 34.8059ZM128.377 43.5664V76.722H115.241V44.5407C115.241 37.7564 112.387 34.3139 106.677 34.3139C100.366 34.3139 97.2012 38.3987 97.2012 46.475V64.089H84.143V46.475C84.143 38.3987 80.9787 34.3139 74.6672 34.3139C68.9576 34.3139 66.1028 37.7564 66.1028 44.5407V76.722H52.9675V43.5664C52.9675 36.7901 54.6927 31.4053 58.1585 27.421C61.7328 23.4376 66.4133 21.3957 72.2224 21.3957C78.9449 21.3957 84.0354 23.9786 87.3997 29.1463L90.6726 34.6315L93.9445 29.1463C97.3098 23.9786 102.399 21.3957 109.123 21.3957C114.932 21.3957 119.611 23.4376 123.186 27.421C126.652 31.4053 128.377 36.7901 128.377 43.5664ZM173.628 60.0483C176.339 57.1845 177.644 53.5779 177.644 49.2285C177.644 44.879 176.339 41.2724 173.628 38.5146C171.018 35.6499 167.704 34.2719 163.689 34.2719C159.672 34.2719 156.359 35.6499 153.749 38.5146C151.138 41.2724 149.833 44.879 149.833 49.2285C149.833 53.5779 151.138 57.1845 153.749 60.0483C156.359 62.8062 159.672 64.1851 163.689 64.1851C167.704 64.1851 171.018 62.8062 173.628 60.0483ZM177.644 22.7083H190.596V75.7486H177.644V69.4891C173.729 74.6873 168.306 77.2335 161.279 77.2335C154.552 77.2335 148.829 74.5814 144.009 69.1706C139.291 63.7607 136.881 57.0778 136.881 49.2285C136.881 41.4851 139.291 34.8012 144.009 29.3913C148.829 23.9814 154.552 21.2235 161.279 21.2235C168.306 21.2235 173.729 23.7697 177.644 28.9669V22.7083ZM234.174 48.2739C237.988 51.1376 239.897 55.1686 239.796 60.26C239.796 65.6708 237.888 69.9135 233.973 72.884C230.057 75.7486 225.338 77.2335 219.615 77.2335C209.274 77.2335 202.245 72.9899 198.53 64.6095L209.776 57.9274C211.282 62.4877 214.595 64.8221 219.615 64.8221C224.233 64.8221 226.543 63.3364 226.543 60.26C226.543 58.0324 223.531 56.0173 217.407 54.4267C215.096 53.7897 213.189 53.1536 211.684 52.6225C209.575 51.7746 207.768 50.8192 206.262 49.6528C202.547 46.7891 200.64 42.969 200.64 38.0902C200.64 32.892 202.446 28.7552 206.061 25.7847C209.776 22.7083 214.294 21.2235 219.716 21.2235C228.35 21.2235 234.676 24.936 238.791 32.4677L227.748 38.8321C226.141 35.2264 223.431 33.4231 219.716 33.4231C215.8 33.4231 213.892 34.908 213.892 37.7717C213.892 39.9994 216.904 42.0144 223.029 43.606C227.748 44.6664 231.463 46.258 234.174 48.2739ZM275.341 35.8625H263.995V57.9274C263.995 60.5794 265 62.1701 266.907 62.912C268.313 63.4431 271.124 63.549 275.341 63.3364V75.7486C266.607 76.8091 260.281 75.9604 256.566 73.0957C252.852 70.3379 251.044 65.2464 251.044 57.9274V35.8625H242.309V22.7083H251.044V11.9944L263.995 7.85756V22.7083H275.341V35.8625ZM316.609 59.7302C319.22 56.9715 320.524 53.4707 320.524 49.228C320.524 44.9853 319.22 41.4846 316.609 38.7267C313.998 35.968 310.786 34.5899 306.869 34.5899C302.954 34.5899 299.741 35.968 297.131 38.7267C294.62 41.5905 293.315 45.0912 293.315 49.228C293.315 53.3658 294.62 56.8665 297.131 59.7302C299.741 62.4881 302.954 63.8671 306.869 63.8671C310.786 63.8671 313.998 62.4881 316.609 59.7302ZM287.994 69.1711C282.874 63.7612 280.364 57.1841 280.364 49.228C280.364 41.3778 282.874 34.8016 287.994 29.3917C293.114 23.9818 299.44 21.224 306.869 21.224C314.3 21.224 320.625 23.9818 325.746 29.3917C330.867 34.8016 333.477 41.4846 333.477 49.228C333.477 57.0782 330.867 63.7612 325.746 69.1711C320.625 74.5819 314.4 77.233 306.869 77.233C299.34 77.233 293.114 74.5819 287.994 69.1711ZM376.752 60.0483C379.363 57.1845 380.668 53.5779 380.668 49.2285C380.668 44.879 379.363 41.2724 376.752 38.5146C374.142 35.6499 370.828 34.2719 366.813 34.2719C362.796 34.2719 359.483 35.6499 356.772 38.5146C354.163 41.2724 352.856 44.879 352.856 49.2285C352.856 53.5779 354.163 57.1845 356.772 60.0483C359.483 62.8062 362.896 64.1851 366.813 64.1851C370.828 64.1851 374.142 62.8062 376.752 60.0483ZM380.668 1.49219H393.62V75.7486H380.668V69.4891C376.853 74.6873 371.43 77.2335 364.403 77.2335C357.676 77.2335 351.853 74.5814 347.034 69.1706C342.315 63.7607 339.905 57.0778 339.905 49.2285C339.905 41.4851 342.315 34.8012 347.034 29.3913C351.853 23.9814 357.676 21.2235 364.403 21.2235C371.43 21.2235 376.853 23.7697 380.668 28.9669V1.49219ZM439.105 59.7302C441.715 56.9715 443.02 53.4707 443.02 49.228C443.02 44.9853 441.715 41.4846 439.105 38.7267C436.494 35.968 433.282 34.5899 429.366 34.5899C425.45 34.5899 422.237 35.968 419.627 38.7267C417.116 41.5905 415.811 45.0912 415.811 49.228C415.811 53.3658 417.116 56.8665 419.627 59.7302C422.237 62.4881 425.45 63.8671 429.366 63.8671C433.282 63.8671 436.494 62.4881 439.105 59.7302ZM410.49 69.1711C405.369 63.7612 402.86 57.1841 402.86 49.228C402.86 41.3778 405.369 34.8016 410.49 29.3917C415.611 23.9818 421.936 21.224 429.366 21.224C436.796 21.224 443.121 23.9818 448.242 29.3917C453.363 34.8016 455.973 41.4846 455.973 49.228C455.973 57.0782 453.363 63.7612 448.242 69.1711C443.121 74.5819 436.896 77.233 429.366 77.233C421.836 77.233 415.611 74.5819 410.49 69.1711ZM512 43.1818V75.7479H499.047V44.8792C499.047 41.3785 498.144 38.7265 496.337 36.7114C494.63 34.9081 492.22 33.9527 489.108 33.9527C481.778 33.9527 478.064 38.3021 478.064 47.1069V75.7479H465.111V22.7085H478.064V28.6486C481.176 23.6631 486.095 21.2237 493.024 21.2237C498.546 21.2237 503.064 23.1329 506.578 27.0579C510.192 30.983 512 36.2871 512 43.1818Z" fill="white"/>
</g>
<defs>
<clipPath id="clip0_1_6947">
<rect width="512" height="127" fill="white"/>
</clipPath>
</defs>
</svg>
