<svg width="256" height="199" viewBox="0 0 256 199" fill="none" xmlns="http://www.w3.org/2000/svg">
<g clip-path="url(#clip0_1_6937)">
<path d="M46.5392 198.012V184.841C46.5392 179.791 43.4658 176.499 38.1973 176.499C35.563 176.499 32.7091 177.377 30.7334 180.231C29.1967 177.816 27.0015 176.499 23.7086 176.499C21.5134 176.499 19.3181 177.157 17.5619 179.572V176.938H12.9519V198.012H17.5619V186.377C17.5619 182.645 19.5376 180.889 22.611 180.889C25.6843 180.889 27.221 182.865 27.221 186.377V198.012H31.831V186.377C31.831 182.645 34.0263 180.889 36.8801 180.889C39.9535 180.889 41.4901 182.865 41.4901 186.377V198.012H46.5392ZM114.811 176.938H107.348V170.571H102.738V176.938H98.5666V181.109H102.738V190.768C102.738 195.597 104.713 198.451 109.982 198.451C111.958 198.451 114.153 197.792 115.689 196.914L114.372 192.963C113.055 193.841 111.519 194.061 110.421 194.061C108.226 194.061 107.348 192.743 107.348 190.548V181.109H114.811V176.938ZM153.887 176.499C151.253 176.499 149.496 177.816 148.399 179.572V176.938H143.789V198.012H148.399V186.158C148.399 182.645 149.935 180.67 152.789 180.67C153.667 180.67 154.765 180.889 155.643 181.109L156.96 176.718C156.082 176.499 154.765 176.499 153.887 176.499ZM94.8346 178.694C92.6394 177.157 89.566 176.499 86.2732 176.499C81.0046 176.499 77.4922 179.133 77.4922 183.304C77.4922 186.816 80.1265 188.792 84.7365 189.451L86.9317 189.67C89.3465 190.109 90.6637 190.768 90.6637 191.865C90.6637 193.402 88.9075 194.5 85.8341 194.5C82.7608 194.5 80.346 193.402 78.8093 192.304L76.6141 195.817C79.0289 197.573 82.3217 198.451 85.6146 198.451C91.7613 198.451 95.2737 195.597 95.2737 191.646C95.2737 187.914 92.4199 185.938 88.0294 185.28L85.8341 185.06C83.8584 184.841 82.3217 184.401 82.3217 183.084C82.3217 181.548 83.8584 180.67 86.2732 180.67C88.9075 180.67 91.5418 181.767 92.8589 182.426L94.8346 178.694ZM217.329 176.499C214.695 176.499 212.939 177.816 211.841 179.572V176.938H207.231V198.012H211.841V186.158C211.841 182.645 213.378 180.67 216.232 180.67C217.11 180.67 218.208 180.889 219.086 181.109L220.403 176.718C219.525 176.499 218.208 176.499 217.329 176.499ZM158.497 187.475C158.497 193.841 162.887 198.451 169.693 198.451C172.766 198.451 174.961 197.792 177.156 196.036L174.961 192.304C173.205 193.622 171.449 194.28 169.473 194.28C165.741 194.28 163.107 191.646 163.107 187.475C163.107 183.523 165.741 180.889 169.473 180.67C171.449 180.67 173.205 181.328 174.961 182.645L177.156 178.913C174.961 177.157 172.766 176.499 169.693 176.499C162.887 176.499 158.497 181.109 158.497 187.475ZM201.085 187.475V176.938H196.475V179.572C194.938 177.596 192.743 176.499 189.889 176.499C183.962 176.499 179.352 181.109 179.352 187.475C179.352 193.841 183.962 198.451 189.889 198.451C192.962 198.451 195.157 197.353 196.475 195.378V198.012H201.085V187.475ZM184.181 187.475C184.181 183.743 186.596 180.67 190.547 180.67C194.279 180.67 196.914 183.523 196.914 187.475C196.914 191.207 194.279 194.28 190.547 194.28C186.596 194.061 184.181 191.207 184.181 187.475ZM129.081 176.499C122.934 176.499 118.543 180.889 118.543 187.475C118.543 194.061 122.934 198.451 129.3 198.451C132.373 198.451 135.447 197.573 137.861 195.597L135.666 192.304C133.91 193.622 131.715 194.5 129.52 194.5C126.666 194.5 123.812 193.182 123.153 189.451H138.74V187.694C138.959 180.889 135.008 176.499 129.081 176.499ZM129.081 180.45C131.934 180.45 133.91 182.206 134.349 185.499H123.373C123.812 182.645 125.788 180.45 129.081 180.45ZM243.453 187.475V168.596H238.843V179.572C237.306 177.596 235.111 176.499 232.257 176.499C226.33 176.499 221.72 181.109 221.72 187.475C221.72 193.841 226.33 198.451 232.257 198.451C235.33 198.451 237.526 197.353 238.843 195.378V198.012H243.453V187.475ZM226.549 187.475C226.549 183.743 228.964 180.67 232.916 180.67C236.648 180.67 239.282 183.523 239.282 187.475C239.282 191.207 236.648 194.28 232.916 194.28C228.964 194.061 226.549 191.207 226.549 187.475ZM72.4431 187.475V176.938H67.8331V179.572C66.2964 177.596 64.1012 176.499 61.2474 176.499C55.3202 176.499 50.7102 181.109 50.7102 187.475C50.7102 193.841 55.3202 198.451 61.2474 198.451C64.3207 198.451 66.5159 197.353 67.8331 195.378V198.012H72.4431V187.475ZM55.3202 187.475C55.3202 183.743 57.735 180.67 61.6864 180.67C65.4183 180.67 68.0526 183.523 68.0526 187.475C68.0526 191.207 65.4183 194.28 61.6864 194.28C57.735 194.061 55.3202 191.207 55.3202 187.475Z" fill="black"/>
<path d="M162.448 16.9043H93.2981V141.155H162.448V16.9043Z" fill="#FF5F00"/>
<path d="M97.6885 79.0289C97.6885 53.7836 109.543 31.392 127.763 16.9034C114.372 6.36622 97.469 0 79.0289 0C35.3435 0 0 35.3435 0 79.0289C0 122.714 35.3435 158.058 79.0289 158.058C97.469 158.058 114.372 151.692 127.763 141.154C109.543 126.885 97.6885 104.274 97.6885 79.0289Z" fill="#EB001B"/>
<path d="M255.746 79.0289C255.746 122.714 220.403 158.058 176.717 158.058C158.277 158.058 141.374 151.692 127.983 141.154C146.423 126.666 158.058 104.274 158.058 79.0289C158.058 53.7836 146.203 31.392 127.983 16.9034C141.374 6.36622 158.277 0 176.717 0C220.403 0 255.746 35.563 255.746 79.0289Z" fill="#F79E1B"/>
</g>
<defs>
<clipPath id="clip0_1_6937">
<rect width="256" height="199" fill="white"/>
</clipPath>
</defs>
</svg>
