<svg width="256" height="222" viewBox="0 0 256 222" fill="none" xmlns="http://www.w3.org/2000/svg">
<g clip-path="url(#clip0_1_6951)">
<path d="M215.771 151.107C217.973 149.843 219.333 147.501 219.341 144.963L219.469 103.81C219.477 101.271 220.838 98.9296 223.039 97.6655L245.347 84.8509C247.548 83.5872 250.255 83.5918 252.451 84.8629C254.647 86.1339 256 88.4789 256 91.0164V165.834C256 168.38 254.638 170.732 252.43 172L168.239 220.357C166.051 221.613 163.361 221.616 161.171 220.364L95.0995 182.574C92.884 181.309 91.5163 178.953 91.5154 176.402V138.676C91.5154 138.634 91.5652 138.605 91.6079 138.627C91.6434 138.648 91.6932 138.627 91.6932 138.577V138.534C91.6932 138.506 91.7075 138.477 91.7359 138.463L146.152 107.202C146.201 107.173 146.18 107.095 146.123 107.095C146.092 107.095 146.066 107.07 146.066 107.038L146.173 70.0522C146.183 67.5066 144.832 65.1497 142.63 63.8724C140.427 62.5952 137.711 62.5925 135.506 63.8654L95.064 87.1692C92.8674 88.434 90.1635 88.434 87.9669 87.1692L47.3969 63.8085C45.1971 62.5419 42.489 62.5438 40.291 63.8136C38.093 65.0834 36.7386 67.4285 36.737 69.9669V136.813C36.7388 139.349 35.3902 141.694 33.1977 142.967C31.0051 144.241 28.3003 144.251 26.0985 142.993L3.58412 130.121C1.36415 128.853 -0.00426658 126.491 9.9946e-06 123.935L0.199137 7.09584C0.204652 4.56091 1.55914 2.22057 3.75438 0.952965C5.94961 -0.314645 8.65364 -0.317849 10.8519 0.944555L87.974 45.2409C90.167 46.5003 92.8639 46.5003 95.0569 45.2409L172.158 0.944555C174.359 -0.319739 177.068 -0.314494 179.264 0.958316C181.461 2.23113 182.812 4.57843 182.81 7.11717V123.984C182.811 126.529 181.453 128.88 179.248 130.15L138.87 153.404C136.662 154.677 135.304 157.033 135.31 159.581C135.316 162.129 136.685 164.48 138.898 165.742L161.171 178.421C163.361 179.668 166.047 179.663 168.232 178.407L215.771 151.107ZM220.443 46.272C220.445 48.8323 221.824 51.1938 224.052 52.455C226.28 53.7163 229.014 53.6824 231.21 52.3664L252.544 39.5661C254.686 38.2824 255.998 35.9691 256 33.4717V7.3874C255.995 4.82841 254.616 2.4692 252.389 1.20974C250.161 -0.0497241 247.429 -0.0152086 245.233 1.30012L223.9 14.1005C221.757 15.3841 220.445 17.6975 220.443 20.1949V46.2791V46.272Z" fill="#007FFF"/>
</g>
<defs>
<clipPath id="clip0_1_6951">
<rect width="256" height="222" fill="white"/>
</clipPath>
</defs>
</svg>
