<svg width="256" height="131" viewBox="0 0 256 131" fill="none" xmlns="http://www.w3.org/2000/svg">
<g clip-path="url(#clip0_1_6954)">
<path d="M63.1816 4.19936C64.108 2.62445 65.3124 1.1113 67.0417 0.37017C67.7519 0.246648 68.4622 0.308409 69.1725 0.308409H104.129C103.11 1.17307 102.122 2.0686 101.443 3.24206C99.6516 6.17572 98.4472 9.44906 97.3355 12.7224C94.1857 22.6042 91.9932 32.7639 89.8624 42.9236C88.9051 47.5248 87.9787 52.1569 87.1141 56.7581C84.4583 71.8278 81.71 86.8667 78.2822 101.782C76.6455 108.668 74.978 115.555 72.4458 122.194C71.2723 124.942 70.1297 127.876 67.8755 129.914C67.3505 130.377 66.8255 130.964 66.0844 130.871H35.2038C33.1039 130.81 31.0349 130.995 28.9351 130.779C30.3247 129.698 31.5599 128.401 32.3628 126.857C34.6788 122.441 36.1302 117.655 37.5199 112.899C39.6815 105.241 41.4108 97.4896 43.0475 89.7386C44.0665 84.6433 45.2709 79.5789 46.012 74.4527C46.8458 68.7398 48.1119 63.0886 49.131 57.4066C50.7367 49.038 52.4352 40.6693 54.3189 32.3624C55.832 25.8775 57.3761 19.4235 59.4451 13.093C60.4641 10.0358 61.5758 7.00949 63.1816 4.19936Z" fill="#EB7077" stroke="#EB7077" stroke-width="0.09375"/>
<path d="M104.129 0.308647C105.025 0.308647 105.92 0.277766 106.816 0.308647C108.792 1.35859 110.46 3.02614 111.386 5.09514C112.621 7.44206 113.641 9.91251 114.567 12.4447C117.655 21.9868 119.755 31.8068 121.855 41.596C123.646 50.3661 125.344 59.167 126.95 67.9989C127.074 68.4621 126.919 69.1106 127.537 69.2341C125.313 80.8452 123.121 92.4872 120.342 104.006C118.828 110.213 117.223 116.389 114.938 122.38C113.702 125.375 112.436 128.648 109.811 130.779C108.144 131.15 106.939 129.884 105.92 128.741C104.16 126.487 103.079 123.831 102.029 121.175C98.54 111.664 96.4092 101.751 94.2476 91.8696C92.6109 84.1803 91.1595 76.4293 89.6463 68.7091C88.967 64.7873 88.0406 60.9272 87.5156 57.0054C87.4229 56.9436 87.2068 56.8201 87.1141 56.7583C87.9788 52.1571 88.9052 47.5251 89.8625 42.9238C91.9933 32.7641 94.1858 22.6044 97.3356 12.7226C98.4473 9.4493 99.6517 6.17596 101.443 3.2423C102.122 2.06884 103.11 1.1733 104.129 0.308647Z" fill="#F6A2AD" stroke="#F6A2AD" stroke-width="0.09375"/>
<path d="M142.761 5.65084C143.873 3.52008 145.231 1.14228 147.64 0.339382C159.9 0.277621 172.159 0.308501 184.419 0.308501C183.276 1.45108 182.072 2.59366 181.3 4.04505C178.922 8.30657 177.532 13.0313 176.112 17.6943C172.468 30.5406 169.905 43.6648 167.465 56.7891C165.211 69.728 162.802 82.667 160.054 95.5442C158.633 102.029 157.151 108.483 155.267 114.875C154.063 118.828 152.797 122.812 150.821 126.487C149.863 128.154 148.752 129.976 146.93 130.841C135.226 130.933 123.491 130.841 111.788 130.872C111.139 130.872 110.46 130.872 109.811 130.779C112.436 128.648 113.702 125.375 114.937 122.379C117.223 116.389 118.828 110.212 120.342 104.005C123.121 92.487 125.313 80.8451 127.537 69.234C130.223 54.2569 133.033 39.2798 136.616 24.488C138.283 18.0957 139.889 11.6108 142.761 5.65084Z" fill="#EB7077" stroke="#EB7077" stroke-width="0.09375"/>
<path d="M184.419 0.308647C185.407 0.308647 186.426 0.277766 187.414 0.308647C189.02 1.14242 190.163 2.56293 191.182 4.01432C192.849 6.67005 193.899 9.66546 194.98 12.5991C197.543 20.4737 199.458 28.5644 201.218 36.6551C203.565 47.5559 205.603 58.5185 207.61 69.4811C208.104 72.106 208.598 74.7617 208.907 77.4174C209.031 77.541 209.278 77.788 209.37 77.8807C208.259 79.4247 207.826 81.2775 207.209 83.0377C205.263 89.3065 203.997 95.7914 202.916 102.245C202.082 107.31 200.94 112.343 199.365 117.223C198.192 120.836 196.771 124.418 194.424 127.444C193.312 128.895 191.799 130.007 190.132 130.748C187.569 131.026 186.055 128.556 184.82 126.734C182.257 122.256 180.868 117.253 179.385 112.374C174.506 94.3091 171.325 75.8117 167.898 57.4377C167.867 57.1598 167.712 56.9127 167.465 56.7892C169.905 43.665 172.468 30.5407 176.112 17.6944C177.532 13.0314 178.922 8.30672 181.3 4.0452C182.072 2.59381 183.276 1.45123 184.419 0.308647Z" fill="#F6A2AD" stroke="#F6A2AD" stroke-width="0.09375"/>
<path d="M0.0308838 70.5622C0.833779 70.5005 1.63667 70.377 2.47045 70.377H36.1303C37.5508 70.5622 39.0331 70.4387 40.3918 71.0563C42.3682 71.8592 44.1283 73.218 45.4253 74.9164C45.5797 74.8238 45.8577 74.5767 46.0121 74.4532C45.2709 79.5794 44.0666 84.6438 43.0475 89.7391C41.4109 97.4901 39.6815 105.241 37.5199 112.9C36.1303 117.655 34.6789 122.442 32.3629 126.858C31.56 128.402 30.3247 129.699 28.9351 130.779C28.4101 130.872 28.0087 130.501 27.5764 130.224C26.125 129.297 25.2912 127.691 24.3957 126.24C20.165 116.605 19.7018 105.951 17.077 95.8843C15.7491 90.8508 14.1124 85.8481 11.7037 81.216C10.2215 78.4368 8.39952 75.7811 6.02172 73.6503C4.26152 72.2298 2.2234 71.0872 0.0308838 70.5622Z" fill="#F6A2AD" stroke="#F6A2AD" stroke-width="0.09375"/>
<path d="M212.088 73.773C214.033 71.5805 216.936 70.1909 219.87 70.3144H245.192C248.712 70.3762 252.263 70.1909 255.784 70.407C254.734 71.1173 253.468 71.3952 252.356 71.9819C248.496 73.7421 245.192 76.6758 243.092 80.3506C239.726 86.2179 238.552 92.9499 237.564 99.5583C236.576 106.043 236.607 112.744 234.507 119.044C233.087 123.46 230.925 127.907 227.188 130.809C215.577 130.933 203.966 130.84 192.386 130.871C191.614 130.871 190.873 130.902 190.132 130.748C191.799 130.007 193.312 128.895 194.424 127.443C196.771 124.417 198.192 120.835 199.365 117.222C200.94 112.343 202.082 107.309 202.916 102.245C203.997 95.7909 205.263 89.306 207.209 83.0372C207.826 81.277 208.259 79.4242 209.37 77.8801C210.297 76.5214 210.914 74.9465 212.088 73.773Z" fill="#EB7077" stroke="#EB7077" stroke-width="0.09375"/>
</g>
<defs>
<clipPath id="clip0_1_6954">
<rect width="256" height="131" fill="white"/>
</clipPath>
</defs>
</svg>
