<svg width="512" height="71" viewBox="0 0 512 71" fill="none" xmlns="http://www.w3.org/2000/svg">
<path d="M262.259 15.3705C265.694 15.3705 268.48 17.6947 268.48 21.8606V58.5455C268.48 62.7115 265.694 65.019 262.259 65.019C259.705 65.019 257.515 63.7382 256.558 61.3747C252.794 63.6702 248.388 65.019 243.656 65.019C229.947 65.019 218.833 53.9047 218.833 40.194C218.833 26.4848 229.947 15.3705 243.656 15.3705C248.391 15.3705 252.799 16.7193 256.562 19.0193C257.523 16.6558 259.709 15.3705 262.259 15.3705ZM290.143 4.98047C293.551 4.98047 296.317 7.7462 296.317 11.1531V15.372H310.932C314.342 15.372 317.103 18.1559 317.103 21.5643C317.103 24.9711 314.342 27.7701 310.932 27.7701H296.349V43.6145C296.349 43.6205 296.352 43.6266 296.352 43.6296C296.352 48.6061 300.403 52.6617 305.382 52.6617C310.363 52.6617 314.414 48.6061 314.414 43.6296C314.414 40.2212 317.18 37.46 320.587 37.46C323.998 37.46 326.763 40.2212 326.763 43.6296C326.763 55.4168 317.171 65.0069 305.382 65.0069C293.842 65.0069 283.919 55.3669 283.919 43.6296L283.969 27.7535H278.968C275.558 27.7535 272.794 24.9878 272.794 21.5809C272.794 18.1755 275.558 15.4083 278.968 15.4083H283.969V11.1531C283.969 7.7462 286.727 4.98047 290.143 4.98047ZM355.844 15.3871C369.546 15.3886 380.653 26.4969 380.653 40.197C380.653 53.9001 369.544 65.0054 355.844 65.0054C342.141 65.0054 331.036 53.8986 331.036 40.197C331.036 26.4954 342.143 15.3871 355.844 15.3871ZM487.185 15.3705C500.887 15.369 511.997 26.4788 511.997 40.1834C511.997 53.8865 500.887 64.9948 487.185 64.9948C473.481 64.9948 462.373 53.885 462.373 40.1834C462.373 26.4788 473.482 15.3705 487.185 15.3705ZM436.72 15.372C448.418 15.372 457.94 24.8199 458.084 36.4862H458.098V58.795C458.098 62.2034 455.333 64.9661 451.928 64.9661C448.52 64.9661 445.757 62.2034 445.757 58.795V36.7463C445.752 31.7713 441.7 27.7187 436.722 27.7187C431.741 27.7187 427.69 31.7713 427.69 36.7463H427.687L427.675 58.5772C427.675 61.9826 424.988 64.9948 421.579 64.9948C418.171 64.9948 415.342 61.9826 415.342 58.5772L415.343 36.7463C415.339 31.7713 411.284 27.7187 406.302 27.7187C401.322 27.7187 397.27 31.7713 397.27 36.7463H397.267V58.795C397.267 62.2034 394.503 64.9661 391.094 64.9661C387.689 64.9661 384.925 62.2034 384.925 58.795V36.4862H384.938C385.083 24.8199 394.605 15.372 406.302 15.372C412.255 15.372 417.619 17.8338 421.495 21.7684C425.372 17.8247 430.764 15.372 436.72 15.372ZM193.182 15.3538C204.88 15.3538 214.402 24.8018 214.546 36.468H214.559V58.7768C214.559 62.1837 211.794 64.9479 208.388 64.9464C204.98 64.9464 202.216 62.1837 202.216 58.7753V36.7266C202.213 31.7516 198.16 27.6991 193.182 27.6991C188.201 27.6991 184.15 31.7516 184.15 36.7266H184.147L184.135 58.5561C184.135 61.9614 181.448 64.9752 178.039 64.9752C174.631 64.9752 171.802 61.9614 171.802 58.5561L171.803 36.7266C171.799 31.7516 167.746 27.6991 162.764 27.6991C157.784 27.6991 153.731 31.7516 153.731 36.7266H153.728V58.7768C153.728 62.1852 150.964 64.9479 147.556 64.9479C144.15 64.9479 141.386 62.1852 141.386 58.7768V36.468H141.4C141.543 24.8018 151.066 15.3538 162.764 15.3538C168.715 15.3538 174.08 17.8156 177.955 21.7502C181.833 17.8066 187.224 15.3538 193.182 15.3538ZM243.656 27.755C236.786 27.755 231.217 33.3243 231.217 40.1925C231.217 47.0622 236.786 52.633 243.656 52.633C250.143 52.633 255.466 47.664 256.038 41.3236V39.0629C255.466 32.7239 250.143 27.755 243.656 27.755ZM355.844 27.7671C348.979 27.7671 343.413 33.3318 343.413 40.1985C343.413 47.0637 348.979 52.6299 355.844 52.6299C362.71 52.6299 368.276 47.0637 368.276 40.1985C368.276 33.3318 362.71 27.7671 355.844 27.7671ZM487.185 27.749C480.319 27.749 474.751 33.3152 474.751 40.1819C474.751 47.0486 480.319 52.6148 487.185 52.6148C494.052 52.6148 499.618 47.0486 499.618 40.1819C499.617 33.3152 494.052 27.749 487.185 27.749Z" fill="#3F4445"/>
<path d="M121.244 42.8067L121.261 42.7961L120.94 42.3075C120.892 42.2334 120.844 42.1562 120.794 42.0851L98.7431 8.49805L70.2194 29.7498L91.0687 61.8407C91.1579 61.9768 91.2427 62.1145 91.3349 62.2506L91.4454 62.4201L91.4575 62.4125C94.6888 66.9963 100.014 69.9977 106.047 69.9977C115.907 69.9977 123.901 62.0056 123.901 52.1437C123.901 48.7157 122.919 45.5252 121.244 42.8067Z" fill="#95C748"/>
<path d="M35.708 52.145C35.708 42.2846 27.7144 34.291 17.854 34.291C7.9936 34.291 0 42.2846 0 52.145C0 62.0069 7.9936 70.0005 17.854 70.0005C27.7144 70.0005 35.708 62.0054 35.708 52.145Z" fill="#35BFC0"/>
<path d="M83.6061 0C93.4665 0 101.46 7.9936 101.46 17.854C101.46 21.5649 100.326 25.011 98.3891 27.8672V27.8657L77.2509 60.9005C76.9392 61.4557 76.5943 61.9867 76.2267 62.5041L76.083 62.7265H76.0588C72.8078 67.1302 67.5962 69.9985 61.7008 69.9985C55.807 69.9985 50.5954 67.1302 47.3444 62.7265H47.3217L33.2134 42.921H33.1907C30.0623 37.7548 24.4059 34.2905 17.9251 34.2905C11.7681 34.2905 6.34015 37.4053 3.13 42.148L24.7206 8.49888H24.7388C27.8839 3.4053 33.4993 0 39.9242 0C46.349 0 51.9645 3.4053 55.1096 8.49888H55.1293L68.6839 27.6614L68.693 27.6599L68.6945 27.6614C66.8383 24.8461 65.7521 21.4786 65.7521 17.854C65.7521 7.9936 73.7457 0 83.6061 0Z" fill="#3253A0"/>
<path d="M121.244 42.8067L121.261 42.7961L120.94 42.3075C120.892 42.2334 120.844 42.1562 120.794 42.0851L98.7431 8.49805L70.2194 29.7498L91.0687 61.8407C91.1579 61.9768 91.2427 62.1145 91.3349 62.2506L91.4454 62.4201L91.4575 62.4125C94.6888 66.9963 100.014 69.9977 106.047 69.9977C115.907 69.9977 123.901 62.0056 123.901 52.1437C123.901 48.7157 122.919 45.5252 121.244 42.8067Z" fill="#95C748"/>
<mask id="mask0_1_6981" style="mask-type:luminance" maskUnits="userSpaceOnUse" x="70" y="8" width="54" height="62">
<path d="M121.244 42.8067L121.261 42.7961L120.94 42.3075C120.892 42.2334 120.843 42.1562 120.794 42.0851L98.7431 8.49805L70.2194 29.7498L91.0687 61.8407C91.1579 61.9768 91.2427 62.1145 91.3349 62.2506L91.4454 62.4201L91.4575 62.4125C94.6888 66.9963 100.014 69.9977 106.047 69.9977C115.907 69.9977 123.901 62.0056 123.901 52.1437C123.901 48.7157 122.919 45.5252 121.244 42.8067Z" fill="black"/>
</mask>
<g mask="url(#mask0_1_6981)">
<g filter="url(#filter0_d_1_6981)">
<path d="M101.46 17.854C101.46 7.9936 93.4665 0 83.6061 0C73.7457 0 65.7521 7.9936 65.7521 17.854C65.7521 21.4786 66.8383 24.8461 68.6945 27.6614C68.693 27.6614 68.693 27.6614 68.693 27.6599L68.6839 27.6614L55.1293 8.49888H55.1096C51.9645 3.4053 46.349 0 39.9242 0C33.4993 0 27.8839 3.4053 24.7388 8.49888H24.7206L3.13 42.1479C6.34015 37.4053 11.7681 34.2905 17.9251 34.2905C24.4059 34.2905 30.0623 37.7548 33.1907 42.921H33.2134L47.3217 62.7265H47.3444C50.5954 67.1302 55.807 69.9985 61.7008 69.9985C67.5962 69.9985 72.8078 67.1302 76.0588 62.7265H76.083L76.2267 62.5041C76.5943 61.9867 76.9392 61.4557 77.2509 60.9005L98.3891 27.8657C98.3891 27.8657 98.3891 27.8657 98.3891 27.8672C100.326 25.011 101.46 21.5649 101.46 17.854ZM71.3676 30.8307C71.4705 30.9291 71.5779 31.0229 71.6838 31.1182C71.5779 31.0229 71.472 30.9291 71.3676 30.8307ZM72.9545 32.159C73.0725 32.2467 73.1875 32.3375 73.307 32.4222C73.1875 32.3375 73.0725 32.2467 72.9545 32.159ZM76.8727 34.3843C77.0209 34.4463 77.1767 34.4947 77.328 34.5522C77.1767 34.4947 77.0209 34.4463 76.8727 34.3843ZM78.7939 35.0333C79.0057 35.0938 79.2205 35.1467 79.4353 35.1967C79.2205 35.1483 79.0057 35.0938 78.7939 35.0333ZM80.8801 35.4796C81.0873 35.5113 81.293 35.5491 81.5033 35.5749C81.293 35.5491 81.0888 35.5113 80.8801 35.4796ZM95.3469 31.2816C95.5057 31.1424 95.6631 31.0002 95.8174 30.8549C95.6631 31.0002 95.5072 31.1424 95.3469 31.2816ZM85.6862 35.5779C85.898 35.5537 86.1068 35.5128 86.317 35.4826C86.1068 35.5128 85.8995 35.5537 85.6862 35.5779ZM87.7179 35.2133C87.9448 35.1604 88.1717 35.1014 88.3956 35.0393C88.1717 35.1014 87.9463 35.1604 87.7179 35.2133ZM89.7359 34.6052C89.9266 34.5356 90.1217 34.472 90.3093 34.3949C90.1217 34.472 89.9281 34.5356 89.7359 34.6052ZM93.7857 32.5115C93.937 32.4071 94.0807 32.2906 94.2289 32.1802C94.0807 32.2906 93.937 32.4056 93.7857 32.5115ZM96.8143 29.8368C96.9399 29.6992 97.07 29.5645 97.191 29.4223C97.07 29.5645 96.9399 29.6992 96.8143 29.8368Z" fill="black"/>
</g>
</g>
<path d="M101.389 17.854C101.389 7.9936 93.3954 0 83.535 0C73.6746 0 65.681 7.9936 65.681 17.854C65.681 27.7144 73.6746 35.708 83.535 35.708C93.3954 35.708 101.389 27.7144 101.389 17.854Z" fill="#F38334"/>
<path d="M83.535 35.7099C77.2978 35.7099 71.8154 32.5074 68.6234 27.6619H68.6128L55.0582 8.49932H55.0385C51.8934 3.40725 46.2779 0.00195312 39.8531 0.00195312C33.4282 0.00195312 27.8128 3.40725 24.6677 8.49932H24.6495L3.06042 42.1484C6.26906 37.4073 11.6985 34.2924 17.854 34.2924C24.3348 34.2924 29.9927 37.7552 33.1212 42.9214H33.1438L47.2522 62.7269H47.2733C50.5258 67.1292 55.7374 70.0004 61.6313 70.0004C67.5251 70.0004 72.7367 67.1307 75.9877 62.7269H76.0119L76.1556 62.503C76.5232 61.9872 76.8681 61.4562 77.1813 60.9025L98.318 27.8676C95.1064 32.5981 89.6845 35.7099 83.535 35.7099Z" fill="#3152A0"/>
<defs>
<filter id="filter0_d_1_6981" x="-0.869995" y="-2" width="106.33" height="77.998" filterUnits="userSpaceOnUse" color-interpolation-filters="sRGB">
<feFlood flood-opacity="0" result="BackgroundImageFix"/>
<feColorMatrix in="SourceAlpha" type="matrix" values="0 0 0 0 0 0 0 0 0 0 0 0 0 0 0 0 0 0 127 0" result="hardAlpha"/>
<feOffset dy="2"/>
<feGaussianBlur stdDeviation="2"/>
<feColorMatrix type="matrix" values="0 0 0 0 0 0 0 0 0 0 0 0 0 0 0 0 0 0 0.5 0"/>
<feBlend mode="normal" in2="BackgroundImageFix" result="effect1_dropShadow_1_6981"/>
<feBlend mode="normal" in="SourceGraphic" in2="effect1_dropShadow_1_6981" result="shape"/>
</filter>
</defs>
</svg>
