<svg width="256" height="145" viewBox="0 0 256 145" fill="none" xmlns="http://www.w3.org/2000/svg">
<g clip-path="url(#clip0_1_6965)">
<path d="M250.511 88.448L250.546 88.4261L249.883 87.4165C249.783 87.2634 249.683 87.104 249.58 86.957L204.02 17.5605L145.085 61.4702L188.163 127.775C188.348 128.057 188.523 128.341 188.713 128.622L188.941 128.973L188.966 128.957C195.643 138.428 206.645 144.629 219.111 144.629C239.484 144.629 256 128.116 256 107.74C256 100.657 253.971 94.0649 250.511 88.448Z" fill="#95C748"/>
<path d="M73.7787 107.739C73.7787 87.3657 57.2626 70.8496 36.8894 70.8496C16.5161 70.8496 0 87.3657 0 107.739C0 128.115 16.5161 144.631 36.8894 144.631C57.2626 144.631 73.7787 128.112 73.7787 107.739Z" fill="#35BFC0"/>
<path d="M172.744 0C193.117 0 209.634 16.5161 209.634 36.8894C209.634 44.5567 207.289 51.677 203.288 57.5783V57.5751L159.613 125.831C158.969 126.978 158.257 128.075 157.497 129.144L157.2 129.603H157.15C150.433 138.702 139.665 144.629 127.484 144.629C115.307 144.629 104.539 138.702 97.8215 129.603H97.7746L68.6244 88.682H68.5776C62.1136 78.0078 50.4267 70.8499 37.0363 70.8499C24.3147 70.8499 13.0997 77.2857 6.46704 87.0848L51.0768 17.5601H51.1144C57.6127 7.03592 69.2152 0 82.49 0C95.7648 0 107.367 7.03592 113.866 17.5601H113.906L141.912 57.1532L141.931 57.1501C141.931 57.1532 141.931 57.1532 141.934 57.1532C138.099 51.3363 135.855 44.3785 135.855 36.8894C135.855 16.5161 152.371 0 172.744 0Z" fill="#3253A0"/>
<path d="M250.511 88.448L250.546 88.4261L249.883 87.4165C249.783 87.2634 249.683 87.104 249.58 86.957L204.02 17.5605L145.085 61.4702L188.163 127.775C188.348 128.057 188.523 128.341 188.713 128.622L188.941 128.973L188.966 128.957C195.643 138.428 206.645 144.629 219.111 144.629C239.484 144.629 256 128.116 256 107.74C256 100.657 253.971 94.0649 250.511 88.448Z" fill="#95C748"/>
<mask id="mask0_1_6965" style="mask-type:luminance" maskUnits="userSpaceOnUse" x="145" y="17" width="111" height="128">
<path d="M250.511 88.448L250.546 88.4261L249.883 87.4165C249.783 87.2634 249.683 87.104 249.58 86.957L204.02 17.5605L145.085 61.4702L188.163 127.775C188.348 128.057 188.523 128.341 188.713 128.622L188.941 128.973L188.966 128.957C195.643 138.428 206.645 144.629 219.111 144.629C239.484 144.629 256 128.116 256 107.74C256 100.657 253.971 94.0649 250.511 88.448Z" fill="black"/>
</mask>
<g mask="url(#mask0_1_6965)">
<g filter="url(#filter0_d_1_6965)">
<path d="M209.634 36.8894C209.634 16.5161 193.117 0 172.744 0C152.371 0 135.855 16.5161 135.855 36.8894C135.855 44.3785 138.099 51.3363 141.934 57.1532C141.931 57.1532 141.931 57.1532 141.931 57.1501L141.912 57.1532L113.906 17.5601H113.866C107.367 7.03592 95.7648 0 82.49 0C69.2152 0 57.6126 7.03592 51.1143 17.5601H51.0768L6.46704 87.0848C13.0997 77.2857 24.3147 70.8499 37.0362 70.8499C50.4267 70.8499 62.1136 78.0078 68.5776 88.682H68.6244L97.7746 129.603H97.8215C104.539 138.702 115.307 144.629 127.484 144.629C139.665 144.629 150.433 138.702 157.15 129.603H157.2L157.497 129.144C158.257 128.075 158.969 126.978 159.613 125.831L203.288 57.5751C203.288 57.5751 203.288 57.5752 203.288 57.5783C207.289 51.677 209.634 44.5567 209.634 36.8894ZM147.457 63.7015C147.67 63.9047 147.892 64.0985 148.111 64.2954C147.892 64.0985 147.673 63.9047 147.457 63.7015ZM150.736 66.4458C150.98 66.6271 151.218 66.8147 151.465 66.9897C151.218 66.8147 150.98 66.6271 150.736 66.4458ZM158.832 71.0437C159.138 71.1719 159.46 71.2719 159.773 71.3907C159.46 71.2719 159.138 71.1719 158.832 71.0437ZM162.801 72.3847C163.239 72.5097 163.683 72.6191 164.127 72.7222C163.683 72.6222 163.239 72.5097 162.801 72.3847ZM167.112 73.3067C167.54 73.3724 167.965 73.4505 168.399 73.5036C167.965 73.4505 167.543 73.3724 167.112 73.3067ZM197.003 64.6329C197.331 64.3454 197.656 64.0516 197.975 63.7515C197.656 64.0516 197.334 64.3454 197.003 64.6329ZM177.042 73.5099C177.48 73.4599 177.911 73.3755 178.345 73.313C177.911 73.3755 177.483 73.4599 177.042 73.5099ZM181.24 72.7566C181.709 72.6472 182.178 72.5253 182.64 72.3972C182.178 72.5253 181.712 72.6472 181.24 72.7566ZM185.409 71.5001C185.803 71.3563 186.207 71.225 186.594 71.0656C186.207 71.225 185.806 71.3563 185.409 71.5001ZM193.777 67.1741C194.09 66.9585 194.386 66.7178 194.693 66.4896C194.386 66.7178 194.09 66.9553 193.777 67.1741ZM200.035 61.6479C200.294 61.3635 200.563 61.0853 200.813 60.7915C200.563 61.0853 200.294 61.3635 200.035 61.6479Z" fill="black"/>
</g>
</g>
<path d="M209.487 36.8894C209.487 16.5161 192.971 0 172.597 0C152.224 0 135.708 16.5161 135.708 36.8894C135.708 57.2626 152.224 73.7787 172.597 73.7787C192.971 73.7787 209.487 57.2626 209.487 36.8894Z" fill="#F38334"/>
<path d="M172.597 73.7826C159.71 73.7826 148.383 67.1655 141.787 57.154H141.766L113.759 17.5609H113.719C107.22 7.03983 95.6179 0.00390625 82.3431 0.00390625C69.0683 0.00390625 57.4657 7.03983 50.9674 17.5609H50.9299L6.32324 87.0855C12.9528 77.2896 24.1709 70.8538 36.8893 70.8538C50.2798 70.8538 61.9698 78.0085 68.4338 88.6828H68.4807L97.6308 129.604H97.6746C104.395 138.7 115.163 144.633 127.34 144.633C139.518 144.633 150.286 138.703 157.003 129.604H157.053L157.35 129.142C158.11 128.076 158.822 126.979 159.469 125.835L203.141 57.5791C196.506 67.3531 185.303 73.7826 172.597 73.7826Z" fill="#3152A0"/>
</g>
<defs>
<filter id="filter0_d_1_6965" x="2.46704" y="-2" width="211.167" height="152.629" filterUnits="userSpaceOnUse" color-interpolation-filters="sRGB">
<feFlood flood-opacity="0" result="BackgroundImageFix"/>
<feColorMatrix in="SourceAlpha" type="matrix" values="0 0 0 0 0 0 0 0 0 0 0 0 0 0 0 0 0 0 127 0" result="hardAlpha"/>
<feOffset dy="2"/>
<feGaussianBlur stdDeviation="2"/>
<feColorMatrix type="matrix" values="0 0 0 0 0 0 0 0 0 0 0 0 0 0 0 0 0 0 0.5 0"/>
<feBlend mode="normal" in2="BackgroundImageFix" result="effect1_dropShadow_1_6965"/>
<feBlend mode="normal" in="SourceGraphic" in2="effect1_dropShadow_1_6965" result="shape"/>
</filter>
<clipPath id="clip0_1_6965">
<rect width="256" height="145" fill="white"/>
</clipPath>
</defs>
</svg>
