<svg width="256" height="251" viewBox="0 0 256 251" fill="none" xmlns="http://www.w3.org/2000/svg">
<g clip-path="url(#clip0_1_7043)">
<path d="M76.0197 64.2869C86.7885 73.0233 99.5898 78.8975 113.235 81.3644V8.55613L128.064 0L142.88 8.55613V81.3644C156.529 78.895 169.333 73.0212 180.108 64.2869L207.028 79.8573C163.246 123.173 92.754 123.173 48.9717 79.8573L76.0197 64.2869ZM108.737 250.215C124.35 190.623 89.0718 129.57 29.645 113.34V144.492C42.5989 149.449 54.0917 157.596 63.058 168.178L0 204.582V221.706L14.8283 230.216L77.8747 193.812C82.5609 206.865 83.8729 220.891 81.6891 234.586L108.737 250.215ZM226.413 113.34C167.018 129.606 131.779 190.645 147.39 250.215L174.369 234.633C172.19 220.937 173.502 206.912 178.183 193.858L241.183 230.216L256 221.66V204.582L192.942 168.178C201.911 157.598 213.403 149.452 226.355 144.492L226.413 113.34Z" fill="#231F20"/>
</g>
<defs>
<clipPath id="clip0_1_7043">
<rect width="256" height="251" fill="white"/>
</clipPath>
</defs>
</svg>
