<svg width="512" height="85" viewBox="0 0 512 85" fill="none" xmlns="http://www.w3.org/2000/svg">
<g clip-path="url(#clip0_1_7053)">
<path d="M42.6423 0.00417803L43.1806 0.0152708L37.4267 6.81412C26.7766 8.73975 17.5806 16.0122 13.9664 26.6889C8.58886 42.5742 17.6021 59.9781 34.0982 65.563C50.5944 71.1469 68.326 62.7962 73.7035 46.9119C77.2537 36.4247 74.5309 25.2762 67.5242 17.3029L67.2123 16.9533L66.77 8.02653C81.2775 18.5563 87.9314 37.6647 81.8811 55.5371C74.4351 77.5315 50.5693 89.3255 28.5748 81.88C6.58029 74.434 -5.21414 50.5681 2.23136 28.5736C8.23079 10.8516 24.8907 -0.247078 42.6423 0.00417803ZM190.4 28.314C195.954 28.314 200.293 29.6488 203.417 32.3199C206.541 34.99 208.103 39.2611 208.103 45.1353V69.1655C206.234 69.7527 203.964 70.3139 201.294 70.8479C198.624 71.3819 195.607 71.6487 192.243 71.6487C189.519 71.6487 187.022 71.409 184.753 70.9278C182.483 70.448 180.533 69.6457 178.907 68.525C177.277 67.4042 176.023 65.9619 175.14 64.2001C174.26 62.4368 173.819 60.2746 173.819 57.711C173.819 55.1484 174.367 52.9991 175.461 51.2634C176.556 49.5277 177.972 48.1392 179.706 47.0983C181.443 46.0564 183.378 45.3093 185.515 44.8552C187.651 44.4011 189.786 44.1742 191.922 44.1742C193.471 44.1742 195.18 44.2551 197.049 44.4144V43.4533C197.049 42.1723 196.835 41.1304 196.408 40.3291C195.981 39.5289 195.393 38.9006 194.646 38.448C193.899 37.9929 192.977 37.6857 191.883 37.5259C190.788 37.3657 189.573 37.2858 188.237 37.2858C185.354 37.2858 182.283 37.8464 179.026 38.9677C178.278 37.5792 177.718 36.2705 177.344 35.0422C176.971 33.8144 176.783 32.346 176.783 30.6365C179.133 29.8362 181.483 29.2489 183.832 28.8752C186.181 28.5014 188.372 28.314 190.4 28.314ZM160.072 16.1115C162.27 16.1115 164.381 16.2733 166.406 16.5954L169.356 71.1659C167.159 71.4884 165.076 71.6487 163.109 71.6487C161.141 71.6487 159.204 71.4884 157.296 71.1659L155.734 31.7106L143.064 58.9803C142.253 59.0878 141.415 59.183 140.547 59.2624C139.679 59.3433 138.812 59.3827 137.944 59.3827C137.191 59.3827 136.44 59.3566 135.688 59.3028C134.936 59.2496 134.155 59.141 133.344 58.9803L121.544 31.1454L120.329 71.1659C118.478 71.4884 116.684 71.6487 114.948 71.6487C113.097 71.6487 111.188 71.4884 109.221 71.1659L111.651 16.5954C113.965 16.2733 116.192 16.1115 118.332 16.1115C120.589 16.1115 122.817 16.2733 125.015 16.5954L139.333 46.3129L154.084 16.5954C155.878 16.2733 157.873 16.1115 160.072 16.1115ZM290.906 28.314C293.789 28.314 296.353 28.8209 298.595 29.8362C300.838 30.8505 302.747 32.2395 304.323 34.0023C305.898 35.7631 307.087 37.8597 307.888 40.2892C308.689 42.7191 309.089 45.3232 309.089 48.0987C309.089 49.114 309.049 50.116 308.969 51.1036C308.889 52.0903 308.794 52.8788 308.689 53.4665H282.095C282.309 56.6701 283.429 58.9931 285.459 60.4354C287.488 61.8772 290.158 62.598 293.47 62.598C295.285 62.598 297.14 62.424 299.036 62.0763C300.932 61.7297 302.734 61.2356 304.443 60.5956C305.031 61.6636 305.538 62.9442 305.965 64.4397C306.392 65.9342 306.632 67.5373 306.686 69.2459C302.52 70.8479 297.821 71.6487 292.587 71.6487C288.743 71.6487 285.446 71.1147 282.695 70.0471C279.946 68.9791 277.703 67.4964 275.967 65.6014C274.231 63.706 272.949 61.4496 272.122 58.8323C271.294 56.216 270.881 53.3595 270.881 50.2629C270.881 47.2186 271.307 44.3616 272.162 41.6916C273.015 39.0205 274.285 36.698 275.967 34.7227C277.649 32.7459 279.732 31.1843 282.215 30.0364C284.698 28.888 287.595 28.314 290.906 28.314ZM426.998 28.314C430.362 28.314 433.298 28.8752 435.808 29.9959C438.318 31.1188 440.4 32.6527 442.057 34.6024C443.713 36.5511 444.94 38.8612 445.742 41.5308C446.542 44.2004 446.943 47.0578 446.943 50.1017C446.943 53.146 446.542 55.9753 445.742 58.5922C444.94 61.209 443.713 63.492 442.057 65.4402C440.4 67.3904 438.318 68.9125 435.808 70.0067C433.298 71.1013 430.362 71.6487 426.998 71.6487C423.633 71.6487 420.709 71.1013 418.227 70.0067C415.743 68.9125 413.687 67.3904 412.059 65.4402C410.43 63.492 409.202 61.209 408.374 58.5922C407.546 55.9753 407.133 53.146 407.133 50.1017C407.133 47.0578 407.546 44.2004 408.374 41.5308C409.202 38.8612 410.43 36.5511 412.059 34.6024C413.687 32.6527 415.743 31.1188 418.227 29.9959C420.709 28.8752 423.633 28.314 426.998 28.314ZM468.275 28.314C470.358 28.314 472.413 28.5014 474.442 28.8752C476.472 29.2489 478.527 29.8091 480.61 30.5571C480.503 31.9451 480.236 33.3869 479.808 34.8825C479.382 36.3775 478.875 37.6857 478.287 38.808C477.005 38.2734 475.591 37.8065 474.041 37.4056C472.494 37.0057 470.864 36.805 469.156 36.805C467.34 36.805 465.926 37.0851 464.91 37.6462C463.896 38.2069 463.389 39.1013 463.389 40.3291C463.389 41.5042 463.749 42.3321 464.47 42.8128C465.19 43.2931 466.219 43.7477 467.553 44.1742L472.119 45.5367C473.615 45.9632 474.963 46.4839 476.165 47.0983C477.365 47.7127 478.394 48.4735 479.248 49.3808C480.103 50.2885 480.77 51.4103 481.25 52.7451C481.732 54.0804 481.972 55.7091 481.972 57.6306C481.972 59.6075 481.558 61.4496 480.73 63.1577C479.903 64.8672 478.701 66.349 477.126 67.6034C475.55 68.8593 473.641 69.8469 471.398 70.5673C469.156 71.2887 466.619 71.6487 463.789 71.6487C462.507 71.6487 461.333 71.6087 460.265 71.5289C459.196 71.448 458.168 71.3148 457.181 71.1285C456.194 70.9411 455.219 70.7148 454.257 70.448C453.296 70.1808 452.254 69.8341 451.133 69.4061C451.24 67.9638 451.493 66.5082 451.894 65.0408C452.295 63.5729 452.815 62.1434 453.456 60.7548C455.219 61.4496 456.887 61.9698 458.463 62.317C460.038 62.6646 461.68 62.8382 463.389 62.8382C464.137 62.8382 464.95 62.7711 465.831 62.6375C466.713 62.5038 467.527 62.2637 468.275 61.9171C469.023 61.5694 469.65 61.1153 470.157 60.5552C470.665 59.9945 470.917 59.2598 470.917 58.3515C470.917 57.071 470.531 56.1494 469.756 55.5883C468.981 55.0286 467.9 54.533 466.513 54.107L461.546 52.6652C458.555 51.8102 456.219 50.5425 454.538 48.8601C452.855 47.1787 452.014 44.6545 452.014 41.2901C452.014 37.2315 453.469 34.0556 456.379 31.7588C459.29 29.4619 463.256 28.314 468.275 28.314ZM256.952 17.1796V29.275H266.645C266.805 30.0763 266.912 30.7972 266.966 31.4377C267.019 32.0793 267.045 32.7459 267.045 33.4407C267.045 34.1882 267.019 34.9086 266.966 35.6034C266.912 36.2981 266.805 37.0723 266.645 37.9263H256.952V54.1874C256.952 55.8417 257.088 57.177 257.354 58.1923C257.621 59.206 258.008 60.0073 258.515 60.5956C259.023 61.1824 259.65 61.5827 260.398 61.7963C261.145 62.0103 262.027 62.1173 263.041 62.1173C263.842 62.1173 264.629 62.0497 265.404 61.9171C266.178 61.7835 266.859 61.6636 267.446 61.5566C267.821 62.5699 268.086 63.6256 268.247 64.7198C268.408 65.8149 268.488 66.7898 268.488 67.6443C268.488 68.2316 268.474 68.7252 268.448 69.1266C268.421 69.5259 268.381 69.9145 268.327 70.2873C265.871 70.8755 263.335 71.1679 260.718 71.1679C255.859 71.1679 252.147 70.0333 249.584 67.7646C247.021 65.4949 245.739 61.7963 245.739 56.6701V37.9263H240.533L240.131 36.3237L255.111 17.1796H256.952ZM226.9 17.1796V29.275H236.592C236.751 30.0763 236.859 30.7972 236.913 31.4377C236.965 32.0793 236.992 32.7459 236.992 33.4407C236.992 34.1882 236.965 34.9086 236.913 35.6034C236.859 36.2981 236.751 37.0723 236.592 37.9263H226.9V54.1874C226.9 55.8417 227.034 57.177 227.301 58.1923C227.567 59.206 227.955 60.0073 228.462 60.5956C228.97 61.1824 229.597 61.5827 230.344 61.7963C231.092 62.0103 231.974 62.1173 232.987 62.1173C233.789 62.1173 234.576 62.0497 235.351 61.9171C236.125 61.7835 236.806 61.6636 237.393 61.5566C237.768 62.5699 238.033 63.6256 238.195 64.7198C238.355 65.8149 238.434 66.7898 238.434 67.6443C238.434 68.2316 238.422 68.7252 238.394 69.1266C238.368 69.5259 238.328 69.9145 238.274 70.2873C235.818 70.8755 233.282 71.1679 230.665 71.1679C225.805 71.1679 222.093 70.0333 219.531 67.7646C216.968 65.4949 215.686 61.7963 215.686 56.6701V37.9263H210.479L210.078 36.3237L225.058 17.1796H226.9ZM334.739 28.7943C335.274 28.7943 335.888 28.8209 336.582 28.8752C337.276 28.9284 337.783 29.0083 338.104 29.1158C338.21 29.6488 338.291 30.2632 338.344 30.9575C338.399 31.6512 338.425 32.3726 338.425 33.1207C338.425 34.0285 338.384 35.0161 338.305 36.0841C338.224 37.1522 338.077 38.1664 337.863 39.1275C337.276 39.0204 336.623 38.9677 335.902 38.9677H334.58C333.671 38.9677 332.658 39.0614 331.535 39.2478C330.415 39.4352 329.347 39.9287 328.331 40.7305C327.316 41.5308 326.476 42.7325 325.809 44.335C325.141 45.9365 324.807 48.1796 324.807 51.0637V70.7685C323.846 70.9278 322.885 71.0348 321.923 71.088C320.963 71.1418 320.029 71.1679 319.12 71.1679C318.212 71.1679 317.291 71.1418 316.356 71.088C315.422 71.0348 314.447 70.9278 313.433 70.7685V29.275C314.233 29.1158 314.995 28.995 315.716 28.9151C316.438 28.8342 317.224 28.7943 318.079 28.7943C318.88 28.7943 319.668 28.8485 320.441 28.9545C321.217 29.0615 321.977 29.1952 322.724 29.3554C322.885 29.6232 323.032 30.0093 323.165 30.5166C323.299 31.0245 323.419 31.5586 323.526 32.1192C323.633 32.6804 323.725 33.24 323.806 33.8016C323.886 34.3623 323.952 34.8282 324.006 35.2035C325.181 33.5477 326.624 32.0654 328.331 30.7578C330.04 29.4491 332.177 28.7943 334.739 28.7943ZM390.135 28.314C394.834 28.314 398.292 29.6099 400.508 32.2001C402.724 34.7888 403.832 38.8346 403.832 44.335V70.6876C401.91 71.0082 400.014 71.1679 398.146 71.1679C396.276 71.1679 394.38 71.0082 392.459 70.6876V47.298C392.459 44.4144 392.097 42.1984 391.376 40.6507C390.656 39.1013 389.201 38.3272 387.012 38.3272C386.103 38.3272 385.209 38.4608 384.329 38.7271C383.447 38.9938 382.646 39.4874 381.925 40.2088C381.204 40.9297 380.617 41.945 380.163 43.2537C379.708 44.5603 379.482 46.2576 379.482 48.3394V70.6876C377.559 71.0082 375.663 71.1679 373.794 71.1679C371.926 71.1679 370.03 71.0082 368.107 70.6876V47.298C368.107 44.4144 367.747 42.1984 367.026 40.6507C366.304 39.1013 364.85 38.3272 362.66 38.3272C361.754 38.3272 360.845 38.4608 359.937 38.7271C359.029 38.9938 358.215 39.5145 357.493 40.2892C356.772 41.0628 356.198 42.1447 355.772 43.5337C355.344 44.9212 355.13 46.7373 355.13 48.9799V70.6876C353.208 71.0082 351.313 71.1679 349.444 71.1679C347.574 71.1679 345.679 71.0082 343.757 70.6876V29.275C344.504 29.1158 345.251 28.995 345.999 28.9151C346.747 28.8342 347.574 28.7943 348.483 28.7943C349.39 28.7943 350.192 28.8342 350.885 28.9151C351.58 28.995 352.301 29.1158 353.048 29.275C353.208 29.5423 353.355 29.9299 353.489 30.4373C353.622 30.9442 353.742 31.4787 353.849 32.0388C353.956 32.5995 354.049 33.1468 354.129 33.6808C354.21 34.2148 354.276 34.669 354.33 35.0422C354.757 34.2425 355.318 33.4407 356.013 32.6394C356.706 31.8391 357.534 31.1188 358.495 30.4772C359.456 29.8362 360.537 29.315 361.739 28.9151C362.94 28.5142 364.29 28.314 365.785 28.314C372.246 28.314 376.384 30.7711 378.2 35.6837C379.268 33.7074 380.776 31.9861 382.726 30.5166C384.674 29.0482 387.145 28.314 390.135 28.314ZM500.466 17.1796V29.275H510.157C510.318 30.0763 510.425 30.7972 510.478 31.4377C510.532 32.0793 510.559 32.7459 510.559 33.4407C510.559 34.1882 510.532 34.9086 510.478 35.6034C510.425 36.2981 510.318 37.0723 510.157 37.9263H500.466V54.1874C500.466 55.8417 500.6 57.177 500.866 58.1923C501.133 59.206 501.52 60.0073 502.027 60.5956C502.536 61.1824 503.162 61.5827 503.91 61.7963C504.657 62.0103 505.54 62.1173 506.553 62.1173C507.355 62.1173 508.142 62.0497 508.917 61.9171C509.69 61.7835 510.371 61.6636 510.959 61.5566C511.333 62.5699 511.6 63.6256 511.759 64.7198C511.921 65.8149 512 66.7898 512 67.6443C512 68.2316 511.987 68.7252 511.96 69.1266C511.933 69.5259 511.894 69.9145 511.84 70.2873C509.384 70.8755 506.848 71.1679 504.23 71.1679C499.371 71.1679 495.66 70.0333 493.096 67.7646C490.533 65.4949 489.251 61.7963 489.251 56.6701V37.9263H484.045L483.644 36.3237L498.623 17.1796H500.466ZM426.998 37.2054C424.061 37.2054 421.939 38.3129 420.63 40.5298C419.321 42.7458 418.667 45.9365 418.667 50.1017C418.667 54.2668 419.321 57.4581 420.63 59.674C421.939 61.8905 424.061 62.9979 426.998 62.9979C429.988 62.9979 432.138 61.8905 433.445 59.674C434.754 57.4581 435.408 54.2668 435.408 50.1017C435.408 45.9365 434.754 42.7458 433.445 40.5298C432.138 38.3129 429.988 37.2054 426.998 37.2054ZM192.964 51.3038C190.347 51.3038 188.277 51.7703 186.755 52.7052C185.233 53.6396 184.473 55.1484 184.473 57.2308C184.473 58.6198 184.767 59.6868 185.354 60.4354C185.942 61.1824 186.649 61.7297 187.477 62.0763C188.304 62.424 189.185 62.6375 190.119 62.7179C191.055 62.7972 191.869 62.8382 192.562 62.8382C193.364 62.8382 194.165 62.7711 194.966 62.6375C195.767 62.5038 196.461 62.3845 197.049 62.277V51.7042C196.408 51.5967 195.714 51.5035 194.966 51.4236C194.218 51.3438 193.552 51.3038 192.964 51.3038ZM54.9761 3.88548C55.1715 3.95161 55.3295 4.07463 55.4435 4.22817L55.5065 4.32375L55.53 4.36215L55.551 4.40618C55.6063 4.51165 55.6534 4.63249 55.6754 4.78097C55.7156 5.05213 55.7353 5.66276 55.7442 6.31161L55.7484 6.7031C55.7494 6.83352 55.7501 6.96306 55.7505 7.0893L55.7503 7.78802C55.749 8.15582 55.7463 8.42108 55.7457 8.47549L55.7456 8.4858L55.911 14.7066L56.1552 21.8874L56.4598 34.3664C56.4598 34.3664 56.46 34.3737 56.4601 34.388L56.4603 34.4515C56.4575 35.1768 56.3061 40.3839 52.6106 44.0043C48.6308 47.9031 43.7423 47.5463 40.5617 46.4701C37.3812 45.3928 33.2816 42.7068 32.4885 37.1921C31.7104 31.7819 35.1507 27.3673 35.2808 27.2026L35.2845 27.1979L43.1069 17.4704L47.6632 11.9147L51.5733 7.07319C51.5733 7.07319 53.3679 4.66935 53.8794 4.17271C53.9469 4.10717 54.0157 4.05688 54.0842 4.01592L54.1866 3.96074L54.2613 3.92285L54.2741 3.91773C54.4891 3.82455 54.737 3.80458 54.9761 3.88548ZM290.745 36.9643C288.075 36.9643 286.047 37.7123 284.658 39.2078C283.27 40.7029 282.443 42.8128 282.176 45.5367H298.355C298.249 42.9726 297.541 40.9036 296.232 39.3287C294.924 37.7533 293.095 36.9643 290.745 36.9643Z" fill="#0058CC"/>
</g>
<defs>
<clipPath id="clip0_1_7053">
<rect width="512" height="85" fill="white"/>
</clipPath>
</defs>
</svg>
