<svg width="512" height="110" viewBox="0 0 512 110" fill="none" xmlns="http://www.w3.org/2000/svg">
<g clip-path="url(#clip0_1_7046)">
<path d="M33.3666 28.2169C38.0933 32.0514 43.712 34.6297 49.7014 35.7125V3.75546L56.2098 0L62.7132 3.75546V35.7125C68.7037 34.6287 74.3239 32.0505 79.053 28.2169L90.869 35.051C71.652 54.0633 40.7116 54.0633 21.4947 35.051L33.3666 28.2169ZM47.727 109.824C54.58 83.6683 39.0955 56.8711 13.0118 49.7472V63.4205C18.6976 65.5962 23.742 69.1721 27.6775 73.8167L0 89.7953V97.3113L6.50845 101.046L34.1808 85.0679C36.2377 90.7972 36.8136 96.9534 35.855 102.965L47.727 109.824ZM99.3773 49.7472C73.3078 56.8869 57.8405 83.6779 64.6927 109.824L76.5341 102.985C75.5778 96.9737 76.1536 90.8181 78.2083 85.0882L105.86 101.046L112.364 97.2909V89.7953L84.6862 73.8167C88.6227 69.1732 93.6669 65.5975 99.3519 63.4205L99.3773 49.7472Z" fill="#231F20"/>
<path d="M315.23 45.7721V35.0502H321.647V89.7945H315.23V79.1082C310.384 86.5587 302.063 91.0112 293.176 90.9089C277.601 90.7007 265.085 78.016 265.085 62.4401C265.085 46.8643 277.601 34.1796 293.176 33.9714C302.063 33.869 310.384 38.3216 315.23 45.7721ZM293.176 40.3679C280.995 40.3679 271.121 50.242 271.121 62.4223C271.121 74.6027 280.995 84.4768 293.176 84.4768C299.027 84.4835 304.64 82.1621 308.778 78.0246C312.915 73.8872 315.237 68.2736 315.23 62.4223C315.23 50.242 305.356 40.3679 293.176 40.3679ZM390.466 16.3594L384.055 20.0385V35.0502H351.441V16.3594L345.029 20.0385V35.0502H336.424V41.2279H345.029V77.2813C344.995 80.5971 346.292 83.7881 348.63 86.14C350.967 88.4919 354.15 89.8083 357.466 89.7947H367.008V83.3827H357.466C354.149 83.3387 351.485 80.6581 351.441 77.3601L351.441 41.2279H384.055V77.2813C384.015 80.5846 385.299 83.7663 387.62 86.1171C389.941 88.4678 393.107 89.792 396.41 89.7947H406.033V83.3827H396.41C393.125 83.2953 390.508 80.6266 390.467 77.3586L390.466 41.2279H406.033V35.0502H390.466V16.3594ZM244.69 57.3387V89.7945H251.102V57.3387C251.102 43.701 240.635 33.9307 227.694 33.9307C219.323 33.9307 211.7 38.2306 207.477 46.9934C203.177 38.312 195.63 33.9307 187.341 33.9307C174.426 33.9307 163.933 43.6755 163.933 57.3387V89.7945H170.349V57.3387C170.349 47.2427 177.947 40.3679 187.32 40.3679C196.694 40.3679 204.347 47.2427 204.347 57.3387V89.7945H210.759V57.3387C210.759 47.2427 218.356 40.3679 227.73 40.3679C237.103 40.3679 244.69 47.2427 244.69 57.3387ZM509.578 40.3679H512V33.9561H509.578C496.663 33.9561 486.17 43.701 486.17 57.3642V89.8199H492.587V57.3387C492.607 47.3437 500.053 40.5057 509.297 40.3699L509.578 40.3679ZM444.196 34.3062C459.616 34.3062 472.202 46.5734 472.654 61.9306L472.664 62.4223C472.664 63.0482 472.583 63.7556 472.583 64.3815H421.838C422.856 75.658 432.728 84.4768 445.526 84.4768C453.424 84.4768 459.678 81.1182 463.749 75.9532L469.377 79.1591C464.136 86.2833 455.77 90.8936 445.526 90.8936C428.474 90.8936 415.727 78.1464 415.727 62.3969C415.935 46.8225 428.62 34.3062 444.196 34.3062ZM444.193 40.3679C433.507 40.3679 424.205 48.0264 422.169 58.2038H466.217C464.181 48.0264 454.879 40.3679 444.193 40.3679Z" fill="#231F20"/>
</g>
<defs>
<clipPath id="clip0_1_7046">
<rect width="512" height="110" fill="white"/>
</clipPath>
</defs>
</svg>
