<svg width="512" height="212" viewBox="0 0 512 212" fill="none" xmlns="http://www.w3.org/2000/svg">
<g clip-path="url(#clip0_1_7082)">
<path d="M19.4784 2.7832H492.522C501.743 2.7832 509.217 10.2581 509.217 19.4789V192.001C509.217 201.221 501.743 208.696 492.522 208.696H19.4784C10.2576 208.696 2.78271 201.221 2.78271 192.001V19.4789C2.78271 10.2581 10.2576 2.7832 19.4784 2.7832Z" fill="white"/>
<path d="M19.4783 0H492.522C503.279 0 512 8.72071 512 19.4783V192C512 202.758 503.279 211.478 492.522 211.478H19.4783C8.72071 211.478 0 202.758 0 192V19.4783C0 8.72071 8.72071 0 19.4783 0ZM19.4783 5.56522C11.7943 5.56522 5.56522 11.7943 5.56522 19.4783V192C5.56522 199.684 11.7943 205.913 19.4783 205.913H492.522C500.206 205.913 506.435 199.684 506.435 192V19.4783C506.435 11.7943 500.206 5.56522 492.522 5.56522H19.4783Z" fill="#EAEAEA"/>
<path d="M272.696 40.2031L272.695 125.099L303.879 93.9208L319.619 109.662L261.977 167.3L203.608 108.931L219.349 93.1902L250.434 124.275L250.435 40.2031H272.696Z" fill="black"/>
<path d="M72.1622 162.98V97.2327L112.417 137.49L152.977 96.9331V162.316H175.237V43.1934L112.418 106.008L49.9014 43.4874V162.98H72.1622Z" fill="black"/>
<path d="M447.847 36.6504L463.587 52.3915L416.438 99.5387L462.137 145.239L446.396 160.98L400.696 115.281L354.995 160.98L339.255 145.239L384.95 99.5387L337.804 52.3915L353.544 36.6504L400.696 83.7965L447.847 36.6504Z" fill="#F9AC00"/>
</g>
<defs>
<clipPath id="clip0_1_7082">
<rect width="512" height="212" fill="white"/>
</clipPath>
</defs>
</svg>
