<svg width="512" height="123" viewBox="0 0 512 123" fill="none" xmlns="http://www.w3.org/2000/svg">
<g clip-path="url(#clip0_1_7098)">
<path d="M204.816 88.3034H193.246V58.3054C193.246 54.9609 192.427 52.3332 190.789 50.4219C189.152 48.4426 186.898 47.4529 184.033 47.4529C180.755 47.4529 178.196 48.5448 176.353 50.729C174.579 52.9131 173.692 55.9164 173.692 59.7388V88.3034H162.02V38.136H173.487V42.5386C176.627 38.7844 180.96 36.9074 186.49 36.9074C192.7 36.9074 197.376 39.0915 200.516 43.46C204.406 39.0915 209.627 36.9074 216.18 36.9074C222.569 36.9074 227.433 38.7245 230.772 42.3578L231.026 42.6409C234.438 46.3949 236.145 51.8894 236.145 59.1245V88.3034H224.473V58.3054C224.473 54.9609 223.654 52.3332 222.016 50.4219C220.378 48.4426 218.125 47.4529 215.259 47.4529C211.982 47.4529 209.422 48.579 207.581 50.8316C205.737 53.0158 204.816 55.9846 204.816 59.7388V88.3034ZM292.924 62.6055L292.822 66.7006H258.524C258.797 70.4549 260.127 73.4237 262.517 75.6078C264.906 77.7919 267.977 78.8843 271.731 78.8843C277.123 78.8843 281.423 76.5293 284.632 71.8199L292.515 79.1913C287.191 86.0168 280.263 89.4295 271.731 89.4295C264.155 89.4295 258.081 87.0407 253.508 82.2628C248.865 77.4167 246.545 71.1714 246.545 63.5269C246.545 56.0871 248.662 49.7734 252.893 44.5861C257.193 39.4671 262.892 36.9074 269.99 36.9074C277.567 36.9074 283.266 39.4331 287.089 44.4838C290.979 49.5345 292.924 55.5751 292.924 62.6055ZM270.093 47.5553C267.158 47.5553 264.735 48.4767 262.824 50.3196C260.981 52.1625 259.752 54.5173 259.138 57.384H280.536C280.468 54.5856 279.547 52.2648 277.772 50.4219C275.997 48.5108 273.437 47.5553 270.093 47.5553ZM327.305 36.9071C332.9 36.9071 337.575 38.5455 341.329 41.8215V16.5332H353.001V88.3032H341.534V83.7982C337.987 87.5522 333.242 89.4292 327.305 89.4292C320.207 89.4292 314.336 86.972 309.692 82.0576C305.121 77.0751 302.834 70.7958 302.834 63.2195C302.834 55.6431 305.121 49.3638 309.692 44.3813C314.266 39.3985 320.135 36.9071 327.305 36.9071ZM337.95 51.7528C335.564 48.7495 332.286 47.2478 328.121 47.2478C323.96 47.2478 320.683 48.7495 318.292 51.7528C315.907 54.7557 314.711 58.5782 314.711 63.2195C314.711 67.8607 315.907 71.6832 318.292 74.6861C320.683 77.6894 323.96 79.1911 328.121 79.1911C332.286 79.1911 335.564 77.6894 337.95 74.6861C340.34 71.6832 341.534 67.8607 341.534 63.2195C341.534 58.5782 340.34 54.7557 337.95 51.7528ZM365.851 38.1365H377.522V68.1346C377.522 71.4792 378.342 74.1412 379.979 76.1205C381.619 78.0315 383.939 78.9871 386.942 78.9871C390.149 78.9871 392.676 77.861 394.519 75.6085C396.43 73.288 397.385 70.2164 397.385 66.3941V38.1365H409.057V88.304H397.591V84.2086C394.382 87.6897 390.048 89.43 384.586 89.43C378.855 89.43 374.282 87.4849 370.869 83.5943C367.524 79.6354 365.851 74.2093 365.851 67.3155V38.1365ZM443.646 69.3627L436.99 67.7247C426.82 65.3356 421.737 60.046 421.737 51.8553C421.737 47.3504 423.441 43.7331 426.853 41.003C430.267 38.2727 434.671 36.9074 440.061 36.9074C447.298 36.9074 453.61 39.7058 459.003 45.3029L451.531 53.2887C448.458 49.0569 444.534 46.941 439.755 46.941C437.708 46.941 436.035 47.4189 434.738 48.3744C433.51 49.2618 432.895 50.3536 432.895 51.6505C432.895 53.9713 434.533 55.5411 437.81 56.3602L445.694 58.2031C455.932 60.5236 461.052 65.7451 461.052 73.8676C461.052 78.5089 459.277 82.2628 455.725 85.1294C452.246 87.9964 447.399 89.4295 441.189 89.4295C432.45 89.4295 425.524 86.1875 420.404 79.7034L427.775 72.1269C431.461 76.9731 436.24 79.3961 442.11 79.3961C447.231 79.3961 449.789 77.6897 449.789 74.2769C449.789 72.0928 447.739 70.4549 443.646 69.3627ZM486.2 89.4295C481.354 89.4295 477.326 88.0645 474.121 85.3342C470.911 82.5359 469.307 78.816 469.307 74.1747C469.307 68.8506 471.217 64.7213 475.042 61.7862C478.863 58.8515 483.915 57.384 490.193 57.384C493.332 57.384 496.711 57.9642 500.329 59.1245V55.7459C500.329 53.2887 499.408 51.3093 497.565 49.8076C495.722 48.2378 493.366 47.4529 490.5 47.4529C485.245 47.4529 481.286 49.8761 478.623 54.7218L470.742 47.3504C472.584 44.0059 475.281 41.4465 478.828 39.6717C482.447 37.8289 486.373 36.9074 490.601 36.9074C497.223 36.9074 502.445 38.5458 506.266 41.8218C510.09 45.0981 512 49.7734 512 55.8482V88.3034H500.534V84.4128C496.781 87.7573 492.002 89.4295 486.2 89.4295ZM480.979 73.3555C480.979 75.062 481.626 76.461 482.923 77.5534C484.29 78.6452 486.167 79.1913 488.556 79.1913C493.47 79.1913 497.396 77.7579 500.329 74.8912V69.1578C496.643 67.7928 493.164 67.1104 489.886 67.1104C487.155 67.1104 484.971 67.6562 483.335 68.7484C481.765 69.8405 480.979 71.3764 480.979 73.3555Z" fill="#111111"/>
<path d="M99.4475 19.9429L71.7098 3.93737C62.6343 -1.31246 51.5134 -1.31246 42.4377 3.93737L14.572 19.9429C5.62428 25.1927 0 34.9241 0 45.2959V77.4347C0 87.9345 5.62428 97.5377 14.572 102.787L42.31 118.921C51.3857 124.171 62.5061 124.171 71.5817 118.921L99.3197 102.787C108.395 97.5377 113.892 87.9345 113.892 77.4347V45.2959C114.147 34.9241 108.523 25.1927 99.4475 19.9429ZM57.0098 89.9832C41.2873 89.9832 28.5049 77.1788 28.5049 61.4293C28.5049 45.6797 41.2873 32.8755 57.0098 32.8755C72.7322 32.8755 85.6425 45.6797 85.6425 61.4293C85.6425 77.1788 72.86 89.9832 57.0098 89.9832Z" fill="url(#paint0_linear_1_7098)"/>
</g>
<defs>
<linearGradient id="paint0_linear_1_7098" x1="-7596.82" y1="10058.5" x2="12566.3" y2="4999.3" gradientUnits="userSpaceOnUse">
<stop offset="0.265625" stop-color="#592EE1"/>
<stop offset="1" stop-color="#B836D9"/>
</linearGradient>
<clipPath id="clip0_1_7098">
<rect width="512" height="123" fill="white"/>
</clipPath>
</defs>
</svg>
