<svg width="256" height="277" viewBox="0 0 256 277" fill="none" xmlns="http://www.w3.org/2000/svg">
<g clip-path="url(#clip0_1_7095)">
<path d="M223.517 44.8234L161.174 8.84957C140.776 -2.94986 115.781 -2.94986 95.3824 8.84957L32.7518 44.8234C12.6411 56.6228 0 78.4949 0 101.806V174.041C0 197.64 12.6411 219.224 32.7518 231.023L95.0952 267.286C115.494 279.085 140.488 279.085 160.886 267.286L223.229 231.023C243.628 219.224 255.981 197.64 255.981 174.041V101.806C256.556 78.4949 243.915 56.6228 223.517 44.8234ZM128.134 202.245C92.7966 202.245 64.0671 173.466 64.0671 138.068C64.0671 102.669 92.7966 73.8904 128.134 73.8904C163.472 73.8904 192.489 102.669 192.489 138.068C192.489 173.466 163.759 202.245 128.134 202.245Z" fill="url(#paint0_linear_1_7095)"/>
</g>
<defs>
<linearGradient id="paint0_linear_1_7095" x1="-17074.5" y1="22607.2" x2="28243.8" y2="11236.3" gradientUnits="userSpaceOnUse">
<stop offset="0.265625" stop-color="#592EE1"/>
<stop offset="1" stop-color="#B836D9"/>
</linearGradient>
<clipPath id="clip0_1_7095">
<rect width="256" height="277" fill="white"/>
</clipPath>
</defs>
</svg>
