<svg width="256" height="291" viewBox="0 0 256 291" fill="none" xmlns="http://www.w3.org/2000/svg">
<g clip-path="url(#clip0_1_7139)">
<path d="M190.18 177.17V113.805L135.538 145.54L190.18 177.17Z" fill="white"/>
<path d="M186.645 107.622L131.907 75.9707V139.349L186.645 107.622Z" fill="#00AEDE"/>
<path d="M124.793 139.347V75.9688L70.0156 107.62L124.793 139.347Z" fill="#00AEDE"/>
<path d="M121.252 69.8874L66.5272 38.0527V101.525L121.252 69.8874Z" fill="#00AEDE"/>
<path d="M186.645 183.258L131.907 151.635V215.003L186.645 183.258Z" fill="white"/>
<path d="M124.793 215.004V151.633L70.0156 183.26L124.793 215.004Z" fill="white"/>
<path d="M252.113 145.538L197.295 113.807V177.168L252.113 145.538Z" fill="#00AEDE"/>
<path d="M59.3991 101.525V38.0527L4.26343 69.8874L59.3991 101.525Z" fill="#00AEDE"/>
<path d="M121.252 221.095L66.5272 189.375V252.826L121.252 221.095Z" fill="white"/>
<path d="M59.3991 252.827V189.377L4.26343 221.097L59.3991 252.827Z" fill="#00AEDE"/>
<path d="M121.252 145.538L66.5272 113.807V177.168L121.252 145.538Z" fill="white"/>
<path d="M190.18 101.525V38.0527L135.538 69.8874L190.18 101.525Z" fill="#00AEDE"/>
<path d="M131.909 0.318359V63.6759L186.647 31.9558L131.909 0.318359Z" fill="white"/>
<path d="M70.0145 31.9558L124.792 63.6759V0.318359L70.0145 31.9558Z" fill="white"/>
<path d="M186.645 258.909L131.907 227.293V290.641L186.645 258.909Z" fill="white"/>
<path d="M124.793 290.643V227.291L70.0156 258.911L124.793 290.643Z" fill="white"/>
<path d="M255.66 215.004V151.633L200.984 183.26L255.66 215.004Z" fill="#00AEDE"/>
<path d="M59.3991 177.17V113.705L4.26343 145.54L59.3991 177.17Z" fill="#00AEDE"/>
<path d="M55.8718 183.258L0.656494 151.635V215.003L55.8718 183.258Z" fill="#00AEDE"/>
<path d="M255.66 139.347V75.9688L200.984 107.62L255.66 139.347Z" fill="#00AEDE"/>
<path d="M252.113 69.8874L197.295 38.0527V101.525L252.113 69.8874Z" fill="#00AEDE"/>
<path d="M252.113 221.095L197.295 189.375V252.826L252.113 221.095Z" fill="#00AEDE"/>
<path d="M190.18 252.827V189.377L135.538 221.097L190.18 252.827Z" fill="white"/>
<path d="M55.8718 107.622L0.656494 75.9707V139.349L55.8718 107.622Z" fill="#00AEDE"/>
</g>
<defs>
<clipPath id="clip0_1_7139">
<rect width="256" height="291" fill="white"/>
</clipPath>
</defs>
</svg>
