<svg width="256" height="256" viewBox="0 0 256 256" fill="none" xmlns="http://www.w3.org/2000/svg">
<g clip-path="url(#clip0_1_7165)">
<path d="M128 0C55.8938 0 0 52.8179 0 124.16C0 161.477 15.2934 193.722 40.1992 215.995C42.2899 217.866 43.552 220.488 43.6378 223.293L44.3348 246.062C44.5576 253.325 52.0594 258.051 58.7052 255.117L84.1114 243.901C86.2651 242.952 88.6784 242.775 90.9478 243.4C102.623 246.61 115.048 248.32 128 248.32C200.106 248.32 256 195.502 256 124.16C256 52.8179 200.106 0 128 0Z" fill="url(#paint0_radial_1_7165)"/>
<path d="M51.1365 160.471L88.7365 100.818C94.7174 91.3277 107.525 88.9649 116.499 95.6951L146.404 118.124C149.148 120.182 152.923 120.171 155.656 118.098L196.044 87.4455C201.435 83.3546 208.472 89.8058 204.864 95.5308L167.264 155.184C161.283 164.674 148.475 167.037 139.501 160.306L109.595 137.877C106.852 135.819 103.076 135.83 100.344 137.904L59.9557 168.556C54.5651 172.647 47.5282 166.195 51.1365 160.471Z" fill="white"/>
</g>
<defs>
<radialGradient id="paint0_radial_1_7165" cx="0" cy="0" r="1" gradientUnits="userSpaceOnUse" gradientTransform="translate(4927.34 25463) scale(27893.7 27893.7)">
<stop stop-color="#0099FF"/>
<stop offset="0.609754" stop-color="#A033FF"/>
<stop offset="0.934823" stop-color="#FF5280"/>
<stop offset="1" stop-color="#FF7061"/>
</radialGradient>
<clipPath id="clip0_1_7165">
<rect width="256" height="256" fill="white"/>
</clipPath>
</defs>
</svg>
