<svg width="256" height="324" viewBox="0 0 256 324" fill="none" xmlns="http://www.w3.org/2000/svg">
<g clip-path="url(#clip0_1_7169)">
<path d="M19.3939 102.461C30.1049 102.461 38.7879 93.6389 38.7879 82.7567C38.7879 71.8745 30.1049 63.0527 19.3939 63.0527C8.68296 63.0527 0 71.8745 0 82.7567C0 93.6389 8.68296 102.461 19.3939 102.461Z" fill="#509EE3"/>
<path d="M19.3939 157.631C30.1049 157.631 38.7879 148.809 38.7879 137.927C38.7879 127.044 30.1049 118.223 19.3939 118.223C8.68296 118.223 0 127.044 0 137.927C0 148.809 8.68296 157.631 19.3939 157.631Z" fill="#509EE3"/>
<path opacity="0.2" d="M73.6969 102.461C84.4079 102.461 93.0909 93.6389 93.0909 82.7567C93.0909 71.8745 84.4079 63.0527 73.6969 63.0527C62.9859 63.0527 54.303 71.8745 54.303 82.7567C54.303 93.6389 62.9859 102.461 73.6969 102.461Z" fill="#509EE3"/>
<path d="M73.6969 158.168C84.4079 158.168 93.0909 149.346 93.0909 138.464C93.0909 127.582 84.4079 118.76 73.6969 118.76C62.9859 118.76 54.303 127.582 54.303 138.464C54.303 149.346 62.9859 158.168 73.6969 158.168Z" fill="#509EE3"/>
<path opacity="0.2" d="M128 102.461C138.711 102.461 147.394 93.6389 147.394 82.7567C147.394 71.8745 138.711 63.0527 128 63.0527C117.289 63.0527 108.606 71.8745 108.606 82.7567C108.606 93.6389 117.289 102.461 128 102.461Z" fill="#509EE3"/>
<path opacity="0.2" d="M128 39.4079C138.711 39.4079 147.394 30.5861 147.394 19.7039C147.394 8.82175 138.711 0 128 0C117.289 0 108.606 8.82175 108.606 19.7039C108.606 30.5861 117.289 39.4079 128 39.4079Z" fill="#509EE3"/>
<path opacity="0.2" d="M128 158.168C138.711 158.168 147.394 149.346 147.394 138.464C147.394 127.582 138.711 118.76 128 118.76C117.289 118.76 108.606 127.582 108.606 138.464C108.606 149.346 117.289 158.168 128 158.168Z" fill="#509EE3"/>
<path opacity="0.2" d="M182.303 102.461C193.014 102.461 201.697 93.6389 201.697 82.7567C201.697 71.8745 193.014 63.0527 182.303 63.0527C171.592 63.0527 162.909 71.8745 162.909 82.7567C162.909 93.6389 171.592 102.461 182.303 102.461Z" fill="#509EE3"/>
<path d="M236.606 102.461C247.317 102.461 256 93.6389 256 82.7567C256 71.8745 247.317 63.0527 236.606 63.0527C225.895 63.0527 217.212 71.8745 217.212 82.7567C217.212 93.6389 225.895 102.461 236.606 102.461Z" fill="#509EE3"/>
<path d="M182.303 158.168C193.014 158.168 201.697 149.346 201.697 138.464C201.697 127.582 193.014 118.76 182.303 118.76C171.592 118.76 162.909 127.582 162.909 138.464C162.909 149.346 171.592 158.168 182.303 158.168Z" fill="#509EE3"/>
<path d="M236.606 158.168C247.317 158.168 256 149.346 256 138.464C256 127.582 247.317 118.76 236.606 118.76C225.895 118.76 217.212 127.582 217.212 138.464C217.212 149.346 225.895 158.168 236.606 158.168Z" fill="#509EE3"/>
<path d="M19.3939 212.802C30.1049 212.802 38.7879 203.981 38.7879 193.098C38.7879 182.216 30.1049 173.395 19.3939 173.395C8.68296 173.395 0 182.216 0 193.098C0 203.981 8.68296 212.802 19.3939 212.802Z" fill="#509EE3"/>
<path opacity="0.2" d="M73.6969 213.338C84.4079 213.338 93.0909 204.516 93.0909 193.634C93.0909 182.751 84.4079 173.93 73.6969 173.93C62.9859 173.93 54.303 182.751 54.303 193.634C54.303 204.516 62.9859 213.338 73.6969 213.338Z" fill="#509EE3"/>
<path d="M128 213.338C138.711 213.338 147.394 204.516 147.394 193.634C147.394 182.751 138.711 173.93 128 173.93C117.289 173.93 108.606 182.751 108.606 193.634C108.606 204.516 117.289 213.338 128 213.338Z" fill="#509EE3"/>
<path opacity="0.2" d="M182.303 213.338C193.014 213.338 201.697 204.516 201.697 193.634C201.697 182.751 193.014 173.93 182.303 173.93C171.592 173.93 162.909 182.751 162.909 193.634C162.909 204.516 171.592 213.338 182.303 213.338Z" fill="#509EE3"/>
<path d="M236.606 213.338C247.317 213.338 256 204.516 256 193.634C256 182.751 247.317 173.93 236.606 173.93C225.895 173.93 217.212 182.751 217.212 193.634C217.212 204.516 225.895 213.338 236.606 213.338Z" fill="#509EE3"/>
<path d="M19.3939 267.974C30.1049 267.974 38.7879 259.153 38.7879 248.27C38.7879 237.388 30.1049 228.566 19.3939 228.566C8.68296 228.566 0 237.388 0 248.27C0 259.153 8.68296 267.974 19.3939 267.974Z" fill="#509EE3"/>
<path opacity="0.2" d="M73.6969 268.509C84.4079 268.509 93.0909 259.688 93.0909 248.806C93.0909 237.923 84.4079 229.102 73.6969 229.102C62.9859 229.102 54.303 237.923 54.303 248.806C54.303 259.688 62.9859 268.509 73.6969 268.509Z" fill="#509EE3"/>
<path opacity="0.2" d="M128 268.509C138.711 268.509 147.394 259.688 147.394 248.806C147.394 237.923 138.711 229.102 128 229.102C117.289 229.102 108.606 237.923 108.606 248.806C108.606 259.688 117.289 268.509 128 268.509Z" fill="#509EE3"/>
<path opacity="0.2" d="M128 323.681C138.711 323.681 147.394 314.86 147.394 303.977C147.394 293.095 138.711 284.273 128 284.273C117.289 284.273 108.606 293.095 108.606 303.977C108.606 314.86 117.289 323.681 128 323.681Z" fill="#509EE3"/>
<path opacity="0.2" d="M182.303 268.509C193.014 268.509 201.697 259.688 201.697 248.806C201.697 237.923 193.014 229.102 182.303 229.102C171.592 229.102 162.909 237.923 162.909 248.806C162.909 259.688 171.592 268.509 182.303 268.509Z" fill="#509EE3"/>
<path d="M236.606 268.509C247.317 268.509 256 259.688 256 248.806C256 237.923 247.317 229.102 236.606 229.102C225.895 229.102 217.212 237.923 217.212 248.806C217.212 259.688 225.895 268.509 236.606 268.509Z" fill="#509EE3"/>
</g>
<defs>
<clipPath id="clip0_1_7169">
<rect width="256" height="324" fill="white"/>
</clipPath>
</defs>
</svg>
