<svg width="256" height="240" viewBox="0 0 256 240" fill="none" xmlns="http://www.w3.org/2000/svg">
<g clip-path="url(#clip0_1_7193)">
<path d="M250.066 0L140.219 81.2793L160.646 33.3788L250.066 0Z" fill="#E17726"/>
<path d="M6.19067 0.0957031L95.3716 33.3848L114.768 81.9135L6.19067 0.0957031Z" fill="#E27625"/>
<path d="M205.86 172.857L254.411 173.781L237.443 231.424L178.2 215.112L205.86 172.857Z" fill="#E27625"/>
<path d="M50.1392 172.857L77.6964 215.112L18.5531 231.425L1.68848 173.781L50.1392 172.857Z" fill="#E27625"/>
<path d="M112.131 69.5508L114.115 133.634L54.7444 130.933L71.632 105.456L71.8457 105.21L112.131 69.5508Z" fill="#E27625"/>
<path d="M143.254 68.8379L184.154 105.214L184.365 105.458L201.253 130.936L141.896 133.636L143.254 68.8379Z" fill="#E27625"/>
<path d="M79.4348 173.045L111.853 198.304L74.1952 216.485L79.4348 173.045Z" fill="#E27625"/>
<path d="M176.571 173.039L181.702 216.484L144.149 198.3L176.571 173.039Z" fill="#E27625"/>
<path d="M144.978 195.922L183.085 214.374L147.638 231.221L148.006 220.086L144.978 195.922Z" fill="#D5BFB2"/>
<path d="M111.011 195.93L108.102 219.903L108.341 231.207L72.8105 214.373L111.011 195.93Z" fill="#D5BFB2"/>
<path d="M100.007 141.998L109.965 162.926L76.0616 152.994L100.007 141.998Z" fill="#233447"/>
<path d="M155.992 142L180.05 152.994L146.036 162.923L155.992 142Z" fill="#233447"/>
<path d="M82.0264 172.83L76.546 217.87L47.1731 173.815L82.0264 172.83Z" fill="#CC6228"/>
<path d="M173.976 172.83L208.83 173.815L179.347 217.871L173.976 172.83Z" fill="#CC6228"/>
<path d="M202.112 128.387L176.747 154.238L157.19 145.301L147.827 164.985L141.689 131.136L202.112 128.387Z" fill="#CC6228"/>
<path d="M53.8754 128.387L114.31 131.136L108.171 164.985L98.8061 145.304L79.3525 154.239L53.8754 128.387Z" fill="#CC6228"/>
<path d="M52.1656 123.082L80.8639 152.203L81.8585 180.952L52.1656 123.082Z" fill="#E27525"/>
<path d="M203.863 123.029L174.117 181.003L175.237 152.202L203.863 123.029Z" fill="#E27525"/>
<path d="M112.907 124.855L114.062 132.125L116.916 150.236L115.081 205.862L106.406 161.177L106.403 160.715L112.907 124.855Z" fill="#E27525"/>
<path d="M143.078 124.756L149.599 160.716L149.596 161.178L140.899 205.974L140.555 194.77L139.198 149.908L143.078 124.756Z" fill="#E27525"/>
<path d="M177.789 151.047L176.817 176.025L146.543 199.612L140.423 195.288L147.283 159.953L177.789 151.047Z" fill="#F5841F"/>
<path d="M78.3167 151.047L108.716 159.953L115.576 195.288L109.456 199.612L79.1807 176.022L78.3167 151.047Z" fill="#F5841F"/>
<path d="M67.0181 208.857L105.75 227.209L105.586 219.373L108.827 216.528H147.161L150.519 219.363L150.271 227.194L188.758 208.904L170.03 224.379L147.385 239.933H108.516L85.8855 224.316L67.0181 208.857Z" fill="#C0AC9D"/>
<path d="M142.204 193.479L147.68 197.347L150.889 222.952L146.245 219.03H109.769L105.214 223.031L108.317 197.349L113.795 193.479H142.204Z" fill="#161616"/>
<path d="M242.814 2.25L256 41.8075L247.765 81.8039L253.629 86.3276L245.694 92.3814L251.658 96.9868L243.761 104.178L248.609 107.689L235.743 122.715L182.973 107.351L182.516 107.105L144.489 75.027L242.814 2.25Z" fill="#763E1A"/>
<path d="M13.186 2.25L111.512 75.027L73.4844 107.105L73.0271 107.351L20.2567 122.715L7.39121 107.689L12.2353 104.181L4.34251 96.9868L10.2946 92.3864L2.24134 86.3153L8.3263 81.7889L0 41.809L13.186 2.25Z" fill="#763E1A"/>
<path d="M180.392 103.99L236.305 120.269L254.47 176.255L206.547 176.254L173.526 176.671L197.54 129.863L180.392 103.99Z" fill="#F5841F"/>
<path d="M75.608 103.99L58.4568 129.863L82.4742 176.671L49.4694 176.255H1.63049L19.6939 120.269L75.608 103.99Z" fill="#F5841F"/>
<path d="M163.384 33.1113L147.745 75.3501L144.426 132.411L143.156 150.296L143.055 195.983H112.944L112.846 150.381L111.572 132.395L108.252 75.3501L92.6151 33.1113H163.384Z" fill="#F5841F"/>
</g>
<defs>
<clipPath id="clip0_1_7193">
<rect width="256" height="240" fill="white"/>
</clipPath>
</defs>
</svg>
