<svg width="512" height="124" viewBox="0 0 512 124" fill="none" xmlns="http://www.w3.org/2000/svg">
<g clip-path="url(#clip0_1_7267)">
<path fill-rule="evenodd" clip-rule="evenodd" d="M303.758 0.214844L411.044 113.857C411.044 113.857 414.699 116.435 417.495 113.428C420.29 110.42 418.14 107.413 418.14 107.413L303.758 0.214844Z" fill="#DF4F4F"/>
<path fill-rule="evenodd" clip-rule="evenodd" d="M337.728 10.957L419.43 99.0354C419.43 99.0354 423.085 101.613 425.88 98.6057C428.675 95.5981 426.525 92.5906 426.525 92.5906L337.728 10.957Z" fill="#DF4F4F"/>
<path fill-rule="evenodd" clip-rule="evenodd" d="M313.863 33.9434L395.564 122.022C395.564 122.022 399.219 124.6 402.014 121.592C404.809 118.584 402.659 115.577 402.659 115.577L313.863 33.9434Z" fill="#DF4F4F"/>
<path fill-rule="evenodd" clip-rule="evenodd" d="M366.446 20.1934L423.526 81.7284C423.526 81.7284 426.079 83.5294 428.032 81.4283C429.985 79.3271 428.483 77.2259 428.483 77.2259L366.446 20.1934Z" fill="#DF4F4F"/>
<path fill-rule="evenodd" clip-rule="evenodd" d="M321.725 60.5801L378.805 122.115C378.805 122.115 381.359 123.916 383.311 121.815C385.264 119.714 383.762 117.613 383.762 117.613L321.725 60.5801Z" fill="#DF4F4F"/>
<path fill-rule="evenodd" clip-rule="evenodd" d="M395.779 33.5137L421.65 61.4881C421.65 61.4881 422.913 62.3321 423.879 61.3475C424.845 60.3629 424.102 59.3784 424.102 59.3784L395.779 33.5137Z" fill="#DF4F4F"/>
<path fill-rule="evenodd" clip-rule="evenodd" d="M336.008 88.9375L361.879 116.912C361.879 116.912 363.142 117.756 364.108 116.771C365.074 115.787 364.331 114.802 364.331 114.802L336.008 88.9375Z" fill="#DF4F4F"/>
<path fill-rule="evenodd" clip-rule="evenodd" d="M446.171 46.2305V121.664H463.238V97.3315H476.038L492.495 121.664H512L493.714 95.5066C493.714 95.5066 509.952 89.0888 509.952 71.6808C509.952 47.1048 487.619 46.2329 487.619 46.2329L446.171 46.2305ZM463.238 60.8325V82.7319H485.181C485.181 82.7319 493.568 82.731 493.568 71.7813C493.568 60.4159 483.352 60.8325 483.352 60.8325H463.238Z" fill="#26262C"/>
<path fill-rule="evenodd" clip-rule="evenodd" d="M257.219 46.2324V121.664H314.514V107.064H274.286V91.2479H309.029V76.6483H274.286V60.8203H314.514V46.2324H257.219Z" fill="#26262C"/>
<path fill-rule="evenodd" clip-rule="evenodd" d="M174.324 46.2324V60.832H196.876V121.664H213.943V60.832H236.495V46.2324H174.324Z" fill="#26262C"/>
<path fill-rule="evenodd" clip-rule="evenodd" d="M96.3047 46.2324V121.664H153.6V107.064H113.371V91.2479H148.114V76.6483H113.371V60.8203H153.6V46.2324H96.3047Z" fill="#26262C"/>
<path fill-rule="evenodd" clip-rule="evenodd" d="M0 46.2305V121.666L17.0552 121.664V74.213L37.7791 104.629L58.5143 74.213V121.666H75.581V46.2305H58.5143L37.7791 77.2546L17.0552 46.2305L0 46.2305Z" fill="#26262C"/>
</g>
<defs>
<clipPath id="clip0_1_7267">
<rect width="512" height="124" fill="white"/>
</clipPath>
</defs>
</svg>
