<svg width="256" height="251" viewBox="0 0 256 251" fill="none" xmlns="http://www.w3.org/2000/svg">
<g clip-path="url(#clip0_1_7257)">
<path d="M0.438721 0.4375L219.301 232.265C219.301 232.265 226.757 237.524 232.459 231.389C238.16 225.253 233.774 219.118 233.774 219.118L0.438721 0.4375Z" fill="#DF4F4F"/>
<path d="M69.7375 22.3496L236.406 202.027C236.406 202.027 243.862 207.286 249.564 201.151C255.266 195.015 250.88 188.88 250.88 188.88L69.7375 22.3496Z" fill="#DF4F4F"/>
<path d="M21.053 69.2402L187.721 248.918C187.721 248.918 195.177 254.176 200.879 248.041C206.581 241.906 202.195 235.77 202.195 235.77L21.053 69.2402Z" fill="#DF4F4F"/>
<path d="M128.321 41.1934L244.762 166.723C244.762 166.723 249.971 170.397 253.955 166.111C257.938 161.824 254.874 157.538 254.874 157.538L128.321 41.1934Z" fill="#DF4F4F"/>
<path d="M37.092 123.582L153.533 249.112C153.533 249.112 158.742 252.786 162.726 248.5C166.709 244.213 163.645 239.927 163.645 239.927L37.092 123.582Z" fill="#DF4F4F"/>
<path d="M188.16 68.3652L240.935 125.432C240.935 125.432 243.512 127.154 245.482 125.145C247.453 123.137 245.937 121.128 245.937 121.128L188.16 68.3652Z" fill="#DF4F4F"/>
<path d="M66.2288 181.43L119.004 238.497C119.004 238.497 121.581 240.218 123.551 238.21C125.522 236.201 124.006 234.193 124.006 234.193L66.2288 181.43Z" fill="#DF4F4F"/>
</g>
<defs>
<clipPath id="clip0_1_7257">
<rect width="256" height="251" fill="white"/>
</clipPath>
</defs>
</svg>
