<svg width="256" height="256" viewBox="0 0 256 256" fill="none" xmlns="http://www.w3.org/2000/svg">
<g clip-path="url(#clip0_1_7311)">
<path d="M231 190.502C227.6 192.302 224.1 193.902 220.5 195.202C209 199.502 196.9 201.702 184.6 201.702C137.3 201.702 96.0999 169.202 96.0999 127.402C96.1999 116.002 102.5 105.502 112.5 100.102C69.7 101.902 58.7 146.502 58.7 172.602C58.7 246.502 126.8 254.002 141.5 254.002C149.4 254.002 161.3 251.702 168.5 249.402L169.8 249.002C197.4 239.502 220.8 220.902 236.4 196.202C237.6 194.302 237 191.902 235.2 190.702C233.9 189.902 232.3 189.802 231 190.502Z" fill="url(#paint0_linear_1_7311)"/>
<path opacity="0.35" d="M231 190.502C227.6 192.302 224.1 193.902 220.5 195.202C209 199.502 196.9 201.702 184.6 201.702C137.3 201.702 96.0999 169.202 96.0999 127.402C96.1999 116.002 102.5 105.502 112.5 100.102C69.7 101.902 58.7 146.502 58.7 172.602C58.7 246.502 126.8 254.002 141.5 254.002C149.4 254.002 161.3 251.702 168.5 249.402L169.8 249.002C197.4 239.502 220.8 220.902 236.4 196.202C237.6 194.302 237 191.902 235.2 190.702C233.9 189.902 232.3 189.802 231 190.502Z" fill="url(#paint1_radial_1_7311)"/>
<path d="M105.7 241.399C96.8001 235.899 89.1001 228.599 83.0001 220.099C56.7001 184.099 64.6001 133.599 100.6 107.299C104.4 104.599 108.3 102.099 112.5 100.099C115.6 98.5992 120.9 95.9992 128 96.0992C138.1 96.1992 147.6 100.999 153.7 109.099C157.7 114.499 160 120.999 160.1 127.799C160.1 127.599 184.6 48.1992 80.1001 48.1992C36.2001 48.1992 0.100086 89.8992 0.100086 126.399C-0.0999142 145.699 4.10009 164.899 12.2001 182.399C39.8001 241.199 107 269.999 168.6 249.499C147.5 256.099 124.5 253.199 105.7 241.399Z" fill="url(#paint2_linear_1_7311)"/>
<path opacity="0.41" d="M105.7 241.399C96.8001 235.899 89.1001 228.599 83.0001 220.099C56.7001 184.099 64.6001 133.599 100.6 107.299C104.4 104.599 108.3 102.099 112.5 100.099C115.6 98.5992 120.9 95.9992 128 96.0992C138.1 96.1992 147.6 100.999 153.7 109.099C157.7 114.499 160 120.999 160.1 127.799C160.1 127.599 184.6 48.1992 80.1001 48.1992C36.2001 48.1992 0.100086 89.8992 0.100086 126.399C-0.0999142 145.699 4.10009 164.899 12.2001 182.399C39.8001 241.199 107 269.999 168.6 249.499C147.5 256.099 124.5 253.199 105.7 241.399Z" fill="url(#paint3_radial_1_7311)"/>
<path d="M152.3 148.9C151.5 149.9 149 151.4 149 154.6C149 157.2 150.7 159.7 153.7 161.8C168.1 171.8 195.2 170.5 195.3 170.5C206 170.5 216.4 167.6 225.6 162.2C244.4 151.2 256 131.1 256 109.3C256.3 86.9 248 72 244.7 65.4C223.5 23.9 177.7 0 128 0C58 0 1 56.2 0 126.2C0.5 89.7 36.8 60.2 80 60.2C83.5 60.2 103.5 60.5 122 70.3C138.3 78.9 146.9 89.2 152.8 99.5C159 110.2 160.1 123.6 160.1 129C160.1 134.3 157.4 142.3 152.3 148.9Z" fill="url(#paint4_radial_1_7311)"/>
<path d="M152.3 148.9C151.5 149.9 149 151.4 149 154.6C149 157.2 150.7 159.7 153.7 161.8C168.1 171.8 195.2 170.5 195.3 170.5C206 170.5 216.4 167.6 225.6 162.2C244.4 151.2 256 131.1 256 109.3C256.3 86.9 248 72 244.7 65.4C223.5 23.9 177.7 0 128 0C58 0 1 56.2 0 126.2C0.5 89.7 36.8 60.2 80 60.2C83.5 60.2 103.5 60.5 122 70.3C138.3 78.9 146.9 89.2 152.8 99.5C159 110.2 160.1 123.6 160.1 129C160.1 134.3 157.4 142.3 152.3 148.9Z" fill="url(#paint5_radial_1_7311)"/>
</g>
<defs>
<linearGradient id="paint0_linear_1_7311" x1="58.7043" y1="177.022" x2="236.986" y2="177.022" gradientUnits="userSpaceOnUse">
<stop stop-color="#0C59A4"/>
<stop offset="1" stop-color="#114A8B"/>
</linearGradient>
<radialGradient id="paint1_radial_1_7311" cx="0" cy="0" r="1" gradientUnits="userSpaceOnUse" gradientTransform="translate(157.192 178.438) scale(95.3705 90.5919)">
<stop offset="0.72" stop-opacity="0"/>
<stop offset="0.95" stop-opacity="0.53"/>
<stop offset="1"/>
</radialGradient>
<linearGradient id="paint2_linear_1_7311" x1="152.771" y1="99.7455" x2="41.3977" y2="221.058" gradientUnits="userSpaceOnUse">
<stop stop-color="#1B9DE2"/>
<stop offset="0.16" stop-color="#1595DF"/>
<stop offset="0.67" stop-color="#0680D7"/>
<stop offset="1" stop-color="#0078D4"/>
</linearGradient>
<radialGradient id="paint3_radial_1_7311" cx="0" cy="0" r="1" gradientUnits="userSpaceOnUse" gradientTransform="translate(70.6082 199.008) rotate(-81.3826) scale(143.398 115.874)">
<stop offset="0.76" stop-opacity="0"/>
<stop offset="0.95" stop-opacity="0.5"/>
<stop offset="1"/>
</radialGradient>
<radialGradient id="paint4_radial_1_7311" cx="0" cy="0" r="1" gradientUnits="userSpaceOnUse" gradientTransform="translate(25.8525 47.3924) rotate(92.2909) scale(202.551 431.458)">
<stop stop-color="#35C1F1"/>
<stop offset="0.11" stop-color="#34C1ED"/>
<stop offset="0.23" stop-color="#2FC2DF"/>
<stop offset="0.31" stop-color="#2BC3D2"/>
<stop offset="0.67" stop-color="#36C752"/>
</radialGradient>
<radialGradient id="paint5_radial_1_7311" cx="0" cy="0" r="1" gradientUnits="userSpaceOnUse" gradientTransform="translate(240.06 77.4056) rotate(73.7366) scale(97.3213 79.1569)">
<stop stop-color="#66EB6E"/>
<stop offset="1" stop-color="#66EB6E" stop-opacity="0"/>
</radialGradient>
<clipPath id="clip0_1_7311">
<rect width="256" height="256" fill="white"/>
</clipPath>
</defs>
</svg>
