<svg width="256" height="165" viewBox="0 0 256 165" fill="none" xmlns="http://www.w3.org/2000/svg">
<g clip-path="url(#clip0_1_7325)">
<path d="M154.66 110.682L207.502 60.1479C196.526 17.3487 152.932 -8.44909 110.133 2.52715C90.8589 7.46999 74.1187 19.418 63.1794 36.0387C63.9974 36.0181 154.66 110.682 154.66 110.682Z" fill="#0364B8"/>
<path d="M97.6181 45.5539L97.6156 45.5626C87.5187 39.309 75.8741 36.0035 63.9972 36.0196C63.7228 36.0196 63.4532 36.037 63.1793 36.0403C27.8517 36.4779 -0.432413 65.4714 0.00500592 100.799C0.16357 113.614 4.1677 126.086 11.4982 136.598L90.6631 126.683L151.357 77.7427L97.6181 45.5539Z" fill="#0078D4"/>
<path d="M207.502 60.1469C206.34 60.0694 205.173 60.0156 203.992 60.0156C196.903 60.0087 189.888 61.4567 183.381 64.2698L183.38 64.2644L151.357 77.7399L186.659 121.347L249.771 136.688C263.39 111.404 253.934 79.8671 228.65 66.2477C222.117 62.7284 214.906 60.6482 207.502 60.1469Z" fill="#1490DF"/>
<path d="M11.4983 136.597C23.4515 153.783 43.0636 164.025 63.9976 164.014H203.992C223.116 164.02 240.698 153.526 249.771 136.691L151.357 77.7422L11.4983 136.597Z" fill="#28A8EA"/>
</g>
<defs>
<clipPath id="clip0_1_7325">
<rect width="256" height="165" fill="white"/>
</clipPath>
</defs>
</svg>
