<svg width="512" height="146" viewBox="0 0 512 146" fill="none" xmlns="http://www.w3.org/2000/svg">
<g clip-path="url(#clip0_1_7301)">
<path d="M252.216 115.181C228.15 115.181 206.559 101.514 206.559 82.402C206.559 63.2817 228.15 49.6017 252.388 49.6017C262.926 49.6017 272.766 52.2602 283.466 58.2289L275.925 67.9228C269.067 64.6045 260.989 62.6171 252.388 62.6171C242.201 62.6171 230.437 68.3216 230.437 82.402C230.437 96.4759 242.026 102.179 252.388 102.179C260.989 102.179 269.24 100.452 276.266 97.3934L283.822 107.617C275.428 112.105 265.329 114.826 254.41 115.149L252.216 115.181ZM389.682 114.938C413.912 114.938 435.514 101.263 435.514 82.1588C435.514 63.0386 413.912 49.3537 389.682 49.3537C365.446 49.3537 343.846 63.0386 343.846 82.1588C343.846 100.881 364.591 114.389 388.231 114.922L389.682 114.938ZM411.635 82.1588C411.635 96.2327 399.872 101.931 389.682 101.931C379.492 101.931 367.735 96.2327 367.735 82.1588C367.735 68.0752 379.492 62.3707 389.682 62.3707C399.872 62.3707 411.635 68.0752 411.635 82.1588ZM445.271 113.354H467.906V74.3162C467.906 69.0478 472.002 62.8457 479.328 62.8003C484.444 62.8457 489.351 66.3439 489.351 70.7855L489.31 113.354H512V69.5795C512 58.0506 499.643 48.4297 484.895 48.4297L484.467 48.4524L484.037 48.4297C477.943 48.4297 472.164 50.2064 467.441 53.1858L467.405 53.0875C467.108 52.4271 464.603 48.8317 445.271 48.8317V113.354ZM173.504 50.9569H195.679V113.354H173.504V50.9569ZM294.396 113.354H316.573V75.5158C316.573 69.5373 323.594 64.7536 331.15 64.7536C334.379 64.7536 337.445 65.3183 340.114 66.3272L341.237 66.7864V50.3733C338.623 49.9778 335.796 49.7622 333.299 49.7622C327.358 49.7622 321.394 51.4886 316.513 54.3789L316.428 54.2321C315.798 53.2679 312.374 50.1577 294.396 50.1577V113.354Z" fill="#0090DA"/>
<path d="M98.8373 25.4663C100.672 24.6963 100.859 25.9477 99.8359 26.7291C98.7903 27.5299 97.5502 28.4522 96.0361 29.3697C89.3834 33.4029 82.6301 38.3293 75.6839 43.8489C78.7516 45.7538 81.316 48.3965 83.1186 51.5242L83.7583 52.7193L93.2593 72.8754C94.2416 74.8417 96.0621 75.9311 98.1743 75.9311C100.055 75.9311 101.694 75.0704 102.725 73.4981L103.083 72.8754L112.582 52.7193C116.147 45.5364 123.587 40.5647 132.148 40.5647C140.808 40.5647 148.261 45.6029 151.766 52.9073C152.124 53.7746 152.181 54.5689 151.526 55.5091C146.788 62.3589 140.696 69.42 133.603 76.5058L131.202 78.8684L131.205 66.5047L126.21 77.1307C120.734 88.8719 110.802 95.8878 98.1711 95.8878C85.991 95.8878 76.3191 89.3641 70.7353 78.3705L70.1318 77.1307L65.1374 66.5047L65.1422 114.966C57.1166 119.427 50.0975 122.709 44.0601 124.899L42.4378 125.469V73.2337C19.9069 95.7354 7.45402 115.663 15.0503 125.968C23.6412 137.63 46.6367 131.232 80.6903 109.748L82.5587 108.561C84.0485 107.608 85.4296 106.776 86.5952 106.165C87.7331 105.567 88.7917 106.256 87.323 107.598C86.4331 108.415 85.2043 109.365 83.8118 110.318C78.8709 113.69 73.8614 116.937 68.8765 119.979L65.1438 122.22L65.1455 145.756H42.4378V134.002C24.0973 141.968 8.78166 144.104 2.32179 134.856C-6.3313 122.46 9.79548 94.8771 40.8199 66.7753L42.4378 65.3213V62.3224C42.4378 50.2877 52.156 40.5647 64.1907 40.5647C66.9627 40.5647 69.6147 41.0915 72.0592 42.0382L74.4551 40.3848C81.0982 35.8507 88.0444 31.6343 94.8366 27.5185C96.2825 26.6431 97.7253 25.9315 98.8373 25.4663ZM111.864 17.8092L112.751 17.3578C146.642 -0.546673 172.789 -5.43251 181.206 6.6216C189.111 17.9431 179.302 41.2275 155.331 66.4533L153.904 67.9393V113.355H131.197L131.2 88.4812C126.304 92.4042 121.102 96.306 115.596 100.153L111.447 103.037C106.303 106.595 100.295 110.68 95.49 113.698L93.0145 115.223L92.5282 115.514C91.0871 116.391 89.7319 117.114 88.6247 117.589C86.7945 118.373 86.6016 117.122 87.6115 116.331C88.6523 115.52 89.9767 114.617 91.4583 113.646L92.5784 112.943C98.1954 109.571 106.819 103.505 112.409 99.3601C154.267 68.3073 178.44 26.3303 166.638 13.5208C159.069 5.30636 139.992 7.18149 115.432 18.4996L113.668 19.3241C112.076 20.1022 110.663 20.6469 109.426 21.0975C108.22 21.5368 107.26 20.7036 108.901 19.5705C109.693 19.0233 110.713 18.4137 111.864 17.8092Z" fill="#0090DA"/>
</g>
<defs>
<clipPath id="clip0_1_7301">
<rect width="512" height="146" fill="white"/>
</clipPath>
</defs>
</svg>
