<svg width="256" height="203" viewBox="0 0 256 203" fill="none" xmlns="http://www.w3.org/2000/svg">
<g clip-path="url(#clip0_1_7298)">
<path d="M137.593 35.452C140.148 34.3801 140.407 36.1223 138.983 37.21C137.528 38.3248 135.801 39.6089 133.694 40.8862C124.432 46.5008 115.031 53.3589 105.361 61.0429C109.632 63.6948 113.201 67.3737 115.711 71.7277L116.601 73.3915L129.828 101.451C131.195 104.189 133.73 105.705 136.67 105.705C139.288 105.705 141.57 104.507 143.006 102.318L143.503 101.451L156.728 73.3915C161.69 63.3921 172.048 56.4708 183.966 56.4708C196.021 56.4708 206.397 63.4846 211.276 73.6533C211.775 74.8606 211.854 75.9664 210.942 77.2753C204.346 86.8109 195.866 96.6408 185.991 106.505L182.648 109.794L182.652 92.5824L175.7 107.375C168.077 123.72 154.25 133.487 136.666 133.487C119.71 133.487 106.245 124.405 98.4719 109.101L97.6317 107.375L90.6789 92.5824L90.6857 160.046C79.513 166.256 69.7416 170.826 61.3368 173.874L59.0785 174.667V101.95C27.7128 133.275 10.3769 161.016 20.9517 175.362C32.9114 191.597 64.9238 182.69 112.33 152.782L114.932 151.13C117.005 149.803 118.928 148.645 120.551 147.795C122.135 146.962 123.608 147.921 121.564 149.789C120.325 150.927 118.614 152.249 116.676 153.576C109.798 158.27 102.824 162.791 95.8842 167.025L90.6879 170.145L90.6902 202.91H59.0785V186.546C33.5463 197.636 12.2251 200.61 3.23221 187.736C-8.81392 170.478 13.6365 132.08 56.8261 92.959L59.0785 90.935V86.7601C59.0785 70.0065 72.6073 56.4708 89.361 56.4708C93.2199 56.4708 96.9119 57.2043 100.315 58.5222L103.65 56.2204C112.898 49.9084 122.568 44.0387 132.024 38.309C134.037 37.0904 136.045 36.0997 137.593 35.452ZM155.728 24.7925L156.962 24.1641C204.143 -0.761032 240.543 -7.56269 252.26 9.21804C263.264 24.9789 249.61 57.3935 216.239 92.5108L214.253 94.5795V157.803H182.641L182.646 123.176C175.831 128.637 168.589 134.069 160.923 139.424L155.147 143.439C147.986 148.393 139.622 154.079 132.933 158.282L129.487 160.404L128.81 160.809C126.804 162.03 124.917 163.036 123.376 163.697C120.828 164.79 120.56 163.047 121.966 161.946C123.414 160.818 125.258 159.561 127.321 158.209L128.88 157.23C136.7 152.536 148.705 144.091 156.486 138.321C214.758 95.0918 248.41 36.6549 231.979 18.8225C221.443 7.38708 194.885 9.99748 160.695 25.7537L158.24 26.9015C156.024 27.9847 154.056 28.7429 152.334 29.3703C150.655 29.9818 149.319 28.8219 151.603 27.2445C152.706 26.4826 154.125 25.6341 155.728 24.7925Z" fill="#0090DA"/>
</g>
<defs>
<clipPath id="clip0_1_7298">
<rect width="256" height="203" fill="white"/>
</clipPath>
</defs>
</svg>
