<svg width="256" height="242" viewBox="0 0 256 242" fill="none" xmlns="http://www.w3.org/2000/svg">
<g clip-path="url(#clip0_1_7305)">
<path d="M85.3433 0.00290931H161.096L82.4572 233.001C80.7999 237.91 76.1963 241.217 71.0149 241.217H12.0606C8.17632 241.217 4.52963 239.347 2.26399 236.192C-0.00165558 233.037 -0.608846 228.983 0.632809 225.303L73.898 8.21881C75.5546 3.30738 80.16 0 85.3433 0V0.00290931Z" fill="url(#paint0_linear_1_7305)"/>
<path d="M195.423 156.281H75.2975C73.012 156.279 70.9578 157.675 70.1193 159.801C69.2808 161.927 69.8289 164.35 71.5008 165.908L148.691 237.954C150.938 240.051 153.897 241.216 156.971 241.216H224.99L195.423 156.281Z" fill="#0078D4"/>
<path d="M85.3432 0.00399451C80.0982 -0.0160443 75.4499 3.37795 73.8718 8.37999L0.722965 225.106C-0.602668 228.801 -0.044389 232.911 2.21901 236.118C4.48242 239.326 8.16692 241.229 12.0926 241.218H72.5684C77.154 240.399 80.9441 237.176 82.4892 232.781L97.0765 189.79L149.182 238.39C151.366 240.196 154.105 241.195 156.938 241.218H224.705L194.984 156.284L108.341 156.304L161.369 0.00399451H85.3432Z" fill="url(#paint1_linear_1_7305)"/>
<path d="M182.098 8.20817C180.444 3.30465 175.845 0.00390625 170.67 0.00390625H86.2451C91.4199 0.00390625 96.0179 3.30521 97.6729 8.20817L170.941 225.301C172.184 228.982 171.577 233.036 169.311 236.193C167.046 239.349 163.398 241.221 159.513 241.221H243.941C247.826 241.221 251.473 239.348 253.738 236.192C256.002 233.035 256.609 228.982 255.366 225.301L182.098 8.20817Z" fill="url(#paint2_linear_1_7305)"/>
</g>
<defs>
<linearGradient id="paint0_linear_1_7305" x1="9500.11" y1="1787.77" x2="2081.06" y2="23705.5" gradientUnits="userSpaceOnUse">
<stop stop-color="#114A8B"/>
<stop offset="1" stop-color="#0669BC"/>
</linearGradient>
<linearGradient id="paint1_linear_1_7305" x1="13418.2" y1="12618.6" x2="11814.5" y2="13160.8" gradientUnits="userSpaceOnUse">
<stop stop-opacity="0.3"/>
<stop offset="0.071" stop-opacity="0.2"/>
<stop offset="0.321" stop-opacity="0.1"/>
<stop offset="0.623" stop-opacity="0.05"/>
<stop offset="1" stop-opacity="0"/>
</linearGradient>
<linearGradient id="paint2_linear_1_7305" x1="6414.53" y1="1109.62" x2="14512" y2="22682.7" gradientUnits="userSpaceOnUse">
<stop stop-color="#3CCBF4"/>
<stop offset="1" stop-color="#2892DF"/>
</linearGradient>
<clipPath id="clip0_1_7305">
<rect width="256" height="242" fill="white"/>
</clipPath>
</defs>
</svg>
