<svg width="512" height="110" viewBox="0 0 512 110" fill="none" xmlns="http://www.w3.org/2000/svg">
<g clip-path="url(#clip0_1_7373)">
<path d="M512 49.45V40.4457H500.818V26.447L500.442 26.5628L489.939 29.776L489.733 29.8391V40.4457H473.156V34.5375C473.156 31.7862 473.771 29.6806 474.984 28.2765C476.188 26.8891 477.91 26.1839 480.106 26.1839C481.685 26.1839 483.32 26.556 484.965 27.2896L485.378 27.4735V17.9906L485.184 17.9194C483.649 17.3678 481.561 17.0898 478.974 17.0898C475.712 17.0898 472.749 17.7993 470.164 19.206C467.578 20.6144 465.544 22.6253 464.119 25.1822C462.699 27.736 461.979 30.6855 461.979 33.9494V40.4457H454.193V49.45H461.979V87.3834H473.156V49.45H489.733V73.5562C489.733 83.4842 494.415 88.5157 503.651 88.5157C505.169 88.5157 506.765 88.3374 508.397 87.9888C510.057 87.6316 511.187 87.2744 511.853 86.893L512 86.8063V77.7185L511.546 78.0193C510.939 78.4242 510.184 78.7542 509.298 78.9994C508.408 79.2495 507.665 79.3752 507.09 79.3752C504.926 79.3752 503.326 78.792 502.332 77.6417C501.328 76.4809 500.818 74.4502 500.818 71.6103V49.45H512ZM429.232 79.3761C425.175 79.3761 421.977 78.0307 419.722 75.381C417.455 72.7176 416.305 68.9206 416.305 64.0965C416.305 59.1195 417.454 55.224 419.724 52.5136C421.979 49.8211 425.147 48.4547 429.141 48.4547C433.016 48.4547 436.101 49.7598 438.311 52.3359C440.532 54.925 441.659 58.7895 441.659 63.8247C441.659 68.9218 440.599 72.837 438.509 75.4559C436.434 78.0555 433.313 79.3761 429.232 79.3761ZM429.73 39.3148C421.99 39.3148 415.842 41.5826 411.459 46.0557C407.079 50.5293 404.858 56.7198 404.858 64.4574C404.858 71.8062 407.026 77.7175 411.302 82.024C415.578 86.3324 421.398 88.5147 428.597 88.5147C436.1 88.5147 442.125 86.2153 446.507 81.6804C450.888 77.1497 453.107 71.0181 453.107 63.4613C453.107 55.9973 451.024 50.0421 446.915 45.7641C442.803 41.4842 437.02 39.3148 429.73 39.3148ZM386.836 39.3146C381.571 39.3146 377.217 40.6611 373.889 43.3165C370.543 45.9873 368.845 49.4909 368.845 53.7299C368.845 55.9333 369.211 57.8909 369.933 59.5507C370.658 61.2168 371.781 62.6828 373.273 63.9136C374.754 65.1345 377.038 66.4135 380.067 67.7143C382.612 68.7618 384.511 69.6484 385.717 70.3467C386.896 71.0309 387.733 71.7193 388.205 72.3892C388.664 73.0448 388.897 73.9419 388.897 75.0501C388.897 78.2032 386.536 79.7374 381.677 79.7374C379.874 79.7374 377.818 79.3616 375.566 78.6193C373.312 77.8782 371.207 76.8127 369.309 75.4463L368.845 75.1139V85.8746L369.015 85.9538C370.597 86.6838 372.591 87.2991 374.941 87.7839C377.286 88.2687 379.417 88.5157 381.269 88.5157C386.982 88.5157 391.583 87.1623 394.94 84.4915C398.318 81.8021 400.031 78.2162 400.031 73.8298C400.031 70.6662 399.109 67.9527 397.292 65.7647C395.488 63.5941 392.356 61.6018 387.988 59.8405C384.508 58.4438 382.278 57.2842 381.359 56.3945C380.472 55.5346 380.022 54.3187 380.022 52.7789C380.022 51.4138 380.578 50.3205 381.719 49.4345C382.868 48.5442 384.468 48.0917 386.475 48.0917C388.338 48.0917 390.243 48.3857 392.138 48.9621C394.031 49.5385 395.694 50.3106 397.083 51.2553L397.539 51.5673V41.3595L397.364 41.284C396.083 40.7348 394.394 40.2649 392.343 39.8835C390.3 39.5059 388.447 39.3146 386.836 39.3146ZM339.706 79.3761C335.65 79.3761 332.451 78.0307 330.197 75.381C327.929 72.7176 326.782 68.9218 326.782 64.0965C326.782 59.1195 327.93 55.224 330.2 52.5136C332.453 49.8211 335.621 48.4547 339.616 48.4547C343.491 48.4547 346.576 49.7598 348.786 52.3359C351.007 54.925 352.134 58.7895 352.134 63.8247C352.134 68.9218 351.073 72.837 348.983 75.4559C346.908 78.0555 343.788 79.3761 339.706 79.3761ZM340.205 39.3148C332.463 39.3148 326.315 41.5826 321.935 46.0557C317.554 50.5293 315.332 56.7198 315.332 64.4574C315.332 71.8093 317.501 77.7175 321.777 82.024C326.053 86.3324 331.872 88.5147 339.073 88.5147C346.574 88.5147 352.601 86.2153 356.982 81.6804C361.362 77.1497 363.583 71.0181 363.583 63.4613C363.583 55.9973 361.499 50.0421 357.389 45.7641C353.276 41.4842 347.494 39.3148 340.205 39.3148ZM298.365 48.574V40.4457H287.324V87.3821H298.365V63.3725C298.365 59.2895 299.29 55.9358 301.117 53.4024C302.92 50.8993 305.324 49.6308 308.258 49.6308C309.252 49.6308 310.368 49.7948 311.577 50.1192C312.774 50.4418 313.641 50.7916 314.152 51.16L314.616 51.4961V40.3652L314.437 40.2884C313.409 39.8513 311.954 39.6309 310.114 39.6309C307.339 39.6309 304.856 40.5225 302.73 42.2776C300.863 43.8204 299.513 45.9359 298.482 48.574H298.365ZM267.552 39.3146C262.487 39.3146 257.968 40.4011 254.125 42.542C250.274 44.6878 247.296 47.7518 245.27 51.6478C243.253 55.5346 242.229 60.0745 242.229 65.1369C242.229 69.5716 243.222 73.6416 245.184 77.2281C247.148 80.8208 249.928 83.6316 253.446 85.5811C256.96 87.5282 261.021 88.5157 265.517 88.5157C270.763 88.5157 275.243 87.4663 278.835 85.3979L278.98 85.3143V75.1993L278.517 75.538C276.89 76.7229 275.071 77.6689 273.115 78.3506C271.163 79.0316 269.384 79.3758 267.825 79.3758C263.492 79.3758 260.014 78.02 257.49 75.3479C254.959 72.6715 253.677 68.9141 253.677 64.1854C253.677 59.4269 255.015 55.573 257.651 52.7288C260.279 49.8933 263.764 48.4551 268.007 48.4551C271.636 48.4551 275.172 49.684 278.518 52.1109L278.98 52.4471V41.7892L278.831 41.705C277.572 41.0004 275.855 40.4184 273.723 39.977C271.601 39.5368 269.525 39.3146 267.552 39.3146ZM234.625 40.4458H223.583V87.3822H234.625V40.4458ZM229.217 20.4505C227.4 20.4505 225.815 21.069 224.513 22.2948C223.205 23.5244 222.541 25.0721 222.541 26.8985C222.541 28.6964 223.197 30.2157 224.492 31.4124C225.778 32.6054 227.368 33.2103 229.217 33.2103C231.065 33.2103 232.661 32.6054 233.963 31.4143C235.273 30.2157 235.938 28.6964 235.938 26.8985C235.938 25.1359 235.291 23.6036 234.017 22.3443C232.744 21.0875 231.128 20.4505 229.217 20.4505ZM201.669 36.9829V87.382H212.937V21.8878H197.342L177.519 70.5348L158.283 21.8878H142.053V87.382H152.642V36.9779H153.006L173.319 87.382H181.309L201.305 36.9829H201.669Z" fill="#706D6E"/>
<path d="M51.9394 51.9394H0V0H51.9394V51.9394Z" fill="#F1511B"/>
<path d="M109.287 51.9394H57.348V0H109.287V51.9394Z" fill="#80CC28"/>
<path d="M51.9382 109.307H0V57.3672H51.9382V109.307Z" fill="#00ADEF"/>
<path d="M109.287 109.307H57.348V57.3672H109.287V109.307Z" fill="#FBBC09"/>
</g>
<defs>
<clipPath id="clip0_1_7373">
<rect width="512" height="110" fill="white"/>
</clipPath>
</defs>
</svg>
