<svg width="512" height="177" viewBox="0 0 512 177" fill="none" xmlns="http://www.w3.org/2000/svg">
<g clip-path="url(#clip0_1_7289)">
<path d="M219.892 69.6551V65.5577C222.624 65.387 224.843 64.8748 226.892 64.1919C228.94 63.509 231.16 62.4847 233.721 61.1189H237.647V69.9965L238.846 69.0589C239.235 68.7581 239.615 68.4689 239.984 68.191L241.063 67.3906C241.238 67.2627 241.41 67.1376 241.58 67.0151L242.572 66.3124C242.732 66.2005 242.891 66.0912 243.046 65.9845L243.953 65.3747C244.1 65.2781 244.244 65.1839 244.386 65.0922L245.21 64.5707L245.98 64.1056L246.698 63.6947C246.813 63.6307 246.926 63.5688 247.037 63.509C250.452 61.8018 253.866 60.9482 256.939 60.9482C259.158 60.9482 261.207 61.2896 263.256 62.1432C265.304 62.9969 267.012 63.8505 268.207 65.0455C269.402 66.2406 270.597 67.7771 271.45 69.8258C274.985 66.7729 278.218 64.4761 281.148 63.2201L281.694 62.9969C284.938 61.6311 288.011 60.9482 291.254 60.9482C294.327 60.9482 297.059 61.6311 299.449 62.8261C301.839 64.1919 303.547 65.7284 304.571 67.6064C305.595 69.4844 306.107 72.3867 306.107 76.1426L306.112 102.716L306.119 103.357L306.133 103.907L306.154 104.365L306.184 104.728C306.207 104.939 306.238 105.085 306.278 105.166C306.449 105.848 306.79 106.531 307.473 107.044C307.921 107.641 308.5 107.977 309.21 108.166L309.692 108.278L310.104 108.355C310.181 108.367 310.261 108.379 310.346 108.391L310.904 108.458L311.558 108.514L312.31 108.555C312.577 108.566 312.86 108.573 313.159 108.577L315.326 108.58V113.019H288.864V108.58L289.9 108.573C290.229 108.568 290.542 108.56 290.839 108.549L291.687 108.509C293.023 108.425 293.988 108.262 294.65 107.984L294.84 107.897C295.693 107.556 296.376 106.873 296.888 105.848C297.272 105.08 297.464 103.928 297.537 102.247L297.563 101.362L297.571 100.385V76.9962C297.571 74.0939 297.23 72.0452 296.718 70.8501C296.205 69.6551 295.181 68.8015 293.815 67.9478C292.45 67.2649 290.742 66.7528 288.694 66.7528C286.133 66.7528 283.572 67.4357 280.84 68.8015C277.084 70.6794 274.182 72.7281 272.133 74.9475V100.215L272.142 101.133L272.167 101.975L272.204 102.733L272.253 103.404L272.31 103.983L272.374 104.465L272.441 104.845C272.452 104.899 272.463 104.949 272.475 104.995C272.646 105.678 273.158 106.361 273.67 106.873C274.182 107.385 274.865 107.726 275.548 107.897C275.628 107.917 275.725 107.937 275.838 107.957L276.224 108.015L276.703 108.07L277.27 108.12L277.924 108.164L278.66 108.199L279.476 108.224C279.618 108.227 279.764 108.23 279.912 108.232L280.84 108.239V112.677H254.72V108.239H256.256C258.305 108.239 259.841 108.068 260.695 107.556C261.549 107.044 262.231 106.361 262.744 105.336C262.994 104.71 263.153 103.625 263.219 102.148L263.247 101.305C263.25 101.158 263.252 101.007 263.253 100.854L263.256 77.8498C263.256 77.129 263.239 76.4503 263.207 75.8194L263.148 74.9096C263.021 73.3098 262.787 72.0926 262.486 71.3749L262.402 71.1916C261.89 69.9965 260.866 68.9722 259.5 68.2893C258.134 67.4357 256.427 67.0942 254.378 67.0942C252.159 67.0942 249.769 67.6064 247.378 68.8015C243.964 70.5087 240.72 72.5574 237.818 75.289V102.434C237.818 104.141 237.989 105.166 238.501 106.019C239.013 106.702 239.696 107.385 240.55 107.897C241.574 108.409 242.769 108.58 244.476 108.58H246.354V113.019H219.721V108.58H221.087C221.406 108.58 221.712 108.577 222.006 108.571L222.847 108.544L223.606 108.498C224.56 108.425 225.281 108.304 225.717 108.134L225.867 108.068C226.954 107.602 227.617 106.854 228.113 105.824L228.257 105.507C228.398 105.226 228.481 104.8 228.529 104.205L228.563 103.654L228.584 103.017L228.594 102.29L228.599 100.556V69.6551H219.892ZM321.643 69.6551V65.387C324.304 65.074 326.677 64.6175 328.501 64.0176L328.984 63.8505C330.35 63.3952 331.792 62.7882 333.36 62.08L334.972 61.34C335.248 61.2116 335.529 61.081 335.813 60.9482H339.74V103.458C339.74 104.841 339.878 105.809 340.279 106.611L340.423 106.873C340.764 107.556 341.447 108.239 342.13 108.409C342.655 108.672 343.686 108.834 344.988 108.894L345.8 108.918C345.941 108.92 346.083 108.921 346.227 108.921H348.788V113.36H321.643V108.921H323.863L324.774 108.912C326.65 108.87 327.903 108.682 328.643 108.239C329.497 107.897 330.009 107.214 330.35 106.361C330.491 106.009 330.602 105.513 330.685 104.848L330.749 104.236C330.758 104.127 330.767 104.015 330.775 103.899L330.818 103.157L330.846 102.324L330.861 101.397C330.862 101.235 330.862 101.068 330.862 100.897V69.6551H321.643ZM335.13 37.0469C336.838 37.0469 338.203 37.559 339.398 38.7541C340.594 39.9492 341.276 41.315 341.276 43.0222C341.276 44.7294 340.594 46.0952 339.398 47.2903C338.203 48.4854 336.667 49.1682 335.13 49.1682C333.423 49.1682 332.057 48.4854 330.862 47.2903C329.667 46.0952 328.984 44.5587 328.984 43.0222C328.984 41.315 329.667 39.9492 330.862 38.7541C331.887 37.7298 333.423 37.0469 335.13 37.0469ZM401.371 98.6781L404.786 101.41C398.127 110.287 390.103 114.726 380.884 114.726C373.714 114.726 367.568 112.165 362.617 107.044C357.666 101.922 355.105 95.4343 355.105 87.7518C355.105 82.6301 356.3 78.0205 358.52 73.9232C360.739 69.8258 363.983 66.7528 368.08 64.3626C372.177 62.1432 376.958 60.9482 382.25 60.9482C388.396 60.9482 393.347 62.4847 397.445 65.387C401.542 68.2893 403.591 71.3623 403.591 74.4353C403.591 76.1426 403.078 77.3376 402.225 78.1913C401.371 79.0449 400.176 79.557 398.981 79.557C398.298 79.557 397.786 79.3863 397.103 79.0449C396.42 78.7034 395.908 78.1913 395.225 77.5084C395.094 77.377 394.937 77.1447 394.755 76.821L394.525 76.3895L394.27 75.8739L393.843 74.9515C393.793 74.8394 393.741 74.7243 393.689 74.6061L392.714 72.6724L392.387 72.0452L392.091 71.5017L391.824 71.0418C391.697 70.8327 391.579 70.655 391.469 70.5087C390.445 69.1429 389.079 67.9478 387.372 67.0942C385.835 66.2406 383.957 65.8992 382.079 65.8992C379.006 65.8992 376.275 66.7528 373.714 68.46C371.153 70.1672 369.104 72.5574 367.568 75.8011C366.031 79.0449 365.348 82.9715 365.348 87.4103C365.348 94.41 367.226 99.8732 370.982 103.971C374.226 107.556 377.982 109.263 382.421 109.263C384.469 109.263 386.518 108.921 388.567 108.239C390.616 107.556 392.664 106.531 394.542 105.166C395.003 104.858 395.526 104.459 396.114 103.958L396.725 103.423C396.83 103.328 396.938 103.23 397.047 103.129L397.726 102.489L398.451 101.776L399.224 100.988L400.045 100.124L400.917 99.1801L401.371 98.6781ZM410.932 69.6551V65.387C413.493 65.2163 415.712 64.7041 417.761 64.0212C419.809 63.3383 422.029 62.314 424.59 60.7775H428.516V70.8501C431.077 67.7771 433.979 65.387 437.223 63.509C440.467 61.6311 443.54 60.7775 446.101 60.7775C448.662 60.7775 450.71 61.4603 452.247 62.6554C453.783 63.8505 454.466 65.387 454.466 67.0942C454.466 68.2893 453.954 69.4844 452.93 70.5087C451.905 71.533 450.71 72.0452 449.344 72.0452C448.775 72.0452 448.325 71.9267 447.894 71.7883L447.637 71.7038C447.125 71.533 446.442 71.1916 445.589 70.5087C443.711 69.3136 442.003 68.6307 440.638 68.6307C438.93 68.6307 436.882 69.3136 434.833 70.8501C432.101 72.7281 430.053 74.6061 428.516 76.484V101.068C428.516 101.507 428.524 101.923 428.538 102.311L428.574 103.052L428.623 103.714L428.682 104.294C428.704 104.472 428.726 104.635 428.75 104.783L428.821 105.177C428.833 105.234 428.845 105.288 428.858 105.336C429.028 106.019 429.541 106.702 430.053 107.214C430.565 107.726 431.248 108.239 431.931 108.409L432.176 108.456L432.743 108.546C432.846 108.56 432.954 108.574 433.065 108.587L433.785 108.661C434.427 108.716 435.174 108.751 436.028 108.751H437.735V113.19H410.419V108.751H412.639C412.935 108.751 413.216 108.748 413.482 108.742L414.236 108.714C415.538 108.648 416.406 108.489 416.907 108.239C417.654 107.79 418.27 107.212 418.756 106.388L418.956 106.019C419.4 105.279 419.587 103.898 419.629 101.876L419.639 100.897V69.6551H410.932ZM486.221 60.9482C491.342 60.9482 495.952 61.9725 499.708 64.1919C503.464 66.4113 506.537 69.4844 508.756 73.5817C510.976 77.6791 512 82.4593 512 87.7518C512 93.0442 510.805 97.8245 508.586 101.922C506.483 105.804 503.614 108.919 499.979 110.978L499.366 111.312C495.44 113.531 490.83 114.555 485.538 114.555C477.002 114.555 470.514 111.824 466.246 106.531C461.978 101.239 459.759 94.9222 459.759 87.7518C459.759 82.4593 460.954 77.8498 463.173 73.7524C465.392 69.6551 468.466 66.5821 472.563 64.1919C476.419 62.2637 480.729 61.0917 485.351 60.9605L486.221 60.9482ZM485.879 66.0699C481.782 66.0699 478.367 67.6064 475.636 70.8501C472.051 74.7768 470.343 80.5814 470.343 88.0932C470.343 95.4343 471.88 100.897 474.782 104.653C477.514 108.068 481.27 109.775 485.879 109.775C488.952 109.775 491.513 108.921 493.903 107.385C496.293 105.848 498.171 103.288 499.537 99.7024C500.903 96.288 501.757 92.1906 501.757 87.4103C501.757 82.8008 500.903 78.7034 499.366 75.1182C498.171 72.2159 496.293 69.9965 493.903 68.2893C491.832 67.0146 489.314 66.186 486.489 66.0812L485.879 66.0699Z" fill="black"/>
<path d="M88.0934 0C39.4371 0 0 39.4371 0 88.0934C0 136.75 39.4371 176.187 88.0934 176.187C136.75 176.187 176.187 136.75 176.187 88.0934C176.187 39.4371 136.75 0 88.0934 0ZM129.921 100.044C129.067 103.458 127.701 106.19 125.823 108.409C124.116 110.629 122.409 111.995 120.531 112.678C118.653 113.36 116.775 113.702 114.726 113.702C112.678 113.702 110.97 113.36 109.605 112.507C108.239 111.824 107.214 110.629 106.361 109.263C105.507 107.897 104.995 106.19 104.654 104.312C104.312 102.434 104.141 100.385 104.141 98.1661C104.141 97.3124 104.141 96.4588 104.312 95.2638C104.483 94.0687 104.654 92.5322 104.824 92.5322H104.483C101.751 99.3611 97.9953 104.312 93.2151 108.239C88.4348 112.165 83.1424 114.043 77.3378 114.043C73.4111 114.043 70.1674 112.507 67.948 109.605C65.5579 106.702 64.3628 102.263 64.3628 96.4588C64.3628 95.6052 64.3628 94.7516 64.5335 93.7272C64.7042 92.8736 64.7042 92.5322 64.875 90.8249H63.6799C62.1434 94.2394 60.7776 99.0197 59.7533 103.288C58.7289 107.556 57.8753 111.482 57.3631 115.068C56.6802 118.653 56.3388 121.897 55.9973 124.628C55.6559 127.36 55.4852 129.238 55.3144 130.262C55.4852 131.116 55.6559 131.969 55.8266 132.994C56.1681 134.018 56.3388 135.042 56.6802 135.896C57.0217 136.75 57.1924 137.774 57.3631 138.628C57.5338 139.481 57.7046 140.164 57.7046 140.676C57.7046 143.066 57.1924 144.944 56.1681 146.139C55.1437 147.334 53.9487 148.017 52.7536 148.017C51.2171 148.017 49.8513 147.505 48.8269 146.652C47.6319 145.627 47.1197 144.091 47.1197 142.042C47.1197 139.14 47.6319 135.384 48.6562 130.945C49.6806 126.506 51.2171 120.872 53.095 114.214C54.1194 111.141 54.973 108.068 55.9973 104.995C57.0217 101.922 57.8753 99.0197 58.7289 96.4588C59.5825 93.898 60.2654 91.5078 60.9483 89.4592C61.6312 87.4105 61.9727 85.874 62.1434 84.6789C62.3141 84.1667 62.4848 82.9717 62.6556 81.2644C62.8263 79.5572 62.997 77.6792 63.3384 75.4598C63.6799 73.2404 63.8506 70.8503 64.1921 68.4602C64.5335 65.8993 64.875 63.6799 65.0457 61.6312C65.3871 60.0947 65.5579 58.3875 65.8993 56.5095C66.2407 54.6315 66.7529 52.7536 67.4358 51.2171C68.1187 49.5098 69.143 48.144 70.3381 46.949C71.5332 45.7539 73.0697 45.2417 74.9476 45.2417C76.9963 45.2417 78.3621 45.9246 79.045 47.1197C79.7279 48.3148 80.0694 49.8513 79.8986 51.5585C79.7279 53.2658 79.5572 55.1437 79.045 57.0217C78.5328 58.8996 78.0207 60.6069 77.5085 61.9727C76.1427 66.2407 74.7769 70.1674 73.2404 73.4111C71.7039 76.6549 70.3381 80.2401 69.1431 83.996C68.1187 86.5569 67.7773 88.947 67.7773 90.9957C67.7773 94.7516 68.9723 97.4832 71.1917 99.5318C73.5819 101.581 76.3134 102.434 79.5572 102.434C82.118 102.434 84.6789 101.581 87.069 99.7026C89.4592 97.8246 91.6786 95.6052 93.7272 93.0443C95.7759 90.4835 97.4832 87.7519 98.849 84.6789C100.215 81.7766 101.239 79.045 101.922 76.8256C102.093 76.4842 102.263 75.8013 102.434 74.4355C102.776 73.0697 102.946 71.5332 103.288 69.8259C103.629 68.1187 103.971 66.4115 104.312 64.5335C104.654 62.6555 104.995 61.119 105.166 59.924C105.507 58.5582 105.678 57.1924 106.019 55.4852C106.361 53.7779 106.873 52.2414 107.556 50.7049C108.239 49.1684 109.263 47.9733 110.287 46.949C111.482 45.9246 112.848 45.4125 114.726 45.4125C116.946 45.4125 118.311 46.0954 119.165 47.2904C119.848 48.4855 120.189 50.022 120.189 51.7292C120.019 53.4365 119.848 55.1437 119.336 56.851C118.824 58.5582 118.482 59.924 118.141 60.9483C116.775 65.2164 115.409 68.9723 114.043 72.3868C112.678 75.8013 111.482 78.8743 110.287 81.2644C109.263 83.8253 108.409 85.7032 107.727 87.2397C107.044 88.7763 106.702 89.8006 106.702 90.3128C106.702 94.7516 107.727 97.9953 109.605 99.8733C111.482 101.751 113.531 102.776 115.751 102.776C119.507 102.776 122.409 101.581 124.628 99.3611C126.848 96.971 128.555 92.7029 129.579 87.5812H130.945C131.286 92.5322 130.774 96.6295 129.921 100.044Z" fill="#2E3192"/>
</g>
<defs>
<clipPath id="clip0_1_7289">
<rect width="512" height="177" fill="white"/>
</clipPath>
</defs>
</svg>
