<svg width="256" height="239" viewBox="0 0 256 239" fill="none" xmlns="http://www.w3.org/2000/svg">
<g clip-path="url(#clip0_1_7354)">
<path d="M178.563 89.3008H244.688C250.936 89.3008 256 94.3651 256 100.612V160.844C256 183.804 237.387 202.417 214.427 202.417H214.23C191.27 202.42 172.654 183.81 172.651 160.85C172.651 160.85 172.651 160.846 172.651 160.844V95.2127C172.651 91.9476 175.298 89.3008 178.563 89.3008Z" fill="#5059C9"/>
<path d="M223.256 77.3939C238.052 77.3939 250.047 65.3993 250.047 50.6032C250.047 35.8071 238.052 23.8125 223.256 23.8125C208.46 23.8125 196.465 35.8071 196.465 50.6032C196.465 65.3993 208.46 77.3939 223.256 77.3939Z" fill="#5059C9"/>
<path d="M139.907 77.3954C161.279 77.3954 178.605 60.0699 178.605 38.6977C178.605 17.3256 161.279 0 139.907 0C118.535 0 101.209 17.3256 101.209 38.6977C101.209 60.0699 118.535 77.3954 139.907 77.3954Z" fill="#7B83EB"/>
<path d="M191.506 89.3008H82.3546C76.1817 89.4535 71.2986 94.5763 71.4419 100.749V169.447C70.5799 206.491 99.8874 237.232 136.93 238.138C173.973 237.232 203.281 206.491 202.419 169.447V100.749C202.562 94.5763 197.679 89.4535 191.506 89.3008Z" fill="#7B83EB"/>
<path opacity="0.1" d="M142.884 89.3008V185.569C142.854 189.983 140.179 193.949 136.097 195.63C134.797 196.18 133.4 196.464 131.989 196.464H76.6809C75.907 194.499 75.1926 192.534 74.5972 190.51C72.5132 183.679 71.4498 176.577 71.4418 169.435V100.731C71.2986 94.5683 76.1737 89.4535 82.3366 89.3008H142.884Z" fill="black"/>
<path opacity="0.2" d="M136.93 89.3008V191.522C136.93 192.933 136.647 194.33 136.097 195.63C134.416 199.712 130.45 202.388 126.035 202.417H79.4791C78.467 200.452 77.5144 198.488 76.6809 196.464C75.8474 194.439 75.1926 192.534 74.5972 190.51C72.5132 183.679 71.4498 176.577 71.4418 169.435V100.731C71.2986 94.5683 76.1737 89.4535 82.3366 89.3008H136.93Z" fill="black"/>
<path opacity="0.2" d="M136.93 89.3008V179.615C136.885 185.613 132.034 190.465 126.035 190.51H74.5972C72.5133 183.679 71.4499 176.577 71.4419 169.435V100.731C71.2987 94.5683 76.1738 89.4535 82.3367 89.3008H136.93Z" fill="black"/>
<path opacity="0.2" d="M130.977 89.3008V179.615C130.931 185.613 126.08 190.465 120.082 190.51H74.5972C72.5133 183.679 71.4499 176.577 71.4419 169.435V100.731C71.2987 94.5683 76.1738 89.4535 82.3367 89.3008H130.977Z" fill="black"/>
<path opacity="0.1" d="M142.884 58.5237V77.2772C141.872 77.3367 140.919 77.3963 139.907 77.3963C138.895 77.3963 137.942 77.3368 136.93 77.2772C134.921 77.1438 132.928 76.825 130.977 76.3246C118.921 73.4696 108.961 65.0147 104.186 53.5824C103.364 51.6625 102.727 49.669 102.281 47.6289H131.989C137.996 47.6516 142.861 52.516 142.884 58.5237Z" fill="black"/>
<path opacity="0.2" d="M136.93 64.4768V77.2768C134.921 77.1435 132.928 76.8246 130.977 76.3243C118.921 73.4693 108.961 65.0143 104.186 53.582H126.035C132.043 53.6048 136.907 58.4692 136.93 64.4768Z" fill="black"/>
<path opacity="0.2" d="M136.93 64.4768V77.2768C134.921 77.1435 132.928 76.8246 130.977 76.3243C118.921 73.4693 108.961 65.0143 104.186 53.582H126.035C132.043 53.6048 136.907 58.4692 136.93 64.4768Z" fill="black"/>
<path opacity="0.2" d="M130.977 64.4769V76.3243C118.921 73.4693 108.961 65.0143 104.186 53.582H120.082C126.09 53.6049 130.954 58.4694 130.977 64.4769Z" fill="black"/>
<path d="M10.9127 53.582H120.064C126.091 53.582 130.977 58.4679 130.977 64.4947V173.646C130.977 179.673 126.091 184.559 120.064 184.559H10.9127C4.88573 184.559 0 179.673 0 173.646V64.4947C0 58.4679 4.88584 53.582 10.9127 53.582Z" fill="url(#paint0_linear_1_7354)"/>
<path d="M94.2081 95.1236H72.3884V154.539H58.4871V95.1236H36.7688V83.5977H94.2081V95.1236Z" fill="white"/>
</g>
<defs>
<linearGradient id="paint0_linear_1_7354" x1="2275.33" y1="-799.118" x2="10822.3" y2="14004" gradientUnits="userSpaceOnUse">
<stop stop-color="#5A62C3"/>
<stop offset="0.5" stop-color="#4D55BD"/>
<stop offset="1" stop-color="#3940AB"/>
</linearGradient>
<clipPath id="clip0_1_7354">
<rect width="256" height="239" fill="white"/>
</clipPath>
</defs>
</svg>
