<svg width="256" height="256" viewBox="0 0 256 256" fill="none" xmlns="http://www.w3.org/2000/svg">
<g clip-path="url(#clip0_1_7293)">
<path d="M217.767 59.0433C216.988 59.8223 217.5 62.3223 216.711 63.0963C196.324 92.1023 167.287 124.428 146.899 144.437C126.916 164.825 91.8275 196.214 63.2095 216.597C62.4265 217.381 59.7885 217.01 59.0105 217.799C49.6035 210.745 41.7635 202.121 35.0975 192.314C31.1775 186.442 27.6475 180.17 24.5215 173.5C18.2455 159.388 14.7205 144.109 14.7205 127.636C14.7205 64.9303 65.2825 14.3633 127.993 14.3633C144.46 14.3633 160.134 17.8883 173.861 24.1703C180.517 26.9113 186.394 30.4473 192.276 34.3563C201.694 41.7963 210.317 49.6413 217.767 59.0433Z" fill="#184AE8"/>
<path d="M241.286 128.035C241.286 190.75 190.719 241.302 128.003 241.302C109.578 241.302 91.9411 236.983 76.6571 229.154C70.3801 226.029 64.5091 222.098 59.0261 217.779C59.8051 217.395 60.9831 216.606 61.7721 215.817C90.7781 195.429 124.482 164.87 144.481 144.472C164.864 124.49 195.432 90.3753 215.82 61.7643C216.599 60.9903 216.994 59.8013 217.788 59.0273C222.097 64.5053 226.007 70.3973 229.152 76.6533C236.582 92.3683 241.286 109.605 241.286 128.035Z" fill="#184AE8"/>
<path d="M231.489 73.1522C230.71 74.3252 229.911 75.5042 228.748 76.6772C207.581 105.678 177.796 138.609 158.187 158.203C138.199 178.18 105.268 207.991 76.6572 228.763C75.4832 229.537 74.3052 230.341 73.1322 231.505C50.0032 247.967 33.1502 255.806 21.0022 255.806C14.7252 255.806 10.0212 253.839 6.1072 249.929C-5.2578 238.559 -0.948801 215.446 20.6132 177.817L22.1912 175.844L24.5222 173.498C27.5692 180.036 31.1332 186.33 35.0972 192.312C18.6292 222.107 18.6452 234.26 20.2132 236.218H21.3862C24.5172 236.218 34.7132 234.634 59.4102 217.398C60.1942 217.014 61.3672 216.225 62.1462 215.43C91.1572 195.043 124.862 164.484 144.865 144.091C165.253 124.109 195.817 89.9992 216.199 61.3782C216.988 60.5992 217.373 59.4102 218.167 58.6362C239.722 27.6732 236.597 19.4442 236.597 19.4442C234.635 18.2762 222.486 18.2762 192.696 34.7232C186.824 30.7932 180.937 27.2732 174.271 24.5322L178.586 20.6122C216.215 -0.948755 238.944 -5.25775 250.709 6.10724C261.658 17.8812 255.786 38.6642 231.489 73.1522Z" fill="#FF6464"/>
</g>
<defs>
<clipPath id="clip0_1_7293">
<rect width="256" height="256" fill="white"/>
</clipPath>
</defs>
</svg>
