<svg width="256" height="342" viewBox="0 0 256 342" fill="none" xmlns="http://www.w3.org/2000/svg">
<g clip-path="url(#clip0_1_7332)">
<mask id="mask0_1_7332" style="mask-type:luminance" maskUnits="userSpaceOnUse" x="0" y="0" width="256" height="342">
<path d="M142.222 14.2222C142.222 6.3675 148.59 0 156.444 0H241.778C249.632 0 256 6.3675 256 14.2222V327.111C256 334.966 249.632 341.333 241.778 341.333H14.2222C6.36764 341.333 0 334.966 0 327.111V184.889C0 177.034 6.36764 170.667 14.2222 170.667H71.1115V99.5556C71.1115 91.701 77.4791 85.3333 85.3337 85.3333H142.222V14.2222Z" fill="url(#paint0_linear_1_7332)"/>
</mask>
<g mask="url(#mask0_1_7332)">
<path d="M256 0V341.333H142.222V0H256Z" fill="url(#paint1_linear_1_7332)"/>
</g>
<mask id="mask1_1_7332" style="mask-type:luminance" maskUnits="userSpaceOnUse" x="0" y="0" width="256" height="342">
<path d="M142.222 14.2222C142.222 6.3675 148.59 0 156.444 0H241.778C249.632 0 256 6.3675 256 14.2222V327.111C256 334.966 249.632 341.333 241.778 341.333H14.2222C6.36764 341.333 0 334.966 0 327.111V184.889C0 177.034 6.36764 170.667 14.2222 170.667H71.1115V99.5556C71.1115 91.701 77.4791 85.3333 85.3337 85.3333H142.222V14.2222Z" fill="black" fill-opacity="0.2"/>
</mask>
<g mask="url(#mask1_1_7332)">
<path d="M184.889 100.976V342.754H71.1111V86.7539H170.667C178.521 86.7539 184.889 93.1215 184.889 100.976Z" fill="black" fill-opacity="0.2"/>
</g>
<mask id="mask2_1_7332" style="mask-type:luminance" maskUnits="userSpaceOnUse" x="0" y="0" width="256" height="342">
<path d="M142.222 14.2222C142.222 6.3675 148.59 0 156.444 0H241.778C249.632 0 256 6.3675 256 14.2222V327.111C256 334.966 249.632 341.333 241.778 341.333H14.2222C6.36764 341.333 0 334.966 0 327.111V184.889C0 177.034 6.36764 170.667 14.2222 170.667H71.1115V99.5556C71.1115 91.701 77.4791 85.3333 85.3337 85.3333H142.222V14.2222Z" fill="black" fill-opacity="0.18"/>
</mask>
<g mask="url(#mask2_1_7332)">
<path d="M184.889 106.668V348.445H71.1111V92.4453H170.667C178.521 92.4453 184.889 98.813 184.889 106.668Z" fill="black" fill-opacity="0.18"/>
</g>
<mask id="mask3_1_7332" style="mask-type:luminance" maskUnits="userSpaceOnUse" x="0" y="0" width="256" height="342">
<path d="M142.222 14.2222C142.222 6.3675 148.59 0 156.444 0H241.778C249.632 0 256 6.3675 256 14.2222V327.111C256 334.966 249.632 341.333 241.778 341.333H14.2222C6.36764 341.333 0 334.966 0 327.111V184.889C0 177.034 6.36764 170.667 14.2222 170.667H71.1115V99.5556C71.1115 91.701 77.4791 85.3333 85.3337 85.3333H142.222V14.2222Z" fill="url(#paint2_linear_1_7332)"/>
</mask>
<g mask="url(#mask3_1_7332)">
<path d="M184.889 99.5543V341.332H71.1111V85.332H170.667C178.521 85.332 184.889 91.6997 184.889 99.5543Z" fill="url(#paint3_linear_1_7332)"/>
</g>
<mask id="mask4_1_7332" style="mask-type:luminance" maskUnits="userSpaceOnUse" x="0" y="0" width="256" height="342">
<path d="M142.222 14.2222C142.222 6.3675 148.59 0 156.444 0H241.778C249.632 0 256 6.3675 256 14.2222V327.111C256 334.966 249.632 341.333 241.778 341.333H14.2222C6.36764 341.333 0 334.966 0 327.111V184.889C0 177.034 6.36764 170.667 14.2222 170.667H71.1115V99.5556C71.1115 91.701 77.4791 85.3333 85.3337 85.3333H142.222V14.2222Z" fill="url(#paint4_linear_1_7332)"/>
</mask>
<g mask="url(#mask4_1_7332)">
<path d="M0 170.668V341.335H113.778V184.89C113.778 177.036 107.41 170.668 99.5556 170.668H0Z" fill="url(#paint5_linear_1_7332)"/>
</g>
</g>
<defs>
<linearGradient id="paint0_linear_1_7332" x1="10903.7" y1="-0.000287769" x2="17449.3" y2="31217.3" gradientUnits="userSpaceOnUse">
<stop stop-color="#E6AD10"/>
<stop offset="1" stop-color="#C87E0E"/>
</linearGradient>
<linearGradient id="paint1_linear_1_7332" x1="4988.31" y1="-0.000287769" x2="17564.3" y2="26656.7" gradientUnits="userSpaceOnUse">
<stop stop-color="#E6AD10"/>
<stop offset="1" stop-color="#C87E0E"/>
</linearGradient>
<linearGradient id="paint2_linear_1_7332" x1="10271.2" y1="-0.000169884" x2="19868.6" y2="31409.7" gradientUnits="userSpaceOnUse">
<stop stop-color="#F6D751"/>
<stop offset="1" stop-color="#E6AD10"/>
</linearGradient>
<linearGradient id="paint3_linear_1_7332" x1="4636.09" y1="85.3319" x2="15127.5" y2="20432.4" gradientUnits="userSpaceOnUse">
<stop stop-color="#F6D751"/>
<stop offset="1" stop-color="#E6AD10"/>
</linearGradient>
<linearGradient id="paint4_linear_1_7332" x1="7110.19" y1="0.000190188" x2="18837.4" y2="31267.5" gradientUnits="userSpaceOnUse">
<stop stop-color="#F9E589"/>
<stop offset="1" stop-color="#F6D751"/>
</linearGradient>
<linearGradient id="paint5_linear_1_7332" x1="3160.08" y1="170.668" x2="9547.41" y2="15308.5" gradientUnits="userSpaceOnUse">
<stop stop-color="#F9E589"/>
<stop offset="1" stop-color="#F6D751"/>
</linearGradient>
<clipPath id="clip0_1_7332">
<rect width="256" height="342" fill="white"/>
</clipPath>
</defs>
</svg>
