<svg width="512" height="114" viewBox="0 0 512 114" fill="none" xmlns="http://www.w3.org/2000/svg">
<g clip-path="url(#clip0_1_7384)">
<path d="M14.8138 106.331V53.3687L47.4565 98.5966H47.7187L81.148 51.1401V106.331H96.355V7.48532H96.0929L47.7187 74.8683L0.131095 7.48532H0V106.331H14.8138ZM151.022 106.331V10.8938H135.684V106.331H151.022ZM222.075 106.331C230.64 106.331 238.55 104.43 245.804 100.629C253.058 96.8268 258.848 91.4082 263.174 84.3727C267.5 77.3373 269.663 69.1875 269.663 59.9234C269.663 51.5333 267.871 43.6239 264.288 36.1952C260.705 28.7665 255.002 22.6924 247.18 17.9729C239.358 13.2535 229.46 10.8938 217.487 10.8938H190.35V106.331H222.075ZM219.322 91.6485H205.689V25.4454H221.682C226.926 25.4454 232.017 26.6252 236.955 28.9849C241.893 31.3447 245.957 35.0372 249.147 40.0625C252.337 45.0878 253.932 51.3585 253.932 58.8747C253.932 65.779 252.468 71.7002 249.54 76.6381C246.612 81.576 242.548 85.3122 237.348 87.8467C232.148 90.3812 226.139 91.6485 219.322 91.6485ZM302.699 106.331L311.876 83.9139H346.616L355.399 106.331H372.966L330.753 6.96094H329.836L285.132 106.331H302.699ZM341.503 70.8044H317.251L329.574 40.6524L341.503 70.8044Z" fill="black"/>
<path d="M455.332 28.8322C482.437 28.8322 504.639 49.4596 504.639 74.9503C504.639 82.3665 498.332 88.1616 490.385 88.1616C482.437 88.1616 476.131 82.1367 476.131 74.9503C476.131 63.8261 466.787 55.0186 455.101 55.0186C443.414 55.0186 434.07 64.0559 434.07 74.9503C434.07 88.1553 439.212 100.671 448.794 110.174C450.06 111.391 451.319 112.514 452.59 113.556C447.031 113.307 441.681 112.257 436.651 110.521C434.355 107.765 432.33 104.763 429.755 100.202C425.56 93.0437 423.46 84.0423 423.46 74.3479C423.46 57.9597 437.688 44.8009 455.18 44.8009C472.672 44.8009 486.9 57.9535 486.669 74.1128C486.669 76.1915 488.307 77.5773 490.17 77.5773C492.271 77.5773 493.671 75.9564 493.671 74.1128C493.671 54.2602 476.41 37.872 455.186 37.872C433.962 37.872 416.702 54.2602 416.47 74.3479C416.47 85.193 419.04 95.3513 423.703 103.66C423.842 103.9 423.979 104.136 424.115 104.369C417.437 99.9967 411.736 94.2564 407.41 87.5462C406.426 82.4779 406.264 78.3096 406.264 75.1802C406.264 68 407.667 61.7391 410.234 56.1801C418.182 39.4906 435.937 28.8322 455.332 28.8322ZM455.564 62.205C463.511 62.205 469.818 68.2298 469.818 75.4162C469.818 86.3106 479.162 95.3479 490.848 95.3479C493.359 95.3479 495.761 94.9308 497.986 94.1679C494.762 97.8595 491.067 101.13 486.996 103.886C481.335 103.541 476.529 101.932 472.256 99.065C463.943 93.4832 459.09 84.4088 459.09 74.8667C459.09 72.7711 457.703 71.3741 455.624 71.3741C453.544 71.3741 452.157 73.0081 452.157 74.8667C452.157 86.7351 458.162 97.905 468.09 104.653C470.923 106.593 474.033 108.085 477.42 109.102C472.925 111.016 468.132 112.366 463.131 113.066C459.991 111.148 457.124 108.838 454.161 106.006C445.75 97.8945 441.31 87.0063 441.31 75.4162C441.31 68 447.617 62.205 455.564 62.205ZM423.471 19.9135C442.735 9.9261 467.565 9.9261 487.059 19.9135C495.794 24.2889 503.088 30.5102 508.945 38.3854C510.926 44.1621 512 50.3596 512 56.808C512 60.2069 511.701 63.5361 511.129 66.7708C506.729 41.6896 483.506 22.5775 455.564 22.5775C433.601 22.5775 413.504 34.8633 404.391 53.6335C402.027 58.5029 400.512 64.0763 399.957 70.1338C398.928 65.8601 398.384 61.3976 398.384 56.808C398.384 50.5121 399.408 44.4555 401.299 38.7956C407.209 30.9191 414.598 24.3547 423.471 19.9135ZM455.192 0C471.24 0 485.734 6.6543 496.064 17.3542C494.214 16.1839 492.295 15.0999 490.305 14.1041C468.958 2.95234 441.808 3.18272 420.454 14.1041C418.082 15.3181 415.788 16.6638 413.579 18.1379C423.951 6.97982 438.756 0 455.192 0Z" fill="#E7D218"/>
</g>
<defs>
<clipPath id="clip0_1_7384">
<rect width="512" height="114" fill="white"/>
</clipPath>
</defs>
</svg>
