<svg width="256" height="256" viewBox="0 0 256 256" fill="none" xmlns="http://www.w3.org/2000/svg">
<g clip-path="url(#clip0_1_7381)">
<path d="M128.316 64.9649C189.39 64.9649 239.414 111.443 239.414 168.878C239.414 185.589 225.204 198.646 207.297 198.646C189.39 198.646 175.18 185.071 175.18 168.878C175.18 143.813 154.126 123.968 127.794 123.968C101.463 123.968 80.4086 144.331 80.4086 168.878C80.4086 198.632 91.9939 226.832 113.584 248.245C116.436 250.986 119.274 253.517 122.137 255.864C109.613 255.303 97.5577 252.939 86.2238 249.028C81.0502 242.817 76.4883 236.054 70.685 225.775C61.2333 209.647 56.5003 189.364 56.5003 167.521C56.5003 130.595 88.5602 100.946 127.973 100.946C167.386 100.946 199.446 130.581 198.924 166.991C198.924 171.675 202.615 174.798 206.813 174.798C211.546 174.798 214.701 171.145 214.701 166.991C214.701 122.259 175.809 85.3333 127.987 85.3333C80.1649 85.3333 41.2733 122.259 40.7521 167.521C40.7521 191.957 46.5415 214.846 57.0497 233.567C57.3617 234.107 57.671 234.64 57.9777 235.164C42.9293 225.313 30.0846 212.379 20.338 197.259C18.1197 185.84 17.7548 176.448 17.7548 169.396C17.7548 153.218 20.9157 139.111 26.7013 126.585C44.6084 88.9805 84.6138 64.9649 128.316 64.9649ZM128.838 140.161C146.745 140.161 160.956 153.736 160.956 169.928C160.956 194.476 182.009 214.838 208.341 214.838C213.998 214.838 219.411 213.899 224.424 212.18C217.16 220.498 208.835 227.866 199.661 234.075C186.905 233.299 176.077 229.673 166.448 223.214C147.717 210.637 136.783 190.19 136.783 168.69C136.783 163.968 133.659 160.821 128.973 160.821C124.287 160.821 121.162 164.502 121.162 168.69C121.162 195.432 134.691 220.6 157.062 235.805C163.445 240.175 170.452 243.538 178.084 245.83C167.956 250.141 157.157 253.184 145.887 254.76C138.812 250.438 132.353 245.234 125.677 238.854C106.726 220.576 96.7212 196.043 96.7212 169.928C96.7212 153.218 110.931 140.161 128.838 140.161ZM56.5262 44.8693C99.9308 22.3656 155.879 22.3656 199.802 44.8693C219.486 54.7279 235.92 68.7457 249.116 86.4903C253.579 99.5062 256 113.47 256 128C256 135.659 255.327 143.16 254.038 150.448C244.122 93.9352 191.797 50.8718 128.838 50.8718C79.3503 50.8718 34.0674 78.5541 13.5355 120.847C8.20737 131.819 4.79502 144.377 3.54486 158.026C1.22636 148.396 0 138.341 0 128C0 113.814 2.30766 100.167 6.56807 87.4145C19.8844 69.667 36.5333 54.8762 56.5262 44.8693ZM128 0C164.159 0 196.816 14.9935 220.094 39.1026C215.925 36.4656 211.601 34.0233 207.118 31.7795C159.018 6.65223 97.8426 7.17133 49.7289 31.7795C44.3838 34.5149 39.2155 37.5469 34.2383 40.8684C57.6071 15.727 90.9669 0 128 0Z" fill="#E7D218"/>
</g>
<defs>
<clipPath id="clip0_1_7381">
<rect width="256" height="256" fill="white"/>
</clipPath>
</defs>
</svg>
