<svg width="512" height="229" viewBox="0 0 512 229" fill="none" xmlns="http://www.w3.org/2000/svg">
<g clip-path="url(#clip0_1_7407)">
<path d="M156.61 17.25V228.289L116.307 187.997H0V17.25H156.172" fill="#963398"/>
<path d="M174.726 0V211.039L134.423 170.736H18.116V0H174.726Z" fill="#1EBDBF"/>
<path d="M18.116 17.25V170.838H134.458L156.575 192.991V17.6651L18.116 17.25Z" fill="#492670"/>
<path d="M42.9203 83.8008C47.9595 83.8008 52.0532 88.1828 52.0532 93.6026C52.0532 99.0224 47.9711 103.416 42.9203 103.416C37.8695 103.416 33.7988 99.0224 33.7988 93.6026C33.7988 88.1828 37.881 83.8008 42.9203 83.8008ZM86.2673 83.8008C88.8659 83.8191 91.3506 84.8697 93.174 86.7212C94.9974 88.5727 96.0099 91.0732 95.9884 93.6718C95.9059 99.0203 91.5178 103.297 86.1689 103.242C80.82 103.188 76.5204 98.8217 76.5472 93.4727C76.5746 88.1236 80.9181 83.8014 86.2673 83.8008ZM130.272 83.8008C132.868 83.8221 135.35 84.8741 137.171 86.7253C138.992 88.5765 140.003 91.0752 139.981 93.6718C139.892 99.0123 135.507 103.278 130.166 103.219C124.825 103.16 120.534 98.7986 120.563 93.4574C120.593 88.1162 124.93 83.8015 130.272 83.8008Z" fill="white"/>
<path d="M489.271 90.3153C496.035 93.8935 501.654 99.3047 505.485 105.929C513.234 120.009 513.234 137.076 505.485 151.156C501.651 157.777 496.033 163.188 489.271 166.769C481.965 170.614 473.806 172.55 465.551 172.397C457.35 172.563 449.243 170.626 442.004 166.769C435.327 163.162 429.797 157.752 426.044 151.156C418.391 137.044 418.421 120.013 426.125 105.929H426.113C429.935 99.3222 435.527 93.9145 442.257 90.3153C457.027 82.7958 474.502 82.7958 489.271 90.3153ZM346.223 50.716C346.876 52.1619 347.169 53.7447 347.076 55.3286V166.262C347.315 167.404 346.961 168.59 346.136 169.415C345.311 170.241 344.125 170.594 342.982 170.356H327.496C326.335 170.461 325.177 170.123 324.255 169.41C323.488 168.551 323.115 167.409 323.229 166.262V101.916L294.4 136.222C293.298 137.559 292.07 138.787 290.733 139.889C289.973 140.479 289.043 140.807 288.081 140.823C287.153 140.777 286.261 140.451 285.521 139.889C284.17 138.829 282.964 137.596 281.934 136.222L253.106 101.916V166.262C253.225 167.409 252.852 168.553 252.079 169.41C251.157 170.123 250 170.461 248.839 170.356H233.26C232.117 170.594 230.932 170.241 230.106 169.415C229.281 168.59 228.928 167.404 229.166 166.262V55.3517C229.166 51.2234 230.423 49.1823 232.937 49.1823C234.057 49.2277 235.132 49.632 236.004 50.3354C237.468 51.5145 238.788 52.8614 239.937 54.3484L288.369 109.296L336.329 54.3484C337.609 52.9279 338.977 51.5877 340.422 50.3354C341.154 49.6806 342.077 49.2827 343.05 49.1977L343.317 49.1823C344.502 49.082 345.637 49.681 346.223 50.716ZM379.699 86.7059H394.54C395.717 86.5971 396.893 86.9301 397.838 87.6399C398.599 88.507 398.967 89.6512 398.853 90.7996V166.239C398.969 167.384 398.601 168.526 397.838 169.387C396.909 170.095 395.75 170.432 394.586 170.333H379.699C378.556 170.571 377.371 170.218 376.545 169.392C375.72 168.567 375.366 167.381 375.605 166.239V90.8226C375.49 89.6806 375.825 88.5386 376.539 87.6399C377.43 86.9283 378.564 86.5931 379.699 86.7059ZM454.538 108.57C451.28 110.398 448.614 113.124 446.858 116.423C443.099 124.057 443.099 133.004 446.858 140.639C448.611 143.937 451.278 146.659 454.538 148.48C457.744 150.246 461.337 151.184 464.991 151.216L465.539 151.213C469.437 151.27 473.285 150.337 476.725 148.503C480.081 146.681 482.837 143.925 484.659 140.57C488.517 133.012 488.517 124.061 484.659 116.503C482.83 113.152 480.076 110.398 476.725 108.57C473.457 106.826 469.822 105.891 466.124 105.838L465.539 105.837C461.698 105.779 457.907 106.721 454.538 108.57ZM394.459 46.2763C396.512 47.4795 398.195 49.2224 399.325 51.3156C401.605 55.6465 401.605 60.8226 399.325 65.1535C398.204 67.2298 396.517 68.9453 394.459 70.1005C392.377 71.2426 390.05 71.8556 387.68 71.8889L387.206 71.8879C384.73 71.9224 382.288 71.306 380.125 70.1005C378.063 68.9515 376.374 67.2344 375.259 65.1535C372.979 60.8226 372.979 55.6465 375.259 51.3156C376.383 49.2175 378.068 47.4728 380.125 46.2763C382.136 45.0942 384.413 44.449 386.74 44.3988L387.206 44.3967C389.75 44.352 392.257 45.0018 394.459 46.2763Z" fill="#3E1B67"/>
</g>
<defs>
<clipPath id="clip0_1_7407">
<rect width="512" height="229" fill="white"/>
</clipPath>
</defs>
</svg>
