<svg width="256" height="256" viewBox="0 0 256 256" fill="none" xmlns="http://www.w3.org/2000/svg">
<g clip-path="url(#clip0_1_7414)">
<path d="M128 256C198.692 256 256 198.692 256 128C256 57.3075 198.692 0 128 0C57.3075 0 0 57.3075 0 128C0 198.692 57.3075 256 128 256Z" fill="#E9E9E9"/>
<path d="M166.056 207.918C92.0053 201.904 128.429 197.781 21.7341 175.789C51.114 198.468 98.8778 254.651 166.056 207.918Z" fill="url(#paint0_linear_1_7414)"/>
<path d="M242.341 118.062C172.07 104.145 103.173 56.2098 30.8402 71.6728C29.8093 72.0165 28.6066 72.1883 29.1221 72.7037C75.3395 80.7789 172.242 150.019 242.341 118.062Z" fill="url(#paint1_linear_1_7414)"/>
<path d="M223.098 183.692C186.158 175.789 105.235 114.108 14.3462 138.849C93.8952 157.061 165.541 201.389 223.098 183.692Z" fill="url(#paint2_linear_1_7414)"/>
<path d="M235.297 81.8064C194.234 51.5674 142.69 -3.06882 95.6135 47.2721C152.999 54.3164 160.558 63.7661 235.297 81.8064Z" fill="#A4A4A4"/>
<path d="M20.8752 175.444C105.922 175.615 154.545 110.67 242.341 118.058C172.242 153.967 86.5075 221.833 20.8752 175.444Z" fill="#121212"/>
<path d="M235.125 81.8073C149.391 74.9348 104.72 144.175 13.6592 139.192C48.1934 123.558 150.078 31.6381 235.125 81.8073Z" fill="#171717"/>
<path d="M172.242 36.6203C123.103 34.9022 73.1061 78.5425 28.7786 72.8727C60.7356 53.4579 120.011 4.49145 172.242 36.6203Z" fill="#212121"/>
<path d="M84.1021 219.946C135.13 219.774 177.911 174.931 224.129 183.694C186.33 205.342 140.285 250.013 84.1021 219.946Z" fill="#010101"/>
</g>
<defs>
<linearGradient id="paint0_linear_1_7414" x1="36612.3" y1="12898.6" x2="28357.5" y2="-10304.2" gradientUnits="userSpaceOnUse">
<stop stop-color="white"/>
<stop offset="1" stop-color="#C2C1C1"/>
</linearGradient>
<linearGradient id="paint1_linear_1_7414" x1="44787.6" y1="12973.1" x2="38989.1" y2="-10002.3" gradientUnits="userSpaceOnUse">
<stop stop-color="white"/>
<stop offset="1" stop-color="#A2A2A1"/>
</linearGradient>
<linearGradient id="paint2_linear_1_7414" x1="56787.3" y1="18440.5" x2="50982.1" y2="-10324.3" gradientUnits="userSpaceOnUse">
<stop stop-color="white"/>
<stop offset="1" stop-color="#B3B3B3"/>
</linearGradient>
<clipPath id="clip0_1_7414">
<rect width="256" height="256" fill="white"/>
</clipPath>
</defs>
</svg>
