<svg width="512" height="168" viewBox="0 0 512 168" fill="none" xmlns="http://www.w3.org/2000/svg">
<g clip-path="url(#clip0_1_7435)">
<path d="M23.4455 167.59C35.7274 167.59 45.6839 157.634 45.6839 145.352C45.6839 133.07 35.7274 123.113 23.4455 123.113C11.1636 123.113 1.20709 133.07 1.20709 145.352C1.20709 157.634 11.1636 167.59 23.4455 167.59Z" fill="#33547D"/>
<path d="M103.721 161.326C112.408 161.326 119.45 154.283 119.45 145.596C119.45 136.909 112.408 129.867 103.721 129.867C95.0338 129.867 87.9916 136.909 87.9916 145.596C87.9916 154.283 95.0338 161.326 103.721 161.326Z" fill="#33547D"/>
<path d="M169.893 152.735C173.837 152.735 177.034 149.538 177.034 145.594C177.034 141.65 173.837 138.453 169.893 138.453C165.949 138.453 162.752 141.65 162.752 145.594C162.752 149.538 165.949 152.735 169.893 152.735Z" fill="#33547D"/>
<path d="M99.4842 98.7585C95.5744 98.7585 92.6782 95.7186 92.6782 91.9525V62.9909C92.6782 52.9991 87.8995 45.3243 77.1837 45.3243C66.4679 45.3243 59.9516 53.5784 59.9516 63.1367V91.9525C59.9516 95.7186 57.345 98.7585 53.1456 98.7585C49.091 98.7585 46.3396 95.7186 46.3396 91.9525V62.9909C46.3396 52.9991 41.1265 45.3243 30.4107 45.3243C19.4053 45.3243 13.613 53.5784 13.613 63.1367V91.9525C13.613 95.7186 10.8616 98.7585 6.80701 98.7585C2.89616 98.7585 0 95.7186 0 91.9525V40.5456C0 36.491 2.60655 33.5949 6.80598 33.5949C11.4398 33.5949 13.612 36.7806 13.612 40.5456V45.1795C17.5218 37.5047 25.4862 33.0156 34.0299 33.0156C44.4561 33.0156 52.2757 38.2287 56.1855 45.9035C61.833 37.2151 70.0871 33.0156 80.3685 33.0156C97.8903 33.0156 106.289 45.0347 106.289 61.9772V91.9515C106.288 95.7186 103.539 98.7585 99.4842 98.7585Z" fill="#33547D"/>
<path d="M125.405 7.81641C129.749 7.81641 133.369 11.4366 133.369 15.7809C133.369 20.1251 129.749 23.7453 125.405 23.7453C121.061 23.7453 117.44 20.1251 117.44 15.7809C117.44 11.4366 121.061 7.81641 125.405 7.81641ZM125.405 98.7559C121.35 98.7559 118.599 95.7159 118.599 91.9499V40.3982C118.599 36.6332 121.495 33.5922 125.405 33.5922C129.315 33.5922 132.211 36.6332 132.211 40.3982V91.9499C132.209 95.7159 129.459 98.7559 125.405 98.7559Z" fill="#33547D"/>
<path d="M170.582 57.0527L187.814 35.6211C188.972 34.3178 190.421 33.5938 192.303 33.5938C196.068 33.5938 198.53 36.0555 198.53 39.5309C198.53 40.8342 198.095 42.1374 196.937 43.4407L177.967 66.0308L197.227 88.7646C198.24 89.9231 198.819 91.0815 198.819 92.8192C198.819 96.1519 195.923 98.7563 192.737 98.7563C190.71 98.7563 189.117 98.0323 187.959 96.5822L170.582 75.0078L153.205 96.5822C152.046 98.0292 150.453 98.7563 148.426 98.7563C145.24 98.7563 142.344 96.1488 142.344 92.8192C142.344 91.0815 142.923 89.9231 143.937 88.7646L163.197 66.0308L144.227 43.4417C143.068 42.1364 142.634 40.8342 142.634 39.5319C142.634 36.0565 145.096 33.5948 148.861 33.5948C150.743 33.5948 152.191 34.3188 153.35 35.6221L170.582 57.0527Z" fill="#33547D"/>
<path d="M244.868 99.3367C235.166 99.3367 227.202 94.2705 222.568 86.8842V119.032C222.568 122.798 219.817 125.836 215.762 125.836C211.707 125.836 208.956 122.797 208.956 119.032V40.3988C208.956 36.6338 211.273 33.5928 215.472 33.5928C219.672 33.5928 222.134 36.7786 222.134 40.5436V45.4691C226.478 37.9391 235.166 33.0156 244.868 33.0156C261.521 33.0156 275.133 46.9151 275.133 66.1767C275.133 86.1581 261.521 99.3367 244.868 99.3367ZM242.118 44.3096C230.389 44.3096 222.569 54.5889 222.569 66.1756C222.569 77.7624 230.389 88.0417 242.118 88.0417C253.848 88.0417 261.521 79.2094 261.521 66.1756C261.521 53.1429 253.847 44.3096 242.118 44.3096Z" fill="#33547D"/>
<path d="M346.958 91.9525C346.958 95.7186 344.352 98.7585 340.152 98.7585C336.097 98.7585 333.493 95.7186 333.493 91.9525V88.7667C329.438 94.8487 321.764 99.3388 312.353 99.3388C292.076 99.3388 280.349 84.5694 280.349 66.1767C280.349 48.0757 293.384 33.0156 313.8 33.0156C334.653 33.0156 346.962 46.6276 346.962 66.1767V91.9525H346.958ZM313.652 44.6003C302.067 44.6003 293.957 54.3045 293.957 66.1767C293.957 78.6302 300.763 87.7531 313.652 87.7531C325.67 87.7531 333.345 77.4717 333.345 66.1767C333.345 52.8543 325.237 44.6003 313.652 44.6003Z" fill="#33547D"/>
<path d="M387.94 33.0156C405.461 33.0156 418.347 46.338 418.347 63.2805V91.9515C418.347 95.7186 415.308 98.7575 411.541 98.7575C407.777 98.7575 404.735 95.7186 404.735 91.9515V61.6866C404.735 52.5637 397.495 45.4681 387.94 45.4681C378.382 45.4681 371.285 52.5616 371.285 61.6866V91.9515C371.285 95.7186 368.245 98.7575 364.479 98.7575C360.715 98.7575 357.673 95.7186 357.673 91.9515V63.2795C357.673 46.3369 370.416 33.0156 387.94 33.0156Z" fill="#33547D"/>
<path d="M489.158 66.3217C489.158 68.6386 487.854 70.9556 483.945 70.9556H440.649C441.372 80.9473 448.178 88.4763 460.196 88.4763C467.727 88.4763 472.216 85.8687 476.994 81.3807C478.153 80.2223 479.745 79.2065 481.483 79.2065C484.523 79.2065 487.131 81.3807 487.131 84.8551C487.131 86.3011 486.406 87.6044 485.394 88.7628C479.891 95.1344 470.042 99.3359 459.618 99.3359C438.04 99.3359 426.599 84.2738 426.599 66.1728C426.599 47.2029 440.357 33.0117 459.035 33.0117C477.285 33.0179 489.158 47.7863 489.158 66.3217ZM459.038 43.8785C449.047 43.8785 442.241 50.9721 440.937 59.9522H476.559C475.402 51.2617 468.884 43.8785 459.038 43.8785Z" fill="#33547D"/>
<path d="M505.087 98.757C501.03 98.757 498.281 95.7171 498.281 91.9511V6.80598C498.281 3.0389 501.032 0 505.087 0C509.141 0 511.89 3.0389 511.89 6.80598V91.9511C511.892 95.7171 509.141 98.757 505.087 98.757Z" fill="#33547D"/>
</g>
<defs>
<clipPath id="clip0_1_7435">
<rect width="512" height="168" fill="white"/>
</clipPath>
</defs>
</svg>
