<svg width="512" height="183" viewBox="0 0 512 183" fill="none" xmlns="http://www.w3.org/2000/svg">
<g clip-path="url(#clip0_1_7450)">
<path d="M234.056 64.2383C223.052 64.2383 214.185 68.6675 206.988 77.7697C202.138 69.0305 193.57 64.2383 182.719 64.2383C170.744 64.2383 163.709 70.4527 158.926 76.5412V65.9192H138.831V146.638H158.926V101.865C158.926 90.1945 165.387 82.654 175.386 82.654C185.264 82.654 190.93 89.4888 190.93 101.406V146.638H211.025V101.865C211.025 90.0144 217.333 82.654 227.486 82.654C237.51 82.654 243.031 89.3669 243.031 101.559V146.638H263.125V95.9064C263.125 76.0766 252.259 64.2383 234.056 64.2383Z" fill="#232B32"/>
<path d="M402.501 115.411C402.501 124.079 393.242 133.998 381.099 133.998C372.296 133.998 365.861 129.598 365.861 121.863V121.559C365.861 113.218 372.447 108.212 384.287 108.212C391.572 108.212 397.796 109.577 402.501 111.398V115.411ZM384.214 64.1801C371.085 64.1801 362.176 66.8349 353.111 70.8957L358.029 85.6191C365.531 82.4956 372.492 80.7145 381.714 80.7145C394.999 80.7145 402.188 86.2842 402.188 97.9978V98.6737C395.78 96.6433 389.215 95.3742 379.993 95.3742C359.832 95.3742 345.786 104.12 345.786 121.925V122.915C345.786 139.47 359.676 148.644 375.148 148.644C387.809 148.644 396.406 144.813 402.032 138.098V146.654H421.988V98.8525C421.988 86.0336 418.339 79.3288 412.244 73.3948C406.46 67.4593 396.562 64.1801 384.214 64.1801ZM485.551 123.564C481.349 128.032 476.178 130.266 470.036 130.266C463.699 130.266 458.44 128.069 454.265 123.674C450.089 119.281 448 113.523 448 106.404C448 99.4336 450.089 93.7867 454.265 89.4659C458.44 85.145 463.699 82.9846 470.036 82.9846C476.325 82.9846 481.533 85.1829 485.66 89.5756C489.788 93.9709 491.852 99.6043 491.852 106.478C491.852 113.401 489.751 119.097 485.551 123.564ZM500.917 76.2825C493.595 68.3777 484.703 64.4253 474.238 64.4253C469.421 64.4253 464.901 65.3341 460.677 67.1505C456.451 68.9669 452.52 71.6922 448.884 75.3249V39.8886H428.912V146.615H448.884V138.146C452.815 141.878 456.77 144.565 460.75 146.21C464.731 147.854 469.029 148.678 473.647 148.678C484.015 148.678 492.981 144.663 500.549 136.636C508.114 128.608 511.898 118.63 511.898 106.699C511.898 94.3258 508.237 84.1887 500.917 76.2825ZM303.084 38.125H283.125V146.615H341.522V126.952H303.084V38.125Z" fill="#ECA52E"/>
<path d="M86.0295 167.32L81.9768 174.097L77.4958 174.096L77.5151 178.064C77.5151 180.514 75.5254 182.506 73.0724 182.506C70.6194 182.506 68.6296 180.514 68.6296 178.064L68.6128 174.096H52.8738L52.8931 178.064C52.8931 180.514 50.9033 182.506 48.4517 182.506C45.9987 182.506 44.0089 180.514 44.0089 178.064L43.9918 174.096H28.2538L28.2737 178.064C28.2737 180.514 26.2826 182.506 23.8296 182.506C21.3766 182.506 19.3869 180.514 19.3869 178.064L19.3708 174.096L14.5933 174.097L10.8508 167.32H86.0295Z" fill="#4273A5"/>
<path d="M48.469 0H48.5144C48.8682 0.00733596 49.2141 0.18732 49.3715 0.598688C49.8117 1.74053 50.5499 3.10451 51.1946 4.34794C51.5062 4.95204 52.2335 5.71869 53.5311 6.01126C75.8316 8.37621 93.1773 26.07 93.3141 47.6011H93.3303V125.97H3.55017V47.6011H3.56778C3.70323 26.0646 21.0598 8.36673 43.3683 6.00855C44.5495 5.71869 45.3933 4.94798 45.7075 4.34387C46.355 3.09367 47.0661 1.71073 47.5321 0.579725C47.6771 0.228706 48.0733 0.00815653 48.469 0Z" fill="url(#paint0_linear_1_7450)"/>
<path d="M45.8498 50.4978C44.5644 50.4978 43.1692 50.4978 41.5181 50.4978C36.5512 50.4978 34.4652 53.6999 34.4652 57.7349C34.4652 66.9238 39.4891 72.526 39.4891 79.2511C39.4891 86.1983 36.7543 91.5892 28.4472 93.3826C36.7543 95.1759 39.4891 98.4132 39.4891 105.36C39.4891 112.197 34.4652 120.49 34.4652 129.567C34.4652 133.599 35.9146 136.067 40.1636 136.067H42.5773V147.046H37.1688C25.5784 147.046 20.2674 139.541 20.2674 130.576C20.2674 118.248 28.5745 110.291 28.5745 103.567C28.5745 99.6458 27.1929 97.5016 21.7831 97.5016H17.3403V89.357H21.7831C27.1929 89.357 28.5745 87.6558 28.5745 83.8442C28.5745 77.1205 23.4288 67.6972 23.4288 55.4824C23.4288 47.1387 33.5279 35.9031 45.8498 41.9076V50.4978ZM75.8397 97.5016C70.4285 97.5016 68.7571 99.6458 68.7571 103.567C68.7571 110.291 77.0655 118.248 77.0655 130.576C77.0655 139.541 71.7518 147.046 60.1601 147.046H54.7529V136.067H57.1653C61.417 136.067 62.865 133.599 62.865 129.567C62.865 120.49 57.8425 112.197 57.8425 105.36C57.8425 98.4132 60.1275 95.1759 68.4347 93.3826C60.1275 91.5892 57.8425 86.1983 57.8425 79.2511C57.8425 72.526 62.865 66.9238 62.865 57.7349C62.865 53.6999 60.7818 50.4978 55.8108 50.4978C53.9754 50.4978 52.4543 50.4978 51.0321 50.4978V42.081C63.526 35.6796 73.9028 47.0574 73.9028 55.4824C73.9028 67.6972 68.7571 77.1205 68.7571 83.8442C68.7571 87.6558 70.4285 89.357 75.8397 89.357H79.5416V97.5016H75.8397Z" fill="#152331"/>
<path d="M92.1302 131.127C91.6494 132.514 91.4557 134.143 91.3839 135.505C91.3839 135.536 91.3879 135.566 91.3879 135.594V163.723C91.3879 166.176 89.3995 168.166 86.9452 168.166H9.93388C7.48089 168.166 5.49113 166.176 5.49113 163.723V135.594C5.49113 135.56 5.4952 135.528 5.4979 135.491C5.42476 134.142 5.22836 132.53 4.75022 131.153C3.65443 127.99 0 126.713 0 126.713L0.24381 124.988H96.6353L96.8818 126.713C96.8818 126.713 93.2301 127.965 92.1302 131.127Z" fill="#5488B5"/>
<path d="M35.4634 140.108C37.3462 140.108 38.8713 141.635 38.8713 143.516C38.8713 145.399 37.3462 146.924 35.4634 146.924H5.48975V140.108H35.4634ZM91.3811 140.098V146.913H61.4088C59.5261 146.913 58.0009 145.387 58.0009 143.506C58.0009 141.623 59.5261 140.098 61.4088 140.098H91.3811Z" fill="#87B4D5"/>
</g>
<defs>
<linearGradient id="paint0_linear_1_7450" x1="8981.56" y1="6298.48" x2="3.55017" y2="6298.48" gradientUnits="userSpaceOnUse">
<stop stop-color="#F8C41B"/>
<stop offset="1" stop-color="#F9AC18"/>
</linearGradient>
<clipPath id="clip0_1_7450">
<rect width="512" height="183" fill="white"/>
</clipPath>
</defs>
</svg>
