<svg width="256" height="256" viewBox="0 0 256 256" fill="none" xmlns="http://www.w3.org/2000/svg">
<g clip-path="url(#clip0_1_7459)">
<path d="M256 236.395V19.608C256 10.7147 250.077 3.2091 241.963 0.808594L232.748 6.32241L130.483 115.359L127.277 125.381L125.404 135L157.293 254.18L162.228 256.001H236.394C247.222 256.001 256 247.223 256 236.395Z" fill="#EA6618"/>
<path d="M0 19.6063V236.393C0 243.097 3.3666 249.012 8.49913 252.548L14.7874 249.537L123.033 133.644L127.277 125.379L127.436 117.39L97.9752 5.30489L93.5142 0H19.6063C8.77816 0 0 8.77816 0 19.6063Z" fill="#D65813"/>
<path d="M127.277 125.379L241.963 0.80728C240.197 0.284783 238.329 0 236.394 0H93.5144L127.277 125.379Z" fill="#E05E11"/>
<path d="M19.6065 256H162.228L127.277 125.379L8.49927 252.548C11.6569 254.724 15.482 256 19.6065 256Z" fill="#DE5C16"/>
<path d="M94.9182 97.0274H109.143C114.811 118.414 121.262 137.18 128.459 154.113C136.611 135.062 142.586 116.283 147.644 97.0274H161.086C155.066 120.954 145.218 145.067 133.954 169.957H122.064C111.245 146.371 102.033 122.12 94.9182 97.0274ZM47.9983 59.9727H79.6288V195.61H47.8588V185.154H67.3297V70.1497H47.9983V59.9727ZM208.167 70.1498H188.835V185.154H208.306V195.61H176.536V59.9728H208.167V70.1498Z" fill="white"/>
</g>
<defs>
<clipPath id="clip0_1_7459">
<rect width="256" height="256" fill="white"/>
</clipPath>
</defs>
</svg>
