<svg width="256" height="291" viewBox="0 0 256 291" fill="none" xmlns="http://www.w3.org/2000/svg">
<g clip-path="url(#clip0_1_7466)">
<path d="M248.195 223.766L135.805 288.703C130.966 291.512 125.034 291.512 120.195 288.703L7.805 223.766C2.966 220.956 0 215.805 0 210.342V80.4678C0 74.8487 2.966 69.8537 7.805 67.0437L120.195 2.10675C125.034 -0.70225 130.966 -0.70225 135.805 2.10675L248.195 67.0437C253.034 69.8537 256 75.0048 256 80.4678V210.342C255.844 215.805 252.878 220.956 248.195 223.766Z" fill="#8D6748"/>
<path d="M127.844 19.7461C125.503 19.7461 123.161 20.3701 121.132 21.6191L24.0389 77.6581C19.8239 80.0001 17.3269 84.5261 17.3269 89.2091V201.287C17.3269 206.126 19.8239 210.497 24.0389 212.839L121.132 268.878C123.161 270.127 125.503 270.751 127.844 270.751C130.185 270.751 132.527 270.127 134.556 268.878L231.649 212.839C235.864 210.497 238.361 205.97 238.361 201.288V89.2091C238.361 84.3701 235.864 80.0001 231.649 77.6581L134.556 21.6191C132.527 20.3701 130.185 19.7461 127.844 19.7461ZM127.844 24.4291C129.405 24.4291 130.81 24.8971 132.215 25.6781L229.307 81.7171C231.961 83.2781 233.678 86.2441 233.678 89.3661V201.444C233.678 204.566 231.961 207.531 229.307 209.092L132.215 265.131C130.81 265.912 129.405 266.38 127.844 266.38C126.283 266.38 124.722 265.912 123.473 265.131L26.3809 209.092C23.7269 207.531 22.0099 204.566 22.0099 201.444V89.3661C22.0099 86.2441 23.7269 83.2781 26.3809 81.7171L123.473 25.6781C124.878 24.8971 126.439 24.4291 127.844 24.4291ZM118.868 122.146H131.98C132.449 122.146 132.761 121.989 133.073 121.677C140.878 112.937 141.659 94.6725 141.659 89.2095C141.659 88.4295 141.034 87.6485 140.098 87.6485H125.424H110.751C109.971 87.6485 109.19 88.2725 109.19 89.2095C109.19 94.5165 109.971 112.78 117.776 121.677C118.088 121.989 118.4 122.146 118.868 122.146ZM115.278 92.4875H125.58H135.883C136.663 92.4875 137.444 93.1115 137.444 94.0485C137.444 98.4195 136.663 110.75 131.356 117.15C130.888 117.464 130.576 117.619 130.107 117.619H120.898C120.429 117.619 120.117 117.464 119.805 117.15C114.497 110.908 113.873 98.4195 113.717 94.0485C113.717 93.2685 114.341 92.4875 115.278 92.4875ZM128.39 84.5266C128.39 84.5266 134.01 81.2486 130.575 75.3166C128.546 72.1946 127.61 69.5416 128.39 68.4486C126.361 70.9466 122.927 73.5996 126.673 79.2196C127.922 80.6246 128.546 83.5896 128.39 84.5266ZM122.146 84.9948C122.146 84.9948 125.892 82.8098 123.551 78.7508C122.146 76.7218 121.522 74.8488 122.146 74.2238C120.741 75.9408 118.556 77.6578 121.053 81.5608C121.834 82.3408 122.146 84.3708 122.146 84.9948ZM121.678 115.746H129.483C129.795 115.746 130.107 115.59 130.419 115.278C133.073 112.156 134.322 107.317 134.946 103.102C134.946 103.102 134.79 104.507 131.044 105.912C125.893 107.785 116.839 106.536 116.839 106.536C117.619 109.814 118.868 112.936 120.741 115.278C120.897 115.59 121.366 115.746 121.678 115.746ZM62.9854 159.609V128.391H57.2094L47.6874 143.063L38.1654 128.391H32.3904V159.766H37.8534V137.443L47.5314 151.96H47.6874L57.5224 137.287V159.609H62.9854ZM97.9516 129.015C95.9216 128.234 93.7366 127.766 91.3956 127.766C89.0536 127.766 86.8686 128.078 84.8386 129.015C82.8096 129.795 81.0926 131.044 79.6876 132.449C78.1266 134.01 77.0346 135.727 76.2536 137.6C75.4736 139.629 75.0046 141.658 75.0046 143.844V144C75.0046 146.185 75.4736 148.371 76.2536 150.244C77.0346 152.273 78.1266 153.99 79.5316 155.395C80.9366 156.8 82.6536 158.049 84.6826 158.829C86.7126 159.61 88.8976 160.078 91.2386 160.078C93.5806 160.078 95.7656 159.766 97.7956 158.829C99.8246 158.049 101.542 156.8 102.947 155.395C104.508 153.834 105.6 152.117 106.381 150.244C107.161 148.215 107.63 146.185 107.63 144V143.844C107.63 141.658 107.161 139.473 106.381 137.6C105.6 135.571 104.508 133.854 103.103 132.449C101.698 131.044 99.9806 129.795 97.9516 129.015ZM101.698 144.156C101.698 145.561 101.386 146.966 100.917 148.371C100.293 149.619 99.6686 150.868 98.7316 151.805C97.7956 152.741 96.7026 153.522 95.4536 154.146C94.2046 154.771 92.7996 155.083 91.2386 155.083C89.8346 155.083 88.2736 154.771 87.0246 154.146C85.7756 153.522 84.6826 152.741 83.7466 151.805C82.8096 150.712 82.0296 149.619 81.5606 148.215C81.0926 146.81 80.7806 145.405 80.7806 143.844V143.688C80.7806 142.283 81.0926 140.878 81.5606 139.473C82.1856 138.224 82.8096 136.976 83.7466 136.039C84.6826 135.102 85.7756 134.322 87.0246 133.697C88.2736 133.073 89.6776 132.761 91.2386 132.761C92.7996 132.761 94.2046 133.073 95.4536 133.697C96.7026 134.322 97.7956 135.102 98.7316 136.039C99.6686 137.132 100.449 138.224 100.917 139.629C101.386 141.034 101.698 142.439 101.698 144V144.156ZM124.8 139.473C125.424 138.224 126.049 136.975 126.985 136.039C127.922 135.102 129.015 134.322 130.263 133.697C131.512 133.073 132.761 132.761 134.322 132.761C136.195 132.761 137.756 133.073 139.161 133.853C140.566 134.634 141.815 135.571 143.063 136.663L146.654 132.605C145.873 131.824 145.093 131.2 144.312 130.575C143.532 129.951 142.595 129.483 141.659 129.014C140.566 128.702 139.629 128.39 138.38 128.078C137.132 127.922 135.883 127.766 134.478 127.766C131.98 127.766 129.951 128.234 127.922 129.014C125.893 129.795 124.176 131.044 122.771 132.449C121.366 134.01 120.273 135.727 119.493 137.6C118.712 139.473 118.244 141.658 118.244 143.844V144C118.244 146.185 118.712 148.214 119.493 150.244C120.273 152.273 121.366 153.99 122.771 155.395C124.176 156.8 125.893 158.049 127.766 158.829C129.639 159.61 131.668 160.078 134.01 160.078C135.415 160.078 136.819 160.078 138.224 159.766C139.317 159.61 140.566 159.141 141.502 158.673C142.439 158.205 143.376 157.736 144.312 156.956C145.249 156.175 146.029 155.551 146.81 154.614L143.22 151.024C141.815 152.273 140.41 153.21 139.161 153.99C137.912 154.771 136.195 155.083 134.322 155.083C132.917 155.083 131.512 154.614 130.263 154.146C129.015 153.678 127.922 152.741 126.985 151.805C126.049 150.712 125.268 149.619 124.8 148.214C124.332 146.81 124.019 145.405 124.019 143.844V143.688C124.019 142.283 124.332 140.878 124.8 139.473ZM157.737 128.39V159.609H163.2V146.497H178.186V159.609H183.649V128.39H178.186V141.346H163.2V128.39H157.737ZM217.678 152.117L220.8 159.61H226.575L212.839 128.234H207.843L194.107 159.61H199.726L203.004 152.117H217.678ZM210.341 134.79L215.648 147.278H205.034L210.341 134.79ZM28.488 171.16H227.512V169.443H28.488V171.16ZM142.907 110.751C142.907 111.375 142.751 111.844 142.751 112.468H227.512V110.751H142.907ZM108.098 110.751H28.4875V112.468H108.254C108.254 111.844 108.098 111.375 108.098 110.751Z" fill="white"/>
</g>
<defs>
<clipPath id="clip0_1_7466">
<rect width="256" height="291" fill="white"/>
</clipPath>
</defs>
</svg>
