<svg width="512" height="77" viewBox="0 0 512 77" fill="none" xmlns="http://www.w3.org/2000/svg">
<g clip-path="url(#clip0_1_7476)">
<path d="M157.264 32.5782H156.837L143.719 70.219H135.022L121.905 32.5782H121.548L118.483 70.5754H103.869L109.643 6.48634H125.184L139.371 43.4855L153.557 6.48634H169.098L174.873 70.5754H160.259L157.264 32.5782ZM201.963 29.5841C215.151 29.5841 225.773 38.2814 225.773 50.6857C225.773 62.9475 215.722 71.7161 201.963 71.7161C187.562 71.7161 177.938 62.9475 177.938 50.6857C177.938 38.2814 188.489 29.5841 201.963 29.5841ZM201.82 60.0246C207.167 60.0246 211.088 56.175 211.088 50.6857C211.088 45.1964 206.953 41.2755 201.82 41.2755C196.616 41.2755 192.481 45.1964 192.481 50.6857C192.553 56.1037 196.26 60.0246 201.82 60.0246ZM243.881 50.6144C243.881 56.1037 248.158 60.4524 253.362 60.4524C254.999 60.4524 256.39 60.1619 257.473 59.811L257.805 59.6985C257.966 59.6414 258.119 59.5835 258.264 59.5256L258.542 59.41L258.799 59.2961L259.034 59.1853L259.245 59.0794C259.278 59.0622 259.311 59.0453 259.342 59.0287L259.598 58.8885L259.854 58.7361L260.064 58.5988L264.697 68.1516L264.487 68.3048L264.259 68.4583L264.034 68.6014L263.762 68.7653L263.444 68.9466L263.206 69.0757L262.947 69.2104L262.668 69.3495L262.369 69.4924L262.048 69.638L261.708 69.7855L261.347 69.9338L260.965 70.0822L260.563 70.2297C260.426 70.2786 260.285 70.3271 260.141 70.3753L259.698 70.5181C259.321 70.6358 258.922 70.7496 258.502 70.8573L257.988 70.9833L257.453 71.1024C255.729 71.4679 253.699 71.7161 251.366 71.7161C239.889 71.7161 229.267 62.3772 229.267 50.757C229.267 38.9943 239.746 29.5128 251.366 29.5128C254.394 29.5128 256.911 29.9476 258.913 30.5193L259.383 30.659L259.834 30.8031C260.054 30.876 260.267 30.9503 260.472 31.0253L260.873 31.1762C260.939 31.2015 261.003 31.2268 261.067 31.2521L261.438 31.4044L261.789 31.5564C261.846 31.5817 261.902 31.6069 261.957 31.6321L262.279 31.7821L262.58 31.9296C262.629 31.9539 262.676 31.9781 262.723 32.0021L262.995 32.1441L263.364 32.3477L263.689 32.5375L263.969 32.7104L264.203 32.8631L264.493 33.0647L264.697 33.2198L260.064 42.63L259.854 42.4927L259.671 42.3826L259.342 42.2001L259.142 42.0972L258.919 41.9887C258.88 41.9702 258.84 41.9516 258.799 41.9328L258.542 41.8188L258.264 41.7033C258.119 41.6453 257.966 41.5874 257.805 41.5304L257.473 41.4178C256.39 41.0669 254.999 40.7765 253.362 40.7765C248.158 40.8478 243.881 45.1964 243.881 50.6144ZM296.849 49.759L317.665 70.5754H299.914L284.017 54.6779V70.5754H270.258V3.77734H284.017V44.6261L297.99 30.7247H315.812L296.849 49.759ZM357.587 19.3184H335.131V32.0792H355.876V44.9113H335.131V70.6467H320.517V6.48634H357.587V19.3184ZM364.574 3.77734H378.333V70.5754H364.574V3.77734ZM408.773 29.5841C421.962 29.5841 432.584 38.2814 432.584 50.6857C432.584 62.9475 422.532 71.7161 408.773 71.7161C394.373 71.7161 384.749 62.9475 384.749 50.6857C384.749 38.2814 395.299 29.5841 408.773 29.5841ZM448.196 30.7247L457.891 52.2541L467.444 30.7247H476.926L486.479 52.2541L496.174 30.7247H512L490.613 70.5754H481.274L472.078 49.9728L462.882 70.5754H453.757L432.37 30.7247H448.196ZM408.702 41.2755C403.498 41.2755 399.363 45.1964 399.363 50.6857C399.363 56.1037 403.07 60.0246 408.702 60.0246C414.049 60.0246 417.969 56.175 417.969 50.6857C417.969 45.1964 413.835 41.2755 408.702 41.2755Z" fill="#111111"/>
<path d="M51.3284 53.4659L76.9925 35.4297H51.3284V53.4659Z" fill="#7957FF"/>
<path d="M31.5812 29.5138L18.1788 49.5461L17.1094 51.257H17.0382L0 76.9925V0L31.5812 29.5138Z" fill="#1B7CE2"/>
<path d="M76.9925 17.1094H51.3284V0H89.8246L76.9925 17.1094Z" fill="#7957FF"/>
<path d="M51.3283 0V76.9925L17.1094 51.257L18.1787 49.5461L31.5811 29.5138L51.3283 0Z" fill="#F845C6"/>
</g>
<defs>
<clipPath id="clip0_1_7476">
<rect width="512" height="77" fill="white"/>
</clipPath>
</defs>
</svg>
