<svg width="512" height="141" viewBox="0 0 512 141" fill="none" xmlns="http://www.w3.org/2000/svg">
<path d="M132.503 13.2109H66.0515L56.8444 27.6222L104.882 57.2453L132.503 13.2109Z" fill="#00B5DE"/>
<path d="M56.8444 27.6216L12.4097 0V66.4519L28.0219 75.2588L104.882 57.2447L56.8444 27.6216Z" fill="#00DECC"/>
<path d="M119.293 70.8538L104.882 62.0469L75.2588 109.684L119.293 137.306V70.8538Z" fill="#FF5529"/>
<path d="M104.882 62.0469L27.6216 80.4613L0 123.695H66.4519L75.2588 109.684L104.882 62.0469Z" fill="#FF9640"/>
<path d="M310.242 35.2266C332.259 35.2266 348.672 50.4384 348.672 71.655C348.672 92.8716 332.259 108.083 310.242 108.083C288.225 108.083 271.812 92.4712 271.812 71.655C271.812 50.8387 288.225 35.2266 310.242 35.2266ZM190.148 36.4275L216.169 80.0616L242.189 36.4275H255.399L255.8 106.482H240.188V64.8497L219.371 99.6769H212.166L191.75 66.0506V107.283H176.538V36.4275H190.148ZM460.76 36.8278L476.772 59.6456L492.785 36.8278H510.398L485.979 70.8544L512 107.283H493.585V106.882L476.772 82.4634L459.959 106.882H441.144L467.165 71.2547L442.345 36.8278H460.76ZM397.11 36.4275C419.928 36.4275 435.94 50.4384 435.94 71.655C435.94 92.8716 420.328 106.882 397.11 106.882H365.085V36.4275H397.11ZM310.242 49.2375C297.833 49.2375 288.225 58.4447 288.225 71.655C288.225 84.8653 297.833 94.0725 310.242 94.0725C322.652 94.0725 332.259 84.8653 332.259 71.655C332.259 58.4447 322.652 49.2375 310.242 49.2375ZM396.309 50.0381H381.498V93.6722H396.309V93.2719C410.32 93.2719 419.528 84.8653 419.528 71.655C419.528 58.0444 410.32 50.0381 396.309 50.0381Z" fill="#102C53"/>
</svg>
