<svg width="256" height="256" viewBox="0 0 256 256" fill="none" xmlns="http://www.w3.org/2000/svg">
<g clip-path="url(#clip0_1_7502)">
<path fill-rule="evenodd" clip-rule="evenodd" d="M128 256C198.692 256 256 198.692 256 128C256 57.3075 198.692 0 128 0C57.3075 0 0 57.3075 0 128C0 198.692 57.3075 256 128 256ZM128 236.8C67.9114 236.8 19.2 188.089 19.2 128C19.2 67.9114 67.9114 19.2 128 19.2C188.089 19.2 236.8 67.9114 236.8 128C236.8 188.089 188.089 236.8 128 236.8Z" fill="#376660"/>
<path fill-rule="evenodd" clip-rule="evenodd" d="M128 230.402C184.554 230.402 230.4 184.556 230.4 128.002C230.4 71.4476 184.554 25.6016 128 25.6016C71.446 25.6016 25.6 71.4476 25.6 128.002C25.6 184.556 71.446 230.402 128 230.402ZM128 32.0016C124.465 32.0016 121.6 34.8812 121.6 38.4454V121.602H76.781C73.2568 121.602 70.4 124.442 70.4 128.002C70.4 131.536 73.3162 134.402 76.7705 134.402H134.4V38.4071C134.4 34.8694 131.559 32.0016 128 32.0016Z" fill="#529990"/>
</g>
<defs>
<clipPath id="clip0_1_7502">
<rect width="256" height="256" fill="white"/>
</clipPath>
</defs>
</svg>
