<svg width="512" height="95" viewBox="0 0 512 95" fill="none" xmlns="http://www.w3.org/2000/svg">
<path d="M10.6149 73.6533C6.77458 73.6616 3.2268 71.6029 1.32854 68.2645C-0.542362 64.9467 -0.430171 60.8673 1.62026 57.6573L20.7441 27.6265C22.7368 24.3406 26.3433 22.381 30.1844 22.4971C34.0228 22.5891 37.5141 24.7411 39.3209 28.1289C41.1036 31.4998 40.8808 35.5555 38.7455 38.7199L19.6339 68.7507C17.6642 71.8201 14.262 73.6695 10.6149 73.6533Z" fill="#F62B54"/>
<path d="M43.4171 73.6519C39.56 73.6519 36.0107 71.5896 34.147 68.2754C32.2802 64.9665 32.3924 60.8974 34.4387 57.6965L53.526 27.7345C55.4899 24.4015 59.1071 22.3959 62.9745 22.4957C66.8641 22.5808 70.389 24.7566 72.1717 28.16C73.9423 31.5633 73.683 35.6434 71.4829 38.7996L52.3997 68.7616C50.4361 71.8177 47.0496 73.6614 43.4171 73.6519Z" fill="#FFCC00"/>
<path d="M75.4859 73.9028C80.9234 73.9028 85.3314 69.5873 85.3314 64.2639C85.3314 58.9405 80.9234 54.625 75.4859 54.625C70.0484 54.625 65.6404 58.9405 65.6404 64.2639C65.6404 69.5873 70.0484 73.9028 75.4859 73.9028Z" fill="#00CA72"/>
<path d="M503.203 55.1894C506.177 55.1894 507.955 57.3043 507.955 60.7685V72.6398H511.995V60.497C511.995 54.6059 509.219 51.1904 504.001 51.1904C501.959 51.1904 498.717 51.7495 496.785 55.5054C495.87 53.2483 493.789 51.6763 491.368 51.4132C490.62 51.2762 489.858 51.2313 489.099 51.2795C487.438 51.4132 484.48 52.4464 483.374 54.7882V51.6401H479.33V72.6398H483.374V61.3073C483.374 56.8992 486.259 55.1894 489.147 55.1894C491.854 55.1894 493.633 57.2597 493.633 60.7239V72.6398H497.652V61.3073C497.652 57.7986 499.759 55.1488 503.203 55.1894ZM464.489 69.1311C466.337 69.1716 468.119 68.4342 469.412 67.0972C470.708 65.7601 471.397 63.9409 471.328 62.0731C471.328 57.8432 468.217 55.1894 464.489 55.1894C460.758 55.1894 457.65 57.8432 457.65 62.0731C457.577 63.9369 458.266 65.752 459.554 67.085C460.843 68.422 462.617 69.1635 464.457 69.1311H464.489ZM464.489 73.0693C458.582 73.0693 453.651 68.7057 453.651 62.0488C453.651 55.3919 458.582 51.1661 464.489 51.1661C470.396 51.1661 475.368 55.3919 475.368 62.0488C475.368 68.7057 470.368 73.0895 464.461 73.0895L464.489 73.0693ZM432.846 62.0488L432.805 62.0731C432.805 55.4162 437.866 51.1904 443.814 51.1661C446.835 51.1076 449.74 52.3326 451.807 54.537L448.744 57.1463C447.43 55.8559 445.655 55.1441 443.814 55.1691C440.086 55.1691 436.845 57.8229 436.845 62.0488C436.845 64.9052 438.542 67.478 441.148 68.572C443.753 69.6659 446.751 69.0582 448.744 67.0404L451.852 69.6497C449.778 71.8769 446.856 73.1197 443.814 73.0693C437.91 73.0693 432.846 68.7057 432.846 62.0488ZM419.909 68.6084C419.9 67.867 420.186 67.1524 420.705 66.6221C421.223 66.0917 421.931 65.7889 422.672 65.7804C423.413 65.7889 424.121 66.0917 424.639 66.6221C425.158 67.1524 425.444 67.867 425.435 68.6084C425.36 70.0843 424.15 71.247 422.672 71.2623C421.194 71.247 419.984 70.0843 419.909 68.6084Z" fill="#333333"/>
<path d="M430.962 24.942H416.574L406.49 50.9414L396.458 24.942H382.07L399.561 66.0257L388.683 93.188H402.965L430.962 24.942ZM343.462 47.7933C343.462 54.357 349.199 58.676 354.835 58.676C360.374 58.676 365.815 54.6568 365.815 47.7892C365.815 40.9217 360.374 36.8984 354.835 36.8984C349.199 36.8984 343.462 41.2215 343.462 47.7892V47.7933ZM365.815 70.7337V65.5355C362.898 69.9518 356.091 71.621 352.599 71.621C341.035 71.621 329.468 62.5048 329.468 47.7892C329.468 33.0777 341.031 23.9615 352.599 23.9615C355.512 23.9615 362.319 24.9339 365.815 30.0389V24.9582H379.226V70.7418L365.815 70.7378V70.7337ZM325.651 70.7337H312.24V65.0452C310 69.2589 304.566 71.7142 298.926 71.7142C287.262 71.7142 276.958 62.3995 276.958 47.9756C276.958 33.2803 287.262 23.9534 298.926 23.9534C304.558 23.9534 310.008 26.3033 312.24 30.5211V0H325.651V70.7337ZM311.948 47.6879C311.948 40.8244 306.993 36.8012 301.455 36.8012C295.718 36.8012 290.953 41.1162 290.953 47.6879C290.953 54.4704 295.717 58.7652 301.451 58.7652C307.095 58.7733 311.948 54.2597 311.948 47.6879ZM243.8 46.5049C243.8 39.5441 247.398 37.1901 252.158 37.1901C256.724 37.1901 260.031 40.2289 260.031 46.3063V70.7256H273.539V43.3689C273.539 30.3307 267.121 23.9534 256.915 23.9534C251.571 23.9534 246.227 26.9921 243.796 31.6029V24.942H230.295V70.7256H243.8V46.5049ZM202.866 71.5117C190.038 71.5117 179.338 62.0997 179.338 47.6839C179.338 33.26 190.026 23.9412 202.866 23.9412C215.706 23.9412 226.487 33.26 226.487 47.6839C226.487 62.1078 215.693 71.5157 202.866 71.5157V71.5117ZM202.866 58.1817C208.498 58.1817 213.169 54.0571 213.169 47.6879C213.169 41.5092 208.502 37.2914 202.866 37.2914C200.123 37.2485 197.484 38.334 195.565 40.2937C193.635 42.2634 192.587 44.9315 192.66 47.6879C192.664 54.0652 197.327 58.1817 202.866 58.1817ZM155.121 37.1942C159.104 37.1942 162.605 40.3342 162.605 46.3104V70.7337H176.016V44.7302C176.016 30.906 169.294 23.9453 158.52 23.9453C155.32 23.9453 149.291 24.9177 144.915 32.081C142.387 26.7855 137.529 24.0385 130.349 24.0385C125.258 24.0126 120.622 26.9658 118.494 31.5907V24.946H104.978V70.7297H118.482V46.5049C118.482 39.5441 122.274 37.1901 126.354 37.1901C130.244 37.1901 133.737 40.2289 133.838 46.0146V70.7297H147.346V46.5049C147.346 39.848 150.847 37.1982 155.121 37.1982V37.1942Z" fill="#333333"/>
</svg>
