<svg width="512" height="135" viewBox="0 0 512 135" fill="none" xmlns="http://www.w3.org/2000/svg">
<g clip-path="url(#clip0_1_7526)">
<path d="M39.6886 13.8097C34.4885 7.63994 30.0106 1.37375 29.0958 0.0723024C28.9995 -0.0241008 28.855 -0.0241008 28.7587 0.0723024C27.8438 1.37375 23.366 7.63994 18.1658 13.8097C-26.4687 70.7355 25.1957 109.152 25.1957 109.152L25.629 109.442C26.0141 115.37 26.9771 123.902 26.9771 123.902H28.9031H30.8291C30.8291 123.902 31.7921 115.418 32.1773 109.442L32.6106 109.104C32.6588 109.152 84.3233 70.7355 39.6886 13.8097ZM28.9031 108.285C28.9031 108.285 26.592 106.308 25.966 105.297V105.2L28.7587 43.2127C28.7587 43.0199 29.0476 43.0199 29.0476 43.2127L31.8402 105.2V105.297C31.2143 106.308 28.9031 108.285 28.9031 108.285Z" fill="#01EC64"/>
<path d="M125.59 95.634L104.061 43.0515L104.013 42.9062H87.2624V46.4408H89.9656C90.7861 46.4408 91.5585 46.7797 92.1379 47.3607C92.717 47.9417 93.0067 48.7166 93.0067 49.5396L92.5241 102.461C92.5241 104.107 91.1728 105.463 89.5312 105.512L86.7798 105.56V109.046H103.096V105.56L101.406 105.512C99.7649 105.463 98.4131 104.107 98.4131 102.461V52.5899L121.873 109.046C122.211 109.869 122.983 110.402 123.853 110.402C124.721 110.402 125.494 109.869 125.832 109.046L148.761 53.8487L149.099 102.461C149.099 104.156 147.747 105.512 146.058 105.56H144.32V109.046H163.435V105.56H160.828C159.187 105.56 157.835 104.156 157.787 102.509L157.643 49.5878C157.643 47.8933 158.994 46.5376 160.636 46.4892L163.435 46.4408V42.9062H147.119L125.59 95.634ZM275.703 104.638C275.171 104.105 274.88 103.378 274.88 102.505V76.5073C274.88 71.5604 273.429 67.6799 270.525 64.9155C267.67 62.1506 263.701 60.7443 258.765 60.7443C251.843 60.7443 246.375 63.5574 242.551 69.0867C242.503 69.1836 242.358 69.2323 242.213 69.2323C242.067 69.2323 241.971 69.1349 241.971 68.9898L240.18 62.0537H237.179L229.484 66.4674V68.8924H231.468C232.388 68.8924 233.162 69.1349 233.695 69.6204C234.227 70.1054 234.517 70.8329 234.517 71.8511V102.456C234.517 103.329 234.227 104.056 233.695 104.59C233.162 105.123 232.437 105.415 231.565 105.415H229.629V108.955H247.342V105.415H245.407C244.536 105.415 243.81 105.123 243.277 104.59C242.745 104.056 242.454 103.329 242.454 102.456V82.1822C242.454 79.6116 243.035 77.041 244.1 74.5186C245.213 72.0454 246.858 69.9598 249.037 68.3592C251.214 66.7586 253.828 65.9824 256.828 65.9824C260.216 65.9824 262.781 67.0493 264.378 69.1836C265.975 71.3179 266.798 74.0823 266.798 77.3804V102.408C266.798 103.28 266.508 104.008 265.975 104.542C265.443 105.075 264.717 105.366 263.846 105.366H261.91V108.907H279.623V105.366H277.688C276.962 105.463 276.284 105.172 275.703 104.638ZM437.536 46.8653C432.64 44.2581 427.168 42.9062 421.263 42.9062H398.222V46.4308H400.479C401.343 46.4308 402.111 46.7688 402.879 47.5412C403.599 48.2654 403.983 49.0864 403.983 49.9552V101.906C403.983 102.775 403.599 103.596 402.879 104.32C402.159 105.044 401.343 105.431 400.479 105.431H398.222V108.955H421.263C427.168 108.955 432.64 107.603 437.536 104.996C442.432 102.389 446.417 98.5262 449.297 93.602C452.177 88.6772 453.665 82.7386 453.665 75.9789C453.665 69.2198 452.177 63.3294 449.297 58.3564C446.369 53.3352 442.432 49.5208 437.536 46.8653ZM444.401 75.8825C444.401 82.0627 443.297 87.2767 441.136 91.4773C438.976 95.6779 436.096 98.816 432.544 100.844C428.992 102.872 425.056 103.886 420.831 103.886H416.175C415.311 103.886 414.543 103.548 413.775 102.775C413.055 102.051 412.671 101.23 412.671 100.361V51.3557C412.671 50.4865 413.007 49.7141 413.775 48.9413C414.495 48.2172 415.311 47.8309 416.175 47.8309H420.831C425.056 47.8309 428.992 48.8449 432.544 50.8726C436.096 52.9004 438.976 56.0389 441.136 60.239C443.297 64.4879 444.401 69.7506 444.401 75.8825ZM508.129 79.4072C505.998 76.9446 501.885 74.8686 497.05 73.7579C503.727 70.4265 507.16 65.7433 507.16 59.7082C507.16 56.4251 506.292 53.4799 504.547 50.969C502.806 48.4587 500.338 46.4308 497.195 45.0306C494.046 43.6304 490.368 42.9062 486.207 42.9062H460.126V46.4308H462.207C463.078 46.4308 463.852 46.7688 464.626 47.5412C465.352 48.2654 465.739 49.0864 465.739 49.9552V101.906C465.739 102.775 465.352 103.596 464.626 104.32C463.901 105.044 463.078 105.431 462.207 105.431H459.932V108.955H488.242C492.547 108.955 496.563 108.231 500.193 106.782C503.824 105.334 506.726 103.21 508.809 100.409C510.935 97.6092 512 94.181 512 90.2219C511.952 85.9731 510.694 82.3519 508.129 79.4072ZM475.659 102.823C474.933 102.099 474.546 101.279 474.546 100.409V77.0892H488.001C492.74 77.0892 496.37 78.2964 498.887 80.7104C501.403 83.1248 502.662 86.2628 502.662 90.1255C502.662 92.443 502.078 94.7123 501.018 96.7882C499.904 98.9129 498.255 100.603 496.033 101.906C493.854 103.21 491.144 103.886 488.001 103.886H478.078C477.208 103.886 476.433 103.548 475.659 102.823ZM474.595 72.1163V51.4039C474.595 50.5347 474.933 49.7623 475.707 48.9895C476.433 48.2654 477.256 47.8792 478.127 47.8792H484.515C489.11 47.8792 492.499 49.0382 494.63 51.2588C496.756 53.5281 497.821 56.4251 497.821 59.998C497.821 63.6673 496.804 66.6125 494.823 68.8331C492.836 71.006 489.838 72.1163 485.87 72.1163H474.595ZM208.271 63.824C204.573 61.803 200.443 60.7443 195.978 60.7443C191.629 60.7443 187.554 61.7023 183.973 63.6628L183.684 63.824C179.986 65.8445 177.057 68.7796 174.896 72.4846C172.736 76.1896 171.631 80.5204 171.631 85.3319C171.631 90.1433 172.736 94.4741 174.896 98.1791C177.057 101.884 179.986 104.819 183.684 106.84C187.382 108.861 191.512 109.919 195.978 109.919C200.326 109.919 204.401 108.961 207.982 107.001L208.271 106.84C211.969 104.819 214.898 101.884 217.059 98.1791C219.22 94.4741 220.324 90.1433 220.324 85.3319C220.324 80.5204 219.22 76.1896 217.059 72.4846C214.898 68.7796 211.969 65.8445 208.271 63.824ZM211.824 85.3319C211.824 91.2502 210.384 96.0617 207.502 99.5261C204.669 102.991 200.78 104.771 195.978 104.771C191.261 104.771 187.425 103.054 184.605 99.7101L184.453 99.5261C181.571 96.0617 180.131 91.2502 180.131 85.3319C180.131 79.5211 181.519 74.7774 184.297 71.3279L184.453 71.1376C187.286 67.6732 191.176 65.8927 195.978 65.8927C200.78 65.8927 204.669 67.6732 207.502 71.1376C210.384 74.602 211.824 79.4135 211.824 85.3319ZM378.455 63.824C374.758 61.803 370.628 60.7443 366.162 60.7443C361.814 60.7443 357.738 61.7023 354.158 63.6628L353.869 63.824C350.171 65.8445 347.242 68.7796 345.081 72.4846C342.92 76.1896 341.816 80.5204 341.816 85.3319C341.816 90.1433 342.92 94.4741 345.081 98.1791C347.242 101.884 350.171 104.819 353.869 106.84C357.567 108.861 361.696 109.919 366.162 109.919C370.51 109.919 374.586 108.961 378.166 107.001L378.455 106.84C382.153 104.819 385.082 101.884 387.243 98.1791C389.404 94.4741 390.509 90.1433 390.509 85.3319C390.509 80.5204 389.404 76.1896 387.243 72.4846C385.082 68.7796 382.105 65.8445 378.455 63.824ZM382.009 85.3319C382.009 91.2502 380.568 96.0617 377.687 99.5261C374.854 102.991 370.964 104.771 366.162 104.771C361.446 104.771 357.609 103.054 354.79 99.7101L354.637 99.5261C351.756 96.0617 350.315 91.2502 350.315 85.3319C350.315 79.4738 351.704 74.7756 354.482 71.3279L354.637 71.1376C357.47 67.6732 361.36 65.8927 366.162 65.8927C370.964 65.8927 374.854 67.6732 377.687 71.1376C380.52 74.602 382.009 79.4135 382.009 85.3319ZM309.823 60.7443C305.953 60.7443 302.423 61.5658 299.231 63.2093C296.039 64.8528 293.525 67.0768 291.735 69.9285C289.946 72.7319 289.027 75.8743 289.027 79.2096C289.027 82.2063 289.704 84.9616 291.106 87.4271C292.461 89.7957 294.298 91.7772 296.62 93.4207L289.704 102.799C288.833 103.959 288.737 105.505 289.365 106.762C290.042 108.067 291.3 108.841 292.751 108.841H294.734C292.88 110.092 291.381 111.564 290.323 113.301L290.187 113.529C288.93 115.608 288.301 117.783 288.301 120.007C288.301 124.09 290.074 127.473 293.574 130.02L293.766 130.158C297.345 132.72 302.375 134.025 308.71 134.025C313.111 134.025 317.319 133.3 321.139 131.898C324.898 130.536 327.971 128.536 330.272 125.941L330.473 125.711C332.843 123.004 334.052 119.717 334.052 115.946C334.052 111.983 332.601 109.179 329.216 106.472C326.314 104.2 321.768 102.992 316.109 102.992H296.765C296.736 102.992 296.707 102.974 296.688 102.96L296.668 102.943L296.66 102.923C296.648 102.892 296.634 102.833 296.668 102.799L301.698 96.0313C303.052 96.6595 304.309 97.0462 305.422 97.2877C306.582 97.5297 307.888 97.6261 309.339 97.6261C313.402 97.6261 317.077 96.8046 320.269 95.1611C323.461 93.5176 326.024 91.2941 327.862 88.4419C329.699 85.6385 330.618 82.4966 330.618 79.1613C330.618 75.5841 328.877 69.0583 324.138 65.723C324.138 65.6941 324.155 65.6825 324.169 65.6779L324.186 65.6748L334.584 66.8348V62.0494H317.947C315.336 61.2278 312.628 60.7443 309.823 60.7443ZM315.626 91.0039C313.788 91.9705 311.805 92.5023 309.823 92.5023C306.583 92.5023 303.729 91.3423 301.311 89.0706C298.893 86.7984 297.684 83.4632 297.684 79.2096C297.684 74.9559 298.893 71.6202 301.311 69.3485C303.729 67.0768 306.583 65.9164 309.823 65.9164C311.769 65.9164 313.627 66.3605 315.396 67.2907L315.626 67.4147C317.464 68.3819 318.963 69.8803 320.172 71.8622C321.333 73.8442 321.961 76.3092 321.961 79.2096C321.961 82.1581 321.381 84.6232 320.172 86.5569C319.011 88.5389 317.464 90.0372 315.626 91.0039ZM302.52 108.792H315.626C319.253 108.792 321.575 109.517 323.122 111.064C324.67 112.611 325.444 114.689 325.444 117.107C325.444 120.635 324.041 123.536 321.236 125.711C318.431 127.886 314.659 128.998 310.016 128.998C305.953 128.998 302.568 128.08 300.102 126.339C297.635 124.599 296.378 121.94 296.378 118.557C296.378 116.43 296.958 114.448 298.119 112.708C299.28 110.968 300.682 109.711 302.52 108.792Z" fill="#001E2B"/>
</g>
<defs>
<clipPath id="clip0_1_7526">
<rect width="512" height="135" fill="white"/>
</clipPath>
</defs>
</svg>
