<svg width="256" height="549" viewBox="0 0 256 549" fill="none" xmlns="http://www.w3.org/2000/svg">
<g clip-path="url(#clip0_1_7523)">
<path d="M175.622 61.108C152.611 33.8067 132.797 6.07882 128.749 0.319938C128.322 -0.106646 127.683 -0.106646 127.257 0.319938C123.209 6.07882 103.394 33.8067 80.3835 61.108C-117.124 313.004 111.491 482.999 111.491 482.999L113.408 484.279C115.112 510.512 119.374 548.266 119.374 548.266H127.896H136.419C136.419 548.266 140.68 510.726 142.384 484.279L144.302 482.785C144.515 482.999 373.13 313.004 175.622 61.108ZM127.896 479.159C127.896 479.159 117.669 470.414 114.899 465.936V465.508L127.257 191.216C127.257 190.363 128.536 190.363 128.536 191.216L140.893 465.508V465.936C138.123 470.414 127.896 479.159 127.896 479.159Z" fill="#01EC64"/>
</g>
<defs>
<clipPath id="clip0_1_7523">
<rect width="256" height="549" fill="white"/>
</clipPath>
</defs>
</svg>
