<svg width="256" height="329" viewBox="0 0 256 329" fill="none" xmlns="http://www.w3.org/2000/svg">
<g clip-path="url(#clip0_1_7530)">
<path d="M239.967 0H16.0338C7.17899 0 0 7.17796 0 16.0328V100.604L50.3911 86.5262L83.9329 100.435L56.4834 86.5262C56.4834 86.5262 37.1759 75.9738 33.7776 62.1394C30.3803 48.3061 47.5943 32.5195 47.5943 32.5195L109.86 40.485L75.9892 34.107C75.9892 34.107 87.8694 26.1945 114.588 27.0548C143.911 27.9971 185.227 35.4088 192.045 42.2273C198.864 49.0468 211.571 95.1015 204.267 102.409C200.835 105.84 157.013 95.0859 157.013 95.0859L193.571 106.676C193.571 106.676 213.846 153.208 201.02 193.228C201.02 193.228 173.109 178.082 151.011 148.174C169.322 186.495 199.305 198.784 199.305 198.784C199.305 198.784 188.033 229.124 181.506 235.651L75.1591 189.926L21.1681 255.998H239.967C248.823 255.998 256 248.819 256 239.965V16.0328C256 7.17796 248.823 0 239.967 0Z" fill="#1A1918"/>
<path d="M44.9202 303.076V320.339C44.9202 323.065 44.2933 325.112 43.0405 326.473C41.7867 327.835 40.131 328.517 38.0767 328.517C36.0834 328.517 34.4688 327.835 33.2318 326.473C31.9958 325.112 31.3773 323.065 31.3773 320.339V299.651C31.3773 296.386 31.2637 293.851 31.0397 292.042C30.8156 290.237 30.2076 288.755 29.2178 287.598C28.227 286.439 26.6618 285.861 24.5212 285.861C20.238 285.861 17.4169 287.32 16.0589 290.237C14.6988 293.154 14.0214 297.339 14.0214 302.79V320.339C14.0214 323.033 13.4029 325.071 12.1659 326.449C10.9289 327.826 9.29743 328.517 7.27468 328.517C5.28138 328.517 3.64992 327.826 2.3803 326.449C1.11069 325.071 0.478516 323.033 0.478516 320.336V283.191C0.478516 280.749 1.04758 278.894 2.18781 277.626C3.32804 276.358 4.82907 275.723 6.6951 275.723C8.49485 275.723 9.99588 276.318 11.2003 277.508C12.4047 278.698 13.0084 280.34 13.0084 282.434V283.672C15.2826 280.975 17.7166 278.991 20.3116 277.722C22.9066 276.452 25.7887 275.816 28.9612 275.816C32.2599 275.816 35.0957 276.468 37.4666 277.769C39.8376 279.069 41.7909 281.038 43.3298 283.672C45.5366 281.005 47.9012 279.031 50.4278 277.744C52.9523 276.46 55.7514 275.816 58.8218 275.816C62.4013 275.816 65.4865 276.515 68.0772 277.911C70.6659 279.307 72.6014 281.307 73.8815 283.908C74.9965 286.256 75.5561 289.949 75.5561 294.991V320.339C75.5561 323.065 74.9334 325.11 73.6879 326.473C72.4436 327.835 70.8016 328.517 68.7599 328.517C66.7813 328.517 65.1625 327.826 63.9034 326.449C62.6412 325.071 62.0132 323.033 62.0132 320.339V298.511C62.0132 295.722 61.8912 293.486 61.6513 291.807C61.4105 290.126 60.7636 288.714 59.7075 287.573C58.6514 286.431 57.0515 285.861 54.9067 285.861C53.1764 285.861 51.5376 286.368 49.9839 287.384C48.4303 288.398 47.2228 289.76 46.3602 291.472C45.3988 293.661 44.9202 297.528 44.9202 303.076Z" fill="#1A1918"/>
<path d="M137.247 302.163C137.247 306.032 136.637 309.597 135.426 312.862C134.212 316.128 132.455 318.934 130.156 321.28C127.857 323.626 125.11 325.426 121.918 326.677C118.723 327.927 115.13 328.555 111.14 328.555C107.18 328.555 103.619 327.918 100.457 326.651C97.2952 325.383 94.5572 323.566 92.2431 321.203C89.9279 318.838 88.1713 316.045 86.9743 312.825C85.7762 309.605 85.1787 306.041 85.1787 302.138C85.1787 298.205 85.7846 294.602 86.9985 291.334C88.2102 288.066 89.9511 285.274 92.2189 282.958C94.4867 280.642 97.2342 278.858 100.459 277.603C103.684 276.35 107.245 275.723 111.14 275.723C115.099 275.723 118.692 276.358 121.918 277.628C125.144 278.9 127.905 280.71 130.203 283.06C132.503 285.41 134.251 288.205 135.449 291.443C136.646 294.685 137.247 298.257 137.247 302.163ZM124.098 302.163C124.098 296.867 122.924 292.746 120.583 289.799C118.24 286.852 115.093 285.376 111.14 285.376C108.588 285.376 106.341 286.033 104.398 287.348C102.454 288.665 100.957 290.605 99.905 293.174C98.8531 295.742 98.3271 298.738 98.3271 302.163C98.3271 305.555 98.8447 308.52 99.8797 311.056C100.916 313.592 102.399 315.534 104.328 316.881C106.255 318.228 108.527 318.901 111.14 318.901C115.093 318.901 118.24 317.42 120.583 314.456C122.924 311.492 124.098 307.393 124.098 302.163Z" fill="#1A1918"/>
<path d="M159.494 282.911V284.481C161.793 281.467 164.307 279.252 167.038 277.84C169.766 276.429 172.903 275.723 176.449 275.723C179.896 275.723 182.978 276.468 185.692 277.96C188.405 279.452 190.433 281.562 191.775 284.292C192.636 285.879 193.195 287.594 193.449 289.431C193.704 291.272 193.833 293.62 193.833 296.476V320.654C193.833 323.256 193.233 325.224 192.037 326.557C190.843 327.888 189.287 328.555 187.372 328.555C185.424 328.555 183.847 327.871 182.635 326.508C181.423 325.144 180.816 323.194 180.816 320.654V298.997C180.816 294.715 180.217 291.439 179.018 289.17C177.819 286.903 175.432 285.767 171.855 285.767C169.521 285.767 167.397 286.458 165.48 287.838C163.563 289.217 162.158 291.114 161.265 293.524C160.623 295.461 160.305 299.077 160.305 304.377V320.654C160.305 323.288 159.692 325.262 158.468 326.579C157.244 327.896 155.664 328.555 153.725 328.555C151.849 328.555 150.309 327.871 149.1 326.508C147.892 325.144 147.288 323.194 147.288 320.654V283.099C147.288 280.624 147.828 278.777 148.909 277.555C149.99 276.334 151.467 275.723 153.342 275.723C154.487 275.723 155.521 275.993 156.443 276.531C157.364 277.072 158.103 277.881 158.659 278.959C159.214 280.039 159.494 281.356 159.494 282.911Z" fill="#1A1918"/>
<path d="M255.943 302.163C255.943 306.032 255.335 309.597 254.123 312.862C252.908 316.128 251.153 318.934 248.853 321.28C246.555 323.626 243.808 325.426 240.615 326.677C237.421 327.927 233.827 328.555 229.838 328.555C225.876 328.555 222.317 327.918 219.155 326.651C215.993 325.383 213.254 323.566 210.941 321.203C208.626 318.838 206.869 316.045 205.671 312.825C204.474 309.605 203.875 306.041 203.875 302.138C203.875 298.205 204.482 294.602 205.696 291.334C206.908 288.066 208.648 285.274 210.917 282.958C213.184 280.642 215.931 278.858 219.157 277.603C222.382 276.35 225.943 275.723 229.838 275.723C233.797 275.723 237.39 276.358 240.615 277.628C243.84 278.9 246.601 280.71 248.901 283.06C251.199 285.41 252.948 288.205 254.145 291.443C255.343 294.685 255.943 298.257 255.943 302.163ZM242.795 302.163C242.795 296.867 241.622 292.746 239.279 289.799C236.938 286.852 233.791 285.376 229.838 285.376C227.286 285.376 225.038 286.033 223.095 287.348C221.151 288.665 219.653 290.605 218.602 293.174C217.55 295.742 217.024 298.738 217.024 302.163C217.024 305.555 217.542 308.52 218.577 311.056C219.612 313.592 221.095 315.534 223.025 316.881C224.952 318.228 227.225 318.901 229.838 318.901C233.791 318.901 236.938 317.42 239.279 314.456C241.622 311.492 242.795 307.393 242.795 302.163Z" fill="#1A1918"/>
</g>
<defs>
<clipPath id="clip0_1_7530">
<rect width="256" height="329" fill="white"/>
</clipPath>
</defs>
</svg>
