<svg width="256" height="256" viewBox="0 0 256 256" fill="none" xmlns="http://www.w3.org/2000/svg">
<g clip-path="url(#clip0_1_7539)">
<path d="M128 256C198.692 256 256 198.692 256 128C256 57.3075 198.692 0 128 0C57.3075 0 0 57.3075 0 128C0 198.692 57.3075 256 128 256Z" fill="#5805FF"/>
<mask id="mask0_1_7539" style="mask-type:luminance" maskUnits="userSpaceOnUse" x="0" y="0" width="256" height="256">
<path d="M128 256C198.692 256 256 198.692 256 128C256 57.3075 198.692 0 128 0C57.3075 0 0 57.3075 0 128C0 198.692 57.3075 256 128 256Z" fill="url(#paint0_radial_1_7539)"/>
</mask>
<g mask="url(#mask0_1_7539)">
<path d="M199.695 233.371C270.387 233.371 327.695 176.064 327.695 105.371C327.695 34.6786 270.387 -22.6289 199.695 -22.6289C129.002 -22.6289 71.6946 34.6786 71.6946 105.371C71.6946 176.064 129.002 233.371 199.695 233.371Z" fill="url(#paint1_radial_1_7539)"/>
</g>
<mask id="mask1_1_7539" style="mask-type:luminance" maskUnits="userSpaceOnUse" x="0" y="0" width="256" height="256">
<path d="M128 256C198.692 256 256 198.692 256 128C256 57.3075 198.692 0 128 0C57.3075 0 0 57.3075 0 128C0 198.692 57.3075 256 128 256Z" fill="url(#paint2_radial_1_7539)"/>
</mask>
<g mask="url(#mask1_1_7539)">
<path d="M275.372 210.375C346.065 210.375 403.372 153.067 403.372 82.375C403.372 11.6825 346.065 -45.625 275.372 -45.625C204.68 -45.625 147.372 11.6825 147.372 82.375C147.372 153.067 204.68 210.375 275.372 210.375Z" fill="url(#paint3_radial_1_7539)"/>
</g>
</g>
<defs>
<radialGradient id="paint0_radial_1_7539" cx="0" cy="0" r="1" gradientUnits="userSpaceOnUse" gradientTransform="translate(12800 12800) scale(12746.1)">
<stop stop-color="#4600D1"/>
<stop offset="0.492852" stop-color="#4600D1"/>
<stop offset="1" stop-color="#35009F"/>
</radialGradient>
<radialGradient id="paint1_radial_1_7539" cx="0" cy="0" r="1" gradientUnits="userSpaceOnUse" gradientTransform="translate(12871.7 12777.4) scale(12746.1)">
<stop stop-color="#4600D1"/>
<stop offset="0.492852" stop-color="#4600D1"/>
<stop offset="1" stop-color="#35009F"/>
</radialGradient>
<radialGradient id="paint2_radial_1_7539" cx="0" cy="0" r="1" gradientUnits="userSpaceOnUse" gradientTransform="translate(12800 12800) scale(12698.4)">
<stop stop-color="#35019E"/>
<stop offset="0.187296" stop-color="#320194"/>
<stop offset="1" stop-color="#220066"/>
</radialGradient>
<radialGradient id="paint3_radial_1_7539" cx="0" cy="0" r="1" gradientUnits="userSpaceOnUse" gradientTransform="translate(12947.4 12754.4) scale(12698.4 12698.4)">
<stop stop-color="#35019E"/>
<stop offset="0.187296" stop-color="#320194"/>
<stop offset="1" stop-color="#220066"/>
</radialGradient>
<clipPath id="clip0_1_7539">
<rect width="256" height="256" fill="white"/>
</clipPath>
</defs>
</svg>
