<svg width="512" height="109" viewBox="0 0 512 109" fill="none" xmlns="http://www.w3.org/2000/svg">
<g clip-path="url(#clip0_1_7551)">
<path d="M154.177 80.0785C152.567 82.244 150.695 84.3128 148.559 86.285C140.493 93.4277 131.259 96.9976 120.857 96.9948C110.618 96.992 101.973 93.4729 94.9229 86.4367L94.2571 97.2856H76.6159L79.3571 50.8481C79.671 45.7407 74.8867 41.5998 69.8798 41.5998C64.8729 41.5998 59.769 45.7407 59.4558 50.8481L56.7146 97.2856H38.1646L40.9058 50.8481C41.2191 45.7407 35.8919 41.3687 30.8849 41.3687C25.8787 41.3687 21.3185 45.74 21.0052 50.8481L18.264 97.2856H0.481689L4.92534 26.4526H18.5232C22.1655 24.5697 26.8332 23.5 31.0893 23.5C38.9877 23.5 46.9978 27.1662 51.32 32.9204C56.348 27.1662 63.0384 23.5 70.9368 23.5C80.9645 23.5 90.4756 29.4075 94.7986 37.9971C95.8836 36.7526 97.0618 35.5433 98.3334 34.3693C106.398 27.2259 115.591 23.6566 125.911 23.6594C136.314 23.6622 145.055 27.2364 152.136 34.3833C153.995 36.3515 155.579 38.4185 156.887 40.5844C158.497 38.4131 160.369 36.3414 162.505 34.3693C170.57 27.2259 179.763 23.6566 190.083 23.6594C200.486 23.6622 209.227 27.2364 216.308 34.3833C223.212 41.6911 226.317 50.3621 225.625 60.397C224.939 70.3519 220.642 78.9814 212.731 86.285C204.665 93.4277 195.431 96.9976 185.029 96.9948C174.709 96.992 166.009 93.4171 158.928 86.2695C157.069 84.302 155.485 82.2383 154.177 80.0785ZM139.091 46.0673C135.283 42.1322 130.509 40.1635 124.765 40.1621C119.022 40.16 113.934 42.1265 109.5 46.0596C105.145 50.0734 102.777 54.85 102.395 60.3893C102.013 65.93 103.722 70.7079 107.525 74.7239C111.416 78.6597 116.233 80.6263 121.976 80.6284C127.719 80.6305 132.765 78.6647 137.115 74.7316C141.553 70.7171 143.965 65.9391 144.347 60.3998C144.728 54.8612 142.975 50.084 139.091 46.0673ZM203.263 46.0673C199.455 42.1322 194.681 40.1635 188.937 40.1621C183.194 40.16 178.106 42.1265 173.673 46.0596C169.317 50.0734 166.949 54.85 166.567 60.3893C166.185 65.93 167.894 70.7079 171.697 74.7239C175.588 78.6597 180.405 80.6263 186.148 80.6284C191.891 80.6305 196.937 78.6647 201.288 74.7316C205.726 70.7171 208.137 65.9391 208.519 60.3998C208.9 54.8612 207.147 50.084 203.263 46.0673Z" fill="#414347"/>
<path d="M346.282 80.034C344.666 82.2158 342.782 84.2996 340.631 86.2853C332.565 93.428 323.331 96.998 312.929 96.9952C302.609 96.9924 293.909 93.4175 286.829 86.2699C279.925 78.9642 276.817 70.3326 277.503 60.377C278.041 52.5811 280.756 45.6096 285.65 39.4623H257.171L255.175 68.5444C254.578 77.2196 256.848 80.0795 263.758 80.0795C267.139 80.0795 270.199 80.0894 270.199 80.0894L269.257 96.4354C269.257 96.4354 262.524 96.4003 256.791 96.4003C250.174 96.4003 244.733 94.2744 241.603 90.5976C238.063 86.4813 236.743 80.0121 237.39 70.6016L238.644 39.4609H229.236L230.339 23.4062L318.453 23.4077L318.436 23.6622C328.64 23.7672 337.23 27.3406 344.208 34.3837C346.08 36.3655 347.673 38.4475 348.986 40.6297C350.604 38.4421 352.487 36.3554 354.638 34.3697C362.703 27.2262 371.896 23.657 382.216 23.6598C392.619 23.6626 401.36 27.2368 408.44 34.3837C415.344 41.6915 418.449 50.3624 417.758 60.3974C417.072 70.3522 412.774 78.9818 404.863 86.2853C396.798 93.428 387.563 96.998 377.162 96.9952C366.842 96.9924 358.141 93.4175 351.061 86.2699C349.189 84.2887 347.596 82.2101 346.282 80.034ZM331.163 46.0677C327.355 42.1325 322.581 40.1639 316.837 40.1625C311.094 40.1604 306.006 42.1269 301.573 46.06C297.217 50.0738 294.849 54.8504 294.467 60.3896C294.085 65.9303 295.794 70.7083 299.597 74.7242C303.488 78.6601 308.305 80.6266 314.048 80.6287C319.791 80.6309 324.837 78.665 329.188 74.732C333.626 70.7174 336.037 65.9395 336.419 60.4002C336.8 54.8616 335.047 50.0843 331.163 46.0677ZM395.396 46.0677C391.588 42.1325 386.813 40.1639 381.07 40.1625C375.327 40.1604 370.238 42.1269 365.805 46.06C361.449 50.0738 359.082 54.8504 358.7 60.3896C358.318 65.9303 360.026 70.7083 363.83 74.7242C367.721 78.6601 372.538 80.6266 378.281 80.6287C384.024 80.6309 389.069 78.665 393.42 74.732C397.858 70.7174 400.269 65.9395 400.651 60.4002C401.033 54.8616 399.28 50.0843 395.396 46.0677Z" fill="#6E788C"/>
<path d="M463.675 20.4972C463.375 10.4138 446.87 0.441406 446.87 0.441406L443.986 1.13461L449.395 17.0438C449.395 17.0438 449.245 21.3561 444.947 22.6C440.649 23.8445 437.636 20.6257 437.636 20.6257L433.419 4.64908L430.431 5.87886C430.431 5.87886 422.223 27.9735 423.316 30.7295C424.881 37.8595 429.471 44.1096 429.988 54.8763C430.505 65.6424 423.005 90.6075 422.278 97.0753C421.552 103.544 427.242 108.683 432.853 108.828C438.464 108.973 443.92 104.205 444.084 99.0095C444.249 93.8136 443.69 68.7502 445.025 57.6871C446.362 46.6246 463.974 30.5799 463.675 20.4972ZM433.4 103.628C430.39 103.797 427.813 101.492 427.644 98.4799C427.476 95.4683 429.779 92.8901 432.79 92.7215C435.8 92.5529 438.376 94.858 438.545 97.8696C438.713 100.882 436.41 103.46 433.4 103.628Z" fill="#414347"/>
<path d="M470.309 83.0312C470.309 83.0312 465.897 88.0691 460.17 95.0334C471.932 103.39 488.215 105.227 498.604 93.8071C501.633 90.4809 507.734 81.8907 501.233 69.5093C494.733 57.1285 477.451 51.1756 483.087 43.2814C487.357 37.3024 498.144 42.697 502.367 46.9201C504.068 45.3722 509.47 40.1497 511.948 37.209C500.49 22.8856 475.935 21.4276 467.471 36.3901C453.473 61.1325 493.65 72.2856 485.968 83.9085C480.887 91.5948 470.309 83.0312 470.309 83.0312Z" fill="#6E788C"/>
</g>
<defs>
<clipPath id="clip0_1_7551">
<rect width="512" height="109" fill="white"/>
</clipPath>
</defs>
</svg>
