<svg width="256" height="256" viewBox="0 0 256 256" fill="none" xmlns="http://www.w3.org/2000/svg">
<g clip-path="url(#clip0_1_7557)">
<path d="M251.927 159.693C238.034 215.51 187.201 255.222 127.331 255.222C67.1895 255.222 16.7939 213.16 3.46994 157.112C19.4913 157.112 34.469 157.185 41.4225 157.185C44.7026 157.185 45.3397 157.242 45.5294 157.228C50.7615 156.971 57.3219 155.244 61.6864 144.631L78.3177 101.125L115.254 190.055C118.575 197.144 124.118 196.642 127.426 196.642H127.737C134.189 196.642 136.995 194.381 139.448 189.705L181.169 101.792L195.401 141.412L196.269 143.331C199.278 149.932 201.443 156.452 208.889 157.304C210.424 157.479 228.251 157.168 252.283 157.168C252.283 157.168 252.283 157.322 251.927 159.693Z" fill="#3DB5E6"/>
<path d="M256.003 126.817C256.003 127.481 256.003 129.152 255.99 129.152H255.963H217.604L195.225 66.6377C193.233 61.9886 190.237 55.0188 181.508 55.0188C176.168 55.0188 171.342 59.4294 168.604 66.7081L128.036 160.677L88.9851 67.2782C85.1627 58.9828 82.5197 55.0815 74.8749 55.0815C69.6835 55.0815 65.8747 56.9938 61.7271 66.8208L38.5489 130.08L0.040619 130.04C0.0134883 129.077 0 128.115 0 127.153C0 56.8322 57.0101 0 127.331 0C197.651 0 256.003 56.4967 256.003 126.817Z" fill="#D8292F"/>
</g>
<defs>
<clipPath id="clip0_1_7557">
<rect width="256" height="256" fill="white"/>
</clipPath>
</defs>
</svg>
