<svg width="512" height="106" viewBox="0 0 512 106" fill="none" xmlns="http://www.w3.org/2000/svg">
<g clip-path="url(#clip0_1_7561)">
<path d="M507.63 36.7635C511.645 40.0109 507.394 45.1478 503.851 42.5501C499.481 39.775 489.562 38.4761 488.322 44.6164C486.728 54.3 512.412 48.7499 511.999 64.4556C511.586 79.4535 489.857 79.8077 481.709 73.0764C479.76 71.4824 479.819 68.8842 480.882 67.2898C482.417 65.755 484.13 65.2235 486.137 66.8766C490.979 70.1831 503.438 72.6631 504.323 64.2788C503.556 55.5398 478.993 60.7949 480.823 44.0263C482.181 32.5713 499.481 30.5045 507.63 36.7635ZM468.894 39.0662V60.4407C468.894 82.5236 433.289 82.5236 433.289 60.4407V39.0662C433.289 33.7525 441.025 33.5161 441.025 39.0662V60.4407C441.025 72.0725 461.159 72.7813 461.159 60.4407V39.0662C461.159 33.8111 468.894 33.3978 468.894 39.0662ZM225.088 33.6934C235.421 34.2244 246.226 41.3689 246.226 55.363C246.226 69.3565 235.421 76.6193 225.088 76.6193C214.165 77.0917 202.828 69.8289 202.828 55.363C202.828 40.8374 214.165 33.6934 225.088 33.6934ZM277.109 35.1691C292.106 35.1691 295.176 55.2447 282.659 60.2634L290.512 69.8289C293.582 74.3757 287.441 78.7447 283.899 74.2575L274.983 61.5037H265.713V72.1907C265.713 77.3276 257.86 77.5049 257.86 72.3089V38.7711C257.86 36.7044 259.454 35.1691 261.403 35.1691H277.109ZM154.763 34.6381C156.476 34.6381 157.479 35.6419 158.483 36.7635L171.473 54.3L184.936 36.1138C186.884 33.6934 191.667 34.6381 191.667 38.7121V71.9548C191.667 74.5526 190.013 76.0287 188.124 76.0287C185.998 76.0287 184.345 74.5525 184.345 71.9548V50.1079L174.544 62.5075C172.418 65.1053 169.761 65.1053 167.812 62.5075L159.014 50.1079V71.9548C159.014 74.5526 156.889 76.0287 154.763 76.0287C152.874 76.0287 151.22 74.5525 151.22 71.9548V38.712C151.22 35.6419 153.818 34.6381 154.763 34.6381ZM319.918 34.6381C327.594 34.6381 334.502 39.775 334.502 49.6355C334.502 58.9645 327.594 64.1605 319.918 64.1605H310.057V71.9548C310.057 74.5525 308.404 76.0287 306.278 76.0287C304.33 76.0287 302.263 74.5525 302.263 71.9548V38.7121C302.263 36.7635 303.799 34.6381 306.278 34.6381H319.918ZM376.308 35.1691C378.375 35.1691 379.969 36.7044 379.969 38.8303V72.368C379.969 74.4343 378.375 76.0287 376.308 76.0287C374.183 76.0287 372.293 74.4343 372.293 72.368V59.4369H353.044V72.368C353.044 74.4343 351.509 76.0287 349.442 76.0287C346.786 76.0287 345.25 74.4343 345.25 72.368V38.8303C345.25 36.7044 346.786 35.1691 349.442 35.1691C351.509 35.1691 353.044 36.7044 353.044 38.8303V51.7023H372.293V38.8303C372.293 36.7044 374.183 35.1691 376.308 35.1691ZM417.406 35.1691C422.837 35.1691 422.719 42.8451 417.406 42.8451H400.4V51.7023H415.28C420.535 51.7023 420.535 59.4369 415.28 59.4369H400.4V68.2936H418.409C423.782 68.2936 424.195 76.0287 418.409 76.0287H396.208C394.141 76.0287 392.547 74.4343 392.547 72.368V38.8303C392.547 36.7044 394.141 35.1691 396.208 35.1691H417.406ZM224.439 41.3689C217.826 41.3689 210.622 46.0339 210.622 55.363C210.622 64.6329 217.826 69.3565 224.439 69.3565C231.229 69.3565 238.492 64.6329 238.492 55.363C238.492 46.0339 231.229 41.3689 224.439 41.3689ZM319.918 42.0777H310.057V56.7801H319.918C323.874 56.7801 327.003 53.2962 327.003 49.6355C327.003 45.5024 323.874 42.0777 319.918 42.0777ZM277.109 42.3136H265.713V54.7133H277.109C284.784 54.7133 285.257 42.3136 277.109 42.3136Z" fill="#3DB5E6"/>
<path d="M104.383 66.1652C98.6265 89.2924 77.5644 105.746 52.7579 105.746C27.8392 105.746 6.95837 88.3185 1.43774 65.0958C8.07601 65.0958 14.2818 65.1262 17.1629 65.1262C18.522 65.1262 18.7859 65.1498 18.8646 65.1441C21.0324 65.0374 23.7506 64.3219 25.559 59.9245L32.45 41.8984L47.7539 78.7455C49.1299 81.6828 51.4269 81.4747 52.7972 81.4747H52.9264C55.5997 81.4747 56.7622 80.5379 57.7787 78.6004L75.0652 42.1747L80.9621 58.591L81.3215 59.3858C82.5683 62.1208 83.4652 64.8224 86.5507 65.1754C87.1867 65.2482 94.573 65.1192 104.53 65.1192C104.53 65.1192 104.53 65.183 104.383 66.1652Z" fill="#3DB5E6"/>
<path d="M106.072 52.5452C106.072 52.8203 106.072 53.5125 106.066 53.5125H106.055H90.1615L80.8891 27.6105C80.0635 25.6842 78.8223 22.7964 75.2056 22.7964C72.9928 22.7964 70.9935 24.6238 69.859 27.6397L53.0499 66.5746L36.8699 27.8759C35.2861 24.4388 34.191 22.8223 31.0235 22.8223C28.8725 22.8223 27.2944 23.6147 25.5758 27.6864L15.9723 53.8971L0.01683 53.8804C0.00558869 53.4816 0 53.0829 0 52.6842C0 23.5477 23.6214 0 52.7579 0C81.8944 0 106.072 23.4087 106.072 52.5452Z" fill="#D8292F"/>
</g>
<defs>
<clipPath id="clip0_1_7561">
<rect width="512" height="106" fill="white"/>
</clipPath>
</defs>
</svg>
