<svg width="512" height="133" viewBox="0 0 512 133" fill="none" xmlns="http://www.w3.org/2000/svg">
<g clip-path="url(#clip0_1_7581)">
<path d="M170.631 1.84446H201.254L235.197 56.4477L269.14 1.84446H299.763V130.976H271.538V46.671L235.197 101.829H234.459L198.486 47.2255V130.976H170.631V1.84446ZM460.162 0C478.978 0 495.028 5.90245 508.126 16.4174L493.367 37.8166C481.93 29.8844 470.677 25.088 459.794 25.088C448.909 25.088 443.191 30.0682 443.191 36.3399V36.7105C443.191 41.8017 445.183 44.8341 451.598 47.6807L452.254 47.9648C452.59 48.1066 452.937 48.2481 453.296 48.3895L454.028 48.6724L454.792 48.9554C454.922 49.0026 455.053 49.0499 455.186 49.0972L455.997 49.3813L456.842 49.6667L457.72 49.9538L458.632 50.243L459.578 50.5347L460.559 50.8293L461.575 51.1273L462.627 51.429L463.716 51.7348L465.419 52.2024L467.207 52.6816L469.082 53.174L471.046 53.681C497.242 60.5071 512 69.9161 512 92.4213V92.7905C512 118.431 492.445 132.822 464.589 132.822C444.409 132.895 424.907 125.541 409.801 112.16L426.588 92.0521C438.21 101.645 450.385 107.733 465.144 107.733C467.281 107.733 469.262 107.577 471.072 107.275L471.743 107.155C479.365 105.698 483.775 101.557 483.775 95.5571V95.1879C483.775 95.044 483.773 94.9015 483.769 94.7604L483.753 94.341C483.52 90.0485 481.391 87.0216 474.33 83.9851L473.631 83.6911C473.512 83.6421 473.392 83.5931 473.27 83.5441L472.524 83.2496C472.27 83.1513 472.01 83.0529 471.745 82.9544L470.934 82.6582L470.089 82.3608L469.21 82.062C469.061 82.012 468.91 81.962 468.757 81.9119L467.826 81.6104L466.859 81.3067L465.855 81.0007L464.815 80.692L463.737 80.3805L462.621 80.0658L461.467 79.7477L460.273 79.426L459.039 79.1003L456.215 78.3711L454.688 77.9696L453.184 77.565C452.935 77.4973 452.687 77.4294 452.44 77.3613L450.971 76.9506L449.526 76.5347C449.287 76.4649 449.049 76.3948 448.812 76.3245L447.403 75.8992C427.382 69.7523 414.966 61.3446 414.966 39.2933V38.9226C414.966 15.4952 433.783 0 460.162 0ZM361.738 1.84446C392.545 1.84446 411.177 20.1078 411.177 46.4872V46.8549C411.177 76.7408 387.933 92.236 358.971 92.236H337.387V130.976H308.978V1.84446H361.738ZM359.339 27.4855H337.387V66.9627H359.893C374.098 66.9627 382.399 58.4774 382.399 47.4094V47.0402C382.399 34.3116 373.544 27.4855 359.339 27.4855Z" fill="black"/>
<path d="M0 130.819H129.241L64.3327 66.0235L0 1.57812V130.819Z" fill="url(#paint0_linear_1_7581)"/>
<path d="M129.241 130.82L64.3328 66.0244L129.241 1.57812V130.82Z" fill="url(#paint1_linear_1_7581)"/>
<path d="M93.9466 95.5247L64.3328 66.0244L129.241 1.57812L93.9466 95.5247Z" fill="url(#paint2_linear_1_7581)"/>
</g>
<defs>
<linearGradient id="paint0_linear_1_7581" x1="9783.49" y1="17180" x2="-2515.04" y2="1426.83" gradientUnits="userSpaceOnUse">
<stop offset="0.091" stop-color="#0B8FFF"/>
<stop offset="0.208" stop-color="#0D94F6"/>
<stop offset="0.396" stop-color="#11A3DE"/>
<stop offset="0.633" stop-color="#18BBB7"/>
<stop offset="0.871" stop-color="#21D789"/>
</linearGradient>
<linearGradient id="paint1_linear_1_7581" x1="5027.21" y1="11945.9" x2="-3788.7" y2="653.602" gradientUnits="userSpaceOnUse">
<stop offset="0.091" stop-color="#0B8FFF"/>
<stop offset="0.208" stop-color="#0D94F6"/>
<stop offset="0.396" stop-color="#11A3DE"/>
<stop offset="0.633" stop-color="#18BBB7"/>
<stop offset="0.871" stop-color="#21D789"/>
</linearGradient>
<linearGradient id="paint2_linear_1_7581" x1="2152.65" y1="9742.41" x2="6277.46" y2="-1350.08" gradientUnits="userSpaceOnUse">
<stop offset="0.123" stop-color="#21D789"/>
<stop offset="0.132" stop-color="#27D788"/>
<stop offset="0.216" stop-color="#59D87B"/>
<stop offset="0.303" stop-color="#85D970"/>
<stop offset="0.394" stop-color="#ABDA67"/>
<stop offset="0.487" stop-color="#CADB5F"/>
<stop offset="0.585" stop-color="#E1DB59"/>
<stop offset="0.688" stop-color="#F2DC55"/>
<stop offset="0.802" stop-color="#FCDC53"/>
<stop offset="0.946" stop-color="#FFDC52"/>
</linearGradient>
<clipPath id="clip0_1_7581">
<rect width="512" height="133" fill="white"/>
</clipPath>
</defs>
</svg>
