<svg width="256" height="256" viewBox="0 0 256 256" fill="none" xmlns="http://www.w3.org/2000/svg">
<g clip-path="url(#clip0_1_7588)">
<path d="M35.0875 28.5436C23.5261 37.9313 16.0174 51.5516 14.4195 66.7019L0 203.953L0.0750919 206.315L0.112711 207.109C0.656505 215.748 4.33419 223.78 10.3278 229.79C16.8468 236.326 25.7188 240.087 35.1179 240.079L169.75 239.969L171.158 239.949C184.876 239.498 197.61 234.348 207.515 225.391C218.788 215.197 225.357 201.095 226.135 186.183C226.913 171.272 221.847 156.557 211.698 145.236L112.608 34.7032L111.651 33.6649C102.147 23.7196 89.8204 17.6502 76.5664 16.2401C61.4821 14.6353 46.649 19.1559 35.0875 28.5436ZM71.2238 66.897C72.5818 67.0415 73.8451 67.6636 74.7898 68.6516L174.007 179.321C175.063 180.5 175.567 181.964 175.486 183.517C175.405 185.071 174.752 186.474 173.578 187.535C172.563 188.453 171.258 188.98 169.895 189.026L52.5542 189.124L64.8566 72.0577C65.0219 70.4907 65.7687 69.1359 66.9734 68.1578C68.1781 67.1796 69.6535 66.73 71.2238 66.897Z" fill="#70211D"/>
<path d="M220.736 1.17611e-05L35.2063 0.151837L33.6965 0.189621L32.8468 0.233295C24.9956 0.769596 17.5433 3.93438 11.6867 9.23076C4.67273 15.5738 0.574975 24.3706 0.0908622 33.6484C-0.393251 42.9263 2.76656 52.1051 9.08197 59.1498L175.068 244.304L176.106 245.406L176.706 246.012C182.352 251.518 189.677 254.969 197.514 255.802C206.9 256.801 216.153 253.981 223.346 248.14C230.54 242.299 235.224 233.803 236.218 224.376L256 36.2742L255.924 33.9012L255.887 33.1068C255.341 24.4322 251.648 16.3675 245.629 10.3324C239.083 3.76832 230.174 -0.00769077 220.736 1.17611e-05ZM203.453 50.9476L189.436 184.208L70.0773 51.0558L203.453 50.9476Z" fill="#ED7344"/>
</g>
<defs>
<clipPath id="clip0_1_7588">
<rect width="256" height="256" fill="white"/>
</clipPath>
</defs>
</svg>
