<svg width="256" height="256" viewBox="0 0 256 256" fill="none" xmlns="http://www.w3.org/2000/svg">
<g clip-path="url(#clip0_1_7592)">
<path d="M256 0H0V256H256V0Z" fill="black"/>
<path d="M68.8692 68.1814C61.4949 74.1521 56.7094 82.81 55.6968 92.4377L46.6232 178.706L46.5798 179.202L46.5701 179.342C46.5339 179.858 46.5159 180.376 46.5159 180.894C46.5159 186.859 48.897 192.487 53.031 196.621C57.1646 200.754 62.7924 203.133 68.7563 203.133L155.541 203.126L156.171 203.118C164.799 202.924 173.074 199.642 179.491 193.864C186.685 187.386 190.877 178.426 191.374 168.951C191.87 159.475 188.638 150.126 182.16 142.932L118.243 71.946L117.816 71.4835C111.899 65.2012 103.923 61.2471 95.3353 60.3439C85.7076 59.3313 76.2435 62.2108 68.8692 68.1814ZM91.9881 92.1684L92.2284 92.2009C93.0243 92.333 93.763 92.6992 94.3498 93.252L94.494 93.396L94.7039 93.6233L158.379 164.344C159.12 165.166 159.475 166.192 159.418 167.276C159.361 168.36 158.901 169.343 158.079 170.083L157.894 170.24C157.263 170.743 156.497 171.047 155.693 171.113L155.475 171.125L155.269 171.127L79.596 171.132L87.5213 95.785C87.637 94.6844 88.1619 93.7347 89.0056 93.0516C89.8493 92.3685 90.8875 92.0526 91.9881 92.1684Z" fill="#7A1818"/>
<path d="M186.244 52.8672L68.4072 52.8758L67.7492 52.8911L67.5646 52.8996C62.4311 53.1373 57.5351 55.146 53.7121 58.5882C49.2796 62.5793 46.69 68.1142 46.3841 73.9518C46.0782 79.7895 48.075 85.5647 52.0661 89.9973L157.534 207.131L157.986 207.61L158.115 207.742C161.727 211.398 166.495 213.692 171.612 214.23C177.543 214.854 183.389 213.076 187.933 209.397C192.476 205.719 195.432 200.371 196.056 194.439L208.377 77.2945L208.42 76.7986L208.43 76.6591C208.466 76.1423 208.484 75.6245 208.484 75.1067C208.484 69.1415 206.103 63.5133 201.969 59.38C197.835 55.2469 192.208 52.8672 186.244 52.8672ZM175.403 84.8677L166.524 169.293L90.5131 84.8737L175.403 84.8677Z" fill="#FF6A33"/>
</g>
<defs>
<clipPath id="clip0_1_7592">
<rect width="256" height="256" fill="white"/>
</clipPath>
</defs>
</svg>
