<svg width="256" height="256" viewBox="0 0 256 256" fill="none" xmlns="http://www.w3.org/2000/svg">
<g clip-path="url(#clip0_1_7598)">
<path d="M128.001 0C198.694 0 256.003 57.309 256.003 128.001C256.003 198.694 198.694 256.003 128.001 256.003C57.309 256.003 0 198.694 0 128.001C0 57.309 57.309 0 128.001 0Z" fill="#E95420"/>
<path d="M205.154 138.77C203.557 138.826 201.966 138.993 200.394 139.272L178.852 96.4387C187.226 89.5896 188.466 77.2484 181.619 68.8751C174.773 60.499 162.429 59.2591 154.056 66.1082C145.68 72.9545 144.44 85.2957 151.289 93.6689L151.297 93.6829C152.002 94.6386 152.849 95.4829 153.802 96.1879L132.26 139.021C129.301 138.269 126.202 138.269 123.243 139.021L101.952 96.4387C110.328 89.5896 111.565 77.2484 104.719 68.8751C97.8697 60.499 85.5285 59.2591 77.1525 66.1082C68.7792 72.9545 67.5392 85.2957 74.3855 93.6689C74.3911 93.6745 74.3939 93.6773 74.3967 93.6829C75.2521 94.6609 76.1716 95.5832 77.1525 96.4387L55.3596 139.272C53.7351 138.776 52.0493 138.525 50.3496 138.52C39.4908 138.45 30.6299 147.199 30.5622 158.058C30.4933 168.917 39.24 177.778 50.0988 177.846C60.9604 177.915 69.8185 169.168 69.8882 158.309C69.9021 152.505 67.3302 146.996 62.8747 143.279L84.6675 100.195C86.2363 100.499 87.8302 100.666 89.4268 100.696C90.9426 100.652 92.4501 100.485 93.9353 100.195L115.229 142.777C106.853 149.626 105.611 161.965 112.46 170.341C119.306 178.717 131.647 179.957 140.023 173.108C148.399 166.262 149.636 153.92 142.79 145.544C142.787 145.542 142.785 145.539 142.779 145.533C141.99 144.494 141.065 143.569 140.026 142.777L161.593 99.944C163.142 100.359 164.75 100.526 166.352 100.446C167.865 100.401 169.373 100.234 170.861 99.944L192.403 142.529C184.102 149.445 182.982 161.781 189.898 170.082C196.817 178.38 209.152 179.503 217.45 172.584C225.751 165.668 226.874 153.332 219.955 145.034C216.074 141.027 210.732 138.768 205.154 138.77Z" fill="white"/>
</g>
<defs>
<clipPath id="clip0_1_7598">
<rect width="256" height="256" fill="white"/>
</clipPath>
</defs>
</svg>
