<svg width="256" height="252" viewBox="0 0 256 252" fill="none" xmlns="http://www.w3.org/2000/svg">
<g clip-path="url(#clip0_1_7602)">
<path d="M235.648 194.212C221.73 193.865 210.943 195.257 201.896 199.084C199.286 200.127 195.11 200.128 194.762 203.433C196.154 204.826 196.328 207.088 197.546 209.001C199.635 212.48 203.287 217.178 206.593 219.615C210.246 222.398 213.901 225.181 217.727 227.617C224.513 231.793 232.169 234.228 238.78 238.404C242.609 240.838 246.434 243.972 250.262 246.581C252.176 247.972 253.393 250.235 255.83 251.104V250.583C254.611 249.016 254.263 246.755 253.046 245.015C251.308 243.275 249.567 241.709 247.827 239.969C242.781 233.185 236.518 227.269 229.733 222.398C224.166 218.57 211.986 213.351 209.725 206.913C209.725 206.913 209.55 206.74 209.377 206.566C213.204 206.218 217.727 204.826 221.382 203.782C227.297 202.215 232.69 202.564 238.78 200.998C241.563 200.302 244.347 199.432 247.131 198.562V196.997C244 193.865 241.738 189.69 238.432 186.732C229.559 179.075 219.815 171.595 209.725 165.332C204.331 161.853 197.371 159.59 191.63 156.633C189.544 155.588 186.063 155.067 184.846 153.327C181.713 149.5 179.973 144.455 177.712 139.931C172.668 130.361 167.795 119.749 163.445 109.659C160.315 102.873 158.401 96.0873 154.573 89.8245C136.653 60.2479 117.167 42.3281 87.2423 24.7555C80.8048 21.1023 73.1504 19.5361 64.9731 17.6227C60.6247 17.4481 56.274 17.101 51.9245 16.9264C49.1413 15.7083 46.3569 12.4033 43.9207 10.837C34.0059 4.5731 8.42942 -8.99607 1.12205 8.9237C-3.57564 20.2325 8.08127 31.3665 12.0825 37.1087C15.0415 41.11 18.8682 45.633 20.9562 50.1572C22.1743 53.1129 22.5214 56.2465 23.7394 59.378C26.5238 67.0313 29.1324 75.5579 32.7866 82.6918C34.7011 86.345 36.788 90.1727 39.2241 93.4777C40.6157 95.391 43.0508 96.262 43.5736 99.3934C41.1386 102.873 40.9639 108.092 39.5712 112.442C33.3084 132.102 35.7445 156.459 44.6171 170.899C47.4003 175.247 54.0124 184.818 62.885 181.164C70.7141 178.033 68.9743 168.116 71.2359 159.417C71.7587 157.328 71.4105 155.937 72.4539 154.545C72.4548 154.719 72.4539 154.894 72.4539 154.894C74.8901 159.765 77.3252 164.463 79.5867 169.334C84.9807 177.858 94.375 186.732 102.204 192.648C106.381 195.778 109.686 201.172 114.906 203.086V202.563H114.557C113.513 200.997 111.948 200.302 110.556 199.084C107.425 195.952 103.944 192.125 101.509 188.645C94.2025 178.901 87.7639 168.116 82.0229 156.98C79.2396 151.588 76.8035 145.672 74.5419 140.279C73.4974 138.19 73.4974 135.059 71.7576 134.016C69.1479 137.843 65.3212 141.149 63.4067 145.846C60.1029 153.327 59.7536 162.548 58.5355 172.117C57.8402 172.292 58.1873 172.117 57.8391 172.465C52.2727 171.072 50.3582 165.332 48.2702 160.46C43.0508 148.108 42.1809 128.274 46.705 114.008C47.9231 110.354 53.1425 98.8717 51.0545 95.3921C50.0111 92.086 46.5304 90.1727 44.6171 87.563C42.3555 84.2569 39.9194 80.0821 38.3542 76.4279C34.1782 66.6854 32.0903 55.8984 27.5672 46.1548C25.4792 41.6307 21.8261 36.9341 18.8682 32.7592C15.5633 28.0615 11.909 24.7555 9.29927 19.1879C8.43047 17.2745 7.21128 14.1431 8.60291 12.0551C8.95109 10.6635 9.64635 10.1418 11.0391 9.79358C13.3006 7.87913 19.7381 10.3153 21.9996 11.3587C28.437 13.9673 33.83 16.4046 39.2241 20.0578C41.6591 21.7976 44.2688 25.1036 47.4002 25.9735H51.0545C56.6221 27.1905 62.8849 26.3217 68.1043 27.8869C77.3262 30.8436 85.6759 35.1943 93.158 39.892C115.95 54.3321 134.739 74.8626 147.44 99.3934C149.528 103.394 150.397 107.049 152.311 111.224C155.966 119.749 160.489 128.448 164.142 136.799C167.795 144.975 171.274 153.327 176.494 160.113C179.105 163.765 189.542 165.68 194.24 167.594C197.72 169.159 203.114 170.552 206.245 172.465C212.16 176.117 218.076 180.294 223.643 184.296C226.427 186.383 235.125 190.733 235.648 194.212Z" fill="#00546B"/>
<path d="M58.1865 43.0234C55.2286 43.0234 53.1417 43.3727 51.0537 43.8945C51.0537 43.8945 51.0537 44.0691 51.0537 44.2426H51.4019C52.7947 47.0259 55.2286 48.9403 56.9684 51.3754C58.3611 54.1586 59.5781 56.943 60.9708 59.7273C61.1444 59.5527 61.3179 59.3791 61.3179 59.3791C63.7552 57.6382 64.9722 54.855 64.9722 50.6801C63.9276 49.462 63.7541 48.244 62.8842 47.0259C61.8407 45.285 59.5781 44.4162 58.1865 43.0234Z" fill="#00546B"/>
</g>
<defs>
<clipPath id="clip0_1_7602">
<rect width="256" height="252" fill="white"/>
</clipPath>
</defs>
</svg>
