<svg width="512" height="349" viewBox="0 0 512 349" fill="none" xmlns="http://www.w3.org/2000/svg">
<g clip-path="url(#clip0_1_7605)">
<path d="M152.309 230.297L167.87 280.784C171.366 292.247 172.824 300.249 172.24 304.81C180.751 282.018 186.696 257.18 190.079 230.297H208.789C200.744 274.063 190.133 305.868 176.962 325.708C166.7 340.996 155.458 348.64 143.216 348.64C139.952 348.64 135.928 347.654 131.153 345.696V335.145C133.486 335.488 136.223 335.671 139.371 335.671C145.082 335.671 149.685 334.088 153.187 330.929C157.38 327.08 159.479 322.754 159.479 317.96C159.479 314.685 157.842 307.966 154.583 297.802L132.902 230.297H152.309ZM33.2241 199.266L61.7249 286.223H61.8998L90.5755 199.266H114.003C119.134 242.39 122.163 281.848 123.094 317.612H103.341C102.646 284.179 100.721 252.741 97.5731 223.292H97.3991L67.3211 317.612H52.2799L22.3841 223.292H22.208C19.9897 251.574 18.5942 283.012 18.0122 317.612H0C1.16398 275.532 4.07698 236.087 8.73901 199.266H33.2241Z" fill="#00758F"/>
<path d="M352.498 197.508C383.155 197.508 398.484 217.095 398.484 256.247C398.484 277.523 393.874 293.594 384.663 304.452C383.002 306.436 381.168 308.149 379.236 309.738L400.931 320.464L400.91 320.463L393.207 333.765L364.954 317.28C360.271 318.667 355.118 319.36 349.503 319.36C334.45 319.36 323.206 314.973 315.772 306.211C307.611 296.517 303.534 281.256 303.534 260.453C303.534 239.297 308.136 223.287 317.35 212.416C325.742 202.472 337.461 197.508 352.498 197.508ZM258.618 197.681C269.575 197.681 279.539 200.613 288.512 206.456L283.954 216.612C276.275 213.348 268.703 211.71 261.238 211.71C255.18 211.71 250.512 213.168 247.258 216.101C243.986 219.01 241.962 222.752 241.962 227.314C241.962 234.323 246.956 240.402 256.177 245.539C258.657 246.887 261.888 248.686 265.208 250.55L265.896 250.936C266.011 251.001 266.126 251.065 266.241 251.13L266.93 251.518C267.045 251.582 267.16 251.647 267.274 251.712L267.962 252.099C274.943 256.035 281.51 259.791 281.51 259.791C290.731 266.336 295.326 273.313 295.326 284.806C295.326 294.843 291.648 303.083 284.317 309.529C276.979 315.948 267.122 319.165 254.778 319.165C243.233 319.165 232.044 315.462 221.206 308.115L226.276 297.95C235.603 302.624 244.043 304.959 251.622 304.959C258.73 304.959 264.294 303.372 268.319 300.238C272.336 297.082 274.743 292.679 274.743 287.095C274.743 280.068 269.855 274.062 260.888 269.023C258.559 267.742 255.577 266.069 252.493 264.325L251.806 263.937C250.544 263.223 249.273 262.502 248.028 261.794L247.352 261.41C241.298 257.966 236.063 254.957 236.063 254.957C227.099 248.4 222.604 241.365 222.604 229.773C222.604 220.187 225.956 212.438 232.65 206.542C239.36 200.634 248.017 197.681 258.618 197.681ZM434.513 199.264V303.052H471.751V317.61H415.627V199.264H434.513ZM492.444 303.098V305.557H488.349V317.598H485.219V305.557H480.966V303.098H492.444ZM500.004 303.098L503.934 312.981L507.545 303.098H511.982V317.598H509.032V306.562L504.922 317.598H502.795L498.678 306.562H498.52V317.598H495.729V303.098H500.004ZM350.569 212.062C332.503 212.062 323.465 226.972 323.465 256.772C323.465 273.842 325.86 286.221 330.641 293.935C335.069 301.076 342.004 304.638 351.447 304.638C369.513 304.638 378.55 289.613 378.55 259.574C378.55 242.743 376.155 230.471 371.381 222.753C366.947 215.628 360.015 212.062 350.569 212.062Z" fill="#F29111"/>
<path d="M303.218 7.33322C309.211 -7.39283 330.166 3.75864 338.299 8.90359C340.291 10.1898 342.577 12.909 344.862 13.9141C348.427 14.0547 351.989 14.3327 355.56 14.4824C362.258 16.0558 368.532 17.342 373.809 20.3484C398.338 34.7933 414.305 49.5133 429.001 73.8265C432.139 78.9776 433.709 84.5502 436.274 90.1229C439.833 98.43 443.834 107.15 447.966 115.005C449.815 118.729 451.247 122.87 453.816 126.015C454.819 127.453 457.668 127.877 459.371 128.736C464.079 131.173 469.783 133.023 474.21 135.883C482.48 141.039 490.475 147.183 497.743 153.472C500.452 155.901 502.298 159.338 504.879 161.906V163.202C502.588 163.905 500.305 164.625 498.02 165.201C493.029 166.484 488.608 166.194 483.766 167.477C480.774 168.345 477.059 169.49 473.921 169.781C474.061 169.922 474.21 170.073 474.21 170.073C476.057 175.348 486.045 179.638 490.613 182.792C496.161 186.797 501.302 191.654 505.44 197.23C506.869 198.653 508.298 199.948 509.721 201.367C510.714 202.805 510.994 204.665 512 205.948V206.381C510.886 205.988 510.085 205.238 509.326 204.454L508.873 203.981C508.42 203.51 507.963 203.049 507.442 202.668C504.294 200.518 501.168 197.946 498.02 195.947C492.608 192.513 486.331 190.52 480.774 187.073C477.632 185.072 474.637 182.793 471.642 180.504C468.927 178.496 465.937 174.642 464.231 171.782C463.226 170.202 463.088 168.345 461.94 167.203C462.145 165.293 463.895 164.726 465.659 164.26L466.065 164.153C466.674 163.995 467.27 163.837 467.79 163.628C475.204 160.48 484.043 159.338 495.457 159.624C495.028 156.758 487.895 153.187 485.618 151.471C481.048 148.177 476.209 144.74 471.361 141.742C468.792 140.172 464.365 139.026 461.519 137.743C457.668 136.169 449.108 134.596 446.975 131.598C443.35 126.872 440.746 121.235 438.218 115.541L437.53 113.987C437.3 113.469 437.071 112.951 436.841 112.434C433.852 105.577 430.14 98.4279 427.145 91.407C425.579 87.9821 424.86 84.9758 423.144 81.6915C412.739 61.5333 397.336 44.6564 378.66 32.787C372.523 28.9252 365.679 25.3506 358.126 22.9217C353.845 21.6294 348.707 22.3443 344.146 21.3514H341.145C338.582 20.6304 336.443 17.9143 334.444 16.4814C330.029 13.4842 325.607 11.4709 320.327 9.33224C318.477 8.47373 313.194 6.47566 311.35 8.04905C310.208 8.33624 309.629 8.76706 309.348 9.91275C308.212 11.6237 309.211 14.1992 309.918 15.7757C312.06 20.3462 315.052 23.0623 317.767 26.9241C320.184 30.349 323.185 34.2107 324.898 37.935C328.594 45.9396 330.315 54.8089 333.74 62.8135C335.011 65.8228 337.019 69.2477 338.868 71.9638C340.435 74.1177 343.284 75.6759 344.146 78.4041C345.864 81.2638 341.574 90.7013 340.581 93.6984C336.866 105.425 337.586 121.726 341.864 131.891C341.94 132.069 342.016 132.248 342.092 132.427L342.32 132.97C343.882 136.693 345.554 140.702 349.707 141.743C349.993 141.459 349.707 141.608 350.274 141.459C351.279 133.591 351.562 126.014 354.274 119.858C355.841 116.009 358.97 113.288 361.115 110.146C362.544 111.002 362.544 113.583 363.397 115.291C365.253 119.721 367.246 124.578 369.534 129.021C374.23 138.171 379.513 147.042 385.501 155.046C387.506 157.905 390.352 161.052 392.917 163.627C394.06 164.624 395.34 165.2 396.199 166.483H396.479V166.915C392.201 165.338 389.489 160.912 386.077 158.328C379.653 153.471 371.96 146.177 367.532 139.177C365.68 135.16 363.678 131.309 361.682 127.311V127.022C360.829 128.164 361.115 129.298 360.688 131.026C358.836 138.171 360.262 146.322 353.845 148.892C346.571 151.902 341.145 144.035 338.868 140.46C331.592 128.594 329.599 108.576 334.73 92.4174C335.87 88.8397 336.025 84.5502 338.015 81.6936C337.586 79.112 335.596 78.4062 334.444 76.8237C332.448 74.1198 330.739 70.9699 329.176 67.9666C326.174 62.1007 324.038 55.092 321.759 48.8014C320.757 46.232 320.47 43.6534 319.471 41.2215C317.767 37.5094 314.626 33.7851 312.203 30.5008C308.922 25.7805 299.366 16.6332 303.218 7.33322ZM349.99 35.3481C350.371 35.73 350.831 36.064 351.307 36.3925L351.881 36.7867C352.646 37.3161 353.387 37.8745 353.842 38.6355C354.561 39.6406 354.695 40.6336 355.557 41.6418C355.557 45.0789 354.561 47.3642 352.55 48.7879C352.55 48.7879 352.413 48.9377 352.272 49.0782C351.133 46.7868 350.133 44.5077 348.985 42.2193C347.571 40.2212 345.572 38.6355 344.42 36.3533H344.143V36.0661C345.864 35.6414 347.571 35.3481 349.99 35.3481Z" fill="#00758F"/>
</g>
<defs>
<clipPath id="clip0_1_7605">
<rect width="512" height="349" fill="white"/>
</clipPath>
</defs>
</svg>
