<svg width="256" height="312" viewBox="0 0 256 312" fill="none" xmlns="http://www.w3.org/2000/svg">
<g clip-path="url(#clip0_1_7610)">
<path d="M181.252 154.624C181.425 153.585 181.52 152.534 181.535 151.481V249.677L130.082 202.625L104.196 179.019L88.6145 164.695L81.6867 158.371L79.135 156.042L78.9501 155.881C78.3215 155.376 77.7174 154.846 77.1381 154.365C76.5587 153.884 76.0533 153.465 75.363 153.675C74.8708 153.855 74.504 154.273 74.3892 154.784V62.332L74.9192 62.8128L85.4834 72.3662C91.0429 77.297 96.6517 82.2278 102.199 87.1585C110.088 94.226 117.953 101.335 125.793 108.484C131.997 114.122 138.194 119.767 144.382 125.421C151.778 132.164 159.075 138.981 166.472 145.675C169.8 148.682 173.153 151.629 176.518 154.587C177.233 155.216 177.936 155.82 178.663 156.461C179.163 156.824 179.813 156.908 180.389 156.683C180.73 156.493 180.98 156.173 181.079 155.795C181.178 155.327 181.178 155.006 181.252 154.624Z" fill="#4C9717"/>
<path d="M74.2782 155.325C74.1385 156.445 74.0972 157.575 74.1549 158.702C74.1549 190.136 74.1549 221.57 74.3891 252.991V264.184C74.1154 269.586 71.4665 274.591 67.1532 277.855C58.7585 284.869 50.9309 292.536 42.8321 299.908C39.4422 302.989 36.0769 306.071 32.5884 309.079C29.0999 312.087 20.1258 312.457 15.1581 308.302C11.3781 305.022 7.85848 301.453 4.63083 297.627C1.78275 294.777 0.136955 290.943 0.0328719 286.915C0.0328719 286.028 -0.0410899 285.054 0.0328719 283.981C0.0328719 282.132 0.0328719 280.283 0.0945067 278.422C0.156142 273.121 0.0945067 267.808 0.0945067 262.508V89.6343C0.0838118 88.3131 0.241216 86.9958 0.562931 85.7143C0.889977 84.5996 1.30209 83.5116 1.79563 82.46C2.48712 80.915 3.32072 79.4376 4.28568 78.0469L24.0088 58.3238L36.57 45.7749C37.2383 45.0995 38.0026 44.5263 38.8382 44.0738C40.0557 43.389 41.4041 42.9689 42.7951 42.8411C46.9205 42.0812 51.1813 42.8667 54.7646 45.0477C55.6836 45.6085 56.5463 46.2566 57.3409 46.983L74.3891 62.2931V154.745C74.3385 154.936 74.3014 155.129 74.2782 155.325Z" fill="#5FBC21"/>
<path d="M253.401 230.778L217.172 264.061C217.03 264.168 216.882 264.267 216.729 264.357L216.593 264.456L216.346 264.604C209.776 268.606 201.35 267.777 195.687 262.57L193.505 260.659L181.486 249.676V46.4532C181.683 44.7398 181.979 43.0263 182.312 41.3498C183.175 36.9738 187.021 34.8042 189.954 32.0676C196.328 26.1507 202.898 20.4556 209.394 14.662C213.869 10.668 218.331 6.66177 222.843 2.69248C226.775 -0.771395 234.393 -0.598817 238.091 1.54607C239.029 2.09315 239.891 2.76034 240.655 3.53072L244.822 7.54931L248.187 10.7666L251.256 13.7374C252.089 14.5051 252.825 15.3701 253.451 16.3138C254.906 18.709 255.634 21.4756 255.546 24.277C255.485 42.3483 255.62 60.4197 255.657 78.5156C255.731 109.21 255.797 139.904 255.854 170.598C255.854 186.327 255.883 202.052 255.941 217.773C255.941 218.501 255.941 219.216 255.941 219.931C256.126 224.615 256.027 227.709 253.401 230.778Z" fill="#5FBC21"/>
</g>
<defs>
<clipPath id="clip0_1_7610">
<rect width="256" height="312" fill="white"/>
</clipPath>
</defs>
</svg>
