<svg width="256" height="206" viewBox="0 0 256 206" fill="none" xmlns="http://www.w3.org/2000/svg">
<g clip-path="url(#clip0_1_7622)">
<path d="M77.1258 77.1263C91.2228 77.1263 102.65 88.5533 102.65 102.649C102.65 109.692 99.7968 116.067 95.1858 120.685L120.148 155.558C122.674 154.721 125.367 154.252 128.174 154.252C131.006 154.252 133.722 154.732 136.268 155.584L151.298 133.471C153.237 130.622 157.12 129.882 159.969 131.819C162.821 133.757 163.562 137.64 161.623 140.49L146.774 162.336C151.056 166.9 153.698 173.023 153.698 179.775C153.698 193.872 142.27 205.299 128.174 205.299C114.077 205.299 102.65 193.872 102.65 179.775C102.65 173.001 105.308 166.86 109.615 162.29L84.4238 127.1C82.1107 127.791 79.6638 128.173 77.1258 128.173C74.1448 128.173 71.2947 127.635 68.6357 126.696L45.1888 163.506C48.8468 167.923 51.0478 173.591 51.0478 179.775C51.0478 193.872 39.6198 205.299 25.5238 205.299C11.4278 205.299 -0.000244141 193.872 -0.000244141 179.775C-0.000244141 165.679 11.4278 154.252 25.5238 154.252C28.9088 154.252 32.1328 154.925 35.0888 156.122L58.2408 119.776C54.1288 115.246 51.6028 109.25 51.6028 102.649C51.6028 88.5533 63.0298 77.1263 77.1258 77.1263ZM230.477 0C244.573 0 256 11.427 256 25.524C256 39.62 244.573 51.047 230.477 51.047C227.372 51.047 224.41 50.465 221.658 49.45L198.3 86.118C202.096 90.573 204.398 96.339 204.398 102.649C204.398 116.746 192.971 128.174 178.874 128.174C164.778 128.174 153.351 116.746 153.351 102.649C153.351 95.917 155.977 89.811 160.238 85.25L135.008 50.005C132.728 50.673 130.323 51.047 127.827 51.047C125.292 51.047 122.848 50.665 120.537 49.977L104.704 73.271C102.764 76.122 98.8827 76.86 96.0317 74.924C93.1797 72.986 92.4397 69.104 94.3777 66.252L109.789 43.581C105.164 38.961 102.303 32.577 102.303 25.524C102.303 11.427 113.731 0 127.827 0C141.923 0 153.351 11.427 153.351 25.524C153.351 32.607 150.462 39.013 145.802 43.638L170.739 78.474C173.296 77.612 176.027 77.126 178.874 77.126C182.136 77.126 185.244 77.761 188.111 78.876L211.354 42.389C207.382 37.89 204.953 31.997 204.953 25.524C204.953 11.427 216.38 0 230.477 0Z" fill="#546FFF"/>
</g>
<defs>
<clipPath id="clip0_1_7622">
<rect width="256" height="206" fill="white"/>
</clipPath>
</defs>
</svg>
