<svg width="256" height="256" viewBox="0 0 256 256" fill="none" xmlns="http://www.w3.org/2000/svg">
<g clip-path="url(#clip0_1_7625)">
<path d="M230.449 0C216.333 0 204.893 11.4431 204.893 25.5542C204.893 30.5161 206.331 35.1318 208.778 39.0516L192.508 55.322C172.068 36.8242 144.964 25.5542 115.225 25.5542C51.5909 25.5542 0 77.1451 0 140.779C0 204.416 51.5909 256.002 115.225 256.002C178.86 256.002 230.449 204.416 230.449 140.779C230.449 111.041 219.178 83.9358 200.68 63.4938L216.952 47.2235C220.872 49.6695 225.489 51.1084 230.451 51.1084C244.56 51.1084 256 39.667 256 25.5559C256 11.4448 244.56 0 230.449 0Z" fill="#113B6A"/>
<path d="M61.5742 160.176C61.3958 160.508 60.95 160.673 60.2349 160.673H51.8165C50.6923 160.673 50.1328 160.136 50.1328 159.066C50.1328 156.82 50.1375 154.586 50.1484 152.364L50.1695 149.039C50.1958 145.724 50.2063 142.38 50.2063 139.012C50.2063 136.869 49.8356 135.351 49.096 134.459C48.3565 133.568 47.1676 133.12 45.5381 133.12C44.3142 133.12 42.9855 133.414 41.5588 134C40.1304 134.587 38.9572 135.035 38.0376 135.341V159.068C38.0376 159.475 37.9467 159.844 37.7683 160.178C37.59 160.51 37.1442 160.674 36.4291 160.674H28.0876C27.425 160.674 26.9774 160.535 26.7484 160.253C26.5176 159.975 26.4039 159.577 26.4039 159.068V124.623C26.4039 124.114 26.5176 123.705 26.7484 123.399C26.9774 123.093 27.425 122.939 28.0876 122.939H36.4291C37.1424 122.939 37.59 123.121 37.7683 123.476C37.9484 123.833 38.0376 124.216 38.0376 124.623V126.461C38.0702 126.461 38.099 126.467 38.1213 126.478L38.1495 126.499C38.1775 126.525 38.2142 126.536 38.2649 126.536C39.9503 125.261 41.9137 124.228 44.1586 123.438C46.4018 122.647 48.4439 122.251 50.2814 122.251C52.9862 122.251 55.1174 122.698 56.6717 123.59C58.2295 124.485 59.3887 125.656 60.1562 127.111C60.922 128.566 61.3923 130.186 61.5707 131.973C61.7507 133.758 61.8403 135.543 61.8403 137.329V159.068C61.8452 159.475 61.7542 159.844 61.5742 160.176ZM91.0867 156.08C90.0656 156.998 88.9676 157.79 87.7962 158.452C86.6213 159.115 85.4237 159.664 84.1981 160.098C82.9725 160.531 81.7731 160.835 80.5999 161.015C79.425 161.192 78.355 161.283 77.3864 161.283C75.1398 161.283 73.3162 160.963 71.9123 160.325C70.5083 159.688 69.4244 158.858 68.6603 157.837C67.8945 156.818 67.37 155.63 67.092 154.277C66.856 153.152 66.7207 151.982 66.6822 150.764L66.6707 150.029C66.6182 147.682 66.9382 145.694 67.6288 144.06C68.3176 142.427 69.2985 141.112 70.5748 140.117C71.8493 139.124 73.4071 138.407 75.2447 137.974C77.0805 137.54 79.1226 137.323 81.3675 137.323H90.1705V136.099C90.1705 135.283 90.0779 134.594 89.903 134.033C89.7212 133.472 89.3925 133.012 88.9082 132.655C88.4222 132.298 87.7473 132.031 86.8801 131.851C86.1198 131.695 85.1466 131.606 83.9583 131.586L83.4358 131.582C83.098 131.582 82.7099 131.592 82.2721 131.611L78.6907 131.814C77.7711 131.865 76.8514 131.94 75.9335 132.043C75.2451 132.121 74.599 132.183 73.9966 132.231L72.7491 132.327C72.0431 132.37 71.5609 132.353 71.3038 132.274C70.9717 132.171 70.7042 131.735 70.4996 130.971L69.6586 126.992C69.5555 126.33 69.6464 125.782 69.9261 125.347C70.2059 124.915 70.9332 124.467 72.1081 124.008C72.9753 123.7 73.9824 123.434 75.131 123.203C76.2797 122.974 77.4529 122.782 78.6523 122.63C79.8534 122.476 81.0388 122.362 82.2137 122.286C83.3851 122.209 84.4061 122.172 85.2751 122.172C88.8453 122.172 91.7161 122.504 93.8858 123.167C96.0538 123.829 97.7113 124.773 98.8599 125.997C100.009 127.221 100.76 128.73 101.119 130.515C101.475 132.3 101.656 134.341 101.656 136.638V148.73C101.656 149.548 101.692 150.184 101.771 150.644C101.846 151.104 101.986 151.448 102.191 151.677C102.393 151.908 102.673 152.076 103.03 152.174C103.317 152.258 103.684 152.324 104.133 152.372L104.484 152.405C105.149 152.457 105.581 152.573 105.785 152.749C105.99 152.929 106.093 153.247 106.093 153.706V158.606C106.093 159.553 105.454 160.193 104.178 160.525L103.873 160.596C102.444 160.952 100.86 161.133 99.1257 161.133C97.2392 161.133 95.5782 160.811 94.1498 160.176C92.7231 159.538 91.7511 158.199 91.2423 156.157L91.0867 156.08ZM89.9397 144.752H83.0529C81.6227 144.752 80.5003 145.084 79.6838 145.747C78.8656 146.41 78.4582 147.637 78.4582 149.422C78.4582 150.597 78.7012 151.412 79.1855 151.87C79.6698 152.328 80.5772 152.56 81.9042 152.56C83.0774 152.56 84.4411 152.281 86.0007 151.718C87.5567 151.16 88.8715 150.546 89.9415 149.882L89.9397 144.752ZM140.233 148.765C140.233 151.158 139.761 153.157 138.817 154.758C137.871 156.363 136.611 157.648 135.028 158.615C133.446 159.582 131.645 160.281 129.633 160.715C127.617 161.145 125.512 161.362 123.318 161.362C122.4 161.362 121.405 161.325 120.333 161.25C119.262 161.173 118.178 161.059 117.081 160.909C115.983 160.757 114.936 160.58 113.943 160.376C112.948 160.174 112.067 159.947 111.301 159.692C110.025 159.236 109.209 158.769 108.854 158.286C108.535 157.86 108.46 157.223 108.626 156.376L109.541 152.405C109.695 151.693 109.924 151.258 110.231 151.106C110.499 150.971 110.981 150.954 111.679 151.055L111.992 151.106C113.777 151.412 115.714 151.655 117.807 151.833C119.9 152.013 121.61 152.1 122.937 152.1C124.874 152.1 126.252 151.884 127.07 151.448C127.886 151.013 128.294 150.286 128.294 149.261C128.294 148.135 127.988 147.382 127.378 146.997C126.764 146.614 125.641 146.32 124.008 146.116C121.916 145.808 119.965 145.448 118.151 145.042C116.34 144.633 114.746 144.018 113.37 143.198C111.992 142.38 110.908 141.28 110.116 139.899C109.324 138.517 108.931 136.701 108.931 134.451C108.931 132.405 109.322 130.615 110.109 129.08C110.892 127.546 111.971 126.267 113.34 125.246C114.707 124.221 116.345 123.455 118.248 122.941C120.148 122.431 122.223 122.175 124.468 122.175C125.336 122.175 126.294 122.214 127.341 122.291C128.386 122.368 129.446 122.473 130.516 122.598C131.588 122.73 132.621 122.896 133.616 123.1C134.611 123.308 135.516 123.564 136.333 123.873C137.354 124.231 138.107 124.606 138.59 124.992C139.074 125.378 139.191 126.059 138.934 127.038L138.093 130.973C137.891 131.69 137.674 132.124 137.443 132.279C137.239 132.414 136.783 132.45 136.075 132.385L133.718 132.105C133.473 132.075 133.222 132.044 132.967 132.012C131.944 131.884 130.939 131.779 129.944 131.704L127.812 131.554C127.587 131.54 127.367 131.526 127.15 131.513L126.17 131.465C126.017 131.459 125.869 131.454 125.726 131.45L124.93 131.438C122.991 131.388 121.778 131.604 121.293 132.087C120.809 132.568 120.566 133.218 120.566 134.033C120.566 135 121.014 135.622 121.912 135.902C122.809 136.183 123.949 136.449 125.332 136.703C127.329 136.958 129.224 137.276 131.018 137.657C132.81 138.04 134.385 138.663 135.742 139.528C137.099 140.393 138.186 141.551 139.008 143.002C139.824 144.451 140.233 146.371 140.233 148.765ZM201.739 160.176C201.559 160.508 201.138 160.673 200.477 160.673H192.059C191.394 160.673 190.947 160.533 190.718 160.251C190.489 159.973 190.373 159.575 190.373 159.066V138.935C190.373 136.587 190.017 135.033 189.301 134.265C188.588 133.5 187.516 133.118 186.088 133.118C185.17 133.118 184.046 133.361 182.719 133.846C181.392 134.328 180.245 134.828 179.275 135.339V159.066C179.275 159.473 179.185 159.842 179.007 160.176C178.829 160.51 178.383 160.673 177.668 160.673H169.249C168.634 160.673 168.216 160.533 167.985 160.251C167.756 159.973 167.641 159.575 167.641 159.066V138.704C167.641 136.561 167.296 135.096 166.602 134.304C165.906 133.512 164.866 133.117 163.48 133.117C162.553 133.117 161.436 133.346 160.126 133.806C158.813 134.265 157.621 134.776 156.542 135.337V159.064C156.542 159.472 156.439 159.841 156.236 160.174C156.035 160.507 155.579 160.671 154.869 160.671H146.507C145.895 160.671 145.479 160.531 145.249 160.25C145.02 159.972 144.91 159.573 144.91 159.064V124.62C144.91 124.111 145.02 123.702 145.249 123.396C145.479 123.09 145.895 122.936 146.507 122.936H154.869C155.579 122.936 156.035 123.118 156.236 123.473C156.439 123.829 156.542 124.212 156.542 124.62V126.38L156.696 126.457C158.329 125.132 160.114 124.099 162.051 123.359C163.99 122.619 165.955 122.249 167.947 122.249C170.242 122.249 172.257 122.668 173.993 123.511C175.725 124.352 177.003 125.669 177.818 127.454C179.605 125.975 181.633 124.737 183.902 123.742C186.172 122.747 188.457 122.249 190.753 122.249C193.457 122.249 195.564 122.696 197.068 123.588C198.571 124.483 199.695 125.644 200.435 127.071C201.175 128.499 201.622 130.108 201.776 131.893C201.928 133.678 202.005 135.465 202.005 137.25V159.066C202.009 159.475 201.919 159.844 201.739 160.176Z" fill="white"/>
</g>
<defs>
<clipPath id="clip0_1_7625">
<rect width="256" height="256" fill="white"/>
</clipPath>
</defs>
</svg>
