<svg width="512" height="125" viewBox="0 0 512 125" fill="none" xmlns="http://www.w3.org/2000/svg">
<g clip-path="url(#clip0_1_7639)">
<path d="M0 97.5935H51.4806L81.0026 124.92V97.5935H120.406V0H0V97.5935Z" fill="#27AAE1"/>
<path d="M130.531 97.5935H250.937V0H130.531V97.5935Z" fill="#34A574"/>
<path d="M261.063 97.5935H381.469V0H261.063V97.5935Z" fill="#375C93"/>
<path d="M391.594 0V97.5935H512V0L391.594 0Z" fill="#8DC63F"/>
<path d="M451.126 21.8359C464.179 21.8359 477.476 23.9098 484.43 26.7156V38.9148C476.5 35.499 462.715 33.0592 451.248 33.0592C438.561 33.0592 433.071 33.9131 431.485 35.499C430.875 36.109 430.509 36.8409 430.509 37.8169C430.509 38.9148 430.753 39.6468 431.363 40.2567C432.949 41.8426 438.805 42.3306 452.468 42.5746C472.475 43.0625 481.136 44.7704 485.528 49.0401C487.724 51.236 488.944 54.6518 488.944 58.4335C488.944 62.4592 488.09 66.363 485.162 69.2908C481.258 73.1945 472.719 76.2443 452.468 76.2443C437.463 76.2443 423.068 73.9265 415.016 70.5107V58.1895C422.824 61.7273 439.537 64.8991 452.468 64.8991C463.691 64.8991 471.621 64.5331 473.817 62.3372C474.549 61.4833 474.671 60.7514 474.671 59.8974C474.671 58.9215 474.427 58.3115 473.817 57.7016C473.743 57.6284 473.668 57.5565 473.586 57.4859L473.502 57.4158C472.181 56.3473 469.2 55.5887 452.59 55.1397C433.437 54.6518 424.044 52.6999 419.652 48.3082C417.7 46.2343 416.48 42.9405 416.48 39.1588C416.48 35.1331 417.212 31.5953 420.506 28.3015C424.776 24.0318 433.437 21.8359 451.126 21.8359ZM199.701 22.5679L237.274 75.1464H220.073L212.998 65.0211H166.519L159.443 75.2684H142.975L180.548 22.5679H199.701ZM41.9652 22.8119L85.3943 63.3132V22.8119H99.7894V75.1464H77.9528L33.7918 33.9131V75.1464H19.3967V22.8119H41.9652ZM361.34 22.8119V34.6451H328.158V75.1464H313.275V34.6451H279.971V22.8119H361.34ZM189.697 31.8393L174.082 54.1638H205.312L189.697 31.8393Z" fill="white"/>
</g>
<defs>
<clipPath id="clip0_1_7639">
<rect width="512" height="125" fill="white"/>
</clipPath>
</defs>
</svg>
