<svg width="256" height="256" viewBox="0 0 256 256" fill="none" xmlns="http://www.w3.org/2000/svg">
<g clip-path="url(#clip0_1_7646)">
<path d="M256 223.693C255.984 224.78 255.952 225.866 255.84 226.953C255.568 229.589 254.976 232.194 254.064 234.67C250.848 243.426 243.76 250.505 234.992 253.716C231.728 254.915 228.304 255.506 224.832 255.634C160.56 256.449 96.272 255.65 32 255.65C30.912 255.634 29.824 255.602 28.736 255.49C26.096 255.218 23.488 254.627 21.008 253.716C16.16 251.943 11.776 248.987 8.32 245.168C5.36 241.94 3.088 238.09 1.68 233.935C0.56 230.628 0.048 227.193 0 223.693V0L128 127.825L256 0C256 74.5698 256 149.124 256 223.693ZM12 223.614C12.032 225.994 12.384 228.311 13.216 230.548C15.216 236.029 19.648 240.454 25.136 242.452C27.168 243.203 29.312 243.57 31.472 243.666C95.824 244.465 160.176 244.465 224.528 243.666C226.688 243.57 228.832 243.203 230.864 242.452C236.352 240.454 240.784 236.029 242.784 230.548C243.616 228.311 243.968 225.994 244 223.614V28.9363L136.48 136.293L135.712 137.012C134.864 137.651 134.032 138.243 133.072 138.69C129.888 140.176 126.112 140.176 122.928 138.69C121.984 138.243 121.088 137.683 120.288 137.012C120.016 136.789 119.776 136.533 119.52 136.293L12 28.9363C12 93.8234 12 158.726 12 223.614Z" fill="#00D4FF"/>
<path d="M9.37598 246.286L128 127.824L246.624 246.286C240.832 252.07 232.832 255.649 224 255.649H32C23.168 255.649 15.168 252.07 9.37598 246.286Z" fill="url(#paint0_linear_1_7646)"/>
</g>
<defs>
<linearGradient id="paint0_linear_1_7646" x1="11871.8" y1="12910.3" x2="11871.8" y2="127.824" gradientUnits="userSpaceOnUse">
<stop stop-color="#21E9F4"/>
<stop offset="1" stop-color="#00D4FF"/>
</linearGradient>
<clipPath id="clip0_1_7646">
<rect width="256" height="256" fill="white"/>
</clipPath>
</defs>
</svg>
