<svg width="512" height="170" viewBox="0 0 512 170" fill="none" xmlns="http://www.w3.org/2000/svg">
<g clip-path="url(#clip0_1_7650)">
<path d="M95.2167 35.5425H95.4524C67.5475 35.5425 48.787 51.6161 48.787 83.2449V102.524C51.6664 101.273 54.7487 100.554 57.8844 100.403C61.0678 100.275 64.2268 101.008 67.0289 102.524V83.2449C67.0289 62.8818 78.2946 52.1346 95.311 52.1346C112.327 52.1346 123.593 62.8818 123.593 83.2449V132.55H141.835V83.2449C141.835 51.6161 122.98 35.5425 95.2167 35.5425ZM151.922 85.366H151.734C151.734 56.424 172.615 35.5425 202.641 35.5425C232.668 35.5425 253.031 56.5655 253.031 85.366V91.8238H171.013C173.146 107.457 186.883 118.86 202.641 118.079C214.991 118.079 223.57 114.355 228.944 106.295H248.93C241.435 123.971 224.277 135.237 202.311 135.237C172.804 135.237 151.922 114.355 151.922 85.366ZM234.459 75.9387C231.013 61.4608 217.689 51.5322 202.83 52.3703C188.101 51.5603 174.953 61.5361 171.767 75.9387H234.459ZM263.071 85.366C263.071 57.03 283.467 36.2226 312.721 35.5588L314.167 35.5425C327.64 35.0089 340.739 40.0485 350.379 49.4754C360.02 58.9023 365.353 71.8841 365.122 85.366C365.122 114.355 344.193 135.237 314.167 135.237C284.141 135.237 263.071 114.355 263.071 85.366ZM346.126 85.366C346.638 76.5553 343.362 67.9454 337.121 61.7048C330.881 55.4641 322.271 52.1875 313.46 52.7002C304.69 52.3522 296.173 55.6803 289.963 61.8819C283.752 68.0835 280.412 76.5957 280.747 85.366C280.234 94.1892 283.516 102.811 289.765 109.061C296.015 115.31 304.637 118.592 313.46 118.079C333.305 118.645 346.126 104.692 346.126 85.366ZM505.589 41.9531V131.984C505.589 155.553 496.445 167.384 472.876 167.384H469.106V151.876H471.274C483.058 151.876 487.347 146.502 487.347 133.021V41.9531H505.589ZM444.453 23.5697C453.765 26.5547 460.063 35.238 460.008 45.0169V103.089H470.708V119.163H460.008V141.694H441.766V119.163H395.666C387.014 119.545 378.898 114.975 374.738 107.379C371.295 100.331 372.349 91.9128 377.425 85.9317L418.622 31.7715C424.461 23.6127 434.977 20.274 444.453 23.5697ZM438.467 40.8689H436.864C435.329 40.9338 433.921 41.743 433.093 43.0372L392.461 96.1132C391.769 96.8371 391.381 97.7987 391.377 98.8C391.377 101.403 393.487 103.514 396.091 103.514H441.672V45.1584C441.672 41.9531 439.551 40.8689 438.467 40.8689Z" fill="black"/>
<path d="M496.445 0C487.854 0 480.89 6.96427 480.89 15.5551C480.89 24.146 487.854 31.1103 496.445 31.1103C505.036 31.1103 512 24.146 512 15.5551C512 6.96427 505.036 0 496.445 0Z" fill="#018BFF"/>
<path d="M56.8474 109.499C53.4965 109.325 50.2118 110.476 47.7029 112.704L30.5451 101.486C31.0067 100.106 31.1987 98.6493 31.1107 97.1965C31.1298 90.9007 27.352 85.2143 21.541 82.7918C15.73 80.3693 9.03174 81.6885 4.57322 86.1335C0.114707 90.5785 -1.22479 97.2727 1.18006 103.091C3.58492 108.909 9.25984 112.704 15.5556 112.704C18.8949 112.897 22.172 111.743 24.653 109.499L41.8108 121.283C41.3862 122.671 41.2107 124.124 41.2923 125.573C41.2056 127.022 41.3813 128.475 41.8108 129.862L24.653 141.694C22.0827 139.599 18.8711 138.451 15.5556 138.441C9.26412 138.441 3.59216 142.231 1.18452 148.044C-1.22312 153.856 0.107711 160.547 4.55645 164.995C9.00518 169.444 15.6957 170.775 21.5083 168.367C27.3208 165.96 31.1107 160.288 31.1107 153.996C31.2023 152.543 31.0102 151.086 30.5451 149.707L47.7029 137.923C50.2902 140.014 53.5208 141.146 56.8474 141.128C60.9685 141.128 64.9202 139.488 67.8299 136.569C70.7396 133.651 72.3679 129.694 72.3557 125.573C72.4104 116.892 65.5247 109.755 56.8474 109.499Z" fill="#018BFF"/>
</g>
<defs>
<clipPath id="clip0_1_7650">
<rect width="512" height="170" fill="white"/>
</clipPath>
</defs>
</svg>
