<svg width="512" height="148" viewBox="0 0 512 148" fill="none" xmlns="http://www.w3.org/2000/svg">
<g clip-path="url(#clip0_1_7655)">
<path d="M0.0187988 32.189L31.3322 0.574219L31.3322 147.572L0.0187988 116.323V32.189Z" fill="url(#paint0_linear_1_7655)"/>
<path d="M121.012 32.4861L89.2692 0.589844L89.9127 147.571L121.226 116.321L121.012 32.4861Z" fill="url(#paint1_linear_1_7655)"/>
<path d="M31.3113 0.597656L112.723 124.829L89.9415 147.61L8.4873 23.6535L31.3113 0.597656Z" fill="url(#paint2_linear_1_7655)"/>
<path d="M31.3394 58.2203L31.2961 63.1134L6.15985 26.0038L8.48732 23.6328L31.3394 58.2203Z" fill="black" fill-opacity="0.13"/>
<path d="M156.579 106.696V44.6462H159.804C160.878 44.6462 161.498 45.1663 161.665 46.2053L162.223 55.5595C165.035 51.9849 168.31 49.1051 172.053 46.9224C175.793 44.7398 179.96 43.6484 184.549 43.6484C187.939 43.6484 190.927 44.1897 193.511 45.2698C196.094 46.3512 198.234 47.9102 199.93 49.9469C201.625 51.9849 202.906 54.437 203.775 57.3056C204.643 60.1742 205.077 63.417 205.077 67.034V106.696H199.185V67.034C199.185 61.2131 197.862 56.6508 195.216 53.3456C192.569 50.0405 188.518 48.3879 183.061 48.3879C179.007 48.3879 175.246 49.4381 171.773 51.5372C168.3 53.6375 165.2 56.5161 162.471 60.1742V106.696H156.579Z" fill="#444444"/>
<path d="M242.229 43.6484C245.74 43.6484 248.988 44.2497 251.977 45.4536C254.964 46.6574 257.556 48.4103 259.749 50.7134C261.943 53.0165 263.656 55.8487 264.89 59.21C266.122 62.5713 266.739 66.4306 266.739 70.7878C266.739 71.7003 266.603 72.3228 266.331 72.6552C266.059 72.9876 265.632 73.1532 265.049 73.1532H220.039V74.3359C220.039 78.9832 220.582 83.0715 221.669 86.5984C222.754 90.1252 224.301 93.0819 226.307 95.4685C228.313 97.855 230.737 99.6489 233.579 100.853C236.42 102.057 239.596 102.658 243.107 102.658C246.241 102.658 248.958 102.316 251.256 101.631C253.554 100.946 255.487 100.178 257.054 99.3277C258.621 98.4774 259.865 97.7093 260.784 97.0246C261.703 96.3399 262.372 95.9976 262.79 95.9976C263.333 95.9976 263.751 96.2055 264.043 96.62L265.673 98.6119C264.67 99.8568 263.344 101.02 261.693 102.098C260.042 103.177 258.202 104.101 256.176 104.868C254.149 105.636 251.977 106.247 249.657 106.704C247.338 107.16 245.009 107.389 242.668 107.389C238.405 107.389 234.519 106.652 231.009 105.179C227.498 103.706 224.486 101.559 221.972 98.7364C219.457 95.9141 217.514 92.4595 216.142 88.3724C214.77 84.2853 214.084 79.6056 214.084 74.3359C214.084 69.8965 214.721 65.7982 215.996 62.0422C217.271 58.2863 219.109 55.0495 221.512 52.3318C223.914 49.6141 226.86 47.4878 230.35 45.9515C233.838 44.4166 237.799 43.6484 242.229 43.6484ZM242.626 47.8054C239.373 47.8054 236.457 48.2916 233.881 49.264C231.303 50.2364 229.075 51.6342 227.195 53.4574C225.315 55.2807 223.795 57.4685 222.632 60.0211C221.469 62.5736 220.7 65.43 220.319 68.5903H261.889C261.889 65.3485 261.423 62.4423 260.494 59.8691C259.564 57.2972 258.255 55.119 256.566 53.3359C254.876 51.554 252.848 50.1865 250.482 49.2336C248.117 48.2819 245.498 47.8054 242.626 47.8054Z" fill="#444444"/>
<path d="M301.065 43.6484C305.587 43.6484 309.635 44.4054 313.207 45.9204C316.777 47.4355 319.789 49.583 322.241 52.3629C324.692 55.1428 326.563 58.4942 327.852 62.4157C329.142 66.3372 329.786 70.7256 329.786 75.5808C329.786 80.436 329.141 84.8144 327.852 88.7147C326.563 92.6163 324.692 95.9565 322.241 98.7364C319.789 101.516 316.777 103.654 313.207 105.148C309.635 106.642 305.587 107.389 301.065 107.389C296.542 107.389 292.496 106.642 288.924 105.148C285.352 103.654 282.33 101.516 279.858 98.7364C277.385 95.9565 275.503 92.6151 274.215 88.7147C272.926 84.8144 272.281 80.436 272.281 75.5808C272.281 70.7256 272.926 66.3372 274.215 62.4157C275.505 58.4942 277.385 55.1441 279.858 52.3629C282.33 49.583 285.352 47.4355 288.924 45.9204C292.496 44.4066 296.542 43.6484 301.065 43.6484ZM300.719 103.232C304.419 103.232 307.651 102.595 310.416 101.322C313.18 100.048 315.488 98.2217 317.339 95.842C319.188 93.4623 320.57 90.5929 321.486 87.2312C322.399 83.8708 322.858 80.1033 322.858 75.9276C322.858 71.7944 322.4 68.0369 321.486 64.6552C320.57 61.2735 319.188 58.3828 317.339 55.9818C315.489 53.5821 313.181 51.7346 310.416 50.4396C307.651 49.1458 304.418 48.4982 300.719 48.4982C297.019 48.4982 293.785 49.1458 291.021 50.4396C288.256 51.7346 285.948 53.5821 284.098 55.9818C282.247 58.3828 280.855 61.2735 279.92 64.6552C278.985 68.0369 278.517 71.7944 278.517 75.9276C278.517 80.1021 278.985 83.8708 279.92 87.2312C280.855 90.5929 282.247 93.4623 284.098 95.842C285.948 98.2217 288.256 100.048 291.021 101.322C293.785 102.595 297.018 103.232 300.719 103.232Z" fill="#444444"/>
<path d="M366.901 105.31H353.01L327.708 41.5703H340.421C341.537 41.5703 342.477 41.8399 343.242 42.3779C344.006 42.9172 344.535 43.5993 344.824 44.4281L357.102 78.4725C357.804 80.4605 358.395 82.4075 358.87 84.3123C359.345 86.2183 359.769 88.123 360.141 90.0278C360.513 88.123 360.936 86.2183 361.412 84.3123C361.888 82.4075 362.498 80.4605 363.242 78.4725L375.831 44.4281C376.12 43.5993 376.637 42.9172 377.381 42.3779C378.125 41.8399 379.013 41.5703 380.048 41.5703H392.141L366.901 105.31Z" fill="#444444"/>
<path d="M411.54 42.2656H395.605V106.006H411.54V42.2656Z" fill="#444444"/>
<path d="M421.932 106.005V41.8789H431.371C433.371 41.8789 434.683 42.8164 435.308 44.6915L436.308 49.4415C437.433 48.1915 438.61 47.0452 439.839 46.004C441.068 44.9627 442.38 44.0664 443.777 43.3164C445.172 42.5664 446.672 41.9727 448.277 41.5352C449.881 41.0977 451.641 40.8789 453.559 40.8789C457.6 40.8789 460.923 41.9727 463.528 44.1602C466.132 46.3477 468.081 49.254 469.372 52.8791C470.372 50.754 471.622 48.9315 473.122 47.4102C474.623 45.8902 476.269 44.6502 478.06 43.6914C479.851 42.7339 481.758 42.0252 483.779 41.5664C485.799 41.1077 487.83 40.8789 489.873 40.8789C493.414 40.8789 496.561 41.4214 499.311 42.5039C502.061 43.5877 504.373 45.1702 506.249 47.254C508.124 49.3378 509.551 51.879 510.53 54.8791C511.509 57.8791 512 61.3167 512 65.1917V106.005H496.561V65.1917C496.561 61.1079 495.664 58.0354 493.874 55.9729C492.082 53.9103 489.457 52.8791 485.998 52.8791C484.414 52.8791 482.947 53.1503 481.593 53.6916C480.238 54.2341 479.05 55.0153 478.029 56.0354C477.009 57.0566 476.206 58.3379 475.623 59.8792C475.039 61.4204 474.748 63.1917 474.748 65.1917V106.005H459.248V65.1917C459.248 60.9004 458.383 57.7754 456.655 55.8166C454.924 53.8591 452.373 52.8791 448.998 52.8791C446.788 52.8791 444.717 53.4316 442.779 54.5353C440.84 55.6391 439.039 57.1504 437.373 59.0666V106.005H421.932Z" fill="#444444"/>
<path d="M411.54 20.7852H395.605V33.9489H411.54V20.7852Z" fill="#444444"/>
</g>
<defs>
<linearGradient id="paint0_linear_1_7655" x1="1565.69" y1="0.574219" x2="1565.69" y2="14700.4" gradientUnits="userSpaceOnUse">
<stop stop-color="#16B0ED" stop-opacity="0.800236"/>
<stop offset="1" stop-color="#0F59B2" stop-opacity="0.837"/>
</linearGradient>
<linearGradient id="paint1_linear_1_7655" x1="-1476.62" y1="0.589844" x2="-1476.62" y2="14698.7" gradientUnits="userSpaceOnUse">
<stop stop-color="#7DB643"/>
<stop offset="1" stop-color="#367533"/>
</linearGradient>
<linearGradient id="paint2_linear_1_7655" x1="5220.27" y1="0.597656" x2="5220.27" y2="14701.8" gradientUnits="userSpaceOnUse">
<stop stop-color="#88C649" stop-opacity="0.8"/>
<stop offset="1" stop-color="#439240" stop-opacity="0.84"/>
</linearGradient>
<clipPath id="clip0_1_7655">
<rect width="512" height="148" fill="white"/>
</clipPath>
</defs>
</svg>
