<svg width="256" height="271" viewBox="0 0 256 271" fill="none" xmlns="http://www.w3.org/2000/svg">
<g clip-path="url(#clip0_1_7676)">
<path d="M23.2214 60.2287C31.0918 62.2588 62.415 71.7204 81.2223 77.4638C100.03 83.1998 114.106 86.9125 125.043 89.9607C136.071 93.1192 135.248 101.74 126.622 100.995C118.002 100.16 107.809 95.5267 97.6215 91.5336C87.4223 87.6569 55.3615 78.2923 38.8647 72.733C22.4777 67.2639 18.4845 67.2639 16.1801 64.1127C13.8574 61.0578 15.3449 58.1803 23.2214 60.2287Z" fill="#E92200"/>
<path d="M140.794 94.6952C147.829 93.9514 148.573 100.993 147 104.888C145.427 108.778 137.648 110.351 136.076 106.467C133.661 100.993 133.661 95.5243 140.794 94.6952Z" fill="#E92200"/>
<path d="M233.174 38.262C228.535 42.249 214.367 50.8693 204.259 57.9112C194.072 64.9519 175.259 77.4617 169.699 80.6074C164.243 83.7532 157.201 87.6548 152.471 91.5321C147.831 95.5252 149.41 102.567 156.458 100.159C163.487 97.8425 170.54 93.953 175.259 89.2155C179.892 84.4969 184.617 81.3457 189.341 78.2908C194.072 75.1451 230.114 48.4613 237.155 43.7244C244.203 35.9454 237.899 34.367 233.174 38.262Z" fill="#E92200"/>
<path d="M251.249 25.0124C255.132 25.0124 256.705 33.6327 252.822 35.9432C248.932 38.2598 243.366 38.2598 243.366 30.4809C243.366 22.5982 247.353 25.0124 251.249 25.0124Z" fill="#E92200"/>
<path d="M248.93 41.4102C251.991 41.4102 253.558 47.7199 252.826 52.4385C251.991 57.0717 253.558 87.6511 254.393 98.5819C255.137 109.61 255.137 114.341 253.558 118.231C251.991 122.12 253.558 128.418 253.558 138.611C253.558 148.81 251.991 162.057 251.247 167.617C250.418 173.08 249.674 176.969 246.51 176.231C243.364 175.402 243.365 171.501 243.365 165.197C243.365 158.997 243.364 126.01 244.206 118.231C244.931 110.354 244.931 107.202 244.931 100.99V51.6094C244.931 45.3057 245.779 41.4102 248.93 41.4102Z" fill="#E92200"/>
<path d="M246.51 182.441C251.247 181.691 252.826 190.311 250.418 192.628C248.089 195.042 242.615 194.207 241.048 190.311C239.475 186.422 241.792 183.276 246.51 182.441Z" fill="#E92200"/>
<path d="M6.53081 53.1836C10.8044 52.5313 12.1882 60.231 8.67064 62.9987C5.15303 65.8823 0.239353 63.7425 0.977014 59.4872C1.61713 55.3112 2.36699 53.9273 6.53081 53.1836Z" fill="#E92200"/>
<path d="M16.4527 46.8805C26.2801 41.9668 46.6602 29.2742 51.5678 27.8903C56.4815 26.5003 65.559 20.849 69.0888 18.0691C72.5942 15.283 83.8054 8.89402 85.9392 7.50404C88.079 6.11407 97.888 7.50405 89.4629 13.1554C81.0194 18.8128 69.0888 25.7566 60.6514 30.6703C52.214 35.6693 28.3041 48.2705 23.3965 50.4042C18.4828 52.5318 6.53391 51.7942 16.4527 46.8805Z" fill="#E92200"/>
<path d="M100.028 0.4644C101.43 -0.181815 105.673 3.33579 103.539 6.11574C101.43 8.88959 98.6317 11.0233 95.7604 6.11574C92.9865 1.20206 98.6317 1.20206 100.028 0.4644Z" fill="#E92200"/>
<path d="M114.107 1.20312C123.197 1.20312 145.699 4.72134 152.746 6.86056C159.702 8.89065 173.791 11.025 176.565 11.7681C179.43 12.4144 189.251 12.4144 191.379 13.1581C193.427 13.7982 199.81 16.6763 212.411 18.0724C225.11 19.4563 232.785 20.8523 236.327 22.2362C239.851 23.7231 237.724 32.1483 232.054 30.6669C226.5 29.2769 203.34 26.497 197.683 25.7599C192.025 25.1076 180.82 20.8523 174.522 20.2C168.121 19.4563 152.002 15.9326 138.658 14.542C125.319 13.1581 116.15 10.3782 112.62 9.63441C109.102 8.89065 104.938 1.20312 114.107 1.20312Z" fill="#E92200"/>
<path d="M4.50073 76.3488C4.50073 71.4351 12.1883 69.3014 12.932 75.6964C13.5782 82.0001 14.3159 92.559 14.9682 100.99C15.712 109.428 16.4496 117.121 17.0958 122.767C17.8396 128.326 21.3572 142.409 22.0217 146.677C22.7472 150.834 23.3995 159.272 23.3995 164.185C23.3995 169.099 24.8809 176.146 24.1432 179.664C23.3995 183.175 19.8819 192.259 17.8396 181.786C15.712 171.227 17.0958 157.888 15.712 154.364C14.3159 150.834 11.4445 143.147 11.4445 137.501C11.4445 131.844 8.67065 117.121 8.01224 113.598C7.28068 110.074 4.50073 81.2563 4.50073 76.3488Z" fill="#E92200"/>
<path d="M19.8819 195.134C20.6257 192.257 26.277 190.22 28.3071 193.738C30.4469 197.267 29.7885 202.821 24.8809 203.565C19.8819 204.217 19.2296 197.908 19.8819 195.134Z" fill="#E92200"/>
<path d="M31.1785 185.96C37.4882 179.663 55.7347 169.842 66.3058 160.66C76.8647 151.577 95.7574 138.884 99.2811 135.373C102.799 131.843 111.98 134.714 104.195 141.018C96.5133 147.322 78.2547 160.66 70.4635 166.97C62.7821 173.359 41.7435 187.35 37.4882 191.606C33.3183 195.782 24.8809 192.258 31.1785 185.96Z" fill="#E92200"/>
<path d="M113.366 123.418C116.152 124.162 116.152 129.813 113.366 131.202C110.586 132.587 105.672 131.843 106.331 127.679C107.068 123.418 110.586 122.771 113.366 123.418Z" fill="#E92200"/>
<path d="M41.0107 202.176C50.8259 204.956 72.596 219.038 79.6434 221.812C86.6847 224.598 100.03 231.633 106.327 235.157C112.625 238.675 128.097 245.722 132.365 247.758C136.523 249.892 140.052 250.63 142.18 252.764C144.314 254.794 141.448 262.585 135.876 259.713C130.231 256.933 108.455 245.722 104.937 243.588C101.432 241.455 88.0747 234.42 83.8072 231.633C79.6434 228.854 73.9921 228.116 68.4322 225.33C62.7808 222.562 43.1383 211.997 36.7432 208.473C30.4518 204.956 31.1772 199.298 41.0107 202.176Z" fill="#E92200"/>
<path d="M137.919 116.469C137.272 123.419 138.662 136.764 139.406 140.287C140.052 143.793 142.838 158.528 142.18 169.099C141.448 179.665 142.18 193.003 143.576 200.038C144.954 207.085 145.698 225.332 145.698 230.252C145.698 235.159 147.088 241.457 147.831 242.853C148.478 244.334 152.751 250.632 153.391 241.457C154.147 232.374 153.391 214.127 154.147 208.475C154.799 202.824 153.391 189.485 152.007 172.61C150.617 155.742 149.886 141.763 149.886 137.501C149.886 133.331 151.264 122.766 148.478 118.512C146.35 111.464 138.662 109.428 137.919 116.469Z" fill="#E92200"/>
<path d="M151.264 255.543C153.391 254.799 160.451 260.457 157.653 266.754C154.799 273.064 150.623 270.277 147.831 265.37C144.954 260.457 149.221 256.195 151.264 255.543Z" fill="#E92200"/>
<path d="M166.091 248.494C175.168 237.935 177.314 240.807 182.222 236.551C187.129 232.369 206.766 216.903 213.813 210.605C220.842 204.216 226.5 200.693 230.657 197.266C234.931 193.737 241.247 198.937 234.931 202.82C228.627 206.71 214.557 220.512 208.893 228.114C203.339 235.716 198.328 233.759 192.025 240.069C185.745 246.367 182.222 251.28 178.686 252.768C175.168 254.158 172.394 256.194 169.602 258.315C166.731 260.449 156.916 259.065 166.091 248.494Z" fill="#E92200"/>
<path d="M125.961 128.325C130.229 129.813 147.829 136.11 159.705 141.762C171.66 147.322 200.459 159.271 206.122 162.8C211.762 166.312 234.19 174.743 237.061 176.877C239.854 178.913 240.5 189.484 234.19 186.704C227.886 183.833 210.286 174.005 199.087 169.098C187.87 164.184 170.264 155.747 161.82 153.619C153.395 151.577 137.27 141.762 133.021 138.884C128.851 136.11 123.931 136.11 121.81 132.587C119.664 129.069 121.81 126.941 125.961 128.325Z" fill="#E92200"/>
<path d="M104.936 18.8101C106.332 27.2414 107.716 36.3189 107.716 43.3602C107.716 50.4015 109.106 61.6127 109.856 65.1364C110.587 68.654 111.977 80.609 111.234 82.7428C110.587 84.7789 111.234 101.642 111.234 105.909C111.234 110.073 112.624 115.73 108.454 115.73C104.192 115.73 103.54 112.201 103.54 104.513C103.54 96.7278 100.681 79.8714 100.681 72.824C100.681 65.8802 99.2847 51.0477 99.2847 41.2265C99.2847 31.4113 97.2424 20.8463 96.5109 18.0663C95.761 15.2803 103.54 10.3788 104.936 18.8101Z" fill="#E92200"/>
</g>
<defs>
<clipPath id="clip0_1_7676">
<rect width="256" height="271" fill="white"/>
</clipPath>
</defs>
</svg>
