<svg width="256" height="256" viewBox="0 0 256 256" fill="none" xmlns="http://www.w3.org/2000/svg">
<g clip-path="url(#clip0_1_7698)">
<path d="M0 0H255.904V255.904H0L0 0Z" fill="black"/>
<path d="M141.676 41.2734L141.609 79.6348L141.541 117.996L138.385 109.091C138.384 109.088 138.38 109.076 138.379 109.073L134.301 194.476C138.31 205.8 140.459 211.845 140.483 211.869C140.514 211.9 142.8 212.038 145.561 212.175C153.927 212.59 164.295 213.48 172.16 214.457C173.981 214.684 175.548 214.799 175.642 214.715C175.737 214.63 175.788 175.571 175.757 127.917L175.699 41.2734H158.688H141.676Z" fill="#B1060F" stroke="black" stroke-width="2.95622"/>
<path d="M80.1383 41.1602V127.892C80.1383 175.594 80.185 214.67 80.2421 214.728C80.2993 214.785 83.2534 214.506 86.8069 214.108C90.3604 213.71 95.2716 213.215 97.7206 213.008C101.477 212.691 112.691 211.97 113.989 211.962C114.367 211.96 114.391 210.011 114.446 175.226L114.504 138.493L117.217 146.17C117.636 147.356 117.768 147.727 118.176 148.883L122.254 63.5012C121.39 61.0587 121.843 62.3409 120.853 59.5417C117.521 50.1226 114.694 42.1335 114.57 41.7881L114.345 41.1602H97.2418H80.1383Z" fill="#B1060F" stroke="black" stroke-width="2.95622"/>
<path d="M80.1383 41.1602L80.1383 89.8451L114.435 180.821C114.438 178.736 114.442 177.609 114.446 175.226L114.504 138.493L117.217 146.17C132.321 188.907 140.435 211.822 140.483 211.87C140.514 211.901 142.8 212.039 145.561 212.176C153.927 212.591 164.295 213.481 172.16 214.458C173.981 214.684 175.548 214.8 175.643 214.716C175.707 214.658 175.75 195.506 175.761 168.489L141.625 70.3486L141.609 79.6357L141.541 117.997L138.385 109.092C135.301 100.39 133.242 94.5711 120.853 59.5417C117.521 50.1226 114.694 42.1335 114.57 41.7881L114.345 41.1602H97.2418H80.1383Z" fill="url(#paint0_radial_1_7698)"/>
<path d="M80.139 41.1602L114.504 138.537V138.493L117.217 146.17C132.321 188.907 140.435 211.822 140.483 211.87C140.515 211.901 142.8 212.039 145.561 212.176C153.927 212.591 164.295 213.481 172.16 214.458C173.972 214.683 175.531 214.799 175.64 214.717L141.541 117.979V117.997L138.385 109.092C135.301 100.39 133.242 94.5711 120.853 59.5417C117.521 50.1226 114.694 42.1335 114.57 41.7881L114.345 41.1602H97.2418H80.139Z" fill="#E50914"/>
<path d="M141.676 41.2734L141.609 79.6348L141.541 117.996L138.385 109.091C138.384 109.088 138.38 109.076 138.379 109.073L134.301 194.476C138.31 205.8 140.459 211.845 140.483 211.869C140.514 211.9 142.8 212.038 145.561 212.175C153.927 212.59 164.295 213.48 172.16 214.457C173.981 214.684 175.548 214.799 175.642 214.715C175.737 214.63 175.788 175.571 175.757 127.917L175.699 41.2734H158.688H141.676Z" fill="#B1060F" stroke="black" stroke-width="2.95622"/>
<path d="M80.1383 41.1602V127.892C80.1383 175.594 80.185 214.67 80.2421 214.728C80.2993 214.785 83.2534 214.506 86.8069 214.108C90.3604 213.71 95.2716 213.215 97.7206 213.008C101.477 212.691 112.691 211.97 113.989 211.962C114.367 211.96 114.391 210.011 114.446 175.226L114.504 138.493L117.217 146.17C117.636 147.356 117.768 147.727 118.176 148.883L122.254 63.5012C121.39 61.0587 121.843 62.3409 120.853 59.5417C117.521 50.1226 114.694 42.1335 114.57 41.7881L114.345 41.1602H97.2418H80.1383Z" fill="#B1060F" stroke="black" stroke-width="2.95622"/>
<path d="M80.1383 41.1602L80.1383 89.8451L114.435 180.821C114.438 178.736 114.442 177.609 114.446 175.226L114.504 138.493L117.217 146.17C132.321 188.907 140.435 211.822 140.483 211.87C140.514 211.901 142.8 212.039 145.561 212.176C153.927 212.591 164.295 213.481 172.16 214.458C173.981 214.684 175.548 214.8 175.643 214.716C175.707 214.658 175.75 195.506 175.761 168.489L141.625 70.3486L141.609 79.6357L141.541 117.997L138.385 109.092C135.301 100.39 133.242 94.5711 120.853 59.5417C117.521 50.1226 114.694 42.1335 114.57 41.7881L114.345 41.1602H97.2418H80.1383Z" fill="url(#paint1_radial_1_7698)"/>
<path d="M80.139 41.1602L114.504 138.537V138.493L117.217 146.17C132.321 188.907 140.435 211.822 140.483 211.87C140.515 211.901 142.8 212.039 145.561 212.176C153.927 212.591 164.295 213.481 172.16 214.458C173.972 214.683 175.531 214.799 175.64 214.717L141.541 117.979V117.997L138.385 109.092C135.301 100.39 133.242 94.5711 120.853 59.5417C117.521 50.1226 114.694 42.1335 114.57 41.7881L114.345 41.1602H97.2418H80.139Z" fill="#E50914"/>
</g>
<defs>
<radialGradient id="paint0_radial_1_7698" cx="0" cy="0" r="1" gradientUnits="userSpaceOnUse" gradientTransform="translate(4702.51 4748.44) scale(6735.48 6735.48)">
<stop/>
<stop offset="1" stop-opacity="0"/>
</radialGradient>
<radialGradient id="paint1_radial_1_7698" cx="0" cy="0" r="1" gradientUnits="userSpaceOnUse" gradientTransform="translate(4702.51 4748.44) scale(6735.48 6735.48)">
<stop/>
<stop offset="1" stop-opacity="0"/>
</radialGradient>
<clipPath id="clip0_1_7698">
<rect width="256" height="256" fill="white"/>
</clipPath>
</defs>
</svg>
