<svg width="256" height="226" viewBox="0 0 256 226" fill="none" xmlns="http://www.w3.org/2000/svg">
<g clip-path="url(#clip0_1_7712)">
<path d="M69.1806 188.086H66.7635L54.6985 176.021V173.604L73.1428 155.16H85.921L87.6247 156.864V169.642L69.1806 188.086Z" fill="#05BDBA"/>
<path d="M54.6985 51.6266V49.2096L66.7635 37.1445H69.1806L87.6247 55.5887V68.3669L85.921 70.0708H73.1428L54.6985 51.6266Z" fill="#05BDBA"/>
<path d="M160.906 149.197H143.354L141.887 147.731V106.643C141.887 99.3329 139.015 93.6667 130.199 93.4687C125.662 93.3497 120.472 93.4687 114.925 93.6865L114.092 94.5384V147.712L112.626 149.178H95.0737L93.6077 147.712V77.5208L95.0737 76.0547H134.577C149.931 76.0547 162.372 88.4961 162.372 103.85V147.731L160.906 149.197Z" fill="#014847"/>
<path d="M71.6768 122.888H1.46603L0 121.422V103.829L1.46603 102.363H71.6768L73.1429 103.829V121.422L71.6768 122.888Z" fill="#05BDBA"/>
<path d="M254.534 122.888H184.323L182.857 121.422V103.829L184.323 102.363H254.534L256 103.829V121.422L254.534 122.888Z" fill="#05BDBA"/>
<path d="M117.876 54.1242V1.46603L119.343 0H136.935L138.401 1.46603V54.1242L136.935 55.5901H119.343L117.876 54.1242Z" fill="#05BDBA"/>
<path d="M117.876 223.788V171.13L119.343 169.664H136.935L138.401 171.13V223.788L136.935 225.254H119.343L117.876 223.788Z" fill="#05BDBA"/>
</g>
<defs>
<clipPath id="clip0_1_7712">
<rect width="256" height="226" fill="white"/>
</clipPath>
</defs>
</svg>
