<svg width="512" height="209" viewBox="0 0 512 209" fill="none" xmlns="http://www.w3.org/2000/svg">
<g clip-path="url(#clip0_1_7721)">
<path d="M117.436 207.036V154.604L118.529 153.51H129.452L130.545 154.604V207.036L129.452 208.13H118.529L117.436 207.036ZM117.436 53.5225V1.09339L118.529 0H129.452L130.545 1.09339V53.5225L129.452 54.6159H118.529L117.436 53.5225ZM69.9539 169.238H68.4094L60.6869 161.512V159.967L78.7201 141.938L86.8976 141.942L87.9948 143.031V151.209L69.9539 169.238ZM69.9462 38.8917H68.4017L60.6792 46.6181V48.1626L78.7124 66.192L86.8899 66.1882L87.9871 65.0986V56.9212L69.9462 38.8917ZM1.09339 97.5104H75.3711L76.4645 98.6038V109.526L75.3711 110.62H1.09339L0 109.526V98.6038L1.09339 97.5104ZM440.999 97.5104H510.91L512.004 98.6038V109.526L510.91 110.62H436.633L435.539 109.526L439.905 98.6038L440.999 97.5104Z" fill="#05BDBA"/>
<path d="M212.056 108.729L210.963 109.823H177.079L175.986 110.916C175.986 113.103 178.173 119.659 186.916 119.659C190.196 119.659 193.472 118.566 194.566 116.379L195.659 115.286H208.776L209.869 116.379L209.798 116.776C208.553 123.325 202.985 132.776 186.916 132.776C168.336 132.776 159.589 119.659 159.589 104.359C159.589 89.0593 168.332 75.9425 185.822 75.9425C203.313 75.9425 212.056 89.0593 212.056 104.359V108.729ZM194.566 98.8922L195.659 97.7988L195.652 97.6232C195.551 96.0637 194.191 89.0555 185.822 89.0555C177.079 89.0555 175.986 96.7054 175.986 97.7988L177.079 98.8922H194.566ZM242.66 115.286C242.66 117.472 243.753 118.566 245.94 118.566H255.776L256.87 119.659V130.589L255.776 131.683H245.94C236.103 131.683 227.36 127.309 227.36 115.286V91.2385L226.266 90.1451H218.617L217.523 89.0517V78.1216L218.617 77.0282H226.266L227.36 75.9349V66.0982L228.453 65.0048H241.57L242.663 66.0982V75.9349L243.757 77.0282H255.78L256.874 78.1216V89.0517L255.78 90.1451H243.757L242.663 91.2385V115.286H242.66ZM283.1 131.683H269.983L268.889 130.589V56.2653L269.983 55.1719H283.1L284.193 56.2653V130.589L283.1 131.683ZM312.61 68.2888H299.493L298.399 67.1954V56.2653L299.493 55.1719H312.61L313.703 56.2653V67.1954L312.61 68.2888ZM312.61 131.683H299.493L298.399 130.589V78.1254L299.493 77.0321H312.61L313.703 78.1254V130.589L312.61 131.683ZM363.98 56.2653V67.1954L362.886 68.2888H353.05C350.863 68.2888 349.769 69.3822 349.769 71.5689V75.9425L350.863 77.0359H361.793L362.886 78.1293V89.0593L361.793 90.1527H350.863L349.769 91.2461V130.593L348.676 131.686H335.559L334.466 130.593V91.2461L333.372 90.1527H325.723L324.629 89.0593V78.1293L325.723 77.0359H333.372L334.466 75.9425V71.5689C334.466 59.6748 343.022 55.2668 352.729 55.1734L362.882 55.1719L363.976 56.2653H363.98ZM404.424 132.772L404.005 133.798C399.759 144.113 395.194 150.263 380.373 150.263H374.906L373.813 149.169V138.239L374.906 137.146H380.373L381.008 137.14C385.923 137.055 386.973 135.92 388.023 132.772V131.679L370.536 89.0517V78.1216L371.63 77.0282H381.466L382.56 78.1216L395.677 115.286H396.77L409.887 78.1216L410.98 77.0282H420.817L421.91 78.1216V89.0517L404.424 132.772ZM135.454 131.683L134.361 130.589L134.368 98.9189C134.368 93.4558 132.22 89.2199 125.625 89.0823C122.234 88.9943 118.354 89.0746 114.209 89.2505L113.59 89.8851L113.598 130.589L112.504 131.683H99.3913L98.2979 130.589V77.5405L99.3913 76.4471L128.901 76.1795C143.685 76.1795 149.668 86.3373 149.668 97.8026V130.589L148.575 131.683H135.454Z" fill="#014847"/>
</g>
<defs>
<clipPath id="clip0_1_7721">
<rect width="512" height="209" fill="white"/>
</clipPath>
</defs>
</svg>
