<svg width="256" height="246" viewBox="0 0 256 246" fill="none" xmlns="http://www.w3.org/2000/svg">
<g clip-path="url(#clip0_1_7725)">
<path d="M85.6609 99.098L0 148.132V49.8672L85.6609 99.098Z" fill="#5B29FF"/>
<path d="M85.6624 99.078L170.338 49.8477L256 99.078V196.161L170.338 245.392V148.309L85.6624 99.078Z" fill="#2962FF"/>
<path d="M85.6609 0L0 49.8213L85.6609 99.0518L170.338 49.8213L85.6609 0Z" fill="#FFC629"/>
<path d="M0 49.8213L85.6609 99.0518L170.338 49.8213L85.6609 0L0 49.8213ZM15.9832 49.78L85.6382 89.8117L154.492 49.7801L85.6375 9.26824L15.9832 49.78Z" fill="#FAFAFA"/>
<path d="M85.6539 89.8553V9.33984L16 49.8487L85.6539 89.8553Z" fill="#FFBC00"/>
</g>
<defs>
<clipPath id="clip0_1_7725">
<rect width="256" height="246" fill="white"/>
</clipPath>
</defs>
</svg>
