<svg width="512" height="159" viewBox="0 0 512 159" fill="none" xmlns="http://www.w3.org/2000/svg">
<g clip-path="url(#clip0_1_7732)">
<path d="M55.2084 63.8698L0 95.4721V32.1406L55.2084 63.8698Z" fill="#5B29FF"/>
<path d="M55.2092 63.8539L109.783 32.125L164.992 63.8539V126.424L109.783 158.153V95.5831L55.2092 63.8539Z" fill="#2962FF"/>
<path d="M55.2084 0L0 32.1098L55.2084 63.8388L109.782 32.1098L55.2084 0Z" fill="#FFC629"/>
<path d="M0 32.1098L55.2084 63.8388L109.782 32.1098L55.2084 0L0 32.1098ZM10.3011 32.0831L55.1937 57.8835L99.5699 32.0832L55.1932 5.97337L10.3011 32.0831Z" fill="#FAFAFA"/>
<path d="M55.2038 57.9117V6.01953L10.312 32.1275L55.2038 57.9117Z" fill="#FFBC00"/>
<path d="M238.11 95.7879V151.581H221.956V95.7879H238.11ZM230.033 69.9297C233.002 69.9297 235.418 70.7592 237.282 72.4188C238.938 73.8935 239.859 75.6963 240.043 77.8266L240.061 78.1106C240.072 78.2968 240.078 78.4854 240.078 78.6765C240.078 81.3727 239.146 83.6198 237.282 85.4173C235.418 87.1456 233.002 88.01 230.033 88.01C227.065 88.01 224.648 87.1456 222.784 85.4173C220.92 83.689 219.988 81.546 219.988 78.9877C219.988 76.3941 220.92 74.2506 222.784 72.5223C224.648 70.7941 227.065 69.9297 230.033 69.9297ZM281.787 94.9584C288.691 94.9584 294.248 97.0322 298.459 101.18C302.739 105.329 304.88 111.482 304.88 119.64V151.581H288.725V122.129C288.725 117.704 287.758 114.42 285.826 112.277C283.893 110.064 281.096 108.958 277.438 108.958C273.365 108.958 270.12 110.237 267.704 112.795C265.288 115.284 264.079 119.017 264.079 123.995V151.581H247.925V95.7879H263.354V102.321C265.495 99.9705 268.152 98.173 271.328 96.9287C274.504 95.6152 277.99 94.9584 281.787 94.9584ZM335.159 152.41C330.534 152.41 326.012 151.857 321.594 150.751C317.175 149.576 313.654 148.124 311.031 146.395L316.416 134.78C318.901 136.371 321.904 137.684 325.425 138.721C328.946 139.689 332.398 140.173 335.781 140.173C342.615 140.173 346.032 138.479 346.032 135.092C346.032 133.501 345.1 132.361 343.236 131.669C341.372 130.978 338.507 130.39 334.641 129.906C330.085 129.215 326.322 128.42 323.354 127.521C320.385 126.623 317.796 125.032 315.587 122.751C313.447 120.469 312.377 117.22 312.377 113.002C312.377 109.477 313.378 106.366 315.38 103.669C317.451 100.904 320.42 98.7605 324.286 97.2399C328.221 95.7187 332.846 94.9584 338.162 94.9584C342.097 94.9584 345.998 95.4075 349.863 96.3063C353.798 97.1358 357.043 98.3114 359.597 99.8321L354.213 111.343C349.311 108.578 343.961 107.195 338.162 107.195C334.71 107.195 332.121 107.679 330.395 108.647C328.67 109.615 327.807 110.859 327.807 112.381C327.807 114.109 328.739 115.319 330.603 116.01C332.052 116.548 334.17 117.065 336.956 117.561L339.508 117.981C344.064 118.741 347.792 119.571 350.692 120.469C353.591 121.299 356.111 122.854 358.251 125.136C360.392 127.418 361.461 130.598 361.461 134.677C361.461 138.133 360.426 141.21 358.355 143.906C356.284 146.603 353.246 148.711 349.242 150.232C345.307 151.684 340.613 152.41 335.159 152.41ZM386.444 83.4471V97.0322H400.32V109.477H386.444V132.188C386.444 134.538 387.03 136.371 388.204 137.684C389.447 138.929 391.173 139.551 393.382 139.551C395.936 139.551 398.111 138.859 399.906 137.477L404.255 148.884C402.667 150.06 400.7 150.958 398.353 151.581C396.074 152.133 393.658 152.41 391.104 152.41C384.476 152.41 379.333 150.716 375.675 147.328C372.085 143.941 370.289 138.963 370.289 132.395V109.477H361.695V97.0322H370.289V83.4471H386.444ZM429.581 94.9584C438.211 94.9584 444.838 97.0322 449.463 101.18C454.089 105.259 456.402 111.447 456.402 119.743V151.581H441.283V144.632C438.245 149.818 432.584 152.41 424.3 152.41C420.02 152.41 416.292 151.684 413.116 150.232C410.01 148.78 407.628 146.776 405.971 144.217C404.314 141.66 403.486 138.756 403.486 135.506C403.486 130.321 405.419 126.242 409.285 123.27C413.22 120.296 419.26 118.81 427.407 118.81H440.247C440.247 115.284 439.177 112.588 437.037 110.721C434.897 108.786 431.687 107.818 427.407 107.818C424.438 107.818 421.504 108.302 418.604 109.269C415.774 110.168 413.358 111.413 411.356 113.002L405.557 101.699C408.594 99.5557 412.219 97.8966 416.43 96.7211C420.71 95.546 425.094 94.9584 429.581 94.9584ZM440.247 128.247H429.167C422.539 128.247 419.226 130.425 419.226 134.78C419.226 136.855 420.02 138.514 421.608 139.758C423.264 140.934 425.508 141.521 428.338 141.521C431.1 141.521 433.551 140.899 435.691 139.655C437.831 138.341 439.35 136.439 440.247 133.951V128.247ZM464.808 74.6324H480.963V151.581H464.808V74.6324ZM490.776 74.6324H506.931V151.581H490.776V74.6324Z" fill="#192137"/>
<path d="M253.844 5.74609C260.747 5.74609 266.304 7.81343 270.514 11.9482C274.793 16.0829 276.933 22.2161 276.933 30.3477V62.185H260.781V32.8285C260.781 28.4181 259.815 25.1448 257.883 23.0085C255.95 20.8034 253.154 19.7008 249.496 19.7008C245.424 19.7008 242.18 20.9757 239.764 23.5254C237.348 26.0062 236.14 29.7275 236.14 34.6891V62.185H219.988V6.57302H235.415V13.0852C237.555 10.7422 240.213 8.9505 243.387 7.71009C246.562 6.40074 250.048 5.74609 253.844 5.74609ZM341.996 34.5858L341.844 36.8434L341.685 38.9273H299.546C300.306 42.3729 302.1 45.0949 304.93 47.0933C307.76 49.092 311.28 50.0911 315.491 50.0911C318.39 50.0911 320.944 49.6777 323.152 48.8505C325.43 47.9549 327.536 46.5763 329.468 44.7159L338.062 54.0188C332.816 60.0144 325.154 63.0122 315.076 63.0122C308.795 63.0122 303.239 61.806 298.407 59.3943C293.576 56.9135 289.848 53.5023 287.225 49.1608C284.603 44.8192 283.291 39.892 283.291 34.379C283.291 28.935 284.568 24.0422 287.122 19.7008C289.745 15.2904 293.299 11.8792 297.786 9.46733C302.342 6.98651 307.415 5.74609 313.006 5.74609C318.459 5.74609 323.394 6.91758 327.811 9.26059C332.229 11.6036 335.68 14.9803 338.165 19.3907C340.719 23.7321 341.996 28.7972 341.996 34.5858ZM313.109 17.9435C309.451 17.9435 306.38 18.9772 303.895 21.0445C301.41 23.1119 299.891 25.9373 299.339 29.5207H326.776C326.224 26.0062 324.705 23.2153 322.221 21.1479C319.736 19.0117 316.699 17.9435 313.109 17.9435ZM407.027 6.57302L383.524 62.185H366.854L343.455 6.57302H360.125L375.552 44.4057L391.496 6.57302H407.027ZM466.664 34.5858L466.352 38.9273H424.214C424.973 42.3729 426.768 45.0949 429.598 47.0933C432.428 49.092 435.949 50.0911 440.159 50.0911C443.058 50.0911 445.612 49.6777 447.821 48.8505C450.098 47.9549 452.203 46.5763 454.136 44.7159L462.732 54.0188C457.484 60.0144 449.822 63.0122 439.745 63.0122C433.464 63.0122 427.907 61.806 423.076 59.3943C418.244 56.9135 414.517 53.5023 411.894 49.1608C409.27 44.8192 407.959 39.892 407.959 34.379C407.959 28.935 409.236 24.0422 411.79 19.7008C414.413 15.2904 417.968 11.8792 422.454 9.46733C427.01 6.98651 432.083 5.74609 437.674 5.74609C443.127 5.74609 448.062 6.91758 452.48 9.26059C456.897 11.6036 460.348 14.9803 462.833 19.3907C465.385 23.7321 466.664 28.7972 466.664 34.5858ZM437.778 17.9435C434.119 17.9435 431.048 18.9772 428.563 21.0445C426.078 23.1119 424.56 25.9373 424.007 29.5207H451.444C450.892 26.0062 449.374 23.2153 446.889 21.1479C444.404 19.0117 441.367 17.9435 437.778 17.9435ZM492.843 13.9122C494.777 11.2246 497.366 9.19166 500.611 7.81343C503.925 6.43521 507.719 5.74609 512 5.74609V20.6311L509.498 20.4623L508.375 20.4244C503.75 20.4244 500.125 21.7337 497.504 24.3523C494.882 26.9021 493.571 30.7612 493.571 35.9296V62.185H477.416V6.57302H492.843V13.9122Z" fill="#192137"/>
</g>
<defs>
<clipPath id="clip0_1_7732">
<rect width="512" height="159" fill="white"/>
</clipPath>
</defs>
</svg>
