<svg width="512" height="102" viewBox="0 0 512 102" fill="none" xmlns="http://www.w3.org/2000/svg">
<g clip-path="url(#clip0_1_7747)">
<path d="M71.0595 35.17V66.4275L43.9944 82.0594V101.596L87.9887 76.199V25.3984L71.0595 35.17Z" fill="#00AC69"/>
<path d="M43.9944 19.5431L71.0594 35.1686L87.9887 25.3971L43.9944 0L0 25.3971L16.9229 35.1686L43.9944 19.5431Z" fill="#1CE783"/>
<path d="M27.0715 60.5735V91.8309L43.9944 101.596V50.8019L0 25.3984V44.9415L27.0715 60.5735Z" fill="#1D252C"/>
<path d="M148.375 25.3266C144.07 25.3266 140.795 26.5625 138.503 27.9108L138.167 28.1137C138.112 28.1476 138.058 28.1816 138.004 28.2155L137.69 28.4194L137.39 28.6229L137.105 28.8251C137.059 28.8586 137.013 28.8921 136.968 28.9255L136.705 29.1242L136.456 29.3195L136.11 29.6044L135.897 29.7877L135.606 30.0504L135.346 30.2961L135.119 30.5219L134.866 30.7871L134.629 31.0513L134.418 31.3084H133.919L132.929 26.3235H121.457V77.1689H133.919V47.7711C133.919 41.2908 138.393 36.8045 144.886 36.8045C151.379 36.8045 155.853 41.278 155.853 47.7711V77.1689H168.315V46.7614C168.315 33.8008 159.841 25.3266 148.375 25.3266ZM282.774 59.7219H282.059L273.584 26.3235H260.905L252.431 59.7219H251.721L243.241 26.3235H230.28L243.241 77.1689H258.419L266.887 44.2689H267.603L276.077 77.1689H291.249L304.209 26.3235H291.249L282.774 59.7219ZM342.369 30.8099H341.87L340.873 26.3363H330.405V77.1752H342.867V47.7775C342.867 41.2972 345.858 38.3063 352.338 38.3063H358.729V26.3299H351.316C347.796 26.3375 344.483 27.9961 342.369 30.8099ZM386.305 25.3266C371.357 25.3266 360.391 36.2932 360.391 51.7462C360.391 67.1992 370.737 78.1658 386.305 78.1658C393.871 78.1658 399.63 75.4947 403.711 72.179L404.113 71.8453C404.444 71.5656 404.763 71.2819 405.07 70.9953L405.434 70.6502C405.911 70.1884 406.359 69.7205 406.777 69.2514L407.086 68.8994C407.136 68.8407 407.186 68.782 407.236 68.7234L407.528 68.3715C407.624 68.2543 407.717 68.1372 407.809 68.0203L408.08 67.6702L408.339 67.3217L408.588 66.9751L408.826 66.6311C408.865 66.5739 408.903 66.5169 408.941 66.4601L409.163 66.1205L409.374 65.7846L409.574 65.4526C409.607 65.3977 409.639 65.3429 409.67 65.2883L398.231 61.211C397.1 63.2816 392.537 67.2631 386.305 67.2631C379.039 67.2631 373.85 62.7128 372.853 55.7596H410.731C411.081 54.1216 411.249 52.4497 411.23 50.7748C411.23 36.2932 400.263 25.3266 386.305 25.3266ZM372.853 47.2598C374.348 40.7796 378.835 35.7947 386.305 35.7947C393.291 35.7947 397.771 40.7796 398.768 47.2598H372.853ZM202.205 25.3266C187.251 25.3266 176.284 36.2932 176.284 51.7462C176.284 67.1992 186.612 78.1658 202.205 78.1658C209.519 78.1658 215.142 75.6698 219.193 72.5083L219.606 72.179C220.15 71.7369 220.664 71.2833 221.149 70.8231L221.506 70.4767C222.27 69.724 222.955 68.9568 223.564 68.1958L223.84 67.8451C223.885 67.7867 223.929 67.7284 223.973 67.6702L224.233 67.3217C224.275 67.2637 224.317 67.2059 224.358 67.1481L224.602 66.8028C224.641 66.7454 224.681 66.6882 224.719 66.6311L224.946 66.2899C224.983 66.2333 225.02 66.1768 225.056 66.1205L225.267 65.7846L225.468 65.4526C225.5 65.3977 225.532 65.3429 225.564 65.2883L214.124 61.211C214.002 61.434 213.841 61.6791 213.642 61.9391L213.462 62.1654C213.084 62.6245 212.598 63.1209 212.014 63.6176L211.714 63.8657C209.559 65.6008 206.232 67.2631 202.205 67.2631C194.939 67.2631 189.743 62.7128 188.746 55.7596H226.631C226.981 54.1216 227.148 52.4497 227.129 50.7748C227.129 36.2932 216.163 25.3266 202.205 25.3266ZM188.746 47.2598C190.242 40.7796 194.728 35.7947 202.205 35.7947C209.184 35.7947 213.67 40.7796 214.667 47.2598H188.746ZM442.334 6.25H454.796V18.7121H442.334V6.25ZM489.185 66.7007C481.708 66.7007 475.726 60.7189 475.726 51.7462C475.726 42.7735 481.708 36.7917 489.185 36.7917C494.485 36.7917 497.531 39.2965 499.211 41.8203L499.385 42.0907C499.414 42.1357 499.441 42.1807 499.469 42.2257L499.628 42.495C499.654 42.5398 499.68 42.5845 499.704 42.6291L499.849 42.8959L499.985 43.16L500.111 43.4209L500.228 43.6779C500.247 43.7204 500.265 43.7626 500.283 43.8047L500.387 44.0545C500.404 44.0957 500.42 44.1366 500.436 44.1773L500.528 44.4184L500.611 44.6529C500.624 44.6914 500.637 44.7296 500.65 44.7674L511.936 40.754L511.767 40.3266L511.589 39.8967L511.4 39.4648C508.372 32.6845 501.692 25.3266 489.185 25.3266C474.23 25.3266 463.264 36.2932 463.264 51.7462C463.264 67.1992 474.23 78.1658 489.185 78.1658C501.532 78.1658 508.199 71.0041 511.277 64.0656L511.473 63.6135C511.536 63.4629 511.598 63.3126 511.658 63.1624L511.834 62.713C511.891 62.5634 511.946 62.4143 512 62.2655L500.65 58.2265L500.571 58.4909L500.485 58.7603L500.391 59.0341C500.375 59.0801 500.358 59.1262 500.341 59.1725L500.234 59.4517C500.216 59.4985 500.197 59.5454 500.178 59.5924L500.058 59.8758L499.93 60.1611L499.793 60.4477C499.769 60.4956 499.745 60.5435 499.72 60.5914L499.569 60.8789C499.543 60.9268 499.516 60.9748 499.489 61.0227L499.323 61.3097C497.669 64.0806 494.606 66.7007 489.185 66.7007ZM412.61 17.3253H419.685V77.1689H432.147V6.25H412.61V17.3253ZM442.334 26.3235H454.796V77.1689H442.334V26.3235Z" fill="#1D252C"/>
</g>
<defs>
<clipPath id="clip0_1_7747">
<rect width="512" height="102" fill="white"/>
</clipPath>
</defs>
</svg>
