<svg width="256" height="291" viewBox="0 0 256 291" fill="none" xmlns="http://www.w3.org/2000/svg">
<g clip-path="url(#clip0_1_7767)">
<path d="M2.05387 218.187C3.37421 220.534 5.28138 222.295 7.62865 223.615L120.591 288.752C125.286 291.539 131.007 291.539 135.555 288.752L248.518 223.615C253.213 220.974 256 215.986 256 210.558V80.2842C256 74.8562 253.213 69.8682 248.518 67.2275L135.555 2.09054C130.861 -0.696848 125.139 -0.696848 120.591 2.09054L7.62865 67.2275C2.78739 69.8682 0 74.8562 0 80.2842V210.705C0 213.346 0.58682 215.84 2.05387 218.187Z" fill="#009639"/>
<path d="M91.8372 195.155C91.8372 203.224 85.3822 209.679 77.3135 209.679C69.2447 209.679 62.7897 203.224 62.7897 195.155V95.5429C62.7897 87.7675 69.6848 81.4592 79.2206 81.4592C86.1157 81.4592 94.1845 84.2466 99.0258 90.2615L103.427 95.5429L164.163 168.162V95.8363C164.163 87.7675 170.618 81.3125 178.687 81.3125C186.755 81.3125 193.21 87.7675 193.21 95.8363V195.449C193.21 203.224 186.315 209.533 176.779 209.533C169.884 209.533 161.815 206.745 156.974 200.73L91.8372 122.977V195.155Z" fill="white"/>
</g>
<defs>
<clipPath id="clip0_1_7767">
<rect width="256" height="291" fill="white"/>
</clipPath>
</defs>
</svg>
