<svg width="512" height="173" viewBox="0 0 512 173" fill="none" xmlns="http://www.w3.org/2000/svg">
<g clip-path="url(#clip0_1_7774)">
<path d="M274.186 82.3756H300.124V61.8023H313.844V114.586H300.124V94.0073H274.186V114.586H260.942V61.8023H274.181V82.3756H274.186ZM366.179 61.8023H344.999C339.132 61.8023 335.56 62.9065 332.859 65.6073C330.169 68.292 329.135 71.7019 329.135 77.7208V98.6892C329.135 104.708 330.163 108.107 332.859 110.803C335.549 113.498 339.121 114.608 344.999 114.608H366.179C372.046 114.608 375.619 113.498 378.319 110.803C381.026 108.118 382.043 104.708 382.043 98.6892V77.7208C382.043 71.7019 381.015 68.3028 378.319 65.6019C375.613 62.9065 372.046 61.8023 366.179 61.8023ZM368.793 98.9977C368.793 102.083 367.765 102.949 364.036 102.949H347.143C343.419 102.949 342.38 102.083 342.38 98.9977V77.3906C342.38 74.3 343.419 73.434 347.143 73.434H364.036C367.851 73.434 368.799 74.2188 368.799 77.3852V98.9977H368.793ZM414.865 82.9223H433.815C439.682 82.9223 443.33 84.0319 445.955 86.7273C448.331 89.1089 449.679 92.9789 449.679 97.1737V100.345C449.679 104.546 448.326 108.334 445.955 110.792C443.33 113.487 439.758 114.597 433.815 114.597H397.653V102.96H431.596C435.32 102.96 436.359 102.094 436.359 99.0085V97.4281C436.359 94.3375 435.32 93.4714 431.596 93.4714H412.652C406.768 93.4714 403.125 92.351 400.511 89.6664C398.135 87.2848 396.782 83.4202 396.782 79.2201V76.0537C396.782 71.8535 398.124 68.0593 400.511 65.6073C403.136 62.9065 406.692 61.8023 412.646 61.8023H446.924V73.434H414.865C411.141 73.434 410.108 74.3 410.108 77.3852V78.9657C410.108 82.0617 411.141 82.9277 414.871 82.9277L414.865 82.9223ZM458.074 73.434V61.7969H512V73.434H491.703V114.586H478.453V73.434H458.069H458.074Z" fill="#21324B"/>
<path d="M229.251 61.3882H208.071C202.204 61.3882 198.632 62.4924 195.931 65.1933C193.241 67.8779 192.207 71.2879 192.207 77.2959V114.578H205.452V76.9765C205.452 73.8913 206.485 73.0253 210.215 73.0253H227.108C230.918 73.0253 231.865 73.8156 231.865 76.9765V114.583H245.115V77.3013C245.115 71.2825 244.081 67.8833 241.386 65.1987C238.696 62.4924 235.129 61.3828 229.251 61.3828V61.3882Z" fill="#0052CD"/>
<path d="M147.266 37.1278L86.8994 2.33557C81.4569 -0.778525 74.7725 -0.778525 69.3301 2.33557C63.911 5.4681 60.5686 11.2478 60.5562 17.5071V22.0483L56.6213 19.775C51.1788 16.6609 44.4944 16.6609 39.0519 19.775C33.6254 22.9132 30.2819 28.7049 30.2781 34.9736V39.5093L26.3432 37.2415C20.9021 34.1294 14.2203 34.1294 8.77925 37.2415C3.35727 40.3744 0.0126257 46.1564 0 52.4184V161.407C0.00822095 164.566 1.81821 167.444 4.66243 168.82C7.50664 170.196 10.8867 169.829 13.3691 167.875L43.3008 144.308L89.4704 170.906C92.0323 172.357 95.1681 172.357 97.73 170.906C100.274 169.434 101.86 166.706 101.86 163.767V98.1928C101.84 87.3943 96.0721 77.4231 86.7208 72.0229L71.5817 63.2977V17.5233C71.5873 15.1863 72.8378 13.0293 74.8631 11.8633C76.8884 10.6972 79.3817 10.6986 81.4056 11.8672L141.772 46.6432C147.721 50.08 151.391 56.4225 151.407 63.2923V144.963C151.407 147.291 150.151 149.456 148.132 150.619L132.138 159.837V80.7318C132.116 69.9351 126.349 59.9665 116.999 54.5672L79.8359 33.1604V45.8421L111.494 64.0826C117.445 67.517 121.116 73.861 121.129 80.7318V164.584C121.129 167.507 122.709 170.251 125.259 171.723C127.821 173.173 130.956 173.173 133.518 171.723L153.648 160.124C159.06 157.001 162.427 151.193 162.427 144.941V63.2707C162.378 52.4815 156.606 42.5291 147.266 37.1278ZM81.1891 81.5328C87.1416 84.9682 90.8129 91.3147 90.8235 98.1874V159.025L52.5997 137.001L64.8701 127.356C69.1053 124.049 71.5747 118.97 71.5601 113.597V76.0011L81.1945 81.5382L81.1891 81.5328ZM60.5508 69.6413V113.575C60.5508 115.594 59.6361 117.473 58.0556 118.707L11.0038 155.729V52.4022C11.0072 50.0654 12.2563 47.9078 14.2812 46.7413C16.306 45.5749 18.7991 45.5766 20.8223 46.746L30.2781 52.1857V130.073L41.2819 121.413V34.9628C41.2842 32.6243 42.5341 30.4648 44.5606 29.298C46.5872 28.1312 49.0823 28.1345 51.1058 29.3066L60.5508 34.7408V56.9434L49.5524 50.5998V63.2923L60.5616 69.6413H60.5508Z" fill="#0052CD"/>
</g>
<defs>
<clipPath id="clip0_1_7774">
<rect width="512" height="173" fill="white"/>
</clipPath>
</defs>
</svg>
