<svg width="256" height="273" viewBox="0 0 256 273" fill="none" xmlns="http://www.w3.org/2000/svg">
<g clip-path="url(#clip0_1_7771)">
<path d="M232.105 58.5169L136.962 3.68109C128.384 -1.22703 117.849 -1.22703 109.271 3.68109C100.73 8.61824 95.4617 17.7276 95.4423 27.5928V34.7502L89.2404 31.1672C80.6626 26.2591 70.1274 26.2591 61.5495 31.1672C52.9967 36.1133 47.7271 45.2417 47.7211 55.1217V62.2704L41.5193 58.696C32.9436 53.7912 22.4126 53.7912 13.8369 58.696C5.29137 63.6339 0.0198993 72.7468 0 82.6163V254.392C0.012957 259.372 2.86567 263.908 7.34842 266.077C11.8312 268.245 17.1584 267.667 21.071 264.586L68.2462 227.443L141.014 269.364C145.052 271.651 149.994 271.651 154.032 269.364C158.041 267.043 160.541 262.744 160.541 258.111V154.761C160.51 137.742 151.419 122.026 136.68 113.515L112.819 99.7632V27.6184C112.828 23.9351 114.799 20.5355 117.991 18.6976C121.183 16.8597 125.113 16.8621 128.303 18.7038L223.447 73.514C232.822 78.9308 238.606 88.9271 238.631 99.7547V228.476C238.631 232.144 236.652 235.556 233.47 237.39L208.262 251.918V127.241C208.228 110.224 199.137 94.5128 184.401 86.0031L125.829 52.2638V72.2514L175.725 101C185.104 106.413 190.89 116.412 190.91 127.241V259.4C190.91 264.006 193.401 268.331 197.419 270.652C201.458 272.937 206.399 272.937 210.437 270.652L242.163 252.37C250.694 247.448 256 238.294 256 228.441V99.7205C255.923 82.7158 246.826 67.0298 232.105 58.5169ZM127.962 128.503C137.343 133.918 143.13 143.921 143.146 154.753V250.638L82.9021 215.927L102.241 200.725C108.916 195.513 112.808 187.509 112.785 179.04V119.785L127.97 128.512L127.962 128.503ZM95.4338 109.761V179.006C95.4338 182.188 93.9921 185.148 91.5011 187.093L17.3431 245.443V82.5907C17.3483 78.9078 19.3172 75.5071 22.5085 73.6687C25.6998 71.8303 29.6292 71.8331 32.8179 73.6761L47.7211 82.2495V205.007L65.0642 191.358V55.1046C65.0677 51.419 67.0377 48.0154 70.2317 46.1764C73.4258 44.3374 77.3584 44.3426 80.5476 46.1899L95.4338 54.7548V89.7481L78.0992 79.75V99.7547L95.4508 109.761H95.4338Z" fill="#0052CD"/>
</g>
<defs>
<clipPath id="clip0_1_7771">
<rect width="256" height="273" fill="white"/>
</clipPath>
</defs>
</svg>
