<svg width="256" height="272" viewBox="0 0 256 272" fill="none" xmlns="http://www.w3.org/2000/svg">
<g clip-path="url(#clip0_1_7779)">
<path d="M5.30311 184.602L54.5783 233.877H256V241.375H54.5765L24.0501 271.898L18.747 266.598L47.7223 237.627L0 189.905L5.30311 184.602Z" fill="#452815"/>
<path d="M145.135 229C201.29 229 246.813 189.922 246.813 141.717C246.813 93.5115 201.29 54.4336 145.135 54.4336C88.9807 54.4336 43.4583 93.5115 43.4583 141.717C43.4583 189.922 88.9807 229 145.135 229Z" fill="#794422"/>
<path d="M145.132 0C158.344 0 170.845 4.2665 181.971 11.8698L213.175 0.387295C216.179 -0.721061 219.295 1.61695 219.146 4.76052L219.122 5.0575L214.054 50.2533C223.641 69.3969 229.267 92.7172 229.267 117.879C229.267 182.975 191.599 235.749 145.134 235.749C98.6695 235.749 61.0037 182.975 61.0037 117.879C61.0037 93.4228 66.3187 70.7063 75.4184 51.8737L70.1589 5.0575C69.7943 1.76644 73.0098 -0.755697 76.1138 0.387295L107.953 12.106C119.164 4.35491 131.785 0 145.132 0Z" fill="#502D17"/>
<path d="M178.35 33.0703C200.024 33.0684 217.588 53.0831 217.588 77.7717C217.588 101.993 200.677 121.714 179.566 122.446C194.212 132.362 203.732 148.439 203.732 166.587C203.732 196.705 177.496 221.126 145.132 221.126C112.769 221.126 86.5348 196.705 86.5348 166.587C86.5348 148.449 96.0434 132.379 110.673 122.462L109.872 122.444C88.8029 121.665 71.9329 101.963 71.9329 77.7717C71.9329 53.0869 89.4985 33.076 111.167 33.076C125.414 33.076 137.888 41.7277 144.761 54.671C151.632 41.7236 164.106 33.0703 178.35 33.0703ZM144.76 100.873C142.34 105.432 139.225 109.458 135.582 112.761C138.689 112.285 141.879 112.039 145.132 112.039C148.077 112.039 150.972 112.241 153.801 112.632C150.217 109.355 147.15 105.374 144.76 100.873Z" fill="white"/>
<path d="M141.912 93.0012C144.077 92.1473 146.503 92.1737 148.647 93.0711C155.488 95.9163 160.385 99.4114 164.689 104.493C166.115 106.181 166.2 108.612 165.027 110.48C160.544 117.626 155.111 122.997 148.183 128.322C146.488 129.624 144.113 129.624 142.419 128.322C135.491 122.999 130.057 117.626 125.572 110.48C124.408 108.629 124.51 106.224 125.922 104.554C130.392 99.2735 134.754 95.8181 141.912 93.0012Z" fill="#FF7F2B"/>
<path d="M141.238 138.934C141.238 143.266 137.73 146.778 133.399 146.778C129.064 146.778 125.553 143.266 125.553 138.934H141.238ZM165.065 138.934C165.065 143.266 161.555 146.778 157.221 146.778C152.887 146.778 149.377 143.266 149.377 138.934H165.065ZM129.328 154.567C129.328 158.903 125.816 162.411 121.482 162.411C117.15 162.411 113.64 158.903 113.64 154.567H129.328ZM153.15 154.567C153.15 158.903 149.641 162.411 145.309 162.411C140.977 162.411 137.463 158.903 137.463 154.567H153.15ZM176.979 154.567C176.979 158.903 173.465 162.411 169.134 162.411C164.804 162.411 161.292 158.903 161.292 154.567H176.979ZM117.413 169.859C117.413 174.196 113.904 177.703 109.57 177.703C105.238 177.703 101.73 174.196 101.73 169.859H117.413ZM141.238 169.859C141.238 174.196 137.73 177.703 133.399 177.703C129.064 177.703 125.553 174.196 125.553 169.859H141.238ZM165.065 169.859C165.065 174.196 161.555 177.703 157.221 177.703C152.887 177.703 149.377 174.196 149.377 169.859H165.065ZM188.886 169.859C188.886 174.196 185.378 177.703 181.046 177.703C176.714 177.703 173.202 174.196 173.202 169.859H188.886ZM129.328 185.496C129.328 189.832 125.816 193.34 121.482 193.34C117.15 193.34 113.64 189.832 113.64 185.496H129.328ZM153.15 185.496C153.15 189.832 149.641 193.34 145.309 193.34C140.977 193.34 137.463 189.832 137.463 185.496H153.15ZM176.979 185.496C176.979 189.832 173.465 193.34 169.134 193.34C164.804 193.34 161.292 189.832 161.292 185.496H176.979ZM141.238 200.787C141.238 205.123 137.73 208.632 133.399 208.632C129.064 208.632 125.553 205.123 125.553 200.787H141.238ZM165.065 200.787C165.065 205.123 161.555 208.632 157.221 208.632C152.887 208.632 149.377 205.123 149.377 200.787H165.065Z" fill="#D6D6D6"/>
<path d="M116.291 95.5966C128.899 95.5966 139.12 85.3754 139.12 72.767C139.12 60.1585 128.899 49.9374 116.291 49.9374C103.682 49.9374 93.4609 60.1585 93.4609 72.767C93.4609 85.3754 103.682 95.5966 116.291 95.5966ZM172.146 95.6004C184.757 95.6004 194.979 85.3775 194.979 72.767C194.979 60.1565 184.757 49.9336 172.146 49.9336C159.535 49.9336 149.313 60.1565 149.313 72.767C149.313 85.3775 159.535 95.6004 172.146 95.6004Z" fill="#C2DDEB"/>
<path d="M116.29 87.0496C124.18 87.0496 130.575 80.6542 130.575 72.765C130.575 64.8759 124.18 58.4805 116.29 58.4805C108.401 58.4805 102.006 64.8759 102.006 72.765C102.006 80.6542 108.401 87.0496 116.29 87.0496ZM172.146 87.0496C180.035 87.0496 186.43 80.6542 186.43 72.765C186.43 64.8759 180.035 58.4805 172.146 58.4805C164.257 58.4805 157.861 64.8759 157.861 72.765C157.861 80.6542 164.257 87.0496 172.146 87.0496Z" fill="black"/>
<path d="M119.888 72.7655C122.807 72.7655 125.174 70.3988 125.174 67.4794C125.174 64.56 122.807 62.1933 119.888 62.1933C116.968 62.1933 114.602 64.56 114.602 67.4794C114.602 70.3988 116.968 72.7655 119.888 72.7655ZM175.743 72.7674C178.664 72.7674 181.031 70.3999 181.031 67.4794C181.031 64.5589 178.664 62.1914 175.743 62.1914C172.823 62.1914 170.455 64.5589 170.455 67.4794C170.455 70.3999 172.823 72.7674 175.743 72.7674Z" fill="white"/>
<path d="M192.521 235.772C192.521 241.791 189.196 246.669 185.108 246.669C181.01 246.669 177.687 241.791 177.687 235.772C177.687 241.791 174.366 246.669 170.268 246.669C166.174 246.669 162.849 241.791 162.849 235.772C162.849 241.791 159.532 246.669 155.432 246.669C151.34 246.669 148.017 241.791 148.017 235.772C148.017 227.263 157.948 220.371 170.202 220.371C182.452 220.371 192.385 227.263 192.385 235.772H192.521ZM141.918 235.772C141.918 241.791 138.595 246.669 134.501 246.669C130.405 246.669 127.082 241.791 127.082 235.772C127.082 241.791 123.764 246.669 119.665 246.669C115.569 246.669 112.253 241.791 112.253 235.772C112.253 241.791 108.928 246.669 104.832 246.669C100.738 246.669 97.417 241.791 97.417 235.772C97.417 227.263 107.349 220.371 119.6 220.371C131.854 220.371 141.792 227.263 141.792 235.772H141.918Z" fill="#FF7F2B"/>
</g>
<defs>
<clipPath id="clip0_1_7779">
<rect width="256" height="272" fill="white"/>
</clipPath>
</defs>
</svg>
