<svg width="256" height="256" viewBox="0 0 256 256" fill="none" xmlns="http://www.w3.org/2000/svg">
<g clip-path="url(#clip0_1_7796)">
<path d="M211.571 256H44.4292C19.8917 256 0 236.108 0 211.571V44.4292C0 19.8917 19.8917 0 44.4292 0H211.571C236.108 0 256 19.8917 256 44.4292V211.571C256 236.108 236.108 256 211.571 256Z" fill="#0381FD"/>
<path d="M162.303 117.772C157.307 117.551 153.02 121.501 152.79 126.538C152.561 131.63 156.311 135.876 161.357 136.238C166.54 136.605 171.007 132.492 171.124 127.242C171.236 122.126 167.39 117.997 162.303 117.772ZM93.807 136.255C98.8529 136.372 103.003 132.417 103.165 127.338C103.332 122.067 99.1695 117.751 93.9445 117.767C88.9112 117.788 84.8529 121.867 84.8235 126.938C84.7945 132.017 88.7654 136.134 93.807 136.255ZM165.636 59.9174C163.478 65.5299 161.357 71.0466 159.107 76.8924C161.161 77.7174 162.803 78.3966 164.461 79.0383C202.661 93.7841 229.315 130.951 230.549 171.209C230.815 179.897 230.015 180.751 221.495 180.755C202.57 180.759 183.645 180.755 164.715 180.755H158.636C160.803 186.367 162.678 191.23 164.603 196.226H200.253C208.011 190.663 214.399 190.459 219.103 195.722C223.174 200.28 223.032 208.126 218.795 212.588C213.945 217.688 207.478 217.313 200.061 211.363C187.795 211.363 175.345 211.372 162.899 211.359C155.97 211.351 154.453 210.222 151.965 203.609C149.165 196.167 146.303 188.751 143.378 181.088H118.645C115.686 188.742 112.711 196.451 109.724 204.155C107.278 210.451 105.736 211.434 98.9529 211.417C85.8445 211.384 72.7362 211.409 59.8112 211.409C52.457 217.363 45.957 217.692 41.1029 212.501C36.832 207.93 36.7445 200.355 40.907 195.655C45.5779 190.38 52.3445 190.584 59.6029 196.347H97.2612C99.1445 191.526 101.057 186.638 103.24 181.042C101.099 180.934 99.3737 180.767 97.6529 180.767C76.2362 180.751 54.8195 180.767 33.4029 180.747C26.4112 180.742 25.3112 179.584 25.4154 172.617C26.0612 129.688 54.7529 91.2258 96.3195 77.5549C98.1862 76.9424 100.049 76.3216 102.407 75.5424C100.378 70.2633 98.4404 65.2299 96.4279 59.9966H59.8029C51.132 66.9383 45.2445 65.2049 40.7445 60.2841C36.4945 55.6383 36.8695 47.9674 41.2112 43.4633C46.082 38.4091 52.1945 38.7799 60.007 44.7383C72.7654 44.7383 85.7154 44.9008 98.657 44.6549C103.986 44.5549 106.97 46.7591 108.72 51.6216C111.236 58.6258 114.057 65.5216 116.928 72.9258C128.099 71.7008 136.79 71.9299 145.036 72.9258C147.511 66.5258 150.224 59.4466 152.99 52.3883C155.54 45.8841 157.199 44.7508 164.09 44.7383C176.045 44.7216 187.995 44.7341 199.815 44.7341C208.52 37.2841 214.878 39.4174 219.257 44.0758C223.449 48.5383 223.078 56.5591 218.786 60.8966C213.778 65.9591 207.457 65.6591 200.486 59.9174H165.636Z" fill="white"/>
<path d="M93.8066 136.253C88.765 136.136 84.7941 132.016 84.8232 126.936C84.8525 121.87 88.9108 117.786 93.9442 117.77C99.1692 117.749 103.332 122.066 103.165 127.336C103.002 132.416 98.8525 136.37 93.8066 136.253Z" fill="#0381FD"/>
<path d="M162.303 117.771C167.39 117.996 171.236 122.125 171.124 127.241C171.007 132.491 166.54 136.604 161.357 136.237C156.311 135.875 152.561 131.629 152.79 126.537C153.02 121.5 157.307 117.55 162.303 117.771Z" fill="#0381FD"/>
</g>
<defs>
<clipPath id="clip0_1_7796">
<rect width="256" height="256" fill="white"/>
</clipPath>
</defs>
</svg>
