<svg width="256" height="257" viewBox="0 0 256 257" fill="none" xmlns="http://www.w3.org/2000/svg">
<g clip-path="url(#clip0_1_7802)">
<path d="M192.083 0L127.84 43.18L128.073 44.578L190.479 86.181L192.083 86.221L192.886 84.862L193.041 1.887L192.083 0Z" fill="#138EE2"/>
<path d="M62.9208 174.227L62.7088 252.438L64.3328 256.331L128.258 213.923L127.815 211.641L69.0508 172.324L64.3328 171.109L62.9208 174.227Z" fill="#00BDFF"/>
<path d="M192.083 0V86.221L64.9154 0.998L64.1254 4.536L251.049 212.488L255.999 214.304V42.777L192.083 0Z" fill="#00BDFF"/>
<path d="M0 42.945V213.723L64.333 256.334V171.112L192.083 256.667L255.667 214.056L64.915 1L0 42.945Z" fill="#00E1FF"/>
</g>
<defs>
<clipPath id="clip0_1_7802">
<rect width="256" height="257" fill="white"/>
</clipPath>
</defs>
</svg>
