<svg width="256" height="256" viewBox="0 0 256 256" fill="none" xmlns="http://www.w3.org/2000/svg">
<g clip-path="url(#clip0_1_7811)">
<path d="M256 0H0V256H256V0Z" fill="#F7DF1E"/>
<path d="M220.123 150.25H134.206C125.392 150.25 118.248 157.812 118.248 166.808V212.544H235.507V166.808C235.507 157.812 228.938 150.25 220.123 150.25ZM150.755 187.413C144.955 187.413 140.253 182.614 140.253 176.694C140.253 170.775 144.955 165.975 150.755 165.975C156.556 165.975 161.256 170.775 161.256 176.694C161.256 182.614 156.556 187.413 150.755 187.413ZM204.464 187.413C198.664 187.413 193.962 182.614 193.962 176.694C193.962 170.775 198.664 165.975 204.464 165.975C210.262 165.975 214.964 170.775 214.964 176.694C214.964 182.614 210.262 187.413 204.464 187.413Z" fill="#2E2E2C"/>
<path d="M140.44 216.75H212.989C215.071 216.75 216.755 218.471 216.755 220.594C216.755 222.718 215.071 224.439 212.989 224.439H140.44C138.36 224.439 136.673 222.718 136.673 220.594C136.673 218.472 138.36 216.75 140.44 216.75Z" fill="#2E2E2C"/>
<path d="M152.708 227.992H201.371C203.452 227.992 205.138 229.714 205.138 231.839C205.138 233.963 203.452 235.682 201.371 235.682H152.708C150.628 235.682 148.941 233.963 148.941 231.839C148.941 229.714 150.628 227.992 152.708 227.992Z" fill="#2E2E2C"/>
<path d="M185.686 121.435C185.686 117.111 182.363 113.605 178.125 113.605C173.892 113.605 170.771 117.111 170.771 121.435C170.771 124.123 171.991 126.494 174.434 127.904V141.226C174.434 143.509 175.865 145.358 178.099 145.358C180.335 145.358 181.763 143.509 181.763 141.226V128.126C184.206 126.753 185.686 124.275 185.686 121.435Z" fill="#2E2E2C"/>
</g>
<defs>
<clipPath id="clip0_1_7811">
<rect width="256" height="256" fill="white"/>
</clipPath>
</defs>
</svg>
