<svg width="256" height="292" viewBox="0 0 256 292" fill="none" xmlns="http://www.w3.org/2000/svg">
<g clip-path="url(#clip0_1_7852)">
<path d="M120.947 289.19C125.205 291.652 130.458 291.652 134.716 289.19L248.798 223.36C253.064 220.9 255.69 216.352 255.69 211.425V79.6635C255.69 74.7403 253.063 70.1953 248.804 67.7299L134.725 1.84621C130.458 -0.615403 125.205 -0.615403 120.939 1.84621L6.88907 67.7299C2.62687 70.1944 0 74.7413 0 79.6635V211.433C0 216.352 2.62687 220.899 6.89194 223.359L120.946 289.189" fill="#76D04B"/>
<path d="M201.701 114.112L196.614 111.184C204.437 99.6453 209.112 82.2966 203.25 56.3594C203.25 56.3594 190.048 93.3581 163.51 92.1325L132.437 74.2507C131.265 73.5553 129.951 73.1971 128.624 73.1427H127.907C126.582 73.1981 125.271 73.5563 124.083 74.2507L93.0063 92.1325C66.4711 93.3619 53.2652 56.3594 53.2652 56.3594C47.4001 82.2956 52.0826 99.6444 59.904 111.184L54.8174 114.113C52.2335 115.602 50.6268 118.368 50.6268 121.384L50.7797 228.716C50.7797 230.214 51.5553 231.601 52.8697 232.33C54.1535 233.105 55.743 233.105 57.0249 232.33L98.1893 208.759C100.794 207.211 102.378 204.482 102.378 201.499V151.356C102.378 148.367 103.962 145.594 106.555 144.113L124.084 134.019C125.389 133.259 126.818 132.889 128.277 132.889C129.703 132.889 131.169 133.259 132.439 134.018L149.962 144.112C152.556 145.593 154.145 148.366 154.145 151.354V201.497C154.145 204.48 155.75 207.23 158.339 208.757L199.493 232.328C200.784 233.102 202.397 233.102 203.677 232.328C204.952 231.599 205.754 230.211 205.754 228.713L205.888 121.381C205.885 118.363 204.302 115.598 201.702 114.11L201.701 114.112Z" fill="#4F4D3F"/>
</g>
<defs>
<clipPath id="clip0_1_7852">
<rect width="256" height="292" fill="white"/>
</clipPath>
</defs>
</svg>
