<svg width="256" height="290" viewBox="0 0 256 290" fill="none" xmlns="http://www.w3.org/2000/svg">
<g clip-path="url(#clip0_1_7862)">
<path d="M127.866 286.235C125.126 286.235 122.615 285.55 120.788 284.636L10.5034 221.16C6.6217 218.877 3.42505 213.168 3.42505 208.83V81.4203C3.42505 77.082 6.85004 71.3737 10.5034 69.0904L120.788 5.61395C122.615 4.47229 125.126 4.01562 127.866 4.01562C130.606 4.01562 133.118 4.70062 134.945 5.61395L245.001 69.3187C248.883 71.6021 252.079 77.3104 252.079 81.6487V208.83C252.079 213.168 248.654 218.877 245.001 221.16L134.945 284.865C133.118 285.778 130.606 286.235 127.866 286.235Z" fill="#3D3B47"/>
<path d="M127.866 7.43982C129.921 7.43982 131.976 7.89648 133.346 8.58148L243.402 72.0579C246.142 73.6562 248.882 78.2229 248.882 81.4196V208.601C248.882 211.797 246.142 216.364 243.402 217.962L133.346 281.667C131.976 282.352 129.921 282.809 127.866 282.809C125.811 282.809 123.756 282.352 122.386 281.667L12.33 218.191C9.58997 216.592 6.84998 212.026 6.84998 208.829V81.4196C6.84998 78.2229 9.58997 73.6562 12.33 72.0579L122.386 8.58148C123.756 7.89648 125.811 7.43982 127.866 7.43982ZM127.866 0.589844C124.67 0.589844 121.473 1.27484 118.961 2.64484L8.90497 66.1213C4.10999 69.0896 0 75.9396 0 81.4196V208.601C0 214.309 3.88165 221.159 8.90497 223.899L118.961 287.604C121.473 288.974 124.67 289.659 127.866 289.659C131.063 289.659 134.26 288.974 136.771 287.604L246.827 223.899C251.622 221.159 255.732 214.309 255.732 208.601V81.4196C255.732 75.7112 251.851 68.8613 246.827 66.1213L136.771 2.64484C134.26 1.27484 131.063 0.589844 127.866 0.589844Z" fill="#CCCCCC"/>
<path d="M127.866 135.306H128.551C131.748 135.534 134.716 137.361 136.543 140.101C137.456 141.699 137.913 143.754 137.913 145.809C137.456 151.061 133.346 154.943 128.095 154.943H127.41C124.213 154.714 121.245 152.888 119.418 150.148C118.505 148.549 118.048 146.494 118.048 144.439C118.276 139.416 122.615 135.306 127.866 135.306ZM127.866 134.621C122.386 134.621 117.82 138.959 117.363 144.439C117.135 146.494 117.591 148.549 118.733 150.376C120.56 153.344 123.528 155.399 127.181 155.628H127.866C133.346 155.628 137.913 151.289 138.37 145.809C138.598 143.754 137.913 141.699 137 139.873C135.173 136.904 132.205 134.849 128.551 134.621H127.866Z" fill="#EFF3F3"/>
<path d="M128.095 141.698C129.921 141.926 131.52 143.524 131.291 145.351C131.063 147.178 129.465 148.776 127.638 148.548C125.811 148.319 124.213 146.721 124.441 144.894C124.441 143.068 126.268 141.469 128.095 141.698Z" fill="#EFF3F3"/>
<path d="M127.866 159.053H126.953C122.386 158.825 118.048 156.085 115.765 152.203C114.395 149.692 113.71 146.952 113.938 144.212C114.166 141.015 115.536 138.047 117.591 135.763V135.535L27.3999 204.263L131.063 158.597C129.921 158.825 129.008 159.053 127.866 159.053Z" fill="#EFF3F3"/>
<path d="M124.441 131.654C125.811 131.426 127.181 131.197 128.779 131.197C133.346 131.426 137.684 134.166 139.968 138.047C141.338 140.559 142.023 143.299 141.794 146.039C141.566 149.464 140.196 152.432 137.913 154.716L229.017 87.5859L124.441 131.654Z" fill="#0977F7"/>
</g>
<defs>
<clipPath id="clip0_1_7862">
<rect width="256" height="290" fill="white"/>
</clipPath>
</defs>
</svg>
