<svg width="512" height="314" viewBox="0 0 512 314" fill="none" xmlns="http://www.w3.org/2000/svg">
<g clip-path="url(#clip0_1_7823)">
<path d="M253.111 313.093C251.377 313.093 249.759 312.631 248.256 311.822L232.885 302.691C230.573 301.42 231.729 300.958 232.423 300.727C235.543 299.686 236.121 299.455 239.357 297.606C239.704 297.375 240.166 297.49 240.513 297.722L252.302 304.772C252.764 305.003 253.342 305.003 253.689 304.772L299.803 278.074C300.265 277.843 300.497 277.38 300.497 276.802V223.522C300.497 222.944 300.265 222.482 299.803 222.251L253.689 195.668C253.226 195.437 252.648 195.437 252.302 195.668L206.187 222.251C205.725 222.482 205.493 223.06 205.493 223.522V276.802C205.493 277.265 205.725 277.843 206.187 278.074L218.785 285.355C225.604 288.822 229.88 284.777 229.88 280.732V228.145C229.88 227.452 230.458 226.758 231.267 226.758H237.161C237.855 226.758 238.548 227.336 238.548 228.145V280.732C238.548 289.862 233.578 295.179 224.91 295.179C222.252 295.179 220.172 295.179 214.277 292.29L202.142 285.355C199.137 283.621 197.288 280.385 197.288 276.918V223.638C197.288 220.17 199.137 216.934 202.142 215.201L248.256 188.503C251.146 186.885 255.075 186.885 257.965 188.503L304.079 215.201C307.084 216.934 308.934 220.17 308.934 223.638V276.918C308.934 280.385 307.084 283.621 304.079 285.355L257.965 312.053C256.462 312.746 254.729 313.093 253.111 313.093ZM267.326 276.456C247.101 276.456 242.94 267.21 242.94 259.35C242.94 258.657 243.518 257.964 244.327 257.964H250.337C251.03 257.964 251.608 258.426 251.608 259.119C252.533 265.245 255.191 268.25 267.442 268.25C277.15 268.25 281.311 266.054 281.311 260.853C281.311 257.848 280.155 255.652 265.015 254.15C252.417 252.878 244.558 250.104 244.558 240.049C244.558 230.688 252.417 225.14 265.593 225.14C280.386 225.14 287.668 230.225 288.592 241.321C288.592 241.667 288.477 242.014 288.246 242.361C288.014 242.592 287.668 242.823 287.321 242.823H281.311C280.733 242.823 280.155 242.361 280.04 241.783C278.653 235.426 275.07 233.346 265.593 233.346C254.96 233.346 253.689 237.044 253.689 239.818C253.689 243.17 255.191 244.21 269.522 246.059C283.738 247.908 290.442 250.567 290.442 260.506C290.326 270.677 282.005 276.456 267.326 276.456Z" fill="#539E43"/>
<path d="M110.028 104.712C110.028 102.632 108.872 100.667 107.023 99.6267L58.019 71.4262C57.21 70.9639 56.2854 70.7328 55.3608 70.6172H54.8985C53.9739 70.6172 53.0493 70.9639 52.2402 71.4262L3.23617 99.6267C1.38696 100.667 0.231201 102.632 0.231201 104.712L0.346777 180.53C0.346777 181.57 0.924655 182.61 1.84926 183.072C2.77386 183.65 3.92962 183.65 4.73865 183.072L33.8637 166.429C35.7129 165.389 36.8687 163.424 36.8687 161.344V125.862C36.8687 123.782 38.0244 121.817 39.8736 120.777L52.2402 113.611C53.1648 113.033 54.205 112.802 55.2452 112.802C56.2854 112.802 57.3256 113.033 58.1346 113.611L70.5012 120.777C72.3504 121.817 73.5061 123.782 73.5061 125.862V161.344C73.5061 163.424 74.6619 165.389 76.5111 166.429L105.636 183.072C106.561 183.65 107.717 183.65 108.641 183.072C109.566 182.61 110.144 181.57 110.144 180.53L110.028 104.712Z" fill="#333333"/>
<path d="M345.571 0.346727C344.646 -0.115576 343.491 -0.115576 342.682 0.346727C341.757 0.924605 341.179 1.84921 341.179 2.88939V78.0135C341.179 78.707 340.832 79.4005 340.139 79.8628C339.446 80.2095 338.752 80.2095 338.059 79.8628L325.808 72.8126C323.958 71.7725 321.763 71.7725 319.913 72.8126L270.909 101.129C269.06 102.169 267.904 104.134 267.904 106.214V162.73C267.904 164.811 269.06 166.776 270.909 167.816L319.913 196.132C321.763 197.172 323.958 197.172 325.808 196.132L374.812 167.816C376.661 166.776 377.817 164.811 377.817 162.73V21.8438C377.817 19.6479 376.661 17.6831 374.812 16.6429L345.571 0.346727ZM341.064 144.123C341.064 144.701 340.833 145.163 340.37 145.394L323.612 155.102C323.149 155.334 322.572 155.334 322.109 155.102L305.351 145.394C304.888 145.163 304.657 144.585 304.657 144.123V124.706C304.657 124.128 304.888 123.666 305.351 123.435L322.109 113.726C322.572 113.495 323.149 113.495 323.612 113.726L340.37 123.435C340.833 123.666 341.064 124.244 341.064 124.706V144.123Z" fill="#333333"/>
<path d="M508.648 124.245C510.498 123.204 511.538 121.24 511.538 119.159V105.406C511.538 103.325 510.382 101.361 508.648 100.32L459.991 72.12C458.142 71.0798 455.946 71.0798 454.097 72.12L405.093 100.436C403.243 101.476 402.088 103.441 402.088 105.521V162.038C402.088 164.118 403.243 166.083 405.093 167.123L453.75 194.861C455.599 195.901 457.795 195.901 459.529 194.861L489.001 178.45C489.925 177.987 490.503 176.947 490.503 175.907C490.503 174.867 489.925 173.827 489.001 173.364L439.765 145.048C438.841 144.47 438.263 143.546 438.263 142.506V124.822C438.263 123.782 438.841 122.742 439.765 122.28L455.137 113.496C456.061 112.918 457.217 112.918 458.142 113.496L473.513 122.28C474.438 122.858 475.016 123.782 475.016 124.822V138.692C475.016 139.732 475.594 140.772 476.518 141.234C477.443 141.812 478.599 141.812 479.523 141.234L508.648 124.245Z" fill="#333333"/>
<path d="M456.293 121.587C456.639 121.356 457.102 121.356 457.448 121.587L466.81 127.019C467.157 127.251 467.388 127.597 467.388 128.06V138.924C467.388 139.386 467.157 139.733 466.81 139.964L457.448 145.396C457.102 145.627 456.639 145.627 456.293 145.396L446.931 139.964C446.584 139.733 446.353 139.386 446.353 138.924V128.06C446.353 127.597 446.584 127.251 446.931 127.019L456.293 121.587Z" fill="#539E43"/>
<path d="M191.971 72.3504C190.122 71.3103 187.926 71.3103 186.077 72.3504L137.419 100.435C135.57 101.476 134.53 103.44 134.53 105.521V161.806C134.53 163.886 135.686 165.851 137.419 166.891L186.077 194.976C187.926 196.016 190.122 196.016 191.971 194.976L240.628 166.891C242.478 165.851 243.518 163.886 243.518 161.806V105.521C243.518 103.44 242.362 101.476 240.628 100.435L191.971 72.3504Z" fill="url(#paint0_linear_1_7823)"/>
</g>
<defs>
<linearGradient id="paint0_linear_1_7823" x1="7566.24" y1="2243.19" x2="2232.72" y2="10623.4" gradientUnits="userSpaceOnUse">
<stop stop-color="#41873F"/>
<stop offset="0.3288" stop-color="#418B3D"/>
<stop offset="0.6352" stop-color="#419637"/>
<stop offset="0.9319" stop-color="#3FA92D"/>
<stop offset="1" stop-color="#3FAE2A"/>
</linearGradient>
<clipPath id="clip0_1_7823">
<rect width="512" height="314" fill="white"/>
</clipPath>
</defs>
</svg>
