<svg width="512" height="136" viewBox="0 0 512 136" fill="none" xmlns="http://www.w3.org/2000/svg">
<g clip-path="url(#clip0_1_7873)">
<path d="M187.424 46.813V108.44H172.431V27.1842H192.906L223.701 88.8717V27.1842H238.695V108.44H218.22L187.426 46.813H187.424ZM275.242 109.609C254.888 109.609 249.406 98.3838 249.406 86.1914V71.1978C249.406 59.1061 254.888 47.8005 275.242 47.8005C295.596 47.8005 301.098 59.0054 301.098 71.1978V86.272C301.098 98.3636 295.616 109.609 275.242 109.609ZM275.242 60.4765C267.322 60.4765 264.279 64.0032 264.279 70.7141V86.675C264.279 93.3859 267.322 96.9328 275.242 96.9328C283.162 96.9328 286.165 93.3859 286.165 86.675V70.7141C286.165 64.104 283.182 60.4765 275.242 60.4765ZM346.324 108.44V66.9254C346.324 63.7614 344.974 62.1693 341.568 62.1693C338.163 62.1693 331.492 64.366 326.091 67.1672V108.44H311.218V49.0096H322.544L324.015 54.0075C331.425 50.3093 339.524 48.1954 347.796 47.8005C353.519 47.8005 357.046 50.118 359.001 54.1284C366.425 50.3386 374.574 48.181 382.902 47.8005C392.776 47.8005 396.303 54.733 396.303 65.3535V108.44H381.431V66.9254C381.431 63.7614 380.1 62.1693 376.674 62.1693C371.224 62.7403 365.952 64.4425 361.197 67.1672V108.44H346.324ZM452.513 108.44H440.321L439.212 104.409C433.949 107.823 427.812 109.643 421.538 109.649C410.696 109.649 406.061 102.213 406.061 91.9752C406.061 79.8836 411.301 75.2686 423.372 75.2686H437.64V69.0011C437.64 62.4313 435.807 60.1138 426.294 60.1138C420.76 60.1727 415.245 60.7802 409.83 61.9275L408.016 50.6017C414.645 48.7641 421.491 47.822 428.37 47.8005C447.011 47.8005 452.553 54.3702 452.553 69.2429L452.513 108.44ZM437.64 86.01H426.657C421.78 86.01 420.45 87.3602 420.45 91.8745C420.45 95.905 421.78 97.9203 426.496 97.9203C430.433 97.86 434.292 96.8137 437.721 94.8772L437.64 86.01ZM461.638 68.7593C461.638 55.5996 467.483 47.8005 481.267 47.8005C486.596 47.8529 491.907 48.4198 497.127 49.4933V24.7457L512 22.7305V108.44H500.17L498.699 103.442C493.287 107.5 486.701 109.686 479.937 109.669C467.986 109.669 461.638 102.596 461.638 89.0531V68.7593ZM497.127 62.0887C492.797 61.1273 488.382 60.6007 483.947 60.5168C478.587 60.5168 476.511 63.0762 476.511 68.4368V89.3755C476.511 94.2525 478.345 96.9328 483.826 96.9328C488.754 96.7551 493.462 94.8504 497.127 91.552V62.0887Z" fill="black"/>
<path d="M58.725 0L0 33.8767V101.65L58.6847 135.527L117.41 101.65V33.8767L58.725 0ZM84.9236 74.5651L69.285 83.5935L50.3818 73.2551V94.8588L32.6273 106.124V60.9821L46.7342 52.3568L66.2823 62.6548V40.6077L84.9236 29.4028V74.5651Z" fill="#00CA8E"/>
</g>
<defs>
<clipPath id="clip0_1_7873">
<rect width="512" height="136" fill="white"/>
</clipPath>
</defs>
</svg>
