<svg width="512" height="178" viewBox="0 0 512 178" fill="none" xmlns="http://www.w3.org/2000/svg">
<g clip-path="url(#clip0_1_7881)">
<path d="M10.691 7.66553L109.012 0.403954C121.089 -0.632567 124.193 0.0663443 131.786 5.58656L163.172 27.697C168.349 31.4996 170.072 32.5361 170.072 36.6763V157.937C170.072 165.537 167.312 170.032 157.652 170.719L43.4747 177.631C36.2249 177.975 32.7718 176.938 28.9752 172.099L5.86375 142.046C1.71766 136.514 0 132.374 0 127.535V19.7484C0 13.5352 2.76011 8.35259 10.691 7.66553Z" fill="white"/>
<path d="M109.012 0.403954L10.691 7.66553C2.76011 8.35259 0 13.5352 0 19.7484V127.535C0 132.374 1.71766 136.514 5.86375 142.046L28.9752 172.099C32.7718 176.938 36.2249 177.975 43.4747 177.631L157.652 170.719C167.306 170.032 170.072 165.537 170.072 157.937V36.6763C170.072 32.7493 168.521 31.618 163.954 28.2656C163.691 28.0764 163.429 27.8868 163.166 27.697L131.786 5.58656C124.193 0.0663443 121.089 -0.632567 109.012 0.403954ZM46.0571 34.6921C36.7343 35.3199 34.6198 35.4621 29.3247 31.1561L15.8617 20.4473C14.4935 19.0613 15.1806 17.3318 18.6278 16.9883L113.147 10.0821C121.083 9.38911 125.218 12.1551 128.321 14.5717L144.533 26.317C145.226 26.6664 146.949 28.7336 144.876 28.7336L47.2654 34.6092L46.0571 34.6921ZM35.1884 156.901V53.9595C35.1884 49.464 36.5685 47.3909 40.7027 47.0415L152.813 40.4788C156.615 40.1353 158.333 42.5519 158.333 47.0415V149.296C158.333 153.791 157.64 157.594 151.433 157.937L44.1499 164.157C37.9426 164.5 35.1884 162.433 35.1884 156.901ZM141.091 59.4797C141.778 62.5893 141.091 65.6989 137.982 66.0542L132.811 67.0789V143.083C128.321 145.499 124.187 146.879 120.734 146.879C115.214 146.879 113.834 145.15 109.699 139.973L75.8852 86.7728V138.243L86.5821 140.666C86.5821 140.666 86.5821 146.885 77.9523 146.885L54.1597 148.265C53.4667 146.879 54.1597 143.426 56.5704 142.739L62.7836 141.015V72.9604L54.1597 72.2615C53.4667 69.152 55.1903 64.6623 60.0235 64.3129L85.5515 62.5952L120.734 116.482V68.8084L111.767 67.7778C111.074 63.9694 113.834 61.2033 117.281 60.8657L141.091 59.4797Z" fill="black"/>
<path d="M245.413 125.869V79.0182H246.224L280.009 125.869H290.646V57.0203H278.818V103.824H278.007L244.222 57.0203H233.543V125.863H245.419L245.413 125.869ZM324.076 126.923C339.683 126.923 349.177 116.712 349.177 99.7723C349.177 82.88 339.635 72.6214 324.076 72.6214C308.569 72.6214 298.98 82.9274 298.98 99.7723C298.98 116.712 308.427 126.923 324.076 126.923ZM324.076 116.996C315.825 116.996 311.104 110.7 311.104 99.7723C311.104 88.8918 315.825 82.5483 324.076 82.5483C332.285 82.5483 337.006 88.8918 337.006 99.7723C337.006 110.7 332.332 116.996 324.076 116.996ZM359.987 60.888V74.0074H351.736V83.4545H359.987V111.938C359.987 122.055 364.761 126.112 376.737 126.112C379.023 126.112 381.221 125.875 382.938 125.537V116.28C381.505 116.422 380.599 116.517 378.928 116.517C373.971 116.517 371.773 114.23 371.773 109.077V83.4545H382.938V74.0074H371.773V60.8821H359.987V60.888ZM390.028 125.869H401.815V73.6698H390.028V125.869ZM395.898 65.04C399.807 65.04 402.958 61.8831 402.958 57.9265C402.958 53.964 399.813 50.7656 395.898 50.7656C392.036 50.7656 388.838 53.964 388.838 57.9265C388.838 61.8831 392.036 65.0341 395.898 65.0341V65.04ZM434.148 126.923C449.749 126.923 459.244 116.712 459.244 99.7723C459.244 82.88 449.702 72.6214 434.148 72.6214C418.636 72.6214 409.047 82.9274 409.047 99.7723C409.047 116.712 418.494 126.923 434.148 126.923ZM434.148 116.996C425.892 116.996 421.165 110.7 421.165 99.7723C421.165 88.8918 425.892 82.5483 434.148 82.5483C442.352 82.5483 447.078 88.8918 447.078 99.7723C447.078 110.7 442.399 116.996 434.148 116.996ZM466.286 125.869H478.121V95.4782C478.121 87.7961 482.563 82.9274 489.617 82.9274C496.825 82.9274 500.16 86.9373 500.16 94.9037V125.869H512V92.0902C512 79.6342 505.651 72.6214 494.012 72.6214C486.229 72.6214 480.981 76.1989 478.5 82.0212H477.688V73.6698H466.286V125.869Z" fill="black"/>
</g>
<defs>
<clipPath id="clip0_1_7881">
<rect width="512" height="178" fill="white"/>
</clipPath>
</defs>
</svg>
