<svg width="256" height="274" viewBox="0 0 256 274" fill="none" xmlns="http://www.w3.org/2000/svg">
<g clip-path="url(#clip0_1_7905)">
<path d="M191.548 186.292L191.607 246.812L137.903 273.611V213.118L191.548 186.292ZM256.001 153.947V214.678L210.196 237.538L210.163 177.084L256.001 153.947ZM191.468 105.286L191.528 165.172L137.903 191.819V131.914L191.468 105.286ZM256.001 73.2054V132.714L210.15 156.023L210.11 96.0185L256.001 73.2054ZM129.739 66.1652L177.672 90.3598L127.941 115.335L80.9134 91.715L129.739 66.1652ZM63.0648 32.5108L108.784 55.5883L59.8455 81.1315L12.8906 57.5516L63.0648 32.5108ZM193.756 32.8611L242.998 57.5516L198.958 79.6706L150.926 55.4428L193.756 32.8611ZM128.232 0L172.562 22.2247L130.056 44.9188L84.3773 21.881L128.232 0Z" fill="#4DABCF"/>
<path d="M118.944 131.913L82.7709 113.727V192.333C82.7709 192.333 38.533 98.2055 34.4344 89.7506C33.9056 88.6598 31.7307 87.4633 31.1754 87.1724C23.2428 83.0078 0 71.2344 0 71.2344V210.109L32.1538 227.297V154.706C32.1538 154.706 75.9224 238.812 76.3653 239.731C76.8082 240.65 81.2042 249.515 85.8977 252.628C92.1513 256.767 118.951 272.883 118.951 272.883L118.944 131.913Z" fill="#4D77CF"/>
</g>
<defs>
<clipPath id="clip0_1_7905">
<rect width="256" height="274" fill="white"/>
</clipPath>
</defs>
</svg>
