<svg width="256" height="168" viewBox="0 0 256 168" fill="none" xmlns="http://www.w3.org/2000/svg">
<g clip-path="url(#clip0_1_7909)">
<path d="M143.618 167.029H238.784C241.807 167.029 244.776 166.258 247.394 164.792C250.012 163.325 252.185 161.217 253.696 158.677C255.206 156.138 256 153.257 256 150.325C256 147.393 255.201 144.514 253.688 141.975L189.778 34.5997C188.267 32.0608 186.094 29.9525 183.477 28.4866C180.859 27.0207 177.891 26.249 174.869 26.249C171.846 26.249 168.878 27.0207 166.26 28.4866C163.643 29.9525 161.47 32.0608 159.96 34.5997L143.618 62.0732L111.667 8.34949C110.156 5.81083 107.982 3.70279 105.364 2.23717C102.746 0.77156 99.7764 0 96.754 0C93.7316 0 90.7623 0.77156 88.1441 2.23717C85.5264 3.70279 83.3524 5.81083 81.8407 8.34949L2.31153 141.975C0.798555 144.514 0 147.393 0 150.325C0 153.257 0.79334 156.138 2.30404 158.677C3.81474 161.217 5.98822 163.325 8.60583 164.792C11.2235 166.258 14.193 167.029 17.2157 167.029H76.9528C100.622 167.029 118.076 156.945 130.087 137.271L159.246 88.2877L174.864 62.0732L221.738 140.815H159.246L143.618 167.029ZM75.9788 140.788L34.2901 140.779L96.7816 35.7962L127.963 88.2877L107.086 123.372C99.1098 136.137 90.0486 140.788 75.9788 140.788Z" fill="#00DC82"/>
</g>
<defs>
<clipPath id="clip0_1_7909">
<rect width="256" height="168" fill="white"/>
</clipPath>
</defs>
</svg>
