<svg width="512" height="121" viewBox="0 0 512 121" fill="none" xmlns="http://www.w3.org/2000/svg">
<g clip-path="url(#clip0_1_7912)">
<path d="M103.405 120.261H171.925C174.102 120.261 176.24 119.706 178.124 118.65C180.009 117.595 181.574 116.077 182.661 114.248C183.749 112.42 184.321 110.346 184.321 108.235C184.321 106.124 183.746 104.05 182.656 102.222L136.64 24.9118C135.553 23.0839 133.988 21.5659 132.104 20.5104C130.219 19.455 128.082 18.8993 125.906 18.8993C123.73 18.8993 121.592 19.455 119.708 20.5104C117.824 21.5659 116.259 23.0839 115.171 24.9118L103.405 44.6929L80.4008 6.01165C79.3123 4.18381 77.747 2.66602 75.8623 1.61077C73.9772 0.555525 71.8393 0 69.6631 0C67.487 0 65.3491 0.555525 63.464 1.61077C61.5793 2.66602 60.014 4.18381 58.9255 6.01165L1.66431 102.222C0.574962 104.05 0 106.124 0 108.235C0 110.346 0.571206 112.42 1.65891 114.248C2.74662 116.077 4.31154 117.595 6.19622 118.65C8.08094 119.706 10.219 120.261 12.3953 120.261H55.4062C72.4478 120.261 85.0152 113.001 93.6628 98.8352L114.657 63.5674L125.902 44.6929L159.652 101.387H114.657L103.405 120.261ZM54.705 101.368L24.689 101.361L69.683 25.7733L92.1337 63.5674L77.1019 88.828C71.3593 98.0191 64.8353 101.368 54.705 101.368Z" fill="#00DC82"/>
<path d="M215.04 119.128H235.159V74.1153C235.159 61.2343 233.817 48.3533 233.817 48.3533L235.003 50.9944C236.874 55.0823 240.774 63.2914 245.352 71.1429L272.846 119.128H294.44V20.043H274.188L274.19 65.9053C274.246 78.5034 275.529 90.9597 275.529 90.9597L274.515 88.6647C272.725 84.6786 268.751 76.1252 264.129 68.0287L236.5 20.043H215.04V119.128ZM358.245 47.7868V86.8549C358.245 95.9142 352.478 102.709 344.296 102.709C336.652 102.709 331.286 96.4803 331.286 87.8455V47.7868H312.644V92.2336C312.644 108.512 322.569 120.261 337.724 120.261C346.979 120.261 354.489 116.014 358.245 109.22V119.128H377.022V47.7868H358.245ZM431.625 82.0422L454.294 47.7868H433.771L421.434 66.613L409.092 47.7868H388.706L411.375 81.9007L386.964 119.128H406.95L421.566 97.1881L436.05 119.128H455.902L431.625 82.0422ZM475.252 47.7868H462.241V64.2066H475.252V93.2247C475.252 109.786 485.311 119.128 500.87 119.128H512V102.567H503.418C497.383 102.567 493.893 99.3112 493.893 92.3754V64.2066H512V47.7868H493.893V26.6958H475.252V47.7868Z" fill="black"/>
</g>
<defs>
<clipPath id="clip0_1_7912">
<rect width="512" height="121" fill="white"/>
</clipPath>
</defs>
</svg>
