<svg width="512" height="98" viewBox="0 0 512 98" fill="none" xmlns="http://www.w3.org/2000/svg">
<g clip-path="url(#clip0_1_7916)">
<path d="M312.805 18.3934V82.2311H330.82V18.3934H312.805ZM171.063 18.2852V82.177H189.241V32.5675L203.415 32.6216C208.068 32.6216 211.314 33.7577 213.532 36.1381C216.399 39.1677 217.535 44.0907 217.535 53.0172V82.177H235.172V46.9039C235.172 21.6934 219.104 18.2852 203.415 18.2852H171.063ZM341.856 18.3934V82.2311H371.07C386.651 82.2311 391.736 79.6343 397.2 73.8456C401.096 69.7881 403.584 60.8076 403.584 51.0155C403.584 42.0349 401.474 34.0282 397.741 29.051C391.141 20.1245 381.511 18.3934 367.121 18.3934H341.856ZM359.709 32.2429H367.446C378.698 32.2429 385.948 37.2742 385.948 50.3663C385.948 63.4584 378.698 68.5438 367.446 68.5438H359.709V32.2429ZM286.837 18.3934L271.797 68.9766L257.407 18.3934H237.931L258.489 82.2311H284.457L305.231 18.3934H286.837ZM412.024 82.2311H430.039V18.3934H412.024V82.2311ZM462.553 18.3934L437.397 82.177H455.141L459.145 70.8701H488.899L492.686 82.1229H512L486.627 18.3934H462.553ZM474.238 30.0248L485.167 59.8879H462.986L474.238 30.0248Z" fill="black"/>
<path d="M54.803 28.9975V20.2333C55.6686 20.1792 56.5342 20.1251 57.3998 20.1251C81.4201 19.3677 97.1631 40.7912 97.1631 40.7912C97.1631 40.7912 80.1758 64.3787 61.9442 64.3787C59.5097 64.3787 57.1293 64 54.8571 63.2426V36.6255C64.2164 37.7616 66.1099 41.8732 71.6822 51.2325L84.1792 40.7371C84.1792 40.7371 75.0363 28.7811 59.672 28.7811C58.049 28.727 56.426 28.8352 54.803 28.9975ZM54.803 0V13.0921L57.3998 12.9298C90.7794 11.7937 112.582 40.3043 112.582 40.3043C112.582 40.3043 87.5875 70.7084 61.5655 70.7084C59.2933 70.7084 57.0752 70.492 54.8571 70.1133V78.2282C56.6965 78.4446 58.59 78.6069 60.4294 78.6069C84.6661 78.6069 102.194 66.2181 119.182 51.6112C121.995 53.8833 133.518 59.3474 135.899 61.7278C119.777 75.2527 82.1775 86.1268 60.8622 86.1268C58.8064 86.1268 56.8588 86.0186 54.9112 85.8022V97.2172H146.989V0H54.803ZM54.803 63.2426V70.1674C32.4057 66.164 26.1843 42.847 26.1843 42.847C26.1843 42.847 36.9501 30.9451 54.803 28.9975V36.5714H54.7489C45.3897 35.4353 38.0321 44.1995 38.0321 44.1995C38.0321 44.1995 42.1978 58.9687 54.803 63.2426ZM15.0397 41.8732C15.0397 41.8732 28.2942 22.2891 54.8571 20.2333V13.0921C25.4269 15.4725 0 40.3584 0 40.3584C0 40.3584 14.3905 82.0152 54.803 85.8022V78.2282C25.1564 74.5495 15.0397 41.8732 15.0397 41.8732Z" fill="#76B900"/>
</g>
<defs>
<clipPath id="clip0_1_7916">
<rect width="512" height="98" fill="white"/>
</clipPath>
</defs>
</svg>
