<svg width="256" height="256" viewBox="0 0 256 256" fill="none" xmlns="http://www.w3.org/2000/svg">
<g clip-path="url(#clip0_1_7925)">
<path d="M118.923 0.371408C175.484 -3.55051 212.987 24.1282 234.43 57.8515C245.182 74.7603 255.732 100.441 255.78 126.828C255.832 155.497 246.545 180.324 234.43 198.541C221.979 217.264 205.875 232.729 185.709 242.883C152 259.857 104.89 260.322 74.033 243.978C39.6684 225.777 13.2467 199.799 3.41455 154.747C-0.520175 136.717 -0.972441 113.422 4.50937 93.4347C5.79577 88.746 8.13348 83.8116 9.98393 79.2015C18.8765 57.0473 34.0125 37.7824 52.6835 24.458C60.186 19.1042 69.2876 13.7794 77.3179 10.2248C87.3096 5.80245 104.132 1.39669 118.923 0.371408Z" fill="white"/>
<path d="M226.212 130.017C226.212 183.473 182.877 226.805 129.422 226.805C75.9662 226.805 32.6323 183.473 32.6323 130.017C32.6323 76.5618 75.9662 33.2266 129.422 33.2266C182.877 33.2266 226.212 76.5618 226.212 130.017Z" fill="black"/>
<path d="M118.923 0.371408C175.484 -3.55051 212.987 24.1282 234.43 57.8515C245.182 74.7603 255.732 100.441 255.78 126.828C255.832 155.497 246.545 180.324 234.43 198.541C221.979 217.264 205.875 232.729 185.709 242.883C152 259.857 104.89 260.322 74.033 243.978C39.6684 225.777 13.2467 199.799 3.41455 154.747C-0.520175 136.717 -0.972441 113.422 4.50937 93.4347C5.79577 88.746 8.13348 83.8116 9.98393 79.2015C18.8765 57.0473 34.0125 37.7824 52.6835 24.458C60.186 19.1042 69.2876 13.7794 77.3179 10.2248C87.3096 5.80245 104.132 1.39669 118.923 0.371408ZM99.7623 9.67786C78.7536 15.1247 63.3497 24.883 49.9464 35.4071C30.6188 50.5828 18.2975 71.7604 11.0788 97.2666C3.04761 125.643 8.20644 159.982 19.2904 181.571C30.7844 203.959 46.2173 221.337 68.0115 233.577C89.2147 245.484 119.037 253.13 150.126 247.262C177.749 242.049 198.728 230.016 215.818 212.227C238.684 188.425 257.062 144.586 244.832 98.3614C241.563 86.0072 237.289 73.1313 230.599 62.2308C226.984 56.342 221.68 50.5487 216.366 44.7132C196.31 22.6882 163.895 3.70879 122.207 6.39295C114.274 6.90367 107.301 7.72287 99.7623 9.67786Z" fill="black"/>
<path d="M135.576 246.403L247.422 134.56L246.819 133.957L134.973 245.8L135.576 246.403Z" fill="white"/>
<path d="M125.799 237.544L238.132 125.213L237.529 124.609L125.195 236.94L125.799 237.544Z" fill="white"/>
<path d="M116.021 228.689L228.843 115.869L228.239 115.266L115.418 228.086L116.021 228.689Z" fill="white"/>
<path d="M106.243 219.829L219.553 106.521L218.95 105.918L105.64 219.226L106.243 219.829Z" fill="white"/>
<path d="M96.4655 210.974L210.263 97.1776L209.66 96.5742L95.8621 210.37L96.4655 210.974Z" fill="white"/>
<path d="M86.6876 202.116L200.973 87.83L200.37 87.2266L86.0842 201.513L86.6876 202.116Z" fill="white"/>
<path d="M76.9097 193.259L191.684 78.4862L191.08 77.8828L76.3063 192.655L76.9097 193.259Z" fill="white"/>
<path d="M67.1318 184.4L182.394 69.1386L181.79 68.5352L66.5284 183.796L67.1318 184.4Z" fill="white"/>
<path d="M57.3538 175.544L173.102 59.7948L172.498 59.1914L56.7504 174.941L57.3538 175.544Z" fill="white"/>
<path d="M47.5764 166.688L163.814 50.4511L163.211 49.8477L46.973 166.084L47.5764 166.688Z" fill="white"/>
<path d="M37.7984 157.829L154.525 41.1034L153.921 40.5L37.195 157.225L37.7984 157.829Z" fill="white"/>
<path d="M28.0205 148.974L145.235 31.7596L144.632 31.1562L27.4171 148.37L28.0205 148.974Z" fill="white"/>
<path d="M18.2426 140.114L135.945 22.412L135.342 21.8086L17.6392 139.51L18.2426 140.114Z" fill="white"/>
<path d="M8.46466 131.258L126.656 13.0682L126.052 12.4648L7.86127 130.654L8.46466 131.258Z" fill="white"/>
<path d="M7.8233 132.389L121.904 246.474L122.507 245.871L8.42671 131.785L7.8233 132.389Z" fill="white"/>
<path d="M17.0747 123.006L131.377 237.314L131.98 236.71L17.6781 122.402L17.0747 123.006Z" fill="white"/>
<path d="M26.3261 113.619L140.85 228.148L141.454 227.545L26.9295 113.016L26.3261 113.619Z" fill="white"/>
<path d="M35.5775 104.236L150.324 218.988L150.927 218.384L36.1809 103.633L35.5775 104.236Z" fill="white"/>
<path d="M44.8286 94.8534L159.797 209.826L160.4 209.223L45.432 94.25L44.8286 94.8534Z" fill="white"/>
<path d="M54.08 85.4706L169.271 200.665L169.874 200.062L54.6834 84.8672L54.08 85.4706Z" fill="white"/>
<path d="M63.3314 76.0839L178.744 191.501L179.348 190.897L63.9348 75.4805L63.3314 76.0839Z" fill="white"/>
<path d="M72.5823 66.701L188.218 182.339L188.821 181.736L73.1857 66.0977L72.5823 66.701Z" fill="white"/>
<path d="M81.8337 57.3182L197.691 173.178L198.295 172.575L82.4371 56.7148L81.8337 57.3182Z" fill="white"/>
<path d="M91.0852 47.9354L207.164 164.016L207.768 163.413L91.6886 47.332L91.0852 47.9354Z" fill="white"/>
<path d="M100.337 38.5526L216.638 154.856L217.241 154.253L100.94 37.9492L100.337 38.5526Z" fill="white"/>
<path d="M109.588 29.1659L226.111 145.691L226.715 145.088L110.191 28.5625L109.588 29.1659Z" fill="white"/>
<path d="M118.839 19.7831L235.584 136.53L236.188 135.927L119.442 19.1797L118.839 19.7831Z" fill="white"/>
<path d="M128.091 10.4003L245.058 127.369L245.661 126.765L128.694 9.79688L128.091 10.4003Z" fill="white"/>
<path d="M209.796 45.2598C199.73 35.1934 187.354 26.1225 172.571 20.6253C157.247 14.9272 139.914 10.1242 119.47 11.8663C86.9042 14.6422 64.0392 29.2534 46.6615 46.3546C34.4895 58.3324 25.3337 73.0102 19.2899 90.149C10.4161 115.314 10.9546 145.017 20.9322 170.621C29.4429 192.461 43.3727 210.076 63.0843 223.722C81.6148 236.551 108.211 246.5 138.082 243.977C174.465 240.904 201.085 222.239 218.554 200.73C223.024 195.228 227.468 189.008 230.05 181.57C232.58 176.211 233.818 172.568 234.977 170.622C239.829 159.749 242.4 148.278 243.188 135.586C245.614 96.5498 230.594 66.0585 209.796 45.2598ZM199.074 164.192C199.004 164.341 198.942 164.479 198.869 164.632C197.064 169.797 193.955 174.116 190.83 177.937C178.613 192.872 159.998 205.833 134.555 207.967C113.665 209.718 95.0664 202.81 82.1081 193.902C70.8475 186.161 62.2877 176.579 56.2854 165.064C55.9193 164.371 52.4334 156.339 52.4232 155.986C47.668 141.237 47.2554 117.52 52.136 103.288C55.3932 93.7888 60.8217 83.5113 68.0114 75.3688C77.9383 64.1257 87.8723 56.9214 103.595 51.8292C110.773 49.5038 117.2 47.1371 126.039 46.9024C147.594 46.3286 169.544 56.0067 181.329 66.6098C192.16 76.3535 204.503 95.3338 207.607 113.141C210.8 131.469 207.392 149.364 199.074 164.192Z" fill="black"/>
<path d="M161.608 181.774C156.3 181.774 151.642 178.413 150.016 173.41L144.105 155.397H114.53L109.037 173.246C107.379 178.346 102.686 181.76 97.3508 181.76C96.07 181.76 94.7977 181.558 93.5693 181.159C87.1923 179.245 83.5721 172.381 85.5258 165.867L110.488 86.7963C112.109 81.7663 116.881 78.2578 122.094 78.2578H135.367C140.609 78.2578 145.381 81.7066 146.97 86.6448L173.222 165.687C175.322 172.149 171.846 179.086 165.478 181.159C164.219 181.567 162.917 181.774 161.608 181.774Z" fill="white"/>
<path d="M161.608 180.067C156.853 180.067 152.687 177.062 151.234 172.587L145.321 154.571L145.032 153.69H144.105H114.53H113.585L113.307 154.593L107.814 172.442C106.334 176.994 102.133 180.053 97.3508 180.053C96.2054 180.053 95.0663 179.872 93.9642 179.515C88.2384 177.795 85.0009 171.646 86.7518 165.808L111.709 86.7546C113.157 82.2595 117.438 79.1108 122.094 79.1108H135.367C140.056 79.1108 144.333 82.2028 145.752 86.6099L172.008 165.663C173.887 171.447 170.775 177.661 165.082 179.515C163.951 179.882 162.783 180.067 161.608 180.067ZM161.608 182.627C163.052 182.627 164.487 182.399 165.873 181.949C172.919 179.656 176.756 171.993 174.44 164.864L148.185 85.8143C146.428 80.3565 141.163 76.5508 135.367 76.5508H122.094C116.322 76.5508 111.06 80.4212 109.27 85.9766L84.3051 165.055C82.1457 172.254 86.1381 179.838 93.2012 181.958C94.5308 182.39 95.9364 182.613 97.3508 182.613C103.244 182.613 108.426 178.839 110.255 173.214L115.753 155.346L114.53 156.25H144.105L142.888 155.369L148.8 173.382C150.597 178.911 155.747 182.627 161.608 182.627Z" fill="black"/>
<path d="M63.5737 53.0569L63.5426 53.0147C60.4296 48.7485 61.3431 42.7802 65.9277 39.4343C70.5122 36.0888 76.4015 37.0279 79.5144 41.2937L79.5456 41.336C82.6585 45.6022 81.7451 51.5709 77.1605 54.9164C72.576 58.2618 66.6867 57.3232 63.5737 53.0569ZM75.3741 44.4455L75.3429 44.4033C73.7788 42.2597 70.8663 41.5224 68.5956 43.1796C66.3458 44.8214 66.1709 47.7462 67.735 49.8902L67.7662 49.9325C69.3308 52.076 72.2428 52.8133 74.4926 51.1715C76.7637 49.5143 76.9387 46.5895 75.3741 44.4455Z" fill="white"/>
<path d="M93.5867 25.0948L98.2651 23.5938L111.38 38.8403L106.176 40.5098L103.897 37.7919L97.1417 39.9594L96.8943 43.4884L91.7905 45.1259L93.5867 25.0948ZM101.284 34.4635L97.7348 30.1107L97.3555 35.7239L101.284 34.4635Z" fill="white"/>
<path d="M119.806 29.6821L119.847 19.3555L125.023 19.3759L124.983 29.5976C124.972 32.2515 126.307 33.5178 128.357 33.5263C130.406 33.5345 131.751 32.3313 131.761 29.7563L131.802 19.4037L136.979 19.4242L136.938 29.6194C136.915 35.5577 133.515 38.1459 128.286 38.125C123.057 38.1036 119.783 35.4365 119.806 29.6821Z" fill="white"/>
<path d="M155.673 27.879L150.396 26.2683L151.7 21.9961L167.13 26.7052L165.826 30.9774L160.549 29.3672L156.484 42.686L151.609 41.1982L155.673 27.879Z" fill="white"/>
<path d="M180.912 32.6641L185.155 35.4882L181.342 41.2192L186.789 44.8441L190.603 39.1127L194.846 41.9368L184.656 57.2494L180.412 54.4253L184.285 48.6065L178.837 44.9815L174.965 50.8004L170.722 47.9763L180.912 32.6641Z" fill="white"/>
<path d="M195.902 200.055L195.935 200.097C199.209 204.241 198.524 210.241 194.07 213.759C189.617 217.277 183.695 216.564 180.421 212.42L180.389 212.378C177.114 208.234 177.8 202.234 182.253 198.716C186.707 195.198 192.628 195.911 195.902 200.055ZM184.438 209.112L184.471 209.153C186.116 211.236 189.054 211.861 191.261 210.119C193.446 208.392 193.509 205.462 191.864 203.38L191.831 203.338C190.187 201.256 187.248 200.63 185.062 202.357C182.856 204.1 182.793 207.029 184.438 209.112Z" fill="white"/>
<path d="M167.128 229.196L162.52 230.901L148.747 216.247L153.872 214.35L156.269 216.965L162.923 214.502L163.014 210.966L168.041 209.105L167.128 229.196ZM159.026 220.175L162.763 224.367L162.895 218.743L159.026 220.175Z" fill="white"/>
<path d="M140.752 225.699L141.207 236.015L136.036 236.244L135.585 226.032C135.468 223.381 134.074 222.18 132.026 222.271C129.979 222.361 128.693 223.628 128.807 226.2L129.263 236.543L124.092 236.771L123.642 226.586C123.38 220.654 126.652 217.905 131.876 217.675C137.1 217.444 140.498 219.95 140.752 225.699Z" fill="white"/>
<path d="M104.82 229.072L110.147 230.511L108.983 234.823L93.405 230.619L94.5693 226.305L99.8971 227.744L103.527 214.297L108.449 215.626L104.82 229.072Z" fill="white"/>
<path d="M79.6373 225.324L75.2644 222.704L78.8036 216.798L73.1916 213.434L69.6524 219.34L65.28 216.719L74.7366 200.941L79.1091 203.562L75.5157 209.558L81.1281 212.922L84.7215 206.926L89.0939 209.547L79.6373 225.324Z" fill="white"/>
</g>
<defs>
<clipPath id="clip0_1_7925">
<rect width="256" height="256" fill="white"/>
</clipPath>
</defs>
</svg>
