<svg width="256" height="267" viewBox="0 0 256 267" fill="none" xmlns="http://www.w3.org/2000/svg">
<g clip-path="url(#clip0_1_7977)">
<path d="M128 221.867C116.181 221.867 105.941 219.293 97.28 214.146C88.6498 209.019 81.7499 201.756 77.3653 193.182C72.7037 184.261 69.2912 174.826 67.2106 165.109C65.0031 154.57 63.9277 143.855 64 133.12C64 124.62 64.5547 116.494 65.6747 108.724C66.784 100.964 68.8427 93.0755 71.84 85.0686C74.8373 77.0616 78.6987 70.1197 83.4026 64.2329C88.2999 58.2019 94.632 53.2929 101.909 49.8855C109.547 46.2074 118.229 44.3733 128 44.3733C139.819 44.3733 150.059 46.947 158.72 52.0943C167.35 57.2211 174.25 64.4847 178.635 73.0582C183.264 81.8835 186.646 91.2415 188.79 101.131C190.923 111.012 192 121.682 192 133.12C192 141.62 191.445 149.746 190.326 157.516C189.132 165.583 187.022 173.513 184.032 181.171C180.939 189.178 177.099 196.121 172.469 202.008C167.84 207.894 161.717 212.677 154.09 216.355C146.464 220.033 137.771 221.867 128 221.867ZM150.593 156.616C156.713 150.471 160.118 141.967 160 133.12C160 123.979 156.938 116.147 150.827 109.624C144.705 103.101 137.098 99.84 128 99.84C118.902 99.84 111.297 103.101 105.173 109.624C99.1777 115.838 95.8667 124.319 96 133.12C96 142.261 99.0613 150.093 105.173 156.616C111.297 163.139 118.902 166.4 128 166.4C137.098 166.4 144.63 163.139 150.593 156.616ZM128 266.24C198.688 266.24 256 206.635 256 133.12C256 59.6045 198.688 0 128 0C57.312 0 0 59.6045 0 133.12C0 206.635 57.312 266.24 128 266.24Z" fill="black"/>
</g>
<defs>
<clipPath id="clip0_1_7977">
<rect width="256" height="267" fill="white"/>
</clipPath>
</defs>
</svg>
