<svg width="512" height="141" viewBox="0 0 512 141" fill="none" xmlns="http://www.w3.org/2000/svg">
<g clip-path="url(#clip0_1_7980)">
<path d="M83.9534 123.855C83.7495 122.466 84.1455 121.084 83.7271 119.782C83.3692 118.644 82.548 118.54 82.0087 117.616C80.5878 115.19 79.1191 112.048 78.9836 109.078C78.8597 106.411 77.8786 104.001 77.745 101.357C77.6806 100.082 77.8308 98.7661 77.785 97.5032C77.7606 96.8888 77.7255 96.3563 77.6036 95.6893C77.5734 95.5244 77.4641 94.8457 77.4134 94.5736L77.745 93.7466C77.5987 93.4628 80.5751 93.5574 81.4626 93.5632C82.9694 93.5818 84.3864 93.6598 85.8892 93.732C88.9593 93.8841 91.7562 93.8461 94.7463 93.3848C101.409 92.3559 104.472 89.635 106.04 88.5037C112.157 84.0927 114.959 76.8808 114.959 76.8808C115.968 74.628 115.965 70.6091 118.129 68.8097C120.679 66.6847 124.961 66.8378 127.889 65.5339C129.601 64.7762 130.837 64.3588 132.588 64.7215C133.887 64.9927 136.225 66.4975 136.763 64.3851C136.329 64.1052 136.159 63.5932 135.927 63.3094C138.34 63.0705 135.973 57.4716 135.018 56.353C133.543 54.6269 131.083 53.8359 128.465 53.1416C125.356 52.3175 122.536 51.3666 119.608 51.9411C114.496 52.9416 114.878 50.0159 111.866 50.0159C108.25 50.0159 101.818 50.1934 100.706 53.7082C100.188 55.3495 99.6547 55.4178 98.7575 56.6768C97.99 57.7554 98.8911 58.7073 98.5059 59.938C98.108 61.2029 97.5238 65.6578 96.9143 67.2123C95.8835 69.8425 94.6547 73.1271 92.3863 73.1271C89.206 73.5075 86.7065 73.6294 84.127 72.6931C82.5744 72.1295 79.9725 71.2469 78.6851 70.7046C72.7479 68.2051 71.7726 65.4705 71.7726 65.4705C71.1358 64.4173 69.4574 62.7194 68.8294 60.5036C68.1389 58.0636 66.9735 56.0283 66.5015 54.7585C66.0129 53.4429 64.8446 51.3354 63.9269 49.0573C62.7517 46.1403 61.0987 43.9636 59.8884 42.883C58.0393 41.2349 56.3327 38.6837 52.579 39.4248C51.908 39.5575 49.4699 39.6677 47.6014 41.2349C46.3345 42.2979 45.9347 44.4912 44.7615 46.3412C44.0837 47.4101 42.8919 50.4762 41.7987 53.0343C41.0409 54.8073 40.6879 56.1365 39.8687 56.789C39.228 57.3 38.4341 57.9602 37.4735 57.6004C36.8777 57.377 36.2408 56.9986 35.5981 56.4964C34.7302 55.8186 32.7573 52.4609 31.5451 49.9808C30.4947 47.8304 28.2526 44.6151 26.9556 42.8743C25.089 40.3699 23.9948 39.735 21.2368 39.735C15.32 39.735 14.8724 43.0479 12.2695 47.8655C11.1265 49.9818 10.7101 53.3405 8.41533 55.9727C7.10363 57.4785 2.91791 63.6702 0.0078019 64.7225V64.6923L0 64.7225V108.859L0.0078019 108.92V108.643C0.196023 108.068 0.395947 107.516 0.623177 107.022C1.7486 104.624 4.36029 102.399 5.81144 99.9364C6.60041 98.5945 7.50056 97.2799 8.02328 95.8716C8.47287 94.6584 8.69425 92.8494 9.34376 91.7971C10.1396 90.5068 11.3859 90.068 12.6654 89.8593C14.6695 89.5287 16.3723 92.7401 18.9362 93.9221C20.0294 94.4244 25.0617 96.2061 26.5723 96.5718C29.0601 97.1667 31.8201 97.6631 34.3459 98.1732C35.6986 98.4463 36.9918 98.6052 38.3844 98.7466C39.6337 98.8715 44.3138 99.0265 44.6035 99.3649C42.2249 100.578 40.8303 103.984 39.937 106.393C39.0056 108.905 38.3561 111.7 37.2307 114.156C35.9834 116.87 33.3678 118 33.6798 121.162C33.7998 122.424 34.03 123.748 33.8193 125.137C33.595 126.598 33.004 127.739 32.5739 129.171C32.0219 131.039 31.3646 137.071 30.5133 138.844L35.7181 138.191L35.7269 138.188C36.2954 136.837 36.8191 131.13 37.0035 130.587C37.9767 127.726 39.268 125.372 41.2545 123.159C43.1913 121.003 43.0909 118.223 44.2222 115.711C45.4471 112.98 47.0942 110.797 48.6488 108.23C51.4584 103.589 53.3114 97.7295 59.2847 96.5377C59.9225 96.4061 63.5797 99.0431 65.2025 100.611C67.0613 102.398 69.0917 104.467 70.3127 106.931C72.6767 111.706 74.6818 118.622 75.4405 122.436C75.8764 124.627 76.2236 124.757 77.705 126.492C78.3867 127.287 79.7472 129.771 80.1948 130.725C80.6649 131.743 81.3797 134.06 81.9493 135.243C82.2847 135.947 83.1547 138.11 83.7876 139.979L88.6511 139.827C88.6686 139.868 88.7574 139.815 88.7779 139.853C88.7779 139.853 88.7827 139.852 88.7847 139.851C88.7642 139.814 88.7457 139.771 88.7281 139.731C86.3047 134.868 84.754 129.24 83.9534 123.855Z" fill="white"/>
<path d="M81.9503 135.241C81.3808 134.058 80.6669 131.741 80.1958 130.723C79.7482 129.769 78.3877 127.286 77.7061 126.49C76.2237 124.755 75.8775 124.625 75.4415 122.434C74.6838 118.62 72.6777 111.703 70.3137 106.929C69.0928 104.466 67.0623 102.396 65.2035 100.61C63.5807 99.0424 59.9236 96.4043 59.2858 96.536C53.3124 97.7287 51.4595 103.587 48.6498 108.228C47.0953 110.795 45.4481 112.979 44.2232 115.709C43.0919 118.22 43.1924 121.001 41.2556 123.157C39.269 125.371 37.9778 127.725 37.0045 130.585C36.8202 131.129 36.2965 136.835 35.7279 138.186L35.7269 138.189L44.6055 137.564C52.8775 138.128 50.4891 141.298 63.4013 140.608L83.7896 139.977C83.1557 138.108 82.2858 135.945 81.9503 135.241Z" fill="url(#paint0_linear_1_7980)"/>
<path d="M141.112 0H20.3484C9.11556 0 0.00976562 9.10775 0.00976562 20.3405V64.6905V64.7207C2.91988 63.6684 7.1056 57.4766 8.41729 55.9709C10.712 53.3377 11.1285 49.979 12.2714 47.8637C14.8743 43.046 15.322 39.7332 21.2387 39.7332C23.9967 39.7332 25.0919 40.369 26.9575 42.8724C28.2556 44.6132 30.4977 47.8296 31.547 49.979C32.7583 52.46 34.7321 55.8168 35.6001 56.4946C36.2428 56.9978 36.8796 57.3752 37.4755 57.5985C38.4351 57.9584 39.229 57.2982 39.8707 56.7871C40.6899 56.1347 41.0429 54.8055 41.8007 53.0325C42.8949 50.4744 44.0856 47.4092 44.7634 46.3394C45.9366 44.4904 46.3365 42.2961 47.6033 41.2331C49.4719 39.6659 51.91 39.5557 52.5809 39.423C56.3346 38.6818 58.0413 41.2331 59.8904 42.8812C61.1006 43.9618 62.7546 46.1385 63.9288 49.0555C64.8465 51.3336 66.0149 53.4411 66.5034 54.7567C66.9755 56.0265 68.1409 58.0618 68.8313 60.5018C69.4584 62.7176 71.1368 64.4155 71.7746 65.4687C71.7746 65.4687 72.7508 68.2033 78.6871 70.7028C79.9744 71.245 82.5763 72.1267 84.1289 72.6913C86.7084 73.6285 89.207 73.5066 92.3882 73.1253C94.6566 73.1253 95.8854 69.8407 96.9163 67.2105C97.5258 65.656 98.1099 61.2011 98.5078 59.9362C98.8931 58.7054 97.9919 57.7536 98.7595 56.675C99.6567 55.416 100.19 55.3477 100.708 53.7064C101.821 50.1916 108.252 50.0141 111.868 50.0141C114.881 50.0141 114.498 52.9398 119.61 51.9392C122.538 51.3648 125.359 52.3166 128.467 53.1397C131.085 53.8341 133.545 54.625 135.02 56.3512C135.975 57.4688 138.341 63.0686 135.929 63.3076C136.161 63.5914 136.331 64.1034 136.764 64.3833C136.227 66.4956 133.889 64.9908 132.589 64.7197C130.839 64.3569 129.603 64.7743 127.891 65.5321C124.963 66.836 120.681 66.6839 118.131 68.8079C115.967 70.6082 115.97 74.6272 114.961 76.879C114.961 76.879 112.159 84.0899 106.042 88.5019C104.474 89.6332 101.411 92.3541 94.7483 93.3829C91.7582 93.8452 88.9612 93.8832 85.8912 93.7301C84.3883 93.658 82.9713 93.5809 81.4646 93.5614C80.5771 93.5546 77.5997 93.46 77.747 93.7448L77.4154 94.5718C77.4671 94.8439 77.5753 95.5236 77.6056 95.6874C77.7275 96.3555 77.7616 96.888 77.787 97.5014C77.8328 98.7643 77.6826 100.081 77.747 101.356C77.8806 103.999 78.8617 106.409 78.9855 109.076C79.1211 112.046 80.5898 115.188 82.0107 117.614C82.55 118.537 83.3712 118.643 83.7291 119.78C84.1484 121.083 83.7515 122.465 83.9553 123.853C84.755 129.238 86.3057 134.866 88.7301 139.725C88.7467 139.765 88.7662 139.809 88.7867 139.845L88.7876 139.847C91.7816 139.344 94.7814 138.267 98.6717 137.692C105.805 136.634 115.725 137.179 122.097 136.582C138.221 135.067 146.971 143.195 161.453 139.864V20.3415C161.451 9.10775 152.348 0 141.112 0ZM80.8658 95.4768C80.8434 95.233 80.8541 95.2671 80.8882 95.4173L80.8658 95.4768Z" fill="url(#paint1_linear_1_7980)"/>
<path d="M37.2297 114.153C38.3551 111.697 39.0047 108.901 39.936 106.39C40.8293 103.98 42.2239 100.575 44.6025 99.3614C44.3129 99.023 39.6327 98.8679 38.3834 98.7431C36.9908 98.6017 35.6976 98.4427 34.345 98.1697C31.8191 97.6596 29.0592 97.1642 26.5713 96.5683C25.0607 96.2026 20.0285 94.4209 18.9352 93.9186C16.3713 92.7366 14.6686 89.5252 12.6645 89.8558C11.3849 90.0645 10.1386 90.5033 9.34279 91.7936C8.69328 92.8459 8.4719 94.6539 8.02232 95.8681C7.50057 97.2764 6.59945 98.591 5.81048 99.9329C4.35932 102.394 1.74764 104.621 0.622211 107.019C0.395956 107.512 0.195057 108.064 0.00683594 108.64V108.917V117.84V133.757V136.057C1.31951 136.281 2.69264 136.557 4.22962 136.968C15.5726 139.995 18.3403 140.25 29.4659 138.979L30.5094 138.84C31.3607 137.067 32.0181 131.034 32.57 129.167C33.0001 127.735 33.5911 126.594 33.8154 125.132C34.027 123.743 33.7959 122.42 33.676 121.158C33.3668 117.996 35.9824 116.867 37.2297 114.153Z" fill="url(#paint2_linear_1_7980)"/>
<path d="M212.944 122.689C207.575 122.689 202.672 121.732 198.238 119.821C193.801 117.91 190 115.165 186.826 111.583C183.653 108.004 181.192 103.65 179.444 98.5243C177.693 93.3984 176.819 87.5821 176.819 81.0714C176.819 74.5627 177.693 68.7659 179.444 63.681C181.192 58.5971 183.653 54.3255 186.826 50.8664C190 47.4091 193.801 44.7643 198.238 42.9338C202.672 41.1033 207.575 40.1875 212.944 40.1875C218.314 40.1875 223.214 41.1033 227.651 42.9338C232.083 44.7643 235.887 47.4306 239.06 50.9278C242.234 54.427 244.694 58.72 246.445 63.8039C248.193 68.8897 249.067 74.6466 249.067 81.0724C249.067 87.5831 248.193 93.3994 246.445 98.5253C244.694 103.651 242.234 108.005 239.06 111.584C235.887 115.166 232.083 117.911 227.651 119.822C223.215 121.731 218.314 122.689 212.944 122.689ZM212.944 107.188C218.394 107.188 222.708 104.851 225.882 100.171C229.053 95.4932 230.64 89.1269 230.64 81.0714C230.64 73.0989 229.053 66.8739 225.882 62.3995C222.708 57.9261 218.394 55.687 212.944 55.687C207.493 55.687 203.18 57.9251 200.007 62.3995C196.833 66.8749 195.247 73.0998 195.247 81.0714C195.247 89.1269 196.833 95.4932 200.007 100.171C203.181 104.851 207.494 107.188 212.944 107.188Z" fill="#484444"/>
<path d="M255.413 81.9277C255.413 75.337 256.43 69.4602 258.464 64.2925C260.499 59.1266 263.243 54.7537 266.702 51.1726C270.159 47.5935 274.188 44.8686 278.784 42.9952C283.381 41.1247 288.243 40.1875 293.369 40.1875C298.331 40.1875 302.826 41.2252 306.855 43.2995C310.881 45.3748 314.237 47.7963 316.923 50.5611L307.037 61.6671C305.003 59.7966 302.948 58.3318 300.874 57.2737C298.799 56.2175 296.379 55.687 293.613 55.687C290.845 55.687 288.263 56.278 285.863 57.456C283.463 58.6361 281.368 60.3242 279.579 62.5205C277.789 64.7167 276.385 67.4015 275.368 70.5749C274.351 73.7474 273.843 77.3294 273.843 81.3143C273.843 89.5336 275.593 95.899 279.093 100.414C282.588 104.931 287.268 107.187 293.127 107.187C296.381 107.187 299.228 106.537 301.67 105.235C304.11 103.934 306.307 102.225 308.261 100.109L318.147 110.971C314.81 114.876 311.006 117.806 306.736 119.758C302.463 121.712 297.844 122.688 292.882 122.688C287.757 122.688 282.917 121.813 278.36 120.064C273.802 118.316 269.817 115.731 266.4 112.314C262.983 108.897 260.297 104.647 258.344 99.561C256.39 94.479 255.413 88.6003 255.413 81.9277Z" fill="#484444"/>
<path d="M324.123 104.381C324.123 98.0342 326.807 93.0722 332.177 89.4921C337.548 85.913 346.213 83.5119 358.173 82.2919C358.009 79.6061 357.196 77.4713 355.733 75.8846C354.268 74.2979 351.906 73.505 348.652 73.505C346.049 73.505 343.445 73.9936 340.843 74.9698C338.237 75.946 335.471 77.2889 332.543 78.9976L326.197 67.1592C330.101 64.8001 334.191 62.8876 338.461 61.4228C342.734 59.959 347.267 59.2266 352.069 59.2266C359.88 59.2266 365.84 61.4443 369.949 65.8777C374.055 70.3131 376.112 77.208 376.112 86.5644V121.224H361.468L360.125 115H359.759C357.154 117.279 354.409 119.131 351.522 120.552C348.632 121.975 345.48 122.688 342.063 122.688C339.297 122.688 336.815 122.219 334.619 121.285C332.423 120.351 330.55 119.048 329.005 117.379C327.459 115.712 326.259 113.779 325.404 111.582C324.55 109.385 324.123 106.986 324.123 104.381ZM341.209 103.038C341.209 104.992 341.838 106.436 343.1 107.37C344.361 108.307 346.049 108.774 348.165 108.774C350.279 108.774 352.07 108.328 353.535 107.432C354.999 106.536 356.544 105.276 358.173 103.648V93.0293C351.744 93.9255 347.312 95.2265 344.87 96.9351C342.43 98.6457 341.209 100.679 341.209 103.038Z" fill="#484444"/>
<path d="M386.608 60.6884H401.254L402.475 68.4991H402.963C405.484 65.9781 408.168 63.8004 411.018 61.9699C413.866 60.1394 417.283 59.2236 421.27 59.2236C425.582 59.2236 429.06 60.0984 431.704 61.847C434.348 63.5976 436.442 66.0991 437.989 69.3525C440.675 66.5877 443.499 64.2081 446.471 62.2127C449.44 60.2203 452.958 59.2227 457.029 59.2227C463.536 59.2227 468.316 61.4004 471.368 65.7519C474.419 70.1053 475.944 76.064 475.944 83.6309V121.22H458.004V85.95C458.004 81.5566 457.413 78.547 456.235 76.9184C455.054 75.2917 453.163 74.4773 450.561 74.4773C447.549 74.4773 444.092 76.4307 440.185 80.3356V121.22H422.247V85.95C422.247 81.5566 421.655 78.547 420.477 76.9184C419.296 75.2917 417.405 74.4773 414.801 74.4773C411.707 74.4773 408.29 76.4307 404.549 80.3356V121.22H386.608V60.6884Z" fill="#484444"/>
<path d="M486.318 35.6719H504.26V103.161C504.26 105.035 504.604 106.335 505.295 107.067C505.987 107.8 506.699 108.165 507.432 108.165H508.468C508.752 108.165 509.14 108.085 509.627 107.921L511.824 121.225C510.848 121.63 509.607 121.977 508.102 122.261C506.595 122.546 504.826 122.689 502.794 122.689C499.7 122.689 497.096 122.201 494.982 121.225C492.866 120.248 491.179 118.887 489.918 117.136C488.655 115.388 487.741 113.274 487.171 110.791C486.602 108.31 486.318 105.523 486.318 102.431V35.6719Z" fill="#484444"/>
</g>
<defs>
<linearGradient id="paint0_linear_1_7980" x1="2438.86" y1="96.5183" x2="2438.86" y2="4513.98" gradientUnits="userSpaceOnUse">
<stop stop-color="#F29100"/>
<stop offset="1" stop-color="#EC670F"/>
</linearGradient>
<linearGradient id="paint1_linear_1_7980" x1="8072.14" y1="-0.0195048" x2="8072.14" y2="14067.3" gradientUnits="userSpaceOnUse">
<stop stop-color="#F29100"/>
<stop offset="1" stop-color="#EC670F"/>
</linearGradient>
<linearGradient id="paint2_linear_1_7980" x1="2229.79" y1="89.8073" x2="2229.79" y2="5076.62" gradientUnits="userSpaceOnUse">
<stop stop-color="#F29100"/>
<stop offset="1" stop-color="#EC670F"/>
</linearGradient>
<clipPath id="clip0_1_7980">
<rect width="512" height="141" fill="white"/>
</clipPath>
</defs>
</svg>
