<svg width="256" height="239" viewBox="0 0 256 239" fill="none" xmlns="http://www.w3.org/2000/svg">
<g clip-path="url(#clip0_1_7992)">
<path d="M159.412 2.83203C149.375 2.83203 139.07 5.40203 129.343 11.037L30.2134 68.465C-10.2186 91.887 -10.0336 150.425 30.5434 173.228L130.158 229.207C139.627 234.527 149.63 236.959 159.38 236.959C190.99 236.959 219.98 211.425 219.829 176.07L219.345 62.664C219.196 27.707 190.623 2.83203 159.412 2.83203ZM159.412 11.521C172.482 11.521 185.46 16.768 195.018 25.916C205.042 35.51 210.596 48.573 210.656 62.701L211.141 176.107C211.2 190.041 205.892 203.078 196.197 212.815C186.417 222.637 172.998 228.269 159.38 228.269C150.652 228.269 142.253 226.036 134.415 221.632L34.8014 165.652C18.5734 156.534 8.81244 139.928 8.69044 121.231C8.56644 102.357 18.2414 85.442 34.5684 75.983L133.699 18.556C141.756 13.888 150.407 11.521 159.412 11.521Z" fill="#AF81E0"/>
<path d="M95.0721 0C63.1701 0 33.8351 25.485 33.8351 61.223V177.576C33.8351 213.237 63.1101 238.796 95.0511 238.796C105.134 238.796 115.48 236.25 125.258 230.671L225.164 173.668C265.864 150.446 266.377 91.95 226.092 68.019L126.185 8.668C116.162 2.713 105.479 0 95.0721 0ZM95.0721 8.689C104.452 8.689 113.427 11.195 121.747 16.138L221.654 75.489C237.884 85.131 247.474 102.156 247.309 121.033C247.143 139.91 237.255 156.766 220.859 166.121L120.952 223.124C112.831 227.757 104.117 230.106 95.0511 230.106C81.6301 230.106 68.3001 224.705 58.4791 215.287C48.1911 205.421 42.5241 192.028 42.5241 177.576V61.223C42.5241 28.774 69.8011 8.689 95.0721 8.689Z" fill="#9069C4"/>
<path d="M215.22 129.788C214.917 129.788 214.631 129.73 214.336 129.698L219.062 121.515L214.336 113.331C214.63 113.299 214.917 113.241 215.22 113.241C219.782 113.241 223.492 116.953 223.492 121.515C223.492 126.077 219.782 129.788 215.22 129.788ZM172.498 180.936C164.823 180.936 158.346 186.037 156.253 193.031H97.7131C95.6201 186.037 89.1431 180.936 81.4681 180.936C80.4011 180.936 79.3611 181.047 78.3481 181.235L50.5441 133.077C53.3741 130.046 55.1201 125.989 55.1201 121.515C55.1201 117.041 53.3751 112.983 50.5441 109.952L77.8861 62.5949C79.0421 62.8429 80.2381 62.9809 81.4681 62.9809C89.4631 62.9809 96.1481 57.4429 97.9421 49.9989H156.751C159.249 56.2539 165.351 60.6789 172.498 60.6789C172.959 60.6789 173.412 60.6459 173.865 60.6099L202.539 110.276C199.883 113.27 198.257 117.198 198.257 121.515C198.257 125.832 199.883 129.76 202.539 132.754L174.635 181.085C173.933 180.997 173.223 180.936 172.498 180.936ZM165.842 193.031C166.733 191.816 167.93 190.844 169.339 190.259L167.738 193.031H165.842ZM180.771 197.898C180.771 202.461 177.06 206.172 172.498 206.172C169.322 206.172 166.59 204.352 165.204 201.72H172.755L178.339 192.047C179.841 193.545 180.771 195.615 180.771 197.898ZM83.3241 189.853C85.2851 190.306 86.9701 191.457 88.1241 193.031H85.1581L83.3241 189.853ZM81.4681 206.172C76.9071 206.172 73.1951 202.461 73.1951 197.898C73.1951 195.97 73.8861 194.217 74.9961 192.809L80.1421 201.72H88.7621C87.3761 204.352 84.6441 206.172 81.4681 206.172ZM38.1581 129.788C33.5961 129.788 29.8851 126.077 29.8851 121.515C29.8851 116.953 33.5961 113.241 38.1581 113.241C38.3041 113.241 38.4421 113.277 38.5871 113.285L33.8351 121.515L38.5861 129.744C38.4411 129.752 38.3041 129.788 38.1581 129.788ZM46.4301 121.515C46.4301 122.675 46.1861 123.777 45.7541 124.779L43.8681 121.515L45.7541 118.25C46.1861 119.253 46.4301 120.354 46.4301 121.515ZM88.6761 49.9989C87.4631 52.1839 85.3141 53.7579 82.7551 54.1619L85.1581 49.9989H88.6761ZM73.1951 46.0179C73.1951 41.4569 76.9071 37.7459 81.4681 37.7459C84.2791 37.7459 86.7591 39.1609 88.2551 41.3089H80.1421L74.6951 50.7439C73.7561 49.4019 73.1951 47.7769 73.1951 46.0179ZM168.16 50.7289C167.811 50.5129 167.49 50.2639 167.177 49.9989H167.738L168.16 50.7289ZM172.498 35.4439C177.06 35.4439 180.771 39.1549 180.771 43.7169C180.771 46.2579 179.595 48.5059 177.787 50.0249L172.755 41.3089H164.624C165.662 37.9259 168.779 35.4439 172.498 35.4439ZM206.947 121.515C206.947 120.551 207.144 119.64 207.449 118.778L209.028 121.515L207.449 124.251C207.144 123.391 206.947 122.478 206.947 121.515ZM215.22 104.553C213.319 104.553 211.496 104.879 209.79 105.456L182.18 57.6339C186.577 54.5689 189.46 49.4819 189.46 43.7169C189.46 34.3489 181.866 26.7539 172.498 26.7539C163.949 26.7539 156.898 33.0839 155.726 41.3089H97.7541C95.7111 34.2349 89.2001 29.0569 81.4681 29.0569C72.1001 29.0569 64.5061 36.6509 64.5061 46.0179C64.5061 51.0289 66.6911 55.5179 70.1461 58.6229L43.1901 105.312C41.6001 104.818 39.9091 104.553 38.1581 104.553C28.7891 104.553 21.1951 112.146 21.1951 121.515C21.1951 130.883 28.7891 138.477 38.1581 138.477C39.9091 138.477 41.6001 138.211 43.1901 137.718L70.4821 184.989C66.8291 188.1 64.5061 192.725 64.5061 197.898C64.5061 207.267 72.1001 214.861 81.4681 214.861C89.5201 214.861 96.2471 209.245 97.9821 201.72H155.984C157.719 209.245 164.446 214.861 172.498 214.861C181.866 214.861 189.46 207.267 189.46 197.898C189.46 192.389 186.821 187.506 182.75 184.408L209.79 137.573C211.496 138.15 213.319 138.477 215.22 138.477C224.588 138.477 232.182 130.883 232.182 121.515C232.182 112.146 224.588 104.553 215.22 104.553Z" fill="#825ABA"/>
<path d="M182.134 43.7141C182.134 49.0351 177.82 53.3501 172.498 53.3501C167.176 53.3501 162.862 49.0351 162.862 43.7141C162.862 38.3921 167.176 34.0781 172.498 34.0781C177.82 34.0781 182.134 38.3921 182.134 43.7141Z" fill="white"/>
<path d="M91.1039 46.0178C91.1039 51.3398 86.7899 55.6538 81.4679 55.6538C76.1459 55.6538 71.8329 51.3398 71.8329 46.0178C71.8329 40.6968 76.1459 36.3828 81.4679 36.3828C86.7899 36.3828 91.1039 40.6968 91.1039 46.0178Z" fill="white"/>
<path d="M47.7933 121.511C47.7933 126.833 43.4793 131.147 38.1573 131.147C32.8353 131.147 28.5223 126.833 28.5223 121.511C28.5223 116.19 32.8353 111.875 38.1573 111.875C43.4793 111.875 47.7933 116.19 47.7933 121.511Z" fill="white"/>
<path d="M91.1039 197.898C91.1039 203.22 86.7899 207.534 81.4679 207.534C76.1459 207.534 71.8329 203.22 71.8329 197.898C71.8329 192.577 76.1459 188.262 81.4679 188.262C86.7899 188.262 91.1039 192.577 91.1039 197.898Z" fill="white"/>
<path d="M182.134 197.898C182.134 203.22 177.82 207.534 172.498 207.534C167.176 207.534 162.862 203.22 162.862 197.898C162.862 192.577 167.176 188.262 172.498 188.262C177.82 188.262 182.134 192.577 182.134 197.898Z" fill="white"/>
<path d="M224.856 121.511C224.856 126.833 220.542 131.147 215.22 131.147C209.898 131.147 205.585 126.833 205.585 121.511C205.585 116.19 209.898 111.875 215.22 111.875C220.542 111.875 224.856 116.19 224.856 121.511Z" fill="white"/>
</g>
<defs>
<clipPath id="clip0_1_7992">
<rect width="256" height="239" fill="white"/>
</clipPath>
</defs>
</svg>
