<svg width="256" height="256" viewBox="0 0 256 256" fill="none" xmlns="http://www.w3.org/2000/svg">
<g clip-path="url(#clip0_1_8039)">
<path d="M67.6514 147.203H67.3931H0.100586C0.112013 147.532 0.121155 147.864 0.139438 148.193C0.166864 148.828 0.212573 149.461 0.251425 150.096C0.269709 150.368 0.281136 150.64 0.301705 150.91C0.35427 151.646 0.418262 152.377 0.48454 153.109C0.500538 153.276 0.514251 153.44 0.530249 153.6C0.607954 154.414 0.697086 155.227 0.793075 156.034C0.797646 156.114 0.806787 156.192 0.818215 156.269C0.923345 157.143 1.03533 158.016 1.16332 158.884C1.16332 158.893 1.1656 158.907 1.17017 158.916C1.94494 164.301 3.10823 169.635 4.66004 174.878C4.6669 174.9 4.67604 174.921 4.68061 174.944C4.92287 175.769 5.17884 176.589 5.44166 177.405C5.45766 177.453 5.47366 177.501 5.48737 177.549C5.50108 177.597 5.51708 177.645 5.53308 177.693C5.77305 178.431 6.02445 179.167 6.27585 179.906C6.34213 180.091 6.40383 180.278 6.4724 180.463C6.69866 181.101 6.92949 181.738 7.16717 182.376C7.27687 182.664 7.38657 182.95 7.49399 183.24C7.69968 183.768 7.90308 184.291 8.11106 184.819C8.26875 185.215 8.43331 185.61 8.59786 186.005C8.76698 186.417 8.94067 186.826 9.11437 187.239C9.3292 187.742 9.55317 188.243 9.77486 188.743C9.90742 189.043 10.0423 189.34 10.1748 189.637C10.4491 190.238 10.7325 190.839 11.0159 191.436C11.1096 191.628 11.1987 191.82 11.2947 192.011C11.6261 192.699 11.9643 193.38 12.3071 194.057C12.3643 194.162 12.4145 194.265 12.4671 194.37C12.8533 195.12 13.2464 195.869 13.651 196.612C13.6693 196.644 13.6875 196.676 13.7035 196.713C13.7881 196.868 13.8818 197.017 13.9664 197.17L71.6578 162.415L71.8703 162.287C69.594 157.49 68.177 152.389 67.6514 147.203Z" fill="#93D500"/>
<path d="M84.2528 178.215L84.0905 178.377L36.5099 225.96C36.7544 226.189 36.9967 226.419 37.2481 226.641C37.6915 227.043 38.144 227.443 38.5942 227.836C38.8273 228.044 39.0559 228.25 39.289 228.451C39.8283 228.917 40.3723 229.372 40.9139 229.827C41.0625 229.95 41.2065 230.071 41.3527 230.193C41.963 230.698 42.5846 231.194 43.2085 231.687C43.2885 231.749 43.3685 231.813 43.4485 231.877C44.1227 232.407 44.8038 232.924 45.4917 233.445C45.5214 233.463 45.5465 233.481 45.5694 233.502C48.4353 235.643 51.4064 237.65 54.4712 239.52C54.5763 239.586 54.6814 239.647 54.7888 239.714C55.3716 240.063 55.9544 240.409 56.5418 240.749C56.9006 240.955 57.2594 241.158 57.6182 241.362C57.9565 241.558 58.2947 241.746 58.6375 241.935C59.2546 242.273 59.8762 242.609 60.4979 242.939C60.5824 242.984 60.6693 243.03 60.7561 243.076C62.4862 243.981 64.246 244.822 66.0195 245.631L67.7085 241.531L91.6393 183.414L91.7284 183.199C89.1139 181.801 86.609 180.144 84.2528 178.215Z" fill="#4D5A31"/>
<path d="M79.2979 173.473C78.7837 172.902 78.2946 172.317 77.8147 171.725C77.3896 171.199 76.9782 170.669 76.5805 170.132C76.1257 169.515 75.68 168.896 75.2595 168.263C74.8344 167.627 74.4185 166.987 74.0254 166.336L16.2609 201.134C17.1476 202.608 18.0732 204.043 19.0171 205.463C19.0491 205.511 19.0788 205.563 19.1108 205.611C19.1222 205.63 19.1337 205.646 19.1451 205.664C19.1771 205.71 19.2045 205.76 19.2365 205.808C19.2388 205.812 19.2434 205.817 19.2456 205.822C19.3211 205.936 19.3988 206.045 19.4765 206.16C19.4811 206.167 19.4856 206.173 19.4902 206.18C19.4925 206.183 19.4948 206.187 19.497 206.189C20.5004 207.673 21.5311 209.133 22.5938 210.555C22.6167 210.584 22.6418 210.616 22.6647 210.646C22.6875 210.676 22.7104 210.705 22.7332 210.735C23.1949 211.348 23.6588 211.958 24.1365 212.564C24.1982 212.644 24.2599 212.721 24.3262 212.799C24.8153 213.425 25.3135 214.042 25.8209 214.655C25.9397 214.799 26.0631 214.945 26.182 215.091C26.6391 215.637 27.0961 216.181 27.5624 216.721C27.7612 216.952 27.9692 217.182 28.1703 217.411C28.568 217.863 28.9611 218.314 29.3679 218.759C29.5896 219.004 29.8204 219.251 30.0466 219.495C30.1495 219.607 30.2501 219.717 30.3552 219.829C30.6523 220.149 30.9471 220.469 31.2465 220.787C31.3653 220.912 31.491 221.036 31.6122 221.161C32.1378 221.71 32.668 222.258 33.2097 222.798L80.8611 175.146C80.3149 174.6 79.803 174.038 79.2979 173.473Z" fill="#6BA43A"/>
<path d="M142.461 178.191C141.937 178.614 141.407 179.028 140.868 179.426L140.987 179.624L175.73 237.298C177.339 236.246 178.93 235.163 180.484 234.025C183.846 231.545 187.1 228.857 190.236 225.964L142.65 178.379L142.461 178.191Z" fill="#4D5A31"/>
<path d="M170.681 237.77L169.502 235.814L137.072 181.98C136.416 182.376 135.744 182.732 135.074 183.093C134.398 183.457 133.717 183.797 133.026 184.124C126.796 187.079 120.052 188.588 113.298 188.588C108.874 188.588 104.451 187.948 100.175 186.672C99.4464 186.455 98.7356 186.17 98.0157 185.914C97.2958 185.66 96.5667 185.441 95.8582 185.148L71.9434 243.226L71.0063 245.502L70.2042 247.452L70.1996 247.461C70.2613 247.486 70.3253 247.506 70.387 247.531C70.4533 247.559 70.5173 247.579 70.5835 247.607H70.5858C70.5881 247.607 70.5904 247.609 70.5904 247.609C70.6064 247.616 70.6224 247.621 70.6361 247.627C71.2006 247.858 71.7697 248.057 72.3365 248.279C73.0472 248.555 73.758 248.836 74.4711 249.097C74.8345 249.23 75.1956 249.385 75.5589 249.513H75.5612C83.0529 252.16 90.8051 254.011 98.6876 255.048C98.9961 255.085 99.3024 255.128 99.6109 255.172C99.9332 255.208 100.258 255.24 100.58 255.277C101.188 255.345 101.794 255.416 102.404 255.476C102.555 255.487 102.705 255.501 102.856 255.515C103.604 255.585 104.351 255.649 105.094 255.702C105.347 255.72 105.603 255.732 105.855 255.75C106.511 255.793 107.162 255.835 107.816 255.864C108.216 255.887 108.616 255.899 109.018 255.912C109.537 255.931 110.053 255.951 110.576 255.967C111.324 255.985 112.078 255.992 112.83 255.994C113.008 255.994 113.184 255.999 113.36 256.001C119.657 256.001 125.951 255.478 132.176 254.434C132.281 254.418 132.384 254.399 132.492 254.386C133.15 254.271 133.808 254.148 134.466 254.027C134.841 253.954 135.218 253.883 135.588 253.81C135.972 253.73 136.359 253.65 136.742 253.567C137.385 253.433 138.025 253.293 138.667 253.145C138.781 253.119 138.898 253.097 139.014 253.065C148.478 250.859 157.618 247.445 166.204 242.926L166.206 242.924C166.769 242.627 167.317 242.289 167.877 241.985C168.544 241.619 169.207 241.242 169.87 240.863C170.329 240.6 170.793 240.358 171.248 240.086L171.25 240.083C171.255 240.081 171.26 240.076 171.264 240.074C171.264 240.074 171.264 240.074 171.266 240.074C171.273 240.07 171.28 240.067 171.287 240.063C171.292 240.06 171.294 240.058 171.296 240.056C171.301 240.054 171.305 240.051 171.31 240.049C171.317 240.044 171.324 240.042 171.33 240.038C171.356 240.022 171.381 240.008 171.406 239.992C171.554 239.903 171.703 239.814 171.851 239.724L170.681 237.77Z" fill="#93D500"/>
<path d="M84.2803 107.079C84.8059 106.654 85.3361 106.242 85.8732 105.845L85.7544 105.646L51.0134 47.9727C49.3999 49.0262 47.8046 50.1118 46.2482 51.2546C42.8886 53.7274 39.6365 56.4128 36.5077 59.3039L84.0929 106.889L84.2803 107.079Z" fill="#93D500"/>
<path d="M33.2075 62.4727C32.6658 63.0143 32.1539 63.5742 31.6259 64.1227C31.098 64.6712 30.5609 65.2175 30.0444 65.7751C26.5294 69.5804 23.3161 73.5662 20.4181 77.7051C20.2787 77.8994 20.1393 78.1028 20.0022 78.3016C19.6754 78.777 19.3531 79.2524 19.0354 79.73C18.7041 80.226 18.3749 80.7288 18.055 81.2293C17.9339 81.4121 17.815 81.5972 17.6985 81.7801C6.75348 98.9506 0.889037 118.425 0.100559 138.064C0.0708487 138.825 0.0548506 139.588 0.0388525 140.349C0.0228544 141.11 0 141.873 0 142.635H67.3931C67.3931 141.871 67.4639 141.112 67.5028 140.349C67.5416 139.586 67.5531 138.822 67.6285 138.064C68.4992 129.288 71.8863 120.719 77.7919 113.52C78.2718 112.935 78.8134 112.387 79.3277 111.822C79.8396 111.258 80.315 110.67 80.8612 110.126L33.2075 62.4727Z" fill="#4D5A31"/>
<path d="M172.261 45.7447C172.169 45.6875 172.073 45.6327 171.982 45.5778C171.39 45.2144 170.791 44.8648 170.192 44.5151C169.845 44.314 169.497 44.1197 169.148 43.9209C168.796 43.7243 168.448 43.5278 168.094 43.3358C167.486 43.0021 166.876 42.673 166.264 42.3485C166.168 42.3005 166.074 42.2479 165.976 42.1977C162.024 40.1316 157.965 38.3124 153.822 36.7332C153.716 36.6897 153.607 36.6486 153.499 36.6098C152.597 36.2715 151.692 35.9355 150.78 35.6202C143.418 33.049 135.805 31.2458 128.072 30.2311C127.756 30.1877 127.438 30.1442 127.123 30.1031C126.805 30.0642 126.49 30.0323 126.175 29.998C125.564 29.9271 124.956 29.8586 124.344 29.7991C124.175 29.7831 124.003 29.7717 123.832 29.7534C123.108 29.6871 122.379 29.6232 121.654 29.5706C121.373 29.55 121.087 29.534 120.806 29.518C120.184 29.4769 119.556 29.4335 118.934 29.406C118.601 29.3878 118.272 29.3786 117.942 29.3672L117.94 96.6597V96.9225C121.407 97.2814 124.842 98.0196 128.174 99.1508L177.892 49.4334C176.048 48.1535 174.18 46.9102 172.261 45.7447Z" fill="#4D5A31"/>
<path d="M111.086 29.3113C110.325 29.3273 109.562 29.3296 108.801 29.3593C104.033 29.5513 99.275 30.0381 94.5556 30.8289C94.4527 30.8472 94.3499 30.8631 94.2447 30.8814C93.582 30.9957 92.926 31.1168 92.2678 31.2402C91.8953 31.3111 91.5205 31.3797 91.148 31.4551C90.7594 31.5328 90.3732 31.6128 89.987 31.6973C89.347 31.8299 88.7071 31.9693 88.0672 32.1179C87.9506 32.143 87.8364 32.1704 87.7175 32.1956C78.2535 34.4033 69.1095 37.82 60.5253 42.3383H60.5231C59.9631 42.6355 59.4169 42.9714 58.8593 43.2777C58.1919 43.6433 57.5291 44.0204 56.8664 44.3998C56.375 44.6832 55.8745 44.9438 55.3854 45.2363C55.3808 45.2386 55.374 45.2431 55.3694 45.2454H55.3671C55.3328 45.266 55.2985 45.2843 55.2643 45.3049C55.1363 45.3826 55.0037 45.4465 54.8757 45.5243L54.8826 45.5357L56.0619 47.4943L89.6693 103.286C90.3252 102.891 90.9971 102.532 91.6668 102.173C92.341 101.81 93.0243 101.47 93.7122 101.143C98.5117 98.8573 103.613 97.4403 108.798 96.9147C109.559 96.837 110.321 96.773 111.084 96.7341C111.845 96.6953 112.606 96.6564 113.369 96.6564L113.372 29.2656C112.608 29.2656 111.847 29.2976 111.086 29.3113Z" fill="#6BA43A"/>
<path d="M226.602 137.06C226.57 136.454 226.533 135.851 226.492 135.243C226.474 134.941 226.458 134.642 226.432 134.336C226.382 133.625 226.323 132.912 226.256 132.201C226.243 132.016 226.224 131.833 226.208 131.648C226.131 130.853 226.046 130.057 225.955 129.264C225.946 129.2 225.939 129.136 225.932 129.072C225.927 129.042 225.925 129.01 225.92 128.981C225.815 128.124 225.701 127.267 225.58 126.412C225.578 126.387 225.575 126.355 225.569 126.332C224.794 120.959 223.633 115.634 222.086 110.398C222.074 110.361 222.065 110.329 222.054 110.297C221.809 109.484 221.56 108.675 221.304 107.868C221.27 107.763 221.233 107.655 221.201 107.548C220.961 106.819 220.719 106.094 220.467 105.368C220.397 105.173 220.328 104.977 220.259 104.778C220.038 104.149 219.809 103.523 219.576 102.897C219.464 102.598 219.35 102.3 219.233 102.003C219.037 101.485 218.833 100.966 218.628 100.454C218.463 100.042 218.299 99.6379 218.129 99.2334C217.965 98.8312 217.796 98.4335 217.627 98.0313C217.405 97.5193 217.181 97.0074 216.955 96.4977C216.827 96.2121 216.699 95.9218 216.566 95.6339C216.287 95.0259 216.002 94.418 215.714 93.8124C215.625 93.6295 215.538 93.4421 215.449 93.2593C215.113 92.5668 214.772 91.8743 214.425 91.1887C214.374 91.095 214.326 90.999 214.276 90.903C213.888 90.1465 213.49 89.3877 213.085 88.6404C213.069 88.6153 213.058 88.5855 213.042 88.5604C211.079 84.9494 208.924 81.4573 206.592 78.0977L156.859 127.833C157.99 131.168 158.726 134.601 159.085 138.065H159.35H226.643C226.627 137.725 226.618 137.391 226.602 137.06Z" fill="#4D5A31"/>
<path d="M159.346 142.631C159.346 143.395 159.275 144.153 159.236 144.917C159.199 145.68 159.186 146.443 159.11 147.202C158.239 155.978 154.852 164.549 148.949 171.748C148.469 172.333 147.928 172.881 147.413 173.446C146.901 174.01 146.426 174.598 145.88 175.142L193.534 222.793C194.075 222.251 194.585 221.691 195.113 221.141C195.641 220.59 196.178 220.046 196.692 219.488C200.218 215.669 203.441 211.674 206.346 207.522C206.462 207.357 206.572 207.195 206.684 207.033C207.038 206.523 207.383 206.009 207.731 205.495C208.035 205.035 208.339 204.576 208.633 204.112C208.78 203.89 208.926 203.659 209.068 203.438C219.997 186.276 225.845 166.823 226.631 147.2C226.661 146.439 226.677 145.675 226.693 144.914C226.709 144.153 226.732 143.392 226.732 142.629H159.346V142.631Z" fill="#6BA43A"/>
<path d="M246.754 9.24747C234.425 -3.08249 214.434 -3.08249 202.106 9.24747C192.27 19.0817 190.304 33.784 196.162 45.5906L127.39 114.364C115.584 108.509 100.882 110.472 91.0451 120.306C78.7151 132.636 78.7174 152.627 91.0451 164.957C103.377 177.287 123.368 177.282 135.698 164.955C145.532 155.12 147.495 140.418 141.638 128.609L210.409 59.838C222.218 65.6933 236.918 63.7301 246.752 53.8936C259.082 41.5705 259.082 21.5774 246.754 9.24747Z" fill="#424143"/>
</g>
<defs>
<clipPath id="clip0_1_8039">
<rect width="256" height="256" fill="white"/>
</clipPath>
</defs>
</svg>
