<svg width="256" height="317" viewBox="0 0 256 317" fill="none" xmlns="http://www.w3.org/2000/svg">
<g clip-path="url(#clip0_1_8077)">
<path d="M96.8987 111.579C73.5242 98.0836 62.1281 70.5711 69.1138 44.5002C76.0995 18.4293 99.725 0.300781 126.716 0.300781C153.706 0.300781 177.332 18.4293 184.317 44.5002C191.303 70.5711 179.907 98.0836 156.532 111.579L138.578 80.4802C147.877 75.1114 152.41 64.1661 149.631 53.7943C146.852 43.4225 137.453 36.2105 126.716 36.2105C115.978 36.2105 106.579 43.4225 103.8 53.7943C101.021 64.1661 105.554 75.1114 114.854 80.4802L96.8987 111.579Z" fill="#FF0101"/>
<path d="M224.599 126.015C247.974 139.51 259.37 167.023 252.384 193.094C245.399 219.164 221.773 237.293 194.782 237.293C167.792 237.293 144.166 219.164 137.181 193.094C130.195 167.023 141.591 139.51 164.966 126.015L182.92 157.114C173.621 162.482 169.088 173.428 171.867 183.799C174.646 194.171 184.045 201.383 194.782 201.383C205.52 201.383 214.919 194.171 217.698 183.799C220.477 173.428 215.944 162.482 206.645 157.114L224.599 126.015Z" fill="#0101FF"/>
<path d="M119.567 177.659C119.567 204.649 101.438 228.275 75.3674 235.26C49.2965 242.246 21.784 230.85 8.28866 207.476C-5.20664 184.101 -1.31965 154.576 17.7656 135.491C36.8508 116.406 66.3754 112.519 89.7499 126.014L71.7951 157.113C62.496 151.744 50.7502 153.29 43.1576 160.883C35.5649 168.476 34.0185 180.222 39.3874 189.521C44.7562 198.82 55.7015 203.353 66.0733 200.574C76.4451 197.795 83.6571 188.396 83.6571 177.659H119.567Z" fill="#01FF01"/>
<path d="M17.3292 251.592C22.3764 251.139 27.4793 251.143 32.5008 251.862C35.5959 252.41 38.8794 253.211 41.204 255.467C43.6398 258.185 44.2391 261.961 44.7743 265.441C45.6519 272.663 45.5491 279.988 44.7743 287.214C44.2563 290.741 43.7468 294.552 41.4351 297.42C38.9137 299.98 35.1892 300.707 31.7731 301.247C26.7301 301.876 21.6144 302.022 16.55 301.517C13.121 301.166 9.54215 300.562 6.62255 298.606C4.73466 297.407 3.72008 295.292 3.03085 293.242C1.64811 288.969 1.47259 284.431 1.28423 279.979C1.26282 274.097 1.37413 268.155 2.52142 262.367C3.14215 259.666 3.8956 256.695 6.17734 254.893C9.39232 252.56 13.4806 251.995 17.3292 251.592ZM18.164 259.653C16.0406 259.974 13.395 260.15 12.115 262.128C10.9977 265.077 11.0362 268.297 10.8093 271.4C10.7023 276.935 10.424 282.522 11.2802 288.015C11.597 289.868 12.2477 292.077 14.3068 292.621C18.7719 293.986 23.5494 293.755 28.1514 293.494C30.446 293.143 33.4897 292.946 34.607 290.545C35.887 286.889 35.7971 282.942 35.9555 279.123C35.9042 273.755 36.2038 268.284 34.9195 263.031C34.6113 261.164 32.6763 260.368 31.0367 260.039C26.8072 259.208 22.4406 259.311 18.164 259.653ZM63.2593 268.322C66.3245 266.374 70.1302 266.058 73.6663 266.379C76.9669 266.661 80.6314 267.783 82.3994 270.822C84.5099 274.637 84.6298 279.144 84.7753 283.4C84.6812 287.775 84.5998 292.343 82.7933 296.409C81.7616 298.88 79.3899 300.498 76.8513 301.136C72.9642 302.09 68.6919 302.193 64.946 300.643C62.9212 299.851 61.5213 298.13 60.3611 296.367V316.363H51.7993C51.8036 299.813 51.7907 283.258 51.8036 266.708C54.5733 266.695 57.3431 266.695 60.1086 266.708C60.0144 268.412 59.9202 270.112 59.8731 271.82C60.9005 270.565 61.8552 269.187 63.2593 268.322ZM66.0462 272.792C64.0085 272.95 61.791 273.96 61.2131 276.092C60.1214 279.851 60.3141 283.832 60.4725 287.702C60.7379 290.224 61.0504 293.473 63.7345 294.603C66.6199 295.72 69.9504 295.66 72.87 294.706C75.3958 293.815 75.764 290.844 76.0294 288.55C76.2948 284.748 76.389 280.87 75.6441 277.115C75.3915 275.66 74.6424 274.157 73.2211 273.545C70.9779 272.556 68.4436 272.607 66.0462 272.792ZM95.0196 268.386C99.2278 266.225 104.155 266.147 108.774 266.366C112.619 266.687 117.285 267.329 119.404 271.006C121.793 275.446 121.403 280.668 121.737 285.54H98.3159C98.5899 288.053 98.2646 290.763 99.5317 293.066C100.615 294.885 102.914 295.258 104.857 295.365C107.259 295.382 109.844 295.579 112.058 294.462C113.325 293.468 113.333 291.705 113.496 290.249C116.236 290.245 118.976 290.245 121.716 290.249C121.613 293.109 121.245 296.311 118.95 298.323C115.504 301.414 110.572 301.735 106.163 301.821C102.272 301.705 98.1618 301.508 94.6771 299.59C91.856 297.925 90.957 294.504 90.4604 291.491C89.8311 287.013 89.6727 282.449 90.2078 277.954C90.6445 274.405 91.5991 270.231 95.0196 268.386ZM100.024 273.836C98.2346 275.467 98.4101 278.173 98.3331 280.39C103.367 280.416 108.402 280.403 113.44 280.394C113.432 278.4 113.625 276.225 112.546 274.448C111.488 273.01 109.506 272.916 107.88 272.74C105.255 272.702 102.361 272.415 100.024 273.836ZM139.969 268.365C142.932 266.31 146.759 266.023 150.244 266.426C153.21 266.738 156.353 267.868 158.103 270.428C159.657 272.552 160.09 275.257 160.111 277.83C160.098 285.681 160.116 293.528 160.107 301.38C157.393 301.384 154.683 301.384 151.977 301.38C151.965 293.952 151.986 286.529 151.965 279.106C151.883 277.483 151.947 275.608 150.727 274.358C149.426 272.95 147.384 272.676 145.565 272.689C143.364 272.676 140.984 273.053 139.289 274.572C137.632 275.985 137.003 278.263 136.994 280.369C136.981 287.372 136.998 294.376 136.986 301.375C134.276 301.384 131.566 301.384 128.86 301.38C128.856 289.821 128.856 278.263 128.86 266.704C131.523 266.695 134.19 266.7 136.853 266.704C136.84 268.733 136.639 270.749 136.579 272.779C137.452 271.139 138.368 269.41 139.969 268.365ZM174.829 253.176C179.316 251.669 184.097 251.455 188.789 251.288C193.336 251.31 198.087 251.353 202.334 253.185C204.492 254.084 205.986 256.053 206.714 258.228C207.899 261.477 207.934 264.996 207.959 268.416C204.83 268.416 201.701 268.425 198.575 268.412C198.524 266.006 198.708 263.309 197.218 261.263C195.712 259.722 193.357 259.726 191.358 259.491C187.291 259.414 183.057 259.152 179.161 260.557C177.757 261.002 177.03 262.406 176.747 263.759C175.946 267.389 175.942 271.135 175.946 274.838C175.994 279.787 175.916 284.808 176.974 289.676C177.252 291.456 178.892 292.552 180.536 292.946C184.337 293.892 188.305 293.755 192.188 293.524C194.213 293.259 196.679 293.126 197.95 291.268C199.307 289.051 199.081 286.324 199.008 283.832C202.167 283.819 205.322 283.823 208.482 283.832C208.443 287.766 208.375 291.829 206.945 295.553C206.208 297.501 204.689 299.154 202.719 299.898C198.854 301.448 194.616 301.547 190.514 301.795C185.758 301.876 180.942 301.761 176.293 300.652C173.566 299.941 170.587 298.691 169.324 295.981C167.71 292.398 167.415 288.413 166.999 284.556C166.653 279.461 166.43 274.358 166.554 269.255C166.798 265.124 167.175 260.771 169.405 257.17C170.591 255.167 172.672 253.913 174.829 253.176ZM210.023 251.734C213.285 251.738 216.547 251.644 219.805 251.781C222.977 261.845 226.461 271.807 229.664 281.859C230.909 285.72 231.791 289.693 233.08 293.541C234.522 289.389 235.447 285.074 236.86 280.912C239.989 271.19 243.204 261.498 246.329 251.776C249.549 251.639 252.776 251.759 256 251.716V252.782C250.7 268.934 245.524 285.129 240.332 301.32C235.486 301.418 230.631 301.431 225.785 301.311C220.622 284.757 215.211 268.279 210.023 251.734Z" fill="#050505"/>
</g>
<defs>
<clipPath id="clip0_1_8077">
<rect width="256" height="317" fill="white"/>
</clipPath>
</defs>
</svg>
