<svg width="512" height="100" viewBox="0 0 512 100" fill="none" xmlns="http://www.w3.org/2000/svg">
<g clip-path="url(#clip0_1_8070)">
<path d="M50.751 52.3538C50.751 60.0018 48.477 66.4438 43.913 71.6588C39.15 77.1228 32.961 79.8658 25.385 79.8658C17.789 79.8658 11.62 77.1228 6.857 71.6588C2.291 66.4438 0 60.0018 0 52.3538C0 44.6848 2.291 38.2448 6.857 33.0488C11.673 27.6358 17.862 24.9308 25.385 24.9308C32.961 24.9308 39.15 27.6358 43.913 33.0488C48.477 38.2448 50.751 44.6848 50.751 52.3538ZM35.667 52.3538C35.667 48.8898 34.838 45.9658 33.178 43.6018C31.321 40.9148 28.722 39.5798 25.385 39.5798C22.047 39.5798 19.449 40.9148 17.59 43.6018C15.913 45.9658 15.083 48.8898 15.083 52.3538C15.083 55.7988 15.913 58.7578 17.59 61.1928C19.449 63.8798 22.047 65.2169 25.385 65.2169C28.722 65.2169 31.321 63.8798 33.178 61.1928C34.838 58.7578 35.667 55.7988 35.667 52.3538ZM105.29 52.3538C105.29 59.4978 103.233 65.7399 99.101 71.0798C94.681 76.9249 88.98 79.8658 82.052 79.8658C77.162 79.8658 73.014 78.4408 69.622 75.6268C69.622 76.2748 69.694 77.8448 69.839 80.3548C69.983 82.8778 70.054 84.9348 70.054 86.5588C70.054 95.5278 67.384 100.001 62.045 100.001C59.861 100.001 58.076 99.2248 56.65 97.6908C55.243 96.1408 54.539 94.2788 54.539 92.0808V33.7528C54.539 31.6238 55.261 29.7828 56.704 28.2328C58.147 26.6988 59.934 25.9248 62.063 25.9248C65.273 25.9248 67.619 27.5268 69.099 30.7228C72.256 26.8618 76.568 24.9308 82.034 24.9308C88.98 24.9308 94.663 27.8158 99.101 33.6088C103.215 38.9678 105.29 45.2098 105.29 52.3538ZM90.206 52.3538C90.206 48.8898 89.36 45.9658 87.7 43.6018C85.84 40.9148 83.243 39.5798 79.905 39.5798C76.568 39.5798 73.97 40.9148 72.111 43.6018C70.451 45.9658 69.622 48.8898 69.622 52.3538C69.622 55.7988 70.451 58.7578 72.111 61.1928C73.97 63.8798 76.568 65.2169 79.905 65.2169C83.243 65.2169 85.84 63.8798 87.7 61.1928C89.36 58.7578 90.206 55.7988 90.206 52.3538ZM160.171 50.7318C160.171 53.2548 159.575 54.9868 158.384 55.9628C157.194 56.9178 155.336 57.4048 152.828 57.4048H125.603C125.603 60.2918 126.957 62.5098 129.663 64.0598C131.846 65.2708 134.516 65.8858 137.673 65.8858C140.128 65.8858 143.068 65.0708 146.514 63.4678C149.96 61.8428 152.178 61.0478 153.136 61.0478C154.885 61.0478 156.364 61.6798 157.591 62.9788C158.799 64.2608 159.414 65.8118 159.414 67.5988C159.414 71.7278 156.329 74.9428 150.157 77.2508C145.449 78.9818 140.668 79.8658 135.78 79.8658C127.914 79.8658 121.563 77.2508 116.71 72.0378C111.856 66.8228 109.422 60.2738 109.422 52.3538C109.422 44.8108 111.947 38.3708 116.998 32.9968C122.031 27.6178 128.293 24.9308 135.761 24.9308C142.707 24.9308 148.516 27.4748 153.172 32.5618C157.825 37.6508 160.171 43.7118 160.171 50.7318ZM145.089 46.9408C145.016 44.6308 143.952 42.5388 141.895 40.6428C139.838 38.7498 137.656 37.8128 135.346 37.8128C132.965 37.8128 130.745 38.7498 128.689 40.6428C126.633 42.5388 125.603 44.6308 125.603 46.9408H145.089ZM210.849 70.9518C210.849 73.1548 210.145 75.0118 208.739 76.5639C207.313 78.0989 205.527 78.8748 203.344 78.8748C198.076 78.8748 195.441 74.6888 195.441 66.3358C195.441 64.7298 195.55 62.2048 195.766 58.7228C196.001 55.2578 196.11 52.7148 196.11 51.1088C196.11 42.2488 193.241 37.8128 187.522 37.8128C181.802 37.8128 178.952 42.2488 178.952 51.1088C178.952 52.7148 179.042 55.2578 179.204 58.7228C179.385 62.2048 179.475 64.7298 179.475 66.3358C179.475 74.6888 176.877 78.8748 171.682 78.8748C169.498 78.8748 167.713 78.0989 166.305 76.5639C164.88 75.0118 164.176 73.1548 164.176 70.9518V33.7368C164.176 31.5498 164.88 29.6948 166.305 28.1968C167.713 26.6808 169.517 25.9248 171.7 25.9248C175.308 25.9248 177.815 27.5268 179.222 30.7228C181.658 26.8618 185.969 24.9308 192.14 24.9308C197.859 24.9308 202.406 26.4448 205.743 29.4578C209.153 32.6898 210.849 37.1258 210.849 42.7738V70.9518ZM258.169 69.3488C258.169 72.7578 255.955 75.4628 251.514 77.4498C247.979 79.0538 244.245 79.8658 240.311 79.8658C232.714 79.8658 226.545 77.1228 221.782 71.6588C217.218 66.4438 214.927 60.0018 214.927 52.3538C214.927 44.6848 217.254 38.2098 221.926 32.9048C226.599 27.5838 232.714 24.9308 240.311 24.9308C244.695 24.9308 248.466 25.5798 251.606 26.8618C255.987 28.5938 258.169 31.2988 258.169 34.9798C258.169 36.8368 257.595 38.4788 256.438 39.9048C255.285 41.3118 253.804 42.0338 252.001 42.0338C250.772 42.0338 249.005 41.6188 246.696 40.8088C244.388 39.9768 242.549 39.5798 241.196 39.5798C237.605 39.5798 234.808 40.8608 232.806 43.4218C230.946 45.7318 230.009 48.6908 230.009 52.3538C230.009 55.7988 230.839 58.7228 232.518 61.0858C234.374 63.8468 236.991 65.2169 240.328 65.2169C241.809 65.2169 243.828 64.7838 246.407 63.8978C248.989 63.0348 250.848 62.5838 252.001 62.5838C253.681 62.5838 255.121 63.3038 256.35 64.7118C257.559 66.1368 258.169 67.6688 258.169 69.3488ZM312.998 70.9518C312.998 73.1548 312.296 75.0118 310.887 76.5639C309.463 78.0989 307.66 78.8748 305.473 78.8748C302.19 78.8748 299.847 77.2678 298.439 74.0748C295.283 77.9368 290.97 79.8658 285.504 79.8658C278.506 79.8658 272.768 76.9249 268.327 71.0798C264.286 65.7399 262.251 59.4978 262.251 52.3538C262.251 45.2098 264.286 38.9678 268.327 33.6088C272.84 27.8158 278.558 24.9308 285.504 24.9308C290.97 24.9308 295.283 26.8618 298.439 30.7228C299.847 27.5268 302.19 25.9248 305.473 25.9248C307.604 25.9248 309.391 26.6988 310.836 28.2328C312.276 29.7828 312.998 31.6058 312.998 33.7368V70.9518ZM297.916 52.3538C297.916 48.8898 297.087 45.9658 295.427 43.6018C293.496 40.9148 290.898 39.5798 287.634 39.5798C284.295 39.5798 281.698 40.9148 279.838 43.6018C278.163 45.9658 277.333 48.8898 277.333 52.3538C277.333 55.7988 278.142 58.7578 279.747 61.1928C281.662 63.8798 284.295 65.2169 287.634 65.2169C290.97 65.2169 293.567 63.8798 295.427 61.1928C297.087 58.7578 297.916 55.7988 297.916 52.3538ZM351.481 32.7418C351.481 35.9708 349.912 38.1898 346.772 39.3978C343.868 40.3738 340.979 41.3678 338.095 42.3928C334.935 44.1988 333.366 47.5538 333.366 52.4258V70.9518C333.366 73.1548 332.644 75.0118 331.24 76.5639C329.812 78.0989 328.008 78.8748 325.826 78.8748C323.627 78.8748 321.82 78.0989 320.415 76.5639C318.987 75.0118 318.285 73.1548 318.285 70.9518V33.7368C318.285 31.5498 318.987 29.6948 320.395 28.1968C321.82 26.6808 323.627 25.9248 325.81 25.9248C329.416 25.9248 331.922 27.5268 333.331 30.7228C336.562 26.8618 340.026 24.9308 343.76 24.9308C345.887 24.9308 347.71 25.7048 349.226 27.2388C350.722 28.7908 351.481 30.6308 351.481 32.7418ZM390.829 33.4278C390.829 36.7828 389.512 38.8938 386.899 39.7978C385.614 40.2478 382.925 40.4818 378.831 40.4818V70.9518C378.831 73.1548 378.109 75.0118 376.705 76.5639C375.276 78.0989 373.473 78.8748 371.29 78.8748C369.164 78.8748 367.356 78.0989 365.912 76.5639C364.472 75.0118 363.749 73.1548 363.749 70.9518V40.4818C360.645 40.4818 358.391 40.0848 356.967 39.3108C355.02 38.2278 354.058 36.2608 354.058 33.4278C354.058 30.5968 355.052 28.6658 357.054 27.6358C358.407 26.8778 360.645 26.4828 363.749 26.4828V20.0238C363.749 12.4288 366.255 8.64084 371.29 8.64084C376.306 8.64084 378.831 12.4288 378.831 20.0238V26.4828C382.925 26.4828 385.614 26.7168 386.899 27.1668C389.512 28.0688 390.829 30.1638 390.829 33.4278ZM512 24.2664C511.959 19.6356 503.402 17.5338 481.251 17.5338C429.275 17.5338 416.089 15.3138 401.977 0.464844C407.913 9.38084 411.161 26.1038 466.098 25.2718C523.416 24.3888 488.449 40.0508 478.275 57.7458C496.622 41.3701 511.945 30.5763 512 24.3338V24.2664ZM438.963 71.8198C438.963 76.1508 435.448 79.6668 431.115 79.6668C426.766 79.6668 423.25 76.1508 423.25 71.8198C423.25 67.4708 426.766 63.9538 431.115 63.9538C435.448 63.9538 438.963 67.4708 438.963 71.8198ZM474.756 71.8198C474.756 76.1508 471.241 79.6668 466.908 79.6668C462.563 79.6668 459.044 76.1508 459.044 71.8198C459.044 67.4708 462.563 63.9538 466.908 63.9538C471.241 63.9538 474.756 67.4708 474.756 71.8198Z" fill="url(#paint0_linear_1_8070)"/>
</g>
<defs>
<linearGradient id="paint0_linear_1_8070" x1="25600" y1="7874.2" x2="25600" y2="0.464844" gradientUnits="userSpaceOnUse">
<stop stop-color="#04B6F0"/>
<stop offset="1" stop-color="#3ECAF0"/>
</linearGradient>
<clipPath id="clip0_1_8070">
<rect width="512" height="100" fill="white"/>
</clipPath>
</defs>
</svg>
