<svg width="512" height="94" viewBox="0 0 512 94" fill="none" xmlns="http://www.w3.org/2000/svg">
<g clip-path="url(#clip0_1_8126)">
<path d="M21.6305 63.8679V67.2932C21.6305 69.9507 23.7841 72.1043 26.4417 72.1043H69.3326C71.9902 72.1043 74.1437 69.9507 74.1437 67.2932V63.8679H95.7703V84.837C95.7703 89.7308 91.7663 93.7348 86.8724 93.7348H8.89788C4.00405 93.7348 0 89.7308 0 84.837V63.8679H21.6305ZM21.6266 36.0522V57.6787H0V36.0522H21.6266ZM95.7703 36.0522V57.6787H74.1437V36.0522H95.7703ZM86.8724 0C91.7663 0 95.7703 4.00405 95.7703 8.90182V29.867H74.1437V26.4417C74.1437 23.7841 71.9902 21.6305 69.3326 21.6305H26.4377C23.7802 21.6305 21.6266 23.7841 21.6266 26.4417V29.867H0V8.89788C0 4.00405 4.00405 0 8.89788 0H86.8724Z" fill="#DA1A32"/>
<path d="M192.572 21.6113C202.289 21.6113 211.459 29.769 211.459 46.1828V47.4663C211.459 63.7856 202.383 72.0339 192.572 72.0339C185.513 72.0339 181.296 68.0889 178.363 63.7817V84.9594H168.005V22.5247H178.363V30.3202C181.387 25.6468 185.603 21.6113 192.572 21.6113ZM450.032 21.6113C457.001 21.6113 461.583 24.1783 465.619 28.2138L459.843 35.8243C457.276 33.1667 454.434 30.9659 450.032 30.9659C443.244 30.9659 438.295 37.4739 438.295 46.6434V47.1002C438.295 56.5414 443.244 62.8683 450.304 62.8683C454.52 62.8683 457.363 60.7619 460.205 57.9193L465.796 64.7935C461.946 69.1008 457.087 72.1245 449.666 72.1284C437.016 72.1284 427.846 61.951 427.846 47.4663V46.549C427.846 32.0643 437.288 21.6113 450.032 21.6113ZM237.829 21.6113C251.03 21.6113 257.999 32.6155 257.999 47.1907L257.999 47.4895C257.998 48.224 257.987 49.4963 257.909 50.7656H227.471C228.384 58.9233 233.428 63.325 239.755 63.325C244.337 63.325 247.731 61.3092 250.94 58.191L256.35 64.6085C251.948 69.2858 246.538 72.1245 239.294 72.1245C226.825 72.1245 217.108 62.5927 217.108 47.3718V46.6395C217.108 32.0643 225.912 21.6113 237.829 21.6113ZM139.866 21.6073C152.701 21.6073 162.142 32.0604 162.142 46.4545V47.2813C162.142 61.5848 152.607 72.1245 139.685 72.1205C126.85 72.1205 117.405 61.762 117.405 47.3679V46.545C117.405 32.2415 126.937 21.6073 139.866 21.6073ZM328.714 21.7924C334.123 21.7924 339.899 23.7176 344.482 27.0169L340.08 34.6274C336.415 32.1549 332.379 30.3202 328.529 30.3202C324.678 30.3202 322.387 32.4305 322.387 35.088V35.2731C322.387 38.4818 326.237 40.1315 331.922 42.6985C339.438 46.0923 345.124 49.5727 345.124 57.1831V57.2737C345.124 66.8093 337.883 72.0339 328.533 72.0378C322.757 72.0378 316.068 69.9275 310.473 65.2542L315.331 57.8288C319.733 61.3998 324.41 63.51 328.718 63.51C333.025 63.51 335.501 61.2186 335.501 58.191V58.1005C335.501 54.6161 331.741 53.057 325.966 50.5806C318.721 47.4624 312.67 44.1631 312.67 36.1865V36.0014C312.67 27.2925 319.639 21.7924 328.714 21.7924ZM402.598 21.9774C408.925 21.9774 413.783 23.7176 416.901 26.9264C420.11 30.1351 421.76 34.903 421.76 40.9583V71.1205H411.582V65.1597C408.74 69.2819 404.432 72.0339 398.105 72.0339C390.038 72.0339 383.255 66.6282 383.255 57.1831V56.7264C383.255 46.2773 390.223 41.1433 400.491 41.1433C405.074 41.1433 408.377 41.9662 411.677 43.0686V41.0488C411.677 34.5408 407.826 31.147 401.224 31.147C396.546 31.147 392.696 32.6155 389.487 34.0801L386.554 25.8279C391.227 23.5365 396.09 21.9774 402.598 21.9774ZM366.384 9.41015V22.5207H377.294V31.4147H366.384V57.2697C366.384 61.0297 368.309 62.5888 371.609 62.5888C373.628 62.5888 375.463 62.1321 377.203 61.2147V69.7425C374.821 71.026 372.069 71.8528 368.581 71.845C361.431 71.845 356.022 68.8212 356.022 59.3761V31.4147H352.407L350.706 22.5207H356.025V9.41015H366.384ZM288.421 21.6113C297.772 21.6113 303.363 28.2099 303.363 38.5724V71.1205H293.004V41.5055C293.004 34.7219 289.795 30.9619 284.295 30.9619C278.886 30.9619 275.126 34.9975 275.126 41.6906V71.1205H264.767V22.5286H275.126V29.6784C277.878 25.3712 281.819 21.6113 288.421 21.6113ZM497.506 45.8993L511.998 71.1166H499.986L490.234 53.7145L497.506 45.8993ZM482.659 4.92578V43.8875L499.254 22.5247H511.541L482.659 57.0926V71.1166H472.3V4.92578H482.659ZM402.783 48.1986C396.826 48.1986 393.341 51.2223 393.341 56.3563V56.5414C393.341 61.3998 396.731 64.1518 401.224 64.2424C407.184 64.3329 411.767 60.2974 411.767 54.7972V49.9388C409.385 48.9309 406.267 48.1986 402.783 48.1986ZM139.677 30.7769C132.437 30.7769 127.759 37.466 127.759 46.545V47.0962C127.759 56.1752 132.803 63.0494 139.862 63.0455C147.102 63.0455 151.78 56.2618 151.78 47.1868V46.6356C151.78 37.5605 146.736 30.7769 139.677 30.7769ZM189.73 30.7808C183.497 30.7808 178.178 36.8282 178.178 46.3639V47.2813C178.178 56.817 183.497 62.8683 189.73 62.8722C196.057 62.8722 201.005 57.0059 201.005 47.2852V46.4584C201.005 36.7416 195.966 30.7808 189.73 30.7808ZM237.829 30.3202C232.144 30.3202 228.113 35.3636 227.38 43.6119H247.916C247.365 35.9109 243.881 30.3202 237.829 30.3202Z" fill="#4E4540"/>
</g>
<defs>
<clipPath id="clip0_1_8126">
<rect width="512" height="94" fill="white"/>
</clipPath>
</defs>
</svg>
