<svg width="512" height="80" viewBox="0 0 512 80" fill="none" xmlns="http://www.w3.org/2000/svg">
<g clip-path="url(#clip0_1_8025)">
<path d="M71.9467 79.7463V58.9883H49.3413C43.1939 58.9883 37.4995 62.2154 34.3509 67.4839L27.0224 79.7463H71.9467Z" fill="#63D2F9"/>
<path d="M0 0V20.758H59.5407L71.9468 0H0Z" fill="#4E5EE4"/>
<path d="M28.4955 32.4407L0.0655518 79.7441H24.2872L58.2844 23.1523H44.9091C38.1814 23.1523 31.9486 26.6795 28.4955 32.4407Z" fill="#63B0F9"/>
<path d="M123.479 59.8267C111.299 59.8267 102.337 50.9735 102.337 39.0931C102.337 27.3269 111.357 18.3594 123.537 18.3594C135.716 18.3594 144.736 27.4411 144.736 39.0931C144.736 50.8593 135.659 59.8267 123.479 59.8267ZM123.537 52.5728C131.235 52.5728 136.75 46.861 136.75 39.0931C136.75 31.4393 131.235 25.6134 123.537 25.6134C115.781 25.6134 110.265 31.4393 110.265 39.0931C110.265 46.861 115.781 52.5728 123.537 52.5728ZM152.892 72.2212V29.0404H160.246V32.8673H160.648C161.452 31.6107 164.21 28.2979 169.725 28.2979C178.171 28.2979 183.973 34.5808 183.973 43.9481C183.973 53.3153 178.228 59.8267 169.955 59.8267C164.612 59.8267 161.74 56.8566 160.763 55.2002H160.361V72.2212H152.892ZM168.289 53.0868C173.115 53.0868 176.39 49.3742 176.39 44.0623C176.39 38.579 173.115 35.0377 168.232 35.0377C163.291 35.0377 160.188 38.9788 160.188 44.0623C160.188 49.6598 163.636 53.0868 168.289 53.0868ZM205.343 59.8267C196.438 59.8267 190.119 53.2011 190.119 44.2336C190.119 34.7521 196.496 28.2979 205.343 28.2979C215.052 28.2979 220.338 35.4376 220.338 43.8909V46.2328H197.357C197.587 50.8022 200.747 53.8865 205.573 53.8865C209.25 53.8865 212.065 52.173 213.099 49.7169H220.051C218.557 55.8285 213.157 59.8267 205.343 59.8267ZM197.472 40.9779H213.214C212.869 36.9226 209.709 34.2381 205.343 34.2381C201.149 34.2381 197.932 37.2082 197.472 40.9779ZM228.379 59.0842V29.0404H235.503V32.6959H235.905C237.112 30.4683 240.099 28.2979 244.408 28.2979C251.187 28.2979 255.324 33.0386 255.324 39.4358V59.0842H247.855V41.3778C247.855 37.7223 245.5 35.2662 242.053 35.2662C238.433 35.2662 235.848 38.1221 235.848 41.8918V59.0842H228.379ZM262.733 59.0842V52.2872L283.645 26.0703V25.6705H263.48V19.102H293.182V25.8418L272.27 52.0587V52.5157H293.297V59.0842H262.733ZM313.518 59.8267C304.613 59.8267 298.293 53.2011 298.293 44.2336C298.293 34.7521 304.67 28.2979 313.518 28.2979C323.227 28.2979 328.513 35.4376 328.513 43.8909V46.2328H305.532C305.762 50.8022 308.922 53.8865 313.748 53.8865C317.425 53.8865 320.24 52.173 321.274 49.7169H328.225C326.732 55.8285 321.331 59.8267 313.518 59.8267ZM305.647 40.9779H321.389C321.044 36.9226 317.884 34.2381 313.518 34.2381C309.324 34.2381 306.107 37.2082 305.647 40.9779ZM336.554 72.2212V29.0404H343.908V32.8673H344.31C345.114 31.6107 347.872 28.2979 353.387 28.2979C361.832 28.2979 367.635 34.5808 367.635 43.9481C367.635 53.3153 361.89 59.8267 353.617 59.8267C348.274 59.8267 345.401 56.8566 344.425 55.2002H344.023V72.2212H336.554ZM351.951 53.0868C356.777 53.0868 360.051 49.3742 360.051 44.0623C360.051 38.579 356.777 35.0377 351.893 35.0377C346.953 35.0377 343.85 38.9788 343.85 44.0623C343.85 49.6598 347.297 53.0868 351.951 53.0868ZM375.676 72.2212V29.0404H383.03V32.8673H383.432C384.236 31.6107 386.994 28.2979 392.509 28.2979C400.955 28.2979 406.757 34.5808 406.757 43.9481C406.757 53.3153 401.012 59.8267 392.739 59.8267C387.396 59.8267 384.524 56.8566 383.547 55.2002H383.145V72.2212H375.676ZM391.073 53.0868C395.899 53.0868 399.174 49.3742 399.174 44.0623C399.174 38.579 395.899 35.0377 391.016 35.0377C386.075 35.0377 382.973 38.9788 382.973 44.0623C382.973 49.6598 386.42 53.0868 391.073 53.0868ZM428.127 59.8267C419.222 59.8267 412.903 53.2011 412.903 44.2336C412.903 34.7521 419.28 28.2979 428.127 28.2979C437.837 28.2979 443.122 35.4376 443.122 43.8909V46.2328H420.141C420.371 50.8022 423.531 53.8865 428.357 53.8865C432.034 53.8865 434.849 52.173 435.883 49.7169H442.835C441.341 55.8285 435.941 59.8267 428.127 59.8267ZM420.256 40.9779H435.998C435.653 36.9226 432.494 34.2381 428.127 34.2381C423.933 34.2381 420.716 37.2082 420.256 40.9779ZM458.517 59.0842C453.231 59.0842 450.244 55.9427 450.244 50.6308V16.2461H457.713V49.9454C457.713 51.6589 458.574 52.5728 460.126 52.5728H461.332V59.0842H458.517ZM472.246 25.0422C469.545 25.0422 467.65 23.3858 467.65 20.7013C467.65 18.131 469.545 16.4174 472.246 16.4174C474.946 16.4174 476.842 18.131 476.842 20.7013C476.842 23.3858 474.946 25.0422 472.246 25.0422ZM468.511 59.0842V29.0404H475.98V59.0842H468.511ZM485.055 59.0842V29.0404H492.179V32.6959H492.581C493.788 30.4683 496.775 28.2979 501.084 28.2979C507.863 28.2979 512 33.0386 512 39.4358V59.0842H504.531V41.3778C504.531 37.7223 502.176 35.2662 498.729 35.2662C495.109 35.2662 492.524 38.1221 492.524 41.8918V59.0842H485.055Z" fill="#282846"/>
</g>
<defs>
<clipPath id="clip0_1_8025">
<rect width="512" height="80" fill="white"/>
</clipPath>
</defs>
</svg>
