<svg width="256" height="237" viewBox="0 0 256 237" fill="none" xmlns="http://www.w3.org/2000/svg">
<g clip-path="url(#clip0_1_8103)">
<path d="M74.8393 106.892L33.9714 121.762C34.4959 128.314 35.6234 134.786 37.2119 141.128L76.0291 126.991C74.7847 120.439 74.3403 113.671 74.8482 106.891" fill="#DA2430"/>
<path d="M255.444 61.7012C252.593 55.8221 249.297 50.1398 245.478 44.7852L204.621 59.6555C209.376 64.5188 213.364 69.9852 216.628 75.8313L255.445 61.6986L255.444 61.7012Z" fill="#DA2430"/>
<path d="M182.95 61.4597C177.81 56.9989 172.004 53.1493 165.542 50.1349H165.539C127.598 32.4468 82.3305 48.9032 64.6424 86.8569C63.6455 88.9984 62.7626 91.163 61.9886 93.3445C59.7809 99.7675 58.4913 106.334 57.9978 112.891L57.8539 112.944C57.8502 112.992 57.8464 113.04 57.8428 113.088L33.2472 122.038L17.4207 127.887C17.4185 127.858 17.4162 127.828 17.4139 127.799L16.98 127.957C15.4436 108.522 18.7196 88.4454 27.5331 69.546C28.687 67.0708 29.9172 64.6549 31.2196 62.2999C60.2738 8.18395 126.384 -14.4359 182.138 11.9708C193.678 17.4388 203.911 24.6077 212.695 33.0438C218.604 38.5104 223.878 44.5318 228.476 50.9843L187.617 65.8573C187.407 65.6424 187.195 65.4285 186.982 65.2158L186.869 65.2576C185.61 63.9506 184.304 62.6833 182.95 61.4597Z" fill="#DA2430"/>
<path d="M19.2613 193.897L19.1969 193.92C10.6957 181.95 4.50807 168.502 0.938721 154.347L39.7635 140.207L39.766 140.21C39.774 140.251 39.7821 140.293 39.7901 140.335L40.0422 140.242L40.0481 140.257C42.0423 150.818 46.1933 160.892 52.2458 169.751C54.5535 173.044 57.1321 176.166 59.9682 179.078L59.814 179.134C59.9117 179.237 60.0096 179.339 60.1078 179.442L19.6203 194.413C19.5002 194.241 19.3805 194.069 19.2613 193.897Z" fill="#E82429"/>
<path d="M173.466 183.444C152.414 196.462 125.412 198.976 101.352 187.756C92.8406 183.787 85.4251 178.418 79.2336 172.062L38.4623 186.905C38.566 187.051 38.6701 187.197 38.7746 187.343L38.7544 187.35C49.9645 203.367 65.2566 216.754 84.0212 225.648C124.49 244.812 170.408 238.15 203.656 212.364C218.544 201.213 230.972 186.349 239.368 168.345C248.187 149.449 251.444 129.381 249.883 109.961L248.747 110.374C248.732 110.166 248.716 109.958 248.7 109.75L208.21 124.707L208.212 124.711C207.568 133.635 205.349 142.588 201.406 151.17C195.091 164.924 185.242 175.879 173.466 183.444Z" fill="#DA2430"/>
<path d="M218.552 75.1273L219.16 74.9063V74.905C225.546 88.0472 229.445 102.332 230.613 116.96L189.84 131.794C189.848 131.693 189.855 131.591 189.862 131.49L189.091 131.775C190.201 116.687 186.817 101.682 179.657 88.6525L218.205 74.4023L218.207 74.3984C218.323 74.641 218.438 74.8839 218.552 75.1273Z" fill="#E82429"/>
<path d="M74.8907 106.652L34.3097 121.648C34.8297 128.258 35.9495 134.785 37.529 141.18L76.0748 126.922C74.8284 120.301 74.3804 113.484 74.9063 106.648" fill="#C22035"/>
<path d="M254.227 61.082C251.397 55.1537 248.121 49.424 244.329 44.0234L203.758 59.0195C208.479 63.9254 212.438 69.437 215.679 75.3341L254.221 61.0781L254.227 61.082Z" fill="#C22035"/>
<path d="M34.3085 121.653L74.7901 106.824L74.6246 114.957L35.5685 129.706L34.3026 121.643L34.3085 121.653Z" fill="#AC223B"/>
<path d="M203.766 58.8971L244.879 44.7891L249.152 51.2374L209.205 65.359L203.772 58.8932L203.766 58.8971Z" fill="#AC223B"/>
<path d="M38.7639 187.198L79.2943 172.449L91.5521 184.014L49.0489 199.97L38.7659 187.194L38.7639 187.198Z" fill="#B92135"/>
<path d="M249.381 109.859L208.215 124.704L205.183 141.182L249.075 125.539L249.386 109.861L249.381 109.859Z" fill="#B92135"/>
</g>
<defs>
<clipPath id="clip0_1_8103">
<rect width="256" height="237" fill="white"/>
</clipPath>
</defs>
</svg>
