<svg width="256" height="248" viewBox="0 0 256 248" fill="none" xmlns="http://www.w3.org/2000/svg">
<g clip-path="url(#clip0_1_8118)">
<path d="M143.337 167.83C165.4 159.357 176.419 134.598 167.949 112.529C159.479 90.4595 134.727 79.4371 112.665 87.9093C90.6025 96.382 79.5839 121.141 88.0535 143.21C92.3993 154.535 101.345 163.483 112.665 167.83L83.8416 242.959C20.2999 218.563 -11.4397 147.259 12.949 83.697C37.3377 20.1352 108.619 -11.6144 172.161 12.782C235.702 37.1785 267.442 108.482 243.053 172.044C230.537 204.664 204.771 230.439 172.161 242.959L143.337 167.83Z" fill="#3DA639"/>
<path d="M172.161 247.368C171.549 247.368 170.938 247.241 170.368 246.987C169.3 246.512 168.466 245.631 168.047 244.54L139.223 169.411C138.352 167.138 139.486 164.589 141.758 163.717C151.329 160.041 158.898 152.857 163.067 143.487C167.237 134.118 167.51 123.685 163.835 114.11C156.25 94.3447 134.004 84.4373 114.244 92.0258C94.4856 99.6139 84.5814 121.867 92.1671 141.632C96.0591 151.774 104.106 159.823 114.244 163.717C116.516 164.589 117.651 167.138 116.779 169.411L87.9552 244.54C87.5366 245.631 86.7016 246.512 85.634 246.987C84.5668 247.463 83.3542 247.495 82.2628 247.075C50.4325 234.854 25.2647 210.966 11.3962 179.809C-2.47229 148.654 -3.38173 113.96 8.83533 82.1193C21.0524 50.279 44.934 25.1033 76.08 11.2304C107.226 -2.64248 141.909 -3.5522 173.739 8.66871C205.57 20.8896 230.738 44.7783 244.606 75.9346C258.475 107.091 259.384 141.784 247.167 173.625C234.224 207.357 207.46 234.129 173.739 247.075C173.23 247.271 172.695 247.368 172.161 247.368ZM127.958 8.94066C111.525 8.94066 95.1272 12.3962 79.6645 19.2835C50.6686 32.1986 28.4363 55.6359 17.0626 85.2783C5.68886 114.92 6.53573 147.219 19.4468 176.224C31.759 203.883 53.6349 225.39 81.3353 237.192L107.047 170.173C96.4935 164.938 88.1967 155.883 83.9398 144.792C74.6128 120.489 86.7906 93.1264 111.086 83.7964C135.383 74.4656 162.735 86.6481 172.062 110.951C176.581 122.724 176.245 135.552 171.118 147.072C166.593 157.24 158.813 165.315 148.957 170.178L174.666 237.19C204.131 224.598 227.417 200.495 238.94 170.466C250.313 140.824 249.467 108.526 236.555 79.5206C223.644 50.5152 200.214 28.2754 170.582 16.8986C156.751 11.5883 142.341 8.94066 127.958 8.94066Z" fill="#1D531D"/>
<path d="M237.741 229.575C236.144 231.208 235.346 233.145 235.346 235.387C235.346 237.709 236.158 239.683 237.782 241.307C239.397 242.931 241.348 243.744 243.635 243.744C245.912 243.744 247.859 242.927 249.474 241.294C251.089 239.651 251.896 237.682 251.896 235.387C251.896 233.154 251.093 231.217 249.487 229.575C247.863 227.905 245.912 227.07 243.635 227.07C241.33 227.07 239.366 227.905 237.741 229.575ZM250.658 242.587C248.707 244.474 246.366 245.418 243.635 245.418C240.813 245.418 238.435 244.451 236.503 242.519C234.57 240.586 233.604 238.209 233.604 235.387C233.604 232.456 234.647 230.019 236.734 228.078C238.694 226.263 240.994 225.355 243.635 225.355C246.402 225.355 248.766 226.335 250.726 228.295C252.686 230.255 253.666 232.619 253.666 235.387C253.666 238.236 252.663 240.636 250.658 242.587ZM244.547 232.038C244.147 231.884 243.585 231.807 242.859 231.807H242.151V235.033H243.281C243.961 235.033 244.492 234.897 244.873 234.624C245.254 234.352 245.445 233.912 245.445 233.304C245.445 232.696 245.146 232.274 244.547 232.038ZM239.238 240.967V229.847C239.928 229.847 240.96 229.849 242.335 229.854C243.71 229.858 244.474 229.865 244.628 229.874C245.508 229.938 246.239 230.128 246.82 230.446C247.809 230.99 248.303 231.875 248.303 233.1C248.303 234.035 248.042 234.711 247.521 235.128C246.999 235.545 246.357 235.795 245.595 235.877C246.293 236.022 246.82 236.235 247.174 236.516C247.827 237.043 248.153 237.873 248.153 239.007V240.001C248.153 240.109 248.16 240.218 248.174 240.327C248.188 240.436 248.212 240.545 248.249 240.654L248.344 240.967H245.567C245.477 240.613 245.418 240.1 245.391 239.429C245.363 238.757 245.304 238.304 245.214 238.068C245.068 237.678 244.796 237.405 244.397 237.251C244.179 237.16 243.848 237.102 243.403 237.074L242.764 237.033H242.151V240.967H239.238Z" fill="#1D531D"/>
</g>
<defs>
<clipPath id="clip0_1_8118">
<rect width="256" height="248" fill="white"/>
</clipPath>
</defs>
</svg>
