<svg width="256" height="209" viewBox="0 0 256 209" fill="none" xmlns="http://www.w3.org/2000/svg">
<g clip-path="url(#clip0_1_8012)">
<path d="M231.941 142.043C228.409 142.043 224.986 142.815 221.962 144.189C220.636 143.383 219.963 142.601 217.963 141.839V52.7148L127.751 0.214844L51.988 44.936C50.702 44.183 49.408 43.397 48.0811 42.593C47.9721 29.4253 37.2383 18.7455 24.0455 18.7455C10.7848 18.7455 0 29.5343 0 42.795C0 56.0558 10.7908 66.8445 24.0515 66.8445C27.5845 66.8445 31.0824 66.0726 34.1063 64.6986C35.3593 65.4606 36.9663 66.2006 37.9663 66.9225V156.853L128.051 208.996L204.547 164.25C205.671 164.912 206.777 165.595 207.932 166.296C208.042 179.463 218.767 190.143 231.959 190.143C245.22 190.143 256 179.353 256 166.093C256 152.832 245.202 142.043 231.941 142.043Z" fill="#B8C6C9"/>
<path d="M127.876 194.068L205.024 148.928V60.2784L127.872 15.3594L50.7656 60.9075V149.45L127.876 194.068Z" fill="#759BC5"/>
<path d="M242.933 166.29C242.933 172.338 238.035 177.24 231.996 177.24C225.955 177.24 221.059 172.338 221.059 166.29C221.059 160.243 225.955 155.34 231.996 155.34C238.035 155.34 242.933 160.243 242.933 166.29Z" fill="#759BC5"/>
<path d="M13.0723 42.7823C13.0723 36.7352 17.9685 31.832 24.0093 31.832C30.049 31.832 34.9463 36.7352 34.9463 42.7823C34.9463 48.8294 30.049 53.7326 24.0093 53.7326C17.9685 53.7326 13.0723 48.8294 13.0723 42.7823Z" fill="#759BC5"/>
<path d="M232.096 172.748C228.476 172.748 225.531 169.803 225.531 166.183C225.531 162.563 228.476 159.618 232.096 159.618C235.716 159.618 238.66 162.563 238.66 166.183C238.66 169.803 235.716 172.748 232.096 172.748ZM142.936 180.103C150.081 169.811 158.549 155.061 163.759 137.343C174.825 139.614 185.153 143.294 196.357 148.885L142.936 180.103ZM89.015 78.0393C87.2886 85.2423 86.1057 92.9136 85.8384 100.984C75.7802 100.987 65.9801 100.987 54.971 100.987V65.5701C65.9801 71.505 77.5686 75.5062 89.015 78.0393ZM24.0336 49.3457C20.4136 49.3457 17.4682 46.4013 17.4682 42.7813C17.4682 39.1613 20.4136 36.2169 24.0336 36.2169C27.6535 36.2169 30.598 39.1613 30.598 42.7813C30.598 46.4013 27.6535 49.3457 24.0336 49.3457ZM111.459 30.1829C104.281 40.2072 96.0648 54.2658 90.9336 71.3178C80.5881 69.0669 70.8301 65.5491 60.3244 60.3528L111.459 30.1829ZM130.844 127.264C130.85 124.573 130.858 121.839 130.866 119.075C136.539 117.938 141.042 113.563 142.39 107.969C149.322 107.975 155.945 107.979 162.442 107.98C162.178 115.46 161.095 122.657 159.452 129.477C150.665 128.047 141.337 127.373 130.844 127.264ZM130.832 134.265C140.699 134.366 149.424 134.965 157.612 136.239C150.686 159.064 138.083 176.911 130.978 185.734C130.856 169.41 130.808 152.614 130.832 134.265ZM90.9506 138.318C96.0909 155.438 104.317 169.44 111.502 179.384L59.0174 149.052C65.4416 146.033 76.4577 141.56 90.9506 138.318ZM113.487 107.972C114.814 113.474 119.196 117.793 124.74 119.013C124.731 121.804 124.723 124.565 124.717 127.282C113.908 127.464 104.002 128.603 95.1721 130.252C93.4717 123.267 92.3598 115.819 92.1106 107.984C99.0753 107.982 106.127 107.978 113.487 107.972ZM124.712 81.6963C124.719 84.4586 124.727 87.2139 124.736 89.9651C119.206 91.1831 114.833 95.4847 113.496 100.969C106.136 100.975 99.0853 100.979 92.1216 100.982C92.3888 93.3299 93.4727 86.0559 95.1201 79.2243C104.205 80.8066 113.831 81.5612 124.712 81.6963ZM124.643 27.9591C124.652 43.3148 124.662 59.0437 124.695 74.6936C114.452 74.5675 105.435 73.8989 96.9616 72.4788C104.083 49.1746 117.236 31.8023 124.64 23.3353L124.643 27.9591ZM163.611 71.1096C158.417 53.7614 150.098 39.3415 143.043 29.2282L196.818 60.4999C190.177 63.5154 178.711 67.9861 163.611 71.1096ZM130.77 27.9551L130.767 23.2562C137.782 31.8313 150.46 49.4738 157.484 72.2616C149.424 73.6287 140.487 74.5535 130.822 74.6886C130.789 59.0397 130.779 43.3108 130.77 27.9551ZM127.938 112.366C123.594 112.366 120.061 108.832 120.061 104.488C120.061 100.145 123.594 96.6106 127.938 96.6106C132.282 96.6106 135.816 100.145 135.816 104.488C135.816 108.832 132.282 112.366 127.938 112.366ZM124.855 186.211C117.543 177.867 104.273 160.448 97.0537 137.068C105.366 135.529 114.647 134.466 124.705 134.285C124.681 152.803 124.73 169.742 124.855 186.211ZM142.379 100.966C141.018 95.3916 136.523 91.034 130.862 89.9011C130.854 87.1698 130.846 84.4336 130.839 81.6913C141.238 81.5542 150.797 80.5604 159.369 79.0882C161.063 86.0139 162.18 93.3419 162.444 100.978C155.944 100.976 149.315 100.972 142.379 100.966ZM200.09 100.956C190.082 100.97 178.883 100.978 168.252 100.978C167.995 92.9116 166.696 85.2012 164.961 77.9352C181.282 74.5495 194.086 69.6424 200.09 66.4468V100.956ZM54.971 107.989C65.9801 107.989 75.8232 107.989 85.8765 107.986C86.1197 116.283 87.2076 124.139 88.959 131.491C73.3391 134.986 61.9768 139.869 54.971 143.081V107.989ZM165.217 130.605C166.895 123.454 167.833 115.883 168.089 107.981C178.718 107.98 190.082 107.973 200.09 107.958V143.285C189.081 137.157 177.143 133.102 165.217 130.605ZM232.096 150.866C227.982 150.866 224.053 152.505 221.299 155.153C217.139 152.544 213.101 150.163 209.098 147.981V57.7446L127.722 10.3086L51.1359 55.5528C47.0485 53.2649 42.8581 50.7359 38.3904 47.9336C38.9699 46.3202 39.3262 44.5908 39.3262 42.7813C39.3262 34.3354 32.4665 27.4647 24.0206 27.4647C15.5746 27.4647 8.70996 34.3354 8.70996 42.7813C8.70996 51.2273 15.5846 58.0989 24.0306 58.0989C28.144 58.0989 31.6468 56.4606 34.4021 53.8124C38.4845 56.3725 42.9611 58.7124 45.9636 60.8612V151.884L127.72 198.999L205.325 153.715C209.243 155.921 213.363 158.353 217.632 161.031C217.052 162.644 216.749 164.373 216.749 166.183C216.749 174.629 223.635 181.5 232.081 181.5C240.527 181.5 247.405 174.629 247.405 166.183C247.405 157.737 240.542 150.866 232.096 150.866Z" fill="#343532"/>
</g>
<defs>
<clipPath id="clip0_1_8012">
<rect width="256" height="209" fill="white"/>
</clipPath>
</defs>
</svg>
