<svg width="256" height="256" viewBox="0 0 256 256" fill="none" xmlns="http://www.w3.org/2000/svg">
<g clip-path="url(#clip0_1_8130)">
<path d="M135.44 139.918C124.534 150.823 124.534 168.505 135.44 179.41C146.347 190.316 164.03 190.316 174.937 179.41C185.843 168.505 185.843 150.823 174.937 139.918C164.03 129.013 146.347 129.013 135.44 139.918ZM164.965 169.466C159.564 174.866 150.813 174.866 145.412 169.466C140.011 164.065 140.011 155.315 145.412 149.914C150.813 144.514 159.564 144.514 164.965 149.914C170.367 155.289 170.367 164.065 164.965 169.466ZM174.469 2.51209L157.357 19.6229C154.007 22.9724 154.007 28.4769 157.357 31.8264L224.171 98.6338C227.521 101.983 233.026 101.983 236.376 98.6338L253.489 81.523C256.839 78.1735 256.839 72.669 253.489 69.3195L186.648 2.51209C183.298 -0.837365 177.819 -0.837365 174.469 2.51209ZM54.5773 221.162C57.6155 218.124 57.6155 213.165 54.5773 210.127L45.8782 201.428C42.84 198.391 37.8802 198.391 34.842 201.428L16.8724 219.396L16.8464 219.422L11.9126 214.489C9.18602 211.762 4.74557 211.762 2.04494 214.489C-0.681648 217.215 -0.681648 221.655 2.04494 224.355L31.6479 253.955C34.3745 256.682 38.815 256.682 41.5156 253.955C44.2162 251.229 44.2422 246.789 41.5156 244.089L36.5818 239.155L36.6077 239.129L54.5773 221.162Z" fill="#F5A800"/>
<path d="M145.1 51.637L107.084 89.6494C103.708 93.0249 103.708 98.5813 107.084 101.957L130.558 125.429C147.152 113.485 170.419 114.965 185.35 129.895L204.358 110.889C207.734 107.513 207.734 101.957 204.358 98.5813L157.409 51.637C154.033 48.2356 148.476 48.2356 145.1 51.637ZM120.691 135.322L106.824 121.456C103.578 118.211 98.2548 118.211 95.0088 121.456L46.1119 170.374C42.866 173.62 42.866 178.942 46.1119 182.188L73.8193 209.892C77.0653 213.138 82.3886 213.138 85.6346 209.892L117.081 178.397C110.434 164.662 111.628 148.07 120.691 135.322Z" fill="#425CC7"/>
</g>
<defs>
<clipPath id="clip0_1_8130">
<rect width="256" height="256" fill="white"/>
</clipPath>
</defs>
</svg>
