<svg width="512" height="126" viewBox="0 0 512 126" fill="none" xmlns="http://www.w3.org/2000/svg">
<g clip-path="url(#clip0_1_8035)">
<path d="M365.131 49.0736C357.594 49.0736 352.214 51.6484 349.574 56.5239L348.155 59.1643V50.3446H335.889V103.954H348.79V72.0599C348.79 64.4398 352.932 60.0682 360.146 60.0682C367.027 60.0682 370.971 64.3247 370.971 71.7421V103.954H383.878V69.4413C383.878 56.6773 376.871 49.0736 365.131 49.0736ZM302.566 49.0736C287.342 49.0736 277.914 58.5727 277.914 73.8622V81.3891C277.914 96.0924 287.452 105.224 302.807 105.224C313.078 105.224 320.277 101.461 324.807 93.7204L316.809 89.1187C313.462 93.5834 308.115 96.3499 302.812 96.3499C295.039 96.3499 290.399 91.551 290.399 83.5091V81.3782H326.407V72.4872C326.407 58.244 317.055 49.0736 302.577 49.0736H302.566ZM314.667 72.7118H290.355V71.4244C290.355 62.5991 294.688 57.7291 302.555 57.7291C310.131 57.7291 314.656 62.5279 314.656 70.5698L314.667 72.7118ZM512 41.5193V31.2642H467.375V41.5193H483.021V93.6765H467.375V103.932H512V93.6765H496.349V41.5193H512ZM173.638 29.7852C153.709 29.7852 141.317 42.2041 141.317 62.2047V73.0185C141.317 93.0137 153.703 105.438 173.638 105.438C193.573 105.438 205.959 93.0137 205.959 73.0185V62.2047C205.954 42.1822 193.551 29.7852 173.638 29.7852ZM192.625 73.7581C192.625 87.0371 185.706 94.6516 173.638 94.6516C161.57 94.6516 154.656 87.0371 154.656 73.7581V61.4597C154.656 48.1807 161.581 40.5661 173.644 40.5661C185.706 40.5661 192.631 48.1807 192.631 61.4597L192.625 73.7581ZM246.481 49.0736C239.71 49.0736 233.848 51.8784 230.791 56.5732L229.405 58.7097V50.3446H217.134V122.398H230.041V96.3006L231.421 98.3494C234.325 102.655 239.995 105.224 246.59 105.224C257.716 105.224 268.941 97.955 268.941 81.7068V72.5912C268.941 60.8845 262.022 49.0736 246.481 49.0736ZM256.035 81.0769C256.035 89.7159 250.995 95.0844 242.887 95.0844C235.327 95.0844 230.052 89.4091 230.052 81.2905V73.2267C230.052 65.0095 235.371 59.2246 242.997 59.2246C251.044 59.2246 256.046 64.5877 256.046 73.2267L256.035 81.0769ZM419.54 31.2697L393.503 103.954H406.612L411.597 88.3737H441.529L441.579 88.5271L446.509 103.954H459.613L433.531 31.2642L419.54 31.2697ZM414.796 78.1241L426.541 41.3769L438.166 78.1241H414.796Z" fill="black"/>
<path d="M116.085 51.5613C118.943 42.9828 117.96 33.5884 113.39 25.7867C106.509 13.8288 92.6973 7.67791 79.2061 10.563C73.2061 3.79626 64.5786 -0.0532365 55.5351 0.000556329C41.7356 -0.0302926 29.4969 8.8581 25.2575 21.9903C16.3995 23.8074 8.75503 29.3555 4.28176 37.214C-2.63539 49.1523 -1.05721 64.1903 8.18766 74.4324C5.34112 83.003 6.32316 92.3843 10.8829 100.18C17.7576 112.161 31.5861 118.328 45.0938 115.436C51.0884 122.195 59.7037 126.043 68.7374 125.998C82.5369 126.029 94.7756 117.141 99.015 104.009C107.871 102.191 115.514 96.6428 119.985 88.7851C126.921 76.8498 125.344 61.7997 116.085 51.5613ZM68.7374 117.781C63.2141 117.786 57.8654 115.846 53.6287 112.303C53.815 112.199 54.1765 112.018 54.3847 111.881L79.4745 97.3967C80.7562 96.6687 81.5441 95.3045 81.5343 93.8305V58.4527L92.1345 64.5718C92.251 64.627 92.33 64.7393 92.3426 64.8676V94.1482C92.3426 107.189 81.7786 117.766 68.7374 117.781ZM18.0154 96.1203C15.2496 91.3405 14.251 85.7408 15.1942 80.2995C15.3804 80.4145 15.7091 80.6118 15.9392 80.7432L41.0345 95.2329C42.3066 95.9779 43.8819 95.9779 45.1541 95.2329L75.7713 77.5276V89.7657C75.7829 89.8936 75.7268 90.0182 75.6234 90.0944L50.2597 104.732C38.9679 111.234 24.5441 107.369 18.0154 96.0929V96.1203ZM11.4417 41.3391C14.1945 36.552 18.5445 32.8866 23.7291 30.9854V60.8083C23.7216 62.2817 24.5089 63.6448 25.7889 64.3746L56.4116 82.058L45.7731 88.199C45.6678 88.2699 45.5335 88.2823 45.417 88.2318L20.0588 73.5888C8.77671 67.0619 4.91116 52.6317 11.4198 41.3391H11.4417ZM98.5439 61.6081L67.9212 43.9247L78.5104 37.8002C78.616 37.7302 78.7497 37.7179 78.8664 37.7673L104.225 52.4104C112.154 56.9917 116.718 65.7447 115.937 74.8687C115.156 83.9927 109.169 91.8419 100.576 95.0083V65.1908C100.593 63.7135 99.8092 62.3428 98.5274 61.6081H98.5439ZM109.1 45.7216C108.914 45.6065 108.585 45.4093 108.355 45.2778L83.2599 30.7882C81.9878 30.0431 80.4125 30.0431 79.1404 30.7882L48.5174 48.4661V36.2335C48.5133 36.1057 48.5703 35.9835 48.671 35.9048L74.0293 21.2672C81.9612 16.695 91.8213 17.1204 99.33 22.3588C106.839 27.5973 110.642 36.7043 109.089 45.727L109.1 45.7216ZM42.7382 67.5464L32.1326 61.4274C32.0221 61.3663 31.9469 61.2566 31.9299 61.1315V31.851C31.9229 22.6892 37.2179 14.3509 45.5129 10.461C53.8079 6.57114 63.6045 7.83239 70.6438 13.6964C70.4575 13.8005 70.1234 13.9813 69.8878 14.1183L44.798 28.6024C43.518 29.3322 42.7307 30.6953 42.7382 32.1687V67.5464ZM48.4957 55.1275L62.1362 47.25L75.7713 55.1275V70.8717L62.1308 78.7492L48.4902 70.8717L48.4957 55.1275Z" fill="black"/>
</g>
<defs>
<clipPath id="clip0_1_8035">
<rect width="512" height="126" fill="white"/>
</clipPath>
</defs>
</svg>
