<svg width="512" height="161" viewBox="0 0 512 161" fill="none" xmlns="http://www.w3.org/2000/svg">
<g clip-path="url(#clip0_1_8092)">
<path d="M138.971 39.9912L70.151 0.256026L69.6902 0L69.2293 0.256026L0.819282 39.7864L0.460846 39.9912L0 40.2472V120.742L0.460846 120.998L69.2805 160.733L69.7414 160.989L70.2022 160.733L138.1 121.561L139.022 121.049L139.483 120.793V40.2472L138.971 39.9912ZM62.8287 10.2922L45.9822 39.4279H12.3404L62.8287 10.2922ZM43.2171 44.2412L35.3315 57.913L11.6748 44.2412H43.2171ZM37.0725 64.416L64.8769 80.4944L37.0725 96.5729L27.8044 80.4944L37.0725 64.416ZM32.9761 62.0606L25.0905 75.7324L9.26813 48.3888L32.9761 62.0606ZM5.47895 51.3587L22.3254 80.4944L5.47895 109.63V51.3587ZM25.0393 85.3077L32.9249 98.9795L9.26813 112.651L25.0393 85.3077ZM35.3315 103.076L43.2171 116.748H11.6748L35.3315 103.076ZM12.3404 121.561H45.9822L62.8287 150.697L12.3404 121.561ZM67.3347 148.904L51.5636 121.561H67.3347V148.904ZM67.3347 116.748H48.7473L39.4791 100.669L67.2835 84.5909V116.748H67.3347ZM67.3347 76.3468L39.5304 60.2684L48.7985 44.19H67.3347V76.3468ZM67.3347 39.4279H51.5636L67.3347 12.0844V39.4279ZM106.455 62.0606L130.112 48.3888L114.341 75.7324L106.455 62.0606ZM111.576 80.4944L102.308 96.5729L74.5034 80.4944L102.308 64.416L111.576 80.4944ZM104.049 57.913L96.1632 44.2412H127.706L104.049 57.913ZM127.04 39.4279H93.3981L76.6029 10.2922L127.04 39.4279ZM72.0968 12.0844L87.868 39.4279H72.0968V12.0844ZM72.0968 44.2412H90.6331L99.9012 60.3196L72.0968 76.398V44.2412ZM72.0968 84.6421L99.9012 100.72L90.6331 116.748H72.0968V84.6421ZM72.0968 121.561H87.868L72.0968 148.904V121.561ZM76.6029 150.697L93.3981 121.561H127.04L76.6029 150.697ZM96.1632 116.748L104.049 103.076L127.706 116.748H96.1632ZM106.455 98.9283L114.341 85.2565L130.112 112.6L106.455 98.9283ZM133.953 109.63L117.106 80.4944L133.953 51.3587V109.63Z" fill="url(#paint0_linear_1_8092)"/>
<path d="M243.839 126.376V147.216C243.839 154.129 247.065 158.021 253.568 158.021C260.89 158.021 266.011 153.105 266.011 145.322V126.376H269.237V160.274H266.011L266.113 152.798C263.86 157.867 259.2 160.991 253.261 160.991C245.682 160.991 240.613 156.024 240.613 147.728V126.376H243.839ZM374.053 125.659C381.017 125.659 386.24 129.909 386.24 138.716V160.325H383.014L383.168 155.102C381.017 158.328 377.279 160.991 371.442 160.991C363.71 160.991 358.641 157.406 358.641 150.596C358.641 145.028 362.697 141.895 367.795 140.99L368.165 140.929C368.289 140.91 368.414 140.892 368.539 140.875L368.916 140.829C369.609 140.752 370.317 140.713 371.032 140.713H383.014V138.972C383.014 131.343 379.532 128.424 373.951 128.424C368.779 128.424 365.297 130.575 362.891 134.261L360.586 132.623C363.403 128.219 368.216 125.659 374.053 125.659ZM349.936 100.312V160.274H346.71L346.864 151.825C344.457 157.048 338.876 160.939 332.321 160.939C322.643 160.888 315.577 153.207 315.577 143.222C315.577 133.237 322.643 125.608 332.372 125.608C339.285 125.608 344.252 129.346 346.71 134.415V100.312H349.936ZM214.191 125.608C224.074 125.608 231.703 133.493 231.703 143.222C231.703 152.951 224.074 160.888 214.191 160.888C204.308 160.888 196.525 152.951 196.525 143.222C196.525 133.493 204.308 125.608 214.191 125.608ZM456.545 125.608C466.427 125.608 474.057 133.493 474.057 143.222C474.057 152.951 466.427 160.888 456.545 160.888C446.714 160.888 438.879 152.951 438.879 143.222C438.879 133.493 446.662 125.608 456.545 125.608ZM403.906 114.445V126.325H413.686V129.09H403.906V151.159C403.906 156.126 405.647 157.969 408.463 157.969C410.556 157.969 411.759 157.385 412.716 156.574L412.899 156.414L413.076 156.249L413.25 156.08L413.505 155.819L413.84 155.46L415.939 157.457C415.874 157.533 415.808 157.608 415.741 157.683L415.538 157.904C415.504 157.94 415.47 157.976 415.435 158.012L415.226 158.226C413.741 159.704 411.856 160.786 408.691 160.835L408.463 160.837C404.162 160.888 400.68 158.174 400.68 151.262V129.09H395.355V126.325H400.68V114.445H403.906ZM294.122 125.659C301.701 125.659 306.719 130.728 306.719 139.126V160.274H303.493V139.689C303.493 132.725 300.267 128.629 293.713 128.629C286.39 128.629 281.27 133.442 281.27 141.328V160.274H278.044V126.376H281.27L281.167 133.954C283.42 128.834 288.131 125.659 294.122 125.659ZM499.404 125.659C506.982 125.659 512 130.728 512 139.126V160.274H508.774V139.689C508.774 132.725 505.548 128.629 498.994 128.629C491.672 128.629 486.551 133.442 486.551 141.328V160.274H483.325V126.376H486.551L486.449 133.954C488.702 128.834 493.413 125.659 499.404 125.659ZM429.15 126.376V160.274H425.924V126.376H429.15ZM190.79 103.794V106.764H161.296V131.599H188.025V134.671H161.296V160.222H157.917V103.794H190.79ZM214.191 128.527C205.742 128.527 199.854 134.825 199.854 143.222C199.854 151.62 205.742 158.021 214.191 158.021C222.64 158.021 228.375 151.62 228.375 143.222C228.375 134.825 222.64 128.527 214.191 128.527ZM332.782 128.527C324.384 128.527 319.008 134.825 319.008 143.222C319.008 151.62 324.384 158.021 332.782 158.021C341.333 158.021 346.966 151.62 346.966 143.222C346.966 134.825 341.333 128.527 332.782 128.527ZM383.014 149.469V143.325L371.266 143.326L370.916 143.332C369.638 143.366 368.419 143.528 367.314 143.834L367.015 143.921C364.009 144.844 361.918 146.893 361.918 150.442C361.918 155.614 365.297 158.021 371.8 158.021C377.433 158.021 383.014 154.692 383.014 149.469ZM456.596 128.527C448.147 128.527 442.259 134.825 442.259 143.222C442.259 151.62 448.147 158.021 456.596 158.021C465.045 158.021 470.78 151.62 470.78 143.222C470.78 134.825 465.045 128.527 456.596 128.527ZM427.512 108.966C428.945 108.966 430.277 110.144 430.277 111.731C430.277 113.329 429.011 114.391 427.619 114.443L427.512 114.445C426.078 114.496 424.746 113.421 424.746 111.731C424.746 110.144 426.078 108.966 427.512 108.966Z" fill="#54565A"/>
<path d="M268.571 28.1118C279.836 28.1118 288.951 37.6359 288.951 50.8981C288.951 64.1602 279.734 73.8892 268.366 73.8892C261.044 73.8892 255.821 70.356 253.312 65.4403V95.1393H242.661V29.0847H253.312L253.005 37.2263C255.821 31.7986 261.044 28.1118 268.571 28.1118ZM323.872 28.163C338.824 28.163 347.273 39.2233 346.556 54.636H311.225C312.505 60.9343 317.113 65.0307 325.153 65.0307C330.888 65.0307 335.086 62.7265 337.595 60.3198L343.74 66.8229L343.418 67.1399C343.309 67.2448 343.2 67.3489 343.089 67.4523L342.754 67.76C338.747 71.3717 333.329 73.9404 325.255 73.9404C310.201 73.9404 300.472 64.2114 300.472 51.0517C300.472 37.9944 310.713 28.163 323.872 28.163ZM194.631 0.921875C214.908 0.921875 231.242 16.181 231.242 37.4311C231.242 58.63 214.908 73.9404 194.631 73.9404C174.2 73.8892 157.917 58.63 157.917 37.4311C157.917 16.2322 174.2 0.921875 194.631 0.921875ZM451.988 1.89477V53.0999C451.988 67.2325 443.539 73.8892 431.608 73.8892C422.326 73.8892 416.374 69.6859 412.776 64.2106L412.534 63.8354L412.3 63.4564C411.992 62.9486 411.704 62.4315 411.433 61.9072L420.445 56.377C420.519 56.5096 420.593 56.6409 420.668 56.771L420.893 57.1575C421.157 57.604 421.426 58.0348 421.703 58.4479L421.942 58.7976C421.983 58.8552 422.023 58.9124 422.064 58.9692L422.309 59.3055C424.455 62.18 427.102 64.0066 431.096 64.0066C437.036 64.0066 440.927 61.1903 440.927 52.9463V1.89477H451.988ZM507.852 12.2382L499.199 17.5635C496.485 12.8527 493.361 10.6508 487.78 10.6508C482.147 10.6508 478.563 14.0816 478.563 18.8949C478.563 22.4653 479.921 24.7237 482.992 26.7658L483.31 26.9728L483.64 27.1785C483.864 27.3153 484.096 27.4514 484.337 27.5873L484.703 27.7908L485.081 27.9942L485.472 28.1976C485.538 28.2315 485.605 28.2654 485.672 28.2994L486.082 28.5033L486.504 28.708L486.938 28.9135C487.012 28.9479 487.086 28.9823 487.16 29.0168L487.614 29.2242C487.691 29.2589 487.768 29.2937 487.845 29.3285L488.318 29.5385L488.804 29.7504L493.413 31.8498L494.134 32.1697C505.804 37.4027 512 43.036 512 54.2264C512 66.6693 502.271 73.8892 488.907 73.8892C475.44 73.8892 467.298 67.2325 463.355 59.1933L472.47 54.1752L472.795 54.7067L473.015 55.0569L473.239 55.4034C473.277 55.4608 473.315 55.5181 473.352 55.5752L473.581 55.916L473.814 56.2526L474.05 56.5849L474.291 56.9128L474.536 57.2359L474.786 57.5541C477.849 61.3957 481.96 64.109 488.753 64.109C495.973 64.109 501.093 60.2174 501.093 54.38C501.093 50.4637 499.388 47.9202 496.149 45.7022L495.808 45.4739C495.75 45.436 495.692 45.3982 495.634 45.3605L495.277 45.1352C495.156 45.0604 495.034 44.9859 494.909 44.9116L494.531 44.6893C494.467 44.6524 494.402 44.6155 494.337 44.5787L493.943 44.3581L493.538 44.1383L493.122 43.919L492.695 43.7L492.258 43.4809L491.81 43.2617L491.352 43.0419L490.884 42.8213L490.405 42.5997L489.667 42.2649L484.452 39.9402L483.836 39.6629C483.734 39.6165 483.633 39.5701 483.532 39.5236L482.931 39.2437L482.34 38.9616C482.144 38.8672 481.951 38.7724 481.759 38.6772L481.188 38.3903L480.628 38.1005L480.078 37.8076C472.36 33.6358 467.81 28.4651 467.81 19.1509C467.81 8.60264 475.952 1.07442 487.78 1.07442C497.202 1.02429 503.602 4.60864 507.852 12.2382ZM383.475 28.1118C393.204 28.1118 399.912 35.0245 399.912 46.9041V72.9163H389.364V47.7746C389.364 41.4763 386.445 37.8408 380.249 37.8408C373.337 37.8408 368.831 42.0396 368.831 49.1059V72.9163H358.282V29.0847H368.831L368.626 37.2263C371.34 31.4913 376.87 28.1118 383.475 28.1118ZM265.652 37.5335C257.92 37.5335 252.902 42.9613 252.902 50.8981C252.902 59.1421 257.92 64.5698 265.652 64.5698C273.333 64.621 278.095 59.1933 278.095 50.8981C278.095 42.9613 273.282 37.5335 265.652 37.5335ZM194.579 10.8557C179.73 10.8557 169.182 22.2744 169.182 37.4311C169.182 52.5878 179.73 64.0066 194.579 64.0066C209.429 63.9554 219.875 52.5878 219.875 37.4311C219.875 22.2744 209.429 10.8557 194.579 10.8557ZM324.026 36.9191C317.216 36.9191 312.505 40.657 311.276 47.2625H335.957L335.896 46.8933C334.88 41.1411 331.196 36.9191 324.026 36.9191Z" fill="#54565A"/>
</g>
<defs>
<linearGradient id="paint0_linear_1_8092" x1="2844.55" y1="2551.59" x2="12469.6" y2="12176.6" gradientUnits="userSpaceOnUse">
<stop offset="0.2145" stop-color="#0075C9"/>
<stop offset="0.7067" stop-color="#80BC00"/>
<stop offset="1" stop-color="#FDE021"/>
</linearGradient>
<clipPath id="clip0_1_8092">
<rect width="512" height="161" fill="white"/>
</clipPath>
</defs>
</svg>
