<svg width="512" height="139" viewBox="0 0 512 139" fill="none" xmlns="http://www.w3.org/2000/svg">
<g clip-path="url(#clip0_1_8053)">
<path d="M36.6625 79.7734H36.5225H0.0544434C0.0606361 79.9518 0.0655904 80.1314 0.0754988 80.3097C0.0903615 80.654 0.115133 80.9971 0.136188 81.3415C0.146097 81.4888 0.152289 81.6362 0.163436 81.7824C0.191923 82.1812 0.226603 82.5775 0.262521 82.9739C0.271191 83.0643 0.278622 83.1535 0.287292 83.2402C0.329403 83.6811 0.377707 84.122 0.429726 84.5592C0.432204 84.6026 0.437158 84.6447 0.443351 84.6868C0.500324 85.1599 0.561014 85.6331 0.630373 86.1037C0.630373 86.1087 0.631611 86.1161 0.634088 86.121C1.05396 89.0391 1.68439 91.9299 2.52537 94.7711C2.52908 94.7835 2.53404 94.7947 2.53651 94.8071C2.6678 95.2542 2.80652 95.6988 2.94895 96.141C2.95762 96.167 2.96629 96.193 2.97372 96.219C2.98116 96.245 2.98983 96.271 2.9985 96.297C3.12854 96.6971 3.26479 97.0959 3.40103 97.496C3.43694 97.5963 3.47039 97.6978 3.50754 97.7982C3.63016 98.1437 3.75525 98.4893 3.88406 98.8348C3.94352 98.9909 4.00297 99.1457 4.06118 99.303C4.17265 99.5891 4.28288 99.8728 4.39559 100.159C4.48105 100.373 4.57023 100.587 4.6594 100.802C4.75105 101.025 4.84518 101.246 4.93932 101.47C5.05574 101.743 5.17712 102.014 5.29726 102.285C5.36909 102.448 5.44217 102.609 5.51401 102.77C5.66263 103.095 5.81621 103.421 5.9698 103.744C6.02058 103.849 6.06888 103.953 6.1209 104.057C6.30049 104.429 6.4838 104.799 6.66958 105.165C6.70054 105.222 6.72779 105.278 6.75628 105.335C6.9656 105.741 7.17863 106.147 7.39785 106.55C7.40776 106.567 7.41767 106.584 7.42634 106.604C7.47217 106.689 7.52295 106.769 7.56877 106.852L38.8337 88.0173L38.9489 87.9479C37.7153 85.3482 36.9474 82.5837 36.6625 79.7734Z" fill="#93D500"/>
<path d="M45.6595 96.582L45.5715 96.67L19.786 122.457C19.9185 122.581 20.0498 122.706 20.1861 122.826C20.4263 123.044 20.6716 123.261 20.9156 123.474C21.0419 123.586 21.1658 123.698 21.2921 123.807C21.5844 124.059 21.8792 124.306 22.1727 124.552C22.2532 124.619 22.3312 124.685 22.4105 124.751C22.7412 125.024 23.0781 125.293 23.4162 125.561C23.4596 125.594 23.5029 125.629 23.5463 125.663C23.9116 125.951 24.2807 126.231 24.6535 126.513C24.6696 126.523 24.6833 126.533 24.6957 126.544C26.2488 127.705 27.8589 128.792 29.5198 129.805C29.5768 129.841 29.6338 129.874 29.692 129.91C30.0078 130.1 30.3237 130.287 30.642 130.471C30.8364 130.583 31.0309 130.693 31.2253 130.803C31.4086 130.91 31.5919 131.011 31.7777 131.114C32.1121 131.298 32.449 131.48 32.7859 131.658C32.8317 131.683 32.8788 131.708 32.9259 131.732C33.8635 132.223 34.8172 132.679 35.7783 133.117L36.6936 130.895L49.6625 99.3997L49.7108 99.2833C48.2939 98.5253 46.9364 97.6274 45.6595 96.582Z" fill="#4D5A31"/>
<path d="M42.9743 94.0125C42.6956 93.7029 42.4306 93.3858 42.1705 93.065C41.9401 92.7802 41.7171 92.4928 41.5016 92.2018C41.2552 91.8674 41.0136 91.5317 40.7857 91.1886C40.5554 90.8443 40.33 90.4975 40.1169 90.1445L8.81238 109.003C9.29294 109.802 9.79455 110.579 10.3061 111.349C10.3234 111.375 10.3395 111.403 10.3569 111.429C10.3631 111.439 10.3692 111.448 10.3754 111.458C10.3928 111.482 10.4076 111.51 10.425 111.536C10.4262 111.538 10.4287 111.541 10.4299 111.543C10.4708 111.605 10.5129 111.664 10.555 111.726C10.5575 111.73 10.56 111.734 10.5625 111.738L10.5662 111.743C11.1099 112.546 11.6685 113.338 12.2444 114.108C12.2568 114.124 12.2704 114.142 12.2828 114.158C12.2952 114.174 12.3076 114.19 12.32 114.206C12.5702 114.538 12.8216 114.869 13.0804 115.197C13.1139 115.24 13.1473 115.282 13.1832 115.324C13.4483 115.664 13.7183 115.998 13.9933 116.33C14.0577 116.408 14.1246 116.487 14.189 116.567C14.4367 116.863 14.6844 117.157 14.937 117.45C15.0448 117.575 15.1575 117.7 15.2665 117.824C15.482 118.069 15.695 118.313 15.9155 118.555C16.0356 118.687 16.1607 118.821 16.2834 118.953C16.3391 119.014 16.3936 119.074 16.4506 119.134C16.6116 119.308 16.7714 119.481 16.9336 119.653C16.998 119.721 17.0661 119.788 17.1318 119.856C17.4166 120.154 17.704 120.451 17.9975 120.743L43.8215 94.9192C43.5254 94.6232 43.248 94.3185 42.9743 94.0125Z" fill="#6BA43A"/>
<path d="M77.2042 96.5664C76.9206 96.7955 76.6332 97.0197 76.3409 97.2352L76.4053 97.343L95.2339 128.598C96.1059 128.028 96.9679 127.441 97.8101 126.824C99.632 125.481 101.396 124.024 103.095 122.456L77.307 96.668L77.2042 96.5664Z" fill="#4D5A31"/>
<path d="M92.498 128.856L91.8589 127.795L74.2838 98.6211C73.9283 98.8354 73.5642 99.0286 73.2013 99.2243C72.8347 99.4212 72.4656 99.6058 72.0915 99.7829C68.7152 101.384 65.0602 102.202 61.4003 102.202C59.0025 102.202 56.6058 101.855 54.2885 101.164C53.8934 101.046 53.5082 100.891 53.1181 100.753C52.7279 100.615 52.3328 100.496 51.9489 100.338L38.9886 131.812L38.4808 133.046L38.0461 134.102L38.0436 134.107C38.077 134.121 38.1117 134.132 38.1451 134.145C38.1811 134.16 38.2157 134.171 38.2517 134.186H38.2529C38.2541 134.186 38.2554 134.188 38.2554 134.188C38.264 134.191 38.2727 134.194 38.2801 134.197C38.5861 134.323 38.8945 134.43 39.2016 134.55C39.5868 134.7 39.972 134.853 40.3584 134.994C40.5554 135.066 40.7511 135.15 40.948 135.219H40.9492C45.0092 136.653 49.2104 137.657 53.4822 138.219C53.6494 138.239 53.8154 138.262 53.9826 138.286C54.1572 138.306 54.3331 138.323 54.5077 138.343C54.8372 138.38 55.1654 138.418 55.4961 138.451C55.5778 138.457 55.6596 138.464 55.7413 138.472C56.1463 138.51 56.5513 138.545 56.9539 138.573C57.0914 138.583 57.2301 138.589 57.3663 138.599C57.7218 138.623 58.0748 138.645 58.429 138.661C58.6457 138.674 58.8625 138.68 59.0805 138.687C59.3616 138.697 59.6415 138.708 59.9252 138.717C60.3302 138.727 60.7389 138.731 61.1464 138.732C61.243 138.732 61.3384 138.734 61.4337 138.736C64.846 138.736 68.257 138.452 71.6308 137.886C71.6878 137.877 71.7435 137.867 71.8017 137.86C72.1584 137.798 72.5151 137.731 72.8718 137.665C73.0749 137.626 73.2793 137.587 73.48 137.548C73.688 137.504 73.8974 137.461 74.1054 137.416C74.4535 137.343 74.8003 137.268 75.1483 137.187C75.2102 137.174 75.2734 137.161 75.3366 137.144C80.4654 135.949 85.4184 134.098 90.0717 131.65L90.0729 131.648C90.3776 131.487 90.6749 131.304 90.9783 131.139C91.34 130.941 91.6991 130.737 92.0583 130.531C92.3073 130.389 92.5587 130.258 92.8052 130.11L92.8064 130.109C92.8089 130.108 92.8114 130.105 92.8138 130.104C92.8138 130.104 92.8138 130.104 92.8151 130.104C92.8188 130.102 92.8225 130.1 92.8262 130.098C92.8287 130.097 92.8299 130.095 92.8312 130.094C92.8337 130.093 92.8361 130.092 92.8386 130.09C92.8423 130.088 92.8461 130.087 92.8498 130.084C92.8634 130.076 92.877 130.068 92.8906 130.059C92.9711 130.011 93.0516 129.963 93.1322 129.914L92.498 128.856Z" fill="#93D500"/>
<path d="M45.6742 58.0277C45.9591 57.7973 46.2465 57.5744 46.5375 57.3589L46.4731 57.2511L27.6458 25.9961C26.7714 26.5671 25.9069 27.1554 25.0634 27.7747C23.2427 29.1148 21.4803 30.5701 19.7847 32.1369L45.5727 57.9249L45.6742 58.0277Z" fill="#93D500"/>
<path d="M17.9962 33.8555C17.7027 34.149 17.4253 34.4525 17.1392 34.7497C16.8531 35.047 16.562 35.343 16.2821 35.6452C14.3772 37.7074 12.6358 39.8674 11.0653 42.1105C10.9897 42.2157 10.9142 42.326 10.8399 42.4337C10.6627 42.6913 10.4881 42.949 10.3159 43.2078C10.1364 43.4766 9.958 43.7491 9.78461 44.0203C9.71896 44.1194 9.65456 44.2197 9.59139 44.3188C3.65994 53.6241 0.481799 64.1778 0.0544965 74.8208C0.0383953 75.2332 0.0297254 75.6469 0.0210555 76.0593C0.0123856 76.4718 0 76.8854 0 77.2979H36.5226C36.5226 76.8842 36.561 76.473 36.582 76.0593C36.6031 75.6456 36.6093 75.232 36.6502 74.8208C37.1221 70.0647 38.9576 65.4214 42.158 61.5199C42.4181 61.2028 42.7117 60.9056 42.9903 60.5996C43.2678 60.2937 43.5254 59.9754 43.8214 59.6806L17.9962 33.8555Z" fill="#4D5A31"/>
<path d="M93.3538 24.7896C93.3043 24.7586 93.2523 24.7289 93.2027 24.6992C92.8819 24.5022 92.5574 24.3127 92.2329 24.1232C92.0447 24.0142 91.8564 23.909 91.6669 23.8012C91.4762 23.6947 91.2879 23.5882 91.0959 23.4841C90.7665 23.3033 90.4358 23.1249 90.1038 22.9491C90.0518 22.9231 90.001 22.8946 89.9478 22.8673C87.8063 21.7477 85.6066 20.7618 83.3611 19.9059C83.3042 19.8824 83.2447 19.8601 83.1865 19.8391C82.6973 19.6557 82.2068 19.4737 81.7126 19.3028C77.7232 17.9094 73.5976 16.9322 69.4063 16.3822C69.2354 16.3587 69.0632 16.3352 68.8923 16.3129C68.7201 16.2918 68.5492 16.2745 68.3783 16.2559C68.0476 16.2175 67.7181 16.1804 67.3862 16.1481C67.2946 16.1395 67.2017 16.1333 67.1088 16.1234C66.7161 16.0875 66.3211 16.0528 65.9284 16.0243C65.7761 16.0131 65.6213 16.0045 65.4689 15.9958C65.132 15.9735 64.7914 15.95 64.4545 15.9351C64.2737 15.9252 64.0954 15.9203 63.917 15.9141L63.9158 52.3822V52.5246C65.7947 52.719 67.6562 53.1191 69.462 53.7322L96.4056 26.7886C95.4061 26.095 94.3942 25.4212 93.3538 24.7896Z" fill="#4D5A31"/>
<path d="M60.2013 15.8841C59.7889 15.8928 59.3752 15.8941 58.9628 15.9102C56.3792 16.0142 53.8005 16.278 51.2429 16.7065C51.1871 16.7165 51.1314 16.7251 51.0744 16.735C50.7152 16.797 50.3598 16.8626 50.0031 16.9295C49.8012 16.9679 49.5981 17.005 49.3962 17.0459C49.1856 17.088 48.9763 17.1314 48.767 17.1772C48.4202 17.249 48.0734 17.3246 47.7266 17.4051C47.6634 17.4187 47.6015 17.4336 47.5371 17.4472C42.4082 18.6437 37.4528 20.4953 32.8007 22.9439H32.7995C32.496 23.1049 32.2 23.287 31.8978 23.453C31.5362 23.6511 31.177 23.8555 30.8178 24.0611C30.5515 24.2147 30.2803 24.3559 30.0152 24.5144C30.0127 24.5157 30.009 24.5181 30.0065 24.5194H30.0053C29.9867 24.5305 29.9681 24.5404 29.9496 24.5516C29.8802 24.5937 29.8084 24.6284 29.739 24.6705L29.7427 24.6767L30.3818 25.7381L48.5948 55.9738C48.9503 55.7595 49.3144 55.5651 49.6773 55.3706C50.0427 55.1737 50.413 54.9891 50.7858 54.812C53.3868 53.5735 56.1513 52.8056 58.9615 52.5207C59.374 52.4786 59.7864 52.4439 60.2001 52.4228C60.6125 52.4018 61.025 52.3807 61.4387 52.3807L61.4399 15.8594C61.0262 15.8594 60.6138 15.8767 60.2013 15.8841Z" fill="#6BA43A"/>
<path d="M122.803 74.2778C122.786 73.9496 122.766 73.6226 122.744 73.2931C122.734 73.1296 122.725 72.9674 122.711 72.8014C122.684 72.4162 122.652 72.0298 122.616 71.6446C122.609 71.5443 122.599 71.4452 122.59 71.3449C122.548 70.9138 122.502 70.4828 122.453 70.053C122.448 70.0184 122.444 69.9837 122.44 69.949C122.438 69.9329 122.436 69.9156 122.434 69.8995C122.377 69.435 122.315 68.9706 122.249 68.5073C122.248 68.4937 122.247 68.4764 122.243 68.464C121.823 65.5521 121.194 62.6663 120.356 59.8288C120.349 59.8089 120.344 59.7916 120.338 59.7743C120.206 59.3333 120.071 58.8949 119.932 58.4577C119.913 58.4007 119.894 58.3425 119.876 58.2843C119.746 57.8892 119.615 57.4965 119.479 57.1027C119.44 56.9974 119.403 56.8909 119.366 56.7831C119.246 56.4425 119.122 56.1032 118.996 55.7638C118.935 55.6016 118.873 55.4405 118.81 55.2795C118.703 54.9984 118.593 54.7172 118.482 54.4398C118.393 54.2168 118.303 53.9976 118.212 53.7784C118.123 53.5604 118.031 53.3449 117.939 53.1269C117.819 52.8495 117.698 52.572 117.575 52.2958C117.506 52.141 117.436 51.9837 117.365 51.8277C117.213 51.4982 117.059 51.1688 116.903 50.8405C116.854 50.7415 116.807 50.6399 116.759 50.5408C116.577 50.1655 116.392 49.7902 116.204 49.4187C116.177 49.3679 116.151 49.3159 116.123 49.2639C115.913 48.8539 115.697 48.4427 115.478 48.0377C115.47 48.0241 115.463 48.008 115.455 47.9943C114.391 46.0374 113.223 44.1449 111.959 42.3242L85.0072 69.2777C85.6203 71.0848 86.0191 72.9451 86.2136 74.8227H86.3572H122.825C122.817 74.6382 122.812 74.4574 122.803 74.2778Z" fill="#4D5A31"/>
<path d="M86.3547 77.2981C86.3547 77.7118 86.3163 78.123 86.2953 78.5367C86.2754 78.9504 86.268 79.364 86.2271 79.7752C85.7553 84.5313 83.9197 89.1759 80.7205 93.0773C80.4604 93.3944 80.1669 93.6917 79.8882 93.9976C79.6108 94.3035 79.3531 94.6218 79.0571 94.9166L104.882 120.741C105.176 120.447 105.452 120.144 105.738 119.845C106.024 119.547 106.315 119.252 106.594 118.95C108.505 116.88 110.251 114.715 111.826 112.464C111.889 112.375 111.948 112.287 112.009 112.199C112.201 111.923 112.388 111.645 112.576 111.366C112.741 111.117 112.906 110.868 113.065 110.617C113.145 110.496 113.224 110.371 113.301 110.251C119.224 100.951 122.393 90.4083 122.819 79.774C122.835 79.3616 122.844 78.9479 122.853 78.5354C122.861 78.123 122.874 77.7106 122.874 77.2969H86.3547V77.2981Z" fill="#6BA43A"/>
<path d="M133.725 5.01151C127.043 -1.67051 116.209 -1.67051 109.528 5.01151C104.197 10.341 103.132 18.3087 106.307 24.7071L69.0372 61.9777C62.6388 58.8046 54.6711 59.8685 49.3404 65.198C42.6584 71.88 42.6596 82.7137 49.3404 89.3957C56.0237 96.0777 66.8573 96.0752 73.5393 89.3945C78.8689 84.0649 79.9328 76.0973 76.7584 69.6977L114.028 32.4282C120.427 35.6014 128.394 34.5375 133.723 29.2067C140.405 22.5284 140.405 11.6935 133.725 5.01151Z" fill="#424143"/>
<path d="M293.004 133.491V113.238H296.558V133.491H293.004ZM323.64 133.491L313.073 119.006V133.491H309.519V113.238H313.163L323.519 127.266V113.238H327.07V133.491H323.64ZM340.034 133.491V113.238H343.587V133.491H340.034ZM361.379 133.491V116.366H355.244V113.238H371.065V116.366H364.932V133.491H361.379ZM382.722 133.491V113.238H386.275V133.491H382.722ZM413.449 133.491L411.959 129.574H402.669L401.18 133.491H397.141L405.098 113.238H409.529L417.484 133.491H413.449ZM407.316 116.79L403.671 126.446H410.958L407.316 116.79ZM431.178 133.491V116.366H425.043V113.238H440.865V116.366H434.731V133.491H431.178ZM452.522 133.491V113.238H456.075V133.491H452.522ZM474.9 133.491L466.943 113.238H470.981L477.116 129.605L483.251 113.238H487.287L479.333 133.491H474.9ZM498.124 133.491V113.238H512V116.366H501.677V121.587H511.787V124.715H501.677V130.363H512V133.491H498.124Z" fill="#6BA43A"/>
<path d="M141.667 64.0678C141.667 45.7582 155.058 32.6406 173.459 32.6406C191.767 32.6406 205.158 45.7582 205.158 64.0678C205.158 82.3762 191.768 95.4962 173.459 95.4962C155.059 95.4962 141.667 82.3774 141.667 64.0678ZM191.86 64.0678C191.86 52.6805 184.664 44.1183 173.46 44.1183C162.163 44.1183 154.967 52.6805 154.967 64.0678C154.967 75.3622 162.163 84.0172 173.46 84.0172C184.664 84.0172 191.86 75.3634 191.86 64.0678ZM211.984 94.4013V33.6426H240.407C253.613 33.6426 260.811 42.5689 260.811 53.2267C260.811 63.7928 253.522 72.7216 240.407 72.7216H224.92V94.4013H211.984ZM247.603 53.2279C247.603 48.1263 243.686 45.0299 238.583 45.0299H224.921V61.3355H238.583C243.686 61.3343 247.603 58.2379 247.603 53.2279ZM266.635 94.4013V33.6426H309.632V45.0287H279.572V57.7821H308.995V69.1694H279.572V83.0153H309.632V94.4025L266.635 94.4013ZM359.363 94.4013L330.398 54.7761V94.4013H317.46V33.6426H330.761L358.908 71.8113V33.6426H371.844V94.4013H359.363ZM426.382 94.4013L422.555 84.1077H396.504L392.679 94.4013H378.012L401.423 33.6426H417.64L441.048 94.4013H426.382ZM409.529 46.5781L400.057 72.7216H419.005L409.529 46.5781ZM444.413 94.4013V33.6426H472.834C486.041 33.6426 493.238 42.5689 493.238 53.2267C493.238 63.7928 485.948 72.7216 472.834 72.7216H457.347V94.4013H444.413ZM480.03 53.2279C480.03 48.1263 476.114 45.0299 471.011 45.0299H457.347V61.3355H471.011C476.114 61.3343 480.03 58.2379 480.03 53.2279ZM499.063 94.4013V33.6426H512V94.4013H499.063Z" fill="#424143"/>
</g>
<defs>
<clipPath id="clip0_1_8053">
<rect width="512" height="139" fill="white"/>
</clipPath>
</defs>
</svg>
