<svg width="512" height="180" viewBox="0 0 512 180" fill="none" xmlns="http://www.w3.org/2000/svg">
<g clip-path="url(#clip0_1_8134)">
<path d="M94.977 98.1612C87.3243 105.814 87.3243 118.236 94.977 125.889C102.63 133.542 115.052 133.542 122.705 125.889C130.357 118.236 130.357 105.814 122.705 98.1612C115.052 90.5086 102.63 90.5086 94.977 98.1612ZM115.734 118.918C111.96 122.692 105.775 122.692 102.001 118.918C98.2268 115.144 98.2268 108.959 102.001 105.185C105.775 101.411 111.96 101.411 115.734 105.185C119.507 108.959 119.507 115.144 115.734 118.918ZM134.289 102.145H142.518V106.286C144.51 103.56 147.288 101.568 151.533 101.568C158.295 101.568 164.742 106.862 164.742 116.559V116.664C164.742 126.361 158.4 131.655 151.533 131.655C147.13 131.655 144.457 129.663 142.518 127.304V139.727H134.289V102.145ZM156.513 116.716V116.612C156.513 111.789 153.263 108.592 149.437 108.592C145.61 108.592 142.413 111.789 142.413 116.612V116.716C142.413 121.539 145.61 124.736 149.437 124.736C153.263 124.684 156.513 121.591 156.513 116.716ZM170.56 116.769V116.664C170.56 108.435 176.431 101.621 184.817 101.621C194.462 101.621 198.865 109.116 198.865 117.293C198.865 117.922 198.812 118.708 198.76 119.442H178.685C179.471 123.163 182.092 125.103 185.761 125.103C188.486 125.103 190.478 124.264 192.784 122.168L197.449 126.308C194.776 129.663 190.897 131.707 185.656 131.707C176.955 131.655 170.56 125.575 170.56 116.769ZM190.897 114.305C190.426 110.636 188.277 108.173 184.817 108.173C181.41 108.173 179.209 110.584 178.58 114.305H190.897ZM204.735 102.145H213.122V106.338C215.061 103.875 217.525 101.621 221.77 101.621C228.113 101.621 231.782 105.814 231.782 112.576V131.655H223.395V115.196C223.395 111.213 221.508 109.221 218.311 109.221C215.113 109.221 213.069 111.265 213.069 115.196V131.655H204.683V102.145H204.735ZM122.39 1.76903L110.387 13.7722C108.028 16.1309 108.028 19.9572 110.387 22.3159L157.299 69.2278C159.658 71.5865 163.484 71.5865 165.843 69.2278L177.846 57.2247C180.205 54.866 180.205 51.0396 177.846 48.681L130.934 1.76903C128.575 -0.589675 124.749 -0.589675 122.39 1.76903ZM38.2634 155.189C40.4124 153.04 40.4124 149.581 38.2634 147.432L32.1307 141.299C29.9817 139.15 26.5223 139.15 24.3732 141.299L11.7935 153.879L8.33407 150.42C6.44711 148.533 3.30218 148.533 1.41522 150.42C-0.47174 152.307 -0.47174 155.451 1.41522 157.338L22.2242 178.147C24.1112 180.034 27.2561 180.034 29.1431 178.147C31.03 176.26 31.03 173.115 29.1431 171.229L25.6836 167.769L38.2634 155.189Z" fill="#F5A800"/>
<path d="M101.791 36.2078L75.1116 62.8874C72.7529 65.2461 72.7529 69.1772 75.1116 71.5359L91.5701 87.9944C103.206 79.6079 119.56 80.6562 130.043 91.1393L143.357 77.8258C145.715 75.4671 145.715 71.5359 143.357 69.1772L110.44 36.2603C108.029 33.8491 104.15 33.8491 101.791 36.2078ZM84.6512 94.9657L74.9019 85.2164C72.648 82.9625 68.8741 82.9625 66.6202 85.2164L32.2881 119.549C30.0342 121.802 30.0342 125.576 32.2881 127.83L51.7342 147.276C53.9881 149.53 57.762 149.53 60.0159 147.276L82.0828 125.209C77.4703 115.513 78.3089 103.876 84.6512 94.9657ZM247.297 100.364H235.346V92.3973H267.896V100.364H255.945V131.657H247.297V100.364ZM267.948 116.718V116.613C267.948 108.384 273.819 101.57 282.205 101.57C291.85 101.57 296.253 109.065 296.253 117.242C296.253 117.871 296.2 118.658 296.148 119.391H276.073C276.859 123.113 279.48 125.052 283.149 125.052C285.875 125.052 287.866 124.214 290.173 122.117L294.838 126.258C292.164 129.612 288.286 131.657 283.044 131.657C274.343 131.657 267.948 125.576 267.948 116.718ZM288.286 114.307C287.814 110.638 285.665 108.174 282.205 108.174C278.798 108.174 276.597 110.586 275.968 114.307H288.286ZM302.071 92.3973H310.248V131.657H302.071V92.3973ZM316.066 116.771V116.666C316.066 108.436 321.936 101.622 330.323 101.622C339.967 101.622 344.37 109.118 344.37 117.295C344.37 117.924 344.318 118.71 344.265 119.444H324.19C324.977 123.165 327.597 125.105 331.266 125.105C333.992 125.105 335.984 124.266 338.29 122.169L342.955 126.31C340.282 129.665 336.403 131.709 331.162 131.709C322.513 131.657 316.066 125.576 316.066 116.771ZM336.456 114.359C335.984 110.69 333.835 108.227 330.375 108.227C326.968 108.227 324.767 110.638 324.138 114.359H336.456ZM350.241 102.147H358.627V106.34C360.567 103.876 363.083 101.622 367.328 101.622C371.155 101.622 374.09 103.352 375.61 106.287C378.178 103.247 381.271 101.622 385.307 101.622C391.544 101.622 395.266 105.344 395.266 112.472V131.657H386.879V115.198C386.879 111.215 385.097 109.223 382.005 109.223C378.86 109.223 376.92 111.267 376.92 115.198V131.657H368.534V115.198C368.534 111.215 366.752 109.223 363.659 109.223C360.514 109.223 358.575 111.267 358.575 115.198V131.657H350.188V102.147H350.241ZM401.084 116.718V116.613C401.084 108.384 406.954 101.57 415.341 101.57C424.985 101.57 429.388 109.065 429.388 117.242C429.388 117.871 429.336 118.658 429.283 119.391H409.208C409.995 123.113 412.615 125.052 416.284 125.052C419.01 125.052 421.002 124.214 423.308 122.117L427.973 126.258C425.3 129.612 421.421 131.657 416.18 131.657C407.479 131.657 401.084 125.576 401.084 116.718ZM421.421 114.307C420.949 110.638 418.8 108.174 415.341 108.174C411.934 108.174 409.732 110.586 409.103 114.307H421.421ZM436.15 122.746V108.646H432.586V101.413H436.15V93.8125H444.589V101.413H451.613V108.646H444.641V121.331C444.641 123.27 445.48 124.214 447.367 124.214C448.939 124.214 450.302 123.847 451.508 123.165V129.927C449.726 130.975 447.681 131.657 444.851 131.657C439.662 131.657 436.15 129.612 436.15 122.746ZM457.955 101.937H466.446V107.965C468.176 103.824 470.954 101.151 475.986 101.36V110.271H475.514C469.853 110.271 466.394 113.678 466.394 120.859V131.919H457.902V101.937H457.955ZM502.98 101.622H511.995L500.254 132.967C497.895 139.204 495.38 141.511 490.19 141.511C487.045 141.511 484.739 140.724 482.485 139.414L485.368 133.124C486.521 133.806 487.936 134.33 489.09 134.33C490.557 134.33 491.396 133.858 492.13 132.338L480.127 101.622H489.299L496.271 122.431L502.98 101.622Z" fill="#425CC7"/>
</g>
<defs>
<clipPath id="clip0_1_8134">
<rect width="512" height="180" fill="white"/>
</clipPath>
</defs>
</svg>
