<svg width="256" height="305" viewBox="0 0 256 305" fill="none" xmlns="http://www.w3.org/2000/svg">
<g clip-path="url(#clip0_1_8142)">
<path d="M127.996 152.116C170.002 152.116 204.054 118.064 204.054 76.0579C204.054 34.0523 170.002 0 127.996 0C85.9905 0 51.9382 34.0523 51.9382 76.0579C51.9382 118.064 85.9905 152.116 127.996 152.116Z" fill="url(#paint0_linear_1_8142)"/>
<path d="M121.516 302.953C71.8433 271.266 30.5322 228.084 1.07657 177.057C-0.0620321 175.011 -0.309636 172.588 0.391817 170.354C1.09327 168.121 2.68208 166.274 4.78567 165.247L62.3833 136.981C66.4123 135.017 71.2746 136.507 73.5106 140.392C102.631 189.199 145.69 228.175 197.147 252.304C178.17 271.426 157.154 288.41 134.476 302.953C130.511 305.429 125.481 305.429 121.516 302.953Z" fill="url(#paint1_linear_1_8142)"/>
<path d="M134.476 302.953C184.155 271.274 225.468 228.09 254.916 177.057C256.057 175.017 256.311 172.597 255.618 170.365C254.925 168.132 253.345 166.282 251.249 165.247L193.609 136.981C189.58 135.017 184.717 136.507 182.481 140.392C153.367 189.204 110.306 228.181 58.8448 252.304C77.8108 271.438 98.8281 288.424 121.516 302.953C125.481 305.429 130.511 305.429 134.476 302.953Z" fill="#2684FF"/>
</g>
<defs>
<linearGradient id="paint0_linear_1_8142" x1="7657.73" y1="2528.16" x2="7657.73" y2="18144.8" gradientUnits="userSpaceOnUse">
<stop stop-color="#2684FF"/>
<stop offset="0.82" stop-color="#0052CC"/>
</linearGradient>
<linearGradient id="paint1_linear_1_8142" x1="8118.46" y1="5392.64" x2="12208.9" y2="13953.6" gradientUnits="userSpaceOnUse">
<stop stop-color="#2684FF"/>
<stop offset="0.62" stop-color="#0052CC"/>
</linearGradient>
<clipPath id="clip0_1_8142">
<rect width="256" height="305" fill="white"/>
</clipPath>
</defs>
</svg>
