<svg width="256" height="248" viewBox="0 0 256 248" fill="none" xmlns="http://www.w3.org/2000/svg">
<g clip-path="url(#clip0_1_8147)">
<path d="M85.2556 135.865V165.654C107.985 165.628 129.776 156.864 145.848 141.284C161.921 125.705 170.962 104.583 170.989 82.5508H140.257C140.239 96.6849 134.438 110.236 124.128 120.23C113.817 130.225 99.8374 135.847 85.2556 135.865Z" fill="#3BE081"/>
<path d="M85.247 217.922C70.7702 217.922 56.8865 212.347 46.65 202.425C36.4134 192.502 30.6626 179.045 30.6626 165.012C30.6626 150.979 36.4134 137.522 46.65 127.598C56.8865 117.676 70.7702 112.101 85.247 112.101V82.5313C74.0679 82.5161 62.9957 84.6349 52.6617 88.7676C42.3278 92.8995 32.9346 98.965 25.0187 106.616C17.1028 114.267 10.8191 123.355 6.52643 133.36C2.23373 143.365 0.0160815 154.092 2.48961e-05 164.928C-0.015858 175.763 2.17016 186.496 6.43335 196.514C10.6966 206.53 16.9534 215.635 24.8468 223.309C32.7401 230.981 42.1153 237.073 52.437 241.233C62.7588 245.394 73.8248 247.544 85.0039 247.56H85.247V217.922Z" fill="#0037FF"/>
<path d="M85.2556 217.924V247.494C107.832 247.494 129.484 238.801 145.448 223.327C161.412 207.852 170.381 186.864 170.381 164.98H139.841C139.831 179.013 134.079 192.47 123.845 202.395C113.611 212.321 99.7331 217.906 85.2556 217.924Z" fill="#00CCFF"/>
<path d="M85.2556 52.9438V82.5138C107.832 82.5138 129.484 73.8208 145.448 58.3463C161.412 42.8719 170.381 21.8841 170.381 0H139.841C139.831 14.033 134.079 27.4892 123.845 37.4151C113.611 47.3412 99.7331 52.9259 85.2556 52.9438Z" fill="#861DFF"/>
<path d="M170.875 52.9438V82.5138C193.452 82.5138 215.103 73.8208 231.067 58.3463C247.032 42.8719 256 21.8841 256 0H225.477C225.468 14.0359 219.712 27.4946 209.475 37.4211C199.238 47.3475 185.355 52.9304 170.875 52.9438Z" fill="#FF8110"/>
</g>
<defs>
<clipPath id="clip0_1_8147">
<rect width="256" height="248" fill="white"/>
</clipPath>
</defs>
</svg>
