<svg width="512" height="93" viewBox="0 0 512 93" fill="none" xmlns="http://www.w3.org/2000/svg">
<g clip-path="url(#clip0_1_8166)">
<path d="M271.927 16.3411V1.47114H209.88V90.7261H271.927V75.8511H224.757V53.5401H269.655V38.6641H224.757V16.3411H271.927ZM317.965 90.7264V1.47744H332.847V75.8504H375.756V90.7264H317.965ZM387.881 90.7264V1.47744H402.763V75.8504H445.685V90.7264H387.881ZM287.539 1.47744H302.415V90.7264H287.539V1.47744ZM0 46.5084C0 20.8294 20.812 0.0294375 46.491 0.0234375C72.17 0.0294375 92.97 20.8294 92.976 46.5084C92.97 72.1804 72.17 92.9934 46.491 92.9994C20.812 92.9934 0 72.1804 0 46.5084ZM24.13 24.1474C18.408 29.9074 14.882 37.7574 14.87 46.5084C14.882 55.2654 18.408 63.1094 24.13 68.8564C29.878 74.5914 37.734 78.1234 46.491 78.1234C55.248 78.1234 63.092 74.5914 68.834 68.8564C74.575 63.1094 78.1 55.2654 78.1 46.5084C78.1 37.7574 74.575 29.9074 68.834 24.1474C63.092 18.4314 55.248 14.9054 46.491 14.8994C37.734 14.9054 29.878 18.4314 24.13 24.1474ZM176.389 52.4321C187.123 49.2091 194.954 39.2881 194.954 27.5021C194.954 13.1301 183.301 1.47814 168.917 1.47814H124.081V90.7261H138.951V53.5471H159.675L182.111 90.7261H199.468L176.389 52.4321ZM138.951 38.6641V16.3411H168.917C175.08 16.3471 180.072 21.3461 180.085 27.5021C180.072 33.6591 175.08 38.6511 168.917 38.6641H138.951ZM512 1.47764H493.92L471.023 34.6156L448.128 1.47764H430.047L463.564 50.0086V90.7266H478.446V50.0396L512 1.47764Z" fill="#221F20"/>
<path d="M113.531 10.9714C113.531 17.0214 108.633 21.9254 102.589 21.9254C96.5325 21.9254 91.6355 17.0214 91.6355 10.9714C91.6355 4.92744 96.5325 0.0234375 102.589 0.0234375C108.633 0.0234375 113.531 4.92744 113.531 10.9714Z" fill="#D31242"/>
</g>
<defs>
<clipPath id="clip0_1_8166">
<rect width="512" height="93" fill="white"/>
</clipPath>
</defs>
</svg>
