<svg width="256" height="269" viewBox="0 0 256 269" fill="none" xmlns="http://www.w3.org/2000/svg">
<g clip-path="url(#clip0_1_8202)">
<path d="M226.306 85.5749L201.885 81.0335C201.291 80.9221 200.64 80.3635 200.439 79.7901L192.953 62.3257C192.674 61.7864 192.728 60.9396 193.072 60.4375L207.301 39.6989C207.641 39.1998 207.574 38.4407 207.145 38.0113L189.373 20.2394C188.944 19.8101 188.186 19.7403 187.687 20.0834L166.585 34.5648C166.085 34.908 165.23 34.9689 164.688 34.7015L147.758 27.7713C147.183 27.5811 146.623 26.9379 146.51 26.3422L141.808 1.08298C141.698 0.487268 141.111 0 140.505 0H115.37C114.765 0 114.178 0.487268 114.068 1.08298L109.368 26.3422C109.255 26.9379 108.696 27.5811 108.12 27.7713L91.1889 34.7015C90.6451 34.9689 89.7894 34.908 89.2918 34.5648L68.1907 20.0834C67.6901 19.7403 66.931 19.8101 66.5031 20.2394L48.7297 38.0113C48.3019 38.4407 48.2306 39.1998 48.5737 39.6989L62.804 60.4375C63.1457 60.9396 63.1992 61.7864 62.9214 62.3257L55.4341 79.7901C55.235 80.3635 54.5859 80.9221 53.9887 81.0335L29.5688 85.5749C28.9716 85.6878 28.4858 86.2731 28.4858 86.8792L28.4873 112.014C28.4873 112.62 28.9746 113.209 29.5703 113.318L53.3914 117.751C53.9872 117.859 54.6245 118.425 54.8057 119.003L62.2425 137.58C62.5084 138.126 62.446 138.978 62.1014 139.477L48.5708 159.195C48.2291 159.695 48.2989 160.455 48.7268 160.884L66.5016 178.656C66.9295 179.083 67.6886 179.153 68.1892 178.812L87.5581 165.518C88.0573 165.176 88.8937 165.15 89.4151 165.454L97.9571 170.015C98.4979 170.291 99.1292 170.058 99.361 169.498L116.974 126.941C117.207 126.381 116.974 125.666 116.457 125.35L114.319 124.041C113.924 123.8 113.388 123.386 112.967 123.005C105.256 118.067 100.139 109.429 100.139 99.5912C100.139 84.2393 112.586 71.7947 127.936 71.7947C143.286 71.7947 155.731 84.2393 155.731 99.5912C155.731 109.429 150.616 118.067 142.903 123.005C142.486 123.386 141.948 123.8 141.554 124.041L139.416 125.35C138.902 125.666 138.668 126.381 138.899 126.941L156.511 169.499C156.743 170.059 157.373 170.291 157.915 170.016L166.457 165.456C166.98 165.151 167.815 165.176 168.314 165.519L187.684 178.814C188.183 179.154 188.944 179.084 189.37 178.658L207.145 160.886C207.574 160.457 207.644 159.696 207.301 159.197L193.769 139.479C193.427 138.98 193.364 138.127 193.629 137.582L201.066 119.005C201.249 118.427 201.882 117.861 202.479 117.752L226.3 113.319C226.894 113.211 227.383 112.621 227.383 112.015L227.386 86.8807C227.388 86.2731 226.9 85.6878 226.306 85.5749Z" fill="#0099B0"/>
<path d="M67.7376 268.564H73.1049V250.36C73.1049 243.785 68.5799 241.574 62.0033 241.574C58.0041 241.574 55.0582 242.625 53.0066 245.468L57.2153 248.677C58.1616 247.151 59.4778 246.622 62.2662 246.622C66.1064 246.622 67.7376 247.519 67.7376 250.043V252.832H60.3186C54.5843 252.832 51.6384 256.464 51.6384 260.725C51.6384 265.355 55.1102 268.881 61.0555 268.881C64.6862 268.881 66.5283 268.04 67.6321 266.196H67.7376V268.564ZM67.7376 259.198C67.7376 263.356 66.2119 263.828 61.7403 263.828C58.1096 263.828 56.6879 262.249 56.6879 260.462C56.6879 258.514 58.1616 257.25 61.3199 257.25H67.7376V259.198Z" fill="#0099B0"/>
<path d="M78.9998 268.564H84.3656V252.515C84.3656 248.625 86.9446 246.939 89.5755 246.939C90.9438 246.939 91.8381 247.307 93.1008 248.256L96.993 243.626C95.3618 242.363 93.5747 241.574 91.4162 241.574C88.5757 241.574 86.1543 242.627 84.4711 244.731H84.3656V241.891H78.9998V268.564Z" fill="#0099B0"/>
<path d="M113.045 268.563H118.411V231.102H113.045V244.73C111.045 242.836 108.888 241.573 106.152 241.573C102.889 241.573 100.523 243.044 98.9971 245.047C97.5234 246.938 97.103 248.673 97.103 255.202C97.103 261.777 97.5234 263.512 98.9971 265.406C100.523 267.406 102.889 268.88 106.152 268.88C108.888 268.88 111.362 267.614 113.045 265.775V268.563ZM107.783 246.938C112.782 246.938 113.045 251.36 113.045 255.202C113.045 259.096 112.782 263.512 107.783 263.512C102.732 263.512 102.469 259.357 102.469 255.202C102.469 251.096 102.732 246.938 107.783 246.938Z" fill="#0099B0"/>
<path d="M145.798 268.564H150.536L159.057 241.891H153.373L148.273 260.567H148.165L142.116 241.891H138.222L132.173 260.567H132.067L126.963 241.891H121.282L129.805 268.564H134.539L140.116 249.886H140.222L145.798 268.564Z" fill="#0099B0"/>
<path d="M175.574 268.564H180.941V250.36C180.941 243.785 176.415 241.574 169.839 241.574C165.842 241.574 162.893 242.625 160.841 245.468L165.051 248.677C165.998 247.151 167.311 246.622 170.099 246.622C173.941 246.622 175.572 247.519 175.572 250.043V252.832H168.153C162.421 252.832 159.472 256.464 159.472 260.725C159.472 265.355 162.945 268.881 168.89 268.881C172.519 268.881 174.363 268.04 175.468 266.196H175.572V268.564H175.574ZM175.574 259.198C175.574 263.356 174.048 263.828 169.577 263.828C165.947 263.828 164.526 262.249 164.526 260.462C164.526 258.514 165.999 257.25 169.156 257.25H175.574V259.198Z" fill="#0099B0"/>
<path d="M186.837 268.564H192.202V252.515C192.202 248.625 194.778 246.939 197.41 246.939C198.78 246.939 199.673 247.307 200.935 248.256L204.829 243.626C203.198 242.363 201.408 241.574 199.252 241.574C196.412 241.574 193.992 242.627 192.309 244.731H192.202V241.891H186.837V268.564Z" fill="#0099B0"/>
<path d="M226.918 257.251V252.828C226.918 245.936 221.817 241.57 215.925 241.57C210.769 241.57 204.929 244.937 204.929 255.3C204.929 266.244 211.294 268.877 216.767 268.877C220.345 268.877 223.763 267.614 226.394 264.562L222.5 261.247C220.921 262.881 218.71 263.826 216.662 263.826C212.978 263.826 210.296 261.615 210.296 257.251H226.918ZM210.296 252.829C210.4 248.778 212.768 246.62 215.925 246.62C219.082 246.62 221.398 248.778 221.554 252.829H210.296Z" fill="#0099B0"/>
<path d="M0 213.07C0 218.856 0.840834 221.067 2.89241 223.329C4.3661 224.961 6.83957 226.748 10.9962 226.748C15.1513 226.748 17.6248 224.961 19.0985 223.329C21.1501 221.067 21.9924 218.855 21.9924 213.07C21.9924 207.334 21.1501 205.125 19.0985 202.863C17.6248 201.232 15.1513 199.441 10.9962 199.441C6.83957 199.441 4.3661 201.232 2.89241 202.863C0.840834 205.127 0 207.334 0 213.07ZM16.625 213.122C16.625 216.964 16.3101 218.014 15.3103 219.436C14.52 220.541 12.8368 221.383 10.9962 221.383C9.15409 221.383 7.47094 220.542 6.6821 219.436C5.68231 218.014 5.36589 216.964 5.36589 213.07C5.36589 209.228 5.68231 208.175 6.6821 206.756C7.47094 205.651 9.15409 204.809 10.9962 204.809C12.8368 204.809 14.52 205.65 15.3103 206.756C16.3101 208.175 16.625 209.228 16.625 213.122Z" fill="#0099B0"/>
<path d="M73.4897 215.122V210.702C73.4897 203.808 68.3868 199.441 62.495 199.441C57.3371 199.441 51.4988 202.811 51.4988 213.174C51.4988 224.115 57.8645 226.748 63.3358 226.748C66.9146 226.748 70.3329 225.485 72.9638 222.434L69.0701 219.121C67.4924 220.752 65.2834 221.7 63.2318 221.7C59.5476 221.7 56.8647 219.489 56.8647 215.122H73.4897ZM56.8647 210.704C56.9701 206.649 59.3381 204.494 62.495 204.494C65.6518 204.494 67.9663 206.649 68.1238 210.704H56.8647Z" fill="#0099B0"/>
<path d="M78.0698 226.431H83.4357V210.546C83.4357 206.914 85.6982 204.81 88.7496 204.81C91.749 204.81 94.0115 206.914 94.0115 210.546V226.431H99.3774V208.702C99.3774 202.65 94.6429 199.441 90.4862 199.441C87.6458 199.441 85.2243 200.495 83.5427 202.598H83.4357V199.758H78.0698V226.431Z" fill="#0099B0"/>
<path d="M113.887 221.958C117.307 225.167 121.306 226.746 125.62 226.746C131.828 226.746 136.668 223.748 136.668 218.538C136.668 214.279 134.461 210.91 128.934 210.542L124.515 210.228C121.832 210.016 120.991 208.858 120.991 207.701C120.991 205.862 122.148 204.492 125.567 204.492C128.462 204.492 130.62 205.494 132.724 206.964L136.037 203.074C133.406 200.863 130.251 199.441 125.565 199.441C119.936 199.441 115.622 202.23 115.622 207.649C115.622 212.225 118.884 214.857 123.303 215.226L128.039 215.646C129.882 215.802 131.301 216.383 131.301 218.277C131.301 220.539 129.089 221.695 126.039 221.695C122.462 221.695 119.936 220.541 117.622 218.277L113.887 221.958Z" fill="#0099B0"/>
<path d="M139.719 213.07C139.719 218.856 140.563 221.067 142.615 223.329C144.089 224.961 146.561 226.748 150.716 226.748C154.874 226.748 157.346 224.961 158.819 223.329C160.871 221.067 161.712 218.855 161.712 213.07C161.712 207.334 160.871 205.125 158.819 202.863C157.346 201.232 154.874 199.441 150.716 199.441C146.561 199.441 144.089 201.232 142.615 202.863C140.563 205.127 139.719 207.334 139.719 213.07ZM156.345 213.122C156.345 216.964 156.031 218.014 155.03 219.436C154.241 220.541 152.558 221.383 150.716 221.383C148.877 221.383 147.19 220.542 146.405 219.436C145.403 218.014 145.087 216.964 145.087 213.07C145.087 209.228 145.403 208.175 146.405 206.756C147.19 205.651 148.877 204.809 150.716 204.809C152.558 204.809 154.241 205.65 155.03 206.756C156.031 208.175 156.345 209.228 156.345 213.122Z" fill="#0099B0"/>
<path d="M166.293 217.49C166.293 223.539 171.029 226.748 175.238 226.748C178.024 226.748 180.447 225.694 182.13 223.591H182.234V226.434H187.598V199.758H182.234V215.646C182.234 219.275 179.971 221.382 176.97 221.382C173.92 221.382 171.658 219.275 171.658 215.646V199.758H166.293V217.49Z" fill="#0099B0"/>
<path d="M193.484 226.431H198.851V210.386C198.851 206.492 201.427 204.809 204.06 204.809C205.429 204.809 206.322 205.177 207.585 206.124L211.479 201.493C209.844 200.23 208.06 199.441 205.902 199.441C203.061 199.441 200.638 200.495 198.955 202.598H198.851V199.758H193.484V226.431Z" fill="#0099B0"/>
<path d="M228.569 218.595C227.254 220.226 225.36 221.383 223.152 221.383C218.786 221.383 216.206 218.908 216.206 213.119C216.206 207.281 218.785 204.809 223.152 204.809C225.36 204.809 227.255 205.966 228.569 207.597L232.514 204.072C230.201 201.388 226.989 199.441 222.94 199.441C216.785 199.441 210.84 203.335 210.84 213.119C210.84 222.857 216.785 226.748 222.94 226.748C226.991 226.748 230.203 224.8 232.514 222.12L228.569 218.595Z" fill="#0099B0"/>
<path d="M255.872 215.122V210.702C255.872 203.808 250.764 199.441 244.876 199.441C239.716 199.441 233.879 202.811 233.879 213.174C233.879 224.115 240.245 226.748 245.718 226.748C249.295 226.748 252.716 225.485 255.344 222.434L251.451 219.121C249.872 220.752 247.664 221.7 245.612 221.7C241.928 221.7 239.247 219.489 239.247 215.122H255.872ZM239.247 210.704C239.351 206.649 241.719 204.494 244.876 204.494C248.032 204.494 250.345 206.649 250.504 210.704H239.247Z" fill="#0099B0"/>
<path d="M37.2001 221.382C42.251 221.382 42.514 217.224 42.514 213.121C42.514 208.962 42.251 204.807 37.2001 204.807C32.2026 204.807 31.9382 209.227 31.9382 213.121C31.9382 216.962 32.2011 221.382 37.2001 221.382ZM26.5515 268.564V199.758H31.9382V202.546C33.6228 200.704 36.0948 199.441 38.8312 199.441C42.0921 199.441 44.4616 200.915 45.9873 202.915C47.4595 204.809 47.8799 206.544 47.8799 213.122C47.8799 219.645 47.4595 221.383 45.9873 223.274C44.4616 225.274 42.0921 226.748 38.8312 226.748C36.0948 226.748 33.9378 225.485 31.9382 223.591L31.9189 244.731C33.7075 242.627 36.1275 241.574 38.9679 241.574C43.1246 241.574 47.8591 244.783 47.8591 250.832V268.564H42.4932V252.675C42.4932 249.043 40.2307 246.94 37.2313 246.94C34.1799 246.94 31.9189 249.043 31.9189 252.675V268.564H26.5515Z" fill="#0099B0"/>
</g>
<defs>
<clipPath id="clip0_1_8202">
<rect width="256" height="269" fill="white"/>
</clipPath>
</defs>
</svg>
