<svg width="256" height="255" viewBox="0 0 256 255" fill="none" xmlns="http://www.w3.org/2000/svg">
<g clip-path="url(#clip0_1_8222)">
<path d="M255.215 0.257812V63.9939L191.61 127.599V63.73L255.215 0.257812Z" fill="#A596FF"/>
<path d="M128.006 0.257812V63.9939L191.611 127.599V63.73L128.006 0.257812Z" fill="black"/>
<path d="M255.346 254.804H191.61L128.005 191.199H191.872L255.346 254.804Z" fill="#A596FF"/>
<path d="M255.346 127.594H191.61L128.005 191.199H191.872L255.346 127.594Z" fill="black"/>
<path d="M0.80127 254.936V191.199L64.4062 127.594V191.463L0.80127 254.936Z" fill="#A596FF"/>
<path d="M128.009 254.936V191.199L64.4045 127.594V191.463L128.009 254.936Z" fill="black"/>
<path d="M0.671631 0.386719H64.4077L128.013 63.9917H64.1454L0.671631 0.386719Z" fill="#A596FF"/>
<path d="M0.671631 127.593H64.4077L128.013 63.9883H64.1454L0.671631 127.593Z" fill="black"/>
</g>
<defs>
<clipPath id="clip0_1_8222">
<rect width="256" height="255" fill="white"/>
</clipPath>
</defs>
</svg>
