<svg width="256" height="256" viewBox="0 0 256 256" fill="none" xmlns="http://www.w3.org/2000/svg">
<g clip-path="url(#clip0_1_8232)">
<path d="M167.446 169.06C169.21 191.625 162.957 211.127 146.975 227.099C126.148 247.936 72.4988 258.99 14.5979 255.296C10.987 255.067 7.58361 253.53 5.02531 250.971C2.46702 248.413 0.929471 245.009 0.700844 241.399C-2.98368 183.506 8.0699 129.855 28.9062 109.027C44.8786 93.0545 64.3801 86.7916 86.9444 88.5562C95.3095 89.2145 103.401 90.7414 112.672 93.3928C108.512 81.4704 106.299 72.6749 105.175 63.3308C102.788 43.5181 107.36 26.6859 120.653 13.3921C136.525 -2.48007 163.423 -4.82067 180.182 9.4789C189.381 3.34133 200.425 0.583543 211.429 1.67558C222.434 2.76761 232.719 7.64171 240.533 15.4675C248.356 23.281 253.229 33.5651 254.321 44.568C255.414 55.571 252.657 66.6122 246.521 75.8109C260.821 92.5791 258.48 119.478 242.608 135.35C229.315 148.644 212.483 153.215 192.671 150.829C183.327 149.713 174.531 147.482 162.609 143.332C155.967 140.983 149.371 138.505 142.824 135.898L133.956 132.397C131.387 131.391 128.9 130.431 126.486 129.526C112.818 124.369 101.527 120.886 91.9358 119.148C76.9879 116.433 66.2452 117.987 56.9745 124.195C54.4405 125.909 52.0825 127.869 49.9345 130.047C37.8661 142.125 28.9062 181.385 29.8205 226.176C74.6199 227.09 113.878 218.148 125.956 206.07C139.716 192.31 141.499 176.392 132.831 147.94L137.375 149.732C149.307 154.431 158.504 157.796 166.413 160.246C166.87 163.19 167.217 166.107 167.446 169.06ZM147.78 102.289L149.453 106.55L153.713 108.223C193.832 124.022 209.941 125.96 221.58 114.321C227.111 108.799 227.733 98.9243 223.463 94.6454C222.118 93.2904 220.478 92.2618 218.673 91.6374C206.677 87.4956 205.05 71.212 215.985 64.7754C218.954 63.0182 221.357 60.4464 222.909 57.3649C224.461 54.2833 225.096 50.8215 224.74 47.3897C224.384 43.9578 223.051 40.7002 220.9 38.003C218.748 35.3056 215.868 33.2819 212.602 32.1717C208.68 30.8209 204.413 30.8636 200.52 32.2926C196.626 33.7216 193.343 36.4495 191.226 40.0163C184.79 50.9513 168.506 49.3238 164.365 37.3283C163.738 35.522 162.706 33.8831 161.348 32.5374C157.087 28.2676 147.204 28.8894 141.682 34.4208C130.043 46.0598 131.99 62.1697 147.78 102.289Z" fill="url(#paint0_linear_1_8232)"/>
</g>
<defs>
<linearGradient id="paint0_linear_1_8232" x1="25600.2" y1="-1828.82" x2="0.558365" y2="23771.4" gradientUnits="userSpaceOnUse">
<stop stop-color="#9933CC"/>
<stop offset="1" stop-color="#FF8800"/>
</linearGradient>
<clipPath id="clip0_1_8232">
<rect width="256" height="256" fill="white"/>
</clipPath>
</defs>
</svg>
