<svg width="256" height="285" viewBox="0 0 256 285" fill="none" xmlns="http://www.w3.org/2000/svg">
<g clip-path="url(#clip0_1_8249)">
<path d="M206.052 203.265C237.813 190.014 256 183.436 256 183.436L189.698 0L0 40.15C0 40.15 4.022 51.556 10.833 96.291L152.495 64.46L206.052 203.265Z" fill="#E80022"/>
<path d="M22.837 187.855C25.905 215.17 28.906 246.507 32.414 284.362C64.581 267.829 94.334 253.373 120.974 240.939L95.033 171.648L22.837 187.855Z" fill="#B6B1B1"/>
<path d="M13.422 114.016C15.574 129.323 17.946 147.622 20.507 169.433L106.452 149.18L137.332 233.38C155.958 224.853 172.807 217.42 187.559 211.091L141.076 86.9297L13.422 114.016Z" fill="#748282"/>
</g>
<defs>
<clipPath id="clip0_1_8249">
<rect width="256" height="285" fill="white"/>
</clipPath>
</defs>
</svg>
