<svg width="256" height="203" viewBox="0 0 256 203" fill="none" xmlns="http://www.w3.org/2000/svg">
<g clip-path="url(#clip0_1_8260)">
<path d="M256 39.788C256 19.385 241.304 2.781 220.895 2.781C208.835 2.781 200.081 6.972 194.555 13.861C193.522 14.647 192.617 15.551 191.717 16.468C173.904 6.078 152.134 0.07 128.115 0C103.177 0.068 81.12 5.888 63.324 16.159C57.661 7.848 47.783 2.781 34.398 2.781C13.989 2.781 0 19.385 0 39.788C0 55.435 7.682 67.87 19.476 73.492C17.661 80.879 16.611 88.631 16.611 96.782C16.611 155.857 65.587 202.751 128.109 202.751H128.168C188.604 202.751 239.666 153.935 239.666 96.835C239.666 88.502 238.439 80.523 236.344 72.896C247.966 66.997 256 54.859 256 39.788Z" fill="#090B08"/>
<path d="M226.806 97.4118C226.806 146.79 181.384 188.916 127.931 188.916C74.4771 188.916 29.0481 148.884 29.0481 99.5047C29.0481 50.1197 74.4771 10.0938 127.931 10.0938C181.384 10.0938 226.806 48.0268 226.806 97.4118Z" fill="white"/>
<path d="M107.819 78.4389C105.553 95.6709 94.0869 108.373 82.2249 106.807C70.3619 105.242 62.5819 90.0039 64.8539 72.7719C67.1259 55.5399 78.5849 42.8389 90.4539 44.4039C102.317 45.9629 110.097 61.1999 107.819 78.4389Z" fill="#090B08"/>
<path d="M98.3801 62.0687C98.3801 67.2067 94.2131 71.3747 89.0741 71.3747C83.9351 71.3747 79.7681 67.2067 79.7681 62.0687C79.7681 56.9297 83.9351 52.7617 89.0741 52.7617C94.2131 52.7617 98.3801 56.9297 98.3801 62.0687Z" fill="white"/>
<path d="M147.911 78.4389C150.183 95.6709 161.642 108.373 173.505 106.807C185.374 105.242 193.148 90.0039 190.876 72.7719C188.604 55.5399 177.144 42.8389 165.281 44.4039C153.413 45.9629 145.639 61.1999 147.911 78.4389Z" fill="#090B08"/>
<path d="M157.356 62.0687C157.356 67.2067 161.517 71.3747 166.662 71.3747C171.801 71.3747 175.962 67.2067 175.962 62.0687C175.962 56.9297 171.801 52.7617 166.662 52.7617C161.517 52.7617 157.356 56.9297 157.356 62.0687Z" fill="white"/>
<path d="M134.853 138.442V128.234C134.853 127.68 134.8 127.156 134.686 126.678C142.265 125.221 147.765 121.15 147.765 116.299C147.765 111.543 146.708 107.494 139.364 105.955C137.329 105.533 130.949 105.301 128.664 105.301C126.478 105.301 120.19 105.513 118.235 105.902C110.744 107.389 109.556 111.484 109.556 116.299C109.556 122.306 117.941 127.17 128.344 127.271C128.304 127.587 128.248 127.892 128.248 128.234V138.917C112.963 138.728 98.7371 128.304 98.7371 135.268C98.7371 142.302 113.875 148.967 129.318 148.967C144.76 148.967 157.277 143.267 157.277 136.232C157.277 130.163 147.463 136.569 134.853 138.442Z" fill="#090B08"/>
<path d="M136.946 114.208C136.946 116.17 132.085 117.768 128.664 117.768C125.243 117.768 120.375 116.17 120.375 114.208C120.375 112.643 122.851 111.315 125.282 110.833C125.916 110.707 127.957 110.641 128.664 110.641C129.404 110.641 131.471 110.721 132.131 110.853C134.509 111.348 136.946 112.662 136.946 114.208Z" fill="#E7EBE0"/>
<path d="M127.931 10.0938C74.4771 10.0938 29.0481 50.1197 29.0481 99.5047C29.0481 148.884 74.4771 188.916 127.931 188.916C125.797 188.916 123.677 188.83 121.577 188.705C124.364 188.533 127.118 188.249 129.846 187.859C83.0901 181.281 45.7991 144.24 45.7991 99.5047C45.7991 54.6447 83.2951 17.5247 130.236 11.1047C127.429 10.7287 124.589 10.4578 121.722 10.2928C123.783 10.1738 125.85 10.0938 127.931 10.0938Z" fill="#E1DEDC"/>
<path d="M127.931 10.0938C130.791 10.0938 133.624 10.2267 136.438 10.4377C134.357 10.6027 132.283 10.8207 130.236 11.1047C176.979 17.3667 214.244 52.6828 214.244 97.4118C214.244 142.259 176.768 181.103 129.846 187.859C131.94 188.15 134.053 188.381 136.18 188.553C133.452 188.777 130.705 188.916 127.931 188.916C181.384 188.916 226.806 146.79 226.806 97.4118C226.806 48.0268 181.384 10.0938 127.931 10.0938Z" fill="#F1EFEE"/>
<path d="M129.846 187.859C127.118 188.249 124.364 188.533 121.577 188.705C123.677 188.83 125.797 188.916 127.931 188.916C130.705 188.916 133.452 188.777 136.18 188.553C134.053 188.381 131.94 188.15 129.846 187.859ZM127.931 10.0938C125.85 10.0938 123.783 10.1738 121.722 10.2928C124.589 10.4578 127.429 10.7287 130.236 11.1047C132.283 10.8207 134.357 10.6027 136.438 10.4377C133.624 10.2267 130.791 10.0938 127.931 10.0938Z" fill="#D3D0CD"/>
<path d="M229.008 54.5348C233.098 50.9228 235.73 45.6978 235.73 39.8097C235.73 28.9247 226.906 20.0938 216.014 20.0938C211.274 20.0938 206.983 21.8358 203.583 24.6228C214.216 32.9358 222.85 43.0458 229.008 54.5348Z" fill="white"/>
<path d="M26.049 55.3618C31.866 43.5388 40.24 33.2538 50.737 24.8418C47.298 21.9228 42.902 20.0938 38.038 20.0938C27.153 20.0938 18.322 28.9247 18.322 39.8097C18.322 46.1657 21.381 51.7568 26.049 55.3618Z" fill="white"/>
</g>
<defs>
<clipPath id="clip0_1_8260">
<rect width="256" height="203" fill="white"/>
</clipPath>
</defs>
</svg>
