<svg width="256" height="193" viewBox="0 0 256 193" fill="none" xmlns="http://www.w3.org/2000/svg">
<g clip-path="url(#clip0_1_8275)">
<path d="M140.515 191.334L210.772 146.906C211.032 146.746 211.372 146.816 211.532 147.076C211.692 147.336 211.622 147.676 211.362 147.836L140.875 192.404C140.785 192.464 140.685 192.494 140.585 192.494L140.515 191.334Z" fill="url(#paint0_linear_1_8275)"/>
<path d="M140.584 192.491C140.524 192.491 140.454 192.481 140.394 192.461L44.6082 156.763C44.3182 156.653 44.1782 156.343 44.2882 156.053C44.3982 155.763 44.7082 155.623 44.9981 155.733L140.534 191.331L140.584 192.491Z" fill="url(#paint1_linear_1_8275)"/>
<path d="M241.101 21.8092L230.041 40.1185L185.613 59.0077L183.143 60.0577L143.214 97.3962C142.444 98.1662 141.924 99.2662 141.835 99.8761C141.795 100.086 141.615 99.9961 141.445 99.9861C141.265 99.9761 141.015 100.046 140.995 99.8261C140.975 99.0262 140.885 98.1362 139.595 97.3362L119.585 84.3767L104.996 74.9171L63.8975 64.3775L29.4989 55.5579L7.70972 21.7092L8.0397 21.3292L8.0597 21.2992L89.8565 0.0400281C89.9765 2.96663e-05 89.9965 0.0195522 90.0465 0.0900262L117.945 41.8784L118.495 42.6984C119.095 43.5783 119.155 44.1183 119.155 44.5083H119.665C119.665 44.4783 119.665 44.4483 119.665 44.4183C119.665 44.3783 119.665 44.3283 119.675 44.2783C119.675 44.2483 119.685 44.2183 119.685 44.1783C119.695 44.1383 119.695 44.0983 119.705 44.0583C119.715 44.0183 119.715 43.9783 119.725 43.9283C119.755 43.7883 119.795 43.6283 119.835 43.4683C119.845 43.4183 119.865 43.3683 119.875 43.3283C119.925 43.1684 119.975 42.9984 120.035 42.8384C120.065 42.7784 120.085 42.7084 120.115 42.6484C120.195 42.4484 120.275 42.2684 120.365 42.1084C120.445 41.9484 120.525 41.8184 120.605 41.7084L145.754 5.12983C145.814 5.03983 145.844 4.99984 145.974 5.01983L240.941 21.3592L241.101 21.8092Z" fill="#E8B67F"/>
<path d="M119.585 84.3672H119.575L104.996 74.9176L63.8975 64.378L119.155 44.5087L119.305 44.2188V44.5087L119.585 84.3672Z" fill="url(#paint2_linear_1_8275)"/>
<path d="M119.155 44.5088L63.8975 64.368L58.9177 63.088L29.4989 55.5383L7.70972 21.6897L8.0597 21.2797L89.8565 0.0204969C89.9765 -0.0195016 89.9965 2.09808e-05 90.0465 0.0704949L117.945 41.8589L118.495 42.6788C119.095 43.5788 119.155 44.1188 119.155 44.5088Z" fill="url(#paint3_linear_1_8275)"/>
<path d="M119.35 46.6197L67.1023 65.3989L58.9526 63.309L117.98 42.0898L118.53 42.9098C119.13 43.7898 119.19 44.3298 119.19 44.7197H119.34L119.35 46.6197Z" fill="url(#paint4_linear_1_8275)"/>
<path d="M30.2488 55.739L29.5089 55.549L7.71973 21.7003L8.04971 21.3203L30.2488 55.739Z" fill="#D2A679"/>
<path d="M185.613 59.0099L183.143 60.0599L143.215 97.3984C142.445 98.1684 141.925 99.2683 141.835 99.8783C141.795 100.088 141.615 99.9983 141.445 99.9883C141.265 99.9783 141.015 100.048 140.995 99.8283C140.975 99.0283 140.885 98.1384 139.595 97.3384L119.585 84.3689L119.315 44.5205V44.2305L119.685 44.5205L185.613 59.0099Z" fill="url(#paint5_linear_1_8275)"/>
<path d="M241.101 21.8083L230.041 40.1176L189.603 57.3069L185.623 58.9969L119.675 44.5074C119.635 43.9974 119.985 42.8375 120.365 42.0975C120.445 41.9375 120.525 41.8075 120.605 41.6975L145.754 5.11895C145.814 5.02895 145.844 4.98895 145.974 5.00895L240.941 21.3483L241.101 21.8083Z" fill="url(#paint6_linear_1_8275)"/>
<path d="M189.603 57.3092L183.153 60.0491L182.323 60.8491L119.305 46.9197L119.595 44.4997H119.675C119.635 43.9898 119.985 42.8298 120.365 42.0898L189.603 57.3092Z" fill="url(#paint7_linear_1_8275)"/>
<path opacity="0.75" d="M121.055 44.8078V85.3162L119.585 84.3663H119.575L117.646 83.1063V45.0478L119.155 44.5078H119.665L121.055 44.8078Z" fill="url(#paint8_linear_1_8275)"/>
<path d="M140.195 191.845L44.3283 156.076C43.7883 155.846 43.7083 155.336 43.6783 154.706C43.6783 154.706 39.5585 73.0095 39.5485 72.9995C39.5385 72.7896 39.7985 72.6596 39.7785 72.5296C39.7085 72.2196 39.1185 71.0496 38.9285 70.9296L0 48.8105L0.329987 48.0605L104.996 74.9195L139.585 97.3286C140.875 98.1286 140.975 99.0185 140.985 99.8185C140.995 100.038 141.255 99.9685 141.434 99.9785C141.614 99.9885 141.784 100.078 141.824 99.8685C141.914 99.2585 142.434 98.1586 143.204 97.3986L183.133 60.0601L255.54 29.2812L255.98 29.8912L216.892 64.2399C216.132 64.9999 215.782 65.9298 215.932 66.3098L211.932 146.377C211.872 146.887 211.632 147.037 211.122 147.387L141.045 191.745C140.765 191.925 140.465 191.975 140.195 191.845Z" fill="#BF9064"/>
<path d="M141.435 99.9771L140.745 191.883C140.555 191.933 140.365 191.923 140.185 191.843L44.3184 156.085C43.7784 155.855 43.6984 155.335 43.6684 154.715C43.6684 154.715 39.5386 73.0181 39.5386 73.0081V72.9881C39.5386 72.9681 39.5386 72.9481 39.5486 72.9281C39.5486 72.9081 39.5586 72.8981 39.5686 72.8881C39.5786 72.8681 39.5886 72.8581 39.5986 72.8381C39.6086 72.8181 39.6186 72.8081 39.6286 72.7881C39.6686 72.7281 39.7286 72.6681 39.7486 72.6181C39.7586 72.6081 39.7586 72.5981 39.7586 72.5881C39.7586 72.5881 39.7586 72.5881 39.7586 72.5781L140.995 99.8571C141.035 100.037 141.275 99.9671 141.435 99.9771Z" fill="#BD8F63"/>
<path opacity="0.54" d="M140.754 191.611V191.871C140.564 191.921 140.375 191.911 140.195 191.831L44.3282 156.073C43.9483 155.913 43.7983 155.603 43.7283 155.223L140.754 191.611Z" fill="url(#paint9_linear_1_8275)"/>
<path d="M97.4062 135.863L134.525 148.003L134.435 184.201L98.0062 170.822L97.4062 135.863ZM116.006 160.182L116.096 176.952L134.074 183.556L134.075 166.462L116.006 160.182ZM121.317 165.6L124.95 171.382L128.509 168.264L129.128 168.971L125.456 172.188L129.137 178.046L128.604 178.381L124.976 172.608L121.435 175.712L120.815 175.005L124.47 171.802L120.784 165.935L121.317 165.6ZM132.015 172.112V173.762L132.965 174.072V175.932L132.015 175.552V177.052L129.935 173.892L132.015 172.112ZM128.815 170.102L129.545 170.332V176.922L128.815 176.662V170.102ZM98.1362 153.973L98.4062 170.482L115.586 176.762L115.486 160.032L98.1362 153.973ZM124.995 173.652L126.875 176.682L123.125 175.322L124.995 173.652ZM127.895 170.872V175.172L125.945 172.422L127.895 170.872ZM120.455 167.042L121.175 167.282V173.862L120.455 173.612V167.042ZM122.075 168.812L123.935 171.682L122.075 173.112V168.812ZM106.536 160.842L107.246 161.072L107.248 161.495C109.361 162.345 111.449 164.465 112.456 167.762C111.796 166.652 111.216 166.442 110.186 166.792C109.806 166.002 108.686 165.582 108.016 166.002C107.833 165.654 107.564 165.393 107.27 165.226L107.306 171.502C107.306 172.082 106.906 172.602 105.916 172.402C105.016 172.182 104.646 171.492 104.746 170.312L105.246 170.392C105.246 171.182 105.306 171.632 105.906 171.772C106.416 171.892 106.646 171.702 106.646 171.232L106.58 165.007C106.296 164.986 106.033 165.056 105.846 165.222C105.616 164.642 104.526 163.862 103.706 164.442C103.126 163.522 102.036 163.172 101.426 163.842C102.205 161.487 104.321 160.662 106.539 161.257L106.536 160.842ZM117.915 166.972L119.945 170.172L117.935 171.842L117.975 170.272L116.995 170.042V168.222L117.915 168.562V166.972ZM123.065 167.662L126.865 169.042L124.965 170.712L123.065 167.662ZM115.976 142.463L116.016 159.562L134.085 165.862V148.393L115.976 142.463ZM119.345 157.232L130.145 160.922V163.072L119.345 159.352V157.232ZM110.046 161.312C110.116 161.382 110.116 162.132 109.886 162.302C109.776 162.352 109.606 162.362 109.466 162.252C109.326 162.142 109.246 161.982 109.306 161.742C109.366 161.502 109.966 161.242 110.046 161.312ZM111.046 159.602C111.126 159.672 111.126 160.422 110.886 160.592C110.776 160.642 110.606 160.652 110.466 160.542C110.326 160.432 110.246 160.272 110.306 160.032C110.366 159.792 110.966 159.532 111.046 159.602ZM108.246 159.532C108.326 159.602 108.326 160.352 108.086 160.522C107.976 160.572 107.806 160.582 107.666 160.472C107.526 160.362 107.446 160.202 107.506 159.962C107.566 159.722 108.166 159.462 108.246 159.532ZM105.416 159.122C105.496 159.192 105.496 159.942 105.256 160.112C105.146 160.162 104.976 160.172 104.836 160.062C104.696 159.952 104.616 159.792 104.676 159.552C104.736 159.312 105.336 159.052 105.416 159.122ZM127.685 147.883L130.305 153.053L128.515 152.443V159.932L126.725 159.312L126.735 151.883L124.955 151.303L127.685 147.883ZM97.7962 136.503L98.1062 153.373L115.496 159.352L115.346 142.263L97.7962 136.503ZM121.775 145.913L124.395 151.083L122.605 150.473V157.962L120.815 157.342L120.835 149.913L119.045 149.333L121.775 145.913ZM101.686 139.893L103.106 140.363L103.766 142.753L103.026 142.703L105.136 147.803L104.046 143.603L104.666 143.593L104.036 140.663L111.366 143.083V147.113C111.366 148.643 109.706 150.573 107.366 149.613L107.376 153.663L110.736 155.823L102.606 153.003L105.876 153.163L105.816 149.153C103.496 148.463 101.816 145.673 101.816 143.973L101.686 139.893Z" fill="#322214"/>
<path d="M141.434 99.9766C141.035 99.9866 140.735 100.517 140.725 100.997L140.635 101.037L39.5385 72.9976C39.5285 72.8076 39.7485 72.6876 39.7685 72.5676C39.7785 72.5576 39.7785 72.5476 39.7685 72.5376C39.6985 72.2277 39.1085 71.0577 38.9185 70.9377L0 48.8086L0.329987 48.0586L104.986 74.9076H104.996L139.585 97.3167C140.875 98.1266 140.975 99.0066 140.985 99.8066C140.985 99.8166 140.985 99.8366 140.995 99.8466C141.035 100.037 141.275 99.9666 141.434 99.9766Z" fill="url(#paint10_linear_1_8275)"/>
<path d="M216.901 64.2282C216.141 64.9881 215.792 65.9181 215.941 66.2981L142.314 101.137L142.164 101.017C142.154 100.437 141.784 100.047 141.504 99.9868C141.654 100.007 141.794 100.057 141.834 99.8668C141.854 99.7468 141.884 99.6068 141.934 99.4568C141.974 99.3268 142.034 99.1868 142.104 99.0368C142.314 98.5568 142.634 98.0369 143.044 97.5769C143.104 97.5169 143.164 97.4469 143.224 97.3869L183.153 60.0483L255.56 29.2695L256 29.8795L216.901 64.2282Z" fill="#CD9C6B"/>
<path d="M95.9962 109.137C96.1062 109.167 96.1462 109.177 96.1462 109.087L95.7662 88.7479C95.7362 88.0579 95.5662 86.698 94.7363 86.148L57.8677 63.7489L40.5884 59.2891L78.0569 81.6782C78.9969 82.2982 79.0769 83.4581 79.1169 84.3181L79.6569 104.097C79.6569 104.197 79.6769 104.217 79.7469 104.247L95.9962 109.137Z" fill="url(#paint11_linear_1_8275)"/>
<path d="M141.435 99.9753C141.025 99.9853 140.725 100.545 140.725 101.035C140.715 101.075 140.645 101.065 140.635 101.035C140.555 99.9453 140.105 98.7253 139.515 98.2953L104.646 75.8162L104.986 74.9062H104.996L139.585 97.3154C140.875 98.1253 140.975 99.0053 140.985 99.8053C140.985 99.8153 140.985 99.8353 140.995 99.8453C141.035 100.035 141.275 99.9653 141.435 99.9753Z" fill="#D4A271"/>
<path d="M104.986 74.9193L104.646 75.8192L0 48.8103L0.329987 48.0703L104.986 74.9193Z" fill="#DEB37E"/>
<path d="M215.951 66.297L211.952 146.364C211.892 146.874 211.652 147.024 211.142 147.374L141.064 191.732C140.964 191.802 140.854 191.842 140.754 191.872L141.444 99.9657C141.624 99.9757 141.794 100.066 141.834 99.8557C141.834 99.8257 141.844 99.8057 141.844 99.7757L215.931 66.207C215.931 66.257 215.941 66.277 215.951 66.297Z" fill="#DBAD77"/>
<path opacity="0.54" d="M211.952 146.336V146.376C211.892 146.886 211.652 147.036 211.142 147.386L141.064 191.744C140.964 191.814 140.854 191.854 140.754 191.884V191.624L211.952 146.336Z" fill="url(#paint12_linear_1_8275)"/>
<path d="M210.642 111.496L209.042 144.095L185.743 158.604L186.943 124.676L210.642 111.496ZM198.182 135.095L186.603 141.905L186.053 157.954L197.582 150.785L198.182 135.095ZM192.652 141.985L192.631 142.525C194.014 141.835 195.321 142.316 195.872 144.605C195.492 144.075 194.802 144.285 194.342 145.365C194.132 144.915 193.062 145.285 192.902 146.225C192.817 146.072 192.664 146.016 192.487 146.036L192.232 152.225C192.212 152.754 192.182 153.324 191.512 153.734C191.202 153.874 190.382 153.984 190.492 152.834L190.882 152.535C190.852 153.264 191.042 153.484 191.442 153.244C191.922 152.954 191.832 152.494 191.852 152.065L192.068 146.201C191.787 146.387 191.532 146.709 191.462 147.095C191.342 146.735 190.183 146.955 190.043 147.985C189.713 147.545 188.813 147.975 188.473 149.085C189.099 146.202 190.651 143.809 192.196 142.779L192.212 142.305L192.652 141.985ZM209.552 128.375L198.512 134.905L197.902 150.635L208.822 143.765L209.552 128.375ZM206.142 133.675L206.462 133.975L204.056 139.433L206.042 142.175L205.722 142.855L203.742 140.145L201.362 145.545L201.032 145.245L203.456 139.754L201.402 136.945L201.762 136.265L203.771 139.04L206.142 133.675ZM199.422 139.945L200.672 141.465L199.342 144.325V143.065L198.782 143.405L198.812 141.775L199.372 141.445L199.422 139.945ZM201.582 137.965L201.322 143.995L200.872 144.295L201.122 138.285L201.582 137.965ZM203.692 141.115L204.762 142.525L202.462 143.925L203.692 141.115ZM191.442 141.555C191.492 141.555 191.462 142.245 191.292 142.585C191.232 142.705 191.122 142.835 191.032 142.845C190.942 142.855 190.902 142.755 190.952 142.495C191.002 142.235 191.392 141.555 191.442 141.555ZM202.082 138.785L203.142 140.095L201.902 142.545L202.082 138.785ZM194.482 140.305C194.522 140.315 194.492 141.005 194.332 141.335C194.272 141.455 194.162 141.585 194.072 141.595C193.982 141.605 193.942 141.505 193.992 141.245C194.042 140.985 194.432 140.305 194.482 140.305ZM198.922 118.466L187.223 125.026L186.613 141.395L198.222 134.555L198.922 118.466ZM206.632 134.895L206.352 140.915L205.952 141.175L206.222 135.165L206.632 134.895ZM193.382 139.855C193.432 139.855 193.402 140.545 193.232 140.885C193.172 141.005 193.062 141.135 192.972 141.145C192.882 141.155 192.842 141.055 192.892 140.795C192.942 140.535 193.332 139.855 193.382 139.855ZM205.602 136.645L205.442 140.485L204.402 139.245L205.602 136.645ZM208.082 134.815L208.022 136.295L208.602 135.975L208.532 137.615L207.972 137.945L207.952 139.295L206.742 137.845L208.082 134.815ZM195.252 137.875C195.302 137.875 195.272 138.565 195.102 138.905C195.042 139.025 194.932 139.155 194.842 139.165C194.752 139.175 194.712 139.075 194.762 138.815C194.812 138.555 195.202 137.875 195.252 137.875ZM205.032 135.555L203.792 138.395L202.722 136.945L205.032 135.555ZM196.202 121.946L196.052 126.066C195.992 127.465 194.872 130.005 193.202 131.065L193.022 134.955L195.252 134.475L189.823 137.615L192.082 135.465L192.202 131.645C190.752 132.475 189.593 130.935 189.663 129.375L189.793 125.596L190.772 125.066L191.092 126.885L190.562 127.315L191.732 130.705L191.282 127.615L191.682 127.155L191.372 124.726L196.202 121.946ZM210.402 112.086L199.202 118.346L198.502 134.435L209.602 127.795L210.402 112.086ZM207.482 125.956L207.342 127.865L200.782 131.745L200.872 129.815L207.482 125.956ZM202.842 117.706L204.292 120.766L203.202 121.376L202.872 128.245L201.832 128.845L202.032 121.976L200.982 122.606L202.842 117.706ZM206.482 115.686L207.892 118.696L206.732 119.346L206.492 126.166L205.382 126.785L205.732 119.916L204.642 120.536L206.482 115.686Z" fill="#322214"/>
<path d="M183.733 60.8386L144.144 97.6371C143.024 98.7071 142.284 100.307 142.314 101.137C142.294 101.177 142.194 101.207 142.154 101.137C142.204 100.497 141.794 100.057 141.494 99.987C141.644 100.007 141.784 100.057 141.824 99.867C141.844 99.7471 141.874 99.6071 141.924 99.4571C141.964 99.3271 142.024 99.1871 142.094 99.0371C142.334 98.4971 142.724 97.8771 143.204 97.3971L183.133 60.0586L183.733 60.8386Z" fill="#D7AA77"/>
<path d="M175.003 105.475C175.003 105.585 175.053 105.635 175.123 105.605L187.013 99.5054C187.033 99.4954 187.043 99.4754 187.053 99.4354L187.713 79.9462C187.733 78.8762 188.333 77.8162 189.153 77.0863L228.641 41.5977L216.622 46.7475L176.933 82.7061C175.913 83.706 175.563 84.886 175.543 85.8859L175.003 105.475Z" fill="url(#paint13_linear_1_8275)"/>
<path d="M183.733 60.84L255.99 29.8812L255.55 29.2812L183.143 60.0501L183.733 60.84Z" fill="#F8CE93"/>
</g>
<defs>
<linearGradient id="paint0_linear_1_8275" x1="3651.92" y1="2407.77" x2="3689.12" y2="2466.54" gradientUnits="userSpaceOnUse">
<stop/>
<stop offset="1" stop-opacity="0"/>
</linearGradient>
<linearGradient id="paint1_linear_1_8275" x1="4875.13" y1="1993.11" x2="4870.28" y2="2006.15" gradientUnits="userSpaceOnUse">
<stop/>
<stop offset="1" stop-opacity="0"/>
</linearGradient>
<linearGradient id="paint2_linear_1_8275" x1="4602.61" y1="1913.01" x2="5235.8" y2="2175.47" gradientUnits="userSpaceOnUse">
<stop stop-color="#C37A44"/>
<stop offset="0.4442" stop-color="#BB713D"/>
<stop offset="0.6406" stop-color="#A05728"/>
<stop offset="1" stop-color="#964E23"/>
</linearGradient>
<linearGradient id="paint3_linear_1_8275" x1="7081.75" y1="3947.02" x2="5708.32" y2="2019.28" gradientUnits="userSpaceOnUse">
<stop stop-color="#E9B880"/>
<stop offset="1" stop-color="#E4AF76"/>
</linearGradient>
<linearGradient id="paint4_linear_1_8275" x1="3132.85" y1="1233.59" x2="3106.88" y2="1162.03" gradientUnits="userSpaceOnUse">
<stop stop-color="#C37A45" stop-opacity="0"/>
<stop offset="0.1334" stop-color="#C37A45"/>
<stop offset="0.2945" stop-color="#D08D55"/>
<stop offset="0.5021" stop-color="#DEA167"/>
<stop offset="0.6966" stop-color="#E8AF73"/>
<stop offset="0.8631" stop-color="#ECB477"/>
<stop offset="1" stop-color="#ECB477" stop-opacity="0"/>
</linearGradient>
<linearGradient id="paint5_linear_1_8275" x1="3263.31" y1="1658.5" x2="2007.38" y2="4545.01" gradientUnits="userSpaceOnUse">
<stop offset="0.0881" stop-color="#AF6938"/>
<stop offset="0.4829" stop-color="#9A5227"/>
<stop offset="0.7792" stop-color="#8D4520"/>
</linearGradient>
<linearGradient id="paint6_linear_1_8275" x1="5116.09" y1="3098.13" x2="5841.78" y2="1793.38" gradientUnits="userSpaceOnUse">
<stop offset="0.0327" stop-color="#E4AF76"/>
<stop offset="1" stop-color="#E9B880"/>
</linearGradient>
<linearGradient id="paint7_linear_1_8275" x1="3607.77" y1="988.873" x2="3616.36" y2="950.745" gradientUnits="userSpaceOnUse">
<stop stop-color="#AF6A38" stop-opacity="0"/>
<stop offset="0.086" stop-color="#AF6A38"/>
<stop offset="0.1977" stop-color="#B87542"/>
<stop offset="0.5828" stop-color="#D59C66"/>
<stop offset="0.7771" stop-color="#E4AF76"/>
<stop offset="0.9239" stop-color="#E4AF76" stop-opacity="0"/>
</linearGradient>
<linearGradient id="paint8_linear_1_8275" x1="145.644" y1="2085.19" x2="435.593" y2="2085.19" gradientUnits="userSpaceOnUse">
<stop stop-color="#743F1A" stop-opacity="0"/>
<stop offset="0.4929" stop-color="#743F1A" stop-opacity="0.8872"/>
<stop offset="0.5" stop-color="#743F1A" stop-opacity="0.9"/>
<stop offset="0.5297" stop-color="#743F1A" stop-opacity="0.8466"/>
<stop offset="1" stop-color="#743F1A" stop-opacity="0"/>
</linearGradient>
<linearGradient id="paint9_linear_1_8275" x1="4885.44" y1="1992.53" x2="4887.76" y2="1986.32" gradientUnits="userSpaceOnUse">
<stop stop-color="#322214"/>
<stop offset="0.2397" stop-color="#322314" stop-opacity="0.9891"/>
<stop offset="1" stop-color="#322214" stop-opacity="0"/>
</linearGradient>
<linearGradient id="paint10_linear_1_8275" x1="7266.93" y1="2603.49" x2="7187.31" y2="2869.18" gradientUnits="userSpaceOnUse">
<stop offset="0.0476" stop-color="#C69866"/>
<stop offset="0.4156" stop-color="#BA8C5E"/>
<stop offset="0.8135" stop-color="#B5875B"/>
</linearGradient>
<linearGradient id="paint11_linear_1_8275" x1="3542.88" y1="2395.35" x2="1655.49" y2="299.201" gradientUnits="userSpaceOnUse">
<stop stop-color="#845F35"/>
<stop offset="0.4311" stop-color="#91673C"/>
<stop offset="0.4407" stop-color="#976A40"/>
<stop offset="0.8737" stop-color="#986B40"/>
<stop offset="1" stop-color="#AB8157"/>
</linearGradient>
<linearGradient id="paint12_linear_1_8275" x1="3700.52" y1="2423.91" x2="3705.04" y2="2431.04" gradientUnits="userSpaceOnUse">
<stop stop-color="#322214" stop-opacity="0"/>
<stop offset="1" stop-color="#322214"/>
</linearGradient>
<linearGradient id="paint13_linear_1_8275" x1="2623.91" y1="4050.45" x2="2987.97" y2="2209.44" gradientUnits="userSpaceOnUse">
<stop stop-color="#A9794B"/>
<stop offset="0.3857" stop-color="#AE7F53"/>
<stop offset="0.4557" stop-color="#AC7D50"/>
<stop offset="0.6236" stop-color="#A9794B"/>
<stop offset="1" stop-color="#B2875D"/>
</linearGradient>
<clipPath id="clip0_1_8275">
<rect width="256" height="193" fill="white"/>
</clipPath>
</defs>
</svg>
