<svg width="512" height="107" viewBox="0 0 512 107" fill="none" xmlns="http://www.w3.org/2000/svg">
<g clip-path="url(#clip0_1_8326)">
<path d="M418.942 27.4855C420.645 27.5112 422.23 26.6173 423.089 25.1463C423.948 23.6753 423.948 21.8556 423.089 20.3846C422.23 18.9136 420.645 18.0196 418.942 18.0453C416.363 18.0843 414.292 20.1861 414.292 22.7654C414.292 25.3448 416.363 27.4466 418.942 27.4855ZM491.233 23.4837C492.936 23.5092 494.521 22.6151 495.38 21.144C496.239 19.6729 496.239 17.8532 495.379 16.3823C494.52 14.9114 492.935 14.0176 491.232 14.0435C488.653 14.0828 486.583 16.1848 486.583 18.7641C486.583 21.3435 488.654 23.4451 491.233 23.4837Z" fill="#FF37AD"/>
<path d="M495.063 84.1293C496.767 84.1548 498.352 83.2607 499.211 81.7896C500.07 80.3186 500.069 78.4988 499.21 77.0279C498.351 75.557 496.766 74.6632 495.062 74.6891C492.483 74.7284 490.413 76.8304 490.414 79.4098C490.414 81.9891 492.484 84.0907 495.063 84.1293ZM438.22 9.44072C439.923 9.46644 441.508 8.57246 442.368 7.10149C443.227 5.63052 443.227 3.81075 442.368 2.33977C441.508 0.868799 439.923 -0.0251783 438.22 0.000540341C435.641 0.0394818 433.571 2.14129 433.571 4.72063C433.571 7.29997 435.641 9.40178 438.22 9.44072Z" fill="#FCC954"/>
<path d="M466.147 42.2209C465.012 42.2209 463.941 41.6988 463.242 40.8049C462.544 39.9111 462.296 38.7453 462.57 37.6444C462.717 37.0537 462.838 36.4608 462.928 35.869C461.822 36.3255 460.644 36.5823 459.448 36.6276C457.305 36.7094 455.385 36.3478 453.75 35.5558C452.146 34.7877 450.811 33.5549 449.918 32.0178C448.158 28.9683 448.31 24.9567 450.302 21.7975C452.201 18.7813 455.417 17.1489 458.905 17.4158C461.591 17.6256 463.945 18.6317 465.83 20.3577C466.174 19.3893 466.503 18.3519 466.816 17.2479C468.742 10.4494 469.378 3.62298 469.384 3.55412C469.471 2.58092 469.943 1.68257 470.693 1.05691C471.444 0.431252 472.412 0.129591 473.385 0.218362C475.412 0.403124 476.905 2.19493 476.721 4.22127C476.694 4.52686 476.016 11.8053 473.904 19.2601C472.838 23.0242 471.578 26.205 470.15 28.7444C470.255 29.3104 470.339 29.8915 470.401 30.4866C470.698 33.3607 470.462 36.4543 469.718 39.4318C469.306 41.0693 467.835 42.2182 466.147 42.2209ZM458.127 24.7544C457.746 24.7544 457.075 24.8664 456.534 25.7229C456.017 26.5439 455.916 27.6652 456.3 28.3312C456.811 29.2168 458.314 29.2943 459.165 29.262C460.132 29.2254 461.122 28.6196 462.09 27.5156C461.928 27.1779 461.738 26.855 461.52 26.5504C460.72 25.4399 459.708 24.8717 458.333 24.7641C458.281 24.7609 458.211 24.7544 458.127 24.7544Z" fill="#2890E9"/>
<path d="M455.552 52.3159C440.271 40.2706 424.299 35.0517 419.878 40.6601C419.462 41.1935 419.156 41.8044 418.978 42.4571C418.951 42.5356 418.93 42.6185 418.916 42.7003V42.71C418.857 42.9618 418.812 43.2157 418.783 43.474L410.132 94.1268C408.746 102.262 416.799 108.775 424.466 105.721L471.382 87.0271C472.209 86.6978 474.245 85.4399 474.803 84.7458C474.95 84.6016 475.088 84.4482 475.216 84.2864C479.636 78.6769 470.832 64.3644 455.552 52.3148V52.3159Z" fill="#F0A420"/>
<path d="M475.21 84.2866C479.634 78.675 470.833 64.3603 455.552 52.3139C440.271 40.2675 424.297 35.0508 419.873 40.6624C415.45 46.274 424.251 60.5887 439.532 72.6351C454.813 84.6815 470.787 89.8982 475.21 84.2866Z" fill="#FCC954"/>
<path d="M472.543 81.0198C476.172 76.4143 468.176 64.0569 454.682 53.4191C441.187 42.7802 427.304 37.8896 423.674 42.494C420.044 47.0995 428.04 59.4568 441.534 70.0947C455.029 80.7336 468.912 85.6253 472.543 81.0198Z" fill="#F0A420"/>
<path d="M440.287 99.4185C434.578 99.4465 429.924 96.5885 424.283 92.1423C417.719 86.9665 413.36 80.7706 413.016 77.2422L411.155 88.1329C412.016 91.2405 414.951 95.18 419.206 98.5351C422.746 101.326 426.318 103.243 430.021 103.509L440.287 99.4174V99.4185ZM434.575 79.6515C423.639 71.028 416.533 61.1327 416.734 55.4727L414.92 66.0857C415.06 71.141 420.968 79.3104 429.372 85.9356C436.902 91.8722 444.748 96.0505 450.757 95.2467L460.957 91.1814C452.739 91.7495 444.068 87.1376 434.575 79.6515Z" fill="#2E6AC9"/>
<path d="M457.216 57.8079C458.919 57.8336 460.504 56.9397 461.363 55.4687C462.222 53.9977 462.222 52.1779 461.363 50.707C460.504 49.236 458.919 48.342 457.216 48.3677C454.637 48.4067 452.566 50.5085 452.566 53.0878C452.566 55.6672 454.637 57.769 457.216 57.8079Z" fill="#2890E9"/>
<path d="M482.673 48.6245L482.707 48.5857C482.75 48.5394 482.83 48.4544 482.945 48.3382C483.177 48.1058 483.551 47.7486 484.061 47.3181C485.479 46.1307 487.03 45.1103 488.681 44.2772C492.718 42.2349 498.727 40.5681 506.61 42.3855C508.978 42.9317 511.34 41.4546 511.887 39.0864C512.433 36.7181 510.956 34.3556 508.587 33.8094C498.384 31.4572 490.272 33.6082 484.707 36.4264C482.447 37.5666 480.326 38.964 478.387 40.5907C477.805 41.0796 477.244 41.5937 476.707 42.1316C476.499 42.341 476.295 42.5556 476.097 42.7751L476.05 42.8289L476.033 42.8482L476.025 42.8568L476.022 42.8601C476.021 42.8622 476.019 42.8644 479.354 45.7331L476.019 42.8644C474.473 44.7062 474.692 47.4471 476.51 49.0206C478.327 50.5941 481.072 50.4177 482.673 48.6245Z" fill="#FF37AD"/>
<path d="M439.08 17.2343C438.417 16.1815 437.362 15.4358 436.149 15.1618C434.935 14.8879 433.663 15.1082 432.612 15.7741C431.56 16.4377 430.815 17.4921 430.541 18.705C430.268 19.918 430.487 21.1901 431.151 22.2412C431.321 22.5134 434.809 28.1637 435.526 35.9016C436.255 43.7632 433.945 50.99 428.65 57.4699C430.433 59.7361 432.578 62.0916 435.03 64.4471C438.421 60.5281 440.973 56.3164 442.649 51.8605C444.712 46.378 445.441 40.5652 444.819 34.5845C443.828 25.0701 439.689 18.2006 439.08 17.2343Z" fill="#FF37AD"/>
<path d="M497.749 62.4029C500.141 63.0216 501.832 63.6963 502.562 64.0105C504.314 65.0857 506.56 64.9051 508.118 63.5639C509.135 62.6851 509.73 61.415 509.755 60.0711C509.79 58.0158 508.491 56.1742 506.543 55.5172C504.304 54.523 495.82 51.1657 484.605 51.7618C477.057 52.1632 469.798 54.2539 463.032 57.9825C456.625 61.513 450.675 66.5155 445.275 72.8976C447.851 74.7314 450.535 76.409 453.313 77.9216C462.432 67.5281 472.954 61.8939 484.677 61.1493C489.073 60.8823 493.484 61.3053 497.749 62.4029Z" fill="#2890E9"/>
<path d="M1.86802 93.1098C1.31924 93.1098 0.8716 92.9398 0.52296 92.5997C0.17432 92.2597 0 91.8218 0 91.287V43.8805C0 43.3457 0.17432 42.9088 0.52296 42.5677C0.8716 42.2277 1.31924 42.0577 1.86802 42.0577H22.2656C26.3008 42.0577 29.7872 42.6657 32.7259 43.8805C35.7152 45.0965 38.0308 46.944 39.675 49.4243C41.3687 51.8551 42.2145 54.8939 42.2145 58.5406C42.2145 62.2358 41.3687 65.2982 39.675 67.7301C38.0308 70.1125 35.7152 71.8869 32.7259 73.0544C29.7872 74.2208 26.3008 74.804 22.2667 74.804H12.2541V91.287C12.2541 91.8218 12.0797 92.2597 11.7311 92.5997C11.3825 92.9398 10.9337 93.1098 10.386 93.1098H1.86802ZM12.0292 65.7609H21.8922C24.4317 65.7609 26.4009 65.1529 27.7944 63.937C29.2395 62.7211 29.9615 60.8982 29.9615 58.4674C29.9615 56.3283 29.3137 54.5775 28.0193 53.2163C26.7732 51.8551 24.7308 51.174 21.8922 51.174H12.0292V65.7609ZM59.6433 93.8393C57.0027 93.8393 54.6364 93.353 52.5446 92.3813C50.4527 91.359 48.7838 89.9989 47.5388 88.2966C46.2938 86.5954 45.6708 84.6983 45.6708 82.6075C45.6708 79.1556 47.0912 76.4332 49.9298 74.4403C52.819 72.4464 56.6045 71.0852 61.2864 70.3556L71.0742 68.9697V67.6569C71.0742 65.7609 70.6265 64.3018 69.7291 63.2806C68.8327 62.2594 67.2649 61.7494 65.0224 61.7494C63.3793 61.7494 62.059 62.0658 61.0626 62.6974C60.0868 63.3074 59.288 64.1626 58.7458 65.1777C58.3477 65.8093 57.7753 66.1246 57.0274 66.1246H49.9298C49.381 66.1246 48.9581 65.9793 48.66 65.6877C48.3691 65.3733 48.232 64.9463 48.2856 64.5213C48.2856 63.6938 48.6095 62.7221 49.2572 61.6031C49.905 60.485 50.9015 59.3918 52.2454 58.3211C53.5905 57.2031 55.309 56.2798 57.4019 55.5503C59.4937 54.8207 62.059 54.4559 65.0967 54.4559C68.2355 54.4559 70.9257 54.8218 73.1671 55.5503C75.4085 56.2798 77.2023 57.301 78.5473 58.6138C79.8754 59.9017 80.8963 61.4721 81.5344 63.2085C82.1822 64.9098 82.5061 66.7573 82.5061 68.7502V91.287C82.5061 91.8218 82.3318 92.2597 81.9831 92.5997C81.6345 92.9398 81.1869 93.1098 80.6381 93.1098H73.3166C72.8184 93.1098 72.3945 92.9398 72.0469 92.5997C71.6972 92.2597 71.5229 91.8218 71.5229 91.287V88.5882C70.8751 89.5126 70.0035 90.3874 68.9081 91.2138C67.8116 91.9918 66.4923 92.6234 64.9482 93.1098C63.4525 93.5962 61.6856 93.8393 59.6433 93.8393ZM62.6315 86.2543C64.2757 86.2543 65.7445 85.9142 67.04 85.2342C68.3345 84.553 69.3557 83.5071 70.1036 82.0975C70.8503 80.6879 71.2237 78.9124 71.2237 76.7732V75.5336L64.2757 76.6279C61.5855 77.0648 59.6185 77.7212 58.3725 78.5971C57.1275 79.4719 56.5044 80.5415 56.5044 81.8059C56.5044 82.7291 56.7788 83.5319 57.3265 84.213C57.9248 84.8931 58.6964 85.4042 59.6433 85.7442C60.5902 86.0843 61.5855 86.2543 62.6315 86.2543ZM93.3462 93.1098C92.848 93.1098 92.4251 92.9398 92.0765 92.5997C91.7268 92.2597 91.5525 91.8218 91.5525 91.287V57.0083C91.5525 56.523 91.7278 56.1087 92.0765 55.7687C92.424 55.3803 92.848 55.1855 93.3462 55.1855H100.669C101.167 55.1855 101.59 55.3792 101.938 55.7687C102.337 56.1087 102.537 56.5219 102.537 57.0083V59.9266C103.77 58.4283 105.328 57.2308 107.094 56.4251C108.937 55.5987 111.054 55.1855 113.445 55.1855H116.658C117.156 55.1855 117.579 55.3555 117.929 55.6955C118.277 56.0366 118.452 56.4735 118.452 57.0083V63.2817C118.452 63.8154 118.277 64.2534 117.929 64.5945C117.592 64.9296 117.133 65.1137 116.658 65.1045H110.083C107.891 65.1045 106.173 65.7125 104.928 66.9273C103.682 68.0949 103.06 69.7724 103.06 71.96V91.287C103.06 91.8218 102.885 92.2597 102.537 92.5997C102.188 92.9398 101.739 93.1098 101.192 93.1098H93.3462ZM142.702 93.1101C139.614 93.1101 136.974 92.6245 134.782 91.6517C132.591 90.6306 130.922 89.0746 129.776 86.9838C128.68 84.8931 128.132 82.2675 128.132 79.1071V63.7917H122.304C121.756 63.7917 121.308 63.6217 120.96 63.2806C120.611 62.9406 120.437 62.5026 120.437 61.9678V57.0083C120.437 56.4735 120.611 56.0366 120.96 55.6955C121.308 55.3555 121.756 55.1855 122.304 55.1855H128.132V43.152C128.132 42.6172 128.306 42.1793 128.656 41.8392C129.054 41.4981 129.501 41.3281 130 41.3281H137.322C137.87 41.3281 138.319 41.4981 138.667 41.8392C139.016 42.1793 139.19 42.6172 139.19 43.152V55.1855H148.53C149.029 55.1855 149.451 55.3555 149.8 55.6955C150.149 56.0366 150.323 56.4735 150.323 57.0083V61.9689C150.323 62.5026 150.149 62.9406 149.8 63.2817C149.464 63.617 149.005 63.8011 148.53 63.7917H139.19V78.2323C139.19 80.0799 139.514 81.5379 140.162 82.6086C140.859 83.6287 142.055 84.1398 143.748 84.1398H149.203C149.7 84.1398 150.124 84.3098 150.473 84.6499C150.821 84.991 150.996 85.4031 150.996 85.8906V91.287C150.996 91.8218 150.821 92.2597 150.473 92.5997C150.136 92.9349 149.678 93.1189 149.203 93.1101H142.702ZM164.612 106.967C164.214 106.967 163.84 106.822 163.492 106.53C163.195 106.245 163.032 105.848 163.043 105.436C163.043 105.339 163.068 105.193 163.118 104.998C163.168 104.853 163.242 104.658 163.342 104.415L169.17 90.7769L154.824 57.7379C154.675 57.3494 154.6 57.0331 154.6 56.791C154.639 56.3752 154.824 55.9868 155.123 55.6955C155.401 55.3654 155.812 55.1781 156.243 55.1853H163.492C164.14 55.1853 164.612 55.3555 164.911 55.6955C165.21 55.9882 165.434 56.3035 165.584 56.6446L174.848 79.2524L184.338 56.6446C184.529 56.2653 184.782 55.92 185.085 55.6224C185.384 55.3318 185.856 55.1853 186.504 55.1853H193.603C194.05 55.1853 194.424 55.3555 194.723 55.6955C195.072 55.9882 195.246 56.3283 195.246 56.7178C195.246 56.9599 195.147 57.301 194.947 57.7379L173.802 105.509C173.646 105.908 173.389 106.26 173.056 106.53C172.757 106.821 172.283 106.967 171.635 106.967H164.612ZM219.9 93.1101C216.812 93.1101 214.172 92.6245 211.98 91.6517C209.788 90.6306 208.12 89.0746 206.974 86.9838C205.878 84.8931 205.33 82.2675 205.33 79.1071V63.7917H199.502C198.954 63.7917 198.506 63.6217 198.158 63.2806C197.809 62.9406 197.634 62.5026 197.634 61.9678V57.0083C197.634 56.4735 197.809 56.0366 198.158 55.6955C198.506 55.3555 198.954 55.1855 199.502 55.1855H205.33V43.152C205.33 42.6172 205.504 42.1793 205.854 41.8392C206.252 41.4981 206.699 41.3281 207.198 41.3281H214.52C215.068 41.3281 215.517 41.4981 215.865 41.8392C216.214 42.1793 216.388 42.6172 216.388 43.152V55.1855H225.728C226.227 55.1855 226.649 55.3555 226.998 55.6955C227.347 56.0366 227.521 56.4735 227.521 57.0083V61.9689C227.521 62.5026 227.347 62.9406 226.998 63.2817C226.662 63.617 226.203 63.8011 225.728 63.7917H216.388V78.2323C216.388 80.0799 216.712 81.5379 217.36 82.6086C218.057 83.6287 219.253 84.1398 220.946 84.1398H226.401C226.898 84.1398 227.322 84.3098 227.671 84.6499C228.019 84.991 228.194 85.4031 228.194 85.8906V91.287C228.194 91.8218 228.019 92.2597 227.671 92.5997C227.334 92.9349 226.876 93.1189 226.401 93.1101H219.9ZM252.495 93.8393C248.361 93.8393 244.898 93.183 242.109 91.8702C239.32 90.509 237.177 88.5882 235.683 86.109C234.239 83.6287 233.441 80.7363 233.293 77.4296C233.242 76.4568 233.218 75.3636 233.218 74.1476C233.218 72.8833 233.242 71.79 233.293 70.8657C233.441 67.5116 234.288 64.6181 235.832 62.1873C237.377 59.7071 239.544 57.8111 242.333 56.4983C245.123 55.1371 248.509 54.4559 252.495 54.4559C256.43 54.4559 259.792 55.1371 262.582 56.4983C265.371 57.8111 267.538 59.7071 269.082 62.1873C270.626 64.6181 271.473 67.5116 271.622 70.8657C271.722 71.79 271.771 72.8833 271.771 74.1476C271.771 75.3636 271.722 76.4568 271.622 77.4296C271.473 80.7363 270.651 83.6287 269.157 86.109C267.713 88.5882 265.595 90.51 262.806 91.8702C260.017 93.183 256.58 93.8393 252.495 93.8393ZM252.495 85.8174C254.936 85.8174 256.779 85.0878 258.024 83.6287C259.269 82.1222 259.941 79.9336 260.041 77.0648C260.091 76.3363 260.116 75.3636 260.116 74.1487C260.122 73.1754 260.098 72.2022 260.041 71.2305C259.941 68.4112 259.269 66.2473 258.024 64.7397C256.779 63.2333 254.936 62.479 252.495 62.479C250.053 62.479 248.185 63.2322 246.891 64.7387C245.646 66.2473 244.973 68.4101 244.873 71.2305C244.817 72.2018 244.792 73.1747 244.799 74.1476C244.799 75.3636 244.824 76.3363 244.873 77.0648C244.973 79.9336 245.646 82.1222 246.891 83.6287C248.185 85.0878 250.053 85.8174 252.495 85.8174ZM289.176 93.1098C288.479 93.1098 287.93 92.9398 287.532 92.5997C287.184 92.2597 286.909 91.8218 286.71 91.287L276.026 57.5194C275.929 57.2885 275.878 57.0405 275.877 56.7899C275.877 56.3519 276.026 55.9882 276.325 55.6955C276.674 55.3555 277.072 55.1855 277.521 55.1855H284.095C284.743 55.1855 285.241 55.3555 285.59 55.6955C285.939 56.0366 286.162 56.3519 286.263 56.6446L293.061 79.1803L300.309 56.7899C300.408 56.4499 300.633 56.1087 300.982 55.7687C301.38 55.3803 301.928 55.1855 302.625 55.1855H306.884C307.581 55.1855 308.104 55.3792 308.453 55.7687C308.852 56.1087 309.101 56.4499 309.201 56.791L316.448 79.1803L323.247 56.6446C323.297 56.3519 323.496 56.0366 323.845 55.6955C324.243 55.3555 324.741 55.1855 325.339 55.1855H331.914C332.363 55.1855 332.736 55.3555 333.035 55.6955C333.384 55.9882 333.558 56.3519 333.558 56.7899C333.558 57.0331 333.533 57.2763 333.483 57.5194L322.724 91.287C322.59 91.7978 322.303 92.2556 321.902 92.5997C321.554 92.9398 321.031 93.1098 320.333 93.1098H314.58C313.883 93.1098 313.335 92.9398 312.936 92.5997C312.529 92.2468 312.22 91.7945 312.039 91.287L304.792 69.6992L297.395 91.287C297.261 91.7978 296.974 92.2556 296.573 92.5997C296.174 92.9398 295.626 93.1098 294.929 93.1098H289.176ZM342.233 93.1101C341.735 93.1101 341.311 92.9398 340.962 92.5997C340.614 92.2597 340.439 91.8218 340.439 91.287V57.0083C340.439 56.4735 340.614 56.0366 340.962 55.6955C341.299 55.3601 341.758 55.176 342.233 55.1855H349.555C350.104 55.1855 350.551 55.3555 350.9 55.6955C351.248 56.0366 351.423 56.4735 351.423 57.0083V59.8534C352.718 58.2974 354.387 57.0083 356.429 55.9882C358.471 54.966 360.962 54.4559 363.901 54.4559C366.839 54.4559 369.405 55.1123 371.596 56.4251C373.838 57.6895 375.581 59.5618 376.827 62.0421C378.122 64.4718 378.769 67.4385 378.769 70.9389V91.287C378.769 91.8218 378.57 92.2597 378.171 92.5997C377.835 92.9351 377.376 93.1192 376.901 93.1101H368.982C368.434 93.1101 367.985 92.9398 367.637 92.5997C367.288 92.2597 367.114 91.8218 367.114 91.287V71.3768C367.114 68.7997 366.466 66.8058 365.171 65.3961C363.925 63.937 362.083 63.2085 359.642 63.2085C357.301 63.2085 355.433 63.937 354.039 65.3961C352.643 66.8058 351.946 68.7997 351.946 71.3768V91.287C351.946 91.8218 351.771 92.2597 351.423 92.5997C351.086 92.9351 350.628 93.1192 350.153 93.1101H342.233Z" fill="#2E6AC9"/>
</g>
<defs>
<clipPath id="clip0_1_8326">
<rect width="512" height="107" fill="white"/>
</clipPath>
</defs>
</svg>
