<svg width="256" height="245" viewBox="0 0 256 245" fill="none" xmlns="http://www.w3.org/2000/svg">
<g clip-path="url(#clip0_1_8373)">
<path d="M53.9234 76.2553C63.9455 102.727 79.0877 126.911 98.4783 147.5C117.869 168.089 141.072 184.647 166.89 196.303L255.237 0L53.9234 76.2553Z" fill="#D18F00"/>
<path d="M77.2357 191.401C77.2357 191.292 77.2357 191.292 77.2357 191.401C65.2528 179.418 64.7081 178.873 52.834 166.999H52.7251C25.4911 157.522 0 186.934 0 244.126C57.954 244.779 86.6043 218.635 77.2357 191.401Z" fill="#E94F35"/>
<path d="M72.9872 187.152C72.9872 187.043 72.9872 187.043 72.9872 187.152C65.2527 179.308 64.817 178.981 57.0825 171.247C39.3259 165.146 22.7676 184.21 22.7676 221.466C60.4596 221.902 79.0876 204.799 72.9872 187.152Z" fill="#F39200"/>
<path d="M95.3191 222.119L22.9855 149.786L50.0017 138.238L106.866 195.103L95.3191 222.119Z" fill="#4B5B5C"/>
<path d="M106.866 195.103L50.0017 138.238L40.3064 142.378C48.5855 154.361 57.7362 165.69 67.7583 176.257C78.3251 187.477 89.6545 197.717 101.746 207.086L106.866 195.103Z" fill="#3A4949"/>
<path d="M98.4783 147.498C79.0877 126.909 63.9456 102.725 53.9234 76.2539L18.6281 89.6531C30.3932 120.7 48.1498 149.132 70.9175 173.425C93.6851 197.718 121.028 217.108 151.312 230.725L166.781 196.302C141.072 184.645 117.76 168.087 98.4783 147.498Z" fill="url(#paint0_linear_1_8373)"/>
<path d="M56.9736 75.057C66.8868 101.093 81.7021 124.95 100.766 145.212C119.83 165.474 142.706 181.814 168.089 193.253L255.237 0L56.9736 75.057Z" fill="url(#paint1_linear_1_8373)"/>
<path d="M160.681 35.8405C161.443 47.6056 171.248 56.9741 183.231 56.9741C195.758 56.9741 205.889 46.843 205.889 34.3154C205.889 29.0864 204.146 24.2932 201.096 20.4805L160.681 35.8405Z" fill="#AA2322"/>
<path d="M222.774 57.4102C214.604 57.4102 207.85 64.0553 207.85 72.3344C207.85 78.3259 211.445 83.5548 216.565 85.8425L228.766 58.7174C226.914 57.8459 224.844 57.4102 222.774 57.4102Z" fill="#AA2322"/>
<path d="M180.616 50.6542C182.361 50.6542 183.775 49.2398 183.775 47.4951C183.775 45.7503 182.361 44.3359 180.616 44.3359C178.871 44.3359 177.457 45.7503 177.457 47.4951C177.457 49.2398 178.871 50.6542 180.616 50.6542Z" fill="#441A0D"/>
<path d="M180.616 36.9277C182.361 36.9277 183.775 35.5133 183.775 33.7685C183.775 32.0238 182.361 30.6094 180.616 30.6094C178.871 30.6094 177.457 32.0238 177.457 33.7685C177.457 35.5133 178.871 36.9277 180.616 36.9277Z" fill="#441A0D"/>
<path d="M193.253 36.9277C194.998 36.9277 196.412 35.5133 196.412 33.7685C196.412 32.0238 194.998 30.6094 193.253 30.6094C191.508 30.6094 190.094 32.0238 190.094 33.7685C190.094 35.5133 191.508 36.9277 193.253 36.9277Z" fill="#D89687"/>
<path d="M194.015 48.1503C195.76 48.1503 197.174 46.7359 197.174 44.9912C197.174 43.2464 195.76 41.832 194.015 41.832C192.271 41.832 190.856 43.2464 190.856 44.9912C190.856 46.7359 192.271 48.1503 194.015 48.1503Z" fill="#D89687"/>
<path d="M169.505 42.1581C171.249 42.1581 172.664 40.7437 172.664 38.999C172.664 37.2542 171.249 35.8398 169.505 35.8398C167.76 35.8398 166.346 37.2542 166.346 38.999C166.346 40.7437 167.76 42.1581 169.505 42.1581Z" fill="#D89687"/>
<path d="M213.733 68.5224C214.876 68.5224 215.803 67.5957 215.803 66.4526C215.803 65.3095 214.876 64.3828 213.733 64.3828C212.59 64.3828 211.663 65.3095 211.663 66.4526C211.663 67.5957 212.59 68.5224 213.733 68.5224Z" fill="#441A0D"/>
<path d="M220.378 73.206C221.521 73.206 222.448 72.2793 222.448 71.1362C222.448 69.9931 221.521 69.0664 220.378 69.0664C219.235 69.0664 218.308 69.9931 218.308 71.1362C218.308 72.2793 219.235 73.206 220.378 73.206Z" fill="#441A0D"/>
<path d="M221.358 65.1435C222.501 65.1435 223.428 64.2168 223.428 63.0737C223.428 61.9306 222.501 61.0039 221.358 61.0039C220.215 61.0039 219.289 61.9306 219.289 63.0737C219.289 64.2168 220.215 65.1435 221.358 65.1435Z" fill="#D89687"/>
<path d="M213.733 77.4521C214.876 77.4521 215.803 76.5254 215.803 75.3823C215.803 74.2392 214.876 73.3125 213.733 73.3125C212.59 73.3125 211.663 74.2392 211.663 75.3823C211.663 76.5254 212.59 77.4521 213.733 77.4521Z" fill="#D89687"/>
<path d="M190.87 100.573C194.764 88.6806 188.327 75.8983 176.492 72.0226C164.657 68.147 151.906 74.6456 148.011 86.5377C144.117 98.4299 150.554 111.212 162.389 115.088C174.224 118.963 186.975 112.465 190.87 100.573Z" fill="#AA2322"/>
<path d="M159.334 99.9329C159.877 98.2748 158.973 96.4906 157.315 95.9476C155.657 95.4046 153.873 96.3086 153.33 97.9666C152.787 99.6246 153.691 101.409 155.349 101.952C157.007 102.495 158.791 101.591 159.334 99.9329Z" fill="#441A0D"/>
<path d="M185.72 96.1985C186.263 94.5405 185.359 92.7562 183.701 92.2132C182.043 91.6703 180.258 92.5742 179.715 94.2322C179.172 95.8903 180.076 97.6745 181.734 98.2175C183.392 98.7605 185.177 97.8565 185.72 96.1985Z" fill="#441A0D"/>
<path d="M168.385 78.8547C168.928 77.1967 168.024 75.4124 166.366 74.8695C164.708 74.3265 162.924 75.2305 162.381 76.8885C161.838 78.5465 162.742 80.3308 164.4 80.8738C166.058 81.4167 167.842 80.5128 168.385 78.8547Z" fill="#441A0D"/>
<path d="M172.689 91.968C173.232 90.31 172.328 88.5257 170.67 87.9828C169.012 87.4398 167.228 88.3437 166.685 90.0018C166.142 91.6598 167.046 93.4441 168.704 93.987C170.362 94.53 172.146 93.6261 172.689 91.968Z" fill="#441A0D"/>
<path d="M168.764 103.941C169.307 102.283 168.403 100.498 166.745 99.9554C165.087 99.4125 163.303 100.316 162.76 101.974C162.217 103.632 163.121 105.417 164.779 105.96C166.437 106.503 168.221 105.599 168.764 103.941Z" fill="#D89687"/>
<path d="M159.701 88.2297C160.244 86.5717 159.34 84.7874 157.682 84.2445C156.024 83.7015 154.24 84.6055 153.697 86.2635C153.154 87.9215 154.058 89.7058 155.716 90.2488C157.374 90.7917 159.158 89.8878 159.701 88.2297Z" fill="#D89687"/>
<path d="M179.133 108.245C179.676 106.587 178.772 104.803 177.114 104.26C175.456 103.717 173.672 104.621 173.129 106.279C172.586 107.937 173.49 109.721 175.148 110.264C176.806 110.807 178.59 109.903 179.133 108.245Z" fill="#D89687"/>
<path d="M181.14 83.0774C181.683 81.4194 180.779 79.6351 179.121 79.0921C177.463 78.5492 175.679 79.4531 175.136 81.1111C174.593 82.7692 175.497 84.5534 177.155 85.0964C178.813 85.6394 180.597 84.7354 181.14 83.0774Z" fill="#D89687"/>
<path d="M126.574 96.0977C132.039 84.8401 127.343 71.2838 116.085 65.8189C104.828 60.354 91.2712 65.05 85.8063 76.3076C80.3414 87.5653 85.0374 101.122 96.295 106.586C107.553 112.051 121.109 107.355 126.574 96.0977Z" fill="#AA2322"/>
<path d="M122.177 81.8625C122.939 80.293 122.284 78.4029 120.714 77.641C119.145 76.879 117.255 77.5338 116.493 79.1033C115.731 80.6729 116.386 82.563 117.955 83.3249C119.525 84.0868 121.415 83.4321 122.177 81.8625Z" fill="#441A0D"/>
<path d="M100.881 98.386C101.643 96.8164 100.988 94.9263 99.4186 94.1644C97.849 93.4025 95.9589 94.0572 95.197 95.6268C94.435 97.1964 95.0898 99.0864 96.6594 99.8483C98.2289 100.61 100.119 99.9556 100.881 98.386Z" fill="#441A0D"/>
<path d="M100.587 73.7493C101.349 72.1797 100.694 70.2896 99.1242 69.5277C97.5547 68.7658 95.6646 69.4205 94.9027 70.9901C94.1407 72.5596 94.7955 74.4497 96.365 75.2116C97.9346 75.9736 99.8247 75.3188 100.587 73.7493Z" fill="#441A0D"/>
<path d="M106.98 85.8508C107.742 84.2813 107.087 82.3912 105.518 81.6292C103.948 80.8673 102.058 81.522 101.296 83.0916C100.534 84.6612 101.189 86.5513 102.759 87.3132C104.328 88.0751 106.218 87.4204 106.98 85.8508Z" fill="#441A0D"/>
<path d="M118.348 91.4485C119.11 89.8789 118.455 87.9888 116.886 87.2269C115.316 86.465 113.426 87.1197 112.664 88.6893C111.902 90.2589 112.557 92.1489 114.127 92.9109C115.696 93.6728 117.586 93.0181 118.348 91.4485Z" fill="#D89687"/>
<path d="M113.284 74.0422C114.046 72.4726 113.392 70.5826 111.822 69.8207C110.253 69.0587 108.362 69.7134 107.601 71.283C106.839 72.8526 107.493 74.7427 109.063 75.5046C110.632 76.2665 112.523 75.6118 113.284 74.0422Z" fill="#D89687"/>
<path d="M114.016 101.839C114.778 100.27 114.124 98.3795 112.554 97.6175C110.984 96.8556 109.094 97.5103 108.332 99.0799C107.57 100.649 108.225 102.54 109.795 103.301C111.364 104.063 113.254 103.409 114.016 101.839Z" fill="#D89687"/>
<path d="M94.6789 85.8274C95.4408 84.2578 94.7861 82.3678 93.2165 81.6058C91.647 80.8439 89.7569 81.4986 88.995 83.0682C88.233 84.6378 88.8878 86.5278 90.4573 87.2898C92.0269 88.0517 93.917 87.397 94.6789 85.8274Z" fill="#D89687"/>
<path d="M125.036 151.039C133.367 149.791 139.108 142.026 137.86 133.696C136.611 125.365 128.846 119.624 120.516 120.873C112.186 122.121 106.445 129.886 107.693 138.216C108.941 146.546 116.706 152.287 125.036 151.039Z" fill="#AA2322"/>
<path d="M128.109 129.944C129.299 129.765 130.119 128.656 129.941 127.466C129.762 126.276 128.653 125.456 127.463 125.634C126.273 125.812 125.453 126.922 125.631 128.112C125.809 129.302 126.919 130.122 128.109 129.944Z" fill="#441A0D"/>
<path d="M122.663 147.155C123.853 146.976 124.673 145.867 124.495 144.677C124.316 143.487 123.207 142.667 122.017 142.845C120.827 143.023 120.007 144.133 120.185 145.323C120.364 146.513 121.473 147.333 122.663 147.155Z" fill="#441A0D"/>
<path d="M113.077 133.647C114.267 133.468 115.087 132.359 114.909 131.169C114.73 129.979 113.621 129.159 112.431 129.337C111.241 129.516 110.421 130.625 110.599 131.815C110.778 133.005 111.887 133.825 113.077 133.647Z" fill="#441A0D"/>
<path d="M121.246 138.002C122.436 137.824 123.256 136.715 123.078 135.525C122.899 134.335 121.79 133.514 120.6 133.693C119.41 133.871 118.59 134.98 118.768 136.17C118.947 137.36 120.056 138.181 121.246 138.002Z" fill="#441A0D"/>
<path d="M129.633 136.694C130.823 136.515 131.643 135.406 131.465 134.216C131.287 133.026 130.178 132.206 128.988 132.384C127.797 132.562 126.977 133.672 127.156 134.862C127.334 136.052 128.443 136.872 129.633 136.694Z" fill="#D89687"/>
<path d="M120.266 128.963C121.456 128.785 122.276 127.676 122.097 126.486C121.919 125.296 120.81 124.475 119.62 124.654C118.43 124.832 117.61 125.941 117.788 127.131C117.966 128.321 119.076 129.142 120.266 128.963Z" fill="#D89687"/>
<path d="M131.379 144.104C132.569 143.925 133.389 142.816 133.21 141.626C133.032 140.436 131.923 139.616 130.733 139.794C129.543 139.973 128.723 141.082 128.901 142.272C129.079 143.462 130.188 144.282 131.379 144.104Z" fill="#D89687"/>
<path d="M114.383 142.576C115.573 142.398 116.393 141.289 116.215 140.099C116.036 138.909 114.927 138.089 113.737 138.267C112.547 138.445 111.727 139.555 111.905 140.745C112.084 141.935 113.193 142.755 114.383 142.576Z" fill="#D89687"/>
<path d="M189.331 136.823C178.764 130.069 164.82 133.228 158.175 143.795C151.421 154.362 154.58 168.305 165.147 174.951C168.197 176.911 171.574 178.001 175.06 178.328L192.708 139.22C191.51 138.348 190.42 137.477 189.331 136.823Z" fill="#AA2322"/>
<path d="M165.639 159.588C166.576 158.116 166.143 156.164 164.671 155.227C163.2 154.29 161.247 154.723 160.31 156.195C159.373 157.666 159.806 159.619 161.278 160.556C162.75 161.493 164.702 161.06 165.639 159.588Z" fill="#441A0D"/>
<path d="M179.652 141.244C180.589 139.773 180.155 137.82 178.684 136.883C177.212 135.946 175.259 136.379 174.322 137.851C173.385 139.323 173.818 141.275 175.29 142.212C176.762 143.15 178.715 142.716 179.652 141.244Z" fill="#441A0D"/>
<path d="M180.73 154.987C181.667 153.515 181.234 151.562 179.762 150.625C178.291 149.688 176.338 150.121 175.401 151.593C174.464 153.065 174.897 155.017 176.369 155.955C177.84 156.892 179.793 156.458 180.73 154.987Z" fill="#441A0D"/>
<path d="M173.859 165.643C174.796 164.171 174.363 162.218 172.891 161.281C171.42 160.344 169.467 160.778 168.53 162.249C167.593 163.721 168.026 165.674 169.498 166.611C170.969 167.548 172.922 167.115 173.859 165.643Z" fill="#D89687"/>
<path d="M169.035 148.28C169.972 146.808 169.539 144.855 168.067 143.918C166.595 142.981 164.643 143.414 163.706 144.886C162.768 146.358 163.202 148.31 164.673 149.248C166.145 150.185 168.098 149.751 169.035 148.28Z" fill="#D89687"/>
<path d="M177.566 168.959C176.912 170.049 176.912 171.356 177.566 172.336L179.745 167.543C178.873 167.652 178.111 168.197 177.566 168.959Z" fill="#D89687"/>
<path d="M190.094 144.121C188.569 143.141 186.608 143.576 185.736 145.102C184.756 146.627 185.192 148.588 186.717 149.459C187.043 149.677 187.37 149.786 187.697 149.895L190.094 144.121C190.203 144.23 190.203 144.121 190.094 144.121Z" fill="#D89687"/>
<path d="M192.381 26.6908C194.124 26.6908 195.54 25.2746 195.54 23.5316C195.54 23.2048 195.54 22.987 195.432 22.6602L189.549 24.9478C190.094 25.9282 191.183 26.6908 192.381 26.6908Z" fill="#441A0D"/>
</g>
<defs>
<linearGradient id="paint0_linear_1_8373" x1="5283.67" y1="9838.96" x2="8109.15" y2="7239.9" gradientUnits="userSpaceOnUse">
<stop offset="0.1981" stop-color="#914F00"/>
<stop offset="0.3348" stop-color="#9F5600"/>
<stop offset="0.6093" stop-color="#B76200"/>
<stop offset="0.8408" stop-color="#C66900"/>
<stop offset="1" stop-color="#CB6C00"/>
</linearGradient>
<linearGradient id="paint1_linear_1_8373" x1="4464.64" y1="14563.6" x2="19062.5" y2="-801.194" gradientUnits="userSpaceOnUse">
<stop stop-color="#FBBA00"/>
<stop offset="0.0647122" stop-color="#FDC000"/>
<stop offset="0.3061" stop-color="#FFD500"/>
<stop offset="0.5452" stop-color="#FFE300"/>
<stop offset="0.7787" stop-color="#FFEB00"/>
<stop offset="1" stop-color="#FFED00"/>
</linearGradient>
<clipPath id="clip0_1_8373">
<rect width="256" height="245" fill="white"/>
</clipPath>
</defs>
</svg>
