<svg width="256" height="250" viewBox="0 0 256 250" fill="none" xmlns="http://www.w3.org/2000/svg">
<g clip-path="url(#clip0_1_8430)">
<path d="M128 0.578125C57.308 0.578125 0 56.4131 0 125.289C0 168.375 22.427 206.355 56.526 228.759V125.354C56.525 125.196 56.503 125.044 56.503 124.887C56.503 124.729 56.525 124.577 56.526 124.419V123.542H56.569C57.27 83.3961 88.904 51.0611 127.892 51.0611C167.319 51.0611 199.28 84.1141 199.28 124.887C199.28 165.659 167.319 198.712 127.892 198.712C112.536 198.712 98.349 193.65 86.705 185.12V243.327C99.665 247.631 113.545 250 128 250C198.692 250 256 194.165 256 125.289C256 56.4131 198.692 0.578125 128 0.578125Z" fill="url(#paint0_linear_1_8430)"/>
<path d="M171.197 127.471C171.197 151.061 152.074 170.184 128.484 170.184C104.894 170.184 85.7696 151.061 85.7696 127.471C85.7696 103.881 104.894 84.7578 128.484 84.7578C152.074 84.7578 171.197 103.881 171.197 127.471Z" fill="#FCB42F"/>
</g>
<defs>
<linearGradient id="paint0_linear_1_8430" x1="12800" y1="0.578125" x2="12800" y2="24942.8" gradientUnits="userSpaceOnUse">
<stop stop-color="#FBB32F"/>
<stop offset="0.504739" stop-color="#C11511"/>
<stop offset="1" stop-color="#C11411"/>
</linearGradient>
<clipPath id="clip0_1_8430">
<rect width="256" height="250" fill="white"/>
</clipPath>
</defs>
</svg>
