<svg width="256" height="256" viewBox="0 0 256 256" fill="none" xmlns="http://www.w3.org/2000/svg">
<g clip-path="url(#clip0_1_8443)">
<path d="M128 0C198.5 0 256 57.5001 256 128C256 198.5 198.5 256 128 256C57.5001 256 0 198.5 0 128C0 57.5001 57.5001 0 128 0ZM128 8.68742C62.2848 8.68742 8.68742 62.2848 8.68742 128C8.68742 193.715 62.2848 247.313 128 247.313C193.715 247.313 247.313 193.715 247.313 128C247.313 62.2848 193.715 8.68742 128 8.68742ZM128 38.6389C177.218 38.6389 217.361 78.7816 217.361 128C217.361 177.218 177.218 217.361 128 217.361C78.7816 217.361 38.6389 177.218 38.6389 128C38.6389 78.7816 78.7816 38.6389 128 38.6389ZM137.886 206.947H94.6252C104.891 211.311 116.173 213.728 128 213.728C139.827 213.728 151.108 211.312 161.374 206.947H149.51C149.563 207.727 149.615 208.487 149.665 209.221L140.626 211.119L137.886 206.947ZM133.264 189.7H68.5854C75.361 196.226 83.2019 201.652 91.8167 205.686H137.058L132.062 198.08C132.789 195.222 133.19 192.428 133.264 189.7ZM125.029 64.2115L120.697 64.6016L113.828 68.9186L114.774 71.8645L118.094 70.791L119.147 68.218C122.759 70.2827 123.984 72.8017 122.823 75.7759C121.088 78.6681 117.272 77.9133 113.255 78.2946L112.826 74.8755C114.316 73.1606 117.442 77.3778 117.03 75.2825C115.501 73.3698 114.149 72.21 111.1 73.338L108.925 71.7994L98.4235 72.0116L90.8983 73.1635L88.0513 76.688L89.7848 79.3109L94.297 79.2234L90.8571 80.9333L91.6482 84.7849L101.627 84.051C107.86 85.4735 110.859 87.1956 110.865 87.3036L123.52 85.4075L114.296 89.8223C117.916 90.1024 117.593 89.6335 121.213 88.7456L114.421 93.0185C116.691 93.7559 119.838 91.7916 122.11 91.36C122.221 92.2374 114.712 95.9102 114.509 96.8625C113.414 102.006 108.242 108.743 104.627 122.494C102.804 130.275 103.484 135.4 105.02 141.688C105.175 142.322 105.339 143.314 105.51 144.344L105.561 144.65C105.765 145.877 105.98 147.114 106.201 147.826C107.928 153.231 117.676 159.424 122.792 160.321L125.89 160.737L129.675 162.537L130.822 159.596H134.399L135.552 157.808L137.878 161.338L140.819 163.381L141.782 160.112L148.407 161.767L149.815 161.001L152.492 152.825L148.292 146.7L150.847 146.83L153.407 151.175L154.555 149.385L155.45 144.655C156.088 144.781 156.729 144.911 157.365 145.037C158.05 147.851 158.73 150.663 159.414 153.474L159.028 159.867L160.947 160.888L162.48 163.571L164.269 161.525L164.013 165.614L165.678 164.976L165.163 167.407L167.847 168.555L169.51 172.518L168.103 177.759L170.402 179.418L168.744 192.839L164.269 204.43L159.826 203.027L157.467 189.7H148.704C148.76 195.272 149.097 200.839 149.424 205.686H164.181C167.085 204.326 169.903 202.811 172.62 201.146L172.707 198.974V194.502L173.088 190.284L173.473 185.936L174.241 181.081L174.365 176.481L173.985 173.159L175.643 170.473L177.051 168.044L176.665 165.234L176.029 162.292L176.921 159.1L179.482 159.611L182.673 161.27L184.336 162.292L188.044 161.525L190.469 160.758L192.002 159.611C192.002 159.611 192.017 159.606 192.044 159.597L192.164 159.557C192.501 159.445 193.317 159.177 194.162 158.915L194.553 158.795C195.201 158.597 195.826 158.417 196.222 158.329C197.373 158.074 198.009 158.714 198.009 158.714L200.951 161.655L200.183 163.189L197.629 164.336V166.255L194.817 168.3C194.817 168.3 192.643 169.707 191.235 170.089C189.933 170.446 187.744 171.903 187.438 172.109L187.402 172.133L186.124 173.415C186.124 173.415 186.06 173.536 185.952 173.718H200.459C203.872 168.333 206.701 162.543 208.858 156.442C207.814 155.855 206.506 155.067 205.936 154.496C204.914 153.474 207.98 151.81 207.98 151.81C207.98 151.81 207.41 150.801 206.861 149.76L206.669 149.393C206.353 148.784 206.069 148.204 205.936 147.851C205.554 146.83 207.214 144.015 207.214 144.015L204.147 140.567C204.147 140.567 203.973 140.645 203.71 140.749C203.337 143.282 202.67 147.861 202.67 147.861C202.67 147.861 202.8 152.335 202.414 153.227C202.064 154.049 200.853 155.619 200.653 155.875L200.625 155.911H197.815L198.456 152.335C198.456 152.335 199.604 148.497 199.604 147.731C199.604 146.963 199.989 139.554 199.989 139.554L200.028 138.978C199.741 138.532 199.452 138.123 199.162 137.881L198.265 142.737L195.964 145.037L196.607 123.947L196.732 119.093L198.52 114.875L200.313 114.364L201.718 112.063C201.718 112.063 202.228 109.252 202.996 108.101C203.761 106.953 205.039 106.056 205.805 106.056C206.577 106.056 207.599 103.626 208.235 103.244C208.878 102.859 208.878 100.815 208.878 100.048C208.878 99.9018 208.872 99.7419 208.863 99.5733C208.518 98.5955 208.161 97.6235 207.781 96.6621L207.343 97.3627L205.805 95.1932L205.17 97.6174L203.636 96.7266L202.739 99.5374L200.951 97.494L198.52 94.5513L196.222 91.6107L192.773 88.5449L190.213 85.9894L188.299 86.1143L185.488 88.289L182.291 89.0567L179.862 90.9746L174.365 94.041L174.495 94.6814L177.177 100.815L179.992 104.522L181.014 105.93L179.992 107.078L177.177 105.034L176.154 105.289L178.454 106.953L178.329 109.252L177.432 110.4H175.388L173.473 109.634L174.751 111.551L177.562 111.679C177.562 111.679 183.569 111.551 184.206 111.422C184.709 111.323 187.026 111.302 187.995 111.298L188.224 111.297C188.256 111.297 188.284 111.297 188.309 111.297L188.424 111.297L185.614 113.086L184.461 115.515L185.358 118.196L184.206 118.071L175.898 116.026L173.473 113.342L171.429 111.422L170.532 109.378L169.766 108.867L164.087 104.523L154.627 113.852C153.631 118.469 157.309 122.228 158.855 123.874C158.379 123.844 157.898 123.81 157.422 123.775C156.309 123.241 155.196 122.705 154.087 122.172C152.254 122.038 151.462 123.147 151.713 125.512C153.299 127.803 154.888 130.093 156.473 132.385C155.962 132.809 155.45 133.239 154.94 133.663C152.934 132 150.933 130.341 148.933 128.678C151.072 134.624 149.561 133.26 147.525 130.852C149.145 134.005 150.766 137.158 152.384 140.311C151.869 140.822 151.357 141.334 150.847 141.844C147.498 142.819 144.926 141.455 144.074 134.94L144.074 134.943L144.043 135.14C144.003 135.396 143.975 135.613 143.955 135.796L143.945 135.886L143.931 135.868L143.9 135.836C143.286 136.773 143.355 135.042 142.702 135.455C138.261 138.265 138.102 137.657 138.866 136.589L138.909 136.53L138.713 136.66C134.308 139.517 126.066 139.858 127.097 139.167L127.153 139.134C127.902 138.726 128.697 138.332 129.498 137.954L130.032 137.704C133.5 136.094 136.88 134.775 136.729 133.806C136.72 133.749 136.712 133.707 136.703 133.671L136.687 133.621C136.618 133.44 136.433 133.331 135.515 131.689C134.802 133.511 130.635 133.3 124.897 132.165C125.989 131.83 127.35 131.685 128.668 131.562L129.062 131.525C132.198 131.235 134.908 130.974 132.878 128.416L132.435 127.696C132.27 128.945 128.212 128.638 123.597 128.107C123.923 128.033 124.259 127.962 124.601 127.894L125.013 127.814L125.636 127.698L126.052 127.622C129.445 127.004 132.637 126.449 130.643 124.599L123.971 124.758L130.096 123.31L132.101 121.212L127.8 120.827L130.742 119.04L131.383 116.484L129.464 113.412L132.915 112.52L136.508 108.39L136.835 101.807C134.165 103.751 127.802 104.798 124.072 103.769C128.627 102.551 134.583 100.037 136.908 99.3862L136.875 97.7995L125.014 102.016C133.659 94.3188 126.781 101.056 124.233 97.5634C131.774 89.7995 137.876 92.5406 136.499 89.4722C138.35 83.2442 128.597 84.6518 129.734 84.0353L137.017 80.0839C131.154 76.923 132.045 74.7116 133.533 73.0729L133.692 72.9025C133.719 72.8744 133.745 72.8465 133.772 72.8188L133.935 72.6546C134.965 71.6272 136.022 70.8395 135.28 70.18L130.545 65.7069L125.029 64.2115ZM187.414 189.7H176.478L175.644 192.198L174.688 199.834C179.247 196.858 183.508 193.463 187.414 189.7ZM130.212 174.983H56.3592C59.5516 179.829 63.2171 184.339 67.2974 188.436H133.275C133.228 183.757 132.207 179.273 130.212 174.983ZM199.641 174.983H185.039C184.837 175.188 184.635 175.329 184.461 175.329C183.825 175.329 182.673 175.074 182.673 175.074L179.992 176.481L178.329 178.395L178.454 182.234L177.307 187.219L176.9 188.436H188.702C192.782 184.338 196.449 179.829 199.641 174.983ZM122.216 166.926H51.6529C52.8466 169.254 54.1462 171.519 55.5404 173.718H129.484C128.034 171.594 125.611 169.33 122.216 166.926ZM108.406 159.794H48.4041C49.206 161.789 50.0808 163.747 51.025 165.666H120.365C117.721 163.929 112.429 162.124 108.81 160.247C108.674 160.099 108.54 159.948 108.406 159.794ZM105.39 155.418H46.7809C47.1366 156.466 47.5168 157.503 47.9116 158.533H107.389C106.678 157.584 106.012 156.547 105.39 155.418ZM104.042 152.668H45.9059C46.0564 153.167 46.2105 153.663 46.3698 154.158H104.733C104.495 153.676 104.265 153.18 104.042 152.668ZM128 42.2716C80.7818 42.2716 42.2717 80.7818 42.2717 128C42.2717 135.681 43.2955 143.13 45.2076 150.221H52.7565C53.1521 148.874 56.0391 145.863 64.9593 145.232C65.8513 144.067 66.3535 142.49 66.4667 140.511C66.5831 138.367 66.4445 136.208 66.0585 134.028C65.6643 131.84 65.1411 129.856 64.4864 128.087C63.8374 126.317 63.2655 125.196 62.784 124.715C62.0566 124.026 61.3347 123.853 60.6061 124.195C59.8831 124.541 59.2202 125.039 58.6313 125.684C58.0337 126.326 57.5622 126.936 57.1975 127.504C56.8336 128.068 56.6521 128.232 56.6521 127.975C56.7341 127.136 56.9331 126.017 57.2462 124.649C57.5622 123.273 58.6742 122.436 60.6061 122.137C60.1428 121.505 59.3555 121.077 58.2421 120.86C57.1236 120.653 56.5007 120.543 56.3568 120.543C56.0026 121.288 55.7035 122.085 55.4389 122.934C55.1836 123.778 55.0587 124.667 55.0587 125.593C54.5037 124.814 54.2519 123.952 54.2953 123C54.3442 122.056 54.3692 121.207 54.3692 120.461C53.4643 120.461 52.4291 121.124 51.2684 122.428C50.1085 123.744 49.363 124.767 49.0291 125.512C48.8649 123.437 49.103 122.154 49.7169 121.674C50.3326 121.185 50.7956 120.653 51.0947 120.063C50.6063 119.534 50.454 118.786 50.6611 117.823C50.8616 116.854 51.2123 116.156 51.7145 115.71C52.5931 115.121 53.474 114.966 54.3441 115.247C55.2057 115.52 55.9118 115.809 56.466 116.109C56.7432 115.576 57.2144 115.095 57.8601 114.658C58.5053 114.225 59.3459 114.176 60.3981 114.514C60.3981 112.491 60.8048 111.223 61.6327 110.686C62.4555 110.161 63.0761 109.789 63.4735 109.572C60.4985 107.71 58.5832 107.533 57.7221 109.035C56.8642 110.553 55.9457 111.738 54.9749 112.626C56.6087 107.948 58.7224 105.554 61.3155 105.445C63.9072 105.328 66.3757 106.307 68.7147 108.372C68.7759 108.165 68.8135 107.533 68.8057 106.489C68.7961 105.445 69.0476 104.475 69.5763 103.57C70.0913 102.66 71.0352 102.062 72.3877 101.772C73.7474 101.482 75.8229 101.971 78.615 103.254C78.1867 103.405 77.6708 103.34 77.065 103.033C76.4584 102.734 75.8036 102.643 75.1165 102.765C74.4185 102.873 73.7083 103.396 72.9753 104.341C72.2397 105.272 71.543 107.06 70.8882 109.681L70.888 109.68L70.9746 109.481C71.4692 108.401 72.5009 107.118 74.0777 105.627L74.3797 105.345C76.23 103.651 77.8707 103.543 79.3127 105.029C79.8414 105.618 80.1665 106.442 80.2919 107.512C80.4165 108.581 80.3827 109.334 80.184 109.763C79.7378 107.203 78.5409 106.151 76.5754 106.597C74.6088 107.043 73.2105 108.792 72.3789 111.855C73.5096 111.855 74.8691 111.314 76.4584 110.222C78.0355 109.136 80.2403 109.681 83.0589 111.855C81.9245 111.803 81.1874 111.855 80.846 112.02C80.5075 112.176 80.2263 112.254 80.0022 112.254C81.5256 112.254 82.656 113.199 83.4097 115.095C84.164 116.988 84.5453 118.485 84.5453 119.565C83.159 116.356 81.1705 114.541 78.58 114.133C75.9866 113.714 74.3447 114.168 73.6552 115.493C75.3324 116.044 76.1208 116.897 76.0298 118.049C75.9308 119.201 75.2413 120.66 73.9724 122.428C73.6996 120.908 73.4915 119.79 73.3275 119.062C73.1764 118.348 72.1583 117.784 70.2993 117.378C71.0796 121.207 71.6071 125.411 71.8841 129.99C72.1583 134.56 71.9231 138.877 71.1791 142.91C70.9888 143.438 70.8882 144.071 70.8882 144.798C71.0227 144.933 71.1654 145.062 71.3133 145.18C71.5208 145.193 71.7291 145.202 71.9404 145.215C80.0095 145.675 84.0633 148.834 85.4706 150.221H103.069C102.079 147.485 101.446 146.193 100.813 142.747C99.7746 133.68 97.3499 122.88 103.908 111.759C108.783 103.491 111.446 97.4917 109.786 95.136C109.742 92.1548 106.818 87.5633 102.88 86.5286C100.179 86.5934 98.4102 86.6581 96.7078 86.7228L95.9237 86.7527C94.2213 86.8174 92.4523 86.8821 89.7511 86.9467L87.2826 81.8795L87.7165 80.7766L86.0504 80.6409L84.4161 77.8555L89.8973 70.9316L93.3202 70.0685L98.1068 69.5778L101.826 69.3344L109.364 68.3528L113.932 65.5009L114.934 61.9869L120.83 60.612L125.236 59.5365L130.781 60.8121L137.429 66.3083C143.753 75.8713 145.478 74.8331 143.085 85.7198C143.217 89.0831 142.707 93.9726 142.084 98.9908L141.933 100.197C140.07 114.884 137.597 129.714 147.655 109.888L151.358 105.159L156.473 100.689L158.774 99.2821L162.607 97.8748L166.699 95.4489L168.359 91.6107L171.555 87.5224L175.388 84.4563L180.759 80.6225L185.228 78.5747L189.703 77.9369L195.454 78.449L198.19 78.8826C182.659 56.7718 156.97 42.2716 128 42.2716ZM68.5241 117.594C66.8265 117.95 65.566 118.573 64.7519 119.483C63.9322 120.379 63.8721 121.804 64.5701 123.736C65.6471 126.542 66.4921 129.731 67.0987 133.264C67.7188 136.807 68.0167 140.19 68.0167 143.412H69.2124C69.993 139.966 70.4391 135.967 70.5302 131.433C70.6285 126.897 69.9568 122.284 68.5241 117.594ZM140.045 135.241L139.931 135.356C139.757 135.532 139.573 135.729 139.397 135.929L139.281 136.063L139.169 136.197C139.077 136.309 138.99 136.419 138.912 136.525L138.909 136.53L138.917 136.524C139.653 136.02 140.27 135.44 140.701 134.778C140.898 134.474 140.531 134.759 140.045 135.241ZM63.1838 114.111C63.3825 114.111 63.7464 113.943 64.2879 113.579C64.8251 113.224 65.5482 113.246 66.4583 113.631C66.3453 112.362 65.7869 111.622 64.7688 111.405C63.7464 111.193 63.2177 112.093 63.1838 114.111ZM55.3747 117.676C55.0587 117.342 54.5682 117.161 53.8979 117.135C53.2335 117.104 52.7358 117.187 52.4025 117.378C52.2377 117.651 52.0906 118.023 51.9482 118.512C51.8012 119.002 51.7842 119.383 51.8922 119.664C52.2304 119.135 52.7016 118.877 53.317 118.885C53.923 118.894 54.4039 118.919 54.7681 118.976C54.867 118.786 54.958 118.538 55.0318 118.257C55.1051 117.975 55.2139 117.776 55.3747 117.676ZM58.6144 117.196C58.922 117.304 59.3555 117.534 59.9266 117.884C60.5066 118.239 60.9965 118.638 61.408 119.084C61.2956 118.837 61.1045 118.304 60.8367 117.503C60.563 116.697 60.3558 116.164 60.2087 115.892C60.0001 115.892 59.701 116.026 59.329 116.29C58.9558 116.563 58.7224 116.861 58.6144 117.196ZM63.3729 116.589C63.2655 116.797 63.2261 117.477 63.257 118.62C63.2745 119.764 63.4172 120.396 63.665 120.543C63.7726 119.764 63.9886 118.694 64.3142 117.342C64.643 115.991 65.2838 115.311 66.2377 115.311C65.3407 115.42 64.7422 115.545 64.4612 115.71C64.18 115.865 63.8161 116.164 63.3729 116.589ZM157.243 188.436L154.863 174.983H149.473C148.888 179.153 148.686 183.777 148.696 188.436H157.243ZM154.639 173.718L154.555 173.246L152.808 173.718H154.639ZM46.8022 211.543L45.7331 201.338L35.9489 198.809L45.0395 194.837L44.1904 185.581L50.4581 192.468L59.753 188.409L54.9624 197.305L61.4287 204.916L51.7183 202.816L46.8022 211.543ZM208.032 212.6L203.107 203.425L192.948 204.808L199.955 197.588L195.606 189.223L204.139 193.282L211.302 185.897L210.224 196.094L219.22 200.753L209.297 202.513L208.032 212.6ZM147.62 238.923L144.259 222.505L147.775 221.855L150.562 235.485L159.306 233.87L159.877 236.659L147.62 238.923ZM129.672 240.358L128.74 223.514L136.272 223.137C138.166 223.046 139.552 223.129 140.425 223.388C141.297 223.648 142.016 224.15 142.574 224.895C143.133 225.649 143.437 226.519 143.493 227.515C143.562 228.776 143.228 229.841 142.496 230.704C141.76 231.566 140.617 232.142 139.075 232.433C139.871 232.826 140.538 233.264 141.073 233.753C141.6 234.243 142.328 235.117 143.253 236.386L145.602 239.566L141.323 239.777L138.534 236.239C137.541 234.974 136.871 234.182 136.515 233.857C136.155 233.537 135.783 233.32 135.398 233.211C135.012 233.103 134.41 233.068 133.582 233.113L132.863 233.147L133.249 240.181L129.672 240.358ZM132.717 230.457L135.359 230.326C137.074 230.24 138.144 230.12 138.564 229.963C138.983 229.804 139.304 229.547 139.53 229.196C139.75 228.85 139.851 228.421 139.819 227.919C139.79 227.347 139.604 226.901 139.265 226.567C138.931 226.234 138.468 226.039 137.884 225.975C137.589 225.953 136.719 225.975 135.268 226.046L132.479 226.186L132.717 230.457ZM113.131 239.389L114.365 222.565L127.484 223.436L127.277 226.286L117.731 225.649L117.453 229.378L126.341 229.967L126.133 232.8L117.245 232.211L116.911 236.789L126.796 237.447L126.587 240.284L113.131 239.389ZM97.0531 235.884L101.042 219.451L106.643 220.682C108.761 221.145 110.126 221.534 110.732 221.842C111.663 222.301 112.364 223.02 112.832 223.996C113.3 224.969 113.374 226.108 113.057 227.412C112.81 228.421 112.412 229.23 111.858 229.829C111.307 230.436 110.688 230.868 109.994 231.128C109.311 231.393 108.644 231.518 108.002 231.509C107.128 231.484 105.902 231.3 104.321 230.951L102.048 230.452L100.54 236.652L97.0531 235.884ZM103.858 222.998L102.723 227.658L104.633 228.079C106.01 228.382 106.951 228.499 107.458 228.43C107.959 228.356 108.388 228.17 108.743 227.862C109.095 227.55 109.327 227.157 109.45 226.667C109.592 226.073 109.528 225.536 109.25 225.065C108.981 224.601 108.57 224.251 108.028 224.033C107.626 223.866 106.798 223.643 105.542 223.371L103.858 222.998ZM222.841 140.77L239.498 143.408L237.688 154.829L234.868 154.383L236.145 146.328L232.205 145.703L231.1 152.655L228.281 152.21L229.385 145.258L222.309 144.135L222.841 140.77ZM231.958 121.7C233.678 121.7 235.12 121.955 236.285 122.471C237.142 122.856 237.913 123.376 238.598 124.044C239.277 124.706 239.784 125.434 240.113 126.221C240.559 127.274 240.78 128.483 240.78 129.856C240.78 132.342 240.015 134.33 238.468 135.824C236.93 137.315 234.786 138.059 232.04 138.059C229.316 138.059 227.185 137.319 225.647 135.837C224.114 134.356 223.344 132.377 223.344 129.903C223.344 127.395 224.11 125.399 225.635 123.922C227.168 122.441 229.277 121.7 231.958 121.7ZM232.07 125.209C230.165 125.209 228.713 125.65 227.73 126.529C226.744 127.413 226.253 128.535 226.253 129.89C226.253 131.246 226.739 132.364 227.722 133.235C228.701 134.099 230.165 134.538 232.118 134.538C234.05 134.538 235.492 134.113 236.444 133.268C237.398 132.419 237.869 131.293 237.869 129.89C237.869 128.487 237.389 127.357 236.427 126.494C235.466 125.642 234.016 125.209 232.07 125.209ZM227.959 108.221L227.744 111.673C225.833 111.63 224.305 111.144 223.152 110.218C222.001 109.297 221.203 107.953 220.766 106.194C220.224 104.024 220.524 102.05 221.658 100.283C222.792 98.515 224.651 97.3064 227.224 96.6659C229.948 95.986 232.235 96.1628 234.097 97.1935C235.952 98.2255 237.167 99.8835 237.739 102.18C238.237 104.176 238.051 105.952 237.18 107.498C236.67 108.417 235.799 109.226 234.582 109.924L232.984 106.849C233.789 106.446 234.357 105.874 234.695 105.133C235.033 104.397 235.093 103.591 234.872 102.712C234.573 101.503 233.89 100.625 232.833 100.087C231.776 99.5502 230.268 99.5237 228.32 100.009C226.249 100.525 224.867 101.261 224.179 102.227C223.482 103.189 223.287 104.267 223.58 105.458C223.802 106.337 224.271 107.021 224.984 107.515C225.699 108.01 226.692 108.242 227.959 108.221ZM216.764 93.1787L232.291 86.587L233.621 89.7225L218.093 96.3105L216.764 93.1787ZM210.6 80.3328L225.37 72.4793L226.968 75.4862L214.708 82.0044L218.683 89.4809L216.171 90.8138L210.6 80.3328ZM214.85 56.5757L218.718 62.0978C219.483 63.1902 220.008 64.0393 220.294 64.6451C220.58 65.2421 220.722 65.8534 220.732 66.4816C220.739 67.1095 220.602 67.7287 220.315 68.3487C220.038 68.967 219.596 69.4873 218.998 69.904C218.353 70.3574 217.64 70.6008 216.855 70.6302C216.067 70.6609 215.331 70.4706 214.646 70.0636C214.988 71.0764 215.022 72.0162 214.75 72.8791C214.477 73.7494 213.94 74.4596 213.143 75.0179C212.515 75.4558 211.8 75.7412 211.004 75.864C210.206 75.9886 209.447 75.9186 208.742 75.6627C208.037 75.4083 207.377 74.9353 206.776 74.2525C206.404 73.8233 205.584 72.7226 204.325 70.9515L201.032 66.2476L214.85 56.5757ZM214.504 60.9761L211.312 63.2156L212.589 65.0431C213.35 66.1315 213.84 66.7935 214.057 67.0354C214.443 67.4734 214.87 67.7334 215.338 67.8145C215.802 67.8982 216.258 67.7806 216.704 67.4646C217.132 67.1664 217.396 66.806 217.5 66.3862C217.6 65.9622 217.517 65.4983 217.245 64.9958C217.085 64.6967 216.543 63.892 215.625 62.5789L214.504 60.9761ZM209.011 64.8225L205.317 67.4086L207.123 69.9898C207.828 70.9952 208.3 71.6135 208.548 71.8438C208.912 72.2076 209.336 72.4151 209.808 72.472C210.281 72.528 210.765 72.3854 211.255 72.0428C211.67 71.753 211.948 71.4052 212.099 71.0031C212.246 70.5964 212.256 70.1587 212.12 69.6863C211.986 69.2145 211.475 68.3444 210.587 67.0757L209.011 64.8225ZM200.249 42.1097L202.739 44.4317L196.511 51.1137C195.523 52.1708 194.913 52.8898 194.679 53.2621C194.316 53.8635 194.194 54.5107 194.306 55.1853C194.423 55.8649 194.83 56.5322 195.523 57.177C196.229 57.8412 196.901 58.1922 197.529 58.2389C198.157 58.2861 198.702 58.1309 199.165 57.7758C199.634 57.4245 200.318 56.7577 201.232 55.7835L207.595 48.9577L210.085 51.2829L204.044 57.7586C202.661 59.24 201.618 60.2277 200.912 60.7115C200.21 61.197 199.482 61.4838 198.724 61.565C197.975 61.6475 197.173 61.5311 196.338 61.2192C195.498 60.9029 194.591 60.2875 193.614 59.3786C192.44 58.278 191.669 57.3124 191.317 56.4724C190.963 55.6317 190.812 54.8299 190.863 54.0675C190.915 53.3012 191.105 52.6295 191.44 52.0503C191.934 51.1875 192.825 50.0711 194.116 48.6883L200.249 42.1097ZM175.825 45.5099L185.011 31.3646L189.595 34.3394C191.327 35.4654 192.413 36.2754 192.847 36.7557C193.524 37.4968 193.904 38.3987 193.99 39.4635C194.074 40.5332 193.752 41.6288 193.019 42.7505C192.457 43.6206 191.824 44.2485 191.122 44.6343C190.422 45.0206 189.725 45.2274 189.013 45.2496C188.312 45.2712 187.675 45.1714 187.104 44.9552C186.333 44.6482 185.302 44.0763 184.007 43.2357L182.144 42.0286L178.679 47.3633L175.825 45.5099ZM186.311 35.6127L183.708 39.6231L185.267 40.6371C186.393 41.3685 187.195 41.7852 187.672 41.8844C188.143 41.9796 188.589 41.9448 189.013 41.7671C189.434 41.5897 189.781 41.2953 190.053 40.8792C190.387 40.3639 190.508 39.8407 190.426 39.3068C190.34 38.7836 190.093 38.3202 189.686 37.9386C189.387 37.648 188.719 37.1767 187.694 36.5094L186.311 35.6127ZM161.654 38.6745L168.514 23.2701L179.936 28.3534L178.774 30.9619L170.463 27.2583L168.938 30.6751L176.674 34.1188L175.522 36.7134L167.787 33.2697L165.92 37.4621L174.526 41.2953L173.369 43.8902L161.654 38.6745ZM145.203 33.7415L149.851 17.526L156.741 19.5049C158.474 19.9986 159.691 20.5104 160.393 21.0254C161.094 21.541 161.575 22.2378 161.835 23.1178C162.091 24.0016 162.083 24.9137 161.81 25.8761C161.459 27.089 160.814 27.9939 159.873 28.5827C158.934 29.1686 157.717 29.3632 156.235 29.159C156.824 29.7796 157.279 30.3982 157.599 31.0261C157.915 31.65 158.284 32.7019 158.705 34.1876L159.779 37.9219L155.867 36.8L154.512 32.5886C154.031 31.0865 153.684 30.1294 153.467 29.714C153.255 29.2973 152.987 28.9772 152.679 28.7572C152.363 28.5363 151.835 28.3195 151.08 28.1027L150.418 27.9116L148.478 34.6811L145.203 33.7415ZM151.163 25.3219L153.58 26.0147C155.152 26.4649 156.152 26.682 156.582 26.665C157.01 26.6429 157.379 26.5002 157.695 26.2411C158.006 25.9808 158.237 25.6076 158.375 25.118C158.535 24.5726 158.514 24.0924 158.318 23.6719C158.123 23.2508 157.773 22.922 157.266 22.6795C157.01 22.5721 156.222 22.3244 154.893 21.9439L152.341 21.2124L151.163 25.3219ZM128.225 26.5962V23.7498H135.566V30.4671C134.852 31.1603 133.817 31.7664 132.466 32.2948C131.11 32.8191 129.736 33.0794 128.351 33.0794C126.587 33.0794 125.051 32.7115 123.738 31.9747C122.426 31.2292 121.443 30.1726 120.78 28.7966C120.121 27.4176 119.792 25.9193 119.792 24.3051C119.792 22.55 120.16 20.9863 120.892 19.6181C121.633 18.2575 122.707 17.2097 124.132 16.4819C125.211 15.9197 126.558 15.6416 128.169 15.6416C130.261 15.6416 131.897 16.0793 133.072 16.9576C134.25 17.8376 135.009 19.0514 135.346 20.6014L131.963 21.2325C131.725 20.4059 131.279 19.7482 130.62 19.2709C129.967 18.79 129.147 18.5519 128.169 18.5519C126.68 18.5519 125.497 19.0249 124.618 19.9638C123.738 20.913 123.3 22.3066 123.3 24.1653C123.3 26.167 123.746 27.6706 124.639 28.6694C125.523 29.6696 126.692 30.1674 128.13 30.1674C128.844 30.1674 129.559 30.0303 130.278 29.7478C130.993 29.4712 131.613 29.1295 132.128 28.735V26.5962H128.225ZM103.615 35.3484L100.978 18.6911L104.252 18.1717L112.832 28.215L111.069 17.0921L114.196 16.5943L116.834 33.2528L113.456 33.7899L105.019 23.9891L106.742 34.8503L103.615 35.3484ZM97.3481 37.744L92.4186 21.6142L95.6767 20.6183L100.606 36.7481L97.3481 37.744ZM79.3562 45.3103L72.4997 29.9001L77.1558 27.8302L84.6267 37.0938L82.7129 25.3526L87.3777 23.2774L94.2385 38.6829L91.3489 39.9709L85.9482 27.8427L88.2916 41.3295L85.2949 42.6638L76.8439 31.8965L82.2446 44.0247L79.3562 45.3103ZM63.5252 57.2129L53.1437 43.9199L57.1584 40.7838L66.6526 47.9647L61.953 37.0381L65.9774 33.8932L76.363 47.1859L73.8732 49.1301L65.7005 38.666L71.231 51.1919L68.6493 53.2105L57.8426 44.8035L66.0165 55.2679L63.5252 57.2129ZM61.9577 58.1872L59.5277 60.9858L55.6688 59.5855L51.247 64.6713L53.2262 68.2355L50.8569 70.964L42.4365 54.9379L44.7965 52.2225L61.9577 58.1872ZM52.8096 58.5476L46.56 56.1949L49.7913 62.0207L52.8096 58.5476ZM42.3977 83.7055L28.7554 73.7923L32.9689 67.989C34.026 66.5332 34.9183 65.5625 35.6454 65.0825C36.3688 64.5984 37.1872 64.3848 38.1058 64.4417C39.0197 64.5009 39.8781 64.8225 40.6881 65.4113C41.7091 66.1516 42.337 67.0704 42.5666 68.1573C42.7971 69.2396 42.5624 70.4484 41.8658 71.7699C42.648 71.4274 43.3892 71.2106 44.0871 71.1292C44.7839 71.0425 45.8974 71.0551 47.4398 71.1674L51.3112 71.4367L48.9165 74.7284L44.4986 74.5635C42.9264 74.5028 41.909 74.4987 41.4406 74.5592C40.9723 74.6193 40.5874 74.7579 40.2714 74.9747C39.9548 75.1915 39.5694 75.6163 39.1107 76.2518L38.7034 76.808L44.3991 80.9473L42.3977 83.7055ZM36.5252 75.2262L38.0069 73.191C38.9636 71.8654 39.5087 71.0031 39.6388 70.5923C39.7649 70.1852 39.7605 69.7864 39.6211 69.4006C39.4836 69.0155 39.2143 68.6729 38.8023 68.3738C38.3436 68.0409 37.8849 67.8982 37.421 67.9373C36.9623 67.9753 36.5336 68.1921 36.1307 68.5865C35.9399 68.7852 35.4374 69.4453 34.6274 70.566L33.0649 72.7101L36.5252 75.2262ZM32.8609 91.3087L30.2438 90.1999L33.1115 83.4426L39.2966 86.0676C39.6558 86.9993 39.8121 88.1854 39.7649 89.6361C39.7173 91.0866 39.4267 92.4519 38.8808 93.7291C38.1927 95.3529 37.2517 96.6268 36.0612 97.5456C34.8655 98.4633 33.5058 98.957 31.9809 99.0259C30.4577 99.0912 28.9498 98.8091 27.4599 98.1812C25.8434 97.494 24.5493 96.5445 23.5785 95.3316C22.6133 94.123 22.0671 92.7189 21.9547 91.1298C21.8584 89.9174 22.1281 88.5661 22.7607 87.085C23.5733 85.1572 24.6225 83.8231 25.8869 83.0826C27.1564 82.342 28.5684 82.1209 30.1274 82.4158L29.3907 85.7726C28.5331 85.6734 27.7543 85.8289 27.0561 86.2444C26.3596 86.6611 25.8224 87.3188 25.4366 88.2192C24.8563 89.5924 24.8262 90.8654 25.3508 92.0402C25.8781 93.2222 26.9962 94.1711 28.7035 94.8942C30.5435 95.6744 32.1031 95.8559 33.3712 95.4267C34.6399 94.9977 35.5544 94.123 36.1172 92.793C36.3985 92.1353 36.5462 91.4248 36.5718 90.6542C36.5941 89.8877 36.5202 89.1853 36.3562 88.5574L34.3852 87.7211L32.8609 91.3087ZM23.7956 118.222C22.1018 117.923 20.7251 117.42 19.668 116.71C18.8875 116.182 18.2216 115.537 17.6622 114.761C17.1081 113.991 16.7349 113.189 16.5458 112.353C16.2888 111.24 16.2803 110.01 16.5193 108.655C16.953 106.207 18.0568 104.384 19.8329 103.184C21.6078 101.98 23.8517 101.62 26.5551 102.096C29.2355 102.569 31.2062 103.669 32.4621 105.393C33.7182 107.121 34.134 109.2 33.7004 111.639C33.2668 114.107 32.1674 115.939 30.4059 117.135C28.6423 118.326 26.4375 118.686 23.7956 118.222ZM24.289 114.749C26.1682 115.078 27.6758 114.892 28.7974 114.198C29.9235 113.501 30.6004 112.483 30.833 111.144C31.0717 109.812 30.7863 108.628 29.9669 107.597C29.1572 106.575 27.789 105.891 25.8656 105.549C23.9605 105.215 22.4697 105.384 21.3828 106.047C20.2988 106.719 19.6382 107.744 19.3908 109.126C19.1477 110.513 19.4299 111.708 20.2273 112.721C21.0236 113.735 22.3758 114.411 24.289 114.749ZM32.2105 135.915L15.3489 136.208L15.2237 129.041C15.1934 127.239 15.3235 125.932 15.6089 125.109C15.8984 124.285 16.423 123.619 17.1904 123.116C17.9613 122.614 18.8399 122.355 19.8372 122.336C21.1015 122.316 22.1534 122.671 22.9941 123.397C23.8251 124.126 24.3675 125.23 24.6056 126.707C25.0252 125.963 25.4839 125.343 25.9913 124.857C26.4982 124.368 27.3945 123.709 28.6939 122.873L31.9461 120.756L32.0203 124.823L28.3904 127.352C27.0952 128.249 26.2811 128.86 25.9441 129.188C25.6111 129.518 25.3847 129.861 25.2586 130.223C25.1381 130.588 25.0865 131.159 25.1034 131.943L25.1131 132.632L32.1548 132.51L32.2105 135.915ZM22.4178 132.68L22.3758 130.164C22.3493 128.531 22.2626 127.508 22.1187 127.101C21.9716 126.702 21.7283 126.386 21.3872 126.162C21.0446 125.94 20.6248 125.828 20.117 125.837C19.5475 125.85 19.0961 126.01 18.7489 126.317C18.4075 126.626 18.1947 127.058 18.1084 127.612C18.0789 127.889 18.0737 128.716 18.0987 130.098L18.1431 132.753L22.4178 132.68ZM34.6052 151.498L17.9952 154.431L17.0466 149.053C16.6885 147.012 16.5406 145.665 16.5975 145.019C16.6748 144.023 17.0778 143.127 17.8008 142.338C18.5198 141.55 19.5422 141.04 20.8626 140.805C21.8853 140.628 22.7732 140.662 23.5313 140.909C24.2934 141.156 24.9216 141.528 25.4194 142.031C25.9175 142.529 26.2811 143.066 26.5107 143.63C26.8101 144.401 27.0952 145.548 27.365 147.068L27.7499 149.251L34.0164 148.146L34.6052 151.498ZM20.2177 150.581L24.926 149.749L24.6056 147.917C24.3719 146.596 24.1297 145.725 23.877 145.31C23.6267 144.898 23.2932 144.594 22.8765 144.405C22.4615 144.222 22.0107 144.167 21.517 144.253C20.9157 144.362 20.4471 144.626 20.1141 145.054C19.7885 145.474 19.6192 145.968 19.6192 146.527C19.6117 146.944 19.7196 147.752 19.9324 148.96L20.2177 150.581ZM193.323 136.543L194.345 140.636C194.345 140.636 193.194 143.829 193.068 144.594C192.938 145.362 192.812 148.432 192.812 149.325C192.812 150.221 192.682 154.695 192.682 154.695L189.996 160.447L189.36 157.251L188.209 154.31L186.294 149.71V144.469C186.294 144.469 186.038 141.784 186.805 141.403C187.571 141.017 188.974 139.995 188.974 139.995L191.405 138.462L193.323 136.543Z" fill="#1B1918"/>
</g>
<defs>
<clipPath id="clip0_1_8443">
<rect width="256" height="256" fill="white"/>
</clipPath>
</defs>
</svg>
