<svg width="256" height="292" viewBox="0 0 256 292" fill="none" xmlns="http://www.w3.org/2000/svg">
<g clip-path="url(#clip0_1_8446)">
<path d="M203.573 139.856L185.825 104.102L191.484 128.023L203.573 139.856Z" fill="#73B08F"/>
<path d="M182.745 91.5719L196.445 149.447L152.388 102.89L88.1834 42.9565L71.7964 0L182.745 91.5719Z" fill="#C5E4D3"/>
<path d="M155.917 104.324L98.2231 76.6645L66.727 42.8281L62.606 20.5391L155.917 104.324Z" fill="#76C39B"/>
<path d="M200.051 151.984L145.587 138.1L40.8481 77.8488L0 21.7891L157.108 105.093L200.051 151.984Z" fill="black"/>
<path d="M143.091 136.502V138.111L136.056 151.249L99.3197 139.184L31.0573 87.972L4.48193 49.8984L34.9655 68.1308L39.6553 75.3702L143.091 136.502Z" fill="#73B08F"/>
<path d="M44.1214 98.0085L39.0398 97.418L21.2542 90.9219L57.6723 124.288L67.2709 131.67L105.383 144.367L44.1214 98.0085Z" fill="black" stroke="black" stroke-width="1.12245"/>
<path d="M193.433 149.495L192.661 179.066L189.832 174.232L173.369 173.095L135.3 151.201L144.046 135.848L193.433 149.495Z" fill="#76C39B"/>
<path d="M38.498 116.926L85.8847 153.139L135.104 169.521L173.066 172.97L135.366 151.127L38.498 116.926Z" fill="#C5E4D3"/>
<path d="M61.4766 145.773L94.4013 164.036L132.728 167.895L86.4273 153.49L78.9678 148.86L61.4766 145.773Z" fill="#76C39B"/>
<path d="M134.642 167.152L80.7686 162.453L108.521 173.105L126.751 175.611L134.642 167.152Z" fill="#73B08F"/>
<path d="M122.439 175.456L117.809 176.139L96.2019 179.21L106.748 172.043L122.439 175.456Z" fill="#76C39B"/>
<path d="M156.946 180.126L155.891 181.996L77.0365 227.687L61.4766 248.261L67.0148 226.084L84.1571 202.57L133.21 169.438L156.946 180.126Z" fill="#76C39B"/>
<path d="M70.7368 202.617L56.8467 220.88V212.906L70.7368 202.617Z" fill="black"/>
<path d="M185.202 183.327L132.471 219.081L128.098 211.621L109.835 250.205L113.95 255.864L117.037 291.618L94.9158 250.719L112.921 206.477L156.907 179.211L185.202 183.327Z" fill="#C5E4D3"/>
<path d="M112.921 205.707L77.6817 224.742L76.6528 250.979L87.4563 286.218V268.213L112.921 205.707Z" fill="black"/>
<path d="M69.1935 256.121L69.7079 257.922L74.3379 277.471L68.1646 273.612L69.1935 256.121Z" fill="#73B08F"/>
<path d="M133.384 216.572L128.657 210.738L108.915 248.128L140.336 289.231L132.55 270.934L133.384 216.572Z" fill="#73B08F"/>
<path d="M137.101 214.336L132.985 216.494L132.728 261.281L140.445 277.469L154.849 272.073L154.335 261.281L138.644 245.903L137.101 214.336Z" fill="#76C39B"/>
<path d="M208.129 182.777L184.207 189.465L158.227 211.586L144.08 211.072L184.979 183.549L208.129 182.777Z" fill="black"/>
<path d="M198.297 185.734L190.8 171.942L123.331 166.66L153.585 179.278L198.297 185.734Z" fill="#73B08F"/>
<path d="M158.965 210.732L162.309 218.618L169.511 223.785H170.797L170.283 232.215L148.161 241.461L140.702 224.329L138.644 214.267L145.332 208.828L158.965 210.732Z" fill="#73B08F"/>
<path d="M170.797 255.092L157.421 249.176L152.277 259.722L154.077 262.294L153.82 273.612L163.595 284.673L162.051 263.838L164.366 262.809L172.083 270.268L168.482 261.78L160.251 257.407L162.051 254.32L170.797 258.179V255.092Z" fill="black"/>
<path d="M174.141 211.105L168.996 223.452L170.025 233.998L180.571 247.117L179.285 226.024L180.829 224.996L189.06 232.198L185.716 224.224L176.456 219.337L177.999 216.764L187.516 220.88L187.259 217.279L174.141 211.105Z" fill="black"/>
<path d="M221.727 156.575L193.176 149.887V176.638L196.519 182.554L221.727 182.811L245.649 191.043L244.878 187.699L230.216 179.21L200.892 167.635L217.612 167.378L201.407 159.918L221.727 156.575Z" fill="#C5E4D3"/>
<path d="M255.03 181.029L244.227 163.538L219.533 156.078L199.984 159.679L215.418 167.396L201.013 167.91L228.022 179.486L243.455 186.945L255.03 181.029Z" fill="#73B08F"/>
<path d="M240.952 201.846L245.068 195.672L241.981 187.698L254.842 180.496L255.099 195.158L247.383 202.103L240.952 201.846Z" fill="black"/>
<path d="M251.265 178.835L242.437 174.715L237.728 178.835" fill="black"/>
<path d="M251.265 178.835L242.437 174.715L237.728 178.835" stroke="black" stroke-width="0.3"/>
</g>
<defs>
<clipPath id="clip0_1_8446">
<rect width="256" height="292" fill="white"/>
</clipPath>
</defs>
</svg>
