<svg width="256" height="256" viewBox="0 0 256 256" fill="none" xmlns="http://www.w3.org/2000/svg">
<g clip-path="url(#clip0_1_8492)">
<path d="M141.307 45.0133L132.773 19.2L43.68 0L0 49.4133L48 73.9733V45.0133H141.307Z" fill="url(#paint0_linear_1_8492)"/>
<path d="M48 61.8141L0 49.4141L24.4 195.974L47.92 195.787L48 61.8141Z" fill="url(#paint1_linear_1_8492)"/>
<path d="M208 45.0126H124.507L158.053 15.1992L222.693 27.1992L256 109.973L208.027 157.626L208 45.0126Z" fill="url(#paint2_linear_1_8492)"/>
<path d="M208.053 108.879L208 205.012H70.56L74.1067 225.919L160.4 255.999L256 198.772L208.053 108.879Z" fill="url(#paint3_linear_1_8492)"/>
<path d="M47 43.7695H209V205.77H47V43.7695Z" fill="black"/>
<path d="M67.9467 175.095H127.947V185.095H67.9467V175.095ZM120.267 116.961L128.08 107.361C132.988 111.894 139.375 114.49 146.053 114.668C151.387 114.668 154.747 112.508 154.747 108.988V108.828C154.747 107.465 154.404 106.369 153.325 105.377L153.083 105.166C152.913 105.027 152.728 104.889 152.526 104.752L152.211 104.549C152.047 104.447 151.873 104.347 151.689 104.247L151.307 104.047C151.241 104.013 151.174 103.98 151.106 103.947L150.681 103.748C150.535 103.682 150.383 103.616 150.227 103.55L149.743 103.351C149.66 103.318 149.575 103.285 149.489 103.252L148.958 103.053C148.867 103.02 148.774 102.986 148.68 102.953L148.1 102.752C148 102.719 147.9 102.685 147.797 102.651L147.166 102.448L146.5 102.243L145.798 102.036C145.678 102.001 145.556 101.966 145.433 101.931L144.675 101.719L143.88 101.504L141.44 100.871L140.674 100.667L139.548 100.356C139.425 100.321 139.302 100.286 139.18 100.251L138.452 100.039L137.738 99.8239C137.621 99.7876 137.503 99.7512 137.387 99.7146L136.693 99.4928L136.014 99.2661C135.902 99.2278 135.79 99.1894 135.679 99.1507L135.021 98.9157L134.378 98.6746C134.272 98.6339 134.166 98.5929 134.062 98.5516L133.44 98.3003L132.834 98.0416C126.548 95.2845 122.785 91.2149 122.669 83.1612L122.667 82.588C122.667 71.7961 131.256 64.6072 143.346 64.457L143.733 64.4546C151.848 64.3111 159.757 67.0195 166.08 72.108L159.2 82.0813C154.704 78.5643 149.244 76.4994 143.547 76.1613C138.48 76.1613 135.813 78.4813 135.813 81.4946V81.6813C135.813 83.912 136.665 85.3249 139.27 86.6133L139.684 86.8107C139.827 86.8762 139.975 86.9415 140.127 87.0066L140.599 87.2017L141.101 87.3965L141.634 87.5916L142.197 87.7875L142.793 87.9848L143.422 88.1841L144.084 88.386L145.141 88.6946L146.278 89.0122L147.497 89.3404L148.8 89.6813C149.087 89.7566 149.372 89.8326 149.653 89.9092L150.489 90.1414C150.764 90.2195 151.037 90.2985 151.306 90.3782L152.105 90.6201C152.237 90.6609 152.368 90.7019 152.498 90.7431L153.27 90.9933L154.024 91.2495C154.396 91.3792 154.761 91.5113 155.12 91.646L155.827 91.919C163.502 94.9613 167.765 99.3409 167.89 107.367L167.893 107.921C167.893 119.868 158.773 126.588 145.787 126.588C136.386 126.623 127.302 123.196 120.267 116.961ZM68 65.3346H92.5333C106.684 65.3346 115.319 73.6459 115.491 85.6886L115.493 86.2146C115.493 100.081 104.693 107.281 91.2533 107.281H81.3333V125.255H68V65.3346ZM91.6267 95.548C98.2133 95.548 102.08 91.628 102.08 86.4813V86.3213C102.08 80.4013 97.9733 77.228 91.4133 77.228H81.3333V95.548H91.6267Z" fill="white"/>
</g>
<defs>
<linearGradient id="paint0_linear_1_8492" x1="5680" y1="4738.58" x2="6591.45" y2="2916.8" gradientUnits="userSpaceOnUse">
<stop stop-color="#AF1DF5"/>
<stop offset="0.21" stop-color="#BC20E4"/>
<stop offset="0.63" stop-color="#DD29B8"/>
<stop offset="1" stop-color="#FF318C"/>
</linearGradient>
<linearGradient id="paint1_linear_1_8492" x1="2058.47" y1="11569.4" x2="8246.74" y2="3394.56" gradientUnits="userSpaceOnUse">
<stop offset="0.02" stop-color="#6B57FF"/>
<stop offset="0.42" stop-color="#B74AF7"/>
<stop offset="0.75" stop-color="#FF318C"/>
</linearGradient>
<linearGradient id="paint2_linear_1_8492" x1="9757.45" y1="14572.5" x2="3541.71" y2="-174.208" gradientUnits="userSpaceOnUse">
<stop stop-color="#293896"/>
<stop offset="0.08" stop-color="#3B3AA2"/>
<stop offset="0.29" stop-color="#6740C0"/>
<stop offset="0.49" stop-color="#8A44D8"/>
<stop offset="0.68" stop-color="#A347E9"/>
<stop offset="0.86" stop-color="#B249F3"/>
<stop offset="1" stop-color="#B74AF7"/>
</linearGradient>
<linearGradient id="paint3_linear_1_8492" x1="11729.2" y1="10767.2" x2="8525.31" y2="6072.91" gradientUnits="userSpaceOnUse">
<stop offset="0.02" stop-color="#6B57FF"/>
<stop offset="0.78" stop-color="#B74AF7"/>
</linearGradient>
<clipPath id="clip0_1_8492">
<rect width="256" height="256" fill="white"/>
</clipPath>
</defs>
</svg>
