<svg width="256" height="88" viewBox="0 0 256 88" fill="none" xmlns="http://www.w3.org/2000/svg">
<g clip-path="url(#clip0_1_8529)">
<path d="M238.93 54.4777L220.942 23.3259C220.795 23.0682 220.521 22.9093 220.224 22.9095H208.445C208.328 22.9095 208.235 22.953 208.134 22.9966C208.099 22.9911 208.066 22.9693 208.031 22.9693H201.537C201.54 22.9067 201.543 21.2738 201.548 21.2139C202.016 12.8802 209.305 10.7682 211.79 10.3246C212.184 10.2541 212.469 9.90872 212.465 9.50813L212.451 0.826109C212.451 0.59839 212.356 0.380882 212.191 0.224828C212.025 0.0687731 211.802 -0.0120304 211.575 0.00145322C206.855 0.303555 190.515 3.98865 189.655 21.2139L189.644 22.9666H184.647C184.455 22.9673 184.272 23.044 184.137 23.1798C184.003 23.3156 183.927 23.4993 183.928 23.6906V32.1059C183.928 32.506 184.249 32.8326 184.647 32.8326H188.865C189.26 32.8326 189.584 33.1564 189.584 33.5511V70.1435C189.584 70.5925 189.946 70.9545 190.392 70.9545H200.653C200.883 70.9518 201.102 70.8496 201.251 70.6742C201.434 70.5226 201.54 70.2988 201.543 70.0618V33.581C201.543 33.3633 201.632 33.1646 201.774 33.0176C201.913 32.9008 202.088 32.8355 202.269 32.8326L212.173 32.6992C212.473 32.6961 212.751 32.8554 212.9 33.1156L225.234 54.4804C225.379 54.7315 225.383 55.0394 225.245 55.2942L208.888 85.7248C208.75 85.9823 208.756 86.2936 208.906 86.5449C209.055 86.7963 209.325 86.9509 209.618 86.9523H221.419C221.723 86.9523 222.001 86.7844 222.145 86.5168L238.938 55.2942C239.077 55.0392 239.074 54.7299 238.93 54.4777ZM255.896 24.058L243.015 48.0302C242.872 48.2922 242.6 48.4574 242.302 48.4632C242.003 48.4687 241.725 48.3138 241.572 48.0574L235.394 37.5029C235.247 37.2519 235.242 36.9421 235.381 36.6864L242.601 23.3177C242.741 23.0527 243.015 22.8856 243.314 22.8822C245.217 22.8605 252.219 22.8006 255.186 22.8333C255.476 22.837 255.743 22.9931 255.889 23.2441C256.034 23.4951 256.037 23.8042 255.896 24.058ZM169.191 41.7215H146.185C145.902 41.7248 145.639 41.5802 145.49 41.3401C145.341 41.1001 145.329 40.7997 145.458 40.5484C146.677 38.1452 150.193 32.9033 157.7 32.9033C165.07 32.9033 168.652 38.137 169.912 40.5402C170.041 40.7916 170.03 41.0919 169.882 41.333C169.735 41.5741 169.473 41.7213 169.191 41.7215ZM157.746 21.0751C143.822 21.0751 132.536 32.4243 132.536 46.4217C132.536 60.4218 143.822 71.7683 157.746 71.7683C165.263 71.7683 174.974 68.0669 180.344 57.5913C180.469 57.3386 180.455 57.0393 180.306 56.7996C180.158 56.5599 179.896 56.4137 179.614 56.4128H167.272C167.068 56.414 166.873 56.494 166.727 56.636C165.805 57.5163 164.752 58.248 163.606 58.8051C162 59.5835 160.054 60.0897 157.697 60.0897C150.275 60.0897 146.693 55.218 145.686 52.6325C145.595 52.3844 145.632 52.1074 145.784 51.8913C145.936 51.6752 146.184 51.5473 146.449 51.5492L181.699 51.5547C182.105 51.543 182.444 51.2409 182.502 50.8389C182.625 49.8509 182.791 48.8521 182.845 47.8342C183.276 40.9016 180.827 34.0984 176.074 29.0324C171.322 23.9664 164.689 21.0872 157.743 21.0751M105.725 60.0789C101.054 61.1638 96.1543 59.7577 92.7697 56.3611C89.3793 52.9584 87.9778 48.0507 89.0601 43.3707C90.1921 38.2002 94.2239 34.1578 99.3914 33.0122C104.062 31.9267 108.962 33.3329 112.346 36.7299C115.737 40.1324 117.139 45.0403 116.056 49.7203C114.923 54.8905 110.892 58.9326 105.725 60.0789ZM113.462 23.4511C102.159 18.5113 92.5928 23.4211 89.55 25.3862C87.9551 26.4204 88.0259 23.0455 86.5018 23.0455H77.5476C77.3327 23.0448 77.1264 23.1297 76.9743 23.2813C76.8221 23.433 76.7365 23.639 76.7365 23.8539V86.28C76.7365 86.7264 77.0985 87.0911 77.5449 87.0911H87.7129C87.9277 87.0911 88.1338 87.0056 88.2854 86.8534C88.4371 86.7012 88.5219 86.4949 88.5212 86.28V68.4942C88.5212 67.8682 89.1989 67.4735 89.7351 67.7947C91.9777 69.1555 97.1325 71.771 103.468 71.771C118.192 71.771 130.004 59.012 128.491 43.9423C127.585 34.9418 121.728 27.0681 113.462 23.4511ZM28.9854 60.0789C24.3147 61.1638 19.415 59.7577 16.0304 56.3611C12.641 52.9578 11.2406 48.0503 12.3236 43.3707C13.4556 38.2002 17.4874 34.1578 22.6549 33.0122C27.3256 31.9267 32.2256 33.3329 35.6099 36.7299C38.9998 40.133 40.4003 45.0408 39.3168 49.7203C38.1847 54.8908 34.1529 58.9332 28.9854 60.0789ZM36.7258 23.4511C25.4228 18.5113 15.859 23.4211 12.8107 25.3862C11.2186 26.4204 11.2866 23.0455 9.76251 23.0455H0.808326C0.3619 23.0455 0 23.4074 0 23.8539V86.28C0 86.7264 0.361978 87.0911 0.808326 87.0911H10.9736C11.1885 87.0911 11.3945 87.0056 11.5462 86.8534C11.6978 86.7012 11.7827 86.4949 11.782 86.28V68.4942C11.782 67.8682 12.4597 67.4735 12.9958 67.7947C15.2412 69.1555 20.3959 71.771 26.7292 71.771C41.4587 71.771 53.2651 59.012 51.7519 43.9423C50.8456 34.9418 44.9914 27.0681 36.7258 23.4511ZM68.6097 23.0483H58.4226C58.2088 23.0468 58.0031 23.1308 57.8514 23.2815C57.6996 23.4322 57.6143 23.6373 57.6143 23.8512V70.3939C57.6143 70.8429 57.979 71.2049 58.4254 71.2049H68.6124C69.0593 71.2034 69.4208 70.8407 69.4208 70.3939V23.8566C69.4193 23.4093 69.057 23.047 68.6097 23.0455" fill="black"/>
</g>
<defs>
<clipPath id="clip0_1_8529">
<rect width="256" height="88" fill="white"/>
</clipPath>
</defs>
</svg>
