<svg width="512" height="117" viewBox="0 0 512 117" fill="none" xmlns="http://www.w3.org/2000/svg">
<g clip-path="url(#clip0_1_8503)">
<path d="M80.2141 0.285156H96.5366V17.4785H80.2141V0.285156Z" fill="#525254"/>
<path d="M365.996 0.285156H382.319V17.4785H365.996V0.285156Z" fill="#525254"/>
<path d="M44.1376 23.6484C33.8496 23.6484 27.9 28.2651 25.0298 31.4544C24.6887 28.7068 22.8763 25.1417 15.8028 25.1417H0.442261V41.219H6.73768C7.80342 41.219 8.14609 41.5585 8.14609 42.6227V116.035H26.4555V88.481C26.4555 87.7375 26.4413 87.0427 26.4224 86.4203C29.2817 89.0469 34.744 92.6638 43.2762 92.6638C61.1722 92.6638 73.6844 78.4775 73.6844 58.1593C73.6844 37.5188 61.8041 23.6484 44.1376 23.6484ZM40.4186 76.7154C30.5612 76.7154 26.0829 67.2778 26.0829 58.5334C26.0829 44.7605 33.6154 39.8515 40.6622 39.8515C49.306 39.8515 55.1189 47.3038 55.1189 58.4045C55.1189 71.0629 47.7294 76.7154 40.4186 76.7154Z" fill="#231F1F"/>
<path d="M97.7878 73.8158V34.9162C97.7878 28.3394 94.6189 25.1406 88.127 25.1406H71.7683V41.2179H78.07C79.131 41.2179 79.4721 41.5574 79.4721 42.62V81.3907C79.4721 88.0602 82.5436 91.1647 89.1173 91.1647H105.496V75.2273H99.1931C98.1792 75.2273 97.7878 74.8233 97.7878 73.8158Z" fill="#231F1F"/>
<path d="M145.614 23.6484C135.323 23.6484 129.381 28.2651 126.498 31.4544C126.157 28.7068 124.354 25.1417 117.282 25.1417H101.912V41.219H108.214C109.275 41.219 109.619 41.5585 109.619 42.6227V116.035H127.937V88.481C127.937 87.7375 127.918 87.0427 127.894 86.4203C130.743 89.0469 136.222 92.6638 144.751 92.6638C162.649 92.6638 175.155 78.4775 175.155 58.1593C175.155 37.5188 163.282 23.6484 145.614 23.6484ZM141.879 76.7154C132.049 76.7154 127.555 67.2778 127.555 58.5334C127.555 44.7605 135.086 39.8515 142.139 39.8515C150.781 39.8515 156.592 47.3038 156.592 58.4045C156.592 71.0629 149.211 76.7154 141.879 76.7154Z" fill="#231F1F"/>
<path d="M208.905 23.6484C189.181 23.6484 175.389 37.8426 175.389 58.1593C175.389 78.1474 190.271 92.6638 210.777 92.6638C226.909 92.6638 236.765 83.1146 237.181 82.7106L237.917 81.9844L229.944 68.7475L228.758 69.8698C228.682 69.9264 221.445 76.596 211.886 76.596C202.711 76.596 195.995 70.9969 194.412 62.2116H237.826L237.93 61.0123C237.958 60.8472 238.321 56.9505 238.321 55.0469C238.321 36.2691 226.499 23.6484 208.905 23.6484ZM195.092 48.6289C197.079 42.1496 202.045 38.4776 208.905 38.4776C214.416 38.4776 218.663 42.6699 219.408 48.6289H195.092Z" fill="#231F1F"/>
<path d="M304.908 73.8166V10.0592C304.908 3.48709 301.695 0.285156 295.12 0.285156H278.756V16.3624H285.056C286.116 16.3624 286.466 16.7051 286.466 17.7693V29.2944C283.764 26.8532 278.486 23.6481 269.402 23.6481C251.635 23.6481 239.237 37.8423 239.237 58.159C239.237 78.7995 251.118 92.6635 268.784 92.6635C278.887 92.6635 284.707 87.973 287.551 84.7082C287.922 87.558 289.766 91.1655 296.618 91.1655H312.48V75.2297H306.312C305.296 75.2297 304.908 74.8242 304.908 73.8166ZM272.258 76.7151C263.551 76.7151 257.918 69.4294 257.918 58.159C257.918 47.2045 263.779 39.8512 272.508 39.8512C282.403 39.8512 286.839 48.976 286.839 58.0395C286.839 71.8156 279.3 76.7151 272.258 76.7151Z" fill="#231F1F"/>
<path d="M353.316 24.2656C345.697 24.2656 338.68 28.6638 334.522 35.6713V34.1622C334.522 28.1796 331.218 25.138 324.737 25.138H308.998V41.2169H315.292C316.353 41.2169 316.703 41.5548 316.703 42.6206V91.1652H335.009V64.7402C335.009 61.26 335.453 57.9088 336.319 54.8137C339.073 45.7015 346.398 42.4571 352.321 42.4571C354.421 42.4571 355.952 42.6803 355.974 42.6866L357.505 42.9177V24.7183L356.39 24.5297C356.334 24.5187 354.784 24.2656 353.316 24.2656Z" fill="#231F1F"/>
<path d="M383.562 73.8158V34.9162C383.562 28.3394 380.41 25.1406 373.914 25.1406H359.113V41.2179H363.844C364.911 41.2179 365.251 41.5574 365.251 42.62V81.3907C365.251 88.0602 368.324 91.1647 374.909 91.1647H391.274V75.2273H384.97C383.955 75.2273 383.562 74.8233 383.562 73.8158Z" fill="#231F1F"/>
<path d="M452.359 41.2179V25.1406H442.59C436.884 25.1406 433.822 27.1181 432.014 31.9799L420.079 65.315C419.667 66.552 419.279 67.9369 418.95 69.2667C418.601 67.9306 418.191 66.5285 417.738 65.2898L405.803 31.9689C403.971 27.0568 401.015 25.1406 395.229 25.1406H384.845V41.2179H387.541C388.968 41.2179 389.427 41.702 389.768 42.5965L408.242 91.1647H428.828L447.305 42.5965C447.643 41.702 448.115 41.2179 449.547 41.2179H452.359Z" fill="#231F1F"/>
<path d="M511.196 61.0123C511.212 60.8472 511.583 56.9505 511.583 55.0469C511.583 36.2691 499.756 23.6484 482.157 23.6484C462.433 23.6484 448.651 37.8426 448.651 58.1593C448.651 78.1474 463.516 92.6638 484.028 92.6638C500.162 92.6638 510.024 83.1146 510.434 82.7106L511.179 81.9844L503.22 68.7475L502.01 69.8698C501.947 69.9264 494.673 76.596 485.148 76.596C475.967 76.596 469.249 70.9969 467.661 62.2116H511.089L511.196 61.0123ZM468.347 48.6289C470.349 42.1496 475.299 38.4776 482.157 38.4776C487.682 38.4776 491.914 42.6699 492.664 48.6289H468.347Z" fill="#231F1F"/>
<path d="M353.316 24.2656C347.398 24.2656 341.886 26.9426 337.749 31.3973C341.244 31.3658 344.761 31.3376 348.278 31.3376C351.368 31.3376 354.432 31.3658 357.505 31.3847V24.7183L356.39 24.5297C356.334 24.5187 354.784 24.2656 353.316 24.2656Z" fill="#3B3B3C"/>
<path d="M432.014 31.9799L431.261 34.0988C438.341 34.5861 445.364 35.1237 452.359 35.7242V25.1406H442.591C436.885 25.1406 433.822 27.1181 432.014 31.9799Z" fill="#3B3B3C"/>
<path d="M44.1376 23.6484C33.8496 23.6484 27.8985 28.2651 25.0298 31.4529C24.6871 28.7068 22.8763 25.1417 15.8028 25.1417H0.442261V41.219H6.73768C7.80342 41.219 8.14609 41.5585 8.14609 42.6211V83.5311C16.5604 80.6043 25.1807 77.7827 33.9675 75.0697C28.5869 71.9903 26.0829 65.0709 26.0829 58.5318C26.0829 44.7605 33.6154 39.8515 40.6622 39.8515C49.306 39.8515 55.1189 47.3038 55.1189 58.4045C55.1189 63.0667 54.1066 66.7638 52.4734 69.59C59.3127 67.6535 66.2463 65.7751 73.2868 63.9674C73.5147 62.0921 73.6844 60.1619 73.6844 58.1593C73.6844 37.5188 61.8041 23.6484 44.1376 23.6484Z" fill="#3B3B3C"/>
<path d="M88.127 25.1406H71.7683V41.2179H78.07C79.1295 41.2179 79.4706 41.5574 79.4706 42.6216V62.4243C85.5066 60.9215 91.6024 59.4628 97.7878 58.0576V34.9162C97.7878 28.341 94.6189 25.1406 88.127 25.1406Z" fill="#3B3B3C"/>
<path d="M80.2141 0.285156H96.5366V17.4785H80.2141V0.285156Z" fill="#3B3B3C"/>
<path d="M145.616 23.6484C135.325 23.6484 129.383 28.2651 126.5 31.4529C126.157 28.7068 124.356 25.1417 117.282 25.1417H101.914V41.219H108.214C109.275 41.219 109.621 41.5585 109.621 42.6211V55.4462C115.811 54.1337 122.088 52.8604 128.402 51.6359C130.499 43.1383 136.444 39.8515 142.139 39.8515C147.295 39.8515 151.402 42.5394 153.907 47.0319C160.226 45.9787 166.588 44.9633 173.004 44.0028C168.834 31.4309 158.846 23.6484 145.616 23.6484Z" fill="#3B3B3C"/>
<path d="M208.905 23.6484C194.494 23.6484 183.283 31.2359 178.275 43.242C186.057 42.1213 193.92 41.0744 201.852 40.103C203.881 39.0451 206.243 38.4792 208.905 38.4792C209.914 38.4792 210.851 38.6678 211.759 38.9272C218.955 38.113 226.217 37.3632 233.536 36.6763C228.505 28.5103 219.818 23.6484 208.905 23.6484Z" fill="#3B3B3C"/>
<path d="M295.12 0.285156H278.756V16.3624H285.056C286.114 16.3624 286.466 16.7051 286.466 17.7693V29.2944C283.764 26.8532 278.486 23.6481 269.402 23.6481C259.458 23.6481 251.199 28.095 245.85 35.5835C265.199 33.955 284.898 32.7871 304.908 32.0845V10.0592C304.908 3.48709 301.695 0.285156 295.12 0.285156Z" fill="#3B3B3C"/>
<path d="M324.739 25.1406H308.996V31.9689C317.349 31.7033 325.74 31.5131 334.203 31.4172C333.276 27.2658 330.124 25.1406 324.739 25.1406Z" fill="#3B3B3C"/>
<path d="M365.996 0.285156H382.319V17.4785H365.996V0.285156Z" fill="#3B3B3C"/>
<path d="M373.915 25.1406H359.114V31.3967C367.199 31.4691 375.245 31.6168 383.248 31.8353C382.337 27.3633 379.286 25.1406 373.915 25.1406Z" fill="#3B3B3C"/>
<path d="M395.229 25.1406H384.845V31.884C391.953 32.0947 399.018 32.354 406.043 32.6747L405.803 31.9689C403.971 27.0568 401.015 25.1406 395.229 25.1406Z" fill="#3B3B3C"/>
<path d="M482.157 23.6484C470.91 23.6484 461.614 28.2745 455.677 36.0066C464.275 36.7611 472.822 37.6084 481.272 38.5405C482.574 38.6836 483.852 38.8156 485.133 38.9649C493.288 39.8876 501.355 40.9015 509.352 41.9924C505.163 30.6591 495.262 23.6484 482.157 23.6484Z" fill="#3B3B3C"/>
</g>
<defs>
<clipPath id="clip0_1_8503">
<rect width="512" height="117" fill="white"/>
</clipPath>
</defs>
</svg>
