<svg width="256" height="256" viewBox="0 0 256 256" fill="none" xmlns="http://www.w3.org/2000/svg">
<g clip-path="url(#clip0_1_8532)">
<path d="M94.0115 58.8465L122.565 108.298C127.098 107.086 132.047 107.44 136.546 109.545L151.557 83.5466L126.467 40.1016L93.7167 59.0145H93.7193L94.0115 58.8465ZM50.9673 122.818H108.086C108.541 121.119 109.198 119.443 110.119 117.853C111.67 115.161 113.752 112.976 116.141 111.308L101.133 85.3179H50.9518V123.141H50.9673V122.818ZM145.633 138.359C144.076 141.051 142.008 143.228 139.623 144.893L154.642 170.905H204.81V133.41H147.668C147.208 135.109 146.546 136.769 145.633 138.359ZM142.354 113.615C145.819 117.064 147.88 121.595 148.294 126.345H178.305L203.396 82.8975L170.925 64.1449L142.354 113.615ZM84.8317 192.083L113.403 142.592C109.953 139.137 107.892 134.62 107.468 129.885H77.4413L52.3507 173.312L85.0929 192.238L84.8317 192.083ZM161.753 197.368L133.205 147.914C128.675 149.137 123.72 148.793 119.216 146.675L104.2 172.681L129.275 216.116L162.027 197.211L161.753 197.368Z" fill="#ED7D1A"/>
<path d="M127.889 0.234375C57.3724 0.234375 0 57.5913 0 128.097C0 198.624 57.3724 256.002 127.889 256.002C198.4 256.002 255.76 198.624 255.76 128.097C255.76 57.5913 198.4 0.234375 127.889 0.234375ZM127.889 26.124C184.209 26.124 229.865 71.7747 229.865 128.097C229.865 184.435 184.209 230.109 127.889 230.109C71.5611 230.109 25.8974 184.435 25.8974 128.097C25.8974 71.7747 71.5611 26.124 127.889 26.124Z" fill="#5282B0"/>
</g>
<defs>
<clipPath id="clip0_1_8532">
<rect width="256" height="256" fill="white"/>
</clipPath>
</defs>
</svg>
