<svg width="512" height="129" viewBox="0 0 512 129" fill="none" xmlns="http://www.w3.org/2000/svg">
<g clip-path="url(#clip0_1_8548)">
<path d="M176.774 38.8055L176.254 38.7921L157.431 38.7902C156.715 38.7902 156.143 39.3734 156.143 40.1022V87.7681C156.143 88.4969 156.715 89.0801 157.431 89.0801H164.014C164.73 89.0801 165.302 88.4969 165.302 87.7681V77.4188L176.567 77.4164L177.18 77.3933L177.939 77.3359C180.696 77.0747 185.597 76.0484 189.489 72.3168C193.067 68.8186 194.785 64.154 194.785 58.1775C194.785 52.201 192.924 47.3908 189.489 44.0379C186.274 40.8518 182.426 39.6001 179.611 39.1084L178.662 38.9645C178.512 38.9451 178.367 38.9279 178.226 38.9126L177.437 38.8419L176.774 38.8055ZM183.049 65.4657C181.711 66.8286 179.767 67.4419 178.288 67.7179L177.534 67.8374L176.911 67.905L176.179 67.9437H165.302V48.1193L176.29 48.1189L176.979 48.1516L177.628 48.217C179.167 48.4102 181.509 48.9732 183.192 50.5976C184.767 52.201 185.625 54.679 185.625 58.0315C185.625 61.3843 184.767 63.8623 183.049 65.4657ZM231.709 79.751H212.388V40.1022C212.388 39.3734 211.816 38.7902 211.1 38.7902H204.517C203.801 38.7902 203.229 39.3734 203.229 40.1022V87.7681C203.229 88.4969 203.801 89.0801 204.517 89.0801H231.853C232.711 89.0801 233.427 88.4969 233.427 87.7681V81.063C233.427 80.3342 232.711 79.751 231.709 79.751ZM340.336 38.7902H333.753C333.037 38.7902 332.466 39.3734 332.466 40.1022V71.0048L308.994 39.2277C308.708 38.9359 308.421 38.7902 308.135 38.7902H301.552C300.836 38.7902 300.264 39.3734 300.264 40.1022V87.7681C300.264 88.4969 300.836 89.0801 301.552 89.0801H308.135C308.851 89.0801 309.423 88.4969 309.423 87.7681V57.5944L332.896 88.4969L333.037 88.643C333.182 88.7887 333.467 88.9344 333.753 88.9344H340.48C341.195 88.9344 341.766 88.3512 341.766 87.6224V40.1022C341.625 39.3734 341.051 38.7902 340.336 38.7902ZM382.557 79.751H363.235V40.1022C363.235 39.3734 362.664 38.7902 361.949 38.7902H355.366C354.65 38.7902 354.076 39.3734 354.076 40.1022V87.7681C354.076 88.4969 354.65 89.0801 355.366 89.0801H382.698C383.558 89.0801 384.274 88.4969 384.274 87.7681V81.063C384.132 80.3342 383.417 79.751 382.557 79.751ZM457.694 39.082C450.395 38.0614 442.953 40.5397 439.376 45.2042C436.514 48.8481 435.94 53.6587 437.945 58.4689C439.934 63.6659 444.848 66.1073 448.826 67.4224L449.987 67.7848C450.175 67.8401 450.359 67.893 450.54 67.9437L454.258 68.9643C456.693 69.6931 459.699 70.8591 460.555 72.8999C461.415 75.0865 460.844 76.2525 460.414 76.8356C458.796 78.8935 455.026 80.0477 451.248 79.6902L450.54 79.6053C449.349 79.4708 446.819 78.8394 445.085 77.1379L444.669 76.6899C444.161 76.042 443.426 75.7398 442.667 75.9876L437.371 78.1476C436.225 78.5847 435.795 80.0424 436.37 81.063C438.801 85.2901 443.382 88.0598 449.106 88.9344C450.251 89.0801 451.396 89.2258 452.542 89.2258C458.695 89.2258 464.421 86.8935 467.568 82.8121C470.433 79.1679 471.004 74.3576 468.999 69.5474C466.712 63.8623 461.13 61.3843 456.834 60.218L456.674 60.1452C456.585 60.1088 456.478 60.0723 456.407 60.0723L452.542 58.9064C450.11 58.1775 447.104 57.0112 446.244 54.9704C445.384 52.7841 445.959 51.6178 446.388 51.0347C448.105 48.8481 452.256 47.6822 456.263 48.2653C457.549 48.411 460.555 49.1399 462.13 51.3264C462.705 52.0553 463.561 52.201 464.277 51.9093L469.429 49.8687C470.574 49.4313 471.004 48.1193 470.289 47.099C467.998 42.7259 463.42 39.8108 457.694 39.082ZM497.625 48.2653C498.911 48.411 501.917 49.1399 503.492 51.3264C504.063 52.0553 504.923 52.201 505.638 51.9093L510.791 49.8687C511.841 49.4677 512.289 48.3319 511.806 47.3595L511.65 47.099C509.215 42.8719 504.638 39.9565 498.911 39.082C491.613 38.0614 484.17 40.5397 480.593 45.2042C477.731 48.8481 477.157 53.6587 479.162 58.4689C481.154 63.6659 486.066 66.1073 490.044 67.4224L491.205 67.7848C491.392 67.8401 491.577 67.893 491.757 67.9437L495.479 68.9643C497.91 69.6931 500.916 70.8591 501.776 72.8999C502.633 75.0865 502.061 76.2525 501.632 76.8356C500.016 78.8935 496.244 80.0477 492.465 79.6902L491.757 79.6053C490.567 79.4708 488.037 78.8394 486.305 77.1379L485.89 76.6899C485.379 76.042 484.646 75.7398 483.885 75.9876L478.588 78.1476C477.446 78.5847 477.016 80.0424 477.587 81.063C480.022 85.2901 484.6 88.0598 490.326 88.9344C491.472 89.0801 492.614 89.2258 493.759 89.2258C499.915 89.2258 505.638 86.8935 508.789 82.8121C511.65 79.1679 512.221 74.3576 510.22 69.5474C507.929 63.8623 502.347 61.3843 498.055 60.218H497.625L493.23 58.889L492.143 58.519C490.138 57.7832 488.137 56.7197 487.461 55.1164C486.737 53.2662 487.034 52.1466 487.403 51.4925L487.606 51.1804C489.467 48.8481 493.618 47.6822 497.625 48.2653ZM271.21 39.6648C270.972 39.1791 270.634 38.8956 270.197 38.8145L269.858 38.7902H262.48C261.908 38.7902 261.478 39.082 261.192 39.6648L240.44 87.1852C240.01 88.2055 240.726 89.2258 241.728 89.2258H248.884C249.456 89.2258 249.886 88.9344 250.172 88.3512L254.608 78.2933H277.794L282.231 88.3512C282.517 88.9344 282.946 89.2258 283.519 89.2258H290.675C291.676 89.2258 292.392 88.2055 291.963 87.1852L271.21 39.6648ZM258.759 68.8186L266.201 51.6178L273.643 68.8186H258.759ZM426.495 38.6445H394.578C393.721 38.6445 393.147 39.3734 393.147 40.1022V87.4767C393.147 88.3512 393.863 88.9344 394.578 88.9344H426.495C427.352 88.9344 427.926 88.2055 427.926 87.4767V81.063C427.926 80.1881 427.211 79.6053 426.495 79.6053H402.306V68.6725H419.052C419.912 68.6725 420.483 67.9437 420.483 67.2148V60.8012C420.483 59.9266 419.768 59.3435 419.052 59.3435H402.306V48.1193H426.495C427.352 48.1193 427.926 47.3904 427.926 46.6616V40.2479C427.926 39.3734 427.352 38.6445 426.495 38.6445Z" fill="#1C1C1C"/>
<path d="M54.5284 73.7741L94.3153 90.3917L5.00916 127.416C1.58675 128.811 0.128509 127.805 0.0081752 124.27L0 123.773V98.1173C0 96.6597 0.827961 95.3224 2.05377 94.6532L2.43302 94.4731L54.5284 73.7741ZM110.201 46.9526V80.9163L69.9849 65.1736C69.4126 65.0279 69.1264 64.4447 69.1264 64.0073C69.1264 63.643 69.3252 63.1774 69.7226 62.9479L110.201 46.9526ZM0 4.24848C0 0.483861 1.30944 -0.746762 4.55459 0.429037L5.00916 0.604277L94.3153 37.7752L54.5284 54.2467L2.43302 33.6935C1.13194 33.1633 0.1857 31.9106 0.0244087 30.3729L0 29.9036V4.24848Z" fill="#FF6254"/>
</g>
<defs>
<clipPath id="clip0_1_8548">
<rect width="512" height="129" fill="white"/>
</clipPath>
</defs>
</svg>
