<svg width="256" height="298" viewBox="0 0 256 298" fill="none" xmlns="http://www.w3.org/2000/svg">
<g clip-path="url(#clip0_1_8545)">
<path d="M126.67 171.379L219.096 209.982L11.6364 295.991C3.68606 299.23 0.29853 296.893 0.0189911 288.682L0 287.526V227.928C0 224.542 1.92337 221.436 4.77095 219.881L5.65195 219.463L126.67 171.379ZM256 109.072V187.97L162.576 151.399C161.247 151.061 160.582 149.706 160.582 148.69C160.582 147.844 161.044 146.762 161.967 146.229L256 109.072ZM0 9.8693C0 1.12402 3.04186 -1.73474 10.5804 0.996661L11.6364 1.40375L219.096 87.7524L126.67 126.016L5.65195 78.2705C2.62952 77.039 0.431384 74.1288 0.0567019 70.5569L0 69.4665V9.8693Z" fill="#FF6254"/>
</g>
<defs>
<clipPath id="clip0_1_8545">
<rect width="256" height="298" fill="white"/>
</clipPath>
</defs>
</svg>
