<svg width="256" height="285" viewBox="0 0 256 285" fill="none" xmlns="http://www.w3.org/2000/svg">
<g clip-path="url(#clip0_1_8557)">
<path d="M97.3254 120.758L124.087 105.435C126.511 104.047 129.489 104.047 131.912 105.435L158.675 120.758C160.641 121.884 162.003 123.785 162.464 125.952L161.61 127.188L127.998 144.037L94.1214 125.953L93.8374 124.901C94.4644 123.178 95.6844 121.698 97.3254 120.758ZM241.359 61.1876L142.46 4.56159C133.502 -0.567406 122.498 -0.567406 113.541 4.56159L14.641 61.1876C9.058 64.3846 4.8 69.2766 2.35 75.0026L2.328 75.5866L24.166 87.7186L24.734 87.4916C26.72 82.6516 30.272 78.5116 34.96 75.8266L116.132 29.3506C123.484 25.1416 132.516 25.1416 139.868 29.3506L221.04 75.8266C226.565 78.9906 230.513 84.1756 232.177 90.1456L233.621 91.0866L254.415 80.4936L254.878 78.4706C252.824 71.2656 248.04 65.0126 241.359 61.1876ZM76.3281 105.631L121.409 79.8187C125.492 77.4817 130.508 77.4817 134.591 79.8187L179.672 105.631C182.862 107.457 185.101 110.497 185.957 113.979L186.318 114.371L208.521 103.117L208.761 102.409C207.535 97.6317 204.434 93.4687 200.043 90.9547L137.189 54.9677C131.497 51.7077 124.503 51.7077 118.811 54.9677L55.9581 90.9547C52.3091 93.0437 49.4731 96.4657 47.9401 100.238L48.2211 100.907L69.8481 113.11L70.3731 112.835C71.4031 109.836 73.4921 107.255 76.3281 105.631Z" fill="#FF4300"/>
<path d="M232.176 90.1447C232.75 92.2047 233.056 94.3567 233.056 96.5527V189.162C233.056 197.726 228.471 205.634 221.039 209.889L139.867 256.365C136.191 258.47 132.056 259.521 127.961 259.521L127.445 260.101L127.397 284.147L127.998 285.001C132.989 285.001 137.98 283.719 142.459 281.155L241.358 224.529C250.413 219.344 256 209.709 256 199.274V86.4408C256 83.7058 255.607 81.0287 254.877 78.4688L232.176 90.1447ZM208.761 102.408L185.957 113.977C186.208 115.001 186.346 116.061 186.346 117.141V168.574C186.346 173.33 183.799 177.722 179.672 180.085L134.591 205.897C132.512 207.087 130.191 207.668 127.875 207.646L127.202 208.642L127.436 232.18L127.875 233.189C131.088 233.211 134.306 232.4 137.189 230.749L200.043 194.762C205.797 191.467 209.347 185.343 209.347 178.712V107.003C209.347 105.432 209.142 103.891 208.761 102.408ZM162.464 125.951C162.552 126.422 162.636 127.102 162.636 127.591V158.124C162.636 160.947 161.125 163.554 158.675 164.957L131.913 180.28C130.7 180.975 129.348 181.322 127.997 181.321L127.344 180.268L127.462 143.465L127.999 142.957L162.464 125.951Z" fill="#FF5B00"/>
<path d="M127.999 142.96L128 181.324C126.65 181.324 125.3 180.977 124.088 180.283L97.3256 164.96C94.8746 163.557 93.3636 160.95 93.3636 158.127V127.594C93.3636 126.664 93.5276 125.757 93.8356 124.908L127.999 142.96ZM127.875 207.652C125.642 207.631 123.413 207.047 121.409 205.899L93.5502 189.948V240.605L69.4872 227.689L69.6542 117.144C69.6542 115.692 69.9262 114.172 70.3732 112.836L47.9402 100.239C47.1452 102.315 46.6522 104.712 46.6522 107.005L46.3082 215.657L34.8072 209.11C27.3762 204.855 22.9432 197.728 22.9432 189.164V96.5549C22.9432 93.3939 23.5722 90.3239 24.7342 87.4929L2.35024 75.0039C0.827244 78.5629 0.000244141 82.4429 0.000244141 86.4429V199.277C0.000244141 209.711 5.58624 219.346 14.6412 224.531L113.54 281.157C118.018 283.721 123.008 285.003 127.998 285.003L127.875 207.652Z" fill="#DC2F03"/>
</g>
<defs>
<clipPath id="clip0_1_8557">
<rect width="256" height="285" fill="white"/>
</clipPath>
</defs>
</svg>
