<svg width="256" height="137" viewBox="0 0 256 137" fill="none" xmlns="http://www.w3.org/2000/svg">
<g clip-path="url(#clip0_1_8552)">
<path d="M256 120.555C252.034 53.3063 196.248 0 128 0C59.7601 0 3.96634 53.3063 0 120.555C0.2308 123.452 0.700948 125.589 1.64124 127.436C3.2803 130.653 5.8956 133.268 9.11233 134.907C12.5487 136.659 16.9766 136.762 25.4222 136.77V128.222C25.4222 71.5737 71.3514 25.6445 128 25.6445C184.649 25.6445 230.578 71.5737 230.578 128.222V136.77C239.023 136.77 243.451 136.659 246.888 134.907C250.104 133.268 252.72 130.653 254.359 127.436C255.299 125.589 255.769 123.452 256 120.555Z" fill="#0091FF"/>
<path d="M128 59.8359C90.2319 59.8359 59.6148 90.453 59.6148 128.221V136.769H33.9703V128.221C33.9703 76.2911 76.07 34.1914 128 34.1914C179.93 34.1914 222.03 76.2911 222.03 128.221V136.769H196.385V128.221C196.385 90.453 165.768 59.8359 128 59.8359Z" fill="#46A758"/>
<path d="M187.837 136.772V128.224C187.837 95.1767 161.047 68.3867 128 68.3867C94.9529 68.3867 68.163 95.1767 68.163 128.224V136.772H85.2593C89.9803 136.772 93.8074 132.945 93.8074 128.224C93.8074 109.34 109.116 94.0312 128 94.0312C146.884 94.0312 162.193 109.34 162.193 128.224C162.193 132.945 166.02 136.772 170.741 136.772H187.837Z" fill="#E54D2E"/>
</g>
<defs>
<clipPath id="clip0_1_8552">
<rect width="256" height="137" fill="white"/>
</clipPath>
</defs>
</svg>
