<svg width="256" height="256" viewBox="0 0 256 256" fill="none" xmlns="http://www.w3.org/2000/svg">
<g clip-path="url(#clip0_1_8562)">
<path d="M128 0C93.81 0 61.666 13.314 37.49 37.49C13.314 61.666 0 93.81 0 128C0 162.19 13.314 194.334 37.49 218.51C61.666 242.686 93.81 256 128 256C162.19 256 194.334 242.686 218.51 218.51C242.686 194.334 256 162.19 256 128C256 93.81 242.686 61.666 218.51 37.49C194.334 13.314 162.19 0 128 0Z" fill="#FF7F00"/>
<path d="M249.386 127.999C249.386 195.039 195.039 249.385 128 249.385C60.9604 249.385 6.6134 195.039 6.6134 127.999C6.6134 60.9593 60.9604 6.61328 128 6.61328C195.039 6.61328 249.386 60.9593 249.386 127.999Z" fill="white"/>
<path d="M160.869 74.0626L166.014 55.5256C171.278 55.0566 175.406 50.6396 175.406 45.2526C175.406 39.5536 170.786 34.9336 165.087 34.9336C159.387 34.9336 154.767 39.5536 154.767 45.2526C154.767 49.0076 156.779 52.2836 159.777 54.0896L154.727 72.2846C140.289 68.6156 128.101 68.8956 128.101 68.8956L125.843 69.9046V210.777L128.101 211.53C141.715 211.53 201.278 170.397 201.424 126.26C201.424 94.6356 180.401 80.4346 160.869 74.0626ZM146.531 164.801C134.914 146.244 139.825 103.05 170.174 96.8756C178.495 95.5426 188.683 101.01 191.685 113.155C199.266 138.921 154.669 175 146.531 164.801ZM164.747 125.049C159.556 125.049 155.348 129.257 155.348 134.448C155.348 139.639 159.556 143.847 164.747 143.847C169.938 143.847 174.146 139.639 174.146 134.448C174.146 129.257 169.938 125.049 164.747 125.049ZM167.557 133.721C166.246 133.721 165.183 132.658 165.183 131.347C165.183 130.036 166.246 128.973 167.557 128.973C168.868 128.973 169.931 130.036 169.931 131.347C169.931 132.658 168.868 133.721 167.557 133.721Z" fill="#E57200"/>
<path d="M101.371 72.7072L96.3482 53.8062C99.2222 51.9742 101.134 48.7662 101.134 45.1052C101.134 39.4062 96.5142 34.7852 90.8142 34.7852C85.1152 34.7852 80.4952 39.4062 80.4952 45.1052C80.4952 50.7872 85.0872 55.3942 90.7622 55.4222L95.7992 74.3762C76.1902 80.8862 54.9142 95.1182 54.9142 126.257C55.3502 171.266 114.486 211.523 128.1 211.523V68.8902C128.1 68.8902 115.848 68.8282 101.371 72.7072ZM111.766 164.798C103.628 174.997 59.0312 138.918 66.6122 113.152C69.6142 101.007 79.8022 95.5402 88.1232 96.8732C118.472 103.047 123.383 146.241 111.766 164.798ZM92.9461 125.337C87.7551 125.337 83.5471 129.545 83.5471 134.736C83.5471 139.927 87.7551 144.135 92.9461 144.135C98.1371 144.135 102.345 139.927 102.345 134.736C102.345 129.545 98.1371 125.337 92.9461 125.337ZM90.1361 134.009C88.8251 134.009 87.7621 132.946 87.7621 131.635C87.7621 130.324 88.8251 129.261 90.1361 129.261C91.4471 129.261 92.5101 130.324 92.5101 131.635C92.5101 132.946 91.4471 134.009 90.1361 134.009Z" fill="#FF7F00"/>
</g>
<defs>
<clipPath id="clip0_1_8562">
<rect width="256" height="256" fill="white"/>
</clipPath>
</defs>
</svg>
