<svg width="256" height="192" viewBox="0 0 256 192" fill="none" xmlns="http://www.w3.org/2000/svg">
<g clip-path="url(#clip0_1_8573)">
<path d="M84.3803 108.351C74.8238 111.063 68.5543 115.819 64.4242 120.57C68.38 117.108 73.6788 113.931 80.8265 111.905C88.1373 109.833 94.3742 109.848 99.5277 110.842V106.813C95.1314 106.411 90.0914 106.731 84.3803 108.351ZM63.9874 74.4746L28.4965 83.8248C28.4965 83.8248 29.1433 84.7385 30.341 85.9577L60.4329 78.0284C60.4329 78.0284 60.0064 83.523 56.3034 88.4384C63.3081 83.1389 63.9874 74.4746 63.9874 74.4746ZM93.6956 157.884C43.7505 171.337 17.3261 113.455 9.32589 83.4125C5.6297 69.5451 4.01617 59.0424 3.58611 52.2648C3.53991 51.561 3.56127 50.9677 3.61103 50.4241C1.02013 50.5806 -0.220285 51.9274 0.0320857 55.8194C0.462146 62.5932 2.07567 73.0952 5.77186 86.9671C13.7685 117.005 40.1964 174.887 90.1418 161.435C101.013 158.506 109.18 153.171 115.311 146.362C109.66 151.466 102.588 155.485 93.6956 157.884ZM103.081 39.0508V42.6053H122.672C122.27 41.3468 121.865 40.2129 121.463 39.0508H103.081Z" fill="#2D4552"/>
<path d="M127.05 68.3235C135.861 70.8257 140.52 77.0026 142.983 82.469L152.806 85.2589C152.806 85.2589 151.466 66.1276 134.162 61.2122C117.973 56.6127 108.011 70.2072 106.799 71.9663C111.508 68.6112 118.385 65.8643 127.05 68.3235ZM205.247 82.5573C189.043 77.937 179.085 91.5597 177.891 93.2943C182.604 89.943 189.477 87.1953 198.138 89.6656C206.934 92.1715 211.59 98.341 214.061 103.811L223.898 106.611C223.898 106.611 222.536 87.4764 205.247 82.5573ZM195.487 133L113.769 110.155C113.769 110.155 114.653 114.64 118.048 120.448L186.851 139.682C192.515 136.405 195.487 133 195.487 133ZM138.832 182.174C74.1266 164.826 81.9492 82.3837 92.4192 43.3171C96.7302 27.2174 101.162 15.251 104.838 7.22952C102.645 6.7781 100.828 7.93324 99.0337 11.5832C95.1313 19.498 90.141 32.385 85.3116 50.4254C74.8445 89.4913 67.022 171.931 131.724 189.279C162.221 197.449 185.979 185.032 203.69 165.53C186.879 180.756 165.416 189.293 138.832 182.174Z" fill="#2D4552"/>
<path d="M103.081 138.564V121.928L56.8577 135.035C56.8577 135.035 60.2733 115.19 84.3801 108.351C91.691 106.279 97.9287 106.293 103.081 107.288V39.0505H126.226C123.706 31.2636 121.268 25.2684 119.22 21.1028C115.833 14.208 112.361 18.7786 104.479 25.3715C98.9269 30.0096 84.8956 39.9041 63.7811 45.5938C42.6664 51.2871 25.5963 49.7772 18.474 48.5439C8.37689 46.8019 3.09557 44.5845 3.58964 52.2646C4.01962 59.0385 5.63322 69.5412 9.32941 83.4123C17.326 113.451 43.7539 171.333 93.6992 157.88C106.746 154.365 115.954 147.417 122.337 138.561H103.081V138.564ZM28.4929 83.8246L63.9873 74.4744C63.9873 74.4744 62.9528 88.1289 49.6465 91.6367C36.3366 95.1409 28.4929 83.8246 28.4929 83.8246Z" fill="#E2574C"/>
<path d="M236.664 39.84C227.438 41.4575 205.303 43.4724 177.948 36.1401C150.585 28.8123 132.431 15.996 125.238 9.97192C115.041 1.43152 110.556 -4.50375 106.142 4.47383C102.24 12.3922 97.2494 25.2792 92.4193 43.3197C81.9529 82.3856 74.1304 164.825 138.832 182.173C203.519 199.506 237.958 124.195 248.425 85.1258C253.255 67.0891 255.373 53.4308 255.956 44.6242C256.62 34.648 249.768 37.544 236.664 39.84ZM106.668 72.161C106.668 72.161 116.864 56.3023 134.158 61.2177C151.463 66.1331 152.803 85.2645 152.803 85.2645L106.668 72.161ZM148.883 143.324C118.464 134.413 113.772 110.157 113.772 110.157L195.487 133.003C195.487 132.999 178.993 152.123 148.883 143.324ZM177.774 93.4741C177.774 93.4741 187.956 77.6266 205.247 82.5561C222.537 87.479 223.898 106.61 223.898 106.61L177.774 93.4741Z" fill="#2EAD33"/>
<path d="M86.9285 126.511L56.8579 135.033C56.8579 135.033 60.1244 116.425 82.2763 109.05L65.2489 45.1484L63.7776 45.5956C42.663 51.2897 25.5929 49.7791 18.4706 48.5458C8.37353 46.8045 3.09222 44.5863 3.58621 52.2672C4.01627 59.0411 5.62979 69.543 9.32599 83.4149C17.3226 113.453 43.7506 171.334 93.6957 157.882L95.167 157.42L86.9285 126.511ZM28.493 83.8272L63.9874 74.4762C63.9874 74.4762 62.9529 88.1308 49.6467 91.6386C36.3368 95.1427 28.493 83.8272 28.493 83.8272Z" fill="#D65348"/>
<path d="M150.255 143.658L148.879 143.323C118.46 134.413 113.769 110.157 113.769 110.157L155.906 121.935L178.214 36.2113L177.944 36.1401C150.582 28.8123 132.428 15.996 125.234 9.97192C115.038 1.43152 110.552 -4.50375 106.138 4.47383C102.24 12.3922 97.2494 25.2792 92.4193 43.3197C81.9529 82.3856 74.1304 164.825 138.832 182.172L140.158 182.471L150.255 143.658ZM106.668 72.161C106.668 72.161 116.864 56.3023 134.158 61.2177C151.463 66.1331 152.803 85.2645 152.803 85.2645L106.668 72.161Z" fill="#1D8D22"/>
<path d="M88.4607 126.073L80.3964 128.362C82.3016 139.102 85.6596 149.409 90.9303 158.514C91.8477 158.312 92.7576 158.138 93.692 157.882C96.1408 157.221 98.4117 156.403 100.598 155.511C94.7088 146.772 90.8131 136.707 88.4607 126.073ZM85.3118 50.4289C81.1677 65.896 77.4604 88.1584 78.4808 110.488C80.3074 109.696 82.2371 108.957 84.3804 108.349L85.8732 108.015C84.0533 84.1633 87.9876 59.8578 92.4194 43.3206C93.543 39.1371 94.6695 35.2459 95.7923 31.6172C93.9835 32.7682 92.036 33.9481 89.8179 35.1636C88.322 39.7808 86.8114 44.8275 85.3118 50.4289Z" fill="#C04B41"/>
</g>
<defs>
<clipPath id="clip0_1_8573">
<rect width="256" height="192" fill="white"/>
</clipPath>
</defs>
</svg>
