<svg width="512" height="266" viewBox="0 0 512 266" fill="none" xmlns="http://www.w3.org/2000/svg">
<g clip-path="url(#clip0_1_8568)">
<path d="M7.53261 14.6271L14.3011 7.85869C24.6721 -2.40314 41.5932 -1.74813 51.0908 9.27788L144.757 118.446C152.945 127.944 152.836 142.027 144.539 151.415L51.2 257.199C41.5932 268.007 24.8904 268.553 14.6286 258.291L7.86011 251.523C-1.31004 242.353 -1.96505 227.724 6.33175 217.68L62.226 150.651C69.8678 141.481 69.977 128.271 62.5535 118.883L5.78591 47.9235C-2.29255 38.0984 -1.52837 23.6881 7.53261 14.6271Z" fill="#92D13D"/>
<path d="M62.1169 150.871L6.22263 217.901C-2.07417 227.835 -1.41916 242.573 7.75099 251.743L14.5194 258.511C24.7813 268.773 41.484 268.227 51.0909 257.42L71.287 234.494C78.9288 219.429 83.1864 202.399 83.1864 184.386C83.1864 162.116 76.6363 141.483 65.5011 124.125C69.6495 132.64 68.5578 143.229 62.1169 150.871Z" fill="#49691F"/>
<path d="M192.791 214.515H171.067V88.2073H192.791V101.417C195.848 92.5741 206.874 86.2423 221.939 86.2423C234.821 86.2423 245.629 90.8274 254.362 99.9975C263.205 109.059 267.572 120.303 267.572 133.84C267.572 147.377 263.205 158.621 254.362 167.9C245.629 176.961 234.821 181.437 221.939 181.437C206.874 181.437 195.848 175.105 192.791 166.263V214.515ZM199.123 113.971C193.883 119.211 191.154 125.98 191.154 133.949C191.154 141.918 193.883 148.577 199.123 153.927C204.582 159.167 211.241 161.896 219.101 161.896C226.961 161.896 233.184 159.167 238.315 153.927C243.555 148.687 246.066 141.918 246.066 133.949C246.066 125.98 243.555 119.32 238.315 113.971C233.293 108.731 226.852 106.002 219.101 106.002C211.35 106.002 204.582 108.731 199.123 113.971ZM275.104 53.2734H296.829V149.669C296.829 158.512 299.776 162.333 307.746 162.333C310.257 162.333 312.44 162.114 314.296 161.569V181.001C311.785 181.765 308.292 182.092 303.925 182.092C284.711 182.092 275.104 172.267 275.104 152.508V53.2734ZM387.875 101.417V88.2073H409.6V151.962C409.6 159.713 411.456 162.66 416.259 162.66C417.569 162.66 419.207 162.442 420.844 162.333V179.909C418.443 180.782 414.84 181.328 410.146 181.328C404.906 181.328 400.757 180.455 397.482 178.38C393.443 175.651 390.932 172.049 390.059 167.354C383.727 176.961 373.247 181.656 358.727 181.656C345.846 181.656 335.038 177.18 326.086 167.9C317.353 158.621 312.986 147.377 312.986 133.84C312.986 120.303 317.353 109.059 326.086 99.9975C334.929 90.7182 345.846 86.2423 358.727 86.2423C373.356 86.2423 384.382 92.7924 387.875 101.417ZM381.325 153.818C386.784 148.577 389.513 141.809 389.513 133.84C389.513 125.87 386.784 119.211 381.325 113.862C376.085 108.622 369.317 105.893 361.566 105.893C353.815 105.893 347.483 108.622 342.134 113.862C337.112 119.102 334.492 125.87 334.492 133.84C334.492 141.809 337.003 148.468 342.134 153.818C347.374 159.058 353.706 161.787 361.566 161.787C369.426 161.787 376.085 159.058 381.325 153.818ZM428.377 197.812C431.106 198.686 434.49 199.232 438.53 199.232C442.023 199.232 444.534 198.467 446.499 197.267C448.464 196.066 450.32 193.227 451.739 189.516L454.141 182.966L415.932 88.2073H437.765L464.621 157.093L489.839 88.2073H511.782L470.843 194.428C468.114 201.524 464.839 206.983 461.018 210.694C455.56 215.716 448.355 218.336 439.075 218.336C435.036 218.336 431.434 217.79 428.377 216.917V197.812Z" fill="#49691F"/>
</g>
<defs>
<clipPath id="clip0_1_8568">
<rect width="512" height="266" fill="white"/>
</clipPath>
</defs>
</svg>
