<svg width="512" height="108" viewBox="0 0 512 108" fill="none" xmlns="http://www.w3.org/2000/svg">
<g clip-path="url(#clip0_1_8587)">
<path d="M107.95 53.9733C107.95 83.7831 83.7831 107.947 53.9733 107.947C24.1636 107.947 0 83.7831 0 53.9733C0 24.1636 24.1636 0 53.9733 0C83.7831 0 107.95 24.1636 107.95 53.9733Z" fill="url(#paint0_linear_1_8587)"/>
<path d="M40.0981 25.9258V82.0211L88.6784 53.9748L40.0981 25.9258ZM44.7488 33.9812L79.3771 53.9748L44.7488 73.9684V33.9812Z" fill="#FFFFFE"/>
<path d="M28.9309 32.0469V75.894L66.9014 53.969L28.9309 32.0469ZM33.5816 40.1023L57.6029 53.969L33.5816 67.8414V40.1023Z" fill="#FFFFFE"/>
<path d="M424.636 38.8477C429.733 38.8477 432.87 40.2699 435.877 42.8213L432.614 46.704C430.362 44.7812 428.146 43.5694 424.425 43.5694C419.215 43.5694 415.216 47.9817 414.955 53.3324L414.942 53.9744C414.942 59.9904 418.91 64.4221 424.886 64.4221C427.645 64.4221 430.151 63.546 431.946 62.2062V56.7307H424.468V52.2621H436.921V64.5472C434.04 67.0105 429.901 69.1012 424.718 69.1012C415.794 69.1012 409.852 62.9036 409.56 54.6924L409.549 53.9744C409.549 45.7853 415.818 38.8477 424.636 38.8477ZM209.818 39.3483V55.9797C209.818 61.4126 212.619 64.3367 217.213 64.3367C221.77 64.3367 224.569 61.5805 224.569 56.1902V39.3483H229.709V55.9371C229.709 64.6724 224.779 69.0613 217.134 69.0613C209.525 69.0613 204.678 64.6724 204.678 56.1902V39.3483H209.818ZM365.042 38.9301C369.303 38.9301 372.685 40.2272 375.654 42.6109L372.898 46.4964C370.267 44.5309 367.633 43.4869 364.956 43.4869C362.124 43.4869 360.405 44.8551 360.213 46.6192L360.195 47.0368C360.195 48.9316 361.138 49.9432 364.758 51.0108L365.866 51.3182C366.261 51.4217 366.682 51.5265 367.13 51.6334C373.084 53.0824 376.288 55.1908 376.517 59.6731L376.531 60.2805C376.531 65.7589 372.227 69.0158 366.086 69.0158C361.614 69.0158 357.396 67.4713 353.886 64.3367L356.975 60.6589C359.777 63.0852 362.579 64.459 366.211 64.459C369.209 64.459 371.167 63.1575 371.375 61.1462L371.393 60.7015C371.393 58.8617 370.486 57.7687 366.568 56.678L365.423 56.38C365.219 56.3302 365.009 56.2802 364.792 56.2301L363.499 55.9014C358.29 54.5007 355.291 52.6515 355.068 48.0617L355.055 47.4123C355.055 42.3975 359.233 38.9301 365.042 38.9301ZM148.733 39.3483C155.323 39.3483 159.569 42.9872 159.836 48.5635L159.849 49.21C159.849 55.7693 154.584 59.1997 148.147 59.1997H142.339V68.6005H137.199V39.3483H148.733ZM177.752 39.3483V63.9186H193.129V68.6005H172.609V39.3483H177.752ZM257.308 39.3483C260.986 39.3483 263.868 40.4377 265.748 42.2724C267.164 43.7273 268.02 45.677 268.153 47.9527L268.171 48.6695C268.171 53.4709 265.284 56.3581 261.194 57.5271L269.09 68.6005H263.034L255.844 58.4032H249.407V68.6005H244.27V39.3483H257.308ZM297.102 39.1406L309.973 68.5977H304.54L301.574 61.5378H287.744L284.735 68.5977H279.47L292.341 39.1406H297.102ZM327.62 39.3483V63.9186H343V68.6005H322.483V39.3483H327.62ZM395.523 39.3483V68.6005H390.386V39.3483H395.523ZM456.24 39.3483V51.5083H470.195V39.3483H475.338V68.6005H470.195V56.2727H456.24V68.6005H451.1V39.3483H456.24ZM512 39.3483V44.1127H502.721V68.6005H497.542V44.1127H488.263V39.3483H512ZM294.639 45.2818L289.624 56.981H299.694L294.639 45.2818ZM148.315 44.0274H142.339V54.5575H148.315C152.024 54.5575 154.403 52.58 154.612 49.7457L154.627 49.2498C154.627 45.8279 152.161 44.0274 148.315 44.0274ZM256.89 44.0274H249.407V53.8521H256.93C260.43 53.8521 262.723 52.1054 262.933 49.3763L262.949 48.8772C262.949 45.7426 260.691 44.0274 256.89 44.0274Z" fill="#1B1A19"/>
</g>
<defs>
<linearGradient id="paint0_linear_1_8587" x1="5397.33" y1="170.098" x2="5397.33" y2="10842.5" gradientUnits="userSpaceOnUse">
<stop stop-color="#DF5430"/>
<stop offset="1" stop-color="#D7197E"/>
</linearGradient>
<clipPath id="clip0_1_8587">
<rect width="512" height="108" fill="white"/>
</clipPath>
</defs>
</svg>
