<svg width="256" height="210" viewBox="0 0 256 210" fill="none" xmlns="http://www.w3.org/2000/svg">
<g clip-path="url(#clip0_1_8593)">
<path d="M175.281 0L165.926 16.0383C164.858 17.8694 162.933 18.8898 160.954 18.8898C159.971 18.8898 158.974 18.6383 158.063 18.1065C155.32 16.5069 154.395 12.9856 155.994 10.2433L161.969 0H145.17C145.172 0.980207 144.948 1.97191 144.422 2.88026L118.577 47.5185C112.239 58.51 98.6394 64.8819 88.0655 64.8819C88.0655 64.8819 85.3074 64.8819 79.7911 64.8819C76.6162 64.8819 74.0421 62.3078 74.0421 59.1329C74.0421 55.958 76.6162 53.3839 79.7911 53.3839H88.0655C95.5602 53.3839 104.148 48.0574 108.414 42.1388C111.258 38.1931 119.387 24.1469 132.801 0H117.532C93.4091 51.9466 79.0366 41.8859 35.919 41.8859C33.0646 46.2091 30.1944 50.5482 27.3874 54.8212H57.4778C60.6527 54.8212 63.2268 57.3953 63.2268 60.5702C63.2268 63.7451 60.6527 66.3192 57.4778 66.3192H19.8922C17.3267 70.3004 14.8877 74.1421 12.6527 77.7611L107.108 77.0971L102.881 77.1C108.601 77.2164 117.854 73.8676 122.334 66.8251L144.604 31.6253C146.301 28.942 149.851 28.1429 152.536 29.8417C155.218 31.5391 156.017 35.0891 154.32 37.7739L132.042 72.9866C125.326 83.5389 112.614 88.7648 102.712 88.5966L5.82577 89.3066C1.33436 97.3854 0.000121638 102.663 0.0566397 105.125H128.488L194.017 4.51729C189.88 2.13307 183.956 0.205527 176.375 0H175.281Z" fill="url(#paint0_linear_1_8593)"/>
<path d="M128.489 105.125H0.0556557C-0.356836 111.216 1.5427 117.543 5.11715 123.102C6.57582 123.102 7.64148 123.102 8.31411 123.102H8.36154H91.1048C104.484 121.633 116.355 127.197 126.718 139.794L148.281 174.655C149.974 177.341 149.166 180.891 146.48 182.583C145.529 183.182 144.469 183.468 143.423 183.468C141.512 183.468 139.645 182.517 138.552 180.781C125.257 159.23 117.161 147.04 114.265 144.211C109.92 139.966 104.355 134.633 91.1048 134.633H12.3384L20.0105 146.817H50.7145C53.8894 146.817 56.4635 149.391 56.4635 152.566C56.4635 155.741 53.8894 158.315 50.7145 158.315H27.2499L34.4822 169.801C86.2233 169.801 93.4096 175.55 111.174 209.839H126.246C113.375 186.853 105.241 173.294 101.846 169.161C96.7528 162.963 89.8895 158.315 81.0038 158.315H73.0279C69.853 158.315 67.2789 155.741 67.2789 152.566C67.2789 149.391 69.853 146.817 73.0279 146.817H81.0038C93.1945 146.817 106.874 154.648 111.812 164.18L139.094 208.819C139.285 209.149 139.436 209.491 139.555 209.839H160.11L153.543 198.581C151.942 195.839 152.869 192.319 155.611 190.718C156.522 190.187 157.52 189.934 158.503 189.934C160.48 189.934 162.406 190.955 163.474 192.787L173.421 209.839H178.478C182.484 209.852 185.419 209.426 191.143 205.733L128.489 105.125Z" fill="url(#paint1_linear_1_8593)"/>
<path d="M194.017 4.51562L186.032 16.6676L195.926 31.5087C197.687 34.1504 196.974 37.7205 194.331 39.4811C193.352 40.1351 192.244 40.447 191.148 40.447C189.29 40.447 187.466 39.5487 186.36 37.8872L179.172 27.1064L171.235 39.1822L199.588 85.5868C206.217 96.4323 206.185 109.888 199.508 120.705C199.421 120.841 199.331 120.976 199.234 121.107L195.762 125.794C194.634 127.315 192.896 128.119 191.138 128.119C189.948 128.119 188.748 127.751 187.719 126.99C185.168 125.098 184.633 121.498 186.523 118.947L189.843 114.468C194.114 107.393 194.093 98.6457 189.777 91.5816L164.253 49.8078L127.904 105.123L156.489 62.0331L170.606 83.8419C177.85 95.0338 177.821 109.444 170.532 120.608L153.774 146.281L127.904 105.123L161.16 158.033L176.483 137.604C178.389 135.066 181.99 134.551 184.531 136.455C187.071 138.36 187.586 141.964 185.681 144.504L167.714 168.46L176.453 182.361L218.81 115.483C223.64 107.857 223.696 97.9658 218.952 90.2866L198.467 57.122C196.8 54.4214 197.636 50.8785 200.338 49.2099C203.042 47.5412 206.582 48.3792 208.25 51.0798L228.734 84.2444C235.774 95.6418 235.69 110.318 228.524 121.636L183.783 192.278C183.603 192.563 183.396 192.817 183.177 193.059L191.138 205.731C194.607 202.991 197.077 200.69 198.547 198.827C215.417 177.459 232.976 151.786 251.223 121.808C257.471 111.543 257.634 98.8239 251.453 88.5892C227.936 49.6569 201.81 8.37764 194.017 4.51562Z" fill="url(#paint2_linear_1_8593)"/>
</g>
<defs>
<linearGradient id="paint0_linear_1_8593" x1="13020.7" y1="6800.25" x2="11063.6" y2="3544.37" gradientUnits="userSpaceOnUse">
<stop stop-color="#520BF5"/>
<stop offset="1" stop-color="#9D1FE0"/>
</linearGradient>
<linearGradient id="paint1_linear_1_8593" x1="12895" y1="3769.5" x2="10513.1" y2="7571.45" gradientUnits="userSpaceOnUse">
<stop stop-color="#9E1FA7"/>
<stop offset="1" stop-color="#E540AE"/>
</linearGradient>
<linearGradient id="paint2_linear_1_8593" x1="12937.6" y1="10065.3" x2="3967.39" y2="10065.3" gradientUnits="userSpaceOnUse">
<stop stop-color="#4B6AF2"/>
<stop offset="1" stop-color="#4CA7EB"/>
</linearGradient>
<clipPath id="clip0_1_8593">
<rect width="256" height="210" fill="white"/>
</clipPath>
</defs>
</svg>
