<svg width="512" height="125" viewBox="0 0 512 125" fill="none" xmlns="http://www.w3.org/2000/svg">
<g clip-path="url(#clip0_1_8598)">
<path d="M104.068 0L98.5141 9.52235C97.8801 10.6095 96.7375 11.2154 95.5624 11.2154C94.9788 11.2154 94.3866 11.066 93.8455 10.7503C92.2174 9.80053 91.6678 7.70987 92.6176 6.08171L96.1649 0H86.1911C86.192 0.581973 86.0589 1.17077 85.7466 1.71008L70.4019 28.2129C66.6389 34.7389 58.5646 38.522 52.2865 38.522C52.2865 38.522 50.649 38.522 47.3739 38.522C45.4888 38.522 43.9605 36.9937 43.9605 35.1087C43.9605 33.2237 45.4888 31.6954 47.3739 31.6954H52.2865C56.7363 31.6954 61.8354 28.5329 64.368 25.0189C66.0564 22.6762 70.8828 14.3366 78.8474 0H69.7815C55.4592 30.842 46.9259 24.8687 21.3259 24.8687C19.6311 27.4355 17.927 30.0117 16.2605 32.5487H34.1259C36.0109 32.5487 37.5392 34.077 37.5392 35.962C37.5392 37.847 36.0109 39.3754 34.1259 39.3754H11.8103C10.2871 41.7391 8.83903 44.0201 7.5121 46.1687L63.5923 45.7745L61.0827 45.7762C64.4789 45.8453 69.9727 43.8571 72.6325 39.6757L85.8549 18.7767C86.8627 17.1836 88.9705 16.7091 90.5645 17.7178C92.1568 18.7255 92.6312 20.8333 91.6235 22.4273L78.3968 43.334C74.4092 49.5991 66.8614 52.7019 60.9828 52.602L3.45876 53.0236C0.792098 57.8202 -7.13691e-05 60.9538 0.0334848 62.4154H76.2865L115.193 2.68203C112.737 1.26646 109.219 0.122027 104.718 0H104.068Z" fill="url(#paint0_linear_1_8598)"/>
<path d="M76.2869 62.4141H0.0330442C-0.211862 66.0305 0.915939 69.7869 3.03818 73.0876C3.90423 73.0876 4.53694 73.0876 4.9363 73.0876H4.96446H54.0912C62.035 72.215 69.083 75.5186 75.2355 82.9982L88.0382 103.696C89.0434 105.291 88.5638 107.398 86.9689 108.403C86.404 108.759 85.7751 108.928 85.1539 108.928C84.019 108.928 82.9105 108.363 82.2619 107.333C74.3683 94.5376 69.5615 87.3001 67.8418 85.6202C65.2622 83.1003 61.9582 79.9338 54.0912 79.9338H7.32563L11.8807 87.1676H30.1105C31.9955 87.1676 33.5238 88.6959 33.5238 90.5809C33.5238 92.4659 31.9955 93.9942 30.1105 93.9942H16.179L20.4729 100.814C51.1929 100.814 55.4596 104.227 66.0068 124.586H74.9557C67.3134 110.938 62.4843 102.888 60.4684 100.434C57.4446 96.7538 53.3696 93.9942 48.094 93.9942H43.3585C41.4735 93.9942 39.9452 92.4659 39.9452 90.5809C39.9452 88.6959 41.4735 87.1676 43.3585 87.1676H48.094C55.3319 87.1676 63.4536 91.8174 66.3857 97.4767L82.5837 123.979C82.6972 124.176 82.7868 124.379 82.8576 124.586H95.0611L91.1622 117.901C90.2116 116.273 90.762 114.183 92.3902 113.233C92.9312 112.918 93.5234 112.768 94.1071 112.768C95.2813 112.768 96.4247 113.373 97.0588 114.461L102.965 124.586H105.967C108.345 124.593 110.088 124.34 113.486 122.147L76.2869 62.4141Z" fill="url(#paint1_linear_1_8598)"/>
<path d="M115.193 2.68359L110.452 9.89853L116.326 18.71C117.371 20.2785 116.948 22.3982 115.379 23.4435C114.798 23.8318 114.14 24.0169 113.49 24.0169C112.386 24.0169 111.303 23.4836 110.646 22.4971L106.379 16.0963L101.667 23.266L118.5 50.8176C122.436 57.2568 122.417 65.2457 118.453 71.6679C118.401 71.749 118.348 71.8292 118.29 71.9068L116.229 74.6896C115.559 75.5924 114.527 76.0703 113.484 76.0703C112.777 76.0703 112.064 75.8518 111.453 75.3995C109.939 74.2766 109.621 72.1389 110.743 70.6243L112.715 67.9653C115.25 63.7643 115.238 58.571 112.675 54.3768L97.5211 29.5747L75.9395 62.4169L92.9114 36.8331L101.293 49.7816C105.594 56.4265 105.577 64.982 101.249 71.6107L91.2995 86.853L75.9395 62.4169L95.6847 93.8307L104.782 81.7014C105.914 80.1944 108.052 79.8889 109.561 81.0196C111.069 82.1503 111.374 84.2904 110.243 85.7983L99.5759 100.022L104.764 108.275L129.913 68.5677C132.781 64.04 132.814 58.1673 129.997 53.608L117.835 33.9173C116.845 32.3139 117.341 30.2104 118.946 29.2197C120.551 28.229 122.653 28.7265 123.643 30.3299L135.805 50.0206C139.985 56.7875 139.935 65.5009 135.68 72.2209L109.116 114.163C109.01 114.332 108.887 114.483 108.757 114.626L113.484 122.15C115.543 120.523 117.009 119.157 117.882 118.051C127.899 105.364 138.324 90.1217 149.157 72.3233C152.867 66.2286 152.964 58.6768 149.294 52.6002C135.331 29.4851 119.82 4.97657 115.193 2.68359Z" fill="url(#paint2_linear_1_8598)"/>
<path d="M482.987 28.5882C504.951 28.5882 511.862 37.7881 511.998 45.2659L512 51.6282C511.97 52.1002 511.909 52.5911 511.808 53.0953L511.725 53.4758C510.365 59.2186 503.846 66.4685 482.543 67.2895L482.414 67.292L445.299 66.9908L444.934 66.9918L444.224 67.0003L443.542 67.0175L442.886 67.0431L442.257 67.0772C442.155 67.0836 442.053 67.0903 441.953 67.0974L441.362 67.144L440.797 67.1988L440.257 67.2618L439.74 67.3328L439.247 67.4118C435.315 68.0897 433.681 69.5583 433.032 71.6163L432.958 71.8713L432.892 72.132L432.836 72.3985C432.819 72.4883 432.802 72.579 432.788 72.6706L432.747 72.9483C432.741 72.995 432.735 73.042 432.73 73.0892L432.7 73.3751L432.676 73.6663L432.659 73.9628L432.642 74.4173L432.635 75.0409L432.639 75.5216L432.64 84.9082H506.88C510.728 84.9082 511.8 86.5813 511.973 89.1572L511.991 89.4983L511.999 89.8492L512 90.0282C512 90.1438 511.999 90.258 511.996 90.3707L511.984 90.7041C511.981 90.7588 511.978 90.8132 511.975 90.8672L511.949 91.1862C511.924 91.4478 511.888 91.6988 511.839 91.9381L511.774 92.2195C511.311 94.011 510.02 95.0585 506.88 94.8086H425.813L425.388 94.8389L424.98 94.8603L424.59 94.872C421.217 94.9306 419.84 93.7742 419.84 89.1749V74.6682C419.84 63.8053 428.267 59.4544 435.626 57.7658L436.282 57.6216L436.93 57.491C437.145 57.4497 437.359 57.4105 437.57 57.3734L438.2 57.2682L438.818 57.1748L439.422 57.0926L440.012 57.0209C440.109 57.0098 440.205 56.9991 440.301 56.9888L440.866 56.9317L441.412 56.8837L441.938 56.8441L442.686 56.799L443.38 56.7694L444.015 56.7532L444.404 56.7488L483.84 56.7482C492.919 56.7482 496.647 54.0722 498.169 51.7173L498.324 51.4663L498.463 51.2186C498.484 51.1777 498.506 51.1369 498.526 51.0963L498.643 50.8551L498.745 50.6192C498.761 50.5803 498.777 50.5418 498.792 50.5035L498.875 50.2771C498.888 50.24 498.9 50.2031 498.912 50.1666L498.978 49.9516L499.034 49.7452L499.08 49.5482L499.133 49.2722L499.159 49.1024L499.186 48.8709L499.204 48.6101L499.206 48.3345L499.202 48.2038L499.226 48.0002L499.24 47.7793L499.244 47.5691L499.239 47.3241L499.229 47.1429L499.212 46.9484L499.187 46.7415L499.154 46.5231L499.111 46.294C499.095 46.216 499.077 46.1363 499.058 46.0552L498.992 45.8075C498.98 45.7655 498.968 45.7232 498.955 45.6805L498.87 45.4212C497.891 42.6172 494.471 38.6731 483.03 38.3973C482.958 38.3956 482.884 38.4016 482.812 38.4016H448C444.936 38.4016 442.453 35.9184 442.453 32.8549C442.453 29.7914 444.936 28.5882 448 28.5882H482.987ZM390.086 48.6679L351.315 91.9726C346.137 97.0161 340.166 97.0161 335.042 91.9726L294.895 47.95V89.899C294.836 93.6691 291.714 96.7018 287.963 96.6199C284.193 96.5618 281.184 93.4591 281.242 89.6891L282.093 34.4315C282.127 32.1864 283.155 30.0181 284.999 28.7381C287.851 26.7592 291.581 27.226 293.861 29.6144L342.17 80.7197C342.444 81.0099 342.909 81.0005 343.172 80.7001L389.616 30.9141C391.494 28.7969 396.203 27.7934 398.851 28.7935C401.498 29.7919 403.522 32.3552 403.534 35.1857C403.534 68.097 403.534 86.2648 403.534 89.6891C403.534 94.8255 400.328 94.9141 396.442 94.9141C392.672 94.9141 389.882 94.8518 389.882 89.8256C389.882 86.4748 389.95 72.7556 390.086 48.6679ZM238.507 28.1616C251.43 28.1654 266.662 33.4471 266.662 46.0552V53.4758C266.662 65.3577 252.429 71.6486 240.65 71.2687L190.5 71.2549V90.6845C190.5 92.8523 188.791 94.6208 186.648 94.7174L186.463 94.7216H180.677C178.509 94.7216 176.741 93.0132 176.644 90.8693L176.64 90.6845V32.552C176.64 30.1898 178.506 28.2627 180.845 28.1654L181.03 28.1616H238.507ZM240.294 38.4016C240.294 38.4016 223.485 38.4016 189.867 38.4016V60.7802L240.213 60.5882C247.78 60.5882 253.645 60.5882 253.863 53.4758V46.0552C253.863 38.4016 245.346 38.3973 240.294 38.4016Z" fill="black"/>
</g>
<defs>
<linearGradient id="paint0_linear_1_8598" x1="7730.73" y1="4037.48" x2="6568.76" y2="2104.38" gradientUnits="userSpaceOnUse">
<stop stop-color="#520BF5"/>
<stop offset="1" stop-color="#9D1FE0"/>
</linearGradient>
<linearGradient id="paint1_linear_1_8598" x1="7656.08" y1="2238.05" x2="6241.91" y2="4495.36" gradientUnits="userSpaceOnUse">
<stop stop-color="#9E1FA7"/>
<stop offset="1" stop-color="#E540AE"/>
</linearGradient>
<linearGradient id="paint2_linear_1_8598" x1="7681.35" y1="5976.01" x2="2355.54" y2="5976.01" gradientUnits="userSpaceOnUse">
<stop stop-color="#4B6AF2"/>
<stop offset="1" stop-color="#4CA7EB"/>
</linearGradient>
<clipPath id="clip0_1_8598">
<rect width="512" height="125" fill="white"/>
</clipPath>
</defs>
</svg>
