<svg width="512" height="368" viewBox="0 0 512 368" fill="none" xmlns="http://www.w3.org/2000/svg">
<g clip-path="url(#clip0_1_8605)">
<path d="M512 126.274V241.068H397.206V126.274H512ZM512 0V114.794H397.206V0H512ZM385.726 0V114.794H270.932V0H385.726ZM259.452 0V114.794H144.658V0H259.452Z" fill="#F9AD00"/>
<path d="M385.726 252.547V367.342H270.932V252.547H385.726ZM512 252.547V367.342H397.206V252.547H512ZM259.452 252.547V367.342H144.658V252.547H259.452ZM385.726 126.273V241.068H270.932V126.273H385.726ZM21.5033 159.77C25.3604 159.77 28.9443 160.269 32.2549 161.265C35.5656 162.261 38.4102 163.788 40.7887 165.845C43.1673 167.902 45.0315 170.49 46.3815 173.608C47.7315 176.726 48.4065 180.438 48.4065 184.745C48.4065 188.859 47.8279 192.459 46.6708 195.545C45.5137 198.631 43.8744 201.218 41.753 203.307C39.6316 205.397 37.0763 206.956 34.087 207.984C31.0978 209.013 27.7711 209.527 24.1068 209.527C21.3426 209.527 18.7712 209.109 16.3926 208.273V224.28L16.2374 224.325C15.5893 224.505 14.6124 224.699 13.307 224.907C11.8927 225.132 10.4463 225.245 8.96774 225.245C7.55347 225.245 6.28385 225.148 5.15886 224.955C4.03387 224.762 3.08567 224.377 2.31425 223.798C1.54284 223.22 0.964273 222.432 0.578564 221.436C0.192855 220.439 0 219.138 0 217.53V171.245L0.00492851 170.902C0.0509279 169.322 0.418923 168.022 1.10891 167.002C1.84819 165.91 2.86068 164.913 4.14637 164.013C6.1392 162.728 8.61417 161.699 11.5713 160.928C14.5284 160.156 17.839 159.77 21.5033 159.77ZM134.13 159.77C137.987 159.77 141.571 160.269 144.882 161.265C148.193 162.261 151.037 163.788 153.416 165.845C155.794 167.902 157.659 170.49 159.009 173.608C160.359 176.726 161.034 180.438 161.034 184.745C161.034 188.859 160.455 192.459 159.298 195.545C158.141 198.631 156.501 201.218 154.38 203.307C152.259 205.397 149.703 206.956 146.714 207.984C143.725 209.013 140.398 209.527 136.734 209.527C133.97 209.527 131.398 209.109 129.02 208.273V224.28L128.865 224.325C128.216 224.505 127.24 224.699 125.934 224.907C124.52 225.132 123.073 225.245 121.595 225.245C120.181 225.245 118.911 225.148 117.786 224.955C116.661 224.762 115.713 224.377 114.941 223.798C114.17 223.22 113.591 222.432 113.206 221.436C112.82 220.439 112.627 219.138 112.627 217.53V171.245L112.632 170.902C112.678 169.322 113.046 168.022 113.736 167.002C114.475 165.91 115.488 164.913 116.773 164.013C118.766 162.728 121.241 161.699 124.198 160.928C127.155 160.156 130.466 159.77 134.13 159.77ZM79.8418 159.77C87.106 159.77 92.6988 161.361 96.6201 164.544C100.542 167.726 102.502 172.145 102.502 177.802V207.984L102.334 208.032C101.688 208.209 100.732 208.386 99.4648 208.563C98.0826 208.756 96.6523 208.852 95.1737 208.852C93.7595 208.852 92.4898 208.756 91.3649 208.563C90.2399 208.37 89.2917 207.984 88.5203 207.406C87.7488 206.827 87.1542 206.039 86.7364 205.043C86.3185 204.047 86.1096 202.745 86.1096 201.138V178.381L86.1049 178.071C86.0488 176.236 85.4879 174.877 84.4221 173.993C83.2971 173.061 81.7703 172.595 79.8418 172.595C78.5561 172.595 77.2865 172.756 76.0329 173.077C74.7794 173.399 73.7026 173.881 72.8026 174.524V207.984L72.6342 208.032C71.9884 208.209 71.0321 208.386 69.7651 208.563C68.383 208.756 66.9527 208.852 65.4741 208.852C64.0599 208.852 62.7902 208.756 61.6653 208.563C60.5403 208.37 59.5921 207.984 58.8206 207.406C58.0492 206.827 57.4546 206.039 57.0367 205.043C56.6189 204.047 56.41 202.745 56.41 201.138V172.21L56.4149 171.867C56.4609 170.287 56.8289 168.987 57.5189 167.967C58.2582 166.874 59.2706 165.878 60.5563 164.978C62.742 163.435 65.4902 162.181 68.8009 161.217C72.1115 160.253 75.7918 159.77 79.8418 159.77ZM221.108 159.77C223.551 159.77 225.945 160.092 228.292 160.735C230.638 161.378 232.727 162.39 234.559 163.772C236.392 165.154 237.854 166.986 238.947 169.269C240.04 171.551 240.586 174.331 240.586 177.609V207.984L240.418 208.032C239.772 208.209 238.816 208.386 237.549 208.563C236.167 208.756 234.736 208.852 233.258 208.852C231.843 208.852 230.574 208.756 229.449 208.563C228.324 208.37 227.376 207.984 226.604 207.406C225.833 206.827 225.238 206.039 224.82 205.043C224.402 204.047 224.193 202.745 224.193 201.138V178.092L224.188 177.775C224.131 176.009 223.586 174.717 222.554 173.897C221.461 173.029 219.983 172.595 218.119 172.595C217.219 172.595 216.254 172.804 215.226 173.222C214.197 173.64 213.426 174.074 212.911 174.524C212.976 174.781 213.008 175.022 213.008 175.247V207.984L212.824 208.032C212.124 208.209 211.141 208.386 209.874 208.563C208.492 208.756 207.094 208.852 205.679 208.852C204.265 208.852 202.996 208.756 201.871 208.563C200.746 208.37 199.797 207.984 199.026 207.406C198.255 206.827 197.66 206.039 197.242 205.043C196.824 204.047 196.615 202.745 196.615 201.138V178.092L196.61 177.792C196.551 176.017 195.958 174.719 194.831 173.897C193.642 173.029 192.212 172.595 190.54 172.595C189.383 172.595 188.387 172.772 187.551 173.126C186.715 173.479 186.008 173.817 185.43 174.138V207.984L185.261 208.032C184.616 208.209 183.659 208.386 182.392 208.563C181.01 208.756 179.58 208.852 178.101 208.852C176.687 208.852 175.417 208.756 174.292 208.563C173.167 208.37 172.219 207.984 171.448 207.406C170.676 206.827 170.082 206.039 169.664 205.043C169.246 204.047 169.037 202.745 169.037 201.138V172.017L169.042 171.674C169.088 170.098 169.456 168.83 170.146 167.87C170.885 166.842 171.898 165.878 173.183 164.978C175.369 163.435 178.085 162.181 181.332 161.217C184.578 160.253 187.969 159.77 191.505 159.77C194.14 159.77 196.728 160.14 199.267 160.879C201.806 161.619 204.008 162.728 205.872 164.206C207.801 162.92 209.97 161.86 212.381 161.024C214.792 160.188 217.701 159.77 221.108 159.77ZM22.0819 172.595C20.8604 172.595 19.7676 172.74 18.8033 173.029C17.839 173.318 17.0033 173.656 16.2962 174.042V195.256L16.6873 195.443C17.348 195.747 18.0533 196.006 18.8033 196.22C19.7033 196.477 20.6676 196.606 21.6961 196.606C28.3175 196.606 31.6282 192.652 31.6282 184.745C31.6282 180.631 30.8085 177.577 29.1693 175.585C27.53 173.592 25.1675 172.595 22.0819 172.595ZM134.709 172.595C133.488 172.595 132.395 172.74 131.43 173.029C130.466 173.318 129.63 173.656 128.923 174.042V195.256L129.314 195.443C129.975 195.747 130.68 196.006 131.43 196.22C132.33 196.477 133.295 196.606 134.323 196.606C140.945 196.606 144.255 192.652 144.255 184.745C144.255 180.631 143.436 177.577 141.796 175.585C140.157 173.592 137.795 172.595 134.709 172.595Z" fill="#4E4E4E"/>
</g>
<defs>
<clipPath id="clip0_1_8605">
<rect width="512" height="368" fill="white"/>
</clipPath>
</defs>
</svg>
