<svg width="256" height="207" viewBox="0 0 256 207" fill="none" xmlns="http://www.w3.org/2000/svg">
<g clip-path="url(#clip0_1_8615)">
<path d="M172.482 163.402H59.9148L59.9148 19.9701H172.482V163.402Z" fill="white"/>
<path d="M61.2674 103.487L0 103.487L0 129.619C0 173.515 35.5494 206.977 79.3961 206.977L152.528 206.977C163.549 206.977 172.482 198.026 172.482 186.994V161.903L138.476 161.903C103.217 161.903 68.4063 136.953 61.2674 103.487Z" fill="#24C1CE"/>
<path d="M59.9147 90.9371C59.9147 51.3389 98.9247 19.9708 138.476 19.9708H172.482C172.476 8.94463 163.549 -0.000816345 152.525 -0.000816345H79.3961C35.5494 -0.000816345 0 33.4552 0 77.3564L0 103.488L61.2674 103.488C60.3995 99.4177 59.9147 95.2273 59.9147 90.9371Z" fill="#3DD0AD"/>
<path d="M123.461 38.1294C113.433 38.1294 105.305 46.2542 105.305 56.2854C105.305 66.3075 113.433 74.4414 123.461 74.4414C133.486 74.4414 141.617 66.3075 141.617 56.2854C141.617 46.2542 133.486 38.1294 123.461 38.1294Z" fill="#404953"/>
<path d="M116.198 43.5752C113.195 43.5752 110.751 46.0171 110.751 49.0165C110.751 52.0213 113.195 54.4688 116.198 54.4688C119.201 54.4688 121.645 52.0213 121.645 49.0165C121.645 46.0171 119.201 43.5752 116.198 43.5752Z" fill="white"/>
<path d="M101.673 101.672H150.695V87.1471H101.673V101.672Z" fill="#404953"/>
<path d="M32.6844 85.3326C22.6623 85.3326 14.5284 93.4701 14.5284 103.492C14.5248 113.514 22.6587 121.645 32.6808 121.645C42.7065 121.645 50.8368 113.511 50.8368 103.492C50.8368 93.4701 42.7083 85.3326 32.6808 85.3326" fill="#FFDA00"/>
<path d="M230.541 45.3469C214.437 29.2425 193.579 20.7927 172.482 19.9702L172.482 110.205L230.541 168.265C264.485 134.322 264.485 79.2895 230.541 45.3487V45.3469ZM172.482 137.984V181.145C183.789 180.533 194.959 176.878 204.658 170.16L172.482 137.984Z" fill="#404953"/>
<path d="M61.2674 103.49H59.9148L59.9148 162.631C59.9148 176.147 70.8701 187.055 84.3854 187.008L172.482 186.677V161.905H138.476C103.217 161.905 68.4063 136.955 61.2674 103.49Z" fill="#3A4287"/>
</g>
<defs>
<clipPath id="clip0_1_8615">
<rect width="256" height="207" fill="white"/>
</clipPath>
</defs>
</svg>
