<svg width="512" height="156" viewBox="0 0 512 156" fill="none" xmlns="http://www.w3.org/2000/svg">
<g clip-path="url(#clip0_1_8719)">
<path d="M293.909 52.9062C296.627 52.9062 299.268 53.2946 301.831 54.0713C304.316 54.9256 305.637 56.013 305.637 57.3333C305.637 58.0323 305.404 58.7313 304.938 59.3527C304.627 59.974 303.928 60.44 303.229 60.44C302.219 60.1294 301.21 59.741 300.2 59.275C298.258 58.4207 296.161 57.9547 293.987 58.0323C291.734 57.9547 289.404 58.4983 287.462 59.6633C285.754 60.8284 284.822 62.8477 284.977 64.9448C284.899 66.8864 285.676 68.7505 287.152 69.9932C288.783 71.3135 290.647 72.4009 292.666 73.0222C294.841 73.7989 297.016 74.6532 299.19 75.6629C301.365 76.7503 303.229 78.3813 304.627 80.4006C306.18 82.886 306.957 85.7597 306.879 88.7111C306.879 93.2935 305.559 96.7885 302.841 99.1186C299.889 101.604 296.084 102.847 292.2 102.614C288.705 102.691 285.21 101.837 282.181 100.128C279.385 98.2642 277.987 96.6332 277.987 95.0022C277.987 94.2255 278.298 93.5265 278.764 92.9052C279.152 92.3615 279.696 91.9731 280.395 91.8955C281.016 91.9731 281.56 92.2838 281.948 92.7498C282.569 93.2935 283.191 93.9148 283.89 94.6138C284.822 95.4682 285.909 96.0895 287.074 96.4779C288.627 97.0992 290.336 97.3322 291.967 97.3322C294.453 97.4876 296.86 96.7109 298.802 95.2352C300.511 93.6818 301.443 91.3518 301.287 89.0218C301.365 86.7694 300.588 84.6724 299.035 83.0413C297.482 81.488 295.618 80.323 293.521 79.5463C291.346 78.7696 289.249 77.9153 286.996 76.9833C284.822 76.0512 282.958 74.6532 281.482 72.7892C279.929 70.6922 279.074 68.1291 279.23 65.4884C279.152 63.3914 279.618 61.2944 280.55 59.3527C281.327 57.7216 282.569 56.4013 284.123 55.4693C285.598 54.6149 287.152 53.9936 288.783 53.5276C290.491 53.1393 292.2 52.9062 293.909 52.9062ZM254.143 56.5566C256.784 58.8867 258.104 62.6147 258.104 67.5855V87.7014C258.104 92.7498 256.784 96.4002 254.143 98.7302C247.93 103.468 239.386 103.468 233.173 98.7302C230.61 96.4002 229.289 92.7498 229.289 87.7014V67.5855C229.289 62.5371 230.61 58.8867 233.173 56.5566C239.386 51.8966 247.93 51.8966 254.143 56.5566ZM446.06 53.0616C447.924 53.0616 449.089 53.6829 449.477 55.0033L463.225 99.2739V99.6623C463.225 100.361 462.759 100.983 462.137 101.293C461.438 101.759 460.584 101.992 459.652 101.915C458.798 101.992 457.943 101.526 457.633 100.672L454.681 90.8858H437.128L434.177 100.672C433.944 101.526 433.012 102.07 432.158 101.992C431.381 101.992 430.604 101.759 429.905 101.293C429.206 100.983 428.818 100.361 428.818 99.5846C428.818 99.4292 428.895 99.1962 428.973 99.0409L442.643 55.0033C443.031 53.6829 444.196 53.0616 446.06 53.0616ZM376.78 53.0616C378.567 53.0616 380.042 54.2266 381.285 56.6343L391.77 76.7503L402.333 56.6343C403.653 54.3043 405.129 53.0616 406.838 53.0616C408.158 52.8286 409.401 53.7606 409.634 55.0809C409.712 55.314 409.712 55.547 409.634 55.78V99.8176C409.634 100.439 409.323 100.983 408.779 101.293C407.537 101.992 406.061 101.992 404.818 101.293C404.275 100.983 403.964 100.439 403.964 99.8176V64.7894L393.867 83.7404C393.557 84.6724 392.702 85.3714 391.693 85.3714C390.761 85.2937 389.906 84.6724 389.596 83.7404L379.499 64.4011V99.8176C379.499 100.439 379.188 100.983 378.644 101.293C378.101 101.682 377.402 101.915 376.78 101.915C376.081 101.915 375.382 101.759 374.839 101.371C374.217 101.138 373.829 100.517 373.907 99.8953V55.8576C373.674 54.5373 374.606 53.2946 375.926 53.0616C376.237 52.9839 376.547 52.9839 376.78 53.0616ZM485.36 52.9839C486.214 52.9839 487.069 53.2946 487.768 53.8383C488.544 54.6149 489.243 55.547 489.632 56.5566L506.33 89.1771V54.9256C506.33 54.3043 506.641 53.7606 507.185 53.5276C508.427 52.8286 509.903 52.8286 511.146 53.5276C511.689 53.8383 512 54.3819 512 54.9256V99.8953C512 100.517 511.689 101.06 511.146 101.371C510.524 101.759 509.903 101.915 509.204 101.915C507.651 101.837 506.253 100.827 505.709 99.3516L488.156 65.7214V99.8953C488.156 100.517 487.845 101.06 487.379 101.371C486.137 102.07 484.661 102.07 483.418 101.371C482.875 101.06 482.564 100.517 482.564 99.8953V54.9256C482.564 53.6053 483.496 52.9839 485.36 52.9839ZM182.844 52.9839H195.504C199.232 52.8286 202.96 54.0713 205.834 56.479C208.397 58.809 209.717 62.4594 209.717 67.4301V68.0515C209.717 73.0222 208.397 76.7503 205.756 79.0803C202.805 81.488 199.076 82.8083 195.271 82.5753H186.261V99.8953C186.261 100.517 185.951 101.06 185.407 101.371C184.164 102.07 182.689 102.07 181.446 101.371C180.902 101.06 180.592 100.517 180.592 99.8953V54.9256C180.592 54.3819 180.825 53.9159 181.213 53.5276C181.679 53.1393 182.223 52.9062 182.844 52.9839ZM352.781 52.9839C353.402 52.9839 353.946 53.2169 354.257 53.7606C354.645 54.2266 354.8 54.8479 354.8 55.4693C354.8 56.0906 354.645 56.7896 354.257 57.3333C353.946 57.877 353.402 58.11 352.781 58.11H342.141V99.8953C342.141 100.517 341.83 101.06 341.286 101.371C340.044 102.07 338.568 102.07 337.325 101.371C336.781 101.06 336.471 100.517 336.471 99.8953V58.11H325.675C325.054 58.11 324.51 57.877 324.199 57.3333C323.811 56.7896 323.578 56.1683 323.578 55.4693C323.578 54.8479 323.733 54.2266 324.122 53.7606C324.432 53.2169 324.976 52.9839 325.597 52.9839H352.781ZM243.735 58.0323C237.91 58.0323 235.037 61.139 235.037 67.5078L234.959 87.7014C234.959 93.9925 237.833 97.1769 243.735 97.1769C246.143 97.3322 248.473 96.4779 250.26 94.8469C251.968 92.9052 252.745 90.3421 252.59 87.7014V67.5078C252.823 64.9448 251.968 62.3817 250.26 60.3624C248.473 58.7313 246.143 57.877 243.735 58.0323ZM446.06 61.2167L438.526 86.2257H453.516L446.06 61.2167ZM195.271 58.11H186.261L186.184 77.9153H195.271C197.678 78.0706 200.086 77.2163 201.795 75.5076C203.504 73.5659 204.358 71.0028 204.125 68.3621V67.5855C204.358 65.0224 203.504 62.4594 201.795 60.44C200.009 58.809 197.678 57.9547 195.271 58.11Z" fill="#FF6C37"/>
<path d="M154.728 87.5456C160.165 44.9836 130.108 6.07209 87.6233 0.635341C45.139 -4.8014 6.07209 25.256 0.635341 67.7403C-4.8014 110.225 25.256 149.214 67.7403 154.728C110.302 160.165 149.214 130.108 154.728 87.5456Z" fill="#FF6C37"/>
<path d="M105.72 49.8768L72.9439 82.6526L63.7014 73.4101C95.9335 41.178 99.1179 43.974 105.72 49.8768Z" fill="white"/>
<path d="M72.944 83.4292C72.711 83.4292 72.5556 83.3516 72.4003 83.1962L63.0802 73.9538C62.7695 73.6431 62.7695 73.1771 63.0802 72.8664C95.856 40.0906 99.2733 43.1973 106.186 49.4107C106.341 49.5661 106.419 49.7214 106.419 49.9544C106.419 50.1874 106.341 50.3428 106.186 50.4981L73.41 83.1962C73.3323 83.3516 73.0993 83.4292 72.944 83.4292ZM64.7889 73.4101L72.944 81.5652L104.555 49.9544C98.8074 44.8283 94.924 43.275 64.7889 73.4101Z" fill="#FF6C37"/>
<path d="M82.3417 92.0474L73.4099 83.1156L106.186 50.3398C114.962 59.194 101.836 73.5625 82.3417 92.0474Z" fill="white"/>
<path d="M82.3417 92.8274C82.1087 92.8274 81.9534 92.7497 81.7981 92.5944L72.8663 83.6626C72.7109 83.5072 72.7109 83.3519 72.7109 83.1189C72.7109 82.8859 72.7886 82.7305 72.9439 82.5752L105.72 49.7994C106.03 49.4887 106.496 49.4887 106.807 49.7994C108.826 51.6634 109.914 54.3041 109.836 57.0225C109.681 65.6436 99.8947 76.5948 82.9631 92.5944C82.7301 92.7497 82.4971 92.8274 82.3417 92.8274ZM74.4973 83.1189C79.468 88.1673 81.5651 90.1867 82.3417 90.9633C95.3899 78.5365 108.05 65.799 108.127 57.0225C108.205 55.0031 107.428 52.9838 106.108 51.4304L74.4973 83.1189Z" fill="#FF6C37"/>
<path d="M63.8569 73.6433L70.4587 80.245C70.614 80.4004 70.614 80.5557 70.4587 80.711C70.381 80.7887 70.381 80.7887 70.3034 80.7887L56.6338 83.7401C55.9348 83.8177 55.3135 83.3517 55.1581 82.6527C55.0805 82.2644 55.2358 81.876 55.4688 81.643L63.3909 73.7209C63.5463 73.5656 63.7793 73.4879 63.8569 73.6433Z" fill="white"/>
<path d="M56.4007 84.5166C55.2357 84.5166 54.3813 83.5845 54.3813 82.4195C54.3813 81.8758 54.6144 81.3322 55.0027 80.9438L62.9248 73.0217C63.3908 72.6334 64.0122 72.6334 64.4782 73.0217L71.0799 79.6235C71.5459 80.0118 71.5459 80.7108 71.0799 81.1768C70.9246 81.3322 70.7692 81.4098 70.5362 81.4875L56.8667 84.4389C56.7114 84.4389 56.556 84.5166 56.4007 84.5166ZM63.6238 74.4974L56.0124 82.1089C55.857 82.2642 55.7794 82.4972 55.9347 82.7302C56.0124 82.9632 56.2454 83.0409 56.4784 82.9632L69.2936 80.1672L63.6238 74.4974Z" fill="#FF6C37"/>
<path d="M123.04 31.7029C118.069 26.8875 110.069 27.0428 105.254 32.0912C100.438 37.1396 100.594 45.0617 105.642 49.8771C109.758 53.8382 115.972 54.5372 120.865 51.5858L112.011 42.7317L123.04 31.7029Z" fill="white"/>
<path d="M114.341 54.1474C106.962 54.1474 100.982 48.167 100.982 40.7885C100.982 33.4101 106.962 27.4297 114.341 27.4297C117.758 27.4297 121.098 28.75 123.583 31.1577C123.739 31.3131 123.816 31.4684 123.816 31.7014C123.816 31.9344 123.739 32.0898 123.583 32.2451L113.098 42.7302L121.331 50.963C121.642 51.2737 121.642 51.7397 121.331 52.0504C121.253 52.128 121.253 52.128 121.176 52.2057C119.156 53.4484 116.748 54.1474 114.341 54.1474ZM114.341 29.0607C107.817 29.0607 102.535 34.3421 102.613 40.8662C102.613 47.3903 107.894 52.6717 114.418 52.594C116.205 52.594 117.991 52.2057 119.622 51.3514L111.467 43.2739C111.312 43.1186 111.234 42.9632 111.234 42.7302C111.234 42.4972 111.312 42.3419 111.467 42.1866L121.875 31.7791C119.778 29.9927 117.137 29.0607 114.341 29.0607Z" fill="#FF6C37"/>
<path d="M123.273 31.9327L123.117 31.7773L112.011 42.7285L120.787 51.505C121.642 50.9613 122.496 50.3399 123.195 49.6409C128.166 44.7479 128.166 36.8257 123.273 31.9327Z" fill="white"/>
<path d="M120.865 52.3621C120.632 52.3621 120.477 52.2844 120.321 52.1291L111.467 43.275C111.312 43.1196 111.234 42.9643 111.234 42.7313C111.234 42.4983 111.312 42.3429 111.467 42.1876L122.496 31.1588C122.807 30.8481 123.273 30.8481 123.583 31.1588L123.816 31.3141C129.02 36.5179 129.02 44.906 123.894 50.1874C123.117 50.9641 122.263 51.6631 121.331 52.2068C121.098 52.2844 120.943 52.3621 120.865 52.3621ZM113.098 42.7313L120.943 50.5757C121.564 50.1874 122.185 49.6437 122.651 49.1777C127.078 44.7506 127.311 37.5275 123.04 32.8675L113.098 42.7313Z" fill="#FF6C37"/>
<path d="M107.04 51.273C105.176 49.409 102.147 49.409 100.283 51.273L71.0022 80.5538L75.8953 85.4468L106.885 58.2631C108.904 56.5544 109.059 53.5254 107.351 51.506C107.195 51.4284 107.118 51.3507 107.04 51.273Z" fill="white"/>
<path d="M75.8177 86.2229C75.5847 86.2229 75.4294 86.1452 75.274 85.9899L70.381 81.0968C70.0703 80.7861 70.0703 80.3201 70.381 80.0094L99.6617 50.7287C101.836 48.554 105.331 48.554 107.506 50.7287C109.681 52.9034 109.681 56.3984 107.506 58.5731C107.428 58.6508 107.351 58.7285 107.273 58.8061L76.2837 85.9899C76.206 86.1452 76.0507 86.2229 75.8177 86.2229ZM72.0896 80.5531L75.8954 84.3588L106.341 57.6411C108.05 56.2431 108.205 53.6801 106.807 51.9714C105.409 50.2627 102.846 50.1073 101.137 51.5054C101.06 51.583 100.982 51.6607 100.827 51.7384L72.0896 80.5531Z" fill="#FF6C37"/>
<path d="M48.5564 113.875C48.2457 114.031 48.0904 114.341 48.168 114.652L49.4884 120.244C49.7991 121.021 49.3331 121.953 48.4787 122.186C47.8574 122.419 47.1584 122.186 46.77 121.72L38.2266 113.254L66.1093 85.3711L75.7401 85.5264L82.2642 92.0505C80.7108 93.3709 71.313 102.458 48.5564 113.875Z" fill="white"/>
<path d="M47.935 122.962C47.3137 122.962 46.6924 122.729 46.304 122.263L37.8382 113.797C37.6829 113.641 37.6052 113.486 37.6052 113.253C37.6052 113.02 37.6829 112.865 37.8382 112.709L65.721 84.8268C65.8763 84.6714 66.1093 84.5938 66.2646 84.5938L75.8954 84.7491C76.1284 84.7491 76.2838 84.8268 76.4391 84.9821L82.9632 91.5062C83.1185 91.6615 83.1962 91.8945 83.1962 92.1275C83.1962 92.3605 83.1185 92.5159 82.8855 92.6712L82.3419 93.1372C74.1091 100.36 62.9249 107.583 49.0224 114.496L50.3427 120.01C50.5757 121.02 50.1097 122.107 49.1777 122.651C48.7117 122.884 48.3234 122.962 47.935 122.962ZM39.3916 113.253L47.3914 121.175C47.6244 121.564 48.0904 121.719 48.4787 121.486C48.8671 121.253 49.0224 120.787 48.7894 120.399L47.469 114.807C47.3137 114.108 47.6244 113.486 48.2457 113.175C61.9929 106.263 73.0994 99.1176 81.2545 92.0499L75.5071 86.3024L66.5753 86.1471L39.3916 113.253Z" fill="#FF6C37"/>
<path d="M31.6248 119.933L38.3042 113.254L48.2457 123.195L32.4015 122.108C31.7024 122.03 31.2364 121.409 31.3141 120.71C31.3141 120.399 31.3918 120.089 31.6248 119.933Z" fill="white"/>
<path d="M48.2456 123.893L32.3237 122.806C31.1587 122.728 30.382 121.719 30.4597 120.554C30.5374 120.088 30.6927 119.622 31.081 119.311L37.7605 112.631C38.0711 112.321 38.5371 112.321 38.8478 112.631L48.7893 122.573C49.0223 122.806 49.1 123.117 48.9446 123.427C48.7893 123.738 48.5563 123.893 48.2456 123.893ZM38.3041 114.34L32.1684 120.476C31.9354 120.631 31.9354 121.02 32.1684 121.175C32.246 121.253 32.3237 121.33 32.479 121.33L46.2262 122.262L38.3041 114.34Z" fill="#FF6C37"/>
<path d="M63.3909 88.9426C62.9249 88.9426 62.6143 88.5543 62.6143 88.1659C62.6143 87.9329 62.6919 87.7776 62.8473 87.6222L70.381 80.0885C70.6917 79.7778 71.1577 79.7778 71.4684 80.0885L76.3615 84.9815C76.5945 85.2145 76.6721 85.4475 76.5945 85.7582C76.5168 85.9912 76.2838 86.2242 75.9731 86.3019L63.5463 88.9426C63.4686 88.9426 63.3909 88.9426 63.3909 88.9426ZM70.9247 81.7195L65.7986 86.8456L74.1868 85.0592L70.9247 81.7195Z" fill="#FF6C37"/>
<path d="M75.74 85.5263L67.1965 87.3904C66.5752 87.5457 65.9539 87.1574 65.7985 86.536C65.7209 86.1477 65.7985 85.7593 66.1092 85.4487L70.8469 80.7109L75.74 85.5263Z" fill="white"/>
<path d="M67.0413 88.1659C65.954 88.1659 65.0996 87.3116 65.0996 86.2242C65.0996 85.6806 65.3326 85.2145 65.6433 84.8262L70.381 80.0885C70.6917 79.7778 71.1577 79.7778 71.4684 80.0885L76.3614 84.9815C76.5944 85.2145 76.6721 85.4475 76.5944 85.7582C76.5168 85.9912 76.2838 86.2242 75.9731 86.3019L67.4296 88.1659C67.2743 88.1659 67.119 88.1659 67.0413 88.1659ZM70.9247 81.7195L66.7306 85.9136C66.5753 86.0689 66.5753 86.2242 66.653 86.3796C66.7306 86.5349 66.886 86.6126 67.119 86.6126L74.2644 85.0592L70.9247 81.7195Z" fill="#FF6C37"/>
<path d="M123.35 39.3924C123.195 38.9264 122.651 38.6934 122.185 38.8487C121.719 39.004 121.486 39.5477 121.642 40.0137C121.642 40.0914 121.719 40.1691 121.719 40.2467C122.185 41.1787 122.03 42.3438 121.409 43.1981C121.098 43.5864 121.176 44.1301 121.486 44.4408C121.875 44.7515 122.418 44.6738 122.729 44.2855C123.894 42.8098 124.127 40.9457 123.35 39.3924Z" fill="#FF6C37"/>
</g>
<defs>
<clipPath id="clip0_1_8719">
<rect width="512" height="156" fill="white"/>
</clipPath>
</defs>
</svg>
