<svg width="256" height="256" viewBox="0 0 256 256" fill="none" xmlns="http://www.w3.org/2000/svg">
<g clip-path="url(#clip0_1_8695)">
<path d="M254.953 144.253C263.911 74.1217 214.384 10.0053 144.381 1.04688C74.3777 -7.9115 10.0053 41.6156 1.04688 111.619C-7.9115 181.622 41.6156 245.867 111.619 254.953C181.75 263.911 245.867 214.384 254.953 144.253Z" fill="#FF6C37"/>
<path d="M174.2 82.1845L120.193 136.191L104.964 120.962C158.075 67.8511 163.322 72.4582 174.2 82.1845Z" fill="white"/>
<path d="M120.193 137.471C119.809 137.471 119.554 137.343 119.298 137.087L103.94 121.857C103.428 121.345 103.428 120.578 103.94 120.066C157.947 66.0594 163.578 71.1785 174.968 81.4166C175.223 81.6726 175.351 81.9285 175.351 82.3125C175.351 82.6964 175.223 82.9523 174.968 83.2083L120.961 137.087C120.833 137.343 120.449 137.471 120.193 137.471ZM106.756 120.961L120.193 134.399L172.28 82.3125C162.81 73.866 156.411 71.3064 106.756 120.961Z" fill="#FF6C37"/>
<path d="M135.679 151.677L120.961 136.959L174.967 82.9531C189.429 97.5425 167.801 121.218 135.679 151.677Z" fill="white"/>
<path d="M135.678 152.955C135.295 152.955 135.039 152.827 134.783 152.571L120.065 137.854C119.809 137.598 119.809 137.342 119.809 136.958C119.809 136.574 119.937 136.318 120.193 136.062L174.2 82.0558C174.711 81.5439 175.479 81.5439 175.991 82.0558C179.319 85.1273 181.11 89.4785 180.982 93.9577C180.726 108.163 164.601 126.208 136.702 152.571C136.318 152.827 135.934 152.955 135.678 152.955ZM122.753 136.958C130.943 145.276 134.399 148.604 135.678 149.884C157.179 129.407 178.039 108.419 178.167 93.9577C178.295 90.6303 177.015 87.3029 174.839 84.7433L122.753 136.958Z" fill="#FF6C37"/>
<path d="M105.22 121.347L116.098 132.225C116.354 132.481 116.354 132.736 116.098 132.992C115.97 133.12 115.97 133.12 115.842 133.12L93.3181 137.984C92.1663 138.112 91.1425 137.344 90.8866 136.192C90.7586 135.552 91.0145 134.912 91.3985 134.528L104.452 121.475C104.708 121.219 105.092 121.091 105.22 121.347Z" fill="white"/>
<path d="M92.9343 139.26C91.0147 139.26 89.6069 137.725 89.6069 135.805C89.6069 134.909 89.9909 134.013 90.6307 133.373L103.684 120.32C104.452 119.68 105.476 119.68 106.244 120.32L117.122 131.198C117.89 131.838 117.89 132.989 117.122 133.757C116.866 134.013 116.61 134.141 116.226 134.269L93.7022 139.132C93.4462 139.132 93.1903 139.26 92.9343 139.26ZM104.836 122.751L92.2944 135.293C92.0385 135.549 91.9105 135.933 92.1665 136.317C92.2945 136.701 92.6784 136.829 93.0623 136.701L114.179 132.094L104.836 122.751Z" fill="#FF6C37"/>
<path d="M202.738 52.2366C194.548 44.302 181.366 44.558 173.432 52.8765C165.497 61.195 165.753 74.2486 174.072 82.1832C180.854 88.71 191.093 89.8618 199.155 84.9987L184.566 70.4093L202.738 52.2366Z" fill="white"/>
<path d="M188.405 89.2233C176.247 89.2233 166.393 79.3691 166.393 67.2113C166.393 55.0534 176.247 45.1992 188.405 45.1992C194.036 45.1992 199.539 47.3748 203.634 51.3421C203.89 51.5981 204.018 51.854 204.018 52.238C204.018 52.6219 203.89 52.8778 203.634 53.1338L186.357 70.4107L199.923 83.9762C200.435 84.4881 200.435 85.256 199.923 85.7679C199.795 85.8959 199.795 85.8959 199.667 86.0239C196.34 88.0715 192.372 89.2233 188.405 89.2233ZM188.405 47.8867C177.655 47.8867 168.953 56.5892 169.081 67.3392C169.081 78.0893 177.783 86.7917 188.533 86.6637C191.477 86.6637 194.42 86.0239 197.108 84.6161L183.67 71.3065C183.414 71.0506 183.286 70.7946 183.286 70.4107C183.286 70.0267 183.414 69.7708 183.67 69.5148L200.819 52.3659C197.363 49.4225 193.012 47.8867 188.405 47.8867Z" fill="#FF6C37"/>
<path d="M203.122 52.6231L202.866 52.3672L184.566 70.4119L199.027 84.8733C200.435 83.9775 201.843 82.9537 202.994 81.8019C211.185 73.7393 211.185 60.6857 203.122 52.6231Z" fill="white"/>
<path d="M199.155 86.2787C198.771 86.2787 198.515 86.1507 198.259 85.8947L183.67 71.3054C183.414 71.0494 183.286 70.7935 183.286 70.4095C183.286 70.0256 183.414 69.7696 183.67 69.5137L201.843 51.341C202.354 50.8291 203.122 50.8291 203.634 51.341L204.018 51.5969C212.593 60.1714 212.593 73.9929 204.146 82.6953C202.866 83.9751 201.459 85.1269 199.923 86.0227C199.539 86.1507 199.283 86.2787 199.155 86.2787ZM186.357 70.4095L199.283 83.3352C200.307 82.6953 201.331 81.7995 202.098 81.0316C209.393 73.7369 209.777 61.8351 202.738 54.1565L186.357 70.4095Z" fill="#FF6C37"/>
<path d="M176.375 84.4872C173.304 81.4157 168.313 81.4157 165.241 84.4872L116.994 132.734L125.056 140.797L176.119 96.0051C179.447 93.1896 179.703 88.1985 176.887 84.8711C176.631 84.7431 176.503 84.6152 176.375 84.4872Z" fill="white"/>
<path d="M124.929 142.079C124.545 142.079 124.289 141.951 124.033 141.695L115.97 133.633C115.458 133.121 115.458 132.353 115.97 131.841L164.217 83.5938C167.801 80.0104 173.56 80.0104 177.143 83.5938C180.726 87.1771 180.726 92.9361 177.143 96.5194C177.015 96.6474 176.887 96.7754 176.759 96.9034L125.696 141.695C125.568 141.951 125.312 142.079 124.929 142.079ZM118.786 132.737L125.056 139.008L175.223 94.9837C178.039 92.6801 178.295 88.4569 175.991 85.6414C173.688 82.8259 169.464 82.5699 166.649 84.8735C166.521 85.0015 166.393 85.1295 166.137 85.2575L118.786 132.737Z" fill="#FF6C37"/>
<path d="M80.0085 187.639C79.4966 187.895 79.2406 188.407 79.3686 188.919L81.5442 198.134C82.0561 199.413 81.2882 200.949 79.8805 201.333C78.8567 201.717 77.7049 201.333 77.065 200.565L62.9875 186.616L108.931 140.672L124.8 140.928L135.55 151.678C132.991 153.853 117.506 168.827 80.0085 187.639Z" fill="white"/>
<path d="M78.9848 202.611C77.961 202.611 76.9372 202.227 76.2973 201.459L62.3478 187.51C62.0918 187.254 61.9639 186.998 61.9639 186.614C61.9639 186.23 62.0918 185.974 62.3478 185.718L108.292 139.775C108.547 139.519 108.931 139.391 109.187 139.391L125.056 139.647C125.44 139.647 125.696 139.775 125.952 140.031L136.702 150.781C136.958 151.037 137.086 151.42 137.086 151.804C137.086 152.188 136.958 152.444 136.574 152.7L135.679 153.468C122.113 165.37 103.684 177.272 80.7765 188.662L82.9521 197.748C83.336 199.412 82.5682 201.203 81.0324 202.099C80.2646 202.483 79.6247 202.611 78.9848 202.611ZM64.9073 186.614L78.089 199.668C78.4729 200.308 79.2408 200.564 79.8806 200.18C80.5205 199.796 80.7765 199.028 80.3925 198.388L78.2169 189.174C77.961 188.022 78.4729 186.998 79.4967 186.486C102.149 175.096 120.449 163.322 133.887 151.676L124.417 142.206L109.699 141.95L64.9073 186.614Z" fill="#FF6C37"/>
<path d="M52.1096 197.619L63.1156 186.613L79.4966 202.994L53.3893 201.203C52.2375 201.075 51.4697 200.051 51.5976 198.899C51.5976 198.387 51.7256 197.875 52.1096 197.619Z" fill="white"/>
<path d="M79.4967 204.148L53.2614 202.356C51.3417 202.228 50.062 200.564 50.19 198.645C50.3179 197.877 50.5739 197.109 51.2138 196.597L62.2198 185.591C62.7317 185.079 63.4996 185.079 64.0115 185.591L80.3925 201.972C80.7764 202.356 80.9044 202.868 80.6485 203.38C80.3925 203.892 80.0086 204.148 79.4967 204.148ZM63.1156 188.406L53.0054 198.517C52.6215 198.773 52.6215 199.412 53.0054 199.668C53.1334 199.796 53.2614 199.924 53.5174 199.924L76.1693 201.46L63.1156 188.406Z" fill="#FF6C37"/>
<path d="M104.452 146.555C103.684 146.555 103.172 145.915 103.172 145.276C103.172 144.892 103.3 144.636 103.556 144.38L115.97 131.966C116.482 131.454 117.25 131.454 117.762 131.966L125.824 140.029C126.208 140.412 126.336 140.796 126.208 141.308C126.08 141.692 125.696 142.076 125.184 142.204L104.708 146.555C104.58 146.555 104.452 146.555 104.452 146.555ZM116.866 134.653L108.419 143.1L122.241 140.156L116.866 134.653Z" fill="#FF6C37"/>
<path d="M124.8 140.927L110.723 143.998C109.699 144.254 108.675 143.614 108.419 142.59C108.291 141.951 108.419 141.311 108.931 140.799L116.738 132.992L124.8 140.927Z" fill="white"/>
<path d="M110.467 145.276C108.675 145.276 107.268 143.868 107.268 142.076C107.268 141.18 107.652 140.412 108.163 139.773L115.97 131.966C116.482 131.454 117.25 131.454 117.762 131.966L125.824 140.029C126.208 140.412 126.336 140.796 126.208 141.308C126.08 141.692 125.696 142.076 125.184 142.204L111.107 145.276C110.851 145.276 110.595 145.276 110.467 145.276ZM116.866 134.653L109.955 141.564C109.699 141.82 109.699 142.076 109.827 142.332C109.955 142.588 110.211 142.716 110.595 142.716L122.369 140.156L116.866 134.653Z" fill="#FF6C37"/>
<path d="M203.25 64.9084C202.994 64.1405 202.099 63.7566 201.331 64.0126C200.563 64.2685 200.179 65.1644 200.435 65.9322C200.435 66.0602 200.563 66.1882 200.563 66.3161C201.331 67.8519 201.075 69.7715 200.051 71.1793C199.539 71.8192 199.667 72.715 200.179 73.2269C200.819 73.7388 201.715 73.6108 202.227 72.9709C204.146 70.5394 204.53 67.4679 203.25 64.9084Z" fill="#FF6C37"/>
</g>
<defs>
<clipPath id="clip0_1_8695">
<rect width="256" height="256" fill="white"/>
</clipPath>
</defs>
</svg>
