<svg width="256" height="247" viewBox="0 0 256 247" fill="none" xmlns="http://www.w3.org/2000/svg">
<g clip-path="url(#clip0_1_8661)">
<path d="M16.6957 131.339L0 74.5739L52.313 0L153.6 131.339H16.6957Z" fill="#468BCC"/>
<path d="M0 74.5739L52.313 0L128 23.3739L153.6 131.339L0 74.5739Z" fill="#4BA8FF"/>
<path d="M52.313 0L128 23.3739L203.687 0L153.6 131.339L52.313 0Z" fill="#468BCC"/>
<path d="M128 23.3739L203.687 0L256 74.5739L153.6 131.339L128 23.3739Z" fill="#468BCC"/>
<path d="M203.687 0L256 74.5739L239.304 131.339H153.6L203.687 0Z" fill="#4BA8FF"/>
<path d="M256 74.5742L239.304 131.339L128 229.287L153.6 131.339L256 74.5742Z" fill="#468BCC"/>
<path d="M239.304 131.34L128 229.288L16.6957 131.34H153.6H239.304Z" fill="#468BCC"/>
<path d="M128 229.287L16.6957 131.339L0 74.5742L153.6 131.339L128 229.287Z" fill="#468BCC"/>
<path d="M16.6957 131.339L0 74.5742L153.6 131.339H16.6957Z" fill="#468BCC"/>
<path d="M77.913 159.164L96.8348 171.408L66.7826 194.781L77.913 159.164Z" fill="white"/>
<path d="M77.0632 158.899L65.9327 194.516C65.6725 195.349 66.6407 196.02 67.3293 195.485L97.3815 172.111C97.8653 171.734 97.8331 170.993 97.3185 170.66L78.3968 158.417C77.9023 158.097 77.2389 158.337 77.0632 158.899ZM78.4133 160.549L95.2986 171.474L68.4807 192.333L78.4133 160.549Z" fill="#082744"/>
<path d="M178.087 159.164L159.165 171.408L189.217 194.781L178.087 159.164Z" fill="white"/>
<path d="M177.603 158.417L158.681 170.66C158.167 170.993 158.135 171.734 158.618 172.111L188.671 195.485C189.359 196.02 190.327 195.349 190.067 194.516L178.937 158.899C178.761 158.337 178.098 158.097 177.603 158.417ZM177.586 160.549L187.519 192.333L160.701 171.474L177.586 160.549Z" fill="#082744"/>
<path d="M66.7826 61.2169L103.513 15.8047H152.487L128 94.6082L66.7826 61.2169Z" fill="#4BA8FF"/>
<path d="M103.513 15.8047H152.487L189.217 61.2169L128 94.6082L103.513 15.8047Z" fill="#468BCC"/>
<path d="M152.487 15.8047L189.217 61.2169V155.826L128 94.6082L152.487 15.8047Z" fill="#166EBF"/>
<path d="M189.217 61.2188V155.827L152.487 180.314L128 94.6101L189.217 61.2188Z" fill="#0B457F"/>
<path d="M189.217 155.827L152.487 180.314L128 245.983V94.6094L189.217 155.827Z" fill="#0C3861"/>
<path d="M152.487 180.314V233.74L128 245.983L103.513 180.314L128 94.6094L152.487 180.314Z" fill="#166EBF"/>
<path d="M128 245.983L103.513 233.74V180.314L66.7826 155.827L128 94.6094V245.983Z" fill="#4BA8FF"/>
<path d="M103.513 180.314L66.7826 155.827V61.2188L128 94.6101L103.513 180.314Z" fill="#166EBF"/>
<path d="M66.7826 155.827V61.2188L128 94.6101L66.7826 155.827Z" fill="#468BCC"/>
<path d="M152.487 14.9141H103.513C103.244 14.9141 102.99 15.0355 102.821 15.2445L66.0903 60.6567C65.9621 60.8152 65.8922 61.0128 65.8922 61.2167V155.825L65.8937 155.878C65.9101 156.155 66.0556 156.411 66.2887 156.566L102.623 180.789V233.738C102.623 234.076 102.813 234.384 103.115 234.535L127.602 246.778C127.853 246.904 128.148 246.904 128.398 246.778L152.885 234.535L152.928 234.512C153.205 234.355 153.377 234.06 153.377 233.738V180.789L189.711 156.566C189.959 156.401 190.108 156.123 190.108 155.825V61.2167C190.108 61.0128 190.038 60.8152 189.91 60.6567L153.179 15.2445C153.01 15.0355 152.756 14.9141 152.487 14.9141ZM152.062 16.6949L188.327 61.5319V155.349L151.993 179.571L151.95 179.602C151.728 179.769 151.597 180.032 151.597 180.312V233.188L128 244.986L104.404 233.188V180.312L104.402 180.26C104.386 179.982 104.24 179.727 104.007 179.571L67.6731 155.349V61.5317L103.938 16.6949H152.062Z" fill="#082744"/>
<path d="M80.1392 86.8164L109.078 95.7208L80.1392 106.851V86.8164Z" fill="white"/>
<path d="M175.861 86.8164L146.922 95.7208L175.861 106.851V86.8164Z" fill="white"/>
</g>
<defs>
<clipPath id="clip0_1_8661">
<rect width="256" height="247" fill="white"/>
</clipPath>
</defs>
</svg>
