<svg width="256" height="264" viewBox="0 0 256 264" fill="none" xmlns="http://www.w3.org/2000/svg">
<g clip-path="url(#clip0_1_8688)">
<path d="M255.008 158.085C253.473 153.436 249.452 150.198 244.252 149.421C241.8 149.055 238.992 149.211 235.669 149.896C229.877 151.091 225.58 151.546 222.444 151.634C234.281 131.649 243.906 108.859 249.447 87.4055C258.406 52.7172 253.619 36.9143 248.024 29.7659C233.217 10.8467 211.614 0.682358 185.552 0.370783C171.649 0.201102 159.444 2.94615 153.077 4.91966C147.149 3.87438 140.775 3.29025 134.086 3.18205C121.55 2.98222 110.473 5.71486 101.008 11.3315C95.7671 9.56018 87.3581 7.06226 77.646 5.46773C54.8035 1.71759 36.394 4.64001 22.9283 14.1528C6.6223 25.671 -0.937086 45.6828 0.461158 73.6329C0.904576 82.5072 5.86908 109.507 13.6851 135.113C18.1772 149.83 22.9673 162.053 27.9223 171.443C34.949 184.758 42.4676 192.599 50.9085 195.414C55.6401 196.991 64.2359 198.094 73.2775 190.566C74.4233 191.953 75.9516 193.332 77.9813 194.613C80.5578 196.238 83.709 197.566 86.8555 198.353C98.197 201.188 108.82 200.479 117.883 196.505C117.939 198.117 117.982 199.657 118.018 200.987C118.079 203.144 118.138 205.259 118.217 207.237C118.754 220.611 119.664 231.01 122.36 238.286C122.508 238.687 122.707 239.296 122.917 239.942C124.262 244.061 126.511 250.955 132.233 256.354C138.158 261.947 145.325 263.662 151.889 263.662C155.181 263.662 158.322 263.23 161.077 262.64C170.897 260.535 182.05 257.329 190.118 245.841C197.746 234.981 201.454 218.624 202.125 192.85C202.212 192.122 202.292 191.426 202.369 190.763C202.422 190.315 202.475 189.857 202.529 189.401L204.326 189.559L204.789 189.59C214.791 190.046 227.021 187.925 234.532 184.436C240.467 181.681 259.486 171.641 255.008 158.085Z" fill="black"/>
<path d="M237.906 160.722C208.166 166.857 206.121 156.787 206.121 156.787C237.522 110.194 250.648 51.0512 239.32 36.5762C208.417 -2.90866 154.922 15.7652 154.029 16.25L153.742 16.3014C147.866 15.0817 141.291 14.3551 133.9 14.2345C120.444 14.0139 110.236 17.7623 102.491 23.6361C102.491 23.6361 7.06046 -15.6773 11.4988 73.0802C12.443 91.9627 38.5627 215.954 69.7172 178.503C81.1042 164.808 92.1063 153.229 92.1063 153.229C97.571 156.859 104.113 158.711 110.971 158.046L111.504 157.593C111.338 159.294 111.414 160.957 111.717 162.926C103.691 171.893 106.05 173.467 90.0056 176.77C73.7712 180.115 83.3083 186.072 89.535 187.629C97.0838 189.516 114.548 192.191 126.348 175.672L125.878 177.557C129.022 180.075 131.231 193.94 130.86 206.508C130.49 219.077 130.243 227.706 132.721 234.446C135.199 241.186 137.668 256.351 158.76 251.831C176.383 248.055 185.516 238.268 186.787 221.942C187.688 210.336 189.729 212.052 189.857 201.675L191.494 196.762C193.381 181.029 191.794 175.954 202.652 178.315L205.29 178.546C213.282 178.91 223.741 177.261 229.88 174.408C243.098 168.273 250.938 158.031 237.904 160.722H237.906Z" fill="#336791"/>
<path d="M108.076 81.5227C105.397 81.1497 102.969 81.495 101.741 82.4244C101.05 82.9476 100.837 83.5536 100.78 83.971C100.625 85.076 101.4 86.2975 101.875 86.9277C103.221 88.7114 105.187 89.9376 107.133 90.2078C107.415 90.2469 107.696 90.2658 107.975 90.2658C111.221 90.2658 114.171 87.7389 114.431 85.8736C114.756 83.5376 111.365 81.9804 108.076 81.5227Z" fill="white"/>
<path d="M196.86 81.5962C196.605 79.7652 193.346 79.2431 190.253 79.6729C187.166 80.1034 184.172 81.4969 184.422 83.332C184.623 84.7592 187.199 87.1957 190.249 87.1951C190.507 87.1951 190.767 87.1779 191.029 87.1413C193.065 86.8593 194.559 85.5663 195.268 84.8207C196.35 83.6856 196.974 82.4192 196.86 81.5962Z" fill="white"/>
<path d="M247.802 160.026C246.668 156.597 243.018 155.493 236.954 156.746C218.949 160.462 212.501 157.887 210.384 156.328C224.379 135.008 235.892 109.237 242.103 85.1911C245.045 73.8012 246.67 63.2236 246.803 54.6024C246.95 45.1381 245.338 38.1847 242.014 33.9368C228.612 16.8114 208.942 7.62551 185.132 7.37306C168.763 7.18919 154.933 11.3786 152.252 12.5563C146.606 11.1522 140.451 10.2902 133.75 10.1802C121.462 9.98154 110.84 12.9235 102.046 18.9197C98.226 17.4984 88.3537 14.1095 76.2815 12.1649C55.4089 8.80382 38.8233 11.3502 26.987 19.7356C12.8639 29.7414 6.34384 47.6271 7.60728 72.8949C8.03237 81.3967 12.8757 107.548 20.5202 132.594C30.5822 165.557 41.5193 184.219 53.0281 188.057C54.3749 188.506 55.9286 188.821 57.6408 188.821C61.8391 188.821 66.9857 186.928 72.341 180.491C81.236 169.789 89.5409 160.822 92.6022 157.564C97.1263 159.993 102.096 161.348 107.179 161.484C107.188 161.617 107.202 161.751 107.214 161.883C106.194 163.093 105.357 164.153 104.644 165.058C101.122 169.529 100.389 170.459 89.0519 172.794C85.8274 173.459 77.2612 175.225 77.1364 181.228C76.9998 187.788 87.2605 190.543 88.43 190.835C92.5041 191.855 96.4286 192.358 100.172 192.358C109.275 192.358 117.286 189.366 123.688 183.577C123.491 206.963 124.466 230.007 127.274 237.029C129.573 242.776 135.192 256.823 152.938 256.822C155.542 256.822 158.408 256.52 161.561 255.844C180.082 251.873 188.125 243.687 191.236 225.641C192.901 215.996 195.758 192.964 197.102 180.611C199.938 181.495 203.589 181.9 207.536 181.899C215.768 181.899 225.267 180.151 231.224 177.385C237.916 174.278 249.992 166.651 247.802 160.026ZM203.696 76.5451C203.635 80.1924 203.133 83.5032 202.601 86.9595C202.028 90.6765 201.436 94.5195 201.287 99.1848C201.14 103.725 201.707 108.445 202.255 113.009C203.363 122.229 204.5 131.721 200.099 141.087C199.415 139.872 198.754 138.547 198.149 137.079C197.602 135.753 196.414 133.622 194.77 130.674C188.37 119.198 173.385 92.3249 181.056 81.3588C183.341 78.0941 189.14 74.7389 203.696 76.5451ZM186.052 14.7586C207.386 15.2298 224.261 23.2108 236.21 38.4785C245.374 50.1895 235.283 103.477 206.07 149.447C205.781 149.081 205.488 148.71 205.184 148.331C205.062 148.179 204.939 148.025 204.814 147.869C212.363 135.401 210.887 123.067 209.573 112.13C209.033 107.642 208.524 103.403 208.653 99.4219C208.787 95.2006 209.345 91.5817 209.885 88.0816C210.548 83.7681 211.223 79.3055 211.037 74.0442C211.176 73.4926 211.232 72.8405 211.159 72.0666C210.684 67.0211 204.924 51.923 193.184 38.2556C186.762 30.7814 177.397 22.4162 164.61 16.7741C170.11 15.6342 177.631 14.5712 186.052 14.7586ZM66.6741 175.778C60.7743 182.872 56.6996 181.513 55.3599 181.066C46.6292 178.154 36.4998 159.703 27.5688 130.442C19.8409 105.124 15.3245 79.6656 14.9674 72.5265C13.8388 49.9489 19.3117 34.2134 31.235 25.7578C50.6389 11.997 82.5414 20.2334 95.3603 24.4109C95.1758 24.5925 94.9843 24.7627 94.8016 24.9472C73.7664 46.1916 74.2654 82.4881 74.3169 84.7063C74.3151 85.5624 74.3866 86.7744 74.4854 88.4417C74.8472 94.5461 75.5206 105.908 73.7215 118.776C72.0489 130.733 75.7346 142.436 83.832 150.884C84.6704 151.759 85.5454 152.58 86.4494 153.353C82.8447 157.213 75.0116 165.748 66.6741 175.778ZM89.153 145.785C82.6265 138.976 79.6627 129.504 81.0202 119.796C82.9203 106.203 82.2186 94.3652 81.842 88.0054C81.7893 87.1156 81.7426 86.3358 81.7148 85.7203C84.788 82.9959 99.0288 75.365 109.184 77.6921C113.819 78.7539 116.643 81.9093 117.817 87.3379C123.893 115.441 118.621 127.154 114.385 136.566C113.512 138.505 112.687 140.338 111.983 142.235L111.437 143.7C110.055 147.407 108.769 150.852 107.972 154.125C101.034 154.104 94.2849 151.14 89.153 145.785ZM90.2178 183.686C88.1923 183.179 86.3701 182.3 85.3012 181.571C86.194 181.151 87.7832 180.58 90.5389 180.012C103.876 177.266 105.936 175.329 110.434 169.617C111.465 168.308 112.634 166.824 114.253 165.016L114.255 165.013C116.666 162.314 117.769 162.772 119.769 163.601C121.39 164.272 122.969 166.304 123.609 168.54C123.912 169.595 124.252 171.6 123.139 173.159C113.743 186.315 100.051 186.146 90.2178 183.686ZM160.017 248.638C143.701 252.134 137.924 243.809 134.117 234.292C131.66 228.147 130.452 200.441 131.309 169.844C131.32 169.437 131.262 169.044 131.15 168.674C131.052 167.961 130.902 167.239 130.694 166.512C129.42 162.06 126.315 158.336 122.59 156.793C121.11 156.179 118.394 155.054 115.13 155.889C115.826 153.021 117.033 149.783 118.342 146.276L118.891 144.8C119.509 143.137 120.285 141.414 121.105 139.591C125.538 129.742 131.609 116.253 125.02 85.78C122.552 74.3664 114.31 68.793 101.816 70.0871C94.3251 70.8622 87.4728 73.8846 84.0549 75.6175C83.32 75.9899 82.6478 76.3494 82.0199 76.7C82.9736 65.1995 86.5782 43.7079 100.061 30.1103C108.549 21.5494 119.854 17.3216 133.628 17.5492C160.769 17.9938 178.172 31.9219 187.994 43.5282C196.458 53.5299 201.041 63.6044 202.87 69.0377C189.115 67.6395 179.76 70.355 175.018 77.1345C164.701 91.882 180.662 120.507 188.333 134.263C189.74 136.785 190.954 138.964 191.336 139.889C193.834 145.944 197.068 149.985 199.429 152.936C200.153 153.84 200.855 154.717 201.389 155.482C197.223 156.684 189.74 159.458 190.422 173.329C189.872 180.29 185.961 212.875 183.974 224.388C181.351 239.598 175.754 245.264 160.017 248.638ZM228.121 170.701C223.861 172.679 216.732 174.162 209.96 174.48C202.479 174.831 198.672 173.642 197.776 172.912C197.355 164.268 200.573 163.365 203.978 162.409C204.513 162.258 205.035 162.112 205.539 161.936C205.852 162.19 206.195 162.443 206.571 162.691C212.583 166.659 223.306 167.087 238.445 163.963C238.5 163.951 238.556 163.94 238.611 163.929C236.569 165.838 233.075 168.401 228.121 170.701Z" fill="white"/>
</g>
<defs>
<clipPath id="clip0_1_8688">
<rect width="256" height="264" fill="white"/>
</clipPath>
</defs>
</svg>
