<svg width="256" height="330" viewBox="0 0 256 330" fill="none" xmlns="http://www.w3.org/2000/svg">
<g clip-path="url(#clip0_1_8745)">
<path d="M18.7518 0L0 91.4586L53.7816 142.202L18.839 204.491L89.9404 329.677H167.725L239.131 204.491L203.886 142.202L255.845 91.4586L238.739 0L165.599 97.4094H92.3719L18.7518 0Z" fill="#6CCB94" fill-opacity="0.9"/>
<path d="M18.8389 204.492L53.7805 142.203L128.825 204.493L18.8389 204.492Z" fill="#5DBD85" fill-opacity="0.9"/>
<path d="M53.7815 142.202L128.826 204.491L92.3709 97.4102L53.7815 142.202Z" fill="#64C48C" fill-opacity="0.9"/>
<path d="M239.13 204.492L203.884 142.203L128.828 204.493L239.13 204.492Z" fill="#6ECC95" fill-opacity="0.9"/>
<path d="M89.9395 329.679H167.724L128.827 204.492L89.9395 329.679Z" fill="#5EBE86" fill-opacity="0.9"/>
<path d="M203.884 142.202L128.828 204.491L165.599 97.4102L203.884 142.202Z" fill="#76D29C" fill-opacity="0.9"/>
<path d="M238.739 0L255.841 91.4595L203.884 142.203L165.598 97.4103L238.739 0Z" fill="#74D09B" fill-opacity="0.9"/>
<path d="M128.825 204.492L167.725 329.679L239.13 204.492H128.825Z" fill="#64C48C" fill-opacity="0.9"/>
<path d="M128.825 204.492L89.9281 329.679L18.8389 204.492H128.825Z" fill="#58B880" fill-opacity="0.9"/>
<path d="M18.7518 0L0 91.4605L53.7816 142.204L92.371 97.4113L18.7518 0Z" fill="#5FBF87" fill-opacity="0.9"/>
<path d="M128.825 204.489L165.598 97.4102H92.3711L128.825 204.489Z" fill="#6ECC95" fill-opacity="0.9"/>
</g>
<defs>
<clipPath id="clip0_1_8745">
<rect width="256" height="330" fill="white"/>
</clipPath>
</defs>
</svg>
