<svg width="256" height="256" viewBox="0 0 256 256" fill="none" xmlns="http://www.w3.org/2000/svg">
<g clip-path="url(#clip0_1_8781)">
<path d="M82.979 196.416C85.023 195.506 87.094 194.669 89.184 193.884C91.544 192.997 93.923 192.163 96.334 191.437C99.335 190.533 102.361 189.715 105.428 189.064C109.563 188.186 113.747 187.536 117.962 187.127C115.598 194.56 112.985 201.951 110.154 209.295C110.275 210.717 110.34 212.148 110.378 213.583C116.08 212.458 121.968 211.856 128 211.856C134.031 211.856 139.92 212.458 145.622 213.583C145.66 212.148 145.725 210.717 145.846 209.295C143.014 201.951 140.402 194.56 138.038 187.127C142.253 187.536 146.437 188.186 150.572 189.064C153.638 189.715 156.664 190.533 159.665 191.437C162.077 192.163 164.456 192.997 166.816 193.884C168.907 194.67 170.979 195.507 173.023 196.417C187.527 202.876 200.749 212.456 211.593 224.888C238.773 201.417 256 166.731 256 128C256 57.308 198.692 0 128 0C57.308 0 0 57.308 0 128C0 166.731 17.227 201.416 44.407 224.888C55.251 212.456 68.475 202.875 82.979 196.416Z" fill="#A5DBE8"/>
<path d="M173.023 196.418L180.969 223.741L183.223 223.847C184.686 223.847 185.715 224.232 185.715 225.695C185.715 228.127 185.841 230.86 186.074 233.246C188.054 234.927 190.465 236.823 192.293 238.665C199.16 234.667 205.615 230.051 211.593 224.889C200.749 212.457 187.527 202.877 173.023 196.418Z" fill="#525353"/>
<path d="M157.486 196.146L166.816 193.886C164.456 192.999 162.077 192.165 159.665 191.439C156.664 190.535 153.638 189.717 150.572 189.066C146.437 188.188 142.253 187.538 138.038 187.129C140.402 194.562 143.014 201.953 145.846 209.297C145.725 210.719 145.66 212.15 145.622 213.585C152.233 214.889 158.733 217.155 164.743 219.813L157.486 196.146Z" fill="#525353"/>
<path d="M63.707 238.666C65.193 239.532 66.694 240.377 68.22 241.184C68.754 238.619 69.608 235.065 69.866 232.426C67.886 234.107 65.535 236.824 63.707 238.666Z" fill="black"/>
<path d="M164.587 219.574C158.578 216.916 152.233 214.886 145.622 213.582C139.92 212.457 134.031 211.855 128 211.855C121.968 211.855 116.08 212.457 110.378 213.582C103.768 214.885 96.871 216.862 90.863 219.519L90.224 223.5H165.778L164.587 219.574Z" fill="black"/>
<path d="M69.632 233.18C69.866 230.794 70.035 228.667 70.035 226.234C70.035 224.772 71.038 223.835 72.501 223.835L74.9 223.751L82.979 196.414C68.475 202.873 55.251 212.454 44.407 224.886C50.385 230.048 56.84 234.664 63.707 238.662C65.535 236.82 67.439 235.053 69.419 233.372" fill="#525353"/>
<path d="M187.051 238.046C187.569 240.646 187.686 241.164 187.78 241.183C189.306 240.376 190.806 239.531 192.293 238.665C190.465 236.823 188.502 234.997 186.521 233.316L187.051 238.046Z" fill="black"/>
<path d="M164.587 219.574L165.778 223.5H181.232L173.023 196.416C170.979 195.506 168.907 194.669 166.816 193.883L157.486 196.143L164.587 219.574Z" fill="#AA9678"/>
<path d="M75.0391 228.973C75.1201 228.916 75.2021 228.859 75.2821 228.801H75.0501C75.0481 228.858 75.0421 228.916 75.0391 228.973Z" fill="#C4B6A1"/>
<path d="M180.95 228.801H180.717C180.798 228.859 180.88 228.916 180.96 228.973C180.958 228.916 180.952 228.858 180.95 228.801Z" fill="#AA9678"/>
<path d="M180.684 228.402L127.89 228.462L128 255.998C147.648 255.998 166.256 251.559 182.893 243.647C181.807 238.875 181.698 233.735 181.521 228.733C181.441 228.675 180.684 228.402 180.684 228.402Z" fill="#AA9678"/>
<path d="M127.915 228.58C127.915 228.58 74.8301 228.513 74.7491 228.57C74.5731 233.573 73.5411 239.509 73.1071 243.651C89.7441 251.563 108.352 256.002 128 256.002L128.03 228.669L127.915 228.58Z" fill="#C4B6A1"/>
<path d="M128 226.148H128.001V228.797H128V226.148Z" fill="#786453"/>
<path d="M164.649 205.237C164.263 204.793 163.865 204.318 163.452 203.777C163.866 204.318 164.263 204.793 164.649 205.237Z" fill="#525353"/>
<path d="M211.858 129.164C211.858 129.152 211.857 129.142 211.857 129.129C211.857 129.141 211.858 129.152 211.858 129.164Z" fill="#BBBCBD"/>
<path d="M211.714 127.17C211.718 127.204 211.728 127.234 211.732 127.268C211.735 127.289 211.741 127.308 211.744 127.328V127.336C211.805 127.825 211.828 128.336 211.839 128.851C211.841 128.946 211.857 129.035 211.857 129.129C211.857 129.142 211.858 129.152 211.858 129.164C211.858 129.177 211.857 129.189 211.857 129.202C211.856 129.304 211.839 129.399 211.838 129.5C211.826 130.005 211.804 130.506 211.745 130.986V130.993C211.741 131.018 211.735 131.041 211.731 131.066C211.727 131.105 211.715 131.14 211.71 131.178C211.638 131.702 211.546 132.21 211.423 132.693C211.422 132.696 211.422 132.698 211.421 132.7L211.439 132.681C211.441 132.673 211.444 132.666 211.446 132.658V132.659L214.796 129.152L211.419 125.617C211.419 125.619 211.419 125.622 211.42 125.624C211.546 126.117 211.642 126.635 211.714 127.17Z" fill="#676A6A"/>
<path d="M211.71 131.177C211.719 131.111 211.736 131.052 211.745 130.985C211.804 130.505 211.826 130.004 211.838 129.499C211.839 129.385 211.857 129.278 211.857 129.163C211.857 129.056 211.841 128.956 211.839 128.85C211.828 128.335 211.805 127.824 211.744 127.335C211.736 127.277 211.721 127.226 211.714 127.169C211.642 126.634 211.546 126.116 211.42 125.623C211.376 125.451 211.315 125.298 211.264 125.132C210.961 124.13 210.548 123.245 210.058 122.51C209.992 122.412 209.925 122.317 209.857 122.225C209.722 122.044 209.587 121.868 209.444 121.71C209.232 121.481 209.013 121.27 208.782 121.095C208.694 121.028 208.601 120.981 208.511 120.923C208.311 120.794 208.107 120.681 207.896 120.595C207.806 120.559 207.715 120.523 207.623 120.494C207.325 120.402 207.02 120.336 206.706 120.336C206.392 120.336 206.088 120.402 205.789 120.494C205.697 120.523 205.606 120.559 205.516 120.596C205.305 120.681 205.101 120.794 204.9 120.923C204.812 120.981 204.718 121.027 204.631 121.094C204.4 121.27 204.18 121.481 203.968 121.71C203.825 121.868 203.69 122.044 203.557 122.223C203.487 122.317 203.42 122.412 203.354 122.511C202.864 123.246 202.45 124.131 202.148 125.133C202.136 125.173 202.122 125.212 202.11 125.253C201.976 125.713 201.872 126.197 201.785 126.694C201.759 126.846 201.724 126.992 201.703 127.148C201.623 127.704 201.582 128.284 201.572 128.878C201.571 128.96 201.558 129.038 201.558 129.12H201.578C201.578 133.996 203.885 137.948 206.73 137.948C207.22 137.948 207.691 137.82 208.14 137.601C208.212 137.565 208.283 137.528 208.354 137.487C208.54 137.38 208.723 137.263 208.898 137.122C208.995 137.044 209.086 136.95 209.179 136.862C209.406 136.65 209.622 136.41 209.827 136.143C209.969 135.956 210.109 135.769 210.239 135.56C210.322 135.427 210.398 135.283 210.475 135.141C210.619 134.875 210.755 134.598 210.878 134.304C210.924 134.198 210.971 134.095 211.013 133.986C211.17 133.577 211.307 133.145 211.423 132.692C211.546 132.209 211.638 131.701 211.71 131.177ZM206.891 127.988C205.824 127.988 204.959 126.505 204.959 124.677C204.959 122.85 205.824 121.367 206.891 121.367C207.958 121.367 208.822 122.85 208.822 124.677C208.822 126.505 207.958 127.988 206.891 127.988Z" fill="black"/>
<path d="M206.891 121.367C205.824 121.367 204.959 122.85 204.959 124.677C204.959 126.505 205.824 127.988 206.891 127.988C207.958 127.988 208.822 126.505 208.822 124.677C208.822 122.85 207.958 121.367 206.891 121.367Z" fill="white"/>
<path d="M202.148 125.134C202.45 124.132 202.864 123.247 203.354 122.512C203.42 122.412 203.487 122.319 203.557 122.224C203.69 122.045 203.825 121.869 203.968 121.711C204.18 121.48 204.4 121.272 204.631 121.095C204.718 121.028 204.812 120.982 204.9 120.924C205.1 120.793 205.305 120.684 205.516 120.597C205.606 120.56 205.697 120.524 205.789 120.495C206.087 120.401 206.392 120.337 206.706 120.337C207.02 120.337 207.325 120.401 207.623 120.495C207.715 120.524 207.806 120.56 207.896 120.596C208.107 120.684 208.311 120.793 208.511 120.924C208.601 120.982 208.694 121.029 208.782 121.096C209.012 121.272 209.232 121.48 209.444 121.711C209.587 121.869 209.722 122.045 209.857 122.226C209.925 122.319 209.992 122.412 210.058 122.511C210.548 123.246 210.961 124.131 211.264 125.133V125.135L206.706 104.258L202.148 125.134Z" fill="#909393"/>
<path d="M146.299 128.968C146.293 128.548 146.266 128.133 146.219 127.725C146.218 127.72 146.216 127.714 146.216 127.708C146.168 127.306 146.101 126.909 146.015 126.52C146.012 126.51 146.009 126.501 146.007 126.49C145.921 126.105 145.816 125.727 145.694 125.356C145.691 125.348 145.687 125.34 145.684 125.331C145.561 124.96 145.421 124.597 145.262 124.243C145.26 124.236 145.255 124.229 145.252 124.221C145.093 123.866 144.917 123.519 144.725 123.183C144.139 122.156 143.408 121.225 142.558 120.415C141.479 119.388 140.21 118.557 138.811 117.981C138.8 117.977 138.787 117.973 138.776 117.968C138.086 117.687 137.365 117.467 136.618 117.317C136.599 117.314 136.581 117.313 136.562 117.309C135.813 117.162 135.041 117.082 134.249 117.082C133.47 117.082 132.713 117.162 131.976 117.303C131.95 117.308 131.924 117.31 131.898 117.315C131.165 117.461 130.458 117.675 129.779 117.947C129.762 117.954 129.743 117.96 129.725 117.968C129.037 118.248 128.38 118.589 127.763 118.986C127.76 118.988 127.758 118.989 127.756 118.989C127.133 119.391 126.548 119.848 126.01 120.353L125.997 120.394L125.952 120.404C125.093 121.221 124.354 122.163 123.763 123.198C123.757 123.21 123.749 123.222 123.741 123.235C123.561 123.552 123.398 123.882 123.248 124.218C123.232 124.254 123.212 124.288 123.197 124.324C123.06 124.635 122.942 124.957 122.832 125.281C122.811 125.345 122.783 125.405 122.763 125.468C122.667 125.771 122.589 126.082 122.515 126.393C122.496 126.483 122.467 126.569 122.448 126.658C122.384 126.966 122.34 127.281 122.299 127.597C122.287 127.694 122.266 127.787 122.256 127.884C122.213 128.297 122.189 128.716 122.189 129.142C122.189 129.94 122.271 130.718 122.42 131.472C122.422 131.487 122.423 131.504 122.427 131.52C122.578 132.273 122.8 132.999 123.085 133.694C123.089 133.704 123.091 133.714 123.096 133.723C123.676 135.129 124.515 136.402 125.552 137.483C126.372 138.338 127.316 139.071 128.354 139.657C128.359 139.66 128.364 139.663 128.369 139.666C128.693 139.848 129.028 140.012 129.369 140.164C129.397 140.176 129.424 140.192 129.453 140.204C129.769 140.342 130.096 140.461 130.425 140.572C130.481 140.591 130.535 140.615 130.591 140.633C130.895 140.73 131.209 140.808 131.523 140.88C131.608 140.9 131.69 140.928 131.776 140.946C132.081 141.009 132.395 141.052 132.711 141.093C132.806 141.104 132.9 141.126 132.997 141.136C133.408 141.179 133.826 141.202 134.249 141.202C135.914 141.202 137.5 140.864 138.943 140.253C139.664 139.949 140.35 139.576 140.991 139.142C142.275 138.275 143.382 137.167 144.249 135.885C144.682 135.243 145.056 134.558 145.361 133.836C145.971 132.393 146.309 130.807 146.309 129.142C146.309 129.113 146.305 129.086 146.305 129.059C146.304 129.028 146.3 128.999 146.299 128.968ZM134.249 127.555C131.747 127.555 129.719 125.526 129.719 123.024C129.719 120.522 131.747 118.494 134.249 118.494C136.751 118.494 138.779 120.522 138.779 123.024C138.779 125.526 136.751 127.555 134.249 127.555Z" fill="black"/>
<path d="M134.249 118.492C131.747 118.492 129.719 120.52 129.719 123.022C129.719 125.524 131.747 127.553 134.249 127.553C136.751 127.553 138.779 125.524 138.779 123.022C138.779 120.52 136.751 118.492 134.249 118.492Z" fill="white"/>
<path d="M125.952 120.404L125.997 120.394L126.01 120.353L134.316 94.9507V89.0057C134.316 88.9617 134.315 88.9388 134.315 88.9388C129.689 87.9898 124.933 87.4688 120.065 87.4688C118.44 87.4688 116.828 87.5378 115.226 87.6468C114.993 87.6628 114.759 87.6767 114.525 87.6947C106.188 88.3277 97.978 90.5007 90.3759 93.9707C83.8569 96.9477 77.8 100.869 72.355 105.518C72.353 105.521 72.349 105.524 72.346 105.527C70.884 106.769 69.4829 108.08 68.1149 109.424C67.8589 109.674 67.599 109.922 67.346 110.176C66.058 111.474 64.813 112.815 63.609 114.195C63.348 114.496 63.091 114.803 62.833 115.107C61.624 116.534 60.448 117.988 59.331 119.49C59.238 119.616 59.1509 119.748 59.0589 119.874C57.9939 121.323 56.9799 122.81 56.0029 124.322C55.8119 124.617 55.616 124.908 55.429 125.206C54.639 126.459 53.904 127.746 53.174 129.036H91.011L125.952 120.404Z" fill="#BBBCBD"/>
<path d="M157.895 117.544C157.972 116.553 158.035 115.563 158.086 114.571C158.155 113.229 158.202 111.885 158.228 110.542C158.248 109.499 158.245 108.455 158.24 107.412C158.24 107.111 158.247 106.81 158.244 106.508C158.216 103.82 158.111 101.129 157.947 98.4355C157.939 98.4305 157.932 98.4255 157.924 98.4205C157.921 98.4135 157.917 98.4075 157.914 98.4015C157.904 98.3945 157.865 98.3725 157.829 98.3525C157.797 98.3335 157.769 98.3175 157.709 98.2835C157.215 97.9995 156.001 97.3045 154.911 96.6855C154.887 96.6725 154.864 96.6585 154.841 96.6455C154.565 96.4895 154.299 96.3385 154.058 96.2025C154.053 96.1995 154.048 96.1975 154.044 96.1945C153.836 96.0775 153.662 95.9805 153.501 95.8905C153.469 95.8725 153.424 95.8475 153.394 95.8305C153.217 95.7325 153.08 95.6585 152.999 95.6155C151.26 94.7135 149.485 93.8785 147.68 93.1165C143.377 91.2995 137.581 89.7065 134.316 88.9375V94.9495L142.549 120.392L142.558 120.413C143.408 121.223 144.139 122.154 144.725 123.18C144.917 123.516 145.093 123.864 145.252 124.219C145.256 124.227 145.26 124.234 145.262 124.241C145.421 124.595 145.561 124.958 145.684 125.329C145.687 125.338 145.691 125.347 145.694 125.354C145.816 125.725 145.921 126.103 146.007 126.488C146.009 126.499 146.012 126.508 146.015 126.518C146.101 126.907 146.168 127.304 146.216 127.706C146.216 127.712 146.218 127.718 146.219 127.723C146.266 128.131 146.293 128.547 146.299 128.966L146.33 129.034H156.411C157.092 125.345 157.567 121.608 157.868 117.854C157.875 117.75 157.887 117.647 157.895 117.544Z" fill="#E3DDDB"/>
<path d="M171.079 108.551C171.072 108.562 171.067 108.575 171.061 108.586C171.067 108.575 171.073 108.562 171.079 108.551Z" fill="#FCB03F"/>
<path d="M126.01 120.351C126.548 119.846 127.133 119.389 127.756 118.987C127.758 118.987 127.76 118.986 127.763 118.984C128.38 118.587 129.037 118.246 129.725 117.966C129.743 117.958 129.762 117.953 129.779 117.945C130.458 117.673 131.165 117.459 131.898 117.313C131.924 117.308 131.949 117.306 131.976 117.301C132.713 117.16 133.47 117.08 134.249 117.08C135.041 117.08 135.813 117.16 136.562 117.307C136.581 117.311 136.599 117.312 136.618 117.315C137.365 117.465 138.086 117.685 138.776 117.966C138.787 117.971 138.799 117.975 138.811 117.979C140.21 118.555 141.479 119.386 142.558 120.413L142.549 120.392L134.316 94.9492L126.01 120.351Z" fill="#909393"/>
<path d="M123.085 133.692C122.8 132.997 122.578 132.271 122.427 131.518C122.423 131.502 122.422 131.485 122.42 131.47C122.271 130.716 122.189 129.938 122.189 129.14C122.189 128.714 122.213 128.295 122.256 127.882C122.266 127.785 122.287 127.692 122.299 127.595C122.34 127.279 122.384 126.964 122.448 126.656C122.467 126.567 122.496 126.481 122.515 126.391C122.589 126.08 122.667 125.769 122.763 125.466C122.784 125.403 122.81 125.343 122.832 125.279C122.942 124.955 123.06 124.633 123.197 124.322C123.212 124.286 123.232 124.252 123.248 124.216C123.398 123.88 123.561 123.55 123.741 123.233C123.749 123.22 123.757 123.208 123.763 123.196C124.354 122.161 125.093 121.219 125.952 120.402L91.011 129.034H90.944L125.552 137.481C124.515 136.4 123.676 135.127 123.096 133.721C123.091 133.712 123.089 133.702 123.085 133.692Z" fill="#676A6A"/>
<path d="M201.703 127.15C201.725 126.994 201.758 126.848 201.785 126.696C201.872 126.199 201.976 125.715 202.11 125.255C202.125 125.203 202.131 125.144 202.147 125.093L206.706 104.217L206.705 92.3137C202.98 89.2367 198.991 87.5547 194.838 87.5547C189.59 87.5547 184.697 90.4527 181.038 94.0317C177.034 97.9487 173.94 102.877 171.438 107.85C171.323 108.079 171.205 108.299 171.091 108.529C171.862 109.197 172.625 109.874 173.378 110.563C175.082 112.122 176.749 113.722 178.394 115.344C179.16 116.1 179.912 116.872 180.666 117.641C181.466 118.456 182.267 119.269 183.055 120.097C184.068 121.162 185.072 122.236 186.066 123.321C186.485 123.777 186.903 124.235 187.317 124.695C188.516 126.022 189.709 127.355 190.882 128.706L190.884 128.708C191.081 128.914 191.219 129.062 191.272 129.122H201.554C201.554 129.039 201.571 128.963 201.572 128.88C201.582 128.286 201.623 127.706 201.703 127.15Z" fill="#E3DDDB"/>
<path d="M171.09 108.582C171.086 108.571 171.082 108.56 171.079 108.551C171.073 108.562 171.067 108.574 171.061 108.585C171.067 108.591 171.097 108.621 171.106 108.629C171.101 108.613 171.096 108.598 171.09 108.582Z" fill="#E3DDDB"/>
<path d="M46.975 142.173C47.005 142.096 47.037 142.02 47.067 141.943C47.729 140.212 48.454 138.504 49.215 136.812C49.428 136.341 49.647 135.874 49.867 135.406C50.491 134.078 51.151 132.768 51.835 131.47C52.113 130.942 52.385 130.412 52.673 129.889C52.832 129.6 53.012 129.324 53.174 129.036C53.904 127.746 54.639 126.459 55.429 125.206C55.616 124.907 55.812 124.617 56.003 124.322C56.98 122.81 57.994 121.323 59.059 119.874C59.151 119.748 59.238 119.616 59.331 119.49C60.448 117.988 61.624 116.534 62.833 115.107C63.091 114.803 63.347 114.497 63.609 114.195C64.813 112.815 66.058 111.474 67.346 110.176C67.6 109.922 67.859 109.674 68.115 109.424C69.483 108.08 70.884 106.769 72.346 105.527C72.349 105.524 72.353 105.521 72.355 105.518C78.106 86.2536 96.676 74.4156 117.497 74.4156C125.877 74.4156 134.211 76.8306 141.353 81.1996C148.679 85.6806 153.674 90.0586 157.552 97.7116C157.571 97.7506 157.591 97.7886 157.61 97.8266C157.708 98.0206 157.818 98.2066 157.914 98.4026C157.917 98.4086 157.921 98.4146 157.924 98.4216C157.932 98.4266 157.939 98.4316 157.947 98.4366C161.191 100.435 164.286 102.7 167.228 105.182C168.209 106.01 169.173 106.861 170.12 107.736C170.432 108.022 170.753 108.294 171.061 108.585C171.067 108.573 171.072 108.561 171.079 108.55C171.082 108.542 171.086 108.533 171.09 108.526C171.196 108.309 171.3 108.088 171.407 107.874C174.341 89.3566 183.663 79.2596 193.297 79.2596C200.559 79.2596 205.838 83.5896 209.825 95.2456L209.866 95.3706C209.869 95.3746 209.873 95.3796 209.876 95.3846C211.002 96.6076 212.099 97.9556 213.163 99.4326L213.161 99.4316C213.182 99.4596 213.204 99.4856 213.225 99.5146C213.282 99.6836 213.331 99.8576 213.386 100.027L213.236 99.4186C201.251 63.9366 167.691 38.3906 128.163 38.3906C78.583 38.3906 38.391 78.5826 38.391 128.163C38.391 137.937 39.953 147.347 42.853 156.103C42.856 156.087 42.861 156.07 42.865 156.052C43.435 153.411 44.118 150.786 44.913 148.189C45.533 146.165 46.222 144.157 46.975 142.173Z" fill="#525353"/>
<path d="M214.577 129.157L211.446 132.66V132.659C211.444 132.667 211.441 132.674 211.439 132.682C211.32 133.143 211.174 133.573 211.013 133.988C210.971 134.097 210.924 134.2 210.878 134.306C210.754 134.6 210.62 134.878 210.475 135.143C210.398 135.285 210.322 135.429 210.239 135.562C210.109 135.77 209.969 135.959 209.827 136.145C209.622 136.412 209.406 136.652 209.179 136.864C209.086 136.951 208.996 137.046 208.898 137.124C208.723 137.265 208.54 137.382 208.354 137.489C208.282 137.529 208.212 137.567 208.14 137.603C207.691 137.822 207.22 137.95 206.73 137.95C203.885 137.95 201.578 133.998 201.578 129.122H191.241C191.244 129.125 191.245 129.128 191.247 129.13C193.167 131.346 195.053 133.592 196.914 135.86C196.936 135.888 196.958 135.915 196.981 135.942C198.79 138.15 200.572 140.378 202.335 142.621C202.422 142.731 202.508 142.84 202.595 142.95C204.267 145.082 205.92 147.228 207.559 149.38C207.718 149.587 207.878 149.795 208.037 150.004C209.77 152.284 211.487 154.57 213.192 156.859C213.204 156.876 213.215 156.891 213.228 156.907C216.181 148.169 217.833 138.834 217.936 129.122L215.03 129.012L214.577 129.157Z" fill="white"/>
<path d="M114.525 87.6955C114.759 87.6775 114.993 87.6635 115.226 87.6475C116.828 87.5385 118.44 87.4695 120.065 87.4695C124.933 87.4695 129.689 87.9905 134.315 88.9395C137.58 89.7085 143.377 91.3015 147.68 93.1185C149.485 93.8805 151.26 94.7155 152.999 95.6175C153.08 95.6605 153.217 95.7355 153.394 95.8325C153.424 95.8495 153.469 95.8745 153.501 95.8925C153.662 95.9825 153.838 96.0795 154.044 96.1965C154.048 96.1995 154.053 96.2015 154.058 96.2045C154.3 96.3415 154.564 96.4915 154.841 96.6475C154.864 96.6605 154.887 96.6745 154.911 96.6875C156.017 97.3145 157.241 98.0175 157.709 98.2855C157.769 98.3195 157.797 98.3355 157.829 98.3545C157.853 98.3685 157.905 98.3975 157.914 98.4035C157.818 98.2075 157.708 98.0215 157.61 97.8275C157.591 97.7895 157.571 97.7515 157.552 97.7125C153.674 90.0595 147.704 83.4955 140.378 79.0145C133.236 74.6455 124.902 72.2305 116.521 72.2305C95.701 72.2305 78.106 86.2545 72.355 105.518C77.8 100.869 83.857 96.9485 90.376 93.9715C97.978 90.5015 106.188 88.3285 114.525 87.6955Z" fill="black"/>
<path d="M213.225 99.5147C213.204 99.4857 213.182 99.4597 213.161 99.4317L213.163 99.4327C212.099 97.9557 211.002 96.6077 209.876 95.3847C209.867 95.3737 209.857 95.3607 209.847 95.3497C209.335 94.7957 208.82 94.2667 208.296 93.7647C208.099 93.5757 207.895 93.4107 207.696 93.2297C207.367 92.9307 207.04 92.6217 206.706 92.3477V104.257L211.265 125.135C211.315 125.297 211.375 125.448 211.419 125.616L214.577 129.155L214.608 129.12H217.913C217.917 128.814 217.936 128.512 217.936 128.205V128.2C217.935 118.353 216.317 108.891 213.386 100.026C213.331 99.8567 213.282 99.6837 213.225 99.5147Z" fill="#BBBCBD"/>
<path d="M181.038 94.0286C184.697 90.4496 189.59 87.5516 194.838 87.5516C198.991 87.5516 202.98 89.2336 206.705 92.3106C206.705 92.3106 206.706 92.3376 206.706 92.3466C207.04 92.6206 207.367 92.9296 207.696 93.2286C207.895 93.4096 208.099 93.5746 208.296 93.7636C208.82 94.2656 209.335 94.7946 209.847 95.3486C209.857 95.3596 209.867 95.3726 209.876 95.3836C209.874 95.3796 209.87 95.3746 209.867 95.3716L209.866 95.3706L209.825 95.2446C205.838 83.5886 199.405 76.0156 192.145 76.0156C182.51 76.0156 174.341 89.3556 171.407 107.873L171.438 107.847C173.94 102.874 177.034 97.9456 181.038 94.0286Z" fill="black"/>
<path d="M168.019 207.837C168.019 207.837 166.722 206.809 165.075 204.914C164.689 204.47 164.291 203.995 163.877 203.454C163.566 203.049 163.251 202.616 162.936 202.157C162.726 201.851 162.518 201.533 162.311 201.205C161.688 200.22 161.191 199.021 160.643 197.836C160.009 196.464 160.007 195.551 159.643 194.273C159.383 193.359 159.167 192.404 159.006 191.41C158.765 189.92 158.65 188.342 158.703 186.682C158.731 185.769 158.825 184.824 158.962 183.862C159.094 182.937 159.276 181.99 159.519 181.023C160.245 178.12 161.5 175.028 163.458 171.764C163.463 171.755 163.951 170.655 163.956 170.646C164.596 169.58 164.738 169.627 165.346 168.6C173.91 154.147 178.53 143.218 176.27 126.39C176.108 125.189 175.667 122.498 175.426 121.234C175.298 122.108 174.815 124.893 174.801 124.953C174.716 125.337 174.483 125.754 174.395 126.015C170.675 137.025 164.819 145.124 156.393 154.269C155.251 155.508 154.055 156.765 152.831 158.034C150.771 160.169 148.611 162.35 146.326 164.624C145.414 165.531 144.484 166.451 143.538 167.389C142.669 168.249 141.588 170.088 140.298 171.443C139.502 173.672 138.597 176.186 137.832 178.83C137.487 178.699 137.158 178.582 136.807 178.446C120.439 172.115 109.48 163.656 109.48 163.656C109.48 163.656 117.912 174.635 132.118 184.941C133.493 185.939 134.849 186.803 136.177 187.569C135.591 196.845 139.683 205.75 158.154 208.406C161.277 208.855 164.475 208.834 167.696 208.471C167.664 208.375 167.876 208.377 167.859 208.324C167.841 208.27 168.031 208.128 168.031 208.128" fill="black"/>
<path d="M158.139 183.958C174.537 186.604 198.806 186.17 224 174.374C224.607 174.09 225.276 174.838 225.883 174.54C225.883 174.54 208.664 192.127 188.1 202.07C187.499 202.36 186.906 202.669 186.299 202.945C184.312 203.853 182.291 204.644 180.262 205.374C176.283 206.804 172.251 207.889 168.248 208.39C168.064 208.414 167.88 208.449 167.696 208.469C167.664 208.373 167.638 208.295 167.621 208.242C167.603 208.188 167.594 208.159 167.594 208.159C167.594 208.159 166.296 207.13 164.649 205.235C164.263 204.791 163.865 204.316 163.452 203.775C163.141 203.37 162.826 202.937 162.511 202.478C162.301 202.172 162.092 201.854 161.885 201.526C161.263 200.541 160.658 199.452 160.11 198.268C159.563 197.084 159.073 195.803 158.683 194.431C158.422 193.517 158.206 192.562 158.045 191.568C157.804 190.077 157.69 188.5 157.742 186.84C157.77 185.926 157.864 184.982 158.001 184.02L158.139 183.958Z" fill="#9F2254"/>
<path d="M146.386 165.29C148.672 163.016 150.832 160.835 152.892 158.701C154.115 157.431 155.312 156.174 156.454 154.936C164.879 145.791 171.064 137.233 174.785 126.223C174.872 125.962 174.96 125.618 175.045 125.231C175.059 125.171 175.072 125.114 175.085 125.052C175.172 124.641 175.257 124.184 175.342 123.669C175.376 123.314 176.489 122.598 176.52 122.265C175.587 117.471 173.437 112.431 171.09 108.583C171.096 108.599 171.101 108.614 171.106 108.63C171.097 108.622 171.067 108.592 171.061 108.586C170.753 108.295 170.432 108.023 170.12 107.737C169.173 106.862 168.209 106.011 167.228 105.183C164.285 102.701 161.191 100.436 157.947 98.4375C158.111 101.132 158.216 103.823 158.244 106.511C158.248 106.813 158.24 107.114 158.24 107.415C158.245 108.458 158.248 109.502 158.228 110.545C158.202 111.888 158.155 113.232 158.086 114.574C158.035 115.566 157.972 116.556 157.895 117.547C157.887 117.65 157.875 117.753 157.868 117.856C157.567 121.61 157.092 125.347 156.411 129.036L155.227 134.635C152.754 144.661 147.731 153.756 143.601 163.146C142.506 165.636 141.467 168.154 140.556 170.719C140.473 170.954 140.384 171.201 140.298 171.443C141.588 170.088 142.73 168.915 143.598 168.055C144.545 167.118 145.475 166.197 146.386 165.29Z" fill="#FCB03F"/>
<path d="M92.198 219.215C98.207 216.557 103.768 214.888 110.378 213.585C110.34 212.15 110.275 210.719 110.154 209.297C112.985 201.953 115.598 194.562 117.962 187.129C113.747 187.538 109.563 188.188 105.428 189.066C102.361 189.717 99.335 190.535 96.334 191.439C93.923 192.165 91.544 192.999 89.184 193.886L98.515 196.146L91.007 219.712L92.198 219.215Z" fill="#525353"/>
<path d="M207.559 149.379C205.92 147.227 204.267 145.081 202.595 142.949C202.509 142.839 202.421 142.73 202.335 142.62C200.572 140.377 198.79 138.149 196.981 135.941C196.958 135.914 196.936 135.887 196.914 135.859C195.053 133.591 193.167 131.345 191.247 129.129C191.126 128.988 191.005 128.845 190.882 128.705C189.709 127.354 188.516 126.021 187.317 124.694C186.902 124.235 186.485 123.776 186.066 123.32C185.072 122.235 184.068 121.161 183.055 120.096C182.266 119.269 181.467 118.454 180.666 117.64C179.912 116.871 179.16 116.099 178.394 115.343C176.748 113.722 175.082 112.121 173.378 110.562C172.624 109.873 171.861 109.195 171.09 108.527C171.086 108.534 171.082 108.543 171.079 108.551C172.701 113.213 174.552 117.933 175.479 122.795C175.72 124.06 175.919 125.29 176.081 126.492C178.341 143.319 172.949 154.306 164.386 168.759C163.771 169.795 163.142 170.849 162.497 171.923C160.539 175.189 159.285 178.28 158.558 181.183C158.316 182.15 158.133 183.097 158.001 184.022C174.794 186.732 200.046 187.237 225.883 174.542C225.883 174.542 220.816 167.095 213.192 156.858C211.487 154.569 209.77 152.283 208.037 150.003C207.879 149.794 207.718 149.586 207.559 149.379Z" fill="#DF0067"/>
<path d="M90.115 223.921L98.515 196.143L89.184 193.883C87.094 194.668 85.023 195.505 82.979 196.415L74.66 223.921L83.947 224.066L90.115 223.921Z" fill="#AA9678"/>
<path d="M96.02 211.903C96.84 212.218 97.674 212.502 98.506 212.793C107.791 216.048 117.765 217.84 128.164 217.84C140.021 217.84 151.33 215.518 161.692 211.342C162.24 211.122 162.777 210.88 163.319 210.649C164.199 210.274 165.073 209.889 165.938 209.488C166.712 209.128 167.486 208.771 168.248 208.39C168.064 208.414 167.88 208.449 167.696 208.469C164.475 208.832 161.277 208.853 158.154 208.404C139.683 205.748 135.591 196.843 136.177 187.567C134.849 186.801 133.493 185.937 132.118 184.939C117.912 174.633 109.48 163.654 109.48 163.654C109.48 163.654 120.439 172.113 136.807 178.444C137.158 178.58 137.487 178.697 137.832 178.828C138.597 176.184 139.502 173.67 140.298 171.441C140.384 171.199 140.473 170.952 140.556 170.717C141.467 168.152 142.506 165.634 143.601 163.144C147.731 153.754 152.754 144.66 155.227 134.634L156.411 129.035H146.309L146.308 129.036C146.308 129.042 146.309 129.049 146.309 129.056L146.305 129.058C146.305 129.085 146.309 129.112 146.309 129.141C146.309 130.806 145.971 132.392 145.361 133.835C145.056 134.557 144.682 135.242 144.249 135.884C143.382 137.166 142.275 138.274 140.991 139.141C140.35 139.575 139.664 139.948 138.943 140.252C137.5 140.863 135.914 141.201 134.249 141.201C133.826 141.201 133.408 141.178 132.997 141.135C132.9 141.125 132.807 141.104 132.711 141.092C132.395 141.051 132.081 141.008 131.776 140.945C131.69 140.926 131.608 140.899 131.523 140.879C131.209 140.807 130.895 140.729 130.591 140.632C130.535 140.613 130.481 140.59 130.425 140.571C130.096 140.46 129.769 140.341 129.453 140.203C129.424 140.191 129.397 140.176 129.369 140.163C129.028 140.011 128.693 139.847 128.369 139.665L128.354 139.656C127.316 139.07 126.372 138.337 125.552 137.482L90.944 129.035H53.174C53.012 129.323 52.832 129.599 52.673 129.888C52.385 130.411 52.113 130.942 51.835 131.469C51.151 132.767 50.491 134.077 49.867 135.405C49.647 135.872 49.428 136.34 49.215 136.811C48.454 138.503 47.729 140.211 47.067 141.942C47.037 142.019 47.005 142.095 46.975 142.172C46.222 144.156 45.533 146.164 44.913 148.188C44.118 150.785 43.435 153.41 42.865 156.051C48.811 174.187 60.38 189.771 75.503 200.755C75.943 201.074 76.407 201.358 76.853 201.67C79.411 203.458 82.054 205.131 84.796 206.649C88.396 208.644 92.138 210.413 96.02 211.903Z" fill="white"/>
<path d="M186.58 233.373C186.348 230.987 186.204 228.581 186.204 226.149C186.204 224.687 185.019 223.5 183.556 223.5H72.444C70.981 223.5 69.795 224.687 69.795 226.149C69.795 228.581 69.652 230.987 69.419 233.373C69.161 236.012 68.754 238.616 68.22 241.181C69.831 242.033 71.455 242.862 73.107 243.648C74.193 238.876 74.863 233.973 75.039 228.97C75.042 228.913 75.048 228.855 75.05 228.798H180.95C180.952 228.855 180.958 228.913 180.96 228.97C181.137 233.973 181.807 238.876 182.893 243.648C184.545 242.862 186.169 242.033 187.78 241.181C187.246 238.616 186.839 236.012 186.58 233.373Z" fill="#8B7460"/>
</g>
<defs>
<clipPath id="clip0_1_8781">
<rect width="256" height="256" fill="white"/>
</clipPath>
</defs>
</svg>
