<svg width="256" height="256" viewBox="0 0 256 256" fill="none" xmlns="http://www.w3.org/2000/svg">
<g clip-path="url(#clip0_1_8827)">
<path d="M238 0H18C8.05887 0 0 8.05887 0 18V238C0 247.941 8.05887 256 18 256H238C247.941 256 256 247.941 256 238V18C256 8.05887 247.941 0 238 0Z" fill="black"/>
<path d="M230.118 128.531C230.118 135.578 224.405 141.291 217.357 141.291C210.31 141.291 204.597 135.578 204.597 128.531C204.597 121.483 210.31 115.77 217.357 115.77C224.405 115.77 230.118 121.483 230.118 128.531Z" fill="#669CFE"/>
<path d="M203.806 154.531C203.806 161.578 198.093 167.291 191.045 167.291C183.997 167.291 178.284 161.578 178.284 154.531C178.284 147.483 183.997 141.77 191.045 141.77C198.093 141.77 203.806 147.483 203.806 154.531Z" fill="#3FE7FE"/>
<path d="M177.451 181.073C177.451 188.121 171.738 193.833 164.691 193.833C157.643 193.833 151.93 188.121 151.93 181.073C151.93 174.026 157.643 168.312 164.691 168.312C171.738 168.312 177.451 174.026 177.451 181.073Z" fill="white"/>
<path d="M202.993 102.336C202.993 108.933 197.645 114.28 191.049 114.28C184.452 114.28 179.104 108.933 179.104 102.336C179.104 95.7386 184.452 90.3906 191.049 90.3906C197.645 90.3906 202.993 95.7386 202.993 102.336Z" fill="#669CFE"/>
<path d="M176.738 128.297C176.738 134.894 171.39 140.242 164.794 140.242C158.197 140.242 152.849 134.894 152.849 128.297C152.849 121.7 158.197 116.352 164.794 116.352C171.39 116.352 176.738 121.7 176.738 128.297Z" fill="#3FE7FE"/>
<path d="M150.569 154.639C150.569 161.236 145.222 166.584 138.625 166.584C132.028 166.584 126.68 161.236 126.68 154.639C126.68 148.042 132.028 142.695 138.625 142.695C145.222 142.695 150.569 148.042 150.569 154.639Z" fill="white"/>
<path d="M175.743 76.2357C175.743 82.2267 170.886 87.0847 164.894 87.0847C158.902 87.0847 154.045 82.2267 154.045 76.2357C154.045 70.2437 158.902 65.3867 164.894 65.3867C170.886 65.3867 175.743 70.2437 175.743 76.2357Z" fill="#669CFE"/>
<path d="M149.522 102.19C149.522 108.181 144.664 113.039 138.672 113.039C132.681 113.039 127.823 108.181 127.823 102.19C127.823 96.1978 132.681 91.3398 138.672 91.3398C144.664 91.3398 149.522 96.1978 149.522 102.19Z" fill="#3FE7FE"/>
<path d="M123.253 128.619C123.253 134.611 118.396 139.468 112.404 139.468C106.412 139.468 101.555 134.611 101.555 128.619C101.555 122.628 106.412 117.77 112.404 117.77C118.396 117.77 123.253 122.628 123.253 128.619Z" fill="white"/>
<path d="M148.618 50.0069C148.618 55.3929 144.252 59.7589 138.866 59.7589C133.48 59.7589 129.114 55.3929 129.114 50.0069C129.114 44.6199 133.48 40.2539 138.866 40.2539C144.252 40.2539 148.618 44.6199 148.618 50.0069Z" fill="#669CFE"/>
<path d="M122.297 76.0879C122.297 81.4739 117.931 85.8409 112.545 85.8409C107.159 85.8409 102.793 81.4739 102.793 76.0879C102.793 70.7019 107.159 66.3359 112.545 66.3359C117.931 66.3359 122.297 70.7019 122.297 76.0879Z" fill="#3FE7FE"/>
<path d="M96.0599 102.472C96.0599 107.858 91.6929 112.224 86.3069 112.224C80.9209 112.224 76.5549 107.858 76.5549 102.472C76.5549 97.0858 80.9209 92.7188 86.3069 92.7188C91.6929 92.7188 96.0599 97.0858 96.0599 102.472Z" fill="white"/>
<path d="M95.0599 154.72C95.0599 159.507 91.1779 163.388 86.3909 163.388C81.6029 163.388 77.7219 159.507 77.7219 154.72C77.7219 149.932 81.6029 146.051 86.3909 146.051C91.1779 146.051 95.0599 149.932 95.0599 154.72Z" fill="#6A9EFE"/>
<path d="M121.185 180.845C121.185 185.632 117.303 189.513 112.516 189.513C107.728 189.513 103.847 185.632 103.847 180.845C103.847 176.057 107.728 172.176 112.516 172.176C117.303 172.176 121.185 176.057 121.185 180.845Z" fill="#6A9EFE"/>
<path d="M147.268 206.927C147.268 211.715 143.387 215.596 138.599 215.596C133.811 215.596 129.93 211.715 129.93 206.927C129.93 202.139 133.811 198.258 138.599 198.258C143.387 198.258 147.268 202.139 147.268 206.927Z" fill="#6A9EFE"/>
<path d="M95.1849 206.927C95.1849 211.715 91.3029 215.596 86.5159 215.596C81.7279 215.596 77.8469 211.715 77.8469 206.927C77.8469 202.139 81.7279 198.258 86.5159 198.258C91.3029 198.258 95.1849 202.139 95.1849 206.927Z" fill="#6A9EFE"/>
<path d="M42.6009 206.927C42.6009 211.715 38.7199 215.596 33.9319 215.596C29.1449 215.596 25.2629 211.715 25.2629 206.927C25.2629 202.139 29.1449 198.258 33.9319 198.258C38.7199 198.258 42.6009 202.139 42.6009 206.927Z" fill="#6A9EFE"/>
<path d="M68.7259 180.802C68.7259 185.59 64.8449 189.471 60.0569 189.471C55.2699 189.471 51.3879 185.59 51.3879 180.802C51.3879 176.014 55.2699 172.133 60.0569 172.133C64.8449 172.133 68.7259 176.014 68.7259 180.802Z" fill="#6A9EFE"/>
<path d="M95.172 50.0327C95.172 55.0357 91.116 59.0917 86.113 59.0917C81.11 59.0917 77.054 55.0357 77.054 50.0327C77.054 45.0287 81.11 40.9727 86.113 40.9727C91.116 40.9727 95.172 45.0287 95.172 50.0327Z" fill="#3FE7FE"/>
<path d="M68.7989 76.5356C68.7989 81.5396 64.7429 85.5956 59.7389 85.5956C54.7359 85.5956 50.6799 81.5396 50.6799 76.5356C50.6799 71.5326 54.7359 67.4766 59.7389 67.4766C64.7429 67.4766 68.7989 71.5326 68.7989 76.5356Z" fill="white"/>
<path d="M41.1739 49.6606C41.1739 53.6976 37.9009 56.9706 33.8639 56.9706C29.8279 56.9706 26.5549 53.6976 26.5549 49.6606C26.5549 45.6246 29.8279 42.3516 33.8639 42.3516C37.9009 42.3516 41.1739 45.6246 41.1739 49.6606Z" fill="white"/>
</g>
<defs>
<clipPath id="clip0_1_8827">
<rect width="256" height="256" fill="white"/>
</clipPath>
</defs>
</svg>
