<svg width="256" height="256" viewBox="0 0 256 256" fill="none" xmlns="http://www.w3.org/2000/svg">
<g clip-path="url(#clip0_1_8852)">
<path d="M202.238 48.7617H187.857C185.096 48.7617 182.857 51.0003 182.857 53.7617V55.9522C182.857 58.7136 185.096 60.9522 187.857 60.9522H202.238C205 60.9522 207.238 58.7136 207.238 55.9522V53.7617C207.238 51.0003 205 48.7617 202.238 48.7617Z" fill="#56B3B4"/>
<path d="M68.1429 243.809H5C2.23858 243.809 0 246.047 0 248.809V250.999C0 253.76 2.23858 255.999 5 255.999H68.1429C70.9043 255.999 73.1429 253.76 73.1429 250.999V248.809C73.1429 246.047 70.9043 243.809 68.1429 243.809Z" fill="#EA5E5E"/>
<path d="M190.048 146.285H151.286C148.524 146.285 146.286 148.524 146.286 151.285V153.476C146.286 156.237 148.524 158.476 151.286 158.476H190.048C192.809 158.476 195.048 156.237 195.048 153.476V151.285C195.048 148.524 192.809 146.285 190.048 146.285Z" fill="#BF85BF"/>
<path d="M129.095 146.285H78.1428C75.3814 146.285 73.1428 148.524 73.1428 151.285V153.476C73.1428 156.237 75.3814 158.476 78.1428 158.476H129.095C131.857 158.476 134.095 156.237 134.095 153.476V151.285C134.095 148.524 131.857 146.285 129.095 146.285Z" fill="#EA5E5E"/>
<path d="M55.9524 146.285H5C2.23858 146.285 0 148.524 0 151.285V153.476C0 156.237 2.23858 158.476 5 158.476H55.9524C58.7138 158.476 60.9524 156.237 60.9524 153.476V151.285C60.9524 148.524 58.7138 146.285 55.9524 146.285Z" fill="#56B3B4"/>
<path d="M68.1429 195.047H5C2.23858 195.047 0 197.285 0 200.047V202.237C0 204.999 2.23858 207.237 5 207.237H68.1429C70.9043 207.237 73.1429 204.999 73.1429 202.237V200.047C73.1429 197.285 70.9043 195.047 68.1429 195.047Z" fill="#BF85BF"/>
<path d="M68.1429 97.5234H5C2.23858 97.5234 0 99.762 0 102.523V104.714C0 107.475 2.23858 109.714 5 109.714H68.1429C70.9043 109.714 73.1429 107.475 73.1429 104.714V102.523C73.1429 99.762 70.9043 97.5234 68.1429 97.5234Z" fill="#BF85BF"/>
<path d="M190.048 24.3828H65.9524C63.191 24.3828 60.9524 26.6214 60.9524 29.3828V31.5733C60.9524 34.3347 63.191 36.5733 65.9524 36.5733H190.048C192.809 36.5733 195.048 34.3347 195.048 31.5733V29.3828C195.048 26.6214 192.809 24.3828 190.048 24.3828Z" fill="#F7BA3E"/>
<path d="M43.7619 24.3828H5C2.23858 24.3828 0 26.6214 0 29.3828V31.5733C0 34.3347 2.23858 36.5733 5 36.5733H43.7619C46.5233 36.5733 48.7619 34.3347 48.7619 31.5733V29.3828C48.7619 26.6214 46.5233 24.3828 43.7619 24.3828Z" fill="#EA5E5E"/>
<path d="M68.1429 219.43H53.762C51.0005 219.43 48.762 221.668 48.762 224.43V226.62C48.762 229.382 51.0005 231.62 53.762 231.62H68.1429C70.9043 231.62 73.1429 229.382 73.1429 226.62V224.43C73.1429 221.668 70.9043 219.43 68.1429 219.43Z" fill="#F7BA3E"/>
<path d="M68.1429 73.1445H53.762C51.0005 73.1445 48.762 75.3831 48.762 78.1445V80.335C48.762 83.0964 51.0005 85.335 53.762 85.335H68.1429C70.9043 85.335 73.1429 83.0964 73.1429 80.335V78.1445C73.1429 75.3831 70.9043 73.1445 68.1429 73.1445Z" fill="#56B3B4"/>
<path d="M31.5714 219.43H5C2.23858 219.43 0 221.668 0 224.43V226.62C0 229.382 2.23858 231.62 5 231.62H31.5714C34.3329 231.62 36.5714 229.382 36.5714 226.62V224.43C36.5714 221.668 34.3329 219.43 31.5714 219.43Z" fill="#56B3B4"/>
<path d="M31.5714 73.1445H5C2.23858 73.1445 0 75.3831 0 78.1445V80.335C0 83.0964 2.23858 85.335 5 85.335H31.5714C34.3329 85.335 36.5714 83.0964 36.5714 80.335V78.1445C36.5714 75.3831 34.3329 73.1445 31.5714 73.1445Z" fill="#F7BA3E"/>
<path opacity="0.5" d="M177.857 219.43H163.476C160.715 219.43 158.476 221.668 158.476 224.43V226.62C158.476 229.382 160.715 231.62 163.476 231.62H177.857C180.618 231.62 182.857 229.382 182.857 226.62V224.43C182.857 221.668 180.618 219.43 177.857 219.43Z" fill="#D0D4D8"/>
<path opacity="0.5" d="M141.286 219.43H90.3333C87.5718 219.43 85.3333 221.668 85.3333 224.43V226.62C85.3333 229.382 87.5718 231.62 90.3333 231.62H141.286C144.047 231.62 146.286 229.382 146.286 226.62V224.43C146.286 221.668 144.047 219.43 141.286 219.43Z" fill="#D0D4D8"/>
<path opacity="0.5" d="M251 219.43H200.048C197.286 219.43 195.048 221.668 195.048 224.43V226.62C195.048 229.382 197.286 231.62 200.048 231.62H251C253.761 231.62 256 229.382 256 226.62V224.43C256 221.668 253.761 219.43 251 219.43Z" fill="#D0D4D8"/>
<path d="M202.238 121.906H102.524C99.7625 121.906 97.5239 124.145 97.5239 126.906V129.097C97.5239 131.858 99.7625 134.097 102.524 134.097H202.238C205 134.097 207.238 131.858 207.238 129.097V126.906C207.238 124.145 205 121.906 202.238 121.906Z" fill="#56B3B4"/>
<path d="M80.3334 121.906H41.5715C38.8101 121.906 36.5715 124.145 36.5715 126.906V129.097C36.5715 131.858 38.8101 134.097 41.5715 134.097H80.3334C83.0949 134.097 85.3334 131.858 85.3334 129.097V126.906C85.3334 124.145 83.0949 121.906 80.3334 121.906Z" fill="#F7BA3E"/>
<path d="M19.381 121.906H5C2.23858 121.906 0 124.145 0 126.906V129.097C0 131.858 2.23858 134.097 5 134.097H19.381C22.1424 134.097 24.381 131.858 24.381 129.097V126.906C24.381 124.145 22.1424 121.906 19.381 121.906Z" fill="#EA5E5E"/>
<path d="M165.667 48.7617H114.714C111.953 48.7617 109.714 51.0003 109.714 53.7617V55.9522C109.714 58.7136 111.953 60.9522 114.714 60.9522H165.667C168.428 60.9522 170.667 58.7136 170.667 55.9522V53.7617C170.667 51.0003 168.428 48.7617 165.667 48.7617Z" fill="#BF85BF"/>
<path d="M92.5238 48.7617H5C2.23858 48.7617 0 51.0003 0 53.7617V55.9522C0 58.7136 2.23858 60.9522 5 60.9522H92.5238C95.2852 60.9522 97.5238 58.7136 97.5238 55.9522V53.7617C97.5238 51.0003 95.2852 48.7617 92.5238 48.7617Z" fill="#56B3B4"/>
<path d="M153.476 170.668H41.5715C38.8101 170.668 36.5715 172.907 36.5715 175.668V177.858C36.5715 180.62 38.8101 182.858 41.5715 182.858H153.476C156.238 182.858 158.476 180.62 158.476 177.858V175.668C158.476 172.907 156.238 170.668 153.476 170.668Z" fill="#F7BA3E"/>
<path d="M19.381 170.668H5C2.23858 170.668 0 172.907 0 175.668V177.858C0 180.62 2.23858 182.858 5 182.858H19.381C22.1424 182.858 24.381 180.62 24.381 177.858V175.668C24.381 172.907 22.1424 170.668 19.381 170.668Z" fill="#BF85BF"/>
<path d="M214.428 73.1445H151.286C148.524 73.1445 146.286 75.3831 146.286 78.1445V80.335C146.286 83.0964 148.524 85.335 151.286 85.335H214.428C217.19 85.335 219.428 83.0964 219.428 80.335V78.1445C219.428 75.3831 217.19 73.1445 214.428 73.1445Z" fill="#EA5E5E"/>
<path d="M214.428 97.5234H151.286C148.524 97.5234 146.286 99.762 146.286 102.523V104.714C146.286 107.475 148.524 109.714 151.286 109.714H214.428C217.19 109.714 219.428 107.475 219.428 104.714V102.523C219.428 99.762 217.19 97.5234 214.428 97.5234Z" fill="#F7BA3E"/>
<path d="M153.476 0H5C2.23858 0 0 2.23858 0 5V7.19048C0 9.9519 2.23858 12.1905 5 12.1905H153.476C156.238 12.1905 158.476 9.9519 158.476 7.19048V5C158.476 2.23858 156.238 0 153.476 0Z" fill="#56B3B4"/>
<path opacity="0.5" d="M251 0H175.667C172.905 0 170.667 2.23858 170.667 5V7.19048C170.667 9.9519 172.905 12.1905 175.667 12.1905H251C253.761 12.1905 256 9.9519 256 7.19048V5C256 2.23858 253.761 0 251 0Z" fill="#D0D4D8"/>
<path opacity="0.5" d="M202.238 170.668H175.667C172.905 170.668 170.667 172.907 170.667 175.668V177.858C170.667 180.62 172.905 182.858 175.667 182.858H202.238C205 182.858 207.238 180.62 207.238 177.858V175.668C207.238 172.907 205 170.668 202.238 170.668Z" fill="#D0D4D8"/>
<path opacity="0.5" d="M251 170.668H224.428C221.667 170.668 219.428 172.907 219.428 175.668V177.858C219.428 180.62 221.667 182.858 224.428 182.858H251C253.761 182.858 256 180.62 256 177.858V175.668C256 172.907 253.761 170.668 251 170.668Z" fill="#D0D4D8"/>
<path opacity="0.5" d="M251 146.285H212.238C209.477 146.285 207.238 148.524 207.238 151.285V153.476C207.238 156.237 209.477 158.476 212.238 158.476H251C253.761 158.476 256 156.237 256 153.476V151.285C256 148.524 253.761 146.285 251 146.285Z" fill="#D0D4D8"/>
<path opacity="0.5" d="M251 24.3828H212.238C209.477 24.3828 207.238 26.6214 207.238 29.3828V31.5733C207.238 34.3347 209.477 36.5733 212.238 36.5733H251C253.761 36.5733 256 34.3347 256 31.5733V29.3828C256 26.6214 253.761 24.3828 251 24.3828Z" fill="#D0D4D8"/>
<path opacity="0.5" d="M251 121.906H224.428C221.667 121.906 219.428 124.145 219.428 126.906V129.097C219.428 131.858 221.667 134.097 224.428 134.097H251C253.761 134.097 256 131.858 256 129.097V126.906C256 124.145 253.761 121.906 251 121.906Z" fill="#D0D4D8"/>
<path opacity="0.5" d="M251 48.7617H224.428C221.667 48.7617 219.428 51.0003 219.428 53.7617V55.9522C219.428 58.7136 221.667 60.9522 224.428 60.9522H251C253.761 60.9522 256 58.7136 256 55.9522V53.7617C256 51.0003 253.761 48.7617 251 48.7617Z" fill="#D0D4D8"/>
<path opacity="0.5" d="M251 73.1445H236.619C233.858 73.1445 231.619 75.3831 231.619 78.1445V80.335C231.619 83.0964 233.858 85.335 236.619 85.335H251C253.762 85.335 256 83.0964 256 80.335V78.1445C256 75.3831 253.762 73.1445 251 73.1445Z" fill="#D0D4D8"/>
<path opacity="0.5" d="M251 97.5234H236.619C233.858 97.5234 231.619 99.762 231.619 102.523V104.714C231.619 107.475 233.858 109.714 236.619 109.714H251C253.762 109.714 256 107.475 256 104.714V102.523C256 99.762 253.762 97.5234 251 97.5234Z" fill="#D0D4D8"/>
<path opacity="0.5" d="M251 195.047H139.095C136.334 195.047 134.095 197.285 134.095 200.047V202.237C134.095 204.999 136.334 207.237 139.095 207.237H251C253.761 207.237 256 204.999 256 202.237V200.047C256 197.285 253.761 195.047 251 195.047Z" fill="#D0D4D8"/>
<path opacity="0.5" d="M116.905 195.047H90.3333C87.5718 195.047 85.3333 197.285 85.3333 200.047V202.237C85.3333 204.999 87.5718 207.237 90.3333 207.237H116.905C119.666 207.237 121.905 204.999 121.905 202.237V200.047C121.905 197.285 119.666 195.047 116.905 195.047Z" fill="#D0D4D8"/>
<path opacity="0.5" d="M251 243.809H187.857C185.096 243.809 182.857 246.047 182.857 248.809V250.999C182.857 253.76 185.096 255.999 187.857 255.999H251C253.761 255.999 256 253.76 256 250.999V248.809C256 246.047 253.761 243.809 251 243.809Z" fill="#D0D4D8"/>
<path opacity="0.5" d="M165.667 243.809H90.3333C87.5718 243.809 85.3333 246.047 85.3333 248.809V250.999C85.3333 253.76 87.5718 255.999 90.3333 255.999H165.667C168.428 255.999 170.667 253.76 170.667 250.999V248.809C170.667 246.047 168.428 243.809 165.667 243.809Z" fill="#D0D4D8"/>
<path opacity="0.5" d="M129.095 73.1445H90.3333C87.5718 73.1445 85.3333 75.3831 85.3333 78.1445V80.335C85.3333 83.0964 87.5718 85.335 90.3333 85.335H129.095C131.857 85.335 134.095 83.0964 134.095 80.335V78.1445C134.095 75.3831 131.857 73.1445 129.095 73.1445Z" fill="#D0D4D8"/>
<path opacity="0.5" d="M129.095 97.5234H90.3333C87.5718 97.5234 85.3333 99.762 85.3333 102.523V104.714C85.3333 107.475 87.5718 109.714 90.3333 109.714H129.095C131.857 109.714 134.095 107.475 134.095 104.714V102.523C134.095 99.762 131.857 97.5234 129.095 97.5234Z" fill="#D0D4D8"/>
</g>
<defs>
<clipPath id="clip0_1_8852">
<rect width="256" height="256" fill="white"/>
</clipPath>
</defs>
</svg>
