<svg width="256" height="256" viewBox="0 0 256 256" fill="none" xmlns="http://www.w3.org/2000/svg">
<g clip-path="url(#clip0_1_8898)">
<path fill-rule="evenodd" clip-rule="evenodd" d="M222.777 8.54756C233.066 14.0094 241.474 22.4381 246.912 32.7396C252.48 43.1716 255.445 53.5182 255.445 82.0409V132.139C255.445 132.785 255.055 133.368 254.457 133.616C253.86 133.863 253.172 133.726 252.715 133.269V133.262L233.835 114.347C232.336 112.844 231.494 110.809 231.495 108.686V85.5324C231.495 64.1351 229.269 56.3769 225.095 48.5547C221.015 40.8295 214.707 34.5091 206.99 30.4142C199.271 26.2699 191.608 24.0471 170.767 24.0007L139.556 24C138.91 23.9966 138.33 23.6057 138.084 23.0088C137.839 22.412 137.976 21.726 138.432 21.2693L157.312 2.34667C158.805 0.846222 160.839 0 162.958 0H173.575C202.041 0 212.366 2.97245 222.777 8.54756ZM183.602 40C201.237 40 215.531 54.3289 215.531 72V92.2596C215.528 92.8979 215.145 93.4733 214.558 93.7236C213.971 93.9739 213.291 93.8518 212.828 93.4116L187.086 68.7502C185.38 67.0436 183.388 65.8062 181.262 65.0311C179.458 64.3478 177.545 63.9984 175.616 64H99.6267C98.98 63.9994 98.3972 63.6096 98.1498 63.0121C97.9024 62.4146 98.039 61.7269 98.4961 61.2693L117.404 42.3396C118.898 40.8462 120.924 40 123.044 40H183.602Z" fill="#E55638"/>
<path fill-rule="evenodd" clip-rule="evenodd" d="M234.219 138.737L253.106 157.659C254.599 159.16 255.445 161.201 255.445 163.32V173.965C255.445 202.488 252.48 212.835 246.912 223.267C241.474 233.568 233.065 241.997 222.777 247.459C212.366 253.027 202.041 255.999 173.575 255.999H123.591C122.946 255.996 122.365 255.605 122.12 255.008C121.874 254.411 122.011 253.725 122.468 253.268V253.275L141.347 234.353C142.841 232.852 144.875 232.006 146.994 232.006H170.098C191.445 232.006 199.182 229.78 206.99 225.592C214.707 221.497 221.015 215.177 225.095 207.451C229.269 199.629 231.495 191.871 231.495 170.474V139.867C231.498 139.224 231.887 138.645 232.482 138.398C233.076 138.151 233.76 138.285 234.219 138.737ZM194.311 98.7297L213.198 117.674C214.692 119.174 215.531 121.208 215.531 123.334V184.02C215.531 201.691 201.237 216.02 183.602 216.02H163.385C162.747 216.017 162.171 215.635 161.921 215.048C161.67 214.461 161.793 213.781 162.233 213.318V213.311L186.837 187.505C188.544 185.798 189.781 183.807 190.556 181.674C191.236 179.866 191.583 177.951 191.58 176.02V99.8604C191.581 99.2137 191.971 98.6309 192.568 98.3835C193.166 98.1361 193.853 98.2727 194.311 98.7297Z" fill="#F4C942"/>
<path fill-rule="evenodd" clip-rule="evenodd" d="M2.72356 122.73L21.6178 141.653C23.1111 143.154 23.9573 145.194 23.9573 147.314V170.467C23.9573 191.865 26.176 199.623 30.3573 207.445C34.4352 215.169 40.7406 221.49 48.4551 225.586C56.2631 229.774 64.0071 232 85.3547 232H115.89C116.538 231.997 117.123 232.386 117.372 232.984C117.622 233.583 117.485 234.272 117.028 234.73L98.1333 253.653C96.64 255.154 94.6062 256 92.4942 256H81.8702C53.4044 256 43.0862 253.027 32.6756 247.452C22.3843 241.992 13.9728 233.563 8.53333 223.26C3.02101 212.933 0.0595669 202.689 0.000889237 174.809L0 123.861C0.00339658 123.218 0.392093 122.639 0.986511 122.392C1.58093 122.145 2.26534 122.279 2.72356 122.73ZM42.6169 162.588H42.6098L68.3662 187.25C70.0658 188.956 72.064 190.194 74.1831 190.969C75.9324 191.637 77.8382 192 79.8293 192H155.819C156.464 192.003 157.044 192.394 157.29 192.991C157.535 193.588 157.398 194.274 156.942 194.73L138.041 213.66C136.548 215.154 134.514 216 132.402 216H71.8436C63.3661 215.99 55.2395 212.614 49.2517 206.612C43.2639 200.611 39.9052 192.477 39.9146 184V163.74C39.9178 163.102 40.3 162.527 40.8872 162.276C41.4744 162.026 42.1542 162.148 42.6169 162.588Z" fill="#7B8FEA"/>
<path fill-rule="evenodd" clip-rule="evenodd" d="M92.0604 40C92.6988 40.0031 93.2742 40.3853 93.5245 40.9725C93.7748 41.5597 93.6527 42.2395 93.2124 42.7022L68.6009 68.5156C66.8942 70.2222 65.664 72.2133 64.8889 74.3467C64.2068 76.1534 63.8575 78.0688 63.8578 80V156.16C63.8516 156.802 63.4618 157.379 62.868 157.624C62.2742 157.869 61.5915 157.735 61.1342 157.284L42.2471 138.34C40.7523 136.838 39.9135 134.805 39.9147 132.686V72C39.9147 54.3289 54.208 40 71.8436 40H92.0604ZM131.854 0C132.5 0.00342738 133.08 0.394297 133.325 0.991165C133.571 1.58803 133.434 2.27401 132.978 2.73067L114.098 21.6533C112.597 23.1538 110.571 24 108.452 24H85.3476C64 24 56.256 26.2258 48.448 30.4142C40.7308 34.5091 34.4229 40.8295 30.3431 48.5547C26.2128 56.2946 23.9902 63.9718 23.9439 84.8613L23.9431 116.139C23.9397 116.782 23.551 117.361 22.9566 117.608C22.3622 117.855 21.6778 117.721 21.2196 117.269L2.34667 98.3467C0.844867 96.8456 0 94.8096 0 92.6862V82.0409C0 53.5182 2.96533 43.1716 8.53333 32.7396C13.9709 22.4381 22.3799 14.0094 32.6684 8.54756C42.975 3.0282 53.1979 0.0597092 81.0148 0.000891364L131.854 0Z" fill="#D97EE8"/>
</g>
<defs>
<clipPath id="clip0_1_8898">
<rect width="256" height="256" fill="white"/>
</clipPath>
</defs>
</svg>
