<svg width="256" height="310" viewBox="0 0 256 310" fill="none" xmlns="http://www.w3.org/2000/svg">
<g clip-path="url(#clip0_1_8895)">
<path d="M254.313 235.521L148.001 9.75177C145.31 4.09125 139.732 0.361786 133.473 0.0378766C127.199 -0.382473 121.212 2.72116 117.94 8.09029L2.63255 194.849C-0.94711 200.606 -0.871795 207.915 2.82574 213.597L59.2003 300.898C63.5805 307.629 71.8663 310.676 79.5632 308.386L243.162 259.995C248.145 258.538 252.253 254.991 254.421 250.273C256.56 245.578 256.523 240.179 254.321 235.513L254.313 235.521ZM230.511 245.204L91.6882 286.254C87.4533 287.514 83.3885 283.843 84.2695 279.569L133.867 42.0851C134.794 37.6416 140.93 36.9383 142.87 41.0495L234.684 236.023C235.506 237.781 235.516 239.811 234.711 241.578C233.907 243.344 232.369 244.669 230.503 245.204H230.511Z" fill="black"/>
</g>
<defs>
<clipPath id="clip0_1_8895">
<rect width="256" height="310" fill="white"/>
</clipPath>
</defs>
</svg>
