<svg width="512" height="101" viewBox="0 0 512 101" fill="none" xmlns="http://www.w3.org/2000/svg">
<g clip-path="url(#clip0_1_8916)">
<path d="M91.4108 21.9898C88.3777 17.4536 83.3321 12.2704 78.2657 8.91515C67.7413 1.69549 55.5504 -0.866869 44.7677 0.251554C33.5225 1.46596 23.8939 5.71012 15.9777 12.7879C8.64477 19.3482 3.80338 27.3691 1.67017 35.0186C-0.488034 42.6681 -0.200551 49.7501 0.570238 55.0835C1.38269 60.4961 4.0742 67.3068 4.0742 67.3068C4.62417 68.613 5.38663 69.143 5.78244 69.3642C7.74899 70.4409 10.978 69.4936 13.457 66.7059C13.582 66.5348 13.6486 66.2969 13.582 66.0966C12.8904 63.4299 12.6404 61.4226 12.3946 59.8701C11.8321 56.7986 11.5821 51.6531 11.9571 46.8956C12.1446 44.3207 12.6445 41.5664 13.5195 38.6785C15.2111 32.9738 18.7775 27.0186 24.3522 22.0691C30.356 16.7399 38.0556 13.4473 45.376 12.5959C47.9425 12.2871 52.8255 11.9908 58.7044 13.4431C59.9585 13.7561 65.3415 15.1625 71.0995 19.0686C75.2909 21.9231 78.6657 25.4453 80.9906 28.9299C83.3571 32.256 85.9278 37.8648 86.6819 41.9712C87.7485 46.6452 87.7485 51.5988 86.9902 56.4231C86.0528 61.2556 84.3612 65.9547 81.7322 70.0903C79.9198 73.2954 76.1617 77.5312 71.7203 80.7112C67.7164 83.5323 63.1458 85.5688 58.4544 86.6956C56.0795 87.259 53.6963 87.6179 51.2548 87.6972C49.0841 87.7639 46.2051 87.6972 44.1844 87.3549C41.1804 86.875 40.5554 86.1072 39.868 85.0639C39.868 85.0639 39.3888 84.3127 39.2555 82.3012C39.3013 63.9182 39.293 68.8259 39.293 59.2817C39.293 56.5858 39.2055 54.1403 39.2305 51.9202C39.3555 48.2769 39.6638 45.773 42.2637 43.0604C44.1427 41.0614 46.7717 39.8554 49.6674 39.8554C50.5465 39.8554 53.5755 39.8971 56.2379 42.1131C59.0919 44.5002 59.571 47.7636 59.6835 48.6358C60.3334 53.7397 56.967 57.5415 55.6754 58.5055C54.0755 59.7074 52.6381 60.2916 51.6673 60.6338C49.6007 61.3266 47.33 61.5269 45.2885 61.3934C44.976 61.3725 44.6927 61.577 44.6302 61.89L43.9427 65.4622C43.2719 68.1748 44.776 69.1681 45.651 69.5186C48.4466 70.3825 50.9257 70.7414 53.863 70.5202C58.3669 70.203 62.8083 68.4252 66.5789 64.903C69.7871 61.8482 71.6161 58.0798 72.2411 53.8649C72.8661 49.1867 72.0536 44.1496 69.9246 39.8846C67.583 35.1814 63.5416 31.2544 58.2169 29.1052C52.838 26.9852 48.5591 26.9101 43.0428 28.3206L42.9803 28.3415C39.3972 29.5768 36.3307 31.1 33.1392 34.401C30.9518 36.6796 29.1603 39.4381 28.0686 42.5513C26.9854 45.6895 26.6937 48.0307 26.6437 51.6698C26.5771 54.3657 26.7062 56.8696 26.7062 59.2149V74.66C26.7062 79.6011 26.5396 80.4566 26.7062 82.9981C26.7979 84.6841 27.0312 86.5912 27.7687 88.6403C28.527 90.898 30.1185 93.2141 31.2101 94.2825C32.7392 95.9142 34.6849 97.2246 36.5973 98.0384C40.9762 99.9873 46.9217 100.296 51.7423 100.108C54.9338 99.9873 58.1419 99.5449 61.2876 98.7979C67.5789 97.2997 73.6202 94.5746 78.9324 90.7937C84.6279 86.7749 89.5776 81.2913 92.3108 76.6339C95.8147 71.1003 98.0813 64.8905 99.2604 58.5097C100.323 52.1163 100.273 45.5602 98.8479 39.2628C97.723 33.4203 94.719 27.0102 91.2525 21.8354L91.4108 21.9898Z" fill="#417EDF"/>
<path d="M430.217 19.8561C428.356 19.8758 426.55 20.6542 424.989 22.1115C423.474 23.5252 422.639 25.2298 422.63 26.9185C422.626 27.5931 422.643 27.6863 422.875 28.1585C423.245 28.9115 423.83 29.3478 424.75 29.5586C425.352 29.6964 426.397 29.6465 427.193 29.4415C429.341 28.8883 431.595 27.1935 432.619 25.3584C433.153 24.4032 433.489 23.0281 433.385 22.2261C433.283 21.4432 432.83 20.7072 432.202 20.3052C431.661 19.959 431.159 19.8461 430.217 19.8561ZM462.195 33.8926C461.88 33.8926 461.551 33.911 461.207 33.9452C458.331 34.2307 455.969 35.2172 453.231 37.2757C452.371 37.9216 450.486 39.6016 450.423 39.7772C450.329 40.0429 450.325 39.7292 450.414 39.1489C450.682 37.3988 450.396 36.1084 449.543 35.2186C449.117 34.7739 448.087 34.2543 447.277 34.0742C445.271 33.6281 442.432 34.0577 439.694 35.221C438.421 35.7618 434.108 38.0259 433.521 38.4608C433.369 38.5733 433.374 38.5896 433.85 39.4236L434.337 40.2742L434.978 40.0161C436.019 39.5975 436.725 39.439 437.621 39.426C438.337 39.4157 438.464 39.4369 438.804 39.6076C439.313 39.8622 439.53 40.2714 439.53 40.979C439.53 41.8333 439.289 42.5945 438.494 44.2761C437.071 47.2875 435.587 50.6413 434.869 52.4758L434.425 53.6107L433.79 54.2032C431.217 56.6116 429.361 57.9949 427.207 59.1082C425.256 60.1164 423.838 60.5079 422.126 60.5131C421.268 60.5154 421.006 60.4892 420.562 60.3482C419.855 60.1242 419.509 59.874 419.3 59.4403C419.149 59.1295 419.134 59.0081 419.173 58.4631C419.225 57.7478 419.503 56.7213 419.87 55.8924C420.009 55.577 421.471 52.3774 423.116 48.7821C424.762 45.1868 426.243 41.852 426.408 41.3732C426.778 40.3019 427.006 39.202 427.061 38.2362C427.187 36.0486 426.175 34.6885 423.977 34.0861C423.199 33.8729 421.24 33.8574 420.142 34.0551C419.07 34.2479 417.766 34.607 416.86 34.9606C415.625 35.442 410.786 37.9435 410.088 38.4608C409.936 38.5733 409.941 38.5905 410.419 39.4284L410.908 40.2813L411.569 40.0138C412.824 39.5068 414.085 39.2924 414.913 39.4451C415.474 39.5485 415.701 39.704 415.932 40.1452C416.088 40.4443 416.103 40.5597 416.068 41.0984C416.045 41.4348 415.943 42.0031 415.839 42.3623C415.728 42.7409 414.287 46.0191 412.409 50.1607C410.627 54.0906 409.061 57.6231 408.928 58.0116C408.209 60.1181 408.129 61.9693 408.687 63.5951C409.439 65.7823 411.244 67.2482 413.647 67.6233C414.82 67.8066 416.192 67.7372 418.043 67.3963C420.469 66.9496 422.985 65.9476 425.523 64.4194C427.852 63.0168 429.404 61.8195 431.792 59.5837L432.867 58.5754L432.724 59.2779C432.328 61.2068 432.28 62.7615 432.583 63.9678C433.083 65.9532 434.524 67.4053 436.262 67.6759C436.798 67.7594 436.861 67.7554 437.182 67.5994C437.54 67.426 437.884 67.0011 438.365 66.1372C438.494 65.906 440.427 61.7946 442.659 57.0009C444.891 52.2073 446.84 48.0615 446.991 47.7882C448.425 45.1777 450.823 42.7079 452.925 41.6766C455.115 40.6025 457.844 40.2963 459.32 40.9599C460.567 41.5201 461.007 42.8867 460.377 44.2355C460.07 44.892 459.331 45.6333 458.438 46.1803L457.787 46.5793L458.135 47.4322C458.327 47.9011 458.51 48.3139 458.54 48.3497C458.627 48.4503 460.624 47.7421 461.451 47.3175C462.917 46.5641 464.06 45.7008 465.236 44.46C466.658 42.96 467.401 41.4038 467.633 39.4475C467.815 37.9174 467.333 36.5548 466.214 35.4313C465.174 34.3872 463.892 33.8908 462.195 33.8926ZM395.318 33.8949C394.768 33.8973 394.329 33.9501 394.127 34.0574C393.86 34.1997 393.648 34.5312 393.648 34.8124C393.648 34.9097 393.713 35.1102 393.791 35.2568C394.081 35.7997 394.73 38.777 394.958 40.6086C395.09 41.6717 395.088 44.647 394.955 45.5399C394.255 50.2295 392.31 54.2809 389.355 57.2087C387.455 59.0902 385.494 60.1042 383.076 60.4509C380.687 60.7934 379.156 60.2706 378.475 58.8812C378.289 58.5012 378.269 58.3823 378.275 57.6579C378.284 56.4616 378.578 55.1123 379.196 53.4601C379.347 53.056 380.244 51.0924 381.187 49.095C383.674 43.8312 383.788 43.5559 384.221 41.8677C384.701 40.0009 384.734 38.8179 384.333 37.6531C383.657 35.6847 381.659 34.101 379.625 33.9188C378.514 33.8193 378.293 34.1363 376.095 38.9744C373.095 45.5738 370.929 50.2695 370.294 51.5415C368.433 55.2675 366.601 57.8472 364.948 59.0675C363.647 60.0279 361.982 60.5624 360.306 60.5608C358.199 60.5584 357.049 59.8001 356.659 58.1477C356.4 57.0522 356.681 54.7171 357.279 52.9966C357.827 51.4198 358.148 50.8979 361.554 46.0273C363.695 42.9655 364.195 42.0027 364.628 40.1116C365.181 37.701 364.93 36.0248 363.872 35.068C363.471 34.7048 362.483 34.2402 361.78 34.0837C359.865 33.6574 357.238 34.0022 354.605 35.0274C353.367 35.5096 348.658 37.9426 347.946 38.4679C347.792 38.5808 347.796 38.5956 348.239 39.4307L348.69 40.2765L349.549 39.9372C350.232 39.6656 350.532 39.5879 351.018 39.5573C352.183 39.4839 353.022 39.8234 353.351 40.5034C353.492 40.7958 353.511 40.935 353.475 41.3731C353.417 42.0591 353.303 42.2731 352.013 44.049C349.613 47.3518 348.793 48.6192 348.034 50.2036C346.957 52.4518 346.484 54.46 346.357 57.3138C346.251 59.6973 346.655 61.7168 347.542 63.2319C348.171 64.3053 349.386 65.4811 350.581 66.1706C351.839 66.8962 353.798 67.4762 355.66 67.6734C356.537 67.7663 358.645 67.7031 359.643 67.5539C360.731 67.3915 361.968 67.0747 362.925 66.7153C364.347 66.1816 367.211 64.6684 369.005 63.5019C369.427 63.2278 369.801 62.9974 369.836 62.9882C369.87 62.9789 370.114 63.2983 370.377 63.6978C371.267 65.0489 372.542 66.1436 373.943 66.7607C375.482 67.4389 376.856 67.6996 378.916 67.7045C380.543 67.7085 381.428 67.6204 383.119 67.284C388.442 66.2249 394.753 62.8339 398.61 58.96C402.398 55.155 404.722 50.1654 405.179 44.8518C405.417 42.0765 404.826 39.2295 403.662 37.5337C402.655 36.0675 400.707 34.8558 398.407 34.2676C397.458 34.0251 396.234 33.8914 395.318 33.8949ZM491.358 33.9378C488.308 33.9498 485.179 34.5734 482.174 35.7681C474.293 38.9013 467.77 45.529 465.639 52.5689C465.093 54.3726 464.768 56.7221 464.869 58.1453C465.09 61.2853 466.271 63.383 468.745 65.0334C470.958 66.5094 473.687 67.3144 477.714 67.6782C478.639 67.7618 482.201 67.7136 483.381 67.6018C489.244 67.046 494.632 65.2201 499.563 62.1186C504.149 59.2335 508.201 55.1455 511.423 50.1535L512 49.2575L511.244 48.6435C510.828 48.3059 510.455 48.0295 510.416 48.0295C510.377 48.0295 510.06 48.3477 509.708 48.7367C504.864 54.091 499.392 58.0219 493.936 60.0662C488.699 62.0285 482.492 62.2576 479.145 60.611C478.07 60.0822 477.294 59.3613 476.583 58.2289L476.435 57.9924L477.256 57.9064C481.799 57.4378 488.787 54.4795 492.941 51.2644C494.413 50.1254 496.211 48.328 497.097 47.112C498.927 44.5968 499.738 41.2548 499.105 38.8334C498.645 37.0746 497.505 35.624 495.975 34.8459C494.701 34.1974 493.345 33.9303 491.358 33.9378ZM487.388 40.6588C488.463 40.6515 488.844 40.7631 489.277 41.2083C489.786 41.7306 489.913 42.4682 489.671 43.533C489.056 46.2435 486.207 49.4207 482.651 51.3624C481.422 52.0333 479.885 52.5638 478.486 52.8031C478.125 52.865 477.513 52.9412 477.127 52.9703L476.426 53.0229L476.48 52.8007C477.113 50.1764 478.803 46.7158 480.457 44.6655C481.16 43.7936 482.626 42.4154 483.348 41.9442C484.7 41.0615 485.931 40.6688 487.388 40.6588Z" fill="#2480E6" fill-opacity="0.9"/>
<path d="M201.9 33.5752C196.739 33.6355 192.549 35.1653 189.342 38.192C186.135 41.2188 184.485 45.3727 184.388 50.6429C184.485 55.9131 186.135 60.067 189.342 63.0937C192.549 66.1205 196.739 67.6503 201.9 67.7106C207.06 67.6503 211.251 66.1205 214.458 63.0937C217.665 60.067 219.315 55.9131 219.412 50.6429C219.315 45.3727 217.665 41.2188 214.458 38.192C211.251 35.1653 207.06 33.6355 201.9 33.5752ZM241.896 33.5752C236.735 33.6355 232.545 35.1653 229.338 38.192C226.131 41.2188 224.48 45.3727 224.384 50.6429C224.48 55.9131 226.131 60.067 229.338 63.0937C232.545 66.1205 236.735 67.6503 241.896 67.7106C244.16 67.7164 246.329 67.2711 248.41 66.3473C250.492 65.4235 252.243 63.998 253.637 62.0759L247.666 57.6226C246.926 58.732 245.989 59.5811 244.854 60.1855C243.718 60.7899 242.439 61.1049 240.988 61.1125C238.341 61.0552 236.158 60.0662 234.455 58.1497C232.753 56.2333 231.882 53.7298 231.824 50.6429C231.878 47.5559 232.765 45.0525 234.492 43.136C236.218 41.2196 238.449 40.2307 241.206 40.1732C242.536 40.1779 243.718 40.4059 244.745 40.864C245.771 41.3221 246.646 41.9912 247.358 42.8452L252.856 38.3374C251.423 36.5922 249.703 35.3591 247.703 34.6294C245.702 33.8998 243.764 33.5532 241.896 33.5752ZM301.2 33.5749C297.897 33.5819 295.031 34.4675 292.616 36.2471C290.202 38.0269 288.941 40.6452 288.823 44.1175C288.903 46.7653 289.695 48.7155 291.201 49.9704C292.706 51.2253 294.446 52.1635 296.427 52.7513C298.408 53.3392 300.148 53.9405 301.653 54.5872C303.159 55.2339 303.951 56.2822 304.03 57.7135C303.97 58.8592 303.439 59.716 302.434 60.2764C301.428 60.8368 300.305 61.1144 299.076 61.1125C297.866 61.1048 296.725 60.8301 295.628 60.2946C294.532 59.759 293.604 59.0123 292.852 58.0407L287.771 63.639C289.308 65.0544 290.974 66.0893 292.798 66.7472C294.621 67.4051 296.59 67.7182 298.677 67.7107C302.126 67.7182 305.048 66.8528 307.442 65.0931C309.837 63.3335 311.077 60.6415 311.18 57.0228C311.102 54.2418 310.336 52.2232 308.858 50.9519C307.379 49.6806 305.667 48.7659 303.722 48.2254C301.777 47.685 300.065 47.1235 298.586 46.535C297.108 45.9465 296.323 44.9514 296.245 43.5359C296.32 42.3319 296.871 41.4579 297.897 40.9367C298.922 40.4155 299.972 40.1608 301.054 40.1732C301.96 40.1715 302.898 40.3466 303.867 40.7004C304.836 41.0542 305.618 41.6037 306.226 42.3362L311.144 36.956C309.756 35.7501 308.214 34.8914 306.517 34.3568C304.819 33.8222 303.046 33.5647 301.2 33.5749ZM329.382 33.5749C326.079 33.5819 323.213 34.4675 320.798 36.2471C318.384 38.0269 317.123 40.6452 317.005 44.1175C317.085 46.7653 317.877 48.7155 319.383 49.9704C320.888 51.2253 322.628 52.1635 324.609 52.7513C326.59 53.3392 328.33 53.9405 329.835 54.5872C331.341 55.2339 332.133 56.2822 332.213 57.7135C332.152 58.8592 331.621 59.716 330.616 60.2764C329.61 60.8368 328.487 61.1144 327.258 61.1125C326.048 61.1048 324.907 60.8301 323.811 60.2946C322.714 59.759 321.786 59.0123 321.034 58.0407L315.953 63.639C317.49 65.0544 319.156 66.0893 320.98 66.7472C322.803 67.4051 324.772 67.7182 326.859 67.7107C330.308 67.7182 333.23 66.8528 335.624 65.0931C338.019 63.3335 339.259 60.6415 339.362 57.0228C339.285 54.2418 338.518 52.2232 337.04 50.9519C335.561 49.6806 333.849 48.7659 331.904 48.2254C329.959 47.685 328.247 47.1235 326.768 46.535C325.29 45.9465 324.505 44.9514 324.428 43.5359C324.502 42.3319 325.053 41.4579 326.079 40.9367C327.104 40.4155 328.154 40.1608 329.236 40.1732C330.142 40.1715 331.08 40.3466 332.049 40.7004C333.018 41.0542 333.8 41.6037 334.408 42.3362L339.326 36.956C337.938 35.7501 336.396 34.8914 334.699 34.3568C333.001 33.8222 331.228 33.5647 329.382 33.5749ZM123.778 34.3931V66.8926H130.928V54.2236H136.154C139.642 54.2849 142.497 53.5735 144.719 52.097C146.941 50.6205 148.075 48.0117 148.149 44.2629C148.056 40.4779 146.852 37.8615 144.52 36.4289C142.187 34.9964 139.288 34.3224 135.827 34.3931H123.778ZM154.555 34.3931V66.8926H161.705V53.8965H165.225L172.012 66.8926H180.577L172.339 53.1694C174.636 52.7209 176.379 51.7061 177.565 50.1158C178.751 48.5254 179.338 46.5705 179.343 44.2629C179.249 40.5382 178.037 37.9418 175.714 36.4834C173.391 35.0251 170.529 34.331 167.112 34.3931H154.555ZM259.698 34.3931V66.8926H282.563V60.2764H266.848V53.6783H280.911V47.0621H266.848V41.0094H281.728V34.3931H259.698ZM201.9 40.1732C204.987 40.2307 207.433 41.2196 209.231 43.136C211.029 45.0525 211.95 47.5559 211.99 50.6429C211.95 53.7298 211.029 56.2333 209.231 58.1497C207.433 60.0662 204.987 61.0551 201.9 61.1125C198.813 61.0552 196.366 60.0662 194.569 58.1497C192.771 56.2333 191.849 53.7298 191.81 50.6429C191.849 47.5559 192.771 45.0525 194.569 43.136C196.366 41.2196 198.813 40.2307 201.9 40.1732ZM130.928 40.4459H134.593C136.052 40.3952 137.419 40.6173 138.694 41.1002C139.97 41.5832 140.643 42.6382 140.727 44.2629C140.674 45.751 140.146 46.783 139.148 47.3529C138.15 47.9229 136.995 48.1977 135.682 48.1709H130.928V40.4459ZM161.705 40.4459H166.368C167.742 40.3991 168.997 40.6317 170.125 41.1184C171.252 41.6052 171.854 42.6258 171.921 44.2084C171.834 45.9059 171.168 46.958 169.907 47.3529C168.646 47.7479 167.308 47.9135 165.915 47.8437H161.705V40.4459Z" fill="#2480E6" fill-opacity="0.7"/>
</g>
<defs>
<clipPath id="clip0_1_8916">
<rect width="512" height="101" fill="white"/>
</clipPath>
</defs>
</svg>
