<svg width="256" height="238" viewBox="0 0 256 238" fill="none" xmlns="http://www.w3.org/2000/svg">
<g clip-path="url(#clip0_1_8908)">
<path d="M140.872 0C175.532 0 205.046 11.4775 225.983 32.4151C245.464 51.8959 256 78.2355 256 105.534C256 132.833 245.464 159.173 225.983 178.653C205.255 199.382 176.122 210.838 141.91 211.065L140.872 211.068V153.504C160.692 153.504 175.473 147.756 185.279 137.949C193.781 129.448 198.436 117.811 198.436 105.534C198.436 93.2577 193.781 81.6209 185.279 73.1191C175.571 63.4103 160.987 57.6795 141.465 57.5659L140.872 57.5641V0Z" fill="#0468FF"/>
<path d="M117.846 49.8906L163.897 84.4291L48.7691 237.933L2.7178 203.395L117.846 49.8906Z" fill="#1F34AB"/>
<path d="M51.4869 92.6641L89.863 169.416L38.3761 195.16L0 118.408L51.4869 92.6641Z" fill="#85AEFF"/>
</g>
<defs>
<clipPath id="clip0_1_8908">
<rect width="256" height="238" fill="white"/>
</clipPath>
</defs>
</svg>
