<svg width="256" height="257" viewBox="0 0 256 257" fill="none" xmlns="http://www.w3.org/2000/svg">
<g clip-path="url(#clip0_1_8942)">
<path d="M128.001 0.667969C57.311 0.667969 0 57.9722 0 128.665C0 199.355 57.311 256.663 128.001 256.663C198.691 256.663 256 199.355 256 128.665C256 57.9722 198.689 0.667969 128.001 0.667969ZM128.001 240.228C107.889 240.228 91.582 226.793 91.582 210.224H164.42C164.42 226.79 148.114 240.228 128.001 240.228ZM188.154 200.288H67.8417V178.472H188.156V200.288H188.154ZM187.722 167.243H68.1851C67.7875 166.785 67.3809 166.333 66.9969 165.868C54.6818 150.914 51.7814 143.108 48.9647 135.152C48.9172 134.89 63.8978 138.213 74.5211 140.602C74.5211 140.602 79.9874 141.867 87.9792 143.324C80.3059 134.33 75.7499 122.896 75.7499 111.208C75.7499 85.5503 95.4288 63.1291 88.3293 45.0065C95.2391 45.569 102.63 59.5896 103.129 81.5115C110.475 71.3603 113.549 52.8221 113.549 41.4557C113.549 29.6872 121.304 16.0167 129.061 15.5491C122.146 26.9449 130.852 36.7144 138.591 60.9494C141.493 70.0525 141.123 85.3718 143.363 95.0871C144.107 74.9089 147.576 45.4673 160.377 35.3026C154.73 48.1034 161.213 64.1208 165.647 71.8211C172.801 84.2447 177.137 93.6572 177.137 111.459C177.137 123.395 172.73 134.632 165.297 143.417C173.749 141.831 179.586 140.401 179.586 140.401L207.035 135.046C207.038 135.044 203.048 151.447 187.722 167.243Z" fill="#DA4E31"/>
</g>
<defs>
<clipPath id="clip0_1_8942">
<rect width="256" height="257" fill="white"/>
</clipPath>
</defs>
</svg>
