<svg width="256" height="261" viewBox="0 0 256 261" fill="none" xmlns="http://www.w3.org/2000/svg">
<g clip-path="url(#clip0_1_8949)">
<path d="M141.032 0H116.501H12.2545C6.12751 0 -0.000488281 6.127 -0.000488281 12.269V174.769C-0.000488281 182.413 4.60251 191.634 10.7225 194.697L118.032 257.554C124.167 262.142 133.365 262.142 137.968 257.554L245.27 194.697C251.397 190.095 256 182.428 256 174.769V12.269C256 4.603 249.866 0.007 243.738 0.007H141.032V0Z" fill="#13C779"/>
<path d="M200.817 72.0565L128.769 114.969L56.7221 72.0565H200.817ZM200.817 144.104L128.769 187.032L56.7221 144.104V88.9135L128.762 131.842L200.81 88.9135V144.104H200.817ZM206.952 56.7305H128.762H50.5801C47.5161 56.7305 44.4521 59.7945 44.4521 64.3895V67.4615V144.119C44.4521 147.19 44.4521 153.317 50.5801 156.366C56.7141 160.969 128.762 203.897 128.762 203.897C128.762 203.897 200.81 160.983 206.952 156.366C213.072 151.778 213.072 147.182 213.072 144.119V67.4615V64.3895C213.072 59.7945 211.547 56.7305 206.952 56.7305Z" fill="white"/>
<path d="M128.762 0H116.507H12.254C6.127 0 0 6.127 0 12.269V174.769C0 182.413 4.603 191.634 10.723 194.697L118.032 257.554C121.095 259.079 124.167 260.618 128.755 260.618L128.762 0Z" fill="#231F1F" fill-opacity="0.1"/>
</g>
<defs>
<clipPath id="clip0_1_8949">
<rect width="256" height="261" fill="white"/>
</clipPath>
</defs>
</svg>
