<svg width="512" height="120" viewBox="0 0 512 120" fill="none" xmlns="http://www.w3.org/2000/svg">
<g clip-path="url(#clip0_1_8957)">
<path d="M1.11703 90.8189C0.503017 90.4641 0 89.5947 0 88.8889V31.0881C0 30.3811 0.503017 29.513 1.11703 29.1575L51.8166 0.266105C52.4312 -0.0887018 53.4366 -0.0887018 54.0513 0.266105L104.748 29.1607C105.362 29.5155 105.865 30.3836 105.865 31.0907V88.8915C105.865 89.5966 105.362 90.4654 104.748 90.8214L54.0513 119.714C53.4366 120.068 52.4312 120.068 51.8166 119.714L1.11703 90.8189ZM153.486 36.8407V60.285H163.512C170.787 60.285 174.021 57.3207 174.021 52.4702V44.6555C174.021 39.8056 170.787 36.8407 163.512 36.8407H153.486ZM153.486 67.7404V88.6695C153.486 89.9264 153.163 90.4654 152.031 90.4654H147.099C146.048 90.4654 145.644 89.9264 145.644 88.6695V31.1824C145.644 29.9249 146.048 29.3853 147.099 29.3853H163.512C177.417 29.3853 181.863 35.8527 181.863 43.2183V53.908C181.863 61.273 177.417 67.7404 163.512 67.7404H153.486ZM200.108 36.8407V58.8478H210.132C217.409 58.8478 220.643 55.9734 220.643 51.033V44.6555C220.643 39.8056 217.409 36.8407 210.132 36.8407H200.108ZM200.108 66.3032V88.6695C200.108 89.9264 199.784 90.4654 198.652 90.4654H193.721C192.67 90.4654 192.266 89.9264 192.266 88.6695V31.1824C192.266 29.9249 192.67 29.3853 193.721 29.3853H210.132C224.038 29.3853 228.485 35.8527 228.485 43.2183V52.56C228.485 58.0393 225.979 62.9797 219.026 65.1361L228.727 88.6695C229.132 89.7474 228.404 90.4654 227.272 90.4654H222.421C221.289 90.4654 221.128 89.7474 220.643 88.6695L211.507 66.3032H200.108ZM270.985 43.9369C270.985 39.0864 267.573 36.1221 259.893 36.1221C252.298 36.1221 248.885 39.0864 248.885 43.9369V75.9138C248.885 80.7649 252.298 83.7285 259.893 83.7285C267.573 83.7285 270.985 80.7649 270.985 75.9138V43.9369ZM240.523 42.4997C240.523 35.1341 245.301 28.6673 259.893 28.6673C274.569 28.6673 279.349 35.1341 279.349 42.4997V77.3516C279.349 84.7172 274.569 91.1846 259.893 91.1846C245.301 91.1846 240.523 84.7172 240.523 77.3516V42.4997ZM324.403 29.3853C325.513 29.3853 326.025 29.8351 326.025 31.092V35.1341C326.025 36.3916 325.513 36.8407 324.403 36.8407H310.751V88.6695C310.751 89.9264 310.324 90.4654 309.214 90.4654H303.924C302.815 90.4654 302.388 89.9264 302.388 88.6695V36.8407H288.735C287.541 36.8407 287.114 36.3916 287.114 35.1341V31.092C287.114 29.8351 287.541 29.3853 288.735 29.3853H324.403ZM364.17 43.9369C364.17 39.0864 360.757 36.1221 353.077 36.1221C345.483 36.1221 342.069 39.0864 342.069 43.9369V75.9138C342.069 80.7649 345.483 83.7285 353.077 83.7285C360.757 83.7285 364.17 80.7649 364.17 75.9138V43.9369ZM333.707 42.4997C333.707 35.1341 338.485 28.6673 353.077 28.6673C367.754 28.6673 372.533 35.1341 372.533 42.4997V77.3516C372.533 84.7172 367.754 91.1846 353.077 91.1846C338.485 91.1846 333.707 84.7172 333.707 77.3516V42.4997ZM421.925 88.7587C421.925 89.9264 421.602 90.4654 420.47 90.4654H416.023C415.215 90.4654 414.891 90.1959 414.569 89.6569L395.569 52.6505C393.791 49.3264 392.821 46.5418 392.658 46.1825V88.7587C392.658 89.9264 392.254 90.4654 391.203 90.4654H386.676C385.625 90.4654 385.221 89.9264 385.221 88.7587V31.092C385.221 29.9249 385.625 29.3853 386.676 29.3853H391.203C391.85 29.3853 392.254 29.6548 392.497 30.1039L411.981 67.92C413.113 70.0758 414.488 73.6682 414.488 73.6682V31.092C414.488 29.9249 414.972 29.3853 416.023 29.3853H420.47C421.602 29.3853 421.925 29.9249 421.925 31.092V88.7587ZM435.827 90.4654C434.777 90.4654 434.373 89.9264 434.373 88.6695V31.1824C434.373 29.9249 434.777 29.3853 435.827 29.3853H463.477C464.528 29.3853 465.013 29.8351 465.013 31.092V35.1341C465.013 36.3916 464.528 36.8407 463.477 36.8407H442.215V54.9853H462.022C463.154 54.9853 463.639 55.4344 463.639 56.692V60.5544C463.639 61.7221 463.154 62.2611 462.022 62.2611H442.215V83.0106H464.367C465.418 83.0106 465.903 83.3699 465.903 84.6268V88.7587C465.903 90.0169 465.418 90.4654 464.367 90.4654H435.827ZM510.463 29.3853C511.515 29.3853 512 29.8351 512 31.092V35.1341C512 36.3916 511.515 36.8407 510.463 36.8407H497.528V88.6695C497.528 89.9264 497.124 90.4654 496.073 90.4654H491.061C490.01 90.4654 489.605 89.9264 489.605 88.6695V36.8407H476.67C475.538 36.8407 475.133 36.3916 475.133 35.1341V31.092C475.133 29.8351 475.538 29.3853 476.67 29.3853H510.463Z" fill="#E15B29"/>
</g>
<defs>
<clipPath id="clip0_1_8957">
<rect width="512" height="120" fill="white"/>
</clipPath>
</defs>
</svg>
