<svg width="256" height="256" viewBox="0 0 256 256" fill="none" xmlns="http://www.w3.org/2000/svg">
<g clip-path="url(#clip0_1_8960)">
<path d="M256 128C256 198.692 198.692 256 128 256C57.308 256 0 198.692 0 128C0 57.308 57.308 0 128 0C198.692 0 256 57.308 256 128Z" fill="#E23237"/>
<path d="M256 127.999C256 127.583 255.973 127.174 255.969 126.759C230.391 102.101 204.525 77.1259 203.799 76.2669C185.767 54.9289 158.808 41.3789 128.684 41.3789C74.3959 41.3789 30.3859 85.3889 30.3859 139.677C30.3859 147.188 31.2559 154.491 32.8519 161.518C68.4809 199.053 101.617 233.189 126.417 255.959C126.946 255.966 127.469 255.999 128 255.999C198.692 255.999 256 198.692 256 127.999Z" fill="#B52E31"/>
<path d="M191.872 138.255H66.0067C66.0057 138.084 65.9947 137.916 65.9947 137.745C65.9947 102.981 94.1757 74.7997 128.94 74.7997C163.703 74.7997 191.885 102.981 191.885 137.745C191.885 137.916 191.873 138.084 191.872 138.255ZM206.766 135.406H226.875C225.793 110.114 215.163 87.2997 198.486 70.4777L184.6 84.3647L181.242 81.0077L195.063 67.1867C178.032 51.5837 155.483 41.9267 130.683 41.4297V59.3227H125.935V41.4487C101.12 42.1327 78.6087 51.9977 61.6747 67.7887L74.3167 80.4307L70.9597 83.7877L58.2817 71.1097C41.9557 87.8697 31.5637 110.425 30.4937 135.406H48.9027V140.154H30.3997C30.4357 147.496 31.2897 154.641 32.8517 161.519H224.518C226.079 154.641 226.934 147.496 226.97 140.154H206.766V135.406Z" fill="white"/>
</g>
<defs>
<clipPath id="clip0_1_8960">
<rect width="256" height="256" fill="white"/>
</clipPath>
</defs>
</svg>
