<svg width="256" height="256" viewBox="0 0 256 256" fill="none" xmlns="http://www.w3.org/2000/svg">
<g clip-path="url(#clip0_1_8968)">
<path d="M128 256C198.692 256 256 198.692 256 128C256 57.3075 198.692 0 128 0C57.3075 0 0 57.3075 0 128C0 198.692 57.3075 256 128 256Z" fill="#F2F2F2"/>
<path d="M166.493 203.682C141.219 212.991 113.478 212.991 88.2037 203.682C85.8765 202.844 84.0146 200.098 84.0146 197.724V191.627C84.0146 189.253 85.8765 188.089 88.2037 188.927C113.478 198.236 141.219 198.236 166.493 188.927C168.82 188.089 170.682 189.253 170.682 191.627V197.724C170.636 200.098 168.774 202.844 166.493 203.682Z" fill="#ED1C24"/>
<path d="M166.493 196.235C141.219 209.174 113.478 209.174 88.2037 196.235C85.8765 195.071 84.0146 191.254 84.0146 187.95V179.525C84.0146 176.22 85.8765 174.591 88.2037 175.801C113.478 188.741 141.219 188.741 166.493 175.801C168.82 174.638 170.682 176.22 170.682 179.525V187.95C170.636 191.254 168.774 195.071 166.493 196.235Z" fill="#C1272D"/>
<path d="M127.348 210.434C129.328 210.434 130.932 208.829 130.932 206.85C130.932 204.87 129.328 203.266 127.348 203.266C125.369 203.266 123.764 204.87 123.764 206.85C123.764 208.829 125.369 210.434 127.348 210.434Z" fill="#C1272D"/>
<path d="M127.348 209.41C129.045 209.41 130.42 208.034 130.42 206.338C130.42 204.641 129.045 203.266 127.348 203.266C125.652 203.266 124.276 204.641 124.276 206.338C124.276 208.034 125.652 209.41 127.348 209.41Z" fill="#FF931E"/>
<path d="M128.233 208.477C128.824 208.477 129.303 207.998 129.303 207.406C129.303 206.815 128.824 206.336 128.233 206.336C127.641 206.336 127.162 206.815 127.162 207.406C127.162 207.998 127.641 208.477 128.233 208.477Z" fill="#FFB81E"/>
<path d="M127.348 228.075C132.644 228.075 136.937 223.782 136.937 218.487C136.937 213.191 132.644 208.898 127.348 208.898C122.053 208.898 117.76 213.191 117.76 218.487C117.76 223.782 122.053 228.075 127.348 228.075Z" fill="#FF931E"/>
<path d="M127.348 227.191C132.104 227.191 135.959 223.335 135.959 218.58C135.959 213.824 132.104 209.969 127.348 209.969C122.593 209.969 118.738 213.824 118.738 218.58C118.738 223.335 122.593 227.191 127.348 227.191Z" fill="#FFB81E"/>
<path d="M129.862 215.831C130.374 216.297 130.653 216.948 130.653 217.879C130.653 218.81 130.374 219.462 129.862 219.927C129.303 220.346 128.512 220.579 127.395 220.579H126.418V222.674H124.742V215.18H127.395C128.512 215.18 129.35 215.366 129.862 215.831ZM128.652 218.764C128.838 218.531 128.931 218.205 128.931 217.786C128.931 217.367 128.791 217.042 128.559 216.855C128.279 216.669 127.907 216.576 127.348 216.576H126.418V219.09H127.535C128.093 219.09 128.466 218.996 128.652 218.764Z" fill="#FF931E"/>
<path d="M205.033 140.473C207.36 172.357 172.87 200.982 127.814 200.936C82.8044 200.982 48.2677 172.357 50.5949 140.473C52.9222 108.496 87.5986 82.1051 127.907 82.0586C168.262 82.1051 202.659 108.496 205.033 140.473Z" fill="#F7BD89"/>
<path d="M127.674 77.5898C85.3177 77.5898 45.9868 107.425 53.4341 152.854C54.9236 157.043 57.3905 167.935 69.1665 177.569C72.7039 180.455 78.8014 182.876 81.6872 180.921C89.0879 175.894 75.9621 161.465 90.9498 148.153H90.6239C98.7694 141.962 110.313 137.028 127.581 137.028C144.849 137.028 156.393 141.962 164.538 148.153H164.212C179.2 161.465 166.121 175.894 173.475 180.921C176.361 182.876 182.505 180.455 185.996 177.569C197.772 167.935 200.285 157.043 201.774 152.854C209.222 107.379 170.03 77.5898 127.674 77.5898Z" fill="#FBD5A0"/>
<path d="M164.119 153.042C156.998 144.292 143.5 135.82 127.814 135.82H127.674H127.628C111.895 135.82 98.3971 144.292 91.3222 153.042C83.968 161.979 86.6211 165.796 86.6211 174.36C86.6211 205.359 97.4662 196.329 104.774 200.053C112.221 203.684 119.761 202.38 127.674 202.38H127.814C135.727 202.38 143.267 203.684 150.714 200.006C157.975 196.283 168.867 205.406 168.867 174.406C168.82 165.889 171.473 161.979 164.119 153.042Z" fill="black"/>
<path d="M75.4037 152.25C82.5757 152.25 88.3898 146.436 88.3898 139.264C88.3898 132.091 82.5757 126.277 75.4037 126.277C68.2316 126.277 62.4175 132.091 62.4175 139.264C62.4175 146.436 68.2316 152.25 75.4037 152.25Z" fill="#F7BD89"/>
<path d="M76.5672 150.062C83.7393 150.062 89.5534 144.248 89.5534 137.076C89.5534 129.904 83.7393 124.09 76.5672 124.09C69.3952 124.09 63.5811 129.904 63.5811 137.076C63.5811 144.248 69.3952 150.062 76.5672 150.062Z" fill="black"/>
<path d="M79.872 134.609C81.7229 134.609 83.2233 133.108 83.2233 131.258C83.2233 129.407 81.7229 127.906 79.872 127.906C78.0212 127.906 76.5208 129.407 76.5208 131.258C76.5208 133.108 78.0212 134.609 79.872 134.609Z" fill="white"/>
<path d="M179.665 152.25C186.837 152.25 192.652 146.436 192.652 139.264C192.652 132.091 186.837 126.277 179.665 126.277C172.493 126.277 166.679 132.091 166.679 139.264C166.679 146.436 172.493 152.25 179.665 152.25Z" fill="#F7BD89"/>
<path d="M178.921 150.062C186.093 150.062 191.907 144.248 191.907 137.076C191.907 129.904 186.093 124.09 178.921 124.09C171.749 124.09 165.935 129.904 165.935 137.076C165.935 144.248 171.749 150.062 178.921 150.062Z" fill="black"/>
<path d="M182.226 134.609C184.076 134.609 185.577 133.108 185.577 131.258C185.577 129.407 184.076 127.906 182.226 127.906C180.375 127.906 178.874 129.407 178.874 131.258C178.874 133.108 180.375 134.609 182.226 134.609Z" fill="white"/>
<path d="M100.352 89.2287C100.352 89.2287 56.3665 96.8156 54.5978 149.365C54.5512 150.157 53.7134 150.669 53.0153 150.25L51.6189 149.412L50.5483 135.634L52.5498 107.521L70.8887 93.9763L87.3658 87.3203L100.352 89.2287Z" fill="#F7BD89"/>
<path d="M154.95 89.2287C154.95 89.2287 198.935 96.8156 200.704 149.365C200.75 150.157 201.588 150.669 202.286 150.25L203.683 149.412L204.753 135.634L202.752 107.521L184.413 93.9763L167.936 87.3203L154.95 89.2287Z" fill="#F7BD89"/>
<path d="M126.753 182.808V156.298H128.689V182.746C131.542 183.08 135.249 184.739 138.798 185.808C142.476 187.111 146.013 187.623 144.617 187.81C139.776 187.996 134.47 186.18 127.953 186.274C121.39 186.18 116.084 187.996 111.29 187.81C109.894 187.577 113.431 187.065 117.108 185.808C120.474 184.795 123.945 183.251 126.753 182.808ZM139.869 147.362C141.405 150.759 136.099 156.298 127.674 156.298C119.249 156.298 113.943 150.759 115.479 147.362C116.969 143.871 122.321 142.754 127.674 142.707C133.027 142.754 138.38 143.871 139.869 147.362Z" fill="#4D4D4D"/>
<path d="M100.352 89.2287C100.352 89.2287 48.547 96.3967 53.0154 147.829C53.2481 150.436 42.6823 136.705 34.4903 132.516C26.2983 128.327 26.5776 114.782 26.5776 114.782C26.5776 114.782 26.4379 91.1837 59.5317 84.2018C92.579 77.2666 100.352 89.2287 100.352 89.2287ZM154.95 89.2287C154.95 89.2287 206.755 96.3967 202.287 147.829C202.054 150.436 212.62 136.705 220.812 132.516C229.004 128.327 228.724 114.782 228.724 114.782C228.724 114.782 228.864 91.1837 195.77 84.2018C162.723 77.2666 154.95 89.2287 154.95 89.2287Z" fill="black"/>
<path d="M127.721 126.277C111.616 126.277 95.3252 142.103 98.723 140.334C105.007 137.029 108.637 131.211 127.721 131.211C146.804 131.211 150.388 137.029 156.719 140.334C160.116 142.103 143.826 126.277 127.721 126.277Z" fill="#F7BD89"/>
<path d="M127.721 119.344C115.479 119.344 103.145 131.352 105.705 130.003C110.499 127.489 116.643 123.067 127.721 123.067C138.799 123.067 144.943 127.489 149.737 130.003C152.297 131.352 139.962 119.344 127.721 119.344Z" fill="#F7BD89"/>
<path d="M127.628 80.3828C114.13 80.3828 100.445 88.1094 103.284 87.225C108.591 85.5959 115.386 82.7566 127.628 82.7566C139.869 82.7566 146.665 85.5959 151.971 87.225C154.81 88.1094 141.172 80.3828 127.628 80.3828Z" fill="#F7BD89"/>
<path d="M130.746 145.5C131.118 146.337 129.815 147.687 127.721 147.687C125.626 147.687 124.323 146.337 124.695 145.5C125.068 144.662 126.371 144.382 127.721 144.336C129.024 144.336 130.374 144.615 130.746 145.5Z" fill="#808080"/>
</g>
<defs>
<clipPath id="clip0_1_8968">
<rect width="256" height="256" fill="white"/>
</clipPath>
</defs>
</svg>
