<svg width="256" height="326" viewBox="0 0 256 326" fill="none" xmlns="http://www.w3.org/2000/svg">
<g clip-path="url(#clip0_1_8999)">
<path d="M235.066 204.998C240.71 140.495 214.706 85.5299 176.985 82.2298C139.264 78.9296 104.111 128.544 98.4677 193.048C92.8244 257.551 118.828 312.516 156.549 315.816C194.27 319.116 229.423 269.501 235.066 204.998Z" fill="#D04B06"/>
<path d="M255.159 204.994C260.802 140.491 234.798 85.526 197.077 82.2258C159.357 78.9257 124.203 128.541 118.56 193.044C112.916 257.547 138.92 312.512 176.641 315.812C214.362 319.112 249.515 269.498 255.159 204.994Z" fill="#C65C14"/>
<path d="M99.5584 315.816C137.279 312.516 163.283 257.551 157.64 193.048C151.996 128.544 116.843 78.9296 79.1223 82.2298C41.4016 85.5299 15.3977 140.495 21.041 204.998C26.6843 269.501 61.8377 319.116 99.5584 315.816Z" fill="#D04B06"/>
<path d="M79.4718 315.812C117.192 312.512 143.196 257.547 137.553 193.044C131.91 128.541 96.7563 78.9257 59.0356 82.2258C21.3149 85.526 -4.68899 140.491 0.9543 204.994C6.59759 269.498 41.7511 319.112 79.4718 315.812Z" fill="#C65C14"/>
<path d="M254.979 213.932C260.622 149.429 234.618 94.4635 196.897 91.1633C159.177 87.8632 124.023 137.478 118.38 201.981C112.737 266.484 138.74 321.45 176.461 324.75C214.182 328.05 249.335 278.435 254.979 213.932Z" fill="#F17008"/>
<path d="M97.9569 121.299L95.3188 97.2222C95.3188 97.2222 96.7724 84.3528 123.279 82.5087C149.786 80.6646 111.087 23.4595 111.087 23.4595C111.087 23.4595 119.986 -8.49277 134.587 2.87537C149.187 14.2435 149.773 80.6603 149.773 80.6603C149.773 80.6603 159.189 105.653 160.156 114.483" fill="#8F6646"/>
<path d="M234.886 213.932C240.53 149.429 214.526 94.4635 176.805 91.1633C139.084 87.8632 103.931 137.478 98.2876 201.981C92.6443 266.484 118.648 321.45 156.369 324.75C194.09 328.05 229.243 278.435 234.886 213.932Z" fill="#F48D39"/>
<path d="M79.2882 324.75C117.009 321.45 143.013 266.484 137.369 201.981C131.726 137.478 96.5727 87.8632 58.852 91.1633C21.1313 94.4635 -4.87258 149.429 0.770706 213.932C6.414 278.435 41.5675 328.05 79.2882 324.75Z" fill="#F17008"/>
<path d="M99.3792 324.754C137.1 321.453 163.104 266.488 157.461 201.985C151.817 137.482 116.664 87.8671 78.9431 91.1673C41.2224 94.4674 15.2185 149.433 20.8618 213.936C26.5051 278.439 61.6585 328.054 99.3792 324.754Z" fill="#F48D39"/>
<path d="M123.236 325.197C161.101 325.197 191.796 272.708 191.796 207.958C191.796 143.209 161.101 90.7188 123.236 90.7188C85.371 90.7188 54.6755 143.209 54.6755 207.958C54.6755 272.708 85.371 325.197 123.236 325.197Z" fill="#F17008"/>
<path d="M127.306 183.722C140.522 183.722 151.235 173.009 151.235 159.793C151.235 146.577 140.522 135.863 127.306 135.863C114.09 135.863 103.376 146.577 103.376 159.793C103.376 173.009 114.09 183.722 127.306 183.722Z" fill="#F7F3F0"/>
<path d="M135.533 178.125C140.076 178.125 143.759 174.442 143.759 169.899C143.759 165.355 140.076 161.672 135.533 161.672C130.989 161.672 127.306 165.355 127.306 169.899C127.306 174.442 130.989 178.125 135.533 178.125Z" fill="#160C06"/>
<path d="M137.507 172.781C138.913 172.781 140.054 171.641 140.054 170.234C140.054 168.828 138.913 167.688 137.507 167.688C136.1 167.688 134.96 168.828 134.96 170.234C134.96 171.641 136.1 172.781 137.507 172.781Z" fill="#F9F6F4"/>
</g>
<defs>
<clipPath id="clip0_1_8999">
<rect width="256" height="326" fill="white"/>
</clipPath>
</defs>
</svg>
