<svg width="512" height="181" viewBox="0 0 512 181" fill="none" xmlns="http://www.w3.org/2000/svg">
<g clip-path="url(#clip0_1_9017)">
<path d="M90.4919 90.4919V48.8528H58.6234L41.6391 31.7772V0H0V41.6391H31.8685L48.9442 58.7147V80.7213L31.8685 97.797H0V139.436H41.6391V107.659L58.7147 90.5832H90.4919V90.4919ZM13.8797 13.8797H27.7594V27.7594H13.8797V13.8797ZM27.7594 125.465H13.8797V111.585H27.7594V125.465Z" fill="#FFAE1A"/>
<path d="M136.605 180.983H118.251V90.4912H136.605V95.9701C139.527 92.4088 146.102 89.0302 153.133 89.0302C172.4 89.0302 183.267 105.01 183.267 123.638C183.267 142.266 172.309 158.063 153.133 158.063C146.011 158.063 139.527 154.685 136.605 151.124V180.983ZM136.605 134.413C138.963 139.111 143.767 142.079 149.024 142.083C158.977 142.083 164.821 134.139 164.821 123.638C164.821 112.954 158.886 105.01 149.024 105.01C143.776 105.044 138.985 108.003 136.605 112.68V134.413ZM249.834 156.602H231.48V150.576C226.896 155.47 220.471 158.219 213.765 158.155C198.973 158.155 190.572 148.384 190.572 133.774V90.5826H208.926V130.03C208.926 136.97 212.304 141.718 219.609 141.718C225.271 141.718 230.111 138.34 231.48 132.587V90.5826H249.926V156.602H249.834ZM280.333 180.983H261.979V90.4912H280.333V95.9701C283.255 92.4088 289.83 89.0302 296.861 89.0302C316.128 89.0302 326.994 105.01 326.994 123.638C326.994 142.266 316.037 158.063 296.861 158.063C289.738 158.063 283.255 154.685 280.333 151.124V180.983ZM280.333 134.413C282.69 139.111 287.495 142.079 292.752 142.083C302.705 142.083 308.549 134.139 308.549 123.638C308.549 112.954 302.614 105.01 292.752 105.01C287.504 105.044 282.713 108.003 280.333 112.68V134.413ZM353.384 180.983H335.03V90.4912H353.384V95.9701C356.306 92.4088 362.881 89.0302 369.912 89.0302C389.179 89.0302 400.045 105.01 400.045 123.638C400.045 142.266 389.088 158.063 369.912 158.063C362.789 158.063 356.306 154.685 353.384 151.124V180.983ZM353.384 134.413C355.741 139.111 360.546 142.079 365.803 142.083C375.756 142.083 381.6 134.139 381.6 123.638C381.6 112.954 375.665 105.01 365.803 105.01C360.555 105.044 355.764 108.003 353.384 112.68V134.413ZM465.883 134.961C463.508 149.023 453.19 158.063 436.571 158.063C417.304 158.063 404.52 144.001 404.52 123.638C404.52 103.64 417.852 89.0302 436.297 89.0302C455.655 89.0302 466.339 102.453 466.339 121.903V127.565H422.235C422.783 137.518 428.444 143.362 436.571 143.362C442.78 143.362 447.346 140.714 448.807 135.052H465.883V134.961ZM422.691 116.333H448.259C448.076 109.393 443.967 103.914 436.388 103.914C429.357 103.914 424.335 108.206 422.691 116.333ZM478.301 105.284H468.257V90.4912H478.301V72.5938H496.473V90.4912H510.992V105.284H496.473V134.231C496.473 139.435 499.303 141.81 504.052 141.81C506.847 141.792 509.587 141.036 511.996 139.618V155.872C509.439 157.242 505.056 157.972 500.125 157.972C486.702 157.972 478.21 151.306 478.21 136.696V105.284H478.301Z" fill="black"/>
</g>
<defs>
<clipPath id="clip0_1_9017">
<rect width="512" height="181" fill="white"/>
</clipPath>
</defs>
</svg>
