<svg width="256" height="383" viewBox="0 0 256 383" fill="none" xmlns="http://www.w3.org/2000/svg">
<g clip-path="url(#clip0_1_9021)">
<path d="M253.422 214.245H2.19165V200.077C2.19165 190.557 9.90865 182.84 19.4277 182.84H236.185C245.705 182.84 253.422 190.557 253.422 200.077V214.245Z" fill="#DFDEDF"/>
<path d="M235.919 378.553H19.6932C10.0272 378.553 2.19116 370.717 2.19116 361.051V214.246H253.421V361.051C253.421 370.717 245.586 378.553 235.919 378.553Z" fill="white"/>
<path d="M250.302 211.399V198.693C250.302 191.192 244.222 185.111 236.721 185.111H19.279C11.778 185.111 5.698 191.192 5.698 198.693V211.399H250.302ZM250.302 362.868V217.097H5.698V362.868C5.698 370.369 11.778 376.449 19.279 376.449H236.721C244.222 376.449 250.302 370.369 250.302 362.868ZM20.554 179.414L21.4 170.178L17.808 179.488C18.295 179.451 18.782 179.414 19.279 179.414H20.554ZM233.955 163.844L235.209 179.414H236.721C237.53 179.414 238.322 179.48 239.105 179.577L233.955 163.844ZM251.202 186.008C254.179 189.402 256 193.834 256 198.693V362.868C256 373.499 247.351 382.147 236.721 382.147H19.279C8.649 382.147 0 373.499 0 362.868V198.693C0 193.541 2.043 188.866 5.347 185.403L24.567 135.586L32.948 44.0322L42.404 44.8972L34.852 127.389L37.512 128.415L33.902 137.773L30.09 179.414H225.683L214.829 44.6692L224.293 43.9062L230.695 123.375L230.699 123.374L251.202 186.008ZM21.1565 194.398C23.5325 194.398 25.4585 196.324 25.4585 198.7C25.4585 201.076 23.5325 203.002 21.1565 203.002C18.7805 203.002 16.8545 201.076 16.8545 198.7C16.8545 196.324 18.7805 194.398 21.1565 194.398ZM35.8645 194.398C38.2405 194.398 40.1665 196.324 40.1665 198.7C40.1665 201.076 38.2405 203.002 35.8645 203.002C33.4885 203.002 31.5625 201.076 31.5625 198.7C31.5625 196.324 33.4885 194.398 35.8645 194.398ZM50.1091 194.398C52.4851 194.398 54.4111 196.324 54.4111 198.7C54.4111 201.076 52.4851 203.002 50.1091 203.002C47.7331 203.002 45.8071 201.076 45.8071 198.7C45.8071 196.324 47.7331 194.398 50.1091 194.398Z" fill="black"/>
<path d="M36.0217 287.747C36.7607 286.892 37.1497 285.768 37.1497 284.373C37.1497 282.977 36.7607 281.898 36.0217 281.043C35.2437 280.188 34.1537 279.783 32.7537 279.783H25.9067V289.006H32.7537C34.1537 289.006 35.2437 288.601 36.0217 287.747ZM32.7537 274.25C35.7097 274.25 38.0447 275.15 39.7947 276.994C41.5457 278.838 42.4017 281.312 42.4017 284.373C42.4017 287.476 41.5457 289.906 39.8347 291.75C38.0837 293.596 35.7497 294.54 32.7537 294.54H25.9067V306.954H20.6157V274.25H32.7537ZM61.2981 294.306V284.766H66.9961V306.306H61.2981V304.365C59.5711 306.091 57.3271 306.953 54.5211 306.953C51.9311 306.953 49.8591 306.091 48.2621 304.408C46.6651 302.725 45.8881 300.565 45.8881 297.889V284.766H51.5861V296.68C51.5861 298.191 51.9741 299.443 52.7941 300.35C53.5711 301.256 54.6071 301.731 55.9451 301.731C59.5281 301.731 61.2981 299.27 61.2981 294.306ZM89.2243 300.221C90.3463 299.055 90.9073 297.501 90.9073 295.559C90.9073 293.617 90.3463 292.019 89.2243 290.854C88.0583 289.688 86.6343 289.084 84.8643 289.084C83.2673 289.084 81.8433 289.688 80.5913 290.897C79.3393 292.106 78.7353 293.659 78.7353 295.559C78.7353 297.458 79.3393 299.013 80.5913 300.177C81.8433 301.387 83.2673 301.991 84.8643 301.991C86.6343 301.991 88.0583 301.387 89.2243 300.221ZM85.8573 284.12C88.6633 284.12 91.1663 285.2 93.2823 287.358C95.3973 289.559 96.4323 292.278 96.4323 295.559C96.4323 298.839 95.3973 301.559 93.2823 303.717C91.1663 305.876 88.7063 306.954 85.8573 306.954C83.0513 306.954 80.6773 306.177 78.7353 304.624V316.583H73.0373V284.767H78.7353V286.494C80.6343 284.897 83.0083 284.12 85.8573 284.12ZM116.935 300.221C118.057 299.055 118.618 297.501 118.618 295.559C118.618 293.617 118.057 292.019 116.935 290.854C115.769 289.688 114.345 289.084 112.575 289.084C110.978 289.084 109.554 289.688 108.302 290.897C107.05 292.106 106.445 293.659 106.445 295.559C106.445 297.458 107.05 299.013 108.302 300.177C109.554 301.387 110.978 301.991 112.575 301.991C114.345 301.991 115.769 301.387 116.935 300.221ZM113.567 284.12C116.373 284.12 118.877 285.2 120.993 287.358C123.107 289.559 124.143 292.278 124.143 295.559C124.143 298.839 123.107 301.559 120.993 303.717C118.877 305.876 116.417 306.954 113.567 306.954C110.762 306.954 108.388 306.177 106.445 304.624V316.583H100.748V284.767H106.445V286.494C108.345 284.897 110.719 284.12 113.567 284.12ZM132.558 293.055H142.961C142.616 291.717 141.968 290.725 141.062 290.076C140.155 289.429 139.077 289.084 137.867 289.084C136.703 289.084 135.58 289.429 134.587 290.12C133.551 290.811 132.86 291.803 132.558 293.055ZM137.867 284.12C140.803 284.12 143.35 285.156 145.465 287.185C147.58 289.257 148.659 291.889 148.789 295.127V297.07H132.386C132.688 298.58 133.335 299.788 134.329 300.696C135.321 301.602 136.443 302.076 137.781 302.076C140.242 302.076 142.012 301.127 143.134 299.228L148.228 300.307C147.321 302.509 145.94 304.15 144.127 305.272C142.314 306.394 140.199 306.954 137.781 306.954C134.673 306.954 132.04 305.876 129.925 303.761C127.81 301.646 126.73 298.883 126.73 295.559C126.73 292.236 127.81 289.473 129.968 287.314C132.083 285.2 134.717 284.12 137.867 284.12ZM164.5 301.645C165.579 301.645 166.788 301.299 168.083 300.609L169.723 305.357C167.737 306.436 165.881 306.954 164.111 306.954C161.478 306.954 159.406 306.22 157.895 304.795C156.385 303.372 155.651 301.256 155.651 298.364V289.428H151.032V284.766H155.651V278.249H161.349V284.766H168.385V289.428H161.349V297.932C161.349 300.393 162.385 301.645 164.5 301.645ZM176.454 293.055H186.857C186.512 291.717 185.864 290.725 184.958 290.076C184.051 289.429 182.973 289.084 181.763 289.084C180.599 289.084 179.476 289.429 178.483 290.12C177.447 290.811 176.756 291.803 176.454 293.055ZM181.763 284.12C184.699 284.12 187.246 285.156 189.361 287.185C191.476 289.257 192.555 291.889 192.685 295.127V297.07H176.282C176.584 298.58 177.231 299.788 178.225 300.696C179.217 301.602 180.339 302.076 181.677 302.076C184.138 302.076 185.908 301.127 187.03 299.228L192.123 300.307C191.217 302.509 189.836 304.15 188.023 305.272C186.21 306.394 184.095 306.954 181.677 306.954C178.569 306.954 175.936 305.876 173.821 303.761C171.706 301.646 170.626 298.883 170.626 295.559C170.626 292.236 171.706 289.473 173.864 287.314C175.979 285.2 178.613 284.12 181.763 284.12ZM202.05 293.055H212.453C212.108 291.717 211.46 290.725 210.554 290.076C209.647 289.429 208.569 289.084 207.359 289.084C206.195 289.084 205.072 289.429 204.079 290.12C203.043 290.811 202.352 291.803 202.05 293.055ZM207.359 284.12C210.295 284.12 212.842 285.156 214.957 287.185C217.072 289.257 218.151 291.889 218.281 295.127V297.07H201.878C202.18 298.58 202.827 299.788 203.821 300.696C204.813 301.602 205.935 302.076 207.273 302.076C209.734 302.076 211.504 301.127 212.626 299.228L217.72 300.307C216.813 302.509 215.432 304.15 213.619 305.272C211.806 306.394 209.691 306.954 207.273 306.954C204.165 306.954 201.532 305.876 199.417 303.761C197.302 301.646 196.222 298.883 196.222 295.559C196.222 292.236 197.302 289.473 199.46 287.314C201.575 285.2 204.209 284.12 207.359 284.12ZM236.02 284.465C236.668 284.465 237.186 284.508 237.532 284.637L237.229 290.12H235.978C230.841 290.12 228.293 293.185 228.293 299.358V306.307H222.596V284.767H228.293V288.695C230.236 285.889 232.826 284.465 236.02 284.465Z" fill="black"/>
<path d="M211.095 132.64L241.836 117.799V102.959L170.813 69.037L241.836 32.466V18.156L212.155 4.375L128.059 46.246L42.5493 4.375L14.9883 19.216V31.936L81.7703 68.507L14.9883 102.429V117.799L43.6093 132.64L128.412 89.178L211.095 132.64Z" fill="#00D8A2"/>
<path d="M214.949 126.585V120.193L238.089 108.202V115.382L214.949 126.585ZM16.8504 108.034L39.2104 120.87V125.98L16.8504 114.668V108.034ZM131.383 81.0395L208.302 119.045V126.687L131.383 87.2815V81.0395ZM45.8574 120.157L124.736 81.0475V87.2795L45.8574 127.188V120.157ZM101.709 56.2515L21.8874 17.7135L42.5614 7.20652L128.059 51.5295L212.126 7.22552L233.53 18.1885L155.689 57.3625C152.577 58.9285 152.582 63.3735 155.697 64.9325L232.735 103.49L212.767 113.837L128.059 70.4335L41.8534 114.723L22.1644 103.42L101.753 63.8575C104.906 62.2905 104.88 57.7825 101.709 56.2515ZM17.8444 30.7705V23.7565L92.2904 60.8985L84.7644 63.9055L17.8444 30.7705ZM170.498 64.3185C170.396 64.2565 163.368 60.9405 163.368 60.9405L238.089 23.3355V30.3805L170.498 64.3185ZM177.977 68.0015L243.652 35.0255C244.317 34.6915 244.737 34.0105 244.737 33.2665V17.6635C244.737 16.9245 244.323 16.2485 243.666 15.9115L213.033 0.221517C212.472 -0.0654833 211.807 -0.0664833 211.245 0.218517L128.942 41.9825C128.387 42.2645 127.731 42.2675 127.173 41.9885L43.4204 0.206517C42.8634 -0.0714833 42.2064 -0.0684833 41.6504 0.213517L11.2794 15.6475C10.6184 15.9835 10.2024 16.6615 10.2024 17.4025V33.2575C10.2024 34.0065 10.6274 34.6905 11.2994 35.0225L77.2504 67.6065L11.6044 100.202C10.9474 100.529 10.5254 101.194 10.5124 101.929L10.2254 117.52C10.2114 118.275 10.6314 118.971 11.3044 119.312L42.8414 135.268C43.3984 135.549 44.0554 135.55 44.6134 135.27L127.171 93.8145C127.729 93.5335 128.388 93.5355 128.946 93.8185L210.475 135.273C211.023 135.551 211.67 135.558 212.224 135.29L243.626 120.087C244.305 119.758 244.737 119.07 244.737 118.316V102.026C244.737 101.275 244.31 100.59 243.636 100.259L177.977 68.0015Z" fill="black"/>
</g>
<defs>
<clipPath id="clip0_1_9021">
<rect width="256" height="383" fill="white"/>
</clipPath>
</defs>
</svg>
