<svg width="512" height="135" viewBox="0 0 512 135" fill="none" xmlns="http://www.w3.org/2000/svg">
<g clip-path="url(#clip0_1_9058)">
<path d="M43.4764 0.0542677C43.6003 -0.0180892 43.7535 -0.0180892 43.8773 0.0542677L87.1551 25.0211C87.2751 25.0967 87.3496 25.227 87.3539 25.3688V35.1043C87.355 35.178 87.3154 35.2462 87.2509 35.2817L43.7815 60.3479C43.7141 60.3834 43.6751 60.4508 43.6751 60.5218V70.1331C43.6728 70.2067 43.7114 70.2755 43.7753 70.3119C43.8393 70.3483 43.9181 70.3464 43.9802 70.307L87.0522 45.4608C87.1152 45.4276 87.191 45.4294 87.2524 45.4655C87.3138 45.5016 87.3521 45.5669 87.3539 45.6382V55.246C87.3528 55.319 87.3138 55.3862 87.2509 55.4234L43.778 80.5002C43.7141 80.5357 43.6786 80.6031 43.6786 80.674V90.2889C43.6759 90.362 43.7135 90.4306 43.7765 90.4677C43.8395 90.5048 43.9177 90.5042 43.9802 90.4663L87.0522 65.6166C87.1147 65.5787 87.1929 65.5782 87.256 65.6152C87.319 65.6523 87.3565 65.7209 87.3539 65.794V75.4018C87.3558 75.4756 87.316 75.5443 87.2509 75.5792L43.7815 100.656C43.7141 100.691 43.6751 100.762 43.6751 100.833V134.631C43.6768 134.695 43.6411 134.756 43.5838 134.791C43.5266 134.826 43.4555 134.83 43.3948 134.801L35.0394 130.001C34.9791 129.962 34.9436 129.895 34.9436 129.824V45.4004C34.9436 45.3295 34.9046 45.2585 34.8407 45.223L26.5102 40.4191C26.4477 40.3812 26.3694 40.3807 26.3064 40.4178C26.2434 40.4548 26.2058 40.5235 26.2086 40.5965V124.555C26.2083 124.628 26.169 124.696 26.1054 124.733C26.0418 124.769 25.9635 124.769 25.8999 124.732L17.5694 119.921C17.5055 119.886 17.47 119.815 17.47 119.744V35.3349C17.47 35.2604 17.431 35.193 17.3742 35.1576L9.0366 30.3501C8.97464 30.3126 8.89719 30.3117 8.83444 30.3479C8.77169 30.3841 8.7336 30.4515 8.73502 30.524V114.472C8.73779 114.545 8.70022 114.613 8.63722 114.65C8.57421 114.688 8.49595 114.687 8.43345 114.649L0.10289 109.842C0.0354794 109.81 0 109.739 0 109.668V25.1311L8.5115 20.2065C8.64323 20.1305 8.80552 20.1305 8.93725 20.2065L52.1831 45.1734C52.3148 45.2494 52.4771 45.2494 52.6088 45.1734L60.84 40.4262C60.9051 40.3918 60.9458 40.3242 60.9458 40.2506C60.9458 40.177 60.9051 40.1094 60.84 40.075L17.7752 15.2252C17.7119 15.1903 17.6727 15.1237 17.6727 15.0514C17.6727 14.9791 17.7119 14.9125 17.7752 14.8775L25.9815 10.134C26.1133 10.0579 26.2756 10.0579 26.4073 10.134L69.6815 35.0937C69.8077 35.1618 69.9597 35.1618 70.0859 35.0937L78.3172 30.3466C78.3767 30.3088 78.4128 30.2432 78.4128 30.1727C78.4128 30.1022 78.3767 30.0366 78.3172 29.9989L35.2452 5.15265C35.182 5.11766 35.1427 5.05108 35.1427 4.9788C35.1427 4.90652 35.182 4.83995 35.2452 4.80496L43.4764 0.0542677ZM282.778 24.0738C295.018 24.0738 305.754 30.8752 306.382 48.0862C306.396 48.9696 305.704 49.7031 304.821 49.7396H296.778C295.954 49.7467 295.269 49.1072 295.22 48.2849C294.681 38.9326 289.068 34.4586 282.033 34.4586C275.267 34.4586 270.197 38.4287 270.197 44.7796C270.197 50.2647 273.51 53.2449 282.167 59.3261L294.273 68.0611C302.657 74.1458 307.39 79.638 307.39 88.3021C307.39 102.331 295.823 110.661 282.235 110.661C269.384 110.661 259.258 103.65 258.159 86.4536C258.127 86.0216 258.277 85.596 258.574 85.2804C258.871 84.9648 259.286 84.7881 259.72 84.7932H267.898C268.712 84.8119 269.381 85.4402 269.452 86.2514C270.197 95.8415 275.944 100.28 282.707 100.28C289.199 100.28 295.284 96.7746 295.284 88.5717C295.284 83.4698 292.989 80.965 286.35 76.5301L272.364 66.8087C263.981 61.1817 258.368 54.9018 258.368 45.4359C258.368 31.8757 269.796 24.0738 282.778 24.0738ZM202.981 24.9956C203.393 24.9837 203.792 25.1392 204.086 25.427C204.381 25.7148 204.545 26.1101 204.542 26.5219V87.7735C204.542 95.3802 210.35 100.209 217.251 100.209C224.152 100.209 230.101 95.3802 230.101 87.7735V26.5645C230.208 25.701 230.921 25.04 231.79 24.9998H240.579C240.989 24.9873 241.388 25.1423 241.682 25.4294C241.977 25.7164 242.142 26.1107 242.14 26.5219V87.9899C242.14 101.951 230.708 110.484 217.318 110.484C204.198 110.484 192.77 101.884 192.77 87.9899V26.5219C192.766 26.1111 192.929 25.7163 193.223 25.4285C193.516 25.1407 193.913 24.9847 194.324 24.9956H202.981ZM486.33 25.1307C501.072 25.1307 511.215 34.4551 511.215 48.2849C511.215 57.4812 506.344 65.1518 497.417 69.6506C497.326 69.6799 497.252 69.7472 497.215 69.8351C497.185 69.9019 497.177 69.976 497.192 70.0465L497.215 70.1154L511.889 107.617C512.083 108.102 512.02 108.653 511.72 109.081C511.45 109.467 511.022 109.707 510.558 109.74L510.403 109.743H501.27C500.389 109.569 499.643 108.993 499.252 108.193L499.173 108.018L486.192 72.6273C486.094 72.3466 485.847 72.1472 485.56 72.1064L485.45 72.0987H473.412C473.008 72.0985 472.672 72.3934 472.609 72.7818L472.599 72.8899V108.018C472.602 108.428 472.437 108.821 472.143 109.107C471.886 109.357 471.549 109.506 471.195 109.53L471.042 109.533H462.254C461.845 109.544 461.449 109.39 461.156 109.104C460.9 108.855 460.742 108.523 460.707 108.17L460.7 108.018V26.6532C460.699 26.2436 460.863 25.8509 461.156 25.5643C461.412 25.3136 461.747 25.1626 462.101 25.1349L462.254 25.1307H486.33ZM156.805 25.1304C172.153 25.1304 181.69 34.0577 181.69 49.0122C181.69 63.8173 171.084 73.295 157.091 73.4831L156.666 73.4859H143.745C143.34 73.484 143.001 73.7792 142.939 74.1687L142.929 74.2771V108.146C142.932 108.556 142.768 108.949 142.476 109.237C142.221 109.488 141.885 109.64 141.531 109.667L141.378 109.672H132.586C131.782 109.585 131.153 108.957 131.052 108.168L131.04 108.018V26.6532C131.034 26.242 131.199 25.8477 131.493 25.5606C131.751 25.3095 132.088 25.1594 132.444 25.1337L132.597 25.1304H156.805ZM334.915 25.1267C335.326 25.115 335.725 25.2705 336.02 25.5583C336.314 25.8461 336.479 26.2414 336.476 26.6532V60.6601C336.487 61.0991 336.845 61.4495 337.285 61.4513H363.181C363.622 61.4534 363.984 61.1013 363.993 60.6601V26.6532C363.992 26.2426 364.157 25.8491 364.451 25.5618C364.744 25.2746 365.141 25.118 365.551 25.1267H374.343C374.754 25.116 375.152 25.2719 375.446 25.5596C375.739 25.8473 375.903 26.242 375.9 26.6532V108.078C375.902 108.489 375.738 108.883 375.444 109.171C375.151 109.458 374.754 109.614 374.343 109.604H365.551C365.134 109.601 364.735 109.432 364.443 109.135C364.15 108.837 363.989 108.435 363.993 108.018V72.4322C363.988 71.9882 363.625 71.6319 363.181 71.6339H337.285C336.845 71.6339 336.483 71.9887 336.472 72.4286V108.014C336.474 108.425 336.31 108.818 336.016 109.104C335.722 109.391 335.325 109.545 334.915 109.533H326.126C325.717 109.545 325.319 109.391 325.025 109.106C324.731 108.82 324.565 108.428 324.565 108.018V26.6532C324.561 26.2411 324.726 25.8452 325.02 25.5572C325.315 25.2692 325.714 25.114 326.126 25.1267H334.915ZM442.708 25.1311C443.119 25.1165 443.518 25.271 443.813 25.5586C444.107 25.8461 444.271 26.2417 444.266 26.6532V33.7313C444.266 34.1412 444.1 34.5338 443.807 34.8203C443.514 35.1068 443.118 35.2629 442.708 35.2533H410.858C410.417 35.2551 410.057 35.6071 410.046 36.0481V60.983C410.055 61.4248 410.416 61.7778 410.858 61.7777H432.77C433.18 61.7671 433.576 61.9232 433.868 62.2101C434.16 62.497 434.324 62.8902 434.321 63.2998V70.3744C434.324 70.7839 434.16 71.1772 433.868 71.4641C433.576 71.751 433.18 71.907 432.77 71.8964H410.858C410.417 71.8982 410.057 72.2502 410.046 72.6912V98.6231C410.057 99.064 410.417 99.416 410.858 99.4178H442.708C443.556 99.4178 444.248 100.092 444.266 100.94V108.018C444.241 108.861 443.551 109.531 442.708 109.533H399.7C399.287 109.558 398.883 109.408 398.587 109.12C398.292 108.831 398.131 108.431 398.146 108.018V26.6532C398.143 26.243 398.307 25.8492 398.6 25.5621C398.893 25.2751 399.29 25.1195 399.7 25.1311H442.708ZM156.801 35.0511H143.745C143.347 35.0614 143.02 35.3558 142.96 35.7392L142.95 35.8459V62.6257C142.959 63.0347 143.269 63.3675 143.665 63.4147L143.766 63.4204L156.805 63.4311C164.919 63.4311 169.517 56.6829 169.517 49.0122C169.517 41.072 165.327 35.0511 156.801 35.0511ZM485.379 35.0511H473.412C473.039 35.0493 472.729 35.3232 472.675 35.6821L472.667 35.782V61.5755C472.677 61.9797 472.981 62.3092 473.371 62.3626L473.479 62.3702L485.379 62.4412C492.383 62.4412 498.66 57.6145 498.833 49.1112L498.836 48.7497C498.836 40.9407 493.766 35.0511 485.379 35.0511Z" fill="#300D4F"/>
</g>
<defs>
<clipPath id="clip0_1_9058">
<rect width="512" height="135" fill="white"/>
</clipPath>
</defs>
</svg>
