<svg width="256" height="396" viewBox="0 0 256 396" fill="none" xmlns="http://www.w3.org/2000/svg">
<g clip-path="url(#clip0_1_9055)">
<path d="M127.995 394.551V295.503C127.995 295.295 128.109 295.087 128.307 294.983L255.698 221.493C255.889 221.391 256.006 221.189 256 220.973V192.816C256.008 192.602 255.898 192.401 255.713 192.292C255.528 192.184 255.299 192.185 255.116 192.296L128.889 265.121C128.706 265.232 128.476 265.234 128.292 265.125C128.107 265.017 127.997 264.816 128.005 264.602V236.424C128.005 236.216 128.109 236.018 128.296 235.914L255.698 162.424C255.882 162.315 255.997 162.118 256 161.904V133.748C255.995 133.539 255.882 133.347 255.702 133.242C255.522 133.136 255.301 133.13 255.116 133.228L128.889 206.042C128.707 206.158 128.476 206.163 128.288 206.057C128.101 205.95 127.988 205.748 127.995 205.533V177.366C127.995 177.158 128.109 176.96 128.307 176.856L255.698 103.397C255.887 103.293 256.003 103.093 256 102.877V74.346C255.987 73.9306 255.769 73.5485 255.417 73.327L128.587 0.159037C128.224 -0.0530124 127.775 -0.0530124 127.412 0.159037L103.29 14.0814C103.105 14.184 102.989 14.3791 102.989 14.5909C102.989 14.8027 103.105 14.9979 103.29 15.1004L229.517 87.9149C229.691 88.0254 229.797 88.2177 229.797 88.4244C229.797 88.631 229.691 88.8233 229.517 88.9338L205.394 102.846C205.025 103.046 204.579 103.046 204.209 102.846L77.3894 29.6987C77.0034 29.4758 76.5278 29.4758 76.1417 29.6987L52.092 43.6003C51.9067 43.7028 51.7917 43.8979 51.7917 44.1097C51.7917 44.3216 51.9067 44.5167 52.092 44.6192L178.298 117.444C178.489 117.545 178.608 117.743 178.608 117.959C178.608 118.175 178.489 118.373 178.298 118.473L154.176 132.385C153.79 132.608 153.314 132.608 152.928 132.385L26.1916 59.2175C25.8055 58.9946 25.3299 58.9946 24.9439 59.2175L0 73.6494V321.393C0 321.601 0.103976 321.809 0.301531 321.903L24.7151 335.991C24.8983 336.103 25.1276 336.104 25.3123 335.996C25.4969 335.887 25.607 335.686 25.5989 335.472V89.4537C25.5947 89.2415 25.7064 89.0438 25.8903 88.9378C26.0742 88.8318 26.3012 88.8343 26.4827 88.9442L50.9171 103.033C51.0835 103.137 51.1978 103.335 51.1978 103.553V350.922C51.1978 351.13 51.3018 351.338 51.489 351.442L75.9026 365.542C76.0888 365.649 76.3182 365.649 76.5046 365.542C76.691 365.435 76.8063 365.237 76.8072 365.022V118.973C76.799 118.758 76.9091 118.557 77.0938 118.449C77.2784 118.34 77.5078 118.342 77.6909 118.453L102.105 132.531C102.292 132.635 102.406 132.843 102.406 133.051V380.462C102.406 380.67 102.51 380.868 102.687 380.982L127.173 395.05C127.351 395.134 127.559 395.123 127.727 395.02C127.895 394.918 127.999 394.737 128.005 394.54L127.995 394.551Z" fill="#300D4F"/>
</g>
<defs>
<clipPath id="clip0_1_9055">
<rect width="256" height="396" fill="white"/>
</clipPath>
</defs>
</svg>
