<svg width="256" height="226" viewBox="0 0 256 226" fill="none" xmlns="http://www.w3.org/2000/svg">
<g clip-path="url(#clip0_1_9075)">
<path d="M37.2319 86.7735L73.3378 99.9149L109.978 86.579L73.8721 73.4375L37.2319 86.7735Z" fill="#F7F7F4"/>
<path d="M74.2034 72.5273H73.5411L36.9009 85.8633V87.683L73.0067 100.824H73.669L110.309 87.4885V85.6688L74.2034 72.5273ZM73.8714 74.4656L107.144 86.5764L73.3369 98.8846L40.0643 86.77L73.8714 74.4656Z" fill="#CCCCCC"/>
<path d="M37.2319 86.7734L73.3378 99.9149V142.351L37.2319 129.21V86.7734Z" fill="#EFEEEA"/>
<path d="M37.5631 85.8633L36.2637 86.7731V129.209L36.9008 130.119L73.0066 143.261L74.306 142.351V99.9146L73.6689 99.0047L37.5631 85.8633ZM38.1974 88.1526L72.3686 100.589V140.968L38.1974 128.528V88.1526Z" fill="#CCCCCC"/>
<path d="M73.4954 57.1016L109.601 70.243L146.241 56.9071L110.136 43.7656L73.4954 57.1016Z" fill="#F7F7F4"/>
<path d="M110.467 42.8555H109.804L73.1643 56.1914V58.0111L109.27 71.1526H109.932L146.573 57.8166V55.9969L110.467 42.8555ZM110.134 44.7931L143.407 56.9039L109.596 69.2122L76.3191 57.1014L110.134 44.7931Z" fill="#CCCCCC"/>
<path d="M73.4954 57.1016L109.601 70.243V112.679L73.4954 99.5376V57.1016Z" fill="#EFEEEA"/>
<path d="M73.8265 56.1914L72.5271 57.1013V99.5373L73.1642 100.447L109.27 113.589L110.569 112.679V70.2427L109.932 69.3329L73.8265 56.1914ZM74.46 58.4801L108.631 70.9201V111.296L74.46 98.8597V58.4801Z" fill="#CCCCCC"/>
<path d="M0.968262 142.816L37.0741 155.958L73.7143 142.622L37.6084 129.48L0.968262 142.816Z" fill="#F7F7F4"/>
<path d="M37.9395 128.57H37.2771L0.636963 141.906V143.726L36.7428 156.867H37.4051L74.0453 143.531V141.712L37.9395 128.57ZM37.6087 130.507L70.8852 142.618L37.0703 154.926L3.7977 142.815L37.6087 130.507Z" fill="#CCCCCC"/>
<path d="M0.968262 142.816L37.0741 155.958V198.394L0.968262 185.252V142.816Z" fill="#EFEEEA"/>
<path d="M1.2994 141.906L0 142.816V185.252L0.637083 186.162L36.7429 199.303L38.0423 198.394V155.958L37.4052 155.048L1.2994 141.906ZM1.93492 144.198L36.1022 156.634V197.009L1.93492 184.573V144.198Z" fill="#CCCCCC"/>
<path d="M37.2319 156.004L73.3378 169.145V211.581L37.2319 198.44V156.004Z" fill="#EFEEEA"/>
<path d="M37.5631 155.094L36.2637 156.004V198.44L36.9008 199.35L73.0066 212.491L74.306 211.581V169.145L73.6689 168.235L37.5631 155.094ZM38.1976 157.382L72.3687 169.822V210.198L38.1976 197.762V157.382Z" fill="#CCCCCC"/>
<path d="M37.2319 113.145L73.3378 126.286L109.978 112.95L73.8721 99.8086L37.2319 113.145Z" fill="#F7F7F4"/>
<path d="M74.2031 98.9023H73.5408L36.9006 112.238V114.058L73.0065 127.199H73.6688L110.309 113.864V112.044L74.2031 98.9023ZM73.8713 100.842L107.144 112.953L73.3369 125.257L40.0642 113.146L73.8713 100.842Z" fill="#CCCCCC"/>
<path d="M37.2319 113.145L73.3378 126.286V168.722L37.2319 155.581V113.145Z" fill="#EFEEEA"/>
<path d="M37.5631 112.238L36.2637 113.148V155.584L36.9008 156.494L73.0066 169.636L74.306 168.726V126.29L73.6689 125.38L37.5631 112.238ZM38.1976 114.529L72.3687 126.965V167.341L38.1976 154.905V114.529Z" fill="#CCCCCC"/>
<path d="M218.392 142.77V185.206L255.032 171.87V129.434L218.392 142.77Z" fill="white"/>
<path d="M254.701 128.523L218.06 141.859L217.423 142.769V185.205L218.723 186.115L255.363 172.779L256 171.869V129.433L254.701 128.523ZM254.061 130.815V171.191L219.359 183.82V143.445L254.061 130.815Z" fill="#CCCCCC"/>
<path d="M182.128 155.957V198.393L218.768 185.057V142.621L182.128 155.957Z" fill="#FFD242"/>
<path d="M218.437 141.711L181.797 155.047L181.16 155.957V198.393L182.459 199.303L219.099 185.967L219.737 185.057V142.621L218.437 141.711ZM217.798 143.999V184.379L183.093 197.009V156.633L217.798 143.999Z" fill="#CCCCCC"/>
<path d="M145.865 169.145V211.581L182.505 198.245V155.809L145.865 169.145Z" fill="#FFD242"/>
<path d="M182.174 154.898L145.534 168.234L144.896 169.144V211.58L146.196 212.49L182.836 199.154L183.473 198.244V155.808L182.174 154.898ZM181.536 157.188V197.563L146.83 210.197V169.821L181.536 157.188Z" fill="#CCCCCC"/>
<path d="M109.601 182.332V224.768L146.241 211.432V168.996L109.601 182.332Z" fill="white"/>
<path d="M145.91 168.086L109.27 181.422L108.633 182.332V224.768L109.932 225.678L146.572 212.342L147.209 211.432V168.996L145.91 168.086ZM145.269 170.376V210.751L110.568 223.385V183.006L145.269 170.376Z" fill="#CCCCCC"/>
<path d="M73.4954 169.191L109.601 182.333V224.769L73.4954 211.627V169.191Z" fill="#EFEEEA"/>
<path d="M73.8265 168.281L72.5271 169.191V211.627L73.1642 212.537L109.27 225.678L110.569 224.769V182.333L109.932 181.423L73.8265 168.281ZM74.4601 170.57L108.631 183.006V223.386L74.4601 210.946V170.57Z" fill="#CCCCCC"/>
<path d="M218.392 99.9141V142.35L255.032 129.014V86.5781L218.392 99.9141Z" fill="#FFD242"/>
<path d="M254.701 85.668L218.06 99.0039L217.423 99.9138V142.35L218.723 143.26L255.363 129.924L256 129.014V86.5778L254.701 85.668ZM254.061 87.9582V128.334L219.359 140.967V100.588L254.061 87.9582Z" fill="#CCCCCC"/>
<path d="M182.286 43.9141V86.3502L218.926 73.0142V30.5781L182.286 43.9141Z" fill="#353564"/>
<path d="M218.595 29.6719L181.954 43.0078L181.317 43.9177V86.3538L182.617 87.2636L219.257 73.9277L219.894 73.0178V30.5817L218.595 29.6719ZM217.957 31.9612V72.3369L183.252 84.9705V44.5949L217.957 31.9612Z" fill="#CCCCCC"/>
<path d="M182.286 43.9141L218.391 57.0555L255.032 43.7196L218.926 30.5781L182.286 43.9141Z" fill="#FFC91D"/>
<path d="M219.257 29.6719H218.595L181.955 43.0078V44.8275L218.06 57.969H218.723L255.363 44.633V42.8133L219.257 29.6719ZM218.926 31.6088L252.206 43.7196L218.391 56.0278L185.118 43.9171L218.926 31.6088Z" fill="#CCCCCC"/>
<path d="M218.392 57.0586V99.4947L255.032 86.1587V43.7227L218.392 57.0586Z" fill="#FFD242"/>
<path d="M254.701 42.8125L218.06 56.1484L217.423 57.0583V99.4944L218.723 100.404L255.363 87.0683L256 86.1584V43.7223L254.701 42.8125ZM254.061 45.1014V85.4809L219.359 98.1106V57.735L254.061 45.1014Z" fill="#CCCCCC"/>
<path d="M182.128 113.102V155.538L218.768 142.202V99.7656L182.128 113.102Z" fill="#FFD242"/>
<path d="M218.437 98.8555L181.797 112.191L181.16 113.101V155.537L182.459 156.447L219.099 143.111L219.737 142.201V99.7653L218.437 98.8555ZM217.798 101.146V141.522L183.093 154.152V113.776L217.798 101.146Z" fill="#CCCCCC"/>
<path d="M182.128 70.2422V112.678L218.768 99.3423V56.9062L182.128 70.2422Z" fill="#3775A9"/>
<path d="M218.437 56L181.797 69.3359L181.16 70.2458V112.682L182.459 113.592L219.099 100.256L219.737 99.3459V56.9098L218.437 56ZM217.798 58.2896V98.6653L183.093 111.299V70.9232L217.798 58.2896Z" fill="#CCCCCC"/>
<path d="M146.022 14.2461L182.128 27.3876L218.768 14.0516L182.663 0.910156L146.022 14.2461Z" fill="#2F6491"/>
<path d="M182.994 0H182.331L145.691 13.336V15.1557L181.797 28.2971H182.459L219.099 14.9612V13.1415L182.994 0ZM182.659 1.93626L215.932 14.0509L182.125 26.3553L148.852 14.2445L182.659 1.93626Z" fill="#CCCCCC"/>
<path d="M182.128 27.3867V69.8228L218.768 56.4869V14.0508L182.128 27.3867Z" fill="#3775A9"/>
<path d="M218.437 13.1406L181.797 26.4766L181.16 27.3864V69.8225L182.459 70.7324L219.099 57.3964L219.737 56.4866V14.0505L218.437 13.1406ZM217.798 15.4327V55.8084L183.093 68.4381V28.0624L217.798 15.4327Z" fill="#CCCCCC"/>
<path d="M109.759 155.582L145.865 168.724L182.505 155.388L146.399 142.246L109.759 155.582Z" fill="#AFAFDE"/>
<path d="M146.73 141.336H146.068L109.428 154.672V156.492L145.534 169.633H146.196L182.836 156.297V154.477L146.73 141.336ZM146.396 143.276L179.669 155.386L145.862 167.691L112.589 155.58L146.396 143.276Z" fill="#CCCCCC"/>
<path d="M145.865 126.289V168.725L182.505 155.389V112.953L145.865 126.289Z" fill="#FFD242"/>
<path d="M182.174 112.043L145.534 125.379L144.896 126.289V168.725L146.196 169.635L182.836 156.299L183.473 155.389V112.953L182.174 112.043ZM181.536 114.335V154.71L146.83 167.34V126.964L181.536 114.335Z" fill="#CCCCCC"/>
<path d="M145.865 83.4297V125.866L182.505 112.53V70.0938L145.865 83.4297Z" fill="#3775A9"/>
<path d="M182.174 69.1836L145.534 82.5195L144.896 83.4294V125.865L146.196 126.775L182.836 113.439L183.473 112.53V70.0934L182.174 69.1836ZM181.536 71.4739V111.85L146.83 124.479V84.1037L181.536 71.4739Z" fill="#CCCCCC"/>
<path d="M110.135 112.996L146.241 126.138V168.574L110.135 155.432V112.996Z" fill="#E9E9FF"/>
<path d="M110.467 112.086L109.167 112.996V155.432L109.804 156.342L145.91 169.483L147.21 168.573V126.137L146.572 125.227L110.467 112.086ZM111.102 114.375L145.269 126.811V167.191L111.102 154.751V114.375Z" fill="#CCCCCC"/>
<path d="M109.601 139.473V181.909L146.241 168.573V126.137L109.601 139.473Z" fill="#3775A9"/>
<path d="M145.91 125.23L109.27 138.566L108.633 139.476V181.912L109.932 182.822L146.572 169.486L147.209 168.576V126.14L145.91 125.23ZM145.269 127.519V167.899L110.568 180.528V140.153L145.269 127.519Z" fill="#CCCCCC"/>
<path d="M73.4954 126.332L109.601 139.473V181.91L73.4954 168.768V126.332Z" fill="#2F6491"/>
<path d="M73.8265 125.422L72.5271 126.332V168.768L73.1642 169.678L109.27 182.819L110.569 181.909V139.473L109.932 138.563L73.8265 125.422ZM74.4601 127.713L108.631 140.15V180.525L74.4601 168.089V127.713Z" fill="#CCCCCC"/>
<path d="M73.4954 83.4766L109.601 96.618L146.241 83.2821L110.136 70.1406L73.4954 83.4766Z" fill="#2F6491"/>
<path d="M110.467 69.2305H109.804L73.1641 82.5664V84.3861L109.27 97.5276H109.932L146.572 84.1916V82.3719L110.467 69.2305ZM110.134 71.1696L143.406 83.2803L109.599 95.5847L76.3268 83.474L110.134 71.1696Z" fill="#CCCCCC"/>
<path d="M109.601 96.6172V139.053L146.241 125.717V83.2812L109.601 96.6172Z" fill="#3775A9"/>
<path d="M145.91 82.3711L109.27 95.707L108.633 96.6169V139.053L109.932 139.963L146.572 126.627L147.209 125.717V83.2809L145.91 82.3711ZM145.269 84.6621V125.038L110.568 137.668V97.2919L145.269 84.6621Z" fill="#CCCCCC"/>
<path d="M73.4954 83.4766L109.601 96.618V139.054L73.4954 125.913V83.4766Z" fill="#2F6491"/>
<path d="M73.8265 82.5664L72.5271 83.4762V125.912L73.1642 126.822L109.27 139.964L110.569 139.054V96.6177L109.932 95.7079L73.8265 82.5664ZM74.4601 84.8566L108.631 97.2927V137.668L74.4601 125.232V84.8566Z" fill="#CCCCCC"/>
<path d="M109.759 27.4336V69.8697L146.399 56.5337V14.0977L109.759 27.4336Z" fill="#353564"/>
<path d="M146.068 13.1875L109.428 26.5235L108.791 27.4333V69.8694L110.09 70.7792L146.73 57.4433L147.367 56.5334V14.0973L146.068 13.1875ZM145.428 15.4769V55.8526L110.727 68.4862V28.1105L145.428 15.4769Z" fill="#CCCCCC"/>
<path d="M109.759 27.4336L145.865 40.5751L182.505 27.2391L146.399 14.0977L109.759 27.4336Z" fill="#2F6491"/>
<path d="M146.73 13.1875H146.068L109.428 26.5235V28.3432L145.534 41.4846H146.196L182.836 28.1487V26.329L146.73 13.1875ZM146.4 15.1245L179.669 27.2352L145.862 39.5435L112.589 27.4328L146.4 15.1245Z" fill="#CCCCCC"/>
<path d="M145.865 40.5742V83.0103L182.505 69.6744V27.2383L145.865 40.5742Z" fill="#3775A9"/>
<path d="M182.174 26.3281L145.534 39.6641L144.896 40.5739V83.01L146.196 83.9199L182.836 70.5839L183.473 69.6741V27.238L182.174 26.3281ZM181.536 28.6171V68.9966L146.83 81.6263V41.2507L181.536 28.6171Z" fill="#CCCCCC"/>
<path d="M109.759 27.4336L145.865 40.5751V83.0111L109.759 69.8697V27.4336Z" fill="#2F6491"/>
<path d="M110.09 26.5234L108.791 27.4333V69.8694L109.428 70.7792L145.534 83.9207L146.833 83.0108V40.5747L146.196 39.6649L110.09 26.5234ZM110.727 28.8154L144.894 41.2515V81.6271L110.727 69.191V28.8154Z" fill="#CCCCCC"/>
<path d="M205.091 173.792C208.977 173.792 212.128 171.586 212.128 168.865C212.128 166.144 208.977 163.938 205.091 163.938C201.204 163.938 198.054 166.144 198.054 168.865C198.054 171.586 201.204 173.792 205.091 173.792Z" fill="white"/>
<path d="M159.543 61.6945C163.429 61.6945 166.579 59.4884 166.579 56.7672C166.579 54.0459 163.429 51.8398 159.543 51.8398C155.656 51.8398 152.506 54.0459 152.506 56.7672C152.506 59.4884 155.656 61.6945 159.543 61.6945Z" fill="white"/>
</g>
<defs>
<clipPath id="clip0_1_9075">
<rect width="256" height="226" fill="white"/>
</clipPath>
</defs>
</svg>
