<svg width="512" height="173" viewBox="0 0 512 173" fill="none" xmlns="http://www.w3.org/2000/svg">
<g clip-path="url(#clip0_1_9149)">
<path d="M170.139 16.1474C183.109 3.1815 204.392 -5.77125 221.577 4.39648C225.353 6.63097 228.877 9.46029 231.819 12.7183C240.894 22.7652 243.672 36.7583 243.734 49.9115C243.859 76.1329 234.379 106.004 209.179 118.693C199.544 123.544 188.781 125.285 178.053 124.815C172.011 124.55 165.935 123.325 159.891 123.247L159.324 123.243V169.668H139.277V3.22212H159.324V29.8641H159.588C161.779 24.7863 166.275 20.01 170.139 16.1474ZM171.57 36.4586C169.864 38.434 168.269 40.4811 166.708 42.5703L165.675 43.9559C163.428 46.9566 160.797 50.447 159.58 53.8682C158.669 56.4269 159.324 60.1372 159.324 62.8368V105.306L160.169 105.479C173.973 108.287 187.892 110.036 200.474 102.025C217.753 91.0234 223.185 69.4442 221.864 50.1752L221.824 49.6164C221.146 40.4867 219.146 31.2677 212.34 24.5987C198.902 11.4321 181.027 25.5114 171.57 36.4586ZM261.671 3.22212C262.523 6.18307 264.267 8.87522 265.546 11.6631C268.68 18.4895 272.048 25.212 275.319 31.9743C284.533 51.0183 293.729 70.0855 302.763 89.2149C305.57 95.1578 308.481 101.052 311.314 106.982L312.523 109.526C313.763 112.152 316.174 115.333 316.577 118.231C316.773 119.628 315.644 121.346 315.11 122.627L315.074 122.715C313.496 126.652 311.65 130.416 309.469 134.058L308.608 135.497C306.648 138.77 304.596 142.089 302.006 144.873L301.614 145.293C299.581 147.46 297.418 149.589 294.908 151.189C283.861 158.236 271.582 156.597 259.561 153.841V171.515L260.403 171.622C274.166 173.364 288.104 174.186 300.975 167.751C314.082 161.197 321.974 148.239 328.477 135.64C340.359 112.617 349.264 87.9334 359.255 64.0314L359.645 63.1005C365.137 50.0157 370.51 36.8817 376 23.7971C377.806 19.4932 379.561 15.1659 381.389 10.8718C382.425 8.43867 383.879 5.8362 384.33 3.22212H370.086C368.653 3.22212 365.889 2.6943 364.649 3.49329C363.161 4.45319 362.512 7.97309 361.834 9.55288C359.471 15.0485 357.329 20.6415 355.047 26.1711C348.743 41.4507 342.449 56.7392 336.269 72.0691C333.549 78.8111 329.558 85.8398 327.88 92.9079H327.353L323.462 84.7306L316.606 70.7502L295.238 26.9625L286.928 10.0804L283.396 3.49329L277.498 3.22212H261.671ZM0 64.6832C2.39809 66.6703 5.91828 67.8394 8.70479 69.2327L80.4534 105.107C87.6251 108.693 94.7523 112.357 101.914 115.963L104.985 117.505C108.532 119.278 112.682 122.282 116.591 122.979V110.054L116.32 104.881L110.261 101.547L94.9614 93.8978L54.6028 73.5866L36.9294 64.6832L54.6028 55.9133L94.6976 35.9962L110.261 28.2162L116.32 24.948L116.591 19.8404V6.65128C112.513 7.37826 108.159 10.5389 104.457 12.3893L26.3782 51.429C17.6293 55.8035 8.44607 59.7537 0 64.6832ZM395.672 6.65128V19.5766C395.672 20.9591 395.176 23.5486 395.944 24.7493C396.902 26.2497 400.178 27.1722 401.739 27.9524L416.775 35.4686C430.067 42.1146 443.311 48.8685 456.606 55.516C462.525 58.4751 468.706 62.8494 475.071 64.6832V65.2108C468.236 67.1799 461.391 71.7222 455.023 74.9055L416.511 94.1616C411.876 96.4792 407.287 99.0284 402.531 101.085L402.347 101.163C400.542 101.913 396.946 103.048 395.944 104.617C395.176 105.818 395.672 108.407 395.672 109.79V122.979L410.18 115.922L487.205 77.4099L512 64.947C509.346 62.2665 504.295 60.7653 500.921 59.0787L404.905 11.0704C401.94 9.58743 398.861 7.57003 395.672 6.65128Z" fill="#FDA703"/>
</g>
<defs>
<clipPath id="clip0_1_9149">
<rect width="512" height="173" fill="white"/>
</clipPath>
</defs>
</svg>
