<svg width="256" height="255" viewBox="0 0 256 255" fill="none" xmlns="http://www.w3.org/2000/svg">
<g clip-path="url(#clip0_1_9152)">
<path d="M126.916 0.0742188C62.0836 0.0742234 66.1321 28.1894 66.1321 28.1894L66.2044 57.3165H128.072V66.0618H41.6307C41.6307 66.0618 0.144531 61.3569 0.144531 126.773C0.144527 192.19 36.3546 189.87 36.3546 189.87H57.965V159.514C57.965 159.514 56.8001 123.304 93.5968 123.304H154.959C154.959 123.304 189.434 123.861 189.434 89.985V33.9715C189.434 33.9715 194.669 0.0742188 126.916 0.0742188ZM92.8018 19.6609C98.9572 19.6609 103.932 24.6359 103.932 30.7913C103.932 36.9467 98.9572 41.9218 92.8018 41.9218C86.6464 41.9218 81.6713 36.9467 81.6713 30.7913C81.6713 24.6359 86.6464 19.6609 92.8018 19.6609Z" fill="url(#paint0_linear_1_9152)"/>
<path d="M128.757 254.13C193.589 254.13 189.541 226.015 189.541 226.015L189.469 196.888H127.601V188.142H214.042C214.042 188.142 255.528 192.847 255.528 127.431C255.528 62.0146 219.318 64.3344 219.318 64.3344H197.708V94.6901C197.708 94.6901 198.873 130.9 162.076 130.9H100.714C100.714 130.9 66.2388 130.343 66.2388 164.219V220.233C66.2388 220.233 61.0044 254.13 128.757 254.13ZM162.871 234.543C156.716 234.543 151.741 229.568 151.741 223.413C151.741 217.258 156.716 212.282 162.871 212.282C169.027 212.282 174.002 217.258 174.002 223.413C174.002 229.568 169.027 234.543 162.871 234.543Z" fill="url(#paint1_linear_1_9152)"/>
</g>
<defs>
<linearGradient id="paint0_linear_1_9152" x1="2454.43" y1="2285.22" x2="15110.3" y2="14814.9" gradientUnits="userSpaceOnUse">
<stop stop-color="#387EB8"/>
<stop offset="1" stop-color="#366994"/>
</linearGradient>
<linearGradient id="paint1_linear_1_9152" x1="3688.58" y1="3970.37" x2="17279.7" y2="16818.4" gradientUnits="userSpaceOnUse">
<stop stop-color="#FFE052"/>
<stop offset="1" stop-color="#FFC331"/>
</linearGradient>
<clipPath id="clip0_1_9152">
<rect width="256" height="255" fill="white"/>
</clipPath>
</defs>
</svg>
