<svg width="512" height="127" viewBox="0 0 512 127" fill="none" xmlns="http://www.w3.org/2000/svg">
<g clip-path="url(#clip0_1_9159)">
<path d="M38.4552 1.67969V15.2336L17.6297 36.0582C6.73056 47.1125 6.73167 64.8948 17.6331 76.1496L17.9668 76.4886C29.104 87.8361 47.386 87.8361 58.7334 76.4886C69.9674 65.4627 70.0797 47.4343 59.0704 36.0645L58.7334 35.722L65.668 28.7874C80.7979 43.9173 80.7979 68.1882 65.668 83.4232C50.8533 98.5531 26.4773 98.5531 11.3474 83.4232C-3.63118 68.4446 -3.78096 44.4039 10.8981 29.2441L11.3474 28.7874L38.4552 1.67969ZM52.1141 17.0197C54.8994 17.0197 57.1574 19.2777 57.1574 22.063C57.1574 24.8484 54.8994 27.1063 52.1141 27.1063C49.3288 27.1063 47.0708 24.8484 47.0708 22.063C47.0708 19.2777 49.3288 17.0197 52.1141 17.0197Z" fill="#EE4C2C"/>
<path d="M135.749 63.4615H124.086V93.4061H115.26V8.19536H136.694C158.85 8.19536 169.576 19.008 169.788 34.2107L169.791 34.6727C170.106 53.6901 156.868 63.4615 135.749 63.4615ZM137.17 16.708L124.401 16.7059V55.8966L136.379 55.5814C137.344 55.5625 138.282 55.522 139.194 55.4597L140.097 55.3902L140.983 55.3062L141.851 55.2075C154.446 53.6533 161.281 47.3734 161.281 35.7234C161.281 23.4505 152.632 16.8402 137.17 16.708ZM185.972 31.2054L205.514 82.6891L224.742 31.2054H233.568L209.297 93.0909L204.254 106.645L203.871 107.649L203.487 108.62L203.101 109.561L202.714 110.47L202.326 111.348C202.196 111.635 202.066 111.918 201.936 112.196L201.544 113.014C200.758 114.62 199.961 116.05 199.145 117.318L198.736 117.939C195.041 123.406 190.974 125.658 186.043 126.103L185.491 126.145C185.029 126.174 184.559 126.188 184.08 126.188C179.92 126.188 176.735 125.211 173.453 123.903L172.555 123.538C172.405 123.476 172.254 123.414 172.103 123.351L174.624 115.471C177.461 117.047 180.613 118.307 184.08 118.307L184.266 118.306L184.635 118.295C184.696 118.292 184.756 118.289 184.817 118.285L185.178 118.257C185.896 118.187 186.587 118.041 187.261 117.791L187.597 117.657C187.82 117.562 188.042 117.455 188.262 117.335L188.591 117.144C189.139 116.811 189.679 116.392 190.219 115.873L190.542 115.549C191.405 114.654 192.268 113.492 193.154 112.001L193.487 111.426C193.599 111.229 193.711 111.027 193.823 110.819L194.162 110.18L194.504 109.508C194.561 109.393 194.618 109.277 194.676 109.159L195.023 108.436L195.373 107.677C195.491 107.418 195.609 107.153 195.728 106.882L196.086 106.051C196.147 105.91 196.207 105.766 196.267 105.622L196.633 104.734L197.004 103.808L201.102 92.7757L176.831 31.2054H185.972ZM317.938 29.4192C335.59 29.4192 347.883 42.3427 347.883 62.2007C347.567 82.0587 334.329 95.2974 316.992 95.2974C299.656 95.2974 287.048 82.3739 287.048 62.5159C287.048 42.6579 300.286 29.4192 317.938 29.4192ZM292.091 8.51057V16.7059H262.357V93.7213H253.531V16.7059H223.586V8.51057H292.091ZM317.308 37.2994C304.069 37.2994 295.558 47.7012 295.558 62.5159C295.558 77.6458 304.384 88.0476 317.623 88.0476C330.862 88.0476 339.372 77.6458 339.372 62.8311C339.372 47.386 330.546 37.2994 317.308 37.2994ZM369.001 93.7213H360.491V31.2054L369.001 29.3142V42.5528C373.099 34.6727 379.088 29.3142 387.283 29.3142C391.381 29.3142 395.164 30.575 398.316 32.151L396.109 40.0312C393.272 38.4552 390.12 37.1943 386.653 37.1943C380.034 37.1943 374.045 42.2376 369.001 53.2699V93.7213ZM431.517 95.2974C412.605 95.2974 400.942 81.7435 400.942 62.5159C400.942 42.9731 413.866 29.4192 431.517 29.4192C439.082 29.4192 445.702 31.3105 451.06 34.7778L448.854 42.3427C444.126 39.1906 438.137 37.2994 431.517 37.2994C417.964 37.2994 409.768 47.386 409.768 62.2007C409.768 77.3306 418.594 87.4172 431.833 87.4172C438.137 87.4172 444.441 85.526 449.169 82.3739L451.06 90.2541C445.386 93.4061 438.767 95.2974 431.517 95.2974ZM503.174 93.8264V53.2699C503.174 42.2376 498.761 37.5095 489.936 37.5095C482.686 37.5095 475.751 41.292 470.708 46.3353V93.7213H462.197V1.89124L470.708 0V39.5058C477.327 32.8865 485.523 29.7345 492.457 29.7345C504.435 29.7345 512 37.6146 512 51.1685V93.8264H503.174Z" fill="black"/>
</g>
<defs>
<clipPath id="clip0_1_9159">
<rect width="512" height="127" fill="white"/>
</clipPath>
</defs>
</svg>
