<svg width="256" height="296" viewBox="0 0 256 296" fill="none" xmlns="http://www.w3.org/2000/svg">
<g clip-path="url(#clip0_1_9163)">
<path d="M91.2648 126.159V126.167L91.5958 126.471L128.228 147.737L165.01 126.097L165.248 125.829V125.824L128.053 105.219L91.2648 126.159ZM204.753 102.902L205.256 102.888L255.67 73.6304L256 73.1614L204.753 43.8334V102.902ZM128.157 0L0.000305176 74.038L0.425305 74.782L51.1353 103.747L51.8153 103.634L128.258 59.843L165.224 81.937V21.212L128.157 0Z" fill="#4F859A"/>
<path d="M0 220.735L51.81 251.124V103.637L51.815 103.634L0 74.0391V220.735ZM91.6488 274.491L128.257 295.963L128.743 294.753V235.398L128.257 234.336L91.6488 215.242V274.491ZM91.2648 126.167V169.049L128.241 190.116L128.257 190.107L128.405 189.769L128.394 147.536L128.257 147.296L91.2648 126.167Z" fill="#2E6371"/>
<path d="M204.753 102.901V191.909L128.258 234.334V295.962L256 220.733V73.1602L204.753 102.901ZM165.247 125.828L128.256 147.295V190.106L165.247 168.937V125.828Z" fill="#1BAFCE"/>
</g>
<defs>
<clipPath id="clip0_1_9163">
<rect width="256" height="296" fill="white"/>
</clipPath>
</defs>
</svg>
