<svg width="256" height="295" viewBox="0 0 256 295" fill="none" xmlns="http://www.w3.org/2000/svg">
<g clip-path="url(#clip0_1_9168)">
<path d="M49.068 101.516C49.1042 131.989 49.1471 162.462 49.1059 192.934C75.462 208.16 101.798 223.419 128.128 238.692C154.456 223.468 180.784 208.244 207.112 193.02C207.076 162.547 207.033 132.073 207.074 101.6C180.717 86.3778 154.382 71.1157 128.052 55.8438C101.724 71.0679 75.3961 86.2921 49.068 101.516Z" fill="#B7A634"/>
<path d="M128.413 78.9868L128.367 78.962L128.059 78.7891C108.324 90.2191 88.5674 101.613 68.8045 112.994C68.7996 135.832 68.7963 158.673 68.793 181.512C88.5806 192.905 108.363 204.311 128.125 215.749C133.159 212.782 182.32 184.452 187.381 181.545C187.387 158.706 187.395 135.865 187.402 113.027C167.72 101.715 148.052 90.3674 128.413 78.9868Z" fill="#F9DF34"/>
<path d="M92.5873 126.979L94.2397 129.842L91.1063 131.651L95.561 139.364C95.9778 140.089 96.3765 140.501 96.7571 140.603C97.1376 140.705 97.6895 140.547 98.4128 140.129C98.6533 139.99 98.8773 139.847 99.0882 139.699C99.2974 139.552 99.4902 139.399 99.6681 139.244L101.582 142.559C101.255 142.827 100.876 143.099 100.446 143.374C100.016 143.649 99.589 143.91 99.1673 144.152C98.505 144.536 97.851 144.852 97.2068 145.104C96.561 145.356 95.9383 145.481 95.3353 145.481C94.7323 145.481 94.1607 145.315 93.6219 144.984C93.0816 144.653 92.5857 144.096 92.1343 143.312L86.8278 134.121L84.2364 135.618L82.5823 132.755L85.1754 131.259L82.4785 126.588L86.757 124.117L89.4539 128.788L92.5873 126.979Z" fill="#524739"/>
<path d="M95.187 117.566L99.8658 125.672L99.9564 125.619C99.9778 124.403 100.291 123.344 100.897 122.446C101.503 121.547 102.207 120.865 103.011 120.402C104.156 119.739 105.184 119.354 106.098 119.242C107.011 119.13 107.838 119.229 108.579 119.537C109.321 119.846 110.004 120.347 110.634 121.043C111.261 121.738 111.854 122.568 112.411 123.532L117.943 133.113L113.665 135.585L108.586 126.786C107.843 125.501 107.088 124.657 106.321 124.257C105.553 123.855 104.658 123.95 103.633 124.542C102.469 125.214 101.825 126.048 101.703 127.043C101.581 128.038 101.978 129.328 102.894 130.916L107.609 139.082L103.329 141.552L90.9069 120.036L95.187 117.566Z" fill="#524739"/>
<path d="M122.115 125.726C123.116 125.978 124.22 125.755 125.426 125.058C126.289 124.561 126.909 123.915 127.281 123.123C127.655 122.332 127.774 121.655 127.635 121.091L131.401 118.917C131.878 121.132 131.726 123.002 130.943 124.525C130.163 126.048 128.887 127.319 127.12 128.34C125.894 129.047 124.675 129.49 123.466 129.666C122.255 129.843 121.1 129.767 119.999 129.437C118.899 129.109 117.872 128.549 116.92 127.76C115.97 126.969 115.146 125.973 114.449 124.767C113.777 123.602 113.342 122.408 113.143 121.182C112.945 119.958 112.986 118.775 113.266 117.637C113.545 116.496 114.05 115.436 114.782 114.45C115.512 113.467 116.469 112.632 117.655 111.948C118.981 111.182 120.284 110.772 121.564 110.716C122.844 110.66 124.05 110.88 125.181 111.379C126.314 111.877 127.339 112.599 128.258 113.541C129.177 114.483 129.943 115.58 130.56 116.831L119.321 123.32C120.181 124.673 121.111 125.473 122.115 125.726ZM122.218 114.737C121.382 114.47 120.441 114.638 119.396 115.241C118.713 115.635 118.212 116.08 117.894 116.571C117.576 117.063 117.378 117.557 117.304 118.055C117.232 118.554 117.248 119.025 117.358 119.472C117.469 119.917 117.601 120.296 117.754 120.609L124.714 116.59C123.887 115.622 123.055 115.004 122.218 114.737Z" fill="#524739"/>
<path d="M130.555 105.06L131.807 107.231L131.897 107.178C131.919 105.961 132.242 104.897 132.868 103.986C133.494 103.076 134.258 102.36 135.163 101.837C136.308 101.177 137.337 100.789 138.25 100.677C139.163 100.565 139.99 100.664 140.731 100.974C141.472 101.282 142.156 101.785 142.785 102.48C143.413 103.175 144.006 104.004 144.563 104.967L150.095 114.551L145.817 117.02L140.738 108.223C139.995 106.936 139.24 106.093 138.472 105.692C137.706 105.292 136.81 105.386 135.785 105.977C134.621 106.651 133.976 107.485 133.855 108.478C133.733 109.473 134.13 110.765 135.046 112.351L139.761 120.518L135.481 122.989L126.487 107.409L130.555 105.06Z" fill="#524739"/>
<path d="M189.056 109.456C169.331 98.1031 149.675 86.7455 130.632 75.6943C130.612 75.6844 130.548 75.6465 130.528 75.6366L130.224 75.4653C128.856 74.6976 127.189 74.7108 125.833 75.4982C106.288 86.8344 86.7191 98.1376 67.1439 109.424C65.7716 110.215 64.9264 111.678 64.9264 113.263L64.9149 181.239C64.9149 182.822 65.7617 184.287 67.1324 185.077C86.7322 196.381 106.327 207.694 125.901 219.04C126.588 219.44 127.355 219.638 128.123 219.638C128.902 219.638 129.682 219.434 130.377 219.023C133.293 217.302 136.225 215.608 139.159 213.916C141.235 212.72 143.311 211.523 145.382 210.315C147.489 209.084 173.002 194.374 174.016 193.783C179.018 190.89 184.021 187.997 189.031 185.115C190.405 184.323 191.254 182.86 191.254 181.275L191.277 113.298C191.277 111.711 190.43 110.246 189.056 109.456ZM182.392 178.71C179.4 180.433 130.313 208.789 128.108 210.076C110.011 199.588 91.897 189.129 73.7783 178.679L73.7881 115.825C91.8904 105.385 109.986 94.9333 128.062 84.4505C145.81 94.7455 164.074 105.299 182.413 115.859L182.392 178.71Z" fill="#524839"/>
<path d="M4.89453 76.0431C4.95219 123.48 5.01974 170.919 4.95384 218.357C46.0432 242.058 87.1012 265.813 128.149 289.587C169.194 265.888 210.239 242.188 251.286 218.489C251.228 171.051 251.16 123.614 251.226 76.1749C210.135 52.4779 169.079 28.7182 128.031 4.94531C86.9859 28.644 45.941 52.3444 4.89453 76.0431ZM128.517 56.2917C154.683 71.4533 180.888 86.5721 207.112 101.643L207.082 192.934C200.339 196.805 193.606 200.695 186.875 204.585C173.375 181.232 159.894 157.868 146.413 134.503C133.569 141.907 120.726 149.311 107.882 156.714C121.362 180.079 134.845 203.443 148.342 226.797C141.616 230.717 134.841 234.554 128.135 238.506C101.805 223.265 75.4487 208.071 49.0827 192.889L49.0976 101.599C75.4306 86.437 101.752 71.2556 128.046 56.0265L128.457 56.2571L128.517 56.2917Z" fill="#F9DF34"/>
<path d="M128.149 294.16C127.357 294.16 126.566 293.954 125.858 293.544C76.1506 264.753 38.1585 242.787 2.66886 222.319C1.25205 221.501 0.378892 219.988 0.382187 218.351C0.443143 174.365 0.388777 129.638 0.336058 86.384L0.322878 76.0495C0.321231 74.4152 1.19274 72.9028 2.60955 72.0857L125.746 0.986209C127.163 0.170715 128.906 0.170716 130.322 0.989504C166.922 22.1874 210.18 47.2255 253.511 72.2175C254.928 73.0346 255.801 74.547 255.8 76.1829C255.737 119.926 255.791 164.403 255.842 207.416L255.857 218.486C255.859 220.122 254.986 221.634 253.571 222.451L130.434 293.547C129.728 293.956 128.939 294.16 128.149 294.16ZM9.52889 215.72C43.8224 235.502 80.6185 256.778 128.153 284.307L246.709 215.855L246.699 207.428C246.65 165.276 246.597 121.717 246.651 78.8156C204.982 54.7808 163.487 30.7641 128.027 10.2268L9.46958 78.6821L9.47947 86.3741C9.53054 128.767 9.5849 172.574 9.52889 215.72ZM128.135 243.079C127.344 243.079 126.553 242.873 125.845 242.463C99.5182 227.224 73.1637 212.033 46.8011 196.855C45.3842 196.037 44.5111 194.527 44.5111 192.891L44.5259 101.598C44.5259 99.964 45.4007 98.4533 46.8159 97.6378C77.6613 79.8798 102.744 65.4003 125.754 52.0707C127.158 51.2601 128.881 51.2519 130.291 52.0443L130.701 52.2766C130.718 52.2848 130.794 52.3277 130.808 52.3376C156.318 67.1169 182.756 82.3724 209.391 97.6806C210.809 98.4961 211.684 100.008 211.684 101.646L211.656 192.937C211.654 194.573 210.778 196.085 209.359 196.899C202.62 200.771 195.89 204.657 189.161 208.543C186.974 209.81 184.18 209.059 182.916 206.874C170.179 184.838 157.458 162.795 144.736 140.747L114.128 158.393C126.845 180.436 139.566 202.477 152.299 224.51C153.561 226.69 152.82 229.479 150.644 230.748C147.85 232.375 145.047 233.99 142.245 235.604C138.306 237.871 134.369 240.138 130.456 242.445C129.741 242.866 128.937 243.079 128.135 243.079ZM53.6545 190.248C78.49 204.55 103.314 218.861 128.118 233.216C131.298 231.357 134.49 229.519 137.682 227.68C139.154 226.832 140.627 225.983 142.1 225.133C129.364 203.095 116.642 181.049 103.922 159.001C103.316 157.95 103.152 156.703 103.467 155.531C103.782 154.36 104.548 153.362 105.599 152.755L144.13 130.544C146.316 129.282 149.112 130.033 150.372 132.22C163.092 154.264 175.812 176.306 188.545 198.341C193.199 195.654 197.853 192.966 202.512 190.288L202.539 104.289C177.306 89.7827 152.27 75.3361 128.052 61.3063C106.233 73.9424 82.4669 87.6608 53.6693 104.242L53.6545 190.248Z" fill="#524839"/>
</g>
<defs>
<clipPath id="clip0_1_9168">
<rect width="256" height="295" fill="white"/>
</clipPath>
</defs>
</svg>
