<svg width="512" height="151" viewBox="0 0 512 151" fill="none" xmlns="http://www.w3.org/2000/svg">
<g clip-path="url(#clip0_1_9179)">
<path d="M299.948 79.7556C297.684 76.0602 300.667 72.9601 300.667 72.9601L326.892 45.8983C329.872 42.7981 325.581 42.7981 325.581 42.7981H301.142C296.851 42.7981 293.871 45.8983 293.871 45.8983L269.669 71.6491C266.689 74.7493 266.689 70.4552 266.689 70.4552V14.1845C266.689 9.89383 262.398 9.89383 262.398 9.89383H243.918C239.744 9.89383 239.744 14.0675 239.744 14.0675V131.732C239.744 136.026 244.038 136.026 244.038 136.026H262.398C266.568 136.026 266.568 131.853 266.568 131.853V111.229C266.568 106.938 269.669 103.955 269.669 103.955L278.37 95.8483L300.068 132.331C302.215 136.026 306.506 136.026 306.506 136.026H329.755C334.046 136.026 331.782 132.331 331.782 132.331L299.948 79.7556ZM220.434 131.732V46.9718C220.434 42.6777 216.144 42.6777 216.144 42.6777H197.546C193.255 42.6777 193.255 46.9718 193.255 46.9718V131.732C193.255 136.026 197.546 136.026 197.546 136.026H216.144C220.434 136.026 220.434 131.732 220.434 131.732ZM219.719 26.1069V13.9471C219.719 13.9471 219.719 9.77344 215.545 9.77344H197.422C197.422 9.77344 193.252 9.77344 193.252 13.9471V26.1069C193.252 26.1069 193.252 30.2805 197.422 30.2805H215.662C215.662 30.2805 219.719 30.2805 219.719 26.1069ZM173.34 131.732V14.3049C173.34 10.0142 169.05 10.0142 169.05 10.0142H150.094C145.804 10.0142 145.804 14.3049 145.804 14.3049V131.732C145.804 136.026 150.094 136.026 150.094 136.026H169.05C173.34 136.026 173.34 131.732 173.34 131.732ZM130.781 126.729C130.781 126.729 133.166 123.987 130.423 121.603L115.284 108.369C122.079 98.2361 126.133 86.1967 126.133 73.0805C126.133 38.27 97.8768 10.0176 63.0663 10.0176C28.2524 10.0142 0 38.2666 0 73.0771C0 107.891 28.2557 136.143 63.0663 136.143C75.8213 136.143 87.6232 132.331 97.6393 125.773L114.327 140.197C114.327 140.197 117.07 142.581 119.454 139.839L130.781 126.729ZM99.4285 72.9634C99.4285 93.1093 83.0951 109.443 62.9459 109.443C42.8 109.443 26.4666 93.1093 26.4666 72.9634C26.4666 52.8142 42.8 36.4841 62.9459 36.4841C83.0951 36.6012 99.4285 52.8142 99.4285 72.9634Z" fill="#54565B"/>
<path d="M510.369 128.039L490.103 110.993C497.136 99.7863 501.306 86.5531 501.306 72.3667C501.306 32.4261 468.88 0 428.943 0C389.006 0 356.58 32.4261 356.58 72.3667C356.58 112.304 389.006 144.73 428.943 144.73C444.44 144.73 458.867 139.841 470.669 131.497L492.247 149.619C492.247 149.619 495.467 152.362 498.209 149.141L511.085 133.881C510.964 133.881 513.586 130.664 510.369 128.039ZM473.412 72.3667C473.412 96.9237 453.503 116.832 428.943 116.832C404.386 116.832 384.474 96.9237 384.474 72.3667C384.474 47.8064 404.386 27.8979 428.943 27.8979C453.503 27.8979 473.412 47.8064 473.412 72.3667Z" fill="#009848"/>
<path d="M400.329 72.3682C400.329 56.6318 413.086 43.875 428.822 43.875C444.559 43.875 457.316 56.6318 457.316 72.3682C457.316 88.1045 444.559 100.861 428.822 100.861C413.086 100.861 400.329 88.1045 400.329 72.3682Z" fill="#54565B"/>
</g>
<defs>
<clipPath id="clip0_1_9179">
<rect width="512" height="151" fill="white"/>
</clipPath>
</defs>
</svg>
