<svg width="512" height="95" viewBox="0 0 512 95" fill="none" xmlns="http://www.w3.org/2000/svg">
<g clip-path="url(#clip0_1_9188)">
<path d="M138.191 26.9848C139.563 26.9848 140.739 28.0956 140.739 29.533V78.2102C140.739 79.5823 139.498 80.6931 138.191 80.6931H131.592C130.35 80.6931 129.109 79.713 129.109 78.3409V73.8326C125.777 78.7329 120.027 82.1306 111.664 82.1306C97.6811 82.1306 89.0564 72.8525 89.0564 59.066V29.4023C89.0564 28.0302 90.2979 26.9195 91.6046 26.9195H98.2038C99.5759 26.9195 100.687 28.0302 100.687 29.4023V57.1712C100.687 66.1226 105.391 72.0684 114.669 72.0684C123.751 72.0684 129.109 65.9266 129.109 57.3019V29.4023C129.109 28.0302 130.35 26.9195 131.592 26.9195H138.191M40.8366 0C18.2295 0 0 17.5761 0 41.0326C0 64.5545 18.2295 82.0652 40.8366 82.0652C44.6916 82.0652 48.4159 81.5425 51.9441 80.5624L56.3872 91.9967C56.8445 93.2381 57.7593 94.0222 59.3927 94.0222H66.4493C68.1481 94.0222 69.3895 92.9114 68.6055 90.7552L62.8557 75.7927C74.1592 68.6708 81.6732 56.0605 81.6732 40.9673C81.6732 17.5761 63.4437 0 40.8366 0ZM58.6087 64.8812L53.4469 51.4868C52.9896 50.376 52.0748 49.3306 50.1147 49.3306H43.3848C41.686 49.3306 40.3792 50.4414 41.1633 52.5975L47.9585 70.1736C45.737 70.7616 43.3195 71.023 40.8366 71.023C24.3059 71.023 12.545 58.0206 12.545 41.0326C12.545 24.0446 24.3059 11.0422 40.8366 11.0422C57.3672 11.0422 69.1282 24.0446 69.1282 41.0326C69.1282 50.9641 65.1425 59.4581 58.6087 64.8812ZM511.797 77.9489C512.385 79.321 511.666 80.6278 510.033 80.6278H502.649C501.277 80.6278 500.167 79.9744 499.709 78.6023L486.053 41.882L472.202 78.6023C471.614 80.0397 470.634 80.6278 469.261 80.6278H462.662C461.29 80.6278 460.31 80.0397 459.722 78.6023L445.74 41.686L431.953 78.6023C431.365 79.9744 430.385 80.6278 429.013 80.6278H422.087C420.715 80.6278 419.735 79.9744 419.147 78.6023L405.491 41.686L391.378 78.6023C390.79 80.0397 389.81 80.6278 388.438 80.6278H381.838C380.466 80.6278 379.486 80.0397 378.898 78.6023L365.112 41.686L351.325 78.6023C350.868 79.9744 349.757 80.6278 348.385 80.6278H341.198C339.499 80.6278 338.846 79.2557 339.434 77.9489L358.121 29.0757C358.709 27.6382 359.689 26.9195 361.061 26.9195H369.097C370.47 26.9195 371.45 27.5729 372.038 29.0757L385.497 64.7505L398.826 29.0757C399.415 27.6382 400.395 26.9195 401.767 26.9195H409.673C411.045 26.9195 412.025 27.5729 412.613 29.0757L425.811 64.7505L439.01 29.0757C439.598 27.6382 440.578 26.9195 441.95 26.9195H449.921C451.293 26.9195 452.273 27.5729 452.861 29.0757L466.256 64.7505L479.324 29.0757C479.912 27.6382 480.892 26.9195 482.264 26.9195H490.3C491.673 26.9195 492.653 27.5729 493.241 29.0757L511.797 77.9489ZM202.157 26.9848H195.558C194.186 26.9848 193.01 28.0956 193.01 29.533V33.976C189.678 28.945 183.144 25.3514 175.434 25.3514C160.863 25.3514 148.384 36.8509 148.384 53.6429C148.384 70.631 160.929 82.0652 175.369 82.0652C183.209 82.0652 189.547 78.4716 193.075 73.4405V78.1449C193.075 79.517 194.317 80.6278 195.624 80.6278H202.223C203.595 80.6278 204.706 79.517 204.706 78.1449V29.533C204.64 28.0956 203.53 26.9848 202.157 26.9848ZM176.675 71.3497C167.071 71.3497 160.21 63.5091 160.21 53.7736C160.21 43.9075 167.005 36.3282 176.675 36.3282C186.215 36.3282 193.141 43.9075 193.141 53.7736C193.075 63.5744 186.15 71.3497 176.675 71.3497ZM280.89 73.0485C282.328 74.8126 281.086 76.1847 280.302 76.7728C275.729 80.2357 269.652 82.1306 263.053 82.1306C246.392 82.1306 235.284 69.9122 235.284 53.839C235.284 37.7657 246.392 25.4167 263.053 25.4167C269.652 25.4167 275.663 27.3115 280.302 30.7745C281.086 31.3625 282.197 32.5386 280.89 34.4988L277.754 38.8764C276.513 40.5752 275.075 40.1179 273.834 39.3338C270.894 37.5697 267.431 36.0669 263.445 36.0669C253.71 36.0669 247.241 43.9075 247.241 53.839C247.241 63.7704 253.71 71.5457 263.445 71.5457C267.496 71.5457 270.698 69.9776 273.638 68.2788C274.879 67.6254 276.186 67.0374 277.558 68.8668L280.89 73.0485ZM311.992 25.482C296.31 25.482 283.831 37.7657 283.831 53.7736C283.831 69.9122 296.376 82.0652 311.992 82.0652C327.673 82.0652 340.153 69.8469 340.153 53.7736C340.218 37.831 327.673 25.482 311.992 25.482ZM311.992 71.2844C302.387 71.2844 295.526 63.5744 295.526 53.839C295.526 43.9728 302.321 36.3936 311.992 36.3936C321.596 36.3936 328.457 43.9728 328.457 53.839C328.457 63.5744 321.662 71.2844 311.992 71.2844ZM225.287 1.43745C226.725 1.43745 227.77 2.67888 227.77 3.98565V78.0796C227.77 79.4517 226.79 80.6278 225.287 80.6278H218.688C217.316 80.6278 216.14 79.3863 216.14 78.0796V4.05099C216.14 2.67888 217.381 1.50279 218.688 1.50279H225.287" fill="#3253DC"/>
</g>
<defs>
<clipPath id="clip0_1_9188">
<rect width="512" height="95" fill="white"/>
</clipPath>
</defs>
</svg>
