<svg width="512" height="77" viewBox="0 0 512 77" fill="none" xmlns="http://www.w3.org/2000/svg">
<g clip-path="url(#clip0_1_9196)">
<path d="M136.581 7.61328C144.391 7.61328 150.488 10.0771 154.874 15.0048C159.26 19.9325 161.452 26.7352 161.452 35.4127C161.452 42.3302 160.051 48.0818 157.25 52.6677C154.588 57.1356 150.36 60.4542 145.387 61.9782L158.327 75.3551H149.149L138.552 63.1601L136.505 63.2362C128.493 63.2362 122.314 60.8031 117.968 55.9368C113.623 51.0705 111.447 44.2038 111.442 35.3366C111.442 26.5415 113.624 19.7242 117.988 14.8846C122.353 10.0451 128.55 7.62129 136.581 7.61328ZM510.626 10.602L508.659 16.0705C504.166 14.2009 499.802 13.2661 495.566 13.2661C492.22 13.2661 489.605 13.9806 487.722 15.4095C485.839 16.8384 484.896 18.8215 484.894 21.3588C484.894 23.2283 485.241 24.7614 485.935 25.9579C486.63 27.1545 487.801 28.2509 489.449 29.2471C491.099 30.2433 493.622 31.3464 497.017 32.5563C502.722 34.5754 506.645 36.7428 508.787 39.0584C510.929 41.374 512 44.3948 512 48.1206C512 52.8747 510.264 56.5818 506.792 59.242C503.32 61.9021 498.608 63.2375 492.658 63.2482C486.213 63.2482 481.255 62.4229 477.783 60.7723V54.6989C480.135 55.6725 482.577 56.4145 485.074 56.9143C487.642 57.4479 490.259 57.7164 492.882 57.7156C497.097 57.7156 500.27 56.9143 502.401 55.3118C504.532 53.7093 505.601 51.4992 505.606 48.6814C505.606 46.8119 505.228 45.2788 504.472 44.0823C503.716 42.8857 502.453 41.7827 500.682 40.7731C498.906 39.7635 496.21 38.6177 492.594 37.3357C487.535 35.5409 483.921 33.4042 481.753 30.9257C479.584 28.4472 478.5 25.2328 478.5 21.2826C478.5 17.1215 480.074 13.8083 483.223 11.3431C486.372 8.87792 490.536 7.64711 495.715 7.64934C500.836 7.59318 505.913 8.59851 510.626 10.602ZM188.487 8.47463V43.7297C188.487 48.2381 189.726 51.6982 192.204 54.1099C194.683 56.5217 198.327 57.7236 203.137 57.7156C207.721 57.7156 211.253 56.503 213.734 54.0779C216.215 51.6528 217.454 48.1833 217.452 43.6696V8.47463H223.774V43.4292C223.774 49.5855 221.904 54.4264 218.165 57.9519C214.426 61.4774 209.276 63.2389 202.717 63.2362C196.171 63.2362 191.107 61.4614 187.525 57.9119C183.943 54.3623 182.157 49.4814 182.165 43.269V8.47463H188.487ZM422.5 8.47463V43.7297C422.5 48.2381 423.739 51.6982 426.218 54.1099C428.697 56.5217 432.341 57.7236 437.151 57.7156C441.737 57.7156 445.27 56.503 447.752 54.0779C450.233 51.6528 451.472 48.1727 451.469 43.6376V8.47463H457.791V43.4292C457.791 49.5855 455.922 54.4264 452.183 57.9519C448.443 61.4774 443.299 63.2389 436.75 63.2362C430.207 63.2362 425.143 61.4614 421.559 57.9119C417.974 54.3623 416.181 49.4814 416.178 43.269V8.47463H422.5ZM266.641 8.25428L288.022 62.499H281.48L274.709 45.3122H252.919L246.225 62.499H239.815L261.324 8.25428H266.641ZM319.551 8.47463C326.228 8.47463 331.155 9.74328 334.33 12.2806C337.506 14.8179 339.099 18.6358 339.11 23.7345C339.11 30.8763 335.466 35.7052 328.177 38.2211L342.936 62.499H335.464L322.3 40.0359L310.962 40.0319V62.499H304.636V8.47463H319.551ZM399.308 8.46661L377.442 31.9393L400.125 62.499H392.686L372.867 36.2981L367.178 41.322V62.499H360.856V8.47463H367.178V35.2565L391.832 8.46661H399.308ZM136.581 13.2421C130.556 13.2421 125.976 15.133 122.84 18.9149C119.704 22.6968 118.137 28.1961 118.137 35.4127H118.129C118.129 42.7281 119.696 48.2768 122.832 52.0587C125.967 55.8406 130.523 57.7303 136.497 57.7276C142.523 57.7276 147.072 55.8433 150.147 52.0748C153.221 48.3062 154.758 42.7522 154.758 35.4127C154.758 28.1454 153.226 22.6341 150.163 18.8789C147.099 15.1237 142.572 13.2447 136.581 13.2421ZM263.884 15.125C263.257 17.7675 262.474 20.3708 261.541 22.9212L255.131 39.6594L272.738 39.6634L266.416 22.9212C265.596 20.8059 264.752 18.2072 263.884 15.125ZM319.179 13.9792H310.962V34.6355H319.623C324.086 34.6355 327.359 33.7541 329.443 31.9914C331.526 30.2286 332.566 27.5872 332.564 24.067C332.564 20.4961 331.505 17.9227 329.387 16.3469C327.269 14.7711 323.866 13.9819 319.179 13.9792Z" fill="#091313"/>
<path d="M63.8998 0C70.9069 0.0242027 76.5799 5.70084 76.5997 12.7079V63.8998C76.5799 70.91 70.902 76.5879 63.8918 76.6077H56.2799L52.7905 68.1345H63.8998C66.2259 68.1042 68.1042 66.2259 68.1345 63.8998V12.7079C68.1042 10.3818 66.2259 8.50345 63.8998 8.47324H12.7079C10.3818 8.50345 8.50345 10.3818 8.47324 12.7079V63.8998C8.50345 66.2259 10.3818 68.1042 12.7079 68.1345H31.4411L38.3038 53.6238L47.7666 76.6077H12.7079C5.69772 76.5879 0.0198059 70.91 0 63.8998V12.7079C0.0198059 5.69772 5.69772 0.0198059 12.7079 0H63.8998ZM50.7393 41.8093V55.4266L38.9449 48.62L50.7393 41.8093ZM25.8684 28.1921V41.8093L14.074 34.9987L25.8684 28.1921ZM50.0983 13.461V27.0783L38.3038 20.2677L50.0983 13.461Z" fill="#4695EB"/>
<path d="M25.8684 41.8092L37.6628 48.6199L25.8684 55.4265V41.8092ZM50.7393 28.192L62.5337 34.9986L50.7393 41.8092V28.192ZM26.5094 13.4609L38.3038 20.2676L26.5094 27.0782V13.4609Z" fill="#FF004A"/>
<path d="M25.8684 28.1939L37.6628 35.0005V48.6218L25.8684 41.8112V28.1939ZM50.7393 28.1939V41.8112L38.9448 48.6218V35.0005L50.7393 28.1939ZM38.3038 20.2695L50.0983 27.0802L38.3038 33.8908L26.5094 27.0802L38.3038 20.2695Z" fill="#091313"/>
</g>
<defs>
<clipPath id="clip0_1_9196">
<rect width="512" height="77" fill="white"/>
</clipPath>
</defs>
</svg>
