<svg width="256" height="257" viewBox="0 0 256 257" fill="none" xmlns="http://www.w3.org/2000/svg">
<g clip-path="url(#clip0_1_9191)">
<path d="M213.554 0C236.972 0.0808857 255.931 19.0523 255.997 42.4699V213.554C255.931 236.982 236.955 255.958 213.528 256.024H188.088L176.427 227.706H213.554C221.328 227.605 227.605 221.328 227.706 213.554V42.4699C227.605 34.696 221.328 28.4187 213.554 28.3177H42.4699C34.696 28.4187 28.4187 34.696 28.3177 42.4699V213.554C28.4187 221.328 34.696 227.605 42.4699 227.706H105.077L128.012 179.212L159.637 256.024H42.4699C19.0419 255.958 0.0661915 236.982 0 213.554V42.4699C0.0661915 19.0419 19.0419 0.0661915 42.4699 0H213.554ZM169.571 139.727V185.237L130.154 162.489L169.571 139.727ZM86.4527 94.2183V139.727L47.0355 116.966L86.4527 94.2183ZM167.429 44.987V90.4961L128.012 67.7349L167.429 44.987Z" fill="#4695EB"/>
<path d="M86.4526 139.729L125.87 162.49L86.4526 185.238V139.729ZM169.571 94.2196L208.989 116.967L169.571 139.729V94.2196ZM88.5949 44.9883L128.012 67.7362L88.5949 90.4974V44.9883Z" fill="#FF004A"/>
<path d="M86.4526 94.2178L125.87 116.966V162.488L86.4526 139.727V94.2178ZM169.571 94.2178V139.727L130.154 162.488V116.966L169.571 94.2178ZM128.012 67.7344L167.429 90.4956L128.012 113.257L88.5949 90.4956L128.012 67.7344Z" fill="#091313"/>
</g>
<defs>
<clipPath id="clip0_1_9191">
<rect width="256" height="257" fill="white"/>
</clipPath>
</defs>
</svg>
