<svg width="256" height="193" viewBox="0 0 256 193" fill="none" xmlns="http://www.w3.org/2000/svg">
<g clip-path="url(#clip0_1_9222)">
<path d="M149.333 149.333C96 149.333 50.674 122.62 50.674 90.62C50.674 58.62 90.667 32 144 32C211.357 32 242.572 57.911 242.572 89.911C242.572 121.911 208.165 149.333 149.333 149.333ZM128 0C58.667 0 0 37.333 0 85.333C0 130.667 58.312 168.302 127.646 168.302C196.979 168.302 256 133.333 256 85.333C256 37.333 197.333 0 128 0Z" fill="url(#paint0_linear_1_9222)"/>
<path d="M105.946 51.8281V192.937H148.589V138.062C159.25 138.062 165.6 135.734 172.575 148.514C183.236 166.806 196.562 192.937 196.562 192.937H247.2C247.2 192.937 215.218 140.675 212.553 138.062C207.638 132.835 201.892 132.835 193.897 130.222C209.888 127.609 224.796 120.974 229.979 106.758C234.51 93.6931 233.977 77.0731 224.265 65.9281C215.854 57.1091 207.223 51.8281 185.901 51.8281H105.946ZM148.589 81.2161H176.573C183.209 81.2161 188.566 87.7491 188.566 94.2811C188.566 100.814 183.236 107.347 176.573 107.347H148.589V81.2161Z" fill="#2165B6"/>
</g>
<defs>
<linearGradient id="paint0_linear_1_9222" x1="9720.98" y1="2860.95" x2="17591.2" y2="16223.9" gradientUnits="userSpaceOnUse">
<stop stop-color="#C9CBCE"/>
<stop offset="1" stop-color="#7B7A81"/>
</linearGradient>
<clipPath id="clip0_1_9222">
<rect width="256" height="193" fill="white"/>
</clipPath>
</defs>
</svg>
