<svg width="512" height="87" viewBox="0 0 512 87" fill="none" xmlns="http://www.w3.org/2000/svg">
<g clip-path="url(#clip0_1_9229)">
<path d="M477.949 0C496.27 0 506.084 16.6528 506.084 42.6345C506.084 60.4692 501.947 72.8374 494.201 79.4647L511.994 78.1562V85.1845H477.443C458.975 85.1845 448.802 71.3178 448.802 42.6345C448.802 13.9512 460.769 0 477.949 0ZM379.679 1.45633L403.065 74.7159H403.318L426.788 1.45633H438.523V85.1423H431.896V8.14698L407.117 85.1423H399.477L374.36 8.14698V85.1423H367.67V1.45633H379.679ZM477.865 7.21831C463.576 7.21831 456.759 18.8056 456.759 42.6556C456.759 66.5056 462.162 78.1562 477.506 78.1562C492.85 78.1562 498.042 64.2472 498.042 42.6556C498.042 21.064 492.154 7.21831 477.865 7.21831Z" fill="#A9B5AF"/>
<path d="M338.923 10.0238V27.3731H354.352V33.1562H338.944V70.303C338.944 71.9704 338.543 80.5817 347.682 80.5817C349.943 80.5584 352.189 80.2101 354.352 79.5475V85.9427C352.308 86.2253 350.251 86.4015 348.189 86.4704C344.088 86.7188 340.026 85.5488 336.686 83.1567C334.153 81.0461 332.908 77.3314 332.908 72.2448V33.1773H323.663V27.3942H332.908V14.0551L338.923 10.0238ZM207.516 1.43359V38.3272H207.727C209.736 31.0895 216.341 26.0923 223.852 26.1278C228.496 26.1278 243.903 29.0616 243.903 56.9217C243.903 84.7819 226.343 86.4704 221.53 86.4704C201.922 86.4704 201.428 65.6122 201.417 61.7186L201.416 1.43359H207.516ZM259.374 1.43359V38.3272H259.627C261.636 31.0895 268.241 26.0923 275.752 26.1278C280.396 26.1278 295.803 29.0616 295.803 56.9217C295.803 84.7819 278.243 86.4704 273.431 86.4704C253.822 86.4704 253.329 65.6122 253.317 61.7186L253.316 1.43359H259.374ZM173.408 26.0856C191.631 26.0856 191.468 39.2816 191.455 45.3518L191.454 85.1407H185.439V76.9726H185.186C183.222 79.9154 180.57 82.3351 177.461 84.022C174.313 85.6736 170.8 86.5082 167.245 86.4493C164.839 86.4493 152.471 85.9427 152.471 71.0206C152.471 56.0986 168.638 53.5236 178.537 52.7638C180.801 52.5448 184.264 52.5152 185.159 52.5112L185.295 52.5107C185.313 52.5106 185.328 52.5106 185.34 52.5106L185.376 52.5105L185.376 47.3126C185.376 47.2677 185.376 47.2222 185.376 47.1761L185.377 46.8914C185.377 46.8427 185.377 46.7934 185.377 46.7435L185.377 46.4371C185.369 41.5802 184.891 31.8687 172.839 31.8687C162.94 31.8687 161.505 37.8629 160.829 41.2398H153.4C153.4 38.496 154.814 26.0856 173.408 26.0856ZM116.211 1.60244C138.203 1.60244 142.994 13.1475 142.994 23.0252C142.994 33.7894 137.887 41.6831 126.109 43.9836C126.109 43.9836 133.286 46.0943 135.797 49.9989C137.697 52.9538 138.625 55.8664 140.018 62.6626L144.767 85.2462H137.465L133.243 65.4486C131.914 59.961 131.069 51.3708 123.661 48.5637C121.155 47.6757 118.51 47.2467 115.852 47.2973H105.805V85.1407H98.5448V1.60244H116.211ZM312.139 27.3942V85.1407H306.082V27.3942H312.139ZM223.177 31.8476C216.887 31.8476 207.748 38.7071 207.748 57.7027C207.748 80.1448 219.039 80.5937 221.397 80.6027L221.595 80.6027C223.816 80.5909 236.6 79.8838 236.6 56.7529L236.598 56.2242C236.458 38.1982 229.403 31.8476 223.177 31.8476ZM275.077 31.8476C268.787 31.8476 259.648 38.7071 259.648 57.7027C259.648 80.1448 270.939 80.5937 273.297 80.6027L273.495 80.6027C275.716 80.5909 288.5 79.8838 288.5 56.7529L288.479 56.774C288.479 38.3272 281.366 31.8476 275.077 31.8476ZM185.354 58.2936L185.27 58.2946C184.287 58.306 175.049 58.424 172.712 58.8635C160.956 61.1219 159.774 68.2768 159.774 71.3372C159.764 73.5486 160.69 75.6609 162.322 77.1526C163.954 78.6443 166.141 79.3763 168.343 79.1676C176.626 79.1899 183.679 73.1506 184.932 64.9632C185.211 62.7509 185.352 60.5234 185.354 58.2936ZM115.388 8.10314H105.805V40.6278H112.433C134.953 40.6278 135.649 26.6977 135.649 22.8775L135.649 22.7378C135.625 18.0739 134.339 8.10314 115.388 8.10314ZM313.532 1.4547V11.2691H304.583V1.4547H313.532Z" fill="#FF6600"/>
<path d="M80.8579 34.6129H53.9053C53.0079 34.6186 52.1457 34.2646 51.5112 33.6301C50.8766 32.9956 50.5226 32.1333 50.5283 31.236V4.28337C50.5283 3.38967 50.1719 2.53287 49.5379 1.90291C48.904 1.27295 48.045 0.921868 47.1513 0.927488H37.0626C36.1689 0.921868 35.3099 1.27295 34.6759 1.90291C34.042 2.53287 33.6856 3.38967 33.6856 4.28337V31.236C33.6912 32.1333 33.3373 32.9956 32.7027 33.6301C32.0682 34.2646 31.206 34.6186 30.3086 34.6129H20.2198C19.3225 34.6186 18.4602 34.2646 17.8257 33.6301C17.1912 32.9956 16.8372 32.1333 16.8429 31.236V4.28337C16.8485 3.38601 16.4945 2.52377 15.86 1.88923C15.2255 1.25469 14.3632 0.90072 13.4659 0.906315H3.35601C2.46231 0.906315 1.60551 1.26283 0.975554 1.89675C0.345594 2.53067 -0.00548856 3.38968 6.5329e-05 4.28337V81.7852C-0.00552951 82.6826 0.348441 83.5448 0.98298 84.1794C1.61752 84.8139 2.47976 85.1679 3.37712 85.1623H80.8579C81.7552 85.1679 82.6175 84.8139 83.252 84.1794C83.8866 83.5448 84.2405 82.6826 84.2349 81.7852V38.0532C84.2577 37.145 83.9114 36.2663 83.275 35.6179C82.6385 34.9696 81.7664 34.6069 80.8579 34.6129ZM67.3078 63.2329C67.3133 64.5744 66.7843 65.8629 65.8377 66.8135C64.8911 67.7641 63.6049 68.2984 62.2633 68.2984H55.5094C54.1679 68.2984 52.8816 67.7641 51.935 66.8135C50.9884 65.8629 50.4594 64.5744 50.4649 63.2329V56.5C50.4594 55.1585 50.9884 53.8701 51.935 52.9195C52.8816 51.9689 54.1679 51.4346 55.5094 51.4346H62.2633C63.6049 51.4346 64.8911 51.9689 65.8377 52.9195C66.7843 53.8701 67.3133 55.1585 67.3078 56.5V63.2329Z" fill="#FF6600"/>
</g>
<defs>
<clipPath id="clip0_1_9229">
<rect width="512" height="87" fill="white"/>
</clipPath>
</defs>
</svg>
