<svg width="256" height="257" viewBox="0 0 256 257" fill="none" xmlns="http://www.w3.org/2000/svg">
<g clip-path="url(#clip0_1_9226)">
<path d="M245.734 102.437H163.823C161.096 102.455 158.475 101.379 156.547 99.4505C154.618 97.5221 153.543 94.9016 153.56 92.1745V10.2633C153.56 7.54731 152.476 4.94343 150.55 3.02893C148.623 1.11443 146.013 0.0474632 143.297 0.0645452H112.636C109.92 0.0474632 107.31 1.11443 105.383 3.02893C103.457 4.94343 102.373 7.54731 102.373 10.2633V92.1745C102.39 94.9016 101.315 97.5221 99.3863 99.4505C97.4579 101.379 94.8375 102.455 92.1103 102.437H61.4498C58.7226 102.455 56.1022 101.379 54.1738 99.4505C52.2454 97.5221 51.1696 94.9016 51.1868 92.1745V10.2633C51.2041 7.53621 50.1283 4.91578 48.1999 2.98736C46.2715 1.05894 43.651 -0.0168046 40.9239 0.00019854H10.1992C7.48316 0.00019854 4.87929 1.08366 2.96479 3.0102C1.05029 4.93675 -0.0166802 7.54736 0.00019854 10.2633V245.798C-0.0168046 248.525 1.05894 251.146 2.98736 253.074C4.91578 255.002 7.53621 256.078 10.2633 256.061H245.734C248.461 256.078 251.081 255.002 253.01 253.074C254.938 251.146 256.014 248.525 255.997 245.798V112.893C256.066 110.133 255.014 107.462 253.079 105.492C251.145 103.521 248.495 102.419 245.734 102.437ZM204.554 189.416C204.571 193.493 202.963 197.409 200.086 200.298C197.21 203.186 193.3 204.81 189.223 204.81H168.698C164.621 204.81 160.712 203.186 157.835 200.298C154.958 197.409 153.35 193.493 153.367 189.416V168.954C153.35 164.877 154.958 160.961 157.835 158.073C160.712 155.184 164.621 153.56 168.698 153.56H189.223C193.3 153.56 197.21 155.184 200.086 158.073C202.963 160.961 204.571 164.877 204.554 168.954V189.416Z" fill="#FF6600"/>
</g>
<defs>
<clipPath id="clip0_1_9226">
<rect width="256" height="257" fill="white"/>
</clipPath>
</defs>
</svg>
