<svg width="512" height="180" viewBox="0 0 512 180" fill="none" xmlns="http://www.w3.org/2000/svg">
<g clip-path="url(#clip0_1_9241)">
<path d="M219.115 150.635C219.115 150.635 241.685 148.701 241.685 119.554C241.685 90.4075 214.344 87.6992 214.344 87.6992H165.078V179.653H189.84V157.471L211.248 179.653H247.875L219.115 150.635ZM209.572 131.806H189.84V110.784H209.701C209.701 110.784 215.246 112.848 215.246 121.231C215.246 129.614 209.572 131.806 209.572 131.806ZM302.815 88.3441H277.667C259.74 88.3441 253.679 104.594 253.679 112.332V179.653H278.827V163.532H302.428V179.653H326.803V112.332C326.803 92.7289 309.006 88.3441 302.815 88.3441ZM302.428 137.481H278.698V115.169C278.698 115.169 278.698 110.14 286.565 110.14H295.206C302.17 110.14 302.299 115.169 302.299 115.169V137.481H302.428ZM338.281 88.3441H364.462V179.653H338.281V88.3441ZM401.217 156.052V88.3441H375.166V156.052V179.653H401.217H436.425V156.052H401.217ZM445.066 156.31V179.653H487.238C495.879 179.653 510.71 173.333 511.226 155.665V146.637C511.226 131.548 498.845 122.649 487.238 122.649H466.217V111.816H507.873V88.3441H467.893C457.576 88.3441 443.776 96.8559 443.776 112.719V120.844C443.776 136.707 457.447 144.832 467.893 144.832C496.911 144.961 460.929 144.832 487.754 144.832V156.181L445.066 156.31Z" fill="#CC0000"/>
<path d="M9.02771 179.522H110.912C110.912 179.522 91.4378 90.664 155.921 54.6821C169.979 47.8469 214.73 22.3113 287.984 76.4776C290.305 74.5431 292.498 72.9955 292.498 72.9955C292.498 72.9955 225.435 6.06146 150.763 13.5416C113.233 16.8947 67.063 51.071 39.9799 96.2096C12.8967 141.348 9.02771 179.522 9.02771 179.522ZM221.308 20.7637L221.824 12.1229C220.663 11.4781 217.439 9.93048 209.314 7.60907L208.798 16.1209C213.054 17.5395 217.181 19.0872 221.308 20.7637ZM209.056 48.1048L208.54 56.2297C212.796 56.3587 217.052 56.8746 221.308 57.7773L221.824 49.7814C217.439 48.8786 213.183 48.3627 209.056 48.1048ZM161.338 7.867H162.628L160.048 0C156.05 0 151.923 0.257935 147.668 0.773804L150.118 8.38287C153.858 7.99597 157.598 7.867 161.338 7.867ZM167.528 55.327L170.495 64.2257C174.235 62.4202 177.975 60.8725 181.715 59.7118L178.878 51.2C174.493 52.4897 170.753 53.9083 167.528 55.327ZM108.977 21.4086L103.174 12.5098C99.9496 14.1864 96.5965 15.9919 93.1144 18.0554L99.0469 27.0831C102.4 25.0196 105.624 23.0851 108.977 21.4086ZM135.416 79.4438L141.606 88.7295C143.798 85.5053 146.378 82.539 149.215 79.5728L143.412 70.803C140.445 73.5113 137.737 76.4776 135.416 79.4438ZM116.715 120.971L127.162 129.225C127.678 124.195 128.58 119.166 129.87 114.136L120.584 106.785C118.908 111.557 117.747 116.328 116.715 120.971ZM60.2277 59.7118L51.071 51.7159C47.7179 54.9401 44.4937 58.1642 41.5275 61.3884L51.4579 69.9003C54.1662 66.4181 57.1325 62.936 60.2277 59.7118ZM21.2796 117.36L6.44836 111.944C3.99798 117.489 1.28967 123.938 0 127.42L14.8312 132.836C16.5078 128.451 19.2161 122.132 21.2796 117.36ZM114.781 153.729C115.039 160.564 115.684 166.11 116.328 169.979L131.805 175.524C130.644 170.495 129.483 164.82 128.709 158.759L114.781 153.729Z" fill="#CC0000"/>
</g>
<defs>
<clipPath id="clip0_1_9241">
<rect width="512" height="180" fill="white"/>
</clipPath>
</defs>
</svg>
