<svg width="512" height="147" viewBox="0 0 512 147" fill="none" xmlns="http://www.w3.org/2000/svg">
<g clip-path="url(#clip0_1_9248)">
<path d="M78.2205 2.32932H0L7.79949 14.8486H77.7786C86.3255 14.8486 94.3731 18.2781 100.439 24.5055C106.48 30.7081 109.808 38.8878 109.808 47.5377C109.808 56.0373 106.624 63.6915 100.603 69.6722C94.8676 75.3682 86.8747 79.1133 78.0835 80.2268H69.5187L45.8976 80.0381L52.7155 91.8445H63.0708L63.6325 92.7461H63.7148L94.3529 144.474L94.5495 144.67C95.8786 145.998 97.5437 146.644 99.6404 146.644C103.228 146.644 106.259 143.511 106.259 139.803C106.259 138.333 105.78 137.667 105.2 137.006C104.964 136.738 104.671 136.404 104.228 135.649L79.0175 92.7394C90.739 92.536 101.7 87.8652 109.957 79.5346C118.398 71.0199 123.046 59.6561 123.046 47.5377C123.046 22.6096 102.937 2.32932 78.2205 2.32932ZM183.504 3.60164C182.502 1.66255 180.329 0.460938 177.813 0.460938C175.533 0.460938 173.265 1.68991 172.169 3.51911L171.487 4.70288C170.591 6.25828 171.092 8.51545 171.986 10.062L182.697 28.5926L223.695 99.838H221.91L221.965 99.9349H169.213L176.838 113.254H231.412L247.9 141.789L247.939 141.855C248.957 143.482 250.661 146.205 254.224 146.205C257.876 146.205 260.845 143.235 260.845 139.584C260.845 138.329 260.53 137.258 259.855 136.22L183.504 3.60164ZM504.352 132.965H433.966V7.07852C433.966 3.42962 430.998 0.460938 427.347 0.460938C423.698 0.460938 420.728 3.42962 420.728 7.07852V139.584C420.728 143.235 423.698 146.205 427.347 146.205H512L504.352 132.965ZM366.199 6.91693C366.114 3.34268 363.181 0.460938 359.585 0.460938C359.418 0.460938 359.254 0.469052 359.094 0.481803C358.929 0.469284 358.764 0.460938 358.598 0.460938C356.08 0.460938 353.905 1.66487 352.904 3.60767L309.2 80.4239L265.494 3.60744C264.495 1.66464 262.32 0.460938 259.8 0.460938C257.521 0.460938 255.253 1.68991 254.157 3.51911L253.475 4.70311C252.583 6.25341 253.072 8.50942 253.955 10.0574L302.688 95.559L302.734 95.6359C303.749 97.263 305.453 99.9857 309.017 99.9857C309.079 99.9857 309.14 99.9829 309.2 99.981C309.26 99.9829 309.32 99.9857 309.383 99.9857C312.946 99.9857 314.648 97.263 315.666 95.6359L352.966 30.196V139.584C352.966 143.235 355.936 146.205 359.585 146.205C363.234 146.205 366.204 143.235 366.204 139.584V7.07852C366.204 7.04374 366.202 7.0092 366.202 6.97442L366.218 6.94683L366.199 6.91693Z" fill="#75C9E1"/>
</g>
<defs>
<clipPath id="clip0_1_9248">
<rect width="512" height="147" fill="white"/>
</clipPath>
</defs>
</svg>
