<svg width="256" height="121" viewBox="0 0 256 121" fill="none" xmlns="http://www.w3.org/2000/svg">
<g clip-path="url(#clip0_1_9251)">
<path d="M255.867 26.3656L253.051 9.72712C252.789 8.1538 252.428 6.66819 252.007 5.35372L251.791 4.71114C250.801 1.88716 249.539 0 248.443 0C247.399 0 246.455 1.76616 245.897 4.41129L245.78 5.0132C245.761 5.11581 245.743 5.21954 245.726 5.32433L245.629 5.9656C245.614 6.0745 245.599 6.18437 245.586 6.29519L245.51 6.97093C245.488 7.19968 245.468 7.43181 245.451 7.66696L245.407 8.38111C245.384 8.86277 245.372 9.35506 245.372 9.85511V14.2067C245.372 19.5822 240.892 24.0618 235.516 24.0618H230.269V36.0927H247.547C253.051 36.0927 256.763 31.7411 255.867 26.3656ZM216.574 12.2869H162.051C161.667 12.2869 161.411 12.2869 161.155 12.4149L161.153 9.48157L161.135 8.7443C161.131 8.6226 161.125 8.50152 161.12 8.38111L161.076 7.66696C161.042 7.19666 160.996 6.73844 160.941 6.29519L160.851 5.64189C160.819 5.4281 160.784 5.21842 160.747 5.0132L160.63 4.41129C160.072 1.76616 159.128 0 158.083 0C156.623 0 154.866 3.35496 153.852 7.81219L153.69 8.56488C153.639 8.81892 153.59 9.07598 153.543 9.33567L150.66 26.3656C149.764 31.7411 153.476 36.0927 158.851 36.0927H175.234C176.898 36.0927 178.562 35.8368 179.841 35.3248C179.33 38.1406 176.898 40.1884 173.954 40.1884H150.916C147.204 40.1884 144.389 36.8607 145.029 33.149L147.332 19.1983C147.972 15.4866 145.157 12.1589 141.445 12.1589H27.2793C24.8475 12.1589 22.7997 13.5668 21.7758 15.7426L0.273695 48.6356C-0.11027 49.1476 -0.11027 49.9155 0.401684 50.4275L4.6253 55.419C5.13726 56.0589 6.03318 56.1869 6.67312 55.675L21.2638 44.156V114.294C21.2638 117.621 23.9516 120.309 27.2793 120.309H59.7883C63.116 120.309 65.8038 117.621 65.8038 114.294V89.9759C65.8038 86.6482 68.4915 83.9604 71.8192 83.9604H152.836C156.164 83.9604 158.851 86.6482 158.851 89.9759V114.294C158.851 117.621 161.539 120.309 164.867 120.309H197.376C200.704 120.309 203.391 117.621 203.391 114.294V87.8001H186.113C180.737 87.8001 176.258 83.3205 176.258 77.945V61.1785C176.258 57.9788 177.794 55.163 180.225 53.3712V73.4654C180.225 78.8409 184.705 83.3205 190.081 83.3205H216.574C221.95 83.3205 226.429 78.8409 226.429 73.4654V22.27C226.429 16.7665 221.95 12.2869 216.574 12.2869Z" fill="#2453FF"/>
</g>
<defs>
<clipPath id="clip0_1_9251">
<rect width="256" height="121" fill="white"/>
</clipPath>
</defs>
</svg>
