<svg width="512" height="78" viewBox="0 0 512 78" fill="none" xmlns="http://www.w3.org/2000/svg">
<g clip-path="url(#clip0_1_9254)">
<path d="M164.476 16.9484L162.666 6.25279C162.498 5.24143 162.266 4.28645 161.995 3.44148L161.857 3.02842C161.22 1.21311 160.409 0 159.704 0C159.033 0 158.426 1.13532 158.068 2.83567L157.992 3.22259C157.98 3.28855 157.969 3.35523 157.958 3.42259L157.895 3.83481C157.886 3.90481 157.876 3.97544 157.867 4.04668L157.819 4.48106C157.805 4.6281 157.792 4.77732 157.781 4.92848L157.753 5.38755C157.738 5.69717 157.73 6.01363 157.73 6.33507V9.13237C157.73 12.5879 154.85 15.4674 151.395 15.4674H148.022V23.2012H159.129C162.666 23.2012 165.052 20.4039 164.476 16.9484ZM139.218 7.89827H104.17C103.923 7.89827 103.758 7.89827 103.594 7.98054L103.592 6.09495L103.581 5.62102C103.578 5.54279 103.575 5.46495 103.571 5.38755L103.543 4.92848C103.521 4.62616 103.492 4.33161 103.456 4.04668L103.398 3.62672C103.378 3.4893 103.355 3.35451 103.332 3.22259L103.256 2.83567C102.898 1.13532 102.291 0 101.619 0C100.68 0 99.5508 2.15664 98.8994 5.02183L98.7954 5.50568C98.7622 5.66898 98.7307 5.83423 98.7009 6.00116L96.8474 16.9484C96.2715 20.4039 98.6574 23.2012 102.113 23.2012H112.644C113.714 23.2012 114.783 23.0366 115.606 22.7075C115.277 24.5175 113.714 25.8339 111.821 25.8339H97.012C94.626 25.8339 92.816 23.6948 93.2274 21.3089L94.7083 12.341C95.1197 9.9551 93.3096 7.81599 90.9237 7.81599H17.5357C15.9725 7.81599 14.6561 8.721 13.9979 10.1197L0.175937 31.264C-0.0708837 31.5931 -0.0708838 32.0867 0.258211 32.4158L2.97324 35.6245C3.30233 36.0358 3.87825 36.1181 4.28962 35.789L13.6688 28.3844V73.4703C13.6688 75.6094 15.3966 77.3372 17.5357 77.3372H38.4332C40.5723 77.3372 42.3 75.6094 42.3 73.4703V57.8383C42.3 55.6992 44.0278 53.9715 46.1669 53.9715H98.2461C100.385 53.9715 102.113 55.6992 102.113 57.8383V73.4703C102.113 75.6094 103.841 77.3372 105.98 77.3372H126.877C129.016 77.3372 130.744 75.6094 130.744 73.4703V56.4397H119.637C116.182 56.4397 113.302 53.5601 113.302 50.1046V39.3268C113.302 37.2699 114.289 35.4599 115.853 34.3081V47.225C115.853 50.6805 118.732 53.5601 122.188 53.5601H139.218C142.674 53.5601 145.553 50.6805 145.553 47.225V14.3156C145.553 10.7778 142.674 7.89827 139.218 7.89827Z" fill="#2453FF"/>
<path d="M201.993 10.0378C213.182 10.0378 220.669 15.4679 220.669 25.9166C220.669 34.4731 214.828 39.574 209.151 41.3841C210.777 42.7004 211.966 44.527 212.923 46.4521L213.219 47.0571L213.678 48.0245L214.669 50.1621L214.889 50.6252L215.111 51.0812L215.336 51.5291L215.565 51.9677L215.798 52.3956C217.254 54.9999 219.026 56.9338 222.068 56.9338C222.71 56.9338 223.308 56.8223 223.734 56.7154L223.991 56.6461C224.029 56.635 224.064 56.6244 224.097 56.6143L239.757 10.0378H254.072L273.324 67.0534H259.009L255.471 56.2756H236.383L232.928 67.0534L221.117 67.054C220.065 67.2242 218.76 67.3825 217.543 67.3825C211.336 67.3825 207.567 65.1542 203.864 57.7504L203.542 57.0935L203.22 56.4101C203.113 56.1778 203.006 55.941 202.898 55.6997L202.72 55.2793L202.066 53.673L201.465 52.1876L201.255 51.6822L200.933 50.9228L200.712 50.4191L200.487 49.9202L200.257 49.4287C200.219 49.3475 200.18 49.2667 200.141 49.1864L199.904 48.7103C199.864 48.632 199.824 48.5543 199.783 48.4771L199.539 48.0219C198.429 46.0095 197.171 44.5105 195.74 44.5105H192.532V67.0534H178.381V10.0378H201.993ZM246.174 24.0243H245.845L245.69 25.0309L245.471 26.328L245.289 27.3229L245.074 28.4171L244.93 29.1068L244.721 30.049L244.552 30.7629L244.434 31.2381L244.311 31.71L244.184 32.1763L244.052 32.6349L243.917 33.0835L243.777 33.5198C243.753 33.5914 243.73 33.6623 243.706 33.7326L239.757 45.8268H252.015L248.149 33.8149C248.101 33.6683 248.054 33.5194 248.008 33.3686L247.872 32.9108L247.741 32.4436L247.616 31.9691L247.496 31.4896L247.381 31.0072L247.271 30.524L247.117 29.8026L246.974 29.0916L246.761 27.9497L246.582 26.8909L246.385 25.6124L246.284 24.8907L246.174 24.0243ZM199.642 20.3235L192.614 20.322V34.3085H197.715L198.083 34.305C198.145 34.3039 198.207 34.3024 198.269 34.3005L198.641 34.2857L199.016 34.2626C202.705 33.9922 206.518 32.4287 206.518 26.9862C206.518 22.054 203.419 20.3798 199.642 20.3235ZM273.818 10.0378H288.956L303.93 38.3399C304.084 38.6485 304.246 38.9853 304.414 39.3451L304.757 40.0937C304.816 40.2231 304.875 40.3546 304.934 40.4881L305.295 41.3109L305.664 42.1715L306.038 43.0604L306.602 44.4261L307.158 45.8024L307.871 47.599L308.208 48.4596H308.537C308.518 48.0821 308.495 47.6864 308.47 47.2765L308.389 46.0082L308.21 43.3124C308.195 43.0829 308.18 42.8529 308.166 42.6229L308.086 41.2462C308.013 39.8772 307.961 38.5432 307.961 37.3527V10.0378H319.562V67.0534H304.753L289.203 38.8336C288.038 36.7082 286.758 33.7829 285.697 31.1052L285.285 30.0498C285.219 29.8769 285.153 29.7058 285.089 29.5367H284.76L284.884 31.054L285.018 32.6261L285.151 34.2261C285.299 36.0986 285.419 37.9729 285.419 39.6563V67.0534H273.818V10.0378ZM322.606 38.2577C322.606 17.607 332.808 9.13281 348.605 9.13281C365.224 9.13281 371.888 18.2652 370.078 30.6062L356.914 31.7581C356.996 31.2319 357.06 30.7241 357.109 30.2343L357.159 29.6551C357.647 23.0936 355.066 19.9327 350.476 19.2376L350.072 19.1834C349.936 19.1673 349.798 19.1533 349.658 19.1414L349.234 19.1116C349.02 19.0997 348.802 19.0923 348.581 19.0894L348.358 19.0879C348.234 19.0879 348.111 19.0897 347.989 19.0934L347.623 19.11L347.26 19.138C342.626 19.5719 338.813 22.8906 337.585 31.6858L337.494 32.3823C337.367 33.4437 337.275 34.581 337.222 35.798L337.192 36.6213C337.177 37.1781 337.169 37.7509 337.169 38.3399C337.169 40.0504 337.234 41.6205 337.359 43.0604L337.434 43.833C338.513 54.0899 342.755 57.3883 347.667 57.7945L348.033 57.8193L348.4 57.834L348.769 57.8388C354.611 57.8388 359.3 54.2187 358.313 46.7318L370.654 47.966C371.559 59.5665 363.249 68.0418 348.029 68.0418C332.561 68.123 322.606 58.9906 322.606 38.2577ZM373.534 10.0378H387.685V31.5935H404.962V10.0378H419.113V67.1357H404.962V42.9473H387.685V67.1357H373.534V10.0378ZM424.79 10.0378H462.554V20.5688H438.859V32.8276H458.687V43.2764H438.859V56.6047H463.376V67.1357H424.79V10.0378ZM466.009 10.0378H489.622C500.811 10.0378 508.298 15.4679 508.298 25.9166C508.298 34.4731 502.456 39.574 496.779 41.3841C498.406 42.7004 499.594 44.527 500.552 46.4521L500.847 47.0571L501.196 47.7888L502.207 49.9695L502.543 50.6775L502.769 51.1406L502.999 51.5951L503.232 52.0397C503.389 52.3326 503.55 52.618 503.715 52.8943L503.966 53.3017C505.326 55.436 507.02 56.9338 509.696 56.9338C510.089 56.9338 510.465 56.8921 510.795 56.8353L511.066 56.7836L511.422 56.7001L511.619 56.646L511.78 56.5975L512 56.5224L510.848 66.6421L510.279 66.7689L509.781 66.8695L509.33 66.954L508.822 67.0415L508.269 67.1275L507.879 67.1818L507.477 67.2323L507.065 67.2776C506.996 67.2846 506.926 67.2914 506.857 67.2979L506.436 67.333C506.224 67.3485 506.012 67.3609 505.801 67.3694L505.38 67.381C505.31 67.3825 505.241 67.3825 505.171 67.3825C498.965 67.3825 495.195 65.1542 491.493 57.7504L491.171 57.0935L490.849 56.4101C490.741 56.1778 490.634 55.941 490.527 55.6997L490.349 55.2793L489.695 53.673L489.093 52.1876L488.884 51.6822L488.561 50.9228L488.341 50.4191L488.116 49.9202L487.886 49.4287C487.847 49.3475 487.808 49.2667 487.769 49.1864L487.532 48.7103C487.492 48.632 487.452 48.5543 487.412 48.4771L487.168 48.0219C486.058 46.0095 484.799 44.5105 483.369 44.5105H480.16V67.0534H466.009V10.0378ZM480.16 20.322V34.3085H485.261L485.629 34.305C485.691 34.3039 485.753 34.3024 485.815 34.3005L486.188 34.2857L486.562 34.2626C490.251 33.9922 494.064 32.4287 494.064 26.9862C494.064 22.054 490.965 20.3798 487.188 20.3235L480.16 20.322Z" fill="black"/>
</g>
<defs>
<clipPath id="clip0_1_9254">
<rect width="512" height="78" fill="white"/>
</clipPath>
</defs>
</svg>
