<svg width="512" height="100" viewBox="0 0 512 100" fill="none" xmlns="http://www.w3.org/2000/svg">
<g clip-path="url(#clip0_1_9289)">
<path d="M68.8474 62.0938L66.7075 65.8097C66.0628 66.9291 64.8694 67.619 63.5776 67.619H47.1841C45.8923 67.619 44.6989 66.9291 44.0542 65.8097L41.914 62.0938H68.8474ZM74.8384 51.6912L71.0651 58.243H39.6964L35.9233 51.6912H74.8384ZM71.2037 41.5188L74.8444 47.8406H35.9172L39.5579 41.5188H71.2037ZM63.5776 31.9023C64.8694 31.9023 66.0628 32.5922 66.7075 33.7116L68.9861 37.668H41.7756L44.0542 33.7116C44.6989 32.5922 45.8923 31.9023 47.1841 31.9023H63.5776Z" fill="#00435B"/>
<path d="M23.3252 30.1799C21.5092 21.3742 21.1195 14.6203 22.2933 9.716C22.9914 6.79922 24.2678 4.41974 26.2086 2.70299C28.2576 0.89055 30.8482 0.00118277 33.759 0.00118277C38.5609 0.00118277 43.609 2.19093 49.0037 6.35087C51.2041 8.04764 53.4878 10.0928 55.8596 12.4876C56.0483 12.2445 56.2617 12.0153 56.4995 11.8034C63.2048 5.82805 68.8501 2.11546 73.6786 0.683997C76.5496 -0.16715 79.2452 -0.24824 81.6998 0.577829C84.2909 1.4498 86.3554 3.25228 87.812 5.77699C90.2159 9.94367 90.8499 15.4187 89.9537 22.179C89.5883 24.9345 88.9638 27.9361 88.0814 31.1884C88.4143 31.2286 88.7481 31.3024 89.0784 31.4119C97.586 34.2312 103.61 37.263 107.258 40.7279C109.428 42.7893 110.845 45.0844 111.357 47.6249C111.898 50.3063 111.37 52.9959 109.915 55.5187C107.516 59.6794 103.104 62.9609 96.819 65.56C94.2952 66.6037 91.4398 67.5489 88.2495 68.3989C88.395 68.7276 88.508 69.0767 88.5835 69.4429C90.3995 78.2486 90.7892 85.0025 89.6154 89.9068C88.9172 92.8236 87.6409 95.2031 85.7001 96.9198C83.6511 98.7323 81.0605 99.6216 78.1497 99.6216C73.3477 99.6216 68.2997 97.4319 62.905 93.272C60.6812 91.5571 58.3722 89.4864 55.9734 87.0587C55.7265 87.4448 55.4235 87.8037 55.0651 88.1231C48.3597 94.0984 42.7144 97.811 37.8859 99.2425C35.0149 100.094 32.3193 100.175 29.8647 99.3487C27.2736 98.4767 25.2091 96.6742 23.7525 94.1495C21.3486 89.9828 20.7146 84.5078 21.6109 77.7475C21.9894 74.8923 22.6462 71.773 23.5798 68.3844C23.2149 68.3474 22.8485 68.2703 22.4861 68.1502C13.9785 65.3309 7.95421 62.2991 4.30697 58.8342C2.13695 56.7728 0.719901 54.4777 0.207648 51.9372C-0.333036 49.2558 0.194173 46.5662 1.64907 44.0433C4.04849 39.8827 8.46032 36.6012 14.7455 34.0021C17.3445 32.9273 20.2952 31.957 23.6011 31.0874C23.4834 30.7991 23.3903 30.4959 23.3252 30.1799Z" fill="#002B3B"/>
<path d="M82.6479 70.3068C83.4938 70.1568 84.3044 70.6992 84.4933 71.5312L84.5037 71.5805L84.5938 72.0487C87.5179 87.4222 85.4581 95.109 78.4143 95.109C71.5226 95.109 62.7496 88.5498 52.0953 75.4316C51.8599 75.1417 51.7329 74.7789 51.736 74.4055C51.7438 73.5357 52.4418 72.8336 53.3054 72.8147L53.3554 72.8144L53.9165 72.8184C58.3999 72.8427 62.7584 72.6864 66.9921 72.3494C71.9897 71.9517 77.2083 71.2708 82.6479 70.3068ZM34.2737 58.6859L34.3007 58.7315L34.5822 59.2228C36.8383 63.1451 39.1888 66.8677 41.6338 70.3909C44.5132 74.5399 47.7512 78.7402 51.3478 82.9918C51.9042 83.6495 51.8407 84.6257 51.213 85.2063L51.1721 85.2428L50.8103 85.5543C38.9103 95.7506 31.1759 97.7861 27.6068 91.6609C24.1133 85.6652 25.3799 74.7634 31.4066 58.9554C31.5391 58.608 31.788 58.3174 32.1108 58.1331C32.8654 57.7024 33.8221 57.9511 34.2737 58.6859ZM88.6865 36.0009L88.7352 36.0168L89.1831 36.1715C103.872 41.281 109.452 46.8962 105.925 53.017C102.475 59.0034 92.4455 63.362 75.8367 66.0928C75.4663 66.1537 75.0863 66.0828 74.7627 65.8926C73.9985 65.4433 73.7431 64.4595 74.1924 63.6953C76.5713 59.6488 78.7138 55.6225 80.6199 51.6164C82.7817 47.073 84.8104 42.1964 86.7061 36.9864C86.9935 36.1965 87.8378 35.7675 88.6376 35.9867L88.6865 36.0009ZM36.8016 33.4283C37.5659 33.8776 37.8212 34.8614 37.3719 35.6257C34.9931 39.6721 32.8506 43.6984 30.9444 47.7045C28.7826 52.2479 26.7539 57.1246 24.8582 62.3346C24.565 63.1406 23.6919 63.5708 22.8779 63.32L22.8291 63.3041L22.3812 63.1495C7.69272 58.0399 2.11217 52.4247 5.63959 46.3039C9.0895 40.3176 19.1189 35.959 35.7276 33.2282C36.098 33.1673 36.478 33.2381 36.8016 33.4283ZM83.9575 8.26203C87.4511 14.2577 86.1845 25.1596 80.1577 40.9675C80.0253 41.3149 79.7764 41.6055 79.4535 41.7898C78.6989 42.2205 77.7422 41.9718 77.2906 41.237L77.2636 41.1914L76.9821 40.7001C74.7261 36.7779 72.3755 33.0552 69.9306 29.532C67.0512 25.383 63.8132 21.1827 60.2166 16.9311C59.6602 16.2734 59.7237 15.2972 60.3514 14.7166L60.3922 14.6801L60.7541 14.3686C72.654 4.17229 80.3885 2.13677 83.9575 8.26203ZM33.752 4.61328C40.6437 4.61328 49.4167 11.1724 60.071 24.2907C60.3064 24.5805 60.4334 24.9433 60.4303 25.3167C60.4225 26.1865 59.7245 26.8887 58.8609 26.9075L58.8109 26.9079L58.2498 26.9039C53.7665 26.8796 49.4079 27.0359 45.1743 27.3728C40.1767 27.7706 34.958 28.4515 29.5184 29.4155C28.6725 29.5654 27.8619 29.0231 27.673 28.1911L27.6627 28.1418L27.5725 27.6736C24.6484 12.3 26.7082 4.61328 33.752 4.61328Z" fill="#FF4154"/>
<path d="M48.502 32.1055H62.2628C64.2752 32.1055 66.134 33.1818 67.1357 34.9272L74.0451 46.9666C75.0391 48.6985 75.0391 50.8278 74.0451 52.5597L67.1357 64.5991C66.134 66.3445 64.2752 67.4209 62.2628 67.4209H48.502C46.4896 67.4209 44.6309 66.3445 43.6292 64.5991L36.7197 52.5597C35.7258 50.8278 35.7258 48.6985 36.7197 46.9666L43.6292 34.9272C44.6309 33.1818 46.4896 32.1055 48.502 32.1055ZM60.1655 35.7392C62.179 35.7392 64.0386 36.8167 65.0399 38.5636L69.858 46.9692C70.85 48.6998 70.85 50.8266 69.858 52.5572L65.0399 60.9628C64.0386 62.7096 62.179 63.7871 60.1655 63.7871H50.5993C48.5858 63.7871 46.7263 62.7096 45.7249 60.9628L40.9068 52.5572C39.9149 50.8266 39.9149 48.6998 40.9068 46.9692L45.7249 38.5636C46.7263 36.8167 48.5858 35.7392 50.5993 35.7392H60.1655ZM57.905 39.7136H52.8598C50.8484 39.7136 48.9904 40.7889 47.9883 42.533L45.4423 46.9641C44.4465 48.6973 44.4465 50.829 45.4423 52.5622L47.9883 56.9934C48.9904 58.7374 50.8484 59.8127 52.8598 59.8127H57.905C59.9165 59.8127 61.7744 58.7374 62.7765 56.9934L65.3225 52.5622C66.3184 50.829 66.3184 48.6973 65.3225 46.9641L62.7765 42.533C61.7744 40.7889 59.9165 39.7136 57.905 39.7136ZM55.7284 43.5177C57.7383 43.5177 59.5951 44.5914 60.5978 46.3334L60.9587 46.9605C61.9573 48.6955 61.9573 50.8308 60.9587 52.5658L60.5978 53.193C59.5951 54.935 57.7383 56.0086 55.7284 56.0086H55.0365C53.0266 56.0086 51.1697 54.935 50.1671 53.193L49.8061 52.5658C48.8075 50.8308 48.8075 48.6955 49.8061 46.9605L50.1671 46.3334C51.1697 44.5914 53.0266 43.5177 55.0365 43.5177H55.7284ZM55.3833 47.265C54.4888 47.265 53.6638 47.7411 53.2171 48.5141C52.7705 49.2869 52.7705 50.2394 53.2171 51.0123C53.6638 51.7852 54.4888 52.2614 55.3815 52.2614C56.2761 52.2614 57.1011 51.7852 57.5477 51.0123C57.9943 50.2394 57.9943 49.2869 57.5477 48.5141C57.1011 47.7411 56.2761 47.265 55.3833 47.265ZM35.1147 49.7632H39.6126H35.1147Z" fill="#FFD94C"/>
<path d="M143.932 76.0488V57.6613H153.981L163.436 76.0488H176.091L166.339 55.9491C169.267 54.758 171.575 52.6984 173.262 49.7703C174.95 46.8422 175.793 43.8397 175.793 40.7627C175.793 35.7998 174.391 31.7551 171.587 28.6285C168.783 25.5018 164.255 23.9385 158.001 23.9385H132.616V76.0488H143.932ZM158.15 46.9415H143.932V34.6584H158.15C160.235 34.6584 161.736 35.2415 162.654 36.4078C163.572 37.574 164.031 39.0257 164.031 40.7627C164.031 44.8819 162.071 46.9415 158.15 46.9415ZM193.029 76.9421C199.084 76.9421 204.022 74.6344 207.843 70.0189L201.59 63.7657C199.357 66.4456 196.503 67.7856 193.029 67.7856C190.895 67.7856 189.133 67.2025 187.744 66.0362C186.354 64.8699 185.609 63.0957 185.51 60.7135H209.853C210.052 59.4231 210.151 57.5621 210.151 55.1302C210.151 49.274 208.563 44.8075 205.387 41.7305C202.21 38.6535 198.091 37.115 193.029 37.115C187.471 37.115 183.066 38.9016 179.815 42.4749C176.565 46.0482 174.939 50.887 174.939 56.9913C174.939 63.2446 176.552 68.133 179.778 71.6566C183.004 75.1803 187.421 76.9421 193.029 76.9421ZM199.803 52.5992H185.585C185.833 50.614 186.577 49.0631 187.818 47.9465C189.059 46.8298 190.647 46.2715 192.582 46.2715C196.85 46.2715 199.257 48.3807 199.803 52.5992ZM225.526 76.9421C229.546 76.9421 232.697 75.7014 234.98 73.22V76.0488H245.7V52.0036C245.7 42.0779 240.315 37.115 229.546 37.115C223.342 37.115 217.908 38.7031 213.242 41.8794L216.592 50.1426C220.612 47.4626 224.682 46.1226 228.801 46.1226C230.737 46.1226 232.25 46.5817 233.342 47.4998C234.434 48.4179 234.98 49.7455 234.98 51.4825V53.5669C232.995 52.6736 230.215 52.227 226.642 52.227C222.523 52.227 218.925 53.2816 215.848 55.3908C212.771 57.5 211.232 60.515 211.232 64.4356C211.232 68.4556 212.56 71.545 215.215 73.7038C217.87 75.8627 221.307 76.9421 225.526 76.9421ZM227.61 67.86C223.739 67.86 221.803 66.7434 221.803 64.5101C221.803 62.0783 224.037 60.8624 228.503 60.8624C230.836 60.8624 232.995 61.1601 234.98 61.7557V65.1801C232.747 66.9667 230.29 67.86 227.61 67.86ZM266.434 76.9421C275.07 76.9421 280.653 72.6492 283.184 64.0634L272.836 61.0857C271.695 64.7582 269.561 66.5945 266.434 66.5945C264.449 66.5945 262.811 65.7136 261.521 63.9518C260.231 62.1899 259.585 59.8946 259.585 57.0658C259.585 54.2369 260.243 51.9292 261.558 50.1426C262.873 48.3559 264.548 47.4626 266.583 47.4626C269.511 47.4626 271.596 49.1003 272.836 52.3758L283.11 49.0259C280.628 41.0853 275.07 37.115 266.434 37.115C261.074 37.115 256.769 38.914 253.518 42.5121C250.268 46.1102 248.642 50.9614 248.642 57.0658C248.642 63.2694 250.255 68.133 253.481 71.6566C256.707 75.1803 261.025 76.9421 266.434 76.9421ZM298.112 76.9421C301.536 76.9421 304.415 76.3714 306.747 75.2299L307.938 66.1478C305.755 67.1404 303.571 67.6367 301.387 67.6367C300.792 67.6367 300.283 67.4506 299.861 67.0784C299.44 66.7062 299.229 66.1727 299.229 65.4779V47.4626H307.492V38.0083H299.229V22.3008L288.509 27.4374V38.0083H283.298V47.4626H288.509V66.5201C288.509 73.4681 291.71 76.9421 298.112 76.9421ZM357.15 82.0787L365.487 76.7188L361.467 70.8378C366.381 65.726 368.837 58.778 368.837 49.9937C368.837 46.6189 368.403 43.393 367.534 40.316C366.666 37.2391 365.363 34.373 363.626 31.7178C361.889 29.0627 359.482 26.9535 356.405 25.3902C353.328 23.8269 349.78 23.0452 345.76 23.0452C342.484 23.0452 339.519 23.5663 336.864 24.6085C334.209 25.6507 332.013 27.0527 330.276 28.8146C328.539 30.5764 327.087 32.6236 325.921 34.9561C324.754 37.2887 323.911 39.7081 323.39 42.2143C322.869 44.7206 322.608 47.3137 322.608 49.9937C322.608 52.6736 322.869 55.2667 323.39 57.773C323.911 60.2792 324.754 62.6986 325.921 65.0312C327.087 67.3638 328.539 69.4109 330.276 71.1728C332.013 72.9346 334.209 74.3366 336.864 75.3788C339.519 76.421 342.484 76.9421 345.76 76.9421C348.241 76.9421 350.648 76.6195 352.981 75.9744L357.15 82.0787ZM345.76 65.999C343.725 65.999 341.938 65.5151 340.4 64.5473C338.861 63.5796 337.67 62.2892 336.827 60.6763C335.983 59.0633 335.363 57.3635 334.966 55.5769C334.569 53.7903 334.37 51.9292 334.37 49.9937C334.37 47.413 334.693 44.9687 335.338 42.661C335.983 40.3533 337.211 38.3185 339.023 36.5567C340.834 34.7948 343.08 33.9139 345.76 33.9139C348.44 33.9139 350.673 34.77 352.46 36.4822C354.246 38.1944 355.462 40.2044 356.107 42.5121C356.753 44.8199 357.075 47.3137 357.075 49.9937C357.075 54.361 356.281 57.8846 354.693 60.5646L350.524 54.3114L342.112 59.7457L346.355 65.9245H345.983L345.76 65.999ZM385.18 76.9421C389.745 76.9421 393.22 75.4781 395.602 72.55V76.0488H406.396V38.0083H395.602V57.9591C395.602 60.8872 395.068 63.046 394.001 64.4356C392.934 65.8253 391.259 66.5201 388.976 66.5201C386.693 66.5201 385.105 65.8253 384.212 64.4356C383.319 63.046 382.872 60.8376 382.872 57.8102V38.0083H372.078V62.7235C372.078 65.3042 372.487 67.5623 373.306 69.4978C374.125 71.4333 375.204 72.9222 376.544 73.9644C377.884 75.0066 379.274 75.7634 380.713 76.2349C382.152 76.7064 383.641 76.9421 385.18 76.9421ZM428.173 76.9421C434.227 76.9421 439.165 74.6344 442.987 70.0189L436.734 63.7657C434.5 66.4456 431.647 67.7856 428.173 67.7856C426.039 67.7856 424.277 67.2025 422.887 66.0362C421.498 64.8699 420.753 63.0957 420.654 60.7135H444.997C445.195 59.4231 445.295 57.5621 445.295 55.1302C445.295 49.274 443.707 44.8075 440.53 41.7305C437.354 38.6535 433.235 37.115 428.173 37.115C422.614 37.115 418.21 38.9016 414.959 42.4749C411.708 46.0482 410.083 50.887 410.083 56.9913C410.083 63.2446 411.696 68.133 414.922 71.6566C418.148 75.1803 422.565 76.9421 428.173 76.9421ZM434.947 52.5992H420.728C420.977 50.614 421.721 49.0631 422.962 47.9465C424.202 46.8298 425.791 46.2715 427.726 46.2715C431.994 46.2715 434.401 48.3807 434.947 52.5992ZM459.404 76.0488V55.428C459.404 50.1674 461.587 47.537 465.955 47.537C468.387 47.537 470.645 48.4055 472.729 50.1426L474.143 40.316C472.109 38.182 469.602 37.115 466.625 37.115C464.888 37.115 463.374 37.5865 462.084 38.5294C460.793 39.4724 459.9 40.4401 459.404 41.4327V38.0083H448.609V76.0488H459.404ZM491.751 90.4908L512 38.0083H500.908L493.24 58.3313C492.694 59.8202 492.297 61.0113 492.049 61.9046C491.801 61.0113 491.404 59.8202 490.858 58.3313L483.116 38.0083H471.95L486.317 75.6021L480.585 90.4908H491.751Z" fill="#00435B"/>
</g>
<defs>
<clipPath id="clip0_1_9289">
<rect width="512" height="100" fill="white"/>
</clipPath>
</defs>
</svg>
