<svg width="256" height="230" viewBox="0 0 256 230" fill="none" xmlns="http://www.w3.org/2000/svg">
<g clip-path="url(#clip0_1_9282)">
<path d="M157.98 142.485L153.07 151.012C151.59 153.581 148.852 155.164 145.888 155.164H108.271C105.306 155.164 102.568 153.581 101.089 151.012L96.1777 142.485H157.98ZM171.727 118.615L163.069 133.649H91.089L82.431 118.615H171.727ZM163.387 95.2732L171.741 109.78H82.4172L90.7713 95.2732H163.387ZM145.888 73.207C148.852 73.207 151.59 74.7901 153.07 77.3587L158.298 86.4371H95.86L101.089 77.3587C102.568 74.7901 105.306 73.207 108.271 73.207H145.888Z" fill="#00435B"/>
<path d="M53.5228 69.252C49.3558 49.046 48.4615 33.5482 51.155 22.2947C52.757 15.6017 55.6858 10.1417 60.1393 6.20238C64.8409 2.04349 70.7854 0.00271401 77.4646 0.00271401C88.4833 0.00271401 100.067 5.02739 112.446 14.5729C117.495 18.4664 122.735 23.1593 128.177 28.6544C128.611 28.0968 129.1 27.5708 129.646 27.0846C145.032 13.3733 157.986 4.85421 169.066 1.56952C175.654 -0.383548 181.839 -0.56962 187.471 1.32591C193.417 3.32676 198.154 7.46281 201.497 13.2561C207.013 22.8171 208.467 35.3803 206.411 50.8927C205.573 57.2157 204.14 64.1033 202.115 71.5661C202.879 71.6583 203.645 71.8277 204.403 72.0789C223.924 78.5482 237.748 85.5051 246.117 93.4556C251.096 98.186 254.348 103.452 255.524 109.282C256.764 115.435 255.554 121.606 252.216 127.395C246.71 136.943 236.587 144.472 222.164 150.436C216.373 152.831 209.821 155 202.5 156.951C202.834 157.705 203.094 158.506 203.267 159.346C207.434 179.552 208.328 195.05 205.635 206.303C204.033 212.996 201.104 218.456 196.65 222.396C191.949 226.555 186.004 228.595 179.325 228.595C168.306 228.595 156.723 223.571 144.344 214.025C139.241 210.09 133.943 205.339 128.438 199.768C127.872 200.654 127.177 201.477 126.354 202.21C110.968 215.922 98.014 224.441 86.9344 227.725C80.3464 229.679 74.1611 229.865 68.5286 227.969C62.5831 225.968 57.8457 221.832 54.5033 216.039C48.9872 206.478 47.5326 193.915 49.5891 178.402C50.4576 171.851 51.9648 164.693 54.1071 156.917C53.2697 156.833 52.4289 156.655 51.5974 156.38C32.0755 149.911 18.252 142.954 9.88292 135.003C4.90352 130.273 1.65191 125.007 0.476477 119.177C-0.764196 113.024 0.445557 106.852 3.78402 101.063C9.28982 91.5163 19.4134 83.9865 33.8357 78.0224C39.7993 75.5562 46.5701 73.3296 54.156 71.3343C53.8858 70.6726 53.6723 69.9769 53.5228 69.252Z" fill="#002B3B"/>
<path d="M189.647 161.332C191.588 160.988 193.448 162.233 193.882 164.142L193.905 164.255L194.112 165.33C200.822 200.606 196.096 218.245 179.933 218.245C164.119 218.245 143.988 203.194 119.54 173.092C119 172.427 118.708 171.594 118.716 170.738C118.733 168.742 120.335 167.131 122.317 167.087L122.431 167.087L123.719 167.096C134.007 167.152 144.008 166.793 153.723 166.02C165.19 165.107 177.165 163.545 189.647 161.332ZM78.6459 134.667L78.7079 134.771L79.3539 135.899C84.5307 144.899 89.9243 153.441 95.5346 161.525C102.142 171.046 109.572 180.684 117.825 190.44C119.101 191.949 118.956 194.189 117.515 195.522L117.422 195.605L116.591 196.32C89.2853 219.717 71.5375 224.388 63.3478 210.332C55.3314 196.574 58.2378 171.559 72.067 135.285C72.3709 134.488 72.9421 133.821 73.6829 133.398C75.4144 132.41 77.6097 132.981 78.6459 134.667ZM203.503 82.6131L203.615 82.6495L204.643 83.0044C238.348 94.7289 251.153 107.614 243.059 121.659C235.143 135.395 212.129 145.397 174.018 151.663C173.168 151.803 172.296 151.64 171.554 151.204C169.8 150.173 169.214 147.915 170.245 146.161C175.703 136.876 180.62 127.637 184.994 118.445C189.954 108.02 194.609 96.8293 198.959 84.8743C199.619 83.0618 201.556 82.0773 203.391 82.5804L203.503 82.6131ZM84.4465 76.7099C86.2002 77.7409 86.7861 79.9983 85.7551 81.752C80.2966 91.0372 75.3803 100.276 71.0064 109.469C66.0459 119.894 61.3907 131.084 57.0409 143.039C56.3679 144.889 54.3644 145.876 52.4966 145.3L52.3847 145.264L51.357 144.909C17.6522 133.185 4.84691 120.3 12.941 106.255C20.8573 92.5182 43.8711 82.5168 81.9822 76.2506C82.832 76.1109 83.704 76.2734 84.4465 76.7099ZM192.652 18.9624C200.669 32.7203 197.762 57.7361 183.933 94.0096C183.629 94.8067 183.058 95.4736 182.317 95.8965C180.586 96.8847 178.39 96.3141 177.354 94.628L177.292 94.5234L176.646 93.396C171.469 84.3958 166.076 75.8536 160.465 67.7693C153.858 58.2487 146.428 48.6105 138.175 38.8549C136.899 37.3457 137.044 35.1055 138.485 33.7732L138.578 33.6895L139.409 32.9747C166.715 9.57793 184.463 4.90714 192.652 18.9624ZM77.4489 10.5898C93.2627 10.5898 113.394 25.6406 137.841 55.7423C138.382 56.4073 138.673 57.2399 138.666 58.0967C138.648 60.0926 137.046 61.7038 135.065 61.747L134.95 61.7478L133.662 61.7386C123.375 61.6829 113.373 62.0416 103.659 62.8147C92.191 63.7274 80.2162 65.2898 67.7343 67.5019C65.7932 67.8459 63.9332 66.6015 63.4998 64.6923L63.476 64.5792L63.2691 63.5048C56.5593 28.2282 61.2858 10.5898 77.4489 10.5898Z" fill="#FF4154"/>
<path d="M111.295 73.668H142.87C147.488 73.668 151.753 76.1378 154.052 80.1429L169.907 107.769C172.187 111.743 172.187 116.629 169.907 120.603L154.052 148.229C151.753 152.234 147.488 154.704 142.87 154.704H111.295C106.677 154.704 102.412 152.234 100.113 148.229L84.2584 120.603C81.9776 116.629 81.9776 111.743 84.2584 107.769L100.113 80.1429C102.412 76.1378 106.677 73.668 111.295 73.668ZM138.058 82.0061C142.678 82.0061 146.945 84.4785 149.243 88.487L160.299 107.775C162.575 111.746 162.575 116.626 160.299 120.597L149.243 139.885C146.945 143.893 142.678 146.366 138.058 146.366H116.107C111.487 146.366 107.22 143.893 104.922 139.885L93.8663 120.597C91.5901 116.626 91.5901 111.746 93.8663 107.775L104.922 88.487C107.22 84.4785 111.487 82.0061 116.107 82.0061H138.058ZM132.871 91.1259H121.294C116.679 91.1259 112.415 93.5933 110.116 97.5952L104.274 107.763C101.989 111.74 101.989 116.632 104.274 120.609L110.116 130.777C112.415 134.779 116.679 137.246 121.294 137.246H132.871C137.486 137.246 141.75 134.779 144.049 130.777L149.891 120.609C152.177 116.632 152.177 111.74 149.891 107.763L144.049 97.5952C141.75 93.5933 137.486 91.1259 132.871 91.1259ZM127.876 99.8548C132.488 99.8548 136.749 102.319 139.05 106.316L139.878 107.755C142.17 111.736 142.17 116.636 139.878 120.617L139.05 122.056C136.749 126.053 132.488 128.517 127.876 128.517H126.289C121.677 128.517 117.416 126.053 115.115 122.056L114.287 120.617C111.996 116.636 111.996 111.736 114.287 107.755L115.115 106.316C117.416 102.319 121.677 99.8548 126.289 99.8548H127.876ZM127.085 108.454C125.032 108.454 123.139 109.546 122.114 111.32C121.089 113.093 121.089 115.279 122.114 117.052C123.139 118.826 125.032 119.918 127.08 119.918C129.133 119.918 131.026 118.826 132.051 117.052C133.076 115.279 133.076 113.093 132.051 111.32C131.026 109.546 129.133 108.454 127.085 108.454ZM80.5756 114.186H90.8964H80.5756Z" fill="#FFD94C"/>
</g>
<defs>
<clipPath id="clip0_1_9282">
<rect width="256" height="230" fill="white"/>
</clipPath>
</defs>
</svg>
