<svg width="256" height="247" viewBox="0 0 256 247" fill="none" xmlns="http://www.w3.org/2000/svg">
<g clip-path="url(#clip0_1_9387)">
<path d="M16.6852 157.126C3.56694 87.3806 38.2363 20.1153 117.809 11.167C106.836 -0.557991 91.8452 -0.646095 84.9482 0.780191C72.7703 4.66125 73.1526 12.5417 59.339 22.7208C45.6065 30.5642 38.7094 24.5576 28.7058 32.6888C18.7235 40.7592 25.6889 59.286 21.5023 62.8879C17.3465 70.0914 4.45504 76.5085 2.10837 85.6071C0.168977 97.2429 7.37244 105.555 7.09538 115.529C7.92655 123.84 -1.17918 128.54 0.129081 135.277C4.04777 146.282 11.6009 152.906 15.1616 155.959C15.9781 156.534 16.8405 157.952 16.6852 157.126Z" fill="#FF0090"/>
<path d="M158.276 60.5781C155.369 60.5781 153.011 58.221 153.011 55.314C153.011 52.407 155.369 50.0499 158.276 50.0499C161.183 50.0499 163.54 52.407 163.54 55.314C163.54 58.221 161.183 60.5781 158.276 60.5781ZM19.7567 164.732C7.15007 104.116 46.1603 53.4671 121.704 78.4022C166.031 104.334 221.793 102.646 224.307 85.8827C230.514 65.7874 196.048 24.3762 144.515 13.571C42.2815 -6.37701 -12.8335 104.116 19.7567 164.732Z" fill="url(#paint0_radial_1_9387)"/>
<path d="M187.459 171.493C202.639 173.137 217.049 169.494 230.402 158.61C210.228 181.112 185.003 192.426 156.059 195.505C169.879 207.253 183.206 212.546 195.955 210.281C160.529 220.056 130.848 209.296 94.7425 173.34C92.8518 183.019 103.075 198.1 113.612 207.727C52.4743 181.221 47.1144 98.6539 121.665 78.3436C44.3845 41.2141 0.68643 113.357 22.1559 172.485C43.1624 218.026 99.1403 253.085 160.492 245.375C190.293 241.725 234.794 221.178 252.974 172.485C240.161 183.983 217.258 193.997 207.038 194.765C241.629 177.478 260.302 148.103 255.06 107.955C247.895 125.013 238.441 138.114 226.616 147.112C251.736 107.955 247.425 87.7158 228.833 65.4727C242.131 102.044 224.928 142.633 187.459 171.493Z" fill="url(#paint1_radial_1_9387)"/>
<path d="M169.707 213.625C167.082 213.134 175.657 217.098 159.079 212.709C142.502 208.321 125.623 204.092 94.7425 173.34C92.8518 183.019 103.075 198.1 113.612 207.726C142.056 227.564 122.712 218.286 166.052 233.269C169.53 226.346 169.707 220.195 169.707 213.625Z" fill="url(#paint2_linear_1_9387)"/>
<path d="M114.601 57.8521C114.601 57.8521 118.369 52.2905 119.836 49.7821C121.634 46.7083 124.394 41.1057 124.394 41.1057C124.394 41.1057 95.3896 31.6429 88.2717 30.4883C66.1451 36.232 66.0645 45.5021 78.4351 59.6912C79.8115 61.2705 114.601 57.8521 114.601 57.8521Z" fill="url(#paint3_linear_1_9387)"/>
</g>
<defs>
<radialGradient id="paint0_radial_1_9387" cx="0" cy="0" r="1" gradientUnits="userSpaceOnUse" gradientTransform="translate(16915.7 5822.21) scale(19289.6 13798.8)">
<stop stop-color="#F80090"/>
<stop offset="1" stop-color="#4D008E"/>
</radialGradient>
<radialGradient id="paint1_radial_1_9387" cx="0" cy="0" r="1" gradientUnits="userSpaceOnUse" gradientTransform="translate(16461.3 861.437) scale(19552.1 14790.4)">
<stop stop-color="#57008E"/>
<stop offset="0.291746" stop-color="#5C008E"/>
<stop offset="1" stop-color="#F80090"/>
</radialGradient>
<linearGradient id="paint2_linear_1_9387" x1="1465.91" y1="173.34" x2="4922.04" y2="5985.71" gradientUnits="userSpaceOnUse">
<stop stop-color="#F70090"/>
<stop offset="0.669713" stop-color="#E50090"/>
<stop offset="0.827148" stop-color="#D6008F" stop-opacity="0.2"/>
<stop offset="1" stop-color="#C10090" stop-opacity="0"/>
</linearGradient>
<linearGradient id="paint3_linear_1_9387" x1="3591.17" y1="2150.03" x2="3089.59" y2="1189.41" gradientUnits="userSpaceOnUse">
<stop stop-color="#B2008F" stop-opacity="0.15134"/>
<stop offset="0.400351" stop-color="#F70090" stop-opacity="0.4"/>
<stop offset="0.648996" stop-color="#F60090" stop-opacity="0.891668"/>
<stop offset="1" stop-color="#FF0090"/>
</linearGradient>
<clipPath id="clip0_1_9387">
<rect width="256" height="247" fill="white"/>
</clipPath>
</defs>
</svg>
