<svg width="256" height="174" viewBox="0 0 256 174" fill="none" xmlns="http://www.w3.org/2000/svg">
<g clip-path="url(#clip0_1_9315)">
<path d="M75.5369 157.504C80.3054 164.159 87.031 167.777 95.6061 167.777C106.719 167.777 115.665 163.182 121.779 155.076C127.104 148.017 129.959 138.609 129.959 129.189V115.841L103.265 116.028L102.194 134.769C102.194 141.176 99.9209 143.307 94.1943 143.307C89.7585 143.307 86.6178 138.664 85.623 130.555L81.0818 97.1948C79.3101 85.6927 74.9948 76.7595 68.5157 70.2786C62.9647 64.7257 56.0023 61.1492 48.1675 59.3609L26.1647 53.5586C23.0616 53.5586 20.8183 55.9953 20.8183 58.7661C20.8183 63.3605 21.3628 65.6104 24.0362 68.8871C24.8009 69.8245 26.0348 70.6541 27.7609 71.5191C29.5425 72.4118 31.8564 73.3351 34.5905 74.28C36.7905 75.0409 39.1388 75.7732 41.4865 76.4527C42.4534 76.7324 43.4228 77.0028 44.3948 77.264C52.7684 79.5205 59.1967 87.5614 60.136 95.9699L67.7618 135.045C68.951 144.179 71.4927 151.862 75.5369 157.504ZM129.74 116.483H104.196L104.234 118.874L104.476 133.982C104.476 140.304 99.8913 144.184 93.7025 144.184C89.2545 144.184 85.0847 139.495 80.1115 129.75L65.6672 101.751C59.2188 90.5628 50.5651 84.4485 37.047 81.7934L16.5637 76.5313C13.2931 76.5313 10.791 80.5788 10.791 83.4654C10.791 86.7633 12.2291 90.2574 14.4376 92.9854C16.4329 95.4513 20.6701 97.6014 24.6164 98.4306L33.2145 100.263C40.0465 102.57 46.3792 107.274 49.3242 112.831L60.2033 138.908C64.3035 147.891 68.4988 154.464 73.5162 159.21C79.3943 164.77 86.3181 167.66 94.5797 167.66C102.149 167.66 110.005 164.966 116.081 160.142C122.835 154.781 126.981 147.194 127.532 138.192L129.74 116.483Z" fill="#053949"/>
<path d="M69.5095 119.464L64.8018 95.3512C63.6159 85.1178 55.8949 75.4915 45.8173 72.7743C45.543 72.7016 45.2689 72.6279 44.9952 72.5531C44.3316 72.3719 43.5919 72.1644 42.7942 71.9338C40.5185 71.275 38.2437 70.5653 36.1279 69.834C33.5726 68.9507 31.4333 68.0976 29.8691 67.3136C29.2479 67.002 28.7321 66.7084 28.3349 66.4411C27.9947 66.2129 27.7721 66.0237 27.6827 65.914C25.83 63.643 25.5241 62.3799 25.5241 58.7677C25.5241 58.6444 25.5853 58.4929 25.6898 58.379C25.7128 58.3545 47.0055 63.9225 47.0055 63.9225C54.1128 65.5399 60.2931 68.7107 65.1876 73.6072C70.9359 79.3569 74.8065 87.37 76.4244 97.8722L80.9561 131.16C82.2003 141.303 86.7396 148.014 94.1942 148.014C102.433 148.014 106.878 143.868 106.9 134.907L107.711 120.705L125.253 120.582V129.191C125.253 137.631 122.701 146.041 118.022 152.245C112.785 159.187 105.22 163.073 95.606 163.073C94.6498 163.075 93.6944 163.017 92.7453 162.9C80.5312 162.155 72.1947 153.831 64.5312 137.061L53.5872 110.829C49.9735 103.916 42.5646 98.4199 34.5801 95.7587L25.5909 93.8284C22.6051 93.2006 19.3119 91.53 18.0954 90.0265C16.5208 88.0816 15.4968 85.5936 15.4968 83.4665C15.4968 83.2039 15.7542 82.4627 16.1368 81.8444C16.2526 81.6566 16.3698 81.4952 16.4775 81.3691L36.0093 86.3865C48.2884 88.7851 55.7928 94.0684 61.5359 104.008L69.5095 119.464Z" fill="#00D8FE"/>
<path d="M69.5095 119.464L64.8018 95.3512C63.6159 85.1178 55.8949 75.4915 45.8173 72.7743C45.543 72.7016 45.2689 72.6279 44.9952 72.5531C44.3316 72.3719 43.5919 72.1644 42.7942 71.9338C40.5185 71.275 38.2437 70.5653 36.1279 69.834C33.5726 68.9507 31.4333 68.0976 29.8691 67.3136C29.2479 67.002 28.7321 66.7084 28.3349 66.4411C27.9947 66.2129 27.7721 66.0237 27.6827 65.914C25.83 63.643 25.5241 62.3799 25.5241 58.7677C25.5241 58.6444 25.5853 58.4929 25.6898 58.379C25.7128 58.3545 47.0055 63.9225 47.0055 63.9225C54.1128 65.5399 60.2931 68.7107 65.1876 73.6072C70.9359 79.3569 74.8065 87.37 76.4244 97.8722L80.9561 131.16C82.2003 141.303 86.7396 148.014 94.1942 148.014C102.433 148.014 106.878 143.868 106.9 134.907L107.711 120.705L125.253 120.582V129.191C125.253 137.631 122.701 146.041 118.022 152.245C112.785 159.187 105.22 163.073 95.606 163.073C94.6498 163.075 93.6944 163.017 92.7453 162.9C80.5312 162.155 72.1947 153.831 64.5312 137.061L53.5872 110.829C49.9735 103.916 42.5646 98.4199 34.5801 95.7587L25.5909 93.8284C22.6051 93.2006 19.3119 91.53 18.0954 90.0265C16.5208 88.0816 15.4968 85.5936 15.4968 83.4665C15.4968 83.2039 15.7542 82.4627 16.1368 81.8444C16.2526 81.6566 16.3698 81.4952 16.4775 81.3691L36.0093 86.3865C48.2884 88.7851 55.7928 94.0684 61.5359 104.008L69.5095 119.464Z" fill="#00D8FE"/>
<path d="M16.4141 80.9751C16.8263 81.684 17.3063 82.3511 17.8475 82.9671C19.1689 84.4707 22.7439 86.1413 25.9858 86.769L35.7458 88.6994C44.415 91.3606 52.4592 96.8575 56.383 103.77L68.2654 130.002C69.8814 133.258 71.5246 136.197 73.2216 138.823C72.8979 137.19 72.6302 135.547 72.4188 133.896L69.5096 118.993L61.5359 103.537C55.7929 93.5968 48.2884 88.3135 36.0094 85.9149L16.4776 80.8984L16.4141 80.9751Z" fill="black" fill-opacity="0.25"/>
<path d="M111.606 120.675V133.897C111.606 142.978 107.945 152.25 95.0622 152.25C87.2231 152.25 79.2387 147.425 76.6354 129.26L71.5709 94.368C70.257 84.1345 60.0702 69.8451 48.8998 67.128C48.4725 67.0254 32.9563 62.4508 31.2227 61.6672C30.5337 61.3557 28.8979 60.3774 28.7987 60.2672C28.1991 59.6047 27.7459 59.0277 27.4043 58.4531C29.9436 59.1072 47.9629 63.9232 47.9629 63.9232C54.9168 65.5407 60.9634 68.7115 65.7521 73.6079C71.3756 79.3576 75.1629 87.3708 76.7455 97.8729L81.1789 131.161C82.3968 141.304 86.8382 148.015 94.1309 148.015C102.192 148.015 106.54 143.869 106.562 134.907L107.356 120.705L111.606 120.675Z" fill="black" fill-opacity="0.25"/>
<path d="M130.43 132.015V115.544H103.136V117.897C103.136 139.077 97.3308 148.25 84.312 148.25C72.8235 148.25 64.9214 140.043 59.8913 126.578C54.1529 111.216 45.4499 104.25 28.4828 104.25H5.25318C2.31765 104.25 5.30817e-06 106.671 5.30817e-06 109.594C-0.00320626 113.249 1.451 116.754 4.04048 119.333C6.62939 121.924 10.1437 123.376 13.8061 123.37L28.5388 123.309C31.6009 123.309 34.5605 125.55 37.6005 130.13C40.1341 133.947 42.2682 138.47 45.6598 146.688C48.7007 154.057 52.8692 160.303 58.4442 165.01C65.2649 170.769 73.8504 173.897 84.312 173.897C95.5751 173.897 107.032 169.792 115.685 162.604C125.026 154.844 130.43 144.137 130.43 132.015Z" fill="#053949"/>
<path d="M125.724 120.247V132.012C125.724 142.683 120.978 152.087 112.678 158.981C104.873 165.465 94.4813 169.188 84.3119 169.188C74.9599 169.188 67.4503 166.452 61.4799 161.411C56.5406 157.241 52.7835 151.611 50.0098 144.89C46.5025 136.392 44.2795 131.68 41.5209 127.524C37.6988 121.766 33.5176 118.6 28.5289 118.6L13.7962 118.661C11.3837 118.666 9.06899 117.708 7.36511 116C5.66002 114.304 4.70274 111.997 4.70582 109.592C4.70582 109.222 4.9637 108.953 5.25311 108.953H28.4828C43.3458 108.953 50.3919 114.593 55.4828 128.221C57.9157 134.735 61.1119 140.347 65.2301 144.624C70.3948 149.988 76.7543 152.953 84.3119 152.953C99.9472 152.953 107.331 142.124 107.816 120.247H125.724Z" fill="#00D8FE"/>
<path d="M4.85132 109.157C5.28049 109.703 5.88661 110.193 6.6452 110.881C8.26638 112.352 10.4471 113.188 12.7826 113.188H32.0767C42.832 113.188 48.424 121.591 55.4485 137.059C58.096 142.887 65.3167 156.953 85.7238 156.953C106.131 156.953 112.077 137.03 112.077 127.777V120.247H107.816C107.331 142.124 99.9473 152.953 84.312 152.953C76.7544 152.953 70.3949 149.988 65.2297 144.624C61.112 140.347 57.9163 134.735 55.4828 128.221C50.392 114.593 43.3459 108.953 28.4828 108.953H5.2532C5.09885 108.953 4.95344 109.03 4.85132 109.157Z" fill="black" fill-opacity="0.25"/>
<path d="M179.675 157.504C174.907 164.159 168.181 167.777 159.606 167.777C148.493 167.777 139.547 163.182 133.433 155.076C128.108 148.017 125.253 138.609 125.253 129.189V115.841L151.947 116.028L153.018 134.769C153.018 141.176 155.291 143.307 161.018 143.307C165.454 143.307 168.594 138.664 169.589 130.555L174.13 97.1948C175.902 85.6927 180.217 76.7595 186.696 70.2786C192.248 64.7257 199.21 61.1492 207.045 59.3609L229.048 53.5586C232.151 53.5586 234.394 55.9953 234.394 58.7661C234.394 63.3605 233.849 65.6104 231.176 68.8871C230.411 69.8245 229.177 70.6541 227.451 71.5191C225.67 72.4118 223.356 73.3351 220.622 74.28C218.422 75.0409 216.073 75.7732 213.726 76.4527C212.759 76.7324 211.789 77.0028 210.817 77.264C202.444 79.5205 196.016 87.5614 195.076 95.9699L187.45 135.045C186.261 144.179 183.72 151.862 179.675 157.504ZM125.472 116.483H151.016L150.978 118.874L150.736 133.982C150.736 140.304 155.321 144.184 161.51 144.184C165.958 144.184 170.128 139.495 175.101 129.75L189.545 101.751C195.993 90.5628 204.647 84.4485 218.165 81.7934L238.648 76.5313C241.919 76.5313 244.421 80.5788 244.421 83.4654C244.421 86.7633 242.983 90.2574 240.775 92.9854C238.779 95.4513 234.542 97.6014 230.596 98.4306L221.998 100.263C215.166 102.57 208.833 107.274 205.888 112.831L195.009 138.908C190.909 147.891 186.713 154.464 181.696 159.21C175.818 164.77 168.894 167.66 160.632 167.66C153.063 167.66 145.208 164.966 139.131 160.142C132.377 154.781 128.231 147.194 127.68 138.192L125.472 116.483Z" fill="#053949"/>
<path d="M185.703 119.464L190.41 95.3512C191.596 85.1178 199.317 75.4915 209.395 72.7743C210.405 72.5043 211.413 72.2242 212.418 71.9338C214.694 71.275 216.968 70.5653 219.084 69.834C221.639 68.9507 223.779 68.0976 225.343 67.3136C225.964 67.002 226.48 66.7084 226.877 66.4411C227.217 66.2129 227.44 66.0237 227.529 65.914C229.382 63.643 229.688 62.3799 229.688 58.7677C229.688 58.6444 229.627 58.4929 229.522 58.379C229.499 58.3545 208.207 63.9225 208.207 63.9225C201.099 65.5399 194.919 68.7107 190.024 73.6072C184.276 79.3569 180.406 87.37 178.788 97.8722L174.256 131.16C173.012 141.303 168.472 148.014 161.018 148.014C152.779 148.014 148.335 143.868 148.312 134.907L147.501 120.705L129.959 120.582V129.191C129.959 137.631 132.511 146.041 137.191 152.245C142.427 159.187 149.992 163.073 159.606 163.073C160.591 163.073 161.545 163.015 162.467 162.9C174.681 162.155 183.017 153.831 190.681 137.061L201.625 110.829C205.239 103.916 212.647 98.4199 220.632 95.7587L229.621 93.8284C232.607 93.2006 235.9 91.53 237.117 90.0265C238.691 88.0816 239.715 85.5936 239.715 83.4665C239.715 83.2039 239.458 82.4627 239.075 81.8444C238.974 81.6776 238.86 81.5187 238.735 81.3691L219.203 86.3865C206.924 88.7851 199.419 94.0684 193.676 104.008L185.703 119.464Z" fill="#00D8FE"/>
<path d="M185.703 119.464L190.41 95.3512C191.596 85.1178 199.317 75.4915 209.395 72.7743C210.405 72.5043 211.413 72.2242 212.418 71.9338C214.694 71.275 216.968 70.5653 219.084 69.834C221.639 68.9507 223.779 68.0976 225.343 67.3136C225.964 67.002 226.48 66.7084 226.877 66.4411C227.217 66.2129 227.44 66.0237 227.529 65.914C229.382 63.643 229.688 62.3799 229.688 58.7677C229.688 58.6444 229.627 58.4929 229.522 58.379C229.499 58.3545 208.207 63.9225 208.207 63.9225C201.099 65.5399 194.919 68.7107 190.024 73.6072C184.276 79.3569 180.406 87.37 178.788 97.8722L174.256 131.16C173.012 141.303 168.472 148.014 161.018 148.014C152.779 148.014 148.335 143.868 148.312 134.907L147.501 120.705L129.959 120.582V129.191C129.959 137.631 132.511 146.041 137.191 152.245C142.427 159.187 149.992 163.073 159.606 163.073C160.591 163.073 161.545 163.015 162.467 162.9C174.681 162.155 183.017 153.831 190.681 137.061L201.625 110.829C205.239 103.916 212.647 98.4199 220.632 95.7587L229.621 93.8284C232.607 93.2006 235.9 91.53 237.117 90.0265C238.691 88.0816 239.715 85.5936 239.715 83.4665C239.715 83.2039 239.458 82.4627 239.075 81.8444C238.974 81.6776 238.86 81.5187 238.735 81.3691L219.203 86.3865C206.924 88.7851 199.419 94.0684 193.676 104.008L185.703 119.464Z" fill="#00D8FE"/>
<path d="M238.798 80.9761C238.386 81.6849 237.906 82.352 237.365 82.9681C236.043 84.4716 232.468 86.1422 229.226 86.77L219.466 88.7003C210.797 91.3615 202.753 96.8584 198.829 103.771L186.947 130.003C185.331 133.259 183.688 136.198 181.991 138.824C182.314 137.191 182.582 135.548 182.794 133.897L185.703 118.993L193.676 103.537C199.419 93.5977 206.924 88.3144 219.203 85.9158L238.735 80.8984L238.798 80.9761Z" fill="black" fill-opacity="0.25"/>
<path d="M143.606 120.675V133.897C143.606 142.978 147.268 152.25 160.15 152.25C167.989 152.25 175.974 147.425 178.577 129.26L183.641 94.368C184.955 84.1345 195.142 69.8451 206.313 67.128C206.74 67.0254 222.256 62.4508 223.99 61.6672C224.679 61.3557 226.314 60.3774 226.414 60.2672C227.013 59.6047 227.466 59.0277 227.808 58.4531C225.269 59.1072 207.249 63.9232 207.249 63.9232C200.296 65.5407 194.249 68.7115 189.46 73.6079C183.837 79.3576 180.049 87.3708 178.467 97.8729L174.033 131.161C172.816 141.304 168.374 148.015 161.081 148.015C153.021 148.015 148.672 143.869 148.65 134.907L147.857 120.705L143.606 120.675Z" fill="black" fill-opacity="0.25"/>
<path d="M124.783 132.015V115.544H152.077V117.897C152.077 139.077 157.882 148.25 170.9 148.25C182.389 148.25 190.291 140.043 195.321 126.578C201.059 111.216 209.762 104.25 226.73 104.25H249.959C252.895 104.25 255.212 106.671 255.212 109.594C255.216 113.249 253.761 116.754 251.172 119.333C248.583 121.924 245.069 123.376 241.406 123.37L226.674 123.309C223.611 123.309 220.652 125.55 217.612 130.13C215.078 133.947 212.944 138.47 209.553 146.688C206.512 154.057 202.343 160.303 196.768 165.01C189.947 170.769 181.362 173.897 170.9 173.897C159.637 173.897 148.18 169.792 139.528 162.604C130.186 154.844 124.783 144.137 124.783 132.015Z" fill="#053949"/>
<path d="M129.489 120.247V132.012C129.489 142.683 134.234 152.087 142.535 158.981C150.339 165.465 160.731 169.188 170.9 169.188C180.252 169.188 187.762 166.452 193.732 161.411C198.672 157.241 202.429 151.611 205.202 144.89C208.71 136.392 210.933 131.68 213.691 127.524C217.513 121.766 221.695 118.6 226.683 118.6L241.416 118.661C243.863 118.661 246.149 117.696 247.847 116C249.552 114.304 250.509 111.997 250.506 109.592C250.506 109.222 250.249 108.953 249.959 108.953H226.729C211.866 108.953 204.82 114.593 199.729 128.221C197.297 134.735 194.1 140.347 189.982 144.624C184.817 149.988 178.458 152.953 170.9 152.953C155.265 152.953 147.881 142.124 147.396 120.247H129.489Z" fill="#00D8FE"/>
<path d="M250.361 109.157C249.932 109.703 249.326 110.193 248.567 110.881C246.946 112.352 244.765 113.188 242.43 113.188H223.135C212.38 113.188 206.788 121.591 199.764 137.059C197.116 142.887 189.896 156.953 169.488 156.953C149.081 156.953 143.135 137.03 143.135 127.777V120.247H147.396C147.881 142.124 155.265 152.953 170.9 152.953C178.458 152.953 184.817 149.988 189.983 144.624C194.1 140.347 197.296 134.735 199.729 128.221C204.82 114.593 211.866 108.953 226.729 108.953H249.959C250.113 108.953 250.259 109.03 250.361 109.157Z" fill="black" fill-opacity="0.25"/>
<path d="M145.663 125.415C145.663 125.415 132.92 128.835 126.547 128.835C120.176 128.835 107.666 125.415 107.666 125.415C106.581 125.415 105.701 124.535 105.701 123.45V78.9842C105.701 78.4632 105.908 77.9634 106.277 77.595C106.645 77.2265 107.145 77.0195 107.666 77.0195H145.663C146.748 77.0195 147.628 77.8992 147.628 78.9842V123.45C147.628 123.971 147.421 124.471 147.053 124.84C146.684 125.208 146.184 125.415 145.663 125.415Z" fill="#00D8FE"/>
<path d="M139.68 132.645C138.157 132.972 136.703 133.26 135.33 133.506C131.731 134.15 128.829 134.481 126.547 134.481C124.287 134.481 121.438 134.156 117.925 133.524C116.539 133.274 115.065 132.979 113.513 132.641C111.257 132.148 109.012 131.608 106.772 131.02C106.742 131.012 106.714 131.005 106.689 130.998C102.921 130.514 100.054 127.297 100.054 123.449V78.9829C100.054 74.7788 103.462 71.3711 107.666 71.3711H145.663C149.867 71.3711 153.275 74.7788 153.275 78.9829V123.446C153.276 127.304 150.398 130.526 146.619 131.001C144.318 131.596 142.005 132.144 139.68 132.645ZM145.848 125.405C146.851 125.313 147.628 124.466 147.628 123.447V78.9829C147.628 77.8975 146.748 77.0182 145.663 77.0182H107.666C106.581 77.0182 105.701 77.8975 105.701 78.9829V123.449C105.701 124.464 106.477 125.311 107.477 125.405L107.724 125.428L107.963 125.493C108.011 125.506 108.066 125.521 108.213 125.56C110.37 126.127 112.539 126.648 114.717 127.124C116.202 127.447 117.609 127.729 118.926 127.966C122.137 128.544 124.679 128.834 126.547 128.834C128.437 128.834 131.036 128.537 134.335 127.947C135.641 127.713 137.032 127.438 138.493 127.124C140.806 126.626 143.107 126.079 145.396 125.484L145.619 125.426L145.848 125.405Z" fill="#043849"/>
<mask id="mask0_1_9315" style="mask-type:luminance" maskUnits="userSpaceOnUse" x="105" y="77" width="43" height="52">
<path d="M145.663 125.415C145.663 125.415 132.92 128.835 126.547 128.835C120.176 128.835 107.666 125.415 107.666 125.415C106.581 125.415 105.701 124.535 105.701 123.45V78.9842C105.701 78.4632 105.908 77.9634 106.277 77.595C106.645 77.2265 107.145 77.0195 107.666 77.0195H145.663C146.748 77.0195 147.628 77.8992 147.628 78.9842V123.45C147.628 123.971 147.421 124.471 147.053 124.84C146.684 125.208 146.184 125.415 145.663 125.415Z" fill="black" fill-opacity="0.25"/>
</mask>
<g mask="url(#mask0_1_9315)">
<path d="M105.489 91.0703H115.841L110.194 130.6H105.489V91.0703Z" fill="black" fill-opacity="0.25"/>
</g>
<path d="M105.232 110.518C111.741 110.518 117.017 105.251 117.017 98.755C117.017 92.2586 111.741 86.9922 105.232 86.9922C98.7233 86.9922 93.447 92.2586 93.447 98.755C93.447 105.251 98.7233 110.518 105.232 110.518Z" fill="white"/>
<path d="M105.232 113.341C97.1652 113.341 90.6235 106.811 90.6235 98.7543C90.6235 90.6973 97.1652 84.168 105.232 84.168C113.299 84.168 119.84 90.6973 119.84 98.7543C119.84 106.811 113.299 113.341 105.232 113.341ZM105.232 107.694C110.182 107.694 114.193 103.69 114.193 98.7543C114.193 93.8185 110.182 89.815 105.232 89.815C100.282 89.815 96.2706 93.8185 96.2706 98.7543C96.2706 103.69 100.282 107.694 105.232 107.694Z" fill="#063A49"/>
<path d="M105.232 102.454C107.269 102.454 108.92 100.803 108.92 98.7661C108.92 96.7293 107.269 95.0781 105.232 95.0781C103.195 95.0781 101.544 96.7293 101.544 98.7661C101.544 100.803 103.195 102.454 105.232 102.454Z" fill="#053949"/>
<path d="M147.585 110.518C154.094 110.518 159.37 105.251 159.37 98.755C159.37 92.2586 154.094 86.9922 147.585 86.9922C141.076 86.9922 135.8 92.2586 135.8 98.755C135.8 105.251 141.076 110.518 147.585 110.518Z" fill="white"/>
<path d="M147.585 113.341C139.518 113.341 132.977 106.811 132.977 98.7543C132.977 90.6973 139.518 84.168 147.585 84.168C155.652 84.168 162.194 90.6973 162.194 98.7543C162.194 106.811 155.652 113.341 147.585 113.341ZM147.585 107.694C152.535 107.694 156.546 103.69 156.546 98.7543C156.546 93.8185 152.535 89.815 147.585 89.815C142.635 89.815 138.624 93.8185 138.624 98.7543C138.624 103.69 142.635 107.694 147.585 107.694Z" fill="#063A49"/>
<path d="M147.585 102.454C149.622 102.454 151.273 100.803 151.273 98.7661C151.273 96.7293 149.622 95.0781 147.585 95.0781C145.548 95.0781 143.897 96.7293 143.897 98.7661C143.897 100.803 145.548 102.454 147.585 102.454Z" fill="#053949"/>
<path d="M138.051 95.5054C136.77 95.7126 135.486 95.903 134.198 96.0767C131.036 96.5002 128.49 96.7181 126.513 96.7181C124.558 96.7181 122.049 96.4995 118.938 96.0748C117.749 95.9127 116.484 95.7216 115.15 95.503C113.166 95.1776 111.187 94.8209 109.206 94.4314C95.3885 94.182 85.2886 85.1335 85.2886 72.2132V41.3421C85.2886 18.5093 103.798 0 126.631 0C149.516 0 168.04 18.4944 168.04 41.3421V72.2131C168.041 85.1374 157.935 94.187 144.109 94.432C142.095 94.8213 140.075 95.1792 138.051 95.5054ZM143.792 88.7888C154.804 88.6831 162.393 81.9484 162.393 72.2132V41.3421C162.393 21.6152 146.399 5.64706 126.631 5.64706C106.917 5.64706 90.9356 21.6281 90.9356 41.3421V72.2132C90.9356 81.9473 98.523 88.6818 109.532 88.7884L109.798 88.7909L110.059 88.8431L110.281 88.8875C112.203 89.2656 114.131 89.6133 116.063 89.9303C117.349 90.1409 118.564 90.3245 119.702 90.4796C122.581 90.8728 124.857 91.0711 126.513 91.0711C128.196 91.0711 130.513 90.8727 133.445 90.4799C134.682 90.3131 135.917 90.1301 137.151 89.9306C139.2 89.6004 141.243 89.237 143.28 88.8407L143.533 88.7913L143.792 88.7888Z" fill="#043849"/>
<mask id="mask1_1_9315" style="mask-type:luminance" maskUnits="userSpaceOnUse" x="90" y="5" width="73" height="87">
<path d="M143.536 88.791C143.536 88.791 132.187 91.0724 126.512 91.0724C120.939 91.0724 109.793 88.791 109.793 88.791C99.3784 88.791 90.9355 82.6296 90.9355 72.2146V41.3435C90.9355 21.6296 106.917 5.64844 126.631 5.64844C146.412 5.64844 162.393 21.6296 162.393 41.3435V72.2146C162.393 82.6296 153.95 88.791 143.536 88.791Z" fill="#00D8FE"/>
</mask>
<g mask="url(#mask1_1_9315)">
<path d="M143.536 88.791C143.536 88.791 132.187 91.0724 126.512 91.0724C120.939 91.0724 109.793 88.791 109.793 88.791C99.3784 88.791 90.9355 82.6296 90.9355 72.2146V41.3435C90.9355 21.6296 106.917 5.64844 126.631 5.64844C146.412 5.64844 162.393 21.6296 162.393 41.3435V72.2146C162.393 82.6296 153.95 88.791 143.536 88.791Z" fill="#00D8FE"/>
</g>
<mask id="mask2_1_9315" style="mask-type:luminance" maskUnits="userSpaceOnUse" x="90" y="5" width="73" height="87">
<path d="M143.536 88.791C143.536 88.791 132.187 91.0724 126.512 91.0724C120.939 91.0724 109.793 88.791 109.793 88.791C99.3784 88.791 90.9355 82.6296 90.9355 72.2146V41.3435C90.9355 21.6296 106.917 5.64844 126.631 5.64844C146.412 5.64844 162.393 21.6296 162.393 41.3435V72.2146C162.393 82.6296 153.95 88.791 143.536 88.791Z" fill="black" fill-opacity="0.25"/>
</mask>
<g mask="url(#mask2_1_9315)">
<path d="M100.77 71.2752V30.9924C100.77 12.9359 114.179 -1.97983 131.582 -4.36195C129.963 -4.5865 128.332 -4.70049 126.698 -4.70312H126.631C106.917 -4.70312 90.9351 11.2781 90.9351 30.9919V71.2748C90.9351 81.6898 99.3779 90.1326 109.793 90.1326H119.627C109.213 90.1331 100.77 81.6903 100.77 71.2752Z" fill="black" fill-opacity="0.25"/>
</g>
<mask id="mask3_1_9315" style="mask-type:luminance" maskUnits="userSpaceOnUse" x="90" y="5" width="73" height="87">
<path d="M143.536 88.791C143.536 88.791 132.187 91.0724 126.512 91.0724C120.939 91.0724 109.793 88.791 109.793 88.791C99.3784 88.791 90.9355 82.6296 90.9355 72.2146V41.3435C90.9355 21.6296 106.917 5.64844 126.631 5.64844C146.412 5.64844 162.393 21.6296 162.393 41.3435V72.2146C162.393 82.6296 153.95 88.791 143.536 88.791Z" fill="black" fill-opacity="0.25"/>
</mask>
<g mask="url(#mask3_1_9315)">
<path d="M122.823 74.4502C124.86 74.4502 126.511 72.799 126.511 70.7622C126.511 68.7254 124.86 67.0742 122.823 67.0742C120.787 67.0742 119.135 68.7254 119.135 70.7622C119.135 72.799 120.787 74.4502 122.823 74.4502Z" fill="black" fill-opacity="0.25"/>
</g>
<mask id="mask4_1_9315" style="mask-type:luminance" maskUnits="userSpaceOnUse" x="90" y="5" width="73" height="87">
<path d="M143.536 88.791C143.536 88.791 132.187 91.0724 126.512 91.0724C120.939 91.0724 109.793 88.791 109.793 88.791C99.3784 88.791 90.9355 82.6296 90.9355 72.2146V41.3435C90.9355 21.6296 106.917 5.64844 126.631 5.64844C146.412 5.64844 162.393 21.6296 162.393 41.3435V72.2146C162.393 82.6296 153.95 88.791 143.536 88.791Z" fill="black" fill-opacity="0.25"/>
</mask>
<g mask="url(#mask4_1_9315)">
<path d="M112.941 55.1533C114.978 55.1533 116.629 53.5022 116.629 51.4653C116.629 49.4285 114.978 47.7773 112.941 47.7773C110.904 47.7773 109.253 49.4285 109.253 51.4653C109.253 53.5022 110.904 55.1533 112.941 55.1533Z" fill="black" fill-opacity="0.25"/>
</g>
<mask id="mask5_1_9315" style="mask-type:luminance" maskUnits="userSpaceOnUse" x="90" y="5" width="73" height="87">
<path d="M143.536 88.791C143.536 88.791 132.187 91.0724 126.512 91.0724C120.939 91.0724 109.793 88.791 109.793 88.791C99.3784 88.791 90.9355 82.6296 90.9355 72.2146V41.3435C90.9355 21.6296 106.917 5.64844 126.631 5.64844C146.412 5.64844 162.393 21.6296 162.393 41.3435V72.2146C162.393 82.6296 153.95 88.791 143.536 88.791Z" fill="black" fill-opacity="0.25"/>
</mask>
<g mask="url(#mask5_1_9315)">
<path d="M126.665 37.1533C128.701 37.1533 130.353 35.5022 130.353 33.4653C130.353 31.4285 128.701 29.7773 126.665 29.7773C124.628 29.7773 122.977 31.4285 122.977 33.4653C122.977 35.5022 124.628 37.1533 126.665 37.1533Z" fill="black" fill-opacity="0.25"/>
</g>
<mask id="mask6_1_9315" style="mask-type:luminance" maskUnits="userSpaceOnUse" x="90" y="5" width="73" height="87">
<path d="M143.536 88.791C143.536 88.791 132.187 91.0724 126.512 91.0724C120.939 91.0724 109.793 88.791 109.793 88.791C99.3784 88.791 90.9355 82.6296 90.9355 72.2146V41.3435C90.9355 21.6296 106.917 5.64844 126.631 5.64844C146.412 5.64844 162.393 21.6296 162.393 41.3435V72.2146C162.393 82.6296 153.95 88.791 143.536 88.791Z" fill="black" fill-opacity="0.25"/>
</mask>
<g mask="url(#mask6_1_9315)">
<path d="M140.235 56.0947C142.272 56.0947 143.923 54.4436 143.923 52.4067C143.923 50.3699 142.272 48.7188 140.235 48.7188C138.199 48.7188 136.547 50.3699 136.547 52.4067C136.547 54.4436 138.199 56.0947 140.235 56.0947Z" fill="black" fill-opacity="0.25"/>
</g>
</g>
<defs>
<clipPath id="clip0_1_9315">
<rect width="256" height="174" fill="white"/>
</clipPath>
</defs>
</svg>
