<svg width="256" height="256" viewBox="0 0 256 256" fill="none" xmlns="http://www.w3.org/2000/svg">
<g clip-path="url(#clip0_1_9302)">
<path d="M127.77 255.54C198.335 255.54 255.54 198.335 255.54 127.77C255.54 57.2045 198.335 0 127.77 0C57.2045 0 0 57.2045 0 127.77C0 198.335 57.2045 255.54 127.77 255.54Z" fill="white"/>
<path d="M73.8476 81.9688C73.2351 82.1009 72.7393 82.4227 72.3135 83.0019C71.8747 83.6303 71.719 84.6651 71.9445 85.3479C72.1349 85.9455 73.1741 87.156 74.3136 87.9791C73.18 89.458 71.0002 92.4362 69.9467 93.9628C62.29 105.055 57.8009 115.202 57.2308 122.518C56.9227 126.474 57.6909 129.239 59.5115 131.389C60.8582 132.973 62.4344 133.874 64.9738 134.414C67.0571 134.857 70.2457 134.836 73.4634 134.345C71.4404 137.247 68.5517 141.696 67.0629 144.229C64.6045 148.435 62.0867 153.811 61.1404 156.887C59.4741 162.249 59.2604 166.653 60.3704 170.855C61.0484 173.436 62.1414 175.508 63.6267 177.099C65.1391 178.719 67.0622 179.851 69.4136 180.488C73.266 181.531 78.9209 181.234 86.0622 179.553C87.5669 179.202 89.8768 178.558 91.5994 178.047C90.0634 183.419 90.2347 188.325 91.9586 191.845C92.516 192.977 94.0737 194.886 95.0055 195.588C100.575 199.746 112.285 199.591 127.998 194.663C129.257 194.27 132.809 193.042 134.579 192.399C135.788 194.014 136.915 194.65 139.528 194.964C141.229 195.149 142.624 194.876 143.945 194.116C144.549 193.765 144.905 193.422 145.107 193.1C145.437 192.578 145.498 192.039 145.27 191.396C145.051 190.793 144.736 190.434 144.17 190.18C143.845 190.033 143.368 189.928 142.596 189.871C141.993 189.83 141.78 189.806 141.459 189.578L141.559 189.494C144.31 188.331 150.249 185.364 153.914 183.321C167.319 175.844 181.642 165.305 191.181 155.895C199.824 147.377 208.201 136.748 209.931 132.194C210.456 130.83 210.6 129.411 210.378 128.307C210.191 127.444 210.088 127.209 209.255 126.217C208.375 125.168 208.191 125.069 207.379 124.748C204.676 123.685 200.501 124.856 192.273 129.881C181.748 136.308 166.128 148.24 155.123 158.276C144.282 168.152 137.161 176.784 134.52 183.116C134.202 183.88 134.211 184.236 134.046 184.325C133.876 184.42 132.411 184.991 130.802 185.624C121.929 189.068 114.197 191.043 108.422 191.297C106.829 191.369 104.286 191.197 103.029 190.926C101.976 190.702 100.681 190.191 100.191 189.726C99.5804 189.157 99.3411 188.204 99.2994 187.005C99.2469 185.491 99.5516 183.602 100.191 181.406C100.627 179.922 102.161 176.086 102.927 174.595L104.723 173.627C114.403 169.966 125.357 164.666 135.616 158.681C149.474 150.596 165.423 139.385 179.705 127.663C188.214 120.678 192.79 116.274 197.127 110.914C200.514 106.73 203.257 102.017 203.882 99.3909C204.334 97.5248 204.274 95.853 203.779 94.4437C203.258 92.9583 202.259 91.7416 200.793 90.882C196.975 88.6448 190.057 89.5267 180.707 93.7428C171.865 97.7299 160.811 104.602 148.324 114.021C140.862 119.635 130.416 128.324 124.896 133.496C110.807 146.711 101.156 158.203 95.804 168.096L95.4412 168.772C90.7061 170.553 83.394 172.62 79.7317 173.243C76.6784 173.754 73.7321 173.89 72.0008 173.549C70.9296 173.341 70.1141 173 69.5156 172.385C68.8942 171.746 68.5166 170.841 68.2403 169.634C67.8184 167.743 67.9441 164.635 68.5074 162.335C70.2496 155.241 75.9941 145.056 84.7623 133.371L86.665 130.843L88.6287 130.083C101.621 125.095 117.751 116.12 132.057 105.907C139.986 100.242 148.512 93.2104 154.305 87.5462C158.907 83.0476 162.587 78.9016 165.43 75.025C167.934 71.5948 169.509 68.6976 170.218 66.2374C171.008 63.4946 170.761 61.2444 169.626 59.3422C168.758 57.8887 167.441 56.9116 165.772 56.456C164.246 56.0394 162.402 56.0687 160.336 56.6216C154.34 58.2453 145.402 63.6094 132.629 73.3466C129.452 75.7809 118.977 84.5709 115.848 87.4272C102.798 99.3942 91.2368 111.622 81.4437 123.799L79.5929 126.104L78.5543 126.412C75.5395 127.301 72.0781 127.958 69.627 128.106C68.1929 128.191 66.2945 127.992 65.4682 127.616C65.0315 127.423 64.9621 127.37 64.7074 127.024C64.2596 126.406 64.1544 125.815 64.1186 124.632C63.934 119.468 67.5109 110.732 73.4486 101.47C75.7122 97.9429 78.3185 94.3266 81.0935 90.8573L82.4358 89.1781C86.6923 87.8581 90.9162 85.1771 97.2765 79.8402C104.582 73.695 111.724 65.9595 113.708 63.2955C116.025 60.184 116.912 57.0906 116.525 55.8713C116.264 55.092 115.754 54.4442 115.118 54.006C114.453 53.547 113.659 53.3234 112.898 53.4033C111.776 53.5174 109.206 54.891 105.79 57.375C103.372 59.1255 96.6608 64.6624 93.7226 67.3289C88.3645 72.1803 84.8286 75.7346 80.4111 80.6924L79.0163 82.2528C77.8153 82.5035 76.6942 82.4042 75.7209 82.1158C74.942 81.8902 74.3397 81.8626 73.8476 81.9688ZM127.212 88.5654C130.929 85.3392 132.496 84.0397 137.601 79.9247C143.766 74.9643 150.55 70.2577 155.522 67.4848C157.959 66.1228 160.241 65.0461 162.018 64.69C161.608 65.5496 160.977 66.6298 160.297 67.6581C156.986 72.6216 151.947 78.2682 144.388 85.4915C142.107 87.6802 130.72 97.2186 127.88 99.3429C118.304 106.477 109.472 112.164 100.393 117.019C99.2364 117.635 97.8531 118.348 96.52 119.022C105.935 108.372 116.571 97.8167 127.212 88.5654ZM174.774 106.519C184.368 100.722 192.56 97.3303 196.445 97.147C196.356 97.4742 196.219 97.8773 196.065 98.2338C194.549 101.817 190.29 107.038 184.214 112.855C181.713 115.244 171.943 123.393 167.392 126.892C145.592 143.6 127.7 154.854 110.302 162.741C113.351 158.618 117.634 153.545 121.685 149.294C129.296 141.303 138.63 132.846 147.959 125.491C158.334 117.305 166.627 111.445 174.774 106.519ZM180.564 148.476C187.687 142.903 194.053 138.438 198.754 135.692C198.308 136.294 197.848 136.897 197.414 137.447C189.913 146.954 180.947 155.478 169.752 163.715C163.183 168.545 156.377 172.955 149.761 176.653C153.571 172.27 158.396 167.473 164.965 161.519C166.675 159.961 178.296 150.241 180.564 148.476Z" fill="#1B1A22"/>
<path d="M127.877 169.59C150.825 169.59 169.428 150.951 169.428 127.959C169.428 104.967 150.825 86.3281 127.877 86.3281C104.929 86.3281 86.3264 104.967 86.3264 127.959C86.3264 150.951 104.929 169.59 127.877 169.59Z" fill="url(#paint0_radial_1_9302)"/>
<path d="M207.379 124.788C208.191 125.11 208.375 125.208 209.256 126.257C210.088 127.249 210.191 127.484 210.379 128.347C210.6 129.451 210.456 130.87 209.932 132.235C208.201 136.788 199.825 147.417 191.181 155.935C181.642 165.345 167.319 175.884 153.914 183.362C150.249 185.404 144.31 188.371 141.559 189.535L141.459 189.618L134.579 192.439C133.886 192.691 132.921 193.032 131.927 193.378L131.262 193.608C129.936 194.066 128.655 194.498 127.998 194.703C112.285 199.631 100.576 199.786 95.0058 195.628L100.191 189.766C100.682 190.231 101.976 190.742 103.029 190.966C104.286 191.238 106.829 191.41 108.422 191.337C114.197 191.083 121.929 189.108 130.802 185.664C132.412 185.031 133.876 184.46 134.046 184.366L149.761 176.693C156.377 172.995 163.183 168.585 169.753 163.755C180.947 155.519 189.914 146.994 197.414 137.487C197.848 136.938 198.308 136.334 198.754 135.732L207.379 124.788ZM200.793 90.9222C202.259 91.7817 203.258 92.9985 203.779 94.4839C204.274 95.8932 204.334 97.5649 203.882 99.4309C203.257 102.057 200.514 106.77 197.127 110.954C192.79 116.314 188.214 120.718 179.705 127.704C165.423 139.426 149.474 150.636 135.616 158.721C125.357 164.706 114.403 170.006 104.723 173.668L102.927 174.635L91.5997 178.087C89.8769 178.598 87.567 179.242 86.0623 179.593C78.921 181.274 73.2662 181.571 69.4137 180.529C67.0623 179.891 65.1392 178.759 63.6268 177.139C62.1416 175.548 61.0486 173.476 60.3706 170.895L68.2405 169.674C68.5168 170.881 68.8943 171.786 69.5157 172.425C70.1143 173.04 70.9298 173.381 72.0009 173.589C73.7323 173.93 76.6785 173.794 79.7319 173.283C83.3942 172.66 90.7062 170.593 95.4413 168.812L110.302 162.781C127.7 154.894 145.593 143.64 167.392 126.932C171.944 123.433 181.713 115.284 184.214 112.895C190.29 107.078 194.55 101.858 196.065 98.274C196.219 97.9174 196.357 97.5143 196.445 97.1872L200.793 90.9222ZM165.772 56.4961C167.411 56.9197 168.759 57.9287 169.626 59.3824C170.761 61.2845 171.009 63.5348 170.218 66.2777C169.509 68.7378 167.934 71.6349 165.43 75.0651C162.587 78.9417 158.908 83.0878 154.305 87.5864C148.512 93.2505 139.987 100.282 132.057 105.947C117.752 116.16 101.621 125.135 88.6288 130.123L86.6651 130.883L79.7469 132.972L73.4636 134.385C70.246 134.876 67.0572 134.897 64.974 134.454C62.4346 133.914 60.8583 133.013 59.5116 131.429C57.6911 129.279 56.9229 126.514 57.231 122.559L64.1187 124.672C64.1546 125.855 64.2598 126.446 64.7077 127.064C64.9624 127.411 65.0317 127.463 65.4683 127.656C66.2947 128.032 68.1932 128.231 69.6271 128.146C70.5863 128.088 72.1617 127.816 73.7243 127.506L74.2438 127.402C76.3131 126.981 78.2352 126.528 78.5187 126.461L78.5545 126.452L96.5202 119.062L96.5602 119.041C96.9003 118.868 99.3192 117.631 100.393 117.059C109.473 112.204 118.304 106.518 127.88 99.3831C130.721 97.2588 142.107 87.7203 144.388 85.5316C151.947 78.3084 156.986 72.6618 160.297 67.6982C160.978 66.6699 161.385 65.604 162.018 64.7301L165.772 56.4961Z" fill="#1B1A22"/>
</g>
<defs>
<radialGradient id="paint0_radial_1_9302" cx="0" cy="0" r="1" gradientUnits="userSpaceOnUse" gradientTransform="translate(-612.429 3939.07) rotate(54.6028) scale(5312.97 5326.55)">
<stop stop-color="white" stop-opacity="0.904382"/>
<stop offset="1" stop-color="#FF6D6D"/>
</radialGradient>
<clipPath id="clip0_1_9302">
<rect width="256" height="256" fill="white"/>
</clipPath>
</defs>
</svg>
