<svg width="256" height="338" viewBox="0 0 256 338" fill="none" xmlns="http://www.w3.org/2000/svg">
<g clip-path="url(#clip0_1_9411)">
<path d="M63.5121 0.566406C63.5121 0.566406 0.228882 0.566406 0.228882 63.8496V285.335C0.228882 285.335 63.5121 286.6 63.5121 223.003V111.311V98.6536V79.6674C63.5121 70.9293 70.5957 63.8496 79.3299 63.8496H96.4166H126.161C187.545 63.8496 188.81 0.566406 188.81 0.566406H63.5121Z" fill="#27CCF5"/>
<path d="M192.026 114.943V226.631V239.289V258.275C192.026 267.013 184.942 274.092 176.208 274.092H159.122H129.381C67.9976 274.092 66.7286 337.376 66.7286 337.376H192.026C192.026 337.376 255.309 337.376 255.309 274.092V52.6073C255.309 52.6073 192.026 51.3424 192.026 114.943Z" fill="#22E071"/>
</g>
<defs>
<clipPath id="clip0_1_9411">
<rect width="256" height="338" fill="white"/>
</clipPath>
</defs>
</svg>
