<svg width="512" height="192" viewBox="0 0 512 192" fill="none" xmlns="http://www.w3.org/2000/svg">
<g clip-path="url(#clip0_1_9419)">
<path d="M191.336 0H0V191.336H191.336V0Z" fill="#DD4B39"/>
<path d="M255.19 174.503L250.173 161.542H218.502L213.38 174.503H193.729L225.191 101.231H244.842L275.573 174.503H255.19ZM224.251 146.909H244.529L234.494 120.777L224.251 146.909ZM335.874 123.808C328.139 119.418 318.313 115.969 312.251 115.969C307.652 115.969 304.621 117.641 304.621 120.986C304.621 133.111 343.191 126.212 343.191 152.553C343.191 167.5 330.02 175.131 313.714 175.131C301.485 175.131 288.733 170.636 279.952 163.424L287.374 148.476C294.9 154.957 306.293 159.556 313.923 159.556C319.568 159.556 323.122 157.466 323.122 153.598C323.122 141.16 284.552 148.686 284.552 122.763C284.552 109.07 296.154 100.395 313.819 100.395C324.585 100.395 335.456 103.739 343.086 108.652L335.874 123.808ZM391.366 100.708C414.049 100.708 430.982 116.596 430.982 137.815C430.982 159.243 414.049 175.34 391.366 175.34C368.684 175.34 351.751 159.243 351.751 137.815C351.751 116.492 368.684 100.708 391.366 100.708ZM391.575 117.014C380.6 117.014 371.402 126.003 371.402 137.919C371.402 149.835 380.705 159.034 391.575 159.034C402.551 159.034 411.331 149.835 411.331 137.919C411.331 126.003 402.551 117.014 391.575 117.014ZM444.037 101.231H460.866L494.105 145.341V101.231H511.874V174.503H495.15L461.911 130.603V174.503H444.037V101.231Z" fill="#333333"/>
<path d="M113.498 174.507H91.8606L81.199 154.229H66.9835V174.507H47.8552V101.234H80.7809C100.223 101.234 111.302 110.642 111.302 126.948C111.302 138.028 106.703 146.181 98.2367 150.571L113.498 174.507ZM66.9835 116.495V138.968H80.8854C88.6203 138.968 93.115 134.996 93.115 127.575C93.115 120.363 88.6203 116.495 80.8854 116.495H66.9835ZM123.532 101.234H181.335V116.495H142.66V130.188H177.572V145.344L142.66 145.449V159.246H182.38V174.507H123.532V101.234Z" fill="white"/>
</g>
<defs>
<clipPath id="clip0_1_9419">
<rect width="512" height="192" fill="white"/>
</clipPath>
</defs>
</svg>
