<svg width="256" height="244" viewBox="0 0 256 244" fill="none" xmlns="http://www.w3.org/2000/svg">
<g clip-path="url(#clip0_1_9424)">
<path d="M211.301 84.9656C211.297 83.7418 211.269 82.5246 211.214 81.3133V12.2514L192.121 31.3441C176.495 12.2168 152.723 0 126.097 0C98.3875 0 73.7706 13.2262 58.2092 33.7091L89.5046 65.3336C92.5715 59.6615 96.9285 54.7897 102.182 51.1102C107.645 46.8465 115.387 43.3604 126.096 43.3604C127.389 43.3604 128.388 43.5116 129.122 43.7964C142.39 44.8436 153.891 52.1661 160.663 62.794L138.51 84.9464C166.569 84.8363 198.267 84.7717 211.299 84.9606" fill="#1C3AA9"/>
<path d="M125.599 0.00390625C124.375 0.00796979 123.158 0.0362114 121.947 0.0910692H52.8847L71.9774 19.1838C52.8501 34.8102 40.6333 58.5819 40.6333 85.2082C40.6333 112.917 53.8597 137.534 74.3424 153.096L105.967 121.8C100.295 118.733 95.423 114.376 91.7435 109.123C87.48 103.66 83.9937 95.9181 83.9937 85.2092C83.9937 83.9155 84.1449 82.917 84.4297 82.1833C85.4769 68.915 92.7994 57.414 103.427 50.6421L125.58 72.7945C125.47 44.7358 125.405 13.0381 125.594 0.00634437" fill="#4285F4"/>
<path d="M40.6362 85.207C40.6403 86.4308 40.6685 87.648 40.7234 88.8593V157.921L59.8161 138.828C75.4425 157.956 99.2142 170.173 125.841 170.173C153.55 170.173 178.167 156.946 193.728 136.463L162.433 104.839C159.366 110.511 155.009 115.383 149.755 119.062C144.292 123.326 136.55 126.812 125.842 126.812C124.548 126.812 123.549 126.661 122.816 126.376C109.547 125.329 98.0463 118.007 91.2744 107.379L113.427 85.2262C85.3681 85.3363 53.6704 85.4009 40.6387 85.2119" fill="#ABABAB"/>
<path d="M55.0133 203.168C52.9378 203.168 51.0771 203.562 49.431 204.349C47.785 205.119 46.3894 206.219 45.2443 207.65C44.1171 209.082 43.2494 210.817 42.641 212.857C42.0506 214.878 41.7554 217.142 41.7554 219.646V226.866C41.7554 229.388 42.0506 231.661 42.641 233.683C43.2493 235.704 44.1081 237.431 45.2175 238.862C46.3269 240.294 47.6686 241.394 49.243 242.163C50.8175 242.933 52.5888 243.317 54.5569 243.317C56.5787 243.317 58.3501 243.022 59.8708 242.432C61.4095 241.841 62.6976 240.991 63.7355 239.882C64.7732 238.755 65.5694 237.395 66.124 235.803C66.6965 234.21 67.0365 232.403 67.1438 230.382H62.1788C62.0535 231.938 61.8389 233.271 61.5347 234.38C61.2305 235.472 60.7832 236.375 60.1928 237.091C59.6203 237.789 58.8688 238.307 57.9384 238.647C57.0259 238.969 55.8987 239.13 54.5569 239.13C53.1255 239.13 51.9089 238.817 50.907 238.191C49.9051 237.547 49.091 236.67 48.4648 235.561C47.8565 234.452 47.4092 233.155 47.1229 231.67C46.8546 230.185 46.7204 228.583 46.7204 226.866V219.593C46.7204 217.75 46.8814 216.077 47.2035 214.574C47.5434 213.071 48.0533 211.792 48.7332 210.736C49.4131 209.681 50.2719 208.867 51.3097 208.294C52.3474 207.704 53.582 207.408 55.0132 207.408C56.2119 207.408 57.2406 207.587 58.0995 207.945C58.9583 208.285 59.6739 208.822 60.2464 209.555C60.819 210.271 61.2573 211.184 61.5615 212.293C61.8656 213.402 62.0714 214.726 62.1787 216.265H67.1438C67.0543 214.154 66.7233 212.284 66.1508 210.656C65.5782 209.027 64.782 207.659 63.7622 206.549C62.7424 205.44 61.4988 204.599 60.0319 204.027C58.5827 203.454 56.9099 203.168 55.0133 203.168ZM176.212 203.168C174.137 203.168 172.276 203.562 170.63 204.349C168.984 205.119 167.589 206.219 166.443 207.65C165.316 209.082 164.449 210.817 163.84 212.857C163.25 214.878 162.955 217.142 162.955 219.646V226.866C162.955 229.388 163.25 231.661 163.84 233.683C164.448 235.704 165.307 237.431 166.417 238.862C167.526 240.293 168.868 241.394 170.442 242.163C172.017 242.932 173.788 243.317 175.756 243.317C177.778 243.317 179.549 243.022 181.07 242.432C182.609 241.841 183.897 240.991 184.935 239.882C185.972 238.755 186.768 237.395 187.323 235.803C187.896 234.21 188.236 232.403 188.343 230.382H183.378C183.253 231.938 183.038 233.271 182.734 234.38C182.43 235.472 181.983 236.375 181.392 237.091C180.82 237.789 180.068 238.307 179.138 238.647C178.225 238.969 177.098 239.13 175.756 239.13C174.325 239.13 173.108 238.817 172.106 238.191C171.104 237.547 170.29 236.67 169.664 235.561C169.056 234.452 168.609 233.155 168.322 231.67C168.054 230.185 167.92 228.583 167.92 226.866V219.593C167.92 217.75 168.081 216.077 168.403 214.574C168.743 213.071 169.253 211.792 169.933 210.736C170.612 209.681 171.471 208.867 172.509 208.294C173.547 207.704 174.781 207.408 176.212 207.408C177.411 207.408 178.44 207.587 179.299 207.945C180.157 208.285 180.873 208.822 181.446 209.555C182.018 210.271 182.456 211.184 182.761 212.293C183.065 213.402 183.271 214.726 183.378 216.265H188.343C188.253 214.154 187.922 212.284 187.35 210.656C186.777 209.027 185.981 207.659 184.961 206.549C183.941 205.44 182.698 204.599 181.231 204.027C179.782 203.454 178.109 203.168 176.212 203.168ZM83.3016 203.705L70.7148 242.78H75.7603L78.7929 232.582H91.997L95.0832 242.78H100.129L87.5151 203.705H83.3016ZM105.442 203.705V242.78H110.353V227.483H117.894C119.773 227.483 121.437 227.223 122.886 226.704C124.335 226.168 125.552 225.398 126.536 224.396C127.538 223.394 128.289 222.16 128.79 220.693C129.309 219.208 129.569 217.526 129.569 215.647C129.569 213.912 129.309 212.32 128.79 210.87C128.289 209.403 127.547 208.142 126.563 207.086C125.579 206.013 124.353 205.181 122.886 204.59C121.437 204 119.773 203.705 117.894 203.705L105.442 203.705ZM133.326 203.705V207.945H143.578V242.78H148.489V207.945H158.768V203.705H133.326ZM194.972 203.705V242.78H199.883V224.719H215.61V242.78H220.548V203.705H215.61V220.505H199.883V203.705H194.972ZM239.173 203.705L226.586 242.78H231.632L234.664 232.582H247.868L250.955 242.78H256L243.386 203.705H239.173ZM110.353 207.945H117.894C119.093 207.945 120.112 208.16 120.953 208.59C121.812 209.019 122.51 209.591 123.047 210.307C123.601 211.023 124.004 211.855 124.254 212.803C124.523 213.733 124.657 214.699 124.657 215.702C124.657 216.811 124.523 217.831 124.254 218.761C124.004 219.673 123.601 220.47 123.047 221.15C122.51 221.811 121.812 222.33 120.953 222.706C120.112 223.082 119.093 223.27 117.894 223.27H110.353V207.945ZM85.3943 210.576L90.735 228.342H80.0806L85.3943 210.576ZM241.266 210.576L246.606 228.342H235.952L241.266 210.576ZM10.0908 213.206C8.85632 213.206 7.79169 213.519 6.89711 214.145C6.02042 214.771 5.28685 215.621 4.6965 216.695L4.61598 213.742H0V242.78H4.75028V222.008C5.19757 220.773 5.83272 219.798 6.65573 219.082C7.49664 218.367 8.56121 218.009 9.84947 218.009C10.261 218.009 10.6278 218.027 10.9498 218.062C11.2719 218.081 11.6207 218.125 11.9965 218.197L11.9696 213.581C11.898 213.545 11.7818 213.509 11.6207 213.473C11.4776 213.419 11.3166 213.375 11.1377 213.339C10.9587 213.303 10.7709 213.276 10.5741 213.258C10.3951 213.223 10.2341 213.205 10.091 213.205L10.0908 213.206ZM26.0591 213.206C24.6815 213.206 23.3485 213.447 22.0604 213.93C20.7722 214.413 19.6272 215.21 18.6253 216.319C17.6413 217.41 16.8451 218.842 16.2367 220.613C15.6284 222.366 15.3243 224.522 15.3243 227.081V230.355C15.3243 232.573 15.5837 234.497 16.1026 236.125C16.6214 237.753 17.3639 239.104 18.33 240.178C19.314 241.233 20.5038 242.02 21.8994 242.539C23.295 243.058 24.8605 243.318 26.596 243.318C27.8485 243.318 28.9667 243.192 29.9507 242.942C30.9526 242.691 31.8383 242.369 32.6077 241.976C33.377 241.564 34.039 241.099 34.5936 240.58C35.1483 240.061 35.6224 239.525 36.016 238.97L33.547 235.964C33.1534 236.447 32.7329 236.894 32.2856 237.306C31.8383 237.7 31.3463 238.049 30.8096 238.353C30.2728 238.639 29.6824 238.863 29.0383 239.024C28.3942 239.185 27.6696 239.265 26.8645 239.265C24.6639 239.265 22.9731 238.558 21.7922 237.145C20.6292 235.732 20.0478 233.468 20.0478 230.355V229.684H36.2576V226.92C36.2576 224.701 36.0698 222.742 35.694 221.042C35.3183 219.343 34.7189 217.911 33.8959 216.748C33.0729 215.585 32.0173 214.709 30.729 214.118C29.4408 213.51 27.8843 213.206 26.0591 213.206ZM26.0591 217.285C27.0968 217.285 27.9556 217.473 28.6356 217.849C29.3155 218.224 29.8522 218.752 30.2459 219.432C30.6574 220.112 30.9526 220.926 31.1315 221.874C31.3283 222.805 31.4535 223.833 31.5072 224.961V225.605H20.0745C20.146 223.976 20.3428 222.626 20.6649 221.552C20.9869 220.478 21.4074 219.629 21.9262 219.003C22.463 218.359 23.0803 217.911 23.778 217.661C24.4758 217.41 25.236 217.285 26.0591 217.285Z" fill="#A6A6A6"/>
</g>
<defs>
<clipPath id="clip0_1_9424">
<rect width="256" height="244" fill="white"/>
</clipPath>
</defs>
</svg>
