<svg width="512" height="182" viewBox="0 0 512 182" fill="none" xmlns="http://www.w3.org/2000/svg">
<g clip-path="url(#clip0_1_9434)">
<path d="M38.9404 0C47.4037 0 54.2588 6.85506 54.2588 15.3183C54.2588 21.6272 50.4364 27.0495 44.9764 29.4004L44.8105 29.4707V35.9237C44.8105 42.153 49.4406 47.4562 55.5995 48.3224L55.7866 48.3473L57.6361 48.5885C67.6473 49.855 75.4069 57.0518 77.3971 66.9424C79.3873 76.833 75.0451 86.4823 66.3004 91.5482C62.3853 93.8024 58.1201 95.1813 53.6196 95.6468L53.3944 95.6693L25.5922 98.2827C22.7577 98.544 20.084 99.4084 17.6113 100.836C12.5655 103.751 11.5805 108.796 12.3444 112.536C13.1007 116.237 15.9257 120.451 21.5803 121.237L23.602 121.501C35.7819 123.014 44.9867 133.334 45.1695 145.575L45.1723 145.946V151.937C50.5398 154.309 54.299 159.697 54.299 165.949C54.299 174.412 47.4439 181.267 38.9806 181.267C30.5173 181.267 23.6623 174.412 23.6623 165.949C23.6623 159.66 27.4649 154.238 32.9051 151.887L33.0704 151.816V145.946C33.0704 139.717 28.4403 134.414 22.2814 133.548L22.0943 133.523L20.2448 133.282C10.2336 132.015 2.47391 124.818 0.483732 114.928C-1.52655 105.037 2.83576 95.3879 11.5805 90.322C15.4956 88.0678 19.7608 86.6889 24.2613 86.2234L24.4865 86.2009L52.2887 83.5875C55.1232 83.3262 57.7969 82.4618 60.2695 81.0345C65.3153 78.1196 66.3004 73.0738 65.5365 69.3346C64.7802 65.6329 61.9551 61.4189 56.3006 60.6328L54.2789 60.3688C42.099 58.8562 32.8942 48.5366 32.7113 36.2953L32.7086 35.9237V29.3099C27.3612 26.9177 23.6221 21.5502 23.6221 15.3183C23.6221 6.85506 30.4771 0 38.9404 0ZM57.3546 102.504L65.9385 111.912C72.327 118.938 75.8783 127.992 75.9487 137.458L75.9497 137.745H63.8277C63.8277 131.257 61.4437 125.044 57.1242 120.22L56.9928 120.074L42.3981 104.072L54.0577 102.967L54.4263 102.926C55.2997 102.826 56.1717 102.712 57.0324 102.562L57.3546 102.504ZM12.9877 43.6633C12.9877 50.1513 15.3717 56.3635 19.6912 61.1879L19.8226 61.3337L34.4575 77.3758L23.6824 78.401L23.3623 78.4303C22.1888 78.5428 21.0175 78.7129 19.8728 78.9406L19.5613 79.0041L10.897 69.4955C4.50852 62.49 0.957242 53.4158 0.886855 43.9503L0.885788 43.6633H12.9877Z" fill="#1C1E21"/>
<path d="M181.007 47.7444L181.244 47.7479L181.484 47.7537C185.469 47.8672 192.5 48.9627 198.215 54.6196C202.135 58.4793 204.568 63.9071 205.11 69.8977C205.613 75.6069 204.367 81.2759 201.572 85.8594C196.816 93.7206 188.926 96.4787 185.648 97.3134L185.231 97.419L192.968 107.188C199.683 114.466 203.361 123.894 203.361 133.704V137.725H191.722V133.704C191.722 126.748 189.088 120.094 184.284 114.948L184.123 114.787L173.107 100.896L173.911 100.26C170.087 101.2 166.324 102.143 162.635 103.07L158.412 104.133C153.386 105.399 148.239 106.706 142.932 108.013L142.812 137.725L131.152 137.684L131.373 63.4246C131.393 54.901 138.429 47.9856 147.074 47.9856H147.134C151.9 48.0355 156.543 47.9755 161.073 47.9078L167.107 47.8177C171.598 47.7519 176.217 47.6957 181.007 47.7444ZM168.353 59.4608L160.109 59.5835C155.879 59.6441 151.53 59.6911 147.053 59.6453C144.842 59.6654 143.053 61.3741 143.033 63.4648L142.932 95.9912L144.641 95.5651L146.482 95.1042C149.541 94.3369 152.555 93.5755 155.517 92.835L157.111 92.4304C162.707 91.0111 168.485 89.5626 174.413 88.131L182.846 85.9975L182.963 85.9666C184.925 85.4404 189.115 83.8607 191.561 79.8285C194.717 74.6219 193.994 66.8823 189.973 62.9019C186.868 59.8371 182.641 59.4321 180.898 59.4048L180.846 59.404C177.128 59.365 173.468 59.3933 169.884 59.4399L168.353 59.4608ZM286.768 135.694H246.06C232.028 135.694 220.61 124.276 220.61 110.244V72.9332C220.61 58.9015 232.028 47.4831 246.06 47.4831H267.831C281.863 47.4831 293.281 58.9015 293.281 72.9332V78.8033C293.281 89.5985 284.496 98.3834 273.701 98.3834H232.269V110.264C232.269 117.863 238.461 124.055 246.06 124.055H286.768V135.694ZM232.269 86.7238H273.721C278.084 86.7238 281.642 83.1656 281.642 78.8033V72.9332C281.642 65.3344 275.45 59.1427 267.851 59.1427H246.06C238.461 59.1427 232.269 65.3344 232.269 72.9332V86.7238ZM351.258 136.659H329.487C315.455 136.659 304.036 125.241 304.036 111.209V73.8781C304.036 59.8463 315.455 48.4279 329.487 48.4279H351.258C365.29 48.4279 376.708 59.8463 376.708 73.8781V79.7079H365.048V73.8781C365.048 66.2792 358.857 60.0875 351.258 60.0875H329.487C321.888 60.0875 315.696 66.2792 315.696 73.8781V111.209C315.696 118.808 321.888 125 329.487 125H351.258C358.857 125 365.048 118.808 365.048 111.209V105.379H376.708V111.209C376.708 125.241 365.29 136.659 351.258 136.659ZM436.534 135.694H414.763C400.731 135.694 389.313 124.276 389.313 110.244V72.9332C389.313 58.9015 400.731 47.4831 414.763 47.4831H436.534C450.566 47.4831 461.984 58.9015 461.984 72.9332V110.264C461.964 124.296 450.566 135.694 436.534 135.694ZM414.763 59.1427C407.164 59.1427 400.972 65.3344 400.972 72.9332V110.264C400.972 117.863 407.164 124.055 414.763 124.055H436.534C444.133 124.055 450.325 117.863 450.325 110.264V72.9332C450.325 65.3344 444.133 59.1427 436.534 59.1427H414.763ZM475.111 54.8206H486.771V134.267H475.111V54.8206ZM475.111 29.9132H486.771V40.829H475.111V29.9132ZM500.34 29.5312H512V134.287H500.34V29.5312Z" fill="#1C1E21"/>
</g>
<defs>
<clipPath id="clip0_1_9434">
<rect width="512" height="182" fill="white"/>
</clipPath>
</defs>
</svg>
