<svg width="256" height="596" viewBox="0 0 256 596" fill="none" xmlns="http://www.w3.org/2000/svg">
<g clip-path="url(#clip0_1_9431)">
<path d="M128.011 0C155.833 0 178.368 22.5351 178.368 50.3569C178.368 71.0965 165.803 88.9214 147.854 96.6499L147.308 96.881V118.094C147.308 138.572 162.529 156.006 182.776 158.853L183.391 158.935L189.471 159.728C222.381 163.891 247.89 187.55 254.432 220.064C260.975 252.578 246.7 284.299 217.953 300.952C205.083 308.362 191.062 312.895 176.267 314.426L175.527 314.5L84.1307 323.091C74.8126 323.95 66.0233 326.791 57.8948 331.484C41.3074 341.066 38.0693 357.653 40.5805 369.945C43.0666 382.114 52.3536 395.967 70.9422 398.551L77.5882 399.419C117.628 404.391 147.887 438.316 148.489 478.557L148.498 479.779V499.472C166.142 507.27 178.5 524.981 178.5 545.534C178.5 573.356 155.965 595.891 128.143 595.891C100.322 595.891 77.7865 573.356 77.7865 545.534C77.7865 524.859 90.2871 507.035 108.171 499.307L108.714 499.076V479.779C108.714 459.301 93.4934 441.867 73.2469 439.02L72.6318 438.938L66.552 438.145C33.6415 433.982 8.13264 410.323 1.5902 377.809C-5.01832 345.295 9.32218 313.574 38.0693 296.921C50.9396 289.511 64.9608 284.978 79.7556 283.447L80.496 283.373L171.892 274.782C181.21 273.923 189.999 271.082 198.128 266.39C214.715 256.807 217.953 240.22 215.442 227.928C212.956 215.759 203.669 201.906 185.08 199.322L178.434 198.454C138.395 193.482 108.135 159.557 107.534 119.316L107.525 118.094V96.3523C89.9462 88.4881 77.6543 70.8434 77.6543 50.3569C77.6543 22.5351 100.189 0 128.011 0ZM188.545 336.969L216.764 367.896C237.765 390.991 249.439 420.757 249.671 451.873L249.674 452.816H209.825C209.825 431.488 201.988 411.066 187.788 395.206L187.356 394.727L139.378 342.123L177.707 338.489L178.919 338.354C181.79 338.028 184.657 337.651 187.486 337.159L188.545 336.969ZM42.6952 143.537C42.6952 164.865 50.5324 185.287 64.732 201.147L65.1642 201.626L113.274 254.362L77.8526 257.732L76.8003 257.829C72.9426 258.199 69.0922 258.758 65.3292 259.506L64.3051 259.715L35.8224 228.457C14.8211 205.427 3.1468 175.597 2.91541 144.48L2.91191 143.537H42.6952Z" fill="#1C1E21"/>
</g>
<defs>
<clipPath id="clip0_1_9431">
<rect width="256" height="596" fill="white"/>
</clipPath>
</defs>
</svg>
