<svg width="256" height="256" viewBox="0 0 256 256" fill="none" xmlns="http://www.w3.org/2000/svg">
<g clip-path="url(#clip0_1_9438)">
<path d="M128 256C198.692 256 256 198.692 256 128C256 57.3075 198.692 0 128 0C57.3075 0 0 57.3075 0 128C0 198.692 57.3075 256 128 256Z" fill="#FF4500"/>
<path d="M213.15 129.219C213.15 118.843 204.759 110.602 194.533 110.602C189.498 110.602 184.919 112.585 181.562 115.791C168.745 106.634 151.195 100.684 131.662 99.9214L140.207 59.9399L167.98 65.8905C168.287 72.9106 174.084 78.5568 181.258 78.5568C188.582 78.5568 194.533 72.6062 194.533 65.2789C194.533 57.9545 188.582 52.0039 181.258 52.0039C176.07 52.0039 171.49 55.056 169.354 59.4819L138.378 52.9198C137.462 52.7662 136.546 52.9198 135.935 53.3778C135.172 53.8357 134.714 54.598 134.564 55.514L125.1 100.072C105.263 100.684 87.4083 106.634 74.4377 115.944C71.0812 112.738 66.5017 110.756 61.467 110.756C51.0905 110.756 42.8501 119.147 42.8501 129.373C42.8501 137.002 47.4268 143.41 53.8382 146.311C53.531 148.14 53.3802 149.972 53.3802 151.958C53.3802 180.644 86.7996 203.994 128.001 203.994C169.203 203.994 202.623 180.798 202.623 151.958C202.623 150.126 202.469 148.14 202.165 146.311C208.573 143.41 213.15 136.848 213.15 129.219ZM85.2721 142.494C85.2721 135.17 91.2227 129.219 98.55 129.219C105.874 129.219 111.825 135.17 111.825 142.494C111.825 149.819 105.874 155.772 98.55 155.772C91.2227 155.923 85.2721 149.819 85.2721 142.494ZM159.589 177.745C150.433 186.902 133.036 187.513 128.001 187.513C122.813 187.513 105.417 186.748 96.411 177.745C95.04 176.372 95.04 174.235 96.411 172.862C97.7849 171.49 99.921 171.49 101.295 172.862C107.095 178.661 119.303 180.644 128.001 180.644C136.7 180.644 149.059 178.661 154.705 172.862C156.079 171.49 158.215 171.49 159.589 172.862C160.809 174.235 160.809 176.372 159.589 177.745ZM157.146 155.923C149.821 155.923 143.871 149.972 143.871 142.648C143.871 135.323 149.821 129.373 157.146 129.373C164.473 129.373 170.423 135.323 170.423 142.648C170.423 149.819 164.473 155.923 157.146 155.923Z" fill="white"/>
</g>
<defs>
<clipPath id="clip0_1_9438">
<rect width="256" height="256" fill="white"/>
</clipPath>
</defs>
</svg>
