<svg width="511" height="176" viewBox="0 0 511 176" fill="none" xmlns="http://www.w3.org/2000/svg">
<g clip-path="url(#clip0_1_9442)">
<path d="M460.663 71.606C466.801 71.606 471.777 66.6303 471.777 60.4924C471.777 54.3546 466.801 49.3789 460.663 49.3789C454.525 49.3789 449.55 54.3546 449.55 60.4924C449.55 66.6303 454.525 71.606 460.663 71.606Z" fill="#FF4500"/>
<path d="M367.145 42.3555C370.487 42.3555 373.24 44.9934 373.426 48.2904L373.436 48.646V129.476C373.436 132.936 370.606 135.766 367.145 135.766C364.106 135.766 361.484 133.566 360.96 130.629C356.663 134.928 351.21 137.13 344.814 137.13C328.251 137.13 314.831 122.138 314.831 103.686C314.831 85.2345 328.251 70.2419 344.814 70.2419C350.964 70.2419 356.144 72.1805 360.356 76.1517L360.856 76.638V48.646C360.856 45.1851 363.686 42.3555 367.145 42.3555ZM432.775 42.3555C436.116 42.3555 438.869 44.9934 439.055 48.2904L439.065 48.646V129.476C439.065 132.936 436.236 135.766 432.775 135.766C429.734 135.766 427.114 133.566 426.59 130.629C422.291 134.928 416.84 137.13 410.444 137.13C393.88 137.13 380.461 122.138 380.461 103.686C380.461 85.2345 393.88 70.2419 410.444 70.2419C416.594 70.2419 421.774 72.1805 425.984 76.1517L426.484 76.638V48.646C426.484 45.1851 429.316 42.3555 432.775 42.3555ZM280.758 70.1364C294.703 70.1364 306.444 80.8317 309.799 95.2986L309.913 95.9038C310.081 96.8663 310.238 98.0913 310.323 99.8069C310.526 103.674 307.57 107.639 302.41 107.869L301.935 107.88V107.669H263.67C265.243 117.209 272.372 124.444 280.758 124.444C287.889 124.444 292.291 120.461 294.597 118.468C297.009 116.476 300.259 115.847 302.879 117.629C306.026 119.832 306.549 124.34 303.929 127.275C298.582 133.251 291.138 137.025 280.758 137.025C264.194 137.025 250.774 122.032 250.774 103.581C250.774 85.129 264.194 70.1364 280.758 70.1364ZM492.588 56.2878L492.952 56.2987C496.188 56.5003 498.642 59.2368 498.813 62.4405L498.823 62.7983V71.6059H504.59C507.736 71.6059 510.357 74.3301 510.145 77.5799C509.944 80.5037 507.514 82.6524 504.718 82.8133L504.381 82.823H498.823V129.581C498.823 133.04 496.099 135.766 492.429 135.975C489.089 135.975 486.334 133.337 486.148 130.042L486.138 129.687V82.9285H480.791C477.647 82.9285 475.025 80.2024 475.236 76.9526C475.437 74.0288 477.867 71.8801 480.663 71.7192L481.001 71.7095H486.244V62.5892C486.244 59.0416 489.083 56.2792 492.588 56.2878ZM246.163 70.5565C249.098 71.0802 251.404 73.5972 251.404 76.7415C251.404 79.8753 249.063 82.5221 246.077 82.8964L245.742 82.9285H244.484C232.51 81.5855 223.789 90.9162 223.524 102.411L223.517 102.951V129.476C223.517 133.146 220.477 135.975 216.807 135.766C213.571 135.565 211.117 132.828 210.946 129.624L210.936 129.266V77.8945C210.936 74.4356 213.766 71.6059 217.227 71.6059C220.263 71.6059 223.3 73.8521 223.506 77.4985L223.517 77.8945V78.7348C228.444 72.5478 237.04 69.1944 246.163 70.5565ZM460.663 77.1617C464.003 77.1617 466.756 79.7996 466.942 83.0966L466.952 83.4523V129.476C466.952 132.936 464.122 135.766 460.663 135.766C457.322 135.766 454.569 133.128 454.383 129.831L454.373 129.476V83.4523C454.373 79.9914 457.202 77.1617 460.663 77.1617ZM344.92 82.7175C335.274 82.7175 327.516 92.1543 327.516 103.686C327.516 115.323 335.274 124.653 344.92 124.653C354.46 124.653 362.324 115.323 362.324 103.686C362.324 92.0488 354.566 82.7175 344.92 82.7175ZM410.444 82.7175C400.798 82.7175 393.042 92.1543 393.042 103.686C393.042 115.323 400.798 124.653 410.444 124.653C420.09 124.653 427.848 115.323 427.848 103.686C427.848 92.0488 420.09 82.7175 410.444 82.7175ZM280.654 82.823C273.277 82.823 266.901 88.3307 264.365 96.2125L264.194 96.7662H297.114C294.703 88.6934 288.201 82.823 280.654 82.823Z" fill="#222222"/>
<path d="M87.8549 175.71C136.376 175.71 175.71 136.376 175.71 87.8549C175.71 39.334 136.376 0 87.8549 0C39.334 0 0 39.334 0 87.8549C0 136.376 39.334 175.71 87.8549 175.71Z" fill="#FF4500"/>
<path d="M146.459 87.8534C146.459 80.7244 140.694 75.0631 133.669 75.0631C130.21 75.0631 127.064 76.4252 124.758 78.6276C115.952 72.337 103.895 68.2488 90.4755 67.7251L96.3459 40.2569L115.427 44.3451C115.638 49.168 119.62 53.0471 124.549 53.0471C129.581 53.0471 133.669 48.9589 133.669 43.9249C133.669 38.8929 129.581 34.8047 124.549 34.8047C120.984 34.8047 117.838 36.9015 116.371 39.9423L95.0893 35.4339C94.4601 35.3284 93.8308 35.4339 93.4107 35.7486C92.887 36.0632 92.5723 36.5869 92.4688 37.2162L85.9671 67.8287C72.3386 68.2488 60.0721 72.337 51.1609 78.7331C48.855 76.5307 45.7087 75.1687 42.2498 75.1687C35.1208 75.1687 29.4595 80.9335 29.4595 87.9589C29.4595 93.2 32.6038 97.6029 37.0086 99.5961C36.7975 100.853 36.694 102.111 36.694 103.475C36.694 123.183 59.6539 139.225 87.9604 139.225C116.267 139.225 139.227 123.289 139.227 103.475C139.227 102.217 139.121 100.853 138.912 99.5961C143.315 97.6029 146.459 93.0945 146.459 87.8534ZM58.6045 96.9736C58.6045 91.9415 62.6926 87.8534 67.7266 87.8534C72.7587 87.8534 76.8469 91.9415 76.8469 96.9736C76.8469 102.006 72.7587 106.096 67.7266 106.096C62.6926 106.199 58.6045 102.006 58.6045 96.9736ZM109.662 121.192C103.371 127.483 91.4193 127.903 87.9604 127.903C84.396 127.903 72.4441 127.377 66.2571 121.192C65.3152 120.248 65.3152 118.781 66.2571 117.837C67.201 116.895 68.6686 116.895 69.6124 117.837C73.5971 121.821 81.9845 123.183 87.9604 123.183C93.9364 123.183 102.427 121.821 106.306 117.837C107.25 116.895 108.718 116.895 109.662 117.837C110.5 118.781 110.5 120.248 109.662 121.192ZM107.983 106.199C102.951 106.199 98.8629 102.111 98.8629 97.0791C98.8629 92.0471 102.951 87.9589 107.983 87.9589C113.017 87.9589 117.105 92.0471 117.105 97.0791C117.105 102.006 113.017 106.199 107.983 106.199Z" fill="white"/>
</g>
<defs>
<clipPath id="clip0_1_9442">
<rect width="511" height="176" fill="white"/>
</clipPath>
</defs>
</svg>
