<svg width="256" height="194" viewBox="0 0 256 194" fill="none" xmlns="http://www.w3.org/2000/svg">
<g clip-path="url(#clip0_1_9450)">
<path d="M170.758 111.611C187.582 111.611 211.924 108.141 211.924 88.1293C211.975 86.5848 211.835 85.0401 211.508 83.5298L201.488 40.0099C199.175 30.4344 197.144 26.0905 180.333 17.685C167.288 11.0145 138.871 0 130.466 0C122.639 0 120.366 10.0865 111.032 10.0865C102.049 10.0865 95.3781 2.55525 86.9727 2.55525C78.9035 2.55525 73.645 8.05577 69.5835 19.3661C69.5835 19.3661 58.2732 51.2664 56.8207 55.8928C56.5899 56.7423 56.4901 57.6221 56.5248 58.5018C56.5248 70.9015 105.344 111.557 170.758 111.557M214.507 96.2523C216.833 107.267 216.833 108.423 216.833 109.876C216.833 128.704 195.665 139.154 167.84 139.154C104.954 139.194 49.8677 102.345 49.8677 77.989C49.8641 74.5988 50.5552 71.2438 51.8985 68.1311C29.2778 69.2608 0 73.2954 0 99.1438C0 141.48 100.314 193.661 179.742 193.661C240.637 193.661 255.996 166.118 255.996 144.372C255.996 127.265 241.202 107.845 214.534 96.2523" fill="#EE0000"/>
<path d="M214.507 96.251C216.833 107.266 216.833 108.422 216.833 109.875C216.833 128.703 195.665 139.152 167.84 139.152C104.954 139.193 49.8678 102.343 49.8678 77.9877C49.8641 74.5975 50.5553 71.2425 51.8985 68.1298L56.8207 55.9453C56.5953 56.7775 56.4955 57.6388 56.5249 58.5006C56.5249 70.9003 105.344 111.556 170.758 111.556C187.582 111.556 211.924 108.086 211.924 88.0742C211.975 86.5298 211.835 84.985 211.508 83.4748L214.507 96.251Z" fill="black"/>
</g>
<defs>
<clipPath id="clip0_1_9450">
<rect width="256" height="194" fill="white"/>
</clipPath>
</defs>
</svg>
