<svg width="256" height="220" viewBox="0 0 256 220" fill="none" xmlns="http://www.w3.org/2000/svg">
<g clip-path="url(#clip0_1_9460)">
<path d="M245.97 168.941C232.308 176.062 161.536 205.161 146.469 213.015C131.402 220.871 123.032 220.795 111.129 215.105C99.2271 209.415 23.9127 178.993 10.3463 172.509C3.56511 169.268 0 166.533 0 163.948V138.073C0 138.073 98.0491 116.727 113.879 111.049C129.707 105.37 135.199 105.165 148.67 110.099C162.141 115.034 242.687 129.566 256 134.443C256 134.443 255.994 157.553 255.994 159.952C255.996 162.51 252.924 165.317 245.97 168.941Z" fill="#912626"/>
<path d="M245.965 143.219C232.304 150.337 161.534 179.437 146.467 187.291C131.401 195.148 123.031 195.071 111.129 189.381C99.2261 183.695 23.9151 153.268 10.3491 146.787C-3.21684 140.302 -3.50184 135.839 9.82515 130.621C23.1511 125.401 98.0491 96.0157 113.88 90.3368C129.708 84.6598 135.199 84.4528 148.669 89.3888C162.14 94.3228 232.488 122.324 245.8 127.199C259.115 132.08 259.626 136.098 245.965 143.219Z" fill="#C6302B"/>
<path d="M245.97 127.073C232.308 134.194 161.536 163.293 146.469 171.15C131.402 179.004 123.032 178.928 111.129 173.238C99.2261 167.55 23.9127 137.125 10.3463 130.641C3.56511 127.4 0 124.668 0 122.084V96.2051C0 96.2051 98.0491 74.8605 113.879 69.1813C129.707 63.5031 135.199 63.2971 148.67 68.2313C162.141 73.1664 242.687 87.6959 256 92.573C256 92.573 255.994 115.684 255.994 118.086C255.996 120.643 252.924 123.449 245.97 127.073Z" fill="#912626"/>
<path d="M245.965 101.351C232.304 108.471 161.534 137.569 146.467 145.426C131.401 153.28 123.031 153.203 111.129 147.513C99.2261 141.827 23.9151 111.401 10.3491 104.919C-3.21684 98.436 -3.50184 93.972 9.82515 88.752C23.1511 83.535 98.0491 54.1481 113.88 48.4701C129.708 42.7921 135.199 42.5861 148.669 47.5211C162.14 52.4551 232.488 80.454 245.8 85.331C259.115 90.21 259.626 94.231 245.965 101.351Z" fill="#C6302B"/>
<path d="M245.97 83.6525C232.308 90.7737 161.536 119.874 146.469 127.731C131.402 135.585 123.032 135.508 111.129 129.818C99.2261 124.131 23.9127 93.7048 10.3463 87.2226C3.56511 83.9805 0 81.2474 0 78.6653V52.7855C0 52.7855 98.0491 31.4419 113.879 25.7637C129.707 20.0845 135.199 19.8795 148.67 24.8137C162.141 29.7488 242.687 44.2783 256 49.1554C256 49.1554 255.994 72.2661 255.994 74.6672C255.996 77.2223 252.924 80.0284 245.97 83.6525Z" fill="#912626"/>
<path d="M245.965 57.928C232.304 65.048 161.534 94.1479 146.467 102.003C131.401 109.857 123.031 109.78 111.129 104.092C99.2271 98.4039 23.9151 67.9799 10.3491 61.497C-3.21684 55.014 -3.50184 50.549 9.82515 45.33C23.1511 40.112 98.0491 10.728 113.88 5.04801C129.708 -0.630989 135.199 -0.834989 148.669 4.10001C162.14 9.035 232.488 37.034 245.8 41.911C259.115 46.787 259.626 50.808 245.965 57.928Z" fill="#C6302B"/>
<path d="M159.283 32.7567L137.274 35.0419L132.346 46.8972L124.388 33.6676L98.9731 31.3834L117.937 24.5449L112.247 14.0469L130.002 20.9906L146.74 15.5104L142.216 26.3656L159.283 32.7567Z" fill="white"/>
<path d="M131.032 90.2744L89.9546 73.2375L148.816 64.2031L131.032 90.2744Z" fill="white"/>
<path d="M74.0816 39.3438C91.4568 39.3438 105.542 44.8041 105.542 51.5385C105.542 58.2739 91.4568 63.7332 74.0816 63.7332C56.7073 63.7332 42.6213 58.2739 42.6213 51.5385C42.6213 44.8041 56.7073 39.3438 74.0816 39.3438Z" fill="white"/>
<path d="M185.295 35.9961L220.131 49.7625L185.325 63.5151L185.295 35.9961Z" fill="#621B1C"/>
<path d="M146.755 51.241L185.295 35.9961L185.325 63.5151L181.546 64.9935L146.755 51.241Z" fill="#9A2928"/>
</g>
<defs>
<clipPath id="clip0_1_9460">
<rect width="256" height="220" fill="white"/>
</clipPath>
</defs>
</svg>
