<svg width="256" height="250" viewBox="0 0 256 250" fill="none" xmlns="http://www.w3.org/2000/svg">
<g clip-path="url(#clip0_1_9487)">
<path d="M24.305 85.961C22.512 85.5625 20.4202 84.7656 18.926 83.7695C21.3167 85.961 30.9789 101.102 32.4731 104.19C32.7719 101.102 29.4848 91.2403 24.305 85.961Z" fill="url(#paint0_linear_1_9487)"/>
<path d="M33.9673 121.122C33.9673 121.122 37.0552 106.877 34.9634 97.6136C32.8715 88.3498 27.5922 78.5879 27.5922 78.4883C27.5922 78.4883 28.0902 83.3692 26.3968 83.9669C24.7034 84.5645 19.5237 80.4805 19.5237 80.4805C19.5237 80.4805 26.7953 88.3498 29.7836 95.2229C32.3735 101.1 33.0708 104.586 31.975 111.858C30.8793 119.13 30.6801 118.93 30.6801 118.93L33.9673 121.122Z" fill="url(#paint1_linear_1_9487)"/>
<path d="M14.6641 67.3321C13.668 68.8262 12.8711 70.3204 12.1738 71.9142C8.68744 78.4885 5.69911 85.262 3.30845 92.3344C-10.139 134.968 19.047 218.741 61.1824 217.545C65.9637 217.446 70.3466 221.331 68.952 227.706C68.454 230.096 68.1551 232.487 67.9559 234.977C67.3583 238.264 68.454 241.552 70.745 243.942C73.9326 247.329 78.3154 250.317 83.6944 249.819C87.0812 249.52 88.1769 248.723 91.0656 246.632C93.4563 244.938 95.3489 242.747 97.7396 240.954C97.9388 240.755 98.2376 240.655 98.4369 240.456C91.4641 235.176 92.6594 228.502 95.847 217.745C94.552 216.649 93.4563 215.553 92.3606 214.358C91.1653 213.063 90.1691 211.668 89.0734 210.274C88.1769 209.178 86.9816 208.182 86.1847 207.086C83.9933 203.899 84.0929 199.416 84.0929 195.531C84.1925 191.447 84.8898 187.264 84.0929 183.279C83.3956 179.892 82.1007 176.605 80.5069 173.517C77.419 167.441 73.1357 162.062 67.9559 157.679C62.6765 153.197 57.3972 148.714 52.2174 144.032C48.0337 140.247 44.4477 136.661 42.1567 131.382C40.5629 127.796 39.268 124.11 38.2719 120.325C37.475 117.337 36.9769 114.249 35.9808 111.36C35.1839 109.169 34.1878 106.977 32.9925 104.885C31.0999 101.399 29.5061 97.6138 27.4143 94.227C25.2228 90.4418 22.5333 86.3577 18.7481 83.7679C19.9435 82.3733 20.4415 80.5803 20.2423 78.6877C20.1427 77.3928 19.8439 74.9025 18.1505 74.7033C18.5489 73.4083 18.9474 72.0138 19.1466 70.7188C19.545 69.3243 19.1466 67.8301 17.9512 66.9336C16.9551 66.7344 15.959 66.6348 14.9629 66.7344C14.9629 66.9336 14.7637 67.1328 14.6641 67.3321ZM88.8742 234.28C90.1692 235.475 90.2688 237.567 89.173 238.862C88.2765 240.356 86.3839 240.755 84.8898 239.858C84.8898 239.858 84.7902 239.858 84.7902 239.759C83.4952 238.563 83.3956 236.471 84.4913 235.176C85.3878 233.682 87.2804 233.284 88.7746 234.18C88.7746 234.28 88.7746 234.28 88.8742 234.28Z" fill="url(#paint2_radial_1_9487)"/>
<path d="M99.4116 240.059C103.396 238.366 107.679 238.864 111.564 239.66C114.951 240.358 118.238 241.354 121.525 242.549C126.506 237.071 122.123 229.301 117.74 227.01C113.357 224.719 108.177 223.723 103.197 222.328C100.806 221.631 98.6147 219.838 96.7221 218.344C93.6342 228.903 92.5384 235.078 99.4116 240.059Z" fill="url(#paint3_radial_1_9487)"/>
<path d="M15.0413 156.582C14.8421 153.593 17.6312 155.087 19.723 156.582C17.0335 154.191 12.8499 149.908 14.4436 147.318C15.639 145.525 17.432 146.322 18.9261 147.517C16.9339 145.126 14.9417 141.839 15.9378 139.449C12.551 136.56 9.06464 134.368 7.17203 135.165C5.37904 135.962 8.46698 140.445 12.4514 145.027C9.66231 142.736 7.07242 141.341 5.77748 142.636C3.78526 144.728 9.76192 151.8 15.0413 157.279C15.1409 157.08 15.0413 156.88 15.0413 156.582Z" fill="url(#paint4_radial_1_9487)"/>
<path d="M8.56651 125.804C6.77351 127.697 11.3556 133.773 16.2366 139.152C17.2327 137.658 19.0257 138.854 20.719 140.447C18.1292 137.061 15.3401 132.678 17.3323 131.383C17.4319 131.283 17.5315 131.283 17.7307 131.183C14.0451 127.398 10.1603 124.111 8.56651 125.804Z" fill="url(#paint5_radial_1_9487)"/>
<path d="M16.9339 165.248C16.635 163.854 17.0335 163.356 17.7308 163.157C18.9261 163.157 20.1214 163.455 21.1175 164.153C19.4241 163.157 16.2366 160.866 15.3401 157.977C12.551 155.885 9.96111 154.69 9.66228 157.379C9.06461 163.157 22.6117 173.317 22.6117 173.317L22.7113 173.118C19.4241 169.332 17.1331 166.344 16.9339 165.248Z" fill="url(#paint6_radial_1_9487)"/>
<path d="M17.4319 124.807C17.0334 126.102 18.926 129.289 20.9182 132.178C19.7229 131.182 18.428 130.684 17.2326 131.481C15.2404 132.776 18.0295 137.158 20.6194 140.545C18.8264 138.852 16.8342 137.657 15.9377 139.649C14.9416 142.039 16.9338 145.327 18.926 147.717C17.4319 146.522 15.6389 145.725 14.4435 147.518C12.8498 150.008 16.9338 154.391 19.7229 156.782C17.6311 155.288 14.9416 153.694 15.0412 156.782C15.2404 160.268 19.1252 163.157 21.1175 164.352C20.1214 163.755 18.926 163.356 17.7307 163.356C17.0334 163.456 16.635 164.053 16.9338 165.448C17.9299 169.93 51.7976 205.591 57.8739 201.706C64.1494 197.622 58.0731 176.804 44.2272 155.088C38.5494 146.123 21.7151 123.811 18.1291 124.408C17.7307 124.209 17.5315 124.508 17.4319 124.807Z" fill="url(#paint7_radial_1_9487)"/>
<path d="M141.448 226.61C141.946 228.403 142.344 230.594 142.244 232.387C142.942 229.2 151.209 213.262 153.102 210.473C150.313 211.768 143.44 219.438 141.448 226.61Z" fill="url(#paint8_linear_1_9487)"/>
<path d="M167.047 200.609C167.047 200.609 153.201 205.092 146.229 211.467C139.256 217.842 133.379 227.405 133.379 227.405C133.379 227.405 137.363 224.516 138.658 225.711C139.953 226.907 139.057 233.381 139.057 233.381C139.057 233.381 142.244 223.221 146.727 217.145C150.512 211.965 153.201 209.574 160.075 206.885C166.948 204.195 166.848 204.395 166.848 204.395L167.047 200.609Z" fill="url(#paint9_linear_1_9487)"/>
<path d="M130.092 244.241C131.885 244.34 133.578 244.34 135.371 244.141C142.842 243.942 150.213 243.045 157.485 241.551C201.114 231.789 259.088 164.751 236.974 128.792C234.484 124.708 235.679 118.93 241.855 116.938C244.146 116.141 246.437 115.245 248.629 114.248C251.717 113.053 254.107 110.563 255.004 107.375C256.299 102.893 256.697 97.6135 253.609 93.2306C251.617 90.4415 250.422 89.8438 247.135 88.3497C244.445 87.1543 241.656 86.5567 238.967 85.4609C238.668 85.3613 238.468 85.2617 238.17 85.0625C237.074 93.7286 230.699 96.0197 219.841 98.7092C219.542 100.303 219.144 101.897 218.646 103.491C218.048 105.184 217.451 106.778 216.753 108.371C216.255 109.666 215.956 111.161 215.359 112.455C213.765 115.942 209.781 118.133 206.394 120.026C202.808 122.018 198.823 123.512 195.735 126.102C193.146 128.393 190.954 131.083 189.061 134.071C185.376 139.749 182.886 146.224 181.591 152.898C180.296 159.771 179.1 166.544 177.606 173.318C176.411 178.796 175.016 183.777 171.729 188.359C169.438 191.547 166.848 194.435 164.159 197.224C161.967 199.416 159.577 201.408 157.485 203.699C155.991 205.492 154.596 207.484 153.401 209.477C151.309 212.863 148.918 216.15 146.926 219.637C144.735 223.422 142.543 227.805 142.145 232.387C140.352 232.088 138.459 232.487 137.065 233.682C136.068 234.379 134.076 235.973 134.674 237.467C133.379 237.866 131.984 238.164 130.689 238.563C129.295 238.862 128.199 240.057 128 241.452C128.299 242.448 128.697 243.344 129.395 244.141C129.594 244.241 129.893 244.241 130.092 244.241ZM237.572 96.5178C237.97 94.8244 239.664 93.629 241.457 93.9279C243.15 94.0275 244.545 95.422 244.445 97.1154V97.215C244.047 98.9084 242.353 100.104 240.56 99.8049C238.867 99.7053 237.472 98.3107 237.572 96.6174C237.572 96.6174 237.572 96.6174 237.572 96.5178Z" fill="url(#paint10_radial_1_9487)"/>
<path d="M237.273 84.4643C233.787 81.8744 232.193 77.89 230.898 74.2044C229.802 70.9172 229.005 67.5304 228.408 64.1437C221.136 62.5499 216.654 70.2199 216.853 75.2005C217.052 80.181 218.845 85.1616 220.04 90.1421C220.638 92.5328 220.14 95.3219 219.841 97.7125C230.5 95.1226 236.377 92.9312 237.273 84.4643Z" fill="url(#paint11_radial_1_9487)"/>
<path d="M207.191 199.217C204.601 200.91 204.601 197.723 204.8 195.133C204.103 198.719 202.409 204.397 199.421 204.297C197.23 204.197 197.03 202.305 197.329 200.313C196.233 203.201 194.44 206.688 191.851 206.887C191.054 211.27 190.854 215.453 192.548 216.549C194.241 217.645 196.532 212.764 198.425 206.987C197.827 210.573 197.927 213.461 199.62 213.959C202.409 214.657 205.597 205.891 207.689 198.619C207.589 199.018 207.39 199.117 207.191 199.217Z" fill="url(#paint12_radial_1_9487)"/>
<path d="M183.782 220.332C186.272 221.03 189.261 213.858 191.552 207.084C189.858 206.984 189.858 204.793 190.456 202.602C188.862 206.586 186.472 211.168 184.28 210.072C184.181 209.973 184.081 209.973 183.981 209.873C182.388 214.854 181.591 219.735 183.782 220.332Z" fill="url(#paint13_radial_1_9487)"/>
<path d="M213.765 193.34C212.769 194.336 212.072 194.236 211.573 193.738C210.976 192.643 210.677 191.547 210.677 190.252C210.677 192.244 210.279 196.129 208.286 198.321C207.888 201.807 208.087 204.696 210.577 203.6C215.857 201.209 217.949 184.375 217.949 184.375H217.749C216.056 189.156 214.562 192.543 213.765 193.34Z" fill="url(#paint14_radial_1_9487)"/>
<path d="M178.403 213.161C179.698 212.862 181.491 209.575 182.985 206.387C182.686 207.881 182.985 209.276 184.18 209.874C186.372 210.969 188.763 206.387 190.356 202.403C189.759 204.794 189.759 207.184 191.95 206.885C194.54 206.587 196.333 203.2 197.429 200.311C197.13 202.204 197.329 204.196 199.521 204.295C202.509 204.395 204.202 198.717 204.9 195.131C204.601 197.721 204.7 200.809 207.29 199.215C210.279 197.323 210.777 192.541 210.777 190.25C210.777 191.446 211.075 192.641 211.673 193.737C212.171 194.235 212.769 194.334 213.865 193.338C217.251 190.25 231.197 143.035 224.822 139.748C218.148 136.361 203.206 152.099 191.253 174.91C186.372 184.373 175.415 210.073 177.706 212.862C177.805 213.061 178.104 213.26 178.403 213.161Z" fill="url(#paint15_radial_1_9487)"/>
<path d="M206.294 54.9805C207.589 53.6856 209.282 52.1914 210.876 51.3945C207.788 52.3906 189.858 53.1875 186.471 52.9883C188.962 54.7813 199.122 56.8731 206.294 54.9805Z" fill="url(#paint16_linear_1_9487)"/>
<path d="M170.932 45.8164C170.932 45.8164 181.79 55.5783 190.755 58.467C199.819 61.3557 210.976 61.6546 210.976 61.6546C210.976 61.6546 206.493 59.5627 206.792 57.8694C207.091 56.176 213.267 53.6857 213.267 53.6857C213.267 53.6857 202.808 56.0764 195.436 55.1799C189.061 54.4826 185.675 53.2873 179.897 48.7052C174.12 44.123 174.319 44.0234 174.319 44.0234L170.932 45.8164Z" fill="url(#paint17_linear_1_9487)"/>
<path d="M227.212 55.9769C226.415 54.3832 225.519 52.889 224.423 51.4945C220.538 45.1194 216.056 39.1427 211.175 33.6641C180.993 0.692898 93.8334 -16.0417 73.8116 21.1131C71.5205 25.3964 65.9423 27.1894 61.161 22.8065C59.368 21.2127 57.3758 19.7186 55.3835 18.324C52.7937 16.2322 49.4069 15.4353 46.2193 16.2322C41.6372 17.3279 36.9555 19.619 34.6645 24.4999C33.1703 27.5878 33.3695 28.9824 33.6684 32.4688C33.9672 35.3575 34.8637 38.1466 35.2621 41.0353V41.9318C43.3306 38.545 48.5104 42.9279 56.28 50.9964C57.7742 50.3987 59.368 50.0003 60.9618 49.7015C62.6551 49.303 64.4481 49.1038 66.1415 48.805C67.5361 48.6057 68.9306 48.1077 70.3252 47.9085C74.1104 47.6096 78.0948 49.9007 81.382 51.8929C84.8684 53.9847 88.1555 56.6742 92.0404 57.9692C95.3275 59.0649 98.8139 59.6625 102.3 59.7622C109.074 60.061 115.947 59.0649 122.322 56.7738C128.896 54.4828 135.371 52.0921 142.045 50.0003C147.424 48.3069 152.305 47.012 157.983 47.6096C161.868 48.0081 165.752 48.805 169.538 49.8011C172.526 50.598 175.415 51.6937 178.403 52.2913C180.694 52.6898 183.085 52.9886 185.475 52.9886C189.46 53.0882 193.444 53.5863 197.528 53.5863C201.911 53.5863 206.792 53.2874 210.976 51.2952C211.573 52.9886 212.868 54.3832 214.661 55.0804C215.757 55.5785 218.148 56.5746 219.144 55.1801C220.14 56.1762 221.036 57.1723 222.033 58.0688C223.029 59.1645 224.622 59.4633 225.917 58.9653C226.615 58.268 227.212 57.3715 227.511 56.475C227.412 56.3754 227.312 56.1762 227.212 55.9769ZM45.6217 36.752C43.9283 37.2501 42.1353 36.3536 41.438 34.6602C40.6411 33.166 41.2388 31.2734 42.733 30.4766C42.733 30.4766 42.8326 30.4766 42.8326 30.3769C44.526 29.8789 46.319 30.7754 47.0162 32.4688C47.8131 33.9629 47.2154 35.8555 45.7213 36.6524C45.6217 36.6524 45.6217 36.752 45.6217 36.752Z" fill="url(#paint18_radial_1_9487)"/>
<path d="M35.2622 43.0257C34.6645 47.309 32.1742 50.6957 29.5843 53.6841C27.2933 56.274 24.803 58.6646 22.1135 60.8561C24.4046 67.9284 33.2699 67.9284 37.4536 65.3386C41.6373 62.7487 45.1236 58.6646 48.8092 55.1782C50.6022 53.4849 53.2917 52.4887 55.4832 51.4926C47.8131 43.6234 43.0318 39.6389 35.2622 43.0257Z" fill="url(#paint19_radial_1_9487)"/>
<path d="M149.715 11.7498C152.405 13.1444 149.715 14.7382 147.324 15.8339C150.811 14.6385 156.588 13.244 157.983 15.9335C158.979 17.8261 157.385 19.0214 155.592 19.7187C158.58 19.2206 162.565 19.121 164.059 21.1132C168.243 19.6191 171.928 17.7265 172.128 15.7343C172.327 13.742 166.948 14.1405 160.872 15.4354C164.258 14.1405 166.749 12.5467 166.251 10.8533C165.454 8.06422 156.289 9.7576 148.918 11.5506C149.317 11.451 149.516 11.5506 149.715 11.7498Z" fill="url(#paint20_radial_1_9487)"/>
<path d="M179.698 21.4122C179.001 18.9219 171.331 19.918 164.358 21.3126C165.155 22.9063 163.262 23.9024 160.971 24.5997C165.155 24.0021 170.335 23.8028 170.434 26.1935V26.5919C175.614 25.3966 180.296 23.7032 179.698 21.4122Z" fill="url(#paint21_radial_1_9487)"/>
<path d="M141.348 8.95949C142.742 9.35793 142.942 9.9556 142.742 10.6529C142.145 11.649 141.248 12.5455 140.152 13.1431C141.945 12.147 145.432 10.5533 148.42 11.2505C151.608 9.85599 153.998 8.1626 151.807 6.66844C147.026 3.18206 131.486 9.85599 131.486 9.85599L131.586 10.0552C136.566 9.15871 140.252 8.66065 141.348 8.95949Z" fill="url(#paint22_radial_1_9487)"/>
<path d="M176.112 29.6803C175.215 28.6842 171.43 28.7838 167.944 29.0826C169.338 28.5845 170.434 27.688 170.434 26.2935C170.335 23.9028 165.155 24.1021 160.971 24.6997C163.362 24.0024 165.454 22.8071 164.159 21.1137C162.664 19.0219 158.78 19.2211 155.692 19.7192C157.485 19.0219 159.078 17.8266 158.082 15.934C156.688 13.2445 150.91 14.7386 147.424 15.8344C149.815 14.8382 152.504 13.1449 149.815 11.7503C146.627 10.1565 142.344 12.0491 140.252 13.2445C141.348 12.6468 142.145 11.8499 142.842 10.7542C143.041 10.0569 142.742 9.45926 141.447 9.06081C137.064 7.66626 89.2512 19.2211 89.6497 26.3931C90.0481 33.8639 111.166 38.9441 136.865 37.8484C147.524 37.3503 175.215 34.0631 176.51 30.5768C176.411 30.1783 176.311 29.8795 176.112 29.6803Z" fill="url(#paint23_radial_1_9487)"/>
</g>
<defs>
<linearGradient id="paint0_linear_1_9487" x1="1020.69" y1="628.83" x2="223.75" y2="1125.42" gradientUnits="userSpaceOnUse">
<stop stop-color="#B1278F"/>
<stop offset="0.48" stop-color="#AF278E"/>
<stop offset="0.65" stop-color="#A8258A"/>
<stop offset="0.76" stop-color="#9E2383"/>
</linearGradient>
<linearGradient id="paint1_linear_1_9487" x1="1821.44" y1="785.747" x2="-406.952" y2="1238.31" gradientUnits="userSpaceOnUse">
<stop stop-color="#EC178D"/>
<stop offset="0.47" stop-color="#EA178D"/>
<stop offset="0.64" stop-color="#E3188C"/>
<stop offset="0.76" stop-color="#D81A8A"/>
<stop offset="0.86" stop-color="#C71D88"/>
<stop offset="0.95" stop-color="#B12085"/>
<stop offset="1" stop-color="#9E2383"/>
</linearGradient>
<radialGradient id="paint2_radial_1_9487" cx="0" cy="0" r="1" gradientUnits="userSpaceOnUse" gradientTransform="translate(5602.53 16348.2) scale(13951.6 25962.1)">
<stop stop-color="#EC178D"/>
<stop offset="0.24" stop-color="#CB1C8C"/>
<stop offset="0.77" stop-color="#772888"/>
<stop offset="1" stop-color="#512E87"/>
</radialGradient>
<radialGradient id="paint3_radial_1_9487" cx="0" cy="0" r="1" gradientUnits="userSpaceOnUse" gradientTransform="translate(1195.96 2816) scale(2405.73 1978.65)">
<stop stop-color="#BA258E"/>
<stop offset="0.23" stop-color="#B5258D"/>
<stop offset="0.51" stop-color="#A5278B"/>
<stop offset="0.83" stop-color="#8B2987"/>
<stop offset="1" stop-color="#7A2A85"/>
</radialGradient>
<radialGradient id="paint4_radial_1_9487" cx="0" cy="0" r="1" gradientUnits="userSpaceOnUse" gradientTransform="translate(-249.994 1662.79) scale(1655.11 2571.78)">
<stop offset="0.09" stop-color="#E21A8D"/>
<stop offset="1" stop-color="#952584"/>
</radialGradient>
<radialGradient id="paint5_radial_1_9487" cx="0" cy="0" r="1" gradientUnits="userSpaceOnUse" gradientTransform="translate(73.9178 1064.95) scale(1006.7 1211.25)">
<stop offset="0.09" stop-color="#E21A8D"/>
<stop offset="1" stop-color="#952584"/>
</radialGradient>
<radialGradient id="paint6_radial_1_9487" cx="0" cy="0" r="1" gradientUnits="userSpaceOnUse" gradientTransform="translate(90.2967 1199.37) scale(1107.71 1482.75)">
<stop offset="0.09" stop-color="#E21A8D"/>
<stop offset="1" stop-color="#952584"/>
</radialGradient>
<radialGradient id="paint7_radial_1_9487" cx="0" cy="0" r="1" gradientUnits="userSpaceOnUse" gradientTransform="translate(1034.15 4821.1) scale(6159.98 10340.8)">
<stop stop-color="#E21A8D"/>
<stop offset="0.25" stop-color="#DF1A8D"/>
<stop offset="0.44" stop-color="#D51C8C"/>
<stop offset="0.6" stop-color="#C51E8A"/>
<stop offset="0.76" stop-color="#AF2187"/>
<stop offset="0.89" stop-color="#952584"/>
</radialGradient>
<linearGradient id="paint8_linear_1_9487" x1="188.664" y1="1254.42" x2="1204.42" y2="1281.11" gradientUnits="userSpaceOnUse">
<stop stop-color="#B1278F"/>
<stop offset="0.48" stop-color="#AF278E"/>
<stop offset="0.65" stop-color="#A8258A"/>
<stop offset="0.76" stop-color="#9E2383"/>
</linearGradient>
<linearGradient id="paint9_linear_1_9487" x1="240.697" y1="1668.83" x2="3346.3" y2="1972.84" gradientUnits="userSpaceOnUse">
<stop stop-color="#EC178D"/>
<stop offset="0.47" stop-color="#EA178D"/>
<stop offset="0.64" stop-color="#E3188C"/>
<stop offset="0.76" stop-color="#D81A8A"/>
<stop offset="0.86" stop-color="#C71D88"/>
<stop offset="0.95" stop-color="#B12085"/>
<stop offset="1" stop-color="#9E2383"/>
</linearGradient>
<radialGradient id="paint10_radial_1_9487" cx="0" cy="0" r="1" gradientUnits="userSpaceOnUse" gradientTransform="translate(12310.3 4313.48) scale(13951.6 17360.8)">
<stop stop-color="#EC178D"/>
<stop offset="0.24" stop-color="#CB1C8C"/>
<stop offset="0.77" stop-color="#772888"/>
<stop offset="1" stop-color="#512E87"/>
</radialGradient>
<radialGradient id="paint11_radial_1_9487" cx="0" cy="0" r="1" gradientUnits="userSpaceOnUse" gradientTransform="translate(2337.53 1397.67) scale(2405.73 3978.76)">
<stop stop-color="#BA258E"/>
<stop offset="0.23" stop-color="#B5258D"/>
<stop offset="0.51" stop-color="#A5278B"/>
<stop offset="0.83" stop-color="#8B2987"/>
<stop offset="1" stop-color="#7A2A85"/>
</radialGradient>
<radialGradient id="paint12_radial_1_9487" cx="0" cy="0" r="1" gradientUnits="userSpaceOnUse" gradientTransform="translate(1853.02 1984.08) scale(1655.11 2172.65)">
<stop offset="0.09" stop-color="#E21A8D"/>
<stop offset="1" stop-color="#952584"/>
</radialGradient>
<radialGradient id="paint13_radial_1_9487" cx="0" cy="0" r="1" gradientUnits="userSpaceOnUse" gradientTransform="translate(1080.56 1502.05) scale(1006.7 1963.78)">
<stop offset="0.09" stop-color="#E21A8D"/>
<stop offset="1" stop-color="#952584"/>
</radialGradient>
<radialGradient id="paint14_radial_1_9487" cx="0" cy="0" r="1" gradientUnits="userSpaceOnUse" gradientTransform="translate(1185.98 1590.33) scale(1107.71 2194.61)">
<stop offset="0.09" stop-color="#E21A8D"/>
<stop offset="1" stop-color="#952584"/>
</radialGradient>
<radialGradient id="paint15_radial_1_9487" cx="0" cy="0" r="1" gradientUnits="userSpaceOnUse" gradientTransform="translate(3973.79 4600.18) scale(6159.98 9275.91)">
<stop stop-color="#E21A8D"/>
<stop offset="0.25" stop-color="#DF1A8D"/>
<stop offset="0.44" stop-color="#D51C8C"/>
<stop offset="0.6" stop-color="#C51E8A"/>
<stop offset="0.76" stop-color="#AF2187"/>
<stop offset="0.89" stop-color="#952584"/>
</radialGradient>
<linearGradient id="paint16_linear_1_9487" x1="1648.04" y1="647.551" x2="1634.55" y2="-283.711" gradientUnits="userSpaceOnUse">
<stop stop-color="#B1278F"/>
<stop offset="0.48" stop-color="#AF278E"/>
<stop offset="0.65" stop-color="#A8258A"/>
<stop offset="0.76" stop-color="#9E2383"/>
</linearGradient>
<linearGradient id="paint17_linear_1_9487" x1="3073.19" y1="2304.99" x2="2840.19" y2="-615.612" gradientUnits="userSpaceOnUse">
<stop stop-color="#EC178D"/>
<stop offset="0.47" stop-color="#EA178D"/>
<stop offset="0.64" stop-color="#E3188C"/>
<stop offset="0.76" stop-color="#D81A8A"/>
<stop offset="0.86" stop-color="#C71D88"/>
<stop offset="0.95" stop-color="#B12085"/>
<stop offset="1" stop-color="#9E2383"/>
</linearGradient>
<radialGradient id="paint18_radial_1_9487" cx="0" cy="0" r="1" gradientUnits="userSpaceOnUse" gradientTransform="translate(3303.43 1071.63) scale(13951.6 4301.49)">
<stop stop-color="#EC178D"/>
<stop offset="0.24" stop-color="#CB1C8C"/>
<stop offset="0.77" stop-color="#772888"/>
<stop offset="1" stop-color="#512E87"/>
</radialGradient>
<radialGradient id="paint19_radial_1_9487" cx="0" cy="0" r="1" gradientUnits="userSpaceOnUse" gradientTransform="translate(672.553 458.854) scale(2405.73 1810.32)">
<stop stop-color="#BA258E"/>
<stop offset="0.23" stop-color="#B5258D"/>
<stop offset="0.51" stop-color="#A5278B"/>
<stop offset="0.83" stop-color="#8B2987"/>
<stop offset="1" stop-color="#7A2A85"/>
</radialGradient>
<radialGradient id="paint20_radial_1_9487" cx="0" cy="0" r="1" gradientUnits="userSpaceOnUse" gradientTransform="translate(1545.56 -501.212) scale(1655.11 783.125)">
<stop offset="0.09" stop-color="#E21A8D"/>
<stop offset="1" stop-color="#952584"/>
</radialGradient>
<radialGradient id="paint21_radial_1_9487" cx="0" cy="0" r="1" gradientUnits="userSpaceOnUse" gradientTransform="translate(1240.29 -245.757) scale(1006.7 359.461)">
<stop offset="0.09" stop-color="#E21A8D"/>
<stop offset="1" stop-color="#952584"/>
</radialGradient>
<radialGradient id="paint22_radial_1_9487" cx="0" cy="0" r="1" gradientUnits="userSpaceOnUse" gradientTransform="translate(1348.59 -272.83) scale(1107.71 391.58)">
<stop offset="0.09" stop-color="#E21A8D"/>
<stop offset="1" stop-color="#952584"/>
</radialGradient>
<radialGradient id="paint23_radial_1_9487" cx="0" cy="0" r="1" gradientUnits="userSpaceOnUse" gradientTransform="translate(4360.27 350.655) scale(6159.98 2060.22)">
<stop stop-color="#E21A8D"/>
<stop offset="0.25" stop-color="#DF1A8D"/>
<stop offset="0.44" stop-color="#D51C8C"/>
<stop offset="0.6" stop-color="#C51E8A"/>
<stop offset="0.76" stop-color="#AF2187"/>
<stop offset="0.89" stop-color="#952584"/>
</radialGradient>
<clipPath id="clip0_1_9487">
<rect width="256" height="250" fill="white"/>
</clipPath>
</defs>
</svg>
