<svg width="256" height="157" viewBox="0 0 256 157" fill="none" xmlns="http://www.w3.org/2000/svg">
<g clip-path="url(#clip0_1_9517)">
<path d="M130.005 96.2276C130.005 101.499 126.084 105.851 121.001 106.534C114.974 120.583 102.699 134.289 85.8813 143.999C71.7663 152.148 56.8083 156.125 43.3912 156.125C26.3276 156.125 11.7549 149.696 4.56501 137.242C-7.1118 117.018 4.2658 88.798 31.2326 69.729C31.2335 74.0849 31.5743 78.0791 32.3374 81.6232C30.1614 83.4577 28.1838 85.0288 26.254 87.0522C21.2882 92.258 17.3182 97.6517 14.602 103.411C9.53573 114.153 9.19331 124.307 13.6373 132.004C18.6437 140.676 29.4887 145.649 43.3912 145.649C55.4376 145.649 68.6675 141.841 80.6435 134.927C87.617 130.901 93.8177 126.066 99.0739 120.555C104.04 115.349 107.935 109.789 110.651 104.03C110.888 103.528 111.111 103.028 111.326 102.529C109.992 100.78 109.199 98.5971 109.199 96.2276C109.199 90.482 113.856 85.8246 119.602 85.8246C125.348 85.8246 130.005 90.482 130.005 96.2276ZM83.5779 0C106.805 0 126.056 24.5436 129.529 56.6205C125.906 54.4432 122.113 52.6286 118.141 51.1951C117.667 48.7159 117.081 46.281 116.381 43.8968C114.355 36.9933 111.488 30.8401 107.858 25.6079C101.089 15.8497 92.4656 10.4757 83.5779 10.4757C74.6903 10.4757 66.0671 15.8497 59.2978 25.6079C55.668 30.8401 52.8006 36.9933 50.7749 43.8968C48.631 51.2039 47.5438 58.9916 47.5438 67.0438C47.5438 75.0961 48.631 82.8838 50.7749 90.1906C52.8006 97.0941 55.668 103.247 59.2978 108.48C59.674 109.022 60.056 109.549 60.4433 110.064C61.0633 109.949 61.7017 109.886 62.3548 109.886C68.1007 109.886 72.7581 114.544 72.7581 120.289C72.7581 126.035 68.1007 130.692 62.3548 130.692C56.6095 130.692 51.9518 126.035 51.9518 120.289C51.9518 119.113 52.1498 117.983 52.5099 116.928C43.032 104.655 37.0681 86.855 37.0681 67.0438C37.0681 30.0165 57.8912 0 83.5779 0ZM123.665 145.647C136.422 145.647 146.605 141.459 152.064 134.069C155.238 135.747 158.766 136.767 162.49 137.285C155.259 149.6 140.631 156.123 123.665 156.123C113.174 156.123 101.743 153.692 90.5081 148.737C94.8801 146.322 98.7535 143.989 101.623 141.82C109.048 144.323 116.562 145.647 123.665 145.647ZM140.877 86.8837C135.621 81.3731 129.42 76.5379 122.447 72.512C110.471 65.5973 97.2419 61.7894 85.1978 61.7894H85.1962C82.5642 61.7898 80.0415 61.9682 77.6474 62.3158C77.5866 62.3247 77.5276 62.3361 77.4671 62.3453C76.3796 66.9284 72.2629 70.3389 67.3472 70.3389C61.6016 70.3389 56.9442 65.6812 56.9442 59.9359C56.9442 54.1903 61.6016 49.5325 67.3472 49.5325C70.045 49.5325 72.5026 50.5595 74.3512 52.2438C74.3653 52.2411 74.379 52.2379 74.3934 52.2353C77.8399 51.6228 81.4577 51.3141 85.1942 51.3137C98.6126 51.3131 113.567 55.2889 127.684 63.4397C150.91 76.8492 165.489 97.8802 166.882 116.91C162.664 116.436 159.094 115.036 155.813 113.226C155.153 110.048 154.033 106.757 152.454 103.409C149.738 97.6494 145.843 92.0894 140.877 86.8837Z" fill="#999999"/>
<path d="M247.009 71.083C251.618 78.0231 242.233 83.4518 238.031 76.4734C235.469 72.1004 231.539 68.0103 226.388 64.4368C221.156 60.807 215.002 57.9396 208.099 55.9142C200.792 53.7699 193.004 52.6827 184.952 52.6827C176.9 52.6827 169.112 53.7699 161.805 55.9142C160.548 56.2831 159.318 56.6831 158.112 57.1077C157.962 62.7227 153.367 67.2296 147.715 67.2296C141.97 67.2296 137.312 62.5721 137.312 56.8265C137.312 51.0809 141.97 46.4232 147.715 46.4232C149.627 46.4232 151.417 46.9414 152.956 47.841C162.466 44.2511 173.364 42.207 184.952 42.207C212.982 42.207 236.995 54.1405 247.009 71.083ZM255.756 96.2284C255.756 101.445 251.916 105.764 246.909 106.515C236.837 123.37 212.891 135.227 184.952 135.227C163.134 135.227 143.751 127.997 131.508 116.803C125.586 110.85 132.714 103.933 138.237 108.765C139.82 110.24 141.582 111.655 143.516 112.997C148.749 116.627 154.902 119.494 161.805 121.52C169.112 123.664 176.9 124.751 184.952 124.751C193.004 124.751 200.792 123.664 208.099 121.52C215.002 119.494 221.156 116.627 226.388 112.997C230.927 109.848 234.515 106.297 237.057 102.505C235.735 100.76 234.949 98.5868 234.949 96.2284C234.949 90.4828 239.607 85.8254 245.353 85.8254C251.098 85.8254 255.756 90.4828 255.756 96.2284Z" fill="#89D96D"/>
</g>
<defs>
<clipPath id="clip0_1_9517">
<rect width="256" height="157" fill="white"/>
</clipPath>
</defs>
</svg>
