<svg width="256" height="256" viewBox="0 0 256 256" fill="none" xmlns="http://www.w3.org/2000/svg">
<g clip-path="url(#clip0_1_9546)">
<path d="M128 256C198.692 256 256 198.692 256 128C256 57.3075 198.692 0 128 0C57.3075 0 0 57.3075 0 128C0 198.692 57.3075 256 128 256Z" fill="#497C9B"/>
<path d="M178.208 70.8594L192.817 85.4684C197.687 90.3374 197.687 97.2944 192.817 102.163L153.861 141.816C152.618 143.084 152.541 145.066 153.628 146.423L161.612 155.472L162.717 154.369C166.891 150.195 173.848 150.195 178.022 154.369L210.717 186.369C214.891 191.238 214.891 198.195 210.717 202.369L205.152 207.934C203.065 210.021 200.283 210.716 197.5 210.716C194.717 210.716 191.935 210.021 189.848 207.934L157.152 175.238C153.485 171.57 153.04 165.755 155.817 161.567L147.6 152.25C143.001 147.635 143.001 140.17 147.6 135.555L186.556 96.5984C187.948 95.2074 187.948 92.4244 186.556 91.7294L172.643 77.1204C171.291 75.7944 169.127 75.7944 167.774 77.1204L161.513 70.8594C166.128 66.2604 173.593 66.2604 178.208 70.8594ZM170.947 157.851L170.37 157.847C169.674 157.847 168.283 157.847 167.587 159.238L162.022 164.108C160.63 166.195 160.63 168.977 162.022 170.369L194.717 203.064C196.379 204.949 199.317 204.949 200.978 203.064L205.848 197.499C207.935 196.108 207.935 193.325 205.848 191.238L173.848 159.238C172.663 158.053 171.983 157.877 170.947 157.851Z" fill="#E8FEFF"/>
<path d="M156.566 72.4444L165.565 81.3899C168.348 84.1729 168.348 89.0429 165.565 92.5209L95.304 162.782C92.522 165.564 87.652 165.564 84.87 162.782L75.1749 153.14C72.3919 150.357 72.3919 145.488 75.1749 142.705L145.436 72.4444C148.914 68.9664 153.784 68.9664 156.566 72.4444Z" fill="#77B3B2"/>
<path d="M107.282 53.5454L119.803 41.0234L132.325 53.5454L119.803 66.0674L107.282 53.5454Z" fill="#77B3B2"/>
<path d="M44.6732 115.46L57.1952 102.938L69.7162 115.46L57.1952 127.981L44.6732 115.46Z" fill="#77B3B2"/>
<path d="M69.0212 90.4165L81.5422 77.8945L94.0642 90.4165L81.5422 102.938L69.0212 90.4165Z" fill="#77B3B2"/>
<path d="M94.0642 90.4165L106.586 77.8945L119.108 90.4165L106.586 102.938L94.0642 90.4165Z" fill="#73A9AE"/>
<path d="M69.7162 115.46L82.2382 102.938L94.7602 115.46L82.2382 127.981L69.7162 115.46Z" fill="#73A9AE"/>
<path d="M81.5422 102.935L94.0642 90.4141L106.586 102.935L94.0642 115.457L81.5422 102.935Z" fill="#F0F9FE"/>
<path d="M119.108 65.3697L131.629 52.8477L144.151 65.3697L131.629 77.8917L119.108 65.3697Z" fill="#F0F9FE"/>
<path d="M57.1952 127.979L69.7162 115.457L82.2382 127.979L69.7162 140.501L57.1952 127.979Z" fill="#F0F9FE"/>
<path d="M94.0642 65.3697L106.586 52.8477L119.108 65.3697L106.586 77.8917L94.0642 65.3697Z" fill="#77B3B2"/>
<path d="M56.4991 77.8924L69.0211 66.0664L81.5421 77.8924L69.0211 90.4144L56.4991 77.8924Z" fill="#77B3B2"/>
<path d="M94.7603 41.022L107.282 28.5L119.803 41.022L107.282 53.544L94.7603 41.022Z" fill="#77B3B2"/>
<path d="M19.6292 90.4165L32.1512 77.8945L44.6732 90.4165L32.1512 102.938L19.6292 90.4165Z" fill="#77B3B2"/>
<path d="M57.1952 53.5454L69.7162 41.0234L82.2382 53.5454L69.7162 66.0674L57.1952 53.5454Z" fill="#77B3B2"/>
</g>
<defs>
<clipPath id="clip0_1_9546">
<rect width="256" height="256" fill="white"/>
</clipPath>
</defs>
</svg>
