<svg width="256" height="308" viewBox="0 0 256 308" fill="none" xmlns="http://www.w3.org/2000/svg">
<g clip-path="url(#clip0_1_9564)">
<path d="M0 19.2C0 8.59648 8.59648 0 19.2 0H108.8C119.404 0 128 8.59648 128 19.2V102.4H19.2C8.59648 102.4 0 93.8035 0 83.2V19.2ZM128 102.4H236.8C247.404 102.4 256 110.996 256 121.6V185.6C256 196.204 247.404 204.8 236.8 204.8H128V102.4ZM0 224C0 213.396 8.59648 204.8 19.2 204.8H128V288C128 298.604 119.404 307.2 108.8 307.2H19.2C8.59648 307.2 0 298.604 0 288V224Z" fill="#F26207"/>
</g>
<defs>
<clipPath id="clip0_1_9564">
<rect width="256" height="308" fill="white"/>
</clipPath>
</defs>
</svg>
