<svg width="256" height="283" viewBox="0 0 256 283" fill="none" xmlns="http://www.w3.org/2000/svg">
<g clip-path="url(#clip0_1_9571)">
<path d="M128.105 245.259C183.406 245.259 228.237 200.429 228.237 145.128C228.237 89.8266 183.406 44.9961 128.105 44.9961C72.8039 44.9961 27.9734 89.8266 27.9734 145.128C27.9734 200.429 72.8039 245.259 128.105 245.259Z" fill="#43A5EB"/>
<path d="M128.457 212.115C165.318 212.115 195.2 182.233 195.2 145.372C195.2 108.511 165.318 78.6289 128.457 78.6289C91.5959 78.6289 61.7141 108.511 61.7141 145.372C61.7141 182.233 91.5959 212.115 128.457 212.115Z" fill="#F34B41"/>
<path d="M128.457 179.2C147.14 179.2 162.286 164.055 162.286 145.372C162.286 126.689 147.14 111.543 128.457 111.543C109.774 111.543 94.6284 126.689 94.6284 145.372C94.6284 164.055 109.774 179.2 128.457 179.2Z" fill="#FEFB1F"/>
<path d="M0.347412 75.5831L4.06581 69.5644C5.54787 67.1662 7.1497 65.7683 8.87313 65.3706C10.5947 64.9729 12.3282 65.313 14.0727 66.3918C14.6615 66.7548 15.1844 67.2129 15.6407 67.7669C16.0978 68.3201 16.4644 68.9317 16.7451 69.6019C17.0249 70.2711 17.1895 70.977 17.2443 71.7185C17.2992 72.4609 17.2059 73.195 16.9682 73.921L28.9719 74.8298L27.3947 77.3815L15.6105 76.3374L13.1858 80.2625L22.1806 85.8204L20.725 88.1756L0.347412 75.5831ZM3.96158 74.5619L11.157 79.0081L13.5927 75.0657C14.4914 73.611 14.8215 72.3594 14.5801 71.3098C14.3406 70.262 13.685 69.4062 12.6171 68.7461C12.0932 68.4225 11.5611 68.214 11.0162 68.1171C10.4731 68.022 9.94101 68.0302 9.41987 68.1427C8.89873 68.2551 8.37758 68.5111 7.85918 68.9116C7.34078 69.3121 6.85347 69.8817 6.39633 70.6195L3.96158 74.5619ZM21.9483 45.8488L32.5577 35.691L34.2062 37.4126L25.4299 45.8149L30.8809 51.5091L38.1294 44.5687L39.8848 46.401L32.6363 53.3413L38.7255 59.7011L47.4176 51.3783L49.067 53.1009L38.5399 63.18L21.9483 45.8488ZM69.5442 25.5351C71.285 28.6145 72.1426 31.34 72.1161 33.7107C72.0887 36.0824 71.1835 38.0663 69.4062 39.66C69.8679 40.3713 70.3982 40.8659 70.997 41.1457C71.5968 41.4245 72.3648 41.2993 73.3019 40.7699C73.4135 40.7068 73.5863 40.5943 73.8185 40.4334C74.0507 40.2725 74.3095 40.1043 74.5929 39.9287C74.8772 39.7541 75.1406 39.5822 75.3847 39.4149C75.6288 39.2476 75.8062 39.1324 75.9177 39.0693L77.1392 41.3825L75.8336 42.1212C74.7401 42.7393 73.7883 43.2046 72.9774 43.5155C72.1664 43.8263 71.4185 43.9105 70.7346 43.7678C70.0507 43.6252 69.44 43.3144 68.9051 42.8371C68.3703 42.3589 67.8564 41.6851 67.3636 40.8156C66.4521 41.1831 65.472 41.3486 64.4187 41.3111C63.3655 41.2737 62.2811 40.9957 61.1657 40.4791C60.0475 39.9626 58.9476 39.1772 57.8679 38.1258C56.7872 37.0734 55.7659 35.6993 54.8068 34.0033C53.621 31.9068 52.8768 30.0307 52.5732 28.3758C52.2706 26.721 52.2606 25.2837 52.5431 24.0641C52.8247 22.8453 53.2992 21.8104 53.9675 20.9601C54.6368 20.1116 55.36 19.4661 56.1408 19.0236C57.1008 18.4814 58.1348 18.1614 59.2439 18.0645C60.352 17.9685 61.5177 18.155 62.7419 18.6259C63.9652 19.0977 65.1337 19.8867 66.2473 20.9948C67.36 22.1029 68.459 23.6161 69.5442 25.5351ZM54.9248 24.8366C54.5088 26.8097 55.1342 29.2691 56.8009 32.2131C57.5579 33.5516 58.3634 34.7018 59.2164 35.6618C60.0686 36.6227 60.9454 37.3642 61.8441 37.8862C62.741 38.4092 63.659 38.7009 64.5915 38.7612C65.525 38.8234 66.3936 38.6259 67.1954 38.1715C67.7531 37.8561 68.2487 37.3916 68.683 36.7781C69.1172 36.1656 69.3988 35.4021 69.5296 34.4878C69.6612 33.5735 69.5854 32.5276 69.301 31.3482C69.0167 30.1697 68.458 28.843 67.6251 27.371C66.5655 25.4958 65.5442 24.0567 64.5623 23.0501C63.5803 22.0444 62.6286 21.3614 61.7024 21.0021C60.7771 20.6419 59.9515 20.4974 59.2265 20.5687C58.5024 20.641 57.8724 20.8275 57.3367 21.1301C56.6665 21.5096 56.1362 22.0298 55.7458 22.6926C55.3554 23.3555 55.082 24.0723 54.9248 24.8366ZM82.6075 7.41583L85.5396 6.62315L85.5972 6.68715C85.6238 6.78681 85.6064 6.94498 85.5451 7.16075C85.4839 7.37652 85.4665 7.62795 85.4903 7.91321L89.2809 21.931C89.6292 23.2193 90.0242 24.1838 90.4612 24.8238C90.9001 25.4629 91.4048 25.9521 91.9744 26.2903C92.5431 26.6277 93.1611 26.827 93.8276 26.8855C94.4942 26.945 95.1799 26.9047 95.8866 26.7676C96.5659 26.5308 97.1812 26.2309 97.7344 25.8679C98.2866 25.5059 98.7273 25.0222 99.0537 24.4142C99.3801 23.8071 99.5776 23.1095 99.6434 22.3205C99.7092 21.5315 99.5611 20.4673 99.1991 19.1287L95.115 4.03298L97.6027 3.36098L101.669 18.3927C102.076 19.9022 102.255 21.2215 102.202 22.3516C102.147 23.4807 101.869 24.4865 101.363 25.366C100.858 26.2465 100.195 26.9843 99.3719 27.5777C98.5508 28.171 97.5698 28.6227 96.4315 28.9299C95.3179 29.2316 94.2574 29.3322 93.2489 29.2344C92.2395 29.1356 91.3152 28.8403 90.4795 28.3502C89.643 27.8593 88.9152 27.1799 88.2962 26.3123C87.6754 25.4446 87.1442 24.1939 86.7035 22.5601L82.6075 7.41583ZM120.428 0.423378L132.386 0.316406L132.405 2.54543L127.677 2.58841L127.852 22.1587L132.813 22.1148L132.832 24.3054L120.374 24.417L120.355 22.188L125.083 22.145L124.908 2.61401L120.449 2.65332L120.428 0.423378ZM154.844 2.69081L161.72 4.36029C164.459 5.02498 166.284 6.11481 167.196 7.62886C168.108 9.14292 168.322 10.8956 167.838 12.8878C167.674 13.5607 167.4 14.2007 167.016 14.8051C166.632 15.4113 166.164 15.9507 165.615 16.4243C165.065 16.8979 164.445 17.2746 163.758 17.5553C163.069 17.8369 162.342 17.9767 161.578 17.9758L164.436 29.6695L161.521 28.9619L158.861 17.4346L154.376 16.3457L151.881 26.6204L149.191 25.9667L154.844 2.69081ZM156.934 5.80943L154.939 14.0289L159.441 15.1233C161.103 15.5265 162.395 15.4515 163.318 14.8974C164.241 14.3434 164.851 13.4565 165.147 12.235C165.292 11.638 165.326 11.0657 165.249 10.5189C165.171 9.97218 164.998 9.46841 164.729 9.00852C164.461 8.54772 164.056 8.13264 163.514 7.76326C162.973 7.39572 162.281 7.10863 161.438 6.90383L156.934 5.80943ZM190.146 14.1331L203.098 21.057L201.975 23.1598L191.259 17.4309L187.543 24.3822L196.394 29.1137L195.197 31.3509L186.347 26.6195L182.195 34.3845L192.808 40.0586L191.685 42.1605L178.834 35.2915L190.146 14.1331ZM211.755 36.065C212.083 36.3173 212.353 36.6309 212.565 37.0039C212.776 37.3779 212.921 37.7628 212.995 38.1587C213.072 38.5555 213.075 38.9459 213.006 39.3326C212.936 39.7185 212.789 40.0604 212.56 40.3575C212.314 40.6766 212.018 40.9253 211.669 41.1045C211.319 41.2837 210.949 41.387 210.556 41.4145C210.163 41.4419 209.763 41.3953 209.356 41.2773C208.949 41.1585 208.566 40.9601 208.204 40.683C207.854 40.4142 207.572 40.1043 207.359 39.755C207.147 39.4049 207.005 39.0392 206.936 38.6561C206.868 38.2739 206.877 37.8926 206.966 37.5132C207.056 37.1347 207.227 36.7799 207.48 36.4508C207.724 36.1326 208.025 35.8858 208.378 35.7102C208.732 35.5356 209.105 35.4332 209.499 35.4058C209.892 35.3783 210.286 35.4204 210.682 35.5301C211.078 35.6417 211.437 35.82 211.755 36.065ZM232.632 44.8275L240.071 52.875L238.433 54.3891L235.928 51.6782L225.886 60.9591C224.737 62.0225 223.674 62.8033 222.702 63.3006C221.729 63.7989 220.77 64.0476 219.825 64.0476C218.881 64.0476 218.049 63.8748 217.328 63.5301C216.606 63.1845 215.949 62.6917 215.359 62.0526C213.81 60.3768 213.18 58.3927 213.471 56.1006L216.307 55.9397C216.303 56.0485 216.243 56.1637 216.131 56.2871C216.016 56.4097 215.949 56.534 215.925 56.6602L215.9 57.3111C215.875 57.4739 215.889 57.6878 215.943 57.9521C215.996 58.2172 216.08 58.497 216.196 58.7923C216.311 59.0867 216.44 59.3774 216.582 59.6645C216.725 59.9516 216.901 60.2076 217.111 60.4343C217.979 61.3751 218.945 61.7573 220.005 61.5799C221.065 61.4026 222.416 60.556 224.058 59.0392L234.129 49.7299L230.998 46.3415L232.632 44.8275ZM255.063 80.9207L252.22 80.6017C252.2 80.4654 252.26 80.3502 252.397 80.2561C252.535 80.161 252.625 80.0732 252.667 79.9909C253.046 79.2101 253.218 78.3516 253.181 77.4117C253.143 76.4718 252.819 75.4689 252.208 74.4019C251.62 73.3788 250.832 72.7004 249.842 72.3667C248.853 72.0339 247.946 72.1034 247.124 72.5751C246.634 72.8558 246.259 73.1822 246 73.5525C245.741 73.9237 245.543 74.3772 245.408 74.9139C245.273 75.4487 245.224 76.15 245.262 77.0149C245.3 77.8798 245.414 78.9669 245.605 80.2762C245.769 81.5415 245.838 82.6259 245.809 83.5292C245.781 84.4316 245.648 85.2179 245.411 85.8853C245.174 86.5527 244.842 87.1214 244.415 87.5877C243.989 88.0549 243.452 88.4727 242.808 88.843C242.096 89.2517 241.303 89.5297 240.427 89.6778C239.552 89.8259 238.667 89.7793 237.776 89.5379C236.883 89.2965 236.009 88.8439 235.157 88.182C234.303 87.5191 233.526 86.5765 232.824 85.3532C231.28 82.6643 230.924 79.9854 231.759 77.3203L234.943 77.3093C234.94 77.4583 234.862 77.5772 234.705 77.6677C234.55 77.7564 234.447 77.8606 234.396 77.9777C234.045 78.8599 233.902 79.8584 233.966 80.9738C234.03 82.0892 234.413 83.2586 235.116 84.481C235.472 85.1027 235.907 85.6156 236.418 86.017C236.929 86.4184 237.466 86.7091 238.027 86.8883C238.589 87.0684 239.173 87.1333 239.778 87.0803C240.383 87.0282 240.953 86.8499 241.487 86.5427C241.909 86.3004 242.251 86.0078 242.512 85.6659C242.773 85.323 242.959 84.8997 243.067 84.3932C243.176 83.8876 243.205 83.2421 243.155 82.4595C243.103 81.6759 242.991 80.6693 242.817 79.4387C242.613 78.1066 242.522 76.9546 242.54 75.9836C242.558 75.0126 242.662 74.177 242.853 73.4766C243.042 72.7772 243.337 72.1857 243.741 71.7038C244.144 71.2211 244.645 70.8078 245.245 70.4631C246.001 70.0298 246.806 69.782 247.658 69.7217C248.51 69.6604 249.349 69.771 250.174 70.0499C251 70.3297 251.774 70.7786 252.499 71.3966C253.224 72.0156 253.842 72.769 254.352 73.6586C255.003 74.7923 255.387 75.99 255.506 77.2526C255.625 78.5153 255.476 79.7367 255.063 80.9207Z" fill="black"/>
<path d="M57.8196 273.461H188.562H57.8196Z" fill="black"/>
<path d="M57.8196 273.461H188.562" stroke="#4C4C4C" stroke-width="2"/>
<path d="M199.562 272.535C200.468 272.97 200.475 273.694 199.575 274.144L187.423 280.24C186.524 280.69 185.82 280.235 185.82 279.23V267.739C185.82 266.734 186.529 266.267 187.436 266.702L199.562 272.535Z" fill="#4C4C4C"/>
<path d="M69.3186 264.773L78.0802 273.459L69.3186 264.773Z" fill="black"/>
<path d="M69.3186 264.773L78.0802 273.459" stroke="#4C4C4C" stroke-width="2"/>
<path d="M62.9185 264.773L71.6801 273.459L62.9185 264.773Z" fill="black"/>
<path d="M62.9185 264.773L71.6801 273.459" stroke="#4C4C4C" stroke-width="2"/>
<path d="M56.5186 264.773L65.2802 273.459L56.5186 264.773Z" fill="black"/>
<path d="M56.5186 264.773L65.2802 273.459" stroke="#4C4C4C" stroke-width="2"/>
<path d="M65.2801 273.461L56.5176 282.147L65.2801 273.461Z" fill="black"/>
<path d="M65.2801 273.461L56.5176 282.147" stroke="#4C4C4C" stroke-width="2"/>
<path d="M71.68 273.461L62.9175 282.147L71.68 273.461Z" fill="black"/>
<path d="M71.68 273.461L62.9175 282.147" stroke="#4C4C4C" stroke-width="2"/>
<path d="M78.0801 273.461L69.3176 282.147L78.0801 273.461Z" fill="black"/>
<path d="M78.0801 273.461L69.3176 282.147" stroke="#4C4C4C" stroke-width="2"/>
<path d="M75.7185 264.773L84.481 273.459L75.7185 264.773Z" fill="black"/>
<path d="M75.7185 264.773L84.481 273.459" stroke="#4C4C4C" stroke-width="2"/>
<path d="M84.48 273.461L75.7175 282.147L84.48 273.461Z" fill="black"/>
<path d="M84.48 273.461L75.7175 282.147" stroke="#4C4C4C" stroke-width="2"/>
</g>
<defs>
<clipPath id="clip0_1_9571">
<rect width="256" height="283" fill="white"/>
</clipPath>
</defs>
</svg>
