<svg width="512" height="121" viewBox="0 0 512 121" fill="none" xmlns="http://www.w3.org/2000/svg">
<g clip-path="url(#clip0_1_9592)">
<path d="M83.9623 0C84.1687 8.7665e-05 84.3737 0.000204552 84.5773 0.000360401L85.7826 0.00184096C99.4553 0.0260365 106.691 0.328481 111.881 4.10903C113.705 5.43253 115.312 7.03246 116.644 8.85116C120.641 14.3449 120.747 22.1278 120.754 37.4291L120.754 83.9623C120.748 98.8223 120.59 106.465 116.644 111.881C115.307 113.701 113.701 115.307 111.881 116.644C106.459 120.59 98.8209 120.748 83.9622 120.754H36.7694C21.9095 120.748 14.2677 120.59 8.85117 116.644C7.03247 115.312 5.43254 113.705 4.10904 111.881C0.328491 106.685 0.0260467 99.4535 0.00185121 85.7823L0.000370646 84.5771C0.000214797 84.3735 9.79104e-05 84.1685 1.02454e-05 83.9622L0 36.8129C8.42499e-05 36.6088 0.000196583 36.4061 0.00034636 36.2048L0.00176925 35.0129C0.0253592 21.2931 0.324165 14.0479 4.10904 8.85116C5.42781 7.02858 7.02859 5.4278 8.85117 4.10903C14.043 0.328481 21.2776 0.0260365 34.9494 0.00184096L36.1545 0.000360401C36.3581 0.000204552 36.5631 8.7665e-05 36.7695 0H83.9623ZM454.076 31.8819C458.675 31.7587 463.185 33.1663 466.897 35.8836C470.53 38.6554 473.218 42.4823 474.592 46.8404C475.934 51.1623 476.583 55.6694 476.515 60.1943C476.609 64.6083 475.995 69.0087 474.698 73.2288C473.366 77.5922 470.716 81.4364 467.112 84.2337C463.326 86.9626 458.74 88.3536 454.076 88.1873C449.44 88.3388 444.976 86.4197 441.896 82.9506C441.752 82.7345 441.589 82.6434 441.413 82.6843C441.237 82.7253 441.148 82.881 441.148 83.1626V103.298C441.148 104.438 440.511 104.688 439.437 105.006C439.437 105.006 431.45 107.272 430.462 107.523C429.474 107.775 428.752 106.953 428.752 105.816V34.4439C428.686 33.9734 428.845 33.4991 429.181 33.1635C429.517 32.8278 429.992 32.6698 430.462 32.7369H439.437C439.908 32.6707 440.382 32.829 440.718 33.1644C441.054 33.4999 441.213 33.9736 441.148 34.4439V37.223C441.148 37.5087 441.236 37.6889 441.413 37.7565C441.59 37.8241 441.751 37.7238 441.896 37.4391C444.86 33.7785 449.369 31.7209 454.076 31.8819ZM55.9232 29.2911L43.3307 29.2919C39.5822 29.2989 37.5564 29.3734 35.9881 30.1687C34.4589 30.9522 33.2148 32.1967 32.4318 33.7261C31.6355 35.2972 31.5609 37.319 31.5539 41.0835L31.5539 83.2848C31.5602 86.3144 31.619 87.9795 32.1676 89.3116C32.9918 91.2991 34.571 92.8783 36.5585 93.7025C37.8906 94.2511 39.5557 94.3099 42.5853 94.3162L44.8562 94.3163C47.9228 94.3104 49.5774 94.2534 50.9159 93.7025C52.9034 92.8783 54.4826 91.2991 55.3068 89.3116C55.9212 87.8197 55.9212 85.9099 55.9212 82.1334L55.9232 29.2911ZM233.103 31.886C246.425 31.886 254.226 39.187 256.505 53.7892C256.908 56.6937 257.158 59.6176 257.252 62.5485C257.318 63.0191 257.16 63.4935 256.824 63.8297C256.488 64.1658 256.014 64.3246 255.543 64.2586H222.417C222.24 64.2326 222.062 64.2918 221.936 64.4181C221.81 64.5445 221.751 64.7231 221.778 64.8996C221.73 66.4915 221.946 68.0804 222.417 69.6018C223.133 72.0766 224.73 74.204 226.906 75.5829C229.381 77.0823 232.24 77.8255 235.132 77.721C237.529 77.7094 239.89 77.1412 242.029 76.0611C243.942 75.0728 245.577 73.6231 246.788 71.8433C247.058 71.324 247.592 70.9949 248.177 70.9862C248.525 70.9842 248.864 71.0984 249.139 71.3108L254.267 75.371C254.688 75.7189 254.957 76.2175 255.016 76.7605C254.996 77.1044 254.884 77.4366 254.691 77.7221C252.623 81.0008 249.706 83.6588 246.249 85.4143C242.44 87.3246 238.222 88.2784 233.961 88.1934C228.939 88.3686 223.988 86.9667 219.804 84.1845C215.932 81.4336 213.033 77.5257 211.524 73.0229C210.043 68.7652 209.32 64.2808 209.387 59.7735C209.261 55.962 209.655 52.151 210.558 48.446C211.758 43.6185 214.589 39.3537 218.572 36.3731C222.785 33.3095 227.896 31.7313 233.103 31.886ZM335.926 31.886C341.08 31.7689 346.148 33.2225 350.457 36.0536C354.323 38.492 357.229 42.19 358.683 46.523C358.971 47.5029 359.186 48.5031 359.325 49.5151V49.9482C359.325 50.7316 358.862 51.2272 357.938 51.4422L349.069 52.8318H348.637C347.881 52.8574 347.232 52.3004 347.142 51.5497L346.818 50.1622C346.277 47.9639 344.945 46.042 343.076 44.7637C340.992 43.2756 338.48 42.507 335.92 42.5744C333.456 42.4988 331.035 43.2306 329.026 44.6583C327.132 46.0606 325.791 48.0842 325.237 50.3752C324.425 53.4766 324.066 56.6789 324.169 59.883C324.091 63.081 324.414 66.2762 325.131 69.3939C325.741 71.7329 327.091 73.8123 328.978 75.3228C330.972 76.8302 333.425 77.6041 335.924 77.5142C338.419 77.5771 340.869 76.8472 342.923 75.4293C344.821 74.125 346.17 72.1657 346.712 69.9274L346.82 69.3949C346.931 68.9734 347.173 68.5984 347.512 68.3249C347.866 67.9794 348.361 67.8195 348.85 67.8927L357.717 69.2823C358.644 69.498 359.107 69.9974 359.107 70.7804C359.036 71.6445 358.892 72.5009 358.675 73.3404C357.363 77.8453 354.434 81.707 350.449 84.1845C346.103 86.9173 341.05 88.3115 335.918 88.1934C330.856 88.3184 325.884 86.8392 321.714 83.9674C317.757 81.1979 314.827 77.1972 313.38 72.5888C311.1 64.2652 311.1 55.4814 313.38 47.1578C314.774 42.5956 317.699 38.6536 321.66 35.9963C325.882 33.1958 330.862 31.7609 335.926 31.886ZM295.218 34.1766C298.241 35.3727 300.882 37.3679 302.859 39.9489C304.664 42.3691 305.621 45.3165 305.583 48.3354C305.58 48.6979 305.4 49.0362 305.101 49.2417C304.791 49.471 304.42 49.6013 304.037 49.6175L295.655 49.6175C294.513 49.6175 293.945 49.4004 293.945 48.9734V48.3324C293.91 46.4134 292.878 44.6512 291.221 43.6824C288.99 42.3256 286.402 41.6742 283.794 41.8136C281.435 41.7144 279.092 42.2494 277.01 43.3629C275.387 44.1908 274.373 45.8672 274.394 47.6893C274.369 49.3613 275.332 50.8906 276.851 51.5897C279.487 52.8461 282.245 53.8305 285.08 54.5275L287.538 55.1716C290.813 56.1063 294.025 57.2479 297.155 58.5897C299.68 59.6998 301.911 61.3827 303.672 63.5049C305.519 65.8382 306.467 68.7572 306.344 71.7307C306.508 76.4621 304.253 80.9518 300.359 83.6449C296.37 86.5284 291.064 87.9706 284.441 87.9712C280.414 88.0528 276.408 87.384 272.625 85.999C269.571 84.9108 266.861 83.0292 264.773 80.5473C262.969 78.3694 261.986 75.6278 261.995 72.7997V72.2672C261.929 71.7969 262.087 71.3226 262.423 70.9865C262.759 70.6504 263.233 70.4914 263.703 70.5572H272.247C273.387 70.5572 273.957 70.8067 273.957 71.3057V72.0542C273.957 73.8367 274.936 75.3867 276.893 76.7042C279.114 78.0954 281.703 78.7842 284.321 78.6805C286.759 78.788 289.174 78.1746 291.265 76.9172C292.882 76.0203 293.899 74.3315 293.937 72.4833C293.989 70.9319 293.133 69.4919 291.745 68.7969C289.478 67.6706 287.096 66.7917 284.641 66.1755L280.581 64.8945C277.428 64.0082 274.354 62.8643 271.388 61.4743C268.945 60.3054 266.792 58.6092 265.084 56.5079C263.309 54.2022 262.402 51.3451 262.524 48.4378C262.377 43.7486 264.558 39.29 268.348 36.5257C272.229 33.5704 277.375 32.0925 283.786 32.0918C287.698 32.0112 291.586 32.7203 295.218 34.1766ZM418.188 33.0253C418.509 33.2676 418.719 33.6273 418.774 34.0251C418.794 34.163 418.794 34.3029 418.774 34.4408V85.6222C418.841 86.0923 418.682 86.5663 418.347 86.9022C418.011 87.2381 417.537 87.397 417.067 87.3312H408.091C407.621 87.3964 407.147 87.2374 406.812 86.9017C406.476 86.5659 406.317 86.0923 406.383 85.6222V34.4408C406.269 33.6125 406.847 32.8481 407.675 32.7328C407.813 32.7144 407.953 32.7144 408.091 32.7328H417.067C417.465 32.6777 417.868 32.7829 418.188 33.0253ZM185.346 32.7347C185.431 32.7338 185.516 32.7379 185.6 32.7471H204.22C204.644 32.7452 205.052 32.9122 205.352 33.2111C205.653 33.5101 205.822 33.9165 205.823 34.3405V43.5575C205.823 44.4349 205.112 45.1466 204.235 45.1477H188.363C187.691 45.1477 187.139 45.6583 187.072 46.3125L187.065 46.4451V85.6222C187.065 86.0777 186.883 86.5143 186.56 86.8351C186.236 87.1559 185.799 87.3345 185.343 87.3313H176.367C175.425 87.3307 174.662 86.5677 174.662 85.6263V35.2569C174.662 33.864 175.791 32.7347 177.184 32.7347H185.346ZM377.412 32.7347C377.498 32.7338 377.584 32.7379 377.67 32.7471H396.292C396.714 32.7469 397.118 32.9141 397.416 33.2119C397.714 33.5098 397.882 33.914 397.882 34.3354L397.881 34.3374V43.5616C397.881 43.983 397.714 44.3873 397.417 44.6856C397.119 44.9838 396.715 45.1516 396.293 45.1518H380.414C379.743 45.1518 379.19 45.6623 379.124 46.3166L379.117 46.4492V85.6222C379.116 86.5662 378.351 87.3312 377.407 87.3312H368.434C367.981 87.3312 367.547 87.1524 367.227 86.8326C366.947 86.5528 366.774 86.1855 366.735 85.7949L366.727 85.6263V35.2569C366.728 33.8633 367.858 32.7347 369.252 32.7347H377.412ZM499.273 20.0051L499.274 32.0918C499.252 32.2402 499.29 32.3912 499.38 32.5114C499.47 32.6316 499.603 32.7113 499.752 32.7328C499.806 32.741 499.861 32.741 499.915 32.7328H510.279C511.107 32.6186 511.871 33.1969 511.987 34.0251C512.005 34.163 512.005 34.3029 511.987 34.4408V41.062C512.042 41.4597 511.937 41.8632 511.695 42.1836C511.453 42.5039 511.093 42.7149 510.695 42.77C510.556 42.7913 510.415 42.7933 510.275 42.7761H499.915C499.766 42.7545 499.615 42.793 499.494 42.8831C499.374 42.9733 499.295 43.1076 499.274 43.2564C499.266 43.3098 499.266 43.3638 499.274 43.4172V68.6331C499.274 71.4122 499.861 73.4073 501.037 74.6183C502.212 75.8294 504.082 76.4346 506.646 76.4339H509.423C509.821 76.3781 510.225 76.4826 510.545 76.7244C510.866 76.9662 511.077 77.3255 511.133 77.7231C511.153 77.8626 511.153 78.0044 511.133 78.1439V85.2986C511.185 85.7257 511.065 86.1561 510.8 86.495C510.535 86.834 510.147 87.0537 509.719 87.106C509.621 87.1174 509.522 87.1201 509.423 87.1142L504.295 87.2227C498.667 87.2227 494.464 86.2427 491.687 84.2828C488.91 82.3229 487.485 78.6706 487.414 73.326V43.4172C487.435 43.2683 487.396 43.1171 487.306 42.9969C487.216 42.8766 487.081 42.7972 486.932 42.7761C486.879 42.768 486.825 42.768 486.772 42.7761H481.215C480.745 42.841 480.272 42.6817 479.936 42.3458C479.601 42.0099 479.442 41.5363 479.507 41.0661V34.4398C479.393 33.6114 479.971 32.8471 480.8 32.7318C480.938 32.7133 481.077 32.7133 481.215 32.7318H486.772C487.081 32.7769 487.368 32.5635 487.414 32.2546C487.421 32.2002 487.421 32.1451 487.414 32.0908V22.6403C487.414 21.5006 487.899 21.3142 489.123 20.9323L497.564 18.4143C499.145 17.9743 499.267 18.9166 499.273 20.0051ZM452.159 42.6645C448.654 42.6286 445.43 44.5726 443.825 47.6883C442.187 50.4653 441.369 54.5955 441.373 60.0786C441.373 65.6348 442.263 69.8735 444.044 72.7946C445.63 75.7331 448.719 77.5455 452.058 77.4968C455.502 77.629 458.756 75.9199 460.601 73.0096C462.668 69.8742 463.701 65.5283 463.702 59.9721L463.695 59.9783C463.695 54.8501 462.842 50.7882 461.135 47.7927C459.424 44.4551 455.903 42.4435 452.159 42.6645ZM81.8283 29.7694C73.9108 29.7694 67.4924 36.1878 67.4924 44.1053C67.4924 52.0228 73.9108 58.4412 81.8283 58.4412H81.8478C85.6473 58.4388 89.2903 56.927 91.9752 54.2385C94.6601 51.5499 96.167 47.9049 96.1642 44.1053L96.1608 43.7894C95.9928 36.0178 89.6403 29.7694 81.8283 29.7694ZM226.319 44.5436C224.535 45.9174 223.271 47.8573 222.735 50.0445C222.234 51.4906 221.946 53.0023 221.881 54.5316C221.809 54.9648 221.99 55.1757 222.415 55.1757H243.895C244.206 55.2189 244.493 55.0028 244.537 54.6924C244.544 54.639 244.544 54.585 244.537 54.5316C244.401 53.2388 244.187 51.9554 243.895 50.6886C243.346 48.3371 242.009 46.244 240.106 44.7566C238.053 43.2449 235.548 42.4735 233 42.5683C230.616 42.4682 228.266 43.163 226.319 44.5436ZM418.298 12.5365C419.772 14.0015 420.566 16.0168 420.486 18.0937C420.561 20.1851 419.769 22.2145 418.298 23.7032C416.773 25.1879 414.705 25.9803 412.579 25.8946C410.438 25.9743 408.357 25.1838 406.809 23.7032C405.308 22.2305 404.494 20.1954 404.565 18.0937C404.488 16.0065 405.304 13.9852 406.809 12.5365C408.373 11.0876 410.449 10.3196 412.579 10.4015C414.695 10.3129 416.758 11.0828 418.298 12.5365Z" fill="#D44140"/>
</g>
<defs>
<clipPath id="clip0_1_9592">
<rect width="512" height="121" fill="white"/>
</clipPath>
</defs>
</svg>
