<svg width="512" height="110" viewBox="0 0 512 110" fill="none" xmlns="http://www.w3.org/2000/svg">
<g clip-path="url(#clip0_1_9604)">
<path d="M104.688 91.4286C107.464 91.4286 109.714 93.6791 109.714 96.4549V99.6613C109.714 105.213 105.213 109.714 99.6613 109.714H60.3387C54.7867 109.714 50.2857 105.213 50.2857 99.6613V96.4549C50.2857 93.6791 52.5362 91.4286 55.312 91.4286H104.688ZM99.6613 36.5714C105.213 36.5714 109.714 41.0723 109.714 46.6245V72.688C109.714 75.4638 107.464 77.7143 104.688 77.7143H10.0529C4.50083 77.7143 0 73.2133 0 67.6613V41.5979C0 38.8218 2.25041 36.5714 5.02642 36.5714H99.6613ZM49.3755 0C54.9275 0 59.4286 4.50082 59.4286 10.0529V17.8307C59.4286 20.6067 57.1781 22.8571 54.4023 22.8571H5.02642C2.25041 22.8571 0 20.6067 0 17.8307V10.0528C0 4.50082 4.50082 0 10.0529 0H49.3755Z" fill="#262626"/>
<path d="M261.854 31.7881C281.982 31.7881 292.926 46.6321 292.926 65.3763V70.6595H248.016C249.4 79.7173 254.809 84.8748 262.483 84.8748C268.773 84.8748 273.679 81.8558 275.566 76.0689L292.423 81.4782C287.517 94.1841 275.44 100.851 262.231 100.851C242.23 100.851 228.643 86.8876 228.643 66.2568C228.643 46.6321 242.733 31.7881 261.854 31.7881ZM376.718 31.7881C396.217 31.7881 409.929 45.7516 409.929 66.3825C409.929 87.0133 396.217 100.851 376.718 100.851C357.094 100.851 343.508 87.0133 343.508 66.3825C343.508 45.7516 357.094 31.7881 376.718 31.7881ZM449.2 31.7881C468.699 31.7881 482.409 45.7516 482.409 66.3825C482.409 87.0133 468.699 100.851 449.2 100.851C429.575 100.851 415.989 87.0133 415.989 66.3825C415.989 45.7516 429.575 31.7881 449.2 31.7881ZM324.21 14.8054V33.1719H337.168V49.7772H324.21V76.5722C324.21 82.1073 327.104 83.1134 332.136 83.1134C334.526 83.1134 335.658 82.9877 337.922 82.7363V99.2158C334.4 99.7192 330.626 100.096 325.846 100.096C311.505 100.096 304.335 95.316 304.335 81.7297V49.7772H295.906V33.1719H304.335V14.8054H324.21ZM188.974 9.14453C210.234 9.14453 223.442 19.3342 223.442 38.2038C223.442 51.6643 216.398 60.9731 204.321 65.1244L226.084 99.4673H202.057L182.432 67.3891H171.866V99.4673H150.857V9.14453H188.974ZM512 9.14453V99.4673H491.872V9.14453H512ZM376.718 48.2677C368.667 48.2677 363.51 54.809 363.51 66.3825C363.51 77.956 368.667 84.4972 376.718 84.4972C384.769 84.4972 389.927 77.956 389.927 66.3825C389.927 54.809 384.769 48.2677 376.718 48.2677ZM449.2 48.2677C441.148 48.2677 435.991 54.809 435.991 66.3825C435.991 77.956 441.148 84.4972 449.2 84.4972C457.253 84.4972 462.409 77.956 462.409 66.3825C462.409 54.809 457.253 48.2677 449.2 48.2677ZM261.602 47.3873C255.438 47.3873 250.658 51.0353 248.646 58.3313H273.05C272.924 52.419 269.024 47.3873 261.602 47.3873ZM187.842 26.882H171.866V50.2805H187.842C197.78 50.2805 202.811 45.8773 202.811 38.5812C202.811 31.1592 197.78 26.882 187.842 26.882Z" fill="#262626"/>
</g>
<defs>
<clipPath id="clip0_1_9604">
<rect width="512" height="110" fill="white"/>
</clipPath>
</defs>
</svg>
