<svg width="256" height="254" viewBox="0 0 256 254" fill="none" xmlns="http://www.w3.org/2000/svg">
<g clip-path="url(#clip0_1_9608)">
<path d="M137.452 220.045C137.432 216.917 136.927 176.745 124.181 142.177C110.908 106.184 88.4112 76.0376 88.4112 76.0376C88.4112 76.0376 134.979 104.383 156.35 128.005C174.765 148.358 190.844 180.404 194.939 188.88C190.5 192.158 187.621 197.427 187.621 203.367C187.621 213.307 195.679 221.365 205.618 221.365C215.557 221.365 223.616 213.307 223.616 203.367C223.616 193.732 216.041 185.863 206.52 185.393C203.675 178.125 191.638 149.75 167.374 122.38C139.254 90.6599 100.108 69.5127 100.108 69.5127C100.108 69.5127 142.403 83.0106 163.774 92.4592C182.745 100.846 214.126 118.274 220.936 122.083C220.339 123.874 220.016 125.789 220.016 127.779C220.016 137.719 228.074 145.777 238.012 145.777C247.952 145.777 256.011 137.719 256.011 127.779C256.011 117.841 247.952 109.782 238.012 109.782C234.226 109.782 230.713 110.952 227.814 112.949C220.894 108.394 192.578 90.5603 149.827 74.237C100.334 55.3399 63.8896 48.8164 63.8896 48.8164L57.5901 62.9892C57.5901 62.9892 81.5219 78.8492 105.143 130.141C126.813 177.196 125.408 212.607 125.028 218.136C116.84 219.824 110.683 227.075 110.683 235.762C110.683 245.702 118.741 253.76 128.679 253.76C138.619 253.76 146.678 245.702 146.678 235.762C146.678 229.009 142.956 223.123 137.452 220.045Z" fill="#3D4C67"/>
<path d="M63.8903 51.2928C63.8903 60.736 56.2356 68.3906 46.7925 68.3906C37.3507 68.3906 29.696 60.736 29.696 51.2928C29.696 41.8511 37.3507 34.195 46.7925 34.195C56.2356 34.195 63.8903 41.8511 63.8903 51.2928Z" fill="#F6861A"/>
<path d="M146.678 18.4447C146.678 28.3845 138.619 36.4414 128.68 36.4414C118.74 36.4414 110.683 28.3845 110.683 18.4447C110.683 8.50615 118.74 0.44791 128.68 0.44791C138.619 0.44791 146.678 8.50615 146.678 18.4447Z" fill="#3D4C67"/>
<path d="M223.616 52.1908C223.616 62.1306 215.557 70.1875 205.618 70.1875C195.679 70.1875 187.621 62.1306 187.621 52.1908C187.621 42.2523 195.679 34.194 205.618 34.194C215.557 34.194 223.616 42.2523 223.616 52.1908Z" fill="#3D4C67"/>
<path d="M68.3899 204.717C68.3899 214.657 60.3316 222.715 50.3918 222.715C40.4533 222.715 32.395 214.657 32.395 204.717C32.395 194.778 40.4533 186.72 50.3918 186.72C60.3316 186.72 68.3899 194.778 68.3899 204.717Z" fill="#3D4C67"/>
<path d="M35.9948 127.779C35.9948 137.719 27.9366 145.777 17.9967 145.777C8.05825 145.777 0 137.719 0 127.779C0 117.841 8.05825 109.782 17.9967 109.782C27.9366 109.782 35.9948 117.841 35.9948 127.779Z" fill="#3D4C67"/>
</g>
<defs>
<clipPath id="clip0_1_9608">
<rect width="256" height="254" fill="white"/>
</clipPath>
</defs>
</svg>
