<svg width="512" height="106" viewBox="0 0 512 106" fill="none" xmlns="http://www.w3.org/2000/svg">
<g clip-path="url(#clip0_1_9632)">
<path d="M147.256 48.1059H149.586C152.021 48.1059 153.89 47.6015 155.192 46.5939C156.494 45.5862 157.144 44.1375 157.144 42.2478C157.144 40.3592 156.494 38.9105 155.192 37.9017C153.89 36.894 152.021 36.3908 149.586 36.3908H147.256V48.1059ZM174.402 74.3714H159.034L147.256 56.1048V66.2311C147.256 70.7259 143.611 74.3714 139.115 74.3714H134.911V26.8799H154.121C156.767 26.8799 159.076 27.2685 161.049 28.0447C163.023 28.822 164.65 29.882 165.932 31.226C167.211 32.5699 168.177 34.1234 168.829 35.8864C169.478 37.6507 169.805 39.5404 169.805 41.5557C169.805 45.1671 168.933 48.0962 167.19 50.3417C165.448 52.5885 162.876 54.1115 159.475 54.9084L174.402 74.3714ZM188.637 46.2705V67.577C188.637 71.3285 185.595 74.3709 181.843 74.3709H177.238V42.0596H184.426C186.752 42.0596 188.637 43.9445 188.637 46.2705ZM176.481 29.6513C176.481 28.7691 176.649 27.9406 176.986 27.1633C177.321 26.3871 177.782 25.7048 178.371 25.1163C178.958 24.5291 179.64 24.0673 180.418 23.7298C181.195 23.3947 182.024 23.2266 182.906 23.2266C183.788 23.2266 184.616 23.3947 185.394 23.7298C186.17 24.0673 186.852 24.5291 187.441 25.1163C188.028 25.7048 188.49 26.3871 188.826 27.1633C189.162 27.9406 189.331 28.7691 189.331 29.6513C189.331 30.5322 189.162 31.3632 188.826 32.1393C188.49 32.9166 188.028 33.599 187.441 34.1862C186.852 34.7747 186.17 35.2365 185.394 35.5716C184.616 35.9091 183.788 36.076 182.906 36.076C182.024 36.076 181.195 35.9091 180.418 35.5716C179.64 35.2365 178.958 34.7747 178.371 34.1862C177.782 33.599 177.321 32.9166 176.986 32.1393C176.649 31.3632 176.481 30.5322 176.481 29.6513ZM216.603 50.3732C214.502 49.2815 212.445 48.7356 210.43 48.7356C209.38 48.7356 208.529 48.9464 207.879 49.3655C207.228 49.7859 206.903 50.3524 206.903 51.0664C206.903 51.4441 206.955 51.7487 207.06 51.979C207.165 52.2105 207.396 52.4311 207.753 52.6406C208.109 52.8514 208.634 53.0403 209.327 53.2084L211.259 53.6565C211.515 53.7141 211.784 53.7744 212.068 53.8371C215.217 54.467 217.568 55.5916 219.122 57.2073C220.675 58.8241 221.452 60.8918 221.452 63.4114C221.452 65.3012 221.074 67.0009 220.319 68.513C219.563 70.025 218.513 71.2958 217.169 72.3242C215.825 73.3537 214.21 74.1506 212.32 74.7171C210.43 75.2837 208.352 75.5676 206.084 75.5676C201.716 75.5676 197.413 74.3297 193.172 71.8514L197.33 63.7892C200.52 65.9738 203.542 67.0643 206.398 67.0643C207.447 67.0643 208.309 66.834 208.981 66.371C209.653 65.9104 209.989 65.3231 209.989 64.6079C209.989 64.1888 209.935 63.8428 209.832 63.5686C209.726 63.2957 209.505 63.0447 209.17 62.8132C208.834 62.5829 208.341 62.3721 207.69 62.1833C207.224 62.0484 206.658 61.9085 205.99 61.7628L205.139 61.585C201.612 60.871 199.145 59.811 197.739 58.4037C196.331 56.9977 195.629 55.0555 195.629 52.5785C195.629 50.7728 195.964 49.145 196.636 47.6963C197.308 46.2476 198.274 45.0194 199.534 44.0118C200.792 43.0042 202.314 42.2268 204.1 41.681C205.884 41.1363 207.869 40.8622 210.052 40.8622C213.621 40.8622 217.085 41.5555 220.444 42.9408L216.603 50.3732ZM237.387 46.2705V67.577C237.387 71.3285 234.344 74.3709 230.593 74.3709H225.987V42.0596H233.176C235.502 42.0596 237.387 43.9445 237.387 46.2705ZM225.23 29.6513C225.23 28.7691 225.399 27.9406 225.735 27.1633C226.07 26.3871 226.532 25.7048 227.12 25.1163C227.707 24.5291 228.39 24.0673 229.167 23.7298C229.944 23.3947 230.773 23.2266 231.655 23.2266C232.537 23.2266 233.366 23.3947 234.143 23.7298C234.919 24.0673 235.602 24.5291 236.19 25.1163C236.777 25.7048 237.239 26.3871 237.575 27.1633C237.912 27.9406 238.08 28.7691 238.08 29.6513C238.08 30.5322 237.912 31.3632 237.575 32.1393C237.239 32.9166 236.777 33.599 236.19 34.1862C235.602 34.7747 234.919 35.2365 234.143 35.5716C233.366 35.9091 232.537 36.076 231.655 36.076C230.773 36.076 229.944 35.9091 229.167 35.5716C228.39 35.2365 227.707 34.7747 227.12 34.1862C226.532 33.599 226.07 32.9166 225.735 32.1393C225.399 31.3632 225.23 30.5322 225.23 29.6513ZM243.937 42.0596H255.336V46.1535C256.89 44.2638 258.465 42.9942 260.061 42.3423C261.656 41.6917 263.525 41.3664 265.666 41.3664C267.935 41.3664 269.876 41.7343 271.492 42.469C273.108 43.2037 274.485 44.2431 275.618 45.587C276.542 46.6787 277.172 47.8971 277.508 49.2398C277.844 50.5837 278.012 52.1165 278.012 53.8381V67.577C278.012 71.3285 274.97 74.3709 271.218 74.3709H266.612V58.0575C266.612 56.4626 266.496 55.171 266.265 54.1841C266.034 53.1984 265.625 52.4113 265.037 51.8216C264.533 51.3184 263.966 50.9626 263.336 50.7518C262.706 50.5411 262.034 50.4363 261.321 50.4363C259.389 50.4363 257.908 51.0138 256.88 52.1689C255.85 53.3239 255.336 54.9712 255.336 57.1132V67.577C255.336 71.3285 252.295 74.3709 248.544 74.3709H243.937V42.0596ZM295.08 58.058C295.08 59.1082 295.269 60.0842 295.647 60.987C296.024 61.8899 296.538 62.6782 297.19 63.3483C297.841 64.0209 298.617 64.5448 299.521 64.9225C300.423 65.3015 301.4 65.4903 302.449 65.4903C303.457 65.4903 304.412 65.3015 305.315 64.9225C306.218 64.5448 306.994 64.0209 307.646 63.3483C308.296 62.6782 308.82 61.8899 309.22 60.987C309.619 60.0842 309.819 59.1277 309.819 58.1201C309.819 57.071 309.619 56.1048 309.22 55.2227C308.82 54.3418 308.285 53.5644 307.614 52.8931C306.942 52.2217 306.154 51.6966 305.253 51.3177C304.348 50.94 303.415 50.7511 302.449 50.7511C301.441 50.7511 300.497 50.9509 299.615 51.3493C298.734 51.749 297.955 52.2741 297.285 52.9248C296.613 53.5754 296.077 54.3418 295.678 55.2227C295.279 56.1048 295.08 57.0503 295.08 58.058ZM315.703 42.0601C318.436 42.0601 320.652 44.2752 320.652 47.0093V72.1672C320.652 73.9729 320.547 75.5886 320.337 77.0165C320.127 78.4433 319.833 79.7032 319.456 80.7961C318.951 82.1814 318.164 83.4717 317.093 84.6694C316.022 85.8659 314.732 86.9052 313.22 87.7861C311.708 88.6695 309.997 89.3615 308.087 89.8648C306.175 90.3692 304.107 90.6214 301.882 90.6214C299.363 90.6214 297.054 90.3058 294.953 89.6759C292.854 89.0472 291.018 88.1748 289.444 87.0624C287.868 85.95 286.577 84.6475 285.569 83.1574C284.561 81.666 283.889 80.0394 283.554 78.2764H296.402C297.2 80.4184 299.006 81.4881 301.819 81.4881C304.213 81.4881 306.049 80.8168 307.331 79.4729C308.61 78.129 309.251 76.2599 309.251 73.8669V70.7807C308.411 71.5787 307.603 72.2403 306.827 72.7643C306.049 73.2906 305.262 73.7207 304.465 74.0558C303.666 74.3921 302.827 74.6333 301.946 74.7807C301.064 74.927 300.097 75.0013 299.048 75.0013C296.738 75.0013 294.618 74.6016 292.687 73.8036C290.755 73.0067 289.085 71.8931 287.679 70.4663C286.272 69.0383 285.18 67.3277 284.404 65.3331C283.627 63.3386 283.239 61.1235 283.239 58.6879C283.239 56.2108 283.657 53.9117 284.498 51.7904C285.337 49.6704 286.483 47.8233 287.931 46.2478C289.38 44.6736 291.101 43.4357 293.096 42.5317C295.09 41.63 297.263 41.178 299.615 41.178C303.436 41.178 306.648 42.606 309.251 45.4607V42.0601H315.703ZM410.847 41.0515C414.877 41.0515 418.216 42.4588 420.862 45.2721V42.0592H428.688C430.696 42.0592 432.325 43.687 432.325 45.6949V74.3704H420.862V70.7809C418.426 73.8465 415.13 75.3792 410.972 75.3792C408.621 75.3792 406.458 74.9479 404.486 74.0877C402.512 73.2275 400.79 72.0201 399.321 70.4654C397.85 68.9131 396.706 67.0855 395.888 64.9861C395.07 62.8868 394.66 60.5986 394.66 58.1203C394.66 55.8114 395.059 53.6171 395.857 51.5384C396.654 49.4598 397.767 47.6444 399.194 46.0897C400.622 44.5374 402.322 43.3093 404.297 42.4064C406.269 41.5036 408.454 41.0515 410.847 41.0515ZM331.807 26.8799C334.366 26.8799 336.604 28.5991 337.265 31.0712L344.335 57.5535L354.413 26.8799H364.238L374.315 57.5535L381.385 31.0712C382.044 28.5991 384.283 26.8799 386.842 26.8799H395.416L381.245 74.3714H368.647L359.325 46.8461L350.003 74.3714H337.406L323.235 26.8799H331.807ZM413.87 50.8769C412.821 50.8769 411.844 51.0657 410.942 51.4446C410.038 51.8223 409.262 52.3475 408.611 53.0188C407.959 53.6914 407.445 54.4578 407.067 55.318C406.69 56.1794 406.501 57.1127 406.501 58.1203C406.501 59.1706 406.69 60.1478 407.067 61.0494C407.445 61.9535 407.959 62.7406 408.611 63.4119C409.262 64.0833 410.038 64.6084 410.942 64.9861C411.844 65.3638 412.821 65.5527 413.87 65.5527C414.877 65.5527 415.833 65.3638 416.736 64.9861C417.638 64.6084 418.415 64.0833 419.066 63.4119C419.717 62.7406 420.241 61.9632 420.641 61.0811C421.04 60.199 421.24 59.2547 421.24 58.2471C421.24 57.2382 421.04 56.2842 420.641 55.3801C420.241 54.4785 419.717 53.6914 419.066 53.0188C418.415 52.3475 417.638 51.8223 416.736 51.4446C415.833 51.0657 414.877 50.8769 413.87 50.8769ZM494.428 40.8622C497.157 40.8622 499.614 41.2716 501.797 42.0904C503.979 42.9103 505.828 44.0971 507.34 45.6493C508.852 47.2028 510.006 49.1036 510.804 51.3491C511.602 53.5971 512 56.1265 512 58.9398V60.1363H488.003C488.003 65.049 490.312 67.5053 494.933 67.5053C497.408 67.5053 499.277 66.4977 500.537 64.4824H511.56C509.333 71.8734 503.77 75.5676 494.869 75.5676C492.139 75.5676 489.641 75.1582 487.373 74.3394C485.106 73.5207 483.163 72.3559 481.547 70.8438C479.93 69.3317 478.681 67.5273 477.8 65.4267C476.918 63.3274 476.477 60.977 476.477 58.3721C476.477 55.6855 476.896 53.2608 477.737 51.0981C478.576 48.9354 479.773 47.098 481.328 45.586C482.88 44.0752 484.76 42.9103 486.964 42.0904C489.168 41.2716 491.656 40.8622 494.428 40.8622ZM444.186 42.0595C446.747 42.0595 449.076 43.546 450.153 45.8695L456.069 58.6239L462.101 45.833C463.187 43.5289 465.505 42.0595 468.051 42.0595H476.602L459.786 74.3708H452.164L435.537 42.0595H444.186ZM494.742 48.2324C492.979 48.2324 491.54 48.6942 490.428 49.6177C489.316 50.5413 488.611 51.8438 488.318 53.5228H501.356C500.978 51.9266 500.201 50.6473 499.025 49.6811C497.849 48.7149 496.421 48.2324 494.742 48.2324Z" fill="#3A7CEB"/>
<path d="M39.6229 57.1475C41.3574 56.3598 43.0616 55.4873 44.7297 54.5261C49.1027 52.0098 53.2279 48.8964 56.9859 45.1837C65.3862 36.8839 70.8195 26.7151 73.274 15.9969C73.4054 15.4234 73.4684 14.9996 73.5847 14.4142C74.2575 11.0485 75.9775 7.89886 78.6041 5.30375C85.6037 -1.61238 96.6424 -1.97373 103.803 5.45683C105.599 7.32071 108.468 9.54791 108.75 15.357C108.755 17.8128 108.606 20.2706 108.307 22.714C106.729 35.6534 100.936 48.1717 90.9431 58.0443C77.9038 70.9279 60.4462 76.6049 43.5136 75.1076C38.033 74.6221 32.6083 73.385 27.4056 71.3989C21.8133 69.2644 16.4792 66.2606 11.6089 62.3936C21.1366 62.91 30.7661 61.161 39.6229 57.1475Z" fill="#4ACFD2"/>
<path d="M51.4434 3.92973C56.516 -1.08179 64.6896 -1.03252 69.7018 4.0401C72.9118 7.29023 74.3375 11.267 73.4052 15.4159L73.2745 15.998C70.8193 26.7161 65.3867 36.885 56.9857 45.1848C53.2284 48.8974 49.1025 52.0109 44.7296 54.5272C43.0615 55.4883 41.3573 56.3608 39.6228 57.1485C41.2495 54.5042 42.6502 51.7619 43.8289 48.9473C48.2964 38.2752 49.5434 26.5676 47.5592 15.3134C47.5448 15.1459 47.4049 14.4705 47.4049 14.4705C46.9003 10.6067 48.4573 6.88027 51.4434 3.92973Z" fill="#F0B400"/>
<path d="M44.8109 9.36264C45.9436 10.5091 46.7287 11.8664 47.1708 13.3072C47.3121 13.9727 47.4408 14.6422 47.5598 15.311C49.5439 26.5653 48.2969 38.2728 43.8287 48.9456C41.907 39.7938 37.8284 31.0026 31.5837 23.3848C31.0141 22.6864 30.4222 21.9985 29.8158 21.3212C26.6511 17.891 27.8783 12.5333 31.1718 9.27921C34.9607 5.53568 41.0674 5.57378 44.8109 9.36264Z" fill="#E23E2B"/>
<path d="M6.19279 57.5341C7.92133 59.2837 9.73068 60.9031 11.6097 62.3945C16.4793 66.2622 21.8134 69.2647 27.405 71.3999C32.6084 73.3873 38.0332 74.6237 43.5131 75.1086C60.4464 76.6065 77.9026 70.9295 90.9425 58.0466C103.122 46.0131 108.989 30.0837 108.666 14.2187C107.949 10.2788 106.361 10.7879 106.415 8.75391C106.792 9.06006 108.483 10.6927 109.723 12.4652C125.254 35.8593 122.596 67.7148 101.87 88.1932C82.8707 106.963 54.4973 110.437 32.027 98.709C26.6501 95.9023 21.611 92.2271 17.1198 87.6807C15.0707 85.6066 13.2042 83.4202 11.5197 81.1424C6.96738 74.9877 3.7455 68.1629 1.8514 61.0589C0.898105 57.4861 0.280535 53.8431 0 50.1791C1.83629 52.7525 3.89989 55.2136 6.19279 57.5341Z" fill="#3A7CEB"/>
</g>
<defs>
<clipPath id="clip0_1_9632">
<rect width="512" height="106" fill="white"/>
</clipPath>
</defs>
</svg>
