<svg width="256" height="226" viewBox="0 0 256 226" fill="none" xmlns="http://www.w3.org/2000/svg">
<g clip-path="url(#clip0_1_9626)">
<path d="M84.7559 122.242C88.466 120.557 92.1114 118.691 95.6796 116.635C105.034 111.252 113.858 104.592 121.896 96.6508C139.865 78.8971 151.487 57.1452 156.738 34.2184C157.019 32.9916 157.154 32.0851 157.402 30.833C158.841 23.6334 162.521 16.8962 168.139 11.3451C183.112 -3.44899 206.724 -4.22192 222.041 11.6725C225.882 15.6595 232.02 20.4236 232.624 32.8496C232.633 38.1028 232.316 43.3602 231.676 48.5867C228.3 76.2649 215.908 103.042 194.533 124.16C166.641 151.719 129.298 163.863 93.0783 160.66C81.3549 159.621 69.751 156.975 58.6221 152.727C46.6598 148.161 35.2498 141.736 24.832 133.464C45.2123 134.568 65.8104 130.827 84.7559 122.242Z" fill="#4ACFD2"/>
<path d="M110.041 8.40503C120.891 -2.31493 138.375 -2.20953 149.096 8.64113C155.963 15.5934 159.013 24.0999 157.018 32.9747L156.739 34.2198C151.487 57.1466 139.866 78.8985 121.896 96.6522C113.859 104.594 105.033 111.254 95.6794 116.636C92.1112 118.692 88.4657 120.558 84.7556 122.243C88.2352 116.587 91.2314 110.721 93.7526 104.701C103.309 81.8722 105.976 56.8289 101.732 32.7554C101.701 32.3971 101.402 30.9524 101.402 30.9524C100.323 22.6875 103.653 14.7164 110.041 8.40503Z" fill="#F0B400"/>
<path d="M95.8532 20.0302C98.276 22.4825 99.9554 25.3859 100.901 28.4679C101.203 29.8915 101.479 31.3235 101.733 32.7541C105.977 56.8277 103.31 81.8709 93.7522 104.701C89.6415 85.1243 80.9172 66.3194 67.5594 50.0244C66.3409 48.5305 65.0747 47.0591 63.7776 45.6102C57.0081 38.2729 59.6332 26.8124 66.6782 19.8517C74.7828 11.844 87.8455 11.9256 95.8532 20.0302Z" fill="#E23E2B"/>
<path d="M13.2468 123.067C16.9442 126.809 20.8145 130.273 24.8338 133.463C35.2502 141.737 46.6602 148.159 58.6211 152.726C69.7514 156.978 81.3553 159.622 93.0773 160.66C129.299 163.864 166.639 151.72 194.532 124.163C220.586 98.4225 233.134 64.3485 232.444 30.4123C230.909 21.9845 227.512 23.0736 227.628 18.7227C228.436 19.3775 232.052 22.8698 234.705 26.6614C267.926 76.7029 262.241 144.844 217.906 188.648C177.266 228.799 116.573 236.229 68.5077 211.142C57.0063 205.139 46.2274 197.277 36.6204 187.552C32.2372 183.116 28.2446 178.439 24.6413 173.566C14.9037 160.401 8.01186 145.802 3.96026 130.606C1.9211 122.964 0.600082 115.171 0 107.334C3.92793 112.839 8.34212 118.103 13.2468 123.067Z" fill="#3A7CEB"/>
</g>
<defs>
<clipPath id="clip0_1_9626">
<rect width="256" height="226" fill="white"/>
</clipPath>
</defs>
</svg>
