<svg width="256" height="210" viewBox="0 0 256 210" fill="none" xmlns="http://www.w3.org/2000/svg">
<g clip-path="url(#clip0_1_9646)">
<path d="M238.895 210H17.105C7.658 210 0 202.342 0 192.894V17.106C0 7.658 7.658 0 17.105 0H238.895C248.342 0 256 7.658 256 17.106V192.894C256 202.342 248.342 210 238.895 210Z" fill="black"/>
<path d="M73.705 109.044C68.377 111.725 65.072 113.625 61.587 115.097C51.222 119.474 40.18 115.613 35.38 106.1C30.632 96.6912 33.343 85.8072 42.872 80.2312C55.708 72.7212 69.009 66.0062 83.163 58.3832C82.197 66.9402 78.103 71.7812 72.01 75.1622C65.03 79.0352 57.965 82.7562 50.915 86.5002C44.659 89.8212 40.063 94.2892 44.011 101.728C47.784 108.838 53.785 108.693 60.379 105.125C87.349 90.5302 114.374 76.0362 141.421 61.5832C144.652 59.8562 146.769 57.1862 149.038 54.4802C157.022 44.9582 167.007 37.8782 176.985 30.7882C176.557 30.1292 176.253 28.0312 176.253 28.0312C176.253 28.0312 180.335 27.6782 182.753 25.8642C183.63 25.2062 187.856 22.4172 188.895 22.0672C197.42 19.1972 195.425 21.3342 201.42 22.8642C202.307 23.0902 209.207 22.3322 209.903 22.8822C212.462 25.6142 211.333 32.7012 211.333 32.7012C209.712 34.8642 206.082 35.1212 205.42 35.8642C201.344 40.4402 200.867 42.7682 192.753 44.5312C191.831 44.5682 192.362 46.9882 192.413 48.5572C192.599 54.2832 191.837 60.0022 193.117 65.7432C195.495 76.4142 201.183 82.0912 212.808 81.3812C218.464 81.0362 224.272 82.0592 229.91 83.0432C232.775 83.5422 235.473 85.7152 234.737 89.1152C234.49 90.2582 234.087 91.0312 234.087 91.0312C234.087 91.0312 230.053 91.0762 229.072 90.7162C227.006 89.9582 225.572 89.5422 223.42 89.3642C222.988 88.8822 223.087 86.8642 223.087 86.8642C223.087 86.8642 219.048 89.2512 217.763 89.3022C208.684 89.6632 199.448 92.1632 192.002 87.3162C179.953 79.4712 174.676 84.9312 166.326 92.4162C152.778 104.559 136.163 111.665 117.569 112.195C112.349 112.344 111.336 114.391 110.832 118.852C108.841 136.475 99.351 147.568 81.553 150.615C77.8 151.258 76.179 153.449 74.596 156.343C70.157 164.462 65.605 172.519 61.079 180.59C59.679 183.086 58.563 185.93 55.679 187.068C54.326 187.601 52.662 187.64 51.219 187.408C50.91 187.359 50.628 185.711 50.914 184.03C51.753 180.531 52.087 177.864 52.587 174.697C54.898 174.689 55.913 172.438 57.074 171.389C62.008 166.934 61.93 156.752 63.651 148.985C64.708 144.219 65.217 140.246 71.469 138.722C77.3 137.301 78.536 131.702 76.504 126.184C74.627 121.091 72.574 116.112 73.705 109.044Z" fill="#F7BE01"/>
<path d="M235.32 104.816C235.32 129.356 235.674 153.258 235.137 177.141C234.936 186.056 228.428 189.369 219.89 189.345C189.229 189.256 158.568 189.309 127.907 189.309H79.533C84.945 183.579 96.42 172.865 96.42 172.865C96.42 172.865 103.795 170.332 108.803 169.888C115.28 169.313 126.087 166.532 126.087 166.532C126.087 166.532 130.126 156.465 131.368 150.79C132.145 147.239 134.837 140.615 134.837 140.615L146.4 140.572L174.587 140.365C174.587 140.365 179.575 126.225 181.42 119.198C196.42 117.198 221.564 108.17 235.32 104.816Z" fill="#F7BE01"/>
<path d="M58.958 143.211C56.63 150.01 60.176 159.304 51.155 162.288C41.846 165.369 34.005 174.414 20.566 170.017C25.207 167.519 27.328 163.249 31.09 161.365C32.198 160.811 34.42 159.366 34.42 159.366L37.359 161.46C37.359 161.46 39.414 160.52 40.388 159.907C43.312 158.071 46.746 153.542 49.815 150.945C52.862 148.366 55.91 145.789 58.958 143.211Z" fill="#F7BE01"/>
<path d="M222.01 70.4004C221.696 68.9324 221.087 68.0314 221.087 68.0314C221.087 68.0314 212.203 73.5524 208.984 74.5684C206.17 75.4554 203.832 78.5764 201.709 73.2014C199.944 68.7294 202.449 68.5334 205.218 67.5574C211.475 65.3514 217.641 62.8834 223.924 60.7564C227.745 59.4634 232.78 59.3474 234.018 63.1984C234.467 64.5934 233.93 66.1564 233.93 66.1564C233.93 66.1564 229.833 67.5694 227.712 68.3644C225.977 69.0154 223.602 69.7774 222.01 70.4004Z" fill="#F7BE01"/>
<path d="M76.127 55.9678C73.394 56.6408 73.446 54.5839 73.262 53.2119C72.717 49.1619 76.556 49.1238 78.752 47.8268C80.6 46.7348 81.809 48.6448 82.023 50.0948C83.02 54.3108 77.911 54.6948 76.127 55.9678Z" fill="#F7BE01"/>
<path d="M71.218 45.2804C69.068 45.4044 67.999 44.2374 67.938 42.5184C67.83 39.5194 69.646 37.5904 72.477 37.4524C74.684 37.3434 77.366 38.4834 76.921 41.1594C76.465 43.9054 73.146 44.0614 71.218 45.2804Z" fill="#F7BE01"/>
<path d="M140.13 90.0854C138.215 89.4264 138.048 87.8694 138.35 86.2444C138.596 84.9204 139.386 83.8014 140.941 84.1984C142.929 84.7054 142.954 86.4104 142.776 88.0244C142.61 89.5244 141.616 90.1564 140.13 90.0854Z" fill="#303144"/>
<path d="M183.12 58.5982C183.039 59.9652 182.604 61.2562 181.112 61.4262C179.029 61.6632 178.403 60.1362 178.402 58.4292C178.401 57.1302 178.884 55.7252 180.371 55.5802C182.385 55.3862 183.058 56.8092 183.12 58.5982Z" fill="#303144"/>
<path d="M168.134 46.9555C169.815 46.6915 170.839 47.3555 171.204 48.7135C171.674 50.4605 171.095 51.9245 169.238 52.4015C167.787 52.7735 166.855 51.7995 166.389 50.5365C165.696 48.6605 166.661 47.5645 168.134 46.9555Z" fill="#303144"/>
<path d="M86.977 119.08C86.629 120.671 85.922 122.046 84.013 121.624C82.325 121.25 81.416 119.84 81.985 118.237C82.317 117.302 83.548 116.126 84.439 116.069C86.159 115.958 87.009 117.312 86.977 119.08Z" fill="#303144"/>
<path d="M103.921 109.236C104.137 111.284 103.046 112.474 101.431 112.483C100.579 112.488 99.2809 111.3 98.9609 110.381C98.4049 108.788 99.275 107.268 100.938 106.85C102.84 106.373 103.472 107.927 103.921 109.236Z" fill="#303144"/>
<path d="M183.632 68.0157C185.636 68.0047 186.616 69.0877 186.626 70.7817C186.637 72.4487 185.635 73.8647 183.901 73.6407C183.02 73.5277 181.92 72.2677 181.598 71.3007C181.031 69.5957 182.141 68.5087 183.632 68.0157Z" fill="#303144"/>
<path d="M134.771 77.6315C134.521 78.6005 133.636 79.9375 131.847 79.2535C130.93 78.9035 129.894 77.6035 129.798 76.6445C129.636 75.0095 130.814 73.6965 132.554 73.7985C134.303 73.9005 135.146 75.1545 134.771 77.6315Z" fill="#303144"/>
<path d="M170.674 65.3571C170.328 67.5681 169.587 68.8301 167.61 68.5561C166.076 68.3441 165.603 67.0681 165.729 65.8001C165.886 64.2151 166.548 62.5091 168.553 63.0761C169.494 63.3411 170.118 64.7231 170.674 65.3571Z" fill="#303144"/>
<path d="M157.937 61.3175C157.771 63.2355 157.336 64.4385 155.874 64.6395C153.925 64.9065 152.888 63.6175 153.005 61.9315C153.106 60.4665 153.801 58.6205 155.827 59.1635C156.772 59.4165 157.424 60.7625 157.937 61.3175Z" fill="#303144"/>
<path d="M100.816 123.72C100.64 125.104 100.448 126.791 98.305 126.676C96.805 126.595 96.3 125.314 96.285 124.019C96.266 122.393 96.609 120.734 98.729 120.845C100.197 120.923 100.619 122.217 100.816 123.72Z" fill="#303144"/>
<path d="M153.784 92.9632C152.009 92.5322 151.127 91.3722 151.297 89.5772C151.433 88.1402 152.476 87.1742 153.805 87.2162C155.75 87.2772 156.383 88.6952 156.186 90.5102C156.03 91.9492 155.197 92.7422 153.784 92.9632Z" fill="#303144"/>
<path d="M181.232 40.7874C182.772 40.6384 183.856 41.2564 184.206 42.5934C184.661 44.3374 183.956 45.8314 182.222 46.3544C180.805 46.7814 179.896 45.7044 179.48 44.4424C178.894 42.6614 179.507 41.3774 181.232 40.7874Z" fill="#303144"/>
<path d="M149.499 71.5469C151.043 71.9629 152.354 72.8679 151.839 74.6739C151.553 75.6769 150.565 76.9969 149.671 77.2019C147.883 77.6109 146.971 76.1059 146.781 74.5249C146.562 72.7109 147.731 71.8079 149.499 71.5469Z" fill="#303144"/>
<path d="M115.992 99.6611C116.481 99.3781 117.102 99.3841 117.585 99.6781C118.719 100.37 119.494 101.388 119.093 102.817C118.923 103.425 118.385 103.93 117.808 104.424C117.201 104.944 116.305 104.943 115.698 104.423C115.119 103.926 114.58 103.418 114.418 102.81C114.039 101.385 114.806 100.347 115.992 99.6611Z" fill="#303144"/>
<path d="M105.621 94.1233C105.147 94.4903 104.147 95.8743 103.314 95.7803C101.737 95.6023 100.339 94.3033 100.965 92.4493C101.317 91.4103 102.602 89.8413 103.285 89.9293C104.864 90.1323 105.964 91.4473 105.621 94.1233Z" fill="#303144"/>
<path d="M164.998 76.7194C166.566 77.5104 167.417 78.7514 166.872 80.4984C166.495 81.7064 165.548 82.7664 164.161 82.3514C162.443 81.8384 161.706 80.4444 162.289 78.6744C162.688 77.4624 163.507 76.5704 164.998 76.7194Z" fill="#303144"/>
<path d="M196.312 29.65C194.828 29.761 193.859 28.955 193.543 27.661C193.069 25.718 194.406 24.682 196.023 24.536C197.391 24.413 198.305 25.615 198.338 26.977C198.37 28.261 197.877 29.445 196.312 29.65Z" fill="#303144"/>
<path d="M89.521 103.489C89.017 104.695 88.86 106.099 87.266 106.08C85.189 106.056 84.87 104.468 84.856 102.907C84.844 101.571 85.584 100.592 87.048 100.538C89.201 100.458 89.325 102.052 89.521 103.489Z" fill="#303144"/>
<path d="M130.877 100.37C131.056 98.8328 131.155 97.1908 133.279 97.1758C134.87 97.1658 135.275 98.4908 135.383 99.6598C135.528 101.241 135.211 102.815 133.077 102.781C131.578 102.758 131.075 101.673 130.877 100.37Z" fill="#303144"/>
<path d="M88.582 131.93C90.154 131.857 90.7759 132.811 91.0199 134.104C91.3269 135.729 91.084 137.226 89.174 137.567C87.774 137.817 86.8799 136.985 86.7359 135.543C86.5759 133.948 86.879 132.555 88.582 131.93Z" fill="#303144"/>
<path d="M120.329 90.2762C118.154 89.4802 117.409 88.0842 117.95 86.5672C118.25 85.7232 119.735 84.6462 120.518 84.7672C122.158 85.0202 123.036 86.5832 122.495 88.1782C122.185 89.0922 120.962 89.6962 120.329 90.2762Z" fill="#303144"/>
</g>
<defs>
<clipPath id="clip0_1_9646">
<rect width="256" height="210" fill="white"/>
</clipPath>
</defs>
</svg>
