<svg width="512" height="95" viewBox="0 0 512 95" fill="none" xmlns="http://www.w3.org/2000/svg">
<g clip-path="url(#clip0_1_9680)">
<path d="M92.0179 62.9323C93.7241 58.046 94.6514 52.7943 94.6514 47.3257C94.6514 21.1881 73.4628 0 47.3257 0C21.1881 0 0 21.1881 0 47.3257C0 60.2584 5.18759 71.9799 13.5953 80.5217L61.6013 32.5157L73.4534 44.3678L92.0179 62.9323ZM83.3731 77.9913L61.6013 56.22L27.5071 90.3142C33.5357 93.098 40.249 94.6514 47.3257 94.6514C61.764 94.6514 74.6928 88.1855 83.3731 77.9913Z" fill="#10B981"/>
<path d="M123.772 71.974V22.282H148.051C150.559 22.282 152.854 22.6606 154.936 23.4178C157.066 24.175 158.888 25.2399 160.403 26.6123C161.917 27.9374 163.1 29.5465 163.952 31.4395C164.804 33.3326 165.23 35.4149 165.23 37.6865C165.23 40.81 164.331 43.6022 162.532 46.0632C160.781 48.5241 158.439 50.3461 155.504 51.5293L166.508 71.974H155.007L145.282 52.9491H134.066V71.974H123.772ZM147.128 31.1556H134.066V44.5014H147.128C149.447 44.5014 151.292 43.8862 152.665 42.6557C154.085 41.4252 154.794 39.8162 154.794 37.8285C154.794 35.8408 154.085 34.2317 152.665 33.0013C151.292 31.7708 149.447 31.1556 147.128 31.1556ZM167.461 53.517C167.461 50.8194 167.958 48.3111 168.952 45.9922C169.993 43.6259 171.39 41.5909 173.141 39.8872C174.939 38.1361 177.045 36.7637 179.459 35.7698C181.872 34.776 184.451 34.2791 187.196 34.2791C189.941 34.2791 192.52 34.776 194.934 35.7698C197.348 36.7637 199.43 38.1361 201.181 39.8872C202.979 41.5909 204.376 43.6259 205.369 45.9922C206.411 48.3111 206.931 50.8194 206.931 53.517C206.931 56.2145 206.411 58.7465 205.369 61.1127C204.376 63.4317 202.979 65.443 201.181 67.1468C199.43 68.8505 197.348 70.1993 194.934 71.1931C192.52 72.1869 189.941 72.6839 187.196 72.6839C184.451 72.6839 181.872 72.1869 179.459 71.1931C177.045 70.1993 174.939 68.8505 173.141 67.1468C171.39 65.443 169.993 63.4317 168.952 61.1127C167.958 58.7465 167.461 56.2145 167.461 53.517ZM187.196 64.2362C190.036 64.2362 192.449 63.1951 194.437 61.1127C196.425 59.0304 197.419 56.4985 197.419 53.517C197.419 50.4881 196.425 47.9325 194.437 45.8502C192.449 43.7679 190.036 42.7267 187.196 42.7267C184.357 42.7267 181.943 43.7679 179.955 45.8502C177.968 47.9325 176.974 50.4881 176.974 53.517C176.974 56.4985 177.968 59.0304 179.955 61.1127C181.943 63.1951 184.357 64.2362 187.196 64.2362ZM231.289 64.1652C232.945 64.1652 234.483 63.834 235.903 63.1714C237.37 62.5089 238.766 61.4677 240.091 60.0479L245.912 66.0819C244.019 68.1643 241.748 69.797 239.097 70.9801C236.447 72.116 233.702 72.6839 230.863 72.6839C228.165 72.6839 225.609 72.1869 223.196 71.1931C220.83 70.1993 218.771 68.8505 217.02 67.1468C215.316 65.443 213.967 63.4317 212.974 61.1127C211.98 58.7465 211.483 56.2145 211.483 53.517C211.483 50.8194 211.98 48.3111 212.974 45.9922C213.967 43.6259 215.316 41.5909 217.02 39.8872C218.771 38.1361 220.83 36.7637 223.196 35.7698C225.609 34.776 228.165 34.2791 230.863 34.2791C233.797 34.2791 236.613 34.8706 239.31 36.0538C242.008 37.1896 244.303 38.7987 246.196 40.881L240.233 47.199C238.908 45.7319 237.488 44.6197 235.974 43.8625C234.459 43.1053 232.827 42.7267 231.076 42.7267C228.283 42.7267 225.917 43.7679 223.977 45.8502C222.084 47.9325 221.137 50.4881 221.137 53.517C221.137 56.5458 222.107 59.0777 224.048 61.1127C226.035 63.1477 228.449 64.1652 231.289 64.1652ZM250.969 71.974V22.282L260.694 20.1523V50.6064L276.667 34.989H287.67L270.349 51.9552L288.735 71.974H276.312L260.694 55.0787V71.974H250.969ZM302.018 73.6777L302.586 72.3289L288.175 34.989H298.895L308.052 60.1899L318.559 34.989H329.065L312.028 74.8845C310.135 79.3331 307.934 82.504 305.426 84.397C302.917 86.29 299.652 87.2365 295.629 87.2365C294.777 87.2365 293.949 87.1892 293.145 87.0945C292.387 87.0472 291.772 86.9526 291.299 86.8106V78.4339C291.772 78.5286 292.269 78.5996 292.79 78.6469C293.31 78.6942 293.949 78.7179 294.706 78.7179C296.458 78.7179 297.925 78.292 299.108 77.4401C300.338 76.5882 301.308 75.3341 302.018 73.6777ZM348.408 71.974V22.282H353.874V67.0758H383.476V71.974H348.408ZM392.884 29.5938C391.937 29.5938 391.109 29.2389 390.399 28.529C389.689 27.8191 389.334 26.9909 389.334 26.0444C389.334 25.0506 389.689 24.2224 390.399 23.5598C391.109 22.8499 391.937 22.495 392.884 22.495C393.877 22.495 394.706 22.8499 395.368 23.5598C396.078 24.2224 396.433 25.0506 396.433 26.0444C396.433 26.9909 396.078 27.8191 395.368 28.529C394.706 29.2389 393.877 29.5938 392.884 29.5938ZM395.51 36.4087V71.974H390.257V36.4087H395.51ZM404.469 71.974V36.4087H409.722V40.597C411.094 38.988 412.727 37.7812 414.62 36.9766C416.513 36.1248 418.619 35.6988 420.938 35.6988C424.961 35.6988 428.25 36.9766 430.805 39.5322C433.361 42.0878 434.639 45.4006 434.639 49.4706V71.974H429.457V50.5354C429.457 47.4119 428.557 44.9274 426.759 43.0816C424.961 41.2359 422.547 40.3131 419.518 40.3131C417.388 40.3131 415.472 40.7863 413.768 41.7329C412.112 42.6794 410.763 44.0282 409.722 45.7792V71.974H404.469ZM448.123 36.4087V57.8473C448.123 60.9708 449.022 63.4554 450.82 65.3011C452.619 67.1468 455.032 68.0696 458.061 68.0696C460.191 68.0696 462.084 67.5964 463.74 66.6498C465.444 65.656 466.816 64.2836 467.857 62.5325V36.4087H473.111V71.974H467.857V67.8567C466.485 69.4657 464.852 70.6725 462.959 71.4771C461.113 72.2816 459.031 72.6839 456.712 72.6839C452.642 72.6839 449.329 71.4061 446.774 68.8505C444.218 66.2949 442.94 62.9821 442.94 58.9121V36.4087H448.123ZM477.925 71.974L491.91 53.6589L478.635 36.4087H484.882L494.963 49.7546L505.044 36.4087H511.078L497.945 53.588L512 71.974H505.754L494.894 57.4923L483.888 71.974H477.925Z" fill="black"/>
</g>
<defs>
<clipPath id="clip0_1_9680">
<rect width="512" height="95" fill="white"/>
</clipPath>
</defs>
</svg>
