<svg width="512" height="112" viewBox="0 0 512 112" fill="none" xmlns="http://www.w3.org/2000/svg">
<g clip-path="url(#clip0_1_9687)">
<path d="M133.6 3.31603C133.598 3.1012 133.577 2.88699 133.536 2.67603C133.536 2.61203 133.504 2.55443 133.485 2.49043C133.466 2.42643 133.402 2.20243 133.35 2.06163L133.254 1.85683C133.195 1.73468 133.126 1.61704 133.05 1.50483C133.005 1.43443 132.96 1.36403 132.909 1.29363L132.819 1.17203C132.768 1.11443 132.71 1.06963 132.659 1.01843L132.531 0.864835L132.429 0.794435C132.335 0.71423 132.237 0.639442 132.134 0.570435L131.885 0.410435C131.775 0.352759 131.662 0.301473 131.546 0.256835L131.277 0.148035C131.155 0.109635 131.027 0.0904346 130.906 0.0648346L130.63 0.00723457C130.479 -0.00241152 130.327 -0.00241152 130.176 0.00723457H129.92C128.205 0.160835 105.542 2.32403 80.0704 13.684C64.7744 20.4872 52.9344 30.932 45.4848 43.6104L43.5648 44.4424C16.2944 56.6152 0 80.276 0 107.738V108.199C0 109.49 0.750005 110.663 1.92 111.207C2.35982 111.409 2.8378 111.514 3.3216 111.514H93.8496C94.0255 111.514 94.2012 111.5 94.3744 111.47L94.6048 111.412C94.7136 111.38 94.8224 111.361 94.9312 111.322C95.04 111.284 95.0912 111.246 95.1744 111.207C95.2576 111.169 95.3664 111.13 95.456 111.079C95.625 110.979 95.7855 110.866 95.936 110.74L132.416 79.9816C133.171 79.347 133.603 78.408 133.594 77.4216V3.31603H133.6ZM100.614 98.1064L97.1136 101.057V35.6168L126.963 10.4584V75.8984L100.614 98.1064ZM41.0176 80.756H90.4768V104.878H12.3968L41.0176 80.756ZM82.7648 19.7512C94.4229 14.6181 106.618 10.8035 119.123 8.37843L92.4416 30.8744C80.1257 32.3772 68.0124 35.2295 56.32 39.38C62.9248 31.316 71.8336 24.628 82.7648 19.7512ZM49.9776 48.9224C62.9708 43.574 76.5727 39.8447 90.4768 37.8184V74.1192H43.1936C43.5346 65.3175 45.8533 56.7055 49.9776 48.9224ZM40.8704 53.1592C38.0741 60.4153 36.5876 68.1101 36.48 75.8856L7.04 100.73C9.2672 80.5448 21.2544 63.6616 40.8704 53.1592Z" fill="#3C72FF"/>
<path d="M159.066 92.4379V17.2891H190.17C198.208 17.2891 204.67 19.3733 209.555 23.5419C214.441 27.7104 216.881 33.8523 216.877 41.9675C217.107 50.8086 212.538 59.083 204.934 63.5995L221.043 92.4507H199.635L186.906 66.8507H178.56V92.4507L159.066 92.4379ZM178.56 51.2091H188.25C190.623 51.3002 192.933 50.425 194.65 48.7835C196.344 47.0653 197.245 44.7174 197.133 42.3067C197.133 39.4523 196.344 37.1973 194.765 35.5419C193.186 33.8864 190.985 33.0565 188.16 33.0523H178.56V51.2091ZM223.526 65.9291C223.462 60.9339 224.683 56.0061 227.072 51.6187C229.405 47.3736 232.856 43.8479 237.05 41.4235C241.537 38.8528 246.638 37.5478 251.808 37.6475C257.444 37.6475 262.385 38.9061 266.63 41.4235C270.801 43.8682 274.228 47.4012 276.544 51.6443C278.933 56.0225 280.157 60.9416 280.096 65.9291C280.162 70.9252 278.939 75.854 276.544 80.2395C274.224 84.4748 270.798 88.0008 266.63 90.4411C262.364 92.9584 257.423 94.2171 251.808 94.2171C246.638 94.3167 241.537 93.0117 237.05 90.4411C232.859 88.0213 229.409 84.5027 227.072 80.2651C224.678 75.8703 223.457 70.933 223.526 65.9291ZM251.808 77.5387C254.704 77.6545 257.491 76.4262 259.36 74.2107C261.276 71.8852 262.277 68.9404 262.176 65.9291C262.276 62.9179 261.275 59.9735 259.36 57.6475C257.42 55.5314 254.682 54.3265 251.811 54.3265C248.941 54.3265 246.202 55.5314 244.262 57.6475C242.343 59.9712 241.339 62.9166 241.44 65.9291C241.328 68.9547 242.333 71.9159 244.262 74.2491C246.131 76.4604 248.916 77.6841 251.808 77.5643V77.5387ZM288.883 92.4123H307.93V17.2891H288.883V92.4123ZM318.963 92.4123H338.01V17.2891H318.97L318.963 92.4123ZM349.043 89.9291V17.2891H368.09V43.7595C369.354 42.3208 370.909 41.1668 372.653 40.3739C374.236 39.6601 375.896 39.1317 377.6 38.7995C378.864 38.5343 380.149 38.3843 381.44 38.3515C386.394 38.3515 390.581 39.5888 394.003 42.0635C397.425 44.5533 400.112 47.9209 401.779 51.8107C403.551 55.8822 404.451 60.2793 404.422 64.7195C404.422 74.0336 401.72 81.2869 396.314 86.4795C390.908 91.672 382.944 94.264 372.422 94.2557C368.083 94.2638 363.756 93.7916 359.52 92.8475C355.98 92.0823 352.486 91.1165 349.056 89.9547L349.043 89.9291ZM368.09 64.8027V77.5387C369.027 77.8701 369.988 78.1332 370.963 78.3259C372.207 78.5654 373.472 78.679 374.739 78.6651C377.595 78.7687 380.354 77.6239 382.298 75.5291C384.256 73.4213 385.233 70.0784 385.229 65.5003C385.22 63.7931 384.935 62.0986 384.384 60.4827C383.872 58.8736 382.96 57.4204 381.734 56.2587C380.441 55.0965 378.742 54.4896 377.005 54.5691C373.848 54.5691 371.576 55.5461 370.189 57.5003C368.733 59.6596 368.003 62.2261 368.102 64.8283L368.09 64.8027ZM443.814 92.4123L443.136 87.4523C441.135 89.7416 438.661 91.5693 435.885 92.8091C432.979 93.8627 429.9 94.3599 426.81 94.2747C424.31 94.2425 421.834 93.7836 419.488 92.9179C416.881 91.9781 414.606 90.2935 412.947 88.0731C411.142 85.7264 410.24 82.4496 410.24 78.2427C410.24 73.976 411.405 70.4069 413.734 67.5355C416.201 64.5816 419.415 62.3428 423.04 61.0523C427.059 59.5733 431.315 58.8403 435.597 58.8891C437.325 58.8891 438.716 58.9275 439.77 59.0043C440.819 59.0747 441.946 59.1899 443.149 59.3435V58.2939C443.149 56.4208 442.68 55.0128 441.741 54.0699C440.794 53.1254 439.605 52.461 438.304 52.1499C437.016 51.8199 435.692 51.6501 434.362 51.6443C431.364 51.5927 428.377 52.025 425.517 52.9243C423.298 53.6065 421.191 54.6114 419.264 55.9067L412.051 44.9947C414.304 43.1941 417.476 41.5429 421.568 40.0411C425.66 38.5392 430.825 37.7819 437.062 37.7691C444.427 37.7691 450.381 39.6677 454.925 43.4651C459.469 47.2624 461.741 52.9136 461.741 60.4187V92.4187L443.814 92.4123ZM443.136 73.0267V69.5387C441.43 69.1965 439.692 69.0441 437.952 69.0843C434.795 69.0843 432.467 69.7051 430.97 70.9467C429.553 72.0002 428.718 73.6613 428.717 75.4267C428.717 79.3392 430.82 81.2933 435.027 81.2891C437.001 81.2818 438.926 80.6722 440.544 79.5419C442.281 78.3728 443.149 76.2096 443.149 73.0523L443.136 73.0267ZM472.576 92.4123V39.4715H490.944L491.584 46.1211C493.099 44.0087 494.991 42.1947 497.165 40.7707C499.572 39.2523 502.378 38.4878 505.222 38.5755C506.521 38.5612 507.819 38.636 509.107 38.7995C510.085 38.9133 511.048 39.1277 511.981 39.4395L509.523 55.6891C507.715 55.2518 505.86 55.0369 504 55.0491C495.736 55.0491 491.603 59.5952 491.603 68.6875V92.4635L472.576 92.4123Z" fill="#343F55"/>
</g>
<defs>
<clipPath id="clip0_1_9687">
<rect width="512" height="112" fill="white"/>
</clipPath>
</defs>
</svg>
