<svg width="256" height="335" viewBox="0 0 256 335" fill="none" xmlns="http://www.w3.org/2000/svg">
<g clip-path="url(#clip0_1_9691)">
<path d="M256 110.131C256 90.4476 250.845 71.9945 241.765 56.0018C217.688 31.2219 165.316 25.481 152.311 55.8846C138.955 87.0499 174.748 121.73 190.389 118.977C210.307 115.462 186.874 69.7684 186.874 69.7684C217.336 127.178 210.307 109.604 155.24 162.327C100.174 215.05 43.936 326.296 35.7346 330.982C35.3831 331.216 35.0317 331.392 34.6216 331.568H250.611C254.418 331.568 256.879 327.526 255.18 324.128L198.708 212.355C197.477 209.953 198.356 206.966 200.699 205.618C233.739 186.638 256 151.021 256 110.131Z" fill="url(#paint0_linear_1_9691)"/>
<path d="M256 110.131C256 90.4476 250.845 71.9945 241.765 56.0018C217.688 31.2219 165.316 25.481 152.311 55.8846C138.955 87.0499 174.748 121.73 190.389 118.977C210.307 115.462 186.874 69.7684 186.874 69.7684C217.336 127.178 210.307 109.604 155.24 162.327C100.174 215.05 43.936 326.296 35.7346 330.982C35.3831 331.216 35.0317 331.392 34.6216 331.568H250.611C254.418 331.568 256.879 327.526 255.18 324.128L198.708 212.355C197.477 209.953 198.356 206.966 200.699 205.618C233.739 186.638 256 151.021 256 110.131Z" fill="url(#paint1_linear_1_9691)"/>
<path d="M35.7347 330.983C43.9361 326.297 100.174 214.992 155.24 162.269C210.307 109.546 217.337 127.121 186.874 69.7109C186.874 69.7109 70.2976 233.153 28.1191 313.995" fill="url(#paint2_linear_1_9691)"/>
<path d="M52.1375 184.531C130.871 39.7767 141.181 25.1899 182.188 25.1899C203.746 25.1899 225.479 34.9144 239.539 52.1959C220.383 21.3236 186.464 0.644406 147.625 0.0585938H13.8839C11.072 0.0585938 8.78735 2.34326 8.78735 5.15516V274.746C16.7544 254.184 30.2867 224.776 52.1375 184.531Z" fill="url(#paint3_linear_1_9691)"/>
<path d="M155.24 162.271C100.174 214.995 43.936 326.299 35.7347 330.985C27.5333 335.672 13.7667 336.258 6.44405 328.056C-1.34726 319.328 -13.4736 305.21 52.1374 184.532C130.871 39.7782 141.181 25.1914 182.188 25.1914C203.746 25.1914 225.479 34.9159 239.539 52.1974C240.3 53.4276 241.062 54.7163 241.823 56.0051C217.747 31.2253 165.375 25.4843 152.37 55.888C139.013 87.0532 174.807 121.733 190.448 118.98C210.365 115.465 186.933 69.7717 186.933 69.7717C217.336 127.123 210.307 109.548 155.24 162.271Z" fill="url(#paint4_linear_1_9691)"/>
<path opacity="0.3" d="M58.5813 190.976C137.315 46.2221 147.625 31.6353 188.632 31.6353C206.382 31.6353 224.249 38.255 237.84 50.2056C223.78 34.1543 202.926 25.1914 182.188 25.1914C141.181 25.1914 130.871 39.7782 52.1374 184.532C-13.4736 305.21 -1.34726 319.328 6.44405 328.056C7.55709 329.287 8.84588 330.341 10.1932 331.22C3.33924 321.261 0.293015 298.121 58.5813 190.976Z" fill="url(#paint5_linear_1_9691)"/>
</g>
<defs>
<linearGradient id="paint0_linear_1_9691" x1="5972.94" y1="14327.5" x2="15114" y2="15519.8" gradientUnits="userSpaceOnUse">
<stop stop-color="#FF6533"/>
<stop offset="0.157" stop-color="#FF5633"/>
<stop offset="0.434" stop-color="#FF4333"/>
<stop offset="0.714" stop-color="#FF3733"/>
<stop offset="1" stop-color="#FF3333"/>
</linearGradient>
<linearGradient id="paint1_linear_1_9691" x1="4561.9" y1="11337" x2="22749.9" y2="19205.1" gradientUnits="userSpaceOnUse">
<stop stop-color="#BF3338"/>
<stop offset="1" stop-color="#FF3333"/>
</linearGradient>
<linearGradient id="paint2_linear_1_9691" x1="5733.11" y1="10389.1" x2="8597.4" y2="11764.2" gradientUnits="userSpaceOnUse">
<stop stop-color="#FF6533"/>
<stop offset="0.157" stop-color="#FF5633"/>
<stop offset="0.434" stop-color="#FF4333"/>
<stop offset="0.714" stop-color="#FF3733"/>
<stop offset="1" stop-color="#FF3333"/>
</linearGradient>
<linearGradient id="paint3_linear_1_9691" x1="11907.3" y1="21520.3" x2="10914" y2="11473" gradientUnits="userSpaceOnUse">
<stop stop-color="#FF6533"/>
<stop offset="0.157" stop-color="#FF5633"/>
<stop offset="0.434" stop-color="#FF4333"/>
<stop offset="0.714" stop-color="#FF3733"/>
<stop offset="1" stop-color="#FF3333"/>
</linearGradient>
<linearGradient id="paint4_linear_1_9691" x1="9714.9" y1="14624.2" x2="13355.4" y2="16136.3" gradientUnits="userSpaceOnUse">
<stop stop-color="#FBB040"/>
<stop offset="1" stop-color="#FB8840"/>
</linearGradient>
<linearGradient id="paint5_linear_1_9691" x1="13124.8" y1="1827.03" x2="7541.13" y2="38872.4" gradientUnits="userSpaceOnUse">
<stop stop-color="white"/>
<stop offset="1" stop-color="white" stop-opacity="0"/>
</linearGradient>
<clipPath id="clip0_1_9691">
<rect width="256" height="335" fill="white"/>
</clipPath>
</defs>
</svg>
