<svg width="256" height="256" viewBox="0 0 256 256" fill="none" xmlns="http://www.w3.org/2000/svg">
<g clip-path="url(#clip0_1_9699)">
<path d="M38.3149 153.175V255.292H0.0212742V153.175H38.3149ZM255.312 153.175V255.292H217.019V153.175H255.312ZM90.146 23.6933L100.258 44.7831C101.086 46.4989 101.143 48.4864 100.415 50.2467C99.6863 52.0071 98.2416 53.3731 96.4432 54.002C62.4966 66.0574 38.2936 97.217 38.2936 133.759V140.446H0V133.759C0 81.9918 33.9537 37.8123 81.7994 20.2965C85.0413 19.1063 88.6565 20.5776 90.146 23.6933ZM173.499 20.2043C221.358 37.7768 255.312 81.9776 255.312 133.724V140.411H217.019V133.724C217.019 97.1816 192.844 66.029 158.869 53.9665C157.071 53.3377 155.626 51.9716 154.897 50.2113C154.169 48.4509 154.226 46.4634 155.054 44.7477L165.152 23.6011C166.641 20.4854 170.257 19.0142 173.499 20.2043Z" fill="#27272A"/>
<path d="M127.667 60.7805C169.96 60.7805 204.254 93.4365 204.254 133.723V255.291H165.96V133.723C165.96 113.576 148.813 97.2517 127.667 97.2517C106.52 97.2517 89.373 113.562 89.373 133.723V255.291H51.0793V133.723C51.0793 93.4365 85.3734 60.7805 127.667 60.7805ZM151.962 1.64523C154.08 1.93374 155.934 3.216 156.952 5.09668C157.969 6.97737 158.028 9.23067 157.11 11.1619L155.273 15.0054L141.055 44.7894C139.866 47.2463 137.313 48.7441 134.588 48.5833C132.295 48.4556 129.988 48.3918 127.667 48.3918C125.348 48.3918 123.036 48.4556 120.745 48.5833C118.022 48.745 115.47 47.2466 114.285 44.7894L100.06 15.0054L98.2231 11.1619C97.3052 9.23067 97.3641 6.97737 98.3815 5.09668C99.3989 3.216 101.253 1.93374 103.371 1.64523C119.494 -0.548409 135.839 -0.548409 151.962 1.64523Z" fill="#FFC905"/>
</g>
<defs>
<clipPath id="clip0_1_9699">
<rect width="256" height="256" fill="white"/>
</clipPath>
</defs>
</svg>
