<svg width="512" height="127" viewBox="0 0 512 127" fill="none" xmlns="http://www.w3.org/2000/svg">
<g clip-path="url(#clip0_1_9703)">
<path d="M18.7675 75.0292V125.048H0.0104206V75.0292H18.7675ZM125.058 75.0292V125.048H106.301V75.0292H125.058ZM44.1557 11.6058L49.1089 21.9361C49.5145 22.7765 49.5424 23.75 49.1855 24.6123C48.8287 25.4745 48.121 26.1437 47.2402 26.4517C30.6123 32.3567 18.7571 47.6194 18.7571 65.5186V68.7942H0V65.5186C0 40.1618 16.6313 18.5216 40.0673 9.94195C41.6552 9.35899 43.426 10.0796 44.1557 11.6058ZM84.9837 9.89679C108.427 18.5042 125.058 40.1548 125.058 65.5012V68.7768H106.301V65.5012C106.301 47.6021 94.4595 32.3428 77.8177 26.4343C76.9369 26.1263 76.2292 25.4572 75.8724 24.5949C75.5155 23.7327 75.5434 22.7591 75.949 21.9187L80.8953 11.5606C81.6249 10.0345 83.3957 9.31383 84.9837 9.89679Z" fill="#27272A"/>
<path d="M62.5343 29.7717C83.2505 29.7717 100.049 45.7674 100.049 65.5006V125.048H81.2914V65.5006C81.2914 55.6322 72.8924 47.6362 62.5343 47.6362C52.1762 47.6362 43.7771 55.6253 43.7771 65.5006V125.048H25.02V65.5006C25.02 45.7674 41.8181 29.7717 62.5343 29.7717ZM74.4346 0.805871C75.4724 0.947193 76.3805 1.57527 76.8788 2.49648C77.3772 3.41768 77.406 4.5214 76.9564 5.46736L76.0568 7.35002L69.0923 21.9389C68.5098 23.1424 67.2592 23.876 65.9244 23.7972C64.8013 23.7347 63.6713 23.7035 62.5343 23.7035C61.3984 23.7035 60.266 23.7347 59.1441 23.7972C57.8101 23.8765 56.5603 23.1425 55.9797 21.9389L49.0118 7.35002L48.1121 5.46736C47.6625 4.5214 47.6914 3.41768 48.1897 2.49648C48.6881 1.57527 49.5961 0.947193 50.6339 0.805871C58.5311 -0.268624 66.5374 -0.268624 74.4346 0.805871Z" fill="#FFC905"/>
<path d="M484.58 59.2202C485.974 59.2179 487.317 59.2793 488.609 59.4044C495.288 60.0319 500.631 62.2804 504.64 66.15C508.857 70.2233 511.213 75.7462 511.708 82.7188C511.775 83.6543 511.809 84.6211 511.809 85.6192C511.815 86.0613 511.781 86.503 511.708 86.9391C511.68 87.3388 511.498 87.7121 511.201 87.9812C510.787 88.266 509.653 88.4084 507.801 88.4084H468.657C468.333 89.1379 468.171 90.4752 468.171 92.4204C468.171 100.361 469.893 106.641 473.336 111.261C476.78 115.881 481.46 118.191 487.376 118.191C490.887 118.168 494.351 117.379 497.526 115.881C501.102 114.2 504.402 111.987 507.314 109.316L510.715 113.571C505.458 119.52 499.276 123.349 492.17 125.058C489.205 125.762 486.168 126.112 483.121 126.1C479.98 126.117 476.848 125.768 473.788 125.058C472.311 124.712 470.861 124.265 469.446 123.72C461.527 120.782 455.23 114.617 452.123 106.763C450.502 102.794 449.692 98.3775 449.692 93.5145C449.635 88.792 450.502 84.1038 452.245 79.7142C453.877 75.6417 456.34 71.9542 459.477 68.8871C462.658 65.8076 466.418 63.3897 470.54 61.7733C473.756 60.5023 477.14 59.7043 480.585 59.4044C481.854 59.2839 483.186 59.2226 484.58 59.2202ZM277.751 59.2376C279.064 59.2376 280.357 59.2967 281.631 59.4217C285.027 59.7369 288.363 60.5141 291.548 61.7316C295.743 63.3073 299.616 65.6344 302.976 68.5988C306.25 71.4945 308.901 75.0242 310.771 78.9743C312.701 83.1052 313.677 87.6177 313.626 92.1772C313.679 96.8688 312.705 101.515 310.771 105.79C308.924 109.843 306.277 113.482 302.99 116.489C299.648 119.523 295.774 121.914 291.562 123.54C289.989 124.158 288.374 124.665 286.73 125.058C280.849 126.438 274.727 126.438 268.845 125.058C267.248 124.68 265.679 124.192 264.149 123.599C259.971 122.011 256.134 119.639 252.846 116.61C249.588 113.582 246.987 109.917 245.204 105.842C243.318 101.533 242.371 96.8708 242.425 92.1668C242.374 87.5998 243.323 83.0768 245.204 78.9152C247.005 74.9416 249.607 71.3823 252.846 68.4599C256.153 65.5018 259.988 63.1922 264.149 61.6517C267.285 60.4776 270.564 59.7276 273.899 59.4217C275.164 59.3001 276.438 59.2376 277.751 59.2376ZM186.613 31.2617C198.388 31.2594 207.483 33.3296 213.897 37.4724C220.312 41.6152 223.519 47.3813 223.519 54.7707C223.518 56.3217 223.402 57.8706 223.172 59.4044C222.551 63.9469 220.638 68.2152 217.659 71.7007C213.76 76.251 207.548 79.295 199.024 80.8326L227.281 113.234C229.174 115.464 231.549 117.234 234.228 118.409C236.8 119.564 239.586 120.165 242.405 120.174V125.037H213.536L183.316 88.009C181.288 85.5729 179.522 83.9287 178.019 83.0765C176.516 82.2244 175.115 81.7983 173.816 81.7983V105.71C173.768 108.18 173.973 110.649 174.427 113.078C174.83 114.986 175.641 116.468 176.859 117.524C178.075 118.582 179.84 119.293 182.156 119.656C184.472 120.02 187.578 120.202 191.476 120.202V125.065H143.103V120.202C145.288 120.246 147.472 120.064 149.619 119.656C151.284 119.284 152.583 118.589 153.517 117.572C154.45 116.556 155.079 115.134 155.403 113.307C155.766 110.991 155.93 108.648 155.893 106.304V50.0327C155.929 47.7339 155.813 45.4351 155.545 43.1517C155.3 41.4056 154.772 40.0255 153.961 39.0112C153.073 37.9432 151.848 37.2084 150.488 36.9271C148.506 36.4915 146.491 36.2231 144.465 36.1247V31.2617H186.613ZM340.907 59.4148L342.366 69.9882H343.096C346.507 66.1951 349.934 63.4881 353.377 61.8671C356.821 60.2461 360.812 59.4356 365.351 59.4356C370.698 59.4356 375.115 60.3619 378.602 62.2144C382.006 64.0019 384.767 66.8069 386.501 70.2383H386.987C389.862 66.8665 393.428 64.1515 397.443 62.277C401.513 60.3697 405.957 59.3943 410.451 59.4217C415.312 59.4264 419.546 60.0331 423.154 61.2419C426.762 62.4506 429.578 64.1874 431.602 66.4522C433.225 68.3163 434.421 70.7478 435.19 73.7466C435.958 76.7454 436.343 80.9195 436.343 86.2687V104.97C436.35 108.291 436.452 110.925 436.649 112.873C436.845 114.82 437.309 116.319 438.038 117.371C438.784 118.446 439.916 119.193 441.199 119.455C443.084 119.841 444.997 120.076 446.92 120.16V125.023H408.506V120.16C410.448 120.14 412.383 119.916 414.279 119.493C415.579 119.204 416.739 118.473 417.561 117.426C418.333 116.414 418.819 115.016 419.02 113.23C419.252 110.806 419.354 108.371 419.326 105.936V90.0132C419.371 86.4332 419.128 82.8554 418.597 79.3147C418.11 76.3992 417.34 74.0488 416.287 72.2634C415.331 70.5754 413.861 69.2368 412.091 68.4425C410.349 67.6714 408.222 67.2858 405.71 67.2858C402.875 67.2997 400.546 67.9944 398.721 69.3699C396.842 70.8126 395.288 72.6354 394.16 74.7192C392.053 78.5308 390.999 83.2722 390.999 88.9434V104.963C390.999 108.284 391.08 110.918 391.242 112.866C391.405 114.813 391.85 116.313 392.58 117.364C393.343 118.451 394.499 119.198 395.803 119.448C397.75 119.843 399.724 120.087 401.708 120.177V125.04H363.173V120.177C365.113 120.082 367.043 119.838 368.946 119.448C370.233 119.202 371.394 118.514 372.228 117.503C372.999 116.533 373.486 115.135 373.687 113.31C373.918 110.865 374.02 108.409 373.993 105.953V90.0306C374.038 86.4506 373.794 82.8728 373.263 79.3321C372.775 76.4166 371.984 74.0662 370.891 72.2808C369.89 70.5859 368.38 69.2492 366.577 68.4599C364.796 67.6888 362.567 67.3032 359.89 67.3032C357.213 67.3032 355.005 67.9516 353.266 69.2484C351.446 70.6382 349.969 72.4265 348.949 74.4761C347.836 76.5831 347.018 78.833 346.517 81.1626C345.946 83.7166 345.66 86.3263 345.666 88.9434L345.667 105.559C345.675 108.697 345.756 111.185 345.909 113.022C346.071 114.967 346.517 116.447 347.247 117.461C348.014 118.5 349.141 119.214 350.407 119.465C352.29 119.859 354.201 120.103 356.121 120.195V125.058H317.69V120.195C319.651 120.096 321.601 119.852 323.526 119.465C324.973 119.139 326.067 118.49 326.808 117.52C327.549 116.55 328.036 115.152 328.267 113.328C328.543 110.885 328.665 108.428 328.632 105.971V90.899C328.63 86.2792 328.568 82.4293 328.448 79.3494C328.327 76.2696 328.105 74.1623 327.781 73.0276C327.605 72.1557 327.297 71.3158 326.867 70.5371C326.459 69.8915 325.866 69.3834 325.165 69.0782C324.221 68.6693 323.215 68.4227 322.188 68.3487C320.973 68.226 319.392 68.1646 317.447 68.1646V64.0311L340.907 59.4148ZM277.765 66.2889C275.402 66.2694 273.083 66.9237 271.079 68.1751C268.972 69.5145 267.204 71.3241 265.914 73.4618C264.386 75.9963 263.277 78.7609 262.631 81.6489C261.829 85.1377 261.442 88.7089 261.478 92.2884C261.436 95.9668 261.823 99.6376 262.631 103.227C263.267 106.143 264.376 108.935 265.914 111.494C267.192 113.621 268.938 115.431 271.02 116.784C273.038 118.052 275.381 118.709 277.765 118.673C280.185 118.7 282.564 118.048 284.632 116.791C286.789 115.445 288.601 113.613 289.923 111.441C291.492 108.861 292.641 106.047 293.327 103.105C294.17 99.5681 294.578 95.9416 294.542 92.3057C294.58 88.7432 294.172 85.1899 293.327 81.7288C292.627 78.8332 291.478 76.0649 289.923 73.5243C288.601 71.353 286.789 69.5212 284.632 68.1751C282.565 66.9172 280.186 66.2638 277.765 66.2889ZM484.101 66.2715C480.62 66.2739 477.521 67.7131 474.802 70.5892C472.083 73.4653 470.321 77.1322 469.515 81.5899H487.14C490.382 81.5875 492.466 81.4046 493.392 81.041C494.323 80.6763 494.792 79.8079 494.782 78.4289C494.779 74.8651 493.766 71.9473 491.742 69.6756C489.829 67.4596 487.028 66.2117 484.101 66.2715ZM186.613 38.0699H176.022C174.561 38.0699 173.83 38.7646 173.83 40.154V74.5038H181.75C189.373 74.5038 195.075 73.016 198.857 70.0403C201.846 67.6945 203.651 64.1446 204.272 59.3905C204.444 58.0555 204.527 56.7106 204.522 55.3646C204.52 50.1659 202.936 45.9838 199.77 42.8182C196.605 39.6526 192.219 38.0699 186.613 38.0699Z" fill="#27272A"/>
</g>
<defs>
<clipPath id="clip0_1_9703">
<rect width="512" height="127" fill="white"/>
</clipPath>
</defs>
</svg>
