<svg width="387" height="103" viewBox="0 0 387 103" fill="none" xmlns="http://www.w3.org/2000/svg">
<g clip-path="url(#clip0_1_9709)">
<path d="M260.562 0.894531C285.469 0.894531 301.203 21.9688 301.203 51.9492C301.203 81.9297 285.469 103 260.562 103C235.797 103 220.059 81.9297 220.059 51.9492C220.059 21.9688 235.797 0.894531 260.562 0.894531ZM351.566 0.894531C364.566 0.894531 374.418 5.84766 382.902 14.332L372.777 24.9375C366.754 18.5742 359.914 15.4609 350.473 15.4609C339.25 15.4609 334.461 21.1172 334.461 27.7656L334.466 28.1855C334.47 28.324 334.476 28.4611 334.483 28.5968L334.512 28.9999C334.529 29.1994 334.551 29.3958 334.578 29.5894L334.637 29.9729C334.682 30.226 334.734 30.4742 334.797 30.7179L334.897 31.0801C335.273 32.3359 335.912 33.4711 336.891 34.5371L337.18 34.8398L337.488 35.139L337.815 35.435L338.162 35.728C338.578 36.0683 339.036 36.403 339.537 36.7341L339.978 37.0171C340.128 37.1112 340.282 37.205 340.44 37.2986L340.925 37.5789L341.432 37.8581L341.962 38.1367L342.516 38.4149L343.094 38.6929L343.696 38.971C343.798 39.0174 343.902 39.0637 344.006 39.1101L344.645 39.3889L345.31 39.6684L346 39.949L346.716 40.2308L347.459 40.5142L348.228 40.7995L349.025 41.0869L349.849 41.3766L351.138 41.8162L352.034 42.113L352.958 42.4132L354.4 42.8701L355.398 43.1797L356.523 43.5366L357.63 43.8947L358.72 44.2546L359.791 44.6167L360.845 44.9817L361.881 45.35C362.223 45.4734 362.562 45.5975 362.898 45.7223L363.897 46.0989L364.877 46.4805L365.837 46.8677C367.422 47.5177 368.927 48.193 370.347 48.9045L371.188 49.3359C380.609 54.2764 386.051 61 386.051 73.0195C386.051 90.8398 375.102 103 350.609 103C336.648 103 324.609 96.7773 316.535 87.0195L326.797 76.6953C333.23 83.9102 342.672 88.4336 351.703 88.4336C365.113 88.4336 371.543 83.625 371.543 74.0078C371.543 69.4094 369.509 66.1961 364.395 63.2866L363.835 62.976L363.251 62.6674C363.152 62.6161 363.052 62.5649 362.951 62.5138L362.331 62.2077L361.686 61.9029C361.577 61.8521 361.466 61.8015 361.354 61.7508L360.673 61.4474C360.557 61.3969 360.44 61.3464 360.322 61.2959L359.602 60.9932C359.48 60.9428 359.357 60.8923 359.233 60.8419L358.474 60.5392C358.345 60.4888 358.216 60.4383 358.085 60.3878L357.287 60.0845L356.462 59.7805L355.611 59.4754L354.732 59.1689L353.826 58.8607L352.892 58.5506L351.439 58.0811L350.435 57.7647L348.72 57.2332L347.542 56.8626L346.39 56.4932L345.264 56.1241L344.162 55.7549L343.086 55.3848C342.908 55.323 342.732 55.2612 342.557 55.1992L341.518 54.8267C341.176 54.7021 340.838 54.5771 340.504 54.4516L339.515 54.0735C339.352 54.0102 339.19 53.9467 339.03 53.883L338.078 53.499C337.765 53.3703 337.456 53.2407 337.151 53.1103L336.249 52.7162L335.372 52.3161C324.993 47.4762 319.957 41.1992 319.957 28.4727C319.957 11.3594 333.914 0.894531 351.566 0.894531ZM10.9219 79.1211C16.9492 79.1211 21.8398 84.1758 21.8398 90.4062C21.8398 96.6367 16.9492 101.691 10.9219 101.691C4.89062 101.691 0 96.6367 0 90.4062C0 84.1758 4.89062 79.1211 10.9219 79.1211ZM87.1328 79.1211C93.1641 79.1211 98.0547 84.1758 98.0547 90.4062C98.0547 96.6367 93.1641 101.691 87.1328 101.691C81.1016 101.691 76.2148 96.6367 76.2148 90.4062C76.2148 84.1758 81.1016 79.1211 87.1328 79.1211ZM49.0273 79.1211C55.0586 79.1211 59.9453 84.1758 59.9453 90.4062C59.9453 96.6367 55.0586 101.691 49.0273 101.691C42.9961 101.691 38.1055 96.6367 38.1055 90.4062C38.1055 84.1758 42.9961 79.1211 49.0273 79.1211ZM171.613 2.44922C188.309 2.44922 202.402 11.6445 202.402 32.0078C202.402 47.8477 194.328 57.6055 181.328 61L200.895 101.445H184.34L165.316 62.2734H143.695V101.445H129.602V2.44922H171.613ZM260.562 15.7461C243.867 15.7461 234.699 29.7461 234.699 51.9492C234.699 74.1523 243.867 88.1523 260.562 88.1523C277.395 88.1523 286.562 74.1523 286.562 51.9492C286.562 29.7461 277.395 15.7461 260.562 15.7461ZM10.9219 40.6641C16.9492 40.6641 21.8398 45.7148 21.8398 51.9492C21.8398 58.1797 16.9492 63.2344 10.9219 63.2344C4.89062 63.2344 0 58.1797 0 51.9492C0 45.7148 4.89062 40.6641 10.9219 40.6641ZM49.0273 40.6641C55.0586 40.6641 59.9453 45.7148 59.9453 51.9492C59.9453 58.1797 55.0586 63.2344 49.0273 63.2344C42.9961 63.2344 38.1055 58.1797 38.1055 51.9492C38.1055 45.7148 42.9961 40.6641 49.0273 40.6641ZM87.1328 40.6641C93.1641 40.6641 98.0547 45.7148 98.0547 51.9492C98.0547 58.1797 93.1641 63.2344 87.1328 63.2344C81.1016 63.2344 76.2148 58.1797 76.2148 51.9492C76.2148 45.7148 81.1016 40.6641 87.1328 40.6641ZM171.613 16.4531H143.695V48.2695H171.613C181.191 48.2695 187.895 43.1797 187.895 32.4336C187.895 22.1094 181.328 16.4531 171.613 16.4531ZM10.9219 2.20703C16.9492 2.20703 21.8398 7.25781 21.8398 13.4922C21.8398 19.7227 16.9492 24.7773 10.9219 24.7773C4.89062 24.7773 0 19.7227 0 13.4922C0 7.25781 4.89062 2.20703 10.9219 2.20703ZM49.0273 2.20703C55.0586 2.20703 59.9453 7.25781 59.9453 13.4922C59.9453 19.7227 55.0586 24.7773 49.0273 24.7773C42.9961 24.7773 38.1055 19.7227 38.1055 13.4922C38.1055 7.25781 42.9961 2.20703 49.0273 2.20703ZM87.1328 2.20703C93.1641 2.20703 98.0547 7.25781 98.0547 13.4922C98.0547 19.7227 93.1641 24.7773 87.1328 24.7773C81.1016 24.7773 76.2148 19.7227 76.2148 13.4922C76.2148 7.25781 81.1016 2.20703 87.1328 2.20703Z" fill="#232E4A"/>
</g>
<defs>
<clipPath id="clip0_1_9709">
<rect width="387" height="103" fill="white"/>
</clipPath>
</defs>
</svg>
