<svg width="256" height="129" viewBox="0 0 256 129" fill="none" xmlns="http://www.w3.org/2000/svg">
<g clip-path="url(#clip0_1_9712)">
<path d="M0.860413 0.538824V128.072H180.645L195.489 95.9935L210.57 128.309H255.544V0.53125L0.860413 0.538824Z" fill="#D9222A"/>
<path d="M232.71 95.9682L201.814 25.4379L201.826 25.4334H201.814V25.4258L201.81 25.4334H189.402L159.203 95.9954H172.511L195.501 40.6616L219.475 95.9954L232.71 95.9682Z" fill="white"/>
<path d="M71.2907 65.769C80.9884 62.1471 85.6267 54.1384 85.5146 45.9782C85.3419 33.5917 75.626 24.9453 61.8838 24.9453H32.1682V95.88H42.9898V35.3035H61.2673C67.3932 35.3035 73.9719 38.4906 74.0794 46.1282C74.1718 52.9311 69.0943 57.1801 60.4902 57.5467L60.3221 57.5543L53.7661 57.6103L75.5958 95.9952L88.3791 95.9679C88.3791 95.9679 77.877 77.4117 71.2907 65.769Z" fill="white"/>
<path d="M100.184 43.2618C100.184 57.3873 114.202 61.3727 125.101 64.4447C136.454 67.6545 140.409 71.2734 140.409 76.7584C140.409 85.9078 131.13 87.3362 125.39 87.3362C117.509 87.3362 111.007 85.1352 104.645 81.2074L99.2159 90.4067C107.243 95.3555 115.562 97.6626 125.39 97.6626C141.807 97.6626 152.714 89.157 152.714 75.992C152.714 61.2894 139.446 57.2206 128.291 54.0668C116.928 50.8555 112.485 48.141 112.485 42.6529C112.485 34.3427 122.657 33.5353 126.3 33.5353C132.031 33.5353 139.316 35.4546 143.63 37.6813L148.197 28.6895C142.38 25.6811 133.456 23.668 125.996 23.668C110.122 23.668 100.184 30.895 100.184 43.2618Z" fill="white"/>
</g>
<defs>
<clipPath id="clip0_1_9712">
<rect width="256" height="129" fill="white"/>
</clipPath>
</defs>
</svg>
