<svg width="256" height="267" viewBox="0 0 256 267" fill="none" xmlns="http://www.w3.org/2000/svg">
<g clip-path="url(#clip0_1_9764)">
<path d="M223.58 124.983L223.698 125.619C224.025 127.233 225.44 128.461 227.147 128.461C227.302 128.461 247.769 128.464 247.769 128.464C249.686 128.426 251.213 126.819 251.213 124.894C249.769 114.494 247.047 104.525 243.214 95.1304L254.087 86.2561C255.59 85.0286 255.994 82.6684 254.983 81.0118L243.364 61.9784C242.353 60.3218 240.07 59.6017 238.291 60.378L223.182 66.9732C217.341 59.4046 210.62 52.5516 203.168 46.5706L209.324 31.4721C210.057 29.6746 209.281 27.4102 207.6 26.4396L188.289 15.2897C186.608 14.3192 184.259 14.7796 183.069 16.3128L173.238 28.9793C164.476 25.4174 155.201 22.8611 145.551 21.4522L143.21 4.38304C142.946 2.46028 141.142 0.867188 139.201 0.867188H116.902C114.961 0.867188 113.157 2.46028 112.892 4.38304L110.559 21.3849C100.905 22.7598 91.6187 25.2784 82.8474 28.8062L72.9739 16.0872C71.7833 14.554 69.4341 14.0945 67.7536 15.0651L48.4421 26.2149C46.7616 27.1855 45.9853 29.4508 46.7183 31.2483L52.8568 46.3026C45.3849 52.256 38.6414 59.0814 32.7755 66.6251L17.5389 60.11C15.7543 59.3466 13.477 60.0842 12.4787 61.7482L1.00294 80.8672C0.00380391 82.5321 0.424639 84.8886 1.93762 86.1041L12.6362 94.7032C8.71057 104.224 5.91851 114.332 4.45894 124.869C4.45526 126.817 5.99034 128.426 7.90665 128.464H28.0662C30.4917 128.384 31.9375 126.926 32.0333 125.117C40.1571 79.5347 80.0719 44.9904 127.843 44.9904C175.685 44.9904 215.508 79.531 223.58 124.983Z" fill="#0A0B09"/>
<path d="M32.1161 158.304C31.8012 156.69 30.3932 155.504 28.6785 155.504C28.5229 155.504 28.4234 155.51 28.2144 155.512L28.2107 155.515H8.05854C6.1413 155.553 4.60254 157.109 4.60254 159.034L4.60346 159.046C12.9888 219.578 64.9228 266.185 127.762 266.185H127.759C190.598 266.185 242.532 219.578 250.917 159.045L250.916 159.046L250.92 159.025C250.92 157.1 249.392 155.553 247.475 155.515H227.306C227.157 155.495 227.009 155.469 226.854 155.469C224.968 155.469 223.441 156.951 223.343 158.812C223.332 158.846 223.297 158.863 223.291 158.894C215.219 204.346 175.53 238.843 127.759 238.843H127.762C79.9909 238.843 40.3016 204.346 32.2294 158.894L32.1161 158.304Z" fill="#0A0B09"/>
<path d="M171.939 142.085C171.939 117.935 152.288 98.3555 128.048 98.3555C103.806 98.3555 84.1577 117.935 84.1577 142.085C84.1577 166.237 103.806 185.814 128.048 185.814C152.288 185.814 171.939 166.237 171.939 142.085Z" fill="#3E64A0"/>
</g>
<defs>
<clipPath id="clip0_1_9764">
<rect width="256" height="267" fill="white"/>
</clipPath>
</defs>
</svg>
