<svg width="256" height="187" viewBox="0 0 256 187" fill="none" xmlns="http://www.w3.org/2000/svg">
<g clip-path="url(#clip0_1_9772)">
<path d="M0 121.184V159.452H49.749V168.382H58.679V159.452H67.608V168.382V177.311H76.538V168.382V159.452H85.467V168.382V177.311H94.396V186.241H103.326V177.311V168.382H112.255V177.311H121.184V168.382V159.452V121.184H0Z" fill="#5F2688"/>
<path d="M0 112.257H121.184V73.9883H0V112.257ZM144.292 92.6134C145.669 92.6134 146.735 92.1884 147.491 91.3404C148.247 90.4904 148.625 89.2764 148.625 87.6974C148.625 84.3414 147.281 82.6624 144.594 82.6624H139.304V92.6134H144.292ZM129.83 74.1334H146.71C150.54 74.1334 153.429 75.3574 155.377 77.8054C157.325 80.2544 158.3 83.5504 158.3 87.6974C158.3 90.2234 157.762 92.4654 156.687 94.4194C155.612 96.3744 154.15 97.8844 152.304 98.9504C152.673 99.3054 152.992 99.7204 153.261 100.194C153.529 100.668 153.832 101.359 154.168 102.267L157.896 112.277H148.021L144.594 103.096C144.325 102.385 143.998 101.883 143.611 101.586C143.226 101.29 142.68 101.141 141.974 101.141H139.304V112.277H129.83V74.1334ZM170.04 98.003L161.172 84.202H171.45L175.179 90.125L178.958 84.202H189.186L180.369 98.003L189.59 112.277H179.21L175.179 105.999L171.148 112.277H160.818L170.04 98.003ZM206.419 103.748C208.099 103.748 209.459 103.462 210.501 102.89C211.542 102.316 212.34 101.29 212.894 99.8101C213.448 98.3291 213.726 96.2061 213.726 93.4421C213.726 90.6391 213.474 88.4571 212.97 86.8971C212.466 85.3381 211.685 84.2411 210.627 83.6101C209.568 82.9781 208.166 82.6621 206.419 82.6621H202.59V103.748H206.419ZM193.117 74.1331H207.629C212.802 74.1331 216.724 75.6631 219.394 78.7241C222.065 81.7831 223.399 86.6891 223.399 93.4421C223.399 99.8791 222.065 104.627 219.394 107.686C216.724 110.747 212.802 112.277 207.629 112.277H193.117V74.1331ZM242.597 104.519C243.873 104.519 244.814 104.203 245.418 103.571C246.023 102.939 246.326 101.893 246.326 100.432C246.326 99.1676 246.015 98.2296 245.393 97.6186C244.772 97.0056 243.773 96.7006 242.395 96.7006H236.046V104.519H242.597ZM242.194 89.3556C244.511 89.3556 245.67 88.1306 245.67 85.6826C245.67 84.4186 245.376 83.4816 244.788 82.8696C244.201 82.2576 243.251 81.9516 241.942 81.9516H236.046V89.3556H242.194ZM226.926 74.1326H244.763C248.022 74.1326 250.516 75.0406 252.245 76.8576C253.976 78.6736 254.841 81.2806 254.841 84.6756C254.841 86.5716 254.538 88.2096 253.934 89.5916C253.329 90.9746 252.506 92.0606 251.465 92.8496C252.977 93.5606 254.11 94.5286 254.866 95.7516C255.621 96.9766 255.999 98.7136 255.999 100.965C255.999 104.558 255.059 107.342 253.178 109.316C251.297 111.29 248.626 112.278 245.166 112.278H226.926V74.1326Z" fill="#8D1F89"/>
<path d="M17.8588 0V8.93V17.859H8.92976V8.93H-0.000244141V17.859V26.788V65.057H121.184V26.788H71.4348V17.859H62.5058V26.788H53.5758V17.859V8.93H44.6468V17.859V26.788H35.7178V17.859V8.93H26.7888V0H17.8588Z" fill="#E6008D"/>
</g>
<defs>
<clipPath id="clip0_1_9772">
<rect width="256" height="187" fill="white"/>
</clipPath>
</defs>
</svg>
