<svg width="256" height="256" viewBox="0 0 256 256" fill="none" xmlns="http://www.w3.org/2000/svg">
<g clip-path="url(#clip0_1_9777)">
<g filter="url(#filter0_d_1_9777)">
<path d="M128 250C196.483 250 252 194.483 252 126C252 57.5167 196.483 2 128 2C59.5167 2 4 57.5167 4 126C4 194.483 59.5167 250 128 250Z" fill="url(#paint0_linear_1_9777)"/>
</g>
<path d="M128 240.701C191.347 240.701 242.7 189.348 242.7 126.001C242.7 62.6537 191.347 11.3008 128 11.3008C64.6529 11.3008 13.3 62.6537 13.3 126.001C13.3 189.348 64.6529 240.701 128 240.701Z" fill="url(#paint1_radial_1_9777)"/>
<path d="M128.194 39.2016C127.419 39.2016 126.741 38.6203 126.741 37.8453V17.5984C126.741 16.8234 127.419 16.2422 128.194 16.2422C128.969 16.2422 129.647 16.8234 129.647 17.5984V37.8453C129.55 38.6203 128.969 39.2016 128.194 39.2016Z" fill="#F3F3F3"/>
<path d="M128.194 39.2977C127.322 39.2977 126.644 38.6195 126.644 37.8445V17.5977C126.644 16.8227 127.322 16.1445 128.194 16.1445C129.066 16.1445 129.744 16.8227 129.744 17.5977V37.8445C129.744 38.6195 128.969 39.2977 128.194 39.2977ZM128.194 16.3383C127.516 16.3383 126.837 16.9195 126.837 17.5977V37.8445C126.837 38.5227 127.419 39.1039 128.194 39.1039C128.872 39.1039 129.55 38.5227 129.55 37.8445V17.5977C129.453 16.9195 128.872 16.3383 128.194 16.3383Z" fill="white"/>
<path d="M137.881 28.3496C137.106 28.2528 136.525 27.6715 136.525 26.8965L137.203 17.8871C137.3 17.1121 137.978 16.5309 138.753 16.6278C139.528 16.7246 140.109 17.3059 140.109 18.0809L139.431 27.0903C139.334 27.8653 138.656 28.4465 137.881 28.3496Z" fill="#F3F3F3"/>
<path d="M137.881 28.4483C137.009 28.3514 136.428 27.6733 136.428 26.8983L137.106 17.8889C137.203 17.1139 137.881 16.4358 138.753 16.5327C139.625 16.6296 140.206 17.3077 140.206 18.0827L139.528 27.0921C139.431 27.9639 138.753 28.5452 137.881 28.4483ZM138.753 16.7264C138.075 16.7264 137.397 17.2108 137.397 17.8889L136.719 26.8983C136.719 27.5764 137.203 28.1577 137.978 28.2546C138.656 28.2546 139.334 27.7702 139.334 27.0921L140.012 18.0827C140.012 17.4046 139.431 16.8233 138.753 16.7264Z" fill="white"/>
<path d="M145.147 40.9427C144.372 40.749 143.888 40.0708 143.984 39.2958L147.956 19.4365C148.15 18.6615 148.828 18.1771 149.603 18.3708C150.378 18.5646 150.863 19.2427 150.766 20.0177L146.794 39.8771C146.697 40.5552 145.922 41.0396 145.147 40.9427Z" fill="#F3F3F3"/>
<path d="M145.147 41.0415C144.275 40.8477 143.791 40.0727 143.887 39.2977L147.859 19.4383C148.053 18.6633 148.828 18.0821 149.7 18.2758C150.572 18.4696 151.056 19.2446 150.959 20.0196L146.987 39.879C146.794 40.654 146.019 41.1383 145.147 41.0415ZM149.7 18.4696C149.022 18.3727 148.344 18.7602 148.15 19.4383L144.178 39.2977C144.081 39.9758 144.469 40.654 145.244 40.8477C145.922 40.9446 146.6 40.5571 146.794 39.879L150.766 20.0196C150.862 19.2446 150.378 18.6633 149.7 18.4696Z" fill="white"/>
<path d="M156.772 32.2267C155.997 32.033 155.512 31.258 155.706 30.483L158.128 21.7642C158.322 20.9892 159.097 20.6017 159.872 20.7955C160.647 20.9892 161.131 21.7642 160.937 22.5392L158.516 31.258C158.322 32.033 157.547 32.4205 156.772 32.2267Z" fill="#F3F3F3"/>
<path d="M156.772 32.3201C155.997 32.1263 155.416 31.2544 155.706 30.4794L158.128 21.7607C158.322 20.9857 159.194 20.5013 159.969 20.6951C160.744 20.8888 161.325 21.7607 161.034 22.5357L158.613 31.2544C158.419 32.0294 157.644 32.5138 156.772 32.3201ZM159.969 20.9857C159.291 20.7919 158.516 21.1794 158.322 21.8576L155.9 30.5763C155.706 31.2544 156.094 31.9326 156.869 32.1263C157.547 32.3201 158.322 31.9326 158.516 31.2544L160.938 22.5357C161.034 21.8576 160.647 21.1794 159.969 20.9857Z" fill="white"/>
<path d="M161.519 45.8852C160.744 45.5946 160.453 44.7227 160.744 44.0446L168.494 25.3477C168.784 24.6696 169.656 24.2821 170.334 24.6696C171.109 24.9602 171.4 25.8321 171.109 26.5102L163.359 45.2071C163.069 45.8852 162.197 46.2727 161.519 45.8852Z" fill="#F3F3F3"/>
<path d="M161.519 45.9809C160.744 45.6902 160.356 44.8184 160.647 44.0434L168.397 25.3465C168.688 24.5715 169.559 24.2809 170.431 24.5715C171.206 24.8621 171.594 25.734 171.303 26.509L163.553 45.2059C163.166 45.9809 162.294 46.3684 161.519 45.9809ZM170.334 24.7652C169.656 24.4746 168.881 24.7652 168.591 25.4434L160.841 44.1402C160.55 44.8184 160.938 45.4965 161.616 45.7871C162.294 46.0777 163.069 45.7871 163.359 45.109L171.109 26.4121C171.303 25.8309 171.013 25.0559 170.334 24.7652Z" fill="white"/>
<path d="M174.597 39.6829C173.919 39.2954 173.628 38.5204 173.919 37.8423L177.987 29.8017C178.375 29.1236 179.15 28.8329 179.925 29.2204C180.603 29.6079 180.894 30.3829 180.603 31.0611L176.534 39.1017C176.147 39.7798 175.372 40.0704 174.597 39.6829Z" fill="#F3F3F3"/>
<path d="M174.597 39.7795C173.822 39.392 173.531 38.5201 173.919 37.7451L177.988 29.7045C178.375 28.9295 179.247 28.6389 180.022 29.0264C180.797 29.4139 181.088 30.2857 180.7 31.0607L176.631 39.1014C176.244 39.8764 175.372 40.167 174.597 39.7795ZM179.925 29.2201C179.247 28.9295 178.472 29.1232 178.181 29.8014L174.113 37.842C173.822 38.4232 174.113 39.1982 174.694 39.5857C175.372 39.8764 176.147 39.6826 176.438 39.0045L180.506 30.9639C180.797 30.3826 180.506 29.6076 179.925 29.2201Z" fill="white"/>
<path d="M176.534 54.022C175.856 53.5376 175.663 52.6657 176.147 52.0845L187.384 35.3251C187.772 34.647 188.644 34.5501 189.322 34.9376C190 35.422 190.194 36.2938 189.709 36.8751L178.472 53.6345C178.084 54.3126 177.212 54.5063 176.534 54.022Z" fill="#F3F3F3"/>
<path d="M176.534 54.1175C175.856 53.6331 175.663 52.6644 176.05 51.9863L187.288 35.2269C187.772 34.5488 188.644 34.355 189.419 34.8394C190.097 35.3238 190.291 36.2925 189.903 36.9706L178.666 53.73C178.181 54.4081 177.213 54.6019 176.534 54.1175ZM189.322 35.0331C188.741 34.6456 187.869 34.7425 187.481 35.3238L176.244 52.0831C175.856 52.6644 176.05 53.4394 176.631 53.8269C177.213 54.2144 178.084 54.1175 178.472 53.5363L189.709 36.8738C190.097 36.2925 189.903 35.4206 189.322 35.0331Z" fill="white"/>
<path d="M190.678 50.439C190.097 49.9547 189.903 49.0828 190.388 48.5015L196.006 41.4297C196.491 40.8484 197.363 40.7515 197.944 41.2359C198.525 41.7203 198.719 42.5922 198.234 43.1734L192.616 50.2453C192.131 50.8265 191.259 50.9234 190.678 50.439Z" fill="#F3F3F3"/>
<path d="M190.581 50.5324C189.903 50.0481 189.806 49.0793 190.291 48.4012L195.909 41.3293C196.394 40.6512 197.363 40.5543 198.041 41.1356C198.719 41.6199 198.816 42.5887 198.331 43.2668L192.713 50.3387C192.228 51.0168 191.259 51.1137 190.581 50.5324ZM197.847 41.3293C197.266 40.8449 196.491 40.9418 196.006 41.5231L190.388 48.5949C190 49.1762 190.097 49.9512 190.678 50.4356C191.259 50.9199 192.034 50.8231 192.519 50.2418L198.138 43.1699C198.525 42.5887 198.428 41.7168 197.847 41.3293Z" fill="white"/>
<path d="M189.709 64.9692C189.128 64.3879 189.128 63.5161 189.709 63.0317L204.047 48.7911C204.628 48.2098 205.5 48.3067 205.984 48.7911C206.469 49.2754 206.566 50.2442 205.984 50.7286L191.744 64.9692C191.162 65.5504 190.291 65.5504 189.709 64.9692Z" fill="#F3F3F3"/>
<path d="M189.613 65.0656C189.031 64.4844 189.031 63.5156 189.613 62.9344L203.95 48.6938C204.531 48.1125 205.5 48.1125 206.081 48.6938C206.663 49.275 206.663 50.2438 206.081 50.825L191.744 65.0656C191.163 65.6469 190.194 65.6469 189.613 65.0656ZM205.984 48.7906C205.5 48.3063 204.628 48.3063 204.144 48.7906L189.806 63.0313C189.322 63.5156 189.322 64.3875 189.806 64.8719C190.291 65.3563 191.163 65.3563 191.647 64.8719L205.984 50.6312C206.469 50.1469 206.469 49.3719 205.984 48.7906Z" fill="white"/>
<path d="M204.241 64.1929C203.756 63.6117 203.756 62.7398 204.337 62.2554L211.216 56.4429C211.797 55.9586 212.669 56.0554 213.153 56.6367C213.637 57.2179 213.637 58.0898 213.056 58.5742L206.178 64.3867C205.597 64.8711 204.725 64.7742 204.241 64.1929Z" fill="#F3F3F3"/>
<path d="M204.144 64.2903C203.562 63.6121 203.659 62.6434 204.241 62.159L211.119 56.3465C211.7 55.7653 212.669 55.8621 213.25 56.5403C213.831 57.2184 213.734 58.1871 213.153 58.6715L206.275 64.484C205.694 65.0653 204.725 64.9684 204.144 64.2903ZM213.056 56.6371C212.572 56.0559 211.797 56.0559 211.216 56.4434L204.337 62.2559C203.853 62.7403 203.756 63.5153 204.241 64.0965C204.725 64.6778 205.5 64.6778 206.081 64.2903L212.959 58.4778C213.541 57.9934 213.541 57.2184 213.056 56.6371Z" fill="white"/>
<path d="M200.366 78.1422C199.881 77.4641 200.075 76.5922 200.753 76.2047L217.609 64.9672C218.287 64.5797 219.159 64.7735 219.547 65.3547C220.031 66.0329 219.837 66.9047 219.159 67.2922L202.303 78.5297C201.722 78.9172 200.85 78.7235 200.366 78.1422Z" fill="#F3F3F3"/>
<path d="M200.269 78.1445C199.784 77.4664 199.978 76.4977 200.656 76.0133L217.513 64.7758C218.191 64.2914 219.159 64.4852 219.644 65.2602C220.128 65.9383 219.934 66.907 219.256 67.3914L202.4 78.6289C201.722 79.1133 200.753 78.9195 200.269 78.1445ZM219.45 65.4539C219.063 64.8727 218.288 64.6789 217.706 65.0664L200.85 76.3039C200.269 76.6914 200.075 77.4664 200.559 78.1445C200.947 78.7258 201.722 78.9195 202.303 78.532L219.159 67.2945C219.741 66.8102 219.838 66.0352 219.45 65.4539Z" fill="white"/>
<path d="M214.8 80.1767C214.413 79.4986 214.606 78.6267 215.284 78.2392L223.131 73.7829C223.809 73.3954 224.681 73.6861 225.069 74.3642C225.456 75.0423 225.263 75.9142 224.584 76.3017L216.738 80.7579C216.059 81.1454 215.188 80.8548 214.8 80.1767Z" fill="#F3F3F3"/>
<path d="M214.703 80.2736C214.316 79.4986 214.509 78.6267 215.187 78.2392L223.034 73.7829C223.712 73.3954 224.681 73.6861 225.069 74.3642C225.456 75.1392 225.262 76.0111 224.584 76.3986L216.737 80.8548C216.059 81.2423 215.091 80.9517 214.703 80.2736ZM224.972 74.4611C224.584 73.7829 223.809 73.5892 223.228 73.9767L215.381 78.4329C214.8 78.8204 214.606 79.5954 214.897 80.1767C215.284 80.8548 216.059 81.0486 216.641 80.6611L224.487 76.2048C225.069 75.9142 225.262 75.1392 224.972 74.4611Z" fill="white"/>
<path d="M208.309 93.0633C208.019 92.2883 208.309 91.5133 209.084 91.2226L227.781 83.4726C228.459 83.182 229.331 83.5695 229.622 84.2476C229.913 85.0226 229.622 85.7976 228.847 86.0883L210.15 93.8383C209.472 94.1289 208.6 93.8383 208.309 93.0633Z" fill="#F3F3F3"/>
<path d="M208.212 93.1582C207.922 92.3832 208.212 91.5113 208.987 91.1238L227.684 83.3738C228.459 83.0832 229.331 83.4707 229.622 84.2457C229.912 85.0207 229.622 85.8926 228.847 86.2801L210.15 94.0301C209.375 94.3207 208.503 93.9332 208.212 93.1582ZM229.428 84.3426C229.137 83.6645 228.362 83.3738 227.781 83.5676L209.084 91.3176C208.406 91.6082 208.116 92.3832 208.406 93.0613C208.697 93.7395 209.472 94.0301 210.053 93.8363L228.75 86.0863C229.428 85.7957 229.719 85.0207 229.428 84.3426Z" fill="white"/>
<path d="M221.969 97.9079C221.678 97.1329 222.066 96.3579 222.841 96.0673L231.366 93.2579C232.044 92.9673 232.916 93.4517 233.109 94.1298C233.4 94.9048 233.012 95.6798 232.237 95.9704L223.712 98.7798C223.034 99.0704 222.259 98.6829 221.969 97.9079Z" fill="#F3F3F3"/>
<path d="M221.872 98.004C221.581 97.229 221.969 96.3571 222.841 96.0665L231.366 93.2571C232.141 92.9665 233.013 93.4509 233.303 94.2259C233.594 95.0009 233.206 95.8727 232.334 96.1634L223.809 98.9728C223.034 99.1665 222.163 98.779 221.872 98.004ZM233.109 94.3228C232.916 93.6446 232.141 93.2571 231.463 93.4509L222.938 96.2603C222.259 96.454 221.969 97.229 222.163 97.9071C222.356 98.5853 223.131 98.9727 223.809 98.779L232.334 95.9696C233.013 95.679 233.303 95.0009 233.109 94.3228Z" fill="white"/>
<path d="M213.25 109.434C213.056 108.659 213.541 107.884 214.316 107.788L234.175 103.913C234.95 103.719 235.628 104.3 235.822 105.075C236.016 105.85 235.531 106.625 234.756 106.722L214.897 110.597C214.122 110.694 213.347 110.209 213.25 109.434Z" fill="#F3F3F3"/>
<path d="M213.056 109.433C212.862 108.561 213.444 107.786 214.219 107.592L234.078 103.717C234.853 103.523 235.628 104.105 235.822 104.976C236.016 105.848 235.434 106.623 234.659 106.817L214.8 110.692C214.025 110.886 213.25 110.305 213.056 109.433ZM235.628 105.073C235.531 104.395 234.853 103.911 234.175 104.008L214.316 107.883C213.637 107.98 213.153 108.755 213.347 109.433C213.444 110.111 214.122 110.595 214.8 110.498L234.659 106.623C235.337 106.43 235.822 105.751 235.628 105.073Z" fill="white"/>
<path d="M225.65 116.892C225.553 116.117 226.037 115.439 226.812 115.342L235.725 114.276C236.5 114.179 237.178 114.761 237.275 115.536C237.372 116.311 236.887 116.989 236.112 117.086L227.2 118.151C226.522 118.248 225.747 117.667 225.65 116.892Z" fill="#F3F3F3"/>
<path d="M225.553 116.894C225.456 116.022 226.038 115.247 226.813 115.15L235.725 114.085C236.5 113.988 237.275 114.569 237.372 115.441C237.469 116.313 236.888 117.088 236.113 117.185L227.2 118.25C226.425 118.347 225.65 117.766 225.553 116.894ZM237.275 115.538C237.178 114.86 236.5 114.278 235.822 114.375L226.909 115.441C226.231 115.538 225.747 116.216 225.844 116.894C225.941 117.572 226.619 118.153 227.297 118.057L236.209 116.991C236.888 116.894 237.372 116.216 237.275 115.538Z" fill="white"/>
<path d="M214.8 126.289C214.8 125.514 215.381 124.836 216.156 124.836H236.403C237.178 124.836 237.759 125.514 237.759 126.289C237.759 127.064 237.178 127.742 236.403 127.742H216.156C215.381 127.742 214.8 127.064 214.8 126.289Z" fill="#F3F3F3"/>
<path d="M214.703 126.292C214.703 125.42 215.381 124.742 216.156 124.742H236.403C237.178 124.742 237.856 125.42 237.856 126.292C237.856 127.164 237.178 127.842 236.403 127.842H216.156C215.381 127.842 214.703 127.164 214.703 126.292ZM237.663 126.389C237.663 125.711 237.081 125.033 236.403 125.033H216.156C215.478 125.033 214.897 125.614 214.897 126.389C214.897 127.067 215.478 127.745 216.156 127.745H236.403C237.081 127.648 237.663 127.067 237.663 126.389Z" fill="white"/>
<path d="M225.553 136.075C225.65 135.3 226.231 134.719 227.006 134.719L236.016 135.397C236.791 135.494 237.372 136.172 237.275 136.947C237.178 137.722 236.597 138.303 235.822 138.303L226.812 137.625C226.134 137.528 225.553 136.85 225.553 136.075Z" fill="#F3F3F3"/>
<path d="M225.456 136.074C225.553 135.202 226.231 134.621 227.006 134.621L236.016 135.299C236.791 135.396 237.469 136.074 237.372 136.946C237.275 137.818 236.597 138.399 235.822 138.399L226.812 137.721C226.037 137.624 225.456 136.849 225.456 136.074ZM237.275 136.946C237.372 136.268 236.791 135.59 236.112 135.59L227.103 134.912C226.425 134.912 225.844 135.396 225.747 136.171C225.65 136.849 226.231 137.527 226.909 137.527L235.919 138.205C236.597 138.205 237.178 137.624 237.275 136.946Z" fill="white"/>
<path d="M213.056 143.147C213.25 142.372 213.928 141.888 214.703 141.985L234.562 145.957C235.337 146.151 235.822 146.829 235.628 147.604C235.434 148.379 234.756 148.863 233.981 148.766L214.122 144.794C213.444 144.697 212.959 143.922 213.056 143.147Z" fill="#F3F3F3"/>
<path d="M212.959 143.147C213.153 142.275 213.928 141.79 214.703 141.887L234.562 145.859C235.337 146.053 235.919 146.828 235.725 147.7C235.531 148.572 234.756 149.056 233.981 148.959L214.122 144.987C213.347 144.793 212.862 144.018 212.959 143.147ZM235.531 147.7C235.628 147.022 235.241 146.343 234.562 146.15L214.703 142.178C214.025 142.081 213.347 142.468 213.153 143.243C213.056 143.922 213.444 144.6 214.122 144.793L233.981 148.765C234.756 148.862 235.337 148.378 235.531 147.7Z" fill="white"/>
<path d="M221.775 154.772C221.969 153.997 222.744 153.513 223.519 153.707L232.237 156.129C233.012 156.322 233.4 157.097 233.206 157.872C233.012 158.647 232.237 159.132 231.462 158.938L222.744 156.516C221.969 156.322 221.581 155.547 221.775 154.772Z" fill="#F3F3F3"/>
<path d="M221.678 154.771C221.872 153.996 222.744 153.414 223.519 153.705L232.237 156.127C233.012 156.321 233.497 157.193 233.303 157.968C233.109 158.743 232.237 159.324 231.462 159.033L222.744 156.611C221.969 156.418 221.484 155.643 221.678 154.771ZM233.012 157.968C233.206 157.289 232.819 156.514 232.141 156.321L223.422 153.899C222.744 153.705 222.066 154.093 221.872 154.868C221.678 155.546 222.066 156.321 222.744 156.514L231.462 158.936C232.141 159.033 232.819 158.646 233.012 157.968Z" fill="white"/>
<path d="M208.116 159.421C208.406 158.646 209.278 158.355 209.956 158.646L228.653 166.396C229.331 166.686 229.719 167.558 229.428 168.236C229.137 169.011 228.266 169.302 227.587 169.011L208.891 161.261C208.116 160.971 207.825 160.099 208.116 159.421Z" fill="#F3F3F3"/>
<path d="M208.019 159.324C208.309 158.549 209.181 158.161 209.956 158.452L228.653 166.202C229.428 166.493 229.719 167.364 229.428 168.236C229.138 169.011 228.266 169.399 227.491 169.108L208.794 161.358C208.019 160.971 207.728 160.099 208.019 159.324ZM229.234 168.139C229.525 167.461 229.234 166.686 228.556 166.396L209.859 158.646C209.181 158.355 208.503 158.743 208.212 159.421C207.922 160.099 208.212 160.874 208.891 161.164L227.587 168.914C228.266 169.108 229.041 168.818 229.234 168.139Z" fill="white"/>
<path d="M214.413 172.501C214.8 171.823 215.575 171.533 216.253 171.823L224.294 175.892C224.972 176.183 225.263 177.054 224.875 177.829C224.488 178.508 223.713 178.798 223.034 178.508L214.994 174.439C214.316 174.051 214.025 173.179 214.413 172.501Z" fill="#F3F3F3"/>
<path d="M214.316 172.404C214.703 171.629 215.575 171.338 216.35 171.726L224.391 175.794C225.166 176.182 225.456 177.054 225.069 177.829C224.681 178.604 223.809 178.894 223.034 178.507L214.994 174.438C214.219 174.147 213.928 173.179 214.316 172.404ZM224.778 177.732C225.069 177.054 224.875 176.279 224.197 175.988L216.156 171.919C215.575 171.629 214.8 171.919 214.412 172.501C214.122 173.179 214.316 173.954 214.994 174.244L223.034 178.313C223.712 178.604 224.487 178.41 224.778 177.732Z" fill="white"/>
<path d="M200.172 174.34C200.656 173.662 201.431 173.468 202.109 173.953L218.966 185.19C219.644 185.578 219.741 186.45 219.353 187.128C218.869 187.806 218.094 188 217.416 187.515L200.559 176.278C199.881 175.793 199.688 174.921 200.172 174.34Z" fill="#F3F3F3"/>
<path d="M200.075 174.244C200.559 173.566 201.528 173.372 202.206 173.76L219.063 184.997C219.741 185.482 219.934 186.354 219.45 187.129C218.966 187.807 217.997 188.001 217.319 187.613L200.462 176.376C199.687 175.891 199.591 174.922 200.075 174.244ZM219.159 187.032C219.547 186.451 219.45 185.579 218.869 185.191L202.012 173.954C201.431 173.566 200.656 173.76 200.269 174.341C199.881 174.922 199.978 175.794 200.559 176.182L217.416 187.419C217.997 187.807 218.772 187.613 219.159 187.032Z" fill="white"/>
<path d="M203.756 188.389C204.241 187.808 205.112 187.614 205.694 188.099L212.766 193.621C213.347 194.105 213.444 194.977 212.959 195.558C212.475 196.139 211.603 196.333 211.022 195.849L203.95 190.327C203.369 189.842 203.272 188.971 203.756 188.389Z" fill="#F3F3F3"/>
<path d="M203.659 188.289C204.144 187.611 205.112 187.514 205.791 187.998L212.862 193.52C213.541 194.004 213.637 194.973 213.153 195.651C212.669 196.329 211.7 196.426 211.022 195.942L203.95 190.42C203.272 189.936 203.175 188.967 203.659 188.289ZM212.959 195.554C213.444 194.973 213.347 194.198 212.766 193.714L205.694 188.192C205.112 187.804 204.337 187.901 203.853 188.482C203.369 189.064 203.466 189.839 204.047 190.323L211.119 195.845C211.7 196.232 212.475 196.136 212.959 195.554Z" fill="white"/>
<path d="M189.322 187.42C189.903 186.839 190.775 186.839 191.259 187.42L205.597 201.661C206.178 202.242 206.081 203.114 205.597 203.598C205.016 204.18 204.144 204.18 203.659 203.598L189.322 189.358C188.838 188.873 188.838 187.905 189.322 187.42Z" fill="#F3F3F3"/>
<path d="M189.322 187.323C189.903 186.741 190.872 186.741 191.453 187.323L205.791 201.563C206.372 202.145 206.372 203.113 205.791 203.695C205.209 204.276 204.241 204.276 203.659 203.695L189.322 189.454C188.644 188.873 188.644 187.904 189.322 187.323ZM205.597 203.501C206.081 203.016 206.081 202.145 205.597 201.66L191.259 187.42C190.775 186.935 189.903 186.935 189.419 187.42C188.934 187.904 188.934 188.776 189.419 189.26L203.756 203.501C204.241 204.082 205.016 204.082 205.597 203.501Z" fill="white"/>
<path d="M190.194 201.852C190.775 201.368 191.647 201.368 192.131 201.949L198.041 208.73C198.525 209.311 198.428 210.183 197.847 210.668C197.266 211.152 196.394 211.152 195.909 210.571L190 203.789C189.516 203.305 189.613 202.433 190.194 201.852Z" fill="#F3F3F3"/>
<path d="M190.097 201.851C190.775 201.27 191.647 201.367 192.228 201.948L198.138 208.73C198.719 209.311 198.622 210.28 197.944 210.861C197.266 211.442 196.394 211.345 195.813 210.764L189.903 203.983C189.419 203.305 189.419 202.336 190.097 201.851ZM197.847 210.667C198.428 210.183 198.428 209.408 198.041 208.826L192.131 202.045C191.647 201.561 190.872 201.464 190.291 201.948C189.709 202.433 189.709 203.208 190.097 203.789L196.006 210.57C196.491 211.151 197.266 211.151 197.847 210.667Z" fill="white"/>
<path d="M176.244 198.171C176.922 197.687 177.794 197.881 178.181 198.559L189.419 215.318C189.806 215.996 189.613 216.868 189.031 217.256C188.353 217.74 187.481 217.546 187.094 216.868L175.856 200.109C175.469 199.431 175.663 198.559 176.244 198.171Z" fill="#F3F3F3"/>
<path d="M176.244 198.074C176.922 197.589 177.891 197.783 178.375 198.461L189.613 215.221C190.097 215.899 189.903 216.868 189.128 217.352C188.45 217.836 187.481 217.643 186.997 216.964L175.759 200.205C175.275 199.43 175.469 198.558 176.244 198.074ZM189.031 217.158C189.613 216.771 189.806 215.996 189.419 215.414L178.181 198.655C177.794 198.074 177.019 197.977 176.341 198.364C175.759 198.752 175.566 199.527 175.953 200.108L187.191 216.868C187.578 217.352 188.45 217.546 189.031 217.158Z" fill="white"/>
<path d="M174.209 212.51C174.887 212.122 175.759 212.316 176.147 212.994L180.603 220.841C180.991 221.519 180.7 222.391 180.022 222.779C179.344 223.166 178.472 222.972 178.084 222.294L173.628 214.447C173.337 213.769 173.531 212.897 174.209 212.51Z" fill="#F3F3F3"/>
<path d="M174.209 212.412C174.984 212.025 175.856 212.219 176.244 212.897L180.7 220.744C181.088 221.422 180.894 222.39 180.119 222.778C179.344 223.165 178.472 222.972 178.084 222.294L173.628 214.447C173.241 213.769 173.434 212.897 174.209 212.412ZM180.022 222.681C180.603 222.294 180.894 221.519 180.506 220.937L176.05 213.09C175.663 212.509 174.888 212.315 174.306 212.606C173.725 212.994 173.434 213.769 173.822 214.35L178.278 222.197C178.569 222.778 179.441 223.069 180.022 222.681Z" fill="white"/>
<path d="M161.325 206.116C162.1 205.826 162.875 206.116 163.166 206.794L171.013 225.491C171.303 226.169 170.916 227.041 170.238 227.332C169.559 227.622 168.688 227.332 168.397 226.654L160.55 207.957C160.259 207.279 160.647 206.407 161.325 206.116Z" fill="#F3F3F3"/>
<path d="M161.325 206.017C162.1 205.726 162.972 206.017 163.359 206.792L171.206 225.489C171.497 226.264 171.109 227.136 170.334 227.426C169.559 227.717 168.687 227.426 168.3 226.651L160.453 207.954C160.162 207.276 160.55 206.404 161.325 206.017ZM170.141 227.232C170.819 226.942 171.109 226.167 170.819 225.586L162.972 206.889C162.681 206.211 161.906 205.92 161.228 206.211C160.55 206.501 160.259 207.276 160.55 207.857L168.397 226.554C168.784 227.232 169.462 227.523 170.141 227.232Z" fill="white"/>
<path d="M156.578 219.87C157.353 219.579 158.128 219.967 158.419 220.742L161.228 229.267C161.519 229.945 161.034 230.817 160.356 231.011C159.581 231.301 158.806 230.914 158.516 230.139L155.706 221.614C155.416 220.936 155.803 220.161 156.578 219.87Z" fill="#F3F3F3"/>
<path d="M156.481 219.776C157.256 219.486 158.128 219.873 158.419 220.648L161.228 229.173C161.519 229.948 161.034 230.82 160.259 231.111C159.484 231.401 158.613 231.014 158.322 230.239L155.513 221.714C155.319 220.939 155.706 220.067 156.481 219.776ZM160.259 230.917C160.938 230.723 161.325 229.948 161.131 229.27L158.322 220.745C158.128 220.067 157.353 219.776 156.675 219.97C155.997 220.164 155.609 220.939 155.803 221.617L158.613 230.142C158.806 230.82 159.581 231.207 160.259 230.917Z" fill="white"/>
<path d="M145.147 211.054C145.922 210.861 146.697 211.345 146.794 212.12L150.863 231.979C151.056 232.754 150.475 233.433 149.7 233.626C148.925 233.82 148.15 233.336 148.053 232.561L143.984 212.701C143.888 212.023 144.372 211.248 145.147 211.054Z" fill="#F3F3F3"/>
<path d="M145.147 210.959C146.019 210.766 146.794 211.347 146.987 212.122L151.056 231.981C151.25 232.756 150.669 233.628 149.894 233.725C149.022 233.919 148.247 233.338 148.053 232.563L143.984 212.703C143.791 211.928 144.275 211.153 145.147 210.959ZM149.7 233.531C150.378 233.434 150.862 232.756 150.766 231.981L146.697 212.122C146.6 211.444 145.825 210.959 145.147 211.153C144.469 211.25 143.984 211.928 144.081 212.703L148.15 232.563C148.344 233.241 149.022 233.628 149.7 233.531Z" fill="white"/>
<path d="M137.784 223.649C138.559 223.552 139.237 224.037 139.431 224.812L140.594 233.724C140.691 234.499 140.109 235.177 139.334 235.274C138.559 235.371 137.881 234.887 137.687 234.112L136.525 225.199C136.428 224.424 137.009 223.746 137.784 223.649Z" fill="#F3F3F3"/>
<path d="M137.784 223.554C138.656 223.457 139.431 224.038 139.528 224.813L140.691 233.725C140.788 234.5 140.206 235.275 139.334 235.372C138.463 235.469 137.688 234.888 137.591 234.113L136.428 225.2C136.331 224.425 136.913 223.65 137.784 223.554ZM139.238 235.179C139.916 235.082 140.497 234.404 140.4 233.725L139.238 224.813C139.141 224.135 138.463 223.65 137.784 223.747C137.106 223.844 136.525 224.522 136.622 225.2L137.784 234.113C137.881 234.791 138.559 235.275 139.238 235.179Z" fill="white"/>
<path d="M127.806 212.801C128.581 212.801 129.259 213.382 129.259 214.157V234.404C129.259 235.179 128.581 235.76 127.806 235.76C127.031 235.76 126.353 235.179 126.353 234.404V214.157C126.45 213.382 127.031 212.801 127.806 212.801Z" fill="#F3F3F3"/>
<path d="M127.806 212.703C128.678 212.703 129.356 213.381 129.356 214.156V234.403C129.356 235.178 128.678 235.856 127.806 235.856C126.934 235.856 126.256 235.178 126.256 234.403V214.156C126.256 213.381 127.031 212.703 127.806 212.703ZM127.806 235.663C128.484 235.663 129.162 235.081 129.162 234.403V214.156C129.162 213.478 128.581 212.897 127.806 212.897C127.128 212.897 126.45 213.478 126.45 214.156V234.403C126.547 235.081 127.128 235.663 127.806 235.663Z" fill="white"/>
<path d="M118.119 223.651C118.894 223.748 119.475 224.329 119.475 225.104L118.797 234.114C118.7 234.889 118.022 235.47 117.247 235.373C116.472 235.276 115.891 234.695 115.891 233.92L116.569 224.911C116.666 224.136 117.344 223.554 118.119 223.651Z" fill="#F3F3F3"/>
<path d="M118.119 223.553C118.991 223.65 119.572 224.328 119.572 225.103L118.894 234.113C118.797 234.888 118.119 235.566 117.247 235.469C116.375 235.372 115.794 234.694 115.794 233.919L116.472 224.91C116.569 224.038 117.247 223.457 118.119 223.553ZM117.247 235.275C117.925 235.275 118.603 234.791 118.603 234.113L119.281 225.103C119.281 224.425 118.797 223.844 118.022 223.747C117.344 223.747 116.666 224.232 116.666 224.91L115.988 233.919C115.988 234.597 116.569 235.178 117.247 235.275Z" fill="white"/>
<path d="M110.853 211.055C111.628 211.249 112.112 211.927 112.016 212.702L108.044 232.562C107.85 233.337 107.172 233.821 106.397 233.627C105.622 233.433 105.137 232.755 105.234 231.98L109.206 212.121C109.303 211.443 110.078 210.958 110.853 211.055Z" fill="#F3F3F3"/>
<path d="M110.853 210.958C111.725 211.151 112.209 211.926 112.112 212.701L108.141 232.561C107.947 233.336 107.172 233.917 106.3 233.723C105.428 233.529 104.944 232.754 105.041 231.979L109.012 212.12C109.206 211.345 109.981 210.861 110.853 210.958ZM106.3 233.529C106.978 233.626 107.656 233.239 107.85 232.561L111.822 212.701C111.919 212.023 111.531 211.345 110.756 211.151C110.078 211.054 109.4 211.442 109.206 212.12L105.234 231.979C105.137 232.754 105.622 233.336 106.3 233.529Z" fill="white"/>
<path d="M99.2281 219.776C100.003 219.97 100.487 220.745 100.294 221.52L97.8719 230.238C97.6781 231.013 96.9031 231.401 96.1281 231.207C95.3531 231.013 94.8687 230.238 95.0625 229.463L97.4844 220.745C97.6781 219.97 98.4531 219.582 99.2281 219.776Z" fill="#F3F3F3"/>
<path d="M99.2281 219.679C100.003 219.873 100.584 220.745 100.294 221.52L97.8719 230.239C97.6781 231.014 96.8062 231.498 96.0312 231.304C95.2562 231.111 94.675 230.239 94.9656 229.464L97.3875 220.745C97.5812 219.97 98.3562 219.486 99.2281 219.679ZM96.0312 231.014C96.7094 231.208 97.4844 230.82 97.6781 230.142L100.1 221.423C100.294 220.745 99.9062 220.067 99.1312 219.873C98.4531 219.679 97.6781 220.067 97.4844 220.745L95.0625 229.464C94.9656 230.142 95.3531 230.82 96.0312 231.014Z" fill="white"/>
<path d="M94.4812 206.115C95.2562 206.406 95.5469 207.277 95.2563 207.955L87.5063 226.652C87.2156 227.33 86.3438 227.718 85.6656 227.33C84.9875 226.943 84.6 226.168 84.8906 225.49L92.6406 206.793C92.9313 206.115 93.8031 205.727 94.4812 206.115Z" fill="#F3F3F3"/>
<path d="M94.4812 206.019C95.2562 206.31 95.6437 207.182 95.3531 207.957L87.6031 226.654C87.3125 227.429 86.4406 227.719 85.5687 227.429C84.7937 227.138 84.4062 226.266 84.6969 225.491L92.4469 206.794C92.8344 206.019 93.7062 205.632 94.4812 206.019ZM85.6656 227.235C86.3437 227.525 87.1187 227.235 87.4094 226.557L95.1594 207.86C95.45 207.182 95.0625 206.504 94.3844 206.213C93.7062 205.922 92.9312 206.213 92.6406 206.891L84.8906 225.588C84.6969 226.169 84.9875 226.944 85.6656 227.235Z" fill="white"/>
<path d="M81.4031 212.314C82.0812 212.702 82.3719 213.477 82.0812 214.155L78.0125 222.195C77.625 222.874 76.85 223.164 76.075 222.777C75.3969 222.389 75.1062 221.614 75.3969 220.936L79.4656 212.895C79.8531 212.217 80.6281 211.927 81.4031 212.314Z" fill="#F3F3F3"/>
<path d="M81.4031 212.218C82.1781 212.605 82.4687 213.477 82.0812 214.252L78.0125 222.293C77.625 223.068 76.7531 223.358 75.9781 222.971C75.2031 222.583 74.9125 221.712 75.3 220.937L79.3687 212.896C79.7562 212.121 80.6281 211.83 81.4031 212.218ZM76.075 222.777C76.7531 223.068 77.5281 222.874 77.8187 222.196L81.8875 214.155C82.1781 213.574 81.8875 212.799 81.3062 212.412C80.6281 212.121 79.8531 212.315 79.5625 212.993L75.4937 221.033C75.2031 221.615 75.4937 222.39 76.075 222.777Z" fill="white"/>
<path d="M79.4656 197.98C80.1437 198.464 80.3375 199.336 79.8531 199.918L68.6156 216.677C68.2281 217.355 67.3562 217.452 66.6781 217.064C66 216.58 65.8062 215.708 66.2906 215.127L77.5281 198.368C77.9156 197.689 78.7875 197.496 79.4656 197.98Z" fill="#F3F3F3"/>
<path d="M79.4656 197.882C80.1438 198.367 80.3375 199.335 79.95 200.014L68.7125 216.773C68.2281 217.451 67.3563 217.645 66.5813 217.16C65.9031 216.676 65.7094 215.707 66.0969 215.029L77.3344 198.27C77.8188 197.592 78.7875 197.398 79.4656 197.882ZM66.6781 216.967C67.2594 217.354 68.1313 217.257 68.5188 216.676L79.7563 199.917C80.1438 199.335 79.95 198.56 79.3688 198.173C78.7875 197.785 77.9156 197.882 77.5281 198.464L66.2906 215.126C65.9031 215.707 66.0969 216.579 66.6781 216.967Z" fill="white"/>
<path d="M65.3219 201.564C65.9031 202.048 66.0969 202.92 65.6125 203.502L59.9937 210.573C59.5094 211.155 58.6375 211.252 58.0562 210.767C57.475 210.283 57.2812 209.411 57.7656 208.83L63.3844 201.758C63.8687 201.177 64.7406 201.08 65.3219 201.564Z" fill="#F3F3F3"/>
<path d="M65.4187 201.464C66.0969 201.948 66.1937 202.917 65.7094 203.595L60.0906 210.667C59.6062 211.345 58.6375 211.442 57.9594 210.861C57.2812 210.376 57.1844 209.407 57.6687 208.729L63.2875 201.657C63.7719 200.979 64.7406 200.882 65.4187 201.464ZM58.1531 210.667C58.7344 211.151 59.5094 211.054 59.9937 210.473L65.6125 203.401C66 202.82 65.9031 202.045 65.3219 201.561C64.7406 201.076 63.9656 201.173 63.4812 201.754L57.8625 208.826C57.475 209.407 57.5719 210.279 58.1531 210.667Z" fill="white"/>
<path d="M66.2906 187.03C66.8719 187.611 66.8719 188.483 66.2906 188.967L51.9531 203.208C51.3719 203.789 50.5 203.692 50.0156 203.208C49.5312 202.723 49.4344 201.755 50.0156 201.27L64.2562 187.03C64.8375 186.448 65.7094 186.448 66.2906 187.03Z" fill="#F3F3F3"/>
<path d="M66.3875 186.936C66.9688 187.517 66.9688 188.486 66.3875 189.067L52.05 203.308C51.4688 203.889 50.5 203.889 49.9188 203.308C49.3375 202.727 49.3375 201.758 49.9188 201.177L64.2563 186.936C64.8375 186.355 65.8063 186.355 66.3875 186.936ZM50.0156 203.211C50.5 203.695 51.3719 203.695 51.8563 203.211L66.1938 188.97C66.6781 188.486 66.6781 187.614 66.1938 187.13C65.7094 186.645 64.8375 186.645 64.3531 187.13L50.0156 201.37C49.5313 201.855 49.5313 202.63 50.0156 203.211Z" fill="white"/>
<path d="M51.7594 187.805C52.2437 188.386 52.2437 189.258 51.6625 189.742L44.7844 195.555C44.2031 196.039 43.3312 195.942 42.8469 195.361C42.3625 194.78 42.3625 193.908 42.9437 193.423L49.8219 187.611C50.4031 187.127 51.275 187.223 51.7594 187.805Z" fill="#F3F3F3"/>
<path d="M51.8562 187.708C52.4375 188.386 52.3406 189.355 51.7594 189.839L44.8812 195.652C44.3 196.233 43.3312 196.136 42.75 195.458C42.1687 194.78 42.2656 193.811 42.8469 193.327L49.725 187.514C50.3062 186.933 51.275 187.03 51.8562 187.708ZM42.9437 195.361C43.4281 195.943 44.2031 195.943 44.7844 195.555L51.6625 189.743C52.1469 189.258 52.2437 188.483 51.7594 187.902C51.275 187.321 50.5 187.321 49.9187 187.708L43.0406 193.521C42.4594 194.005 42.4594 194.78 42.9437 195.361Z" fill="white"/>
<path d="M55.6344 173.855C56.1187 174.533 55.925 175.405 55.2469 175.792L38.3906 187.03C37.7125 187.417 36.8406 187.223 36.4531 186.642C35.9687 185.964 36.1625 185.092 36.8406 184.705L53.6969 173.467C54.2781 173.08 55.15 173.273 55.6344 173.855Z" fill="#F3F3F3"/>
<path d="M55.7313 173.858C56.2156 174.536 56.0219 175.505 55.3438 175.989L38.4875 187.227C37.8094 187.711 36.8406 187.517 36.3563 186.742C35.8719 186.064 36.0656 185.095 36.7438 184.611L53.6 173.373C54.2781 172.889 55.2469 173.083 55.7313 173.858ZM36.55 186.548C36.9375 187.13 37.7125 187.323 38.2938 186.936L55.15 175.698C55.7313 175.311 55.925 174.536 55.4406 173.858C55.0531 173.277 54.2781 173.083 53.6969 173.47L36.8406 184.708C36.2594 185.192 36.1625 185.967 36.55 186.548Z" fill="white"/>
<path d="M41.2 171.821C41.5875 172.499 41.3937 173.371 40.7156 173.759L32.8687 178.215C32.1906 178.602 31.3187 178.312 30.9312 177.634C30.5437 176.956 30.7375 176.084 31.4156 175.696L39.2625 171.24C39.9406 170.852 40.8125 171.143 41.2 171.821Z" fill="#F3F3F3"/>
<path d="M41.2969 171.724C41.6844 172.499 41.4906 173.37 40.8125 173.758L32.9656 178.214C32.2875 178.602 31.3187 178.311 30.9312 177.633C30.5437 176.858 30.7375 175.986 31.4156 175.599L39.2625 171.142C39.9406 170.755 40.9094 171.045 41.2969 171.724ZM31.0281 177.536C31.4156 178.214 32.1906 178.408 32.7719 178.02L40.6187 173.564C41.2 173.177 41.3937 172.402 41.1031 171.82C40.7156 171.142 39.9406 170.949 39.3594 171.336L31.5125 175.792C30.9312 176.083 30.7375 176.858 31.0281 177.536Z" fill="white"/>
<path d="M47.6906 158.936C47.9812 159.711 47.6906 160.486 46.9156 160.777L28.2188 168.527C27.5406 168.818 26.6688 168.43 26.3781 167.752C26.0875 166.977 26.3781 166.202 27.1531 165.911L45.85 158.161C46.5281 157.871 47.4 158.161 47.6906 158.936Z" fill="#F3F3F3"/>
<path d="M47.7875 158.839C48.0781 159.614 47.7875 160.486 47.0125 160.874L28.3156 168.624C27.5406 168.914 26.6688 168.527 26.3781 167.752C26.0875 166.977 26.3781 166.105 27.1531 165.718L45.85 157.968C46.625 157.677 47.4969 158.064 47.7875 158.839ZM26.5719 167.655C26.8625 168.333 27.6375 168.624 28.2188 168.43L46.9156 160.68C47.5938 160.389 47.8844 159.614 47.5938 158.936C47.3031 158.258 46.5281 157.968 45.9469 158.161L27.25 165.911C26.5719 166.202 26.2813 166.977 26.5719 167.655Z" fill="white"/>
<path d="M34.0312 154.093C34.3219 154.868 33.9344 155.643 33.1594 155.934L24.6344 158.743C23.9562 159.034 23.0844 158.55 22.8906 157.871C22.6 157.096 22.9875 156.321 23.7625 156.031L32.2875 153.221C32.9656 152.931 33.7406 153.318 34.0312 154.093Z" fill="#F3F3F3"/>
<path d="M34.1281 153.999C34.4187 154.774 34.0312 155.645 33.1594 155.936L24.6344 158.745C23.8594 159.036 22.9875 158.552 22.6969 157.777C22.4062 157.002 22.7937 156.13 23.6656 155.839L32.1906 153.03C32.9656 152.836 33.8375 153.224 34.1281 153.999ZM22.8906 157.68C23.0844 158.358 23.8594 158.745 24.5375 158.552L33.0625 155.742C33.7406 155.549 34.0312 154.774 33.8375 154.095C33.6437 153.417 32.8687 153.03 32.1906 153.224L23.6656 156.033C22.9875 156.324 22.6969 157.002 22.8906 157.68Z" fill="white"/>
<path d="M42.75 142.565C42.9438 143.34 42.4594 144.115 41.6844 144.212L21.825 148.087C21.05 148.281 20.3719 147.7 20.1781 146.925C19.9844 146.15 20.4688 145.375 21.2438 145.278L41.1031 141.403C41.8781 141.306 42.6531 141.79 42.75 142.565Z" fill="#F3F3F3"/>
<path d="M42.9437 142.566C43.1375 143.438 42.5562 144.213 41.7812 144.407L21.9219 148.282C21.1469 148.476 20.3719 147.894 20.1781 147.023C19.9844 146.151 20.5656 145.376 21.3406 145.182L41.2 141.307C41.975 141.113 42.75 141.694 42.9437 142.566ZM20.3719 146.926C20.4687 147.604 21.1469 148.088 21.825 147.991L41.6844 144.116C42.3625 144.019 42.8469 143.244 42.6531 142.566C42.5562 141.888 41.8781 141.404 41.2 141.501L21.3406 145.376C20.6625 145.569 20.1781 146.247 20.3719 146.926Z" fill="white"/>
<path d="M30.35 135.106C30.4469 135.881 29.9625 136.559 29.1875 136.656L20.275 137.722C19.5 137.818 18.8219 137.237 18.725 136.462C18.6281 135.687 19.1125 135.009 19.8875 134.912L28.8 133.847C29.4781 133.75 30.2531 134.331 30.35 135.106Z" fill="#F3F3F3"/>
<path d="M30.4469 135.105C30.5437 135.977 29.9625 136.752 29.1875 136.849L20.275 137.914C19.5 138.011 18.725 137.43 18.6281 136.558C18.5312 135.686 19.1125 134.911 19.8875 134.814L28.8 133.749C29.575 133.652 30.35 134.233 30.4469 135.105ZM18.725 136.461C18.8219 137.139 19.5 137.721 20.1781 137.624L29.0906 136.558C29.7687 136.461 30.2531 135.783 30.1562 135.105C30.0594 134.427 29.3812 133.846 28.7031 133.943L19.7906 135.008C19.1125 135.105 18.6281 135.783 18.725 136.461Z" fill="white"/>
<path d="M41.2 125.711C41.2 126.486 40.6188 127.164 39.8438 127.164H19.5969C18.8219 127.164 18.2406 126.486 18.2406 125.711C18.2406 124.936 18.8219 124.258 19.5969 124.258H39.8438C40.6188 124.258 41.2 124.936 41.2 125.711Z" fill="#F3F3F3"/>
<path d="M41.2969 125.71C41.2969 126.582 40.6187 127.26 39.8437 127.26H19.5969C18.8219 127.26 18.1437 126.582 18.1437 125.71C18.1437 124.838 18.8219 124.16 19.5969 124.16H39.8437C40.6187 124.16 41.2969 124.838 41.2969 125.71ZM18.3375 125.613C18.3375 126.291 18.9187 126.97 19.5969 126.97H39.8437C40.5219 126.97 41.1031 126.388 41.1031 125.613C41.1031 124.935 40.5219 124.257 39.8437 124.257H19.5969C18.9187 124.354 18.3375 124.935 18.3375 125.613Z" fill="white"/>
<path d="M30.4469 115.923C30.35 116.698 29.7687 117.28 28.9937 117.28L19.9844 116.602C19.2094 116.505 18.6281 115.827 18.725 115.052C18.8219 114.277 19.4031 113.695 20.1781 113.695L29.1875 114.373C29.8656 114.47 30.4469 115.148 30.4469 115.923Z" fill="#E2E2E2"/>
<path d="M30.5437 115.927C30.4469 116.798 29.7687 117.38 28.9937 117.38L19.9844 116.702C19.2094 116.605 18.5312 115.927 18.6281 115.055C18.725 114.183 19.4031 113.602 20.1781 113.602L29.1875 114.28C29.9625 114.377 30.5437 115.152 30.5437 115.927ZM18.725 115.055C18.6281 115.733 19.2094 116.411 19.8875 116.411L28.8969 117.089C29.575 117.089 30.1562 116.605 30.2531 115.83C30.35 115.152 29.7687 114.473 29.0906 114.473L20.0812 113.795C19.4031 113.795 18.8219 114.377 18.725 115.055Z" fill="white"/>
<path d="M42.9437 108.853C42.75 109.628 42.0719 110.112 41.2969 110.015L21.4375 105.947C20.6625 105.753 20.1781 105.075 20.3719 104.3C20.5656 103.525 21.2437 103.04 22.0187 103.137L41.8781 107.109C42.5562 107.303 43.0406 108.078 42.9437 108.853Z" fill="#F3F3F3"/>
<path d="M43.0406 108.852C42.8469 109.724 42.0719 110.208 41.2969 110.111L21.4375 106.14C20.6625 105.946 20.0813 105.171 20.275 104.299C20.4688 103.427 21.2438 102.943 22.0188 103.04L41.8781 107.011C42.6531 107.205 43.1375 107.98 43.0406 108.852ZM20.4688 104.299C20.3719 104.977 20.7594 105.655 21.4375 105.849L41.2969 109.821C41.975 109.918 42.6531 109.53 42.8469 108.755C42.9438 108.077 42.5563 107.399 41.8781 107.205L22.0188 103.233C21.2438 103.136 20.6625 103.621 20.4688 104.299Z" fill="white"/>
<path d="M34.225 97.2279C34.0313 98.0029 33.2563 98.4873 32.4813 98.2935L23.7625 95.8716C22.9875 95.6779 22.6 94.9029 22.7938 94.1279C22.9875 93.3529 23.7625 92.8685 24.5375 93.0623L33.2563 95.4841C34.0313 95.6779 34.4188 96.4529 34.225 97.2279Z" fill="#F3F3F3"/>
<path d="M34.3219 97.2293C34.1281 98.0043 33.2562 98.5855 32.4812 98.2949L23.7625 95.873C22.9875 95.6793 22.5031 94.8074 22.6969 94.0324C22.8906 93.2574 23.7625 92.6761 24.5375 92.9668L33.2562 95.3886C34.0312 95.5824 34.5156 96.3574 34.3219 97.2293ZM22.9875 94.0324C22.7937 94.7105 23.1812 95.4855 23.8594 95.6793L32.5781 98.1011C33.2562 98.2949 33.9344 97.9074 34.1281 97.1324C34.3219 96.4543 33.9344 95.6793 33.2562 95.4855L24.5375 93.0637C23.8594 92.9668 23.1812 93.3543 22.9875 94.0324Z" fill="white"/>
<path d="M47.8844 92.5762C47.5937 93.3512 46.7219 93.6418 46.0437 93.3512L27.3469 85.6012C26.6687 85.3105 26.2812 84.4387 26.5719 83.7605C26.8625 82.9855 27.7344 82.6949 28.4125 82.9855L47.1094 90.7355C47.8844 91.0262 48.175 91.898 47.8844 92.5762Z" fill="#F3F3F3"/>
<path d="M47.9813 92.6738C47.6906 93.4488 46.8188 93.8363 46.0438 93.5457L27.3469 85.7957C26.5719 85.5051 26.2813 84.6332 26.5719 83.7613C26.8625 82.9863 27.7344 82.5988 28.5094 82.8895L47.2063 90.6395C47.9813 91.027 48.2719 91.8988 47.9813 92.6738ZM26.7656 83.8582C26.475 84.5363 26.7656 85.3113 27.4438 85.602L46.1406 93.352C46.8188 93.6426 47.4969 93.2551 47.7875 92.577C48.0781 91.8988 47.7875 91.1238 47.1094 90.8332L28.4125 83.0832C27.7344 82.8895 26.9594 83.1801 26.7656 83.8582Z" fill="white"/>
<path d="M41.5875 79.5013C41.2 80.1794 40.425 80.47 39.7469 80.1794L31.7063 76.1107C31.0281 75.82 30.7375 74.9482 31.125 74.1732C31.5125 73.495 32.2875 73.2044 32.9656 73.495L41.0063 77.5638C41.6844 77.9513 41.975 78.8232 41.5875 79.5013Z" fill="#F3F3F3"/>
<path d="M41.6844 79.5982C41.2969 80.3732 40.425 80.6639 39.65 80.2764L31.6094 76.2076C30.8344 75.8201 30.5437 74.9482 30.9312 74.1732C31.3187 73.3982 32.1906 73.1076 32.9656 73.4951L41.0062 77.5639C41.7812 77.8545 42.0719 78.8232 41.6844 79.5982ZM31.2219 74.2701C30.9312 74.9482 31.125 75.7232 31.8031 76.0139L39.8437 80.0826C40.425 80.3732 41.2 80.0826 41.5875 79.5014C41.8781 78.8232 41.6844 78.0482 41.0062 77.7576L32.8687 73.6889C32.2875 73.3982 31.5125 73.592 31.2219 74.2701Z" fill="white"/>
<path d="M55.8281 77.6597C55.3437 78.3378 54.5687 78.5316 53.8906 78.0472L37.1312 66.9066C36.4531 66.5191 36.3562 65.6472 36.7437 64.9691C37.1312 64.2909 38.0031 64.0972 38.6812 64.5816L55.5375 75.8191C56.1187 76.2066 56.3125 77.0784 55.8281 77.6597Z" fill="#F3F3F3"/>
<path d="M55.925 77.7577C55.4406 78.4358 54.4719 78.6295 53.7938 78.242L37.0344 67.0045C36.3562 66.5202 36.1625 65.6483 36.6469 64.8733C37.1312 64.1952 38.1 64.0014 38.7781 64.3889L55.5375 75.6264C56.3125 76.1108 56.4094 77.0795 55.925 77.7577ZM36.8406 64.9702C36.4531 65.5514 36.55 66.4233 37.1312 66.8108L53.9875 78.0483C54.5687 78.4358 55.3438 78.242 55.7313 77.6608C56.1188 77.0795 56.0219 76.2077 55.4406 75.8202L38.5844 64.5827C38.0031 64.1952 37.2281 64.3889 36.8406 64.9702Z" fill="white"/>
<path d="M52.2437 63.6128C51.7594 64.1941 50.8875 64.3878 50.3062 63.9034L43.2344 58.3816C42.6531 57.8972 42.5562 57.0253 43.0406 56.4441C43.525 55.8628 44.3969 55.6691 44.9781 56.1534L52.05 61.6753C52.6312 62.1597 52.7281 63.0316 52.2437 63.6128Z" fill="#F3F3F3"/>
<path d="M52.3406 63.7098C51.8562 64.3879 50.8875 64.4848 50.2094 64.0004L43.1375 58.4785C42.4594 57.9941 42.3625 57.0254 42.8469 56.3473C43.3312 55.6691 44.3 55.5723 44.9781 56.0566L52.05 61.5785C52.7281 62.0629 52.825 63.0316 52.3406 63.7098ZM43.0406 56.4441C42.5562 57.0254 42.6531 57.8004 43.2344 58.2848L50.3062 63.8066C50.8875 64.1941 51.6625 64.0973 52.1469 63.516C52.6312 62.9348 52.5344 62.1598 51.9531 61.6754L44.8812 56.1535C44.3 55.766 43.525 55.8629 43.0406 56.4441Z" fill="white"/>
<path d="M66.6781 64.5828C66.0969 65.1641 65.225 65.1641 64.7406 64.5828L50.3063 50.3422C49.725 49.7609 49.8219 48.8891 50.3063 48.4047C50.8875 47.8234 51.7594 47.8234 52.2438 48.4047L66.5813 62.6453C67.1625 63.1297 67.1625 64.0984 66.6781 64.5828Z" fill="#F3F3F3"/>
<path d="M66.6781 64.6789C66.0969 65.2602 65.1281 65.2602 64.5469 64.6789L50.2094 50.4383C49.6281 49.857 49.6281 48.8883 50.2094 48.307C50.7906 47.7258 51.7594 47.7258 52.3406 48.307L66.6781 62.5477C67.3563 63.1289 67.3563 64.0977 66.6781 64.6789ZM50.4031 48.5008C49.9188 48.9852 49.9188 49.857 50.4031 50.3414L64.7406 64.582C65.225 65.0664 66.0969 65.0664 66.5813 64.582C67.0656 64.0977 67.0656 63.2258 66.5813 62.7414L52.2438 48.4039C51.7594 47.9195 50.9844 47.9195 50.4031 48.5008Z" fill="white"/>
<path d="M65.8062 50.1481C65.225 50.6325 64.3531 50.6325 63.8687 50.0512L57.9594 43.27C57.475 42.6887 57.5719 41.8168 58.1531 41.3325C58.7344 40.8481 59.6062 40.8481 60.0906 41.4293L66 48.2106C66.4844 48.695 66.3875 49.5668 65.8062 50.1481Z" fill="#F3F3F3"/>
<path d="M65.9031 50.146C65.225 50.7272 64.3531 50.6304 63.7719 50.0491L57.8625 43.2679C57.2812 42.6866 57.3781 41.7179 58.0562 41.1366C58.7344 40.5554 59.6062 40.6522 60.1875 41.2335L66.0969 48.0147C66.5812 48.6929 66.5812 49.6616 65.9031 50.146ZM58.1531 41.3304C57.5719 41.8147 57.5719 42.5897 57.9594 43.171L63.8687 49.9522C64.3531 50.4366 65.1281 50.5335 65.7094 50.0491C66.2906 49.5647 66.2906 48.7897 65.9031 48.2085L59.9937 41.4272C59.5094 40.846 58.7344 40.846 58.1531 41.3304Z" fill="white"/>
<path d="M79.7562 53.83C79.0781 54.3144 78.2062 54.1206 77.8187 53.4425L66.4844 36.6831C66.0969 36.005 66.2906 35.1331 66.8719 34.7456C67.55 34.2613 68.4219 34.455 68.8094 35.1331L80.0469 51.8925C80.5313 52.5706 80.3375 53.4425 79.7562 53.83Z" fill="#F3F3F3"/>
<path d="M79.7562 53.9261C79.0781 54.4105 78.1094 54.2167 77.625 53.5386L66.3875 36.7792C65.9031 36.1011 66.0969 35.1323 66.8719 34.648C67.55 34.1636 68.5187 34.3573 69.0031 35.0355L80.2406 51.7948C80.725 52.5698 80.5312 53.4417 79.7562 53.9261ZM66.9687 34.8417C66.3875 35.2292 66.1937 36.0042 66.5812 36.5855L77.8187 53.3448C78.2062 53.9261 78.9812 54.023 79.6594 53.6355C80.2406 53.248 80.4344 52.473 80.0469 51.8917L68.8094 35.2292C68.4219 34.648 67.55 34.4542 66.9687 34.8417Z" fill="white"/>
<path d="M81.7906 39.4897C81.1125 39.8772 80.2406 39.6834 79.8531 39.0053L75.3969 31.1584C75.0094 30.4803 75.3 29.6084 75.9781 29.2209C76.6562 28.8334 77.5281 29.0272 77.9156 29.7053L82.3719 37.5522C82.6625 38.2303 82.4687 39.1022 81.7906 39.4897Z" fill="#F3F3F3"/>
<path d="M81.7906 39.5866C81.0156 39.9741 80.1437 39.7803 79.7562 39.1022L75.3 31.2553C74.9125 30.5772 75.1062 29.6084 75.8812 29.2209C76.6562 28.8334 77.5281 29.0272 77.9156 29.7053L82.3719 37.5522C82.7594 38.2303 82.5656 39.1022 81.7906 39.5866ZM75.9781 29.3178C75.3969 29.7053 75.1062 30.4803 75.4937 31.0616L79.95 38.9084C80.3375 39.4897 81.1125 39.6834 81.6937 39.3928C82.275 39.0053 82.5656 38.2303 82.1781 37.6491L77.7219 29.8022C77.4312 29.2209 76.5594 28.9303 75.9781 29.3178Z" fill="white"/>
<path d="M94.675 45.8825C93.9 46.1732 93.125 45.8825 92.8344 45.2044L84.9875 26.5075C84.6969 25.8294 85.0844 24.9575 85.7625 24.6669C86.5375 24.3763 87.3125 24.6669 87.6031 25.345L95.45 44.0419C95.7406 44.72 95.3531 45.5919 94.675 45.8825Z" fill="#F3F3F3"/>
<path d="M94.675 45.9809C93.9 46.2715 93.0281 45.9809 92.6406 45.2059L84.7938 26.509C84.5031 25.734 84.8906 24.8621 85.6656 24.5715C86.4406 24.2809 87.3125 24.5715 87.7 25.3465L95.5469 44.0434C95.8375 44.7215 95.45 45.5934 94.675 45.9809ZM85.8594 24.7652C85.1813 25.0559 84.8906 25.8309 85.1813 26.4121L93.0281 45.109C93.3188 45.7871 94.0938 46.0777 94.7719 45.7871C95.45 45.4965 95.7406 44.7215 95.45 44.1402L87.6031 25.4434C87.2156 24.7652 86.5375 24.4746 85.8594 24.7652Z" fill="white"/>
<path d="M99.4219 32.1284C98.6469 32.4191 97.8719 32.0316 97.5812 31.2566L94.7719 22.7316C94.4812 22.0534 94.9656 21.1816 95.6437 20.9878C96.3219 20.7941 97.1937 21.0847 97.4844 21.8597L100.294 30.3847C100.584 31.0628 100.197 31.8378 99.4219 32.1284Z" fill="#F3F3F3"/>
<path d="M99.5187 32.2238C98.7437 32.5145 97.8719 32.127 97.5812 31.352L94.7719 22.827C94.4812 22.052 94.9656 21.1801 95.7406 20.8895C96.5156 20.5988 97.3875 20.9863 97.6781 21.7613L100.487 30.2863C100.681 31.0613 100.294 31.9332 99.5187 32.2238ZM95.7406 21.0832C95.0625 21.277 94.675 22.052 94.8687 22.7301L97.6781 31.2551C97.8719 31.9332 98.6469 32.2238 99.325 32.0301C100.003 31.8363 100.391 31.0613 100.197 30.3832L97.3875 21.8582C97.1937 21.1801 96.4187 20.7926 95.7406 21.0832Z" fill="white"/>
<path d="M110.853 40.9427C110.078 41.1365 109.303 40.6521 109.206 39.8771L105.137 20.0177C104.944 19.2427 105.525 18.5646 106.3 18.3708C107.075 18.1771 107.85 18.6615 107.947 19.4365L112.016 39.2958C112.112 39.974 111.628 40.749 110.853 40.9427Z" fill="#F3F3F3"/>
<path d="M110.853 41.0415C109.981 41.2352 109.206 40.654 109.012 39.879L104.944 20.0196C104.75 19.2446 105.331 18.3727 106.106 18.2758C106.978 18.0821 107.753 18.6633 107.947 19.4383L112.016 39.2977C112.209 40.0727 111.725 40.8477 110.853 41.0415ZM106.3 18.4696C105.622 18.5665 105.137 19.2446 105.234 20.0196L109.303 39.879C109.4 40.5571 110.175 41.0415 110.853 40.8477C111.531 40.7508 112.016 40.0727 111.919 39.2977L107.85 19.4383C107.656 18.7602 106.978 18.3727 106.3 18.4696Z" fill="white"/>
<path d="M118.216 28.3482C117.441 28.4451 116.763 27.9607 116.569 27.1857L115.406 18.2732C115.309 17.4982 115.891 16.8201 116.666 16.7232C117.441 16.6263 118.119 17.1107 118.313 17.8857L119.475 26.7982C119.572 27.5732 118.991 28.2513 118.216 28.3482Z" fill="#F3F3F3"/>
<path d="M118.216 28.4465C117.344 28.5434 116.569 27.9621 116.472 27.1871L115.309 18.2746C115.212 17.4996 115.794 16.7246 116.666 16.6278C117.537 16.5309 118.312 17.1121 118.409 17.8871L119.572 26.7996C119.669 27.5746 119.087 28.3496 118.216 28.4465ZM116.762 16.8215C116.084 16.9184 115.503 17.5965 115.6 18.2746L116.762 27.1871C116.859 27.8653 117.537 28.3496 118.216 28.2527C118.894 28.1559 119.475 27.4777 119.378 26.7996L118.216 17.8871C118.119 17.209 117.441 16.7246 116.762 16.8215Z" fill="white"/>
<path d="M128.678 240.603C192.025 240.603 243.378 189.25 243.378 125.903C243.378 62.5561 192.025 11.2031 128.678 11.2031C65.3311 11.2031 13.9781 62.5561 13.9781 125.903C13.9781 189.25 65.3311 240.603 128.678 240.603Z" fill="url(#paint2_linear_1_9777)" fill-opacity="0.2"/>
<g filter="url(#filter1_d_1_9777)">
<path d="M208.116 53.1484L115.6 112.436H115.503V112.533L115.406 112.63L57.6688 207.858L142.531 139.561L142.628 139.464V139.367L208.116 53.1484Z" fill="black" fill-opacity="0.05"/>
</g>
<path d="M206.372 47.6289L114.922 112.632L142.047 139.563L206.372 47.6289Z" fill="#CD151E"/>
<path d="M115.019 112.438L128.678 125.904L206.372 47.6289L115.019 112.438Z" fill="#FA5153"/>
<path d="M115.019 112.438L142.144 139.369L50.6938 204.372L115.019 112.438Z" fill="#ACACAC"/>
<path d="M50.6938 204.372L128.678 125.903L115.019 112.438L50.6938 204.372Z" fill="#EEEEEE"/>
</g>
<defs>
<filter id="filter0_d_1_9777" x="0" y="0" width="256" height="256" filterUnits="userSpaceOnUse" color-interpolation-filters="sRGB">
<feFlood flood-opacity="0" result="BackgroundImageFix"/>
<feColorMatrix in="SourceAlpha" type="matrix" values="0 0 0 0 0 0 0 0 0 0 0 0 0 0 0 0 0 0 127 0" result="hardAlpha"/>
<feOffset dy="2"/>
<feGaussianBlur stdDeviation="2"/>
<feColorMatrix type="matrix" values="0 0 0 0 0 0 0 0 0 0 0 0 0 0 0 0 0 0 0.266007 0"/>
<feBlend mode="normal" in2="BackgroundImageFix" result="effect1_dropShadow_1_9777"/>
<feBlend mode="normal" in="SourceGraphic" in2="effect1_dropShadow_1_9777" result="shape"/>
</filter>
<filter id="filter1_d_1_9777" x="53.6688" y="50.1484" width="158.447" height="162.711" filterUnits="userSpaceOnUse" color-interpolation-filters="sRGB">
<feFlood flood-opacity="0" result="BackgroundImageFix"/>
<feColorMatrix in="SourceAlpha" type="matrix" values="0 0 0 0 0 0 0 0 0 0 0 0 0 0 0 0 0 0 127 0" result="hardAlpha"/>
<feOffset dy="1"/>
<feGaussianBlur stdDeviation="2"/>
<feColorMatrix type="matrix" values="0 0 0 0 0 0 0 0 0 0 0 0 0 0 0 0 0 0 0.0509804 0"/>
<feBlend mode="normal" in2="BackgroundImageFix" result="effect1_dropShadow_1_9777"/>
<feBlend mode="normal" in="SourceGraphic" in2="effect1_dropShadow_1_9777" result="shape"/>
</filter>
<linearGradient id="paint0_linear_1_9777" x1="12404" y1="24802" x2="12404" y2="2" gradientUnits="userSpaceOnUse">
<stop offset="0.25" stop-color="#DBDBDA"/>
<stop offset="1" stop-color="white"/>
</linearGradient>
<radialGradient id="paint1_radial_1_9777" cx="0" cy="0" r="1" gradientUnits="userSpaceOnUse" gradientTransform="translate(13094.9 8961.74) scale(14000.6)">
<stop stop-color="#2ABCE1"/>
<stop offset="0.113629" stop-color="#2ABBE1"/>
<stop offset="1" stop-color="#3375F8"/>
</radialGradient>
<linearGradient id="paint2_linear_1_9777" x1="11266.1" y1="8201.57" x2="5912.52" y2="17806.2" gradientUnits="userSpaceOnUse">
<stop stop-opacity="0"/>
<stop offset="1"/>
</linearGradient>
<clipPath id="clip0_1_9777">
<rect width="256" height="256" fill="white"/>
</clipPath>
</defs>
</svg>
