<svg width="256" height="180" viewBox="0 0 256 180" fill="none" xmlns="http://www.w3.org/2000/svg">
<g clip-path="url(#clip0_1_9924)">
<path d="M106.553 19.6537C114.801 11.0597 126.284 5.7299 138.984 5.7299C155.866 5.7299 170.595 15.1436 178.438 29.1185C185.255 26.0729 192.799 24.3788 200.738 24.3788C231.187 24.3788 255.872 49.2793 255.872 79.994C255.872 110.712 231.187 135.613 200.738 135.613C197.022 135.613 193.39 135.241 189.878 134.531C182.97 146.852 169.808 155.176 154.7 155.176C148.376 155.176 142.394 153.715 137.068 151.118C130.066 167.588 113.752 179.137 94.7388 179.137C74.9386 179.137 58.0639 166.608 51.5865 149.038C48.7558 149.639 45.8232 149.952 42.814 149.952C19.2396 149.952 0.128052 130.644 0.128052 106.822C0.128052 90.8577 8.71478 76.9193 21.4728 69.4619C18.8462 63.418 17.3853 56.7476 17.3853 49.7346C17.3853 22.3387 39.6263 0.130493 67.0587 0.130493C83.1647 0.130493 97.4783 7.78824 106.553 19.6537Z" fill="#00A1E0"/>
<path d="M37.1701 92.9574C37.0098 93.3764 37.2284 93.4638 37.2794 93.5367C37.7603 93.8864 38.2485 94.1378 38.7403 94.4183C41.3487 95.8027 43.8114 96.207 46.3871 96.207C51.6331 96.207 54.89 93.4164 54.89 88.9245V88.8371C54.89 84.684 51.2142 83.1757 47.7642 82.0865L47.3161 81.9407C44.7149 81.0955 42.4708 80.3669 42.4708 78.6547V78.5636C42.4708 77.0991 43.7823 76.0207 45.8151 76.0207C48.0738 76.0207 50.7551 76.7712 52.482 77.7257C52.482 77.7257 52.9883 78.0536 53.1741 77.5618C53.2761 77.2995 54.1505 74.946 54.2416 74.691C54.3399 74.4141 54.1651 74.2101 53.9865 74.1008C52.0156 72.9023 49.2906 72.0826 46.4709 72.0826L45.9463 72.0862C41.1447 72.0862 37.7931 74.9861 37.7931 79.1429V79.2303C37.7931 83.6129 41.4908 85.0337 44.9554 86.0246L45.5128 86.1959C48.0374 86.9718 50.2123 87.6385 50.2123 89.4163V89.5038C50.2123 91.1286 48.7988 92.3381 46.5182 92.3381C45.633 92.3381 42.8096 92.3199 39.7603 90.3927C39.3924 90.1777 39.1774 90.0211 38.8933 89.8499C38.7439 89.7551 38.3687 89.5912 38.2047 90.0867L37.1701 92.9574Z" fill="white"/>
<path d="M113.97 92.9574C113.809 93.3764 114.028 93.4638 114.079 93.5367C114.56 93.8864 115.048 94.1378 115.54 94.4183C118.148 95.8027 120.611 96.207 123.187 96.207C128.433 96.207 131.69 93.4164 131.69 88.9245V88.8371C131.69 84.684 128.014 83.1757 124.564 82.0865L124.116 81.9407C121.515 81.0955 119.27 80.3669 119.27 78.6547V78.5636C119.27 77.0991 120.582 76.0207 122.615 76.0207C124.874 76.0207 127.555 76.7712 129.282 77.7257C129.282 77.7257 129.788 78.0536 129.974 77.5618C130.076 77.2995 130.95 74.946 131.041 74.691C131.14 74.4141 130.965 74.2101 130.786 74.1008C128.815 72.9023 126.09 72.0826 123.271 72.0826L122.746 72.0862C117.944 72.0862 114.593 74.9861 114.593 79.1429V79.2303C114.593 83.6129 118.29 85.0337 121.755 86.0246L122.312 86.1959C124.837 86.9718 127.016 87.6385 127.016 89.4163V89.5038C127.016 91.1286 125.598 92.3381 123.318 92.3381C122.433 92.3381 119.609 92.3199 116.56 90.3927C116.192 90.1777 115.973 90.0284 115.697 89.8499C115.602 89.7879 115.157 89.6167 115.004 90.0867L113.97 92.9574Z" fill="white"/>
<path d="M166.399 84.1572C166.399 86.6965 165.925 88.6965 164.993 90.11C164.071 91.509 162.676 92.1902 160.73 92.1902C158.781 92.1902 157.393 91.5126 156.486 90.11C155.568 88.7001 155.102 86.6965 155.102 84.1572C155.102 81.6216 155.568 79.6252 156.486 78.2263C157.393 76.8419 158.781 76.168 160.73 76.168C162.676 76.168 164.071 76.8419 164.996 78.2263C165.925 79.6252 166.399 81.6216 166.399 84.1572ZM170.778 79.4504C170.348 77.9968 169.678 76.7144 168.785 75.647C167.893 74.5759 166.763 73.7162 165.423 73.0896C164.086 72.4666 162.504 72.1497 160.73 72.1497C158.952 72.1497 157.371 72.4666 156.034 73.0896C154.694 73.7162 153.564 74.5759 152.668 75.647C151.779 76.7181 151.109 78.0004 150.675 79.4504C150.249 80.8967 150.034 82.4778 150.034 84.1572C150.034 85.8367 150.249 87.4214 150.675 88.8641C151.109 90.314 151.776 91.5964 152.672 92.6675C153.564 93.7385 154.697 94.5946 156.034 95.203C157.375 95.8114 158.952 96.1211 160.73 96.1211C162.504 96.1211 164.082 95.8114 165.423 95.203C166.76 94.5946 167.893 93.7385 168.785 92.6675C169.678 91.6 170.348 90.3177 170.778 88.8641C171.208 87.4178 171.423 85.833 171.423 84.1572C171.423 82.4814 171.208 80.8967 170.778 79.4504Z" fill="white"/>
<path d="M206.738 91.5118C206.592 91.0856 206.18 91.2459 206.18 91.2459C205.543 91.49 204.865 91.7158 204.144 91.8288C203.411 91.9417 202.606 92 201.743 92C199.623 92 197.94 91.3697 196.734 90.1238C195.524 88.8779 194.847 86.8632 194.854 84.1382C194.861 81.6573 195.459 79.792 196.533 78.3712C197.601 76.9577 199.226 76.2327 201.393 76.2327C203.2 76.2327 204.577 76.4404 206.02 76.8958C206.02 76.8958 206.366 77.0452 206.53 76.5934C206.912 75.5296 207.197 74.7682 207.605 73.5988C207.721 73.2673 207.437 73.1252 207.335 73.0851C206.767 72.8629 205.426 72.5022 204.413 72.3492C203.466 72.2035 202.359 72.127 201.127 72.127C199.288 72.127 197.648 72.4403 196.246 73.0669C194.847 73.6899 193.659 74.5496 192.719 75.6207C191.779 76.6918 191.065 77.9741 190.588 79.4241C190.114 80.8704 189.874 82.4588 189.874 84.1382C189.874 87.7704 190.854 90.7067 192.788 92.8561C194.726 95.0128 197.637 96.1094 201.433 96.1094C203.677 96.1094 205.98 95.654 207.634 95.0019C207.634 95.0019 207.951 94.8489 207.812 94.4809L206.738 91.5118Z" fill="white"/>
<path d="M214.399 81.7239C214.607 80.314 214.997 79.1409 215.598 78.2265C216.505 76.8385 217.889 76.0771 219.835 76.0771C221.78 76.0771 223.066 76.8422 223.988 78.2265C224.6 79.1409 224.866 80.365 224.971 81.7239H214.399ZM229.143 78.6236C228.771 77.221 227.849 75.8039 227.245 75.1554C226.29 74.1281 225.358 73.4104 224.432 73.0096C223.223 72.4923 221.773 72.1499 220.184 72.1499C218.334 72.1499 216.654 72.4595 215.292 73.1007C213.926 73.7419 212.778 74.6162 211.878 75.7055C210.978 76.7912 210.301 78.0844 209.871 79.5526C209.437 81.0135 209.219 82.6055 209.219 84.285C209.219 85.9936 209.445 87.5856 209.893 89.0173C210.344 90.46 211.066 91.7314 212.042 92.7843C213.015 93.8444 214.268 94.675 215.769 95.2543C217.259 95.8299 219.07 96.1286 221.15 96.125C225.43 96.1104 227.686 95.1559 228.614 94.6422C228.778 94.5512 228.935 94.3909 228.738 93.9318L227.769 91.2177C227.624 90.8134 227.212 90.9627 227.212 90.9627C226.152 91.3562 224.644 92.0629 221.128 92.0557C218.829 92.052 217.124 91.3744 216.057 90.3143C214.96 89.2286 214.425 87.633 214.33 85.3815L229.154 85.3961C229.154 85.3961 229.543 85.3888 229.584 85.0099C229.598 84.8497 230.094 81.9643 229.143 78.6236Z" fill="white"/>
<path d="M95.683 81.7239C95.8943 80.314 96.2805 79.1409 96.8816 78.2265C97.7887 76.8385 99.1731 76.0771 101.118 76.0771C103.064 76.0771 104.35 76.8422 105.275 78.2265C105.884 79.1409 106.15 80.365 106.255 81.7239H95.683ZM110.423 78.6236C110.051 77.221 109.133 75.8039 108.529 75.1554C107.574 74.1281 106.641 73.4104 105.716 73.0096C104.507 72.4923 103.057 72.1499 101.468 72.1499C99.6212 72.1499 97.9381 72.4595 96.5756 73.1007C95.2094 73.7419 94.0619 74.6162 93.162 75.7055C92.2622 76.7912 91.5846 78.0844 91.1547 79.5526C90.7248 81.0135 90.5026 82.6055 90.5026 84.285C90.5026 85.9936 90.7284 87.5856 91.1765 89.0173C91.6283 90.46 92.3496 91.7314 93.326 92.7843C94.2987 93.8444 95.5519 94.675 97.0528 95.2543C98.5428 95.8299 100.353 96.1286 102.434 96.125C106.714 96.1104 108.969 95.1559 109.898 94.6422C110.062 94.5512 110.219 94.3909 110.022 93.9318L109.057 91.2177C108.907 90.8134 108.496 90.9627 108.496 90.9627C107.436 91.3562 105.931 92.0629 102.408 92.0557C100.113 92.052 98.408 91.3744 97.3406 90.3143C96.2441 89.2286 95.7085 87.633 95.6138 85.3815L110.437 85.3961C110.437 85.3961 110.827 85.3888 110.867 85.0099C110.882 84.8497 111.377 81.9643 110.423 78.6236Z" fill="white"/>
<path d="M63.6418 91.4327C63.0626 90.97 62.9824 90.8535 62.7857 90.5547C62.4943 90.0993 62.3449 89.4509 62.3449 88.6275C62.3449 87.3233 62.7748 86.387 63.6673 85.7568C63.6564 85.7604 64.9424 84.6457 67.9662 84.6857C70.0901 84.7149 71.9881 85.0282 71.9881 85.0282V91.7679H71.9918C71.9918 91.7679 70.1083 92.1723 67.988 92.2998C64.9715 92.4819 63.6309 91.4291 63.6418 91.4327ZM69.54 81.0172C68.9389 80.9734 68.1592 80.9479 67.2266 80.9479C65.9552 80.9479 64.7275 81.1082 63.5762 81.4179C62.4177 81.7276 61.3758 82.2121 60.4796 82.8533C59.5798 83.4981 58.8548 84.3214 58.3302 85.2978C57.8056 86.2741 57.5397 87.4253 57.5397 88.715C57.5397 90.0265 57.7655 91.1668 58.2173 92.0994C58.669 93.0357 59.3211 93.8153 60.1518 94.4164C60.9751 95.0175 61.9915 95.4583 63.1719 95.7243C64.334 95.9902 65.6528 96.125 67.0955 96.125C68.6146 96.125 70.1301 96.0011 71.5983 95.7498C73.0519 95.502 74.837 95.1414 75.3325 95.0284C75.8243 94.9118 76.3707 94.7625 76.3707 94.7625C76.7387 94.6714 76.7095 94.278 76.7095 94.278L76.7023 80.7221C76.7023 77.7493 75.9081 75.5453 74.3452 74.1791C72.7896 72.8166 70.4981 72.1281 67.5363 72.1281C66.4251 72.1281 64.6364 72.2811 63.5653 72.496C63.5653 72.496 60.3266 73.1226 58.9933 74.1645C58.9933 74.1645 58.7018 74.3467 58.8621 74.7547L59.9113 77.5744C60.0425 77.9388 60.3958 77.8149 60.3958 77.8149C60.3958 77.8149 60.5088 77.7712 60.6399 77.6947C63.4925 76.1427 67.0991 76.1901 67.0991 76.1901C68.7021 76.1901 69.9334 76.5107 70.764 77.1482C71.5728 77.7675 71.9845 78.7038 71.9845 80.6784V81.305C70.7094 81.1228 69.54 81.0172 69.54 81.0172Z" fill="white"/>
<path d="M189.099 73.3778C189.212 73.0426 188.975 72.8823 188.877 72.8459C188.626 72.7475 187.365 72.4816 186.392 72.4197C184.531 72.3067 183.496 72.62 182.571 73.0353C181.653 73.4506 180.633 74.121 180.064 74.8824V73.079C180.064 72.8277 179.886 72.6273 179.638 72.6273H175.838C175.591 72.6273 175.412 72.8277 175.412 73.079V95.1889C175.412 95.4366 175.616 95.6406 175.864 95.6406H179.758C180.006 95.6406 180.206 95.4366 180.206 95.1889V84.1431C180.206 82.6603 180.37 81.1813 180.698 80.2523C181.019 79.3342 181.456 78.5983 181.995 78.0701C182.538 77.5455 183.154 77.1775 183.828 76.9699C184.516 76.7586 185.278 76.6893 185.817 76.6893C186.593 76.6893 187.445 76.8897 187.445 76.8897C187.729 76.9225 187.89 76.7476 187.984 76.489C188.239 75.8114 188.961 73.7822 189.099 73.3778Z" fill="white"/>
<path d="M152.544 63.1316C152.07 62.9859 151.64 62.8875 151.079 62.7819C150.511 62.6799 149.833 62.6288 149.065 62.6288C146.383 62.6288 144.27 63.3866 142.788 64.8803C141.312 66.3666 140.31 68.629 139.808 71.6054L139.625 72.6072H136.259C136.259 72.6072 135.851 72.5927 135.764 73.0371L135.214 76.1228C135.174 76.4143 135.301 76.6 135.695 76.6H138.97L135.647 95.1506C135.389 96.6443 135.09 97.872 134.758 98.8046C134.434 99.7227 134.117 100.411 133.724 100.914C133.345 101.395 132.988 101.752 132.368 101.96C131.858 102.131 131.268 102.211 130.623 102.211C130.266 102.211 129.789 102.153 129.436 102.08C129.086 102.011 128.9 101.934 128.634 101.821C128.634 101.821 128.252 101.675 128.099 102.058C127.979 102.375 127.104 104.776 126.999 105.071C126.897 105.366 127.042 105.595 127.228 105.665C127.665 105.818 127.989 105.92 128.583 106.062C129.407 106.255 130.102 106.266 130.755 106.266C132.117 106.266 133.363 106.073 134.394 105.701C135.429 105.326 136.332 104.674 137.134 103.792C137.997 102.837 138.54 101.839 139.057 100.473C139.571 99.1252 140.012 97.4494 140.361 95.4967L143.702 76.6H148.584C148.584 76.6 148.995 76.6146 149.079 76.1665L149.633 73.0845C149.669 72.7894 149.546 72.6072 149.148 72.6072H144.409C144.434 72.5016 144.649 70.8331 145.192 69.2629C145.425 68.5962 145.862 68.0534 146.23 67.6818C146.595 67.3175 147.014 67.0588 147.473 66.9095C147.943 66.7565 148.478 66.6836 149.065 66.6836C149.509 66.6836 149.95 66.7346 150.281 66.8038C150.74 66.9022 150.919 66.9532 151.039 66.9896C151.524 67.1353 151.589 66.9933 151.684 66.7601L152.817 63.6489C152.934 63.3138 152.646 63.1717 152.544 63.1316Z" fill="white"/>
<path d="M86.3218 95.1925C86.3218 95.4403 86.1433 95.6406 85.8956 95.6406H81.9647C81.717 95.6406 81.5421 95.4403 81.5421 95.1925V63.556C81.5421 63.3083 81.717 63.1079 81.9647 63.1079H85.8956C86.1433 63.1079 86.3218 63.3083 86.3218 63.556V95.1925Z" fill="white"/>
</g>
<defs>
<clipPath id="clip0_1_9924">
<rect width="256" height="180" fill="white"/>
</clipPath>
</defs>
</svg>
