<svg width="256" height="256" viewBox="0 0 256 256" fill="none" xmlns="http://www.w3.org/2000/svg">
<g clip-path="url(#clip0_1_9937)">
<path d="M242 0H14C6.26801 0 0 6.26801 0 14V242C0 249.732 6.26801 256 14 256H242C249.732 256 256 249.732 256 242V14C256 6.26801 249.732 0 242 0Z" fill="#78787A"/>
<path d="M80.4371 114.494C80.4371 133.322 65.1739 148.583 46.3459 148.583C27.5179 148.583 12.2561 133.322 12.2561 114.494C12.2561 95.6655 27.5179 80.4023 46.3459 80.4023C65.1739 80.4023 80.4371 95.6655 80.4371 114.494Z" fill="white"/>
<path d="M65.5705 114.494C65.5705 125.111 56.9635 133.717 46.3463 133.717C35.729 133.717 27.1228 125.111 27.1228 114.494C27.1228 103.877 35.729 95.2695 46.3463 95.2695C56.9635 95.2695 65.5705 103.877 65.5705 114.494Z" fill="#1B94B8"/>
<path d="M245.168 114.494C245.168 133.322 229.905 148.583 211.077 148.583C192.249 148.583 176.987 133.322 176.987 114.494C176.987 95.6655 192.249 80.4023 211.077 80.4023C229.905 80.4023 245.168 95.6655 245.168 114.494Z" fill="white"/>
<path d="M230.301 114.494C230.301 125.111 221.694 133.717 211.077 133.717C200.46 133.717 191.853 125.111 191.853 114.494C191.853 103.877 200.46 95.2695 211.077 95.2695C221.694 95.2695 230.301 103.877 230.301 114.494Z" fill="#1B94B8"/>
<path d="M127.903 209.485C109.996 209.485 89.865 204.149 69.814 188.069C66.08 185.075 65.484 179.625 68.474 175.895C71.476 172.162 76.922 171.566 80.647 174.555C129.095 213.422 177.176 176.64 179.197 175.05C182.96 172.102 188.397 172.754 191.353 176.5C194.304 180.251 193.679 185.675 189.937 188.64C189.539 188.957 163.011 209.485 127.903 209.485Z" fill="black"/>
</g>
<defs>
<clipPath id="clip0_1_9937">
<rect width="256" height="256" fill="white"/>
</clipPath>
</defs>
</svg>
