<svg width="512" height="104" viewBox="0 0 512 104" fill="none" xmlns="http://www.w3.org/2000/svg">
<g clip-path="url(#clip0_1_9950)">
<path d="M381.462 36.9889V101.823H360.576V26.8359L381.462 36.9889Z" fill="#F37368"/>
<path d="M85.8652 89.7835L101.53 103.417L167.524 69.0424L160.707 52.6526L85.8652 89.7835ZM360.576 48.0112L413.661 20.4531L404.669 4.93359L360.576 26.835V48.0112Z" fill="#F7A199"/>
<path d="M211.182 31.9095V101.82H191.166V2.17578L211.182 31.9095ZM85.8652 89.7814L101.53 103.415L131.699 27.9933L121.981 2.17578L85.8652 89.7814Z" fill="#F37368"/>
<path d="M121.981 2.17578H142.577L180.723 101.82H159.547L121.981 2.17578ZM214.228 2.17578L258.176 70.2007V101.82L191.166 2.17578H214.228ZM295.887 2.17578H316.628V101.82H295.887V2.17578ZM360.576 20.4511H328.666V2.17578H403.073L413.661 20.4511H381.462H360.576Z" fill="#F04939"/>
<path d="M475.014 63.9648V101.821H454.418V63.9648" fill="#F7A199"/>
<path d="M489.228 2.17578L454.418 63.9639H475.014L511.13 2.17578H489.228Z" fill="#F04939"/>
<path d="M454.418 63.9639L418.448 2.17578H441.074L465.296 44.5282L454.418 63.9639Z" fill="#F37368"/>
<path d="M8.55756 13.7812C8.55756 27.5603 17.1151 35.8277 34.2301 40.179L52.3604 44.3852C68.6051 48.1563 78.468 57.439 78.468 72.5235C78.6131 79.0504 76.4374 85.4322 72.5213 90.6538C72.5213 75.5694 64.689 67.447 45.9785 62.5155L28.1383 58.4543C13.7791 55.2634 2.75586 47.5761 2.75586 31.1863C2.75586 24.9495 4.78645 18.7127 8.55756 13.7812Z" fill="#F04939"/>
<path d="M258.176 65.1242V2.17578H278.191V101.82H258.176V65.1242Z" fill="#F37368"/>
<path d="M61.3529 68.752C69.0402 73.6834 72.5212 80.6455 72.5212 90.6534C65.9943 98.9208 54.826 103.417 41.6272 103.417C19.4356 103.417 3.62602 92.3939 0.290039 73.3934H21.6113C24.3671 82.0959 31.6192 86.1571 41.4821 86.1571C53.2306 86.3021 61.2079 79.9203 61.3529 68.752ZM8.55746 13.6359C14.7943 5.51348 25.5274 0.582031 38.5813 0.582031C61.3529 0.582031 74.4068 12.6206 77.7427 29.4455H57.1467C54.826 22.7735 49.1694 17.552 38.8713 17.552C27.7031 17.697 20.1609 24.0789 19.7257 34.2319C12.2517 30.11 8.26738 22.0483 8.55746 13.6359Z" fill="#F37368"/>
</g>
<defs>
<clipPath id="clip0_1_9950">
<rect width="512" height="104" fill="white"/>
</clipPath>
</defs>
</svg>
