<svg width="512" height="254" viewBox="0 0 512 254" fill="none" xmlns="http://www.w3.org/2000/svg">
<g clip-path="url(#clip0_1_9962)">
<path d="M0 253.281H258.764L512 0H0V253.281" fill="url(#paint0_linear_1_9962)"/>
<path d="M303.848 50.657H253.281L253.45 169.587L209.419 50.612H165.759L128.172 149.972C124.175 124.688 98.0368 115.964 77.4704 109.43C63.8889 105.068 49.4743 98.6511 49.6207 91.5592C49.7332 85.7393 57.3317 80.3416 72.4329 81.1465C82.5641 81.6925 91.5134 82.5086 109.316 91.1089L126.821 60.6026C110.588 52.34 88.142 47.1224 69.7369 47.1055H69.6243C48.1629 47.1055 30.2925 54.0566 19.2156 65.5106C11.4934 73.503 7.3283 83.6681 7.15945 94.9081C6.87803 110.375 12.5459 121.339 24.4558 130.103C34.5195 137.476 47.3918 142.26 58.7332 145.773C72.7199 150.107 84.1458 153.878 84.005 161.904C83.8925 164.831 82.7893 167.566 80.6842 169.772C77.1946 173.375 71.8475 174.726 64.4461 174.872C50.1666 175.176 39.5851 172.93 22.7222 162.962L7.14819 193.862C23.9942 203.442 41.8759 208.249 62.1947 208.249L66.765 208.215C84.4497 207.894 98.8023 203.656 110.206 194.481C110.858 193.958 111.444 193.429 112.052 192.894L110.138 202.755L152.802 202.62L160.457 183.022C168.505 185.769 177.657 187.288 187.372 187.288C196.839 187.288 205.743 185.847 213.64 183.258L218.976 202.62L295.523 202.693L295.709 158.015H311.998C351.369 158.015 374.643 137.977 374.643 104.375C374.63 66.9515 352.005 50.6514 303.848 50.6514L303.848 50.657ZM187.372 152.319C181.49 152.319 175.974 151.294 171.229 149.493L187.192 99.0901H187.501L203.205 149.634C198.477 151.322 193.09 152.319 187.366 152.319H187.372ZM306.808 123.36H295.698V82.7394H306.814C321.617 82.7394 333.436 87.6699 333.436 102.788C333.424 118.435 321.617 123.36 306.814 123.36" fill="white"/>
</g>
<defs>
<linearGradient id="paint0_linear_1_9962" x1="25600" y1="0" x2="25600" y2="25328.7" gradientUnits="userSpaceOnUse">
<stop stop-color="#00AEEF"/>
<stop offset="0.212" stop-color="#0097DC"/>
<stop offset="0.519" stop-color="#007CC5"/>
<stop offset="0.792" stop-color="#006CB8"/>
<stop offset="1" stop-color="#0066B3"/>
</linearGradient>
<clipPath id="clip0_1_9962">
<rect width="512" height="254" fill="white"/>
</clipPath>
</defs>
</svg>
