<svg width="256" height="192" viewBox="0 0 256 192" fill="none" xmlns="http://www.w3.org/2000/svg">
<g clip-path="url(#clip0_1_9970)">
<path d="M220.281 110.513C211.375 110.559 203.634 112.704 197.153 115.875C194.775 111.166 192.396 106.969 191.977 103.891C191.51 100.301 190.951 98.1091 191.51 93.8192C192.07 89.5292 194.588 83.4206 194.541 82.9543C194.495 82.488 193.982 80.2964 188.852 80.2498C183.723 80.2031 179.293 81.229 178.78 82.5813C178.267 83.9335 177.288 87.0111 176.635 90.182C175.749 94.845 166.377 111.492 161.014 120.212C159.289 116.808 157.797 113.824 157.47 111.445C157.004 107.855 156.444 105.663 157.004 101.373C157.564 97.0833 160.082 90.9747 160.035 90.5084C159.988 90.0421 159.475 87.8505 154.346 87.8039C149.217 87.7572 144.787 88.7831 144.274 90.1354C143.761 91.4876 143.201 94.6585 142.129 97.7361C141.057 100.814 128.606 128.605 125.342 135.786C123.663 139.47 122.218 142.408 121.192 144.413C121.192 144.413 121.145 144.553 121.005 144.786C120.12 146.511 119.607 147.444 119.607 147.444C119.607 147.444 119.607 147.444 119.607 147.491C118.907 148.75 118.161 149.915 117.788 149.915C117.508 149.915 116.995 146.558 117.881 141.988C119.746 132.336 124.176 117.321 124.13 116.808C124.13 116.528 124.969 113.917 121.239 112.565C117.601 111.212 116.296 113.45 115.969 113.45C115.643 113.45 115.41 114.243 115.41 114.243C115.41 114.243 119.467 97.3631 107.669 97.3631C100.302 97.3631 90.1363 105.43 85.1002 112.704C81.9294 114.43 75.168 118.114 67.9403 122.077C65.1891 123.616 62.3447 125.155 59.6867 126.6C59.5002 126.414 59.3137 126.181 59.1272 125.994C44.8583 110.746 18.4656 99.9743 19.5847 79.5037C20.0044 72.0428 22.5691 52.4581 70.2718 28.6767C109.534 9.32517 140.777 14.6876 146.186 26.5784C153.926 43.5518 129.446 75.0738 88.8773 79.6436C73.396 81.3689 65.2824 75.4002 63.2306 73.162C61.0856 70.8305 60.7592 70.6906 59.9665 71.1569C58.6609 71.8563 59.5002 73.9547 59.9665 75.1671C61.1789 78.3379 66.1683 83.9335 74.6084 86.6847C82.0692 89.1095 100.208 90.4618 122.171 81.9751C146.745 72.4625 165.957 46.0232 160.315 23.8738C154.673 1.39803 117.368 -6.01618 82.0692 6.52735C61.0856 13.9882 38.3301 25.739 21.9629 41.0337C2.51806 59.2195 -0.559538 75.0272 0.699479 81.6487C5.22261 105.15 37.6306 120.445 50.5938 131.776C49.941 132.149 49.3348 132.476 48.8219 132.755C42.3403 135.973 17.6263 148.889 11.4711 162.552C4.47653 178.033 12.5902 189.131 17.9527 190.624C34.5997 195.24 51.713 186.94 60.8991 173.23C70.0853 159.521 68.9661 141.708 64.7228 133.548C64.6762 133.455 64.6295 133.362 64.5363 133.268C66.215 132.289 67.9403 131.263 69.619 130.284C72.9297 128.326 76.1938 126.507 78.9916 125.015C77.4062 129.351 76.2405 134.527 75.6809 141.988C74.9814 150.755 78.572 162.132 83.2816 166.609C85.38 168.567 87.8514 168.614 89.4368 168.614C94.9392 168.614 97.4106 164.044 100.162 158.635C103.519 152.014 106.55 144.32 106.55 144.32C106.55 144.32 102.773 165.117 113.032 165.117C116.762 165.117 120.539 160.267 122.218 157.796V157.842C122.218 157.842 122.311 157.703 122.498 157.376C122.871 156.77 123.104 156.397 123.104 156.397V156.304C124.596 153.692 127.953 147.77 132.943 137.931C139.378 125.248 145.58 109.394 145.58 109.394C145.58 109.394 146.139 113.264 148.051 119.699C149.17 123.476 151.502 127.626 153.367 131.636C151.875 133.735 150.942 134.9 150.942 134.9C150.942 134.9 150.942 134.9 150.989 134.947C149.776 136.532 148.471 138.258 147.025 139.936C141.942 145.998 135.881 152.946 135.041 154.951C134.062 157.33 134.295 159.055 136.16 160.454C137.513 161.48 139.937 161.62 142.409 161.48C146.979 161.153 150.196 160.034 151.781 159.335C154.253 158.449 157.144 157.096 159.848 155.091C164.838 151.407 167.869 146.138 167.589 139.19C167.449 135.367 166.19 131.543 164.651 127.952C165.118 127.3 165.537 126.647 166.004 125.994C173.884 114.476 179.993 101.84 179.993 101.84C179.993 101.84 180.552 105.71 182.464 112.145C183.397 115.409 185.309 118.953 186.987 122.403C179.573 128.419 175.003 135.413 173.371 139.983C170.434 148.47 172.718 152.293 177.055 153.179C179.014 153.599 181.811 152.667 183.863 151.781C186.474 150.941 189.552 149.496 192.49 147.351C197.479 143.667 202.282 138.538 202.002 131.59C201.862 128.419 201.023 125.295 199.857 122.264C206.152 119.652 214.266 118.207 224.618 119.419C246.814 122.03 251.197 135.88 250.358 141.708C249.518 147.537 244.855 150.708 243.317 151.687C241.778 152.667 241.265 152.993 241.405 153.692C241.591 154.718 242.337 154.672 243.643 154.485C245.462 154.159 255.301 149.775 255.72 139.05C256.42 125.341 243.363 110.373 220.281 110.513ZM49.055 168.241C41.6875 176.261 31.4288 179.292 26.9989 176.728C22.2426 173.977 24.1079 162.132 33.1541 153.646C38.6565 148.47 45.7443 143.667 50.4539 140.729C51.5264 140.076 53.1119 139.144 55.0237 137.978C55.3501 137.791 55.5366 137.698 55.5366 137.698C55.9097 137.465 56.2827 137.232 56.6558 136.999C59.9665 149.123 56.7957 159.801 49.055 168.241ZM102.68 131.776C100.115 138.025 94.7527 154.019 91.4885 153.133C88.6907 152.387 86.9654 140.263 90.929 128.279C92.9341 122.264 97.1774 115.083 99.6488 112.285C103.659 107.808 108.089 106.316 109.161 108.135C110.514 110.513 104.265 127.859 102.68 131.776ZM146.932 152.946C145.859 153.506 144.834 153.879 144.367 153.599C144.041 153.413 144.834 152.667 144.834 152.667C144.834 152.667 150.383 146.698 152.574 143.993C153.833 142.408 155.325 140.543 156.911 138.444V139.05C156.911 146.185 150.009 150.988 146.932 152.946ZM181.065 145.159C180.273 144.599 180.412 142.734 183.07 136.905C184.096 134.621 186.521 130.797 190.671 127.113C191.137 128.605 191.464 130.051 191.417 131.403C191.371 140.403 184.936 143.76 181.065 145.159Z" fill="#CD6799"/>
</g>
<defs>
<clipPath id="clip0_1_9970">
<rect width="256" height="192" fill="white"/>
</clipPath>
</defs>
</svg>
