<svg width="256" height="216" viewBox="0 0 256 216" fill="none" xmlns="http://www.w3.org/2000/svg">
<g clip-path="url(#clip0_1_9966)">
<path d="M51.437 123.555C66.3513 123.555 73.7469 115.667 73.7469 106.052C73.7469 83.1259 36.2761 92.2471 36.2761 77.3327C36.2761 71.1698 41.8227 66.4859 51.0672 66.4859C58.9558 66.4859 65.3653 69.6906 68.8165 74.3745L72.391 69.8139C68.077 65.0068 61.2977 61.0625 51.0672 61.0625C37.6319 61.0625 29.8666 68.4581 29.8666 77.5792C29.8666 99.0264 67.4607 89.7819 67.4607 106.052C67.4607 112.955 61.5442 118.132 51.5602 118.132C43.1786 118.132 36.1528 114.187 32.3318 109.38L28.5107 114.064C34.4272 120.72 41.8227 123.555 51.437 123.555ZM134.514 122.076V80.1677C134.514 66.8557 124.899 61.0625 112.82 61.0625C102.959 61.0625 96.0568 64.3905 89.8939 71.0465L93.4684 75.4838C98.8918 69.3209 104.685 66.7324 112.204 66.7324C120.955 66.7324 128.104 71.5395 128.104 80.4142V92.4936C122.927 86.7004 116.148 83.9887 107.89 83.9887C97.5359 83.9887 87.0589 90.768 87.0589 103.71C87.0589 116.53 97.6592 123.555 107.89 123.555C116.148 123.555 122.804 120.842 128.104 115.049V122.076H134.514ZM110.108 118.502C100.371 118.502 93.8382 112.215 93.8382 103.834C93.8382 95.3294 100.371 89.0431 110.108 89.0431C117.257 89.0431 123.913 91.7548 128.104 97.3015V110.367C123.913 115.79 117.257 118.502 110.108 118.502ZM172.231 123.555C187.145 123.555 194.54 115.667 194.54 106.052C194.54 83.1259 157.069 92.2471 157.069 77.3327C157.069 71.1698 162.616 66.4859 171.86 66.4859C179.749 66.4859 186.159 69.6906 189.61 74.3745L193.184 69.8139C188.87 65.0068 182.091 61.0625 171.86 61.0625C158.425 61.0625 150.66 68.4581 150.66 77.5792C150.66 99.0264 188.254 89.7819 188.254 106.052C188.254 112.955 182.337 118.132 172.354 118.132C163.973 118.132 156.946 114.187 153.125 109.38L149.304 114.064C155.221 120.72 162.617 123.555 172.231 123.555ZM228.807 123.555C243.721 123.555 251.117 115.667 251.117 106.052C251.117 83.1259 213.646 92.2471 213.646 77.3327C213.646 71.1698 219.193 66.4859 228.437 66.4859C236.325 66.4859 242.735 69.6906 246.187 74.3745L249.76 69.8139C245.446 65.0068 238.668 61.0625 228.437 61.0625C215.002 61.0625 207.237 68.4581 207.237 77.5792C207.237 99.0264 244.831 89.7819 244.831 106.052C244.831 112.955 238.914 118.132 228.93 118.132C220.549 118.132 213.523 114.187 209.702 109.38L205.881 114.064C211.797 120.72 219.193 123.555 228.807 123.555ZM59.9545 214.52C82.3055 214.52 97.8867 200.336 97.8867 178.63C97.8867 157.138 82.3055 142.847 59.847 142.847H31.5859V214.52H59.9545ZM59.847 201.088H46.8448V156.279H59.9545C74.5686 156.279 82.3055 166.057 82.3055 178.63C82.3055 190.88 74.0313 201.088 59.847 201.088ZM142.804 215.81C164.402 215.81 180.199 200.336 180.199 178.737C180.199 157.138 164.402 141.665 142.804 141.665C121.097 141.665 105.301 157.138 105.301 178.737C105.301 200.336 121.097 215.81 142.804 215.81ZM142.804 202.27C129.479 202.27 120.99 192.062 120.99 178.737C120.99 165.305 129.479 155.204 142.804 155.204C156.021 155.204 164.51 165.305 164.51 178.737C164.51 192.062 156.021 202.27 142.804 202.27ZM225.761 215.81C241.449 215.81 250.584 207.106 255.634 198.187L242.524 191.847C239.515 197.65 233.067 202.27 225.761 202.27C212.651 202.27 203.194 192.277 203.194 178.737C203.194 165.198 212.651 155.204 225.761 155.204C233.067 155.204 239.515 159.825 242.524 165.627L255.634 159.18C250.583 150.154 241.45 141.665 225.761 141.665C204.161 141.665 187.506 156.6 187.506 178.737C187.506 200.766 204.161 215.81 225.761 215.81Z" fill="#5C4863"/>
<path d="M8.30808 61.0822C8.0023 61.9987 7.6586 62.9152 7.27697 63.8318C6.89534 64.7483 6.45524 65.5503 5.95904 66.2377C5.46285 66.9251 4.90818 67.4403 4.2982 67.784C3.68744 68.1285 3.03796 68.1854 2.35055 67.9562C1.43401 67.8037 0.918847 67.1345 0.803489 65.9509C0.688921 64.7673 0.823242 63.6026 1.20487 62.457C1.73978 60.6239 2.52201 58.1982 3.55312 55.1815C4.58502 52.1648 5.76862 48.8605 7.10472 45.2718C8.44161 41.6823 9.85435 37.9584 11.3437 34.101C12.8339 30.2452 14.2656 26.5593 15.6404 23.0456C17.0152 19.5319 18.2755 16.3438 19.4212 13.4788C20.5668 10.6146 21.4455 8.38092 22.0562 6.77697C22.2854 6.3187 22.6291 5.93707 23.0873 5.63129C23.5456 5.32552 24.0228 5.17302 24.5198 5.17302C25.016 5.17302 25.5122 5.32552 26.0092 5.63129C26.5054 5.93707 26.906 6.43327 27.2118 7.12068C27.8225 8.72463 27.8613 10.2907 27.3264 11.818C26.7914 13.0403 26.0282 14.931 25.035 17.4887C24.0418 20.0487 22.9159 22.931 21.6556 26.1389C20.3946 29.3468 19.0775 32.746 17.7027 36.3355C16.3278 39.925 15.0297 43.3439 13.8073 46.5889C12.585 49.8363 11.4781 52.7566 10.4849 55.3538C9.49169 57.9509 8.76635 59.8598 8.30808 61.0822ZM69.3728 32.3256C67.8455 31.1799 66.1838 29.9576 64.3887 28.6594C62.5951 27.3613 60.7035 26.0244 58.718 24.6496C60.0161 29.3089 61.3909 33.7384 62.8424 37.9394C63.0715 38.856 62.9767 39.658 62.5556 40.3454C62.1368 41.0328 61.6201 41.3765 61.0093 41.3765C60.0161 41.224 59.0048 40.7657 57.9729 40.0017C56.9418 39.2376 56.2346 38.3211 55.8538 37.252C55.548 36.5646 55.1664 35.4569 54.7081 33.9296C54.2498 32.4023 53.7149 30.6071 53.1041 28.5449C51.806 30.4546 50.6026 32.3256 49.4948 34.1587C48.3887 35.9918 47.3378 37.7482 46.3446 39.4288C45.7339 40.2687 45.0465 40.746 44.2824 40.8605C43.5184 40.9759 42.9455 40.8036 42.5639 40.3454C42.029 39.5055 41.705 38.4175 41.5897 37.0798C41.4751 35.7445 41.6845 34.617 42.2202 33.7004C42.6018 33.0897 43.2892 31.9819 44.2824 30.378C45.2756 28.774 46.4971 26.903 47.9486 24.7641C46.3446 25.1458 44.7786 25.5464 43.2513 25.9667C41.724 26.387 40.1959 26.7884 38.6686 27.1701C37.752 27.3226 36.9501 27.1701 36.2626 26.7118C35.5752 26.2535 35.2695 25.7186 35.3461 25.1078C35.5752 24.1147 36.0904 23.2179 36.8924 22.4159C37.6951 21.6131 38.6306 21.06 39.6997 20.7543C40.4637 20.5251 41.7042 20.2012 43.4227 19.7808C45.1421 19.3605 47.1087 18.8832 49.3234 18.3483C47.7961 17.4318 46.2877 16.4963 44.7976 15.5418C43.3082 14.5858 41.7998 13.689 40.2725 12.8491C39.4326 12.3142 38.9554 11.6267 38.84 10.7868C38.7255 9.94695 38.8977 9.33539 39.356 8.95376C40.1959 8.41885 41.208 8.17154 42.3916 8.20947C43.5768 8.24739 44.6261 8.57292 45.5426 9.1829C46.3067 9.56453 47.3757 10.214 48.7505 11.1306C48.5214 9.83238 48.3302 8.5911 48.1777 7.40749C48.0252 6.22231 47.9106 5.09638 47.834 4.02734C47.7574 3.18744 47.9486 2.46132 48.4068 1.85055C48.8651 1.23979 49.4 0.896084 50.0108 0.819442C50.5457 0.666948 51.1944 0.838405 51.9585 1.33539C52.7225 1.83159 53.2953 2.7671 53.677 4.14191C53.9827 5.59337 54.3265 7.08275 54.7081 8.61006C55.0897 10.1374 55.4721 11.78 55.8538 13.5365C57.3811 11.4743 58.8704 9.5266 60.3219 7.69352C61.7734 5.86043 63.1482 4.2944 64.4464 2.99623C65.0571 2.38547 65.7445 2.04176 66.5086 1.96512C67.2726 1.88848 67.8834 2.07969 68.3417 2.53796C68.7233 2.84374 69.0101 3.4545 69.2005 4.37105C69.3917 5.28759 69.0662 6.3187 68.2271 7.46438C67.3872 8.61006 66.4319 9.89006 65.3629 11.3028C64.2939 12.7155 63.1861 14.2239 62.0404 15.8278C64.026 15.4462 65.9737 15.1594 67.8834 14.969C69.7931 14.7778 71.5875 14.645 73.2681 14.5676C74.108 14.5676 74.8341 14.7201 75.4449 15.0259C76.0556 15.3316 76.3993 15.7899 76.476 16.4007C76.5526 16.9356 76.3235 17.5843 75.7886 18.3483C75.2537 19.1124 74.2992 19.6086 72.9244 19.8377C71.6262 20.0669 70.2324 20.296 68.7422 20.5251C67.2529 20.7543 65.7445 21.0213 64.2172 21.3271C65.9737 22.6253 67.6163 23.9045 69.1436 25.1655C70.6709 26.4258 72.0845 27.6283 73.3826 28.774C73.9934 29.3848 74.394 30.0145 74.5852 30.6648C74.7764 31.3127 74.68 31.9053 74.2992 32.4402C73.9176 32.8218 73.2681 33.0897 72.3515 33.2422C71.435 33.3946 70.4418 33.0897 69.3728 32.3256ZM115.887 32.3256C114.36 31.1799 112.698 29.9576 110.903 28.6594C109.11 27.3613 107.218 26.0244 105.233 24.6496C106.531 29.3089 107.906 33.7384 109.357 37.9394C109.586 38.856 109.491 39.658 109.07 40.3454C108.651 41.0328 108.135 41.3765 107.524 41.3765C106.531 41.224 105.519 40.7657 104.487 40.0017C103.456 39.2376 102.749 38.3211 102.368 37.252C102.063 36.5646 101.681 35.4569 101.223 33.9296C100.764 32.4023 100.229 30.6071 99.6187 28.5449C98.3205 30.4546 97.1172 32.3256 96.0094 34.1587C94.9032 35.9918 93.8524 37.7482 92.8592 39.4288C92.2484 40.2687 91.561 40.746 90.797 40.8605C90.0329 40.9759 89.4601 40.8036 89.0785 40.3454C88.5435 39.5055 88.2196 38.4175 88.1042 37.0798C87.9897 35.7445 88.199 34.617 88.7347 33.7004C89.1164 33.0897 89.8038 31.9819 90.797 30.378C91.7902 28.774 93.0117 26.903 94.4631 24.7641C92.8592 25.1458 91.2932 25.5464 89.7659 25.9667C88.2385 26.387 86.7104 26.7884 85.1831 27.1701C84.2666 27.3226 83.4646 27.1701 82.7772 26.7118C82.0898 26.2535 81.784 25.7186 81.8607 25.1078C82.0898 24.1147 82.605 23.2179 83.4069 22.4159C84.2097 21.6131 85.1452 21.06 86.2142 20.7543C86.9783 20.5251 88.2188 20.2012 89.9373 19.7808C91.6566 19.3605 93.6232 18.8832 95.838 18.3483C94.3107 17.4318 92.8023 16.4963 91.3121 15.5418C89.8227 14.5858 88.3144 13.689 86.7871 12.8491C85.9472 12.3142 85.47 11.6267 85.3546 10.7868C85.24 9.94695 85.4123 9.33539 85.8706 8.95376C86.7105 8.41885 87.7226 8.17154 88.9062 8.20947C90.0914 8.24739 91.1407 8.57292 92.0572 9.1829C92.8213 9.56453 93.8903 10.214 95.2651 11.1306C95.036 9.83238 94.8448 8.5911 94.6923 7.40749C94.5398 6.22231 94.4252 5.09638 94.3486 4.02734C94.2719 3.18744 94.4631 2.46132 94.9214 1.85055C95.3797 1.23979 95.9146 0.896084 96.5254 0.819442C97.0603 0.666948 97.709 0.838405 98.473 1.33539C99.2371 1.83159 99.8099 2.7671 100.192 4.14191C100.497 5.59337 100.841 7.08275 101.223 8.61006C101.604 10.1374 101.987 11.78 102.368 13.5365C103.896 11.4743 105.385 9.5266 106.836 7.69352C108.288 5.86043 109.663 4.2944 110.961 2.99623C111.572 2.38547 112.259 2.04176 113.023 1.96512C113.787 1.88848 114.398 2.07969 114.856 2.53796C115.238 2.84374 115.525 3.4545 115.715 4.37105C115.906 5.28759 115.581 6.3187 114.742 7.46438C113.902 8.61006 112.947 9.89006 111.877 11.3028C110.808 12.7155 109.701 14.2239 108.555 15.8278C110.541 15.4462 112.488 15.1594 114.398 14.969C116.308 14.7778 118.102 14.645 119.783 14.5676C120.623 14.5676 121.349 14.7201 121.959 15.0259C122.57 15.3316 122.914 15.7899 122.991 16.4007C123.067 16.9356 122.838 17.5843 122.303 18.3483C121.768 19.1124 120.814 19.6086 119.439 19.8377C118.141 20.0669 116.747 20.296 115.257 20.5251C113.767 20.7543 112.259 21.0213 110.732 21.3271C112.488 22.6253 114.131 23.9045 115.658 25.1655C117.186 26.4258 118.599 27.6283 119.897 28.774C120.508 29.3848 120.909 30.0145 121.1 30.6648C121.291 31.3127 121.195 31.9053 120.814 32.4402C120.432 32.8218 119.783 33.0897 118.866 33.2422C117.95 33.3946 116.956 33.0897 115.887 32.3256Z" fill="#DD5A6F"/>
</g>
<defs>
<clipPath id="clip0_1_9966">
<rect width="256" height="216" fill="white"/>
</clipPath>
</defs>
</svg>
