<svg width="256" height="256" viewBox="0 0 256 256" fill="none" xmlns="http://www.w3.org/2000/svg">
<g clip-path="url(#clip0_1_9983)">
<path opacity="0.5" d="M128 256C198.692 256 256 198.692 256 128C256 57.3075 198.692 0 128 0C57.3075 0 0 57.3075 0 128C0 198.692 57.3075 256 128 256Z" fill="url(#paint0_linear_1_9983)"/>
<path d="M205.6 83.199L238.9 63.999C208.9 11.999 142.3 -5.90097 90.3 24.199C38.3 54.199 20.4 120.799 50.5 172.799L17.1 191.999C47.1 243.999 113.7 261.899 165.7 231.799C217.8 201.799 235.6 135.199 205.6 83.199Z" fill="#6466BB"/>
</g>
<defs>
<linearGradient id="paint0_linear_1_9983" x1="19224" y1="23905.4" x2="6723.52" y2="2296.48" gradientUnits="userSpaceOnUse">
<stop stop-color="white" stop-opacity="0"/>
<stop offset="0.4752" stop-color="#6466BB"/>
<stop offset="1" stop-color="white" stop-opacity="0"/>
</linearGradient>
<clipPath id="clip0_1_9983">
<rect width="256" height="256" fill="white"/>
</clipPath>
</defs>
</svg>
