<svg width="256" height="316" viewBox="0 0 256 316" fill="none" xmlns="http://www.w3.org/2000/svg">
<g clip-path="url(#clip0_1_9988)">
<path d="M163.431 153.479C172.485 144.368 184.994 139.548 197.821 140.228C214.067 139.695 229.641 146.735 239.972 159.284C250.657 171.989 256 189.657 256 212.289C256 243.503 246.177 267.965 226.532 285.675C205.92 303.307 179.938 313.429 152.83 314.386C147.845 315.082 142.734 315.082 137.434 315.082L136.028 315.082C89.6607 314.908 44.9349 297.795 10.2854 266.934L0 257.722L40.4476 209.828L64.1735 228.127L41.7096 254.377C69.4749 274.991 103.169 286.06 137.749 285.928C179.017 285.928 207.602 270.279 218.707 243.019C219.34 240.245 219.657 237.409 219.654 234.564C219.654 226.487 216.31 222.448 209.621 222.448C206.565 222.722 203.543 223.293 200.597 224.152C196.889 225.004 193.106 225.49 189.302 225.603C179.464 225.407 170.073 221.457 163.053 214.561C154.812 207.007 150.332 196.198 150.811 185.03C150.642 173.251 155.186 161.892 163.431 153.479ZM123.173 0.0180173C163.868 -0.627859 203.501 13.015 235.177 38.5726L246.03 47.0912L212.334 95.174L187.473 78.7678L205.393 53.0227C181.062 37.0222 152.48 28.7114 123.362 29.1706C108.942 28.9333 94.6365 31.7728 81.4 37.4999C77.1611 39.6757 73.0904 42.1646 69.2216 44.9458C55.676 54.7054 48.9031 66.379 48.9031 79.9667C48.9031 88.0436 52.2475 92.0821 58.9362 92.0821C61.992 91.8076 65.014 91.2371 67.9596 90.3784C71.6684 89.528 75.4513 89.0419 79.2546 88.9271C88.9487 89.1346 98.2087 92.9873 105.189 99.7173C113.458 107.326 117.92 118.215 117.368 129.438C117.536 141.217 112.993 152.575 104.747 160.988C95.693 170.099 83.1844 174.919 70.3574 174.239C54.1324 174.803 38.5631 167.811 28.2061 155.309C17.4789 142.626 11.7368 124.705 11.6737 102.052V97.9505C11.6737 40.2763 57.5479 0.0180173 123.173 0.0180173Z" fill="#1E7B85"/>
</g>
<defs>
<clipPath id="clip0_1_9988">
<rect width="256" height="316" fill="white"/>
</clipPath>
</defs>
</svg>
