<svg width="512" height="114" viewBox="0 0 512 114" fill="none" xmlns="http://www.w3.org/2000/svg">
<g clip-path="url(#clip0_1_9991)">
<path d="M168.843 53.2459C155.738 50.4425 152.706 47.2972 152.706 41.5992C152.706 35.9012 157.607 31.9126 165.356 31.9126C171.668 31.9203 177.764 34.2113 182.518 38.3627L186.439 33.1889C180.608 28.2638 173.168 25.6592 165.538 25.8727C154.142 25.8727 145.983 32.7103 145.983 42.1918C145.983 51.6733 152.273 56.4824 165.949 59.4453C178.439 62.0892 181.424 65.2345 181.424 70.8413C181.424 76.8812 176.159 81.0522 168.159 81.0522C160.463 81.1516 153.058 78.1154 147.647 72.6419L143.59 77.4966C150.145 83.7256 158.867 87.1588 167.909 87.0692C179.715 87.0692 188.216 80.4368 188.216 70.1576C188.216 60.9724 182.085 56.1405 168.843 53.2459ZM236.08 81.0294C222.997 81.0294 213.037 70.2259 213.037 56.3912C213.037 42.5565 222.906 31.9126 236.08 31.9126C243.164 31.9586 249.919 34.9079 254.769 40.0721L259.327 35.1491C253.267 28.8775 244.843 25.4516 236.125 25.7132C218.621 25.7132 206.04 39.5707 206.04 56.5735C206.04 73.5764 218.803 87.2288 235.92 87.2288C245.038 87.4388 253.785 83.6198 259.829 76.79L255.27 72.4596C249.595 77.8841 244.239 81.0294 236.08 81.0294ZM305.117 26.7388C318.222 26.7388 326.632 33.7815 326.632 44.4938C326.632 54.4311 319.84 60.2203 310.541 61.8841L328.775 86.2031H320.524L303.27 63.0921H286.268V86.2259H279.544V26.7388H305.117ZM304.57 56.9838L304.501 56.9838C312.354 56.9838 318.227 53.4801 319.556 47.4403L319.578 47.3342C319.766 46.5045 319.863 45.6321 319.863 44.7217C319.863 37.3371 314.233 32.9154 304.638 32.9154H286.268V56.9838L304.57 56.9838ZM353.732 26.716H360.455V86.2031H353.732V26.716ZM410.757 26.716C422.473 26.716 430.131 32.4824 430.131 41.5992C430.274 47.7615 426.481 53.3322 420.695 55.4567C427.737 57.5764 433.435 61.5422 433.435 69.8841C433.435 80.1633 424.866 86.2031 411.851 86.2031H385.413V26.716H410.757ZM410.849 59.263H392.022V80.2544H411.988C419.784 80.2544 424.93 77.3382 426.257 72.2894L426.275 72.2275C426.503 71.387 426.621 70.4902 426.621 69.5422C426.621 68.512 426.486 67.5513 426.217 66.6638C424.823 61.8081 419.622 59.263 410.849 59.263ZM410.256 32.7559H392.022V53.2687H409.618C410.604 53.2659 411.553 53.2093 412.459 53.0993C419.049 52.3534 423.43 48.7792 423.43 42.5337C423.43 36.585 418.757 32.7559 410.256 32.7559ZM480.387 26.716C499.145 26.716 511.999 39.5479 511.999 56.3684C511.999 73.1889 499.076 86.2031 480.387 86.2031H459.737V26.716H480.387ZM480.387 32.9154H466.438V80.0037H480.387L480.837 80.0007C495.621 79.7996 505.025 69.683 505.025 56.5507C505.025 43.2858 495.43 32.9154 480.387 32.9154Z" fill="#00293F"/>
<path d="M59.0313 55.4342C62.3017 52.1432 66.8198 50.4023 71.4529 50.6478C77.3211 50.4552 82.9461 52.9983 86.678 57.531C90.5374 62.1198 92.4671 68.5016 92.4671 76.6763C92.4671 87.9507 88.9192 96.7864 81.8233 103.183C74.3782 109.552 64.9935 113.208 55.2022 113.554C53.4017 113.805 51.5555 113.805 49.641 113.805C32.7121 113.867 16.3569 107.674 3.7151 96.4142L0 93.0865L14.6097 75.7874L23.1795 82.3971L15.0655 91.8786C25.0943 99.3242 37.2645 103.322 49.7549 103.275C64.6609 103.275 74.9857 97.6221 78.9971 87.776C79.2254 86.774 79.3401 85.7495 79.339 84.7219C79.339 81.8045 78.131 80.3458 75.715 80.3458C74.6112 80.4448 73.5197 80.6509 72.4558 80.9612C71.1163 81.2689 69.7498 81.4445 68.376 81.4854C64.8223 81.4146 61.4302 79.9876 58.8945 77.4968C55.9182 74.7684 54.2998 70.8641 54.4729 66.8302C54.4119 62.5756 56.053 58.473 59.0313 55.4342ZM44.49 0.00401252C59.1891 -0.229278 73.5047 4.69852 84.9458 13.9299L88.866 17.0068L76.6951 34.3743L67.715 28.4484L74.188 19.1493C65.3994 13.3699 55.0756 10.368 44.5584 10.5339C39.3497 10.4482 34.1827 11.4738 29.4017 13.5425C27.8706 14.3284 26.4002 15.2273 25.0028 16.2319C20.1101 19.7571 17.6638 23.9736 17.6638 28.8815C17.6638 31.7989 18.8718 33.2575 21.2877 33.2575C22.3915 33.1584 23.483 32.9523 24.547 32.6422C25.8866 32.335 27.253 32.1594 28.6268 32.1179C32.1283 32.1929 35.4729 33.5845 37.9943 36.0154C40.9809 38.7636 42.5925 42.6966 42.3931 46.7504C42.4541 51.0049 40.813 55.1076 37.8347 58.1464C34.5643 61.4373 30.0462 63.1783 25.4131 62.9327C19.5526 63.1365 13.929 60.6109 10.188 56.0951C6.31338 51.5139 4.23931 45.041 4.21652 36.8587V35.3772C4.21652 14.5453 20.7863 0.00401252 44.49 0.00401252Z" fill="#1E7B85"/>
</g>
<defs>
<clipPath id="clip0_1_9991">
<rect width="512" height="114" fill="white"/>
</clipPath>
</defs>
</svg>
