<svg width="512" height="123" viewBox="0 0 512 123" fill="none" xmlns="http://www.w3.org/2000/svg">
<g clip-path="url(#clip0_1_10097)">
<path d="M61.4656 1.14062C53.6572 1.14062 45.9247 2.67871 38.7107 5.66686C31.4967 8.65501 24.9414 13.0351 19.42 18.5565C13.8986 24.0779 9.51853 30.6331 6.53039 37.8472C3.54224 45.0612 2.00415 52.7937 2.00415 60.6021C2.00415 68.4105 3.54224 76.143 6.53039 83.357C9.51853 90.571 13.8986 97.1263 19.42 102.648C24.9414 108.169 31.4967 112.549 38.7107 115.537C45.9247 118.525 53.6572 120.064 61.4656 120.064C69.274 120.064 77.0065 118.525 84.2205 115.537C91.4346 112.549 97.9898 108.169 103.511 102.648C109.033 97.1263 113.413 90.571 116.401 83.357C119.293 76.3757 120.826 68.9088 120.922 61.3575L120.927 60.6021L120.922 59.8467C120.826 52.2953 119.293 44.8285 116.401 37.8472C113.413 30.6331 109.033 24.0779 103.511 18.5565C97.9898 13.0351 91.4346 8.65501 84.2205 5.66686C77.0065 2.67871 69.274 1.14062 61.4656 1.14062Z" fill="white"/>
<path d="M47.8879 35.2759C48.4953 35.2759 49.0779 35.0346 49.5074 34.6051C49.9369 34.1756 50.1782 33.593 50.1782 32.9856C50.1782 32.3782 49.9369 31.7956 49.5074 31.3661C49.0779 30.9366 48.4953 30.6953 47.8879 30.6953C47.2805 30.6953 46.698 30.9366 46.2685 31.3661C45.839 31.7956 45.5977 32.3782 45.5977 32.9856C45.5977 33.593 45.839 34.1756 46.2685 34.6051C46.698 35.0346 47.2805 35.2759 47.8879 35.2759Z" fill="#AFDAD2" stroke="white" stroke-width="0.25"/>
<path d="M42.9559 38.7293C43.5442 38.7293 44.1085 38.4956 44.5244 38.0796C44.9404 37.6636 45.1741 37.0994 45.1741 36.5111C45.1741 35.9229 44.9404 35.3586 44.5244 34.9427C44.1085 34.5267 43.5442 34.293 42.9559 34.293C42.3677 34.293 41.8034 34.5267 41.3875 34.9427C40.9715 35.3586 40.7378 35.9229 40.7378 36.5111C40.7378 37.0994 40.9715 37.6636 41.3875 38.0796C41.8034 38.4956 42.3677 38.7293 42.9559 38.7293Z" fill="#AFDAD2" stroke="white" stroke-width="0.25"/>
<path d="M38.2117 40.9269C38.7656 40.9269 39.2969 40.7068 39.6885 40.3152C40.0801 39.9236 40.3002 39.3923 40.3002 38.8384C40.3002 38.2846 40.0801 37.7533 39.6885 37.3617C39.2969 36.9701 38.7656 36.75 38.2117 36.75C37.6579 36.75 37.1266 36.9701 36.735 37.3617C36.3433 37.7533 36.1233 38.2846 36.1233 38.8384C36.1233 39.3923 36.3433 39.9236 36.735 40.3152C37.1266 40.7068 37.6579 40.9269 38.2117 40.9269Z" fill="#AFDAD2" stroke="white" stroke-width="0.25"/>
<path d="M52.0483 32.5482C52.6737 32.5482 53.2735 32.2998 53.7157 31.8576C54.1579 31.4154 54.4064 30.8155 54.4064 30.1901C54.4064 29.5648 54.1579 28.9649 53.7157 28.5227C53.2735 28.0805 52.6737 27.832 52.0483 27.832C51.4229 27.832 50.8231 28.0805 50.3809 28.5227C49.9387 28.9649 49.6902 29.5648 49.6902 30.1901C49.6902 30.8155 49.9387 31.4154 50.3809 31.8576C50.8231 32.2998 51.4229 32.5482 52.0483 32.5482Z" fill="#AFDAD2" stroke="white" stroke-width="0.25"/>
<path d="M34.6526 35.9737C35.0728 35.9737 35.4759 35.8067 35.773 35.5096C36.0702 35.2125 36.2371 34.8094 36.2371 34.3892C36.2371 33.969 36.0702 33.5659 35.773 33.2688C35.4759 32.9716 35.0728 32.8047 34.6526 32.8047C34.2324 32.8047 33.8293 32.9716 33.5322 33.2688C33.2351 33.5659 33.0681 33.969 33.0681 34.3892C33.0681 34.8094 33.2351 35.2125 33.5322 35.5096C33.8293 35.8067 34.2324 35.9737 34.6526 35.9737Z" fill="#AFDAD2" stroke="white" stroke-width="0.25"/>
<path d="M30.7399 44.6556C31.2392 44.6556 31.718 44.4573 32.071 44.1042C32.4241 43.7512 32.6224 43.2724 32.6224 42.7731C32.6224 42.2739 32.4241 41.795 32.071 41.442C31.718 41.089 31.2392 40.8906 30.7399 40.8906C30.2407 40.8906 29.7618 41.089 29.4088 41.442C29.0558 41.795 28.8574 42.2739 28.8574 42.7731C28.8574 43.2724 29.0558 43.7512 29.4088 44.1042C29.7618 44.4573 30.2407 44.6556 30.7399 44.6556Z" fill="#AFDAD2" stroke="white" stroke-width="0.25"/>
<path d="M33.1343 29.7477C33.7359 29.7477 34.3129 29.5087 34.7383 29.0833C35.1637 28.6579 35.4027 28.0809 35.4027 27.4793C35.4027 26.8777 35.1637 26.3007 34.7383 25.8753C34.3129 25.4499 33.7359 25.2109 33.1343 25.2109C32.5328 25.2109 31.9557 25.4499 31.5304 25.8753C31.105 26.3007 30.866 26.8777 30.866 27.4793C30.866 28.0809 31.105 28.6579 31.5304 29.0833C31.9557 29.5087 32.5328 29.7477 33.1343 29.7477Z" fill="#AFDAD2" stroke="white" stroke-width="0.25"/>
<path d="M39.2555 33.993C39.7208 33.993 40.167 33.8081 40.496 33.4791C40.825 33.1502 41.0098 32.7039 41.0098 32.2387C41.0098 31.7734 40.825 31.3272 40.496 30.9982C40.167 30.6692 39.7208 30.4844 39.2555 30.4844C38.7903 30.4844 38.344 30.6692 38.015 30.9982C37.6861 31.3272 37.5012 31.7734 37.5012 32.2387C37.5012 32.7039 37.6861 33.1502 38.015 33.4791C38.344 33.8081 38.7903 33.993 39.2555 33.993Z" fill="#AFDAD2" stroke="white" stroke-width="0.25"/>
<path d="M69.5082 28.7591C70.0523 28.7591 70.5741 28.5429 70.9588 28.1583C71.3435 27.7736 71.5596 27.2517 71.5596 26.7077C71.5596 26.1636 71.3435 25.6418 70.9588 25.2571C70.5741 24.8724 70.0523 24.6562 69.5082 24.6562C68.9642 24.6562 68.4423 24.8724 68.0576 25.2571C67.6729 25.6418 67.4568 26.1636 67.4568 26.7077C67.4568 27.2517 67.6729 27.7736 68.0576 28.1583C68.4423 28.5429 68.9642 28.7591 69.5082 28.7591Z" fill="#AFDAD2" stroke="white" stroke-width="0.25"/>
<path d="M26.4813 39.6315C26.8111 39.6315 27.1274 39.5005 27.3606 39.2673C27.5938 39.0341 27.7248 38.7178 27.7248 38.388C27.7248 38.0583 27.5938 37.7419 27.3606 37.5087C27.1274 37.2756 26.8111 37.1445 26.4813 37.1445C26.1515 37.1445 25.8352 37.2756 25.602 37.5087C25.3688 37.7419 25.2378 38.0583 25.2378 38.388C25.2378 38.7178 25.3688 39.0341 25.602 39.2673C25.8352 39.5005 26.1515 39.6315 26.4813 39.6315Z" fill="#AFDAD2" stroke="white" stroke-width="0.25"/>
<path d="M30.6135 38.4628C31.0048 38.4628 31.3801 38.3073 31.6568 38.0306C31.9335 37.7539 32.089 37.3786 32.089 36.9872C32.089 36.5959 31.9335 36.2206 31.6568 35.9439C31.3801 35.6672 31.0048 35.5117 30.6135 35.5117C30.2221 35.5117 29.8468 35.6672 29.5701 35.9439C29.2934 36.2206 29.1379 36.5959 29.1379 36.9872C29.1379 37.3786 29.2934 37.7539 29.5701 38.0306C29.8468 38.3073 30.2221 38.4628 30.6135 38.4628Z" fill="#AFDAD2" stroke="white" stroke-width="0.25"/>
<path d="M23.0787 33.7873C23.5975 33.7873 24.0951 33.5812 24.4619 33.2144C24.8287 32.8475 25.0349 32.3499 25.0349 31.8312C25.0349 31.3124 24.8287 30.8148 24.4619 30.4479C24.0951 30.0811 23.5975 29.875 23.0787 29.875C22.5599 29.875 22.0623 30.0811 21.6955 30.4479C21.3287 30.8148 21.1226 31.3124 21.1226 31.8312C21.1226 32.3499 21.3287 32.8475 21.6955 33.2144C22.0623 33.5812 22.5599 33.7873 23.0787 33.7873Z" fill="#AFDAD2" stroke="white" stroke-width="0.25"/>
<path d="M30.7756 32.9262C31.046 32.9262 31.3054 32.8187 31.4966 32.6275C31.6879 32.4363 31.7953 32.1769 31.7953 31.9064C31.7953 31.636 31.6879 31.3766 31.4966 31.1854C31.3054 30.9942 31.046 30.8867 30.7756 30.8867C30.5052 30.8867 30.2458 30.9942 30.0545 31.1854C29.8633 31.3766 29.7559 31.636 29.7559 31.9064C29.7559 32.1769 29.8633 32.4363 30.0545 32.6275C30.2458 32.8187 30.5052 32.9262 30.7756 32.9262Z" fill="#AFDAD2" stroke="white" stroke-width="0.25"/>
<path d="M44.4296 31.3347C44.9344 31.3347 45.4187 31.1341 45.7757 30.7772C46.1327 30.4202 46.3333 29.9359 46.3333 29.431C46.3333 28.9262 46.1327 28.4419 45.7757 28.0849C45.4187 27.7279 44.9344 27.5273 44.4296 27.5273C43.9247 27.5273 43.4405 27.7279 43.0835 28.0849C42.7265 28.4419 42.5259 28.9262 42.5259 29.431C42.5259 29.9359 42.7265 30.4202 43.0835 30.7772C43.4405 31.1341 43.9247 31.3347 44.4296 31.3347Z" fill="#AFDAD2" stroke="white" stroke-width="0.25"/>
<path d="M58.8924 32.4381C59.3281 32.4381 59.746 32.265 60.0541 31.957C60.3622 31.6489 60.5353 31.2309 60.5353 30.7952C60.5353 30.3595 60.3622 29.9416 60.0541 29.6335C59.746 29.3255 59.3281 29.1523 58.8924 29.1523C58.4567 29.1523 58.0388 29.3255 57.7307 29.6335C57.4226 29.9416 57.2495 30.3595 57.2495 30.7952C57.2495 31.2309 57.4226 31.6489 57.7307 31.957C58.0388 32.265 58.4567 32.4381 58.8924 32.4381Z" fill="#AFDAD2" stroke="white" stroke-width="0.25"/>
<path d="M61.8997 22.1857C62.1849 22.1857 62.4584 22.0724 62.66 21.8707C62.8617 21.6691 62.975 21.3956 62.975 21.1104C62.975 20.8253 62.8617 20.5517 62.66 20.3501C62.4584 20.1485 62.1849 20.0352 61.8997 20.0352C61.6146 20.0352 61.341 20.1485 61.1394 20.3501C60.9378 20.5517 60.8245 20.8253 60.8245 21.1104C60.8245 21.3956 60.9378 21.6691 61.1394 21.8707C61.341 22.0724 61.6146 22.1857 61.8997 22.1857Z" fill="#AFDAD2" stroke="white" stroke-width="0.25"/>
<path d="M65.3954 28.3747C65.8719 28.3747 66.3289 28.1854 66.6658 27.8485C67.0028 27.5115 67.1921 27.0545 67.1921 26.578C67.1921 26.1015 67.0028 25.6444 66.6658 25.3075C66.3289 24.9706 65.8719 24.7812 65.3954 24.7812C64.9189 24.7812 64.4618 24.9706 64.1249 25.3075C63.7879 25.6444 63.5986 26.1015 63.5986 26.578C63.5986 27.0545 63.7879 27.5115 64.1249 27.8485C64.4618 28.1854 64.9189 28.3747 65.3954 28.3747Z" fill="#AFDAD2" stroke="white" stroke-width="0.25"/>
<path d="M47.4458 27.3291C47.9354 27.3291 48.4051 27.1346 48.7513 26.7884C49.0975 26.4422 49.292 25.9725 49.292 25.4829C49.292 24.9933 49.0975 24.5237 48.7513 24.1775C48.4051 23.8312 47.9354 23.6367 47.4458 23.6367C46.9562 23.6367 46.4866 23.8312 46.1403 24.1775C45.7941 24.5237 45.5996 24.9933 45.5996 25.4829C45.5996 25.9725 45.7941 26.4422 46.1403 26.7884C46.4866 27.1346 46.9562 27.3291 47.4458 27.3291Z" fill="#AFDAD2" stroke="white" stroke-width="0.25"/>
<path d="M24.318 45.0705C24.7153 45.0705 25.0964 44.9127 25.3773 44.6317C25.6583 44.3508 25.8161 43.9697 25.8161 43.5724C25.8161 43.1751 25.6583 42.794 25.3773 42.513C25.0964 42.2321 24.7153 42.0742 24.318 42.0742C23.9207 42.0742 23.5396 42.2321 23.2586 42.513C22.9777 42.794 22.8198 43.1751 22.8198 43.5724C22.8198 43.9697 22.9777 44.3508 23.2586 44.6317C23.5396 44.9127 23.9207 45.0705 24.318 45.0705Z" fill="#AFDAD2" stroke="white" stroke-width="0.25"/>
<path d="M73.6625 29.1492C74.2676 29.1492 74.848 28.9088 75.2759 28.481C75.7038 28.0531 75.9442 27.4727 75.9442 26.8676C75.9442 26.2625 75.7038 25.6821 75.2759 25.2542C74.848 24.8263 74.2676 24.5859 73.6625 24.5859C73.0574 24.5859 72.477 24.8263 72.0491 25.2542C71.6213 25.6821 71.3809 26.2625 71.3809 26.8676C71.3809 27.4727 71.6213 28.0531 72.0491 28.481C72.477 28.9088 73.0574 29.1492 73.6625 29.1492Z" fill="#AFDAD2" stroke="white" stroke-width="0.25"/>
<path d="M51.6463 27.6066C52.2017 27.6066 52.7345 27.3859 53.1272 26.9932C53.5199 26.6004 53.7406 26.0677 53.7406 25.5123C53.7406 24.9569 53.5199 24.4241 53.1272 24.0314C52.7345 23.6386 52.2017 23.418 51.6463 23.418C51.0909 23.418 50.5581 23.6386 50.1654 24.0314C49.7727 24.4241 49.552 24.9569 49.552 25.5123C49.552 26.0677 49.7727 26.6004 50.1654 26.9932C50.5581 27.3859 51.0909 27.6066 51.6463 27.6066Z" fill="#AFDAD2" stroke="white" stroke-width="0.25"/>
<path d="M27.3135 29.2935C27.8284 29.2935 28.3223 29.0889 28.6865 28.7248C29.0506 28.3607 29.2552 27.8668 29.2552 27.3518C29.2552 26.8369 29.0506 26.343 28.6865 25.9789C28.3223 25.6147 27.8284 25.4102 27.3135 25.4102C26.7986 25.4102 26.3046 25.6147 25.9405 25.9789C25.5764 26.343 25.3718 26.8369 25.3718 27.3518C25.3718 27.8668 25.5764 28.3607 25.9405 28.7248C26.3046 29.0889 26.7986 29.2935 27.3135 29.2935Z" fill="#AFDAD2" stroke="white" stroke-width="0.25"/>
<path d="M38.1198 24.2786C38.7151 24.2786 39.2861 24.0421 39.7071 23.6211C40.128 23.2002 40.3646 22.6292 40.3646 22.0338C40.3646 21.4385 40.128 20.8675 39.7071 20.4465C39.2861 20.0256 38.7151 19.7891 38.1198 19.7891C37.5245 19.7891 36.9534 20.0256 36.5325 20.4465C36.1115 20.8675 35.875 21.4385 35.875 22.0338C35.875 22.6292 36.1115 23.2002 36.5325 23.6211C36.9534 24.0421 37.5245 24.2786 38.1198 24.2786Z" fill="#AFDAD2" stroke="white" stroke-width="0.25"/>
<path d="M80.2366 27.3044C80.6044 27.3044 80.9571 27.1583 81.2171 26.8982C81.4771 26.6382 81.6232 26.2855 81.6232 25.9178C81.6232 25.5501 81.4771 25.1974 81.2171 24.9374C80.9571 24.6773 80.6044 24.5312 80.2366 24.5312C79.8689 24.5312 79.5162 24.6773 79.2562 24.9374C78.9962 25.1974 78.8501 25.5501 78.8501 25.9178C78.8501 26.2855 78.9962 26.6382 79.2562 26.8982C79.5162 27.1583 79.8689 27.3044 80.2366 27.3044Z" fill="#AFDAD2" stroke="white" stroke-width="0.25"/>
<path d="M31.9377 21.641C32.4055 21.641 32.8542 21.4551 33.1849 21.1244C33.5157 20.7936 33.7015 20.3449 33.7015 19.8771C33.7015 19.4094 33.5157 18.9607 33.1849 18.6299C32.8542 18.2991 32.4055 18.1133 31.9377 18.1133C31.4699 18.1133 31.0212 18.2991 30.6904 18.6299C30.3597 18.9607 30.1738 19.4094 30.1738 19.8771C30.1738 20.3449 30.3597 20.7936 30.6904 21.1244C31.0212 21.4551 31.4699 21.641 31.9377 21.641Z" fill="#AFDAD2" stroke="white" stroke-width="0.25"/>
<path d="M39.8918 29.5415C40.29 29.5415 40.6718 29.3833 40.9534 29.1018C41.2349 28.8203 41.3931 28.4384 41.3931 28.0403C41.3931 27.6422 41.2349 27.2603 40.9534 26.9788C40.6718 26.6972 40.29 26.5391 39.8918 26.5391C39.4937 26.5391 39.1118 26.6972 38.8303 26.9788C38.5488 27.2603 38.3906 27.6422 38.3906 28.0403C38.3906 28.4384 38.5488 28.8203 38.8303 29.1018C39.1118 29.3833 39.4937 29.5415 39.8918 29.5415Z" fill="#AFDAD2" stroke="white" stroke-width="0.25"/>
<path d="M43.4876 26.2847C43.8921 26.2847 44.28 26.124 44.566 25.838C44.8521 25.552 45.0128 25.164 45.0128 24.7596C45.0128 24.3551 44.8521 23.9671 44.566 23.6811C44.28 23.3951 43.8921 23.2344 43.4876 23.2344C43.0831 23.2344 42.6951 23.3951 42.4091 23.6811C42.1231 23.9671 41.9624 24.3551 41.9624 24.7596C41.9624 25.164 42.1231 25.552 42.4091 25.838C42.6951 26.124 43.0831 26.2847 43.4876 26.2847Z" fill="#AFDAD2" stroke="white" stroke-width="0.25"/>
<path d="M19.9332 30.1569C20.3404 30.1569 20.731 29.9951 21.019 29.7072C21.3069 29.4192 21.4687 29.0286 21.4687 28.6214C21.4687 28.2142 21.3069 27.8236 21.019 27.5357C20.731 27.2477 20.3404 27.0859 19.9332 27.0859C19.526 27.0859 19.1354 27.2477 18.8474 27.5357C18.5595 27.8236 18.3977 28.2142 18.3977 28.6214C18.3977 29.0286 18.5595 29.4192 18.8474 29.7072C19.1354 29.9951 19.526 30.1569 19.9332 30.1569Z" fill="#AFDAD2" stroke="white" stroke-width="0.25"/>
<path d="M24.1614 24.1885C24.535 24.1885 24.8933 24.04 25.1575 23.7759C25.4216 23.5117 25.5701 23.1534 25.5701 22.7798C25.5701 22.4062 25.4216 22.0479 25.1575 21.7837C24.8933 21.5195 24.535 21.3711 24.1614 21.3711C23.7878 21.3711 23.4294 21.5195 23.1653 21.7837C22.9011 22.0479 22.7527 22.4062 22.7527 22.7798C22.7527 23.1534 22.9011 23.5117 23.1653 23.7759C23.4294 24.04 23.7878 24.1885 24.1614 24.1885Z" fill="#AFDAD2" stroke="white" stroke-width="0.25"/>
<path d="M56.6604 28.5606C56.9735 28.5606 57.2739 28.4362 57.4953 28.2148C57.7167 27.9934 57.8411 27.693 57.8411 27.3799C57.8411 27.0668 57.7167 26.7664 57.4953 26.545C57.2739 26.3236 56.9735 26.1992 56.6604 26.1992C56.3473 26.1992 56.047 26.3236 55.8255 26.545C55.6041 26.7664 55.4797 27.0668 55.4797 27.3799C55.4797 27.693 55.6041 27.9934 55.8255 28.2148C56.047 28.4362 56.3473 28.5606 56.6604 28.5606Z" fill="#AFDAD2" stroke="white" stroke-width="0.25"/>
<path d="M18.8498 37.9301C19.3673 37.9301 19.8637 37.7245 20.2296 37.3585C20.5956 36.9926 20.8012 36.4962 20.8012 35.9787C20.8012 35.4612 20.5956 34.9648 20.2296 34.5989C19.8637 34.233 19.3673 34.0273 18.8498 34.0273C18.3323 34.0273 17.8359 34.233 17.47 34.5989C17.104 34.9648 16.8984 35.4612 16.8984 35.9787C16.8984 36.4962 17.104 36.9926 17.47 37.3585C17.8359 37.7245 18.3323 37.9301 18.8498 37.9301Z" fill="#AFDAD2" stroke="white" stroke-width="0.25"/>
<path d="M14.4916 34.641C14.8807 34.641 15.2538 34.4864 15.5289 34.2113C15.804 33.9362 15.9586 33.563 15.9586 33.174C15.9586 32.785 15.804 32.4118 15.5289 32.1367C15.2538 31.8616 14.8807 31.707 14.4916 31.707C14.1026 31.707 13.7294 31.8616 13.4543 32.1367C13.1792 32.4118 13.0247 32.785 13.0247 33.174C13.0247 33.563 13.1792 33.9362 13.4543 34.2113C13.7294 34.4864 14.1026 34.641 14.4916 34.641Z" fill="#AFDAD2" stroke="white" stroke-width="0.25"/>
<path d="M60.687 28.2168C61.0783 28.2168 61.4537 28.0613 61.7304 27.7846C62.0071 27.5079 62.1626 27.1325 62.1626 26.7412C62.1626 26.3499 62.0071 25.9745 61.7304 25.6978C61.4537 25.4211 61.0783 25.2656 60.687 25.2656C60.2957 25.2656 59.9203 25.4211 59.6436 25.6978C59.3669 25.9745 59.2114 26.3499 59.2114 26.7412C59.2114 27.1325 59.3669 27.5079 59.6436 27.7846C59.9203 28.0613 60.2957 28.2168 60.687 28.2168Z" fill="#AFDAD2" stroke="white" stroke-width="0.25"/>
<path d="M27.1389 35.8778C27.7422 35.8778 28.3208 35.6382 28.7474 35.2116C29.174 34.785 29.4137 34.2063 29.4137 33.603C29.4137 32.9997 29.174 32.421 28.7474 31.9944C28.3208 31.5678 27.7422 31.3281 27.1389 31.3281C26.5356 31.3281 25.9569 31.5678 25.5303 31.9944C25.1037 32.421 24.864 32.9997 24.864 33.603C24.864 34.2063 25.1037 34.785 25.5303 35.2116C25.9569 35.6382 26.5356 35.8778 27.1389 35.8778Z" fill="#AFDAD2" stroke="white" stroke-width="0.25"/>
<path d="M77.2532 25.5376C77.858 25.5376 78.4381 25.2973 78.8657 24.8696C79.2934 24.442 79.5337 23.8619 79.5337 23.2571C79.5337 22.6523 79.2934 22.0722 78.8657 21.6445C78.4381 21.2169 77.858 20.9766 77.2532 20.9766C76.6484 20.9766 76.0683 21.2169 75.6406 21.6445C75.2129 22.0722 74.9727 22.6523 74.9727 23.2571C74.9727 23.8619 75.2129 24.442 75.6406 24.8696C76.0683 25.2973 76.6484 25.5376 77.2532 25.5376Z" fill="#AFDAD2" stroke="white" stroke-width="0.25"/>
<path d="M20.0594 47.0261C20.4105 47.0261 20.7472 46.8867 20.9954 46.6384C21.2436 46.3902 21.3831 46.0535 21.3831 45.7025C21.3831 45.3515 21.2436 45.0148 20.9954 44.7666C20.7472 44.5184 20.4105 44.3789 20.0594 44.3789C19.7084 44.3789 19.3717 44.5184 19.1235 44.7666C18.8753 45.0148 18.7358 45.3515 18.7358 45.7025C18.7358 46.0535 18.8753 46.3902 19.1235 46.6384C19.3717 46.8867 19.7084 47.0261 20.0594 47.0261Z" fill="#AFDAD2" stroke="white" stroke-width="0.25"/>
<path d="M53.1235 21.2061C53.6062 21.2061 54.0691 21.0143 54.4104 20.6731C54.7516 20.3318 54.9434 19.8689 54.9434 19.3862C54.9434 18.9036 54.7516 18.4407 54.4104 18.0994C54.0691 17.7582 53.6062 17.5664 53.1235 17.5664C52.6409 17.5664 52.178 17.7582 51.8367 18.0994C51.4955 18.4407 51.3037 18.9036 51.3037 19.3862C51.3037 19.8689 51.4955 20.3318 51.8367 20.6731C52.178 21.0143 52.6409 21.2061 53.1235 21.2061Z" fill="#AFDAD2" stroke="white" stroke-width="0.25"/>
<path d="M90.9344 23.7102C91.4274 23.7102 91.9003 23.5143 92.2489 23.1657C92.5975 22.8171 92.7934 22.3442 92.7934 21.8512C92.7934 21.3582 92.5975 20.8853 92.2489 20.5367C91.9003 20.1881 91.4274 19.9922 90.9344 19.9922C90.4414 19.9922 89.9685 20.1881 89.6199 20.5367C89.2713 20.8853 89.0754 21.3582 89.0754 21.8512C89.0754 22.3442 89.2713 22.8171 89.6199 23.1657C89.9685 23.5143 90.4414 23.7102 90.9344 23.7102Z" fill="#AFDAD2" stroke="white" stroke-width="0.25"/>
<path d="M66.2036 22.7651C66.5962 22.7651 66.9727 22.6092 67.2503 22.3316C67.5279 22.054 67.6838 21.6775 67.6838 21.2849C67.6838 20.8923 67.5279 20.5158 67.2503 20.2382C66.9727 19.9607 66.5962 19.8047 66.2036 19.8047C65.811 19.8047 65.4345 19.9607 65.1569 20.2382C64.8794 20.5158 64.7234 20.8923 64.7234 21.2849C64.7234 21.6775 64.8794 22.054 65.1569 22.3316C65.4345 22.6092 65.811 22.7651 66.2036 22.7651Z" fill="#AFDAD2" stroke="white" stroke-width="0.25"/>
<path d="M33.9313 42.2933C34.4431 42.2933 34.934 42.09 35.2959 41.7281C35.6578 41.3662 35.8612 40.8753 35.8612 40.3634C35.8612 39.8516 35.6578 39.3607 35.2959 38.9988C34.934 38.6369 34.4431 38.4336 33.9313 38.4336C33.4195 38.4336 32.9286 38.6369 32.5667 38.9988C32.2048 39.3607 32.0015 39.8516 32.0015 40.3634C32.0015 40.8753 32.2048 41.3662 32.5667 41.7281C32.9286 42.09 33.4195 42.2933 33.9313 42.2933Z" fill="#AFDAD2" stroke="white" stroke-width="0.25"/>
<path d="M71.2239 23.4024C71.7139 23.4024 72.1839 23.2077 72.5304 22.8612C72.8769 22.5147 73.0715 22.0447 73.0715 21.5547C73.0715 21.0647 72.8769 20.5947 72.5304 20.2482C72.1839 19.9017 71.7139 19.707 71.2239 19.707C70.7339 19.707 70.2639 19.9017 69.9174 20.2482C69.5709 20.5947 69.3762 21.0647 69.3762 21.5547C69.3762 22.0447 69.5709 22.5147 69.9174 22.8612C70.2639 23.2077 70.7339 23.4024 71.2239 23.4024Z" fill="#AFDAD2" stroke="white" stroke-width="0.25"/>
<path d="M84.3076 25.203C84.7136 25.203 85.1031 25.0417 85.3903 24.7545C85.6774 24.4674 85.8388 24.0779 85.8388 23.6718C85.8388 23.2657 85.6774 22.8762 85.3903 22.5891C85.1031 22.302 84.7136 22.1406 84.3076 22.1406C83.9015 22.1406 83.512 22.302 83.2248 22.5891C82.9377 22.8762 82.7764 23.2657 82.7764 23.6718C82.7764 24.0779 82.9377 24.4674 83.2248 24.7545C83.512 25.0417 83.9015 25.203 84.3076 25.203Z" fill="#AFDAD2" stroke="white" stroke-width="0.25"/>
<path d="M98.7625 28.522C99.1285 28.522 99.4796 28.3766 99.7384 28.1178C99.9972 27.859 100.143 27.5079 100.143 27.1419C100.143 26.7759 99.9972 26.4248 99.7384 26.166C99.4796 25.9071 99.1285 25.7617 98.7625 25.7617C98.3965 25.7617 98.0454 25.9071 97.7866 26.166C97.5278 26.4248 97.3823 26.7759 97.3823 27.1419C97.3823 27.5079 97.5278 27.859 97.7866 28.1178C98.0454 28.3766 98.3965 28.522 98.7625 28.522Z" fill="#AFDAD2" stroke="white" stroke-width="0.25"/>
<path d="M47.1131 18.3791C47.4286 18.3791 47.7312 18.2537 47.9542 18.0307C48.1773 17.8076 48.3027 17.505 48.3027 17.1895C48.3027 16.8741 48.1773 16.5715 47.9542 16.3484C47.7312 16.1253 47.4286 16 47.1131 16C46.7976 16 46.4951 16.1253 46.272 16.3484C46.0489 16.5715 45.9236 16.8741 45.9236 17.1895C45.9236 17.505 46.0489 17.8076 46.272 18.0307C46.4951 18.2537 46.7976 18.3791 47.1131 18.3791Z" fill="#AFDAD2" stroke="white" stroke-width="0.25"/>
<path d="M57.9292 15.1157C58.391 15.1157 58.834 14.9322 59.1606 14.6057C59.4872 14.2791 59.6707 13.8361 59.6707 13.3743C59.6707 12.9124 59.4872 12.4694 59.1606 12.1429C58.834 11.8163 58.391 11.6328 57.9292 11.6328C57.4674 11.6328 57.0244 11.8163 56.6978 12.1429C56.3712 12.4694 56.1877 12.9124 56.1877 13.3743C56.1877 13.8361 56.3712 14.2791 56.6978 14.6057C57.0244 14.9322 57.4674 15.1157 57.9292 15.1157Z" fill="#AFDAD2" stroke="white" stroke-width="0.25"/>
<path d="M98.4545 24.4481C99.063 24.4481 99.6466 24.2063 100.077 23.7761C100.507 23.3458 100.749 22.7622 100.749 22.1537C100.749 21.5453 100.507 20.9616 100.077 20.5314C99.6466 20.1011 99.063 19.8594 98.4545 19.8594C97.846 19.8594 97.2624 20.1011 96.8322 20.5314C96.4019 20.9616 96.1602 21.5453 96.1602 22.1537C96.1602 22.7622 96.4019 23.3458 96.8322 23.7761C97.2624 24.2063 97.846 24.4481 98.4545 24.4481Z" fill="#AFDAD2" stroke="white" stroke-width="0.25"/>
<path d="M55.3015 25.3872C55.8765 25.3872 56.4281 25.1588 56.8347 24.7522C57.2413 24.3456 57.4697 23.794 57.4697 23.219C57.4697 22.644 57.2413 22.0924 56.8347 21.6858C56.4281 21.2792 55.8765 21.0508 55.3015 21.0508C54.7265 21.0508 54.175 21.2792 53.7684 21.6858C53.3618 22.0924 53.1333 22.644 53.1333 23.219C53.1333 23.794 53.3618 24.3456 53.7684 24.7522C54.175 25.1588 54.7265 25.3872 55.3015 25.3872Z" fill="#AFDAD2" stroke="white" stroke-width="0.25"/>
<path d="M63.3231 17.2634C63.8967 17.2634 64.4469 17.0355 64.8525 16.6299C65.2582 16.2243 65.4861 15.6741 65.4861 15.1005C65.4861 14.5268 65.2582 13.9766 64.8525 13.571C64.4469 13.1654 63.8967 12.9375 63.3231 12.9375C62.7495 12.9375 62.1993 13.1654 61.7937 13.571C61.3881 13.9766 61.1602 14.5268 61.1602 15.1005C61.1602 15.6741 61.3881 16.2243 61.7937 16.6299C62.1993 17.0355 62.7495 17.2634 63.3231 17.2634Z" fill="#AFDAD2" stroke="white" stroke-width="0.25"/>
<path d="M82.0739 19.8954C82.6682 19.8954 83.2382 19.6593 83.6583 19.2392C84.0785 18.819 84.3146 18.249 84.3146 17.6547C84.3146 17.0605 84.0785 16.4905 83.6583 16.0703C83.2382 15.6502 82.6682 15.4141 82.0739 15.4141C81.4797 15.4141 80.9097 15.6502 80.4895 16.0703C80.0694 16.4905 79.8333 17.0605 79.8333 17.6547C79.8333 18.249 80.0694 18.819 80.4895 19.2392C80.9097 19.6593 81.4797 19.8954 82.0739 19.8954Z" fill="#AFDAD2" stroke="white" stroke-width="0.25"/>
<path d="M105.272 33.9811C105.834 33.9811 106.374 33.7576 106.772 33.3598C107.17 32.9619 107.393 32.4223 107.393 31.8597C107.393 31.2971 107.17 30.7575 106.772 30.3596C106.374 29.9618 105.834 29.7383 105.272 29.7383C104.709 29.7383 104.17 29.9618 103.772 30.3596C103.374 30.7575 103.15 31.2971 103.15 31.8597C103.15 32.4223 103.374 32.9619 103.772 33.3598C104.17 33.7576 104.709 33.9811 105.272 33.9811Z" fill="#AFDAD2" stroke="white" stroke-width="0.25"/>
<path d="M57.4392 8.3013C57.7604 8.3013 58.0685 8.17368 58.2957 7.94655C58.5228 7.71942 58.6504 7.41132 58.6504 7.0901C58.6504 6.76889 58.5228 6.46079 58.2957 6.23366C58.0685 6.00653 57.7604 5.87891 57.4392 5.87891C57.118 5.87891 56.8099 6.00653 56.5828 6.23366C56.3556 6.46079 56.228 6.76889 56.228 7.0901C56.228 7.41132 56.3556 7.71942 56.5828 7.94655C56.8099 8.17368 57.118 8.3013 57.4392 8.3013Z" fill="#AFDAD2" stroke="white" stroke-width="0.25"/>
<path d="M76.7819 21.1576C77.3213 21.1576 77.8387 20.9433 78.2201 20.5619C78.6015 20.1805 78.8158 19.6631 78.8158 19.1237C78.8158 18.5843 78.6015 18.067 78.2201 17.6856C77.8387 17.3041 77.3213 17.0898 76.7819 17.0898C76.2425 17.0898 75.7252 17.3041 75.3438 17.6856C74.9623 18.067 74.748 18.5843 74.748 19.1237C74.748 19.6631 74.9623 20.1805 75.3438 20.5619C75.7252 20.9433 76.2425 21.1576 76.7819 21.1576Z" fill="#AFDAD2" stroke="white" stroke-width="0.25"/>
<path d="M74.0607 17.2522C74.4961 17.2522 74.9137 17.0793 75.2216 16.7714C75.5295 16.4635 75.7024 16.0459 75.7024 15.6105C75.7024 15.1751 75.5295 14.7575 75.2216 14.4496C74.9137 14.1417 74.4961 13.9688 74.0607 13.9688C73.6253 13.9688 73.2077 14.1417 72.8998 14.4496C72.5919 14.7575 72.4189 15.1751 72.4189 15.6105C72.4189 16.0459 72.5919 16.4635 72.8998 16.7714C73.2077 17.0793 73.6253 17.2522 74.0607 17.2522Z" fill="#AFDAD2" stroke="white" stroke-width="0.25"/>
<path d="M65.8104 13.674C66.3691 13.674 66.9049 13.4521 67.3 13.057C67.695 12.662 67.917 12.1261 67.917 11.5675C67.917 11.0088 67.695 10.473 67.3 10.0779C66.9049 9.6829 66.3691 9.46094 65.8104 9.46094C65.2517 9.46094 64.7159 9.6829 64.3209 10.0779C63.9258 10.473 63.7039 11.0088 63.7039 11.5675C63.7039 12.1261 63.9258 12.662 64.3209 13.057C64.7159 13.4521 65.2517 13.674 65.8104 13.674Z" fill="#AFDAD2" stroke="white" stroke-width="0.25"/>
<path d="M42.5735 22.2657C43.1998 22.2657 43.8005 22.0169 44.2433 21.5741C44.6861 21.1313 44.9349 20.5306 44.9349 19.9044C44.9349 19.2781 44.6861 18.6774 44.2433 18.2346C43.8005 17.7918 43.1998 17.543 42.5735 17.543C41.9473 17.543 41.3466 17.7918 40.9038 18.2346C40.461 18.6774 40.2122 19.2781 40.2122 19.9044C40.2122 20.5306 40.461 21.1313 40.9038 21.5741C41.3466 22.0169 41.9473 22.2657 42.5735 22.2657Z" fill="#AFDAD2" stroke="white" stroke-width="0.25"/>
<path d="M28.0044 18.7905C28.3454 18.7905 28.6725 18.655 28.9137 18.4139C29.1548 18.1728 29.2903 17.8457 29.2903 17.5046C29.2903 17.1636 29.1548 16.8365 28.9137 16.5954C28.6725 16.3542 28.3454 16.2188 28.0044 16.2188C27.6634 16.2188 27.3363 16.3542 27.0951 16.5954C26.854 16.8365 26.7185 17.1636 26.7185 17.5046C26.7185 17.8457 26.854 18.1728 27.0951 18.4139C27.3363 18.655 27.6634 18.7905 28.0044 18.7905Z" fill="#AFDAD2" stroke="white" stroke-width="0.25"/>
<path d="M34.118 17.9279C34.5601 17.9279 34.9842 17.7523 35.2968 17.4396C35.6094 17.127 35.7851 16.703 35.7851 16.2608C35.7851 15.8187 35.6094 15.3947 35.2968 15.082C34.9842 14.7694 34.5601 14.5938 34.118 14.5938C33.6759 14.5938 33.2518 14.7694 32.9392 15.082C32.6266 15.3947 32.4509 15.8187 32.4509 16.2608C32.4509 16.703 32.6266 17.127 32.9392 17.4396C33.2518 17.7523 33.6759 17.9279 34.118 17.9279Z" fill="#AFDAD2" stroke="white" stroke-width="0.25"/>
<path d="M90.1307 28.0276C90.6757 28.0276 91.1984 27.8111 91.5837 27.4258C91.969 27.0404 92.1855 26.5177 92.1855 25.9728C92.1855 25.4278 91.969 24.9051 91.5837 24.5198C91.1984 24.1345 90.6757 23.918 90.1307 23.918C89.5858 23.918 89.0631 24.1345 88.6778 24.5198C88.2924 24.9051 88.0759 25.4278 88.0759 25.9728C88.0759 26.5177 88.2924 27.0404 88.6778 27.4258C89.0631 27.8111 89.5858 28.0276 90.1307 28.0276Z" fill="#AFDAD2" stroke="white" stroke-width="0.25"/>
<path d="M67.5868 17.1961C67.8894 17.1961 68.1797 17.0759 68.3937 16.8619C68.6076 16.6479 68.7279 16.3577 68.7279 16.0551C68.7279 15.7525 68.6076 15.4622 68.3937 15.2483C68.1797 15.0343 67.8894 14.9141 67.5868 14.9141C67.2842 14.9141 66.994 15.0343 66.78 15.2483C66.566 15.4622 66.4458 15.7525 66.4458 16.0551C66.4458 16.3577 66.566 16.6479 66.78 16.8619C66.994 17.0759 67.2842 17.1961 67.5868 17.1961Z" fill="#AFDAD2" stroke="white" stroke-width="0.25"/>
<path d="M43.3563 17.426C43.9302 17.426 44.4808 17.1979 44.8866 16.7921C45.2924 16.3863 45.5205 15.8358 45.5205 15.2618C45.5205 14.6879 45.2924 14.1374 44.8866 13.7315C44.4808 13.3257 43.9302 13.0977 43.3563 13.0977C42.7824 13.0977 42.2318 13.3257 41.826 13.7315C41.4202 14.1374 41.1921 14.6879 41.1921 15.2618C41.1921 15.8358 41.4202 16.3863 41.826 16.7921C42.2318 17.1979 42.7824 17.426 43.3563 17.426Z" fill="#AFDAD2" stroke="white" stroke-width="0.25"/>
<path d="M11.5997 43.9548C12.0987 43.9548 12.5774 43.7565 12.9303 43.4036C13.2831 43.0508 13.4814 42.5721 13.4814 42.0731C13.4814 41.5741 13.2831 41.0954 12.9303 40.7425C12.5774 40.3897 12.0987 40.1914 11.5997 40.1914C11.1007 40.1914 10.622 40.3897 10.2692 40.7425C9.91628 41.0954 9.71802 41.5741 9.71802 42.0731C9.71802 42.5721 9.91628 43.0508 10.2692 43.4036C10.622 43.7565 11.1007 43.9548 11.5997 43.9548Z" fill="#AFDAD2" stroke="white" stroke-width="0.25"/>
<path d="M16.6121 44.6026C17.1919 44.6026 17.748 44.3723 18.1579 43.9623C18.5678 43.5524 18.7982 42.9963 18.7982 42.4165C18.7982 41.8368 18.5678 41.2807 18.1579 40.8708C17.748 40.4608 17.1919 40.2305 16.6121 40.2305C16.0324 40.2305 15.4763 40.4608 15.0663 40.8708C14.6564 41.2807 14.426 41.8368 14.426 42.4165C14.426 42.9963 14.6564 43.5524 15.0663 43.9623C15.4763 44.3723 16.0324 44.6026 16.6121 44.6026Z" fill="#AFDAD2" stroke="white" stroke-width="0.25"/>
<path d="M34.2787 25.329C34.8367 25.329 35.3719 25.1073 35.7665 24.7127C36.161 24.3182 36.3827 23.783 36.3827 23.225C36.3827 22.6671 36.161 22.1319 35.7665 21.7373C35.3719 21.3428 34.8367 21.1211 34.2787 21.1211C33.7208 21.1211 33.1856 21.3428 32.791 21.7373C32.3965 22.1319 32.1748 22.6671 32.1748 23.225C32.1748 23.783 32.3965 24.3182 32.791 24.7127C33.1856 25.1073 33.7208 25.329 34.2787 25.329Z" fill="#AFDAD2" stroke="white" stroke-width="0.25"/>
<path d="M12.2181 39.2691C12.6505 39.2691 13.0653 39.0973 13.3711 38.7915C13.6769 38.4857 13.8487 38.0709 13.8487 37.6385C13.8487 37.206 13.6769 36.7912 13.3711 36.4854C13.0653 36.1796 12.6505 36.0078 12.2181 36.0078C11.7856 36.0078 11.3708 36.1796 11.065 36.4854C10.7592 36.7912 10.5874 37.206 10.5874 37.6385C10.5874 38.0709 10.7592 38.4857 11.065 38.7915C11.3708 39.0973 11.7856 39.2691 12.2181 39.2691Z" fill="#AFDAD2" stroke="white" stroke-width="0.25"/>
<path d="M77.9703 15.6002C78.4435 15.6002 78.8974 15.4121 79.2321 15.0775C79.5667 14.7429 79.7547 14.289 79.7547 13.8157C79.7547 13.3425 79.5667 12.8885 79.2321 12.5539C78.8974 12.2193 78.4435 12.0312 77.9703 12.0312C77.497 12.0312 77.0431 12.2193 76.7085 12.5539C76.3738 12.8885 76.1858 13.3425 76.1858 13.8157C76.1858 14.289 76.3738 14.7429 76.7085 15.0775C77.0431 15.4121 77.497 15.6002 77.9703 15.6002Z" fill="#AFDAD2" stroke="white" stroke-width="0.25"/>
<path d="M28.2932 23.0913C28.7238 23.0913 29.1369 22.9202 29.4414 22.6157C29.7459 22.3112 29.917 21.8982 29.917 21.4675C29.917 21.0369 29.7459 20.6238 29.4414 20.3193C29.1369 20.0148 28.7238 19.8438 28.2932 19.8438C27.8626 19.8438 27.4495 20.0148 27.145 20.3193C26.8405 20.6238 26.6694 21.0369 26.6694 21.4675C26.6694 21.8982 26.8405 22.3112 27.145 22.6157C27.4495 22.9202 27.8626 23.0913 28.2932 23.0913Z" fill="#AFDAD2" stroke="white" stroke-width="0.25"/>
<path d="M20.421 42.6526C21.025 42.6526 21.6044 42.4127 22.0315 41.9856C22.4586 41.5585 22.6985 40.9791 22.6985 40.3751C22.6985 39.7712 22.4586 39.1918 22.0315 38.7647C21.6044 38.3376 21.025 38.0977 20.421 38.0977C19.817 38.0977 19.2377 38.3376 18.8106 38.7647C18.3835 39.1918 18.1436 39.7712 18.1436 40.3751C18.1436 40.9791 18.3835 41.5585 18.8106 41.9856C19.2377 42.4127 19.817 42.6526 20.421 42.6526Z" fill="#AFDAD2" stroke="white" stroke-width="0.25"/>
<path d="M94.4545 27.1541C95.0463 27.1541 95.6139 26.919 96.0323 26.5006C96.4508 26.0821 96.6859 25.5145 96.6859 24.9228C96.6859 24.331 96.4508 23.7634 96.0323 23.345C95.6139 22.9265 95.0463 22.6914 94.4545 22.6914C93.8627 22.6914 93.2951 22.9265 92.8767 23.345C92.4583 23.7634 92.2231 24.331 92.2231 24.9228C92.2231 25.5145 92.4583 26.0821 92.8767 26.5006C93.2951 26.919 93.8627 27.1541 94.4545 27.1541Z" fill="#AFDAD2" stroke="white" stroke-width="0.25"/>
<path d="M102.5 26.8858C102.907 26.8858 103.297 26.7241 103.585 26.4363C103.873 26.1485 104.034 25.7581 104.034 25.3511C104.034 24.9441 103.873 24.5537 103.585 24.2659C103.297 23.9781 102.907 23.8164 102.5 23.8164C102.093 23.8164 101.702 23.9781 101.414 24.2659C101.127 24.5537 100.965 24.9441 100.965 25.3511C100.965 25.7581 101.127 26.1485 101.414 26.4363C101.702 26.7241 102.093 26.8858 102.5 26.8858Z" fill="#AFDAD2" stroke="white" stroke-width="0.25"/>
<path d="M49.443 23.0906C49.8963 23.0906 50.3312 22.9105 50.6517 22.59C50.9723 22.2694 51.1524 21.8346 51.1524 21.3812C51.1524 20.9279 50.9723 20.4931 50.6517 20.1725C50.3312 19.852 49.8963 19.6719 49.443 19.6719C48.9897 19.6719 48.5549 19.852 48.2343 20.1725C47.9138 20.4931 47.7336 20.9279 47.7336 21.3812C47.7336 21.8346 47.9138 22.2694 48.2343 22.59C48.5549 22.9105 48.9897 23.0906 49.443 23.0906Z" fill="#AFDAD2" stroke="white" stroke-width="0.25"/>
<path d="M86.9676 21.168C87.3472 21.168 87.7114 21.0172 87.9799 20.7487C88.2484 20.4802 88.3992 20.116 88.3992 19.7364C88.3992 19.3567 88.2484 18.9925 87.9799 18.724C87.7114 18.4555 87.3472 18.3047 86.9676 18.3047C86.5879 18.3047 86.2237 18.4555 85.9552 18.724C85.6867 18.9925 85.5359 19.3567 85.5359 19.7364C85.5359 20.116 85.6867 20.4802 85.9552 20.7487C86.2237 21.0172 86.5879 21.168 86.9676 21.168Z" fill="#AFDAD2" stroke="white" stroke-width="0.25"/>
<path d="M86.3524 17.5802C86.9716 17.5802 87.5656 17.3342 88.0035 16.8963C88.4413 16.4584 88.6874 15.8644 88.6874 15.2452C88.6874 14.6259 88.4413 14.0319 88.0035 13.5941C87.5656 13.1562 86.9716 12.9102 86.3524 12.9102C85.7331 12.9102 85.1391 13.1562 84.7012 13.5941C84.2634 14.0319 84.0173 14.6259 84.0173 15.2452C84.0173 15.8644 84.2634 16.4584 84.7012 16.8963C85.1391 17.3342 85.7331 17.5802 86.3524 17.5802Z" fill="#AFDAD2" stroke="white" stroke-width="0.25"/>
<path d="M57.5634 21.5579C58.117 21.5579 58.6481 21.338 59.0395 20.9465C59.431 20.555 59.651 20.024 59.651 19.4704C59.651 18.9167 59.431 18.3857 59.0395 17.9942C58.6481 17.6028 58.117 17.3828 57.5634 17.3828C57.0098 17.3828 56.4787 17.6028 56.0873 17.9942C55.6958 18.3857 55.4758 18.9167 55.4758 19.4704C55.4758 20.024 55.6958 20.555 56.0873 20.9465C56.4787 21.338 57.0098 21.5579 57.5634 21.5579Z" fill="#AFDAD2" stroke="white" stroke-width="0.25"/>
<path d="M101.679 31.6522C102.154 31.6522 102.61 31.4635 102.945 31.1276C103.281 30.7918 103.47 30.3362 103.47 29.8612C103.47 29.3863 103.281 28.9307 102.945 28.5949C102.61 28.259 102.154 28.0703 101.679 28.0703C101.204 28.0703 100.749 28.259 100.413 28.5949C100.077 28.9307 99.8882 29.3863 99.8882 29.8612C99.8882 30.3362 100.077 30.7918 100.413 31.1276C100.749 31.4635 101.204 31.6522 101.679 31.6522Z" fill="#AFDAD2" stroke="white" stroke-width="0.25"/>
<path d="M16.1829 47.8233C16.4615 47.8233 16.7286 47.7127 16.9256 47.5157C17.1226 47.3187 17.2332 47.0515 17.2332 46.773C17.2332 46.4944 17.1226 46.2273 16.9256 46.0303C16.7286 45.8333 16.4615 45.7227 16.1829 45.7227C15.9044 45.7227 15.6372 45.8333 15.4402 46.0303C15.2432 46.2273 15.1326 46.4944 15.1326 46.773C15.1326 47.0515 15.2432 47.3187 15.4402 47.5157C15.6372 47.7127 15.9044 47.8233 16.1829 47.8233Z" fill="#AFDAD2" stroke="white" stroke-width="0.25"/>
<path d="M38.2582 18.6956C38.7783 18.6956 39.2771 18.4889 39.6449 18.1212C40.0126 17.7534 40.2192 17.2546 40.2192 16.7345C40.2192 16.2144 40.0126 15.7156 39.6449 15.3478C39.2771 14.9801 38.7783 14.7734 38.2582 14.7734C37.7381 14.7734 37.2393 14.9801 36.8715 15.3478C36.5037 15.7156 36.2971 16.2144 36.2971 16.7345C36.2971 17.2546 36.5037 17.7534 36.8715 18.1212C37.2393 18.4889 37.7381 18.6956 38.2582 18.6956Z" fill="#AFDAD2" stroke="white" stroke-width="0.25"/>
<path d="M52.5731 15.4968C52.9446 15.4968 53.3009 15.3492 53.5636 15.0865C53.8262 14.8238 53.9738 14.4675 53.9738 14.096C53.9738 13.7246 53.8262 13.3683 53.5636 13.1056C53.3009 12.8429 52.9446 12.6953 52.5731 12.6953C52.2016 12.6953 51.8453 12.8429 51.5826 13.1056C51.32 13.3683 51.1724 13.7246 51.1724 14.096C51.1724 14.4675 51.32 14.8238 51.5826 15.0865C51.8453 15.3492 52.2016 15.4968 52.5731 15.4968Z" fill="#AFDAD2" stroke="white" stroke-width="0.25"/>
<path d="M93.2261 19.8101C93.6935 19.8101 94.1418 19.6244 94.4723 19.2939C94.8029 18.9634 94.9886 18.515 94.9886 18.0476C94.9886 17.5802 94.8029 17.1319 94.4723 16.8014C94.1418 16.4709 93.6935 16.2852 93.2261 16.2852C92.7587 16.2852 92.3103 16.4709 91.9798 16.8014C91.6493 17.1319 91.4636 17.5802 91.4636 18.0476C91.4636 18.515 91.6493 18.9634 91.9798 19.2939C92.3103 19.6244 92.7587 19.8101 93.2261 19.8101Z" fill="#AFDAD2" stroke="white" stroke-width="0.25"/>
<path d="M48.6587 12.6685C49.24 12.6685 49.7975 12.4376 50.2085 12.0266C50.6195 11.6156 50.8504 11.0581 50.8504 10.4768C50.8504 9.8956 50.6195 9.33809 50.2085 8.92709C49.7975 8.51609 49.24 8.28516 48.6587 8.28516C48.0775 8.28516 47.52 8.51609 47.109 8.92709C46.698 9.33809 46.467 9.8956 46.467 10.4768C46.467 11.0581 46.698 11.6156 47.109 12.0266C47.52 12.4376 48.0775 12.6685 48.6587 12.6685Z" fill="#AFDAD2" stroke="white" stroke-width="0.25"/>
<path d="M83.0425 14.7603C83.58 14.7603 84.0955 14.5468 84.4756 14.1667C84.8556 13.7867 85.0692 13.2711 85.0692 12.7337C85.0692 12.1962 84.8556 11.6807 84.4756 11.3006C84.0955 10.9206 83.58 10.707 83.0425 10.707C82.505 10.707 81.9895 10.9206 81.6095 11.3006C81.2294 11.6807 81.0159 12.1962 81.0159 12.7337C81.0159 13.2711 81.2294 13.7867 81.6095 14.1667C81.9895 14.5468 82.505 14.7603 83.0425 14.7603Z" fill="#AFDAD2" stroke="white" stroke-width="0.25"/>
<path d="M38.78 12.6025C39.2106 12.6025 39.6236 12.4315 39.9281 12.127C40.2325 11.8226 40.4036 11.4096 40.4036 10.979C40.4036 10.5484 40.2325 10.1354 39.9281 9.83099C39.6236 9.52654 39.2106 9.35547 38.78 9.35547C38.3495 9.35547 37.9365 9.52654 37.632 9.83099C37.3276 10.1354 37.1565 10.5484 37.1565 10.979C37.1565 11.4096 37.3276 11.8226 37.632 12.127C37.9365 12.4315 38.3495 12.6025 38.78 12.6025Z" fill="#AFDAD2" stroke="white" stroke-width="0.25"/>
<path d="M42.6791 11.3479C43.1541 11.3479 43.6097 11.1592 43.9456 10.8233C44.2815 10.4874 44.4702 10.0318 44.4702 9.55678C44.4702 9.08176 44.2815 8.62613 43.9456 8.29024C43.6097 7.95435 43.1541 7.76562 42.6791 7.76562C42.2041 7.76562 41.7484 7.95435 41.4126 8.29024C41.0767 8.62613 40.8879 9.08176 40.8879 9.55678C40.8879 10.0318 41.0767 10.4874 41.4126 10.8233C41.7484 11.1592 42.2041 11.3479 42.6791 11.3479Z" fill="#AFDAD2" stroke="white" stroke-width="0.25"/>
<path d="M70.2857 9.10118C70.843 9.10118 71.3775 8.87977 71.7716 8.48571C72.1657 8.09164 72.3871 7.5571 72.3871 6.99981C72.3871 6.44252 72.1657 5.90798 71.7716 5.51392C71.3775 5.11985 70.843 4.89844 70.2857 4.89844C69.7284 4.89844 69.1939 5.11985 68.7998 5.51392C68.4057 5.90798 68.1843 6.44252 68.1843 6.99981C68.1843 7.5571 68.4057 8.09164 68.7998 8.48571C69.1939 8.87977 69.7284 9.10118 70.2857 9.10118Z" fill="#AFDAD2" stroke="white" stroke-width="0.25"/>
<path d="M61.8426 9.54839C62.2763 9.54839 62.6923 9.37606 62.999 9.06936C63.3057 8.76265 63.4781 8.34661 63.4781 7.91287C63.4781 7.47912 63.3057 7.06308 62.999 6.75638C62.6923 6.44967 62.2763 6.27734 61.8426 6.27734C61.4088 6.27734 60.9928 6.44967 60.6861 6.75638C60.3794 7.06308 60.207 7.47912 60.207 7.91287C60.207 8.34661 60.3794 8.76265 60.6861 9.06936C60.9928 9.37606 61.4088 9.54839 61.8426 9.54839Z" fill="#AFDAD2" stroke="white" stroke-width="0.25"/>
<path d="M74.483 11.5442C74.8147 11.5442 75.1328 11.4124 75.3674 11.1779C75.6019 10.9434 75.7337 10.6253 75.7337 10.2936C75.7337 9.96193 75.6019 9.6438 75.3674 9.40927C75.1328 9.17474 74.8147 9.04297 74.483 9.04297C74.1514 9.04297 73.8332 9.17474 73.5987 9.40927C73.3642 9.6438 73.2324 9.96193 73.2324 10.2936C73.2324 10.6253 73.3642 10.9434 73.5987 11.1779C73.8332 11.4124 74.1514 11.5442 74.483 11.5442Z" fill="#AFDAD2" stroke="white" stroke-width="0.25"/>
<path d="M70.3067 13.4625C70.9217 13.4625 71.5117 13.2181 71.9466 12.7832C72.3815 12.3483 72.6258 11.7584 72.6258 11.1434C72.6258 10.5283 72.3815 9.93838 71.9466 9.50348C71.5117 9.06858 70.9217 8.82422 70.3067 8.82422C69.6916 8.82422 69.1017 9.06858 68.6668 9.50348C68.2319 9.93838 67.9875 10.5283 67.9875 11.1434C67.9875 11.7584 68.2319 12.3483 68.6668 12.7832C69.1017 13.2181 69.6916 13.4625 70.3067 13.4625Z" fill="#AFDAD2" stroke="white" stroke-width="0.25"/>
<path d="M79.5108 11.2131C79.9359 11.2131 80.3435 11.0442 80.6441 10.7437C80.9446 10.4431 81.1135 10.0355 81.1135 9.61044C81.1135 9.18542 80.9446 8.77775 80.6441 8.47721C80.3435 8.17668 79.9359 8.00781 79.5108 8.00781C79.0858 8.00781 78.6781 8.17668 78.3776 8.47721C78.0771 8.77775 77.9082 9.18542 77.9082 9.61044C77.9082 10.0355 78.0771 10.4431 78.3776 10.7437C78.6781 11.0442 79.0858 11.2131 79.5108 11.2131Z" fill="#AFDAD2" stroke="white" stroke-width="0.25"/>
<path d="M7.59424 50.3076C8.12814 50.3076 8.64025 50.0955 9.01777 49.718C9.3953 49.3404 9.60742 48.8283 9.60742 48.2944C9.60742 47.7605 9.3953 47.2484 9.01777 46.8709C8.64025 46.4934 8.12814 46.2812 7.59424 46.2812C7.06034 46.2812 6.54823 46.4934 6.1707 46.8709C5.79318 47.2484 5.58105 47.7605 5.58105 48.2944C5.58105 48.8283 5.79318 49.3404 6.1707 49.718C6.54823 50.0955 7.06034 50.3076 7.59424 50.3076Z" fill="#AFDAD2" stroke="white" stroke-width="0.25"/>
<path d="M53.2736 11.074C53.561 11.074 53.8367 10.9598 54.04 10.7565C54.2432 10.5533 54.3574 10.2776 54.3574 9.99012C54.3574 9.70268 54.2432 9.42697 54.04 9.22371C53.8367 9.02045 53.561 8.90625 53.2736 8.90625C52.9861 8.90625 52.7104 9.02045 52.5072 9.22371C52.3039 9.42697 52.1897 9.70268 52.1897 9.99012C52.1897 10.2776 52.3039 10.5533 52.5072 10.7565C52.7104 10.9598 52.9861 11.074 53.2736 11.074Z" fill="#AFDAD2" stroke="white" stroke-width="0.25"/>
<path d="M90.5092 16.0378C90.856 16.0378 91.1888 15.9 91.434 15.6547C91.6793 15.4095 91.8171 15.0767 91.8171 14.7299C91.8171 14.383 91.6793 14.0503 91.434 13.805C91.1888 13.5597 90.856 13.4219 90.5092 13.4219C90.1623 13.4219 89.8296 13.5597 89.5843 13.805C89.339 14.0503 89.2012 14.383 89.2012 14.7299C89.2012 15.0767 89.339 15.4095 89.5843 15.6547C89.8296 15.9 90.1623 16.0378 90.5092 16.0378Z" fill="#AFDAD2" stroke="white" stroke-width="0.25"/>
<path d="M66.0626 9.49439C66.5643 9.49439 67.0455 9.29507 67.4003 8.94032C67.755 8.58557 67.9544 8.10436 67.9544 7.60266C67.9544 7.10097 67.755 6.61976 67.4003 6.26501C67.0455 5.91026 66.5643 5.71094 66.0626 5.71094C65.5609 5.71094 65.0797 5.91026 64.725 6.26501C64.3702 6.61976 64.1709 7.10097 64.1709 7.60266C64.1709 8.10436 64.3702 8.58557 64.725 8.94032C65.0797 9.29507 65.5609 9.49439 66.0626 9.49439Z" fill="#AFDAD2" stroke="white" stroke-width="0.25"/>
<path d="M22.8649 38.2181C23.4429 38.2181 23.9973 37.9885 24.406 37.5798C24.8147 37.1711 25.0443 36.6167 25.0443 36.0387C25.0443 35.4608 24.8147 34.9064 24.406 34.4977C23.9973 34.089 23.4429 33.8594 22.8649 33.8594C22.2869 33.8594 21.7326 34.089 21.3239 34.4977C20.9152 34.9064 20.6855 35.4608 20.6855 36.0387C20.6855 36.6167 20.9152 37.1711 21.3239 37.5798C21.7326 37.9885 22.2869 38.2181 22.8649 38.2181Z" fill="#AFDAD2" stroke="white" stroke-width="0.25"/>
<path d="M83.1342 27.9248L80.8848 27.8711L78.6349 27.9227L76.3856 28.079L74.1374 28.3381L71.8912 28.6968L69.6477 29.1506L67.4072 29.694L65.1703 30.3207L62.937 31.0233L60.7074 31.794L58.4816 32.6243L56.2595 33.5055L54.041 34.4287L51.8259 35.3848L49.6141 36.3648L47.4053 37.3601L42.9965 39.363L40.7961 40.3552L38.5981 41.3318L36.4023 42.2866L34.2087 43.214L32.0169 44.1093L29.8269 44.9683L27.6383 45.7879L25.451 46.5655L23.2648 47.2991L21.0795 47.9876L18.8947 48.6304L16.7103 49.2275L14.526 49.7793L12.3416 50.2867L10.157 50.7511L7.97186 51.174L5.78613 51.5574L3.38845 51.9361L3.28276 52.6654C2.88129 55.4356 2.67944 58.2326 2.67944 61.0348C2.67944 63.2179 2.80195 65.3981 3.04603 67.5653L3.19869 68.9209L6.36467 67.5155L8.573 66.5198L12.9816 64.5169L15.1818 63.5254L17.3791 62.5518L19.5733 61.6047L21.7643 60.6929L23.9518 59.8254L26.1357 59.0106L28.3159 58.2569L30.4924 57.572L32.6651 56.9633L34.8341 56.437L36.9997 55.9989L39.1622 55.6535L41.3221 55.4046L43.48 55.2546L45.6366 55.2052L47.7928 55.2568L49.9494 55.4088L52.1073 55.6595L54.2671 56.0062L56.4296 56.4454L58.5952 56.9722L60.7642 57.5811L62.937 58.2656L65.1134 59.0188L67.2937 59.8327L69.4776 60.6992L71.6651 61.6098L73.856 62.5556L76.0502 63.528L78.2475 64.5182L82.6508 66.5186L84.8564 67.5131L87.0644 68.4942L89.2747 69.4553L91.487 70.3908L93.7013 71.2954L95.9172 72.1648L98.1347 72.9955L100.353 73.7846L102.573 74.5298L104.794 75.2298L107.015 75.8837L109.237 76.4913L111.459 77.053L113.68 77.5695L116.804 78.2345L117.064 77.3425C118.536 72.2843 119.317 67.0479 119.384 61.7761L119.389 61.0412L119.384 60.2998L119.369 59.5066C119.181 52.3566 117.682 45.3071 114.947 38.7034L114.745 38.2222L114.385 37.3885L112.114 36.3671L109.906 35.3886L107.694 34.4338L105.479 33.5118L103.26 32.6316L101.038 31.8022L98.8123 31.0321L96.5828 30.3297L94.3495 29.7029L92.1125 29.1589L89.872 28.7041L87.6285 28.344L85.3823 28.0832L83.1342 27.9248ZM80.8614 28.8708L83.0644 28.9224L85.2674 29.0765L87.4704 29.3315L89.6734 29.6842L91.8764 30.1306L94.0794 30.6658L96.2825 31.2835L98.4855 31.9771L100.688 32.7391L102.892 33.5612L105.095 34.4351L107.298 35.3519L109.501 36.3029L111.704 37.2791L113.622 38.142C113.759 38.4554 113.892 38.7701 114.023 39.0861C116.713 45.5795 118.185 52.5085 118.369 59.5261L118.384 60.3062L118.389 61.0348L118.384 61.7634C118.319 66.9512 117.549 72.0977 116.104 77.063L113.907 76.5954L111.704 76.0835L109.501 75.5267L107.298 74.9244L105.095 74.276L102.892 73.5818L100.688 72.8424L98.4855 72.0591L96.2825 71.2339L94.0794 70.3696L91.8764 69.4697L89.6734 68.5383L87.4704 67.5803L85.2674 66.6015L83.0644 65.6081L78.6584 63.6065L76.4553 62.6137L74.2523 61.6375L72.0493 60.6866L69.8463 59.7697L67.6433 58.8958L65.4403 58.0737L63.2373 57.3118L61.0343 56.6182L58.8312 56.0004L56.6282 55.4653L54.4252 55.0188L52.2222 54.6661L50.0192 54.4112L47.8162 54.257L45.6132 54.2055L43.4102 54.257L41.2071 54.4112L39.0041 54.6661L36.8011 55.0188L34.5981 55.4653L32.3951 56.0004L30.1921 56.6182L27.9891 57.3118L25.7861 58.0737L23.583 58.8958L21.38 59.7697L19.177 60.6866L16.974 61.6375L14.771 62.6137L12.568 63.6065L8.16195 65.6081L5.95894 66.6015L4.03975 67.4534C3.8002 65.3265 3.67944 63.1836 3.67944 61.0348C3.67944 58.276 3.87849 55.527 4.27242 52.8088L5.95894 52.5423L8.16195 52.1558L10.365 51.7292L12.568 51.2608L14.771 50.7488L16.974 50.1921L19.177 49.5898L21.38 48.9414L23.583 48.2471L25.7861 47.5077L27.9891 46.7244L30.1921 45.8993L32.3951 45.035L34.5981 44.135L36.8011 43.2036L39.0041 42.2457L41.2071 41.2668L43.4102 40.2735L47.8162 38.2718L50.0192 37.2791L52.2222 36.3029L54.4252 35.3519L56.6282 34.4351L58.8312 33.5612L61.0343 32.7391L63.2373 31.9771L65.4403 31.2835L67.6433 30.6658L69.8463 30.1306L72.0493 29.6842L74.2523 29.3315L76.4553 29.0765L78.6584 28.9224L80.8614 28.8708Z" fill="white"/>
<path d="M80.8614 28.3711L83.0877 28.4232L85.3136 28.579L87.5387 28.8364L89.7626 29.1925L91.9851 29.6429L94.206 30.1824L96.4251 30.8047L98.6423 31.5027L100.858 32.2689L103.076 33.0968L105.287 33.9739L107.496 34.8933L109.703 35.8462L111.909 36.8235L114.003 37.7655C114.168 38.1401 114.328 38.5167 114.485 38.8951C117.198 45.4452 118.683 52.4346 118.869 59.5167L118.884 60.3034L118.889 61.0384L118.884 61.7702C118.816 67.1586 117.995 72.5028 116.452 77.6488L113.793 77.0828L111.581 76.5686L109.369 76.0094L107.156 75.4045L104.944 74.7533L102.732 74.0562L100.521 73.3139L98.3101 72.5277L96.0999 71.6998L93.8904 70.8329L91.6817 69.9306L89.474 68.9972L87.2674 68.0376L85.0619 67.0577L82.8576 66.0638L78.4529 64.0627L76.2528 63.0713L74.0542 62.097L71.8572 61.1486L69.6619 60.2349L67.4685 59.3647L65.2711 58.5447L63.0804 57.787L60.8916 57.0979L58.7047 56.4846L56.5195 55.9538L54.336 55.5113L52.1539 55.1619L49.973 54.9096L47.7929 54.757L45.6132 54.706L43.4335 54.757L41.2533 54.9096L39.0724 55.1619L36.8903 55.5113L34.7068 55.9538L32.5216 56.4846L30.3347 57.0979L28.1459 57.787L25.9552 58.5447L23.7674 59.361L21.5721 60.2317L19.3752 61.146L17.1766 62.0951L14.9764 63.07L12.7748 64.0621L8.36748 66.0644L6.1618 67.0589L3.62306 68.1859C3.32821 65.8186 3.17944 63.4306 3.17944 61.0352C3.17944 58.1289 3.39845 55.2333 3.83166 52.3727L5.87253 52.0502L8.06691 51.6653L10.261 51.2406L12.4548 50.7742L14.6485 50.2645L16.8421 49.7102L19.0359 49.1105L21.2297 48.4649L23.4239 47.7735L25.6185 47.037L27.8137 46.2566L30.0095 45.4342L32.206 44.5725L34.4034 43.6749L36.6017 42.7455L38.8011 41.7891L41.0016 40.8114L43.2033 39.8187L47.6108 37.8164L49.8166 36.8224L52.024 35.8442L54.2331 34.8907L56.4439 33.9707L58.6564 33.0932L60.8651 32.2689L63.0804 31.5027L65.2977 30.8047L67.5167 30.1824L69.7376 29.6429L71.9601 29.1925L74.184 28.8364L76.4091 28.579L78.635 28.4232L80.8614 28.3711Z" fill="#7DB0BC" stroke="white"/>
<path d="M45.613 55.3047L47.816 55.3563L50.019 55.5104L52.222 55.7653L54.425 56.118L56.628 56.5645L58.831 57.0996L61.0341 57.7174L63.2371 58.411L65.4401 59.1729L67.6431 59.9951L69.8461 60.8689L72.0491 61.7858L74.2521 62.7367L76.4551 63.7129L78.6582 64.7057L83.0642 66.7074L85.2672 67.7007L87.4702 68.6795L89.6732 69.6375L91.8762 70.5689L94.0792 71.4689L96.2823 72.3331L98.4853 73.1583L100.688 73.9416L102.891 74.681L105.094 75.3753L107.297 76.0236L109.5 76.626L111.703 77.1827L113.906 77.6946L115.792 78.0955C115.277 79.7472 114.687 81.3775 114.023 82.9813C111.141 89.9397 106.916 96.2627 101.59 101.588C96.2643 106.914 89.9412 111.139 82.9828 114.021C76.0244 116.904 68.5658 118.387 61.0341 118.387C53.5023 118.387 46.0438 116.904 39.0853 114.021C32.1269 111.139 25.8038 106.914 20.4781 101.588C15.1523 96.2627 10.9274 89.9397 8.04512 82.9813C6.12002 78.3337 4.81888 73.463 4.16699 68.4964L5.95874 67.7007L8.16175 66.7074L12.5678 64.7057L14.7708 63.7129L16.9738 62.7367L19.1768 61.7858L21.3798 60.8689L23.5828 59.9951L25.7859 59.1729L27.9889 58.411L30.1919 57.7174L32.3949 57.0996L34.5979 56.5645L36.8009 56.118L39.0039 55.7653L41.2069 55.5104L43.41 55.3563L45.613 55.3047Z" fill="#5C7DA2"/>
<path d="M50.0191 70.1562V77.544H63.2372V87.7462H76.4553V94.7247H89.6733V97.6701H102.891L102.892 100.243C102.466 100.699 102.032 101.147 101.59 101.589C96.2644 106.914 89.9413 111.139 82.9829 114.022C76.0245 116.904 68.5659 118.388 61.0342 118.388C53.5024 118.388 46.0439 116.904 39.0854 114.022C32.127 111.139 25.804 106.914 20.4782 101.589C16.4385 97.549 13.0322 92.9355 10.3647 87.9062L10.3649 81.0224H23.583V71.8162H36.801V70.1562H50.0191Z" fill="#444876"/>
<path d="M50.4703 69.707L50.4703 77.094L63.6884 77.0947L63.6883 87.296L76.9065 87.297L76.9063 94.275L90.1245 94.2755L90.1243 97.22L103.343 97.2209L103.343 99.7589C103.046 100.083 102.745 100.405 102.44 100.722L102.439 98.1227L90.1243 98.122L90.1253 110.464C89.8259 110.641 89.5248 110.814 89.2221 110.985L89.2212 95.1775L76.9063 95.177L76.907 116.149C76.6066 116.236 76.3055 116.32 76.0038 116.402L76.0032 88.1993L63.6883 88.199L63.6887 118.328C63.3877 118.342 63.0866 118.354 62.7854 118.363L62.7851 77.9969L50.4703 77.996L50.4702 117.408C50.1688 117.352 49.8679 117.293 49.5675 117.232L49.5671 70.609H37.2517L37.2511 113.226C36.9491 113.089 36.6483 112.948 36.3489 112.806L36.3491 72.2689H24.0337L24.0331 104.858C23.7295 104.602 23.4285 104.343 23.1301 104.08L23.1311 81.4756H10.8157L10.8152 88.7411C10.5048 88.1785 10.2037 87.6104 9.91211 87.0371L9.91346 80.5732L23.1313 80.573L23.1315 71.367L36.3493 71.366L36.3496 69.707H50.4703Z" fill="white"/>
<path d="M61.0342 0C69.0491 0 76.9861 1.57877 84.3909 4.64595C91.7958 7.71313 98.5244 12.2091 104.192 17.8765C109.859 23.5439 114.355 30.2726 117.422 37.6774C120.391 44.8434 121.965 52.5077 122.063 60.2588L122.068 61.0342L122.063 61.8095C121.965 69.5606 120.391 77.225 117.422 84.3909C114.355 91.7958 109.859 98.5244 104.192 104.192C98.5244 109.859 91.7958 114.355 84.3909 117.422C76.9861 120.49 69.0491 122.068 61.0342 122.068C53.0192 122.068 45.0822 120.49 37.6774 117.422C30.2726 114.355 23.5439 109.859 17.8765 104.192C12.2091 98.5244 7.71313 91.7958 4.64595 84.3909C1.57877 76.9861 0 69.0491 0 61.0342C0 53.0192 1.57877 45.0822 4.64595 37.6774C7.71313 30.2726 12.2091 23.5439 17.8765 17.8765C23.5439 12.2091 30.2726 7.71313 37.6774 4.64595C45.0822 1.57877 53.0192 0 61.0342 0ZM61.0342 2.00413C53.2824 2.00413 45.606 3.53106 38.4443 6.49752C31.2827 9.46399 24.7749 13.8123 19.2936 19.2936C13.8123 24.7749 9.46399 31.2827 6.49752 38.4443C3.53106 45.606 2.00413 53.2824 2.00413 61.0342C2.00413 68.7859 3.53106 76.4623 6.49752 83.624C9.46399 90.7857 13.8123 97.2934 19.2936 102.775C24.7749 108.256 31.2827 112.604 38.4443 115.571C45.606 118.537 53.2824 120.064 61.0342 120.064C68.7859 120.064 76.4623 118.537 83.624 115.571C90.7857 112.604 97.2934 108.256 102.775 102.775C108.256 97.2934 112.604 90.7857 115.571 83.624C118.442 76.6933 119.964 69.2806 120.059 61.7841L120.064 61.0342L120.059 60.2842C119.964 52.7877 118.442 45.375 115.571 38.4443C112.604 31.2827 108.256 24.7749 102.775 19.2936C97.2934 13.8123 90.7857 9.46399 83.624 6.49752C76.4623 3.53106 68.7859 2.00413 61.0342 2.00413Z" fill="#444876"/>
<path d="M154.073 53.8842C157.616 53.8842 160.899 54.5725 163.923 55.949C166.958 57.3142 169.311 59.661 170.98 62.9894L164.583 67.2035C163.5 65.1162 162.056 63.4577 160.251 62.2278C158.445 60.998 156.245 60.3831 153.65 60.3831C152.42 60.3831 151.174 60.5298 149.91 60.8231C148.646 61.1052 147.507 61.5565 146.491 62.1771C145.487 62.7863 144.675 63.5592 144.054 64.4957C143.445 65.4321 143.14 66.5886 143.14 67.9651C143.14 70.3458 143.969 72.0777 145.628 73.1609C147.287 74.244 149.78 75.1861 153.109 75.9872L160.352 77.7135C163.895 78.5033 166.84 80.1111 169.187 82.5369C171.533 84.9514 172.707 87.9639 172.707 91.5744C172.707 94.3161 172.148 96.6798 171.031 98.6656C169.914 100.651 168.431 102.276 166.58 103.54C164.741 104.803 162.631 105.723 160.251 106.298C157.87 106.885 155.45 107.178 152.99 107.178C149.098 107.178 145.47 106.439 142.108 104.961C138.746 103.472 135.874 100.922 133.493 97.3117L139.671 93.0975C141.115 95.4105 142.937 97.2553 145.137 98.6318C147.337 99.997 149.955 100.68 152.99 100.68C154.434 100.68 155.878 100.516 157.323 100.189C158.767 99.8616 160.047 99.3595 161.164 98.6825C162.293 97.9943 163.195 97.1086 163.872 96.0254C164.561 94.9423 164.905 93.6786 164.905 92.2344C164.905 89.7071 163.963 87.8849 162.078 86.7679C160.205 85.6396 157.938 84.7539 155.275 84.1108L148.336 82.4861C147.467 82.2604 146.294 81.8994 144.816 81.4029C143.338 80.8952 141.893 80.1393 140.483 79.1351C139.073 78.1196 137.86 76.7996 136.844 75.1748C135.84 73.5501 135.338 71.5418 135.338 69.1498C135.338 66.5548 135.863 64.2813 136.912 62.3294C137.961 60.3775 139.366 58.7922 141.126 57.5737C142.898 56.3439 144.9 55.4243 147.134 54.815C149.38 54.1945 151.693 53.8842 154.073 53.8842ZM206.833 53.8842C210.658 53.8842 214.082 54.5725 217.106 55.949C220.141 57.3142 222.685 59.1363 224.738 61.4155C226.803 63.6833 228.377 66.3517 229.46 69.4206C230.543 72.4895 231.085 75.7615 231.085 79.2366V82.4861H188.842C189.057 85.0134 189.672 87.3941 190.687 89.6281C191.702 91.8621 193.039 93.7914 194.698 95.4162C196.357 97.0409 198.269 98.3271 200.435 99.2749C202.602 100.211 204.948 100.68 207.476 100.68C211.301 100.68 214.601 99.7939 217.376 98.0225C220.163 96.2511 222.279 94.2089 223.723 91.8959L229.24 96.4485C226.217 100.273 222.877 103.021 219.221 104.691C215.577 106.349 211.662 107.178 207.476 107.178C203.719 107.178 200.232 106.513 197.017 105.181C193.812 103.839 191.054 101.977 188.741 99.5964C186.428 97.2158 184.6 94.4007 183.257 91.1513C181.926 87.9018 181.26 84.359 181.26 80.5229C181.26 76.698 181.909 73.1609 183.207 69.9114C184.515 66.662 186.321 63.8469 188.622 61.4662C190.935 59.0856 193.643 57.2296 196.746 55.8982C199.86 54.5555 203.222 53.8842 206.833 53.8842ZM265.211 53.8842C267.659 53.8842 270.023 54.2453 272.302 54.9674C274.581 55.6895 276.55 56.7895 278.209 58.2676C279.867 59.7456 281.199 61.6073 282.203 63.8526C283.218 66.0865 283.726 68.7549 283.726 71.8577V94.5023C283.726 96.4542 283.816 98.4964 283.997 100.629C284.177 102.75 284.375 104.499 284.589 105.875H277.667C277.453 104.645 277.289 103.308 277.176 101.864C277.064 100.42 277.007 99.0154 277.007 97.6501H276.804C274.705 101.035 272.229 103.472 269.374 104.961C266.52 106.439 263.039 107.178 258.932 107.178C256.687 107.178 254.515 106.868 252.416 106.248C250.329 105.638 248.473 104.702 246.848 103.438C245.223 102.175 243.92 100.623 242.939 98.7841C241.968 96.945 241.483 94.7956 241.483 92.336C241.483 88.2177 242.549 84.9852 244.682 82.6384C246.814 80.2916 249.483 78.5427 252.687 77.3919C255.903 76.2298 259.333 75.5077 262.977 75.2256C266.633 74.9323 269.978 74.7856 273.013 74.7856H276.584V73.4824C276.584 64.7495 272.251 60.3831 263.586 60.3831C257.663 60.3831 252.501 62.3689 248.101 66.3404L243.768 61.2462C248.529 56.3382 255.677 53.8842 265.211 53.8842ZM307.447 23.9961V63.6325H307.667C308.818 61.895 310.189 60.4169 311.78 59.1984C313.37 57.9686 315.029 56.9588 316.755 56.169C318.493 55.3679 320.281 54.7868 322.12 54.4258C323.971 54.0647 325.725 53.8842 327.384 53.8842C331.355 53.8842 334.983 54.5555 338.266 55.8982C341.549 57.2296 344.381 59.0856 346.762 61.4662C349.154 63.8469 351.015 66.662 352.347 69.9114C353.678 73.1609 354.344 76.698 354.344 80.5229C354.344 84.359 353.678 87.9018 352.347 91.1513C351.015 94.4007 349.154 97.2158 346.762 99.5964C344.381 101.977 341.549 103.839 338.266 105.181C334.983 106.513 331.355 107.178 327.384 107.178C325.725 107.178 323.971 106.998 322.12 106.637C320.281 106.276 318.493 105.7 316.755 104.911C315.029 104.11 313.37 103.094 311.78 101.864C310.189 100.634 308.818 99.1564 307.667 97.4301H307.447V105.875H300.305V23.9961H307.447ZM390.738 53.8842C394.709 53.8842 398.337 54.5555 401.62 55.8982C404.914 57.2296 407.752 59.0856 410.133 61.4662C412.513 63.8469 414.369 66.662 415.701 69.9114C417.043 73.1609 417.715 76.698 417.715 80.5229C417.715 84.359 417.043 87.9018 415.701 91.1513C414.369 94.4007 412.513 97.2158 410.133 99.5964C407.752 101.977 404.914 103.839 401.62 105.181C398.337 106.513 394.709 107.178 390.738 107.178C386.845 107.178 383.251 106.513 379.957 105.181C376.674 103.839 373.842 101.977 371.461 99.5964C369.08 97.2158 367.219 94.4007 365.876 91.1513C364.545 87.9018 363.879 84.359 363.879 80.5229C363.879 76.698 364.545 73.1609 365.876 69.9114C367.219 66.662 369.08 63.8469 371.461 61.4662C373.842 59.0856 376.674 57.2296 379.957 55.8982C383.251 54.5555 386.845 53.8842 390.738 53.8842ZM454.545 53.8842C456.565 53.8842 458.331 54.0986 459.842 54.5273L458.438 61.5678C457.501 61.2067 456.13 61.0262 454.325 61.0262C451.583 61.0262 449.237 61.5509 447.285 62.6002C445.333 63.6495 443.708 64.9865 442.411 66.6112C441.113 68.2359 440.154 69.9904 439.533 71.8746C438.924 73.7476 438.62 75.5472 438.62 77.2734V105.875H431.477V70.9946C431.477 68.7606 431.421 66.4871 431.308 64.1741C431.195 61.8611 431.105 58.8656 431.037 55.1874H438.078V64.6141H438.298C438.806 63.2376 439.528 61.9176 440.464 60.6539C441.401 59.3902 442.535 58.2563 443.866 57.2521C445.209 56.2367 446.76 55.4243 448.52 54.815C450.292 54.1945 452.3 53.8842 454.545 53.8842ZM492.943 53.8842C499.442 53.8842 504.242 55.5992 507.345 59.0292C510.448 62.4591 511.999 67.3502 511.999 73.7024V105.875H504.857V77.815C504.857 72.1849 503.881 67.8749 501.93 64.8849C499.978 61.8837 496.367 60.3831 491.098 60.3831C490.737 60.3831 489.727 60.5298 488.069 60.8231C486.41 61.1052 484.656 61.9006 482.805 63.2094C480.966 64.507 479.324 66.4532 477.88 69.0483C476.436 71.6433 475.714 75.2538 475.714 79.8798V105.875H468.572V66.3404C468.572 64.9639 468.516 63.232 468.403 61.1447C468.301 59.0461 468.177 57.0603 468.03 55.1874H475.392C475.539 56.5526 475.629 57.9065 475.663 59.2492C475.697 60.5805 475.714 61.9345 475.714 63.311H475.934C476.724 61.9345 477.734 60.6708 478.963 59.52C480.193 58.3578 481.564 57.3649 483.076 56.5413C484.599 55.7064 486.207 55.0576 487.899 54.595C489.603 54.1211 491.284 53.8842 492.943 53.8842ZM276.584 80.6413H272.895C271.089 80.6413 268.833 80.7316 266.125 80.9121C263.417 81.0927 260.816 81.527 258.323 82.2153C255.841 82.8923 253.714 83.9528 251.942 85.397C250.171 86.8412 249.285 88.827 249.285 91.3544C249.285 93.0242 249.629 94.4571 250.318 95.6531C251.006 96.8378 251.925 97.8081 253.076 98.5641C254.227 99.32 255.508 99.8616 256.918 100.189C258.328 100.516 259.756 100.68 261.2 100.68C263.795 100.68 266.052 100.245 267.97 99.3764C269.888 98.5076 271.495 97.3342 272.793 95.8562C274.09 94.3781 275.044 92.6462 275.653 90.6605C276.274 88.6747 276.584 86.5592 276.584 84.3139V80.6413ZM327.384 60.3831C324.416 60.3831 321.703 60.9077 319.243 61.957C316.795 63.0063 314.668 64.4336 312.863 66.2389C311.057 68.0441 309.647 70.1766 308.632 72.6362C307.627 75.0846 307.125 77.7135 307.125 80.5229C307.125 83.3436 307.627 85.9837 308.632 88.4434C309.647 90.8918 311.057 93.0186 312.863 94.8238C314.668 96.6291 316.795 98.0563 319.243 99.1056C321.703 100.155 324.416 100.68 327.384 100.68C330.34 100.68 332.991 100.155 335.338 99.1056C337.685 98.0563 339.688 96.6291 341.346 94.8238C343.016 93.0186 344.302 90.8918 345.205 88.4434C346.107 85.9837 346.559 83.3436 346.559 80.5229C346.559 77.7135 346.107 75.0846 345.205 72.6362C344.302 70.1766 343.016 68.0441 341.346 66.2389C339.688 64.4336 337.685 63.0063 335.338 61.957C332.991 60.9077 330.34 60.3831 327.384 60.3831ZM390.738 60.3831C387.782 60.3831 385.13 60.9077 382.783 61.957C380.436 63.0063 378.451 64.4336 376.826 66.2389C375.201 68.0441 373.938 70.1766 373.035 72.6362C372.132 75.0846 371.681 77.7135 371.681 80.5229C371.681 83.3436 372.132 85.9837 373.035 88.4434C373.938 90.8918 375.201 93.0186 376.826 94.8238C378.451 96.6291 380.436 98.0563 382.783 99.1056C385.13 100.155 387.782 100.68 390.738 100.68C393.705 100.68 396.362 100.155 398.709 99.1056C401.056 98.0563 403.058 96.6291 404.717 94.8238C406.376 93.0186 407.656 90.8918 408.559 88.4434C409.461 85.9837 409.913 83.3436 409.913 80.5229C409.913 77.7135 409.461 75.0846 408.559 72.6362C407.656 70.1766 406.376 68.0441 404.717 66.2389C403.058 64.4336 401.056 63.0063 398.709 61.957C396.362 60.9077 393.705 60.3831 390.738 60.3831ZM206.833 60.3831C204.52 60.3831 202.28 60.8344 200.114 61.737C197.947 62.6397 196.052 63.8526 194.427 65.3757C192.803 66.8876 191.499 68.6195 190.518 70.5715C189.547 72.5121 189.062 74.5317 189.062 76.6303H223.283C223.283 71.79 221.839 67.8749 218.95 64.8849C216.062 61.8837 212.023 60.3831 206.833 60.3831Z" fill="#444876"/>
</g>
<defs>
<clipPath id="clip0_1_10097">
<rect width="512" height="123" fill="white"/>
</clipPath>
</defs>
</svg>
