<svg width="256" height="256" viewBox="0 0 256 256" fill="none" xmlns="http://www.w3.org/2000/svg">
<g clip-path="url(#clip0_1_9995)">
<path d="M128.902 2.39453C112.526 2.39453 96.3102 5.62011 81.1815 11.8867C66.0527 18.1532 52.3054 27.3389 40.7263 38.9179C29.1472 50.497 19.9616 64.2443 13.695 79.3731C7.42846 94.5019 4.20288 110.718 4.20288 127.093C4.20288 143.469 7.42846 159.685 13.695 174.813C19.9616 189.942 29.1472 203.689 40.7263 215.269C52.3054 226.848 66.0527 236.033 81.1815 242.3C96.3102 248.566 112.526 251.792 128.902 251.792C145.277 251.792 161.493 248.566 176.622 242.3C191.751 236.033 205.498 226.848 217.077 215.269C228.656 203.689 237.842 189.942 244.108 174.813C250.173 160.173 253.389 144.514 253.59 128.677L253.6 127.093L253.59 125.509C253.389 109.673 250.173 94.0139 244.108 79.3731C237.842 64.2443 228.656 50.497 217.077 38.9179C205.498 27.3389 191.751 18.1532 176.622 11.8867C161.493 5.62011 145.277 2.39453 128.902 2.39453Z" fill="white"/>
<path d="M100.427 73.9811C101.701 73.9811 102.923 73.475 103.823 72.5743C104.724 71.6736 105.23 70.4518 105.23 69.178C105.23 67.9043 104.724 66.6825 103.823 65.7818C102.923 64.8811 101.701 64.375 100.427 64.375C99.1533 64.375 97.9315 64.8811 97.0308 65.7818C96.1301 66.6825 95.624 67.9043 95.624 69.178C95.624 70.4518 96.1301 71.6736 97.0308 72.5743C97.9315 73.475 99.1533 73.9811 100.427 73.9811Z" fill="#AFDAD2" stroke="white" stroke-width="0.25"/>
<path d="M90.0843 81.2215C91.3179 81.2215 92.5012 80.7314 93.3736 79.859C94.2459 78.9867 94.736 77.8034 94.736 76.5697C94.736 75.3361 94.2459 74.1528 93.3736 73.2804C92.5012 72.4081 91.3179 71.918 90.0843 71.918C88.8506 71.918 87.6673 72.4081 86.795 73.2804C85.9226 74.1528 85.4325 75.3361 85.4325 76.5697C85.4325 77.8034 85.9226 78.9867 86.795 79.859C87.6673 80.7314 88.8506 81.2215 90.0843 81.2215Z" fill="#AFDAD2" stroke="white" stroke-width="0.25"/>
<path d="M80.135 85.8337C81.2965 85.8337 82.4106 85.3722 83.232 84.5509C84.0533 83.7296 84.5148 82.6155 84.5148 81.454C84.5148 80.2924 84.0533 79.1783 83.232 78.357C82.4106 77.5357 81.2965 77.0742 80.135 77.0742C78.9735 77.0742 77.8594 77.5357 77.038 78.357C76.2167 79.1783 75.7552 80.2924 75.7552 81.454C75.7552 82.6155 76.2167 83.7296 77.038 84.5509C77.8594 85.3722 78.9735 85.8337 80.135 85.8337Z" fill="#AFDAD2" stroke="white" stroke-width="0.25"/>
<path d="M109.152 68.2616C110.463 68.2616 111.721 67.7406 112.649 66.8132C113.576 65.8858 114.097 64.6279 114.097 63.3164C114.097 62.0049 113.576 60.7469 112.649 59.8195C111.721 58.8922 110.463 58.3711 109.152 58.3711C107.84 58.3711 106.582 58.8922 105.655 59.8195C104.728 60.7469 104.207 62.0049 104.207 63.3164C104.207 64.6279 104.728 65.8858 105.655 66.8132C106.582 67.7406 107.84 68.2616 109.152 68.2616Z" fill="#AFDAD2" stroke="white" stroke-width="0.25"/>
<path d="M72.6708 75.4466C73.5521 75.4466 74.3973 75.0965 75.0205 74.4734C75.6436 73.8502 75.9937 73.005 75.9937 72.1237C75.9937 71.2425 75.6436 70.3972 75.0205 69.774C74.3973 69.1509 73.5521 68.8008 72.6708 68.8008C71.7896 68.8008 70.9443 69.1509 70.3212 69.774C69.698 70.3972 69.3479 71.2425 69.3479 72.1237C69.3479 73.005 69.698 73.8502 70.3212 74.4734C70.9443 75.0965 71.7896 75.4466 72.6708 75.4466Z" fill="#AFDAD2" stroke="white" stroke-width="0.25"/>
<path d="M64.4653 93.6496C65.5123 93.6496 66.5165 93.2336 67.2569 92.4933C67.9972 91.753 68.4132 90.7487 68.4132 89.7018C68.4132 88.6548 67.9972 87.6505 67.2569 86.9102C66.5165 86.1699 65.5123 85.7539 64.4653 85.7539C63.4183 85.7539 62.4141 86.1699 61.6738 86.9102C60.9334 87.6505 60.5175 88.6548 60.5175 89.7018C60.5175 90.7487 60.9334 91.753 61.6738 92.4933C62.4141 93.2336 63.4183 93.6496 64.4653 93.6496Z" fill="#AFDAD2" stroke="white" stroke-width="0.25"/>
<path d="M69.4868 62.3891C70.7484 62.3891 71.9585 61.8879 72.8505 60.9958C73.7426 60.1037 74.2439 58.8936 74.2439 57.6321C74.2439 56.3705 73.7426 55.1604 72.8505 54.2683C71.9585 53.3762 70.7484 52.875 69.4868 52.875C68.2252 52.875 67.0151 53.3762 66.123 54.2683C65.231 55.1604 64.7297 56.3705 64.7297 57.6321C64.7297 58.8936 65.231 60.1037 66.123 60.9958C67.0151 61.8879 68.2252 62.3891 69.4868 62.3891Z" fill="#AFDAD2" stroke="white" stroke-width="0.25"/>
<path d="M82.3238 71.2916C83.2994 71.2916 84.2353 70.9039 84.9252 70.214C85.6151 69.5241 86.0027 68.5883 86.0027 67.6126C86.0027 66.6369 85.6151 65.7011 84.9252 65.0111C84.2353 64.3212 83.2994 63.9336 82.3238 63.9336C81.3481 63.9336 80.4122 64.3212 79.7223 65.0111C79.0324 65.7011 78.6448 66.6369 78.6448 67.6126C78.6448 68.5883 79.0324 69.5241 79.7223 70.214C80.4122 70.9039 81.3481 71.2916 82.3238 71.2916Z" fill="#AFDAD2" stroke="white" stroke-width="0.25"/>
<path d="M145.768 60.3113C146.909 60.3113 148.003 59.858 148.81 59.0512C149.617 58.2444 150.07 57.1501 150.07 56.0091C150.07 54.8682 149.617 53.7739 148.81 52.9671C148.003 52.1603 146.909 51.707 145.768 51.707C144.627 51.707 143.533 52.1603 142.726 52.9671C141.919 53.7739 141.466 54.8682 141.466 56.0091C141.466 57.1501 141.919 58.2444 142.726 59.0512C143.533 59.858 144.627 60.3113 145.768 60.3113Z" fill="#AFDAD2" stroke="white" stroke-width="0.25"/>
<path d="M55.5346 83.1179C56.2262 83.1179 56.8895 82.8432 57.3785 82.3541C57.8676 81.8651 58.1424 81.2017 58.1424 80.5101C58.1424 79.8185 57.8676 79.1552 57.3785 78.6662C56.8895 78.1771 56.2262 77.9023 55.5346 77.9023C54.843 77.9023 54.1796 78.1771 53.6906 78.6662C53.2015 79.1552 52.9268 79.8185 52.9268 80.5101C52.9268 81.2017 53.2015 81.8651 53.6906 82.3541C54.1796 82.8432 54.843 83.1179 55.5346 83.1179Z" fill="#AFDAD2" stroke="white" stroke-width="0.25"/>
<path d="M64.2005 80.6614C65.0211 80.6614 65.8082 80.3354 66.3885 79.7551C66.9688 79.1748 67.2948 78.3877 67.2948 77.567C67.2948 76.7464 66.9688 75.9593 66.3885 75.379C65.8082 74.7987 65.0211 74.4727 64.2005 74.4727C63.3798 74.4727 62.5927 74.7987 62.0124 75.379C61.4321 75.9593 61.1061 76.7464 61.1061 77.567C61.1061 78.3877 61.4321 79.1748 62.0124 79.7551C62.5927 80.3354 63.3798 80.6614 64.2005 80.6614Z" fill="#AFDAD2" stroke="white" stroke-width="0.25"/>
<path d="M48.3989 70.857C49.4869 70.857 50.5304 70.4247 51.2997 69.6554C52.069 68.8861 52.5013 67.8426 52.5013 66.7547C52.5013 65.6667 52.069 64.6232 51.2997 63.8539C50.5304 63.0846 49.4869 62.6523 48.3989 62.6523C47.311 62.6523 46.2675 63.0846 45.4982 63.8539C44.7289 64.6232 44.2966 65.6667 44.2966 66.7547C44.2966 67.8426 44.7289 68.8861 45.4982 69.6554C46.2675 70.4247 47.311 70.857 48.3989 70.857Z" fill="#AFDAD2" stroke="white" stroke-width="0.25"/>
<path d="M64.5402 69.0465C65.1074 69.0465 65.6514 68.8212 66.0524 68.4202C66.4534 68.0192 66.6787 67.4752 66.6787 66.908C66.6787 66.3409 66.4534 65.7969 66.0524 65.3959C65.6514 64.9949 65.1074 64.7695 64.5402 64.7695C63.9731 64.7695 63.4291 64.9949 63.0281 65.3959C62.6271 65.7969 62.4017 66.3409 62.4017 66.908C62.4017 67.4752 62.6271 68.0192 63.0281 68.4202C63.4291 68.8212 63.9731 69.0465 64.5402 69.0465Z" fill="#AFDAD2" stroke="white" stroke-width="0.25"/>
<path d="M93.1746 65.7151C94.2333 65.7151 95.2489 65.2944 95.9975 64.5458C96.7462 63.7971 97.1669 62.7815 97.1669 61.7228C97.1669 60.664 96.7462 59.6485 95.9975 58.8998C95.2489 58.1511 94.2333 57.7305 93.1746 57.7305C92.1158 57.7305 91.1002 58.1511 90.3516 58.8998C89.6029 59.6485 89.1823 60.664 89.1823 61.7228C89.1823 62.7815 89.6029 63.7971 90.3516 64.5458C91.1002 65.2944 92.1158 65.7151 93.1746 65.7151Z" fill="#AFDAD2" stroke="white" stroke-width="0.25"/>
<path d="M123.505 68.0236C124.419 68.0236 125.295 67.6606 125.941 67.0145C126.588 66.3684 126.951 65.4919 126.951 64.5782C126.951 63.6645 126.588 62.788 125.941 62.1419C125.295 61.4958 124.419 61.1328 123.505 61.1328C122.591 61.1328 121.715 61.4958 121.069 62.1419C120.423 62.788 120.06 63.6645 120.06 64.5782C120.06 65.4919 120.423 66.3684 121.069 67.0145C121.715 67.6606 122.591 68.0236 123.505 68.0236Z" fill="#AFDAD2" stroke="white" stroke-width="0.25"/>
<path d="M129.812 46.5295C130.41 46.5295 130.983 46.2919 131.406 45.869C131.829 45.4461 132.067 44.8725 132.067 44.2745C132.067 43.6765 131.829 43.1029 131.406 42.68C130.983 42.2571 130.41 42.0195 129.812 42.0195C129.214 42.0195 128.64 42.2571 128.217 42.68C127.794 43.1029 127.557 43.6765 127.557 44.2745C127.557 44.8725 127.794 45.4461 128.217 45.869C128.64 46.2919 129.214 46.5295 129.812 46.5295Z" fill="#AFDAD2" stroke="white" stroke-width="0.25"/>
<path d="M137.143 59.5086C138.142 59.5086 139.101 59.1116 139.807 58.405C140.514 57.6984 140.911 56.7399 140.911 55.7406C140.911 54.7414 140.514 53.7829 139.807 53.0763C139.101 52.3697 138.142 51.9727 137.143 51.9727C136.144 51.9727 135.185 52.3697 134.479 53.0763C133.772 53.7829 133.375 54.7414 133.375 55.7406C133.375 56.7399 133.772 57.6984 134.479 58.405C135.185 59.1116 136.144 59.5086 137.143 59.5086Z" fill="#AFDAD2" stroke="white" stroke-width="0.25"/>
<path d="M99.4999 57.3099C100.527 57.3099 101.512 56.9019 102.238 56.1759C102.964 55.4498 103.372 54.4649 103.372 53.4381C103.372 52.4113 102.964 51.4265 102.238 50.7004C101.512 49.9744 100.527 49.5664 99.4999 49.5664C98.4731 49.5664 97.4882 49.9744 96.7622 50.7004C96.0361 51.4265 95.6282 52.4113 95.6282 53.4381C95.6282 54.4649 96.0361 55.4498 96.7622 56.1759C97.4882 56.9019 98.4731 57.3099 99.4999 57.3099Z" fill="#AFDAD2" stroke="white" stroke-width="0.25"/>
<path d="M50.9977 94.5219C51.8309 94.5219 52.6301 94.1909 53.2192 93.6017C53.8084 93.0125 54.1395 92.2133 54.1395 91.3801C54.1395 90.5469 53.8084 89.7477 53.2192 89.1585C52.6301 88.5693 51.8309 88.2383 50.9977 88.2383C50.1644 88.2383 49.3652 88.5693 48.7761 89.1585C48.1869 89.7477 47.8558 90.5469 47.8558 91.3801C47.8558 92.2133 48.1869 93.0125 48.7761 93.6017C49.3652 94.1909 50.1644 94.5219 50.9977 94.5219Z" fill="#AFDAD2" stroke="white" stroke-width="0.25"/>
<path d="M154.48 61.1324C155.749 61.1324 156.966 60.6282 157.863 59.7309C158.761 58.8336 159.265 57.6164 159.265 56.3474C159.265 55.0785 158.761 53.8613 157.863 52.964C156.966 52.0667 155.749 51.5625 154.48 51.5625C153.211 51.5625 151.994 52.0667 151.096 52.964C150.199 53.8613 149.695 55.0785 149.695 56.3474C149.695 57.6164 150.199 58.8336 151.096 59.7309C151.994 60.6282 153.211 61.1324 154.48 61.1324Z" fill="#AFDAD2" stroke="white" stroke-width="0.25"/>
<path d="M108.309 57.8934C109.474 57.8934 110.591 57.4307 111.415 56.607C112.238 55.7834 112.701 54.6662 112.701 53.5014C112.701 52.3366 112.238 51.2194 111.415 50.3958C110.591 49.5721 109.474 49.1094 108.309 49.1094C107.144 49.1094 106.027 49.5721 105.203 50.3958C104.38 51.2194 103.917 52.3366 103.917 53.5014C103.917 54.6662 104.38 55.7834 105.203 56.607C106.027 57.4307 107.144 57.8934 108.309 57.8934Z" fill="#AFDAD2" stroke="white" stroke-width="0.25"/>
<path d="M57.2796 61.433C58.3595 61.433 59.3953 61.0039 60.1589 60.2403C60.9225 59.4767 61.3515 58.4409 61.3515 57.361C61.3515 56.2811 60.9225 55.2453 60.1589 54.4817C59.3953 53.7181 58.3595 53.2891 57.2796 53.2891C56.1997 53.2891 55.1639 53.7181 54.4003 54.4817C53.6367 55.2453 53.2076 56.2811 53.2076 57.361C53.2076 58.4409 53.6367 59.4767 54.4003 60.2403C55.1639 61.0039 56.1997 61.433 57.2796 61.433Z" fill="#AFDAD2" stroke="white" stroke-width="0.25"/>
<path d="M79.9419 50.9191C81.1903 50.9191 82.3878 50.4231 83.2707 49.5403C84.1535 48.6575 84.6495 47.46 84.6495 46.2115C84.6495 44.963 84.1535 43.7655 83.2707 42.8827C82.3878 41.9999 81.1903 41.5039 79.9419 41.5039C78.6934 41.5039 77.4959 41.9999 76.6131 42.8827C75.7303 43.7655 75.2343 44.963 75.2343 46.2115C75.2343 47.46 75.7303 48.6575 76.6131 49.5403C77.4959 50.4231 78.6934 50.9191 79.9419 50.9191Z" fill="#AFDAD2" stroke="white" stroke-width="0.25"/>
<path d="M168.267 57.2609C169.038 57.2609 169.778 56.9545 170.323 56.4092C170.868 55.8639 171.174 55.1243 171.174 54.3531C171.174 53.582 170.868 52.8423 170.323 52.297C169.778 51.7517 169.038 51.4453 168.267 51.4453C167.496 51.4453 166.756 51.7517 166.211 52.297C165.665 52.8423 165.359 53.582 165.359 54.3531C165.359 55.1243 165.665 55.8639 166.211 56.4092C166.756 56.9545 167.496 57.2609 168.267 57.2609Z" fill="#AFDAD2" stroke="white" stroke-width="0.25"/>
<path d="M66.9775 45.3825C67.9585 45.3825 68.8994 44.9927 69.5931 44.299C70.2868 43.6054 70.6765 42.6644 70.6765 41.6834C70.6765 40.7024 70.2868 39.7615 69.5931 39.0678C68.8994 38.3741 67.9585 37.9844 66.9775 37.9844C65.9965 37.9844 65.0555 38.3741 64.3619 39.0678C63.6682 39.7615 63.2784 40.7024 63.2784 41.6834C63.2784 42.6644 63.6682 43.6054 64.3619 44.299C65.0555 44.9927 65.9965 45.3825 66.9775 45.3825Z" fill="#AFDAD2" stroke="white" stroke-width="0.25"/>
<path d="M83.6585 61.9528C84.4934 61.9528 85.2943 61.621 85.8847 61.0307C86.4751 60.4403 86.8068 59.6394 86.8068 58.8045C86.8068 57.9696 86.4751 57.1687 85.8847 56.5784C85.2943 55.988 84.4934 55.6562 83.6585 55.6562C82.8236 55.6562 82.0227 55.988 81.4324 56.5784C80.842 57.1687 80.5103 57.9696 80.5103 58.8045C80.5103 59.6394 80.842 60.4403 81.4324 61.0307C82.0227 61.621 82.8236 61.9528 83.6585 61.9528Z" fill="#AFDAD2" stroke="white" stroke-width="0.25"/>
<path d="M91.1991 55.1197C92.0474 55.1197 92.861 54.7826 93.4608 54.1828C94.0606 53.583 94.3976 52.7694 94.3976 51.9212C94.3976 51.0729 94.0606 50.2593 93.4608 49.6595C92.861 49.0597 92.0474 48.7227 91.1991 48.7227C90.3509 48.7227 89.5372 49.0597 88.9374 49.6595C88.3376 50.2593 88.0006 51.0729 88.0006 51.9212C88.0006 52.7694 88.3376 53.583 88.9374 54.1828C89.5372 54.7826 90.3509 55.1197 91.1991 55.1197Z" fill="#AFDAD2" stroke="white" stroke-width="0.25"/>
<path d="M41.8022 63.245C42.6562 63.245 43.4753 62.9057 44.0791 62.3018C44.683 61.6979 45.0223 60.8788 45.0223 60.0248C45.0223 59.1708 44.683 58.3517 44.0791 57.7478C43.4753 57.144 42.6562 56.8047 41.8022 56.8047C40.9482 56.8047 40.129 57.144 39.5252 57.7478C38.9213 58.3517 38.582 59.1708 38.582 60.0248C38.582 60.8788 38.9213 61.6979 39.5252 62.3018C40.129 62.9057 40.9482 63.245 41.8022 63.245Z" fill="#AFDAD2" stroke="white" stroke-width="0.25"/>
<path d="M50.6694 50.7248C51.4529 50.7248 52.2044 50.4135 52.7584 49.8596C53.3123 49.3056 53.6236 48.5541 53.6236 47.7706C53.6236 46.9871 53.3123 46.2357 52.7584 45.6817C52.2044 45.1277 51.4529 44.8164 50.6694 44.8164C49.886 44.8164 49.1345 45.1277 48.5805 45.6817C48.0265 46.2357 47.7152 46.9871 47.7152 47.7706C47.7152 48.5541 48.0265 49.3056 48.5805 49.8596C49.1345 50.4135 49.886 50.7248 50.6694 50.7248Z" fill="#AFDAD2" stroke="white" stroke-width="0.25"/>
<path d="M118.824 59.8935C119.481 59.8935 120.111 59.6326 120.575 59.1683C121.04 58.704 121.3 58.0741 121.3 57.4174C121.3 56.7608 121.04 56.131 120.575 55.6666C120.111 55.2023 119.481 54.9414 118.824 54.9414C118.168 54.9414 117.538 55.2023 117.074 55.6666C116.609 56.131 116.348 56.7608 116.348 57.4174C116.348 58.0741 116.609 58.704 117.074 59.1683C117.538 59.6326 118.168 59.8935 118.824 59.8935Z" fill="#AFDAD2" stroke="white" stroke-width="0.25"/>
<path d="M39.5303 79.544C40.6156 79.544 41.6565 79.1128 42.424 78.3453C43.1914 77.5779 43.6226 76.5369 43.6226 75.4517C43.6226 74.3664 43.1914 73.3254 42.424 72.558C41.6565 71.7906 40.6156 71.3594 39.5303 71.3594C38.445 71.3594 37.404 71.7906 36.6366 72.558C35.8692 73.3254 35.438 74.3664 35.438 75.4517C35.438 76.5369 35.8692 77.5779 36.6366 78.3453C37.404 79.1128 38.445 79.544 39.5303 79.544Z" fill="#AFDAD2" stroke="white" stroke-width="0.25"/>
<path d="M30.3906 72.6451C31.2065 72.6451 31.9891 72.3209 32.566 71.744C33.1429 71.1671 33.4671 70.3845 33.4671 69.5686C33.4671 68.7527 33.1429 67.9702 32.566 67.3933C31.9891 66.8163 31.2065 66.4922 30.3906 66.4922C29.5748 66.4922 28.7922 66.8163 28.2153 67.3933C27.6384 67.9702 27.3142 68.7527 27.3142 69.5686C27.3142 70.3845 27.6384 71.1671 28.2153 71.744C28.7922 72.3209 29.5748 72.6451 30.3906 72.6451Z" fill="#AFDAD2" stroke="white" stroke-width="0.25"/>
<path d="M127.269 59.1773C128.089 59.1773 128.877 58.8512 129.457 58.2709C130.037 57.6906 130.363 56.9034 130.363 56.0828C130.363 55.2621 130.037 54.4749 129.457 53.8946C128.877 53.3143 128.089 52.9883 127.269 52.9883C126.448 52.9883 125.661 53.3143 125.081 53.8946C124.5 54.4749 124.174 55.2621 124.174 56.0828C124.174 56.9034 124.5 57.6906 125.081 58.2709C125.661 58.8512 126.448 59.1773 127.269 59.1773Z" fill="#AFDAD2" stroke="white" stroke-width="0.25"/>
<path d="M56.9139 75.2445C58.1791 75.2445 59.3926 74.7418 60.2873 73.8472C61.1819 72.9526 61.6846 71.739 61.6846 70.4738C61.6846 69.2086 61.1819 67.9951 60.2873 67.1004C59.3926 66.2058 58.1791 65.7031 56.9139 65.7031C55.6487 65.7031 54.4351 66.2058 53.5405 67.1004C52.6459 67.9951 52.1432 69.2086 52.1432 70.4738C52.1432 71.739 52.6459 72.9526 53.5405 73.8472C54.4351 74.7418 55.6487 75.2445 56.9139 75.2445Z" fill="#AFDAD2" stroke="white" stroke-width="0.25"/>
<path d="M162.01 53.5534C163.278 53.5534 164.495 53.0495 165.392 52.1526C166.288 51.2557 166.792 50.0392 166.792 48.7708C166.792 47.5025 166.288 46.2859 165.392 45.3891C164.495 44.4922 163.278 43.9883 162.01 43.9883C160.741 43.9883 159.525 44.4922 158.628 45.3891C157.731 46.2859 157.227 47.5025 157.227 48.7708C157.227 50.0392 157.731 51.2557 158.628 52.1526C159.525 53.0495 160.741 53.5534 162.01 53.5534Z" fill="#AFDAD2" stroke="white" stroke-width="0.25"/>
<path d="M42.067 98.618C42.8032 98.618 43.5093 98.3255 44.0298 97.805C44.5503 97.2844 44.8428 96.5783 44.8428 95.8422C44.8428 95.106 44.5503 94.3999 44.0298 93.8794C43.5093 93.3589 42.8032 93.0664 42.067 93.0664C41.3309 93.0664 40.6248 93.3589 40.1043 93.8794C39.5837 94.3999 39.2913 95.106 39.2913 95.8422C39.2913 96.5783 39.5837 97.2844 40.1043 97.805C40.6248 98.3255 41.3309 98.618 42.067 98.618Z" fill="#AFDAD2" stroke="white" stroke-width="0.25"/>
<path d="M111.407 44.4727C112.419 44.4727 113.39 44.0706 114.106 43.3549C114.821 42.6392 115.223 41.6684 115.223 40.6563C115.223 39.6441 114.821 38.6733 114.106 37.9577C113.39 37.242 112.419 36.8398 111.407 36.8398C110.395 36.8398 109.424 37.242 108.708 37.9577C107.993 38.6733 107.591 39.6441 107.591 40.6563C107.591 41.6684 107.993 42.6392 108.708 43.3549C109.424 44.0706 110.395 44.4727 111.407 44.4727Z" fill="#AFDAD2" stroke="white" stroke-width="0.25"/>
<path d="M190.701 49.7268C191.735 49.7268 192.727 49.316 193.458 48.5849C194.189 47.8539 194.6 46.8622 194.6 45.8282C194.6 44.7943 194.189 43.8026 193.458 43.0715C192.727 42.3405 191.735 41.9297 190.701 41.9297C189.667 41.9297 188.676 42.3405 187.945 43.0715C187.214 43.8026 186.803 44.7943 186.803 45.8282C186.803 46.8622 187.214 47.8539 187.945 48.5849C188.676 49.316 189.667 49.7268 190.701 49.7268Z" fill="#AFDAD2" stroke="white" stroke-width="0.25"/>
<path d="M138.838 47.7397C139.661 47.7397 140.451 47.4126 141.033 46.8305C141.615 46.2484 141.942 45.4587 141.942 44.6355C141.942 43.8122 141.615 43.0226 141.033 42.4405C140.451 41.8583 139.661 41.5312 138.838 41.5312C138.014 41.5312 137.225 41.8583 136.643 42.4405C136.06 43.0226 135.733 43.8122 135.733 44.6355C135.733 45.4587 136.06 46.2484 136.643 46.8305C137.225 47.4126 138.014 47.7397 138.838 47.7397Z" fill="#AFDAD2" stroke="white" stroke-width="0.25"/>
<path d="M71.158 88.6959C72.2313 88.6959 73.2608 88.2695 74.0198 87.5105C74.7787 86.7516 75.2052 85.7221 75.2052 84.6487C75.2052 83.5754 74.7787 82.5459 74.0198 81.787C73.2608 81.028 72.2313 80.6016 71.158 80.6016C70.0847 80.6016 69.0552 81.028 68.2962 81.787C67.5373 82.5459 67.1108 83.5754 67.1108 84.6487C67.1108 85.7221 67.5373 86.7516 68.2962 87.5105C69.0552 88.2695 70.0847 88.6959 71.158 88.6959Z" fill="#AFDAD2" stroke="white" stroke-width="0.25"/>
<path d="M149.366 49.0777C150.394 49.0777 151.379 48.6694 152.106 47.9428C152.833 47.2162 153.241 46.2305 153.241 45.2029C153.241 44.1753 152.833 43.1897 152.106 42.463C151.379 41.7364 150.394 41.3281 149.366 41.3281C148.338 41.3281 147.353 41.7364 146.626 42.463C145.899 43.1897 145.491 44.1753 145.491 45.2029C145.491 46.2305 145.899 47.2162 146.626 47.9428C147.353 48.6694 148.338 49.0777 149.366 49.0777Z" fill="#AFDAD2" stroke="white" stroke-width="0.25"/>
<path d="M176.804 52.8559C177.656 52.8559 178.473 52.5175 179.075 51.9153C179.677 51.3132 180.016 50.4963 180.016 49.6447C180.016 48.7931 179.677 47.9763 179.075 47.3741C178.473 46.7719 177.656 46.4336 176.804 46.4336C175.953 46.4336 175.136 46.7719 174.534 47.3741C173.932 47.9763 173.593 48.7931 173.593 49.6447C173.593 50.4963 173.932 51.3132 174.534 51.9153C175.136 52.5175 175.953 52.8559 176.804 52.8559Z" fill="#AFDAD2" stroke="white" stroke-width="0.25"/>
<path d="M207.118 59.8122C207.885 59.8122 208.622 59.5072 209.164 58.9644C209.707 58.4217 210.012 57.6854 210.012 56.9178C210.012 56.1502 209.707 55.414 209.164 54.8712C208.622 54.3284 207.885 54.0234 207.118 54.0234C206.35 54.0234 205.614 54.3284 205.071 54.8712C204.528 55.414 204.223 56.1502 204.223 56.9178C204.223 57.6854 204.528 58.4217 205.071 58.9644C205.614 59.5072 206.35 59.8122 207.118 59.8122Z" fill="#AFDAD2" stroke="white" stroke-width="0.25"/>
<path d="M98.8021 38.5439C99.4637 38.5439 100.098 38.2811 100.566 37.8133C101.034 37.3455 101.297 36.7109 101.297 36.0493C101.297 35.3877 101.034 34.7531 100.566 34.2853C100.098 33.8175 99.4637 33.5547 98.8021 33.5547C98.1405 33.5547 97.506 33.8175 97.0381 34.2853C96.5703 34.7531 96.3075 35.3877 96.3075 36.0493C96.3075 36.7109 96.5703 37.3455 97.0381 37.8133C97.506 38.2811 98.1405 38.5439 98.8021 38.5439Z" fill="#AFDAD2" stroke="white" stroke-width="0.25"/>
<path d="M121.485 31.6987C122.454 31.6987 123.383 31.3139 124.068 30.629C124.753 29.9442 125.137 29.0152 125.137 28.0466C125.137 27.0781 124.753 26.1491 124.068 25.4642C123.383 24.7793 122.454 24.3945 121.485 24.3945C120.517 24.3945 119.588 24.7793 118.903 25.4642C118.218 26.1491 117.833 27.0781 117.833 28.0466C117.833 29.0152 118.218 29.9442 118.903 30.629C119.588 31.3139 120.517 31.6987 121.485 31.6987Z" fill="#AFDAD2" stroke="white" stroke-width="0.25"/>
<path d="M206.472 51.2755C207.748 51.2755 208.972 50.7685 209.875 49.8662C210.777 48.9639 211.284 47.74 211.284 46.4639C211.284 45.1879 210.777 43.9639 209.875 43.0616C208.972 42.1593 207.748 41.6523 206.472 41.6523C205.196 41.6523 203.972 42.1593 203.07 43.0616C202.168 43.9639 201.661 45.1879 201.661 46.4639C201.661 47.74 202.168 48.9639 203.07 49.8662C203.972 50.7685 205.196 51.2755 206.472 51.2755Z" fill="#AFDAD2" stroke="white" stroke-width="0.25"/>
<path d="M115.974 53.2425C117.18 53.2425 118.337 52.7634 119.19 51.9107C120.042 51.058 120.521 49.9014 120.521 48.6955C120.521 47.4896 120.042 46.3329 119.19 45.4802C118.337 44.6275 117.18 44.1484 115.974 44.1484C114.768 44.1484 113.612 44.6275 112.759 45.4802C111.906 46.3329 111.427 47.4896 111.427 48.6955C111.427 49.9014 111.906 51.058 112.759 51.9107C113.612 52.7634 114.768 53.2425 115.974 53.2425Z" fill="#AFDAD2" stroke="white" stroke-width="0.25"/>
<path d="M132.797 36.2009C134 36.2009 135.154 35.723 136.004 34.8723C136.855 34.0217 137.333 32.8679 137.333 31.6649C137.333 30.4619 136.855 29.3081 136.004 28.4575C135.154 27.6068 134 27.1289 132.797 27.1289C131.594 27.1289 130.44 27.6068 129.589 28.4575C128.739 29.3081 128.261 30.4619 128.261 31.6649C128.261 32.8679 128.739 34.0217 129.589 34.8723C130.44 35.723 131.594 36.2009 132.797 36.2009Z" fill="#AFDAD2" stroke="white" stroke-width="0.25"/>
<path d="M172.12 41.7262C173.366 41.7262 174.562 41.231 175.443 40.3499C176.324 39.4687 176.819 38.2733 176.819 37.0271C176.819 35.7809 176.324 34.5856 175.443 33.7044C174.562 32.8232 173.366 32.3281 172.12 32.3281C170.874 32.3281 169.679 32.8232 168.797 33.7044C167.916 34.5856 167.421 35.7809 167.421 37.0271C167.421 38.2733 167.916 39.4687 168.797 40.3499C169.679 41.231 170.874 41.7262 172.12 41.7262Z" fill="#AFDAD2" stroke="white" stroke-width="0.25"/>
<path d="M220.769 71.2689C221.949 71.2689 223.08 70.8001 223.915 69.9658C224.749 69.1316 225.218 67.9999 225.218 66.82C225.218 65.6401 224.749 64.5084 223.915 63.6741C223.08 62.8399 221.949 62.3711 220.769 62.3711C219.589 62.3711 218.457 62.8399 217.623 63.6741C216.789 64.5084 216.32 65.6401 216.32 66.82C216.32 67.9999 216.789 69.1316 217.623 69.9658C218.457 70.8001 219.589 71.2689 220.769 71.2689Z" fill="#AFDAD2" stroke="white" stroke-width="0.25"/>
<path d="M120.458 17.4082C121.131 17.4082 121.778 17.1406 122.254 16.6643C122.73 16.1879 122.998 15.5418 122.998 14.8682C122.998 14.1945 122.73 13.5484 122.254 13.0721C121.778 12.5958 121.131 12.3281 120.458 12.3281C119.784 12.3281 119.138 12.5958 118.662 13.0721C118.185 13.5484 117.918 14.1945 117.918 14.8682C117.918 15.5418 118.185 16.1879 118.662 16.6643C119.138 17.1406 119.784 17.4082 120.458 17.4082Z" fill="#AFDAD2" stroke="white" stroke-width="0.25"/>
<path d="M161.022 44.3705C162.153 44.3705 163.238 43.9211 164.038 43.1212C164.838 42.3214 165.287 41.2364 165.287 40.1052C165.287 38.974 164.838 37.889 164.038 37.0891C163.238 36.2893 162.153 35.8398 161.022 35.8398C159.891 35.8398 158.806 36.2893 158.006 37.0891C157.206 37.889 156.757 38.974 156.757 40.1052C156.757 41.2364 157.206 42.3214 158.006 43.1212C158.806 43.9211 159.891 44.3705 161.022 44.3705Z" fill="#AFDAD2" stroke="white" stroke-width="0.25"/>
<path d="M155.315 36.1789C156.228 36.1789 157.104 35.8161 157.749 35.1705C158.395 34.5248 158.758 33.649 158.758 32.7359C158.758 31.8228 158.395 30.947 157.749 30.3014C157.104 29.6557 156.228 29.293 155.315 29.293C154.402 29.293 153.526 29.6557 152.88 30.3014C152.235 30.947 151.872 31.8228 151.872 32.7359C151.872 33.649 152.235 34.5248 152.88 35.1705C153.526 35.8161 154.402 36.1789 155.315 36.1789Z" fill="#AFDAD2" stroke="white" stroke-width="0.25"/>
<path d="M138.013 28.6792C139.185 28.6792 140.309 28.2137 141.137 27.3853C141.965 26.5568 142.431 25.4331 142.431 24.2615C142.431 23.0899 141.965 21.9661 141.137 21.1377C140.309 20.3092 139.185 19.8438 138.013 19.8438C136.842 19.8438 135.718 20.3092 134.889 21.1377C134.061 21.9661 133.595 23.0899 133.595 24.2615C133.595 25.4331 134.061 26.5568 134.889 27.3853C135.718 28.2137 136.842 28.6792 138.013 28.6792Z" fill="#AFDAD2" stroke="white" stroke-width="0.25"/>
<path d="M89.2821 46.6972C90.5954 46.6972 91.8551 46.1755 92.7838 45.2468C93.7124 44.3181 94.2342 43.0584 94.2342 41.7451C94.2342 40.4318 93.7124 39.1721 92.7838 38.2434C91.8551 37.3148 90.5954 36.793 89.2821 36.793C87.9688 36.793 86.7091 37.3148 85.7804 38.2434C84.8517 39.1721 84.33 40.4318 84.33 41.7451C84.33 43.0584 84.8517 44.3181 85.7804 45.2468C86.7091 46.1755 87.9688 46.6972 89.2821 46.6972Z" fill="#AFDAD2" stroke="white" stroke-width="0.25"/>
<path d="M58.7289 39.4051C59.4441 39.4051 60.13 39.1209 60.6357 38.6152C61.1414 38.1095 61.4256 37.4236 61.4256 36.7084C61.4256 35.9932 61.1414 35.3073 60.6357 34.8016C60.13 34.2959 59.4441 34.0117 58.7289 34.0117C58.0137 34.0117 57.3278 34.2959 56.8221 34.8016C56.3164 35.3073 56.0322 35.9932 56.0322 36.7084C56.0322 37.4236 56.3164 38.1095 56.8221 38.6152C57.3278 39.1209 58.0137 39.4051 58.7289 39.4051Z" fill="#AFDAD2" stroke="white" stroke-width="0.25"/>
<path d="M71.5501 37.5977C72.4772 37.5977 73.3666 37.2293 74.0222 36.5737C74.6778 35.9181 75.0462 35.0288 75.0462 34.1016C75.0462 33.1744 74.6778 32.2851 74.0222 31.6295C73.3666 30.9738 72.4772 30.6055 71.5501 30.6055C70.6229 30.6055 69.7336 30.9738 69.0779 31.6295C68.4223 32.2851 68.054 33.1744 68.054 34.1016C68.054 35.0288 68.4223 35.9181 69.0779 36.5737C69.7336 37.2293 70.6229 37.5977 71.5501 37.5977Z" fill="#AFDAD2" stroke="white" stroke-width="0.25"/>
<path d="M189.016 58.7747C190.159 58.7747 191.255 58.3206 192.063 57.5125C192.871 56.7044 193.325 55.6083 193.325 54.4655C193.325 53.3226 192.871 52.2265 192.063 51.4184C191.255 50.6103 190.159 50.1562 189.016 50.1562C187.873 50.1562 186.777 50.6103 185.969 51.4184C185.161 52.2265 184.707 53.3226 184.707 54.4655C184.707 55.6083 185.161 56.7044 185.969 57.5125C186.777 58.3206 187.873 58.7747 189.016 58.7747Z" fill="#AFDAD2" stroke="white" stroke-width="0.25"/>
<path d="M141.739 36.0631C142.373 36.0631 142.982 35.811 143.431 35.3623C143.879 34.9135 144.131 34.3048 144.131 33.6702C144.131 33.0356 143.879 32.4269 143.431 31.9782C142.982 31.5295 142.373 31.2773 141.739 31.2773C141.104 31.2773 140.495 31.5295 140.047 31.9782C139.598 32.4269 139.346 33.0356 139.346 33.6702C139.346 34.3048 139.598 34.9135 140.047 35.3623C140.495 35.811 141.104 36.0631 141.739 36.0631Z" fill="#AFDAD2" stroke="white" stroke-width="0.25"/>
<path d="M90.9239 36.5419C92.1275 36.5419 93.282 36.0637 94.1331 35.2126C94.9842 34.3615 95.4624 33.207 95.4624 32.0034C95.4624 30.7997 94.9842 29.6452 94.1331 28.7942C93.282 27.9431 92.1275 27.4648 90.9239 27.4648C89.7203 27.4648 88.5658 27.9431 87.7147 28.7942C86.8636 29.6452 86.3854 30.7997 86.3854 32.0034C86.3854 33.207 86.8636 34.3615 87.7147 35.2126C88.5658 36.0637 89.7203 36.5419 90.9239 36.5419Z" fill="#AFDAD2" stroke="white" stroke-width="0.25"/>
<path d="M24.326 92.1814C25.3726 92.1814 26.3764 91.7656 27.1164 91.0256C27.8564 90.2856 28.2722 89.2818 28.2722 88.2352C28.2722 87.1887 27.8564 86.1849 27.1164 85.4449C26.3764 84.7049 25.3726 84.2891 24.326 84.2891C23.2795 84.2891 22.2757 84.7049 21.5357 85.4449C20.7957 86.1849 20.3799 87.1887 20.3799 88.2352C20.3799 89.2818 20.7957 90.2856 21.5357 91.0256C22.2757 91.7656 23.2795 92.1814 24.326 92.1814Z" fill="#AFDAD2" stroke="white" stroke-width="0.25"/>
<path d="M34.8377 93.5401C36.0535 93.5401 37.2197 93.0571 38.0794 92.1973C38.9391 91.3376 39.4222 90.1714 39.4222 88.9556C39.4222 87.7398 38.9391 86.5736 38.0794 85.7139C37.2197 84.8541 36.0535 84.3711 34.8377 84.3711C33.6219 84.3711 32.4557 84.8541 31.5959 85.7139C30.7362 86.5736 30.2532 87.7398 30.2532 88.9556C30.2532 90.1714 30.7362 91.3376 31.5959 92.1973C32.4557 93.0571 33.6219 93.5401 34.8377 93.5401Z" fill="#AFDAD2" stroke="white" stroke-width="0.25"/>
<path d="M71.8867 53.1214C73.0569 53.1214 74.1793 52.6565 75.0067 51.8291C75.8341 51.0016 76.299 49.8793 76.299 48.7091C76.299 47.539 75.8341 46.4166 75.0067 45.5892C74.1793 44.7618 73.0569 44.2969 71.8867 44.2969C70.7166 44.2969 69.5942 44.7618 68.7668 45.5892C67.9394 46.4166 67.4745 47.539 67.4745 48.7091C67.4745 49.8793 67.9394 51.0016 68.7668 51.8291C69.5942 52.6565 70.7166 53.1214 71.8867 53.1214Z" fill="#AFDAD2" stroke="white" stroke-width="0.25"/>
<path d="M25.6227 82.359C26.5296 82.359 27.3995 81.9987 28.0408 81.3574C28.6821 80.7161 29.0424 79.8462 29.0424 78.9392C29.0424 78.0323 28.6821 77.1624 28.0408 76.5211C27.3995 75.8799 26.5296 75.5195 25.6227 75.5195C24.7158 75.5195 23.8459 75.8799 23.2046 76.5211C22.5633 77.1624 22.203 78.0323 22.203 78.9392C22.203 79.8462 22.5633 80.7161 23.2046 81.3574C23.8459 81.9987 24.7158 82.359 25.6227 82.359Z" fill="#AFDAD2" stroke="white" stroke-width="0.25"/>
<path d="M163.514 32.715C164.506 32.715 165.458 32.3207 166.16 31.6189C166.862 30.9171 167.256 29.9652 167.256 28.9727C167.256 27.9803 166.862 27.0283 166.16 26.3265C165.458 25.6248 164.506 25.2305 163.514 25.2305C162.521 25.2305 161.569 25.6248 160.868 26.3265C160.166 27.0283 159.771 27.9803 159.771 28.9727C159.771 29.9652 160.166 30.9171 160.868 31.6189C161.569 32.3207 162.521 32.715 163.514 32.715Z" fill="#AFDAD2" stroke="white" stroke-width="0.25"/>
<path d="M59.3342 48.4278C60.2373 48.4278 61.1036 48.069 61.7421 47.4304C62.3807 46.7918 62.7395 45.9256 62.7395 45.0225C62.7395 44.1194 62.3807 43.2532 61.7421 42.6146C61.1036 41.976 60.2373 41.6172 59.3342 41.6172C58.4311 41.6172 57.5649 41.976 56.9263 42.6146C56.2878 43.2532 55.929 44.1194 55.929 45.0225C55.929 45.9256 56.2878 46.7918 56.9263 47.4304C57.5649 48.069 58.4311 48.4278 59.3342 48.4278Z" fill="#AFDAD2" stroke="white" stroke-width="0.25"/>
<path d="M42.8253 89.4469C44.0919 89.4469 45.3069 88.9437 46.2026 88.048C47.0982 87.1524 47.6015 85.9374 47.6015 84.6707C47.6015 83.4041 47.0982 82.1891 46.2026 81.2935C45.3069 80.3978 44.0919 79.8945 42.8253 79.8945C41.5586 79.8945 40.3437 80.3978 39.448 81.2935C38.5523 82.1891 38.0491 83.4041 38.0491 84.6707C38.0491 85.9374 38.5523 87.1524 39.448 88.048C40.3437 88.9437 41.5586 89.4469 42.8253 89.4469Z" fill="#AFDAD2" stroke="white" stroke-width="0.25"/>
<path d="M198.084 56.9449C199.325 56.9449 200.515 56.4518 201.393 55.5743C202.27 54.6968 202.763 53.5064 202.763 52.2654C202.763 51.0244 202.27 49.834 201.393 48.9565C200.515 48.079 199.325 47.5859 198.084 47.5859C196.843 47.5859 195.652 48.079 194.775 48.9565C193.897 49.834 193.404 51.0244 193.404 52.2654C193.404 53.5064 193.897 54.6968 194.775 55.5743C195.652 56.4518 196.843 56.9449 198.084 56.9449Z" fill="#AFDAD2" stroke="white" stroke-width="0.25"/>
<path d="M214.955 56.3861C215.809 56.3861 216.627 56.047 217.231 55.4434C217.835 54.8399 218.174 54.0212 218.174 53.1676C218.174 52.3141 217.835 51.4954 217.231 50.8919C216.627 50.2883 215.809 49.9492 214.955 49.9492C214.102 49.9492 213.283 50.2883 212.679 50.8919C212.076 51.4954 211.737 52.3141 211.737 53.1676C211.737 54.0212 212.076 54.8399 212.679 55.4434C213.283 56.047 214.102 56.3861 214.955 56.3861Z" fill="#AFDAD2" stroke="white" stroke-width="0.25"/>
<path d="M103.689 48.4235C104.639 48.4235 105.551 48.0458 106.223 47.3735C106.896 46.7013 107.273 45.7894 107.273 44.8387C107.273 43.888 106.896 42.9761 106.223 42.3039C105.551 41.6316 104.639 41.2539 103.689 41.2539C102.738 41.2539 101.826 41.6316 101.154 42.3039C100.482 42.9761 100.104 43.888 100.104 44.8387C100.104 45.7894 100.482 46.7013 101.154 47.3735C101.826 48.0458 102.738 48.4235 103.689 48.4235Z" fill="#AFDAD2" stroke="white" stroke-width="0.25"/>
<path d="M182.382 44.3915C183.179 44.3915 183.942 44.0752 184.505 43.5122C185.068 42.9491 185.385 42.1854 185.385 41.3891C185.385 40.5929 185.068 39.8291 184.505 39.2661C183.942 38.7031 183.179 38.3867 182.382 38.3867C181.586 38.3867 180.822 38.7031 180.259 39.2661C179.696 39.8291 179.38 40.5929 179.38 41.3891C179.38 42.1854 179.696 42.9491 180.259 43.5122C180.822 44.0752 181.586 44.3915 182.382 44.3915Z" fill="#AFDAD2" stroke="white" stroke-width="0.25"/>
<path d="M181.092 36.8679C182.391 36.8679 183.636 36.352 184.555 35.4337C185.473 34.5154 185.989 33.2697 185.989 31.9711C185.989 30.6724 185.473 29.4268 184.555 28.5085C183.636 27.5902 182.391 27.0742 181.092 27.0742C179.794 27.0742 178.548 27.5902 177.63 28.5085C176.711 29.4268 176.195 30.6724 176.195 31.9711C176.195 33.2697 176.711 34.5154 177.63 35.4337C178.548 36.352 179.794 36.8679 181.092 36.8679Z" fill="#AFDAD2" stroke="white" stroke-width="0.25"/>
<path d="M120.718 45.2128C121.879 45.2128 122.993 44.7516 123.814 43.9306C124.635 43.1096 125.096 41.996 125.096 40.8349C125.096 39.6739 124.635 38.5603 123.814 37.7393C122.993 36.9183 121.879 36.457 120.718 36.457C119.557 36.457 118.443 36.9183 117.622 37.7393C116.801 38.5603 116.34 39.6739 116.34 40.8349C116.34 41.996 116.801 43.1096 117.622 43.9306C118.443 44.7516 119.557 45.2128 120.718 45.2128Z" fill="#AFDAD2" stroke="white" stroke-width="0.25"/>
<path d="M213.235 66.3788C214.231 66.3788 215.186 65.9831 215.891 65.2788C216.595 64.5745 216.991 63.6191 216.991 62.623C216.991 61.627 216.595 60.6716 215.891 59.9672C215.186 59.2629 214.231 58.8672 213.235 58.8672C212.239 58.8672 211.283 59.2629 210.579 59.9672C209.875 60.6716 209.479 61.627 209.479 62.623C209.479 63.6191 209.875 64.5745 210.579 65.2788C211.283 65.9831 212.239 66.3788 213.235 66.3788Z" fill="#AFDAD2" stroke="white" stroke-width="0.25"/>
<path d="M33.9377 100.288C34.5219 100.288 35.0822 100.056 35.4952 99.6431C35.9083 99.23 36.1404 98.6697 36.1404 98.0855C36.1404 97.5014 35.9083 96.941 35.4952 96.528C35.0822 96.1149 34.5219 95.8828 33.9377 95.8828C33.3535 95.8828 32.7932 96.1149 32.3801 96.528C31.9671 96.941 31.735 97.5014 31.735 98.0855C31.735 98.6697 31.9671 99.23 32.3801 99.6431C32.7932 100.056 33.3535 100.288 33.9377 100.288Z" fill="#AFDAD2" stroke="white" stroke-width="0.25"/>
<path d="M80.2325 39.2057C81.3232 39.2057 82.3693 38.7724 83.1405 38.0011C83.9118 37.2299 84.3451 36.1838 84.3451 35.0931C84.3451 34.0024 83.9118 32.9562 83.1405 32.185C82.3693 31.4138 81.3232 30.9805 80.2325 30.9805C79.1418 30.9805 78.0957 31.4138 77.3244 32.185C76.5532 32.9562 76.1199 34.0024 76.1199 35.0931C76.1199 36.1838 76.5532 37.2299 77.3244 38.0011C78.0957 38.7724 79.1418 39.2057 80.2325 39.2057Z" fill="#AFDAD2" stroke="white" stroke-width="0.25"/>
<path d="M110.253 32.5001C111.032 32.5001 111.779 32.1905 112.33 31.6397C112.881 31.0888 113.19 30.3416 113.19 29.5625C113.19 28.7835 112.881 28.0362 112.33 27.4854C111.779 26.9345 111.032 26.625 110.253 26.625C109.474 26.625 108.726 26.9345 108.176 27.4854C107.625 28.0362 107.315 28.7835 107.315 29.5625C107.315 30.3416 107.625 31.0888 108.176 31.6397C108.726 32.1905 109.474 32.5001 110.253 32.5001Z" fill="#AFDAD2" stroke="white" stroke-width="0.25"/>
<path d="M195.507 41.5485C196.487 41.5485 197.428 41.1591 198.121 40.4659C198.814 39.7728 199.203 38.8326 199.203 37.8524C199.203 36.8722 198.814 35.9319 198.121 35.2388C197.428 34.5457 196.487 34.1562 195.507 34.1562C194.527 34.1562 193.587 34.5457 192.894 35.2388C192.2 35.9319 191.811 36.8722 191.811 37.8524C191.811 38.8326 192.2 39.7728 192.894 40.4659C193.587 41.1591 194.527 41.5485 195.507 41.5485Z" fill="#AFDAD2" stroke="white" stroke-width="0.25"/>
<path d="M102.043 26.5675C103.262 26.5675 104.432 26.0832 105.293 25.2213C106.155 24.3594 106.64 23.1902 106.64 21.9713C106.64 20.7523 106.155 19.5831 105.293 18.7212C104.432 17.8593 103.262 17.375 102.043 17.375C100.824 17.375 99.6553 17.8593 98.7934 18.7212C97.9314 19.5831 97.4471 20.7523 97.4471 21.9713C97.4471 23.1902 97.9314 24.3594 98.7934 25.2213C99.6553 26.0832 100.824 26.5675 102.043 26.5675Z" fill="#AFDAD2" stroke="white" stroke-width="0.25"/>
<path d="M174.151 30.9573C175.278 30.9573 176.36 30.5095 177.157 29.7125C177.954 28.9155 178.401 27.8343 178.401 26.7072C178.401 25.58 177.954 24.4989 177.157 23.7019C176.36 22.9049 175.278 22.457 174.151 22.457C173.024 22.457 171.943 22.9049 171.146 23.7019C170.349 24.4989 169.901 25.58 169.901 26.7072C169.901 27.8343 170.349 28.9155 171.146 29.7125C171.943 30.5095 173.024 30.9573 174.151 30.9573Z" fill="#AFDAD2" stroke="white" stroke-width="0.25"/>
<path d="M81.3268 26.4268C82.2297 26.4268 83.0958 26.068 83.7343 25.4295C84.3728 24.791 84.7316 23.9249 84.7316 23.022C84.7316 22.119 84.3728 21.2529 83.7343 20.6144C83.0958 19.9759 82.2297 19.6172 81.3268 19.6172C80.4238 19.6172 79.5577 19.9759 78.9192 20.6144C78.2807 21.2529 77.922 22.119 77.922 23.022C77.922 23.9249 78.2807 24.791 78.9192 25.4295C79.5577 26.068 80.4238 26.4268 81.3268 26.4268Z" fill="#AFDAD2" stroke="white" stroke-width="0.25"/>
<path d="M89.5034 23.7938C90.4995 23.7938 91.4551 23.398 92.1595 22.6936C92.8639 21.9892 93.2597 21.0337 93.2597 20.0375C93.2597 19.0414 92.8639 18.0858 92.1595 17.3814C91.4551 16.677 90.4995 16.2812 89.5034 16.2812C88.5072 16.2812 87.5517 16.677 86.8473 17.3814C86.1429 18.0858 85.7471 19.0414 85.7471 20.0375C85.7471 21.0337 86.1429 21.9892 86.8473 22.6936C87.5517 23.398 88.5072 23.7938 89.5034 23.7938Z" fill="#AFDAD2" stroke="white" stroke-width="0.25"/>
<path d="M147.399 19.0872C148.567 19.0872 149.688 18.6228 150.515 17.7964C151.341 16.97 151.805 15.849 151.805 14.6803C151.805 13.5116 151.341 12.3906 150.515 11.5642C149.688 10.7378 148.567 10.2734 147.399 10.2734C146.23 10.2734 145.109 10.7378 144.282 11.5642C143.456 12.3906 142.992 13.5116 142.992 14.6803C142.992 15.849 143.456 16.97 144.282 17.7964C145.109 18.6228 146.23 19.0872 147.399 19.0872Z" fill="#AFDAD2" stroke="white" stroke-width="0.25"/>
<path d="M129.692 20.0239C130.601 20.0239 131.474 19.6625 132.117 19.0193C132.76 18.3761 133.122 17.5036 133.122 16.594C133.122 15.6844 132.76 14.8119 132.117 14.1687C131.474 13.5255 130.601 13.1641 129.692 13.1641C128.782 13.1641 127.91 13.5255 127.267 14.1687C126.623 14.8119 126.262 15.6844 126.262 16.594C126.262 17.5036 126.623 18.3761 127.267 19.0193C127.91 19.6625 128.782 20.0239 129.692 20.0239Z" fill="#AFDAD2" stroke="white" stroke-width="0.25"/>
<path d="M156.201 24.2064C156.896 24.2064 157.563 23.9301 158.055 23.4382C158.547 22.9464 158.823 22.2792 158.823 21.5837C158.823 20.8881 158.547 20.221 158.055 19.7291C157.563 19.2373 156.896 18.9609 156.201 18.9609C155.505 18.9609 154.838 19.2373 154.346 19.7291C153.854 20.221 153.578 20.8881 153.578 21.5837C153.578 22.2792 153.854 22.9464 154.346 23.4382C154.838 23.9301 155.505 24.2064 156.201 24.2064Z" fill="#AFDAD2" stroke="white" stroke-width="0.25"/>
<path d="M147.442 28.2349C148.732 28.2349 149.969 27.7224 150.881 26.8104C151.793 25.8983 152.306 24.6612 152.306 23.3713C152.306 22.0815 151.793 20.8444 150.881 19.9323C149.969 19.0203 148.732 18.5078 147.442 18.5078C146.153 18.5078 144.915 19.0203 144.003 19.9323C143.091 20.8444 142.579 22.0815 142.579 23.3713C142.579 24.6612 143.091 25.8983 144.003 26.8104C144.915 27.7224 146.153 28.2349 147.442 28.2349Z" fill="#AFDAD2" stroke="white" stroke-width="0.25"/>
<path d="M166.745 23.5148C167.636 23.5148 168.491 23.1607 169.121 22.5304C169.752 21.9002 170.106 21.0452 170.106 20.1539C170.106 19.2626 169.752 18.4076 169.121 17.7774C168.491 17.1471 167.636 16.793 166.745 16.793C165.854 16.793 164.999 17.1471 164.368 17.7774C163.738 18.4076 163.384 19.2626 163.384 20.1539C163.384 21.0452 163.738 21.9002 164.368 22.5304C164.999 23.1607 165.854 23.5148 166.745 23.5148Z" fill="#AFDAD2" stroke="white" stroke-width="0.25"/>
<path d="M15.9259 105.502C17.0456 105.502 18.1195 105.058 18.9112 104.266C19.703 103.474 20.1478 102.4 20.1478 101.281C20.1478 100.161 19.703 99.0869 18.9112 98.2952C18.1195 97.5034 17.0456 97.0586 15.9259 97.0586C14.8062 97.0586 13.7323 97.5034 12.9406 98.2952C12.1488 99.0869 11.704 100.161 11.704 101.281C11.704 102.4 12.1488 103.474 12.9406 104.266C13.7323 105.058 14.8062 105.502 15.9259 105.502Z" fill="#AFDAD2" stroke="white" stroke-width="0.25"/>
<path d="M111.722 23.2257C112.324 23.2257 112.903 22.9862 113.329 22.56C113.755 22.1337 113.995 21.5555 113.995 20.9527C113.995 20.3499 113.755 19.7717 113.329 19.3454C112.903 18.9192 112.324 18.6797 111.722 18.6797C111.119 18.6797 110.54 18.9192 110.114 19.3454C109.688 19.7717 109.448 20.3499 109.448 20.9527C109.448 21.5555 109.688 22.1337 110.114 22.56C110.54 22.9862 111.119 23.2257 111.722 23.2257Z" fill="#AFDAD2" stroke="white" stroke-width="0.25"/>
<path d="M189.81 33.6306C190.537 33.6306 191.235 33.3415 191.749 32.8272C192.264 32.3128 192.553 31.615 192.553 30.8876C192.553 30.1601 192.264 29.4623 191.749 28.9479C191.235 28.4336 190.537 28.1445 189.81 28.1445C189.082 28.1445 188.384 28.4336 187.87 28.9479C187.356 29.4623 187.067 30.1601 187.067 30.8876C187.067 31.615 187.356 32.3128 187.87 32.8272C188.384 33.3415 189.082 33.6306 189.81 33.6306Z" fill="#AFDAD2" stroke="white" stroke-width="0.25"/>
<path d="M138.542 19.9071C139.594 19.9071 140.603 19.4891 141.347 18.7451C142.091 18.0011 142.509 16.992 142.509 15.9399C142.509 14.8877 142.091 13.8786 141.347 13.1346C140.603 12.3907 139.594 11.9727 138.542 11.9727C137.49 11.9727 136.481 12.3907 135.737 13.1346C134.993 13.8786 134.575 14.8877 134.575 15.9399C134.575 16.992 134.993 18.0011 135.737 18.7451C136.481 19.4891 137.49 19.9071 138.542 19.9071Z" fill="#AFDAD2" stroke="white" stroke-width="0.25"/>
<path d="M47.9504 80.1487C49.1625 80.1487 50.3251 79.6671 51.1822 78.81C52.0393 77.9529 52.5209 76.7903 52.5209 75.5782C52.5209 74.3661 52.0393 73.2035 51.1822 72.3465C50.3251 71.4894 49.1625 71.0078 47.9504 71.0078C46.7383 71.0078 45.5757 71.4894 44.7187 72.3465C43.8616 73.2035 43.38 74.3661 43.38 75.5782C43.38 76.7903 43.8616 77.9529 44.7187 78.81C45.5757 79.6671 46.7383 80.1487 47.9504 80.1487Z" fill="#AFDAD2" stroke="white" stroke-width="0.25"/>
<path d="M174.343 58.5619L169.626 58.4492L164.908 58.5574L160.191 58.8852L155.476 59.4286L150.765 60.1807L146.06 61.1324L141.362 62.2722L136.671 63.5864L131.987 65.0598L127.311 66.676L122.644 68.4173L117.984 70.2654L113.331 72.2014L108.686 74.2064L104.047 76.2617L99.4151 78.349L90.1693 82.5494L85.5547 84.6301L80.9452 86.6782L76.3404 88.6804L71.74 90.6253L67.1435 92.5028L62.5507 94.3045L57.961 96.0233L53.374 97.6539L48.7892 99.1924L44.2062 100.636L39.6245 101.984L35.0434 103.236L30.4627 104.394L25.8818 105.458L21.3003 106.432L16.7178 107.319L12.134 108.122L7.10578 108.917L6.88414 110.446C6.0422 116.256 5.6189 122.121 5.6189 127.998C5.6189 132.576 5.8758 137.148 6.38767 141.693L6.70783 144.536L13.3473 141.589L17.9785 139.501L27.2239 135.3L31.8381 133.221L36.4461 131.179L41.0477 129.193L45.6423 127.281L50.2298 125.462L54.8098 123.753L59.382 122.172L63.9464 120.736L68.5029 119.459L73.0517 118.356L77.5932 117.437L82.1282 116.713L86.6577 116.191L91.1831 115.876L95.7058 115.773L100.228 115.881L104.75 116.199L109.276 116.725L113.805 117.452L118.34 118.373L122.882 119.478L127.431 120.755L131.987 122.191L136.551 123.77L141.124 125.477L145.704 127.294L150.291 129.204L154.886 131.187L159.487 133.227L164.095 135.303L173.33 139.498L177.955 141.584L182.585 143.641L187.221 145.657L191.86 147.619L196.504 149.516L201.151 151.339L205.801 153.081L210.455 154.736L215.11 156.299L219.767 157.767L224.425 159.138L229.084 160.412L233.743 161.59L238.402 162.673L244.954 164.068L245.499 162.197C248.586 151.59 250.224 140.608 250.365 129.553L250.375 128.011L250.365 126.457L250.333 124.793C249.938 109.799 246.796 95.0149 241.059 81.166L240.636 80.1569L239.88 78.4086L235.117 76.2664L230.487 74.2145L225.848 72.2121L221.203 70.2786L216.55 68.4327L211.89 66.6932L207.223 65.0782L202.547 63.6053L197.863 62.2908L193.172 61.1499L188.474 60.1961L183.769 59.441L179.058 58.894L174.343 58.5619ZM169.577 60.5458L174.197 60.654L178.817 60.9772L183.437 61.5118L188.057 62.2515L192.677 63.1878L197.297 64.31L201.917 65.6056L206.537 67.0602L211.157 68.658L215.777 70.3821L220.397 72.2147L225.017 74.1375L229.637 76.1318L234.257 78.179L238.281 79.9888C238.567 80.6459 238.847 81.3058 239.122 81.9685C244.762 95.5862 247.849 110.117 248.236 124.834L248.268 126.47L248.278 127.998L248.268 129.526C248.13 140.406 246.516 151.198 243.485 161.611L238.877 160.631L234.257 159.557L229.637 158.39L225.017 157.126L220.397 155.767L215.777 154.311L211.157 152.76L206.537 151.117L201.917 149.387L197.297 147.574L192.677 145.687L188.057 143.734L183.437 141.725L178.817 139.672L174.197 137.589L164.957 133.391L160.337 131.309L155.717 129.262L151.097 127.268L146.477 125.345L141.857 123.512L137.237 121.788L132.617 120.19L127.997 118.736L123.377 117.44L118.757 116.318L114.137 115.382L109.517 114.642L104.897 114.107L100.277 113.784L95.6567 113.676L91.0367 113.784L86.4167 114.107L81.7967 114.642L77.1767 115.382L72.5566 116.318L67.9366 117.44L63.3166 118.736L58.6966 120.19L54.0766 121.788L49.4566 123.512L44.8365 125.345L40.2165 127.268L35.5965 129.262L30.9765 131.309L26.3565 133.391L17.1165 137.589L12.4964 139.672L8.47163 141.459C7.96928 136.998 7.71603 132.504 7.71603 127.998C7.71603 122.212 8.13347 116.447 8.95959 110.747L12.4964 110.188L17.1165 109.377L21.7365 108.483L26.3565 107.501L30.9765 106.427L35.5965 105.259L40.2165 103.996L44.8365 102.636L49.4566 101.181L54.0766 99.6298L58.6966 97.9872L63.3166 96.2567L67.9366 94.4442L72.5566 92.5569L77.1767 90.6036L81.7967 88.5946L86.4167 86.5419L91.0367 84.4587L100.277 80.2609L104.897 78.179L109.517 76.1318L114.137 74.1375L118.757 72.2147L123.377 70.3821L127.997 68.658L132.617 67.0602L137.237 65.6056L141.857 64.31L146.477 63.1878L151.097 62.2515L155.717 61.5118L160.337 60.9772L164.957 60.654L169.577 60.5458Z" fill="white"/>
<path d="M169.577 60.043L174.22 60.1517L178.863 60.4766L183.505 61.0137L188.146 61.7567L192.786 62.697L197.424 63.8236L202.06 65.1236L206.694 66.5827L211.326 68.1848L215.962 69.9147L220.589 71.7505L225.215 73.6758L229.84 75.672L234.463 77.7205L238.664 79.6138C238.977 80.3307 239.284 81.051 239.584 81.7745C245.327 95.6402 248.433 110.449 248.751 125.441L248.768 126.464L248.778 127.998L248.768 129.53C248.627 140.609 246.963 151.599 243.835 162.193L238.764 161.115L234.135 160.039L229.505 158.869L224.876 157.603L220.247 156.241L215.618 154.782L210.99 153.228L206.362 151.583L201.734 149.85L197.108 148.035L192.482 146.145L187.858 144.19L183.234 142.179L178.611 140.125L173.99 138.041L164.752 133.844L160.134 131.764L155.519 129.718L150.905 127.727L146.293 125.807L141.682 123.978L137.068 122.256L132.46 120.662L127.854 119.212L123.25 117.921L118.648 116.803L114.048 115.871L109.449 115.135L104.851 114.603L100.253 114.281L95.6567 114.173L91.06 114.281L86.4629 114.603L81.865 115.135L77.2659 115.871L72.6654 116.803L68.0632 117.921L63.4593 119.212L58.8534 120.662L54.2458 122.256L49.641 123.974L45.0287 125.804L40.4147 127.724L35.7991 129.716L31.182 131.762L26.5633 133.844L17.322 138.042L12.6995 140.126L8.05322 142.191C7.49672 137.489 7.21606 132.749 7.21606 127.995C7.21606 122.063 7.65318 116.152 8.51804 110.309L12.4101 109.693L17.0214 108.884L21.6325 107.991L26.2433 107.011L30.854 105.939L35.4647 104.774L40.0754 103.514L44.6863 102.157L49.2975 100.704L53.9091 99.1561L58.5212 97.5163L63.134 95.7886L67.7476 93.9787L72.362 92.0937L76.9773 90.1424L81.5937 88.135L86.2112 86.0834L90.8299 84.0008L100.071 79.8024L104.694 77.7192L109.319 75.6701L113.945 73.6732L118.572 71.7473L123.202 69.911L127.828 68.1848L132.46 66.5827L137.094 65.1236L141.73 63.8236L146.368 62.697L151.008 61.7567L155.649 61.0137L160.291 60.4766L164.934 60.1517L169.577 60.043Z" fill="#7DB0BC" stroke="white"/>
<path d="M95.6567 115.984L100.277 116.093L104.897 116.416L109.517 116.95L114.137 117.69L118.757 118.626L123.377 119.749L127.997 121.044L132.617 122.499L137.237 124.097L141.857 125.821L146.477 127.653L151.097 129.576L155.717 131.57L160.337 133.618L164.957 135.7L169.577 137.798L174.197 139.897L178.817 141.98L183.437 144.033L188.057 146.042L192.677 147.996L197.297 149.883L201.917 151.695L206.537 153.426L211.157 155.068L215.777 156.619L220.397 158.075L225.017 159.435L229.637 160.698L234.257 161.865L238.877 162.939L242.832 163.78C241.752 167.244 240.515 170.663 239.122 174.026C233.077 188.619 224.217 201.879 213.048 213.048C201.879 224.217 188.619 233.077 174.026 239.121C159.434 245.166 143.792 248.277 127.997 248.277C112.202 248.277 96.5602 245.166 81.9674 239.121C67.3746 233.077 54.1143 224.217 42.9455 213.048C31.7766 201.879 22.9164 188.619 16.8719 174.026C12.8348 164.279 10.1061 154.065 8.73901 143.65L12.4965 141.98L17.1165 139.897L21.7365 137.798L26.3565 135.7L30.9765 133.618L35.5965 131.57L40.2166 129.576L44.8366 127.653L49.4566 125.821L54.0766 124.097L58.6966 122.499L63.3166 121.044L67.9366 119.749L72.5567 118.626L77.1767 117.69L81.7967 116.95L86.4167 116.416L91.0367 116.093L95.6567 115.984Z" fill="#5C7DA2"/>
<path d="M104.897 147.129V162.622H132.617V184.017H160.337V198.652H188.057V204.829H215.777L215.777 210.228C214.883 211.182 213.974 212.121 213.048 213.047C201.879 224.216 188.619 233.076 174.026 239.121C159.434 245.165 143.792 248.276 127.997 248.276C112.202 248.276 96.5602 245.165 81.9674 239.121C67.3746 233.076 54.1143 224.216 42.9455 213.047C34.4734 204.575 27.3296 194.899 21.7356 184.352L21.7365 169.917H49.4566V150.61H77.1767V147.129H104.897Z" fill="#444876"/>
<path d="M105.843 146.184L105.843 161.677L133.563 161.677L133.563 183.072L161.283 183.072L161.283 197.707L189.004 197.707L189.003 203.884L216.724 203.884L216.725 209.206C216.101 209.887 215.469 210.561 214.83 211.229L214.829 205.775L189.003 205.775L189.003 231.658C188.375 232.028 187.744 232.392 187.109 232.75L187.109 199.599L161.283 199.598L161.283 243.58C160.653 243.762 160.022 243.938 159.389 244.109L159.389 184.964L133.563 184.964L133.563 248.149C132.932 248.178 132.3 248.202 131.669 248.222L131.669 163.569L105.843 163.569L105.843 246.22C105.211 246.101 104.579 245.978 103.948 245.849L103.949 148.075H78.1222L78.1219 149.665L78.1232 149.665L78.1221 237.45C77.4881 237.161 76.8569 236.867 76.2284 236.567L76.2292 151.556H50.4022L50.4019 168.971L50.4031 168.971L50.402 219.902C49.7657 219.364 49.1347 218.82 48.5093 218.27L48.5093 170.864H22.6822L22.681 186.1C22.0303 184.921 21.3993 183.73 20.7881 182.529L20.7901 168.971L48.5099 168.971L48.5102 149.665L76.2299 149.665L76.2303 146.184H105.843Z" fill="white"/>
<path d="M127.997 0C144.805 0 161.45 3.31089 176.979 9.74318C192.508 16.1755 206.619 25.6041 218.504 37.4894C230.39 49.3747 239.818 63.4856 246.251 79.0146C252.475 94.0426 255.777 110.116 255.983 126.371L255.994 127.997L255.983 129.623C255.777 145.878 252.475 161.951 246.251 176.979C239.818 192.508 230.39 206.619 218.504 218.504C206.619 230.39 192.508 239.818 176.979 246.251C161.45 252.683 144.805 255.994 127.997 255.994C111.188 255.994 94.5435 252.683 79.0146 246.251C63.4856 239.818 49.3747 230.39 37.4894 218.504C25.6041 206.619 16.1755 192.508 9.74318 176.979C3.31089 161.45 0 144.805 0 127.997C0 111.188 3.31089 94.5435 9.74318 79.0146C16.1755 63.4856 25.6041 49.3747 37.4894 37.4894C49.3747 25.6041 63.4856 16.1755 79.0146 9.74318C94.5435 3.31089 111.188 0 127.997 0ZM127.997 4.20293C111.74 4.20293 95.642 7.4051 80.623 13.6262C65.604 19.8473 51.9564 28.9663 40.4613 40.4613C28.9663 51.9564 19.8473 65.604 13.6262 80.623C7.4051 95.642 4.20293 111.74 4.20293 127.997C4.20293 144.253 7.4051 160.352 13.6262 175.371C19.8473 190.39 28.9663 204.037 40.4613 215.532C51.9564 227.027 65.604 236.146 80.623 242.368C95.642 248.589 111.74 251.791 127.997 251.791C144.253 251.791 160.352 248.589 175.371 242.368C190.39 236.146 204.037 227.027 215.532 215.532C227.027 204.037 236.146 190.39 242.368 175.371C248.388 160.836 251.581 145.291 251.781 129.57L251.791 127.997L251.781 126.424C251.581 110.703 248.388 95.1575 242.368 80.623C236.146 65.604 227.027 51.9564 215.532 40.4613C204.037 28.9663 190.39 19.8473 175.371 13.6262C160.352 7.4051 144.253 4.20293 127.997 4.20293Z" fill="#444876"/>
</g>
<defs>
<clipPath id="clip0_1_9995">
<rect width="256" height="256" fill="white"/>
</clipPath>
</defs>
</svg>
