<svg width="512" height="171" viewBox="0 0 512 171" fill="none" xmlns="http://www.w3.org/2000/svg">
<g clip-path="url(#clip0_1_10206)">
<path d="M38.7275 119.451L86.6988 129.672V39.959L38.7275 50.1403V119.451ZM100.981 148.33L27.2275 128.397V41.1637L100.871 21.375L100.976 148.335L100.981 148.33Z" fill="#00A86B"/>
<path d="M70.7303 0L0 25.6548V144.045L70.7303 169.704V0ZM12.604 137.093V32.6161L56.6061 19.0352V150.669L12.604 137.088V137.093Z" fill="#00A86B"/>
<path d="M70.7302 43.3423L77.7091 41.8659V27.6016L70.7302 29.4722V43.3423ZM70.7302 140.152L77.7091 142.036V127.759L70.7302 126.269V140.152Z" fill="#038754"/>
<path d="M172.04 44.2383C187.631 44.2383 197.475 50.6783 200.279 63.2691L187.285 66.7782C185.778 58.7392 181.025 55.2782 172.04 55.2782C163.041 55.2782 158.375 59.5847 158.375 65.6567C158.375 72.0573 161.043 75.2597 174.817 77.2487C193.476 79.7852 203.14 85.0818 203.14 100.866C203.14 114.557 191.478 125.268 173.928 125.268C154.113 125.268 144.825 116.292 142.534 103.355L156.224 99.6572H156.268C157.263 107.604 160.487 114.228 173.928 114.228C182.703 114.228 188.924 109.37 188.924 102.084C188.924 94.7987 185.257 92.0387 172.368 89.9403C153.377 87.3993 144.383 81.6603 144.383 66.8702C144.383 53.9508 155.488 44.2383 172.04 44.2383ZM236.913 65.2142C251.352 65.2142 264.346 73.7132 264.346 94.3562V98.2202H221.807C222.25 109.146 227.805 115.332 237.797 115.332C245.911 115.332 250.13 112.13 251.133 106.5H264.127C262.243 118.64 252.355 125.268 237.469 125.268C220.366 125.268 208.033 114.119 208.033 95.9027V95.0178C208.033 77.1304 220.366 65.2142 236.913 65.2142ZM422.467 65.2142C439.461 65.2142 452.236 77.0252 452.236 94.6892V95.5698C452.236 113.562 439.461 125.268 422.358 125.268C405.25 125.268 392.589 113.457 392.589 95.9027V95.0178C392.589 77.1304 405.36 65.2142 422.467 65.2142ZM299.564 65.2098C312.444 65.2098 324.558 70.9489 326.113 86.8429H313.115C312.006 79.1193 306.894 75.9169 299.783 75.9169C290.566 75.9169 284.012 82.9833 284.012 94.9039V95.7932C284.012 108.375 290.233 114.999 300.121 114.999C307.231 114.995 313.338 110.802 314.113 102.632H326.446C325.447 115.88 315.336 125.264 299.564 125.264C282.904 125.264 270.243 114.443 270.243 96.0035V95.1273C270.243 76.8018 283.346 65.2098 299.564 65.2098ZM347.711 47.8701V66.4277H360.486V76.4732H347.711V106.829C347.711 111.906 350.155 114.228 354.374 114.228C357.038 114.228 359.044 113.895 360.928 113.12V123.722C358.817 124.497 355.93 125.154 351.82 125.154C340.268 125.154 334.27 118.973 334.27 108.047V51.5063L347.711 47.8701ZM384.59 66.4277V124.164H371.149V66.4277H384.59ZM492.12 65.2142C503.782 65.2142 512.001 71.9433 512.001 87.8462V124.164H498.56V89.0597C498.56 80.3328 495.007 76.3593 487.007 76.3593C479.455 76.3593 473.347 81.0031 473.347 90.1593V124.164H459.907V66.4321H473.347V75.5883C476.125 69.9588 482.569 65.2142 492.12 65.2142ZM422.467 75.6978C412.47 75.6978 406.363 82.8782 406.363 94.7987V95.6793C406.363 107.49 412.251 114.89 422.467 114.89C432.465 114.89 438.466 107.49 438.466 95.6793V94.9082C438.466 82.9877 432.465 75.6978 422.467 75.6978ZM236.913 74.9268C228.803 74.9268 223.362 80.3328 222.03 89.2787H251.019C250.353 79.3428 245.245 74.9268 236.913 74.9268ZM384.59 45.1495V58.507H371.149V45.1495H384.59Z" fill="black"/>
</g>
<defs>
<clipPath id="clip0_1_10206">
<rect width="512" height="171" fill="white"/>
</clipPath>
</defs>
</svg>
