<svg width="256" height="160" viewBox="0 0 256 160" fill="none" xmlns="http://www.w3.org/2000/svg">
<g clip-path="url(#clip0_1_10235)">
<path d="M26.5235 66.6172L70.8724 111.612C83.6512 124.608 104.591 124.608 117.369 111.612L152.483 75.9001C157.53 70.7672 165.799 70.7672 170.846 75.9001L188.241 93.5921L144 138.696C130.255 152.675 112.215 159.555 94.1744 159.555C76.134 159.555 58.0939 152.565 44.3489 138.587L0 93.5921L26.5235 66.6172Z" fill="#F06332"/>
<path d="M211.651 20.9684L256 66.0723L229.369 93.1561L185.02 48.0526C172.134 34.9473 151.409 34.9473 138.524 48.0526L103.41 83.7641C98.3628 88.897 90.0945 88.897 85.0474 83.7641L67.6514 66.0723L112 20.9684C139.49 -6.98947 184.161 -6.98947 211.651 20.9684Z" fill="#029D74"/>
</g>
<defs>
<clipPath id="clip0_1_10235">
<rect width="256" height="160" fill="white"/>
</clipPath>
</defs>
</svg>
