<svg width="512" height="157" viewBox="0 0 512 157" fill="none" xmlns="http://www.w3.org/2000/svg">
<g clip-path="url(#clip0_1_10229)">
<path d="M459.515 21.7164C458.426 22.9897 457.883 24.5017 457.883 26.2557C457.883 27.4429 458.132 28.5243 458.626 29.4997C459.121 30.4751 459.793 31.2446 460.648 31.8113C461.5 32.3769 462.447 32.6587 463.485 32.6587C465.018 32.6587 466.342 32.0401 467.455 30.7939C468.566 29.5486 469.124 28.0356 469.124 26.2557C469.124 24.5017 468.566 22.9897 467.455 21.7164C466.342 20.4442 465.019 19.8086 463.485 19.8086C461.927 19.8086 460.605 20.4442 459.515 21.7164ZM168.703 22.1082C165.906 23.6373 163.826 25.686 162.467 28.2504C161.106 30.8149 160.425 33.6861 160.425 36.8602C160.425 40.1482 161.098 42.9954 162.445 45.406C163.792 47.8145 165.526 49.8203 167.65 51.4203C169.774 53.0213 172.244 54.5024 175.061 55.8626C177.633 57.0259 179.59 58.1502 180.939 59.2395C182.285 60.3308 182.959 61.669 182.959 63.2551C182.959 64.1345 182.567 65.0779 181.786 66.0823C181.007 67.0887 179.289 67.5904 176.636 67.5904C173.761 67.5904 171.063 66.9818 168.546 65.7605C166.029 64.5413 163.47 63.0082 160.868 61.1643V75.6555C163.639 77.0496 166.305 78.104 168.867 78.8155C171.428 79.5261 173.481 79.9589 175.027 80.1158C176.574 80.2697 177.88 80.3496 178.944 80.3496C182.756 80.3496 186.133 79.631 189.079 78.1989C192.022 76.7628 194.316 74.6961 195.963 71.9967C197.609 69.2984 198.433 66.1013 198.433 62.4056C198.433 59.0916 197.761 56.3253 196.415 54.1026C195.069 51.878 193.209 49.9162 190.838 48.2152C188.465 46.5163 185.302 44.6054 181.349 42.4787C179.104 41.2615 177.544 40.2271 176.669 39.3756C175.797 38.5262 175.359 37.5208 175.359 36.3585C175.359 35.1122 175.791 34.0639 176.659 33.2134C177.526 32.3639 178.925 31.9382 180.86 31.9382C183.809 31.9382 186.578 32.6198 189.169 33.9819C191.757 35.3421 194.106 36.8882 196.212 38.6191V24.7906C195.619 24.3348 194.529 23.7112 192.945 22.9177C191.36 22.1242 189.35 21.4076 186.912 20.769C184.473 20.1314 181.82 19.8116 178.95 19.8116C174.914 19.8116 171.5 20.5791 168.703 22.1082ZM434.97 23.3374L417.04 44.1977V46.8661H423.099V64.1615C423.099 74.9539 427.91 80.3496 437.533 80.3496C439.76 80.3496 442.095 79.9938 444.536 79.2823C446.977 78.5717 448.89 77.8311 450.279 77.0616V65.0699C446.809 67.1127 444.011 68.1341 441.88 68.1341C440.244 68.1341 439.026 67.8023 438.22 67.1357C437.414 66.4691 436.924 65.6406 436.751 64.6472C436.578 63.6558 436.491 62.3516 436.491 60.7336V46.8681H449.276V36.2785H436.491V23.3374H434.97ZM297.99 37.6867C295.676 39.1088 293.445 41.2105 291.292 43.9968C290.748 42.4907 290.015 41.1695 289.098 40.0322C288.178 38.8949 287.154 37.9995 286.025 37.3459C284.897 36.6933 283.75 36.2306 282.583 35.9607C281.415 35.6919 280.189 35.555 278.899 35.555C276.169 35.555 273.762 36.1076 271.677 37.217C269.594 38.3263 267.547 40.1042 265.537 42.5477V36.2785H252.143V79.6281H265.537V54.2106C265.736 53.9268 266.208 53.2342 266.953 52.1278C267.698 51.0235 268.331 50.188 268.853 49.6204C269.373 49.0547 270.05 48.543 270.882 48.0893C271.714 47.6366 272.625 47.4097 273.618 47.4097C275.703 47.4097 277.155 48.2032 277.974 49.7913C278.795 51.3783 279.205 53.6299 279.205 56.5471V79.6281H292.597V54.2106C293.781 52.2568 294.963 50.6348 296.148 49.3456C297.333 48.0553 298.85 47.4107 300.699 47.4107C302.595 47.4107 303.983 48.1683 304.859 49.6843C305.733 51.1994 306.172 53.488 306.172 56.5471V79.6261H319.566H319.563V53.2062C319.563 49.4635 319.074 46.2814 318.096 43.656C317.118 41.0346 315.61 39.0279 313.571 37.6367C311.53 36.2486 309 35.554 305.984 35.554C302.968 35.554 300.302 36.2665 297.99 37.6867ZM488.443 37.9355C485.591 39.5226 483.412 41.4913 481.908 43.8429C480.402 46.1965 479.348 48.633 478.743 51.1534C478.137 53.6759 477.836 55.9005 477.836 57.8264C477.836 59.7532 478.132 61.9768 478.723 64.4983C479.314 67.0208 480.384 69.4922 481.925 71.9138C483.468 74.3383 485.663 76.3491 488.516 77.9491C491.366 79.5501 494.861 80.3496 498.998 80.3496C500.83 80.3496 502.522 80.2157 504.07 79.9449C505.619 79.674 507.013 79.3322 508.252 78.9195C509.49 78.5067 510.666 78.058 511.781 77.5723H511.784V65.4947C509.328 66.3452 507.247 66.9988 505.538 67.4525C503.83 67.9082 502.306 68.1341 500.968 68.1341C499.555 68.1341 498.144 67.7673 496.732 67.0347C495.32 66.3012 494.154 65.1549 493.238 63.5918C492.321 62.0288 491.864 60.108 491.864 57.8264C491.864 54.3915 492.786 51.857 494.632 50.223C496.477 48.59 498.589 47.7725 500.968 47.7725C503.421 47.7725 506.828 48.568 511.188 50.1561V38.0754C509.38 37.3069 507.597 36.6963 505.838 36.2406C504.078 35.7838 501.801 35.555 498.999 35.555C494.811 35.555 491.294 36.3485 488.443 37.9355ZM391.718 37.112C389.597 38.1494 387.48 39.9633 385.374 42.5477V36.2785H371.98V79.6261H385.374V54.2086C385.843 53.446 386.303 52.7235 386.751 52.0429C387.199 51.3623 387.75 50.6538 388.408 49.9172C389.064 49.1807 389.81 48.578 390.643 48.1103C391.473 47.6446 392.435 47.4097 393.528 47.4097C395.836 47.4097 397.331 48.2952 398.016 50.0661C398.697 51.837 399.038 53.9118 399.038 56.2923V57.1848V79.6261H412.432H412.43V54.1866C412.43 41.7662 407.889 35.555 398.81 35.555C396.204 35.555 393.84 36.0737 391.718 37.112ZM214.946 38.4232C211.671 40.3361 209.22 42.9724 207.596 46.3294C205.97 49.6863 205.158 53.49 205.158 57.7404C205.158 62.0468 205.97 65.8994 207.596 69.2994C209.22 72.6993 211.671 75.3926 214.946 77.3744C218.222 79.3582 222.189 80.3496 226.856 80.3496C231.17 80.3496 234.725 79.8729 237.516 78.9205C240.308 77.9681 242.683 76.9097 244.643 75.7414V66.2892C239.183 69.1495 234.196 70.5766 229.681 70.5766C227.099 70.5766 224.792 69.7511 222.757 68.0961C220.723 66.4441 219.445 64.3134 218.924 61.707H245.611H245.61V58.6409C245.61 53.1872 244.687 48.7349 242.838 45.287C240.988 41.8381 238.633 39.3527 235.767 37.8336C232.902 36.3155 229.932 35.555 226.856 35.555C222.189 35.555 218.222 36.5114 214.946 38.4232ZM220.619 47.4947C221.996 45.8097 223.799 44.9652 226.034 44.9652C228.294 44.9652 230.024 45.7947 231.227 47.4527C232.43 49.1117 233.032 51.3293 233.032 54.1046H218.553C218.553 51.3853 219.242 49.1817 220.619 47.4947ZM338.635 36.1996C336.531 36.6273 334.512 37.2729 332.583 38.1404C330.652 39.0089 328.856 40.1252 327.199 41.4903V53.2462C329.275 50.9206 331.561 49.0217 334.058 47.5437C336.554 46.0706 339.26 45.332 342.177 45.332C344.65 45.332 346.258 45.9266 346.998 47.1139C347.74 48.3022 348.111 49.9452 348.111 52.0389C347.592 52.3497 347.099 52.6066 346.628 52.8024C346.159 52.9993 345.447 53.2771 344.497 53.6299C343.545 53.9837 342.141 54.5004 340.288 55.179C337.024 56.3663 334.404 57.5136 332.428 58.6159C330.449 59.7202 328.874 61.1413 327.701 62.8833C326.526 64.6252 325.939 66.8249 325.939 69.4852C325.939 71.2392 326.279 72.9441 326.958 74.5991C327.638 76.2551 328.823 77.6283 330.518 78.7166C332.212 79.8059 334.43 80.3516 337.176 80.3516C340.017 80.3516 342.315 79.9179 344.072 79.0564C345.827 78.1959 347.423 77.0976 348.857 75.7674C349.228 77.0416 349.846 78.125 350.716 79.0154C351.583 79.9039 353.12 80.3516 355.329 80.3516C357.66 80.3516 359.655 80.0798 361.315 79.5451C362.976 79.0084 364.786 78.2989 366.747 77.4224H366.746V69.3963C365.309 70.2208 364.169 70.6315 363.327 70.6315C362.633 70.6315 362.157 70.2418 361.896 69.4613C361.636 68.6827 361.505 67.4995 361.505 65.9124V49.2066C361.505 44.9562 360.126 41.6193 357.366 39.1948C354.606 36.7712 350.491 35.559 345.021 35.559C342.868 35.559 340.739 35.7728 338.635 36.1996ZM340.069 70.9693C339.338 70.2058 338.972 69.0995 338.972 67.6544C338.972 65.6436 339.703 64.0516 341.165 62.8743C342.627 61.701 344.944 60.3778 348.113 58.9037V69.1425C347.171 69.965 346.247 70.6665 345.345 71.2452C344.441 71.8258 343.53 72.1156 342.615 72.1156C341.646 72.1156 340.798 71.7339 340.069 70.9693ZM456.806 79.6261H470.199V36.2785H456.806V79.6261ZM293.843 91.7566V150.761H307.236V146.803C308.102 147.655 308.938 148.386 309.742 148.996C310.547 149.607 311.674 150.175 313.124 150.699C314.571 151.222 316.288 151.486 318.27 151.486C321.019 151.486 323.72 150.707 326.371 149.149C329.02 147.589 331.198 145.155 332.909 141.853C334.617 138.55 335.473 134.39 335.473 129.371C335.473 126.426 335.112 123.614 334.393 120.939C333.673 118.262 332.577 115.85 331.104 113.698C329.632 111.547 327.729 109.841 325.401 108.581C323.074 107.321 320.386 106.69 317.34 106.69C315.062 106.69 313.056 107.022 311.323 107.687C309.589 108.352 308.227 109.123 307.236 109.999V91.7566H293.843ZM307.238 136.935V120.403C309.75 118.563 312.014 117.641 314.026 117.641C316.038 117.641 317.778 118.613 319.246 120.554C320.712 122.493 321.446 125.319 321.446 129.03C321.446 133.252 320.625 136.133 318.985 137.678C317.344 139.222 315.691 139.993 314.026 139.993C311.389 139.993 309.128 138.975 307.238 136.935ZM229.978 91.7596L218.791 124.431L206.753 91.7596H195.641L183.377 124.431L172.673 91.7596H156.583L178.434 151.487H187.504L201.215 116.737L214.594 151.487H223.588L245.883 91.7596H229.978ZM255.659 109.56C252.384 111.472 249.934 114.108 248.309 117.465C246.683 120.822 245.871 124.626 245.871 128.876C245.871 133.183 246.683 137.035 248.309 140.435C249.934 143.835 252.384 146.528 255.659 148.51C258.935 150.494 262.904 151.486 267.569 151.486C271.883 151.486 275.438 151.01 278.229 150.057C281.021 149.105 283.396 148.046 285.357 146.877V137.427C279.896 140.286 274.909 141.714 270.393 141.714C267.814 141.714 265.506 140.889 263.471 139.234C261.436 137.582 260.158 135.451 259.639 132.846H286.325L286.324 129.777C286.324 124.325 285.4 119.872 283.551 116.423C281.702 112.974 279.347 110.489 276.48 108.97C273.615 107.451 270.644 106.691 267.569 106.691C262.904 106.691 258.935 107.649 255.659 109.56ZM261.332 118.632C262.709 116.947 264.514 116.103 266.747 116.103C269.006 116.103 270.737 116.932 271.94 118.59C273.143 120.249 273.745 122.465 273.745 125.242H259.266C259.266 122.523 259.955 120.319 261.332 118.632Z" fill="#015A9C"/>
<path d="M75.2145 17.402C70.2015 15.142 69.0005 14.495 68.7935 14.324L3.17346 41.235L68.8865 73.266C68.8865 73.266 73.9625 71.138 82.1345 67.165C122.248 47.684 130.943 0 130.943 0C130.943 0 120.967 38.017 75.2145 17.402ZM68.7935 14.324L68.8865 14.286C68.8865 14.286 68.8225 14.268 68.7845 14.268C68.7535 14.268 68.7395 14.28 68.7935 14.324Z" fill="#86BA0C"/>
<path d="M0 123.894L61.229 157.046V86.6494L0 55.5234V123.894Z" fill="#EF7C00"/>
<path d="M75.0042 86.6494V157.045L136.234 123.894V55.5234L75.0042 86.6494Z" fill="#BD1789"/>
</g>
<defs>
<clipPath id="clip0_1_10229">
<rect width="512" height="157" fill="white"/>
</clipPath>
</defs>
</svg>
