<svg width="256" height="388" viewBox="0 0 256 388" fill="none" xmlns="http://www.w3.org/2000/svg">
<g clip-path="url(#clip0_1_10239)">
<path d="M252.876 231.535L252.875 231.537C245.692 195.631 223.781 165.044 193.687 146.37C193.684 146.369 193.677 146.364 193.675 146.363C193.665 146.356 193.652 146.349 193.641 146.343C193.633 146.337 193.623 146.33 193.612 146.324C193.604 146.319 193.6 146.317 193.593 146.312C190.809 144.589 187.954 142.965 185.036 141.451L104.405 101.035L104.407 101.033L100.072 98.8599C99.8187 98.7378 99.5674 98.6133 99.3161 98.4865H99.315C99.2972 98.477 99.2806 98.4687 99.2628 98.4604L99.2616 98.4593C99.245 98.451 99.2284 98.4427 99.2119 98.4344C99.2107 98.4332 99.2083 98.432 99.2071 98.432C99.1905 98.4237 99.1751 98.4154 99.1597 98.4083C99.1562 98.4059 99.1562 98.4059 99.1526 98.4036C99.1372 98.3964 99.123 98.3893 99.1087 98.3822C99.1052 98.3799 99.1016 98.3775 99.0981 98.3763C99.085 98.3692 99.072 98.3633 99.059 98.3561C99.0542 98.3538 99.0495 98.3514 99.0436 98.349C99.0329 98.3431 99.0222 98.3372 99.0116 98.3324C99.0044 98.3289 98.9961 98.3242 98.9902 98.3206C98.9831 98.317 98.9748 98.3135 98.9677 98.3099C98.9559 98.304 98.9464 98.2993 98.9357 98.2933C98.9345 98.2922 98.9321 98.291 98.931 98.291C90.5458 93.9876 83.4015 87.6053 78.176 79.8281C72.2513 71.008 68.7953 60.3923 68.7953 48.9671C68.7953 27.7404 80.7372 9.3037 98.2684 0L72.243 13.2966C29.4104 34.6726 0 78.9191 0 130.036L1.93185 152.465H1.93304C1.93304 152.463 1.93185 152.461 1.93185 152.46C1.96504 152.469 1.99941 152.482 2.03259 152.493C1.99941 152.482 1.96622 152.474 1.93304 152.465C8.95052 192.958 34.637 227.047 69.8193 245.532L69.8228 245.535C69.8382 245.542 69.8524 245.55 69.8679 245.559C69.8726 245.561 69.8738 245.561 69.8785 245.563C69.8916 245.57 69.9081 245.581 69.9212 245.587C69.9259 245.591 69.9283 245.592 69.9342 245.594C69.9484 245.602 69.9603 245.608 69.9757 245.615C69.9781 245.618 69.9828 245.62 69.9852 245.621C70.0314 245.646 70.0741 245.668 70.1191 245.692C70.1274 245.696 70.1286 245.697 70.1357 245.701C70.1464 245.707 70.1594 245.713 70.1701 245.719C70.1784 245.723 70.1855 245.727 70.1938 245.733C70.2044 245.737 70.2151 245.743 70.2258 245.749C70.2364 245.754 70.2412 245.756 70.2507 245.762C70.2613 245.768 70.2696 245.772 70.2803 245.778C70.2933 245.785 70.3016 245.79 70.3135 245.796C70.3206 245.799 70.3289 245.804 70.336 245.807C70.3538 245.816 70.3739 245.826 70.3929 245.837L78.4782 249.89C78.4687 249.868 78.4604 249.844 78.451 249.82C78.4616 249.845 78.4711 249.868 78.4806 249.892L78.4782 249.89C78.4794 249.892 78.4794 249.892 78.4794 249.893L88.0996 254.713L155.356 288.425C173.863 297.398 186.633 316.361 186.633 338.312V338.439C186.633 338.457 186.632 338.476 186.632 338.494V338.693C186.631 338.709 186.631 338.726 186.631 338.743V338.821C186.631 338.831 186.631 338.843 186.63 338.852V338.948C186.63 338.956 186.629 338.965 186.629 338.974V339.044C186.629 339.054 186.628 339.066 186.628 339.074V339.095C186.628 339.132 186.626 339.169 186.626 339.207V339.217C186.399 353.513 180.753 366.495 171.654 376.197C167.486 380.645 162.591 384.403 157.159 387.284L173.871 378.748L183.186 373.995C226.015 352.613 255.429 308.364 255.429 257.243L252.876 231.535Z" fill="#7CBA3D"/>
<path d="M0 130.036C0 78.9191 29.4104 34.6726 72.243 13.2966L98.2684 0C80.7372 9.3037 68.7953 27.7404 68.7953 48.9671C68.7953 60.3923 72.2513 71.008 78.176 79.8281C69.3582 101.897 64.2264 124.543 62.4984 147.078C51.3481 152.713 38.7674 155.876 25.517 155.877C24.2441 155.877 22.9677 155.847 21.683 155.788C14.835 155.476 8.22044 154.331 1.93185 152.465L0 130.036ZM186.633 338.494C186.633 338.476 186.635 338.457 186.635 338.439C186.635 338.458 186.633 338.475 186.633 338.494ZM186.632 338.743C186.632 338.726 186.632 338.709 186.633 338.693C186.632 338.708 186.632 338.726 186.632 338.743ZM186.631 338.853C186.632 338.843 186.632 338.831 186.632 338.822C186.632 338.831 186.632 338.842 186.631 338.853ZM186.63 338.975C186.63 338.965 186.631 338.956 186.631 338.949C186.631 338.957 186.63 338.965 186.63 338.975Z" fill="#C5D83E"/>
<path d="M78.4806 249.893L70.3929 245.838C70.374 245.827 70.3538 245.817 70.336 245.808C70.3289 245.805 70.3206 245.8 70.3135 245.797C70.3017 245.791 70.2934 245.786 70.2803 245.779C70.2697 245.773 70.2614 245.769 70.2507 245.763C70.2412 245.757 70.2365 245.755 70.2258 245.75C70.2151 245.744 70.2045 245.739 70.1938 245.734C70.1855 245.728 70.1784 245.724 70.1701 245.72C70.1594 245.714 70.1464 245.708 70.1357 245.702C70.1286 245.698 70.1274 245.697 70.1191 245.693C70.0741 245.669 70.0314 245.647 69.9852 245.622C69.9828 245.621 69.9781 245.619 69.9757 245.616C69.9603 245.609 69.9485 245.603 69.9342 245.595C69.9283 245.593 69.926 245.592 69.9212 245.588C69.9082 245.582 69.8916 245.571 69.8785 245.564C69.8738 245.562 69.8726 245.562 69.8679 245.56C69.8525 245.551 69.8382 245.543 69.8228 245.536L69.8193 245.533C34.6359 227.047 8.94818 192.956 1.93188 152.461C8.22048 154.328 14.835 155.472 21.683 155.784C22.9677 155.843 24.2442 155.873 25.5171 155.873C38.7674 155.872 51.3482 152.71 62.4984 147.074C59.7808 182.522 65.4791 217.691 78.4806 249.893Z" fill="url(#paint0_linear_1_10239)"/>
<path d="M104.406 101.033L100.072 98.8598C99.8186 98.7378 99.5673 98.6133 99.3161 98.4865H99.3149C99.2971 98.477 99.2805 98.4687 99.2627 98.4604L99.2615 98.4592C99.245 98.4509 99.2284 98.4426 99.2118 98.4343L99.207 98.432C99.1904 98.4237 99.175 98.4154 99.1596 98.4083C99.1561 98.4059 99.1561 98.4059 99.1525 98.4035C99.1371 98.3964 99.1229 98.3893 99.1087 98.3822C99.1051 98.3798 99.1016 98.3775 99.098 98.3763C99.085 98.3692 99.0719 98.3632 99.0589 98.3561C99.0541 98.3538 99.0494 98.3514 99.0435 98.349C99.0328 98.3431 99.0221 98.3372 99.0115 98.3324C99.0044 98.3289 98.9961 98.3241 98.9901 98.3206C98.983 98.317 98.9747 98.3135 98.9676 98.3099C98.9558 98.304 98.9463 98.2992 98.9356 98.2933L98.9309 98.2909C90.5457 93.9875 83.4014 87.6053 78.1759 79.8281C69.3581 101.897 64.2263 124.543 62.4983 147.078C77.4399 139.528 89.8204 127.54 97.8346 112.768L104.406 101.033ZM252.876 231.535C222.193 251.83 185.499 263.595 146.299 263.595C143.314 263.595 140.314 263.527 137.302 263.388C120.193 262.604 103.711 259.605 88.0995 254.713L155.356 288.425C173.863 297.398 186.633 316.361 186.633 338.312V338.439C186.633 338.457 186.632 338.476 186.632 338.494V338.693C186.631 338.709 186.631 338.726 186.631 338.742V338.821C186.631 338.831 186.631 338.843 186.63 338.852V338.948C186.63 338.956 186.629 338.965 186.629 338.974V339.044C186.629 339.054 186.627 339.066 186.627 339.074V339.094C186.627 339.132 186.626 339.169 186.626 339.207V339.217C186.399 353.513 180.753 366.495 171.654 376.197C167.486 380.645 162.591 384.403 157.159 387.284L173.871 378.748L183.186 373.995C226.015 352.613 255.429 308.364 255.429 257.243L252.876 231.535Z" fill="url(#paint1_linear_1_10239)"/>
<path d="M146.299 263.595C143.314 263.595 140.314 263.528 137.302 263.389C120.193 262.604 103.711 259.606 88.0995 254.713L78.4794 249.893C65.4779 217.692 59.7795 182.523 62.4972 147.08C77.4388 139.53 89.8192 127.542 97.8335 112.77L104.405 101.035L185.036 141.451C187.954 142.966 190.809 144.59 193.593 146.313C193.6 146.318 193.604 146.32 193.612 146.325C193.622 146.331 193.633 146.338 193.641 146.344C193.652 146.35 193.665 146.357 193.675 146.364C193.677 146.365 193.684 146.37 193.686 146.371C223.781 165.045 245.692 195.632 252.875 231.537C222.194 251.831 185.5 263.595 146.299 263.595Z" fill="url(#paint2_linear_1_10239)"/>
</g>
<defs>
<linearGradient id="paint0_linear_1_10239" x1="1351.69" y1="2438.45" x2="-915.873" y2="7745.37" gradientUnits="userSpaceOnUse">
<stop stop-color="#AACE36"/>
<stop offset="1" stop-color="#2FA042"/>
</linearGradient>
<linearGradient id="paint1_linear_1_10239" x1="62.4982" y1="9399.38" x2="19620.4" y2="11254.4" gradientUnits="userSpaceOnUse">
<stop stop-color="#79A933"/>
<stop offset="0.13" stop-color="#70A333"/>
<stop offset="0.34" stop-color="#559332"/>
<stop offset="0.58" stop-color="#277B2F"/>
<stop offset="0.86" stop-color="#005F27"/>
<stop offset="1" stop-color="#005020"/>
</linearGradient>
<linearGradient id="paint2_linear_1_10239" x1="2697.58" y1="101.035" x2="10130" y2="17329.1" gradientUnits="userSpaceOnUse">
<stop stop-color="#79AB35"/>
<stop offset="0.53" stop-color="#7CBA3D"/>
<stop offset="1" stop-color="#00AA4B"/>
</linearGradient>
<clipPath id="clip0_1_10239">
<rect width="256" height="388" fill="white"/>
</clipPath>
</defs>
</svg>
