<svg width="512" height="90" viewBox="0 0 512 90" fill="none" xmlns="http://www.w3.org/2000/svg">
<g clip-path="url(#clip0_1_10254)">
<path d="M177.114 57.2964C179.243 52.5302 183.705 49.2852 189.588 49.2852C195.47 49.2852 199.831 52.0228 201.657 57.2964H177.114ZM215.652 63.3815C215.652 48.7772 205.002 37.115 189.486 37.115C174.882 37.115 163.118 48.8784 163.118 63.4834C163.118 78.087 174.072 89.8512 189.892 89.8512C200.849 89.8512 208.73 84.5658 213.164 76.9893L202.144 70.4178C199.806 74.9035 195.318 77.6816 189.994 77.6816C182.692 77.6816 178.128 74.0298 176.505 68.452H215.652V63.3815ZM498.512 63.3815C498.512 55.877 493.035 49.7919 485.531 49.7919C477.823 49.7919 471.941 55.5727 471.941 63.3815C471.941 71.1903 477.823 77.0731 485.531 77.0731C493.035 77.0731 498.512 70.8868 498.512 63.3815ZM458.351 63.4834C458.351 45.5337 471.535 37.115 482.995 37.115C489.587 37.115 494.759 39.549 498.106 43.0982V14.8037H512V88.8365H498.106V83.1582C494.759 87.1136 489.385 89.8512 482.793 89.8512C472.042 89.8512 458.351 81.332 458.351 63.4834ZM448.144 30.4115C452.735 30.4115 456.456 26.6907 456.456 22.1003C456.456 17.5099 452.735 13.7891 448.144 13.7891C443.555 13.7891 439.835 17.5099 439.835 22.1003C439.835 26.6907 443.555 30.4115 448.144 30.4115ZM441.198 38.1296H455.091V88.8365H441.198V51.6181L436.156 51.6174L441.198 38.1296ZM404.186 38.1296H417.978V46.4457C420.514 41.1722 425.077 38.1296 431.973 38.1296H437.552L432.514 51.6174H428.728C421.325 51.6174 418.08 55.4716 418.08 64.9028V88.8365H404.186V38.1296ZM326.023 51.8205C326.023 30.7256 341.946 13.7891 363.851 13.7891C374.808 13.7891 384.022 17.7346 390.694 24.0221C393.409 26.5804 395.702 29.5274 397.521 32.7542L385.149 40.2587C380.585 31.8407 373.587 27.4799 363.953 27.4799C350.464 27.4799 340.018 38.5351 340.018 51.8205C340.018 65.4101 350.262 76.1596 364.459 76.1596C375.21 76.1596 382.815 70.0752 385.452 60.6432H362.228V47.1554H400.664V52.8344C400.664 72.7123 386.467 89.8512 364.459 89.8512C341.337 89.8512 326.023 72.3069 326.023 51.8205ZM309.275 63.3815C309.275 55.877 303.799 49.7919 296.294 49.7919C288.587 49.7919 282.704 55.5727 282.704 63.3815C282.704 71.1903 288.587 77.0731 296.294 77.0731C303.799 77.0731 309.275 70.8868 309.275 63.3815ZM269.114 63.4834C269.114 45.5337 282.298 37.115 293.759 37.115C300.35 37.115 305.523 39.549 308.869 43.0982V14.8037H322.763V88.8365H308.869V83.1582C305.523 87.1136 300.148 89.8512 293.556 89.8512C282.806 89.8512 269.114 81.332 269.114 63.4834ZM218.899 38.1296H232.693V43.8086C235.938 39.6502 240.908 37.115 246.688 37.115C258.655 37.115 265.856 44.8226 265.856 57.9049V88.8365H251.759V59.7304C251.759 52.9356 248.615 48.9803 242.429 48.9803C237.155 48.9803 232.794 52.6314 232.794 61.1498V88.8365H218.899V38.1296ZM105.457 76.5658L118.338 66.4234C121.988 72.7123 127.769 76.3627 134.36 76.3627C141.562 76.3627 145.416 71.6983 145.416 66.6265C145.416 60.542 138.011 58.616 130.101 56.1806C120.163 53.1387 109.108 49.2852 109.108 35.0863C109.108 23.221 119.454 13.7891 133.752 13.7891C145.821 13.7891 152.717 18.3529 158.701 24.5399L147.038 33.3627C143.996 28.7995 139.635 26.3648 133.853 26.3648C127.262 26.3648 123.713 29.9147 123.713 34.5797C123.713 40.2587 130.812 42.1868 138.722 44.8226C148.763 48.0675 160.121 52.5302 160.121 66.7291C160.121 78.4925 150.79 89.8512 134.462 89.8512C121.076 89.8512 112.151 84.1729 105.457 76.5658Z" fill="#212F38"/>
<path d="M88.836 0V59.224H59.224V88.8346H0.000697837L0 29.6113H29.612V0H88.836Z" fill="#9DD6E3"/>
<path d="M0.000732422 88.8347H29.6127V59.2227H0.000732422V88.8347Z" fill="#3F72AB"/>
<path d="M59.2241 59.2221H88.8361V29.6094H59.2241V59.2221Z" fill="#00A9D1"/>
<path d="M29.6121 29.612H59.2241V0H29.6121V29.612Z" fill="#00A9D1"/>
<path d="M29.6121 59.2214H59.2241V29.6094H29.6121V59.2214Z" fill="#2191C4"/>
<path d="M59.2241 29.612H88.8361V0H59.2241V29.612Z" fill="#3F72AB"/>
</g>
<defs>
<clipPath id="clip0_1_10254">
<rect width="512" height="90" fill="white"/>
</clipPath>
</defs>
</svg>
