<svg width="256" height="227" viewBox="0 0 256 227" fill="none" xmlns="http://www.w3.org/2000/svg">
<g clip-path="url(#clip0_1_10274)">
<path d="M148.368 12.4027C144.037 5.215 136.258 0.820312 127.866 0.820312C119.475 0.820312 111.696 5.215 107.365 12.4027L73.6403 70.1653C126.066 96.3392 160.689 148.342 164.615 206.807H140.936C137.018 156.695 106.875 112.397 61.6983 90.3591L30.485 144.329C55.8498 155.705 73.6778 179.211 77.7918 206.704H23.412C22.1018 206.612 20.9266 205.865 20.2861 204.718C19.6456 203.572 19.6262 202.179 20.2343 201.015L35.3028 175.388C30.1976 171.129 24.363 167.83 18.0817 165.65L3.16692 191.277C0.0305636 196.657 -0.818662 203.069 0.80921 209.08C2.43708 215.09 6.40621 220.197 11.8287 223.259C15.3657 225.252 19.3523 226.31 23.412 226.334H97.8831C100.696 191.621 85.1423 157.966 56.8805 137.615L68.72 117.113C104.399 141.618 124.474 183.152 121.511 226.334H184.604C187.594 160.904 155.557 98.8224 100.497 63.3486L124.432 22.3459C125.543 20.4859 127.944 19.8683 129.814 20.962C132.53 22.4484 233.807 199.17 235.703 201.22C236.383 202.439 236.359 203.93 235.639 205.126C234.919 206.322 233.614 207.042 232.218 207.012H207.822C208.129 213.538 208.129 220.047 207.822 226.54H232.321C238.604 226.58 244.643 224.106 249.092 219.667C253.54 215.229 256.027 209.195 256 202.911C256.003 198.802 254.906 194.767 252.822 191.226L148.368 12.4027Z" fill="#362D59"/>
</g>
<defs>
<clipPath id="clip0_1_10274">
<rect width="256" height="227" fill="white"/>
</clipPath>
</defs>
</svg>
