<svg width="256" height="296" viewBox="0 0 256 296" fill="none" xmlns="http://www.w3.org/2000/svg">
<g clip-path="url(#clip0_1_10280)">
<path d="M219.013 94.3636V200.958L128.437 254.546L127.618 255.291V295.13L128.437 295.902L256 222.218V73.6856L254.795 73.3906L218.832 93.4966L219.013 94.3636Z" fill="#2F406A"/>
<path d="M37.57 201.83L128.437 254.545V295.901L0 221.926V73.9763L1.318 73.7773L37.177 94.6253L37.57 95.8193V201.83Z" fill="#2379BD"/>
<path d="M37.57 95.818L0 73.975L128.146 0L256 73.684L219.013 94.362L128.146 42.521L37.57 95.818Z" fill="#03AFEF"/>
<path d="M126.878 189.64L125.894 188.636V148.61L126.878 148.102L127.117 147.115L161.432 127.098L162.482 127.333V168.575L126.878 189.64Z" fill="#2F406A"/>
<path d="M90.6801 169.856V127.033L91.6751 126.984L126.581 147.298L126.878 148.098V189.636L90.6801 169.856Z" fill="#2379BD"/>
<path d="M126.284 105.969L90.6801 127.035L126.878 148.1L162.482 127.331L126.284 105.969Z" fill="#03AFEF"/>
<path d="M82.57 215.749L81.587 214.745V174.718L82.57 174.211L82.81 173.224L117.124 153.207L118.174 153.442V194.683L82.57 215.749Z" fill="#2F406A"/>
<path d="M46.373 195.967V153.143L47.367 153.094L82.273 173.409L82.57 174.209V215.747L46.373 195.967Z" fill="#2379BD"/>
<path d="M81.977 132.078L46.373 153.143L82.57 174.209L118.174 153.44L81.977 132.078Z" fill="#03AFEF"/>
<path d="M174.35 216.737L173.366 215.733V175.706L174.35 175.199L174.589 174.212L208.904 154.195L209.954 154.43V195.671L174.35 216.737Z" fill="#2F406A"/>
<path d="M138.152 196.959V154.135L139.147 154.086L174.053 174.401L174.35 175.201V216.739L138.152 196.959Z" fill="#2379BD"/>
<path d="M173.756 133.066L138.152 154.131L174.35 175.197L209.954 154.428L173.756 133.066Z" fill="#03AFEF"/>
<path d="M130.042 242.847L129.059 241.843V201.816L130.042 201.309L130.282 200.321L164.597 180.305L165.646 180.54V221.781L130.042 242.847Z" fill="#2F406A"/>
<path d="M93.845 223.068V180.244L94.839 180.195L129.746 200.509L130.042 201.31V242.848L93.845 223.068Z" fill="#2379BD"/>
<path d="M129.449 159.176L93.845 180.242L130.042 201.308L165.646 180.539L129.449 159.176Z" fill="#03AFEF"/>
<path d="M126.878 132.87L125.894 131.865V91.8391L126.878 91.3321L127.117 90.3441L161.432 70.3281L162.482 70.5631V111.804L126.878 132.87Z" fill="#2F406A"/>
<path d="M90.6801 113.092V70.2677L91.6751 70.2188L126.581 90.5327L126.878 91.3337V132.872L90.6801 113.092Z" fill="#2379BD"/>
<path d="M126.284 49.1992L90.6801 70.2652L126.878 91.3312L162.482 70.5622L126.284 49.1992Z" fill="#03AFEF"/>
<path d="M82.57 158.98L81.587 157.976V117.95L82.57 117.442L82.81 116.455L117.124 96.4375L118.174 96.6725V137.915L82.57 158.98Z" fill="#2F406A"/>
<path d="M46.373 139.2V96.3771L47.367 96.3281L82.273 116.642L82.57 117.442V158.98L46.373 139.2Z" fill="#2379BD"/>
<path d="M81.977 75.3086L46.373 96.3746L82.57 117.44L118.174 96.6706L81.977 75.3086Z" fill="#03AFEF"/>
<path d="M174.35 159.968L173.366 158.964V118.938L174.35 118.43L174.589 117.443L208.904 97.4258L209.954 97.6608V138.903L174.35 159.968Z" fill="#2F406A"/>
<path d="M138.152 140.188V97.3654L139.147 97.3164L174.053 117.63L174.35 118.43V159.968L138.152 140.188Z" fill="#2379BD"/>
<path d="M173.756 76.3008L138.152 97.3668L174.35 118.432L209.954 97.6628L173.756 76.3008Z" fill="#03AFEF"/>
<path d="M130.042 186.077L129.059 185.073V145.046L130.042 144.539L130.282 143.552L164.597 123.535L165.646 123.77V165.011L130.042 186.077Z" fill="#2F406A"/>
<path d="M93.845 166.299V123.475L94.839 123.426L129.746 143.741L130.042 144.541V186.079L93.845 166.299Z" fill="#2379BD"/>
<path d="M129.449 102.406L93.845 123.472L130.042 144.538L165.646 123.769L129.449 102.406Z" fill="#03AFEF"/>
</g>
<defs>
<clipPath id="clip0_1_10280">
<rect width="256" height="296" fill="white"/>
</clipPath>
</defs>
</svg>
