<svg width="256" height="299" viewBox="0 0 256 299" fill="none" xmlns="http://www.w3.org/2000/svg">
<g clip-path="url(#clip0_1_10312)">
<path d="M185.191 245.967C183.917 245.967 182.722 245.25 182.164 244.056C181.368 242.383 182.005 240.312 183.678 239.515C203.432 229.639 219.92 214.584 231.389 196.025C243.098 177.068 249.232 154.845 249.232 131.746C249.232 89.5304 227.805 50.9787 191.882 28.6761C190.289 27.7203 189.811 25.5697 190.767 23.9766C191.723 22.3836 193.873 21.9057 195.466 22.8615C213.627 34.1721 228.761 49.9433 239.355 68.5022C250.267 87.6984 256.002 109.523 256.002 131.666C256.002 156.04 249.471 179.458 237.124 199.53C225.017 219.204 207.573 235.135 186.705 245.489C186.227 245.888 185.749 245.967 185.191 245.967Z" fill="#FFC700"/>
<path d="M71.8463 244.692C71.3683 244.692 70.8108 244.612 70.3329 244.294C25.648 221.752 0 180.731 0 131.745C0 79.8121 30.9847 33.3749 78.9353 13.4618C80.6877 12.745 82.679 13.5415 83.3958 15.2938C84.1127 17.0462 83.3162 19.0375 81.5638 19.7544C36.1621 38.6319 6.85009 82.5999 6.85009 131.745C6.85009 178.023 31.144 216.893 73.4393 238.32C75.112 239.196 75.7492 241.187 74.9527 242.86C74.2358 244.055 73.041 244.692 71.8463 244.692Z" fill="#FFC700"/>
<path d="M128.399 213.388C130.626 216.025 131.689 219.825 132.032 223.172C136.911 222.406 142.266 220.686 147.197 217.211C148.631 216.176 150.622 216.574 151.658 218.008C152.693 219.442 152.295 221.433 150.861 222.469C142.02 228.602 132.382 230.115 125.054 230.115C118.682 230.115 114.221 229 113.823 228.841C112.15 228.363 111.115 226.69 111.593 224.938C112.071 223.265 113.743 222.23 115.496 222.707C115.612 222.746 119.809 223.786 125.703 223.702C125.47 221.363 124.758 218.9 123.541 217.45C121.868 215.459 118.602 214.344 115.336 214.663C113.504 214.822 110.159 215.618 108.327 218.884C107.292 220.796 107.371 225.575 107.371 227.885L107.371 233.258C107.371 233.444 107.371 233.629 107.371 233.812L107.37 237.96C107.37 238.122 107.37 238.283 107.37 238.443L107.369 239.846C107.364 246.99 107.347 251.275 107.292 252.896C107.212 255.285 107.212 257.834 107.292 260.542C107.371 272.012 107.531 284.995 100.043 292.483C96.3792 296.147 91.2018 298.058 84.6704 298.058C75.4307 298.058 68.8992 295.111 65.3149 289.376C62.5271 284.916 62.1288 279.977 62.1288 275.676V254.807C62.1288 253.055 63.5625 251.621 65.3149 251.621H91.3612C93.1135 251.621 94.5472 253.055 94.5472 254.807V271.694C94.5472 273.446 93.1135 274.88 91.3612 274.88C89.6088 274.88 88.1751 273.446 88.1751 271.694V257.993H68.501V275.676C68.501 284.04 70.4923 291.766 84.6704 291.766C89.5291 291.766 93.0338 290.571 95.5827 288.022C101.158 282.447 101.079 270.817 100.919 260.622C100.919 257.834 100.84 255.206 100.919 252.657C100.973 251.223 100.99 247.24 100.996 240.756L100.997 239.856C100.997 239.704 100.997 239.55 100.997 239.395L100.998 237.964C100.998 237.801 100.998 237.637 100.998 237.472L100.999 227.965C100.919 223.504 100.999 218.884 102.751 215.778C105.141 211.556 109.442 208.848 114.699 208.37C120.116 207.892 125.373 209.804 128.399 213.388ZM206.22 157.871C206.698 158.587 217.451 175.872 221.035 200.723C221.274 202.157 220.477 203.511 219.203 204.069C206.618 209.565 192.121 235.133 187.661 244.453C187.183 245.647 186.068 246.285 184.873 246.285C184.395 246.285 183.917 246.205 183.519 245.966C181.926 245.169 181.288 243.337 182.005 241.744C182.643 240.311 198.095 208.768 214.503 199.449C212.114 184.793 207.096 173.084 203.83 166.632L167.588 244.214C167.031 245.329 165.916 246.046 164.721 246.046H115.018C113.265 246.046 111.832 244.612 111.832 242.859C111.832 241.107 113.265 239.673 115.018 239.673H162.65L200.644 158.189C201.122 157.154 202.157 156.437 203.352 156.357C204.547 156.278 205.582 156.835 206.22 157.871ZM56.7125 157.393C57.7479 157.552 58.6241 158.269 59.0224 159.225L96.6182 241.505C97.3351 243.098 96.6182 245.01 95.0252 245.727C94.6269 245.966 94.149 246.046 93.7507 246.046C92.5559 246.046 91.3612 245.329 90.8832 244.214L55.3584 166.314C50.5792 172.367 41.8175 185.271 41.1803 199.927C57.5886 210.68 74.8731 239.992 75.59 241.266C76.4662 242.78 75.9883 244.691 74.4749 245.647C72.9615 246.523 71.0498 246.046 70.094 244.532C69.9347 244.214 51.774 213.388 36.4011 204.467C35.4453 203.91 34.8081 202.874 34.8081 201.679C34.8081 178.023 53.2078 159.065 53.9246 158.269C54.6415 157.552 55.677 157.154 56.7125 157.393ZM141.781 0C143.584 0 145.096 1.1164 145.673 2.70504C150.024 3.22745 157.565 4.53992 163.964 7.64364C165.028 5.58789 167.435 4.22912 170.137 5.41635C184.156 11.6292 199.369 23.816 209.645 41.9767L209.664 42.0087C209.723 42.1044 209.911 42.4132 210.201 42.9158L210.525 43.4823C213.931 49.4989 225.946 72.6221 223.823 95.9809C223.558 99.1548 221.001 100.621 218.593 100.339C219.591 101.977 220.208 103.615 220.477 105.221C220.716 106.336 221.911 112.389 217.849 117.646C214.407 122.186 208.273 124.639 199.694 125.006C203.514 135.094 202.874 144.994 202.874 145.445C202.795 147.038 201.44 148.312 199.768 148.312H199.529C197.776 148.153 196.422 146.64 196.582 144.887C196.582 144.852 196.613 144.343 196.617 143.473L196.617 142.979C196.596 139.646 196.164 132.472 193.157 125.691C193.063 125.483 192.994 125.269 192.948 125.054L186.784 125.054C181.368 125.054 174.837 125.134 167.827 125.134C161.278 125.134 154.301 125.107 147.33 125.038C145.861 129.672 145.126 135.338 145.126 142.338V179.536C145.206 185.59 145.126 192.28 143.374 195.944C140.905 201.042 135.568 204.149 129.116 204.228C129.037 204.387 128.957 204.387 128.798 204.387C122.266 204.387 116.133 201.201 113.584 196.422C111.433 192.44 111.513 187.899 111.593 182.165C111.593 180.412 111.672 178.66 111.593 176.669C111.593 174.916 112.947 173.482 114.699 173.403C116.452 173.323 117.885 174.757 117.965 176.509V182.165C117.885 187.023 117.806 190.847 119.16 193.395C120.673 196.183 124.656 198.095 128.957 198.015C130.869 198.015 135.568 197.458 137.639 193.236C138.914 190.608 138.834 182.722 138.754 179.695V142.418C138.754 135.588 139.432 129.852 140.745 124.958C137.896 124.92 135.072 124.872 132.302 124.815C126.733 124.933 120.925 125.009 115.139 125.056L112.97 125.072C108.638 125.101 104.335 125.115 100.172 125.118L96.0596 125.118C89.2962 125.113 83.0213 125.083 77.7406 125.054H67.1469C58.7834 125.054 52.4112 122.824 48.4286 118.363C43.7291 113.186 43.8885 106.814 43.9681 105.698C43.9681 103.521 44.5868 101.4 45.8076 99.3524C43.113 101.455 38.5131 100.297 38.1535 95.9809C36.03 72.6221 48.045 49.4989 51.4509 43.4823L51.7749 42.9158C52.0656 42.4132 52.2533 42.1044 52.3119 42.0087L52.3316 41.9767C62.6067 23.816 77.8203 11.6292 91.8391 5.41635C94.3691 4.30466 96.6409 5.42529 97.7931 7.25995C105.963 3.51107 115.718 2.577 118.344 2.36285C118.994 0.972687 120.424 0 122.107 0H141.781ZM172.527 139.073C176.002 139.073 178.819 141.854 178.819 145.286C178.819 148.717 176.002 151.498 172.527 151.498C169.051 151.498 166.234 148.717 166.234 145.286C166.234 141.854 169.051 139.073 172.527 139.073ZM107.371 141.144C109.124 141.144 110.557 142.577 110.557 144.33C110.557 146.082 109.124 147.516 107.371 147.516H78.0592C76.3069 147.516 74.8732 146.082 74.8732 144.33C74.8732 142.577 76.3069 141.144 78.0592 141.144H107.371ZM53.0485 99.3263C50.7385 101.557 49.6234 103.707 49.6234 105.778V106.017C49.6234 106.017 49.6119 106.157 49.6096 106.408L49.6097 106.591C49.6228 107.982 49.936 111.636 52.6502 114.54C55.5973 117.726 60.4561 119.319 67.1469 119.319H77.7406C84.0774 119.39 91.8459 119.445 100.172 119.449L102.265 119.449C111.73 119.444 121.808 119.372 131.255 119.181L132.302 119.16C142.898 119.384 154.353 119.457 164.872 119.463L167.898 119.463C174.889 119.459 181.371 119.429 186.784 119.399H197.378C205.264 119.399 210.76 117.646 213.388 114.221C216.017 110.796 214.981 106.575 214.981 106.575L214.902 106.256C214.025 100.919 206.538 95.264 194.829 91.1221C179.695 85.865 158.11 83.0772 132.223 83.0772H132.143C102.194 82.0417 66.1911 86.6616 53.0485 99.3263ZM146.585 15.1749L146.791 15.3584C149.023 17.3711 151.59 20.1406 154.207 23.8957C165.459 39.9592 169.349 62.4895 170.546 79.7863C189.047 82.3646 201.751 86.8133 209.736 91.9072C206.615 77.0506 201.659 59.5887 191.882 44.9238C180.907 28.4608 165.74 18.4898 146.585 15.1749ZM113.022 15.499L112.93 15.5152C99.4525 17.9478 88.2077 23.1845 79.4133 31.144C72.4039 37.5162 66.669 45.8797 62.4474 55.9158C58.2975 65.8901 55.5451 77.7943 54.1902 91.3242C62.3603 86.0565 74.8415 82.0635 89.9618 79.7049C91.2094 62.4921 95.1355 40.2678 106.176 23.816C108.574 20.2713 110.93 17.5538 113.022 15.499ZM131.585 13.9391C126.42 13.9391 121.496 14.2601 116.823 14.8991C109.299 21.2414 94.9838 38.5144 91.9778 79.3997C104.095 77.6549 117.811 76.9358 132.302 77.4219C146.152 77.4219 158.121 78.1777 168.379 79.495C165.347 36.0554 149.62 19.7806 142.428 14.5665C138.939 14.1489 135.324 13.9391 131.585 13.9391ZM145.858 4.85385L145.845 4.93281C145.635 5.97565 145.019 6.8791 144.16 7.47073C151.359 8.39393 158.081 10.1402 164.312 12.7039C163.614 11.7934 163.338 10.743 163.392 9.71627C157.435 6.76113 150.219 5.42573 145.858 4.85385ZM117.978 4.47194L117.837 4.48454C114.554 4.79157 105.776 5.89467 98.5342 9.24344C98.6671 10.1123 98.5678 11.0163 98.1799 11.8543C104.673 9.56959 111.77 8.04153 119.466 7.27315C118.627 6.59329 118.07 5.59448 117.978 4.47194Z" fill="#150007"/>
</g>
<defs>
<clipPath id="clip0_1_10312">
<rect width="256" height="299" fill="white"/>
</clipPath>
</defs>
</svg>
