<svg width="512" height="115" viewBox="0 0 512 115" fill="none" xmlns="http://www.w3.org/2000/svg">
<g clip-path="url(#clip0_1_10317)">
<path d="M440.627 25.4767C444.214 25.4767 447.739 26.2125 451.234 27.7148C454.73 29.217 457.673 31.2405 460.126 33.8159L452.829 42.6456C451.265 40.5608 449.426 38.9972 447.249 37.8321C445.103 36.6671 442.957 36.0846 440.841 36.0846C438.419 36.0846 436.181 36.6978 434.188 37.9241C432.195 39.1505 430.632 40.806 429.467 42.9521C428.332 45.0982 427.75 47.459 427.75 50.0956C427.75 52.7016 428.332 55.093 429.467 57.2391C430.601 59.3852 432.195 61.0408 434.188 62.2671C436.181 63.4935 438.388 64.1066 440.841 64.1066C442.803 64.1066 444.888 63.6161 447.034 62.6044C449.18 61.5926 451.112 60.213 452.829 58.4654L460.187 66.3754C457.581 69.1346 454.454 71.3114 450.867 72.967C447.249 74.5919 443.692 75.4197 440.167 75.4197C435.384 75.4197 431.061 74.316 427.229 72.1085C423.366 69.9011 420.331 66.8966 418.123 63.0949C415.916 59.2932 414.812 55.001 414.812 50.2796C414.812 45.5888 415.946 41.3579 418.184 37.6175C420.423 33.8465 423.519 30.9033 427.443 28.7265C431.368 26.5804 435.752 25.4767 440.627 25.4767ZM386.361 25.3847C391.266 25.3847 395.712 26.4578 399.697 28.6345C403.683 30.7806 406.779 33.7545 409.079 37.5255C411.348 41.2966 412.482 45.5275 412.482 50.1876C412.482 54.909 411.348 59.2012 409.079 63.0029C406.81 66.8046 403.683 69.8091 399.697 72.0166C395.712 74.224 391.266 75.3277 386.361 75.3277C381.455 75.3277 377.01 74.224 373.024 72.0472C369.039 69.8705 365.942 66.8659 363.643 63.0336C361.374 59.2012 360.24 54.909 360.24 50.1876C360.24 45.4968 361.374 41.2659 363.643 37.5255C365.911 33.7545 369.039 30.8113 373.024 28.6345C377.01 26.4884 381.425 25.3847 386.361 25.3847ZM148.419 25.0781C151.914 25.0781 155.348 25.5687 158.751 26.5497C162.154 27.5308 165.128 28.8491 167.703 30.5047L162.951 40.5608C160.314 39.1505 157.586 37.9241 154.673 36.943C151.76 35.9926 149.308 35.5021 147.346 35.5021C145.782 35.5021 144.556 35.778 143.667 36.3605C142.777 36.943 142.318 37.7708 142.318 38.8745C142.318 39.9169 142.716 40.806 143.483 41.5418C144.249 42.247 145.23 42.8295 146.365 43.2587C147.499 43.6879 149.216 44.2705 151.454 44.945C154.796 45.8954 157.586 46.8764 159.762 47.8269C161.939 48.7773 163.809 50.2796 165.373 52.2724C166.937 54.2652 167.703 56.8712 167.703 60.0903C167.703 63.3095 166.845 66.0381 165.158 68.3069C163.472 70.5756 161.142 72.2925 158.168 73.4269C155.194 74.5612 151.914 75.1438 148.296 75.1438C144.31 75.1438 140.325 74.4386 136.339 73.0283C132.354 71.618 128.92 69.7172 126.038 67.2645L130.943 57.423C133.365 59.5691 136.247 61.3473 139.589 62.727C142.931 64.1066 145.874 64.7811 148.449 64.7811C150.32 64.7811 151.822 64.4439 152.895 63.7387C153.968 63.0642 154.52 62.0525 154.52 60.7035C154.52 59.5998 154.121 58.68 153.324 57.9442C152.527 57.2084 151.515 56.6259 150.289 56.1967C149.063 55.7675 147.376 55.2463 145.169 54.6331C141.858 53.7133 139.129 52.7936 136.983 51.8432C134.837 50.8927 132.967 49.4824 131.434 47.5816C129.901 45.6808 129.134 43.1361 129.134 39.9782C129.134 37.0044 129.931 34.3677 131.526 32.1296C133.12 29.8915 135.358 28.144 138.271 26.9176C141.183 25.6913 144.586 25.0781 148.419 25.0781ZM296.408 26.1512C302.785 26.1512 307.752 27.6228 311.247 30.5967C314.773 33.5706 316.52 37.7402 316.52 43.1054C316.52 46.7232 315.784 49.881 314.313 52.5176C312.841 55.1543 310.695 57.2084 307.905 58.68L317.961 74.4693H303.705V74.4386L296.684 61.0714H287.303V74.4386H274.702V26.1512H296.408ZM337.184 26.1512V63.7081H357.634V74.4693H324.583V26.1512H337.184ZM186.742 26.1512V45.8647H206.241V26.1512H218.842V74.4386H206.241V55.9208H186.742V74.4386H174.141V26.1512H186.742ZM266.301 26.1512V36.2072H240.824V45.2209H263.818V55.2156L240.824 55.2769V64.3826H267.006V74.4386H228.193V26.1512H266.301ZM478.183 26.1512V47.0911L496.303 26.1512H510.896L492.992 46.0487L512 74.4386H496.916L484.254 55.7061L478.183 62.4511V74.4386H465.583V26.1512H478.183ZM386.545 36.0539C384.123 36.0539 381.885 36.6671 379.861 37.9241C377.807 39.1505 376.213 40.8673 375.017 43.0441C373.821 45.2209 373.239 47.6123 373.239 50.2489C373.239 52.9162 373.852 55.3382 375.078 57.515C376.305 59.6918 377.899 61.4087 379.922 62.6963C381.946 63.9533 384.153 64.5972 386.545 64.5972C388.936 64.5972 391.113 63.9533 393.136 62.6963C395.129 61.4393 396.693 59.7224 397.858 57.515C398.992 55.3382 399.575 52.9162 399.575 50.2489C399.575 47.6429 398.992 45.2209 397.858 43.0441C396.723 40.8673 395.129 39.1505 393.136 37.9241C391.143 36.6978 388.936 36.0539 386.545 36.0539ZM296.469 36.2072H287.303V51.0154H296.469C299.045 51.0154 301.038 50.3715 302.417 49.0839C303.828 47.7962 304.533 45.926 304.533 43.504C304.533 41.1739 303.828 39.3651 302.417 38.1081C301.007 36.8511 299.045 36.2072 296.469 36.2072Z" fill="black"/>
<path d="M71.2814 94.6731C70.7908 94.6731 70.331 94.3972 70.1163 93.9373C69.8098 93.2935 70.055 92.4963 70.6989 92.1898C78.3022 88.3881 84.6486 82.5936 89.0634 75.4501C93.5702 68.1534 95.931 59.5996 95.931 50.7086C95.931 34.4595 87.6838 19.6207 73.8567 11.0362C73.2435 10.6683 73.0596 9.84054 73.4275 9.22736C73.7954 8.61419 74.6232 8.43024 75.2363 8.79814C82.2265 13.1517 88.0517 19.2221 92.1293 26.3656C96.3295 33.7543 98.5369 42.1548 98.5369 50.6779C98.5369 60.0595 96.0229 69.0731 91.2708 76.7991C86.6107 84.3718 79.8965 90.5035 71.8639 94.4892C71.6799 94.6424 71.496 94.6731 71.2814 94.6731Z" fill="#FFC700"/>
<path d="M27.6541 94.1853C27.4702 94.1853 27.2556 94.1546 27.0716 94.032C9.8721 85.3556 0 69.5663 0 50.7113C0 30.7218 11.9262 12.8478 30.3828 5.18311C31.0572 4.90719 31.8237 5.21377 32.0996 5.88826C32.3756 6.56275 32.069 7.32922 31.3945 7.60515C13.919 14.8713 2.63665 31.7949 2.63665 50.7113C2.63665 68.524 11.9875 83.4854 28.2673 91.7326C28.9111 92.0698 29.1564 92.8363 28.8498 93.4801C28.5739 93.94 28.114 94.1853 27.6541 94.1853Z" fill="#FFC700"/>
<path d="M49.4219 82.1346C50.2789 83.1495 50.688 84.6124 50.82 85.9008C52.6978 85.6056 54.7591 84.9436 56.6573 83.6062C57.2092 83.2077 57.9757 83.361 58.3742 83.9128C58.7728 84.4647 58.6195 85.2311 58.0676 85.6297C54.6645 87.9904 50.9548 88.5729 48.1342 88.5729C45.6815 88.5729 43.9647 88.1437 43.8114 88.0824C43.1675 87.8984 42.769 87.2546 42.9529 86.5801C43.1369 85.9363 43.7807 85.5377 44.4552 85.7217C44.5 85.7366 46.1154 86.1369 48.3842 86.1046C48.2941 85.204 48.0204 84.2562 47.5517 83.6982C46.9079 82.9317 45.6509 82.5025 44.3939 82.6252C43.6887 82.6865 42.4011 82.9931 41.6959 84.2501C41.2973 84.9859 41.328 86.8254 41.328 87.7145L41.328 89.8779C41.328 90.0103 41.3279 90.1409 41.3279 90.2697L41.3271 92.401C41.3271 92.509 41.327 92.6152 41.3269 92.7198L41.3262 93.3266C41.3234 95.4761 41.3161 96.798 41.2973 97.3413C41.2667 98.2611 41.2667 99.2422 41.2973 100.285C41.328 104.699 41.3893 109.697 38.5074 112.579C37.0971 113.989 35.1043 114.725 32.5903 114.725C29.0339 114.725 26.5199 113.59 25.1402 111.383C24.0672 109.666 23.9139 107.765 23.9139 106.11V98.0771C23.9139 97.4026 24.4657 96.8508 25.1402 96.8508H35.1656C35.8401 96.8508 36.392 97.4026 36.392 98.0771V104.577C36.392 105.251 35.8401 105.803 35.1656 105.803C34.4911 105.803 33.9393 105.251 33.9393 104.577V99.3035H26.3666V106.11C26.3666 109.329 27.133 112.303 32.5903 112.303C34.4605 112.303 35.8094 111.843 36.7905 110.862C38.9366 108.716 38.906 104.24 38.8447 100.315C38.8447 99.2422 38.814 98.2304 38.8447 97.2493C38.8625 96.7665 38.87 95.5325 38.8731 93.5595L38.8739 92.9757C38.874 92.875 38.8741 92.7727 38.8742 92.6687L38.8748 91.6877C38.8749 91.5737 38.8749 91.458 38.875 91.3406L38.8753 87.7451C38.8447 86.0283 38.8753 84.2501 39.5498 83.0544C40.4696 81.4295 42.1251 80.3871 44.1486 80.2031C46.2334 80.0192 48.2569 80.755 49.4219 82.1346ZM79.3754 60.7655C79.5594 61.0414 83.6983 67.6944 85.0779 77.2599C85.1699 77.8117 84.8633 78.3329 84.3728 78.5475C79.5287 80.663 73.9488 90.5044 72.232 94.0915C72.048 94.5514 71.6188 94.7966 71.1589 94.7966C70.975 94.7966 70.791 94.766 70.6377 94.674C70.0245 94.3674 69.7793 93.6623 70.0552 93.0491C70.3005 92.4972 76.2483 80.3564 82.5639 76.7693C81.6442 71.1281 79.7127 66.6213 78.4557 64.138L64.506 93.9995C64.2914 94.4287 63.8621 94.7047 63.4023 94.7047H44.2712C43.5968 94.7047 43.0449 94.1528 43.0449 93.4783C43.0449 92.8038 43.5968 92.252 44.2712 92.252H62.6051L77.2293 60.8881C77.4133 60.4896 77.8118 60.2137 78.2717 60.183C78.7316 60.1523 79.1302 60.3669 79.3754 60.7655ZM21.8291 60.5816C22.2276 60.6429 22.5649 60.9188 22.7182 61.2867L37.1891 92.9571C37.465 93.5703 37.1891 94.3061 36.5759 94.582C36.4226 94.674 36.2387 94.7047 36.0854 94.7047C35.6255 94.7047 35.1656 94.4287 34.9817 93.9995L21.3079 64.0153C19.4684 66.3454 16.0959 71.3121 15.8506 76.9533C22.1663 81.0922 28.8193 92.3746 29.0952 92.8652C29.4324 93.4477 29.2485 94.1835 28.666 94.5514C28.0835 94.8886 27.3477 94.7047 26.9797 94.1222L26.9735 94.1108L26.9103 94.0025C26.1659 92.7415 19.6084 81.949 14.0111 78.7008C13.6432 78.4862 13.3979 78.0877 13.3979 77.6278C13.3979 68.5222 20.4801 61.2254 20.756 60.9188C21.032 60.6429 21.4305 60.4896 21.8291 60.5816ZM54.5726 0C55.2667 0 55.8487 0.429785 56.0706 1.04135C57.7455 1.24227 60.6487 1.74753 63.1119 2.94247C63.5193 2.15148 64.4464 1.62753 65.4871 2.08479C70.883 4.47617 76.7388 9.16695 80.6938 16.1571C80.6938 16.1571 80.7021 16.1706 80.7182 16.1971L80.7605 16.2674C81.4391 17.4024 87.0442 27.1189 86.151 36.9437C86.0492 38.1652 85.0649 38.7296 84.1385 38.6212C84.5221 39.2515 84.7597 39.8823 84.8633 40.5001C84.9553 40.9293 85.4152 43.2594 83.8516 45.2829C82.5269 47.0304 80.1657 47.9746 76.8634 48.1156C78.3339 51.9982 78.0878 55.809 78.0878 55.9828C78.0571 56.5959 77.5359 57.0865 76.8921 57.0865H76.8001C76.1256 57.0252 75.6044 56.4426 75.6657 55.7681C75.6657 55.755 75.677 55.5701 75.6793 55.253L75.6793 55.0224C75.6701 53.7344 75.5015 50.9817 74.3474 48.3794C74.3115 48.2995 74.2849 48.2176 74.2673 48.1349L71.8947 48.1341C69.8099 48.1341 67.2959 48.1648 64.598 48.1648C62.0772 48.1648 59.392 48.1545 56.7089 48.128C56.1431 49.9106 55.8602 52.0917 55.8602 54.7871V69.1047C55.8909 71.4347 55.8602 74.0101 55.1857 75.4204C54.2353 77.3825 52.1812 78.5782 49.6978 78.6089C49.6672 78.6702 49.6365 78.6702 49.5752 78.6702C47.0612 78.6702 44.7005 77.4438 43.7194 75.6043C42.8916 74.0714 42.9223 72.3238 42.9529 70.1164C42.9529 69.4419 42.9836 68.7674 42.9529 68.001C42.9529 67.3265 43.4741 66.7746 44.1486 66.7439C44.8231 66.7133 45.375 67.2652 45.4056 67.9396V70.1164C45.375 71.9866 45.3443 73.4582 45.8655 74.4393C46.448 75.5123 47.9809 76.2481 49.6365 76.2175C50.3723 76.2175 52.1812 76.0029 52.9783 74.378C53.4688 73.3662 53.4382 70.331 53.4075 69.166V54.8177C53.4075 52.1885 53.6684 49.9807 54.1739 48.0969C53.0774 48.0825 51.9903 48.0641 50.9242 48.0422C43.6887 48.1954 35.4109 48.1648 29.923 48.1341H25.8454C22.6262 48.1341 20.1735 47.2757 18.6406 45.5588C16.8317 43.566 16.893 41.1133 16.9237 40.6841C16.9237 39.8453 17.1623 39.0281 17.6331 38.2392C16.5968 39.0513 14.8241 38.606 14.6856 36.9437C13.7352 26.4891 20.1429 16.1571 20.1429 16.1571C24.0978 9.16695 29.9536 4.47617 35.3496 2.08479C36.3236 1.65682 37.1981 2.08839 37.6416 2.79479C40.7857 1.35123 44.5421 0.991775 45.5522 0.909427C45.8022 0.374174 46.3522 0 46.9999 0H54.5726ZM66.4068 53.5301C67.7445 53.5301 68.8288 54.6007 68.8288 55.9214C68.8288 57.2422 67.7445 58.3128 66.4068 58.3128C65.0692 58.3128 63.9848 57.2422 63.9848 55.9214C63.9848 54.6007 65.0692 53.5301 66.4068 53.5301ZM41.328 54.3272C42.0025 54.3272 42.5544 54.879 42.5544 55.5535C42.5544 56.228 42.0025 56.7799 41.328 56.7799H30.0456C29.3711 56.7799 28.8193 56.228 28.8193 55.5535C28.8193 54.879 29.3711 54.3272 30.0456 54.3272H41.328ZM20.4188 38.2314C19.5297 39.0898 19.1005 39.9176 19.1005 40.7147V40.8067C19.1005 40.8067 19.0973 40.8449 19.0958 40.9144L19.0953 41.0414C19.1023 41.5871 19.2297 42.9791 20.2655 44.0872C21.3999 45.3135 23.27 45.9267 25.8454 45.9267H29.923C32.1938 45.9521 34.9424 45.9722 37.8971 45.9762L40.1476 45.976C43.4419 45.9709 46.8985 45.9437 50.1721 45.8806L50.9242 45.8654C54.9162 45.95 59.2254 45.9785 63.2032 45.982L64.6781 45.9822C67.3489 45.9806 69.8247 45.969 71.8947 45.9574H75.9723C79.0075 45.9574 81.123 45.2829 82.1347 43.9646C83.1465 42.6462 82.7479 41.0213 82.7479 41.0213L82.7172 40.8987C82.38 38.8446 79.4981 36.6678 74.9912 35.0735C69.1661 33.0501 60.8576 31.977 50.8935 31.977H50.8629C39.3352 31.5784 25.4775 33.3566 20.4188 38.2314ZM56.4224 5.84101L56.5123 5.92192C57.3689 6.69573 58.3524 7.75869 59.3553 9.19761C63.6862 15.3805 65.1838 24.0526 65.6445 30.7103C72.7659 31.7028 77.656 33.4152 80.7293 35.376C79.5277 29.6576 77.62 22.9362 73.8569 17.2915C69.6325 10.9549 63.7947 7.11707 56.4224 5.84101ZM43.502 5.9666L43.2476 6.01237C38.1575 6.96558 33.9038 8.96732 30.5668 11.9875C27.8688 14.4402 25.6614 17.6594 24.0365 21.5224C22.4392 25.3615 21.3798 29.9434 20.8583 35.151C24.0024 33.124 28.8067 31.5869 34.627 30.679C35.1071 24.0545 36.6182 15.4997 40.8681 9.16695C41.7907 7.80308 42.697 6.75739 43.502 5.9666ZM50.6482 5.36527C48.6597 5.36527 46.7642 5.48888 44.9651 5.73489C42.0685 8.17763 36.5599 14.8264 35.403 30.5613C40.0673 29.8899 45.3463 29.6131 50.9242 29.8002C56.2551 29.8002 60.8618 30.0911 64.8102 30.5982C63.6437 13.8812 57.5923 7.6161 54.8232 5.60789C53.48 5.4461 52.0879 5.36527 50.6482 5.36527ZM56.1414 1.86823C56.0656 2.28633 55.8252 2.6441 55.4869 2.87646C58.2586 3.23071 60.8464 3.90296 63.2452 4.88993C62.9761 4.53895 62.8701 4.13508 62.891 3.74024C60.5983 2.60242 57.8201 2.08834 56.1414 1.86823ZM38.1445 3.45933L37.9271 3.55814C37.9777 3.89259 37.9394 4.24072 37.7899 4.56341C40.2895 3.68336 43.0215 3.09513 45.9843 2.7994C45.6294 2.5128 45.4056 2.07785 45.4056 1.59425L45.4168 1.72058C44.2342 1.82786 40.9336 2.22675 38.1445 3.45933Z" fill="#150007"/>
</g>
<defs>
<clipPath id="clip0_1_10317">
<rect width="512" height="115" fill="white"/>
</clipPath>
</defs>
</svg>
