<svg width="256" height="323" viewBox="0 0 256 323" fill="none" xmlns="http://www.w3.org/2000/svg">
<g clip-path="url(#clip0_1_10336)">
<path d="M63.0313 311.177C60.1328 311.177 57.5241 310.815 55.2053 310.09C52.8864 309.366 50.6711 308.093 48.5593 306.271C48.021 305.815 47.607 305.297 47.3171 304.718C47.0273 304.138 46.8823 303.558 46.8823 302.979C46.8823 302.026 47.2239 301.188 47.9072 300.463C48.5904 299.739 49.4496 299.376 50.4848 299.376C51.2715 299.376 51.9755 299.625 52.5966 300.122C54.1701 301.405 55.7332 302.378 57.286 303.041C58.8388 303.703 60.7539 304.035 63.0313 304.035C64.5634 304.035 65.9712 303.796 67.2549 303.32C68.5385 302.844 69.5737 302.202 70.3605 301.395C71.1472 300.587 71.5406 299.666 71.5406 298.631C71.5406 297.389 71.1679 296.333 70.4226 295.463C69.6772 294.594 68.5385 293.859 67.0064 293.258C65.4744 292.658 63.5282 292.192 61.168 291.861C58.932 291.529 56.9651 291.022 55.2674 290.339C53.5697 289.656 52.1514 288.786 51.0127 287.73C49.874 286.674 49.0148 285.432 48.4351 284.004C47.8554 282.575 47.5656 280.97 47.5656 279.19C47.5656 276.498 48.2591 274.2 49.6463 272.296C51.0334 270.391 52.9071 268.942 55.2674 267.948C57.6276 266.954 60.2363 266.457 63.0934 266.457C65.7849 266.457 68.2797 266.861 70.5779 267.668C72.7228 268.422 74.498 269.365 75.9034 270.497L76.1989 270.743C77.3998 271.695 78.0002 272.792 78.0002 274.035C78.0002 274.946 77.6482 275.774 76.9443 276.519C76.2403 277.265 75.4122 277.637 74.4598 277.637C73.8387 277.637 73.2797 277.451 72.7828 277.078C72.1203 276.498 71.23 275.95 70.112 275.432C68.994 274.915 67.8139 274.48 66.5717 274.128C65.3294 273.776 64.17 273.6 63.0934 273.6C61.3129 273.6 59.8119 273.828 58.5903 274.283C57.3688 274.739 56.4475 275.36 55.8264 276.146C55.2053 276.933 54.8947 277.844 54.8947 278.879C54.8947 280.122 55.257 281.146 55.9817 281.954C56.7063 282.761 57.7518 283.403 59.1183 283.879C60.4847 284.356 62.1203 284.78 64.0251 285.153C66.5095 285.608 68.6938 286.146 70.5779 286.768C72.4619 287.389 74.025 288.186 75.2673 289.159C76.5095 290.132 77.4412 291.353 78.0623 292.823C78.6834 294.293 78.994 296.084 78.994 298.196C78.994 300.888 78.2486 303.206 76.7579 305.153C75.2673 307.099 73.3108 308.589 70.8884 309.625C68.4661 310.66 65.847 311.177 63.0313 311.177ZM102.969 276.706C105.95 276.706 108.217 277.347 109.77 278.631C111.323 279.915 112.389 281.623 112.969 283.755C113.549 285.888 113.839 288.258 113.839 290.867V306.767C113.839 307.844 113.487 308.745 112.783 309.469C112.079 310.194 111.188 310.556 110.112 310.556C109.035 310.556 108.145 310.194 107.441 309.469C106.737 308.745 106.385 307.844 106.385 306.767V290.867C106.385 289.5 106.219 288.269 105.888 287.171C105.557 286.074 104.957 285.194 104.087 284.532C103.217 283.869 101.975 283.538 100.36 283.538C98.7868 283.538 97.4411 283.869 96.3231 284.532C95.2051 285.194 94.3665 286.074 93.8075 287.171C93.2485 288.269 92.969 289.5 92.969 290.867V306.767C92.969 307.844 92.6171 308.745 91.9131 309.469C91.2092 310.194 90.319 310.556 89.2424 310.556C88.1658 310.556 87.2755 310.194 86.5716 309.469C85.8676 308.745 85.5157 307.844 85.5157 306.767V268.383C85.5157 267.306 85.8676 266.405 86.5716 265.681C87.2755 264.956 88.1658 264.594 89.2424 264.594C90.319 264.594 91.2092 264.956 91.9131 265.681C92.6171 266.405 92.969 267.306 92.969 268.383V283.786L92.0374 283.6C92.41 282.896 92.9276 282.14 93.5902 281.333C94.2527 280.525 95.0601 279.77 96.0125 279.066C96.9649 278.362 98.0208 277.792 99.1802 277.358C100.34 276.923 101.603 276.706 102.969 276.706ZM128.932 306.767C128.932 307.844 128.58 308.745 127.876 309.469C127.172 310.194 126.281 310.556 125.205 310.556C124.128 310.556 123.238 310.194 122.534 309.469C121.83 308.745 121.478 307.844 121.478 306.767V281.115C121.478 280.039 121.83 279.138 122.534 278.414C123.238 277.689 124.128 277.327 125.205 277.327C126.281 277.327 127.172 277.689 127.876 278.414C128.58 279.138 128.932 280.039 128.932 281.115V306.767ZM125.143 273.289C123.735 273.289 122.741 273.062 122.161 272.606C121.582 272.151 121.292 271.343 121.292 270.184V269.004C121.292 267.803 121.613 266.985 122.255 266.55C122.896 266.115 123.88 265.898 125.205 265.898C126.654 265.898 127.669 266.126 128.248 266.581C128.828 267.037 129.118 267.844 129.118 269.004V270.184C129.118 271.385 128.807 272.202 128.186 272.637C127.565 273.072 126.551 273.289 125.143 273.289ZM153.776 276.706C156.675 276.706 159.273 277.44 161.571 278.91C163.869 280.38 165.691 282.399 167.037 284.966C168.383 287.534 169.056 290.515 169.056 293.91C169.056 297.306 168.383 300.297 167.037 302.885C165.691 305.473 163.89 307.502 161.633 308.972C159.377 310.442 156.84 311.177 154.025 311.177C152.368 311.177 150.816 310.908 149.366 310.37C147.917 309.832 146.644 309.148 145.546 308.32C144.449 307.492 143.6 306.654 143 305.805C142.399 304.956 142.099 304.242 142.099 303.662L144.025 302.854V319.19C144.025 320.266 143.673 321.167 142.969 321.892C142.265 322.616 141.375 322.979 140.298 322.979C139.221 322.979 138.331 322.627 137.627 321.923C136.923 321.219 136.571 320.308 136.571 319.19V281.115C136.571 280.039 136.923 279.138 137.627 278.414C138.331 277.689 139.221 277.327 140.298 277.327C141.375 277.327 142.265 277.689 142.969 278.414C143.673 279.138 144.025 280.039 144.025 281.115V284.159L142.969 283.6C142.969 283.062 143.259 282.409 143.838 281.643C144.418 280.877 145.205 280.111 146.199 279.345C147.192 278.579 148.341 277.948 149.646 277.451C150.95 276.954 152.327 276.706 153.776 276.706ZM152.844 283.538C151.023 283.538 149.428 283.993 148.062 284.904C146.695 285.815 145.629 287.047 144.863 288.6C144.097 290.153 143.714 291.923 143.714 293.91C143.714 295.857 144.097 297.627 144.863 299.221C145.629 300.815 146.695 302.068 148.062 302.979C149.428 303.89 151.023 304.345 152.844 304.345C154.666 304.345 156.25 303.89 157.596 302.979C158.942 302.068 159.998 300.815 160.764 299.221C161.53 297.627 161.913 295.857 161.913 293.91C161.913 291.923 161.53 290.153 160.764 288.6C159.998 287.047 158.942 285.815 157.596 284.904C156.25 283.993 154.666 283.538 152.844 283.538ZM182.596 306.767C182.596 307.844 182.244 308.745 181.54 309.469C180.836 310.194 179.946 310.556 178.869 310.556C177.793 310.556 176.902 310.194 176.198 309.469C175.494 308.745 175.143 307.844 175.143 306.767V281.115C175.143 280.039 175.494 279.138 176.198 278.414C176.902 277.689 177.793 277.327 178.869 277.327C179.946 277.327 180.836 277.689 181.54 278.414C182.244 279.138 182.596 280.039 182.596 281.115V306.767ZM178.807 273.289C177.399 273.289 176.405 273.062 175.826 272.606C175.246 272.151 174.956 271.343 174.956 270.184V269.004C174.956 267.803 175.277 266.985 175.919 266.55C176.561 266.115 177.544 265.898 178.869 265.898C180.318 265.898 181.333 266.126 181.913 266.581C182.492 267.037 182.782 267.844 182.782 269.004V270.184C182.782 271.385 182.472 272.202 181.851 272.637C181.229 273.072 180.215 273.289 178.807 273.289ZM190.608 277.948H205.329C206.322 277.948 207.151 278.279 207.813 278.941C208.476 279.604 208.807 280.432 208.807 281.426C208.807 282.378 208.476 283.175 207.813 283.817C207.151 284.459 206.322 284.78 205.329 284.78H190.608C189.614 284.78 188.786 284.449 188.124 283.786C187.461 283.124 187.13 282.296 187.13 281.302C187.13 280.349 187.461 279.552 188.124 278.91C188.786 278.269 189.614 277.948 190.608 277.948ZM197.254 270.184C198.331 270.184 199.211 270.546 199.894 271.271C200.577 271.995 200.919 272.896 200.919 273.973V301.612C200.919 302.192 201.033 302.668 201.26 303.041C201.488 303.413 201.799 303.683 202.192 303.848C202.585 304.014 203.01 304.097 203.465 304.097C203.879 304.097 204.265 304.032 204.621 303.903L204.832 303.817C205.246 303.631 205.722 303.538 206.26 303.538C206.84 303.538 207.368 303.807 207.844 304.345C208.32 304.883 208.558 305.629 208.558 306.581C208.558 307.741 207.927 308.693 206.664 309.438C205.401 310.184 204.045 310.556 202.596 310.556C201.726 310.556 200.764 310.484 199.708 310.339C198.652 310.194 197.658 309.842 196.726 309.283C195.795 308.724 195.018 307.865 194.397 306.705C193.776 305.546 193.465 303.952 193.465 301.923V273.973C193.465 272.896 193.828 271.995 194.552 271.271C195.277 270.546 196.178 270.184 197.254 270.184Z" fill="#222222"/>
<path d="M0 125.062C108.449 160.656 179.883 183.51 256 146.452C242.498 164.364 226.87 181.554 201.892 195.567C149.355 207.028 96.8182 204.103 44.2816 195.567C2.91482 171.298 0.651544 156.171 0 125.062Z" fill="#444361"/>
<path d="M0 125.062C114.103 182.381 180.638 189.048 256 146.452C242.498 164.364 254.428 184.107 201.892 195.567C149.355 207.028 85.6483 219.837 44.2816 195.567C2.91482 171.298 0.651544 156.171 0 125.062Z" fill="url(#paint0_linear_1_10336)"/>
<path d="M135.214 0C162.906 13.6751 201.323 66.183 235.856 139.184C201.687 146.512 168.519 158.944 141.849 146.875C150.209 99.7668 143.274 48.5439 135.214 0Z" fill="#E78724"/>
<path d="M161.993 27.6992C185.922 52.3029 209.423 89.0484 232.498 137.936C225.529 138.678 216.616 138.678 205.762 137.936C208.669 125.655 194.079 88.9094 161.993 27.6992Z" fill="#FBA919"/>
<path d="M128.42 34.4141V139.259C122.857 152.696 107.013 151.582 80.8891 135.916C73.4562 131.458 60.762 130.565 42.8066 133.237C49.681 110.41 80.1803 76.5532 128.42 34.4141Z" fill="#E78724"/>
<path d="M99.0427 71.3438L74.0067 124.222H58.7542C65.323 103.961 82.8612 87.9128 99.0427 71.3438Z" fill="#FBA919"/>
</g>
<defs>
<linearGradient id="paint0_linear_1_10336" x1="12800" y1="125.062" x2="12800" y2="8556.07" gradientUnits="userSpaceOnUse">
<stop stop-color="#8783DC"/>
<stop offset="1" stop-color="#444361"/>
</linearGradient>
<clipPath id="clip0_1_10336">
<rect width="256" height="323" fill="white"/>
</clipPath>
</defs>
</svg>
