<svg width="256" height="292" viewBox="0 0 256 292" fill="none" xmlns="http://www.w3.org/2000/svg">
<g clip-path="url(#clip0_1_10349)">
<path d="M223.774 57.342C223.573 55.8811 222.294 55.0737 221.237 54.985C220.182 54.8963 197.854 53.2418 197.854 53.2418C197.854 53.2418 182.347 37.8467 180.645 36.1431C178.942 34.4395 175.616 34.9576 174.326 35.338C174.135 35.394 170.937 36.3811 165.647 38.017C160.466 23.112 151.325 9.41344 135.242 9.41344C134.798 9.41344 134.341 9.43211 133.884 9.45778C129.31 3.40894 123.644 0.78125 118.75 0.78125C81.2854 0.78125 63.3863 47.6153 57.7739 71.4163C43.2165 75.9272 32.8738 79.1337 31.5529 79.5491C23.4271 82.0974 23.1704 82.3541 22.104 90.0108C21.2988 95.8076 0.0369263 260.237 0.0369263 260.237L165.715 291.279L255.486 271.858C255.486 271.858 223.972 58.8029 223.774 57.342ZM156.49 40.8501C152.329 42.1383 147.599 43.6015 142.471 45.1883C142.476 44.2012 142.481 43.2281 142.481 42.1663C142.481 32.9017 141.195 25.4433 139.132 19.5298C147.419 20.5706 152.938 29.9986 156.49 40.8501ZM128.852 21.3664C131.156 27.1399 132.654 35.4243 132.654 46.6049C132.654 47.1766 132.649 47.6994 132.644 48.2291C123.527 51.0528 113.621 54.1192 103.691 57.195C109.266 35.6787 119.716 25.2869 128.852 21.3664ZM117.721 10.83C119.338 10.83 120.967 11.3784 122.526 12.4519C110.519 18.1016 97.649 32.3322 92.2139 60.7491C84.2702 63.2088 76.5061 65.6125 69.3278 67.8365C75.694 46.1615 90.8114 10.83 117.721 10.83Z" fill="#95BF46"/>
<path d="M221.237 54.984C220.182 54.8954 197.854 53.2408 197.854 53.2408C197.854 53.2408 182.347 37.8457 180.645 36.1421C180.008 35.5074 179.15 35.183 178.251 35.043L165.724 291.276L255.486 271.857C255.486 271.857 223.972 58.8019 223.774 57.341C223.573 55.8802 222.294 55.0727 221.237 54.984Z" fill="#5E8E3E"/>
<path d="M135.242 104.588L124.173 137.514C124.173 137.514 114.475 132.338 102.587 132.338C85.1593 132.338 84.2818 143.276 84.2818 146.032C84.2818 161.07 123.483 166.831 123.483 202.056C123.483 229.768 105.905 247.613 82.2049 247.613C53.7646 247.613 39.2213 229.912 39.2213 229.912L46.836 204.753C46.836 204.753 61.7854 217.588 74.4011 217.588C82.6436 217.588 85.9971 211.099 85.9971 206.357C85.9971 186.74 53.837 185.865 53.837 153.632C53.837 126.504 73.309 100.25 112.615 100.25C127.76 100.25 135.242 104.588 135.242 104.588Z" fill="white"/>
</g>
<defs>
<clipPath id="clip0_1_10349">
<rect width="256" height="292" fill="white"/>
</clipPath>
</defs>
</svg>
