<svg width="512" height="108" viewBox="0 0 512 108" fill="none" xmlns="http://www.w3.org/2000/svg">
<g clip-path="url(#clip0_1_10380)">
<path d="M55.977 0C67.4518 3.19145 77.9067 11.2339 82.2416 21.0636C88.8715 37.0209 87.3415 57.1909 80.0742 69.1907C73.9542 79.0203 64.5194 84.2544 53.682 84.1267C36.8522 83.999 23.21 70.5949 23.0825 53.7441C23.0825 36.8931 36.3423 22.9785 53.682 22.9785C56.4869 22.9785 60.5313 23.3675 65.1212 25.2823C65.1212 25.2823 61.8215 23.3279 53.3468 22.015C28.9947 18.8235 0.2603 37.2762 6.8902 79.7863C16.07 96.1265 33.6648 107.233 53.682 107.105C83.134 106.978 107.231 82.8501 107.104 53.2334C107.104 24.8933 84.0265 0.765949 55.977 0Z" fill="url(#paint0_linear_1_10380)"/>
<path d="M75.9932 22.5953C71.9133 14.0422 63.4984 7.2763 53.1711 4.59549C50.8761 3.9572 48.4537 3.70187 45.7762 3.57422C41.8238 3.57422 37.9988 4.08486 34.0464 5.10613C24.229 8.04226 17.3441 13.7869 13.2642 18.2549C8.03674 24.2548 4.59429 30.51 2.55432 36.7653C2.55432 36.893 2.42682 37.0206 2.42682 37.2759C2.29932 37.7866 1.78933 39.3185 1.78933 39.7015C1.66183 39.9568 1.66183 40.3398 1.53434 40.5951C1.40683 41.1057 1.27933 41.6163 1.15184 42.127C1.15184 42.2547 1.15184 42.3823 1.02434 42.5099C-2.29061 58.9778 3.21632 73.7561 6.53127 79.2454C7.36041 80.6184 8.04128 81.7639 8.72365 82.8149C1.20126 41.9643 22.8265 22.4676 47.4337 21.957C60.311 21.7017 73.1882 26.9357 79.4357 37.4037C79.0532 31.659 78.6707 28.4675 75.9932 22.5953Z" fill="url(#paint1_linear_1_10380)"/>
<path d="M253.627 36.1779C255.959 36.1779 258.369 36.3723 260.857 36.7804C263.345 37.1886 265.521 37.7134 267.407 38.413V81.2103C267.407 88.9263 265.658 94.5432 262.198 98.022C258.719 101.501 253.433 103.231 246.339 103.231C245.969 103.231 245.833 103.231 245.464 103.211V94.8736C249.429 94.8736 252.344 93.9601 254.229 92.1331C256.115 90.3062 257.047 87.2354 257.047 82.9012V78.8003H256.542C255.551 80.4329 254.171 81.7156 252.442 82.6874C250.712 83.6592 248.729 84.1451 246.494 84.1451C243.695 84.1451 241.15 83.3676 238.837 81.8128C236.523 80.2579 234.658 77.7507 233.259 74.3106C231.84 70.8705 231.14 66.4586 231.14 61.0945C231.14 52.776 233.006 46.5372 236.718 42.4168C240.43 38.277 246.066 36.1974 253.627 36.1779ZM424.541 36.1572C430.527 36.1572 435.133 38.1397 438.379 42.1045C441.606 46.0694 443.238 52.1334 443.238 60.3157C443.238 76.3695 437 84.3965 424.561 84.3965C418.536 84.3965 413.91 82.4335 410.684 78.5463C407.458 74.6592 405.844 68.5953 405.844 60.3934C405.844 44.223 412.083 36.1572 424.541 36.1572ZM312.363 36.1406C323.597 36.1406 329.214 44.2064 329.214 60.338V63.5254H304.783C304.9 66.6934 305.366 69.1617 306.202 70.9692C307.038 72.7573 308.301 74.04 310.011 74.8174C311.722 75.5949 313.995 75.9642 316.853 75.9642C319.788 75.9642 323.189 75.4199 327.037 74.3316V82.7472C324.957 83.3108 323.014 83.7384 321.206 83.9911C319.399 84.2437 317.533 84.3798 315.628 84.3798C310.672 84.3798 306.629 83.5635 303.5 81.9115C300.371 80.2594 298.058 77.6745 296.543 74.1372C295.026 70.5805 294.268 65.8966 294.268 60.0464C294.268 52.0584 295.842 46.0916 298.991 42.1073C302.14 38.123 306.591 36.1406 312.363 36.1406ZM495.15 36.1406C506.383 36.1406 512 44.2064 512 60.338V63.5254H487.57C487.686 66.6934 488.153 69.1617 488.988 70.9692C489.824 72.7573 491.088 74.04 492.798 74.8174C494.508 75.5949 496.783 75.9642 499.639 75.9642C502.574 75.9642 505.975 75.4199 509.824 74.3316V82.7472C507.744 83.3108 505.8 83.7384 503.993 83.9911C502.185 84.2437 500.32 84.3798 498.414 84.3798C493.458 84.3798 489.416 83.5635 486.287 81.9115C483.157 80.2594 480.845 77.6745 479.329 74.1372C477.813 70.5805 477.055 65.8966 477.055 60.0464C477.055 52.0584 478.63 46.0916 481.778 42.1073C484.927 38.123 489.377 36.1406 495.15 36.1406ZM148.072 19.4451C150.288 19.4451 152.504 19.5811 154.68 19.8726C156.858 20.1642 158.781 20.5529 160.433 21.0776V30.0181C156.993 28.9297 153.165 28.3855 148.966 28.3855C140.473 28.3855 136.216 31.3008 136.216 37.112C136.216 38.6863 136.489 39.9885 137.013 41.038C137.538 42.0875 138.432 43.0399 139.657 43.8562C140.9 44.6919 142.611 45.4693 144.808 46.2079L148.617 47.4906C153.457 49.1232 157.129 51.3778 159.636 54.2737C162.125 57.1696 163.388 60.9401 163.388 65.5852C163.388 69.4917 162.533 72.8541 160.803 75.6528C159.073 78.4516 156.566 80.6089 153.262 82.1055C149.958 83.602 145.974 84.3406 141.328 84.3406C139.015 84.3406 136.567 84.1462 133.981 83.7186C131.397 83.3105 129.065 82.708 126.946 81.95V72.9707C131.96 74.6033 136.702 75.4002 141.192 75.4002C145.099 75.4002 147.994 74.6422 149.919 73.1262C151.824 71.6102 152.776 69.414 152.776 66.4986C152.776 64.8661 152.485 63.5056 151.902 62.3783C151.319 61.2511 150.347 60.2599 148.986 59.3853C147.626 58.5107 145.779 57.6749 143.408 56.8781L139.598 55.5953C130.289 52.4273 125.624 46.5188 125.624 37.9088C125.624 34.0606 126.46 30.7566 128.151 27.9968C129.842 25.2369 132.349 23.1184 135.692 21.6413C139.035 20.1836 143.175 19.4451 148.072 19.4451ZM391.247 20.2418V36.8787H402.442V45.1388H391.247V66.9456C391.247 69.0835 391.48 70.7744 391.966 71.9988C392.452 73.2233 393.21 74.0979 394.241 74.6226C395.27 75.1474 396.65 75.4195 398.38 75.4195C399.429 75.4195 400.906 75.2446 402.831 74.8947V83.5242C400.576 84.0684 398.244 84.3405 395.815 84.3405C390.936 84.3405 387.244 83.0577 384.698 80.4728C382.151 77.8878 380.888 73.7869 380.888 68.1894V45.1388H373.755V36.8787H380.888L382.734 20.2418H391.247ZM357.079 19.4243C359.295 19.4243 361.511 19.5604 363.687 19.8519C365.865 20.1435 367.789 20.5322 369.441 21.0569V29.9973C366 28.9089 362.172 28.3646 357.974 28.3646C349.48 28.3646 345.223 31.28 345.223 37.0913C345.223 38.6656 345.496 39.9677 346.021 41.0173C346.545 42.0668 347.439 43.0192 348.664 43.8355C349.908 44.6712 351.618 45.4486 353.815 46.1872L357.624 47.4699C362.463 49.1025 366.137 51.357 368.643 54.253C371.132 57.1489 372.395 60.9193 372.395 65.5644C372.395 69.471 371.539 72.8334 369.81 75.6321C368.081 78.4308 365.573 80.5882 362.269 82.0847C358.965 83.5813 354.981 84.3198 350.335 84.3198C348.003 84.3393 345.554 84.1449 342.988 83.7173C340.404 83.3092 338.072 82.7067 335.953 81.9487V72.9694C340.968 74.602 345.709 75.3989 350.2 75.3989C354.106 75.3989 357.002 74.6409 358.926 73.1249C360.831 71.6089 361.783 69.4127 361.783 66.4973C361.783 64.8647 361.492 63.5042 360.909 62.377C360.326 61.2498 359.354 60.2586 357.993 59.384C356.633 58.5094 354.786 57.6736 352.415 56.8768L348.605 55.594C339.276 52.4066 334.631 46.4981 334.631 37.8881C334.631 34.0399 335.467 30.7358 337.158 27.9759C338.849 25.2162 341.357 23.0977 344.699 21.6206C348.042 20.1629 352.182 19.4243 357.079 19.4243ZM211.257 36.1406C215.222 36.1406 218.37 37.3844 220.683 39.8722C222.996 42.36 224.162 46.3832 224.162 51.9029V83.5052H213.823V52.6998C213.823 50.0759 213.298 48.2101 212.248 47.1023C211.199 45.9945 209.702 45.4308 207.758 45.4308C206.281 45.4308 204.785 45.8001 203.307 46.5192C201.83 47.2383 200.645 48.3462 199.751 49.8427V83.5441H189.411V36.8791H198.041L198.818 41.8741H199.382C200.859 40.0277 202.608 38.6089 204.61 37.6177C206.611 36.6265 208.827 36.1406 211.257 36.1406ZM180.199 36.8773V83.5228H169.801V36.8773H180.199ZM286.979 14.4297V83.5233H276.64V14.4297H286.979ZM471.612 36.3128C472.603 36.3128 473.594 36.3905 474.566 36.5654V46.225C473.594 46.05 472.409 45.9723 470.97 45.9723C468.891 45.9723 466.927 46.4582 465.062 47.4105C463.215 48.3629 461.777 49.6845 460.786 51.3754V83.5219H450.446V36.8764H458.998L459.814 43.2902H460.319C461.466 40.8996 463.002 39.1309 464.965 38.0037C466.908 36.8764 469.124 36.3128 471.612 36.3128ZM424.541 44.0481C422.753 44.0481 421.257 44.5146 420.091 45.4475C418.925 46.3804 418.03 48.013 417.408 50.3841C416.787 52.7553 416.475 56.0205 416.475 60.2185C416.475 64.4749 416.787 67.779 417.408 70.1307C418.03 72.5018 418.925 74.1344 420.091 75.0674C421.237 76.0003 422.734 76.4667 424.561 76.4667C426.349 76.4861 427.806 76.0197 428.972 75.1062C430.119 74.1927 431.013 72.5601 431.655 70.2279C432.296 67.8956 432.587 64.6498 432.587 60.4712C432.587 56.1954 432.276 52.8525 431.655 50.4619C431.032 48.0713 430.139 46.3998 428.953 45.4669C427.768 44.534 426.31 44.0481 424.541 44.0481ZM252.792 44.2826C249.118 44.2826 246.358 45.4876 244.511 47.9171C242.665 50.3465 241.752 54.4086 241.752 60.1421C241.752 64.1263 242.102 67.2555 242.821 69.4906C243.54 71.7257 244.532 73.2805 245.795 74.1357C247.058 74.9909 248.671 75.4185 250.614 75.4185C251.858 75.4185 253.083 75.1269 254.269 74.5244C255.454 73.9413 256.387 73.125 257.068 72.1144V44.7491C255.648 44.4381 254.21 44.2826 252.792 44.2826ZM312.305 43.254C310.711 43.254 309.37 43.6622 308.301 44.459C307.232 45.2559 306.377 46.6553 305.755 48.6571C305.133 50.659 304.803 53.3994 304.763 56.9173H319.437C319.418 53.4189 319.107 50.659 318.544 48.6571C317.98 46.6553 317.183 45.2559 316.153 44.459C315.123 43.6622 313.841 43.254 312.305 43.254ZM495.091 43.254C493.498 43.254 492.157 43.6622 491.088 44.459C490.019 45.2559 489.163 46.6553 488.542 48.6571C487.919 50.659 487.589 53.3994 487.551 56.9173H502.225C502.204 53.4189 501.894 50.659 501.33 48.6571C500.767 46.6553 499.969 45.2559 498.94 44.459C497.909 43.6622 496.627 43.254 495.091 43.254ZM174.642 21.6798C176.488 21.6798 177.906 22.1463 178.859 23.0598C179.811 23.9733 180.297 25.2366 180.297 26.8497C180.297 28.4823 179.831 29.7456 178.878 30.6396C177.926 31.5336 176.527 31.9806 174.642 31.9806C172.795 31.9806 171.395 31.5336 170.443 30.6396C169.491 29.7456 169.025 28.4823 169.025 26.8497C169.025 25.2171 169.491 23.9538 170.443 23.0403C171.395 22.1463 172.795 21.6798 174.642 21.6798Z" fill="black"/>
</g>
<defs>
<linearGradient id="paint0_linear_1_10380" x1="6820.06" y1="-2785.23" x2="-2103.97" y2="2024.82" gradientUnits="userSpaceOnUse">
<stop stop-color="#FF7BFF"/>
<stop offset="0.350158" stop-color="#AA00FF"/>
<stop offset="1" stop-color="#8800CC"/>
</linearGradient>
<linearGradient id="paint1_linear_1_10380" x1="2880.27" y1="-1530.75" x2="8862.31" y2="3583.73" gradientUnits="userSpaceOnUse">
<stop offset="0.0354358" stop-color="#FF7BFF"/>
<stop offset="0.576537" stop-color="#8800CC"/>
<stop offset="1" stop-color="#311B92"/>
</linearGradient>
<clipPath id="clip0_1_10380">
<rect width="512" height="108" fill="white"/>
</clipPath>
</defs>
</svg>
