<svg width="256" height="256" viewBox="0 0 256 256" fill="none" xmlns="http://www.w3.org/2000/svg">
<g clip-path="url(#clip0_1_10376)">
<path d="M133.793 0C161.22 7.62807 186.209 26.8507 196.57 50.3453C212.416 88.4856 208.76 136.695 191.389 165.377C176.762 188.871 154.211 201.381 128.308 201.076C88.0822 200.771 55.4751 168.733 55.1704 128.457C55.1704 88.1804 86.8634 54.9222 128.308 54.9222C135.012 54.9222 144.679 55.852 155.65 60.4286C155.65 60.4286 147.763 55.7573 127.507 52.6192C69.3015 44.9912 0.621814 89.0959 16.4683 190.702C38.4095 229.757 80.4639 256.304 128.308 255.997C198.703 255.693 256.299 198.025 255.996 127.236C255.996 59.4988 200.836 1.83074 133.793 0Z" fill="url(#paint0_linear_1_10376)"/>
<path d="M181.636 54.0025C171.884 33.5592 151.771 17.3876 127.087 10.98C121.602 9.45445 115.812 8.84417 109.412 8.53906C99.9653 8.53906 90.8231 9.75958 81.3761 12.2006C57.911 19.2184 41.4552 32.949 31.7034 43.6281C19.2091 57.9689 10.9811 72.9199 6.10522 87.8709C6.10522 88.1762 5.80047 88.4812 5.80047 89.0914C5.49572 90.312 4.27677 93.9734 4.27677 94.8889C3.97203 95.4992 3.97203 96.4145 3.6673 97.0247C3.36255 98.2453 3.0578 99.4656 2.75308 100.686C2.75308 100.991 2.75308 101.296 2.44833 101.601C-5.47492 140.962 7.6875 176.285 15.6108 189.405C17.5925 192.687 19.2199 195.425 20.8509 197.937C2.8712 100.297 54.559 53.6972 113.374 52.4767C144.153 51.8666 174.931 64.3766 189.864 89.3967C188.949 75.666 188.035 68.038 181.636 54.0025Z" fill="url(#paint1_linear_1_10376)"/>
</g>
<defs>
<linearGradient id="paint0_linear_1_10376" x1="16301" y1="-6657.14" x2="-5028.81" y2="4839.64" gradientUnits="userSpaceOnUse">
<stop stop-color="#FF7BFF"/>
<stop offset="0.350158" stop-color="#AA00FF"/>
<stop offset="1" stop-color="#8800CC"/>
</linearGradient>
<linearGradient id="paint1_linear_1_10376" x1="6884.3" y1="-3658.74" x2="21182.3" y2="8565.67" gradientUnits="userSpaceOnUse">
<stop offset="0.0354358" stop-color="#FF7BFF"/>
<stop offset="0.576537" stop-color="#8800CC"/>
<stop offset="1" stop-color="#311B92"/>
</linearGradient>
<clipPath id="clip0_1_10376">
<rect width="256" height="256" fill="white"/>
</clipPath>
</defs>
</svg>
