<svg width="512" height="269" viewBox="0 0 512 269" fill="none" xmlns="http://www.w3.org/2000/svg">
<g clip-path="url(#clip0_1_10391)">
<path d="M45.4184 177.262L43.0843 176.166C35.5908 172.618 29.7835 169.397 29.7835 163.447C29.7835 158.43 33.8011 154.784 41.7212 154.784C44.6367 154.784 47.0204 155.129 49.4874 155.578C50.7754 155.801 52.1466 155.988 53.2808 155.988C60.0902 155.988 63.983 152 66.5845 144.42L67.7879 140.827L66.6506 140.363C63.2629 139.018 53.1915 135.406 40.6254 135.406C17.16 135.406 4.77381 150.458 4.7802 166.067C4.7802 173.943 7.24721 179.652 11.1111 184.15C15.7822 189.574 22.3193 193.239 28.5923 196.351L29.8026 196.946C39.472 201.688 48.193 205.193 48.193 212.223C48.1994 218.464 41.7531 222.007 33.1347 222.007C21.3251 222.007 11.0086 215.266 9.69498 214.453L0 232.619L1.20993 233.32C5.10067 235.525 16.8775 241.519 34.7558 241.519C56.6512 241.506 73.2346 228.953 73.2346 209.634C73.2346 190.417 57.8687 183.291 45.4184 177.262ZM131.067 186.232L170.782 137.533H142.485L110.805 179.561H110.331V137.533H87.0004L87.0132 240.698H88.3973C98.4832 240.698 110.485 236.027 110.485 219.187V195.498H110.959L143.254 239.41H172.942L131.067 186.232Z" fill="#E31837"/>
<path d="M206.131 63.3506C238.324 64.6513 264.275 76.2302 282.05 87.5656L280.151 88.6133C271.36 93.4043 257.865 99.797 237.933 99.8814C232.345 99.8942 229.257 99.4519 226.021 99.4582C211.392 99.5094 209.117 107.737 208.675 118.675L208.631 119.952L208.585 121.226C208.178 132.04 207.363 142.422 203.055 149.119L202.493 147.55C200.624 142.417 197.857 135.73 193.091 127.967L192.682 127.259C189.306 121.477 186.657 118.513 186.478 118.304L187.23 116.154L206.131 63.3506ZM172.105 27.0195C183.705 35.9584 195.41 47.547 205.502 62.4183L206.131 63.352L169.286 108.565L168.581 108.463C167.056 108.262 163.164 107.839 157.496 107.853C154.074 107.861 150.96 108.026 148.115 108.277C155.15 103.875 161.655 95.9225 161.61 84.1193C161.578 68.4395 151.786 61.1795 151.761 49.2097C151.716 36.029 163.891 28.5707 172.105 27.0195Z" fill="#E31837"/>
<path d="M125.237 112.066C123.439 112.072 122.511 110.923 122.223 108.916L122.123 108.049C121.268 100.27 113.38 28.138 111.571 11.361L111.313 8.97719C111.095 7.05335 110.71 4.10406 110.704 2.99257C110.698 1.03179 111.979 0.00644556 113.485 0L113.77 0.00567796C118.801 0.209727 142.152 5.90976 166.894 23.2603L166.45 23.3896C159.094 25.6104 146.461 33.1854 146.517 48.539C146.568 62.412 156.494 70.0435 156.545 83.9548C156.629 106.581 130.62 112.053 125.237 112.066ZM205.171 155.138C205.568 156.189 205.94 157.072 206.318 157.687C206.901 158.668 207.651 159.117 208.586 159.117C209.169 159.111 209.887 158.912 210.688 158.554L297.205 118.329C298.898 117.544 300.244 116.921 301.172 116.493L302.445 115.894C304.14 115.104 306.276 114.123 307.093 113.642C308.183 113.021 308.682 112.116 308.682 111.194C308.676 110.674 308.528 110.155 308.234 109.681L308.108 109.487C306.39 106.925 299.017 99.2107 286.896 90.8036L284.797 91.9543C274.876 97.3525 260.02 104.663 238.633 104.747L237.684 104.745C232.999 104.718 231.599 104.403 228.226 104.395L227.893 104.395C216.692 104.431 213.892 109.226 213.482 119.049L213.435 120.664C213.393 122.255 213.351 124.132 213.271 126.143L213.209 127.556C212.793 136.185 211.527 147.459 205.171 155.138Z" fill="#F58025"/>
<path d="M293.343 182.353C300.688 182.353 302.934 186.44 304.836 190.969L319.07 225.292H319.461L333.065 183.43H347.175L325.375 242.093C316.834 265.181 305.832 268.167 296.393 268.167C289.722 268.167 284.82 265.783 284.308 265.52L287.87 254.717L288.137 254.853C289.084 255.328 292.274 256.806 295.771 256.806C303.268 256.806 307.972 252.641 312.13 239.594L286.345 183.43L286.844 183.283L287.507 183.108C288.798 182.786 290.97 182.353 293.343 182.353ZM229.898 154.016C236.85 154.016 241.329 159.072 241.329 165.806V189.854L242.213 189.103L242.639 188.757C245.305 186.624 251.506 182.351 259.508 182.351C270.453 182.351 278.527 188.06 278.527 201.972V239.412H263.917V205.976C263.917 199.819 260.521 195.045 254.094 195.045C247.981 195.045 242.797 199.87 241.329 201.081V239.412H226.822V154.016H229.898ZM388.71 182.591L389.157 182.596C396.486 182.746 408.926 186.633 409.179 202.934L409.183 203.442V239.409H395.093V206.973C395.093 200.13 391.331 194.875 384.078 194.875C379.635 194.875 375.537 197.936 373.68 199.523L373.283 199.869L372.736 200.367V239.409H358.632L358.631 201.318L358.623 200.265C358.541 193.716 357.966 189.49 357.498 186.888L357.321 185.943L357.037 184.546L357.386 184.465C358.259 184.274 360.513 183.834 362.31 183.834C368.468 183.834 371.153 187.705 371.755 189.992L372.08 189.677C374.276 187.587 380.349 182.591 388.71 182.591ZM438.92 183.395V239.329H424.938V183.395H438.92ZM462.148 182.283C467.242 182.181 469.778 185.031 472.029 188.363L472.648 189.298L473.406 190.465L481.499 203.178L494.943 182.616H511.59L492.277 210.663L512 239.318H495.385L481.877 218.685L468.369 239.318H451.741L471.17 211.066L467.985 206.487L452.869 184.884L453.33 184.653C454.308 184.176 456.572 183.157 459.242 182.623L460.008 182.478C460.76 182.351 461.469 182.298 462.148 182.283ZM431.934 157.969C436.746 157.969 440.63 161.763 440.63 166.44C440.63 171.099 436.746 174.873 431.934 174.873C427.128 174.873 423.245 171.099 423.245 166.44C423.245 161.763 427.128 157.969 431.934 157.969Z" fill="#F58025"/>
</g>
<defs>
<clipPath id="clip0_1_10391">
<rect width="512" height="269" fill="white"/>
</clipPath>
</defs>
</svg>
