<svg width="256" height="289" viewBox="0 0 256 289" fill="none" xmlns="http://www.w3.org/2000/svg">
<g clip-path="url(#clip0_1_10413)">
<path d="M239.348 64.287L128 0L16.652 64.287C6.348 70.236 0 81.231 0 93.129V202.474C0 214.373 6.348 225.367 16.652 231.316L105.829 282.803C119.549 290.724 136.452 290.724 150.171 282.803L239.348 231.316C249.652 225.367 256 214.373 256 202.474V93.129C256 81.231 249.652 70.236 239.348 64.287ZM222.068 187.133C222.068 195.938 217.418 204.075 209.87 208.477L146.065 245.693C135.091 252.094 121.521 252.094 110.547 245.693L46.741 208.477C39.193 204.075 34.543 195.938 34.543 187.133V106.214C34.543 97.408 39.193 89.272 46.741 84.869L128.306 37.295L209.87 84.869C217.418 89.272 222.068 97.408 222.068 106.214V187.133Z" fill="#BAC4C5"/>
<path d="M160.404 110.043L159.75 110.502L129.625 142.471L129.223 143.064L129.375 143.127L160.359 143.174L160.404 143.064L189.793 115.098L160.404 110.043Z" fill="#ED1A3B"/>
<path d="M160.404 176.083L160.219 176.125L129.344 143.438L129.223 143.062H160.404L189.793 170.682L160.404 176.083Z" fill="#C2315D"/>
<path d="M129.223 143.062L160.404 176.083L158.964 201.761L129.223 172.398L129.146 172.125L129.083 143.458L129.223 143.062Z" fill="#94407E"/>
<path d="M96.206 174.243L96.167 173.939L128.833 143.294L129.227 143.062L129.223 172.4L99.693 201.763L96.206 174.243Z" fill="#577F9F"/>
<path d="M129.227 143.062L96.2059 174.243L68.6949 170.598L99.8919 143.062L100.063 142.919L128.854 142.898L129.227 143.062Z" fill="#00AEC5"/>
<path d="M129.227 143.068L128.833 142.421L96.7079 111.921L96.2059 111.887L68.6949 115.794L99.8919 143.068H129.227Z" fill="#93C483"/>
<path d="M96.2059 111.885L129.227 143.066L129.375 142.294V114.294L129.223 113.729L99.6549 84.3828L96.2059 111.885Z" fill="#FCDE11"/>
<path d="M129.223 143.064L160.404 110.043L158.638 84.3828L129.223 113.729V143.064Z" fill="#F78E36"/>
</g>
<defs>
<clipPath id="clip0_1_10413">
<rect width="256" height="289" fill="white"/>
</clipPath>
</defs>
</svg>
