<svg width="256" height="256" viewBox="0 0 256 256" fill="none" xmlns="http://www.w3.org/2000/svg">
<g clip-path="url(#clip0_1_10426)">
<path d="M246.663 143.907C247.409 138.679 247.794 133.406 247.816 128.125C247.816 96.3344 235.187 65.8456 212.707 43.366C190.228 20.8865 159.739 8.25757 127.948 8.25757C122.667 8.27979 117.395 8.66488 112.167 9.41015C82.6201 -6.51412 46.1255 -1.16496 22.3917 22.5688C-1.34208 46.3026 -6.69124 82.7972 9.23302 112.344C8.48776 117.572 8.10266 122.845 8.08045 128.125C8.08045 194.326 61.747 247.993 127.948 247.993C133.229 247.971 138.502 247.586 143.73 246.84C173.276 262.765 209.771 257.416 233.505 233.682C257.238 209.948 262.588 173.453 246.663 143.907Z" fill="white"/>
<path d="M75.9937 152.062C117.908 152.062 151.886 118.084 151.886 76.1699C151.886 34.2556 117.908 0.277344 75.9937 0.277344C34.0793 0.277344 0.101074 34.2556 0.101074 76.1699C0.101074 118.084 34.0793 152.062 75.9937 152.062Z" fill="url(#paint0_linear_1_10426)"/>
<path d="M179.903 255.973C221.817 255.973 255.795 221.994 255.795 180.08C255.795 138.166 221.817 104.188 179.903 104.188C137.988 104.188 104.01 138.166 104.01 180.08C104.01 221.994 137.988 255.973 179.903 255.973Z" fill="url(#paint1_linear_1_10426)"/>
<mask id="mask0_1_10426" style="mask-type:luminance" maskUnits="userSpaceOnUse" x="0" y="0" width="256" height="256">
<path d="M179.903 104.187C166.334 104.185 153.014 107.829 141.336 114.738C160.871 81.7961 152.835 39.4645 122.587 15.9729C92.3396 -7.51874 49.3362 -4.82614 22.255 22.255C-4.82614 49.3362 -7.51874 92.3396 15.9729 122.587C39.4645 152.835 81.7961 160.871 114.738 141.336C97.2473 170.978 101.895 208.68 126.06 233.188C150.226 257.696 187.858 262.873 217.744 245.801C247.63 228.73 262.286 193.683 253.449 160.419C244.613 127.154 214.498 104.001 180.08 104.01L179.903 104.187Z" fill="url(#paint2_radial_1_10426)"/>
</mask>
<g mask="url(#mask0_1_10426)">
<path d="M125.547 275.389C203.867 275.389 267.359 211.898 267.359 133.577C267.359 55.2568 203.867 -8.23438 125.547 -8.23438C47.2267 -8.23438 -16.2645 55.2568 -16.2645 133.577C-16.2645 211.898 47.2267 275.389 125.547 275.389Z" fill="url(#paint3_radial_1_10426)"/>
</g>
<path d="M127.948 247.993C194.149 247.993 247.816 194.327 247.816 128.126C247.816 61.9244 194.149 8.25781 127.948 8.25781C61.747 8.25781 8.08044 61.9244 8.08044 128.126C8.08044 194.327 61.747 247.993 127.948 247.993Z" fill="url(#paint4_linear_1_10426)"/>
<path d="M127.948 247.993C194.149 247.993 247.816 194.327 247.816 128.126C247.816 61.9244 194.149 8.25781 127.948 8.25781C61.747 8.25781 8.08044 61.9244 8.08044 128.126C8.08044 194.327 61.747 247.993 127.948 247.993Z" fill="url(#paint5_linear_1_10426)"/>
<path d="M84.239 113.409C81.4199 108.123 80.015 102.198 80.1607 96.2086C79.9794 88.639 82.5642 81.2629 87.4308 75.4622C92.5511 69.6853 99.0912 65.3456 106.404 62.8726C114.348 60.0695 122.716 58.6598 131.14 58.7056C136.662 58.667 142.177 59.0821 147.631 59.9468C151.518 60.5985 155.344 61.5772 159.068 62.8726C162.449 64.0405 165.493 66.0191 167.934 68.6355C169.797 70.7346 170.808 73.4538 170.771 76.2602C170.909 79.2318 169.856 82.1357 167.845 84.3282C165.966 86.3285 163.318 87.4262 160.575 87.3426C158.676 87.313 156.805 86.8904 155.078 86.1014C150.902 84.2516 146.607 82.6818 142.222 81.4024C138.143 80.335 133.937 79.828 129.721 79.8952C124.258 79.7122 118.852 81.0636 114.117 83.7962C110.058 86.2631 107.676 90.7551 107.911 95.4993C107.879 98.5288 109.023 101.453 111.103 103.656C113.647 106.28 116.652 108.414 119.969 109.951C123.604 111.724 128.835 114.118 136.282 117.132L138.587 118.019C145.62 120.699 152.363 124.085 158.713 128.126C163.772 131.405 168.042 135.766 171.214 140.893C174.333 146.271 175.898 152.41 175.736 158.625C175.987 166.238 173.779 173.73 169.441 179.992C164.989 186.015 158.802 190.531 151.709 192.936C143.321 195.928 134.458 197.37 125.554 197.192C113.38 197.596 101.268 195.294 90.0905 190.454C87.2269 189.165 84.7062 187.221 82.7318 184.779C81.178 182.478 80.3729 179.753 80.4266 176.977C80.2296 174.016 81.368 171.121 83.5297 169.087C85.7462 167.125 88.6413 166.107 91.5978 166.25C94.9034 166.297 98.1522 167.116 101.084 168.643C104.719 170.417 107.556 171.835 109.95 172.722C112.324 173.724 114.788 174.496 117.309 175.027C120.42 175.734 123.606 176.062 126.796 176.002C132.442 176.418 138.065 174.919 142.754 171.747C146.35 168.994 148.37 164.655 148.163 160.132C148.248 156.849 147.038 153.664 144.793 151.266C141.902 148.317 138.548 145.862 134.864 143.996C130.519 141.691 124.313 138.942 116.422 135.573C109.333 132.75 102.533 129.246 96.1194 125.112C91.3228 121.921 87.1423 118.384 84.239 113.409Z" fill="white"/>
</g>
<defs>
<linearGradient id="paint0_linear_1_10426" x1="6401.32" y1="88.9368" x2="8777.4" y2="15090.1" gradientUnits="userSpaceOnUse">
<stop offset="0.01" stop-color="#00B7F0"/>
<stop offset="0.34" stop-color="#009DE5"/>
<stop offset="0.76" stop-color="#0082D9"/>
<stop offset="1" stop-color="#0078D4"/>
</linearGradient>
<linearGradient id="paint1_linear_1_10426" x1="1114.73" y1="11488.1" x2="14271.8" y2="3898.81" gradientUnits="userSpaceOnUse">
<stop stop-color="#0078D4"/>
<stop offset="0.37" stop-color="#007AD5"/>
<stop offset="0.57" stop-color="#0082D9"/>
<stop offset="0.74" stop-color="#0090DF"/>
<stop offset="0.88" stop-color="#00A3E7"/>
<stop offset="1" stop-color="#00BCF2"/>
</linearGradient>
<radialGradient id="paint2_radial_1_10426" cx="0" cy="0" r="1" gradientUnits="userSpaceOnUse" gradientTransform="translate(12426.1 12789.9) scale(12805.5 12795.3)">
<stop/>
<stop offset="1" stop-opacity="0"/>
</radialGradient>
<radialGradient id="paint3_radial_1_10426" cx="0" cy="0" r="1" gradientUnits="userSpaceOnUse" gradientTransform="translate(13750.7 14172.9) scale(14187.2)">
<stop/>
<stop offset="1" stop-opacity="0"/>
</radialGradient>
<linearGradient id="paint4_linear_1_10426" x1="7304.76" y1="3873.81" x2="19291.5" y2="24637.9" gradientUnits="userSpaceOnUse">
<stop stop-color="#00B7F0"/>
<stop offset="1" stop-color="#007CC1"/>
</linearGradient>
<linearGradient id="paint5_linear_1_10426" x1="10948.7" y1="23937.5" x2="13041" y2="52.5876" gradientUnits="userSpaceOnUse">
<stop stop-color="#0078D4"/>
<stop offset="1" stop-color="#00BCF2"/>
</linearGradient>
<clipPath id="clip0_1_10426">
<rect width="256" height="256" fill="white"/>
</clipPath>
</defs>
</svg>
