<svg width="256" height="256" viewBox="0 0 256 256" fill="none" xmlns="http://www.w3.org/2000/svg">
<g clip-path="url(#clip0_1_10439)">
<path d="M53.8412 161.319C53.8412 176.151 41.8539 188.138 27.0222 188.138C12.1904 188.138 0.203125 176.151 0.203125 161.319C0.203125 146.487 12.1904 134.5 27.0222 134.5H53.8412V161.319ZM67.2507 161.319C67.2507 146.487 79.238 134.5 94.0698 134.5C108.902 134.5 120.889 146.487 120.889 161.319V228.367C120.889 243.198 108.902 255.186 94.0698 255.186C79.238 255.186 67.2507 243.198 67.2507 228.367V161.319Z" fill="#E01E5A"/>
<path d="M94.0698 53.6381C79.2381 53.6381 67.2508 41.6508 67.2508 26.819C67.2508 11.9873 79.2381 0 94.0698 0C108.902 0 120.889 11.9873 120.889 26.819V53.6381H94.0698ZM94.0698 67.2508C108.902 67.2508 120.889 79.2381 120.889 94.0698C120.889 108.902 108.902 120.889 94.0698 120.889H26.819C11.9873 120.889 0 108.902 0 94.0698C0 79.2381 11.9873 67.2508 26.819 67.2508H94.0698Z" fill="#36C5F0"/>
<path d="M201.549 94.0698C201.549 79.2381 213.537 67.2508 228.368 67.2508C243.2 67.2508 255.187 79.2381 255.187 94.0698C255.187 108.902 243.2 120.889 228.368 120.889H201.549V94.0698ZM188.14 94.0698C188.14 108.902 176.152 120.889 161.321 120.889C146.489 120.889 134.502 108.902 134.502 94.0698V26.819C134.502 11.9873 146.489 0 161.321 0C176.152 0 188.14 11.9873 188.14 26.819V94.0698Z" fill="#2EB67D"/>
<path d="M161.321 201.548C176.152 201.548 188.14 213.535 188.14 228.367C188.14 243.198 176.152 255.186 161.321 255.186C146.489 255.186 134.502 243.198 134.502 228.367V201.548H161.321ZM161.321 188.138C146.489 188.138 134.502 176.151 134.502 161.319C134.502 146.487 146.489 134.5 161.321 134.5H228.571C243.403 134.5 255.39 146.487 255.39 161.319C255.39 176.151 243.403 188.138 228.571 188.138H161.321Z" fill="#ECB22E"/>
</g>
<defs>
<clipPath id="clip0_1_10439">
<rect width="256" height="256" fill="white"/>
</clipPath>
</defs>
</svg>
