<svg width="512" height="130" viewBox="0 0 512 130" fill="none" xmlns="http://www.w3.org/2000/svg">
<g clip-path="url(#clip0_1_10445)">
<path d="M163.593 101.885L169.98 87.05C176.882 92.2009 186.051 94.8794 195.116 94.8794C201.812 94.8794 206.036 92.3039 206.036 88.3892C205.933 77.4693 165.962 86.0198 165.653 58.617C165.55 44.7095 177.912 33.9957 195.425 33.9957C205.83 33.9957 216.235 36.5711 223.652 42.4431L217.677 57.5868C210.878 53.2601 202.431 50.1695 194.395 50.1695C188.935 50.1695 185.33 52.745 185.33 56.0415C185.433 66.7554 225.713 60.8834 226.125 87.05C226.125 101.266 214.072 111.259 196.765 111.259C184.093 111.259 172.452 108.272 163.593 101.885ZM408.673 81.693L426.289 91.4798C419.696 103.327 407.128 111.259 392.602 111.259C371.277 111.259 353.97 93.9522 353.97 72.6275C353.97 51.3027 371.277 33.9957 392.602 33.9957C407.025 33.9957 419.696 42.0311 426.289 53.7751L408.673 63.5619C405.479 57.9989 399.504 54.1872 392.602 54.1872C382.403 54.1872 374.162 62.4287 374.162 72.6275C374.162 82.8262 382.403 91.0677 392.602 91.0677C399.504 91.0677 405.479 87.256 408.673 81.693ZM234.984 1.95703H257.03V109.817H234.984V1.95703ZM434.942 1.95703H456.988V65.3132L481.919 35.5409H508.909L478.107 71.3912L511.382 109.817H483.155L456.988 77.4693V109.817H434.942V1.95703ZM322.55 81.8991V63.6649C319.356 58.3079 312.763 54.1872 305.346 54.1872C295.147 54.1872 286.905 62.4287 286.905 72.6275C286.905 82.8262 295.147 91.0677 305.346 91.0677C312.763 91.0677 319.356 87.153 322.55 81.8991ZM322.55 35.5409H344.596V109.714H322.55V100.957C318.944 107.036 309.982 111.259 300.607 111.259C281.239 111.259 265.993 93.9522 265.993 72.5244C265.993 51.0967 281.239 33.9957 300.607 33.9957C309.982 33.9957 318.944 38.2194 322.55 44.2975V35.5409Z" fill="black"/>
<path d="M27.2998 81.7976C27.2998 89.3179 21.2217 95.396 13.7014 95.396C6.1811 95.396 0.103027 89.3179 0.103027 81.7976C0.103027 74.2773 6.1811 68.1992 13.7014 68.1992H27.2998V81.7976ZM34.099 81.7976C34.099 74.2773 40.1771 68.1992 47.6974 68.1992C55.2177 68.1992 61.2958 74.2773 61.2958 81.7976V115.794C61.2958 123.314 55.2177 129.392 47.6974 129.392C40.1771 129.392 34.099 123.314 34.099 115.794V81.7976Z" fill="#E01E5A"/>
<path d="M47.6974 27.1968C40.1771 27.1968 34.099 21.1187 34.099 13.5984C34.099 6.07807 40.1771 0 47.6974 0C55.2177 0 61.2958 6.07807 61.2958 13.5984V27.1968H47.6974ZM47.6974 34.099C55.2177 34.099 61.2958 40.1771 61.2958 47.6974C61.2958 55.2177 55.2177 61.2958 47.6974 61.2958H13.5984C6.07807 61.2958 0 55.2177 0 47.6974C0 40.1771 6.07807 34.099 13.5984 34.099H47.6974Z" fill="#36C5F0"/>
<path d="M102.194 47.6974C102.194 40.1771 108.272 34.099 115.792 34.099C123.313 34.099 129.391 40.1771 129.391 47.6974C129.391 55.2177 123.313 61.2958 115.792 61.2958H102.194V47.6974ZM95.3948 47.6974C95.3948 55.2177 89.3167 61.2958 81.7964 61.2958C74.2761 61.2958 68.198 55.2177 68.198 47.6974V13.5984C68.198 6.07807 74.2761 0 81.7964 0C89.3167 0 95.3948 6.07807 95.3948 13.5984V47.6974Z" fill="#2EB67D"/>
<path d="M81.7964 102.195C89.3167 102.195 95.3948 108.273 95.3948 115.794C95.3948 123.314 89.3167 129.392 81.7964 129.392C74.2761 129.392 68.198 123.314 68.198 115.794V102.195H81.7964ZM81.7964 95.396C74.2761 95.396 68.198 89.3179 68.198 81.7976C68.198 74.2773 74.2761 68.1992 81.7964 68.1992H115.895C123.416 68.1992 129.494 74.2773 129.494 81.7976C129.494 89.3179 123.416 95.396 115.895 95.396H81.7964Z" fill="#ECB22E"/>
</g>
<defs>
<clipPath id="clip0_1_10445">
<rect width="512" height="130" fill="white"/>
</clipPath>
</defs>
</svg>
