<svg width="256" height="248" viewBox="0 0 256 248" fill="none" xmlns="http://www.w3.org/2000/svg">
<g clip-path="url(#clip0_1_10452)">
<path d="M50.1996 0.09375L255.89 41.7102L214.272 247.406L8.58203 205.789L50.1996 0.09375Z" fill="#512833"/>
<path d="M24.1707 9.17578L233.053 29.4491L212.78 238.333L3.89722 218.06L24.1707 9.17578Z" fill="#934358"/>
<path d="M210.051 18.8281H0.182129V228.697H210.051V18.8281Z" fill="#E5637C"/>
<path d="M72.5691 162.919C72.5691 161.678 73.3443 159.811 74.9005 157.323C76.4536 154.837 77.853 153.593 79.0974 153.593C79.2194 153.593 80.2165 154.185 82.0819 155.365C83.9469 156.548 86.6196 157.728 90.1022 158.909C93.5823 160.092 97.7791 160.681 102.693 160.681C107.604 160.681 111.646 159.282 114.817 156.484C117.988 153.687 119.574 149.895 119.574 145.107C119.574 140.321 118.174 136.59 115.376 133.915C112.578 131.242 107.012 128.724 98.6821 126.361C90.35 124 84.3198 120.984 80.5894 117.314C76.8596 113.648 74.9936 108.081 74.9936 100.62C74.9936 93.1593 77.8525 86.9109 83.5735 81.8746C89.2913 76.8384 96.7531 74.3203 105.956 74.3203C112.298 74.3203 117.956 75.1297 122.931 76.7448C127.903 78.363 130.391 80.1669 130.391 82.1544C130.391 83.7716 129.674 85.8558 128.247 88.4029C126.815 90.9531 125.542 92.2269 124.423 92.2269C124.297 92.2269 123.49 91.8535 121.998 91.1072C117.769 88.8683 113.012 87.7497 107.729 87.7497C102.442 87.7497 98.3387 88.8399 95.4183 91.0141C92.4947 93.1909 91.0347 96.0208 91.0347 99.5009C91.0347 102.984 92.1218 105.72 94.2991 107.708C96.4733 109.699 100.175 111.503 105.397 113.117C117.084 116.725 125.011 120.671 129.179 124.961C133.344 129.252 135.428 135.719 135.428 144.36C135.428 153.005 132.35 160.121 126.194 165.717C120.039 171.313 112.671 174.111 104.091 174.111C95.5113 174.111 88.1106 172.837 81.8947 170.287C75.6763 167.74 72.5691 165.282 72.5691 162.919Z" fill="white"/>
</g>
<defs>
<clipPath id="clip0_1_10452">
<rect width="256" height="248" fill="white"/>
</clipPath>
</defs>
</svg>
