<svg width="256" height="274" viewBox="0 0 256 274" fill="none" xmlns="http://www.w3.org/2000/svg">
<path d="M50.4239 33.7479C48.9419 37.2449 47.2719 40.6769 46.0139 44.2529C42.9629 52.9289 42.1879 61.8939 42.9519 71.0409C43.5599 78.3089 44.9699 85.3729 47.7779 92.1219C51.6419 101.409 57.7159 109.027 65.4389 115.389C73.0309 121.642 81.5459 126.373 90.4259 130.491C101.6 135.672 113.183 139.8 124.801 143.846C136.913 148.063 148.872 152.666 160.221 158.708C167.958 162.827 175.252 167.582 181.456 173.851C189.176 181.65 193.801 190.939 195.199 201.881C197.031 216.227 192.869 228.621 183.318 239.289C174.237 249.432 162.795 255.705 149.78 259.257C139.743 261.997 129.532 262.593 119.211 261.391C98.8359 259.017 80.9269 250.717 64.6459 238.567C61.9229 236.534 59.3759 234.264 56.7489 232.102C56.4069 231.82 56.0829 231.514 55.7349 231.239C53.6969 229.629 51.7089 229.523 49.6429 231.086C48.5379 231.922 47.6009 232.978 46.4439 234.071C43.9649 231.82 41.3489 229.592 38.8979 227.196C21.8759 210.556 10.2199 190.763 4.13594 167.727C1.85394 159.087 0.543941 150.296 0.140941 141.364C-0.928059 117.693 4.07994 95.3929 15.3039 74.5299C23.9259 58.5049 35.5149 44.9659 49.9209 33.8429C50.0349 33.7549 50.1739 33.6999 50.3019 33.6289C50.3429 33.6679 50.3839 33.7079 50.4239 33.7479Z" fill="#729544"/>
<path d="M208.879 234.173C209.872 231.71 210.952 229.277 211.842 226.778C213.919 220.95 214.914 214.924 214.959 208.734C215.023 200.086 213.873 191.64 210.878 183.489C207.644 174.685 202.489 167.145 195.808 160.618C188.356 153.338 179.704 147.761 170.532 142.938C157.575 136.126 143.943 130.922 130.152 126.116C120.873 122.883 111.514 119.872 102.514 115.887C93.794 112.027 85.41 107.596 78.091 101.382C71.026 95.3849 65.658 88.1799 63.083 79.1919C58.324 62.5819 60.994 47.2829 71.725 33.6009C77.658 26.0359 85.341 20.7459 94.163 17.0589C101.727 13.8979 109.641 12.1989 117.788 11.4599C123.512 10.9399 129.239 10.8139 134.961 11.3269C143.467 12.0889 151.719 14.0469 159.76 16.9009C168.781 20.1019 177.374 24.1899 185.442 29.3619C186 29.7189 186.595 30.0299 187.201 30.2989C189.322 31.2389 191.275 30.9319 192.915 29.2979C193.766 28.4499 194.451 27.4349 195.322 26.3579C197.468 27.7979 199.733 29.2449 201.921 30.7989C217.262 41.6979 229.65 55.3029 239.038 71.6059C246.238 84.1059 251.148 97.4669 253.792 111.661C255.471 120.673 256.221 129.76 255.943 138.914C255.445 155.344 252.004 171.138 245.438 186.229C238.636 201.859 229.08 215.585 216.823 227.417C214.329 229.825 211.609 232.001 208.993 234.284C208.956 234.246 208.917 234.209 208.879 234.173Z" fill="#93BD5A"/>
</svg>
