<svg width="256" height="256" viewBox="0 0 256 256" fill="none" xmlns="http://www.w3.org/2000/svg">
<g clip-path="url(#clip0_1_10467)">
<path d="M255.477 190.568L213.382 14.5303C210.951 4.36232 200.738 -1.90768 190.571 0.523319L154.312 9.19332C163.554 10.6513 181.864 14.6553 202.031 25.2353L186.243 68.9923C186.243 68.9923 173.102 54.3153 137.868 52.5303C104.374 50.8343 85.7426 87.0693 151.07 108.432C201.083 124.787 217.082 156.313 216.253 185.468C215.821 200.628 210.517 212.957 204.371 222.252L241.471 213.383C251.638 210.952 257.908 200.737 255.477 190.568ZM113.619 145.884C79.6096 133.036 51.0426 110.091 49.1456 80.2263C47.9366 61.1763 52.7346 44.5313 65.1296 30.5183L14.5306 42.6183C4.36358 45.0493 -1.90842 55.2623 0.523584 65.4303L42.6186 241.47C45.0496 251.636 55.2626 257.908 65.4296 255.476L87.0936 250.296C78.6846 247.509 64.1476 242.202 50.2126 234.771L70.4106 188.952C70.4106 188.952 94.1816 210.12 128.315 210.12C162.448 210.12 177.617 170.061 113.619 145.884Z" fill="#EF4D37"/>
<path d="M49.1458 80.227C48.1048 63.833 51.4978 49.213 60.3648 36.524L15.6298 47.222C8.01879 49.041 3.30479 56.717 5.12479 64.33L29.3138 165.482C36.9388 156.063 55.2418 136.686 81.6848 129.421C63.2858 116.65 50.3988 99.949 49.1458 80.227ZM208.78 15.629C206.96 8.01903 199.285 3.30503 191.67 5.12503L165.354 11.418C175.13 13.783 188.138 17.948 202.031 25.236L186.243 68.993C186.243 68.993 173.102 54.316 137.868 52.531C104.374 50.835 85.7428 87.07 151.07 108.433C168.181 114.029 181.309 121.402 191.145 129.849C191.527 129.717 191.908 129.603 192.29 129.463C205.009 124.809 217.213 108.175 226.165 88.33L208.78 15.629Z" fill="url(#paint0_radial_1_10467)"/>
</g>
<defs>
<radialGradient id="paint0_radial_1_10467" cx="0" cy="0" r="1" gradientUnits="userSpaceOnUse" gradientTransform="translate(10917.2 6960.98) scale(14544.3 10558.4)">
<stop stop-color="#F8953E"/>
<stop offset="1" stop-color="#F36E3E"/>
</radialGradient>
<clipPath id="clip0_1_10467">
<rect width="256" height="256" fill="white"/>
</clipPath>
</defs>
</svg>
