<svg width="512" height="116" viewBox="0 0 512 116" fill="none" xmlns="http://www.w3.org/2000/svg">
<g clip-path="url(#clip0_1_10481)">
<path d="M316.715 36.198L316.7 36.1889C316.7 36.1889 316.692 36.183 316.682 36.183C316.335 36.0325 315.954 35.9543 315.587 35.9543C314.994 35.9585 314.424 36.134 313.928 36.4417C313.422 36.7594 312.993 37.2227 312.748 37.8025V37.8166L301.161 69.2427L292.231 48.1786L292.218 48.1694C291.967 47.5806 291.517 47.1256 291.007 46.8087C290.491 46.491 289.897 46.3163 289.272 46.3163C288.664 46.3163 288.098 46.5051 287.597 46.8128C287.105 47.1297 286.66 47.5806 286.41 48.1694L286.404 48.1786L277.456 69.2561L265.808 37.844H265.798C265.595 37.2369 265.181 36.7636 264.69 36.4509C264.189 36.134 263.604 35.9585 263.001 35.9543C262.617 35.9543 262.227 36.0325 261.86 36.183H261.842L261.829 36.198C260.742 36.6995 260.079 37.775 260.075 38.9469C260.075 39.3154 260.149 39.6822 260.292 40.0457H260.288L274.617 78.1749V78.1883C274.728 78.4727 274.885 78.7538 275.118 79.03C275.285 79.2271 275.532 79.3935 275.786 79.5315C275.833 79.5765 275.907 79.6405 276.018 79.7095C276.138 79.7836 276.292 79.8351 276.449 79.8617C276.704 79.9458 277.043 80.068 277.497 80.068C278.077 80.068 278.615 79.8617 279.098 79.554C279.548 79.2554 279.951 78.8087 280.174 78.2298L280.211 78.2024L289.272 56.7373L298.344 78.1151H298.354C298.563 78.6848 298.93 79.1315 299.356 79.4484C299.807 79.7836 300.311 79.9907 300.846 80.068H301.226C301.588 80.068 301.94 79.9998 302.236 79.885C302.548 79.7661 302.799 79.6089 303.007 79.4534C303.494 79.0849 303.87 78.5792 304.102 78.0177V78.0053L318.339 40.0457C318.478 39.6822 318.551 39.3196 318.551 38.9528C318.548 37.7891 317.856 36.6813 316.715 36.198ZM251.214 57.9658C251.214 53.4885 249.479 49.4329 246.72 46.5051C243.945 43.5715 240.187 41.7782 236.106 41.7782C232.023 41.7782 228.257 43.5715 225.487 46.5051C222.722 49.4329 220.987 53.4885 220.987 57.9658C220.987 62.439 222.722 66.4564 225.487 69.3658C228.257 72.2861 232.023 74.0511 236.106 74.0511C240.187 74.0511 243.958 72.2861 246.72 69.3658C249.479 66.4564 251.214 62.439 251.214 57.9658ZM251.135 42.422C254.967 46.4494 257.295 51.9755 257.305 57.9658C257.295 63.9561 254.967 69.4765 251.135 73.5047C247.332 77.5262 242.02 80.0689 236.115 80.0689C230.255 80.0689 224.935 77.5262 221.118 73.5047C217.295 69.4765 214.929 63.9561 214.929 57.9658C214.929 51.9755 217.295 46.4494 221.118 42.422C224.935 38.4038 230.255 35.862 236.115 35.862C242.02 35.862 247.332 38.4038 251.135 42.422ZM190.807 35.9402C186.056 35.9402 181.72 37.775 178.482 40.7028V38.9528C178.477 38.1476 178.175 37.3974 177.646 36.8459C177.132 36.3036 176.37 35.9402 175.536 35.9402C174.672 35.9402 173.893 36.2845 173.351 36.8409C172.817 37.3882 172.498 38.1476 172.498 38.9528V77.9687L172.623 78.0918L172.628 78.1109C172.66 78.2398 172.743 78.3821 172.831 78.5193C173.244 79.2413 173.921 79.7886 174.76 80.0314L174.881 80.0689H175.536C175.972 80.0689 176.412 79.9774 176.83 79.7836C177.178 79.618 177.502 79.3519 177.762 79.0117L177.772 79.0159C177.804 78.9842 177.814 78.9426 177.851 78.911C177.865 78.9061 177.878 78.8919 177.887 78.8778C178.049 78.6715 178.185 78.4602 178.268 78.2623C178.357 78.0277 178.412 77.8065 178.454 77.6368L178.482 77.5262V54.099C178.57 50.7479 179.961 47.7186 182.193 45.5161C184.41 43.3153 187.448 41.9537 190.807 41.9537C194.222 41.9537 197.268 43.3153 199.477 45.5161C201.694 47.7103 203.039 50.7346 203.039 54.0674V77.072C203.039 77.9121 203.401 78.6898 203.949 79.223C204.51 79.7553 205.275 80.0689 206.073 80.0689C206.885 80.0689 207.646 79.7553 208.203 79.223C208.768 78.6898 209.112 77.9121 209.112 77.072V54.0674C209.112 44.1379 200.929 35.9543 190.807 35.9402ZM489.842 53.6989C488.116 46.7621 481.969 41.8198 474.956 41.8339C467.765 41.8339 461.703 46.6706 459.824 53.6989H489.842ZM496.488 56.541V56.8388C496.488 57.6714 496.113 58.4208 495.543 58.9132C494.977 59.4089 494.24 59.6668 493.446 59.6759H459.402C460.269 67.9086 466.901 73.9879 474.821 74.0511H476.829C479.45 74.0603 482.002 73.1636 484.247 71.679C486.496 70.2084 488.44 68.1531 489.809 65.8908C490.091 65.4084 490.496 65.0407 490.935 64.8153C491.386 64.5716 491.869 64.461 492.355 64.461C492.893 64.461 493.427 64.5991 493.896 64.8794L493.928 64.8935L493.965 64.9209C494.819 65.5414 495.353 66.4888 495.353 67.5285C495.353 68.0567 495.214 68.5948 494.921 69.0814L494.912 69.1005L494.903 69.1088C493 72.1073 490.407 74.8421 487.327 76.8242C484.242 78.8096 480.666 80.0689 476.829 80.0689H474.788C468.814 80.0273 463.414 77.5262 459.522 73.5271C455.638 69.5413 453.246 64.0659 453.246 58.049C453.246 51.9298 455.658 46.3762 459.574 42.358C463.489 38.3448 468.929 35.862 474.956 35.862C480.708 35.862 485.875 38.1285 489.702 41.839C493.53 45.5486 496.03 50.7013 496.476 56.4986L496.488 56.541ZM356.845 17.7031C356.016 17.7031 355.254 18.0483 354.708 18.5906C354.159 19.1288 353.813 19.8873 353.813 20.7099V77.072C353.813 77.8946 354.159 78.6482 354.708 79.1822C355.254 79.7145 356.016 80.0689 356.845 80.0689C358.566 80.0689 359.958 78.7264 359.968 77.072V20.7099C359.958 19.0506 358.566 17.7031 356.845 17.7031ZM158.46 56.8895C156.01 55.745 153.232 54.8992 150.459 53.9892C147.907 53.1342 145.318 52.4072 143.471 51.4515C142.544 50.9591 141.82 50.4401 141.352 49.8562C140.874 49.2732 140.642 48.6793 140.628 47.87C140.633 46.7621 140.958 45.8705 141.505 45.0795C142.335 43.8984 143.727 42.9785 145.248 42.3846C146.751 41.7891 148.38 41.5079 149.544 41.5079C152.986 41.5129 155.162 42.6483 156.832 43.8244C157.657 44.4182 158.354 45.0196 159.013 45.5161C159.351 45.774 159.666 46.0085 160.033 46.1824C160.38 46.3529 160.789 46.491 161.234 46.491C161.517 46.491 161.801 46.4402 162.059 46.3304C162.333 46.2206 162.57 46.0634 162.798 45.8705C163.02 45.6642 163.211 45.4155 163.345 45.1394C163.466 44.8541 163.521 44.5605 163.521 44.271C163.521 43.737 163.349 43.2363 163.103 42.7664C162.644 41.9396 161.938 41.1494 161.039 40.3584C159.703 39.1815 157.941 38.0595 156.043 37.2144C154.14 36.3685 152.1 35.7929 150.156 35.7929C145.652 35.7929 141.89 36.8043 139.157 38.6675C137.733 39.6415 136.481 40.7078 135.595 42.1791C134.695 43.6547 134.194 45.4754 134.129 47.8426C134.125 47.9482 134.125 48.0538 134.125 48.1595C134.116 50.4584 134.862 52.3532 136.035 53.837C137.817 56.0719 140.462 57.4094 143.055 58.3568C145.643 59.3033 148.231 59.8689 149.864 60.4112C152.165 61.1697 154.61 61.9923 156.391 63.0819C157.278 63.6384 157.996 64.2364 158.484 64.8935C158.957 65.5697 159.225 66.2676 159.235 67.1509V67.2158C159.23 68.4933 158.851 69.4956 158.224 70.3548C157.278 71.6332 155.705 72.5706 154.034 73.1636C152.37 73.7434 150.639 73.9879 149.525 73.9879C145.596 73.9879 142.967 73.0488 141.06 72.1073C140.104 71.6332 139.329 71.1641 138.629 70.7682C138.281 70.5802 137.956 70.4055 137.613 70.2675C137.279 70.1302 136.922 70.0412 136.519 70.0412C136.273 70.0412 136.004 70.0836 135.757 70.1793C135.507 70.2858 135.28 70.433 135.089 70.6118C134.825 70.8663 134.593 71.15 134.431 71.4768C134.274 71.8037 134.194 72.1481 134.194 72.5065C134.194 73.0954 134.416 73.6336 134.733 74.1201C135.229 74.823 135.957 75.4534 136.866 76.0831C137.803 76.7036 138.922 77.3157 140.211 77.9179C143.069 79.2554 146.733 79.9541 149.517 79.9998H149.525C153.854 79.9998 157.592 79.0117 160.742 76.7136V76.7077H160.747C163.827 74.4096 165.743 70.9936 165.743 67.1367C165.743 65.0174 165.242 63.22 164.366 61.7495C163.044 59.5195 160.895 58.049 158.46 56.8895ZM402.594 57.9658C402.594 53.4461 400.873 49.3963 398.122 46.4735C395.375 43.5582 391.604 41.789 387.48 41.7791C383.388 41.7791 379.632 43.5582 376.857 46.4735C374.102 49.3963 372.358 53.4461 372.358 57.9658C372.358 62.4806 374.102 66.5038 376.857 69.4033C379.617 72.3044 383.388 74.0511 387.48 74.0511C391.613 74.0511 395.384 72.3044 398.131 69.4132C400.873 66.5038 402.594 62.4847 402.594 57.9658ZM407.752 36.6995C408.314 37.2369 408.661 38.0146 408.661 38.8546V77.072C408.661 77.8946 408.305 78.6482 407.772 79.1822C407.223 79.7145 406.467 80.0689 405.632 80.0689C404.798 80.0689 404.032 79.7145 403.494 79.1822C402.946 78.6482 402.594 77.8946 402.594 77.072V73.3433C398.775 77.4305 393.414 80.0689 387.48 80.0689C381.575 80.0689 376.259 77.5545 372.45 73.5271C368.629 69.5189 366.29 63.9969 366.29 57.9658C366.29 51.9348 368.629 46.4078 372.45 42.3954C376.259 38.3722 381.575 35.862 387.48 35.862C393.41 35.862 398.775 38.4238 402.594 42.4911V38.8546C402.594 38.0146 402.942 37.2369 403.503 36.6995C404.064 36.1706 404.821 35.862 405.632 35.862C406.435 35.862 407.201 36.1706 407.752 36.6995ZM450.583 40.5747C451.186 39.9816 451.515 39.1948 451.515 38.4138C451.515 37.6461 451.186 36.8775 450.578 36.3211H450.583C450.578 36.3036 450.564 36.3036 450.564 36.3036C450.56 36.2895 450.55 36.2845 450.55 36.2845H450.541C449.957 35.7148 449.205 35.402 448.43 35.402C447.646 35.402 446.882 35.7256 446.297 36.3036L422.578 59.2118V20.7099C422.578 19.0506 421.177 17.7031 419.455 17.7031C418.626 17.7031 417.866 18.0483 417.323 18.5906C416.784 19.1288 416.422 19.8873 416.422 20.7099V77.072C416.422 77.8946 416.784 78.6482 417.323 79.1822C417.866 79.7145 418.626 80.0689 419.455 80.0689C421.177 80.0689 422.578 78.7264 422.578 77.072V67.7714L430.302 60.1267L446.047 78.9518C446.343 79.3843 446.747 79.6821 447.145 79.8393C447.6 80.0098 448.042 80.0689 448.434 80.0689C448.977 80.0689 449.744 79.9541 450.417 79.4301L450.454 79.4076L450.494 79.3652C451.124 78.7497 451.482 77.9312 451.482 77.0945C451.482 76.3908 451.219 75.6739 450.732 75.1V75.0908L434.704 55.7816L450.569 40.5747H450.583ZM344.33 17.837H343.653C343.564 17.837 343.477 17.8462 343.383 17.8495C343.3 17.8462 343.211 17.837 343.124 17.837C341.375 17.837 339.677 18.0342 338.09 18.5582C336.526 19.073 335.085 19.9239 333.967 21.2156L333.962 21.2106L333.958 21.2156V21.2198C332.803 22.4932 332.041 24.0153 331.578 25.7445C331.114 27.4821 330.923 29.44 330.905 31.6649V35.9734H326.112C324.448 35.9826 323.126 37.3017 323.126 38.897C323.117 39.7562 323.454 40.5472 324.003 41.1178C324.555 41.6784 325.31 42.0461 326.149 42.0918H330.905V77.1452L330.9 77.2276C330.9 78.0502 331.248 78.8087 331.81 79.3519C332.365 79.885 333.146 80.2019 333.995 80.2019C335.609 80.1936 336.935 78.8878 336.94 77.2276V42.0918H342.093C342.924 42.0461 343.69 41.7009 344.238 41.1444C344.799 40.5888 345.142 39.8078 345.142 38.9611V38.8471C345.123 37.2693 343.791 35.9734 342.126 35.9734H336.94V31.6832C336.973 29.7852 337.172 28.3645 337.46 27.3307C337.738 26.291 338.119 25.6381 338.461 25.2338C338.796 24.8753 339.231 24.5759 339.942 24.3364C340.656 24.1076 341.644 23.9604 342.981 23.9604H343.138C343.216 23.9604 343.3 23.9463 343.374 23.9463C343.467 23.9463 343.555 23.9604 343.653 23.9604H344.042H344.33C346.041 23.9604 347.42 22.5905 347.42 20.8979C347.42 19.2069 346.041 17.837 344.33 17.837ZM512 35.9019C512 39.8536 509.331 43.1515 504.873 43.1515C500.445 43.1515 497.808 39.822 497.808 35.9019C497.808 31.9502 500.445 28.6515 504.873 28.6515C509.331 28.6515 512 31.9502 512 35.9019ZM510.587 35.9019C510.587 32.5416 508.326 29.989 504.873 29.989C501.481 29.989 499.22 32.416 499.22 35.9019C499.22 39.2306 501.481 41.8132 504.873 41.8132C508.326 41.8132 510.587 39.2622 510.587 35.9019ZM502.077 32.6339H505.123C506.787 32.6339 507.886 33.5364 507.886 34.9362C507.886 35.8079 507.447 36.4608 506.787 36.8659L507.981 38.5768V38.9195H506.253L505.092 37.2701H503.742V38.9195H502.077V32.6339ZM505.092 34.1594H503.742V35.8079H505.092C505.72 35.8079 506.128 35.5276 506.128 34.9994C506.128 34.4388 505.751 34.1594 505.092 34.1594Z" fill="#29B5E8"/>
<path d="M45.4806 73.1552C49.1474 73.4156 52.0591 76.3951 52.184 80.0667L52.1882 80.3125V108.494C52.1882 112.466 48.9359 115.684 44.9426 115.684C41.0118 115.684 37.8204 112.596 37.6917 108.736L37.6877 108.494V92.7297L23.8872 100.619C20.4268 102.614 16.0012 101.433 13.992 98.003C12.0345 94.6369 13.1264 90.3426 16.4227 88.2993L16.6408 88.1692L41.2732 74.0935C42.5959 73.3299 44.0663 73.0355 45.4806 73.1552ZM74.6198 73.937L74.9053 74.0935L99.5327 88.1692C103.003 90.1554 104.181 94.5637 102.186 98.003C100.229 101.36 95.9433 102.563 92.5137 100.742L92.2913 100.619L78.5 92.7297V108.494C78.5 112.466 75.2578 115.684 71.2452 115.684C67.3144 115.684 64.131 112.596 64.0027 108.736L63.9987 108.494V80.3125C63.9987 76.5288 66.9497 73.4214 70.7064 73.1552C72.0156 73.044 73.3734 73.29 74.6198 73.937ZM10.656 37.3998L10.879 37.5221L35.493 51.607C37.2236 52.5959 38.3785 54.1646 38.8661 55.9205C39.0281 56.4861 39.1019 57.0508 39.1305 57.6164C39.1489 58.3974 39.0465 59.1884 38.8006 59.9561C38.31 61.5319 37.2773 62.9445 35.7648 63.8947L35.493 64.0575L10.879 78.1516C7.40434 80.1337 2.97455 78.9609 0.980388 75.5316C-0.986129 72.1573 0.105611 67.8843 3.41053 65.838L3.6292 65.7077L17.3835 57.846L3.6292 49.9626C0.154524 47.9756 -1.03308 43.5905 0.980388 40.1571C2.93212 36.7918 7.21694 35.5912 10.656 37.3998ZM115.207 40.1571C117.216 43.5905 116.028 47.9756 112.554 49.9626L98.7992 57.846L112.554 65.7077C116.028 67.6981 117.216 72.0839 115.207 75.5316C113.203 78.9609 108.769 80.1337 105.308 78.1516L80.6755 64.0575C79.033 63.1101 77.8924 61.6246 77.3863 59.9561C77.1454 59.1884 77.0338 58.3974 77.0615 57.6164C77.0757 57.0508 77.1588 56.4861 77.3166 55.9205C77.8093 54.1646 78.9642 52.5968 80.6755 51.607L105.308 37.5221C108.769 35.54 113.203 36.7186 115.207 40.1571ZM59.5924 44.404C60.0096 44.404 60.5845 44.6386 60.8774 44.9372L71.1151 55.0696C71.4072 55.359 71.6438 55.9338 71.6438 56.348V59.3356C71.6438 59.7407 71.4072 60.3146 71.1151 60.5999L60.8774 70.7332C60.5845 71.0309 60.0188 71.2746 59.5924 71.2746H56.5819C56.1681 71.2746 55.5932 71.0309 55.2961 70.7332L45.0634 60.5999C44.7705 60.3146 44.5338 59.7407 44.5338 59.3356V56.348C44.5338 55.9338 44.7705 55.359 45.0634 55.0696L55.2961 44.9372C55.5932 44.6386 56.1681 44.404 56.5819 44.404H59.5924ZM58.1438 53.0517H58.0288C57.6159 53.0517 57.041 53.2913 56.7531 53.5799L53.7887 56.5044C53.4916 56.8071 53.2642 57.3777 53.2642 57.7869V57.9017C53.2642 58.3059 53.4916 58.8715 53.7887 59.166L56.7531 62.0987C57.0452 62.3882 57.6159 62.6269 58.0288 62.6269H58.1438C58.5576 62.6269 59.1333 62.3882 59.4254 62.0987L62.3898 59.166C62.6819 58.8715 62.932 58.3059 62.932 57.9017V57.7869C62.932 57.3777 62.6819 56.8071 62.3898 56.5044L59.4254 53.5799C59.1333 53.2913 58.5576 53.0517 58.1438 53.0517ZM71.2452 0C75.1759 0 78.3674 3.08884 78.496 6.93815L78.5 7.1797V22.9489L92.2913 15.0506C95.7567 13.0652 100.187 14.243 102.186 17.6756C104.138 21.0507 103.052 25.3277 99.7511 27.371L99.5327 27.5011L74.9053 41.5902C73.5826 42.3446 72.1164 42.6432 70.7064 42.5276C67.0313 42.2591 64.1274 39.2746 64.0029 35.6067L63.9987 35.3612V7.1797C63.9987 3.21889 67.2325 0 71.2452 0ZM44.9426 0C48.8544 0 52.0551 3.08884 52.1841 6.93815L52.1882 7.1797V35.3612C52.1882 39.1407 49.2288 42.2531 45.4806 42.5276C44.1674 42.6349 42.8057 42.3851 41.5588 41.7449L41.2732 41.5902L16.6408 27.5011C13.1753 25.514 11.9919 21.124 13.992 17.6756C15.9585 14.316 20.2396 13.1163 23.6651 14.9281L23.8872 15.0506L37.6877 22.9489V7.1797C37.6877 3.21889 40.9299 0 44.9426 0Z" fill="#29B5E8"/>
</g>
<defs>
<clipPath id="clip0_1_10481">
<rect width="512" height="116" fill="white"/>
</clipPath>
</defs>
</svg>
