<svg width="256" height="419" viewBox="0 0 256 419" fill="none" xmlns="http://www.w3.org/2000/svg">
<g clip-path="url(#clip0_1_10488)">
<path d="M217.619 99.4084C209.09 72.9531 189.698 35.7764 186.935 30.544L184.529 25.97C182.159 21.25 180.39 17.869 179.723 16.607L170.985 0L158.468 88.948L158.032 92.1831C148.673 91.65 138.711 91.3435 128.173 91.3435C117.575 91.3435 107.554 91.6535 98.1388 92.1922L97.7526 88.946L93.3596 57.767C93.3656 57.715 85.2166 0 85.2166 0L76.2946 16.607C75.4866 18.134 73.0516 22.761 69.8826 29.112L69.1126 30.544C66.3439 35.7813 46.766 73.0235 38.1827 99.4835C13.423 104.266 0 109.382 0 109.382V325.599L127.999 418.319L256 325.599V109.382C256 109.382 242.535 104.213 217.619 99.4084Z" fill="white"/>
<path d="M183.074 267.279H127.9V172.809L71.9175 264.517L63.2135 358.689L127.038 405.307L127.9 405.938L193.173 358.353L183.074 267.279Z" fill="#3B3B63"/>
<path d="M126.954 404.968L8.17944 318.859V118.062C8.17944 118.062 52.0975 101.309 127.115 101.309C202.134 101.309 245.731 118.062 245.731 118.062V318.859L126.954 404.968Z" fill="#DBDBDB"/>
<path d="M128.675 101.309C128.62 101.309 128.567 101.311 128.512 101.311V404.963H128.514L247.291 318.854V118.062C247.291 118.062 203.693 101.309 128.675 101.309Z" fill="#C6C6C6"/>
<path d="M192.847 358.157L182.767 267.277H127.591V405.725L192.847 358.157Z" fill="#3B3B63"/>
<path d="M63.2133 358.685L127.9 405.934V172.805L71.9173 264.513L63.2133 358.685Z" fill="#53537A"/>
<path d="M155.74 331.84C155.74 347.422 141.425 355.146 128.293 355.146C115.161 355.146 100.557 347.422 100.557 331.84" fill="#BC9375"/>
<path d="M147.692 323.012C147.692 341.286 138.015 346.185 128.148 346.185C118.282 346.185 108.602 341.286 108.602 323.012" fill="#073251"/>
<path d="M128.147 339.901C117.604 339.901 112.478 332.037 112.478 315.871H117.505C117.505 334.797 124.691 334.797 128.147 334.797C131.602 334.797 138.789 334.797 138.789 315.871H143.815C143.815 332.037 138.688 339.901 128.147 339.901Z" fill="white"/>
<path d="M211.832 129.624C211.832 109.91 179.062 47.8828 179.062 47.8828L167.977 126.547L158.028 143.154L128.209 144.387L128.091 144.631V144.387L98.2682 143.154L88.3222 126.547L77.2372 47.8828C77.2372 47.8828 44.4642 109.91 44.4642 129.624L58.3092 167.503C58.3092 167.503 51.3222 231.13 54.5122 239.46C57.6922 247.792 79.7822 275.655 79.7822 275.655C79.7822 275.655 79.7162 299.079 85.7642 315.919C90.0792 327.945 99.5862 332.823 108.689 332.823C122.633 332.823 128.088 319.817 128.088 319.817C128.088 319.817 133.674 332.823 147.618 332.823C156.719 332.823 166.217 327.953 170.542 315.919C176.583 299.086 176.522 275.655 176.522 275.655C176.522 275.655 198.607 247.792 201.793 239.46C204.981 231.128 197.993 167.503 197.993 167.503L211.832 129.624Z" fill="#C49A7E"/>
<path d="M128.147 144.511L128.09 144.629V144.386L98.2662 143.154L88.3212 126.546L77.2322 47.8828C77.2322 47.8828 44.4622 109.91 44.4622 129.624L58.3042 167.503C58.3042 167.503 51.3192 231.129 54.5042 239.46C57.6912 247.792 79.7722 275.655 79.7722 275.655C79.7722 275.655 79.7152 299.079 85.7562 315.919C90.0772 327.945 99.5852 332.823 108.68 332.823C122.631 332.823 128.086 319.817 128.086 319.817C128.086 319.817 128.111 319.863 128.149 319.948V144.511H128.147Z" fill="#D8B7A0"/>
<path d="M198.291 171.229C195.751 165.825 199.362 153.038 199.362 153.038C178.668 131.473 173.493 86.5039 173.493 86.5039C169.629 100.674 161.231 142.453 161.231 142.453C161.231 142.453 145.786 136.605 128.216 136.577H128.154H128.085C127.12 136.582 126.169 136.607 125.219 136.638V312.929L126.531 314.882V313.917H127.342V314.882L127.35 313.917H128.952H129.771V314.882L144.076 293.646L147.186 234.013L164.996 254.667L187.94 261.481C187.94 261.481 196.524 255.26 196.524 255.283C200.169 250.095 201.378 245.675 202.259 243.382C205.446 235.038 198.291 171.229 198.291 171.229Z" fill="#3B3B63"/>
<path d="M128.307 136.578C128.284 136.578 128.266 136.576 128.246 136.576V136.578C110.67 136.608 95.2234 142.452 95.2234 142.452C95.2234 142.452 86.8224 100.675 82.9614 86.5039C82.9614 86.5039 77.7894 131.473 57.0924 153.038C57.0924 153.038 60.7034 165.826 58.1634 171.229C58.1634 171.229 51.0084 235.041 54.1954 243.372C55.0754 245.667 56.2934 250.084 59.9334 255.273C59.9334 255.249 68.5224 261.472 68.5224 261.472L91.4614 254.657L109.268 234.006L112.386 293.639L126.683 314.875V313.91H127.502H128.305V136.578H128.307Z" fill="#53537A"/>
<path d="M169.779 211.145H149.675H142.975V211.432C142.975 220.939 151.069 228.64 160.563 228.64C170.06 228.64 178.154 220.937 178.154 211.432V211.145H169.779Z" fill="#333152"/>
<path d="M149.676 211.145V211.432C149.676 217.087 154.158 221.669 159.73 221.669C165.301 221.669 169.781 217.087 169.781 211.432V211.145H149.676Z" fill="white"/>
<path d="M162.831 211.145H158.12C158.074 211.145 158.035 211.168 157.994 211.177C158.578 211.301 158.902 212.646 158.776 213.542C158.588 214.91 157.439 215.86 156.124 215.883C156.507 217.672 157.943 219.11 159.851 219.383C162.288 219.733 164.54 218.036 164.886 215.563C165.134 213.742 164.272 211.145 162.831 211.145Z" fill="#333152"/>
<path d="M105.076 211.145H84.976H78.274V211.432C78.274 220.939 86.369 228.64 95.862 228.64C105.359 228.64 113.454 220.937 113.454 211.432V211.145H105.076Z" fill="#333152"/>
<path d="M84.9756 211.145V211.432C84.9756 217.087 89.4606 221.669 95.0246 221.669C100.598 221.669 105.078 217.087 105.078 211.432V211.145H84.9756Z" fill="white"/>
<path d="M98.1306 211.145H93.4146C93.3736 211.145 93.3296 211.168 93.2916 211.177C93.8746 211.301 94.1966 212.646 94.0736 213.542C93.8846 214.91 92.7426 215.86 91.4186 215.883C91.8066 217.672 93.2426 219.11 95.1466 219.383C97.5826 219.733 99.8396 218.036 100.181 215.563C100.433 213.742 99.5716 211.145 98.1306 211.145Z" fill="#333152"/>
<path d="M167.758 203.03C168.883 201.778 178.438 190.77 165.659 190.77C154.112 190.77 145.804 200.23 143.602 203.03H167.758Z" fill="#C49A7E"/>
<path d="M112.638 203.03C110.438 200.23 102.13 190.77 90.5794 190.77C77.8074 190.77 87.3624 201.778 88.4814 203.03H112.638Z" fill="#D8B7A0"/>
<path d="M72.109 211.042H120.991V206.375H72.109V211.042Z" fill="#53537A"/>
<path d="M199.176 144.865C184.963 124.577 180.504 91.5952 180.117 88.5812L182.71 70.1962C193.264 92.0022 204.337 117.881 205.096 128.681L199.176 144.865ZM195.546 237.158C193.605 242.222 180.201 260.315 171.297 271.548L169.812 273.431L169.819 275.835C169.819 276.052 169.812 298.229 164.242 313.749C160.215 324.966 151.27 326.178 147.616 326.178C138.364 326.178 134.371 317.567 134.231 317.256L133.702 309.19H122.455L121.947 317.21C121.787 317.575 117.892 326.156 108.686 326.156C105.024 326.156 96.0822 324.957 92.0522 313.74C86.5002 298.275 86.4742 276.052 86.4742 275.826L86.4822 273.423L84.9972 271.548C76.0982 260.323 62.6932 242.23 60.8002 237.289C59.2872 231.945 61.7852 197.384 64.9652 168.423L65.1402 166.816L62.6312 159.958C71.2512 150.782 77.3002 138.154 81.4732 126.133L81.8792 129.059L95.5702 151.902L100.919 149.57C101.054 149.512 114.771 143.586 128.091 143.586C141.327 143.586 155.27 149.517 155.401 149.575L160.742 151.887L174.417 129.054L174.953 125.241C179.082 137.38 185.125 150.234 193.786 159.614L191.159 166.811L191.334 168.417C194.512 197.384 197.01 231.945 195.546 237.158ZM119.806 337.403C121.596 336.594 123.212 335.631 124.637 334.572C125.939 334.96 127.188 334.96 128.147 334.96C129.101 334.96 130.337 334.969 131.63 334.58C133.058 335.631 134.677 336.594 136.467 337.403C134.222 339.107 131.458 340.065 128.154 340.065C124.831 340.065 122.054 339.114 119.806 337.403ZM128.293 351.912C120.937 351.912 110.477 348.582 107.875 339.755C108.141 339.763 108.403 339.786 108.675 339.786C110.096 339.786 111.429 339.654 112.717 339.468C116.448 344.742 122.26 346.36 128.149 346.36C134.047 346.36 139.871 344.757 143.608 339.474C144.888 339.652 146.206 339.786 147.616 339.786C147.893 339.786 148.159 339.763 148.436 339.755C145.859 348.582 135.539 351.912 128.293 351.912ZM51.2062 128.679C51.9652 117.879 63.0312 92.0022 73.5872 70.1942L76.4012 90.1342C75.3282 97.5892 70.4242 126.827 57.2692 145.257L51.2062 128.679ZM218.364 129.787C218.364 108.965 188.314 51.3362 184.881 44.8332L175.274 26.5742L161.512 124.368L155.16 134.99C149.028 132.899 138.592 129.981 128.083 129.981C117.586 129.981 107.22 132.889 101.114 134.983L94.7592 124.366L89.9292 90.0862C89.9352 90.0292 89.9432 89.9532 89.9432 89.9182L89.9062 89.9132L80.9762 26.5742L71.1662 44.8332C67.7282 51.3362 37.4382 108.965 37.4382 129.787V131.009L51.3082 168.52C49.0902 188.972 44.8562 233.398 48.1822 242.081C50.2542 247.51 58.2302 258.72 64.9762 267.705L55.8902 353.692L68.4002 362.654L75.0122 300.104C75.9622 306.187 77.3642 312.611 79.4452 318.414C82.3142 326.411 87.3852 332.464 93.8762 336.056C94.2622 355.2 111.784 365.524 128.293 365.524C144.665 365.524 162.042 355.192 162.422 336.041C168.899 332.456 173.964 326.402 176.83 318.414C178.997 312.379 180.418 305.657 181.364 299.363L188.015 362.139L200.526 352.859L191.462 267.446C198.155 258.501 205.981 247.455 208.034 242.086C211.359 233.405 206.954 188.972 204.739 168.523L218.362 131.007V129.787H218.364Z" fill="#333152"/>
<path d="M143.921 285.82H112.478C112.478 285.82 108.249 293.303 108.249 295.732C108.249 302.943 127.602 314.424 127.602 314.424C127.602 314.424 148.045 302.601 148.045 295.732C148.045 292.455 143.921 285.82 143.921 285.82Z" fill="#333152"/>
<path d="M137.861 307.805C136.107 304.648 133.844 304.072 132.805 306.506C131.769 308.943 132.361 313.477 134.115 316.627C135.869 319.786 138.134 320.362 139.168 317.926C140.207 315.491 139.618 310.955 137.861 307.805Z" fill="#C49A7E"/>
<path d="M118.434 307.805C116.677 310.955 116.093 315.491 117.127 317.926C118.162 320.362 120.423 319.786 122.185 316.627C123.938 313.478 124.526 308.943 123.487 306.506C122.453 304.072 120.191 304.648 118.434 307.805Z" fill="#D8B7A0"/>
</g>
<defs>
<clipPath id="clip0_1_10488">
<rect width="256" height="419" fill="white"/>
</clipPath>
</defs>
</svg>
