<svg width="256" height="256" viewBox="0 0 256 256" fill="none" xmlns="http://www.w3.org/2000/svg">
<path d="M96.4465 7.38194C128.714 -0.893408 164.376 3.92892 192.833 21.4917C228.673 42.9243 252.071 83.4675 252.666 125.201C253.976 167.352 232.007 209.146 196.703 232.067C157.41 258.5 103.055 259.512 62.9284 234.388C22.0279 209.979 -1.8456 160.744 4.28649 113.473C9.22789 63.5233 47.8065 19.4675 96.4465 7.38194Z" fill="#010101"/>
<path d="M91.5051 27.801C152.469 3.39172 227.245 48.4596 233.555 113.829C243.379 172.649 194.56 232.422 134.966 234.149C78.2884 239.805 23.5163 191.76 21.9088 134.845C17.6818 88.7647 48.0446 43.042 91.5051 27.801Z" fill="white"/>
<path d="M97.6372 121.69C124.964 99.364 151.695 76.2644 179.617 54.5938C164.971 77.0979 149.909 99.3045 135.263 121.809C122.701 121.868 110.14 121.868 97.6372 121.69Z" fill="#010101"/>
<path d="M120.737 134.133C133.358 134.133 145.92 134.133 158.482 134.311C130.977 156.518 104.365 179.796 76.3832 201.407C91.0288 178.903 106.091 156.637 120.737 134.133Z" fill="#010101"/>
</svg>
