<svg width="512" height="117" viewBox="0 0 512 117" fill="none" xmlns="http://www.w3.org/2000/svg">
<g clip-path="url(#clip0_1_10522)">
<path d="M13.3908 116.579C8.90329 116.645 4.4454 115.842 0.262564 114.216V107.389C4.52764 108.749 8.93082 109.629 13.3908 110.015C17.5918 110.015 22.0554 109.227 22.0554 103.976C22.0554 100.037 19.1672 98.987 15.4913 97.9368L11.8154 97.1491C7.3518 95.8363 0 93.9983 0 85.0711C0 75.0937 8.13949 72.7306 16.5415 72.7306C20.6112 72.5762 24.6597 73.3859 28.3569 75.0937V81.6578C24.5451 79.9895 20.4393 79.097 16.279 79.0321C11.0277 79.0321 7.61436 80.0824 7.61436 84.546C7.61436 88.4845 10.7651 89.5347 14.441 90.3224L18.3795 91.6352C23.3682 92.948 29.4072 95.8363 29.4072 103.713C29.6697 113.691 22.3179 116.579 13.3908 116.579ZM58.0267 116.579C65.9036 116.579 77.719 114.216 77.719 94.5234C77.719 75.0937 65.641 72.468 58.0267 72.468C49.8872 72.468 38.3344 75.6188 38.3344 94.5234C38.3344 113.953 49.6246 116.579 58.0267 116.579ZM58.0267 78.507C62.4903 78.507 69.842 79.5573 69.842 94.5234C69.842 108.964 61.9651 110.54 58.0267 110.54C54.8759 110.54 46.2113 109.49 46.2113 94.5234C46.2113 79.8198 53.5631 78.507 58.0267 78.507ZM87.959 115.791H95.8359V59.3398H87.959V115.791ZM142.31 115.791V87.1716C142.31 76.1439 136.008 72.7306 126.556 72.7306C121.093 72.7928 115.68 73.769 110.539 75.6188V82.1829C115.28 80.5326 120.23 79.5603 125.243 79.2947C130.757 79.2947 133.908 80.6075 133.908 86.1214V89.7973H124.455C117.629 89.7973 106.601 92.1604 106.601 103.713C106.601 114.478 113.69 116.841 120.254 116.841C125.579 116.818 130.64 114.526 134.17 110.54L134.958 116.054L142.31 115.791ZM134.433 104.763C134.433 104.763 128.656 110.277 122.88 110.277C118.679 110.277 115.266 108.702 115.266 103.188C115.266 96.3614 119.467 94.5234 126.818 94.2609H134.433V104.763ZM171.192 79.8198C173.448 79.7876 175.686 80.235 177.756 81.1327V73.7809C175.957 72.9268 173.964 72.5644 171.979 72.7306C167.653 72.7699 163.751 75.3375 162.002 79.2947L160.952 73.5183H154.913V115.791H162.79V84.8086C162.79 84.8086 166.466 79.8198 171.192 79.8198ZM252.062 73.2557H243.134L238.146 97.6742C236.833 103.976 235.52 112.115 235.52 112.115C235.52 112.115 233.682 103.188 232.107 97.6742L224.755 73.2557H213.202L205.85 97.6742C204.275 103.188 202.437 112.115 202.437 112.115C202.437 112.115 201.124 103.451 199.811 97.6742L194.56 73.2557H185.37L196.923 115.791H207.951L214.515 93.2106C216.09 87.4342 218.978 77.4568 218.978 77.4568C218.978 77.4568 221.604 87.4342 223.179 93.4732L229.744 116.054H240.771L252.062 73.2557ZM262.039 115.791H269.916V72.9932H262.039V115.791ZM320.066 115.791V86.9091C320.066 76.1439 314.027 72.7306 306.412 72.7306C300.449 73.1053 294.796 75.5151 290.396 79.5573L288.821 73.5183H282.782V115.791H290.658V84.8086C294.707 81.7779 299.533 79.9571 304.574 79.5573C310.088 79.5573 312.189 81.6578 312.189 86.9091V115.791H320.066ZM367.852 115.791V59.3398H359.975V76.6691C356.941 73.7892 352.864 72.2719 348.685 72.468C342.909 72.468 329.518 75.0937 329.518 94.5234C329.518 113.428 340.546 116.579 347.11 116.579C352.337 116.719 357.35 114.501 360.763 110.54L361.551 115.791H367.852ZM359.975 105.289C356.83 108.098 352.88 109.843 348.685 110.277C343.696 110.277 337.395 108.702 337.395 94.5234C337.395 81.1327 343.434 79.0321 349.473 79.0321C353.352 79.1877 357.059 80.6708 359.975 83.2332V105.289ZM392.533 116.579C401.461 116.579 408.55 113.953 408.55 103.713C408.55 95.8363 402.248 92.948 397.522 91.6352L393.321 90.585C389.645 89.5347 386.494 88.747 386.494 84.8086C386.494 80.345 389.908 79.2947 395.159 79.2947C399.319 79.3595 403.425 80.2521 407.237 81.9204V75.3563C403.54 73.6485 399.491 72.8388 395.422 72.9932C387.02 72.9932 378.88 75.3563 378.88 85.3337C378.88 94.2609 386.232 96.0988 390.695 97.4116L394.109 98.4619C397.785 99.5121 400.673 100.3 400.673 104.501C400.673 109.752 396.472 110.54 392.008 110.54C387.548 110.155 383.145 109.274 378.88 107.914V114.741C379.143 114.216 384.656 116.579 392.533 116.579Z" fill="#444444"/>
<path d="M445.834 47.5241C440.057 49.0995 434.281 50.4123 428.504 52.2503C416.603 41.5288 401.63 34.8232 385.707 33.0831C409.285 16.151 437.548 6.9747 466.576 6.82667L456.599 16.0164C456.599 16.0164 498.872 14.441 509.374 0C509.058 1.52095 508.619 3.01372 508.061 4.46359C505.053 13.0418 499.683 20.5959 492.57 26.2564C485.928 31.4516 478.593 35.6936 470.777 38.8595C463.004 42.2509 455.024 45.145 446.884 47.5241C446.621 47.2615 446.096 47.5241 445.834 47.5241ZM512 46.2113C485.193 44.9963 458.376 48.3707 432.706 56.1887C438.13 61.8498 442.647 68.3151 446.096 75.3559C467.364 63.5405 496.771 48.3118 512 46.2113ZM448.722 81.3949C451.248 87.8758 452.839 94.6831 453.448 101.612L490.47 63.5405L448.722 81.3949Z" fill="#F99D1C"/>
</g>
<defs>
<clipPath id="clip0_1_10522">
<rect width="512" height="117" fill="white"/>
</clipPath>
</defs>
</svg>
