<svg width="512" height="214" viewBox="0 0 512 214" fill="none" xmlns="http://www.w3.org/2000/svg">
<g clip-path="url(#clip0_1_10549)">
<path d="M257.956 121.697C257.956 121.697 262.897 127.049 270.72 127.049C276.072 127.049 280.19 123.755 280.19 118.815C280.19 106.874 256.309 109.756 256.309 94.9335C256.309 87.9339 262.073 81.7578 271.131 81.7578C279.366 81.7578 283.895 86.287 283.895 86.287L281.837 90.4044C281.837 90.4044 277.719 86.287 271.543 86.287C265.367 86.287 261.661 90.4044 261.25 94.5218C261.25 105.639 285.131 102.757 285.131 118.403C285.131 125.402 279.778 131.579 270.72 131.579C260.838 131.579 255.485 125.402 255.485 125.402L257.956 121.697ZM333.304 82.1696C346.892 82.1696 357.597 92.8748 357.597 106.874C357.597 120.873 346.892 131.99 333.304 131.99C319.717 131.99 309.012 120.873 309.012 106.874C309.012 92.8748 319.717 82.1696 333.304 82.1696ZM333.304 127.461C344.01 127.461 352.656 118.403 352.656 106.874C352.656 95.3453 344.01 86.6987 333.304 86.6987C322.599 86.6987 313.952 95.3453 313.952 106.874C313.541 117.991 322.187 127.461 333.304 127.461ZM385.184 82.993H389.713V126.638H411.535V130.755H384.772L385.184 82.993ZM437.475 83.4048H442.004V131.167H437.475V83.4048ZM472.885 83.4048H488.119C502.53 83.4048 512 92.4631 512 107.286C512 122.52 502.118 131.167 487.707 131.167H472.473L472.885 83.4048ZM487.707 127.049C499.236 127.049 507.471 120.461 507.471 107.286C507.471 94.5218 499.648 87.5222 488.119 87.5222H477.825V127.049H487.707Z" fill="black"/>
<path d="M229.705 45.2886C229.705 45.2886 153.137 -11.0542 93.9046 1.94801L89.5705 3.39269C80.9024 6.28207 73.679 10.6161 69.3449 16.3949L66.4556 20.7289L44.7853 58.2908L82.3471 65.5142C98.2387 75.627 118.464 79.9611 137.245 75.627L203.701 88.6292L229.705 45.2886Z" fill="#76B3E1"/>
<path opacity="0.3" d="M229.705 45.2886C229.705 45.2886 153.137 -11.0542 93.9046 1.94801L89.5705 3.39269C80.9024 6.28207 73.679 10.6161 69.3449 16.3949L66.4556 20.7289L44.7853 58.2908L82.3471 65.5142C98.2387 75.627 118.464 79.9611 137.245 75.627L203.701 88.6292L229.705 45.2886Z" fill="url(#paint0_linear_1_10549)"/>
<path d="M69.3449 45.2879L63.5662 46.7325C39.0065 53.956 31.7831 77.0709 44.7853 97.2966C59.2321 116.077 89.5705 126.19 114.13 118.967L203.701 88.6284C203.701 88.6284 127.132 32.2857 69.3449 45.2879Z" fill="#518AC8"/>
<path opacity="0.3" d="M69.3449 45.2879L63.5662 46.7325C39.0065 53.956 31.7831 77.0709 44.7853 97.2966C59.2321 116.077 89.5705 126.19 114.13 118.967L203.701 88.6284C203.701 88.6284 127.132 32.2857 69.3449 45.2879Z" fill="url(#paint1_linear_1_10549)"/>
<path d="M187.809 110.298C171.264 89.628 143.835 81.0567 118.464 88.6282L28.8937 117.522L0 168.086L161.805 195.535L190.699 143.526C196.477 133.413 195.033 121.856 187.809 110.298Z" fill="url(#paint2_linear_1_10549)"/>
<path d="M158.915 160.865C142.37 140.194 114.942 131.623 89.5705 139.195L0 168.088C0 168.088 76.5684 225.876 135.801 211.429L140.135 209.984C164.694 202.761 173.362 179.646 158.915 160.865Z" fill="url(#paint3_linear_1_10549)"/>
</g>
<defs>
<linearGradient id="paint0_linear_1_10549" x1="-1038.73" y1="3391.87" x2="14300.9" y2="10846.1" gradientUnits="userSpaceOnUse">
<stop offset="0.1" stop-color="#76B3E1"/>
<stop offset="0.3" stop-color="#DCF2FD"/>
<stop offset="1" stop-color="#76B3E1"/>
</linearGradient>
<linearGradient id="paint1_linear_1_10549" x1="9458.94" y1="3040.48" x2="8555.58" y2="6048.91" gradientUnits="userSpaceOnUse">
<stop stop-color="#76B3E1"/>
<stop offset="0.5" stop-color="#4377BB"/>
<stop offset="1" stop-color="#1F3B77"/>
</linearGradient>
<linearGradient id="paint2_linear_1_10549" x1="2080.35" y1="3871.44" x2="16350" y2="13573.4" gradientUnits="userSpaceOnUse">
<stop stop-color="#315AA9"/>
<stop offset="0.5" stop-color="#518AC8"/>
<stop offset="1" stop-color="#315AA9"/>
</linearGradient>
<linearGradient id="paint3_linear_1_10549" x1="10286.2" y1="2422.13" x2="8296.77" y2="9717.87" gradientUnits="userSpaceOnUse">
<stop stop-color="#4377BB"/>
<stop offset="0.5" stop-color="#1A336B"/>
<stop offset="1" stop-color="#1A336B"/>
</linearGradient>
<clipPath id="clip0_1_10549">
<rect width="512" height="214" fill="white"/>
</clipPath>
</defs>
</svg>
