<svg width="256" height="230" viewBox="0 0 256 230" fill="none" xmlns="http://www.w3.org/2000/svg">
<g clip-path="url(#clip0_1_10526)">
<path d="M54.3347 215.771L3.52653 127.652C-1.17551 119.488 -1.17551 109.431 3.52653 101.268L54.3347 13.2136C59.0585 5.02857 67.7878 0 77.1918 0H178.743C188.169 0 196.92 5.02857 201.6 13.2136L252.43 101.312C257.132 109.475 257.132 119.532 252.43 127.695L201.622 215.815C196.898 224 188.169 229.029 178.765 229.029H77.2571C67.7878 228.985 59.0803 223.935 54.3347 215.771Z" fill="white"/>
<path d="M58.6666 209.785L10.8843 126.911C6.44351 119.227 6.44351 109.757 10.8843 102.095L58.6666 19.1995C63.1292 11.4933 71.336 6.76953 80.1959 6.76953H175.761C184.62 6.76953 192.849 11.4933 197.29 19.1995L245.116 102.051C249.556 109.736 249.556 119.205 245.116 126.867L197.312 209.806C192.849 217.512 184.642 222.236 175.782 222.236H80.2394C71.336 222.236 63.1292 217.491 58.6666 209.785Z" fill="#7C4DFF"/>
<path d="M71.5721 95.1734C69.4003 93.0377 68.0599 90.0595 68.0709 86.7476C68.0709 69.5721 81.9811 55.6619 99.1566 55.6836H158.193C170.449 55.6836 180.397 65.6319 180.397 77.8877V96.3258C180.397 97.5448 179.418 98.5462 178.177 98.5462H135.435L176.044 139.167C176.108 139.231 176.172 139.296 176.235 139.362C178.77 141.326 180.397 144.401 180.397 147.852C180.397 165.594 165.987 180.005 148.245 180.005H89.4913C77.6709 180.005 68.0491 170.405 68.0709 158.541V139.254C68.0709 138.1 68.9852 137.12 70.2042 137.12H113.437L72.4246 96.1081C72.1216 95.8078 71.8374 95.4958 71.5721 95.1734Z" fill="#F7F7F7"/>
<path opacity="0.3" d="M146.961 170.688L103.88 137.121H113.415L146.961 170.688Z" fill="#444444"/>
<path opacity="0.3" d="M101.508 64.6094L135.445 98.5468H146.961L101.508 64.6094Z" fill="#444444"/>
</g>
<defs>
<clipPath id="clip0_1_10526">
<rect width="256" height="230" fill="white"/>
</clipPath>
</defs>
</svg>
