<svg width="256" height="130" viewBox="0 0 256 130" fill="none" xmlns="http://www.w3.org/2000/svg">
<g clip-path="url(#clip0_1_10559)">
<path d="M51.5526 89.6627C48.6011 88.0919 45.2658 86.9856 41.641 86.3739C38.0804 85.7748 34.4581 85.4715 30.8748 85.4715C27.946 85.4715 24.9833 85.2185 22.067 84.7201C19.2276 84.2368 16.6563 83.3457 14.4197 82.072C12.2436 80.8335 10.4438 79.1004 9.06809 76.918C7.71131 74.7708 7.0241 71.9238 7.0241 68.489C7.08955 65.4558 7.79437 62.8605 9.12095 60.775C10.4652 58.6555 12.2222 56.9337 14.3404 55.6562C16.5128 54.346 19.0199 53.3832 21.7927 52.7941C26.5137 51.7923 31.5004 51.6047 36.5801 52.3133C38.5624 52.5928 40.5234 53.0874 42.4075 53.7834C44.2577 54.4693 45.9971 55.4095 47.5754 56.5737C49.131 57.7254 50.5054 59.1703 51.6608 60.8669L52.3078 61.8171L57.0754 59.8109L56.0635 58.3824C54.7658 56.5498 53.3285 54.8998 51.7905 53.475C50.221 52.0264 48.3771 50.7942 46.3079 49.8175C44.2652 48.8547 41.928 48.1133 39.3579 47.6137C36.8142 47.1203 33.8489 46.8711 30.5438 46.8711C27.3734 46.8711 24.0997 47.2336 20.8147 47.951C17.4807 48.681 14.3882 49.8867 11.6256 51.5368C8.80378 53.2233 6.47786 55.4699 4.71203 58.215C2.9185 61.0078 2.00727 64.4539 2.00727 68.4588C2.00727 72.6626 2.8518 76.2408 4.51569 79.0929C6.1695 81.9273 8.38718 84.2242 11.107 85.9183C13.7703 87.5797 16.8778 88.7741 20.3427 89.4676C23.7284 90.1447 27.2714 90.4883 30.8748 90.4883C33.7394 90.4883 36.7727 90.7048 39.8915 91.1365C42.926 91.5556 45.7504 92.4014 48.2852 93.65C50.7546 94.8696 52.8125 96.5649 54.3983 98.6907C55.9326 100.749 56.7116 103.528 56.7116 106.95C56.7116 110.023 55.9615 112.644 54.4852 114.744C52.9597 116.914 50.9787 118.705 48.5961 120.067C46.1619 121.458 43.4068 122.482 40.4025 123.11C37.3504 123.75 34.3297 124.073 31.4261 124.073C26.5515 124.073 21.7348 123.142 17.1106 121.304C12.5066 119.478 8.42368 116.733 4.9776 113.146L4.05252 112.183L0.250244 115.478L1.31755 116.545C4.71958 119.95 8.94475 122.914 13.8722 125.358C18.8601 127.834 24.7668 129.089 31.4261 129.089C34.5928 129.089 37.9533 128.726 41.417 128.013C44.9285 127.286 48.2236 126.047 51.209 124.324C54.2422 122.574 56.7658 120.285 58.7128 117.52C60.7128 114.679 61.7272 111.125 61.7272 106.95C61.7272 102.72 60.777 99.1375 58.9016 96.3031C57.0502 93.509 54.5783 91.2737 51.5526 89.6627Z" fill="#201F26"/>
<path d="M96.396 124.624C92.9574 124.624 89.8134 123.915 87.0495 122.515C84.2491 121.099 81.7772 119.171 79.7005 116.781C77.6124 114.381 75.9536 111.574 74.7705 108.437C73.5786 105.287 72.9027 101.984 72.7655 98.6781C72.7655 95.6209 73.3319 92.4971 74.447 89.3921C75.5609 86.2971 77.1832 83.4741 79.2713 81.0022C81.353 78.539 83.8866 76.4988 86.8028 74.9356C89.6699 73.4001 92.897 72.621 96.396 72.621C99.686 72.621 102.794 73.3498 105.632 74.7846C108.509 76.2408 111.04 78.1917 113.156 80.583C115.276 82.9845 116.971 85.7924 118.193 88.9302C119.41 92.0641 120.026 95.344 120.026 98.6781C120.026 101.732 119.46 104.857 118.346 107.963C117.23 111.064 115.607 113.886 113.521 116.355C111.443 118.813 108.913 120.833 106 122.359C103.132 123.863 99.9012 124.624 96.396 124.624ZM117.26 77.5812C114.765 74.6663 111.733 72.2548 108.246 70.4147C104.71 68.5494 100.723 67.6055 96.396 67.6055C92.454 67.6055 88.6882 68.45 85.2031 70.1139C81.7432 71.7677 78.6835 74.0483 76.1096 76.8903C73.5459 79.7209 71.4905 83.0549 70.0003 86.7993C68.5076 90.5487 67.7499 94.5461 67.7499 98.6781C67.7499 102.584 68.4485 106.406 69.8267 110.04C71.2023 113.671 73.1607 116.966 75.6477 119.837C78.1461 122.72 81.1844 125.078 84.6783 126.842C88.1986 128.622 92.1331 129.563 96.3708 129.64H96.3972H96.4237C100.434 129.563 104.231 128.661 107.71 126.962C111.163 125.275 114.219 122.977 116.793 120.135C119.357 117.303 121.395 114.006 122.847 110.334C124.303 106.654 125.042 102.732 125.042 98.6781C125.042 95.0067 124.364 91.2649 123.028 87.5583C121.69 83.8517 119.75 80.4949 117.26 77.5812Z" fill="#201F26"/>
<path d="M151.011 123.231C150.168 123.441 149.426 123.601 148.806 123.704C148.154 123.813 147.447 123.922 146.686 124.03C145.985 124.13 145.291 124.182 144.624 124.182C142.941 124.182 141.703 123.624 140.836 122.476C139.878 121.212 139.412 119.958 139.412 118.639V45.2148H134.396V118.639C134.396 121.394 135.266 123.832 136.983 125.881C138.761 128.009 141.295 129.086 144.513 129.086C145.523 129.086 146.524 129.027 147.492 128.911C148.426 128.799 149.266 128.687 150.017 128.575C150.785 128.46 151.673 128.286 152.66 128.059L154.361 127.667L152.128 122.952L151.011 123.231Z" fill="#201F26"/>
<path d="M172.653 72.6554C170.044 74.4892 167.739 76.8177 165.767 79.6055V68.4844H160.751V128.534H165.767V91.1482C166.462 88.699 167.418 86.402 168.613 84.319C169.817 82.2209 171.316 80.3732 173.066 78.8289C174.815 77.2859 176.852 76.0335 179.121 75.1059C181.384 74.1796 183.938 73.6384 186.712 73.4987L188.046 73.432V68.4844H186.641C181.296 68.4844 176.59 69.8877 172.653 72.6554Z" fill="#201F26"/>
<path d="M244.31 13.7942L202.776 58.6977L254.975 34.6154C253.43 26.6484 249.649 19.4843 244.31 13.7942ZM213.494 0.4375C207.739 0.4375 202.257 1.59165 197.257 3.67465L191.684 50.6386L219.534 0.874239C217.56 0.591051 215.545 0.4375 213.494 0.4375ZM255.388 37.2026L205.927 64.882L252.332 59.3756C254.533 54.2593 255.756 48.6233 255.756 42.7002C255.756 40.835 255.622 39.0037 255.388 37.2026ZM237.153 77.7237C242.679 73.9831 247.268 68.9662 250.509 63.0998L207.013 71.7377L237.153 77.7237ZM222.08 1.31224L197.868 53.7901L242.782 12.2483C237.15 6.83 230.026 2.95221 222.08 1.31224ZM217.026 84.8044C221.706 84.4167 226.169 83.2726 230.292 81.4842L205.928 78.5931L217.026 84.8044ZM174.97 25.3262C173.069 29.5337 171.837 34.1038 171.409 38.9092L177.973 50.6394L174.97 25.3262ZM193.595 5.41217C187.632 8.6015 182.527 13.1778 178.703 18.7119L184.829 49.553L193.595 5.41217Z" fill="#C7402B"/>
</g>
<defs>
<clipPath id="clip0_1_10559">
<rect width="256" height="130" fill="white"/>
</clipPath>
</defs>
</svg>
