<svg width="512" height="125" viewBox="0 0 512 125" fill="none" xmlns="http://www.w3.org/2000/svg">
<g clip-path="url(#clip0_1_10566)">
<path d="M269.001 99.3106C260.604 105.017 249.137 102.828 243.427 94.4308C237.717 86.0337 239.91 74.5622 248.307 68.8435C256.7 63.1376 268.171 65.3305 273.881 73.7276C279.596 82.1204 277.407 93.5962 269.001 99.3106ZM280.396 69.2991C272.242 57.2826 255.882 54.1742 243.878 62.3371C231.866 70.4999 228.749 86.8555 236.916 98.8592C244.138 109.496 257.777 113.141 269.138 108.189L279.31 124.71L287.384 119.226L277.215 102.704C286.004 93.9624 287.631 79.9232 280.396 69.2991ZM0 106.125C3.78124 108.169 9.6064 109.702 16.1469 109.702C30.4543 109.702 37.7102 102.855 37.7102 93.4531C37.608 86.1972 33.7246 81.394 24.2204 78.1238C18.0886 76.0799 16.1469 74.7513 16.1469 72.4008C16.1469 69.9481 18.293 68.4152 22.0743 68.4152C26.2643 68.4152 30.6587 70.0503 32.907 71.1745L35.5641 60.5461C32.4982 59.0132 27.3884 57.5825 21.5633 57.5825C9.19761 57.5825 1.22635 64.634 1.22635 74.036C1.12415 79.8611 5.10978 85.4819 15.5337 88.9565C21.2567 90.7961 22.7896 92.1246 22.7896 94.6795C22.7896 97.2344 20.8479 98.7673 16.1469 98.7673C11.5481 98.7673 5.62076 96.8256 2.75928 95.0883L0 106.125ZM65.2009 109.804C78.4863 109.804 91.4651 101.424 91.4651 83.2336C91.4651 68.1086 81.2456 57.5825 66.0184 57.5825C49.8715 57.5825 39.2431 67.9042 39.2431 84.0511C39.2431 100.198 50.4847 109.804 65.0987 109.804H65.2009ZM65.4052 98.6651C58.8647 98.6651 55.2879 92.2268 55.2879 83.7445C55.2879 76.2843 58.1493 68.7218 65.5074 68.7218C72.5589 68.7218 75.4204 76.2843 75.4204 83.6424C75.4204 92.6356 71.6392 98.6651 65.5074 98.6651H65.4052ZM95.9618 108.68H111.495V79.8611C111.495 78.4304 111.598 76.9996 112.006 75.9777C113.131 73.1162 115.686 70.1525 119.978 70.1525C125.599 70.1525 127.847 74.5469 127.847 80.9853V108.68H143.381V79.1457C143.381 64.4296 135.716 57.5825 125.496 57.5825C117.116 57.5825 112.109 62.3856 110.065 65.6559H109.758L109.043 58.7066H95.553C95.7574 63.2032 95.9618 68.4152 95.9618 74.6491V108.68ZM192.332 79.1457C192.332 67.3932 187.12 57.5825 170.462 57.5825C161.367 57.5825 154.52 60.1373 151.045 62.0791L153.907 71.992C157.177 70.0503 162.593 68.313 167.703 68.313C175.368 68.313 176.799 72.0942 176.799 74.7513V75.3645C159.119 75.3645 147.468 81.4962 147.468 94.4751C147.468 102.446 153.498 109.804 163.615 109.804C169.543 109.804 174.652 107.658 177.923 103.673H178.229L179.149 108.68H193.15C192.537 105.921 192.332 101.322 192.332 96.6212V79.1457ZM177.31 90.4895C177.31 91.4092 177.207 92.329 177.003 93.1465C175.981 96.3146 172.711 98.8695 168.929 98.8695C165.455 98.8695 162.798 96.9278 162.798 92.9422C162.798 87.0148 169.134 85.0731 177.31 85.0731V90.4895ZM199.588 108.68H215.122V83.438C215.122 82.1094 215.224 80.9853 215.429 79.9633C216.45 75.0579 220.334 72.0942 226.057 72.0942C227.794 72.0942 229.021 72.2986 230.247 72.503V57.889C229.123 57.6846 228.407 57.5825 226.977 57.5825C222.071 57.5825 216.042 60.6483 213.487 68.0064H213.078L212.465 58.7066H199.179C199.486 62.9988 199.588 67.802 199.588 75.1601V108.68ZM331.649 59.4947H322.655V89.7446C322.655 91.4819 322.349 93.117 321.838 94.3434C320.203 98.4312 316.013 102.621 309.983 102.621C301.91 102.621 298.946 96.1829 298.946 86.7809V59.4947H289.953V88.416C289.953 105.687 299.253 110.082 307.02 110.082C315.808 110.082 321.122 104.87 323.371 100.884H323.575L324.086 108.957H332.057C331.751 105.074 331.649 100.577 331.649 95.3654V59.4947ZM341.459 96.1829C341.459 100.577 341.357 105.585 341.051 108.957H348.818L349.328 100.782H349.533C353.314 107.322 358.935 110.082 366.089 110.082C377.126 110.082 388.367 101.293 388.367 83.5106C388.367 68.5901 379.783 58.3705 367.519 58.3705C359.548 58.3705 353.825 61.8452 350.657 67.3637H350.453V36.3984H341.459V96.1829ZM350.453 80.2404C350.453 78.8097 350.657 77.5833 350.964 76.4591C352.701 69.7142 358.424 65.422 364.556 65.422C374.162 65.422 379.272 73.9043 379.272 83.9194C379.272 95.2632 373.753 102.928 364.249 102.928C357.811 102.928 352.497 98.6356 350.759 92.4017C350.555 91.3797 350.453 90.2556 350.453 89.1314V80.2404ZM434.253 85.8611C434.457 84.8392 434.56 83.5106 434.56 81.6711C434.56 72.5757 430.37 58.3705 414.223 58.3705C399.813 58.3705 390.922 70.123 390.922 85.0436C390.922 99.862 400.12 109.979 415.245 109.979C423.114 109.979 428.632 108.242 431.8 106.811L430.165 100.373C426.895 101.804 422.909 102.928 416.471 102.928C407.478 102.928 399.813 97.9202 399.609 85.8611H434.253ZM399.711 79.4228C400.426 73.1889 404.31 64.8088 413.507 64.8088C423.523 64.8088 425.975 73.6999 425.873 79.4228H399.711Z" fill="#070707"/>
<path d="M496.694 108.787H490.408C490.408 58.1621 448.636 16.9773 397.295 16.9773V10.6922C452.106 10.6922 496.694 54.6875 496.694 108.787ZM501.037 75.0202C493.496 43.2628 467.759 16.7558 435.491 7.49009L436.939 2.4527C470.996 12.2337 498.158 40.2353 506.13 73.8066L501.037 75.0202ZM508.114 45.2173C500.338 28.2614 487.079 13.4728 470.808 3.58111L472.984 0C489.974 10.3303 503.792 25.7576 511.916 43.4672L508.114 45.2173Z" fill="#499CD2"/>
</g>
<defs>
<clipPath id="clip0_1_10566">
<rect width="512" height="125" fill="white"/>
</clipPath>
</defs>
</svg>
