<svg width="256" height="145" viewBox="0 0 256 145" fill="none" xmlns="http://www.w3.org/2000/svg">
<g clip-path="url(#clip0_1_10570)">
<path d="M109.97 81.4833L108.476 26.9961C108.476 25.3028 107.082 24.0078 105.488 24.0078C103.795 24.0078 102.5 25.3028 102.5 26.9961L101.105 81.4833L102.5 107.681C102.5 109.374 103.894 110.669 105.488 110.669C107.181 110.669 108.476 109.374 108.476 107.681L109.97 81.4833Z" fill="url(#paint0_linear_1_10570)"/>
<path d="M99.2124 81.4814L97.519 24.9024C97.519 23.3086 96.2241 22.1133 94.7299 22.1133C93.2358 22.1133 91.9408 23.3086 91.9408 24.9024L90.4467 81.3818L91.9408 107.779C91.9408 109.372 93.2358 110.568 94.7299 110.568C96.2241 110.568 97.519 109.372 97.519 107.779L99.2124 81.4814Z" fill="url(#paint1_linear_1_10570)"/>
<path d="M76.0032 25.3008C75.9035 24.0059 74.9074 22.9102 73.6125 22.9102C72.3175 22.9102 71.3214 23.9063 71.2218 25.3008L69.5284 81.3818L71.2218 108.177C71.2218 109.472 72.3175 110.468 73.6125 110.468C74.9074 110.468 75.9035 109.472 76.0032 108.077L77.9954 81.2821L76.0032 25.3008Z" fill="url(#paint2_linear_1_10570)"/>
<path d="M86.7611 23.4102C86.7611 22.0156 85.5658 20.8203 84.1712 20.8203C82.7767 20.8203 81.5813 21.916 81.5813 23.4102L79.9875 81.3837L81.5813 107.98C81.5813 109.374 82.7767 110.57 84.1712 110.57C85.5658 110.57 86.6615 109.474 86.7611 107.98L88.5541 81.3837L86.7611 23.4102Z" fill="url(#paint3_linear_1_10570)"/>
<path d="M32.4732 109.87C33.2701 109.87 33.8678 109.272 33.9674 108.376L36.5572 81.3813L33.9674 53.4903C33.8678 52.6934 33.2701 51.9961 32.4732 51.9961C31.6763 51.9961 31.0787 52.5938 30.979 53.4903L28.688 81.3813L30.979 108.376C30.979 109.272 31.6763 109.87 32.4732 109.87Z" fill="url(#paint4_linear_1_10570)"/>
<path d="M120.828 81.4835L119.433 16.7364C119.433 15.6407 118.836 14.6445 117.939 14.0469C117.441 13.7481 116.844 13.4492 116.146 13.4492C115.549 13.4492 114.951 13.6484 114.353 13.9473C113.457 14.5449 112.859 15.541 112.859 16.6368V17.2344L111.664 81.3839L112.859 107.382V107.482C112.859 108.179 113.158 108.876 113.656 109.375C114.254 110.072 115.15 110.57 116.146 110.57C117.043 110.57 117.84 110.171 118.437 109.673C119.035 109.076 119.433 108.279 119.433 107.382L119.533 104.792L120.828 81.4835Z" fill="url(#paint5_linear_1_10570)"/>
<path d="M44.3269 55.4824C44.2273 54.4863 43.53 53.7891 42.6335 53.7891C41.737 53.7891 40.9401 54.4863 40.9401 55.4824L38.8483 81.3813L40.9401 108.575C41.0397 109.571 41.737 110.268 42.6335 110.268C43.53 110.268 44.3269 109.571 44.3269 108.575L46.7175 81.3813L44.3269 55.4824Z" fill="url(#paint6_linear_1_10570)"/>
<path d="M52.8934 37.3555C51.8973 37.3555 51.0008 38.1524 51.0008 39.2481L49.0085 81.3835L51.0008 108.577C51.1004 109.673 51.8973 110.47 52.8934 110.47C53.8895 110.47 54.786 109.673 54.786 108.577L57.077 81.3835L54.786 39.2481C54.786 38.252 53.8895 37.3555 52.8934 37.3555Z" fill="url(#paint7_linear_1_10570)"/>
<path d="M65.2451 108.577L67.3369 81.4832L65.2451 29.6856C65.1455 28.4902 64.249 27.5938 63.0536 27.5938C61.8583 27.5938 60.9618 28.4902 60.8622 29.6856L58.9696 81.4832L60.8622 108.577C60.8622 109.773 61.8583 110.669 63.0536 110.669C64.249 110.769 65.1455 109.773 65.2451 108.577Z" fill="url(#paint8_linear_1_10570)"/>
<path d="M128.697 7.86915C128.199 7.57032 127.602 7.37109 126.904 7.37109C126.107 7.37109 125.31 7.66993 124.713 8.16798C123.916 8.76565 123.418 9.76176 123.418 10.8575V11.2559L122.023 81.5812L122.721 94.5306L123.418 107.181C123.418 109.074 125.012 110.568 126.904 110.568C128.797 110.568 130.291 108.974 130.391 107.082L131.885 81.4816L130.391 10.8575C130.291 9.56253 129.693 8.46681 128.697 7.86915Z" fill="url(#paint9_linear_1_10570)"/>
<path d="M2.88872 96.3247C3.38677 96.3247 3.78521 95.9262 3.88482 95.3286L6.07626 81.383L3.88482 67.2383C3.78521 66.6406 3.38677 66.2422 2.88872 66.2422C2.39066 66.2422 1.89261 66.6406 1.89261 67.2383L0 81.383L1.89261 95.3286C1.89261 95.9262 2.39066 96.3247 2.88872 96.3247Z" fill="url(#paint10_linear_1_10570)"/>
<path d="M12.3517 104.792C12.8498 104.792 13.3478 104.393 13.4475 103.796L16.3362 81.3832L13.4475 58.4727C13.3478 57.875 12.9494 57.4766 12.3517 57.4766C11.8537 57.4766 11.3556 57.875 11.256 58.4727L8.76575 81.3832L11.256 103.796C11.3556 104.393 11.7541 104.792 12.3517 104.792Z" fill="url(#paint11_linear_1_10570)"/>
<path d="M22.3128 108.876C23.0101 108.876 23.5081 108.378 23.6077 107.581L26.2972 81.3832L23.6077 54.1895C23.5081 53.4922 23.0101 52.8945 22.3128 52.8945C21.6155 52.8945 21.1175 53.3926 21.0179 54.1895L18.6272 81.3832L21.0179 107.581C21.1175 108.278 21.6155 108.876 22.3128 108.876Z" fill="url(#paint12_linear_1_10570)"/>
<path d="M223.627 48.0125C219.343 48.0125 215.259 48.909 211.474 50.4031C208.984 22.2132 185.276 0 156.389 0C149.317 0 142.444 1.39455 136.367 3.78521C133.977 4.68171 133.379 5.67782 133.379 7.47082V106.982C133.379 108.875 134.873 110.369 136.766 110.568H223.726C241.058 110.568 255.104 96.7222 255.104 79.3899C255.004 62.0576 240.959 48.0125 223.627 48.0125Z" fill="url(#paint13_linear_1_10570)"/>
<path d="M25.0024 129.494C21.3168 128.598 20.3206 128.199 20.3206 126.705C20.3206 125.709 21.1175 124.613 23.6078 124.613C25.6996 124.613 27.393 125.51 28.8872 127.004L32.274 123.717C30.0825 121.426 27.393 120.031 23.807 120.031C19.2249 120.031 15.5393 122.621 15.5393 126.805C15.5393 131.387 18.5276 132.781 22.8109 133.678C27.1938 134.674 27.9907 135.371 27.9907 136.865C27.9907 138.658 26.6957 139.356 23.9066 139.356C21.7152 139.356 19.6234 138.559 17.93 136.666L14.5432 139.655C16.3362 142.244 19.723 143.838 23.5082 143.838C29.8833 143.838 32.5728 140.85 32.5728 136.467C32.772 131.586 28.688 130.291 25.0024 129.494ZM46.4187 120.131C40.0436 120.131 36.358 125.012 36.358 132.084C36.358 139.157 40.1432 144.037 46.4187 144.037C52.6942 144.037 56.4794 139.157 56.4794 132.084C56.4794 125.012 52.6942 120.131 46.4187 120.131ZM46.4187 139.356C42.6335 139.356 41.1393 136.168 41.1393 131.985C41.1393 127.801 42.7331 124.613 46.4187 124.613C50.2039 124.613 51.6981 127.801 51.6981 131.985C51.6981 136.168 50.1043 139.356 46.4187 139.356ZM75.2062 133.479C75.2062 137.164 73.4133 139.455 70.4249 139.455C67.4366 139.455 65.6436 137.065 65.6436 133.379V120.43H60.9619V133.479C60.9619 140.252 64.7471 144.037 70.3253 144.037C76.2024 144.037 79.6887 140.153 79.6887 133.479V120.529H75.007V133.479H75.2062ZM99.8101 130.291C99.8101 131.586 99.9098 134.475 99.9098 135.371C99.6109 134.774 98.814 133.578 98.316 132.781L90.0483 120.529H85.5658V143.739H90.1479V133.479C90.1479 132.184 90.0483 129.295 90.0483 128.399C90.3471 128.996 91.144 130.192 91.642 130.988L100.109 143.639H104.293V120.43H99.7105V130.291H99.8101ZM117.64 120.43H110.369V143.639H117.242C123.219 143.639 129.096 140.153 129.096 132.084C129.096 123.518 124.215 120.43 117.64 120.43ZM117.242 139.157H114.951V125.012H117.441C122.322 125.012 124.414 127.402 124.414 132.084C124.414 136.268 122.123 139.157 117.242 139.157ZM143.44 124.713C145.532 124.713 146.826 125.609 147.723 127.203L152.006 125.211C150.512 122.223 147.922 120.031 143.539 120.031C137.463 120.031 133.279 124.912 133.279 131.985C133.279 139.256 137.363 143.938 143.44 143.938C147.623 143.938 150.412 141.946 152.006 138.658L148.121 136.367C146.926 138.459 145.631 139.356 143.539 139.356C140.053 139.356 138.061 136.168 138.061 131.985C138.061 127.701 140.053 124.713 143.44 124.713ZM160.672 120.43H155.991V143.639H169.936V139.057H160.672V120.43ZM182.188 120.131C175.813 120.131 172.128 125.012 172.128 132.084C172.128 139.157 175.913 144.037 182.188 144.037C188.563 144.037 192.249 139.157 192.249 132.084C192.249 125.012 188.563 120.131 182.188 120.131ZM182.188 139.356C178.403 139.356 176.909 136.168 176.909 131.985C176.909 127.801 178.503 124.613 182.188 124.613C185.974 124.613 187.468 127.801 187.468 131.985C187.468 136.168 185.974 139.356 182.188 139.356ZM210.976 133.479C210.976 137.164 209.183 139.455 206.195 139.455C203.206 139.455 201.413 137.065 201.413 133.379V120.43H196.732V133.479C196.732 140.252 200.517 144.037 206.095 144.037C211.972 144.037 215.458 140.153 215.458 133.479V120.529H210.777V133.479H210.976ZM228.707 120.43H221.435V143.639H228.308C234.285 143.639 240.162 140.153 240.162 132.084C240.162 123.518 235.281 120.43 228.707 120.43ZM228.308 139.157H226.117V125.012H228.607C233.488 125.012 235.48 127.402 235.48 132.084C235.48 136.268 233.189 139.157 228.308 139.157Z" fill="#F04923"/>
</g>
<defs>
<linearGradient id="paint0_linear_1_10570" x1="541.883" y1="-2376.62" x2="541.883" y2="8697.48" gradientUnits="userSpaceOnUse">
<stop stop-color="#F6871F"/>
<stop offset="0.2393" stop-color="#F57E20"/>
<stop offset="0.6262" stop-color="#F36621"/>
<stop offset="1" stop-color="#F04923"/>
</linearGradient>
<linearGradient id="paint1_linear_1_10570" x1="530.557" y1="-2189.25" x2="530.557" y2="8884.84" gradientUnits="userSpaceOnUse">
<stop stop-color="#F6871F"/>
<stop offset="0.2393" stop-color="#F57E20"/>
<stop offset="0.6262" stop-color="#F36621"/>
<stop offset="1" stop-color="#F04923"/>
</linearGradient>
<linearGradient id="paint2_linear_1_10570" x1="493.134" y1="-2268.14" x2="493.134" y2="8805.95" gradientUnits="userSpaceOnUse">
<stop stop-color="#F6871F"/>
<stop offset="0.2393" stop-color="#F57E20"/>
<stop offset="0.6262" stop-color="#F36621"/>
<stop offset="1" stop-color="#F04923"/>
</linearGradient>
<linearGradient id="paint3_linear_1_10570" x1="507.766" y1="-2061.05" x2="507.766" y2="9013.12" gradientUnits="userSpaceOnUse">
<stop stop-color="#F6871F"/>
<stop offset="0.2393" stop-color="#F57E20"/>
<stop offset="0.6262" stop-color="#F36621"/>
<stop offset="1" stop-color="#F04923"/>
</linearGradient>
<linearGradient id="paint4_linear_1_10570" x1="418.416" y1="-5147.7" x2="418.416" y2="5926.44" gradientUnits="userSpaceOnUse">
<stop stop-color="#F6871F"/>
<stop offset="0.2393" stop-color="#F57E20"/>
<stop offset="0.6262" stop-color="#F36621"/>
<stop offset="1" stop-color="#F04923"/>
</linearGradient>
<linearGradient id="paint5_linear_1_10570" x1="571.259" y1="-1331.3" x2="571.259" y2="9742.87" gradientUnits="userSpaceOnUse">
<stop stop-color="#F6871F"/>
<stop offset="0.2393" stop-color="#F57E20"/>
<stop offset="0.6262" stop-color="#F36621"/>
<stop offset="1" stop-color="#F04923"/>
</linearGradient>
<linearGradient id="paint6_linear_1_10570" x1="429.632" y1="-5325.2" x2="429.632" y2="5748.95" gradientUnits="userSpaceOnUse">
<stop stop-color="#F6871F"/>
<stop offset="0.2393" stop-color="#F57E20"/>
<stop offset="0.6262" stop-color="#F36621"/>
<stop offset="1" stop-color="#F04923"/>
</linearGradient>
<linearGradient id="paint7_linear_1_10570" x1="449.175" y1="-3698.06" x2="449.175" y2="7376.07" gradientUnits="userSpaceOnUse">
<stop stop-color="#F6871F"/>
<stop offset="0.2393" stop-color="#F57E20"/>
<stop offset="0.6262" stop-color="#F36621"/>
<stop offset="1" stop-color="#F04923"/>
</linearGradient>
<linearGradient id="paint8_linear_1_10570" x1="480.802" y1="-2731.63" x2="480.802" y2="8342.5" gradientUnits="userSpaceOnUse">
<stop stop-color="#F6871F"/>
<stop offset="0.2393" stop-color="#F57E20"/>
<stop offset="0.6262" stop-color="#F36621"/>
<stop offset="1" stop-color="#F04923"/>
</linearGradient>
<linearGradient id="paint9_linear_1_10570" x1="615.436" y1="-729.748" x2="615.436" y2="10344.4" gradientUnits="userSpaceOnUse">
<stop stop-color="#F6871F"/>
<stop offset="0.2393" stop-color="#F57E20"/>
<stop offset="0.6262" stop-color="#F36621"/>
<stop offset="1" stop-color="#F04923"/>
</linearGradient>
<linearGradient id="paint10_linear_1_10570" x1="305.786" y1="-6557.89" x2="305.786" y2="4516.26" gradientUnits="userSpaceOnUse">
<stop stop-color="#F6871F"/>
<stop offset="0.2393" stop-color="#F57E20"/>
<stop offset="0.6262" stop-color="#F36621"/>
<stop offset="1" stop-color="#F04923"/>
</linearGradient>
<linearGradient id="paint11_linear_1_10570" x1="380.922" y1="-5690.08" x2="380.922" y2="5384.05" gradientUnits="userSpaceOnUse">
<stop stop-color="#F6871F"/>
<stop offset="0.2393" stop-color="#F57E20"/>
<stop offset="0.6262" stop-color="#F36621"/>
<stop offset="1" stop-color="#F04923"/>
</linearGradient>
<linearGradient id="paint12_linear_1_10570" x1="405.366" y1="-5236.45" x2="405.366" y2="5837.68" gradientUnits="userSpaceOnUse">
<stop stop-color="#F6871F"/>
<stop offset="0.2393" stop-color="#F57E20"/>
<stop offset="0.6262" stop-color="#F36621"/>
<stop offset="1" stop-color="#F04923"/>
</linearGradient>
<linearGradient id="paint13_linear_1_10570" x1="6211.16" y1="-1.69595e-07" x2="6211.16" y2="11058.7" gradientUnits="userSpaceOnUse">
<stop stop-color="#F6871F"/>
<stop offset="0.2402" stop-color="#F57E20"/>
<stop offset="0.6306" stop-color="#F36621"/>
<stop offset="1" stop-color="#F04923"/>
</linearGradient>
<clipPath id="clip0_1_10570">
<rect width="256" height="145" fill="white"/>
</clipPath>
</defs>
</svg>
