<svg width="256" height="258" viewBox="0 0 256 258" fill="none" xmlns="http://www.w3.org/2000/svg">
<g clip-path="url(#clip0_1_10596)">
<path opacity="0.5" d="M13.2219 183.045C30.0073 165.979 244.278 4.78304 247.935 8.44018C250.749 11.2534 91.4285 228.056 74.5494 245.029C57.6703 262.002 30.2886 261.815 13.4095 244.748C-3.56343 227.681 -3.56343 200.018 13.2219 183.045Z" fill="#FFA64D"/>
<path opacity="0.3" d="M22.6929 175.448C43.3229 163.352 252.812 80.2689 255.343 84.77C257.313 88.2396 86.5522 239.308 65.8284 251.311C45.1984 263.314 18.8482 256.093 6.93903 235.088C-4.97013 214.27 2.06284 187.545 22.6929 175.448Z" fill="#FFA64D"/>
<path opacity="0.3" d="M82.0512 235.277C94.0541 214.46 176.387 3.47051 171.979 0.938645C168.51 -1.03059 18.6607 171.043 6.65776 191.86C-5.2514 212.678 1.96911 239.216 22.7867 251.125C43.5105 263.128 70.0482 256.001 82.0512 235.277Z" fill="#FFA64D"/>
<path opacity="0.2" d="M32.7266 171.044C55.7947 164.761 249.248 140.849 250.655 145.819C251.686 149.664 77.9251 249.251 54.857 255.533C31.7889 261.816 8.15809 247.938 2.06285 224.588C-4.03239 201.239 9.75223 177.327 32.7266 171.044Z" fill="#FFA64D"/>
<path opacity="0.1" d="M32.7266 171.042C55.7948 164.76 212.114 200.112 213.427 204.988C214.459 208.833 77.8314 249.155 54.7633 255.438C31.6951 261.721 8.06437 247.842 1.96913 224.493C-4.03233 201.237 9.75228 177.325 32.7266 171.042Z" fill="#FFA64D"/>
<path opacity="0.1" d="M86.4586 225.054C92.7414 201.798 57.5765 44.3537 52.6066 43.0409C48.7619 42.0094 8.81462 179.574 2.62561 202.83C-3.5634 226.086 10.2212 249.904 33.3831 255.905C56.4513 262.094 80.2696 248.31 86.4586 225.054Z" fill="#FFA64D"/>
<path opacity="0.2" d="M86.4586 225.054C92.7414 201.799 116.372 6.93846 111.496 5.62564C107.651 4.59413 8.90839 179.574 2.62561 202.924C-3.5634 226.179 10.2212 249.998 33.3831 255.999C56.4513 262.188 80.2696 248.31 86.4586 225.054Z" fill="#FFA64D"/>
</g>
<defs>
<clipPath id="clip0_1_10596">
<rect width="256" height="258" fill="white"/>
</clipPath>
</defs>
</svg>
