<svg width="512" height="134" viewBox="0 0 512 134" fill="none" xmlns="http://www.w3.org/2000/svg">
<g clip-path="url(#clip0_1_10605)">
<path d="M0.643311 118.996L8.61919 109.348C14.1508 113.979 19.9398 116.809 27.0152 116.809C32.5468 116.809 35.8916 114.622 35.8916 111.02V110.891C35.8916 107.418 33.8333 105.746 23.4132 103.044C11.1921 99.8279 3.08753 96.3546 3.08753 84.1335V84.0048C3.08753 72.8129 12.0926 65.3516 24.6996 65.3516C33.7046 65.3516 41.2946 68.1817 47.5981 73.1988L40.5227 83.3616C35.1197 79.631 29.7167 77.3154 24.4423 77.3154C19.2966 77.3154 16.4664 79.7596 16.4664 82.7184V82.847C16.4664 86.9636 19.1679 88.2501 29.7167 90.9516C42.1951 94.1676 49.2704 98.6702 49.2704 109.476V109.605C49.2704 121.826 39.8795 128.773 26.6292 128.773C17.4956 128.773 8.10462 125.557 0.643311 118.996ZM57.7609 66.2521H82.975C97.6403 66.2521 106.645 74.9998 106.645 87.6068V87.7355C106.645 102.015 95.582 109.476 81.6885 109.476H71.3971V128.001H57.7609V66.2521ZM82.0745 97.3837C88.8926 97.3837 92.8805 93.2671 92.8805 87.9928V87.8641C92.8805 81.8179 88.6353 78.4732 81.8172 78.4732H71.2684V97.3837H82.0745ZM125.813 65.8661H138.292L164.792 128.001H150.641L144.981 114.107H118.866L113.206 128.001H99.4413L125.813 65.8661ZM140.093 102.144L131.859 82.0752L123.626 102.144H140.093ZM171.224 66.2521H199.397C207.244 66.2521 213.291 68.439 217.407 72.5556C220.88 76.0289 222.682 80.7887 222.682 86.7063V86.835C222.682 96.7405 217.278 103.044 209.431 106.003L224.482 128.001H208.659L195.409 108.318H184.732V128.001H171.096V66.2521H171.224ZM198.497 96.2259C205.057 96.2259 208.917 92.7526 208.917 87.4782V87.3496C208.917 81.5606 204.8 78.4732 198.239 78.4732H184.732V96.2259H198.497ZM294.85 66.2521H317.234C330.87 66.2521 340.133 73.1988 340.133 85.1626V85.2913C340.133 98.2842 328.941 104.974 316.076 104.974H299.482V128.001H294.85V66.2521ZM316.334 100.728C327.783 100.728 335.502 94.6822 335.502 85.5485V85.4199C335.502 75.643 327.912 70.4973 316.848 70.4973H299.353V100.728H316.334ZM413.588 118.996L416.547 115.522C423.365 121.826 429.54 124.656 438.673 124.656C447.936 124.656 454.239 119.51 454.239 112.435V112.306C454.239 105.746 450.766 102.015 436.744 99.1847C421.95 96.2259 415.904 91.2088 415.904 81.8179V81.6892C415.904 72.5556 424.265 65.4802 435.715 65.4802C444.72 65.4802 450.637 67.9244 456.812 72.9415L453.853 76.5435C448.064 71.5264 442.275 69.5968 435.457 69.5968C426.324 69.5968 420.406 74.7425 420.406 81.1747V81.3033C420.406 87.8641 423.751 91.8521 438.416 94.8109C452.696 97.7697 458.742 102.787 458.742 111.792V111.92C458.742 121.826 450.251 128.773 438.288 128.773C428.511 128.773 420.921 125.557 413.588 118.996ZM485.242 70.4973H463.759V66.2521H511.357V70.4973H489.873V128.001H485.242V70.4973ZM245.58 92.238L266.935 66.2521H283.53L258.444 95.5827L285.331 128.001H267.835L245.58 100.343V127.872H232.072V66.1234H245.58V92.238Z" fill="#55555A"/>
<path d="M399.437 52.2299C392.619 57.3757 391.204 66.5093 391.076 72.6842C380.269 60.0772 411.144 23.1566 376.024 0.386719C397.765 28.5596 345.021 56.3465 345.021 97.8983C345.021 114.236 355.184 128.515 377.568 133.532C399.437 128.901 410.372 114.236 410.372 97.8983C410.243 73.5847 395.063 65.4802 399.437 52.2299ZM377.568 120.154C365.604 120.154 355.956 110.505 355.956 98.5415C355.956 86.5777 365.604 76.9294 377.568 76.9294C389.532 76.9294 399.18 86.5777 399.18 98.5415C399.18 110.505 389.403 120.154 377.568 120.154Z" fill="#FA6423"/>
</g>
<defs>
<clipPath id="clip0_1_10605">
<rect width="512" height="134" fill="white"/>
</clipPath>
</defs>
</svg>
