<svg width="256" height="297" viewBox="0 0 256 297" fill="none" xmlns="http://www.w3.org/2000/svg">
<g clip-path="url(#clip0_1_10621)">
<path style="mix-blend-mode:multiply" d="M21.9429 218.333C120.803 228.132 200.184 169.657 219.986 144.601C239.788 119.544 209.763 0 209.763 0C177.217 79.9558 118.04 201.14 21.9429 218.373V218.333Z" fill="url(#paint0_linear_1_10621)"/>
<path style="mix-blend-mode:multiply" d="M67.6571 186.423C125.972 188.569 170.359 151.9 181.059 136.698C191.759 121.496 175.376 53.0273 175.376 53.0273C159.17 100.458 114.078 169.57 67.6571 186.423Z" fill="url(#paint1_linear_1_10621)"/>
<path d="M3.80469 269.929C5.60809 271.8 7.75277 273.322 10.1274 274.416C12.4839 275.532 15.0656 276.113 17.6814 276.116C20.4495 276.283 23.19 275.494 25.4292 273.886C27.2403 272.476 28.2664 270.308 28.1962 268.039C28.2293 266.934 28.0069 265.837 27.546 264.83C27.1234 263.967 26.5254 263.199 25.7889 262.572C24.9826 261.901 24.095 261.33 23.1464 260.873L19.8813 259.295L12.6731 256.208C11.4387 255.676 10.2375 255.072 9.07592 254.4C7.86018 253.706 6.75141 252.845 5.78313 251.844C4.78266 250.798 3.97717 249.587 3.40347 248.267C2.08798 245.047 2.18309 241.436 3.66634 238.286C4.45426 236.68 5.57595 235.253 6.95913 234.098C8.4313 232.893 10.1209 231.97 11.9398 231.379C13.977 230.708 16.1141 230.377 18.2625 230.4C21.1209 230.381 23.9507 230.96 26.5637 232.099C28.9998 233.15 31.211 234.645 33.0801 236.505L29.6351 240.584C28.1474 239.161 26.4201 238.002 24.5299 237.158C22.5364 236.306 20.3805 235.884 18.2072 235.92C15.7891 235.801 13.3995 236.476 11.4141 237.838C9.71405 239.082 8.75058 241.073 8.84072 243.154C8.80781 244.216 9.06077 245.266 9.57399 246.2C10.0954 247.033 10.7768 247.758 11.5801 248.335C12.4159 248.975 13.3151 249.531 14.2641 249.994C15.2326 250.475 16.2287 250.928 17.2526 251.354L24.3915 254.373C25.798 254.961 27.1576 255.652 28.4591 256.44C29.6868 257.182 30.7964 258.098 31.7519 259.159C32.6951 260.227 33.4355 261.452 33.9379 262.776C34.5005 264.31 34.7724 265.933 34.7403 267.563C34.7447 269.439 34.3389 271.294 33.5505 273.002C32.7501 274.72 31.585 276.25 30.1332 277.489C28.5576 278.825 26.7351 279.85 24.7651 280.508C22.4701 281.265 20.0606 281.633 17.6399 281.596C10.9854 281.651 4.60281 279.004 0 274.28L3.80469 269.929Z" fill="#149CB5"/>
<path d="M40.7559 283.859V296.228H34.7429V244.112H39.7251L40.2405 248.331H40.4651C42.0831 246.915 43.8574 245.7 45.7512 244.711C47.6191 243.72 49.6895 243.203 51.7906 243.201C53.8913 243.17 55.9708 243.636 57.8697 244.561C59.6145 245.427 61.1257 246.722 62.2704 248.331C63.4953 250.106 64.3913 252.099 64.9134 254.209C65.5511 256.732 65.8577 259.331 65.8253 261.938C65.871 264.77 65.451 267.591 64.583 270.279C63.8444 272.549 62.7017 274.658 61.2131 276.497C59.8743 278.144 58.2006 279.468 56.3103 280.375C54.4786 281.263 52.4804 281.728 50.4559 281.736C48.7492 281.725 47.0643 281.34 45.5134 280.607C43.7554 279.777 42.0968 278.741 40.5709 277.518L40.7559 283.859ZM40.7559 272.619C42.14 273.885 43.7275 274.894 45.4473 275.599C46.7101 276.123 48.0514 276.418 49.4119 276.47C50.8299 276.483 52.2286 276.132 53.4822 275.45C54.7503 274.75 55.8516 273.77 56.7067 272.579C57.6778 271.204 58.3987 269.66 58.8344 268.02C59.3698 266.031 59.6279 263.974 59.6009 261.91C59.6112 260.083 59.4385 258.259 59.0855 256.468C58.8002 254.953 58.2398 253.508 57.4336 252.209C56.6942 251.061 55.6849 250.125 54.4998 249.487C53.1723 248.804 51.7017 248.467 50.218 248.507C48.6139 248.533 47.0416 248.973 45.6455 249.786C43.8664 250.822 42.2081 252.064 40.703 253.488L40.7559 272.619Z" fill="#149CB5"/>
<path d="M72.2325 236.41C71.0331 236.442 69.8669 236.045 68.9768 235.302C68.1343 234.566 67.6571 233.543 67.6571 232.472C67.6571 231.402 68.1343 230.378 68.9768 229.642C70.8654 228.213 73.5851 228.213 75.4737 229.642C76.32 230.376 76.8 231.401 76.8 232.472C76.8 233.544 76.32 234.568 75.4737 235.302C74.588 236.043 73.4271 236.44 72.2325 236.41ZM68.861 243.806H75.4447V279.77H68.861V243.806Z" fill="#149CB5"/>
<path d="M80.4572 244.078H85.5987L86.125 249.218H86.3545C88.0059 247.579 89.8496 246.138 91.8469 244.926C93.8867 243.741 96.2251 243.144 98.5944 243.203C102.436 243.203 105.243 244.378 107.015 246.728C108.788 249.077 109.687 252.553 109.714 257.155V279.771H103.574V257.963C103.574 254.589 103.025 252.155 101.928 250.662C100.677 249.099 98.7095 248.257 96.6916 248.423C94.9192 248.39 93.1766 248.874 91.685 249.815C89.9034 251.019 88.2488 252.395 86.7458 253.922V279.771H80.6056L80.4572 244.078Z" fill="#149CB5"/>
<path d="M113.371 244.078H118.468L118.996 249.218H119.226C120.88 247.579 122.727 246.138 124.728 244.926C126.771 243.74 129.114 243.143 131.488 243.203C135.337 243.203 138.149 244.378 139.925 246.728C141.7 249.077 142.602 252.553 142.629 257.155V279.771H136.355V257.963C136.355 254.589 135.806 252.155 134.706 250.663C133.453 249.099 131.482 248.258 129.46 248.423C127.685 248.39 125.939 248.874 124.444 249.815C122.659 251.019 121.002 252.395 119.496 253.922V279.771H113.371V244.078Z" fill="#149CB5"/>
<path d="M146.3 271.199C146.209 267.342 148.35 263.767 151.824 261.975C155.506 259.838 161.31 258.344 169.237 257.492C169.238 256.356 169.122 255.223 168.892 254.11C168.681 253.062 168.264 252.065 167.663 251.175C167.063 250.314 166.263 249.606 165.329 249.11C164.164 248.541 162.872 248.269 161.573 248.322C159.479 248.303 157.405 248.715 155.483 249.531C153.728 250.278 152.05 251.188 150.47 252.248L147.943 247.956C149.961 246.706 152.087 245.633 154.295 244.749C156.924 243.693 159.742 243.167 162.581 243.201C167.119 243.201 170.411 244.559 172.454 247.276C174.642 250.509 175.717 254.347 175.52 258.226V280.682H170.314L169.775 276.321H169.623C167.847 277.77 165.91 279.018 163.851 280.043C161.826 281.064 159.582 281.595 157.306 281.592C154.436 281.694 151.634 280.723 149.462 278.875C147.3 276.907 146.141 274.093 146.3 271.199ZM152.5 270.751C152.328 272.472 153.031 274.165 154.378 275.275C155.73 276.21 157.353 276.687 159.004 276.633C160.781 276.635 162.532 276.206 164.1 275.384C165.95 274.384 167.662 273.156 169.195 271.729V261.568C166.54 261.884 163.907 262.36 161.31 262.994C159.508 263.416 157.771 264.074 156.146 264.95C155.01 265.562 154.058 266.457 153.384 267.545C152.808 268.519 152.503 269.625 152.5 270.751Z" fill="#149CB5"/>
<path d="M177.371 226.742H183.597V262.65H183.833L199.736 243.581H206.669L194.19 258.108L208.457 279.771H201.525L190.613 262.301L183.68 270.203V279.73H177.455L177.371 226.742Z" fill="#149CB5"/>
<path d="M202.977 262.555C202.914 259.779 203.376 257.017 204.34 254.412C205.183 252.18 206.44 250.127 208.045 248.358C209.516 246.749 211.301 245.456 213.291 244.558C215.21 243.676 217.295 243.213 219.409 243.201C221.546 243.168 223.666 243.58 225.635 244.409C227.427 245.178 229.006 246.365 230.24 247.87C231.529 249.479 232.492 251.323 233.074 253.299C233.755 255.593 234.086 257.977 234.055 260.37C234.069 261.501 233.991 262.631 233.824 263.749H209.135C209.189 267.22 210.49 270.557 212.801 273.155C215.027 275.478 218.148 276.738 221.371 276.616C223.03 276.634 224.68 276.368 226.248 275.828C227.742 275.299 229.172 274.607 230.513 273.765L232.706 277.837C231.005 278.883 229.208 279.765 227.338 280.47C225.188 281.253 222.911 281.635 220.621 281.597C218.251 281.602 215.904 281.141 213.713 280.239C211.609 279.386 209.707 278.106 208.127 276.48C206.486 274.759 205.216 272.722 204.394 270.495C203.443 267.955 202.963 265.265 202.977 262.555ZM228.66 259.773C228.66 256.009 227.865 253.136 226.275 251.154C224.652 249.154 222.165 248.049 219.586 248.182C218.299 248.177 217.027 248.446 215.853 248.969C214.646 249.509 213.555 250.274 212.637 251.222C211.63 252.272 210.822 253.496 210.253 254.832C209.589 256.402 209.171 258.063 209.013 259.759L228.66 259.773Z" fill="#149CB5"/>
<path d="M235.899 244.023H240.999L241.526 250.499H241.756C242.867 248.435 244.412 246.626 246.288 245.191C247.943 243.905 249.992 243.203 252.104 243.201C253.44 243.178 254.767 243.427 256 243.93L254.796 249.238C254.255 249.06 253.704 248.914 253.146 248.8C252.525 248.693 251.896 248.644 251.266 248.654C249.489 248.732 247.788 249.38 246.423 250.499C244.404 252.207 242.891 254.416 242.04 256.894V279.771H235.886L235.899 244.023Z" fill="#149CB5"/>
</g>
<defs>
<linearGradient id="paint0_linear_1_10621" x1="16852.2" y1="1323.51" x2="5966.13" y2="22706.3" gradientUnits="userSpaceOnUse">
<stop stop-color="#2B3990"/>
<stop offset="0.16" stop-color="#1E62A7"/>
<stop offset="0.32" stop-color="#1485BC"/>
<stop offset="0.49" stop-color="#0BA1CC"/>
<stop offset="0.66" stop-color="#05B4D7"/>
<stop offset="0.83" stop-color="#01C0DE"/>
<stop offset="1" stop-color="#00C4E0"/>
</linearGradient>
<linearGradient id="paint1_linear_1_10621" x1="-3.70599e+06" y1="1.05393e+07" x2="-2.3178e+06" y2="1.05393e+07" gradientUnits="userSpaceOnUse">
<stop stop-color="#2B3990"/>
<stop offset="0.16" stop-color="#1E62A7"/>
<stop offset="0.32" stop-color="#1485BC"/>
<stop offset="0.49" stop-color="#0BA1CC"/>
<stop offset="0.66" stop-color="#05B4D7"/>
<stop offset="0.83" stop-color="#01C0DE"/>
<stop offset="1" stop-color="#00C4E0"/>
</linearGradient>
<clipPath id="clip0_1_10621">
<rect width="256" height="297" fill="white"/>
</clipPath>
</defs>
</svg>
