<svg width="512" height="209" viewBox="0 0 512 209" fill="none" xmlns="http://www.w3.org/2000/svg">
<g clip-path="url(#clip0_1_10643)">
<path d="M193.937 171.927C184.475 171.927 173.361 167.574 168.554 160.363C167.505 159.011 167.053 157.511 167.053 155.857C167.053 151.804 170.808 148.348 174.862 148.348C176.966 148.348 178.919 149.398 180.87 151.653C183.874 155.406 188.23 157.21 193.937 157.21C204.001 157.21 209.858 151.352 209.858 145.193C209.858 138.586 203.249 134.079 194.99 131.075C186.729 128.072 177.866 125.217 172.01 117.859C169.156 114.103 167.654 109.599 167.654 104.041C167.654 88.5708 180.57 79.5587 194.99 79.5587C204.601 79.5587 215.115 84.8155 220.372 92.7765C221.123 93.9781 221.573 95.3289 221.573 96.9809C221.573 101.186 217.968 104.492 213.763 104.492C211.51 104.492 209.558 103.289 207.756 100.887C204.601 96.5306 200.396 94.2778 194.99 94.2778C187.178 94.2778 182.673 98.634 182.673 104.041C182.673 109.599 189.282 113.353 197.542 116.357C205.803 119.512 214.665 122.666 220.522 130.625C223.376 134.681 224.877 139.486 224.877 145.193C224.877 161.265 210.61 171.927 193.937 171.927ZM250.97 193.167C250.97 197.834 247.51 200.692 243.447 200.692C239.384 200.692 235.924 197.834 235.924 193.167V111.911C235.924 94.004 250.368 79.5593 268.275 79.5593C286.183 79.5593 300.627 94.004 300.627 111.911V139.75C300.627 157.655 286.183 172.101 268.275 172.101C261.504 172.101 255.786 169.994 250.97 165.632V193.167ZM250.97 139.75C250.97 149.379 258.644 157.055 268.275 157.055C277.905 157.055 285.579 149.379 285.579 139.75V111.911C285.579 102.28 277.905 94.6061 268.275 94.6061C258.644 94.6061 250.97 102.28 250.97 111.911V139.75ZM358.379 100.964C356.404 100.964 354.583 100.204 352.913 98.5341L352.609 98.2305C349.725 95.9538 346.539 94.7395 342.743 94.7395C333.787 94.7395 328.321 100.964 328.321 113.26V163.811C328.321 168.517 324.83 171.401 320.731 171.401C316.631 171.401 313.14 168.517 313.14 163.811V113.26C313.14 94.2842 323.918 79.5587 342.743 79.5587C350.027 79.5587 358.832 82.8979 363.843 87.908C365.361 89.5776 366.12 91.2485 366.12 93.2204C366.12 97.3198 362.477 100.964 358.379 100.964ZM436.715 122.364C436.715 126.42 433.261 129.873 429.206 129.873H387.15V139.637C387.15 148.648 395.863 156.908 405.926 156.908C411.933 156.908 416.739 154.957 420.495 151.201C422.145 148.947 424.098 147.747 426.501 147.747C430.558 147.747 434.313 151.201 434.313 155.255C434.313 158.26 432.66 160.212 430.858 162.015C424.7 168.623 416.289 171.927 405.926 171.927C388.353 171.927 372.13 157.51 372.13 139.637V111.85C372.13 93.978 386.551 79.5586 404.423 79.5586C422.296 79.5586 436.715 93.978 436.715 111.85V122.364ZM421.696 114.854V111.85C421.696 102.237 414.035 94.5788 404.423 94.5788C394.81 94.5788 387.15 102.237 387.15 111.85V114.854H421.696ZM511.723 122.364C511.723 126.42 508.269 129.873 504.214 129.873H462.16V139.637C462.16 148.648 470.871 156.908 480.934 156.908C486.941 156.908 491.749 154.957 495.503 151.201C497.155 148.947 499.106 147.747 501.511 147.747C505.566 147.747 509.321 151.201 509.321 155.255C509.321 158.26 507.669 160.212 505.866 162.015C499.708 168.623 491.298 171.927 480.934 171.927C463.361 171.927 447.138 157.51 447.138 139.637V111.85C447.138 93.978 461.559 79.5586 479.431 79.5586C497.305 79.5586 511.723 93.978 511.723 111.85V122.364ZM496.704 114.854V111.85C496.704 102.237 489.043 94.5788 479.431 94.5788C469.819 94.5788 462.16 102.237 462.16 111.85V114.854H496.704Z" fill="#0066CC"/>
<path d="M57.551 159.795C57.551 165.501 52.9267 170.125 47.2209 170.125C41.5164 170.125 36.8921 165.501 36.8921 159.795C36.8921 154.089 41.5164 149.465 47.2209 149.465C52.9267 149.465 57.551 154.089 57.551 159.795Z" fill="#0066CC"/>
<path d="M100.978 159.795C100.978 165.501 96.3524 170.125 90.6479 170.125C84.9434 170.125 80.3191 165.501 80.3191 159.795C80.3191 154.089 84.9434 149.465 90.6479 149.465C96.3524 149.465 100.978 154.089 100.978 159.795Z" fill="#0066CC"/>
<path d="M94.443 139.134H43.4276C39.3307 139.134 35.6386 136.665 34.0752 132.878L20.6374 100.345H10.1189C4.53072 100.345 0 95.8139 0 90.2257C0 84.6376 4.53072 80.1069 10.1189 80.1069H27.4056C31.5025 80.1069 35.1946 82.5772 36.758 86.3629L50.1958 118.896H87.7418L101.569 86.2769C103.751 81.1302 109.69 78.732 114.836 80.9088C119.98 83.0907 122.384 89.0292 120.203 94.1746L103.76 132.964C102.174 136.704 98.5057 139.134 94.443 139.134Z" fill="#0066CC"/>
<path d="M105.747 46.5366C101.875 42.5042 95.47 42.3752 91.4389 46.2469L78.8422 58.3415V10.1189C78.8422 4.52945 74.3128 0 68.7234 0C63.1353 0 58.6045 4.52945 58.6045 10.1189V58.105L46.4821 46.2963C42.4789 42.398 36.0724 42.4802 32.1728 46.4847C28.2733 50.488 28.3568 56.8945 32.36 60.7941L61.663 89.3355C61.797 89.4658 61.9412 89.5809 62.0804 89.7023C62.1537 89.7669 62.2246 89.8339 62.3004 89.8971C62.6445 90.1805 63.0024 90.4385 63.373 90.67C63.4249 90.7016 63.4806 90.7307 63.5337 90.7636C63.898 90.9811 64.2724 91.1746 64.6556 91.3429C64.691 91.358 64.7214 91.3796 64.7568 91.3947C64.7808 91.4048 64.8049 91.4124 64.8276 91.4213C65.0578 91.5174 65.2906 91.5996 65.5258 91.6768C65.6118 91.7059 65.6966 91.74 65.7826 91.7666C66.0128 91.8349 66.2468 91.8905 66.4795 91.9437C66.5731 91.9652 66.6655 91.993 66.7591 92.0107C66.9931 92.0575 67.2283 92.0879 67.4636 92.117C67.5572 92.1283 67.6483 92.1486 67.7419 92.1562C68.0581 92.1878 68.3743 92.203 68.6905 92.203C68.7006 92.203 68.7107 92.2055 68.7221 92.2055H68.7234C68.7499 92.2055 68.7778 92.2017 68.8043 92.2017C69.1003 92.1992 69.3963 92.1865 69.6897 92.1587C69.8643 92.1423 70.0376 92.1094 70.2096 92.0841C70.355 92.0626 70.5005 92.0474 70.6447 92.0196C70.8509 91.9804 71.0545 91.9247 71.2582 91.8728C71.3657 91.8438 71.4757 91.8235 71.582 91.7919C71.7919 91.7299 71.9956 91.654 72.2017 91.5781C72.3004 91.5427 72.4016 91.5124 72.5002 91.4719C72.6963 91.3935 72.8873 91.3011 73.0795 91.2088C73.1845 91.1595 73.2908 91.1139 73.3932 91.0608C73.5678 90.9697 73.7373 90.8673 73.908 90.7648C74.0244 90.6953 74.1433 90.6295 74.2571 90.5549C74.4064 90.4575 74.5506 90.3487 74.696 90.2424C74.8251 90.1476 74.9553 90.054 75.0805 89.9528C75.207 89.8503 75.3285 89.739 75.4512 89.6302C75.5448 89.5468 75.6421 89.4721 75.7332 89.3849L105.457 60.8446C109.488 56.9729 109.617 50.5677 105.747 46.5366Z" fill="#99CC00"/>
<path d="M70.2866 208.736C60.1488 208.736 49.5746 204.918 38.2073 197.285C33.5678 194.17 32.3321 187.883 35.4474 183.244C38.5627 178.606 44.8491 177.37 49.4898 180.484C67.208 192.382 77.2193 189.516 87.6329 181.038C91.9675 177.51 98.3411 178.162 101.869 182.496C105.396 186.831 104.744 193.205 100.409 196.732C90.5787 204.735 80.6622 208.736 70.2866 208.736Z" fill="#99CC00"/>
</g>
<defs>
<clipPath id="clip0_1_10643">
<rect width="512" height="209" fill="white"/>
</clipPath>
</defs>
</svg>
