<svg width="512" height="139" viewBox="0 0 512 139" fill="none" xmlns="http://www.w3.org/2000/svg">
<g clip-path="url(#clip0_1_10655)">
<path d="M271.147 34.6168C286.805 34.6168 302.179 47.001 302.179 69.3495V69.6342C302.179 91.8404 286.948 104.367 271.147 104.367C260.044 104.367 253.069 98.8154 248.372 92.5521V116.182C248.372 120.37 245.085 123.737 240.93 123.865L240.685 123.868C236.557 123.868 233.14 120.452 233.14 116.324V42.5882C232.998 38.4602 236.414 35.0438 240.543 34.9015H240.685C244.873 34.9015 248.24 38.1877 248.368 42.3428L248.372 42.5882V47.1434C253.354 40.1683 260.329 34.6168 271.147 34.6168ZM473.85 34.4745C484.496 34.4745 491.421 39.8512 496.386 46.67L496.625 47.001V42.4459L496.629 42.2005C496.754 38.1284 499.99 34.8909 504.062 34.7631L504.312 34.7591H504.454C508.643 34.8988 512.009 38.1876 512.003 42.3428L511.999 42.5882V89.2781C511.999 100.524 509.009 108.922 503.458 114.474C497.479 120.595 488.084 123.441 475.985 123.441C467.017 123.441 458.191 121.449 450.078 117.463C447.515 116.609 445.807 114.047 445.807 111.342C445.95 107.783 448.797 105.079 452.355 105.079C453.352 105.079 454.206 105.221 455.06 105.648C461.323 109.207 468.44 110.915 475.558 110.915C488.511 110.915 495.913 104.652 496.625 92.5521C491.928 98.673 484.953 104.225 473.85 104.225C458.207 104.225 443.123 91.9473 442.822 70.1551L442.818 69.4919V69.2072C442.818 46.8587 458.191 34.4745 473.85 34.4745ZM413.067 34.9015C428.156 34.9015 436.839 45.0081 436.839 60.524V96.5378C436.982 100.666 433.708 103.94 429.58 104.082H429.295C425.167 104.225 421.751 100.808 421.608 96.6802V65.2215C421.608 54.8301 416.484 48.8515 407.231 48.8515C398.406 48.8515 392.142 55.1148 392.142 65.5061V96.6802C392.142 100.951 388.726 104.367 384.456 104.367C380.185 104.367 376.769 100.951 376.769 96.6802L376.911 42.7306C376.769 38.6025 380.185 35.1862 384.313 35.0438H384.456C388.644 35.0438 392.011 38.33 392.139 42.4852L392.142 42.7306V45.8622C396.697 38.7449 404.669 34.6168 413.067 34.9015ZM201.255 34.7591C208.657 34.9015 215.774 36.752 222.322 40.1683C224.6 41.3071 226.023 43.4423 226.023 46.0046C226.023 49.4209 223.176 52.2679 219.76 52.2679H219.618C218.621 52.2679 217.625 51.9832 216.628 51.5561C211.788 48.8515 206.522 47.2857 200.97 47.001C194.991 47.001 191.575 49.848 191.575 53.549V53.8337C191.575 58.8158 198.835 60.8087 206.664 63.3709C206.877 63.4359 207.091 63.5016 207.306 63.5682L207.951 63.7702C208.704 64.0089 209.46 64.258 210.215 64.5203L210.862 64.7484C219.365 67.7953 227.447 72.6049 227.447 82.8725V83.1572C227.447 97.2496 216.486 104.225 202.678 104.225C193.568 104.082 184.6 101.378 177.056 96.2531C175.205 95.1144 174.066 93.1215 174.209 90.9863C174.209 87.57 176.913 84.723 180.33 84.723H180.472C181.611 84.723 182.75 85.0077 183.746 85.5771C189.44 89.5628 196.13 91.698 202.963 91.9827C209.511 91.9827 213.354 89.1358 213.354 84.723V84.4383C213.354 79.1715 206.237 77.4633 198.408 75.0434C197.589 74.8062 196.762 74.561 195.933 74.3035L195.311 74.108C186.393 71.2703 177.483 66.8762 177.483 55.3995V55.1148C177.483 42.4459 188.016 34.7591 201.255 34.7591ZM361.395 35.0438C365.584 35.0438 368.95 38.33 369.078 42.4852L369.082 42.7306V96.6802C369.082 100.951 365.666 104.225 361.395 104.225C357.125 104.225 353.851 100.808 353.851 96.6802V42.7306C353.709 38.6025 357.125 35.1862 361.253 35.0438H361.395ZM347.73 41.3071V42.4459C347.73 46.1469 345.168 49.2786 341.609 49.8479C330.648 51.6985 323.246 61.2357 323.246 74.474V96.5378C323.246 100.808 319.83 104.082 315.56 104.082C311.512 104.082 308.149 100.935 308.019 96.922L308.015 96.6795V96.5378L308.157 42.5882C308.015 38.4602 311.431 35.0438 315.56 34.9015H315.702C319.89 34.9015 323.257 38.1877 323.385 42.3428L323.389 42.5882V46.2893C324.1 40.5954 333.495 34.9015 340.186 34.9015C344.029 34.6168 347.445 37.4637 347.73 41.3071ZM267.731 47.9974C257.34 47.9974 248.229 56.6806 248.229 69.3495V69.6342C248.229 82.4455 257.34 90.9863 267.731 90.9863C278.122 90.9863 286.805 82.8725 286.805 69.6342V69.3495C286.805 56.3959 278.122 47.9974 267.731 47.9974ZM477.408 47.8551C467.124 47.8551 458.513 56.0813 458.337 68.808L458.334 69.2072V69.4919C458.334 82.7302 466.875 90.9863 477.408 90.9863C487.835 90.9863 496.866 82.4794 496.911 69.8828L496.91 69.4919V69.2072C496.91 56.5383 487.8 47.8551 477.408 47.8551ZM369.224 16.254V16.5387C369.224 20.8091 365.808 24.2255 361.538 24.2255C357.267 24.2255 353.851 20.8091 353.851 16.5387C353.851 12.3504 357.137 8.98366 361.292 8.85572L361.538 8.85195C365.666 8.7096 369.082 12.1259 369.224 16.254Z" fill="#6DB33F"/>
<path d="M21.0432 19.3872C48.3739 -7.08939 92.0745 -6.37766 118.551 21.0954C121.54 17.1096 124.103 12.6969 125.953 8.14176C134.636 34.6183 139.903 56.8245 137.91 74.0485C136.914 88.5679 131.22 102.518 121.825 113.621C97.3414 142.66 53.7831 146.361 24.7443 121.877L24.186 121.381L24.0895 121.314C24.0223 121.266 23.9559 121.217 23.8902 121.165C23.6274 120.961 23.3886 120.739 23.1737 120.501L23.096 120.412L22.182 119.6C21.3279 118.868 20.4739 118.135 19.7094 117.314L19.3351 116.895C-7.14151 89.5644 -6.28743 45.8638 21.0432 19.3872ZM31.2922 112.055C28.73 110.062 25.029 110.347 23.0361 112.909C21.2987 115.143 21.2924 118.242 23.017 120.321L23.096 120.412L24.186 121.381L24.293 121.454C26.759 123.078 30.071 122.761 31.9897 120.504L32.1463 120.311C34.1392 117.749 33.7121 114.048 31.2922 112.055ZM125.241 15.2591C118.124 30.2056 100.473 41.5934 85.2418 45.152C79.3736 46.5465 73.8137 46.8974 68.3879 47.1729L66.764 47.2543C59.473 47.6188 52.3945 48.0222 45.0999 50.8459C14.9223 62.3761 15.4917 98.2476 32.004 106.361L33.0004 106.931C33.0004 106.931 43.9272 104.758 55.2062 101.826L56.2169 101.561C56.3854 101.517 56.5539 101.472 56.7224 101.427L57.7328 101.157C62.4437 99.8876 67.0783 98.5038 70.8648 97.1088C90.5087 89.8491 112.145 71.9133 119.263 51.1306C115.562 72.7674 96.9143 93.6924 78.2668 103.23C68.3025 108.354 60.6158 109.493 44.2458 115.187C42.253 115.899 40.6872 116.61 40.6872 116.61C40.781 116.597 40.8748 116.585 40.9686 116.572L41.5302 116.498L42.0884 116.427C45.7001 115.98 48.9433 115.756 48.9433 115.756C72.1459 114.617 108.587 122.304 125.526 99.671C142.892 76.6108 133.213 39.3158 125.241 15.2591Z" fill="#6DB33F"/>
<path d="M31.2923 112.054C33.7122 114.047 34.1393 117.748 32.1464 120.31C30.1535 122.872 26.4525 123.157 23.8903 121.164C21.328 119.171 21.0433 115.47 23.0362 112.908C25.029 110.346 28.7301 110.061 31.2923 112.054ZM125.241 15.2578C133.213 39.3145 142.893 76.6095 125.526 99.6697C108.587 122.303 72.146 114.616 48.9434 115.755C48.9434 115.755 44.8153 116.04 40.6872 116.609C40.6872 116.609 42.2531 115.897 44.2459 115.186C60.6159 109.492 68.3026 108.353 78.2669 103.228C96.9144 93.6911 115.562 72.7661 119.263 51.1293C112.146 71.912 90.5088 89.8477 70.8649 97.1075C67.3489 98.4028 63.1016 99.6886 58.7409 100.882L57.7329 101.156C45.6191 104.42 33.0005 106.929 33.0005 106.929L32.0041 106.36C15.4918 98.2462 14.9224 62.3747 45.1 50.8446C58.3383 45.7201 70.8649 48.5671 85.2419 45.1507C100.473 41.592 118.124 30.2043 125.241 15.2578Z" fill="white"/>
</g>
<defs>
<clipPath id="clip0_1_10655">
<rect width="512" height="139" fill="white"/>
</clipPath>
</defs>
</svg>
