<svg width="512" height="228" viewBox="0 0 512 228" fill="none" xmlns="http://www.w3.org/2000/svg">
<g clip-path="url(#clip0_1_10661)">
<path d="M194.519 112.043C187.698 112.043 182.152 114.062 177.9 118.098C173.648 122.138 171.492 127.433 171.492 133.921C171.492 137.284 172.027 140.35 173.083 143.159C174.138 145.974 175.781 148.582 177.989 150.938C180.197 153.296 184.617 156.5 191.204 160.573C199.287 165.508 204.577 169.513 207.116 172.64C209.656 175.764 210.917 179.038 210.917 182.452C210.917 187.022 209.412 190.671 206.32 193.413C203.223 196.157 199.08 197.524 193.945 197.524C188.528 197.524 183.809 195.614 179.757 191.822C175.705 188.024 173.659 183.001 173.613 176.706H171.094V199.557H173.613C174.382 197.393 175.446 196.286 176.84 196.286C177.51 196.286 179.08 196.748 181.525 197.612C187.474 199.729 192.359 200.75 196.199 200.75C202.816 200.75 208.465 198.433 213.171 193.723C217.87 189.015 220.243 183.336 220.243 176.706C220.243 171.565 218.677 166.991 215.602 163.004C212.528 159.013 206.548 154.37 197.613 149.037C189.924 144.418 184.933 140.656 182.63 137.723C180.322 134.794 179.138 131.554 179.138 127.999C179.138 124.153 180.551 121.065 183.337 118.761C186.123 116.456 189.774 115.314 194.342 115.314C199.484 115.314 203.769 116.839 207.16 119.91C210.547 122.987 212.506 127.25 213.083 132.728H215.602V112.927H213.26C212.973 113.936 212.708 114.582 212.464 114.872C212.227 115.16 211.771 115.314 211.094 115.314C210.279 115.314 208.825 114.971 206.762 114.297C202.342 112.808 198.267 112.043 194.519 112.043ZM276.862 112.043C268.551 112.043 261.005 114.002 254.188 117.921C247.36 121.834 241.955 127.267 237.967 134.187C233.98 141.106 232 148.455 232 156.286C232 166.808 235.444 176.181 242.387 184.397C249.333 192.607 257.656 197.723 267.315 199.689C269.523 200.84 272.682 203.81 276.818 208.618C281.478 214.043 285.42 217.956 288.663 220.286C291.902 222.617 295.399 224.326 299.094 225.457C302.792 226.584 306.791 227.137 311.116 227.137C316.353 227.137 321.041 226.227 325.171 224.352L324.243 222.054C321.846 222.919 319.289 223.336 316.597 223.336C312.942 223.336 309.249 222.131 305.547 219.711C301.85 217.286 297.227 212.659 291.713 205.833C289.121 202.562 287.332 200.499 286.32 199.689C296.887 197.626 305.577 192.504 312.353 184.308C319.128 176.115 322.519 166.765 322.519 156.286C322.519 143.843 318.092 133.386 309.304 124.861C300.508 116.334 289.692 112.043 276.862 112.043ZM328.265 112.043L328.398 114.739C333.931 114.739 337.03 116.369 337.724 119.645C337.982 120.817 338.1 122.982 338.121 126.098L338.077 185.723C338.031 190.176 337.397 193.019 336.177 194.253C334.955 195.478 332.89 196.245 329.9 196.551L329.768 199.247H384.928L386.342 185.723H383.823C383.104 189.407 381.454 192.046 378.829 193.546C376.196 195.056 371.541 195.8 364.818 195.8H359.602C353.552 195.8 350.052 193.613 349.127 189.214C348.936 188.344 348.871 187.411 348.862 186.385L349.083 126.098C349.081 121.652 349.643 118.673 350.807 117.214C351.982 115.761 354.102 114.948 357.171 114.739L357.039 112.043H328.265ZM277.746 115.314C287.119 115.314 294.773 119.006 300.685 126.452C306.595 133.901 309.525 144.11 309.525 157.037C309.525 169.287 306.553 179.096 300.597 186.474C294.64 193.849 286.713 197.524 276.862 197.524C267.398 197.524 259.723 193.735 253.834 186.12C247.95 178.506 245.039 168.62 245.039 156.463C245.039 143.97 247.986 133.97 253.922 126.496C259.856 119.03 267.801 115.314 277.746 115.314ZM404.597 128.131C403.251 128.131 402.226 128.586 401.458 129.502C400.673 130.414 400.433 131.519 400.707 132.861C400.972 134.162 401.706 135.303 402.873 136.264C404.033 137.224 405.284 137.723 406.63 137.723C407.931 137.723 408.923 137.224 409.635 136.264C410.348 135.303 410.565 134.162 410.298 132.861C410.024 131.519 409.315 130.414 408.221 129.502C407.114 128.586 405.898 128.131 404.597 128.131ZM440.972 137.281C438.686 146.075 433.731 150.834 426.121 151.601L426.21 154.12H435.094L434.917 183.91C434.931 189.003 435.087 192.394 435.447 194.12C436.322 198.252 439.02 200.352 443.536 200.352C450.068 200.352 456.921 196.373 464.088 188.419L461.922 186.562C456.748 191.801 452.172 194.43 448.177 194.43C445.721 194.43 444.199 193.017 443.624 190.231C443.467 189.554 443.403 188.763 443.403 187.844L443.492 154.12H457.061L456.928 150.098H443.536V137.281H440.972ZM493.436 148.507C485.846 148.507 479.673 152.191 474.873 159.513C470.098 166.846 468.62 174.971 470.497 183.91C471.602 189.147 473.803 193.205 477.171 196.065C480.534 198.924 484.8 200.352 489.9 200.352C494.649 200.352 501.261 199.15 504.044 196.728C506.834 194.308 509.404 190.386 511.779 185.015L509.878 183.026C506.091 189.994 498.448 193.502 492.685 193.502C484.761 193.502 479.908 189.154 478.099 180.507C477.864 179.403 477.689 178.218 477.569 176.971C486.996 175.479 494.14 172.836 498.961 169.015C503.779 165.193 508.616 161.141 507.713 156.861C507.175 154.317 505.854 152.317 503.823 150.805C501.765 149.294 496.422 148.507 493.436 148.507ZM410.475 148.816L394.121 152.573V155.49L399.779 154.783C402.519 154.783 404.132 156.024 404.641 158.496C404.812 159.323 404.92 160.485 404.95 161.944L404.773 188.684C404.727 192.384 404.317 194.535 403.492 195.181C402.659 195.828 400.463 196.153 396.906 196.153L396.818 198.673H422.762L422.718 196.153C419.113 196.153 416.776 195.869 415.735 195.314C414.711 194.762 414.006 193.758 413.702 192.22C413.466 191.111 413.364 189.202 413.348 186.562L413.436 148.816H410.475ZM489.282 153.767C490.86 153.767 492.386 154.376 493.922 155.579C495.438 156.777 496.361 158.109 496.663 159.557C498.143 166.666 491.84 171.581 477.657 174.319C477.252 169.135 478.151 164.43 480.442 160.176C482.715 155.926 485.677 153.767 489.282 153.767Z" fill="#003B57"/>
<path d="M157.888 9.95312H17.1499C7.71748 9.95312 0 17.672 0 27.1041V182.311C0 191.743 7.71748 199.461 17.1499 199.461H109.843C108.791 153.339 124.541 63.8322 157.888 9.95312Z" fill="#0F80CC"/>
<path d="M152.775 14.957H17.15C10.4525 14.957 5.0022 20.4059 5.0022 27.1047V170.988C35.7183 159.199 81.8195 149.027 113.696 149.489C120.101 115.996 138.927 50.356 152.775 14.957Z" fill="url(#paint0_linear_1_10661)"/>
<path d="M190.715 4.87245C181.076 -3.72335 169.406 -0.270529 157.888 9.95179C156.178 11.4705 154.472 13.1553 152.775 14.9551C133.071 35.8577 114.781 74.5759 109.099 104.145C111.313 108.634 113.042 114.362 114.18 118.738C114.472 119.86 114.735 120.914 114.946 121.81C115.446 123.932 115.715 125.307 115.715 125.307C115.715 125.307 115.538 124.639 114.813 122.537C114.675 122.134 114.521 121.694 114.339 121.176C114.262 120.962 114.154 120.702 114.035 120.424C112.75 117.436 109.195 111.13 107.63 108.384C106.292 112.332 105.109 116.026 104.119 119.367C108.636 127.632 111.389 141.796 111.389 141.796C111.389 141.796 111.15 140.878 110.015 137.674C109.007 134.841 103.988 126.046 102.799 123.99C100.765 131.499 99.9571 136.568 100.686 137.802C102.101 140.193 103.448 144.32 104.632 148.883C107.305 159.164 109.163 171.679 109.163 171.679C109.163 171.679 109.223 172.508 109.324 173.785C108.952 182.418 109.175 191.369 109.843 199.459C110.729 210.169 112.396 219.37 114.522 224.293L115.964 223.507C112.844 213.806 111.576 201.093 112.131 186.431C112.971 164.02 118.128 136.994 127.657 108.825C143.756 66.3018 166.093 32.1838 186.536 15.8904C167.903 32.7178 142.685 87.1867 135.136 107.357C126.683 129.945 120.693 151.141 117.083 171.449C123.312 152.41 143.451 144.227 143.451 144.227C143.451 144.227 153.328 132.045 164.871 114.641C157.957 116.218 146.603 118.918 142.8 120.516C137.19 122.869 135.679 123.672 135.679 123.672C135.679 123.672 153.85 112.606 169.44 107.596C190.88 73.828 214.238 25.8563 190.715 4.87245Z" fill="#003B57"/>
</g>
<defs>
<linearGradient id="paint0_linear_1_10661" x1="8525.8" y1="334.266" x2="8525.8" y2="14750.3" gradientUnits="userSpaceOnUse">
<stop stop-color="#97D9F6"/>
<stop offset="0.920245" stop-color="#0F80CC"/>
<stop offset="1" stop-color="#0F80CC"/>
</linearGradient>
<clipPath id="clip0_1_10661">
<rect width="512" height="228" fill="white"/>
</clipPath>
</defs>
</svg>
