<svg width="512" height="87" viewBox="0 0 512 87" fill="none" xmlns="http://www.w3.org/2000/svg">
<g clip-path="url(#clip0_1_10677)">
<path d="M149.388 6.67188C163.638 6.67188 173.574 13.4924 177.456 22.8288L166.287 34.0178C166.287 25.1728 159.82 18.8928 149.388 18.8928C140.936 18.8928 134.887 22.7502 134.887 29.1137C134.887 34.9067 139.753 37.2537 146.287 38.8963L148.027 39.3107L149.83 39.7039L156.456 41.0699L158.388 41.5018L160.312 41.9722C170.538 44.6021 179.957 49.3301 179.957 63.5406C179.957 78.459 166.916 86.911 150.223 86.911C136.233 86.911 124.587 80.7442 120.214 69.3538L132.071 57.4914C132.071 68.027 138.951 74.6902 150.223 74.6902C159.068 74.6902 165.663 70.6214 165.663 64.0514C165.663 57.8454 160.21 55.5274 153.098 53.8615L151.287 53.4567L144.596 52.0918L141.659 51.4472L139.71 50.9695C129.69 48.3781 120.592 43.7253 120.592 30.0375C120.592 15.9542 133.53 6.67188 149.388 6.67188ZM201.078 10.4414V31.0798H216.311V42.5834H201.078V66.789C201.078 72.9414 203.269 74.509 208.488 74.509C210.906 74.431 213.314 74.1514 215.687 73.6734V85.467C214.435 85.9518 211.607 86.3472 209.335 86.5569L207.769 86.6779C207.304 86.7056 206.906 86.7202 206.611 86.7202C194.193 86.7202 187.515 81.5014 187.515 68.6714V42.5834H177.688V31.0995H187.515V24.0136L201.078 10.4414ZM496.768 10.4414V31.0798H512V42.5834H496.768V66.789C496.768 72.9414 498.96 74.509 504.176 74.509C506.596 74.431 509.004 74.1514 511.376 73.6734V85.467C510.125 85.9518 507.296 86.3472 505.024 86.5569L503.457 86.6779C502.992 86.7056 502.595 86.7202 502.3 86.7202C489.884 86.7202 483.204 81.5014 483.204 68.6714V42.5834H473.376V31.0995H483.204V24.0136L496.768 10.4414ZM334.514 44.5486L322.515 51.5362C321.267 45.379 315.635 41.5218 308.957 41.5218C300.112 41.5218 293.828 47.5706 293.828 58.003C293.828 68.4354 299.984 74.5234 308.957 74.5234C315.424 74.5234 320.952 70.2434 322.515 64.8186L334.2 71.5998C330.549 80.2582 321.055 86.9362 308.957 86.9362C291.532 86.9362 279.744 75.1426 279.744 58.0374C279.744 41.0354 291.95 29.1386 308.957 29.1386C320.952 29.1142 330.967 35.7922 334.514 44.5486ZM351.507 8.67676V51.0346L371.85 31.1088H390.002L366.632 53.747L390.523 85.3338H373.939L357.138 62.9018L351.507 68.307V85.3338H337.944V8.67676H351.507ZM406.752 8.67676V36.8335C410.924 32.1407 416.872 29.1137 424.804 29.1137C440.868 29.1137 452.132 41.6342 452.132 58.2238C452.132 74.6018 440.868 86.911 424.7 86.911C416.768 86.911 410.824 83.8842 406.652 79.1914V85.3338H393.192V8.67676H406.752ZM422.092 74.6114C431.268 74.6114 438.052 68.0366 438.052 58.2334C438.052 48.219 431.268 41.4378 422.092 41.4378C413.432 41.4378 406.336 48.0078 406.336 58.2334C406.336 68.2382 413.456 74.6018 422.092 74.6018V74.6114ZM455.78 8.67676H469.864V22.2392H455.78V8.67676ZM469.54 31.1088V85.3338H455.976V31.099L469.54 31.1088ZM275.999 30.9365L276.004 85.3334H262.928L263.135 78.5326C258.953 83.5546 252.781 86.8862 244.516 86.8862C228.3 86.8862 216.998 74.5426 216.998 58.1202C216.998 41.4866 228.192 28.9316 244.408 28.9316C252.27 28.9316 258.216 31.9636 262.398 36.5679V30.9365H275.999ZM247.012 74.5474C255.695 74.5474 262.914 68.1594 262.914 58.125C262.914 47.8698 255.695 41.2802 247.012 41.2802C237.912 41.2802 231.111 48.081 231.111 58.125C231.15 67.9726 237.926 74.5622 247.027 74.5622L247.012 74.5474Z" fill="#000022"/>
<path d="M60.0968 26.707L80.9024 37.208C82.6728 38.0948 84.162 39.4563 85.2036 41.1408C86.0961 42.5842 86.6294 44.2163 86.7646 45.9003L86.7988 46.746V70.7848C86.7988 75.034 85.1112 79.1088 82.1072 82.114C79.3178 84.9042 75.6054 86.5596 71.6872 86.7832L70.7796 86.8092H0.0537478L26.7314 60.0972H60.0968V26.707ZM86.75 0L60.0968 26.707L26.7317 26.7071L26.7314 60.0972L5.87216 49.6256C4.10612 48.7344 2.62208 47.3704 1.58533 45.6852C0.696688 44.2411 0.166727 42.6101 0.0334454 40.9277L1.84048e-05 40.0828V16.0488C-0.00317383 13.9424 0.408925 11.856 1.21277 9.90908C2.01662 7.96208 3.19644 6.19268 4.68476 4.70208C6.17308 3.21148 7.94068 2.02895 9.88644 1.22212C11.5079 0.54976 13.2266 0.149306 14.9734 0.0344974L16.0243 0H86.75Z" fill="#FF364E"/>
</g>
<defs>
<clipPath id="clip0_1_10677">
<rect width="512" height="87" fill="white"/>
</clipPath>
</defs>
</svg>
