<svg width="256" height="257" viewBox="0 0 256 257" fill="none" xmlns="http://www.w3.org/2000/svg">
<g clip-path="url(#clip0_1_10674)">
<path d="M177.247 78.7684L238.61 109.739C243.831 112.355 248.223 116.37 251.295 121.339C253.927 125.596 255.5 130.409 255.899 135.376L256 137.87V208.769C256 221.301 251.023 233.319 242.163 242.183C233.936 250.412 222.987 255.295 211.431 255.954L208.754 256.031H0.158521L78.8401 177.248H177.247V78.7684ZM255.856 0L177.248 78.7686H78.8412V177.248L17.319 146.363C12.1104 143.735 7.73344 139.712 4.6757 134.742C2.05478 130.482 0.491737 125.672 0.0986423 120.71L5.42821e-05 118.218V47.3336C-0.00936074 41.1211 1.20606 34.9676 3.57689 29.2253C5.94772 23.483 9.42742 18.2644 13.817 13.8681C18.2066 9.47178 23.4198 5.98408 29.1586 3.60446C33.9408 1.62143 39.0098 0.440354 44.1618 0.101745L47.2613 0H255.856Z" fill="#FF364E"/>
</g>
<defs>
<clipPath id="clip0_1_10674">
<rect width="256" height="257" fill="white"/>
</clipPath>
</defs>
</svg>
