<svg width="512" height="105" viewBox="0 0 512 105" fill="none" xmlns="http://www.w3.org/2000/svg">
<g clip-path="url(#clip0_1_10684)">
<path d="M31.2171 61.819H0L57.0695 0L41.7078 42.7958H72.9249L15.8512 104.615L31.2129 61.819H31.2171Z" fill="#49A2F8"/>
<path d="M140.918 84.7485C154.174 84.7485 163.594 77.7741 163.594 65.9999C163.594 53.0946 153.214 49.8683 143.973 47.076C134.465 44.1961 132.984 42.2762 132.984 39.4881C132.984 37.0464 135.162 34.8677 139.524 34.8677C145.104 34.8677 147.984 37.5723 150.075 41.9298L161.85 35.043C157.404 26.0611 149.558 21.2612 139.524 21.2612C128.973 21.2612 119.031 28.0645 119.031 39.8345C119.031 51.5211 127.925 55.8827 136.995 58.412C146.152 60.9413 149.641 62.423 149.641 66.1752C149.641 68.5292 147.984 71.142 141.356 71.142C134.47 71.142 130.713 67.7446 128.534 62.6859L116.501 69.6645C119.903 78.6465 128.1 84.7485 140.918 84.7485ZM194.405 52.4852V39.9222H185.423V27.7139L172.342 31.6372V39.9263H165.364V52.4852H172.342V67.9199C172.342 80.1281 177.309 85.2744 194.405 83.5298V71.6637C188.649 72.0143 185.423 71.6637 185.423 67.9157V52.4811H194.405V52.4852ZM232.616 39.9222V44.025C229.736 40.711 225.466 38.7034 219.623 38.7034C208.199 38.7034 198.779 48.733 198.779 61.726C198.779 74.7231 208.199 84.7485 219.623 84.7485C225.466 84.7485 229.74 82.7451 232.616 79.4311V83.5298H245.696V39.9263H232.616V39.9222ZM222.24 72.3649C216.221 72.3649 211.86 68.2663 211.86 61.726C211.86 55.1857 216.221 51.087 222.24 51.087C228.258 51.087 232.616 55.1857 232.616 61.7301C232.616 68.2663 228.258 72.3649 222.24 72.3649ZM276.223 84.7485C284.771 84.7485 292.184 80.3034 295.936 73.5002L284.508 66.9599C283.114 70.0109 279.888 71.8432 276.052 71.8432C270.384 71.8432 266.198 67.7446 266.198 61.726C266.198 55.7116 270.38 51.6087 276.048 51.6087C279.888 51.6087 283.027 53.4452 284.508 56.4921L295.936 49.8683C292.184 43.1485 284.684 38.7034 276.223 38.7034C262.968 38.7034 253.113 48.733 253.113 61.726C253.113 74.7231 262.968 84.7485 276.223 84.7485ZM343.058 83.5298L326.751 61.726L342.624 39.9263H327.361L314.28 59.0255V22.4841H301.199V83.5298H314.28V64.2553L328.233 83.5298H343.058ZM386.152 51.8717C389.466 48.9918 391.474 44.985 391.474 39.9263C391.474 29.3709 382.838 22.48 372.199 22.48H348.305V83.5298H373.944C384.846 83.5298 393.653 76.4677 393.653 65.6493C393.653 59.4596 390.689 54.7516 386.152 51.8759V51.8717ZM372.199 35.5648C375.426 35.5648 377.521 37.8311 377.521 40.9698C377.521 44.1126 375.338 46.379 372.199 46.379H362.257V35.5606H372.199V35.5648ZM373.944 70.4492H362.257V58.7626H373.944C377.433 58.7626 379.7 61.2042 379.7 64.6059C379.7 68.0075 377.433 70.4492 373.944 70.4492ZM400.16 83.5298H413.24V19.8672H400.16V83.5298ZM429.355 36.0865C433.67 36.0413 437.157 32.5545 437.202 28.2398C437.157 23.925 433.67 20.4383 429.355 20.3931C425.04 20.4383 421.554 23.925 421.508 28.2398C421.554 32.5545 425.04 36.0413 429.355 36.0865ZM422.815 83.5298H435.895V39.9263H422.815V83.5298ZM471.022 52.4852V39.9222H462.036V27.7139L448.955 31.6372V39.9263H441.981V52.4852H448.955V67.9199C448.955 80.1281 453.926 85.2744 471.018 83.5298V71.6637C465.262 72.0143 462.036 71.6637 462.036 67.9157V52.4811H471.018L471.022 52.4852ZM494.645 71.3215L511.132 48.6454V39.9222H477.992V52.1346H493.602L477.116 74.8066V83.5298H512V71.3215H494.645Z" fill="black"/>
</g>
<defs>
<clipPath id="clip0_1_10684">
<rect width="512" height="105" fill="white"/>
</clipPath>
</defs>
</svg>
