<svg width="256" height="228" viewBox="0 0 256 228" fill="none" xmlns="http://www.w3.org/2000/svg">
<g clip-path="url(#clip0_1_10715)">
<path d="M231.347 0C244.96 0 255.995 10.8934 256 24.3361C255.995 24.3361 255.995 202.758 255.995 202.758C255.995 216.197 244.96 227.094 231.347 227.094H24.6515C11.0383 227.094 0 216.197 0 202.758V24.3361C0 10.8934 11.0383 0 24.6515 0H231.347Z" fill="#0090F9"/>
<path d="M195.959 136.498C186.454 136.498 178.256 142.194 174.59 150.351H144.822L133.122 113.389L144.979 76.6394H174.546C178.187 84.8515 186.414 90.5985 195.959 90.5985C208.874 90.5985 219.379 80.0934 219.379 67.1782C219.379 54.2629 208.874 43.7578 195.959 43.7578C186.864 43.7578 178.971 48.9737 175.092 56.5669H137.778C133.47 56.5669 129.646 59.3103 128.266 63.3908L114.735 103.459H81.575C77.9927 95.1039 69.6926 89.2396 60.041 89.2396C47.1294 89.2396 36.6206 99.7447 36.6206 112.66C36.6206 125.572 47.1294 136.077 60.041 136.077C69.0333 136.077 76.8499 130.982 80.7728 123.531H114.577L128.112 163.599C129.489 167.68 133.313 170.423 137.62 170.423H175.04C178.897 178.075 186.824 183.335 195.959 183.335C208.874 183.335 219.379 172.83 219.379 159.915C219.379 147.003 208.874 136.498 195.959 136.498ZM195.959 56.3031C201.955 56.3031 206.834 61.1821 206.834 67.1782C206.834 73.1743 201.955 78.0532 195.959 78.0532C189.963 78.0532 185.088 73.1743 185.088 67.1782C185.088 61.1821 189.963 56.3031 195.959 56.3031ZM60.041 123.531C54.0449 123.531 49.1696 118.652 49.1696 112.66C49.1696 106.664 54.0449 101.785 60.041 101.785C66.0371 101.785 70.916 106.664 70.916 112.66C70.916 118.652 66.0371 123.531 60.041 123.531ZM195.959 170.79C189.963 170.79 185.088 165.911 185.088 159.915C185.088 153.919 189.963 149.043 195.959 149.043C201.955 149.043 206.834 153.919 206.834 159.915C206.834 165.911 201.955 170.79 195.959 170.79Z" fill="white"/>
</g>
<defs>
<clipPath id="clip0_1_10715">
<rect width="256" height="228" fill="white"/>
</clipPath>
</defs>
</svg>
