<svg width="512" height="114" viewBox="0 0 512 114" fill="none" xmlns="http://www.w3.org/2000/svg">
<g clip-path="url(#clip0_1_10692)">
<path d="M112.963 105.624C106.715 105.624 101.823 104.194 97.759 100.281L101.371 96.6678C104.307 99.753 108.296 100.958 112.888 100.958C118.984 100.958 122.748 98.7751 122.748 94.4096C122.748 91.1736 120.865 89.3674 116.575 88.9905L110.479 88.464C103.253 87.8617 99.415 84.6256 99.415 78.5291C99.415 71.7551 105.135 67.6914 113.038 67.6914C118.306 67.6914 123.048 68.9711 126.36 71.6793L122.822 75.2166C120.188 73.1857 116.801 72.2816 112.963 72.2816C107.543 72.2816 104.683 74.6156 104.683 78.3782C104.683 81.5398 106.489 83.4217 111.156 83.7973L117.102 84.3238C123.575 84.9268 128.015 87.4097 128.015 94.3352C128.015 101.485 121.919 105.624 112.963 105.624Z" fill="#0A0B09"/>
<path d="M144.495 105.172C138.172 105.172 135.011 100.731 135.011 95.2373V72.5077H130.345V68.3675H135.011V56.7773H140.43V68.3675H148.333V72.5077H140.43V95.0864C140.43 98.4734 142.011 100.506 145.473 100.506H148.333V105.172H144.495Z" fill="#0A0B09"/>
<path d="M176.359 88.0877H165.972C160.402 88.0877 157.693 90.3459 157.693 94.635C157.693 98.9254 160.327 100.958 166.198 100.958C169.359 100.958 172.143 100.732 174.477 98.474C175.756 97.2701 176.359 95.1628 176.359 92.0763V88.0877ZM176.359 105.173V101.635C173.348 104.646 170.638 105.624 165.671 105.624C160.553 105.624 157.542 104.646 155.208 102.238C153.403 100.43 152.424 97.6464 152.424 94.7108C152.424 88.2386 156.94 84.0227 165.219 84.0227H176.359V80.4855C176.359 75.0676 173.649 72.3574 166.875 72.3574C162.134 72.3574 159.725 73.4868 157.542 76.572L153.854 73.1857C157.166 68.8953 160.929 67.6914 166.951 67.6914C176.885 67.6914 181.777 71.9805 181.777 80.0334V105.173H176.359Z" fill="#0A0B09"/>
<path d="M203.002 105.624C193.669 105.624 186.594 99.3016 186.594 86.6578C186.594 74.0133 193.669 67.6914 203.002 67.6914C208.12 67.6914 211.356 69.0455 215.194 73.1857L211.507 76.6471C208.722 73.5613 206.539 72.5083 203.002 72.5083C199.389 72.5083 196.379 73.9375 194.422 76.7229C192.691 79.1313 192.013 81.9918 192.013 86.6578C192.013 91.3238 192.691 94.1843 194.422 96.5927C196.379 99.3774 199.389 100.807 203.002 100.807C206.539 100.807 208.722 99.6786 211.507 96.5927L215.194 100.131C211.356 104.269 208.12 105.624 203.002 105.624Z" fill="#0A0B09"/>
<path d="M244.861 105.171L233.119 86.2043L225.894 94.4833V105.171H220.475V51.582H225.894V87.4082L242.603 68.1407H249.377L236.807 82.2902L251.559 105.171H244.861Z" fill="#0A0B09"/>
<path d="M273.417 77.5885C272.347 76.5184 270.92 75.9478 269.066 75.9478C267.211 75.9478 265.856 76.5184 264.786 77.5885C262.859 79.514 262.645 82.7237 262.645 86.5765C262.645 90.4281 262.859 93.7096 264.786 95.6344C265.856 96.7045 267.211 97.2758 269.066 97.2758C270.92 97.2758 272.347 96.7045 273.417 95.6344C275.342 93.7096 275.557 90.4281 275.557 86.5765C275.557 82.7237 275.342 79.514 273.417 77.5885ZM280.621 101.056C278.338 103.482 274.558 105.621 269.066 105.621C263.573 105.621 259.864 103.482 257.581 101.056C254.229 97.5611 253.373 93.3518 253.373 86.5765C253.373 79.8711 254.229 75.6624 257.581 72.1667C259.864 69.7418 263.573 67.6016 269.066 67.6016C274.558 67.6016 278.338 69.7418 280.621 72.1667C283.974 75.6624 284.83 79.8711 284.83 86.5765C284.83 93.3518 283.974 97.5611 280.621 101.056Z" fill="#0A0B09"/>
<path d="M305.671 105.194H298.394L284.699 68.0312H294.471L302.033 91.0001L309.522 68.0312H319.294L305.671 105.194Z" fill="#0A0B09"/>
<path d="M341.276 79.1575C340.278 76.9461 338.208 75.3059 335.069 75.3059C331.931 75.3059 329.862 76.9461 328.865 79.1575C328.293 80.5129 328.079 81.5106 328.008 83.152H342.132C342.06 81.5106 341.847 80.5129 341.276 79.1575ZM328.008 89.5003C328.008 94.2796 330.932 97.7746 336.139 97.7746C340.206 97.7746 342.203 96.634 344.557 94.2796L350.193 99.7719C346.412 103.552 342.774 105.621 336.069 105.621C327.294 105.621 318.878 101.627 318.878 86.5765C318.878 74.4493 325.44 67.6016 335.069 67.6016C345.413 67.6016 351.262 75.163 351.262 85.3634V89.5003H328.008Z" fill="#0A0B09"/>
<path d="M376.068 78.1585C374.641 76.7319 373.429 75.9478 371.147 75.9478C368.293 75.9478 365.154 78.0873 365.154 82.7955V105.193H355.881V68.0299H364.941V71.5961C366.723 69.4558 370.291 67.6016 374.285 67.6016C377.923 67.6016 380.49 68.5287 383.059 71.0973L376.068 78.1585Z" fill="#0A0B09"/>
<path d="M420.844 105.194C413.212 105.194 410.002 99.8444 410.002 94.5656V52.8241H419.275V93.9943C419.275 96.2064 420.202 97.347 422.555 97.347H426.122V105.194H420.844ZM398.744 75.1076V105.194H389.471V75.1076H385.62V68.0464H389.471V63.4087C389.471 58.1312 392.752 52.7812 400.313 52.7812H405.592V60.6273H402.025C399.815 60.6273 398.744 61.8398 398.744 63.98V68.0464H405.592V75.1076H398.744Z" fill="#0A0B09"/>
<path d="M447.497 77.5885C446.427 76.5184 445 75.9478 443.145 75.9478C441.291 75.9478 439.935 76.5184 438.865 77.5885C436.939 79.514 436.725 82.7237 436.725 86.5765C436.725 90.4281 436.939 93.7096 438.865 95.6344C439.935 96.7045 441.291 97.2758 443.145 97.2758C445 97.2758 446.427 96.7045 447.497 95.6344C449.422 93.7096 449.637 90.4281 449.637 86.5765C449.637 82.7237 449.422 79.514 447.497 77.5885ZM454.701 101.056C452.418 103.482 448.637 105.621 443.145 105.621C437.653 105.621 433.944 103.482 431.661 101.056C428.309 97.5611 427.452 93.3518 427.452 86.5765C427.452 79.8711 428.309 75.6624 431.661 72.1667C433.944 69.7418 437.653 67.6016 443.145 67.6016C448.637 67.6016 452.418 69.7418 454.701 72.1667C458.054 75.6624 458.91 79.8711 458.91 86.5765C458.91 93.3518 458.054 97.5611 454.701 101.056Z" fill="#0A0B09"/>
<path d="M500.524 105.194H492.892L485.117 81.8697L477.342 105.194H469.71L458.297 68.0312H468.141L474.132 91.0001L481.694 68.0312H488.469L496.102 91.0001L502.094 68.0312H511.866L500.524 105.194Z" fill="#0A0B09"/>
<path d="M63.2772 73.1745L19.8521 62.6419L21.9587 53.957L65.3838 64.4889L63.2772 73.1745Z" fill="#B58F52"/>
<path d="M66.1883 62.7866L26.3979 42.4542L30.4643 34.4961L70.2547 54.8285L66.1883 62.7866Z" fill="#C78431"/>
<path d="M72.3173 52.0232L38.667 22.6243L44.5461 15.8945L78.1971 45.2927L72.3173 52.0232Z" fill="#E9812C"/>
<path d="M81.5747 42.5616L56.4814 5.58883L63.8761 0.570312L88.9694 37.543L81.5747 42.5616Z" fill="#E5712A"/>
<path d="M62.5819 84.0399L17.9641 81.6038L18.4511 72.6797L63.0689 75.1165L62.5819 84.0399Z" fill="#9D8469"/>
<path d="M71.8329 105.058V68.035H80.7616L80.7682 113.997H0L0.00197683 67.9961H8.93858V105.058H71.8329Z" fill="#797B7B"/>
<path d="M17.8403 87.2227H62.8278V96.1593H17.8403V87.2227Z" fill="#797B7B"/>
</g>
<defs>
<clipPath id="clip0_1_10692">
<rect width="512" height="114" fill="white"/>
</clipPath>
</defs>
</svg>
