<svg width="256" height="189" viewBox="0 0 256 189" fill="none" xmlns="http://www.w3.org/2000/svg">
<g clip-path="url(#clip0_1_10726)">
<path d="M128 188.3C161.062 188.3 187.865 161.497 187.865 128.435C187.865 95.3727 161.062 68.5703 128 68.5703C94.9376 68.5703 68.1353 95.3727 68.1353 128.435C68.1353 161.497 94.9376 188.3 128 188.3Z" fill="url(#paint0_linear_1_10726)"/>
<path d="M1.61623 59.2547L33.7997 97.374C34.9893 98.7729 36.6899 99.6366 38.5212 99.772C40.3525 99.9074 42.1616 99.3032 43.544 98.0945C95.6621 51.3632 160.201 51.3632 212.456 98.0945C213.838 99.3032 215.648 99.9074 217.479 99.772C219.31 99.6366 221.011 98.7729 222.2 97.374L254.384 59.2547C256.816 56.3704 256.463 52.0638 253.595 49.6134C178.111 -16.5378 78.0263 -16.5378 2.40537 49.6134C-0.463336 52.0638 -0.815838 56.3704 1.61623 59.2547Z" fill="#2684FF"/>
</g>
<defs>
<linearGradient id="paint0_linear_1_10726" x1="6054.61" y1="9982.07" x2="6054.61" y2="-623.627" gradientUnits="userSpaceOnUse">
<stop stop-color="#2684FF"/>
<stop offset="0.82" stop-color="#0052CC"/>
</linearGradient>
<clipPath id="clip0_1_10726">
<rect width="256" height="189" fill="white"/>
</clipPath>
</defs>
</svg>
