<svg width="256" height="306" viewBox="0 0 256 306" fill="none" xmlns="http://www.w3.org/2000/svg">
<g clip-path="url(#clip0_1_10719)">
<path d="M83.6048 0.044584L252.705 169.145C254.658 171.219 256 174.148 256 177.32C256 180.858 254.414 184.03 251.851 186.104L136.433 301.522C131.676 306.281 123.989 306.281 119.231 301.522L3.56868 185.86C-1.18956 181.101 -1.18956 173.415 3.56868 168.657L74.8203 97.283L82.7508 105.214L84.4128 106.85C95.732 118.657 111.114 148.055 87.875 172.805C85.4348 175.245 85.4348 179.028 87.875 181.468L123.501 217.216C125.941 219.656 129.723 219.656 132.163 217.216L167.789 181.59C168.887 180.491 169.741 178.905 169.741 177.198C169.741 175.611 169.009 174.025 167.911 172.928L137.409 142.426L137.532 142.304L83.7267 88.4994C59.3255 63.9758 59.0815 24.5678 83.6048 0.044584ZM154.651 9.18375C166.897 -3.06125 186.75 -3.06125 198.995 9.18375C211.239 21.4287 211.239 41.2818 198.995 53.5268C186.75 65.7718 166.897 65.7718 154.651 53.5268C142.406 41.2818 142.406 21.4287 154.651 9.18375Z" fill="black"/>
</g>
<defs>
<clipPath id="clip0_1_10719">
<rect width="256" height="306" fill="white"/>
</clipPath>
</defs>
</svg>
