<svg width="512" height="159" viewBox="0 0 512 159" fill="none" xmlns="http://www.w3.org/2000/svg">
<g clip-path="url(#clip0_1_10744)">
<path d="M193.719 48.3469C201.96 48.3469 209.753 50.7178 217.098 55.4598L211.456 66.3934C205.633 62.6176 199.317 60.7296 192.51 60.7296C188.928 60.7296 186.017 61.3664 183.777 62.64C181.537 63.9125 180.417 65.8223 180.417 68.3694C180.417 70.6528 181.582 72.3214 183.912 73.375C185.523 74.165 187.785 74.9117 190.696 75.6152C193.608 76.3176 196.183 77.0201 198.423 77.7225C200.662 78.4249 202.833 79.2149 204.939 80.0924C207.044 80.971 209.306 82.2008 211.725 83.7818C216.562 86.9427 218.981 91.8603 218.981 98.5344C218.981 105.209 216.517 110.544 211.59 114.539C206.663 118.535 200.348 120.533 192.644 120.533C187.449 120.533 182.053 119.611 176.454 117.768C170.855 115.923 165.906 113.332 161.606 109.995L168.862 98.5344C177.193 104.682 185.255 107.756 193.048 107.756C196.452 107.756 199.139 106.988 201.11 105.45C203.08 103.914 204.065 101.961 204.065 99.5897C204.065 96.0765 199.318 92.915 189.823 90.1053C189.106 89.8416 188.569 89.6654 188.212 89.5768C173.341 85.6259 165.906 79.0398 165.906 69.8185C165.906 63.3194 168.482 58.1163 173.633 54.2092C178.783 50.301 185.478 48.3469 193.719 48.3469ZM251.407 27.402V49.4005H270.218V61.2565H251.407V96.8227C251.407 100.16 252.303 102.816 254.095 104.792C255.886 106.768 258.394 107.756 261.619 107.756C264.844 107.756 267.934 106.22 270.89 103.146L277.07 113.551C271.786 118.206 265.941 120.533 259.536 120.533C253.132 120.533 247.668 118.359 243.144 114.012C238.621 109.666 236.359 103.804 236.359 96.4271V61.2565H227.357V49.4005H236.359V27.402H251.407ZM352.767 21.7383V119.479H337.719V108.941C332.165 116.669 324.058 120.533 313.398 120.533C304.352 120.533 296.469 117.196 289.75 110.522C283.032 103.848 279.673 95.066 279.673 84.1773C279.673 73.2875 283.122 64.593 290.019 58.0939C296.917 51.5959 305.135 48.3469 314.675 48.3469C324.215 48.3469 331.896 52.2989 337.719 60.2028V21.7383H352.767ZM316.623 61.2565C310.622 61.2565 305.471 63.4956 301.171 67.9739C296.872 72.4532 294.723 78.0518 294.723 84.7698C294.723 91.4877 296.917 96.9545 301.306 101.17C305.695 105.385 310.846 107.492 316.758 107.492C322.669 107.492 327.685 105.363 331.806 101.105C335.926 96.8451 337.986 91.3783 337.986 84.7041C337.986 78.03 335.926 72.4532 331.806 67.9739C327.685 63.4956 322.624 61.2565 316.623 61.2565Z" fill="#F0AD3E"/>
<path d="M453.956 21.7402V61.6539C459.868 52.7839 467.616 48.3488 477.2 48.3488C486.785 48.3488 494.981 51.5978 501.788 58.0958C508.596 64.5949 512 73.2451 512 84.0463C512 94.8486 508.619 103.631 501.856 110.392C495.093 117.154 487.21 120.535 478.208 120.535C469.205 120.535 461.121 116.671 453.956 108.943V119.481H438.908V21.7402H453.956ZM386.401 21.7402V119.481H371.353V21.7402H386.401ZM420.154 49.4025V119.481H405.106V49.4025H420.154ZM475.05 61.2584C469.049 61.2584 463.988 63.4756 459.868 67.9101C455.747 72.3446 453.687 77.899 453.687 84.5731C453.687 91.2473 455.747 96.7141 459.868 100.974C463.988 105.233 469.004 107.363 474.916 107.363C480.828 107.363 485.979 105.255 490.367 101.039C494.757 96.8246 496.952 91.3584 496.952 84.6404C496.952 77.9214 494.802 72.3446 490.502 67.9101C486.203 63.4756 481.053 61.2584 475.05 61.2584ZM412.764 19.5C415.361 19.5 417.601 20.4223 419.483 22.267C421.364 24.1106 422.304 26.306 422.304 28.8531C422.304 31.4003 421.364 33.5956 419.483 35.4392C417.601 37.2839 415.361 38.2063 412.764 38.2063C410.166 38.2063 407.927 37.2839 406.046 35.4392C404.166 33.5956 403.225 31.4003 403.225 28.8531C403.225 26.306 404.166 24.1106 406.046 22.267C407.927 20.4223 410.166 19.5 412.764 19.5Z" fill="#00AEEF"/>
<path d="M71.1209 0L46.8822 13.9386C43.7951 15.7456 41.1298 18.1926 39.0685 21.1172C36.1012 25.2497 36.1012 30.815 39.0685 34.9475C41.1396 37.8376 43.8033 40.2518 46.8822 42.0308L62.9625 51.315C62.1928 50.7538 61.4805 50.1203 60.8323 49.4244C55.313 43.4636 55.6724 34.1597 61.6332 28.642C70.535 22.7206 74.7463 10.0145 71.1209 0Z" fill="url(#paint0_linear_1_10744)"/>
<path d="M117.544 107.162L105.817 100.391C109.219 102.304 111.289 105.936 111.202 109.837C111.113 113.738 108.883 117.274 105.399 119.031L80.3099 133.58C74.7725 136.595 71.2686 142.339 71.1208 148.643V158.394L118.046 131.307C122.203 128.665 124.679 124.043 124.578 119.117C124.474 114.191 121.807 109.676 117.544 107.211V107.162Z" fill="url(#paint1_linear_1_10744)"/>
<path d="M46.8821 41.969C43.8033 40.19 41.1396 37.7758 39.0684 34.8856C36.1012 30.7531 36.1012 25.1878 39.0684 21.0553C41.1363 18.1537 43.8 15.7264 46.8821 13.9375L28.4089 24.7053C22.9914 27.945 19.6548 33.7762 19.605 40.0898C19.5563 46.4019 22.8026 52.2839 28.1693 55.6089L117.544 107.211C121.807 109.676 124.474 114.191 124.578 119.116C124.679 124.043 122.203 128.665 118.046 131.307L133.383 122.453C138.83 119.307 142.183 113.494 142.183 107.205C142.183 100.916 138.83 95.1025 133.383 91.9563L46.8821 41.969Z" fill="#F0AD3E"/>
<path d="M71.1209 0L46.8822 13.9386C43.7951 15.7456 41.1298 18.1926 39.0685 21.1172C36.1012 25.2497 36.1012 30.815 39.0685 34.9475C41.1396 37.8376 43.8033 40.2518 46.8822 42.0308L62.9625 51.315C62.1928 50.7538 61.4805 50.1203 60.8323 49.4244C55.313 43.4636 55.6724 34.1597 61.6332 28.642C70.535 22.7206 74.7463 10.0145 71.1209 0Z" fill="url(#paint2_linear_1_10744)"/>
<path d="M117.544 107.162L105.817 100.391C109.219 102.304 111.289 105.936 111.202 109.837C111.113 113.738 108.883 117.274 105.399 119.031L80.3099 133.58C74.7725 136.595 71.2686 142.339 71.1208 148.643V158.394L118.046 131.307C122.203 128.665 124.679 124.043 124.578 119.117C124.474 114.191 121.807 109.676 117.544 107.211V107.162Z" fill="url(#paint3_linear_1_10744)"/>
<path d="M46.8821 41.969C43.8033 40.19 41.1396 37.7758 39.0684 34.8856C36.1012 30.7531 36.1012 25.1878 39.0684 21.0553C41.1363 18.1537 43.8 15.7264 46.8821 13.9375L28.4089 24.7053C22.9914 27.945 19.6548 33.7762 19.605 40.0898C19.5563 46.4019 22.8026 52.2839 28.1693 55.6089L117.544 107.211C121.807 109.676 124.474 114.191 124.578 119.116C124.679 124.043 122.203 128.665 118.046 131.307L133.383 122.453C138.83 119.307 142.183 113.494 142.183 107.205C142.183 100.916 138.83 95.1025 133.383 91.9563L46.8821 41.969Z" fill="#F0AD3E"/>
<path d="M26.0046 112.786C20.6363 109.461 17.3917 103.579 17.4409 97.2673C17.4885 90.9537 20.825 85.1225 26.2442 81.8828L8.81154 91.9088C3.35951 95.0501 0 100.865 0 107.157C0 113.449 3.35951 119.263 8.81154 122.405L24.1501 131.258L71.1209 158.346V148.595C70.9535 142.31 67.4529 136.589 61.9335 133.58L36.8086 119.092C36.4541 118.911 36.1111 118.711 35.7796 118.493L26.0046 112.786Z" fill="#00AEEF"/>
<path d="M92.2496 68.1609L114.78 55.1562C120.225 52.0084 123.578 46.1969 123.578 39.9079C123.578 33.6172 120.225 27.8058 114.78 24.6596L108.653 21.0703C110.747 26.7209 108.954 33.0789 104.214 36.8027L71.1209 55.9456L26.2442 81.8714C20.825 85.1128 17.4885 90.9439 17.4404 97.2559C17.3917 103.57 20.6363 109.452 26.0046 112.775L35.8157 118.435C32.7532 116.44 30.9413 113.005 31.0217 109.351C31.1022 105.698 33.0634 102.347 36.2095 100.489L92.2496 68.1609Z" fill="url(#paint4_linear_1_10744)"/>
<path d="M26.0046 112.786C20.6363 109.461 17.3917 103.579 17.4409 97.2673C17.4885 90.9537 20.825 85.1225 26.2442 81.8828L8.81154 91.9088C3.35951 95.0501 0 100.865 0 107.157C0 113.449 3.35951 119.263 8.81154 122.405L24.1501 131.258L71.1209 158.346V148.595C70.9535 142.31 67.4529 136.589 61.9335 133.58L36.8086 119.092C36.4541 118.911 36.1111 118.711 35.7796 118.493L26.0046 112.786Z" fill="#00AEEF"/>
<path d="M92.2496 68.1609L114.78 55.1562C120.225 52.0084 123.578 46.1969 123.578 39.9079C123.578 33.6172 120.225 27.8058 114.78 24.6596L108.653 21.0703C110.747 26.7209 108.954 33.0789 104.214 36.8027L71.1209 55.9456L26.2442 81.8714C20.825 85.1128 17.4885 90.9439 17.4404 97.2559C17.3917 103.57 20.6363 109.452 26.0046 112.775L35.8157 118.435C32.7532 116.44 30.9413 113.005 31.0217 109.351C31.1022 105.698 33.0634 102.347 36.2095 100.489L92.2496 68.1609Z" fill="url(#paint5_linear_1_10744)"/>
</g>
<defs>
<linearGradient id="paint0_linear_1_10744" x1="1207.4" y1="4009.26" x2="3601.92" y2="2626.42" gradientUnits="userSpaceOnUse">
<stop stop-color="#A4681D"/>
<stop offset="0.31" stop-color="#E18F2F"/>
<stop offset="1" stop-color="#F0AD3E"/>
</linearGradient>
<linearGradient id="paint1_linear_1_10744" x1="-223.776" y1="4473.34" x2="4974.89" y2="1471.81" gradientUnits="userSpaceOnUse">
<stop stop-color="#F0AD3E"/>
<stop offset="0.69" stop-color="#E18F2F"/>
<stop offset="1" stop-color="#A4681D"/>
</linearGradient>
<linearGradient id="paint2_linear_1_10744" x1="1207.4" y1="4009.26" x2="3601.92" y2="2626.42" gradientUnits="userSpaceOnUse">
<stop stop-color="#A4681D"/>
<stop offset="0.31" stop-color="#E18F2F"/>
<stop offset="1" stop-color="#F0AD3E"/>
</linearGradient>
<linearGradient id="paint3_linear_1_10744" x1="-223.776" y1="4473.34" x2="4974.89" y2="1471.81" gradientUnits="userSpaceOnUse">
<stop stop-color="#F0AD3E"/>
<stop offset="0.69" stop-color="#E18F2F"/>
<stop offset="1" stop-color="#A4681D"/>
</linearGradient>
<linearGradient id="paint4_linear_1_10744" x1="17.1668" y1="4891.63" x2="10631.9" y2="4891.63" gradientUnits="userSpaceOnUse">
<stop stop-color="#006991"/>
<stop offset="0.25" stop-color="#008BBF"/>
<stop offset="0.62" stop-color="#008BBF"/>
<stop offset="1" stop-color="#00AEEF"/>
</linearGradient>
<linearGradient id="paint5_linear_1_10744" x1="17.1668" y1="4891.63" x2="10631.9" y2="4891.63" gradientUnits="userSpaceOnUse">
<stop stop-color="#006991"/>
<stop offset="0.25" stop-color="#008BBF"/>
<stop offset="0.62" stop-color="#008BBF"/>
<stop offset="1" stop-color="#00AEEF"/>
</linearGradient>
<clipPath id="clip0_1_10744">
<rect width="512" height="159" fill="white"/>
</clipPath>
</defs>
</svg>
