<svg width="512" height="118" viewBox="0 0 512 118" fill="none" xmlns="http://www.w3.org/2000/svg">
<g clip-path="url(#clip0_1_10788)">
<path d="M179.446 50.4027C175.816 46.9788 171.666 45.8376 166.79 45.8376C160.774 45.8376 157.454 47.705 157.454 50.9232C157.454 54.2429 160.461 56.112 166.997 56.5271C176.646 57.1491 188.887 59.3289 188.887 72.9243C188.887 81.9534 181.521 89.7367 166.893 89.7367C158.802 89.7367 150.709 88.3885 143.241 80.6039L149.465 71.5761C153.096 75.6233 161.394 78.6333 167.101 78.7374C171.873 78.8415 176.333 76.3507 176.333 72.6146C176.333 69.0867 173.43 67.6327 166.167 67.2176C156.52 66.4928 145.003 62.9622 145.003 51.3383C145.003 39.5075 157.246 35.3562 166.582 35.3562C174.571 35.3562 180.587 36.9139 186.501 42.1024L179.446 50.4027ZM212.974 14.2539V36.9126H227.083V47.8091H212.87V69.9143C212.87 74.7931 215.568 77.181 219.509 77.181C221.482 77.181 223.764 76.5577 225.63 75.6233L229.158 86.4157C225.528 87.8705 222.518 88.4913 218.68 88.5954C207.579 89.0105 200.317 82.6808 200.317 69.9143V47.8091H190.773V36.9126H200.317V23.7297L212.974 14.2539ZM243.389 66.903C244.219 73.2341 249.718 77.8005 258.639 77.8005C263.308 77.8005 269.428 76.0358 272.333 73.0271L280.425 81.0177C275.03 86.6226 266.211 89.3203 258.431 89.3203C240.795 89.3203 230.318 78.4238 230.318 62.0253C230.318 46.4583 240.899 35.2508 257.498 35.2508C274.616 35.2508 285.301 45.8363 283.329 66.903H243.389ZM271.191 56.4217C270.364 49.7793 265.176 46.4583 257.913 46.4583C251.067 46.4583 245.465 49.7793 243.599 56.4217H271.191ZM289.158 105.521V36.8085H300.983L301.813 43.8647C305.755 38.1567 312.603 35.666 318.413 35.666C334.18 35.666 344.659 47.394 344.659 62.443C344.659 77.3866 335.218 89.2174 318.827 89.2174C313.434 89.2174 305.445 87.5569 301.814 81.9534V117.976L289.158 105.521ZM332.005 62.4417C332.005 54.4498 326.609 47.9119 317.478 47.9119C308.348 47.9119 302.956 54.4498 302.956 62.4417C302.956 70.4323 308.869 76.9702 317.478 76.9702C326.088 76.9715 332.005 70.4323 332.005 62.4417ZM383.478 50.4027C379.848 46.9788 375.7 45.8376 370.824 45.8376C364.807 45.8376 361.487 47.705 361.487 50.9232C361.487 54.2429 364.494 56.112 371.031 56.5271C380.679 57.1491 392.919 59.3289 392.919 72.9243C392.919 81.9534 385.554 89.7367 370.928 89.7367C362.835 89.7367 354.743 88.3885 347.274 80.6039L353.498 71.5761C357.129 75.6233 365.428 78.6333 371.135 78.7374C375.907 78.8415 380.365 76.3507 380.365 72.6146C380.365 69.0867 377.462 67.6327 370.197 67.2176C360.549 66.4928 349.036 62.9622 349.036 51.3383C349.036 39.5075 361.277 35.3562 370.614 35.3562C378.603 35.3562 384.62 36.9139 390.53 42.1024L383.478 50.4027ZM397.087 87.9734H409.744V36.6003H397.087V87.9734ZM459.058 36.8085L437.39 75.5192H456.692L456.491 87.9746H413.21L438.819 48.3283H417.015L417.284 36.8085H459.058ZM471.826 66.903C472.657 73.2341 478.153 77.8005 487.073 77.8005C491.745 77.8005 497.865 76.0358 500.768 73.0271L508.861 81.0177C503.465 86.6226 494.648 89.3203 486.866 89.3203C469.233 89.3203 458.754 78.4238 458.754 62.0253C458.754 46.4583 469.336 35.2508 485.935 35.2508C503.051 35.2508 513.736 45.8363 511.767 66.903H471.826ZM499.627 56.4217C498.796 49.7793 493.61 46.4583 486.345 46.4583C479.501 46.4583 473.898 49.7793 472.033 56.4217H499.627Z" fill="#D11E8E"/>
<path d="M125.821 27.7147L105.642 0.398438H47.8752L30.0703 55.4267L50.2492 82.743L67.6584 27.7147H125.821ZM75.5717 32.8614L95.3549 60.1774L78.3415 115.206H20.1787L0 87.8897H58.1625L75.5717 32.8614Z" fill="#D11E8E"/>
<path d="M78.0805 115.599L49.1528 115.513L57.8553 87.8828L78.0805 115.599Z" fill="#D11E8E"/>
<path d="M49.1472 115.506L20.2195 115.419L28.922 87.7891L49.1472 115.506Z" fill="#9F20A8"/>
<path d="M66.5559 60.2539L95.4836 60.3402L86.7811 87.9705L66.5559 60.2539Z" fill="#9F20A8"/>
<path d="M0 87.7148L28.9277 87.8008L20.2252 115.431L0 87.7148Z" fill="#613AB5"/>
<path d="M95.4836 60.3377L66.5559 60.2517L75.2584 32.6211L95.4836 60.3377Z" fill="#613AB5"/>
<path d="M57.8545 87.8828L86.7822 87.9691L78.0797 115.599L57.8545 87.8828Z" fill="#D11E8E"/>
<path d="M49.1471 115.516L57.8486 87.8868L28.9209 87.8008L49.1471 115.516Z" fill="url(#paint0_linear_1_10788)"/>
<path d="M57.8545 87.8854L86.7822 87.9705L66.556 60.2539L57.8545 87.8854Z" fill="url(#paint1_linear_1_10788)"/>
<path d="M47.7385 0L76.6662 0.0861293L67.9637 27.7166L47.7385 0Z" fill="#613AB5"/>
<path d="M76.6719 0.0976562L105.6 0.183786L96.8971 27.814L76.6719 0.0976562Z" fill="#9F20A8"/>
<path d="M59.2631 55.3491L30.3354 55.2631L39.0379 27.6328L59.2631 55.3491Z" fill="#9F20A8"/>
<path d="M125.819 27.8884L96.8914 27.8021L105.594 0.171875L125.819 27.8884Z" fill="#D11E8E"/>
<path d="M30.3354 55.2617L59.2631 55.3477L50.5606 82.978L30.3354 55.2617Z" fill="#D11E8E"/>
<path d="M67.9645 27.7166L39.0369 27.6303L47.7394 0L67.9645 27.7166Z" fill="#613AB5"/>
<path d="M67.9705 27.7172L96.8981 27.8023L76.672 0.0859375L67.9705 27.7172Z" fill="url(#paint2_linear_1_10788)"/>
<path d="M59.2608 55.3491L67.9636 27.7188L39.0369 27.6328L59.2608 55.3491Z" fill="url(#paint3_linear_1_10788)"/>
</g>
<defs>
<linearGradient id="paint0_linear_1_10788" x1="969.683" y1="-430.606" x2="2888.05" y2="2190.07" gradientUnits="userSpaceOnUse">
<stop stop-color="#613AB5"/>
<stop offset="0.198075" stop-color="#613AB5"/>
<stop offset="1" stop-color="#D11E8E"/>
</linearGradient>
<linearGradient id="paint1_linear_1_10788" x1="-12.6591" y1="806.056" x2="1905.79" y2="3426.89" gradientUnits="userSpaceOnUse">
<stop stop-color="#613AB5"/>
<stop offset="0.198075" stop-color="#613AB5"/>
<stop offset="1" stop-color="#D11E8E"/>
</linearGradient>
<linearGradient id="paint2_linear_1_10788" x1="2019.98" y1="3290.27" x2="101.519" y2="669.466" gradientUnits="userSpaceOnUse">
<stop stop-color="#D11E8E"/>
<stop offset="0.801925" stop-color="#613AB5"/>
<stop offset="1" stop-color="#613AB5"/>
</linearGradient>
<linearGradient id="paint3_linear_1_10788" x1="3002.22" y1="2053.48" x2="1083.72" y2="-567.39" gradientUnits="userSpaceOnUse">
<stop stop-color="#D11E8E"/>
<stop offset="0.801925" stop-color="#613AB5"/>
<stop offset="1" stop-color="#613AB5"/>
</linearGradient>
<clipPath id="clip0_1_10788">
<rect width="512" height="118" fill="white"/>
</clipPath>
</defs>
</svg>
