<svg width="256" height="236" viewBox="0 0 256 236" fill="none" xmlns="http://www.w3.org/2000/svg">
<g clip-path="url(#clip0_1_10769)">
<path d="M256 56.3911L214.943 0.8125H97.4087L61.1821 112.775L102.239 168.354L137.66 56.3911H256ZM153.761 66.8629L194.013 122.441L159.397 234.404H41.0563L0 178.826H118.34L153.761 66.8629Z" fill="#D11E8E"/>
<path d="M158.866 235.206L100.008 235.03L117.715 178.812L158.866 235.206Z" fill="#D11E8E"/>
<path d="M99.9965 235.01L41.1392 234.835L58.8456 178.617L99.9965 235.01Z" fill="#9F20A8"/>
<path d="M135.417 122.594L194.275 122.769L176.568 178.987L135.417 122.594Z" fill="#9F20A8"/>
<path d="M0 178.465L58.8574 178.64L41.151 234.857L0 178.465Z" fill="#613AB5"/>
<path d="M194.275 122.764L135.417 122.589L153.124 66.3711L194.275 122.764Z" fill="#613AB5"/>
<path d="M117.713 178.812L176.57 178.988L158.864 235.206L117.713 178.812Z" fill="#D11E8E"/>
<path d="M99.9964 235.031L117.701 178.816L58.8435 178.641L99.9964 235.031Z" fill="url(#paint0_linear_1_10769)"/>
<path d="M117.713 178.814L176.57 178.987L135.417 122.594L117.713 178.814Z" fill="url(#paint1_linear_1_10769)"/>
<path d="M97.1304 0L155.988 0.175242L138.281 56.3932L97.1304 0Z" fill="#613AB5"/>
<path d="M156 0.199219L214.857 0.374461L197.15 56.5919L156 0.199219Z" fill="#9F20A8"/>
<path d="M120.579 112.615L61.7214 112.44L79.4278 56.2227L120.579 112.615Z" fill="#9F20A8"/>
<path d="M255.996 56.7447L197.139 56.569L214.846 0.351562L255.996 56.7447Z" fill="#D11E8E"/>
<path d="M61.7214 112.438L120.579 112.612L102.872 168.83L61.7214 112.438Z" fill="#D11E8E"/>
<path d="M138.283 56.3932L79.426 56.2176L97.1324 0L138.283 56.3932Z" fill="#613AB5"/>
<path d="M138.295 56.3916L197.153 56.5646L156 0.171875L138.295 56.3916Z" fill="url(#paint2_linear_1_10769)"/>
<path d="M120.574 112.615L138.281 56.3976L79.426 56.2227L120.574 112.615Z" fill="url(#paint3_linear_1_10769)"/>
</g>
<defs>
<linearGradient id="paint0_linear_1_10769" x1="1972.95" y1="-876.129" x2="5876.13" y2="4456" gradientUnits="userSpaceOnUse">
<stop stop-color="#613AB5"/>
<stop offset="0.198075" stop-color="#613AB5"/>
<stop offset="1" stop-color="#D11E8E"/>
</linearGradient>
<linearGradient id="paint1_linear_1_10769" x1="-25.7567" y1="1640.03" x2="3877.58" y2="6972.47" gradientUnits="userSpaceOnUse">
<stop stop-color="#613AB5"/>
<stop offset="0.198075" stop-color="#613AB5"/>
<stop offset="1" stop-color="#D11E8E"/>
</linearGradient>
<linearGradient id="paint2_linear_1_10769" x1="4109.92" y1="6694.5" x2="206.553" y2="1362.12" gradientUnits="userSpaceOnUse">
<stop stop-color="#D11E8E"/>
<stop offset="0.801925" stop-color="#613AB5"/>
<stop offset="1" stop-color="#613AB5"/>
</linearGradient>
<linearGradient id="paint3_linear_1_10769" x1="6108.43" y1="4178.1" x2="2204.98" y2="-1154.43" gradientUnits="userSpaceOnUse">
<stop stop-color="#D11E8E"/>
<stop offset="0.801925" stop-color="#613AB5"/>
<stop offset="1" stop-color="#613AB5"/>
</linearGradient>
<clipPath id="clip0_1_10769">
<rect width="256" height="236" fill="white"/>
</clipPath>
</defs>
</svg>
