<svg width="256" height="252" viewBox="0 0 256 252" fill="none" xmlns="http://www.w3.org/2000/svg">
<g clip-path="url(#clip0_1_10819)">
<path d="M213.917 16.5117C197.168 34.7681 185.418 48.1915 178.669 56.7817C172.186 65.034 164.086 76.8746 154.37 92.3033L168.996 162.601C174.724 163.31 196.785 168.197 203.04 168.498C245.641 170.562 253.63 155.507 254.9 154.943C255.141 153.573 259.852 127.576 247.731 86.7276C240.331 61.6477 228.912 37.9343 213.917 16.5117Z" fill="url(#paint0_radial_1_10819)"/>
<path d="M154.355 92.3028L213.902 16.5112C189.54 7.0125 163.799 1.52891 137.68 0.274155C95.1238 -1.83436 70.9798 8.89384 69.7103 9.45437C69.4615 10.8205 61.9984 37.5937 74.0853 78.4982C75.8099 84.261 80.4703 89.103 82.5952 94.7306L154.355 92.3028Z" fill="url(#paint1_radial_1_10819)"/>
<path d="M69.7436 9.45703L1.12029 96.1179C0.867864 97.4802 -3.86145 123.399 8.2254 164.303C13.5632 182.186 20.8559 199.425 29.9713 215.709L95.7363 123.833C87.9327 109.097 81.606 93.6244 76.8487 77.6423C64.7619 36.7378 69.4912 10.8231 69.7436 9.45703Z" fill="url(#paint2_linear_1_10819)"/>
<path d="M254.896 154.949C253.63 155.513 229.568 166.245 186.963 164.181C170.301 163.342 153.763 160.855 137.591 156.757L63.9044 242.371C81.8843 247.375 100.361 250.38 119.001 251.332C161.601 253.396 185.664 242.668 186.933 242.104L254.896 154.949Z" fill="url(#paint3_linear_1_10819)"/>
</g>
<defs>
<radialGradient id="paint0_radial_1_10819" cx="0" cy="0" r="1" gradientUnits="userSpaceOnUse" gradientTransform="translate(-10020.2 -3769.73) scale(28366.4 28366.4)">
<stop stop-color="#FFBE6E"/>
<stop offset="0.313" stop-color="#FA9B68"/>
<stop offset="1" stop-color="#F0465A"/>
</radialGradient>
<radialGradient id="paint1_radial_1_10819" cx="0" cy="0" r="1" gradientUnits="userSpaceOnUse" gradientTransform="translate(9344.66 10193) scale(31439.1 31439.1)">
<stop stop-color="#FFBE6E"/>
<stop offset="0.282" stop-color="#FBAB69"/>
<stop offset="0.848" stop-color="#F27B5D"/>
<stop offset="1" stop-color="#F06E5A"/>
</radialGradient>
<linearGradient id="paint2_linear_1_10819" x1="-469.108" y1="-8550.02" x2="18798.5" y2="6949.82" gradientUnits="userSpaceOnUse">
<stop stop-color="#003EE2"/>
<stop offset="0.108" stop-color="#1458E6"/>
<stop offset="0.259" stop-color="#2C77EC"/>
<stop offset="0.418" stop-color="#3F8EF0"/>
<stop offset="0.587" stop-color="#4C9FF3"/>
<stop offset="0.771" stop-color="#54A9F5"/>
<stop offset="1" stop-color="#57ADF6"/>
</linearGradient>
<linearGradient id="paint3_linear_1_10819" x1="23976.1" y1="4987.27" x2="-8664.41" y2="4987.27" gradientUnits="userSpaceOnUse">
<stop stop-color="#003EE2"/>
<stop offset="0.268" stop-color="#1E64E8"/>
<stop offset="0.588" stop-color="#3C8BF0"/>
<stop offset="0.844" stop-color="#4FA4F4"/>
<stop offset="1" stop-color="#57ADF6"/>
</linearGradient>
<clipPath id="clip0_1_10819">
<rect width="256" height="252" fill="white"/>
</clipPath>
</defs>
</svg>
