<svg width="512" height="151" viewBox="0 0 512 151" fill="none" xmlns="http://www.w3.org/2000/svg">
<g clip-path="url(#clip0_1_10825)">
<path d="M127.55 9.84375C117.563 20.7293 110.557 28.7331 106.533 33.8551C102.667 38.7756 97.8378 45.8356 92.0446 55.0352L100.765 96.9507C104.181 97.3735 117.335 100.288 121.064 100.467C146.466 101.698 151.229 92.7208 151.986 92.3844C152.13 91.5676 154.939 76.0671 147.712 51.7106C143.3 36.7565 136.491 22.6172 127.55 9.84375Z" fill="url(#paint0_radial_1_10825)"/>
<path d="M92.0357 55.0364L127.541 9.84497C113.015 4.18126 97.6663 0.911627 82.0931 0.163467C56.7184 -1.09376 42.3223 5.30303 41.5653 5.63726C41.417 6.45179 36.9671 22.4156 44.174 46.8053C45.2023 50.2414 47.9811 53.1285 49.2481 56.4839L92.0357 55.0364Z" fill="url(#paint1_radial_1_10825)"/>
<path d="M41.5853 5.64062L0.667984 57.3129C0.517472 58.1252 -2.30243 73.5793 4.90447 97.969C8.08719 108.632 12.4355 118.911 17.8707 128.62L57.0836 73.8383C52.4306 65.0516 48.6583 55.8262 45.8218 46.2967C38.6149 21.9071 41.4348 6.45516 41.5853 5.64062Z" fill="url(#paint2_linear_1_10825)"/>
<path d="M151.984 92.3906C151.229 92.7271 136.882 99.1261 111.478 97.8954C101.544 97.3948 91.6827 95.9119 82.04 93.4686L38.1036 144.517C48.8243 147.5 59.8415 149.292 70.9552 149.86C96.3564 151.091 110.704 144.694 111.461 144.357L151.984 92.3906Z" fill="url(#paint3_linear_1_10825)"/>
<path d="M243.625 98.5595C243.625 113.073 230.745 122.042 211.178 122.042C201.82 122.272 192.544 120.255 184.128 116.163C185.047 110.713 185.591 105.209 185.753 99.6861C193.139 103.94 201.51 106.194 210.036 106.225C219.82 106.225 224.866 103.943 224.866 99.2124C225.028 94.4846 221.442 92.3641 206.767 89.5929C189.81 86.1687 182.309 79.1566 182.309 66.7659C182.309 52.7417 195.191 43.6113 214.758 43.6113C222.925 43.5206 231.028 45.0434 238.609 48.0891L235.334 63.8309C228.868 60.8981 221.847 59.3974 214.749 59.4284C205.618 59.4284 201.054 61.7105 201.054 66.1129C201.054 70.0263 204.153 71.6465 218.5 74.5926C236.777 78.5037 243.625 85.5158 243.625 98.5595ZM286.565 104.757C279.23 104.757 273.358 100.844 273.358 90.569V61.872H291.951L295.41 45.2404H273.351V21.5568C267.01 23.3475 260.511 24.5139 253.944 25.0429L253.785 93.8427C253.785 112.595 265.035 122.054 281.829 122.054C285.184 122.075 288.533 121.723 291.811 121.004L295.474 103.405C292.597 104.352 289.582 104.81 286.554 104.757H286.565ZM307.801 120.99H327.368V45.2382H307.803L307.801 120.99ZM317.664 14.2348C309.231 14.0046 303.711 22.9911 307.73 30.4083C309.629 33.9143 313.286 36.1122 317.274 36.1477C323.35 36.4575 328.437 31.5947 328.403 25.5122C328.711 19.3677 323.808 14.2215 317.657 14.2348H317.664ZM420.909 45.2382V109.157C420.909 133.284 404.605 149.922 377.046 149.922C367.171 149.922 356.217 147.737 348.875 143.534C352.853 139.552 356.445 135.207 359.608 130.554C364.591 132.257 369.823 133.124 375.091 133.124C392.537 133.124 401.342 123.503 401.342 111.273V108.828C394.844 116.34 385.346 120.581 375.416 120.406C354.872 120.406 339.38 105.078 339.38 82.4126C339.38 60.0747 356.337 43.6047 377.046 43.6047C387.039 43.2328 396.674 47.3631 403.301 54.8555L403.952 45.236L420.909 45.2382ZM401.506 82.4236C401.568 66.2922 384.146 56.1415 370.144 64.1541C356.144 72.1644 356.065 92.3265 370.002 100.448C373.23 102.327 376.899 103.309 380.634 103.296C392.254 103.518 401.734 94.0374 401.51 82.417L401.506 82.4236ZM512 45.2382V109.157C512 133.284 495.694 149.922 468.137 149.922C458.26 149.922 447.308 147.737 439.964 143.534C443.942 139.552 447.534 135.207 450.697 130.554C455.68 132.259 460.91 133.129 466.178 133.129C483.626 133.129 492.431 123.507 492.431 111.278V108.832C485.933 116.344 476.435 120.585 466.505 120.41C445.96 120.41 430.469 105.082 430.469 82.417C430.469 60.0792 447.428 43.6091 468.137 43.6091C478.13 43.2395 487.763 47.3675 494.39 54.8599L495.054 45.2404L512 45.2382ZM492.595 82.4236C492.655 66.2944 475.233 56.1459 461.235 64.1585C447.235 72.1689 447.16 92.3309 461.098 100.448C464.323 102.327 467.991 103.309 471.725 103.296C483.345 103.518 492.825 94.0374 492.599 82.417L492.595 82.4236Z" fill="#001E6C"/>
</g>
<defs>
<radialGradient id="paint0_radial_1_10825" cx="0" cy="0" r="1" gradientUnits="userSpaceOnUse" gradientTransform="translate(-5974.61 -2247.78) scale(16913.7 16913.7)">
<stop stop-color="#FFBE6E"/>
<stop offset="0.313" stop-color="#FA9B68"/>
<stop offset="1" stop-color="#F0465A"/>
</radialGradient>
<radialGradient id="paint1_radial_1_10825" cx="0" cy="0" r="1" gradientUnits="userSpaceOnUse" gradientTransform="translate(5571.98 6077.67) scale(18745.9 18745.8)">
<stop stop-color="#FFBE6E"/>
<stop offset="0.282" stop-color="#FBAB69"/>
<stop offset="0.848" stop-color="#F27B5D"/>
<stop offset="1" stop-color="#F06E5A"/>
</radialGradient>
<linearGradient id="paint2_linear_1_10825" x1="-279.71" y1="-5098.02" x2="11208.8" y2="4143.89" gradientUnits="userSpaceOnUse">
<stop stop-color="#003EE2"/>
<stop offset="0.108" stop-color="#1458E6"/>
<stop offset="0.259" stop-color="#2C77EC"/>
<stop offset="0.418" stop-color="#3F8EF0"/>
<stop offset="0.587" stop-color="#4C9FF3"/>
<stop offset="0.771" stop-color="#54A9F5"/>
<stop offset="1" stop-color="#57ADF6"/>
</linearGradient>
<linearGradient id="paint3_linear_1_10825" x1="14295.9" y1="2973.7" x2="-5166.23" y2="2973.7" gradientUnits="userSpaceOnUse">
<stop stop-color="#003EE2"/>
<stop offset="0.268" stop-color="#1E64E8"/>
<stop offset="0.588" stop-color="#3C8BF0"/>
<stop offset="0.844" stop-color="#4FA4F4"/>
<stop offset="1" stop-color="#57ADF6"/>
</linearGradient>
<clipPath id="clip0_1_10825">
<rect width="512" height="151" fill="white"/>
</clipPath>
</defs>
</svg>
