<svg width="256" height="256" viewBox="0 0 256 256" fill="none" xmlns="http://www.w3.org/2000/svg">
<g clip-path="url(#clip0_1_10833)">
<path d="M256 143.189V188.373H203.307C198.887 188.197 194.557 187.116 190.581 185.202L189.269 184.533L176.469 177.109C172.722 175.175 168.317 175.046 164.482 176.722L163.669 177.109L147.285 186.709C145.837 187.431 144.922 188.91 144.922 190.528C144.922 191.966 145.645 193.295 146.823 194.079L147.285 194.347L181.76 214.571C185.639 216.669 189.905 217.943 194.289 218.319L195.755 218.411H256V248.533C255.956 252.437 252.954 255.625 249.135 255.969L248.491 256H7.50933C3.6513 255.98 0.466745 253.065 0.0444482 249.297L0 248.661V218.539H60.0747C64.4819 218.364 68.8004 217.282 72.7623 215.368L74.0693 214.699L189.269 147.029C193.17 144.949 197.445 143.678 201.838 143.287L203.307 143.189H256ZM256 67.7547V112.939H195.925C191.521 113.132 187.207 114.215 183.24 116.115L181.931 116.779L66.7307 184.491C62.8303 186.571 58.5551 187.842 54.1618 188.233L52.6933 188.331H0V143.147H60.0747C64.479 142.953 68.7935 141.871 72.7603 139.97L74.0693 139.307L189.269 71.5947C193.17 69.5139 197.445 68.243 201.838 67.8522L203.307 67.7547H256ZM248.491 0C252.373 0 255.576 2.94752 255.962 6.74152L256 7.38133V37.504H195.925C191.518 37.679 187.2 38.7605 183.238 40.6751L181.931 41.344L66.7307 109.013C62.8372 111.111 58.5591 112.385 54.1628 112.761L52.6933 112.853H0V67.6693H52.6933C57.1097 67.8637 61.4365 68.9459 65.417 70.8458L66.7307 71.5093L79.5307 78.976C83.278 80.9105 87.6831 81.0394 91.5181 79.3629L92.3307 78.976L108.715 69.3333C110.14 68.6033 111.036 67.137 111.036 65.536C111.036 64.1129 110.328 62.7962 109.17 62.0084L74.24 41.472C70.3536 39.3907 66.091 38.1195 61.7098 37.7293L60.2453 37.632H0V7.50933C0 3.56941 3.03424 0.338167 6.89345 0.0248932L7.50933 0H248.491Z" fill="#77E8B9"/>
</g>
<defs>
<clipPath id="clip0_1_10833">
<rect width="256" height="256" fill="white"/>
</clipPath>
</defs>
</svg>
