<svg width="256" height="256" viewBox="0 0 256 256" fill="none" xmlns="http://www.w3.org/2000/svg">
<g clip-path="url(#clip0_1_10843)">
<path d="M250.422 128C250.422 195.612 195.612 250.422 128 250.422C60.3879 250.422 5.57788 195.612 5.57788 128C5.57788 60.3881 60.3879 5.57812 128 5.57812C195.612 5.57812 250.422 60.3881 250.422 128Z" fill="white"/>
<path d="M127.755 53.5395C130.252 53.5395 132.283 55.5705 132.283 58.0675C132.283 60.5645 130.252 62.5955 127.755 62.5955C125.258 62.5955 123.227 60.5645 123.227 58.0675C123.227 55.5705 125.258 53.5395 127.755 53.5395ZM177.626 74.1245H132.956V69.2515C137.167 67.2855 140.093 63.0135 140.093 58.0675C140.093 51.2645 134.558 45.7305 127.755 45.7305C120.952 45.7305 115.417 51.2645 115.417 58.0675C115.417 62.9905 118.317 67.2485 122.497 69.2255V74.1245H77.7799C75.3159 74.1245 73.3179 76.1225 73.3179 78.5865V146.359C73.3179 148.824 75.3159 150.822 77.7799 150.822H158.103V190.146H97.1169V179.269C97.1169 176.805 95.1199 174.807 92.6549 174.807C90.1899 174.807 88.1929 176.805 88.1929 179.269V194.609C88.1929 197.073 90.1899 199.071 92.6549 199.071H109.11V204.928C109.11 205.542 109.612 206.044 110.226 206.044H121.661C122.274 206.044 122.776 205.542 122.776 204.928V199.071H132.642V204.928C132.642 205.542 133.144 206.044 133.758 206.044H145.193C145.806 206.044 146.308 205.542 146.308 204.928V199.071H162.566C165.03 199.071 167.028 197.073 167.028 194.609V146.359C167.028 143.895 165.03 141.897 162.566 141.897H82.2429V83.0495H173.164V127.022C173.164 129.487 175.162 131.485 177.626 131.485C180.091 131.485 182.089 129.487 182.089 127.022V78.5865C182.089 76.1225 180.091 74.1245 177.626 74.1245ZM101.467 101.628C100.853 101.628 100.351 102.13 100.351 102.744V111.903C100.351 112.517 100.853 113.019 101.467 113.019H117.035C117.648 113.019 118.15 112.517 118.15 111.903V102.744C118.15 102.13 117.648 101.628 117.035 101.628H101.467ZM138.372 101.628C137.758 101.628 137.256 102.13 137.256 102.744V111.903C137.256 112.517 137.758 113.019 138.372 113.019H153.94C154.553 113.019 155.055 112.517 155.055 111.903V102.744C155.055 102.13 154.553 101.628 153.94 101.628H138.372Z" fill="#3880F0"/>
<path d="M128 11.156C63.572 11.156 11.156 63.572 11.156 128C11.156 192.428 63.572 244.844 128 244.844C192.428 244.844 244.844 192.428 244.844 128C244.844 63.572 192.428 11.156 128 11.156ZM128 256C93.81 256 61.666 242.686 37.49 218.51C13.314 194.334 0 162.19 0 128C0 93.81 13.314 61.666 37.49 37.49C61.666 13.314 93.81 0 128 0C162.19 0 194.334 13.314 218.51 37.49C242.686 61.666 256 93.81 256 128C256 162.19 242.686 194.334 218.51 218.51C194.334 242.686 162.19 256 128 256Z" fill="#3880F0"/>
</g>
<defs>
<clipPath id="clip0_1_10843">
<rect width="256" height="256" fill="white"/>
</clipPath>
</defs>
</svg>
