<svg width="512" height="110" viewBox="0 0 512 110" fill="none" xmlns="http://www.w3.org/2000/svg">
<g clip-path="url(#clip0_1_10852)">
<path d="M131.799 66.9224C131.799 63.5079 133.847 61.1178 136.92 61.1178C139.652 60.9471 142.042 63.1665 142.213 65.898C142.213 66.9224 142.042 67.9467 141.53 68.8003C143.749 70.1661 146.481 71.0197 149.212 70.849C154.505 70.849 157.919 68.4589 157.919 64.3615C157.919 60.4349 153.822 58.5569 149.042 56.8497C139.993 53.6059 133.677 50.7036 133.677 41.826C133.677 34.1435 139.993 28.1681 149.725 28.1681C158.773 28.1681 165.773 32.7777 165.773 38.5823C165.773 41.9967 163.553 44.0454 160.822 44.0454C158.09 44.2161 155.7 42.1675 155.529 39.2652V39.0944C155.529 38.2408 155.7 37.5579 156.041 36.875C153.993 35.8507 151.773 35.3385 149.554 35.3385C144.774 35.3385 141.871 37.7287 141.871 41.3138C141.871 45.2405 145.969 47.1184 150.749 48.8257C159.456 51.8987 165.943 54.9717 165.943 63.8494C165.943 73.0684 158.773 78.1901 148.871 78.1901C139.652 78.1901 131.799 72.8977 131.799 66.9224ZM176.87 73.5806C176.016 72.0441 175.675 70.3369 175.845 68.4589V51.8987H169.528V45.0698H175.845V38.2408L183.869 34.8264V45.0698H193.771V51.8987H184.04V66.9224C184.04 67.776 184.211 68.6296 184.552 69.3125C185.235 70.3369 186.601 71.0197 187.967 70.849C190.186 70.6783 192.405 70.1661 194.283 69.1418L193.601 75.9707C191.21 77.1658 188.479 77.8487 185.918 77.8487C181.821 77.8487 178.577 76.6536 176.87 73.5806ZM197.869 61.2885C197.869 52.4109 204.527 44.5576 215.112 44.5576C225.867 44.5576 232.355 52.2402 232.355 61.2885C232.355 70.1661 225.697 78.0194 215.112 78.0194C204.356 77.8487 197.869 70.1661 197.869 61.2885ZM223.989 61.2885C223.989 55.4839 220.233 51.3865 215.112 51.3865C209.819 51.3865 206.234 55.4839 206.234 61.2885C206.234 67.0931 209.99 71.1905 215.112 71.1905C220.233 71.1905 223.989 67.0931 223.989 61.2885ZM264.963 49.85C264.963 52.5816 262.914 54.801 260.183 54.801C258.134 54.801 256.256 53.7767 255.402 51.8987C252.671 53.0938 250.451 55.3132 248.915 58.0448V70.6783H254.549V77.3365H236.111V70.6783H240.891V51.8987H236.111V45.0698H248.574V52.4109C251.305 48.1428 254.72 44.5576 258.817 44.5576C263.085 44.5576 264.963 47.1184 264.963 49.85ZM276.231 91.848C271.963 91.848 269.231 89.2872 269.231 86.7263C269.06 84.6776 270.597 82.7997 272.816 82.629H273.328C274.865 82.629 276.401 83.4826 276.914 85.0191C277.938 84.6776 278.962 83.9947 279.474 83.1411C279.987 82.2875 280.499 81.6046 281.011 80.5803L283.401 75.4586L271.963 51.728H268.036V44.899H284.767V51.2158H279.987L287.498 68.1174L295.01 51.2158H290.059V44.899H306.62V51.728H302.693L287.498 83.6533C286.816 85.0191 285.962 86.3849 284.938 87.5799C282.718 90.3115 279.645 91.848 276.231 91.848ZM318.57 74.2635L316.863 77.5072H311.4V30.3875H306.449V23.5586H319.424V48.655C321.985 46.0941 325.399 44.5576 328.984 44.5576C337.52 44.5576 344.008 51.3865 344.008 61.1178C344.008 70.5076 337.179 77.8487 328.472 77.8487C324.887 77.8487 321.302 76.6536 318.57 74.2635ZM335.643 61.1178C335.643 54.9717 331.887 51.3865 327.106 51.3865C324.204 51.3865 321.472 52.5816 319.424 54.6303V68.4589C321.643 69.9954 324.375 70.849 327.106 71.0197C331.716 71.0197 335.643 67.6053 335.643 61.1178ZM347.252 70.6783H352.203V30.3875H347.252V23.5586H360.397V70.6783H365.178V77.3365H347.252V70.6783ZM368.592 61.2885C368.592 52.4109 375.25 44.5576 385.835 44.5576C396.591 44.5576 403.078 52.2402 403.078 61.2885C403.078 70.1661 396.42 78.0194 385.835 78.0194C375.08 77.8487 368.592 70.1661 368.592 61.2885ZM394.713 61.2885C394.713 55.4839 390.957 51.3865 385.835 51.3865C380.543 51.3865 376.958 55.4839 376.958 61.2885C376.958 67.0931 380.714 71.1905 385.835 71.1905C390.957 71.1905 394.713 67.0931 394.713 61.2885ZM407.517 60.9471C407.517 51.8987 414.858 44.5576 423.907 44.5576C432.784 44.5576 438.589 50.3622 438.589 55.3132C438.76 58.0448 436.711 60.6056 433.979 60.7763H433.467C430.736 60.7763 428.687 58.5569 428.516 55.9961C428.516 54.9717 428.858 54.1181 429.541 53.2645C429.028 52.4109 426.98 51.0451 423.736 51.0451C419.98 51.0451 415.541 54.1181 415.541 61.1178C415.541 67.2638 420.321 71.1905 425.955 71.1905C429.882 71.1905 433.296 70.1661 437.394 67.776L436.711 74.9464C433.296 76.9951 429.199 78.0194 425.272 77.8487C415.2 77.8487 407.517 71.3612 407.517 60.9471ZM442.857 70.6783H447.637V30.3875H442.857V23.5586H455.661V59.5813L465.051 51.5573H460.612V45.2405H479.733V52.0694H473.758L466.246 58.3862L474.441 70.6783H479.733V77.5072H469.661L460.441 62.9957L455.832 66.9224V71.0197H459.929V77.5072H443.028V70.6783H442.857ZM507.22 56.679C504.659 56.679 502.781 55.1425 502.781 52.7523C502.781 52.2402 502.781 51.728 502.952 51.3865C501.415 50.8744 499.879 50.5329 498.342 50.5329C494.757 50.5329 492.879 52.0694 492.879 53.7767C492.879 55.6546 494.757 56.5082 499.708 57.874C507.39 59.9227 512 61.8007 512 67.6053C512 74.4342 505.683 78.0194 498.342 78.0194C493.391 78.0194 488.099 76.3122 485.879 74.0928C484.684 73.0684 484.001 71.3612 484.001 69.8247C484.001 67.4346 485.879 65.5566 488.099 65.5566H488.269C490.489 65.3859 492.537 67.2638 492.537 69.4832V69.8247C492.537 70.3369 492.537 70.6783 492.367 71.1905C494.245 71.8734 496.123 72.2148 498.171 72.2148C501.415 72.2148 504.147 71.1905 504.147 68.8003C504.147 67.2638 502.781 66.2395 497.83 64.8737C488.952 62.4836 485.196 60.4349 485.196 54.9717C485.196 50.0208 489.294 44.7283 498.342 44.7283C502.269 44.7283 507.049 46.2648 509.268 48.3135C510.464 49.3379 510.976 50.8744 510.976 52.4109C511.317 54.801 509.61 56.679 507.22 56.679Z" fill="black"/>
<path d="M54.6315 109.263C84.8037 109.263 109.263 84.8037 109.263 54.6315C109.263 24.4594 84.8037 0 54.6315 0C24.4594 0 0 24.4594 0 54.6315C0 84.8037 24.4594 109.263 54.6315 109.263Z" fill="#FFE121"/>
<path d="M52.2414 25.9492V62.8255C41.998 62.8255 33.8032 54.6308 33.8032 44.3874C33.8032 34.144 41.998 25.9492 52.2414 25.9492ZM57.0216 83.3123V46.436C67.265 46.436 75.4598 54.6308 75.4598 64.8742C75.4598 74.9524 67.5273 83.0475 57.5157 83.306L57.0216 83.3123ZM65.7285 25.9492C70.5088 25.9492 74.4354 29.8759 74.4354 34.6561C74.4354 39.4364 70.5088 43.363 65.7285 43.363C60.9483 43.363 57.0216 39.4364 57.0216 34.6561C57.0216 29.8759 60.9483 25.9492 65.7285 25.9492ZM43.5345 65.8985C48.3147 65.8985 52.2414 69.8252 52.2414 74.6054C52.2414 79.3857 48.3147 83.3123 43.5345 83.3123C38.7542 83.3123 34.8276 79.3857 34.8276 74.6054C34.8276 69.8252 38.7542 65.8985 43.5345 65.8985Z" fill="black"/>
</g>
<defs>
<clipPath id="clip0_1_10852">
<rect width="512" height="110" fill="white"/>
</clipPath>
</defs>
</svg>
