<svg width="256" height="256" viewBox="0 0 256 256" fill="none" xmlns="http://www.w3.org/2000/svg">
<g clip-path="url(#clip0_1_10848)">
<path d="M128 256C198.692 256 256 198.692 256 128C256 57.3075 198.692 0 128 0C57.3075 0 0 57.3075 0 128C0 198.692 57.3075 256 128 256Z" fill="#FFE121"/>
<path d="M122.4 60.8008V147.201C98.4 147.201 79.2 128.001 79.2 104.001C79.2 80.0008 98.4 60.8008 122.4 60.8008ZM133.6 195.201V108.801C157.6 108.801 176.8 128.001 176.8 152.001C176.8 175.614 158.214 194.58 134.757 195.186L133.6 195.201ZM154 60.8008C165.2 60.8008 174.4 70.0008 174.4 81.2008C174.4 92.4008 165.2 101.601 154 101.601C142.8 101.601 133.6 92.4008 133.6 81.2008C133.6 70.0008 142.8 60.8008 154 60.8008ZM102 154.401C113.2 154.401 122.4 163.601 122.4 174.801C122.4 186.001 113.2 195.201 102 195.201C90.8 195.201 81.6 186.001 81.6 174.801C81.6 163.601 90.8 154.401 102 154.401Z" fill="black"/>
</g>
<defs>
<clipPath id="clip0_1_10848">
<rect width="256" height="256" fill="white"/>
</clipPath>
</defs>
</svg>
