<svg width="256" height="302" viewBox="0 0 256 302" fill="none" xmlns="http://www.w3.org/2000/svg">
<g clip-path="url(#clip0_1_10858)">
<path d="M244.495 0L244.221 0.292196C251.37 0.292196 255.745 5.83279 255.989 12.6115L256 13.2127V243.764C256 250.883 251.844 255.237 245.148 255.495L244.513 255.507H89.558L47.1348 301.327V255.215H12.9662C6.09771 255.215 0.347472 251.069 0.0151647 244.371L0 243.755V12.9205C0 6.06712 5.56692 0.327093 12.6478 0.0134904L13.2584 0H244.495ZM165.565 46.9887H47.1348V211.458H151.43C159.384 211.458 167.045 209.988 174.112 208.226C180.717 206.862 186.542 203.948 191.841 200.707L192.968 200.008C197.905 197.06 202.049 192.96 205.048 188.067L205.633 187.078H205.331C208.272 181.801 209.751 175.628 209.751 168.286C209.751 156.836 207.094 147.723 201.789 140.674C196.2 133.926 188.831 129.224 179.408 126.585C186.889 123.396 193.103 117.819 197.077 110.724C200.912 103.675 202.976 96.3333 202.976 88.6997C203.105 78.3185 199.557 68.2264 192.959 60.2106C189.717 56.3846 185.59 53.1614 181.18 50.8055C176.774 48.3426 172.121 47.1523 166.732 47.0045L165.565 46.9887ZM148.636 138.912C152.042 138.912 154.599 140.574 156.873 143.359C158.977 146.261 160.074 149.773 159.995 153.357C159.995 157.521 158.571 160.854 156.306 163.082C153.932 165.142 151.07 166.486 147.946 166.667L147.221 166.689H89.6037V138.912H148.636ZM143.815 83.3488C146.525 83.3749 149.138 84.3581 151.193 86.1247C153.184 88.0696 154.316 91.1285 154.316 95.2923C154.316 99.7509 153.306 103.224 151.04 104.996L150.627 105.291C148.528 106.833 145.947 108.135 143.336 108.326L142.683 108.35H89.5945V83.3488H143.815Z" fill="#0AB3AF"/>
</g>
<defs>
<clipPath id="clip0_1_10858">
<rect width="256" height="302" fill="white"/>
</clipPath>
</defs>
</svg>
