<svg width="512" height="109" viewBox="0 0 512 109" fill="none" xmlns="http://www.w3.org/2000/svg">
<g clip-path="url(#clip0_1_10861)">
<path d="M148.732 75.6473C145.002 75.6624 141.294 75.0853 137.745 73.937C134.342 72.8326 131.214 71.0119 128.573 68.5976L133.372 60.4802C135.815 62.1656 138.424 63.5969 141.159 64.7518C143.446 65.7477 145.916 66.2575 148.411 66.2488C150.115 66.2488 151.504 65.9278 152.463 65.2858C153.423 64.7518 153.849 63.792 153.849 62.616C153.849 61.5481 153.318 60.4802 152.037 59.8382C150.033 58.8763 147.92 58.1592 145.745 57.7024L138.276 55.2456C136.252 54.3906 134.653 53.5357 133.372 52.5759C132.172 51.7807 131.214 50.6714 130.601 49.3689C130.021 48.0204 129.731 46.5651 129.749 45.0973C129.686 40.8945 131.529 36.8889 134.761 34.2022C136.252 32.9213 138.171 31.9583 140.304 31.2114C142.44 30.4645 144.785 30.1435 147.238 30.1435C150.547 30.1435 153.636 30.5694 156.515 31.4243C159.398 32.3874 162.169 33.9892 164.836 36.338L159.611 44.3504C157.546 42.8716 155.329 41.6186 152.997 40.6128C151.18 39.8237 149.219 39.4221 147.238 39.4335C145.853 39.4335 144.572 39.6497 143.612 40.2918C142.544 40.8257 142.118 41.7855 142.118 43.0696C142.118 44.3472 142.652 45.2054 143.717 45.8442C144.785 46.4862 146.917 47.1283 149.797 47.8751C152.47 48.55 155.104 49.3689 157.691 50.332C159.821 51.1837 161.531 52.1467 162.916 53.1098C165.537 55.0425 166.988 58.1872 166.755 61.44C166.755 65.8197 165.157 69.2363 161.848 71.8012C158.651 74.3662 154.383 75.6473 148.732 75.6473ZM201.524 72.5481C199.713 73.2983 197.58 74.0451 195.235 74.6872C192.886 75.326 190.541 75.7551 188.087 75.7551C186.38 75.7551 184.887 75.5422 183.393 75.113C181.942 74.6889 180.597 73.9608 179.449 72.9772C178.381 72.1223 177.529 70.8414 176.887 69.4525C176.166 67.7279 175.804 65.8743 175.823 64.005V41.0387H170.274V30.9985H175.924V17.0012H189.148V30.8904H198.108V41.0354H189.148V59.4091C189.148 60.798 189.469 61.8659 190.216 62.6128C190.963 63.1467 191.923 63.4645 192.991 63.4645C194.056 63.4645 195.12 63.3596 196.083 62.9338C197.148 62.6128 198.108 62.2917 198.854 61.8659L201.416 72.5448H201.521L201.524 72.5481ZM226.482 75.647C223.088 75.7066 219.716 75.0897 216.563 73.8322C211.01 71.6308 206.662 67.1606 204.617 61.5481C202.521 55.9699 202.521 49.8206 204.617 44.2423C206.662 38.6299 211.01 34.1597 216.563 31.9583C219.446 30.7856 222.748 30.1435 226.482 30.1435C232.977 29.8382 239.284 32.3729 243.762 37.0881C245.786 39.1158 247.28 41.5726 248.348 44.2423C250.531 49.8406 250.531 56.0547 248.348 61.653C246.29 67.1978 241.993 71.62 236.509 73.8355C233.323 75.1072 229.912 75.7243 226.482 75.6502V75.647ZM216.884 53.0017C216.884 56.4216 217.736 59.1961 219.551 61.2271C221.47 63.3629 223.816 64.4308 226.59 64.4308C229.27 64.4821 231.825 63.3013 233.522 61.2271C234.373 60.1592 235.016 59.0913 235.549 57.5943C236.08 56.2054 236.293 54.6035 236.293 53.0017C236.293 49.477 235.333 46.6992 233.522 44.6715C231.825 42.5961 229.27 41.414 226.59 41.4645C223.919 41.459 221.381 42.6325 219.656 44.6715C218.804 45.7394 218.057 46.8073 217.526 48.301C217.045 49.8196 216.827 51.4096 216.884 53.0017ZM284.397 42.4276C281.197 42.4276 278.21 42.9615 275.543 44.0294C273.194 44.823 271.195 46.4098 269.889 48.5172V74.9001H256.557V30.9985H268.825V39.7578C270.318 36.7671 272.238 34.4184 274.688 32.8132C277.037 31.1033 279.49 30.2483 282.157 30.1435H283.542L284.394 30.2483V42.4276H284.397ZM290.261 81.4156C292.115 82.0611 294.057 82.4212 296.02 82.4835C297.622 82.4835 298.902 81.9495 299.862 80.8783C300.714 79.8137 301.461 77.6779 302.208 74.9001L285.567 30.9985H299.325L309.46 63.3629L318.311 30.9985H330.792L314.046 81.9495C311.428 90.5985 302.62 95.7988 293.783 93.9126C292.572 93.69 291.391 93.3317 290.261 92.8447V81.4156ZM362.36 75.6502C359.052 75.6502 356.071 75.0049 353.614 73.5112C351.121 72.1387 349.055 70.1052 347.642 67.6345V74.9001H336.017V13.8008H349.454V38.156C352.367 33.0451 357.866 29.9623 363.746 30.1435C366.521 30.1435 369.079 30.6775 371.428 31.9583C373.773 33.0262 375.693 34.7361 377.504 36.7671C382.755 44.0662 384.184 53.4418 381.347 61.974C380.341 64.6405 378.859 67.1023 376.973 69.2396C373.231 73.3499 367.919 75.6788 362.36 75.647V75.6502ZM358.626 64.4308C362.958 64.438 366.815 61.6906 368.224 57.5943C369.788 53.2922 369.023 48.4876 366.2 44.8844C364.534 42.6854 361.918 41.4146 359.16 41.4645C357.136 41.4645 355.216 42.2147 353.401 43.6036C351.647 45.1228 350.261 47.0216 349.349 49.156V58.3445C351.067 61.9769 354.716 64.3024 358.734 64.326L358.626 64.4308ZM389.343 13.8008H402.675V59.1929C402.675 62.6128 404.064 64.2146 406.943 64.2146C408.463 64.2179 409.967 63.8543 411.316 63.1467L413.128 73.0821C409.393 74.7197 405.367 75.5908 401.289 75.6437C397.45 75.6437 394.463 74.5758 392.438 72.6529C390.302 70.5171 389.238 67.7393 389.238 63.8936V13.8008H389.343ZM438.299 75.647C434.905 75.7066 431.533 75.0897 428.38 73.8322C422.793 71.6445 418.407 67.1749 416.325 61.5481C413.241 53.1531 414.957 43.7457 420.806 36.98C422.941 34.8302 425.479 33.1235 428.275 31.9583C431.151 30.7856 434.46 30.1435 438.191 30.1435C444.686 29.8382 450.993 32.3729 455.47 37.0881C457.603 39.1158 458.988 41.5726 460.056 44.2423C463.262 52.6266 461.534 62.0978 455.575 68.8105C453.49 71.0172 450.94 72.7326 448.11 73.8322C444.957 75.0897 441.585 75.7066 438.191 75.647H438.299ZM428.593 53.0017C428.593 56.4216 429.445 59.1961 431.259 61.2271C433.179 63.3629 435.524 64.4308 438.299 64.4308C440.975 64.4667 443.524 63.2888 445.23 61.2271C446.082 60.1592 446.724 59.0913 447.258 57.5943C447.792 56.2054 448.005 54.6035 448.005 53.0017C448.005 49.477 447.045 46.6992 445.23 44.6715C443.534 42.5961 440.979 41.414 438.299 41.4645C435.629 41.4599 433.092 42.6334 431.367 44.6715C430.516 45.7394 429.766 46.8073 429.232 48.301C428.701 49.798 428.593 51.2918 428.593 53.0017ZM497.809 74.9001L486.4 57.1685L481.706 62.0821V74.9001H468.374V13.8008H481.706V49.156L496.532 30.9985H510.716L494.933 49.9028L512 74.8968H497.813L497.809 74.9001Z" fill="#141A2F"/>
<path d="M87.7115 0L87.6133 0.104824C90.1781 0.104824 91.7475 2.09249 91.8351 4.52433L91.839 4.74001V87.4495C91.839 90.0034 90.3481 91.5654 87.9459 91.6578L87.7181 91.6621H32.1286L16.9094 108.1V91.5573H4.65157C2.18753 91.5573 0.124654 90.0699 0.00544028 87.6671L0 87.4462V4.63519C0 2.17655 1.99711 0.117343 4.53736 0.00483963L4.75639 0H87.7115ZM59.3959 16.857H16.9094V75.8599H54.3251C57.1782 75.8599 59.9266 75.3325 62.462 74.7002C64.8315 74.2111 66.9213 73.1654 68.822 72.0028L69.2265 71.7521C70.9977 70.6943 72.4841 69.2238 73.5602 67.4684L73.7699 67.1136H73.6618C74.7166 65.2202 75.2473 63.0058 75.2473 60.3721C75.2473 56.2643 74.2941 52.9951 72.3908 50.4662C70.3861 48.0455 67.7425 46.3584 64.362 45.4117C67.0458 44.268 69.2748 42.267 70.7006 39.7218C72.0764 37.1929 72.8167 34.5592 72.8167 31.8207C72.8631 28.0964 71.5901 24.476 69.2232 21.6003C68.0603 20.2278 66.5797 19.0714 64.9975 18.2263C63.4168 17.3427 61.7477 16.9157 59.8143 16.8627L59.3959 16.857ZM53.3227 49.834C54.5445 49.834 55.4618 50.4302 56.2774 51.4293C57.0325 52.4706 57.426 53.7304 57.3977 55.0163C57.3977 56.51 56.8867 57.7056 56.0743 58.5049C55.2226 59.2441 54.1958 59.7262 53.0752 59.7913L52.8149 59.7988H32.145V49.834H53.3227ZM51.5931 29.9011C52.5652 29.9104 53.5027 30.2631 54.2399 30.8969C54.954 31.5946 55.3602 32.692 55.3602 34.1857C55.3602 35.7852 54.9979 37.0312 54.185 37.6669L54.0368 37.7727C53.2839 38.326 52.3579 38.7929 51.4212 38.8614L51.1869 38.8701H32.1417V29.9011H51.5931Z" fill="#0AB3AF"/>
</g>
<defs>
<clipPath id="clip0_1_10861">
<rect width="512" height="109" fill="white"/>
</clipPath>
</defs>
</svg>
