<svg width="512" height="103" viewBox="0 0 512 103" fill="none" xmlns="http://www.w3.org/2000/svg">
<g clip-path="url(#clip0_1_10874)">
<path d="M136.397 81.0563C132.028 81.0563 127.823 80.4692 123.781 79.295C119.74 78.1208 116.381 76.4961 113.705 74.4208L117.801 65.3276C123.372 69.2052 129.625 71.144 136.561 71.144C140.165 71.144 142.937 70.5569 144.876 69.3827C146.814 68.2085 147.784 66.5838 147.784 64.5084C147.784 62.6516 146.896 61.2043 145.121 60.1667C143.346 59.129 140.192 58.1187 135.66 57.1356C130.58 56.098 126.525 54.8419 123.494 53.3673C120.463 51.8928 118.252 50.0769 116.859 47.9196C115.466 45.7624 114.77 43.1 114.77 39.9324C114.77 36.4372 115.739 33.3242 117.678 30.5936C119.617 27.8629 122.334 25.7193 125.829 24.1628C129.324 22.6064 133.366 21.8281 137.953 21.8281C142.049 21.8281 145.995 22.4289 149.791 23.6304C153.586 24.8319 156.604 26.4429 158.843 28.4636L154.747 37.5568C149.449 33.6792 143.879 31.7404 138.035 31.7404C134.704 31.7404 132.082 32.3821 130.171 33.6656C128.259 34.949 127.304 36.7102 127.304 38.9494C127.304 40.2601 127.672 41.3387 128.41 42.1852C129.147 43.0318 130.376 43.7827 132.096 44.438C133.816 45.0934 136.26 45.7761 139.428 46.486C146.855 48.1245 152.194 50.227 155.443 52.7939C158.693 55.3607 160.317 58.9106 160.317 63.4435C160.317 68.9048 158.215 73.2056 154.01 76.3459C149.804 79.4862 143.933 81.0563 136.397 81.0563ZM189.972 71.8812C191.229 71.8812 192.539 71.7993 193.905 71.6355L193.249 80.6467C191.665 80.8651 190.082 80.9744 188.498 80.9744C182.381 80.9744 177.917 79.6364 175.104 76.9603C172.291 74.2842 170.885 70.2156 170.885 64.7542V49.3532H163.267V40.0963H170.885V28.2998H183.255V40.0963H193.331V49.3532H183.255V64.6723C183.255 69.4783 185.494 71.8812 189.972 71.8812ZM218.726 80.9744C214.467 80.9744 210.726 80.1142 207.503 78.3939C204.281 76.6736 201.796 74.2433 200.049 71.103C198.301 67.9627 197.427 64.2627 197.427 60.0028C197.427 55.743 198.301 52.043 200.049 48.9027C201.796 45.7624 204.281 43.3458 207.503 41.6528C210.726 39.9597 214.467 39.1132 218.726 39.1132C222.986 39.1132 226.727 39.9597 229.949 41.6528C233.172 43.3458 235.657 45.7624 237.404 48.9027C239.152 52.043 240.026 55.743 240.026 60.0028C240.026 64.2627 239.152 67.9627 237.404 71.103C235.657 74.2433 233.172 76.6736 229.949 78.3939C226.727 80.1142 222.986 80.9744 218.726 80.9744ZM218.726 71.5536C224.734 71.5536 227.738 67.7034 227.738 60.0028C227.738 56.1253 226.959 53.2308 225.403 51.3193C223.846 49.4078 221.621 48.4521 218.726 48.4521C212.719 48.4521 209.715 52.3023 209.715 60.0028C209.715 67.7034 212.719 71.5536 218.726 71.5536ZM274.268 49.2713L267.305 50.0086C263.864 50.3363 261.434 51.3057 260.014 52.9168C258.594 54.5279 257.884 56.6714 257.884 59.3475V80.319H245.514V40.0963H257.393V46.8956C259.413 42.2535 263.591 39.714 269.926 39.2771L273.531 39.0313L274.268 49.2713ZM310.211 40.1782H322.335L298.086 95.0646H285.553L293.253 78.1072L276.705 40.1782H289.567L299.725 65.7372L310.211 40.1782ZM351.007 39.1132C354.502 39.1132 357.588 39.9597 360.264 41.6528C362.94 43.3458 365.029 45.7624 366.531 48.9027C368.032 52.043 368.783 55.6884 368.783 59.839C368.783 63.9896 368.032 67.6623 366.531 70.8572C365.029 74.0521 362.926 76.537 360.223 78.312C357.519 80.0869 354.447 80.9744 351.007 80.9744C348.221 80.9744 345.709 80.3873 343.47 79.2131C341.231 78.0389 339.511 76.4142 338.309 74.3388V80.319H326.103V22.5654H338.473V45.503C339.674 43.4823 341.381 41.9122 343.593 40.7926C345.805 39.673 348.276 39.1132 351.007 39.1132ZM347.402 71.5536C350.297 71.5536 352.536 70.5296 354.12 68.4816C355.703 66.4336 356.495 63.5527 356.495 59.839C356.495 56.1799 355.703 53.381 354.12 51.4422C352.536 49.5034 350.297 48.534 347.402 48.534C344.508 48.534 342.269 49.5307 340.685 51.5241C339.101 53.5175 338.309 56.3437 338.309 60.0028C338.309 63.7166 339.101 66.5701 340.685 68.5635C342.269 70.5569 344.508 71.5536 347.402 71.5536ZM395.653 80.9744C391.393 80.9744 387.652 80.1142 384.43 78.3939C381.208 76.6736 378.723 74.2433 376.975 71.103C375.228 67.9627 374.354 64.2627 374.354 60.0028C374.354 55.743 375.228 52.043 376.975 48.9027C378.723 45.7624 381.208 43.3458 384.43 41.6528C387.652 39.9597 391.393 39.1132 395.653 39.1132C399.913 39.1132 403.654 39.9597 406.876 41.6528C410.098 43.3458 412.583 45.7624 414.331 48.9027C416.079 52.043 416.952 55.743 416.952 60.0028C416.952 64.2627 416.079 67.9627 414.331 71.103C412.583 74.2433 410.098 76.6736 406.876 78.3939C403.654 80.1142 399.913 80.9744 395.653 80.9744ZM395.653 71.5536C401.661 71.5536 404.664 67.7034 404.664 60.0028C404.664 56.1253 403.886 53.2308 402.33 51.3193C400.773 49.4078 398.548 48.4521 395.653 48.4521C389.646 48.4521 386.642 52.3023 386.642 60.0028C386.642 67.7034 389.646 71.5536 395.653 71.5536ZM441.774 80.9744C437.514 80.9744 433.773 80.1142 430.551 78.3939C427.329 76.6736 424.844 74.2433 423.096 71.103C421.349 67.9627 420.475 64.2627 420.475 60.0028C420.475 55.743 421.349 52.043 423.096 48.9027C424.844 45.7624 427.329 43.3458 430.551 41.6528C433.773 39.9597 437.514 39.1132 441.774 39.1132C446.034 39.1132 449.775 39.9597 452.997 41.6528C456.219 43.3458 458.704 45.7624 460.452 48.9027C462.199 52.043 463.073 55.743 463.073 60.0028C463.073 64.2627 462.199 67.9627 460.452 71.103C458.704 74.2433 456.219 76.6736 452.997 78.3939C449.775 80.1142 446.034 80.9744 441.774 80.9744ZM441.774 71.5536C447.782 71.5536 450.785 67.7034 450.785 60.0028C450.785 56.1253 450.007 53.2308 448.451 51.3193C446.894 49.4078 444.669 48.4521 441.774 48.4521C435.767 48.4521 432.763 52.3023 432.763 60.0028C432.763 67.7034 435.767 71.5536 441.774 71.5536ZM512 80.319H496.845L481.444 62.3785V80.319H469.074V22.5654H481.444V57.2995L496.271 40.1782H511.017L494.141 59.3475L512 80.319Z" fill="#333333"/>
<path d="M3.17583 94.3582L0.00368689 9.83497C-0.101077 7.0435 2.03932 4.67776 4.82732 4.50351L76.7203 0.0102008C79.5581 -0.167165 82.0024 1.98958 82.1798 4.82743C82.1865 4.93435 82.1898 5.04145 82.1898 5.14858V97.2516C82.1898 100.095 79.8848 102.4 77.0414 102.4C76.9644 102.4 76.8874 102.398 76.8104 102.395L8.08961 99.3083C5.41321 99.1881 3.27631 97.0354 3.17583 94.3582Z" fill="#FF4785"/>
<mask id="mask0_1_10874" style="mask-type:luminance" maskUnits="userSpaceOnUse" x="0" y="0" width="83" height="103">
<path d="M3.17583 94.3582L0.00368689 9.83497C-0.101077 7.0435 2.03932 4.67776 4.82732 4.50351L76.7203 0.0102008C79.5581 -0.167165 82.0024 1.98958 82.1798 4.82743C82.1865 4.93435 82.1898 5.04145 82.1898 5.14858V97.2516C82.1898 100.095 79.8848 102.4 77.0414 102.4C76.9644 102.4 76.8874 102.398 76.8104 102.395L8.08961 99.3083C5.41321 99.1881 3.27631 97.0354 3.17583 94.3582Z" fill="white"/>
</mask>
<g mask="url(#mask0_1_10874)">
<path d="M60.691 12.5866L61.182 0.775741L71.0551 0L71.4804 12.1801C71.4952 12.604 71.1636 12.9597 70.7397 12.9745C70.5582 12.9808 70.3803 12.9226 70.2376 12.8102L66.4303 9.81091L61.9224 13.2304C61.5845 13.4867 61.1028 13.4206 60.8464 13.0826C60.7385 12.9404 60.6835 12.765 60.691 12.5866ZM48.0643 38.596C48.0643 40.599 61.5564 39.639 63.3676 38.232C63.3676 24.5918 56.0486 17.4242 42.6463 17.4242C29.244 17.4242 21.7349 24.7034 21.7349 35.6222C21.7349 54.6391 47.3989 55.0031 47.3989 65.376C47.3989 68.2876 45.9731 70.0164 42.8364 70.0164C38.7492 70.0164 37.1333 67.9291 37.3234 60.8318C37.3234 59.2922 21.7349 58.8122 21.2596 60.8318C20.0494 78.031 30.7648 82.9918 43.0265 82.9918C54.908 82.9918 64.2231 76.6587 64.2231 65.194C64.2231 44.8122 38.1789 45.3581 38.1789 35.2582C38.1789 31.1637 41.2205 30.6177 43.0265 30.6177C44.9275 30.6177 48.3494 30.9528 48.0643 38.596Z" fill="white"/>
</g>
</g>
<defs>
<clipPath id="clip0_1_10874">
<rect width="512" height="103" fill="white"/>
</clipPath>
</defs>
</svg>
