<svg width="256" height="256" viewBox="0 0 256 256" fill="none" xmlns="http://www.w3.org/2000/svg">
<g clip-path="url(#clip0_1_10883)">
<path d="M0 88.7466C0 46.911 0 25.9933 12.9966 12.9966C25.9933 0 46.911 0 88.7466 0H167.254C209.089 0 230.006 0 243.003 12.9966C256 25.9933 256 46.911 256 88.7466V167.254C256 209.089 256 230.006 243.003 243.003C230.006 256 209.089 256 167.254 256H88.7466C46.911 256 25.9933 256 12.9966 243.003C0 230.006 0 209.089 0 167.254V88.7466Z" fill="#4945FF"/>
<path d="M176.64 77.6523H90.4528V121.599H134.4V165.545H178.346V79.3591C178.346 78.4165 177.582 77.6523 176.64 77.6523Z" fill="white"/>
<path d="M134.399 121.602H132.693V123.308H134.399V121.602Z" fill="white"/>
<path d="M90.4528 121.602H132.693C133.636 121.602 134.4 122.366 134.4 123.308V165.548H92.1595C91.2169 165.548 90.4528 164.785 90.4528 163.842V121.602Z" fill="#9593FF"/>
<path d="M134.4 165.547H178.346L135.856 208.037C135.319 208.574 134.4 208.194 134.4 207.434V165.547Z" fill="#9593FF"/>
<path d="M90.4526 121.599H48.5661C47.8059 121.599 47.4252 120.68 47.9626 120.142L90.4526 77.6523V121.599Z" fill="#9593FF"/>
</g>
<defs>
<clipPath id="clip0_1_10883">
<rect width="256" height="256" fill="white"/>
</clipPath>
</defs>
</svg>
