<svg width="512" height="125" viewBox="0 0 512 125" fill="none" xmlns="http://www.w3.org/2000/svg">
<g clip-path="url(#clip0_1_10891)">
<path d="M493.858 18.204C495.956 20.3088 498.432 21.3612 501.289 21.3612C504.235 21.3612 506.756 20.3088 508.854 18.204C510.952 16.0993 512 13.6138 512 10.7477C512 7.88166 510.952 5.37389 508.854 3.22433C506.756 1.07476 504.235 0 501.289 0C498.432 0 495.956 1.07476 493.858 3.22433C491.76 5.37389 490.712 7.88166 490.712 10.7477C490.712 13.6138 491.76 16.0993 493.858 18.204ZM267.98 45.6844C267.98 45.9044 267.802 46.0828 267.582 46.0828H252.85V74.0267C252.85 76.3555 253.431 78.0571 254.591 79.132C255.751 80.2069 257.447 80.8114 259.679 80.946C261.613 81.0624 263.949 81.0611 266.688 80.9418L267.359 80.9108L267.561 80.9003C267.789 80.8886 267.98 81.0706 267.98 81.2988V96.2409C267.98 96.444 267.828 96.6143 267.626 96.6365L267.356 96.6657C255.815 97.9004 247.655 96.7582 242.875 93.2386C238.011 89.6558 235.578 83.252 235.578 74.0267V46.0828H224.328C224.108 46.0828 223.93 45.9044 223.93 45.6844V29.8222C223.93 29.6022 224.108 29.4238 224.328 29.4238H235.578V18.3284C235.578 18.0128 235.765 17.7269 236.053 17.5994L252.291 10.4285C252.554 10.3122 252.85 10.5051 252.85 10.793V29.4238H267.582C267.802 29.4238 267.98 29.6022 267.98 29.8222V45.6844ZM299.3 40.9767C300.907 36.6776 303.562 33.4533 307.267 31.3037C310.656 29.3365 314.402 28.2695 318.502 28.1026L318.78 28.094C318.934 28.0901 319.102 28.087 319.249 28.0846C319.471 28.0812 319.652 28.2602 319.652 28.4819V46.7117C319.652 47.0923 319.321 47.3852 318.942 47.3508C313.961 46.8989 309.489 47.9985 305.526 50.6497C301.375 53.4262 299.3 58.0387 299.3 64.4871V96.1976C299.3 96.4176 299.121 96.5961 298.901 96.5961H282.426C282.206 96.5961 282.028 96.4176 282.028 96.1976V29.8213C282.028 29.6012 282.206 29.4228 282.426 29.4228H298.901C299.121 29.4228 299.3 29.6012 299.3 29.8213V40.9767ZM358.747 27.5409C368.119 27.5409 375.394 30.81 380.571 37.3482V29.8202C380.571 29.6001 380.75 29.4217 380.97 29.4217H397.445C397.665 29.4217 397.843 29.6001 397.843 29.8202V96.197C397.843 96.4171 397.665 96.5949 397.445 96.5949H380.97C380.75 96.5949 380.571 96.4171 380.571 96.197V88.6686C375.394 95.207 368.119 98.4762 358.747 98.4762C349.82 98.4762 342.167 95.0502 335.784 88.1988C329.402 81.3468 326.211 72.95 326.211 63.0085C326.211 53.0668 329.402 44.6701 335.784 37.8184C342.167 30.9667 349.82 27.5409 358.747 27.5409ZM361.959 44.0664C356.603 44.0664 352.185 45.8353 348.703 49.3731C345.222 52.9109 343.481 57.4563 343.481 63.0091C343.481 68.5626 345.222 73.1302 348.703 76.7125C352.185 80.2057 356.603 81.9524 361.959 81.9524C367.315 81.9524 371.755 80.1835 375.281 76.6458C378.807 73.108 380.57 68.5626 380.57 63.0091C380.57 57.4563 378.807 52.9109 375.281 49.3731C371.755 45.8353 367.315 44.0664 361.959 44.0664ZM449.765 27.5409C458.78 27.5409 466.48 30.9667 472.862 37.8184C479.244 44.6701 482.435 53.0668 482.435 63.0085C482.435 72.95 479.244 81.3468 472.862 88.1988C466.48 95.0502 458.78 98.4762 449.765 98.4762C440.393 98.4762 433.162 95.207 428.075 88.6686V123.066C428.075 123.286 427.896 123.465 427.676 123.465H411.201C410.981 123.465 410.802 123.286 410.802 123.066V29.8202C410.802 29.6001 410.981 29.4217 411.201 29.4217H427.676C427.896 29.4217 428.075 29.6001 428.075 29.8202V37.3482C433.162 30.81 440.393 27.5409 449.765 27.5409ZM446.55 44.0664C441.195 44.0664 436.776 45.8353 433.295 49.3731C429.814 52.9109 428.073 57.4563 428.073 63.0091C428.073 68.5626 429.814 73.1302 433.295 76.7125C436.776 80.2057 441.195 81.9524 446.55 81.9524C451.906 81.9524 456.347 80.1835 459.873 76.6458C463.398 73.108 465.161 68.5626 465.161 63.0091C465.161 57.4563 463.398 52.9109 459.873 49.3731C456.347 45.8353 451.906 44.0664 446.55 44.0664ZM493.12 96.5967C492.9 96.5967 492.721 96.4182 492.721 96.1982V29.8217C492.721 29.6016 492.9 29.4232 493.12 29.4232H509.595C509.815 29.4232 509.994 29.6016 509.994 29.8217V96.1982C509.994 96.4182 509.815 96.5967 509.595 96.5967H493.12ZM184.81 52.8652C182.444 51.7456 181.262 50.2902 181.262 48.4989C181.262 46.7972 181.998 45.4538 183.471 44.4685C184.944 43.4833 186.796 42.9907 189.027 42.9907C193.306 42.9907 196.539 44.6644 198.725 48.0118C198.878 48.2453 199.174 48.3398 199.429 48.2267L214.002 41.7577C214.219 41.6614 214.304 41.3981 214.183 41.1938L213.881 40.6874C213.804 40.5607 213.731 40.4413 213.67 40.3464C211.173 36.4065 207.941 33.4715 203.89 31.2354C199.426 28.7723 194.473 27.5408 189.027 27.5408C181.797 27.5408 175.75 29.444 170.885 33.2505C166.02 37.057 163.588 42.2742 163.588 48.902C163.588 53.2906 164.771 56.9404 167.136 59.8511C169.502 62.7621 172.38 64.8891 175.772 66.2326C178.903 67.4727 182.034 68.5219 185.165 69.3806L185.948 69.5913C189.34 70.4872 192.219 71.4948 194.584 72.6141C196.949 73.7335 198.132 75.1893 198.132 76.9805C198.132 80.8318 195.052 82.7575 188.894 82.7575C183.031 82.7575 178.968 80.5832 176.705 76.2356C176.511 75.8617 176.066 75.6908 175.681 75.8623L161.15 82.3228C160.945 82.4135 160.856 82.6557 160.953 82.8576L161.119 83.1976C166.197 93.3831 175.456 98.4762 188.894 98.4762C196.57 98.4762 202.975 96.6178 208.107 92.9004C213.24 89.1836 215.806 83.8769 215.806 76.9805C215.806 72.4128 214.623 68.6059 212.258 65.5609C209.892 62.5158 207.014 60.3438 203.622 59.0453C200.491 57.8464 197.36 56.8384 194.229 56.0212L193.446 55.8209C190.054 54.9699 187.175 53.9847 184.81 52.8652Z" fill="#212067"/>
<path d="M0 43.0039C0 22.7316 0 12.5956 6.29775 6.29775C12.5956 0 22.7316 0 43.0039 0H81.046C101.318 0 111.454 0 117.752 6.29775C124.05 12.5956 124.05 22.7316 124.05 43.0039V81.046C124.05 101.318 124.05 111.454 117.752 117.752C111.454 124.05 101.318 124.05 81.046 124.05H43.0039C22.7316 124.05 12.5956 124.05 6.29775 117.752C0 111.454 0 101.318 0 81.046V43.0039Z" fill="#4945FF"/>
<path d="M85.5942 37.6289H43.8306V58.9241H65.126V80.2192H86.4211V38.4559C86.4211 37.9992 86.0507 37.6289 85.5942 37.6289Z" fill="white"/>
<path d="M65.2987 58.9219H64.2987V59.9219H65.2987V58.9219Z" fill="white"/>
<path d="M43.8306 58.9219H64.2987C64.7556 58.9219 65.126 59.2923 65.126 59.7487V80.2169H44.6576C44.2008 80.2169 43.8306 79.8471 43.8306 79.3901V58.9219Z" fill="#9593FF"/>
<path d="M65.1261 80.2188H86.4211L65.8318 100.808C65.5714 101.068 65.1261 100.884 65.1261 100.516V80.2188Z" fill="#9593FF"/>
<path d="M43.8306 58.9241H23.5337C23.1653 58.9241 22.9808 58.4787 23.2413 58.2182L43.8306 37.6289V58.9241Z" fill="#9593FF"/>
</g>
<defs>
<clipPath id="clip0_1_10891">
<rect width="512" height="125" fill="white"/>
</clipPath>
</defs>
</svg>
