<svg width="256" height="140" viewBox="0 0 256 140" fill="none" xmlns="http://www.w3.org/2000/svg">
<g clip-path="url(#clip0_1_10901)">
<path d="M123.888 2.18176C125.808 -0.727253 130.146 -0.727253 132.138 2.18176L172.891 62.9322L216.212 127.451C215.701 128.361 215.11 129.225 214.448 130.032C213.996 130.571 213.568 131.08 213.034 131.603C212.916 131.715 212.803 131.803 212.663 131.909L212.513 132.024C212.023 132.39 211.518 132.736 210.999 133.062C210.579 133.325 210.232 133.557 209.73 133.798C209.229 134.04 208.428 134.33 207.946 134.495C207.463 134.662 207.302 134.718 206.946 134.797C206.768 134.832 206.59 134.867 206.413 134.889C206.291 134.91 206.171 134.931 206.05 134.946C206.029 134.953 206 134.953 205.979 134.96L205.438 135.024C204.87 135.081 204.279 135.11 203.675 135.11C153.404 140.591 102.686 140.591 52.4141 135.11C52.357 135.11 52.3007 135.11 52.2435 135.102L52.0728 135.101L51.9943 135.095H51.9167C51.8595 135.088 51.8023 135.088 51.746 135.081H51.6888C51.6103 135.074 51.5386 135.074 51.4618 135.067C50.9925 135.031 50.4455 134.913 50.0538 134.826C49.6613 134.747 49.4275 134.683 49.1007 134.611C45.2316 133.694 41.6767 131.362 40.0476 127.586C40.005 127.486 39.9691 127.387 39.9265 127.287L39.9196 127.266L0.225165 26.0247C-0.841501 23.1806 2.07434 20.3356 4.9185 21.6872C4.99018 21.6872 5.13183 21.6872 5.20351 21.7581L83.106 62.9314L123.888 2.18176ZM250.894 21.7589C253.746 20.1948 256.804 22.8964 255.808 25.8831V26.0256L216.213 127.452L172.891 62.9322L250.823 21.7589H250.894Z" fill="#FF4B4B"/>
<path d="M250.894 21.7593H250.823L172.892 62.9326L216.213 127.452L255.808 26.026V25.8834C256.803 22.8968 253.746 20.1951 250.894 21.7593Z" fill="#7D353B"/>
<path d="M132.138 2.18176C130.146 -0.727253 125.808 -0.727253 123.888 2.18176L83.106 62.9322L127.984 86.6549L213.034 131.603C213.568 131.08 213.996 130.571 214.448 130.032C215.11 129.225 215.701 128.361 216.212 127.451L172.891 62.9322L132.138 2.18176Z" fill="#BD4043"/>
</g>
<defs>
<clipPath id="clip0_1_10901">
<rect width="256" height="140" fill="white"/>
</clipPath>
</defs>
</svg>
