<svg width="256" height="256" viewBox="0 0 256 256" fill="none" xmlns="http://www.w3.org/2000/svg">
<g clip-path="url(#clip0_1_10906)">
<path d="M20.6399 58.4328L121.856 113.665L124.928 55.2968L93.6319 4.80078C63.2365 13.2702 37.4117 32.5982 20.6399 58.4328ZM165.504 5.60078L132.096 55.2968L133.12 117.761L236.48 60.2888C220.311 34.4354 195.26 14.7132 165.504 5.60078Z" fill="#006EAF"/>
<path d="M60.032 236.321L122.88 134.145L20.608 58.4648C7.61534 78.4931 0 102.349 0 128.001C0 173.691 24.012 213.672 60.032 236.321ZM236.48 60.2888L133.12 134.145L197.024 235.649C232.455 212.884 256 173.243 256 128.001C256 103.115 248.799 79.941 236.512 60.2888C236.509 60.2837 236.483 60.294 236.48 60.2888Z" fill="#00A7E1"/>
<path d="M129.024 255.938L122.88 155.65L60.064 236.322C79.7696 248.706 103.008 256.002 128 256.002C128.346 256.002 128.679 255.94 129.024 255.938ZM197.024 235.65L132.096 153.602L129.024 255.938C154.082 255.739 177.364 248.281 197.024 235.65Z" fill="#5BC9EC"/>
<path d="M165.504 5.60153L129.024 49.1535L93.6641 4.76953C93.6516 4.7726 93.6446 4.7981 93.6322 4.80148L124.928 55.2975L121.856 113.666L20.6401 58.4335C20.6319 58.4458 20.616 58.4533 20.6082 58.4655L122.88 134.146L60.0321 236.322C60.0403 236.327 60.0564 236.316 60.0641 236.322L122.88 155.65L129.024 255.938L132.096 153.602L197.024 235.65L133.12 134.146L236.48 60.2895L133.12 117.762L132.096 55.2975L165.504 5.60153Z" fill="white"/>
<path d="M128 0C116.084 0 104.609 1.72193 93.6641 4.768L129.024 49.152L165.504 5.6C153.635 1.96526 141.06 0 128 0Z" fill="#013A78"/>
</g>
<defs>
<clipPath id="clip0_1_10906">
<rect width="256" height="256" fill="white"/>
</clipPath>
</defs>
</svg>
