<svg width="256" height="290" viewBox="0 0 256 290" fill="none" xmlns="http://www.w3.org/2000/svg">
<g clip-path="url(#clip0_1_10916)">
<path d="M241.026 73.9017L130.415 9.66016L9.6604 77.2828V212.528L130.415 280.151L246.34 212.528V77.2828V71.4866L241.026 73.9017Z" fill="#202A5A"/>
<path d="M9.6604 77.2828L130.415 144.905L246.34 77.2828L130.415 9.66016L9.6604 77.2828Z" fill="#2C448A"/>
<path d="M246.34 71.4883L207.698 91.7751L207.215 100.469L130.415 144.907V280.152L246.34 212.53V71.4883Z" fill="#283A79"/>
<path d="M9.6604 77.2812V212.527L130.415 280.149V144.904L9.6604 77.2812Z" fill="#202A5A"/>
<path d="M0 212.526V169.055L130.415 246.338V289.809L0 212.526Z" fill="#3558A7"/>
<path d="M0 77.2812V101.432L130.415 178.715V154.564L0 77.2812Z" fill="#3558A7"/>
<path d="M256 212.53V188.379L150.219 142.492L130.415 154.568V178.236L194.657 206.734L130.415 246.341V289.813L256 212.53Z" fill="#416FB5"/>
<path d="M194.657 206.733L186.928 203.835L130.415 236.681L9.66038 169.058V163.262L0 169.058L130.415 246.341L194.657 206.733Z" fill="#477FC1"/>
<path d="M56.9962 86.9434L130.415 43.4717L207.698 91.7736L246.34 71.4868L130.415 0L0 77.283L130.415 154.566L150.219 142.491L56.9962 86.9434Z" fill="#477FC1"/>
<path d="M207.215 100.469L207.698 91.7745L130.415 43.4727L56.9963 86.9444L65.2077 91.7745L130.415 53.133L207.215 100.469Z" fill="#202A5A"/>
</g>
<defs>
<clipPath id="clip0_1_10916">
<rect width="256" height="290" fill="white"/>
</clipPath>
</defs>
</svg>
