<svg width="256" height="154" viewBox="0 0 256 154" fill="none" xmlns="http://www.w3.org/2000/svg">
<g clip-path="url(#clip0_1_10932)">
<path d="M178.904 2.85668L176.795 1.43972C174.865 0.175451 172.516 -0.280823 170.253 0.169033H170.18C167.947 0.644812 165.99 1.97607 164.728 3.8775L74.8352 138.43C73.5747 140.348 73.1183 142.685 73.5645 144.936V145.055C74.0415 147.277 75.3736 149.222 77.273 150.47L79.3817 151.85C81.3081 153.128 83.664 153.585 85.9286 153.122C88.1931 152.658 90.1796 151.311 91.4486 149.379L181.342 14.8627C182.603 12.9313 183.059 10.5834 182.612 8.32034C182.159 6.0752 180.823 4.10634 178.904 2.85668ZM177.45 12.303L166.764 28.2948L157.969 22.4808L168.656 6.52553C169.242 5.6393 170.158 5.0239 171.2 4.81604C172.243 4.60323 173.328 4.81252 174.217 5.39806L176.326 6.81501C177.212 7.40136 177.827 8.31732 178.035 9.35944C178.241 10.3804 178.03 11.4411 177.45 12.3061V12.303ZM51.1126 118.182C49.9369 118.186 48.7951 117.788 47.8765 117.054L2.00674 80.8167C0.74024 79.8274 0 78.31 0 76.7029C0 75.0959 0.74024 73.5784 2.00674 72.5892L47.8399 36.2938C50.1119 34.4872 53.4182 34.8644 55.2248 37.1363C57.0315 39.4083 56.6543 42.7146 54.3823 44.5213L13.7477 76.709L54.3457 108.793C56.1085 110.174 56.8018 112.521 56.0726 114.639C55.3434 116.756 53.3521 118.179 51.1126 118.182ZM204.927 118.182C202.688 118.177 200.698 116.754 199.97 114.637C199.241 112.52 199.935 110.174 201.697 108.793L242.292 76.709L201.657 44.4969C200.188 43.3347 199.45 41.4768 199.721 39.6229C199.993 37.7691 201.233 36.2009 202.974 35.5092C204.715 34.8175 206.693 35.1073 208.163 36.2694L253.993 72.6044C255.26 73.5936 256 75.1111 256 76.7182C256 78.3252 255.26 79.8427 253.993 80.8319L208.163 117.021C207.247 117.764 206.106 118.173 204.927 118.182Z" fill="black"/>
<path d="M114.102 45.0362C116.966 37.1677 119.326 34.8448 127.194 31.9443C119.326 29.0803 117.018 26.7209 114.102 18.8555C111.238 26.724 108.879 29.0468 101.011 31.9473C108.882 34.8448 111.202 37.1677 114.102 45.0362Z" fill="#1C96D4"/>
<path d="M81.7193 89.5313C86.7238 75.8952 90.7493 71.8697 104.385 66.8653C90.7493 61.8608 86.7238 57.8353 81.7193 44.1992C76.7149 57.8353 72.6894 61.8608 59.0533 66.8653C72.6894 71.8332 76.7514 75.8952 81.7193 89.5313Z" fill="#C61A41"/>
<path d="M170.24 110.492C173.867 100.593 176.804 97.6924 186.658 94.0743C176.759 90.4471 173.858 87.5101 170.24 77.6562C166.613 87.5557 163.676 90.4563 153.822 94.0743C163.676 97.6924 166.613 100.642 170.24 110.492Z" fill="#EEB034"/>
</g>
<defs>
<clipPath id="clip0_1_10932">
<rect width="256" height="154" fill="white"/>
</clipPath>
</defs>
</svg>
