<svg width="256" height="332" viewBox="0 0 256 332" fill="none" xmlns="http://www.w3.org/2000/svg">
<g clip-path="url(#clip0_1_10947)">
<path d="M255.288 166.796C255.288 162.909 252.416 160.668 248.891 161.782L6.39728 238.677C2.8653 239.797 0 243.861 0 247.741V326.331C0 330.217 2.8653 332.466 6.39728 331.345L248.891 254.457C252.416 253.337 255.288 249.273 255.288 245.386V166.796Z" fill="url(#paint0_linear_1_10947)"/>
<path d="M0 164.292C0 168.179 2.8653 172.243 6.39728 173.363L248.927 250.265C252.458 251.386 255.324 249.138 255.324 245.258V166.661C255.324 162.782 252.458 158.718 248.927 157.597L6.39728 80.6949C2.8653 79.5743 0 81.8155 0 85.7021V164.292Z" fill="#FF9800"/>
<path d="M255.288 5.30235C255.288 1.41576 252.416 -0.832511 248.891 0.288077L6.39728 77.176C2.8653 78.2966 0 82.3605 0 86.2471V164.837C0 168.724 2.8653 170.965 6.39728 169.851L248.891 92.9564C252.416 91.8358 255.288 87.7719 255.288 83.8924V5.30235Z" fill="#FF9800"/>
</g>
<defs>
<linearGradient id="paint0_linear_1_10947" x1="14070.8" y1="10145.1" x2="15141.5" y2="6564.88" gradientUnits="userSpaceOnUse">
<stop stop-color="#FF9700"/>
<stop offset="0.53" stop-color="#F48E00"/>
<stop offset="1" stop-color="#D06F00"/>
</linearGradient>
<clipPath id="clip0_1_10947">
<rect width="256" height="332" fill="white"/>
</clipPath>
</defs>
</svg>
