<svg width="256" height="380" viewBox="0 0 256 380" fill="none" xmlns="http://www.w3.org/2000/svg">
<g clip-path="url(#clip0_1_11742)">
<path d="M245.829 92.642C243.239 90.475 240.326 87.875 232.34 85.816V85.707C243.779 56.235 235.901 44.533 224.894 35.323C216.908 28.605 202.987 27.305 192.088 29.797C180.325 7.91 153.562 0.217 128.202 0C102.843 0.217 76.08 7.91 64.209 29.689C53.31 27.197 39.389 28.605 31.403 35.215C20.396 44.425 12.518 56.127 23.957 85.599V85.707C15.971 87.766 13.166 90.475 10.576 92.642C4.856 97.084 0 104.019 0 114.313C0.54 130.674 13.489 254.738 13.489 254.738C13.489 255.063 13.813 255.388 14.137 255.388C14.353 255.388 14.461 255.28 14.568 255.172L26.223 244.228V261.89C26.223 262.323 26.547 262.54 26.871 262.54C26.979 262.54 27.195 262.54 27.302 262.323L47.051 245.203V255.497C47.051 255.93 47.374 256.147 47.698 256.147C47.914 256.147 48.022 256.039 48.13 255.93L59.245 245.203L66.907 237.835C67.339 277.384 65.828 325.493 59.029 370.243C57.95 377.503 61.943 379.236 65.504 379.236C67.447 379.236 69.173 378.695 70.036 378.261C80.936 372.518 90.001 349.656 95.936 324.193C100.9 303.064 106.404 275.542 111.584 242.061C113.958 243.253 120.972 245.42 127.987 245.42C135.001 245.42 141.908 243.253 144.39 242.061C149.462 275.434 155.073 302.956 160.037 324.193C165.973 349.656 175.037 372.518 185.937 378.261C186.8 378.695 188.635 379.236 190.469 379.236C194.03 379.236 198.131 377.503 196.944 370.243C190.145 325.601 188.635 277.493 189.066 237.835L196.728 245.203L207.843 255.93C207.951 256.039 208.167 256.147 208.275 256.147C208.599 256.147 208.923 255.822 208.923 255.497V245.203L228.671 262.323C228.779 262.431 228.995 262.54 229.103 262.54C229.426 262.54 229.75 262.215 229.75 261.89V244.228L241.405 255.172C241.513 255.28 241.728 255.388 241.836 255.388C242.16 255.388 242.484 255.172 242.484 254.738C242.484 254.738 255.434 130.782 255.973 114.313C256.405 104.019 251.549 97.084 245.829 92.642Z" fill="#564740"/>
<path d="M132.195 181.925L128.202 178.133L124.21 181.925V182.033L119.569 186.693C122.267 189.51 125.181 191.027 128.202 191.027C131.224 191.027 134.138 189.51 136.836 186.693L132.195 181.925Z" fill="#483A34"/>
<path d="M140.936 194.926H115.468L114.389 203.378H142.016L140.936 194.926Z" fill="#AAD9BD"/>
<path d="M110.828 195.469C110.828 195.469 107.483 220.065 106.296 228.625C96.583 295.046 82.878 364.825 67.123 371.652C65.936 372.193 64.857 371.11 64.964 369.918C66.907 359.408 71.331 331.669 72.734 306.856C73.813 288.436 74.245 255.063 74.353 220.607L83.85 211.505C84.605 210.747 85.792 211.072 85.792 212.264V220.824L110.828 195.469Z" fill="#F7E3D6"/>
<path d="M85.684 220.933V212.373C85.684 211.181 84.497 210.856 83.742 211.615L77.806 217.249C77.699 220.175 76.404 272.509 76.404 283.345C76.404 313.467 68.634 360.709 69.389 360.709C76.188 360.709 85.684 258.315 88.814 217.574L85.684 220.933Z" fill="#FAF1EB"/>
<path d="M145.577 195.469C145.577 195.469 148.922 220.065 150.109 228.625C159.821 295.046 173.527 364.825 189.282 371.652C190.469 372.193 191.548 371.11 191.44 369.918C189.498 359.408 185.073 331.669 183.671 306.856C182.591 288.436 182.16 255.063 182.052 220.607L172.555 211.505C171.8 210.747 170.613 211.072 170.613 212.264V220.824L145.577 195.469Z" fill="#F7E3D6"/>
<path d="M227.052 90.1517C221.548 89.2847 204.714 89.5017 204.498 89.5017L225.541 84.6257C241.621 50.2777 217.016 33.9167 202.124 33.9167C197.052 33.9167 183.779 35.7587 182.268 35.7587C182.268 35.7587 184.75 35.4327 185.397 34.7827C185.397 28.3897 167.591 7.26172 128.202 7.26172C88.922 7.26172 71.008 28.3897 71.008 34.7827C71.655 35.4327 74.137 35.7587 74.137 35.7587C72.626 35.7587 59.353 33.9167 54.281 33.9167C39.497 33.9167 14.784 50.1687 30.864 84.6257L51.907 89.5017C51.799 89.5017 34.856 89.3927 29.353 90.1517C21.799 91.3437 7.01401 99.4697 7.01401 113.881C7.01401 120.599 9.82001 140.428 9.82001 140.428H246.477C246.477 140.428 249.283 120.599 249.283 113.881C249.391 99.4697 234.606 91.3437 227.052 90.1517Z" fill="#63C199"/>
<path d="M217.664 47.0255C214.102 44.4255 209.354 43.3415 202.987 43.3415C202.987 43.3415 200.181 43.4505 198.563 43.6665C183.347 45.6175 177.951 53.8525 163.275 53.8525C155.829 53.8525 159.821 36.0825 159.821 36.0825C159.821 36.0825 178.598 36.5155 178.598 35.2155C178.598 29.4725 156.476 12.8945 129.713 12.8945H126.476C99.713 12.8945 77.59 29.4725 77.59 35.2155C77.59 36.5155 96.368 36.0825 96.368 36.0825C96.368 36.0825 100.468 53.8525 92.914 53.8525C78.238 53.8525 72.842 45.6175 57.626 43.6665C56.008 43.4505 53.202 43.3415 53.202 43.3415C46.835 43.3415 42.087 44.4255 38.525 47.0255C33.561 50.7095 23.417 64.4705 41.115 87.1165L51.691 89.5005H204.282L214.858 87.1165C232.772 64.3625 222.628 50.6015 217.664 47.0255Z" fill="#C5E4D0"/>
<path d="M55.468 58.0781C54.389 58.0781 53.418 58.4031 52.554 59.0531C52.878 59.3791 52.986 59.7041 52.986 60.1371C52.986 61.0041 52.339 61.6541 51.475 61.6541C51.151 61.6541 50.828 61.5461 50.504 61.3291C49.964 62.3041 49.749 63.4961 49.749 64.6881C49.749 68.3721 52.339 71.2971 55.576 71.2971C58.813 71.2971 61.403 68.3721 61.403 64.6881C61.296 61.0041 58.706 58.0781 55.468 58.0781Z" fill="#483A34"/>
<path d="M54.281 60.1373C54.281 59.3793 53.957 58.6203 53.418 58.1873C52.878 57.6453 52.231 57.3203 51.475 57.3203C49.964 57.3203 48.669 58.6203 48.669 60.1373C48.669 61.0043 49.101 61.8713 49.749 62.4123C50.18 62.7383 50.828 62.9543 51.475 62.9543C52.986 62.9543 54.281 61.6543 54.281 60.1373Z" fill="#FBF9F6"/>
<path d="M123.562 101.96L116.871 95.6758L123.67 102.069L123.562 101.96Z" fill="#564740"/>
<path d="M123.994 102.395L126.8 104.995L123.67 102.07L123.994 102.395Z" fill="#564740"/>
<path d="M202.987 58.0781C201.908 58.0781 200.937 58.4031 200.074 59.0531C200.397 59.3791 200.505 59.7041 200.505 60.1371C200.505 61.0041 199.858 61.6541 198.994 61.6541C198.671 61.6541 198.347 61.5461 198.023 61.3291C197.484 62.3041 197.268 63.4961 197.268 64.6881C197.268 68.3721 199.858 71.2971 203.095 71.2971C206.333 71.2971 208.923 68.3721 208.923 64.6881C208.815 61.0041 206.225 58.0781 202.987 58.0781Z" fill="#483A34"/>
<path d="M201.8 60.1373C201.8 59.3793 201.476 58.6203 200.937 58.1873C200.397 57.6453 199.75 57.3203 198.994 57.3203C197.484 57.3203 196.189 58.6203 196.189 60.1373C196.189 61.0043 196.62 61.8713 197.268 62.4123C197.699 62.7383 198.347 62.9543 198.994 62.9543C200.505 62.9543 201.8 61.6543 201.8 60.1373Z" fill="#FBF9F6"/>
<path d="M132.843 101.96L139.533 95.6758L132.735 102.069L132.843 101.96Z" fill="#564740"/>
<path d="M170.721 220.933V212.373C170.721 211.181 171.908 210.856 172.663 211.615L178.598 217.249C178.706 220.175 180.001 272.509 180.001 283.345C180.001 313.467 187.771 360.709 187.016 360.709C180.217 360.709 170.721 258.315 167.591 217.574L170.721 220.933Z" fill="#FAF1EB"/>
<path d="M132.411 102.395L129.605 104.995L132.735 102.07L132.411 102.395Z" fill="#564740"/>
<path d="M207.951 110.195C184.75 100.118 150.109 96.5428 139.533 95.6758L132.735 102.069L132.411 102.394L129.605 104.994C129.282 105.319 128.742 105.536 128.202 105.536C127.663 105.536 127.231 105.319 126.8 104.994L123.994 102.394L123.67 102.069L116.871 95.6758C106.296 96.5428 71.655 100.118 48.454 110.195C23.525 121.03 9.82001 141.293 9.82001 140.426L11.007 153.32V153.211C48.454 110.195 124.102 181.817 124.102 181.817L128.094 178.024L132.087 181.817C132.087 181.817 207.736 110.195 245.182 153.211V153.32L246.369 140.426C246.585 141.293 232.88 121.03 207.951 110.195Z" fill="#AAD9BD"/>
<path d="M124.21 181.923L119.138 129.48C113.742 136.523 104.03 142.807 88.058 142.807C63.238 142.807 48.562 110.193 11.115 153.209L18.777 236.75L19.317 240.759L29.892 229.923L31.187 157.002L32.806 155.918L33.346 247.368L45.864 236.533L51.583 231.549C52.015 210.203 52.662 173.471 52.662 173.471L54.389 172.28L54.713 239.675L64.964 229.815L65.612 229.165L71.763 223.206C72.087 205.869 72.411 189.399 72.411 189.399L74.137 187.882L74.353 220.822L77.914 217.354L83.85 211.72C84.173 211.395 84.497 211.287 84.821 211.287C85.36 211.287 85.792 211.72 85.792 212.479V221.038L124.21 181.923Z" fill="#C5E4D0"/>
<path d="M157.016 82.3488C156.692 82.2408 156.368 82.1328 156.044 82.1328H100.36C100.037 82.1328 99.605 82.2408 99.389 82.3488C98.634 82.7828 98.202 83.6498 98.634 84.4078L98.958 84.8418L123.562 108.029L123.67 108.138L126.8 111.063C127.123 111.388 127.663 111.605 128.202 111.605C128.742 111.605 129.174 111.388 129.605 111.063L132.735 108.138L132.843 108.029L157.447 84.8418C157.555 84.7328 157.663 84.6248 157.771 84.4078C158.203 83.6498 157.879 82.6738 157.016 82.3488Z" fill="#564740"/>
<path d="M132.195 181.923L137.267 129.48C142.663 136.523 152.375 142.807 168.347 142.807C193.167 142.807 207.843 110.193 245.29 153.209L237.628 236.75L237.088 240.759L226.513 229.923L225.218 157.002L223.599 155.918L223.059 247.368L210.541 236.533L204.822 231.549C204.39 210.203 203.743 173.471 203.743 173.471L202.016 172.28L201.692 239.675L191.44 229.815L190.793 229.165L184.642 223.206C184.318 205.869 183.994 189.399 183.994 189.399L182.268 187.882L182.052 220.822L178.491 217.354L172.555 211.72C172.232 211.395 171.908 211.287 171.584 211.287C171.044 211.287 170.613 211.72 170.613 212.479V221.038L132.195 181.923Z" fill="#C5E4D0"/>
<path d="M232.34 68.4793C232.34 66.3123 232.34 64.2533 232.232 62.1953V85.7073C232.34 68.0463 232.34 68.9133 232.34 68.4793Z" fill="#564740"/>
<path d="M92.375 60.5706C104.677 60.5706 97.339 40.3086 97.339 40.3086C97.339 40.3086 98.31 48.6526 88.814 48.6526C70.468 48.6526 70.468 42.2596 55.792 42.2596C43.705 42.2596 39.821 46.1606 39.821 46.1606C67.662 39.4426 74.569 60.5706 92.375 60.5706Z" fill="#AAD9BD"/>
<path d="M141.908 202.619L135.217 195.902C132.843 196.227 130.577 196.335 128.202 196.335C125.828 196.335 123.454 196.118 121.188 195.902L114.497 202.619L110.397 232.742C115.361 236.859 121.296 238.593 127.987 238.593H128.418C135.217 238.593 141.044 236.859 146.008 232.742L141.908 202.619Z" fill="#C5E4D0"/>
<path d="M140.181 190.053L136.836 186.586C134.138 189.403 131.224 190.92 128.202 190.92C125.181 190.92 122.267 189.403 119.569 186.586L116.224 190.053L115.576 194.929C116.332 195.146 116.979 195.255 117.735 195.363C121.188 196.013 124.641 196.338 128.202 196.338C131.764 196.338 135.325 196.013 138.67 195.363C139.426 195.255 140.181 195.038 140.828 194.929L140.181 190.053Z" fill="#63C199"/>
<path d="M164.03 60.5706C151.728 60.5706 159.066 40.3086 159.066 40.3086C159.066 40.3086 158.095 48.6526 167.591 48.6526C185.937 48.6526 185.937 42.2596 200.613 42.2596C212.699 42.2596 216.585 46.1606 216.585 46.1606C188.742 39.4426 181.836 60.5706 164.03 60.5706Z" fill="#AAD9BD"/>
</g>
<defs>
<clipPath id="clip0_1_11742">
<rect width="256" height="380" fill="white"/>
</clipPath>
</defs>
</svg>
