<svg width="512" height="111" viewBox="0 0 512 111" fill="none" xmlns="http://www.w3.org/2000/svg">
<g clip-path="url(#clip0_1_11777)">
<path d="M161.091 49.973C169.52 51.3103 177.802 57.1875 177.667 65.8855C177.667 71.2346 175.397 76.1791 171.25 79.6516C156.675 91.1589 130.873 84.2028 130.469 64.8179H143.842C144.381 69.7625 148.393 73.7743 153.731 73.6394C159.35 73.6394 164.294 71.3694 164.294 65.8855C164.294 63.3458 162.822 62.0085 160.417 60.8061C151.461 57.1988 138.223 57.3336 132.739 48.3772C129.401 42.3651 132.076 34.2066 137.414 29.925C141.83 26.3178 147.573 24.8456 153.731 24.8456C164.699 24.7108 176.465 31.8017 176.465 42.7584H162.822C161.08 36.6114 152.394 34.7348 147.179 38.0836C144.505 39.8254 143.437 43.0281 145.977 45.0397C149.989 48.2424 156.012 49.1751 161.091 49.973ZM309.102 39.286C323.003 38.8814 335.174 52.2542 332.229 66.4249H298C301.213 75.2464 312.844 77.1231 318.317 69.6388H331.42C325.936 85.9559 304.146 90.361 292.381 78.4604C277.277 63.6155 288.639 39.1511 309.102 39.286ZM320.194 58.1315C316.182 47.703 302.011 47.703 298 58.1315H320.194ZM390.26 24.8456H402.296V85.2704H390.26V24.8456ZM216.706 39.286V61.6039C216.043 77.5164 194.242 77.5164 193.714 61.6039V39.2748H181.679V61.6039C181.679 64.0088 182.083 66.4136 182.746 68.6949C185.825 78.4604 194.917 85.1355 205.21 85.1355C215.504 85.1355 224.595 78.4492 227.674 68.6949C228.337 66.4249 228.742 64.02 228.742 61.6039V39.286H216.706ZM384.911 62.2782C384.911 49.5797 374.483 39.286 361.515 39.286C348.546 39.286 338.118 49.5797 338.118 62.2782C338.118 74.9767 348.535 85.2704 361.515 85.2704C365.661 85.2704 369.538 84.2028 372.876 82.3261V85.2704H384.911V62.2782ZM361.38 74.1788C354.558 74.1788 349.209 68.8297 349.209 62.1433C349.209 55.5918 354.693 50.1078 361.38 50.1078C368.201 50.1078 373.55 55.457 373.55 62.1433C373.55 68.8297 368.055 74.1788 361.38 74.1788ZM257.623 39.286C247.329 39.286 238.238 45.9724 235.159 55.7267C234.496 57.9967 234.091 60.4015 234.091 62.8176V85.1468H246.127V62.8176C246.396 54.7939 252.015 50.7821 257.623 50.7821V39.286ZM283.289 39.286C272.996 39.286 263.905 45.9724 260.825 55.7267C260.162 57.9967 259.758 60.4015 259.758 62.8176V85.1468H271.793V62.8176C272.063 54.7939 277.671 50.7821 283.289 50.7821V39.286Z" fill="black"/>
<path d="M442.538 27.1172C438.796 25.645 434.649 24.8472 430.109 24.8472H407.645V85.1483H430.109C434.919 85.1483 439.2 84.3504 442.943 82.8783C454.439 78.4619 460.855 67.1007 460.72 54.9303C460.855 42.76 454.034 31.5223 442.538 27.1172ZM447.887 55.0539C448.011 64.5497 440.122 73.2477 430.502 73.1128H419.535V37.0063H430.502C440.133 36.8714 448.022 45.693 447.887 55.0539ZM504.03 52.9188C513.526 45.7042 508.447 29.7917 498.142 26.1732C495.872 25.2405 493.467 24.8359 490.927 24.8359H466.058V85.1371C467.53 85.1371 494.265 85.1371 494.265 85.1371C499.075 85.1371 503.626 83.3952 506.963 80.1925C514.47 72.978 513.661 58.2679 504.03 52.9188ZM477.959 37.0063H490.523C493.737 37.0063 496.4 39.2763 496.276 42.6251C496.411 45.8391 493.737 48.5136 490.523 48.3788H477.959V37.0063ZM493.602 73.1128H478.094V60.0097H493.602C496.816 59.8749 499.49 63.4822 499.355 66.6961C499.49 69.764 496.816 73.2477 493.602 73.1128Z" fill="url(#paint0_linear_1_11777)"/>
<path d="M47.1981 28.9706L73.4155 43.4896V37.6685L47.1981 23.1832C43.2986 25.3409 24.4531 35.7581 20.9807 37.6685C24.2059 39.4553 58.0761 58.166 78.6634 69.5385V75.3371C75.8652 76.8879 47.1981 92.7217 47.1981 92.7217C39.3542 88.3952 23.5653 79.6748 15.7327 75.3371V57.9525L47.1981 75.3371L52.446 72.4378L10.4847 49.2658V78.2476L47.1981 98.5203C50.8166 96.52 81.2256 79.7198 83.9002 78.2364V66.6504L31.4654 37.6685L47.1981 28.9706ZM10.4847 31.8699V43.4672L62.9195 72.449L47.1868 81.1469L20.9694 66.6279V72.449L47.1868 86.9343C51.0863 84.7767 69.9318 74.3594 73.4042 72.449C70.179 70.6622 36.32 51.9516 15.7327 40.5679V34.7692C18.5309 33.2184 47.1981 17.3846 47.1981 17.3846C55.0307 21.7223 70.8196 30.4427 78.6634 34.7692V52.1539L47.1981 34.7692L41.9501 37.6685L83.9002 60.8518V31.8699L47.1981 11.586C43.5683 13.5975 13.1705 30.3978 10.4847 31.8699ZM47.1981 0L0 26.0825V84.035L47.1981 110.118L94.3961 84.0462V26.0825L47.1981 0ZM89.1369 81.1357L47.1981 104.319L5.24797 81.1357V28.9819L47.1981 5.79862L89.1481 28.9819L89.1369 81.1357Z" fill="url(#paint1_linear_1_11777)"/>
</g>
<defs>
<linearGradient id="paint0_linear_1_11777" x1="2625.13" y1="1605.87" x2="5079.82" y2="5857.51" gradientUnits="userSpaceOnUse">
<stop stop-color="#FF00A0"/>
<stop offset="1" stop-color="#9600FF"/>
</linearGradient>
<linearGradient id="paint1_linear_1_11777" x1="2930.71" y1="1288.92" x2="7477.7" y2="9164.54" gradientUnits="userSpaceOnUse">
<stop stop-color="#FF00A0"/>
<stop offset="1" stop-color="#9600FF"/>
</linearGradient>
<clipPath id="clip0_1_11777">
<rect width="512" height="111" fill="white"/>
</clipPath>
</defs>
</svg>
