<svg width="256" height="299" viewBox="0 0 256 299" fill="none" xmlns="http://www.w3.org/2000/svg">
<g clip-path="url(#clip0_1_11774)">
<path d="M128 78.5676L199.101 117.943V102.156L128 62.8724C117.425 68.7238 66.3162 96.9752 56.899 102.156C65.6457 107.002 157.501 157.745 213.333 188.587V204.312C205.745 208.518 128 251.459 128 251.459C106.728 239.726 63.9086 216.076 42.6667 204.312V157.166L128 204.312L142.232 196.45L28.4343 133.608V212.206L128 267.185C137.813 261.76 220.282 216.198 227.535 212.175V180.754L85.3333 102.156L128 78.5676ZM28.4343 86.4305V117.882L170.636 196.48L127.97 220.069L56.8686 180.693V196.48L127.97 235.764C138.545 229.912 189.653 201.661 199.07 196.48C190.324 191.634 98.4991 140.891 42.6667 110.019V94.2933C50.2552 90.0876 128 47.1467 128 47.1467C149.242 58.9105 192.061 82.56 213.333 94.2933V141.44L128 94.2933L113.768 102.156L227.535 165.029V86.4305L128 31.421C118.156 36.8762 35.7181 82.4381 28.4343 86.4305ZM128 0L0 70.7352V227.901L128 298.636L256 227.931V70.7352L128 0ZM241.737 220.038L128 282.91L14.2324 220.038V78.5981L128 15.7257L241.768 78.5981L241.737 220.038Z" fill="url(#paint0_linear_1_11774)"/>
</g>
<defs>
<linearGradient id="paint0_linear_1_11774" x1="7948.02" y1="3495.53" x2="20279.3" y2="24854" gradientUnits="userSpaceOnUse">
<stop stop-color="#FF00A0"/>
<stop offset="1" stop-color="#9600FF"/>
</linearGradient>
<clipPath id="clip0_1_11774">
<rect width="256" height="299" fill="white"/>
</clipPath>
</defs>
</svg>
