<svg width="256" height="258" viewBox="0 0 256 258" fill="none" xmlns="http://www.w3.org/2000/svg">
<g clip-path="url(#clip0_1_11782)">
<path d="M64.0767 59.9195V0.0284341C47.1179 0.0284341 30.8507 6.78196 18.8399 18.8093C7.12198 30.5433 0.387789 46.3631 0.0159379 62.9478L0 64.3988C0.0567543 81.4048 6.81043 97.6962 18.7858 109.716C30.469 121.442 46.1959 128.173 62.6755 128.533L64.0716 128.548C80.9986 128.504 97.2209 121.733 109.196 109.714C121.17 97.6948 127.923 81.4033 127.98 64.3988V0.0284341C111.76 0.0331969 96.1465 6.21659 84.2873 17.3315C72.4277 28.4464 65.2054 43.6656 64.0767 59.9195ZM191.877 128.566H255.954C255.949 112.273 249.795 96.5883 238.732 84.6753C227.669 72.7614 212.52 65.5054 196.341 64.3704H255.954C255.956 47.3343 249.234 30.9926 237.262 18.9266C225.583 7.15479 209.835 0.389577 193.327 0.0160114L191.882 0C174.952 0.0529466 158.73 6.83577 146.762 18.8664C135.086 30.6036 128.384 46.4048 128.025 62.9626L128.01 64.3652C128.054 81.372 134.795 97.67 146.762 109.7C158.729 121.729 174.948 128.512 191.877 128.566ZM64.1051 128.565H0.0284341C0.0284341 144.852 6.1766 160.533 17.2303 172.447C28.284 184.362 43.4227 191.624 59.5952 192.77H0.0284341C0.0284341 209.807 6.75132 226.148 18.7239 238.213C30.4045 249.984 46.1522 256.748 62.6608 257.12L64.1051 257.136C81.0335 257.079 97.2507 250.295 109.215 238.264C120.888 226.528 127.588 210.729 127.946 194.173L127.961 192.77C127.92 175.765 121.18 159.467 109.215 147.437C97.2507 135.407 81.0335 128.622 64.1051 128.565ZM192.087 128.586H191.928C174.998 128.627 158.771 135.398 146.795 147.42C134.818 159.442 128.065 175.737 128.01 192.746V257.116C144.227 257.114 159.839 250.937 171.7 239.828C183.56 228.719 190.787 213.506 191.923 197.256V257.116C208.881 257.117 225.149 250.365 237.16 238.339C248.878 226.605 255.613 210.786 255.984 194.202L256 192.751C255.946 175.743 249.194 159.448 237.218 147.425C225.243 135.402 209.018 128.63 192.087 128.586Z" fill="#171D1A"/>
</g>
<defs>
<clipPath id="clip0_1_11782">
<rect width="256" height="258" fill="white"/>
</clipPath>
</defs>
</svg>
