<svg width="512" height="96" viewBox="0 0 512 96" fill="none" xmlns="http://www.w3.org/2000/svg">
<g clip-path="url(#clip0_1_11785)">
<path d="M23.8467 22.2996V0.010582C17.5354 0.010582 11.4814 2.52396 7.01142 7.00004C2.65051 11.3669 0.144319 17.2544 0.00593143 23.4266L0 23.9666C0.0211216 30.2955 2.53456 36.3585 6.99129 40.8319C11.3393 45.1959 17.1922 47.7005 23.3252 47.8347L23.8448 47.8403C30.1443 47.8241 36.1816 45.3041 40.6382 40.8311C45.0945 36.358 47.6076 30.295 47.6287 23.9666V0.010582C41.5925 0.0123545 35.7818 2.31356 31.3683 6.45006C26.9546 10.5866 24.2667 16.2505 23.8467 22.2996ZM71.4088 47.8468H95.2556C95.2537 41.7835 92.9635 35.9462 88.8461 31.5127C84.729 27.0788 79.0913 24.3784 73.07 23.956H95.2556C95.2561 17.6159 92.7546 11.5342 88.2991 7.04368C83.9526 2.66272 78.092 0.144984 71.9482 0.0059588L71.4107 0C65.1099 0.0197045 59.0729 2.54399 54.6188 7.02131C50.2733 11.3894 47.7794 17.27 47.6457 23.4321L47.6401 23.9541C47.6564 30.2833 50.1652 36.3487 54.6188 40.8256C59.0723 45.3025 65.1085 47.8268 71.4088 47.8468ZM23.8573 47.8465H0.010582C0.010582 53.9079 2.29868 59.7436 6.41241 64.1777C10.5262 68.6121 16.1601 71.3146 22.1789 71.7412H0.010582C0.010582 78.0814 2.51256 84.163 6.96827 88.6529C11.3153 93.0336 17.176 95.551 23.3198 95.6896L23.8573 95.6955C30.1573 95.6741 36.1927 93.1493 40.6455 88.6722C44.9897 84.3042 47.483 78.4245 47.6164 72.2632L47.622 71.7412C47.6065 65.4125 45.0983 59.347 40.6455 54.8699C36.1927 50.3927 30.1573 47.8677 23.8573 47.8465ZM71.4868 47.8544H71.4278C65.1269 47.8696 59.0881 50.3895 54.6309 54.8636C50.1736 59.3378 47.6604 65.4022 47.6401 71.732V95.6879C53.6752 95.6874 59.4855 93.3883 63.8995 89.2541C68.3135 85.1199 71.003 79.4581 71.4259 73.4105V95.6879C77.737 95.6885 83.7911 93.1756 88.2612 88.6998C92.622 84.3332 95.1284 78.446 95.2667 72.274L95.2726 71.7339C95.2526 65.4043 92.7397 59.34 88.2829 54.8655C83.826 50.3911 77.7877 47.8706 71.4868 47.8544Z" fill="#171D1A"/>
<path d="M146.36 51.3871L145.51 51.1192L142.204 50.1085L137.623 48.7284L136.764 48.4554L136.187 48.2606L135.815 48.1255L135.492 47.9977L135.214 47.8755L134.978 47.757L134.843 47.6791L134.725 47.6016L134.622 47.5238L134.535 47.4452L134.461 47.3654L134.401 47.2836L134.353 47.1995L134.316 47.1125C134.306 47.0829 134.297 47.0528 134.29 47.0219L134.273 46.9274L134.265 46.8283C134.265 46.8114 134.264 46.7943 134.264 46.7769C134.264 45.5703 136.257 45.1113 137.996 45.081L138.311 45.0806L138.595 45.0908L138.904 45.1129C138.958 45.1177 139.012 45.123 139.067 45.129L139.405 45.1722C140.899 45.3933 142.719 46.0725 142.719 47.8507H157.85C157.85 39.7148 150.553 32.5606 137.655 32.5606C127.956 32.5606 119.145 37.9196 119.145 46.7769C119.145 54.377 124.575 58.668 133.475 60.9934L139.552 62.5261L140.522 62.7819L141.168 62.961L141.748 63.1318L142.099 63.2422L142.573 63.4042L142.856 63.5109C142.901 63.5286 142.945 63.5463 142.988 63.5641L143.233 63.6706C143.272 63.6884 143.309 63.7062 143.346 63.7241L143.555 63.832L143.741 63.9417C144.293 64.2926 144.51 64.6806 144.51 65.2037C144.51 66.3593 143.039 66.8237 141.583 66.9936L141.205 67.0314L140.833 67.0575L140.473 67.0734L140.132 67.0805C140.077 67.0811 140.023 67.0813 139.97 67.0813C135.779 67.0813 132.938 65.7417 132.938 63.5044H117.81C117.81 71.9072 122.973 76.8174 131.052 78.7024L131.732 78.8525C133.677 79.2579 135.782 79.4955 138.016 79.5713L138.81 79.5913C139.076 79.5958 139.344 79.598 139.614 79.598C150.205 79.598 159.641 74.9494 159.641 65.5597L159.638 65.2274L159.627 64.8902L159.61 64.5483L159.584 64.2022L159.549 63.8521C159.542 63.7934 159.535 63.7346 159.527 63.6756L159.478 63.3202L159.417 62.9616C159.406 62.9016 159.394 62.8414 159.382 62.7812L159.304 62.4185L159.213 62.0535C159.197 61.9925 159.181 61.9314 159.163 61.8702L159.052 61.5023C158.778 60.6421 158.386 59.7696 157.838 58.9038L157.593 58.5332C155.769 55.8809 152.412 53.3168 146.36 51.3871ZM196.851 54.0381C196.851 62.2825 192.621 64.8646 188.642 65.2513L188.264 65.2816L187.888 65.2993C187.826 65.3012 187.763 65.3027 187.701 65.3036L187.516 65.3051C183.4 65.3051 180.983 63.4727 180.317 57.2072L180.254 56.5431C180.245 56.4298 180.236 56.3151 180.228 56.1991L180.184 55.4863C180.152 54.8787 180.134 54.2364 180.129 53.5578L180.127 33.4736H164.995V60.4782C164.995 72.3693 169.891 79.617 181.284 79.617C187.062 79.43 192.585 77.1791 196.86 73.2687L197.754 78.7233H211.993V33.4755H196.86L196.851 54.0381ZM244.039 32.565C242.245 32.6961 240.506 33.2016 238.928 34.0484C237.349 34.895 235.964 36.0647 234.862 37.4818L234.237 33.4625H220V78.697H235.131V61.7094C235.131 50.6223 238.512 46.8674 243.052 46.8674C244.497 46.8682 245.924 47.174 247.243 47.7649L249.202 34.4426C247.785 33.1731 245.936 32.5008 244.039 32.565ZM279.612 62.4438L268.751 33.4736H251.841L270.799 78.7157H288.326L307.289 33.4755H290.38L279.612 62.4438ZM319.309 28.6421C320.718 28.6361 322.094 28.217 323.264 27.4317C324.437 26.6463 325.348 25.53 325.887 24.224C326.426 22.9179 326.567 21.4808 326.293 20.0942C326.019 18.7076 325.339 17.434 324.345 16.4342C323.348 15.4344 322.081 14.7535 320.699 14.4774C319.32 14.2014 317.887 14.3427 316.587 14.8834C315.286 15.4242 314.173 16.3401 313.39 17.5153C312.61 18.6906 312.19 20.0724 312.19 21.4861V21.6774C312.204 22.6041 312.396 23.5193 312.762 24.3708C313.125 25.2224 313.653 25.9935 314.314 26.6403C314.975 27.287 315.755 27.7966 316.614 28.1401C317.47 28.4836 318.388 28.654 319.309 28.6421ZM326.886 33.4736H311.757V78.7157H326.886V33.4736ZM333.098 56.0782C333.019 59.1429 333.55 62.1924 334.667 65.0466C335.78 67.9006 337.454 70.5009 339.586 72.6936C341.721 74.8862 344.27 76.6268 347.085 77.8119C349.899 78.9971 352.92 79.6031 355.973 79.5939C360.397 79.7519 364.747 78.4312 368.345 75.839V61.5328C367.061 62.7784 365.538 63.7525 363.872 64.3973C362.206 65.0423 360.429 65.3451 358.644 65.2877C357.414 65.3313 356.187 65.1255 355.035 64.6823C353.884 64.2391 352.836 63.5678 351.95 62.7082C351.064 61.8489 350.357 60.8187 349.878 59.6796C349.395 58.5404 349.146 57.3157 349.146 56.0782C349.146 54.8405 349.395 53.6157 349.878 52.4766C350.357 51.3375 351.064 50.3075 351.95 49.448C352.836 48.5884 353.884 47.9171 355.035 47.4739C356.187 47.0307 357.414 46.8248 358.644 46.8685C360.415 46.7945 362.184 47.0724 363.848 47.6863C365.514 48.3002 367.042 49.2377 368.345 50.4457V36.3191C364.747 33.7269 360.397 32.4062 355.973 32.5641C352.925 32.5698 349.91 33.1859 347.101 34.3762C344.294 35.5665 341.751 37.3073 339.621 39.497C337.492 41.6864 335.818 44.2806 334.696 47.1274C333.577 49.9746 333.033 53.0173 333.098 56.0782ZM409.118 39.4507C407.249 35.7857 402.353 32.5606 395.5 32.5606C382.594 32.5606 373.692 43.11 373.692 56.0747C373.692 69.0391 382.594 79.5885 395.5 79.5885C402.359 79.5885 407.246 76.3694 409.118 72.6987L410.012 78.6891H424.253V33.4584H410.012L409.118 39.4507ZM398.171 65.288H397.857C395.443 65.2197 393.154 64.1979 391.485 62.4444C389.816 60.6911 388.906 58.3473 388.947 55.9222C388.987 53.4974 389.979 51.1863 391.707 49.4913C393.433 47.7966 395.757 46.8541 398.171 46.8685C400.601 46.8685 402.933 47.8391 404.653 49.5663C406.371 51.2933 407.338 53.6361 407.338 56.0785C407.338 58.5209 406.371 60.8634 404.653 62.5906C402.933 64.3179 400.601 65.288 398.171 65.288ZM453.339 20.0528H438.207V33.4652H430.465V47.7716H438.207V78.7075H453.339V47.7716H464.286V33.4652H453.339V20.0528ZM490.366 66.1779C484.943 66.1779 482.824 63.6726 482.248 61.6072L482.183 61.3461C482.173 61.3031 482.164 61.2603 482.156 61.2178L482.114 60.9665C482.103 60.884 482.094 60.8029 482.087 60.7233H512V56.7904C512 43.5559 503.453 32.5606 489.48 32.5606C475.597 32.5606 466.963 43.2899 466.963 55.8068C466.963 68.5033 475.954 79.5904 490.279 79.5904C503.453 79.5904 510.475 69.935 511.377 63.8547L498.203 62.5148C497.268 63.6905 496.074 64.633 494.714 65.2688C493.357 65.9043 491.869 66.2164 490.371 66.1798L490.366 66.1779ZM489.48 45.9731C493.931 45.9731 496.691 48.1187 496.868 50.4441H482.093C482.272 48.1187 485.029 45.9731 489.48 45.9731Z" fill="#171D1A"/>
</g>
<defs>
<clipPath id="clip0_1_11785">
<rect width="512" height="96" fill="white"/>
</clipPath>
</defs>
</svg>
