<svg width="512" height="238" viewBox="0 0 512 238" fill="none" xmlns="http://www.w3.org/2000/svg">
<g clip-path="url(#clip0_1_11789)">
<path d="M503.298 218.598C507.717 218.597 511.325 222.132 511.414 226.551C511.413 230.923 507.884 234.474 503.513 234.503C499.142 234.532 495.566 231.028 495.507 226.657C495.448 222.286 498.927 218.687 503.298 218.598ZM503.37 220.194C499.866 220.184 497.014 223.011 496.994 226.515C496.975 229.873 499.564 232.639 502.863 232.89L503.287 232.909L503.779 232.897C505.128 232.812 506.416 232.296 507.451 231.426L507.827 231.084C509.038 229.888 509.717 228.254 509.709 226.551C509.709 223.047 506.874 220.204 503.37 220.194ZM500.322 222.602H503.731C505.447 222.602 506.575 223.426 506.718 224.812L506.733 225.117C506.825 226.124 506.264 227.064 505.363 227.473L505.083 227.579L506.95 230.285H504.975L503.325 227.823H501.999V230.203H500.322V222.602ZM503.676 224.089H501.999V226.335H503.703V226.281C504.569 226.281 505.029 225.983 505.029 225.226C505.029 224.552 504.602 224.178 503.937 224.103L503.676 224.089Z" fill="#0D2C40"/>
<path d="M215.129 128.162V191.385C214.835 200.116 219.325 208.312 226.841 212.765C234.357 217.217 243.703 217.217 251.219 212.765C258.5 208.451 262.941 200.624 262.945 192.202L262.931 191.385V128.162H285.953V189.951C286.362 206.984 277.509 222.901 262.823 231.537C248.137 240.174 229.923 240.174 215.237 231.537C200.838 223.07 192.047 207.605 192.093 190.952L192.106 189.951V128.162H215.129ZM119.926 128.199L120.876 128.216H180.311V150.237H120.795C116.312 150.237 112.679 153.871 112.679 158.353C112.679 163.257 115.647 166.325 121.511 167.436L122.174 167.551L158.804 172.962C177.958 175.938 186.29 190.357 186.29 204.289C186.2 212.558 182.779 220.44 176.801 226.154C171.053 231.647 163.408 234.688 155.482 234.661L154.53 234.643H93.2816V232.668C93.2816 219.715 102.152 212.986 110.776 212.483L111.326 212.459H154.611C159.093 212.459 162.727 208.826 162.727 204.343C162.727 199.413 159.784 196.344 153.897 195.234L153.231 195.118L116.601 189.708C97.4749 186.759 89.1155 172.34 89.1155 158.434C89.2487 150.192 92.6877 142.348 98.66 136.666C104.402 131.203 112.024 128.177 119.926 128.199ZM323.527 128.198L324.477 128.216H383.858V150.237H324.342C319.859 150.237 316.226 153.871 316.226 158.353C316.226 163.257 319.194 166.325 325.058 167.436L325.721 167.551L362.351 172.962C381.559 175.938 389.918 190.357 389.918 204.289C389.821 212.56 386.394 220.443 380.412 226.155C374.66 231.648 367.012 234.688 359.084 234.661L358.131 234.643H298.885V212.459H358.212C362.694 212.459 366.328 208.826 366.328 204.343C366.328 199.413 363.36 196.344 357.472 195.234L356.805 195.118L320.203 189.708C301.049 186.759 292.69 172.34 292.69 158.434C292.823 150.187 296.265 142.339 302.244 136.656C307.992 131.192 315.62 128.17 323.527 128.198ZM426.788 128.145L427.738 128.162H492.044V130.11C492.044 143.037 483.147 149.79 474.522 150.295L473.972 150.318H427.657C423.335 150.318 419.802 153.697 419.555 157.957L419.541 158.434V178.589C422.039 174.453 426.449 171.873 431.248 171.699L431.905 171.69H480.14C477.007 183.931 467.15 194.582 450.084 194.972L449.11 194.983H429.037C426.509 194.786 424.018 195.684 422.196 197.449C420.515 199.078 419.553 201.3 419.507 203.625L419.514 204.208C419.514 208.53 422.893 212.063 427.153 212.31L427.63 212.324H473.945C482.581 212.589 491.631 219.053 492.004 231.716L492.016 232.533V234.507H427.765C419.522 234.792 411.51 231.75 405.532 226.067C399.784 220.603 396.38 213.137 396.008 205.239L395.978 204.289V158.434C396.097 150.182 399.53 142.325 405.504 136.631C411.248 131.156 418.877 128.124 426.788 128.145Z" fill="#0D2C40"/>
<path d="M49.8886 26.7925C94.0674 -0.402462 125.994 -0.573651 149.681 0.196572L152.934 0.30753C181.258 1.30849 211.449 11.0476 215.588 12.4543L215.751 3.06694C215.735 2.94691 215.783 2.82733 215.876 2.75039C215.938 2.6991 216.015 2.67156 216.094 2.67023L217.994 2.94192C226.326 4.20083 260.571 9.9746 275.917 18.92C277.36 19.8156 278.673 20.9029 279.821 22.1512L280.381 22.7886C284.871 27.4147 290.228 45.7025 291.797 51.1131C292.176 52.4658 290.58 53.5209 290.147 53.8185L288.578 54.9042C284.003 58.0017 275.479 63.0281 264.96 62.0696C254.139 61.1228 240.017 54.9547 223.136 43.8359L228.006 55.3605L228.249 55.631L230.579 56.7952C237.354 60.1302 255.97 68.8516 265.934 68.6435C273.769 68.1221 281.389 65.8963 288.265 62.1283L289.596 61.3798C290.042 61.155 291.487 60.556 290.958 62.5566L290.225 65.3454C290.12 65.7313 290.015 66.0961 289.914 66.4076L289.768 66.831L289.443 67.6696C289.128 68.8301 288.523 69.8915 287.685 70.7537C283.991 73.4866 279.917 75.6649 275.592 77.2193C264.303 81.7603 252.209 83.96 240.044 83.685C235.736 83.5903 231.532 83.1642 227.721 82.733L224 82.3154C212.226 81.0371 203.847 80.7092 202.008 91.7468C200.726 99.4091 204.577 108.462 210.162 116.681L210.746 117.528H188.292L187.683 116.421C180.678 103.37 176.852 85.9304 151.392 85.9304C128.079 85.9304 128.883 108.294 131.45 116.915L131.643 117.528H110.433C101.695 85.714 78.4566 72.0252 63.1175 69.3198L62.0633 69.1476C51.0839 67.4595 32.3251 67.8611 22.2404 86.9043C17.9527 95.9632 18.296 106.534 23.1623 115.295C28.0287 124.057 36.8211 129.935 46.7775 131.082C56.9765 132.191 64.6325 129.81 68.961 124.238C73.293 118.643 74.0891 111.079 71.017 104.705C68.3932 98.5096 62.5002 94.3227 55.7861 93.884C51.8015 93.2327 47.7691 94.7345 45.1814 97.8338C44.557 98.8222 44.1661 99.9371 44.0349 101.094L43.991 101.675L44.0028 102.113C44.1867 105.157 46.4808 107.691 49.5369 108.141C50.4274 108.124 51.3141 108.027 52.1865 107.854L53.0538 107.654L53.9465 107.356L54.5688 107.167H55.0016C58.0519 106.552 61.1099 108.187 62.2917 111.066C63.4113 113.793 62.5487 116.909 60.2419 118.68L59.8441 118.962H59.6547L59.3572 119.152C58.5139 119.683 57.6043 120.102 56.6518 120.396C54.2694 121.182 51.775 121.575 49.2664 121.559C38.6245 121.17 30.1672 112.486 30.0587 101.838C30.0497 94.4816 33.8195 87.6365 40.0413 83.7121C49.7123 78.0115 61.7144 78.1254 71.2557 83.9444L72.045 84.4425C84.9476 92.5344 90.9033 108.213 86.6266 122.831C80.9996 140.091 65.5252 149.37 45.019 147.476C30.5662 146.236 17.3798 138.734 8.93028 126.943C5.41642 121.935 2.83227 116.336 1.30132 110.413C-1.06507 99.4178 -0.191118 87.9717 3.81725 77.4628C11.4843 58.4273 26.0241 41.9239 47.0579 28.5585L49.8886 26.7925ZM273.815 25.3819C269.004 20.2295 261.562 18.4845 254.961 20.9612C248.361 23.4379 243.904 29.6481 243.67 36.6939C243.38 46.2861 250.88 54.3171 260.469 54.6842C267.515 54.932 274.015 50.9097 276.937 44.4941C279.859 38.0785 278.627 30.5343 273.815 25.3819ZM260.927 24.9195L261.497 24.9258C265.847 25.0708 269.788 27.5251 271.837 31.3642C273.887 35.2033 273.732 39.8439 271.432 43.538C269.131 47.2322 265.035 49.4185 260.686 49.2735C257.452 49.1539 254.398 47.7513 252.2 45.3756C250.002 42.9999 248.84 39.8466 248.972 36.6127C249.2 30.1192 254.497 24.9978 260.927 24.9195ZM263.391 31.0939L263.499 31.1209C260.551 31.1209 257.981 32.7171 257.981 34.6919C257.981 36.6668 260.388 38.29 263.391 38.29C266.394 38.29 268.802 36.6939 268.802 34.6919C268.802 32.7954 266.617 31.263 263.856 31.107L263.391 31.0939Z" fill="#02D35F"/>
</g>
<defs>
<clipPath id="clip0_1_11789">
<rect width="512" height="238" fill="white"/>
</clipPath>
</defs>
</svg>
