<svg width="512" height="125" viewBox="0 0 512 125" fill="none" xmlns="http://www.w3.org/2000/svg">
<g clip-path="url(#clip0_1_11808)">
<path d="M166.663 96.8636C161.242 97 155.906 95.4924 151.359 92.539C147.11 89.7371 143.954 85.5583 142.423 80.7046L151.739 77.282C153.029 80.2634 155.139 82.8178 157.823 84.649C160.546 86.4741 163.765 87.4197 167.043 87.3582C170.194 87.5228 173.304 86.5815 175.835 84.6969C178.067 82.8223 179.283 80.0029 179.114 77.0923C179.127 75.7552 178.817 74.4347 178.211 73.2428C177.684 72.1763 176.994 71.1979 176.167 70.3425C175.121 69.3904 173.935 68.6049 172.65 68.0135C171.065 67.2227 169.75 66.6206 168.706 66.2074C167.66 65.7968 166.123 65.2424 164.096 64.544C161.56 63.6573 159.659 62.9605 158.392 62.4536C156.675 61.7231 155.009 60.8815 153.402 59.934C151.672 59.0165 150.1 57.8295 148.744 56.4177C147.57 55.0392 146.624 53.4827 145.94 51.8066C143.248 45.2535 145.047 37.7133 150.407 33.0811C154.21 29.7226 159.375 28.043 165.902 28.043C171.351 28.043 175.834 29.247 179.352 31.6551C182.766 33.9251 185.273 37.324 186.433 41.2565L177.308 44.2978C176.391 42.2383 174.843 40.5238 172.888 39.4023C170.523 38.0903 167.844 37.4493 165.141 37.5483C162.491 37.3963 159.865 38.1322 157.679 39.6398C155.867 41.0438 154.856 43.2441 154.97 45.5331C154.986 47.2822 155.746 48.9418 157.06 50.0963C158.324 51.3398 159.806 52.3388 161.433 53.043C162.955 53.6768 165.268 54.5323 168.373 55.6093C170.273 56.3076 171.682 56.8305 172.602 57.178C173.521 57.5255 174.868 58.1116 176.642 58.9362C178.064 59.5656 179.431 60.313 180.729 61.1704C181.891 62.0062 183.002 62.9109 184.056 63.8795C185.202 64.8735 186.181 66.0447 186.956 67.3486C187.694 68.7012 188.268 70.1368 188.666 71.6252C189.152 73.3741 189.392 75.1818 189.381 76.9968C189.381 83.208 187.257 88.0714 183.011 91.5871C178.765 95.1052 173.316 96.864 166.663 96.8636ZM227.592 95.7231L204.778 29.1834H215.425L230.539 75.5713C231.374 78.066 232.073 80.6046 232.63 83.1758C233.187 80.6044 233.885 78.0657 234.722 75.5713L249.645 29.1834H260.197L237.478 95.7231H227.592ZM280.347 95.7231V29.1839H321.602V38.4998H290.234V56.7503H310.479V66.0663H290.234V86.4072H323.692V95.7231H280.347ZM348.881 95.7232V29.1839H358.768V86.2178H391.277V95.7232H348.881ZM428.537 38.6892V95.7231H418.65V38.6892H399.831V29.1839H447.358V38.6893L428.537 38.6892ZM467.794 95.7231V29.1839H509.049V38.4998H477.681V56.7503H497.927V66.0663H477.681V86.4072H511.14V95.7231H467.794Z" fill="#4A4A55"/>
<path d="M97.3287 16.53C85.7279 -0.0738602 62.8161 -4.99531 46.2499 5.55959L17.1554 24.1028C9.20813 29.1025 3.73411 37.2183 2.07576 46.4599C0.687952 54.1587 1.9078 62.1005 5.54219 69.0278C3.05181 72.8057 1.35327 77.0492 0.549242 81.502C-1.12518 90.921 1.06503 100.617 6.62542 108.402C18.2287 125.008 41.1407 129.927 57.7044 119.373L86.7987 100.83C94.7465 95.8303 100.221 87.7143 101.878 78.4724C103.266 70.7737 102.047 62.8321 98.4141 55.9039C100.904 52.1262 102.602 47.8828 103.405 43.4303C105.08 34.0112 102.89 24.3144 97.3287 16.53Z" fill="#FF3E00"/>
<path d="M43.4074 109.964C34.0295 112.402 24.1264 108.732 18.6035 100.77C15.2588 96.0887 13.9413 90.2573 14.9485 84.5928C15.1173 83.6722 15.3497 82.7644 15.6438 81.8759L16.1917 80.2051L17.6822 81.3C21.1247 83.8293 24.9737 85.7524 29.0633 86.9864L30.1447 87.3145L30.0452 88.3937C29.913 89.929 30.3287 91.4615 31.2186 92.7196C32.8808 95.1179 35.8626 96.2246 38.6869 95.4915C39.3192 95.3225 39.9218 95.0576 40.4739 94.7061L69.5684 76.165C71.0079 75.2586 72 73.7888 72.3021 72.1148C72.6037 70.4075 72.2068 68.6506 71.2005 67.2388C69.5374 64.8401 66.5549 63.7329 63.7294 64.4653C63.0979 64.6343 62.496 64.899 61.9447 65.2502L50.8421 72.3277C49.0164 73.4885 47.0241 74.3634 44.9341 74.9222C35.556 77.3606 25.6525 73.6896 20.1294 65.7277C16.7848 61.0465 15.4673 55.2152 16.4745 49.5507C17.4716 43.9935 20.7638 39.1135 25.5433 36.1079L54.6359 17.5652C56.4623 16.4025 58.4561 15.5265 60.5479 14.9676C69.9258 12.5294 79.8291 16.2003 85.352 24.162C88.6966 28.8433 90.0141 34.6746 89.0069 40.3391C88.8374 41.2595 88.6051 42.1673 88.3117 43.056L87.7637 44.7268L86.2739 43.6336C82.8317 41.1028 78.9824 39.1788 74.892 37.9447L73.8108 37.6166L73.9103 36.5373C74.0414 35.0022 73.6258 33.47 72.7368 32.2116C71.0747 29.8132 68.0929 28.7065 65.2685 29.4396C64.6363 29.6086 64.0336 29.8735 63.4816 30.225L34.3865 48.7669C32.9468 49.6727 31.9551 51.143 31.6545 52.8172C31.351 54.5244 31.7473 56.2819 32.754 57.6937C34.4171 60.0924 37.3995 61.1996 40.225 60.4672C40.8572 60.2978 41.4598 60.033 42.012 59.6818L53.1132 52.6069C54.938 51.4446 56.9303 50.5689 59.0205 50.0103C68.3986 47.572 78.302 51.2429 83.825 59.2048C87.1696 63.886 88.4871 69.7173 87.48 75.3817C86.4822 80.9393 83.1903 85.8197 78.4112 88.8267L49.319 107.367C47.4926 108.529 45.4991 109.405 43.4074 109.964Z" fill="white"/>
</g>
<defs>
<clipPath id="clip0_1_11808">
<rect width="512" height="125" fill="white"/>
</clipPath>
</defs>
</svg>
