<svg width="512" height="92" viewBox="0 0 512 92" fill="none" xmlns="http://www.w3.org/2000/svg">
<g clip-path="url(#clip0_1_11801)">
<path d="M428.99 70.1923L415.26 44.6825L406.616 55.1378V70.1923H399.368V21.4023H406.616V45.0309L425.436 21.4023H433.8L420.141 38.549L437.495 70.1923H428.99ZM453.175 70.1923V21.4023H460.423V70.1923H453.175ZM498.2 28.3726V70.1923H490.951V28.3726H477.151V21.4023H512V28.3726H498.2Z" fill="#8D8D93"/>
<path d="M122.204 71.0283C118.23 71.1283 114.318 70.0228 110.983 67.8573C107.868 65.8027 105.555 62.7388 104.431 59.1801L111.262 56.6707C112.209 58.8555 113.756 60.7271 115.723 62.0689C117.72 63.4072 120.08 64.1007 122.484 64.0556C124.795 64.1763 127.075 63.486 128.931 62.1041C130.568 60.7294 131.459 58.6624 131.335 56.5284C131.345 55.5477 131.117 54.5792 130.673 53.705C130.286 52.9229 129.781 52.2055 129.175 51.5784C128.408 50.8801 127.538 50.304 126.596 49.8706C125.433 49.291 124.469 48.8496 123.703 48.5464C122.937 48.2433 121.81 47.8368 120.322 47.3269C118.464 46.6764 117.07 46.1655 116.141 45.7942C114.883 45.2584 113.66 44.6412 112.482 43.9465C111.214 43.2738 110.061 42.4032 109.066 41.3677C108.206 40.3571 107.512 39.216 107.011 37.9872C105.035 33.1832 106.353 27.6539 110.282 24.257C113.07 21.7945 116.857 20.563 121.642 20.5625C125.639 20.5625 128.926 21.4453 131.506 23.2109C134.009 24.8756 135.847 27.3679 136.698 30.2514L130.007 32.4811C129.335 30.9711 128.2 29.7141 126.766 28.8921C125.032 27.9296 123.067 27.4592 121.085 27.5319C119.142 27.4206 117.216 27.9602 115.614 29.0655C114.285 30.0953 113.544 31.7088 113.628 33.3873C113.64 34.6697 114.197 35.8863 115.16 36.7326C116.087 37.6447 117.174 38.3773 118.367 38.8935C119.483 39.358 121.18 39.9851 123.456 40.7747C124.848 41.2867 125.882 41.67 126.556 41.9246C127.231 42.1793 128.218 42.609 129.519 43.2137C130.562 43.6748 131.564 44.222 132.516 44.8495C133.368 45.4623 134.183 46.1257 134.956 46.8362C135.796 47.5648 136.514 48.4237 137.082 49.3799C137.623 50.3715 138.044 51.4243 138.336 52.5158C138.692 53.7982 138.868 55.1239 138.86 56.4548C138.86 61.0089 137.303 64.575 134.189 67.1531C131.076 69.7311 127.081 71.0229 122.204 71.0283ZM166.881 70.1924L150.153 21.4025H157.96L169.042 55.4161C169.654 57.2456 170.166 59.1072 170.575 60.9926C170.983 59.1068 171.495 57.2451 172.109 55.4161L183.051 21.4025H190.788L174.129 70.1924H166.881ZM205.563 70.1924V21.4025H235.813V28.2337H212.812V41.6155H227.658V48.4467H212.812V63.3612H237.35V70.1924H205.563ZM255.815 70.1924V21.4025H263.065V63.2222H286.902V70.1924H255.815ZM314.222 28.3727V70.1924H306.973V28.3727H293.173V21.4025H328.023V28.3727H314.222ZM343.005 70.1924V21.4025H373.255V28.2337H350.257V41.6155H365.102V48.4467H350.257V63.3612H374.794V70.1924H343.005Z" fill="#4A4A55"/>
<path d="M71.3662 12.1216C62.86 -0.0530024 46.0593 -3.66407 33.9126 4.07744L12.5798 17.6744C6.75225 21.3402 2.73831 27.2912 1.52254 34.0677C0.504917 39.7125 1.39919 45.5355 4.06378 50.6148C2.23736 53.3847 0.991919 56.4964 0.402819 59.7615C-0.825104 66.668 0.780799 73.778 4.85797 79.4862C13.3642 91.6624 30.1657 95.2718 42.3108 87.5303L63.6444 73.9334C69.472 70.2676 73.486 64.3166 74.7017 57.5401C75.7188 51.8951 74.8248 46.0721 72.1612 40.9921C73.9867 38.2222 75.2316 35.1109 75.8206 31.8463C77.0494 24.9398 75.4443 17.8294 71.3662 12.1216Z" fill="#FF3E00"/>
<path d="M31.8285 80.6323C24.952 82.4197 17.6905 79.728 13.6406 73.8902C11.1892 70.4581 10.2233 66.1833 10.9611 62.0306C11.0848 61.3557 11.255 60.6903 11.4707 60.039L11.8723 58.8121L12.9658 59.6145C15.489 61.4697 18.3104 62.8804 21.3085 63.7858L22.1011 64.0263L22.0283 64.818C21.9312 65.9438 22.236 67.0675 22.8887 67.9899C24.1082 69.7498 26.2965 70.5614 28.3687 70.0224C28.8315 69.8993 29.2728 69.7062 29.6774 69.4498L51.0117 55.8488C52.067 55.1841 52.7942 54.1064 53.0156 52.879C53.2366 51.6271 52.9454 50.339 52.2075 49.3039C50.9878 47.5442 48.7999 46.732 46.7275 47.2698C46.2646 47.3927 45.8233 47.5858 45.4188 47.8423L37.2774 53.0319C35.9377 53.8832 34.4759 54.5248 32.9424 54.9344C26.066 56.7218 18.8045 54.0301 14.7546 48.1924C12.3024 44.7605 11.3363 40.4855 12.0743 36.3327C12.8076 32.2573 15.2239 28.6793 18.7305 26.4769L40.0623 12.8808C41.4016 12.0282 42.8635 11.3858 44.3973 10.9759C51.2738 9.18817 58.5353 11.8799 62.5851 17.7179C65.0368 21.1499 66.003 25.4248 65.2654 29.5776C65.1401 30.2534 64.9687 30.9199 64.7526 31.5725L64.351 32.7993L63.2582 31.9986C60.7352 30.1431 57.9137 28.7324 54.9156 27.8272L54.1222 27.5868L54.1958 26.795C54.2918 25.6694 53.9871 24.546 53.3354 23.6232C52.1165 21.8649 49.9304 21.0535 47.8595 21.5907C47.3966 21.7137 46.9553 21.9068 46.5508 22.1632L25.214 35.7593C24.1588 36.4236 23.4318 37.5012 23.211 38.7283C22.9889 39.9802 23.2795 41.2689 24.0174 42.3042C25.2372 44.0638 27.425 44.8758 29.4974 44.3384C29.9601 44.215 30.4014 44.0219 30.8061 43.7658L38.9459 38.5787C40.285 37.726 41.747 37.0839 43.2808 36.6746C50.1552 34.8877 57.4145 37.5776 61.4646 43.4125C63.9167 46.8443 64.8829 51.1194 64.1449 55.2722C63.4132 59.3474 60.9995 62.9261 57.4953 65.1313L36.1634 78.7274C34.8242 79.58 33.3622 80.2225 31.8285 80.6323Z" fill="white"/>
</g>
<defs>
<clipPath id="clip0_1_11801">
<rect width="512" height="92" fill="white"/>
</clipPath>
</defs>
</svg>
