<svg width="256" height="308" viewBox="0 0 256 308" fill="none" xmlns="http://www.w3.org/2000/svg">
<g clip-path="url(#clip0_1_11797)">
<path d="M239.682 40.7068C211.113 -0.181889 154.691 -12.3014 113.895 13.691L42.2469 59.3555C22.676 71.668 9.19582 91.6539 5.11197 114.412C1.69421 133.371 4.69822 152.929 13.6484 169.988C7.5155 179.291 3.33259 189.741 1.35249 200.707C-2.77084 223.902 2.62287 247.781 16.316 266.951C44.8903 307.844 101.313 319.958 142.103 293.967L213.751 248.303C233.323 235.992 246.804 216.005 250.886 193.246C254.303 174.287 251.301 154.73 242.355 137.669C248.487 128.366 252.668 117.916 254.646 106.951C258.772 83.756 253.378 59.8765 239.683 40.7068" fill="#FF3E00"/>
<path d="M106.889 270.843C83.7872 276.85 59.3916 267.807 45.7865 248.194C37.5478 236.663 34.3024 222.298 36.7831 208.345C37.199 206.077 37.7712 203.841 38.4958 201.652L39.8455 197.536L43.5174 200.233C51.9972 206.464 61.4785 211.201 71.5528 214.241L74.2164 215.049L73.9711 217.707C73.6456 221.489 74.6696 225.264 76.8617 228.364C80.9561 234.271 88.3012 236.997 95.2585 235.192C96.8161 234.775 98.3007 234.123 99.6607 233.257L171.332 187.584C174.878 185.352 177.321 181.731 178.065 177.607C178.808 173.402 177.831 169.074 175.352 165.596C171.255 159.687 163.908 156.96 156.948 158.764C155.392 159.18 153.91 159.832 152.552 160.697L125.203 178.132C120.705 180.991 115.797 183.146 110.649 184.523C87.5477 190.529 63.1524 181.486 49.5476 161.874C41.3086 150.342 38.0632 135.978 40.5443 122.025C43.0003 108.335 51.11 96.3141 62.8836 88.9105L134.548 43.2339C139.047 40.3698 143.959 38.2119 149.111 36.8352C172.212 30.8289 196.608 39.8716 210.213 59.4839C218.451 71.0154 221.697 85.3799 219.216 99.3333C218.798 101.601 218.226 103.837 217.503 106.026L216.153 110.142L212.484 107.449C204.004 101.215 194.522 96.4751 184.446 93.4352L181.783 92.6268L182.028 89.9684C182.351 86.1867 181.327 82.4127 179.137 79.3126C175.043 73.4048 167.698 70.6786 160.74 72.4844C159.183 72.9007 157.698 73.5532 156.338 74.4191L84.6673 120.094C81.1219 122.325 78.6796 125.945 77.9388 130.068C77.1914 134.273 78.1674 138.603 80.647 142.081C84.7439 147.989 92.0908 150.717 99.051 148.913C100.608 148.495 102.093 147.843 103.453 146.978L130.798 129.55C135.294 126.687 140.201 124.53 145.35 123.154C168.451 117.147 192.847 126.19 206.452 145.803C214.691 157.334 217.936 171.699 215.455 185.652C212.997 199.342 204.888 211.364 193.116 218.771L121.451 264.444C116.952 267.308 112.04 269.466 106.888 270.843" fill="white"/>
</g>
<defs>
<clipPath id="clip0_1_11797">
<rect width="256" height="308" fill="white"/>
</clipPath>
</defs>
</svg>
