<svg width="256" height="256" viewBox="0 0 256 256" fill="none" xmlns="http://www.w3.org/2000/svg">
<g clip-path="url(#clip0_1_11814)">
<path d="M245.235 153.522C259.247 139.511 259.246 116.711 245.235 102.699C238.448 95.9118 229.423 92.1741 219.824 92.1741C217.545 92.1741 215.301 92.3819 213.112 92.7916C222.65 86.2672 228.831 75.2962 228.831 63.0969C228.831 43.2813 212.71 27.16 192.894 27.16C180.671 27.16 169.681 33.3658 163.161 42.936C165.318 31.5589 161.935 19.3994 153.292 10.7562C146.505 3.96861 137.48 0.230469 127.881 0.230469C118.281 0.230469 109.257 3.96861 102.469 10.7562C93.8258 19.3994 90.4428 31.5594 92.5999 42.9365C86.0804 33.3662 75.09 27.16 62.8665 27.16C43.0508 27.16 26.9296 43.2813 26.9296 63.0969C26.9296 75.2966 33.1101 86.2672 42.6483 92.7911C40.4597 92.3819 38.2166 92.1741 35.9369 92.1741C26.3378 92.1741 17.3134 95.9123 10.5257 102.7C3.73814 109.487 0 118.512 0 128.111C0 137.71 3.73814 146.735 10.5257 153.523C17.3134 160.31 26.3383 164.048 35.9369 164.048C38.2161 164.048 40.4593 163.84 42.6483 163.43C33.1101 169.955 26.9296 180.926 26.9296 193.125C26.9296 212.941 43.0508 229.062 62.8665 229.062C75.09 229.062 86.0809 222.856 92.5999 213.286C90.4428 224.663 93.8262 236.823 102.469 245.466C109.257 252.253 118.282 255.992 127.881 255.992C137.48 255.992 146.505 252.253 153.292 245.466C161.935 236.823 165.318 224.662 163.161 213.285C169.68 222.855 180.671 229.062 192.894 229.062C212.71 229.062 228.831 212.941 228.831 193.125C228.831 180.926 222.65 169.955 213.112 163.43C215.301 163.84 217.545 164.048 219.824 164.048C229.423 164.048 238.448 160.31 245.235 153.522Z" fill="black"/>
<path d="M234.391 113.535C226.342 105.486 213.292 105.486 205.243 113.535H163.059L192.888 83.7062C204.271 83.7062 213.499 74.4785 213.499 63.0951C213.499 51.7121 204.271 42.4839 192.888 42.4839C181.504 42.4839 172.277 51.7121 172.277 63.0951L142.448 92.924V50.7399C150.497 42.6908 150.497 29.6407 142.448 21.5915C134.399 13.5424 121.349 13.5424 113.299 21.5915C105.25 29.6407 105.25 42.6908 113.299 50.7399V92.924L83.4709 63.0951C83.4709 51.7121 74.2432 42.4839 62.8597 42.4839C51.4767 42.4839 42.2486 51.7121 42.2486 63.0951C42.2486 74.4785 51.4767 83.7062 62.8597 83.7062L92.6882 113.535H50.5046C42.455 105.486 29.4049 105.486 21.3557 113.535C13.3066 121.584 13.3066 134.634 21.3557 142.684C29.4049 150.733 42.4554 150.733 50.5046 142.684H92.6882L62.8597 172.512C51.4767 172.512 42.2486 181.74 42.2486 193.123C42.2486 204.506 51.4767 213.734 62.8597 213.734C74.2432 213.734 83.4709 204.506 83.4709 193.123L113.299 163.295V205.478C105.25 213.528 105.25 226.578 113.299 234.627C121.349 242.676 134.399 242.676 142.448 234.627C150.497 226.578 150.497 213.528 142.448 205.478V163.295L172.277 193.123C172.277 204.506 181.504 213.734 192.888 213.734C204.271 213.734 213.499 204.506 213.499 193.123C213.499 181.74 204.271 172.512 192.888 172.512L163.059 142.684H205.243C213.292 150.733 226.342 150.733 234.391 142.684C242.441 134.634 242.441 121.584 234.391 113.535Z" fill="#FFB13B"/>
</g>
<defs>
<clipPath id="clip0_1_11814">
<rect width="256" height="256" fill="white"/>
</clipPath>
</defs>
</svg>
