<svg width="512" height="94" viewBox="0 0 512 94" fill="none" xmlns="http://www.w3.org/2000/svg">
<g clip-path="url(#clip0_1_11818)">
<path d="M269.291 21.6369C272.793 21.5876 276.272 22.2095 279.54 23.4688C282.55 24.6434 285.209 26.5696 287.264 29.0637V25.8454C287.264 23.7946 288.926 22.132 290.977 22.132H298.899V66.2475C298.899 84.534 289.558 93.6773 270.875 93.6773C266.074 93.708 261.292 93.0748 256.665 91.7958C252.628 90.7492 248.852 88.8779 245.574 86.2999L249.09 80.408C250.098 78.7775 252.193 78.2267 253.864 79.1186L254.041 79.2197C255.816 80.2352 257.691 81.0648 259.636 81.6953C263.037 82.8275 266.597 83.4124 270.182 83.4282C274.717 83.8279 279.229 82.4424 282.758 79.5663C285.662 76.3195 287.111 72.0259 286.769 67.6833V64.8611C284.659 67.0741 282.067 68.7687 279.193 69.8123C276.031 71.0098 272.671 71.5978 269.291 71.5453C264.641 71.6084 260.049 70.5198 255.922 68.3765C252.003 66.342 248.729 63.2559 246.466 59.4643C244.111 55.4989 242.91 50.9546 243 46.3435C242.919 41.7492 244.12 37.2233 246.466 33.2723C248.775 29.6184 252.047 26.6718 255.922 24.7562C260.059 22.6453 264.647 21.5747 269.291 21.6369ZM35.2956 56.444C39.3783 56.6294 42.9864 59.157 44.5553 62.9309C46.0818 66.6027 45.4104 70.811 42.8418 73.8223L42.6234 74.0704L42.5115 74.196C41.9149 74.9287 41.9522 76.0048 42.6234 76.6946C45.3958 79.031 48.5257 80.904 51.8919 82.2428L52.5258 82.4875L52.674 82.5301C53.5651 82.7477 54.487 82.2867 54.8476 81.4433L54.9024 81.2992L55.0258 80.987C56.0507 78.5087 57.9838 76.5095 60.4362 75.4037C62.9908 74.2518 65.8988 74.164 68.5183 75.1597C71.4163 76.3284 73.6468 78.7221 74.6083 81.6953C74.6708 81.8541 74.754 82.004 74.8559 82.1409C48.9114 95.3607 39.6031 91.2017 20.3923 68.5745C17.5765 65.1634 15.366 61.295 13.8567 57.1372C20.88 59.3057 28.427 59.0616 35.2956 56.444ZM159.918 21.3893C163.518 21.4015 167.105 21.8166 170.613 22.6271C173.709 23.2784 176.684 24.4147 179.426 25.994L177.099 30.4501C175.856 32.9477 172.94 34.1185 170.316 33.1732C166.938 31.9364 163.366 31.316 159.769 31.3413C156.968 31.1861 154.173 31.7485 151.649 32.9752C150.027 33.7675 148.964 35.3803 148.877 37.1837C148.815 39.0815 150.032 40.7853 151.848 41.3428C154.846 42.4321 157.949 43.2119 161.106 43.6698C164.559 44.194 167.968 44.9718 171.306 45.9969C173.945 46.7951 176.333 48.2619 178.238 50.255C180.28 52.6235 181.312 55.6994 181.109 58.8206C181.18 63.5546 178.778 67.9833 174.772 70.5055C169.613 73.6995 163.6 75.2373 157.541 74.9121C153.304 74.8904 149.09 74.2907 145.015 73.1297C141.581 72.2861 138.315 70.8628 135.36 68.9211L137.489 64.7126C138.773 62.177 141.779 61.0391 144.421 62.0884C145.696 62.6262 147.002 63.0891 148.332 63.4748C151.549 64.409 154.884 64.8759 158.235 64.8611C165.496 64.8611 169.127 62.9466 169.127 59.1177C169.176 57.3648 168.037 55.7992 166.355 55.3052C163.455 54.3468 160.471 53.667 157.442 53.2752C153.89 52.7624 150.382 51.9846 146.946 50.9482C144.287 50.0917 141.897 48.5557 140.014 46.4921C137.916 44.0522 136.85 40.8911 137.043 37.6789C136.945 32.9352 139.28 28.4709 143.232 25.8454C148.189 22.6468 154.026 21.0879 159.918 21.3893ZM389.754 10.6451C391.739 10.6451 393.36 12.2022 393.462 14.1614L393.468 14.3586V22.4786H407.331V32.381H393.468V57.1372C393.314 59.2398 393.989 61.319 395.349 62.9301C396.753 64.3135 398.68 65.0337 400.647 64.9106C401.421 64.9773 402.2 64.9773 402.974 64.9106C405.759 64.3127 408.573 65.7926 409.658 68.426L411.044 71.2977C409.494 72.5244 407.708 73.4177 405.796 73.9219C403.686 74.5199 401.503 74.8199 399.31 74.8131C394.465 75.1236 389.695 73.5038 386.041 70.3075C382.708 66.8035 381.001 62.0603 381.337 57.2362V10.6451H389.754ZM336.776 21.6864C339.946 21.6484 343.093 22.2374 346.035 23.4193C348.827 24.5091 351.346 26.1994 353.412 28.3706V25.994C353.412 24.0093 354.969 22.3882 356.928 22.2857L357.126 22.2805L365.642 22.132V74.2685H354.105V67.3862C352.131 69.8251 349.578 71.7314 346.678 72.9316C343.534 74.2023 340.166 74.8254 336.776 74.7636C332.044 74.8401 327.372 73.6977 323.21 71.4463C319.309 69.2987 316.098 66.088 313.951 62.1875C309.479 53.3987 309.479 43.0018 313.951 34.213C316.102 30.2308 319.349 26.9488 323.309 24.7562C327.467 22.6132 332.1 21.5572 336.776 21.6864ZM456.794 24.9542C460.918 27.1128 464.35 30.3905 466.696 34.411C471.419 42.9621 471.419 53.3393 466.696 61.8904C464.35 65.911 460.918 69.1886 456.794 71.3472C447.83 75.8907 437.238 75.8907 428.275 71.3472C424.15 69.1886 420.718 65.911 418.372 61.8904C413.65 53.3393 413.65 42.9621 418.372 34.411C420.718 30.3905 424.15 27.1128 428.275 24.9542C437.238 20.4107 447.83 20.4107 456.794 24.9542ZM112.386 17.1313C120.209 26.3405 105.702 59.1177 87.234 74.2685C84.2749 70.8294 83.8468 65.8833 86.1711 61.987C88.4437 58.1774 92.8497 56.2063 97.1874 57.0274L97.483 57.0877L97.6459 57.1139C98.0813 57.1642 98.5225 57.0566 98.8877 56.8077C99.2986 56.5275 99.5779 56.0925 99.6615 55.6023C100.185 52.2652 100.218 48.8706 99.7597 45.5263L99.6615 44.8581L99.6161 44.7122C99.2938 43.8077 98.3311 43.2823 97.384 43.5213C92.919 44.3424 88.4297 42.2139 86.2393 38.2375C84.0986 34.3514 84.6231 29.5528 87.5229 26.2238L87.7291 25.994L87.8409 25.8684C88.4375 25.1357 88.4003 24.0596 87.7291 23.3698C84.9572 21.0326 81.8272 19.1594 78.4606 17.8215L77.8266 17.5769L77.6785 17.5343C76.7378 17.3046 75.7629 17.8309 75.45 18.7652C74.9142 20.2979 74.0333 21.687 72.8754 22.8252C70.4484 25.2006 67.0222 26.2551 63.6796 25.6554C60.337 25.0557 57.491 22.8759 56.0412 19.8049C55.518 16.4643 54.4826 13.2244 52.9714 10.1995C60.4973 8.76368 104.316 7.2288 112.386 17.1313ZM233.493 22.1317L241.168 22.1815L220.967 69.3172C219.756 72.207 216.987 74.1266 213.873 74.2612L213.589 74.2685H207.054L226.859 28.123L227.849 25.7959C228.824 23.5516 231.047 22.1085 233.493 22.1317ZM512 21.5379V33.0742C511.07 32.8891 510.126 32.7896 509.178 32.7771C505.088 32.5665 501.093 34.0534 498.137 36.8867C495.274 40.1772 493.832 44.4678 494.126 48.8191V74.2685H481.946V22.132H489.818C491.803 22.132 493.424 23.689 493.527 25.6482L493.532 25.8454V29.7074C497.788 23.8818 504.827 20.7679 512 21.5379ZM192.497 22.0825C194.885 22.076 197.049 23.4649 198.043 25.6198L198.142 25.8454L210.173 53.4733L204.133 67.4853L183.931 22.0825H192.497ZM327.171 36.342C321.385 43.1329 321.385 53.119 327.171 59.9099C330.06 62.8881 334.064 64.5218 338.212 64.4155C342.37 64.5487 346.393 62.9323 349.303 59.9594V59.9099C355.151 53.1423 355.151 43.1096 349.303 36.342C343.137 30.3616 333.336 30.3616 327.171 36.342ZM431.443 36.1935C425.658 42.9843 425.658 52.9705 431.443 59.7613C434.333 62.7395 438.337 64.3733 442.485 64.267C446.635 64.4131 450.657 62.8151 453.575 59.8604V59.7613C459.424 52.9938 459.424 42.961 453.575 36.1935C447.41 30.2131 437.609 30.2131 431.443 36.1935ZM259.537 35.9459C256.606 38.6756 255 42.539 255.13 46.5416C254.976 50.5917 256.583 54.5102 259.537 57.2857C266.132 62.7884 275.718 62.7884 282.312 57.2857C285.284 54.5191 286.91 50.5994 286.769 46.5416C286.886 42.5313 285.261 38.6666 282.312 35.9459C275.696 30.5024 266.153 30.5024 259.537 35.9459ZM65.1515 40.105C70.6751 40.105 75.153 44.5828 75.153 50.1064C75.153 55.6301 70.6751 60.1079 65.1515 60.1079C59.6278 60.1079 55.15 55.6301 55.15 50.1064C55.15 44.5828 59.6278 40.105 65.1515 40.105ZM25.3436 0C27.1829 0.0518313 28.6593 1.5097 28.755 3.32622L28.7599 3.51537V8.12002C28.7465 9.30577 29.3314 10.4129 30.3057 11.0716L30.4929 11.1898L32.2753 12.2295C33.299 12.8206 34.5462 12.8553 35.5962 12.3338L35.7907 12.2295L39.7021 9.90246L39.8958 9.79104C40.6821 9.3714 41.6015 9.2648 42.4673 9.49856C43.3331 9.73232 44.0739 10.2872 44.5421 11.0455L44.6534 11.2393L46.5844 14.4081L46.6967 14.6004C47.1204 15.3811 47.2341 16.2964 47.0091 17.1615C46.7842 18.0265 46.2391 18.7706 45.4888 19.2461L45.297 19.3593L41.4351 21.6864C40.4129 22.2876 39.7672 23.3603 39.7066 24.5348L39.7021 24.7562V26.6376C39.679 27.8139 40.2454 28.9184 41.2017 29.5872L41.3856 29.7074L45.2475 32.0345L45.297 31.9849C46.1295 32.4675 46.7278 33.2702 46.9523 34.2059C47.1596 35.0696 47.0317 35.9768 46.5997 36.7467L46.4853 36.9362L44.6534 40.105L44.5402 40.2968C44.0647 41.0471 43.3206 41.5922 42.4556 41.8171C41.5905 42.042 40.6752 41.9283 39.8944 41.5047L39.7021 41.3923L35.8897 39.0157C34.866 38.4247 33.6188 38.3899 32.5688 38.9114L32.3743 39.0157L30.5919 40.0555C29.5697 40.6566 28.924 41.7294 28.8634 42.9039L28.8589 43.1252V47.2347L28.8537 47.4276C28.7571 49.2155 27.3244 50.6482 25.5365 50.7449L25.3436 50.7501H21.7292C19.8524 50.7501 18.3191 49.2794 18.219 47.4276L18.2138 47.2347V43.2242C18.2272 42.0385 17.6423 40.9313 16.6681 40.2726L16.4809 40.1545L14.6984 39.1147C13.6748 38.5237 12.4275 38.4889 11.3775 39.0104L11.1831 39.1147L7.3211 41.4418L7.12882 41.5542C6.34806 41.9778 5.43274 42.0915 4.56769 41.8666C3.70264 41.6417 2.95858 41.0966 2.48307 40.3463L2.36987 40.1545L0.537913 36.9857L0.425549 36.7934C0.00186181 36.0127 -0.111784 35.0973 0.113129 34.2323C0.338042 33.3672 0.883127 32.6232 1.63344 32.1477L1.82523 32.0345L5.68719 29.7074C6.68077 29.1231 7.32077 28.0918 7.40991 26.9516L7.42012 26.7366V24.7562C7.42669 23.5964 6.86131 22.5131 5.91796 21.8544L5.7367 21.7359L1.87475 19.4088L1.68296 19.2956C0.932639 18.8201 0.387554 18.0761 0.162641 17.211C-0.0622714 16.346 0.0513741 15.4306 0.475061 14.6499L0.587425 14.4576L2.27084 11.1898L2.38404 10.998C2.85956 10.2477 3.60361 9.70259 4.46866 9.47768C5.33371 9.25276 6.24904 9.36641 7.0298 9.7901L7.22207 9.90246L11.1335 12.5761C12.1572 13.1671 13.4045 13.2019 14.4545 12.6804L14.6489 12.5761L16.4314 11.5364C17.4535 10.9352 18.0993 9.86241 18.1598 8.68792L18.1643 8.4666V3.51537C18.1643 1.6386 19.635 0.105334 21.4868 0.00520161L21.6797 0H25.3436ZM18.158 20.2795C16.0237 22.428 15.3964 25.6518 16.5692 28.4439C17.7064 31.1514 20.3186 32.9342 23.2371 33.0215L23.5116 33.0247L23.4621 32.9752L23.7078 32.9712C27.6226 32.8449 30.7805 29.7079 30.9329 25.794L30.9385 25.5483L30.9335 25.2739C30.8268 22.356 29.0266 19.7557 26.3116 18.6365C23.5118 17.4822 20.2923 18.131 18.158 20.2795Z" fill="black"/>
</g>
<defs>
<clipPath id="clip0_1_11818">
<rect width="512" height="94" fill="white"/>
</clipPath>
</defs>
</svg>
