<svg width="256" height="256" viewBox="0 0 256 256" fill="none" xmlns="http://www.w3.org/2000/svg">
<g clip-path="url(#clip0_1_11821)">
<path d="M127.999 249.895C60.7845 249.895 6.09973 195.215 6.09973 127.998C6.09973 60.7812 60.7845 6.10156 127.999 6.10156C195.213 6.10156 249.898 60.7864 249.898 128.001C249.898 195.215 195.213 249.895 127.999 249.895Z" fill="#85EA2D"/>
<path d="M127.999 12.2019C191.953 12.2019 243.796 64.0441 243.796 127.999C243.796 191.951 191.953 243.796 127.999 243.796C64.0467 243.796 12.2019 191.951 12.2019 127.999C12.2019 64.0467 64.0467 12.2019 127.999 12.2019ZM127.999 0C57.4199 0 0 57.4199 0 127.999C0 198.577 57.4199 255.997 127.999 255.997C198.577 255.997 256 198.577 256 127.999C256 57.4199 198.577 0 127.999 0Z" fill="#173647"/>
<path d="M80.5982 86.6169C80.2042 90.9972 80.7441 95.5259 80.4524 99.9548C80.107 104.386 79.5646 108.767 78.6793 113.147C77.4486 119.398 73.5596 124.123 68.1968 128.061C78.6333 134.854 79.8128 145.385 80.501 156.067C80.8464 161.827 80.698 167.635 81.2891 173.343C81.7317 177.772 83.4536 178.905 88.0335 179.051C89.9039 179.1 91.8202 179.051 93.9899 179.051V192.735C80.455 195.047 69.2816 191.21 66.5234 179.742C65.6356 175.559 65.0446 171.276 64.8501 166.944C64.5533 162.367 65.0446 157.789 64.7017 153.212C63.7167 140.659 62.0919 136.428 50.0845 135.837V120.234C50.9697 120.037 51.8064 119.889 52.6917 119.792C59.2877 119.446 62.0919 117.427 63.5196 110.931C64.2105 107.29 64.6045 103.598 64.7503 99.8576C65.2441 92.7217 65.0471 85.4374 66.2752 78.3501C67.9972 68.1617 74.299 63.239 84.7841 62.648C87.7367 62.4996 90.7405 62.648 94.1358 62.648V76.6281C92.7081 76.7279 91.4774 76.9224 90.1981 76.9224C81.6831 76.6256 81.2379 79.5296 80.5982 86.6169ZM96.9886 119.004H96.7916C91.8689 118.758 87.6369 122.596 87.3888 127.519C87.1431 132.49 90.981 136.724 95.9038 136.967H96.4948C101.369 137.264 105.55 133.521 105.846 128.649V128.158C105.946 123.187 101.96 119.103 96.9886 119.004ZM127.85 119.004C123.076 118.855 119.087 122.596 118.941 127.322C118.941 127.618 118.941 127.864 118.992 128.158C118.992 133.524 122.633 136.97 128.147 136.97C133.561 136.97 136.959 133.426 136.959 127.864C136.908 122.499 133.313 118.955 127.85 119.004ZM159.452 119.004C154.432 118.904 150.246 122.893 150.1 127.913C150.1 132.933 154.135 136.967 159.155 136.967H159.255C163.783 137.755 168.361 133.375 168.657 128.11C168.9 123.235 164.471 119.004 159.452 119.004ZM202.815 119.74C197.104 119.495 194.248 117.576 192.823 112.159C191.935 108.715 191.396 105.121 191.199 101.577C190.805 94.9809 190.853 88.3363 190.41 81.7402C189.377 66.0893 178.058 60.6267 161.616 63.3311V76.9173C164.223 76.9173 166.242 76.9173 168.261 76.9659C171.756 77.0145 174.414 78.345 174.757 82.234C175.102 85.7777 175.102 89.3699 175.448 92.9648C176.139 100.103 176.53 107.336 177.761 114.375C178.846 120.183 182.832 124.515 187.801 128.058C179.091 133.915 176.53 142.282 176.087 151.684C175.842 158.132 175.693 164.628 175.351 171.127C175.054 177.032 172.989 178.951 167.033 179.1C165.359 179.148 163.735 179.297 161.864 179.397V193.326C165.359 193.326 168.558 193.523 171.756 193.326C181.698 192.735 187.703 187.912 189.674 178.263C190.51 172.946 191.002 167.584 191.15 162.218C191.493 157.295 191.447 152.324 191.938 147.453C192.675 139.823 196.17 136.673 203.8 136.182C204.539 136.082 205.227 135.936 205.918 135.691V120.086C204.636 119.937 203.748 119.792 202.815 119.74Z" fill="#173647"/>
</g>
<defs>
<clipPath id="clip0_1_11821">
<rect width="256" height="256" fill="white"/>
</clipPath>
</defs>
</svg>
