<svg width="512" height="180" viewBox="0 0 512 180" fill="none" xmlns="http://www.w3.org/2000/svg">
<g clip-path="url(#clip0_1_11826)">
<path d="M460.924 179.246C447.162 179.246 434.19 173.868 424.436 164.113L348.453 88.1302C340.807 80.4845 335.798 70.9405 334.005 60.5528C332.951 54.489 333.003 48.267 334.163 42.2031H311.701C306.217 42.2031 303.897 45.8414 303 48.0033C302.104 50.1652 301.155 54.3835 305.057 58.2855L337.907 91.1357C345.553 98.7815 350.562 108.325 352.355 118.713C354.042 128.31 352.882 138.223 349.138 147.398C345.342 156.52 339.12 164.324 331.158 169.966C322.51 176.03 312.281 179.246 301.471 179.246H300.417C286.654 179.246 273.683 173.868 263.928 164.113L256.651 156.836C253.171 161.951 248.848 166.38 243.786 169.913C235.138 175.977 224.909 179.193 214.099 179.193C200.337 179.193 187.365 173.815 177.61 164.06L58.4426 44.8923C56.6498 43.0995 54.277 42.1504 51.7987 42.1504C46.3149 42.1504 43.9948 45.7887 43.0984 47.9506C42.202 50.1125 41.2529 54.3308 45.1549 58.2328L78.0051 91.083C85.6509 98.7288 90.6601 108.273 92.4529 118.66C94.1402 128.257 92.9802 138.17 89.2364 147.345C85.4399 156.467 79.2179 164.271 71.2558 169.913C62.6082 175.977 52.3788 179.193 41.5693 179.193H26.5415C14.8883 179.193 5.44982 169.755 5.44982 158.102C5.44982 146.449 14.8883 137.01 26.5415 137.01H41.3584C46.8422 137.01 49.1623 133.372 50.0587 131.21C50.9551 129.048 51.9042 124.83 48.0022 120.928L15.2047 88.1302C7.55899 80.4845 2.54972 70.9405 0.756929 60.5528C-0.930404 50.9561 0.229637 41.0431 3.97341 31.8682C7.76991 22.7461 13.9919 14.9421 21.954 9.30012C30.6016 3.23627 40.8838 0.0197893 51.6933 0.0197893C65.4556 0.0197893 78.427 5.39816 88.1819 15.1531L207.35 134.321C209.143 136.114 211.515 137.063 213.994 137.063C219.477 137.063 221.798 133.425 222.694 131.263C223.59 129.101 224.539 124.882 220.69 121.033L135.691 36.0338C127.465 27.808 127.465 14.4676 135.691 6.1891C143.917 -2.08938 157.257 -2.03665 165.536 6.1891L250.482 91.1357C250.535 91.1885 250.535 91.1885 250.588 91.2412L293.667 134.321C295.46 136.114 297.833 137.063 300.311 137.063H301.366C306.85 137.063 309.17 133.425 310.066 131.263C310.962 129.101 311.912 124.882 308.01 120.98L275.212 88.1302C267.566 80.4845 262.557 70.9405 260.764 60.5528C259.077 50.9561 260.237 41.0431 263.981 31.8682C267.777 22.7461 273.999 14.9421 281.961 9.30012C290.609 3.23627 300.891 0.0197893 311.701 0.0197893H397.596C409.25 0.0197893 418.688 9.45831 418.688 21.1114C418.688 32.7646 409.25 42.2031 397.596 42.2031H384.941C379.458 42.2031 377.138 45.8414 376.241 48.0033C375.345 50.1652 374.396 54.3835 378.298 58.2855L454.28 134.268C456.073 136.061 458.446 137.01 460.924 137.01C465.723 137.01 469.624 133.108 469.624 128.31C469.624 116.657 479.063 107.218 490.716 107.218C502.369 107.218 511.808 116.657 511.808 128.31C511.861 156.414 488.976 179.246 460.924 179.246Z" fill="url(#paint0_linear_1_11826)"/>
<path d="M460.924 160.793C452.066 160.793 443.735 157.365 437.46 151.09L361.477 75.1077C351.828 65.4582 349.086 51.5905 354.306 38.9882C356.995 32.5552 361.372 27.3351 366.803 23.8022H311.701C300.206 23.8022 290.345 30.3933 285.916 40.9919C281.487 51.5905 283.86 63.2436 291.98 71.3639L324.83 104.214C334.48 113.864 337.222 127.731 332.001 140.334C326.781 152.936 315.023 160.793 301.366 160.793H300.311C291.453 160.793 283.122 157.365 276.847 151.09L246.528 120.771C247.898 127.151 247.266 133.901 244.629 140.334C239.409 152.936 227.65 160.793 213.994 160.793C205.135 160.793 196.804 157.365 190.529 151.09L71.3613 31.9225C66.0884 26.6496 59.0754 23.7495 51.6406 23.7495C40.1456 23.7495 30.2853 30.3406 25.856 40.9392C21.4795 51.5377 23.7996 63.1909 31.9199 71.3112L64.7701 104.161C74.4196 113.811 77.1615 127.679 71.9413 140.281C66.7211 152.883 54.9625 160.74 41.3057 160.74H26.5415C25.0651 160.74 23.9051 159.58 23.9051 158.103C23.9051 156.627 25.0651 155.467 26.5415 155.467H41.3584C52.8534 155.467 62.7137 148.876 67.143 138.277C71.5722 127.679 69.1994 116.025 61.0791 107.905L28.2289 75.0549C18.5794 65.4582 15.8375 51.5905 21.0577 38.9882C26.2779 26.3332 37.9837 18.4766 51.6933 18.4766C60.5518 18.4766 68.883 21.904 75.1578 28.1787L194.326 147.347C199.599 152.62 206.612 155.52 214.046 155.52C225.541 155.52 235.402 148.928 239.831 138.33C244.207 127.731 241.94 116.131 233.82 108.011L148.768 23.0113C147.713 21.9567 147.713 20.3221 148.768 19.2675C149.822 18.2129 151.457 18.2129 152.511 19.2675L237.458 104.214L237.511 104.267L280.591 147.347C285.863 152.62 292.876 155.52 300.311 155.52H301.366C312.861 155.52 322.721 148.928 327.15 138.33C331.527 127.731 329.207 116.078 321.087 107.958L288.236 75.1077C278.587 65.4582 275.845 51.5905 281.065 38.9882C286.285 26.3859 298.044 18.5293 311.701 18.5293H397.596C399.073 18.5293 400.233 19.6893 400.233 21.1658C400.233 22.6422 399.073 23.8022 397.596 23.8022H384.941C373.447 23.8022 363.586 30.3933 359.157 40.9919C354.78 51.5905 357.101 63.2436 365.221 71.3639L441.204 147.347C446.476 152.62 453.489 155.52 460.924 155.52C475.899 155.52 488.08 143.339 488.08 128.364C488.08 126.888 489.24 125.728 490.716 125.728C492.193 125.728 493.353 126.888 493.353 128.364C493.405 146.239 478.852 160.793 460.924 160.793Z" fill="white"/>
</g>
<defs>
<linearGradient id="paint0_linear_1_11826" x1="-0.00508459" y1="8964.95" x2="51183.5" y2="8964.95" gradientUnits="userSpaceOnUse">
<stop stop-color="#FFA588"/>
<stop offset="0.271" stop-color="#FCB371"/>
<stop offset="0.8357" stop-color="#F4D837"/>
<stop offset="1" stop-color="#F1E425"/>
</linearGradient>
<clipPath id="clip0_1_11826">
<rect width="512" height="180" fill="white"/>
</clipPath>
</defs>
</svg>
