<svg width="512" height="155" viewBox="0 0 512 155" fill="none" xmlns="http://www.w3.org/2000/svg">
<g clip-path="url(#clip0_1_11838)">
<path d="M238.837 0C234.426 0 230.706 1.54046 227.677 4.62231C224.645 7.70415 223.132 11.437 223.132 15.819C223.132 20.2037 224.645 23.901 227.677 26.9118C230.706 29.9264 234.426 31.4313 238.837 31.4313C243.244 31.4313 246.964 29.9264 249.995 26.9118C253.025 23.901 254.541 20.2037 254.541 15.819C254.541 11.437 253.025 7.70415 249.995 4.62231C246.964 1.54046 243.244 0 238.837 0ZM508.493 72.2515C506.153 66.7858 503.163 62.4795 499.521 59.3338C495.876 56.1913 491.922 54.0028 487.661 52.7725C483.398 51.5428 479.412 50.9274 475.699 50.9274C472.947 50.9274 470.094 51.2387 467.139 51.8597C464.181 52.4808 461.328 53.4463 458.58 54.7529C455.827 56.0633 453.285 57.7158 450.947 59.7154C448.609 61.7144 446.617 64.0206 444.966 66.6386C443.041 63.6086 440.875 61.0933 438.47 59.0938C437.972 58.6802 437.467 58.293 436.96 57.9115V57.9533C433.797 55.5459 430.416 53.8128 426.815 52.7725C422.551 51.5428 418.564 50.9274 414.852 50.9274C412.1 50.9274 409.248 51.2387 406.292 51.8597C403.333 52.4808 400.481 53.4463 397.733 54.7529C394.981 56.0633 392.437 57.7158 390.1 59.7154C387.762 61.7144 385.771 64.0206 384.119 66.6386C382.193 63.6086 380.027 61.0933 377.623 59.0938C377.125 58.6802 376.62 58.293 376.113 57.9115C374.169 56.4515 372.166 55.2207 370.094 54.2367C367.481 52.9971 364.799 52.1349 362.051 51.6522C359.299 51.1716 356.688 50.9274 354.213 50.9274C349.398 50.9274 344.896 51.757 340.704 53.4096C336.508 55.0643 332.831 57.4056 329.669 60.4366L325.544 50.9274H301.206V152.627H329.669V98.8454C329.669 91.0759 331.247 85.3515 334.414 81.6699C337.575 77.9899 341.148 76.1474 345.138 76.1474C350.636 76.1474 354.832 77.785 357.719 81.0556C360.607 84.3293 362.051 90.1219 362.051 98.4359V152.627H376.113H390.513V98.2336C390.513 93.8705 390.959 90.2592 391.854 87.3959C392.747 84.5311 393.949 82.2828 395.463 80.6451C396.976 79.0111 398.693 77.8516 400.621 77.1696C402.544 76.4896 404.467 76.1474 406.396 76.1474C408.458 76.1474 410.484 76.5211 412.479 77.2713C414.471 78.0214 416.224 79.2832 417.738 81.0556C419.25 82.831 420.453 85.1465 421.348 88.0077C422.241 90.872 422.689 94.3476 422.689 98.4359V152.627H436.96H451.153H451.361V98.2336C451.361 93.8705 451.806 90.2592 452.701 87.3959C453.593 84.5311 454.797 82.2828 456.311 80.6451C457.823 79.0111 459.54 77.8516 461.468 77.1696C463.391 76.4896 465.314 76.1474 467.242 76.1474C469.306 76.1474 471.332 76.5211 473.327 77.2713C475.319 78.0214 477.071 79.2832 478.586 81.0556C480.097 82.831 481.301 85.1465 482.195 88.0077C483.089 90.872 483.536 94.3476 483.536 98.4359V152.627H512V93.1653C512 84.6912 510.83 77.7204 508.493 72.2515ZM265.644 95.9201L261.454 81.4624L252.605 50.9279H223.316L238.757 102.024L254.048 152.627H282.221L274.092 124.818L274.056 124.946L265.644 95.9201ZM161.076 50.9274L140.451 124.536L119.207 50.9274H89.919L120.651 152.626H156.54L171.389 103.622L173.039 89.065L174.482 103.622L189.333 152.626H197.256L205.385 124.818L184.795 50.9274H161.076ZM58.6792 94.3956C62.1847 95.7637 65.2436 97.4044 67.8575 99.3162C75.4179 104.648 79.2011 112.234 79.2011 122.075C79.2011 126.586 78.1345 130.825 76.0043 134.788C73.8711 138.755 70.9516 142.24 67.238 145.245C63.5255 148.254 59.195 150.611 54.2449 152.318C49.2952 154.026 43.9991 154.882 38.3634 154.882C34.0994 154.882 29.9389 154.334 25.8848 153.242C21.8269 152.149 18.0795 150.646 14.6444 148.731C11.2046 146.818 8.21459 144.527 5.67148 141.862C3.12552 139.196 1.23723 136.223 0 132.943C3.16128 131.44 6.66784 129.764 10.5188 127.92C14.3669 126.074 17.7379 124.401 20.6254 122.895C21.8627 124.947 23.7867 126.826 26.4004 128.535C29.0113 130.245 32.5884 131.098 37.1252 131.098C41.7984 131.098 45.2373 130.005 47.4379 127.817C49.6357 125.631 50.7384 123.581 50.7384 121.666C50.7384 120.301 49.9811 119.035 48.4691 117.873C46.9543 116.713 45.2373 115.79 43.3132 115.104C40.5612 114.012 38.2919 113.432 36.5071 113.362C34.7185 113.294 32.6562 112.92 30.32 112.234C22.8938 110.459 17.2223 108.102 13.3037 105.16C9.38504 102.222 6.5286 99.2491 4.74379 96.2407C2.95523 93.236 1.95886 90.3655 1.75281 87.6293C1.54676 84.8966 1.44422 82.7087 1.44422 81.0685C1.44422 76.6946 2.40483 72.5272 4.33076 68.5612C6.25482 64.5973 8.90145 61.147 12.2725 58.2063C15.6399 55.2687 19.5585 52.9109 24.0295 51.1328C28.4957 49.3574 33.2743 48.4668 38.3634 48.4668C42.6236 48.4668 46.6815 49.0822 50.5315 50.3125C54.3797 51.5422 57.8852 53.2532 61.051 55.438C64.2126 57.6265 66.9288 60.2249 69.1978 63.2302C71.4663 66.238 73.1488 69.5855 74.2506 73.2774L52.1824 80.6575C51.3575 78.197 49.6715 76.2176 47.1284 74.7121C44.5824 73.2098 41.869 72.457 38.9815 72.457C36.094 72.457 33.7541 73.4147 31.9684 75.3275C30.1808 77.2429 29.2879 79.1557 29.2879 81.0685C29.2879 83.3943 30.145 85.2044 31.8668 86.5017C33.5829 87.8017 35.4759 88.7248 37.5382 89.269C39.0493 89.5452 40.5292 89.7827 41.9725 89.9876C43.4158 90.1921 44.8242 90.4316 46.2007 90.7047C51.0122 91.8003 55.1727 93.0311 58.6792 94.3956Z" fill="#4154FF"/>
</g>
<defs>
<clipPath id="clip0_1_11838">
<rect width="512" height="155" fill="white"/>
</clipPath>
</defs>
</svg>
