<svg width="512" height="121" viewBox="0 0 512 121" fill="none" xmlns="http://www.w3.org/2000/svg">
<g clip-path="url(#clip0_1_11841)">
<path d="M0 64.4566C0.123514 95.5115 25.4086 120.938 56.4811 120.938C87.6507 120.899 112.913 95.6456 112.962 64.4742V56.4635C113.054 38.5345 132.521 27.4289 148.003 36.4754C150.383 37.8658 152.499 39.6691 154.251 41.8006H190.776C184.103 17.1543 161.752 0.0299962 136.218 0C105.047 0.0494055 79.7934 25.3115 79.7546 56.4811V64.4566C79.7352 77.3073 69.3124 87.7124 56.4635 87.7124C43.6268 87.693 33.227 77.2932 33.2076 64.4566C33.2076 60.7829 30.2291 57.8045 26.5555 57.8045H6.63446C2.9661 57.815 0 60.79 0 64.4566ZM216.132 120.938C190.626 120.842 168.323 103.73 161.627 79.1194H198.098C209.326 93.0288 231.4 89.5687 237.831 72.8908C238.867 70.2052 239.394 67.3521 239.387 64.4742V56.4635C239.435 25.2939 264.697 0.0388186 295.868 0C326.623 0 351.697 24.7028 352.332 55.2812L352.508 64.4566C352.6 82.3872 372.068 93.4911 387.549 84.4464C389.93 83.056 392.045 81.2509 393.797 79.1194H430.322C423.658 103.767 401.314 120.901 375.782 120.938C344.709 120.938 319.424 95.4938 319.301 64.4742L319.124 56.1811V55.8282C318.752 43.2492 308.453 33.2393 295.868 33.2252C283.032 33.2446 272.632 43.6462 272.613 56.4811V64.4566C272.574 95.635 247.308 120.899 216.132 120.938ZM437.486 41.8182C448.713 27.9106 470.787 31.3707 477.219 48.0486C478.256 50.7395 478.784 53.5979 478.775 56.4811C478.775 60.1565 481.753 63.1332 485.427 63.1332H505.366C509.032 63.1244 512 60.1495 512 56.4811C511.961 25.3044 486.696 0.0388186 455.519 0C429.98 0.0317607 407.626 17.1649 400.961 41.8182H437.486Z" fill="black"/>
</g>
<defs>
<clipPath id="clip0_1_11841">
<rect width="512" height="121" fill="white"/>
</clipPath>
</defs>
</svg>
