<svg width="256" height="257" viewBox="0 0 256 257" fill="none" xmlns="http://www.w3.org/2000/svg">
<g clip-path="url(#clip0_1_11844)">
<path d="M128 256.828C198.692 256.828 256 199.521 256 128.828C256 58.1357 198.692 0.828125 128 0.828125C57.3075 0.828125 0 58.1357 0 128.828C0 199.521 57.3075 256.828 128 256.828Z" fill="#1A171B"/>
<path d="M183.706 48.1232C170.72 48.5761 159.386 55.7323 150.949 65.6336C141.607 76.488 135.392 89.3628 130.914 102.505C122.904 95.9401 116.724 87.4409 103.873 83.7348C93.9402 80.8833 83.5072 82.0609 73.9131 89.2092C69.3681 92.6042 66.237 97.736 64.7483 102.561C60.8925 115.097 68.801 126.254 72.3928 130.26L80.2461 138.676C81.8648 140.327 85.7639 144.631 83.8577 150.803C81.7979 157.514 73.7083 161.858 65.4099 159.298C61.7038 158.168 56.379 155.407 57.5724 151.52C58.0647 149.928 59.2029 148.739 59.8134 147.365C60.3726 146.183 60.6405 145.297 60.8098 144.777C62.3261 139.826 60.2545 133.387 54.9533 131.753C50.0066 130.236 44.9457 131.437 42.9843 137.806C40.7591 145.041 44.221 158.172 62.7672 163.89C84.4957 170.566 102.877 158.735 105.484 143.304C107.126 133.639 102.762 126.459 94.7672 117.224L88.253 110.02C84.3067 106.078 82.9519 99.3587 87.036 94.1953C90.4822 89.8394 95.3895 87.9804 103.428 90.1663C115.161 93.3525 120.391 101.493 129.118 108.059C125.515 119.878 123.16 131.741 121.029 142.378L119.729 150.311C113.491 183.031 108.729 200.999 96.3544 211.313C93.8614 213.086 90.2971 215.74 84.925 215.925C82.109 216.012 81.1992 214.074 81.1598 213.231C81.0929 211.254 82.7589 210.348 83.8656 209.458C85.5197 208.556 88.0206 207.06 87.8513 202.267C87.6701 196.603 82.9794 191.692 76.1974 191.916C71.1168 192.09 63.3738 196.871 63.6652 205.622C63.9685 214.661 72.3928 221.435 85.0944 221.006C91.8843 220.774 107.047 218.009 121.99 200.246C139.382 179.884 144.246 156.541 147.905 139.456L151.989 116.901C154.258 117.172 156.684 117.353 159.323 117.416C180.984 117.873 191.819 106.653 191.98 98.4922C192.087 93.5534 188.739 88.6933 184.052 88.8036C180.697 88.8981 176.482 91.1312 175.47 95.7707C174.482 100.324 182.363 104.431 176.203 108.421C171.827 111.253 163.982 113.25 152.934 111.627L154.943 100.524C159.043 79.4694 164.1 53.5701 183.284 52.9399C184.682 52.8691 189.798 53.003 189.917 56.3861C189.952 57.5164 189.672 57.8039 188.349 60.3915C187.002 62.408 186.494 64.1252 186.557 66.0983C186.742 71.4743 190.83 75.0071 196.742 74.7945C204.658 74.5385 206.935 66.8309 206.805 62.8727C206.486 53.574 196.683 47.6979 183.706 48.1232Z" fill="white"/>
</g>
<defs>
<clipPath id="clip0_1_11844">
<rect width="256" height="257" fill="white"/>
</clipPath>
</defs>
</svg>
