<svg width="512" height="184" viewBox="0 0 512 184" fill="none" xmlns="http://www.w3.org/2000/svg">
<g clip-path="url(#clip0_1_11851)">
<path d="M218.575 146.061C218.928 151.958 216.363 157.653 211.713 161.297C206.762 164.786 200.781 166.507 194.732 166.182C184.996 166.221 175.546 162.893 167.983 156.761L175.543 145.13C182.365 150.093 188.917 152.574 195.198 152.574C200.159 152.574 202.64 151.023 202.641 147.922V147.689C202.641 145.985 201.362 144.551 198.803 143.386C197.873 142.999 194.849 142.03 189.732 140.478C177.326 136.835 171.123 130.594 171.123 121.754V121.521C170.918 115.842 173.421 110.403 177.869 106.867C182.449 103.324 188.133 101.512 193.918 101.749C202.225 101.728 210.34 104.245 217.179 108.961L210.433 121.172C203.842 117.296 198.221 115.358 193.569 115.357C189.226 115.357 187.055 116.791 187.056 119.66V119.893C187.056 121.445 188.336 122.841 190.895 124.08C191.901 124.545 194.848 125.63 199.734 127.336C204.25 128.676 208.527 130.717 212.41 133.384C216.35 136.297 218.645 140.93 218.575 145.829L218.575 146.061ZM261.564 166.53C259.16 172.965 256.485 177.463 253.539 180.022C250.006 182.802 245.584 184.207 241.095 183.976C235.568 183.991 230.141 182.503 225.394 179.672L231.326 166.88C233.578 168.364 236.19 169.208 238.885 169.322C241.587 169.381 244.043 167.76 245.049 165.251L220.625 102.68H239.35L253.539 145.13L267.147 102.68H285.522L261.564 166.53ZM335.325 146.061C335.678 151.958 333.113 157.653 328.463 161.297C323.512 164.786 317.531 166.507 311.482 166.182C301.746 166.221 292.296 162.893 284.733 156.761L292.292 145.13C299.115 150.093 305.667 152.574 311.948 152.574C316.909 152.574 319.39 151.023 319.391 147.922V147.689C319.391 145.985 318.112 144.551 315.553 143.386C314.623 142.999 311.599 142.03 306.482 140.478C294.076 136.835 287.873 130.594 287.873 121.754V121.521C287.667 115.843 290.171 110.403 294.618 106.867C299.199 103.324 304.883 101.512 310.668 101.749C318.975 101.728 327.09 104.245 333.929 108.961L327.183 121.172C320.592 117.296 314.971 115.358 310.319 115.357C305.977 115.357 303.806 116.791 303.806 119.66V119.893C303.806 121.445 305.086 122.841 307.645 124.08C308.651 124.545 311.598 125.63 316.484 127.336C321 128.676 325.277 130.717 329.161 133.384C333.1 136.297 335.395 140.93 335.325 145.829V146.061ZM389.266 165.019V159.552C383.859 164.131 376.922 166.498 369.844 166.182C362.421 166.321 355.284 163.323 350.188 157.924C344.374 151.876 341.466 143.89 341.466 133.965V133.732C341.466 123.809 344.335 115.823 350.072 109.775C355.205 104.36 362.384 101.362 369.844 101.517C376.781 101.268 383.607 103.311 389.266 107.332V80.1172H406.945V165.019H389.266ZM389.499 133.733C389.672 129.172 388.09 124.719 385.08 121.289C382.396 118.192 378.477 116.446 374.38 116.52C370.306 116.437 366.399 118.136 363.68 121.172C360.589 124.607 358.961 129.114 359.144 133.732V133.965C358.975 138.546 360.602 143.013 363.68 146.41C366.409 149.445 370.299 151.179 374.38 151.179C378.462 151.179 382.351 149.445 385.08 146.41C388.09 142.98 389.672 138.526 389.499 133.965V133.733ZM417.645 95.8183V80.1172H436.253V95.8183H417.645ZM418.11 165.019V102.68H435.788V165.019H418.11ZM511.996 150.946C511.996 162.5 509.088 170.913 503.273 176.184C497.69 181.301 489.006 183.86 477.221 183.86C467.636 183.996 458.167 181.759 449.657 177.347L455.705 162.925C462.104 166.631 469.362 168.596 476.756 168.624C488.619 168.624 494.55 163.739 494.55 153.969V153.272C488.737 157.769 481.544 160.112 474.197 159.901C467.005 160.092 460.041 157.366 454.891 152.342C449.205 146.662 446.166 138.854 446.517 130.825V130.592C446.171 122.541 449.256 114.722 455.007 109.077C460.12 104.068 467.042 101.342 474.197 101.517C481.342 101.339 488.369 103.37 494.317 107.332V102.68H511.996V150.946ZM494.55 130.592C494.659 126.662 493.045 122.881 490.131 120.242C483.941 114.814 474.688 114.814 468.498 120.242C465.646 122.915 464.079 126.685 464.195 130.592V130.825C464.062 134.77 465.629 138.582 468.498 141.293C471.455 143.963 475.333 145.381 479.315 145.247C483.317 145.376 487.207 143.912 490.131 141.177C493.045 138.537 494.66 134.755 494.55 130.825V130.592Z" fill="#55565B"/>
<path d="M115.377 57.252C117.534 57.2575 119.522 58.4191 120.586 60.2952L141.237 96.0638C155.958 121.561 147.889 156.88 122.469 178.216C121.931 178.667 121.319 179.02 120.66 179.26C112.485 182.241 103.851 183.77 95.1491 183.778C72.2534 183.778 50.8831 173.064 40.1303 154.439L15.5537 111.872C14.7573 110.492 14.5414 108.853 14.9536 107.315C15.3658 105.776 16.3722 104.465 17.7515 103.668L34.4917 94.0031C36.3506 92.9165 38.6491 92.9082 40.5158 93.9814C42.3826 95.0546 43.5319 97.0452 43.5281 99.1984C43.5243 101.352 42.368 103.338 40.4975 104.405L28.9581 111.067L50.5318 148.433C62.2267 168.689 90.0321 177.136 115.553 168.328C135.941 150.631 142.53 122.326 130.836 102.07L110.184 66.3011C109.091 64.4418 109.079 62.1392 110.153 60.2685C111.226 58.3979 113.22 57.2465 115.377 57.252ZM52.2722 113.306C52.3336 113.416 55.2658 118.639 58.4285 124.243L58.8089 124.917L59.5724 126.268C61.0988 128.969 62.6053 131.627 63.7998 133.718L64.0918 134.228C64.4245 134.81 64.7285 135.339 64.9968 135.804C73.4544 150.453 88.944 156.05 106.433 150.763C109.608 149.804 112.959 151.601 113.918 154.776C114.877 157.951 113.081 161.303 109.906 162.262C104.702 163.866 99.2915 164.696 93.8468 164.727C77.5383 164.908 62.453 156.101 54.5944 141.81C53.334 139.627 51.3481 136.129 49.3117 132.527L48.9172 131.829C48.8513 131.713 48.7855 131.596 48.7197 131.48L48.1286 130.433L47.7367 129.739C44.7431 124.434 42.022 119.586 41.7792 119.151C40.1651 116.253 41.2056 112.596 44.1031 110.982C47.0007 109.368 50.6581 110.408 52.2722 113.306ZM11.1839 2.96306L82.1376 125.859C84.073 129.21 89.5592 134.96 96.4615 132.733C99.6186 131.715 103.003 133.45 104.02 136.607C105.037 139.764 103.303 143.148 100.146 144.165C97.9498 144.881 95.655 145.248 93.3451 145.253C83.8596 145.253 75.8193 138.937 71.736 131.865L0.782441 8.96887C-0.844586 6.09956 0.147063 2.45504 3.00359 0.805671C5.86012 -0.843694 9.51226 0.119489 11.1839 2.96306ZM63.2717 38.3407L80.1794 67.6261L90.9331 61.4169C93.8029 59.7847 97.4521 60.775 99.1031 63.6341C100.754 66.4932 99.7874 70.1489 96.9391 71.8184L80.9837 81.0305C80.0707 81.5577 79.035 81.8355 77.9807 81.8355C75.8354 81.8355 73.8529 80.6907 72.7799 78.8327L52.8702 44.3465C51.2432 41.4772 52.2349 37.8327 55.0914 36.1833C57.9479 34.534 61.6001 35.4971 63.2717 38.3407Z" fill="#00ABC7"/>
</g>
<defs>
<clipPath id="clip0_1_11851">
<rect width="512" height="184" fill="white"/>
</clipPath>
</defs>
</svg>
