<svg width="256" height="251" viewBox="0 0 256 251" fill="none" xmlns="http://www.w3.org/2000/svg">
<g clip-path="url(#clip0_1_11872)">
<path d="M123.929 11.5932V23.2338H103.109V30.8049H123.929V53.9914H132.068V30.8049H153.409V23.2338H132.068V0H123.929V11.5932Z" fill="#7099A6"/>
<path d="M55.8842 41.1196V58.0126H24.3695V68.6121H55.8842V102.919H67.5721V68.6121H99.56V58.0126H67.5721V24.2266H55.8842V41.1196Z" fill="#EB912C"/>
<path d="M187.953 41.1196V58.0126H156.438V69.1326H187.953V102.919H200.114V69.1326H231.628V58.0126H200.114V24.2266H187.953V41.1196Z" fill="#59879B"/>
<path d="M120.901 98.6621V117.59H85.8373V131.691H120.901V169.547H135.097V131.691H170.16V117.59H135.097V79.7344H120.901V98.6621Z" fill="#E8762C"/>
<path d="M224.01 108.22V120.098H202.669V129.703H224.01V153.41H234.657V129.703H255.998V120.098H234.657V96.3906H224.01V108.22Z" fill="#5B6591"/>
<path d="M20.8205 109.259V120.616H0V128.66H20.8205V151.373H28.9595V128.66L50.3005 127.903V120.616H28.9595V97.9023H20.8205V109.259Z" fill="#7099A6"/>
<path d="M55.8842 162.733V179.626H24.3695V190.746H55.8842V224.532H68.0453V190.746H99.56V179.626H68.0453V145.84H55.8842V162.733Z" fill="#C72035"/>
<path d="M187.953 162.733V179.626H156.438V190.225H187.953V224.532H200.114V190.225H231.628V179.626H200.114V145.84H187.953V162.733Z" fill="#1F447E"/>
<path d="M122.936 205.651V217.48H101.595V227.086H122.936V250.793H133.583V227.086H154.924V217.48H133.583V193.773H122.936V205.651Z" fill="#5B6591"/>
</g>
<defs>
<clipPath id="clip0_1_11872">
<rect width="256" height="251" fill="white"/>
</clipPath>
</defs>
</svg>
