<svg width="512" height="109" viewBox="0 0 512 109" fill="none" xmlns="http://www.w3.org/2000/svg">
<g clip-path="url(#clip0_1_11883)">
<path d="M53.6434 5.01819V10.0569H44.6311V13.334H53.6434V23.3704H57.1663V13.334H66.4039V10.0569H57.1663V0H53.6434V5.01819Z" fill="#7099A6"/>
<path d="M24.1897 17.8005V25.1127H10.5485V29.7008H24.1897V44.5505H29.2489V29.7008H43.095V25.1127H29.2489V10.4883H24.1897V17.8005Z" fill="#EB912C"/>
<path d="M81.3561 17.8005V25.1127H67.7148V29.9261H81.3561V44.5505H86.6201V29.9261H100.261V25.1127H86.6201V10.4883H81.3561V17.8005Z" fill="#59879B"/>
<path d="M52.3325 42.7047V50.8976H37.155V57.0014H52.3325V73.3873H58.4772V57.0014H73.6547V50.8976H58.4772V34.5117H52.3325V42.7047Z" fill="#E8762C"/>
<path d="M96.9636 46.8433V51.9843H87.7261V56.1423H96.9636V66.4039H101.572V56.1423H110.81V51.9843H101.572V41.7227H96.9636V46.8433Z" fill="#5B6591"/>
<path d="M9.01226 47.2947V52.2105H0V55.6925H9.01226V65.524H12.5352V55.6925L21.7728 55.3647V52.2105H12.5352V42.3789H9.01226V47.2947Z" fill="#7099A6"/>
<path d="M24.1897 70.4372V77.7494H10.5485V82.5628H24.1897V97.1872H29.4537V82.5628H43.095V77.7494H29.4537V63.125H24.1897V70.4372Z" fill="#C72035"/>
<path d="M81.3561 70.4372V77.7494H67.7148V82.3375H81.3561V97.1872H86.6201V82.3375H100.261V77.7494H86.6201V63.125H81.3561V70.4372Z" fill="#1F447E"/>
<path d="M53.2133 89.0161V94.1367H43.9757V98.2946H53.2133V108.556H57.8218V98.2946H67.0594V94.1367H57.8218V83.875H53.2133V89.0161Z" fill="#5B6591"/>
<path d="M337.263 21.8359V84.1024H330.238V21.8359H337.263ZM162.692 30.5819V50.4499H181.597V57.0042H162.692V78.4083H155.666V57.0042H136.761V50.4499H155.666V30.5819H162.692ZM382.57 44.2232C383.84 44.2846 385.458 44.4895 386.196 44.6738C386.913 44.8582 388.101 45.2883 388.817 45.6365C389.555 45.9642 390.743 46.6811 391.46 47.2341C392.197 47.7871 393.221 48.8113 393.754 49.5077C394.286 50.2041 395.044 51.474 395.454 52.3137C395.863 53.1535 396.396 54.6283 396.642 55.5909C396.887 56.5536 397.174 58.4994 397.4 62.473H373.107L373.251 63.2923C373.312 63.7429 373.579 64.7056 373.783 65.4225C374.009 66.1394 374.582 67.2659 375.033 67.9009C375.483 68.5358 376.159 69.2937 376.507 69.5599C376.876 69.8262 377.614 70.2768 378.167 70.5636C378.699 70.8298 379.641 71.178 380.256 71.3419C380.87 71.5058 382.509 71.6491 383.984 71.6491C385.438 71.6491 387.527 71.5058 388.613 71.3214C389.698 71.1371 391.234 70.7684 392.013 70.5226C392.791 70.2768 393.815 69.8877 394.266 69.6623C394.716 69.437 395.187 69.2322 395.31 69.2322C395.448 69.2322 395.529 70.3776 395.535 75.1312L395.536 75.7866L394.327 76.3396C393.651 76.6468 392.258 77.1384 391.193 77.4457C390.128 77.7324 388.182 78.1011 386.851 78.2445C385.028 78.4288 383.799 78.4288 381.894 78.2445C380.502 78.1011 378.474 77.7324 377.388 77.4252C376.303 77.1179 374.726 76.5035 373.906 76.0528C373.066 75.6022 371.653 74.5576 370.752 73.7179C369.83 72.8781 368.683 71.5058 368.151 70.666C367.618 69.8262 366.963 68.3924 366.655 67.4912C366.348 66.59 365.98 65.0128 365.836 64.0092C365.672 62.8827 365.631 61.3055 365.713 60.0766C365.775 58.9296 366.041 57.209 366.287 56.2464C366.533 55.2837 367.127 53.7066 367.598 52.7439C368.069 51.7812 368.949 50.4089 369.523 49.692C370.117 48.9751 371.284 47.8691 372.124 47.2341C372.964 46.5992 374.377 45.8003 375.258 45.4317C376.118 45.063 377.614 44.6328 378.556 44.4485C379.682 44.2437 381.034 44.1618 382.57 44.2232ZM455.549 43.8955V54.874C455.549 60.9164 455.488 68.1466 455.221 76.0324L453.46 76.5649C452.497 76.8517 450.551 77.3023 449.118 77.5276C447.295 77.8553 445.554 77.9782 443.198 77.9782C441.334 77.9782 439.184 77.8758 438.405 77.7529C437.627 77.6095 436.091 77.2203 435.005 76.8721C433.838 76.5035 432.322 75.7866 431.38 75.1721C430.458 74.5781 429.188 73.5335 428.533 72.8166C427.898 72.1202 426.997 70.8913 426.566 70.113C426.136 69.3346 425.542 67.9009 425.256 66.9587C424.825 65.5863 424.703 64.5213 424.6 62.0429C424.539 60.0561 424.6 58.2946 424.764 57.3319C424.907 56.4922 425.276 55.0789 425.583 54.1777C425.87 53.2764 426.546 51.8427 427.079 51.0029C427.591 50.1631 428.697 48.8317 429.536 48.0534C430.479 47.1932 431.708 46.3124 432.711 45.8208C433.612 45.3907 434.923 44.8582 435.661 44.6533C436.378 44.469 438.159 44.2437 439.614 44.1822C441.56 44.1003 442.686 44.1822 443.895 44.428C444.816 44.6329 446.189 45.0835 446.987 45.4521C447.766 45.8003 448.442 46.1076 448.462 46.0871C448.5 46.0871 448.52 45.674 448.523 45.1477L448.524 43.8955H455.549ZM238.108 43.8955L238.108 57.5534L238.105 58.9793C238.09 65.3903 238.001 71.6819 237.78 76.0324L236.019 76.5649C235.056 76.8517 233.028 77.3023 231.513 77.5686C229.198 77.9577 228.153 77.9987 224.815 77.9167C221.722 77.8348 220.473 77.7119 219.1 77.3637C218.117 77.0975 216.438 76.4625 215.352 75.93C214.205 75.3564 212.833 74.4552 212.054 73.7793C211.337 73.1239 210.313 71.9564 209.822 71.1985C209.31 70.4202 208.634 69.1912 208.347 68.4744C208.06 67.7575 207.63 66.3237 207.425 65.3201C207.139 63.8453 207.077 62.7598 207.159 60.179C207.261 57.7006 207.405 56.4922 207.753 55.2632C208.019 54.362 208.634 52.8873 209.105 51.986C209.576 51.0848 210.518 49.7125 211.215 48.9546C211.931 48.1763 213.099 47.1522 213.816 46.6606C214.533 46.1895 215.721 45.5546 216.458 45.2678C217.175 44.9811 218.486 44.5919 219.367 44.428C220.247 44.2642 221.886 44.1208 222.992 44.1208C224.118 44.1208 225.716 44.2846 226.576 44.4485C227.416 44.6328 228.747 45.0835 229.546 45.4521C230.325 45.8003 231.001 46.1076 231.021 46.0871C231.041 46.0871 231.082 45.5955 231.082 45.0015V43.8955H238.108ZM279.216 28.3903L279.217 38.7987C279.224 45.2181 279.284 45.6285 279.605 45.5341C279.831 45.4521 280.896 45.1654 281.981 44.8582C283.272 44.51 284.828 44.2846 286.487 44.1822C288.372 44.1003 289.478 44.1618 290.871 44.428C292.059 44.6533 293.472 45.1449 294.721 45.7594C295.807 46.2919 297.241 47.1931 297.917 47.7871C298.572 48.3606 299.617 49.5691 300.211 50.4703C300.825 51.3716 301.583 52.8053 301.911 53.6861C302.259 54.5463 302.689 56.1644 302.894 57.291C303.14 58.7657 303.201 60.0356 303.119 62.0429C303.058 63.5381 302.832 65.402 302.627 66.1803C302.443 66.9587 301.952 68.29 301.562 69.1298C301.173 69.9696 300.395 71.26 299.842 71.9769C299.309 72.6937 298.224 73.7588 297.445 74.3528C296.688 74.9468 295.295 75.7661 294.394 76.1758C293.492 76.6059 291.997 77.1384 291.096 77.3842C289.683 77.7734 288.781 77.8348 284.726 77.8553C280.896 77.8758 279.646 77.7939 278.131 77.4661C277.106 77.2408 275.406 76.8107 274.382 76.5239C273.358 76.2372 272.457 75.9095 272.375 75.8275C272.293 75.7456 272.191 65.0538 272.15 52.0475L272.068 28.3903H279.216ZM490.082 44.7762L490.062 55.7548L490.062 56.618C490.062 56.7581 490.062 56.8962 490.062 57.0324L490.063 58.5793C490.069 65.3959 490.112 66.7067 490.38 67.7554L490.41 67.867C490.435 67.9596 490.463 68.0515 490.492 68.1466C490.758 68.9659 491.25 69.9286 491.66 70.4202C492.049 70.8708 492.868 71.4853 493.482 71.772C494.076 72.0588 495.223 72.3865 496.002 72.4889C496.842 72.6118 498.03 72.6118 498.869 72.4889C499.648 72.3865 500.795 72.0588 501.389 71.772C502.003 71.4853 502.822 70.8708 503.212 70.4202C503.621 69.9286 504.133 68.9659 504.379 68.1466C504.412 68.0401 504.442 67.9376 504.47 67.8281L504.491 67.7445C504.746 66.6648 504.797 64.7143 504.807 52.5782L504.808 51.5987C504.808 51.4319 504.808 51.2633 504.808 51.0928L504.809 48.3963C504.809 48.207 504.809 48.0158 504.809 47.8227L504.809 44.7762H511.999L511.958 56.6355C511.94 66.5307 511.921 68.2278 511.637 69.347L511.611 69.4459C511.597 69.4948 511.583 69.5429 511.568 69.5911L511.539 69.6876L511.507 69.7852C511.261 70.5021 510.749 71.5877 510.36 72.1817C509.971 72.7962 509.295 73.6359 508.824 74.0865C508.373 74.5372 507.39 75.254 506.673 75.6842C505.956 76.1143 504.563 76.7083 503.601 77.0155C502.495 77.3637 501.02 77.63 499.648 77.7324C498.419 77.7939 496.452 77.7939 495.244 77.7119C493.872 77.63 492.376 77.3637 491.291 77.0155C490.308 76.7083 488.935 76.1143 488.198 75.6842C487.481 75.254 486.518 74.5372 486.047 74.0865C485.597 73.6359 484.9 72.7962 484.511 72.1817C484.142 71.5877 483.63 70.5021 483.385 69.7852L483.368 69.7369L483.336 69.6412C483.304 69.5458 483.275 69.4506 483.248 69.3504L483.222 69.2482C482.948 68.1189 482.925 66.1828 482.873 56.6355L482.791 44.7762H490.082ZM441.478 50.6956C440.699 50.6956 439.511 50.8595 438.856 51.0234C438.18 51.2077 437.156 51.6173 436.562 51.9451C435.968 52.2728 435.108 52.9487 434.637 53.4608C434.165 53.9728 433.551 54.874 433.244 55.4885C432.936 56.0825 432.547 57.1886 432.363 57.9464C432.179 58.6838 432.035 60.138 432.035 61.1621C432.035 62.1863 432.179 63.6405 432.363 64.3779C432.547 65.1357 432.896 66.1599 433.162 66.6719C433.428 67.184 434.104 68.0852 434.657 68.6587C435.21 69.2527 436.111 69.9491 436.644 70.2154C437.197 70.5021 438.18 70.8913 438.856 71.0756C439.614 71.3009 440.863 71.4238 442.317 71.4238C443.546 71.4238 445.287 71.3214 446.148 71.1985C447.028 71.0756 447.868 70.8913 447.991 70.8094C448.175 70.7069 448.278 68.0647 448.339 61.7357L448.401 52.7848C446.189 51.6583 444.96 51.1872 444.222 51.0029C443.505 50.8185 442.276 50.6752 441.478 50.6956ZM221.394 51.0234C220.739 51.2077 219.715 51.6173 219.121 51.9451C218.527 52.2728 217.666 52.9487 217.195 53.4608C216.724 53.9728 216.089 54.874 215.803 55.4885C215.495 56.0825 215.106 57.1886 214.922 57.9464C214.737 58.6838 214.594 60.0356 214.594 60.9368C214.594 61.8381 214.697 63.1694 214.819 63.8863C214.963 64.6032 215.331 65.7912 215.68 66.5081C216.089 67.3683 216.745 68.2491 217.585 69.0274C218.404 69.7852 219.367 70.4202 220.206 70.7479C221.23 71.1576 222.05 71.2805 224.159 71.3829C225.655 71.4443 227.539 71.3624 228.543 71.219C229.505 71.0756 230.407 70.8913 230.55 70.8094C230.714 70.7069 230.837 67.8599 230.939 61.7561L231.082 52.8668C229.28 51.8836 228.276 51.433 227.662 51.2282C227.068 51.0029 225.675 50.798 224.59 50.7571C223.238 50.6956 222.234 50.7776 221.394 51.0234ZM285.934 50.6956C285.095 50.7161 283.988 50.8185 283.517 50.9209C283.026 51.0234 281.899 51.3716 280.978 51.6993L279.339 52.2728V70.4407C282.78 71.3419 283.517 71.4034 285.811 71.3419C288.064 71.2805 288.802 71.178 289.887 70.7684C290.604 70.4816 291.608 69.9491 292.079 69.5599C292.571 69.1912 293.267 68.4948 293.636 68.0238C294.004 67.5527 294.537 66.5695 294.803 65.8526C295.09 65.1357 295.418 63.7634 295.541 62.8007C295.725 61.4899 295.725 60.5886 295.52 59.1958C295.356 57.9464 295.008 56.8199 294.496 55.7548C294.086 54.874 293.369 53.7885 292.919 53.3379C292.468 52.8873 291.649 52.2523 291.096 51.9451C290.563 51.6173 289.519 51.2077 288.781 51.0234C288.064 50.8185 286.774 50.6752 285.934 50.6956ZM380.133 51.0029C379.477 51.1872 378.412 51.6583 377.757 52.0475C377.101 52.4366 376.18 53.1945 375.688 53.727C375.217 54.2801 374.582 55.1813 374.295 55.7548C374.009 56.3283 373.763 56.8813 373.763 57.0042C373.763 57.1408 376.271 57.2216 380.915 57.229L389.493 57.2295C389.268 55.6114 389.063 54.8126 388.899 54.3825C388.715 53.9728 388.182 53.1945 387.711 52.6824C387.138 52.0475 386.441 51.5969 385.643 51.2896C384.967 51.0643 383.738 50.8185 382.898 50.7571C381.915 50.7161 380.911 50.798 380.133 51.0029Z" fill="#1F447E"/>
</g>
<defs>
<clipPath id="clip0_1_11883">
<rect width="512" height="109" fill="white"/>
</clipPath>
</defs>
</svg>
