<svg width="256" height="256" viewBox="0 0 256 256" fill="none" xmlns="http://www.w3.org/2000/svg">
<g clip-path="url(#clip0_1_11896)">
<path opacity="0.8" d="M224.288 43.916L212.325 128.116L128.125 116.153L140.088 31.9531L224.288 43.916Z" fill="#A295AE"/>
<path opacity="0.8" d="M31.8853 212.294L43.8482 128.094L128.048 140.057L116.085 224.257L31.8853 212.294Z" fill="#5D6F6D"/>
<path opacity="0.8" d="M43.8482 32.0664L128.048 44.0293L116.085 128.229L31.8853 116.266L43.8482 32.0664Z" fill="#8CD592"/>
<path opacity="0.8" d="M212.226 224.264L128.026 212.301L139.989 128.102L224.189 140.064L212.226 224.264Z" fill="#665E74"/>
<path opacity="0.8" d="M119.642 255.596L68.5629 187.599L136.56 136.52L187.639 204.517L119.642 255.596Z" fill="#3C3647"/>
<path opacity="0.8" d="M255.463 136.392L187.466 187.471L136.386 119.474L204.384 68.3945L255.463 136.392Z" fill="#837193"/>
<path opacity="0.8" d="M136.437 0.554688L187.516 68.552L119.518 119.631L68.4392 51.6339L136.437 0.554688Z" fill="#A2F4AC"/>
<path opacity="0.8" d="M0.463257 119.7L68.4606 68.6211L119.54 136.618L51.5425 187.698L0.463257 119.7Z" fill="#7EA685"/>
<path d="M127.963 95.7422L160.295 128.074L127.963 160.407L95.631 128.074L127.963 95.7422Z" fill="#3C3647"/>
</g>
<defs>
<clipPath id="clip0_1_11896">
<rect width="256" height="256" fill="white"/>
</clipPath>
</defs>
</svg>
