<svg width="512" height="64" viewBox="0 0 512 64" fill="none" xmlns="http://www.w3.org/2000/svg">
<g clip-path="url(#clip0_1_11910)">
<path d="M52.8666 0C38.7689 0 29.9577 7.04888 26.4333 21.1466C31.72 14.0978 37.8877 11.4544 44.9366 13.2167C48.9584 14.2221 51.833 17.1397 55.0148 20.3695C60.198 25.6307 66.197 31.72 79.2999 31.72C93.3977 31.72 102.209 24.6711 105.733 10.5733C100.447 17.6222 94.2788 20.2655 87.2299 18.5033C83.2081 17.4979 80.3336 14.5802 77.1518 11.3505C71.9685 6.08925 65.9695 0 52.8666 0ZM26.4333 31.72C12.3355 31.72 3.52444 38.7689 0 52.8666C5.28666 45.8177 11.4544 43.1744 18.5033 44.9366C22.5251 45.9421 25.3997 48.8597 28.5815 52.0895C33.7647 57.3507 39.7637 63.4399 52.8666 63.4399C66.9644 63.4399 75.7755 56.3911 79.2999 42.2933C74.0133 49.3422 67.8455 51.9855 60.7966 50.2233C56.7748 49.2178 53.9003 46.3002 50.7185 43.0704C45.5352 37.8092 39.5362 31.72 26.4333 31.72Z" fill="url(#paint0_linear_1_11910)"/>
<path d="M158.592 26.7301H149.366V44.5873C149.366 49.3492 152.491 49.2748 158.592 48.9772V56.1945C146.241 57.6826 141.33 54.2599 141.33 44.5873V26.7301H134.485V18.992H141.33V8.99828L149.366 6.61732V18.992H158.592V26.7301ZM193.762 18.992H201.798V56.1945H193.762V50.8373C190.935 54.7808 186.545 57.1617 180.741 57.1617C170.622 57.1617 162.214 48.6052 162.214 37.5932C162.214 26.5069 170.622 18.0248 180.741 18.0248C186.545 18.0248 190.935 20.4057 193.762 24.2748V18.992ZM182.006 49.498C188.703 49.498 193.762 44.5129 193.762 37.5932C193.762 30.6736 188.703 25.6885 182.006 25.6885C175.31 25.6885 170.25 30.6736 170.25 37.5932C170.25 44.5129 175.31 49.498 182.006 49.498ZM215.191 13.4117C212.363 13.4117 210.057 11.0307 210.057 8.27773C210.057 5.45034 212.363 3.14379 215.191 3.14379C218.018 3.14379 220.325 5.45034 220.325 8.27773C220.325 11.0307 218.018 13.4117 215.191 13.4117ZM211.173 56.1945V18.992H219.209V56.1945H211.173ZM228.509 56.1945V1.87891H236.545V56.1945H228.509ZM288.703 18.992H297.185L285.503 56.1945H277.616L269.878 31.12L262.066 56.1945H254.179L242.497 18.992H250.979L258.197 44.6617L266.009 18.992H273.673L281.411 44.6617L288.703 18.992ZM307.155 13.4117C304.328 13.4117 302.021 11.0307 302.021 8.27773C302.021 5.45034 304.328 3.14379 307.155 3.14379C309.982 3.14379 312.289 5.45034 312.289 8.27773C312.289 11.0307 309.982 13.4117 307.155 13.4117ZM303.137 56.1945V18.992H311.173V56.1945H303.137ZM340.042 18.0248C348.375 18.0248 354.328 23.6795 354.328 33.3522V56.1945H346.292V34.1706C346.292 28.5158 343.018 25.5397 337.959 25.5397C332.676 25.5397 328.509 28.6647 328.509 36.254V56.1945H320.474V18.992H328.509V23.7539C330.965 19.8849 334.982 18.0248 340.042 18.0248ZM392.423 4.11105H400.459V56.1945H392.423V50.8373C389.596 54.7808 385.206 57.1617 379.402 57.1617C369.283 57.1617 360.875 48.6052 360.875 37.5932C360.875 26.5069 369.283 18.0248 379.402 18.0248C385.206 18.0248 389.596 20.4057 392.423 24.2748V4.11105ZM380.667 49.498C387.363 49.498 392.423 44.5129 392.423 37.5932C392.423 30.6736 387.363 25.6885 380.667 25.6885C373.971 25.6885 368.911 30.6736 368.911 37.5932C368.911 44.5129 373.971 49.498 380.667 49.498ZM427.393 57.1617C416.158 57.1617 407.75 48.6052 407.75 37.5932C407.75 26.5069 416.158 18.0248 427.393 18.0248C434.685 18.0248 441.009 21.8194 443.986 27.623L437.066 31.6409C435.429 28.1438 431.783 25.9117 427.319 25.9117C420.771 25.9117 415.786 30.8968 415.786 37.5932C415.786 44.2897 420.771 49.2748 427.319 49.2748C431.783 49.2748 435.429 46.9683 437.215 43.5456L444.134 47.4891C441.009 53.3671 434.685 57.1617 427.393 57.1617ZM457.378 29.2599C457.378 36.0307 477.393 31.9385 477.393 45.7034C477.393 53.1439 470.92 57.1617 462.884 57.1617C455.444 57.1617 450.087 53.8135 447.706 48.4563L454.625 44.4385C455.816 47.7867 458.792 49.7956 462.884 49.7956C466.456 49.7956 469.209 48.6052 469.209 45.629C469.209 39.0069 449.194 42.7272 449.194 29.4087C449.194 22.4146 455.221 18.0248 462.81 18.0248C468.911 18.0248 473.971 20.8521 476.575 25.7629L469.804 29.5575C468.465 26.6557 465.861 25.3164 462.81 25.3164C459.908 25.3164 457.378 26.5813 457.378 29.2599ZM491.679 29.2599C491.679 36.0307 511.694 31.9385 511.694 45.7034C511.694 53.1439 505.221 57.1617 497.185 57.1617C489.745 57.1617 484.387 53.8135 482.007 48.4563L488.926 44.4385C490.117 47.7867 493.093 49.7956 497.185 49.7956C500.757 49.7956 503.509 48.6052 503.509 45.629C503.509 39.0069 483.495 42.7272 483.495 29.4087C483.495 22.4146 489.521 18.0248 497.111 18.0248C503.212 18.0248 508.271 20.8521 510.876 25.7629L504.105 29.5575C502.765 26.6557 500.161 25.3164 497.111 25.3164C494.209 25.3164 491.679 26.5813 491.679 29.2599Z" fill="#2D3748"/>
</g>
<defs>
<linearGradient id="paint0_linear_1_11910" x1="-293.703" y1="2030.08" x2="8838.09" y2="7295.26" gradientUnits="userSpaceOnUse">
<stop stop-color="#2298BD"/>
<stop offset="1" stop-color="#0ED7B5"/>
</linearGradient>
<clipPath id="clip0_1_11910">
<rect width="512" height="64" fill="white"/>
</clipPath>
</defs>
</svg>
