<svg width="256" height="227" viewBox="0 0 256 227" fill="none" xmlns="http://www.w3.org/2000/svg">
<g clip-path="url(#clip0_1_11914)">
<path d="M243.563 83.2548L172.835 12.5279C168.883 8.55729 164.185 5.40656 159.011 3.25664C153.838 1.10673 148.29 0 142.688 0C137.085 0 131.538 1.10673 126.364 3.25664C121.191 5.40656 116.492 8.55729 112.54 12.5279L81.0656 44.1531C97.5195 46.7777 112.499 55.1826 123.313 67.8584C134.127 80.5341 140.067 96.6501 140.067 113.312C140.067 129.974 134.127 146.09 123.313 158.766C112.499 171.442 97.5195 179.847 81.0656 182.472L112.691 214.127C116.643 218.098 121.341 221.248 126.515 223.398C131.688 225.548 137.236 226.655 142.838 226.655C148.441 226.655 153.988 225.548 159.162 223.398C164.336 221.248 169.034 218.098 172.986 214.127L243.563 143.37C251.526 135.394 256 124.583 256 113.312C256 102.041 251.526 91.231 243.563 83.2548ZM80.1004 45.1174L81.0656 44.1531C71.0622 42.5575 60.8309 43.1504 51.0791 45.8921C41.3272 48.6338 32.2861 53.4583 24.5796 60.033C16.8731 66.6078 10.6846 74.7758 6.4411 83.9744C2.19757 93.1724 0 103.182 0 113.312C0 123.442 2.19757 133.451 6.4411 142.649C10.6846 151.848 16.8731 160.016 24.5796 166.591C32.2861 173.165 41.3272 177.99 51.0791 180.731C60.8309 183.473 71.0622 184.068 81.0656 182.472L80.1004 181.507C62.0218 163.416 51.8664 138.887 51.8664 113.312C51.8664 87.7363 62.0218 63.2078 80.1004 45.1174Z" fill="#1B191B"/>
</g>
<defs>
<clipPath id="clip0_1_11914">
<rect width="256" height="227" fill="white"/>
</clipPath>
</defs>
</svg>
