<svg width="512" height="117" viewBox="0 0 512 117" fill="none" xmlns="http://www.w3.org/2000/svg">
<g clip-path="url(#clip0_1_11917)">
<path d="M125.285 42.8252L88.9043 6.44421C86.8712 4.40176 84.4546 2.78106 81.7933 1.67518C79.1321 0.569288 76.2785 0 73.3967 0C70.5148 0 67.6613 0.569288 65.0001 1.67518C62.3388 2.78106 59.9221 4.40176 57.8891 6.44421L41.6991 22.7118C50.1627 24.0618 57.8679 28.3852 63.4305 34.9055C68.9931 41.4257 72.0487 49.7155 72.0487 58.2863C72.0487 66.8571 68.9931 75.1469 63.4305 81.6671C57.8679 88.1877 50.1627 92.5108 41.6991 93.8611L57.9665 110.144C59.9996 112.187 62.4163 113.807 65.0775 114.913C67.7388 116.019 70.5923 116.588 73.4742 116.588C76.356 116.588 79.2096 116.019 81.8708 114.913C84.532 113.807 86.9487 112.187 88.9818 110.144L125.285 73.7474C129.382 69.645 131.683 64.084 131.683 58.2863C131.683 52.4886 129.382 46.928 125.285 42.8252ZM41.2026 23.2078L41.6991 22.7118C36.5534 21.891 31.2906 22.196 26.2744 23.6063C21.2582 25.0166 16.6076 27.4983 12.6434 30.8802C8.67931 34.2622 5.49604 38.4637 3.31322 43.1953C1.1304 47.9267 0 53.0753 0 58.2863C0 63.4969 1.1304 68.6456 3.31322 73.3769C5.49604 78.1086 8.67931 82.3101 12.6434 85.6922C16.6076 89.0738 21.2582 91.5555 26.2744 92.9658C31.2906 94.3761 36.5534 94.6819 41.6991 93.8611L41.2026 93.3646C31.9032 84.0589 26.6794 71.4419 26.6794 58.2863C26.6794 45.1304 31.9032 32.5132 41.2026 23.2078Z" fill="#1B191B"/>
<path d="M238.351 39.5361H250.153V86.5396H238.351V80.7863C236.063 83.0993 233.324 84.9184 230.305 86.132C227.286 87.3456 224.05 87.9276 220.797 87.8424C214.569 87.8767 208.554 85.5749 203.94 81.3912C198.978 77.1264 196.496 70.97 196.496 63.0456C196.496 55.1212 198.978 49.0887 203.94 44.6999C208.55 40.5098 214.567 38.207 220.797 38.2487C224.046 38.1797 227.276 38.7675 230.293 39.9773C233.309 41.1872 236.051 42.9939 238.351 45.2893V39.5361ZM223.48 76.5218C227.377 76.7488 231.212 75.4598 234.18 72.9239C235.519 71.6729 236.575 70.1495 237.276 68.4563C237.977 66.7631 238.306 64.9392 238.243 63.1075C238.318 61.2655 237.994 59.4288 237.293 57.7234C236.592 56.0185 235.53 54.4852 234.18 53.2292C231.116 50.8476 227.345 49.5545 223.464 49.5545C219.583 49.5545 215.813 50.8476 212.748 53.2292C211.37 54.4539 210.281 55.9703 209.562 57.6682C208.844 59.3665 208.512 61.2035 208.592 63.0456C208.513 64.8981 208.847 66.7452 209.568 68.4536C210.29 70.1619 211.381 71.6888 212.764 72.9239C215.736 75.4635 219.577 76.7529 223.48 76.5218ZM304.88 44.6999C309.749 49.0577 312.23 55.1986 312.23 63.0456C312.23 70.8922 309.749 77.1264 304.88 81.3909C300.221 85.5628 294.183 87.8609 287.93 87.8424C284.699 87.9418 281.481 87.3766 278.477 86.1812C275.474 84.9861 272.748 83.1868 270.468 80.8948V103.055H258.667V39.4738H270.468V45.1186C272.754 42.8359 275.481 41.044 278.484 39.852C281.487 38.66 284.701 38.0935 287.93 38.1868C294.192 38.179 300.234 40.5004 304.88 44.6999ZM285.247 76.5215C289.2 76.732 293.083 75.4224 296.102 72.8619C297.445 71.6133 298.502 70.0905 299.204 68.3963C299.905 66.7024 300.233 64.8775 300.165 63.0456C300.236 61.2129 299.909 59.387 299.208 57.6928C298.507 55.9982 297.447 54.4755 296.102 53.2292C293.086 50.6627 289.202 49.3477 285.247 49.5538C281.323 49.3356 277.469 50.6539 274.5 53.2292C273.158 54.4782 272.101 56.0013 271.4 57.6952C270.699 59.3887 270.37 61.2136 270.437 63.0456C270.364 64.8873 270.69 66.723 271.391 68.4276C272.092 70.1323 273.153 71.6659 274.5 72.9239C277.48 75.4709 281.334 76.761 285.247 76.5215ZM326.513 81.8881C323.621 79.6701 321.302 76.793 319.748 73.4965C318.194 70.1997 317.451 66.5795 317.58 62.9375C317.477 59.326 318.221 55.7402 319.753 52.468C321.286 49.1961 323.564 46.3284 326.404 44.0956C331.685 40.272 338.045 38.2248 344.563 38.2492C352.784 38.2492 361.205 41.5368 366.274 47.7246C366.274 47.802 357.638 56.3778 357.638 56.3624C356.22 54.2064 354.273 52.4492 351.986 51.2575C349.699 50.0658 347.143 49.4797 344.563 49.5545C340.834 49.5165 337.2 50.7408 334.251 53.0282C332.723 54.1919 331.505 55.7153 330.707 57.4631C329.909 59.2109 329.555 61.1287 329.676 63.0462C329.557 64.9631 329.913 66.8803 330.71 68.6274C331.508 70.3748 332.725 71.8986 334.251 73.064C337.2 75.346 340.834 76.5646 344.563 76.5222C349.82 76.5222 355.263 74.0566 357.746 69.5904L366.382 78.2282L366.291 78.3521C364.011 81.1811 361.077 83.4156 357.746 84.8656C353.626 86.8215 349.123 87.8383 344.563 87.8429C338.062 87.8643 331.727 85.7746 326.513 81.8881ZM411.247 39.5361H423.049V86.5396H411.247V80.7863C408.956 83.0976 406.218 84.9161 403.2 86.1293C400.179 87.3429 396.945 87.9259 393.691 87.8424C387.47 87.873 381.461 85.5712 376.85 81.3912C371.889 77.1264 369.407 70.97 369.407 63.0456C369.407 55.1212 371.889 49.0887 376.85 44.6999C381.461 40.5098 387.477 38.207 393.708 38.2487C396.955 38.1797 400.185 38.7675 403.203 39.9773C406.221 41.1872 408.96 42.9939 411.263 45.2893L411.247 39.5361ZM396.376 76.5218C400.28 76.7367 404.119 75.4244 407.073 72.8619C408.421 71.6143 409.478 70.0919 410.182 68.398C410.886 66.7041 411.216 64.8786 411.152 63.0456C411.22 61.2122 410.893 59.3857 410.189 57.6915C409.485 55.9972 408.421 54.4751 407.073 53.2292C404.015 50.8462 400.246 49.5525 396.366 49.5525C392.489 49.5525 388.72 50.8462 385.658 53.2292C384.284 54.458 383.199 55.975 382.482 57.6723C381.764 59.3692 381.428 61.2042 381.502 63.0456C381.421 64.8971 381.751 66.7435 382.472 68.4516C383.189 70.1596 384.277 71.6871 385.658 72.9239C388.632 75.4635 392.472 76.7529 396.376 76.5218ZM443.362 46.7781C448.62 41.1178 455.367 39.4118 463.4 39.4118V50.5155C454.67 50.5155 443.362 54.1131 443.362 65.3252V86.5396H431.56V39.5361H443.362V46.7781ZM187.471 72.9242C187.134 74.0411 186.423 75.0085 185.457 75.6636C184.491 76.3184 183.33 76.6215 182.167 76.5222C178.709 76.5222 176.522 74.2425 176.522 70.1795V50.8412H191.596V39.5361H176.522V23.6719L164.721 30.7124V39.5361H153.044V50.8412H164.643V71.7612C164.558 73.9441 164.959 76.1186 165.817 78.1274C166.675 80.1366 167.97 81.9295 169.606 83.3765C173.044 86.4153 177.52 88.0142 182.105 87.8427C184.682 87.9064 187.241 87.3985 189.598 86.3557C191.955 85.3125 194.051 83.7601 195.736 81.8103L195.969 81.5465C195.969 81.5465 187.486 72.9242 187.471 72.9242ZM503.455 72.9242C503.125 74.0415 502.417 75.0102 501.451 75.6656C500.487 76.3214 499.329 76.6239 498.167 76.5222C494.694 76.5222 492.508 74.2425 492.508 70.1795V50.8412H507.581V39.5361H492.508V23.6719H492.431L480.628 30.7124V39.5361H469.028V50.8412H480.628V71.7612C480.541 73.9441 480.942 76.1186 481.801 78.1274C482.659 80.1366 483.953 81.9295 485.59 83.3765C489.029 86.4153 493.505 88.0142 498.089 87.8427H498.167C500.74 87.902 503.29 87.3917 505.641 86.3489C507.995 85.3058 510.083 83.7561 511.768 81.8103L512 81.5465C512 81.5465 503.485 72.9242 503.455 72.9242Z" fill="#1B191B"/>
</g>
<defs>
<clipPath id="clip0_1_11917">
<rect width="512" height="117" fill="white"/>
</clipPath>
</defs>
</svg>
