<svg width="512" height="141" viewBox="0 0 512 141" fill="none" xmlns="http://www.w3.org/2000/svg">
<path d="M69.4682 6.69141C72.6115 6.69141 75.3076 8.58373 76.4908 11.2887C76.6091 11.5586 76.8718 11.7066 77.1355 11.7066C77.3237 11.7066 77.5128 11.6303 77.6488 11.4683C79.09 9.74817 81.2411 8.7187 83.5246 8.7187C84.1804 8.7187 84.8475 8.80433 85.5108 8.98119C88.5525 9.79564 90.6682 12.3274 91.1061 15.2529C91.1583 15.6029 91.4704 15.83 91.7936 15.83C91.925 15.83 92.0591 15.7919 92.1784 15.709C93.4743 14.8015 95.0208 14.3166 96.5943 14.3166C97.892 14.3166 99.2075 14.647 100.414 15.3423C103.141 16.9154 104.529 19.9079 104.194 22.8465C104.146 23.2616 104.493 23.6051 104.882 23.6051C104.957 23.6051 105.035 23.592 105.111 23.5641C105.961 23.2551 106.854 23.0996 107.747 23.0996C109.707 23.0996 111.665 23.8452 113.16 25.3401C115.387 27.5647 115.952 30.8141 114.868 33.5656C114.692 34.0115 115.04 34.4992 115.508 34.4992C115.529 34.4992 115.548 34.4983 115.568 34.4964C115.792 34.4769 116.016 34.4666 116.24 34.4666C118.889 34.4666 121.464 35.8358 122.884 38.2932C124.458 41.0176 124.162 44.3024 122.401 46.6797C122.105 47.0809 122.345 47.6738 122.837 47.7604C125.682 48.2602 128.122 50.3471 128.92 53.3191C129.735 56.3582 128.598 59.455 126.281 61.2961C125.891 61.6061 125.969 62.2409 126.422 62.4522C129.041 63.6706 130.857 66.3178 130.857 69.3941C130.857 72.5356 128.964 75.2284 126.257 76.4105C125.793 76.6135 125.689 77.2427 126.076 77.5675C128.293 79.4217 129.363 82.4496 128.566 85.4226C127.751 88.4617 125.217 90.5755 122.288 91.013C121.795 91.0865 121.546 91.6757 121.832 92.0844C123.49 94.4477 123.739 97.6478 122.199 100.313C120.779 102.769 118.205 104.138 115.557 104.138C115.268 104.138 114.977 104.122 114.688 104.089C114.663 104.086 114.637 104.084 114.613 104.084C114.154 104.084 113.808 104.561 113.97 105.006C114.959 107.717 114.371 110.873 112.192 113.048C110.697 114.543 108.739 115.288 106.78 115.288C105.822 115.288 104.864 115.11 103.96 114.754C103.88 114.722 103.798 114.708 103.717 114.708C103.336 114.708 102.992 115.043 103.028 115.454C103.281 118.328 101.895 121.224 99.228 122.763C98.0225 123.458 96.707 123.788 95.4093 123.788C93.7715 123.788 92.1616 123.263 90.8341 122.282C90.713 122.192 90.5751 122.151 90.4391 122.151C90.1223 122.151 89.813 122.373 89.7524 122.716C89.2522 125.559 87.1635 127.998 84.1888 128.793C83.5246 128.971 82.8584 129.056 82.2026 129.056C79.854 129.056 77.646 127.967 76.2048 126.157C76.0697 125.988 75.8731 125.907 75.6766 125.907C75.4213 125.907 75.167 126.043 75.0486 126.298C73.8282 128.914 71.1787 130.73 68.0997 130.73C64.9554 130.73 62.2603 128.838 61.0771 126.133C60.9588 125.863 60.6961 125.715 60.4324 125.715C60.2442 125.715 60.0551 125.791 59.9191 125.953C58.4779 127.673 56.3268 128.702 54.0433 128.702C53.3875 128.702 52.7204 128.618 52.0571 128.44C49.0154 127.625 46.8997 125.093 46.4618 122.169C46.4096 121.818 46.0975 121.591 45.7743 121.591C45.6429 121.591 45.5087 121.629 45.3895 121.713C44.0936 122.62 42.5471 123.105 40.9736 123.105C39.6759 123.105 38.3604 122.775 37.154 122.079C34.4271 120.506 33.0399 117.513 33.3744 114.574C33.4219 114.159 33.0753 113.817 32.6859 113.817C32.6104 113.817 32.5331 113.829 32.4567 113.857C31.6071 114.167 30.7136 114.321 29.8212 114.321C27.861 114.321 25.9027 113.576 24.4075 112.082C22.1809 109.856 21.6154 106.607 22.6998 103.855C22.8759 103.41 22.5275 102.922 22.0598 102.922C22.0393 102.922 22.0197 102.923 22.0002 102.925C21.7757 102.944 21.5521 102.954 21.3275 102.954C18.6789 102.954 16.1039 101.585 14.6841 99.1278C13.1097 96.4033 13.406 93.1185 15.1667 90.7412C15.463 90.34 15.2226 89.7471 14.7307 89.6605C11.8856 89.1607 9.44563 87.0738 8.64816 84.1018C7.83299 81.0627 8.96957 77.9659 11.2865 76.1257C11.6769 75.8148 11.5986 75.18 11.1458 74.9697C8.52705 73.7512 6.71039 71.104 6.71039 68.0268C6.71039 64.8862 8.60345 62.1925 11.3117 61.0104C11.7747 60.8075 11.879 60.1782 11.4915 59.8543C9.27515 58.0001 8.20471 54.9713 9.00218 51.9983C9.81735 48.9592 12.3514 46.8454 15.2795 46.4079C15.7732 46.3344 16.022 45.7452 15.7359 45.3366C14.0777 42.9732 13.8289 39.7731 15.3689 37.1092C16.7887 34.6518 19.3628 33.2836 22.0114 33.2836C22.3002 33.2836 22.5899 33.2994 22.8796 33.3329C22.9048 33.3357 22.9309 33.3366 22.956 33.3366C23.4144 33.3366 23.76 32.86 23.5979 32.4161C22.6085 29.7037 23.1973 26.5483 25.3745 24.373C26.8707 22.8781 28.829 22.1335 30.7882 22.1335C31.7459 22.1335 32.7036 22.3112 33.6082 22.6677C33.6883 22.6994 33.7703 22.7133 33.8504 22.7133C34.2324 22.7133 34.5762 22.3783 34.5398 21.9678C34.2864 19.0925 35.6727 16.1968 38.3399 14.6582C39.5454 13.9629 40.8609 13.6324 42.1586 13.6324C43.7964 13.6324 45.4072 14.1583 46.7338 15.1403C46.8549 15.2287 46.9928 15.2697 47.1288 15.2697C47.4456 15.2697 47.7549 15.0491 47.8154 14.7047C48.3157 11.862 50.4044 9.42425 53.3791 8.62748C54.0433 8.4497 54.7095 8.36499 55.3653 8.36499C57.7139 8.36499 59.9219 9.45403 61.3631 11.2635C61.4982 11.4339 61.6948 11.5148 61.8913 11.5148C62.1466 11.5148 62.4009 11.378 62.5202 11.123C63.7397 8.50648 66.3892 6.69141 69.4682 6.69141Z" fill="white"/>
<path d="M98.1625 99.6416C91.1623 99.6416 91.7116 89.7684 98.1625 89.7684C104.613 89.7684 105.163 99.6416 98.1625 99.6416ZM40.3185 99.6416C33.3183 99.6416 33.8676 89.7684 40.3185 89.7684C46.7694 89.7684 47.3187 99.6416 40.3185 99.6416ZM119.311 63.1639H116.94C112.687 63.1639 109.034 60.6243 107.4 56.9844C105.765 60.6243 102.112 63.1639 97.86 63.1639C93.607 63.1639 89.9553 60.6243 88.3205 56.9844C86.6857 60.6243 83.033 63.1639 78.78 63.1639C74.528 63.1639 70.8753 60.6243 69.2405 56.9844C67.6057 60.6243 63.953 63.1639 59.701 63.1639C55.448 63.1639 51.7962 60.6243 50.1605 56.9844C48.5257 60.6243 44.874 63.1639 40.621 63.1639C36.368 63.1639 32.7162 60.6243 31.0814 56.9844C29.4467 60.6243 25.794 63.1639 21.541 63.1639H19.1964C15.6393 66.9873 17.8957 70.2175 26.68 70.2175V89.8518C26.68 108.304 47.9487 117.53 69.2173 117.53C90.486 117.53 111.755 108.304 111.755 89.8518V70.2175C120.546 70.2175 122.841 66.9873 119.311 63.1639Z" fill="#2F2F2F"/>
<path d="M69.922 0C66.8074 0 63.8264 0.975085 61.351 2.68983C59.6318 2.02061 57.7818 1.66654 55.8771 1.66654C54.5643 1.66654 53.2524 1.83987 51.9776 2.18096C48.965 2.98736 46.3348 4.70395 44.3864 7.00541C43.8353 6.94331 43.2805 6.9118 42.7247 6.9118C40.0944 6.9118 37.4957 7.60882 35.2106 8.92685C32.5107 10.484 30.4157 12.8207 29.1298 15.5457C25.9735 16.0203 23.0611 17.482 20.7621 19.7788C18.5539 21.9839 17.1354 24.7868 16.6009 27.7556C13.7118 29.0264 11.2392 31.1897 9.61747 33.9973C8.05786 36.6955 7.41304 39.7662 7.66447 42.7693C5.2114 44.7316 3.38365 47.452 2.53565 50.6117C1.72847 53.6223 1.90104 56.7551 2.92161 59.5914C1.06139 62.1209 0 65.2223 0 68.4923C0 71.6085 0.977891 74.5894 2.69894 77.0651C1.55683 79.9894 1.33509 83.2585 2.18216 86.4192C2.99027 89.4288 4.70761 92.0547 7.01038 94.0012C6.66524 97.1211 7.298 100.336 8.93554 103.17C10.4905 105.862 12.8276 107.962 15.5637 109.249C16.0396 112.351 17.4833 115.293 19.7981 117.605C22.0035 119.808 24.772 121.242 27.7808 121.775C29.0445 124.643 31.1988 127.105 34.0295 128.738C36.3156 130.057 38.9143 130.754 41.5446 130.754C41.9723 130.754 42.3972 130.736 42.8194 130.7C44.7826 133.145 47.5028 134.968 50.661 135.813C51.9358 136.154 53.2477 136.327 54.5605 136.327C56.3233 136.327 58.0472 136.021 59.6643 135.439C62.1935 137.29 65.2923 138.346 68.559 138.346C71.6736 138.346 74.6546 137.371 77.13 135.656C78.8492 136.327 80.7001 136.68 82.6039 136.68C83.9167 136.68 85.2286 136.507 86.5034 136.165C89.516 135.359 92.1462 133.642 94.0937 131.341C94.6457 131.403 95.2005 131.434 95.7563 131.434C98.3866 131.434 100.985 130.737 103.27 129.419C105.971 127.862 108.065 125.526 109.351 122.8C112.508 122.326 115.42 120.864 117.719 118.567C119.926 116.362 121.345 113.559 121.88 110.591C124.769 109.321 127.242 107.157 128.864 104.35C130.423 101.652 131.068 98.5809 130.817 95.5778C133.27 93.6156 135.097 90.8952 135.945 87.7345C136.753 84.724 136.58 81.5911 135.559 78.7557C137.42 76.2253 138.481 73.1249 138.481 69.8539C138.481 66.7386 137.502 63.7568 135.782 61.2821C136.924 58.3577 137.146 55.0877 136.298 51.927C135.491 48.9174 133.773 46.2915 131.471 44.3451C131.816 41.2252 131.183 38.0098 129.545 35.1763C127.99 32.4846 125.653 30.3852 122.917 29.0968C122.441 25.9955 120.998 23.0545 118.683 20.7419C116.478 18.5387 113.709 17.1038 110.7 16.5718C109.437 13.704 107.283 11.2413 104.452 9.60811C102.166 8.29008 99.5676 7.59306 96.9373 7.59306C96.5096 7.59306 96.0838 7.61067 95.6616 7.64589C93.6984 5.20169 90.9781 3.3785 87.82 2.53318C86.5452 2.19209 85.2333 2.01876 83.9214 2.01876C82.1577 2.01876 80.4338 2.32556 78.8167 2.90857C76.2875 1.05665 73.1887 0 69.922 0ZM69.922 7.4151C73.0523 7.4151 75.7374 9.29946 76.9156 11.993C77.0335 12.2618 77.2951 12.4092 77.5577 12.4092C77.7451 12.4092 77.9334 12.3332 78.0689 12.1719C79.5042 10.459 81.6464 9.43386 83.9205 9.43386C84.5736 9.43386 85.2379 9.51913 85.8985 9.69524C88.9277 10.5063 91.0348 13.0274 91.4708 15.9406C91.5228 16.2891 91.8336 16.5153 92.1555 16.5153C92.2863 16.5153 92.4199 16.4773 92.5387 16.3948C93.8293 15.4911 95.3694 15.0082 96.9364 15.0082C98.2288 15.0082 99.5389 15.3372 100.74 16.0296C103.456 17.596 104.838 20.576 104.504 23.5021C104.457 23.9155 104.802 24.2576 105.19 24.2576C105.265 24.2576 105.342 24.2446 105.418 24.2168C106.264 23.909 107.154 23.7543 108.043 23.7543C109.995 23.7543 111.945 24.4967 113.434 25.9853C115.652 28.2005 116.215 31.4363 115.135 34.1762C114.96 34.6202 115.307 35.1058 115.772 35.1058C115.793 35.1058 115.812 35.1049 115.832 35.1031C116.055 35.0836 116.278 35.0734 116.502 35.0734C119.139 35.0734 121.704 36.4369 123.118 38.8838C124.686 41.5968 124.391 44.8678 122.637 47.2351C122.342 47.6346 122.581 48.225 123.071 48.3112C125.905 48.8089 128.335 50.887 129.129 53.8466C129.941 56.8729 128.809 59.9566 126.501 61.79C126.113 62.0986 126.191 62.7308 126.641 62.9412C129.249 64.1545 131.059 66.7905 131.059 69.8539C131.059 72.9821 129.173 75.6636 126.477 76.8408C126.015 77.0428 125.911 77.6694 126.297 77.9929C128.504 79.8393 129.571 82.8544 128.776 85.8149C127.965 88.8412 125.441 90.9461 122.525 91.3818C122.033 91.455 121.785 92.0417 122.07 92.4486C123.722 94.802 123.969 97.9886 122.436 100.642C121.022 103.088 118.458 104.452 115.821 104.452C115.533 104.452 115.244 104.435 114.956 104.403C114.931 104.4 114.905 104.398 114.881 104.398C114.423 104.398 114.079 104.873 114.241 105.316C115.226 108.016 114.64 111.158 112.47 113.324C110.981 114.813 109.031 115.555 107.08 115.555C106.126 115.555 105.172 115.377 104.272 115.023C104.192 114.991 104.11 114.977 104.03 114.977C103.65 114.977 103.308 115.31 103.344 115.72C103.596 118.582 102.216 121.466 99.5593 122.998C98.3587 123.69 97.0487 124.019 95.7563 124.019C94.1252 124.019 92.522 123.496 91.1999 122.519C91.0793 122.43 90.942 122.389 90.8065 122.389C90.4911 122.389 90.183 122.61 90.1227 122.952C89.6245 125.782 87.5444 128.211 84.582 129.003C83.9205 129.18 83.2571 129.265 82.6039 129.265C80.265 129.265 78.0661 128.18 76.6308 126.378C76.4963 126.21 76.3005 126.129 76.1048 126.129C75.8505 126.129 75.5973 126.264 75.4794 126.518C74.264 129.124 71.6254 130.931 68.559 130.931C65.4277 130.931 62.7437 129.048 61.5654 126.354C61.4475 126.085 61.1859 125.938 60.9233 125.938C60.7359 125.938 60.5476 126.013 60.4121 126.174C58.9768 127.887 56.8346 128.912 54.5605 128.912C53.9074 128.912 53.2431 128.828 52.5825 128.651C49.5533 127.84 47.4463 125.319 47.0102 122.407C46.9582 122.057 46.6474 121.831 46.3255 121.831C46.1947 121.831 46.0611 121.869 45.9423 121.952C44.6517 122.856 43.1116 123.339 41.5446 123.339C40.2522 123.339 38.9421 123.01 37.7406 122.317C35.025 120.75 33.6435 117.77 33.9766 114.844C34.0239 114.431 33.6788 114.09 33.291 114.09C33.2158 114.09 33.1388 114.102 33.0627 114.129C32.2166 114.438 31.3268 114.592 30.438 114.592C28.4859 114.592 26.5357 113.85 25.0466 112.362C22.8292 110.146 22.266 106.91 23.346 104.17C23.5213 103.727 23.1743 103.24 22.7086 103.24C22.6882 103.24 22.6687 103.241 22.6492 103.243C22.4256 103.263 22.2029 103.273 21.9793 103.273C19.3416 103.273 16.7772 101.909 15.3633 99.4624C13.7953 96.7494 14.0903 93.4784 15.8439 91.1111C16.1389 90.7116 15.8995 90.1212 15.4097 90.035C12.5762 89.5373 10.1463 87.4592 9.35212 84.4996C8.54031 81.4734 9.67221 78.3896 11.9796 76.5572C12.3684 76.2476 12.2904 75.6154 11.8395 75.406C9.23151 74.1927 7.42232 71.5566 7.42232 68.4923C7.42232 65.365 9.30759 62.6826 12.0047 61.5054C12.4658 61.3034 12.5697 60.6768 12.1837 60.3542C9.97653 58.5079 8.91049 55.4918 9.70468 52.5313C10.5165 49.505 13.0401 47.4001 15.9561 46.9644C16.4479 46.8912 16.6956 46.3045 16.4107 45.8976C14.7593 43.5442 14.5116 40.3576 16.0452 37.7048C17.4592 35.2579 20.0226 33.8953 22.6603 33.8953C22.948 33.8953 23.2365 33.9111 23.525 33.9445C23.5501 33.9472 23.5761 33.9482 23.6011 33.9482C24.0576 33.9482 24.4018 33.4736 24.2404 33.0315C23.2551 30.3305 23.8414 27.1884 26.0097 25.0222C27.4997 23.5337 29.4499 22.7922 31.4011 22.7922C32.3548 22.7922 33.3086 22.9692 34.2095 23.3242C34.2893 23.3557 34.3709 23.3696 34.4507 23.3696C34.8311 23.3696 35.1734 23.0359 35.1373 22.6272C34.8849 19.764 36.2655 16.8805 38.9217 15.3483C40.1223 14.6559 41.4323 14.3269 42.7247 14.3269C44.3558 14.3269 45.9599 14.8506 47.2811 15.8284C47.4017 15.9165 47.539 15.9573 47.6745 15.9573C47.9899 15.9573 48.298 15.7376 48.3583 15.3947C48.8565 12.564 50.9366 10.1364 53.899 9.34302C54.5605 9.16599 55.2239 9.08164 55.8771 9.08164C58.216 9.08164 60.4149 10.1661 61.8502 11.968C61.9847 12.1376 62.1805 12.2182 62.3762 12.2182C62.6305 12.2182 62.8837 12.082 63.0025 11.828C64.217 9.22252 66.8556 7.4151 69.922 7.4151Z" fill="#2F2F2F"/>
<path d="M192.38 93.4278C193.456 93.4278 194.368 93.8459 195.115 94.6822C195.862 95.5184 196.236 96.5936 196.236 97.9078C196.236 99.2219 195.743 100.297 194.756 101.133C193.77 101.97 192.499 102.388 190.945 102.388H189.331C186.401 102.388 183.726 101.626 181.305 100.103C178.883 98.5797 176.985 96.504 175.61 93.8758C174.235 91.2475 173.547 88.2907 173.547 85.0054V62.8742H169.422C168.167 62.8742 167.15 62.5158 166.373 61.799C165.596 61.0822 165.207 60.1862 165.207 59.111C165.207 57.9163 165.596 56.9606 166.373 56.2438C167.15 55.527 168.167 55.1686 169.422 55.1686H173.547V42.2662C173.547 40.952 173.966 39.8768 174.803 39.0406C175.64 38.2043 176.716 37.7862 178.031 37.7862C179.347 37.7862 180.423 38.2043 181.26 39.0406C182.097 39.8768 182.515 40.952 182.515 42.2662V55.1686H190.138C191.393 55.1686 192.41 55.527 193.187 56.2438C193.964 56.9606 194.353 57.9163 194.353 59.111C194.353 60.1862 193.964 61.0822 193.187 61.799C192.41 62.5158 191.393 62.8742 190.138 62.8742H182.515V85.0054C182.515 87.3947 183.173 89.3957 184.488 91.0086C185.803 92.6214 187.418 93.4278 189.331 93.4278H192.38ZM226.547 53.0182C231.151 53.0182 235.321 54.1083 239.058 56.2886C242.794 58.4688 245.754 61.4555 247.936 65.2486C250.118 69.0416 251.209 73.2677 251.209 77.927V97.9078C251.209 99.2219 250.776 100.312 249.909 101.178C249.042 102.044 247.951 102.477 246.636 102.477C245.32 102.477 244.229 102.044 243.362 101.178C242.495 100.312 242.062 99.2219 242.062 97.9078V94.5926C239.969 97.1611 237.429 99.1622 234.439 100.596C231.45 102.029 228.222 102.746 224.754 102.746C220.449 102.746 216.548 101.671 213.051 99.5206C209.553 97.3701 206.803 94.3984 204.8 90.6054C202.798 86.8123 201.796 82.5862 201.796 77.927C201.796 73.2677 202.872 69.0416 205.025 65.2486C207.177 61.4555 210.151 58.4688 213.948 56.2886C217.744 54.1083 221.944 53.0182 226.547 53.0182ZM226.547 94.6822C229.537 94.6822 232.242 93.9504 234.663 92.487C237.085 91.0235 238.983 89.0224 240.358 86.4838C241.733 83.9451 242.421 81.0928 242.421 77.927C242.421 74.7611 241.733 71.8939 240.358 69.3254C238.983 66.7568 237.085 64.7408 234.663 63.2774C232.242 61.8139 229.537 61.0822 226.547 61.0822C223.558 61.0822 220.853 61.8139 218.432 63.2774C216.01 64.7408 214.097 66.7568 212.692 69.3254C211.287 71.8939 210.585 74.7611 210.585 77.927C210.585 81.0928 211.287 83.9451 212.692 86.4838C214.097 89.0224 216.01 91.0235 218.432 92.487C220.853 93.9504 223.558 94.6822 226.547 94.6822ZM279.548 102.746C275.482 102.746 271.656 102.119 268.069 100.865C264.482 99.6102 261.672 97.9675 259.639 95.9366C258.862 95.16 258.473 94.2342 258.473 93.159C258.473 91.7253 259.071 90.5606 260.267 89.6646C261.403 88.8283 262.449 88.4102 263.405 88.4102C264.601 88.4102 265.737 88.9478 266.813 90.023C267.949 91.2774 269.653 92.3675 271.925 93.2934C274.197 94.2192 276.618 94.6822 279.189 94.6822C282.597 94.6822 285.242 94.1147 287.125 92.9798C289.009 91.8448 289.95 90.3216 289.95 88.4102C289.95 86.5584 289.024 85.0203 287.17 83.7958C285.317 82.5712 282.178 81.5408 277.754 80.7046C266.275 78.4944 260.536 73.7755 260.536 66.5478C260.536 63.6208 261.403 61.1419 263.136 59.111C264.87 57.08 267.142 55.5568 269.952 54.5414C272.762 53.5259 275.751 53.0182 278.92 53.0182C282.806 53.0182 286.288 53.6454 289.367 54.8998C292.446 56.1542 294.883 57.8864 296.676 60.0966C297.453 61.0523 297.842 62.008 297.842 62.9638C297.842 63.9792 297.334 64.9051 296.318 65.7414C295.66 66.2192 294.823 66.4582 293.807 66.4582C292.252 66.4582 290.847 65.8907 289.592 64.7558C288.097 63.3819 286.513 62.4112 284.839 61.8438C283.165 61.2763 281.132 60.9926 278.741 60.9926C275.99 60.9926 273.733 61.4555 271.97 62.3814C270.206 63.3072 269.324 64.6064 269.324 66.279C269.324 67.4736 269.623 68.4742 270.221 69.2806C270.819 70.087 271.955 70.8336 273.629 71.5206C275.303 72.2075 277.724 72.8795 280.893 73.5366C287.409 74.8507 292.028 76.6725 294.748 79.0022C297.468 81.3318 298.829 84.3483 298.829 88.0518C298.829 90.7995 298.081 93.2934 296.587 95.5334C295.092 97.7734 292.895 99.5355 289.995 100.82C287.096 102.104 283.613 102.746 279.548 102.746ZM344.296 95.9366C344.953 96.6534 345.282 97.5494 345.282 98.6246C345.282 99.9387 344.744 101.044 343.668 101.94C342.771 102.657 341.815 103.015 340.798 103.015C339.483 103.015 338.407 102.477 337.57 101.402L320.531 80.3462L316.047 84.2886V97.9974C316.047 99.3115 315.643 100.372 314.836 101.178C314.029 101.985 312.968 102.388 311.653 102.388C310.337 102.388 309.276 101.985 308.469 101.178C307.662 100.372 307.258 99.3115 307.258 97.9974V36.8006C307.258 35.4864 307.662 34.4262 308.469 33.6198C309.276 32.8134 310.337 32.4102 311.653 32.4102C312.968 32.4102 314.029 32.8134 314.836 33.6198C315.643 34.4262 316.047 35.4864 316.047 36.8006V73.2678L337.839 53.8246C338.616 53.048 339.543 52.6598 340.619 52.6598C341.874 52.6598 342.891 53.1376 343.668 54.0934C344.445 54.8699 344.834 55.7958 344.834 56.871C344.834 58.1254 344.355 59.1408 343.399 59.9174L326.898 74.6118L344.296 95.9366ZM372.903 53.0182C377.507 53.0182 381.677 54.1083 385.413 56.2886C389.15 58.4688 392.109 61.4555 394.292 65.2486C396.474 69.0416 397.565 73.2677 397.565 77.927V97.9078C397.565 99.2219 397.131 100.312 396.265 101.178C395.398 102.044 394.307 102.477 392.991 102.477C391.676 102.477 390.585 102.044 389.718 101.178C388.851 100.312 388.418 99.2219 388.418 97.9078V94.5926C386.325 97.1611 383.784 99.1622 380.795 100.596C377.806 102.029 374.577 102.746 371.11 102.746C366.805 102.746 362.904 101.671 359.407 99.5206C355.909 97.3701 353.159 94.3984 351.156 90.6054C349.153 86.8123 348.152 82.5862 348.152 77.927C348.152 73.2677 349.228 69.0416 351.38 65.2486C353.533 61.4555 356.507 58.4688 360.303 56.2886C364.1 54.1083 368.3 53.0182 372.903 53.0182ZM372.903 94.6822C375.892 94.6822 378.598 93.9504 381.019 92.487C383.44 91.0235 385.339 89.0224 386.714 86.4838C388.089 83.9451 388.776 81.0928 388.776 77.927C388.776 74.7611 388.089 71.8939 386.714 69.3254C385.339 66.7568 383.44 64.7408 381.019 63.2774C378.598 61.8139 375.892 61.0822 372.903 61.0822C369.914 61.0822 367.209 61.8139 364.787 63.2774C362.366 64.7408 360.453 66.7568 359.048 69.3254C357.643 71.8939 356.94 74.7611 356.94 77.927C356.94 81.0928 357.643 83.9451 359.048 86.4838C360.453 89.0224 362.366 91.0235 364.787 92.487C367.209 93.9504 369.914 94.6822 372.903 94.6822ZM450.386 32.4102C451.761 32.4102 452.867 32.8283 453.704 33.6646C454.541 34.5008 454.959 35.6059 454.959 36.9798V77.8374C454.959 82.4966 453.868 86.7227 451.686 90.5158C449.504 94.3088 446.544 97.2955 442.808 99.4758C439.071 101.656 434.901 102.746 430.298 102.746C425.694 102.746 421.494 101.656 417.698 99.4758C413.901 97.2955 410.927 94.3088 408.775 90.5158C406.622 86.7227 405.546 82.4966 405.546 77.8374C405.546 73.1781 406.548 68.952 408.55 65.159C410.553 61.3659 413.303 58.3942 416.801 56.2438C420.298 54.0933 424.199 53.0182 428.504 53.0182C431.972 53.0182 435.2 53.7349 438.189 55.1686C441.179 56.6022 443.719 58.6032 445.812 61.1718V36.9798C445.812 35.6059 446.245 34.5008 447.112 33.6646C447.979 32.8283 449.07 32.4102 450.386 32.4102ZM430.298 94.6822C433.287 94.6822 435.992 93.9504 438.414 92.487C440.835 91.0235 442.733 89.0075 444.108 86.439C445.483 83.8704 446.171 81.0032 446.171 77.8374C446.171 74.6715 445.483 71.8192 444.108 69.2806C442.733 66.7419 440.835 64.7408 438.414 63.2774C435.992 61.8139 433.287 61.0822 430.298 61.0822C427.308 61.0822 424.603 61.8139 422.182 63.2774C419.76 64.7408 417.847 66.7419 416.442 69.2806C415.037 71.8192 414.335 74.6715 414.335 77.8374C414.335 81.0032 415.037 83.8704 416.442 86.439C417.847 89.0075 419.76 91.0235 422.182 92.487C424.603 93.9504 427.308 94.6822 430.298 94.6822ZM511.995 77.1206C511.995 78.2555 511.606 79.1963 510.829 79.943C510.052 80.6896 509.065 81.063 507.87 81.063H473.792C474.449 85.2443 476.348 88.6192 479.486 91.1878C482.625 93.7563 486.466 95.0406 491.01 95.0406C492.804 95.0406 494.672 94.712 496.615 94.055C498.558 93.3979 500.157 92.5915 501.413 91.6358C502.25 90.9787 503.236 90.6502 504.372 90.6502C505.508 90.6502 506.405 90.9488 507.063 91.5462C508.139 92.4422 508.677 93.4576 508.677 94.5926C508.677 95.6678 508.199 96.5638 507.242 97.2806C505.209 98.8934 502.683 100.207 499.664 101.223C496.645 102.238 493.76 102.746 491.01 102.746C486.108 102.746 481.713 101.686 477.827 99.5654C473.941 97.4448 470.907 94.503 468.725 90.7398C466.543 86.9765 465.452 82.7057 465.452 77.927C465.452 73.1483 466.483 68.8624 468.546 65.0694C470.608 61.2763 473.478 58.3195 477.155 56.199C480.832 54.0784 485.002 53.0182 489.665 53.0182C494.268 53.0182 498.244 54.0336 501.592 56.0646C504.94 58.0955 507.511 60.9328 509.305 64.5766C511.098 68.2203 511.995 72.4016 511.995 77.1206ZM489.665 60.7238C485.301 60.7238 481.758 61.9184 479.038 64.3078C476.318 66.6971 474.599 69.8928 473.881 73.895H503.745C503.206 69.8928 501.712 66.6971 499.261 64.3078C496.809 61.9184 493.611 60.7238 489.665 60.7238Z" fill="black"/>
</svg>
