<svg width="256" height="389" viewBox="0 0 256 389" fill="none" xmlns="http://www.w3.org/2000/svg">
<g clip-path="url(#clip0_1_11933)">
<path opacity="0.39" d="M126.1 387.901C175.806 387.901 216.1 382.17 216.1 375.101C216.1 368.032 175.806 362.301 126.1 362.301C76.3944 362.301 36.1 368.032 36.1 375.101C36.1 382.17 76.3944 387.901 126.1 387.901Z" fill="url(#paint0_linear_1_11933)"/>
<path opacity="0.46" d="M158.6 368.102C146.1 368.102 134.8 368.802 126.1 369.902C117.4 368.802 106 368.102 93.6 368.102C66.2 368.102 44 371.302 44 375.202C44 379.102 66.2 382.302 93.6 382.302C106.1 382.302 117.4 381.702 126.1 380.502C134.8 381.602 146.2 382.302 158.6 382.302C186 382.302 208.2 379.102 208.2 375.202C208.1 371.302 186 368.102 158.6 368.102Z" fill="url(#paint1_linear_1_11933)"/>
<path d="M223.4 122.5C230.524 122.5 236.3 118.023 236.3 112.5C236.3 106.977 230.524 102.5 223.4 102.5C216.276 102.5 210.5 106.977 210.5 112.5C210.5 118.023 216.276 122.5 223.4 122.5Z" fill="url(#paint2_radial_1_11933)"/>
<path d="M234.8 109.898C234.8 109.898 227.5 103.398 221.3 109.398C221.3 109.398 226.3 110.698 225.8 113.798C225.3 116.898 221.1 117.998 221.1 117.998C221.1 117.998 235.6 122.098 234.8 109.898Z" fill="url(#paint3_linear_1_11933)"/>
<path d="M225.8 113.798C226.3 110.698 221.3 109.398 221.3 109.398C227.6 103.398 234.8 109.898 234.8 109.898L234.9 110.498C232.2 109.798 225.4 108.898 226.5 118.598C223.6 118.698 221 117.898 221 117.898C221 117.898 225.3 116.798 225.8 113.798Z" fill="#7F1E0B"/>
<path d="M28.5 122.5C35.6245 122.5 41.4 118.023 41.4 112.5C41.4 106.977 35.6245 102.5 28.5 102.5C21.3756 102.5 15.6 106.977 15.6 112.5C15.6 118.023 21.3756 122.5 28.5 122.5Z" fill="url(#paint4_radial_1_11933)"/>
<path d="M17 109.898C17 109.898 24.3 103.398 30.5 109.398C30.5 109.398 25.5 110.698 26 113.798C26.5 116.898 30.7 117.998 30.7 117.998C30.7 117.998 16.2 122.098 17 109.898Z" fill="url(#paint5_linear_1_11933)"/>
<path d="M26 113.798C25.5 110.698 30.5 109.398 30.5 109.398C24.2 103.398 17 109.898 17 109.898L16.9 110.498C19.6 109.798 26.4 108.898 25.3 118.598C28.2 118.698 30.8 117.898 30.8 117.898C30.8 117.898 26.6 116.798 26 113.798Z" fill="#7F1E0B"/>
<path d="M124.7 13.2016C124.7 13.2016 55.5 6.60156 37.6 102.802C19.7 199.002 -19.6 223.702 11.7 266.802C11.7 266.802 11.7 322.802 58.8 370.402C58.8 370.402 76.9 385.102 89.6 366.802C102.4 348.402 119.7 338.002 134.4 341.802C149.1 345.602 162.7 364.202 168.3 370.302C173.9 376.402 197.3 395.502 226.9 315.002C226.9 315.002 282.4 284.402 240.4 197.902C240.4 197.902 224.3 161.002 215.9 108.302C207.4 55.8016 181 14.0016 124.7 13.2016Z" fill="url(#paint6_radial_1_11933)"/>
<path opacity="0.7" d="M240.3 197.999C240.3 197.999 224.2 161.099 215.8 108.399C209.2 67.1992 191.6 32.6992 157.3 19.1992C170.9 29.4992 168.9 43.9992 168.9 43.9992C137.9 41.0992 129.2 75.2992 129.2 75.2992C129.2 75.2992 132.7 46.3992 131.6 46.6992C130.4 46.9992 126.9 70.9992 126.9 70.9992L125.4 59.5992L124.8 70.9992L119.6 48.9992L123.4 76.7992C117.2 37.7992 78.1 44.6992 78.1 44.6992C76.5 33.1992 86.7 24.0992 96.3 18.1992C75 26.2992 47.9 47.6992 37.6 102.899C19.8 199.099 -19.7 223.699 11.6 266.799C11.6 266.799 11.6 322.799 58.7 370.399C58.7 370.399 76.8 385.099 89.5 366.799C102.3 348.399 119.6 337.999 134.3 341.799C149 345.599 162.6 364.199 168.2 370.299C173.8 376.399 197.2 395.499 226.8 314.999C226.8 315.099 282.3 284.499 240.3 197.999Z" fill="url(#paint7_linear_1_11933)"/>
<path d="M119.7 71.3C119.7 71.3 114 46.5 88 46.5C62 46.5 56.3 81.7 56.3 81.7C56.3 81.7 56.3 102 81.1 106.7C81.1 106.7 69.0001 102.3 62.7001 92.9C62.7001 92.9 68.7 97.7 83 98.4C83 98.4 60.8001 93.6 57.7001 81.8C57.7001 81.8 63.5 49.4 88.1 48.5C112.8 47.5 119.7 71.3 119.7 71.3Z" fill="#AD1813"/>
<path d="M119.8 84.6985L119.3 85.3985C119.3 85.3985 119.8 54.7985 91.5 53.3985C63.2001 51.8985 58.8 81.6985 58.8 81.6985C58.8 81.6985 59.6 89.3985 86.6 90.8985C103.5 91.7985 112 89.3985 116 87.4985C118.6 86.6985 118.6 88.5985 118.6 88.5985C110.2 96.6985 91.1 99.1985 91.1 99.1985C106.9 99.9985 116.2 94.3985 116.2 94.3985C111 103.499 96.5 106.999 96.5 106.999C116.9 106.799 122.1 88.7985 122.1 88.7985L119.8 84.6985Z" fill="#AD1813"/>
<path d="M59.6 81.7984C59.6 81.7984 65.6 52.4984 92 54.2984C118.4 56.0984 118.9 85.3984 118.9 85.3984C118.9 85.3984 109.5 90.8984 86.1 88.9984C62.5 86.8984 59.6 81.7984 59.6 81.7984Z" fill="url(#paint8_linear_1_11933)"/>
<path d="M109.5 62.0008C106 60.2008 102.1 59.3008 98 59.3008C83.9 59.3008 72.5 70.7008 72.5 84.8008C72.5 85.6008 72.6 86.4008 72.6 87.2008C76.1 87.9008 80.4 88.5008 85.8 89.0008C109.3 91.0008 118.6 85.4008 118.6 85.4008C118.6 85.4008 118.4 71.1008 109.5 62.0008Z" fill="url(#paint9_radial_1_11933)"/>
<path d="M134.2 70.4984C134.2 70.4984 139.7 46.3984 165 46.3984C190.3 46.3984 195.8 80.5984 195.8 80.5984C195.8 80.5984 195.8 100.298 171.7 104.798C171.7 104.798 183.4 100.598 189.5 91.3984C189.5 91.3984 183.7 96.0984 169.8 96.6984C169.8 96.6984 191.4 91.9984 194.3 80.5984C194.3 80.5984 188.7 49.1984 164.8 48.2984C140.9 47.4984 134.2 70.4984 134.2 70.4984Z" fill="#AD1813"/>
<path d="M134.1 83.4985L134.6 84.0985C134.6 84.0985 134.1 54.3985 161.6 52.9985C189.1 51.5985 193.3 80.4985 193.3 80.4985C193.3 80.4985 192.5 87.9985 166.3 89.3985C149.9 90.2985 141.7 87.9985 137.7 86.0985C135.2 85.2985 135.1 87.1985 135.1 87.1985C143.2 94.9985 161.8 97.4985 161.8 97.4985C146.5 98.2985 137.4 92.7985 137.4 92.7985C142.6 101.698 156.6 105.198 156.6 105.198C136.8 104.998 131.8 87.4985 131.8 87.4985L134.1 83.4985Z" fill="#AD1813"/>
<path d="M192.6 80.6992C192.6 80.6992 186.8 52.2992 161.2 53.9992C135.6 55.6992 135.1 84.1992 135.1 84.1992C135.1 84.1992 144.2 89.4992 167 87.6992C189.8 85.6992 192.6 80.6992 192.6 80.6992Z" fill="url(#paint10_linear_1_11933)"/>
<path d="M144.1 61.5008C147.5 59.8008 151.2 58.8008 155.2 58.8008C168.8 58.8008 180 69.9008 180 83.6008C180 84.4008 179.9 85.1008 179.9 85.9008C176.5 86.6008 172.3 87.2008 167.1 87.6008C144.3 89.5008 135.2 84.1008 135.2 84.1008C135.2 84.1008 135.4 70.4008 144.1 61.5008Z" fill="url(#paint11_radial_1_11933)"/>
<path d="M66.6 111.501C66.6 111.501 124.4 120.801 180.2 104.701C236 88.6006 183.4 204.301 135.2 205.701C86.9 207.101 61.5 172.101 50.7 133.701C50.6 133.701 41.8 106.501 66.6 111.501Z" fill="url(#paint12_linear_1_11933)"/>
<path d="M66.6 110.998C66.6 110.998 124.4 119.798 180.2 104.598C236 89.4984 183.4 198.898 135.2 200.198C86.9 201.498 61.4 168.398 50.6 131.998C50.6 131.998 41.8 106.398 66.6 110.998Z" fill="url(#paint13_radial_1_11933)"/>
<path d="M71.9 119.2C71.9 119.2 133.5 131.9 178.9 112.3C178.9 112.3 192.6 105.4 196.9 113.4C201.2 121.4 177.6 185.9 131.3 188.4C85 191 67.6 150.9 59.3 132.2C59.3 132.2 55.7 123.5 60 120C63.1 117.4 64.6 117.7 71.9 119.2Z" fill="url(#paint14_radial_1_11933)"/>
<path d="M71.9 119.2C71.9 119.2 133.5 131.9 178.9 112.3C178.9 112.3 192.6 105.4 196.9 113.4C201.2 121.4 177.6 185.9 131.3 188.4C85 191 67.6 150.9 59.3 132.2C59.3 132.2 55.7 123.5 60 120C63.1 117.4 64.6 117.7 71.9 119.2Z" fill="#590D00"/>
<path opacity="0.7" d="M110.8 138.9C122.6 135.2 136.5 133.1 151.9 134.6C155.1 127.6 154.2 122.1 153.6 120C147.4 121.2 141.2 122.1 135 122.6C136.5 126.3 133.9 129.9 128.3 129.4C123 128.9 123.4 125.3 124.2 123.2C117.9 123.4 111.9 123.4 106.3 123.1C103.2 133 108.5 137.5 110.8 138.9Z" fill="#250000"/>
<path d="M94.9 122.298C83.7 121.298 75.6 119.898 72.9 119.398C72.8 122.298 73.6 131.598 83.9 132.698C92.3 133.598 94.4 126.698 94.9 122.298Z" fill="url(#paint15_linear_1_11933)"/>
<path d="M178.8 112.402C173.9 114.502 168.8 116.302 163.6 117.702C164.4 121.002 167.4 127.402 173.3 127.302C180.8 127.102 185.8 118.102 185.9 110.102C182.1 110.802 178.8 112.402 178.8 112.402Z" fill="url(#paint16_linear_1_11933)"/>
<path d="M173.609 165.492C173.409 165.692 173.309 165.792 173.109 165.992C175.309 168.592 177.809 170.792 179.809 172.392C180.009 172.192 180.109 171.992 180.209 171.892C178.209 170.392 175.709 168.192 173.609 165.492Z" fill="#E04C89"/>
<path d="M194.209 110.693C194.409 110.793 194.609 110.993 194.809 111.093C195.809 109.493 197.009 107.393 197.809 105.093C197.609 104.993 197.409 104.893 197.209 104.793C196.409 107.093 195.309 109.193 194.209 110.693Z" fill="#E04C89"/>
<path d="M181.109 111.393C181.309 111.293 181.509 111.193 181.809 111.093C181.609 108.593 181.309 106.193 181.109 104.293C180.909 104.393 180.709 104.393 180.409 104.493C180.609 106.493 180.909 108.993 181.109 111.393Z" fill="#E04C89"/>
<path d="M188.609 143.191C188.509 143.391 188.409 143.591 188.309 143.791C191.909 146.191 194.309 147.191 196.109 147.491C196.209 147.291 196.309 147.091 196.409 146.891C194.709 146.591 192.209 145.591 188.609 143.191Z" fill="#E04C89"/>
<path d="M155.109 119.593C155.309 119.493 155.509 119.493 155.809 119.393L155.009 109.793C154.809 109.893 154.509 109.893 154.309 109.893L155.109 119.593Z" fill="#E04C89"/>
<path d="M142.709 121.592C142.909 121.492 143.209 121.492 143.409 121.492L142.509 111.492C142.309 111.492 142.009 111.592 141.809 111.592L142.709 121.592Z" fill="#E04C89"/>
<path d="M161.509 176.793C161.309 176.993 161.109 177.093 160.909 177.193C162.009 179.993 163.709 183.293 166.409 186.093C166.609 185.893 166.809 185.793 166.909 185.693C164.209 182.893 162.509 179.493 161.509 176.793Z" fill="#E04C89"/>
<path d="M182.109 154.395C181.909 154.595 181.809 154.795 181.709 154.995C183.209 156.895 185.409 159.395 188.309 161.195C188.409 160.995 188.609 160.795 188.709 160.595C185.809 158.795 183.509 156.295 182.109 154.395Z" fill="#E04C89"/>
<path d="M168.709 116.093C168.909 115.993 169.109 115.893 169.409 115.893L169.009 107.293C168.809 107.393 168.509 107.393 168.309 107.493L168.709 116.093Z" fill="#E04C89"/>
<path d="M127.309 122.995L126.909 112.895C126.709 112.895 126.409 112.895 126.209 112.995L126.609 123.095C126.809 122.995 127.109 122.995 127.309 122.995Z" fill="#E04C89"/>
<path d="M196.509 122.191C196.409 122.391 196.409 122.691 196.309 122.891C200.209 122.391 202.609 120.891 204.109 119.191V118.191C202.809 119.891 200.609 121.591 196.509 122.191Z" fill="#E04C89"/>
<path d="M193.509 131.992C193.409 132.192 193.409 132.392 193.209 132.592C194.709 133.392 197.609 134.392 201.409 134.092C201.509 133.892 201.509 133.592 201.609 133.392C197.809 133.792 195.009 132.692 193.509 131.992Z" fill="#E04C89"/>
<path d="M81.4089 120.695C81.7089 120.795 81.9089 120.795 82.1089 120.795C81.3089 117.795 81.0089 114.995 80.8089 112.495C80.6089 112.495 80.3089 112.395 80.1089 112.395C80.3089 114.995 80.6089 117.795 81.4089 120.695Z" fill="#E04C89"/>
<path d="M63.609 118.093C63.909 117.993 64.109 117.993 64.409 117.993C63.209 116.393 61.909 113.893 61.409 110.293H60.709C61.209 113.893 62.409 116.393 63.609 118.093Z" fill="#E04C89"/>
<path d="M78.909 180.391C79.109 180.591 79.309 180.691 79.409 180.891C81.309 178.391 83.709 175.691 86.509 173.691C86.309 173.491 86.109 173.391 86.009 173.191C83.209 175.291 80.809 177.991 78.909 180.391Z" fill="#E04C89"/>
<path d="M99.3089 182.292C99.1089 182.192 98.9089 182.092 98.7089 181.992C97.1089 184.392 95.3089 187.492 93.6089 190.992C93.8089 191.092 94.0089 191.192 94.2089 191.292C95.9089 187.692 97.7089 184.592 99.3089 182.292Z" fill="#E04C89"/>
<path d="M99.109 122.593C99.309 122.593 99.509 122.593 99.709 122.593C99.109 119.993 98.409 116.693 98.009 113.293H97.309C97.809 116.693 98.509 119.993 99.109 122.593Z" fill="#E04C89"/>
<path d="M114.209 187.291C114.009 187.191 113.709 187.191 113.509 187.191C112.209 191.091 111.409 194.791 111.009 197.791C111.209 197.891 111.409 197.891 111.709 197.991C112.209 194.891 112.909 191.291 114.209 187.291Z" fill="#E04C89"/>
<path d="M144.209 185.993C145.809 190.593 148.009 194.093 150.009 196.693C150.209 196.593 150.409 196.493 150.609 196.393C148.609 193.893 146.309 190.293 144.809 185.793C144.609 185.793 144.409 185.893 144.209 185.993Z" fill="#E04C89"/>
<path d="M57.809 125.292C54.709 124.492 51.609 122.992 49.109 121.492C49.109 121.792 49.109 121.992 49.009 122.292C51.509 123.792 54.609 125.292 57.709 125.992V125.292H57.809Z" fill="#E04C89"/>
<path d="M67.009 148.592C66.909 148.392 66.809 148.192 66.709 147.992C63.109 149.392 60.609 151.392 58.809 153.292C58.909 153.492 59.009 153.692 59.109 153.892C60.909 151.992 63.409 149.992 67.009 148.592Z" fill="#E04C89"/>
<path d="M114.509 123.195H115.209L114.209 113.395H113.509L114.509 123.195Z" fill="#E04C89"/>
<path d="M131.409 188.395H131.109H130.809C130.409 191.995 130.109 196.295 130.009 200.195H130.709C130.809 196.295 131.109 191.995 131.409 188.395Z" fill="#E04C89"/>
<path d="M60.409 134.891C60.309 134.691 60.209 134.391 60.109 134.191C58.009 134.391 55.309 134.991 51.909 136.191C52.009 136.391 52.109 136.591 52.109 136.791C55.609 135.591 58.309 135.091 60.409 134.891Z" fill="#E04C89"/>
<path d="M75.8089 162.194C75.6089 161.994 75.5089 161.794 75.4089 161.594C72.9089 162.594 69.8089 164.294 67.1089 166.994C67.3089 167.194 67.4089 167.394 67.5089 167.594C70.3089 164.894 73.4089 163.194 75.8089 162.194Z" fill="#E04C89"/>
<path opacity="0.5" d="M107.3 25.3008C107.3 25.3008 108.7 32.7008 125.5 32.7008C142.3 32.7008 141.7 24.8008 141.7 24.8008C141.7 24.8008 138.8 30.8008 125.7 30.8008C112.6 30.8008 107.3 25.3008 107.3 25.3008Z" fill="#CE4920"/>
<path d="M141 22.9008C141 25.8008 133.7 28.0008 124.8 28.0008C115.9 28.0008 108.6 25.7008 108.6 22.9008C108.6 20.0008 115.9 17.8008 124.8 17.8008C133.7 17.8008 141 20.1008 141 22.9008Z" fill="#C62619"/>
<path d="M124.9 0C117.3 0 111.1 11.6 110.3 22.5C110.3 22.5 111.8 26.4 125.4 26.4C137.5 26.4 139.5 22.5 139.5 22.5C138.7 11.6 132.4 0 124.9 0Z" fill="url(#paint17_linear_1_11933)"/>
<path d="M133.5 13.8016C133.5 18.5016 129.6 22.3016 124.9 22.3016C120.1 22.3016 116.3 18.5016 116.3 13.8016C116.3 9.10156 120.2 2.10156 124.9 2.10156C129.6 2.10156 133.5 9.10156 133.5 13.8016Z" fill="url(#paint18_linear_1_11933)"/>
<path opacity="0.7" d="M240.3 198.002C240.3 198.002 229.9 174.002 221.4 137.102C218.8 150.702 213.4 183.902 216.2 203.902C219.7 229.602 229.6 334.902 183.8 351.002C183.8 351.002 170 353.202 152.4 333.302C134.9 313.402 111.1 289.702 111.1 289.702L123.1 284.402C123.1 284.402 129.3 292.602 141.8 288.802C141.8 288.802 133.6 290.302 127.8 284.102C127.8 284.102 136.3 287.002 141.8 280.002C141.8 280.002 145.6 281.202 144.5 283.802C144.5 283.802 148.9 280.302 145.7 275.902C145.7 275.902 170.2 254.602 160.3 230.302L153.3 220.902C153.3 220.902 159.2 215.902 159.5 214.502C159.8 213.002 157.7 198.402 157.7 198.402C157.7 198.402 175.3 181.102 187.6 162.102C174.2 182.102 154.4 199.502 135.3 200.002C91.7001 201.202 66.6001 174.202 54.3 142.102H54C54 142.102 54.1 142.402 54.3 143.002C56.4 149.002 69.7 183.802 101.9 198.802L83.2 202.902C83.2 202.902 150 222.502 152.9 238.002C155.8 253.502 45.7001 278.602 12.2 252.602C1.60005 244.402 1.40005 229.602 2.40005 217.102C-2.09995 234.702 -1.09995 249.102 11.7 266.702C11.7 266.702 11.7001 322.702 58.8 370.302C58.8 370.302 76.9 385.002 89.6 366.702C102.4 348.302 119.7 337.902 134.4 341.702C149.1 345.502 162.7 364.102 168.3 370.202C173.9 376.302 197.3 395.402 226.9 314.902C226.8 315.102 282.3 284.502 240.3 198.002Z" fill="url(#paint19_linear_1_11933)"/>
<path opacity="0.6" d="M95.4 284.5C153.8 275.7 166.9 246.2 160.2 230.5C153.5 214.7 83.1 203 83.1 203C83.1 203 155.7 217.3 157.8 237.2C160.7 264.7 76.9 295.4 11.7 266.8C11.7 266.8 11.7 269.2 12.1 273.3C24.8 279.8 53.4 290.8 95.4 284.5Z" fill="url(#paint20_linear_1_11933)"/>
<path d="M113.5 87.1992C113.7 86.2992 113.8 85.4992 113.8 84.5992C113.8 76.5992 107.3 70.1992 99.4 70.1992C91.5 70.1992 85 76.7992 85 84.6992C85 86.1992 85.2 87.4992 85.6 88.8992C85.8 88.8992 86 88.9992 86.1 88.9992C99.6 89.8992 108.5 88.5992 113.5 87.1992Z" fill="#020202"/>
<path d="M250.2 222.7C251.6 242.3 251.1 276 233.1 289.1C233.1 289.1 235.5 241.5 220.5 213.5C220.5 213.5 246.8 277.7 201.5 350.4C201.5 350.4 188.7 382.5 159.8 353.1C130.9 323.6 92.3 339.1 92.3 339.1L107.2 341.2C107.2 341.2 92.3 345 86.4 357.3C80.6 369.4 52 369 18.4 304.1C24.6 323.5 36.3 347.9 58.6 370.4C58.6 370.4 76.7 385.1 89.4 366.8C102.2 348.4 119.5 338 134.2 341.8C148.9 345.6 162.5 364.2 168.1 370.3C173.7 376.4 197.1 395.5 226.7 315C226.8 315.1 271.5 290.5 250.2 222.7Z" fill="url(#paint21_linear_1_11933)"/>
<path d="M125.3 281.5C125.3 281.5 134.2 286.5 140.8 279C140.8 279 143.3 278 144.4 279.2C144.2 279.2 134.6 271.8 125.3 281.5Z" fill="#8C0000"/>
<path d="M143.513 278.723C143.913 278.923 144.113 279.123 144.113 279.123C144.013 279.023 143.813 278.823 143.513 278.723Z" fill="#4A0100"/>
<path d="M143.513 278.722C141.213 277.322 133.113 273.123 125.113 281.423C125.113 281.423 134.113 282.822 138.713 278.322L140.513 279.023C140.613 278.923 142.313 278.322 143.513 278.722Z" fill="#4A0100"/>
<path opacity="0.6" d="M91.9 54.2984C65.5 52.4984 59.5 81.7984 59.5 81.7984C59.5 81.7984 62.4 86.9984 85.9 88.8984C109.4 90.7984 118.7 85.2984 118.7 85.2984C118.7 85.2984 118.2 55.9984 91.9 54.2984ZM86.1 87.6984C64.2 85.8984 61.5 81.0984 61.5 81.0984C61.5 81.0984 67.1 53.6984 91.7 55.3984C116.3 57.0984 116.8 84.3984 116.8 84.3984C116.8 84.3984 108.1 89.4984 86.1 87.6984Z" fill="url(#paint22_linear_1_11933)"/>
<path d="M140.2 86C140.1 85.2 140 84.3 140 83.5C140 75.7 146.3 69.5 154 69.5C161.7 69.5 168 75.8 168 83.5C168 84.9 167.8 86.3 167.4 87.5C167.2 87.5 167 87.6 166.9 87.6C153.7 88.7 145.1 87.3 140.2 86Z" fill="#020202"/>
<path opacity="0.6" d="M161.3 53.9992C186.9 52.2992 192.7 80.6992 192.7 80.6992C192.7 80.6992 189.9 85.6992 167.1 87.5992C144.3 89.4992 135.2 84.0992 135.2 84.0992C135.2 84.0992 135.7 55.6992 161.3 53.9992ZM166.8 86.4992C188.1 84.6992 190.8 80.0992 190.8 80.0992C190.8 80.0992 185.4 53.4992 161.4 55.0992C137.4 56.6992 137 83.2992 137 83.2992C137 83.2992 145.5 88.2992 166.8 86.4992Z" fill="url(#paint23_linear_1_11933)"/>
<path d="M120.8 74.6L124.5 80.6L123.9 73.5L126.1 78.2L125.9 68.3L127.5 76.6L129.1 65L129.3 79.7L132.5 72C132.5 72 128.1 85.9 128.1 91.5L127 81V90L125.4 82.7L125.6 89.2L120.8 74.6Z" fill="url(#paint24_linear_1_11933)"/>
<path opacity="0.3" d="M60.4 85.6016C60.4 85.6016 83.4 99.3016 115.9 88.4016C115.8 88.4016 86.8 108.902 60.4 85.6016Z" fill="white"/>
<path opacity="0.3" d="M65.9 95.6992C65.9 95.6992 86.7 107.599 112.5 96.7992C112.5 96.6992 89.3 116.499 65.9 95.6992Z" fill="white"/>
<path opacity="0.3" d="M137.2 87.1C137.2 87.1 165 98.3 191.5 84.5C191.5 84.6 168.2 106.5 137.2 87.1Z" fill="white"/>
<path opacity="0.3" d="M140.5 95.1992C140.5 95.1992 162.2 105.099 184.2 95.4992C184.3 95.4992 164.2 112.899 140.5 95.1992Z" fill="white"/>
<path opacity="0.3" d="M66.7 61.7015C66.7 61.7015 75.9 49.1015 90.3 49.5015C104.7 49.9015 111.6 58.8015 114.7 63.7015C114.6 63.8015 94 38.1015 66.7 61.7015Z" fill="white"/>
<path opacity="0.3" d="M140.8 61C140.8 61 159.8 36.2 183.6 59.5C183.6 59.4 162.5 42.5 140.8 61Z" fill="white"/>
<path opacity="0.4" d="M254.5 272.5C246.1 291.3 235.5 300 235.5 300C235.9 296.3 236.2 290.8 236.4 286.4C235.4 287.4 234.3 288.4 233.1 289.2C233.1 289.2 233.2 287.2 233.2 283.8C230.7 302.8 226.7 315.1 226.7 315.1C226.7 315.1 248.7 303 254.5 272.5Z" fill="#660300"/>
<path opacity="0.15" d="M130.9 285.902C130.9 285.902 138.7 286.602 142.1 281.602C142.1 281.602 145 290.502 130.9 285.902Z" fill="white"/>
<path opacity="0.25" d="M52.8 130.9C52.8 130.9 45.3 110.5 62.1 112.2C78.9 113.9 125.1 117.5 159 110.5C193.1 103.6 195.2 102.8 201.3 110.9C201.3 110.9 194.9 103.8 183.2 107.6C171.4 111.5 123.8 123.6 62.3 114.5C62.3 114.6 50.3 112.7 52.8 130.9Z" fill="white"/>
<path d="M129.2 197.102C94 195.802 73.3 175.902 62 158.802C76 183.102 99.3 201.102 135.1 200.102C167.5 199.302 201.9 149.602 204 121.602C197 148.002 174.3 198.802 129.2 197.102Z" fill="url(#paint25_radial_1_11933)"/>
<path opacity="0.7" d="M197.38 116.672C196.88 132.072 173.58 186.072 131.28 188.472C84.8797 191.072 67.5797 150.872 59.1797 132.272C59.1797 132.272 55.5797 123.572 59.8797 120.072C61.2797 118.872 62.3797 118.272 63.6797 118.072C63.6797 118.072 54.9797 116.172 56.9797 134.672C57.6797 141.272 58.6797 149.372 61.4797 158.072C75.3797 182.772 98.8797 201.172 135.08 200.172C152.08 199.672 169.48 185.972 182.68 168.872C192.78 151.972 202.08 131.072 197.38 116.672Z" fill="url(#paint26_radial_1_11933)" fill-opacity="0.5"/>
<path opacity="0.7" d="M178.78 112.373C178.78 112.373 183.88 109.773 188.78 109.573C185.38 109.273 180.78 109.473 176.08 111.773C167.98 115.673 118.28 124.373 78.3798 120.373C95.5798 122.873 142.38 127.973 178.78 112.373Z" fill="url(#paint27_radial_1_11933)" fill-opacity="0.5"/>
<path d="M73.2 158.398C84.4 174.698 102.1 189.998 131.3 188.398C158.2 186.898 177.4 164.498 188 144.498C130.7 117.898 85 148.998 73.2 158.398Z" fill="url(#paint28_radial_1_11933)"/>
<path opacity="0.3" d="M65 148.701C65 148.701 83.4 193.201 129.9 190.601C176.5 188.001 196.6 126.301 196.6 126.301C196.6 126.301 179.7 193.801 129.1 194.401C78.4 195.001 65 148.701 65 148.701Z" fill="white"/>
<path opacity="0.3" d="M188 144.599C182.8 142.199 177.7 140.199 172.8 138.699C172.8 139.399 172.8 140.099 172.7 140.699C171.2 141.299 169.4 140.599 167.9 141.499C170.7 145.499 165.4 144.999 162.9 145.199C162.5 147.699 164.8 148.499 165.2 150.599C165.7 153.199 164.2 156.399 161.8 155.799C159.8 155.299 158.3 152.499 156.6 151.399C153.2 148.999 152.3 149.799 151.7 152.899C151.2 155.799 151.2 157.799 147.8 156.499C145.8 155.699 142.7 151.299 140.2 153.399C138 155.199 141.4 161.899 138.6 163.299C135.9 164.599 134.6 159.699 134.1 158.299C132.9 154.599 129.6 154.299 127.2 157.699C125.5 159.999 126.1 169.199 121.2 167.099C118.9 166.099 118.4 161.099 115.2 163.499C112.9 165.199 113.9 171.799 109.8 171.799C107.8 171.799 108.1 170.899 107.5 169.299C107.2 168.599 107.1 167.599 106.6 166.899C106.2 166.299 105.6 166.599 105.3 166.199C103.6 163.799 104.9 160.899 103.4 158.699C100.9 155.199 99 158.799 98.7 161.499C98.4 163.999 98.6 168.399 94.9 166.799C94.8 165.099 95.6 163.299 94.9 161.699C93.9 158.999 92 159.699 89.7 158.799C89.2 156.099 92.2 154.299 92 152.099C91.7 149.699 89.3 151.699 87.9 150.499C87.8 149.699 87.9 148.999 88 148.299C80.9 152.199 75.6 156.099 72.6 158.499C83.8 174.799 101.5 190.099 130.7 188.499C158.2 186.999 177.4 164.699 188 144.599Z" fill="url(#paint29_linear_1_11933)"/>
<path opacity="0.6" d="M73.2 158.398C84.4 174.698 102.1 189.998 131.3 188.398C158.2 186.898 177.4 164.498 188 144.498C130.7 117.898 85 148.998 73.2 158.398ZM106.1 168.098C88.3 151.798 119.3 138.098 124.3 138.898C129.3 139.698 132.3 166.598 132.3 166.598L132.7 138.098C132.7 138.098 152.1 136.198 159.6 150.998C167.1 165.798 123.9 184.398 106.1 168.098Z" fill="url(#paint30_radial_1_11933)"/>
<path opacity="0.4" d="M130.4 135.102C130.4 135.102 132.6 151.202 131.8 163.502C131.8 163.502 130.8 141.202 126.3 136.302L130.4 135.102Z" fill="url(#paint31_linear_1_11933)"/>
<path d="M65.4 114.398C65.4 114.398 130.7 122.798 179.3 107.898C179.2 107.898 127.1 131.898 65.4 114.398Z" fill="url(#paint32_linear_1_11933)"/>
<path d="M68.8 159.201C68.8 159.201 91.5 194.001 130.4 191.301C169.3 188.601 189 148.301 189 148.301C189 148.301 173.3 197.801 128.5 198.101C83.6 198.401 68.8 159.201 68.8 159.201Z" fill="url(#paint33_linear_1_11933)"/>
<path d="M22.5 189.602C22.5 189.602 110.3 203.102 150.5 233.002C150.6 233.002 88.9 208.902 22.5 189.602Z" fill="url(#paint34_linear_1_11933)"/>
<path opacity="0.4" d="M142.5 235.4C142.3 234.6 142.8 233.4 142.9 232.6C143.3 230 145 229.4 144.7 225.8C136.6 222.8 128.6 219.8 122.6 218C122.7 218.1 122.7 218.1 122.7 218.1V218.8C118.6 221.2 127 222.1 124.4 225.3C127.6 224.9 126 228 125.5 229.3C124.7 231.5 124.7 232.9 125.6 234.9C126.6 237.1 126.5 238 126.5 240.4C126.5 241.4 126.9 242.3 126.8 243.2C126.7 244.1 125.9 244.8 125.8 245.6C125.6 248 127.5 247.6 128.7 249.4C130 251.2 128.8 252.8 128.1 254.6C127.6 255.8 126.2 258.8 127.7 260C129.6 261.6 130.8 259 131 257.7C131.2 256.5 130.6 255.4 130.6 254.4C130.6 252.9 131.1 252.6 131.5 251.3C132.4 248.4 130.9 248 130 245.5C129.1 242.9 131 241.8 131 239.3C131 237.7 128.6 234.4 130.7 233.6C130.8 233.1 130.3 232 130.5 231.8C130.8 230.9 130.8 231.2 131.3 230.4C131.9 229.5 133 228.1 134.1 228.9C135.2 229.7 134.3 231.5 134.6 232.7C134.9 233.9 136.1 234.7 135.5 236.5C135.1 237.6 133.4 238.1 133.2 239.3C133 240.8 134.4 241.1 134.6 242.4C134.9 244 133.5 244.6 133.6 246.2C133.7 247.6 135 248.4 134.8 249.9C136.4 250.6 137.4 249.8 138.1 248.3C139.1 246.2 137.6 246 137.3 244.2C137.2 243.2 137.8 242.7 137.9 241.8C138 240.5 137.8 240.7 137.6 239.7C137.2 238.2 136.9 236.9 136.9 235.2C136.9 232.5 139.5 228.2 140.4 232.6C140.8 234.2 140.5 235.1 141.2 236.8C141.8 238.4 141.7 239.3 141.7 241.1C143.6 242.2 144.4 239.1 144 237.6C143.5 236.6 142.7 236.2 142.5 235.4Z" fill="url(#paint35_linear_1_11933)"/>
<path d="M181.702 182.968C181.002 188.168 180.202 202.968 191.402 202.968C202.602 202.968 200.702 186.868 200.702 186.868C200.702 186.868 200.502 174.268 188.402 163.168C188.202 163.968 182.702 175.868 181.702 182.968Z" fill="#920B04" fill-opacity="0.779"/>
<path d="M188.402 163.266C188.402 163.966 180.302 175.966 179.402 183.066C178.702 188.266 178.102 200.166 189.302 200.166C200.502 200.166 198.602 184.066 198.602 184.066C198.602 184.066 198.002 174.966 188.402 163.266Z" fill="url(#paint36_linear_1_11933)"/>
<path d="M189.102 187.166C197.402 187.166 196.002 177.366 196.002 177.366C196.002 177.366 195.502 170.366 188.402 163.266C188.402 163.266 182.902 172.766 181.802 176.766C181.302 179.866 180.902 187.166 189.102 187.166Z" fill="url(#paint37_linear_1_11933)" fill-opacity="0.7"/>
<path d="M197.202 183.765C197.202 183.765 197.002 178.365 192.402 170.965C195.402 176.965 195.602 180.965 195.602 180.965C195.602 180.965 197.302 195.465 187.202 195.465C183.902 195.465 181.802 194.365 180.402 192.665C181.502 195.765 183.902 198.265 188.802 198.265C198.902 198.365 197.202 183.765 197.202 183.765Z" fill="url(#paint38_linear_1_11933)"/>
<path opacity="0.3" d="M81.3 38.7008C81.3 38.7008 109.4 35.3008 118.7 56.7008C118.7 56.7008 115.9 44.0008 118.3 43.0008C120.6 41.9008 124 62.4008 124 62.4008C124 62.4008 125.3 51.2008 126.1 51.0008C127 50.8008 127 59.3008 127 59.3008C127 59.3008 128.7 39.9008 132.3 39.7008C135.9 39.5008 132.7 60.4008 132.7 60.4008C132.7 60.4008 139.1 38.4008 166.7 39.3008C166.7 39.3008 148.1 34.8008 135.9 47.3008C135.9 47.3008 137.2 34.8008 132.9 34.8008C128.6 34.8008 126.5 47.5008 126.5 47.5008C126.5 47.5008 126.3 44.5008 125.6 44.5008C124.9 44.5008 124.1 53.2008 124.1 53.2008C124.1 53.2008 119.6 36.5008 117.1 37.1008C114.5 37.8008 115.6 46.8008 115.6 46.8008C115.6 46.8008 104.3 34.3008 81.3 38.7008Z" fill="white"/>
<path d="M126.042 104.904C126.042 104.904 126.442 101.304 122.542 101.504C118.742 101.804 112.542 105.804 126.042 104.904Z" fill="#AF2419"/>
<path d="M122.542 101.604C120.642 101.704 118.242 102.804 117.842 103.704C118.642 104.004 121.442 105.004 125.142 104.004L126.142 105.104C126.042 104.904 126.442 101.304 122.542 101.604Z" fill="#95110A"/>
<path d="M125.742 103.103C125.342 102.203 124.442 101.503 122.642 101.603C120.842 101.703 118.442 102.703 117.942 103.603C119.442 103.703 123.542 104.103 125.742 103.103Z" fill="#6E0301"/>
<path d="M128.401 104.904C128.401 104.904 128.001 101.304 131.901 101.504C135.701 101.804 141.901 105.804 128.401 104.904Z" fill="#AF2419"/>
<path d="M131.901 101.604C133.801 101.704 136.201 102.804 136.601 103.704C135.801 104.004 133.001 105.004 129.301 104.004L128.301 105.104C128.401 104.904 128.101 101.304 131.901 101.604Z" fill="#95110A"/>
<path d="M128.801 103.103C129.201 102.203 130.101 101.503 131.901 101.603C133.701 101.703 136.101 102.703 136.601 103.603C135.101 103.703 131.001 104.103 128.801 103.103Z" fill="#6E0301"/>
<path opacity="0.2" d="M131.2 188.398C158.1 186.898 177.3 164.498 187.9 144.498C185.5 143.298 183.1 142.298 180.7 141.398C180.8 143.398 180.4 145.298 178.8 145.898C176.4 146.698 176 144.598 175.1 147.698C174.3 150.098 173.5 148.798 171.5 149.398C169.6 149.898 170.2 151.498 170.3 152.998C170.5 156.998 170.1 161.398 165.3 161.398C163.4 161.398 161.6 160.198 159.7 160.398C158.9 160.498 158.7 160.498 158.1 160.998C157.4 161.498 157 162.998 156.3 163.098C155.1 163.198 154.5 160.298 152.9 161.798C151.5 163.098 153.5 165.998 151 166.598C149.2 167.098 148.1 164.798 146.2 165.298C144.4 165.798 145 167.898 144.9 169.598C144.7 172.198 143.9 172.298 141.5 171.498C140.5 171.098 140.2 170.998 139.3 171.098C138.4 171.198 137.5 171.698 136.5 171.098C135.3 170.398 135.4 168.998 134.3 168.098C133.5 167.398 131 165.798 130.1 166.798C129.3 167.598 130.5 170.798 130.5 171.998C130.4 173.398 131.3 176.798 130 177.398C129.1 177.798 126.2 177.198 125.5 176.598C124.2 175.498 123.9 173.098 122.6 171.798C121.4 170.698 119.2 170.298 118 171.498C116.8 172.698 118 175.198 117.2 176.698C116.4 178.398 114.2 178.798 112.6 178.198C110.8 177.498 110.9 175.798 109.8 174.798C108.3 173.398 105.5 174.898 104.1 173.598C102.7 172.298 103.7 170.198 103.1 168.598C102.9 168.198 102.1 166.798 101.7 166.698C100.7 166.398 100.5 167.298 99.8 167.598C99.3 167.898 98.2 167.798 97.7 168.298C96.9 168.998 97.3 169.698 97.1 170.598C96.5 172.998 94.4 172.498 92.6 171.698C91 171.098 90.9 170.298 90.9 168.598C90.9 167.298 90.8 165.098 89.9 164.098C88.9 162.898 87.3 163.698 85.9 163.198C85.6 161.598 87.5 160.298 86.3 159.098C85.6 158.398 84.8 158.798 84.4 157.898C84 157.198 84.6 155.998 84.3 155.198C83.6 152.598 81.9 154.798 80.9 153.498C80.7 153.198 80.7 152.798 80.8 152.298C77.1 154.698 74.3 156.798 72.4 158.298C84.3 174.698 102 190.098 131.2 188.398Z" fill="url(#paint39_linear_1_11933)"/>
<path d="M120.5 113.301C125.1 113.101 129.7 112.801 134.5 112.401C136.5 111.401 138.3 110.201 139.2 108.801C141 105.901 139.1 102.601 138.1 101.101C139 102.801 138.7 105.901 136.7 106.801C134.3 107.901 121.2 108.701 117.6 106.501C114 104.401 116.4 100.801 116.4 100.801C111.7 107.701 116 111.401 120.5 113.301Z" fill="url(#paint40_linear_1_11933)"/>
<path d="M116.3 107.298C119 110.198 121.5 111.998 123.2 113.198C126.5 112.998 129.9 112.798 133.4 112.498C135.5 110.998 139.6 107.698 139.7 104.098C139.3 102.898 138.7 101.798 138.2 101.198C139.1 102.898 138.8 105.998 136.8 106.898C134.4 107.998 121.3 108.798 117.7 106.598C114.1 104.498 116.5 100.898 116.5 100.898C115.4 102.398 114.8 103.798 114.5 104.998C115 105.698 115.5 106.498 116.3 107.298Z" fill="url(#paint41_linear_1_11933)"/>
<path opacity="0.5" d="M114.3 137.8C93.8 143.4 79.1 153.7 73.2 158.5C84.4 174.8 102.1 190.1 131.3 188.5C158.2 187 177.4 164.6 188 144.6C170.3 136.3 153.7 133.6 138.9 134.1C146.3 135.1 167.4 138.9 171.7 149.3C177 162 147.5 173.9 132.4 175.6C117.2 177.3 91.8 173.6 92.6 157.2C92.9 147.8 104.5 141.4 114.3 137.8Z" fill="url(#paint42_radial_1_11933)"/>
<path opacity="0.3" d="M117.6 100.001C117.6 100.001 126.5 96.4012 137.1 100.001C137.1 100.001 127.5 93.3012 117.6 100.001Z" fill="white"/>
<path d="M141.4 219.2C141.4 219.2 149.2 219.1 149.8 212.7C150.4 206.1 146.3 168.3 146.3 168.3C146.3 168.3 146 159 134.1 159C122.3 159 121.9 168.3 121.9 168.3C121.9 168.3 117.9 206.1 118.2 212.7C118.6 219.2 126.7 219.2 126.7 219.2H134.1H141.4Z" fill="url(#paint43_radial_1_11933)" fill-opacity="0.2"/>
<path d="M141.232 234.258C141.032 233.458 141.532 232.258 141.632 231.458C142.032 228.858 143.632 226.858 144.532 224.358C136.432 221.358 127.332 218.558 121.332 216.758C121.432 216.858 121.432 216.858 121.432 216.858V217.558C117.332 219.958 125.732 220.858 123.132 224.058C126.332 223.658 124.732 226.758 124.232 228.058C123.432 230.258 123.432 231.658 124.332 233.658C125.332 235.858 125.232 236.758 125.232 239.158C125.232 240.158 125.632 241.058 125.532 241.958C125.432 242.858 124.632 243.558 124.532 244.358C124.332 246.758 126.232 246.358 127.432 248.158C128.732 249.958 127.532 251.558 126.832 253.358C126.332 254.558 124.932 257.558 126.432 258.758C128.332 260.358 129.532 257.758 129.732 256.458C129.932 255.258 129.332 254.158 129.332 253.058C129.332 251.558 129.832 251.258 130.232 249.958C131.132 247.058 129.632 246.658 128.732 244.158C127.832 241.558 129.732 240.458 129.732 237.958C129.732 236.358 127.332 233.058 129.432 232.258C129.532 231.758 129.032 230.658 129.132 230.458C129.432 229.558 129.432 229.858 129.932 229.058C130.532 228.158 131.632 226.758 132.732 227.558C133.832 228.358 132.932 230.158 133.232 231.358C133.532 232.558 134.732 233.358 134.132 235.158C133.732 236.258 132.032 236.758 131.832 237.958C131.632 239.458 133.032 239.758 133.232 241.058C133.532 242.658 132.132 243.258 132.232 244.858C132.332 246.258 133.632 247.058 133.432 248.558C135.032 249.258 136.032 248.458 136.732 246.958C137.732 244.858 136.232 244.658 135.932 242.858C135.732 241.858 136.432 241.358 136.532 240.458C136.632 239.158 136.432 239.358 136.232 238.358C135.832 236.858 135.532 235.558 135.532 233.858C135.532 231.158 138.132 226.858 139.032 231.258C139.432 232.858 139.132 233.758 139.832 235.458C140.432 237.058 140.332 237.958 140.332 239.758C142.232 240.858 143.032 237.758 142.632 236.258C142.132 235.558 141.432 235.158 141.232 234.258Z" fill="url(#paint44_linear_1_11933)"/>
<path d="M121.332 216.958V217.658C117.232 220.058 125.632 220.958 123.032 224.158C125.532 223.758 125.132 225.658 124.532 227.158C124.632 227.158 124.732 227.058 124.832 227.058C126.032 226.958 126.032 227.558 126.932 227.858C127.232 227.958 128.232 227.958 128.432 228.158C128.932 228.558 128.632 229.558 128.932 229.958C129.032 230.058 129.132 230.158 129.332 230.258C129.532 229.858 129.632 229.858 129.932 229.258C130.532 228.358 131.632 226.958 132.732 227.758C133.632 228.458 133.132 229.858 133.132 231.058C133.932 230.858 134.532 230.558 135.532 230.558C135.832 230.858 136.032 231.158 136.232 231.358C137.132 229.458 138.532 228.458 139.132 231.458C139.232 231.858 139.332 232.258 139.332 232.558C140.132 232.258 140.932 231.958 141.832 232.058C141.932 231.858 141.932 231.658 141.932 231.458C142.332 228.858 148.232 225.758 144.132 223.858C135.932 220.858 127.632 218.558 121.532 216.758C121.332 216.858 121.332 216.958 121.332 216.958Z" fill="url(#paint45_linear_1_11933)"/>
<path d="M135.717 245.592C136.117 245.692 136.517 245.792 136.917 245.792C137.017 244.692 136.017 244.192 135.817 242.892C135.617 241.892 136.317 241.392 136.417 240.492C136.517 239.192 136.317 239.392 136.117 238.392C136.017 238.192 136.017 237.992 135.917 237.792C134.517 237.592 133.117 237.592 131.717 237.492C131.617 237.592 131.617 237.692 131.617 237.792C131.417 239.292 132.817 239.592 133.017 240.892C133.217 241.992 132.617 242.592 132.317 243.392C133.817 243.292 135.317 244.392 135.717 245.592Z" fill="url(#paint46_linear_1_11933)"/>
<path d="M125.117 233.893C124.717 233.593 124.417 233.393 124.017 233.293C124.117 233.493 124.117 233.493 124.217 233.693C125.217 235.893 125.117 236.793 125.117 239.193C125.117 240.193 125.517 241.093 125.417 241.993C125.317 242.893 124.517 243.593 124.417 244.393C124.417 244.393 124.417 244.393 124.417 244.493C124.517 244.493 124.517 244.493 124.517 244.393C126.217 243.893 127.017 246.493 128.917 245.993C129.117 245.893 129.217 245.893 129.417 245.793C129.117 245.293 128.917 244.793 128.617 244.193C127.717 241.593 129.617 240.493 129.617 237.993C129.617 237.793 129.617 237.693 129.517 237.493C128.917 237.393 128.317 237.293 127.717 237.093C126.917 236.293 126.117 234.693 125.117 233.893Z" fill="url(#paint47_linear_1_11933)"/>
<path d="M142.419 237.224C142.419 236.924 142.419 236.624 142.319 236.324C142.119 235.524 141.319 235.124 141.119 234.224C140.919 233.424 141.419 232.224 141.519 231.424V231.324C140.619 231.324 139.619 231.424 138.719 231.324V231.424C139.119 233.024 138.819 233.924 139.519 235.624C139.819 236.324 139.919 236.824 140.019 237.424C140.819 237.124 141.719 237.124 142.419 237.224Z" fill="url(#paint48_linear_1_11933)"/>
<path d="M135.419 234.023C135.419 232.923 135.919 231.423 136.519 230.523C136.119 230.223 135.719 230.023 135.119 230.023C134.319 229.923 133.719 230.123 133.019 230.223C132.919 230.723 132.919 231.123 133.019 231.523C133.319 232.723 134.519 233.523 133.919 235.323C133.519 236.423 131.819 236.923 131.619 238.123V238.323C132.419 238.323 132.719 238.623 133.419 238.823C134.119 239.123 135.119 239.123 136.119 239.023C136.119 238.923 136.119 238.823 136.019 238.623C135.719 237.123 135.419 235.723 135.419 234.023Z" fill="url(#paint49_linear_1_11933)"/>
<path d="M129.219 232.323C129.319 231.823 128.819 230.723 128.919 230.523C129.219 229.723 129.219 229.823 129.619 229.323C129.419 229.023 129.419 228.723 129.219 228.223C128.919 227.323 128.619 227.123 127.719 227.023C127.319 227.023 126.919 227.223 126.519 227.123C126.119 227.023 125.719 226.623 125.319 226.423C125.019 226.323 124.819 226.223 124.619 226.223C124.419 226.923 124.119 227.623 123.919 228.023C123.119 230.223 123.119 231.623 124.019 233.623C124.219 233.923 124.319 234.223 124.419 234.523C125.019 235.023 125.619 235.523 126.019 236.123C127.019 237.623 127.419 237.923 129.219 238.023H129.519V237.923C129.519 236.523 127.219 233.223 129.219 232.323Z" fill="url(#paint50_linear_1_11933)"/>
<path opacity="0.3" d="M133.832 225.458C134.432 225.658 134.732 225.958 134.732 226.558C134.732 226.958 134.732 227.458 134.832 227.858C134.832 228.258 134.832 228.258 135.132 228.258C135.432 228.258 136.432 227.958 136.432 228.358C136.832 228.458 137.232 227.558 137.532 227.358C137.932 227.158 138.332 227.458 138.532 227.758C138.732 227.958 138.632 228.358 138.932 228.458C139.232 228.558 139.332 228.358 139.532 228.358C139.832 228.358 139.732 228.558 139.932 228.658C140.232 228.758 140.232 228.358 140.332 228.158C140.532 227.758 140.832 227.458 141.132 227.258C141.332 227.158 141.632 227.058 141.932 227.058C142.032 227.058 142.232 227.258 142.332 227.158C142.632 226.958 142.632 225.958 142.532 225.658C142.332 225.158 141.732 224.858 141.232 224.958C141.032 224.958 140.832 225.058 140.632 225.258C140.532 225.358 140.432 225.658 140.432 225.758C140.032 226.058 139.732 225.558 139.632 225.258C139.432 224.858 139.332 224.458 139.032 224.258C138.432 223.758 137.532 223.858 137.032 224.458C136.632 224.758 136.632 225.358 136.332 225.658C136.032 225.958 135.932 225.258 135.632 225.058C135.032 224.558 134.232 225.058 133.632 225.258" fill="white"/>
<path opacity="0.3" d="M125.932 228.057C125.532 228.157 125.232 228.857 125.232 229.257C125.232 229.857 125.832 229.957 125.932 230.457C126.132 231.257 125.232 231.757 125.032 232.457C124.732 233.657 126.232 233.457 126.332 234.457C126.332 234.657 126.232 234.857 126.432 234.957C126.632 235.157 127.132 235.257 127.332 235.157C127.632 234.957 127.832 234.357 127.932 234.057C128.132 233.557 128.232 233.057 128.332 232.557C128.532 231.957 128.932 231.357 128.632 230.657C128.332 230.057 127.832 229.857 127.432 229.557C127.132 229.257 126.932 228.857 126.632 228.657C126.232 228.457 126.232 228.357 126.132 227.957" fill="white"/>
<path opacity="0.3" d="M126.632 238.359C126.532 238.859 127.132 239.159 127.032 239.659C126.932 240.059 126.632 240.459 126.632 240.859C126.632 241.259 127.032 241.859 126.832 242.259C126.732 242.759 126.132 243.059 125.832 243.459C125.532 243.959 125.332 244.259 125.632 244.759C125.932 245.259 126.432 245.559 127.032 245.359C128.232 244.959 127.732 243.459 127.632 242.659C127.632 242.259 127.632 241.959 127.732 241.559C127.932 241.059 127.832 240.859 127.632 240.359C127.432 239.759 127.832 238.559 126.932 238.559" fill="white"/>
<path opacity="0.3" d="M127.732 253.557C127.232 254.157 126.732 254.857 126.532 255.557C126.432 255.857 126.332 256.357 126.432 256.657C126.732 257.457 127.432 257.457 127.932 256.957C128.432 256.457 128.732 255.757 128.832 255.057C128.932 254.557 128.832 254.357 128.532 254.157C128.332 253.957 128.232 253.657 128.032 253.457" fill="white"/>
<path opacity="0.3" d="M134.232 236.457C134.132 236.757 133.732 237.057 133.532 237.257C133.232 237.557 132.832 237.857 132.632 238.157C132.332 238.557 132.032 239.357 132.332 239.657C132.532 239.857 132.732 239.857 132.932 240.057C133.132 240.257 133.332 240.557 133.432 240.757C133.632 241.057 133.632 241.757 133.932 241.957C134.332 242.157 134.732 241.757 134.732 241.357C134.832 240.857 134.632 240.357 134.932 239.857C135.232 239.357 135.332 238.857 135.232 238.257C135.232 238.057 135.032 237.857 134.932 237.657C134.832 237.457 134.632 237.357 134.432 237.157C134.332 237.057 134.332 236.957 134.332 236.857" fill="white"/>
<path opacity="0.3" d="M133.432 243.358C133.132 243.658 132.932 244.258 132.832 244.658C132.732 245.258 133.332 245.358 133.732 245.658C134.132 246.058 133.932 246.258 134.132 246.658C134.332 247.058 134.732 246.958 134.932 246.758C135.732 246.258 135.932 244.658 135.232 244.058C135.032 243.858 134.732 243.558 134.532 243.458C134.232 243.358 133.832 243.358 133.632 243.258" fill="white"/>
<path opacity="0.3" d="M140.332 235.359C140.732 235.759 140.832 236.959 140.732 237.459C140.632 237.859 140.532 238.159 140.432 238.459C140.232 239.259 141.032 239.459 141.432 238.759C141.732 238.359 141.932 237.759 141.932 237.259C141.832 236.759 141.532 236.659 141.332 236.359C141.132 236.159 141.132 235.959 140.932 235.759C140.732 235.659 140.632 235.559 140.532 235.359" fill="white"/>
<path d="M134.2 216.398H141.3C141.3 216.398 147.6 216.298 148.1 210.198C148.7 203.998 145.9 168.198 145.9 168.198C145.9 168.198 145.6 159.398 134.1 159.398H134.2C122.8 159.398 122.4 168.198 122.4 168.198C122.4 168.198 119.9 203.998 120.2 210.198C120.6 216.398 127 216.398 127 216.398H134.2Z" fill="url(#paint51_linear_1_11933)"/>
<path d="M134.1 216.402H140.5C146.9 216.402 148.2 212.002 148.2 209.602C146 212.002 142.3 212.702 140.2 213.502C137.4 214.702 134.9 214.502 133.5 214.202C132.1 214.002 132 213.102 127.4 213.702C125 214.002 122.4 212.702 120.4 211.502C121.2 214.402 123 216.402 127.7 216.402H134.1Z" fill="url(#paint52_linear_1_11933)" fill-opacity="0.7"/>
<path d="M147.5 194.699C147.6 195.299 147.6 195.899 147.6 196.499C145.2 195.299 142.7 195.899 139.7 197.199C135.8 198.999 131.4 197.799 127 196.199C124.7 195.299 122.2 195.899 120.5 196.599C120.3 200.599 120.1 204.099 120 206.299C121.1 206.799 122.7 207.099 124.4 206.499C124.4 206.499 128.6 207.699 130.7 207.399C130.7 207.399 131.5 207.199 132.7 207.799C133.9 208.399 135.4 208.399 136.2 207.899C136.2 207.899 138.7 207.999 139.6 207.399C139.6 207.399 141.2 207.299 141.8 206.899C141.8 206.899 144.2 206.799 145.5 205.599C145.5 205.599 146.8 205.599 148.1 205.499C147.9 203.099 147.7 199.199 147.5 194.699Z" fill="url(#paint53_linear_1_11933)"/>
<path d="M144 204.7C146 204.9 147.3 204.9 148.1 204.8C148 203 147.9 200.8 147.8 198.3C147.1 198.3 146.4 198.3 145.9 198.2C144.9 198.1 143 198.6 142 199C141 199.5 140 199.4 138.8 199.2C137.6 199 137.3 198.5 135.7 199.1C134 199.7 132.4 199.9 132.4 199.9C132.4 199.9 132 199.7 131.3 199.8C130.6 199.9 128.9 199.7 128.9 199.7L126.7 199.9C124.9 200.8 121.6 200.2 120.4 200C120.3 201.1 120.3 202.2 120.2 203.1C123.6 202.6 125.4 204.6 125.4 204.6C128.5 203.6 130.3 205 130.3 205C134.8 203.7 139.7 204.4 144 204.7Z" fill="url(#paint54_linear_1_11933)"/>
<path d="M145.9 167.802C144.9 159.002 134.3 159.102 134.3 159.102C134.3 159.102 123.4 158.902 122.4 167.802C122 170.902 121.6 177.002 121.3 183.502C122.4 185.302 123.9 187.102 125.4 187.602C129 188.802 129.3 186.502 134.3 188.102C139.3 189.602 141.1 187.602 143.5 186.502C144.6 186.002 146 186.302 147.2 186.902C146.7 179.102 146.3 171.402 145.9 167.802Z" fill="url(#paint55_linear_1_11933)"/>
<path d="M147.1 186.402C147.1 186.602 147.1 186.802 147.2 187.002C145.9 186.402 144.6 186.102 143.5 186.602C141.1 187.802 139.3 189.702 134.3 188.202C129.3 186.702 128.9 189.002 125.4 187.702C123.8 187.202 122.4 185.402 121.3 183.602C121 188.102 120.8 192.802 120.6 196.802C122.4 196.102 124.8 195.502 127.1 196.402C131.5 198.002 135.9 199.102 139.8 197.402C142.8 196.002 145.4 195.502 147.7 196.702C147.5 193.302 147.3 189.902 147.1 186.402Z" fill="url(#paint56_linear_1_11933)"/>
<path d="M147.1 186.402C147.1 186.602 147.1 186.802 147.2 187.002C145.9 186.402 144.6 186.102 143.5 186.602C141.1 187.802 139.3 189.702 134.3 188.202C129.3 186.702 128.9 189.002 125.4 187.702C123.8 187.202 122.4 185.402 121.3 183.602C121 188.102 120.8 192.802 120.6 196.802C122.4 196.102 124.8 195.502 127.1 196.402C131.5 198.002 135.9 199.102 139.8 197.402C142.8 196.002 145.4 195.502 147.7 196.702C147.5 193.302 147.3 189.902 147.1 186.402Z" fill="url(#paint57_linear_1_11933)"/>
<path d="M127.7 210.201C127.6 210.101 127.5 209.901 127.4 209.701C127.3 209.601 127.3 209.401 127.2 209.301C127.1 209.601 127.2 209.901 127.4 210.101C127.5 210.201 127.7 210.301 127.7 210.601V210.701C127.7 210.501 127.7 210.301 127.7 210.201Z" fill="#3FB5BA"/>
<path opacity="0.3" d="M125.1 191.799C123.9 191.599 123.7 194.399 124.8 194.699C125.9 194.999 126.1 193.199 125.8 192.599C125.6 192.199 125.4 191.799 125 191.799" fill="url(#paint58_radial_1_11933)"/>
<path opacity="0.3" d="M125.1 192.098C124.2 191.798 124.8 192.998 124.9 193.398C125.3 193.498 125.3 192.498 125.2 192.298" fill="white"/>
<path opacity="0.3" d="M124.8 194.601C124.3 194.501 124.1 193.901 124.1 193.401C124 194.101 124.3 194.801 124.8 195.001C125.7 195.201 125.9 194.101 125.9 193.301C125.8 194.001 125.5 194.801 124.8 194.601Z" fill="#FE980E"/>
<path opacity="0.3" d="M137.8 189.898C137.3 189.898 136.6 190.098 136.2 190.398C136 190.498 135.9 190.698 135.9 190.898C136 191.198 136.2 191.298 136.4 191.398C136.9 191.698 137.2 191.798 137.8 191.598C138.2 191.498 138.8 191.298 139 190.898C139.3 190.398 138.3 189.898 137.8 189.898Z" fill="url(#paint59_radial_1_11933)"/>
<path opacity="0.3" d="M136.6 190.798C136.4 190.698 136.5 190.498 136.7 190.398C136.9 190.298 137.2 190.298 137.4 190.198C137.8 190.098 138.3 189.998 138.6 190.298C138.2 190.298 137.8 190.298 137.5 190.498C137.4 190.498 136.7 191.098 136.6 190.798Z" fill="white"/>
<path opacity="0.3" d="M139 190.898C138.8 191.298 138.2 191.498 137.8 191.598C137.2 191.698 136.9 191.698 136.4 191.398C136.2 191.298 136 191.198 135.9 190.998C135.8 191.098 135.8 191.198 135.8 191.298C135.9 191.498 136.1 191.698 136.3 191.798C136.8 192.098 137.1 192.198 137.7 191.998C138.1 191.898 138.7 191.698 138.9 191.298C139.1 191.098 139 190.998 139 190.898Z" fill="#FE980E"/>
<path opacity="0.3" d="M144 191.399C144.1 190.899 143.5 190.699 143.1 190.699C142.5 190.799 142.6 191.499 142.5 191.899C142.4 192.299 142.2 192.799 142.4 193.299C142.5 193.699 142.9 194.099 143.1 194.499C143.3 194.999 143.2 195.499 143.3 195.999C143.4 196.499 143.9 196.699 144.4 196.499C145.2 196.099 145 194.399 144.7 193.799C144.5 193.399 144.3 193.199 144.2 192.799C144.1 192.499 144.3 191.599 144.1 191.399" fill="url(#paint60_radial_1_11933)"/>
<path opacity="0.3" d="M143.1 191.1C143.1 191 143 191 142.9 191C142.8 191.3 142.3 192.9 142.8 192.9C142.9 192.6 143 192.3 143.1 192C143.2 191.7 143.4 191.6 143.4 191.2C143.3 191.1 143.2 191.1 143.1 191.1Z" fill="white"/>
<path opacity="0.3" d="M144.3 196.398C143.9 196.598 143.3 196.298 143.2 195.898C143.1 195.398 143.2 194.898 143 194.398C142.8 193.998 142.5 193.598 142.3 193.198C142.1 192.698 142.3 192.198 142.4 191.798C142.4 191.598 142.4 191.298 142.5 191.098C142.2 191.298 142.3 191.798 142.2 192.098C142.1 192.498 141.9 193.098 142.1 193.498C142.2 193.898 142.6 194.298 142.8 194.698C143 195.198 142.9 195.698 143 196.198C143.1 196.698 143.6 196.898 144.1 196.698C144.3 196.598 144.5 196.398 144.6 196.098C144.5 196.298 144.4 196.398 144.3 196.398Z" fill="#FE980E"/>
<path opacity="0.3" d="M143.4 198.1C143.3 197.9 143.3 197.6 143.3 197.4C143.2 196.9 142.4 197.1 142.2 197.3C141.9 197.6 141.6 198.1 141.7 198.5C141.9 199.3 143.1 200.2 143.9 199.9C144.4 199.7 144.4 199.1 144 198.8C143.7 198.6 143.3 198.4 143.3 198" fill="url(#paint61_radial_1_11933)"/>
<path opacity="0.3" d="M142.5 197.499C142.2 197.599 141.6 198.199 142.3 198.299C142.4 198.099 142.6 197.999 142.7 197.799C142.8 197.599 142.8 197.399 142.5 197.499Z" fill="white"/>
<path opacity="0.3" d="M143.9 199.9C143.1 200.3 141.9 199.3 141.7 198.5V198.9C141.9 199.7 143.1 200.6 143.9 200.3C144.2 200.1 144.3 199.8 144.3 199.5C144.2 199.7 144 199.8 143.9 199.9Z" fill="#6CAF11"/>
<path opacity="0.3" d="M125.1 199.5C125 199.3 125.2 199 125.2 198.8C125.2 198.6 125.3 198.2 125.2 198C125 197.5 124.4 197.4 124 197.6C122.8 198.3 123.2 199.8 124.3 200.3C123.9 200.7 123.5 201.1 123.5 201.7C123.5 202.2 123.9 202.8 124.5 202.9C125.2 203 125.3 202.2 125 201.8C124.8 201.5 124.8 201.4 125.1 201.1C125.3 200.9 125.5 200.8 125.6 200.5C125.7 200.2 125.5 200.1 125.3 200C125.1 199.9 125.1 199.8 125.1 199.5Z" fill="url(#paint62_radial_1_11933)"/>
<path opacity="0.3" d="M124.6 197.9C124.3 197.5 123 198.7 123.7 199.3C124.2 199.8 124 199 124.1 198.7C124.2 198.5 124.7 198 124.6 197.9Z" fill="white"/>
<path opacity="0.3" d="M124.4 200.299C124.5 200.099 124.7 199.999 124.8 200.299C124.9 200.499 124.6 200.699 124.5 200.799C124.4 200.999 124.2 201.099 124.2 201.299C124.1 201.499 124.3 201.799 124.1 201.999C123.7 202.499 123.6 201.599 123.7 201.399C123.9 200.899 124.4 200.799 124.4 200.299Z" fill="white"/>
<path opacity="0.3" d="M124 200.698C124.1 200.598 124.2 200.498 124.3 200.398C123.6 199.998 123.2 199.198 123.4 198.398C122.9 199.198 123.2 200.198 124 200.698Z" fill="#6CAF11"/>
<path opacity="0.3" d="M124.4 202.899C123.9 202.799 123.4 202.199 123.4 201.699C123.4 201.499 123.5 201.399 123.5 201.199C123.3 201.399 123.2 201.699 123.2 201.999C123.2 202.499 123.6 203.099 124.1 203.199C124.5 203.299 124.7 202.999 124.7 202.699C124.8 202.899 124.6 202.899 124.4 202.899Z" fill="#6CAF11"/>
<path opacity="0.3" d="M138.9 201.5C138.1 201.5 138 202.5 138 203.1C137.9 203.6 137.9 204.3 138.5 204.4C139.1 204.5 139.3 204.1 139.4 203.6C139.4 203.2 139.8 202.5 139.7 202.1C139.6 201.9 139.3 201.6 139.1 201.5" fill="url(#paint63_radial_1_11933)"/>
<path opacity="0.3" d="M138.7 201.799C138.3 201.599 138.1 203.299 138.2 203.599C138.4 203.599 138.6 202.899 138.7 202.699C138.8 202.499 139.2 202.199 139.1 201.899C139 201.799 138.8 201.699 138.7 201.799Z" fill="white"/>
<path opacity="0.3" d="M139.3 203.498C139.2 204.098 139.1 204.398 138.4 204.298C138 204.298 137.9 203.898 137.9 203.598C137.8 204.098 137.9 204.598 138.4 204.598C139 204.698 139.2 204.298 139.3 203.798C139.3 203.398 139.7 202.798 139.6 202.398C139.5 202.898 139.3 203.298 139.3 203.498Z" fill="#6CAF11"/>
<path opacity="0.3" d="M128.9 208.899C129.1 208.399 129.2 207.799 128.7 207.599C128.1 207.299 127.7 207.699 127.4 208.199C127.2 208.699 127 209.399 127.3 209.799C127.4 209.999 127.6 210.099 127.6 210.299C127.7 210.599 127.6 210.899 127.7 211.099C128 212.399 129.5 211.799 129.9 210.899C130.1 210.399 129.9 209.999 129.5 209.799C129.1 209.499 128.7 209.199 128.9 208.899Z" fill="url(#paint64_radial_1_11933)"/>
<path opacity="0.3" d="M128.1 207.699C128.1 207.699 127.3 208.899 127.8 208.799C128.1 208.699 128.6 207.699 128.1 207.699Z" fill="white"/>
<path opacity="0.3" d="M127.8 210.7C128.1 211 128.6 211.1 128.9 210.9C129.1 210.8 129.2 210.5 129.4 210.5C129.7 210.4 129.6 210.7 129.5 210.9C129.3 211.3 129 211.5 128.6 211.6C128.2 211.7 127.7 211.5 127.8 211" fill="white"/>
<path opacity="0.3" d="M129.8 210.799C129.4 211.699 127.9 212.299 127.6 210.999V211.399C127.9 212.699 129.4 212.099 129.8 211.199C129.9 210.999 129.9 210.799 129.9 210.699C129.9 210.699 129.9 210.699 129.8 210.799Z" fill="#3FB5BA"/>
<path opacity="0.3" d="M130.7 208.098C130 207.898 129.9 209.698 131 209.498C131.4 209.398 131.6 208.998 131.5 208.598C131.4 208.298 131 208.098 130.7 208.098Z" fill="url(#paint65_radial_1_11933)"/>
<path opacity="0.3" d="M130.6 208.399C130.2 208.299 130.3 208.799 130.7 208.699C131.1 208.599 130.8 208.299 130.6 208.399Z" fill="white"/>
<path opacity="0.3" d="M130.9 209.401C130.4 209.501 130.2 209.201 130.1 208.801C130 209.301 130.3 209.801 130.9 209.701C131.3 209.601 131.5 209.201 131.4 208.901C131.3 209.201 131.2 209.401 130.9 209.401Z" fill="#3FB5BA"/>
<path opacity="0.3" d="M143.1 208.198C142.9 207.698 142.2 207.798 141.8 208.098C141.4 208.398 141 208.998 140.9 209.498C140.8 209.998 141.1 210.398 141.6 210.398C142.1 210.398 142.6 209.998 142.8 209.598C143.1 209.098 143.2 208.598 143.1 208.198Z" fill="url(#paint66_radial_1_11933)"/>
<path opacity="0.3" d="M142.6 208.1C142.1 207.8 140.7 209.4 141.3 209.7C141.6 209.5 141.8 209.3 142 209C142.1 208.8 142.2 208.7 142.4 208.5C142.4 208.4 142.5 208.2 142.6 208.1Z" fill="white"/>
<path opacity="0.3" d="M143.1 208.5C143.1 208.9 142.9 209.3 142.7 209.6C142.5 210 141.9 210.4 141.5 210.4C141.1 210.4 140.9 210.1 140.8 209.9C140.7 210.4 141 210.8 141.5 210.8C142 210.8 142.5 210.4 142.7 210C143.1 209.4 143.2 209 143.1 208.5Z" fill="#3FB5BA"/>
<path opacity="0.3" d="M143.4 213.499C143.5 213.099 142.8 212.699 142.5 212.699C141.9 212.699 141.8 213.399 141.8 213.899C141.8 214.499 142.1 216.299 143.1 215.699C143.4 215.499 143.5 215.099 143.5 214.799C143.5 214.599 143.6 214.399 143.6 214.199C143.5 213.899 143.3 213.799 143.4 213.499Z" fill="url(#paint67_radial_1_11933)"/>
<path opacity="0.3" d="M142.4 213.098C142 212.998 141.9 214.598 142.3 214.798C142.7 214.998 142.7 214.098 142.7 213.898C142.7 213.498 142.5 213.298 142.2 213.198" fill="white"/>
<path opacity="0.3" d="M143 215.701C142 216.301 141.7 214.501 141.7 213.901C141.7 213.701 141.8 213.501 141.8 213.301C141.6 213.601 141.5 213.901 141.5 214.201C141.4 214.801 141.8 216.601 142.8 216.001C143 215.901 143.1 215.701 143.2 215.501C143.2 215.601 143.1 215.701 143 215.701Z" fill="#3FB5BA"/>
<path opacity="0.3" d="M126.5 165.699C126 165.899 125.5 166.299 125.6 166.899C125.7 167.499 126.4 167.799 126.8 167.299C127.1 166.999 126.9 166.699 127.1 166.399C127.2 166.299 127.7 166.299 127.8 166.199C128.2 165.799 128.4 165.299 128.2 164.699C129 164.799 130.4 165.499 131.1 164.799C131.8 163.999 130.2 163.599 129.6 163.399C128.7 163.199 127.7 162.599 127 163.299C126.7 163.599 126.5 163.799 126.4 164.199C126.3 164.599 126.7 165.299 126.6 165.499C126.6 165.599 126.5 165.599 126.5 165.599" fill="url(#paint68_radial_1_11933)"/>
<path opacity="0.3" d="M126.8 165.898C126.6 165.998 126.1 166.298 126.4 166.498C126.7 166.498 126.9 166.098 126.8 165.898Z" fill="white"/>
<path opacity="0.3" d="M126.8 163.998V164.198C127.1 164.398 127.3 163.798 127.5 163.798C127.8 163.698 128.3 163.798 128.6 163.898C129 163.998 129.3 164.098 129.6 164.198C129.8 164.198 130 164.198 130.1 164.298C130.3 164.298 130.4 164.398 130.6 164.398C130.6 164.298 130.6 164.298 130.6 164.298C130 163.898 129.3 163.898 128.7 163.698C128.2 163.498 127 163.298 126.9 164.098" fill="white"/>
<path d="M131.011 164.757C130.311 165.557 128.911 164.757 128.111 164.657C128.111 164.757 128.111 164.957 128.111 165.057C128.911 165.157 130.211 165.857 130.911 165.057C131.111 164.857 131.111 164.657 131.111 164.457C131.111 164.657 131.111 164.657 131.011 164.757Z" fill="#FBB316"/>
<path d="M126.611 165.559C126.711 165.359 126.511 164.959 126.411 164.559V164.659C126.411 164.859 126.511 165.259 126.611 165.559Z" fill="#FBB316"/>
<path d="M127.811 166.155C127.611 166.255 127.211 166.255 127.111 166.355C126.911 166.655 127.011 166.955 126.811 167.255C126.411 167.755 125.711 167.455 125.611 166.955V167.255C125.711 167.855 126.411 168.155 126.811 167.655C127.111 167.355 126.911 167.055 127.111 166.755C127.211 166.655 127.711 166.655 127.811 166.555C128.211 166.255 128.311 165.755 128.311 165.355C128.211 165.655 128.011 165.955 127.811 166.155Z" fill="#FBB316"/>
<path opacity="0.3" d="M130.1 171.898C129.5 172.298 128.9 172.898 128.8 173.698C128.7 174.298 129.2 174.598 129.7 174.398C130.2 174.198 130.6 173.698 130.7 173.198C130.8 172.798 130.7 171.998 130.1 172.098" fill="url(#paint69_radial_1_11933)"/>
<path opacity="0.3" d="M130 172.199C129.7 172.299 129.2 172.999 129.2 173.199C129.5 173.299 130.1 172.499 130 172.199Z" fill="white"/>
<path opacity="0.3" d="M129.8 174.299C129.3 174.499 128.9 174.299 128.9 173.799C128.9 173.799 128.9 173.799 128.8 173.799C128.8 174.399 129.4 174.799 130 174.599C130.5 174.399 130.7 173.699 130.7 173.199C130.6 173.699 130.2 174.099 129.8 174.299Z" fill="#FBB316"/>
<path opacity="0.3" d="M121.6 178.898C121.5 179.798 121.4 180.698 121.4 181.598C121.6 181.498 121.9 181.498 122.1 181.498C122.3 181.398 122.5 181.298 122.6 181.098C122.8 180.698 122.9 180.098 122.8 179.698C122.5 179.198 122.1 178.898 121.6 178.898Z" fill="url(#paint70_radial_1_11933)"/>
<path opacity="0.3" d="M121.7 179.198C121.9 179.498 121.9 179.798 122.4 179.798C122.5 179.398 122 178.998 121.6 179.098" fill="white"/>
<path opacity="0.3" d="M122.8 180.098C122.8 180.498 122.8 180.898 122.6 181.098C122.5 181.298 122.3 181.498 122.1 181.498C121.9 181.598 121.6 181.598 121.4 181.598C121.4 181.798 121.4 181.998 121.3 182.298C121.5 182.198 121.7 182.198 121.7 182.198C122.1 181.998 122.4 181.698 122.6 181.298C122.9 180.998 123 180.398 122.8 180.098Z" fill="#FBB316"/>
<path opacity="0.3" d="M136.6 175.501C135.5 175.201 133.5 177.801 135.3 178.001C135.9 178.101 136.3 177.801 136.7 177.301C137 176.901 137.1 176.301 137 175.901C136.9 175.801 136.8 175.501 136.6 175.501Z" fill="url(#paint71_radial_1_11933)"/>
<path opacity="0.3" d="M136.4 175.699C136 175.699 135 176.399 135.1 176.899C135.5 176.899 136.4 175.999 136.4 175.699Z" fill="white"/>
<path opacity="0.3" d="M136.7 177.3C136.3 177.8 135.9 178.1 135.3 178C134.9 177.9 134.6 177.8 134.6 177.5C134.5 177.9 134.7 178.3 135.3 178.3C135.9 178.4 136.3 178.1 136.7 177.6C136.9 177.3 137.1 176.8 137 176.5C136.9 176.8 136.8 177.1 136.7 177.3Z" fill="#FBB316"/>
<path opacity="0.3" d="M141.8 176C141.2 175.9 140.8 177.2 140.8 177.6C140.7 178.2 141.1 178.7 141.7 178.4C142.2 178.1 142.4 177.6 142.4 177.1C142.4 176.8 142.2 175.9 141.8 176Z" fill="url(#paint72_radial_1_11933)"/>
<path opacity="0.3" d="M141.6 176.301C141.3 176.401 141 177.101 141.1 177.401C141.4 177.601 142 176.301 141.6 176.301Z" fill="white"/>
<path opacity="0.3" d="M141.7 178.401C141.2 178.701 140.9 178.301 140.8 177.901V178.001C140.7 178.601 141.1 179.101 141.7 178.801C142.2 178.601 142.4 178.001 142.4 177.501V177.301C142.3 177.701 142.1 178.201 141.7 178.401Z" fill="#FBB316"/>
<path opacity="0.3" d="M125.9 182.599C125 182.499 123.8 183.799 124.6 184.499C125.2 184.999 126.7 185.099 126.9 184.099C127 183.599 126.3 182.599 125.9 182.599Z" fill="url(#paint73_radial_1_11933)"/>
<path opacity="0.3" d="M125 183.1C124.8 183 124.6 183.2 124.6 183.4C124.9 183.5 125 183.3 125.2 183.2C125.5 183.1 125.7 183.2 126 183.1C126.1 182.5 124.9 182.8 124.7 183.1" fill="white"/>
<path opacity="0.3" d="M124.6 184.5C124.4 184.3 124.3 184.2 124.3 184C124.2 184.3 124.3 184.6 124.6 184.8C125.2 185.3 126.7 185.4 126.9 184.4V184.1C126.6 185 125.1 184.9 124.6 184.5Z" fill="#FBB316"/>
<path opacity="0.3" d="M134.4 182.098C133.7 182.098 133.5 182.798 133.4 183.398C133.3 183.798 133.1 184.498 133.8 184.498C134.4 184.498 135 182.498 134.4 182.098Z" fill="url(#paint74_radial_1_11933)"/>
<path opacity="0.3" d="M134.1 182.398C133.7 182.498 133.5 183.398 133.6 183.698C133.9 183.798 134.1 183.298 134.1 183.098C134.1 182.898 134.4 182.298 134.1 182.398Z" fill="white"/>
<path opacity="0.3" d="M133.7 184.498C133.4 184.498 133.3 184.298 133.2 184.098C133.1 184.498 133.2 184.798 133.7 184.798C134.2 184.798 134.7 183.598 134.6 182.898C134.6 183.598 134.2 184.498 133.7 184.498Z" fill="#FBB316"/>
<path opacity="0.3" d="M144.1 179.997C143.3 179.597 141.9 180.097 141.9 181.097C141.9 182.097 143.3 182.797 144.1 182.497C144.6 182.397 145 181.797 145 181.197C144.9 180.697 144.5 180.197 144.1 179.997Z" fill="url(#paint75_radial_1_11933)"/>
<path opacity="0.3" d="M144.3 180.498C143.9 180.098 142.4 179.998 142.3 180.798C142.1 181.398 143 180.998 143.2 180.898C143.5 180.698 144 180.798 144.3 180.498Z" fill="white"/>
<path opacity="0.3" d="M144.9 181.399C144.8 181.899 144.4 182.199 144.1 182.399C143.3 182.699 142 181.999 141.9 181.199V181.399C141.9 182.399 143.3 183.099 144.1 182.799C144.6 182.599 145 181.999 144.9 181.399C144.9 181.499 144.9 181.499 144.9 181.399Z" fill="#FBB316"/>
<path d="M134.191 216.359H130.791V223.059C130.791 223.559 132.291 224.759 134.191 224.759C136.091 224.759 137.591 224.359 137.591 223.859V216.359H134.191Z" fill="url(#paint76_linear_1_11933)"/>
<path opacity="0.5" d="M136.491 216.359V223.559C136.491 224.059 134.991 224.459 133.091 224.459C132.391 224.459 132.291 224.059 131.791 223.959C132.391 224.159 132.891 224.759 134.091 224.759C135.991 224.759 137.491 224.359 137.491 223.859V216.359H136.491Z" fill="#CB9257"/>
<path d="M131.189 223.158L131.289 216.358L131.189 215.258V223.158Z" fill="#CB9257"/>
<path d="M135.689 224.558L135.789 216.258H135.689V224.558Z" fill="#CB9257"/>
<path d="M133.689 224.658H134.189H134.289V216.258H134.189H133.689V224.658Z" fill="#CB9257"/>
<path d="M136.589 224.358C136.689 224.258 136.789 224.258 136.889 224.258V216.258H136.589V224.358Z" fill="#CB9257"/>
<path d="M131.689 224.358L131.789 216.258H131.689V224.358Z" fill="#CB9257"/>
<path d="M132.589 224.359C132.689 224.359 132.789 224.459 132.889 224.459V216.359H132.589V224.659V224.359Z" fill="#CB9257"/>
<path d="M134.689 224.658L134.789 216.258H134.689V224.658Z" fill="#CB9257"/>
<path opacity="0.5" d="M132.889 219.948C132.889 219.948 132.189 219.248 131.689 219.848C131.189 220.348 131.689 221.648 132.789 221.348C132.789 221.348 133.089 221.648 133.089 222.048C133.089 222.448 132.689 223.048 132.689 223.548C132.689 224.048 134.089 224.748 133.989 223.448C133.989 223.448 135.089 222.048 134.489 221.448C134.489 221.448 134.889 220.848 135.289 220.848C135.689 220.848 136.489 220.348 136.089 219.848C135.689 219.348 135.289 218.748 134.189 219.748C132.989 220.648 132.889 219.948 132.889 219.948Z" fill="url(#paint77_radial_1_11933)"/>
<path opacity="0.7" d="M132.389 219.849C132.189 219.849 131.989 219.749 131.889 219.849C131.789 220.049 131.989 220.149 132.089 220.249C132.189 220.349 132.489 220.449 132.489 220.249C132.589 220.149 132.489 219.949 132.389 219.849Z" fill="white"/>
<path opacity="0.7" d="M133.089 220.449C133.389 220.349 133.689 220.249 134.089 220.049C134.089 220.049 134.089 220.049 134.089 219.949C134.289 219.849 134.489 219.849 134.589 219.749C134.789 219.649 134.889 219.549 134.989 219.449C135.289 219.249 135.789 219.649 135.389 219.849C134.989 219.949 134.689 220.049 134.389 220.249C133.989 220.349 133.589 220.449 133.289 220.449" fill="white"/>
<path opacity="0.7" d="M133.489 222.047C133.489 222.247 132.989 222.947 133.289 222.947C133.489 222.947 133.689 222.247 133.489 222.047Z" fill="white"/>
<path d="M133.089 222.044V221.844C133.089 221.444 132.789 221.144 132.789 221.144C132.089 221.344 131.589 220.844 131.489 220.344C131.389 220.944 131.889 221.744 132.789 221.544C132.789 221.644 132.989 221.844 133.089 222.044Z" fill="#CB9257"/>
<path d="M135.289 220.643C134.889 220.643 134.489 221.243 134.489 221.243C134.589 221.343 134.589 221.343 134.589 221.443C134.789 221.343 134.989 220.943 135.289 220.943C135.589 220.943 136.389 220.443 136.089 220.043C135.989 220.443 135.489 220.643 135.289 220.643Z" fill="#CB9257"/>
<path d="M134.689 221.844C134.589 222.544 133.989 223.244 133.989 223.244C134.089 224.444 132.889 223.944 132.689 223.444V223.744C132.689 224.244 134.089 224.944 133.989 223.644C133.989 223.644 134.789 222.544 134.689 221.844Z" fill="#CB9257"/>
<path d="M130.8 220.702C131 220.802 130.9 221.002 130.9 222.002C132.3 223.002 134.7 224.002 137.2 224.502C137.4 224.602 137.5 223.502 137.6 223.602C138.6 224.302 139.7 225.102 140.7 226.102C140.7 226.102 132 226.902 127.8 220.602C127.8 220.602 129 220.502 130.9 220.802L130.8 220.702Z" fill="#FBB040"/>
<path d="M128 220.601C134.8 225.401 134.1 224.401 140.7 225.901C139.7 224.901 138.5 224.001 137.5 223.301C137.2 223.601 137.4 224.201 136.8 224.201C135.1 223.901 131.8 222.301 130.9 221.801C130.7 221.601 131 220.701 130.8 220.501C129 220.201 127.9 220.401 127.9 220.401C127.9 220.601 128 220.601 128 220.601Z" fill="#EA6709"/>
<path d="M117.5 77.6016C101.4 82.9016 81.6 80.1016 73.3 78.5016C72.8 80.5016 72.5 82.6016 72.5 84.8016C72.5 85.6016 72.6 86.4016 72.6 87.2016C76.1 87.9016 80.4 88.5016 85.8 89.0016C109.3 91.0016 118.6 85.4016 118.6 85.4016C118.6 85.4016 118.6 82.0016 117.5 77.6016Z" fill="url(#paint78_linear_1_11933)"/>
<path d="M88 76.9008C92.3078 76.9008 95.8 73.4086 95.8 69.1008C95.8 64.793 92.3078 61.3008 88 61.3008C83.6922 61.3008 80.2 64.793 80.2 69.1008C80.2 73.4086 83.6922 76.9008 88 76.9008Z" fill="white"/>
<path d="M95.5 81.6C97.8748 81.6 99.8 79.6748 99.8 77.3C99.8 74.9252 97.8748 73 95.5 73C93.1252 73 91.2 74.9252 91.2 77.3C91.2 79.6748 93.1252 81.6 95.5 81.6Z" fill="white"/>
<path d="M167 87.5992C172.3 87.0992 176.5 86.4992 179.8 85.8992C179.9 85.0992 179.9 84.3992 179.9 83.5992C179.9 81.1992 179.5 78.8992 178.9 76.6992C162.5 80.1992 143 78.0992 136.1 77.0992C135.1 81.1992 135.1 84.1992 135.1 84.1992C135.1 84.1992 144.2 89.4992 167 87.5992Z" fill="url(#paint79_linear_1_11933)"/>
<path d="M164.6 77.4984C168.908 77.4984 172.4 74.0063 172.4 69.6984C172.4 65.3906 168.908 61.8984 164.6 61.8984C160.292 61.8984 156.8 65.3906 156.8 69.6984C156.8 74.0063 160.292 77.4984 164.6 77.4984Z" fill="white"/>
<path d="M157.1 82.2016C159.475 82.2016 161.4 80.2764 161.4 77.9016C161.4 75.5267 159.475 73.6016 157.1 73.6016C154.725 73.6016 152.8 75.5267 152.8 77.9016C152.8 80.2764 154.725 82.2016 157.1 82.2016Z" fill="white"/>
</g>
<defs>
<linearGradient id="paint0_linear_1_11933" x1="126.093" y1="390.337" x2="126.093" y2="348.281" gradientUnits="userSpaceOnUse">
<stop stop-color="#E6E7E8"/>
<stop offset="1" stop-color="#A7A9AC"/>
</linearGradient>
<linearGradient id="paint1_linear_1_11933" x1="126.095" y1="383.524" x2="126.095" y2="360.392" gradientUnits="userSpaceOnUse">
<stop stop-color="#E6E7E8"/>
<stop offset="1" stop-color="#A7A9AC"/>
</linearGradient>
<radialGradient id="paint2_radial_1_11933" cx="0" cy="0" r="1" gradientUnits="userSpaceOnUse" gradientTransform="translate(230.004 108.336) scale(11.3169 8.69523)">
<stop stop-color="#FF8B6C"/>
<stop offset="1" stop-color="#CE4920"/>
</radialGradient>
<linearGradient id="paint3_linear_1_11933" x1="225.498" y1="118.501" x2="228.282" y2="110.319" gradientUnits="userSpaceOnUse">
<stop stop-color="#B32000"/>
<stop offset="1" stop-color="#C7392E"/>
</linearGradient>
<radialGradient id="paint4_radial_1_11933" cx="0" cy="0" r="1" gradientUnits="userSpaceOnUse" gradientTransform="translate(21.9173 108.57) scale(11.0998 8.5284)">
<stop stop-color="#FF8B6C"/>
<stop offset="1" stop-color="#CE4920"/>
</radialGradient>
<linearGradient id="paint5_linear_1_11933" x1="23.8934" y1="118.785" x2="23.7818" y2="110.659" gradientUnits="userSpaceOnUse">
<stop stop-color="#B32000"/>
<stop offset="1" stop-color="#C7392E"/>
</linearGradient>
<radialGradient id="paint6_radial_1_11933" cx="0" cy="0" r="1" gradientUnits="userSpaceOnUse" gradientTransform="translate(123.516 41.408) scale(132.048 187.572)">
<stop stop-color="#F28567"/>
<stop offset="1" stop-color="#BF441E"/>
</radialGradient>
<linearGradient id="paint7_linear_1_11933" x1="127.985" y1="8.86642" x2="127.985" y2="150.58" gradientUnits="userSpaceOnUse">
<stop stop-color="#B11A0A" stop-opacity="0.25"/>
<stop offset="1" stop-color="#B11A0A"/>
</linearGradient>
<linearGradient id="paint8_linear_1_11933" x1="89.1527" y1="60.9706" x2="89.1527" y2="79.3435" gradientUnits="userSpaceOnUse">
<stop stop-color="white"/>
<stop offset="1" stop-color="#DDC48C"/>
</linearGradient>
<radialGradient id="paint9_radial_1_11933" cx="0" cy="0" r="1" gradientUnits="userSpaceOnUse" gradientTransform="translate(87.7754 69.6056) scale(22.0167 14.3208)">
<stop stop-color="#6CAF11"/>
<stop offset="0.3299" stop-color="#6AAC10"/>
<stop offset="0.6098" stop-color="#64A10F"/>
<stop offset="0.8706" stop-color="#59900C"/>
<stop offset="1" stop-color="#52840A"/>
</radialGradient>
<linearGradient id="paint10_linear_1_11933" x1="163.827" y1="55.5415" x2="163.827" y2="74.7101" gradientUnits="userSpaceOnUse">
<stop stop-color="white"/>
<stop offset="1" stop-color="#DDC48C"/>
</linearGradient>
<radialGradient id="paint11_radial_1_11933" cx="0" cy="0" r="1" gradientUnits="userSpaceOnUse" gradientTransform="translate(165.054 69.1666) scale(18.5558 12.0496)">
<stop stop-color="#6CAF11"/>
<stop offset="0.3299" stop-color="#6AAC10"/>
<stop offset="0.6098" stop-color="#64A10F"/>
<stop offset="0.8706" stop-color="#59900C"/>
<stop offset="1" stop-color="#52840A"/>
</radialGradient>
<linearGradient id="paint12_linear_1_11933" x1="126.617" y1="109.175" x2="126.617" y2="167.342" gradientUnits="userSpaceOnUse">
<stop stop-color="#CE4920" stop-opacity="0"/>
<stop offset="1" stop-color="#9C1710"/>
</linearGradient>
<radialGradient id="paint13_radial_1_11933" cx="0" cy="0" r="1" gradientUnits="userSpaceOnUse" gradientTransform="translate(124.171 137.231) scale(160.99 100.824)">
<stop stop-color="#E04C89"/>
<stop offset="1" stop-color="#96003A"/>
</radialGradient>
<radialGradient id="paint14_radial_1_11933" cx="0" cy="0" r="1" gradientUnits="userSpaceOnUse" gradientTransform="translate(127.629 149.006) scale(60.1501 34.0335)">
<stop stop-color="#E04C89"/>
<stop offset="1" stop-color="#96003A"/>
</radialGradient>
<linearGradient id="paint15_linear_1_11933" x1="75.4883" y1="126.022" x2="90.8379" y2="126.022" gradientUnits="userSpaceOnUse">
<stop stop-color="#CEBC99"/>
<stop offset="0.0469222" stop-color="#D8CAAF"/>
<stop offset="0.1236" stop-color="#E6DDCC"/>
<stop offset="0.2054" stop-color="#F1ECE2"/>
<stop offset="0.2937" stop-color="#F9F7F3"/>
<stop offset="0.393" stop-color="#FEFDFC"/>
<stop offset="0.5266" stop-color="white"/>
<stop offset="0.6615" stop-color="#FEFDFC"/>
<stop offset="0.7491" stop-color="#FAF8F4"/>
<stop offset="0.8233" stop-color="#F2EEE5"/>
<stop offset="0.8899" stop-color="#E8E0D0"/>
<stop offset="0.951" stop-color="#DBCEB5"/>
<stop offset="1" stop-color="#CEBC99"/>
</linearGradient>
<linearGradient id="paint16_linear_1_11933" x1="165.752" y1="118.582" x2="182.073" y2="118.582" gradientUnits="userSpaceOnUse">
<stop stop-color="#CEBC99"/>
<stop offset="0.0469222" stop-color="#D8CAAF"/>
<stop offset="0.1236" stop-color="#E6DDCC"/>
<stop offset="0.2054" stop-color="#F1ECE2"/>
<stop offset="0.2937" stop-color="#F9F7F3"/>
<stop offset="0.393" stop-color="#FEFDFC"/>
<stop offset="0.5266" stop-color="white"/>
<stop offset="0.6615" stop-color="#FEFDFC"/>
<stop offset="0.7491" stop-color="#FAF8F4"/>
<stop offset="0.8233" stop-color="#F2EEE5"/>
<stop offset="0.8899" stop-color="#E8E0D0"/>
<stop offset="0.951" stop-color="#DBCEB5"/>
<stop offset="1" stop-color="#CEBC99"/>
</linearGradient>
<linearGradient id="paint17_linear_1_11933" x1="110.226" y1="13.1515" x2="139.474" y2="13.1515" gradientUnits="userSpaceOnUse">
<stop stop-color="#CEBC99"/>
<stop offset="0.5266" stop-color="white"/>
<stop offset="1" stop-color="#CEBC99"/>
</linearGradient>
<linearGradient id="paint18_linear_1_11933" x1="124.855" y1="17.051" x2="124.855" y2="3.45449" gradientUnits="userSpaceOnUse">
<stop stop-color="white" stop-opacity="0"/>
<stop offset="1" stop-color="white"/>
</linearGradient>
<linearGradient id="paint19_linear_1_11933" x1="192.143" y1="180.676" x2="85.0064" y2="301.604" gradientUnits="userSpaceOnUse">
<stop stop-color="#961307" stop-opacity="0.2"/>
<stop offset="0.0676018" stop-color="#961307" stop-opacity="0.2141"/>
<stop offset="0.4783" stop-color="#961307" stop-opacity="0.3"/>
<stop offset="1" stop-color="#8C1306"/>
</linearGradient>
<linearGradient id="paint20_linear_1_11933" x1="86.6684" y1="203.011" x2="86.6684" y2="286.368" gradientUnits="userSpaceOnUse">
<stop stop-color="#7A0400" stop-opacity="0"/>
<stop offset="0.9101" stop-color="#710300" stop-opacity="0.9101"/>
<stop offset="1" stop-color="#700300"/>
</linearGradient>
<linearGradient id="paint21_linear_1_11933" x1="124.844" y1="322.27" x2="134.526" y2="265.082" gradientUnits="userSpaceOnUse">
<stop stop-color="#770501"/>
<stop offset="1" stop-color="#991000"/>
</linearGradient>
<linearGradient id="paint22_linear_1_11933" x1="89.102" y1="54.1746" x2="89.102" y2="89.2696" gradientUnits="userSpaceOnUse">
<stop stop-color="#B08BAB"/>
<stop offset="0.0710423" stop-color="#A07F9B" stop-opacity="0.9929"/>
<stop offset="0.2465" stop-color="#7E647B" stop-opacity="0.9754"/>
<stop offset="0.426" stop-color="#644F61" stop-opacity="0.9574"/>
<stop offset="0.609" stop-color="#51414F" stop-opacity="0.9391"/>
<stop offset="0.7975" stop-color="#463844" stop-opacity="0.9203"/>
<stop offset="1" stop-color="#423540" stop-opacity="0.9"/>
</linearGradient>
<linearGradient id="paint23_linear_1_11933" x1="163.929" y1="53.9276" x2="163.929" y2="87.944" gradientUnits="userSpaceOnUse">
<stop stop-color="#B08BAB"/>
<stop offset="0.0710423" stop-color="#A07F9B" stop-opacity="0.9929"/>
<stop offset="0.2465" stop-color="#7E647B" stop-opacity="0.9754"/>
<stop offset="0.426" stop-color="#644F61" stop-opacity="0.9574"/>
<stop offset="0.609" stop-color="#51414F" stop-opacity="0.9391"/>
<stop offset="0.7975" stop-color="#463844" stop-opacity="0.9203"/>
<stop offset="1" stop-color="#423540" stop-opacity="0.9"/>
</linearGradient>
<linearGradient id="paint24_linear_1_11933" x1="126.553" y1="61.009" x2="126.553" y2="89.4155" gradientUnits="userSpaceOnUse">
<stop stop-color="#CE4920" stop-opacity="0.3"/>
<stop offset="1" stop-color="#AD1813"/>
</linearGradient>
<radialGradient id="paint25_radial_1_11933" cx="0" cy="0" r="1" gradientUnits="userSpaceOnUse" gradientTransform="translate(133.006 160.902) scale(60.8421 33.6262)">
<stop stop-color="#E04C89"/>
<stop offset="1" stop-color="#96003A"/>
</radialGradient>
<radialGradient id="paint26_radial_1_11933" cx="0" cy="0" r="1" gradientUnits="userSpaceOnUse" gradientTransform="translate(127.671 158.373) scale(61.7754 36.3737)">
<stop stop-color="#E04C89"/>
<stop offset="1" stop-color="#96003A"/>
</radialGradient>
<radialGradient id="paint27_radial_1_11933" cx="0" cy="0" r="1" gradientUnits="userSpaceOnUse" gradientTransform="translate(133.648 116.334) scale(41.6971 5.19525)">
<stop stop-color="#E04C89"/>
<stop offset="1" stop-color="#96003A"/>
</radialGradient>
<radialGradient id="paint28_radial_1_11933" cx="0" cy="0" r="1" gradientUnits="userSpaceOnUse" gradientTransform="translate(130.511 161.26) scale(47.6658 22.6539)">
<stop stop-color="#E04C89"/>
<stop offset="1" stop-color="#96003A"/>
</radialGradient>
<linearGradient id="paint29_linear_1_11933" x1="130.558" y1="179.376" x2="130.558" y2="106.493" gradientUnits="userSpaceOnUse">
<stop stop-color="white" stop-opacity="0.4"/>
<stop offset="1" stop-color="white"/>
</linearGradient>
<radialGradient id="paint30_radial_1_11933" cx="0" cy="0" r="1" gradientUnits="userSpaceOnUse" gradientTransform="translate(130.641 161.265) rotate(90) scale(7.00436 110.278)">
<stop stop-color="#A33665"/>
<stop offset="1" stop-color="#7D002F"/>
</radialGradient>
<linearGradient id="paint31_linear_1_11933" x1="129.108" y1="135.107" x2="129.108" y2="163.509" gradientUnits="userSpaceOnUse">
<stop stop-color="#361221"/>
<stop offset="1" stop-color="#96003A"/>
</linearGradient>
<linearGradient id="paint32_linear_1_11933" x1="122.336" y1="106.907" x2="122.336" y2="137.919" gradientUnits="userSpaceOnUse">
<stop stop-color="white" stop-opacity="0"/>
<stop offset="1" stop-color="white"/>
</linearGradient>
<linearGradient id="paint33_linear_1_11933" x1="128.853" y1="184.336" x2="128.853" y2="230.989" gradientUnits="userSpaceOnUse">
<stop stop-color="white" stop-opacity="0"/>
<stop offset="1" stop-color="white"/>
</linearGradient>
<linearGradient id="paint34_linear_1_11933" x1="86.4701" y1="232.576" x2="86.4701" y2="160.56" gradientUnits="userSpaceOnUse">
<stop stop-color="white" stop-opacity="0"/>
<stop offset="1" stop-color="white" stop-opacity="0.3"/>
</linearGradient>
<linearGradient id="paint35_linear_1_11933" x1="133.062" y1="269.141" x2="133.062" y2="234.693" gradientUnits="userSpaceOnUse">
<stop stop-color="#CE4920" stop-opacity="0"/>
<stop offset="1" stop-opacity="0.8"/>
</linearGradient>
<linearGradient id="paint36_linear_1_11933" x1="195.977" y1="181.75" x2="182.278" y2="181.68" gradientUnits="userSpaceOnUse">
<stop stop-color="white" stop-opacity="0.7861"/>
<stop offset="1" stop-color="#FFADA6" stop-opacity="0.69"/>
</linearGradient>
<linearGradient id="paint37_linear_1_11933" x1="188.843" y1="168.334" x2="188.843" y2="186.145" gradientUnits="userSpaceOnUse">
<stop offset="0.1255" stop-color="#85211B"/>
<stop offset="1" stop-color="white"/>
</linearGradient>
<linearGradient id="paint38_linear_1_11933" x1="188.879" y1="187.315" x2="188.879" y2="210.19" gradientUnits="userSpaceOnUse">
<stop stop-color="white" stop-opacity="0"/>
<stop offset="1" stop-color="white"/>
</linearGradient>
<linearGradient id="paint39_linear_1_11933" x1="130.553" y1="181.929" x2="130.553" y2="150.735" gradientUnits="userSpaceOnUse">
<stop stop-color="white" stop-opacity="0.7"/>
<stop offset="1" stop-color="white"/>
</linearGradient>
<linearGradient id="paint40_linear_1_11933" x1="127.475" y1="112.843" x2="126.678" y2="97.7242" gradientUnits="userSpaceOnUse">
<stop stop-color="#A6261A" stop-opacity="0.5"/>
<stop offset="0.9987" stop-color="#AB2015" stop-opacity="0.5004"/>
<stop offset="1" stop-color="#AB2015" stop-opacity="0.5"/>
</linearGradient>
<linearGradient id="paint41_linear_1_11933" x1="127.029" y1="92.6603" x2="127.029" y2="110.511" gradientUnits="userSpaceOnUse">
<stop stop-opacity="0.3"/>
<stop offset="1" stop-color="#B82C1E" stop-opacity="0.8"/>
</linearGradient>
<radialGradient id="paint42_radial_1_11933" cx="0" cy="0" r="1" gradientUnits="userSpaceOnUse" gradientTransform="translate(130.511 161.279) scale(100.096 47.5598)">
<stop stop-color="#B3174B"/>
<stop offset="1" stop-color="#2B0011"/>
</radialGradient>
<radialGradient id="paint43_radial_1_11933" cx="0" cy="0" r="1" gradientUnits="userSpaceOnUse" gradientTransform="translate(134.019 182.558) scale(28.3317 53.8614)">
<stop stop-opacity="0"/>
<stop offset="1"/>
</radialGradient>
<linearGradient id="paint44_linear_1_11933" x1="119.988" y1="237.979" x2="146.191" y2="237.979" gradientUnits="userSpaceOnUse">
<stop stop-color="#3ED8BB"/>
<stop offset="1" stop-color="#3FB5BA"/>
</linearGradient>
<linearGradient id="paint45_linear_1_11933" x1="120.248" y1="224.664" x2="145.278" y2="224.664" gradientUnits="userSpaceOnUse">
<stop stop-color="#F6D62C"/>
<stop offset="0.3846" stop-color="#FBB316"/>
<stop offset="0.6509" stop-color="#F6D60E"/>
<stop offset="1" stop-color="#FBB316"/>
</linearGradient>
<linearGradient id="paint46_linear_1_11933" x1="131.684" y1="241.779" x2="136.957" y2="241.779" gradientUnits="userSpaceOnUse">
<stop stop-color="#6CAF11"/>
<stop offset="1" stop-color="#52840A"/>
</linearGradient>
<linearGradient id="paint47_linear_1_11933" x1="124.049" y1="239.639" x2="129.543" y2="239.639" gradientUnits="userSpaceOnUse">
<stop stop-color="#6CAF11"/>
<stop offset="1" stop-color="#52840A"/>
</linearGradient>
<linearGradient id="paint48_linear_1_11933" x1="138.883" y1="234.397" x2="142.499" y2="234.397" gradientUnits="userSpaceOnUse">
<stop stop-color="#FE980E"/>
<stop offset="1" stop-color="#FF5906"/>
</linearGradient>
<linearGradient id="paint49_linear_1_11933" x1="131.686" y1="234.547" x2="136.446" y2="234.547" gradientUnits="userSpaceOnUse">
<stop stop-color="#FE980E"/>
<stop offset="1" stop-color="#FF5906"/>
</linearGradient>
<linearGradient id="paint50_linear_1_11933" x1="123.542" y1="232.271" x2="129.673" y2="232.271" gradientUnits="userSpaceOnUse">
<stop stop-color="#FE980E"/>
<stop offset="1" stop-color="#FF5906"/>
</linearGradient>
<linearGradient id="paint51_linear_1_11933" x1="120.223" y1="187.927" x2="148.076" y2="187.927" gradientUnits="userSpaceOnUse">
<stop stop-color="#3ED8BB"/>
<stop offset="0.3846" stop-color="#3FB5BA"/>
<stop offset="0.6509" stop-color="#3ED8BB"/>
<stop offset="1" stop-color="#3FB5BA"/>
</linearGradient>
<linearGradient id="paint52_linear_1_11933" x1="134.28" y1="226.923" x2="134.28" y2="214.686" gradientUnits="userSpaceOnUse">
<stop stop-color="white" stop-opacity="0.3387"/>
<stop offset="1" stop-color="#2CAB98"/>
</linearGradient>
<linearGradient id="paint53_linear_1_11933" x1="120.211" y1="201.491" x2="148.062" y2="201.491" gradientUnits="userSpaceOnUse">
<stop stop-color="#6CAF11"/>
<stop offset="0.3846" stop-color="#52840A"/>
<stop offset="0.6509" stop-color="#6CAF11"/>
<stop offset="1" stop-color="#52840A"/>
</linearGradient>
<linearGradient id="paint54_linear_1_11933" x1="120.353" y1="201.626" x2="148.005" y2="201.626" gradientUnits="userSpaceOnUse">
<stop stop-color="#81C819"/>
<stop offset="0.3846" stop-color="#71B612"/>
<stop offset="0.6509" stop-color="#81C819"/>
<stop offset="1" stop-color="#71B612"/>
</linearGradient>
<linearGradient id="paint55_linear_1_11933" x1="121.303" y1="173.819" x2="147.163" y2="173.819" gradientUnits="userSpaceOnUse">
<stop stop-color="#F6D62C"/>
<stop offset="0.3846" stop-color="#FBB316"/>
<stop offset="0.6509" stop-color="#F6D60E"/>
<stop offset="1" stop-color="#FBB316"/>
</linearGradient>
<linearGradient id="paint56_linear_1_11933" x1="120.664" y1="190.823" x2="147.661" y2="190.823" gradientUnits="userSpaceOnUse">
<stop stop-color="#FE980E"/>
<stop offset="0.3846" stop-color="#FF5906"/>
<stop offset="0.6509" stop-color="#FE980E"/>
<stop offset="1" stop-color="#FF5906"/>
</linearGradient>
<linearGradient id="paint57_linear_1_11933" x1="120.664" y1="190.823" x2="147.661" y2="190.823" gradientUnits="userSpaceOnUse">
<stop stop-color="#FE980E"/>
<stop offset="0.3846" stop-color="#FF5906"/>
<stop offset="0.6509" stop-color="#FE980E"/>
<stop offset="1" stop-color="#FF5906"/>
</linearGradient>
<radialGradient id="paint58_radial_1_11933" cx="0" cy="0" r="1" gradientUnits="userSpaceOnUse" gradientTransform="translate(124.948 193.231) scale(1.28122 2.13257)">
<stop stop-color="white" stop-opacity="0"/>
<stop offset="0.9171" stop-color="white" stop-opacity="0.9171"/>
<stop offset="1" stop-color="white"/>
</radialGradient>
<radialGradient id="paint59_radial_1_11933" cx="0" cy="0" r="1" gradientUnits="userSpaceOnUse" gradientTransform="translate(137.524 190.79) scale(1.30113 0.75385)">
<stop stop-color="white" stop-opacity="0"/>
<stop offset="0.9171" stop-color="white" stop-opacity="0.9171"/>
<stop offset="1" stop-color="white"/>
</radialGradient>
<radialGradient id="paint60_radial_1_11933" cx="0" cy="0" r="1" gradientUnits="userSpaceOnUse" gradientTransform="translate(143.6 193.658) scale(2.34434 5.36847)">
<stop stop-color="white" stop-opacity="0"/>
<stop offset="0.9171" stop-color="white" stop-opacity="0.9171"/>
<stop offset="1" stop-color="white"/>
</radialGradient>
<radialGradient id="paint61_radial_1_11933" cx="0" cy="0" r="1" gradientUnits="userSpaceOnUse" gradientTransform="translate(143.007 198.554) scale(1.44121 1.6325)">
<stop stop-color="white" stop-opacity="0"/>
<stop offset="0.9171" stop-color="white" stop-opacity="0.9171"/>
<stop offset="1" stop-color="white"/>
</radialGradient>
<radialGradient id="paint62_radial_1_11933" cx="0" cy="0" r="1" gradientUnits="userSpaceOnUse" gradientTransform="translate(124.399 200.263) scale(2.14483 5.17442)">
<stop stop-color="white" stop-opacity="0"/>
<stop offset="0.9171" stop-color="white" stop-opacity="0.9171"/>
<stop offset="1" stop-color="white"/>
</radialGradient>
<radialGradient id="paint63_radial_1_11933" cx="0" cy="0" r="1" gradientUnits="userSpaceOnUse" gradientTransform="translate(138.711 202.904) scale(1.23789 2.12314)">
<stop stop-color="white" stop-opacity="0"/>
<stop offset="0.9171" stop-color="white" stop-opacity="0.9171"/>
<stop offset="1" stop-color="white"/>
</radialGradient>
<radialGradient id="paint64_radial_1_11933" cx="0" cy="0" r="1" gradientUnits="userSpaceOnUse" gradientTransform="translate(128.543 209.598) scale(1.90306 3.0126)">
<stop stop-color="white" stop-opacity="0"/>
<stop offset="0.9171" stop-color="white" stop-opacity="0.9171"/>
<stop offset="1" stop-color="white"/>
</radialGradient>
<radialGradient id="paint65_radial_1_11933" cx="0" cy="0" r="1" gradientUnits="userSpaceOnUse" gradientTransform="translate(130.781 208.761) scale(0.703974 0.774161)">
<stop stop-color="white" stop-opacity="0"/>
<stop offset="0.9171" stop-color="white" stop-opacity="0.9171"/>
<stop offset="1" stop-color="white"/>
</radialGradient>
<radialGradient id="paint66_radial_1_11933" cx="0" cy="0" r="1" gradientUnits="userSpaceOnUse" gradientTransform="translate(142.071 209.08) scale(1.24174 1.37631)">
<stop stop-color="white" stop-opacity="0"/>
<stop offset="0.9171" stop-color="white" stop-opacity="0.9171"/>
<stop offset="1" stop-color="white"/>
</radialGradient>
<radialGradient id="paint67_radial_1_11933" cx="0" cy="0" r="1" gradientUnits="userSpaceOnUse" gradientTransform="translate(142.683 214.293) scale(1.31114 2.34937)">
<stop stop-color="white" stop-opacity="0"/>
<stop offset="0.9171" stop-color="white" stop-opacity="0.9171"/>
<stop offset="1" stop-color="white"/>
</radialGradient>
<radialGradient id="paint68_radial_1_11933" cx="0" cy="0" r="1" gradientUnits="userSpaceOnUse" gradientTransform="translate(128.428 165.316) scale(2.68434 2.1358)">
<stop stop-color="white" stop-opacity="0"/>
<stop offset="0.9171" stop-color="white" stop-opacity="0.9171"/>
<stop offset="1" stop-color="white"/>
</radialGradient>
<radialGradient id="paint69_radial_1_11933" cx="0" cy="0" r="1" gradientUnits="userSpaceOnUse" gradientTransform="translate(129.816 173.154) scale(1.16751 1.53881)">
<stop stop-color="white" stop-opacity="0"/>
<stop offset="0.9171" stop-color="white" stop-opacity="0.9171"/>
<stop offset="1" stop-color="white"/>
</radialGradient>
<radialGradient id="paint70_radial_1_11933" cx="0" cy="0" r="1" gradientUnits="userSpaceOnUse" gradientTransform="translate(122.113 180.247) scale(1.11865 2.16032)">
<stop stop-color="white" stop-opacity="0"/>
<stop offset="0.9171" stop-color="white" stop-opacity="0.9171"/>
<stop offset="1" stop-color="white"/>
</radialGradient>
<radialGradient id="paint71_radial_1_11933" cx="0" cy="0" r="1" gradientUnits="userSpaceOnUse" gradientTransform="translate(135.77 176.742) scale(1.28855 1.34175)">
<stop stop-color="white" stop-opacity="0"/>
<stop offset="0.9171" stop-color="white" stop-opacity="0.9171"/>
<stop offset="1" stop-color="white"/>
</radialGradient>
<radialGradient id="paint72_radial_1_11933" cx="0" cy="0" r="1" gradientUnits="userSpaceOnUse" gradientTransform="translate(141.605 177.267) scale(1.0971 1.70407)">
<stop stop-color="white" stop-opacity="0"/>
<stop offset="0.9171" stop-color="white" stop-opacity="0.9171"/>
<stop offset="1" stop-color="white"/>
</radialGradient>
<radialGradient id="paint73_radial_1_11933" cx="0" cy="0" r="1" gradientUnits="userSpaceOnUse" gradientTransform="translate(125.611 183.715) scale(1.27371 1.13689)">
<stop stop-color="white" stop-opacity="0"/>
<stop offset="0.9171" stop-color="white" stop-opacity="0.9171"/>
<stop offset="1" stop-color="white"/>
</radialGradient>
<radialGradient id="paint74_radial_1_11933" cx="0" cy="0" r="1" gradientUnits="userSpaceOnUse" gradientTransform="translate(133.954 183.326) scale(1.02288 1.7689)">
<stop stop-color="white" stop-opacity="0"/>
<stop offset="0.9171" stop-color="white" stop-opacity="0.9171"/>
<stop offset="1" stop-color="white"/>
</radialGradient>
<radialGradient id="paint75_radial_1_11933" cx="0" cy="0" r="1" gradientUnits="userSpaceOnUse" gradientTransform="translate(143.445 181.158) scale(1.51722 1.29953)">
<stop stop-color="white" stop-opacity="0"/>
<stop offset="0.9171" stop-color="white" stop-opacity="0.9171"/>
<stop offset="1" stop-color="white"/>
</radialGradient>
<linearGradient id="paint76_linear_1_11933" x1="134.149" y1="218.033" x2="134.149" y2="216.616" gradientUnits="userSpaceOnUse">
<stop stop-color="#E3C091"/>
<stop offset="1" stop-color="#7F5327"/>
</linearGradient>
<radialGradient id="paint77_radial_1_11933" cx="0" cy="0" r="1" gradientUnits="userSpaceOnUse" gradientTransform="translate(133.854 221.601) scale(2.53165 2.68761)">
<stop stop-color="white" stop-opacity="0"/>
<stop offset="0.9171" stop-color="white" stop-opacity="0.9171"/>
<stop offset="1" stop-color="white"/>
</radialGradient>
<linearGradient id="paint78_linear_1_11933" x1="95.6056" y1="75.225" x2="95.6056" y2="86.8939" gradientUnits="userSpaceOnUse">
<stop stop-opacity="0.03"/>
<stop offset="0.8884" stop-opacity="0.4475"/>
<stop offset="1" stop-opacity="0.5"/>
</linearGradient>
<linearGradient id="paint79_linear_1_11933" x1="157.457" y1="73.8076" x2="157.457" y2="83.9567" gradientUnits="userSpaceOnUse">
<stop stop-opacity="0"/>
<stop offset="1" stop-opacity="0.4"/>
</linearGradient>
<clipPath id="clip0_1_11933">
<rect width="256" height="389" fill="white"/>
</clipPath>
</defs>
</svg>
