<svg width="256" height="256" viewBox="0 0 256 256" fill="none" xmlns="http://www.w3.org/2000/svg">
<g clip-path="url(#clip0_1_12172)">
<path d="M65.2133 221.373L11.563 80.2954C4.7565 62.4206 7.03233 42.3561 17.6694 26.4596C28.3064 10.5632 45.9862 0.805076 65.1067 0.27739C91.1759 -0.39134 114.593 16.1298 122.703 40.913L169.661 184.337C179.127 213.268 75.8261 249.317 65.2133 221.373Z" fill="url(#paint0_linear_1_12172)"/>
<path d="M226.191 176.606L94.7051 247.718C79.1568 256.128 60.8098 257.687 44.0656 252.021C27.3213 246.356 13.6906 233.977 6.44338 217.855C-0.697602 202.042 -1.08164 184 5.37996 167.898C11.8416 151.795 24.5901 139.023 40.6814 132.531L179.34 76.5369C202.929 67.0179 229.968 74.8595 244.803 95.5215C254.12 108.443 257.417 124.751 253.854 140.277C250.29 155.803 240.21 169.041 226.191 176.606Z" fill="url(#paint1_linear_1_12172)"/>
<path d="M176.514 177.832L40.7347 112.213C23.5192 103.873 11.4064 87.715 8.22885 68.8522C5.05135 49.9894 11.2023 30.7555 24.7356 17.2363C43.1866 -1.20589 71.5745 -5.3076 94.4917 7.15736L227.018 79.1496C253.697 93.6733 263.75 126.942 249.576 153.808C235.67 180.188 203.364 190.811 176.514 177.832Z" fill="url(#paint2_linear_1_12172)"/>
<path d="M37.5882 250.198C19.4084 241.904 6.12173 225.625 1.63872 206.153C-2.84428 186.68 1.98659 166.231 14.7095 150.822L129.583 12.0107C138.769 0.88156 154.267 -2.72256 167.421 3.21165C182.648 10.0749 190.078 27.4596 184.513 43.2073L124.623 213.136C118.68 230.128 105.853 243.831 89.29 250.884C72.7267 257.937 53.9586 257.688 37.5882 250.198Z" fill="url(#paint3_linear_1_12172)"/>
<path d="M48.041 48.0078H208.032V207.991H48.041V48.0078Z" fill="black"/>
<path d="M67.9865 177.753H127.983V187.752H67.9865V177.753ZM84.1189 79.9767H65.7999V67.7647H115.664V79.9767H97.3448V127.945H84.1189V79.9767ZM120.648 98.5201L120.65 97.8681C120.494 89.522 123.759 81.4754 129.688 75.598C135.616 69.7206 143.69 66.5242 152.035 66.7514C160.905 66.2982 169.545 69.6664 175.767 76.0038L167.341 85.7094C163.294 81.5097 157.759 79.0679 151.928 78.9101C141.908 78.9101 134.652 87.1497 134.492 97.2342L134.489 97.7614C134.489 108.08 141.636 116.666 151.928 116.666C158.026 116.666 162.029 114.571 166.165 111.05L166.803 110.497C167.123 110.215 167.444 109.925 167.768 109.627L176.194 118.133C170.033 125.284 160.932 129.215 151.502 128.798C143.294 128.929 135.383 125.731 129.571 119.935C123.875 114.254 120.671 106.551 120.648 98.5201Z" fill="white"/>
</g>
<defs>
<linearGradient id="paint0_linear_1_12172" x1="8647.36" y1="15565.9" x2="6571.54" y2="9422.16" gradientUnits="userSpaceOnUse">
<stop stop-color="#07C3F2"/>
<stop offset="1" stop-color="#6B57FF"/>
</linearGradient>
<linearGradient id="paint1_linear_1_12172" x1="9106.36" y1="9934.79" x2="16187.6" y2="6379.93" gradientUnits="userSpaceOnUse">
<stop stop-color="#07C3F2"/>
<stop offset="1" stop-color="#009AE5"/>
</linearGradient>
<linearGradient id="paint2_linear_1_12172" x1="18398" y1="11761.8" x2="7565.82" y2="3584.73" gradientUnits="userSpaceOnUse">
<stop stop-color="#009AE5"/>
<stop offset="1" stop-color="#6B57FF"/>
</linearGradient>
<linearGradient id="paint3_linear_1_12172" x1="7385.09" y1="20636.1" x2="15422.4" y2="4269.16" gradientUnits="userSpaceOnUse">
<stop offset="0.3" stop-color="#07C3F2"/>
<stop offset="0.6" stop-color="#3BEA62"/>
</linearGradient>
<clipPath id="clip0_1_12172">
<rect width="256" height="256" fill="white"/>
</clipPath>
</defs>
</svg>
