<svg width="256" height="256" viewBox="0 0 256 256" fill="none" xmlns="http://www.w3.org/2000/svg">
<g clip-path="url(#clip0_1_12183)">
<path d="M128 0C198.776 0 256 57.2235 256 128C256 198.776 198.776 256.001 128 256.001C57.2235 256.215 0 198.776 0 128C0 57.2235 57.2235 0 128 0Z" fill="white"/>
<path d="M126.279 112.081C133.378 112.081 137.466 108.209 137.466 101.54C137.681 95.9468 133.378 91.214 127.785 90.9989C127.355 90.9989 126.924 90.9989 126.709 90.9989H110.575V79.167C111.005 72.4981 105.842 66.4745 98.9581 66.2594C92.2892 65.8292 86.2657 70.9922 86.0505 77.8762C86.0505 78.3065 86.0505 78.9519 86.0505 79.3821V161.56C86.0505 181.352 94.0102 190.172 111.651 190.172C118.319 190.387 124.988 188.666 130.797 185.439C133.593 183.718 135.314 180.491 135.099 177.264C135.099 171.886 131.442 166.078 126.494 166.078C125.849 166.078 124.988 166.293 124.343 166.508L123.482 166.938C121.761 167.799 119.61 168.444 117.674 168.444C114.447 168.444 110.79 167.369 110.79 158.548V112.081H126.279Z" fill="#1D1C39"/>
<path d="M178.985 146.715C167.153 146.715 157.472 156.396 157.472 168.227C157.472 180.059 167.153 189.74 178.985 189.74C190.817 189.74 200.497 180.059 200.497 168.227C200.497 156.396 190.817 146.715 178.985 146.715Z" fill="#FF22B1"/>
</g>
<defs>
<clipPath id="clip0_1_12183">
<rect width="256" height="256" fill="white"/>
</clipPath>
</defs>
</svg>
