<svg width="256" height="274" viewBox="0 0 256 274" fill="none" xmlns="http://www.w3.org/2000/svg">
<g clip-path="url(#clip0_1_12196)">
<path d="M145.726 42.0664V84.136L218.587 126.206V84.136L145.726 42.0664ZM0 84.136V126.206L36.4304 147.236V105.171L0 84.136ZM109.291 105.171L72.8609 126.206V252.406L109.291 273.44V189.306L145.726 210.34V168.271L109.291 147.236V105.171Z" fill="#E55B2D"/>
<path d="M145.726 42.0664L36.4304 105.171V147.236L109.291 105.171V147.236L145.726 126.206V42.0664ZM255.022 63.1012L218.587 84.136V126.206L255.022 105.171V63.1012ZM182.157 147.236L145.726 168.271V210.34L182.157 189.306V147.236ZM145.726 210.34L109.291 189.306V273.44L145.726 252.406V210.34Z" fill="#ED8E24"/>
<path d="M145.726 0L0 84.1348L36.4304 105.17L145.726 42.0652L218.587 84.1348L255.022 63.1L145.726 0ZM145.726 126.204L109.291 147.235L145.726 168.27L182.157 147.235L145.726 126.204Z" fill="#F8BF3C"/>
</g>
<defs>
<clipPath id="clip0_1_12196">
<rect width="256" height="274" fill="white"/>
</clipPath>
</defs>
</svg>
