<svg width="256" height="210" viewBox="0 0 256 210" fill="none" xmlns="http://www.w3.org/2000/svg">
<g clip-path="url(#clip0_1_12201)">
<path d="M251 0H5C2.23858 0 0 2.23858 0 5V204.342C0 207.104 2.23858 209.342 5 209.342H251C253.761 209.342 256 207.104 256 204.342V5C256 2.23858 253.761 0 251 0Z" fill="black"/>
<path d="M28.2415 21.772C27.3857 20.9162 26.353 20.4883 25.1433 20.4883C23.9337 20.4883 22.8968 20.9203 22.0328 21.7843C21.1811 22.636 20.7491 23.6729 20.7491 24.8825C20.7491 26.0921 21.1811 27.129 22.0328 27.9807L35.4747 41.4225L22.0451 54.852C21.1811 55.7161 20.7491 56.7529 20.7368 57.9625C20.7491 59.1722 21.1811 60.209 22.0328 61.0607C22.8968 61.9124 23.9337 62.3444 25.131 62.3568C26.353 62.3568 27.3898 61.9247 28.2538 61.0607L43.1892 46.113C46.3244 42.9901 46.3244 39.8549 43.1892 36.7197L28.2415 21.772ZM86.7857 54.8767C85.9217 54.0127 84.8725 53.5807 83.6505 53.5807V53.5745H54.8166V53.5807C53.5946 53.5807 52.5578 54.0127 51.6937 54.8767C50.8297 55.7407 50.3977 56.7776 50.3977 57.9996C50.3977 59.2215 50.8297 60.2707 51.6937 61.1348C52.5578 61.9988 53.5946 62.4308 54.8166 62.4308V62.4246H83.6505V62.4308C84.8725 62.4308 85.9217 61.9988 86.7857 61.1348C87.6498 60.2707 88.0818 59.2215 88.0818 57.9996C88.0818 56.7776 87.6498 55.7407 86.7857 54.8767Z" fill="white"/>
</g>
<defs>
<clipPath id="clip0_1_12201">
<rect width="256" height="210" fill="white"/>
</clipPath>
</defs>
</svg>
