<svg width="512" height="123" viewBox="0 0 512 123" fill="none" xmlns="http://www.w3.org/2000/svg">
<g clip-path="url(#clip0_1_12209)">
<path d="M207.785 45.3998C223.061 45.3998 226.481 54.3074 226.481 64.5871V74.8258H199.86V77.2831C199.962 82.9759 202.01 85.2284 209.259 85.2284C214.204 85.2035 219.117 84.4444 223.839 82.9759L225.702 91.9859C220.081 94.0123 214.149 95.038 208.174 95.0169C193.205 95.0169 188.003 88.0748 188.003 76.5869V63.9933C188.003 53.9184 192.508 45.3998 207.785 45.3998ZM308.165 45.3793C323.134 45.3793 327.557 50.6625 327.557 62.6008L327.516 94.0337H317.728L316.848 90.7982C312.625 93.5467 307.695 95.012 302.657 95.0166C293.954 95.0166 290.227 89.0372 290.227 80.8257C290.227 71.1399 294.445 67.413 304.131 67.413H315.578V62.4165C315.578 57.1333 314.104 55.2699 306.465 55.2699C302.022 55.319 297.599 55.8146 293.258 56.7443L291.783 47.6318C297.12 46.1573 302.629 45.3998 308.165 45.3793ZM387.515 45.3793C403.856 45.3793 408.259 54.3894 408.259 64.1776V76.2183C408.279 86.0065 403.856 95.0166 387.515 95.0166C371.133 95.0166 366.772 86.0065 366.772 76.2183V64.1776C366.772 54.3894 371.174 45.3793 387.515 45.3793ZM198.017 28.8335V39.707H179.792V94.0337H167.506L167.465 39.707H149.26V28.8335H198.017ZM355.222 24.9221C358.682 24.9105 362.127 25.3721 365.461 26.2943L364.212 35.4887C361.957 35.0036 359.659 34.7429 357.352 34.7105C352.663 34.7105 351.966 36.7583 351.966 40.3828V46.3622H364.109L363.434 55.8637H351.987V94.0337H340.048V55.8637H332.41V46.3622H340.048V39.707C340.048 29.8164 344.656 24.9221 355.222 24.9221ZM482.039 50.4782C487.997 47.4261 494.54 45.6874 501.226 45.3793C509.151 45.3793 511.998 50.9491 511.998 59.4678V94.0337H500.059V60.7578C500.059 58.2186 498.974 56.949 496.25 56.949C491.867 57.4324 487.633 58.8274 483.821 61.0445V94.0337H471.8V60.7578C471.8 58.2186 470.715 56.949 467.992 56.949C463.616 57.4692 459.391 58.8616 455.562 61.0445V94.0337H443.623V46.3622H452.736L453.903 50.4577C459.854 47.4474 466.369 45.7175 473.029 45.3793C476.803 45.023 480.401 47.0584 482.039 50.4782ZM257.176 45.3793L258.405 56.3552C254.008 58.3397 249.77 60.6606 245.729 63.297V94.0132H233.791V46.3622H243.866L244.644 51.6454C248.529 49.0161 252.742 46.9093 257.176 45.3793ZM286.377 45.3793L287.565 56.3552C283.181 58.3412 278.957 60.662 274.93 63.297V94.0132H262.992V46.3622H273.067L273.845 51.6454C277.729 49.0161 281.943 46.9093 286.377 45.3793ZM437.808 45.3793L438.996 56.3552C434.612 58.3412 430.388 60.662 426.361 63.297V94.0132H414.423V46.3622H424.497L425.276 51.6454C429.16 49.0157 433.374 46.9089 437.808 45.3793ZM315.578 76.0135H306.773C302.861 76.0135 301.776 77.0988 301.776 80.7029C301.776 84.3069 302.861 85.4946 306.568 85.4946C309.73 85.4463 312.829 84.6011 315.578 83.0373V76.0135ZM387.515 55.5566C381.147 55.5566 378.71 58.4029 378.71 63.7475V76.5664C378.71 81.952 381.167 84.7574 387.515 84.7574C393.863 84.7574 396.32 81.911 396.32 76.5664V63.7885C396.32 58.4029 393.884 55.5566 387.515 55.5566ZM207.887 55.1675C202.01 55.1675 199.962 58.3005 199.962 62.8056V65.2219H215.136V62.8056C215.136 58.3005 213.764 55.1675 207.887 55.1675Z" fill="black"/>
<path d="M74.5379 79.821L108.121 60.4493V21.6445L74.5379 41.0571V79.821Z" fill="#4040B2"/>
<path d="M37.269 21.6447L70.852 41.0573V79.8211L37.269 60.4289M0 38.7843L33.583 58.1764V19.3921L0 0M37.269 103.473L70.852 122.865V84.0804L37.269 64.6882" fill="#5C4EE5"/>
</g>
<defs>
<clipPath id="clip0_1_12209">
<rect width="512" height="123" fill="white"/>
</clipPath>
</defs>
</svg>
