<svg width="256" height="257" viewBox="0 0 256 257" fill="none" xmlns="http://www.w3.org/2000/svg">
<g clip-path="url(#clip0_1_12215)">
<path d="M99.4047 111.848L60.0761 128.269L0 93.6304L34.6385 34.6367L94.1734 69.2752L99.4047 111.848ZM157.359 144.923L162.368 187.263L221.903 221.901L256 162.907L195.924 128.269L157.359 144.923Z" fill="#00B3E3"/>
<path d="M128.271 160.204L162.368 187.264V256.541H94.1733V187.264L128.271 160.204ZM162.368 69.277V0H94.1733V69.277L128.271 96.6838L162.368 69.277Z" fill="#FFC843"/>
<path d="M157.359 113.342L162.368 69.2752L221.903 34.6367L256 93.6304L195.924 128.269L157.359 113.342ZM60.0761 128.269L0 162.907L34.0973 221.901L94.1734 187.263L104.109 144.844L60.0761 128.269Z" fill="#FF4338"/>
<path d="M162.368 108.785L195.924 128.269L162.368 147.753L155.767 128.269L162.368 108.785ZM94.1734 108.785L60.0762 128.269L94.1734 147.753L101.753 128.269L94.1734 108.785Z" fill="#002F32"/>
<path d="M128.271 88.7615L162.368 69.2773V108.787L139.869 104.84L128.271 88.7615ZM94.1733 147.755V187.265L128.271 167.781L116.328 149.284L94.1733 147.755Z" fill="#FF350F"/>
<path d="M162.368 147.755V187.265L128.271 167.781L141.97 152.78L162.368 147.755ZM128.271 88.7615L94.1733 69.2773V108.787L116.544 105.108L128.271 88.7615Z" fill="#008C3C"/>
<path d="M128.271 88.7617L94.1733 108.787V147.755L128.271 167.781L162.368 147.755V108.787L128.271 88.7617Z" fill="#00250D"/>
</g>
<defs>
<clipPath id="clip0_1_12215">
<rect width="256" height="257" fill="white"/>
</clipPath>
</defs>
</svg>
