<svg width="256" height="219" viewBox="0 0 256 219" fill="none" xmlns="http://www.w3.org/2000/svg">
<g clip-path="url(#clip0_1_12468)">
<path d="M256 7.57031L142.885 60.4533L145.958 61.6963L252.982 75.9813L256 75.4683V7.57031Z" fill="#C5CF21"/>
<path d="M256 75.4681L142.885 60.4531L144.776 63.2331L200.745 105.624L203.357 105.921L256 75.4681Z" fill="#70B540"/>
<path d="M203.357 105.921L142.885 60.4531L143.325 64.4771L185.82 193.515L188.77 195.827L203.357 105.921Z" fill="#006D69"/>
<path d="M188.77 195.827L127.997 218.779L142.885 60.4531L188.77 195.827Z" fill="#008CA9"/>
<path d="M127.982 38.006L128.293 37.41L128.363 15.357L127.982 14.868L37.21 0L38.792 1.402L124.61 36.965L127.982 38.006Z" fill="#70B540"/>
<path d="M0 7.57031L113.115 60.4533L110.042 61.6963L3.018 75.9813L0 75.4683V7.57031Z" fill="#008CA9"/>
<path d="M127.982 38.006V14.868L218.79 0L217.208 1.402L131.39 36.965L127.982 38.006Z" fill="#006D69"/>
<path d="M127.854 38.006L37.21 0L0 7.569L127.854 38.006Z" fill="#C5CF21"/>
<path d="M0 75.4681L113.115 60.4531L111.224 63.2331L55.255 105.624L52.643 105.921L0 75.4681Z" fill="#006D69"/>
<path d="M52.6431 105.921L113.115 60.4531L112.675 64.4771L70.1801 193.515L67.2291 195.827L52.6431 105.921Z" fill="#C5CF21"/>
<path d="M67.229 195.827L127.997 218.779L113.115 60.4531L67.229 195.827Z" fill="#70B540"/>
<path d="M128.146 38.006L218.79 0L256 7.569L128.146 38.006Z" fill="#008CA9"/>
</g>
<defs>
<clipPath id="clip0_1_12468">
<rect width="256" height="219" fill="white"/>
</clipPath>
</defs>
</svg>
