<svg width="256" height="257" viewBox="0 0 256 257" fill="none" xmlns="http://www.w3.org/2000/svg">
<g clip-path="url(#clip0_1_12485)">
<path d="M256 0H0V256.431H256V0Z" fill="#005F0F"/>
<path d="M218.186 34.9648C186.659 73.5987 148.155 105.957 107.093 134.008C93.7447 143.563 79.0085 152.067 68.746 165.152C64.8264 172.039 63.8805 181.736 70.582 187.324C81.7423 197.841 99.1259 200.129 113.107 194.241C132.682 186.786 146.201 169.814 157.565 152.992C182.923 116.458 198.302 74.4366 218.186 34.9648Z" fill="white"/>
<path d="M200.104 48.3242C160.85 79.4268 129.452 96.2356 89.3072 110.695C77.1913 115.879 64.2064 122.458 58.5778 135.18C52.7826 147.215 54.6819 163.999 61.3299 175.143C60.8326 170.452 63.3389 162.872 67.0675 159.314C79.4403 145.535 95.5559 136.507 109.731 126.045L109.765 126.016L109.799 125.993C142.605 103.463 173.362 77.7178 200.104 48.3242Z" fill="#AEA99F"/>
</g>
<defs>
<clipPath id="clip0_1_12485">
<rect width="256" height="257" fill="white"/>
</clipPath>
</defs>
</svg>
