<svg width="512" height="88" viewBox="0 0 512 88" fill="none" xmlns="http://www.w3.org/2000/svg">
<g clip-path="url(#clip0_1_12490)">
<path d="M209.232 25.0207C209.29 27.6196 209.434 30.4639 209.666 33.5537C209.897 36.6434 210.229 39.8487 210.662 43.1695C211.095 46.4902 211.615 49.8254 212.221 53.1751C212.827 56.5247 213.535 59.73 214.343 62.7909C216.538 59.3257 218.531 55.7306 220.321 52.0056C222.111 48.2806 223.685 44.7143 225.042 41.3069C226.309 38.1267 227.387 35.1854 228.276 32.4831L228.601 31.4831L228.862 30.6593L229.108 29.8692L229.339 29.113L229.554 28.3905L229.753 27.7018L229.936 27.0469L230.104 26.4257C230.131 26.325 230.157 26.2257 230.183 26.1278L230.327 25.5574C230.373 25.3729 230.416 25.194 230.456 25.0207H238.859L238.65 25.7315L238.424 26.4778L238.18 27.2596L237.919 28.077L237.64 28.9298L237.345 29.8182L237.032 30.7421L236.702 31.7015L236.174 33.2071C235.019 36.4702 233.618 39.9931 231.972 43.7759C230.326 47.5586 228.478 51.4281 226.428 55.3841C224.378 59.3402 222.14 63.1374 219.714 66.7758C217.866 69.4902 216.018 72.0457 214.17 74.4425C212.322 76.8392 210.344 78.9183 208.236 80.6797C206.128 82.4412 203.804 83.8272 201.263 84.8379C198.721 85.8486 195.863 86.3539 192.686 86.3539C191.069 86.3539 189.568 86.1518 188.182 85.7475C186.796 85.3432 185.785 84.9101 185.15 84.4481L187.922 77.8643C188.499 78.3263 189.279 78.7161 190.261 79.0338C191.242 79.3514 192.34 79.5102 193.553 79.5102C196.902 79.5102 199.747 78.7017 202.085 77.0846C204.424 75.4676 206.633 73.3307 208.713 70.6741C206.576 63.686 204.829 56.3226 203.472 48.5838C202.114 40.8449 201.291 32.9906 201.003 25.0207H209.232ZM155.349 10.0339L153.703 17.0509H135.598L122.863 70.0677H114.46L127.195 17.0509H109.089L110.735 10.0339H155.349ZM173.715 2.84375L168.17 25.6271C169.499 25.1651 170.899 24.7897 172.372 24.5009C173.844 24.2122 175.332 24.0678 176.833 24.0678C179.432 24.0678 181.67 24.4288 183.547 25.1507C185.424 25.8726 186.94 26.8544 188.095 28.096C189.25 29.3377 190.102 30.8393 190.65 32.6007C191.199 34.3622 191.473 36.2825 191.473 38.3616C191.473 40.9027 191.069 43.7903 190.261 47.0244L184.716 70.0677H176.66L181.771 48.757C182.175 47.1399 182.565 45.494 182.941 43.8192C183.316 42.1443 183.504 40.5561 183.504 39.0546C183.504 36.7445 182.868 34.8242 181.598 33.2938C180.327 31.7633 177.959 30.9981 174.494 30.9981C173.108 30.9981 171.679 31.128 170.206 31.3879C168.733 31.6478 167.506 32.0088 166.524 32.4708L157.515 70.0677H149.458L165.312 4.22981L173.715 2.84375ZM290.144 24.0678C292.685 24.0678 294.836 24.4576 296.598 25.2373C298.359 26.017 299.774 27.0709 300.842 28.3992C301.911 29.7276 302.676 31.2724 303.138 33.0339C303.6 34.7953 303.831 36.6579 303.831 38.6214C303.831 39.892 303.73 41.2636 303.528 42.7363C303.355 43.9986 303.128 45.2291 302.849 46.4278L297.161 70.0677H289.104L294.215 48.757L294.626 46.8918L295.088 44.8384C295.129 44.6594 295.17 44.4785 295.211 44.2956C295.587 42.6497 295.775 41.0182 295.775 39.4011C295.775 38.3038 295.645 37.2354 295.385 36.1958C295.125 35.1563 294.692 34.2611 294.085 33.5103C293.479 32.7596 292.627 32.1532 291.53 31.6911C290.432 31.2291 289.075 30.9981 287.458 30.9981C285.61 30.9981 283.82 31.3591 282.087 32.081C280.355 32.8029 278.911 33.5392 277.756 34.29C277.871 35.0985 277.972 35.8926 278.059 36.6723C278.146 37.452 278.189 38.2172 278.189 38.968C278.189 40.2963 278.088 41.639 277.886 42.9962C277.684 44.3534 277.438 45.6961 277.149 47.0244L271.605 70.0677H263.549L268.66 48.757L269.062 46.8833L269.498 44.8042C269.536 44.6224 269.574 44.4384 269.613 44.2523C269.959 42.5775 270.132 40.9027 270.132 39.2278C270.132 38.1305 270.017 37.0766 269.786 36.0659C269.555 35.0552 269.165 34.1745 268.616 33.4237C268.068 32.6729 267.331 32.081 266.407 31.6478C265.483 31.2147 264.299 30.9981 262.856 30.9981C261.412 30.9981 260.011 31.0847 258.654 31.258C257.297 31.4313 256.156 31.6623 255.232 31.951L246.05 70.0677H237.993L248.389 26.7533C250.987 25.9448 253.832 25.295 256.922 24.8041C260.011 24.3133 262.769 24.0678 265.195 24.0678C267.62 24.0678 269.67 24.4865 271.345 25.3239C273.02 26.1613 274.348 27.2731 275.33 28.6591C275.803 28.3284 276.42 27.9589 277.183 27.5509L277.712 27.2731C278.723 26.7533 279.878 26.2624 281.178 25.8004C282.477 25.3384 283.892 24.9341 285.422 24.5876C286.953 24.2411 288.527 24.0678 290.144 24.0678ZM320.81 46.418C324.16 46.3025 327.221 46.086 329.993 45.7683C332.765 45.4507 335.162 44.902 337.183 44.1224C339.204 43.3427 340.778 42.2887 341.904 40.9604C343.031 39.6321 343.594 37.8995 343.594 35.7627C343.594 35.2429 343.493 34.6943 343.29 34.1167C343.088 33.5392 342.742 33.005 342.251 32.5141C341.76 32.0232 341.081 31.6189 340.215 31.3013C339.349 30.9837 338.28 30.8249 337.01 30.8249C334.988 30.8249 333.097 31.258 331.336 32.1243C329.574 32.9906 328 34.1312 326.614 35.5461C325.228 36.9611 324.044 38.607 323.063 40.484C322.081 42.3609 321.33 44.3389 320.81 46.418ZM329.04 71.1939C326.095 71.1939 323.553 70.7752 321.417 69.9378C319.28 69.1003 317.49 67.9453 316.046 66.4726C314.602 64.9999 313.533 63.2818 312.84 61.3182C312.147 59.3546 311.801 57.2755 311.801 55.0809C311.801 51.0382 312.407 47.1399 313.62 43.386C314.833 39.6321 316.565 36.3113 318.818 33.4237C321.07 30.5361 323.813 28.2404 327.048 26.5367C330.282 24.833 333.949 23.9812 338.049 23.9812C340.417 23.9812 342.453 24.2844 344.157 24.8908C345.86 25.4972 347.246 26.3202 348.315 27.3597C349.383 28.3992 350.177 29.5976 350.697 30.9548C351.217 32.312 351.477 33.7125 351.477 35.1563C351.477 37.8707 350.986 40.1663 350.004 42.0433C349.022 43.9202 347.723 45.494 346.106 46.7645C344.489 48.0351 342.597 49.0169 340.432 49.7099C338.266 50.403 336.014 50.9516 333.675 51.3559C331.336 51.7601 328.968 52.0345 326.571 52.1788L322.229 52.4326L319.771 52.5687C319.713 53.0307 319.684 53.4061 319.684 53.6949V54.3879C319.684 55.7162 319.843 56.9723 320.161 58.1562C320.478 59.3402 321.07 60.3797 321.936 61.2749C322.803 62.17 324.001 62.8775 325.532 63.3973C327.062 63.917 329.069 64.1769 331.552 64.1769C332.65 64.1769 333.79 64.0759 334.974 63.8737C336.158 63.6716 337.284 63.4117 338.353 63.0941C339.421 62.7764 340.374 62.4588 341.211 62.1412C342.049 61.8235 342.641 61.5203 342.987 61.2316L343.68 68.0752C343.329 68.2686 342.912 68.4659 342.429 68.6673L341.999 68.8409L341.538 69.0164L341.044 69.194L340.518 69.3734C340.427 69.4035 340.336 69.4337 340.243 69.4639L339.668 69.6463C339.57 69.6769 339.47 69.7076 339.369 69.7383L338.747 69.9237C338.534 69.9858 338.316 70.0482 338.093 70.111C335.523 70.8329 332.505 71.1939 329.04 71.1939ZM366.637 50.2297L366.42 51.1772L365.987 53.0397C365.915 53.3465 365.843 53.6515 365.771 53.9547C365.482 55.1675 365.337 56.3226 365.337 57.4199C365.337 59.3835 365.814 60.9428 366.767 62.0978C367.72 63.2529 369.496 63.9748 372.095 64.2636L370.275 70.8474C367.907 70.7896 365.901 70.4286 364.255 69.7645C362.609 69.1003 361.28 68.2196 360.27 67.1223C359.259 66.025 358.523 64.7256 358.061 63.224C357.599 61.7225 357.368 60.0765 357.368 58.2862C357.368 56.9579 357.483 55.5718 357.714 54.128C357.945 52.6842 358.263 51.1826 358.667 49.6233L369.582 4.22981L377.985 2.84375L366.637 50.2297ZM388.814 46.418C392.163 46.3025 395.224 46.086 397.997 45.7683C400.769 45.4507 403.165 44.902 405.187 44.1224C407.208 43.3427 408.782 42.2887 409.908 40.9604C411.034 39.6321 411.597 37.8995 411.597 35.7627C411.597 35.2429 411.496 34.6943 411.294 34.1167C411.092 33.5392 410.745 33.005 410.254 32.5141C409.764 32.0232 409.085 31.6189 408.219 31.3013C407.352 30.9837 406.284 30.8249 405.013 30.8249C402.992 30.8249 401.101 31.258 399.339 32.1243C397.578 32.9906 396.004 34.1312 394.618 35.5461C393.232 36.9611 392.048 38.607 391.066 40.484C390.084 42.3609 389.334 44.3389 388.814 46.418ZM397.044 71.1939C394.098 71.1939 391.557 70.7752 389.42 69.9378C387.283 69.1003 385.493 67.9453 384.049 66.4726C382.605 64.9999 381.537 63.2818 380.844 61.3182C380.151 59.3546 379.804 57.2755 379.804 55.0809C379.804 51.0382 380.411 47.1399 381.624 43.386C382.836 39.6321 384.569 36.3113 386.821 33.4237C389.074 30.5361 391.817 28.2404 395.051 26.5367C398.285 24.833 401.953 23.9812 406.053 23.9812C408.421 23.9812 410.457 24.2844 412.16 24.8908C413.864 25.4972 415.25 26.3202 416.319 27.3597C417.387 28.3992 418.181 29.5976 418.701 30.9548C419.221 32.312 419.48 33.7125 419.48 35.1563C419.48 37.8707 418.99 40.1663 418.008 42.0433C417.026 43.9202 415.727 45.494 414.109 46.7645C412.492 48.0351 410.601 49.0169 408.435 49.7099C406.27 50.403 404.017 50.9516 401.678 51.3559C399.339 51.7601 396.971 52.0345 394.575 52.1788L390.233 52.4326L387.774 52.5687L387.751 52.7614L387.716 53.115C387.702 53.2812 387.693 53.4314 387.689 53.5658L387.688 54.3879C387.688 55.7162 387.847 56.9723 388.164 58.1562C388.482 59.3402 389.074 60.3797 389.94 61.2749C390.806 62.17 392.005 62.8775 393.535 63.3973C395.066 63.917 397.072 64.1769 399.556 64.1769C400.653 64.1769 401.794 64.0759 402.978 63.8737C404.162 63.6716 405.288 63.4117 406.356 63.0941C407.425 62.7764 408.378 62.4588 409.215 62.1412C410.052 61.8235 410.644 61.5203 410.991 61.2316L411.684 68.0752C411.232 68.3238 410.672 68.579 410.003 68.8409L409.541 69.0164L409.047 69.194L408.521 69.3734C408.431 69.4035 408.339 69.4337 408.246 69.4639L407.672 69.6463C407.574 69.6769 407.474 69.7076 407.373 69.7383L406.751 69.9237L406.096 70.111C403.526 70.8329 400.509 71.1939 397.044 71.1939ZM502.124 2.84375C504.146 2.84375 506.066 3.04588 507.885 3.45015C509.704 3.85442 511.076 4.28756 512 4.74958L508.795 11.1601L508.691 11.1097L508.452 11.0037L508.173 10.8905C508.073 10.8516 507.966 10.8115 507.853 10.7703L507.492 10.643C507.428 10.6212 507.363 10.5991 507.296 10.5767L506.875 10.4388L506.412 10.2938C505.286 9.94731 503.626 9.77405 501.431 9.77405C499.525 9.77405 497.908 10.0484 496.58 10.597C495.252 11.1457 494.126 11.9109 493.202 12.8927C492.277 13.8745 491.541 15.0584 490.993 16.4445C490.444 17.8305 489.967 19.3898 489.563 21.1224L488.61 25.0207H503.684L502.124 31.7778H487.051L480.121 60.3653L479.411 63.3995L478.768 66.1906L478.301 68.2485C477.782 70.5586 477.161 72.7243 476.439 74.7457C475.717 76.767 474.764 78.7161 473.58 80.5931C472.396 82.4701 470.794 84.4192 468.772 86.4405L461.669 85.401L461.971 85.0071L462.551 84.2409C462.833 83.8651 463.104 83.5 463.363 83.1456L463.865 82.4514L464.336 81.786C464.868 81.0264 465.336 80.3256 465.74 79.6835C466.722 78.1242 467.545 76.536 468.209 74.9189C468.818 73.4366 469.354 71.748 469.817 69.8532L471.036 64.7028L471.891 61.1449L481.507 20.9492C482.2 18.0615 483.08 15.4916 484.149 13.2392C485.217 10.9869 486.574 9.09546 488.22 7.56502C489.866 6.03458 491.815 4.86509 494.068 4.05655C496.32 3.24802 499.006 2.84375 502.124 2.84375ZM455.865 24.0678C457.424 24.0678 459.243 24.2411 461.322 24.5876C463.401 24.9341 465.192 25.5116 466.693 26.3202L460.023 53.5216C459.734 54.8499 459.488 56.1205 459.286 57.3333C459.084 58.5461 458.983 59.8166 458.983 61.1449C458.983 62.4732 459.099 63.816 459.33 65.1732C459.561 66.5304 459.965 67.9886 460.543 69.5479L453.439 70.5875C453.15 69.9522 452.861 69.2447 452.573 68.4651C452.284 67.6854 452.053 66.8624 451.88 65.9961C450.609 67.1512 448.905 68.3062 446.769 69.4613C444.632 70.6163 442.004 71.1939 438.885 71.1939C436.344 71.1939 434.164 70.7896 432.345 69.9811C430.526 69.1725 429.039 68.0464 427.883 66.6025C426.728 65.1587 425.877 63.455 425.328 61.4914C424.779 59.5279 424.505 57.3621 424.505 54.9943C424.505 51.1249 425.155 47.3421 426.454 43.6459C427.754 39.9497 429.703 36.6579 432.302 33.7702C434.9 30.8826 438.163 28.5436 442.091 26.7533C446.018 24.963 450.609 24.0678 455.865 24.0678ZM454.132 30.9981C450.84 30.9981 447.866 31.6334 445.209 32.9039C442.553 34.1745 440.286 35.8638 438.409 37.9717C436.532 40.0797 435.088 42.5342 434.077 45.3352C433.067 48.1362 432.561 51.0671 432.561 54.128C432.561 55.3408 432.677 56.568 432.908 57.8097C433.139 59.0514 433.558 60.1487 434.164 61.1016C434.77 62.0545 435.579 62.8342 436.59 63.4406C437.6 64.047 438.914 64.3502 440.531 64.3502C442.957 64.3502 445.036 63.8304 446.769 62.7909C448.501 61.7513 450.003 60.5385 451.273 59.1525C451.331 58.1707 451.432 57.1456 451.576 56.0771C451.721 55.0087 451.908 53.9259 452.139 52.8286L457.337 31.3446C457.048 31.2291 456.572 31.1425 455.908 31.0847C455.244 31.027 454.652 30.9981 454.132 30.9981Z" fill="#333333"/>
<path d="M86.9573 0H0V87.1038H86.9573V0Z" fill="#005F0F"/>
<path d="M74.113 11.875C63.4037 24.998 50.3248 35.9894 36.3772 45.5176C31.843 48.7633 26.8374 51.652 23.3515 56.0967C22.0201 58.4358 21.6988 61.7298 23.9751 63.6278C27.766 67.2003 33.6708 67.9775 38.42 65.9775C45.0689 63.445 49.661 57.6803 53.5211 51.966C62.1349 39.5563 67.3586 25.2826 74.113 11.875Z" fill="white"/>
<path d="M67.9707 16.4141C54.6371 26.9789 43.9718 32.6885 30.3356 37.5998C26.2201 39.3608 21.8094 41.5957 19.8975 45.9169C17.929 50.0051 18.5742 55.7062 20.8323 59.4916C20.6634 57.898 21.5147 55.3235 22.7813 54.1148C26.984 49.4345 32.4581 46.3679 37.2732 42.8141L37.2847 42.8043L37.2962 42.7965C48.4397 35.1435 58.887 26.3984 67.9707 16.4141Z" fill="#AEA99F"/>
</g>
<defs>
<clipPath id="clip0_1_12490">
<rect width="512" height="88" fill="white"/>
</clipPath>
</defs>
</svg>
