<svg width="512" height="68" viewBox="0 0 512 68" fill="none" xmlns="http://www.w3.org/2000/svg">
<g clip-path="url(#clip0_1_12500)">
<path d="M203.294 8.50391V19.7675H186.297V66.384H173.155V19.7675H156.158V8.50391H203.294ZM255.842 8.50459V66.384H242.622V8.50459H255.842ZM489.136 8.50391V54.9618H512V66.384H475.916V8.50391H489.136ZM416.846 8.50391L440.689 66.384H426.159L421.93 54.9632H397.525L393.259 66.384H379.12L403.198 8.50391H416.846ZM321.267 8.50391C337.069 8.50391 352.792 16.8708 352.792 37.2867C352.792 56.53 337.381 66.3826 322.05 66.3826L299.851 66.3833V8.50391H321.267ZM321.189 19.7675H312.678V55.0401H320.877C331.905 55.0401 339.259 48.159 339.259 37.2078C339.259 26.8045 331.828 19.7675 321.189 19.7675ZM409.787 22.0435L401.069 44.681H418.425L409.787 22.0435Z" fill="black"/>
<path d="M50.8255 33.88L67.7668 50.8221L50.8255 67.7648L33.8834 50.8221L50.8255 33.88ZM16.9414 0.000680622L33.8834 16.9386L16.9414 33.8814L0 16.9386L16.9414 0.000680622ZM84.7075 0.000680622L101.648 16.9386L84.7075 33.8814L67.765 16.939L50.8255 33.88L33.8834 16.9373L50.8255 0L67.7668 16.9373L84.7075 0.000680622Z" fill="black"/>
</g>
<defs>
<clipPath id="clip0_1_12500">
<rect width="512" height="68" fill="white"/>
</clipPath>
</defs>
</svg>
