<svg width="512" height="150" viewBox="0 0 512 150" fill="none" xmlns="http://www.w3.org/2000/svg">
<g clip-path="url(#clip0_1_12509)">
<path d="M97.8442 53.8546C107.477 60.7369 119.278 64.7863 132.023 64.7863V40.2733C129.611 40.2738 127.205 40.0224 124.845 39.5227V58.8179C112.101 58.8179 100.302 54.7685 90.6665 47.8867V97.9106C90.6665 122.935 70.3698 143.22 45.334 143.22C35.9926 143.22 27.3101 140.397 20.0975 135.556C28.3295 143.969 39.8095 149.188 52.5102 149.188C77.5475 149.188 97.8452 128.903 97.8452 103.877V53.8546H97.8442ZM106.699 29.124C101.776 23.7485 98.5436 16.8016 97.8442 9.12165V5.96875H91.0423C92.7544 15.73 98.5943 24.0695 106.699 29.124ZM35.9327 116.353C33.1822 112.749 31.6959 108.34 31.7025 103.806C31.7025 92.3605 40.9861 83.0806 52.4396 83.0806C54.5741 83.08 56.6958 83.4067 58.73 84.0518V58.991C56.3528 58.6653 53.9535 58.5271 51.5553 58.5778V78.0839C49.5196 77.4388 47.3969 77.1112 45.2618 77.1132C33.8084 77.1132 24.5253 86.3922 24.5253 97.839C24.5253 105.933 29.1656 112.94 35.9327 116.353Z" fill="#FF004F"/>
<path d="M90.6665 47.8862C100.302 54.768 112.101 58.8174 124.845 58.8174V39.5222C117.731 38.0077 111.434 34.2921 106.699 29.124C98.5938 24.069 92.7545 15.7295 91.0423 5.96875H73.1756V103.876C73.1351 115.29 63.8674 124.533 52.4386 124.533C45.7037 124.533 39.7205 121.324 35.9312 116.353C29.1646 112.94 24.5243 105.932 24.5243 97.8395C24.5243 86.3937 33.8074 77.1137 45.2608 77.1137C47.4553 77.1137 49.5703 77.4552 51.5543 78.0845V58.5783C26.9584 59.0862 7.17725 79.173 7.17725 103.877C7.17725 116.209 12.1032 127.389 20.0981 135.557C27.3106 140.397 35.9931 143.221 45.3346 143.221C70.3708 143.221 90.667 122.935 90.667 97.9106L90.6665 47.8862Z" fill="black"/>
<path d="M124.845 39.5208V34.3035C118.43 34.3132 112.141 32.5176 106.699 29.122C111.517 34.3941 117.861 38.0293 124.845 39.5208ZM91.0423 5.96736C90.879 5.0345 90.7535 4.09549 90.6665 3.1529V0H65.9973V97.9087C65.9579 109.321 56.6907 118.563 45.2608 118.563C41.9052 118.563 38.7369 117.767 35.9311 116.353C39.7204 121.322 45.7037 124.531 52.4385 124.531C63.8664 124.531 73.1356 115.29 73.1756 103.876V5.96736H91.0423ZM51.5553 58.5769V53.0227C49.494 52.7411 47.4158 52.5998 45.335 52.6008C20.2967 52.6008 0 72.8863 0 97.9087C0 113.596 7.97696 127.422 20.0986 135.555C12.1037 127.387 7.17773 116.207 7.17773 103.875C7.17773 79.1716 26.9583 59.0848 51.5553 58.5769Z" fill="#00F2EA"/>
<path d="M410.689 122.706C428.603 122.706 443.126 108.3 443.126 90.5316C443.126 72.7637 428.603 58.3555 410.689 58.3555H405.802C423.716 58.3555 438.239 72.7631 438.239 90.5316C438.239 108.3 423.716 122.706 405.802 122.706H410.689Z" fill="#FF004F"/>
<path d="M405.359 58.3555H400.472C382.558 58.3555 368.033 72.7631 368.033 90.5316C368.033 108.3 382.558 122.706 400.472 122.706H405.359C387.442 122.706 372.919 108.3 372.919 90.5316C372.919 72.7637 387.442 58.3555 405.359 58.3555Z" fill="#00F2EA"/>
<path d="M266.725 43.8125V80.3903L285.384 61.88H308.044L284.493 84.8012L310.711 122.705H290.718L272.502 96.6985L266.725 101.992V122.264H248.062V43.8125H266.725ZM468.009 43.8125V80.3903L486.672 61.88H509.331L485.782 84.8012L512 122.705H492.004L473.783 96.6985L468.009 101.992V122.264H449.343V43.8125H468.009ZM405.8 58.3548C423.714 58.3548 438.239 72.763 438.239 90.531C438.239 108.299 423.714 122.705 405.8 122.705H405.357C387.442 122.705 372.919 108.299 372.919 90.531C372.919 72.7625 387.442 58.3548 405.357 58.3548H405.8ZM217.848 43.8125L212.516 60.5616H196.966V122.265H177.855V60.1212H158.752V43.8125H217.848ZM374.254 43.8125L368.923 60.5616H353.373V122.265H334.262V60.1212H315.159V43.8125H374.254ZM240.062 68.9358V122.265H221.406V68.9358H240.062ZM405.582 74.8868C396.87 74.8868 389.804 81.8879 389.804 90.531C389.804 99.174 396.87 106.178 405.582 106.179C414.289 106.179 421.354 99.174 421.354 90.531C421.354 81.8879 414.289 74.8868 405.582 74.8868ZM230.73 43.8125C235.887 43.8125 240.062 47.9571 240.062 53.0674C240.062 58.1782 235.89 62.3228 230.73 62.3228C225.577 62.3203 221.406 58.1782 221.406 53.0674C221.406 47.9571 225.577 43.8125 230.73 43.8125Z" fill="black"/>
</g>
<defs>
<clipPath id="clip0_1_12509">
<rect width="512" height="150" fill="white"/>
</clipPath>
</defs>
</svg>
