<svg width="256" height="290" viewBox="0 0 256 290" fill="none" xmlns="http://www.w3.org/2000/svg">
<g clip-path="url(#clip0_1_12504)">
<path d="M189.72 104.421C208.398 117.766 231.28 125.618 255.993 125.618V78.0869C251.316 78.0879 246.651 77.6004 242.075 76.6315V114.045C217.364 114.045 194.486 106.193 175.803 92.8493V189.846C175.803 238.368 136.447 277.701 87.9028 277.701C69.7898 277.701 52.9544 272.228 38.9692 262.841C54.931 279.153 77.1909 289.273 101.817 289.273C150.365 289.273 189.722 249.94 189.722 201.416V104.421H189.72ZM206.889 56.4683C197.344 46.0452 191.076 32.5753 189.72 17.6838V11.5703H176.531C179.851 30.4975 191.175 46.6677 206.889 56.4683ZM69.6736 225.606C64.3405 218.617 61.4584 210.068 61.4714 201.277C61.4714 179.084 79.4722 161.09 101.68 161.09C105.819 161.089 109.933 161.723 113.878 162.974V114.381C109.268 113.749 104.616 113.481 99.966 113.579V151.402C96.0187 150.151 91.9027 149.516 87.7629 149.52C65.5546 149.52 47.5547 167.512 47.5547 189.707C47.5547 205.401 56.5522 218.988 69.6736 225.606Z" fill="#FF004F"/>
<path d="M175.803 92.8484C194.486 106.192 217.364 114.044 242.075 114.044V76.6305C228.281 73.6939 216.07 66.4893 206.889 56.4683C191.174 46.6667 179.851 30.4965 176.531 11.5703H141.888V201.414C141.809 223.545 123.839 241.466 101.678 241.466C88.6195 241.466 77.018 235.244 69.6706 225.606C56.5501 218.988 47.5526 205.4 47.5526 189.708C47.5526 167.515 65.5526 149.521 87.7608 149.521C92.0158 149.521 96.1169 150.183 99.9639 151.403V113.58C52.2723 114.565 13.9166 153.514 13.9166 201.415C13.9166 225.326 23.4681 247.004 38.9702 262.842C52.9553 272.228 69.7907 277.702 87.9038 277.702C136.449 277.702 175.804 238.368 175.804 189.846L175.803 92.8484Z" fill="black"/>
<path d="M242.075 76.6309V66.5146C229.637 66.5334 217.442 63.0518 206.889 56.4677C216.231 66.6903 228.533 73.7389 242.075 76.6309ZM176.531 11.5707C176.215 9.7619 175.971 7.94116 175.803 6.11347V0H127.969V189.845C127.893 211.974 109.923 229.895 87.7608 229.895C81.2542 229.895 75.1109 228.351 69.6706 225.608C77.0181 235.245 88.6196 241.465 101.678 241.465C123.837 241.465 141.81 223.547 141.888 201.415V11.5707H176.531ZM99.9659 113.581V102.811C95.969 102.265 91.9394 101.991 87.9048 101.993C39.3554 101.993 0 141.327 0 189.845C0 220.264 15.4673 247.072 38.9712 262.841C23.4691 247.003 13.9176 225.325 13.9176 201.414C13.9176 153.514 52.2723 114.566 99.9659 113.581Z" fill="#00F2EA"/>
</g>
<defs>
<clipPath id="clip0_1_12504">
<rect width="256" height="290" fill="white"/>
</clipPath>
</defs>
</svg>
