<svg width="512" height="130" viewBox="0 0 512 130" fill="none" xmlns="http://www.w3.org/2000/svg">
<g clip-path="url(#clip0_1_12526)">
<path d="M220.837 77.7258C220.837 79.8221 221.188 81.8379 221.885 83.773C223.253 87.6424 226.128 90.7937 229.856 92.5093C231.763 93.4043 233.927 93.8517 236.346 93.8517C238.765 93.8517 240.926 93.4083 242.837 92.5093C244.732 91.6223 246.365 90.425 247.727 88.9293C249.078 87.4296 250.106 85.7162 250.803 83.769C251.497 81.8339 251.843 79.8181 251.843 77.7217C251.843 75.6415 251.497 73.6177 250.807 71.6745C250.132 69.7729 249.088 68.0233 247.735 66.5263C246.357 65.0204 244.694 63.8035 242.841 62.9463C240.804 62.021 238.587 61.5597 236.35 61.5958C233.94 61.5958 231.771 62.0513 229.86 62.9463C226.136 64.662 223.263 67.8097 221.893 71.6745C221.196 73.6177 220.845 75.6415 220.845 77.7217M207.928 78.3668C207.928 74.0934 208.694 70.203 210.214 66.7158C211.652 63.3442 213.755 60.2974 216.399 57.7578C219.058 55.2399 222.198 53.2846 225.631 52.0089C229.266 50.6489 233.118 49.9631 236.999 49.9845C241.003 49.9845 244.792 50.6623 248.356 52.0089C251.792 53.2879 254.937 55.2428 257.604 57.7578C260.243 60.2972 262.345 63.3407 263.785 66.7077C265.305 70.203 266.067 74.0853 266.067 78.3708C266.067 82.6563 265.301 86.5426 263.785 90.0339C262.348 93.4026 260.246 96.4467 257.604 98.9838C254.941 101.501 251.797 103.455 248.36 104.729C244.732 106.092 240.884 106.778 237.008 106.753C233.126 106.778 229.273 106.093 225.639 104.729C222.205 103.459 219.064 101.506 216.407 98.9879C213.763 96.4525 211.661 93.408 210.226 90.038C208.706 86.5427 207.944 82.6603 207.944 78.3748M285.43 77.7258C285.43 79.8221 285.777 81.8379 286.478 83.773C287.171 85.7202 288.191 87.4336 289.55 88.9333C290.913 90.425 292.541 91.6183 294.444 92.5093C296.351 93.4043 298.516 93.8517 300.935 93.8517C303.354 93.8517 305.515 93.4083 307.426 92.5093C309.32 91.6223 310.957 90.425 312.312 88.9293C313.666 87.4296 314.69 85.7162 315.392 83.769C316.077 81.8339 316.428 79.8181 316.428 77.7217C316.428 75.6415 316.077 73.6177 315.388 71.6745C314.71 69.7725 313.663 68.023 312.308 66.5263C310.934 65.0177 309.271 63.8004 307.418 62.9463C305.381 62.021 303.164 61.5597 300.927 61.5958C298.508 61.5958 296.347 62.0513 294.436 62.9463C290.712 64.6613 287.839 67.8092 286.47 71.6745C285.768 73.6177 285.422 75.6415 285.422 77.7217L285.43 77.7258ZM317.843 96.1497H317.617C315.67 99.4072 313.062 101.774 309.764 103.253C306.408 104.737 302.774 105.491 299.105 105.463C294.912 105.463 291.195 104.749 287.937 103.306C284.771 101.925 281.924 99.9046 279.576 97.3712C277.226 94.8082 275.429 91.7892 274.295 88.502C273.081 84.9748 272.477 81.2664 272.509 77.5363C272.509 73.6177 273.138 69.9571 274.42 66.5545C275.605 63.2824 277.412 60.2706 279.741 57.6852C282.045 55.1553 284.854 53.1364 287.986 51.7589C291.211 50.3076 294.726 49.59 298.532 49.59C301.084 49.59 303.33 49.852 305.277 50.364C307.224 50.8881 308.937 51.5452 310.437 52.3677C312.926 53.6617 315.108 55.4751 316.835 57.6852H317.17V28.3682C317.17 27.0378 318.234 25.4735 320.105 25.4735H327.716C329.474 25.4735 330.643 26.9329 330.643 28.3682V101.233C330.643 103.088 329.055 104.136 327.716 104.136H320.786C319.179 104.13 317.872 102.84 317.843 101.233V96.1497ZM352.595 77.7258C352.595 79.8221 352.949 81.8379 353.643 83.773C354.344 85.7202 355.364 87.4336 356.727 88.9333C358.085 90.425 359.71 91.6183 361.621 92.5093C363.516 93.4043 365.693 93.8517 368.104 93.8517C370.523 93.8517 372.683 93.4083 374.594 92.5093C376.497 91.6223 378.122 90.425 379.485 88.9293C380.839 87.4296 381.863 85.7162 382.565 83.769C383.25 81.8339 383.601 79.8181 383.601 77.7217C383.601 75.6415 383.258 73.6177 382.569 71.6745C381.891 69.7734 380.845 68.0242 379.493 66.5263C378.118 65.0186 376.455 63.8014 374.602 62.9463C372.566 62.021 370.349 61.5597 368.112 61.5958C365.701 61.5958 363.532 62.0513 361.629 62.9463C357.902 64.6617 355.025 67.8088 353.651 71.6745C352.956 73.6149 352.601 75.6607 352.603 77.7217M339.69 78.3668C339.69 74.0934 340.456 70.203 341.976 66.7158C343.409 63.3428 345.512 60.2954 348.156 57.7578C350.815 55.2399 353.955 53.2846 357.388 52.0089C361.023 50.6489 364.876 49.9631 368.757 49.9845C372.76 49.9845 376.55 50.6623 380.11 52.0089C383.545 53.2869 386.688 55.2419 389.354 57.7578C391.994 60.2961 394.095 63.3399 395.534 66.7077C397.054 70.203 397.816 74.0853 397.816 78.3708C397.816 82.6563 397.05 86.5426 395.53 90.0339C394.09 93.402 391.987 96.4458 389.346 98.9838C386.682 101.502 383.538 103.456 380.101 104.729C376.473 106.092 372.625 106.778 368.749 106.753C364.867 106.778 361.014 106.093 357.38 104.729C353.946 103.459 350.805 101.506 348.148 98.9879C345.505 96.4525 343.402 93.408 341.968 90.038C340.444 86.5427 339.682 82.6603 339.682 78.3748M404.27 31.928C404.27 29.8477 405.052 28.0456 406.609 26.4975C408.181 24.9575 410.156 24.1875 412.555 24.1875C414.954 24.1875 416.973 24.9212 418.602 26.3927C420.239 27.8602 421.061 29.7066 421.061 31.928C421.061 34.1453 420.239 35.9998 418.602 37.4632C416.973 38.9347 414.954 39.6684 412.555 39.6684C410.16 39.6684 408.185 38.9025 406.613 37.3503C405.048 35.8103 404.266 34.0042 404.266 31.928M459.732 66.3166C458.401 66.3166 457.434 65.3007 457.26 64.8572C456.156 61.9142 452.632 60.8056 449.786 60.8056C445.299 60.8056 441.779 62.9181 441.779 66.5505C441.779 70.0659 445.186 70.7835 447.29 71.4286C449.596 72.1421 454.011 73.1218 456.442 73.7023C458.917 74.2909 461.219 75.1537 463.376 76.2946C470.431 80.0197 471.439 85.8815 471.439 89.4131C471.439 102.427 458.74 106.749 449.927 106.749C443.13 106.749 430.362 105.7 427.56 92.5375C427.286 91.2595 428.407 89.2881 430.455 89.2881H437.792C439.243 89.2881 440.211 90.3564 440.493 91.195C441.445 93.8437 444.444 95.8393 449.5 95.8393C454.926 95.8393 458.135 93.6542 458.135 90.7475C458.135 88.8688 457.087 87.1917 455.716 86.2524C451.604 83.4142 441.425 83.0957 435.901 80.1084C433.785 78.9675 428.475 76.351 428.475 67.4414C428.475 55.1655 439.465 49.985 449.117 49.985C463.356 49.985 468.581 59.1244 469.169 62.5109C469.492 64.3815 468.464 66.3166 466.396 66.3166H459.724H459.732ZM472.733 58.9592V53.4158C472.733 52.0855 473.793 50.5011 475.676 50.5011H482.925V36.8867C482.925 35.4273 483.933 34.5404 484.687 34.2138C485.13 34.0203 489.194 32.2787 492.427 30.8798C494.697 29.9646 496.527 31.807 496.527 33.5728V50.5051H508.529C510.383 50.5051 511.484 52.0935 511.484 53.4158V58.9672C511.484 60.5798 510.024 61.8901 508.529 61.8901H496.523V85.3534C496.523 88.0383 496.442 90.1347 497.491 91.6828C498.438 93.1059 499.837 93.63 502.639 93.63C503.437 93.63 504.155 93.497 504.759 93.2954C506.533 92.6907 507.864 93.7187 508.319 94.5855C509.198 96.2666 510.214 98.1211 510.923 99.4515C511.289 100.151 511.36 100.968 511.12 101.72C510.881 102.473 510.352 103.098 509.65 103.459C507.352 104.563 504.159 105.458 499.784 105.458C496.156 105.458 494.108 105.067 491.814 104.289C489.558 103.472 487.556 102.076 486.009 100.242C484.678 98.6452 484.017 96.5004 483.529 94.1138C483.034 91.7352 482.917 88.8446 482.917 85.7122V61.886H475.684C473.789 61.886 472.729 60.2654 472.729 58.9551M166.581 58.9592V53.4158C166.581 52.0855 167.613 50.5011 169.444 50.5011H177.515V36.8867C177.515 35.4273 178.49 34.5404 179.232 34.2138C179.668 34.0203 183.618 32.2787 186.771 30.8798C188.98 29.9646 190.762 31.807 190.762 33.5728V50.5051H202.454C204.26 50.5051 205.336 52.0935 205.336 53.4158V58.9672C205.336 60.5798 203.913 61.8901 202.458 61.8901H190.766V85.3534C190.766 88.0383 190.686 90.1347 191.693 91.6828C192.621 93.1059 193.991 93.63 196.717 93.63C197.499 93.63 198.196 93.497 198.789 93.2954C200.522 92.6907 201.813 93.7187 202.256 94.5855C203.115 96.2666 204.102 98.1211 204.796 99.4515C205.554 100.903 204.941 102.777 203.546 103.459C201.309 104.563 198.204 105.458 193.951 105.458C190.416 105.458 188.416 105.067 186.182 104.289C183.971 103.464 182.018 102.067 180.522 100.242C179.224 98.6452 178.587 96.5004 178.103 94.1138C177.62 91.7352 177.507 88.8446 177.507 85.7122V61.886H169.456C167.601 61.886 166.573 60.2654 166.573 58.9551M409.664 104.172H416.961C418.51 104.172 419.771 102.882 419.771 101.298V54.1536C419.785 52.5872 418.532 51.3035 416.965 51.2792H409.668C408.098 51.2969 406.839 52.5832 406.854 54.1536V101.298C406.854 102.878 408.112 104.172 409.66 104.172" fill="#E44332"/>
<path d="M113.031 0H16.1461C7.24499 0.0199037 0.0310232 7.22487 0 16.126V112.882C0 121.751 7.26476 129.008 16.1461 129.008H113.031C121.912 129.008 129.177 121.751 129.177 112.882V16.126C129.177 7.25669 121.912 0 113.031 0Z" fill="#E44332"/>
<path d="M27.3819 61.1044C29.6396 59.7861 78.1385 31.602 79.2471 30.9488C80.3558 30.3038 80.4163 28.3203 79.1665 27.6027C77.9248 26.8891 75.5664 25.5345 74.6915 25.0145C73.4424 24.3273 71.9244 24.3456 70.6923 25.0629C70.0714 25.4257 28.6317 49.4937 27.2489 50.2839C25.5839 51.2353 23.5399 51.2515 21.887 50.2839L0 37.4396V48.3568C5.32157 51.4934 18.5731 59.2822 21.7822 61.1165C23.6971 62.205 25.5315 62.1808 27.386 61.1044" fill="white"/>
<path d="M27.3819 81.7451C29.6396 80.4268 78.1385 52.2426 79.2471 51.5895C80.3558 50.9444 80.4163 48.9609 79.1665 48.2433C77.9248 47.5298 75.5664 46.1752 74.6915 45.6551C73.4424 44.9679 71.9244 44.9863 70.6923 45.7035C70.0714 46.0663 28.6317 70.1344 27.2489 70.9245C25.5839 71.876 23.5399 71.8921 21.887 70.9245L0 58.0802V68.9975C5.32157 72.134 18.5731 79.9228 21.7822 81.7572C23.6971 82.8457 25.5315 82.8215 27.386 81.7451" fill="white"/>
<path d="M27.3819 103.679C29.6396 102.36 78.1385 74.1762 79.2471 73.5231C80.3558 72.878 80.4163 70.8945 79.1665 70.1769C77.9248 69.4634 75.5664 68.1088 74.6915 67.5887C73.4424 66.9015 71.9244 66.9199 70.6923 67.6371C70.0714 67.9999 28.6317 92.068 27.2489 92.8581C25.5839 93.8096 23.5399 93.8257 21.887 92.8581L0 80.0138V90.9311C5.32157 94.0676 18.5731 101.856 21.7822 103.691C23.6971 104.779 25.5315 104.755 27.386 103.679" fill="white"/>
</g>
<defs>
<clipPath id="clip0_1_12526">
<rect width="512" height="130" fill="white"/>
</clipPath>
</defs>
</svg>
