<svg width="256" height="256" viewBox="0 0 256 256" fill="none" xmlns="http://www.w3.org/2000/svg">
<g clip-path="url(#clip0_1_12520)">
<path d="M224.002 0H31.998C14.3579 0.0394964 0.0614809 14.3368 0 32V224C0 241.6 14.3971 256 31.998 256H224.002C241.603 256 256 241.6 256 224V32C256 14.4 241.603 0 224.002 0Z" fill="#E44332"/>
<path d="M54.1328 120.803C58.596 118.197 154.476 62.478 156.668 61.1868C158.86 59.9116 158.979 55.9903 156.508 54.5717C154.054 53.161 149.391 50.483 147.662 49.4549C145.192 48.0963 142.191 48.1326 139.755 49.5505C138.528 50.2678 56.6035 97.8492 53.8698 99.4113C50.5781 101.292 46.5373 101.324 43.2696 99.4113L0 74.0187V95.6016C10.5205 101.802 36.7182 117.201 43.0623 120.827C46.8481 122.979 50.4745 122.931 54.1407 120.803" fill="white"/>
<path d="M54.1328 161.608C58.596 159.002 154.476 103.283 156.668 101.992C158.86 100.716 158.979 96.795 156.508 95.3764C154.054 93.9657 149.391 91.2877 147.662 90.2596C145.192 88.901 142.191 88.9373 139.755 90.3552C138.528 91.0725 56.6035 138.654 53.8698 140.216C50.5781 142.097 46.5373 142.129 43.2696 140.216L0 114.823V136.406C10.5205 142.607 36.7182 158.005 43.0623 161.632C46.8481 163.784 50.4745 163.736 54.1407 161.608" fill="white"/>
<path d="M54.1328 204.967C58.596 202.361 154.476 146.642 156.668 145.351C158.86 144.076 158.979 140.154 156.508 138.736C154.054 137.325 149.391 134.647 147.662 133.619C145.192 132.26 142.191 132.297 139.755 133.715C138.528 134.432 56.6035 182.013 53.8698 183.575C50.5781 185.456 46.5373 185.488 43.2696 183.575L0 158.183V179.766C10.5205 185.966 36.7182 201.365 43.0623 204.991C46.8481 207.143 50.4745 207.095 54.1407 204.967" fill="white"/>
</g>
<defs>
<clipPath id="clip0_1_12520">
<rect width="256" height="256" fill="white"/>
</clipPath>
</defs>
</svg>
