<svg width="256" height="182" viewBox="0 0 256 182" fill="none" xmlns="http://www.w3.org/2000/svg">
<g clip-path="url(#clip0_1_12538)">
<path d="M44.298 119.344C47.21 122.936 50.447 126.576 54.01 130.236C43.638 133.357 36.839 139.152 32.597 144.269C25.887 152.368 22.335 163.064 23.152 172.244H5.29102C8.87302 164.471 23.171 142.015 44.298 119.344Z" fill="#D1A41A"/>
<path d="M251.194 177.116H229.477C179.657 151.119 135.918 132.787 89.4529 128.782C89.5519 122.316 90.7029 114.996 92.9169 106.838L88.6369 105.687C86.3639 114.07 85.1729 121.657 85.0349 128.447C80.1939 128.122 75.3229 127.965 70.4029 127.965C66.2399 127.965 62.4419 128.349 58.9789 129.018C54.4619 124.511 50.6149 120.201 47.3479 116.118C68.7789 93.7997 104.076 73.6077 134.796 66.0117C143.446 94.7637 162.014 114.464 184.547 127.719C186.2 126.774 187.824 125.79 189.418 124.748L228.729 167.069L230.451 166.921C241.186 165.997 247.287 171.822 248.902 173.632C250.092 174.951 250.8 176.162 251.194 177.116Z" fill="#D1A41A"/>
<path d="M232.016 35.5557C232.813 74.6107 212.887 105.696 184.99 121.637C137.64 98.0507 128.725 38.2817 136.794 6.22266C139.037 18.4837 143.121 26.1687 151.938 29.9377C171.165 24.4367 197.625 24.0027 217.118 29.3767C225.236 23.4727 228.385 14.4497 230.107 6.56766C232.252 15.7377 232.006 35.5557 232.016 35.5557Z" fill="#FFDC76"/>
<path d="M168.22 40.7763C169.857 40.7763 171.005 41.4413 171.835 42.8633C173.78 46.2093 173.461 52.8093 171.848 59.7143H158.752V62.5833H171.111C169.785 67.2943 167.922 71.9553 165.825 75.6483L165.147 76.8423L181.533 87.1562L172.308 93.2353L173.887 95.6323L184.198 88.8343L195.329 96.0983L196.858 93.6702L186.537 87.2853C186.537 87.2853 201.968 77.2623 202.735 76.7723C202.73 76.7663 202.727 76.7603 202.723 76.7542L202.741 76.7513C199.34 71.7373 198.262 67.4563 199.678 62.5833H200.836L213.28 62.5693L213.309 59.7143H200.77C203.08 54.2783 206.314 49.3843 217.858 49.3843V46.5153C207.207 46.5153 200.832 50.7443 197.779 59.7143H174.798C176.405 52.5433 176.684 45.4943 174.312 41.4193C172.977 39.1233 170.869 37.9062 168.22 37.9062C158.727 37.9062 154.979 47.6073 154.825 48.0203L157.511 49.0283C157.645 48.6773 160.74 40.7763 168.22 40.7763ZM184.164 85.4222L172.044 77.7913L195.73 77.7972L184.164 85.4222ZM196.759 62.5833C195.74 65.8313 196.149 70.7242 198.657 74.9232H169.457C171.233 71.3643 172.88 67.0263 174.084 62.5833H196.759Z" fill="black"/>
<path d="M252.205 170.602C247.342 165.162 237.816 162.587 229.861 162.778C224.79 156.742 197.884 128.337 192.452 122.609C203.683 114.727 213.437 104.487 220.915 92.325H235.762V89.138H222.794C223.622 87.677 224.411 86.185 225.174 84.673H235.762V81.485H226.716C233.436 66.972 237.155 50.31 236.794 32.074C236.807 32.082 236.82 32.088 236.832 32.095C236.813 27.106 235.26 6.019 232.404 0.213C224.66 3.156 210.569 12.69 207.38 22.44C192.096 20.158 174.866 20.428 159.773 23.04C157.251 12.55 144.595 4.522 135.047 0C131.02 6.796 129.236 22.553 129.689 33.731C129.672 33.742 129.654 33.754 129.636 33.766C130.017 43.865 131.388 53.139 133.595 61.66C100.575 69.842 64.626 91.473 44.517 112.378C35.105 99.675 31.371 89.25 30.262 81.35C28.861 71.373 31.243 62.22 37.149 54.881C46.396 43.394 59.534 42.585 73.043 44.857C72.779 46.99 73.059 49.029 73.914 50.291C77.486 55.567 96.687 57.421 108.148 52.308C99.69 40.456 82.558 34.669 77.811 36.988C76.239 37.755 75.052 39.166 74.239 40.811C69.57 39.976 64.933 39.354 61.543 39.379C49.629 39.467 40.521 43.63 33.7 52.105C27.007 60.42 24.302 70.746 25.877 81.966C27.369 92.593 32.63 103.896 41.449 115.618C39.984 117.189 38.568 118.741 37.205 120.265C15.711 144.315 0 170.105 0 174.378V176.592H28.355L27.858 173.967C26.257 165.504 29.455 154.926 36.005 147.02C40.117 142.057 46.927 136.392 57.621 133.778C67.13 143.058 79.244 152.914 92.729 162.422H113.8V160.208C113.8 157.71 112.562 155.523 110.312 154.051C106.983 151.875 101.845 151.575 97.125 153.185C92.625 148.173 90.102 141.478 89.557 133.163C135.288 137.213 179.029 155.68 228.385 181.463H255.541L255.897 179.683C256.404 177.149 255.023 173.754 252.205 170.602ZM136.793 6.15C139.04 18.406 143.115 26.092 151.941 29.863C159.755 27.627 168.77 26.243 178.022 25.732L185.696 42.563L190.616 25.586C199.965 25.889 209.126 27.1 217.112 29.303C225.235 23.397 228.385 14.376 230.105 6.494C232.254 15.666 232.006 35.478 232.012 35.482C232.163 42.88 231.568 49.99 230.318 56.767L221.553 60.492L229.277 61.662C228.663 64.259 227.96 66.806 227.154 69.293L219.68 71.463L225.635 73.607C224.617 76.305 223.497 78.936 222.263 81.485H209.938V84.673H220.642C219.834 86.192 218.984 87.678 218.102 89.138H209.938V92.325H216.097C207.994 104.596 197.264 114.547 184.987 121.563C170.798 114.493 160.064 104.173 152.2 92.325H156.905V89.138H150.173C149.281 87.669 148.43 86.18 147.62 84.673H156.905V81.485H145.975C144.093 77.671 142.46 73.764 141.058 69.811L146.627 68.252L139.605 65.444C138.895 63.153 138.258 60.853 137.693 58.552L148.5 57.815L136.142 51.258C133.113 34.557 133.721 18.348 136.793 6.15ZM32.596 144.195C25.889 152.29 22.334 162.983 23.148 172.164H5.286C8.875 164.397 23.171 141.944 44.295 119.264C47.206 122.862 50.448 126.496 54.009 130.16C43.638 133.278 36.838 139.075 32.596 144.195ZM229.471 177.035C179.656 151.042 135.914 132.712 89.45 128.708C89.551 122.242 90.703 114.923 92.911 106.766L88.638 105.608C86.367 113.993 85.171 121.585 85.036 128.371C80.194 128.05 75.321 127.884 70.406 127.884C66.237 127.884 62.44 128.271 58.977 128.944C54.461 124.43 50.613 120.128 47.344 116.045C53.159 109.987 60.001 104.09 67.488 98.556L77.856 105.715L74.471 93.625C77.623 91.499 80.863 89.444 84.166 87.47L99.531 95.278L92.316 82.839C94.419 81.703 96.539 80.603 98.67 79.543L120.135 93.941L113.086 73.053C120.413 70.1 127.721 67.685 134.789 65.937C136.45 71.449 138.482 76.62 140.829 81.485H131.08V84.673H142.436C143.235 86.192 144.061 87.683 144.924 89.138H131.08V92.325H146.898C156.599 107.383 169.707 118.913 184.543 127.64C186.194 126.697 187.814 125.696 189.412 124.658L193.3 128.844L186.766 138.896L197.911 133.808L204.363 140.754L193.456 149.065L208.475 145.181L228.732 166.989L230.447 166.842C241.185 165.923 247.288 171.746 248.904 173.553C250.089 174.878 250.804 176.087 251.193 177.035H229.471Z" fill="black"/>
</g>
<defs>
<clipPath id="clip0_1_12538">
<rect width="256" height="182" fill="white"/>
</clipPath>
</defs>
</svg>
