<svg width="512" height="310" viewBox="0 0 512 310" fill="none" xmlns="http://www.w3.org/2000/svg">
<g clip-path="url(#clip0_1_12551)">
<path d="M288.436 23.1021L280.283 55.7168C291.834 32.6147 310.519 15.2881 331.922 0C316.295 18.006 302.026 36.0121 293.532 54.3578C308.141 33.6339 327.846 22.4226 349.928 14.6087C320.371 40.7684 296.93 69.3062 279.263 97.5043L264.994 91.3891C267.373 68.6268 275.866 45.5247 288.436 23.1021Z" fill="#68B044"/>
<path d="M250.725 85.2734L277.565 96.4847C277.565 103.279 276.885 124.343 281.302 130.458C326.147 188.214 318.673 304.403 272.129 307.121C201.464 307.121 174.285 259.218 174.285 215.053C174.285 174.624 222.527 148.125 251.405 124.343C259.219 117.888 257.86 103.619 250.725 85.2734Z" fill="#F5F8DE"/>
<path d="M277.565 96.1445L287.417 101.241C286.398 107.696 287.757 121.964 294.212 125.362C322.75 143.028 349.249 162.053 359.781 181.418C397.152 249.026 333.621 311.877 278.244 305.762C308.141 283.679 316.974 238.154 305.763 188.213C301.346 168.848 294.212 151.182 281.641 131.137C276.206 121.964 278.244 109.734 277.565 96.1445Z" fill="#7E4798"/>
<path d="M248.687 78.8164L293.193 97.1622C287.077 116.867 304.744 130.796 310.519 133.854C323.429 140.988 335.66 148.462 345.512 157.296C364.197 174.282 374.729 198.064 374.729 222.865C374.729 247.665 363.518 271.787 344.153 287.754C326.147 302.703 301.006 309.158 276.885 309.158C261.937 309.158 248.347 308.478 233.739 303.722C200.105 292.511 175.304 263.973 173.266 229.659C171.227 203.16 177.342 182.776 198.066 161.372C208.598 150.161 230.341 137.251 245.29 127.059C252.764 122.303 260.578 108.034 245.629 81.1946L248.687 78.8164ZM252.084 85.9509C253.783 88.329 257.86 98.5211 258.879 101.579C260.918 110.072 259.898 118.226 258.2 121.963C249.027 138.95 232.719 143.706 221.168 153.219C218.889 155.087 216.589 156.911 214.303 158.738L213.058 159.735C195.034 174.213 178.331 189.506 180.4 229.999C181.759 252.761 199.425 280.96 226.264 293.87C231.375 296.368 236.714 298.335 242.216 299.885C235.649 296.993 230.053 293.399 225.585 288.435C225.585 288.095 223.886 286.736 223.886 286.736C214.374 275.864 202.483 257.519 198.406 240.192C196.707 233.397 195.348 227.961 197.387 220.827C204.498 195.476 219.204 183.91 234.595 173.329L235.61 172.633C235.78 172.517 235.949 172.401 236.119 172.285L237.646 171.245C238.155 170.899 238.665 170.553 239.174 170.206C242.912 167.828 247.668 165.45 251.405 162.392C257.574 158.369 261.202 147.57 264.295 136.849L264.602 135.777C265.316 133.279 266.005 130.797 266.693 128.419C264.655 138.951 262.277 157.976 253.104 165.11C249.367 167.828 245.29 170.546 241.213 173.264L239.716 174.272C223.595 185.122 208.034 195.812 200.784 221.846C199.086 227.622 200.445 233.737 201.803 239.512C205.88 256.16 217.431 273.826 226.604 284.358C226.604 284.498 226.892 284.81 227.231 285.153L227.528 285.452C227.927 285.851 228.303 286.236 228.303 286.396C234.873 294.161 237.505 297.2 257.431 302.207C252.55 300.217 247.874 297.854 244.61 295.569C228.303 284.358 220.149 270.429 218.79 249.705C217.771 233.397 227.623 216.75 246.988 206.558C260.238 199.424 264.315 188.892 268.392 175.982C265.334 190.93 261.937 199.763 248.347 207.917C232.04 217.09 220.489 235.775 221.508 248.346C222.867 263.634 233.399 281.3 245.629 291.832C250.562 296.217 258.369 299.275 266.018 301.185C264.017 299.607 261.823 297.349 259.898 294.55C257.52 291.152 255.822 286.396 254.123 281.98C252.424 277.903 250.725 273.146 250.725 269.07C250.725 259.217 251.745 246.987 258.879 238.833C265.334 231.359 267.373 230.34 270.09 221.506C268.052 231.359 266.693 232.038 260.578 240.871C252.764 251.743 252.424 262.615 253.443 269.409C254.123 273.826 255.822 277.903 257.18 281.3C258.879 285.717 260.918 289.793 263.635 293.531C266.014 296.248 267.373 297.947 270.77 299.646C274.507 292.511 276.885 278.242 277.225 270.428C277.565 263.634 277.904 255.82 276.885 248.006C275.526 237.474 272.469 227.282 272.129 219.128C273.828 226.602 277.565 237.134 279.603 247.326C281.302 255.48 281.642 263.294 280.962 269.409C280.283 276.544 279.943 282.319 278.924 288.435C277.989 293.109 275.625 297.497 271.832 302.124C280.43 296.642 285.413 286.913 287.757 275.864C290.814 262.275 291.154 249.365 291.154 242.57C291.154 237.735 289.455 230.563 287.568 223.406L287.233 222.144C286.841 220.672 286.445 219.207 286.058 217.769C284.359 210.975 277.904 204.18 276.206 199.084C273.148 190.59 274.507 184.475 274.167 172.584C275.526 183.456 275.526 192.969 278.584 198.065C280.962 202.481 285.039 208.596 287.417 214.712C292.173 225.923 294.551 238.154 294.891 243.929C295.231 253.781 293.872 269.07 290.475 281.3C289.211 285.406 287.589 289.219 285.769 292.556C289.622 286.617 292.566 279.642 293.872 273.486C294.093 272.45 294.311 271.41 294.526 270.369L294.846 268.805C298.764 249.501 301.482 229.711 298.968 217.769C298.289 214.712 297.269 204.52 293.193 193.648C287.417 177.68 278.924 164.77 277.904 161.713C274.661 153.281 273.895 132.777 273.536 120.589L273.529 120.306C273.632 123.307 273.835 126.586 274.113 129.928L274.203 130.986C274.265 131.692 274.33 132.4 274.398 133.107L274.502 134.168C274.52 134.345 274.537 134.522 274.556 134.699L274.666 135.757C275.754 145.968 277.408 155.624 278.924 158.655C279.943 161.713 289.116 176.322 295.571 191.61C299.987 201.462 301.346 210.975 301.686 213.693C305.083 242.23 302.365 254.121 294.891 279.601C293.988 282.727 292.759 285.711 291.33 288.483C295.628 282.969 298.792 277.056 299.987 272.127C307.122 240.532 309.84 199.763 299.648 168.508C294.212 152.2 281.302 137.931 278.924 128.079C276.885 118.906 276.885 109.393 277.565 97.1629L280.962 98.8616C279.263 102.599 280.283 121.624 283 128.758C286.398 138.271 296.25 149.143 302.365 164.431C303.911 167.998 305.457 173.313 306.828 178.832L307.061 179.78C307.177 180.255 307.291 180.73 307.404 181.206L307.628 182.156C309.773 191.335 311.341 200.225 311.538 201.802C314.936 230.34 313.237 257.179 304.744 279.941C300.729 290.48 292.267 300.092 286.063 304.534C302.572 302.306 325.323 293.869 339.057 282.658C356.723 268.05 366.236 245.627 366.236 222.865C366.236 200.102 357.403 178.359 340.076 163.071C330.224 154.238 314.256 143.366 304.064 137.591C293.872 131.815 281.302 115.848 285.379 100.56L252.084 85.9509Z" fill="#010101"/>
<path d="M12.91 29.8945H196.707C203.502 29.8945 209.617 35.6701 209.617 42.8045V97.1623C209.617 104.297 203.502 110.072 196.707 110.072H158.997C150.503 110.072 146.766 114.829 146.766 120.264V297.947C146.766 304.062 142.01 308.478 136.234 308.478H73.7228C67.9473 308.478 63.5307 304.062 63.5307 297.947V118.566C63.5307 113.13 58.4347 109.733 54.6976 109.733H12.91C5.77552 109.733 0 103.957 0 96.8226V42.4648C0 35.6701 5.77552 29.8945 12.91 29.8945Z" fill="#7E4798"/>
<path d="M484.464 101.922H500.771C506.887 101.922 511.643 106.678 511.643 112.454V170.549C511.643 178.023 511.983 181.08 502.81 181.08C484.804 181.08 476.65 190.593 476.65 201.125V299.309C476.65 303.725 472.234 307.802 467.138 307.802H408.703C403.607 307.802 399.19 304.065 399.19 299.309V187.535C399.19 185.497 399.19 182.779 399.53 181.08C402.588 139.633 435.202 106.678 476.31 102.262C477.33 102.262 482.086 101.922 484.464 101.922Z" fill="#7E4798"/>
</g>
<defs>
<clipPath id="clip0_1_12551">
<rect width="512" height="310" fill="white"/>
</clipPath>
</defs>
</svg>
