<svg width="256" height="307" viewBox="0 0 256 307" fill="none" xmlns="http://www.w3.org/2000/svg">
<path d="M26.4093 241.057C37.8806 254.657 57.4624 267.922 69.821 262.917C82.1802 257.914 87.1887 221.325 82.7596 216.452C78.3304 211.579 54.6639 171.927 36.2581 177.659C17.8523 183.39 14.938 227.456 26.4093 241.057Z" fill="#C00000"/>
<path d="M30.9137 140.045C42.143 158.718 75.4677 182.299 96.8848 173.914C118.302 165.529 103.648 136.137 91.7809 116.673C90.0668 113.862 89.3297 102.031 81.7182 91.8996C74.1067 81.7679 62.0279 75.1825 52.8877 78.2429C26.9699 86.9207 19.4424 126.445 30.9137 140.045Z" fill="#C00000"/>
<path d="M127.121 132.183C138.592 145.783 140.855 159.747 158.6 159.067C176.345 158.387 189.956 116.272 189.462 99.2213C188.968 82.1703 172.66 43.6641 143.879 51.8289C115.098 59.9936 113.985 94.8624 127.121 132.183Z" fill="#C00000"/>
<path d="M197.26 185.863C200.446 202.626 213.748 214.32 233.498 208.906C253.247 203.494 258.428 152.676 253.997 147.804C249.569 142.931 240.732 117.459 222.326 123.191C203.92 128.923 190.234 164.34 197.26 185.863Z" fill="#C00000"/>
<path d="M96.0676 303.562C122.877 314.194 132.226 286.341 161.823 278.156C191.419 269.971 216.77 283.334 225.354 257.072C236.355 223.413 209.355 228.462 187.696 213.531C166.036 198.599 171.586 181.501 138.126 189.557C102.051 198.243 120.332 234.346 106.326 247.554C85.9891 266.733 79.5285 297.001 96.0676 303.562Z" fill="#C00000"/>
<path d="M1.66749 166.621C3.98203 172.985 15.0341 179.164 20.7502 176.639C26.4664 174.114 26.2232 167.564 23.5599 159.544C20.8967 151.525 8.18571 141.414 3.76188 143.215C-0.66204 145.015 -0.647046 160.257 1.66749 166.621Z" fill="#C00000"/>
<path d="M28.4484 62.6537C30.7629 69.0177 33.9033 80.346 42.8721 76.9065C51.8408 73.4668 54.6132 67.2395 51.9499 59.2196C49.2864 51.1997 38.4393 39.3951 34.0155 41.1959C29.5917 42.9966 26.1339 56.2898 28.4484 62.6537Z" fill="#C00000"/>
<path d="M129.079 27.3434C131.394 33.7074 143.123 44.3759 148.839 41.8509C154.555 39.3257 157.43 27.2198 154.767 19.1999C152.103 11.1801 139.867 -1.40405 135.443 0.396681C131.019 2.19741 126.765 20.9794 129.079 27.3434Z" fill="#C00000"/>
<path d="M215.148 106.687C217.463 113.051 221.552 119.433 227.269 116.908C232.984 114.383 239.466 108.867 236.804 100.847C234.14 92.8274 227.885 74.4668 223.459 76.2681C219.035 78.069 212.834 100.323 215.148 106.687Z" fill="#C00000"/>
</svg>
