<svg width="256" height="253" viewBox="0 0 256 253" fill="none" xmlns="http://www.w3.org/2000/svg">
<g clip-path="url(#clip0_1_12573)">
<path d="M168.485 152.201C168.794 160.765 173.375 160.701 178.823 160.502C186.161 160.367 190.189 158.118 193.871 159.892C193.813 159.686 192.663 156.249 187.581 156.846C188.172 155.574 188.422 153.852 188.243 151.488C187.574 142.929 182.595 136.132 177.134 136.324C171.685 136.511 168.183 143.617 168.485 152.201ZM176.62 141.76C178.155 141.728 179.434 142.955 179.453 144.497C179.485 146.033 178.252 147.311 176.722 147.337C175.18 147.363 173.908 146.129 173.882 144.587C173.85 143.051 175.084 141.786 176.62 141.76Z" fill="#403E42"/>
<path d="M93.6843 162.044C94.2497 162.057 94.8408 162.044 95.4448 162.031C95.9717 162.031 96.4985 162.018 97.0511 161.999C102.519 161.947 107.049 162.461 106.978 153.89C106.888 145.319 103.084 138.38 97.6165 138.438C92.1616 138.489 86.8801 145.518 87.195 154.083C87.2914 156.319 87.619 157.925 88.1459 159.088C83.3913 160.29 82.0742 163.226 81.9971 163.412C84.9912 161.8 88.3772 162.031 93.6843 162.044ZM98.3811 143.829C99.9231 143.777 101.202 144.998 101.253 146.54C101.292 148.075 100.071 149.361 98.5353 149.399C96.9932 149.45 95.7082 148.223 95.6697 146.688C95.6247 145.152 96.839 143.861 98.3811 143.829Z" fill="#403E42"/>
<path d="M111.212 52.4977H126.542V46.1754H129.992V75.3839H124.782V91.7229H151.619V75.3839H146.402V46.1754H149.859V52.4977H165.202V30.8516H111.212V52.4977Z" fill="#403E42"/>
<path d="M255.006 94.2334C254.909 92.3766 254.729 90.5261 254.479 88.7014C254.35 87.7762 254.215 86.851 254.023 85.945C253.843 85.007 253.663 84.1396 253.361 83.118L253.168 82.3984L252.66 81.9936C249.737 79.7063 246.595 77.9715 243.402 76.4423C240.761 75.1959 238.082 74.11 235.377 73.1141C227.815 52.1426 214.836 33.5484 197.752 20.6018C180.102 7.21188 159.342 0.125 137.728 0.125C116.101 0.125 95.3484 7.21188 77.6922 20.6018C64.2445 30.792 53.354 44.4903 45.6374 60.084H45.5989C43.5107 64.3053 41.6346 68.6487 40.0283 73.1141C37.3169 74.11 34.6376 75.1959 31.9969 76.4423C28.7972 77.9715 25.6618 79.7063 22.7384 81.9936L22.2244 82.3984L22.0316 83.118C21.736 84.1396 21.5433 85.007 21.3634 85.945C21.1835 86.851 21.0357 87.7762 20.9136 88.7014C20.7273 90.0186 20.6052 91.355 20.496 92.6914H20.541C20.496 93.2054 20.4575 93.7194 20.4318 94.2398C20.2454 97.9471 20.3482 101.654 20.753 105.342C21.1449 109.024 21.826 112.667 22.809 116.284C23.323 118.083 23.9077 119.85 24.6016 121.617C24.9422 122.497 25.3148 123.371 25.7325 124.251C25.9381 124.688 26.1629 125.119 26.3878 125.562L26.7541 126.211C26.8954 126.455 26.9918 126.629 27.2038 126.944L27.57 127.522L28.1611 127.824C28.7844 128.145 29.3048 128.383 29.8702 128.653L31.515 129.398C31.817 129.52 32.1126 129.649 32.4274 129.777C24.9293 136.703 16.7823 145.705 9.73397 156.833L0.835205 170.859L13.332 159.891C13.5505 159.705 24.0234 150.639 41.4997 140.353L41.7438 142.364L42.3799 147.433L45.5796 173.436C45.6503 173.93 45.9073 174.374 46.3185 174.656L52.8785 179.263C52.9941 179.629 53.1034 179.996 53.2126 180.375C53.3668 180.895 53.5082 181.409 53.6688 181.93L55.1658 186.446C58.4491 196.656 63.1008 205.863 68.7613 213.952C68.4915 214.036 68.2152 214.113 67.9454 214.19C64.5336 212.609 52.6151 207.084 48.6122 205.278L40.2403 201.52L45.1941 209.249C45.5539 209.808 54.0993 223.134 61.0705 232.116C67.6048 240.501 76.5421 249.059 93.4016 249.059C95.4255 249.059 97.5586 248.931 99.7432 248.699C104.774 248.115 108.552 247.665 111.424 247.292C129.119 253.807 148.638 254.193 167.162 247.183C172.238 245.255 176.857 242.923 181.091 240.302C181.181 240.289 181.265 240.263 181.342 240.244C188.23 238.586 196.049 236.716 199.91 235.637C200.527 235.47 201.305 235.284 202.108 235.091C207.486 233.864 216.474 231.769 221.261 222.183C226.086 212.507 233.963 197.69 234.041 197.543L237.729 190.648L230.565 193.765C230.173 193.932 221.088 197.896 216.365 200.37C216.204 200.466 215.999 200.55 215.813 200.639C219.655 192.807 221.569 186.568 222.257 184.172L224.846 173.487L232.306 156.801C232.306 156.801 234.4 138.56 234.445 138.573L235.178 131.595C235.833 131.319 239.817 131.043 240.594 130.734C241.706 130.297 242.817 129.867 243.929 129.385L245.567 128.64C246.145 128.37 246.659 128.132 247.283 127.811L247.874 127.509L248.246 126.931C248.452 126.616 248.568 126.436 248.69 126.198L249.05 125.549C249.3 125.106 249.512 124.676 249.711 124.239C250.129 123.365 250.495 122.491 250.855 121.604C251.543 119.837 252.114 118.071 252.635 116.271C253.611 112.654 254.318 109.011 254.691 105.33C255.102 101.654 255.192 97.9407 255.006 94.2334ZM84.7791 139.254C84.9397 139.145 91.6411 134.75 102.583 129.398C113.493 128.569 125.527 128.042 138.422 128.042C141.558 128.042 144.635 128.087 147.674 128.139C145.554 129.848 143.318 131.46 140.992 132.855L133.263 137.532C128.386 138.123 124.159 139.338 123.927 139.402C123.779 139.44 123.645 139.505 123.522 139.575C123.143 139.794 122.854 140.154 122.726 140.578L114.823 166.606L72.6421 175.98L59.3486 166.67L55.4807 135.36C63.0237 133.966 73.124 132.366 85.2417 131.011C83.9438 132.553 82.6781 134.185 81.4895 135.907L74.2741 146.264L84.7791 139.254ZM141.705 248.185C134.747 248.648 127.679 247.832 120.76 245.936C121.338 245.821 121.756 245.757 122.27 245.699C122.835 245.622 135.255 243.99 140.838 235.688L141.365 235.701L142.753 235.688C143.672 235.688 144.507 235.611 145.4 235.573C147.52 235.399 149.57 235.091 151.607 234.68C151.825 234.892 152.031 235.104 152.255 235.335C156.451 239.492 161.662 241.876 167.387 242.293C157.755 246.206 148.69 247.723 141.705 248.185ZM142.335 232.958C143.382 230.625 144.173 228.807 144.77 227.439C146.004 228.814 147.565 230.516 149.319 232.334C147.951 232.54 146.601 232.714 145.271 232.823C144.398 232.861 143.485 232.958 142.65 232.958H142.335ZM121.64 179.231L125.411 178.383C126.035 178.248 126.523 177.779 126.709 177.175L134.586 151.263C135.949 151.083 137.144 150.986 138.178 150.986C139.18 150.986 140.395 151.083 141.75 151.263L149.859 177.946C150.065 178.627 150.649 179.122 151.343 179.199L154.35 179.539L155.121 179.623L206.92 185.515C207.351 185.566 207.775 185.444 208.128 185.2L213.332 181.563L218.145 178.197L219.925 176.944C219.635 178.184 219.314 179.417 218.98 180.632C218.485 182.225 217.959 183.767 217.432 185.296C215.305 191.349 212.921 196.842 210.326 201.802C209.619 201.847 208.854 201.88 208.051 201.88C205.532 201.88 202.975 201.674 200.142 201.41C195.22 200.954 187.426 200.061 184.972 199.785C182.833 198.082 175.566 192.319 169.533 187.558C169.301 187.378 169.096 187.185 168.884 187.018C167.824 186.119 166.616 185.104 164.168 185.104C161.932 185.104 158.681 185.913 150.823 188.284C154.915 185.226 154.948 181.287 154.948 181.287C154.948 181.287 149.126 186.71 139.733 187.905C130.365 189.113 122.996 183.35 122.996 183.35C123.304 184.352 123.741 186.62 125.868 188.541C123.368 188.252 120.67 188.046 117.836 188.046C116.821 188.046 115.78 188.072 114.784 188.123C109.015 188.432 100.893 197.144 95.1942 205.94C92.3928 206.827 83.6354 209.609 73.5095 212.584C67.5277 204.308 63.4735 195.911 61.1797 190.507C59.8433 187.359 59.098 185.219 58.9309 184.712V184.699C58.7446 184.185 58.5454 183.639 58.372 183.093L60.8006 184.789V184.802L66.8081 189.016L68.8127 190.411C69.1147 190.623 69.4809 190.732 69.8279 190.732C69.9564 190.732 70.0849 190.719 70.2198 190.693L121.64 179.231ZM153.598 140.578C153.418 139.999 152.969 139.569 152.39 139.395C152.127 139.312 146.916 137.828 141.384 137.359L142.399 137.282C143.273 137.217 157.8 135.444 175.155 129.456C194.372 130.927 210.062 133.285 220.792 135.238L216.995 161.877L203.592 171.251L161.463 166.464L153.598 140.578ZM246.088 104.693C245.619 108.124 244.064 114.807 244.064 114.807L242.849 115.006C242.213 114.832 236.289 113.297 226.086 111.408C226.414 111.337 226.729 111.266 227.037 111.196C229.151 110.669 231.233 110.02 233.257 109.204C234.259 108.773 235.261 108.317 236.206 107.778C237.144 107.231 238.063 106.627 238.782 105.811C228.566 109.152 207.454 107.636 188.686 105.696C171.537 103.922 154.324 102.779 137.028 102.74C119.738 102.779 102.545 103.929 85.3766 105.696C66.6089 107.636 45.5025 109.152 35.2866 105.811C36.0062 106.621 36.9314 107.231 37.8759 107.778C38.814 108.317 39.8098 108.767 40.8122 109.204C42.8296 110.013 44.9242 110.669 47.0381 111.196C47.7834 111.369 48.5416 111.536 49.2997 111.671C39.9898 113.438 34.5991 114.839 33.9951 115.006C33.9951 115.006 31.8492 115.353 31.3801 113.708C30.4485 110.418 29.8252 108.118 29.3562 104.693C28.9129 101.282 28.688 97.8315 28.7137 94.3876C28.7201 93.8222 28.7073 92.6914 28.7073 92.6914C28.7394 91.5349 28.7908 90.3784 28.9 89.2218C28.9643 88.3673 32.1062 85.6302 34.8047 84.0753C37.7217 82.3791 40.7865 80.8499 43.9091 79.43C46.9995 77.9651 57.0163 75.8384 63.0559 74.7461C69.0954 73.641 90.6966 70.7754 92.3158 70.1714C93.9285 69.5546 103.264 62.3585 104.896 61.761C101.465 62.3264 54.0607 69.5675 51.9276 70.2421C67.3157 30.0017 97.5201 10.4052 137.722 10.4052C177.911 10.4052 208.122 28.9094 223.523 69.1563C203.194 63.7528 175.039 61.2341 171.608 60.6623C173.24 61.2598 182.473 67.7556 184.188 67.974C198.246 69.7988 220.413 74.714 222.019 75.3501C225.206 76.6415 228.399 77.9715 231.496 79.43C234.625 80.8499 237.684 82.3791 240.601 84.0753C243.299 85.6366 246.435 88.3673 246.512 89.2218C246.659 90.9438 246.724 92.6593 246.743 94.3812C246.769 97.8251 246.531 101.282 246.088 104.693Z" fill="#403E42"/>
</g>
<defs>
<clipPath id="clip0_1_12573">
<rect width="256" height="253" fill="white"/>
</clipPath>
</defs>
</svg>
