<svg width="256" height="174" viewBox="0 0 256 174" fill="none" xmlns="http://www.w3.org/2000/svg">
<g clip-path="url(#clip0_1_12625)">
<path d="M136.784 169.368L252.361 53.7726C254.692 51.4494 256.002 48.2941 256.002 45.0034C256.002 41.7128 254.692 38.5574 252.361 36.2342L222.002 5.85781C218.262 2.1058 213.182 -0.00212018 207.884 1.60025e-06H48.285C42.9827 1.60025e-06 37.8979 2.10805 34.1491 5.85781L3.68494 36.2869C1.35891 38.5659 0.0336343 41.6757 0.000115416 44.932C-0.0321493 48.1883 1.23003 51.3243 3.50956 53.6498L3.68494 53.8252L119.263 169.421C121.586 171.751 124.741 173.061 128.032 173.061C131.323 173.061 134.478 171.751 136.801 169.421L136.784 169.368Z" fill="url(#paint0_linear_1_12625)"/>
<path opacity="0.4" d="M33.2195 6.78735C37.3935 2.5926 43.4015 0.785609 49.1969 1.98184L249.906 42.6884C253.223 43.3744 255.362 46.6112 254.694 49.9317C254.611 50.3482 254.481 50.7541 254.308 51.1418C257.133 46.3099 256.333 40.1786 252.361 36.2342L222.002 5.85781C218.262 2.1058 213.182 -0.00212018 207.884 1.60025e-06H48.2849C42.9826 0.000949554 37.8978 2.10805 34.149 5.85781L33.2195 6.78735Z" fill="url(#paint1_linear_1_12625)"/>
<path opacity="0.4" d="M211.795 8.89199L200.115 32.6214L249.906 42.6884C253.223 43.3745 255.362 46.6112 254.694 49.9317C254.611 50.3482 254.481 50.7541 254.308 51.1419C257.133 46.3099 256.333 40.1787 252.361 36.2343L222.002 5.85785C218.262 2.10584 213.182 -0.00207921 207.884 2.20009e-05H206.341C208.467 -0.00567618 210.443 1.09583 211.557 2.90749C212.67 4.71915 212.761 6.97977 211.795 8.87445V8.89199Z" fill="url(#paint2_linear_1_12625)"/>
<path d="M254.308 51.2118C255.652 48.1025 254.224 44.4919 251.116 43.1441C250.728 42.9709 250.322 42.8415 249.906 42.7583L200.114 32.6211L133.118 167.824C131.326 171.444 127.172 173.228 123.314 172.033C127.93 173.944 133.243 172.892 136.783 169.368L252.361 53.7724C253.131 53.0178 253.787 52.1553 254.308 51.2118Z" fill="url(#paint3_linear_1_12625)"/>
</g>
<defs>
<linearGradient id="paint0_linear_1_12625" x1="7175.14" y1="11210" x2="12926.8" y2="1246.15" gradientUnits="userSpaceOnUse">
<stop stop-color="#8855FF"/>
<stop offset="1" stop-color="#00B6FF"/>
</linearGradient>
<linearGradient id="paint1_linear_1_12625" x1="10992.9" y1="2601.28" x2="11178.7" y2="1834.19" gradientUnits="userSpaceOnUse">
<stop offset="0.07" stop-color="white"/>
<stop offset="0.89" stop-color="#009FFF"/>
</linearGradient>
<linearGradient id="paint2_linear_1_12625" x1="1282.23" y1="11382.4" x2="7019.83" y2="16288.4" gradientUnits="userSpaceOnUse">
<stop offset="0.07" stop-color="white"/>
<stop offset="0.89" stop-color="#009FFF"/>
</linearGradient>
<linearGradient id="paint3_linear_1_12625" x1="1571.75" y1="5571.23" x2="10168.5" y2="8547.76" gradientUnits="userSpaceOnUse">
<stop stop-color="#4036C1"/>
<stop offset="0.98" stop-color="#539EFF"/>
</linearGradient>
<clipPath id="clip0_1_12625">
<rect width="256" height="174" fill="white"/>
</clipPath>
</defs>
</svg>
