<svg width="512" height="50" viewBox="0 0 512 50" fill="none" xmlns="http://www.w3.org/2000/svg">
<g clip-path="url(#clip0_1_12631)">
<path d="M39.0658 48.3718L72.0751 15.3576C72.7407 14.6941 73.1148 13.7929 73.1148 12.8531C73.1148 11.9133 72.7407 11.0121 72.0751 10.3486L63.4045 1.673C62.3363 0.601421 60.8853 -0.000605528 59.3723 4.57035e-07H13.7904C12.2761 4.57035e-07 10.8239 0.602063 9.75319 1.673L1.05257 10.3636C0.388246 11.0145 0.0097455 11.9027 0.000172417 12.8327C-0.00904246 13.7627 0.35144 14.6583 1.00248 15.3225L1.05257 15.3726L34.0618 48.3869C34.7253 49.0525 35.6265 49.4266 36.5663 49.4266C37.5061 49.4266 38.4073 49.0525 39.0708 48.3869L39.0658 48.3718Z" fill="url(#paint0_linear_1_12631)"/>
<path opacity="0.4" d="M9.48755 1.93848C10.6797 0.740454 12.3955 0.224372 14.0507 0.566017L71.3737 12.1919C72.321 12.3878 72.932 13.3123 72.7411 14.2606C72.7173 14.3795 72.6804 14.4955 72.6309 14.6062C73.4378 13.2262 73.2092 11.4751 72.0749 10.3486L63.4044 1.673C62.3362 0.601421 60.8852 -0.000605528 59.3721 4.57035e-07H13.7903C12.2759 0.000271195 10.8237 0.602063 9.75303 1.673L9.48755 1.93848Z" fill="url(#paint1_linear_1_12631)"/>
<path opacity="0.4" d="M60.4891 2.53957L57.1531 9.31674L71.3736 12.1919C72.3209 12.3878 72.932 13.3123 72.7411 14.2606C72.7173 14.3796 72.6803 14.4955 72.6309 14.6062C73.4378 13.2262 73.2091 11.4751 72.0749 10.3486L63.4043 1.67302C62.3361 0.601433 60.8851 -0.000593827 59.3721 6.28351e-06H58.9313C59.5386 -0.00162113 60.103 0.31297 60.421 0.830385C60.739 1.3478 60.7648 1.99344 60.4891 2.53456V2.53957Z" fill="url(#paint2_linear_1_12631)"/>
<path d="M72.6309 14.6259C73.0149 13.7379 72.6069 12.7067 71.7193 12.3218C71.6085 12.2723 71.4926 12.2354 71.3737 12.2116L57.1531 9.31641L38.0188 47.9307C37.5071 48.9645 36.3207 49.4739 35.2188 49.1329C36.5372 49.6784 38.0544 49.3782 39.0657 48.3715L72.0749 15.3573C72.2948 15.1418 72.4821 14.8954 72.6309 14.6259Z" fill="url(#paint3_linear_1_12631)"/>
<path d="M273.542 6.10431V25.0834C273.542 28.199 274.293 30.5666 275.796 32.1861C277.298 33.8057 279.375 34.6155 282.027 34.6155C284.645 34.6155 286.707 33.8374 288.213 32.2813C289.719 30.7252 290.47 28.4044 290.467 25.3188V6.10431H296.282L296.302 25.0333C296.352 27.2458 296.013 29.4498 295.301 31.545C294.693 33.303 293.709 34.9067 292.415 36.2434C291.149 37.515 289.607 38.4768 287.907 39.0535C285.996 39.6998 283.989 40.0149 281.972 39.9851C279.978 40.0124 277.994 39.6973 276.106 39.0535C274.412 38.4758 272.871 37.522 271.598 36.2635C270.316 34.961 269.34 33.3906 268.738 31.6652C268.036 29.6176 267.697 27.4631 267.736 25.2988V6.10431H273.542ZM254.798 6.68035C256.792 7.41673 258.653 8.47237 260.308 9.80596L257.162 14.2389C255.773 13.2022 254.258 12.3456 252.654 11.6893C251.221 11.1127 249.691 10.8136 248.146 10.8078C246.428 10.8078 245.09 11.1935 244.139 11.9749C243.242 12.6412 242.712 13.6924 242.711 14.8099C242.677 15.4024 242.771 15.9953 242.987 16.5481C243.272 17.0902 243.693 17.5492 244.209 17.8805C244.962 18.3762 245.782 18.7624 246.643 19.0275C247.68 19.3781 248.992 19.7438 250.59 20.1245C252.173 20.5161 253.729 21.0097 255.249 21.6021C256.479 22.0724 257.619 22.7501 258.62 23.6057C259.478 24.3532 260.162 25.28 260.623 26.3206C261.111 27.4732 261.348 28.7161 261.32 29.9672C261.349 31.4308 261.05 32.8824 260.443 34.2148C259.878 35.4326 259.046 36.5076 258.009 37.3604C256.9 38.2535 255.624 38.9176 254.257 39.3139C252.696 39.7751 251.075 39.9997 249.448 39.9801C246.926 39.989 244.422 39.5463 242.055 38.6728C239.649 37.7645 237.439 36.4043 235.543 34.6656L239.075 30.4731C240.548 31.7753 242.201 32.8584 243.983 33.6888C245.757 34.4594 247.675 34.8419 249.609 34.8109C251.422 34.8109 252.861 34.4285 253.926 33.6638C254.953 32.9727 255.555 31.8053 255.524 30.5682C255.535 30.0116 255.429 29.4588 255.214 28.9453C254.954 28.4127 254.556 27.9594 254.062 27.633C253.351 27.1576 252.58 26.7818 251.767 26.516C250.521 26.0858 249.254 25.7196 247.971 25.419C246.358 25.0537 244.769 24.5921 243.212 24.0365C241.946 23.5977 240.762 22.9529 239.706 22.1281C238.781 21.3882 238.043 20.441 237.552 19.3631C237.025 18.112 236.773 16.7628 236.811 15.406C236.79 14.0233 237.081 12.6537 237.662 11.3988C238.22 10.2212 239.019 9.17354 240.006 8.3233C241.053 7.42148 242.271 6.74003 243.588 6.3197C245.065 5.84525 246.609 5.61185 248.161 5.62846C250.418 5.58557 252.665 5.94167 254.798 6.68035ZM128 6.10431V11.5391H117.416V39.4792H111.501V11.5391H100.922V6.10431H128ZM149.073 6.10431C150.826 6.08457 152.571 6.3346 154.247 6.84565C155.677 7.27769 157.005 7.99128 158.154 8.94441C159.221 9.85001 160.062 10.9924 160.609 12.2804C161.656 14.8822 161.75 17.7706 160.874 20.435C160.499 21.4911 159.943 22.4741 159.231 23.3403C158.52 24.1877 157.674 24.912 156.727 25.4841C155.722 26.0867 154.638 26.5453 153.506 26.8466L162.522 39.4792H155.605L147.38 27.8484H140.012V39.4792H134.196V6.10431H149.073ZM193.363 6.10431V11.3988H174.484V19.9792H191.219V25.2737H174.484V34.1897H193.603V39.4792H168.668V6.10431H193.363ZM217.867 5.86889L232.558 39.4792H226.357L222.976 31.4198H207.192L203.761 39.4792H197.75L212.432 5.86889H217.867ZM319.234 6.10431C320.986 6.08457 322.731 6.3346 324.408 6.84565C325.837 7.27769 327.166 7.99128 328.315 8.94441C329.382 9.85122 330.224 10.9932 330.774 12.2804C331.82 14.8828 331.912 17.7712 331.035 20.435C330.659 21.4911 330.103 22.4741 329.392 23.3403C328.681 24.1877 327.834 24.912 326.887 25.4841C325.883 26.0867 324.799 26.5453 323.667 26.8466L332.683 39.4792H325.765L317.541 27.8484H310.172V39.4792H304.357V6.10431H319.234ZM363.553 6.10431L363.528 11.3988H344.669V19.9792H361.404V25.2737H344.669V34.1897H363.789V39.4792H338.854V6.10431H363.553ZM437.336 5.86889L452.017 39.4792H445.816L442.435 31.4198H426.651L423.22 39.4792H417.21L431.896 5.86889H437.336ZM478.144 6.10431V11.5391H467.56V39.4792H461.644V11.5391H451.06V6.10431H478.144ZM497.308 5.86889L511.995 39.4792H505.794L502.412 31.4198H486.629L483.198 39.4792H477.187L491.874 5.86889H497.308ZM397.519 6.10431C399.969 6.07581 402.404 6.50386 404.697 7.36658C406.783 8.15671 408.694 9.34791 410.322 10.8729C411.894 12.364 413.136 14.1675 413.969 16.1674C414.836 18.2506 415.274 20.4876 415.256 22.7442C415.272 25.0103 414.834 27.2567 413.969 29.3511C413.14 31.3588 411.897 33.1696 410.322 34.6656C408.691 36.1862 406.781 37.3768 404.697 38.1719C402.406 39.0477 399.971 39.4844 397.519 39.4592H385.077V6.10431H397.519ZM397.504 11.3988H390.907V34.1897H397.504C399.136 34.2098 400.756 33.9243 402.283 33.3482C403.654 32.8347 404.9 32.0357 405.939 31.004C406.957 29.9789 407.755 28.7568 408.283 27.4126C409.4 24.466 409.4 21.2127 408.283 18.2662C407.752 16.9175 406.955 15.6894 405.939 14.6547C404.903 13.6081 403.657 12.7922 402.283 12.2604C400.76 11.6679 399.138 11.3753 397.504 11.3988ZM215.057 12.8765L209.336 26.2154H220.827L215.057 12.8765ZM434.516 12.8765L428.82 26.2154H440.311L434.516 12.8765ZM494.498 12.8765L488.773 26.2154H500.264L494.498 12.8765ZM148.577 11.3988H140.012V22.649H148.622C150.726 22.649 152.396 22.1381 153.631 21.1163C154.864 20.1124 155.554 18.5878 155.495 16.9989C155.505 15.1489 154.904 13.753 153.691 12.8114C152.479 11.8697 150.774 11.3988 148.577 11.3988ZM318.738 11.3988H310.172V22.649H318.783C320.887 22.649 322.556 22.1381 323.792 21.1163C325.025 20.1124 325.715 18.5878 325.655 16.9989C325.655 15.1489 325.054 13.753 323.852 12.8114C322.64 11.8697 320.935 11.3988 318.738 11.3988Z" fill="#2E40AA"/>
</g>
<defs>
<linearGradient id="paint0_linear_1_12631" x1="2049.23" y1="3201.6" x2="3691.93" y2="355.904" gradientUnits="userSpaceOnUse">
<stop stop-color="#8855FF"/>
<stop offset="1" stop-color="#00B6FF"/>
</linearGradient>
<linearGradient id="paint1_linear_1_12631" x1="3139.61" y1="742.93" x2="3192.65" y2="523.848" gradientUnits="userSpaceOnUse">
<stop offset="0.07" stop-color="white"/>
<stop offset="0.89" stop-color="#009FFF"/>
</linearGradient>
<linearGradient id="paint2_linear_1_12631" x1="366.208" y1="3250.84" x2="2004.88" y2="4652.01" gradientUnits="userSpaceOnUse">
<stop offset="0.07" stop-color="white"/>
<stop offset="0.89" stop-color="#009FFF"/>
</linearGradient>
<linearGradient id="paint3_linear_1_12631" x1="448.896" y1="1591.16" x2="2904.15" y2="2441.26" gradientUnits="userSpaceOnUse">
<stop stop-color="#4036C1"/>
<stop offset="0.98" stop-color="#539EFF"/>
</linearGradient>
<clipPath id="clip0_1_12631">
<rect width="512" height="50" fill="white"/>
</clipPath>
</defs>
</svg>
