<svg width="256" height="305" viewBox="0 0 256 305" fill="none" xmlns="http://www.w3.org/2000/svg">
<g clip-path="url(#clip0_1_12648)">
<path d="M28.5709 244.485H50.5523V255.639H28.5709V280.946C28.5265 282.762 28.7756 284.574 29.3086 286.31C29.7121 287.599 30.4296 288.768 31.3967 289.711C32.3288 290.589 33.4624 291.225 34.6977 291.562C35.932 291.891 37.2008 292.071 38.4767 292.097L39.0239 292.099C40.1743 292.099 41.3621 292.099 42.5875 291.937L43.3141 291.847L44.7229 291.687C45.1842 291.633 45.6384 291.574 46.0885 291.499L46.7481 291.394L47.9899 291.21C48.3902 291.15 48.7793 291.087 49.1644 291.012L50.0823 290.828C50.2279 290.798 50.37 290.768 50.5085 290.738L51.2993 290.562C51.4244 290.532 51.5463 290.503 51.6651 290.474L53.1406 300.864C51.953 301.535 50.695 302.071 49.3895 302.465C47.9103 302.932 46.4026 303.304 44.8756 303.578C43.2752 303.878 41.6122 304.103 39.8742 304.265C38.1362 304.428 36.4607 304.503 34.7852 304.503C31.8203 304.546 28.867 304.124 26.0326 303.253C23.507 302.466 21.2024 301.095 19.3057 299.252C17.3518 297.339 15.8779 294.991 15.0044 292.399C13.9176 289.179 13.4014 285.794 13.4789 282.397V255.639H0V244.485H13.4414V230.069H28.5709V244.485ZM82.4492 273.757V303.365H67.1572V224.129H93.7775C97.8028 224.08 101.815 224.602 105.693 225.68C109.005 226.594 112.108 228.14 114.834 230.231C117.34 232.229 119.326 234.803 120.623 237.733C122.046 240.991 122.746 244.519 122.673 248.074C122.707 250.656 122.366 253.229 121.661 255.714C120.452 260.033 117.85 263.831 114.258 266.517C112.431 267.901 110.45 269.071 108.357 270.005L125.387 302.702V303.415H108.944L94.0401 273.757H82.4492ZM82.4617 261.328H93.7775C95.9044 261.369 98.0215 261.031 100.029 260.328C101.709 259.731 103.216 258.731 104.418 257.414C105.354 256.371 106.073 255.151 106.531 253.826C106.979 252.467 107.223 251.051 107.254 249.623L107.256 249.087C107.294 247.185 106.971 245.293 106.306 243.51C105.708 241.957 104.728 240.581 103.455 239.509C102.231 238.521 100.825 237.782 99.3166 237.333C97.6996 236.862 96.0283 236.607 94.3462 236.573L82.4617 236.571V261.328ZM150.307 303.365H135.04V224.129H162.135C166.115 224.073 170.075 224.708 173.838 226.005C177.125 227.139 180.158 228.907 182.766 231.207C185.192 233.46 187.111 236.206 188.393 239.259C189.666 242.347 190.34 245.646 190.381 248.982L190.381 249.649C190.416 253.037 189.739 256.394 188.393 259.502C187.098 262.469 185.179 265.122 182.766 267.28C180.149 269.581 177.102 271.34 173.801 272.456C170.035 273.739 166.076 274.365 162.097 274.307H150.294L150.307 303.365ZM150.307 261.903H162.11C164.044 261.942 165.967 261.607 167.774 260.915C169.289 260.321 170.661 259.413 171.8 258.252C172.846 257.132 173.651 255.808 174.164 254.363C174.694 252.887 174.965 251.33 174.964 249.762C174.975 248.009 174.705 246.265 174.164 244.598C173.669 243.052 172.865 241.622 171.8 240.397C170.676 239.178 169.303 238.214 167.774 237.571C165.976 236.844 164.049 236.49 162.11 236.533H150.307V261.903ZM253.349 289.324C251.949 292.413 249.942 295.19 247.447 297.488C244.882 299.788 241.886 301.556 238.632 302.69C235.231 303.855 231.666 304.467 228.074 304.504L227.304 304.503C224.241 304.539 221.19 304.118 218.251 303.253C215.565 302.451 213.029 301.209 210.749 299.577C208.686 298.06 206.861 296.243 205.335 294.188C203.728 292.034 202.385 289.696 201.334 287.223C200.238 284.523 199.429 281.715 198.921 278.846C198.343 275.648 198.058 272.404 198.07 269.155V258.49C198.063 255.435 198.319 252.385 198.833 249.374C199.257 246.931 199.91 244.533 200.783 242.213L201.121 241.347C202.227 238.445 203.77 235.729 205.698 233.295C207.524 230.992 209.686 228.977 212.112 227.318C214.292 225.911 216.668 224.837 219.164 224.129C221.6 223.436 224.115 223.063 226.645 223.02L227.404 223.017C231.355 222.949 235.286 223.575 239.02 224.867C245.56 227.114 250.796 232.099 253.362 238.521C254.8 242.083 255.682 245.845 255.975 249.674H240.746C240.656 247.555 240.303 245.455 239.695 243.423C239.205 241.783 238.379 240.263 237.27 238.959C236.145 237.774 234.757 236.87 233.218 236.321C231.353 235.681 229.388 235.376 227.417 235.42C226.288 235.416 225.163 235.546 224.066 235.808C223.067 236.052 222.107 236.435 221.215 236.946C219.685 237.882 218.4 239.167 217.464 240.697C216.369 242.45 215.527 244.348 214.963 246.336C214.469 248.147 214.126 249.995 213.938 251.863C213.709 254.022 213.601 256.193 213.613 258.365V269.13C213.588 271.96 213.759 274.789 214.125 277.595C214.405 279.817 214.942 281.999 215.726 284.097C216.196 285.292 216.809 286.425 217.551 287.473C218.219 288.433 219.038 289.278 219.977 289.974C220.965 290.705 222.08 291.247 223.265 291.574C224.585 291.938 225.948 292.115 227.317 292.099C229.141 292.121 230.959 291.864 232.706 291.337C234.237 290.865 235.637 290.043 236.794 288.936C237.983 287.755 238.893 286.324 239.458 284.747C240.181 282.771 240.602 280.697 240.708 278.595H256C255.779 282.303 254.881 285.94 253.349 289.324Z" fill="#398CCB"/>
<path d="M186.38 92.4021L224.866 114.621V159.084L186.38 181.303L169.295 171.423L127.75 195.407L86.4541 171.56L69.6079 181.303L31.1216 159.047V114.621L69.6079 92.4021L108.094 114.621V159.047L96.4508 165.78L127.75 183.854L159.298 165.642L147.893 159.047V114.621L186.38 92.4021ZM157.896 126.199V153.32L181.378 166.874V139.753L157.896 126.199ZM214.863 126.162L191.381 139.716V166.874L214.863 153.282V126.162ZM41.1245 126.162V153.282L64.6064 166.836V139.716L41.1245 126.162ZM98.0912 126.162L74.6094 139.716V166.836L98.0912 153.282V126.162ZM186.38 103.98L162.898 117.534L186.38 131.101L209.861 117.534L186.38 103.98ZM69.6079 103.943L46.126 117.534L69.6079 131.063L93.0898 117.534L69.6079 103.943ZM88.751 35.0228V46.5636L53.1406 67.1322V101.905L43.1376 107.682V61.3555L88.751 35.0228ZM127.237 0L165.749 22.219V34.4376L212.362 61.3555V107.394L202.359 101.617V67.1322L165.749 45.991V66.657L127.262 88.876L88.776 66.657V22.219L127.237 0ZM98.7789 33.7599V60.8803L122.236 74.4343V47.3264L98.7789 33.7599ZM155.721 33.7599L132.264 47.3264V74.4218L155.721 60.8803V33.7599ZM127.237 11.5534L103.78 25.1074L127.237 38.6613L150.719 25.1074L127.237 11.5534Z" fill="#398CCB"/>
</g>
<defs>
<clipPath id="clip0_1_12648">
<rect width="256" height="305" fill="white"/>
</clipPath>
</defs>
</svg>
