<svg width="512" height="539" viewBox="0 0 512 539" fill="none" xmlns="http://www.w3.org/2000/svg">
<g clip-path="url(#clip0_1_12658)">
<path d="M175.561 463.559V510.863C175.401 513.786 175.767 516.713 176.641 519.506C177.34 521.203 178.582 522.621 180.171 523.539C181.967 524.601 184.028 525.13 186.113 525.063C188.34 525.124 190.537 524.541 192.441 523.384C194.103 522.387 195.396 520.877 196.126 519.082C196.989 515.832 197.334 512.466 197.149 509.108V463.559H211.116V507.159C211.329 512.297 210.915 517.441 209.882 522.477C208.932 525.548 207.311 528.368 205.136 530.735C202.917 533.255 200.152 535.234 197.052 536.522C193.668 537.875 190.046 538.531 186.403 538.452C181.532 538.561 176.73 537.291 172.551 534.786C168.895 532.643 165.96 529.459 164.12 525.641C162.856 522.892 162.067 518.721 161.751 513.129L161.673 511.493C161.663 511.213 161.653 510.931 161.644 510.645L161.606 508.893C161.597 508.296 161.593 507.686 161.593 507.063L161.612 463.559H175.561ZM40.4175 463.559V477.275H27.1058V536.696H12.9838V477.275H0V463.559H40.4175ZM75.4138 463.559H94.0889C102.166 463.559 107.921 464.279 111.356 465.719C114.799 467.185 117.69 469.704 119.613 472.915C121.777 476.487 122.868 480.606 122.757 484.78C122.915 489.067 121.698 493.292 119.285 496.838C116.667 500.309 113.032 502.879 108.886 504.188L126.249 536.696H110.989L94.5326 505.732H89.3429V536.696H75.4138V463.559ZM289.578 463.559V477.121H267.103V490.414H289.578V503.783H267.103V536.696H253.27V463.559H289.578ZM364.413 463.559V477.121H341.938V490.414H364.413V503.783H341.938V536.696H328.105V463.559H364.413ZM416.754 463.559V523.423H437.03V536.696H402.825V463.559H416.754ZM512 463.559V477.179H485.897V490.414H512V503.783H485.897V523.037H512V536.696H472.084V463.559H512ZM97.002 477.044H89.285L89.3429 492.15H97.6194C102.057 492.15 105.105 491.571 106.764 490.414C108.531 489.037 109.476 486.856 109.272 484.626C109.318 483.116 108.886 481.631 108.037 480.382C107.227 479.2 106.066 478.303 104.719 477.816C102.2 477.17 99.5985 476.91 97.002 477.044Z" fill="#5E464D"/>
<path d="M255.527 394.104C363.099 394.104 450.303 305.881 450.303 197.052C450.303 88.2233 363.099 0 255.527 0C147.956 0 60.7516 88.2233 60.7516 197.052C60.7516 305.881 147.956 394.104 255.527 394.104Z" fill="#5E464D"/>
<path d="M194.274 371.784C202.242 374.504 229 383.205 230.139 374.697C230.756 370.028 216.634 365.243 197.515 355.115C170.323 340.744 145.447 322.365 123.722 300.595C92.0109 269.501 73.7766 227.2 72.9444 182.796C71.3238 123.182 94.629 74.9899 132.963 43.8906C86.0852 80.0726 58.0188 135.461 56.5652 194.66C55.4269 237.779 67.4847 274.106 90.1339 307.173C97.167 316.257 105.388 324.355 114.577 331.25C136.281 347.668 168.017 362.851 194.274 371.764" fill="white"/>
<path d="M452.985 151.889C440.908 95.0926 403.365 55.331 353.147 27.2414C391.635 54.5786 445.654 112.707 413.725 163.986C386.715 205.059 321.121 197.014 285.141 177.49C242.466 154.339 189.065 102.25 241.733 51.3375C275.881 18.3862 384.497 55.331 365.378 104.584C354.227 133.234 310.819 126.867 291.295 112.861C276.903 102.52 264.788 84.7519 271.212 66.4049C273.257 60.5207 272.968 51.3954 264.653 58.1091C258.518 63.1252 255.334 71.3823 254.254 79.0992C245.167 143.324 359.59 193.117 393.545 130.976C411.159 98.7196 382.606 51.8777 346.664 32.7011C319.655 18.2318 291.546 8.06475 257.09 10.5342C201.991 14.3926 155.767 48.926 149.96 105.221C144.172 161.169 181.58 211.522 225.624 241.637C271.926 273.277 334.163 294.132 391.114 275.264C442.162 258.345 463.248 199.754 452.985 151.928" fill="white"/>
<path d="M381.14 108.386C386.619 71.576 353.34 46.303 322.607 34.824C286.376 21.3194 238.511 27.2228 212.119 57.2224C192.827 79.2543 194.081 111.241 204.036 137.131C219.084 176.237 253.058 204.5 292.607 216.712C320.716 225.394 354.69 229.175 383.166 220.011C424.702 206.642 438.226 163.33 429.641 123.646C427.803 115.067 424.98 106.729 421.229 98.7975C415.982 87.7815 399.911 65.4796 422.059 92.6432C424.381 95.6705 426.519 98.8336 428.464 102.116C433.033 109.621 436.655 117.663 439.248 126.058C451.326 163.099 441.853 206.314 408.381 228.674C382.703 245.786 350.06 247.831 320.272 243.548C280.337 237.76 242.698 218.468 216.537 187.427C192.654 159.125 176.351 118.476 186.171 81.3186C193.367 54.1357 215.438 33.8401 241.868 25.3708C275.302 14.5477 312.112 19.583 342.189 37.1584C357.275 45.9364 371.127 58.0906 378.844 74.0261C382.334 81.2049 384.211 89.0606 384.342 97.0419C384.419 100.274 384.167 103.506 383.59 106.688C383.378 107.846 380.928 111.106 381.275 108.424" fill="#3FE0C5"/>
</g>
<defs>
<clipPath id="clip0_1_12658">
<rect width="512" height="539" fill="white"/>
</clipPath>
</defs>
</svg>
