<svg width="256" height="253" viewBox="0 0 256 253" fill="none" xmlns="http://www.w3.org/2000/svg">
<g clip-path="url(#clip0_1_12652)">
<path d="M127.696 252.847C196.711 252.847 252.659 196.245 252.659 126.423C252.659 56.6016 196.711 0 127.696 0C58.681 0 2.73328 56.6016 2.73328 126.423C2.73328 196.245 58.681 252.847 127.696 252.847Z" fill="#5E464D"/>
<path d="M88.3976 238.527C93.5095 240.273 110.677 245.855 111.407 240.396C111.803 237.401 102.743 234.331 90.477 227.833C73.0315 218.613 57.0717 206.822 43.1333 192.855C22.7883 172.906 11.0898 145.766 10.5558 117.278C9.51613 79.0315 24.4681 48.1126 49.0621 28.1602C18.9866 51.3735 0.979968 86.9094 0.0473782 124.89C-0.682891 152.554 7.05301 175.86 21.5841 197.075C26.0964 202.903 31.3709 208.099 37.2664 212.522C51.191 223.056 71.5519 232.797 88.3976 238.515" fill="white"/>
<path d="M254.379 97.4466C246.631 61.0074 222.544 35.4974 190.326 17.4759C215.019 35.0147 249.676 72.308 229.191 105.207C211.863 131.559 169.779 126.397 146.695 113.871C119.317 99.0185 85.0557 65.5994 118.846 32.9353C140.754 11.7946 210.439 35.4974 198.173 67.0971C191.019 85.4776 163.17 81.393 150.644 72.407C141.41 65.7727 133.637 54.373 137.759 42.6021C139.071 38.827 138.885 32.9724 133.551 37.2798C129.615 40.4979 127.572 45.7955 126.879 50.7464C121.049 91.951 194.46 123.897 216.244 84.0294C227.545 63.3343 209.226 33.2819 186.167 20.9787C168.839 11.6956 150.805 5.17267 128.699 6.75698C93.3486 9.23247 63.6923 31.3881 59.9666 67.5055C56.2534 103.4 80.2533 135.705 108.511 155.026C138.217 175.325 178.147 188.706 214.685 176.6C247.436 165.745 260.964 128.155 254.379 97.4713" fill="white"/>
<path d="M208.286 69.5367C211.801 45.9205 190.45 29.7061 170.732 22.3415C147.488 13.6773 116.779 17.4648 99.8467 36.7117C87.4693 50.8467 88.2738 71.3686 94.6606 87.9791C104.315 113.068 126.112 131.201 151.485 139.036C169.519 144.606 191.316 147.032 209.585 141.153C236.234 132.575 244.91 104.788 239.402 79.3273C238.223 73.8232 236.412 68.4737 234.006 63.3851C230.639 56.3176 220.329 42.0092 234.538 59.4367C236.028 61.3789 237.4 63.4083 238.647 65.514C241.579 70.3291 243.903 75.4885 245.566 80.8744C253.315 104.639 247.237 132.365 225.763 146.71C209.288 157.689 188.346 159.001 169.235 156.253C143.613 152.54 119.465 140.162 102.681 120.247C87.3579 102.089 76.8989 76.0101 83.1991 52.1711C87.8159 34.7313 101.976 21.7102 118.933 16.2765C140.383 9.33278 163.999 12.5633 183.296 23.8392C192.975 29.4709 201.862 37.2687 206.813 47.4925C209.052 52.0982 210.256 57.1382 210.34 62.2588C210.389 64.3327 210.228 66.4063 209.858 68.4475C209.721 69.1901 208.149 71.2819 208.372 69.5615" fill="#3FE0C5"/>
</g>
<defs>
<clipPath id="clip0_1_12652">
<rect width="256" height="253" fill="white"/>
</clipPath>
</defs>
</svg>
