<svg width="256" height="202" viewBox="0 0 256 202" fill="none" xmlns="http://www.w3.org/2000/svg">
<g clip-path="url(#clip0_1_12666)">
<path d="M93.6197 181.677L132.168 181.969H171.913C204.84 167.101 227.938 133.823 227.938 95.3957C227.938 43.1381 185.286 0.480469 133.146 0.480469C80.8797 0.480469 38.202 43.1362 38.202 95.3957C38.1992 133.613 60.9365 166.732 93.6197 181.677Z" fill="white"/>
<path d="M133.141 0C134.552 0 135.974 0.0341794 137.408 0.101563C139.897 0.211501 142.362 0.419043 144.798 0.71952L144.894 0.733848C145.239 0.774216 145.582 0.818856 145.925 0.865337L146.17 0.900597C148.532 1.2254 150.868 1.63939 153.173 2.13748C154.665 2.45065 156.162 2.81105 157.66 3.21738L159.031 3.60154L159.391 3.70681C159.896 3.85019 160.397 3.99957 160.898 4.15298L160.897 4.14282L162.047 4.503C162.712 4.71579 163.382 4.9403 164.064 5.17925L164.751 5.42312L165.543 5.71117C167.007 6.24489 168.455 6.81366 169.885 7.41646L171.721 8.16913L171.622 8.16918C177.585 10.8247 183.231 14.0768 188.482 17.8488L189.057 18.2636L189.826 18.8245C191.028 19.7279 192.208 20.6503 193.365 21.5994L194.608 22.6221L194.588 22.6198C199.241 26.5671 203.514 30.9517 207.342 35.7087L208.054 36.6029L208.515 37.1958L208.738 37.1969L208.739 37.4871C211.922 41.6378 214.772 46.0556 217.25 50.6999L217.753 51.6422C217.842 51.8281 217.938 52.0141 218.033 52.2005L218.19 52.2024L218.191 52.5103C224.727 65.4183 228.415 79.994 228.415 95.3973L228.403 94.1103L228.421 94.1107L228.405 94.3008L228.414 95.2382L228.421 95.3392L228.414 95.3392L228.415 95.3973C228.415 99.5238 228.147 103.605 227.626 107.621L227.466 108.801C227.398 109.274 227.327 109.747 227.253 110.218L226.995 111.763L226.777 112.965L226.623 113.767L226.49 114.425C225.997 116.844 225.41 119.235 224.729 121.601C224.515 122.343 224.293 123.081 224.062 123.816L223.922 124.257C215.852 149.539 197.424 170.715 172.855 182.064L172.109 182.405L171.913 182.447H132.165L93.9912 182.157H93.6235L93.4272 182.114C92.7847 181.824 92.1396 181.52 91.4859 181.2C77.8365 174.583 66.174 164.901 57.235 153.165L57.1773 153.165L57.1763 153.095L56.6143 152.345L55.8462 151.295L55.755 151.166C52.7758 147.039 50.1268 142.673 47.8373 138.111L47.8021 138.068L47.8 138.036C41.3137 125.083 37.7257 110.553 37.7257 95.3973C37.7257 79.5974 41.6072 64.6706 48.4651 51.5216L48.5394 51.3727L48.5376 51.383C50.9122 46.8481 53.6412 42.5255 56.6872 38.4523L57.9775 36.7501L57.977 36.7667C61.7972 31.8864 66.081 27.3846 70.7609 23.3287L71.6909 22.5331C73.3671 21.1172 75.0925 19.7578 76.864 18.4579L78.0558 17.5974L78.9574 16.9656L79.1651 16.8224C84.0029 13.4852 89.1617 10.5832 94.5837 8.17264L94.5209 8.17389L95.7112 7.68005C98.1598 6.6292 100.661 5.67803 103.208 4.83172L104.29 4.47659V4.47289L104.588 4.38037L104.985 4.25398L105.112 4.22136L105.24 4.18392C107.562 3.46872 109.923 2.84125 112.317 2.30427L113.098 2.12985L113.876 1.96147L114.452 1.8392C117.078 1.30942 119.675 0.901099 122.268 0.619162L123.38 0.506085C126.191 0.215913 129.036 0.050447 131.912 0.0136144L132.664 0.00857401L132.665 0H133.141ZM104.29 167.731H95.6775V181.217L104.29 181.282V167.731ZM94.7248 167.579H86.4766V177.453L86.8719 177.678C88.6827 178.7 90.3461 179.584 91.9554 180.369L92.8834 180.812L93.7264 181.203L94.7248 181.204V167.579ZM179.564 167.578H171.319V181.202H172.312L172.767 180.995C174.573 180.161 176.434 179.203 178.478 178.068L179.166 177.683L179.564 177.457V167.578ZM132.421 167.731H124.171L124.172 181.193H132.422L132.421 167.731ZM122.943 167.731H114.704L114.705 181.193H122.943V167.731ZM113.502 167.572H105.243V181.193H113.502V167.572ZM170.051 167.731H161.847V181.193H170.052L170.051 167.731ZM160.658 167.731H152.391L152.392 181.193H160.659L160.658 167.731ZM151.188 167.731H142.957L142.958 181.193H151.188L151.188 167.731ZM141.852 167.731H133.617L133.617 181.193H141.853L141.852 167.731ZM188.872 167.731H180.626L180.627 176.835L181.373 176.392C183.734 174.977 185.851 173.609 187.827 172.208L188.481 171.74L188.873 171.452L188.872 167.731ZM85.2686 167.731H77.0404V171.33L77.6954 171.811C79.6878 173.256 81.798 174.649 84.0351 176.004L85.0017 176.582L85.2696 176.738L85.2686 167.731ZM193.595 167.731H190.086L190.087 170.539L190.77 170.016C191.475 169.469 192.156 168.926 192.816 168.382L193.47 167.838L193.595 167.731ZM75.8153 167.739H72.4905L72.821 168.018C73.3228 168.437 73.824 168.846 74.3246 169.244L75.0752 169.834L75.8162 170.402L75.8153 167.739ZM104.032 153.171H95.7956V166.778H104.032V153.171ZM85.2629 153.171H77.029L77.028 166.629H85.2619L85.2629 153.171ZM198.326 153.175H190.089L190.085 166.625H194.898L195.327 166.254L195.838 165.798L196.365 165.316L196.921 164.8L197.514 164.239L198.326 163.462V153.175ZM179.669 153.164H171.004V166.625H179.669V153.164ZM94.842 153.164H86.2146V166.625H94.842V153.164ZM113.752 153.164H104.984V166.62H113.752V153.164ZM122.943 153.171H114.705L114.704 166.62H122.943V153.171ZM151.188 153.171H142.958L142.957 166.62H151.188L151.188 153.171ZM160.659 153.171H152.392L152.391 166.62H160.658L160.659 153.171ZM132.422 153.171H124.172L124.171 166.62H132.421L132.422 153.171ZM170.052 153.171H161.847V166.62H170.051L170.052 153.171ZM141.853 153.171H133.617L133.617 166.62H141.852L141.853 153.171ZM188.877 153.171H180.623L180.622 166.616H188.876L188.877 153.171ZM75.822 153.173H67.5737L67.5709 163.307L68.1166 163.83C68.8027 164.484 69.4771 165.112 70.1447 165.719L70.8101 166.319L71.1415 166.612H75.821L75.822 153.173ZM207.627 153.177H199.537V162.279L200.468 161.344C202.569 159.203 204.544 156.999 206.394 154.728L207.179 153.751L207.627 153.177ZM66.3505 153.176H58.4634L58.7223 153.509C60.8111 156.173 63.0893 158.772 65.5189 161.271L66.3505 162.116V153.176ZM189.128 138.694H180.512V152.217H189.128V138.694ZM104.29 138.694H95.6765V152.217H104.29V138.694ZM142.006 138.694H133.374V152.217H142.006V138.694ZM170.051 138.694H161.847V152.213H170.052L170.051 138.694ZM66.3477 138.694H58.129L58.13 152.213H66.3486L66.3477 138.694ZM151.188 138.694H142.957L142.958 152.213H151.188L151.188 138.694ZM160.658 138.694H152.391L152.392 152.213H160.659L160.658 138.694ZM94.7238 138.694H86.4775L86.4785 152.213H94.7248L94.7238 138.694ZM75.8086 138.694H67.5633L67.5642 152.213H75.8096L75.8086 138.694ZM207.767 138.694H199.529L199.53 152.213H207.768L207.767 138.694ZM132.421 138.694H124.171L124.172 152.213H132.422L132.421 138.694ZM122.943 138.694H114.704L114.705 152.213H122.943V138.694ZM179.559 138.694H171.315L171.315 152.213H179.56L179.559 138.694ZM113.501 138.694H105.242L105.243 152.213H113.502L113.501 138.694ZM85.2619 138.694H77.028L77.029 152.213H85.2629L85.2619 138.694ZM198.317 138.694H190.08L190.081 152.213H198.318L198.317 138.694ZM216.852 138.705H209.006L209.007 151.358L209.564 150.592C211.965 147.242 214.178 143.683 216.203 139.932L216.751 138.905L216.852 138.705ZM57.0239 138.694H49.2511L49.3242 138.836C51.3047 142.658 53.5119 146.313 55.9275 149.762L56.5915 150.698L57.0235 151.292L57.0239 138.694ZM188.876 124.261H180.622L180.623 137.742H188.877L188.876 124.261ZM141.852 124.261H133.617L133.617 137.742H141.853L141.852 124.261ZM104.031 124.261H95.7946L95.7956 137.742H104.032L104.031 124.261ZM217.237 124.261H208.998V137.607H217.24L217.237 124.261ZM57.0115 124.261H48.7538V137.607H57.0115V124.261ZM151.188 124.261H142.957V137.605H151.188V124.261ZM85.2619 124.261H77.028V137.605H85.2619V124.261ZM179.559 124.261H171.315V137.605H179.559V124.261ZM207.767 124.261H199.529V137.605H207.767V124.261ZM113.501 124.261H105.242V137.605H113.501V124.261ZM170.051 124.261H161.847V137.605H170.051V124.261ZM132.421 124.261H124.171V137.605H132.421V124.261ZM198.317 124.261H190.08V137.605H198.317V124.261ZM94.7238 124.261H86.4775V137.605H94.7238V124.261ZM66.3477 124.261H58.129V137.605H66.3477V124.261ZM160.658 124.261H152.391V137.605H160.658V124.261ZM122.943 124.261H114.704V137.605H122.943V124.261ZM75.8086 124.261H67.5633V137.605H75.8086V124.261ZM222.917 124.257H218.306L218.307 135.754L218.385 135.595C219.958 132.303 221.32 128.984 222.461 125.641L222.833 124.525L222.917 124.257ZM47.5858 124.257H43.2378L43.3426 124.583C44.3746 127.753 45.583 130.872 46.9693 133.954L47.4974 135.109L47.5868 135.298L47.5858 124.257ZM47.5868 109.666H39.7749L39.8632 110.245C40.4552 113.988 41.2884 117.703 42.3587 121.413L42.6868 122.526L42.8863 123.177H47.5887L47.5868 109.666ZM217.238 109.668H209.002L209.001 123.175H217.237L217.238 109.668ZM226.371 109.666H220.056L218.313 109.669V123.174H223.262L223.471 122.499L223.686 121.776L223.868 121.144C224.623 118.493 225.265 115.8 225.787 113.071L225.879 112.589L225.985 112.007C226.045 111.669 226.104 111.331 226.161 110.992L226.288 110.216L226.371 109.666ZM179.56 109.668H171.315L171.315 123.167H179.559L179.56 109.668ZM170.052 109.668H161.847V123.167H170.051L170.052 109.668ZM207.768 109.668H199.53L199.529 123.167H207.767L207.768 109.668ZM160.659 109.668H152.392L152.391 123.167H160.658L160.659 109.668ZM75.8096 109.668H67.5642L67.5633 123.167H75.8086L75.8096 109.668ZM198.318 109.668H190.081L190.08 123.167H198.317L198.318 109.668ZM151.188 109.668H142.958L142.957 123.167H151.188L151.188 109.668ZM113.502 109.668H105.243L105.242 123.167H113.501L113.502 109.668ZM132.422 109.668H124.172L124.171 123.167H132.421L132.422 109.668ZM85.2629 109.668H77.029L77.028 123.167H85.2619L85.2629 109.668ZM104.032 109.668H95.7956L95.7946 123.167H104.031L104.032 109.668ZM188.877 109.668H180.623L180.622 123.167H188.876L188.877 109.668ZM122.943 109.668H114.705L114.704 123.167H122.943V109.668ZM94.7248 109.668H86.4785L86.4775 123.167H94.7238L94.7248 109.668ZM66.3486 109.668H58.13L58.129 123.167H66.3477L66.3486 109.668ZM141.853 109.668H133.617L133.617 123.167H141.852L141.853 109.668ZM57.022 109.668H48.7681L48.7671 123.165H57.021L57.022 109.668ZM75.8086 95.2335H67.5633L67.5642 108.714H75.8096L75.8086 95.2335ZM151.188 95.2335H142.957L142.958 108.714H151.188L151.188 95.2335ZM113.501 95.2335H105.242L105.243 108.714H113.502L113.501 95.2335ZM85.2619 95.2335H77.028L77.029 108.714H85.2629L85.2619 95.2335ZM160.658 95.2335H152.391L152.392 108.714H160.659L160.658 95.2335ZM198.317 95.2335H190.08L190.081 108.714H198.318L198.317 95.2335ZM122.943 95.2335H114.704L114.705 108.714H122.943V95.2335ZM188.876 95.2335H180.622L180.623 108.714H188.877L188.876 95.2335ZM66.3477 95.2335H58.129L58.13 108.714H66.3486L66.3477 95.2335ZM94.7238 95.2335H86.4775L86.4785 108.714H94.7248L94.7238 95.2335ZM170.051 95.2335H161.847V108.714H170.052L170.051 95.2335ZM104.031 95.2335H95.7946L95.7956 108.714H104.032L104.031 95.2335ZM217.237 95.2335H209.001L209.002 108.714H217.238L217.237 95.2335ZM218.304 95.2439V108.714H220.337L226.435 108.705L227.377 95.3297L218.304 95.2439ZM207.767 95.2335H199.529L199.53 108.714H207.768L207.767 95.2335ZM57.021 95.2335H48.7671L48.7681 108.714H57.022L57.021 95.2335ZM132.421 95.2335H124.171L124.172 108.714H132.422L132.421 95.2335ZM141.852 95.2335H133.617L133.617 108.714H141.853L141.852 95.2335ZM179.559 95.2335H171.315L171.315 108.714H179.56L179.559 95.2335ZM47.5782 95.2392L38.8584 95.2916L39.3291 105.929L39.5625 108.13L39.632 108.714H47.5792L47.5782 95.2392ZM47.5782 80.6719H39.8721L39.8081 81.0552L39.6811 81.878L39.5452 82.8474L39.3256 84.5064L38.8584 94.175L47.5772 94.1579L47.5782 80.6719ZM94.7238 80.6719H86.4775V94.1627H94.7238V80.6719ZM75.8086 80.6719H67.5633V94.1627H75.8086V80.6719ZM198.317 80.6719H190.08V94.1627H198.317V80.6719ZM170.051 80.6719H161.847V94.1627H170.051V80.6719ZM207.767 80.6719H199.529V94.1627H207.767V80.6719ZM104.031 80.6719H95.7946V94.1627H104.031V80.6719ZM179.559 80.6719H171.315V94.1627H179.559V80.6719ZM188.876 80.6719H180.622V94.1627H188.876V80.6719ZM113.501 80.6719H105.242V94.1627H113.501V80.6719ZM141.852 80.6719H133.617V94.1627H141.852V80.6719ZM122.943 80.6719H114.704V94.1627H122.943V80.6719ZM151.188 80.6719H142.957V94.1627H151.188V80.6719ZM57.021 80.6719H48.7671V94.1627H57.021V80.6719ZM217.237 80.6719H209.001V94.1627H217.237V80.6719ZM132.421 80.6719H124.171V94.1627H132.421V80.6719ZM66.3477 80.6719H58.129V94.1627H66.3477V80.6719ZM85.2619 80.6719H77.028V94.1627H85.2619V80.6719ZM160.658 80.6719H152.391V94.1627H160.658V80.6719ZM226.295 80.6738H218.307L218.306 94.1579L227.379 94.115L226.569 82.5125L226.533 82.257L226.295 80.6738ZM222.82 66.2152H218.311L218.312 79.7212H226.133L226.039 79.1532C225.391 75.4222 224.502 71.7071 223.376 67.9873L223.032 66.8713L222.82 66.2152ZM47.5868 66.2076L43.3455 66.2104L43.1381 66.8592C41.9687 70.5557 41.0319 74.2656 40.328 78.0163L40.1238 79.1428L40.0264 79.7193H47.5868V66.2076ZM198.317 66.2085H190.08V79.7164H198.317V66.2085ZM141.852 66.2085H133.617V79.7164H141.852V66.2085ZM94.7238 66.2085H86.4775V79.7164H94.7238V66.2085ZM151.188 66.2085H142.957V79.7164H151.188V66.2085ZM207.767 66.2085H199.529V79.7164H207.767V66.2085ZM188.876 66.2085H180.622V79.7164H188.876V66.2085ZM122.943 66.2085H114.704V79.7164H122.943V66.2085ZM179.559 66.2085H171.315V79.7164H179.559V66.2085ZM132.421 66.2085H124.171V79.7164H132.421V66.2085ZM75.8086 66.2085H67.5633V79.7164H75.8086V66.2085ZM104.031 66.2085H95.7946V79.7164H104.031V66.2085ZM85.2619 66.2085H77.028V79.7164H85.2619V66.2085ZM160.658 66.2085H152.391V79.7164H160.658V66.2085ZM113.501 66.2085H105.242V79.7164H113.501V66.2085ZM170.051 66.2085H161.847V79.7164H170.051V66.2085ZM217.237 66.219H209.001V79.7164H217.237V66.219ZM57.021 66.2123H48.7671V79.7164H57.021V66.2123ZM66.3477 66.2085H58.129V79.7164H66.3477V66.2085ZM218.314 54.9804L218.313 65.1292H222.439L222.361 64.8904C221.362 61.9418 220.198 59.034 218.869 56.1566L218.314 54.9804ZM160.658 51.6498H152.391V65.1244H160.658V51.6498ZM132.421 51.6498H124.171V65.1244H132.421V51.6498ZM113.501 51.6498H105.242V65.1244H113.501V51.6498ZM85.2619 51.6498H77.028V65.1244H85.2619V51.6498ZM179.56 51.646H171.315L171.315 65.1244H179.559L179.56 51.646ZM66.3486 51.646H58.13L58.129 65.1244H66.3477L66.3486 51.646ZM207.767 51.6479H199.529V65.1244H207.767V51.6479ZM188.876 51.6498H180.622V65.1244H188.876V51.6498ZM151.188 51.6498H142.957V65.1244H151.188V51.6498ZM198.317 51.6498H190.08V65.1244H198.317V51.6498ZM104.032 51.646H95.7956L95.7946 65.1244H104.031L104.032 51.646ZM170.051 51.6498H161.847V65.1244H170.051V51.6498ZM122.943 51.6498H114.704V65.1244H122.943V51.6498ZM47.5858 65.1244L47.5868 55.5024L47.5196 55.6457C46.12 58.6461 44.8907 61.6712 43.8316 64.7336L43.6989 65.1244H47.5858ZM75.8086 51.6498H67.5633V65.1244H75.8086V51.6498ZM141.852 51.6498H133.617V65.1244H141.852V51.6498ZM94.7238 51.6498H86.4775V65.1244H94.7238V51.6498ZM216.654 51.6537H208.998L208.997 65.1244H217.236L217.237 52.8083L216.654 51.6537ZM57.021 65.1244L57.0249 51.646L49.4988 51.6479L49.0547 52.4849L48.8824 52.822L48.7652 53.055L48.7643 65.1244H57.021ZM57.0249 39.6129L56.5912 40.2088C54.2795 43.4214 52.1534 46.7989 50.2164 50.3313L50.0199 50.6934H57.0249V39.6129ZM207.282 37.1855H199.549V50.6924H207.785L207.786 37.84L207.561 37.5401L207.395 37.3278L207.282 37.1855ZM113.501 37.1817H105.242V50.6924H113.501V37.1817ZM141.852 37.1817H133.617V50.6924H141.852V37.1817ZM85.2619 37.1817H77.028V50.6924H85.2619V37.1817ZM122.943 37.1817H114.704V50.6924H122.943V37.1817ZM94.7248 37.0588H86.4785L86.4775 50.6924H94.7238L94.7248 37.0588ZM160.658 37.1817H152.391V50.6924H160.658V37.1817ZM104.29 37.1817H95.6765V50.6924H104.29V37.1817ZM132.421 37.1817H124.171V50.6924H132.421V37.1817ZM179.669 37.1817H171.004V50.6924H179.669V37.1817ZM170.051 37.1817H161.847V50.6924H170.051V37.1817ZM151.188 37.1817H142.957V50.6924H151.188V37.1817ZM75.8086 37.1836H67.5633V50.6924H75.8086V37.1836ZM198.317 37.1855H190.08V50.6924H198.317V37.1855ZM188.876 37.1817H180.622V50.6924H188.876V37.1817ZM209.007 39.4509V50.6896H216.157L216.003 50.4054C214.221 47.1656 212.274 44.0468 210.172 41.0653L209.465 40.0766L209.007 39.4509ZM66.3496 37.1836H58.8921L58.6272 37.5152L58.3487 37.8797L58.1309 38.1715V50.6886H66.3505L66.3496 37.1836ZM179.559 22.6297H171.315L171.315 36.229H179.56L179.559 22.6297ZM104.031 22.6201H95.7946L95.7956 36.229H104.032L104.031 22.6201ZM141.852 22.623H133.617V36.1052H141.852V22.623ZM132.422 22.6192H124.172L124.171 36.1052H132.421L132.422 22.6192ZM113.501 22.623H105.242V36.1052H113.501V22.623ZM160.658 22.623H152.391V36.1052H160.658V22.623ZM151.188 22.623H142.957V36.1052H151.188V22.623ZM85.2619 22.6201H77.028V36.1052H85.2619V22.6201ZM94.842 22.6354H86.2146V36.1052H94.842V22.6354ZM188.876 22.6211H180.622V36.1052H188.876V22.6211ZM122.943 22.623H114.704V36.1052H122.943V22.623ZM193.097 22.6211H190.089L190.088 36.1052H198.318L198.319 27.3159L197.933 26.9451C196.552 25.6225 195.256 24.4431 193.989 23.3651L193.447 22.9091L193.097 22.6211ZM170.051 22.6249H161.847V36.1052H170.051V22.6249ZM75.8181 22.6192H73.0887L72.8286 22.8322C71.398 24.0075 69.971 25.29 68.3696 26.8235L67.5718 27.5931L67.5709 36.1052H75.8181V22.6192ZM66.3477 28.761L65.4577 29.6657C63.777 31.3968 62.1521 33.2079 60.5863 35.0929L59.7581 36.1033H66.3467L66.3477 28.761ZM199.537 28.5086L199.536 36.1014H206.397L205.685 35.2305C203.986 33.1824 202.207 31.2136 200.342 29.317L199.537 28.5086ZM94.7248 9.17324L94.3592 9.33714C91.9516 10.4299 89.5709 11.6369 87.2359 12.9457L86.4756 13.3774L86.4766 21.6827H94.7248V9.17324ZM190.087 20.2261V21.6694H191.931L191.494 21.3199L190.767 20.7497L190.087 20.2261ZM171.312 9.09512L171.311 21.6665H179.559L179.56 13.2878L178.687 12.7937C176.826 11.7563 174.926 10.7802 172.988 9.86521L171.82 9.32357L171.312 9.09512ZM85.2696 14.0738L85.1535 14.1418C83.4592 15.1436 81.8531 16.1547 80.3215 17.1876L79.4991 17.7493L78.8843 18.1782L78.1808 18.6806L77.6189 19.09L77.0404 19.5211V21.6665H85.2686L85.2696 14.0738ZM180.627 13.9023L180.626 21.6665H188.872L188.873 19.312C188.59 19.1031 188.305 18.8959 188.02 18.6901C186.056 17.2893 184.046 15.9631 181.992 14.715L180.961 14.0974L180.627 13.9023ZM160.658 8.17389H152.391V21.6665H160.658V8.17389ZM132.664 8.16341H123.9L123.901 8.17294H123.897V21.6665H132.664V8.16341ZM169.165 8.16913H161.855V21.6665H170.057L170.058 8.53209L169.165 8.16913ZM151.188 8.17103H142.957V21.6665H151.188V8.17103ZM141.852 8.16627L133.617 8.16913V21.6665H141.852V8.16627ZM122.944 8.17294H114.707V21.6665H122.944V8.17294ZM113.498 8.16341H105.238V21.6665H113.498V8.16341ZM104.029 8.17294H97.036L95.7918 8.69595V21.6665H104.029V8.17294ZM75.8162 20.4566L75.1922 20.9385L74.5201 21.4655L74.2691 21.6646H75.8153L75.8162 20.4566ZM132.422 0.969816L131.849 0.974687C129.408 1.00771 127.046 1.1303 124.734 1.34684L124.172 1.40233L124.173 7.2117H132.422V0.969816ZM161.85 5.45136L161.849 7.09642H166.508L166.029 6.91208L165.072 6.55384L165.206 6.60264C164.097 6.1984 162.978 5.81449 161.85 5.45136ZM133.617 0.961242V7.09357H141.852L141.853 1.36994L141.122 1.30342C139.817 1.19156 138.522 1.10597 137.238 1.04735L136.248 1.00907L134.7 0.971089L133.617 0.961242ZM142.958 1.47759L142.957 7.09357H151.189L151.19 2.72082L150.431 2.57007C149.337 2.35994 148.242 2.17154 147.146 2.005L146.05 1.84575C145.502 1.76982 144.953 1.69935 144.405 1.63437L143.582 1.54101L142.958 1.47759ZM122.947 1.50748C120.164 1.80879 117.417 2.2319 114.711 2.77134L114.711 7.09357H122.948L122.947 1.50748ZM113.499 3.02106C113.148 3.09594 112.797 3.17277 112.448 3.25156C110.379 3.72917 108.286 4.27945 106.175 4.9L105.241 5.17932L105.241 7.09357H113.499L113.499 3.02106ZM152.39 2.95041L152.389 7.09357H160.656L160.657 5.09011L159.967 4.8741C159.671 4.78384 159.376 4.69534 159.081 4.60863C157.006 4.00914 154.9 3.48092 152.769 3.02529L152.39 2.95041ZM104.031 5.56434L103.475 5.74821C102.786 5.97985 102.095 6.22115 101.401 6.47202L100.36 6.8555L99.7387 7.09071H104.031L104.031 5.56434Z" fill="#221815"/>
<path d="M95.2011 36.7009V22.1346H85.9983V36.7009H95.2011ZM95.2011 167.255V152.689H85.9983V167.255H95.2011ZM104.499 51.1719V36.5771H95.3154V51.1719H104.499ZM104.499 152.688V138.086H95.3154V152.688H104.499ZM104.499 181.668V167.09H95.3154V181.668H104.499ZM113.978 167.254V152.688H104.767V167.254H113.978ZM132.898 22.1432V7.56641H123.695V22.1451L132.898 22.1432ZM142.33 152.687V138.085H133.141V152.687H142.33ZM180.037 51.171V36.5761H170.848V51.171H180.037ZM180.037 167.254V152.688H170.848V167.254H180.037ZM189.353 152.688V138.086H180.152V152.688H189.353Z" fill="#211714" stroke="#211714" stroke-linecap="round" stroke-linejoin="round"/>
<path d="M236.891 197.284V193.378L27.3044 193.501V201.384L236.891 201.237V197.284ZM43.0615 78.7336V71.903L28.7515 72.0373C26.9319 72.0373 27.0358 71.6467 27.0358 69.2803L27.1882 59.9442L19.9584 59.8203C17.7387 64.8018 14.9817 68.0895 13.4136 68.7373L0 74.6534V78.8641L5.02056 78.988C7.2498 78.988 8.16436 78.8641 8.16436 81.4935V109.189C8.16436 117.599 12.7496 123.773 24.5884 124.05C33.4863 124.298 38.8879 120.353 42.6786 116.667L41.6402 113.122C40.0492 114.19 38.7622 115.104 36.6387 115.104C26.5366 115.104 26.8081 107.216 26.8081 100.261V81.4973C26.8081 78.7346 27.0358 78.7346 28.8944 78.7346L43.0615 78.7336ZM70.9071 123.386C82.4725 122.847 93.6187 120.357 93.6187 109.195C93.6187 101.078 84.7065 95.935 75.256 91.8662C69.1961 89.3702 60.4134 85.7024 60.4134 82.7968C60.4134 79.3957 67.1012 72.8185 73.5317 78.0715L84.7065 87.4077L89.8309 86.3407L86.9529 72.4413C84.314 72.5651 82.4763 72.7042 72.8772 71.1075C61.0546 69.4127 47.0123 75.3307 47.0123 86.3407C47.0123 93.7239 57.6631 98.8302 66.0751 102.24C70.6603 104.205 78.8123 107.105 78.8123 111.564C78.8123 115.871 71.1805 117.08 66.8563 117.08C59.5008 117.08 51.3469 107.22 51.3469 107.22H46.5073L49.1272 121.948C50.0227 121.147 53.338 121.263 53.9953 121.547C56.3408 122.445 64.8681 123.777 70.9071 123.386ZM100.449 109.325C100.449 117.471 98.3582 121.795 91.78 122.176L91.942 123.506C102.935 123.381 114.139 123.506 124.876 123.258L124.999 122.572C120.036 122.572 116.206 117.322 116.206 110.786V88.8472C116.206 83.4455 122.774 80.035 127.238 80.4351C134.175 81.0867 138.003 85.5414 138.003 89.4988V111.035C138.003 117.603 136.035 121.667 130.918 122.051V123.261H161.106V122.336C156.64 121.793 153.498 117.712 153.498 111.559V88.9481C153.498 84.1181 157.695 80.8305 165.192 80.7076C171.76 80.5742 175.691 85.4423 175.691 90.0437V110.507C175.691 117.472 173.594 121.796 168.355 122.339V123.264C179.377 123.387 188.427 123.387 199.316 123.264V122.577C193.554 122.577 191.591 118.786 191.591 110.794V88.1841C191.591 80.7057 187.518 71.7706 176.091 71.7706C168.355 71.7706 162.668 75.5527 159.429 76.6578C157.19 77.5342 155.609 78.6012 155.075 78.6012C154.05 78.6012 152.874 77.9439 151.408 76.372C148.645 73.4539 143.671 71.7706 138.404 71.7706C131.702 71.7706 125.001 75.5527 121.837 76.6578C121.465 76.7626 119.112 77.9439 118.826 77.9439C118.312 77.9439 116.206 77.9439 116.206 77.6962C116.206 71.38 116.607 74.5238 116.348 70.0653H112.001C110.71 70.0653 108.449 72.4374 105.829 73.4568C102.673 74.8001 96.369 74.661 93.7683 75.324V79.7844L100.57 81.0896V89.7646L100.449 109.325ZM230.146 71.238C210.711 71.238 195.869 81.3516 195.869 98.9664C195.869 113.811 209.386 124.297 227.515 124.297C241.31 124.297 252.728 114.321 256 108.016C256 106.062 254.038 105.257 252.209 105.257C249.046 110.115 240.124 113.811 236.461 113.656C214.522 112.865 210.977 104.071 210.711 94.8871C210.301 84.9041 221.085 76.2243 230.278 76.9007C235.642 77.276 237.499 86.0558 242.206 89.2225C243.682 90.038 247.079 89.8856 249.322 89.4988C251.028 89.2225 255.6 88.1803 255.6 84.2391C255.6 80.9638 251.531 77.2751 247.617 74.9125C243.682 73.0938 234.87 71.238 230.146 71.238Z" fill="#E60012"/>
</g>
<defs>
<clipPath id="clip0_1_12666">
<rect width="256" height="202" fill="white"/>
</clipPath>
</defs>
</svg>
