<svg width="512" height="190" viewBox="0 0 512 190" fill="none" xmlns="http://www.w3.org/2000/svg">
<g clip-path="url(#clip0_1_12673)">
<path d="M78.6449 1.20017L4.48074 44.0076C1.70688 45.6065 0 48.5648 0 51.7643V137.45C0 140.652 1.70688 143.608 4.47768 145.211L78.6411 188.053C81.4142 189.654 84.831 189.654 87.6056 188.053L161.785 145.211C164.558 143.608 166.265 140.652 166.265 137.45V51.7681C166.265 48.5649 164.558 45.6065 161.784 44.0076L87.6018 1.20017C86.2164 0.398782 84.6703 0 83.1226 0C81.5765 0 80.0288 0.398782 78.6449 1.20017Z" fill="#2261A8"/>
<mask id="mask0_1_12673" style="mask-type:luminance" maskUnits="userSpaceOnUse" x="0" y="0" width="167" height="190">
<path d="M78.6457 1.61109L4.48151 44.4185C1.70688 46.0167 0 48.975 0 52.1752V137.86C0 141.062 1.70688 144.018 4.47768 145.621L78.6419 188.464C81.415 190.065 84.8318 190.065 87.6064 188.464L161.785 145.621C164.558 144.018 166.265 141.062 166.265 137.86V52.1783C166.265 48.975 164.558 46.0167 161.784 44.4185L87.6018 1.61109C86.2164 0.808938 84.671 0.410156 83.1226 0.410156C81.5765 0.410156 80.0288 0.808938 78.6457 1.61109Z" fill="white"/>
</mask>
<g mask="url(#mask0_1_12673)">
<path d="M50.1139 183.058H67.5562V113.664H91.7257V98.3398H25.9443V113.664H50.1139V183.058Z" fill="white"/>
</g>
<mask id="mask1_1_12673" style="mask-type:luminance" maskUnits="userSpaceOnUse" x="0" y="0" width="167" height="190">
<path d="M78.6457 1.61109L4.48151 44.4185C1.70688 46.0167 0 48.975 0 52.1752V137.86C0 141.062 1.70688 144.018 4.47768 145.621L78.6419 188.464C81.415 190.065 84.8318 190.065 87.6064 188.464L161.785 145.621C164.558 144.018 166.265 141.062 166.265 137.86V52.1783C166.265 48.975 164.558 46.0167 161.784 44.4185L87.6018 1.61109C86.2164 0.808938 84.671 0.410156 83.1226 0.410156C81.5765 0.410156 80.0288 0.808938 78.6457 1.61109Z" fill="white"/>
</mask>
<g mask="url(#mask1_1_12673)">
<path d="M128.221 184.18C144.791 184.18 157.125 175.584 157.125 159.886C157.125 145.309 148.778 138.831 133.952 132.477L129.591 130.608C122.116 127.369 118.877 125.251 118.877 120.018C118.877 115.783 122.116 112.543 127.225 112.543C132.208 112.543 135.448 114.661 138.437 120.018L152.017 111.297C146.287 101.206 138.313 97.3438 127.225 97.3438C111.652 97.3438 101.684 107.311 101.684 120.392C101.684 134.595 110.032 141.322 122.615 146.68L126.975 148.549C134.949 152.037 139.683 154.155 139.683 160.135C139.683 165.118 135.073 168.732 127.848 168.732C119.251 168.732 114.393 164.246 110.655 158.141L96.452 166.364C101.56 176.456 112.025 184.18 128.221 184.18Z" fill="white"/>
</g>
<path d="M258.708 125.057C258.708 123.715 258.002 122.481 256.844 121.816L225.965 104.046C225.443 103.739 224.858 103.578 224.265 103.555H223.946C223.356 103.578 222.771 103.738 222.241 104.046L191.362 121.816C190.211 122.481 189.496 123.715 189.496 125.057L189.564 172.907C189.564 173.573 189.909 174.191 190.495 174.518C191.069 174.862 191.777 174.862 192.348 174.518L210.698 164.01C211.859 163.32 212.565 162.104 212.565 160.774V138.419C212.565 137.086 213.271 135.852 214.427 135.19L222.241 130.689C222.824 130.353 223.46 130.189 224.111 130.189C224.747 130.189 225.4 130.353 225.965 130.689L233.777 135.19C234.933 135.852 235.642 137.086 235.642 138.419V160.774C235.642 162.104 236.357 163.328 237.511 164.01L255.856 174.518C256.433 174.862 257.151 174.862 257.722 174.518C258.29 174.191 258.648 173.573 258.648 172.907L258.708 125.057Z" fill="#333333"/>
<path d="M407.284 59.2787C406.706 58.9573 406.001 58.9649 405.43 59.2994C404.86 59.6347 404.51 60.2462 404.51 60.9075V108.295C404.51 108.761 404.26 109.192 403.858 109.426C403.454 109.659 402.957 109.659 402.552 109.426L394.818 104.97C393.664 104.305 392.245 104.306 391.092 104.972L360.201 122.798C359.046 123.464 358.336 124.696 358.336 126.028V161.689C358.336 163.022 359.046 164.253 360.2 164.921L391.089 182.762C392.244 183.428 393.666 183.428 394.82 182.762L425.715 164.921C426.868 164.253 427.579 163.022 427.579 161.689V72.7937C427.579 71.4427 426.848 70.1951 425.666 69.5361L407.284 59.2787ZM404.418 149.973C404.418 150.305 404.24 150.613 403.952 150.779L393.345 156.893C393.057 157.058 392.702 157.058 392.414 156.893L381.808 150.779C381.519 150.613 381.342 150.305 381.342 149.973V137.726C381.342 137.393 381.519 137.085 381.807 136.918L392.413 130.792C392.702 130.625 393.057 130.625 393.347 130.792L403.952 136.918C404.24 137.085 404.418 137.393 404.418 137.726V149.973Z" fill="#333333"/>
<path d="M510.144 137.406C511.293 136.738 512 135.51 512 134.181V125.539C512 124.21 511.293 122.98 510.142 122.312L479.451 104.493C478.297 103.822 476.871 103.82 475.713 104.489L444.833 122.315C443.681 122.982 442.969 124.213 442.969 125.546V161.198C442.969 162.539 443.689 163.776 444.853 164.438L475.541 181.925C476.672 182.571 478.059 182.578 479.198 181.945L497.759 171.628C498.348 171.301 498.715 170.683 498.718 170.011C498.722 169.338 498.366 168.715 497.782 168.38L466.707 150.544C466.126 150.211 465.77 149.593 465.77 148.925V137.752C465.77 137.086 466.126 136.47 466.704 136.137L476.375 130.561C476.95 130.229 477.661 130.229 478.236 130.561L487.912 136.137C488.491 136.47 488.846 137.086 488.846 137.752V146.543C488.846 147.211 489.203 147.828 489.781 148.161C490.359 148.494 491.071 148.492 491.648 148.156L510.144 137.406Z" fill="#333333"/>
<path d="M477.127 135.737C477.348 135.608 477.621 135.608 477.842 135.737L483.77 139.157C483.992 139.285 484.128 139.521 484.128 139.777V146.621C484.128 146.877 483.992 147.113 483.77 147.241L477.842 150.661C477.621 150.789 477.348 150.789 477.127 150.661L471.204 147.241C470.983 147.113 470.846 146.877 470.846 146.621V139.777C470.846 139.521 470.983 139.285 471.204 139.157L477.127 135.737Z" fill="#2261A8"/>
<path d="M306.669 104.672L276.037 122.352C274.892 123.013 274.187 124.234 274.187 125.556V160.946C274.187 162.269 274.892 163.489 276.036 164.151L306.667 181.846C307.812 182.507 309.224 182.507 310.369 181.846L341.007 164.151C342.152 163.489 342.857 162.269 342.857 160.946V125.558C342.857 124.234 342.152 123.013 341.007 122.352L310.368 104.672C309.796 104.341 309.157 104.176 308.518 104.176C307.879 104.176 307.24 104.341 306.669 104.672Z" fill="#2261A8"/>
</g>
<defs>
<clipPath id="clip0_1_12673">
<rect width="512" height="190" fill="white"/>
</clipPath>
</defs>
</svg>
