<svg width="512" height="108" viewBox="0 0 512 108" fill="none" xmlns="http://www.w3.org/2000/svg">
<g clip-path="url(#clip0_1_12697)">
<path d="M46.797 88.1511C38.3965 88.3687 36.7709 82.3746 36.6996 78.0208V47.831H56.2781V30.3333H36.7782V4.32726H21.4035C21.1512 4.32726 20.7105 4.54487 20.6483 5.09527C19.7468 13.1044 15.9159 27.1625 0 32.7781V47.831H12.1162V79.6116C12.1162 91.1024 19.2824 107.426 42.1396 107.042C49.8525 106.914 58.4212 103.753 60.3175 101.026L55.2688 86.3792C53.3158 87.2862 49.5855 88.0798 46.797 88.1511ZM140.526 86.2896V30.3351H106.143V46.7649L112.768 46.7667C114.948 46.7667 115.864 47.6938 115.893 49.7254L115.859 75.2487C115.859 77.7502 114.054 87.1454 101.528 87.3831C92.9923 87.5458 91.1967 82.5118 91.1967 75.9106V30.3351H65.8782V77.2126C65.8782 89.0745 71.2944 107.735 96.5709 107.051C104.869 106.825 114.376 102.652 119.317 96.5315L119.523 105.956H147.736V89.8828C147.736 89.8828 145.454 89.7054 143.746 89.592C141.751 89.4622 140.526 88.3888 140.526 86.2896ZM287.26 86.1324C287.26 86.1324 287.262 67.4626 287.262 63.1928C287.262 55.0154 287.164 46.5674 281.753 39.6718C276.797 33.3596 268.572 28.7296 256.087 29.3312C247.796 29.7317 238.951 33.5845 234.069 40.1838L233.299 41.1548L232.831 40.5916C227.812 33.3431 219.797 28.7296 207.313 29.3312C199.019 29.7317 190.174 33.5845 185.292 40.1838L184.558 30.3315H153.964V46.7649L161.004 46.8691C163.182 46.8691 164.102 47.7962 164.131 49.8278L164.133 81.987V86.1324C164.133 88.2316 162.899 89.3799 160.906 89.5097C159.198 89.6231 155.738 89.87 155.738 89.87V105.943L197.112 105.956V89.87C197.112 89.87 193.851 89.6396 191.944 89.5097C189.949 89.3744 188.718 88.2316 188.718 86.1324C188.718 86.1324 188.751 65.6047 188.751 61.4959C188.751 57.3889 192.149 48.9647 202.934 48.9647C211.634 48.9647 213.417 54.2676 213.417 60.4372C213.417 66.6068 213.426 86.1342 213.426 86.1342C213.426 88.2352 212.194 89.3799 210.201 89.5116C208.493 89.6268 205.033 89.8736 205.033 89.8736V105.943H246.362V89.87C246.362 89.87 243.102 89.6396 241.193 89.5097C239.2 89.3744 237.986 88.2316 237.986 86.1324H237.924C237.924 86.1324 237.958 65.6047 237.958 61.4959C237.958 57.3889 240.988 48.9647 251.775 48.9647C260.474 48.9647 262.651 54.2676 262.651 60.4372V81.987L262.648 86.1342C262.648 88.2352 261.414 89.3799 259.42 89.5116C257.711 89.6268 254.253 89.8736 254.253 89.8736V105.943H295.634V89.87C295.634 89.87 292.375 89.6396 290.468 89.5097C288.471 89.3744 287.26 88.2316 287.26 86.1324ZM341.836 88.3395C338.397 88.5936 332.028 88.014 327.932 80.8258V70.2969L327.935 70.2914H327.932V58.1149C327.932 52.8504 332.794 48.2314 340.318 47.9516C347.938 47.67 354.682 52.8705 354.682 67.5613C354.682 87.3776 345.991 88.0323 341.836 88.3395ZM345.583 29.2508C339.327 29.5251 332.726 31.9187 327.932 36.086V0.988281H319.074C319.074 0.988281 304.592 6.1339 293.379 7.50899L293.013 23.5804L300.103 23.5895C302.279 23.5895 303.215 24.5166 303.242 26.55V105.888L323.499 105.866L326.392 99.3566C327.012 99.7041 336.305 108.439 351.145 106.691C369.83 104.488 379.642 89.6944 379.642 67.2505C379.642 55.4762 376.029 27.9196 345.583 29.2508ZM501.263 43.841C500.438 25.9118 476.16 25.0871 463.468 37.1978L461.153 30.2547H431.806V46.6863L437.959 46.6771C440.139 46.6771 440.947 47.6024 440.976 49.6339V86.0684C440.976 88.1676 439.738 89.3159 437.745 89.4439C436.035 89.5573 432.596 89.8041 432.596 89.8041V105.877H473.916V89.8041C473.916 89.8041 470.499 89.5573 468.793 89.4439C466.796 89.3159 465.56 88.1676 465.56 86.0684L465.55 61.3643C465.55 56.7343 466.611 49.0067 474.783 47.03C475.792 54.7576 483.257 57.0653 486.899 57.0653C496.095 57.0653 501.263 50.1789 501.263 43.841ZM416.053 86.0684L416.075 0.988281H407.126C407.126 0.988281 392.257 6.36613 381.547 7.50899V23.5804H388.308C390.484 23.5804 391.394 24.5075 391.424 26.539V86.0684C391.424 88.1676 390.193 89.3159 388.198 89.4439C386.49 89.5573 382.663 89.806 382.663 89.806V105.877H424.817V89.806C424.817 89.806 420.986 89.5573 419.28 89.4439C417.283 89.3159 416.053 88.1676 416.053 86.0684ZM497.183 77.8142C488.998 77.8142 482.368 84.3111 482.368 92.3221C482.368 100.328 488.998 106.826 497.183 106.826C505.37 106.826 512 100.328 512 92.3221C512 84.3111 505.37 77.8142 497.183 77.8142Z" fill="#303D4D"/>
</g>
<defs>
<clipPath id="clip0_1_12697">
<rect width="512" height="108" fill="white"/>
</clipPath>
</defs>
</svg>
