<svg width="512" height="191" viewBox="0 0 512 191" fill="none" xmlns="http://www.w3.org/2000/svg">
<g clip-path="url(#clip0_1_12703)">
<path d="M209.623 80.3693V131.932H231.354V80.3693H248.579V63.8047H192.472V80.3693H209.623ZM259.463 103.824C259.463 123.283 270.719 133.178 290.613 133.178H290.65C309.706 133.178 321.91 124.126 321.91 103.64V63.8047H300.183V102.871C300.183 111.813 298.272 116.21 290.655 116.21C282.917 116.21 281.012 111.813 281.012 102.981V63.8047H259.463V103.824ZM364.164 63.8047C383.807 63.8047 392.199 72.6 392.199 87.149V87.5155C392.199 101.735 382.744 109.724 365.117 109.724H358.521V131.932H337.009V63.8047H364.164ZM363.138 79.9295H358.557V95.2481H363.028C368.745 95.2481 371.714 92.6828 371.714 87.6254V87.259C371.714 82.0184 368.782 79.9295 363.138 79.9295ZM403.413 131.932V63.8047H425.035V115.257H449.851V131.932H403.413ZM462.049 63.8047V131.932H511.999V115.367H483.598V105.143H504.926V90.0075H483.598V80.3693H510.46V63.8047H462.049Z" fill="#1F2E41"/>
<path d="M29.3179 65.9663L117.271 36.6484V190.567L29.3179 161.249V65.9663Z" fill="#BFC6F1"/>
<path d="M0 29.3178L87.9535 0V153.919L0 124.601V29.3178Z" fill="#4652AF"/>
</g>
<defs>
<clipPath id="clip0_1_12703">
<rect width="512" height="191" fill="white"/>
</clipPath>
</defs>
</svg>
