<svg width="512" height="115" viewBox="0 0 512 115" fill="none" xmlns="http://www.w3.org/2000/svg">
<g clip-path="url(#clip0_1_12730)">
<path d="M456.996 0.0340938C443.812 -0.42049 430.63 3.67076 419.719 12.3079L426.992 16.3991C435.63 10.0349 446.539 7.30743 456.996 7.76202V0.0340938Z" fill="url(#paint0_linear_1_12730)"/>
<path d="M495.635 17.3079C486.543 7.76163 474.724 1.85203 461.996 0.488281V8.21621C472.906 10.0346 482.453 15.035 490.18 22.7629L495.635 17.3079Z" fill="url(#paint1_linear_1_12730)"/>
<path d="M512 54.5846C511.546 42.7654 507 30.9461 499.272 20.9453L493.816 26.4003C500.181 35.0375 503.818 44.5838 504.273 54.5846H512Z" fill="url(#paint2_linear_1_12730)"/>
<path d="M499.272 93.6782C507 83.6773 511.546 71.8583 512 60.0391H504.273C503.818 70.0399 500.181 79.5861 493.816 88.2232L499.272 93.6782Z" fill="url(#paint3_linear_1_12730)"/>
<path d="M461.996 114.134C474.269 112.77 486.543 106.861 495.635 97.3144L490.18 91.8594C482.453 100.042 472.451 105.042 461.996 106.406V114.134Z" fill="url(#paint4_linear_1_12730)"/>
<path d="M419.719 102.314C430.63 110.951 443.812 115.042 456.996 114.588V106.86C446.539 107.314 436.084 104.587 426.992 98.2227L419.719 102.314Z" fill="url(#paint5_linear_1_12730)"/>
<path d="M28.5879 40.6934V87.7793H12.8926V40.6934H0V27.4004H41.4805V40.6934H28.5879ZM60.153 27.4004V60.2324C60.153 61.9941 60.2064 63.8093 60.3132 65.6777C60.4733 67.4929 60.8737 69.1477 61.5143 70.6426C62.2084 72.1374 63.276 73.3652 64.7175 74.3262C66.1589 75.2337 68.1876 75.6875 70.8034 75.6875C73.4193 75.6875 75.4213 75.2337 76.8092 74.3262C78.2507 73.3652 79.3185 72.1374 80.0124 70.6426C80.7064 69.1477 81.1068 67.4929 81.2135 65.6777C81.3737 63.8093 81.4538 61.9941 81.4538 60.2324V27.4004H97.069V62.3945C97.069 71.7903 94.9069 78.6504 90.5827 82.9746C86.3119 87.2988 79.7189 89.4609 70.8034 89.4609C61.8881 89.4609 55.2682 87.2988 50.944 82.9746C46.6198 78.6504 44.4577 71.7903 44.4577 62.3945V27.4004H60.153ZM121.447 54.3867H124.41C127.506 54.3867 129.882 53.7461 131.537 52.4648C133.192 51.1836 134.02 49.3418 134.02 46.9394C134.02 44.5371 133.192 42.6953 131.537 41.4141C129.882 40.1328 127.506 39.4922 124.41 39.4922H121.447V54.3867ZM155.96 87.7793H136.422L121.447 64.5566V87.7793H105.752V27.4004H130.176C133.539 27.4004 136.475 27.9075 138.984 28.9219C141.493 29.8828 143.549 31.2175 145.15 32.9258C146.805 34.6341 148.033 36.6094 148.834 38.8516C149.688 41.0937 150.115 43.4961 150.115 46.0586C150.115 50.6497 148.994 54.3867 146.752 57.2695C144.563 60.0989 141.307 62.0208 136.982 63.0351L155.96 87.7793ZM174.217 75.6074H177.66C181.612 75.6074 184.441 75.1003 186.148 74.0859C187.858 73.0715 188.711 71.4433 188.711 69.2012C188.711 66.959 187.858 65.3308 186.148 64.3164C184.441 63.302 181.612 62.7949 177.66 62.7949H174.217V75.6074ZM174.217 51.1035H177.1C182.012 51.1035 184.467 49.155 184.467 45.2578C184.467 41.3606 182.012 39.4121 177.1 39.4121H174.217V51.1035ZM158.521 27.4004H181.904C187.457 27.4004 191.674 28.7351 194.557 31.4043C197.439 34.0735 198.881 37.9173 198.881 42.9355C198.881 45.9785 198.32 48.5144 197.199 50.543C196.132 52.5183 194.476 54.1999 192.234 55.5879C194.476 56.0149 196.372 56.6823 197.92 57.5898C199.521 58.4441 200.803 59.5117 201.764 60.793C202.778 62.0742 203.499 63.5156 203.926 65.1172C204.354 66.7187 204.566 68.427 204.566 70.2422C204.566 73.0715 204.06 75.5808 203.045 77.7695C202.084 79.9583 200.696 81.8001 198.881 83.2949C197.119 84.7897 194.957 85.9108 192.394 86.6582C189.832 87.4055 186.949 87.7793 183.746 87.7793H158.521V27.4004ZM223.188 57.5898C223.188 59.9922 223.64 62.2077 224.549 64.2363C225.456 66.2649 226.683 68.0266 228.232 69.5215C229.78 71.0163 231.568 72.1907 233.598 73.0449C235.68 73.8457 237.868 74.2461 240.164 74.2461C242.459 74.2461 244.621 73.8457 246.65 73.0449C248.732 72.1907 250.547 71.0163 252.096 69.5215C253.697 68.0266 254.951 66.2649 255.859 64.2363C256.766 62.2077 257.221 59.9922 257.221 57.5898C257.221 55.1875 256.766 52.9719 255.859 50.9433C254.951 48.9148 253.697 47.153 252.096 45.6582C250.547 44.1634 248.732 43.0156 246.65 42.2148C244.621 41.3606 242.459 40.9336 240.164 40.9336C237.868 40.9336 235.68 41.3606 233.598 42.2148C231.568 43.0156 229.78 44.1634 228.232 45.6582C226.683 47.153 225.456 48.9148 224.549 50.9433C223.64 52.9719 223.188 55.1875 223.188 57.5898ZM206.772 57.5898C206.772 53.1055 207.599 48.9414 209.254 45.0977C210.908 41.2005 213.204 37.8105 216.141 34.9277C219.076 32.0449 222.573 29.8027 226.631 28.2012C230.741 26.5462 235.252 25.7188 240.164 25.7188C245.021 25.7188 249.506 26.5462 253.617 28.2012C257.727 29.8027 261.251 32.0449 264.188 34.9277C267.177 37.8105 269.499 41.2005 271.154 45.0977C272.808 48.9414 273.637 53.1055 273.637 57.5898C273.637 62.0742 272.808 66.2649 271.154 70.1621C269.499 74.0058 267.177 77.3691 264.188 80.2519C261.251 83.1348 257.727 85.4036 253.617 87.0586C249.506 88.6601 245.021 89.4609 240.164 89.4609C235.252 89.4609 230.741 88.6601 226.631 87.0586C222.573 85.4036 219.076 83.1348 216.141 80.2519C213.204 77.3691 210.908 74.0058 209.254 70.1621C207.599 66.2649 206.772 62.0742 206.772 57.5898ZM295.242 54.3867H298.205C301.301 54.3867 303.677 53.7461 305.332 52.4648C306.986 51.1836 307.815 49.3418 307.815 46.9394C307.815 44.5371 306.986 42.6953 305.332 41.4141C303.677 40.1328 301.301 39.4922 298.205 39.4922H295.242V54.3867ZM329.756 87.7793H310.217L295.242 64.5566V87.7793H279.547V27.4004H303.971C307.334 27.4004 310.269 27.9075 312.78 28.9219C315.288 29.8828 317.344 31.2175 318.946 32.9258C320.599 34.6341 321.828 36.6094 322.629 38.8516C323.482 41.0937 323.91 43.4961 323.91 46.0586C323.91 50.6497 322.789 54.3867 320.547 57.2695C318.357 60.0989 315.102 62.0208 310.778 63.0351L329.756 87.7793ZM366.671 40.6934H348.012V50.7832H365.63V64.0762H348.012V74.4863H366.671V87.7793H332.317V27.4004H366.671V40.6934ZM389.678 55.1074H394.883C400.648 55.1074 403.531 52.5984 403.531 47.5801C403.531 42.5618 400.648 40.0527 394.883 40.0527H389.678V55.1074ZM389.678 87.7793H373.982V27.4004H398.967C405.747 27.4004 410.924 29.1621 414.502 32.6855C418.132 36.209 419.947 41.1738 419.947 47.5801C419.947 53.9863 418.132 58.9512 414.502 62.4746C410.924 65.998 405.747 67.7598 398.967 67.7598H389.678V87.7793ZM437.943 57.5898C437.943 59.9922 438.397 62.2077 439.304 64.2363C440.212 66.2649 441.44 68.0266 442.988 69.5215C444.536 71.0163 446.325 72.1907 448.353 73.0449C450.435 73.8457 452.624 74.2461 454.92 74.2461C457.216 74.2461 459.378 73.8457 461.406 73.0449C463.488 72.1907 465.304 71.0163 466.851 69.5215C468.453 68.0266 469.708 66.2649 470.615 64.2363C471.522 62.2077 471.976 59.9922 471.976 57.5898C471.976 55.1875 471.522 52.9719 470.615 50.9433C469.708 48.9148 468.453 47.153 466.851 45.6582C465.304 44.1634 463.488 43.0156 461.406 42.2148C459.378 41.3606 457.216 40.9336 454.92 40.9336C452.624 40.9336 450.435 41.3606 448.353 42.2148C446.325 43.0156 444.536 44.1634 442.988 45.6582C441.44 47.153 440.212 48.9148 439.304 50.9433C438.397 52.9719 437.943 55.1875 437.943 57.5898ZM421.527 57.5898C421.527 53.1055 422.354 48.9414 424.01 45.0977C425.665 41.2005 427.96 37.8105 430.896 34.9277C433.833 32.0449 437.329 29.8027 441.387 28.2012C445.497 26.5462 450.009 25.7188 454.92 25.7188C459.778 25.7188 464.263 26.5462 468.373 28.2012C472.483 29.8027 476.006 32.0449 478.943 34.9277C481.932 37.8105 484.254 41.2005 485.91 45.0977C487.565 48.9414 488.392 53.1055 488.392 57.5898C488.392 62.0742 487.565 66.2649 485.91 70.1621C484.254 74.0058 481.932 77.3691 478.943 80.2519C476.006 83.1348 472.483 85.4036 468.373 87.0586C464.263 88.6601 459.778 89.4609 454.92 89.4609C450.009 89.4609 445.497 88.6601 441.387 87.0586C437.329 85.4036 433.833 83.1348 430.896 80.2519C427.96 77.3691 425.665 74.0058 424.01 70.1621C422.354 66.2649 421.527 62.0742 421.527 57.5898Z" fill="black"/>
</g>
<defs>
<linearGradient id="paint0_linear_1_12730" x1="5033.76" y1="-6.3254e-06" x2="5033.76" y2="11462.3" gradientUnits="userSpaceOnUse">
<stop stop-color="#1E90FF"/>
<stop offset="1" stop-color="#FF1E56"/>
</linearGradient>
<linearGradient id="paint1_linear_1_12730" x1="848.372" y1="-48.3772" x2="848.372" y2="11414" gradientUnits="userSpaceOnUse">
<stop stop-color="#1E90FF"/>
<stop offset="1" stop-color="#FF1E56"/>
</linearGradient>
<linearGradient id="paint2_linear_1_12730" x1="-2301.83" y1="-2073.54" x2="-2301.83" y2="9388.79" gradientUnits="userSpaceOnUse">
<stop stop-color="#1E90FF"/>
<stop offset="1" stop-color="#FF1E56"/>
</linearGradient>
<linearGradient id="paint3_linear_1_12730" x1="-2301.83" y1="-5943.88" x2="-2301.83" y2="5518.46" gradientUnits="userSpaceOnUse">
<stop stop-color="#1E90FF"/>
<stop offset="1" stop-color="#FF1E56"/>
</linearGradient>
<linearGradient id="paint4_linear_1_12730" x1="848.373" y1="-9094.15" x2="848.373" y2="2368.19" gradientUnits="userSpaceOnUse">
<stop stop-color="#1E90FF"/>
<stop offset="1" stop-color="#FF1E56"/>
</linearGradient>
<linearGradient id="paint5_linear_1_12730" x1="5033.76" y1="-9724.2" x2="5033.76" y2="1738.13" gradientUnits="userSpaceOnUse">
<stop stop-color="#1E90FF"/>
<stop offset="1" stop-color="#FF1E56"/>
</linearGradient>
<clipPath id="clip0_1_12730">
<rect width="512" height="115" fill="white"/>
</clipPath>
</defs>
</svg>
