<svg width="512" height="79" viewBox="0 0 512 79" fill="none" xmlns="http://www.w3.org/2000/svg">
<g clip-path="url(#clip0_1_12713)">
<path d="M136.881 30.7616V21.6107H92.7803V30.7616H109.428V61.1908H120.233V30.7616H136.881ZM161.798 61.7973C175.359 61.7973 182.801 54.9065 182.801 43.5507V21.6107H171.996V42.5033C171.996 48.8427 168.689 52.4259 161.798 52.4259C154.907 52.4259 151.6 48.8427 151.6 42.5033V21.6107H140.795V43.5507C140.795 54.9065 148.237 61.7973 161.798 61.7973ZM199.34 48.0709H210.09L218.579 61.1908H230.983L221.39 46.9134C226.793 44.984 230.1 40.6842 230.1 34.8408C230.1 26.3515 223.761 21.6107 214.114 21.6107H188.535V61.1908H199.34V48.0709ZM199.34 39.5265V30.6513H213.562C217.366 30.6513 219.461 32.3051 219.461 35.1165C219.461 37.7625 217.366 39.5265 213.562 39.5265H199.34ZM235.127 61.1908H263.407C272.227 61.1908 277.298 57.0014 277.298 50.0004C277.298 45.3147 274.322 42.1174 270.794 40.6842C273.219 39.5265 276.196 36.7702 276.196 32.4154C276.196 25.4144 271.235 21.6107 262.47 21.6107H235.127V61.1908ZM245.491 37.101V30.3757H261.367C264.344 30.3757 265.998 31.5333 265.998 33.7383C265.998 35.9434 264.344 37.101 261.367 37.101H245.491ZM245.491 45.2044H262.359C265.281 45.2044 266.879 46.6377 266.879 48.7876C266.879 50.9375 265.281 52.3707 262.359 52.3707H245.491V45.2044ZM303.715 20.9492C289.879 20.9492 279.901 29.6039 279.901 41.4008C279.901 53.1977 289.879 61.8524 303.715 61.8524C317.552 61.8524 327.474 53.1977 327.474 41.4008C327.474 29.6039 317.552 20.9492 303.715 20.9492ZM303.715 30.3205C310.992 30.3205 316.449 34.6203 316.449 41.4008C316.449 48.1813 310.992 52.4811 303.715 52.4811C296.439 52.4811 290.982 48.1813 290.982 41.4008C290.982 34.6203 296.439 30.3205 303.715 30.3205ZM441.065 20.9492C452.09 20.9492 459.752 25.9105 462.784 33.9037L452.917 38.3138C451.373 33.6832 447.349 30.3205 441.065 30.3205C434.009 30.3205 428.441 34.6203 428.441 41.4008C428.441 48.1813 434.009 52.4811 441.065 52.4811C447.349 52.4811 451.373 49.1184 452.917 44.4878L462.784 48.8979C459.752 56.891 452.09 61.8524 441.065 61.8524C427.283 61.8524 417.416 53.1977 417.416 41.4008C417.416 29.6039 427.283 20.9492 441.065 20.9492ZM357.433 21.6107C367.08 21.6107 373.419 26.2413 373.419 35.1165C373.419 43.9365 367.08 48.5672 357.433 48.5672H343.046V61.1908H332.241V21.6107H357.433ZM400.284 21.6107L419.688 61.1908H407.836L404.254 53.7489H383.471L379.888 61.1908H368.422L387.881 21.6107H400.284ZM393.945 32.1948L387.716 45.0942H400.119L393.945 32.1948ZM356.827 30.6513H343.046V39.5817H356.827C360.686 39.5817 362.781 37.8727 362.781 35.1165C362.781 32.3051 360.686 30.6513 356.827 30.6513ZM477.491 21.6107H466.687V61.1908H477.491V51.3234L484.547 44.984L498.274 61.1908H512L492.32 38.0381L510.622 21.6107H495.904L477.491 38.3138V21.6107Z" fill="black"/>
<path d="M34.393 0L12.403 12.5663L12.446 22.4414L34.393 9.90089L60.1878 24.6426L68.786 29.5565V19.6513L34.393 0ZM30.5238 66.4989L8.59826 53.9712V24.6641L8.58966 24.6598L8.54237 14.7718L0 19.6513V32.7551V45.8588V58.9582L21.947 71.4988L30.5238 66.4989ZM60.1878 53.9712V29.1008L68.786 34.0147V45.8588V58.9582L34.393 78.6138L25.8249 73.7171L34.393 68.7215V68.7087L60.1878 53.9712Z" fill="url(#paint0_linear_1_12713)"/>
<path d="M12.4675 29.1172V51.722L34.393 64.254V41.6448L12.4675 29.1172Z" fill="black"/>
<path d="M34.393 14.3594L14.415 25.7736L36.3448 38.3055L56.3186 26.887L34.393 14.3594Z" fill="black"/>
</g>
<defs>
<linearGradient id="paint0_linear_1_12713" x1="3439.32" y1="620.711" x2="3426.3" y2="7338.08" gradientUnits="userSpaceOnUse">
<stop stop-color="#0096FF"/>
<stop offset="1" stop-color="#FF1E56"/>
</linearGradient>
<clipPath id="clip0_1_12713">
<rect width="512" height="79" fill="white"/>
</clipPath>
</defs>
</svg>
