<svg width="256" height="209" viewBox="0 0 256 209" fill="none" xmlns="http://www.w3.org/2000/svg">
<g clip-path="url(#clip0_1_12752)">
<path d="M256 25.4483C246.581 29.6256 236.458 32.4488 225.834 33.7185C236.678 27.2181 245.006 16.9253 248.927 4.66139C238.78 10.6796 227.539 15.0506 215.576 17.4066C205.995 7.19901 192.345 0.820312 177.239 0.820312C148.233 0.820312 124.716 24.3359 124.716 53.3406C124.716 57.457 125.181 61.4657 126.077 65.3096C82.4258 63.1194 43.7257 42.2097 17.8214 10.4342C13.3005 18.1913 10.7104 27.2134 10.7104 36.8386C10.7104 55.0598 19.9835 71.1358 34.0762 80.554C25.4661 80.2815 17.3682 77.919 10.2863 73.9852C10.2825 74.2044 10.2825 74.4244 10.2825 74.6454C10.2825 100.093 28.3867 121.321 52.4136 126.145C48.006 127.345 43.3661 127.987 38.5756 127.987C35.1915 127.987 31.901 127.658 28.6948 127.045C35.3778 147.911 54.7742 163.096 77.757 163.52C59.782 177.606 37.1354 186.003 12.5289 186.003C8.28987 186.003 4.10888 185.755 0 185.27C23.2431 200.171 50.8507 208.866 80.5109 208.866C177.117 208.866 229.944 128.835 229.944 59.4309C229.944 57.1536 229.893 54.8885 229.792 52.6365C240.053 45.2315 248.958 35.9809 256 25.4483Z" fill="#55ACEE"/>
</g>
<defs>
<clipPath id="clip0_1_12752">
<rect width="256" height="209" fill="white"/>
</clipPath>
</defs>
</svg>
