<svg width="256" height="233" viewBox="0 0 256 233" fill="none" xmlns="http://www.w3.org/2000/svg">
<g clip-path="url(#clip0_1_12761)">
<path d="M138.63 32.2305C141.711 32.2305 144.217 34.6895 144.293 37.7519L144.295 37.8959V102.741C144.295 105.822 141.836 108.328 138.774 108.405L138.63 108.407H85.7541C82.6733 108.407 80.1668 105.948 80.0904 102.885L80.0886 102.741V37.8959C80.0886 34.8151 82.5477 32.3087 85.6101 32.2323L85.7541 32.2305H138.63ZM138.63 34.7511H85.7541C84.0542 34.7511 82.6685 36.0978 82.6066 37.7831L82.6044 37.8959V102.741C82.607 104.442 83.9551 105.827 85.6412 105.889L85.7541 105.891H138.63C140.33 105.888 141.715 104.54 141.777 102.854L141.779 102.741V37.8959C141.777 36.1583 140.367 34.7511 138.63 34.7511ZM93.3063 92.6683V96.442H89.5278V92.6683H93.3063ZM135.485 92.6683V96.442H95.1981V92.6683H135.485ZM93.3063 76.3009V80.0746H89.5278V76.3009H93.3063ZM135.485 76.3009V80.0746H95.1981V76.3009H135.485ZM93.3063 60.5625V64.3362H89.5278V60.5625H93.3063ZM135.485 60.5625V64.3362H95.1981V60.5625H135.485ZM135.485 46.082V49.8606H89.5278V46.082H135.485Z" fill="#8E8F8F"/>
<path d="M138.63 121.621V121.66C141.696 121.66 144.196 124.096 144.292 127.143L144.295 127.287V192.132C144.295 195.213 141.836 197.719 138.774 197.795L138.63 197.797H85.7541C84.2515 197.797 82.8105 197.2 81.748 196.138C80.7264 195.116 80.1352 193.745 80.0913 192.305L80.0886 192.132V127.287C80.0886 124.206 82.5477 121.699 85.6101 121.623L85.7541 121.621H138.63ZM138.63 124.142H85.7541C84.0542 124.142 82.6685 125.488 82.6066 127.174L82.6044 127.287V192.132C82.607 193.832 83.9551 195.217 85.6412 195.279L85.7541 195.281H138.63C140.323 195.279 141.705 193.942 141.777 192.264L141.779 192.151V127.306C141.777 125.606 140.428 124.223 138.743 124.163L138.63 124.161V124.142ZM93.3063 182.074V185.852H89.5278V182.074H93.3063ZM135.485 182.103V185.823H95.1981V182.103H135.485ZM93.3063 165.706V169.485H89.5278V165.706H93.3063ZM135.485 165.735V169.455H95.1981V165.735H135.485ZM93.3063 149.973V153.746H89.5278V149.973H93.3063ZM135.485 150.002V153.717H95.1981V150.002H135.485ZM135.485 135.492V139.271H89.5278V135.492H135.485Z" fill="#8E8F8F"/>
<path d="M153.879 70.3203V73.4651H172.762V158.995H153.879V162.145H172.762H175.911V158.995V73.4651V70.3203H172.762H153.879Z" fill="#8E8F8F"/>
<path d="M19.3317 14.7948C23.0553 8.68812 29.1887 5.1259 35.3846 3.05746L36.2297 2.78456L37.0742 2.52958C37.4961 2.40648 37.9173 2.28987 38.3371 2.17944L39.1744 1.96669C39.3136 1.93257 39.4526 1.89911 39.5913 1.8663L40.4204 1.67711C40.558 1.64684 40.6953 1.61719 40.8323 1.58816L41.6502 1.4212L42.4589 1.26831L43.2571 1.12891L44.0436 1.00241L44.817 0.888203L45.5759 0.785709L46.319 0.694333L47.0451 0.613483L47.7528 0.542567L48.7768 0.453524L49.7521 0.383501L50.674 0.330502L51.6763 0.287519L52.5928 0.261814L53.1527 0.252709L53.6692 0.248933H54.1403L54.7571 0.256638L55.1053 0.264109L55.7403 0.285538L56.0205 0.299632V15.414C42.6523 14.142 36.6874 18.1794 34.0569 22.4826L33.82 22.8867C33.4788 23.4934 33.2011 24.1023 32.9754 24.6994L32.8326 25.0955C32.8101 25.1611 32.7881 25.2266 32.7668 25.2919L32.6457 25.681L32.5382 26.0642L32.4436 26.4407C32.4288 26.5029 32.4146 26.5647 32.4008 26.6262L32.324 26.9908C32.3122 27.0508 32.3008 27.1105 32.2898 27.1698L32.2292 27.5205L32.1784 27.8607L32.1367 28.1896L32.0897 28.6595L32.0589 29.0987L32.0438 29.4431L32.037 29.7614L32.037 30.0519L32.0422 30.3126L32.0513 30.5417L32.0686 30.8219L32.1009 31.1524L32.1004 36.705L32.0678 48.0415L32.0283 56.2109L31.982 63.0833L31.9314 68.891L31.8821 73.464L31.8241 77.9152L31.7645 81.7104L31.6879 85.7319L31.6407 87.8267L31.59 89.8061L31.5243 92.0114L31.5012 92.7018L31.4989 93.9777L31.492 94.7591L31.4834 95.2862L31.4623 96.0849L31.4309 96.8563L31.4054 97.3265L31.3744 97.7986L31.3373 98.2723L31.2692 98.985L31.2146 99.4612L31.1521 99.9378L31.081 100.415C31.0684 100.494 31.0555 100.573 31.0422 100.653L30.9574 101.129C30.9424 101.208 30.9271 101.288 30.9113 101.367L30.8115 101.842L30.7011 102.316L30.5795 102.789C30.537 102.946 30.4926 103.103 30.4461 103.259L30.3005 103.728L30.142 104.194L29.9702 104.657C28.0344 109.659 23.6509 114.115 13.7248 116.178C23.3809 118.183 27.7918 122.448 29.8067 127.278L29.9915 127.74C30.1692 128.203 30.3259 128.671 30.4643 129.143L30.5965 129.615C30.6807 129.93 30.7571 130.247 30.8263 130.564L30.925 131.041C30.9405 131.12 30.9557 131.2 30.9705 131.279L31.0541 131.757L31.1285 132.235L31.1942 132.713L31.2516 133.191L31.3014 133.668L31.3441 134.144L31.3802 134.619L31.4233 135.328L31.4454 135.798L31.4725 136.586L31.4845 137.106L31.4926 137.622L31.499 138.388L31.5012 139.659L31.5687 141.872L31.629 144.21L31.6846 146.716L31.7357 149.37L31.7898 152.623L31.8637 157.998L31.9147 162.553L31.9396 165.116L31.9932 171.662L32.0511 181.373L32.0911 191.885L32.1057 191.876V201.198L32.0908 201.33L32.0735 201.529L32.0616 201.707L32.0471 202.038L32.0419 202.299L32.0419 202.589L32.0487 202.907L32.0638 203.252L32.0941 203.685L32.1229 203.991L32.181 204.473L32.2306 204.808L32.2897 205.154L32.3591 205.509C32.3716 205.569 32.3845 205.629 32.3979 205.689L32.4841 206.057C32.4995 206.119 32.5153 206.181 32.5317 206.243L32.6362 206.621L32.7539 207.004C32.7747 207.069 32.796 207.133 32.818 207.198L32.9567 207.588C33.0054 207.719 33.0566 207.85 33.1104 207.982L33.2798 208.379C35.3792 213.086 40.9172 218.171 55.2408 217.006L56.0254 216.937V232.051L55.6239 232.07L54.8799 232.092L54.2679 232.102H53.541L52.9964 232.096L52.4065 232.085L51.7736 232.067L50.9517 232.034L50.3725 232.005L49.7697 231.969L49.1445 231.926L48.4981 231.875L47.8318 231.816L47.1468 231.748L46.4442 231.672L45.7253 231.585L44.9913 231.488C44.8678 231.47 44.7437 231.453 44.619 231.435L43.8646 231.321C43.7379 231.301 43.6106 231.281 43.4828 231.26L42.7108 231.128C42.5812 231.105 42.4512 231.082 42.3208 231.058L41.5338 230.907C41.4019 230.881 41.2696 230.854 41.137 230.827L40.3378 230.656L39.532 230.471C39.2624 230.407 38.9919 230.34 38.7207 230.271L37.9052 230.056C30.4143 228.013 22.5458 223.978 18.498 216.069C19.3756 206.347 23.3736 198.058 30.5553 192.9C30.8934 192.662 31.2357 192.43 31.5824 192.207L31.9738 191.958C31.4878 192.258 31.01 192.576 30.5407 192.91C23.3736 198.058 19.3756 206.347 18.498 216.03C16.6961 212.391 15.752 208.388 15.7384 204.328L15.6483 200.161L15.5313 195.11L15.385 189.198L15.1856 181.662L15.0027 175.126L14.7507 166.568L14.4666 157.402L13.9915 142.979L13.8759 139.634C13.5948 132.062 10.5555 128.374 7.3926 126.593L7.02008 126.393C6.95795 126.361 6.89581 126.329 6.83369 126.299L6.46125 126.123C6.33725 126.067 6.21347 126.014 6.09005 125.963L5.72104 125.818C5.59851 125.772 5.47651 125.729 5.35519 125.688L4.99343 125.571C4.87364 125.534 4.75469 125.5 4.63674 125.467L4.35396 125.393L4.07557 125.326L3.80207 125.266L3.53395 125.213L3.14296 125.145L2.89048 125.108L2.64512 125.075L2.29153 125.037L1.98011 125.035L1.34305 125.027C1.01934 125.024 0.687444 125.021 0.345442 125.027L0 125.037V107.324C0.82885 107.353 1.56994 107.338 2.29153 107.299L2.64512 107.261L2.89048 107.228L3.14296 107.191L3.53395 107.123L3.80207 107.07L4.07557 107.01L4.35396 106.943L4.63674 106.869L4.99343 106.765L5.35519 106.648L5.72104 106.518C9.39693 105.143 13.5452 101.61 13.8759 92.7018L14.3069 79.8923L14.6387 69.428L14.8189 63.4894L15.0945 53.9633L15.2754 47.3375L15.4064 42.2908L15.5713 35.5341L15.6669 31.3329L15.7384 28.0027C15.848 22.754 17.1417 18.4935 19.1954 15.0342L19.3327 14.8058L19.3317 14.7948ZM199.975 15.1653V0.0509768L200.381 0.0315889L200.945 0.0138665L201.311 0.00646085L201.957 0H202.45L202.989 0.00534047L203.822 0.0225622L204.885 0.0603444L205.454 0.0877002L206.046 0.121412L206.977 0.185065L207.624 0.237004L208.29 0.297169L208.975 0.366095L209.676 0.444316L210.394 0.532366L211.126 0.630779L211.872 0.740092L212.631 0.860836C212.758 0.881943 212.886 0.903548 213.014 0.925663L213.789 1.06456L214.573 1.21622L215.365 1.38119L216.164 1.55999L216.969 1.75317C217.373 1.85344 217.778 1.9593 218.185 2.07105L218.999 2.3025C226.609 4.53761 234.432 8.89505 238.107 17.3301C239.505 20.627 240.237 24.168 240.262 27.7492L240.352 31.9169L240.469 36.9688L240.551 40.349L240.68 45.4082L240.86 52.0714L240.997 56.9554L241.249 65.5134L241.533 74.6797L242.009 89.1038L242.124 92.4482C242.41 100.146 245.546 103.828 248.765 105.574L249.137 105.767C249.199 105.798 249.261 105.828 249.323 105.857L249.694 106.026L250.063 106.179C250.124 106.203 250.186 106.227 250.247 106.25L250.612 106.381C250.672 106.402 250.733 106.422 250.793 106.442L251.152 106.553C251.211 106.57 251.27 106.587 251.329 106.604L251.855 106.739L252.198 106.815L252.532 106.881L252.857 106.936L253.11 106.974L253.355 107.007L253.708 107.046C254.327 107.079 254.971 107.095 255.655 107.08L256 107.07V124.788C255.171 124.759 254.43 124.773 253.708 124.812L253.475 124.837L253.233 124.867L252.857 124.921L252.466 124.989L252.198 125.042L251.924 125.101L251.646 125.168L251.363 125.243L251.186 125.293L250.826 125.404C250.766 125.423 250.705 125.443 250.645 125.464L250.279 125.594C250.218 125.617 250.156 125.64 250.095 125.665L249.725 125.817C246.198 127.336 242.438 130.947 242.124 139.41L241.693 152.213L241.361 162.678L241.181 168.617L240.905 178.144L240.725 184.77L240.594 189.817L240.429 196.574L240.333 200.774L240.262 204.104C240.234 207.219 239.681 210.307 238.626 213.236L238.5 213.58L238.506 213.611C234.738 223.347 225.62 227.923 217.202 230.054L216.376 230.256C216.239 230.288 216.102 230.32 215.966 230.351L215.149 230.53C215.014 230.559 214.879 230.587 214.744 230.614L213.94 230.772C213.806 230.797 213.673 230.822 213.541 230.846L212.752 230.984C212.621 231.005 212.491 231.027 212.361 231.048L211.589 231.167L210.831 231.274L210.088 231.37L209.36 231.456L208.65 231.531L207.959 231.597L206.959 231.68L206.32 231.725L205.404 231.778L204.544 231.817L203.493 231.849L202.896 231.859L202.346 231.863H201.848L201.403 231.858L201.015 231.85L200.542 231.837L200.131 231.82L199.989 231.812V216.698C213.984 218.029 219.865 213.542 222.301 209.023L222.51 208.618C222.577 208.483 222.641 208.349 222.702 208.214L222.876 207.812C222.931 207.678 222.984 207.545 223.034 207.412L223.177 207.016L223.305 206.625C223.325 206.56 223.345 206.495 223.364 206.431L223.472 206.047L223.566 205.671L223.649 205.302L223.72 204.942L223.781 204.591L223.831 204.251L223.873 203.922L223.92 203.452L223.942 203.156L223.966 202.669L223.973 202.35L223.973 202.06L223.968 201.799L223.958 201.57L223.947 201.374L223.924 201.091L223.909 200.959V192.671L223.932 184.953L223.97 176.991L224.015 170.28L224.074 163.429L224.142 157.28L224.19 153.705L224.235 150.826L224.294 147.524L224.337 145.434L224.384 143.445L224.433 141.571L224.499 139.405L224.501 138.134L224.508 137.361L224.516 136.839L224.529 136.313L224.557 135.517L224.583 134.982L224.612 134.507L224.647 134.029L224.688 133.551L224.736 133.071L224.792 132.59L224.856 132.109C224.868 132.029 224.879 131.949 224.892 131.869L224.969 131.388L225.056 130.907L225.153 130.427L225.261 129.948C225.393 129.391 225.548 128.836 225.729 128.286L225.892 127.816C226.118 127.192 226.38 126.575 226.685 125.969L226.921 125.517C229.207 121.32 233.647 117.718 242.275 115.924C231.393 113.665 227.173 108.537 225.536 102.963L225.403 102.491C225.319 102.175 225.243 101.859 225.174 101.541L225.075 101.065C225.059 100.985 225.044 100.906 225.03 100.826L224.946 100.349L224.871 99.8709L224.806 99.393L224.748 98.9154L224.699 98.4384L224.656 97.9624L224.62 97.4877L224.577 96.7787L224.555 96.3086L224.528 95.5211L224.516 95.0006L224.507 94.4844L224.501 93.719L224.499 92.4482L224.452 90.9714L224.401 89.0934L224.343 86.6768L224.29 84.1029L224.241 81.3932L224.182 77.6059L224.113 72.1601L224.061 67.0708L224.013 61.1753L223.95 50.6926L223.909 39.3336C224.768 38.8588 225.602 38.338 226.405 37.7734C230.409 34.9043 233.425 31.0386 235.458 26.4911L235.597 26.1727C233.562 30.8588 230.497 34.8393 226.391 37.7783C225.721 38.2488 225.031 38.6889 224.322 39.0972L223.894 39.3385V30.9037L223.909 30.7717L223.927 30.5732L223.938 30.3951L223.953 30.0639L223.958 29.8032L223.958 29.5128L223.951 29.1944L223.936 28.8501L223.918 28.5646L223.877 28.1108L223.819 27.629L223.769 27.2937L223.71 26.9481L223.641 26.5932C223.628 26.5333 223.615 26.4731 223.602 26.4125L223.516 26.0452C223.501 25.9834 223.485 25.9212 223.468 25.8588L223.364 25.4812L223.246 25.0977C223.225 25.0334 223.204 24.9689 223.182 24.9041L223.043 24.5136C222.995 24.3828 222.943 24.2514 222.89 24.1196L222.72 23.7228C220.621 19.0156 215.083 13.9307 200.759 15.096L199.975 15.1653Z" fill="#FE0902"/>
<path d="M31.1696 36.0916C31.3208 36.2013 31.4756 36.3049 31.6316 36.4061L32.1009 36.7059V31.1526L32.0859 31.0206L32.0686 30.8221L32.0567 30.644L32.0422 30.3129L32.037 30.0522L32.037 29.7617L32.0438 29.4434L32.0589 29.099L32.0778 28.8098L32.1034 28.5064L32.1367 28.1899L32.1784 27.861L32.2292 27.5208L32.2898 27.1701L32.361 26.8099C32.3738 26.7491 32.3871 26.6879 32.4008 26.6265L32.4894 26.2537L32.5903 25.8737C32.6082 25.8098 32.6267 25.7457 32.6457 25.6813L32.7668 25.2922C32.7881 25.2269 32.8101 25.1614 32.8326 25.0958L32.9755 24.6997C33.2011 24.1026 33.4788 23.4937 33.82 22.8869L34.0569 22.4829C36.6874 18.1797 42.6523 14.1423 56.0205 15.4142V0.299919L55.7404 0.285825L55.2598 0.268603L54.9377 0.260465L54.1403 0.249833L53.6692 0.24922L53.1527 0.252996L52.2973 0.268946L51.515 0.293685L50.674 0.330789L49.7521 0.383789L48.7769 0.453811L48.0993 0.510936L47.0451 0.613771L46.319 0.694621L45.5759 0.785997L44.817 0.88849L44.0436 1.00269L43.2572 1.1292L42.4589 1.2686L41.6502 1.42148L40.8323 1.58845C40.6953 1.61748 40.558 1.64713 40.4204 1.67739L39.5913 1.86658C39.4526 1.89939 39.3136 1.93286 39.1744 1.96698L38.3371 2.17972C37.9173 2.29016 37.4961 2.40676 37.0742 2.52987L36.2297 2.78484L35.3846 3.05774C29.1887 5.12618 23.0553 8.68841 19.3317 14.795C20.536 23.7125 24.4657 31.3135 31.1696 36.0916ZM56.0254 232.051V216.937C41.4039 218.328 35.6389 213.368 33.4066 208.655L33.2237 208.252C33.1365 208.051 33.0555 207.851 32.9803 207.652L32.8375 207.255C32.8149 207.19 32.793 207.124 32.7717 207.059L32.6506 206.67L32.5431 206.287L32.4485 205.91L32.3659 205.541L32.2947 205.181L32.2341 204.83L32.1833 204.49L32.1416 204.161L32.0946 203.691L32.0638 203.252L32.0487 202.908L32.0419 202.589L32.0419 202.299L32.0471 202.038L32.0562 201.809L32.0674 201.614L32.0908 201.331L32.1058 201.19V191.876C31.5792 192.201 31.0624 192.543 30.5553 192.9C23.3736 198.059 19.3756 206.347 18.498 216.069C22.5458 223.978 30.4143 228.014 37.9052 230.056L38.7207 230.271C38.9919 230.341 39.2624 230.407 39.532 230.471L40.3378 230.656L41.137 230.827L41.9284 230.984C42.0596 231.01 42.1904 231.034 42.3208 231.058L43.0981 231.196C43.2268 231.218 43.3551 231.239 43.4828 231.26L44.2434 231.38C44.3692 231.399 44.4944 231.417 44.619 231.435L45.3601 231.538C45.4825 231.554 45.6042 231.57 45.7253 231.585L46.4442 231.672L47.1468 231.749L47.8319 231.816L48.4982 231.875L49.1445 231.926L49.7697 231.969L50.3725 232.005L51.2321 232.047L51.7737 232.067L52.4065 232.085L52.9964 232.097L53.541 232.102L54.2679 232.101L54.8799 232.092L55.3695 232.079L56.0254 232.051ZM238.107 17.3303C234.198 8.35841 225.596 3.99967 217.55 1.90125L216.747 1.69885L215.949 1.511C215.817 1.48088 215.685 1.45134 215.553 1.42237L214.765 1.25536C214.634 1.22864 214.503 1.20248 214.373 1.17685L213.597 1.0295L212.831 0.894607L212.075 0.771645L211.331 0.660091L210.6 0.559423L209.883 0.469118L209.182 0.388653L208.497 0.317505L207.83 0.255152L206.865 0.176968L205.946 0.11563L205.078 0.069374L204.264 0.0364348L203.753 0.0210022L203.139 0.00789081L202.571 0.00125736L202.052 0L201.585 0.00301694L201.173 0.00920636L200.661 0.0220287L200.285 0.0357915L199.975 0.051264V15.1656C214.596 13.7743 220.361 18.7348 222.593 23.4474L222.776 23.8505C222.863 24.0517 222.944 24.252 223.02 24.451L223.163 24.8471C223.185 24.9128 223.207 24.9783 223.228 25.0435L223.349 25.4326L223.457 25.8159L223.552 26.1924L223.634 26.5612L223.705 26.9214L223.766 27.2721L223.817 27.6123L223.858 27.9412L223.905 28.4112L223.936 28.8504L223.951 29.1947L223.958 29.5131L223.958 29.8035L223.953 30.0642L223.944 30.2933L223.927 30.5735L223.894 30.9062V39.3388C224.754 38.864 225.587 38.3431 226.391 37.7786C232.89 33.1273 236.78 25.8675 238.107 17.3303ZM227.034 194.587C226.037 193.878 224.993 193.238 223.909 192.671V200.96L223.924 201.092L223.941 201.29L223.953 201.468L223.968 201.799L223.973 202.06L223.973 202.351L223.966 202.669L223.942 203.156L223.92 203.452L223.873 203.922L223.831 204.251L223.781 204.591L223.72 204.942L223.649 205.302L223.566 205.671L223.472 206.048L223.364 206.431C223.345 206.495 223.325 206.56 223.305 206.625L223.177 207.016L223.034 207.413C222.984 207.545 222.931 207.679 222.876 207.812L222.702 208.214C222.641 208.349 222.577 208.484 222.51 208.618L222.301 209.023C219.865 213.542 213.984 218.03 199.989 216.698V231.812L200.213 231.824L200.857 231.847L201.648 231.861L202.129 231.864L202.948 231.859L203.556 231.848L204.211 231.829L205.023 231.797L205.889 231.752L206.495 231.713L207.444 231.642L208.101 231.585L208.777 231.519L209.47 231.444L210.18 231.359L210.904 231.265L211.643 231.159L212.394 231.043C212.52 231.022 212.646 231.002 212.773 230.98L213.541 230.846L214.318 230.699C214.449 230.674 214.579 230.648 214.71 230.621L215.5 230.455C215.632 230.426 215.765 230.397 215.897 230.367L216.697 230.179C225.253 228.105 234.662 223.542 238.506 213.612C236.985 205.679 233.153 198.97 227.034 194.587Z" fill="#FFAB00"/>
</g>
<defs>
<clipPath id="clip0_1_12761">
<rect width="256" height="233" fill="white"/>
</clipPath>
</defs>
</svg>
