<svg width="512" height="128" viewBox="0 0 512 128" fill="none" xmlns="http://www.w3.org/2000/svg">
<g clip-path="url(#clip0_1_12776)">
<path d="M14 0H498C505.732 0 512 6.26801 512 14V113.49C512 121.222 505.732 127.49 498 127.49H14C6.26801 127.49 0 121.222 0 113.49V14C0 6.26801 6.26801 0 14 0Z" fill="#3178C6"/>
<path d="M161.57 46.2871H178.996V37.7387H134.12V46.2871H151.504V98.4239H161.57V46.2871ZM195.06 105.362L214.693 55.0773H204.749L193.87 86.6535C193.612 87.6214 193.41 88.4093 193.263 89.0177L193.105 89.7011H192.892C192.666 88.7337 192.485 87.9779 192.351 87.4343L192.127 86.5689L181.758 55.0773H170.837L188.133 98.3357L185.201 105.447C183.387 109.059 180.639 110.865 176.956 110.865C175.681 110.865 174.265 110.611 172.707 110.103V118.272C174.095 118.639 175.823 118.822 177.891 118.822C185.257 118.822 190.98 114.336 195.06 105.362ZM245.606 54.0574C251.125 54.0574 255.427 55.9891 258.512 59.8526C261.597 63.716 263.139 68.9049 263.139 75.4191C263.139 82.6386 261.399 88.4195 257.917 92.7629C254.436 97.1057 249.682 99.2771 243.653 99.2771C238.105 99.2771 233.832 96.8517 230.832 92.0015H230.662V118.312H220.813V55.0727H230.662V62.6869H230.832C234.2 56.9336 239.124 54.0574 245.606 54.0574ZM242.166 62.2168C238.66 62.2168 235.839 63.4509 233.705 65.9191C231.569 68.3878 230.502 71.473 230.502 75.1754V80.5187C230.502 83.6601 231.513 86.3251 233.535 88.5129C235.557 90.7006 238.123 91.7944 241.233 91.7944C244.881 91.7944 247.744 90.3849 249.823 87.5659C251.901 84.7473 252.94 80.8135 252.94 75.7644C252.94 71.5291 251.972 68.2124 250.034 65.814C248.098 63.4157 245.475 62.2168 242.166 62.2168ZM288.988 54.0574C294.88 54.0574 299.439 55.9626 302.666 59.773C305.892 63.5835 307.506 68.8758 307.506 75.6496V79.4177H278.129C278.242 83.426 279.469 86.5164 281.812 88.6898C284.155 90.8633 287.374 91.95 291.471 91.95C296.073 91.95 300.295 90.567 304.139 87.8009V95.7181C300.211 98.2021 295.02 99.4438 288.567 99.4438C282.226 99.4438 277.253 97.4749 273.647 93.5375C270.042 89.6001 268.239 84.0609 268.239 76.9199C268.239 70.1742 270.224 64.6773 274.194 60.4293C278.164 56.1814 283.096 54.0574 288.988 54.0574ZM331.347 36.7188C334.973 36.7188 338.599 37.325 342.226 38.5375V42.9363C338.656 41.329 334.845 40.5254 330.794 40.5254C326.658 40.5254 323.378 41.5687 320.956 43.6553C318.534 45.7419 317.323 48.3925 317.323 51.607C317.323 54.7086 318.151 57.1758 319.809 59.0086C321.466 60.8414 325.043 63.3371 330.539 66.4953C336.234 69.7096 340.023 72.5649 341.907 75.0601C343.791 77.5559 344.733 80.4249 344.733 83.6672C344.733 88.3201 343.111 92.1127 339.867 95.0449C336.623 97.9777 332.041 99.4438 326.119 99.4438C324.023 99.4438 321.608 99.1195 318.874 98.4708C316.14 97.8227 314.05 97.0751 312.606 96.2296V91.4497C316.969 94.2132 321.388 95.5947 325.865 95.5947C330.624 95.5947 334.237 94.615 336.701 92.6553C339.166 90.6955 340.398 87.9534 340.398 84.4286C340.398 81.327 339.57 78.8527 337.912 77.0056C336.314 75.2248 332.918 72.8214 327.724 69.7948L327.139 69.4562C320.963 65.8747 317.053 62.8787 315.41 60.4681C313.767 58.057 312.946 55.2726 312.946 52.1144C312.946 47.8285 314.617 44.1911 317.96 41.2021C321.303 38.2132 325.766 36.7188 331.347 36.7188ZM289.138 61.1968C286.341 61.1968 283.97 62.231 282.026 64.2989C280.082 66.3673 278.886 69.0727 278.438 72.416H298.327C298.299 68.8748 297.474 66.1195 295.851 64.1505C294.229 62.1816 291.991 61.1968 289.138 61.1968ZM369.674 99.4438C374.168 99.4438 378.036 98.4576 381.279 96.4856V92.4288C378.036 94.739 374.225 95.894 369.844 95.894C365.065 95.894 361.218 94.1897 358.303 90.7806C355.387 87.3716 353.929 82.864 353.929 77.2575C353.929 71.4542 355.522 66.7284 358.708 63.0796C361.894 59.4314 366.047 57.6072 371.167 57.6072C374.894 57.6072 378.321 58.5649 381.45 60.4809V56.086C378.321 54.7336 375.093 54.0574 371.765 54.0574C365.335 54.0574 360.073 56.2477 355.977 60.6287C351.881 65.0098 349.833 70.6372 349.833 77.5115C349.833 84.0476 351.653 89.3369 355.294 93.3794C358.935 97.4224 363.729 99.4438 369.674 99.4438ZM406.948 58.9872C405.653 58.0519 404.133 57.5848 402.387 57.5848C398.98 57.5848 396.123 59.3554 393.814 62.8965C391.505 66.4382 390.351 71.4669 390.351 77.9832V98.4239H386.55V54.9075H390.351V64.5539H390.52C391.505 61.2392 393.068 58.6613 395.207 56.8198C397.347 54.9784 399.825 54.0574 402.641 54.0574C404.245 54.0574 405.681 54.3124 406.948 54.8223V58.9872ZM417.147 55.0773V98.4239H413.068V55.0773H417.147ZM415.32 37.7387C416.209 37.7387 416.991 38.0294 417.666 38.611C418.34 39.1925 418.677 39.9775 418.677 40.9662C418.677 41.8966 418.347 42.6962 417.687 43.365C417.027 44.0338 416.238 44.3682 415.32 44.3682C414.458 44.3682 413.698 44.0483 413.038 43.4086C412.378 42.7689 412.048 41.9548 412.048 40.9662C412.048 40.0067 412.385 39.2289 413.06 38.6328C413.734 38.0367 414.487 37.7387 415.32 37.7387ZM446.569 54.0574C452.062 54.0574 456.352 55.9524 459.436 59.7429C462.521 63.5335 464.064 68.6841 464.064 75.1937C464.064 82.4367 462.296 88.2915 458.76 92.7583C455.225 97.225 450.555 99.4586 444.752 99.4586C438.272 99.4586 433.482 96.5417 430.383 90.7082H430.215V118.312H426.327V55.114H430.215V64.0337H430.383C431.933 60.849 434.152 58.3905 437.039 56.6572C439.927 54.9238 443.103 54.0574 446.569 54.0574ZM446.41 57.6271C441.318 57.6271 437.377 59.3156 434.589 62.6931C431.801 66.07 430.406 70.0385 430.406 74.5976V80.0434C430.406 84.3776 431.786 88.0993 434.546 91.2095C437.306 94.3193 440.933 95.8741 445.429 95.8741C449.896 95.8741 453.523 93.9817 456.312 90.1962C459.1 86.4108 460.494 81.4366 460.494 75.2733C460.494 69.8697 459.214 65.5779 456.653 62.3973C454.092 59.2172 450.678 57.6271 446.41 57.6271ZM482.868 99.4438C484.633 99.4438 486.524 98.9655 488.542 98.0088V94.3784C486.693 95.4198 484.97 95.9404 483.372 95.9404C481.131 95.9404 479.541 95.2719 478.602 93.9353C477.663 92.5987 477.194 90.439 477.194 87.4557V58.9209H488.542V55.3751H477.194V42.8383C476.577 43.0634 475.933 43.2744 475.26 43.4714C474.588 43.6966 473.944 43.9217 473.327 44.1468V55.3751H465.594V58.9209H473.327V87.9621C473.327 95.6166 476.507 99.4438 482.868 99.4438Z" fill="white"/>
</g>
<defs>
<clipPath id="clip0_1_12776">
<rect width="512" height="128" fill="white"/>
</clipPath>
</defs>
</svg>
