<svg width="512" height="97" viewBox="0 0 512 97" fill="none" xmlns="http://www.w3.org/2000/svg">
<g clip-path="url(#clip0_1_12794)">
<path d="M7.41761 22.5289L31.8362 8.34243L31.8509 48.1255C31.8055 62.8697 42.1498 76.0961 56.4468 79.5756L56.7668 79.6534L56.5626 79.9109C56.2388 80.3355 55.9277 80.7416 55.5444 81.1222C54.2503 82.403 52.8263 83.5658 51.3133 84.5775C49.7882 85.5969 48.1594 86.4722 46.4711 87.1773C44.7508 87.8951 42.953 88.4453 41.1296 88.8112C39.2052 89.1969 37.5411 89.3709 35.7594 89.3709C35.7024 89.3709 35.6442 89.3709 35.5866 89.3709C33.6467 89.3639 31.7139 89.1644 29.8426 88.7761C28.0211 88.4 26.2272 87.839 24.5107 87.1097C22.8307 86.3963 21.2064 85.5121 19.6839 84.4812C18.1747 83.458 16.7591 82.2869 15.4759 80.9998C14.1875 79.7095 13.0195 78.2917 12.0064 76.7865C10.9824 75.2667 10.1043 73.6442 9.39649 71.9631C8.67713 70.2565 8.12545 68.4664 7.75681 66.6425C7.35873 64.6752 7.31073 62.6428 7.31649 60.9145L7.31265 22.5901L7.41761 22.5289ZM68.8557 72.6638C70.2676 68.6934 70.9895 64.8084 71.001 61.1179V19.1029L89.5124 8.51455V48.302C89.5073 50.1062 89.339 51.8153 89.0126 53.3804C88.6759 54.9952 88.1761 56.5807 87.5284 58.0929C86.8897 59.5834 86.1012 61.0191 85.1853 62.3597C84.2765 63.6915 83.2333 64.9435 82.0845 66.0815C80.9338 67.2201 79.6705 68.2522 78.329 69.1479C76.9786 70.0519 75.5309 70.829 74.0257 71.4576C72.5069 72.111 71.0906 72.5445 69.2922 72.9054C69.2314 72.9175 69.1629 72.9296 69.0919 72.9417L68.7354 73.0042L68.8557 72.6638ZM0 18.6828L0.01728 60.8947C-0.0416 80.4484 15.8803 96.4045 35.5091 96.4645H35.6167C41.8535 96.4645 47.9904 94.8337 53.3639 91.7514L79.3261 76.8911C90.0903 71.3288 96.795 60.3828 96.8314 48.3212L96.8353 4.23433C96.8353 4.10874 96.7674 3.99144 96.6586 3.92832L90.299 0.223128C90.1901 0.159377 90.0538 0.159377 89.9437 0.220578L63.8599 14.8845C63.7479 14.947 63.6788 15.0656 63.6788 15.1937L63.7012 61.0885C63.696 63.0183 63.4957 64.9436 63.1053 66.8114C62.7264 68.6283 62.1645 70.4146 61.4336 72.1219C61.2967 72.44 61.154 72.7562 61.0055 73.0692L60.9396 73.2082L60.7866 73.1884C60.3456 73.1311 60.0551 73.0769 59.2794 72.9315L59.074 72.8926C57.4413 72.5579 54.1172 71.6157 50.1549 69.0657C48.8128 68.1566 47.5552 67.1168 46.4148 65.9725C45.2711 64.8269 44.2349 63.5684 43.3357 62.2329C42.4256 60.882 41.6461 59.4419 41.0189 57.952C40.3802 56.4354 39.8912 54.8461 39.5642 53.2313C39.2724 51.7892 39.1507 50.2936 39.1578 48.2313V4.1999C39.1578 4.07495 39.0938 3.96084 38.9863 3.89517L32.6336 0.0516381C32.5767 0.0172127 32.5127 0 32.448 0C32.3872 0 32.3258 0.0159377 32.2714 0.0471756L0.17856 18.3749C0.0691201 18.438 0 18.5559 0 18.6828Z" fill="#2015FF"/>
<path d="M345.262 23.0469C355.968 23.0469 361.79 28.3362 362.773 29.3119L362.851 29.3904C362.882 29.4231 362.904 29.4456 362.914 29.457L363.618 30.2086L359.723 35.551L358.686 34.5692C358.635 34.5214 353.512 29.777 345.394 29.777C335.385 29.777 327.837 37.5636 327.837 47.8886C327.837 58.6287 335.442 66.727 345.527 66.727C354.191 66.727 359.631 60.999 359.685 60.941L360.664 59.884L364.897 65.0427L364.196 65.837C363.922 66.1481 357.342 73.4572 345.461 73.4572C331.269 73.4572 320.567 62.4939 320.567 47.9556C320.567 33.7551 331.184 23.0469 345.262 23.0469ZM184.848 23.6444L184.843 53.5741C184.843 65.0843 175.686 73.4382 163.07 73.4382C150.563 73.4382 141.486 65.0843 141.486 53.5741V23.6616H148.793V53.5072C148.793 61.054 154.931 66.745 163.07 66.745C171.181 66.745 177.534 60.9303 177.534 53.5072V23.6444H184.848ZM287.312 23.667L287.341 23.7397L307.278 72.8361H299.562L299.533 72.7634L293.427 57.7845L272.781 61.9876L268.359 72.8361H260.643L280.609 23.667H287.312ZM206.877 23.6429L223.132 23.6677C238.077 23.669 247.733 33.3049 247.733 48.2175C247.733 63.1639 238.038 72.8215 223.034 72.8215H206.76V23.6429H206.877ZM454.485 23.6441V30.3309H437.663L437.658 72.8195L430.35 72.8214V30.3309H413.528V23.6441H454.485ZM475.061 23.6442L475.097 23.6939L489.525 44.2963L503.848 23.6442H512L511.88 23.8246L493.195 51.8731V72.8216H485.882V51.8775L466.83 23.6442H475.061ZM394.082 23.6489V72.8167H386.769V23.6489H394.082ZM222.666 30.331H214.074V66.1385L222.666 66.1627C233.81 66.1627 240.463 59.4542 240.463 48.2175C240.463 37.0172 233.81 30.331 222.666 30.331ZM283.96 34.5627L276.085 53.8792L290.628 50.9186L283.96 34.5627Z" fill="#0B0B0B"/>
</g>
<defs>
<clipPath id="clip0_1_12794">
<rect width="512" height="97" fill="white"/>
</clipPath>
</defs>
</svg>
