<svg width="256" height="497" viewBox="0 0 256 497" fill="none" xmlns="http://www.w3.org/2000/svg">
<g clip-path="url(#clip0_1_12798)">
<path d="M255.982 147.795L127.973 73.8977L0 147.795V73.8977L127.991 0L256 73.8977V147.795H255.982Z" fill="#A435F0"/>
<path d="M0 209.852H67.0472V372.751C67.0472 414.837 98.4756 435.352 127.991 435.352C157.761 435.352 188.953 414.291 188.953 372.186V209.852H256V376.631C256 415.402 243.811 445.318 219.434 465.833C195.038 486.33 164.575 496.314 127.426 496.314C90.3133 496.314 59.8323 486.348 36.0196 465.833C12.1887 445.337 0 416.532 0 378.289V209.852Z" fill="black"/>
</g>
<defs>
<clipPath id="clip0_1_12798">
<rect width="256" height="497" fill="white"/>
</clipPath>
</defs>
</svg>
