<svg width="512" height="193" viewBox="0 0 512 193" fill="none" xmlns="http://www.w3.org/2000/svg">
<g clip-path="url(#clip0_1_12802)">
<path d="M79.5391 45.9232L39.7639 22.9616L0 45.9232V22.9616L39.7696 0L79.5448 22.9616V45.9232H79.5391Z" fill="#A435F0"/>
<path d="M0 65.2058H20.833V115.822C20.833 128.899 30.5985 135.274 39.7696 135.274C49.0199 135.274 58.7118 128.73 58.7118 115.647V65.2058H79.5448V117.028C79.5448 129.075 75.7575 138.37 68.1829 144.745C60.6026 151.114 51.1372 154.216 39.5941 154.216C28.0623 154.216 18.5912 151.119 11.1921 144.745C3.78731 138.376 0 129.426 0 117.543V65.2058ZM259.654 128.112C253.348 133.728 246.164 136.48 237.972 136.48C223.027 136.48 213.006 127.965 211.874 114.78H279.185C279.185 114.78 279.638 110.523 279.638 106.526C279.638 94.1286 275.675 83.797 267.58 75.3619C259.666 66.9267 249.34 62.7941 236.766 62.7941C223.514 62.7941 212.661 66.9267 204.05 75.3619C195.615 83.797 191.313 94.8136 191.313 108.593V109.272C191.313 122.876 195.615 133.723 204.05 141.818C212.486 149.908 223.678 154.041 237.281 154.041C253.099 154.041 265.683 147.802 275.126 137.046L259.654 128.112ZM220.06 85.8633C224.702 82.2458 230.392 80.355 236.761 80.355C242.784 80.355 247.777 82.2458 252.085 86.0388C256.195 89.4921 258.414 93.7323 258.607 98.6065H212.406C213.074 93.5681 215.622 89.3222 220.066 85.8689L220.06 85.8633ZM469.366 165.736C460.914 185.692 452.071 192.48 438.513 192.48H429.115V174.013H436.712C441.377 174.013 445.714 172.258 449.846 162.725L453.979 153.18L418.336 65.2058H439.515L464.826 128.565L490.827 65.2058H512L469.372 165.736H469.366ZM160.646 31.9805V73.0634C153.819 66.9494 143.199 63.3093 132.929 63.3093C120.701 63.3093 110.375 67.6117 101.94 76.3865C93.675 84.9971 89.5424 95.6684 89.5424 108.581C89.5424 121.5 93.675 132.171 101.94 140.952C110.375 149.563 120.707 153.871 132.929 153.871C147.026 153.871 155.936 148.328 160.646 143.986V151.974H181.31V31.9861H160.646V31.9805ZM154.447 127.529C149.454 132.522 143.086 135.11 135.681 135.11C128.276 135.11 122.253 132.522 117.259 127.529C112.447 122.536 110.03 116.167 110.03 108.593C110.03 101.013 112.442 94.6437 117.259 89.6506C122.253 84.6575 128.276 82.076 135.681 82.076C143.086 82.076 149.454 84.6575 154.447 89.6506C159.61 94.6437 162.203 101.013 162.203 108.593C162.203 116.167 159.61 122.536 154.447 127.529ZM386.215 63.4848C370.522 63.4848 362.365 69.9951 356.777 76.2676C354.541 72.0048 348.246 63.4848 333.538 63.4848C321.106 63.4848 313.781 69.7686 310.123 74.2409V65.2171H289.641V151.986H310.123V102.054C310.123 90.3469 317.358 81.9118 326.994 81.9118C336.816 81.9118 342.494 89.3166 342.494 101.194V151.98H362.982V102.049C362.982 90.1714 370.035 81.9061 380.191 81.9061C390.008 81.9061 395.686 89.3109 395.686 101.182V151.974H416.349V98.2612C416.349 75.6392 404.189 63.4904 386.215 63.4904V63.4848Z" fill="black"/>
</g>
<defs>
<clipPath id="clip0_1_12802">
<rect width="512" height="193" fill="white"/>
</clipPath>
</defs>
</svg>
