<svg width="256" height="146" viewBox="0 0 256 146" fill="none" xmlns="http://www.w3.org/2000/svg">
<g clip-path="url(#clip0_1_12818)">
<path d="M146.882 122.217C104.876 122.217 81.4411 99.379 80.9001 57.908C80.7891 49.373 81.7671 19.675 83.6331 7.954C83.6331 7.954 102.28 0 102.689 0C102.818 0 119.435 11.69 119.435 11.69C118.542 21.693 118.115 52.299 118.181 57.42C118.507 82.318 128.365 94.943 147.473 94.941L148.033 94.938C172.499 94.617 177.366 74.072 177.139 56.891C177.096 53.413 176.115 19.474 175.385 12.012L193.636 0.234L212.291 8.403C213.014 15.453 214.113 51.437 214.178 56.405C214.729 98.276 191.364 121.643 148.393 122.203C147.884 122.215 147.382 122.217 146.882 122.217Z" fill="#8F9495"/>
<path d="M234.678 72.027C234.678 72.027 239.171 86.529 245.971 70.746C252.771 54.963 249.326 32.457 249.326 32.457C249.326 32.457 270.721 77.963 236.895 111.618C236.895 111.618 229.39 120.212 213.107 125.063C213.107 125.066 238.613 103.568 234.678 72.027Z" fill="#496B8C"/>
<path d="M50.3265 90.2493C90.3885 106.176 110.639 140.178 170.553 127.395C230.467 114.613 221.68 53.9023 221.68 53.9023C221.68 53.9023 234.86 84.4563 214.489 116.21C196.627 144.056 141.996 166.539 71.8965 113.415C71.8965 113.415 31.1545 79.0643 -0.000488239 97.0403C-0.000488239 97.0403 17.6725 77.2673 50.3265 90.2493Z" fill="#4A5D75"/>
<path d="M82.8168 97.5024C80.5168 93.7854 77.3168 88.0774 76.1338 83.3494C76.1338 83.3494 61.3398 69.3474 42.5898 74.3554C33.0518 76.1054 26.8918 82.3204 26.8918 82.3204C42.7608 77.6034 48.8128 78.8054 64.0918 87.5144C76.8488 94.7874 92.5948 108.903 82.8168 97.5024Z" fill="#4B73A2"/>
</g>
<defs>
<clipPath id="clip0_1_12818">
<rect width="256" height="146" fill="white"/>
</clipPath>
</defs>
</svg>
