<svg width="256" height="160" viewBox="0 0 256 160" fill="none" xmlns="http://www.w3.org/2000/svg">
<g clip-path="url(#clip0_1_12824)">
<path d="M50.0417 0H113.82C122.723 0 128.26 7.25665 126.184 16.1891L96.4901 143.675C94.3946 152.576 85.4808 159.839 76.5716 159.839H12.7993C3.90879 159.839 -1.64096 152.576 0.435918 143.675L30.1418 16.1891C32.2187 7.25665 41.1279 0 50.0417 0Z" fill="#E21836"/>
<path d="M108.513 0H181.857C190.758 0 186.744 7.25665 184.65 16.1891L154.962 143.675C152.879 152.576 153.528 159.839 144.608 159.839H71.2646C62.3446 159.839 56.8244 152.576 58.9199 143.675L88.6072 16.1891C90.7152 7.25665 99.6057 0 108.513 0Z" fill="#00447C"/>
<path d="M178.948 0H242.726C251.642 0 257.179 7.25665 255.085 16.1891L225.396 143.675C223.301 152.576 214.381 159.839 205.467 159.839H141.718C132.798 159.839 127.265 152.576 129.354 143.675L159.048 16.1891C161.125 7.25665 170.028 0 178.948 0Z" fill="#007B84"/>
<path d="M66.6983 40.854C60.1396 40.9208 58.2027 40.854 57.584 40.7079C57.3461 41.838 52.9203 62.254 52.9079 62.2711C51.9549 66.4015 51.2616 69.3458 48.9064 71.247C47.5695 72.3523 46.0088 72.8855 44.1993 72.8855C41.2907 72.8855 39.5962 71.4414 39.3118 68.7022L39.2573 67.7617C39.2573 67.7617 40.1434 62.2291 40.1434 62.198C40.1434 62.198 44.7884 43.5931 45.6201 41.1338C45.6637 40.9939 45.6761 40.9208 45.687 40.854C36.6457 40.9333 35.043 40.854 34.9326 40.7079C34.872 40.9084 34.6481 42.0619 34.6481 42.0619L29.9052 63.0312L29.4979 64.8096L28.7097 70.6268C28.7097 72.3523 29.0486 73.7607 29.7233 74.9515C31.8841 78.7275 38.0479 79.2934 41.5348 79.2934C46.0274 79.2934 50.2418 78.3389 53.0897 76.5962C58.0332 73.6752 59.3266 69.1095 60.4801 65.0522L61.0148 62.9706C61.0148 62.9706 65.7998 43.6475 66.6128 41.1338C66.6439 40.9939 66.6563 40.9208 66.6983 40.854ZM82.9786 56.4421C81.8252 56.4421 79.7172 56.7219 77.8237 57.65C77.1366 58.0029 76.4868 58.4102 75.8013 58.8159L76.42 56.582L76.0811 56.2058C72.0657 57.0188 71.1672 57.1277 67.458 57.65L67.1471 57.8568C66.7165 61.4276 66.3341 64.1123 64.7375 71.1311C64.1297 73.7178 63.4986 76.3295 62.8659 78.91L63.0369 79.2381C66.8377 79.0375 67.9912 79.0375 71.2946 79.0919L71.562 78.8012C71.9817 76.6513 72.0361 76.1476 72.9658 71.7933C73.4026 69.7289 74.3136 65.1927 74.7628 63.5775C75.5883 63.1951 76.4029 62.8189 77.1802 62.8189C79.0316 62.8189 78.8062 64.4341 78.7347 65.0776C78.6554 66.1581 77.9808 69.6869 77.289 72.7167L76.8273 74.6723C76.5055 76.1165 76.1526 77.5203 75.8308 78.952L75.9707 79.2381C79.7172 79.0375 80.8598 79.0375 84.0591 79.0919L84.4353 78.8012C85.0135 75.4434 85.183 74.5449 86.209 69.6558L86.7251 67.4095C87.7278 63.0132 88.2315 60.784 87.4728 58.9683C86.6707 56.9333 84.7462 56.4421 82.9786 56.4421ZM101.166 61.045C99.1743 61.4274 97.9042 61.6823 96.6419 61.8471C95.3905 62.0477 94.1702 62.2296 92.2456 62.4969L92.0933 62.6353L91.9534 62.7457C91.7528 64.179 91.6129 65.4179 91.3471 66.8746C91.1217 68.3809 90.775 70.0925 90.2107 72.5518C89.7739 74.4343 89.5485 75.0904 89.2998 75.7526C89.0572 76.4148 88.7899 77.0584 88.2986 78.9099L88.4137 79.0809L88.51 79.2379C90.3087 79.1524 91.4855 79.0918 92.6949 79.0809C93.9028 79.0374 95.1542 79.0809 97.0912 79.0918L97.2606 78.9534L97.4425 78.8011C97.7223 77.1315 97.7643 76.6822 97.9353 75.8676C98.1047 74.994 98.397 73.7845 99.1136 70.5542C99.4525 69.0369 99.8303 67.5244 100.182 65.976C100.547 64.4339 100.929 62.9151 101.293 61.3979L101.239 61.2144L101.166 61.045ZM101.208 54.8389C99.3986 53.7709 96.2226 54.1098 94.0851 55.5851C91.9538 57.0308 91.7113 59.0828 93.5146 60.1648C95.293 61.2032 98.4814 60.8939 100.6 59.4062C102.727 57.9293 102.993 55.896 101.208 54.8389ZM112.151 79.5726C115.812 79.5726 119.565 78.5637 122.39 75.5696C124.563 73.1414 125.559 69.5286 125.904 68.0409C127.028 63.1099 126.153 60.8076 125.054 59.4054C123.385 57.2679 120.434 56.5823 117.373 56.5823C115.533 56.5823 111.149 56.7642 107.724 59.9215C105.265 62.1989 104.128 65.2894 103.443 68.2523C102.751 71.2713 101.955 76.706 106.953 78.7285C108.495 79.3907 110.718 79.5726 112.151 79.5726ZM111.865 68.4778C112.709 64.7437 113.706 61.6098 116.249 61.6098C118.242 61.6098 118.387 63.9416 117.501 67.688C117.342 68.5197 116.614 71.6117 115.63 72.9284C114.943 73.9 114.13 74.4892 113.232 74.4892C112.964 74.4892 111.374 74.4892 111.349 72.1278C111.337 70.9619 111.575 69.7711 111.865 68.4778ZM135.056 79.0924L135.342 78.8017C135.748 76.6517 135.815 76.1465 136.713 71.7938C137.163 69.7293 138.092 65.1931 138.529 63.578C139.356 63.194 140.157 62.8178 140.959 62.8178C142.798 62.8178 142.574 64.433 142.501 65.0766C142.434 66.1585 141.759 69.6858 141.055 72.7156L140.618 74.6712C140.284 76.117 139.92 77.5192 139.599 78.9525L139.738 79.2385C143.497 79.038 144.596 79.038 147.814 79.0924L148.203 78.8017C148.767 75.4423 148.92 74.5438 149.977 69.6563L150.48 67.4084C151.488 63.0121 151.998 60.7844 151.251 58.9687C150.426 56.9338 148.489 56.4426 146.746 56.4426C145.591 56.4426 143.472 56.7208 141.59 57.6505C140.917 58.0033 140.242 58.4091 139.58 58.8164L140.157 56.5825L139.847 56.2047C135.833 57.0193 134.916 57.1281 131.212 57.6505L130.927 57.8572C130.478 61.428 130.113 64.1112 128.516 71.1315C127.908 73.7183 127.277 76.33 126.646 78.9105L126.815 79.2385C130.623 79.038 131.759 79.038 135.056 79.0924ZM162.673 79.2377C162.91 78.0843 164.314 71.2473 164.326 71.2473C164.326 71.2473 165.521 66.2308 165.594 66.0489C165.594 66.0489 165.971 65.5266 166.347 65.3198H166.9C172.122 65.3198 178.018 65.3198 182.64 61.92C185.785 59.5882 187.935 56.1449 188.894 51.96C189.143 50.934 189.326 49.7137 189.326 48.4934C189.326 46.8906 189.004 45.305 188.075 44.066C185.718 40.7688 181.025 40.7082 175.607 40.6833C175.59 40.6833 172.937 40.7082 172.937 40.7082C166.002 40.7937 163.221 40.7688 162.078 40.6289C161.982 41.1341 161.8 42.0327 161.8 42.0327C161.8 42.0327 159.316 53.5457 159.316 53.5643C159.316 53.5643 153.371 78.0423 153.091 79.1958C159.146 79.1227 161.629 79.1227 162.673 79.2377ZM167.277 58.7861C167.277 58.7861 169.918 47.2964 169.905 47.3399L169.991 46.7507L170.028 46.3015L171.084 46.4103C171.084 46.4103 176.531 46.8782 176.658 46.8906C178.808 47.7223 179.694 49.866 179.076 52.6642C178.511 55.2215 176.853 57.3714 174.721 58.4099C172.966 59.2897 170.816 59.3628 168.601 59.3628H167.168L167.277 58.7861ZM183.721 68.6906C183.023 71.666 182.221 77.1007 187.194 79.0377C188.78 79.7123 190.201 79.9129 191.645 79.8398C193.17 79.7574 194.583 78.9926 195.892 77.892C195.774 78.3443 195.655 78.7967 195.537 79.2506L195.763 79.5413C199.34 79.3906 200.45 79.3906 204.325 79.4201L204.677 79.1527C205.242 75.826 205.776 72.5956 207.246 66.2313C207.963 63.1828 208.678 60.1639 209.413 57.1278L209.298 56.7936C205.297 57.5351 204.227 57.6937 200.378 58.2393L200.086 58.4772C200.047 58.7865 200.007 59.0835 199.969 59.3804C199.371 58.4134 198.503 57.588 197.165 57.0734C195.453 56.4003 191.433 57.2677 187.978 60.4141C185.549 62.6605 184.383 65.7385 183.721 68.6906ZM192.125 68.8725C192.982 65.2053 193.966 62.1024 196.515 62.1024C198.127 62.1024 198.976 63.5901 198.803 66.1271C198.667 66.7598 198.519 67.4267 198.343 68.1807C198.088 69.2704 197.812 70.3508 197.543 71.4328C197.269 72.1728 196.95 72.8708 196.601 73.3356C195.945 74.2652 194.384 74.8419 193.485 74.8419C193.23 74.8419 191.657 74.8419 191.603 72.5225C191.59 71.3675 191.828 70.1783 192.125 68.8725ZM236.011 56.7639L235.702 56.411C231.742 57.2132 231.025 57.3406 227.388 57.8319L227.12 58.0993C227.108 58.1428 227.097 58.2096 227.078 58.2703L227.066 58.2096C224.358 64.4574 224.437 63.1096 222.233 68.0282C222.22 67.8043 222.22 67.6644 222.208 67.4266L221.656 56.7639L221.309 56.411C217.162 57.2132 217.064 57.3406 213.234 57.8319L212.935 58.0993C212.893 58.2267 212.893 58.3666 212.868 58.519L212.893 58.5734C213.372 61.0203 213.257 60.4746 213.737 64.3361C213.961 66.2311 214.26 68.137 214.483 70.0087C214.861 73.1411 215.073 74.6832 215.534 79.4635C212.948 83.7323 212.335 85.3474 209.845 89.0939L209.862 89.1312L208.108 91.9045C207.908 92.1968 207.726 92.3973 207.471 92.4828C207.191 92.6212 206.827 92.6461 206.322 92.6461H205.35L203.906 97.4496L208.861 97.5351C211.769 97.5227 213.597 96.1625 214.581 94.3343L217.697 88.996H217.647L217.975 88.6198C220.07 84.1085 236.011 56.7639 236.011 56.7639ZM183.721 119.851H181.619L189.398 94.1221H191.979L192.798 91.4716L192.877 94.419C192.781 96.241 194.214 97.8561 197.979 97.5888H202.334L203.832 92.6344H202.194C201.252 92.6344 200.815 92.3966 200.869 91.8867L200.79 88.8879H192.727V88.9035C190.12 88.9579 182.334 89.1538 180.758 89.5735C178.851 90.0647 176.841 91.5105 176.841 91.5105L177.63 88.8568H170.088L168.516 94.1221L160.633 120.245H159.103L157.603 125.163H172.626L172.123 126.803H179.525L180.017 125.163H182.093L183.721 119.851ZM177.557 99.3501C176.349 99.6843 174.101 100.698 174.101 100.698L176.101 94.1221H182.093L180.648 98.9132C180.648 98.9132 178.796 99.0221 177.557 99.3501ZM177.672 108.744C177.672 108.744 175.79 108.981 174.551 109.26C173.33 109.63 171.042 110.796 171.042 110.796L173.107 103.953H179.13L177.672 108.744ZM174.314 119.912H168.303L170.046 114.137H176.038L174.314 119.912ZM188.791 103.953H197.456L196.211 107.986H187.431L186.113 112.394H193.795L187.978 120.585C187.571 121.187 187.206 121.4 186.8 121.569C186.393 121.776 185.858 122.019 185.239 122.019H183.108L181.644 126.847H187.218C190.116 126.847 191.827 125.529 193.091 123.798L197.08 118.339L197.937 123.882C198.119 124.921 198.865 125.529 199.37 125.765C199.928 126.045 200.505 126.525 201.319 126.597C202.193 126.634 202.824 126.664 203.244 126.664H205.983L207.628 121.26H206.547C205.927 121.26 204.859 121.156 204.677 120.961C204.495 120.725 204.495 120.361 204.398 119.808L203.529 114.252H199.97L201.531 112.394H210.294L211.642 107.986H203.529L204.792 103.953H212.881L214.381 98.9801H190.267L188.791 103.953ZM115.606 121.035L117.628 114.307H125.941L127.459 109.303H119.139L120.409 105.161H128.54L130.046 100.316H109.703L108.228 105.161H112.85L111.617 109.303H106.983L105.447 114.392H110.067L107.371 123.294C107.008 124.472 107.542 124.921 107.881 125.469C108.228 126.002 108.579 126.355 109.369 126.555C110.184 126.737 110.742 126.846 111.5 126.846H120.871L122.541 121.302L118.387 121.873C117.585 121.873 115.363 121.776 115.606 121.035ZM116.559 88.8265L114.453 92.6336C114.002 93.4653 113.596 93.9814 113.231 94.2193C112.909 94.4198 112.272 94.5037 111.348 94.5037H110.249L108.78 99.3742H112.43C114.185 99.3742 115.533 98.7306 116.177 98.4088C116.869 98.0388 117.051 98.2502 117.585 97.7341L118.818 96.6661H130.216L131.729 91.5952H123.385L124.842 88.8265H116.559ZM133.386 121.133C133.192 120.853 133.332 120.36 133.629 119.334L136.744 109.023H147.827C149.442 108.999 150.608 108.981 151.366 108.926C152.181 108.841 153.067 108.55 154.032 108.028C155.029 107.481 155.539 106.904 155.969 106.242C156.45 105.581 157.221 104.135 157.883 101.906L161.799 88.8572L150.298 88.924C150.298 88.924 146.757 89.4463 145.198 90.0231C143.625 90.6667 141.377 92.4637 141.377 92.4637L142.415 88.8867H135.311L125.365 121.873C125.012 123.154 124.776 124.083 124.721 124.641C124.703 125.243 125.48 125.838 125.984 126.288C126.579 126.737 127.459 126.664 128.303 126.737C129.191 126.804 130.453 126.846 132.196 126.846H137.655L139.331 121.187L134.443 121.649C133.921 121.649 133.543 121.369 133.386 121.133ZM138.754 102.058H150.395L149.655 104.378C149.551 104.432 149.302 104.263 148.117 104.403H138.038L138.754 102.058ZM141.086 94.2794H152.824L151.98 97.073C151.98 97.073 146.448 97.0185 145.562 97.1818C141.663 97.8564 139.385 99.9395 139.385 99.9395L141.086 94.2794ZM149.915 112.145C149.819 112.491 149.667 112.703 149.454 112.861C149.217 113.014 148.835 113.068 148.264 113.068H146.606L146.704 110.244H139.804L139.525 124.053C139.514 125.049 139.61 125.626 140.339 126.088C141.068 126.664 143.315 126.737 146.338 126.737H150.661L152.222 121.568L148.459 121.775L147.207 121.848C147.036 121.775 146.873 121.708 146.691 121.527C146.533 121.37 146.265 121.466 146.309 120.469L146.338 116.93L150.285 116.766C152.417 116.766 153.328 116.073 154.105 115.412C154.846 114.78 155.089 114.052 155.369 113.068L156.031 109.934H150.607L149.915 112.145Z" fill="#FEFEFE"/>
</g>
<defs>
<clipPath id="clip0_1_12824">
<rect width="256" height="160" fill="white"/>
</clipPath>
</defs>
</svg>
