<svg width="256" height="269" viewBox="0 0 256 269" fill="none" xmlns="http://www.w3.org/2000/svg">
<g clip-path="url(#clip0_1_12831)">
<path d="M139.789 0L137.309 1.431V21.83L41.416 77.194V91.255L33.197 77.194L0 133.989H23.577V201.284L139.789 268.379L256 201.284V67.095L139.789 0Z" fill="#A4D43A"/>
<mask id="mask0_1_12831" style="mask-type:luminance" maskUnits="userSpaceOnUse" x="0" y="0" width="256" height="269">
<path d="M139.789 0L137.309 1.431V21.83L41.416 77.194V91.255L33.197 77.194L0 133.989H23.577V201.284L139.789 268.379L256 201.284V67.095L139.789 0Z" fill="#62655D"/>
</mask>
<g mask="url(#mask0_1_12831)">
<path d="M35.5769 73.8232L139.789 13.6562L244 73.8232V194.156L139.789 254.322L35.5769 194.156V73.8232Z" fill="#62655D"/>
</g>
<mask id="mask1_1_12831" style="mask-type:luminance" maskUnits="userSpaceOnUse" x="0" y="0" width="256" height="269">
<path d="M139.789 0L137.309 1.431V21.83L41.416 77.194V91.255L33.197 77.194L0 133.989H23.577V201.284L139.789 268.379L256 201.284V67.095L139.789 0Z" fill="#3F4238"/>
</mask>
<g mask="url(#mask1_1_12831)">
<path d="M139.789 20.3984L41.416 77.1944V190.785L139.789 247.58V20.3984Z" fill="#3F4238"/>
</g>
<mask id="mask2_1_12831" style="mask-type:luminance" maskUnits="userSpaceOnUse" x="0" y="0" width="256" height="269">
<path d="M139.789 0L137.309 1.431V21.83L41.416 77.194V91.255L33.197 77.194L0 133.989H23.577V201.284L139.789 268.379L256 201.284V67.095L139.789 0Z" fill="#A4D43A"/>
</mask>
<g mask="url(#mask2_1_12831)">
<path d="M139.789 0L137.309 1.431V22.061L140.189 20.398L238.561 77.194V190.785L140.189 247.58L41.816 190.785V133.989H66.395L33.197 77.194L0 133.989H23.577V201.284L139.789 268.379L256 201.284V67.095L139.789 0Z" fill="#A4D43A"/>
</g>
<mask id="mask3_1_12831" style="mask-type:luminance" maskUnits="userSpaceOnUse" x="0" y="0" width="256" height="269">
<path d="M139.789 0L137.309 1.431V21.83L41.416 77.194V91.255L33.197 77.194L0 133.989H23.577V201.284L139.789 268.379L256 201.284V67.095L139.789 0Z" fill="#F7F7F7"/>
</mask>
<g mask="url(#mask3_1_12831)">
<path d="M78.3269 139.19L126.056 119.192C126.056 119.192 136.148 153.347 141.255 159.455C184.185 93.7265 224.715 78.3945 224.715 78.3945V129.591C224.715 129.591 184.499 150.068 137.255 202.118C111.591 156.989 78.3269 139.19 78.3269 139.19Z" fill="#F7F7F7"/>
</g>
</g>
<defs>
<clipPath id="clip0_1_12831">
<rect width="256" height="269" fill="white"/>
</clipPath>
</defs>
</svg>
