<svg width="256" height="256" viewBox="0 0 256 256" fill="none" xmlns="http://www.w3.org/2000/svg">
<g clip-path="url(#clip0_1_12850)">
<path d="M204.556 123.369L204.312 152.626C204.302 155.626 201.944 158.091 198.948 158.234C195.952 158.091 193.594 155.626 193.584 152.626L193.828 123.369C193.828 106.672 180.293 93.1369 163.596 93.1369C148.48 93.1369 135.07 106.303 133.851 122.638V123.857L133.364 135.072V135.804C133.233 150.437 125.305 163.889 112.567 171.093C99.8285 178.297 84.2147 178.157 71.607 170.727C58.9993 163.297 51.3131 149.706 51.4437 135.072C51.5105 135.08 51.5773 135.057 51.6248 135.009C51.6724 134.962 51.6955 134.895 51.6875 134.828H51.4437V106.79C51.4694 105.406 52.0438 104.089 53.0406 103.129C54.0374 102.169 55.3749 101.644 56.7588 101.67C58.1427 101.631 59.4855 102.143 60.4915 103.094C61.4976 104.046 62.0843 105.358 62.1226 106.741L61.8788 134.78C61.8788 151.476 75.4142 165.012 92.1111 165.012C108.808 165.012 122.343 151.476 122.343 134.78V133.804L122.831 123.564V122.345C124.343 100.207 142.141 82.6531 163.352 82.6531C186.035 82.7338 204.366 101.174 204.312 123.857C204.556 123.125 204.556 123.125 204.556 123.369ZM128.487 0.000938634C57.7958 -0.266904 0.271019 56.8218 0.000941016 127.513C-0.267242 198.205 56.8212 255.73 127.513 256C198.204 256.269 255.73 199.181 256 128.489V128.002C256.134 57.4629 199.075 0.163294 128.536 0.000938634H128.487Z" fill="#3AAFA9"/>
</g>
<defs>
<clipPath id="clip0_1_12850">
<rect width="256" height="256" fill="white"/>
</clipPath>
</defs>
</svg>
