<svg width="256" height="256" viewBox="0 0 256 256" fill="none" xmlns="http://www.w3.org/2000/svg">
<g clip-path="url(#clip0_1_12860)">
<path d="M137.176 195.928C137.176 163.116 163.776 136.516 196.588 136.516C229.4 136.516 256 163.116 256 195.928C256 228.74 229.4 255.34 196.588 255.34C163.776 255.34 137.176 228.74 137.176 195.928Z" fill="#333333" fill-opacity="0.6"/>
<path d="M137.176 59.4121C137.176 26.5997 163.776 0 196.588 0C229.4 0 256 26.5997 256 59.4121V112.883C256 116.165 253.34 118.824 250.059 118.824H143.117C139.836 118.824 137.176 116.165 137.176 112.883V59.4121Z" fill="#333333" fill-opacity="0.3"/>
<path d="M118.824 195.928C118.824 228.74 92.2246 255.34 59.4122 255.34C26.5997 255.34 0 228.74 0 195.928V142.457C0 139.175 2.65998 136.516 5.94122 136.516H112.883C116.164 136.516 118.824 139.175 118.824 142.457V195.928Z" fill="#333333"/>
</g>
<defs>
<clipPath id="clip0_1_12860">
<rect width="256" height="256" fill="white"/>
</clipPath>
</defs>
</svg>
