<svg width="256" height="210" viewBox="0 0 256 210" fill="none" xmlns="http://www.w3.org/2000/svg">
<g clip-path="url(#clip0_1_12868)">
<path d="M80.4548 208.844H60.451V190.485H80.1402V194.551H65.8034V197.677H79.3755V201.512H65.8114V204.674H80.4548V208.844ZM195.547 208.844H175.858V190.776H195.24V194.758H181.134V197.833H194.492V201.604H181.134V204.718H195.547V208.844ZM107.591 208.844H99.4868L88.8298 195.113H88.7263V208.844H83.4296V190.485H91.6533L102.179 204.232H102.282V190.485H107.591V208.844ZM171.72 208.844H163.628L152.971 195.113H152.867V208.844H147.547V190.485H155.77L166.296 204.232H166.399V190.485H171.72V208.844ZM124.042 209.079L123.218 209.087L122.593 209.085L121.99 209.079L121.409 209.069L120.85 209.055L120.314 209.037L119.8 209.015L119.307 208.989L118.837 208.959C117.775 208.905 116.72 208.748 115.687 208.49C114.931 208.301 114.218 207.967 113.589 207.506C113.038 207.077 112.605 206.515 112.33 205.873C111.999 205.096 111.788 204.273 111.705 203.432C111.607 202.445 111.555 201.455 111.549 200.464L111.55 199.501C111.541 198.36 111.596 197.219 111.713 196.084C111.791 195.24 111.998 194.413 112.326 193.631C112.605 192.992 113.039 192.432 113.589 192.002C114.218 191.544 114.933 191.217 115.691 191.039C116.618 190.808 117.563 190.658 118.516 190.592L118.833 190.573C118.988 190.563 119.146 190.553 119.307 190.545L119.802 190.52C119.886 190.517 119.971 190.513 120.057 190.51L120.583 190.491L121.131 190.476L121.7 190.465C121.796 190.463 121.894 190.462 121.992 190.461L122.592 190.455L123.214 190.453H124.011C124.212 190.453 124.411 190.454 124.605 190.455L125.178 190.461L125.73 190.47C125.82 190.472 125.909 190.474 125.998 190.476L126.517 190.491L127.015 190.51C127.097 190.513 127.177 190.517 127.256 190.52L127.722 190.545C128.641 190.59 129.555 190.702 130.458 190.879C131.118 191.003 131.756 191.226 132.35 191.54C132.827 191.794 133.237 192.159 133.544 192.604C133.849 193.073 134.054 193.601 134.146 194.153C134.25 194.762 134.306 195.378 134.313 195.995L134.313 196.964H129.136V196.741C129.146 196.381 129.079 196.023 128.941 195.69C128.779 195.378 128.508 195.136 128.18 195.009C127.726 194.833 127.252 194.719 126.769 194.667L126.587 194.651C126.359 194.628 126.106 194.61 125.83 194.595L125.486 194.578L125.119 194.566L124.729 194.556L124.316 194.55L123.879 194.547L123.193 194.547L122.745 194.55L122.112 194.558L121.717 194.567L121.342 194.578L120.989 194.591L120.821 194.599C120.216 194.62 119.615 194.696 119.025 194.826C118.615 194.913 118.228 195.086 117.89 195.332C117.6 195.562 117.381 195.87 117.26 196.22C117.129 196.614 117.045 197.022 117.01 197.436L116.997 197.614C116.99 197.724 116.982 197.839 116.976 197.959L116.959 198.331L116.947 198.729L116.94 199.154C116.939 199.227 116.939 199.301 116.938 199.376V200.156L116.943 200.586L116.953 200.989L116.967 201.366C116.973 201.487 116.979 201.604 116.986 201.717L116.997 201.883C117.023 202.348 117.111 202.807 117.26 203.249C117.382 203.596 117.6 203.902 117.89 204.129C118.228 204.375 118.615 204.547 119.025 204.635C119.531 204.746 120.045 204.818 120.562 204.849L120.989 204.87L121.342 204.884L121.717 204.896L122.112 204.904L122.529 204.91L122.966 204.913L124.319 204.913L124.737 204.911L125.132 204.906C125.387 204.901 125.627 204.894 125.852 204.88L126.402 204.841L126.76 204.813C127.046 204.788 127.303 204.762 127.531 204.726C127.868 204.679 128.198 204.586 128.511 204.451C128.734 204.352 128.93 204.198 129.08 204.005C129.217 203.821 129.309 203.607 129.347 203.38C129.391 203.101 129.412 202.818 129.411 202.536V202.026H122.366V198.482H134.524V202.56C134.533 203.337 134.475 204.114 134.353 204.881C134.255 205.49 134.044 206.075 133.732 206.606C133.431 207.091 133.022 207.5 132.537 207.801C131.941 208.156 131.291 208.413 130.613 208.561C129.811 208.742 128.997 208.867 128.177 208.934L127.826 208.959C127.594 208.977 127.353 208.992 127.105 209.005L126.598 209.03C126.511 209.033 126.424 209.037 126.336 209.04L125.796 209.057C125.52 209.064 125.236 209.07 124.944 209.073L124.349 209.078C124.247 209.079 124.145 209.079 124.042 209.079ZM143.644 208.888H138.264V190.664H143.644V208.888Z" fill="black"/>
<path d="M20.5725 180.86L19.201 180.865L18.4301 180.863C18.3032 180.862 18.1772 180.861 18.0519 180.86L17.3099 180.852C16.9437 180.846 16.5848 180.84 16.233 180.831L15.5392 180.812L14.8647 180.789C14.643 180.781 14.4246 180.771 14.2094 180.762L13.5734 180.73C13.469 180.724 13.3654 180.718 13.2626 180.712L12.6556 180.674C12.556 180.668 12.4572 180.661 12.3592 180.654C10.6515 180.554 8.95474 180.316 7.28563 179.941C6.04347 179.673 4.85135 179.211 3.75322 178.571C2.85294 178.029 2.08871 177.288 1.51908 176.405C0.93147 175.457 0.532546 174.405 0.344267 173.306C0.0987316 171.921 -0.0159364 170.516 0.00177833 169.109V148.4H9.44012V166.05C9.44012 166.554 9.44833 167.025 9.46473 167.463L9.48386 167.89C9.49844 168.167 9.51666 168.43 9.53853 168.678L9.55562 168.862C9.6097 169.545 9.76679 170.217 10.0216 170.853C10.2366 171.381 10.5869 171.842 11.0371 172.191C11.5643 172.57 12.1611 172.841 12.7933 172.988C13.5759 173.186 14.3744 173.313 15.1793 173.369L15.6976 173.398L16.1458 173.418L16.6156 173.436L17.107 173.451L17.6202 173.463L18.1555 173.471L18.7129 173.476L19.2926 173.478H20.0891C20.2856 173.478 20.4784 173.477 20.6676 173.476L21.2243 173.47C21.3153 173.469 21.4053 173.468 21.4945 173.466L22.0185 173.455C22.104 173.453 22.1886 173.451 22.2723 173.448L22.7635 173.432C22.8436 173.428 22.9228 173.425 23.001 173.422L23.4596 173.4C23.5342 173.396 23.6079 173.392 23.6807 173.387L23.8963 173.374C24.8032 173.328 25.7041 173.202 26.5884 172.996C27.2224 172.854 27.8202 172.583 28.3447 172.199C28.789 171.845 29.137 171.385 29.3562 170.861C29.6143 170.225 29.7728 169.554 29.8262 168.87C29.9005 168.073 29.9377 167.144 29.9377 166.082V148.396H39.38V169.105C39.3937 170.507 39.2871 171.907 39.0614 173.29C38.8867 174.392 38.4984 175.448 37.9184 176.401C37.3578 177.283 36.6015 178.024 35.7082 178.567C34.6133 179.207 33.4236 179.67 32.1838 179.937C30.6477 180.281 29.0883 180.51 27.5186 180.622L26.7911 180.67L26.1782 180.707L25.5458 180.741C25.4388 180.746 25.3309 180.751 25.2223 180.756L24.5606 180.783L23.8794 180.806L23.1787 180.825L22.4585 180.84C22.3368 180.842 22.2143 180.844 22.091 180.846L21.3416 180.855L20.5725 180.86ZM87.9138 180.471H73.8001L55.2181 156.457H55.0349V180.471H45.7798V148.352H60.1165L78.4715 172.39H78.6507V148.352H87.9058V180.455L87.9138 180.471ZM103.975 164.569H115.739L116.218 164.567L116.676 164.563L117.115 164.556L117.534 164.546C117.602 164.544 117.669 164.542 117.735 164.539L118.124 164.525L118.493 164.507L118.843 164.487C118.899 164.483 118.955 164.479 119.01 164.475L119.33 164.45L119.63 164.422C120.4 164.377 121.15 164.163 121.828 163.796C122.313 163.504 122.664 163.034 122.808 162.486C122.979 161.757 123.057 161.009 123.039 160.26V159.706C123.056 158.967 122.978 158.228 122.808 157.508C122.667 156.961 122.309 156.494 121.816 156.218C121.13 155.865 120.377 155.66 119.606 155.616L119.306 155.588L118.987 155.563C118.932 155.559 118.877 155.555 118.82 155.551L118.472 155.531L118.105 155.513L117.719 155.498L117.313 155.487L116.888 155.478L116.443 155.472L115.978 155.469L103.975 155.469V164.569ZM132.545 180.471H123.218V177.866C123.225 177.058 123.188 176.249 123.106 175.445C123.052 174.848 122.888 174.267 122.625 173.728C122.389 173.269 122.035 172.881 121.601 172.601C121.064 172.278 120.473 172.055 119.857 171.944C118.977 171.77 118.085 171.666 117.189 171.634L116.974 171.623L116.528 171.604C116.452 171.601 116.375 171.598 116.297 171.595L115.82 171.58L115.322 171.568L114.803 171.559C114.714 171.558 114.625 171.557 114.535 171.556L113.985 171.552C113.891 171.551 113.797 171.551 113.702 171.55L103.975 171.55V180.471H94.6242V148.352H119.526C121.543 148.319 123.559 148.459 125.551 148.769L125.978 148.838C127.415 149.058 128.78 149.615 129.96 150.463C130.936 151.23 131.643 152.287 131.979 153.482C132.384 154.996 132.571 156.559 132.537 158.125V159.252C132.55 160.363 132.451 161.471 132.242 162.562C132.075 163.427 131.749 164.255 131.282 165.003C130.843 165.685 130.26 166.262 129.574 166.695C128.779 167.179 127.908 167.522 126.997 167.711V167.894C127.942 168.033 128.869 168.269 129.765 168.599C130.443 168.847 131.034 169.287 131.466 169.865C131.915 170.524 132.204 171.278 132.31 172.068C132.478 173.219 132.554 174.381 132.537 175.544V180.455L132.545 180.471ZM173.56 180.471H138.674V148.352H173.01V155.453H148.021V160.913H171.688V167.619H148.021V173.151H173.56V180.471ZM205.101 168.03L198.558 155.146H198.327L191.831 168.03H205.101ZM221.62 180.495H211.441L208.498 174.732H188.478L185.583 180.495H175.479L192.719 148.396H204.304L221.62 180.495ZM256 180.495H225.08V148.396H234.519V173.043H256V180.495Z" fill="black"/>
<path d="M128.001 4.88717e-07C145.225 -0.00211111 161.744 6.83856 173.924 19.0169C186.104 31.1953 192.946 47.7136 192.946 64.9374C192.948 100.804 163.875 129.881 128.009 129.883C92.1427 129.885 63.0657 100.812 63.0635 64.9454C63.0613 29.4379 91.5562 0.584421 126.927 0.00876714L128.001 4.88717e-07ZM151.854 7.3379C128.557 -2.31167 101.741 3.02302 83.911 20.8544C66.0808 38.6857 60.7479 65.502 70.3989 88.7985C80.05 112.095 102.784 127.284 128.001 127.282C162.431 127.28 190.342 99.368 190.342 64.9374C190.342 39.7209 175.151 16.9875 151.854 7.3379ZM122.111 25.6389C116.675 28.7372 113.616 33.7949 113.616 38.0401C113.616 43.1708 115.952 43.9765 117.624 43.6324L117.825 43.5848C117.858 43.5759 117.891 43.5667 117.923 43.557L118.112 43.4945C118.142 43.4834 118.173 43.4719 118.203 43.4601L118.377 43.3857C118.405 43.3728 118.432 43.3596 118.459 43.3461L118.616 43.2627L118.758 43.175L118.887 43.0842C118.907 43.0689 118.926 43.0535 118.945 43.0381V82.4322C119.151 82.9272 119.418 83.3941 119.741 83.8221C120.846 85.3497 122.623 86.2465 124.508 86.2275C126.204 86.2275 128.107 85.4307 129.759 84.4933L130.223 84.2223L130.672 83.9469L131.103 83.6707L131.512 83.3971L131.899 83.1294L132.259 82.8711L132.895 82.3961L133.4 81.9994L133.756 81.708L133.967 81.5282V49.629C133.967 46.3833 131.521 42.4606 129.072 41.1225L129.41 41.0774L129.806 41.0419L130.187 41.021L130.631 41.0115C130.684 41.0113 130.738 41.0114 130.792 41.0119L131.132 41.0194C131.19 41.0214 131.25 41.0239 131.31 41.0269L131.681 41.0505C131.871 41.0653 132.068 41.0851 132.27 41.1106L132.682 41.1697C134.007 41.3835 135.519 41.857 136.893 42.8389L137.109 42.9982C137.766 42.1933 138.465 41.4237 139.203 40.6924C144.921 35.0751 150.414 32.2819 155.394 30.7218L156.138 30.4968C156.261 30.4608 156.384 30.4255 156.506 30.3909L157.238 30.1915C157.48 30.1276 157.721 30.0664 157.961 30.0075L158.675 29.8379L159.381 29.6814L160.078 29.5369L161.107 29.3398L161.445 29.2788L161.028 29.6247L160.429 30.1508L160.05 30.4988L159.624 30.9016L159.158 31.3577L158.656 31.8657L158.305 32.2325L157.942 32.6213L157.57 33.0316L157.189 33.4631L156.802 33.9153L156.41 34.3877L156.014 34.88C155.948 34.9637 155.882 35.0482 155.816 35.1335L155.418 35.6548C155.154 36.0087 154.889 36.3751 154.628 36.7534L154.238 37.3299C154.109 37.5249 153.981 37.7229 153.854 37.9238L153.477 38.5348C151.428 41.9417 149.789 46.1045 149.789 50.7042L149.811 57.0079L150.024 82.1017C152.598 84.5742 155.907 83.4606 159.386 80.8978L159.851 80.5476C159.929 80.4879 160.006 80.4275 160.084 80.3665L160.551 79.9927C160.629 79.9292 160.707 79.8651 160.786 79.8004L161.255 79.4055C161.333 79.3386 161.411 79.2712 161.489 79.2032L161.96 78.7898L162.43 78.3653L163.136 77.7105L163.841 77.0373L164.534 76.3602L165.223 75.6725L165.681 75.21L166.591 74.2802L166.515 74.6323L166.428 75.0061L166.277 75.6056L166.163 76.0299L166.036 76.473L165.896 76.9339L165.744 77.412L165.578 77.9062L165.399 78.416L165.206 78.9403L164.999 79.4784L164.776 80.0295L164.539 80.5926C164.498 80.6875 164.456 80.7828 164.414 80.8785L164.153 81.4583L163.876 82.0481L163.582 82.6472C163.532 82.7477 163.481 82.8487 163.429 82.9499L163.11 83.5612C163.055 83.6637 163 83.7665 162.943 83.8696L162.598 84.4913C159.344 90.2188 153.804 96.6903 144.612 101.034L138.24 93.8658L127.487 104.682C115.077 104.515 103.458 98.5554 96.0818 88.5731C97.2257 88.9289 98.4071 89.1508 99.6022 89.2342C101.362 89.2661 103.27 88.6209 103.27 85.65V56.4787C103.323 54.9565 102.652 53.4992 101.459 52.5512C100.267 51.6032 98.6958 51.277 97.2247 51.672C94.774 52.2327 92.5646 55.5298 90.9528 58.7331L90.6577 59.3319L90.3771 59.9244L90.1116 60.5064L89.8617 61.0737L89.6278 61.6223L89.4106 62.1479L89.2105 62.6465L88.8638 63.5459L88.5919 64.2872L88.2643 65.2401C88.1522 53.623 93.1567 42.5449 101.948 34.9498C108.455 29.435 114.831 27.0852 120.014 26.0165L120.729 25.8755C120.847 25.8533 120.964 25.8318 121.081 25.8109L121.772 25.6927C121.886 25.6742 121.999 25.6562 122.111 25.6389Z" fill="black"/>
</g>
<defs>
<clipPath id="clip0_1_12868">
<rect width="256" height="210" fill="white"/>
</clipPath>
</defs>
</svg>
