<svg width="512" height="153" viewBox="0 0 512 153" fill="none" xmlns="http://www.w3.org/2000/svg">
<g clip-path="url(#clip0_1_12885)">
<path d="M0 133.755C25.3482 159.103 66.4457 159.103 91.7939 133.755C117.142 108.407 117.142 67.3091 91.7939 41.9609L80.3194 53.435C99.3307 72.4463 99.3307 103.269 80.3194 122.28C61.3085 141.292 30.4853 141.292 11.4741 122.28L0 133.755Z" fill="#00C98D"/>
<path d="M22.9485 110.803C35.6225 123.477 56.1711 123.477 68.8453 110.803C81.5192 98.1291 81.5192 77.5802 68.8453 64.9062L57.3712 76.3804C63.7082 82.7173 63.7082 92.9916 57.3712 99.3289C51.0339 105.666 40.7596 105.666 34.4227 99.3289L22.9485 110.803Z" fill="#00C98D"/>
<path d="M114.742 19.011C89.3936 -6.33701 48.2962 -6.33701 22.9482 19.011C-2.40004 44.3592 -2.40004 85.4567 22.9482 110.805L34.4221 99.3307C15.4114 80.3195 15.4114 49.4963 34.4221 30.4855C53.4333 11.4742 84.2565 11.4742 103.267 30.4855L114.742 19.011Z" fill="#00C98D"/>
<path d="M91.7936 41.9586C79.1197 29.2846 58.5705 29.2846 45.8966 41.9586C33.2223 54.6328 33.2223 75.1814 45.8966 87.8553L57.3707 76.3812C51.0337 70.0443 51.0337 59.77 57.3707 53.4327C63.7076 47.0957 73.9819 47.0957 80.3192 53.4327L91.7936 41.9586Z" fill="#00C98D"/>
<path d="M114.742 19.011C89.3936 -6.33701 48.2962 -6.33701 22.9482 19.011C-2.40004 44.3592 -2.40004 85.4567 22.9482 110.805L34.4221 99.3307C15.4114 80.3195 15.4114 49.4963 34.4221 30.4855C53.4333 11.4742 84.2565 11.4742 103.267 30.4855L114.742 19.011Z" fill="white" fill-opacity="0.4"/>
<path d="M91.7936 41.9586C79.1197 29.2846 58.5705 29.2846 45.8966 41.9586C33.2223 54.6328 33.2223 75.1814 45.8966 87.8553L57.3707 76.3812C51.0337 70.0443 51.0337 59.77 57.3707 53.4327C63.7076 47.0957 73.9819 47.0957 80.3192 53.4327L91.7936 41.9586Z" fill="white" fill-opacity="0.4"/>
<path d="M190.729 85.4619C190.729 93.5523 184.955 97.563 179.423 97.563C173.407 97.563 169.397 93.3102 169.397 86.5682V54.6906H156.88V88.5044C156.88 101.262 164.141 108.489 174.583 108.489C182.535 108.489 188.136 104.305 190.556 98.3581H191.109V107.797H203.245V54.6906H190.729V85.4619ZM214.168 127.712H226.684V99.4301H227.203C229.174 103.302 233.288 108.73 242.415 108.73C254.932 108.73 264.301 98.8076 264.301 81.313C264.301 63.6106 254.655 53.999 242.381 53.999C233.011 53.999 229.104 59.6347 227.203 63.4724H226.477V54.6906H214.168V127.712ZM226.442 81.2438C226.442 70.9407 230.868 64.2678 238.923 64.2678C247.256 64.2678 251.543 71.3554 251.543 81.2438C251.543 91.2014 247.187 98.462 238.923 98.462C230.937 98.462 226.442 91.547 226.442 81.2438ZM315.046 68.7276C313.317 59.7385 306.125 53.999 293.678 53.999C280.886 53.999 272.173 60.2915 272.208 70.1108C272.173 77.8553 276.945 82.9727 287.144 85.0815L296.202 86.983C301.077 88.055 303.359 90.0256 303.359 93.0337C303.359 96.664 299.418 99.3954 293.471 99.3954C287.732 99.3954 283.998 96.9061 282.926 92.1347L270.721 93.3102C272.277 103.06 280.471 108.834 293.506 108.834C306.782 108.834 316.152 101.954 316.187 91.8926C316.152 84.3208 311.277 79.688 301.25 77.5097L292.192 75.5735C286.798 74.3636 284.655 72.4965 284.689 69.4192C284.655 65.8237 288.631 63.3341 293.851 63.3341C299.625 63.3341 302.668 66.4805 303.636 69.9726L315.046 68.7276ZM351.077 54.6906H340.604V41.967H328.087V54.6906H320.549V64.3713H328.087V93.898C328.018 103.89 335.278 108.8 344.684 108.523C348.244 108.42 350.697 107.728 352.047 107.278L349.938 97.4939C349.247 97.6669 347.828 97.9778 346.274 97.9778C343.126 97.9778 340.604 96.8714 340.604 91.8235V64.3713H351.077V54.6906ZM374.882 108.869C383.213 108.869 388.191 104.962 390.473 100.502H390.888V107.797H402.922V72.2544C402.922 58.2171 391.476 53.999 381.347 53.999C370.179 53.999 361.605 58.9778 358.837 68.6585L370.523 70.3182C371.77 66.6879 375.294 63.5762 381.415 63.5762C387.224 63.5762 390.405 66.5496 390.405 71.7702V71.9779C390.405 75.5735 386.637 75.7465 377.267 76.749C366.963 77.8553 357.11 80.9326 357.11 92.8955C357.11 103.337 364.75 108.869 374.882 108.869ZM378.131 99.6719C372.909 99.6719 369.177 97.2865 369.177 92.6881C369.177 87.882 373.36 85.8766 378.961 85.0815C382.246 84.632 388.814 83.8022 390.44 82.4884V88.7466C390.44 94.6587 385.666 99.6719 378.131 99.6719ZM455.533 68.7276C453.804 59.7385 446.612 53.999 434.166 53.999C421.372 53.999 412.658 60.2915 412.694 70.1108C412.658 77.8553 417.432 82.9727 427.629 85.0815L436.691 86.983C441.565 88.055 443.847 90.0256 443.847 93.0337C443.847 96.664 439.903 99.3954 433.958 99.3954C428.217 99.3954 424.485 96.9061 423.414 92.1347L411.208 93.3102C412.762 103.06 420.957 108.834 433.994 108.834C447.267 108.834 456.64 101.954 456.672 91.8926C456.64 84.3208 451.762 79.688 441.737 77.5097L432.679 75.5735C427.285 74.3636 425.14 72.4965 425.176 69.4192C425.14 65.8237 429.116 63.3341 434.338 63.3341C440.111 63.3341 443.155 66.4805 444.123 69.9726L455.533 68.7276ZM477.563 76.6798C477.563 69.0045 482.334 64.5787 489.042 64.5787C495.611 64.5787 499.483 68.7624 499.483 75.9194V107.797H512V73.9832C512 61.1561 504.737 53.999 493.709 53.999C485.55 53.999 480.364 57.6985 477.907 63.7145H477.287V36.9883H465.046V107.797H477.563V76.6798Z" fill="#050505"/>
</g>
<defs>
<clipPath id="clip0_1_12885">
<rect width="512" height="153" fill="white"/>
</clipPath>
</defs>
</svg>
