<svg width="256" height="341" viewBox="0 0 256 341" fill="none" xmlns="http://www.w3.org/2000/svg">
<g clip-path="url(#clip0_1_12877)">
<path d="M0 298.418C56.5543 354.972 148.247 354.972 204.801 298.418C261.355 241.864 261.355 150.171 204.801 93.6172L179.2 119.217C221.616 161.633 221.616 230.402 179.2 272.818C136.785 315.233 68.0157 315.233 25.5999 272.818L0 298.418Z" fill="#00C98D"/>
<path d="M51.2004 247.217C79.4774 275.493 125.323 275.493 153.601 247.217C181.877 218.94 181.877 173.093 153.601 144.816L128.001 170.416C142.139 184.555 142.139 207.478 128.001 221.617C113.862 235.755 90.9388 235.755 76.8004 221.617L51.2004 247.217Z" fill="#00C98D"/>
<path d="M256 42.4154C199.446 -14.1385 107.753 -14.1385 51.1994 42.4154C-5.35488 98.9697 -5.35488 190.662 51.1994 247.216L76.7989 221.617C34.3841 179.201 34.3841 110.431 76.7989 68.016C119.215 25.6001 187.984 25.6001 230.399 68.016L256 42.4154Z" fill="#00C98D"/>
<path d="M204.8 93.6177C176.524 65.341 130.676 65.341 102.4 93.6177C74.122 121.895 74.122 167.741 102.4 196.018L127.999 170.418C113.861 156.28 113.861 133.357 127.999 119.218C142.138 105.079 165.061 105.079 179.2 119.218L204.8 93.6177Z" fill="#00C98D"/>
<path d="M256 42.4154C199.446 -14.1385 107.753 -14.1385 51.1994 42.4154C-5.35488 98.9697 -5.35488 190.662 51.1994 247.216L76.7989 221.617C34.3841 179.201 34.3841 110.431 76.7989 68.016C119.215 25.6001 187.984 25.6001 230.399 68.016L256 42.4154Z" fill="white" fill-opacity="0.4"/>
<path d="M204.8 93.6177C176.524 65.341 130.676 65.341 102.4 93.6177C74.122 121.895 74.122 167.741 102.4 196.018L127.999 170.418C113.861 156.28 113.861 133.357 127.999 119.218C142.138 105.079 165.061 105.079 179.2 119.218L204.8 93.6177Z" fill="white" fill-opacity="0.4"/>
</g>
<defs>
<clipPath id="clip0_1_12877">
<rect width="256" height="341" fill="white"/>
</clipPath>
</defs>
</svg>
