<svg width="512" height="153" viewBox="0 0 512 153" fill="none" xmlns="http://www.w3.org/2000/svg">
<g clip-path="url(#clip0_1_12894)">
<path d="M140.107 96.6246C131.786 96.6246 123.99 93.1013 116.906 87.3666L118.63 79.2705L118.705 78.9707C120.241 70.3499 125.114 55.882 140.107 55.882C151.351 55.882 160.497 65.0275 160.497 76.272C160.459 87.479 151.314 96.6246 140.107 96.6246ZM140.107 35.2295C120.954 35.2295 106.111 47.6735 100.076 68.1385C90.8557 54.3077 83.8841 37.7033 79.7986 23.7227H59.1837V77.359C59.1837 87.9288 50.5629 96.5496 39.9931 96.5496C29.4232 96.5496 20.8024 87.9288 20.8024 77.359V23.7227H0.187491V77.359C0.112527 99.3232 17.9913 117.352 39.9556 117.352C61.9198 117.352 79.7986 99.3232 79.7986 77.359V68.3634C83.8092 76.7218 88.7193 85.1552 94.6789 92.6515L82.0475 152.023H103.15L112.295 108.956C120.316 114.091 129.537 117.314 140.107 117.314C162.708 117.314 181.112 98.7985 181.112 76.197C181.112 53.6331 162.708 35.2295 140.107 35.2295Z" fill="#6FDA44"/>
<path d="M244.043 37.5552L257.349 91.1915L272.005 37.5552H289.471L266.945 115.067H249.478L235.648 61.0937L221.854 115.03H204.388L181.861 37.5177H199.328L213.983 91.154L227.289 37.5177H244.043V37.5552ZM331.263 35.2313C308.587 35.2313 290.221 53.6348 290.221 76.2738C290.221 98.9502 308.624 117.316 331.263 117.316C353.94 117.316 372.343 98.9502 372.343 76.2738C372.343 53.5973 353.94 35.2313 331.263 35.2313ZM331.263 100.449C317.92 100.449 307.125 89.6547 307.125 76.3112C307.125 62.9678 317.957 52.173 331.263 52.173C344.607 52.173 355.402 62.9678 355.402 76.3112C355.402 89.6172 344.607 100.449 331.263 100.449ZM422.231 54.9092C410.5 54.9092 401.017 64.4296 401.017 76.1238V115.03H383.438V37.5552H401.017V49.4744C401.017 49.4744 408.513 37.5177 423.918 37.5177H429.315V54.9092H422.231ZM481.228 73.2752C493.709 66.2287 502.18 52.8477 502.18 37.5177H484.601C484.601 50.4489 474.106 60.9438 461.175 60.9438H458.814V0.148438H441.235V115.03H458.814V78.5227H460.913C462.637 78.5227 464.886 79.6471 465.898 81.0339L490.86 115.03H511.925L481.228 73.2752Z" fill="black"/>
</g>
<defs>
<clipPath id="clip0_1_12894">
<rect width="512" height="153" fill="white"/>
</clipPath>
</defs>
</svg>
