<svg width="512" height="128" viewBox="0 0 512 128" fill="none" xmlns="http://www.w3.org/2000/svg">
<g clip-path="url(#clip0_1_12907)">
<path d="M80.96 0L102.4 14.08V84.48C102.08 108.48 81.6 127.04 64.96 127.04C81.28 117.12 85.44 102.72 85.44 88.64V22.4L80.96 19.52L76.8 22.4V89.6L76.7948 90.2324C76.454 111.064 59.3088 128 38.4 128C17.28 128 0 110.72 0 89.6V85.44C0 81.28 4.16 76.8 4.16 72.64C4.16 69.76 2.24 66.56 0.96 63.68C0.32 62.72 0 61.12 0 59.84C0 55.04 3.84 51.2 8.32 51.2C13.12 51.2 16.96 55.04 16.96 59.84C16.96 61.12 16.64 62.4 16 63.68C14.72 66.56 12.8 69.76 12.8 72.64C12.8 76.8 16.96 81.28 16.96 85.44V89.6L16.9637 89.9991C17.1382 99.4212 23.48 107.24 32 110.08C27.84 104.32 25.6 97.28 25.6 89.6V85.44C25.6 81.28 29.76 76.8 29.76 72.64C29.76 69.76 27.84 66.56 26.56 63.68C25.92 62.72 25.6 61.12 25.6 59.84C25.6 55.04 29.12 51.2 33.92 51.2C38.72 51.2 42.56 55.04 42.56 59.84C42.56 61.12 42.24 62.4 41.6 63.68C40.32 66.56 38.4 69.76 38.4 72.64C38.4 76.8 42.56 81.28 42.56 85.44V89.6C42.56 96.32 45.44 102.72 50.56 106.88C56 103.04 59.52 96.64 59.52 89.6V14.08L80.96 0ZM8.64 28.16C13.4117 28.16 17.28 32.0283 17.28 36.8C17.28 41.5717 13.4117 45.44 8.64 45.44C3.86826 45.44 0 41.5717 0 36.8C0 32.0283 3.86826 28.16 8.64 28.16ZM34.24 27.84C39.0117 27.84 42.88 31.7083 42.88 36.48C42.88 41.2517 39.0117 45.12 34.24 45.12C29.4683 45.12 25.6 41.2517 25.6 36.48C25.6 31.7083 29.4683 27.84 34.24 27.84ZM8.64 5.12C13.4117 5.12 17.28 8.98826 17.28 13.76C17.28 18.5317 13.4117 22.4 8.64 22.4C3.86826 22.4 0 18.5317 0 13.76C0 8.98826 3.86826 5.12 8.64 5.12ZM34.24 4.8C39.0117 4.8 42.88 8.66826 42.88 13.44C42.88 18.2117 39.0117 22.08 34.24 22.08C29.4683 22.08 25.6 18.2117 25.6 13.44C25.6 8.66826 29.4683 4.8 34.24 4.8Z" fill="#FF6720"/>
<path d="M297.28 47.9984H287.36V60.4784H297.28C301.44 60.4784 304 57.9184 304 54.0784C304 50.2384 301.12 47.9984 297.28 47.9984ZM383.36 47.0384C379.2 47.0384 376.32 48.9584 375.04 53.1184C374.4 54.7184 374.08 56.9584 374.08 63.9984C374.08 71.0384 374.4 73.2784 375.04 74.8784C376.32 78.7184 379.2 80.9584 383.36 80.9584C387.52 80.9584 390.4 79.0384 391.68 74.8784C392.32 73.2784 392.64 71.0384 392.64 63.9984C392.64 56.9584 392.32 54.7184 391.68 53.1184C390.72 48.9584 387.84 47.0384 383.36 47.0384ZM510.72 39.0384C511.36 39.0384 512 39.6784 512 40.3184V46.3984C512 47.0384 511.36 47.6784 510.72 47.6784H488.96V59.1984H507.2C507.84 59.1984 508.48 59.8384 508.48 60.4784V66.5584C508.48 67.1984 507.84 67.8384 507.2 67.8384H488.96V79.6784H510.72C511.36 79.6784 512 80.3184 512 80.9584V87.0384C512 87.6784 511.36 88.3184 510.72 88.3184H480.64C480 88.3184 479.36 87.6784 479.36 87.0384V40.3184C479.36 39.6784 480 39.0384 480.64 39.0384H510.72ZM421.76 39.0384C422.4 39.0384 423.04 39.6784 423.04 40.3184V87.3584C423.04 87.9984 422.4 88.6384 421.76 88.6384H414.72C414.08 88.6384 413.44 87.9984 413.44 87.3584V40.3184C413.44 39.6784 414.08 39.0384 414.72 39.0384H421.76ZM327.36 39.0384C328 39.0384 328.64 39.3584 328.96 40.3184L339.2 73.2784L349.12 40.3184C349.44 39.6784 349.76 39.3584 350.72 39.3584H357.44C357.76 39.3584 358.08 39.6784 358.4 39.6784C358.72 39.9984 358.72 40.3184 358.4 40.6384L343.04 87.6784C342.72 88.3184 342.4 88.6384 341.76 88.6384H336C335.36 88.6384 334.72 88.3184 334.72 87.6784L319.68 40.6384C319.68 40.3184 319.68 39.9984 319.68 39.6784C320 39.3584 320.32 39.3584 320.64 39.3584L327.36 39.0384ZM297.28 39.0384C306.56 39.0384 313.28 45.4384 313.28 54.0784C313.28 60.1584 310.08 65.2784 304.32 67.8384L314.24 87.0384C314.56 87.3584 314.56 87.9984 314.24 88.3184C313.92 88.6384 313.6 88.9584 313.28 88.9584H305.6C304.96 88.9584 304.32 88.6384 304 87.9984L295.04 69.4384H287.36V87.6784C287.36 88.3184 286.72 88.9584 286.08 88.9584H279.04C278.4 88.9584 277.76 88.3184 277.76 87.6784V40.3184C277.76 39.6784 278.4 39.0384 279.04 39.0384H297.28ZM265.6 39.0384C266.24 39.0384 266.88 39.6784 266.88 40.3184V46.3984C266.88 47.0384 266.24 47.6784 265.6 47.6784H243.84V59.1984H262.08C262.72 59.1984 263.36 59.8384 263.36 60.4784V66.5584C263.36 67.1984 262.72 67.8384 262.08 67.8384H243.84V79.6784H265.6C266.24 79.6784 266.88 80.3184 266.88 80.9584V87.0384C266.88 87.6784 266.24 88.3184 265.6 88.3184H235.52C234.88 88.3184 234.24 87.6784 234.24 87.0384V40.3184C234.24 39.6784 234.88 39.0384 235.52 39.0384H265.6ZM452.8 38.3984C460.48 38.3984 466.56 42.2384 469.44 49.2784C469.76 49.9184 469.44 50.5584 468.8 50.8784L462.72 53.7584C462.4 54.0784 462.08 54.0784 461.76 53.7584C461.44 53.7584 461.12 53.4384 461.12 53.1184C459.2 49.2784 456.64 47.3584 452.8 47.3584C448.64 47.3584 446.08 49.2784 444.8 53.4384C444.16 55.3584 443.84 57.2784 443.84 64.3184V65.2784C443.84 71.6784 444.16 73.5984 444.8 75.1984C446.08 79.3584 448.96 81.2784 452.8 81.2784C456.64 81.2784 459.52 79.3584 461.12 75.1984C461.12 74.8784 461.44 74.5584 461.76 74.5584C462.08 74.5584 462.4 74.5584 462.72 74.5584L468.8 77.4384C469.44 77.7584 469.76 78.3984 469.44 79.0384C466.56 85.7584 460.48 89.9184 452.8 89.9184C444.16 89.9184 438.08 85.4384 435.52 77.7584C434.56 74.5584 434.24 71.9984 434.24 64.3184V63.3584C434.24 56.6384 434.56 54.0784 435.52 50.8784C438.08 42.8784 444.16 38.3984 452.8 38.3984ZM205.44 38.3984C211.2 38.3984 217.28 40.3184 221.44 43.5184C222.08 44.1584 222.08 44.4784 221.76 45.4384L218.24 50.5584C217.6 51.1984 216.96 51.1984 216.64 50.8784C212.8 48.3184 209.28 47.0384 205.44 47.0384C201.28 47.0384 198.4 49.2784 198.4 52.7984C198.4 55.0384 199.36 57.5984 206.72 58.8784L209.28 59.1984C219.2 60.4784 224 65.5984 224 73.9184C224 83.5184 216.96 89.5984 205.44 89.5984C198.72 89.5984 191.68 87.0384 187.52 82.8784C186.88 82.2384 186.88 81.5984 187.2 80.9584L191.68 75.8384C192 75.5184 192.32 75.5184 192.64 75.5184C192.96 75.5184 193.28 75.5184 193.6 75.8384C196.48 78.0784 200.96 80.9584 206.4 80.9584C211.52 80.9584 214.72 78.3984 214.72 74.5584C214.72 71.9984 213.76 69.4384 206.4 68.4784L203.84 68.1584C193.92 66.8784 188.8 61.7584 188.8 53.7584C188.48 44.4784 195.52 38.3984 205.44 38.3984ZM149.12 39.0384C149.76 39.0384 150.4 39.6784 150.4 40.3184V71.0384C150.4 77.1184 153.6 80.9584 159.04 80.9584C164.48 80.9584 168 77.1184 168 71.0384V40.3184C168 39.6784 168.64 39.0384 169.28 39.0384H176C176.64 39.0384 177.28 39.6784 177.28 40.3184V71.0384C177.28 81.9184 169.92 89.2784 159.04 89.2784C148.16 89.2784 140.8 81.9184 140.8 71.0384V40.3184C140.8 39.6784 141.44 39.0384 142.08 39.0384H149.12ZM383.36 38.3984C392.32 38.3984 398.4 42.5584 400.96 50.5584C401.92 53.7584 402.24 56.3184 402.24 63.9984C402.24 71.6784 401.92 74.2384 400.96 77.4384C398.4 85.1184 392.32 89.5984 383.36 89.5984C374.72 89.5984 368.32 85.4384 365.76 77.4384C364.8 74.2384 364.48 71.6784 364.48 63.9984V63.0384C364.48 55.9984 364.8 53.4384 365.76 50.5584C368.64 42.5584 374.72 38.3984 383.36 38.3984Z" fill="#464653"/>
</g>
<defs>
<clipPath id="clip0_1_12907">
<rect width="512" height="128" fill="white"/>
</clipPath>
</defs>
</svg>
