<svg width="512" height="161" viewBox="0 0 512 161" fill="none" xmlns="http://www.w3.org/2000/svg">
<g clip-path="url(#clip0_1_12911)">
<path d="M0.121826 54.6133L0.122167 122.27C0.122167 122.27 -0.365692 160.793 35.5965 159.939C41.2043 159.695 61.9279 160.67 67.0479 144.579C67.0479 144.213 67.0479 157.013 67.0479 157.013H91.9165L91.9618 54.6133H67.0932L67.0479 117.882C67.0479 117.882 67.7793 140.556 46.5679 139.459C25.3565 138.362 25.7222 119.71 25.7222 119.71L25.6 54.6133H0.121826Z" fill="#AEC84D"/>
<path d="M132.389 159.696H142.629L176.031 77.0447L209.432 159.453H219.672L261.12 6.82757L236.008 0.488281L210.895 94.8426L181.151 20.4811H170.666L141.897 94.1111L116.054 0.488281L91.1851 6.82757L132.389 159.696Z" fill="#141215"/>
<path d="M260.389 125.076C260.389 125.076 266.728 144.094 277.212 150.921C287.695 157.747 305.493 160.428 314.027 160.185C322.56 159.941 365.959 159.21 366.446 118.981C370.103 98.5012 352.305 83.6283 347.429 80.7026C342.552 77.7769 326.704 67.5369 314.027 63.8798C301.349 60.2226 288.914 52.1769 287.939 45.8384C286.964 39.4998 287.939 20.9698 315.246 20.7255C334.263 22.6769 334.994 30.7227 337.92 35.1112L343.04 45.5941L364.007 35.8427C364.007 35.8427 355.717 16.0941 353.767 14.3869C351.817 12.6798 344.015 0.489793 313.295 0.734091C282.575 0.976925 264.534 13.6555 263.314 35.5984C262.095 57.5412 266.727 67.7812 289.158 81.4341C303.055 88.9927 317.684 90.6991 332.8 102.158C343.284 110.692 341.09 120.445 340.846 124.589C340.602 128.733 335.482 140.436 314.27 139.461C293.059 138.486 288.914 129.953 287.452 127.515C285.989 125.076 280.869 115.081 280.869 115.081L260.389 125.076Z" fill="#141215"/>
<path d="M512 3.17188H486.156V157.747H512V3.17188Z" fill="#141215"/>
<path d="M431.786 75.3368V95.5725H451.779V136.533C451.779 136.533 445.683 140.19 432.274 139.703C418.864 139.215 397.654 140.921 395.946 79.969C394.239 19.0168 423.254 20.9668 426.666 20.9668C430.079 20.9668 447.146 21.2111 455.924 45.3483C456.168 45.5918 476.891 35.5954 476.891 35.5954C476.891 35.5954 467.87 -1.2196 427.886 0.731122C387.901 2.68111 372.542 23.4047 370.347 75.3368C368.153 127.268 386.438 161.158 430.08 159.451C473.722 157.744 476.891 154.087 476.891 154.087L476.831 75.3975L431.786 75.3368Z" fill="#141215"/>
<path d="M347.672 37.0593C352.385 37.0593 356.206 33.2387 356.206 28.5258C356.206 23.8128 352.385 19.9922 347.672 19.9922C342.959 19.9922 339.139 23.8128 339.139 28.5258C339.139 33.2387 342.959 37.0593 347.672 37.0593Z" fill="#AEC84D"/>
<path d="M347.672 31.0887C349.086 31.0887 350.232 29.9426 350.232 28.5287C350.232 27.1149 349.086 25.9688 347.672 25.9688C346.258 25.9688 345.112 27.1149 345.112 28.5287C345.112 29.9426 346.258 31.0887 347.672 31.0887Z" fill="#252326"/>
<path d="M25.7076 112.027L25.6 54.6133H0.122192V121.086C7.416 117.04 16.1112 113.921 25.7076 112.027Z" fill="black"/>
<path d="M91.9618 54.6133H67.0932L67.0515 111.682C76.2719 113.33 84.7089 116.102 91.9325 119.741L91.9618 54.6133Z" fill="black"/>
<path opacity="0.1" d="M0.122167 122.272C0.122167 122.272 -0.365692 160.795 35.5965 159.941C41.2043 159.697 61.9279 160.672 67.0479 144.581C67.0479 144.215 67.0479 157.015 67.0479 157.015H91.9165L91.9333 119.743C84.7097 116.104 76.2727 113.332 67.0523 111.684L67.0479 117.884C67.0479 117.884 67.7793 140.558 46.5679 139.461C25.3565 138.364 25.7222 119.712 25.7222 119.712L25.7075 112.03C16.1112 113.923 7.41597 117.042 0.122167 121.088V122.272Z" fill="white"/>
<path d="M217.154 71.3281L210.895 94.8436L200.731 69.4352C183.989 67.3009 168.496 64.6634 154.599 61.6031L141.897 94.1121L131.272 55.6236C119.278 52.0425 109.12 48.0811 101.156 43.8242L132.389 159.697H142.629L176.031 77.0457L209.433 159.454H219.673L243.004 73.5407C234.15 72.93 225.521 72.1898 217.154 71.3281Z" fill="black"/>
<path opacity="0.1" d="M261.12 6.82757L236.008 0.488281L217.155 71.3271C225.522 72.1888 234.151 72.929 243.004 73.5397L261.12 6.82757Z" fill="white"/>
<path opacity="0.1" d="M116.054 0.488281L91.1851 6.82757L101.157 43.8232C109.121 48.0801 119.278 52.0416 131.273 55.6226L116.054 0.488281Z" fill="white"/>
<path opacity="0.1" d="M181.151 20.4805H170.667L154.6 61.6014C168.497 64.6624 183.99 67.2992 200.732 69.4335L181.151 20.4805Z" fill="white"/>
<path opacity="0.1" d="M313.295 0.734091C282.575 0.976925 264.534 13.6555 263.314 35.5984C262.284 54.1408 265.433 64.326 279.969 75.2762C287.756 75.4773 295.66 75.5826 303.664 75.5826C315.294 75.5826 326.715 75.3639 337.863 74.9448C330.939 70.9322 321.877 66.1443 314.026 63.8798C301.349 60.2226 288.914 52.1769 287.939 45.8384C286.964 39.4998 287.939 20.9698 315.246 20.7255C334.263 22.6769 334.994 30.7227 337.92 35.1112L343.04 45.5941L364.007 35.8427C364.007 35.8427 355.717 16.0941 353.767 14.3869C351.817 12.6798 344.015 0.489793 313.295 0.734091Z" fill="white"/>
<path opacity="0.1" d="M427.886 0.731122C388.484 2.65258 372.994 22.8071 370.453 73.0914C379.191 72.4214 387.697 71.6234 395.934 70.7069C397.284 19.2311 423.438 20.9668 426.668 20.9668C430.081 20.9668 447.148 21.2111 455.925 45.3483C456.168 45.5918 476.892 35.5954 476.892 35.5954C476.892 35.5954 467.87 -1.2196 427.886 0.731122Z" fill="white"/>
<path opacity="0.1" d="M486.156 52.3648C496.704 48.6836 505.424 44.6695 512 40.3987V3.17188H486.156V52.3648Z" fill="white"/>
</g>
<defs>
<clipPath id="clip0_1_12911">
<rect width="512" height="161" fill="white"/>
</clipPath>
</defs>
</svg>
