<svg width="256" height="304" viewBox="0 0 256 304" fill="none" xmlns="http://www.w3.org/2000/svg">
<g clip-path="url(#clip0_1_12930)">
<path d="M128 282.329C198.29 282.329 255.271 226.146 255.271 156.84C255.271 87.5347 198.29 31.3516 128 31.3516C57.7101 31.3516 0.729004 87.5347 0.729004 156.84C0.729004 226.146 57.7101 282.329 128 282.329Z" fill="#4285F4"/>
<path opacity="0.2" d="M128 280.306C58.086 280.306 1.29609 224.65 0.729004 155.789V156.761C0.729004 226.027 57.6809 282.25 128 282.25C198.319 282.25 255.271 226.027 255.271 156.761V155.789C254.704 224.65 197.914 280.306 128 280.306Z" fill="#263238"/>
<path opacity="0.2" d="M128 33.3779C197.914 33.3779 254.704 89.0336 255.271 157.894V156.922C255.271 87.6564 198.319 31.4336 128 31.4336C57.6809 31.4336 0.729004 87.5754 0.729004 156.841V157.813C1.29609 89.0336 58.086 33.3779 128 33.3779Z" fill="white"/>
<path d="M97.7822 61.0839V98.5927L128 139.18L158.218 97.5396V61.0839H193.944L228.861 0.648438H27.2202L62.0557 61.0839H97.7822Z" fill="#424242"/>
<path d="M90.086 61.082H62.0557L72.0202 78.3377H90.086V61.082ZM165.914 78.3377H183.98L193.944 61.082H165.914V78.3377Z" fill="#9E9E9E"/>
<path d="M158.218 242.633V217.924L128 176.445L97.7822 217.924V242.633H62.1366L27.1392 303.068H228.861L194.025 242.633H158.218Z" fill="#424242"/>
<path opacity="0.2" d="M158.218 94.4609L128 136.182L97.7822 95.4331V98.5926L128 139.18L158.218 97.5394V94.4609Z" fill="#263238"/>
<path opacity="0.2" d="M27.2202 0.648438H228.78L227.565 2.75477H28.4354L27.2202 0.648438Z" fill="white"/>
<path opacity="0.2" d="M97.7822 221.002L128.081 179.443L158.218 221.002V217.924L128.081 176.445L97.7822 217.843V221.002ZM228.78 302.987H27.2202L28.4354 300.8H227.565L228.78 302.987Z" fill="#263238"/>
<path d="M228.78 302.987L227.565 300.8L203.018 258.187C229.023 239.473 247.494 211.281 253.327 178.795L135.696 59.625L119.899 245.549L175.716 302.987L228.861 303.068L228.78 302.987Z" fill="url(#paint0_linear_1_12930)"/>
<path d="M135.696 59.625L78.9873 173.124H120.142L119.899 245.549L177.337 131.402H135.453L135.696 59.625Z" fill="#E8E8E8"/>
<path d="M135.696 59.625L80.0403 171.098H120.142L119.899 243.524L176.283 131.402H135.453L135.696 59.625Z" fill="white"/>
<path d="M97.7822 61.082H62.0557L72.0202 78.3377H97.7822V61.082ZM158.218 78.3377H183.98L193.944 61.082H158.218V78.3377Z" fill="#9E9E9E"/>
<path opacity="0.3" d="M158.218 76.3154V78.3407H183.98L185.195 76.2344L158.218 76.3154ZM97.7822 76.3154L70.8049 76.2344L72.0201 78.3407H97.7822V76.3154Z" fill="#263238"/>
<path d="M255.271 157.813V156.841C255.271 113.418 232.83 75.0991 198.805 52.5776L228.861 0.648438H27.2201L57.1948 52.5776C23.1695 75.0991 0.729004 113.418 0.729004 156.841V157.813C1.05305 199.048 21.6303 235.585 53.0632 258.269L28.4353 300.8L27.2201 302.988L27.1391 303.069H228.78L228.699 302.988L227.483 300.8L202.937 258.188C234.451 235.585 254.947 199.129 255.271 157.813Z" fill="url(#paint1_radial_1_12930)"/>
</g>
<defs>
<linearGradient id="paint0_linear_1_12930" x1="-3383.9" y1="5143.17" x2="16688.8" y2="11173" gradientUnits="userSpaceOnUse">
<stop stop-color="#231F20" stop-opacity="0.16"/>
<stop offset="1" stop-color="#231F20" stop-opacity="0"/>
</linearGradient>
<radialGradient id="paint1_radial_1_12930" cx="0" cy="0" r="1" gradientUnits="userSpaceOnUse" gradientTransform="translate(2682.25 43.5028) scale(36293.7 36293.7)">
<stop stop-color="white" stop-opacity="0.1"/>
<stop offset="1" stop-color="white" stop-opacity="0"/>
</radialGradient>
<clipPath id="clip0_1_12930">
<rect width="256" height="304" fill="white"/>
</clipPath>
</defs>
</svg>
