<svg width="256" height="214" viewBox="0 0 256 214" fill="none" xmlns="http://www.w3.org/2000/svg">
<g clip-path="url(#clip0_1_12947)">
<path d="M102.183 50.7617V213.058H154.307V50.7617H102.183ZM153.002 211.699H103.596V52.1205H153.002V211.699Z" fill="#424242"/>
<path d="M0.489258 10.2148L23.9152 50.7618H102.183V213.058H154.361V50.7618H232.411L255.837 10.2148H0.489258Z" fill="#424242"/>
<path opacity="0.2" d="M255.022 11.628L255.837 10.2148H0.489258L1.3589 11.628H255.022Z" fill="white"/>
<path d="M45.2756 50.7617H23.915L30.6004 62.3388H40.2208C41.6883 58.3167 43.3189 54.4577 45.2756 50.7617ZM210.507 50.7617C212.409 54.4577 214.094 58.3711 215.507 62.3388H225.726L232.411 50.7617H210.507Z" fill="#AFAFAF"/>
<path d="M127.891 186.264C179.222 186.264 220.834 144.652 220.834 93.3216C220.834 41.9908 179.222 0.378906 127.891 0.378906C76.5606 0.378906 34.9487 41.9908 34.9487 93.3216C34.9487 144.652 76.5606 186.264 127.891 186.264Z" fill="#4285F4"/>
<path opacity="0.3" d="M40.7644 60.9258H29.7852L30.6004 62.3389H40.2208C40.4382 61.8498 40.6013 61.3606 40.7644 60.9258ZM215.018 60.9258C215.181 61.415 215.344 61.8498 215.507 62.3389H225.726L226.541 60.9258H215.018ZM127.891 184.904C76.8 184.904 35.3291 143.65 34.9486 92.6133V93.2655C34.9486 144.574 76.5826 186.208 127.891 186.208C179.2 186.208 220.834 144.574 220.834 93.2655V92.6133C220.454 143.65 178.983 184.904 127.891 184.904Z" fill="#263238"/>
<path opacity="0.2" d="M127.891 1.73805C178.983 1.73805 220.454 42.9916 220.834 94.0285V93.3763C220.834 42.0676 179.2 0.433594 127.891 0.433594C76.5827 0.433594 34.9487 42.0676 34.9487 93.3763V94.0285C35.3292 42.9916 76.8001 1.73805 127.891 1.73805Z" fill="white"/>
<path opacity="0.3" d="M127.891 155.23C161.512 155.23 188.766 127.975 188.766 94.3552C188.766 60.735 161.512 33.4805 127.891 33.4805C94.2711 33.4805 67.0166 60.735 67.0166 94.3552C67.0166 127.975 94.2711 155.23 127.891 155.23Z" fill="#263238"/>
<path d="M220.236 103.919L179.961 63.6435L173.276 67.5026L147.078 41.3047L128.544 89.6784L119.575 128.16L127.674 155.227L154.796 182.349C189.744 171.751 215.997 141.204 220.236 103.919Z" fill="url(#paint0_radial_1_12947)"/>
<path d="M127.674 34.5117V94.8429L154.415 59.1334C152.948 43.8603 142.186 34.5117 127.674 34.5117ZM74.8977 64.4056L127.674 94.8429L110.118 53.9155C96.1495 47.5563 82.1809 51.8501 74.8977 64.4056ZM75.3869 125.063L127.674 94.8429L83.4854 89.6251C70.93 98.5389 68.1036 112.507 75.3869 125.063Z" fill="#E8E8E8"/>
<path d="M127.674 155.228V94.8972L101.041 129.52C102.454 144.793 113.107 155.228 127.674 155.228ZM145.23 135.77C159.198 142.184 173.221 136.857 180.45 124.302L127.728 93.4297L145.23 135.77Z" fill="#D6D6D6"/>
<path d="M179.961 64.6797L127.674 94.8996L171.863 100.117C184.364 91.1493 187.244 77.1807 179.961 64.6797Z" fill="#D6D6D6"/>
<path d="M127.674 93.8117V33.4805C142.186 33.4805 152.839 42.8834 154.307 58.2108L127.674 93.8117ZM127.674 93.8117L75.387 63.5917C82.7245 51.0363 96.204 46.4707 110.118 52.8843L127.674 93.8117Z" fill="white"/>
<path d="M127.674 93.8116L75.3869 124.032C68.1036 111.476 70.9843 97.5076 83.4854 88.5938L127.674 93.8116Z" fill="white"/>
<path d="M127.674 93.8125V154.144C113.162 154.144 102.509 144.741 101.041 129.413L127.674 93.8125ZM127.674 93.8125L179.961 124.032C172.678 136.588 159.198 141.153 145.23 134.74L127.674 93.8125Z" fill="#E8E8E8"/>
<path d="M127.674 93.8098L179.961 63.5898C187.244 76.1453 184.364 90.1138 171.863 99.0276L127.674 93.8098Z" fill="#E8E8E8"/>
<path d="M127.62 113.158C138.726 113.158 147.73 104.155 147.73 93.0479C147.73 81.9412 138.726 72.9375 127.62 72.9375C116.513 72.9375 107.509 81.9412 107.509 93.0479C107.509 104.155 116.513 113.158 127.62 113.158Z" fill="white"/>
<path d="M127.62 113.158C138.726 113.158 147.73 104.155 147.73 93.0479C147.73 81.9412 138.726 72.9375 127.62 72.9375C116.513 72.9375 107.509 81.9412 107.509 93.0479C107.509 104.155 116.513 113.158 127.62 113.158Z" fill="url(#paint1_radial_1_12947)"/>
<path d="M169.471 10.2167C156.97 3.96617 142.838 0.378906 127.891 0.378906C112.944 0.378906 98.8128 3.91181 86.3118 10.2167H0.489258L0.869725 10.9233L1.30454 11.6842L23.9152 50.818L29.7852 60.9819L30.6005 62.395H40.2209C36.7967 72.0698 34.8944 82.5054 34.8944 93.3759C34.8944 135.771 63.3207 171.589 102.128 182.731V213.06H154.252V182.46C192.68 171.046 220.725 135.499 220.725 93.3216C220.725 82.4511 218.877 72.0154 215.399 62.3407H225.617L232.302 50.7636L255.728 10.2167H169.471ZM43.9169 53.4812C43.8625 53.5356 43.8625 53.5899 43.8082 53.6987C43.8082 53.6443 43.8625 53.5899 43.9169 53.4812ZM42.6124 56.3619C42.6124 56.4163 42.558 56.4706 42.558 56.525C42.558 56.4163 42.558 56.4163 42.6124 56.3619ZM211.866 53.4812C211.92 53.5356 211.92 53.5899 211.975 53.6987C211.975 53.6443 211.92 53.5899 211.866 53.4812ZM213.17 56.3619C213.17 56.4163 213.225 56.4706 213.225 56.525C213.225 56.4163 213.225 56.4163 213.17 56.3619Z" fill="url(#paint2_radial_1_12947)"/>
</g>
<defs>
<radialGradient id="paint0_radial_1_12947" cx="0" cy="0" r="1" gradientUnits="userSpaceOnUse" gradientTransform="translate(1402.29 3605.65) scale(9127.41 9127.4)">
<stop stop-color="#231F20" stop-opacity="0.1"/>
<stop offset="1" stop-color="#231F20" stop-opacity="0"/>
</radialGradient>
<radialGradient id="paint1_radial_1_12947" cx="0" cy="0" r="1" gradientUnits="userSpaceOnUse" gradientTransform="translate(2117.46 2081.26) scale(2011.04)">
<stop offset="0.4" stop-color="#231F20" stop-opacity="0"/>
<stop offset="1" stop-color="#231F20" stop-opacity="0.04"/>
</radialGradient>
<radialGradient id="paint2_radial_1_12947" cx="0" cy="0" r="1" gradientUnits="userSpaceOnUse" gradientTransform="translate(132.655 1122.76) scale(21204.2 21204.3)">
<stop stop-color="white" stop-opacity="0.1"/>
<stop offset="1" stop-color="white" stop-opacity="0"/>
</radialGradient>
<clipPath id="clip0_1_12947">
<rect width="256" height="214" fill="white"/>
</clipPath>
</defs>
</svg>
