<svg width="256" height="227" viewBox="0 0 256 227" fill="none" xmlns="http://www.w3.org/2000/svg">
<g clip-path="url(#clip0_1_12968)">
<path d="M214.5 62.5L208.3 75.6H226L226.9 74.1L233.4 62.5H214.3H214.5ZM41.2 62.5H22.5L30 75.6H47.5L41.2 62.5Z" fill="#9E9E9E"/>
<path d="M256 23.2992L232.7 63.9992H216.4L190.3 113.499L128 226.899L65.6 113.499L39.6 63.9992H23.3L0 23.2992H66.9L77.8 44.8992L113.3 109.599L127.8 136.199L141.8 109.599L176.7 44.8992L189 23.1992" fill="#424242"/>
<path d="M67.7 24.7008H0.8L0 23.3008H66.9L67.7 24.7008ZM189.1 23.3008L188.3 24.8008H255.2L256 23.3008H189.1Z" fill="white" fill-opacity="0.2"/>
<path d="M227 74.2016L226.2 75.7016H210.4L190.4 113.602L128 226.902L65.6001 113.502L45.7001 75.6016H29.9001L29.1001 74.1016H45.7001L46.5001 75.6016L65.6001 112.002L128 225.502L190.4 112.102L209.6 75.7016L210.4 74.2016" fill="#263238" fill-opacity="0.2"/>
<path d="M152.7 128C152.7 141.7 141.6 152.7 128 152.7C114.4 152.7 103.3 141.6 103.3 128C103.3 114.4 114.4 103.3 128 103.3C141.7 103.3 152.7 114.3 152.7 128ZM149.8 52.4C149.8 64.4 140 74.2 128 74.2C116 74.2 106.2 64.4 106.2 52.4C106.2 40.4 116 30.5 128 30.5C140 30.5 149.8 40.3 149.8 52.4Z" fill="white"/>
<path d="M190.4 113.5C187.1 99.4 179.2 87 168.3 78.2C174.1 70.1 177.5 60.2 177.5 49.4C177.5 47.9 177.4 46.4 177.3 44.9C175 19.7 153.8 0 128 0C102.2 0 81 19.7 78.8 44.9C78.7 46.4 78.6 47.9 78.6 49.5C78.6 60.2 82 70.2 87.8 78.3C76.9 87.1 68.9 99.4 65.7 113.6C64.6 118.2 64 123 64 128C64 155.1 80.9 178.3 104.7 187.6C111.9 190.4 119.8 192 128 192C136.2 192 144.1 190.4 151.3 187.6C175.1 178.3 192 155.1 192 128C192 123 191.4 118.2 190.4 113.5ZM128 32C139.2 32 148.4 41.1 148.4 52.4C148.4 63.7 139.3 72.8 128 72.8C116.8 72.8 107.6 63.7 107.6 52.4C107.6 41.1 116.8 32 128 32ZM128 151.3C115.2 151.3 104.7 140.9 104.7 128C104.7 120.5 108.2 113.9 113.7 109.6C117.6 106.5 122.6 104.7 128 104.7C133.4 104.7 138.4 106.5 142.3 109.6C147.8 113.9 151.3 120.5 151.3 128C151.3 140.9 140.9 151.3 128 151.3Z" fill="#4285F4"/>
<path d="M177.5 49.5V50.2C177 23.2 155.1 1.5 128 1.5C100.9 1.5 78.9 23.2 78.5 50.2V49.5C78.5 22.1 100.7 0 128 0C155.3 0 177.5 22.1 177.5 49.5ZM87.1 78.8C73 90.5 64 108.2 64 128V128.7C64.2 108.9 73.5 91.2 87.8 79.7L88.5 79.2L87.8 78.3L87.1 78.8ZM168.9 78.8L168.3 78.3L167.6 79.2L168.3 79.8C182.6 91.4 191.9 109 192.1 128.8V128C192 108.2 183 90.5 168.9 78.8Z" fill="white" fill-opacity="0.2"/>
<path d="M192 127.299V127.999C192 163.299 163.3 191.999 128 191.999C92.7 191.999 64 163.299 64 127.999V127.299C64.4 162.299 92.9 190.599 128 190.599C163.1 190.599 191.6 162.299 192 127.299ZM78.5 48.6992V49.3992C78.5 60.4992 82.2 70.7992 88.4 79.0992C88.6 78.9992 88.9 78.7992 89.1 78.5992C82.6 70.3992 78.7 59.9992 78.5 48.6992ZM177.5 48.6992C177.3 59.9992 173.4 70.2992 166.9 78.5992C167.2 78.7992 167.4 78.9992 167.6 79.0992C173.8 70.9992 177.5 60.5992 177.5 49.3992V48.6992Z" fill="#263238" fill-opacity="0.2"/>
<path d="M256 23.3L232.7 64L226.1 75.6H210.3L190.3 113.5C191.4 118.2 191.9 123 191.9 128C191.9 155.1 175 178.3 151.2 187.6C150.5 187.9 149.7 188.2 149 188.4L128 226.9L106.8 188.4C106.1 188.2 105.3 187.9 104.6 187.6C80.9 178.2 64 155.1 64 128C64 123 64.6 118.2 65.6 113.5L45.7 75.6H30L23.3 64L0 23.3H66.9L77.8 44.9L78.4 45.3C78.4 45.2 78.6 45.1 78.6 44.9C80.9 19.7 102.1 0 127.9 0C153.7 0 174.9 19.7 177.2 44.9C177.2 45 176.9 45.1 176.9 45.2L176.8 44.9L189.1 23.2H256V23.3Z" fill="url(#paint0_radial_1_12968)"/>
</g>
<defs>
<radialGradient id="paint0_radial_1_12968" cx="0" cy="0" r="1" gradientUnits="userSpaceOnUse" gradientTransform="translate(290.069 2581.82) scale(23907 23907)">
<stop stop-color="white" stop-opacity="0.1"/>
<stop offset="1" stop-color="white" stop-opacity="0"/>
</radialGradient>
<clipPath id="clip0_1_12968">
<rect width="256" height="227" fill="white"/>
</clipPath>
</defs>
</svg>
