<svg width="256" height="256" viewBox="0 0 256 256" fill="none" xmlns="http://www.w3.org/2000/svg">
<g clip-path="url(#clip0_1_12996)">
<path d="M0 0L127.559 256L256 0H0ZM142.698 51.3842H157.557V66.2428H142.698V51.3842ZM113.141 110.738H98.3229V95.9199H113.141V110.738ZM113.141 88.4706H98.3229V73.6921H113.141V88.4706ZM113.141 66.2428H98.3229V51.3842H113.141V66.2428ZM135.569 133.006H120.751V118.148H135.569V133.006ZM135.569 110.738H120.751V95.9199H135.569V110.738ZM135.569 88.4706H120.751V73.6921H135.569V88.4706ZM135.569 66.2428H120.751V51.3842H135.569V66.2428ZM142.698 73.6921H157.557V88.5106H142.698V73.6921ZM142.698 110.778V95.96H157.557V110.778H142.698Z" fill="#FFD814"/>
</g>
<defs>
<clipPath id="clip0_1_12996">
<rect width="256" height="256" fill="white"/>
</clipPath>
</defs>
</svg>
