<svg width="512" height="158" viewBox="0 0 512 158" fill="none" xmlns="http://www.w3.org/2000/svg">
<g clip-path="url(#clip0_1_12999)">
<path d="M283.432 27.368H302.977L273.19 126.848H245.426L215.812 27.4421H235.358L259.395 110.288L283.432 27.368ZM357.223 126.848H342.416L341.059 121.912C334.615 126.096 327.098 128.324 319.415 128.328C306.138 128.328 300.462 119.222 300.462 106.685C300.462 91.878 306.879 86.2266 321.661 86.2266H339.134V78.5762C339.134 70.5063 336.888 67.6682 325.24 67.6682C318.469 67.7363 311.722 68.4887 305.102 69.914L302.856 56.0199C310.977 53.7817 319.358 52.6282 327.782 52.5896C350.609 52.5896 357.396 60.6595 357.396 78.8723L357.223 126.848ZM339.035 99.3803H325.585C319.613 99.3803 317.984 101.034 317.984 106.562C317.984 111.497 319.613 113.965 325.388 113.965C330.209 113.888 334.934 112.607 339.134 110.239L339.035 99.3803ZM385.905 54.095V104.834C385.905 108.709 387.533 110.658 391.729 110.658C395.924 110.658 404.068 107.968 410.682 104.538V54.095H428.895V126.848H415.001L413.224 120.727C404.156 125.274 394.236 127.872 384.103 128.353C372.011 128.353 367.692 119.839 367.692 106.858V54.095H385.905ZM438.586 126.848V24.3819L456.799 21.9141V126.848H438.586ZM511.112 125.441C505.975 127.234 500.584 128.193 495.145 128.279C481.867 128.279 475.13 122.011 475.13 109.03V68.5567H464.247V54.095H475.13V36.0302L493.343 33.5624V54.169H512L510.815 68.6307H493.343V106.636C492.983 109.384 494.642 111.996 497.282 112.84C498.131 113.111 499.029 113.185 499.908 113.052C502.997 112.962 506.06 112.456 509.014 111.547L511.112 125.441Z" fill="black"/>
<path d="M0 0L78.6014 157.746L157.746 0H0ZM87.9299 31.6627H97.0857V40.8184H87.9299V31.6627ZM69.7171 68.2364H60.586V59.1053H69.7171V68.2364ZM69.7171 54.5151H60.586V45.4087H69.7171V54.5151ZM69.7171 40.8184H60.586V31.6627H69.7171V40.8184ZM83.5371 81.9577H74.4061V72.8019H83.5371V81.9577ZM83.5371 68.2364H74.4061V59.1053H83.5371V68.2364ZM83.5371 54.5151H74.4061V45.4087H83.5371V54.5151ZM83.5371 40.8184H74.4061V31.6627H83.5371V40.8184ZM87.9299 45.4087H97.0857V54.5398H87.9299V45.4087ZM87.9299 68.2611V59.13H97.0857V68.2611H87.9299Z" fill="#FFD814"/>
</g>
<defs>
<clipPath id="clip0_1_12999">
<rect width="512" height="158" fill="white"/>
</clipPath>
</defs>
</svg>
