<svg width="256" height="301" viewBox="0 0 256 301" fill="none" xmlns="http://www.w3.org/2000/svg">
<g clip-path="url(#clip0_1_13003)">
<path d="M128 300.346L0 225.26V75.0866L128 0L256 75.0866V225.26L128 300.346ZM17.8898 214.677L127.748 279.181L237.606 214.677V85.6693L128 21.1654L17.8898 85.6693V214.677Z" fill="url(#paint0_linear_1_13003)"/>
<path d="M183.181 109.355L138.331 188.222L152.945 213.922L212.409 109.355H183.181ZM133.039 109.355L88.189 188.222L102.803 213.922L162.268 109.355H133.039ZM43.5906 109.355L103.055 213.922L117.669 188.222L72.8189 109.355H43.5906ZM43.5906 109.355L103.055 213.922L117.669 188.222L72.8189 109.355H43.5906ZM133.039 109.355L88.189 188.222L102.803 213.922L162.268 109.355H133.039Z" fill="url(#paint1_linear_1_13003)"/>
</g>
<defs>
<linearGradient id="paint0_linear_1_13003" x1="3462.01" y1="22429.5" x2="23878.1" y2="10642.2" gradientUnits="userSpaceOnUse">
<stop stop-color="#10E7FF"/>
<stop offset="0.103" stop-color="#33D5FF"/>
<stop offset="0.255" stop-color="#60BDFF"/>
<stop offset="0.408" stop-color="#86AAFF"/>
<stop offset="0.56" stop-color="#A39AFF"/>
<stop offset="0.71" stop-color="#B790FF"/>
<stop offset="0.858" stop-color="#C489FF"/>
<stop offset="1" stop-color="#C887FF"/>
</linearGradient>
<linearGradient id="paint1_linear_1_13003" x1="3589.8" y1="5759.38" x2="14365.9" y2="-462.276" gradientUnits="userSpaceOnUse">
<stop stop-color="#10E7FF"/>
<stop offset="0.103" stop-color="#33D5FF"/>
<stop offset="0.255" stop-color="#60BDFF"/>
<stop offset="0.408" stop-color="#86AAFF"/>
<stop offset="0.56" stop-color="#A39AFF"/>
<stop offset="0.71" stop-color="#B790FF"/>
<stop offset="0.858" stop-color="#C489FF"/>
<stop offset="1" stop-color="#C887FF"/>
</linearGradient>
<clipPath id="clip0_1_13003">
<rect width="256" height="301" fill="white"/>
</clipPath>
</defs>
</svg>
