<svg width="256" height="230" viewBox="0 0 256 230" fill="none" xmlns="http://www.w3.org/2000/svg">
<g clip-path="url(#clip0_1_13026)">
<path d="M128.221 229.503C122.573 229.503 116.848 228.066 111.604 225.041C95.6593 215.844 90.1893 195.466 99.3841 179.523L193.301 16.6823C202.496 0.737625 222.873 -4.73229 238.819 4.4625C254.762 13.6588 260.234 34.0373 251.038 49.9805L157.12 212.821C150.951 223.52 139.744 229.503 128.221 229.503Z" fill="url(#paint0_linear_1_13026)"/>
<path d="M156.915 212.319C154.108 217.223 150.017 221.476 144.786 224.525C128.885 233.794 108.481 228.418 99.2119 212.518L4.54036 50.1151C-4.72866 34.2128 0.645824 13.8116 16.5481 4.54109C32.4489 -4.72945 52.8532 0.646552 62.1222 16.5473L156.792 178.951C163.012 189.62 162.638 202.32 156.915 212.319Z" fill="url(#paint1_linear_1_13026)"/>
<path d="M157.02 179.402L128.101 129.793L99.4125 179.536C90.2177 195.479 95.6876 215.857 111.632 225.054C112.711 225.676 113.814 226.214 114.928 226.703C115.292 226.861 115.654 227.023 116.024 227.167C116.439 227.332 116.855 227.487 117.275 227.633C117.947 227.868 118.625 228.085 119.309 228.276C119.518 228.333 119.726 228.398 119.935 228.453C120.789 228.673 121.651 228.851 122.521 229.003C122.761 229.045 123.002 229.083 123.243 229.121C124.14 229.257 125.041 229.368 125.949 229.432C125.991 229.435 126.032 229.441 126.074 229.444C127.017 229.506 127.965 229.513 128.913 229.495C129.157 229.491 129.401 229.481 129.646 229.471C130.548 229.433 131.45 229.369 132.35 229.257C132.406 229.25 132.462 229.248 132.518 229.241C133.48 229.116 134.439 228.938 135.395 228.727C135.59 228.683 135.784 228.639 135.98 228.592C139.077 227.852 142.121 226.662 145.014 224.977C150.244 221.927 154.336 217.674 157.143 212.77C162.866 202.771 163.24 190.071 157.02 179.402Z" fill="url(#paint2_linear_1_13026)"/>
<path d="M140.876 197.817C140.876 204.719 135.28 210.314 128.379 210.314C121.477 210.314 115.882 204.719 115.882 197.817C115.882 190.916 121.477 185.32 128.379 185.32C135.28 185.32 140.876 190.916 140.876 197.817Z" fill="white"/>
<path d="M234.793 31.1884C234.793 38.0898 229.197 43.6855 222.296 43.6855C215.394 43.6855 209.799 38.0898 209.799 31.1884C209.799 24.287 215.394 18.6914 222.296 18.6914C229.197 18.6914 234.793 24.287 234.793 31.1884Z" fill="white"/>
<path d="M46.2011 31.1884C46.2011 38.0898 40.6055 43.6855 33.7041 43.6855C26.8027 43.6855 21.207 38.0898 21.207 31.1884C21.207 24.287 26.8027 18.6914 33.7041 18.6914C40.6055 18.6914 46.2011 24.287 46.2011 31.1884Z" fill="white"/>
</g>
<defs>
<linearGradient id="paint0_linear_1_13026" x1="8123.88" y1="1.90821e-05" x2="8670.99" y2="15883.3" gradientUnits="userSpaceOnUse">
<stop stop-color="#54BEAF"/>
<stop offset="1" stop-color="#25488D"/>
</linearGradient>
<linearGradient id="paint1_linear_1_13026" x1="8066.63" y1="1.90457e-05" x2="8609.11" y2="15853.2" gradientUnits="userSpaceOnUse">
<stop stop-color="#54BEAF"/>
<stop offset="1" stop-color="#25488D"/>
</linearGradient>
<linearGradient id="paint2_linear_1_13026" x1="3425.47" y1="129.793" x2="3425.47" y2="10100.9" gradientUnits="userSpaceOnUse">
<stop stop-color="#0E2E62"/>
<stop offset="1" stop-color="#08154E"/>
</linearGradient>
<clipPath id="clip0_1_13026">
<rect width="256" height="230" fill="white"/>
</clipPath>
</defs>
</svg>
