<svg width="256" height="257" viewBox="0 0 256 257" fill="none" xmlns="http://www.w3.org/2000/svg">
<g clip-path="url(#clip0_1_13034)">
<path d="M128.286 1.95312L1.94507 127.886L128.286 254.401L254.047 127.886L128.286 1.95312Z" fill="#019833"/>
<path d="M128.264 13.5177V2.88672L2.77393 127.91H13.5269L128.264 13.5177Z" fill="#66FE98"/>
<path d="M128.264 13.5177V2.88672L254.144 127.91H242.508L128.264 13.5177Z" fill="#45FE02"/>
<path d="M128.264 242.834V254.603L2.77393 127.906H13.5269L128.264 242.834Z" fill="#017D17"/>
<path d="M128.264 242.834V254.603L254.144 127.906H242.508L128.264 242.834Z" fill="#005D04"/>
<path d="M65.226 230.589H40.9L31.4 221.331V44.5483H23.86L17.405 38.0843V18.3233L24.092 11.0703H109.167L116.816 18.7283V37.4843L110.46 45.2313H104.032V104.989L164.519 45.2313H161.142L154.107 37.6443V17.7563L161.019 11.4113H246.891L253.687 18.2163V37.0263L65.226 230.589Z" fill="black"/>
<path d="M128.264 256.342L0 127.908L128.264 0L256 127.908L128.264 256.342ZM3.929 127.908L128.264 252.41L252.069 127.908L128.264 3.935L3.929 127.908Z" fill="black"/>
<path d="M108.075 22.742L111.854 20.301L107.993 16.293H26.156L21.998 20.457V36.207L26.608 40.823L28.807 36.207L25.915 33.31V22.207L28.084 20.276L105.348 20.371L108.075 22.742Z" fill="#FEFEFE"/>
<path d="M41.458 35.832V220.166L44.05 222.634L41.973 226.559L36.522 221.19V40.611L41.458 35.832Z" fill="#FEFEFE"/>
<path d="M28.2359 35.832L26.6079 40.822H36.4939L42.2129 35.832H28.2359Z" fill="#808080"/>
<path d="M166.531 35.8977L163.074 33.4557V23.5597L166.69 19.9387H242.139L245.032 23.8007L249.149 20.5517L244.911 16.6797H163.797L159.759 20.7227V36.5937L164.011 40.4417M98.3961 116.752L90.5171 135.896L179.465 46.5867L179.03 35.7827L98.3961 116.752Z" fill="#FEFEFE"/>
<path d="M107.897 22.6708L111.854 20.3008V35.8328L107.337 40.3558H98.5589L98.3959 116.751L90.5469 135.851V35.8328H105.206L107.933 33.6138L107.897 22.6708Z" fill="#808080"/>
<path d="M244.764 22.7218L249.149 20.5508V34.7338L62.4079 226.56H41.9729L43.9669 222.79L59.6619 222.791L244.791 31.3788L244.764 22.7218Z" fill="#808080"/>
<path d="M179.03 35.7812L174.482 40.3503L164.011 40.4403L166.568 35.8503C166.653 35.8503 179.03 35.7812 179.03 35.7812Z" fill="#808080"/>
<path d="M165.973 19.7891L163.083 22.6821V33.3061L165.614 35.8401H178.986V46.1051L90.526 135.888V35.9671H105.227L108.243 32.9471V22.1961L105.459 20.0421H28.093L25.562 22.5771V33.5591L28.135 36.1361H41.592V220.138L44.123 222.672H59.415L244.794 31.1301V22.6821L241.904 19.7891H165.973Z" fill="#CCCCCC"/>
<path d="M59.5191 222.92H44.0221L41.3481 220.242V36.3829H28.0341L25.3181 33.6629V22.4779L27.9921 19.8009H105.543L108.488 22.0789V33.0509L105.329 36.2139H90.7701V135.295L178.742 46.0069V36.0879H165.513L162.839 33.4099V22.5839L165.871 19.5469H242.005L245.038 22.5839V31.2319L244.97 31.3029L59.5191 222.92ZM44.2251 222.431H59.3121L244.55 31.0349V22.7859L241.803 20.0359H166.074L163.327 22.7859V33.2079L165.715 35.5989H179.231V46.2079L179.161 46.2789L90.2821 136.487V35.7259H105.126L107.999 32.8479V22.3189L105.376 20.2889H28.1941L25.8061 22.6809V33.4609L28.2371 35.8949H41.8361V220.039L44.2251 222.431Z" fill="#808080"/>
<path d="M134.566 143.821C134.425 143.85 134.295 143.916 134.186 144.011L130.601 147.094C130.494 147.192 130.414 147.315 130.369 147.453L126.783 157.507C126.675 157.808 126.749 158.144 126.973 158.373L129.715 161.118C129.874 161.271 130.086 161.354 130.306 161.351H141.379C141.599 161.354 141.811 161.271 141.969 161.118L144.859 158.204C144.959 158.104 145.031 157.98 145.07 157.845L148.15 147.263C148.235 146.971 148.154 146.655 147.939 146.44L145.555 144.053C145.397 143.9 145.184 143.817 144.965 143.821H134.735C134.679 143.815 134.622 143.815 134.566 143.821ZM114.276 172.164C113.965 172.231 113.72 172.469 113.643 172.777L112.272 178.226C112.161 178.672 112.432 179.125 112.878 179.236C112.942 179.252 113.007 179.26 113.073 179.261H119.591L103.434 225.451C103.288 225.888 103.523 226.36 103.959 226.506C104.041 226.534 104.127 226.549 104.215 226.55H127.732C128.095 226.555 128.419 226.324 128.534 225.979L130.074 221.016C130.208 220.576 129.961 220.11 129.521 219.975C129.441 219.951 129.357 219.938 129.272 219.939H123.957L139.945 173.263C140.091 172.826 139.856 172.354 139.42 172.208C139.338 172.18 139.251 172.165 139.164 172.164H114.444C114.388 172.159 114.332 172.159 114.276 172.164ZM189.111 172.333C188.93 172.371 188.766 172.467 188.646 172.608L183.753 178.141H175.97L170.781 172.756C170.626 172.595 170.414 172.504 170.191 172.502H151.609C151.259 172.503 150.947 172.722 150.828 173.051L149.12 178.163C148.974 178.599 149.208 179.071 149.644 179.218C149.727 179.245 149.813 179.26 149.9 179.261H154.878L139.396 224.944C139.25 225.381 139.485 225.853 139.921 226C140.003 226.027 140.09 226.042 140.177 226.043H159.961C160.311 226.042 160.622 225.823 160.742 225.494L162.26 221.037C162.406 220.601 162.172 220.128 161.736 219.982C161.653 219.954 161.567 219.94 161.48 219.939H158.021L167.892 188.828H185.757L174.494 224.966C174.359 225.406 174.606 225.872 175.046 226.006C175.127 226.031 175.211 226.043 175.295 226.043H194.383C194.715 226.04 195.013 225.841 195.143 225.536L196.851 221.438C197.021 221.011 196.812 220.526 196.385 220.357C196.291 220.32 196.192 220.3 196.092 220.298H192.633L202.673 188.659H219.673L208.241 224.966C208.107 225.406 208.354 225.872 208.793 226.006C208.874 226.031 208.958 226.043 209.043 226.043H230.008C230.352 226.045 230.663 225.835 230.789 225.515L232.497 221.058C232.655 220.626 232.433 220.148 232.001 219.99C231.91 219.956 231.814 219.939 231.717 219.939H227.561L240.196 178.86C240.28 178.6 240.233 178.317 240.069 178.099L236.146 172.819C235.984 172.613 235.733 172.495 235.471 172.502H220.475C220.244 172.498 220.023 172.59 219.863 172.756L215.138 177.951H206.87L201.977 172.587C201.817 172.421 201.595 172.329 201.365 172.333H189.279C189.223 172.328 189.167 172.328 189.111 172.333Z" fill="#CCCCCC"/>
<path d="M128.359 162.524C128.882 163.028 129.566 163.304 130.26 163.304C130.275 163.304 130.29 163.304 130.306 163.303H141.345C142.087 163.326 142.789 163.04 143.358 162.493L146.241 159.584C146.575 159.25 146.82 158.833 146.947 158.389L150.026 147.809C150.311 146.83 150.041 145.774 149.321 145.057L146.912 142.644C146.377 142.128 145.674 141.844 144.965 141.864H134.805C134.659 141.856 134.513 141.859 134.369 141.874L134.164 141.906C133.694 142.005 133.255 142.224 132.912 142.526L129.326 145.61L129.285 145.647C128.936 145.965 128.673 146.367 128.521 146.814L124.943 156.845C124.584 157.846 124.834 158.982 125.59 159.752L128.359 162.524ZM144.513 145.773L146.088 147.35L143.272 157.026L140.926 159.394L130.758 159.395L128.861 157.495L132.118 148.365L135.132 145.773H144.513Z" fill="black"/>
<path d="M241.638 176.929L237.715 171.649L237.68 171.604C237.146 170.926 236.32 170.533 235.455 170.544H220.507C219.73 170.526 218.993 170.84 218.458 171.392L214.274 175.993H207.733L203.421 171.266L203.381 171.223C202.847 170.671 202.108 170.376 201.365 170.375H189.349C189.204 170.367 189.057 170.37 188.913 170.385L188.711 170.416C188.11 170.541 187.559 170.868 187.182 171.309L182.872 176.183H176.801L172.186 171.393C171.671 170.86 170.949 170.55 170.191 170.544H151.603C150.438 170.547 149.389 171.285 148.991 172.381L147.267 177.536C146.778 178.993 147.565 180.577 149.023 181.067C149.299 181.159 149.587 181.208 149.9 181.211H152.152L137.542 224.321C137.056 225.776 137.843 227.359 139.299 227.849C139.576 227.941 139.864 227.99 140.177 227.993H159.967C161.133 227.99 162.183 227.251 162.592 226.12L164.114 221.654C164.601 220.198 163.814 218.615 162.357 218.125C162.08 218.032 161.792 217.983 161.48 217.98H160.691L169.322 190.779H183.1L172.624 224.39C172.175 225.86 173.005 227.421 174.471 227.87C174.742 227.953 175.032 227.987 175.295 227.993H194.4C195.51 227.984 196.508 227.318 196.947 226.284L198.669 222.154C199.234 220.725 198.533 219.102 197.111 218.538C196.794 218.411 196.461 218.345 196.092 218.339H195.304L204.103 190.61H217.008L206.371 224.392C205.924 225.861 206.754 227.422 208.219 227.87C208.484 227.952 208.76 227.993 209.028 227.993H209.043H229.995C231.153 227.986 232.189 227.291 232.614 226.21L234.333 221.725C234.86 220.282 234.116 218.678 232.673 218.15C232.37 218.039 232.051 217.982 231.717 217.98H230.207L242.054 179.462C242.336 178.598 242.178 177.647 241.638 176.929ZM224.915 221.889H230.084L229.242 224.084H210.566L222.338 186.701H201.242L189.962 222.249H194.394L193.629 224.084H176.814L188.413 186.87H166.461L155.35 221.889H159.904L159.156 224.084H141.75L157.604 177.302H151.467L152.419 174.453H169.706L175.139 180.092H184.634L189.769 174.284L200.883 174.283L206.007 179.902H216.003L220.958 174.453H234.928L238.164 178.809L224.915 221.889Z" fill="black"/>
<path d="M130.096 218.104C129.826 218.021 129.556 217.988 129.272 217.981H126.692L141.798 173.882C142.287 172.424 141.499 170.841 140.041 170.351C139.766 170.259 139.478 170.21 139.164 170.207H114.514C114.368 170.199 114.222 170.202 114.077 170.217L113.864 170.251C112.818 170.476 112.006 171.261 111.747 172.297L110.375 177.751C110.004 179.241 110.914 180.756 112.409 181.131C112.621 181.183 112.84 181.211 113.073 181.212H116.836L101.581 224.827C101.092 226.285 101.881 227.868 103.337 228.357C103.614 228.449 103.902 228.498 104.215 228.501H127.704H127.745C128.949 228.501 130.008 227.738 130.401 226.555L131.943 221.584C132.392 220.115 131.562 218.553 130.096 218.104ZM105.804 224.592L122.345 177.303H114.519L115.321 174.116H137.585L121.221 221.89H127.755L126.917 224.592H105.804Z" fill="black"/>
</g>
<defs>
<clipPath id="clip0_1_13034">
<rect width="256" height="257" fill="white"/>
</clipPath>
</defs>
</svg>
