<svg width="256" height="223" viewBox="0 0 256 223" fill="none" xmlns="http://www.w3.org/2000/svg">
<g clip-path="url(#clip0_1_13056)">
<path d="M255.876 51.6606C254.737 76.6285 237.331 110.817 203.667 154.21C168.861 199.537 139.413 222.199 115.324 222.199C100.406 222.199 87.7727 208.4 77.461 180.793C70.5694 155.487 63.6855 130.184 56.7965 104.878C49.1344 77.2864 40.9193 63.4725 32.1359 63.4725C30.221 63.4725 23.5189 67.5097 12.0449 75.5533L0 60.0063C12.6337 48.883 25.0984 37.7623 37.3609 26.6262C54.2109 12.0367 66.8599 4.36431 75.2901 3.58862C95.2147 1.67117 107.477 15.3161 112.08 44.5258C117.054 76.0396 120.495 95.6417 122.43 103.314C128.172 129.46 134.49 142.516 141.395 142.516C146.753 142.516 154.802 134.037 165.533 117.079C176.255 100.117 181.997 87.2116 182.772 78.3462C184.298 63.7081 178.553 56.371 165.533 56.371C159.405 56.371 153.086 57.7842 146.587 60.5772C159.166 19.2866 183.205 -0.765964 218.687 0.378363C244.991 1.15149 257.392 18.2447 255.876 51.6606Z" fill="#32B8E8"/>
</g>
<defs>
<clipPath id="clip0_1_13056">
<rect width="256" height="223" fill="white"/>
</clipPath>
</defs>
</svg>
