<svg width="512" height="146" viewBox="0 0 512 146" fill="none" xmlns="http://www.w3.org/2000/svg">
<g clip-path="url(#clip0_1_13059)">
<path d="M114.457 68.4795C113.946 79.6309 106.162 94.8992 91.1035 114.279C75.5334 134.522 62.3607 144.644 51.5855 144.644C44.9132 144.644 39.2615 138.482 34.6488 126.151C31.5675 114.85 28.4862 103.547 25.4061 92.2475C21.9788 79.9235 18.3055 73.7539 14.3743 73.7539C13.5187 73.7539 10.5198 75.5581 5.38819 79.1502L0 72.2063C5.65058 67.2396 11.2257 62.2717 16.7126 57.298C24.2486 50.7824 29.9073 47.3563 33.6794 47.0104C42.5912 46.1547 48.0769 52.2488 50.1354 65.2926C52.3598 79.3674 53.8993 88.1213 54.7643 91.5474C57.3335 103.225 60.1594 109.056 63.2477 109.056C65.6451 109.056 69.2442 105.269 74.0461 97.6949C78.8399 90.1205 81.4103 84.3573 81.7551 80.3972C82.439 73.8596 79.8697 70.5832 74.0461 70.5832C71.3027 70.5832 68.4768 71.2148 65.5697 72.4617C71.1982 54.0216 81.9502 45.0645 97.821 45.5754C109.588 45.9213 115.134 53.5561 114.457 68.4795Z" fill="#1AB7EB"/>
<path d="M162.766 13.1606C162.594 17.4285 160.452 21.5233 156.334 25.4463C151.705 29.879 146.22 32.0965 139.878 32.0965C130.11 32.0965 125.39 27.8357 125.736 19.307C125.901 14.8743 128.517 10.6053 133.574 6.51045C138.631 2.42258 144.244 0.371094 150.421 0.371094C154.02 0.371094 157.018 1.78403 159.422 4.5948C161.82 7.41138 162.932 10.2674 162.766 13.1606ZM185.136 104.601C180.335 113.679 173.738 121.9 165.337 129.264C153.847 139.197 142.366 144.165 130.884 144.165C125.563 144.165 121.491 142.452 118.666 139.024C115.84 135.598 114.51 131.151 114.683 125.664C114.848 120.014 116.607 111.274 119.95 99.4541C123.294 87.634 124.97 81.2926 124.97 80.4358C124.97 75.9869 123.422 73.7554 120.341 73.7554C119.312 73.7554 116.396 75.5596 111.595 79.1518L105.681 72.2078C111.167 67.2411 116.651 62.2732 122.137 57.2995C129.508 50.7839 134.994 47.3578 138.601 47.0119C144.252 46.501 148.407 48.1624 151.067 52.0099C153.72 55.8563 154.704 60.8463 154.027 66.9926C151.796 77.4149 149.391 90.648 146.821 106.698C146.649 114.047 149.309 117.713 154.795 117.713C157.191 117.713 161.474 115.182 167.65 110.103C172.791 105.879 176.991 101.904 180.252 98.177L185.136 104.601Z" fill="#1AB7EB"/>
<path d="M345.713 104.602C340.912 113.68 334.314 121.901 325.913 129.265C314.424 139.199 302.941 144.167 291.46 144.167C280.309 144.167 274.914 138.004 275.259 125.665C275.424 120.179 276.499 113.591 278.468 105.881C280.437 98.1704 281.512 92.1739 281.684 87.8921C281.857 81.3836 279.879 78.1235 275.747 78.1235C271.276 78.1235 265.949 83.4432 259.757 94.0675C253.219 105.212 249.688 116.01 249.177 126.462C248.832 133.841 249.553 139.5 251.341 143.438C239.379 143.783 230.999 141.807 226.22 137.524C221.937 133.752 219.975 127.5 220.321 118.753C220.486 113.267 221.328 107.782 222.845 102.297C224.357 96.8109 225.198 91.9266 225.371 87.6355C225.717 81.2942 223.395 78.1235 218.42 78.1235C214.122 78.1235 209.486 83.0148 204.511 92.7834C199.537 102.552 196.787 112.756 196.276 123.381C195.93 132.985 196.546 139.666 198.117 143.438C186.349 143.783 177.994 141.303 173.049 135.997C168.946 131.557 167.076 124.81 167.421 115.747C167.587 111.306 168.368 105.106 169.78 97.1557C171.193 89.2064 171.982 83.0148 172.147 78.567C172.485 75.4927 171.712 73.952 169.833 73.952C168.803 73.952 165.888 75.6877 161.086 79.1533L154.918 72.2094C155.773 71.5337 161.169 66.5588 171.118 57.301C178.316 50.6206 183.201 47.1945 185.77 47.0215C190.227 46.6755 193.826 48.5169 196.569 52.5444C199.311 56.5719 200.687 61.2461 200.687 66.5588C200.687 68.2713 200.514 69.9025 200.176 71.4431C202.745 67.505 205.744 64.0708 209.177 61.1555C217.06 54.3033 225.89 50.4407 235.658 49.5838C244.059 48.9 250.056 50.8691 253.663 55.498C256.571 59.27 257.939 64.6722 257.773 71.6985C258.976 70.6768 260.261 69.5565 261.635 68.3548C265.574 63.7259 269.428 60.0444 273.2 57.301C279.542 52.6721 286.148 50.1028 293 49.5838C301.228 48.9 307.142 50.8609 310.741 55.4747C313.822 59.2317 315.197 64.613 314.859 71.608C314.686 76.3948 313.53 83.3538 311.388 92.4908C309.238 101.628 308.172 106.872 308.172 108.24C307.999 111.832 308.345 114.305 309.2 115.672C310.058 117.039 312.109 117.715 315.371 117.715C317.767 117.715 322.05 115.184 328.227 110.104C333.368 105.881 337.567 101.905 340.828 98.1786L345.713 104.602Z" fill="#1AB7EB"/>
<path d="M383.765 77.4895C383.93 72.8908 382.052 70.5839 378.115 70.5839C372.975 70.5839 367.76 74.1227 362.454 81.2013C357.15 88.2799 354.407 95.0578 354.241 101.535C354.144 101.535 354.144 102.647 354.241 104.864C362.627 101.797 369.901 97.1092 376.063 90.7969C381.023 85.3425 383.591 80.9006 383.765 77.4895ZM442.136 104.338C437.161 112.559 427.393 120.772 412.823 128.984C394.653 139.429 376.221 144.645 357.541 144.645C343.654 144.645 333.706 140.015 327.709 130.765C323.425 124.424 321.366 116.886 321.539 108.14C321.706 94.2613 327.882 81.0666 340.054 68.5475C353.423 54.842 369.195 47.9805 387.365 47.9805C404.167 47.9805 413.078 54.8257 414.108 68.5023C414.791 77.2179 409.99 86.1982 399.711 95.4339C388.732 105.525 374.929 111.935 358.307 114.669C361.387 118.945 366.016 121.08 372.193 121.08C384.532 121.08 397.99 117.946 412.566 111.664C423.019 107.254 431.248 102.669 437.251 97.9196L442.136 104.338Z" fill="#1AB7EB"/>
<path d="M482.88 86.1314C483.053 81.4955 482.407 77.2416 480.949 73.379C479.491 69.5175 477.388 67.5787 474.652 67.5787C465.906 67.5787 458.707 72.3051 453.056 81.751C448.247 89.4832 445.677 97.7263 445.339 106.48C445.167 110.778 445.94 114.558 447.653 117.819C449.531 121.599 452.191 123.484 455.625 123.484C463.336 123.484 469.94 118.939 475.426 109.831C480.054 102.273 482.535 94.3745 482.88 86.1314ZM511.937 87.1008C511.248 102.851 505.423 116.459 494.453 127.925C483.482 139.392 469.85 145.126 453.567 145.126C440.026 145.126 429.739 140.76 422.713 132.028C417.574 125.529 414.741 117.398 414.23 107.645C413.366 92.9244 418.678 79.3976 430.174 67.0748C442.513 53.3843 458.023 46.5391 476.71 46.5391C488.705 46.5391 497.789 50.5666 503.965 58.6065C509.796 65.9707 512.449 75.4688 511.937 87.1008Z" fill="#1AB7EB"/>
</g>
<defs>
<clipPath id="clip0_1_13059">
<rect width="512" height="146" fill="white"/>
</clipPath>
</defs>
</svg>
