<svg width="256" height="254" viewBox="0 0 256 254" fill="none" xmlns="http://www.w3.org/2000/svg">
<g clip-path="url(#clip0_1_13073)">
<mask id="mask0_1_13073" style="mask-type:luminance" maskUnits="userSpaceOnUse" x="0" y="0" width="256" height="254">
<path d="M180.828 252.605C184.844 254.17 189.424 254.069 193.478 252.119L245.979 226.857C251.496 224.202 255.004 218.618 255.004 212.493V41.197C255.004 35.0717 251.496 29.4885 245.979 26.8338L193.478 1.57052C188.158 -0.989422 181.931 -0.362395 177.263 3.03218C176.595 3.51711 175.96 4.05853 175.364 4.6552L74.8566 96.3497L31.0778 63.118C27.0024 60.0245 21.3021 60.2779 17.5171 63.7209L3.47578 76.4935C-1.15402 80.7051 -1.15933 87.9887 3.46432 92.2071L41.4308 126.844L3.46432 161.482C-1.15933 165.701 -1.15402 172.984 3.47578 177.196L17.5171 189.968C21.3021 193.411 27.0024 193.664 31.0778 190.571L74.8566 157.339L175.364 249.034C176.954 250.625 178.82 251.823 180.828 252.605ZM191.292 68.9558L115.03 126.844L191.292 184.733V68.9558Z" fill="#0065A9"/>
</mask>
<g mask="url(#mask0_1_13073)">
<path d="M246.135 26.875L193.593 1.57688C187.512 -1.35136 180.243 -0.116164 175.47 4.65679L3.46642 161.484C-1.16004 165.702 -1.15472 172.986 3.47789 177.197L17.5277 189.97C21.3151 193.413 27.0189 193.666 31.0967 190.573L238.229 33.4379C245.178 28.1663 255.159 33.1226 255.159 41.8449V41.2349C255.159 35.1123 251.651 29.531 246.135 26.875Z" fill="#0065A9"/>
</g>
<mask id="mask1_1_13073" style="mask-type:luminance" maskUnits="userSpaceOnUse" x="0" y="0" width="256" height="254">
<path d="M180.828 252.605C184.844 254.17 189.424 254.069 193.478 252.119L245.979 226.857C251.496 224.202 255.004 218.618 255.004 212.493V41.197C255.004 35.0717 251.496 29.4885 245.979 26.8338L193.478 1.57052C188.158 -0.989422 181.931 -0.362395 177.263 3.03218C176.595 3.51711 175.96 4.05853 175.364 4.6552L74.8566 96.3497L31.0778 63.118C27.0024 60.0245 21.3021 60.2779 17.5171 63.7209L3.47578 76.4935C-1.15402 80.7051 -1.15933 87.9887 3.46432 92.2071L41.4308 126.844L3.46432 161.482C-1.15933 165.701 -1.15402 172.984 3.47578 177.196L17.5171 189.968C21.3021 193.411 27.0024 193.664 31.0778 190.571L74.8566 157.339L175.364 249.034C176.954 250.625 178.82 251.823 180.828 252.605ZM191.292 68.9558L115.03 126.844L191.292 184.733V68.9558Z" fill="#007ACC"/>
</mask>
<g mask="url(#mask1_1_13073)">
<path d="M246.135 226.815L193.593 252.114C187.512 255.041 180.243 253.806 175.47 249.034L3.46642 92.2064C-1.16004 87.9882 -1.15472 80.7043 3.47789 76.4929L17.5277 63.7203C21.3151 60.2772 27.0189 60.0237 31.0967 63.1173L238.229 220.252C245.178 225.523 255.159 220.568 255.159 211.845V212.455C255.159 218.578 251.651 224.159 246.135 226.815Z" fill="#007ACC"/>
</g>
<mask id="mask2_1_13073" style="mask-type:luminance" maskUnits="userSpaceOnUse" x="0" y="0" width="256" height="254">
<path d="M180.828 252.605C184.844 254.17 189.424 254.069 193.478 252.119L245.979 226.857C251.496 224.202 255.004 218.618 255.004 212.493V41.197C255.004 35.0717 251.496 29.4885 245.979 26.8338L193.478 1.57052C188.158 -0.989422 181.931 -0.362395 177.263 3.03218C176.595 3.51711 175.96 4.05853 175.364 4.6552L74.8566 96.3497L31.0778 63.118C27.0024 60.0245 21.3021 60.2779 17.5171 63.7209L3.47578 76.4935C-1.15402 80.7051 -1.15933 87.9887 3.46432 92.2071L41.4308 126.844L3.46432 161.482C-1.15933 165.701 -1.15402 172.984 3.47578 177.196L17.5171 189.968C21.3021 193.411 27.0024 193.664 31.0778 190.571L74.8566 157.339L175.364 249.034C176.954 250.625 178.82 251.823 180.828 252.605ZM191.292 68.9558L115.03 126.844L191.292 184.733V68.9558Z" fill="#1F9CF0"/>
</mask>
<g mask="url(#mask2_1_13073)">
<path d="M193.428 252.134C187.345 255.06 180.076 253.823 175.303 249.05C181.184 254.931 191.241 250.765 191.241 242.448V11.2724C191.241 2.95489 181.184 -1.21058 175.303 4.67083C180.076 -0.102568 187.345 -1.33951 193.428 1.58615L245.961 26.8495C251.482 29.5041 254.992 35.0874 254.992 41.2127V212.509C254.992 218.634 251.482 224.217 245.961 226.872L193.428 252.134Z" fill="#1F9CF0"/>
</g>
<mask id="mask3_1_13073" style="mask-type:luminance" maskUnits="userSpaceOnUse" x="0" y="0" width="256" height="254">
<path d="M180.828 252.605C184.844 254.17 189.424 254.069 193.478 252.119L245.979 226.857C251.496 224.202 255.004 218.618 255.004 212.493V41.197C255.004 35.0717 251.496 29.4885 245.979 26.8338L193.478 1.57052C188.158 -0.989422 181.931 -0.362395 177.263 3.03218C176.595 3.51711 175.96 4.05853 175.364 4.6552L74.8566 96.3497L31.0778 63.118C27.0024 60.0245 21.3021 60.2779 17.5171 63.7209L3.47578 76.4935C-1.15402 80.7051 -1.15933 87.9887 3.46432 92.2071L41.4308 126.844L3.46432 161.482C-1.15933 165.701 -1.15402 172.984 3.47578 177.196L17.5171 189.968C21.3021 193.411 27.0024 193.664 31.0778 190.571L74.8566 157.339L175.364 249.034C176.954 250.625 178.82 251.823 180.828 252.605ZM191.292 68.9558L115.03 126.844L191.292 184.733V68.9558Z" fill="url(#paint0_linear_1_13073)" fill-opacity="0.25"/>
</mask>
<g mask="url(#mask3_1_13073)">
<path d="M180.828 252.605C184.844 254.169 189.424 254.07 193.477 252.119L245.978 226.856C251.496 224.201 255.004 218.618 255.004 212.493V41.197C255.004 35.0717 251.496 29.4884 245.979 26.8338L193.477 1.57053C188.158 -0.989423 181.932 -0.362396 177.262 3.03218C176.595 3.5171 175.96 4.05853 175.363 4.6552L74.8565 96.3496L31.0778 63.118C27.0025 60.0244 21.302 60.278 17.517 63.7209L3.47578 76.4935C-1.15402 80.7051 -1.15933 87.9888 3.46432 92.2071L41.4308 126.845L3.46432 161.482C-1.15933 165.701 -1.15402 172.984 3.47578 177.196L17.517 189.968C21.302 193.411 27.0025 193.665 31.0778 190.572L74.8565 157.339L175.363 249.034C176.953 250.625 178.821 251.823 180.828 252.605ZM191.292 68.9557L115.03 126.845L191.292 184.733V68.9557Z" fill="url(#paint1_linear_1_13073)" fill-opacity="0.25"/>
</g>
</g>
<defs>
<linearGradient id="paint0_linear_1_13073" x1="12750.2" y1="-9.93563e-05" x2="12750.2" y2="25368.9" gradientUnits="userSpaceOnUse">
<stop stop-color="white"/>
<stop offset="1" stop-color="white" stop-opacity="0"/>
</linearGradient>
<linearGradient id="paint1_linear_1_13073" x1="12750.2" y1="-9.93562e-05" x2="12750.2" y2="25368.9" gradientUnits="userSpaceOnUse">
<stop stop-color="white"/>
<stop offset="1" stop-color="white" stop-opacity="0"/>
</linearGradient>
<clipPath id="clip0_1_13073">
<rect width="256" height="254" fill="white"/>
</clipPath>
</defs>
</svg>
