<svg width="256" height="256" viewBox="0 0 256 256" fill="none" xmlns="http://www.w3.org/2000/svg">
<path d="M36.9867 200.405C33.928 203.019 29.6591 203.689 25.9467 202.138L6.56 194.005C2.60662 192.356 0.0232284 188.502 0 184.218V70.4584C0.0232284 66.1749 2.60662 62.3208 6.56 60.6717L25.9467 52.6717C29.6591 51.1213 33.928 51.7915 36.9867 54.4051L41.3333 58.0051C39.5361 56.713 37.1664 56.537 35.198 57.5493C33.2296 58.5617 31.9944 60.5916 32 62.8051V191.872C31.9944 194.085 33.2296 196.115 35.198 197.127C37.1664 198.14 39.5361 197.964 41.3333 196.672L36.9867 200.405Z" fill="#52218A"/>
<path d="M6.56 194.008C2.60662 192.358 0.0232284 188.504 0 184.221V183.341C0.0268934 185.86 1.58492 188.109 3.93391 189.019C6.2829 189.929 8.94941 189.317 10.6667 187.474L176 4.67423C180.798 -0.0997086 188.08 -1.33839 194.187 1.5809L246.933 26.9676C252.478 29.6335 256.003 35.2422 256 41.3942V42.0076C255.997 38.104 253.746 34.5514 250.217 32.8813C246.689 31.2112 242.514 31.7223 239.493 34.1942L41.3333 196.674L36.9867 200.408C33.928 203.021 29.6591 203.691 25.9467 202.141L6.56 194.008Z" fill="#6C33AF"/>
<path d="M6.56 60.6733C2.60662 62.3224 0.0232284 66.1765 0 70.46V71.34C0.0268934 68.821 1.58492 66.5722 3.93391 65.6619C6.2829 64.7517 8.94941 65.3635 10.6667 67.2067L176 250.007C180.798 254.781 188.08 256.019 194.187 253.1L246.933 227.713C252.478 225.047 256.003 219.439 256 213.287V212.673C255.997 216.577 253.746 220.13 250.217 221.8C246.689 223.47 242.514 222.959 239.493 220.487L41.3333 58.0067L36.9867 54.2733C33.901 51.7049 29.6345 51.0865 25.9467 52.6733L6.56 60.6733Z" fill="#854CC7"/>
<path d="M194.187 253.101C188.08 256.02 180.798 254.782 176 250.008C178.687 252.675 182.714 253.467 186.211 252.016C189.709 250.565 191.991 247.154 192 243.368V11.3676C192.013 7.57137 189.738 4.14109 186.236 2.67603C182.734 1.21097 178.694 1.9996 176 4.67423C180.798 -0.0997086 188.08 -1.33839 194.187 1.5809L246.933 26.9409C252.478 29.6068 256.003 35.2155 256 41.3676V213.314C256.003 219.466 252.478 225.075 246.933 227.741L194.187 253.101Z" fill="#B179F1"/>
<path d="M183.707 254.273C187.232 255.077 190.926 254.664 194.187 253.1L246.933 227.74C252.478 225.074 256.003 219.465 256 213.313V41.3662C256.003 35.2142 252.478 29.6054 246.933 26.9395L194.187 1.57955C190.455 -0.214456 186.172 -0.491658 182.24 0.806215C179.888 1.59408 177.752 2.91781 176 4.67288L90.9867 98.6995L41.3333 58.0062L36.9867 54.2729C34.3333 52.0042 30.7377 51.1776 27.36 52.0595C26.8727 52.1672 26.3987 52.3282 25.9467 52.5395L6.56 60.6729C2.86047 62.2004 0.327434 65.6705 0 69.6595C0 69.9262 0 70.1929 0 70.4595V184.22C0 184.486 0 184.753 0 185.02C0.327434 189.009 2.86047 192.479 6.56 194.006L25.9467 202.006C26.3987 202.218 26.8727 202.379 27.36 202.486C30.7377 203.368 34.3333 202.542 36.9867 200.273L41.3333 196.673L90.9867 155.98L176 250.006C178.119 252.122 180.789 253.6 183.707 254.273ZM192 73.1529L125.893 127.34L192 181.526V73.1529ZM32 90.7262L65.0933 127.34L32 163.953V90.7262Z" fill="url(#paint0_linear_1_13092)" fill-opacity="0.25"/>
<defs>
<linearGradient id="paint0_linear_1_13092" x1="12800" y1="0.621539" x2="12800" y2="25467.3" gradientUnits="userSpaceOnUse">
<stop stop-color="white"/>
<stop offset="1" stop-color="white" stop-opacity="0"/>
</linearGradient>
</defs>
</svg>
