<svg width="256" height="257" viewBox="0 0 256 257" fill="none" xmlns="http://www.w3.org/2000/svg">
<g clip-path="url(#clip0_1_13099)">
<path d="M255.153 37.9382L134.897 252.977C132.414 257.417 126.035 257.443 123.515 253.025L0.874432 37.9589C-1.87112 33.1442 2.24595 27.3123 7.70191 28.2875L128.087 49.8056C128.855 49.9429 129.641 49.9416 130.409 49.8016L248.276 28.3184C253.714 27.3273 257.85 33.114 255.153 37.9382Z" fill="url(#paint0_linear_1_13099)"/>
<path d="M185.432 0.0631039L96.4393 17.5009C94.9766 17.7875 93.8936 19.0271 93.8054 20.5147L88.3311 112.971C88.2023 115.149 90.2023 116.839 92.3277 116.349L117.105 110.631C119.423 110.096 121.518 112.138 121.041 114.469L113.68 150.516C113.184 152.942 115.462 155.016 117.831 154.297L133.135 149.647C135.507 148.927 137.787 151.007 137.285 153.435L125.587 210.056C124.855 213.598 129.566 215.529 131.53 212.493L132.843 210.465L205.359 65.7456C206.573 63.3225 204.479 60.5595 201.818 61.0731L176.314 65.9952C173.918 66.4573 171.879 64.2254 172.555 61.8805L189.201 4.1757C189.878 1.82693 187.832 -0.406958 185.432 0.0631039Z" fill="url(#paint1_linear_1_13099)"/>
</g>
<defs>
<linearGradient id="paint0_linear_1_13099" x1="-211.993" y1="1773.9" x2="12757.6" y2="19387.6" gradientUnits="userSpaceOnUse">
<stop stop-color="#41D1FF"/>
<stop offset="1" stop-color="#BD34FE"/>
</linearGradient>
<linearGradient id="paint1_linear_1_13099" x1="5180.12" y1="479.744" x2="7848.16" y2="18782.2" gradientUnits="userSpaceOnUse">
<stop stop-color="#FFEA83"/>
<stop offset="0.0833333" stop-color="#FFDD35"/>
<stop offset="1" stop-color="#FFA800"/>
</linearGradient>
<clipPath id="clip0_1_13099">
<rect width="256" height="257" fill="white"/>
</clipPath>
</defs>
</svg>
