<svg width="256" height="234" viewBox="0 0 256 234" fill="none" xmlns="http://www.w3.org/2000/svg">
<g clip-path="url(#clip0_1_13103)">
<path d="M192.115 70.8084L130.914 159.296C130.266 160.235 129.327 160.937 128.242 161.298C127.156 161.659 125.983 161.655 124.899 161.293C123.816 160.929 122.882 160.223 122.239 159.283C121.596 158.341 121.279 157.217 121.336 156.08L123.785 107.226L84.243 98.8398C83.398 98.6608 82.6106 98.2769 81.9507 97.7222C81.2907 97.1678 80.7784 96.4595 80.4593 95.6604C80.1403 94.8612 80.0243 93.9958 80.1215 93.1407C80.2187 92.2859 80.5261 91.4675 81.0165 90.7585L142.218 2.27035C142.867 1.33163 143.805 0.628983 144.891 0.26877C145.976 -0.0914432 147.15 -0.0895804 148.233 0.274358C149.317 0.638128 150.251 1.34399 150.894 2.28491C151.537 3.22567 151.854 4.35 151.797 5.48737L149.347 54.3424L188.889 62.7277C189.734 62.9067 190.521 63.2906 191.182 63.8451C191.842 64.3997 192.354 65.108 192.672 65.9072C192.992 66.7063 193.107 67.5717 193.011 68.4266C192.914 69.2817 192.606 70.0993 192.115 70.8084Z" fill="#FCC72B"/>
<path d="M128.025 233.538C126.397 233.54 124.785 233.221 123.281 232.598C121.777 231.975 120.411 231.06 119.262 229.909L61.4338 172.085C59.1204 169.76 57.8237 166.612 57.8279 163.331C57.8323 160.051 59.1373 156.904 61.4571 154.586C63.7767 152.266 66.9218 150.96 70.2023 150.955C73.483 150.951 76.6316 152.247 78.9577 154.56L128.025 203.622L234.917 96.7343C237.248 94.4416 240.389 93.1626 243.658 93.1759C246.928 93.1892 250.059 94.4937 252.369 96.8052C254.681 99.1169 255.986 102.248 256 105.517C256.012 108.786 254.733 111.928 252.44 114.258L136.785 229.909C135.636 231.062 134.27 231.975 132.767 232.598C131.264 233.221 129.652 233.54 128.025 233.538Z" fill="#729B1B"/>
<path d="M127.975 233.538C129.603 233.54 131.215 233.221 132.719 232.598C134.222 231.975 135.588 231.06 136.738 229.909L194.566 172.085C196.879 169.76 198.176 166.612 198.171 163.331C198.168 160.051 196.862 156.904 194.542 154.586C192.222 152.266 189.077 150.96 185.797 150.955C182.516 150.951 179.368 152.247 177.041 154.56L127.975 203.622L21.0823 96.7343C18.752 94.4416 15.6102 93.1626 12.3414 93.1759C9.07234 93.1892 5.94101 94.4937 3.62953 96.8052C1.318 99.1169 0.0135153 102.248 0.000101297 105.517C-0.0131069 108.786 1.26584 111.928 3.55847 114.258L119.214 229.909C120.363 231.062 121.729 231.975 123.232 232.598C124.736 233.221 126.348 233.54 127.975 233.538Z" fill="#729B1B" fill-opacity="0.5"/>
</g>
<defs>
<clipPath id="clip0_1_13103">
<rect width="256" height="234" fill="white"/>
</clipPath>
</defs>
</svg>
