<svg width="256" height="221" viewBox="0 0 256 221" fill="none" xmlns="http://www.w3.org/2000/svg">
<g clip-path="url(#clip0_1_13164)">
<path d="M89.1733 6.09524C86.8741 2.33352 82.7934 0.0280159 78.3848 0H12.8C5.73076 0 0 5.73076 0 12.8C0 15.213 0.675665 17.5779 1.95048 19.6267L18.8343 44.4343L103.253 26.1486L89.1733 6.09524Z" fill="#C9F4FF"/>
<path d="M103.619 26.6362C101.292 22.8735 97.1937 20.5713 92.7695 20.5409H27.4286C22.6394 20.32 18.1317 22.8067 15.7642 26.9756C13.3967 31.1445 13.5702 36.2896 16.2133 40.2895L35.0476 70.1562L122.27 56.5028L103.619 26.6362Z" fill="#51B9FF"/>
<path d="M34.2553 68.9371C32.1125 65.5039 31.6847 61.2705 33.0972 57.478C35.0565 52.4771 39.9173 49.2203 45.2877 49.3104H110.629C115.056 49.3291 119.159 51.6343 121.478 55.4057L180.175 148.48C181.45 150.529 182.126 152.894 182.126 155.307C182.116 157.718 181.441 160.081 180.175 162.133L147.383 214.126C145.022 217.835 140.93 220.081 136.533 220.081C132.137 220.081 128.045 217.835 125.684 214.126L34.2553 68.9371Z" fill="#007BFC"/>
<path d="M199.558 98.6819C201.919 102.391 206.011 104.637 210.408 104.637C214.804 104.637 218.896 102.391 221.257 98.6819L232.533 80.8229L254.05 46.6895C255.324 44.6407 256 42.2759 256 39.8629C255.99 37.4512 255.316 35.0889 254.05 33.0362L236.983 6.09524C234.656 2.33258 230.558 0.0303336 226.133 0H160.549C157.154 0 153.898 1.34857 151.498 3.74903C149.097 6.1495 147.748 9.40523 147.748 12.8C147.725 15.225 148.426 17.6018 149.76 19.6267L199.558 98.6819Z" fill="#007BFC"/>
</g>
<defs>
<clipPath id="clip0_1_13164">
<rect width="256" height="221" fill="white"/>
</clipPath>
</defs>
</svg>
