<svg width="256" height="137" viewBox="0 0 256 137" fill="none" xmlns="http://www.w3.org/2000/svg">
<g clip-path="url(#clip0_1_13183)">
<path d="M67.6543 1.60938L91.8729 83.9631L116.102 1.60938H133.632L93.5394 136.91H91.8709L66.813 53.0644L41.7571 136.91H40.0866L0 1.60938H17.5405L41.7571 83.9631L58.1291 28.5105L50.1117 1.61138H67.6543V1.60938Z" fill="#005A9C"/>
<path d="M183.427 93.4782C183.427 105.734 180.166 116.034 173.664 124.387C167.143 132.736 158.706 136.91 148.352 136.91C140.557 136.91 133.769 134.424 127.976 129.477C122.183 124.517 117.897 117.807 115.114 109.354L128.807 103.674C130.817 108.798 133.459 112.834 136.744 115.777C140.029 118.727 143.892 120.209 148.352 120.209C153.028 120.209 156.985 117.586 160.216 112.356C163.447 107.124 165.057 100.835 165.057 93.4802C165.057 85.3505 163.328 79.0659 159.873 74.6085C155.867 69.3801 149.574 66.7538 141.005 66.7538H134.325V58.7405L157.708 18.3166H129.474L121.621 31.6788H116.616V1.60938H181.752V9.79134L157.036 52.3917C165.717 55.1726 172.287 60.2444 176.743 67.5931C181.2 74.9398 183.427 83.5615 183.427 93.4782Z" fill="#005A9C"/>
<path d="M251.404 0.851562L254.243 18.119L244.188 37.3602C244.188 37.3602 240.325 29.2003 233.914 24.6827C228.507 20.8698 224.985 20.0465 219.485 21.177C212.404 22.6427 204.394 31.0917 200.897 41.5164C196.712 53.9851 196.672 60.0247 196.524 65.5664C196.293 74.4571 197.688 79.7076 197.688 79.7076C197.688 79.7076 191.584 68.4115 191.643 51.8668C191.679 40.0567 193.544 29.3429 199.003 18.7796C203.814 9.4893 210.95 3.91352 217.293 3.26298C223.846 2.57429 229.035 5.73062 233.036 9.16203C237.231 12.752 241.495 20.6027 241.495 20.6027L251.404 0.851562Z" fill="#221B0A"/>
<path d="M252.633 98.5813C252.633 98.5813 248.199 106.526 245.427 109.584C242.658 112.644 237.698 118.035 231.581 120.738C225.459 123.434 222.252 123.946 216.198 123.36C210.155 122.778 204.539 119.28 202.573 117.81C200.608 116.361 195.574 112.06 192.741 108.064C189.89 104.049 185.444 96.0273 185.444 96.0273C185.444 96.0273 187.92 104.061 189.474 107.47C190.362 109.432 193.108 115.431 197.001 120.666C200.626 125.535 207.673 133.925 218.389 135.815C229.103 137.712 236.464 132.905 238.281 131.737C240.102 130.576 243.941 127.364 246.376 124.76C248.914 122.047 251.314 118.577 252.633 116.511C253.611 114.989 255.195 111.921 255.195 111.921L252.633 98.5813Z" fill="#221B0A"/>
</g>
<defs>
<clipPath id="clip0_1_13183">
<rect width="256" height="137" fill="white"/>
</clipPath>
</defs>
</svg>
