<svg width="512" height="170" viewBox="0 0 512 170" fill="none" xmlns="http://www.w3.org/2000/svg">
<g clip-path="url(#clip0_1_13256)">
<path d="M100.792 39.0822V80.5814C100.792 90.3369 98.2297 98.045 93.1042 103.706C87.9787 109.367 81.0992 112.197 72.4657 112.197C68.1697 112.235 63.9257 111.257 60.0791 109.344C56.2424 107.422 52.9209 104.61 50.392 101.143C47.7607 104.604 44.386 107.43 40.5169 109.412C36.8926 111.212 32.9086 112.163 28.8666 112.198L28.361 112.197C19.7218 112.197 12.8309 109.35 7.68833 103.655C2.54578 97.9596 -0.0169549 90.2714 -3.88755e-05 80.5899V39.0822H12.8053V82.8622C12.8053 87.9364 14.229 92.0254 17.0765 95.1292C19.924 98.2329 23.6912 99.782 28.3781 99.7763C32.6597 99.9261 36.7966 98.2159 39.7225 95.0865C42.6554 91.9656 44.1218 87.8909 44.1218 82.8622V39.0822H56.8501V82.8622C56.8501 87.9364 58.2738 92.0254 61.1213 95.1292C63.9688 98.2329 67.736 99.782 72.423 99.7763C76.6903 99.9247 80.8104 98.2061 83.7075 95.0694C86.6006 91.9485 88.0499 87.8738 88.0556 82.8451V39.0822H100.792ZM163.366 110.881V75.0886C163.366 67.577 161.242 61.489 156.993 56.8249C152.745 52.1607 147.232 49.8315 140.455 49.8372C133.724 49.8372 128.197 52.1436 123.874 56.7565C119.552 61.3694 117.393 67.3093 117.399 74.5761C117.399 81.9795 119.62 88.056 124.062 92.8056C128.504 97.5552 134.165 99.9357 141.044 99.9471C144.151 99.9489 147.234 99.4023 150.151 98.3326C153.346 97.1275 156.343 95.4518 159.043 93.3609V107.191C156.138 108.838 153.023 110.082 149.783 110.89C146.442 111.704 143.014 112.109 139.575 112.095C136.124 112.091 132.693 111.561 129.401 110.523C126.142 109.524 123.056 108.028 120.252 106.089C115.241 102.706 111.163 98.1135 108.395 92.7373C105.708 87.3876 104.305 81.4886 104.291 75.5076L104.295 74.9092C104.295 64.1514 107.683 55.2701 114.46 48.2653C121.122 41.3793 129.559 37.8806 139.771 37.7694L140.301 37.7667C146.955 37.7023 153.495 39.5014 159.18 42.9605C164.847 46.3647 169.423 51.3173 172.37 57.2349C173.813 60.0578 174.834 63.0769 175.402 66.1959C176.119 71.0019 176.425 75.8602 176.316 80.7181V110.873L163.366 110.881ZM183.791 6.07422H196.673V110.881H183.791V6.07422ZM205.395 110.881V6.07422H218.277V65.1367H223.983C227.13 65.2706 230.248 64.4807 232.953 62.8644C235.27 61.3495 237.77 58.3739 240.453 53.9375L249.602 39.0822H264.602L254.069 56.1671C252.61 58.6335 250.943 60.9705 249.087 63.1529L248.577 63.7442C247.136 65.4614 245.4 66.9078 243.451 68.0155C249.357 69.1545 253.714 71.5834 256.521 75.3022C259.329 79.021 260.73 84.3031 260.724 91.1484V110.881H247.774V92.7288C247.774 87.6033 246.638 83.7592 244.357 81.3502C242.076 78.9413 238.497 77.7368 233.576 77.7368H218.277V110.881H205.395Z" fill="black"/>
<path d="M463.035 0H317.625C304.637 0 292.182 5.16 282.999 14.3446C273.816 23.5292 268.66 35.9859 268.66 48.9738V96.205C268.646 109.2 273.799 121.668 282.983 130.862C292.168 140.056 304.63 145.222 317.625 145.222H355.297L389.792 169.79L424.286 145.222H463.035C476.023 145.222 488.478 140.062 497.661 130.877C506.844 121.692 512 109.236 512 96.2477V48.9738C512 21.9297 490.079 0.00471728 463.035 0Z" fill="#0094D4"/>
<path d="M302.018 109.343V67.7929C302.018 58.0375 304.581 50.3293 309.706 44.6685C314.832 39.0078 321.734 36.1774 330.413 36.1774C334.678 36.1364 338.893 37.1022 342.714 38.9964C346.555 40.9456 349.887 43.7656 352.444 47.2313C355.046 43.7661 358.403 40.9384 362.259 38.9622C366.055 37.0851 370.241 36.1309 374.475 36.1774C383.069 36.1774 389.937 39.0248 395.08 44.7198C400.222 50.4148 402.785 58.103 402.768 67.7844V109.343H390.065V65.384C390.065 60.361 388.627 56.309 385.751 53.2281C379.49 47.0907 369.469 47.0907 363.208 53.2281C360.326 56.3034 358.885 60.3553 358.885 65.384V109.343H346.157V65.384C346.157 60.361 344.691 56.309 341.758 53.2281C338.805 50.147 334.678 48.4719 330.413 48.6237C325.732 48.6237 321.965 50.1585 319.112 53.2281C316.258 56.2977 314.835 60.3496 314.84 65.384V109.343H302.018ZM478.642 77.5313C476.831 87.7822 472.682 95.8833 466.195 101.835C459.709 107.786 451.807 110.761 442.49 110.761C439.314 110.759 436.154 110.328 433.093 109.48C430.017 108.636 427.073 107.368 424.346 105.713C408.532 96.0039 402.034 76.2998 408.97 59.0882C410.804 54.5867 413.484 50.4779 416.863 46.9835C423.596 39.9748 432.908 36.0322 442.627 36.0748C449.558 35.9622 456.36 37.9516 462.138 41.7812C467.861 45.6082 472.508 51.1807 476.079 58.4988L429.019 84.5703L423.594 74.8405L458.507 55.3551C456.496 53.0649 454.029 51.2202 451.263 49.9392C448.505 48.7041 445.512 48.0805 442.49 48.1111C436.269 48.0131 430.317 50.6485 426.208 55.321C421.789 60.1218 419.579 66.0617 419.579 73.1405C419.579 80.2193 421.8 86.1478 426.242 90.9259C430.242 95.3315 435.847 97.9418 441.793 98.1684C447.739 98.395 453.526 96.2188 457.849 92.1304C461.973 88.1097 464.535 82.5856 465.538 75.558L478.642 77.5313Z" fill="white"/>
</g>
<defs>
<clipPath id="clip0_1_13256">
<rect width="512" height="170" fill="white"/>
</clipPath>
</defs>
</svg>
