<svg width="256" height="256" viewBox="0 0 256 256" fill="none" xmlns="http://www.w3.org/2000/svg">
<g clip-path="url(#clip0_1_13262)">
<path d="M256 128C256 198.692 198.692 256 128 256C57.308 256 0 198.692 0 128C0 57.308 57.308 0 128 0C198.692 0 256 57.308 256 128Z" fill="#4356E6"/>
<mask id="mask0_1_13262" style="mask-type:luminance" maskUnits="userSpaceOnUse" x="0" y="0" width="256" height="256">
<path d="M256 128C256 198.692 198.692 256 128 256C57.308 256 0 198.692 0 128C0 57.308 57.308 0 128 0C198.692 0 256 57.308 256 128Z" fill="white"/>
</mask>
<g mask="url(#mask0_1_13262)">
<path d="M128 172.297C116.635 172.59 92.869 165.271 56.516 129.151C88.439 96.8413 110.497 85.7013 127.532 85.2903C138.897 84.9973 159.565 91.3543 199.332 129.151C168.324 160.077 145.036 171.886 128 172.297ZM214.814 130.564C214.424 130.186 213.773 129.525 213.384 129.151C231.674 110.972 244.821 97.6093 253.495 88.6833C252.445 85.3303 251.26 82.0373 249.955 78.8053C238.354 90.3953 219.015 109.796 206.511 122.91C173.919 91.5263 147.793 75.9653 128.102 76.1183C127.837 76.1203 127.572 76.1263 127.311 76.1283C106.192 76.2593 81.341 92.0003 49.642 122.579C49.3 122.251 21.573 93.0943 6.63304 77.3673C5.11704 80.9963 3.75804 84.7063 2.56604 88.4923C18.236 105.019 42.57 129.466 42.835 129.72C42.249 130.283 18.729 153.698 3.33204 169.868C4.52204 173.412 5.86304 176.887 7.34004 180.289C22.288 164.666 48.895 136.895 49.596 136.222C83.24 167.439 108.591 182.183 127.32 182.183C127.585 182.183 127.85 182.18 128.111 182.174C147.73 181.699 170.433 169.558 206.646 135.755C206.982 136.078 233.893 163.797 249.041 179.418C250.393 176.241 251.62 172.999 252.723 169.699C243.385 159.474 229.813 145.059 214.814 130.564Z" fill="white"/>
</g>
<mask id="mask1_1_13262" style="mask-type:luminance" maskUnits="userSpaceOnUse" x="0" y="0" width="256" height="256">
<path d="M256 128C256 198.692 198.692 256 128 256C57.308 256 0 198.692 0 128C0 57.308 57.308 0 128 0C198.692 0 256 57.308 256 128Z" fill="white"/>
</mask>
<g mask="url(#mask1_1_13262)">
<path d="M149.691 114.465V143.978L128 154.763L106.308 143.367V113.854L128 103.153L149.691 114.465ZM123.945 94.9343L102.253 105.635C99.1254 107.179 97.1444 110.365 97.1444 113.854V143.367C97.1444 146.772 99.0324 149.896 102.045 151.48L123.737 162.877C125.071 163.577 126.535 163.927 128 163.927C129.396 163.927 130.794 163.609 132.08 162.969L153.771 152.184C156.886 150.635 158.855 147.457 158.855 143.978V114.465C158.855 111.05 156.957 107.918 153.928 106.339L132.237 95.0273C130.911 94.3353 129.456 93.9883 128 93.9883C126.612 93.9883 125.224 94.3033 123.945 94.9343Z" fill="white"/>
</g>
</g>
<defs>
<clipPath id="clip0_1_13262">
<rect width="256" height="256" fill="white"/>
</clipPath>
</defs>
</svg>
