<svg width="256" height="221" viewBox="0 0 256 221" fill="none" xmlns="http://www.w3.org/2000/svg">
<g clip-path="url(#clip0_1_13273)">
<path d="M222.168 45.8034L222.797 47.5908C225.985 56.436 230.408 72.4166 232.221 79.3205L233.536 78.4701C240.494 74.0455 252.853 67.2981 255.517 70.1667C259.065 73.9979 242.146 142.266 235.101 145.377L232.026 170.207C231.691 172.849 231.342 175.544 230.984 178.229L230.257 183.57L229.166 191.081C227.39 202.765 225.551 211.997 224.07 212.32C223.808 211.017 223.638 209.611 223.5 208.135L223.247 205.095C223.054 202.562 222.848 199.901 222.411 197.291L222.147 195.925C221.339 192.253 219.603 188.406 214.312 185.412C208.801 182.32 201.616 185.883 191.929 191.921L182.568 197.873C181.296 198.68 179.991 199.503 178.648 200.338C167.33 207.341 158.043 211.133 150.788 213.906L148.564 214.75C145.98 215.727 143.704 216.602 141.711 217.476L140.872 217.762L137.324 219.088C135.539 219.742 133.801 220.23 130.999 220.434L129.896 220.497H126.104C122.235 220.334 120.268 219.702 118.001 218.836L115.9 218.042C115.401 217.858 114.867 217.669 114.289 217.476C112.694 216.777 110.911 216.077 108.945 215.325L104.05 213.459C96.9736 210.725 88.0743 206.972 77.352 200.338L73.4292 197.873L65.1665 192.602C54.9191 186.153 47.4045 182.195 41.7011 185.412C35.7229 188.78 34.2829 193.229 33.6015 197.291C33.2544 199.249 33.0592 201.235 32.9019 203.174L32.753 205.095C32.5473 207.679 32.3673 210.148 31.9302 212.308C30.0887 211.906 27.6939 197.737 25.5513 182.2L25.0116 178.222L23.9678 170.199C23.408 165.796 22.8856 161.54 22.4193 157.72L21.1286 147.152C21.0473 146.51 20.9708 145.917 20.8994 145.377C13.854 142.266 -3.06504 73.9979 0.483334 70.1667C3.33747 67.1069 17.1967 74.9879 23.7792 79.3205L25.0726 74.4984C27.105 67.0493 30.2274 56.1205 32.7395 48.8995L33.203 47.5908C45.7766 11.4385 59.2759 -0.376596 64.9327 0.0090971C67.2083 0.176231 68.2239 1.59044 67.5426 5.06168L66.9252 8.29556C64.7808 19.9845 63.9242 29.7582 63.5392 35.6395L63.2182 41.1787C63.196 41.4391 63.1732 41.5832 63.1457 41.5997C79.2908 25.6209 100.578 15.9254 123.184 14.2081L125.242 14.074H130.771C154.131 15.3497 176.214 25.1424 192.841 41.5997C192.819 41.5832 192.8 41.4415 192.779 41.1817L192.456 35.6329C192.033 29.2236 191.06 18.1753 188.457 5.06168C187.776 1.59044 188.792 0.163374 191.067 0.0090971C196.63 -0.370168 209.788 11.048 222.168 45.8034ZM199.887 135.837C195.233 136.3 183.983 140.466 171.037 149.324C151.289 162.823 145.067 172.17 144.026 176.322C143.228 179.498 142.997 182.905 142.984 184.422C142.984 184.551 143.074 184.641 143.203 184.641C150.916 184.591 164.876 181.692 178.78 175.037L180.384 174.253C193.866 167.511 195.691 165.491 197.18 162.528L198.035 160.753C199.044 158.736 199.594 152.546 199.872 146.443L199.913 145.481C200.058 141.959 200.114 138.542 200.119 136.056C200.123 135.995 200.099 135.934 200.054 135.892C200.009 135.85 199.948 135.83 199.887 135.837ZM56.1389 135.825C56.0753 135.816 56.0113 135.838 55.9659 135.883C55.9205 135.928 55.8989 135.992 55.9075 136.056L55.9277 138.866C55.9559 140.933 56.0152 143.304 56.1169 145.716L56.157 146.622C56.164 146.773 56.1712 146.924 56.1786 147.075L56.2249 147.98C56.5234 153.555 57.0664 158.9 57.9902 160.74L58.4402 161.692C58.6259 162.077 58.8011 162.442 58.9861 162.795L59.2734 163.317L59.5904 163.829C61.1629 166.212 64.2027 168.533 75.6421 174.253C90.0542 181.452 104.813 184.589 112.836 184.641C112.952 184.641 113.042 184.551 113.042 184.422C112.982 181.694 112.638 178.979 112.013 176.322L111.833 175.709C110.362 171.291 103.818 162.195 85.0016 149.324C72.0423 140.453 60.7929 136.3 56.1389 135.825Z" fill="#5645BD"/>
</g>
<defs>
<clipPath id="clip0_1_13273">
<rect width="256" height="221" fill="white"/>
</clipPath>
</defs>
</svg>
