<svg width="512" height="83" viewBox="0 0 512 83" fill="none" xmlns="http://www.w3.org/2000/svg">
<g clip-path="url(#clip0_1_13276)">
<path d="M71.3415 14.7081L71.5434 15.2821C72.5672 18.1224 73.9874 23.254 74.5695 25.471L74.9918 25.1979C77.2262 23.7771 81.1948 21.6104 82.0501 22.5316C83.1896 23.7618 77.7566 45.6836 75.4942 46.6827L74.5069 54.6559C74.3994 55.5042 74.2874 56.3696 74.1724 57.232L73.9388 58.9471L73.5886 61.3588C73.0182 65.1109 72.4277 68.0753 71.9521 68.1792C71.8679 67.7606 71.8134 67.3093 71.769 66.8351L71.6879 65.859C71.6259 65.0457 71.5599 64.1912 71.4195 63.3531L71.3345 62.9143C71.0751 61.7354 70.5177 60.4999 68.8186 59.5385C67.0491 58.5457 64.7417 59.6897 61.6311 61.6287L58.6251 63.5399C58.2169 63.799 57.7979 64.0632 57.3665 64.3315C53.7321 66.5801 50.75 67.798 48.4201 68.6884L47.706 68.9595C46.8762 69.2732 46.1455 69.5539 45.5056 69.8347L45.2362 69.9267L44.0969 70.3524C43.5234 70.5624 42.9655 70.7192 42.0657 70.7847L41.7116 70.8048H40.4937C39.2515 70.7523 38.6199 70.5496 37.8919 70.2713L37.2173 70.0163C37.0568 69.9575 36.8855 69.8966 36.6997 69.8347C36.1878 69.6101 35.6151 69.3855 34.9838 69.144L33.4119 68.5449C31.1396 67.6669 28.2819 66.4618 24.8389 64.3315L23.5792 63.5399L20.9259 61.8472C17.6353 59.7764 15.2223 58.5053 13.3908 59.5385C11.4711 60.6201 11.0087 62.0485 10.7899 63.3531C10.6785 63.9816 10.6158 64.6195 10.5653 65.2422L10.5175 65.859C10.4514 66.6888 10.3936 67.4815 10.2533 68.1751C9.66192 68.046 8.89292 63.4962 8.20488 58.5071L8.03159 57.2297L7.69639 54.6534C7.51665 53.2394 7.3489 51.8728 7.19917 50.6461L6.7847 47.2527C6.75859 47.0466 6.73403 46.856 6.71109 46.6827C5.65883 46.218 3.92067 41.227 2.47693 35.897L2.2627 35.0955C0.709683 29.2067 -0.427762 23.161 0.155206 22.5316C1.07171 21.549 5.52212 24.0797 7.63585 25.471L8.05117 23.9225C8.7038 21.5305 9.70644 18.0211 10.5131 15.7024L10.662 15.2821C14.6995 3.67306 19.0343 -0.120931 20.8508 0.00292121C21.5816 0.0565903 21.9077 0.510713 21.6889 1.62538L21.4907 2.66383C20.8021 6.4173 20.527 9.5558 20.4034 11.4443L20.3003 13.2231C20.2932 13.3067 20.2858 13.353 20.277 13.3583C25.4614 8.22724 32.2971 5.11386 39.5561 4.56244L40.2171 4.51938H41.9923C49.4937 4.92901 56.5848 8.07359 61.9242 13.3583C61.9171 13.353 61.9108 13.3075 61.9043 13.2241L61.8004 11.4422C61.6645 9.38412 61.352 5.83634 60.5164 1.62538C60.2976 0.510713 60.6238 0.0524619 61.3545 0.00292121C63.1407 -0.118866 67.366 3.54768 71.3415 14.7081ZM64.1866 43.6194C62.6921 43.768 59.0798 45.1056 54.9225 47.9501C48.5812 52.2849 46.5831 55.2862 46.2487 56.6197C45.9927 57.6394 45.9184 58.7334 45.9143 59.2206C45.9143 59.2619 45.9432 59.2908 45.9845 59.2908C48.4612 59.2749 52.944 58.344 57.4088 56.207L57.9238 55.955C62.2531 53.7904 62.8394 53.1417 63.3172 52.19L63.5921 51.6202C64.1205 50.5633 64.2568 45.9395 64.2612 43.6896C64.2623 43.6698 64.2547 43.6505 64.2403 43.6369C64.226 43.6233 64.2062 43.6169 64.1866 43.6194ZM18.027 43.6153C18.0066 43.6125 17.986 43.6194 17.9715 43.634C17.9569 43.6486 17.9499 43.6691 17.9527 43.6896L17.9592 44.5918C17.992 46.9978 18.1565 50.6897 18.6215 51.6161L18.766 51.9216C18.8256 52.0454 18.8819 52.1624 18.9413 52.2757L19.0335 52.4434L19.1353 52.608C19.6403 53.373 20.6164 54.1183 24.2898 55.955C28.9177 58.2669 33.6571 59.2743 36.2332 59.2908C36.2704 59.2908 36.2993 59.2619 36.2993 59.2206C36.2803 58.3445 36.1696 57.4727 35.969 56.6197L35.9113 56.4228C35.439 55.0041 33.3376 52.0833 27.2953 47.9501C23.1338 45.1015 19.5215 43.768 18.027 43.6153Z" fill="#5645BD"/>
<path d="M157.862 16.0245C158.524 18.2892 159.242 20.8596 160.017 23.7327C160.848 26.5524 161.703 29.479 162.587 32.5183L165.407 41.6364C166.345 44.6757 167.256 47.4954 168.138 50.0925C168.859 47.2728 169.577 44.2068 170.296 40.8914C171.067 37.576 171.789 34.1508 172.451 30.6128C173.115 27.0748 173.751 23.5665 174.359 20.0849C175.021 16.5499 175.629 13.1514 176.181 9.88941H189.609C187.63 19.7013 185.392 29.4589 182.895 39.1521C180.525 48.6402 177.815 58.0403 174.772 67.3343H162.92C160.917 61.823 159.039 56.2673 157.286 50.6713C155.465 44.822 153.668 38.9649 151.896 33.1001L146.592 50.6713C144.891 56.2745 143.039 61.8308 141.039 67.3343H129.184C126.138 58.0336 123.401 48.6343 120.977 39.1521C118.535 29.452 116.324 19.695 114.347 9.88941H128.356C129.532 16.8197 130.83 23.7285 132.25 30.6128C132.969 34.1478 133.687 37.576 134.405 40.8914C135.18 44.2068 135.955 47.2728 136.726 50.0925C137.724 47.3856 138.688 44.5125 139.629 41.4702C140.567 38.4308 141.481 35.3915 142.366 32.3521C143.216 29.4372 144.017 26.5082 144.77 23.5665L146.842 16.0245H157.865H157.862ZM211.404 58.7119C212.621 58.7119 213.779 58.6852 214.886 58.6288C215.99 58.5754 216.874 58.4923 217.536 58.3825V49.0151C216.796 48.8675 216.049 48.7566 215.298 48.6827C214.391 48.5773 213.478 48.5218 212.565 48.5165C211.404 48.5165 210.297 48.5996 209.249 48.7658C208.328 48.8552 207.429 49.1074 206.596 49.5108C205.824 49.8966 205.216 50.425 204.773 51.0869C204.328 51.7487 204.108 52.5798 204.108 53.5741C204.108 55.5093 204.744 56.8628 206.014 57.6345C207.341 58.3528 209.136 58.7119 211.404 58.7119ZM210.41 22.5722C214.055 22.5722 217.094 22.9877 219.528 23.8158C221.959 24.6469 223.891 25.8341 225.33 27.3776C226.841 28.9599 227.924 30.9006 228.477 33.017C229.088 35.2282 229.391 37.6858 229.391 40.3927V66.0907C227.622 66.4765 225.164 66.9218 222.012 67.4174C218.866 67.9695 215.052 68.2455 210.573 68.2455C207.756 68.2455 205.186 67.9962 202.865 67.5005C200.6 67.0019 198.638 66.2005 196.979 65.0964C195.342 63.9596 194.029 62.4173 193.168 60.6204C192.283 58.7951 191.841 56.5571 191.841 53.9066C191.841 51.3629 192.34 49.208 193.334 47.439C194.382 45.67 195.765 44.2632 197.478 43.2124C199.292 42.1239 201.284 41.3661 203.363 40.9745C205.622 40.4712 207.93 40.2203 210.244 40.2265C211.846 40.2265 213.253 40.3126 214.47 40.4758C215.74 40.5857 216.764 40.7519 217.536 40.9745V39.814C217.536 37.7125 216.901 36.0296 215.631 34.7563C214.36 33.4859 212.149 32.8508 209 32.8508C206.898 32.8508 204.827 33.017 202.782 33.3494C200.737 33.6254 198.971 34.038 197.478 34.5901L195.905 24.6469C196.62 24.4243 197.507 24.2017 198.555 23.982C199.659 23.706 200.849 23.4834 202.117 23.3172C203.393 23.0975 204.717 22.9313 206.097 22.8215C207.534 22.6553 208.973 22.5722 210.41 22.5722ZM278.216 23.7327C275.876 31.6904 273.277 39.57 270.425 47.3589C267.76 54.6038 264.802 61.7371 261.556 68.7412C260.396 71.2285 259.235 73.3299 258.075 75.0425C256.914 76.8115 255.641 78.2481 254.261 79.3522C252.881 80.5128 251.304 81.3409 249.535 81.8395C247.823 82.3916 245.807 82.6706 243.486 82.6706C241.673 82.6836 239.865 82.4884 238.096 82.0888C236.737 81.8291 235.405 81.4405 234.119 80.9283L236.274 71.0652C237.544 71.5045 238.678 71.8073 239.672 71.9765C240.667 72.1397 241.717 72.2228 242.822 72.2228C245.033 72.2228 246.719 71.6173 247.879 70.4004C249.096 69.2428 250.117 67.6104 250.945 65.5089C247.878 59.437 245.058 53.2434 242.492 46.9434C239.672 40.0336 237.019 32.2987 234.535 23.7327H247.63C248.182 25.8876 248.817 28.2353 249.535 30.779C250.31 33.2663 251.112 35.807 251.94 38.4071C252.771 40.9478 253.599 43.4321 254.427 45.8659C255.311 48.2968 256.14 50.5051 256.914 52.4967C257.632 50.5081 258.377 48.2968 259.152 45.8659C259.924 43.4321 260.672 40.9478 261.39 38.4041C262.162 35.807 262.883 33.2663 263.545 30.776C264.263 28.2353 264.898 25.8876 265.451 23.7327H278.216ZM301.332 57.4683C303.157 57.4683 304.65 57.3318 305.811 57.0528C307.025 56.7263 307.993 56.3107 308.711 55.8121C309.429 55.26 309.928 54.6249 310.204 53.9066C310.48 53.1883 310.616 52.3869 310.616 51.5024C310.616 49.6236 309.732 48.0742 307.966 46.8603C306.197 45.5869 303.157 44.2335 298.848 42.7969C296.94 42.1227 295.059 41.3762 293.208 40.559C291.387 39.7112 289.687 38.6242 288.154 37.3267C286.655 35.9918 285.418 34.3894 284.506 32.6014C283.568 30.7226 283.099 28.4579 283.099 25.8044C283.099 23.1539 283.595 20.7765 284.589 18.675C285.583 16.5202 286.993 14.6978 288.815 13.2048C290.641 11.7148 292.852 10.581 295.449 9.8063C298.046 8.9782 300.973 8.56266 304.235 8.56266C308.102 8.56266 311.447 8.9782 314.264 9.80927C317.084 10.6374 319.405 11.5486 321.227 12.5399L317.496 22.7384C315.894 21.9073 314.098 21.192 312.109 20.5835C310.174 19.9187 307.826 19.5892 305.063 19.5892C301.97 19.5892 299.732 20.0315 298.349 20.916C297.022 21.7441 296.36 23.0411 296.36 24.8101C296.36 25.8608 296.61 26.7453 297.105 27.4636C297.604 28.1819 298.293 28.8438 299.177 29.4523C300.118 30.0043 301.169 30.5297 302.329 31.0254C303.543 31.4706 304.87 31.9395 306.307 32.4352C309.29 33.5423 311.89 34.6465 314.098 35.7506C316.309 36.8013 318.132 38.045 319.568 39.4815C321.045 40.8928 322.18 42.6227 322.887 44.5392C323.605 46.4714 323.964 48.8222 323.964 51.5855C323.964 56.943 322.085 61.1161 318.327 64.102C314.57 67.0286 308.904 68.4949 301.332 68.4949C298.791 68.4949 296.497 68.3286 294.455 67.9962C292.609 67.7597 290.78 67.3998 288.982 66.9188C287.6 66.5342 286.244 66.0633 284.921 65.5089C283.96 65.0847 283.019 64.6152 282.102 64.102L285.752 53.8235C287.462 54.7614 289.563 55.6192 292.051 56.3909C294.591 57.1092 297.687 57.4683 301.332 57.4683ZM331.01 45.5305C331.01 42.3843 331.509 39.4281 332.503 36.6648C333.486 33.9549 335.008 31.4728 336.979 29.3692C338.956 27.2388 341.356 25.5445 344.025 24.3946C346.789 23.1777 349.938 22.5722 353.476 22.5722C355.797 22.5722 357.922 22.7948 359.857 23.2341C361.793 23.6199 363.671 24.2017 365.494 24.9763L362.923 34.8394C361.679 34.3726 360.406 33.986 359.112 33.6818C357.59 33.3345 356.032 33.1671 354.47 33.1832C350.822 33.1832 348.086 34.314 346.263 36.5817C344.494 38.8463 343.61 41.8293 343.61 45.5335C343.61 49.4574 344.441 52.4967 346.097 54.6516C347.81 56.8064 350.766 57.8838 354.966 57.8838C356.459 57.8838 358.062 57.7443 359.774 57.4683C361.397 57.2183 362.983 56.7738 364.499 56.1445L366.239 66.2569C364.802 66.8624 363.007 67.3877 360.852 67.83C358.697 68.2752 356.319 68.4949 353.722 68.4949C349.745 68.4949 346.32 67.9131 343.444 66.7526C340.571 65.5356 338.196 63.9062 336.317 61.8611C334.467 59.772 333.082 57.3135 332.254 54.6486C331.405 51.6854 330.987 48.6157 331.01 45.5335V45.5305ZM400.805 34.6732C399.515 34.3574 398.216 34.0813 396.908 33.8451C395.329 33.5048 393.718 33.3386 392.103 33.3494C391.158 33.3632 390.216 33.4455 389.283 33.5958C388.471 33.6639 387.667 33.8029 386.879 34.0113V67.3343H374.529V26.0538C376.74 25.2821 379.337 24.5608 382.32 23.8989C385.359 23.1806 388.731 22.8215 392.432 22.8215C393.097 22.8215 393.899 22.8749 394.837 22.9877C395.777 23.0411 396.715 23.1539 397.656 23.3172C398.594 23.43 399.535 23.5962 400.473 23.8158C401.414 23.982 402.215 24.2017 402.877 24.4777L400.805 34.6732ZM421.849 67.3343H409.499V23.7327H421.849V67.3343ZM423.01 11.1331C423.01 13.3977 422.265 15.1964 420.772 16.5202C419.362 17.7822 417.526 18.464 415.634 18.4287C413.718 18.4554 411.858 17.7761 410.41 16.5202C408.974 15.1934 408.255 13.3977 408.255 11.1331C408.255 8.86838 408.974 7.09642 410.41 5.82903C411.837 4.52804 413.704 3.81724 415.634 3.84039C417.623 3.84039 419.335 4.50228 420.772 5.82903C422.265 7.09938 423.01 8.86838 423.01 11.1331ZM461.394 45.8659C461.394 42.0519 460.539 39.0096 458.823 36.7479C457.111 34.4268 454.57 33.2663 451.198 33.2663C450.094 33.2663 449.07 33.3197 448.132 33.4325C447.354 33.469 446.579 33.5513 445.811 33.6789V55.9783C446.583 56.474 447.58 56.8895 448.794 57.222C450.064 57.5514 451.338 57.7176 452.608 57.7176C458.464 57.7176 461.394 53.7671 461.394 45.8659ZM473.993 45.5335C473.993 48.9053 473.578 51.9714 472.75 54.7347C471.922 57.495 470.705 59.8725 469.102 61.8611C467.5 63.85 465.457 65.4392 463.136 66.5033C460.758 67.6104 458.022 68.1624 454.929 68.1624C453.313 68.1721 451.701 68.0049 450.121 67.6638C448.642 67.3373 447.198 66.8661 445.811 66.2569V82.6706H433.461V25.2227C434.565 24.8903 435.835 24.5875 437.272 24.3115C438.708 23.9791 440.201 23.703 441.748 23.4804C443.35 23.2608 444.953 23.0946 446.556 22.9847C448.126 22.8233 449.703 22.74 451.281 22.7354C454.873 22.7354 458.078 23.2875 460.898 24.3916C463.715 25.4423 466.092 26.962 468.024 28.9507C469.96 30.8859 471.423 33.2633 472.417 36.0801C473.468 38.8998 473.993 42.046 473.993 45.5305V45.5335ZM483.073 12.8753L495.423 10.8867V23.7327H510.261V34.0113H495.423V49.3475C495.423 51.9446 495.865 54.0164 496.75 55.5628C497.688 57.1092 499.54 57.8838 502.303 57.8838C503.663 57.8809 505.021 57.7697 506.364 57.5514C507.691 57.3055 508.995 56.945 510.261 56.474L512 66.0907C510.507 66.6991 508.851 67.2215 507.028 67.6638C505.203 68.109 502.965 68.3286 500.312 68.3286C496.943 68.3286 494.153 67.8834 491.941 67.0019C489.73 66.064 487.961 64.7906 486.634 63.1879C485.311 61.5317 484.37 59.543 483.818 57.222C483.299 54.685 483.049 52.1002 483.073 49.5108V12.8753Z" fill="#5645BD"/>
</g>
<defs>
<clipPath id="clip0_1_13276">
<rect width="512" height="83" fill="white"/>
</clipPath>
</defs>
</svg>
