<svg width="256" height="196" viewBox="0 0 256 196" fill="none" xmlns="http://www.w3.org/2000/svg">
<g clip-path="url(#clip0_1_13280)">
<path d="M201.603 106.302C216.263 106.302 228.147 94.418 228.147 79.7584C228.147 65.0988 216.263 53.2148 201.603 53.2148C186.944 53.2148 175.06 65.0988 175.06 79.7584C175.06 94.418 186.944 106.302 201.603 106.302Z" fill="#00A94B"/>
<path d="M231.199 50.0012C244.895 50.0012 255.998 38.8981 255.998 25.2018C255.998 11.5054 244.895 0.402344 231.199 0.402344C217.503 0.402344 206.399 11.5054 206.399 25.2018C206.399 38.8981 217.503 50.0012 231.199 50.0012Z" fill="#FF4131"/>
<path d="M166.502 195.635C157.019 195.635 147.917 190.13 143.829 180.919L78.8051 34.9023C73.2457 22.3663 78.8596 7.70465 91.3956 2.14522C103.932 -3.41421 118.593 2.19973 124.153 14.7357L189.176 160.753C194.736 173.289 189.122 187.95 176.586 193.51C173.316 194.981 169.882 195.635 166.502 195.635Z" fill="#FFBC00"/>
<path d="M89.7604 195.254C79.4046 195.254 69.5394 189.259 65.07 179.23L2.33561 38.2822C-3.71436 24.6561 2.39011 8.68636 16.0162 2.63639C29.6422 -3.41358 45.612 2.69089 51.662 16.317L114.396 157.265C120.446 170.891 114.342 186.861 100.716 192.911C97.173 194.491 93.4122 195.254 89.7604 195.254Z" fill="#0085F7"/>
</g>
<defs>
<clipPath id="clip0_1_13280">
<rect width="256" height="196" fill="white"/>
</clipPath>
</defs>
</svg>
