<svg width="256" height="261" viewBox="0 0 256 261" fill="none" xmlns="http://www.w3.org/2000/svg">
<g clip-path="url(#clip0_1_13286)">
<path d="M64.6529 244.897C54.0569 239.232 44.3829 232.106 35.7939 223.849V185.962L73.8439 151.602V185.875L226.665 47.8516C235.021 58.0756 241.777 69.6246 246.736 82.0926L64.6529 244.897Z" fill="#FF4B19"/>
<path d="M144.814 210.882L254.65 112.364C255.445 118.181 256 124.075 256 130.111C256 143.113 254.037 155.647 250.487 167.495L147.326 258.31C140.337 259.471 133.208 260.223 125.889 260.223C119.373 260.223 113.022 259.588 106.764 258.663V1.56C113.022 0.635 119.373 0 125.889 0C132.334 0 138.619 0.624 144.814 1.529V210.882Z" fill="#00D2FF"/>
<path d="M106.764 116.822L205.842 27.6082C195.358 19.4172 183.592 12.8482 170.886 8.15625L0 162.473C3.349 175.529 8.639 187.773 15.6 198.909L106.764 116.822Z" fill="#556991"/>
<path d="M35.7939 180.726V189.903L73.8439 155.542V10.8984C59.6479 17.1054 46.8079 25.7864 35.7939 36.3734V180.726Z" fill="#FF4B19"/>
</g>
<defs>
<clipPath id="clip0_1_13286">
<rect width="256" height="261" fill="white"/>
</clipPath>
</defs>
</svg>
