<svg width="256" height="240" viewBox="0 0 256 240" fill="none" xmlns="http://www.w3.org/2000/svg">
<g clip-path="url(#clip0_1_13304)">
<path d="M85.3675 43.7843C85.3675 43.7843 75.8803 49.2616 75.8803 60.1992C75.8803 71.1538 75.8803 114.87 75.8803 114.87C75.8803 114.87 75.8803 125.824 66.3931 120.347C56.906 114.87 56.906 103.932 56.906 103.932C56.906 103.932 56.906 60.1992 56.906 49.2616C56.906 48.5791 56.9401 47.9136 57.0083 47.2652C58.0492 37.6415 66.3761 32.8297 66.3761 32.8297L47.4188 21.8922C47.4188 21.8922 47.4017 21.8922 47.3847 21.9092C46.8216 22.2334 37.9316 27.7107 37.9316 38.307C37.9316 49.2616 37.9316 92.9777 37.9316 92.9777C37.9316 92.9777 37.9316 103.932 28.4444 98.455C18.9573 92.9777 18.9573 82.0401 18.9573 82.0401C18.9573 82.0401 18.9573 38.307 18.9573 27.3695C18.9573 16.4319 28.4444 10.9546 28.4444 10.9546L9.48717 0C9.48717 0 0 5.4773 0 16.4149C0 27.3695 0 71.0855 0 71.0855C0 71.0855 0 103.932 28.4444 120.347C37.1638 125.381 43.2042 125.773 47.4017 123.913C51.5993 130.619 57.6397 137.206 66.359 142.239C94.8034 158.654 94.8034 125.824 94.8034 125.824C94.8034 125.824 94.8034 82.0913 94.8034 71.1538C94.8034 60.1992 104.291 54.7389 104.291 54.7389C101.374 51.0705 98.7813 48.5793 96.5114 47.2652C94.5761 46.1449 90.8615 44.9846 85.3675 43.7843Z" fill="#808285"/>
<path d="M189.641 136.815C189.641 104.395 218.086 120.4 218.086 120.4L256 142.292V164.184L218.086 142.292C218.086 142.292 217.966 142.223 217.754 142.116L217.629 142.054C215.735 141.128 208.598 138.27 208.598 147.787C208.598 158.724 218.086 164.201 218.086 164.201L237.043 175.139C237.043 175.139 256 186.094 256 218.923C256 251.753 227.556 235.338 227.556 235.338L189.641 213.446V191.554L227.573 213.446C227.573 213.446 237.06 218.923 237.06 207.969C237.06 197.031 227.573 191.554 227.573 191.554L218.086 186.076C217.519 185.738 189.641 168.911 189.641 136.815ZM161.197 87.5703C166.866 88.2218 170.709 89.1305 172.727 90.2962C174.922 91.5648 177.398 94.3077 180.154 98.5249C180.154 98.5249 170.667 104.002 170.667 114.94L170.666 169.697C170.641 171.536 169.813 201.948 142.222 186.025C114.631 170.103 113.803 138.72 113.779 136.851L113.778 136.764L132.735 147.718L132.735 147.755C132.746 148.449 133.055 158.84 142.222 164.133C151.419 169.443 151.701 159.311 151.709 158.686L151.709 103.985C151.709 93.0476 161.197 87.5703 161.197 87.5703ZM113.812 93.1671L132.769 104.105V125.997L113.812 115.059V93.1671Z" fill="#BCBEC0"/>
<path d="M218.085 43.7826C209.349 38.7318 201.517 36.2747 194.845 35.2851C193.105 31.4799 188.839 27.0094 180.171 22.061C151.726 5.81682 123.299 21.8904 123.299 21.8904L85.3674 43.7826L104.325 54.7201L142.239 32.8279C142.239 32.8279 151.726 27.3506 161.197 32.8279C170.684 38.3053 161.197 43.7826 161.197 43.7826L123.282 65.6747L142.239 76.6123L180.188 54.703C180.751 54.3788 189.931 49.4134 199.111 54.7201C208.598 60.1974 199.111 65.6576 199.111 65.6576L161.197 87.5498L180.154 98.5044L227.556 71.1349C227.556 71.1349 246.513 60.1974 218.085 43.7826Z" fill="#F16822"/>
</g>
<defs>
<clipPath id="clip0_1_13304">
<rect width="256" height="240" fill="white"/>
</clipPath>
</defs>
</svg>
