<svg width="256" height="209" viewBox="0 0 256 209" fill="none" xmlns="http://www.w3.org/2000/svg">
<g clip-path="url(#clip0_1_13312)">
<path d="M255.997 104.028L228.192 150.849L189.201 103.389L228.192 57.207L255.997 104.028Z" fill="#166DA5"/>
<path d="M225.156 158.84L182.809 108.184L157.401 150.69L196.871 208.377L225.156 158.84Z" fill="#8FDB69"/>
<path d="M224.676 48.8986L182.809 99.7144L157.401 57.2081L196.871 0.160156L224.676 48.8986Z" fill="#166DA5"/>
<path opacity="0.95" d="M96.9974 48.8986H224.676L196.552 0.160156H125.122L96.9974 48.8986Z" fill="url(#paint0_linear_1_13312)"/>
<path opacity="0.95" d="M182.809 99.8728H253.44L228.032 57.0469H157.241" fill="url(#paint1_linear_1_13312)"/>
<path opacity="0.95" d="M225.156 159H96.8376L124.962 207.738H196.871L225.156 159Z" fill="url(#paint2_linear_1_13312)"/>
<path d="M124.962 207.738L64.878 103.869L125.761 0H59.9243L0 103.869L59.9243 207.738H124.962Z" fill="#010101"/>
<path opacity="0.95" d="M182.809 108.023H253.44L228.032 150.849H157.241" fill="url(#paint3_linear_1_13312)"/>
</g>
<defs>
<linearGradient id="paint0_linear_1_13312" x1="96.9974" y1="2437.08" x2="12864.9" y2="2437.08" gradientUnits="userSpaceOnUse">
<stop stop-color="#2A3B8F"/>
<stop offset="1" stop-color="#29ABE2"/>
</linearGradient>
<linearGradient id="paint1_linear_1_13312" x1="157.241" y1="2198.34" x2="9777.09" y2="2198.34" gradientUnits="userSpaceOnUse">
<stop stop-color="#2A3B8F"/>
<stop offset="1" stop-color="#29ABE2"/>
</linearGradient>
<linearGradient id="paint2_linear_1_13312" x1="12928.6" y1="2595.92" x2="96.8376" y2="2595.92" gradientUnits="userSpaceOnUse">
<stop stop-color="#B4D44E"/>
<stop offset="1" stop-color="#E7F716"/>
</linearGradient>
<linearGradient id="paint3_linear_1_13312" x1="9777.09" y1="2249.32" x2="157.241" y2="2249.32" gradientUnits="userSpaceOnUse">
<stop stop-color="#B4D44E"/>
<stop offset="1" stop-color="#E7F716"/>
</linearGradient>
<clipPath id="clip0_1_13312">
<rect width="256" height="209" fill="white"/>
</clipPath>
</defs>
</svg>
