<svg width="512" height="275" viewBox="0 0 512 275" fill="none" xmlns="http://www.w3.org/2000/svg">
<g clip-path="url(#clip0_1_13322)">
<path d="M73.7077 219.645L56.4717 274.103H54.5738L37.2989 223.828C37.1207 223.322 36.9783 222.804 36.8729 222.278C36.7669 222.804 36.6246 223.322 36.4469 223.828L19.0949 274.103H17.2359L0 219.645H1.74283C2.15105 219.622 2.51419 219.902 2.59475 220.303L17.6233 268.68C17.8907 269.598 18.1105 270.528 18.282 271.469C18.3848 270.953 18.4946 270.462 18.6113 269.997C18.7271 269.532 18.8498 269.093 18.9792 268.68L35.7506 220.303C35.8533 219.883 36.2496 219.602 36.6801 219.645H37.1836C37.5918 219.622 37.9549 219.902 38.0355 220.303L54.8069 268.68C55.0906 269.583 55.3232 270.501 55.5037 271.43C55.6065 270.914 55.7098 270.43 55.8135 269.977C55.9164 269.526 56.0326 269.093 56.1623 268.68L71.1905 220.303C71.2932 219.883 71.6895 219.602 72.1199 219.645H73.7077ZM116.739 272.282L116.661 274.103H84.5131V219.645H116.661V221.465H86.6437V245.595H111.936V247.377H86.6437V272.282H116.739ZM144.316 219.645C150.255 219.645 154.67 220.833 157.562 223.208C160.454 225.584 161.9 228.954 161.9 233.317C161.904 234.824 161.614 236.317 161.049 237.713C160.479 239.124 159.673 240.427 158.667 241.567C157.604 242.763 156.347 243.772 154.948 244.549C153.435 245.396 151.793 245.985 150.087 246.293C152.131 246.483 154.139 246.959 156.052 247.707C157.696 248.348 159.211 249.279 160.526 250.456C161.742 251.565 162.7 252.927 163.334 254.446C163.997 256.074 164.326 257.819 164.302 259.578C164.342 261.699 163.933 263.804 163.101 265.756C162.315 267.532 161.113 269.093 159.596 270.307C157.924 271.615 156.008 272.576 153.96 273.135C151.488 273.813 148.932 274.139 146.369 274.103H129.559V219.645H144.316ZM131.689 221.349V245.712H144.587C146.965 245.771 149.334 245.397 151.578 244.608C153.329 243.978 154.936 243.003 156.304 241.741C157.479 240.642 158.393 239.291 158.976 237.791C159.515 236.414 159.798 234.95 159.809 233.472C159.809 229.573 158.537 226.578 155.994 224.486C153.45 222.395 149.558 221.349 144.316 221.349H131.689ZM146.369 272.36C151.456 272.36 155.361 271.269 158.085 269.087C160.809 266.905 162.171 263.723 162.172 259.539C162.201 257.785 161.823 256.049 161.068 254.465C160.329 252.964 159.255 251.652 157.93 250.631C156.448 249.509 154.765 248.681 152.973 248.191C150.836 247.598 148.625 247.311 146.407 247.339H131.689V272.36H146.369ZM223.059 246.874C223.119 250.769 222.49 254.644 221.2 258.319C220.073 261.506 218.291 264.421 215.971 266.879C213.705 269.229 210.956 271.059 207.914 272.243C204.617 273.515 201.107 274.146 197.573 274.103H177.935V219.645H197.573C201.107 219.602 204.617 220.233 207.914 221.504C210.956 222.688 213.705 224.519 215.971 226.868C218.291 229.326 220.072 232.242 221.2 235.428C222.49 239.104 223.119 242.979 223.059 246.874ZM220.812 246.874C220.872 243.195 220.302 239.534 219.127 236.048C218.119 233.077 216.495 230.351 214.363 228.05C212.304 225.877 209.791 224.184 207.004 223.092C203.998 221.928 200.796 221.349 197.573 221.388H180.065V272.36H197.573C200.796 272.399 203.998 271.82 207.004 270.656C209.791 269.564 212.304 267.871 214.363 265.698C216.496 263.396 218.119 260.671 219.127 257.699C220.302 254.213 220.872 250.552 220.812 246.874ZM272.907 274.103H271.164C270.907 274.107 270.652 274.067 270.408 273.986C270.146 273.874 269.923 273.685 269.769 273.444L250.558 249.933C250.375 249.675 250.16 249.441 249.919 249.236C249.696 249.054 249.448 248.904 249.183 248.791C248.873 248.665 248.547 248.58 248.215 248.539C247.759 248.483 247.299 248.457 246.84 248.462H238.9V274.103H236.769V219.645H249.9C255.813 219.645 260.306 220.794 263.379 223.092C266.451 225.391 267.987 228.876 267.987 233.549C268.016 235.557 267.606 237.546 266.787 239.379C265.995 241.11 264.847 242.654 263.417 243.911C261.867 245.25 260.081 246.288 258.15 246.971C255.944 247.761 253.634 248.224 251.294 248.345C251.812 248.649 252.271 249.042 252.65 249.507L272.907 274.103ZM238.9 246.835H249.28C251.616 246.865 253.945 246.558 256.194 245.924C258.092 245.397 259.868 244.502 261.423 243.291C262.828 242.177 263.955 240.751 264.715 239.127C265.497 237.401 265.888 235.522 265.858 233.627C265.858 229.419 264.489 226.32 261.752 224.331C259.014 222.343 255.064 221.349 249.9 221.349H238.9V246.835ZM285.145 274.103H283.014V219.645H285.145V274.103ZM342.314 219.645L319.693 274.103H317.796L295.176 219.645H296.841C297.25 219.622 297.613 219.902 297.693 220.303L317.911 269.067C318.066 269.481 318.215 269.9 318.357 270.326C318.498 270.753 318.634 271.185 318.764 271.624C318.992 270.758 319.263 269.905 319.577 269.067L339.757 220.303C339.859 219.883 340.255 219.602 340.686 219.645H342.314ZM384.569 272.282L384.491 274.103H352.344V219.645H384.491V221.465H354.474V245.595H379.766V247.377H354.474V272.282H384.569ZM433.527 274.103H431.784C431.527 274.107 431.272 274.067 431.029 273.986C430.766 273.874 430.543 273.685 430.389 273.444L411.178 249.933C410.995 249.675 410.78 249.441 410.539 249.236C410.316 249.054 410.068 248.904 409.803 248.791C409.493 248.665 409.167 248.58 408.835 248.539C408.379 248.483 407.92 248.457 407.46 248.462H399.52V274.103H397.39V219.645H410.52C416.433 219.645 420.926 220.794 423.999 223.092C427.071 225.391 428.608 228.876 428.608 233.549C428.636 235.557 428.226 237.546 427.407 239.379C426.615 241.11 425.467 242.654 424.037 243.91C422.487 245.25 420.701 246.287 418.77 246.97C416.564 247.761 414.254 248.224 411.914 248.345C412.432 248.649 412.891 249.042 413.27 249.507L433.527 274.103ZM399.52 246.835H409.9C412.236 246.865 414.565 246.558 416.814 245.924C418.712 245.397 420.489 244.502 422.043 243.291C423.448 242.177 424.575 240.751 425.335 239.127C426.117 237.401 426.508 235.522 426.478 233.627C426.478 229.419 425.109 226.32 422.372 224.331C419.634 222.343 415.684 221.349 410.52 221.349H399.52V246.835Z" fill="black"/>
<path d="M450.814 218.18H504.122C508.371 218.18 511.816 221.624 511.816 225.873V266.508C511.816 270.757 508.371 274.201 504.122 274.201H450.814C446.565 274.201 443.121 270.757 443.121 266.508V225.873C443.121 221.624 446.565 218.18 450.814 218.18Z" fill="#EA5906"/>
<path d="M454.966 263.662H453.62V229.253H454.966V263.662ZM458.905 265.081C458.838 265.26 458.708 265.408 458.538 265.497C458.379 265.578 458.203 265.62 458.024 265.62H457.535L473.001 228.812C473.142 228.479 473.472 228.265 473.833 228.274H474.372L458.905 265.081ZM506.774 246.457C506.81 248.934 506.412 251.398 505.599 253.738C504.884 255.787 503.76 257.668 502.296 259.269C500.875 260.796 499.137 261.994 497.205 262.781C493.002 264.412 488.34 264.412 484.137 262.781C482.205 261.994 480.468 260.796 479.046 259.269C477.581 257.668 476.457 255.786 475.742 253.738C474.176 249.015 474.176 243.912 475.742 239.189C476.456 237.136 477.58 235.25 479.046 233.646C480.471 232.117 482.207 230.911 484.137 230.11C486.201 229.26 488.415 228.835 490.647 228.861C492.893 228.833 495.123 229.253 497.205 230.097C499.136 230.891 500.873 232.093 502.296 233.621C503.762 235.225 504.886 237.112 505.599 239.165C506.411 241.509 506.809 243.977 506.774 246.457ZM505.354 246.457C505.39 244.117 505.03 241.788 504.29 239.568C503.65 237.656 502.626 235.894 501.28 234.392C499.989 232.977 498.402 231.866 496.631 231.137C492.8 229.636 488.543 229.636 484.712 231.137C482.941 231.866 481.353 232.977 480.062 234.392C478.714 235.897 477.682 237.657 477.027 239.568C475.575 244.046 475.575 248.868 477.027 253.346C477.678 255.252 478.711 257.004 480.062 258.498C481.358 259.901 482.945 261.003 484.712 261.729C488.543 263.23 492.799 263.23 496.63 261.729C498.397 261.003 499.984 259.9 501.28 258.498C502.629 257.007 503.654 255.253 504.29 253.346C505.03 251.126 505.39 248.797 505.354 246.457Z" fill="#F2F2F2"/>
<path d="M290.993 40.106C294.904 40.1178 298.071 43.2852 298.083 47.196V47.9224C302.836 48.6985 318.817 54.0639 318.817 71.3397V108.925C320.694 110.17 321.853 111.868 321.853 113.74C321.802 115.244 321.124 116.658 319.983 117.638C319.859 120.387 320.654 125.866 321.007 127.942L321.02 128.08C321.02 128.191 321.032 130.841 319.29 132.6C318.245 133.623 316.823 134.167 315.363 134.105C310.254 134.105 310.037 129.812 309.931 127.748C309.919 127.487 309.909 127.251 309.888 127.044C309.805 126.191 309.506 125.755 308.998 125.746H308.948C308.406 125.746 308.054 125.91 307.474 126.794C305.865 129.176 302.947 128.947 301.389 128.027C300.544 127.554 299.94 126.742 299.73 125.796C299.439 124.459 299.925 122.874 301.171 121.088C301.932 120.102 302.321 118.879 302.27 117.634C301.131 116.654 300.453 115.242 300.402 113.739C300.402 111.864 301.565 110.161 303.451 108.916V75.0546C303.451 72.2335 302.583 71.1583 300.795 69.5595C300.029 68.8906 299.088 68.453 298.083 68.2977V122.341C298.072 126.252 294.904 129.42 290.993 129.431H285.965V149.306H290.051L290.13 149.321C290.201 149.334 297.127 150.701 297.957 158.145V165.772H273.266L265.673 163.12V157.347C265.483 154.367 266.018 152.156 267.22 150.945V129.431H234.827V150.945C236.031 152.156 236.562 154.367 236.376 157.347V163.121L228.783 165.772H204.092V158.146C204.895 150.938 211.412 149.427 211.888 149.327L211.915 149.322L211.998 149.306H216.084V129.432H211.202C207.292 129.42 204.124 126.253 204.112 122.342V68.2948C203.108 68.451 202.168 68.8898 201.403 69.5599C199.614 71.1587 198.744 72.234 198.744 75.055V108.917C200.63 110.161 201.794 111.864 201.794 113.739C201.744 115.242 201.067 116.655 199.927 117.635C199.874 118.879 200.263 120.102 201.025 121.088C202.271 122.874 202.757 124.459 202.468 125.796C202.256 126.742 201.652 127.554 200.806 128.028C199.247 128.947 196.332 129.177 194.721 126.795C194.142 125.911 193.789 125.747 193.246 125.747H193.198C192.69 125.755 192.389 126.191 192.309 127.044C192.288 127.251 192.277 127.487 192.263 127.749C192.158 129.812 191.941 134.105 186.835 134.105C185.373 134.168 183.951 133.623 182.906 132.601C181.165 130.841 181.175 128.192 181.177 128.081L181.189 127.942C181.543 125.866 182.338 120.387 182.213 117.638C181.072 116.658 180.394 115.244 180.343 113.74C180.343 111.868 181.501 110.17 183.379 108.925V71.3397C183.379 54.0639 199.358 48.6985 204.112 47.9224V47.196C204.125 43.2855 207.292 40.1185 211.202 40.106H290.993ZM295.966 157.106H274.662C274.697 157.453 274.709 157.802 274.698 158.15H296.161C296.115 157.799 296.05 157.45 295.966 157.106ZM227.386 157.106H206.08C205.996 157.45 205.932 157.799 205.887 158.15H227.349C227.338 157.802 227.351 157.453 227.386 157.106ZM269.545 151.8C269.154 151.763 268.767 151.907 268.497 152.192C267.815 152.871 267.439 154.266 267.422 156.109L272.915 158.027C272.881 156.169 272.235 154.373 271.079 152.918C270.436 152.132 269.865 151.826 269.545 151.8ZM232.502 151.8C232.182 151.826 231.611 152.132 230.968 152.918C229.812 154.373 229.166 156.169 229.132 158.027L234.625 156.109C234.61 154.266 234.234 152.871 233.55 152.192C233.28 151.907 232.893 151.762 232.502 151.8ZM230.235 151.093H212.172C211.618 151.218 207.911 152.2 206.417 156.035H227.561C227.909 154.486 228.601 153.034 229.585 151.787C229.786 151.541 230.003 151.309 230.235 151.093ZM289.875 151.093H271.814C272.045 151.309 272.26 151.541 272.46 151.787C273.446 153.033 274.138 154.485 274.486 156.035H295.63C294.245 152.481 290.96 151.377 290.045 151.135L289.921 151.103L289.875 151.093ZM271.45 129.431H269.008V149.306H271.45V144.9H270.616V141.148H271.45V129.431ZM284.893 129.431H282.645V149.306H284.893V129.431ZM233.04 129.431H230.599V141.148H231.433V144.9H230.599V149.306H233.04V129.431ZM219.404 129.431H217.156V149.306H219.404V129.431ZM184 118.932C183.831 122.025 183.485 125.105 182.964 128.159C182.976 128.504 183.087 130.25 184.185 131.353C184.896 132.029 185.855 132.379 186.835 132.319C188.091 132.319 188.9 131.978 189.431 131.414C188.498 131.246 187.654 130.751 187.052 130.017C186.38 129.13 186.238 127.98 186.629 126.598C186.768 126.109 186.881 125.724 186.978 125.396C187.06 125.122 187.129 124.888 187.192 124.662L187.253 124.437C187.469 123.616 187.62 122.768 187.959 120.351C186.572 120.092 185.236 119.613 184 118.932ZM318.196 118.932C316.96 119.613 315.623 120.092 314.236 120.351C314.701 123.647 314.81 124.025 315.217 125.396C315.336 125.796 315.452 126.197 315.566 126.598C315.958 127.98 315.816 129.13 315.144 130.017C314.541 130.751 313.698 131.246 312.764 131.414C313.296 131.979 314.104 132.319 315.363 132.319C316.342 132.378 317.302 132.028 318.013 131.353C319.11 130.25 319.221 128.504 319.232 128.159C318.712 125.105 318.366 122.025 318.196 118.932ZM308.396 120.42C307.895 121.18 307.322 121.89 306.685 122.541C306.045 123.17 305.493 123.883 305.043 124.659C304.907 124.893 304.878 125.174 304.965 125.431C305.106 125.753 305.334 126.029 305.624 126.229C305.761 126.101 305.883 125.958 305.989 125.803C306.623 124.836 307.449 123.943 309.027 123.96C310.505 123.984 311.494 125.073 311.666 126.873C311.689 127.135 311.706 127.396 311.716 127.658C311.739 128.357 311.819 129.052 311.955 129.737C312.472 129.679 313.315 129.479 313.723 128.935C314.036 128.518 314.077 127.896 313.846 127.084C313.711 126.603 313.6 126.225 313.505 125.902C313.077 124.464 312.951 124.034 312.467 120.592C312.027 120.629 311.581 120.647 311.128 120.647C310.213 120.647 309.299 120.571 308.396 120.42ZM193.8 120.42C192.898 120.571 191.984 120.647 191.07 120.647C190.615 120.646 190.169 120.628 189.729 120.592C189.247 124.033 189.119 124.464 188.691 125.902C188.596 126.225 188.485 126.603 188.348 127.084C188.118 127.896 188.161 128.518 188.473 128.935C188.881 129.479 189.724 129.679 190.24 129.737C190.378 129.052 190.458 128.357 190.48 127.658C190.495 127.368 190.509 127.102 190.531 126.873C190.703 125.073 191.69 123.984 193.169 123.96C194.747 123.943 195.573 124.836 196.209 125.803C196.313 125.958 196.435 126.101 196.571 126.229C196.862 126.03 197.091 125.754 197.231 125.431C197.317 125.174 197.289 124.893 197.153 124.659C196.703 123.883 196.151 123.17 195.511 122.541C194.874 121.89 194.301 121.18 193.8 120.42ZM198.195 118.9C197.283 119.414 196.31 119.813 195.3 120.088C195.692 120.607 196.113 121.103 196.563 121.573C197.296 122.298 197.924 123.122 198.43 124.02C198.739 124.6 198.793 125.281 198.58 125.902C198.448 126.263 198.245 126.594 197.983 126.875C198.645 126.93 199.309 126.796 199.896 126.487C200.313 126.266 200.614 125.876 200.722 125.417C200.9 124.598 200.496 123.454 199.56 122.112C198.865 121.16 198.398 120.061 198.195 118.9ZM304 118.899C303.798 120.061 303.331 121.16 302.636 122.112C301.699 123.454 301.297 124.598 301.475 125.417C301.583 125.875 301.883 126.265 302.299 126.487C302.887 126.796 303.552 126.931 304.214 126.875C303.951 126.595 303.747 126.263 303.615 125.902C303.402 125.281 303.457 124.599 303.766 124.02C304.273 123.122 304.901 122.299 305.633 121.573C306.083 121.103 306.504 120.607 306.896 120.088C305.886 119.813 304.913 119.414 304 118.899ZM288.345 106.952H213.849V117.518C213.861 121.429 217.029 124.596 220.939 124.608H223.763C219.409 123.873 216.345 119.925 216.713 115.524C217.082 111.124 220.761 107.741 225.177 107.741C229.592 107.741 233.271 111.124 233.64 115.524C234.008 119.925 230.944 123.873 226.59 124.608H241.512C237.166 123.859 234.116 119.909 234.492 115.515C234.868 111.121 238.544 107.745 242.954 107.745C247.364 107.745 251.04 111.121 251.416 115.515C251.792 119.909 248.742 123.859 244.396 124.608H281.257C285.167 124.596 288.334 121.429 288.345 117.518V106.952ZM246.451 110.529C243.551 108.749 239.779 109.413 237.663 112.077C235.546 114.741 235.752 118.566 238.142 120.988C240.532 123.41 244.353 123.666 247.045 121.585C249.737 119.504 250.451 115.741 248.709 112.818L243.781 117.749C243.152 118.376 242.134 118.376 241.505 117.749C240.877 117.121 240.877 116.103 241.505 115.475L246.451 110.529ZM225.177 109.527C221.786 109.527 218.929 112.057 218.52 115.423C218.11 118.788 220.277 121.93 223.569 122.743V116.121C223.569 115.695 223.738 115.286 224.039 114.984C224.34 114.682 224.749 114.513 225.176 114.513C225.603 114.513 226.013 114.682 226.314 114.984C226.616 115.286 226.785 115.695 226.785 116.121V122.743C230.076 121.93 232.243 118.788 231.834 115.423C231.424 112.057 228.567 109.527 225.177 109.527ZM268.505 119.517C269.383 119.531 270.087 120.247 270.087 121.125C270.087 122.003 269.383 122.718 268.505 122.733H262.068C261.19 122.718 260.486 122.003 260.486 121.125C260.486 120.247 261.19 119.531 262.068 119.517H268.505ZM281.348 114.692C282.226 114.706 282.93 115.422 282.93 116.3C282.93 117.178 282.226 117.893 281.348 117.907H262.068C261.487 117.917 260.946 117.613 260.653 117.111C260.36 116.61 260.36 115.989 260.653 115.488C260.946 114.987 261.487 114.682 262.068 114.692H281.348ZM281.348 109.868C282.236 109.868 282.956 110.588 282.956 111.476C282.956 112.364 282.236 113.084 281.348 113.084H262.068C261.18 113.084 260.46 112.364 260.46 111.476C260.46 110.588 261.18 109.868 262.068 109.868H281.348ZM204.112 50.4477C200.684 51.1864 197.438 52.6042 194.565 54.6174C188.802 58.6744 185.881 64.3009 185.881 71.3397V106.653H194.099V75.055C194.099 70.8955 195.514 66.8075 198.307 64.3115C199.987 62.8631 201.971 61.8097 204.112 61.2289V50.4477ZM298.083 50.4477V61.2289C300.225 61.8096 302.21 62.863 303.891 64.3115C306.681 66.8071 308.097 70.8955 308.097 75.055V106.653H316.315V71.3397C316.315 64.3009 313.393 58.6744 307.63 54.6174C304.758 52.6042 301.512 51.1864 298.083 50.4477ZM288.345 87.8775C286.003 85.212 284.17 84.8716 282.682 85.0581C281.482 85.2069 280.135 86.5594 278.842 88.0093C277.213 89.8403 275.367 91.9159 272.848 91.9159C271.036 91.9159 269.535 90.7223 267.942 89.4606C265.806 87.7682 263.387 85.8499 259.461 85.66C256.395 85.5095 253.886 88.2056 252.322 90.4918C251.538 91.6543 250.846 92.8764 250.253 94.147H288.345V87.8775ZM225.496 74.2803H224.269L216.033 93.9211H217.257L225.496 74.2803ZM232.993 74.7062C227.689 74.7062 224.162 78.9836 224.162 83.7624V83.812C224.162 88.5887 227.639 92.8165 232.943 92.8165C238.244 92.8165 241.772 88.5391 241.772 83.762C241.797 83.7366 241.797 83.7366 241.772 83.7112C241.772 78.934 238.296 74.7062 232.993 74.7062ZM215.559 75.0071H214.258V92.516H215.559V75.0071ZM232.943 75.8815C237.268 75.8815 240.421 79.4342 240.421 83.7616V83.8112C240.421 88.1382 237.32 91.6412 232.993 91.6412C228.665 91.6412 225.513 88.089 225.513 83.7616V83.712C225.513 79.3846 228.616 75.8815 232.943 75.8815ZM288.345 73.4237H249.267V89.2796C251.467 85.8655 254.931 82.2218 259.617 82.4494C264.573 82.6867 267.677 85.1454 269.938 86.9387C271.081 87.8449 272.158 88.6998 272.848 88.6998C273.924 88.6998 275.202 87.2621 276.442 85.8719C278.123 83.9828 280.386 81.9039 283.04 81.8424C285.208 81.7912 286.668 82.2167 288.345 83.4581V73.4237ZM281.256 44.5732H220.939C217.028 44.5844 213.86 47.7522 213.849 51.6633V60.502H288.345V51.6633C288.334 47.7524 285.167 44.5844 281.256 44.5732ZM219.033 55.6783V58.6566H216.055V55.6783H219.033ZM224.036 55.6783V58.6566H221.057V55.6783H224.036ZM229.038 55.6783V58.6566H226.06V55.6783H229.038ZM234.042 55.6783V58.6566H231.064V55.6783H234.042ZM277.236 0C281.147 0.0111699 284.316 3.17867 284.328 7.09001V30.2474C284.316 34.1589 281.147 37.3265 277.236 37.3374H224.959C221.048 37.3263 217.88 34.1585 217.869 30.2474V7.09001C217.88 3.17878 221.048 0.0109419 224.96 0H277.236ZM277.236 1.78649H224.959C222.032 1.79046 219.66 4.1626 219.656 7.09001V30.2474C219.66 33.175 222.032 35.5472 224.96 35.5509H277.236C280.164 35.5477 282.537 33.1753 282.541 30.2474V7.09001C282.537 4.16194 280.164 1.78953 277.236 1.78649ZM215.397 12.9861V31.4422C212.099 31.4419 209.052 29.6828 207.404 26.8275C205.756 23.9721 205.756 20.4544 207.405 17.5994C209.054 14.7443 212.1 12.9858 215.397 12.9861ZM286.8 12.9873C291.896 12.9878 296.026 17.1188 296.026 22.2144C296.025 27.3112 291.894 31.4416 286.799 31.4414V12.9873H286.8ZM237.4 12.0926C242.616 12.0924 246.844 16.3204 246.845 21.5362C246.845 26.7521 242.618 30.9808 237.402 30.9815C234.897 30.982 232.494 29.9871 230.723 28.2159C228.951 26.4446 227.956 24.0421 227.956 21.5371C227.956 16.3212 232.184 12.0928 237.4 12.0926ZM264.794 12.0926C270.01 12.0924 274.239 16.3204 274.239 21.5362C274.24 26.7521 270.012 30.9808 264.796 30.9815C262.291 30.982 259.888 29.9871 258.117 28.2159C256.345 26.4446 255.35 24.0421 255.35 21.5371C255.35 16.3212 259.578 12.0928 264.794 12.0926ZM237.402 13.8795C235.371 13.8791 233.422 14.6856 231.986 16.1218C230.55 17.5579 229.743 19.5059 229.743 21.5371C229.743 25.766 233.171 29.1943 237.4 29.1946C241.628 29.1949 245.057 25.7671 245.058 21.5382C245.058 17.3093 241.631 13.8805 237.402 13.8795ZM264.796 13.8795C262.765 13.8791 260.817 14.6856 259.38 16.1218C257.944 17.5579 257.137 19.5059 257.137 21.5371C257.137 25.766 260.565 29.1943 264.794 29.1946C269.023 29.1949 272.451 25.7671 272.452 21.5382C272.452 17.3093 269.025 13.8805 264.796 13.8795ZM234.949 15.6167C237.344 14.6249 240.1 15.1733 241.933 17.006C243.765 18.8388 244.313 21.5951 243.322 23.9896C242.33 26.3841 239.993 27.9453 237.401 27.9451C235.701 27.9451 234.072 27.27 232.87 26.0682C231.668 24.8665 230.993 23.2365 230.993 21.5371C230.993 18.9452 232.555 16.6086 234.949 15.6167ZM264.794 15.129C268.333 15.129 271.202 17.9978 271.202 21.5368C271.202 25.0758 268.334 27.9449 264.795 27.9451C263.095 27.9451 261.465 27.2701 260.263 26.0684C259.061 24.8666 258.386 23.2366 258.386 21.5371C258.386 17.998 261.255 15.129 264.794 15.129ZM280.574 21.9139L280.575 24.8922H277.596V21.9139H280.574ZM280.574 17.6276L280.575 20.6042H277.596V17.6276H280.574Z" fill="#EA5906"/>
</g>
<defs>
<clipPath id="clip0_1_13322">
<rect width="512" height="275" fill="white"/>
</clipPath>
</defs>
</svg>
