<svg width="256" height="302" viewBox="0 0 256 302" fill="none" xmlns="http://www.w3.org/2000/svg">
<g clip-path="url(#clip0_1_13334)">
<path d="M239.682 239.405H213.285C210.142 239.468 207.312 237.51 206.26 234.547C205.209 231.584 206.172 228.281 208.651 226.348C238.142 202.218 255.294 166.163 255.409 128.059C255.412 57.8268 198.846 0.696893 128.617 0.00189403C74.5759 -0.291146 26.1932 33.444 7.78551 84.2543C-10.6221 135.065 4.92643 191.961 46.6167 226.348C49.0959 228.281 50.0593 231.584 49.0079 234.547C47.9566 237.51 45.1266 239.467 41.9833 239.405H15.4451C6.94678 239.482 0.0765634 246.353 -0.000112359 254.851V286.303C-0.0370024 290.423 1.5735 294.388 4.47384 297.315C7.37418 300.242 11.3239 301.889 15.4445 301.889H239.963C244.06 301.889 247.988 300.262 250.885 297.365C253.781 294.469 255.409 290.54 255.409 286.444V254.851C255.409 246.298 248.516 239.342 239.963 239.265L239.682 239.405Z" fill="white"/>
<path d="M127.634 14.7443C65.6892 15.1338 15.7503 65.5954 16.0071 127.541C16.2658 189.486 66.6229 239.53 128.569 239.402C190.515 239.274 240.665 189.022 240.665 127.076C240.665 97.162 228.735 68.4837 207.517 47.3977C186.299 26.3116 157.547 14.5595 127.634 14.7443ZM226.905 127.076C226.828 182.18 182.177 226.831 127.072 226.908C100.635 226.947 75.2774 216.423 56.636 197.676C37.9946 178.929 27.6139 153.513 27.8012 127.076C27.8784 71.9715 72.5299 27.32 127.634 27.2428C182.394 27.8043 226.905 72.3145 226.905 127.076Z" fill="#4700A3"/>
<path d="M141.956 90.0067C149.156 89.4319 156.349 91.2054 162.456 95.0615C161.947 96.3077 161.708 97.6474 161.754 98.9927C161.754 102.344 163.085 105.558 165.455 107.928C167.825 110.298 171.039 111.63 174.391 111.63C175.958 111.778 177.538 111.586 179.024 111.068C183.032 117.571 185.17 125.053 185.203 132.692C185.203 176.079 150.942 180.151 128.195 180.151C69.3632 180.151 61.3595 157.264 61.3595 151.647H58.5514C48.8124 151.571 40.9362 143.694 40.8596 133.955V130.445H48.8632C54.6289 130.278 60.1389 132.825 63.7469 137.326C67.0315 132.742 72.2904 129.983 77.9283 129.884H86.072V134.517C86.1852 138.997 84.4941 143.334 81.3786 146.555C78.2631 149.776 73.9843 151.611 69.5032 151.647H68.3802C68.9417 154.456 77.5069 155.579 79.7541 155.579C85.6836 155.947 91.2817 152.818 94.0756 147.575C96.7074 142.477 97.6889 136.688 96.8844 131.007C96.8844 108.26 103.062 90.0067 141.956 90.0067ZM196.717 76.2461L185.765 93.9385L182.394 100.818C181.969 101.661 181.399 102.421 180.709 103.065C178.65 104.804 175.875 105.432 173.268 104.75C171.965 104.658 170.753 104.052 169.898 103.065C167.096 100.006 167.096 95.3121 169.898 92.2527C170.46 91.6912 171.021 91.6912 171.443 91.1297L196.717 76.2461Z" fill="#4700A3"/>
<path d="M50.267 280.405L44.37 264.819H41.4212L35.5241 280.405L29.7671 264.819H26.3975L33.6989 284.336H37.0686L42.8255 269.453L48.5825 284.336H51.9522L59.2536 264.819H56.024L50.267 280.405ZM75.4009 265.802C73.8604 264.934 72.1141 264.497 70.3461 264.538C68.5651 264.54 66.818 265.025 65.2914 265.942C63.8194 266.765 62.6043 267.98 61.781 269.452C60.0835 272.658 60.0835 276.497 61.781 279.703C62.6274 281.241 63.8933 282.507 65.4314 283.354C67.1686 284.238 69.0998 284.673 71.0483 284.617C72.5404 284.625 74.0194 284.338 75.4009 283.775C76.7048 283.271 77.8628 282.451 78.7706 281.388L76.8053 279.141C75.3712 280.719 73.3194 281.59 71.1884 281.528C69.401 281.575 67.6564 280.977 66.2737 279.843C64.9781 278.807 64.1658 277.284 64.0276 275.631H79.8942V274.648C79.9322 272.791 79.4973 270.955 78.6305 269.312C77.8899 267.873 76.774 266.66 75.4009 265.802ZM64.1677 273.244C64.264 271.641 64.967 270.135 66.1336 269.032C68.596 267.06 72.0963 267.06 74.5587 269.032C75.7772 270.112 76.5316 271.621 76.6646 273.244H64.1677ZM100.394 265.802C98.8462 264.952 97.105 264.517 95.3393 264.538C93.9834 264.532 92.6422 264.82 91.4076 265.381C90.2896 265.933 89.3253 266.753 88.6 267.768V256.956H84.949V284.336H88.3187V281.247C89.0878 282.276 90.1013 283.096 91.2675 283.634C92.5337 284.264 93.9254 284.6 95.3393 284.617C97.1176 284.596 98.8596 284.112 100.394 283.213C101.866 282.39 103.081 281.175 103.904 279.703C104.815 278.122 105.299 276.331 105.309 274.507C105.299 272.683 104.815 270.893 103.904 269.312C103.087 267.836 101.871 266.619 100.394 265.802ZM100.816 278.158C100.278 279.212 99.4496 280.089 98.4283 280.686C96.3287 281.834 93.7885 281.834 91.6889 280.686C90.6676 280.089 89.839 279.212 89.3016 278.158C88.1959 275.899 88.1959 273.256 89.3016 270.997C89.8542 269.991 90.6823 269.163 91.6889 268.61C93.7885 267.461 96.3287 267.461 98.4283 268.61C99.4349 269.163 100.263 269.991 100.816 270.997C101.966 273.246 101.966 275.91 100.816 278.158ZM120.613 264.678C119.222 264.634 117.837 264.873 116.541 265.381C115.451 265.849 114.488 266.571 113.733 267.487V256.956H110.082V284.336H113.733V274.226C113.638 272.474 114.244 270.757 115.418 269.452C116.619 268.294 118.245 267.685 119.911 267.768C121.36 267.666 122.786 268.175 123.843 269.172C124.829 270.346 125.331 271.853 125.247 273.384V284.337H128.758V273.103C128.953 270.797 128.191 268.512 126.651 266.785C125.033 265.238 122.849 264.425 120.613 264.538V264.678ZM135.357 264.819H138.867V284.477H135.357V264.819ZM137.182 256.254C136.479 256.252 135.812 256.56 135.357 257.096C134.981 257.522 134.781 258.074 134.795 258.641C134.743 259.256 134.946 259.865 135.357 260.326C135.837 260.81 136.501 261.065 137.182 261.028C137.814 261.026 138.42 260.774 138.867 260.326C139.329 259.889 139.584 259.277 139.569 258.641C139.603 258.002 139.345 257.382 138.867 256.956C138.399 256.559 137.795 256.358 137.182 256.395V256.254ZM156.138 264.678C154.699 264.605 153.262 264.845 151.925 265.381C150.793 265.912 149.824 266.736 149.117 267.768V264.678H145.607V284.336H149.117V274.226C148.983 272.427 149.591 270.651 150.801 269.312C152.036 268.116 153.721 267.504 155.435 267.627C156.885 267.525 158.311 268.034 159.367 269.032C160.353 270.206 160.855 271.712 160.771 273.244V284.196H164.281V272.963C164.422 270.639 163.611 268.358 162.035 266.644C160.451 265.133 158.325 264.324 156.138 264.398V264.678ZM178.042 281.528C177.16 281.62 176.283 281.311 175.655 280.686C175.125 280.008 174.874 279.154 174.953 278.298V267.627H180.569V264.819H174.953V260.466H171.443V264.678H168.072V267.627H171.443V278.439C171.322 280.085 171.88 281.709 172.987 282.932C174.24 284.098 175.912 284.706 177.62 284.617C178.433 284.599 179.238 284.457 180.008 284.196C180.678 283.998 181.299 283.663 181.833 283.213L180.85 280.686C180.065 281.344 179.066 281.693 178.042 281.669V281.528Z" fill="#18186D"/>
<path d="M187.449 279.562C186.771 279.542 186.114 279.795 185.624 280.264C185.14 280.745 184.884 281.409 184.922 282.09C184.922 283.486 186.053 284.617 187.449 284.617C188.082 284.616 188.687 284.363 189.134 283.915C189.603 283.426 189.857 282.768 189.837 282.09C189.874 281.409 189.619 280.745 189.134 280.264C188.698 279.802 188.085 279.547 187.449 279.562ZM196.717 256.254C196.059 256.274 195.443 256.582 195.032 257.096C194.605 257.499 194.352 258.054 194.329 258.641C194.295 259.28 194.554 259.9 195.031 260.326C195.478 260.774 196.084 261.026 196.717 261.028C197.349 261.026 197.955 260.774 198.401 260.326C198.849 259.879 199.102 259.274 199.103 258.641C199.138 258.002 198.879 257.382 198.402 256.956C197.926 256.571 197.328 256.372 196.717 256.395V256.254ZM194.891 264.819H198.402V284.477H194.891V264.819ZM222.552 269.452C221.699 267.919 220.435 266.655 218.902 265.802C215.603 264.079 211.669 264.079 208.371 265.802C206.837 266.655 205.573 267.919 204.72 269.452C202.998 272.652 202.998 276.503 204.72 279.703C205.573 281.236 206.837 282.501 208.371 283.354C211.663 285.101 215.609 285.101 218.902 283.354C220.435 282.501 221.7 281.236 222.552 279.703C224.275 276.503 224.275 272.652 222.552 269.452ZM219.463 278.158C218.933 279.216 218.103 280.095 217.076 280.686C214.977 281.835 212.436 281.835 210.336 280.686C209.32 280.083 208.493 279.207 207.949 278.158C206.799 275.91 206.799 273.246 207.949 270.997C208.508 269.995 209.334 269.169 210.336 268.61C212.436 267.461 214.977 267.461 217.076 268.61C218.088 269.156 218.917 269.986 219.463 270.997C220.59 273.251 220.59 275.904 219.463 278.158Z" fill="#4046DD"/>
</g>
<defs>
<clipPath id="clip0_1_13334">
<rect width="256" height="302" fill="white"/>
</clipPath>
</defs>
</svg>
