<svg width="256" height="239" viewBox="0 0 256 239" fill="none" xmlns="http://www.w3.org/2000/svg">
<g clip-path="url(#clip0_1_13341)">
<path d="M119.541 100.504C108.93 118.34 98.7648 135.612 88.3878 152.754C85.7228 157.155 84.4042 160.739 86.5334 166.334C92.4109 181.788 84.1195 196.827 68.5352 200.909C53.8385 204.76 39.5195 195.101 36.6034 179.366C34.0196 165.439 44.8276 151.786 60.1826 149.609C61.4696 149.425 62.7823 149.404 64.945 149.241C72.4693 136.625 80.1775 123.701 88.3028 110.074C73.612 95.4663 64.8679 78.3894 66.8034 57.2301C68.1714 42.2724 74.0529 29.3471 84.8035 18.7526C105.394 -1.53487 136.805 -4.82056 161.049 10.7519C184.333 25.7095 194.997 54.8459 185.907 79.7831C179.053 77.9248 172.151 76.0507 164.564 73.9927C167.418 60.1283 165.307 47.6774 155.956 37.0118C149.778 29.9699 141.851 26.2789 132.836 24.9187C114.764 22.1886 97.0211 33.7992 91.7565 51.5364C85.7802 71.6678 94.8247 88.1121 119.541 100.504Z" fill="#C73A63"/>
<path d="M149.841 79.4111C157.316 92.5974 164.906 105.983 172.428 119.247C210.449 107.484 239.114 128.531 249.399 151.064C261.82 178.283 253.329 210.521 228.933 227.313C203.893 244.552 172.226 241.606 150.041 219.462C155.695 214.73 161.377 209.975 167.448 204.896C189.361 219.089 208.525 218.421 222.753 201.615C234.886 187.278 234.623 165.901 222.138 151.864C207.73 135.667 188.431 135.173 165.103 150.722C155.426 133.554 145.581 116.522 136.21 99.2301C133.051 93.402 129.562 90.0214 122.441 88.7878C110.547 86.7258 102.869 76.5129 102.408 65.0703C101.955 53.7542 108.622 43.5255 119.042 39.5399C129.364 35.5919 141.477 38.7788 148.42 47.5545C154.094 54.7249 155.897 62.7948 152.911 71.6377C152.081 74.103 151.006 76.4892 149.841 79.4111Z" fill="#4B4B4B"/>
<path d="M167.707 187.21H121.937C117.55 205.254 108.074 219.822 91.7465 229.086C79.0545 236.286 65.374 238.728 50.8137 236.377C24.0062 232.053 2.08576 207.921 0.156255 180.746C-2.02828 149.962 19.1311 122.599 47.3343 116.453C49.2816 123.525 51.2486 130.663 53.1959 137.717C27.3196 150.919 18.364 167.553 25.6056 188.353C31.9813 206.658 50.0901 216.691 69.7529 212.81C89.8328 208.848 99.9568 192.161 98.7212 165.379C117.757 165.379 136.809 165.181 155.847 165.476C163.281 165.592 169.02 164.821 174.62 158.268C183.841 147.483 200.811 148.456 210.741 158.641C220.889 169.05 220.403 185.799 209.664 195.768C199.303 205.388 182.934 204.874 173.24 194.509C171.248 192.372 169.678 189.836 167.707 187.21Z" fill="#4A4A4A"/>
</g>
<defs>
<clipPath id="clip0_1_13341">
<rect width="256" height="239" fill="white"/>
</clipPath>
</defs>
</svg>
