<svg width="512" height="165" viewBox="0 0 512 165" fill="none" xmlns="http://www.w3.org/2000/svg">
<path d="M0 108.281V0.527344L49.4556 54.5979L99.1249 0.527344L148.132 54.3177L197.51 0.527344V108.529L148.687 163.27L99.1249 109.269L49.5624 163.27L0 108.281Z" fill="#5B2E6E"/>
<mask id="mask0_1_13406" style="mask-type:luminance" maskUnits="userSpaceOnUse" x="0" y="0" width="198" height="164">
<path d="M0 108.281V0.527344L49.4556 54.5979L99.1249 0.527344L148.132 54.3177L197.51 0.527344V108.529L148.687 163.27L99.1249 109.269L49.5624 163.27L0 108.281Z" fill="url(#paint0_linear_1_13406)"/>
</mask>
<g mask="url(#mask0_1_13406)">
<path d="M24.7827 81.8985C29.9166 76.278 46.4385 58.1932 49.5624 54.7729C43.2849 47.9039 10.2423 11.7388 0 0.527344C0.624792 2.58012 22.2703 73.6498 24.7827 81.8985Z" fill="url(#paint1_linear_1_13406)"/>
</g>
<mask id="mask1_1_13406" style="mask-type:luminance" maskUnits="userSpaceOnUse" x="0" y="0" width="198" height="164">
<path d="M0 108.281V0.527344L49.4556 54.5979L99.1249 0.527344L148.132 54.3177L197.51 0.527344V108.529L148.687 163.27L99.1249 109.269L49.5624 163.27L0 108.281Z" fill="url(#paint2_linear_1_13406)"/>
</mask>
<g mask="url(#mask1_1_13406)">
<path d="M-2.41834e-05 0.52803L18.1477 20.2043L37.7995 82.9418L18.6993 88.7813L-2.41834e-05 0.52803Z" fill="url(#paint3_linear_1_13406)"/>
</g>
<mask id="mask2_1_13406" style="mask-type:luminance" maskUnits="userSpaceOnUse" x="0" y="0" width="198" height="164">
<path d="M0 108.281V0.527344L49.4556 54.5979L99.1249 0.527344L148.132 54.3177L197.51 0.527344V108.529L148.687 163.27L99.1249 109.269L49.5624 163.27L0 108.281Z" fill="url(#paint4_linear_1_13406)"/>
</mask>
<g mask="url(#mask2_1_13406)">
<path d="M24.5896 89.418L17.3843 65.5655L44.4772 49.2525L55.226 60.9485L24.5896 89.418Z" fill="url(#paint5_linear_1_13406)"/>
</g>
<mask id="mask3_1_13406" style="mask-type:luminance" maskUnits="userSpaceOnUse" x="0" y="0" width="198" height="164">
<path d="M0 108.281V0.527344L49.4556 54.5979L99.1249 0.527344L148.132 54.3177L197.51 0.527344V108.529L148.687 163.27L99.1249 109.269L49.5624 163.27L0 108.281Z" fill="url(#paint6_linear_1_13406)"/>
</mask>
<g mask="url(#mask3_1_13406)">
<path d="M147.948 54.5255L197.51 108.529V0.527344L147.948 54.5255Z" fill="url(#paint7_linear_1_13406)"/>
</g>
<mask id="mask4_1_13406" style="mask-type:luminance" maskUnits="userSpaceOnUse" x="0" y="0" width="198" height="164">
<path d="M0 108.281V0.527344L49.4556 54.5979L99.1249 0.527344L148.132 54.3177L197.51 0.527344V108.529L148.687 163.27L99.1249 109.269L49.5624 163.27L0 108.281Z" fill="url(#paint8_linear_1_13406)"/>
</mask>
<g mask="url(#mask4_1_13406)">
<path d="M147.961 54.552L158.277 43.3241L197.51 87.0784L197.51 108.531L147.961 54.552Z" fill="url(#paint9_linear_1_13406)"/>
</g>
<mask id="mask5_1_13406" style="mask-type:luminance" maskUnits="userSpaceOnUse" x="0" y="0" width="198" height="164">
<path d="M0 108.281V0.527344L49.4556 54.5979L99.1249 0.527344L148.132 54.3177L197.51 0.527344V108.529L148.687 163.27L99.1249 109.269L49.5624 163.27L0 108.281Z" fill="url(#paint10_linear_1_13406)"/>
</mask>
<g mask="url(#mask5_1_13406)">
<path d="M148.687 163.269L197.51 108.528L130.194 34.5547L148.687 163.269Z" fill="url(#paint11_linear_1_13406)"/>
</g>
<mask id="mask6_1_13406" style="mask-type:luminance" maskUnits="userSpaceOnUse" x="0" y="0" width="198" height="164">
<path d="M0 108.281V0.527344L49.4556 54.5979L99.1249 0.527344L148.132 54.3177L197.51 0.527344V108.529L148.687 163.27L99.1249 109.269L49.5624 163.27L0 108.281Z" fill="url(#paint12_linear_1_13406)"/>
</mask>
<g mask="url(#mask6_1_13406)">
<path d="M99.1249 109.268L148.687 163.269L130.194 34.5547L99.1249 109.268Z" fill="url(#paint13_linear_1_13406)"/>
</g>
<mask id="mask7_1_13406" style="mask-type:luminance" maskUnits="userSpaceOnUse" x="0" y="0" width="198" height="164">
<path d="M0 108.281V0.527344L49.4556 54.5979L99.1249 0.527344L148.132 54.3177L197.51 0.527344V108.529L148.687 163.27L99.1249 109.269L49.5624 163.27L0 108.281Z" fill="url(#paint14_linear_1_13406)"/>
</mask>
<g mask="url(#mask7_1_13406)">
<path d="M49.5624 163.27L99.1249 109.269V0.527344L49.5624 163.27Z" fill="url(#paint15_linear_1_13406)"/>
</g>
<mask id="mask8_1_13406" style="mask-type:luminance" maskUnits="userSpaceOnUse" x="0" y="0" width="198" height="164">
<path d="M0 108.281V0.527344L49.4556 54.5979L99.1249 0.527344L148.132 54.3177L197.51 0.527344V108.529L148.687 163.27L99.1249 109.269L49.5624 163.27L0 108.281Z" fill="url(#paint16_linear_1_13406)"/>
</mask>
<g mask="url(#mask8_1_13406)">
<path d="M49.5624 163.27L68.9437 142.153L99.1249 32.2946V0.527344L49.5624 163.27Z" fill="url(#paint17_linear_1_13406)"/>
</g>
<mask id="mask9_1_13406" style="mask-type:luminance" maskUnits="userSpaceOnUse" x="0" y="0" width="198" height="164">
<path d="M0 108.281V0.527344L49.4556 54.5979L99.1249 0.527344L148.132 54.3177L197.51 0.527344V108.529L148.687 163.27L99.1249 109.269L49.5624 163.27L0 108.281Z" fill="url(#paint18_linear_1_13406)"/>
</mask>
<g mask="url(#mask9_1_13406)">
<path d="M99.1249 109.269L130.194 34.5553L99.1249 0.527344V109.269Z" fill="url(#paint19_linear_1_13406)"/>
</g>
<mask id="mask10_1_13406" style="mask-type:luminance" maskUnits="userSpaceOnUse" x="0" y="0" width="198" height="164">
<path d="M0 108.281V0.527344L49.4556 54.5979L99.1249 0.527344L148.132 54.3177L197.51 0.527344V108.529L148.687 163.27L99.1249 109.269L49.5624 163.27L0 108.281Z" fill="url(#paint20_linear_1_13406)"/>
</mask>
<g mask="url(#mask10_1_13406)">
<path d="M24.4113 81.7934C26.108 87.3518 49.5658 163.27 49.5658 163.27L99.1248 0.527344L24.4113 81.7934Z" fill="url(#paint21_linear_1_13406)"/>
</g>
<mask id="mask11_1_13406" style="mask-type:luminance" maskUnits="userSpaceOnUse" x="0" y="0" width="198" height="164">
<path d="M0 108.281V0.527344L49.4556 54.5979L99.1249 0.527344L148.132 54.3177L197.51 0.527344V108.529L148.687 163.27L99.1249 109.269L49.5624 163.27L0 108.281Z" fill="url(#paint22_linear_1_13406)"/>
</mask>
<g mask="url(#mask11_1_13406)">
<path d="M22.4057 83.9272L39.9459 64.8947L64.7635 146.723L49.5625 163.268L22.4057 83.9272Z" fill="url(#paint23_linear_1_13406)"/>
</g>
<mask id="mask12_1_13406" style="mask-type:luminance" maskUnits="userSpaceOnUse" x="0" y="0" width="198" height="164">
<path d="M0 108.281V0.527344L49.4556 54.5979L99.1249 0.527344L148.132 54.3177L197.51 0.527344V108.529L148.687 163.27L99.1249 109.269L49.5624 163.27L0 108.281Z" fill="url(#paint24_linear_1_13406)"/>
</mask>
<g mask="url(#mask12_1_13406)">
<path d="M0 108.884L49.5624 163.27L0.00203334 0.527344L0 108.884Z" fill="url(#paint25_linear_1_13406)"/>
</g>
<path d="M511.159 101.87L496.364 84.1161L511.159 66.3624C511.448 65.4222 511.814 64.4895 511.898 63.4035C511.814 60.9739 509.765 58.965 507.46 58.965C505.887 58.965 504.644 59.6108 503.761 60.4445L491.186 76.7187L477.871 60.4445C476.988 59.6108 475.744 58.965 474.172 58.965C471.867 58.965 469.818 60.9739 469.733 63.4035C469.818 64.4895 470.184 65.3504 470.473 66.3624L485.268 84.1161L470.473 101.87C470.33 102.443 470.038 102.945 469.733 103.349C469.233 105.959 470.696 108.47 473.432 109.267C475.013 109.618 476.842 108.829 477.871 107.048L491.186 91.5135L503.761 107.048C504.79 108.829 506.692 109.618 508.2 109.267C510.936 108.47 512.399 106.031 511.898 103.349C511.594 102.945 511.302 102.371 511.159 101.87ZM462.336 63.4035C462.336 60.9771 460.332 58.965 457.898 58.965C455.464 58.965 453.531 60.9053 453.459 63.4035C453.459 63.3485 453.459 63.4204 453.459 63.4035C453.459 63.4204 453.459 63.4922 453.459 63.4035V104.829C453.459 104.668 453.459 104.74 453.459 104.829C453.459 107.255 455.464 109.267 457.898 109.267C460.332 109.267 462.336 107.255 462.336 104.829C462.336 104.596 462.336 104.668 462.336 104.829V63.4035C462.336 63.5641 462.264 63.5641 462.336 63.4035ZM389.842 84.1161C389.842 70.1752 378.567 58.965 364.691 58.965C350.814 58.965 339.54 70.2471 339.54 84.1161C339.54 97.4821 350.019 108.333 363.211 109.267C363.534 109.123 363.823 109.267 363.951 109.267C366.57 109.267 368.593 107.255 368.389 104.829C368.593 102.369 366.714 100.428 364.691 100.39C364.329 100.285 364.257 100.285 363.951 100.39C364.185 100.285 364.185 100.285 363.951 100.39C364.112 100.285 364.112 100.285 363.951 100.39C357.102 99.9972 351.32 95.3982 349.156 89.2943H384.664C385.144 89.0745 385.216 89.1463 385.403 89.2943C387.746 89.1463 389.769 87.1343 389.842 84.8559C389.842 84.4754 389.769 84.2598 389.842 84.1161ZM349.156 80.4174C350.988 73.2104 357.365 67.8419 365.43 67.8419C372.756 67.8419 379.206 73.2104 380.965 80.4174H349.156ZM335.101 61.924C334.302 59.9103 331.833 58.4736 329.183 58.965C327.912 59.5511 326.895 60.7004 326.224 61.924L317.347 95.2122L302.553 76.7187C301.914 75.7852 300.824 75.2824 299.594 75.2393C298.355 75.2824 297.266 75.7852 296.635 76.7187L281.84 95.2122L272.963 61.924C272.357 60.7004 271.268 59.5511 270.004 58.965C267.347 58.4736 264.877 59.9103 264.086 61.924C264.006 62.9991 264.079 63.6455 264.086 64.1432L275.182 106.308C275.843 107.391 276.932 108.684 278.881 109.267C280.418 109.618 282.234 108.828 283.32 107.048L299.594 87.0751L315.868 107.048C317.091 108.828 318.979 109.618 321.046 109.267C322.393 108.684 323.482 107.463 324.005 106.308L335.101 64.1432C335.101 63.7174 335.174 62.9991 335.101 61.924ZM420.911 58.965C414.623 58.784 409.058 61.1605 404.637 64.8829V37.5126C404.649 37.6112 404.722 37.5392 404.637 37.5126C404.722 35.0907 402.698 33.0742 400.198 33.0742C397.783 33.0742 395.832 35.0187 395.76 37.5126C395.76 37.5392 395.76 37.6112 395.76 37.5126C395.76 37.6112 395.76 37.6832 395.76 37.5126V83.3764C395.832 83.7015 395.76 83.8455 395.76 84.1161C395.76 97.9607 407.034 109.267 420.911 109.267C434.787 109.267 446.062 97.9607 446.062 84.1161C445.99 70.0185 434.715 58.784 420.911 58.965ZM420.911 100.39C411.942 100.39 404.637 93.1174 404.637 84.1161C404.637 75.1149 411.942 67.8419 420.911 67.8419C429.88 67.8419 437.185 75.1149 437.185 84.1161C437.185 93.1174 429.88 100.39 420.911 100.39ZM457.898 41.2113C455.464 41.2113 453.459 43.1997 453.459 45.6498C453.459 48.0998 455.464 50.0882 457.898 50.0882C460.332 50.0882 462.336 48.0998 462.336 45.6498C462.336 43.1997 460.332 41.2113 457.898 41.2113Z" fill="black"/>
<defs>
<linearGradient id="paint0_linear_1_13406" x1="2554.2" y1="1473.67" x2="11495.4" y2="14985.4" gradientUnits="userSpaceOnUse">
<stop stop-color="#67337A"/>
<stop offset="1" stop-color="#723986"/>
</linearGradient>
<linearGradient id="paint1_linear_1_13406" x1="640.941" y1="737.099" x2="5318.08" y2="4284.32" gradientUnits="userSpaceOnUse">
<stop stop-color="#67337A"/>
<stop offset="1" stop-color="#723986"/>
</linearGradient>
<linearGradient id="paint2_linear_1_13406" x1="18170.3" y1="8536.04" x2="5856.96" y2="8536.04" gradientUnits="userSpaceOnUse">
<stop stop-color="#623274" stop-opacity="0"/>
<stop offset="1" stop-color="#542C65"/>
</linearGradient>
<linearGradient id="paint3_linear_1_13406" x1="3127.59" y1="3972.88" x2="1936.83" y2="4336.93" gradientUnits="userSpaceOnUse">
<stop stop-color="#623274" stop-opacity="0"/>
<stop offset="1" stop-color="#542C65"/>
</linearGradient>
<linearGradient id="paint4_linear_1_13406" x1="18170.3" y1="8536.04" x2="5856.96" y2="8536.04" gradientUnits="userSpaceOnUse">
<stop stop-color="#623274" stop-opacity="0"/>
<stop offset="1" stop-color="#542C65"/>
</linearGradient>
<linearGradient id="paint5_linear_1_13406" x1="555.254" y1="-2940.66" x2="1401.71" y2="-1731.79" gradientUnits="userSpaceOnUse">
<stop stop-color="#623274" stop-opacity="0"/>
<stop offset="1" stop-color="#542C65"/>
</linearGradient>
<linearGradient id="paint6_linear_1_13406" x1="18106.7" y1="911.721" x2="13052" y2="13765.1" gradientUnits="userSpaceOnUse">
<stop stop-color="#8A519F"/>
<stop offset="1" stop-color="#8A53A0"/>
</linearGradient>
<linearGradient id="paint7_linear_1_13406" x1="4691.58" y1="605.229" x2="-229.209" y2="5336.56" gradientUnits="userSpaceOnUse">
<stop stop-color="#8A519F"/>
<stop offset="1" stop-color="#8A53A0"/>
</linearGradient>
<linearGradient id="paint8_linear_1_13406" x1="12537.7" y1="7848.77" x2="0" y2="7848.77" gradientUnits="userSpaceOnUse">
<stop stop-color="#8A529F" stop-opacity="0.1"/>
<stop offset="1" stop-color="#542C65"/>
</linearGradient>
<linearGradient id="paint9_linear_1_13406" x1="3561.58" y1="1622.91" x2="2694.97" y2="2520.3" gradientUnits="userSpaceOnUse">
<stop stop-color="#8A529F" stop-opacity="0.1"/>
<stop offset="1" stop-color="#542C65"/>
</linearGradient>
<linearGradient id="paint10_linear_1_13406" x1="4878.3" y1="5110.8" x2="14493" y2="12601.6" gradientUnits="userSpaceOnUse">
<stop stop-color="#5C2E6D"/>
<stop offset="1" stop-color="#6D377B"/>
</linearGradient>
<linearGradient id="paint11_linear_1_13406" x1="1792.83" y1="4076.31" x2="6525.39" y2="5665.2" gradientUnits="userSpaceOnUse">
<stop stop-color="#5C2E6D"/>
<stop offset="1" stop-color="#6D377B"/>
</linearGradient>
<linearGradient id="paint12_linear_1_13406" x1="2438.46" y1="5608.3" x2="15680.6" y2="10059.3" gradientUnits="userSpaceOnUse">
<stop stop-color="#612E74"/>
<stop offset="1" stop-color="#7F4395"/>
</linearGradient>
<linearGradient id="paint13_linear_1_13406" x1="711.023" y1="4469.79" x2="4367.78" y2="4859.76" gradientUnits="userSpaceOnUse">
<stop stop-color="#612E74"/>
<stop offset="1" stop-color="#7F4395"/>
</linearGradient>
<linearGradient id="paint14_linear_1_13406" x1="19751" y1="0.527344" x2="19751" y2="11288.3" gradientUnits="userSpaceOnUse">
<stop stop-color="#582C6A"/>
<stop offset="1" stop-color="#743983"/>
</linearGradient>
<linearGradient id="paint15_linear_1_13406" x1="5005.81" y1="0.527344" x2="5005.81" y2="11288.3" gradientUnits="userSpaceOnUse">
<stop stop-color="#582C6A"/>
<stop offset="1" stop-color="#743983"/>
</linearGradient>
<linearGradient id="paint16_linear_1_13406" x1="9875.5" y1="12171.7" x2="3904.69" y2="11436.7" gradientUnits="userSpaceOnUse">
<stop stop-color="#623274" stop-opacity="0"/>
<stop offset="1" stop-color="#542C65"/>
</linearGradient>
<linearGradient id="paint17_linear_1_13406" x1="2527.68" y1="12171.7" x2="1008.14" y2="12124.8" gradientUnits="userSpaceOnUse">
<stop stop-color="#623274" stop-opacity="0"/>
<stop offset="1" stop-color="#542C65"/>
</linearGradient>
<linearGradient id="paint18_linear_1_13406" x1="0" y1="0.527344" x2="0" y2="16274.8" gradientUnits="userSpaceOnUse">
<stop stop-color="#723A85"/>
<stop offset="1" stop-color="#8C519C"/>
</linearGradient>
<linearGradient id="paint19_linear_1_13406" x1="99.1249" y1="0.527344" x2="99.1249" y2="10874.7" gradientUnits="userSpaceOnUse">
<stop stop-color="#723A85"/>
<stop offset="1" stop-color="#8C519C"/>
</linearGradient>
<linearGradient id="paint20_linear_1_13406" x1="3.54056e-05" y1="5847.37" x2="12135.9" y2="8398.87" gradientUnits="userSpaceOnUse">
<stop stop-color="#66397A"/>
<stop offset="1" stop-color="#9F69AB"/>
</linearGradient>
<linearGradient id="paint21_linear_1_13406" x1="24.4113" y1="5847.37" x2="4787.93" y2="6226.22" gradientUnits="userSpaceOnUse">
<stop stop-color="#66397A"/>
<stop offset="1" stop-color="#9F69AB"/>
</linearGradient>
<linearGradient id="paint22_linear_1_13406" x1="14220.7" y1="7848.77" x2="0" y2="7848.77" gradientUnits="userSpaceOnUse">
<stop stop-color="#623274" stop-opacity="0"/>
<stop offset="1" stop-color="#542C65"/>
</linearGradient>
<linearGradient id="paint23_linear_1_13406" x1="2922.73" y1="4069.37" x2="1384.64" y2="4539.61" gradientUnits="userSpaceOnUse">
<stop stop-color="#623274" stop-opacity="0"/>
<stop offset="1" stop-color="#542C65"/>
</linearGradient>
<linearGradient id="paint24_linear_1_13406" x1="9875.5" y1="3424.46" x2="9875.5" y2="12725.7" gradientUnits="userSpaceOnUse">
<stop stop-color="#5D306E"/>
<stop offset="1" stop-color="#9F6AAA"/>
</linearGradient>
<linearGradient id="paint25_linear_1_13406" x1="2478.12" y1="3424.46" x2="2478.12" y2="12725.7" gradientUnits="userSpaceOnUse">
<stop stop-color="#5D306E"/>
<stop offset="1" stop-color="#9F6AAA"/>
</linearGradient>
</defs>
</svg>
