<svg width="256" height="213" viewBox="0 0 256 213" fill="none" xmlns="http://www.w3.org/2000/svg">
<g clip-path="url(#clip0_1_13347)">
<mask id="mask0_1_13347" style="mask-type:luminance" maskUnits="userSpaceOnUse" x="0" y="0" width="257" height="212">
<path d="M256.003 0.328125H0V211.267H256.003V0.328125Z" fill="#5B2E6E"/>
</mask>
<g mask="url(#mask0_1_13347)">
<path d="M0 139.993V0.328125L64.102 70.4118L128.481 0.328125L192.002 70.0486L256.003 0.328125V140.315L192.721 211.267L128.481 141.274L64.2404 211.267L0 139.993Z" fill="#5B2E6E"/>
</g>
<mask id="mask1_1_13347" style="mask-type:luminance" maskUnits="userSpaceOnUse" x="0" y="0" width="257" height="212">
<path d="M256.003 0.328125H0V211.267H256.003V0.328125Z" fill="url(#paint0_linear_1_13347)"/>
</mask>
<g mask="url(#mask1_1_13347)">
<path d="M32.1222 105.797C38.7765 98.5125 60.1913 75.0718 64.2404 70.6386C56.1039 61.7353 13.2756 14.8599 0 0.328125C0.809825 2.98883 28.8657 95.1059 32.1222 105.797Z" fill="url(#paint1_linear_1_13347)"/>
</g>
<mask id="mask2_1_13347" style="mask-type:luminance" maskUnits="userSpaceOnUse" x="0" y="0" width="257" height="212">
<path d="M256.003 0.328125H0V211.267H256.003V0.328125Z" fill="url(#paint2_linear_1_13347)"/>
</mask>
<g mask="url(#mask2_1_13347)">
<path d="M7.3108e-06 0.326601L23.5222 25.83L48.994 107.147L24.2372 114.716L7.3108e-06 0.326601Z" fill="url(#paint3_linear_1_13347)"/>
</g>
<mask id="mask3_1_13347" style="mask-type:luminance" maskUnits="userSpaceOnUse" x="0" y="0" width="257" height="212">
<path d="M256.003 0.328125H0V211.267H256.003V0.328125Z" fill="url(#paint4_linear_1_13347)"/>
</mask>
<g mask="url(#mask3_1_13347)">
<path d="M31.8719 115.547L22.5327 84.6304L57.6493 63.4863L71.5813 78.6461L31.8719 115.547Z" fill="url(#paint5_linear_1_13347)"/>
</g>
<mask id="mask4_1_13347" style="mask-type:luminance" maskUnits="userSpaceOnUse" x="0" y="0" width="257" height="212">
<path d="M256.003 0.328125H0V211.267H256.003V0.328125Z" fill="url(#paint6_linear_1_13347)"/>
</mask>
<g mask="url(#mask4_1_13347)">
<path d="M191.762 70.3179L256.003 140.315V0.328125L191.762 70.3179Z" fill="url(#paint7_linear_1_13347)"/>
</g>
<mask id="mask5_1_13347" style="mask-type:luminance" maskUnits="userSpaceOnUse" x="0" y="0" width="257" height="212">
<path d="M256.003 0.328125H0V211.267H256.003V0.328125Z" fill="url(#paint8_linear_1_13347)"/>
</mask>
<g mask="url(#mask5_1_13347)">
<path d="M191.78 70.3506L205.152 55.7976L256.003 112.51L256.003 140.315L191.78 70.3506Z" fill="url(#paint9_linear_1_13347)"/>
</g>
<mask id="mask6_1_13347" style="mask-type:luminance" maskUnits="userSpaceOnUse" x="0" y="0" width="257" height="212">
<path d="M256.003 0.328125H0V211.267H256.003V0.328125Z" fill="url(#paint10_linear_1_13347)"/>
</mask>
<g mask="url(#mask6_1_13347)">
<path d="M192.721 211.267L256.003 140.315L168.751 44.4336L192.721 211.267Z" fill="url(#paint11_linear_1_13347)"/>
</g>
<mask id="mask7_1_13347" style="mask-type:luminance" maskUnits="userSpaceOnUse" x="0" y="0" width="257" height="212">
<path d="M256.003 0.328125H0V211.267H256.003V0.328125Z" fill="url(#paint12_linear_1_13347)"/>
</mask>
<g mask="url(#mask7_1_13347)">
<path d="M128.481 141.274L192.721 211.267L168.751 44.4336L128.481 141.274Z" fill="url(#paint13_linear_1_13347)"/>
</g>
<mask id="mask8_1_13347" style="mask-type:luminance" maskUnits="userSpaceOnUse" x="0" y="0" width="257" height="212">
<path d="M256.003 0.328125H0V211.267H256.003V0.328125Z" fill="url(#paint14_linear_1_13347)"/>
</mask>
<g mask="url(#mask8_1_13347)">
<path d="M64.2404 211.267L128.481 141.274V0.328125L64.2404 211.267Z" fill="url(#paint15_linear_1_13347)"/>
</g>
<mask id="mask9_1_13347" style="mask-type:luminance" maskUnits="userSpaceOnUse" x="0" y="0" width="257" height="212">
<path d="M256.003 0.328125H0V211.267H256.003V0.328125Z" fill="url(#paint16_linear_1_13347)"/>
</mask>
<g mask="url(#mask9_1_13347)">
<path d="M64.2404 211.267L89.3615 183.896L128.481 41.5033V0.328125L64.2404 211.267Z" fill="url(#paint17_linear_1_13347)"/>
</g>
<mask id="mask10_1_13347" style="mask-type:luminance" maskUnits="userSpaceOnUse" x="0" y="0" width="257" height="212">
<path d="M256.003 0.328125H0V211.267H256.003V0.328125Z" fill="url(#paint18_linear_1_13347)"/>
</mask>
<g mask="url(#mask10_1_13347)">
<path d="M128.481 141.274L168.751 44.4335L128.481 0.328125V141.274Z" fill="url(#paint19_linear_1_13347)"/>
</g>
<mask id="mask11_1_13347" style="mask-type:luminance" maskUnits="userSpaceOnUse" x="0" y="0" width="257" height="212">
<path d="M256.003 0.328125H0V211.267H256.003V0.328125Z" fill="url(#paint20_linear_1_13347)"/>
</mask>
<g mask="url(#mask11_1_13347)">
<path d="M31.6408 105.661C33.8399 112.866 64.2448 211.267 64.2448 211.267L128.481 0.328125L31.6408 105.661Z" fill="url(#paint21_linear_1_13347)"/>
</g>
<mask id="mask12_1_13347" style="mask-type:luminance" maskUnits="userSpaceOnUse" x="0" y="0" width="257" height="212">
<path d="M256.003 0.328125H0V211.267H256.003V0.328125Z" fill="url(#paint22_linear_1_13347)"/>
</mask>
<g mask="url(#mask12_1_13347)">
<path d="M29.0411 108.426L51.7759 83.7574L83.9433 189.819L64.2404 211.264L29.0411 108.426Z" fill="url(#paint23_linear_1_13347)"/>
</g>
<mask id="mask13_1_13347" style="mask-type:luminance" maskUnits="userSpaceOnUse" x="0" y="0" width="257" height="212">
<path d="M256.003 0.328125H0V211.267H256.003V0.328125Z" fill="url(#paint24_linear_1_13347)"/>
</mask>
<g mask="url(#mask13_1_13347)">
<path d="M0 140.774L64.2404 211.267L0.0026355 0.328125L0 140.774Z" fill="url(#paint25_linear_1_13347)"/>
</g>
</g>
<defs>
<linearGradient id="paint0_linear_1_13347" x1="3310.63" y1="1909.75" x2="14899.8" y2="19422.9" gradientUnits="userSpaceOnUse">
<stop stop-color="#67337A"/>
<stop offset="1" stop-color="#723986"/>
</linearGradient>
<linearGradient id="paint1_linear_1_13347" x1="830.757" y1="955.037" x2="6893.04" y2="5552.77" gradientUnits="userSpaceOnUse">
<stop stop-color="#67337A"/>
<stop offset="1" stop-color="#723986"/>
</linearGradient>
<linearGradient id="paint2_linear_1_13347" x1="23551.5" y1="11063.6" x2="7591.51" y2="11063.6" gradientUnits="userSpaceOnUse">
<stop stop-color="#623274" stop-opacity="0"/>
<stop offset="1" stop-color="#542C65"/>
</linearGradient>
<linearGradient id="paint3_linear_1_13347" x1="4053.83" y1="5149.09" x2="2510.42" y2="5620.96" gradientUnits="userSpaceOnUse">
<stop stop-color="#623274" stop-opacity="0"/>
<stop offset="1" stop-color="#542C65"/>
</linearGradient>
<linearGradient id="paint4_linear_1_13347" x1="23551.5" y1="11063.6" x2="7591.51" y2="11063.6" gradientUnits="userSpaceOnUse">
<stop stop-color="#623274" stop-opacity="0"/>
<stop offset="1" stop-color="#542C65"/>
</linearGradient>
<linearGradient id="paint5_linear_1_13347" x1="719.693" y1="-3811.89" x2="1816.83" y2="-2245.01" gradientUnits="userSpaceOnUse">
<stop stop-color="#623274" stop-opacity="0"/>
<stop offset="1" stop-color="#542C65"/>
</linearGradient>
<linearGradient id="paint6_linear_1_13347" x1="23469.1" y1="1181.37" x2="16917.3" y2="17841.3" gradientUnits="userSpaceOnUse">
<stop stop-color="#8A519F"/>
<stop offset="1" stop-color="#8A53A0"/>
</linearGradient>
<linearGradient id="paint7_linear_1_13347" x1="6081" y1="784.113" x2="-297.09" y2="6916.64" gradientUnits="userSpaceOnUse">
<stop stop-color="#8A519F"/>
<stop offset="1" stop-color="#8A53A0"/>
</linearGradient>
<linearGradient id="paint8_linear_1_13347" x1="16250.8" y1="10172.8" x2="0" y2="10172.8" gradientUnits="userSpaceOnUse">
<stop stop-color="#8A529F" stop-opacity="0.1"/>
<stop offset="1" stop-color="#542C65"/>
</linearGradient>
<linearGradient id="paint9_linear_1_13347" x1="4616.34" y1="2103.18" x2="3493.09" y2="3266.34" gradientUnits="userSpaceOnUse">
<stop stop-color="#8A529F" stop-opacity="0.1"/>
<stop offset="1" stop-color="#542C65"/>
</linearGradient>
<linearGradient id="paint10_linear_1_13347" x1="6323.01" y1="6624.01" x2="18785.1" y2="16333.2" gradientUnits="userSpaceOnUse">
<stop stop-color="#5C2E6D"/>
<stop offset="1" stop-color="#6D377B"/>
</linearGradient>
<linearGradient id="paint11_linear_1_13347" x1="2323.79" y1="5283.17" x2="8457.89" y2="7342.6" gradientUnits="userSpaceOnUse">
<stop stop-color="#5C2E6D"/>
<stop offset="1" stop-color="#6D377B"/>
</linearGradient>
<linearGradient id="paint12_linear_1_13347" x1="3160.61" y1="7268.85" x2="20324.4" y2="13038" gradientUnits="userSpaceOnUse">
<stop stop-color="#612E74"/>
<stop offset="1" stop-color="#7F4395"/>
</linearGradient>
<linearGradient id="paint13_linear_1_13347" x1="921.593" y1="5793.18" x2="5661.3" y2="6298.63" gradientUnits="userSpaceOnUse">
<stop stop-color="#612E74"/>
<stop offset="1" stop-color="#7F4395"/>
</linearGradient>
<linearGradient id="paint14_linear_1_13347" x1="25600.3" y1="0.328125" x2="25600.3" y2="14631" gradientUnits="userSpaceOnUse">
<stop stop-color="#582C6A"/>
<stop offset="1" stop-color="#743983"/>
</linearGradient>
<linearGradient id="paint15_linear_1_13347" x1="6488.28" y1="0.328125" x2="6488.28" y2="14631" gradientUnits="userSpaceOnUse">
<stop stop-color="#582C6A"/>
<stop offset="1" stop-color="#743983"/>
</linearGradient>
<linearGradient id="paint16_linear_1_13347" x1="12800.1" y1="15776" x2="5061.07" y2="14823.3" gradientUnits="userSpaceOnUse">
<stop stop-color="#623274" stop-opacity="0"/>
<stop offset="1" stop-color="#542C65"/>
</linearGradient>
<linearGradient id="paint17_linear_1_13347" x1="3276.26" y1="15776" x2="1306.7" y2="15715.2" gradientUnits="userSpaceOnUse">
<stop stop-color="#623274" stop-opacity="0"/>
<stop offset="1" stop-color="#542C65"/>
</linearGradient>
<linearGradient id="paint18_linear_1_13347" x1="0" y1="0.328125" x2="0" y2="21094.2" gradientUnits="userSpaceOnUse">
<stop stop-color="#723A85"/>
<stop offset="1" stop-color="#8C519C"/>
</linearGradient>
<linearGradient id="paint19_linear_1_13347" x1="128.481" y1="0.328125" x2="128.481" y2="14094.9" gradientUnits="userSpaceOnUse">
<stop stop-color="#723A85"/>
<stop offset="1" stop-color="#8C519C"/>
</linearGradient>
<linearGradient id="paint20_linear_1_13347" x1="4.58911e-05" y1="7578.72" x2="15729.9" y2="10885.9" gradientUnits="userSpaceOnUse">
<stop stop-color="#66397A"/>
<stop offset="1" stop-color="#9F69AB"/>
</linearGradient>
<linearGradient id="paint21_linear_1_13347" x1="31.6408" y1="7578.72" x2="6205.88" y2="8069.76" gradientUnits="userSpaceOnUse">
<stop stop-color="#66397A"/>
<stop offset="1" stop-color="#9F69AB"/>
</linearGradient>
<linearGradient id="paint22_linear_1_13347" x1="18432.2" y1="10172.8" x2="0" y2="10172.8" gradientUnits="userSpaceOnUse">
<stop stop-color="#623274" stop-opacity="0"/>
<stop offset="1" stop-color="#542C65"/>
</linearGradient>
<linearGradient id="paint23_linear_1_13347" x1="3788.3" y1="5274.16" x2="1794.71" y2="5883.67" gradientUnits="userSpaceOnUse">
<stop stop-color="#623274" stop-opacity="0"/>
<stop offset="1" stop-color="#542C65"/>
</linearGradient>
<linearGradient id="paint24_linear_1_13347" x1="12800.1" y1="4438.27" x2="12800.1" y2="16494" gradientUnits="userSpaceOnUse">
<stop stop-color="#5D306E"/>
<stop offset="1" stop-color="#9F6AAA"/>
</linearGradient>
<linearGradient id="paint25_linear_1_13347" x1="3212.02" y1="4438.27" x2="3212.02" y2="16494" gradientUnits="userSpaceOnUse">
<stop stop-color="#5D306E"/>
<stop offset="1" stop-color="#9F6AAA"/>
</linearGradient>
<clipPath id="clip0_1_13347">
<rect width="256" height="213" fill="white"/>
</clipPath>
</defs>
</svg>
