<svg width="256" height="290" viewBox="0 0 256 290" fill="none" xmlns="http://www.w3.org/2000/svg">
<g clip-path="url(#clip0_1_13476)">
<path d="M128 0.046875L256 72.4514V217.309L128 289.713L0 217.309V72.4514L128 0.046875Z" fill="white"/>
<path d="M233.153 212.286L132.251 269.427V224.99L195.14 190.357L233.153 212.286ZM240.06 206.055V86.653L203.158 107.954V184.754L240.06 206.055ZM22.4604 212.286L123.363 269.379V224.941L60.474 190.357L22.4604 212.286ZM15.5532 206.055V86.653L52.4559 107.954V184.754L15.5532 206.055ZM19.8521 78.9247L123.363 20.3828V63.3715L57.0445 99.8394L56.5132 100.129L19.8521 78.9247ZM235.713 78.9247L132.251 20.3828V63.3715L198.521 99.8877L199.052 100.178L235.713 78.9247Z" fill="#8ED6FB"/>
<path d="M123.363 214.845L61.3434 180.696V113.122L123.363 148.913V214.845ZM132.251 214.845L194.27 180.744V113.122L132.251 148.913V214.845ZM65.4973 105.297L127.807 71.0508L190.068 105.297L127.807 141.233L65.4973 105.297Z" fill="#1C78C0"/>
</g>
<defs>
<clipPath id="clip0_1_13476">
<rect width="256" height="290" fill="white"/>
</clipPath>
</defs>
</svg>
