<svg width="256" height="254" viewBox="0 0 256 254" fill="none" xmlns="http://www.w3.org/2000/svg">
<g clip-path="url(#clip0_1_13481)">
<path d="M256 219.951V33.9508C256 15.2508 240.8 0.0507812 222.1 0.0507812C203.4 0.0507812 188.2 15.2508 188.2 33.9508V138.051L246.1 195.951C252.7 202.551 256 211.251 256 219.951Z" fill="#2DB2C4"/>
<path d="M104.7 101.25L67.0999 138.75V220.65C67.0999 230.05 63.3 238.45 57.2 244.65L128.7 173.25L104.7 149.25C91.4999 135.95 91.4999 114.55 104.7 101.25Z" fill="#E45026"/>
<path d="M188.8 138.752L151.4 101.352C164.6 114.552 164.6 136.052 151.4 149.352L127.4 173.352L198.8 244.752C192.7 238.652 189.1 229.952 188.9 220.752V138.752H188.8Z" fill="#694EA0"/>
<path d="M104 149.849L128 173.849L152 149.849C165.2 136.649 165.2 115.149 152 101.849C138.8 88.6492 117.3 88.6492 104 101.849C90.8 115.149 90.8 136.549 104 149.849Z" fill="#801434"/>
<path d="M67.8 138.051C52.4 153.451 37 168.851 21.6 184.251C14.8 191.051 5.90004 197.751 2.50004 207.151C-1.89996 218.051 -0.299959 230.751 6.80004 240.251C13.8 249.651 26.2 255.451 38 253.651C49.4 251.851 59.4 245.351 64.5 234.751C67.1 229.351 68.1 223.951 67.9 217.751C67.9 206.651 67.9 195.651 67.9 184.551C67.8 168.951 67.8 153.551 67.8 138.051Z" fill="#D02F28"/>
<path d="M188.2 138.051C188.2 159.851 188.2 181.651 188.2 203.451C188.2 213.051 187 223.851 190.7 232.851C195 243.251 204.8 251.551 216 253.351C227.9 255.151 240 251.251 247.8 241.951C255.4 232.951 257.7 220.351 254.2 209.151C252.4 203.351 248.9 198.651 244.4 194.351C236.5 186.451 228.7 178.651 220.9 170.851C210 159.951 199.1 149.051 188.2 138.051Z" fill="#263D81"/>
<path d="M67.8 138.051V33.9508C67.8 15.2508 52.6 0.0507812 33.9 0.0507812C15.2 0.0507812 0 15.2508 0 33.9508V219.951C0 211.251 3.3 202.551 9.9 195.951L67.8 138.051Z" fill="#F99D22"/>
<path d="M138.1 115.852C132.6 110.352 123.5 110.352 118 115.852C112.5 121.352 112.5 130.452 118 135.952C123.5 141.452 132.6 141.452 138.1 135.952C143.6 130.452 143.5 121.252 138.1 115.852Z" fill="white"/>
<path d="M33.9 48.15C41.7424 48.15 48.0999 41.7924 48.0999 33.95C48.0999 26.1076 41.7424 19.75 33.9 19.75C26.0575 19.75 19.7 26.1076 19.7 33.95C19.7 41.7924 26.0575 48.15 33.9 48.15Z" fill="white"/>
<path d="M222.1 48.15C229.942 48.15 236.3 41.7924 236.3 33.95C236.3 26.1076 229.942 19.75 222.1 19.75C214.257 19.75 207.9 26.1076 207.9 33.95C207.9 41.7924 214.257 48.15 222.1 48.15Z" fill="white"/>
<path d="M33.9 234.15C41.7424 234.15 48.0999 227.792 48.0999 219.95C48.0999 212.108 41.7424 205.75 33.9 205.75C26.0575 205.75 19.7 212.108 19.7 219.95C19.7 227.792 26.0575 234.15 33.9 234.15Z" fill="white"/>
<path d="M222.1 234.15C229.942 234.15 236.3 227.792 236.3 219.95C236.3 212.108 229.942 205.75 222.1 205.75C214.257 205.75 207.9 212.108 207.9 219.95C207.9 227.792 214.257 234.15 222.1 234.15Z" fill="white"/>
</g>
<defs>
<clipPath id="clip0_1_13481">
<rect width="256" height="254" fill="white"/>
</clipPath>
</defs>
</svg>
