<svg width="256" height="249" viewBox="0 0 256 249" fill="none" xmlns="http://www.w3.org/2000/svg">
<g clip-path="url(#clip0_1_13494)">
<path d="M142.076 191.084C142.076 222.89 116.295 248.676 84.4884 248.676C52.6781 248.676 26.8962 222.89 26.8962 191.084C26.8962 159.277 52.6781 133.491 84.4884 133.491C116.295 133.491 142.076 159.277 142.076 191.084Z" fill="#FF6600"/>
<path d="M255.98 110.459C255.98 142.261 230.198 168.051 198.392 168.051C166.581 168.051 140.8 142.261 140.8 110.459C140.8 78.6524 166.581 52.8622 198.392 52.8622C230.198 52.8622 255.98 78.6524 255.98 110.459Z" fill="#FFCC00"/>
<path d="M115.2 109.177C115.2 140.979 89.4186 166.77 57.6082 166.77C25.8063 166.77 0.0202637 140.979 0.0202637 109.177C0.0202637 77.3712 25.8063 51.5809 57.6082 51.5809C89.4186 51.5809 115.2 77.3712 115.2 109.177Z" fill="#0089CC"/>
<path d="M230.386 191.084C230.386 222.89 204.604 248.676 172.789 248.676C140.987 248.676 115.201 222.89 115.201 191.084C115.201 159.277 140.987 133.491 172.789 133.491C204.604 133.491 230.386 159.277 230.386 191.084Z" fill="#009939"/>
<path d="M185.592 57.982C185.592 89.7882 159.806 115.574 128 115.574C96.1935 115.574 70.4075 89.7882 70.4075 57.982C70.4075 26.1758 96.1935 0.389816 128 0.389816C159.806 0.389816 185.592 26.1758 185.592 57.982Z" fill="#BF0000"/>
<path d="M140.799 110.458C140.799 111.67 140.904 112.856 140.98 114.051C166.526 108.157 185.591 85.318 185.591 57.9826C185.591 56.771 185.485 55.5805 185.409 54.3857C159.864 60.2834 140.799 83.1227 140.799 110.458Z" fill="#FC0007"/>
<path d="M148.397 138.976C158.322 156.327 176.973 168.051 198.394 168.051C207.125 168.051 215.37 166.05 222.787 162.571C212.866 145.22 194.215 133.496 172.79 133.496C164.059 133.496 155.814 135.497 148.397 138.976Z" fill="#1CD306"/>
<path d="M115.2 191.087C115.2 205.158 120.258 218.034 128.642 228.035C137.018 218.034 142.076 205.158 142.076 191.087C142.076 177.016 137.018 164.14 128.642 154.139C120.258 164.14 115.2 177.016 115.2 191.087Z" fill="#0F7504"/>
<path d="M34.8069 162.054C41.8022 165.077 49.5026 166.77 57.6082 166.77C78.8179 166.77 97.2962 155.274 107.293 138.206C100.298 135.183 92.5933 133.494 84.4919 133.494C63.2821 133.494 44.7996 144.99 34.8069 162.054Z" fill="#0C5E87"/>
<path d="M70.6546 53.1247C70.5195 54.729 70.4055 56.3416 70.4055 57.9839C70.4055 85.2982 89.4411 108.116 114.957 114.035C115.088 112.431 115.202 110.818 115.202 109.18C115.202 81.8659 96.1704 59.0393 70.6546 53.1247Z" fill="#6B0001"/>
<path d="M76.0304 183.961H67.0214C59.0677 183.961 52.6001 177.514 52.6001 169.582V88.0358C52.6001 80.1033 59.0677 73.6525 67.0214 73.6525H179.989C187.943 73.6525 194.406 80.1033 194.406 88.0358V169.582C194.406 177.514 187.943 183.961 179.989 183.961H141.505L64.2899 221.812L76.0304 183.961Z" fill="white"/>
</g>
<defs>
<clipPath id="clip0_1_13494">
<rect width="256" height="249" fill="white"/>
</clipPath>
</defs>
</svg>
