<svg width="256" height="256" viewBox="0 0 256 256" fill="none" xmlns="http://www.w3.org/2000/svg">
<g clip-path="url(#clip0_1_13510)">
<path d="M34.5067 231.361L0 26.8277L63.8133 0.347656L104.56 24.561L141.893 4.42766L219.68 34.2943L176.053 256.001L34.5067 231.361Z" fill="url(#paint0_linear_1_13510)"/>
<path d="M256 86.6933L222.96 5.09333L163.013 0L70.48 88.9067L95.3866 203.493L141.893 236.107L256 168.4L228 115.893L256 86.6933Z" fill="url(#paint1_linear_1_13510)"/>
<path d="M204.72 74.5339L228 115.894L256 86.6939L235.44 35.8672L204.72 74.5339Z" fill="url(#paint2_linear_1_13510)"/>
<path d="M48 48H208V208H48V48Z" fill="black"/>
<path d="M67.9468 177.759H127.947V187.759H67.9468V177.759ZM124.747 67.9187L115.813 102.932L105.6 67.9187H95.4401L85.2001 102.932L76.2935 67.9187H62.2935L79.4401 127.945H90.6935L100.507 93.1987L110.213 127.945H121.6L138.72 67.9187H124.747ZM141.227 119.625L149.04 110.025C153.948 114.558 160.335 117.154 167.013 117.332C172.347 117.332 175.707 115.199 175.707 111.652V111.492C175.707 109.593 175.042 108.222 172.649 106.922L172.267 106.722L171.857 106.523C171.786 106.49 171.714 106.457 171.641 106.424L171.187 106.226C171.109 106.193 171.03 106.16 170.949 106.127L170.449 105.928L169.918 105.728C169.827 105.695 169.734 105.662 169.64 105.628L169.06 105.427C168.961 105.393 168.86 105.36 168.757 105.326L168.126 105.122L167.46 104.916C167.346 104.881 167.231 104.846 167.113 104.812L166.393 104.601L165.636 104.388L164.84 104.171L164.006 103.951L162.4 103.535L161.256 103.228L160.509 103.02L159.775 102.81L159.054 102.596L158.347 102.379L157.653 102.157L156.974 101.93C156.862 101.892 156.75 101.853 156.64 101.815L155.982 101.58L155.338 101.339L154.709 101.091L154.095 100.836C153.994 100.793 153.894 100.749 153.794 100.706L153.203 100.439L152.628 100.164C147.045 97.4157 143.738 93.3676 143.63 85.8252L143.627 85.252C143.627 74.4602 152.216 67.2713 164.306 67.1211L164.693 67.1187C172.809 66.9752 180.717 69.6836 187.04 74.772L180.16 84.7454C175.665 81.2284 170.205 79.1635 164.507 78.8254C159.44 78.8254 156.773 81.1454 156.773 84.1587V84.3454C156.773 86.7477 157.761 88.2015 160.862 89.5728L161.32 89.7683C161.477 89.8333 161.639 89.8982 161.807 89.9632L162.324 90.158L162.872 90.3535L163.451 90.55L164.064 90.7483L164.709 90.9488L165.388 91.152L166.471 91.4635L167.238 91.6762L168.042 91.8938L169.76 92.3454C170.044 92.4198 170.325 92.4948 170.604 92.5706L171.43 92.8C171.566 92.8386 171.701 92.8774 171.836 92.9164L172.636 93.1528L173.418 93.3943L174.182 93.6412L174.928 93.8941L175.656 94.1532C175.776 94.1969 175.895 94.2409 176.013 94.2852L176.714 94.5544C184.437 97.5993 188.726 101.987 188.851 110.061L188.853 110.585C188.853 122.532 179.733 129.253 166.747 129.253C157.346 129.289 148.261 125.862 141.227 119.625Z" fill="white"/>
</g>
<defs>
<linearGradient id="paint0_linear_1_13510" x1="9643.11" y1="499.014" x2="16143" y2="23902.8" gradientUnits="userSpaceOnUse">
<stop offset="0.28" stop-color="#07C3F2"/>
<stop offset="0.94" stop-color="#087CFA"/>
</linearGradient>
<linearGradient id="paint1_linear_1_13510" x1="6204.34" y1="3560" x2="16051.1" y2="17998.6" gradientUnits="userSpaceOnUse">
<stop offset="0.14" stop-color="#FCF84A"/>
<stop offset="0.37" stop-color="#07C3F2"/>
</linearGradient>
<linearGradient id="paint2_linear_1_13510" x1="2482.39" y1="2041.2" x2="3890.33" y2="7027.66" gradientUnits="userSpaceOnUse">
<stop offset="0.28" stop-color="#07C3F2"/>
<stop offset="0.94" stop-color="#087CFA"/>
</linearGradient>
<clipPath id="clip0_1_13510">
<rect width="256" height="256" fill="white"/>
</clipPath>
</defs>
</svg>
