<svg width="256" height="295" viewBox="0 0 256 295" fill="none" xmlns="http://www.w3.org/2000/svg">
<g clip-path="url(#clip0_1_13517)">
<path d="M125.331 293.511C122.213 291.853 3.85565 223.474 2.69809 222.662C0.234605 220.933 0.400532 226.366 0.400532 147.431C0.400532 68.496 0.234596 73.9294 2.69809 72.2001C3.30736 71.7724 31.3672 55.5126 65.0533 36.0671C107.32 11.6683 126.75 0.658617 127.751 0.540333C129.562 0.326342 123.32 -3.17048 195.081 38.2604C237.461 62.7288 254.307 72.6519 254.931 73.5155L255.8 74.7174V147.431V220.145L254.931 221.346C254.307 222.21 237.466 232.13 195.079 256.602C128.019 295.318 129.558 294.447 128.16 294.455C127.587 294.458 126.314 294.033 125.331 293.511Z" fill="#EB324B"/>
<path d="M126.397 275.24C125.957 275.052 101.445 260.939 71.9275 243.879C37.5757 224.024 17.965 212.466 17.4424 211.766C16.629 210.676 16.626 210.439 16.626 147.432C16.626 84.3846 16.6285 84.1886 17.444 83.0963C17.9687 82.3935 37.5046 70.8796 71.9291 50.9843C101.446 33.9253 126.045 19.7904 126.594 19.5733C127.142 19.3562 128.147 19.2828 128.826 19.4102C129.793 19.5918 233.31 79.0147 237.631 81.8687C238.215 82.2543 238.878 83.0567 239.106 83.6519C239.382 84.3741 239.562 105.68 239.647 147.702L239.775 210.669L238.936 211.802C238.383 212.549 226.927 219.376 205.283 231.857C124.241 278.593 129.421 275.665 127.874 275.607C127.503 275.593 126.838 275.428 126.397 275.24ZM129.166 205.592C130.275 203.447 134.47 198.105 137.842 194.542C139.7 192.58 146.809 185.983 153.64 179.884C169.404 165.808 174.498 160.499 179.781 152.64C186.556 142.561 189.784 130.538 188.278 120.991C186.628 110.533 180.26 101.822 170.867 97.175C166.816 95.171 163.884 94.4831 158.448 94.2611C154.454 94.0981 153.029 94.2097 150.034 94.9203C141.355 96.9794 133.827 102.673 129.731 110.274C129.048 111.541 128.337 112.578 128.151 112.578C127.965 112.578 127.366 111.695 126.819 110.616C125.39 107.796 121.373 102.952 118.903 101.071C111.978 95.7976 106.019 93.8908 97.5994 94.2544C92.1516 94.4897 88.851 95.3355 84.4857 97.6151C77.017 101.515 70.9123 109.13 68.6372 117.385C67.7444 120.624 67.6443 130.725 68.4685 134.412C70.3889 143.003 74.8279 151.458 81.7191 159.651C85.5892 164.253 92.9344 171.346 103.962 181.133C117.516 193.161 122.395 198.238 126.366 204.445C127.168 205.699 127.994 206.725 128.202 206.725C128.41 206.725 128.844 206.215 129.166 205.592Z" fill="#333943"/>
<path d="M151.605 228.563C139.283 217.406 129.142 208.012 129.069 207.686C128.923 207.033 130.742 204.004 133.136 200.915C136.792 196.198 141.549 191.498 153.236 181.054C172.739 163.627 178.107 157.682 183.599 147.431C187.332 140.463 189.1 133.449 189.089 125.645C189.081 119.731 188.321 116.382 185.813 111.21C185.182 109.907 184.715 108.722 184.777 108.575C184.889 108.307 237.163 156.706 238.472 158.29C239.124 159.078 239.173 160.941 239.171 184.634C239.169 208.185 239.116 210.216 238.47 211.26C237.958 212.089 229.412 217.22 206.522 230.442C189.336 240.37 174.989 248.572 174.641 248.67C174.231 248.785 166.117 241.703 151.605 228.563Z" fill="#252A32"/>
</g>
<defs>
<clipPath id="clip0_1_13517">
<rect width="256" height="295" fill="white"/>
</clipPath>
</defs>
</svg>
