<svg width="512" height="103" viewBox="0 0 512 103" fill="none" xmlns="http://www.w3.org/2000/svg">
<g clip-path="url(#clip0_1_13528)">
<path d="M224.573 28.6323H235.935L213.746 84.8067H202.05L188.015 41.9322H187.814L173.779 84.8067H162.417L140.662 28.6323H152.559L168.098 71.5067H168.298L182.233 28.6323H194.029L208.299 71.5067H208.499L224.573 28.6323ZM243.421 7.61719H254.148V37.0909H254.348C259.595 29.2713 268.183 26.6983 276.337 26.6983C289.837 26.6983 299.929 32.4796 299.929 46.5146V84.7775H289.202V48.6534C289.202 40.3995 284.156 35.6877 272.594 35.6877C262.836 35.6877 254.148 41.3685 254.148 52.3963V84.7775H243.421V7.61719ZM312.854 46.1768V46.2104C314.23 32.4399 323.522 26.9045 339.778 26.7005L341.352 26.6974L342.623 26.7206C342.836 26.7265 343.05 26.7335 343.264 26.7416L344.557 26.8036C344.773 26.8162 344.99 26.8301 345.206 26.8452L346.509 26.951C356.505 27.8815 366.556 31.6282 366.556 42.6681V72.8772C366.556 76.0853 368.161 77.6893 371.369 77.6893C372.538 77.6893 373.941 77.589 375.11 77.255V84.7737C372.538 85.2082 369.33 85.4087 366.755 85.4087C361.276 85.4087 357.868 83.9052 357.1 77.5893C352.722 83.3704 342.296 86.712 333.205 86.712C317.309 86.712 311.895 79.6168 310.673 73.002L310.541 72.1781C310.505 71.9047 310.475 71.6327 310.451 71.3626L310.399 70.5587C310.393 70.4259 310.389 70.2937 310.386 70.1621L310.382 69.7697C310.382 60.3571 315.399 55.3304 329.724 52.9514L331.563 52.6677C332.507 52.5326 333.489 52.4076 334.508 52.2922L346.741 51.0225L347.355 50.9648L348.532 50.8326L349.641 50.6727C353.934 49.9692 356.498 48.4482 356.498 44.2721C356.498 37.9382 351.436 35.7889 344.837 35.2214L343.583 35.1329C343.371 35.1211 343.158 35.1106 342.944 35.1014L341.645 35.0614L340.323 35.0489C331.2 35.0489 323.281 37.6222 322.948 46.1768H312.854ZM356.463 55.4337C355.393 56.6366 353.746 57.3792 350.994 57.9585L349.745 58.1976C349.526 58.236 349.3 58.2739 349.068 58.3112L347.599 58.5301L345.972 58.7419L333.874 60.2457C325.42 61.4152 321.109 63.4535 321.109 69.4687C321.109 74.7153 326.355 78.3579 334.175 78.3579C346.273 78.3579 356.463 72.0417 356.463 62.6183V55.4337ZM382.439 7.61719H393.166V84.7775H382.439V7.61719ZM406.135 46.1768V46.2104C407.512 32.4399 416.804 26.9045 433.059 26.7005L434.633 26.6974L435.904 26.7206C436.117 26.7265 436.331 26.7335 436.546 26.7416L437.838 26.8036C438.054 26.8162 438.271 26.8301 438.488 26.8452L439.79 26.951C449.787 27.8815 459.838 31.6282 459.838 42.6681V72.8772C459.838 76.0853 461.442 77.6893 464.648 77.6893C465.82 77.6893 467.222 77.589 468.391 77.255V84.7737C465.82 85.2082 462.611 85.4087 460.036 85.4087C454.557 85.4087 451.15 83.9052 450.381 77.5893C446.001 83.3704 435.577 86.712 426.486 86.712C410.591 86.712 405.177 79.6168 403.954 73.002L403.823 72.1781C403.786 71.9047 403.756 71.6327 403.732 71.3626L403.68 70.5587C403.674 70.4259 403.67 70.2937 403.667 70.1621L403.663 69.7697C403.663 60.3571 408.677 55.3304 423.004 52.9514L424.844 52.6677C425.788 52.5326 426.77 52.4076 427.789 52.2922L440.022 51.0225L440.636 50.9648L441.814 50.8326L442.923 50.6727C447.215 49.9692 449.779 48.4482 449.779 44.2721C449.779 37.9382 444.717 35.7889 438.119 35.2214L436.864 35.1329C436.652 35.1211 436.439 35.1106 436.225 35.1014L434.926 35.0614L433.605 35.0489C424.481 35.0489 416.562 37.6222 416.229 46.1768H406.135ZM449.744 55.4337C448.675 56.6366 447.026 57.3792 444.274 57.9585L443.026 58.1976C442.806 58.236 442.58 58.2739 442.348 58.3112L440.88 58.5301L439.253 58.7419L427.155 60.2457C418.701 61.4152 414.391 63.4535 414.391 69.4687C414.391 74.7153 419.636 78.3579 427.456 78.3579C439.551 78.3579 449.744 72.0417 449.744 62.6183V55.4337ZM475.676 28.6329H486.404V38.9255H486.603C491.649 30.0363 498.701 26.6946 505.887 26.6946C508.561 26.6946 509.963 26.7949 512 27.3295V38.8919C509.329 38.1567 507.289 37.8227 504.382 37.8227C493.756 37.8227 486.369 44.1385 486.369 56.2691V84.7737H475.644V28.5994L475.676 28.6329Z" fill="#090909"/>
<path d="M107.942 48.5679L107.942 75.553C107.928 75.815 107.098 88.9146 80.9579 88.9146C54.5539 88.9146 53.9729 101.699 53.9729 102.28L53.972 102.229C53.9394 101.158 52.8636 88.9146 26.988 88.9146C1.08131 88.9146 0.0217658 77.3547 0.000371702 75.7364L0.000742963 75.6115C0.00163795 75.5704 0.00303264 75.549 0.00303264 75.549L0.00341558 48.5683C0.0294614 48.8303 1.45939 61.9296 26.988 61.9296C52.7745 61.9296 53.9729 74.0967 53.9729 75.2951C53.9729 74.3872 54.2634 61.9296 80.9579 61.9296C107.133 61.9296 107.918 49.0806 107.942 48.5751L107.942 48.5679ZM107.943 0.00390625L107.943 27.0007C107.932 27.5141 107.404 40.3505 80.9582 40.3505C54.7828 40.3505 53.9975 52.3448 53.974 53.628L53.9732 53.7157C53.9732 53.1348 53.3923 40.3505 26.9883 40.3505C1.04791 40.3505 0.0174064 28.7905 0.000244141 27.1721L0.000944527 27.0473C0.00169769 27.0165 0.00270318 26.9968 0.00315886 26.9888L0.00361739 0.0157479C0.0141945 0.52919 0.543076 13.3652 26.9883 13.3652C53.1637 13.3652 53.9489 25.0866 53.9725 26.6186L53.9738 26.6459C53.9954 25.0505 54.7976 13.3652 80.9582 13.3652C107.386 13.3652 107.935 0.265893 107.943 0.00390625Z" fill="#22CACE"/>
</g>
<defs>
<clipPath id="clip0_1_13528">
<rect width="512" height="103" fill="white"/>
</clipPath>
</defs>
</svg>
