<svg width="512" height="119" viewBox="0 0 512 119" fill="none" xmlns="http://www.w3.org/2000/svg">
<g clip-path="url(#clip0_1_13540)">
<path d="M500.137 72.0657C499.819 73.6702 499.27 75.0706 498.496 76.2733C497.719 77.4765 496.704 78.4559 495.448 79.1993C494.195 79.9488 492.631 80.325 490.761 80.325C488.944 80.325 487.394 79.9488 486.112 79.1993C484.829 78.4559 483.802 77.4765 483.025 76.2733C482.254 75.0706 481.691 73.6702 481.342 72.0657C480.995 70.4647 480.822 68.832 480.822 67.1803C480.822 65.464 480.986 63.8081 481.304 62.2083C481.624 60.6043 482.174 59.1891 482.947 57.9535C483.721 56.7276 484.738 55.7261 485.993 54.9528C487.245 54.1777 488.809 53.7854 490.681 53.7854C492.497 53.7854 494.032 54.1777 495.286 54.9528C496.545 55.7261 497.57 56.7383 498.373 57.9959C499.178 59.253 499.752 60.6844 500.098 62.2854C500.449 63.8899 500.619 65.5214 500.619 67.1803C500.619 68.832 500.457 70.4647 500.137 72.0657ZM510.877 59.038C510.128 56.3418 508.98 53.9753 507.429 51.9437C505.88 49.914 503.933 48.2819 501.581 47.0548C499.229 45.8234 496.421 45.2119 493.162 45.2119C490.601 45.2119 488.248 45.7171 486.112 46.7329C483.975 47.7493 482.211 49.3795 480.822 51.6242H480.666V46.331H469.844V102.291H481.222V82.6503H481.384C482.773 84.6831 484.553 86.2172 486.714 87.2562C488.876 88.2983 491.243 88.8226 493.809 88.8226C496.851 88.8226 499.509 88.2302 501.783 87.0574C504.05 85.8834 505.951 84.3045 507.471 82.3261C508.997 80.3477 510.128 78.0791 510.877 75.5137C511.629 72.9471 512 70.2754 512 67.4968C512 64.5575 511.629 61.7395 510.877 59.038ZM454.78 72.0657C454.456 73.6702 453.907 75.0706 453.135 76.2733C452.36 77.4765 451.344 78.4559 450.085 79.1993C448.833 79.9488 447.268 80.325 445.399 80.325C443.58 80.325 442.037 79.9488 440.755 79.1993C439.47 78.4559 438.443 77.4765 437.667 76.2733C436.892 75.0706 436.332 73.6702 435.984 72.0657C435.635 70.4647 435.465 68.832 435.465 67.1803C435.465 65.464 435.621 63.8081 435.941 62.2083C436.266 60.6043 436.81 59.1891 437.588 57.9535C438.358 56.7276 439.376 55.7261 440.635 54.9528C441.889 54.1777 443.447 53.7854 445.32 53.7854C447.135 53.7854 448.676 54.1777 449.928 54.9528C451.183 55.7261 452.215 56.7383 453.014 57.9959C453.814 59.253 454.388 60.6844 454.736 62.2854C455.086 63.8899 455.255 65.5214 455.255 67.1803C455.255 68.832 455.099 70.4647 454.78 72.0657ZM462.07 51.9437C460.522 49.914 458.57 48.2819 456.219 47.0548C453.866 45.8234 451.064 45.2119 447.806 45.2119C445.239 45.2119 442.889 45.7171 440.755 46.7329C438.611 47.7493 436.853 49.3795 435.465 51.6242H435.302V46.331H424.479V102.291H435.867V82.6503H436.021C437.409 84.6831 439.191 86.2172 441.356 87.2562C443.515 88.2983 445.881 88.8226 448.446 88.8226C451.493 88.8226 454.149 88.2302 456.419 87.0574C458.69 85.8834 460.587 84.3045 462.11 82.3261C463.635 80.3477 464.765 78.0791 465.519 75.5137C466.261 72.9471 466.64 70.2754 466.64 67.4968C466.64 64.5575 466.261 61.7395 465.519 59.038C464.765 56.3418 463.619 53.9753 462.07 51.9437ZM387.218 65.6533L394.671 44.6482H394.83L402.044 65.6533H387.218ZM388.418 30.5391L366.781 87.7782H379.444L383.929 75.0312H405.33L409.654 87.7782H422.721L401.325 30.5391H388.418ZM365.817 69.6215C365.07 68.3125 364.081 67.2167 362.852 66.3323C361.624 65.4533 360.218 64.7433 358.645 64.2064C357.067 63.6749 355.452 63.2241 353.794 62.8485C352.193 62.4729 350.619 62.1253 349.069 61.804C347.52 61.4816 346.141 61.1215 344.938 60.7232C343.737 60.3213 342.766 59.8036 342.017 59.1568C341.266 58.5173 340.896 57.6902 340.896 56.6732C340.896 55.8181 341.104 55.1373 341.534 54.6285C341.963 54.1234 342.484 53.7346 343.098 53.4647C343.714 53.1995 344.391 53.027 345.141 52.944C345.888 52.8651 346.585 52.8275 347.224 52.8275C349.256 52.8275 351.019 53.2139 352.518 53.9884C354.01 54.7635 354.84 56.2469 354.998 58.4366H365.817C365.604 55.873 364.95 53.7495 363.854 52.0614C362.76 50.3803 361.382 49.0302 359.727 48.0162C358.074 47.0004 356.189 46.2802 354.075 45.8515C351.965 45.4233 349.79 45.2119 347.549 45.2119C345.301 45.2119 343.109 45.4126 340.977 45.8091C338.836 46.2122 336.913 46.9096 335.206 47.8962C333.494 48.8845 332.12 50.2317 331.076 51.9437C330.032 53.6534 329.512 55.8474 329.512 58.5173C329.512 60.3344 329.889 61.8739 330.638 63.1285C331.379 64.3862 332.373 65.424 333.597 66.2535C334.829 67.0817 336.233 67.7524 337.808 68.2564C339.384 68.7693 341.001 69.2071 342.654 69.5827C346.719 70.439 349.886 71.2911 352.154 72.1493C354.425 73.0026 355.561 74.2847 355.561 75.9968C355.561 77.0119 355.322 77.8492 354.84 78.5186C354.358 79.1904 353.758 79.7213 353.037 80.1226C352.312 80.525 351.51 80.8206 350.633 81.0034C349.751 81.1921 348.907 81.2864 348.106 81.2864C346.984 81.2864 345.903 81.1521 344.864 80.8851C343.819 80.6176 342.898 80.2026 342.097 79.6412C341.296 79.0811 340.638 78.3609 340.132 77.4765C339.628 76.5939 339.368 75.5429 339.368 74.3104H328.55C328.66 77.0896 329.285 79.4024 330.437 81.2452C331.581 83.0893 333.049 84.5708 334.843 85.6953C336.632 86.8155 338.678 87.6193 340.977 88.1018C343.271 88.5813 345.623 88.8226 348.023 88.8226C350.375 88.8226 352.686 88.5933 354.959 88.143C357.23 87.6874 359.247 86.8985 361.01 85.7741C362.777 84.6538 364.2 83.1711 365.299 81.3258C366.391 79.4794 366.938 77.1953 366.938 74.4692C366.938 72.5422 366.565 70.9305 365.817 69.6215ZM318.776 33.9071H307.393V46.331H300.504V53.946H307.393V78.3986C307.393 80.4856 307.745 82.1672 308.437 83.4487C309.132 84.7297 310.08 85.7245 311.28 86.4172C312.483 87.1123 313.873 87.5781 315.45 87.8188C317.022 88.0576 318.698 88.1789 320.458 88.1789C321.584 88.1789 322.729 88.1502 323.907 88.1018C325.08 88.0469 326.147 87.943 327.111 87.7782V78.9587C326.575 79.0674 326.015 79.151 325.425 79.1993C324.84 79.2537 324.224 79.2823 323.583 79.2823C321.661 79.2823 320.378 78.9587 319.735 78.3179C319.097 77.6784 318.776 76.3951 318.776 74.4692V53.946H327.111V46.331H318.776V33.9071ZM286.157 71.742C286.157 72.3887 286.092 73.2433 285.957 74.3104C285.824 75.3823 285.463 76.4339 284.876 77.4765C284.288 78.5186 283.376 79.4173 282.151 80.162C280.923 80.9126 279.186 81.2864 276.939 81.2864C276.034 81.2864 275.15 81.2064 274.296 81.0428C273.439 80.8851 272.694 80.6021 272.052 80.2026C271.412 79.8019 270.903 79.2537 270.528 78.5586C270.157 77.8641 269.968 77.0119 269.968 75.9968C269.968 74.9284 270.157 74.0411 270.528 73.3496C270.903 72.658 271.398 72.0812 272.013 71.6255C272.625 71.1717 273.348 70.8116 274.176 70.5417C275.003 70.2754 275.844 70.0622 276.701 69.9015C277.607 69.7445 278.518 69.6065 279.424 69.5003C280.335 69.3957 281.203 69.2584 282.029 69.1008C282.86 68.9407 283.632 68.7377 284.355 68.497C285.076 68.2564 285.675 67.9267 286.157 67.4968V71.742ZM297.537 78.5586V56.9957C297.537 54.4799 296.978 52.4644 295.853 50.9435C294.733 49.4189 293.29 48.2312 291.529 47.3754C289.763 46.5209 287.811 45.9452 285.675 45.652C283.539 45.3582 281.428 45.2119 279.345 45.2119C277.049 45.2119 274.763 45.437 272.495 45.8927C270.219 46.3465 268.18 47.1097 266.362 48.1762C264.545 49.2451 263.045 50.6634 261.876 52.425C260.697 54.1884 260.03 56.4069 259.87 59.0798H271.249C271.463 56.8339 272.214 55.2293 273.497 54.2685C274.778 53.3058 276.539 52.8275 278.786 52.8275C279.799 52.8275 280.746 52.8944 281.63 53.027C282.51 53.1619 283.285 53.4253 283.954 53.8284C284.623 54.229 285.157 54.7886 285.556 55.5124C285.957 56.2331 286.157 57.2107 286.157 58.4366C286.21 59.616 285.862 60.5058 285.117 61.1215C284.366 61.7395 283.353 62.2083 282.07 62.5248C280.788 62.8485 279.318 63.0897 277.661 63.245C276.004 63.4086 274.322 63.6266 272.614 63.8899C270.903 64.158 269.206 64.5181 267.526 64.9726C265.844 65.424 264.343 66.109 263.036 67.0137C261.726 67.9267 260.658 69.1408 259.827 70.6647C259.001 72.1887 258.587 74.1277 258.587 76.4763C258.587 78.6135 258.948 80.457 259.669 82.0054C260.39 83.5598 261.391 84.8377 262.675 85.8541C263.958 86.8699 265.453 87.6193 267.163 88.1018C268.87 88.5813 270.715 88.8226 272.694 88.8226C275.258 88.8226 277.77 88.447 280.224 87.7023C282.683 86.9487 284.823 85.6439 286.639 83.7706C286.692 84.4651 286.785 85.1489 286.917 85.8153C287.051 86.4805 287.226 87.1392 287.44 87.7782H298.982C298.448 86.9278 298.071 85.6439 297.86 83.9307C297.643 82.2216 297.537 80.4343 297.537 78.5586ZM250.652 49.8978C249.532 48.4276 247.995 47.2805 246.048 46.4498C244.095 45.6257 241.597 45.2119 238.553 45.2119C236.415 45.2119 234.226 45.7577 231.979 46.8553C229.736 47.9481 227.892 49.7002 226.451 52.1067H226.21V30.5391H214.829V87.7782H226.21V66.0528C226.21 61.8315 226.904 58.8003 228.294 56.9533C229.682 55.1117 231.926 54.1884 235.026 54.1884C237.75 54.1884 239.647 55.0298 240.716 56.7156C241.785 58.3972 242.319 60.9507 242.319 64.3694V87.7782H253.7V62.2854C253.7 59.7217 253.471 57.3844 253.018 55.2693C252.564 53.1619 251.776 51.3698 250.652 49.8978ZM190.546 69.9822H190.387L180.61 30.5391H168.829L158.89 69.5003H158.73L149.674 30.5391H137.092L152.239 87.7782H164.983L174.518 48.8164H174.679L184.376 87.7782H196.879L212.267 30.5391H199.925L190.546 69.9822Z" fill="white"/>
<path d="M2.51698 58.7208C2.51399 68.7077 5.12359 78.4594 10.0854 87.0543L2.04224 116.422L32.0956 108.541C40.3752 113.054 49.6981 115.436 59.1858 115.439H59.2109C90.4544 115.439 115.887 90.0144 115.901 58.7656C115.907 43.6228 110.015 29.384 99.3109 18.6716C88.6085 7.95969 74.3746 2.05735 59.2085 2.05078C27.9614 2.05078 2.53012 27.4731 2.51698 58.7208Z" fill="url(#paint0_linear_1_13540)"/>
<path d="M0.493255 58.7027C0.489672 69.0492 3.19302 79.1496 8.33159 88.052L0 118.472L31.1312 110.309C39.7088 114.986 49.3661 117.452 59.1936 117.456H59.2187C91.583 117.456 117.93 91.1173 117.944 58.7499C117.949 43.0631 111.845 28.3126 100.759 17.2162C89.6709 6.1209 74.9276 0.00656877 59.2187 0C26.8484 0 0.506393 26.3342 0.493255 58.7027ZM19.0321 86.5191L17.8701 84.6739C12.9835 76.9042 10.4043 67.9259 10.4079 58.7063C10.4187 31.803 32.3136 9.91527 59.2372 9.91527C72.275 9.92064 84.5288 15.0031 93.7448 24.225C102.961 33.4476 108.032 45.7073 108.028 58.7463C108.016 85.6502 86.1208 107.541 59.2187 107.541H59.1996C50.4398 107.536 41.8491 105.184 34.3565 100.739L32.5734 99.6811L14.0996 104.525L19.0321 86.5191Z" fill="url(#paint1_linear_1_13540)"/>
<path d="M44.5413 34.1634C43.4419 31.7198 42.2852 31.6708 41.2396 31.6279C40.3839 31.5914 39.4051 31.5938 38.4276 31.5938C37.4488 31.5938 35.8592 31.9617 34.515 33.4295C33.1696 34.8979 29.3788 38.4474 29.3788 45.6665C29.3788 52.8862 34.6374 59.8622 35.3701 60.8422C36.104 61.8203 45.5212 77.1088 60.4354 82.9903C72.8306 87.8781 75.353 86.9059 78.0433 86.661C80.7335 86.4168 86.7248 83.1127 87.9472 79.6862C89.1702 76.2603 89.1702 73.3234 88.8035 72.7102C88.4368 72.0987 87.4581 71.7314 85.9909 70.9981C84.523 70.2642 77.3093 66.7141 75.9645 66.2244C74.6191 65.7353 73.641 65.4911 72.6622 66.9601C71.6841 68.4273 68.8738 71.7314 68.0175 72.7102C67.1618 73.6907 66.3054 73.8131 64.8382 73.0792C63.3704 72.3429 58.6445 70.7951 53.0383 65.7968C48.6761 61.9075 45.7314 57.1045 44.8751 55.6355C44.0194 54.1683 44.7838 53.3735 45.5195 52.642C46.1787 51.9845 46.9873 50.9287 47.7212 50.0724C48.4533 49.2154 48.6975 48.6039 49.1866 47.6252C49.6763 46.6459 49.4315 45.7889 49.0648 45.055C48.6975 44.3211 45.8461 37.065 44.5413 34.1634Z" fill="white"/>
</g>
<defs>
<linearGradient id="paint0_linear_1_13540" x1="5694.96" y1="11439.1" x2="5694.96" y2="2.05623" gradientUnits="userSpaceOnUse">
<stop stop-color="#1FAF38"/>
<stop offset="1" stop-color="#60D669"/>
</linearGradient>
<linearGradient id="paint1_linear_1_13540" x1="5897.18" y1="11847.2" x2="5897.18" y2="-0.0155353" gradientUnits="userSpaceOnUse">
<stop stop-color="#F9F9F9"/>
<stop offset="1" stop-color="white"/>
</linearGradient>
<clipPath id="clip0_1_13540">
<rect width="512" height="119" fill="white"/>
</clipPath>
</defs>
</svg>
