<svg width="256" height="258" viewBox="0 0 256 258" fill="none" xmlns="http://www.w3.org/2000/svg">
<g clip-path="url(#clip0_1_13537)">
<path d="M128.534 0C162.632 0.0167798 194.636 13.2909 218.701 37.3828C242.767 61.4746 256.013 93.5021 256 127.557C255.972 197.136 199.924 253.875 130.64 255.003L128.537 255.02H128.484C107.479 255.013 86.8337 249.826 68.433 239.975L67.5722 239.509L0 257.233L18.0834 191.178C6.93005 171.852 1.061 149.922 1.07003 127.455C1.09843 57.1777 58.2787 0 128.534 0ZM128.578 21.5297C70.1407 21.5297 22.614 69.0526 22.5907 127.466C22.5831 147.178 28.0151 166.387 38.3098 183.078L38.7884 183.847L41.3079 187.856L30.605 226.949L70.7022 216.432L74.5706 218.726C90.5785 228.225 108.892 233.325 127.588 233.49L128.493 233.494H128.537C186.929 233.494 234.455 185.968 234.479 127.551C234.49 99.2433 223.481 72.6242 203.478 52.5994C183.475 32.5747 156.875 21.5388 128.578 21.5297ZM83.4084 68.5931C85.5304 68.5931 87.6575 68.6125 89.5124 68.708C91.4678 68.8035 94.0932 67.9645 96.6773 74.1743C97.6685 76.5544 99.1775 80.2307 100.721 83.9868L101.052 84.7925C103.537 90.8374 106.021 96.8637 106.499 97.8209C107.294 99.4137 107.824 101.276 106.763 103.4C105.702 105.527 105.17 106.854 103.579 108.716C101.986 110.574 100.235 112.868 98.8019 114.295C98.7241 114.372 98.6461 114.45 98.5684 114.528L98.3364 114.765C96.9161 116.234 95.728 117.918 97.4053 120.792C99.2627 123.982 105.654 134.414 115.122 142.858C127.287 153.708 137.55 157.072 140.735 158.667C143.919 160.261 145.778 159.995 147.635 157.867C149.494 155.743 155.596 148.569 157.72 145.38C159.843 142.192 161.966 142.725 164.886 143.787C166.273 144.292 170.54 146.298 174.978 148.436L176.357 149.102C180.801 151.251 185.134 153.39 186.648 154.148C189.833 155.743 191.957 156.54 192.752 157.867C193.548 159.197 193.548 165.572 190.894 173.012C188.241 180.452 175.516 187.243 169.397 188.158C163.91 188.976 156.967 189.318 149.337 186.896C144.713 185.427 138.779 183.467 131.18 180.186C99.2317 166.392 78.3654 134.22 76.7739 132.097L76.6655 131.952C74.7247 129.358 63.7683 114.507 63.7683 99.1478C63.7683 83.4729 71.9968 75.7671 74.9152 72.579C77.8349 69.3934 81.2851 68.5931 83.4084 68.5931Z" fill="#455A64"/>
</g>
<defs>
<clipPath id="clip0_1_13537">
<rect width="256" height="258" fill="white"/>
</clipPath>
</defs>
</svg>
