<svg width="256" height="258" viewBox="0 0 256 258" fill="none" xmlns="http://www.w3.org/2000/svg">
<g clip-path="url(#clip0_1_13532)">
<path d="M5.46331 127.457C5.45682 149.134 11.121 170.3 21.8908 188.956L4.43286 252.698L69.6645 235.594C87.6357 245.389 107.871 250.56 128.465 250.565H128.519C196.334 250.565 251.537 195.381 251.566 127.554C251.579 94.6864 238.791 63.7808 215.557 40.5291C192.328 17.2786 161.432 4.46738 128.514 4.45312C60.6912 4.45312 5.49182 59.6331 5.46331 127.457Z" fill="url(#paint0_linear_1_13532)"/>
<path d="M1.07063 127.416C1.06285 149.873 6.93055 171.796 18.084 191.12L0 257.147L67.5712 239.43C86.1892 249.581 107.151 254.933 128.482 254.941H128.536C198.784 254.941 255.97 197.773 256 127.518C256.012 93.4697 242.764 61.4534 218.701 37.3682C194.633 13.2856 162.633 0.0142577 128.536 0C58.2752 0 1.09914 57.1592 1.07063 127.416ZM41.3098 187.792L38.7875 183.787C28.181 166.923 22.5829 147.435 22.5907 127.424C22.614 69.0294 70.1376 21.5214 128.576 21.5214C156.875 21.533 183.472 32.5646 203.476 52.5812C223.479 72.599 234.486 99.2091 234.479 127.511C234.453 185.906 186.928 233.421 128.536 233.421H128.494C109.481 233.411 90.8347 228.305 74.5718 218.656L70.7015 216.361L30.6036 226.874L41.3098 187.792Z" fill="url(#paint1_linear_1_13532)"/>
<path d="M96.6783 74.1478C94.2921 68.8439 91.7814 68.7376 89.5118 68.6443C87.6544 68.5653 85.5301 68.5704 83.4082 68.5704C81.2838 68.5704 77.8335 69.3689 74.9158 72.5548C71.9956 75.7421 63.7676 83.4464 63.7676 99.1157C63.7676 114.786 75.1815 129.928 76.7719 132.055C78.3649 134.178 98.8053 167.362 131.177 180.128C158.081 190.737 163.556 188.627 169.395 188.096C175.234 187.565 188.239 180.394 190.892 172.956C193.547 165.52 193.547 159.146 192.751 157.815C191.955 156.487 189.83 155.69 186.646 154.099C183.46 152.506 167.802 144.8 164.883 143.737C161.963 142.676 159.84 142.145 157.716 145.334C155.592 148.519 149.493 155.69 147.634 157.815C145.777 159.943 143.918 160.209 140.733 158.616C137.547 157.018 127.29 153.658 115.121 142.809C105.653 134.367 99.2615 123.942 97.4028 120.754C95.5454 117.569 97.2045 115.844 98.8014 114.256C100.232 112.829 101.987 110.537 103.58 108.679C105.169 106.819 105.7 105.491 106.761 103.367C107.824 101.241 107.293 99.3814 106.497 97.7884C105.7 96.1954 99.5104 80.4458 96.6783 74.1478Z" fill="white"/>
</g>
<defs>
<linearGradient id="paint0_linear_1_13532" x1="12361.1" y1="24829" x2="12361.1" y2="4.46496" gradientUnits="userSpaceOnUse">
<stop stop-color="#1FAF38"/>
<stop offset="1" stop-color="#60D669"/>
</linearGradient>
<linearGradient id="paint1_linear_1_13532" x1="12800" y1="25714.7" x2="12800" y2="-0.0337198" gradientUnits="userSpaceOnUse">
<stop stop-color="#F9F9F9"/>
<stop offset="1" stop-color="white"/>
</linearGradient>
<clipPath id="clip0_1_13532">
<rect width="256" height="258" fill="white"/>
</clipPath>
</defs>
</svg>
