<svg width="256" height="256" viewBox="0 0 256 256" fill="none" xmlns="http://www.w3.org/2000/svg">
<g clip-path="url(#clip0_1_13546)">
<path d="M128 243.201C191.623 243.201 243.2 191.624 243.2 128.001C243.2 64.3776 191.623 12.8008 128 12.8008C64.3768 12.8008 12.8 64.3776 12.8 128.001C12.8 191.624 64.3768 243.201 128 243.201Z" fill="white"/>
<path d="M128 256C198.692 256 256 198.692 256 128C256 57.3075 198.692 0 128 0C57.3075 0 0 57.3075 0 128C0 198.692 57.3075 256 128 256ZM128 230.4C71.446 230.4 25.6 184.554 25.6 128C25.6 71.446 71.446 25.6 128 25.6C184.554 25.6 230.4 71.446 230.4 128C230.4 184.554 184.554 230.4 128 230.4Z" fill="#3C790A"/>
<path d="M97.2801 97.2794C97.2801 66.5594 158.72 58.8794 156.16 92.1594C156.16 115.199 115.2 125.439 115.2 151.039V168.959H140.8V158.719C140.8 135.679 184.32 127.999 184.32 89.5994C179.2 33.2794 69.1201 33.2794 69.1201 97.2794H97.2801ZM115.2 179.199H140.8V204.799H115.2V179.199Z" fill="#3C790A"/>
</g>
<defs>
<clipPath id="clip0_1_13546">
<rect width="256" height="256" fill="white"/>
</clipPath>
</defs>
</svg>
