<svg width="512" height="152" viewBox="0 0 512 152" fill="none" xmlns="http://www.w3.org/2000/svg">
<g clip-path="url(#clip0_1_13564)">
<path d="M265.519 56.7823L275.55 97.3438H278.084L288.114 56.7823H302.664L283.375 134.822H268.825L274.448 111.785H264.527L250.969 56.7823H265.519ZM168.967 34.6265V111.784H165.111V107.155L165.092 107.167C164.622 107.455 155.8 112.776 146.041 112.776C139.206 112.776 127.412 111.784 127.412 84.9991C127.412 66.0402 132.484 55.6796 150.56 55.6796C155.741 55.6796 162.356 56.5612 165.11 57.0024V34.6265H168.967ZM116.614 31.3203V111.785H112.755V31.3203H116.614ZM3.85747 34.6265L19.6211 108.036H23.808L40.8936 35.7291H45.3024L62.9393 108.036H67.127L82.3385 34.6265H86.1977L70.324 111.784H59.7432L43.0989 40.9094L27.0049 111.784H16.4233L0 34.6265H3.85747ZM98.6482 56.6713V111.784H94.789V56.6713H98.6482ZM229.81 35.7291V50.2783H196.522V72.213H223.198V86.6521H196.522V111.784H181.531V35.7291H229.81ZM248.986 34.6265V111.784H234.217V34.6265H248.986ZM150.562 59.2068C134.91 59.2068 131.272 68.5766 131.272 85.3293C131.272 107.265 139.87 109.249 146.042 109.249C155.521 109.249 165.112 103.518 165.112 103.518V60.5296C162.245 60.2003 154.86 59.2068 150.562 59.2068ZM98.6482 34.6265V40.6883H94.789V34.6265H98.6482Z" fill="#293644"/>
<path opacity="0.7" d="M358.156 70.5471C356.245 69.9739 354.284 69.5004 352.315 69.0591C351.332 68.8372 350.339 68.6284 349.348 68.4309C348.357 68.2265 347.362 68.0299 346.37 67.8499C345.875 67.7617 345.372 67.6725 344.892 67.6L343.391 67.4008C342.379 67.2671 341.357 67.1125 340.36 67.0277C339.352 66.9342 338.356 66.8119 337.336 66.7394L334.288 66.5175C332.246 66.4152 330.201 66.3078 328.147 66.2685C327.122 66.2318 326.095 66.2204 325.066 66.2125C324.037 66.2029 323.006 66.1872 321.973 66.2003C319.919 66.2021 317.813 66.2379 315.789 66.2921L312.662 66.4275L309.607 66.6643L306.527 66.9902C305.494 67.1081 304.471 67.2523 303.441 67.3816C301.384 67.6734 299.325 68.0002 297.267 68.368C295.205 68.7376 293.139 69.136 291.075 69.5563C286.922 70.3898 282.773 71.2618 278.652 72.2718C276.588 72.7786 274.532 73.3176 272.505 73.9144C271.453 74.2272 270.406 74.5548 269.378 74.9087C269.756 75.0249 270.146 75.128 270.542 75.2171C271.98 75.5439 273.506 75.7317 275.072 75.9405C275.853 76.048 276.648 76.1581 277.458 76.297L278.633 76.5163L279.144 76.5915L279.68 76.6509C281.132 76.7889 282.65 76.747 284.176 76.6771C287.229 76.5163 290.31 76.1118 293.427 75.8025C294.982 75.6505 296.549 75.5142 298.148 75.4888C298.965 75.4775 299.715 75.5081 300.495 75.5168L302.817 75.5657C304.369 75.605 305.913 75.6618 307.458 75.7378L307.53 75.7422C307.653 75.7081 307.778 75.6671 307.902 75.6339L308.285 75.5316L308.704 75.4294C308.987 75.3552 309.264 75.3097 309.543 75.2503C310.097 75.1481 310.648 75.0703 311.19 75.0092C312.283 74.8877 313.359 74.8283 314.427 74.7934C316.553 74.7278 318.645 74.7689 320.726 74.8213C322.8 74.8851 324.858 74.9323 326.91 75.0293C328.957 75.1341 331.002 75.4146 333.046 75.6321C335.084 75.868 337.131 75.9615 339.157 75.8575L341.418 75.737L339.279 76.3835C337.804 76.8282 336.307 76.9977 334.807 77.1541C333.306 77.3062 331.8 77.3953 330.292 77.4634C327.265 77.591 324.23 77.6233 321.181 77.5823C319.971 77.5569 318.76 77.5115 317.54 77.4294C316.553 77.4442 315.571 77.4696 314.6 77.5202C313.59 77.5744 312.593 77.6504 311.624 77.7806C311.136 77.8435 310.661 77.9248 310.199 78.0182C309.971 78.0724 309.738 78.1152 309.52 78.179L309.185 78.269L308.822 78.3782C307.87 78.6622 306.931 78.9758 306.107 79.3498C305.939 79.4241 305.778 79.5053 305.626 79.5848C305.963 79.7255 306.332 79.8601 306.719 79.9841C307.634 80.2707 308.613 80.5092 309.597 80.7242C310.577 80.9365 311.603 81.1322 312.573 81.2912C313.091 81.3777 313.607 81.4581 314.081 81.5158C314.557 81.5839 315.069 81.6293 315.561 81.6826C317.55 81.8766 319.561 81.9579 321.577 81.9351C323.587 81.9098 325.599 81.8172 327.604 81.6355C331.605 81.2702 335.591 80.6936 339.511 79.8959C341.471 79.4992 343.414 79.065 345.342 78.5774L346.785 78.2078L348.205 77.8234C349.194 77.5709 350.08 77.2843 351.014 77.0205C352.876 76.4447 354.73 75.8069 356.632 75.2057C358.518 74.5985 360.448 74.0463 362.423 73.6584L362.582 73.4137C362.76 72.9795 362.512 72.5313 361.959 72.0831C361.648 71.8804 361.306 71.6978 360.948 71.5379C360.057 71.1421 359.106 70.8433 358.156 70.5471Z" fill="white"/>
<path opacity="0.7" d="M396.615 84.4057C397.419 84.9518 398.167 85.5031 399.029 86.0553L400.253 86.8679L401.506 87.6752C403.182 88.7446 404.889 89.7713 406.623 90.7647C410.091 92.7603 413.691 94.5654 417.371 96.1739C419.217 96.9803 421.1 97.6994 422.996 98.3608C424.902 99.0187 426.837 99.5744 428.786 100.018C429.273 100.122 429.77 100.244 430.243 100.327C430.711 100.424 431.226 100.508 431.743 100.591C432.716 100.744 433.751 100.885 434.747 100.992C435.75 101.1 436.753 101.182 437.711 101.197C438.116 101.202 438.508 101.192 438.872 101.164C438.753 101.04 438.629 100.912 438.492 100.789C437.829 100.174 437.037 99.5788 436.222 99.01L435.91 98.7915L435.623 98.6019C435.435 98.4744 435.229 98.359 435.03 98.2324C434.621 97.9982 434.194 97.7745 433.755 97.5578C432.875 97.1323 431.952 96.7427 431.011 96.3731C430.107 96.0192 429.185 95.6855 428.257 95.3631C427.071 95.0546 425.903 94.7139 424.746 94.3548C421.839 93.4321 418.971 92.4431 416.137 91.3684C414.726 90.8276 413.324 90.2658 411.948 89.6507C410.576 89.0268 409.21 88.3943 407.951 87.5066L406.127 86.2178L408.233 87.0452C410.122 87.7844 412.094 88.3401 414.104 88.7604C416.11 89.199 418.139 89.5773 420.115 90.1242C422.092 90.6817 424.062 91.2837 426.05 91.8804C428.039 92.485 430.039 93.108 432.035 93.8428C433.037 94.2132 434.04 94.6073 435.036 95.0677C435.536 95.2975 436.03 95.5439 436.523 95.8165C436.771 95.9589 437.019 96.09 437.264 96.249L437.63 96.4797L437.961 96.6972C438.068 96.7671 438.174 96.8458 438.28 96.9174L438.35 96.9358C439.839 97.3516 441.322 97.785 442.806 98.2376L445.027 98.9226C445.769 99.1602 446.49 99.3699 447.261 99.6373C448.772 100.165 450.215 100.789 451.645 101.425C454.503 102.701 457.299 104.057 460.146 105.174C461.572 105.721 462.998 106.243 464.422 106.569L464.948 106.681L465.455 106.771L466.64 106.935C467.454 107.057 468.242 107.205 469.018 107.349C470.568 107.645 472.078 107.95 473.543 108.091C473.946 108.133 474.347 108.156 474.741 108.164C473.88 107.505 472.991 106.865 472.093 106.237C470.358 105.031 468.576 103.872 466.777 102.74C463.188 100.48 459.524 98.3433 455.847 96.2412C454.02 95.1901 452.188 94.1599 450.347 93.1587C448.509 92.16 446.66 91.2007 444.799 90.2728C443.862 89.8254 442.934 89.365 441.993 88.9272L439.173 87.6464L436.35 86.4581L433.425 85.3441C431.522 84.6547 429.534 83.9558 427.585 83.3049C426.611 82.9658 425.626 82.6548 424.645 82.3411C423.667 82.0231 422.689 81.7094 421.705 81.4194C419.742 80.8095 417.769 80.2669 415.798 79.7182L412.834 78.9668C411.846 78.7161 410.863 78.5169 409.876 78.2871C408.903 78.052 407.884 77.8764 406.881 77.6842L405.397 77.4002C404.914 77.3164 404.41 77.2447 403.914 77.1731C402.915 77.0298 401.908 76.9022 400.905 76.7825C399.901 76.6567 398.893 76.5414 397.892 76.4418C395.883 76.2391 393.875 76.0713 391.882 76.0119C390.885 75.9918 389.887 75.9743 388.921 76.0696C388.532 76.1089 388.149 76.1744 387.791 76.2688C387.123 76.5195 386.745 76.8664 386.778 77.3347L386.852 77.6161C388.602 78.6077 390.263 79.7418 391.859 80.9126C393.472 82.0816 395.032 83.2734 396.615 84.4057Z" fill="white"/>
<path opacity="0.5" d="M315.587 65.2046C306.609 65.3427 298.108 66.7878 289.235 68.5885C282.875 69.8817 271.474 72.3438 265.565 74.9213C268.056 77.1982 274.088 77.2095 277.555 77.8675C283.199 78.9351 292.556 76.5735 298.446 76.5167C302.493 76.4774 306.457 76.48 310.439 76.701C309.69 76.8094 308.988 76.9413 308.363 77.1143C306.997 77.4944 302.797 78.666 303.045 80.0046C303.334 81.5362 310.397 82.7952 311.777 83.046C322.559 84.9857 336.029 82.728 347.037 79.6726C352.989 78.0204 356.605 75.9453 362.419 73.6622C360.444 74.0502 358.514 74.6024 356.628 75.2096C354.727 75.8107 352.873 76.4477 351.01 77.0243C350.076 77.2882 349.191 77.5748 348.202 77.8273L346.781 78.2117L345.339 78.5813C343.41 79.0688 341.467 79.5031 339.508 79.8997C335.587 80.6974 331.601 81.2741 327.6 81.6393C325.594 81.821 323.582 81.9128 321.574 81.939C319.557 81.9617 317.547 81.8805 315.557 81.6865C315.065 81.6323 314.553 81.5878 314.078 81.5196C313.603 81.4628 313.088 81.3816 312.57 81.2951C311.599 81.1352 310.573 80.9403 309.593 80.728C308.609 80.5131 307.631 80.2746 306.715 79.988C306.328 79.8639 305.959 79.7294 305.623 79.5887C305.774 79.5092 305.935 79.4279 306.103 79.3537C306.927 78.9788 307.868 78.666 308.818 78.3821L309.182 78.2729L309.516 78.1829C309.735 78.12 309.968 78.0763 310.196 78.0221C310.657 77.9286 311.133 77.8474 311.62 77.7845C312.589 77.6551 313.587 77.5783 314.597 77.5241C315.568 77.4734 316.55 77.4481 317.536 77.4332C318.756 77.5153 319.968 77.5608 321.178 77.5861C324.226 77.6272 327.261 77.5949 330.288 77.4673C331.797 77.3991 333.302 77.31 334.803 77.158C336.304 77.0007 337.8 76.8312 339.275 76.3874L341.415 75.7408L339.154 75.8614C337.128 75.9654 335.08 75.8719 333.042 75.636C330.998 75.4175 328.953 75.1371 326.907 75.0331C324.854 74.937 322.797 74.8889 320.723 74.8252C318.641 74.7727 316.55 74.7317 314.424 74.7972C313.355 74.833 312.28 74.8916 311.187 75.013C310.644 75.0742 310.094 75.1519 309.54 75.2542C309.26 75.3127 308.983 75.359 308.7 75.4333L308.282 75.5355L307.898 75.6377C307.775 75.6709 307.65 75.7111 307.527 75.7461L307.454 75.7417C305.91 75.6657 304.367 75.6089 302.814 75.5696L300.492 75.5206C299.711 75.5128 298.962 75.4822 298.145 75.4927C296.546 75.518 294.978 75.6543 293.423 75.8064C290.308 76.1156 287.226 76.5202 284.172 76.6809C282.648 76.7517 281.129 76.7928 279.676 76.6547L279.14 76.5953L278.629 76.5202L277.454 76.3009C276.643 76.1611 275.848 76.0519 275.068 75.9444C273.502 75.7356 271.977 75.5469 270.539 75.221C270.143 75.1327 269.752 75.0287 269.375 74.9125C270.402 74.5587 271.45 74.231 272.501 73.9182C274.529 73.3215 276.585 72.7824 278.649 72.2757C282.769 71.2656 286.918 70.3937 291.071 69.5601C293.136 69.1399 295.201 68.7414 297.263 68.3719C299.322 68.004 301.38 67.6781 303.438 67.3854C304.469 67.2561 305.491 67.112 306.524 66.994L309.604 66.6681L312.658 66.4313L315.785 66.2959C317.81 66.2417 319.916 66.2059 321.969 66.2042C323.002 66.1911 324.033 66.2068 325.062 66.2164C326.092 66.2243 327.119 66.2347 328.143 66.2723C330.198 66.3116 332.243 66.4191 334.284 66.5213L337.333 66.7433C338.352 66.8158 339.349 66.9381 340.357 67.0316C341.354 67.1163 342.376 67.2701 343.388 67.4047L344.889 67.6039C345.369 67.6764 345.872 67.7655 346.366 67.8538C347.359 68.0337 348.353 68.2303 349.345 68.4348C350.336 68.6322 351.329 68.8411 352.311 69.063C354.28 69.5042 356.24 69.9778 358.153 70.5509C359.102 70.8462 360.053 71.1459 360.941 71.5426C361.299 71.7016 361.641 71.8842 361.952 72.0878C358.929 69.6466 346.777 67.1784 344.603 66.8236C335.488 65.3357 324.797 65.064 315.587 65.2046Z" fill="#E1EEF4"/>
<path d="M391.849 74.7302C393.916 74.6044 395.971 74.6429 398.024 74.7328C400.076 74.829 402.128 74.9897 404.178 75.2213C404.693 75.2789 405.2 75.3375 405.735 75.4126L407.269 75.6712C408.277 75.8442 409.285 75.9997 410.305 76.2243C411.323 76.4366 412.357 76.6279 413.365 76.8621L416.393 77.5707C418.404 78.0844 420.416 78.5982 422.415 79.1766C423.42 79.4501 424.417 79.7506 425.414 80.0512L426.413 80.35C427.078 80.55 427.742 80.7531 428.403 80.9686C430.408 81.5942 432.363 82.2364 434.389 82.9275L437.339 83.9882L440.316 85.1729L443.241 86.4398C444.21 86.8819 445.16 87.345 446.123 87.7976C448.033 88.7325 449.927 89.7032 451.796 90.7053C453.672 91.7083 455.535 92.7385 457.385 93.7896C459.244 94.8302 461.077 95.9188 462.917 97.0118C464.756 98.1127 466.591 99.2337 468.413 100.391C470.236 101.548 472.048 102.737 473.835 103.992C475.624 105.255 477.388 106.559 479.082 108.065L480.696 109.51L478.759 110.336C477.807 110.741 476.843 110.88 475.938 110.916C475.035 110.956 474.17 110.888 473.334 110.791C471.659 110.586 470.069 110.243 468.53 109.901C467.761 109.725 467.001 109.555 466.269 109.414L465.121 109.216C464.924 109.18 464.686 109.128 464.469 109.083L463.847 108.929C462.216 108.494 460.698 107.903 459.228 107.253C456.303 105.953 453.559 104.462 450.799 103.085C449.422 102.397 448.047 101.732 446.657 101.175C445.258 100.64 443.767 100.101 442.334 99.5823C441.945 99.4434 441.553 99.315 441.164 99.1787C441.417 99.4285 441.669 99.7046 441.916 100.045C442.128 100.345 442.359 100.69 442.5 101.249C442.561 101.54 442.603 101.884 442.5 102.279C442.48 102.377 442.448 102.466 442.406 102.562L442.348 102.702L442.316 102.77L442.253 102.873L442.211 102.936C442.188 102.97 442.147 103.027 442.122 103.061C442.021 103.186 441.958 103.244 441.894 103.305C441.347 103.779 440.922 103.879 440.554 103.995C440.183 104.096 439.858 104.146 439.544 104.186C438.919 104.258 438.342 104.276 437.774 104.274C436.643 104.271 435.558 104.196 434.484 104.097C433.402 103.994 432.364 103.871 431.273 103.715C430.759 103.639 430.246 103.562 429.683 103.457C429.133 103.366 428.615 103.25 428.084 103.144C425.97 102.681 423.912 102.072 421.893 101.382C419.886 100.694 417.926 99.8969 416.008 99.0424C415.049 98.616 414.103 98.1669 413.165 97.7152C412.232 97.2469 411.305 96.7768 410.395 96.2849C408.567 95.3098 406.783 94.2815 405.025 93.2208C403.276 92.1583 401.559 91.0627 399.873 89.926L398.616 89.0723L398.459 88.9649L398.285 88.8373L397.984 88.6171L397.378 88.1724C396.577 87.6027 395.772 86.9151 394.984 86.2651C393.455 84.9309 392.045 83.5172 390.715 82.0599C389.391 80.6042 388.094 79.1486 386.848 77.6135C391.643 81.6151 394.421 84.7265 399.548 88.1742C409.027 94.5453 421.1 100.938 431.939 102.5C433.328 102.7 440.431 103.734 441.187 102.37C441.844 101.179 438.227 98.7401 437.054 97.9511C436.516 97.5902 435.888 97.2416 435.212 96.9017C439.06 97.9493 442.824 99.1996 446.651 100.515C452.222 102.428 460.355 107.621 466.049 108.388C469.546 108.859 475.274 110.752 478.356 109.378C473.561 105.068 463.522 99.1315 457.896 95.8996C450.042 91.3894 442.432 87.3363 433.958 84.3709C425.261 81.3312 415.032 78.2146 405.911 76.7476C403.735 76.3973 391.427 74.9032 387.788 76.2662C387.705 76.2881 387.616 76.3012 387.538 76.3283C387.331 76.4008 387.135 76.4847 386.994 76.5912C386.922 76.6437 386.87 76.7013 386.833 76.7634C386.813 76.7966 386.802 76.8237 386.793 76.8429C386.775 76.8525 386.778 76.9495 386.771 76.9993L386.149 76.9888C386.148 76.918 386.13 76.8936 386.148 76.7861C386.152 76.6856 386.176 76.5965 386.205 76.5214C386.266 76.358 386.364 76.2182 386.474 76.102C386.692 75.873 386.95 75.7201 387.203 75.6013C387.714 75.3645 388.235 75.23 388.75 75.1182C389.787 74.9015 390.819 74.7905 391.849 74.7302ZM315.634 63.6951C317.775 63.6803 319.833 63.6855 321.931 63.7248C322.975 63.731 324.016 63.7659 325.058 63.7974C326.098 63.8271 327.14 63.8585 328.178 63.9162C330.257 63.9966 332.33 64.1451 334.399 64.291L337.496 64.5758C338.527 64.6702 339.568 64.8152 340.6 64.9349C341.641 65.0442 342.645 65.2154 343.658 65.3674L345.195 65.6077C345.726 65.7038 346.226 65.8087 346.733 65.917C348.752 66.3443 350.747 66.8388 352.728 67.3945C354.702 67.9571 356.664 68.5687 358.588 69.342C359.545 69.7229 360.49 70.1563 361.404 70.6875C361.86 70.9566 362.309 71.2493 362.719 71.6338C362.924 71.8268 363.119 72.0531 363.251 72.3397C363.32 72.483 363.371 72.6481 363.374 72.8194C363.378 72.9015 363.371 72.9933 363.346 73.0894C363.328 73.1977 363.303 73.2169 363.281 73.2825L362.688 73.0964C362.695 73.0466 362.728 72.9574 362.716 72.9426C362.713 72.9208 362.711 72.8902 362.701 72.8526C362.688 72.7827 362.654 72.7119 362.602 72.6385C362.504 72.4935 362.344 72.352 362.173 72.2192C362.106 72.1693 362.026 72.1283 361.955 72.0811C358.933 69.6391 346.78 67.1717 344.607 66.8169C335.488 65.3307 324.797 65.059 315.587 65.1997C306.609 65.3386 298.108 66.7837 289.235 68.5836C282.875 69.8767 271.474 72.3397 265.565 74.9163C268.056 77.1932 274.088 77.2046 277.555 77.8625C283.199 78.9302 292.556 76.5685 298.446 76.5117C302.493 76.4724 306.457 76.475 310.439 76.6961C309.69 76.8044 308.988 76.9364 308.363 77.1094C306.996 77.4894 302.797 78.6611 303.045 79.9996C303.334 81.5304 310.397 82.7903 311.777 83.041C322.558 84.9807 336.028 82.723 347.037 79.6676C352.988 78.0154 356.605 75.9403 362.419 73.6573C360.753 74.7206 359.064 75.6913 357.347 76.6559C355.624 77.6179 353.84 78.5152 351.968 79.298C351.016 79.6676 350.035 80.0652 349.097 80.3509L348.381 80.5833L348.025 80.6977L347.821 80.7615L347.637 80.8157L346.174 81.229C344.218 81.775 342.241 82.2722 340.242 82.73C338.242 83.1808 336.226 83.5941 334.183 83.9419C333.162 84.121 332.135 84.2756 331.103 84.4259C330.071 84.5578 329.033 84.6854 327.987 84.7859C325.898 84.9894 323.787 85.1292 321.663 85.1476C319.532 85.1677 317.386 85.0943 315.235 84.8663C314.694 84.8007 314.17 84.7465 313.615 84.6609C313.051 84.5832 312.54 84.4932 312.026 84.4032C310.945 84.2075 309.921 83.9969 308.86 83.7523C307.808 83.5076 306.756 83.235 305.682 82.8838C305.141 82.7029 304.602 82.5055 304.03 82.2398C303.745 82.1027 303.45 81.9541 303.13 81.7401C302.819 81.5147 302.448 81.2866 302.077 80.6628C302.035 80.585 301.996 80.509 301.941 80.3596C301.922 80.3063 301.89 80.2041 301.887 80.1849L301.873 80.1403L301.848 80.0215L301.837 79.9472L301.823 79.7961C301.815 79.6921 301.813 79.5934 301.825 79.4955C301.853 79.0883 302.001 78.7747 302.152 78.5204C302.461 78.0346 302.79 77.7786 303.084 77.5585C303.425 77.3156 303.749 77.1347 304.069 76.9783C303.655 76.9844 303.246 76.9827 302.835 76.9905C301.309 77.0307 299.726 77.0692 298.23 77.1364C296.735 77.2247 295.22 77.423 293.696 77.6415C290.644 78.0792 287.57 78.6253 284.382 78.9363C282.782 79.0875 281.154 79.1696 279.472 79.0682L278.831 79.0167C278.614 78.9914 278.372 78.9678 278.17 78.9372L277.021 78.7642C276.279 78.6646 275.505 78.5886 274.72 78.5108C273.153 78.3492 271.536 78.1753 269.882 77.8389C269.056 77.6694 268.215 77.4562 267.368 77.1347C266.524 76.8132 265.653 76.3789 264.876 75.6939L263.3 74.2977L265.293 73.4415C267.375 72.5494 269.461 71.8653 271.557 71.2336C273.647 70.608 275.743 70.0506 277.84 69.5263C279.93 69.0047 282.026 68.5181 284.12 68.0559C286.211 67.5998 288.292 67.1455 290.386 66.7427C292.473 66.332 294.565 65.9415 296.661 65.5815C298.752 65.2189 300.856 64.8991 302.963 64.6125C304.021 64.4876 305.069 64.3469 306.126 64.2333L309.299 63.9538L312.5 63.7694L315.634 63.6951Z" fill="#293644"/>
<path opacity="0.5" d="M431.943 102.5C433.331 102.7 440.434 103.734 441.19 102.371C441.847 101.181 438.23 98.7412 437.057 97.9513C436.519 97.5905 435.892 97.2419 435.216 96.902C439.064 97.9496 442.828 99.1999 446.654 100.515C452.225 102.427 460.36 107.621 466.053 108.388C469.549 108.86 475.278 110.752 478.359 109.378C473.564 105.069 463.525 99.1317 457.899 95.8998C450.045 91.3897 442.435 87.3356 433.961 84.3711C425.266 81.3314 415.036 78.2149 405.915 76.7479C403.738 76.3975 391.431 74.9035 387.792 76.2665C388.15 76.173 388.533 76.1066 388.922 76.0673C389.887 75.9712 390.886 75.9895 391.883 76.0096C393.876 76.0681 395.883 76.2359 397.893 76.4395C398.894 76.5382 399.902 76.6544 400.906 76.7802C401.909 76.8999 402.917 77.0275 403.915 77.1708C404.411 77.2424 404.916 77.3141 405.397 77.3979L406.882 77.6819C407.884 77.875 408.903 78.0506 409.877 78.2848C410.863 78.5154 411.847 78.7138 412.834 78.9645L415.799 79.7159C417.77 80.2646 419.743 80.8072 421.705 81.4171C422.69 81.7071 423.668 82.0199 424.646 82.3388C425.627 82.6516 426.612 82.9635 427.586 83.3025C429.534 83.9535 431.522 84.6524 433.426 85.3418L436.351 86.4558L439.174 87.6441L441.994 88.9249C442.935 89.3627 443.863 89.8231 444.8 90.2705C446.661 91.1984 448.509 92.1577 450.348 93.1564C452.189 94.1576 454.021 95.1878 455.848 96.2388C459.525 98.3401 463.188 100.477 466.778 102.738C468.577 103.87 470.358 105.028 472.094 106.235C472.992 106.862 473.88 107.503 474.742 108.162C474.348 108.154 473.947 108.131 473.544 108.089C472.079 107.948 470.57 107.643 469.019 107.346C468.243 107.203 467.455 107.055 466.641 106.933L465.456 106.769L464.948 106.679L464.422 106.567C462.999 106.24 461.572 105.719 460.147 105.172C457.299 104.054 454.504 102.698 451.646 101.423C450.216 100.787 448.773 100.163 447.262 99.635C446.491 99.3668 445.769 99.1579 445.028 98.9203L442.807 98.2353C441.324 97.7818 439.84 97.3485 438.351 96.9335L438.281 96.9151C438.175 96.8435 438.069 96.7648 437.962 96.6949L437.631 96.4774L437.265 96.2467C437.021 96.0877 436.773 95.9566 436.524 95.8142C436.031 95.5416 435.536 95.2943 435.037 95.0654C434.041 94.605 433.038 94.2101 432.036 93.8405C430.041 93.1057 428.041 92.4827 426.051 91.8781C424.063 91.2814 422.093 90.6794 420.116 90.1219C418.14 89.575 416.111 89.1967 414.105 88.7581C412.094 88.3387 410.123 87.7821 408.233 87.0429L406.128 86.2155L407.952 87.5043C409.211 88.3928 410.577 89.0245 411.949 89.6484C413.325 90.2635 414.727 90.8253 416.138 91.3661C418.971 92.4408 421.839 93.4298 424.747 94.3525C425.903 94.7116 427.071 95.0532 428.258 95.3608C429.186 95.6832 430.108 96.0169 431.011 96.3708C431.951 96.7412 432.876 97.13 433.756 97.5555C434.195 97.7722 434.622 97.9968 435.03 98.2301C435.23 98.3567 435.436 98.4712 435.624 98.5996L435.911 98.7892L436.223 99.0077C437.037 99.5765 437.83 100.171 438.493 100.787C438.629 100.91 438.753 101.037 438.873 101.161C438.509 101.189 438.116 101.2 437.712 101.195C436.753 101.179 435.751 101.098 434.747 100.99C433.751 100.883 432.717 100.742 431.744 100.589C431.227 100.506 430.712 100.422 430.244 100.324C429.771 100.241 429.274 100.121 428.787 100.016C426.838 99.5712 424.903 99.0155 422.997 98.3585C421.101 97.6971 419.219 96.978 417.372 96.1716C413.692 94.5622 410.092 92.7579 406.624 90.7624C404.89 89.7689 403.183 88.7423 401.507 87.6729L400.254 86.8656L399.03 86.053C398.169 85.5008 397.419 84.9495 396.616 84.4034C395.032 83.2702 393.472 82.0793 391.86 80.9094C390.264 79.7378 388.602 78.6037 386.853 77.6129C391.648 81.6145 394.425 84.7258 399.552 88.1735C409.03 94.5456 421.103 100.939 431.943 102.5Z" fill="#E1EEF4"/>
<path d="M353.13 82.9576C352.984 86.511 355.115 89.8547 357.134 92.807C360.122 97.1861 358.533 102.875 358.655 107.583C358.842 114.913 356.148 144.026 362.387 150.927L362.412 150.935C370.346 147.606 376.8 119.979 379.304 113.176C380.916 108.801 381.223 101.412 385.444 98.4923C388.575 96.3229 392.892 94.0294 393.649 90.0801L374.975 71.0234C374.975 71.0234 353.141 82.7252 353.13 82.9576Z" fill="#D4DFE5"/>
<path d="M390.697 90.1187C390.178 90.3423 389.663 90.5765 389.149 90.8141C389.807 90.3939 390.453 89.9483 391.066 89.4372C391.756 88.8614 390.471 88.1947 389.966 88.3127C389.082 88.5154 388.211 88.7495 387.345 88.9951C387.756 88.4577 388.113 87.8749 388.39 87.2319C388.684 86.5469 387.692 86.1432 387.172 86.2289C381.713 87.1602 377.959 90.8762 373.129 93.285C370.761 94.4654 368.297 95.5043 365.758 96.3063C365.416 96.3981 365.082 96.4977 364.748 96.5982C364.098 96.7624 363.444 96.8935 362.775 96.9739C362.202 97.1477 361.762 96.9433 361.455 96.3605C361.916 95.8887 363.325 95.6502 363.898 95.5051C366.192 94.9311 368.347 94.1561 370.501 93.1924C372.41 92.3388 374.196 91.2929 375.853 90.0435C379.372 88.8675 382.67 87.1201 385.248 84.4115C385.797 83.8366 384.363 83.3587 384.027 83.4085C381.058 83.827 378.814 85.3481 376.557 87.2581C375.841 87.8671 375.116 88.4306 374.378 88.9636C372.957 89.4214 371.512 89.8111 370.074 90.1492C369.113 90.3773 368.096 90.5276 367.059 90.6577C368.467 89.8985 369.862 89.1016 371.289 88.3398C375.15 86.283 379.551 84.9934 382.721 81.883C383.464 81.1569 381.951 80.6519 381.415 80.8039C377.344 81.9476 373.584 83.7676 369.757 85.5631C369.773 85.5535 369.789 85.5456 369.807 85.5386C373.177 83.8593 376.489 82.09 379.738 80.2264C380.55 79.7633 379.165 79.1098 378.559 79.1273C378.864 78.9744 379.169 78.8241 379.472 78.6686C380.489 78.1452 379.02 77.2269 378.329 77.4978C374.687 78.9132 371.141 80.5409 367.688 82.4037C364.939 83.8794 361.5 86.719 358.168 87.4975C360.07 85.6775 362.991 84.7103 365.192 83.4163C368.517 81.4592 371.818 79.4846 375.057 77.4226C375.646 77.0495 375.005 76.5594 374.393 76.3768C375.125 75.9338 375.858 75.4891 376.587 75.0382C377.192 74.6634 376.443 74.0815 375.804 73.9365C376.04 73.532 376.113 73.1484 375.895 72.826C375.639 72.4494 375.107 72.2126 374.673 72.3052C374.08 72.4328 373.6 72.8006 373.105 73.1327C371.026 74.5158 369.035 75.836 366.774 76.943C363.921 78.3409 360.957 79.5099 358.07 80.8642C357.238 81.1071 356.404 81.3552 355.567 81.6226C355.136 81.7598 355.123 82.0132 355.307 82.2534C355.113 82.3583 354.917 82.457 354.724 82.5636C354.516 82.6824 354.49 82.9856 354.615 83.1848C355.094 83.9607 355.915 84.2001 356.863 84.1477C356.054 84.5347 355.243 84.9148 354.424 85.2861C353.528 85.6906 354.534 86.525 355.149 86.5285C355.768 86.5312 356.351 86.4246 356.913 86.2533C356.336 86.7496 355.812 87.3044 355.392 87.9719C355.023 88.5556 355.993 88.9688 356.407 88.9951C356.811 89.0221 357.203 89.016 357.589 88.9828C357.351 89.1584 357.104 89.3201 356.868 89.5001C356.093 90.0863 357.645 90.8797 358.2 90.5861C358.258 90.5555 358.314 90.5241 358.369 90.4952H358.372C358.567 90.3921 358.758 90.2838 358.953 90.1807C358.881 90.2471 358.806 90.3056 358.736 90.372C358.032 91.0457 359.345 91.5341 359.86 91.5087C363.033 91.3567 365.761 89.4651 368.409 87.9527C371.204 86.3555 374.23 84.9183 377.31 83.7318C374.998 85.0126 372.471 85.9877 370.137 87.169C367.369 88.573 364.762 90.1816 361.942 91.4231C360.692 91.7053 359.498 92.109 358.429 92.7451C357.538 93.2728 359.265 93.9718 359.76 93.8276C360.833 93.5201 361.863 93.1417 362.867 92.7171C364.455 92.4104 366.143 92.3274 367.641 92.0679C368.491 91.9203 369.33 91.7385 370.169 91.5542C368.955 92.1824 367.696 92.7503 366.363 93.2675C364.442 94.0111 361.226 94.0819 359.712 95.6257C358.979 96.3736 360.071 97.6248 360.802 97.9157C360.893 97.9533 360.987 97.9769 361.08 98.0075C360.806 98.142 360.522 98.2652 360.259 98.4155C359.759 98.6977 360.304 99.3259 360.654 99.4447C361.956 99.886 363.219 99.9209 364.452 99.7226C363.494 100.104 362.541 100.487 361.579 100.866C360.779 101.181 361.434 101.828 362.109 102.022C360.373 103.079 359.192 104.192 360.271 104.904C361.317 105.592 362.809 104.912 363.79 104.549C364.81 104.171 365.809 103.746 366.809 103.318C366.681 103.404 366.553 103.481 366.426 103.567C366.194 103.722 366.155 103.888 366.227 104.041C365.637 104.374 365.045 104.707 364.46 105.052C364.117 105.255 364.185 105.506 364.42 105.716C362.647 106.268 360.92 106.928 359.626 108.249C359.043 108.844 359.993 109.341 360.516 109.389C362.761 109.603 365.013 109.216 367.244 108.531C366.914 109.032 367.812 109.494 368.242 109.527C369.402 109.61 370.527 109.474 371.627 109.216C371.446 109.307 371.259 109.396 371.08 109.489C370.249 109.926 369.381 110.285 368.492 110.602C365.849 111.312 363.213 112.064 360.707 113.173C359.663 113.635 361.154 114.648 361.868 114.338C363.808 113.488 365.841 112.897 367.854 112.261C368.066 112.202 368.274 112.139 368.486 112.08C365.962 113.405 363.465 114.78 361.15 116.486C360.31 117.107 361.965 117.728 362.479 117.557C362.877 117.422 363.266 117.272 363.655 117.122C362.959 117.743 362.319 118.427 361.752 119.198C361.296 119.826 362.584 120.298 362.997 120.196C364.802 119.75 366.513 119.117 368.186 118.399C366.884 119.521 365.722 120.78 364.85 122.286C364.589 122.737 365.004 123.045 365.448 123.19C365.041 123.461 364.637 123.739 364.232 124.021C363.404 124.602 365.11 125.396 365.725 124.994C366.511 124.482 367.287 123.962 368.05 123.43C369.379 122.603 370.77 121.931 372.315 121.679C371.598 122.797 370.124 123.452 369.013 123.946C367.975 124.406 369.456 125.419 370.166 125.102C371.925 124.322 374.189 123.256 374.561 121.123C374.652 120.581 373.895 120.281 373.5 120.272C372.987 120.259 372.492 120.296 372.008 120.357C372.921 119.56 373.799 118.72 374.627 117.809C375.177 117.199 373.612 116.637 373.19 116.868C371.389 117.857 369.907 119.649 368.166 120.844C370.865 117.835 374.796 115.896 377.95 113.579C378.733 113 377.178 112.251 376.637 112.511C372.857 114.329 369.232 116.508 365.281 117.968C368.246 115.32 372.28 113.858 375.513 111.699C376.19 111.247 375.255 110.704 374.596 110.612C374.887 110.453 375.179 110.294 375.468 110.13H375.47V110.129C375.526 110.099 375.582 110.068 375.637 110.037C376.103 109.773 375.838 109.442 375.414 109.216C377.385 108.289 379.351 107.212 380.747 105.782C381.473 105.037 379.985 104.551 379.437 104.712C376.553 105.563 373.653 107.389 370.609 108.024C373.625 105.92 377.215 104.411 380.51 103.054C381.571 102.615 380.055 101.665 379.365 101.891C376.431 102.867 373.604 104.183 370.736 105.368C368.269 106.385 365.503 107.641 362.729 108.016C365.359 106.429 369.009 105.805 371.655 104.67C376.103 102.762 380.523 100.854 384.692 98.4417C385.377 98.0459 384.417 97.4465 383.84 97.3347C385.651 96.3465 387.46 95.3557 389.278 94.3807C390.319 93.8189 388.803 93.0351 388.139 93.2195C387.83 93.3051 387.534 93.4056 387.228 93.493C388.744 92.718 390.272 91.9674 391.833 91.2842C392.852 90.8342 391.393 89.8225 390.697 90.1187ZM368.233 86.3136C366.519 87.2319 364.815 88.3721 363.017 89.1864C364.671 88.0977 366.464 87.1856 368.233 86.3136ZM365.57 98.0258C364.95 98.2556 364.32 98.4339 363.694 98.5273C364.014 98.4111 364.34 98.3045 364.672 98.2032C364.971 98.156 365.269 98.0957 365.57 98.0258ZM376.41 93.1024C379.478 91.1925 382.445 89.0859 385.823 88.0112C385.237 88.8308 384.509 89.5403 383.69 90.1615C381.23 91.0291 378.817 92.0277 376.41 93.1024ZM363.431 103.056C364.155 102.634 364.923 102.273 365.665 101.911C367.594 100.97 369.588 100.17 371.559 99.3382C375.206 97.7995 378.664 95.8861 382.172 94.0941C382.834 93.8433 383.487 93.5847 384.139 93.3191C381.094 94.9364 378.076 96.6384 374.951 98.1246C371.2 99.9087 367.315 101.496 363.431 103.056ZM378.434 98.4609C378.161 98.6051 377.887 98.7501 377.613 98.8934C377.597 98.8995 377.581 98.9057 377.564 98.9109C377.644 98.8646 377.722 98.8192 377.802 98.7711C378.012 98.6689 378.223 98.5623 378.434 98.4609Z" fill="#DFEEF6"/>
<path d="M417.065 112.371C416.565 111.874 415.83 111.15 414.879 110.241C413.007 108.39 410.333 105.743 407.17 102.51C405.592 100.883 403.858 99.1412 402.068 97.2453C400.24 95.3877 398.352 93.3773 396.374 91.3171C394.404 89.2411 392.366 87.0926 390.288 84.9031C388.206 82.7153 386.094 80.4759 383.996 78.2165C381.66 75.7264 379.339 73.2241 377.045 70.7619C378.599 69.9048 380.14 69.0547 381.649 68.2229C382.935 67.5265 384.197 66.8381 385.432 66.1644C386.676 65.4978 387.896 64.8442 389.081 64.209C391.459 62.9019 393.692 61.6097 395.692 60.3114C397.702 59.0191 399.486 57.7321 400.969 56.4644C402.461 55.2027 403.646 53.9489 404.494 52.8183C405.345 51.6816 405.846 50.6707 406.116 49.9525C406.259 49.5961 406.336 49.3138 406.385 49.1208C406.436 48.9285 406.464 48.8307 406.464 48.8307C406.464 48.8307 406.43 48.9268 406.367 49.1129C406.302 49.3007 406.209 49.5803 406.041 49.9185C405.731 50.6052 405.165 51.5628 404.258 52.613C403.346 53.6589 402.108 54.8017 400.562 55.9366C399.021 57.0769 397.187 58.2223 395.121 59.3503C393.05 60.4695 390.752 61.5686 388.292 62.6757C387.073 63.2506 385.795 63.801 384.52 64.4502C383.261 65.0967 381.969 65.7599 380.662 66.4292C378.977 67.3055 377.256 68.2115 375.523 69.1281C374.178 67.6882 372.843 66.2614 371.529 64.8757C370.514 63.8141 369.512 62.7683 368.533 61.7443C367.536 60.7124 366.512 59.7731 365.551 58.833C363.587 56.9807 361.775 55.1905 360.186 53.4544C358.602 51.7131 357.241 50.0294 356.161 48.448C355.069 46.8692 354.277 45.3847 353.758 44.0986C353.242 42.8073 353.023 41.7177 352.95 40.9672C352.907 40.5941 352.908 40.2979 352.91 40.1005C352.91 39.903 352.91 39.8008 352.91 39.8008C352.91 39.8008 352.902 39.903 352.888 40.1005C352.873 40.2988 352.852 40.5915 352.869 40.9742C352.89 41.7404 353.034 42.8606 353.469 44.2139C353.899 45.5603 354.607 47.1313 355.603 48.8123C356.591 50.4977 357.855 52.2967 359.331 54.1735C360.798 56.0555 362.483 58.0082 364.304 60.0213C365.217 61.0112 366.154 62.0274 367.11 63.0636C368.057 64.1042 369.027 65.1684 370.013 66.2474C371.169 67.5335 372.354 68.8476 373.549 70.173C370.569 71.7536 367.547 73.3612 364.517 74.9532C361.795 76.4 359.068 77.8286 356.383 79.2125C355.452 79.6966 350.127 82.4549 348.533 83.2815C345.991 84.5807 343.548 85.8624 341.213 87.0201C338.902 88.225 336.692 89.3005 334.671 90.3228C330.623 92.3419 327.23 93.9706 324.856 95.1064C323.661 95.6533 322.727 96.0998 322.092 96.4047C321.458 96.7062 321.117 96.8713 321.117 96.8713C321.117 96.8713 321.479 96.7534 322.155 96.5402C322.828 96.3235 323.819 96.0072 325.074 95.5861C326.331 95.1693 327.831 94.5909 329.564 93.9575C331.296 93.3118 333.218 92.5097 335.334 91.6622C337.425 90.7596 339.704 89.7994 342.083 88.7143C344.47 87.6273 346.972 86.4461 349.555 85.2089C350.651 84.6646 351.771 84.108 352.895 83.5497C352.911 84.177 352.986 84.8035 353.128 85.4142C353.465 86.9327 354.115 88.3569 354.866 89.6946C355.602 91.034 356.519 92.2939 357.301 93.5494C358.037 94.8207 358.43 96.2798 358.596 97.7424C358.923 100.695 358.436 103.653 358.381 106.669C358.382 106.752 358.38 106.832 358.381 106.911C358.169 107.058 357.981 107.207 357.83 107.359C357.553 107.631 357.392 107.906 357.341 108.109C357.287 108.314 357.297 108.423 357.297 108.423C357.297 108.423 357.315 108.307 357.409 108.141C357.501 107.973 357.696 107.762 357.995 107.576C358.106 107.508 358.244 107.445 358.38 107.381C358.386 108.649 358.369 109.891 358.319 111.157L358.161 115.641C357.94 121.621 357.774 127.623 358.022 133.637C358.153 136.644 358.404 139.655 358.915 142.642C359.171 144.134 359.506 145.621 359.985 147.078C360.473 148.519 361.098 149.966 362.149 151.156L362.212 151.231L362.309 151.257L362.337 151.263L362.45 151.293L362.546 151.25C364.001 150.609 365.091 149.468 366.029 148.285C366.967 147.088 367.755 145.794 368.477 144.47C369.914 141.815 371.083 139.034 372.158 136.224C373.831 131.831 375.244 127.35 376.595 122.86L376.672 122.837C376.672 122.837 376.663 122.775 376.648 122.685C377.008 121.487 377.365 120.288 377.721 119.089C378.15 117.655 378.577 116.221 379.03 114.801C379.252 114.088 379.507 113.399 379.751 112.683C379.986 111.96 380.18 111.232 380.364 110.503C380.423 110.259 380.479 110.014 380.537 109.77C380.697 109.889 380.848 110.002 380.982 110.101C381.586 110.544 381.935 110.797 381.935 110.797C381.935 110.797 381.612 110.512 381.048 110.016C380.905 109.891 380.748 109.751 380.578 109.597C380.853 108.439 381.118 107.282 381.425 106.143C381.812 104.711 382.268 103.297 382.915 101.995C383.56 100.703 384.428 99.5204 385.581 98.7175C386.765 97.8979 387.996 97.1317 389.173 96.2719C390.348 95.4183 391.486 94.4747 392.41 93.2987C392.839 92.7535 393.204 92.1375 393.48 91.4778C393.912 91.9191 394.354 92.369 394.782 92.805C396.82 94.8207 398.794 96.7551 400.695 98.5602C402.587 100.366 404.427 102.02 406.108 103.557C407.828 105.052 409.383 106.439 410.807 107.615C412.238 108.781 413.464 109.816 414.517 110.623C415.565 111.431 416.396 112.057 416.966 112.479C417.53 112.902 417.835 113.13 417.835 113.13C417.835 113.13 417.567 112.866 417.065 112.371ZM379.866 110.357C379.686 111.081 379.492 111.801 379.265 112.499C379.029 113.196 378.761 113.903 378.538 114.621C378.074 116.048 377.645 117.482 377.21 118.914C376.934 119.836 376.653 120.754 376.376 121.674C376.291 121.452 376.19 121.218 376.054 120.958C375.856 120.595 375.601 120.192 375.267 119.799C374.953 119.384 374.548 119.001 374.105 118.601C373.647 118.23 373.146 117.847 372.594 117.527C372.04 117.205 371.444 116.913 370.817 116.687C370.193 116.451 369.541 116.277 368.885 116.158C367.568 115.907 366.232 115.874 365.001 115.996C364.383 116.053 363.793 116.156 363.244 116.294C362.693 116.437 362.179 116.578 361.724 116.78C361.266 116.963 360.858 117.163 360.514 117.373C360.17 117.577 359.884 117.775 359.666 117.966C359.439 118.141 359.283 118.306 359.178 118.418C359.075 118.53 359.017 118.589 359.017 118.589L359.053 118.639C359.053 118.639 359.128 118.613 359.271 118.561C359.409 118.505 359.613 118.431 359.873 118.351C360.002 118.306 360.146 118.264 360.306 118.227C360.463 118.186 360.627 118.132 360.815 118.097C361.179 118.02 361.585 117.935 362.04 117.878C362.487 117.819 362.977 117.769 363.495 117.739C364.015 117.721 364.558 117.705 365.12 117.721C365.681 117.726 366.265 117.771 366.851 117.823C367.434 117.885 368.029 117.959 368.616 118.063C369.202 118.173 369.785 118.279 370.354 118.429C370.922 118.564 371.477 118.726 372.004 118.915C373.061 119.278 373.996 119.797 374.687 120.391C375.38 120.982 375.824 121.641 376.082 122.108C376.125 122.174 376.153 122.235 376.186 122.299C374.784 126.909 373.325 131.504 371.599 135.99C370.523 138.779 369.343 141.539 367.925 144.147C367.21 145.45 366.433 146.717 365.522 147.867C364.665 148.944 363.669 149.941 362.483 150.517C361.633 149.478 361.061 148.188 360.621 146.872C360.166 145.464 359.841 144.009 359.594 142.541C359.094 139.6 358.876 136.612 358.728 133.63C358.453 127.652 358.587 121.668 358.775 115.689L358.91 111.201C358.95 109.867 358.939 108.499 358.924 107.168C359.453 106.983 360.082 106.821 360.808 106.7C362.027 106.487 363.473 106.335 365.025 106.28C365.802 106.249 366.602 106.231 367.414 106.231C368.214 106.221 369.031 106.211 369.841 106.203C370.242 106.199 370.641 106.203 371.011 106.228C371.427 106.26 371.856 106.274 372.23 106.312C372.999 106.363 373.788 106.502 374.537 106.66C375.273 106.857 375.993 107.085 376.642 107.385C377.291 107.685 377.897 108.002 378.435 108.34C379.068 108.727 379.61 109.104 380.081 109.446C380.011 109.747 379.941 110.054 379.866 110.357ZM392.018 92.9693C391.142 94.0894 390.034 95.0094 388.875 95.8508C387.713 96.6966 386.487 97.4567 385.29 98.2867C384.051 99.1482 383.131 100.402 382.464 101.745C381.792 103.096 381.328 104.536 380.936 105.987C380.647 107.055 380.395 108.131 380.142 109.206C379.723 108.826 379.243 108.406 378.681 107.96C377.665 107.138 376.369 106.294 374.856 105.596C374.093 105.254 373.3 104.925 372.433 104.705C371.989 104.568 371.59 104.493 371.173 104.412C370.715 104.321 370.267 104.284 369.828 104.256C368.947 104.205 368.085 104.235 367.244 104.322C366.402 104.418 365.583 104.547 364.796 104.7C363.221 105.013 361.764 105.384 360.558 105.836C359.946 106.066 359.394 106.314 358.927 106.572C358.981 103.655 359.449 100.713 359.111 97.704C358.932 96.1889 358.524 94.6573 357.731 93.296C356.905 91.9811 356.025 90.7824 355.292 89.456C354.553 88.149 353.925 86.7711 353.602 85.3251C353.446 84.6584 353.374 83.9839 353.377 83.3103C354.732 82.634 356.099 81.9455 357.477 81.2387C360.17 79.8486 362.9 78.4183 365.623 76.9671C368.361 75.5246 371.079 74.0323 373.765 72.5714C374.199 72.3311 374.627 72.0961 375.059 71.8567C375.386 72.2193 375.707 72.5749 376.034 72.9392C377.114 74.1231 378.2 75.3175 379.292 76.5128L379.408 76.6657C379.737 77.0947 380.082 77.5097 380.418 77.9317C380.758 78.3502 381.087 78.7774 381.436 79.189L382.494 80.4061C382.842 80.8211 383.204 81.216 383.577 81.6039L384.683 82.7747L385.837 83.9009C386.213 84.2819 386.627 84.6226 387.023 84.9852C387.295 85.2369 387.585 85.4684 387.871 85.7017C388.108 85.9533 388.349 86.2093 388.586 86.4583C390.102 88.0415 391.607 89.5766 393.092 91.089C392.833 91.767 392.465 92.4014 392.018 92.9693Z" fill="#293644"/>
<path d="M375.827 122.006C375.7 121.576 374.822 121.493 374.511 121.693C373.746 122.174 373.048 122.723 372.403 123.322C372.359 123.328 372.315 123.336 372.293 123.347C368.703 124.994 365.676 127.852 362.451 130.231C361.863 130.665 361.254 131.043 360.626 131.401C362.389 130.397 364.001 128.713 365.614 127.411C367.944 125.528 370.268 123.651 372.543 121.702C372.959 121.342 371.502 121.085 371.255 121.195C368.506 122.385 365.848 123.898 363.097 125.132C365.429 123.074 365.698 122.292 366.194 121.205C367.145 121.035 368.024 120.828 368.644 120.493C368.407 120.401 367.594 120.183 366.837 119.973C367.097 119.458 365.796 119.354 365.536 119.495C363.762 120.452 361.815 120.795 360.04 121.756C359.49 122.052 360.853 122.551 361.245 122.338C361.838 122.019 362.668 121.818 363.567 121.652C361.904 123.119 359.964 124.454 359.505 126.653C359.403 127.145 360.472 127.2 360.717 127.124C363.234 126.32 365.621 125.118 368.004 123.914C364.88 126.482 361.946 128.771 358.857 131.422C358.711 131.547 358.857 131.754 358.934 131.818C360.286 132.892 361.719 132.099 363.007 131.267C365.327 129.771 367.412 127.893 369.634 126.268C367.032 129.003 364.25 131.534 361.504 134.128C361.086 134.526 362.554 134.747 362.797 134.633C364.272 133.956 365.657 133.138 366.991 132.228C365.173 134.401 363.245 136.457 361.136 138.354C360.724 138.721 362.108 138.969 362.301 138.906C363.817 138.42 365.281 137.814 366.72 137.137C364.744 139.09 362.795 141.077 360.978 143.225C360.639 143.625 362.029 144.007 362.363 143.651C363.856 142.056 365.352 140.478 366.879 138.94C366.023 140.548 365.152 142.156 364.307 143.786C363.378 144.728 362.52 145.73 361.835 146.934C361.651 147.254 362.057 147.441 362.482 147.486C362.412 147.636 362.341 147.783 362.272 147.933C362.056 148.41 363.451 148.5 363.7 148.263C365.696 146.37 366.286 145.103 367.298 142.616C367.3 142.612 367.297 142.609 367.299 142.607C369.522 139.575 371.15 136.258 372.752 132.724C372.927 132.335 372.189 132.188 371.731 132.299C372.387 130.778 372.974 129.217 373.463 127.602C373.883 127.831 374.472 127.793 374.479 127.458C374.51 125.619 376.376 123.859 375.827 122.006ZM374.103 124.301C373.942 124.179 373.67 124.118 373.419 124.106C373.739 123.791 374.075 123.489 374.426 123.202C374.363 123.568 374.243 123.935 374.103 124.301ZM367.905 129.807C367.868 129.886 367.828 129.96 367.79 130.038C367.762 130.1 367.758 130.158 367.769 130.213C367.341 130.542 366.909 130.863 366.472 131.176C366.951 130.722 367.431 130.267 367.905 129.807ZM371.391 128.811C371.604 128.517 371.186 128.332 370.747 128.281C371.218 127.668 371.715 127.078 372.239 126.516C371.428 129.415 370.294 132.132 369.01 134.774C367.456 135.616 365.887 136.411 364.276 137.102C366.87 134.56 369.221 131.794 371.391 128.811Z" fill="white"/>
<path opacity="0.5" d="M394.359 80.3694C394.708 80.227 395.072 80.1265 395.433 80.0479C396.159 79.8819 396.888 79.805 397.613 79.7395C398.34 79.6801 399.061 79.6626 399.781 79.6434L401.928 79.6556C402.641 79.6705 403.351 79.7028 404.04 79.7019L406.161 79.6539C407.607 79.6268 409.051 79.6338 410.485 79.6442C413.366 79.6661 416.226 79.7045 419.069 79.556C419.783 79.5141 420.488 79.4634 421.198 79.4066L422.239 79.3009L423.321 79.1637L427.643 78.5468C430.539 78.131 433.422 77.6784 436.299 77.1725C439.182 76.6631 442.045 76.0585 444.864 75.2966C447.685 74.5277 450.473 73.6278 453.095 72.4168C455.164 71.4592 457.134 70.2911 458.789 68.8416C458.545 68.8127 458.3 68.7787 458.054 68.7577C457.631 68.7289 457.207 68.6887 456.777 68.6721C456.349 68.6555 455.919 68.6476 455.485 68.652C455.053 68.6625 454.618 68.6642 454.183 68.6843C453.746 68.7018 453.311 68.7289 452.873 68.7621C451.997 68.8293 451.117 68.9219 450.238 69.039C449.359 69.1579 448.481 69.295 447.602 69.4523C446.73 69.6183 445.853 69.7826 444.986 69.9765C444.119 70.1749 443.248 70.3645 442.382 70.5689L439.79 71.177C441.302 70.7664 442.814 70.3636 444.32 69.9162C444.728 69.7992 445.136 69.676 445.543 69.558L447.492 68.9569C448.345 68.6922 449.207 68.43 450.079 68.195C450.407 68.105 450.737 68.022 451.068 67.9381C451.849 67.7153 452.629 67.496 453.41 67.2689C454.937 66.8215 456.472 66.4336 458.012 66.0623L460.336 65.4978C461.093 65.3135 461.853 65.1361 462.601 64.9194C464.107 64.5044 465.595 64.0195 467.066 63.4743C468.536 62.9335 469.992 62.3402 471.433 61.7033C472.879 61.0759 474.316 60.4268 475.747 59.7357L480.05 57.6597C481.493 56.9616 482.909 56.239 484.4 55.5558C487.352 54.1849 490.346 52.9713 493.258 51.6686C494.714 51.0116 496.146 50.3222 497.536 49.5717C498.229 49.1968 498.916 48.7984 499.58 48.3948C499.909 48.1859 500.238 47.9929 500.565 47.7709L501.555 47.1043C502.897 46.1703 504.245 45.2756 505.531 44.3521C506.399 43.7265 507.205 43.0555 507.978 42.3582C505.72 41.91 503.424 41.585 501.116 41.3639C498.301 41.1071 495.467 40.962 492.63 40.9402C489.801 40.9218 486.962 40.9987 484.148 41.1342C481.318 41.2818 478.506 41.4801 475.705 41.7379C474.304 41.8497 472.912 42.0271 471.518 42.1678C470.128 42.3233 468.743 42.5207 467.358 42.6937L463.23 43.3272C461.865 43.5814 460.486 43.8016 459.136 44.0786L457.118 44.4954C456.446 44.629 455.77 44.7758 455.088 44.9436L453.05 45.425L452.058 45.6653L451.049 45.9204C448.363 46.6036 445.685 47.2982 443.021 48.0156C437.708 49.4502 432.45 50.9993 427.292 52.7642C424.724 53.6406 422.168 54.5492 419.637 55.506C418.377 55.9874 417.116 56.4732 415.874 56.9887C414.616 57.4718 413.386 58.0057 412.15 58.5247C410.924 59.0699 409.72 59.567 408.484 60.1489C407.253 60.7265 406.046 61.3014 404.798 61.8667L401.114 63.5416C399.892 64.0885 398.678 64.6468 397.478 65.2261C395.08 66.3768 392.712 67.5808 390.471 68.9674C389.358 69.6699 388.26 70.3977 387.26 71.2408C386.255 72.0822 385.333 73.0013 384.651 74.145L384.597 74.1206C384.593 74.1311 384.336 74.927 384.363 75.564C384.39 76.2053 385.641 76.7094 386.735 77.3271C387.827 77.944 393.332 81.7324 393.332 81.7324L393.322 81.3707H393.339C393.356 81.2563 393.411 81.1645 393.48 81.0806L393.4 81.0081C393.649 80.7041 394.005 80.5083 394.359 80.3694Z" fill="#E1EEF4"/>
<path d="M484.142 39.0763C487.015 39.0072 489.875 38.9994 492.75 39.085C495.63 39.1785 498.517 39.3296 501.394 39.6337C504.279 39.9439 507.153 40.3999 509.983 41.0771L511.356 41.41L510.393 42.4121C509.245 43.6082 507.946 44.6646 506.634 45.6484C505.33 46.6383 504.001 47.5487 502.75 48.5186L501.769 49.2464C501.438 49.4866 501.079 49.7234 500.739 49.9602C500.046 50.4241 499.348 50.8662 498.639 51.2891C497.224 52.1366 495.766 52.9151 494.303 53.6508C491.385 55.1335 488.412 56.4196 485.526 57.7678L481.185 59.8271C479.731 60.5112 478.276 61.2085 476.793 61.848C475.312 62.4955 473.816 63.1228 472.307 63.7064C470.791 64.2831 469.254 64.8178 467.703 65.294C466.157 65.7771 464.587 66.1974 463.003 66.5451C462.215 66.7295 461.419 66.871 460.626 67.0204L459.918 67.1463C460.292 67.1917 460.665 67.2406 461.039 67.3079L462.629 67.5875L461.544 68.8116C459.454 71.1724 456.767 72.8857 454.004 74.2243C451.227 75.5506 448.341 76.5641 445.424 77.3653C442.513 78.1621 439.58 78.7938 436.652 79.3251C433.724 79.8703 430.798 80.273 427.887 80.6636L423.524 81.2359L422.435 81.3617L421.303 81.4657C420.563 81.5198 419.824 81.5635 419.088 81.5827C416.14 81.6745 413.239 81.5653 410.374 81.4788C408.943 81.4325 407.517 81.3949 406.101 81.3879C405.385 81.3774 404.707 81.4115 403.931 81.3774C403.193 81.3416 402.482 81.2874 401.771 81.2271L399.661 81.0271C398.965 80.9519 398.268 80.8925 397.57 80.8383C396.874 80.778 396.18 80.7466 395.489 80.7413C394.811 80.7693 394.089 80.751 393.51 81.1066L393.483 81.0821L393.404 81.0096C393.651 80.7055 394.007 80.5089 394.361 80.3709C394.71 80.2285 395.074 80.128 395.434 80.0494C396.16 79.8825 396.89 79.8056 397.614 79.7409C398.342 79.6815 399.063 79.6641 399.783 79.6448L401.93 79.6571C402.643 79.6719 403.353 79.7042 404.041 79.7034L406.163 79.6553C407.609 79.6274 409.052 79.6343 410.487 79.6457C413.367 79.6675 416.228 79.706 419.071 79.5575C419.786 79.5155 420.49 79.464 421.199 79.4081L422.241 79.3023L423.323 79.1652L427.645 78.5483C430.54 78.1333 433.424 77.6798 436.301 77.174C439.183 76.6637 442.046 76.06 444.866 75.2981C447.688 74.5292 450.475 73.6293 453.096 72.4183C455.166 71.4616 457.136 70.2925 458.79 68.843C458.547 68.8142 458.302 68.7801 458.056 68.7592C457.633 68.7303 457.209 68.691 456.778 68.6735C456.35 68.6569 455.919 68.6491 455.487 68.6534C455.054 68.6639 454.619 68.6657 454.185 68.6858C453.748 68.7032 453.313 68.7303 452.874 68.7635C451.999 68.8308 451.119 68.9234 450.239 69.0405C449.36 69.1593 448.483 69.2965 447.604 69.4538C446.732 69.6198 445.855 69.784 444.987 69.978C444.121 70.1755 443.25 70.3659 442.384 70.5704L439.791 71.1785L440.968 70.8912C442.142 70.5953 443.313 70.277 444.485 69.9631C444.438 69.9745 444.39 69.9859 444.342 69.9981L439.791 71.1785L441.304 70.7685C442.311 70.4944 443.317 70.2159 444.322 69.9177C444.729 69.8006 445.137 69.6774 445.545 69.5595L447.494 68.9584C448.347 68.6936 449.209 68.4315 450.08 68.1965C450.409 68.1074 450.739 68.0235 451.069 67.9396C451.85 67.7168 452.631 67.4975 453.412 67.2703C454.939 66.823 456.473 66.4351 458.014 66.0637L460.338 65.4993C461.094 65.3149 461.855 65.1385 462.602 64.9209C464.108 64.5059 465.596 64.021 467.068 63.4758C468.538 62.9358 469.993 62.3417 471.435 61.7047C472.882 61.0774 474.318 60.4282 475.748 59.7371L480.052 57.6612C481.496 56.9622 482.912 56.2405 484.402 55.5572C487.354 54.1864 490.347 52.9728 493.26 51.6701C494.716 51.013 496.148 50.3237 497.537 49.5731C498.231 49.1983 498.918 48.7999 499.582 48.3962L500.239 47.9864L500.566 47.7724L501.556 47.1057C502.898 46.1717 504.247 45.2771 505.533 44.3535C506.401 43.7279 507.207 43.0569 507.98 42.3597C505.721 41.9115 503.426 41.5856 501.118 41.3654C498.303 41.1077 495.468 40.9626 492.631 40.9417C489.802 40.9233 486.964 41.0002 484.149 41.1356C481.32 41.2833 478.508 41.4816 475.707 41.7394C474.306 41.8512 472.914 42.0277 471.52 42.1692C470.13 42.3247 468.745 42.5222 467.36 42.6952L463.232 43.3287C461.866 43.582 460.488 43.8031 459.137 44.0801L457.12 44.4968C456.449 44.6305 455.772 44.7773 455.09 44.945L453.052 45.4265L452.059 45.6667L451.051 45.9219C448.365 46.6051 445.687 47.2997 443.022 48.017C437.71 49.4517 432.452 50.9999 427.294 52.7657C424.725 53.642 422.169 54.5507 419.639 55.5074C418.378 55.9889 417.117 56.4746 415.876 56.9901C414.617 57.4733 413.388 58.0072 412.152 58.5261C410.925 59.0713 409.721 59.5685 408.486 60.1504C407.255 60.7279 406.047 61.3028 404.8 61.8681L401.115 63.543C399.894 64.09 398.679 64.6483 397.48 65.2276C395.081 66.3783 392.713 67.5823 390.473 68.9688C389.359 69.6713 388.262 70.4 387.262 71.2423C386.257 72.0837 385.335 73.0028 384.653 74.1465L384.598 74.122L384.543 74.0976C384.757 73.486 385.071 72.8683 385.435 72.2986C385.814 71.7342 386.23 71.1916 386.684 70.6805C387.599 69.6617 388.615 68.7382 389.684 67.8846C390.748 67.0283 391.854 66.2245 392.998 65.4757C394.136 64.7252 395.289 63.9974 396.471 63.3185C397.646 62.6344 398.838 61.9721 400.027 61.3238L403.623 59.4401C405.992 58.1688 408.404 56.9281 410.927 55.7521C413.428 54.6049 415.965 53.5311 418.539 52.5534C421.111 51.5678 423.709 50.6251 426.333 49.7758C428.956 48.8995 431.602 48.1062 434.26 47.3093C436.924 46.5343 439.593 45.7786 442.288 45.0761C444.98 44.3684 447.689 43.6904 450.411 43.0735L451.433 42.8368L451.966 42.7188L452.48 42.6105L454.527 42.1823C455.206 42.0355 455.898 41.9027 456.603 41.7813L458.702 41.4039C460.105 41.1566 461.5 40.9696 462.901 40.7486L467.119 40.213C468.531 40.0741 469.939 39.9115 471.352 39.7918C472.77 39.6852 474.186 39.5446 475.603 39.4703C478.447 39.2851 481.293 39.1619 484.142 39.0763ZM255.669 0L257.07 0.120573C259.969 0.370457 262.843 0.844887 265.677 1.46261C268.503 2.0812 271.29 2.8492 274.05 3.66875C276.807 4.49442 279.518 5.40483 282.223 6.37903C284.897 7.35672 287.56 8.37286 290.201 9.44491C291.523 9.9639 292.82 10.5458 294.133 11.0919C295.438 11.6519 296.722 12.2522 298.017 12.8288L301.851 14.6689C303.11 15.3198 304.376 15.9393 305.627 16.6147L307.502 17.6369C308.13 17.9724 308.746 18.3175 309.344 18.6714L311.152 19.7234L311.604 19.9872L312.073 20.2694L312.967 20.8146C315.355 22.2598 317.713 23.7573 320.045 25.2793C322.378 26.7961 324.676 28.3566 326.957 29.9319C329.225 31.5264 331.489 33.1149 333.701 34.7741C335.923 36.4079 338.089 38.1213 340.219 39.8687C342.351 41.6083 344.421 43.4274 346.433 45.3059C348.455 47.2167 350.354 49.1564 352.2 51.1109L355.018 54.0326C355.946 55.0243 356.865 56.0273 357.766 57.0478C358.671 58.0657 359.536 59.1194 360.378 60.1923C361.227 61.2618 362.022 62.374 362.762 63.5229C363.508 64.6701 364.18 65.868 364.725 67.1227C364.996 67.75 365.22 68.3974 365.401 69.0518C365.564 69.7071 365.669 70.3913 365.676 71.0404L365.634 71.0439L365.556 71.0518C365.27 69.7517 364.686 68.5888 363.999 67.4722C363.314 66.3582 362.502 65.3202 361.668 64.3023C359.98 62.2796 358.113 60.3898 356.197 58.5419C355.245 57.614 354.268 56.7001 353.281 55.7966L350.314 53.0453C349.307 52.1122 348.348 51.1878 347.36 50.2511C346.371 49.311 345.385 48.4565 344.392 47.5522L342.88 46.2265C342.374 45.7856 341.864 45.3478 341.345 44.9197C340.328 44.039 339.285 43.1801 338.243 42.3256C336.143 40.621 334.006 38.9504 331.842 37.3087C327.506 34.0052 323.006 30.8755 318.418 27.8376C316.114 26.3165 313.793 24.8119 311.461 23.3161L310.583 22.7552L309.718 22.2143L307.936 21.1134C307.342 20.7386 306.747 20.3856 306.152 20.0475L304.368 19.0148C303.174 18.3254 301.938 17.6815 300.72 17.0105L297.005 15.1066C295.745 14.5038 294.493 13.879 293.223 13.2928C291.946 12.7196 290.679 12.1124 289.384 11.5628C286.81 10.4348 284.205 9.35929 281.569 8.32655C278.938 7.31129 276.268 6.34233 273.577 5.46687C270.88 4.59227 268.144 3.83388 265.391 3.18908C263.123 2.66922 260.834 2.25245 258.542 1.965C259.057 2.87367 259.632 3.76137 260.261 4.63334C261.19 5.91421 262.184 7.18897 263.162 8.49868L263.892 9.44317C264.135 9.75771 264.386 10.0452 264.631 10.3466C265.132 10.9398 265.661 11.5357 266.199 12.1089C267.282 13.2605 268.421 14.3648 269.597 15.4491C271.95 17.6046 274.404 19.6998 276.774 21.9339C277.973 23.0514 279.088 24.1828 280.239 25.3029L283.667 28.6309C284.806 29.7371 285.964 30.8082 287.14 31.8585C288.307 32.9174 289.499 33.9405 290.722 34.9174C291.947 35.8994 293.205 36.8291 294.504 37.6984C295.145 38.1405 295.813 38.5477 296.471 38.9627L298.497 40.2287C299.842 41.0683 301.174 41.922 302.483 42.8271C303.246 43.354 304.013 43.8739 304.776 44.3972C304.966 44.5204 305.164 44.6331 305.351 44.7581C306.106 45.2552 306.839 45.7759 307.566 46.2958L309.249 47.4989C309.59 47.734 309.93 47.9742 310.274 48.2084C311.562 49.1066 312.868 49.9672 314.175 50.8339L311.907 49.4377C311.148 48.9703 310.383 48.5168 309.624 48.0546C308.861 47.5977 308.081 47.1643 307.304 46.7309C306.523 46.3045 305.73 45.8983 304.934 45.5077C304.138 45.118 303.333 44.7554 302.522 44.4129C302.118 44.2417 301.712 44.0809 301.302 43.9254C300.897 43.7708 300.485 43.631 300.077 43.4851C299.668 43.3435 299.257 43.2159 298.845 43.0962C298.434 42.9757 298.017 42.8796 297.607 42.7747C297.366 42.7153 297.124 42.6716 296.884 42.6227C297.997 44.5195 299.499 46.2504 301.158 47.8117C303.264 49.7872 305.625 51.5215 308.057 53.1414C310.49 54.7534 313.019 56.2309 315.594 57.6253C318.163 59.0111 320.758 60.3522 323.373 61.6602L327.282 63.6103L328.263 64.0813L329.219 64.5103C329.873 64.7898 330.529 65.0616 331.191 65.3246C333.842 66.3634 336.571 67.231 339.309 68.1178C340.676 68.5582 342.047 69.0082 343.41 69.4905L345.409 70.206C346.06 70.4236 346.744 70.6167 347.425 70.8281L349.465 71.4948C350.142 71.7403 350.822 71.9841 351.495 72.2698C352.161 72.559 352.829 72.8656 353.466 73.2501C353.783 73.4388 354.097 73.6485 354.383 73.8958C354.674 74.1369 354.952 74.4375 355.091 74.8027L354.993 74.8472L354.958 74.863C354.521 74.3431 353.83 74.1317 353.195 73.8914C352.538 73.6782 351.871 73.4903 351.191 73.3261C350.514 73.1575 349.833 72.9932 349.146 72.8464L347.08 72.3702C346.389 72.2051 345.697 72.0304 344.986 71.8312C344.238 71.6188 343.605 71.3733 342.924 71.1566C341.577 70.7163 340.211 70.303 338.842 69.8941C336.092 69.0719 333.308 68.2585 330.541 67.2424C329.847 66.9916 329.159 66.7164 328.473 66.4316L327.434 65.9772L326.439 65.5133L322.48 63.592C319.843 62.3015 317.19 60.9962 314.587 59.5563C311.976 58.126 309.391 56.6022 306.878 54.9282C304.368 53.248 301.947 51.3747 299.731 49.2385C297.532 47.0961 295.52 44.6226 294.285 41.7236L293.643 40.2191L295.237 40.4559C295.613 40.51 295.983 40.5817 296.353 40.6551L295.72 40.3134C295.015 39.922 294.304 39.535 293.616 39.1121C292.224 38.2812 290.866 37.3874 289.551 36.4402C288.229 35.4992 286.939 34.5085 285.683 33.4836C284.436 32.4517 283.215 31.3858 282.015 30.3041C280.808 29.2277 279.647 28.1076 278.483 26.9997L275.016 23.6752C272.703 21.4839 270.287 19.3249 267.986 16.9982C266.831 15.8388 265.694 14.6401 264.617 13.388C264.076 12.7633 263.557 12.1229 263.043 11.4641L262.537 10.7962L262.293 10.4628L261.589 9.46239C260.709 8.14657 259.736 6.86307 258.81 5.51317C257.876 4.1659 256.977 2.75309 256.265 1.25554L255.669 0Z" fill="#293644"/>
<path opacity="0.5" d="M365.559 71.0516C365.274 69.7524 364.69 68.5886 364.002 67.472C363.317 66.358 362.506 65.3192 361.671 64.3022C359.983 62.2804 358.117 60.3896 356.201 58.5417C355.248 57.6138 354.272 56.6999 353.284 55.7965L350.317 53.0451C349.312 52.112 348.351 51.1876 347.363 50.251C346.374 49.31 345.389 48.4564 344.396 47.5521C343.387 46.6705 342.387 45.7758 341.348 44.9195C340.331 44.0388 339.289 43.1791 338.247 42.3255C336.146 40.6208 334.008 38.9512 331.846 37.3086C327.51 34.005 323.009 30.8754 318.421 27.8374C316.117 26.3163 313.797 24.8126 311.465 23.3159L310.587 22.755L309.722 22.2142L307.939 21.1133C307.346 20.7385 306.751 20.3855 306.155 20.0474L304.372 19.0146C303.177 18.3253 301.941 17.6813 300.724 17.0103L297.008 15.1065C295.748 14.5045 294.497 13.8798 293.227 13.2926C291.949 12.7195 290.683 12.1122 289.387 11.5627C286.814 10.4347 284.207 9.35914 281.572 8.3264C278.94 7.31026 276.271 6.34218 273.581 5.46671C270.884 4.59212 268.147 3.83373 265.394 3.18893C263.126 2.66906 260.838 2.2523 258.546 1.96484C259.061 2.87351 259.636 3.76121 260.265 4.63319C261.193 5.91406 262.188 7.18882 263.165 8.49852L263.896 9.44302C264.138 9.75755 264.389 10.045 264.634 10.3464C265.136 10.9397 265.664 11.5347 266.202 12.1087C267.285 13.2603 268.424 14.3656 269.6 15.449C271.952 17.6044 274.408 19.6996 276.778 21.9337C277.977 23.0512 279.091 24.1827 280.242 25.3028L283.671 28.6308C284.809 29.7369 285.968 30.8081 287.144 31.8583C288.31 32.9173 289.502 33.9413 290.726 34.9172C291.951 35.8993 293.208 36.8289 294.507 37.6982C295.149 38.1404 295.816 38.5475 296.474 38.9625L298.5 40.2285C299.845 41.0673 301.177 41.9218 302.486 42.827C303.249 43.3547 304.016 43.8746 304.78 44.3971C304.969 44.5203 305.168 44.633 305.355 44.7579C306.11 45.2551 306.843 45.7758 307.57 46.2957L309.252 47.4988C309.594 47.7338 309.934 47.9741 310.277 48.2082C311.566 49.1064 312.871 49.967 314.178 50.8338L311.91 49.4376C311.152 48.9701 310.386 48.5167 309.627 48.0545C308.864 47.5975 308.083 47.1641 307.307 46.7308C306.526 46.3035 305.734 45.8972 304.938 45.5076C304.141 45.1179 303.336 44.7553 302.526 44.4128C302.122 44.2415 301.716 44.0808 301.306 43.9253C300.9 43.7706 300.487 43.6308 300.081 43.4849C299.672 43.3434 299.26 43.2158 298.849 43.0961C298.437 42.9755 298.021 42.8785 297.61 42.7746C297.37 42.716 297.128 42.6715 296.887 42.6225C298 44.5194 299.502 46.2502 301.162 47.8116C303.267 49.787 305.628 51.5214 308.061 53.1413C310.494 54.7541 313.022 56.2307 315.597 57.6252C318.166 59.0109 320.762 60.3529 323.376 61.66L327.285 63.6102L328.266 64.0811L329.223 64.5101C329.877 64.7897 330.533 65.0614 331.194 65.3244C333.846 66.3633 336.574 67.2309 339.313 68.1177C340.679 68.5572 342.051 69.008 343.414 69.4903L345.412 70.2059C346.063 70.4243 346.746 70.6174 347.429 70.828L349.469 71.4946C350.146 71.7401 350.827 71.9839 351.498 72.2696C352.164 72.5588 352.832 72.8646 353.47 73.2499C353.787 73.4386 354.1 73.6483 354.387 73.8956C354.677 74.1367 354.955 74.4373 355.095 74.8025L354.997 74.8471C355.035 74.9484 355.058 75.0533 355.036 75.1669L355.053 75.1712L354.93 75.5111C354.93 75.5111 361.349 73.6536 362.582 73.4142C363.814 73.173 365.158 73.0892 365.386 72.4898C365.615 71.8913 365.623 71.0525 365.623 71.0455L365.641 71.0438L365.559 71.0516Z" fill="#E1EEF4"/>
</g>
<defs>
<clipPath id="clip0_1_13564">
<rect width="512" height="152" fill="white"/>
</clipPath>
</defs>
</svg>
