<svg width="256" height="279" viewBox="0 0 256 279" fill="none" xmlns="http://www.w3.org/2000/svg">
<g clip-path="url(#clip0_1_13579)">
<path d="M133.784 48.9219C133.784 21.9448 111.839 0 84.8626 0C56.4321 0 39.4354 21.3159 39.4354 41.9328H67.3906C67.3906 36.1322 72.8139 27.9552 84.8626 27.9552C96.4221 27.9552 105.829 37.3624 105.829 48.9219C105.829 60.4814 97.3913 69.8883 76.1135 69.8883H0V97.8435H76.1135C112.025 97.8435 133.784 75.8987 133.784 48.9219ZM133.784 48.9219C133.784 21.9448 111.839 0 84.8626 0C56.4321 0 39.4354 21.3159 39.4354 41.9328H67.3906C67.3906 36.1322 72.8139 27.9552 84.8626 27.9552C96.4221 27.9552 105.829 37.3624 105.829 48.9219C105.829 60.4814 97.3913 69.8883 76.1135 69.8883H0V97.8435H76.1135C112.025 97.8435 133.784 75.8987 133.784 48.9219Z" fill="url(#paint0_linear_1_13579)"/>
<path d="M195.803 229.34C195.803 256.318 173.858 278.261 146.881 278.261C118.451 278.261 101.454 256.947 101.454 236.329H129.409C129.409 242.129 134.832 250.307 146.881 250.307C158.441 250.307 167.847 240.899 167.847 229.34C167.847 217.78 157.217 208.373 138.132 208.373H53.6707V180.418H138.132C174.044 180.418 195.803 202.363 195.803 229.34ZM195.803 229.34C195.803 256.318 173.858 278.261 146.881 278.261C118.451 278.261 101.454 256.947 101.454 236.329H129.409C129.409 242.129 134.832 250.307 146.881 250.307C158.441 250.307 167.847 240.899 167.847 229.34C167.847 217.78 157.217 208.373 138.132 208.373H53.6707V180.418H138.132C174.044 180.418 195.803 202.363 195.803 229.34Z" fill="url(#paint1_linear_1_13579)"/>
<path d="M203.13 43.1289C172.296 43.1289 150.545 66.5777 150.545 97.4123H175.304C175.304 82.0854 186.435 70.955 203.13 70.955C219.826 70.955 228.174 82.0854 228.174 97.4123C228.174 112.739 217.332 125.368 187.826 125.368H0V153.323H192C235.695 153.323 256 125.238 256 97.4123C256 66.5777 235.13 43.1289 203.13 43.1289Z" fill="url(#paint2_linear_1_13579)"/>
<path d="M36.6472 180.418H0V208.608H36.6472V180.418Z" fill="url(#paint3_linear_1_13579)"/>
</g>
<defs>
<linearGradient id="paint0_linear_1_13579" x1="2226.09" y1="3540.57" x2="13010.2" y2="20553.4" gradientUnits="userSpaceOnUse">
<stop offset="0.078225" stop-color="#54C8F1"/>
<stop offset="0.572917" stop-color="#41A2EF"/>
<stop offset="1" stop-color="#3386EE"/>
</linearGradient>
<linearGradient id="paint1_linear_1_13579" x1="-3087.31" y1="-4674.72" x2="6994.66" y2="11230.5" gradientUnits="userSpaceOnUse">
<stop offset="0.078225" stop-color="#54C8F1"/>
<stop offset="0.572917" stop-color="#41A2EF"/>
<stop offset="1" stop-color="#3386EE"/>
</linearGradient>
<linearGradient id="paint2_linear_1_13579" x1="2226.09" y1="4171.08" x2="8985.29" y2="14834.3" gradientUnits="userSpaceOnUse">
<stop offset="0.078225" stop-color="#54C8F1"/>
<stop offset="0.572917" stop-color="#41A2EF"/>
<stop offset="1" stop-color="#3386EE"/>
</linearGradient>
<linearGradient id="paint3_linear_1_13579" x1="2226.09" y1="-8520.06" x2="13664.5" y2="9525.07" gradientUnits="userSpaceOnUse">
<stop offset="0.078225" stop-color="#54C8F1"/>
<stop offset="0.572917" stop-color="#41A2EF"/>
<stop offset="1" stop-color="#3386EE"/>
</linearGradient>
<clipPath id="clip0_1_13579">
<rect width="256" height="279" fill="white"/>
</clipPath>
</defs>
</svg>
