<svg width="512" height="202" viewBox="0 0 512 202" fill="none" xmlns="http://www.w3.org/2000/svg">
<g clip-path="url(#clip0_1_13588)">
<path d="M0 0.231554C0 0.231554 20.2953 -2.32845 33.8256 9.65739C42.177 17.052 44.6111 28.8364 44.6111 28.8364L72.2424 136.415L95.2236 48.3679C97.4563 39.0093 101.494 27.4347 107.873 19.612C116.014 9.649 132.541 9.01949 134.303 9.01949C136.066 9.01949 152.584 9.649 160.718 19.612C167.097 27.4347 171.134 39.0009 173.375 48.3679L196.356 136.415L223.979 28.8364C223.979 28.8364 226.422 17.052 234.773 9.65739C248.303 -2.32845 268.59 0.231554 268.59 0.231554L215.678 201.28C215.678 201.28 198.228 202.547 189.49 198.073C178.017 192.198 172.569 187.666 165.619 160.303C162.107 146.308 158.638 132.302 155.212 118.285L153.911 113.006C150.243 98.0487 146.583 83.1504 144.006 72.7845L142.747 67.7484C141.589 63.1824 140.792 60.1104 140.506 59.1871C139.726 56.6607 138.794 50.6426 134.295 50.6426C129.897 50.6426 128.881 56.6691 128.084 59.1871C127.79 60.1104 126.993 63.174 125.843 67.7484L124.584 72.7845C121.904 83.5562 119.246 94.3334 116.61 105.116L115.318 110.37C111.253 127.029 107.14 143.676 102.979 160.311C96.0294 187.666 90.5736 192.206 79.0998 198.073C70.3622 202.547 52.9123 201.28 52.9123 201.28L0 0.231554ZM318.934 33.5787V40.839H318.951V162.2C318.858 187.103 316.45 192.634 305.975 198.367C297.833 202.824 285.377 201.137 285.377 201.137V65.1884C285.377 58.3645 287.492 53.8908 295.29 49.8788C299.948 47.4782 304.287 45.6401 308.803 42.9206C314.972 39.2275 318.103 34.8377 318.791 33.7969L318.934 33.5787ZM335.738 0.90303C335.738 0.90303 363.075 -3.93999 376.614 8.8768C384.227 16.0868 392.645 28.3748 394.551 31.2118L394.911 31.7489L394.953 31.8161L418.791 67.5386C419.941 69.3935 421.452 71.4163 423.869 71.4163C426.278 71.4163 427.797 69.4019 428.955 67.5386L452.784 31.8161L452.826 31.7489L453.187 31.2118C455.092 28.3748 463.511 16.0868 471.132 8.86841C484.663 -3.93999 512 0.894636 512 0.894636L447.228 101.079L511.824 200.936C511.824 200.936 483.857 204.679 470.318 191.862C461.656 183.67 452.784 170.333 452.784 170.333L428.947 134.619C427.797 132.756 426.278 130.733 423.869 130.733C421.452 130.733 419.941 132.747 418.782 134.619L394.953 170.333C394.953 170.333 386.568 183.67 377.915 191.862C364.376 204.679 335.906 200.936 335.906 200.936L400.501 101.079L335.738 0.90303ZM318.867 0.00493129H318.951C318.951 13.3505 317.692 21.2823 309.634 27.4431C305.894 30.3179 301.769 32.6544 297.38 34.3845C292.929 36.1207 288.854 38.6967 285.377 41.9721C285.377 17.6647 288.927 8.86001 298.471 3.64769C304.405 0.407817 314.15 0.0385051 317.65 0.00493129H318.867Z" fill="black"/>
</g>
<defs>
<clipPath id="clip0_1_13588">
<rect width="512" height="202" fill="white"/>
</clipPath>
</defs>
</svg>
