<svg width="256" height="376" viewBox="0 0 256 376" fill="none" xmlns="http://www.w3.org/2000/svg">
<g clip-path="url(#clip0_1_13591)">
<path d="M242.806 269.472C230.721 285.27 199.192 279.802 199.192 279.802L198.922 173.197L198.854 151.66C198.854 151.66 216.813 152.133 230.451 157.804C237 160.504 242.603 164.42 244.696 170.091C251.988 189.603 252.73 256.509 242.806 269.472Z" fill="white"/>
<path d="M250.165 214.516C250.57 237.876 248.41 262.181 242.806 269.472C230.721 285.27 199.192 279.802 199.192 279.802L198.854 151.66L199.799 151.728L200.07 251.648C200.07 251.648 231.599 257.117 243.684 241.319C246.992 236.998 249.085 226.871 250.165 214.516Z" fill="#371A45" fill-opacity="0.35"/>
<path d="M198.765 154.921L198.944 148.398L199.519 148.42L200.397 148.463L201.061 148.501C201.472 148.527 201.894 148.555 202.327 148.586L203.658 148.69C204.567 148.766 205.515 148.856 206.498 148.96C212.126 149.557 217.758 150.51 223.045 151.903C225.11 152.447 227.073 153.044 228.926 153.696L229.926 154.058C238.991 157.423 245.276 162.208 247.754 168.885C247.92 169.33 248.082 169.799 248.242 170.289L248.479 171.042C248.714 171.811 248.941 172.629 249.162 173.493L249.379 174.372L249.592 175.281C249.627 175.435 249.662 175.59 249.697 175.746L249.902 176.698C249.936 176.859 249.969 177.021 250.003 177.184L250.2 178.177L250.392 179.197L250.58 180.243L250.761 181.314C250.791 181.495 250.821 181.677 250.85 181.859L251.024 182.967C251.052 183.154 251.081 183.341 251.109 183.53L251.274 184.672L251.434 185.837L251.589 187.023L251.737 188.23L251.881 189.457L252.018 190.704L252.149 191.969L252.275 193.252L252.395 194.552L252.508 195.868L252.616 197.2L252.717 198.547L252.813 199.908L252.902 201.282L252.985 202.669L253.061 204.067L253.164 206.186L253.252 208.328L253.326 210.489L253.367 211.94L253.401 213.398L253.428 214.862L253.448 216.332L253.462 217.807L253.469 220.026L253.461 222.253L253.439 224.373L253.416 225.77L253.371 227.843L253.333 229.207L253.289 230.559L253.239 231.896L253.183 233.219L253.12 234.527L253.052 235.82L252.977 237.098L252.897 238.36L252.765 240.224L252.669 241.445L252.567 242.65L252.459 243.838L252.345 245.008L252.225 246.161L252.098 247.295L251.966 248.411L251.828 249.508L251.683 250.586L251.533 251.644C251.507 251.819 251.481 251.993 251.455 252.166L251.295 253.194L251.13 254.203L250.958 255.19L250.78 256.157C250.75 256.316 250.719 256.475 250.688 256.632L250.501 257.567L250.308 258.48C250.276 258.63 250.243 258.78 250.209 258.928L250.007 259.808C249.939 260.097 249.869 260.383 249.799 260.665L249.584 261.499L249.364 262.31C249.252 262.709 249.138 263.1 249.022 263.481L248.786 264.233C248.627 264.725 248.464 265.202 248.297 265.661L248.043 266.338L247.783 266.99C247.038 268.799 246.22 270.299 245.33 271.454C240.587 277.654 233.138 281.309 223.821 282.964C216.753 284.219 209.298 284.23 202.308 283.504L201.641 283.432L200.454 283.291L199.939 283.224L199.07 283.098L198.567 283.016L199.682 276.587L200.346 276.689L200.885 276.765L201.673 276.866C201.81 276.883 201.95 276.9 202.093 276.916L202.983 277.014C209.418 277.682 216.301 277.672 222.679 276.539C230.534 275.144 236.549 272.193 240.154 267.48C248.706 256.385 249.181 191.415 241.637 171.159C239.522 165.46 232.274 161.084 221.382 158.213C216.449 156.913 211.132 156.014 205.81 155.449L205.116 155.377L203.77 155.25C203.55 155.23 203.333 155.211 203.118 155.193L201.858 155.095L200.663 155.015L199.761 154.964L198.765 154.921Z" fill="#371A45"/>
<path d="M247.869 224.304L226.4 225.924C224.488 226.073 222.911 227.483 222.552 229.367C221.269 236.321 219.243 252.457 225.995 257.791C232.039 262.092 240.208 261.844 245.979 257.183C251.92 252.119 252.528 236.321 252.393 228.49C252.393 226.059 250.3 224.169 247.869 224.304Z" fill="white"/>
<path d="M222.552 229.371C221.269 236.325 219.243 252.461 225.995 257.794C232.039 262.096 240.208 261.848 245.979 257.187C249.625 254.081 251.245 246.925 251.988 240.038C251.243 243.07 249.732 245.86 247.599 248.14C236.797 258.672 228.695 246.249 228.695 246.249C228.695 246.249 227.278 249.288 226.197 249.423C221.539 250.165 222.484 235.515 223.159 227.953C222.889 228.358 222.687 228.831 222.552 229.371Z" fill="#371A45" fill-opacity="0.35"/>
<path d="M247.689 221.047L226.147 222.672C222.768 222.935 219.982 225.427 219.347 228.757C219.158 229.782 218.981 230.842 218.82 231.935L218.719 232.641L218.576 233.715L218.446 234.776L218.329 235.824C218.311 235.998 218.293 236.171 218.276 236.343L218.18 237.37C218.165 237.54 218.151 237.709 218.138 237.878L218.064 238.884C218.053 239.05 218.042 239.216 218.033 239.381L217.981 240.364C217.573 249.467 219.175 256.562 223.972 260.352L224.103 260.45C231.339 265.6 241.119 265.303 248.029 259.722C252.056 256.291 254.224 249.815 255.14 241.601L255.246 240.586C255.262 240.416 255.278 240.245 255.294 240.073L255.381 239.033C255.436 238.335 255.482 237.626 255.521 236.907L255.574 235.821L255.615 234.721C255.621 234.536 255.627 234.351 255.632 234.165L255.657 233.044C255.664 232.668 255.669 232.29 255.672 231.91L255.676 230.763C255.676 230.379 255.674 229.993 255.671 229.605L255.655 228.434C255.656 224.181 251.984 220.808 247.689 221.047ZM248.115 227.558C248.649 227.529 249.13 227.971 249.13 228.491L249.144 229.562L249.147 230.625C249.147 230.802 249.146 230.978 249.145 231.154L249.134 232.203L249.112 233.242L249.081 234.27L249.039 235.285L248.988 236.287C248.969 236.619 248.948 236.948 248.926 237.275L248.854 238.247C248.816 238.729 248.773 239.206 248.727 239.675L248.63 240.606C248.578 241.066 248.523 241.52 248.465 241.966L248.342 242.848C248.299 243.139 248.254 243.426 248.208 243.709L248.065 244.549C247.198 249.38 245.804 253.047 243.863 254.701L243.602 254.906C239.137 258.327 232.893 258.515 228.163 255.325L227.958 255.183L228.017 255.232C225.3 253.085 224.217 247.48 224.551 240.181L224.6 239.279C224.609 239.127 224.618 238.975 224.629 238.822L224.698 237.896L224.781 236.955L224.878 235.999L224.989 235.03L225.113 234.047C225.135 233.882 225.158 233.717 225.181 233.551L225.278 232.872C225.425 231.872 225.589 230.89 225.76 229.96C225.84 229.541 226.207 229.213 226.646 229.179L248.115 227.558Z" fill="#371A45"/>
<path d="M230.653 233.554C230.923 236.255 230.923 238.82 231.058 241.386C231.167 243.869 231.529 246.335 232.139 248.745C232.746 251.108 233.759 253.268 235.177 254.889C236.594 256.509 238.552 257.589 240.713 258.062C241.925 258.342 242.68 259.551 242.401 260.762C242.121 261.974 240.912 262.73 239.7 262.45L239.565 262.383C238.121 261.92 236.739 261.285 235.447 260.492C234.159 259.674 233.037 258.62 232.139 257.387C230.429 255.051 229.295 252.345 228.83 249.488C228.29 246.787 228.155 244.087 228.155 241.453C228.155 238.82 228.358 236.187 228.29 233.689C228.29 233.014 228.763 232.474 229.438 232.474C230.113 232.407 230.586 232.879 230.653 233.554ZM235.177 169.281C231.182 169.575 227.212 170.139 223.294 170.969C219.364 171.682 215.485 172.651 211.682 173.872H211.614C210.399 174.21 209.184 173.534 208.779 172.387C208.441 171.171 209.116 169.956 210.264 169.551L210.467 169.484C212.492 169.078 214.517 168.741 216.61 168.471L222.754 167.796C224.78 167.593 226.872 167.526 228.898 167.458L235.042 167.391C235.582 167.391 235.987 167.863 235.987 168.403C236.122 168.876 235.717 169.281 235.177 169.281Z" fill="#371A45"/>
<path d="M230.518 157.738C221.092 164.882 210.358 170.111 198.922 173.131L198.854 151.594C198.854 151.661 216.88 152.134 230.518 157.738Z" fill="#371A45" fill-opacity="0.35"/>
<path d="M156.995 348.938C147.814 370.205 108.52 366.694 98.5959 357.917C88.4013 348.87 106.833 337.595 106.833 337.595C98.6634 323.687 98.3933 297.087 99.271 280.006C99.7436 270.621 100.554 264.14 100.554 264.14L158.481 232.746C158.413 244.561 156.455 254.621 154.7 262.722C150.919 279.871 151.189 293.104 152.675 303.906C155.51 324.025 162.734 335.705 156.995 348.938Z" fill="white"/>
<path d="M156.996 348.938C147.814 370.205 108.521 366.694 98.596 357.917C95.4228 355.081 95.0177 351.976 96.0304 349.14C109.466 357.039 143.56 363.048 150.244 342.929C153.485 333.072 147.139 326.253 143.695 312.953C142.204 307.36 137.82 303.001 132.218 301.543C120.335 298.505 105.685 292.023 99.6762 280.749L99.3386 280.006C99.8112 270.621 100.621 264.14 100.621 264.14L152.472 236.054L158.548 232.746C158.481 244.561 156.523 254.621 154.768 262.722L154.025 266.436L153.417 270.014L153.147 271.769L152.472 276.833L152.337 278.453L152.067 281.491C151.865 284.597 151.797 287.567 151.797 290.336V291.213L151.865 293.036L152 295.467L152.135 297.154L152.202 298.235L152.27 299.18L152.337 300.058L152.81 303.771C155.51 324.025 162.734 335.705 156.996 348.938Z" fill="#371A45" fill-opacity="0.35"/>
<path d="M155.083 232.859L161.608 232.897C161.555 242.232 160.518 250.234 158.382 260.578L157.969 262.546L157.752 263.552C153.302 283.873 153.981 298.061 158.263 316.23L160.157 324.006L160.412 325.085L160.646 326.103L160.861 327.066C160.895 327.222 160.928 327.377 160.961 327.53L161.149 328.428L161.321 329.294L161.479 330.135C161.504 330.274 161.529 330.412 161.553 330.549C162.405 335.389 162.574 339.43 161.941 343.384C161.565 345.735 160.902 348.023 159.923 350.295C155.168 361.31 143.254 367.172 128.189 368.016C115.494 368.726 102.214 365.596 96.3548 360.415C94.2564 358.54 92.9381 356.401 92.4407 354.06C91.3662 349.004 94.045 344.217 98.8891 339.665C99.8496 338.762 100.853 337.914 101.869 337.127L102.526 336.626L102.309 336.168C98.8521 328.736 96.8599 318.678 96.0354 306.554L95.9843 305.777C95.302 295.025 95.5675 283.557 96.4231 272.475L96.5446 270.957L96.669 269.502L96.7956 268.115L96.9235 266.796L97.1041 265.065L97.2484 263.804L103.724 264.605L103.555 266.109L103.479 266.832L103.354 268.079L103.23 269.396L103.108 270.78L102.988 272.23C102.968 272.476 102.949 272.726 102.929 272.978C102.095 283.779 101.836 294.959 102.497 305.364L102.597 306.836C102.721 308.541 102.869 310.199 103.043 311.807L103.198 313.174C104.324 322.652 106.354 330.32 109.362 335.632L109.578 336.007L111.199 338.766L108.389 340.492L108.079 340.694L107.64 340.99L107.164 341.322C107.082 341.38 106.998 341.44 106.913 341.502C105.697 342.38 104.481 343.364 103.358 344.42C100.022 347.555 98.3603 350.524 98.8235 352.704C99.0189 353.623 99.5964 354.561 100.69 355.537C105.032 359.378 116.685 362.124 127.824 361.501C140.678 360.781 150.342 356.026 153.931 347.712C154.694 345.94 155.206 344.172 155.498 342.353C156.002 339.202 155.862 335.861 155.127 331.68L154.986 330.911L154.833 330.118L154.664 329.293L154.479 328.43L154.276 327.518L154.054 326.552L153.533 324.381L152.122 318.609C147.515 299.431 146.648 284.325 151.167 263.131L151.585 261.192L151.984 259.295C153.98 249.638 154.97 242.179 155.076 233.685L155.083 232.859Z" fill="#371A45"/>
<path d="M100.942 309.469C106.497 312.593 113.912 314.692 122.717 315.872C132.48 317.181 142.922 317.268 152.592 316.629L153.621 316.558L154.584 316.485L155.48 316.41L156.581 316.309L157.062 316.259L157.604 321.118L156.599 321.218L155.449 321.32L154.485 321.396L152.915 321.508C142.948 322.166 132.202 322.076 122.068 320.718C112.976 319.499 105.193 317.335 99.0953 314.034L98.5457 313.73L100.942 309.469Z" fill="#371A45"/>
<path d="M220.256 233.487C220.054 242.128 218.973 249.487 217.015 255.159L216.813 255.699C211.815 270.139 200.99 281.821 186.972 287.903C173.766 293.77 159.327 296.319 144.91 295.329C134.108 294.587 108.183 288.375 99.6086 272.307C93.8699 261.505 95.2202 230.516 102.242 183.526C105.01 164.892 108.723 143.693 113.179 120.266L197.099 124.789C203.175 140.655 207.969 156.048 211.614 170.429C217.269 190.974 220.175 212.178 220.256 233.487Z" fill="white"/>
<path d="M216.813 255.701C211.823 270.146 200.995 281.831 186.972 287.905C181.571 290.336 165.705 296.749 144.911 295.332C134.108 294.589 108.183 288.378 99.6087 272.309C96.9081 267.313 95.8279 257.996 96.0304 244.696C96.233 252.595 97.3807 258.266 99.6087 261.642C108.183 274.807 134.176 279.938 144.911 280.546C165.705 281.761 181.571 276.428 186.972 274.47C200.153 270.159 210.958 260.576 216.813 248.004C218.973 242.941 220.189 236.257 220.256 228.223C220.391 239.497 219.243 248.814 216.813 255.701Z" fill="#371A45" fill-opacity="0.35"/>
<path d="M98.326 212.895C96.9757 225.182 96.1655 235.849 96.0305 244.694C95.828 236.457 96.6381 225.722 98.326 212.895Z" fill="#371A45" fill-opacity="0.35"/>
<path d="M200.214 123.56C221.392 179.012 228.771 231.628 219.896 256.702C214.652 271.822 203.407 284.1 188.858 290.638L188.311 290.881C176.452 296.217 162.312 299.638 145.558 298.642L144.545 298.577L134.14 296.934L135.157 290.489L145.27 292.085L145.968 292.13C161.238 293.032 174.193 289.979 185.074 285.179L185.665 284.916C198.844 279.156 209.018 268.153 213.737 254.545C221.897 231.495 214.935 181.044 194.735 127.511L194.118 125.888L200.214 123.56ZM109.974 119.59L116.384 120.811L115.42 125.9C114.945 128.424 114.481 130.917 114.026 133.378L113.132 138.26C112.397 142.293 111.692 146.24 111.015 150.099L110.217 154.689C109.956 156.205 109.699 157.706 109.447 159.194L108.704 163.616L107.989 167.954C106.937 174.397 105.979 180.556 105.115 186.429L104.552 190.301C98.2485 234.346 97.4791 261.515 102.425 270.783C103.416 272.655 104.79 274.501 106.547 276.389C112.655 282.714 122.673 287.479 133.805 290.179L134.448 290.332L132.958 296.685C120.459 293.754 109.099 288.425 101.812 280.879C99.6495 278.557 97.9414 276.261 96.6628 273.846C89.9016 261.175 91.9377 224.569 102.108 163.416L102.866 158.898L103.654 154.291C104.456 149.642 105.302 144.86 106.19 139.947L107.093 134.989C107.399 133.322 107.71 131.641 108.025 129.944L108.985 124.811C109.31 123.085 109.64 121.345 109.974 119.59Z" fill="#371A45"/>
<path d="M153.822 280.273C153.822 280.273 145.046 324.225 163.274 345.559C163.274 345.559 144.911 356.834 155.038 365.881C164.962 374.658 204.255 378.168 213.437 356.901C222.214 336.512 200.34 319.769 211.074 270.754C212.83 262.652 214.788 252.592 214.855 240.777L153.822 280.273Z" fill="white"/>
<path d="M211.142 270.822C200.407 319.838 222.282 336.649 213.505 356.97C204.323 378.237 165.03 374.726 155.105 365.95C152.472 363.587 151.729 361.089 152.134 358.658C165.502 365.68 198.922 366.895 207.293 347.518C210.332 340.497 192.035 326.859 191.9 311.668C192.149 299.361 194.595 287.197 199.124 275.751C200.524 271.923 200.021 267.658 197.769 264.26C195.517 260.863 191.785 258.738 187.714 258.535H187.512C182.583 258.265 177.25 257.59 171.578 256.374C171.578 256.374 162.329 244.627 172.659 238.078C172.659 238.078 204.053 242.399 220.324 233.555C220.121 242.196 219.041 249.555 217.083 255.227L213.91 256.104C213.1 261.505 212.087 266.502 211.142 270.822Z" fill="#371A45" fill-opacity="0.35"/>
<path d="M154.565 280.546C154.7 286.217 154.43 291.821 154.228 297.357C154.093 302.893 154.025 308.429 154.498 313.965C154.945 319.43 155.94 324.836 157.468 330.101C158.996 335.259 161.545 340.057 164.962 344.211C165.772 345.157 165.637 346.574 164.692 347.385L164.49 347.587C163.68 348.06 162.802 348.735 161.992 349.343C159.617 351.185 157.505 353.343 155.713 355.756C154.705 357.119 154.204 358.79 154.295 360.482C154.6 362.076 155.491 363.497 156.793 364.466C158.143 365.613 159.966 366.559 161.857 367.301C163.747 368.044 165.705 368.652 167.73 369.124C175.918 370.99 184.408 371.105 192.643 369.462C198.685 368.493 204.225 365.52 208.374 361.022C209.634 359.532 210.679 357.874 211.479 356.094C213.031 352.384 213.657 348.352 213.302 344.347C213.032 340.228 212.02 336.11 211.007 331.924C209.994 327.738 208.914 323.417 208.036 319.096C205.335 306.002 205.06 292.524 207.226 279.331C207.901 274.942 208.846 270.554 209.724 266.368C210.602 262.114 211.074 257.861 211.682 253.675C212.29 249.422 212.83 245.236 214.112 240.915C214.248 240.51 214.653 240.24 215.058 240.375C215.328 240.442 215.53 240.645 215.598 240.915C216.674 245.262 216.948 249.77 216.408 254.215C216.003 258.671 214.99 262.992 214.112 267.246C212.051 275.591 210.785 284.114 210.332 292.698C209.959 301.234 210.639 309.782 212.357 318.151C213.167 322.337 214.248 326.523 215.26 330.776C216.273 335.03 217.353 339.35 217.623 344.009C217.961 348.6 217.286 353.461 215.463 357.849C213.594 362.275 210.413 366.022 206.348 368.584C200.405 372.119 193.73 374.244 186.837 374.795C177.787 375.56 168.677 374.409 160.101 371.42C157.843 370.543 155.728 369.337 153.822 367.841L153.08 367.166L152.405 366.491C152 365.951 151.527 365.478 151.189 364.871C149.616 362.47 149.266 359.468 150.244 356.769C150.647 355.562 151.191 354.406 151.865 353.326C153.215 351.233 154.835 349.545 156.523 347.925L159.156 345.697L161.992 343.671L161.452 347.047C157.649 342.459 154.803 337.156 153.08 331.451C152.135 328.683 151.527 325.78 150.919 322.945L150.177 318.624C148.699 308.63 148.836 298.463 150.582 288.512C151.132 285.682 151.922 282.904 152.945 280.208C153.08 279.803 153.552 279.601 153.958 279.803C154.363 280.006 154.565 280.276 154.565 280.546Z" fill="#371A45"/>
<path d="M153.506 315.059C157.734 317.031 162.363 318.436 167.333 319.317C178.17 321.239 189.845 320.612 201.097 318.392C203.119 317.993 204.977 317.57 206.64 317.144L207.624 316.886L208.307 316.698L209.157 316.453L209.457 316.362L210.936 321.022L210.681 321.1L209.965 321.31L209.272 321.504L208.502 321.711C206.589 322.216 204.423 322.72 202.043 323.189C190.247 325.516 177.998 326.174 166.48 324.131C161.405 323.231 156.632 321.818 152.215 319.844L151.439 319.489L153.506 315.059Z" fill="#371A45"/>
<path d="M96.7055 241.115C98.3062 230.438 98.8489 219.628 98.3258 208.844C98.0757 214.721 97.5123 220.58 96.6379 226.397C95.5109 233.678 95.2616 241.067 95.8953 248.407C96.0978 245.909 96.3679 243.478 96.7055 241.115Z" fill="#371A45" fill-opacity="0.35"/>
<path d="M106.765 261.371L161.316 264.206C167.798 264.544 173.334 259.548 173.672 253.066L175.157 224.035C175.425 217.546 170.434 212.044 163.95 211.68L109.398 208.845C106.282 208.679 103.227 209.761 100.909 211.851C98.5912 213.941 97.2002 216.867 97.0432 219.984L95.8279 243.007L95.4904 249.015C95.2958 255.503 100.287 260.972 106.765 261.371Z" fill="white"/>
<path d="M106.765 261.372L161.316 264.208C167.798 264.545 173.334 259.549 173.672 253.068L175.157 224.037C175.427 218.366 171.646 213.437 166.312 212.02L161.046 215.125C157.198 238.282 149.974 249.557 121.011 248.545C108.52 248.072 100.689 245.777 95.8954 242.941L95.5578 248.95C95.2882 255.451 100.27 260.973 106.765 261.372Z" fill="#371A45" fill-opacity="0.35"/>
<path d="M93.9199 219.749L92.4344 248.783C92.0034 257.06 98.3812 264.132 106.663 264.563L161.215 267.399C169.445 267.832 176.567 261.433 176.997 253.17L178.483 224.136C178.914 215.859 172.536 208.788 164.254 208.356L109.703 205.521C101.423 205.089 94.3512 211.467 93.9199 219.749ZM109.364 212.037L163.915 214.873C168.599 215.117 172.21 219.12 171.966 223.8L170.481 252.834C170.238 257.49 166.191 261.126 161.555 260.882L107.002 258.047C102.318 257.803 98.7074 253.799 98.9511 249.119L100.437 220.085C100.68 215.404 104.684 211.793 109.364 212.037Z" fill="#371A45"/>
<path d="M104.605 261.035C105.28 261.237 106.023 261.305 106.765 261.372L161.316 264.208C167.794 264.514 173.308 259.543 173.672 253.068L174.347 240.173L174.549 235.919L175.157 224.037C175.494 217.556 170.498 212.019 164.017 211.682L152.202 211.074C157.603 212.357 161.452 217.353 161.181 223.092L160.371 238.755L159.696 252.123C159.359 258.604 153.822 263.6 147.341 263.263L104.605 261.035Z" fill="white"/>
<path d="M104.605 261.033C105.28 261.236 106.023 261.303 106.765 261.371L161.316 264.206C167.798 264.544 173.334 259.548 173.672 253.067L174.549 235.918C172.996 238.889 170.363 242.467 166.38 242.669C164.22 242.804 162.127 241.117 160.371 238.821L159.696 252.189C159.359 258.67 153.822 263.666 147.341 263.329L104.605 261.033Z" fill="#371A45" fill-opacity="0.35"/>
<path d="M164.322 208.354L152.505 207.746L151.583 214.179C155.508 215.111 158.251 218.749 158.057 222.869L156.573 251.886C156.329 256.567 152.325 260.178 147.646 259.935L77.7578 256.297L103.735 264.09C104.125 264.207 104.467 264.288 104.854 264.354L105.259 264.415L105.715 264.471L106.537 264.552L106.833 264.565L106.663 264.561L161.215 267.396C169.494 267.827 176.566 261.45 176.997 253.168L178.55 224.141C178.981 215.857 172.604 208.785 164.322 208.354ZM162.534 214.845L162.502 214.793L163.985 214.87C168.667 215.114 172.277 219.118 172.034 223.797L170.481 252.824L170.464 253.079C170.091 257.643 166.148 261.119 161.554 260.88L159.846 260.79L159.913 260.707C161.758 258.355 162.922 255.432 163.09 252.223L164.575 223.189C164.717 220.169 163.963 217.294 162.534 214.845Z" fill="#371A45"/>
<path d="M138.969 236.66C138.902 237.74 140.05 246.449 140.05 246.449L146.193 246.719C150.379 246.922 154.025 242.736 154.295 237.335C154.565 231.934 151.324 227.41 147.139 227.208L140.995 226.938C140.995 226.938 139.037 234.972 138.969 236.66Z" fill="#22A7F0"/>
<path d="M138.969 236.66C138.902 237.74 140.05 246.449 140.05 246.449L146.193 246.719C150.379 246.922 154.025 242.736 154.295 237.335C154.565 231.934 151.324 227.41 147.139 227.208L140.995 226.938C140.995 226.938 139.037 234.972 138.969 236.66Z" fill="#371A45" fill-opacity="0.35"/>
<path d="M142.751 224.625L142.534 224.627C140.516 224.69 138.79 226.07 138.209 228.024L138.141 228.28L137.484 231.25L137.218 232.499L136.979 233.662L136.79 234.651L136.681 235.282L136.624 235.651L136.58 235.981L136.548 236.272C136.544 236.317 136.54 236.361 136.537 236.403L136.517 236.693L136.514 236.887L136.523 237.204L136.549 237.609L136.625 238.435L136.895 240.874L137.335 244.751C137.339 244.793 137.344 244.835 137.348 244.876C137.624 247.173 139.476 248.905 141.742 249.026L146.01 249.229C151.7 249.505 156.338 244.147 156.669 237.525C157 230.905 152.887 225.11 147.189 224.834L142.751 224.625ZM142.871 229.523L146.955 229.718C149.658 229.848 151.993 233.138 151.786 237.281L151.769 237.55C151.464 241.565 148.886 244.474 146.244 244.346L142.187 244.152L142.045 242.854L141.706 239.906L141.534 238.343L141.453 237.543L141.404 236.94L141.404 236.882L141.41 236.798L141.447 236.475L141.512 236.049L141.603 235.524L141.764 234.679L142.023 233.407L142.496 231.218L142.871 229.523Z" fill="#371A45"/>
<path d="M132.826 236.459C133.096 231.058 136.674 226.804 140.927 227.007C145.113 227.209 148.354 231.733 148.084 237.134C147.814 242.535 144.235 246.721 139.982 246.586C135.796 246.383 132.555 241.86 132.826 236.459Z" fill="#22A7F0"/>
<path d="M141.044 224.561C135.305 224.287 130.712 229.676 130.379 236.337C130.048 242.959 134.163 248.757 139.864 249.033C145.634 249.217 150.199 243.886 150.53 237.257C150.861 230.635 146.747 224.837 141.044 224.561ZM140.811 229.454C143.511 229.585 145.844 232.872 145.637 237.012C145.428 241.193 142.831 244.226 140.06 244.138C137.398 244.009 135.065 240.722 135.272 236.582C135.482 232.382 138.088 229.324 140.811 229.454Z" fill="#371A45"/>
<path d="M114.113 209.062L118.996 209.3L117.779 234.284L126.798 240.611L126.222 262.11L121.335 261.98L121.839 243.105L112.765 236.739L114.113 209.062Z" fill="#371A45"/>
<path d="M222.619 223.496C222.619 223.496 227.683 227.547 227.885 233.691C228.155 240.847 223.632 243.75 223.632 243.75C223.632 243.75 203.985 253.81 172.524 247.126C172.524 247.126 163.274 235.379 173.604 228.83C173.537 228.83 206.821 233.353 222.619 223.496Z" fill="white"/>
<path d="M227.885 233.688C228.155 240.845 223.632 243.748 223.632 243.748C223.632 243.748 203.985 253.807 172.524 247.123C172.524 247.123 169.486 243.275 168.811 238.752L169.081 239.089C184.613 242.743 200.841 242.16 216.07 237.401C221.063 235.767 224.44 231.11 224.442 225.857V225.316C225.86 227.072 227.75 229.975 227.885 233.688Z" fill="#371A45" fill-opacity="0.35"/>
<path d="M222.853 219.504L220.892 220.727C214.619 224.641 204.44 226.475 192.13 226.596L190.812 226.602C188.619 226.602 186.442 226.548 184.306 226.449L183.513 226.408L184.844 225.566H173.604L173.234 228.246L171.857 226.073C166.913 229.208 164.948 233.758 165.56 238.847C165.958 242.154 167.341 245.26 169.14 247.987L169.406 248.382L169.627 248.696L169.812 248.95L169.96 249.144L170.691 250.071L171.846 250.317C186.047 253.334 199.016 253.327 210.485 251.149L210.914 251.066L211.765 250.894L212.606 250.715L213.435 250.528L214.251 250.335L215.051 250.137L215.836 249.935L216.603 249.728L217.716 249.414L218.431 249.203L219.123 248.991L219.791 248.778L220.432 248.567L221.045 248.358L221.629 248.151L222.181 247.948L222.702 247.749L223.419 247.461C223.494 247.43 223.567 247.399 223.64 247.368L224.054 247.187C224.119 247.158 224.184 247.128 224.246 247.1L224.602 246.931L224.916 246.77C224.965 246.745 225.013 246.719 225.058 246.694L225.309 246.549C225.347 246.526 225.383 246.503 225.417 246.48C225.749 246.263 226.162 245.942 226.631 245.504C227.336 244.845 228.019 244.053 228.638 243.119C230.343 240.547 231.288 237.349 231.146 233.567C231.036 230.232 229.827 227.19 227.912 224.505C227.225 223.541 226.49 222.688 225.751 221.948L225.582 221.781L225.27 221.482L224.994 221.232L224.759 221.03L222.853 219.504ZM222.039 227.562L222.315 227.909C222.411 228.034 222.505 228.162 222.599 228.293C223.822 230.009 224.561 231.867 224.624 233.797C224.715 236.197 224.165 238.056 223.199 239.513L223.073 239.699C222.699 240.232 222.341 240.61 222.081 240.837L221.968 240.929L221.587 241.104L221.421 241.178C220.739 241.477 219.92 241.803 218.969 242.145C216.209 243.137 212.965 244.036 209.268 244.738L208.556 244.87C198.564 246.672 187.308 246.703 174.972 244.295L174.455 244.191L174.407 244.118C171.462 239.536 170.819 235.315 174.265 232.38L174.457 232.221L175.137 232.297L176.097 232.396L177.117 232.493L178.193 232.588C178.377 232.603 178.563 232.619 178.751 232.634C183.039 232.979 187.587 233.166 192.194 233.121C204.145 233.003 214.329 231.391 221.747 227.71L222.039 227.562Z" fill="#371A45"/>
<path d="M205.741 155.578C205.741 155.578 234.097 197.032 223.159 226.198C216.205 244.697 185.554 243.549 176.305 229.844L158.143 197.842L205.741 155.578Z" fill="white"/>
<path d="M223.159 226.197C216.205 244.695 185.622 243.548 176.305 229.842L158.143 197.841L164.895 191.832L180.49 208.711C186.769 222.348 216.61 231.328 223.497 212.829C224.375 210.466 224.982 207.968 225.387 205.402C226.23 212.413 225.468 219.524 223.159 226.197Z" fill="#371A45" fill-opacity="0.35"/>
<path d="M203.048 157.419L208.434 153.734L208.845 154.351L209.342 155.117L209.609 155.535L210.163 156.415L210.744 157.357L211.349 158.357C211.451 158.528 211.555 158.702 211.66 158.879C214.046 162.898 216.431 167.339 218.658 172.082C223.864 183.167 227.416 194.167 228.551 204.551C229.461 212.88 228.767 220.535 226.213 227.344C222.463 237.319 212.55 242.974 200.698 243.356C189.739 243.71 179.078 239.436 173.835 232.007L173.6 231.667L179.009 228.017C182.775 233.597 191.433 237.126 200.488 236.835C209.917 236.531 217.392 232.266 220.104 225.05C222.267 219.282 222.87 212.637 222.064 205.26C221.019 195.692 217.676 185.343 212.751 174.855C210.619 170.315 208.333 166.057 206.049 162.21L205.753 161.713L205.177 160.762L204.627 159.87L204.103 159.037L203.589 158.237L203.048 157.419Z" fill="#371A45"/>
<path d="M211.682 170.362C197.564 184.191 179.304 193.013 159.696 195.477C158.008 195.68 156.321 195.882 154.565 195.95C136.238 197.206 117.963 192.85 102.174 183.46C104.942 164.826 108.656 143.627 113.112 120.199L197.031 124.723C202.818 139.631 207.71 154.871 211.682 170.362Z" fill="#371A45" fill-opacity="0.35"/>
<path d="M71.1178 134.919C80.172 150.841 94.0159 163.504 110.681 171.106L115.002 172.997C127.559 177.996 141.083 180.096 154.565 179.14L159.696 178.668C191.643 174.705 219.025 153.944 231.463 124.251C240.44 102.616 240.331 78.2788 231.161 56.7251C221.991 35.1713 204.531 18.2156 182.718 9.68025C173.942 6.16952 164.895 4.1441 155.915 3.53648L152.742 3.33394C143.469 2.95797 134.195 4.05172 125.264 6.57461C119.12 8.26246 113.111 10.6254 107.44 13.5961L102.107 16.5667C85.9981 26.3879 73.422 41.0679 66.1892 58.4929C55.9422 83.3624 57.7614 111.571 71.1178 134.919Z" fill="white"/>
<path d="M125.175 6.25858C118.998 7.95554 112.968 10.3298 107.288 13.3051L101.947 16.2798C85.768 26.1437 73.1455 40.8777 65.8861 58.3669C55.6002 83.3309 57.4262 111.646 70.8329 135.082C79.9208 151.064 93.817 163.774 110.545 171.405L114.87 173.297C127.484 178.319 141.057 180.427 154.588 179.468L159.726 178.994C191.801 175.016 219.282 154.179 231.766 124.378C240.777 102.661 240.668 78.2313 231.463 56.5964C222.35 35.1778 205.083 18.2828 183.494 9.63399L182.838 9.37443C174.137 5.89383 165.064 3.82641 155.938 3.20884L152.763 3.00621C143.448 2.62845 134.139 3.72628 125.175 6.25858ZM152.729 3.66173L155.894 3.86388C164.639 4.4556 173.335 6.389 181.701 9.63233L182.597 9.98484C204.33 18.4889 221.723 35.3808 230.859 56.8534C239.995 78.326 240.103 102.572 231.16 124.126C218.768 153.708 191.486 174.394 159.656 178.342L154.535 178.813C141.109 179.765 127.635 177.673 115.123 172.691L110.813 170.805C94.215 163.234 80.4232 150.619 71.4031 134.756C58.0967 111.496 56.2844 83.3935 66.4928 58.6177C73.6986 41.2578 86.2284 26.6318 102.278 16.8468L107.6 13.8827C112.918 11.097 118.553 8.83983 124.332 7.17748L125.353 6.89031C134.251 4.37684 143.491 3.28717 152.729 3.66173Z" fill="#371A45"/>
<path d="M231.463 124.182C219.06 153.901 191.66 174.677 159.696 178.599C158.008 178.801 156.32 179.004 154.565 179.071C136.261 180.314 118.011 175.957 102.242 166.581C82.1767 154.6 67.7184 135.112 62.0708 112.435C71.1406 127.549 84.5829 139.555 100.621 146.867L104.942 148.757C117.499 153.757 131.023 155.857 144.505 154.901L149.636 154.429C181.584 150.466 208.965 129.704 221.404 100.012C228.83 82.1211 229.843 63.2847 225.59 45.9336C239.363 68.8208 242.468 97.5818 231.463 124.182Z" fill="#371A45" fill-opacity="0.35"/>
<path d="M124.594 4.13555C118.264 5.87479 112.087 8.30686 106.267 11.3553L100.877 14.3567L100.791 14.4068C84.2253 24.5066 71.2925 39.603 63.8546 57.5222C53.3076 83.1197 55.1796 112.147 68.9236 136.172C78.2374 152.552 92.4832 165.582 109.632 173.405L113.989 175.311C126.978 180.484 140.882 182.643 154.744 181.66L159.928 181.183C192.854 177.101 221.006 155.755 233.795 125.227C243.035 102.956 242.923 77.9128 233.487 55.7339C224.145 33.7768 206.444 16.457 184.312 7.59076L183.64 7.32468C174.74 3.76478 165.442 1.64597 156.086 1.01288L152.903 0.809701C143.636 0.433315 134.423 1.46925 125.529 3.87719L124.594 4.13555ZM152.64 5.85817L155.754 6.05765C164.258 6.63312 172.726 8.514 180.875 11.6699L181.78 12.0258C202.978 20.3205 219.931 36.7845 228.835 57.7132C237.739 78.6418 237.845 102.274 229.129 123.281C217.044 152.129 190.433 172.307 159.385 176.158L154.333 176.622C141.284 177.546 128.141 175.505 115.937 170.646L111.694 168.789C95.5488 161.423 82.1066 149.128 73.3152 133.668C60.3432 110.992 58.5769 83.602 68.5265 59.4543L68.8264 58.7408C75.7955 42.3662 87.6469 28.5322 102.763 19.1295L103.389 18.7437L108.67 15.8029C113.81 13.1116 119.304 10.9113 124.938 9.29058L125.951 9.00572C134.626 6.55533 143.633 5.49301 152.64 5.85817Z" fill="#371A45"/>
<path d="M124.377 3.43315L124.4 3.42684C118.018 5.18 111.793 7.63138 105.926 10.7042L100.519 13.7146L100.408 13.7793C83.7101 23.9601 70.6735 39.1775 63.176 57.2404C52.5418 83.0495 54.4291 112.315 68.2859 136.537C77.6751 153.049 92.0377 166.186 109.327 174.073L113.694 175.984L113.795 176.026C126.809 181.207 140.824 183.384 154.796 182.393L160.098 181.904C193.206 177.797 221.583 156.281 234.473 125.51C243.79 103.055 243.677 77.8067 234.163 55.4461C224.745 33.3091 206.898 15.8474 184.585 6.90851L183.907 6.64024C174.942 3.05385 165.568 0.917869 156.136 0.279592L152.95 0.0762313C143.258 -0.317628 133.64 0.816686 124.377 3.43315ZM152.61 6.59228L155.708 6.79087C164.135 7.36116 172.53 9.22589 180.61 12.355L181.507 12.7079C202.526 20.9328 219.332 37.2538 228.159 58.0007C236.986 78.7477 237.091 102.174 228.45 122.999L228.086 123.855C216.062 151.717 190.3 171.25 160.217 175.309L159.331 175.423L154.266 175.89L153.423 175.945C141.057 176.699 128.612 174.766 116.999 170.274L116.253 169.981L111.989 168.115C95.9945 160.819 82.6691 148.631 73.9541 133.304C61.0939 110.824 59.3429 83.672 69.206 59.7342L69.5076 59.0167C76.416 42.7905 88.1616 29.08 103.142 19.7591L103.763 19.3755L109.028 16.4448C114.09 13.7942 119.517 11.6187 125.083 10.0134L126.151 9.71276C134.751 7.28344 143.681 6.23026 152.61 6.59228Z" fill="#371A45"/>
<path d="M84.7555 152.875C137.551 187.847 208.306 160.707 211.074 98.459C212.965 56.0602 172.456 21.7631 131.07 22.7758C100.959 23.5184 71.8603 37.2238 59.9778 83.6059C59.9778 83.6059 57.9524 104.94 63.9612 118.983C70.0374 133.026 78.3417 145.651 78.3417 145.651L84.7555 152.875Z" fill="#371A45"/>
<path d="M211.074 98.4609C208.239 160.709 137.552 187.849 84.7557 152.877L83.4729 151.392C141.13 160.371 197.909 125.196 201.96 62.2734C208.443 73.1967 211.61 85.7698 211.074 98.4609Z" fill="#220F2D"/>
<path d="M130.45 10.5345C116.625 10.9102 104.196 13.5212 93.2106 18.7493L92.9064 18.894L92.6383 19.0979C79.6504 28.9706 69.5087 42.1066 63.2443 57.1701C52.5455 82.9821 54.408 112.29 68.2862 136.537C77.675 153.048 92.0376 166.185 109.327 174.072L113.694 175.983L113.797 176.026C118.363 177.841 123.065 179.292 127.86 180.364L128.107 180.419L128.359 180.436C179.053 183.761 221.376 149.793 223.718 99.0141C225.903 50.8669 180.369 9.30283 130.45 10.5345ZM130.611 17.0579C176.905 15.9156 219.205 54.5277 217.199 98.7159L217.123 100.12C214.281 145.834 176.289 176.368 130.199 174.007L129.036 173.938L128.171 173.739C124.468 172.86 120.827 171.736 117.271 170.377L116.246 169.977L111.989 168.115C95.9944 160.818 82.6691 148.63 73.954 133.304C61.075 110.802 59.3472 83.614 69.2708 59.6722L69.5805 58.9372C75.3185 45.4932 84.3972 33.7342 95.9543 24.7785L96.3196 24.4971L96.0147 24.6414C106.114 19.8351 117.658 17.4099 130.611 17.0579Z" fill="#371A45"/>
<path d="M130.99 19.5157C93.9394 20.4295 67.8166 39.8632 56.8173 82.7978L56.754 83.0451L56.6853 83.825L56.6254 84.6483L56.5559 85.7897C56.1726 92.775 56.3608 100.489 57.5463 107.828C58.2959 112.469 59.4136 116.65 60.9616 120.268C62.2114 123.157 63.5992 126.096 65.1054 129.073C67.4013 133.611 69.8579 138.018 72.3149 142.127L72.9487 143.181L73.5579 144.18L74.4213 145.573L75.2473 146.876L75.7454 147.643L82.5986 155.362L82.9538 155.597C138.747 192.555 211.495 162.449 214.334 98.6055C216.255 55.5137 175.613 18.4238 130.99 19.5157ZM131.151 26.0391C172.15 25.0358 209.56 59.1765 207.815 98.3153C206.555 126.639 190.395 148.779 165.428 159.112L164.685 159.414C140.372 169.178 111.414 166.29 87.2941 150.64L86.9047 150.384L80.9408 143.666L80.214 142.527L79.4022 141.226L78.8263 140.287L78.225 139.295C78.1228 139.125 78.0196 138.953 77.9154 138.779C75.5326 134.794 73.1493 130.518 70.928 126.127C69.4783 123.262 68.1458 120.44 66.9556 117.689C65.6428 114.621 64.6588 110.939 63.9881 106.787C62.8892 99.9847 62.7116 92.7051 63.0715 86.1473L63.1358 85.0901L63.2038 84.1638L63.1385 84.4172C73.3904 44.3997 96.9366 26.8829 131.151 26.0391Z" fill="#371A45"/>
<path d="M250.57 93.8025C251.92 111.086 242.671 126.479 229.911 128.1C217.15 129.72 205.741 117.027 204.458 99.6763V99.3387C203.243 82.1901 212.492 66.9995 225.117 65.3791C234.974 64.0964 244.021 71.4554 248.207 82.7978C249.49 86.1735 250.3 89.8192 250.57 93.8025Z" fill="white"/>
<path d="M250.57 93.8017C251.92 111.085 242.671 126.478 229.911 128.099C217.151 129.719 205.741 117.026 204.458 99.6754V99.3378C206.011 100.958 208.306 102.376 211.209 101.431C216.273 99.7429 224.712 87.4553 224.712 87.4553C224.712 87.4553 234.907 85.3624 248.207 82.7969C249.49 86.1726 250.3 89.8183 250.57 93.8017Z" fill="#371A45" fill-opacity="0.35"/>
<path d="M226.956 61.9792C212.079 62.2141 200.759 78.1783 201.128 97.1715C201.424 116.14 213.263 131.662 228.139 131.427C242.834 131.116 254.042 115.503 253.907 96.8021L253.9 96.2471C253.605 77.2803 241.777 61.7439 226.956 61.9792ZM227.059 68.5037C237.663 68.3354 246.943 80.385 247.365 95.8781L247.376 96.3614C247.681 112.067 238.746 124.676 228.019 124.903C217.266 125.072 207.898 112.79 207.653 97.0573C207.346 81.3059 216.303 68.6736 227.059 68.5037Z" fill="#371A45"/>
<path d="M216.273 98.3914C216.543 84.6186 225.185 73.5463 235.649 73.7488C246.046 73.9514 254.351 85.2937 254.081 99.1341C253.811 112.907 245.101 123.912 234.704 123.709C224.239 123.507 216.003 112.232 216.273 98.3914Z" fill="white"/>
<path d="M235.656 73.4051C224.999 73.1989 216.204 84.4104 215.93 98.3839C215.657 112.383 224.01 123.844 234.698 124.051C245.319 124.258 254.151 113.07 254.424 99.14C254.696 85.1595 246.291 73.6123 235.656 73.4051ZM235.643 74.0909C245.851 74.2897 254.004 85.49 253.738 99.1266C253.472 112.713 244.906 123.564 234.711 123.365C224.449 123.167 216.349 112.052 216.616 98.3973C216.88 84.9034 225.244 74.1106 235.336 74.0882L235.643 74.0909Z" fill="#371A45"/>
<path d="M218.231 110.748C216.712 106.204 216.364 101.351 217.218 96.6371C221.539 106.562 231.328 109.937 239.768 104.131C245.449 99.8344 249.17 93.4381 250.097 86.375L250.84 88.3329C254.688 99.7428 250.502 113.988 241.523 120.2C232.476 126.411 222.079 122.157 218.231 110.748Z" fill="#371A45" fill-opacity="0.35"/>
<path d="M234.703 69.1363C222.919 69.3835 214.196 82.6955 214.496 98.4533C214.797 114.233 224.003 127.218 235.785 126.971C247.569 126.724 256.293 113.412 255.992 97.6539C255.693 81.9066 246.438 68.8884 234.703 69.1363ZM234.84 75.6602C242.317 75.5022 249.229 85.2256 249.468 97.7781C249.708 110.347 243.193 120.289 235.648 120.447C228.129 120.605 221.26 110.916 221.02 98.329C220.781 85.7599 227.295 75.8185 234.84 75.6602Z" fill="#371A45"/>
<path d="M152.675 37.7649C152.675 37.7649 112.301 41.3431 90.4942 64.838L90.4267 64.9055C85.844 69.8251 82.6721 75.889 81.2448 82.4591C79.7619 89.1478 79.1941 96.0069 79.557 102.848C80.1646 119.524 83.6078 127.221 83.6078 127.221C73.6473 119.506 67.6549 107.745 67.2694 95.1518L67.2019 90.8984L67.2694 89.8857C67.5395 86.9151 68.0796 83.0667 69.0248 78.8134C71.8604 65.8507 78.6793 48.8372 94.6801 40.3979C124.521 24.5996 153.957 35.942 152.675 37.7649ZM180.018 64.5004C186.297 62.475 193.251 66.7284 195.546 73.9524C197.909 81.1764 194.668 88.6704 188.39 90.6283C182.111 92.6537 175.157 88.4679 172.861 81.2439C170.498 74.0199 173.739 66.5258 180.018 64.5679V64.5004ZM189.402 96.1645C191.9 95.0842 194.938 96.5696 196.154 99.4727C197.369 102.308 196.356 105.549 193.858 106.629C191.36 107.642 188.322 106.224 187.107 103.253C185.891 100.418 186.904 97.1772 189.402 96.1645Z" fill="white" fill-opacity="0.7"/>
<path d="M156.996 242.535C156.996 242.535 156.996 242.738 156.793 243.008L156.996 242.535Z" fill="black" fill-opacity="0.35"/>
<path d="M128.505 216.205C128.505 216.205 132.555 235.649 131.543 238.755C130.53 241.86 122.091 258.199 119.39 253C116.69 247.801 108.183 238.485 111.221 229.033C114.259 219.581 115.002 215.53 117.5 216.205C120.065 216.88 128.505 216.205 128.505 216.205Z" fill="#CE2E2E"/>
<path d="M131.139 214.719L135.528 236.121L130.258 237.201L125.87 215.799L131.139 214.719ZM113.456 213.484L118.573 215.143L112.227 234.722L107.11 233.063L113.456 213.484Z" fill="#6B184E"/>
<path d="M140.049 241.455H26.2884L25.7482 239.7L25.4107 238.552L23.9254 233.826L16.2963 209.251L13.2582 199.327L3.67117 168.473C3.05128 166.472 3.41547 164.296 4.65303 162.606C5.8906 160.916 7.85533 159.911 9.94997 159.898H109.533C112.571 159.898 115.272 161.924 116.217 164.827L134.581 224.037L136.066 228.898L140.049 241.455Z" fill="#33AEF1"/>
<path d="M134.648 224.036C129.665 222.946 125.631 219.298 124.049 214.449L112.706 178.734C110.889 173.069 105.625 169.223 99.6761 169.214H30.9468C24.533 169.214 18.7268 165.569 15.9587 159.965H114.732L134.648 224.036Z" fill="white" fill-opacity="0.35"/>
<path d="M141.602 241.453V252.458H32.7023C29.1489 252.458 26.258 249.597 26.2209 246.044V241.453H141.602Z" fill="#F92323"/>
<path d="M142.615 241.454L196.694 215.056C198.652 214.111 200.947 215.528 200.947 217.689C200.947 218.837 200.407 219.849 199.394 220.389L141.602 252.526" fill="#848484"/>
<path d="M141.602 246.719V251.377H32.7023C29.7316 251.377 27.3011 249.419 26.491 246.719H141.602Z" fill="#371A45" fill-opacity="0.35"/>
<path d="M195.614 215.596L177.25 229.707L139.374 240.712L131.88 214.719L135.931 214.786L180.085 215.394L195.614 215.596Z" fill="#33AEF1"/>
<path d="M137.484 236.121L166.718 220.863H135.121L137.484 236.121Z" fill="white" fill-opacity="0.6"/>
<path d="M110.141 156.633H9.47749C6.47292 156.631 3.64418 158.056 1.85664 160.474C0.0690935 162.891 -0.465054 166.013 0.417257 168.887L23.8828 244.715H144.479L119.198 163.316C117.974 159.337 114.289 156.633 110.141 156.633ZM110.141 163.158L110.324 163.164C111.54 163.239 112.6 164.061 112.964 165.243L135.62 238.19H28.6939L6.65311 166.965C6.38067 166.078 6.54691 165.106 7.10325 164.354C7.6596 163.601 8.53999 163.158 9.47568 163.158H110.141Z" fill="#371A45"/>
<path d="M141.602 238.191V244.717L29.5504 244.717L29.5512 246.045C29.5512 247.725 30.8664 249.098 32.5236 249.191L32.7024 249.196H141.602V255.722H32.7024C27.4488 255.722 23.173 251.535 23.0296 246.316L23.0259 246.045V238.191H141.602Z" fill="#371A45"/>
<path d="M142.615 241.454L196.694 215.056C198.652 214.111 200.947 215.528 200.947 217.689C200.947 218.837 200.407 219.849 199.394 220.389L141.602 252.526" fill="#F92323"/>
<path d="M200.947 217.62V217.688C200.947 218.768 200.339 219.781 199.394 220.321L141.602 252.458L142.075 246.921L198.449 217.823C198.922 217.553 199.327 217.215 199.664 216.743C199.867 216.405 200.002 216 200.069 215.527C200.61 216.135 200.947 216.81 200.947 217.62Z" fill="#371A45" fill-opacity="0.35"/>
<path d="M197.301 211.457L197.301 211.531C200.822 211.137 204.21 213.853 204.21 217.69C204.21 219.954 203.099 222.006 201.195 223.122L143.188 255.379L141.564 252.459L137.732 252.46V241.455L142.615 241.455L141.184 238.523L183.264 217.982L131.88 217.982V211.457H197.301ZM188.919 222.483L144.257 244.284V247.317L188.919 222.483Z" fill="#371A45"/>
<path d="M85.7007 253.335C85.7007 253.335 74.5609 266.365 56.7372 265.487C26.0858 264.002 32.9047 240.777 39.3186 236.456C56.1295 225.182 73.7507 237.334 75.7086 242.33C79.2868 251.58 85.7007 253.335 85.7007 253.335Z" fill="white"/>
<path d="M85.7007 253.336C85.7007 253.336 74.5609 266.299 56.7372 265.489C38.3059 264.611 33.3773 255.834 33.8499 248.07C36.8881 252.526 43.0994 255.969 54.3742 256.51C65.649 257.05 74.2908 252.054 79.0843 248.273C82.325 252.391 85.7007 253.336 85.7007 253.336Z" fill="#371A45" fill-opacity="0.35"/>
<path d="M37.5013 233.75C32.6922 236.989 29.473 245.499 30.9309 252.687C32.8307 262.052 41.514 268.019 56.5793 268.749C63.7464 269.102 70.4163 267.449 76.4819 264.311C80.7274 262.114 84.23 259.442 86.9366 256.769L87.324 256.379L87.726 255.961L88.0307 255.629L88.1807 255.458L91.5229 251.549L86.5647 250.191L86.3861 250.122C86.1005 250.007 85.7656 249.846 85.3926 249.633C84.2627 248.987 83.109 248.053 82.0108 246.77C80.8283 245.389 79.7902 243.693 78.9435 241.637L78.7464 241.143C77.1999 237.196 71.0383 232.51 64.1164 230.2C55.2713 227.248 45.9285 228.098 37.5013 233.75ZM72.6657 243.51C73.8118 246.473 75.2994 248.965 77.0544 251.014L77.3994 251.408C78.2091 252.309 79.051 253.097 79.9111 253.778L80.2589 254.046L80.0336 254.237C74.065 259.241 66.192 262.689 56.8977 262.232C44.5711 261.634 38.5673 257.509 37.326 251.39C36.3794 246.723 38.5875 240.886 41.1415 239.165C47.7903 234.706 55.0325 234.047 62.0506 236.39C64.8693 237.33 67.4911 238.726 69.5856 240.319C70.4944 241.01 71.2618 241.709 71.8357 242.354C72.2514 242.82 72.5247 243.214 72.6388 243.451L72.6657 243.51Z" fill="#371A45"/>
<path d="M180.085 215.393C174.347 232.879 138.969 232.136 136.066 215.528L135.931 214.785L180.085 215.393Z" fill="#371A45" fill-opacity="0.35"/>
<path d="M205.065 197.167C205.065 197.167 189.402 182.246 171.714 182.246C153.485 182.246 132.826 192.036 135.999 210.197C139.104 227.818 178.803 227.615 180.76 206.619" fill="white"/>
<path d="M180.828 206.55C178.938 227.547 139.172 227.75 136.066 210.128C135.539 207.375 135.632 204.538 136.336 201.824C140.32 216.002 169.081 217.42 178.128 204.457C178.938 203.31 180.761 203.85 180.761 205.267V206.55H180.828Z" fill="#371A45" fill-opacity="0.35"/>
<path d="M171.714 178.98C180.14 178.98 188.594 181.97 196.72 186.917C199.527 188.626 202.098 190.455 204.383 192.287L204.654 192.506L205.406 193.123L206.061 193.677L206.617 194.162L207.071 194.572L207.316 194.801L202.815 199.526L202.314 199.07L202.201 198.97C202.02 198.811 201.829 198.646 201.628 198.474L200.994 197.942C200.773 197.759 200.542 197.571 200.301 197.378C198.224 195.713 195.88 194.045 193.326 192.49C186.135 188.112 178.765 185.506 171.714 185.506C162.886 185.506 153.901 187.931 147.646 192.119C141 196.568 137.967 202.5 139.212 209.628C140.314 215.882 148.565 220.079 158.664 219.627C168.959 219.166 176.595 214.16 177.481 206.608L177.512 206.313L184.009 206.919C182.934 218.45 172.282 225.549 158.956 226.146C145.973 226.727 134.578 220.931 132.785 210.755C131.061 200.89 135.354 192.496 144.015 186.697C151.41 181.747 161.656 178.98 171.714 178.98Z" fill="#371A45"/>
<path d="M194.803 347.856C187.456 344.897 179.395 344.192 171.646 345.83C170.363 346.033 169.148 346.438 167.933 346.708L166.11 347.248L164.22 347.788L164.017 347.856C162.802 348.126 161.586 347.383 161.316 346.235C161.046 345.155 161.586 344.075 162.599 343.67L164.625 342.792C166.633 341.953 168.745 341.385 170.903 341.104C176.677 340.364 182.544 341.06 187.984 343.13C190.617 344.21 193.115 345.56 195.343 347.383C195.478 347.518 195.478 347.721 195.411 347.856H194.803ZM136.809 339.889C132.033 338.195 127.021 337.26 121.956 337.121H120.133L118.31 337.256L116.487 337.458L115.609 337.593L114.732 337.796C112.369 338.134 110.141 339.011 107.845 339.686L107.643 339.754C106.428 340.091 105.212 339.416 104.875 338.269C104.537 337.188 105.077 336.108 106.022 335.636L107.913 334.69L108.858 334.285L109.871 333.948L111.896 333.34L113.989 333.003C122.252 332.255 130.505 334.534 137.214 339.416C137.349 339.551 137.349 339.754 137.281 339.889H136.809Z" fill="#371A45"/>
<path d="M199.335 189.73C207.169 201.465 209.163 213.756 205.831 224.116C202.854 233.376 195.819 239.886 188.063 240.495L187.715 240.518L187.444 235.637C193.14 235.32 198.733 230.221 201.177 222.619C203.995 213.858 202.349 203.306 195.594 192.939L195.268 192.445L199.335 189.73Z" fill="#371A45"/>
<path d="M73.5483 214.38L73.4133 214.448C68.3268 217.52 61.7361 216.202 58.2226 211.41C56.4216 208.863 55.7417 205.69 56.3412 202.629C56.9406 199.568 58.7672 196.886 61.3958 195.206L61.4633 195.139C63.0161 194.194 64.839 195.814 64.1639 197.502C63.0161 200.27 63.1511 203.578 64.9065 206.346C66.6619 209.114 69.565 210.667 72.6031 210.87C74.426 211.005 75.1011 213.435 73.5483 214.38Z" fill="white"/>
</g>
<defs>
<clipPath id="clip0_1_13591">
<rect width="256" height="376" fill="white"/>
</clipPath>
</defs>
</svg>
