<svg width="512" height="104" viewBox="0 0 512 104" fill="none" xmlns="http://www.w3.org/2000/svg">
<g clip-path="url(#clip0_1_13678)">
<path fill-rule="evenodd" clip-rule="evenodd" d="M157.267 0H16.0963C7.16235 0 -0.0698779 7.30311 0.000509458 16.1662V70.0534C0.000509458 78.9871 7.23326 86.2194 16.1672 86.2194H83.0297L113.59 103.236L106.641 86.2194H157.267C166.201 86.2194 173.433 78.9871 173.433 70.0534V16.1662C173.433 7.2322 166.201 0 157.267 0ZM13.1186 12.4791C11.1333 12.6209 9.64428 13.33 8.65163 14.6771C7.65899 15.9534 7.30448 17.5842 7.51717 19.4277C11.7005 46.017 15.6002 63.9556 19.2164 73.2441C20.6345 76.6473 22.2653 78.2785 24.1797 78.1366C27.1576 77.9237 30.7028 73.8114 34.8862 65.7992C37.0842 61.261 40.4877 54.4546 45.0964 45.3786C48.9251 58.7794 54.1719 68.8481 60.7663 75.5839C62.61 77.4982 64.5243 78.3491 66.3675 78.2073C67.9986 78.0655 69.2746 77.2146 70.1255 75.6546C70.8346 74.3075 71.1182 72.7475 70.9764 70.975C70.5509 64.5229 71.1894 55.518 72.9619 43.9606C74.8051 32.0487 77.0742 23.4693 79.8394 18.3642C80.4067 17.3006 80.6192 16.237 80.5485 14.9608C80.4067 13.3299 79.6976 11.9828 78.3506 10.9192C77.0035 9.85568 75.5142 9.35936 73.8835 9.50113C71.8273 9.64295 70.2673 10.6356 69.2039 12.6209C64.8079 20.6331 61.6879 33.6086 59.8447 51.6182C57.1501 44.8115 54.881 36.7993 53.1085 27.369C52.3287 23.1857 50.4144 21.2003 47.2944 21.4131C45.1673 21.5548 43.3947 22.9729 41.9766 25.6673L26.4486 55.2344C23.896 44.9532 21.4853 32.4032 19.2873 17.5842C18.791 13.8972 16.7347 12.1955 13.1186 12.4791ZM149.751 17.5844C154.785 18.648 158.543 21.3424 161.096 25.8093C163.365 29.6382 164.499 34.247 164.499 39.7775C164.499 47.0804 162.656 53.7455 158.968 59.8433C154.714 66.9338 149.184 70.4788 142.306 70.4788C141.101 70.4788 139.825 70.337 138.477 70.0534C133.443 68.99 129.685 66.2958 127.132 61.8288C124.864 57.9289 123.729 53.2494 123.729 47.7895C123.729 40.4865 125.573 33.8215 129.26 27.7947C133.585 20.7042 139.115 17.159 145.922 17.159C147.128 17.159 148.404 17.3008 149.751 17.5844ZM146.773 55.9435C149.397 53.6037 151.169 50.1293 152.162 45.4497C152.446 43.819 152.658 42.0464 152.658 40.2029C152.658 38.1467 152.233 35.9487 151.382 33.7506C150.318 30.9853 148.9 29.4964 147.198 29.1418C144.646 28.6455 142.164 30.0636 139.825 33.5379C137.91 36.2322 136.704 39.0684 136.067 41.9755C135.712 43.6063 135.57 45.3791 135.57 47.1516C135.57 49.2077 135.995 51.4057 136.846 53.6037C137.91 56.3689 139.328 57.8578 141.03 58.2126C142.802 58.5669 144.717 57.7871 146.773 55.9435ZM116.639 25.8093C114.086 21.3424 110.257 18.648 105.294 17.5844C103.946 17.3008 102.671 17.159 101.465 17.159C94.6584 17.159 89.1279 20.7042 84.8027 27.7947C81.1153 33.8215 79.2722 40.4865 79.2722 47.7895C79.2722 53.2494 80.4067 57.9289 82.6754 61.8288C85.2281 66.2958 88.9861 68.99 94.02 70.0534C95.3671 70.337 96.6435 70.4788 97.8491 70.4788C104.727 70.4788 110.257 66.9338 114.511 59.8433C118.199 53.7455 120.042 47.0804 120.042 39.7775C120.042 34.247 118.907 29.6382 116.639 25.8093ZM107.704 45.4497C106.712 50.1293 104.939 53.6037 102.316 55.9435C100.26 57.7871 98.3453 58.5669 96.5728 58.2126C94.8709 57.8578 93.4527 56.3689 92.3893 53.6037C91.5384 51.4057 91.1129 49.2077 91.1129 47.1516C91.1129 45.3791 91.2548 43.6063 91.6095 41.9755C92.2475 39.0684 93.4527 36.2322 95.3671 33.5379C97.7073 30.0636 100.189 28.6455 102.741 29.1418C104.443 29.4964 105.861 30.9853 106.925 33.7506C107.776 35.9487 108.201 38.1467 108.201 40.2029C108.201 42.0464 108.059 43.819 107.704 45.4497Z" fill="#7F54B3"/>
<path fill-rule="evenodd" clip-rule="evenodd" d="M191.372 25.1719C186.621 29.8516 184.281 35.8075 184.281 43.0398C184.281 50.7684 186.621 57.0787 191.301 61.8294C195.98 66.5801 202.078 68.9906 209.665 68.9906C211.863 68.9906 214.344 68.6363 217.039 67.856V56.3696C214.557 57.0787 212.43 57.4334 210.586 57.4334C206.828 57.4334 203.851 56.1571 201.582 53.6754C199.313 51.1227 198.178 47.7195 198.178 43.3943C198.178 39.3527 199.313 36.0202 201.511 33.4677C203.78 30.8442 206.545 29.568 209.949 29.568C212.146 29.568 214.486 29.9225 217.039 30.6315V19.145C214.699 18.5069 212.076 18.2233 209.31 18.2233C202.078 18.1523 196.122 20.4922 191.372 25.1719ZM240.579 18.1523C234.056 18.1523 228.951 20.3504 225.264 24.6755C221.577 29.0007 219.804 35.0985 219.804 42.8979C219.804 51.3357 221.647 57.7878 225.264 62.2548C228.88 66.7219 234.198 68.9906 241.147 68.9906C247.882 68.9906 253.058 66.7219 256.674 62.2548C260.29 57.7878 262.134 51.4775 262.134 43.3943C262.134 35.3112 260.29 29.0716 256.603 24.6755C252.845 20.3504 247.528 18.1523 240.579 18.1523ZM246.18 55.0225C244.904 57.008 242.99 58.0007 240.579 58.0007C238.31 58.0007 236.608 57.008 235.403 55.0225C234.198 53.037 233.631 49.0665 233.631 43.0398C233.631 33.7513 235.97 29.1425 240.721 29.1425C245.684 29.1425 248.237 33.8222 248.237 43.2525C248.166 49.0665 247.457 53.037 246.18 55.0225ZM297.161 19.4995L294.608 30.3479C293.97 33.1132 293.332 35.9493 292.765 38.8564L291.347 46.3724C289.999 38.8564 288.156 29.9225 285.816 19.4995H269.366L263.197 67.7854H275.535L278.867 34.5312L287.305 67.7854H296.097L304.18 34.6021L307.654 67.7854H320.559L314.036 19.4995H297.161ZM356.224 19.4995L353.671 30.3479C353.033 33.1132 352.395 35.9493 351.828 38.8564L350.41 46.3724C349.063 38.8564 347.219 29.9225 344.879 19.4995H328.429L322.261 67.7854H334.598L337.93 34.5312L346.368 67.7854H355.16L363.172 34.6021L366.647 67.7854H379.551L373.028 19.4995H356.224ZM396.355 48.7122H407.913V38.7146H396.355V29.8515H409.686V19.5704H383.309V67.856H409.757V57.5753H396.355V48.7122ZM446.485 41.0544C447.832 38.8564 448.541 36.5875 448.541 34.2476C448.541 29.7098 446.768 26.0936 443.223 23.4702C439.678 20.8467 434.786 19.4995 428.688 19.4995H413.514V67.7854H426.561V45.8051H426.774L437.338 67.7854H451.094L440.671 46.0177C443.152 44.8833 445.138 43.2524 446.485 41.0544ZM426.49 40.2745V28.788C429.61 28.8589 431.808 29.3552 433.155 30.3479C434.502 31.3406 435.14 32.9004 435.14 35.1694C435.14 38.5019 432.233 40.2036 426.49 40.2745ZM456.197 25.1719C451.448 29.8516 449.108 35.8075 449.108 43.0398C449.108 50.7684 451.448 57.0787 456.129 61.8294C460.809 66.5801 466.904 68.9906 474.493 68.9906C476.691 68.9906 479.173 68.6363 481.865 67.856V56.3696C479.386 57.0787 477.257 57.4334 475.413 57.4334C471.657 57.4334 468.68 56.1571 466.41 53.6754C464.14 51.1227 463.007 47.7195 463.007 43.3943C463.007 39.3527 464.14 36.0202 466.337 33.4677C468.607 30.8442 471.371 29.568 474.774 29.568C476.971 29.568 479.314 29.9225 481.865 30.6315V19.145C479.527 18.5069 476.904 18.2233 474.14 18.2233C466.976 18.1523 460.95 20.4922 456.197 25.1719ZM498.53 57.4334V48.6411H510.084V38.6437H498.53V29.7807H511.928V19.4995H485.553V67.7854H512V57.5041H498.53V57.4334Z" fill="black"/>
</g>
<defs>
<clipPath id="clip0_1_13678">
<rect width="512" height="104" fill="white"/>
</clipPath>
</defs>
</svg>
