<svg width="256" height="256" viewBox="0 0 256 256" fill="none" xmlns="http://www.w3.org/2000/svg">
<g clip-path="url(#clip0_1_13685)">
<path d="M16.9354 128C16.9354 172.012 42.5354 209.92 79.5569 227.938L26.5846 82.8062C20.2238 97.0239 16.9354 112.424 16.9354 128ZM128 239.065C140.898 239.065 153.305 236.8 164.923 232.763L164.135 231.286L129.969 137.748L96.6892 234.535C106.535 237.489 117.071 239.065 128 239.065ZM143.262 75.9138L183.434 195.348L194.56 158.326C199.286 142.966 202.929 131.938 202.929 122.388C202.929 108.603 198.006 99.1508 193.871 91.8646C188.16 82.6092 182.942 74.8308 182.942 65.7723C182.942 55.5323 190.622 46.08 201.649 46.08H203.028C182.563 27.2927 155.781 16.8891 128 16.9352C90.6335 16.9284 55.7726 35.7281 35.2492 66.9538L42.3385 67.1508C53.9569 67.1508 71.8769 65.6738 71.8769 65.6738C77.9815 65.3785 78.6708 74.1415 72.6646 74.8308C72.6646 74.8308 66.6585 75.6185 59.8646 75.9138L100.431 196.234L124.751 123.372L107.422 75.9138C103.54 75.6997 99.6654 75.3713 95.8031 74.9292C89.7969 74.5354 90.4862 65.3785 96.4923 65.6738C96.4923 65.6738 114.806 67.1508 125.735 67.1508C137.354 67.1508 155.274 65.6738 155.274 65.6738C161.28 65.3785 162.068 74.1415 156.062 74.8308C156.062 74.8308 150.055 75.52 143.262 75.9138ZM183.828 224C218.02 204.118 239.06 167.553 239.065 128C239.065 108.702 234.142 90.5846 225.477 74.7323C227.237 92.1726 224.596 109.776 217.797 125.932L183.828 224ZM128 256C57.3075 256 0 198.692 0 128C0 57.3075 57.3075 0 128 0C198.692 0 256 57.3075 256 128C256 198.692 198.692 256 128 256Z" fill="black"/>
</g>
<defs>
<clipPath id="clip0_1_13685">
<rect width="256" height="256" fill="white"/>
</clipPath>
</defs>
</svg>
