<svg width="256" height="273" viewBox="0 0 256 273" fill="none" xmlns="http://www.w3.org/2000/svg">
<g clip-path="url(#clip0_1_13701)">
<path d="M256 119.74C256 53.5628 202.337 0 136.26 0C117.938 0 100.017 3.60421 83.2976 10.8127C66.9785 17.7208 52.4615 27.5323 39.9467 40.047C27.4322 52.4615 17.6208 67.0785 10.7127 83.2976C3.60431 100.117 0 117.938 0 136.36C0 154.781 3.60431 172.602 10.7127 189.422C17.6208 205.641 27.4322 220.158 39.9467 232.673C52.4615 245.187 67.0785 254.999 83.2976 261.908C100.017 269.016 117.938 272.62 136.36 272.62C154.081 272.62 171.001 269.214 186.519 263.109L176.207 237.078C163.892 241.984 150.476 244.687 136.36 244.687C107.426 244.687 80.1941 233.373 59.7703 212.95C39.3462 192.526 28.0327 165.294 28.0327 136.36C28.0327 107.426 39.3462 80.1939 59.7703 59.77C80.2942 39.3462 107.426 28.0327 136.36 28.0327C187.019 28.0327 228.067 69.081 228.067 119.74C228.067 138.362 222.461 155.783 212.849 170.299L189.021 111.631C185.517 103.021 181.313 90.1056 165.494 90.1056C149.676 90.1056 145.471 103.121 142.067 111.631L120.141 165.794L90.7064 91.5073H59.7703L96.4129 181.813C100.117 190.924 104.222 203.338 120.141 203.338C136.06 203.338 140.064 190.924 143.768 181.813L165.494 128.15L187.32 181.813C191.725 192.926 196.43 203.338 210.947 203.338C221.259 203.338 227.767 196.73 231.371 192.425C246.789 172.302 256 147.072 256 119.74Z" fill="#4326C4"/>
</g>
<defs>
<clipPath id="clip0_1_13701">
<rect width="256" height="273" fill="white"/>
</clipPath>
</defs>
</svg>
