<svg width="256" height="256" viewBox="0 0 256 256" fill="none" xmlns="http://www.w3.org/2000/svg">
<g clip-path="url(#clip0_1_13697)">
<path d="M256 128C256 198.692 198.692 256 128 256C57.308 256 0 198.692 0 128C0 57.308 57.308 0 128 0C198.692 0 256 57.308 256 128Z" fill="#51BBD6"/>
<path d="M101.98 110.075V75.4128L157.796 94.1457L101.98 110.075ZM157.796 164.79L101.98 181.701V146.822L157.796 164.79ZM194.728 81.6948L101.98 48.6658V32.5938H76.3803V223.545H101.98V208.684L194.728 180.318V154.718L126.321 129.118L194.728 107.715V81.6948Z" fill="white"/>
</g>
<defs>
<clipPath id="clip0_1_13697">
<rect width="256" height="256" fill="white"/>
</clipPath>
</defs>
</svg>
