<svg width="512" height="101" viewBox="0 0 512 101" fill="none" xmlns="http://www.w3.org/2000/svg">
<g clip-path="url(#clip0_1_13704)">
<path d="M368.577 15.2266H358.658V70.0545H368.577V56.7737V15.2266ZM456.761 55.6521C455.805 59.6453 452.165 62.2476 447.478 62.2476C440.561 62.2476 436.785 56.998 436.785 49.9988C436.785 42.9995 440.471 37.75 447.341 37.75C452.028 37.75 455.942 40.6215 456.669 44.5698L466.088 42.1919C464.132 34.3401 456.397 29.3149 447.068 29.3149C434.419 29.3149 426.456 38.5127 426.456 49.9539C426.456 61.3951 434.419 70.5929 447.068 70.5929C456.579 70.5929 463.949 65.4332 466.18 57.9852L456.761 55.6521ZM502.49 56.6841C501.443 60.4978 498.122 62.5617 493.071 62.5617C486.792 62.5617 482.606 58.4339 481.877 52.0178H511.818C511.908 51.2102 512 50.0437 512 48.6976C512 39.1857 505.857 29.4046 492.252 29.4046C478.966 29.4046 472.368 39.3203 472.368 49.909C472.368 60.408 479.785 70.7275 493.071 70.7275C502.126 70.7275 509.179 66.2407 511.59 59.0619L502.49 56.6841ZM492.252 36.6732C498.122 36.6732 501.671 40.4869 502.08 45.557H482.105C483.151 39.5447 486.701 36.6732 492.252 36.6732ZM310.062 84.8159H319.891V65.6575C322.166 68.7533 326.488 70.6826 331.402 70.6826C343.324 70.6826 350.968 62.2476 350.968 50.0437C350.968 37.7948 343.779 29.4046 332.13 29.4046C326.716 29.4046 322.302 31.648 319.891 35.0579L318.025 30.0328H310.062V84.8159ZM330.265 62.2476C323.576 62.2476 319.208 57.4019 319.208 49.9988C319.208 42.5956 323.576 37.75 330.265 37.75C336.771 37.75 341.14 42.5956 341.14 49.9988C341.14 57.4019 336.771 62.2476 330.265 62.2476ZM396.697 70.6826C401.794 70.6826 406.435 68.529 408.391 65.3434L410.257 70.0096H418.266V29.988H410.257L408.391 34.5195C406.071 31.4237 401.612 29.3598 396.561 29.3598C384.458 29.3598 377.405 37.7948 377.405 49.9988C377.405 62.2476 384.458 70.6826 396.697 70.6826ZM398.108 62.2476C391.602 62.2476 387.233 57.4019 387.233 49.9988C387.233 42.5956 391.602 37.75 398.108 37.75C404.798 37.75 409.165 42.5956 409.165 49.9988C409.165 57.4019 404.751 62.2476 398.108 62.2476ZM138.701 66.8689L147.21 43.0892L155.582 66.7791C157.403 71.9838 164.865 72.0286 166.776 66.8689L180.381 29.988H170.553L161.088 57.8955L152.852 33.4427C151.032 28.0138 143.251 28.0138 141.432 33.4427L133.195 57.8955L123.822 29.988H113.948L127.736 66.9587C129.601 71.9838 136.881 71.939 138.701 66.8689ZM203.633 70.6378C215.964 70.6378 224.836 61.8886 224.836 49.9988C224.836 38.0641 215.964 29.3598 203.633 29.3598C191.211 29.3598 182.383 38.1089 182.383 49.9988C182.383 61.8886 191.211 70.6378 203.633 70.6378ZM203.633 62.2027C196.853 62.2027 192.348 57.1775 192.348 49.9539C192.348 42.7302 196.853 37.7052 203.633 37.7052C210.321 37.7052 214.826 42.7302 214.826 49.9539C214.826 57.2224 210.321 62.2027 203.633 62.2027ZM257.462 38.8717V29.5841C256.506 29.4496 255.505 29.4046 254.504 29.4046C249.089 29.4046 244.676 31.648 242.264 35.0579L240.399 30.0328H232.435V70.0545H242.264V50.0437C242.264 45.7364 243.447 42.147 246.405 40.0382C248.908 38.1987 252.548 37.5705 257.462 38.8717ZM274.661 15.2266H264.742V70.0545H274.661V56.7737V15.2266ZM302.326 29.988H290.86L280.121 44.2109C277.483 47.6657 277.573 52.4665 280.258 55.8764L291.543 70.0545H303.692L286.719 49.7296L302.326 29.988Z" fill="#4326C4"/>
<path d="M93.9398 43.939C93.9398 19.655 74.2481 0 50.0008 0C43.2776 0 36.7015 1.32257 30.5662 3.96773C24.5779 6.50267 19.2509 10.103 14.6585 14.6953C10.0663 19.2509 6.46598 24.6146 3.93103 30.5662C1.32261 36.7382 0 43.2777 0 50.0376C0 56.7973 1.32261 63.3368 3.93103 69.5088C6.46598 75.4604 10.0663 80.7875 14.6585 85.3798C19.2509 89.972 24.6146 93.5724 30.5662 96.1076C36.7015 98.7161 43.2777 100.038 50.0376 100.038C56.5403 100.038 62.7491 98.7888 68.4435 96.5483L64.6594 86.9963C60.1406 88.7964 55.2177 89.7884 50.0376 89.7884C39.4202 89.7884 29.4274 85.6369 21.9328 78.1423C14.4382 70.6477 10.2867 60.6549 10.2867 50.0376C10.2867 39.4202 14.4382 29.4273 21.9328 21.9327C29.4641 14.4382 39.4202 10.2867 50.0376 10.2867C68.6272 10.2867 83.6898 25.3494 83.6898 43.939C83.6898 50.7723 81.6325 57.1647 78.1056 62.4918L69.3619 40.9632C68.076 37.8037 66.5331 33.0645 60.7284 33.0645C54.9238 33.0645 53.3807 37.8404 52.1317 40.9632L44.086 60.8386L33.2849 33.5788H21.9328L35.3789 66.7167C36.7383 70.0599 38.2446 74.6155 44.086 74.6155C49.9273 74.6155 51.3969 70.0599 52.7562 66.7167L60.7284 47.025L68.7374 66.7167C70.3539 70.7947 72.0806 74.6155 77.4076 74.6155C81.1916 74.6155 83.5796 72.1907 84.9022 70.6109C90.5599 63.2266 93.9398 53.9685 93.9398 43.939Z" fill="#4326C4"/>
</g>
<defs>
<clipPath id="clip0_1_13704">
<rect width="512" height="101" fill="white"/>
</clipPath>
</defs>
</svg>
