<svg width="512" height="149" viewBox="0 0 512 149" fill="none" xmlns="http://www.w3.org/2000/svg">
<g clip-path="url(#clip0_1_13711)">
<path d="M142.656 0L139.074 70.2795L144.936 28.3359L174.901 32.2443L166.107 95.43C163.827 112.041 168.061 122.463 179.786 124.092C191.267 125.686 198.376 118.225 200.808 101.402L209.751 37.4555L235.992 41.201L233.852 15.9593L305.506 9.77099L307.461 34.5242L266.097 37.7812L267.725 58.3003L306.809 55.0433L308.33 73.8085C312.636 46.7304 332.7 26.7074 363.155 26.7074C381.035 26.7074 394.533 33.2399 403.611 43.4682C409.266 18.5884 428.783 0.651399 457.608 0.651399C493.761 0.651399 512 27.3588 512 57.3232C511.674 93.1501 490.178 115.949 455.654 115.949C438.424 115.949 425.006 109.459 415.887 99.1106C410.222 125.745 390.357 142.005 361.201 142.005C326.677 142.005 307.461 115.949 307.461 85.0076C307.461 83.0576 307.536 81.132 307.687 79.235L269.679 82.402L273.262 124.743L243.298 127.349L237.308 56.7239L230.921 102.921C226.036 137.12 206.494 151.776 175.552 147.542C153.787 144.5 140.598 133.89 136.711 114.987L104.55 121.16L88.2869 78.1257L87.0426 74.7512C86.8362 74.1841 86.6302 73.6142 86.4242 73.0411L85.187 69.5593L83.9387 65.974L82.0175 60.3465L77.8422 47.8779H77.5165L78.2757 63.162L78.5335 69.0699L78.6669 72.8342L78.7621 76.4775C78.7991 78.2716 78.8193 80.0263 78.8193 81.7506V126.371L46.5751 132.885L0 27.6845L31.5929 21.4962L45.9237 60.9059C47.2265 64.442 48.5293 68.1111 49.8169 71.8068L51.735 77.357L56.3558 90.8835L58.1044 95.9452C58.39 96.7644 58.6725 97.5703 58.9517 98.3613H59.2774C58.626 85.659 58.3003 71.9796 58.3003 57.9746L57.3232 16.9364L88.916 10.7481L103.898 51.7863C106.938 60.0373 109.544 67.7094 112.101 75.4779L114.657 83.3036C115.085 84.6216 115.515 85.9485 115.949 87.2875H116.275L115.437 70.6484L114.321 47.8779L113.018 5.8626L142.656 0ZM362.504 50.1578C348.109 50.1578 339.684 64.2955 339.387 83.0055L339.379 84.0305C339.059 103.87 347.856 117.736 361.754 118.216L362.83 118.229C377.16 118.229 385.629 104.224 385.629 84.0305C385.629 64.8142 377.16 50.1578 362.504 50.1578ZM456.957 24.1018C442.562 24.1018 434.136 38.2395 433.84 57.2581L433.832 58.3003C433.506 78.4936 442.626 92.4987 456.957 92.4987L457.282 92.173C471.613 92.173 480.081 78.1679 480.081 57.9746C480.081 38.7583 471.613 24.1018 456.957 24.1018Z" fill="#E66760"/>
</g>
<defs>
<clipPath id="clip0_1_13711">
<rect width="512" height="149" fill="white"/>
</clipPath>
</defs>
</svg>
