<svg width="256" height="258" viewBox="0 0 256 258" fill="none" xmlns="http://www.w3.org/2000/svg">
<g clip-path="url(#clip0_1_13717)">
<path fill-rule="evenodd" clip-rule="evenodd" d="M127.929 0.00180989C161.156 0.00180989 194.384 0.00180989 227.611 0C231.78 0 235.912 0.361977 239.912 1.58184C248.587 4.22608 253.18 10.4467 254.98 19.0201C255.695 22.4191 255.898 25.885 255.905 29.3491C255.958 52.6206 255.997 75.8922 255.999 99.1637C256.001 141.548 256.006 183.931 255.919 226.315C255.907 232.248 255.591 238.246 252.662 243.651C249.413 249.645 244.965 254.389 238.212 256.475C236.992 256.852 235.718 257.281 234.467 257.281C231.585 257.283 228.78 257.997 225.907 257.997C160.84 257.992 95.7736 258.03 30.7069 257.927C25.4154 257.918 20.0368 257.532 15.0099 255.379C14.0093 254.95 12.9996 254.589 12.1203 253.92C5.71937 249.042 1.3741 242.959 0.442322 234.728C0.106955 231.76 0 228.808 0 225.839C0.0108768 159.887 0.0163152 93.9349 0.0507583 27.9827C0.052571 24.1566 0.0924525 20.2653 1.26896 16.6039C4.40328 6.84499 11.2611 1.51849 21.4272 0.436183C23.7893 0.184608 26.1731 0.0217186 28.5461 0.0199087C61.6731 -0.00723954 94.8019 0.00180989 127.929 0.00180989Z" fill="#FB7A24"/>
<path fill-rule="evenodd" clip-rule="evenodd" d="M128.775 164.112C128.048 168.566 127.537 172.591 125.937 176.301C118.446 193.685 105.681 204.278 86.5435 206.387C63.9217 208.879 43.0284 194.918 36.7462 173.233C34.4694 165.375 34.6975 157.364 35.5228 149.367C36.4042 140.82 38.9217 132.716 42.8528 125.071C43.4157 123.977 43.4048 123.152 42.7008 122.093C36.6648 113.015 34.3228 102.986 35.1735 92.1614C35.6277 86.3752 37.0322 80.8406 39.6565 75.6571C47.3449 60.4721 64.2258 47.5857 86.8349 49.725C106.715 51.6055 125.128 68.7541 128.003 88.0403C128.147 89.0086 128.419 89.9588 128.737 91.3868C129.213 88.8005 129.557 86.6666 130.002 84.5527C133.705 67.0311 150.856 48.697 175.166 48.4707C199.806 48.2427 218.053 67.5669 221.496 85.5155C222.951 93.1007 222.698 100.679 221.498 108.253C220.298 115.82 218.075 123.094 214.826 130.028C214.11 131.557 214.184 132.658 215.102 134.078C220.408 142.303 222.75 151.33 222.45 161.134C221.822 181.592 207.353 199.937 187.448 204.735C159.657 211.431 138.355 194.811 131.186 174.703C130.017 171.431 129.463 168.014 128.775 164.112ZM179.264 128.171C179.561 127.014 180.457 126.321 181.101 125.465C188.069 116.206 191.734 105.862 190.916 94.2156C190.321 85.7146 183.329 79.7275 174.866 80.0442C166.397 80.361 160.016 86.8928 159.896 95.3667C159.887 96.0599 159.929 96.7549 159.886 97.4445C159.303 106.476 154.32 111.422 146.769 111.974C145.39 112.076 144.007 112.199 142.626 112.202C132.826 112.224 123.027 112.22 113.227 112.211C108.946 112.208 104.702 112.673 100.626 113.931C81.5989 119.802 70.5043 132.813 66.8302 152.206C66.1026 156.043 65.4474 160.025 66.7053 163.967C68.5098 169.619 71.8743 173.824 77.8307 175.23C84.0042 176.687 89.3814 175.074 93.6527 170.225C96.4146 167.091 97.2851 163.366 97.4915 159.277C98.0254 148.762 103.752 143.506 113.301 143.586C127.95 143.707 142.601 143.611 157.252 143.622C159.853 143.624 159.876 143.658 159.889 146.23C159.914 150.981 159.768 155.737 159.951 160.483C160.249 168.229 167.065 174.669 174.967 174.895C183.115 175.128 190.378 169.102 190.909 161.234C191.367 154.425 191.338 147.573 190.891 140.759C190.545 135.483 187.691 131.724 182.855 129.541C181.695 129.02 180.475 128.629 179.264 128.171ZM87.4321 112.188C90.5831 112.188 93.155 112.159 95.725 112.2C96.9992 112.22 97.4716 111.672 97.4607 110.423C97.4191 105.48 97.6743 100.521 97.3593 95.5966C96.9431 89.0991 93.488 84.4024 87.4394 82.0333C81.2369 79.6044 75.5611 80.9908 70.7613 85.5716C65.9397 90.1742 65.2972 95.8029 66.984 101.964C68.5333 107.625 72.1947 110.841 77.9519 111.813C81.2966 112.376 84.6594 112.106 87.4321 112.188Z" fill="white"/>
</g>
<defs>
<clipPath id="clip0_1_13717">
<rect width="256" height="258" fill="white"/>
</clipPath>
</defs>
</svg>
