<svg width="512" height="156" viewBox="0 0 512 156" fill="none" xmlns="http://www.w3.org/2000/svg">
<g clip-path="url(#clip0_1_13722)">
<path d="M296.358 126.998C301.578 125.793 305.192 122.58 307.602 117.36C308.806 114.549 309.61 110.935 310.413 106.116C311.216 101.297 311.216 97.2816 311.216 93.6674V89.2502H287.122C287.122 91.258 287.122 92.8643 287.122 94.8721C287.122 96.4784 287.122 98.4863 287.122 100.093C287.122 102.502 286.72 104.911 286.319 107.321C285.917 109.73 283.909 110.935 280.697 110.935C277.484 110.935 275.476 109.73 275.075 107.321C274.673 104.911 274.271 102.502 274.271 100.093C274.271 92.4627 274.271 84.4314 273.87 76.4C273.87 68.3686 273.87 60.7388 274.271 52.7074C274.271 46.6839 276.279 43.8729 280.295 43.8729C284.311 43.8729 286.319 46.6839 286.319 52.7074C286.319 54.3137 286.319 56.3215 286.319 57.9278C286.319 59.5341 286.319 61.5419 286.319 63.1482H310.011C309.61 59.5341 309.208 55.92 308.806 51.5027C308.405 47.0855 307.602 43.8729 306.799 41.4635C304.791 35.44 301.177 31.4243 295.956 29.4164C290.736 27.8102 285.515 26.6055 279.893 26.6055C274.271 26.6055 268.65 27.4086 263.831 29.4164C258.61 31.0227 254.996 35.0384 252.988 41.4635C251.784 44.2745 250.981 48.2902 250.177 53.109C249.374 57.9278 248.973 62.3451 248.973 67.5655V90.4549C248.973 95.6753 249.374 100.494 250.177 105.714C250.981 110.935 252.185 114.549 253.39 117.36C255.799 122.58 259.413 125.793 264.634 126.596C269.854 127.801 274.673 128.202 279.893 128.202C286.319 128.604 291.137 128.202 296.358 126.998Z" fill="black"/>
<path d="M342.94 88.8478L348.561 43.8721H348.963L354.585 88.8478H342.94ZM356.994 106.918L359.805 127.8H383.9L366.632 28.2109H331.294L314.027 127.398H338.121L340.932 106.517H356.994V106.918Z" fill="black"/>
<path d="M389.12 127.399H412.813V90.4548H416.828C420.844 90.4548 423.253 91.258 424.458 92.8643C425.663 94.4705 426.064 96.88 426.064 99.6909V127.399H450.158V104.51C450.158 98.4862 448.954 93.2658 446.143 89.2501C443.332 85.2345 439.316 82.825 434.096 81.6203V81.2188C439.316 80.4156 442.93 78.4078 445.34 75.1952C447.347 72.7858 448.552 69.5733 448.954 66.3607C449.355 62.7466 449.355 59.5341 449.355 56.3215C449.355 51.9043 448.954 47.8886 448.552 43.8729C448.151 39.8572 446.143 36.2431 442.529 33.8337C439.316 31.4243 435.3 29.818 430.482 29.4164C426.064 29.0148 421.647 28.6133 417.631 28.6133H387.915V127.399H389.12ZM412.813 45.8807H418.435C421.647 45.8807 423.655 46.6839 424.86 47.8886C426.064 49.0933 426.466 51.5027 426.466 54.3137C426.466 55.9199 426.466 57.1247 426.466 58.3294C426.466 59.5341 426.466 60.7388 426.466 61.9435C426.466 64.3529 426.064 66.3607 425.663 67.967C425.261 69.5733 424.056 70.778 422.852 71.5811C421.647 72.3843 420.041 72.7858 417.23 72.7858H412.813V45.8807Z" fill="black"/>
<path d="M455.379 47.4862H471.442V127.398H495.134V47.4862H511.197V28.2109H454.977V47.4862H455.379Z" fill="black"/>
<path d="M213.635 64.3521L205.603 28.2109H181.108L195.966 75.596L179.903 127.8H204.8L212.831 88.8478H213.233L221.666 127.8H246.563L230.5 75.9976L245.359 28.6125H220.863L213.635 64.3521Z" fill="#F29221"/>
<path d="M20.8547 0H134.753C145.983 0 155.608 9.22418 155.608 20.8547V134.753C155.608 145.983 146.384 155.608 134.753 155.608H20.8547C9.62523 155.608 0 146.384 0 134.753V20.8547C0.401051 9.22418 9.62523 0 20.8547 0Z" fill="#F29221"/>
<path d="M122.077 77.5014C119.667 79.9108 115.25 84.3281 111.234 88.3438C114.849 91.9579 119.667 96.7767 121.675 98.7846C122.478 99.5877 123.281 101.194 123.281 102.399C123.281 108.021 123.281 115.65 123.281 121.272C123.281 123.28 122.88 123.682 120.872 123.682C113.644 123.682 113.644 123.682 112.038 123.682C112.038 120.068 112.038 114.847 112.038 109.225C112.038 107.217 111.636 106.414 110.431 105.21C108.423 103.202 102.801 97.5798 100.794 95.572C99.5889 94.3673 97.9826 93.9657 96.7779 93.9657C89.5497 93.9657 70.2744 93.9657 65.054 93.9657C63.4477 93.9657 61.8415 94.3673 61.0383 95.572C59.0305 97.5798 53.4085 103.202 51.4007 105.21C50.196 106.414 49.7944 107.217 49.7944 109.225C49.7944 113.643 49.7944 116.855 49.7944 120.871C49.7944 122.879 49.3928 123.682 46.9834 123.682C45.7787 123.682 45.3772 123.682 38.1489 123.682C38.1489 119.265 38.1489 109.225 38.1489 102.399C38.1489 101.194 38.9521 99.5877 39.7552 98.7846C42.1646 96.3751 46.5819 91.9579 50.5976 87.9422C46.9834 84.3281 42.1646 79.5093 40.1568 77.5014C39.3536 76.6983 38.5505 75.092 38.5505 73.8873C38.5505 67.0606 38.5505 40.1555 38.5505 35.7383C48.9913 35.7383 48.1881 35.7383 50.196 35.7383C50.196 39.3524 50.196 61.4387 50.196 67.0606C50.196 69.0685 50.5976 69.8716 51.8023 71.0763C53.8101 73.0842 59.4321 78.7061 61.4399 80.714C62.6446 81.9187 64.2509 82.3202 65.4556 82.3202C72.2823 82.3202 91.9591 82.3202 97.1795 82.3202C98.7858 82.3202 100.392 81.9187 101.195 80.714C103.203 78.7061 108.825 73.0842 110.833 71.0763C112.038 69.8716 112.439 69.0685 112.439 67.0606C112.439 61.8402 112.439 39.3524 112.439 35.7383C114.045 35.7383 113.644 35.7383 124.085 35.7383C124.085 40.1555 124.085 67.0606 124.085 73.8873C123.683 75.4936 122.88 76.6983 122.077 77.5014Z" fill="white"/>
<path d="M61.8416 57.8242H70.2745V66.2572H61.8416V57.8242Z" fill="white"/>
<path d="M93.1638 57.8242H101.597V66.2572H93.1638V57.8242Z" fill="white"/>
<path d="M61.8416 42.1641H70.2745V50.597H61.8416V42.1641Z" fill="white"/>
<path d="M93.1638 42.1641H101.597V50.597H93.1638V42.1641Z" fill="white"/>
<path d="M77.5027 57.8242H85.9356V66.2572H77.5027V57.8242Z" fill="white"/>
<path d="M77.5027 42.1641H85.9356V50.597H77.5027V42.1641Z" fill="white"/>
<path d="M50.196 132.114C46.5819 132.114 43.3693 129.303 42.5662 126.091H48.9913C50.5975 126.091 52.2038 124.484 52.2038 122.878V116.453C55.8179 117.256 58.2273 120.469 58.2273 124.083C58.2273 128.5 54.6132 132.114 50.196 132.114Z" fill="#B14C26"/>
<path d="M124.085 132.114C120.471 132.114 117.258 129.705 116.455 126.091H122.88C124.486 126.091 126.092 124.484 126.092 122.878V116.453C129.707 117.256 132.116 120.469 132.116 124.083C132.116 128.5 128.502 132.114 124.085 132.114Z" fill="#B14C26"/>
</g>
<defs>
<clipPath id="clip0_1_13722">
<rect width="512" height="156" fill="white"/>
</clipPath>
</defs>
</svg>
