<svg width="512" height="209" viewBox="0 0 512 209" fill="none" xmlns="http://www.w3.org/2000/svg">
<g clip-path="url(#clip0_1_13743)">
<path opacity="0.5" d="M98.0921 104.309L49.0814 116.561L24.5407 208.368L98.0921 104.309Z" fill="#31B34B"/>
<path opacity="0.8" d="M98.0921 104.305L0 129.023V67.4414H73.5514L98.2687 104.27L98.0921 104.305Z" fill="#31B34B"/>
<path d="M0 67.4428V128.883L73.5514 0L0 67.4428Z" fill="#31B34B"/>
<path d="M153.07 55.0469L175.598 87.3205L198.126 55.0469H220.372L187.569 102.045L223.409 153.316H200.739L175.704 118.217L150.987 153.316H128.883L164.193 102.928L131.143 55.0469H153.07ZM298.902 153.316L281.988 124.361C280.812 124.432 279.633 124.432 278.457 124.361H256.494V153.316H237.639V55.0469H278.457C303.775 55.0469 318.217 67.2289 318.217 88.8742C318.217 104.34 311.367 115.392 298.761 120.653L320.3 153.316H298.902ZM256.53 107.73H278.599C292.723 107.73 300.42 101.727 300.42 89.3685C300.42 77.0099 292.582 71.3956 278.599 71.3956H256.494V107.765L256.53 107.73ZM405.469 132.447H357.517L348.831 153.316H329.446L372.524 55.0469H391.945L434.388 153.316H414.226L405.469 132.447ZM398.76 116.275L381.67 74.8207L364.014 116.169L398.76 116.275ZM476.442 120.936V153.316H457.693V121.854L421.111 55.0469H440.143L466.838 101.233L493.144 55.0469H512L476.442 120.936Z" fill="black"/>
</g>
<defs>
<clipPath id="clip0_1_13743">
<rect width="512" height="209" fill="white"/>
</clipPath>
</defs>
</svg>
