<svg width="256" height="256" viewBox="0 0 256 256" fill="none" xmlns="http://www.w3.org/2000/svg">
<g clip-path="url(#clip0_1_13756)">
<path d="M127.612 0C132.386 0 136.278 3.78023 136.456 8.51077L136.462 8.85024V48.5181C136.462 53.4059 132.5 57.3683 127.612 57.3683C122.838 57.3683 118.947 53.5881 118.768 48.8576L118.762 48.5181V8.85024C118.762 3.96239 122.724 0 127.612 0Z" fill="#70B700"/>
<path d="M247.143 117.992C252.031 117.992 255.994 121.955 255.994 126.842C255.994 131.598 252.243 135.478 247.538 135.684L247.143 135.693H207.476C202.588 135.693 198.625 131.73 198.625 126.842C198.625 122.087 202.376 118.207 207.081 118.001L207.476 117.992H247.143Z" fill="#FF7700"/>
<path d="M136.462 246.374C136.462 251.261 132.5 255.224 127.612 255.224C122.856 255.224 118.977 251.473 118.77 246.768L118.762 246.374V206.706C118.762 201.818 122.724 197.855 127.612 197.855C132.368 197.855 136.247 201.607 136.454 206.311L136.462 206.706V246.374Z" fill="#FF0000"/>
<path d="M8.85024 135.693C3.96239 135.693 0 131.73 0 126.842C0 122.087 3.7511 118.207 8.45601 118.001L8.85024 117.992H48.5181C53.4059 117.992 57.3683 121.955 57.3683 126.842C57.3683 131.598 53.6172 135.478 48.9123 135.684L48.5181 135.693H8.85024Z" fill="#0087CB"/>
<path d="M224.319 17.1024C230.599 22.5989 231.337 32.0724 226.064 38.4693L225.764 38.8215L148.057 127.613L225.764 216.404C231.363 222.801 230.715 232.525 224.319 238.123C218.038 243.62 208.55 243.096 202.909 237.021L202.599 236.677L127.603 150.984L52.6076 236.677C47.0093 243.074 37.2853 243.721 30.8885 238.123C24.608 232.627 23.8698 223.153 29.1434 216.756L29.4426 216.404L107.149 127.613L29.4426 38.8215C23.8443 32.4247 24.4917 22.7007 30.8885 17.1024C37.169 11.6059 46.6568 12.13 52.2982 18.2051L52.6076 18.5483L127.603 104.241L202.599 18.5483C208.198 12.1515 217.922 11.5041 224.319 17.1024Z" fill="#505052"/>
</g>
<defs>
<clipPath id="clip0_1_13756">
<rect width="256" height="256" fill="white"/>
</clipPath>
</defs>
</svg>
