<svg width="512" height="172" viewBox="0 0 512 172" fill="none" xmlns="http://www.w3.org/2000/svg">
<g clip-path="url(#clip0_1_13763)">
<path d="M85.9825 0C89.1993 0 91.8211 2.54705 91.9413 5.73439L91.9456 5.96312V32.6906C91.9456 35.9839 89.2759 38.6537 85.9825 38.6537C82.7658 38.6537 80.1439 36.1066 80.0237 32.9193L80.0194 32.6906V5.96312C80.0194 2.66978 82.6892 0 85.9825 0Z" fill="#70B700"/>
<path d="M166.521 79.5C169.814 79.5 172.484 82.1698 172.484 85.4631C172.484 88.6675 169.956 91.2815 166.786 91.4204L166.521 91.4262H139.793C136.5 91.4262 133.83 88.7565 133.83 85.4631C133.83 82.2588 136.358 79.6448 139.528 79.5058L139.793 79.5H166.521Z" fill="#FF7700"/>
<path d="M91.9456 166.003C91.9456 169.296 89.2759 171.966 85.9825 171.966C82.7782 171.966 80.1642 169.439 80.0252 166.269L80.0194 166.003V139.276C80.0194 135.982 82.6892 133.312 85.9825 133.312C89.1869 133.312 91.8009 135.84 91.9398 139.01L91.9456 139.276V166.003Z" fill="#FF0000"/>
<path d="M5.96312 91.4262C2.66978 91.4262 0 88.7565 0 85.4631C0 82.2588 2.52742 79.6448 5.6975 79.5058L5.96312 79.5H32.6906C35.9839 79.5 38.6537 82.1698 38.6537 85.4631C38.6537 88.6675 36.1263 91.2815 32.9562 91.4204L32.6906 91.4262H5.96312Z" fill="#0087CB"/>
<path d="M151.142 11.5238C155.373 15.2272 155.871 21.6103 152.317 25.9204L152.116 26.1577L99.7571 85.983L152.116 145.809C155.888 150.119 155.452 156.671 151.142 160.443C146.91 164.147 140.517 163.794 136.716 159.7L136.508 159.469L85.9761 101.73L35.446 159.469C31.6739 163.779 25.1221 164.215 20.8121 160.443C16.5804 156.74 16.083 150.357 19.6363 146.047L19.8378 145.809L72.1951 85.983L19.8378 26.1577C16.0658 21.8476 16.502 15.2958 20.8121 11.5238C25.0437 7.82032 31.4364 8.17343 35.2375 12.2667L35.446 12.498L85.9761 70.236L136.508 12.498C140.28 8.1879 146.831 7.75173 151.142 11.5238Z" fill="#505052"/>
<path d="M333.94 9.98517C337.795 10.7265 340.347 14.3906 339.741 18.2391L339.698 18.4849L313.21 156.219C311.824 163.428 301.889 164.225 299.31 157.468L299.221 157.223L258.403 39.3071L217.587 157.223C215.186 164.16 205.239 163.53 203.651 156.474L203.598 156.219L177.111 18.4849C176.354 14.5478 178.931 10.7423 182.869 9.98517C186.724 9.2438 190.453 11.7 191.317 15.4988L191.368 15.7431L212.735 126.853L251.544 14.7394C253.769 8.31312 262.765 8.22744 265.17 14.4823L265.264 14.7394L304.073 126.853L325.44 15.7431C326.197 11.8059 330.003 9.22803 333.94 9.98517ZM361.705 9.64453C365.631 9.64453 368.829 12.7607 368.96 16.6544L368.964 16.904V154.638C368.964 158.648 365.714 161.898 361.705 161.898C357.779 161.898 354.581 158.782 354.45 154.888L354.446 154.638V16.904C354.446 12.8947 357.696 9.64453 361.705 9.64453ZM396.139 9.64453C400.064 9.64453 403.262 12.7607 403.394 16.6544L403.398 16.904V78.8396L470.468 11.7708C473.303 8.93578 477.899 8.93578 480.734 11.7708C483.505 14.5413 483.567 18.9942 480.923 21.8412L480.734 22.0372L417 85.7717L480.734 149.505C483.505 152.276 483.567 156.729 480.923 159.576L480.734 159.772C477.963 162.542 473.511 162.605 470.664 159.96L470.468 159.772L403.398 92.702V154.638C403.398 158.648 400.148 161.898 396.139 161.898C392.213 161.898 389.015 158.782 388.883 154.888L388.879 154.638V16.904C388.879 12.8947 392.129 9.64453 396.139 9.64453ZM504.737 9.64453C508.663 9.64453 511.861 12.7607 511.992 16.6544L511.996 16.904V154.638C511.996 158.648 508.746 161.898 504.737 161.898C500.811 161.898 497.613 158.782 497.482 154.888L497.477 154.638V16.904C497.477 12.8947 500.728 9.64453 504.737 9.64453Z" fill="#FF7700"/>
</g>
<defs>
<clipPath id="clip0_1_13763">
<rect width="512" height="172" fill="white"/>
</clipPath>
</defs>
</svg>
