<svg width="512" height="176" viewBox="0 0 512 176" fill="none" xmlns="http://www.w3.org/2000/svg">
<g clip-path="url(#clip0_1_13774)">
<path d="M117.109 0.804688H414.159V29.7069L510.5 174.218H1.5L117.109 0.804688Z" fill="white"/>
<path d="M414.962 0H116.679L0 175.019H512L414.962 29.461V0ZM413.356 1.60568V29.9481L508.999 173.413H2.99982L117.538 1.60568H413.356Z" fill="black"/>
<path d="M117.109 0.804688H155.645L40.0363 174.218H1.5L59.3044 87.5113L1.5 0.804688H40.0363L78.5725 58.6091L117.109 0.804688Z" fill="black" stroke="black"/>
<path d="M49.6704 174.218H88.2067L165.279 58.6091V174.218H203.815V0.804688H165.279L49.6704 174.218Z" fill="black" stroke="black"/>
<path d="M211.844 174.218H250.38V58.6091L288.916 116.413L327.453 58.6091V174.218H365.989V0.804688H317.818L288.916 58.6091L250.38 0.804688H211.844V174.218Z" fill="black" stroke="black"/>
<path d="M375.623 174.218H510.5L484.809 135.682H414.159V0.804688H375.623V174.218Z" fill="black" stroke="black"/>
</g>
<defs>
<clipPath id="clip0_1_13774">
<rect width="512" height="176" fill="white"/>
</clipPath>
</defs>
</svg>
