<svg width="512" height="201" viewBox="0 0 512 201" fill="none" xmlns="http://www.w3.org/2000/svg">
<g clip-path="url(#clip0_1_13785)">
<path d="M83.1453 0H56.2637C29.3821 0 6.25149 20.0049 6.25149 58.7643C6.25149 81.895 17.5042 99.3993 36.884 108.151L0.625112 173.167C-0.625193 175.043 0.625112 176.918 2.50057 176.918H19.3797C20.63 176.918 21.8803 176.293 22.5055 175.043L55.6385 111.277H67.5164V175.043C67.5164 175.668 68.1416 176.918 69.3919 176.918H84.3956C85.6459 176.918 86.271 176.293 86.271 175.043V2.50061C85.6459 0.625153 85.0207 0 83.1453 0ZM67.5164 96.2735H57.514C14.3785 96.2735 17.5042 15.0037 55.6385 15.0037H68.1416V96.2735H67.5164Z" fill="#FF0000"/>
<path d="M173.167 58.7629H158.163C156.913 58.7629 156.288 59.3881 156.288 60.6384V105.649H128.781V60.6384C128.781 59.3881 128.156 58.7629 126.906 58.7629H112.527C111.277 58.7629 110.652 59.3881 110.652 60.6384V175.041C110.652 176.292 111.277 176.917 112.527 176.917H127.531C128.781 176.917 129.406 176.292 129.406 175.041V120.028H156.913V175.041C156.913 176.292 157.538 176.917 158.789 176.917H173.792C175.043 176.917 175.668 176.292 175.668 175.041V60.6384C175.043 59.3881 174.417 58.7629 173.167 58.7629ZM510.75 161.288C510.75 160.663 510.124 160.663 509.499 160.663C503.248 160.663 465.113 178.792 465.113 118.778C465.113 92.5212 475.116 55.6372 498.872 77.5175C499.497 78.1427 500.122 78.1427 500.747 78.1427C501.372 78.1427 501.997 77.5175 502.623 76.2672L508.874 65.6396C509.499 65.0144 509.499 64.3893 509.499 63.7641C509.499 62.5138 508.249 61.8887 506.999 61.2635C465.739 40.6335 444.483 78.7678 444.483 123.154C444.483 180.668 486.369 188.795 510.124 171.29C511.375 170.665 511.375 169.415 511.375 168.79L510.75 161.288ZM408.225 111.901L436.982 60.0132C437.607 59.3881 436.982 58.1378 436.356 58.1378H421.978C417.602 58.1378 416.352 59.3881 415.101 62.5138C413.851 65.6396 392.596 110.025 390.095 111.901V60.0132C390.095 59.3881 389.47 58.1378 388.845 58.1378H373.216C372.591 58.1378 371.966 58.7629 371.966 60.0132V175.041C371.966 175.666 372.591 176.917 373.216 176.917H388.845C390.095 176.917 390.095 176.292 390.095 175.041V115.652C391.971 116.902 418.227 171.29 418.852 173.166C420.102 175.666 422.603 176.917 425.729 176.917H441.358C442.608 176.917 442.608 176.292 441.983 175.041L408.225 111.901ZM271.316 161.913H268.19C264.439 161.913 263.814 160.663 263.814 157.537V60.0132C263.814 58.7629 263.189 58.1378 262.564 58.1378H214.427C213.177 58.1378 212.552 58.7629 212.552 60.0132C212.552 86.2696 213.177 130.03 195.673 161.913H190.671C189.421 161.913 188.796 162.538 188.796 163.789V198.172C188.796 199.422 190.046 200.047 190.671 200.047H201.924C204.425 200.047 205.675 198.172 205.675 196.296V176.917H256.312V198.172C256.312 198.797 256.938 200.047 258.188 200.047H270.691C271.941 200.047 273.817 198.797 273.817 196.296V163.789C273.192 162.538 272.566 161.913 271.316 161.913ZM245.06 161.913H210.051C220.054 145.659 229.431 119.403 229.431 73.1414H245.06V161.913ZM320.078 55.6372C294.447 55.6372 282.569 87.5199 282.569 122.528C282.569 180.043 322.579 188.795 350.085 171.916C351.336 171.29 351.336 170.665 351.336 170.04L349.46 161.913C349.46 161.288 348.835 160.663 347.585 160.663C337.582 160.663 302.574 178.167 302.574 121.278C315.077 122.528 315.077 122.528 352.586 122.528C351.961 93.7715 348.835 55.6372 320.078 55.6372ZM303.199 108.15C303.199 62.5138 333.206 53.7617 333.206 106.9C320.078 106.9 314.452 106.9 303.199 108.15Z" fill="black"/>
</g>
<defs>
<clipPath id="clip0_1_13785">
<rect width="512" height="201" fill="white"/>
</clipPath>
</defs>
</svg>
