<svg width="256" height="256" viewBox="0 0 256 256" fill="none" xmlns="http://www.w3.org/2000/svg">
<g clip-path="url(#clip0_1_13793)">
<path d="M256 0H0V256H256V0Z" fill="#FB651E"/>
<path d="M119.374 144.744L75.433 62.4297H95.5144L121.362 114.522C121.76 115.45 122.223 116.411 122.754 117.405C123.284 118.399 123.748 119.427 124.145 120.487C124.411 120.885 124.609 121.249 124.742 121.581C124.875 121.912 125.007 122.21 125.14 122.475C125.802 123.801 126.399 125.093 126.929 126.352C127.459 127.612 127.923 128.772 128.321 129.832C129.381 127.579 130.541 125.16 131.8 122.575C133.06 119.99 134.352 117.306 135.677 114.522L161.923 62.4297H180.612L136.274 145.738V198.825H119.374V144.744Z" fill="white"/>
</g>
<defs>
<clipPath id="clip0_1_13793">
<rect width="256" height="256" fill="white"/>
</clipPath>
</defs>
</svg>
