<svg width="256" height="278" viewBox="0 0 256 278" fill="none" xmlns="http://www.w3.org/2000/svg">
<g clip-path="url(#clip0_1_13798)">
<path d="M139.4 276.2C75.1 276.2 22.8 223.5 22.8 158.6C22.8 93.8 75.1 41 139.4 41C203.7 41 256 93.8 256 158.6C256 223.5 203.7 276.2 139.4 276.2ZM139.4 46.9C78.4 46.9 28.7 97 28.7 158.6C28.7 220.2 78.4 270.3 139.4 270.3C200.4 270.3 250.1 220.2 250.1 158.6C250.1 97 200.5 46.9 139.4 46.9Z" fill="#020202"/>
<mask id="mask0_1_13798" style="mask-type:luminance" maskUnits="userSpaceOnUse" x="-1" y="-1" width="255" height="275">
<path d="M203 63.6011V63.3011L209.6 30.1011C209.6 30.1011 194.9 -3.79894 145.5 0.301061C96.2 4.40106 90 15.8011 81.9 29.4011L86.7 51.1011L77.5 57.0011C77.5 57.0011 74.2 47.1011 69 46.7011C69 46.7011 76.7 35.6011 71.2 27.9011C65.7 20.2011 36.2 20.9011 24.8 59.9011C24.8 59.9011 23.3 48.1011 18.5 48.1011C13.7 48.1011 -4.00001 54.5011 0.799988 72.9011C5.59999 91.3011 22.2 96.8011 27.7 99.1011C27.7 99.1011 30.3 102.401 29.2 106.801C28.6 109.101 15.3 150.401 26.4 188.601C34.7 217.101 61.4 241.901 61.4 241.901C81.8 261.301 109.2 273.201 139.4 273.201C202.1 273.201 253 221.901 253 158.601C253.1 119.101 233.2 84.2011 203 63.6011Z" fill="white"/>
</mask>
<g mask="url(#mask0_1_13798)">
<path d="M179.5 200.402C179.5 200.402 262.1 213.702 271.2 329.202C271.2 329.202 255.8 339.002 239.7 339.702C239.7 339.702 241.1 250.802 179.5 200.402Z" fill="#050505"/>
<path d="M260.8 278.301C256.3 280.501 246.7 284.301 231.9 285.801C232.4 287.701 232.9 289.601 233.4 291.501C239.3 290.601 249.9 288.401 262.6 283.401C262 281.701 261.4 280.001 260.8 278.301ZM227.8 272.601C228.4 274.501 229.1 276.301 229.6 278.201C235 277.601 247.2 275.901 258 271.101C257.2 269.301 256.5 267.501 255.7 265.801C251.7 267.601 242.9 270.801 227.8 272.601ZM271.2 329.201C270.4 318.601 268.9 308.901 267 300.001C260.7 303.901 250.7 308.601 237.2 310.401C240 327.901 239.8 339.701 239.8 339.701C255.8 339.001 271.2 329.201 271.2 329.201Z" fill="#DD002A"/>
<path d="M94.3 130.603C104.075 130.603 112 122.679 112 112.903C112 103.128 104.075 95.2031 94.3 95.2031C84.5245 95.2031 76.6 103.128 76.6 112.903C76.6 122.679 84.5245 130.603 94.3 130.603Z" fill="#F4CF8C"/>
<path d="M94.3 130.603C104.075 130.603 112 122.679 112 112.903C112 103.128 104.075 95.2031 94.3 95.2031C84.5245 95.2031 76.6 103.128 76.6 112.903C76.6 122.679 84.5245 130.603 94.3 130.603Z" fill="#F4CF8C"/>
<path d="M76.6 112.9C76.6 113.4 76.6 114 76.7 114.5C78 114 79.3 113.3 80.7 112.3C89.1 106.9 89.3 100.5 87.5 96.5C81.1 99.3 76.6 105.6 76.6 112.9Z" fill="#F4CF8C"/>
<path d="M85.2 121.501C89.9496 121.501 93.8 117.65 93.8 112.901C93.8 108.151 89.9496 104.301 85.2 104.301C80.4503 104.301 76.6 108.151 76.6 112.901C76.6 117.65 80.4503 121.501 85.2 121.501Z" fill="#F4CF8C"/>
<path d="M85.2 104.402C84.9 104.402 84.5 104.402 84.2 104.502C87.5 105.002 90.1 108.602 90.1 113.002C90.1 117.402 87.5 121.002 84.2 121.502C84.5 121.502 84.9 121.602 85.2 121.602C89.9 121.602 93.8 117.802 93.8 113.002C93.7 108.202 89.9 104.402 85.2 104.402Z" fill="#D8AF6F"/>
<path d="M84.1 104.502C83.8 104.502 83.6 104.402 83.3 104.402C79.6 104.402 76.6 108.202 76.6 113.002C76.6 108.602 79.9 105.002 84.1 104.502ZM76.6 112.902C76.6 117.602 79.6 121.502 83.3 121.502C83.6 121.502 83.8 121.502 84.1 121.402C79.9 120.902 76.6 117.302 76.6 112.902Z" fill="#F4CF8C"/>
<path d="M198 130.603C207.775 130.603 215.7 122.679 215.7 112.903C215.7 103.128 207.775 95.2031 198 95.2031C188.225 95.2031 180.3 103.128 180.3 112.903C180.3 122.679 188.225 130.603 198 130.603Z" fill="#F4CF8C"/>
<path d="M198 130.603C207.775 130.603 215.7 122.679 215.7 112.903C215.7 103.128 207.775 95.2031 198 95.2031C188.225 95.2031 180.3 103.128 180.3 112.903C180.3 122.679 188.225 130.603 198 130.603Z" fill="#F4CF8C"/>
<path d="M207.1 121.501C211.85 121.501 215.7 117.65 215.7 112.901C215.7 108.151 211.85 104.301 207.1 104.301C202.35 104.301 198.5 108.151 198.5 112.901C198.5 117.65 202.35 121.501 207.1 121.501Z" fill="#F4CF8C"/>
<path d="M202.2 112.901C202.2 108.501 204.8 104.901 208.1 104.401C207.8 104.401 207.4 104.301 207.1 104.301C202.4 104.301 198.5 108.101 198.5 112.901C198.5 117.601 202.3 121.501 207.1 121.501C207.4 121.501 207.8 121.501 208.1 121.401C204.8 120.901 202.2 117.301 202.2 112.901Z" fill="#D8AF6F"/>
<path d="M215.7 112.902C215.7 108.202 212.7 104.302 209 104.302C208.7 104.302 208.5 104.302 208.2 104.402C212.4 105.002 215.7 108.602 215.7 112.902ZM208.2 121.402C208.5 121.402 208.7 121.502 209 121.502C212.7 121.502 215.7 117.702 215.7 112.902C215.7 117.302 212.4 120.902 208.2 121.402ZM44.8 124.302C44.8 124.302 61.7 126.502 59.5 109.602C59.5 109.602 65.4 118.802 78.6 110.302C91.8 101.902 84.8 90.8019 81.2 90.5019C77.5 90.1019 72.4 86.1019 59.5 99.3019L52.2 82.4019L60.6 71.4019C60.6 71.4019 61.8 87.3019 74 82.8019C86.3 78.3019 77.1 51.2019 66.1 51.2019L46.3 62.6019C46.3 62.6019 50 52.3019 66.1 43.9019C66.1 43.9019 72.3 40.2019 68.7 31.0019C65 21.8019 30.1 28.4019 24.6 73.2019C24.6 73.2019 18.4 67.3019 19.8 58.1019C21.2 48.9019 1.79999 51.5019 5.49999 71.3019C9.19999 91.1019 28.3 95.2019 28.3 95.2019C28.3 95.2019 34.8 105.702 30.1 117.602C30.1 117.702 37.5 126.802 44.8 124.302ZM78.6 110.302C91.8 101.902 84.8 90.8019 81.2 90.5019C78.9 90.3019 76.1 88.7019 71.3 90.5019L75.6 99.4019C75.6 99.4019 74.7 112.102 60.5 108.902C60.5 108.902 60.4 109.402 60 110.202C61.6 112.102 67.5 117.402 78.6 110.302ZM59.6 110.802C57.4 114.702 49.8 122.302 31.4 112.902C31.1 114.602 30.7 116.002 30.1 117.702C30.1 117.702 37.4 126.902 44.8 124.302C44.8 124.302 60.9 126.402 59.6 110.802ZM60.6 71.4019C60.6 71.4019 61.8 87.3019 74 82.8019C79 81.0019 80.4 75.3019 79.6 69.3019C76.5 72.5019 67.1 80.5019 63.4 63.5019L46.6 83.1019L33.3 90.8019L49.9 86.6019L59.6 99.2019L52.3 82.3019L60.6 71.4019ZM49.1 57.8019C51.8 54.0019 57 48.6019 66.2 43.8019C66.2 43.8019 72.4 40.1019 68.8 30.9019C68.7 30.7019 68.7 30.6019 68.6 30.4019C67.7 33.2019 66 36.5019 62.7 38.8019C55.9 43.5019 31.6 60.4019 39.3 85.9019C39.2 86.1019 36 70.3019 49.1 57.8019ZM24.3 72.9019C23 71.5019 18.6 66.1019 19.9 58.2019C20.5 54.6019 17.8 52.8019 14.6 53.2019C13.9 63.0019 15.3 83.0019 34.7 88.7019C34.7 88.7019 27.4 85.3019 24.3 72.9019Z" fill="#F4CF8C"/>
<path d="M30.1 117.703L44.8 124.303C44.8 124.303 31.6 197.003 100.6 200.003C100.6 200.003 101.1 246.803 58.5 246.003C58.5 246.003 2.2 201.203 30.1 117.703Z" fill="#050505"/>
<path d="M47.7 163.803C47.5 163.103 47.3 162.503 47.1 161.803C43.8 163.503 35.1 167.303 22.5 167.203C22.6 168.803 22.7 170.403 22.8 172.003C29.1 172.003 39.6 171.203 48.7 166.303V166.203C48.4 165.503 48.2 164.803 48 164.103L47.7 163.803ZM52.4 174.203C52.1 173.603 51.7 173.003 51.4 172.403C47.6 174.203 37.2 178.403 23.4 178.503C23.6 180.303 23.9 182.103 24.2 183.803C31.7 183.803 42.7 182.503 53.5 176.203V176.103C53.1 175.503 52.8 174.903 52.4 174.303V174.203ZM30.1 117.703C26.1 128.603 24.4 138.703 23.1 148.103C30.1 149.403 37.1 149.603 44 145.103C43.1 133.303 44.8 124.303 44.8 124.303L30.1 117.703Z" fill="#DD002A"/>
<path d="M51.5 304.202L141.5 420.202C141.5 420.202 145 421.502 146.5 419.702V304.202H51.5ZM240.8 304.202L150.8 420.202C150.8 420.202 147.3 421.502 145.8 419.702V304.202H240.8ZM187.6 198.102H104.8C16.6 236.802 37.1 382.902 37.1 382.902H146.7V316.102L152.8 382.902H255.2C255.2 382.802 275.8 236.802 187.6 198.102Z" fill="#050505"/>
<path d="M261.9 334.002C260.7 302.602 254.4 262.302 233.2 232.002C207.9 205.002 179.5 200.402 179.5 200.402C241.1 250.802 239.7 339.702 239.7 339.702C247.9 339.302 256 336.602 261.9 334.002Z" fill="#930023"/>
<path d="M40.6 289.101C40.3 290.401 40 291.801 39.8 293.101C64.2 284.101 102.7 278.301 146.1 278.301C189.5 278.301 228.1 284.101 252.4 293.101C252.1 291.801 251.9 290.401 251.6 289.101C227.2 280.301 189 274.601 146.1 274.601C103.2 274.601 65 280.301 40.6 289.101ZM45.5 270.601C45.1 271.801 44.8 273.001 44.4 274.201C68.9 266.101 105.4 261.001 146.2 261.001C187 261.001 223.5 266.101 248 274.201C247.6 273.001 247.3 271.801 246.9 270.601C222.4 262.701 186.4 257.801 146.2 257.801C106 257.801 69.9 262.801 45.5 270.601ZM79.7 214.101C60.8 238.401 62.9 268.101 62.9 268.101L68 265.801C66.4 240.001 78.2 219.501 85.6 209.301C83.6 210.801 81.6 212.401 79.7 214.101ZM206.7 209.301C214.1 219.501 225.9 239.901 224.3 265.801L229.4 268.101C229.4 268.101 231.4 238.501 212.6 214.101C210.7 212.401 208.7 210.801 206.7 209.301ZM146.7 316.101L152.8 382.901H255.2C255.2 382.901 261.5 338.101 252.1 291.501L246.9 289.801C255.5 313.301 251.5 376.701 251.5 376.701H158.3L149.5 278.201H142.4L141.5 376.701H41.9C37.3 332.001 44.4 290.001 44.4 290.001L40.2 291.201C30.7 337.901 37.1 382.901 37.1 382.901H146.7V316.101Z" fill="#DD002A"/>
<path d="M192 195.001C192 195.001 174.4 211.001 145.4 211.001C111 211.001 100.3 195.001 100.3 195.001L94.2 82.8008H198L192 195.001ZM192 195.001C192 195.001 174.4 211.001 145.4 211.001C111 211.001 100.3 195.001 100.3 195.001L94.2 82.8008H198L192 195.001ZM192 195.001C192 195.001 174.4 211.001 145.4 211.001C111 211.001 100.3 195.001 100.3 195.001L94.2 82.8008H198L192 195.001Z" fill="#F4CF8C"/>
<path d="M159.3 102.002L161.9 98.7016C161.9 98.7016 171.2 98.2016 185.6 105.902C185.6 105.902 175.2 93.1016 159.6 97.4016L160.1 94.6016L155.7 101.802C155.7 101.802 157.3 111.502 155.6 118.502H136.9C135.2 111.502 136.8 101.802 136.8 101.802L132.4 94.6016L132.9 97.4016C117.3 93.1016 106.9 105.902 106.9 105.902C121.2 98.2016 130.6 98.7016 130.6 98.7016L133.2 102.002C128.2 112.002 116.4 112.802 116.4 112.802C128.8 114.102 133.3 106.402 133.3 106.402C132.6 112.502 133.9 120.502 133.9 120.502L146.3 129.302L146.4 129.202L146.5 129.302L158.9 120.502C158.9 120.502 160.2 112.502 159.5 106.402C159.5 106.402 164 114.102 176.4 112.802C176.1 112.802 164.3 112.002 159.3 102.002Z" fill="#B27D30"/>
<path d="M146.1 148.502C155.489 148.502 163.1 143.935 163.1 138.302C163.1 132.668 155.489 128.102 146.1 128.102C136.711 128.102 129.1 132.668 129.1 138.302C129.1 143.935 136.711 148.502 146.1 148.502Z" fill="#050505"/>
<path d="M146.1 149.001C150 149.001 153.5 147.701 156.4 146.401C154.4 144.201 150.6 142.801 146.1 142.801C141.7 142.801 137.8 144.301 135.8 146.401C138.7 147.701 142.3 149.001 146.1 149.001Z" fill="#DD002A"/>
<path d="M146.1 128.102C136.7 128.102 129.1 132.702 129.1 138.302C129.1 138.602 129.1 138.902 129.2 139.202H163.1C163.1 138.902 163.2 138.602 163.2 138.302C163.2 132.702 155.6 128.102 146.1 128.102Z" fill="white"/>
<path d="M146.1 155.102C142.6 155.102 139.4 154.502 136.7 153.402C138.9 156.202 142.2 158.002 146.1 158.002C149.9 158.002 153.3 156.202 155.5 153.402C152.8 154.502 149.6 155.102 146.1 155.102ZM146.1 185.502C140.2 185.502 134.7 184.402 130.1 182.602C133.8 187.402 139.6 190.402 146.1 190.402C152.6 190.402 158.4 187.302 162.1 182.602C157.5 184.402 152.1 185.502 146.1 185.502Z" fill="#C98C28"/>
<path d="M95.2 101.302H197L198 82.9023H94.2L95.2 101.302Z" fill="#CEA063"/>
<path d="M198.3 82.8016L207.4 30.1016C207.4 30.1016 193.7 3.10156 146.4 3.10156C89 3.10156 84.8 30.1016 84.8 30.1016L94 82.8016H198.3Z" fill="#050505"/>
<path d="M90.1 60.2031L94 82.8031H198.3L202.2 60.2031H90.1Z" fill="#DD002A"/>
<path d="M214 95.4008H78.3L74.1 82.8008H218.3L214 95.4008Z" fill="#050505"/>
<path d="M146.1 84.3031C155.378 84.3031 162.9 76.7815 162.9 67.5031C162.9 58.2247 155.378 50.7031 146.1 50.7031C136.822 50.7031 129.3 58.2247 129.3 67.5031C129.3 76.7815 136.822 84.3031 146.1 84.3031Z" fill="#050505"/>
<path d="M146.1 82.2008C138 82.2008 131.4 75.6008 131.4 67.5008C131.4 59.4008 138 52.8008 146.1 52.8008C154.2 52.8008 160.8 59.4008 160.8 67.5008C160.9 75.6008 154.3 82.2008 146.1 82.2008ZM146.1 54.7008C139 54.7008 133.3 60.4008 133.3 67.5008C133.3 74.6008 139 80.3008 146.1 80.3008C153.2 80.3008 158.9 74.6008 158.9 67.5008C159 60.4008 153.2 54.7008 146.1 54.7008ZM146.1 78.1008C140.2 78.1008 135.5 73.3008 135.5 67.5008C135.5 61.6008 140.3 56.9008 146.1 56.9008C152 56.9008 156.7 61.7008 156.7 67.5008C156.8 73.3008 152 78.1008 146.1 78.1008ZM146.1 58.2008C141 58.2008 136.9 62.3008 136.9 67.4008C136.9 72.5008 141 76.6008 146.1 76.6008C151.2 76.6008 155.3 72.5008 155.3 67.4008C155.4 62.4008 151.2 58.2008 146.1 58.2008ZM148.8 63.7008L153.6 60.2008L149.9 64.9008L155.7 63.4008L150.6 66.5008L156.5 67.2008L150.6 68.2008L156 71.0008L150.2 69.8008L154.1 74.3008L149.1 71.1008L151.1 76.7008L147.6 71.9008L147.5 77.9008L146 72.1008L143.7 77.6008L144.3 71.7008L140.2 76.0008L142.9 70.7008L137.5 73.2008L142 69.2008L136 69.6008L141.6 67.5008L135.9 65.7008L141.9 65.8008L137.2 62.1008L142.7 64.3008L139.7 59.2008L144 63.3008L143 57.4008L145.6 62.8008L146.8 57.0008L147.3 63.0008L150.6 58.0008L148.8 63.7008Z" fill="#DD002A"/>
<path d="M149.3 67.5008C149.3 69.3008 147.9 70.7008 146.1 70.7008C144.3 70.7008 142.9 69.3008 142.9 67.5008C142.9 65.7008 144.3 64.3008 146.1 64.3008C147.9 64.3008 149.3 65.7008 149.3 67.5008Z" fill="#050505"/>
<path d="M145.4 211.1C111 211.1 100.3 195.1 100.3 195.1L101.5 217.9C101.5 217.9 111.8 233.5 145.4 233.5C173.6 233.5 190.7 217.9 190.7 217.9L192 195C191.9 195 174.3 211.1 145.4 211.1Z" fill="#DD002A"/>
<path d="M146.1 233.101C146.9 230.101 147.4 226.301 147.4 222.201C147.4 218.001 146.9 214.201 146.1 211.301C145.3 214.301 144.8 218.101 144.8 222.201C144.8 226.301 145.3 230.201 146.1 233.101Z" fill="#050505"/>
<path d="M154.3 226.001C156.012 226.001 157.4 224.613 157.4 222.901C157.4 221.189 156.012 219.801 154.3 219.801C152.588 219.801 151.2 221.189 151.2 222.901C151.2 224.613 152.588 226.001 154.3 226.001Z" fill="#930023"/>
<path d="M153.6 225.302C155.312 225.302 156.7 223.914 156.7 222.202C156.7 220.489 155.312 219.102 153.6 219.102C151.888 219.102 150.5 220.489 150.5 222.202C150.5 223.914 151.888 225.302 153.6 225.302Z" fill="white"/>
<path d="M157.3 253.602H135C131.5 253.602 128.6 256.502 128.6 260.002V275.902C128.6 279.402 131.5 282.302 135 282.302H157.3C160.8 282.302 163.7 279.402 163.7 275.902V260.002C163.7 256.402 160.8 253.602 157.3 253.602ZM155.6 262.502V273.402C155.6 274.002 155.1 274.602 154.4 274.602H137.9C137.3 274.602 136.7 274.102 136.7 273.402V262.502C136.7 261.902 137.2 261.302 137.9 261.302H154.4C155 261.302 155.6 261.802 155.6 262.502Z" fill="#FFB000"/>
<path d="M133.8 120.5L146.1 129.2L146.2 129.1L146.3 129.2L158.6 120.5H133.8Z" fill="#C98C28"/>
<path d="M146.1 127.3C146.1 127.3 135.7 114.9 111.3 121L74.4 157.3C74.4 157.3 87.7 167.2 108.5 164.5C129.3 161.8 146.3 139.6 146.1 127.3ZM146.1 127.3C146.1 127.3 156.5 114.9 180.9 121C205.3 127.1 217.8 157.3 217.8 157.3C217.8 157.3 204.5 167.2 183.7 164.5C162.9 161.8 146 139.6 146.1 127.3Z" fill="#4F1907"/>
<path d="M196.7 233.303H198.9L195 238.003L191.2 233.303H193.4V231.203H185.2V233.303H188.4L193.8 240.003V244.203H190.6V246.303H199.2V244.203H196V240.003L201.4 233.303H204.6V231.203H196.4L196.7 233.303Z" fill="#DD002A"/>
</g>
</g>
<defs>
<clipPath id="clip0_1_13798">
<rect width="256" height="278" fill="white"/>
</clipPath>
</defs>
</svg>
