<svg width="512" height="116" viewBox="0 0 512 116" fill="none" xmlns="http://www.w3.org/2000/svg">
<path d="M159.889 17.9305C157.981 10.8779 152.472 5.36869 145.419 3.46028C132.731 0 81.6659 0 81.6659 0C81.6659 0 30.6006 0.104857 17.913 3.56513C10.8603 5.47355 5.35114 10.9828 3.44272 18.0354C-0.39504 40.5796 -1.88401 74.9307 3.54758 96.5732C5.45599 103.626 10.9652 109.135 18.0178 111.043C30.7055 114.504 81.7708 114.504 81.7708 114.504C81.7708 114.504 132.836 114.504 145.524 111.043C152.576 109.135 158.086 103.626 159.994 96.5732C164.041 73.9975 165.289 39.6673 159.889 17.9305Z" fill="#FF0000"/>
<path d="M65.4131 81.7879L107.775 57.2513L65.4131 32.7148V81.7879Z" fill="white"/>
<path d="M491.237 33.2386C496.794 33.2386 500.988 34.2872 503.924 36.2794C506.86 38.2717 508.958 41.4174 510.216 45.7166C511.474 50.0157 511.998 55.8877 511.998 63.4374V75.7056H485.05V79.4805L485.47 89.8613C485.784 92.1681 486.308 93.8458 487.147 94.8944C487.986 95.943 489.349 96.4673 491.132 96.4673C493.544 96.4673 495.221 95.5236 496.06 93.6361C497.004 91.7487 497.423 88.603 497.528 84.3039L511.474 85.1427C511.579 85.7719 511.579 86.6107 511.579 87.6593C511.579 94.2653 509.796 99.1936 506.126 102.444C502.456 105.695 497.423 107.372 490.817 107.372C482.848 107.372 477.291 104.856 474.145 99.9276C470.999 94.9993 469.322 87.2399 469.322 76.859V64.1714C469.678 46.3457 472.813 33.291 491.237 33.2386ZM297.356 34.6017V87.135C297.356 90.2807 297.671 92.5876 298.405 93.9507C299.894 96.8657 303.753 96.1212 305.85 94.6847C307.061 93.8663 308.036 92.7458 308.681 91.4341V34.6017H324.724V106.219H312.141L310.778 97.411H310.464C307.003 104.017 301.865 107.372 295.05 107.372C284.559 107.346 281.993 99.7885 281.382 92.1127L281.342 91.5708C281.262 90.3966 281.225 89.2238 281.208 88.0787V34.6017H297.356ZM380.088 34.6017V87.135C380.088 90.2807 380.403 92.5876 381.137 93.9507C382.626 96.8657 386.485 96.1212 388.582 94.6847C389.793 93.8663 390.769 92.7458 391.413 91.4341V34.6017H407.456V106.219H394.873L393.51 97.411H393.196C389.735 104.017 384.597 107.372 377.782 107.372C367.291 107.346 364.725 99.7885 364.114 92.1127L364.074 91.5708C363.994 90.3966 363.957 89.2238 363.941 88.0787V34.6017H380.088ZM250.8 33.2386C256.043 33.2386 260.342 34.2872 263.488 36.4892C266.633 38.6911 269.045 42.0466 270.513 46.6603C271.981 51.274 272.715 57.4605 272.715 65.1151V75.4959C272.715 83.1505 271.981 89.2321 270.513 93.8458C269.045 98.4595 266.738 101.815 263.488 104.017C260.237 106.114 255.833 107.268 250.381 107.268C244.718 107.372 240.314 106.219 237.064 104.122C233.813 101.92 231.506 98.5644 230.143 93.9507C228.78 89.337 228.151 83.2553 228.151 75.6008V65.2199C228.151 57.5654 228.885 51.274 230.458 46.6603C232.031 41.9417 234.442 38.5863 237.798 36.4892C241.153 34.392 245.452 33.2386 250.8 33.2386ZM432.622 4.50781V42.2563H432.727C434.195 39.53 436.082 37.328 438.703 35.6503C441.152 34.0037 444.037 33.1272 446.987 33.1337C450.867 33.1337 453.803 34.1823 456.005 36.1746C458.207 38.2717 459.78 41.5223 460.723 46.0311C461.638 50.3991 462.158 56.4399 462.19 64.0583L462.191 64.8005V76.125C462.191 86.7156 460.828 94.5798 458.312 99.613C455.69 104.646 451.706 107.163 446.253 107.163C443.212 107.163 440.486 106.429 437.969 105.066C435.742 103.768 433.898 101.907 432.62 99.674L432.412 99.2984H432.097L430.42 106.114H417.103V4.50781H432.622ZM368.449 8.1778V21.1801H352.511V106.219H336.783V21.1801H320.74V8.1778H368.449ZM195.54 8.1778L195.549 8.21728C195.703 8.89927 197.823 18.3244 200.155 29.3047L200.339 30.1747C200.431 30.6112 200.524 31.0498 200.617 31.4901L200.803 32.3727C200.834 32.5202 200.865 32.6678 200.896 32.8155L201.082 33.7035C201.113 33.8517 201.144 34 201.175 34.1485L201.36 35.0399L201.631 36.3428C203.205 43.9466 204.708 51.5728 205.607 57.0411H206.026C206.888 52.1357 208.139 45.8585 209.473 39.4499L209.823 37.7759C209.999 36.9382 210.175 36.1001 210.352 35.2644L210.627 33.9667C213.194 21.8934 215.748 10.6145 216.223 8.52329L216.254 8.38824C216.286 8.24963 216.302 8.1778 216.302 8.1778H232.345L213.786 74.3425V106.114H197.952V74.4473H197.847L179.497 8.1778H195.54ZM250.485 44.3534C248.283 44.3534 246.815 45.5068 245.872 47.9185C244.928 50.3303 244.509 54.0002 244.509 59.1382V81.4727C244.509 86.7156 244.928 90.5953 245.767 92.9021C246.606 95.209 248.179 96.3624 250.485 96.3624C252.687 96.3624 254.26 95.209 255.204 92.9021C256.148 90.5953 256.567 86.7156 256.567 81.4727V59.1382C256.567 54.0002 256.148 50.2254 255.204 47.9185C254.26 45.5068 252.687 44.3534 250.485 44.3534ZM435.453 46.4506C434.175 47.6302 433.266 49.0863 432.725 50.9053L432.622 51.274V91.9584C433.922 94.1604 435.767 95.6284 439.018 95.7333C440.696 95.7333 442.059 95.1041 443.107 93.8458C444.156 92.5876 444.89 90.4904 445.309 87.5544C445.712 84.7359 445.921 80.8543 445.938 75.9098L445.939 75.2862V65.9539C445.939 60.2917 445.729 55.9925 445.414 52.9517C444.995 49.9108 444.471 47.7088 443.527 46.4506C441.702 43.8291 437.76 43.8606 435.453 46.4506ZM490.922 44.0388C489.14 44.1437 487.881 44.668 487.147 45.6117C486.308 46.6603 485.784 48.2331 485.47 50.54C485.161 52.8007 485.054 60.7009 485.05 61.016L485.05 66.1636H496.794L496.793 61.6238L496.793 61.7112C496.787 63.2983 496.754 60.7899 496.682 57.7109L496.672 57.2973C496.606 54.5909 496.51 51.5736 496.375 50.54C496.06 48.1283 495.536 46.4506 494.697 45.5068C493.858 44.5631 492.6 44.0388 490.922 44.0388Z" fill="#282828"/>
</svg>
