<svg width="512" height="135" viewBox="0 0 512 135" fill="none" xmlns="http://www.w3.org/2000/svg">
<g clip-path="url(#clip0_1_13869)">
<path d="M512 0H0V134.095H512V0Z" fill="#D40000"/>
<path d="M21.9428 20.418H95.9999V30.1703L36.2666 103.008H97.5237V113.675H20.4189V103.923L80.1523 31.0846H21.9428V20.418ZM147.505 32.9132L130.133 79.237H164.876L147.505 32.9132ZM140.19 20.418H154.514L190.476 113.675H177.371L168.838 89.9037H126.171L117.638 113.675H104.228L140.19 20.418ZM216.99 69.1799V103.313H237.409C244.419 103.313 249.295 101.789 252.648 99.0465C256 96.3037 257.524 92.037 257.524 86.2465C257.524 80.4561 256 76.1894 252.648 73.4465C249.295 70.7037 244.114 69.1799 237.409 69.1799H216.99ZM216.99 30.7799V58.818H235.886C241.981 58.818 246.857 57.5989 249.905 55.4656C252.952 53.0275 254.476 49.6751 254.476 44.7989C254.476 40.2275 252.952 36.5704 249.905 34.1323C246.857 31.6942 242.286 30.7799 235.886 30.7799H216.99ZM204.19 20.418H236.8C246.552 20.418 253.867 22.5513 259.352 26.5132C264.533 30.4751 267.276 36.2656 267.276 43.5799C267.276 49.3703 266.057 53.9418 263.314 57.2942C260.571 60.6465 256.609 62.7799 251.428 63.6942C257.828 64.9132 262.705 67.6561 266.057 71.9227C269.409 76.1894 271.238 81.3704 271.238 87.7704C271.238 95.9989 268.495 102.399 262.705 106.97C256.914 111.542 248.99 113.675 238.324 113.675H204.19V20.418ZM304.457 69.1799V103.313H324.876C331.581 103.313 336.762 101.789 340.114 99.0465C343.467 96.3037 344.99 92.037 344.99 86.2465C344.99 80.4561 343.467 76.1894 340.114 73.4465C336.762 70.7037 331.581 69.1799 324.876 69.1799H304.457ZM304.457 30.7799V58.818H323.352C329.448 58.818 334.324 57.5989 337.371 55.4656C340.419 53.0275 341.943 49.6751 341.943 44.7989C341.943 40.2275 340.419 36.5704 337.371 34.1323C334.324 31.6942 329.752 30.7799 323.352 30.7799H304.457ZM291.657 20.418H324.267C334.019 20.418 341.333 22.5513 346.819 26.5132C352 30.4751 354.743 36.2656 354.743 43.5799C354.743 49.3703 353.524 53.9418 350.781 57.2942C348.038 60.6465 344.076 62.7799 338.895 63.6942C345.295 64.9132 350.171 67.6561 353.524 71.9227C356.876 76.1894 358.705 81.3704 358.705 87.7704C358.705 95.9989 355.962 102.399 350.171 106.97C344.381 111.542 336.457 113.675 325.79 113.675H291.657V20.418ZM378.819 20.418H391.619V113.675H378.819V20.418ZM415.695 20.418H429.714L451.962 53.9418L474.514 20.418H487.924L458.667 63.9989L491.581 113.675H477.562L451.657 74.6656L425.752 113.675H412.038L444.952 64.3037L415.695 20.418Z" fill="white"/>
</g>
<defs>
<clipPath id="clip0_1_13869">
<rect width="512" height="135" fill="white"/>
</clipPath>
</defs>
</svg>
