<svg width="256" height="124" viewBox="0 0 256 124" fill="none" xmlns="http://www.w3.org/2000/svg">
<g clip-path="url(#clip0_1_13879)">
<path d="M120.43 36.0182C120.43 36.0182 120.43 2.19922 154.249 2.19922H255.706C255.706 2.19922 255.706 36.0182 221.887 36.0182H120.43Z" fill="#6FB643"/>
<path d="M120.43 79.2331C120.43 79.2331 120.43 45.4141 154.249 45.4141H204.977C204.977 45.4141 204.977 79.2331 171.158 79.2331H120.43Z" fill="#6FB643"/>
<path d="M120.43 122.443C120.43 122.443 120.43 88.625 154.249 88.625H171.158C171.158 88.625 171.158 122.443 137.34 122.443H120.43Z" fill="#6FB643"/>
<path d="M109.076 96.0534V123.033H0.320068L70.3802 27.4654H10.2358V0.484375H123.692L53.9556 96.0534H109.076Z" fill="#6FB643"/>
</g>
<defs>
<clipPath id="clip0_1_13879">
<rect width="256" height="124" fill="white"/>
</clipPath>
</defs>
</svg>
