<svg width="512" height="129" viewBox="0 0 512 129" fill="none" xmlns="http://www.w3.org/2000/svg">
<g clip-path="url(#clip0_1_13918)">
<path d="M309.126 39.2961C296.281 39.2961 287.31 48.1951 287.31 60.9369V83.7181C287.31 86.3712 289.45 88.4499 292.181 88.4499C294.866 88.4499 297.051 86.3272 297.051 83.7181V60.7582C297.051 53.0379 301.79 48.0492 309.126 48.0492C316.631 48.0492 321.294 52.9193 321.294 60.7582V83.7181C321.294 86.3712 323.434 88.4499 326.165 88.4499C328.851 88.4499 331.035 86.3272 331.035 83.7181V60.9369C331.035 48.1951 322.026 39.2961 309.126 39.2961ZM368.398 39.2968C362.286 39.2968 358.004 41.5087 355.377 43.5161V22.3267C355.377 19.7662 353.192 17.6832 350.506 17.6832C347.775 17.6832 345.637 19.7227 345.637 22.3267V83.7181C345.637 86.372 347.775 88.4507 350.506 88.4507C353.192 88.4507 355.377 86.328 355.377 83.7181V60.7582C355.377 51.3882 361.614 48.0496 367.451 48.0496C374.957 48.0496 379.62 52.9193 379.62 60.7582V83.7181C379.62 86.372 381.76 88.4507 384.491 88.4507C387.176 88.4507 389.361 86.328 389.361 83.7181V60.9369C389.361 48.1955 380.741 39.2968 368.398 39.2968ZM442.332 39.4742C439.6 39.4742 437.461 41.5139 437.461 44.1178V67.1654C437.461 75.0051 432.798 79.8747 425.295 79.8747C417.96 79.8747 413.221 74.8865 413.221 67.1654V44.1178C413.221 41.5572 411.033 39.4742 408.349 39.4742C405.617 39.4742 403.478 41.5139 403.478 44.1178V66.899C403.478 79.6933 412.447 88.6282 425.295 88.6282C438.138 88.6282 447.203 79.6933 447.203 66.899V44.1178C447.203 41.5572 445.02 39.4742 442.332 39.4742ZM215.89 79.7293L187.011 79.7345L218.985 47.7748C219.884 46.9292 220.38 45.8095 220.38 44.6213C220.38 42.1605 218.282 40.1587 215.703 40.1587L178.174 40.1651C175.596 40.1651 173.498 42.1669 173.498 44.6273C173.498 47.0465 175.64 49.0904 178.174 49.0904H205.477L173.534 80.867L173.497 80.9059C172.99 81.4603 172.049 82.4922 172.049 84.1002C172.049 86.6112 174.191 88.6542 176.823 88.6542H215.89C218.47 88.6542 220.569 86.6516 220.569 84.1908C220.569 81.6882 218.514 79.7281 215.89 79.7281V79.7293ZM486.398 39.0863C480.156 39.0863 474.344 41.1161 469.777 44.8481V22.1161C469.777 19.5556 467.594 17.4727 464.91 17.4727C462.178 17.4727 460.038 19.5122 460.038 22.1161V62.5052C460.03 62.8137 460.03 63.1237 460.038 63.4354V63.5059H460.042C460.231 69.8534 463.427 76.869 468.227 81.2832L468.291 81.3441C468.651 81.695 469.02 82.0344 469.4 82.3612L470.041 82.9505V82.8948C474.508 86.4726 480.225 88.4183 486.398 88.4183C500.751 88.4183 512 77.5841 512 63.7527C512 49.9212 500.751 39.0863 486.398 39.0863ZM502.694 63.7523C502.694 72.6756 495.559 79.6648 486.454 79.6648C477.605 79.6648 470.662 73.1106 470.31 64.4637L470.306 63.0833C470.662 54.3927 477.605 47.8385 486.454 47.8385C495.559 47.8385 502.694 54.8286 502.694 63.7523ZM269.441 73.2977C267.808 73.2977 266.769 74.2423 265.764 75.1565L265.694 75.227C263.635 77.5521 260.005 80.323 254.401 80.323C251.136 80.323 248.071 79.3335 245.476 77.4511L270.839 52.0412C271.814 50.9704 272.247 49.9469 272.247 48.7238C272.247 47.4515 271.643 46.1841 270.602 45.2595C266.466 41.4422 260.562 39.2526 254.401 39.2526C240.554 39.2526 229.708 50.1388 229.708 64.0351C229.708 77.9318 240.554 88.8177 254.401 88.8177C261.65 88.8177 268.307 85.8428 272.652 80.6691C273.446 79.7626 273.959 78.5716 273.959 77.635C273.959 75.1625 272.017 73.2977 269.441 73.2977ZM240.376 71.1994C239.363 68.9909 238.832 66.5384 238.832 64.0347C238.832 54.9015 245.67 47.7468 254.4 47.7468C257.082 47.7468 259.719 48.5071 261.659 49.8115L240.376 71.1994Z" fill="#EEEFF3"/>
<path d="M75.0472 90.7808L93.6346 109.611C97.8657 113.898 104.835 113.943 109.122 109.712C113.409 105.481 113.455 98.5111 109.223 94.2243L90.294 75.0469H75.0472V90.7808Z" fill="#AFD94F"/>
<path d="M53.1436 37.4121L34.556 18.5811C30.3243 14.2938 23.3556 14.2488 19.0688 18.4805C14.7821 22.7116 14.7365 29.6808 18.9682 33.9676L37.8972 53.1445H53.1444L53.1436 37.4121Z" fill="#AFD94F"/>
<path d="M37.8974 53.1445H10.9518C4.92863 53.1445 0 58.0727 0 64.0965C0 70.1203 4.92863 75.0484 10.9518 75.0484H37.6562L48.6582 64.0468L37.8974 53.1445Z" fill="#38E1FA"/>
<path d="M117.24 53.1449H90.5347L79.5331 64.1465L90.2939 75.048H117.24C123.263 75.048 128.191 70.1199 128.191 64.0961C128.191 58.0727 123.263 53.1449 117.24 53.1449Z" fill="#38E1FA"/>
<path d="M37.6554 75.0469L18.7724 93.9298C14.5132 98.189 14.5132 105.159 18.7724 109.418C23.0316 113.677 30.0014 113.677 34.2606 109.418L53.1438 90.5352V75.0477L37.6554 75.0469Z" fill="#515DF4"/>
<path d="M90.5343 53.1437L109.417 34.2606C113.676 30.0014 113.676 23.0321 109.417 18.7729C105.158 14.5132 98.189 14.5132 93.9298 18.7729L75.0472 37.6554V53.1429L90.5343 53.1437Z" fill="#515DF4"/>
<path d="M75.0472 37.6562V10.9518C75.0472 4.92863 70.119 0 64.0952 0C58.0714 0 53.1437 4.92863 53.1437 10.9518V37.4113L64.1457 48.5573L75.0472 37.6562Z" fill="#4BC6CF"/>
<path d="M53.1437 90.5339V117.238C53.1437 123.262 58.0714 128.19 64.0952 128.19C70.119 128.19 75.0472 123.262 75.0472 117.238V90.779L64.0443 79.6328L53.1437 90.5339Z" fill="#4BC6CF"/>
<path d="M53.1441 59.5597V53.1445H37.8976L48.6582 64.046L53.1441 59.5597Z" fill="#50DEB4"/>
<path d="M75.0476 68.6308V75.0464H90.294L79.5331 64.1445L75.0476 68.6308Z" fill="#50DEB4"/>
<path d="M75.0476 59.6018L79.5331 64.1461L90.5347 53.1445H75.0476V59.6018Z" fill="#5575F1"/>
<path d="M53.1441 68.5925L48.6578 64.0469L37.6558 75.0493H53.1441V68.5925Z" fill="#5575F1"/>
<path d="M75.0472 68.6318L79.5327 64.1459L75.0472 59.6016V68.6318Z" fill="#5073E8"/>
<path d="M48.6578 64.0445L53.1437 68.5901V59.5586L48.6578 64.0445Z" fill="#5073E8"/>
<path d="M68.6316 75.0469L64.0452 79.6337L75.0476 90.7799V75.0469H68.6316Z" fill="#38BAA5"/>
<path d="M59.5588 53.1427L64.1457 48.5558L53.1437 37.4102V53.1427H59.5588Z" fill="#38BAA5"/>
<path d="M75.0476 75.0488V68.6328L68.6316 75.0488H75.0476Z" fill="#2AB2C2"/>
<path d="M53.1437 53.1445V59.5597L59.5588 53.1445H53.1437Z" fill="#2AB2C2"/>
<path d="M68.6733 53.1441H75.0472V37.6562L64.1458 48.5572L68.6733 53.1441Z" fill="#2EA7CD"/>
<path d="M59.5168 75.0469H53.1437V90.5348L64.0443 79.6337L59.5168 75.0469Z" fill="#2EA7CD"/>
<path d="M64.0447 79.6337L68.6316 75.0469H59.5176L64.0447 79.6337Z" fill="#2DA5C5"/>
<path d="M64.1458 48.5586L59.5593 53.145H68.6733L64.1458 48.5586Z" fill="#2DA5C5"/>
<path d="M75.0471 53.1445H68.6732L75.0471 59.6018V53.1445Z" fill="#2CA7CD"/>
<path d="M53.1437 75.0467H59.5168L53.1437 68.5898V75.0467Z" fill="#2CA7CD"/>
<path d="M68.6729 53.1445H59.5588L53.1437 59.5597V68.5912L59.5168 75.048H68.6312L75.0472 68.632V59.6018L68.6729 53.1445Z" fill="#2CA5C8"/>
</g>
<defs>
<clipPath id="clip0_1_13918">
<rect width="512" height="129" fill="white"/>
</clipPath>
</defs>
</svg>
