<svg width="256" height="256" viewBox="0 0 256 256" fill="none" xmlns="http://www.w3.org/2000/svg">
<g clip-path="url(#clip0_1_13891)">
<path d="M149.87 181.292L186.99 218.897C195.439 227.457 209.358 227.547 217.918 219.097C226.479 210.648 226.57 196.729 218.12 188.169L180.318 149.871H149.87V181.292Z" fill="#AFD94F"/>
<path d="M106.129 74.7115L69.0089 37.1057C60.5582 28.5439 46.6417 28.4539 38.0809 36.9047C29.5201 45.3543 29.4291 59.2719 37.8798 67.8327L75.6814 106.129H106.13V74.7115H106.129Z" fill="#AFD94F"/>
<path d="M75.6816 106.129H21.8709C9.84256 106.129 0 115.971 0 128C0 140.03 9.84256 149.871 21.8709 149.871H75.2L97.1712 127.901L75.6827 106.131L75.6816 106.129Z" fill="#38E1FA"/>
<path d="M234.13 106.13H180.799L158.829 128.1L180.318 149.871H234.13C246.158 149.871 256 140.029 256 127.999C256 115.971 246.158 106.13 234.13 106.13Z" fill="#38E1FA"/>
<path d="M75.1982 149.871L37.4887 187.581C28.9829 196.086 28.9829 210.005 37.4887 218.511C45.9944 227.017 59.9131 227.017 68.4189 218.511L106.129 180.801V149.873H75.1982V149.871Z" fill="#515DF4"/>
<path d="M180.798 106.128L218.508 68.4185C227.014 59.9128 227.014 45.9952 218.508 37.4895C210.002 28.9827 196.085 28.9827 187.579 37.4895L149.87 75.198V106.127H180.798V106.128Z" fill="#515DF4"/>
<path d="M149.87 75.2V21.8709C149.87 9.84256 140.029 0 127.999 0C115.97 0 106.129 9.84256 106.129 21.8709V74.711L128.1 96.9696L149.87 75.2Z" fill="#4BC6CF"/>
<path d="M106.129 180.801V234.13C106.129 246.159 115.97 256.001 127.999 256.001C140.029 256.001 149.87 246.159 149.87 234.13V181.29L127.898 159.031L106.129 180.801Z" fill="#4BC6CF"/>
<path d="M106.13 118.94V106.129H75.6821L97.1712 127.899L106.13 118.94Z" fill="#50DEB4"/>
<path d="M149.871 137.057V149.869H180.318L158.829 128.098L149.871 137.057Z" fill="#50DEB4"/>
<path d="M149.871 119.024L158.829 128.099L180.799 106.129H149.871V119.024Z" fill="#5575F1"/>
<path d="M106.13 136.976L97.1704 127.898L75.1992 149.87H106.13V136.976Z" fill="#5575F1"/>
<path d="M149.87 137.057L158.828 128.099L149.87 119.023V137.057Z" fill="#5073E8"/>
<path d="M97.1704 127.9L106.129 136.977V118.941L97.1704 127.9Z" fill="#5073E8"/>
<path d="M137.058 149.871L127.899 159.031L149.871 181.29V149.871H137.058Z" fill="#38BAA5"/>
<path d="M118.94 106.129L128.1 96.969L106.129 74.7109V106.129H118.94Z" fill="#38BAA5"/>
<path d="M149.871 149.871V137.059L137.058 149.871H149.871Z" fill="#2AB2C2"/>
<path d="M106.129 106.129V118.94L118.94 106.129H106.129Z" fill="#2AB2C2"/>
<path d="M137.142 106.129H149.87V75.1992L128.1 96.9687L137.142 106.129Z" fill="#2EA7CD"/>
<path d="M118.856 149.871H106.129V180.801L127.898 159.031L118.856 149.871Z" fill="#2EA7CD"/>
<path d="M127.898 159.031L137.058 149.871H118.858L127.898 159.031Z" fill="#2DA5C5"/>
<path d="M128.1 96.9688L118.941 106.128H137.142L128.1 96.9688Z" fill="#2DA5C5"/>
<path d="M149.87 106.129H137.142L149.87 119.024V106.129Z" fill="#2CA7CD"/>
<path d="M106.129 149.871H118.856L106.129 136.977V149.871Z" fill="#2CA7CD"/>
<path d="M137.141 106.129H118.94L106.129 118.94V136.976L118.856 149.871H137.058L149.87 137.058V119.024L137.141 106.129Z" fill="#2CA5C8"/>
</g>
<defs>
<clipPath id="clip0_1_13891">
<rect width="256" height="256" fill="white"/>
</clipPath>
</defs>
</svg>
