<svg width="512" height="89" viewBox="0 0 512 89" fill="none" xmlns="http://www.w3.org/2000/svg">
<g clip-path="url(#clip0_1_13960)">
<path d="M104.623 67.2356L135.609 29.8776H105.127V26.6036H140.325V29.6255L109.425 66.9834H140.159V70.2575H104.619V67.2356H104.623ZM168.365 71.0967C165.279 71.0967 162.419 70.4945 159.777 69.2903C157.18 68.1173 154.845 66.4329 152.913 64.3378C148.894 59.9527 146.682 54.2094 146.722 48.2612C146.722 45.1828 147.272 42.2889 148.367 39.5718C149.462 36.8585 150.964 34.4801 152.872 32.4366C154.785 30.3899 157.09 28.748 159.649 27.6084C162.313 26.422 165.201 25.8214 168.117 25.8471C171.202 25.8471 174.062 26.4493 176.701 27.6535C179.339 28.8578 181.615 30.476 183.523 32.5194C185.451 34.5936 186.966 37.0165 187.987 39.6583C189.052 42.3679 189.586 45.2393 189.586 48.2612V49.3149C189.604 49.5826 189.575 49.8515 189.499 50.1089H151.103C151.412 54.8386 153.398 59.3031 156.703 62.7008C158.245 64.2701 160.029 65.5007 162.05 66.3963C164.093 67.2966 166.302 67.7544 168.534 67.7398C170.044 67.7411 171.547 67.5295 172.997 67.1114C174.423 66.7048 175.795 66.126 177.081 65.3878C178.325 64.6752 179.46 63.7853 180.449 62.746C181.431 61.7073 182.202 60.5746 182.763 59.344L186.47 60.3525C185.853 61.9181 184.938 63.3632 183.734 64.6765C182.526 65.9937 181.122 67.1227 179.523 68.0748C177.924 69.0269 176.17 69.7682 174.262 70.2989C172.342 70.8323 170.358 71.1008 168.365 71.0967ZM185.544 46.7483C185.409 44.3122 184.823 41.9223 183.817 39.6997C182.892 37.6545 181.608 35.7912 180.027 34.1978C178.493 32.6649 176.679 31.4399 174.683 30.5889C172.634 29.7151 170.427 29.2719 168.199 29.2868C165.972 29.2719 163.765 29.7151 161.715 30.5889C157.614 32.3345 154.362 35.6212 152.661 39.7411C151.718 41.9675 151.163 44.3386 151.02 46.7521H185.544V46.7483ZM219.564 30.3781C215.632 30.491 212.192 31.6539 209.245 33.8629C206.299 36.0757 204.236 39.1127 203.058 42.97V70.2575H198.847V26.6073H202.889V37.3515C204.406 34.2731 206.411 31.7668 208.91 29.8362C211.409 27.9057 214.089 26.803 216.952 26.5245C217.513 26.4643 218.017 26.438 218.465 26.438H219.56V30.3819L219.564 30.3781ZM245.918 71.0967C242.832 71.0967 239.98 70.4945 237.372 69.2903C234.807 68.1222 232.502 66.4539 230.59 64.383C228.661 62.2785 227.147 59.8283 226.127 57.1613C225.058 54.404 224.516 51.4706 224.528 48.5133C224.512 45.5246 225.07 42.5606 226.172 39.7825C227.264 37.0391 228.769 34.6344 230.677 32.5608C232.586 30.4894 234.889 28.8198 237.451 27.6497C240.107 26.4356 242.998 25.819 245.918 25.8434C248.948 25.8434 251.751 26.4455 254.337 27.6497C256.918 28.854 259.18 30.491 261.114 32.5608C265.124 36.9024 267.336 42.6037 267.305 48.5133C267.305 51.5352 266.755 54.4216 265.664 57.1613C264.618 59.8253 263.09 62.2735 261.156 64.383C259.247 66.4544 256.944 68.124 254.382 69.2941C251.77 70.4983 248.948 71.1004 245.915 71.1004L245.918 71.0967ZM228.739 48.6826C228.739 51.2567 229.191 53.6765 230.086 55.9458C230.986 58.2112 232.205 60.1832 233.748 61.8616C235.291 63.54 237.105 64.8722 239.182 65.8507C241.259 66.8291 243.472 67.3184 245.832 67.3184C248.191 67.3184 250.408 66.8291 252.485 65.8507C254.562 64.8709 256.422 63.4866 257.957 61.7788C261.258 58.122 263.062 53.3568 263.011 48.4305C263.028 45.9458 262.571 43.4807 261.664 41.1674C260.807 38.9683 259.551 36.9471 257.957 35.2064C256.416 33.5226 254.575 32.1416 252.527 31.1345C250.47 30.1263 248.208 29.6097 245.918 29.6251C243.559 29.6251 241.342 30.126 239.265 31.1345C237.2 32.1327 235.354 33.5308 233.834 35.2478C232.291 36.9827 231.053 39.0111 230.128 41.3368C229.199 43.6739 228.727 46.1677 228.739 48.6826ZM313.194 70.2575H308.983V45.9129C308.983 35.1123 305.363 29.712 298.122 29.712C296.327 29.712 294.574 30.0507 292.861 30.7206C291.149 31.3904 289.55 32.3388 288.059 33.5731C286.573 34.8037 285.267 36.2451 284.146 37.8971C283.031 39.5321 282.179 41.3314 281.62 43.2297V70.2612H277.406V8.97266H281.62V37.009C283.338 33.6826 285.91 30.8732 289.072 28.869C292.116 26.8919 295.67 25.8421 299.3 25.8471C301.716 25.8471 303.794 26.295 305.532 27.1906C307.271 28.0863 308.72 29.3733 309.867 31.0517C311.019 32.7302 311.862 34.7586 312.396 37.1369C312.927 39.5153 313.194 42.191 313.194 45.1527V70.2575ZM344.52 71.0967C341.434 71.0967 338.566 70.4945 335.928 69.2903C333.332 68.1168 330.999 66.4325 329.068 64.3378C325.048 59.9527 322.837 54.2094 322.877 48.2612C322.877 45.1828 323.427 42.2889 324.522 39.5718C325.613 36.8585 327.118 34.4801 329.026 32.4366C330.939 30.3903 333.242 28.7485 335.8 27.6084C338.464 26.422 341.352 25.8214 344.268 25.8471C347.353 25.8471 350.213 26.4493 352.855 27.6535C355.49 28.8578 357.766 30.476 359.674 32.5194C361.603 34.5936 363.117 37.0165 364.138 39.6583C365.203 42.3679 365.737 45.2393 365.737 48.2612V49.3149C365.757 49.5824 365.729 49.8513 365.654 50.1089H327.254C327.563 54.8386 329.549 59.3031 332.854 62.7008C334.396 64.2701 336.18 65.5007 338.197 66.3963C340.24 67.2966 342.45 67.7544 344.681 67.7398C346.191 67.7411 347.694 67.5295 349.145 67.1114C350.571 66.7048 351.942 66.126 353.228 65.3878C354.473 64.6752 355.607 63.7853 356.596 62.746C357.578 61.7073 358.353 60.5746 358.914 59.344L362.617 60.3525C362 61.9181 361.089 63.3632 359.881 64.6765C358.677 65.9937 357.27 67.1227 355.67 68.0748C354.071 69.0269 352.321 69.7682 350.409 70.2989C348.49 70.832 346.507 71.1004 344.516 71.0967H344.52ZM361.695 46.7483C361.56 44.3122 360.974 41.9223 359.968 39.6997C359.044 37.6548 357.762 35.7915 356.182 34.1978C354.646 32.6645 352.831 31.4395 350.834 30.5889C348.785 29.7151 346.578 29.2719 344.35 29.2868C342.123 29.2719 339.916 29.7151 337.866 30.5889C333.766 32.3353 330.516 35.6219 328.816 39.7411C327.872 41.9672 327.315 44.3384 327.171 46.7521H361.695V46.7483ZM374.998 70.2575V26.6073H379.213V70.2612H374.998V70.2575ZM374.998 16.6949V8.97266H379.213V16.6949H374.998ZM410.11 70.9311C407.223 70.963 404.369 70.3159 401.778 69.0419C399.29 67.8117 397.072 66.0987 395.252 64.0029C393.412 61.8799 391.957 59.451 390.955 56.8264C389.923 54.1764 389.394 51.3571 389.397 48.5133C389.397 45.5479 389.89 42.6915 390.872 39.9519C391.805 37.2956 393.218 34.8336 395.042 32.6888C396.837 30.5889 398.982 28.9255 401.48 27.6911C403.979 26.4606 406.745 25.8471 409.775 25.8471C413.594 25.8471 416.917 26.8406 419.755 28.8277C422.571 30.7965 425.01 33.2569 426.954 36.0908V26.596H430.826V71.0929C430.826 74.0621 430.262 76.6625 429.14 78.9017C428.072 81.0744 426.533 82.9821 424.636 84.4864C422.754 85.9691 420.568 87.0868 418.069 87.8432C415.57 88.5959 412.947 88.976 410.196 88.976C407.903 89.0004 405.615 88.7605 403.377 88.2609C401.509 87.8439 399.709 87.1661 398.03 86.2476C396.504 85.3937 395.114 84.3182 393.905 83.0563C392.696 81.7966 391.636 80.4026 390.744 78.9017L393.608 76.9711C395.35 79.9366 397.71 82.108 400.683 83.4778C403.656 84.8476 406.828 85.5326 410.196 85.5326C412.443 85.5326 414.562 85.2277 416.556 84.6106C418.547 83.9934 420.285 83.0864 421.776 81.8822C423.262 80.6779 424.44 79.1802 425.313 77.3889C426.179 75.6013 426.615 73.5014 426.615 71.0929V61.5304C424.834 64.3699 422.374 66.7211 419.458 68.3721C416.625 70.0393 413.4 70.9225 410.113 70.9311H410.11ZM411.126 67.3186C412.985 67.3173 414.826 66.9623 416.552 66.2722C418.321 65.5722 419.92 64.6615 421.354 63.54C422.784 62.4223 423.962 61.1616 424.892 59.7655C425.817 58.3655 426.393 56.9656 426.615 55.5657V41.2088C425.276 37.8737 423.012 34.9908 420.09 32.8995C418.663 31.8942 417.106 31.0889 415.461 30.5061C413.853 29.927 412.157 29.6291 410.448 29.6255C407.814 29.6255 405.454 30.1824 403.373 31.3039C401.341 32.3865 399.551 33.8718 398.112 35.6693C396.667 37.4875 395.556 39.5479 394.831 41.7545C394.083 43.9583 393.7 46.269 393.694 48.5961C393.694 51.1175 394.142 53.4959 395.042 55.735C395.937 57.9742 397.172 59.9612 398.745 61.696C400.318 63.4271 402.169 64.8007 404.303 65.8093C406.435 66.8156 408.765 67.3312 411.122 67.3186H411.126ZM479.749 70.2575H475.538V45.9129C475.538 35.1123 471.918 29.712 464.677 29.712C462.878 29.712 461.124 30.0507 459.412 30.7206C457.7 31.3904 456.1 32.3388 454.614 33.5731C453.128 34.8037 451.822 36.2451 450.7 37.8971C449.584 39.5319 448.731 41.3311 448.171 43.2297V70.2612H443.96V8.97266H448.175V37.009C449.893 33.6826 452.464 30.8732 455.626 28.869C458.671 26.8919 462.225 25.8421 465.855 25.8471C468.267 25.8471 470.344 26.295 472.087 27.1906C473.825 28.0863 475.271 29.3733 476.422 31.0517C477.574 32.7302 478.417 34.7586 478.947 37.1369C479.482 39.5153 479.749 42.191 479.749 45.1527V70.2575ZM512 68.1576C511.774 68.2705 511.394 68.4812 510.86 68.7898C510.329 69.0984 509.656 69.3919 508.839 69.6704C507.942 69.9724 507.028 70.2236 506.103 70.423C505.094 70.6488 503.996 70.7617 502.821 70.7617C501.64 70.7617 500.533 70.5924 499.495 70.2575C498.491 69.9415 497.561 69.4285 496.759 68.7484C495.973 68.0788 495.341 67.2485 494.904 66.3136C494.433 65.2572 494.202 64.1093 494.23 62.953V30.0432H488.085V26.5998H494.23V11.6596H498.441V26.5998H508.628V30.0432H498.441V61.9482C498.441 63.5664 499.005 64.7857 500.127 65.5985C501.248 66.4114 502.509 66.8178 503.913 66.8178C505.655 66.8178 507.157 66.5205 508.417 65.9335C509.682 65.3464 510.453 64.9701 510.736 64.8045L511.996 68.1576H512Z" fill="black"/>
<path d="M6.10026 0L12.2043 13.0059H0L6.10026 0ZM0 15.0606H12.2043V73.252H0V15.0606ZM0 75.3067H12.2043V82.3817H0V75.3067ZM21.7141 12.972L30.1663 4.52721L69.0183 43.4093L29.9707 83.394L21.5334 75.3782L52.204 43.4657L21.7141 12.9757V12.972Z" fill="url(#paint0_linear_1_13960)"/>
</g>
<defs>
<linearGradient id="paint0_linear_1_13960" x1="1087.09" y1="8339.4" x2="7105.25" y2="1068.1" gradientUnits="userSpaceOnUse">
<stop stop-color="#EC407A"/>
<stop offset="1" stop-color="#FFA000"/>
</linearGradient>
<clipPath id="clip0_1_13960">
<rect width="512" height="89" fill="white"/>
</clipPath>
</defs>
</svg>
