<svg width="512" height="181" viewBox="0 0 512 181" fill="none" xmlns="http://www.w3.org/2000/svg">
<g clip-path="url(#clip0_1_13964)">
<path d="M193.89 0L91.0341 122.797H149.942L125.382 151.235H67.2153L3.87781 180.964L106.936 56.8745H47.8263L72.3858 28.4373H130.553L193.89 0ZM59.4597 28.4373L36.1929 56.8745H28.4373V122.797H40.0707L15.5112 151.235H0V28.4373H59.4597ZM197.768 28.4373V151.235H137.016L161.575 122.797H169.331V58.1671H157.698L182.257 28.4373H197.768Z" fill="#F7A41D"/>
<path d="M461.718 27.9219C480.202 27.9219 499.462 35.0312 512 46.0183L495.196 65.4074C486.019 57.264 473.48 52.4813 461.718 52.4813C439.743 52.4813 422.681 69.1559 422.681 90.6131C422.681 112.329 439.873 128.874 461.847 128.874C469.097 128.874 478.098 125.996 486.02 121.963L486.019 104.702L447.241 86.606H509.285V137.018C496.101 146.454 478.263 152.529 460.554 152.529C423.069 152.529 394.502 125.643 394.502 90.0961C394.502 54.808 423.586 27.9219 461.718 27.9219ZM336.077 28.4389V47.828L267.569 127.969H337.369V151.236H227.498V133.14L296.006 51.7058H228.791V28.4389H336.077ZM380.025 28.4389V151.236H351.588V28.4389H380.025Z" fill="#121212"/>
</g>
<defs>
<clipPath id="clip0_1_13964">
<rect width="512" height="181" fill="white"/>
</clipPath>
</defs>
</svg>
