<svg width="512" height="177" viewBox="0 0 512 177" fill="none" xmlns="http://www.w3.org/2000/svg">
<g clip-path="url(#clip0_1_13968)">
<path d="M512 37.6992V159.099L495.2 175.499V56.6992L512 37.6992Z" fill="#E79225"/>
<path d="M401.9 37.7992L384.5 56.6992L385.4 57.8992L494.5 57.4992L495.5 56.6992L512 37.6992L401.9 37.7992Z" fill="#FFF16D"/>
<path d="M495.5 56.6992H384.5V175.599H495.5V56.6992Z" fill="url(#paint0_linear_1_13968)"/>
<path d="M478.6 99.5C476.4 94 473.1 89 468.8 84.7C464.7 80.5 460.1 77.3 454.9 75.2C449.8 73.1 444.3 72 438.3 72C432.3 72 426.7 73.1 421.6 75.2C416.4 77.3 411.8 80.5 407.7 84.7C403.4 89 400.2 94 398 99.5C395.8 105 394.8 111 394.8 117.6C394.8 124 395.9 130 398.1 135.6C400.3 141.2 403.5 146.2 407.8 150.6C411.8 154.7 416.4 157.8 421.5 159.9C426.6 162 432.3 163.1 438.4 163.1C444.3 163.1 449.8 162 454.9 159.9C460 157.8 464.7 154.7 468.8 150.6C473.1 146.2 476.4 141.2 478.6 135.7C480.8 130.2 481.9 124.1 481.9 117.7C481.9 111 480.8 105 478.6 99.5ZM455.7 138.7C451.4 143.8 445.7 146.4 438.3 146.4C430.9 146.4 425.1 143.8 420.8 138.7C416.5 133.6 414.4 126.5 414.4 117.5C414.4 108.3 416.6 101.2 420.8 96C425.1 90.8 430.8 88.3 438.3 88.3C445.7 88.3 451.4 90.9 455.7 96C459.9 101.2 462.1 108.3 462.1 117.5C462.1 126.5 460 133.6 455.7 138.7Z" fill="white"/>
<path d="M373.6 27.8008V28.4008L387.8 137.501L379.5 160.501L378.4 159.701L363.8 55.1008L364.1 53.7008L373.2 28.4008L373.6 27.8008Z" fill="#009ADA"/>
<path d="M264.3 43.0008L373.6 27.8008L364.4 54.0008L363.1 55.4008L260.9 70.4008L261.4 51.7008L264.3 43.0008Z" fill="#91C9ED"/>
<path d="M364.4 54L379.5 160.5L271.8 175.6L257.3 72.7L263.6 67.8L364.4 54Z" fill="url(#paint1_linear_1_13968)"/>
<path d="M346.1 74.4023C345.6 71.1023 344.5 68.6023 342.7 66.9023C341.2 65.6023 339.4 64.9023 337.3 64.9023C336.8 64.9023 336.2 64.9023 335.6 65.0023C332.8 65.4023 330.7 66.7023 329.4 68.8023C328.4 70.3023 328 72.2023 328 74.4023C328 75.2023 328.1 76.1023 328.2 77.0023L332.1 104.702L301.1 109.302L297.2 81.6023C296.7 78.4023 295.6 75.9023 293.8 74.2023C292.3 72.8023 290.5 72.1023 288.5 72.1023C288 72.1023 287.5 72.1023 287 72.2023C284.1 72.6023 281.9 73.9023 280.5 76.0023C279.5 77.5023 279.1 79.4023 279.1 81.6023C279.1 82.4023 279.2 83.3023 279.3 84.3023L289.9 156.402C290.4 159.702 291.5 162.202 293.5 163.902C295 165.202 296.8 165.802 299 165.802C299.6 165.802 300.2 165.802 300.8 165.702C303.5 165.302 305.5 164.002 306.8 161.902C307.7 160.402 308.1 158.602 308.1 156.502C308.1 155.702 308 154.802 307.9 153.902L303.6 125.402L334.6 120.802L338.9 149.302C339.4 152.602 340.5 155.102 342.4 156.702C343.9 158.002 345.7 158.702 347.8 158.702C348.3 158.702 348.9 158.702 349.5 158.602C352.3 158.202 354.4 156.902 355.7 154.802C356.6 153.302 357.1 151.502 357.1 149.302C357.1 148.502 357 147.602 356.9 146.702L346.1 74.4023Z" fill="white"/>
<path d="M162 0L123.1 92.4L128.4 133L128.7 132.9L172.4 34.6L172.2 32.5L162.8 1.3L162 0Z" fill="#66BF6B"/>
<path d="M162 0L172.1 33.9L172.3 34.6L268.5 77.7L268.8 77.5L260.6 45.1L162 0Z" fill="#98D0A0"/>
<path d="M172.1 33.8984L268.8 77.4984L225.1 176.598L128.4 132.998L172.1 33.8984Z" fill="url(#paint2_linear_1_13968)"/>
<path d="M239.5 85.4992C237.4 79.8992 234.5 75.0992 230.7 71.0992C226.9 67.0992 222.3 63.8992 216.9 61.5992C211.5 59.2992 206.1 58.1992 200.6 58.1992H200.3C194.7 58.1992 189.2 59.4992 183.8 61.8992C178.1 64.3992 173.2 67.7992 169 72.2992C164.8 76.6992 161.4 82.0992 158.8 88.2992C156.2 94.3992 154.8 100.599 154.5 106.699V108.799C154.5 114.199 155.4 119.499 157.3 124.699C159.3 130.199 162.2 134.899 166 138.899C169.8 142.899 174.5 146.099 180.1 148.399C185.4 150.699 190.8 151.799 196.3 151.799H196.4C201.9 151.799 207.4 150.599 212.8 148.299C218.5 145.799 223.5 142.299 227.7 137.799C231.9 133.399 235.4 128.099 238 121.899C240.6 115.699 242 109.599 242.3 103.499V101.699C242.4 96.1992 241.5 90.7992 239.5 85.4992ZM220.2 114.299C216.6 122.899 211.7 128.799 205.8 131.999C202.6 133.699 199.3 134.599 196 134.599C193.1 134.599 190 133.899 186.9 132.599C180.1 129.699 175.9 125.099 174.1 118.499C173.5 116.299 173.2 113.999 173.2 111.599C173.2 106.799 174.4 101.499 176.8 95.7992C180.5 86.9992 185.4 80.9992 191.3 77.6992C194.5 75.8992 197.8 75.0992 201.1 75.0992C204.1 75.0992 207.1 75.7992 210.3 77.0992C217 79.9992 221.2 84.5992 223 91.1992C223.6 93.2992 223.9 95.5992 223.9 97.9992C223.9 102.999 222.7 108.399 220.2 114.299Z" fill="white"/>
<path d="M115.4 15.6992L131.2 121.499L124 158.699L123 157.399L107.6 55.1992V53.1992L114.4 17.4992L115.4 15.6992Z" fill="#760D16"/>
<path d="M0 70.3992L7.5 32.9992L115.4 15.6992L108.1 53.7992V56.2992L1.3 71.3992L0 70.3992Z" fill="#EF463E"/>
<path d="M108.1 53.8008L124 158.701L17.2 175.401L0 70.4008L108.1 53.8008Z" fill="url(#paint3_linear_1_13968)"/>
<path d="M96.6 142.001C95.8 141.001 94.6 140.301 93.2 139.801C91.8 139.301 90.1 139.101 88 139.101C86.1 139.101 83.9 139.301 81.5 139.701L53.3 144.501C53.6 142.301 54.7 139.501 56.6 136.001C58.7 132.101 61.9 127.401 66 122.001C67.4 120.101 68.5 118.701 69.3 117.701C69.8 117.001 70.6 116.101 71.6 114.801C78.1 106.301 82 99.4008 83.6 94.0008C84.5 90.9008 85 87.8008 85.2 84.7008C85.3 83.8008 85.3 83.0008 85.3 82.2008C85.3 80.0008 85.1 77.8008 84.7 75.6008C84.4 73.6008 83.9 72.0008 83.2 70.7008C82.5 69.4008 81.7 68.4008 80.7 67.8008C79.6 67.1008 77.9 66.8008 75.8 66.8008C74.1 66.8008 72 67.0008 69.5 67.4008L36.9 73.0008C33 73.7008 30 74.8008 28.2 76.6008C26.7 78.0008 26 79.8008 26 81.8008C26 82.3008 26 82.9008 26.1 83.5008C26.6 86.3008 28 88.3008 30.3 89.3008C31.7 89.9008 33.3 90.2008 35.3 90.2008C36.6 90.2008 38.1 90.1008 39.7 89.8008L66.9 85.0008C66.9 85.5008 67 86.0008 67 86.4008C67 88.1008 66.7 89.8008 66.1 91.4008C65.3 93.7008 63.3 96.9008 60 101.001C59.1 102.101 57.7 103.901 55.8 106.201C48.4 115.101 43.2 122.701 40 129.001C37.7 133.401 36.2 137.601 35.3 141.901C34.8 144.401 34.5 146.701 34.5 149.001C34.5 150.601 34.6 152.201 34.9 153.701C35.3 155.901 35.8 157.701 36.5 159.101C37.2 160.501 38.2 161.601 39.3 162.201C40.4 162.801 41.9 163.001 44.1 163.001C46.8 163.001 50.5 162.601 55.2 161.801L84.8 156.701C90 155.801 93.7 154.501 95.8 152.801C97.5 151.401 98.4 149.501 98.4 147.301C98.4 146.701 98.3 146.101 98.2 145.501C98 144.201 97.5 143.001 96.6 142.001Z" fill="white"/>
</g>
<defs>
<linearGradient id="paint0_linear_1_13968" x1="5934.04" y1="226.866" x2="5934.04" y2="11587.8" gradientUnits="userSpaceOnUse">
<stop offset="0.005618" stop-color="#FFE513"/>
<stop offset="1" stop-color="#FDB924"/>
</linearGradient>
<linearGradient id="paint1_linear_1_13968" x1="808.722" y1="1694.9" x2="11905.2" y2="10694.4" gradientUnits="userSpaceOnUse">
<stop offset="0.005618" stop-color="#008CD2"/>
<stop offset="1" stop-color="#00649D"/>
</linearGradient>
<linearGradient id="paint2_linear_1_13968" x1="7148.63" y1="3997.94" x2="7148.63" y2="13951.3" gradientUnits="userSpaceOnUse">
<stop stop-color="#26A146"/>
<stop offset="1" stop-color="#008A52"/>
</linearGradient>
<linearGradient id="paint3_linear_1_13968" x1="5423" y1="1051.87" x2="7071.42" y2="11396.9" gradientUnits="userSpaceOnUse">
<stop stop-color="#D92231"/>
<stop offset="1" stop-color="#BA2234"/>
</linearGradient>
<clipPath id="clip0_1_13968">
<rect width="512" height="177" fill="white"/>
</clipPath>
</defs>
</svg>
