<svg width="256" height="256" viewBox="0 0 256 256" fill="none" xmlns="http://www.w3.org/2000/svg">
<g clip-path="url(#clip0_1_13990)">
<path d="M256 128C256 141.568 254.976 155.136 252.672 168.192C245.76 211.456 211.456 245.76 168.192 252.672C155.136 254.976 141.568 256 128 256C114.432 256 100.864 254.976 87.808 252.672C44.544 245.76 10.24 211.456 3.328 168.192C1.024 155.136 0 141.568 0 128C0 114.432 1.024 100.864 3.328 87.808C10.24 44.544 44.544 10.24 87.808 3.328C100.864 1.024 114.432 0 128 0C141.568 0 155.136 1.024 168.192 3.328C211.456 10.24 245.76 44.544 252.672 87.808C254.976 100.864 256 114.432 256 128Z" fill="url(#paint0_linear_1_13990)"/>
<path d="M204.032 207.871H75.008C66.56 207.871 58.368 203.263 54.528 195.839C49.92 187.135 51.712 176.639 58.624 169.727L148.48 79.8711H83.968C66.304 79.8711 51.968 65.5351 51.968 47.8711H170.752C179.2 47.8711 187.392 52.4791 191.232 59.9031C195.84 68.6071 194.048 79.1031 187.136 86.0151L97.536 176.127H172.032C189.696 176.127 204.032 190.207 204.032 207.871Z" fill="white"/>
</g>
<defs>
<linearGradient id="paint0_linear_1_13990" x1="6058.5" y1="24476.6" x2="19541.5" y2="1123.38" gradientUnits="userSpaceOnUse">
<stop offset="5.79195e-07" stop-color="#0845BF"/>
<stop offset="0.1911" stop-color="#0950DE"/>
<stop offset="0.3823" stop-color="#0B59F6"/>
<stop offset="0.5" stop-color="#0B5CFF"/>
<stop offset="0.6732" stop-color="#0E5EFE"/>
<stop offset="0.7774" stop-color="#1665FC"/>
<stop offset="0.8633" stop-color="#246FF9"/>
<stop offset="0.9388" stop-color="#387FF4"/>
<stop offset="1" stop-color="#4F90EE"/>
</linearGradient>
<clipPath id="clip0_1_13990">
<rect width="256" height="256" fill="white"/>
</clipPath>
</defs>
</svg>
