<svg width="512" height="117" viewBox="0 0 512 117" fill="none" xmlns="http://www.w3.org/2000/svg">
<g clip-path="url(#clip0_1_13994)">
<path d="M107.472 114.706H16.3477C10.3795 114.706 4.5569 111.503 1.79115 106.117C-1.41129 99.858 -0.246764 92.4341 4.70246 87.6305L68.169 24.1639H22.607C10.0884 24.1639 0.044367 13.9743 0.044367 1.60122H84.0357C90.0039 1.60122 95.8265 4.80366 98.5922 10.1896C101.795 16.4489 100.63 23.8728 95.6809 28.6764L32.2144 92.143H84.7635C97.2822 92.143 107.472 102.333 107.472 114.706ZM468.183 0C455.082 0 443.437 5.67706 435.285 14.7021C427.134 5.67706 415.488 0 402.388 0C378.224 0 358.427 20.6703 358.427 44.8342V114.706C370.945 114.706 380.989 104.516 380.989 92.143V44.6886C380.989 33.0434 390.014 23.1449 401.66 22.7082C413.887 22.2715 423.931 32.0244 423.931 44.1064V92.143C423.931 104.662 434.121 114.706 446.494 114.706V44.5431C446.494 32.8978 455.519 22.9994 467.164 22.5627C479.392 22.126 489.436 31.8789 489.436 43.9608V91.9974C489.436 104.516 499.625 114.56 511.999 114.56V44.6886C512.144 20.6703 492.347 0 468.183 0ZM221.595 58.2262C221.595 90.3962 195.539 116.452 163.369 116.452C131.199 116.452 105.143 90.3962 105.143 58.2262C105.143 26.0562 131.199 0 163.369 0C195.539 0 221.595 26.0562 221.595 58.2262ZM199.032 58.2262C199.032 38.5749 183.02 22.5627 163.369 22.5627C143.718 22.5627 127.705 38.5749 127.705 58.2262C127.705 77.8776 143.718 93.8898 163.369 93.8898C183.02 93.8898 199.032 77.8776 199.032 58.2262ZM347.073 58.2262C347.073 90.3962 321.016 116.452 288.846 116.452C256.676 116.452 230.62 90.3962 230.62 58.2262C230.62 26.0562 256.676 0 288.846 0C321.016 0 347.073 26.0562 347.073 58.2262ZM324.51 58.2262C324.51 38.5749 308.498 22.5627 288.846 22.5627C269.195 22.5627 253.183 38.5749 253.183 58.2262C253.183 77.8776 269.195 93.8898 288.846 93.8898C308.498 93.8898 324.51 77.8776 324.51 58.2262Z" fill="#0B5CFF"/>
</g>
<defs>
<clipPath id="clip0_1_13994">
<rect width="512" height="117" fill="white"/>
</clipPath>
</defs>
</svg>
